

<svg xmlns:agg="http://www.example.com" xmlns="http://www.w3.org/2000/svg" preserveAspectRatio="none" width="1.4792in" height="1.4792in" viewBox="0 0 413 413">

<path style="fill:#7f7f7f;stroke:#000;stroke-width:2" d="M402,369 l0,-260 -1,-10 -3,-10 -5,-9 -6,-9 -9,-9 -9,-8 -12,-7 -12,-7 -14,-7 -15,-5 -16,-5 -17,-4 -18,-4 -19,-2 -19,-1 -20,-1 -20,1 -19,1 -19,2 -18,4 -17,4 -16,5 -16,5 -13,7 -13,7 -11,7 -10,8 -9,9 -6,9 -5,9 -3,10 -1,10 0,260 4,7 11,6 9,3 10,2 11,3 13,2 13,2 16,2 16,2 17,1 18,1 19,1 19,1 20,0 20,0 19,-1 19,-1 18,-1 17,-1 16,-2 15,-2 14,-2 12,-2 12,-3 9,-2 9,-3 11,-6 3,-4 1,-3z" />
<path style="fill:#999" d="M378,369 l0,-260 -1,-10 -2,-10 -5,-9 -5,-9 -8,-9 -8,-8 -10,-7 -11,-7 -12,-7 -14,-5 -14,-5 -15,-4 -15,-4 -17,-2 -17,-1 -17,-1 -18,1 -17,1 -16,2 -16,4 -15,4 -14,5 -13,5 -13,7 -11,7 -10,7 -8,8 -7,9 -6,9 -5,9 -2,10 -1,10 0,260 3,7 11,6 15,5 10,3 11,2 13,2 13,2 14,2 15,1 16,1 16,1 17,1 18,0 17,0 17,-1 17,-1 15,-1 15,-1 14,-2 14,-2 12,-2 11,-2 10,-3 16,-5 10,-6 2,-4 1,-3z" />
<path style="fill:#b2b2b2" d="M337,369 l0,-260 -3,-20 -7,-18 -12,-17 -16,-14 -20,-12 -22,-9 -24,-6 -26,-2 -26,2 -25,6 -22,9 -19,12 -17,14 -12,17 -7,18 -3,20 0,260 3,7 7,6 12,5 17,5 19,4 22,3 25,2 26,1 26,-1 24,-2 22,-3 20,-4 16,-5 12,-5 7,-6 3,-7z" />
<path style="fill:#ccc" d="M280,369 l0,-260 -1,-20 -5,-18 -7,-17 -8,-14 -11,-12 -13,-9 -13,-6 -15,-2 -15,2 -14,6 -12,9 -11,12 -9,14 -7,17 -5,18 -1,20 0,260 1,7 12,11 9,5 11,4 12,3 14,2 15,1 15,-1 13,-2 13,-3 11,-4 8,-5 12,-11 1,-7z" />
<path style="fill:none;stroke:#000;stroke-width:2" d="M402,109 l-4,7 -11,6 -9,2 -9,3 -12,2 -12,3 -14,2 -15,2 -16,1 -17,2 -18,1 -19,0 -19,1 -40,0 -19,-1 -19,0 -18,-1 -17,-2 -16,-1 -16,-2 -13,-2 -13,-3 -11,-2 -10,-3 -15,-5 -5,-3 -4,-7" />
<path style="fill:none;stroke:#000;stroke-width:2" d="M239,16 l-1,1 -2,1 -3,1 -4,1 -4,1 -6,0 -6,1 -6,0 -7,0 -6,-1 -5,0 -5,-1 -4,-1 -3,-1 -2,-1 -1,-1" />
<path style="fill:#333;stroke:#000;stroke-width:2" d="M52,402 l7,0 0,-283 -7,0 0,283z" />
<path style="fill:#333;stroke:#000;stroke-width:2" d="M82,402 l7,0 0,-283 -7,0 0,283z" />
<path style="fill:#666;stroke:#000;stroke-width:2" d="M59,380 l0,7 23,0 0,-7 -23,0z" />
<path style="fill:#666;stroke:#000;stroke-width:2" d="M59,357 l0,8 23,0 0,-8 -23,0z" />
<path style="fill:#666;stroke:#000;stroke-width:2" d="M59,335 l0,7 23,0 0,-7 -23,0z" />
<path style="fill:#666;stroke:#000;stroke-width:2" d="M59,313 l0,7 23,0 0,-7 -23,0z" />
<path style="fill:#666;stroke:#000;stroke-width:2" d="M59,290 l0,8 23,0 0,-8 -23,0z" />
<path style="fill:#666;stroke:#000;stroke-width:2" d="M59,268 l0,7 23,0 0,-7 -23,0z" />
<path style="fill:#666;stroke:#000;stroke-width:2" d="M59,245 l0,8 23,0 0,-8 -23,0z" />
<path style="fill:#666;stroke:#000;stroke-width:2" d="M59,223 l0,8 23,0 0,-8 -23,0z" />
<path style="fill:#666;stroke:#000;stroke-width:2" d="M59,201 l0,7 23,0 0,-7 -23,0z" />
<path style="fill:#666;stroke:#000;stroke-width:2" d="M59,178 l0,8 23,0 0,-8 -23,0z" />
<path style="fill:#666;stroke:#000;stroke-width:2" d="M59,156 l0,7 23,0 0,-7 -23,0z" />
<path style="fill:#666;stroke:#000;stroke-width:2" d="M59,134 l0,7 23,0 0,-7 -23,0z" />

</svg>
