 

<svg xmlns:agg="http://www.example.com" xmlns="http://www.w3.org/2000/svg" preserveAspectRatio="none" width="0.7984in" height="1.0750in" viewBox="0 0 742 999">

<path style="fill:#b2b2b2;stroke:#000;stroke-width:2" d="M661,194 l0,776 -26,0 0,-776 0,-3 0,-3 1,-2 2,-3 1,-2 2,-1 2,-1 3,0 3,0 3,1 2,1 2,2 2,3 2,2 1,3 0,3z" />
<path style="fill:#b2b2b2;stroke:#000;stroke-width:2" d="M107,194 l0,776 -27,0 0,-776 1,-3 1,-3 1,-2 2,-3 2,-2 3,-1 3,-1 3,0 2,0 2,1 2,1 2,2 1,3 1,2 1,3 0,3z" />
<path style="fill:#b2b2b2;stroke:#000;stroke-width:2" d="M292,194 l0,776 -31,0 0,-776 1,-3 1,-3 1,-2 2,-3 2,-2 3,-1 3,-1 3,0 2,0 3,1 3,1 2,2 2,3 1,2 1,3 1,3z" />
<path style="fill:#b2b2b2;stroke:#000;stroke-width:2" d="M476,194 l0,776 -26,0 0,-776 0,-3 1,-3 2,-2 2,-3 2,-2 2,-1 3,-1 3,0 3,0 2,1 2,1 2,2 1,3 1,2 0,3 0,3z" />
<path style="fill:none;stroke:#000;stroke-width:2" d="M458,326 l-29,3 -17,12 0,629 -83,0 0,-629 -22,-14 -37,-3 -27,-5 -26,-5 -37,-10 -33,-11 -30,-13 -26,-14 -22,-16 -22,-22 -14,-24 -5,-19 0,-6 0,-8 11,-30 16,-21 23,-20 28,-17 35,-16 25,-9 27,-8 30,-7 30,-6 32,-5 34,-2 34,-2 18,0 17,0 35,2 33,2 32,5 31,6 29,7 28,8 25,9 23,10 31,17 25,19 18,21 14,29 1,8 1,8 0,6 -8,25 -16,23 -25,22 -24,15 -28,14 -31,13 -34,11 -37,9 -26,5 -27,4" />
<path style="fill:none;stroke:#7f7f7f;stroke-width:2" d="M695,970 l-53,-192 53,-192" />
<path style="fill:none;stroke:#7f7f7f;stroke-width:2" d="M642,970 l53,-192 -53,-192" />
<path style="fill:none;stroke:#7f7f7f;stroke-width:2" d="M642,970 l-181,-192 181,-192" />
<path style="fill:none;stroke:#7f7f7f;stroke-width:2" d="M461,970 l181,-192 -181,-192" />
<path style="fill:none;stroke:#7f7f7f;stroke-width:2" d="M461,970 l-181,-192 181,-192" />
<path style="fill:none;stroke:#7f7f7f;stroke-width:2" d="M280,970 l181,-192 -181,-192" />
<path style="fill:none;stroke:#7f7f7f;stroke-width:2" d="M280,970 l-184,-192 184,-192" />
<path style="fill:none;stroke:#7f7f7f;stroke-width:2" d="M96,970 l184,-192 -184,-192" />
<path style="fill:none;stroke:#7f7f7f;stroke-width:2" d="M96,970 l-53,-192 53,-192" />
<path style="fill:none;stroke:#7f7f7f;stroke-width:2" d="M43,970 l53,-192 -53,-192" />
<path style="fill:none;stroke:#7f7f7f;stroke-width:2" d="M695,597 l-53,-192 53,-193" />
<path style="fill:none;stroke:#7f7f7f;stroke-width:2" d="M642,597 l53,-192 -53,-193" />
<path style="fill:none;stroke:#7f7f7f;stroke-width:2" d="M642,597 l-181,-192 181,-193" />
<path style="fill:none;stroke:#7f7f7f;stroke-width:2" d="M461,597 l181,-192 -181,-193" />
<path style="fill:none;stroke:#7f7f7f;stroke-width:2" d="M461,597 l-181,-192 181,-193" />
<path style="fill:none;stroke:#7f7f7f;stroke-width:2" d="M280,597 l181,-192 -181,-193" />
<path style="fill:none;stroke:#7f7f7f;stroke-width:2" d="M280,597 l-184,-192 184,-193" />
<path style="fill:none;stroke:#7f7f7f;stroke-width:2" d="M96,597 l184,-192 -184,-193" />
<path style="fill:none;stroke:#7f7f7f;stroke-width:2" d="M96,597 l-53,-192 53,-193" />
<path style="fill:none;stroke:#7f7f7f;stroke-width:2" d="M43,597 l53,-192 -53,-193" />
<path style="fill:#ccc;stroke:#000;stroke-width:2" d="M458,326 l-29,3 -17,12 0,629 -83,0 0,-629 -22,-14 -37,-3 -27,-5 -26,-5 -37,-10 -33,-11 -30,-13 -26,-14 -22,-16 -22,-22 -14,-24 -5,-19 0,-6 0,-8 11,-30 16,-21 23,-20 28,-17 35,-16 25,-9 27,-8 30,-7 30,-6 32,-5 34,-2 34,-2 18,0 17,0 35,2 33,2 32,5 31,6 29,7 28,8 25,9 23,10 31,17 25,19 18,21 14,29 1,8 1,8 0,6 -8,25 -16,23 -25,22 -24,15 -28,14 -31,13 -34,11 -37,9 -26,5 -27,4z" />
<path style="fill:#b2b2b2;stroke:#000;stroke-width:2" d="M318,371 l106,0 0,22 -106,0 0,-22z" />
<ellipse style="fill:#e5e5e5" cx="348" cy="161" rx="290" ry="126" />
<path style="fill:none;stroke:#000;stroke-width:2" d="M688,970 l-189,-192 189,-192" />
<path style="fill:none;stroke:#000;stroke-width:2" d="M499,970 l189,-192 -189,-192" />
<path style="fill:none;stroke:#000;stroke-width:2" d="M473,970 l-204,-192 204,-192" />
<path style="fill:none;stroke:#000;stroke-width:2" d="M269,970 l204,-192 -204,-192" />
<path style="fill:none;stroke:#000;stroke-width:2" d="M243,970 l-189,-192 189,-192" />
<path style="fill:none;stroke:#000;stroke-width:2" d="M54,970 l189,-192 -189,-192" />
<path style="fill:none;stroke:#000;stroke-width:2" d="M688,597 l-189,-192 189,-193" />
<path style="fill:none;stroke:#000;stroke-width:2" d="M499,597 l189,-192 -189,-193" />
<path style="fill:none;stroke:#000;stroke-width:2" d="M473,597 l-204,-192 204,-193" />
<path style="fill:none;stroke:#000;stroke-width:2" d="M269,597 l204,-192 -204,-193" />
<path style="fill:none;stroke:#000;stroke-width:2" d="M243,597 l-189,-192 189,-193" />
<path style="fill:none;stroke:#000;stroke-width:2" d="M54,597 l189,-192 -189,-193" />
<path style="fill:#699;stroke:#000;stroke-width:2" d="M28,586 l686,0 0,11 -686,0 0,-11z" />
<path style="fill:#e5e5e5;stroke:#000;stroke-width:2" d="M54,194 l0,776 -26,0 0,-776 0,-3 1,-3 2,-2 1,-3 3,-2 2,-1 3,-1 3,0 1,0 2,1 2,1 2,2 1,3 2,2 1,3 0,3z" />
<path style="fill:#e5e5e5;stroke:#000;stroke-width:2" d="M269,194 l0,776 -26,0 0,-776 0,-3 0,-3 1,-2 1,-3 2,-2 2,-1 2,-1 3,0 3,0 3,1 2,1 2,2 2,3 2,2 1,3 0,3z" />
<path style="fill:#e5e5e5;stroke:#000;stroke-width:2" d="M499,194 l0,776 -26,0 0,-776 0,-3 0,-3 1,-2 1,-3 2,-2 2,-1 2,-1 3,0 3,0 3,1 2,1 2,2 2,3 2,2 1,3 0,3z" />
<path style="fill:#e5e5e5;stroke:#000;stroke-width:2" d="M714,194 l0,776 -26,0 0,-776 0,-3 0,-3 1,-2 1,-3 2,-2 2,-1 2,-1 3,0 3,0 2,1 3,1 2,2 2,3 2,2 1,3 0,3z" />

</svg>
