

<svg xmlns:agg="http://www.example.com" xmlns="http://www.w3.org/2000/svg" preserveAspectRatio="none" width="2.0104in" height="1.0606in" viewBox="0 0 999 527">

<path style="fill:#666;stroke:#000;stroke-width:2" d="M852,499 l30,-8 21,-15 19,-24 13,-22 11,-26 10,-29 7,-31 4,-33 2,-24 1,-12 0,-12 -1,-35 -4,-35 -7,-32 -8,-29 -11,-27 -12,-23 -19,-26 -21,-18 -29,-10 -6,0 -706,0 -30,7 -22,16 -19,24 -13,22 -11,26 -9,28 -7,32 -5,33 -2,23 0,12 0,12 1,36 4,34 6,32 9,30 10,27 13,23 18,25 22,18 29,11 6,0 706,0z" />
<path style="fill:#737373" d="M28,263 l9,-81 25,-73 40,-47 44,-15 706,0 45,15 40,47 25,73 8,81 -8,81 -25,73 -40,46 -45,16 -706,0 -44,-16 -40,-46 -25,-73 -9,-81z" />
<path style="fill:#7d7d7d" d="M28,263 l9,-73 25,-67 40,-42 44,-14 706,0 45,14 40,42 25,67 8,73 -8,73 -25,67 -40,42 -45,14 -706,0 -44,-14 -40,-42 -25,-67 -9,-73z" />
<path style="fill:#8a8a8a" d="M28,263 l9,-66 25,-60 40,-38 44,-13 706,0 45,13 40,38 25,60 8,66 -8,66 -25,60 -40,38 -45,13 -706,0 -44,-13 -40,-38 -25,-60 -9,-66z" />
<path style="fill:#949494" d="M28,263 l9,-59 25,-53 40,-34 44,-11 706,0 45,11 40,34 25,53 8,59 -8,59 -25,53 -40,34 -45,11 -706,0 -44,-11 -40,-34 -25,-53 -9,-59z" />
<path style="fill:#a1a1a1" d="M28,263 l9,-52 25,-46 40,-30 44,-10 706,0 45,10 40,30 25,46 8,52 -8,51 -25,47 -40,29 -45,11 -706,0 -44,-11 -40,-29 -25,-47 -9,-51z" />
<path style="fill:#ababab" d="M28,263 l9,-44 25,-40 40,-26 44,-8 707,0 44,8 40,26 25,40 8,44 -8,44 -25,40 -40,25 -45,9 -706,0 -44,-9 -40,-25 -25,-40 -9,-44z" />
<path style="fill:#b8b8b8" d="M28,263 l9,-37 25,-33 40,-21 44,-7 707,0 44,7 40,21 25,33 8,37 -8,37 -25,33 -40,21 -45,7 -706,0 -44,-7 -40,-21 -25,-33 -9,-37z" />
<path style="fill:#c2c2c2" d="M28,263 l9,-30 25,-26 40,-17 44,-6 707,0 44,6 40,17 25,26 8,30 -8,30 -25,26 -40,17 -45,6 -706,0 -44,-6 -40,-17 -25,-26 -9,-30z" />
<path style="fill:#cfcfcf" d="M28,263 l9,-22 25,-20 40,-13 44,-4 707,0 44,4 40,13 25,20 8,22 -8,22 -25,20 -40,13 -45,4 -706,0 -44,-4 -40,-13 -25,-20 -9,-22z" />
<path style="fill:#d9d9d9" d="M28,263 l9,-15 25,-13 40,-9 44,-2 707,0 44,2 40,9 25,13 8,15 -8,15 -25,13 -40,8 -45,4 -706,0 -44,-4 -40,-8 -25,-13 -9,-15z" />
<ellipse style="fill:#e5e5e5" cx="499" cy="263" rx="471" ry="19" />
<path style="fill:none;stroke:#000;stroke-width:2" d="M146,499 l0,-471" />
<path style="fill:none;stroke:#000;stroke-width:2" d="M852,499 l0,-471" />

</svg>
