

<svg xmlns:agg="http://www.example.com" xmlns="http://www.w3.org/2000/svg" preserveAspectRatio="none" width="0.4407in" height="1.4792in" viewBox="0 0 157 527">

<path style="fill:#e5e5e5;stroke:#000;stroke-width:2" d="M114,154 l6,4 6,5 5,6 4,7 3,7 3,8 1,8 1,8 0,306 -129,0 0,-306 1,-8 1,-8 3,-8 3,-7 4,-7 5,-6 6,-5 6,-4 3,-27 65,0 3,27z" />
<path style="fill:#e5e5e5;stroke:#000;stroke-width:2" d="M51,54 l56,0 0,4 -56,0 0,-4z" />
<path style="fill:#999;stroke:#000;stroke-width:2" d="M51,127 l20,0 0,-69 -20,0 0,69z" />
<path style="fill:#000;stroke:#000;stroke-width:2" d="M38,86 l13,0 0,16 -13,0 0,-16z" />
<path style="fill:#000;stroke:#000;stroke-width:2" d="M46,42 l65,0 0,4 -65,0 0,-4z" />
<path style="fill:#b2b2b2;stroke:#000;stroke-width:2" d="M18,78 l24,0 0,16 -24,0 0,-16z" />
<path style="fill:#b2b2b2;stroke:#000;stroke-width:2" d="M71,58 l36,0 0,69 -36,0 0,-69z" />
<path style="fill:#7f7f7f;stroke:#000;stroke-width:2" d="M18,94 l24,0 0,16 -24,0 0,-16z" />
<path style="fill:#7f7f7f;stroke:#000;stroke-width:2" d="M46,46 l65,0 0,8 -65,0 0,-8z" />
<path style="fill:#7f7f7f;stroke:#000;stroke-width:2" d="M30,22 l0,20 97,0 0,-20 -24,-8 -49,0 -24,8z" />
<path style="fill:#4c4c4c" d="M38,38 l16,0 0,-16 -16,0 0,16z" />
<path style="fill:#4c4c4c" d="M61,38 l16,0 0,-16 -16,0 0,16z" />
<path style="fill:#4c4c4c" d="M85,38 l15,0 0,-16 -15,0 0,16z" />
<path style="fill:#4c4c4c" d="M108,38 l15,0 0,-16 -15,0 0,16z" />
<path style="fill:#fff;stroke:#000;stroke-width:2" d="M38,207 l105,0 0,242 -105,0 0,-242z" />

</svg>
