

<svg xmlns:agg="http://www.example.com" xmlns="http://www.w3.org/2000/svg" preserveAspectRatio="none" width="1.0128in" height="1.4792in" viewBox="0 0 684 999">

<path style="fill:#999" d="M656,872 l0,-746 -10,-24 -21,-18 -23,-13 -28,-11 -32,-10 -38,-8 -26,-4 -28,-4 -30,-3 -30,-2 -16,0 -16,-1 -16,0 -32,1 -31,1 -30,2 -29,4 -28,4 -26,5 -35,9 -31,10 -27,12 -26,16 -18,24 -1,5 0,5 0,746 10,24 21,19 22,12 28,11 33,10 37,8 27,4 28,4 30,3 30,2 16,1 16,0 16,0 32,0 31,-2 30,-2 29,-4 27,-4 26,-4 36,-9 31,-11 26,-11 27,-17 17,-24 2,-5 0,-5z" />
<path style="fill:#a8a8a8" d="M614,872 l0,-140 0,-24 0,-23 0,-396 0,-47 0,-116 -9,-24 -24,-23 -29,-15 -27,-11 -31,-9 -34,-6 -37,-6 -40,-3 -13,-1 -14,0 -14,0 -41,1 -40,3 -37,6 -34,6 -30,9 -27,11 -23,11 -23,17 -15,24 -1,5 -1,5 0,23 0,117 1,46 0,396 -1,47 0,117 9,24 24,22 30,16 27,10 30,9 34,7 37,6 40,3 13,0 14,1 14,0 41,-1 40,-3 37,-6 34,-7 31,-9 27,-10 22,-12 23,-16 16,-24 1,-10z" />
<path style="fill:#b8b8b8" d="M571,872 l0,-140 0,-24 0,-23 0,-396 0,-47 0,-116 -7,-24 -21,-23 -24,-15 -31,-14 -27,-8 -30,-6 -32,-5 -34,-3 -11,0 -12,0 -35,1 -33,3 -31,6 -29,6 -26,9 -29,14 -23,16 -18,23 -4,15 -1,5 0,23 0,117 1,46 0,396 -1,47 0,117 7,24 21,22 25,16 31,14 26,8 30,6 32,5 34,2 12,1 11,0 35,-1 33,-3 31,-6 29,-7 26,-9 30,-14 22,-16 18,-23 5,-19z" />
<path style="fill:#c4c4c4" d="M529,872 l0,-140 0,-24 0,-23 0,-396 0,-47 0,-116 -9,-29 -23,-26 -23,-14 -28,-13 -31,-8 -35,-6 -19,-2 -19,0 -19,0 -36,4 -34,8 -30,10 -25,14 -28,24 -13,28 -1,10 0,23 0,117 0,46 0,396 0,47 0,117 8,29 23,26 23,14 28,12 32,9 34,6 19,1 19,1 19,-1 36,-3 34,-8 30,-10 25,-14 28,-24 14,-28 1,-10z" />
<path style="fill:#d4d4d4" d="M486,872 l0,-140 1,-24 0,-23 0,-396 -1,-47 0,-116 -6,-29 -19,-26 -27,-21 -23,-10 -26,-8 -28,-4 -15,0 -15,0 -28,4 -26,8 -23,10 -27,21 -18,26 -6,19 -1,10 0,23 0,117 0,46 0,396 0,47 0,117 7,29 18,26 27,21 23,10 26,8 28,3 15,1 15,-1 28,-3 26,-8 23,-10 27,-21 19,-26 6,-29z" />
<path style="fill:#e3e3e3" d="M444,872 l0,-140 0,-24 0,-23 0,-396 0,-47 0,-116 -5,-29 -13,-26 -19,-21 -25,-14 -30,-8 -10,0 -10,0 -29,8 -26,14 -19,21 -13,26 -4,19 0,10 0,23 0,117 0,46 0,396 0,47 0,117 4,29 13,26 19,21 26,14 29,7 10,1 10,-1 30,-7 25,-14 19,-21 13,-26 5,-29z" />
<path style="fill:#f2f2f2" d="M401,872 l0,-746 -3,-29 -7,-26 -16,-26 -21,-15 -6,-1 -6,-1 -6,1 -27,16 -16,26 -8,26 -2,19 0,10 0,746 2,29 8,26 16,27 21,14 6,2 6,0 6,0 27,-16 16,-27 7,-26 3,-19 0,-10z" />
<path style="fill:none;stroke:#000;stroke-width:2" d="M656,872 l0,-746 -10,-24 -21,-18 -23,-13 -28,-11 -32,-10 -38,-8 -26,-4 -28,-4 -30,-3 -30,-2 -16,0 -16,-1 -16,0 -32,1 -31,1 -30,2 -29,4 -28,4 -26,5 -35,9 -31,10 -27,12 -26,16 -18,24 -1,5 0,5 0,746 10,24 21,19 22,12 28,11 33,10 37,8 27,4 28,4 30,3 30,2 16,1 16,0 16,0 32,0 31,-2 30,-2 29,-4 27,-4 26,-4 36,-9 31,-11 26,-11 27,-17 17,-24 2,-5 0,-5" />
<path style="fill:none;stroke:#000;stroke-width:2" d="M28,872 l628,0" />
<path style="fill:none;stroke:#000;stroke-width:2" d="M185,872 l0,-746" />
<path style="fill:none;stroke:#000;stroke-width:2" d="M28,126 l628,0" />
<path style="fill:#7f7f7f" d="M67,97 l20,0 0,19 -20,0 0,-19z" />
<path style="fill:#7f7f7f" d="M126,97 l20,0 0,19 -20,0 0,-19z" />
<path style="fill:#7f7f7f" d="M185,97 l20,0 0,19 -20,0 0,-19z" />
<path style="fill:#7f7f7f" d="M244,97 l19,0 0,19 -19,0 0,-19z" />
<path style="fill:#7f7f7f" d="M302,97 l20,0 0,19 -20,0 0,-19z" />
<path style="fill:#7f7f7f" d="M361,97 l20,0 0,19 -20,0 0,-19z" />
<path style="fill:#7f7f7f" d="M420,97 l20,0 0,19 -20,0 0,-19z" />
<path style="fill:#7f7f7f" d="M479,97 l20,0 0,19 -20,0 0,-19z" />
<path style="fill:#7f7f7f" d="M538,97 l20,0 0,19 -20,0 0,-19z" />
<path style="fill:#7f7f7f" d="M597,97 l20,0 0,19 -20,0 0,-19z" />
<path style="fill:#7f7f7f" d="M200,863 l0,-20 19,0 0,20 -19,0z" />
<path style="fill:#7f7f7f" d="M200,804 l0,-20 19,0 0,20 -19,0z" />
<path style="fill:#7f7f7f" d="M200,745 l0,-20 19,0 0,20 -19,0z" />
<path style="fill:#7f7f7f" d="M200,686 l0,-20 19,0 0,20 -19,0z" />
<path style="fill:#7f7f7f" d="M200,627 l0,-19 19,0 0,19 -19,0z" />
<path style="fill:#7f7f7f" d="M200,568 l0,-20 19,0 0,20 -19,0z" />
<path style="fill:#7f7f7f" d="M200,509 l0,-20 19,0 0,20 -19,0z" />
<path style="fill:#7f7f7f" d="M200,450 l0,-19 19,0 0,19 -19,0z" />
<path style="fill:#7f7f7f" d="M200,391 l0,-19 19,0 0,19 -19,0z" />
<path style="fill:#7f7f7f" d="M200,333 l0,-20 19,0 0,20 -19,0z" />
<path style="fill:#7f7f7f" d="M200,274 l0,-20 19,0 0,20 -19,0z" />
<path style="fill:#7f7f7f" d="M200,215 l0,-20 19,0 0,20 -19,0z" />
<path style="fill:#7f7f7f" d="M200,156 l0,-20 19,0 0,20 -19,0z" />
<path style="fill:#7f7f7f" d="M67,882 l20,0 0,20 -20,0 0,-20z" />
<path style="fill:#7f7f7f" d="M126,882 l20,0 0,20 -20,0 0,-20z" />
<path style="fill:#7f7f7f" d="M185,882 l20,0 0,20 -20,0 0,-20z" />
<path style="fill:#7f7f7f" d="M244,882 l19,0 0,20 -19,0 0,-20z" />
<path style="fill:#7f7f7f" d="M302,882 l20,0 0,20 -20,0 0,-20z" />
<path style="fill:#7f7f7f" d="M361,882 l20,0 0,20 -20,0 0,-20z" />
<path style="fill:#7f7f7f" d="M420,882 l20,0 0,20 -20,0 0,-20z" />
<path style="fill:#7f7f7f" d="M479,882 l20,0 0,20 -20,0 0,-20z" />
<path style="fill:#7f7f7f" d="M538,882 l20,0 0,20 -20,0 0,-20z" />
<path style="fill:#7f7f7f" d="M597,882 l20,0 0,20 -20,0 0,-20z" />

</svg>
