

<svg xmlns:agg="http://www.example.com" xmlns="http://www.w3.org/2000/svg" preserveAspectRatio="none" width="1.1146in" height="1.4792in" viewBox="0 0 321 426">

<path style="fill:#333;stroke:#000;stroke-width:2" d="M86,328 l0,69 -19,0 0,-95 19,26z" />
<path style="fill:#333;stroke:#000;stroke-width:2" d="M233,328 l0,69 19,0 0,-95 -19,26z" />
<path style="fill:#7f7f7f;stroke:#000;stroke-width:2" d="M309,272 l0,-148 -3,-15 -9,-14 -14,-12 -18,-11 -22,-9 -25,-7 -28,-5 -30,-1 -30,1 -27,5 -25,7 -22,9 -19,11 -13,12 -9,14 -3,15 0,148 3,15 9,14 13,12 19,11 22,9 25,7 27,5 30,1 30,-1 28,-5 25,-7 22,-9 18,-11 14,-12 9,-14 3,-15z" />
<path style="fill:#999" d="M284,272 l0,-148 -3,-15 -7,-14 -11,-12 -15,-11 -19,-9 -21,-7 -23,-5 -25,-1 -25,1 -23,5 -21,7 -18,9 -15,11 -11,12 -8,14 -2,15 0,148 2,15 8,14 11,12 15,11 18,9 21,7 23,5 25,1 25,-1 23,-5 21,-7 19,-9 15,-11 11,-12 7,-14 3,-15z" />
<path style="fill:#b2b2b2" d="M247,272 l0,-148 -2,-15 -5,-14 -8,-12 -10,-11 -13,-9 -15,-7 -16,-5 -18,-1 -17,1 -16,5 -15,7 -13,9 -10,11 -8,12 -5,14 -2,15 0,148 2,15 5,14 8,12 10,11 13,9 15,7 16,5 17,1 18,-1 16,-5 15,-7 13,-9 10,-11 8,-12 5,-14 2,-15z" />
<path style="fill:#ccc" d="M210,272 l0,-148 -1,-15 -3,-14 -4,-12 -6,-11 -8,-9 -8,-7 -10,-5 -10,-1 -10,1 -9,5 -8,7 -8,9 -6,11 -4,12 -3,14 -1,15 0,148 1,15 3,14 4,12 6,11 8,9 8,7 9,5 10,1 10,-1 10,-5 8,-7 8,-9 6,-11 4,-12 3,-14 1,-15z" />
<path style="fill:none;stroke:#000;stroke-width:2" d="M309,124 l-3,4 -9,3 -14,3 -18,3 -22,2 -25,2 -28,1 -30,0 -30,0 -27,-1 -25,-2 -22,-2 -19,-3 -13,-3 -9,-3 -3,-4" />
<path style="fill:none;stroke:#000;stroke-width:2" d="M309,272 l-3,4 -9,3 -14,3 -18,3 -22,3 -25,1 -28,2 -30,0 -30,0 -27,-2 -25,-1 -22,-3 -19,-3 -13,-3 -9,-3 -3,-4" />
<path style="fill:#7f7f7f;stroke:#000;stroke-width:2" d="M269,78 l9,-35 0,-9 -5,-8 -9,-7 -12,-5 -7,-1 -6,-1 -6,1 -5,1 -5,2 -4,3 -3,3 -2,4 -9,35 0,2 2,1 2,3 4,2 4,2 6,2 6,2 6,2 6,2 6,1 6,1 9,0 3,-1 3,-1 1,-1z" />
<path style="fill:#999" d="M263,76 l9,-34 1,-9 -4,-8 -7,-7 -10,-4 -6,-1 -5,0 -5,1 -4,1 -5,2 -3,3 -2,4 -2,4 -9,34 1,3 5,4 8,5 10,3 10,2 9,0 6,-1 3,-2z" />
<path style="fill:#b2b2b2" d="M255,74 l10,-34 1,-9 -3,-8 -4,-6 -7,-3 -8,0 -7,2 -5,6 -4,8 -10,34 1,3 3,4 6,3 7,3 7,1 6,0 5,-1 2,-3z" />
<path style="fill:#ccc" d="M245,71 l9,-34 2,-9 0,-7 -2,-5 -2,-2 -4,0 -4,4 -3,7 -3,8 -9,34 0,3 1,3 2,3 3,1 3,0 3,-1 3,-2 1,-3z" />
<path style="fill:none;stroke:#000;stroke-width:2" d="M214,26 l0,2 2,2 3,2 3,2 5,3 5,2 6,2 6,2 6,1 6,1 6,1 5,0 4,0 4,0 2,-1 1,-2" />
<path style="fill:#333;stroke:#000;stroke-width:2" d="M54,321 l0,93 -25,0 0,-127 25,34z" />
<path style="fill:#333;stroke:#000;stroke-width:2" d="M265,321 l0,93 25,0 0,-127 -25,34z" />
<path style="fill:#4c4c4c" d="M50,317 l0,97 -17,0 0,-121 17,24z" />
<path style="fill:#4c4c4c" d="M269,317 l0,97 17,0 0,-121 -17,24z" />
<path style="fill:#666" d="M46,312 l0,102 -9,0 0,-112 9,10z" />
<path style="fill:#666" d="M273,312 l0,102 9,0 0,-112 -9,10z" />

</svg>
