 

<svg xmlns:agg="http://www.example.com" xmlns="http://www.w3.org/2000/svg" preserveAspectRatio="none" width="1.6083in" height="0.6762in" viewBox="0 0 999 420">

<path style="fill:#000;stroke:#000;stroke-width:2" d="M76,320 l852,3 0,45 -138,0 0,-21 -570,-3 0,24 -144,0 0,-48z" />
<path style="fill:#4c4c4c;stroke:#000;stroke-width:2" d="M805,326 l135,0 0,42 -135,0 0,-42z" />
<path style="fill:#4c4c4c;stroke:#000;stroke-width:2" d="M58,326 l135,0 0,42 -135,0 0,-42z" />
<path style="fill:#ccc;stroke:#000;stroke-width:2" d="M922,320 l-849,0 -21,-15 -12,-25 -8,-28 -3,-28 -1,-18 0,-7 0,-6 2,-31 5,-28 8,-28 13,-23 15,-10 2,0 849,0 22,15 13,27 7,24 5,29 1,25 0,6 0,7 -2,29 -5,27 -9,26 -14,22 -16,10 -2,0z" />
<path style="fill:#e5e5e5" d="M76,79 l-6,28 -3,28 0,9 0,4 0,4 2,29 6,14 1,1 846,0 8,-26 1,-11 0,-4 0,-4 -2,-30 -4,-28 -2,-10 -1,-4 -846,0z" />
<path style="fill:#b2b2b2" d="M922,317 l6,-27 3,-29 0,-4 0,-4 0,-4 -3,-28 -5,-11 -1,-2 -846,0 -9,27 0,7 0,3 0,4 2,28 4,26 2,9 1,5 846,0z" />
<circle style="fill:#333;stroke:#000;stroke-width:2" cx="938" cy="360" r="31" />
<circle style="fill:#333;stroke:#000;stroke-width:2" cx="808" cy="360" r="30" />
<circle style="fill:#333;stroke:#000;stroke-width:2" cx="59" cy="360" r="31" />
<circle style="fill:#333;stroke:#000;stroke-width:2" cx="190" cy="360" r="30" />
<path style="fill:#666" d="M922,317 l0,3 -846,0 0,-3 846,0z" />
<path style="fill:#4c4c4c;stroke:#000;stroke-width:2" d="M374,73 l250,0 0,247 -250,0 0,-247z" />
<path style="fill:#191919" d="M374,317 l250,0 0,3 -250,0 0,-3z" />
<path style="fill:#333" d="M374,208 l250,0 0,109 -250,0 0,-109z" />
<path style="fill:#666" d="M374,79 l250,0 0,117 -250,0 0,-117z" />
<path style="fill:none;stroke:#7f7f7f;stroke-width:2" d="M805,79 l0,241" />
<path style="fill:none;stroke:#7f7f7f;stroke-width:2" d="M193,320 l0,-241" />
<path style="fill:none;stroke:#000;stroke-width:2" d="M470,28 l160,0" />
<path style="fill:none;stroke:#000;stroke-width:2" d="M410,28 l-42,0" />
<path style="fill:none;stroke:#000;stroke-width:2" d="M570,28 l0,45" />
<path style="fill:none;stroke:#000;stroke-width:2" d="M488,73 l0,-2 0,-3 0,-2 0,-26 3,-9 6,-3 4,0 3,0 122,0 4,0 -2,0 -8,5 -2,7 0,33" />
<path style="fill:none;stroke:#000;stroke-width:2" d="M476,73 l0,-45" />
<path style="fill:none;stroke:#000;stroke-width:2" d="M404,73 l0,-45" />
<path style="fill:none;stroke:#000;stroke-width:2" d="M392,73 l0,-2 0,-31 -4,-9 -8,-3 -12,0" />
<path style="fill:none;stroke:#000;stroke-width:2" d="M510,320 l0,-241" />
<path style="fill:none;stroke:#000;stroke-width:2" d="M488,79 l0,241" />

</svg>
