 

<svg xmlns:agg="http://www.example.com" xmlns="http://www.w3.org/2000/svg" preserveAspectRatio="none" width="1.6083in" height="0.4238in" viewBox="0 0 998 263">

<path style="fill:#661900" d="M28,185 l0,45 74,-20 88,5 114,10 83,-10 55,15 59,0 30,-15 123,0 70,-5 39,25 44,-5 -9,-40 29,-9 59,-35 30,-30 25,-9 20,-21 9,-14 -39,-30 -712,0 -167,114 -24,29z" />
<path style="fill:#963" d="M32,191 l5,29 65,-34 103,14 -5,-14 40,-10 -15,24 64,10 59,-5 -34,-34 54,34 79,0 104,-5 79,5 88,-10 20,0 25,30 35,-5 -15,-50 29,-14 30,5 47,-26 32,-34 25,-19 19,-10 -34,-30 -711,0 -153,104 -35,45z" />
<path style="fill:#b28c65" d="M42,191 l10,9 49,-24 50,9 52,-7 41,-13 16,20 29,5 34,-9 -20,-20 55,24 103,-15 60,15 148,0 20,-9 44,-6 15,25 20,15 20,-5 -10,-50 25,-19 24,10 44,-20 10,-24 25,4 25,-34 25,-5 -30,-25 -103,-9 -132,0 -137,-5 -79,5 -127,-1 -104,5 -24,5 -10,10 -45,20 -29,19 -40,30 -24,22 -30,48z" />
<path style="fill:#ccb299" d="M67,181 l84,-25 99,5 19,14 30,-19 94,0 118,5 109,-5 54,10 45,0 19,-5 25,44 15,-10 -5,-49 25,-15 73,-25 0,-15 35,-9 5,-15 25,-5 -20,-20 -113,-5 -124,0 -128,-5 -74,5 -84,-5 -119,5 -44,5 -20,15 -39,15 -50,34 -29,20 -35,45 10,10z" />
<path style="fill:#b2b2b2" d="M111,136 l158,-79 632,0 -158,79 -632,0z" />
<path style="fill:#7f7f7f" d="M269,57 l40,39 -79,40 -119,0 158,-79z" />
<path style="fill:#999" d="M269,57 l40,39 513,0 79,-39 -632,0z" />
<path style="fill:none;stroke:#4c4c4c;stroke-width:2" d="M141,136 l138,-69 603,0" />
<path style="fill:none;stroke:#4c4c4c;stroke-width:2" d="M111,136 l158,-79 632,0 -158,79 -632,0" />

</svg>
