

<svg xmlns:agg="http://www.example.com" xmlns="http://www.w3.org/2000/svg" preserveAspectRatio="none" width="1.0128in" height="1.4792in" viewBox="0 0 684 999">

<path style="fill:#999" d="M656,126 l0,452 -236,274 0,118 -157,0 0,-118 -235,-274 0,-452 10,-24 21,-18 22,-13 28,-11 33,-10 37,-8 27,-4 28,-4 30,-3 30,-2 16,0 16,-1 16,0 32,1 31,1 30,2 29,4 27,4 26,5 36,9 31,10 26,12 27,16 17,24 2,5 0,5z" />
<path style="fill:#a8a8a8" d="M614,126 l0,83 0,14 0,14 0,236 0,42 0,56 -19,26 -20,27 -18,26 -20,26 -19,26 -19,27 -19,26 -19,26 -19,27 -19,27 -13,17 0,29 0,59 0,22 0,8 -9,0 -33,0 -59,0 -35,0 1,-30 0,-59 -1,-29 -19,-26 -19,-27 -19,-26 -19,-27 -19,-26 -19,-26 -19,-27 -19,-26 -19,-26 -20,-27 -6,-8 -7,-9 0,-14 0,-70 1,-28 0,-236 -1,-41 0,-56 9,-24 24,-23 30,-15 27,-11 30,-9 34,-6 37,-6 40,-3 13,-1 14,0 14,0 41,1 40,3 37,6 34,6 31,9 27,11 22,11 23,17 16,24 1,10z" />
<path style="fill:#b8b8b8" d="M571,126 l0,82 0,14 0,13 0,233 0,41 0,55 -16,27 -16,27 -16,27 -16,27 -16,27 -16,27 -16,27 -16,27 -17,27 -16,27 -11,18 1,29 0,59 -1,22 0,8 -7,0 -28,0 -50,0 -29,0 0,-30 0,-59 0,-29 -16,-27 -16,-27 -16,-27 -16,-27 -16,-27 -16,-27 -17,-27 -16,-27 -16,-27 -16,-27 -5,-9 -6,-9 0,-14 0,-68 1,-41 0,-219 -1,-41 0,-55 7,-24 21,-23 25,-15 31,-14 26,-8 30,-6 32,-5 34,-3 12,0 11,0 35,1 33,3 31,6 29,6 26,9 30,14 22,16 18,23 5,20z" />
<path style="fill:#c4c4c4" d="M529,126 l0,81 0,13 0,14 0,229 0,41 0,54 -14,28 -12,27 -14,27 -13,28 -13,27 -13,28 -13,28 -13,27 -13,28 -14,28 -8,18 0,29 0,59 0,22 0,8 -6,0 -29,0 -35,0 -24,0 1,-30 0,-59 -1,-29 -13,-27 -13,-28 -13,-28 -13,-27 -13,-28 -13,-28 -13,-27 -13,-28 -13,-27 -14,-28 -4,-9 -4,-9 0,-14 0,-67 0,-41 0,-216 0,-40 0,-54 8,-29 23,-26 23,-14 28,-13 32,-8 34,-6 19,-2 19,0 19,0 36,4 34,8 30,10 25,14 28,24 14,28 1,10z" />
<path style="fill:#d4d4d4" d="M486,126 l0,80 1,13 0,13 0,226 -1,40 0,53 -10,28 -10,29 -10,28 -10,28 -10,28 -10,28 -10,29 -11,28 -10,28 -10,28 -7,19 1,29 0,59 -1,22 0,8 -4,0 -32,0 -31,0 -5,0 0,-30 0,-59 0,-29 -10,-28 -10,-28 -10,-29 -10,-28 -10,-28 -10,-28 -11,-28 -10,-29 -10,-28 -10,-28 -4,-9 -3,-10 0,-13 0,-66 0,-40 0,-213 0,-40 0,-53 7,-29 18,-26 27,-21 23,-10 26,-8 28,-4 15,0 15,0 28,4 26,8 23,10 27,21 19,26 6,29z" />
<path style="fill:#e3e3e3" d="M444,126 l0,78 0,13 0,14 0,222 0,39 0,53 -8,28 -7,29 -7,29 -7,29 -7,29 -7,28 -7,29 -7,29 -7,29 -8,29 -4,26 0,30 0,51 0,22 0,8 -4,0 -28,0 -19,0 0,-30 0,-59 0,-29 -8,-29 -6,-29 -8,-29 -7,-28 -7,-29 -7,-29 -7,-29 -7,-29 -7,-29 -8,-28 -2,-10 -2,-9 0,-13 0,-66 0,-39 0,-210 0,-39 0,-52 4,-29 13,-26 19,-21 26,-14 29,-8 10,0 10,0 30,8 25,14 19,21 13,26 5,29z" />
<path style="fill:#f2f2f2" d="M401,126 l0,412 -44,314 0,118 -30,0 0,-118 -44,-314 0,-412 2,-29 8,-26 16,-26 21,-15 12,-2 28,12 17,24 9,24 5,28 0,10z" />
<path style="fill:none;stroke:#000;stroke-width:2" d="M656,126 l0,452 -236,274 0,118 -157,0 0,-118 -235,-274 0,-452 10,-24 21,-18 22,-13 28,-11 33,-10 37,-8 27,-4 28,-4 30,-3 30,-2 16,0 16,-1 16,0 32,1 31,1 30,2 29,4 27,4 26,5 36,9 31,10 26,12 27,16 17,24 2,5 0,5" />
<path style="fill:none;stroke:#000;stroke-width:2" d="M263,852 l157,0" />
<path style="fill:none;stroke:#000;stroke-width:2" d="M28,578 l0,-2 25,-14 28,-6 28,-5 33,-3 37,-4 41,-2 29,-2 30,-1 31,0 16,-1 16,0 32,1 31,0 30,1 29,2 27,1 39,3 34,4 29,4 32,7 25,9 6,6 0,2" />
<path style="fill:#7f7f7f" d="M224,611 l-6,-19 18,-6 7,18 -19,7z" />
<path style="fill:#7f7f7f" d="M244,667 l-6,-19 18,-7 7,19 -19,7z" />
<path style="fill:#7f7f7f" d="M264,722 l-7,-19 19,-7 7,19 -19,7z" />
<path style="fill:#7f7f7f" d="M284,777 l-7,-18 19,-7 7,18 -19,7z" />
<path style="fill:#7f7f7f" d="M304,833 l-7,-19 19,-7 6,19 -18,7z" />
<path style="fill:#7f7f7f" d="M200,156 l0,-20 19,0 0,20 -19,0z" />
<path style="fill:#7f7f7f" d="M200,215 l0,-20 19,0 0,20 -19,0z" />
<path style="fill:#7f7f7f" d="M200,274 l0,-20 19,0 0,20 -19,0z" />
<path style="fill:#7f7f7f" d="M200,333 l0,-20 19,0 0,20 -19,0z" />
<path style="fill:#7f7f7f" d="M200,391 l0,-19 19,0 0,19 -19,0z" />
<path style="fill:#7f7f7f" d="M200,450 l0,-19 19,0 0,19 -19,0z" />
<path style="fill:#7f7f7f" d="M200,509 l0,-20 19,0 0,20 -19,0z" />
<path style="fill:#7f7f7f" d="M285,38 l10,-3 3,10 -11,3 -2,-10z" />
<path style="fill:#7f7f7f" d="M243,55 l12,-7 8,12 -12,8 -8,-13z" />
<path style="fill:#7f7f7f" d="M206,97 l8,-18 18,8 -8,18 -18,-8z" />
<path style="fill:#7f7f7f" d="M63,567 l20,0 0,20 -20,0 0,-20z" />
<path style="fill:#7f7f7f" d="M123,559 l5,0 10,0 5,0 0,5 0,10 0,5 -10,-1 -10,1 0,-10 0,-10z" />
<path style="fill:#7f7f7f" d="M182,553 l5,0 10,0 5,0 0,5 0,10 0,5 -10,0 -10,0 1,-10 -1,-10z" />
<path style="fill:#7f7f7f" d="M241,551 l5,-1 10,0 5,1 0,4 0,10 0,5 -10,0 -10,0 1,-10 -1,-9z" />
<path style="fill:#7f7f7f" d="M301,549 l5,0 10,0 5,0 0,5 0,10 0,5 -10,0 -10,0 0,-10 0,-10z" />
<path style="fill:#7f7f7f" d="M360,549 l5,-1 10,0 5,1 0,4 0,11 0,5 -10,-1 -10,1 1,-10 -1,-10z" />
<path style="fill:#7f7f7f" d="M419,550 l5,0 10,0 5,0 0,5 0,10 0,5 -10,0 -10,0 1,-10 -1,-10z" />
<path style="fill:#7f7f7f" d="M479,553 l5,0 10,0 5,0 0,5 0,10 0,5 -10,0 -10,0 0,-10 0,-10z" />
<path style="fill:#7f7f7f" d="M538,558 l5,0 10,0 5,0 0,5 0,10 0,5 -10,0 -10,0 0,-10 0,-10z" />
<path style="fill:#7f7f7f" d="M597,567 l20,0 0,19 -20,0 0,-19z" />
<path style="fill:none;stroke:#000;stroke-width:2" d="M342,28 l-16,1 -16,1 -15,2 -14,4 -14,4 -13,5 -12,5 -11,7 -10,7 -10,7 -7,8 -7,9 -5,9 -4,9 -2,10 -1,10 0,412 118,314" />

</svg>
