 

<svg xmlns:agg="http://www.example.com" xmlns="http://www.w3.org/2000/svg" preserveAspectRatio="none" width="0.9900in" height="1.0750in" viewBox="0 0 920 999">

<circle style="fill:#b2b2b2" cx="460" cy="460" r="432" />
<path style="fill:#b8b8b8" d="M43,446 l30,-153 87,-140 139,-88 154,-28 153,28 139,88 88,140 29,153 -29,153 -88,139 -585,0 -87,-139 -30,-153z" />
<path style="fill:#bfbfbf" d="M58,432 l28,-145 83,-131 131,-83 145,-27 145,27 131,83 83,131 28,145 -28,145 -83,132 -131,82 -290,0 -131,-82 -83,-132 -28,-145z" />
<path style="fill:#c4c4c4" d="M73,419 l26,-137 78,-123 124,-79 136,-25 137,25 123,79 79,123 26,137 -26,136 -79,124 -123,77 -273,0 -124,-77 -78,-124 -26,-136z" />
<path style="fill:#c9c9c9" d="M88,405 l25,-128 73,-116 116,-73 128,-24 128,24 116,73 73,116 24,128 -24,128 -73,116 -116,73 -128,25 -128,-25 -116,-73 -73,-116 -25,-128z" />
<path style="fill:#d1d1d1" d="M103,392 l23,-120 69,-108 108,-69 119,-22 120,22 108,69 68,108 23,120 -23,119 -68,108 -108,68 -120,23 -119,-23 -108,-68 -69,-108 -23,-119z" />
<path style="fill:#d6d6d6" d="M119,378 l21,-111 63,-101 101,-63 110,-21 112,21 100,63 64,101 21,111 -21,111 -64,100 -100,64 -112,21 -110,-21 -101,-64 -63,-100 -21,-111z" />
<path style="fill:#dbdbdb" d="M134,364 l19,-102 59,-93 93,-59 102,-19 103,19 92,59 59,93 20,102 -20,103 -59,93 -92,58 -103,20 -102,-20 -93,-58 -59,-93 -19,-103z" />
<path style="fill:#e0e0e0" d="M149,351 l18,-94 54,-85 84,-54 94,-18 95,18 85,54 54,85 17,94 -17,94 -54,85 -85,53 -95,18 -94,-18 -84,-53 -54,-85 -18,-94z" />
<circle style="fill:#e8e8e8" cx="392" cy="337" r="228" />
<circle style="fill:#ededed" cx="384" cy="323" r="205" />
<circle style="fill:#f2f2f2" cx="377" cy="310" r="183" />
<circle style="fill:#fafafa" cx="369" cy="296" r="160" />
<circle style="fill:#fff" cx="361" cy="283" r="137" />
<circle style="fill:none;stroke:#000;stroke-width:2" cx="460" cy="460" r="432" />
<path style="fill:#7f7f7f" d="M67,970 l0,-19 785,0 0,19 -785,0z" />
<path style="fill:#8f8f8f" d="M131,970 l0,-20 657,0 0,20 -657,0z" />
<path style="fill:#9e9e9e" d="M196,970 l0,-20 528,0 0,20 -528,0z" />
<path style="fill:#adadad" d="M260,970 l0,-20 400,0 0,20 -400,0z" />
<path style="fill:#bdbdbd" d="M324,970 l0,-20 272,0 0,20 -272,0z" />
<path style="fill:#ccc" d="M388,970 l0,-19 143,0 0,19 -143,0z" />
<path style="fill:none;stroke:#000;stroke-width:2" d="M67,970 l0,-19 785,0 0,19 -785,0" />
<path style="fill:#b2b2b2" d="M794,735 l0,176 39,20 0,19 -746,0 0,-19 39,-20 0,-176 668,0z" />
<path style="fill:#b8b8b8" d="M771,734 l0,177 36,20 0,19 -694,0 0,-19 36,-20 0,-177 622,0z" />
<path style="fill:#bfbfbf" d="M748,734 l0,177 34,20 0,19 -643,0 0,-19 33,-20 0,-177 576,0z" />
<path style="fill:#c4c4c4" d="M725,734 l0,177 31,20 0,19 -592,0 0,-19 32,-20 0,-177 529,0z" />
<path style="fill:#c9c9c9" d="M702,734 l0,177 29,20 0,19 -541,0 0,-19 28,-20 0,-177 484,0z" />
<path style="fill:#d1d1d1" d="M679,734 l0,177 26,20 0,19 -489,0 0,-19 25,-20 0,-177 438,0z" />
<path style="fill:#d6d6d6" d="M656,734 l0,177 23,20 0,19 -438,0 0,-19 23,-20 0,-177 392,0z" />
<path style="fill:#dbdbdb" d="M633,734 l0,177 21,20 0,19 -387,0 0,-19 21,-20 0,-177 345,0z" />
<path style="fill:#e0e0e0" d="M610,734 l0,177 18,20 0,19 -335,0 0,-19 18,-20 0,-177 299,0z" />
<path style="fill:#e8e8e8" d="M587,734 l0,177 15,20 0,19 -283,0 0,-19 14,-20 0,-177 254,0z" />
<path style="fill:#ededed" d="M564,734 l0,177 12,20 0,19 -232,0 0,-19 12,-20 0,-177 208,0z" />
<path style="fill:#f2f2f2" d="M541,734 l0,177 10,20 0,19 -181,0 0,-19 9,-20 0,-177 162,0z" />
<path style="fill:#fafafa" d="M518,734 l0,177 7,20 0,19 -129,0 0,-19 7,-20 0,-177 115,0z" />
<path style="fill:#fff" d="M495,735 l0,176 4,20 0,19 -78,0 0,-19 4,-20 0,-176 70,0z" />
<path style="fill:none;stroke:#000;stroke-width:2" d="M794,735 l0,176 39,20 0,19 -746,0 0,-19 39,-20 0,-176 668,0" />
<path style="fill:none;stroke:#000;stroke-width:2" d="M126,911 l668,0" />
<path style="fill:none;stroke:#000;stroke-width:2" d="M87,931 l746,0" />
<path style="fill:none;stroke:#7f7f7f;stroke-width:2" d="M249,911 l422,0" />
<path style="fill:none;stroke:#7f7f7f;stroke-width:2" d="M224,931 l471,0" />
<path style="fill:none;stroke:#b2b2b2;stroke-width:2" d="M390,911 l140,0" />
<path style="fill:none;stroke:#b2b2b2;stroke-width:2" d="M382,931 l156,0" />
<path style="fill:#7f7f7f" d="M695,778 l3,-13 7,-11 11,-7 13,-3 11,0 0,157 -11,0 -13,-2 -11,-7 -7,-12 -3,-12 0,-90z" />
<path style="fill:#ccc;stroke:#000;stroke-width:2" d="M706,778 l3,-13 7,-11 11,-7 13,-3 13,3 11,7 8,11 2,13 0,90 -2,12 -8,12 -11,7 -13,2 -13,-2 -11,-7 -7,-12 -3,-12 0,-90z" />
<path style="fill:none;stroke:#000;stroke-width:2" d="M746,759 l7,2 6,6 4,9 1,11 0,72 -1,10 -4,10 -6,6 -7,2" />
<path style="fill:none;stroke:#000;stroke-width:2" d="M342,750 l78,0" />
<path style="fill:none;stroke:#000;stroke-width:2" d="M342,755 l78,0" />
<path style="fill:none;stroke:#000;stroke-width:2" d="M342,760 l78,0" />
<path style="fill:none;stroke:#000;stroke-width:2" d="M342,765 l78,0" />
<path style="fill:none;stroke:#000;stroke-width:2" d="M342,770 l78,0" />
<path style="fill:none;stroke:#000;stroke-width:2" d="M342,775 l78,0" />
<path style="fill:none;stroke:#000;stroke-width:2" d="M342,780 l78,0" />
<path style="fill:none;stroke:#000;stroke-width:2" d="M342,785 l78,0" />
<path style="fill:none;stroke:#000;stroke-width:2" d="M342,789 l78,0" />
<path style="fill:none;stroke:#000;stroke-width:2" d="M342,794 l78,0" />
<path style="fill:none;stroke:#000;stroke-width:2" d="M342,799 l78,0" />
<path style="fill:none;stroke:#000;stroke-width:2" d="M342,803 l78,0" />
<path style="fill:none;stroke:#000;stroke-width:2" d="M342,808 l78,0" />
<path style="fill:none;stroke:#000;stroke-width:2" d="M342,813 l78,0" />
<path style="fill:none;stroke:#000;stroke-width:2" d="M342,818 l78,0" />
<path style="fill:none;stroke:#000;stroke-width:2" d="M342,823 l78,0" />
<path style="fill:none;stroke:#000;stroke-width:2" d="M342,828 l78,0" />
<path style="fill:none;stroke:#000;stroke-width:2" d="M342,833 l78,0" />
<path style="fill:none;stroke:#000;stroke-width:2" d="M342,838 l78,0" />
<path style="fill:none;stroke:#000;stroke-width:2" d="M342,843 l78,0" />
<path style="fill:none;stroke:#000;stroke-width:2" d="M342,848 l78,0" />
<path style="fill:none;stroke:#000;stroke-width:2" d="M342,853 l78,0" />
<path style="fill:none;stroke:#000;stroke-width:2" d="M342,857 l78,0" />
<path style="fill:none;stroke:#000;stroke-width:2" d="M342,862 l78,0" />
<path style="fill:none;stroke:#000;stroke-width:2" d="M342,867 l78,0" />
<path style="fill:none;stroke:#000;stroke-width:2" d="M342,872 l78,0" />
<path style="fill:none;stroke:#000;stroke-width:2" d="M342,877 l78,0" />
<path style="fill:none;stroke:#000;stroke-width:2" d="M342,882 l78,0" />
<path style="fill:none;stroke:#000;stroke-width:2" d="M342,887 l78,0" />
<path style="fill:none;stroke:#000;stroke-width:2" d="M342,892 l78,0" />
<path style="fill:none;stroke:#000;stroke-width:2" d="M342,897 l78,0" />
<path style="fill:none;stroke:#000;stroke-width:2" d="M342,902 l78,0" />
<path style="fill:#e5e5e5" d="M450,872 l19,0 0,59 -19,0 0,-59z" />
<path style="fill:#999" d="M828,931 l-20,0 0,-59 20,0 0,59z" />
<path style="fill:#999" d="M97,872 l19,0 0,59 -19,0 0,-59z" />
<path style="fill:#b2b2b2" d="M710,931 l-19,0 0,-59 19,0 0,59z" />
<path style="fill:#b2b2b2" d="M214,872 l20,0 0,59 -20,0 0,-59z" />
<path style="fill:#ccc" d="M592,931 l-19,0 0,-59 19,0 0,59z" />
<path style="fill:#ccc" d="M332,872 l20,0 0,59 -20,0 0,-59z" />
<path style="fill:#4c4c4c" d="M803,931 l5,0 0,-59 -5,0 0,59z" />
<path style="fill:#4c4c4c" d="M121,872 l-5,0 0,59 5,0 0,-59z" />
<path style="fill:#666" d="M686,931 l5,0 0,-59 -5,0 0,59z" />
<path style="fill:#666" d="M239,872 l-5,0 0,59 5,0 0,-59z" />
<path style="fill:#7f7f7f" d="M568,931 l5,0 0,-59 -5,0 0,59z" />
<path style="fill:#7f7f7f" d="M357,872 l-5,0 0,59 5,0 0,-59z" />

</svg>
