

<svg xmlns:agg="http://www.example.com" xmlns="http://www.w3.org/2000/svg" preserveAspectRatio="none" width="0.8795in" height="1.4792in" viewBox="0 0 594 999">

<path style="fill:#699" d="M28,47 l538,0 0,18 -19,0 0,289 19,0 0,19 -19,0 0,270 19,0 0,19 -19,0 0,289 19,0 0,19 -538,0 0,-19 19,0 0,-289 -19,0 0,-19 19,0 0,-270 -19,0 0,-19 19,0 0,-289 -19,0 0,-18z" />
<path style="fill:#7aadad" d="M70,47 l454,0 0,19 -16,0 0,288 16,1 0,19 -16,0 0,270 16,0 0,18 -16,0 0,289 16,0 0,19 -454,0 0,-19 16,0 0,-289 -16,0 0,-18 16,0 0,-270 -16,0 0,-20 16,0 0,-288 -16,0 0,-19z" />
<path style="fill:#8fc2c2" d="M112,47 l370,0 0,19 -14,0 0,288 14,1 0,19 -14,0 0,270 14,0 0,18 -14,0 0,289 14,0 0,19 -370,0 0,-19 13,0 0,-289 -13,0 0,-18 13,0 0,-270 -13,0 0,-20 13,0 0,-288 -13,0 0,-19z" />
<path style="fill:#a3d6d6" d="M154,47 l285,0 0,19 -10,0 0,288 10,1 0,19 -10,0 0,270 10,0 0,18 -10,0 0,289 10,0 0,19 -285,0 0,-19 11,0 0,-289 -11,0 0,-18 11,0 0,-270 -11,0 0,-20 11,0 0,-288 -11,0 0,-19z" />
<path style="fill:#b8ebeb" d="M197,47 l200,0 0,19 -7,0 0,288 7,1 0,19 -7,0 0,270 7,0 0,18 -7,0 0,289 7,0 0,19 -200,0 0,-19 7,0 0,-289 -7,0 0,-18 7,0 0,-270 -7,0 0,-20 7,0 0,-288 -7,0 0,-19z" />
<path style="fill:#cff" d="M239,47 l115,0 0,18 -3,0 0,289 3,0 0,19 -3,0 0,270 3,0 0,19 -3,0 0,289 3,0 0,19 -115,0 0,-19 4,0 0,-289 -4,0 0,-19 4,0 0,-270 -4,0 0,-19 4,0 0,-289 -4,0 0,-18z" />
<path style="fill:none;stroke:#000;stroke-width:2" d="M28,47 l538,0 0,18 -19,0 0,289 19,0 0,19 -19,0 0,270 19,0 0,19 -19,0 0,289 19,0 0,19 -538,0 0,-19 19,0 0,-289 -19,0 0,-19 19,0 0,-270 -19,0 0,-19 19,0 0,-289 -19,0 0,-18" />
<path style="fill:#9cc;stroke:#000;stroke-width:2" d="M28,28 l538,0 0,19 -538,0 0,-19z" />
<path style="fill:#699;stroke:#000;stroke-width:2" d="M28,47 l538,0 0,18 -538,0 0,-18z" />
<path style="fill:#699;stroke:#000;stroke-width:2" d="M28,951 l538,0 0,19 -538,0 0,-19z" />
<path style="fill:#699;stroke:#000;stroke-width:2" d="M28,354 l538,0 0,19 -538,0 0,-19z" />
<path style="fill:#699;stroke:#000;stroke-width:2" d="M28,643 l538,0 0,19 -538,0 0,-19z" />

</svg>
