

<svg xmlns:agg="http://www.example.com" xmlns="http://www.w3.org/2000/svg" preserveAspectRatio="none" width="1.7283in" height="1.4792in" viewBox="0 0 999 855">

<path style="fill:#ffff91;stroke:#000;stroke-width:2" d="M443,357 l112,0 0,13 -112,0 0,-13z" />
<path style="fill:#ff0;stroke:#000;stroke-width:2" d="M430,357 l138,0 0,-3 -138,0 0,3z" />
<path style="fill:#000;stroke:#000;stroke-width:2" d="M561,354 l4,0 0,3 -4,0 0,-3z" />
<path style="fill:#000;stroke:#000;stroke-width:2" d="M539,354 l6,0 0,3 -6,0 0,-3z" />
<path style="fill:#000;stroke:#000;stroke-width:2" d="M520,354 l3,0 0,3 -3,0 0,-3z" />
<path style="fill:#000;stroke:#000;stroke-width:2" d="M497,354 l4,0 0,3 -4,0 0,-3z" />
<path style="fill:#000;stroke:#000;stroke-width:2" d="M475,354 l3,0 0,3 -3,0 0,-3z" />
<path style="fill:#000;stroke:#000;stroke-width:2" d="M456,354 l3,0 0,3 -3,0 0,-3z" />
<path style="fill:#000;stroke:#000;stroke-width:2" d="M433,354 l4,0 0,3 -4,0 0,-3z" />
<path style="fill:#ffffb3" d="M945,827 l-889,0 -1,-1 -12,-27 -6,-32 -4,-33 -2,-28 -2,-30 -1,-33 0,-23 0,-12 0,-12 0,-34 1,-33 1,-31 3,-28 3,-34 4,-28 7,-25 8,-13 1,0 889,0 1,0 10,27 5,32 4,32 2,28 2,30 1,32 0,22 0,12 0,11 0,36 -1,33 -1,31 -2,29 -4,34 -4,28 -6,29 -6,10 -1,1z" />
<path style="fill:#ffff91" d="M945,827 l-889,0 -1,-1 -11,-23 -6,-30 -5,-33 -3,-30 -2,-35 0,-9 0,-9 888,0 2,36 2,32 2,29 5,30 6,27 10,15 2,1z" />
<path style="fill:#ff0" d="M945,827 l-15,-25 -5,-28 -4,-32 -2,-24 0,-7 -888,0 2,31 3,27 4,26 9,25 6,6 1,1 889,0z" />
<ellipse style="fill:#ffff75;stroke:#000;stroke-width:2" cx="943" cy="598" rx="27" ry="228" />
<path style="fill:none;stroke:#000;stroke-width:2" d="M945,827 l-889,0 -1,-1 -12,-27 -6,-32 -4,-33 -2,-28 -2,-30 -1,-33 0,-23 0,-12 0,-12 0,-34 1,-33 1,-31 3,-28 3,-34 4,-28 7,-25 8,-13 1,0 889,0 1,0 10,27 5,32 4,32 2,28 2,30 1,32 0,22 0,12 0,11 0,36 -1,33 -1,31 -2,29 -4,34 -4,28 -6,29 -6,10 -1,1" />
<path style="fill:none;stroke:#7f7f7f;stroke-width:2" d="M657,827 l-1,-1 -13,-27 -5,-32 -4,-33 -2,-28 -2,-30 -1,-33 0,-23 -1,-12 0,-12 1,-34 1,-33 1,-31 2,-28 4,-34 4,-28 6,-25 9,-13 1,0" />
<path style="fill:none;stroke:#7f7f7f;stroke-width:2" d="M341,827 l-2,-1 -12,-27 -5,-32 -4,-33 -2,-28 -2,-30 -1,-33 -1,-23 0,-12 0,-12 0,-34 1,-33 2,-31 2,-28 3,-34 5,-28 6,-25 8,-13 2,0" />
<path style="fill:none;stroke:#7f7f7f;stroke-width:2" d="M312,683 l316,0" />
<path style="fill:none;stroke:#7f7f7f;stroke-width:2" d="M34,734 l288,0" />
<path style="fill:none;stroke:#7f7f7f;stroke-width:2" d="M635,734 l287,0" />
<path style="fill:#fff;stroke:#000;stroke-width:2" d="M56,705 l71,0 0,16 -71,0 0,-16z" />
<path style="fill:#f00;stroke:#000;stroke-width:2" d="M56,676 l71,0 0,29 -71,0 0,-29z" />
<path style="fill:#633;stroke:#000;stroke-width:2" d="M117,561 l0,-38 3,-38 93,0 -3,38 0,38 -93,0z" />
<ellipse style="fill:#7f7f7f;stroke:#000;stroke-width:2" cx="943" cy="523" rx="8" ry="38" />
<path style="fill:#999;stroke:#000;stroke-width:2" d="M890,338 l23,0 0,32 -23,0 0,-32z" />
<path style="fill:#ccc" d="M894,338 l16,0 0,32 -16,0 0,-32z" />
<path style="fill:#fff" d="M897,338 l9,0 0,32 -9,0 0,-32z" />
<path style="fill:none;stroke:#000;stroke-width:2" d="M890,338 l23,0 0,32 -23,0 0,-32" />
<path style="fill:#333;stroke:#000;stroke-width:2" d="M890,338 l-6,-4 6,-16 23,0 3,16 -3,4 -23,0z" />
<path style="fill:#333;stroke:#000;stroke-width:2" d="M919,98 l-16,-58 26,-6 16,58 -26,6z" />
<path style="fill:#4c4c4c;stroke:#000;stroke-width:2" d="M890,40 l23,0 0,278 -23,0 0,-278z" />
<path style="fill:#4c4c4c;stroke:#000;stroke-width:2" d="M903,98 l-13,-58 23,-6 16,58 -26,6z" />
<path style="fill:#4c4c4c;stroke:#000;stroke-width:2" d="M673,82 l-3,-10 48,0 -3,10 -42,0z" />
<path style="fill:#4c4c4c;stroke:#000;stroke-width:2" d="M692,34 l4,0 0,-6 -4,0 0,6z" />
<path style="fill:#999;stroke:#000;stroke-width:2" d="M667,72 l3,-38 48,0 3,38 -54,0z" />
<path style="fill:#999;stroke:#000;stroke-width:2" d="M673,82 l42,0 0,288 -42,0 0,-288z" />
<path style="fill:#ccc" d="M673,72 l7,-38 31,0 4,38 -42,0z" />
<path style="fill:#ccc" d="M683,82 l25,0 0,288 -25,0 0,-288z" />
<path style="fill:#fff" d="M686,72 l3,-38 10,0 3,38 -16,0z" />
<path style="fill:#fff" d="M689,82 l10,0 0,288 -10,0 0,-288z" />
<path style="fill:none;stroke:#000;stroke-width:2" d="M667,72 l3,-38 48,0 3,38 -54,0" />
<path style="fill:none;stroke:#000;stroke-width:2" d="M673,82 l42,0 0,288 -42,0 0,-288" />
<path style="fill:#999;stroke:#000;stroke-width:2" d="M664,312 l60,0 0,13 -60,0 0,-13z" />
<path style="fill:#999;stroke:#000;stroke-width:2" d="M664,325 l60,0 0,9 -60,0 0,-9z" />
<path style="fill:#000;stroke:#000;stroke-width:2" d="M664,325 l60,0 0,3 -60,0 0,-3z" />
<path style="fill:#ffffc8;stroke:#000;stroke-width:2" d="M95,341 l61,0 0,29 -61,0 0,-29z" />
<path style="fill:#ff0;stroke:#000;stroke-width:2" d="M85,341 l80,0 0,-7 -80,0 0,7z" />
<path style="fill:#000;stroke:#000;stroke-width:2" d="M85,334 l80,0 0,-6 -80,0 0,6z" />

</svg>
