 

<svg xmlns:agg="http://www.example.com" xmlns="http://www.w3.org/2000/svg" preserveAspectRatio="none" width="0.7217in" height="1.0750in" viewBox="0 0 670 998">

<path style="fill:none;stroke:#c90;stroke-width:2" d="M642,95 l-20,6 -42,6 -56,3 -70,4 -78,2 -81,0 -79,-2 -70,-4 -56,-3 -40,-6 -21,-6" />
<path style="fill:none;stroke:#c90;stroke-width:2" d="M642,75 l-20,5 -42,4 -56,4 -70,4 -78,2 -81,0 -77,-2 -72,-4 -56,-4 -40,-4 -21,-5" />
<path style="fill:none;stroke:#c90;stroke-width:2" d="M642,52 l-20,6 -42,5 -56,4 -70,4 -78,0 -81,0 -77,0 -72,-4 -56,-4 -40,-5 -21,-6" />
<path style="fill:none;stroke:#c90;stroke-width:2" d="M490,69 l0,44" />
<path style="fill:none;stroke:#c90;stroke-width:2" d="M182,69 l0,44" />
<path style="fill:none;stroke:#fc0;stroke-width:2" d="M28,116 l1,-69 21,-6 40,-6 56,-4 70,-2 79,-1 81,0 78,1 70,2 56,4 42,6 20,6 0,69" />
<path style="fill:none;stroke:#fc0;stroke-width:2" d="M28,69 l20,-6 42,-5 56,-4 70,-4 79,0 79,0 80,0 70,4 56,4 42,5 20,6" />
<path style="fill:none;stroke:#fc0;stroke-width:2" d="M28,90 l20,-6 42,-4 56,-3 70,-4 79,-2 79,0 80,2 70,4 56,3 42,4 20,6" />
<path style="fill:none;stroke:#fc0;stroke-width:2" d="M510,31 l0,66" />
<path style="fill:none;stroke:#fc0;stroke-width:2" d="M160,31 l0,66" />
<path style="fill:none;stroke:#fc0;stroke-width:2" d="M335,28 l0,66" />
<path style="fill:#e5cb98" d="M510,444 l0,507 -36,12 -32,4 -39,2 -45,1 -46,0 -45,-1 -40,-2 -32,-4 -35,-12 0,-507 -70,-7 -42,-6 -20,-6 0,-312 20,-6 42,-6 56,-4 70,-2 79,-1 79,0 80,1 70,2 56,4 40,6 22,6 0,312 -20,6 -42,6 -70,7z" />
<path style="fill:#e8ce9e" d="M503,444 l0,507 -34,10 -32,4 -38,4 -41,1 -44,0 -43,-1 -38,-4 -32,-4 -32,-10 0,-507 -68,-9 -38,-4 -20,-6 1,-312 19,-6 40,-6 53,-4 66,-2 75,-1 77,0 74,1 66,2 55,4 37,6 21,6 0,312 -21,6 -37,4 -66,9z" />
<path style="fill:#e8d1a1" d="M493,444 l0,507 -32,10 -28,4 -36,4 -42,1 -41,0 -40,-1 -35,-4 -31,-4 -32,-10 0,-507 -62,-9 -36,-4 -20,-6 0,-312 20,-6 36,-6 51,-4 64,-2 70,-1 74,0 69,1 63,2 52,4 36,6 19,6 0,312 -19,6 -36,4 -64,9z" />
<path style="fill:#ebd4a6" d="M486,444 l0,507 -31,10 -28,4 -34,4 -38,1 -39,0 -38,-1 -33,-4 -29,-4 -21,-4 -9,-6 0,-507 -60,-9 -35,-4 -18,-6 0,-312 18,-6 35,-6 49,-4 60,-2 66,-1 68,0 68,1 58,2 49,4 36,6 17,6 0,312 -17,6 -36,4 -58,9z" />
<path style="fill:#ebd4a9" d="M476,444 l0,507 -28,10 -27,4 -32,4 -35,1 -38,0 -36,-1 -32,-4 -26,-4 -29,-10 0,-507 -54,-9 -34,-4 -17,-6 0,-312 17,-6 34,-6 45,-4 57,-2 62,-1 64,0 64,1 56,2 46,4 32,6 17,6 0,312 -17,6 -32,4 -57,9z" />
<path style="fill:#edd9ad" d="M469,444 l0,507 -29,10 -24,4 -30,4 -32,1 -36,0 -34,-1 -30,-4 -42,-8 -9,-6 0,-507 -53,-9 -30,-4 -17,-6 0,-312 17,-6 30,-6 43,-4 53,-2 59,-1 60,0 60,1 53,2 42,4 32,6 15,6 0,312 -15,6 -31,4 -52,9z" />
<path style="fill:#edd9b0" d="M459,444 l0,507 -7,6 -42,8 -26,4 -32,1 -34,0 -30,-1 -29,-4 -39,-8 -10,-6 0,-507 -49,-9 -28,-4 -15,-6 0,-312 15,-6 28,-6 42,-4 49,-2 55,-1 56,0 57,1 49,2 39,4 29,6 15,6 0,312 -15,6 -29,4 -49,9z" />
<path style="fill:#f0dcb5" d="M450,444 l0,507 -8,6 -36,8 -26,4 -30,1 -30,0 -28,-1 -27,-4 -38,-8 -7,-6 0,-507 -47,-9 -27,-4 -13,-6 0,-324 13,-2 29,-2 35,0 47,-2 51,-1 53,0 53,1 45,2 38,0 40,4 0,324 -13,6 -27,4 -47,9z" />
<path style="fill:#f0deb8" d="M442,444 l0,507 -41,14 -51,5 -28,0 -29,-1 -43,-8 -15,-4 -6,-6 0,-507 -43,-9 -38,-10 0,-326 38,-2 34,-2 43,0 48,-1 48,0 47,1 44,0 34,2 37,2 0,326 -11,6 -26,4 -42,9z" />
<path style="fill:#f2e0bc" d="M433,444 l0,507 -6,6 -32,8 -47,5 -51,-1 -40,-8 -20,-10 0,-507 -40,-9 -34,-10 0,-326 34,-2 32,0 40,-2 43,-1 46,0 43,1 39,2 33,0 33,2 0,326 -33,10 -40,9z" />
<path style="fill:#f2e0bc" d="M425,444 l0,507 -5,6 -31,8 -41,5 -47,-1 -38,-8 -11,-4 -6,-6 0,-507 -36,-9 -32,-10 0,-328 32,0 29,-2 35,0 40,-1 41,0 40,1 36,0 30,2 30,0 0,328 -9,6 -21,4 -36,9z" />
<path style="fill:#f5e3c2" d="M416,444 l0,507 -6,6 -24,8 -40,5 -41,-1 -34,-8 -12,-4 -5,-6 0,-507 -32,-9 -19,-4 -10,-6 0,-328 29,-2 58,0 36,-1 38,0 35,1 59,0 28,2 0,328 -9,6 -17,4 -34,9z" />
<path style="fill:#f5e6c5" d="M408,444 l0,507 -5,6 -40,12 -19,1 -37,-1 -31,-8 -9,-4 -4,-6 0,-507 -30,-9 -17,-4 -8,-6 0,-330 78,0 32,-1 34,0 32,1 79,0 0,330 -9,6 -17,4 -29,9z" />
<path style="fill:#f7e8c9" d="M399,444 l0,507 -4,6 -36,12 -15,1 -33,-1 -27,-8 -13,-10 0,-507 -25,-9 -15,-4 -8,-6 0,-330 44,0 53,-1 30,0 55,1 43,0 0,330 -8,6 -15,4 -26,9z" />
<path style="fill:#f7e8cc" d="M392,444 l0,507 -4,6 -30,12 -16,1 -28,-1 -30,-12 -4,-6 0,-507 -35,-13 -6,-6 0,-330 37,-1 119,0 38,1 0,330 -8,6 -33,13z" />
<path style="fill:#faedd1" d="M382,444 l0,507 -4,6 -24,12 -12,1 -35,-5 -15,-8 -4,-6 0,-507 -29,-13 -5,-6 0,-330 30,0 39,-1 23,0 40,1 32,0 0,330 -6,6 -30,13z" />
<path style="fill:#faedd4" d="M374,444 l0,507 -3,6 -4,4 -8,4 -9,4 -10,1 -11,0 -9,-1 -8,-4 -7,-4 -6,-4 -2,-6 0,-507 -15,-9 -9,-4 -4,-6 0,-331 58,0 17,0 59,0 0,331 -6,6 -8,4 -15,9z" />
<path style="fill:#fcefd8" d="M365,444 l0,507 -2,6 -4,4 -5,4 -8,4 -7,1 -8,0 -8,-1 -5,-4 -6,-4 -5,-4 -2,-6 0,-507 -12,-9 -7,-4 -2,-6 0,-331 45,0 13,0 46,0 0,331 -4,6 -8,4 -11,9z" />
<path style="fill:#fcf2db" d="M355,444 l0,507 0,6 -3,4 -4,4 -4,4 -5,1 -6,0 -6,-1 -5,-4 -4,-4 -2,-4 -2,-6 0,-507 -7,-9 -6,-4 -2,-6 0,-331 32,0 9,0 33,0 0,331 -2,6 -6,4 -10,9z" />
<path style="fill:#fff5e0" d="M348,444 l0,507 -2,6 -2,6 -2,4 -2,2 -3,1 -4,0 -4,-1 -2,-2 -1,-4 -3,-6 -1,-6 0,-507 -4,-7 -4,-6 -2,-6 0,-330 21,-1 6,0 19,1 0,330 -3,6 -3,6 -4,7z" />
<path style="fill:#c93" d="M510,444 l0,110 -350,-87 0,-23 -70,-7 -42,-6 -20,-6 614,0 -20,6 -42,6 -70,7z" />
<path style="fill:#cf9f3b" d="M503,444 l0,108 -334,-85 0,-23 -68,-9 -38,-4 -20,-6 584,0 -21,6 -37,4 -66,9z" />
<path style="fill:#cf9f3e" d="M493,444 l0,106 -317,-79 0,-27 -62,-9 -36,-4 -20,-6 554,0 -19,6 -36,4 -64,9z" />
<path style="fill:#d1a345" d="M486,444 l0,102 -300,-73 0,-29 -60,-9 -35,-4 -18,-6 524,0 -17,6 -36,4 -58,9z" />
<path style="fill:#d1a347" d="M476,444 l0,100 -283,-70 0,-30 -54,-9 -34,-4 -17,-6 494,0 -17,6 -32,4 -57,9z" />
<path style="fill:#d4a94f" d="M469,444 l0,99 -266,-66 0,-33 -53,-9 -30,-4 -17,-6 464,0 -15,6 -31,4 -52,9z" />
<path style="fill:#d4a952" d="M459,444 l0,96 -249,-62 0,-34 -49,-9 -28,-4 -15,-6 434,0 -15,6 -29,4 -49,9z" />
<path style="fill:#d6ad59" d="M450,444 l0,95 -230,-59 0,-36 -47,-9 -27,-4 -13,-6 404,0 -13,6 -27,4 -47,9z" />
<path style="fill:#d6ad5e" d="M442,444 l0,93 -213,-55 0,-38 -43,-9 -25,-4 -13,-6 373,0 -11,6 -26,4 -42,9z" />
<path style="fill:#d9b364" d="M433,444 l0,91 -196,-49 0,-42 -40,-9 -22,-4 -12,-6 343,0 -11,6 -22,4 -40,9z" />
<path style="fill:#d9b369" d="M425,444 l0,87 -179,-43 0,-44 -36,-9 -20,-4 -12,-6 313,0 -9,6 -21,4 -36,9z" />
<path style="fill:#dbb76d" d="M416,444 l0,85 -162,-39 0,-46 -32,-9 -19,-4 -10,-6 283,0 -9,6 -17,4 -34,9z" />
<path style="fill:#dbb772" d="M408,444 l0,83 -145,-35 0,-48 -30,-9 -17,-4 -8,-6 255,0 -9,6 -17,4 -29,9z" />
<path style="fill:#debd7b" d="M399,444 l0,81 -128,-32 0,-49 -25,-9 -15,-4 -8,-6 225,0 -8,6 -15,4 -26,9z" />
<path style="fill:#debd7d" d="M392,444 l0,80 -112,-29 0,-51 -23,-9 -12,-4 -6,-6 194,0 -8,6 -13,4 -20,9z" />
<path style="fill:#e0c184" d="M382,444 l0,77 -94,-24 0,-53 -19,-9 -10,-4 -5,-6 164,0 -6,6 -11,4 -19,9z" />
<path style="fill:#e0c187" d="M374,444 l0,76 -77,-19 0,-57 -15,-9 -9,-4 -4,-6 134,0 -6,6 -8,4 -15,9z" />
<path style="fill:#e3c78f" d="M365,444 l0,72 -60,-13 0,-59 -12,-9 -7,-4 -2,-6 104,0 -4,6 -8,4 -11,9z" />
<path style="fill:#e3c791" d="M355,444 l0,70 -41,-9 0,-61 -7,-9 -6,-4 -2,-6 74,0 -2,6 -6,4 -10,9z" />
<path style="fill:#e5cb98" d="M348,444 l0,68 -26,-6 0,-62 -4,-7 -4,-6 -2,-6 46,0 -3,6 -3,6 -4,7z" />
<path style="fill:none;stroke:#960;stroke-width:2" d="M510,444 l0,507 -36,12 -32,4 -39,2 -45,1 -46,0 -45,-1 -40,-2 -32,-4 -35,-12 0,-507 -70,-7 -42,-6 -20,-6 0,-312 20,-6 42,-6 56,-4 70,-2 79,-1 79,0 80,1 70,2 56,4 40,6 22,6 0,312 -20,6 -42,6 -70,7" />
<path style="fill:none;stroke:#960;stroke-width:2" d="M160,444 l350,0" />

</svg>
