 

<svg xmlns:agg="http://www.example.com" xmlns="http://www.w3.org/2000/svg" preserveAspectRatio="none" width="1.6083in" height="0.8275in" viewBox="0 0 999 514">

<path style="fill:#666" d="M713,56 l-14,0 0,-28 -671,0 0,28 14,0 14,15 0,71 229,229 0,114 171,0 0,-114 229,-229 0,43 28,0 0,-129z" />
<path style="fill:#7f7f7f" d="M130,142 l41,86 48,71 71,70 10,2 -1,114 143,0 -1,-114 10,-2 70,-70 49,-71 40,-86 15,-86 45,0 0,-28 -600,0 0,28 45,0 15,86z" />
<path style="fill:#8c8c8c" d="M162,142 l35,85 42,73 61,69 9,11 -1,105 124,0 -1,-105 9,-11 61,-69 42,-73 34,-85 13,-86 39,0 0,-28 -519,0 1,28 39,0 12,86z" />
<path style="fill:#999" d="M195,142 l29,85 35,74 52,68 7,20 0,96 105,0 -1,-96 7,-20 52,-68 35,-74 28,-85 10,-86 35,0 0,-28 -438,0 0,28 35,0 9,86z" />
<path style="fill:#a6a6a6" d="M228,142 l22,85 29,75 43,67 5,30 0,86 86,0 0,-86 5,-30 43,-67 29,-75 21,-85 8,-86 30,0 0,-28 -358,0 1,28 29,0 7,86z" />
<path style="fill:#b2b2b2" d="M261,142 l16,85 22,76 34,66 4,39 0,77 66,0 0,-77 5,-39 33,-66 22,-76 16,-85 5,-86 24,0 0,-28 -276,0 0,28 24,0 5,86z" />
<path style="fill:#bfbfbf" d="M294,142 l10,85 15,77 24,65 2,48 1,68 48,0 0,-68 3,-48 24,-65 15,-77 10,-85 3,-86 19,0 0,-28 -195,0 0,28 19,0 2,86z" />
<path style="fill:#ccc" d="M327,142 l3,86 10,77 14,64 2,116 29,0 1,-116 15,-64 9,-77 3,-86 0,-86 15,0 0,-28 -115,0 0,28 14,0 0,86z" />
<path style="fill:#e5e5e5" d="M360,142 l0,86 3,77 3,64 1,116 7,0 0,-116 4,-64 2,-77 1,-86 0,-86 4,0 0,-28 -29,0 0,28 4,0 0,86z" />
<path style="fill:none;stroke:#000;stroke-width:2" d="M456,371 l-171,0" />
<path style="fill:none;stroke:#000;stroke-width:2" d="M627,146 l-514,0" />
<path style="fill:#666" d="M699,56 l-657,0 7,8 643,0 7,-8z" />
<path style="fill:#999" d="M709,185 l0,-125 -21,32 0,93 21,0z" />
<path style="fill:#ccc" d="M702,185 l0,-114 -7,10 0,104 7,0z" />
<path style="fill:#333" d="M613,214 l43,-58 29,-92 0,78 -72,72z" />
<path style="fill:#333" d="M128,214 l-43,-58 -29,-92 0,78 72,72z" />
<path style="fill:none;stroke:#e5e5e5;stroke-width:2" d="M627,142 l-514,0" />
<path style="fill:none;stroke:#000;stroke-width:2" d="M713,56 l-14,0 0,-28 -671,0 0,28 14,0 14,15 0,71 229,229 0,114 171,0 0,-114 229,-229 0,43 28,0 0,-129" />
<path style="fill:#666" d="M242,421 l0,-36 -7,0 0,36 7,0z" />
<path style="fill:#666;stroke:#000;stroke-width:2" d="M292,414 l0,-22 -50,0 0,22 50,0z" />
<path style="fill:#666" d="M499,414 l0,-29 -50,0 0,29 50,0z" />
<path style="fill:#666" d="M499,421 l0,-43 7,0 0,43 -7,0z" />
<path style="fill:#999" d="M235,417 l7,0 0,-27 -7,0 0,27z" />
<path style="fill:#999" d="M242,411 l50,0 0,-16 -50,0 0,16z" />
<path style="fill:#999" d="M449,410 l50,0 0,-21 -50,0 0,21z" />
<path style="fill:#999" d="M506,416 l-7,0 0,-32 7,0 0,32z" />
<path style="fill:#ccc" d="M235,407 l7,1 0,-9 -7,0 0,8z" />
<path style="fill:#ccc" d="M242,406 l50,0 0,-6 -50,0 0,6z" />
<path style="fill:#ccc" d="M449,403 l50,0 0,-7 -50,0 0,7z" />
<path style="fill:#ccc" d="M506,405 l-7,0 0,-11 7,0 0,11z" />
<path style="fill:none;stroke:#000;stroke-width:2" d="M242,421 l0,-36 -7,0 0,36 7,0" />
<path style="fill:none;stroke:#000;stroke-width:2" d="M499,414 l0,-29 -50,0 0,29 50,0" />
<path style="fill:none;stroke:#000;stroke-width:2" d="M499,421 l0,-43 7,0 0,43 -7,0" />
<path style="fill:#b2b2b2;stroke:#000;stroke-width:2" d="M449,478 l0,-28 65,0 0,28 -65,0z" />
<path style="fill:#b2b2b2;stroke:#000;stroke-width:2" d="M199,457 l0,-29 93,0 0,29 -93,0z" />
<path style="fill:#e5e5e5" d="M514,475 l-65,0 0,-22 65,0 0,22z" />
<path style="fill:#e5e5e5" d="M292,453 l-93,0 0,-21 93,0 0,21z" />
<path style="fill:#fff" d="M514,467 l-65,1 0,-8 65,0 0,7z" />
<path style="fill:#fff" d="M292,446 l-93,0 0,-7 93,0 0,7z" />
<path style="fill:#b2b2b2;stroke:#000;stroke-width:2" d="M471,485 l0,-42 7,0 0,42 -7,0z" />
<path style="fill:#b2b2b2;stroke:#000;stroke-width:2" d="M264,464 l0,-43 6,0 0,43 -6,0z" />
<path style="fill:#e5e5e5" d="M478,480 l-7,0 0,-32 7,0 0,32z" />
<path style="fill:#e5e5e5" d="M270,458 l-6,0 0,-31 6,0 0,31z" />
<path style="fill:#fff" d="M478,469 l-7,0 0,-10 7,0 0,10z" />
<path style="fill:#fff" d="M270,447 l-6,1 0,-11 6,0 0,10z" />
<path style="fill:#666" d="M713,470 l0,-229 64,-71 0,-114 86,0 0,114 64,71 0,229 15,14 -243,0 14,-14z" />
<path style="fill:#7a7a7a" d="M729,470 l0,-229 55,-72 0,-114 73,0 0,114 55,72 0,229 12,14 -207,0 12,-14z" />
<path style="fill:#919191" d="M745,470 l0,-229 45,-72 0,-114 61,0 0,114 45,72 0,229 10,14 -171,0 10,-14z" />
<path style="fill:#a6a6a6" d="M761,470 l0,-229 36,-72 0,-114 47,0 0,114 36,72 0,229 8,14 -135,0 8,-14z" />
<path style="fill:#bababa" d="M776,470 l0,-229 27,-72 0,-114 35,0 0,114 27,72 0,229 5,14 -99,0 5,-14z" />
<path style="fill:#d1d1d1" d="M792,470 l0,-229 17,-72 0,-114 23,0 0,114 17,72 0,229 4,14 -64,0 3,-14z" />
<path style="fill:#e5e5e5" d="M808,470 l0,-229 7,-71 0,-114 10,0 0,114 8,71 0,229 2,14 -29,0 2,-14z" />
<path style="fill:none;stroke:#000;stroke-width:2" d="M713,470 l0,-229 64,-71 0,-114 86,0 0,114 64,71 0,229 15,14 -243,0 14,-14" />
<path style="fill:none;stroke:#000;stroke-width:2" d="M777,170 l86,0" />
<path style="fill:none;stroke:#000;stroke-width:2" d="M713,241 l215,0" />
<path style="fill:none;stroke:#000;stroke-width:2" d="M713,470 l215,0" />
<path style="fill:#666;stroke:#000;stroke-width:2" d="M856,99 l0,-29 114,0 0,29 -114,0z" />
<path style="fill:#666;stroke:#000;stroke-width:2" d="M706,163 l0,-29 79,0 0,29 -79,0z" />
<path style="fill:#999" d="M970,95 l-114,0 0,-22 114,0 0,22z" />
<path style="fill:#999" d="M785,159 l-79,0 0,-21 79,0 0,21z" />
<path style="fill:#ccc" d="M970,88 l-114,0 0,-7 114,0 0,7z" />
<path style="fill:#ccc" d="M785,152 l-79,0 0,-7 79,0 0,7z" />

</svg>
