

<svg xmlns:agg="http://www.example.com" xmlns="http://www.w3.org/2000/svg" preserveAspectRatio="none" width="0.9032in" height="1.4792in" viewBox="0 0 610 999">

<path style="fill:#333;stroke:#000;stroke-width:2" d="M165,901 l277,0 0,13 -277,0 0,-13z" />
<path style="fill:#333;stroke:#000;stroke-width:2" d="M27,37 l555,0 0,111 -555,0 0,-111z" />
<path style="fill:#ccc;stroke:#000;stroke-width:2" d="M224,27 l18,0 0,944 -18,0 0,-944z" />
<path style="fill:#e5e5e5;stroke:#000;stroke-width:2" d="M259,27 l19,0 0,944 -19,0 0,-944z" />
<path style="fill:#fff;stroke:#000;stroke-width:2" d="M295,27 l19,0 0,944 -19,0 0,-944z" />
<path style="fill:#e5e5e5;stroke:#000;stroke-width:2" d="M331,27 l19,0 0,944 -19,0 0,-944z" />
<path style="fill:#ccc;stroke:#000;stroke-width:2" d="M367,27 l19,0 0,944 -19,0 0,-944z" />
<path style="fill:#ccc;stroke:#000;stroke-width:2" d="M188,27 l19,0 0,944 -19,0 0,-944z" />
<path style="fill:#ccc;stroke:#000;stroke-width:2" d="M403,27 l19,0 0,944 -19,0 0,-944z" />
<path style="fill:#666;stroke:#000;stroke-width:2" d="M45,27 l18,0 0,121 -18,0 0,-121z" />
<path style="fill:#7f7f7f;stroke:#000;stroke-width:2" d="M80,27 l19,0 0,121 -19,0 0,-121z" />
<path style="fill:#999;stroke:#000;stroke-width:2" d="M116,27 l19,0 0,121 -19,0 0,-121z" />
<path style="fill:#b2b2b2;stroke:#000;stroke-width:2" d="M152,27 l19,0 0,121 -19,0 0,-121z" />
<path style="fill:#b2b2b2;stroke:#000;stroke-width:2" d="M439,27 l19,0 0,121 -19,0 0,-121z" />
<path style="fill:#999;stroke:#000;stroke-width:2" d="M474,27 l19,0 0,121 -19,0 0,-121z" />
<path style="fill:#7f7f7f;stroke:#000;stroke-width:2" d="M510,27 l19,0 0,121 -19,0 0,-121z" />
<path style="fill:#666;stroke:#000;stroke-width:2" d="M546,27 l19,0 0,121 -19,0 0,-121z" />
<path style="fill:#7f7f7f" d="M29,144 l0,-53 553,0 0,53 -553,0z" />
<path style="fill:#999" d="M67,144 l0,-53 481,0 0,53 -481,0z" />
<path style="fill:#b2b2b2" d="M125,144 l0,-53 365,0 0,53 -365,0z" />
<path style="fill:#ccc" d="M178,144 l0,-53 253,0 0,53 -253,0z" />
<path style="fill:#e5e5e5" d="M224,144 l0,-53 162,0 0,53 -162,0z" />
<path style="fill:#fff" d="M274,144 l0,-53 67,0 0,53 -67,0z" />
<path style="fill:none;stroke:#000;stroke-width:2" d="M27,91 l555,0 0,53 -555,0 0,-53" />
<path style="fill:#7f7f7f" d="M29,88 l0,-51 553,0 0,51 -553,0z" />
<path style="fill:#999" d="M67,88 l0,-51 481,0 0,51 -481,0z" />
<path style="fill:#b2b2b2" d="M125,88 l0,-51 365,0 0,51 -365,0z" />
<path style="fill:#ccc" d="M178,88 l0,-51 253,0 0,51 -253,0z" />
<path style="fill:#e5e5e5" d="M224,88 l0,-51 162,0 0,51 -162,0z" />
<path style="fill:#fff" d="M274,88 l0,-51 67,0 0,51 -67,0z" />
<path style="fill:none;stroke:#000;stroke-width:2" d="M27,37 l555,0 0,51 -555,0 0,-51" />
<path style="fill:#7f7f7f" d="M167,963 l0,-53 275,0 0,53 -275,0z" />
<path style="fill:#999" d="M186,963 l0,-53 241,0 0,53 -241,0z" />
<path style="fill:#b2b2b2" d="M214,963 l0,-53 183,0 0,53 -183,0z" />
<path style="fill:#ccc" d="M241,963 l0,-53 128,0 0,53 -128,0z" />
<path style="fill:#e5e5e5" d="M265,963 l0,-53 80,0 0,53 -80,0z" />
<path style="fill:#fff" d="M290,963 l0,-53 32,0 0,53 -32,0z" />
<path style="fill:none;stroke:#000;stroke-width:2" d="M165,910 l277,0 0,53 -277,0 0,-53" />
<path style="fill:#7f7f7f" d="M167,907 l0,-53 275,0 0,53 -275,0z" />
<path style="fill:#999" d="M186,907 l0,-53 241,0 0,53 -241,0z" />
<path style="fill:#b2b2b2" d="M214,907 l0,-53 183,0 0,53 -183,0z" />
<path style="fill:#ccc" d="M241,907 l0,-53 128,0 0,53 -128,0z" />
<path style="fill:#e5e5e5" d="M265,907 l0,-53 80,0 0,53 -80,0z" />
<path style="fill:#fff" d="M290,907 l0,-53 32,0 0,53 -32,0z" />
<path style="fill:none;stroke:#000;stroke-width:2" d="M165,854 l277,0 0,53 -277,0 0,-53" />
<path style="fill:#7f7f7f;stroke:#000;stroke-width:2" d="M582,816 l0,-668 -555,0 0,668 2,6 20,17 26,10 34,9 41,7 47,6 52,4 27,1 29,0 28,0 27,-1 52,-4 48,-6 41,-7 33,-9 26,-10 21,-17 1,-6z" />
<path style="fill:#999" d="M546,816 l0,-668 -485,0 0,668 2,6 28,22 26,10 33,8 39,7 43,4 48,3 25,0 49,-1 45,-4 41,-6 36,-7 29,-9 30,-15 11,-18z" />
<path style="fill:#b2b2b2" d="M490,816 l0,-668 -370,0 0,668 14,23 28,15 25,8 29,7 34,4 36,3 19,0 37,-1 34,-4 32,-6 27,-7 32,-14 22,-22 1,-6z" />
<path style="fill:#ccc" d="M431,816 l0,-668 -254,0 0,668 10,23 27,19 30,11 35,6 26,1 37,-3 33,-8 27,-11 23,-20 6,-18z" />
<path style="fill:#e5e5e5" d="M386,816 l0,-668 -162,0 0,668 9,28 20,18 28,11 24,3 31,-5 25,-13 18,-19 7,-23z" />
<path style="fill:#fff" d="M339,816 l0,-668 -70,0 0,668 1,12 2,11 3,10 5,9 5,7 6,6 7,4 7,1 6,-1 7,-4 5,-6 6,-7 4,-9 3,-10 2,-11 1,-12z" />
<circle style="fill:#ccc;stroke:#000;stroke-width:2" cx="305" cy="460" r="121" />
<path style="fill:none;stroke:#fff;stroke-width:2" d="M256,558 l-2,-2 -1,-3 -1,-3 0,-2 -1,-3 0,-3 0,-2 1,-3 2,-5 2,-4 4,-4 5,-3 4,-2 5,-2 6,0 6,1 3,1 2,1 2,2 3,1 2,2 1,2 2,2 2,2" />
<path style="fill:none;stroke:#7f7f7f;stroke-width:2" d="M303,531 l1,2 1,3 1,2 0,2 0,3 0,3 -1,3 0,3 -2,4 -3,5 -4,4 -4,3 -5,2 -4,1 -5,0 -5,0 -3,-1 -3,-1 -2,-1 -2,-2 -2,-1 -2,-3 -2,-2 -1,-2" />
<path style="fill:none;stroke:#fff;stroke-width:2" d="M307,386 l-2,-2 0,-3 -1,-2 0,-2 -1,-2 1,-3 0,-2 1,-3 1,-5 3,-4 3,-3 4,-3 4,-2 5,-1 5,0 5,1 3,1 2,1 2,1 3,1 2,2 2,1 1,2 2,2" />
<path style="fill:none;stroke:#7f7f7f;stroke-width:2" d="M352,361 l1,2 0,3 1,2 0,3 0,2 0,2 0,3 0,2 -2,5 -3,4 -3,4 -4,2 -4,2 -5,2 -6,1 -5,-1 -2,-1 -3,-1 -2,-2 -1,-1 -3,-2 -1,-2 -2,-2 -1,-2" />
<path style="fill:none;stroke:#fff;stroke-width:2" d="M365,450 l-1,-2 0,-3 -1,-3 0,-3 0,-3 -1,-2 1,-3 0,-2 2,-5 3,-5 4,-4 4,-3 5,-2 5,-1 5,0 6,1 2,1 3,1 2,1 2,2 3,1 2,2 1,2 2,2" />
<path style="fill:none;stroke:#7f7f7f;stroke-width:2" d="M414,422 l1,2 0,3 1,3 0,3 1,3 0,2 -1,2 0,2 -2,6 -3,5 -3,4 -5,3 -5,2 -5,2 -6,0 -5,-1 -2,-1 -2,-1 -3,-1 -2,-2 -2,-2 -2,-2 -2,-2 -2,-2" />
<path style="fill:none;stroke:#fff;stroke-width:2" d="M195,499 l0,-3 -1,-3 -1,-2 0,-3 0,-3 -1,-2 1,-3 0,-2 2,-5 3,-5 4,-4 4,-3 5,-3 5,-1 6,0 5,1 2,0 3,2 2,1 2,2 2,1 2,3 1,2 1,2" />
<path style="fill:none;stroke:#7f7f7f;stroke-width:2" d="M242,471 l2,2 1,2 1,3 1,2 0,3 0,3 0,2 -1,3 -2,6 -3,4 -3,4 -5,3 -4,2 -6,1 -5,0 -6,-1 -2,0 -2,-1 -3,-2 -2,-1 -2,-2 -2,-1 -2,-2 -2,-2" />
<path style="fill:none;stroke:#fff;stroke-width:2" d="M220,410 l-1,-2 -2,-2 -1,-3 0,-3 0,-2 -1,-3 1,-3 0,-2 3,-6 3,-4 3,-4 4,-3 5,-2 5,-1 5,0 6,1 3,1 3,0 2,2 2,1 2,2 2,2 1,2 2,3" />
<path style="fill:none;stroke:#7f7f7f;stroke-width:2" d="M267,384 l1,2 1,2 1,3 0,3 0,2 0,2 -1,3 0,2 -2,5 -3,5 -4,4 -4,3 -4,3 -5,1 -5,0 -5,0 -3,-1 -2,-2 -3,-1 -2,-2 -2,-2 -2,-1 -1,-3 -2,-2" />
<path style="fill:none;stroke:#fff;stroke-width:2" d="M342,537 l-1,-3 -1,-2 -1,-2 0,-3 0,-2 0,-3 1,-3 1,-3 2,-5 2,-4 4,-4 4,-3 5,-2 5,-1 5,-1 4,1 3,1 3,1 2,2 2,1 2,2 2,2 2,2 2,2" />
<path style="fill:none;stroke:#7f7f7f;stroke-width:2" d="M390,510 l1,3 1,2 1,2 1,3 0,3 0,2 0,3 0,3 -3,5 -4,5 -3,4 -5,2 -5,2 -5,2 -5,0 -4,-1 -3,-1 -3,-1 -2,-1 -2,-1 -2,-2 -2,-2 -2,-3 -2,-2" />

</svg>
