 
<svg version="1.1" id="make2d" xmlns="http://www.w3.org/2000/svg" preserveAspectRatio="none"  xmlns:xlink="http://www.w3.org/1999/xlink" x="0px" y="0px"
	   viewBox="0 0 154 104" xmlns:agg="http://www.example.com" xml:space="preserve">
	 
<agg:params>
	<agg:param type="C" name="color" description="Color" cssAttributes="fill" classes="color"/>
	<agg:param type="F" name="saturation" description="Saturation" min="0" max="1" cssAttributes="opacity" classes="color"/>
</agg:params>

<style type="text/css" >
   <![CDATA[

	.stroke{
		stroke-width:1px;
		stroke-linecap:round;
		stroke-linejoin:round;
		stroke: black;
		opacity:0.5;
		fill:none;
	}
	
	.color {
		fill:#79A2C9;
	}

      ]]>
</style> 

<defs>
	<path id="boundary" d="M151.997,77.966c0.004,2.862-1.541,5.225-3.356,7.097c-3.16,3.259-6.833,5.164-10.82,6.929
		c-6.402,2.833-12.98,4.613-19.766,6.029c-13.626,2.847-27.198,3.907-41.057,3.907s-27.43-1.063-41.057-3.914
		c-6.792-1.421-13.377-3.205-19.785-6.049c-3.982-1.768-7.651-3.676-10.805-6.938C3.537,83.152,1.996,80.787,2,77.924
		c0.799-19.395,8.128-37.954,20.994-52.177c6.37-6.641,13.28-11.905,21.415-16.041c3.955-1.937,7.987-3.54,12.197-4.784
		c2.777-0.802,5.576-1.44,8.419-1.927c2.089-0.341,4.184-0.604,6.293-0.772C73.209,2.076,75.1,2,76.997,2
		c1.893,0,3.777,0.075,5.664,0.221c2.118,0.168,4.22,0.433,6.318,0.775c2.852,0.489,5.657,1.13,8.441,1.934
		c4.238,1.257,8.293,2.879,12.272,4.83c8.096,4.148,14.989,9.399,21.34,16.02C143.877,40.014,151.217,58.565,151.997,77.966z"/>
</defs>

	 
<use xlink:href="#boundary" class="color"/>

<path opacity="0.21" fill="#FFFFFF" d="M152,77.968c0,4.182-3.311,7.461-6.368,9.719
	c-3.525,2.603-7.641,4.366-11.691,5.89c-8.646,3.253-17.818,5.083-26.914,6.374c-9.205,1.307-18.499,1.888-27.786,1.966
	c-9.374,0.079-18.758-0.321-28.074-1.423c-8.545-1.012-17.109-2.536-25.382-5.004c-4.05-1.208-8.02-2.702-11.842-4.546
	c-3.505-1.691-6.844-3.815-9.426-6.84c-0.07-8.923,1.67-17.968,4.488-26.382c2.619-7.821,6.435-15.16,11.137-21.85
	c8.567-12.188,20.273-22.025,33.692-27.936C61.187,4.696,69.03,2.657,77,2.002c17.547,0,34.637,6.523,48.094,18.136
	c2.065,1.782,4.042,3.67,5.936,5.645C143.874,40.015,151.216,58.567,152,77.968C152,80.394,151.216,58.567,152,77.968z"/>
<path opacity="0.21" fill="#FFFFFF" d="M149.441,84.177c-2.688,3.241-6.416,5.412-10.131,7.143
	c-4.186,1.95-8.537,3.492-12.971,4.717c-8.94,2.47-18.156,3.978-27.362,4.874c-9.276,0.902-18.607,1.165-27.919,0.949
	c-9.359-0.217-18.712-0.981-27.961-2.504c-10.599-1.745-21.474-4.211-31.06-9.381c-0.118-8.754,1.295-17.694,3.699-26.072
	c2.254-7.857,5.51-15.439,9.587-22.465c7.309-12.593,17.45-23.662,29.767-31.076C61.856,6.288,69.277,3.372,77,2.002
	c14.521,1.194,28.473,7.006,40.044,16.102c12.001,9.432,21.561,22.399,27.01,36.95c1.622,4.332,2.868,8.808,3.772,13.357
	c0.512,2.574,0.918,5.169,1.192,7.783C149.299,78.855,149.34,81.506,149.441,84.177C149.184,84.486,149.377,82.473,149.441,84.177z
	"/>
<path opacity="0.21" fill="#FFFFFF" d="M141.95,90.002c-8.098,4.37-17.147,6.724-26.073,8.457
	c-9.149,1.777-18.418,2.796-27.716,3.221c-18.619,0.851-37.517-0.183-55.732-4.438c-2.853-0.667-5.687-1.423-8.481-2.32
	c-0.091-4.514,0.294-9.053,0.818-13.53c0.525-4.48,1.291-8.929,2.306-13.317c1.851-8,4.505-15.824,7.927-23.25
	c5.92-12.848,14.199-25.06,25.207-33.766C65.247,7.069,70.903,3.875,77,2.002c14.395,2.552,27.435,10.461,37.741,21.007
	c10.888,11.141,19.006,25.29,23.374,40.466c1.369,4.759,2.363,9.629,3.045,14.543C141.712,82,141.82,85.988,141.95,90.002
	C140.624,90.717,141.765,84.265,141.95,90.002z"/>
<path opacity="0.23" fill="#FFFFFF" d="M130.018,94.943c-8.805,2.815-18.008,4.467-27.151,5.548
	c-9.242,1.093-18.552,1.497-27.851,1.428c-11.902-0.089-23.815-1.008-35.536-3.201c0-18.871,3.154-37.988,9.388-55.73
	c2.84-8.083,6.342-15.962,10.874-23.188C64.141,12.786,69.704,5.895,77,2.002c13.52,4.153,24.416,14.523,32.505,26.149
	c8.815,12.67,14.872,27.43,18.018,42.673C129.164,78.777,129.908,86.818,130.018,94.943
	C126.097,96.196,129.96,90.717,130.018,94.943z"/>
<path opacity="0.25" fill="#FFFFFF" d="M114.514,98.718c-18.315,3.438-37.279,3.986-55.818,2.518
	c-0.374-0.029-0.746-0.06-1.119-0.092c0-18.875,1.541-37.863,4.858-56.43c1.376-7.7,3.044-15.359,5.316-22.833
	c1.059-3.483,2.249-6.931,3.682-10.27C72.884,8.227,74.569,4.757,77,2.002c7.748,4.132,13.561,11.635,18.09,19.156
	c4.701,7.806,8.267,16.304,11.108,25.001C111.699,62.994,114.514,80.95,114.514,98.718
	C108.505,99.846,114.514,96.41,114.514,98.718z"/>
<path opacity="0.35" fill="#FFFFFF" d="M96.474,101.137c-6.451,0.553-12.93,0.789-19.474,0.789V2.002
	C87.286,13.8,92.511,48.539,94.114,62.188c1.233,10.508,1.968,21.023,2.217,31.612C96.395,96.558,96.431,98.954,96.474,101.137z"/>

<use xlink:href="#boundary" class="stroke"/>
	
</svg>
