

<svg xmlns:agg="http://www.example.com" xmlns="http://www.w3.org/2000/svg" preserveAspectRatio="none" width="0.7814in" height="1.4792in" viewBox="0 0 280 530">

<path style="fill:#7f7f7f;stroke:#000;stroke-width:2" d="M182,78 l0,-42 -1,-4 -2,-4 -4,-4 -5,-3 -7,-3 -7,-1 -8,-2 -16,0 -8,2 -7,1 -7,3 -5,3 -4,4 -2,4 -1,4 0,42 1,4 2,4 4,4 5,3 7,3 7,1 8,2 16,0 8,-2 7,-1 7,-3 5,-3 4,-4 2,-4 1,-4z" />
<path style="fill:#999" d="M175,78 l0,-42 -1,-4 -2,-4 -3,-4 -4,-3 -6,-3 -6,-1 -6,-2 -14,0 -6,2 -6,1 -6,3 -4,3 -3,4 -2,4 -1,4 0,42 1,4 2,4 3,4 4,3 6,3 6,1 6,2 14,0 6,-2 6,-1 6,-3 4,-3 3,-4 2,-4 1,-4z" />
<ellipse style="fill:#b2b2b2" cx="140" cy="57" rx="25" ry="42" />
<ellipse style="fill:#ccc" cx="140" cy="57" rx="14" ry="42" />
<path style="fill:none;stroke:#000;stroke-width:2" d="M182,36 l-1,1 -2,1 -4,1 -5,1 -7,0 -7,1 -8,0 -8,0 -8,0 -8,0 -7,-1 -7,0 -5,-1 -4,-1 -2,-1 -1,-1" />
<path style="fill:none;stroke:#000;stroke-width:2" d="M182,78 l-1,1 -2,1 -4,1 -5,1 -7,1 -7,0 -8,1 -8,0 -8,0 -8,-1 -7,0 -7,-1 -5,-1 -4,-1 -2,-1 -1,-1" />
<path style="fill:#7f7f7f;stroke:#000;stroke-width:2" d="M36,119 l208,0 0,375 -208,0 0,-375z" />
<path style="fill:#999" d="M57,119 l166,0 0,375 -166,0 0,-375z" />
<path style="fill:#b2b2b2" d="M78,119 l125,0 0,375 -125,0 0,-375z" />
<path style="fill:#ccc" d="M109,119 l62,0 0,375 -62,0 0,-375z" />
<path style="fill:#999;stroke:#000;stroke-width:2" d="M15,494 l250,0 0,21 -250,0 0,-21z" />
<path style="fill:#999;stroke:#000;stroke-width:2" d="M15,98 l250,0 0,21 -250,0 0,-21z" />
<path style="fill:#666;stroke:#000;stroke-width:2" d="M26,119 l20,0 0,21 -20,0 0,-21z" />
<path style="fill:#666;stroke:#000;stroke-width:2" d="M234,119 l21,0 0,21 -21,0 0,-21z" />
<path style="fill:#7f7f7f;stroke:#000;stroke-width:2" d="M88,119 l21,0 0,21 -21,0 0,-21z" />
<path style="fill:#7f7f7f;stroke:#000;stroke-width:2" d="M171,119 l21,0 0,21 -21,0 0,-21z" />
<path style="fill:#666;stroke:#000;stroke-width:2" d="M26,473 l20,0 0,21 -20,0 0,-21z" />
<path style="fill:#666;stroke:#000;stroke-width:2" d="M234,473 l21,0 0,21 -21,0 0,-21z" />
<path style="fill:#7f7f7f;stroke:#000;stroke-width:2" d="M88,473 l21,0 0,21 -21,0 0,-21z" />
<path style="fill:#7f7f7f;stroke:#000;stroke-width:2" d="M171,473 l21,0 0,21 -21,0 0,-21z" />

</svg>
