 

<svg xmlns:agg="http://www.example.com" xmlns="http://www.w3.org/2000/svg" preserveAspectRatio="none" width="1.6083in" height="0.7213in" viewBox="0 0 999 448">

<path style="fill:#98b2a5;stroke:#000;stroke-width:2" d="M28,28 l0,113 58,0 0,279 826,0 0,-281 58,0 0,-111 -942,0z" />
<path style="fill:#396" d="M52,52 l0,62 61,0 0,281 773,0 0,-281 60,0 0,-62 -894,0z" />
<path style="fill:#197f4c" d="M52,114 l15,0 0,-43 864,0 0,43 15,0 0,-62 -894,0 0,62z" />
<path style="fill:#197f4c" d="M888,114 l-10,12 0,248 -758,0 0,-248 -10,-12 0,281 778,0 0,-281z" />
<path style="fill:none;stroke:#fff;stroke-width:2" d="M110,395 l778,0 0,-281 58,0 0,-62" />
<path style="fill:none;stroke:#fff;stroke-width:2" d="M52,114 l58,0" />
<path style="fill:none;stroke:#000;stroke-width:2" d="M52,114 l0,-62 894,0" />
<path style="fill:none;stroke:#000;stroke-width:2" d="M110,114 l0,281" />
<path style="fill:#7f7f7f;stroke:#000;stroke-width:2" d="M725,420 l0,-59 34,0 0,59 -34,0z" />
<path style="fill:#7f7f7f" d="M627,420 l0,-59 34,0 0,59 -34,0z" />
<path style="fill:#7f7f7f" d="M529,420 l0,-59 34,0 0,59 -34,0z" />
<path style="fill:#7f7f7f" d="M431,420 l0,-59 34,0 0,59 -34,0z" />
<path style="fill:#7f7f7f" d="M333,420 l0,-59 34,0 0,59 -34,0z" />
<path style="fill:#7f7f7f;stroke:#000;stroke-width:2" d="M233,420 l0,-59 34,0 0,59 -34,0z" />
<path style="fill:#a1a1a1" d="M731,420 l0,-57 25,0 0,57 -25,0z" />
<path style="fill:#a1a1a1" d="M633,420 l0,-57 24,0 0,57 -24,0z" />
<path style="fill:#a1a1a1" d="M533,420 l0,-57 24,0 0,57 -24,0z" />
<path style="fill:#a1a1a1" d="M435,420 l0,-57 24,0 0,57 -24,0z" />
<path style="fill:#a1a1a1" d="M337,420 l0,-57 24,0 0,57 -24,0z" />
<path style="fill:#a1a1a1" d="M239,420 l0,-57 24,0 0,57 -24,0z" />
<path style="fill:#c4c4c4" d="M735,420 l0,-55 15,0 0,55 -15,0z" />
<path style="fill:#c4c4c4" d="M637,420 l0,-55 15,0 0,55 -15,0z" />
<path style="fill:#c4c4c4" d="M539,420 l0,-55 15,0 0,55 -15,0z" />
<path style="fill:#c4c4c4" d="M441,420 l0,-55 15,0 0,55 -15,0z" />
<path style="fill:#c4c4c4" d="M343,420 l0,-55 15,0 0,55 -15,0z" />
<path style="fill:#c4c4c4" d="M245,420 l0,-55 13,0 0,55 -13,0z" />
<path style="fill:#fff" d="M740,420 l0,-53 4,0 0,53 -4,0z" />
<path style="fill:#fff" d="M642,420 l0,-53 4,0 0,53 -4,0z" />
<path style="fill:#fff" d="M542,420 l0,-53 6,0 0,53 -6,0z" />
<path style="fill:#fff" d="M444,420 l0,-53 6,0 0,53 -6,0z" />
<path style="fill:#fff" d="M346,420 l0,-53 6,0 0,53 -6,0z" />
<path style="fill:#fff" d="M248,420 l0,-53 6,0 0,53 -6,0z" />
<path style="fill:none;stroke:#000;stroke-width:2" d="M333,420 l0,-59 34,0 0,59 -34,0" />
<path style="fill:none;stroke:#000;stroke-width:2" d="M431,420 l0,-59 34,0 0,59 -34,0" />
<path style="fill:none;stroke:#000;stroke-width:2" d="M529,420 l0,-59 34,0 0,59 -34,0" />
<path style="fill:none;stroke:#000;stroke-width:2" d="M627,420 l0,-59 34,0 0,59 -34,0" />
<path style="fill:#fff" d="M722,344 l-6,-11 6,-11 15,0 5,11 -5,11 -15,0z" />
<path style="fill:#fff" d="M742,356 l-7,-12 7,-13 14,0 7,13 -7,12 -14,0z" />
<path style="fill:#fff" d="M742,301 l-7,-11 7,-14 14,0 7,14 -7,11 -14,0z" />
<path style="fill:#fff" d="M737,242 l-8,-13 8,-11 13,0 7,11 -7,13 -13,0z" />
<path style="fill:#fff" d="M629,276 l-7,-11 7,-13 13,0 8,13 -8,11 -13,0z" />
<path style="fill:#fff" d="M624,316 l-8,-11 8,-13 14,0 6,13 -6,11 -14,0z" />
<path style="fill:#fff" d="M650,331 l-8,-11 8,-13 13,0 8,13 -8,11 -13,0z" />
<path style="fill:#fff" d="M642,356 l-5,-12 5,-13 15,0 8,13 -8,12 -15,0z" />
<path style="fill:#fff" d="M525,344 l-7,-11 7,-11 15,0 6,11 -6,11 -15,0z" />
<path style="fill:#fff" d="M552,331 l-8,-11 8,-13 13,0 8,13 -8,11 -13,0z" />
<path style="fill:#fff" d="M531,276 l-8,-11 8,-13 13,0 8,13 -8,11 -13,0z" />
<path style="fill:#fff" d="M540,242 l-7,-13 7,-11 14,0 7,11 -7,13 -14,0z" />
<path style="fill:#fff" d="M431,276 l-6,-11 6,-13 15,0 8,13 -8,11 -15,0z" />
<path style="fill:#fff" d="M427,316 l-7,-11 7,-13 14,0 7,13 -7,11 -14,0z" />
<path style="fill:#fff" d="M446,356 l-5,-12 5,-13 15,0 6,13 -6,12 -15,0z" />
<path style="fill:#fff" d="M356,331 l-8,-11 8,-13 13,0 8,13 -8,11 -13,0z" />
<path style="fill:#fff" d="M348,356 l-5,-12 5,-13 15,0 6,13 -6,12 -15,0z" />
<path style="fill:#fff" d="M329,344 l-7,-11 7,-11 14,0 7,11 -7,11 -14,0z" />
<path style="fill:#fff" d="M333,276 l-6,-11 6,-13 15,0 8,13 -8,11 -15,0z" />
<path style="fill:#fff" d="M245,242 l-6,-13 6,-11 14,0 8,11 -8,13 -14,0z" />
<path style="fill:#fff" d="M250,301 l-8,-11 8,-14 15,0 6,14 -6,11 -15,0z" />
<path style="fill:#fff" d="M231,316 l-7,-11 7,-13 14,0 7,13 -7,11 -14,0z" />
<path style="fill:#fff" d="M256,331 l-6,-11 6,-13 15,0 7,13 -7,11 -15,0z" />
<path style="fill:#cff" d="M344,242 l-7,-13 7,-11 14,0 7,11 -7,13 -14,0z" />
<path style="fill:#cff" d="M442,242 l-7,-13 7,-11 14,0 7,11 -7,13 -14,0z" />
<path style="fill:#cff" d="M638,242 l-7,-13 7,-11 14,0 7,11 -7,13 -14,0z" />
<path style="fill:#cff" d="M748,331 l-8,-11 8,-13 13,0 8,13 -8,11 -13,0z" />
<path style="fill:#cff" d="M722,316 l-6,-11 6,-13 15,0 5,13 -5,11 -15,0z" />
<path style="fill:#cff" d="M727,276 l-7,-11 7,-13 13,0 8,13 -8,11 -13,0z" />
<path style="fill:#cff" d="M624,344 l-8,-11 8,-11 14,0 6,11 -6,11 -14,0z" />
<path style="fill:#cff" d="M642,301 l-5,-11 5,-14 15,0 8,14 -8,11 -15,0z" />
<path style="fill:#cff" d="M544,356 l-5,-12 5,-13 15,0 8,13 -8,12 -15,0z" />
<path style="fill:#cff" d="M525,316 l-7,-11 7,-13 15,0 6,13 -6,11 -15,0z" />
<path style="fill:#cff" d="M544,301 l-5,-11 5,-14 15,0 8,14 -8,11 -15,0z" />
<path style="fill:#cff" d="M427,344 l-7,-11 7,-11 14,0 7,11 -7,11 -14,0z" />
<path style="fill:#cff" d="M454,331 l-8,-11 8,-13 13,0 8,13 -8,11 -13,0z" />
<path style="fill:#cff" d="M446,301 l-5,-11 5,-14 15,0 6,14 -6,11 -15,0z" />
<path style="fill:#cff" d="M329,316 l-7,-11 7,-13 14,0 7,13 -7,11 -14,0z" />
<path style="fill:#cff" d="M348,301 l-5,-11 5,-14 15,0 6,14 -6,11 -15,0z" />
<path style="fill:#cff" d="M250,356 l-8,-12 8,-13 15,0 6,13 -6,12 -15,0z" />
<path style="fill:#cff" d="M231,344 l-7,-11 7,-11 14,0 7,11 -7,11 -14,0z" />
<path style="fill:#cff" d="M235,276 l-6,-11 6,-13 15,0 6,13 -6,11 -15,0z" />

</svg>
