

<svg xmlns:agg="http://www.example.com" xmlns="http://www.w3.org/2000/svg" preserveAspectRatio="none" width="1.5409in" height="1.4792in" viewBox="0 0 999 959">

<path style="fill:#e5e5e5;stroke:#000;stroke-width:2" d="M86,931 l-19,-21 0,-686 -39,0 0,-19 942,0 0,19 -39,0 0,686 -19,21 -826,0z" />
<path style="fill:#e5e5e5;stroke:#000;stroke-width:2" d="M793,361 l0,-156 -40,0 0,-40 21,0 0,-119 19,-18 79,0 19,18 0,119 79,0 0,40 -98,0 0,569 -39,0 0,-373 -40,0 -19,0 0,-40 19,0z" />
<path style="fill:none;stroke:#000;stroke-width:2" d="M774,165 l117,0" />
<path style="fill:#e5e5e5;stroke:#000;stroke-width:2" d="M814,774 l77,0 0,38 -77,0 0,-38z" />
<path style="fill:#e5e5e5;stroke:#000;stroke-width:2" d="M774,361 l98,0 0,40 -98,0 0,-40z" />
<path style="fill:none;stroke:#000;stroke-width:2" d="M793,203 l79,0" />
<path style="fill:none;stroke:#000;stroke-width:2" d="M833,459 l39,0" />

</svg>
