

<svg xmlns:agg="http://www.example.com" xmlns="http://www.w3.org/2000/svg" preserveAspectRatio="none" width="1.2452in" height="1.4792in" viewBox="0 0 841 999">

<path style="fill:#4c4c4c;stroke:#000;stroke-width:2" d="M749,597 l-79,0 0,196 16,0 0,138 47,0 0,-138 16,0 0,-196z" />
<path style="fill:#4c4c4c;stroke:#000;stroke-width:2" d="M332,597 l-79,0 0,196 16,0 0,138 47,0 0,-138 16,0 0,-196z" />
<path style="fill:#7f7f7f;stroke:#000;stroke-width:2" d="M671,951 l0,-20 55,0 0,20 -55,0z" />
<path style="fill:#7f7f7f;stroke:#000;stroke-width:2" d="M254,951 l0,-20 55,0 0,20 -55,0z" />
<path style="fill:#000;stroke:#000;stroke-width:2" d="M726,951 l0,-20 23,0 0,20 -23,0z" />
<path style="fill:#000;stroke:#000;stroke-width:2" d="M309,951 l0,-20 23,0 0,20 -23,0z" />
<path style="fill:#7f7f7f" d="M28,264 l0,314 196,196 196,39 197,-39 196,-196 0,-314 -118,-118 98,0 20,-59 -20,-59 -745,0 -20,59 20,59 98,0 -118,118z" />
<path style="fill:#949494" d="M95,263 l0,314 163,197 163,39 163,-39 163,-197 0,-314 -98,-117 81,0 17,-60 -17,-58 -619,0 -16,58 16,60 82,0 -98,117z" />
<path style="fill:#a8a8a8" d="M126,263 l0,314 147,197 148,39 147,-39 147,-197 0,-314 -88,-117 73,0 15,-60 -15,-58 -559,0 -15,58 15,60 73,0 -88,117z" />
<path style="fill:#bdbdbd" d="M185,263 l0,314 118,197 118,39 117,-39 118,-197 0,-314 -70,-117 59,0 11,-60 -11,-58 -448,0 -12,58 12,60 58,0 -70,117z" />
<path style="fill:#d1d1d1" d="M283,263 l0,314 69,197 69,39 68,-39 69,-197 0,-314 -41,-117 35,0 6,-60 -6,-58 -262,0 -7,58 7,60 34,0 -41,117z" />
<path style="fill:#e5e5e5" d="M381,264 l0,314 20,196 19,39 20,-39 20,-196 0,-314 -12,-118 10,0 2,-59 -2,-59 -75,0 -2,59 2,59 10,0 -12,118z" />
<path style="fill:none;stroke:#fff;stroke-width:2" d="M48,264 l765,0" />
<path style="fill:none;stroke:#666;stroke-width:2" d="M48,578 l745,0" />
<path style="fill:none;stroke:#666;stroke-width:2" d="M263,774 l314,0" />
<path style="fill:#4c4c4c" d="M755,205 l-60,-59 -549,0 -61,60 28,-11 30,-7 27,-5 31,-5 34,-4 36,-3 38,-3 41,-1 28,-1 28,-1 28,0 42,1 40,2 39,2 37,3 35,3 31,5 29,4 33,8 25,8 5,2 5,2z" />
<path style="fill:none;stroke:#000;stroke-width:2" d="M146,146 l549,0" />
<path style="fill:none;stroke:#000;stroke-width:2" d="M28,264 l0,314 196,196 196,39 197,-39 196,-196 0,-314 -118,-118 98,0 20,-59 -20,-59 -745,0 -20,59 20,59 98,0 -118,118" />
<path style="fill:#666" d="M165,690 l-98,-93 0,196 20,0 0,157 59,0 0,-157 19,0 0,-103z" />
<path style="fill:#b2b2b2;stroke:#000;stroke-width:2" d="M67,970 l0,-20 69,0 0,20 -69,0z" />
<path style="fill:#666;stroke:#000;stroke-width:2" d="M136,970 l0,-20 29,0 0,20 -29,0z" />
<path style="fill:#878787" d="M152,681 l-71,-69 0,181 14,0 0,157 43,0 0,-157 14,0 0,-112z" />
<path style="fill:#ababab" d="M140,671 l-46,-44 0,166 9,0 0,157 27,0 0,-157 10,0 0,-122z" />
<path style="fill:#ccc" d="M126,656 l-19,-20 0,157 3,0 0,157 12,0 0,-157 4,0 0,-137z" />
<path style="fill:none;stroke:#000;stroke-width:2" d="M165,690 l-98,-93 0,196 20,0 0,157 59,0 0,-157 19,0 0,-103" />
<path style="fill:none;stroke:#000;stroke-width:2" d="M87,793 l59,0" />
<path style="fill:#666" d="M612,597 l-99,5 0,191 20,0 0,157 59,0 0,-157 20,0 0,-196z" />
<path style="fill:#b2b2b2;stroke:#000;stroke-width:2" d="M514,970 l0,-20 68,0 0,20 -68,0z" />
<path style="fill:#666;stroke:#000;stroke-width:2" d="M582,970 l0,-20 30,0 0,20 -30,0z" />
<path style="fill:#878787" d="M599,597 l-72,5 0,191 14,0 0,157 44,0 0,-157 14,0 0,-196z" />
<path style="fill:#ababab" d="M587,602 l-47,0 0,191 9,0 0,157 28,0 0,-157 9,0 1,-191z" />
<path style="fill:#ccc" d="M572,602 l-19,0 0,191 4,0 0,157 12,0 0,-157 3,0 0,-191z" />
<path style="fill:none;stroke:#000;stroke-width:2" d="M612,597 l-99,5 0,191 20,0 0,157 59,0 0,-157 20,0 0,-196" />
<path style="fill:none;stroke:#000;stroke-width:2" d="M533,793 l59,0" />

</svg>
