

<svg xmlns:agg="http://www.example.com" xmlns="http://www.w3.org/2000/svg" preserveAspectRatio="none" width="2.0104in" height="1.2290in" viewBox="0 0 530 324">

<path style="fill:#4c4c4c" d="M34,23 l476,0 0,286 -476,0 0,-286z" />
<path style="fill:#666" d="M27,23 l471,0 0,286 -471,0 0,-286z" />
<path style="fill:#7f7f7f" d="M27,23 l445,0 0,286 -445,0 0,-286z" />
<path style="fill:#b2b2b2" d="M27,23 l402,0 0,286 -402,0 0,-286z" />
<path style="fill:#ccc" d="M27,23 l327,0 0,286 -327,0 0,-286z" />
<path style="fill:#e5e5e5" d="M27,23 l223,0 0,286 -223,0 0,-286z" />
<path style="fill:#fff" d="M27,23 l119,0 0,286 -119,0 0,-286z" />
<path style="fill:#e5e5e5" d="M27,23 l74,0 0,286 -74,0 0,-286z" />
<path style="fill:#ccc" d="M20,23 l37,0 0,286 -37,0 0,-286z" />
<path style="fill:none;stroke:#000;stroke-width:2" d="M20,23 l490,0 0,286 -490,0 0,-286" />
<path style="fill:#666" d="M15,305 l500,0 0,4 -500,0 0,-4z" />
<path style="fill:none;stroke:#e5e5e5;stroke-width:2" d="M27,305 l-12,0 0,4" />
<path style="fill:none;stroke:#e5e5e5;stroke-width:2" d="M515,305 l-488,0" />
<path style="fill:none;stroke:#000;stroke-width:2" d="M15,309 l500,0 0,-4" />
<path style="fill:#666" d="M15,23 l500,0 0,5 -500,0 0,-5z" />
<path style="fill:none;stroke:#e5e5e5;stroke-width:2" d="M27,23 l-12,0 0,5" />
<path style="fill:none;stroke:#e5e5e5;stroke-width:2" d="M515,23 l-488,0" />
<path style="fill:none;stroke:#000;stroke-width:2" d="M15,28 l500,0 0,-5" />
<path style="fill:none;stroke:#000;stroke-width:2" d="M20,17 l495,0" />
<path style="fill:none;stroke:#000;stroke-width:2" d="M26,22 l0,-5" />
<path style="fill:none;stroke:#000;stroke-width:2" d="M51,22 l0,-5" />
<path style="fill:none;stroke:#000;stroke-width:2" d="M76,22 l0,-5" />
<path style="fill:none;stroke:#000;stroke-width:2" d="M101,22 l0,-5" />
<path style="fill:none;stroke:#000;stroke-width:2" d="M126,22 l0,-5" />
<path style="fill:none;stroke:#000;stroke-width:2" d="M151,22 l0,-5" />
<path style="fill:none;stroke:#000;stroke-width:2" d="M176,22 l0,-5" />
<path style="fill:none;stroke:#000;stroke-width:2" d="M201,22 l0,-5" />
<path style="fill:none;stroke:#000;stroke-width:2" d="M226,22 l0,-5" />
<path style="fill:none;stroke:#000;stroke-width:2" d="M251,22 l0,-5" />
<path style="fill:none;stroke:#000;stroke-width:2" d="M276,22 l0,-5" />
<path style="fill:none;stroke:#000;stroke-width:2" d="M301,22 l0,-5" />
<path style="fill:none;stroke:#000;stroke-width:2" d="M326,22 l0,-5" />
<path style="fill:none;stroke:#000;stroke-width:2" d="M351,22 l0,-5" />
<path style="fill:none;stroke:#000;stroke-width:2" d="M376,22 l0,-5" />
<path style="fill:none;stroke:#000;stroke-width:2" d="M401,22 l0,-5" />
<path style="fill:none;stroke:#000;stroke-width:2" d="M426,22 l0,-5" />
<path style="fill:none;stroke:#000;stroke-width:2" d="M451,22 l0,-5" />
<path style="fill:none;stroke:#000;stroke-width:2" d="M476,22 l0,-5" />
<path style="fill:none;stroke:#000;stroke-width:2" d="M501,22 l0,-5" />
<path style="fill:#666;stroke:#000;stroke-width:2" d="M41,31 l-5,0 0,-2 5,0 0,2z" />
<path style="fill:#666;stroke:#000;stroke-width:2" d="M41,26 l-5,0 0,-3 5,0 0,3z" />
<path style="fill:#666;stroke:#000;stroke-width:2" d="M41,20 l-5,0 0,-2 5,0 0,2z" />
<path style="fill:#666;stroke:#000;stroke-width:2" d="M41,37 l-5,0 0,-3 5,0 0,3z" />
<path style="fill:#666;stroke:#000;stroke-width:2" d="M41,42 l-5,0 0,-2 5,0 0,2z" />
<path style="fill:#666;stroke:#000;stroke-width:2" d="M41,48 l-5,0 0,-3 5,0 0,3z" />
<path style="fill:#666;stroke:#000;stroke-width:2" d="M41,53 l-5,0 0,-2 5,0 0,2z" />
<path style="fill:#666;stroke:#000;stroke-width:2" d="M41,59 l-5,0 0,-3 5,0 0,3z" />
<path style="fill:#666;stroke:#000;stroke-width:2" d="M41,64 l-5,0 0,-2 5,0 0,2z" />
<path style="fill:#666;stroke:#000;stroke-width:2" d="M41,70 l-5,0 0,-3 5,0 0,3z" />
<path style="fill:#666;stroke:#000;stroke-width:2" d="M41,75 l-5,0 0,-2 5,0 0,2z" />
<path style="fill:#666;stroke:#000;stroke-width:2" d="M41,81 l-5,0 0,-3 5,0 0,3z" />
<path style="fill:#666;stroke:#000;stroke-width:2" d="M41,86 l-5,0 0,-2 5,0 0,2z" />
<path style="fill:#666;stroke:#000;stroke-width:2" d="M41,92 l-5,0 0,-3 5,0 0,3z" />
<path style="fill:#666;stroke:#000;stroke-width:2" d="M41,97 l-5,0 0,-2 5,0 0,2z" />
<path style="fill:#666;stroke:#000;stroke-width:2" d="M41,103 l-5,0 0,-3 5,0 0,3z" />
<path style="fill:#666;stroke:#000;stroke-width:2" d="M41,108 l-5,0 0,-2 5,0 0,2z" />
<path style="fill:#666;stroke:#000;stroke-width:2" d="M41,114 l-5,0 0,-3 5,0 0,3z" />
<path style="fill:#666;stroke:#000;stroke-width:2" d="M41,119 l-5,0 0,-2 5,0 0,2z" />
<path style="fill:#666;stroke:#000;stroke-width:2" d="M41,125 l-5,0 0,-3 5,0 0,3z" />
<path style="fill:#666;stroke:#000;stroke-width:2" d="M41,130 l-5,0 0,-2 5,0 0,2z" />
<path style="fill:#666;stroke:#000;stroke-width:2" d="M41,136 l-5,0 0,-3 5,0 0,3z" />
<path style="fill:#666;stroke:#000;stroke-width:2" d="M41,141 l-5,0 0,-2 5,0 0,2z" />
<path style="fill:#666;stroke:#000;stroke-width:2" d="M41,147 l-5,0 0,-3 5,0 0,3z" />
<path style="fill:#666;stroke:#000;stroke-width:2" d="M41,152 l-5,0 0,-2 5,0 0,2z" />
<path style="fill:#666;stroke:#000;stroke-width:2" d="M41,158 l-5,0 0,-3 5,0 0,3z" />
<path style="fill:#666;stroke:#000;stroke-width:2" d="M41,163 l-5,0 0,-2 5,0 0,2z" />
<path style="fill:#666;stroke:#000;stroke-width:2" d="M41,169 l-5,0 0,-3 5,0 0,3z" />
<path style="fill:#666;stroke:#000;stroke-width:2" d="M41,174 l-5,0 0,-2 5,0 0,2z" />
<path style="fill:#666;stroke:#000;stroke-width:2" d="M41,180 l-5,0 0,-3 5,0 0,3z" />
<path style="fill:#666;stroke:#000;stroke-width:2" d="M41,185 l-5,0 0,-2 5,0 0,2z" />
<path style="fill:#666;stroke:#000;stroke-width:2" d="M41,191 l-5,0 0,-3 5,0 0,3z" />
<path style="fill:#666;stroke:#000;stroke-width:2" d="M41,196 l-5,0 0,-2 5,0 0,2z" />
<path style="fill:#666;stroke:#000;stroke-width:2" d="M41,202 l-5,0 0,-3 5,0 0,3z" />
<path style="fill:#666;stroke:#000;stroke-width:2" d="M41,207 l-5,0 0,-2 5,0 0,2z" />
<path style="fill:#666;stroke:#000;stroke-width:2" d="M41,213 l-5,0 0,-3 5,0 0,3z" />
<path style="fill:#666;stroke:#000;stroke-width:2" d="M41,218 l-5,0 0,-2 5,0 0,2z" />
<path style="fill:#666;stroke:#000;stroke-width:2" d="M41,224 l-5,0 0,-3 5,0 0,3z" />
<path style="fill:#666;stroke:#000;stroke-width:2" d="M41,229 l-5,0 0,-2 5,0 0,2z" />
<path style="fill:#666;stroke:#000;stroke-width:2" d="M41,235 l-5,0 0,-3 5,0 0,3z" />
<path style="fill:#666;stroke:#000;stroke-width:2" d="M41,240 l-5,0 0,-2 5,0 0,2z" />
<path style="fill:#666;stroke:#000;stroke-width:2" d="M41,246 l-5,0 0,-3 5,0 0,3z" />
<path style="fill:#666;stroke:#000;stroke-width:2" d="M41,251 l-5,0 0,-2 5,0 0,2z" />
<path style="fill:#666;stroke:#000;stroke-width:2" d="M41,257 l-5,0 0,-3 5,0 0,3z" />
<path style="fill:#666;stroke:#000;stroke-width:2" d="M41,262 l-5,0 0,-2 5,0 0,2z" />
<path style="fill:#666;stroke:#000;stroke-width:2" d="M41,268 l-5,0 0,-3 5,0 0,3z" />
<path style="fill:#666;stroke:#000;stroke-width:2" d="M41,273 l-5,0 0,-2 5,0 0,2z" />
<path style="fill:#666;stroke:#000;stroke-width:2" d="M41,279 l-5,0 0,-3 5,0 0,3z" />
<path style="fill:#666;stroke:#000;stroke-width:2" d="M41,284 l-5,0 0,-2 5,0 0,2z" />
<path style="fill:#666;stroke:#000;stroke-width:2" d="M41,290 l-5,0 0,-3 5,0 0,3z" />
<path style="fill:#666;stroke:#000;stroke-width:2" d="M41,295 l-5,0 0,-2 5,0 0,2z" />
<path style="fill:#666;stroke:#000;stroke-width:2" d="M41,301 l-5,0 0,-3 5,0 0,3z" />
<path style="fill:#666;stroke:#000;stroke-width:2" d="M41,306 l-5,0 0,-2 5,0 0,2z" />
<path style="fill:#666;stroke:#000;stroke-width:2" d="M36,309 l-3,0 0,-294 3,0 0,294z" />
<path style="fill:#666;stroke:#000;stroke-width:2" d="M44,309 l-3,0 0,-294 3,0 0,294z" />

</svg>
