 

<svg xmlns:agg="http://www.example.com" xmlns="http://www.w3.org/2000/svg" preserveAspectRatio="none" width="0.5671in" height="1.0750in" viewBox="0 0 527 999">

<path style="fill:#ccc" d="M146,264 l235,0 0,78 -235,0 0,-78z" />
<path style="fill:#e5e5e5" d="M146,970 l0,-628 235,0 0,628 -235,0z" />
<path style="fill:#999" d="M160,264 l5,0 0,706 -5,0 0,-706z" />
<path style="fill:#999" d="M185,264 l5,0 0,706 -5,0 0,-706z" />
<path style="fill:#999" d="M209,264 l5,0 0,706 -5,0 0,-706z" />
<path style="fill:#999" d="M234,264 l5,0 0,706 -5,0 0,-706z" />
<path style="fill:#999" d="M259,264 l4,0 0,706 -4,0 0,-706z" />
<path style="fill:#999" d="M283,264 l5,0 0,706 -5,0 0,-706z" />
<path style="fill:#999" d="M308,264 l4,0 0,706 -4,0 0,-706z" />
<path style="fill:#999" d="M332,264 l5,0 0,706 -5,0 0,-706z" />
<path style="fill:#999" d="M357,264 l4,0 0,706 -4,0 0,-706z" />
<path style="fill:#f2f2f2" d="M367,264 l9,0 0,706 -9,0 0,-706z" />
<path style="fill:#f2f2f2" d="M342,264 l10,0 0,706 -10,0 0,-706z" />
<path style="fill:#f2f2f2" d="M317,264 l10,0 0,706 -10,0 0,-706z" />
<path style="fill:#f2f2f2" d="M293,264 l10,0 0,706 -10,0 0,-706z" />
<path style="fill:#f2f2f2" d="M268,264 l10,0 0,706 -10,0 0,-706z" />
<path style="fill:#f2f2f2" d="M244,264 l10,0 0,706 -10,0 0,-706z" />
<path style="fill:#f2f2f2" d="M219,264 l10,0 0,706 -10,0 0,-706z" />
<path style="fill:#f2f2f2" d="M195,264 l9,0 0,706 -9,0 0,-706z" />
<path style="fill:#f2f2f2" d="M170,264 l10,0 0,706 -10,0 0,-706z" />
<path style="fill:#f2f2f2" d="M146,264 l9,0 0,706 -9,0 0,-706z" />
<path style="fill:#ccc" d="M377,264 l4,0 0,706 -4,0 0,-706z" />
<path style="fill:#ccc" d="M352,264 l5,0 0,706 -5,0 0,-706z" />
<path style="fill:#ccc" d="M327,264 l5,0 0,706 -5,0 0,-706z" />
<path style="fill:#ccc" d="M303,264 l5,0 0,706 -5,0 0,-706z" />
<path style="fill:#ccc" d="M278,264 l5,0 0,706 -5,0 0,-706z" />
<path style="fill:#ccc" d="M254,264 l5,0 0,706 -5,0 0,-706z" />
<path style="fill:#ccc" d="M229,264 l5,0 0,706 -5,0 0,-706z" />
<path style="fill:#ccc" d="M205,264 l4,0 0,706 -4,0 0,-706z" />
<path style="fill:#ccc" d="M180,264 l5,0 0,706 -5,0 0,-706z" />
<path style="fill:#ccc" d="M156,264 l4,0 0,706 -4,0 0,-706z" />
<path style="fill:#b2b2b2" d="M28,224 l0,-157 118,-39 240,0 113,39 0,157 -471,0z" />
<path style="fill:#c2c2c2" d="M52,224 l0,-157 106,-39 216,0 101,39 0,157 -423,0z" />
<path style="fill:#d1d1d1" d="M67,224 l0,-157 98,-39 201,0 94,39 0,157 -393,0z" />
<path style="fill:#e0e0e0" d="M106,224 l0,-157 79,-39 161,0 75,39 0,157 -315,0z" />
<path style="fill:#f0f0f0" d="M155,224 l0,-157 54,-39 111,0 52,39 0,157 -217,0z" />
<path style="fill:#fff" d="M219,224 l0,-157 22,-39 46,0 21,39 0,157 -89,0z" />
<path style="fill:#999" d="M146,264 l-118,-40 471,0 -118,40 -235,0z" />
<path style="fill:#a8a8a8" d="M158,263 l-106,-39 423,0 -106,39 -211,0z" />
<path style="fill:#b8b8b8" d="M165,263 l-98,-39 393,0 -98,39 -197,0z" />
<path style="fill:#c7c7c7" d="M185,263 l-79,-39 315,0 -79,39 -157,0z" />
<path style="fill:#d6d6d6" d="M209,263 l-54,-39 217,0 -54,39 -109,0z" />
<path style="fill:#e5e5e5" d="M241,264 l-22,-40 89,0 -23,40 -44,0z" />
<path style="fill:#7f7f7f" d="M160,264 l5,0 0,78 -5,0 0,-78z" />
<path style="fill:#7f7f7f" d="M185,264 l5,0 0,78 -5,0 0,-78z" />
<path style="fill:#7f7f7f" d="M209,264 l5,0 0,78 -5,0 0,-78z" />
<path style="fill:#7f7f7f" d="M234,264 l5,0 0,78 -5,0 0,-78z" />
<path style="fill:#7f7f7f" d="M259,264 l4,0 0,78 -4,0 0,-78z" />
<path style="fill:#7f7f7f" d="M283,264 l5,0 0,78 -5,0 0,-78z" />
<path style="fill:#7f7f7f" d="M308,264 l4,0 0,78 -4,0 0,-78z" />
<path style="fill:#7f7f7f" d="M332,264 l5,0 0,78 -5,0 0,-78z" />
<path style="fill:#7f7f7f" d="M357,264 l4,0 0,78 -4,0 0,-78z" />
<path style="fill:#e5e5e5" d="M367,264 l9,0 0,78 -9,0 0,-78z" />
<path style="fill:#e5e5e5" d="M342,264 l10,0 0,78 -10,0 0,-78z" />
<path style="fill:#e5e5e5" d="M317,264 l10,0 0,78 -10,0 0,-78z" />
<path style="fill:#e5e5e5" d="M293,264 l10,0 0,78 -10,0 0,-78z" />
<path style="fill:#e5e5e5" d="M268,264 l10,0 0,78 -10,0 0,-78z" />
<path style="fill:#e5e5e5" d="M244,264 l10,0 0,78 -10,0 0,-78z" />
<path style="fill:#e5e5e5" d="M219,264 l10,0 0,78 -10,0 0,-78z" />
<path style="fill:#e5e5e5" d="M195,264 l9,0 0,78 -9,0 0,-78z" />
<path style="fill:#e5e5e5" d="M170,264 l10,0 0,78 -10,0 0,-78z" />
<path style="fill:#e5e5e5" d="M146,264 l9,0 0,78 -9,0 0,-78z" />
<path style="fill:#b2b2b2" d="M377,264 l4,0 0,78 -4,0 0,-78z" />
<path style="fill:#b2b2b2" d="M352,264 l5,0 0,78 -5,0 0,-78z" />
<path style="fill:#b2b2b2" d="M327,264 l5,0 0,78 -5,0 0,-78z" />
<path style="fill:#b2b2b2" d="M303,264 l5,0 0,78 -5,0 0,-78z" />
<path style="fill:#b2b2b2" d="M278,264 l5,0 0,78 -5,0 0,-78z" />
<path style="fill:#b2b2b2" d="M254,264 l5,0 0,78 -5,0 0,-78z" />
<path style="fill:#b2b2b2" d="M229,264 l5,0 0,78 -5,0 0,-78z" />
<path style="fill:#b2b2b2" d="M205,264 l4,0 0,78 -4,0 0,-78z" />
<path style="fill:#b2b2b2" d="M180,264 l5,0 0,78 -5,0 0,-78z" />
<path style="fill:#b2b2b2" d="M156,264 l4,0 0,78 -4,0 0,-78z" />
<path style="fill:none;stroke:#000;stroke-width:2" d="M146,970 l0,-706 -118,-40 0,-157 118,-39 235,0 118,39 0,157 -118,40 0,706 -235,0" />
<path style="fill:none;stroke:#b2b2b2;stroke-width:2" d="M48,67 l431,0" />
<path style="fill:none;stroke:#b2b2b2;stroke-width:2" d="M48,224 l431,0" />

</svg>
