

<svg xmlns:agg="http://www.example.com" xmlns="http://www.w3.org/2000/svg" preserveAspectRatio="none" width="1.7162in" height="1.4792in" viewBox="0 0 999 861">

<path style="fill:#194c4c;stroke:#000;stroke-width:2" d="M146,578 l726,0 0,59 -726,0 0,-59z" />
<path style="fill:#000;stroke:#000;stroke-width:2" d="M185,637 l648,0 0,137 -648,0 0,-137z" />
<path style="fill:#4c4c4c" d="M106,67 l-23,12 -18,25 -11,29 -8,27 -7,30 -5,33 -4,36 -2,37 0,13 0,13 1,39 2,37 5,35 5,32 7,29 8,25 13,28 18,22 15,8 4,1 825,0 0,-511 -825,0z" />
<path style="fill:#666" d="M106,106 l-23,10 -18,22 -11,25 -11,30 -6,26 -5,29 -3,31 -1,21 0,11 0,11 1,33 2,32 5,29 5,27 10,32 11,27 17,23 23,13 4,0 825,0 0,-432 -825,0z" />
<path style="fill:#7f7f7f" d="M106,165 l-30,12 -20,24 -15,33 -7,27 -5,30 -1,31 1,32 5,29 7,27 15,34 20,23 30,13 825,0 0,-315 -825,0z" />
<path style="fill:#999" d="M106,185 l-30,11 -20,21 -15,29 -10,36 -3,27 0,13 1,28 5,26 12,33 16,27 21,17 23,7 825,0 0,-275 -825,0z" />
<path style="fill:#b2b2b2" d="M106,264 l-30,4 -25,13 -20,24 -3,17 9,28 25,21 29,9 15,1 825,0 0,-117 -825,0z" />
<path style="fill:none;stroke:#000;stroke-width:2" d="M106,67 l-23,12 -18,25 -11,29 -8,27 -7,30 -5,33 -4,36 -2,37 0,13 0,13 1,39 2,37 5,35 5,32 7,29 8,25 13,28 18,22 15,8 4,1 825,0 0,-511 -825,0" />
<ellipse style="fill:#7f7f7f;stroke:#000;stroke-width:2" cx="931" cy="322" rx="20" ry="255" />
<path style="fill:#ccc;stroke:#000;stroke-width:2" d="M106,48 l20,0 0,549 -20,0 0,-549z" />
<path style="fill:#999;stroke:#000;stroke-width:2" d="M185,48 l20,0 0,549 -20,0 0,-549z" />
<path style="fill:#999;stroke:#000;stroke-width:2" d="M263,48 l20,0 0,549 -20,0 0,-549z" />
<path style="fill:#999;stroke:#000;stroke-width:2" d="M342,48 l20,0 0,549 -20,0 0,-549z" />
<path style="fill:#999;stroke:#000;stroke-width:2" d="M420,48 l20,0 0,549 -20,0 0,-549z" />
<path style="fill:#999;stroke:#000;stroke-width:2" d="M499,48 l20,0 0,549 -20,0 0,-549z" />
<path style="fill:#999;stroke:#000;stroke-width:2" d="M578,48 l19,0 0,549 -19,0 0,-549z" />
<path style="fill:#999;stroke:#000;stroke-width:2" d="M656,48 l20,0 0,549 -20,0 0,-549z" />
<path style="fill:#999;stroke:#000;stroke-width:2" d="M735,48 l19,0 0,549 -19,0 0,-549z" />
<path style="fill:#999;stroke:#000;stroke-width:2" d="M813,48 l20,0 0,549 -20,0 0,-549z" />
<path style="fill:#ccc;stroke:#000;stroke-width:2" d="M892,48 l19,0 0,549 -19,0 0,-549z" />
<path style="fill:#c2cccc;stroke:#000;stroke-width:2" d="M715,224 l157,0 0,98 -157,0 0,-98z" />
<path style="fill:#eff2f2;stroke:#000;stroke-width:2" d="M833,224 l0,20 -98,0 0,59 98,0 0,19 -118,0 0,-98 118,0z" />
<path style="fill:#a6a6a6;stroke:#000;stroke-width:2" d="M519,558 l59,0 0,118 -59,0 0,-118z" />
<path style="fill:#a6a6a6;stroke:#000;stroke-width:2" d="M205,558 l58,0 0,118 -58,0 0,-118z" />
<path style="fill:#a6a694;stroke:#000;stroke-width:2" d="M146,676 l176,0 0,59 -176,0 0,-59z" />
<path style="fill:#366;stroke:#000;stroke-width:2" d="M165,735 l354,0 0,78 -354,0 0,-78z" />
<path style="fill:#194c4c;stroke:#000;stroke-width:2" d="M499,754 l393,0 0,79 -393,0 0,-79z" />
<path style="fill:#ccccc2;stroke:#000;stroke-width:2" d="M381,676 l373,0 0,78 -373,0 0,-78z" />
<path style="fill:#7f7f7f;stroke:#000;stroke-width:2" d="M362,617 l58,0 0,118 -58,0 0,-118z" />
<path style="fill:#4c4c4c" d="M146,695 l176,0 0,20 -176,0 0,-20z" />
<path style="fill:#a3b2b2;stroke:#000;stroke-width:2" d="M479,813 l432,0 0,20 -432,0 0,-20z" />
<path style="fill:#a3b2b2;stroke:#000;stroke-width:2" d="M479,754 l432,0 0,20 -432,0 0,-20z" />
<path style="fill:#000;stroke:#000;stroke-width:2" d="M237,41 l0,26 13,0 0,-26 13,0 0,-13 -39,0 0,13 13,0z" />
<path style="fill:#000;stroke:#000;stroke-width:2" d="M768,41 l0,26 13,0 0,-26 13,0 0,-13 -40,0 0,13 14,0z" />
<path style="fill:#e5e5e5;stroke:#000;stroke-width:2" d="M957,139 l-26,0 0,13 26,0 0,13 13,0 0,-39 -13,0 0,13z" />
<path style="fill:#e5e5e5;stroke:#000;stroke-width:2" d="M957,493 l-26,0 0,13 26,0 0,13 13,0 0,-39 -13,0 0,13z" />

</svg>
