

<svg xmlns:agg="http://www.example.com" xmlns="http://www.w3.org/2000/svg" preserveAspectRatio="none" width="2.0104in" height="1.0243in" viewBox="0 0 999 509">

<path style="fill:#7f7f7f;stroke:#000;stroke-width:2" d="M269,424 l-61,0 121,57 0,-30 -60,-27z" />
<path style="fill:#7f7f7f;stroke:#000;stroke-width:2" d="M780,424 l-61,0 121,57 0,-30 -60,-27z" />
<path style="fill:#b2b2b2;stroke:#000;stroke-width:2" d="M240,424 l-62,0 121,57 0,-30 -59,-27z" />
<path style="fill:#b2b2b2;stroke:#000;stroke-width:2" d="M751,424 l-64,0 123,57 0,-30 -59,-27z" />
<path style="fill:#e0e0e0;stroke:#000;stroke-width:2" d="M893,424 l16,-4 14,-10 14,-18 12,-20 7,-25 9,-30 3,-34 2,-36 -2,-33 -3,-34 -9,-30 -7,-25 -12,-20 -14,-18 -14,-10 -16,-4 0,351z" />
<path style="fill:#e5e5e5" d="M133,73 l12,4 17,26 8,22 8,25 4,30 4,34 0,69 -4,34 -4,30 -8,25 -16,38 -9,10 -12,4 756,0 10,-4 20,-26 8,-22 6,-25 6,-30 2,-34 2,-33 -2,-36 -2,-34 -6,-30 -6,-25 -18,-38 -10,-10 -10,-4 -756,0z" />
<path style="fill:#e5e5e5;stroke:#000;stroke-width:2" d="M128,73 l-19,2 -38,28 -14,22 -14,25 -8,30 -5,34 -2,36 2,33 5,34 8,30 14,25 14,22 38,28 21,4 10,-4 20,-28 8,-20 6,-27 6,-30 2,-32 2,-35 -2,-36 -2,-34 -6,-30 -6,-25 -18,-38 -10,-10 -12,-4z" />
<path style="fill:#b2b2b2" d="M61,291 l20,36 26,31 20,4 25,-2 24,-25 -8,39 -8,20 -10,18 -10,10 -10,4 -21,-4 -20,-12 -18,-16 -14,-22 -14,-25 -8,-30 -5,-34 -2,-33 2,-36 5,-34 7,-22 0,4 1,58 6,35 12,36z" />
<path style="fill:#b2b2b2" d="M927,368 l-755,0 -2,4 -8,22 -8,16 -9,10 -12,4 756,0 10,-4 10,-10 10,-16 8,-22 0,-4z" />
<path style="fill:#ccc" d="M927,368 l-755,0 6,-21 2,-14 755,0 -2,14 -6,21z" />
<path style="fill:#ccc" d="M160,99 l755,0 -6,-12 -10,-10 -10,-4 -756,0 12,4 9,10 6,12z" />
<path style="fill:none;stroke:#000;stroke-width:2" d="M133,73 l12,4 17,26 8,22 8,25 4,30 4,34 0,69 -4,34 -4,30 -8,25 -16,38 -9,10 -12,4 756,0 10,-4 20,-26 8,-22 6,-25 6,-30 2,-34 2,-33 -2,-36 -2,-34 -6,-30 -6,-25 -18,-38 -10,-10 -10,-4 -756,0" />
<path style="fill:#ccc;stroke:#000;stroke-width:2" d="M303,279 l32,0 0,174 -32,0 0,-174z" />
<path style="fill:#ccc;stroke:#000;stroke-width:2" d="M812,279 l34,0 0,174 -34,0 0,-174z" />
<path style="fill:#ccc;stroke:#000;stroke-width:2" d="M299,481 l8,0 0,-28 -8,0 0,28z" />
<path style="fill:#ccc;stroke:#000;stroke-width:2" d="M810,481 l6,0 0,-28 -6,0 0,28z" />
<path style="fill:#ccc;stroke:#000;stroke-width:2" d="M329,481 l6,0 0,-28 -6,0 0,28z" />
<path style="fill:#ccc;stroke:#000;stroke-width:2" d="M840,481 l6,0 0,-28 -6,0 0,28z" />
<path style="fill:#b2b2b2;stroke:#000;stroke-width:2" d="M299,277 l-2,8 -2,32 -4,30 -6,27 -8,20 -8,18 -10,10 -9,4 -8,-2 61,27 0,-172 -4,-2z" />
<path style="fill:#b2b2b2;stroke:#000;stroke-width:2" d="M808,277 l0,8 -2,32 -6,30 -6,27 -6,20 -10,18 -8,10 -12,4 -5,-2 59,27 0,-172 -4,-2z" />
<path style="fill:#fff" d="M923,119 l-753,0 2,6 4,10 751,0 -2,-10 -2,-6z" />
<path style="fill:#b2b2b2;stroke:#000;stroke-width:2" d="M297,279 l24,0 -38,-206 -40,0 12,4 10,10 8,16 8,22 6,25 6,30 4,34 0,36 0,29z" />
<path style="fill:#b2b2b2;stroke:#000;stroke-width:2" d="M808,279 l24,0 -40,-206 -37,0 10,4 9,10 10,16 8,22 6,25 6,30 2,34 2,36 0,29z" />
<path style="fill:#e5e5e5;stroke:#000;stroke-width:2" d="M301,279 l34,0 0,-36 0,-35 -4,-32 -4,-29 -8,-26 -8,-22 -8,-16 -10,-12 -12,-2 -34,0 -4,2 16,2 10,10 10,16 8,22 6,26 4,29 4,32 2,35 -2,36z" />
<path style="fill:#e5e5e5;stroke:#000;stroke-width:2" d="M812,279 l34,0 0,-36 -2,-35 -2,-32 -6,-29 -6,-26 -8,-22 -10,-16 -10,-12 -10,-2 -34,0 -3,2 13,2 12,10 8,16 8,22 6,26 6,29 4,32 0,35 0,36z" />
<path style="fill:#ccc" d="M443,73 l145,0 0,-18 -145,0 0,18z" />
<path style="fill:#b2b2b2" d="M443,73 l7,0 0,-18 -7,0 0,18z" />
<path style="fill:#b2b2b2" d="M576,73 l12,0 0,-18 -12,0 0,18z" />
<path style="fill:#f0f0f0" d="M418,43 l196,0 0,12 -196,0 0,-12z" />
<path style="fill:#f0f0f0" d="M418,43 l196,0 0,-11 -196,0 0,11z" />
<path style="fill:#fff" d="M445,43 l6,0 0,12 -6,0 0,-12z" />
<path style="fill:#fff" d="M445,43 l6,0 0,-11 -6,0 0,11z" />
<path style="fill:#b2b2b2" d="M576,43 l38,0 0,12 -38,0 0,-12z" />
<path style="fill:#b2b2b2" d="M576,43 l38,0 0,-11 -38,0 0,11z" />
<path style="fill:#b2b2b2" d="M418,43 l14,0 0,12 -14,0 0,-12z" />
<path style="fill:#b2b2b2" d="M418,43 l14,0 0,-11 -14,0 0,11z" />
<path style="fill:#f0f0f0;stroke:#000;stroke-width:2" d="M422,59 l8,0 0,-4 -8,0 0,4z" />
<path style="fill:#f0f0f0;stroke:#000;stroke-width:2" d="M448,59 l5,0 0,-4 -5,0 0,4z" />
<path style="fill:#f0f0f0;stroke:#000;stroke-width:2" d="M473,59 l6,0 0,-4 -6,0 0,4z" />
<path style="fill:#f0f0f0;stroke:#000;stroke-width:2" d="M499,59 l6,0 0,-4 -6,0 0,4z" />
<path style="fill:#f0f0f0;stroke:#000;stroke-width:2" d="M525,59 l6,0 0,-4 -6,0 0,4z" />
<path style="fill:#f0f0f0;stroke:#000;stroke-width:2" d="M548,59 l8,0 0,-4 -8,0 0,4z" />
<path style="fill:#f0f0f0;stroke:#000;stroke-width:2" d="M574,59 l8,0 0,-4 -8,0 0,4z" />
<path style="fill:#f0f0f0;stroke:#000;stroke-width:2" d="M600,59 l8,0 0,-4 -8,0 0,4z" />
<path style="fill:#f0f0f0;stroke:#000;stroke-width:2" d="M422,28 l8,0 0,4 -8,0 0,-4z" />
<path style="fill:#f0f0f0;stroke:#000;stroke-width:2" d="M448,28 l5,0 0,4 -5,0 0,-4z" />
<path style="fill:#f0f0f0;stroke:#000;stroke-width:2" d="M473,28 l6,0 0,4 -6,0 0,-4z" />
<path style="fill:#f0f0f0;stroke:#000;stroke-width:2" d="M499,28 l6,0 0,4 -6,0 0,-4z" />
<path style="fill:#f0f0f0;stroke:#000;stroke-width:2" d="M525,28 l6,0 0,4 -6,0 0,-4z" />
<path style="fill:#f0f0f0;stroke:#000;stroke-width:2" d="M548,28 l8,0 0,4 -8,0 0,-4z" />
<path style="fill:#f0f0f0;stroke:#000;stroke-width:2" d="M574,28 l8,0 0,4 -8,0 0,-4z" />
<path style="fill:#f0f0f0;stroke:#000;stroke-width:2" d="M600,28 l8,0 0,4 -8,0 0,-4z" />
<path style="fill:none;stroke:#000;stroke-width:2" d="M418,43 l196,0 0,12 -196,0 0,-12" />
<path style="fill:none;stroke:#000;stroke-width:2" d="M418,43 l196,0 0,-11 -196,0 0,11" />
<path style="fill:none;stroke:#000;stroke-width:2" d="M443,73 l145,0 0,-18 -145,0 0,18" />

</svg>
