

<svg xmlns:agg="http://www.example.com" xmlns="http://www.w3.org/2000/svg" preserveAspectRatio="none" width="0.8247in" height="1.4792in" viewBox="0 0 557 999">

<path style="fill:#999" d="M416,597 l0,69 98,0 0,15 15,0 0,-98 -15,0 0,14 -98,0z" />
<path style="fill:#b2b2b2" d="M416,607 l0,6 -1,6 0,6 0,18 1,12 18,0 12,0 43,0 13,0 12,0 0,10 0,1 2,0 9,0 2,0 2,0 0,-5 -1,-12 0,-35 1,-13 0,-4 -2,0 -2,0 -2,0 -9,0 0,10 -19,0 -12,0 -43,0 -12,0 -12,0z" />
<path style="fill:#ccc" d="M416,618 l0,27 98,0 0,6 15,0 0,-39 -15,0 0,6 -98,0z" />
<path style="fill:none;stroke:#000;stroke-width:2" d="M416,597 l0,69 98,0 0,15 15,0 0,-98 -15,0 0,14 -98,0" />
<path style="fill:none;stroke:#000;stroke-width:2" d="M514,666 l0,-69" />
<path style="fill:#999" d="M303,755 l-69,0 0,98 -15,0 0,14 98,0 0,-14 -14,0 0,-98z" />
<path style="fill:#b2b2b2" d="M293,754 l-6,0 -6,0 -6,0 -18,0 -12,0 0,19 0,12 0,43 0,12 0,12 -10,0 -1,0 0,2 0,9 0,2 0,2 5,0 12,0 35,0 13,0 4,0 0,-2 0,-2 0,-1 0,-10 -10,0 0,-18 0,-12 0,-43 0,-12 0,-13z" />
<path style="fill:#ccc" d="M282,755 l-27,0 0,98 -6,0 0,14 39,0 0,-14 -6,0 0,-98z" />
<path style="fill:none;stroke:#000;stroke-width:2" d="M303,755 l-69,0 0,98 -15,0 0,14 98,0 0,-14 -14,0 0,-98" />
<path style="fill:none;stroke:#000;stroke-width:2" d="M234,853 l69,0" />
<path style="fill:#7f7f7f;stroke:#000;stroke-width:2" d="M62,688 l412,0 0,9 -412,0 0,-9z" />
<path style="fill:#7f7f7f;stroke:#000;stroke-width:2" d="M57,345 l417,0 0,5 -417,0 0,-5z" />
<path style="fill:#ccc;stroke:#000;stroke-width:2" d="M60,296 l-24,24 0,642 24,0 0,-666z" />
<path style="fill:#ccc;stroke:#000;stroke-width:2" d="M60,895 l0,-14 412,0 0,14 -412,0z" />
<path style="fill:#ccc;stroke:#000;stroke-width:2" d="M472,296 l24,24 0,642 -24,0 0,-666z" />
<path style="fill:#ccc;stroke:#000;stroke-width:2" d="M464,970 l40,0 0,-8 -40,0 0,8z" />
<path style="fill:#ccc;stroke:#000;stroke-width:2" d="M68,970 l-40,0 0,-8 40,0 0,8z" />
<path style="fill:#7f7f7f" d="M354,165 l33,5 29,14 24,22 16,27 8,32 1,12 0,428 -4,27 -12,25 -18,22 -24,20 -29,16 -33,12 -37,8 -19,2 -21,1 -20,-1 -38,-5 -35,-10 -31,-15 -27,-18 -21,-21 -15,-23 -8,-26 -1,-14 0,-428 5,-33 14,-30 21,-23 28,-17 31,-8 12,-1 2,-39 167,0 2,39z" />
<path style="fill:#919191" d="M338,165 l27,5 23,14 19,21 13,28 7,32 0,38 0,54 0,13 0,14 0,227 0,40 0,54 -7,39 -12,24 -17,21 -22,18 -25,14 -28,10 -31,6 -16,0 -16,0 -31,-6 -29,-10 -25,-14 -21,-18 -17,-21 -12,-24 -7,-25 -1,-14 0,-13 0,-67 1,-41 0,-214 -1,-40 0,-53 4,-34 11,-29 18,-24 22,-16 26,-9 9,0 1,-30 0,-10 26,0 8,0 9,0 58,0 34,0 2,30 0,10z" />
<path style="fill:#a6a6a6" d="M321,165 l27,9 21,23 12,26 6,31 2,36 0,67 0,13 0,14 0,227 0,40 0,54 -6,39 -9,24 -20,30 -28,23 -33,14 -12,2 -12,0 -13,0 -34,-10 -30,-20 -23,-28 -11,-23 -7,-25 -2,-12 -1,-14 0,-13 0,-67 1,-41 0,-214 -1,-40 0,-53 4,-34 8,-29 13,-24 23,-20 20,-5 2,-30 0,-10 19,0 6,0 7,0 44,0 26,0 1,30 0,10z" />
<path style="fill:#b8b8b8" d="M305,165 l22,13 13,27 7,28 3,32 1,38 0,54 0,13 0,14 0,227 0,40 0,54 -4,39 -10,35 -16,28 -20,20 -24,10 -8,0 -9,0 -23,-10 -20,-20 -16,-28 -10,-35 -4,-25 0,-14 0,-13 0,-67 0,-41 0,-214 0,-40 0,-53 2,-34 6,-29 12,-30 21,-19 5,0 1,-30 0,-10 13,0 4,0 5,0 30,0 17,0 2,30 0,10z" />
<path style="fill:#ccc" d="M288,165 l15,26 7,32 2,31 0,11 0,12 0,428 -1,40 -6,34 -9,28 -14,25 -9,5 -5,1 -4,-1 -20,-22 -10,-26 -6,-32 -3,-38 -1,-14 0,-428 2,-33 3,-30 6,-30 14,-19 1,-39 37,0 1,39z" />
<path style="fill:none;stroke:#000;stroke-width:2" d="M354,165 l33,5 29,14 24,22 16,27 8,32 1,12 0,428 -4,27 -12,25 -18,22 -24,20 -29,16 -33,12 -37,8 -19,2 -21,1 -20,-1 -38,-5 -35,-10 -31,-15 -27,-18 -21,-21 -15,-23 -8,-26 -1,-14 0,-428 5,-33 14,-30 21,-23 28,-17 31,-8 12,-1 2,-39 167,0 2,39" />
<path style="fill:none;stroke:#000;stroke-width:2" d="M185,165 l167,0" />
<path style="fill:#7f7f7f;stroke:#000;stroke-width:2" d="M376,126 l25,0 0,15 -25,0 0,-15z" />
<path style="fill:#7f7f7f;stroke:#000;stroke-width:2" d="M328,126 l25,0 0,15 -25,0 0,-15z" />
<path style="fill:#7f7f7f;stroke:#000;stroke-width:2" d="M280,126 l25,0 0,15 -25,0 0,-15z" />
<path style="fill:#7f7f7f;stroke:#000;stroke-width:2" d="M232,126 l24,0 0,15 -24,0 0,-15z" />
<path style="fill:#7f7f7f;stroke:#000;stroke-width:2" d="M184,126 l24,0 0,15 -24,0 0,-15z" />
<path style="fill:#7f7f7f;stroke:#000;stroke-width:2" d="M136,126 l24,0 0,15 -24,0 0,-15z" />
<path style="fill:#7f7f7f" d="M411,126 l0,-20 -1,0 -32,-3 -30,-1 -37,0 -14,-1 -14,0 -43,0 -39,1 -33,1 -31,1 -10,2 -1,0 0,20 1,0 32,3 30,1 37,1 14,0 14,0 43,0 39,-1 33,-1 30,-1 11,-2 1,0z" />
<path style="fill:#999" d="M373,125 l0,-2 1,-3 0,-2 -1,-9 0,-3 0,-1 -12,-2 -12,0 -14,-1 -16,0 -9,-1 -10,0 -10,0 -11,0 -31,0 -10,0 -10,0 -9,1 -17,0 -14,1 -11,0 -11,2 -1,0 -1,1 0,3 0,9 0,7 1,1 12,2 11,1 14,0 17,1 9,0 10,0 10,1 10,0 32,0 10,-1 10,0 9,0 16,-1 14,0 12,-1 10,-2 2,0 0,-1z" />
<path style="fill:#b2b2b2" d="M336,125 l0,-2 0,-3 0,-2 0,-9 0,-3 -1,-1 -11,-2 -13,-1 -11,0 -11,-1 -7,0 -6,0 -21,0 -12,0 -12,1 -9,1 -12,0 -8,2 0,1 0,3 0,9 0,7 0,1 11,2 13,1 11,1 12,0 6,1 7,0 20,0 13,-1 11,0 10,-1 11,-1 8,-2 1,-1z" />
<path style="fill:#ccc" d="M298,126 l0,-20 -1,-1 -12,-3 -11,-1 -12,0 -10,1 -11,2 -1,1 -1,1 0,20 1,1 12,3 10,1 12,0 11,-1 10,-2 2,-1 1,-1z" />
<path style="fill:none;stroke:#000;stroke-width:2" d="M411,126 l0,-20 -1,0 -32,-3 -30,-1 -37,0 -14,-1 -14,0 -43,0 -39,1 -33,1 -31,1 -10,2 -1,0 0,20 1,0 32,3 30,1 37,1 14,0 14,0 43,0 39,-1 33,-1 30,-1 11,-2 1,0" />
<ellipse style="fill:#7f7f7f;stroke:#000;stroke-width:2" cx="268" cy="106" rx="142" ry="5" />
<path style="fill:#000" d="M188,28 l19,0 0,81 -19,0 0,-81z" />
<path style="fill:#000" d="M328,28 l19,0 0,81 -19,0 0,-81z" />
<path style="fill:#000" d="M263,41 l14,0 0,65 -14,0 0,-65z" />
<path style="fill:#000" d="M157,28 l77,0 0,0 0,10 0,0 0,0 -77,0 -1,0 0,0 0,-10 1,0z" />
<path style="fill:#000" d="M300,28 l76,0 1,0 0,10 0,0 -1,0 -76,0 -1,0 0,0 0,-10 1,0z" />
<path style="fill:#000" d="M239,40 l61,0 0,7 -61,0 0,-7z" />

</svg>
