 

<svg xmlns:agg="http://www.example.com" xmlns="http://www.w3.org/2000/svg" preserveAspectRatio="none" width="1.5655in" height="1.0750in" viewBox="0 0 999 686">

<path style="fill:#366" d="M961,186 l-924,0 0,403 32,19 61,19 86,15 106,10 117,5 120,0 117,-5 106,-10 86,-15 61,-19 32,-19 0,-403z" />
<path style="fill:#386b6b" d="M935,186 l-872,0 0,407 31,19 56,17 81,13 100,10 112,5 112,0 112,-5 100,-10 81,-13 56,-17 31,-19 0,-407z" />
<path style="fill:#407373" d="M910,186 l-820,0 0,411 26,17 55,15 77,13 93,10 103,5 110,0 103,-5 93,-10 77,-13 55,-15 28,-17 0,-411z" />
<path style="fill:#457878" d="M884,186 l-770,0 0,415 27,17 51,13 71,13 87,8 98,5 102,0 98,-5 87,-8 71,-13 51,-13 27,-17 0,-415z" />
<path style="fill:#4a7d7d" d="M857,186 l-716,0 0,419 24,15 47,13 66,11 83,10 91,3 94,0 91,-3 83,-10 66,-11 47,-13 24,-15 0,-419z" />
<path style="fill:#528585" d="M833,186 l-668,0 0,422 23,16 45,11 62,11 76,8 85,3 86,0 85,-3 76,-8 64,-11 43,-11 23,-16 0,-422z" />
<path style="fill:#578a8a" d="M806,186 l-614,0 0,426 20,13 40,12 59,9 69,8 79,3 82,0 77,-3 69,-8 59,-9 40,-12 20,-13 0,-426z" />
<path style="fill:#5c8f8f" d="M782,186 l-566,0 0,430 21,13 36,9 52,10 65,6 71,3 76,0 71,-3 65,-6 52,-10 36,-9 21,-13 0,-430z" />
<path style="fill:#639696" d="M755,186 l-512,0 0,434 17,11 33,9 50,8 58,6 64,3 68,0 66,-3 56,-6 50,-8 33,-9 17,-11 0,-434z" />
<path style="fill:#699c9c" d="M731,186 l-462,0 0,439 15,10 30,7 44,8 52,4 59,3 60,0 59,-3 52,-4 44,-8 30,-7 17,-10 0,-439z" />
<path style="fill:#70a3a3" d="M705,186 l-412,0 0,443 16,8 26,7 38,6 47,4 53,3 52,0 53,-3 47,-4 38,-6 28,-7 14,-8 0,-443z" />
<path style="fill:#75a8a8" d="M678,186 l-358,0 0,447 11,5 25,8 34,6 39,3 47,2 48,0 45,-2 41,-3 32,-6 25,-8 11,-5 0,-447z" />
<path style="fill:#7aadad" d="M654,186 l-310,0 0,451 12,5 20,6 29,4 36,3 37,2 42,0 39,-2 34,-3 31,-4 18,-6 12,-5 0,-451z" />
<path style="fill:#82b5b5" d="M627,186 l-256,0 0,454 9,4 15,6 25,4 30,1 32,2 34,0 32,-2 30,-1 25,-4 17,-6 7,-4 0,-454z" />
<path style="fill:#87baba" d="M603,186 l-206,0 0,458 6,4 13,4 21,2 22,1 27,2 26,0 27,-2 24,-1 19,-2 13,-4 8,-4 0,-458z" />
<path style="fill:#8cbfbf" d="M576,186 l-154,0 0,462 5,2 10,4 15,0 17,1 21,2 18,0 21,-2 17,-1 15,0 10,-4 5,-2 0,-462z" />
<path style="fill:#94c7c7" d="M550,186 l-102,0 0,466 4,2 5,0 10,1 13,0 12,2 14,0 14,-2 11,0 10,-1 7,0 2,-2 0,-466z" />
<path style="fill:#9cc" d="M525,186 l-52,0 0,471 1,0 4,0 6,0 6,0 5,0 8,0 5,0 6,0 6,0 4,0 1,0 0,-471z" />
<path style="fill:none;stroke:#000;stroke-width:2" d="M961,186 l-924,0 0,403 32,19 61,19 86,15 106,10 117,5 120,0 117,-5 106,-10 86,-15 61,-19 32,-19 0,-403" />
<path style="fill:#033" d="M961,186 l0,236 -658,-236 658,0z" />
<path style="fill:#053838" d="M935,186 l0,226 -632,-226 632,0z" />
<path style="fill:#0d4040" d="M910,186 l0,217 -607,-217 607,0z" />
<path style="fill:#124545" d="M884,186 l0,207 -581,-207 581,0z" />
<path style="fill:#174a4a" d="M859,186 l0,200 -556,-200 556,0z" />
<path style="fill:#1f5252" d="M835,186 l0,190 -532,-190 532,0z" />
<path style="fill:#245757" d="M808,186 l0,181 -505,-181 505,0z" />
<path style="fill:#295c5c" d="M784,186 l0,172 -481,-172 481,0z" />
<path style="fill:#306363" d="M757,186 l0,162 -454,-162 454,0z" />
<path style="fill:#366969" d="M733,186 l0,153 -430,-153 430,0z" />
<path style="fill:#3d7070" d="M706,186 l0,145 -403,-145 403,0z" />
<path style="fill:#427575" d="M682,186 l0,136 -379,-136 379,0z" />
<path style="fill:#477a7a" d="M655,186 l0,126 -352,-126 352,0z" />
<path style="fill:#4f8282" d="M631,186 l0,117 -328,-117 328,0z" />
<path style="fill:#548787" d="M605,186 l0,107 -302,-107 302,0z" />
<path style="fill:#598c8c" d="M580,186 l0,100 -277,-100 277,0z" />
<path style="fill:#619494" d="M554,186 l0,90 -251,-90 251,0z" />
<path style="fill:#699" d="M529,186 l0,81 -226,-81 226,0z" />
<path style="fill:#699" d="M28,186 l942,0 -32,21 -62,15 -89,11 -107,8 -119,3 -124,0 -119,-3 -107,-8 -89,-11 -62,-15 -32,-21z" />
<path style="fill:#689e9e" d="M54,186 l890,0 -30,23 -59,13 -83,11 -101,8 -114,3 -116,0 -114,-3 -101,-8 -83,-11 -59,-13 -30,-23z" />
<path style="fill:#6ea6a6" d="M81,186 l838,0 -30,25 -54,13 -80,9 -94,8 -107,3 -110,0 -107,-3 -94,-8 -80,-9 -54,-13 -28,-25z" />
<path style="fill:#6eabab" d="M105,186 l788,0 -28,26 -51,14 -74,9 -90,6 -100,3 -102,0 -100,-3 -90,-6 -74,-9 -51,-14 -28,-26z" />
<path style="fill:#70b0b0" d="M131,186 l736,0 -25,28 -49,12 -70,9 -83,6 -92,3 -98,0 -92,-3 -83,-6 -70,-9 -49,-12 -25,-28z" />
<path style="fill:#76b8b8" d="M158,186 l682,0 -22,32 -46,10 -64,7 -77,6 -87,3 -90,0 -87,-3 -77,-6 -64,-7 -46,-10 -22,-32z" />
<path style="fill:#78bdbd" d="M184,186 l630,0 -21,34 -41,10 -59,7 -71,4 -81,3 -84,0 -79,-3 -71,-4 -61,-7 -41,-10 -21,-34z" />
<path style="fill:#7bc2c2" d="M209,186 l580,0 -21,36 -37,8 -55,7 -66,4 -73,3 -76,0 -73,-3 -66,-4 -55,-7 -37,-8 -21,-36z" />
<path style="fill:#7fc9c9" d="M235,186 l528,0 -19,38 -34,7 -49,6 -60,6 -68,1 -68,0 -68,-1 -60,-6 -49,-6 -34,-7 -19,-38z" />
<path style="fill:#80cfcf" d="M262,186 l474,0 -16,40 -31,7 -45,6 -53,4 -60,1 -62,0 -62,-1 -53,-4 -45,-6 -31,-7 -16,-40z" />
<path style="fill:#84d6d6" d="M288,186 l422,0 -13,42 -28,7 -40,4 -49,4 -53,1 -56,0 -53,-1 -49,-4 -40,-4 -28,-7 -13,-42z" />
<path style="fill:#87dbdb" d="M314,186 l372,0 -13,44 -25,5 -36,4 -41,4 -47,1 -50,0 -47,-1 -41,-4 -36,-4 -25,-5 -11,-44z" />
<path style="fill:#89e0e0" d="M339,186 l320,0 -11,47 -21,4 -30,4 -36,2 -41,1 -42,0 -41,-1 -36,-2 -30,-4 -21,-4 -11,-47z" />
<path style="fill:#8fe8e8" d="M365,186 l268,0 -9,49 -18,4 -24,2 -32,2 -34,1 -34,0 -34,-1 -30,-2 -26,-2 -18,-4 -9,-49z" />
<path style="fill:#91eded" d="M392,186 l214,0 -7,51 -13,2 -21,4 -24,0 -27,1 -28,0 -29,-1 -24,0 -21,-4 -13,-2 -7,-51z" />
<path style="fill:#91f2f2" d="M418,186 l162,0 -6,53 -9,2 -15,2 -19,1 -21,0 -22,0 -21,0 -17,-1 -17,-2 -9,-2 -6,-53z" />
<path style="fill:#97fafa" d="M443,186 l112,0 -3,55 -8,2 -11,0 -11,1 -16,0 -14,0 -14,0 -13,-1 -11,0 -8,-2 -3,-55z" />
<path style="fill:#9ff" d="M469,186 l60,0 -2,58 -3,0 -6,0 -8,0 -7,0 -8,0 -7,0 -8,0 -6,0 -3,0 -2,-58z" />
<path style="fill:none;stroke:#000;stroke-width:2" d="M28,186 l942,0 -32,21 -62,15 -89,11 -107,8 -119,3 -124,0 -119,-3 -107,-8 -89,-11 -62,-15 -32,-21" />
<path style="fill:#ccc" d="M961,186 l-32,15 -61,10 -86,7 -106,4 -117,4 -120,0 -117,-4 -106,-4 -86,-7 -61,-10 -32,-15 32,-45 61,-42 86,-34 104,-24 119,-11 120,0 119,11 104,24 86,34 61,42 32,45z" />
<path style="fill:#d1d1d1" d="M908,190 l-26,13 -55,9 -77,6 -93,4 -103,4 -110,0 -103,-4 -93,-4 -77,-6 -55,-9 -26,-13 28,-51 53,-42 77,-32 93,-24 103,-13 110,0 103,13 95,24 75,32 53,42 28,51z" />
<path style="fill:#d9d9d9" d="M857,195 l-24,12 -47,7 -66,4 -83,4 -91,4 -94,0 -91,-4 -81,-4 -68,-4 -47,-7 -24,-12 24,-56 47,-42 66,-32 83,-24 91,-13 94,0 91,13 83,24 66,32 47,42 24,56z" />
<path style="fill:#dedede" d="M806,199 l-20,12 -42,5 -57,4 -69,4 -79,2 -80,0 -79,-2 -69,-4 -57,-4 -42,-5 -20,-12 22,-60 40,-42 57,-32 69,-24 79,-13 80,0 79,13 69,24 57,32 42,42 20,60z" />
<path style="fill:#e5e5e5" d="M754,205 l-18,7 -33,6 -48,2 -58,4 -64,2 -68,0 -64,-2 -58,-4 -48,-2 -33,-6 -18,-7 18,-66 33,-42 48,-32 58,-24 64,-13 68,0 64,13 58,24 48,32 33,42 18,66z" />
<path style="fill:#ebebeb" d="M703,209 l-14,7 -26,2 -39,4 -46,2 -53,2 -52,0 -53,-2 -46,-2 -37,-4 -28,-2 -14,-7 14,-70 28,-42 37,-32 46,-24 53,-13 52,0 53,13 47,24 36,32 28,42 14,70z" />
<path style="fill:#f2f2f2" d="M652,214 l-12,4 -18,2 -29,2 -36,2 -37,2 -42,0 -37,-2 -34,-2 -29,-2 -20,-2 -12,-4 12,-75 20,-42 27,-32 36,-24 37,-13 42,0 37,13 36,24 29,32 18,42 12,75z" />
<path style="fill:#f7f7f7" d="M599,220 l-6,2 -13,0 -19,2 -22,0 -27,2 -26,0 -25,-2 -24,0 -19,-2 -13,0 -6,-2 6,-81 13,-42 19,-32 24,-24 25,-13 26,0 27,13 22,24 19,32 13,42 6,81z" />
<path style="fill:#fff" d="M548,224 l-4,2 -5,0 -10,0 -11,0 -13,0 -12,0 -13,0 -11,0 -10,0 -5,0 -4,-2 4,-83 5,-42 10,-34 11,-24 13,-11 12,0 13,11 11,24 10,34 5,42 4,83z" />
<path style="fill:none;stroke:#b2b2b2;stroke-width:2" d="M774,67 l57,38 39,45 21,49" />
<path style="fill:none;stroke:#b2b2b2;stroke-width:2" d="M548,30 l79,13 68,24 57,38 41,45 21,49" />
<path style="fill:none;stroke:#b2b2b2;stroke-width:2" d="M471,30 l77,13 70,24 56,38 40,45 21,49" />
<path style="fill:none;stroke:#b2b2b2;stroke-width:2" d="M414,31 l55,12 70,24 56,38 40,45 20,49" />
<path style="fill:none;stroke:#b2b2b2;stroke-width:2" d="M361,37 l31,6 67,24 57,38 41,45 21,49" />
<path style="fill:none;stroke:#b2b2b2;stroke-width:2" d="M312,43 l70,24 57,38 39,45 21,49" />
<path style="fill:none;stroke:#b2b2b2;stroke-width:2" d="M265,54 l38,13 57,38 39,45 21,49" />
<path style="fill:none;stroke:#b2b2b2;stroke-width:2" d="M224,67 l56,38 42,45 21,49 0,23" />
<path style="fill:none;stroke:#b2b2b2;stroke-width:2" d="M203,105 l40,45 20,49 0,19" />
<path style="fill:none;stroke:#b2b2b2;stroke-width:2" d="M124,105 l39,45 21,49 0,15" />
<path style="fill:none;stroke:#b2b2b2;stroke-width:2" d="M81,135 l26,64" />
<path style="fill:none;stroke:#b2b2b2;stroke-width:2" d="M224,67 l-57,38 -39,45 -21,49" />
<path style="fill:none;stroke:#b2b2b2;stroke-width:2" d="M448,30 l-77,13 -70,24 -55,38 -41,45 -21,49" />
<path style="fill:none;stroke:#b2b2b2;stroke-width:2" d="M527,30 l-77,13 -70,24 -56,38 -40,45 -21,49" />
<path style="fill:none;stroke:#b2b2b2;stroke-width:2" d="M584,33 l-55,10 -70,24 -56,38 -40,45 -20,49" />
<path style="fill:none;stroke:#b2b2b2;stroke-width:2" d="M606,43 l-69,24 -55,38 -41,45 -21,49 0,27" />
<path style="fill:none;stroke:#b2b2b2;stroke-width:2" d="M686,43 l-70,24 -57,38 -39,45 -21,49 0,27" />
<path style="fill:none;stroke:#b2b2b2;stroke-width:2" d="M735,54 l-40,13 -57,38 -39,45 -21,49 0,27" />
<path style="fill:none;stroke:#b2b2b2;stroke-width:2" d="M772,67 l-54,38 -42,45 -21,49 0,23" />
<path style="fill:none;stroke:#b2b2b2;stroke-width:2" d="M795,105 l-40,45 -20,49 0,19" />
<path style="fill:none;stroke:#b2b2b2;stroke-width:2" d="M874,105 l-39,45 -21,49 0,13" />
<path style="fill:none;stroke:#b2b2b2;stroke-width:2" d="M917,137 l-26,62 0,6" />
<path style="fill:none;stroke:#b2b2b2;stroke-width:2" d="M640,37 l-34,4 -39,2 -45,0 -46,0 -45,0 -39,-2 -34,-4" />
<path style="fill:none;stroke:#b2b2b2;stroke-width:2" d="M765,65 l-38,6 -53,6 -66,2 -71,2 -76,0 -71,-2 -66,-2 -53,-6 -41,-6" />
<path style="fill:none;stroke:#b2b2b2;stroke-width:2" d="M870,99 l-24,8 -49,7 -70,6 -85,4 -94,4 -98,0 -94,-4 -85,-4 -70,-6 -51,-7 -24,-8" />
<path style="fill:none;stroke:#b2b2b2;stroke-width:2" d="M940,160 l-39,13 -57,9 -81,6 -98,6 -110,1 -112,0 -110,-1 -100,-6 -79,-6 -59,-9 -35,-11" />
<path style="fill:none;stroke:#000;stroke-width:2" d="M961,186 l-32,15 -61,10 -86,7 -106,4 -117,4 -120,0 -117,-4 -106,-4 -86,-7 -61,-10 -32,-15 32,-45 61,-42 86,-34 104,-24 119,-11 120,0 119,11 104,24 86,34 61,42 32,45" />

</svg>
