

<svg xmlns:agg="http://www.example.com" xmlns="http://www.w3.org/2000/svg" preserveAspectRatio="none" width="0.4323in" height="1.4792in" viewBox="0 0 292 999">

<path style="fill:#999;stroke:#000;stroke-width:2" d="M58,77 l0,-10 175,0 0,10 -175,0z" />
<path style="fill:#999;stroke:#000;stroke-width:2" d="M58,38 l0,-10 175,0 0,10 -175,0z" />
<path style="fill:#b2b2b2;stroke:#000;stroke-width:2" d="M57,578 l15,0 0,382 -15,0 0,-382z" />
<path style="fill:#b2b2b2;stroke:#000;stroke-width:2" d="M219,578 l15,0 0,382 -15,0 0,-382z" />
<path style="fill:none;stroke:#000;stroke-width:2" d="M67,735 l157,225" />
<path style="fill:none;stroke:#000;stroke-width:2" d="M67,960 l157,-225" />
<path style="fill:#ccc" d="M47,106 l0,589 79,59 0,98 39,0 0,-98 79,-59 0,-589 -197,0z" />
<path style="fill:#e5e5e5" d="M67,106 l0,589 63,59 0,98 31,0 0,-98 63,-59 0,-589 -157,0z" />
<path style="fill:#f2f2f2" d="M87,106 l0,589 47,59 0,98 23,0 0,-98 47,-59 0,-589 -117,0z" />
<path style="fill:#fff" d="M106,106 l0,589 32,59 0,98 15,0 0,-98 32,-59 0,-589 -79,0z" />
<path style="fill:none;stroke:#000;stroke-width:2" d="M47,106 l0,589 79,59 0,98 39,0 0,-98 79,-59 0,-589 -197,0" />
<path style="fill:none;stroke:#7f7f7f;stroke-width:2" d="M126,754 l39,0" />
<path style="fill:none;stroke:#7f7f7f;stroke-width:2" d="M47,695 l197,0" />
<path style="fill:#ccc;stroke:#000;stroke-width:2" d="M106,852 l79,0 0,79 -79,0 0,-79z" />
<path style="fill:#b2b2b2;stroke:#000;stroke-width:2" d="M126,931 l39,0 0,39 -39,0 0,-39z" />
<circle style="fill:none;stroke:#000;stroke-width:2" cx="165" cy="930" r="19" />
<path style="fill:#bfbfbf;stroke:#000;stroke-width:2" d="M32,775 l11,-16 219,166 -11,16 -219,-166z" />
<path style="fill:#bfbfbf;stroke:#000;stroke-width:2" d="M249,759 l12,15 -217,169 -12,-15 217,-169z" />
<path style="fill:#d9d9d9;stroke:#000;stroke-width:2" d="M28,578 l19,0 0,392 -19,0 0,-392z" />
<path style="fill:#d9d9d9;stroke:#000;stroke-width:2" d="M244,578 l19,0 0,392 -19,0 0,-392z" />
<path style="fill:#999;stroke:#000;stroke-width:2" d="M47,28 l11,0 0,78 -11,0 0,-78z" />
<path style="fill:#999;stroke:#000;stroke-width:2" d="M233,28 l11,0 0,78 -11,0 0,-78z" />
<path style="fill:#999;stroke:#000;stroke-width:2" d="M141,28 l10,0 0,78 -10,0 0,-78z" />
<path style="fill:none;stroke:#000;stroke-width:2" d="M87,28 l0,942" />
<path style="fill:none;stroke:#000;stroke-width:2" d="M126,28 l0,942" />
<path style="fill:none;stroke:#000;stroke-width:2" d="M87,67 l39,0" />
<path style="fill:none;stroke:#000;stroke-width:2" d="M87,106 l39,0" />
<path style="fill:none;stroke:#000;stroke-width:2" d="M87,146 l39,0" />
<path style="fill:none;stroke:#000;stroke-width:2" d="M87,185 l39,0" />
<path style="fill:none;stroke:#000;stroke-width:2" d="M87,224 l39,0" />
<path style="fill:none;stroke:#000;stroke-width:2" d="M87,263 l39,0" />
<path style="fill:none;stroke:#000;stroke-width:2" d="M87,303 l39,0" />
<path style="fill:none;stroke:#000;stroke-width:2" d="M87,342 l39,0" />
<path style="fill:none;stroke:#000;stroke-width:2" d="M87,381 l39,0" />
<path style="fill:none;stroke:#000;stroke-width:2" d="M87,420 l39,0" />
<path style="fill:none;stroke:#000;stroke-width:2" d="M87,460 l39,0" />
<path style="fill:none;stroke:#000;stroke-width:2" d="M87,499 l39,0" />
<path style="fill:none;stroke:#000;stroke-width:2" d="M87,538 l39,0" />
<path style="fill:none;stroke:#000;stroke-width:2" d="M87,578 l39,0" />
<path style="fill:none;stroke:#000;stroke-width:2" d="M87,617 l39,0" />
<path style="fill:none;stroke:#000;stroke-width:2" d="M87,656 l39,0" />
<path style="fill:none;stroke:#000;stroke-width:2" d="M87,695 l39,0" />
<path style="fill:none;stroke:#000;stroke-width:2" d="M87,735 l39,0" />
<path style="fill:none;stroke:#000;stroke-width:2" d="M87,774 l39,0" />
<path style="fill:none;stroke:#000;stroke-width:2" d="M87,813 l39,0" />
<path style="fill:none;stroke:#000;stroke-width:2" d="M87,852 l39,0" />
<path style="fill:none;stroke:#000;stroke-width:2" d="M87,892 l39,0" />
<path style="fill:none;stroke:#000;stroke-width:2" d="M87,931 l39,0" />
<path style="fill:#b2b2b2;stroke:#000;stroke-width:2" d="M185,97 l-10,0 0,873 10,0 0,-873z" />

</svg>
