

<svg xmlns:agg="http://www.example.com" xmlns="http://www.w3.org/2000/svg" preserveAspectRatio="none" width="1.3371in" height="1.4792in" viewBox="0 0 480 531">

<path style="fill:#4c4c4c" d="M19,248 l63,0 0,268 -63,0 0,-268z" />
<path style="fill:#666" d="M19,248 l59,0 0,268 -59,0 0,-268z" />
<path style="fill:#999" d="M19,248 l51,0 0,268 -51,0 0,-268z" />
<path style="fill:#b2b2b2" d="M19,248 l43,0 0,268 -43,0 0,-268z" />
<path style="fill:#ccc" d="M19,248 l36,0 0,268 -36,0 0,-268z" />
<path style="fill:#b2b2b2" d="M19,248 l4,0 0,268 -4,0 0,-268z" />
<path style="fill:#fff" d="M27,248 l16,0 0,268 -16,0 0,-268z" />
<path style="fill:none;stroke:#000;stroke-width:2" d="M19,248 l63,0 0,268 -63,0 0,-268" />
<path style="fill:#333" d="M15,378 l71,0 0,8 -71,0 0,-8z" />
<path style="fill:#7f7f7f" d="M15,378 l71,0 0,4 -71,0 0,-4z" />
<path style="fill:#333" d="M398,248 l63,0 0,268 -63,0 0,-268z" />
<path style="fill:#4c4c4c" d="M398,248 l59,0 0,268 -59,0 0,-268z" />
<path style="fill:#7f7f7f" d="M398,248 l51,0 0,268 -51,0 0,-268z" />
<path style="fill:#999" d="M398,248 l43,0 0,268 -43,0 0,-268z" />
<path style="fill:#b2b2b2" d="M398,248 l35,0 0,268 -35,0 0,-268z" />
<path style="fill:#7f7f7f" d="M398,248 l4,0 0,268 -4,0 0,-268z" />
<path style="fill:#ccc" d="M405,248 l16,0 0,268 -16,0 0,-268z" />
<path style="fill:none;stroke:#000;stroke-width:2" d="M398,248 l63,0 0,268 -63,0 0,-268" />
<path style="fill:#333" d="M393,378 l72,0 0,8 -72,0 0,-8z" />
<path style="fill:#7f7f7f" d="M393,378 l72,0 0,4 -72,0 0,-4z" />
<circle style="fill:#4c4c4c" cx="240" cy="244" r="221" />
<circle style="fill:#666" cx="238" cy="242" r="215" />
<circle style="fill:#7f7f7f" cx="234" cy="238" r="211" />
<circle style="fill:#999" cx="230" cy="234" r="203" />
<circle style="fill:#b2b2b2" cx="224" cy="228" r="189" />
<circle style="fill:#ccc" cx="218" cy="222" r="175" />
<circle style="fill:#e5e5e5" cx="210" cy="214" r="155" />
<circle style="fill:none;stroke:#000;stroke-width:2" cx="240" cy="244" r="221" />
<ellipse style="fill:none;stroke:#ccc;stroke-width:2" cx="239" cy="244" rx="153" ry="221" />
<ellipse style="fill:none;stroke:#ccc;stroke-width:2" cx="240" cy="244" rx="63" ry="221" />
<path style="fill:none;stroke:#ccc;stroke-width:2" d="M55,248 l209,0" />
<path style="fill:none;stroke:#ccc;stroke-width:2" d="M98,208 l209,0" />
<path style="fill:none;stroke:#ccc;stroke-width:2" d="M78,138 l91,0" />
<path style="fill:none;stroke:#ccc;stroke-width:2" d="M149,106 l209,0" />
<path style="fill:none;stroke:#ccc;stroke-width:2" d="M204,287 l209,0" />
<path style="fill:none;stroke:#ccc;stroke-width:2" d="M98,366 l169,0" />
<path style="fill:#4c4c4c" d="M208,248 l63,0 0,268 -63,0 0,-268z" />
<path style="fill:#666" d="M208,248 l59,0 0,268 -59,0 0,-268z" />
<path style="fill:#999" d="M208,248 l52,0 0,268 -52,0 0,-268z" />
<path style="fill:#b2b2b2" d="M208,248 l44,0 0,268 -44,0 0,-268z" />
<path style="fill:#ccc" d="M208,248 l36,0 0,268 -36,0 0,-268z" />
<path style="fill:#b2b2b2" d="M208,248 l4,0 0,268 -4,0 0,-268z" />
<path style="fill:#fff" d="M216,248 l16,0 0,268 -16,0 0,-268z" />
<path style="fill:none;stroke:#000;stroke-width:2" d="M208,248 l63,0 0,268 -63,0 0,-268" />
<path style="fill:none;stroke:#000;stroke-width:2" d="M204,20 l75,0" />
<path style="fill:none;stroke:#000;stroke-width:2" d="M204,16 l75,0" />
<path style="fill:none;stroke:#000;stroke-width:2" d="M212,27 l0,-12" />
<path style="fill:none;stroke:#000;stroke-width:2" d="M271,27 l0,-12" />
<path style="fill:none;stroke:#000;stroke-width:2" d="M232,27 l0,-12" />
<path style="fill:none;stroke:#000;stroke-width:2" d="M251,27 l0,-12" />
<path style="fill:none;stroke:#000;stroke-width:2" d="M86,248 l0,268" />
<path style="fill:none;stroke:#000;stroke-width:2" d="M98,248 l0,268" />
<path style="fill:none;stroke:#000;stroke-width:2" d="M86,508 l12,0" />
<path style="fill:none;stroke:#000;stroke-width:2" d="M86,500 l12,0" />
<path style="fill:none;stroke:#000;stroke-width:2" d="M86,492 l12,0" />
<path style="fill:none;stroke:#000;stroke-width:2" d="M86,485 l12,0" />
<path style="fill:none;stroke:#000;stroke-width:2" d="M86,477 l12,0" />
<path style="fill:none;stroke:#000;stroke-width:2" d="M86,469 l12,0" />
<path style="fill:none;stroke:#000;stroke-width:2" d="M86,461 l12,0" />
<path style="fill:none;stroke:#000;stroke-width:2" d="M86,453 l12,0" />
<path style="fill:none;stroke:#000;stroke-width:2" d="M86,445 l12,0" />
<path style="fill:none;stroke:#000;stroke-width:2" d="M86,437 l12,0" />
<path style="fill:none;stroke:#000;stroke-width:2" d="M86,429 l12,0" />
<path style="fill:none;stroke:#000;stroke-width:2" d="M86,421 l12,0" />
<path style="fill:none;stroke:#000;stroke-width:2" d="M86,414 l12,0" />
<path style="fill:none;stroke:#000;stroke-width:2" d="M86,405 l12,0" />
<path style="fill:none;stroke:#000;stroke-width:2" d="M86,398 l12,0" />
<path style="fill:none;stroke:#000;stroke-width:2" d="M86,390 l12,0" />
<path style="fill:none;stroke:#000;stroke-width:2" d="M86,382 l12,0" />
<path style="fill:none;stroke:#000;stroke-width:2" d="M86,374 l12,0" />
<path style="fill:none;stroke:#000;stroke-width:2" d="M86,366 l12,0" />
<path style="fill:none;stroke:#000;stroke-width:2" d="M86,358 l12,0" />
<path style="fill:none;stroke:#000;stroke-width:2" d="M86,350 l12,0" />
<path style="fill:none;stroke:#000;stroke-width:2" d="M86,342 l12,0" />
<path style="fill:none;stroke:#000;stroke-width:2" d="M86,335 l12,0" />
<path style="fill:none;stroke:#000;stroke-width:2" d="M86,327 l12,0" />
<path style="fill:none;stroke:#000;stroke-width:2" d="M86,318 l12,0" />
<path style="fill:none;stroke:#000;stroke-width:2" d="M86,311 l12,0" />
<path style="fill:none;stroke:#000;stroke-width:2" d="M86,303 l12,0" />
<path style="fill:none;stroke:#000;stroke-width:2" d="M86,295 l12,0" />
<path style="fill:none;stroke:#000;stroke-width:2" d="M86,287 l12,0" />
<path style="fill:none;stroke:#000;stroke-width:2" d="M86,279 l12,0" />
<path style="fill:none;stroke:#000;stroke-width:2" d="M86,272 l12,0" />
<path style="fill:none;stroke:#000;stroke-width:2" d="M86,264 l12,0" />
<path style="fill:none;stroke:#000;stroke-width:2" d="M86,255 l12,0" />
<path style="fill:none;stroke:#000;stroke-width:2" d="M86,240 l12,0" />
<path style="fill:none;stroke:#000;stroke-width:2" d="M86,232 l12,0" />
<path style="fill:none;stroke:#000;stroke-width:2" d="M86,224 l12,0" />
<path style="fill:none;stroke:#000;stroke-width:2" d="M87,217 l12,0" />
<path style="fill:none;stroke:#000;stroke-width:2" d="M88,209 l12,0" />
<path style="fill:none;stroke:#000;stroke-width:2" d="M88,201 l12,0" />
<path style="fill:none;stroke:#000;stroke-width:2" d="M90,193 l12,0" />
<path style="fill:none;stroke:#000;stroke-width:2" d="M91,185 l12,0" />
<path style="fill:none;stroke:#000;stroke-width:2" d="M92,177 l12,0" />
<path style="fill:none;stroke:#000;stroke-width:2" d="M94,169 l12,0" />
<path style="fill:none;stroke:#000;stroke-width:2" d="M97,161 l12,0" />
<path style="fill:none;stroke:#000;stroke-width:2" d="M100,153 l10,0" />
<path style="fill:none;stroke:#000;stroke-width:2" d="M102,146 l11,0" />
<path style="fill:none;stroke:#000;stroke-width:2" d="M106,138 l9,0" />
<path style="fill:none;stroke:#000;stroke-width:2" d="M108,130 l10,0" />
<path style="fill:none;stroke:#000;stroke-width:2" d="M112,122 l9,0" />
<path style="fill:none;stroke:#000;stroke-width:2" d="M115,114 l10,0" />
<path style="fill:none;stroke:#000;stroke-width:2" d="M120,106 l9,0" />
<path style="fill:none;stroke:#000;stroke-width:2" d="M124,98 l9,0" />
<path style="fill:none;stroke:#000;stroke-width:2" d="M130,90 l8,0" />
<path style="fill:none;stroke:#000;stroke-width:2" d="M136,82 l7,0" />
<path style="fill:none;stroke:#000;stroke-width:2" d="M141,74 l8,0" />
<path style="fill:none;stroke:#000;stroke-width:2" d="M148,67 l7,0" />
<path style="fill:none;stroke:#000;stroke-width:2" d="M156,59 l7,0" />
<path style="fill:none;stroke:#000;stroke-width:2" d="M166,50 l6,0" />
<path style="fill:none;stroke:#000;stroke-width:2" d="M176,43 l5,0" />
<path style="fill:none;stroke:#000;stroke-width:2" d="M86,248 l12,0" />
<path style="fill:none;stroke:#000;stroke-width:2" d="M98,246 l0,-1 0,-1 1,-23 2,-22 3,-21 5,-20 6,-19 7,-19 9,-17 9,-15 10,-15 11,-12 12,-11 12,-10 13,-7 14,-6 14,-3 14,-1" />
<path style="fill:none;stroke:#000;stroke-width:2" d="M86,246 l0,-1 0,-1 1,-23 2,-22 4,-21 5,-20 7,-19 7,-19 9,-17 10,-15 11,-15 12,-12 13,-11 13,-10 14,-7 15,-6 15,-3 16,-1" />
<path style="fill:#333" d="M393,504 l72,0 0,8 -72,0 0,-8z" />
<path style="fill:#333" d="M204,378 l71,0 0,8 -71,0 0,-8z" />
<path style="fill:#333" d="M204,504 l71,0 0,8 -71,0 0,-8z" />
<path style="fill:#333" d="M15,504 l71,0 0,8 -71,0 0,-8z" />
<path style="fill:#7f7f7f" d="M204,378 l71,0 0,4 -71,0 0,-4z" />
<path style="fill:#7f7f7f" d="M393,504 l72,0 0,4 -72,0 0,-4z" />
<path style="fill:#7f7f7f" d="M204,504 l71,0 0,4 -71,0 0,-4z" />
<path style="fill:#7f7f7f" d="M15,504 l71,0 0,4 -71,0 0,-4z" />

</svg>
