

<svg xmlns:agg="http://www.example.com" xmlns="http://www.w3.org/2000/svg" preserveAspectRatio="none" width="0.4812in" height="1.4792in" viewBox="0 0 325 999">

<path style="fill:none;stroke:#fc0;stroke-width:2" d="M278,66 l0,-19 -1,-2 -8,-6 -11,-3 -14,-3 -8,-1 -9,-1 -10,-1 -10,-1 -10,-1 -11,0 -12,0 -23,0 -12,0 -11,0 -11,1 -10,1 -9,1 -9,1 -16,3 -12,3 -9,3 -4,4 -1,2 0,19" />
<path style="fill:none;stroke:#fc0;stroke-width:2" d="M85,32 l0,20" />
<path style="fill:none;stroke:#fc0;stroke-width:2" d="M124,29 l0,19" />
<path style="fill:none;stroke:#fc0;stroke-width:2" d="M162,28 l0,19" />
<path style="fill:none;stroke:#fc0;stroke-width:2" d="M201,29 l0,19" />
<path style="fill:none;stroke:#fc0;stroke-width:2" d="M239,32 l0,20" />
<path style="fill:none;stroke:#fc0;stroke-width:2" d="M47,57 l1,-2 8,-6 11,-3 14,-3 8,-1 9,-1 9,-1 10,-1 11,-1 11,0 12,-1 23,0 12,1 11,0 10,1 10,1 10,1 9,1 15,2 13,4 9,3 4,4 1,2" />
<path style="fill:#8c8c8c" d="M278,951 l-1,2 -26,10 -34,5 -31,2 -12,0 -12,0 -34,0 -30,-3 -31,-5 -19,-9 -1,-2 0,-885 1,-2 25,-10 34,-5 32,-2 12,0 11,0 35,1 30,2 31,6 19,8 1,2 0,885z" />
<path style="fill:#a6a6a6" d="M255,951 l-2,4 -25,10 -30,4 -17,1 -9,0 -10,0 -27,0 -31,-4 -27,-7 -5,-4 -2,-2 0,-2 0,-885 2,-4 25,-10 29,-4 18,-1 9,0 9,0 28,1 31,3 27,8 5,3 1,2 1,2 0,885z" />
<path style="fill:#bfbfbf" d="M245,951 l0,2 -24,12 -26,4 -16,1 -8,0 -9,0 -32,-1 -26,-4 -24,-12 -1,-2 0,-885 1,-2 24,-12 26,-4 16,-1 8,0 8,0 33,1 26,4 24,12 0,2 0,885z" />
<path style="fill:#d9d9d9" d="M230,951 l-1,4 -24,11 -29,4 -7,0 -7,0 -32,-2 -27,-8 -7,-5 -1,-2 0,-2 0,-885 1,-4 23,-11 30,-4 6,0 7,0 33,2 27,8 7,5 0,2 1,2 0,885z" />
<path style="fill:#f2f2f2" d="M197,951 l0,4 -28,15 -7,0 -29,-8 -5,-7 0,-4 0,-885 0,-4 27,-15 7,0 29,9 6,6 0,4 0,885z" />
<path style="fill:none;stroke:#000;stroke-width:2" d="M278,951 l-1,2 -26,10 -34,5 -31,2 -12,0 -12,0 -34,0 -30,-3 -31,-5 -19,-9 -1,-2 0,-885 1,-2 25,-10 34,-5 32,-2 12,0 11,0 35,1 30,2 31,6 19,8 1,2 0,885" />
<path style="fill:none;stroke:#7f7f7f;stroke-width:2" d="M47,220 l1,-2 8,-5 11,-4 14,-3 8,-1 9,-1 9,-1 10,-1 11,0 11,-1 12,0 23,0 12,0 11,1 10,0 10,1 10,1 9,1 15,3 13,3 9,3 4,4 1,2" />
<path style="fill:none;stroke:#7f7f7f;stroke-width:2" d="M47,422 l1,-1 8,-3 11,-1 14,-2 17,-1 9,0 10,-1 11,0 11,0 12,-1 23,0 12,1 11,0 10,0 10,1 10,0 17,1 14,2 11,1 8,3 1,1" />
<path style="fill:none;stroke:#7f7f7f;stroke-width:2" d="M278,797 l-1,2 -8,6 -11,3 -14,3 -8,1 -9,1 -10,1 -10,1 -10,1 -11,0 -12,1 -23,0 -12,-1 -11,0 -11,-1 -10,-1 -9,-1 -9,-1 -16,-3 -12,-3 -9,-3 -4,-4 -1,-2" />
<path style="fill:none;stroke:#7f7f7f;stroke-width:2" d="M278,615 l-1,1 -8,2 -11,2 -14,1 -17,2 -10,0 -10,1 -10,0 -11,0 -12,0 -23,0 -12,0 -11,0 -11,0 -10,-1 -9,0 -17,-2 -14,-1 -11,-2 -8,-2 -1,-1" />
<path style="fill:#e5e5e5;stroke:#000;stroke-width:2" d="M277,595 l10,0 10,-9 0,-10 -10,-10 -10,0 0,29z" />
<path style="fill:none;stroke:#000;stroke-width:2" d="M277,571 l15,0" />
<path style="fill:none;stroke:#000;stroke-width:2" d="M277,576 l20,0" />
<path style="fill:none;stroke:#000;stroke-width:2" d="M277,581 l15,0" />
<path style="fill:none;stroke:#000;stroke-width:2" d="M277,586 l15,0" />
<path style="fill:none;stroke:#000;stroke-width:2" d="M277,591 l10,0" />
<path style="fill:#bfbfbf;stroke:#000;stroke-width:2" d="M297,566 l0,20 0,-4 -2,-4 -1,-3 -3,-3 -2,-2 -4,-2 -4,-1 -3,-1 0,-19 3,0 4,2 4,2 2,2 3,2 1,4 2,4 0,3z" />
<path style="fill:#a6a6a6;stroke:#000;stroke-width:2" d="M297,566 l0,19 -3,11 -9,11 -6,5 -7,6 -8,5 -9,5 -10,6 -11,6 -11,5 -11,5 -12,6 -13,5 -12,6 -13,5 -12,5 -13,6 -12,5 -12,6 -12,5 -11,5 -10,6 -10,5 -10,6 -8,5 -7,6 -11,10 -6,11 0,6 0,-19 3,-11 8,-11 6,-6 7,-5 8,-5 10,-6 10,-5 10,-6 11,-5 12,-5 12,-6 12,-5 13,-6 12,-5 13,-5 12,-6 13,-6 12,-5 11,-5 11,-6 11,-5 10,-6 9,-5 8,-5 7,-6 11,-10 6,-11 1,-6z" />
<path style="fill:#7f7f7f;stroke:#000;stroke-width:2" d="M297,585 l-3,11 -9,11 -6,5 -7,6 -8,5 -9,6 -10,5 -11,6 -11,5 -11,5 -12,6 -13,5 -12,6 -13,5 -12,5 -13,6 -12,5 -12,6 -12,5 -11,5 -10,6 -10,5 -10,6 -8,5 -7,6 -11,10 -6,11 0,6 0,3 5,8 10,6 4,2 0,-19 2,-11 8,-11 6,-5 7,-6 7,-5 9,-6 9,-5 10,-6 10,-5 11,-5 11,-6 12,-5 11,-6 12,-5 12,-5 11,-6 11,-5 12,-6 11,-5 10,-5 10,-6 9,-6 8,-5 8,-5 7,-6 10,-10 5,-11 1,-6z" />
<path style="fill:#e5e5e5;stroke:#000;stroke-width:2" d="M277,249 l10,0 10,-10 0,-9 -10,-10 -10,0 0,29z" />
<path style="fill:none;stroke:#000;stroke-width:2" d="M277,225 l15,0" />
<path style="fill:none;stroke:#000;stroke-width:2" d="M277,230 l20,0" />
<path style="fill:none;stroke:#000;stroke-width:2" d="M277,234 l15,0" />
<path style="fill:none;stroke:#000;stroke-width:2" d="M277,239 l15,0" />
<path style="fill:none;stroke:#000;stroke-width:2" d="M277,244 l10,0" />
<path style="fill:#bfbfbf;stroke:#000;stroke-width:2" d="M297,220 l0,19 0,-4 -2,-3 -1,-3 -3,-4 -2,-2 -4,-2 -4,-1 -3,0 0,-19 3,0 4,1 4,2 2,2 3,3 1,4 2,3 0,4z" />
<path style="fill:#a6a6a6;stroke:#000;stroke-width:2" d="M297,220 l0,19 -3,11 -9,11 -6,5 -7,5 -8,6 -9,5 -10,6 -11,5 -11,5 -11,6 -12,5 -13,6 -12,5 -13,6 -12,5 -13,5 -12,6 -12,5 -12,6 -11,5 -10,5 -10,6 -10,5 -8,6 -7,5 -11,11 -6,11 0,5 0,-19 3,-11 8,-10 6,-6 7,-5 8,-6 10,-5 10,-6 10,-5 11,-5 12,-6 12,-5 12,-6 13,-5 12,-6 13,-5 12,-5 13,-6 12,-5 11,-6 11,-5 11,-5 10,-6 9,-5 8,-6 7,-5 11,-11 6,-11 1,-5z" />
<path style="fill:#7f7f7f;stroke:#000;stroke-width:2" d="M297,239 l-3,11 -9,11 -6,5 -7,6 -8,5 -9,5 -10,6 -11,5 -11,6 -11,5 -12,6 -13,5 -12,5 -13,6 -12,5 -13,6 -12,5 -12,5 -12,6 -11,5 -10,6 -10,5 -10,5 -8,6 -7,5 -11,11 -6,11 0,5 0,4 5,8 10,6 4,2 0,-20 2,-10 8,-11 6,-6 7,-5 7,-6 9,-5 9,-6 10,-5 10,-5 11,-6 11,-5 12,-6 11,-5 12,-5 12,-6 11,-5 11,-6 12,-5 11,-6 10,-5 10,-5 9,-6 8,-5 8,-6 7,-5 10,-11 5,-10 1,-6z" />

</svg>
