

<svg xmlns:agg="http://www.example.com" xmlns="http://www.w3.org/2000/svg" preserveAspectRatio="none" width="1.3148in" height="1.4792in" viewBox="0 0 472 531">

<path style="fill:#4c4c4c" d="M66,378 l63,0 0,138 -63,0 0,-138z" />
<path style="fill:#666" d="M66,378 l59,0 0,138 -59,0 0,-138z" />
<path style="fill:#999" d="M66,378 l51,0 0,138 -51,0 0,-138z" />
<path style="fill:#b2b2b2" d="M66,378 l44,0 0,138 -44,0 0,-138z" />
<path style="fill:#ccc" d="M66,378 l36,0 0,138 -36,0 0,-138z" />
<path style="fill:#b2b2b2" d="M66,378 l4,0 0,138 -4,0 0,-138z" />
<path style="fill:#fff" d="M74,378 l16,0 0,138 -16,0 0,-138z" />
<path style="fill:none;stroke:#000;stroke-width:2" d="M66,378 l63,0 0,138 -63,0 0,-138" />
<path style="fill:#333" d="M346,378 l63,0 0,138 -63,0 0,-138z" />
<path style="fill:#4c4c4c" d="M346,378 l59,0 0,138 -59,0 0,-138z" />
<path style="fill:#7f7f7f" d="M346,378 l51,0 0,138 -51,0 0,-138z" />
<path style="fill:#999" d="M346,378 l44,0 0,138 -44,0 0,-138z" />
<path style="fill:#b2b2b2" d="M346,378 l36,0 0,138 -36,0 0,-138z" />
<path style="fill:#7f7f7f" d="M346,378 l4,0 0,138 -4,0 0,-138z" />
<path style="fill:#ccc" d="M354,378 l16,0 0,138 -16,0 0,-138z" />
<path style="fill:none;stroke:#000;stroke-width:2" d="M346,378 l63,0 0,138 -63,0 0,-138" />
<circle style="fill:#4c4c4c" cx="236" cy="244" r="221" />
<circle style="fill:#666" cx="234" cy="242" r="215" />
<circle style="fill:#7f7f7f" cx="230" cy="238" r="211" />
<circle style="fill:#999" cx="226" cy="234" r="203" />
<circle style="fill:#b2b2b2" cx="220" cy="228" r="189" />
<circle style="fill:#ccc" cx="214" cy="222" r="175" />
<circle style="fill:#e5e5e5" cx="206" cy="214" r="155" />
<circle style="fill:none;stroke:#000;stroke-width:2" cx="236" cy="244" r="221" />
<ellipse style="fill:none;stroke:#ccc;stroke-width:2" cx="235" cy="244" rx="153" ry="221" />
<ellipse style="fill:none;stroke:#ccc;stroke-width:2" cx="236" cy="244" rx="63" ry="221" />
<path style="fill:none;stroke:#ccc;stroke-width:2" d="M51,248 l208,0" />
<path style="fill:none;stroke:#ccc;stroke-width:2" d="M94,208 l209,0" />
<path style="fill:none;stroke:#ccc;stroke-width:2" d="M74,138 l91,0" />
<path style="fill:none;stroke:#ccc;stroke-width:2" d="M145,106 l209,0" />
<path style="fill:none;stroke:#ccc;stroke-width:2" d="M200,287 l209,0" />
<path style="fill:none;stroke:#ccc;stroke-width:2" d="M94,366 l169,0" />
<path style="fill:#4c4c4c" d="M204,378 l63,0 0,138 -63,0 0,-138z" />
<path style="fill:#666" d="M204,378 l59,0 0,138 -59,0 0,-138z" />
<path style="fill:#999" d="M204,378 l51,0 0,138 -51,0 0,-138z" />
<path style="fill:#b2b2b2" d="M204,378 l44,0 0,138 -44,0 0,-138z" />
<path style="fill:#ccc" d="M204,378 l36,0 0,138 -36,0 0,-138z" />
<path style="fill:#b2b2b2" d="M204,378 l4,0 0,138 -4,0 0,-138z" />
<path style="fill:#fff" d="M212,378 l16,0 0,138 -16,0 0,-138z" />
<path style="fill:none;stroke:#000;stroke-width:2" d="M204,378 l63,0 0,138 -63,0 0,-138" />
<path style="fill:#333" d="M342,437 l71,0 0,8 -71,0 0,-8z" />
<path style="fill:#333" d="M342,504 l71,0 0,8 -71,0 0,-8z" />
<path style="fill:#333" d="M200,504 l71,0 0,8 -71,0 0,-8z" />
<path style="fill:#333" d="M200,437 l71,0 0,8 -71,0 0,-8z" />
<path style="fill:#333" d="M62,437 l71,0 0,8 -71,0 0,-8z" />
<path style="fill:#333" d="M62,504 l71,0 0,8 -71,0 0,-8z" />
<path style="fill:#7f7f7f" d="M62,504 l71,0 0,4 -71,0 0,-4z" />
<path style="fill:#7f7f7f" d="M200,504 l71,0 0,4 -71,0 0,-4z" />
<path style="fill:#7f7f7f" d="M342,504 l71,0 0,4 -71,0 0,-4z" />
<path style="fill:#7f7f7f" d="M342,437 l71,0 0,4 -71,0 0,-4z" />
<path style="fill:#7f7f7f" d="M200,437 l71,0 0,4 -71,0 0,-4z" />
<path style="fill:#7f7f7f" d="M62,437 l71,0 0,4 -71,0 0,-4z" />
<path style="fill:none;stroke:#000;stroke-width:2" d="M200,20 l75,0" />
<path style="fill:none;stroke:#000;stroke-width:2" d="M200,16 l75,0" />
<path style="fill:none;stroke:#000;stroke-width:2" d="M208,27 l0,-12" />
<path style="fill:none;stroke:#000;stroke-width:2" d="M267,27 l0,-12" />
<path style="fill:none;stroke:#000;stroke-width:2" d="M228,27 l0,-12" />
<path style="fill:none;stroke:#000;stroke-width:2" d="M247,27 l0,-12" />
<path style="fill:none;stroke:#000;stroke-width:2" d="M82,248 l0,268" />
<path style="fill:none;stroke:#000;stroke-width:2" d="M93,248 l0,268" />
<path style="fill:none;stroke:#000;stroke-width:2" d="M82,508 l11,0" />
<path style="fill:none;stroke:#000;stroke-width:2" d="M82,500 l11,0" />
<path style="fill:none;stroke:#000;stroke-width:2" d="M82,492 l11,0" />
<path style="fill:none;stroke:#000;stroke-width:2" d="M82,485 l11,0" />
<path style="fill:none;stroke:#000;stroke-width:2" d="M82,477 l11,0" />
<path style="fill:none;stroke:#000;stroke-width:2" d="M82,469 l11,0" />
<path style="fill:none;stroke:#000;stroke-width:2" d="M82,461 l11,0" />
<path style="fill:none;stroke:#000;stroke-width:2" d="M82,453 l11,0" />
<path style="fill:none;stroke:#000;stroke-width:2" d="M82,445 l11,0" />
<path style="fill:none;stroke:#000;stroke-width:2" d="M82,437 l11,0" />
<path style="fill:none;stroke:#000;stroke-width:2" d="M82,429 l11,0" />
<path style="fill:none;stroke:#000;stroke-width:2" d="M82,421 l11,0" />
<path style="fill:none;stroke:#000;stroke-width:2" d="M82,414 l11,0" />
<path style="fill:none;stroke:#000;stroke-width:2" d="M82,405 l11,0" />
<path style="fill:none;stroke:#000;stroke-width:2" d="M82,398 l11,0" />
<path style="fill:none;stroke:#000;stroke-width:2" d="M82,390 l11,0" />
<path style="fill:none;stroke:#000;stroke-width:2" d="M82,382 l11,0" />
<path style="fill:none;stroke:#000;stroke-width:2" d="M82,374 l11,0" />
<path style="fill:none;stroke:#000;stroke-width:2" d="M82,366 l11,0" />
<path style="fill:none;stroke:#000;stroke-width:2" d="M82,358 l11,0" />
<path style="fill:none;stroke:#000;stroke-width:2" d="M82,350 l11,0" />
<path style="fill:none;stroke:#000;stroke-width:2" d="M82,342 l11,0" />
<path style="fill:none;stroke:#000;stroke-width:2" d="M82,335 l11,0" />
<path style="fill:none;stroke:#000;stroke-width:2" d="M82,327 l11,0" />
<path style="fill:none;stroke:#000;stroke-width:2" d="M82,318 l11,0" />
<path style="fill:none;stroke:#000;stroke-width:2" d="M82,311 l11,0" />
<path style="fill:none;stroke:#000;stroke-width:2" d="M82,303 l11,0" />
<path style="fill:none;stroke:#000;stroke-width:2" d="M82,295 l11,0" />
<path style="fill:none;stroke:#000;stroke-width:2" d="M82,287 l11,0" />
<path style="fill:none;stroke:#000;stroke-width:2" d="M82,279 l11,0" />
<path style="fill:none;stroke:#000;stroke-width:2" d="M82,272 l11,0" />
<path style="fill:none;stroke:#000;stroke-width:2" d="M82,264 l11,0" />
<path style="fill:none;stroke:#000;stroke-width:2" d="M82,255 l11,0" />
<path style="fill:none;stroke:#000;stroke-width:2" d="M82,240 l12,0" />
<path style="fill:none;stroke:#000;stroke-width:2" d="M82,232 l12,0" />
<path style="fill:none;stroke:#000;stroke-width:2" d="M82,224 l12,0" />
<path style="fill:none;stroke:#000;stroke-width:2" d="M83,217 l12,0" />
<path style="fill:none;stroke:#000;stroke-width:2" d="M84,209 l11,0" />
<path style="fill:none;stroke:#000;stroke-width:2" d="M84,201 l12,0" />
<path style="fill:none;stroke:#000;stroke-width:2" d="M86,193 l12,0" />
<path style="fill:none;stroke:#000;stroke-width:2" d="M87,185 l12,0" />
<path style="fill:none;stroke:#000;stroke-width:2" d="M88,177 l12,0" />
<path style="fill:none;stroke:#000;stroke-width:2" d="M90,169 l12,0" />
<path style="fill:none;stroke:#000;stroke-width:2" d="M93,161 l12,0" />
<path style="fill:none;stroke:#000;stroke-width:2" d="M96,153 l10,0" />
<path style="fill:none;stroke:#000;stroke-width:2" d="M98,146 l11,0" />
<path style="fill:none;stroke:#000;stroke-width:2" d="M102,138 l9,0" />
<path style="fill:none;stroke:#000;stroke-width:2" d="M104,130 l10,0" />
<path style="fill:none;stroke:#000;stroke-width:2" d="M108,122 l9,0" />
<path style="fill:none;stroke:#000;stroke-width:2" d="M111,114 l10,0" />
<path style="fill:none;stroke:#000;stroke-width:2" d="M116,106 l9,0" />
<path style="fill:none;stroke:#000;stroke-width:2" d="M120,98 l9,0" />
<path style="fill:none;stroke:#000;stroke-width:2" d="M126,90 l8,0" />
<path style="fill:none;stroke:#000;stroke-width:2" d="M132,82 l7,0" />
<path style="fill:none;stroke:#000;stroke-width:2" d="M137,74 l8,0" />
<path style="fill:none;stroke:#000;stroke-width:2" d="M144,67 l7,0" />
<path style="fill:none;stroke:#000;stroke-width:2" d="M152,59 l7,0" />
<path style="fill:none;stroke:#000;stroke-width:2" d="M162,50 l6,0" />
<path style="fill:none;stroke:#000;stroke-width:2" d="M172,43 l5,0" />
<path style="fill:none;stroke:#000;stroke-width:2" d="M82,248 l12,0" />
<path style="fill:none;stroke:#000;stroke-width:2" d="M94,246 l0,-1 0,-1 1,-23 2,-22 3,-21 5,-20 6,-19 7,-19 9,-17 9,-15 10,-15 11,-12 12,-11 12,-10 13,-7 14,-6 14,-3 14,-1" />
<path style="fill:none;stroke:#000;stroke-width:2" d="M82,246 l0,-1 0,-1 1,-23 2,-22 4,-21 5,-20 7,-19 7,-19 9,-17 10,-15 11,-15 12,-12 13,-11 13,-10 14,-7 15,-6 15,-3 16,-1" />

</svg>
