

<svg xmlns:agg="http://www.example.com" xmlns="http://www.w3.org/2000/svg" preserveAspectRatio="none" width="1.1297in" height="1.4792in" viewBox="0 0 763 999">

<path style="fill:#999" d="M618,199 l34,0 0,536 -34,0 0,-536z" />
<path style="fill:#999" d="M111,199 l36,0 0,536 -36,0 0,-536z" />
<path style="fill:#7f7f7f;stroke:#000;stroke-width:2" d="M595,661 l17,-17 -445,-426 -17,17 445,426z" />
<path style="fill:#7f7f7f;stroke:#000;stroke-width:2" d="M141,848 l24,0 0,-820 -24,0 0,820z" />
<path style="fill:#7f7f7f;stroke:#000;stroke-width:2" d="M86,891 l0,-21 40,-22 53,0 39,22 0,21 -132,0z" />
<path style="fill:#7f7f7f;stroke:#000;stroke-width:2" d="M612,220 l-17,-15 -445,426 17,17 445,-428z" />
<path style="fill:#7f7f7f;stroke:#000;stroke-width:2" d="M599,848 l24,0 0,-820 -24,0 0,820z" />
<path style="fill:#7f7f7f;stroke:#000;stroke-width:2" d="M544,891 l0,-21 40,-22 53,0 39,22 0,21 -132,0z" />
<path style="fill:none;stroke:#000;stroke-width:2" d="M86,870 l132,0" />
<path style="fill:none;stroke:#000;stroke-width:2" d="M544,870 l132,0" />
<path style="fill:#7f7f7f" d="M638,752 l21,-21 -535,-534 -21,21 535,534z" />
<path style="fill:#e5e5e5" d="M644,744 l8,-6 -534,-533 -7,6 533,533z" />
<path style="fill:none;stroke:#000;stroke-width:2" d="M638,752 l21,-21 -535,-534 -21,21 535,534" />
<path style="fill:#7f7f7f" d="M659,218 l-21,-21 -535,534 21,21 535,-534z" />
<path style="fill:#e5e5e5" d="M652,211 l-8,-6 -533,533 7,6 534,-533z" />
<path style="fill:none;stroke:#000;stroke-width:2" d="M659,218 l-21,-21 -535,534 21,21 535,-534" />
<path style="fill:#7f7f7f" d="M92,921 l30,0 0,-893 -30,0 0,893z" />
<path style="fill:#7f7f7f" d="M642,921 l29,0 0,-893 -29,0 0,893z" />
<path style="fill:#7f7f7f" d="M578,970 l0,-26 45,-27 66,0 46,27 0,26 -157,0z" />
<path style="fill:#7f7f7f" d="M28,970 l0,-26 45,-27 66,0 45,27 0,26 -156,0z" />
<path style="fill:#b2b2b2" d="M606,970 l0,-26 31,-27 39,0 28,27 0,26 -98,0z" />
<path style="fill:#b2b2b2" d="M58,970 l0,-26 28,-27 42,0 28,27 0,26 -98,0z" />
<path style="fill:#e5e5e5" d="M92,970 l0,-26 7,-27 14,0 9,27 0,26 -30,0z" />
<path style="fill:#e5e5e5" d="M642,970 l0,-26 8,-27 13,0 8,27 0,26 -29,0z" />
<path style="fill:#e5e5e5" d="M652,921 l9,0 0,-893 -9,0 0,893z" />
<path style="fill:#e5e5e5" d="M101,921 l10,0 0,-893 -10,0 0,893z" />
<path style="fill:none;stroke:#000;stroke-width:2" d="M28,944 l156,0" />
<path style="fill:none;stroke:#000;stroke-width:2" d="M578,944 l157,0" />
<path style="fill:none;stroke:#000;stroke-width:2" d="M578,970 l0,-26 45,-27 66,0 46,27 0,26 -157,0" />
<path style="fill:none;stroke:#000;stroke-width:2" d="M642,917 l29,0 0,-889 -29,0 0,889" />
<path style="fill:none;stroke:#000;stroke-width:2" d="M92,917 l30,0 0,-889 -30,0 0,889" />
<path style="fill:none;stroke:#000;stroke-width:2" d="M28,970 l0,-26 45,-27 66,0 45,27 0,26 -156,0" />

</svg>
