

<svg xmlns:agg="http://www.example.com" xmlns="http://www.w3.org/2000/svg" preserveAspectRatio="none" width="0.9545in" height="1.4792in" viewBox="0 0 342 530">

<path style="fill:#7f7f7f" d="M312,359 l-5,32 -10,29 -13,27 -18,23 -20,19 -23,14 -25,9 -27,3 -26,-3 -25,-9 -23,-14 -21,-19 -17,-23 -14,-27 -9,-29 -5,-32 -16,-16 0,-250 16,-15 0,-63 281,0 0,63 15,15 0,250 -15,16z" />
<path style="fill:#999" d="M291,359 l-4,32 -9,29 -11,27 -15,23 -17,19 -20,14 -21,9 -23,3 -22,-3 -22,-9 -19,-14 -17,-19 -15,-23 -12,-27 -8,-29 -4,-32 -14,-16 0,-250 14,-15 0,-63 239,0 0,63 13,15 0,250 -13,16z" />
<path style="fill:#b2b2b2" d="M270,359 l-4,32 -6,29 -10,27 -12,23 -15,19 -16,14 -17,9 -19,3 -18,-3 -18,-9 -16,-14 -14,-19 -12,-23 -10,-27 -7,-29 -3,-32 -11,-16 0,-250 11,-15 0,-63 197,0 0,63 11,15 0,250 -11,16z" />
<path style="fill:#ccc" d="M238,359 l-2,32 -5,29 -6,27 -8,23 -10,19 -11,14 -12,9 -13,3 -12,-3 -12,-9 -11,-14 -10,-19 -8,-23 -6,-27 -5,-29 -2,-32 -8,-16 0,-250 7,-15 0,-63 134,0 0,63 7,15 0,250 -7,16z" />
<path style="fill:#e5e5e5" d="M206,359 l-1,32 -2,29 -4,27 -4,23 -5,19 -6,14 -6,9 -7,3 -7,-3 -6,-9 -5,-14 -5,-19 -5,-23 -3,-27 -3,-29 -1,-32 -4,-16 0,-250 4,-15 0,-63 70,0 0,63 4,15 0,250 -4,16z" />
<path style="fill:#fff" d="M178,359 l0,32 -1,29 0,27 -1,23 -1,19 -1,14 -3,12 -2,-12 -1,-14 -1,-19 -1,-23 -1,-27 -1,-29 0,-376 14,0 0,63 1,15 0,250 -1,16z" />
<path style="fill:none;stroke:#7f7f7f;stroke-width:2" d="M31,78 l281,0" />
<path style="fill:none;stroke:#7f7f7f;stroke-width:2" d="M15,93 l312,0" />
<path style="fill:none;stroke:#7f7f7f;stroke-width:2" d="M15,343 l312,0" />
<path style="fill:none;stroke:#7f7f7f;stroke-width:2" d="M31,359 l281,0" />
<path style="fill:none;stroke:#000;stroke-width:2" d="M312,359 l-5,32 -10,29 -13,27 -18,23 -20,19 -23,14 -25,9 -27,3 -26,-3 -25,-9 -23,-14 -21,-19 -17,-23 -14,-27 -9,-29 -5,-32 -16,-16 0,-250 16,-15 0,-63 281,0 0,63 15,15 0,250 -15,16" />

</svg>
