 

<svg xmlns:agg="http://www.example.com" xmlns="http://www.w3.org/2000/svg" preserveAspectRatio="none" width="1.6083in" height="0.5184in" viewBox="0 0 999 322">

<path style="fill:#999;stroke:#000;stroke-width:2" d="M38,219 l922,0 0,22 -922,0 0,-22z" />
<path style="fill:#e5e5e5;stroke:#000;stroke-width:2" d="M28,28 l0,201 10,0 0,-164 40,0 0,154 842,0 0,-154 40,0 0,164 10,0 0,-201 -942,0z" />
<path style="fill:#000;stroke:#000;stroke-width:2" d="M68,241 l862,0 0,13 -40,0 -30,0 -37,0 -42,1 -48,0 -52,0 -28,0 -29,0 -29,0 -31,0 -32,1 -32,0 -34,0 -34,0 -34,0 -35,0 -36,0 -36,0 -36,0 -37,0 -37,0 -38,0 -75,0 0,-15z" />
<path style="fill:#fff;stroke:#000;stroke-width:2" d="M91,65 l0,61 90,88 638,0 91,-88 0,-61 -819,0z" />
<path style="fill:#ccc;stroke:#000;stroke-width:2" d="M920,35 l40,0 0,20 -40,0 0,-20z" />
<path style="fill:#ccc;stroke:#000;stroke-width:2" d="M726,33 l184,0 0,22 -184,0 0,-22z" />
<path style="fill:#ccc;stroke:#000;stroke-width:2" d="M518,33 l183,0 0,22 -183,0 0,-22z" />
<path style="fill:#ccc;stroke:#000;stroke-width:2" d="M302,33 l183,0 0,22 -183,0 0,-22z" />
<path style="fill:#ccc;stroke:#000;stroke-width:2" d="M93,33 l184,0 0,22 -184,0 0,-22z" />
<path style="fill:#ccc;stroke:#000;stroke-width:2" d="M38,35 l40,0 0,20 -40,0 0,-20z" />
<path style="fill:#ccc" d="M161,176 l-70,-50 90,88 638,0 91,-88 -81,50 -668,0z" />
<path style="fill:none;stroke:#000;stroke-width:2" d="M91,65 l0,61 90,88 638,0 91,-88 0,-61 -819,0" />
<path style="fill:#4c4c4c" d="M55,224 l888,0 0,10 -888,0 0,-10z" />
<path style="fill:#4c4c4c;stroke:#000;stroke-width:2" d="M814,239 l111,0 0,35 -111,0 0,-35z" />
<path style="fill:#4c4c4c;stroke:#000;stroke-width:2" d="M73,239 l111,0 0,35 -111,0 0,-35z" />
<circle style="fill:#333;stroke:#000;stroke-width:2" cx="923" cy="267" r="26" />
<circle style="fill:#333;stroke:#000;stroke-width:2" cx="815" cy="267" r="26" />
<circle style="fill:#333;stroke:#000;stroke-width:2" cx="182" cy="267" r="26" />
<circle style="fill:#333;stroke:#000;stroke-width:2" cx="74" cy="267" r="26" />

</svg>
