 

<svg xmlns:agg="http://www.example.com" xmlns="http://www.w3.org/2000/svg" preserveAspectRatio="none" width="0.5230in" height="1.0750in" viewBox="0 0 486 999">

<path style="fill:#366;stroke:#000;stroke-width:2" d="M288,970 l-11,-788 18,0 12,788 -19,0z" />
<path style="fill:none;stroke:#366;stroke-width:2" d="M409,446 l-114,-260" />
<path style="fill:none;stroke:#366;stroke-width:2" d="M303,446 l90,-264" />
<path style="fill:none;stroke:#366;stroke-width:2" d="M80,446 l197,-264" />
<path style="fill:none;stroke:#366;stroke-width:2" d="M277,442 l-185,-256" />
<path style="fill:none;stroke:#366;stroke-width:2" d="M420,706 l-117,-233" />
<path style="fill:none;stroke:#366;stroke-width:2" d="M307,703 l102,-238" />
<path style="fill:none;stroke:#366;stroke-width:2" d="M65,706 l212,-233" />
<path style="fill:none;stroke:#366;stroke-width:2" d="M280,699 l-200,-234" />
<path style="fill:none;stroke:#366;stroke-width:2" d="M435,970 l-128,-237" />
<path style="fill:none;stroke:#366;stroke-width:2" d="M307,970 l113,-245" />
<path style="fill:none;stroke:#366;stroke-width:2" d="M54,970 l226,-237" />
<path style="fill:none;stroke:#366;stroke-width:2" d="M288,970 l-223,-245" />
<path style="fill:#9cc;stroke:#000;stroke-width:2" d="M73,450 l117,8 226,-8 0,15 -226,11 -117,-11 0,-15z" />
<path style="fill:#9cc;stroke:#000;stroke-width:2" d="M58,706 l132,8 241,-8 0,19 -241,8 -132,-8 0,-19z" />
<path style="fill:#9cc;stroke:#000;stroke-width:2" d="M28,970 l45,-788 19,0 -42,788 -22,0z" />
<path style="fill:#9ff;stroke:#000;stroke-width:2" d="M80,182 l0,-124 25,-17 30,-6 32,-4 28,-2 32,-1 8,0 8,0 33,0 30,2 28,2 29,5 26,7 16,12 0,2 0,124 -13,24 -24,15 -28,10 -27,6 -30,4 -32,1 -8,1 -8,-1 -32,-1 -30,-4 -26,-6 -29,-10 -24,-15 -13,-20 -1,-4z" />
<path style="fill:#0ff" d="M367,58 l0,124 -53,0 0,-124 -4,-10 -10,-8 -10,-4 -11,-4 -13,-2 -12,-2 -11,0 10,0 10,0 11,1 10,1 11,1 10,1 10,2 10,2 9,2 11,3 10,4 7,5 5,8z" />
<path style="fill:#0ff" d="M80,58 l6,-8 8,-5 11,-4 9,-2 10,-2 11,-2 12,-2 13,-1 13,-2 15,-1 15,0 16,-1 8,0 8,0 8,0 -10,0 -10,0 -10,1 -10,1 -11,1 -10,1 -10,2 -10,2 -9,2 -8,2 -11,4 -9,4 -6,6 -1,4 0,124 0,1 -12,2 -3,0 -4,0 -10,0 -8,-2 -1,-1 0,-124z" />
<path style="fill:#9cc" d="M243,28 l-20,0 -104,0 124,0z" />
<path style="fill:#9cc" d="M405,58 l-6,-8 -7,-5 -11,-4 -9,-2 -10,-2 -11,-2 -13,-2 -13,-1 -13,-2 -15,-1 -15,0 -15,-1 -8,0 -8,0 -8,0 9,0 10,0 10,1 11,1 10,1 11,1 10,2 9,2 9,2 9,2 10,4 9,4 6,6 1,4 0,124 0,1 12,2 3,0 4,0 10,0 8,-2 1,-1 0,-124z" />
<path style="fill:none;stroke:#000;stroke-width:2" d="M80,182 l0,-124 25,-17 30,-6 32,-4 28,-2 32,-1 8,0 8,0 33,0 30,2 28,2 29,5 26,7 16,12 0,2 0,124 -13,24 -24,15 -28,10 -27,6 -30,4 -32,1 -8,1 -8,-1 -32,-1 -30,-4 -26,-6 -29,-10 -24,-15 -13,-20 -1,-4" />
<path style="fill:none;stroke:#7f7f7f;stroke-width:2" d="M239,133 l136,0" />
<path style="fill:none;stroke:#7f7f7f;stroke-width:2" d="M103,58 l283,0" />
<path style="fill:none;stroke:#7f7f7f;stroke-width:2" d="M307,114 l0,-56 -3,-10 -9,-8 -8,-4 -9,-4 -11,-2 -12,-2 -12,0 -13,0 -12,2 -11,2 -9,4 -8,4 -8,8 -3,10 0,117" />
<path style="fill:#699;stroke:#000;stroke-width:2" d="M409,182 l-14,24 -24,16 -29,10 -28,7 -49,11 0,720 -41,0 0,-720 -30,-8 -31,-6 -28,-7 -27,-12 -22,-15 -9,-17 0,-3 332,0z" />
<path style="fill:#ccc;stroke:#000;stroke-width:2" d="M73,179 l339,0 0,3 -339,0 0,-3z" />
<path style="fill:#000" d="M73,179 l0,-16 30,0 -30,0 0,8 30,0 -30,0 0,8z" />
<path style="fill:#000" d="M103,179 l0,-16 27,0 -27,0 0,8 27,0 -27,0 0,8z" />
<path style="fill:#000" d="M130,179 l0,-16 30,0 -27,0 0,8 27,0 -27,0 0,8 -3,0z" />
<path style="fill:#000" d="M160,179 l0,-16 30,0 -30,0 0,8 30,0 -30,0 0,8z" />
<path style="fill:#000" d="M190,179 l0,-16 30,0 -30,0 0,8 30,0 -30,0 0,8z" />
<path style="fill:#000" d="M220,179 l0,-16 26,0 -26,0 0,8 26,0 -26,0 0,8z" />
<path style="fill:#000" d="M246,179 l0,-16 31,0 -27,0 0,8 27,0 -27,0 0,8 -4,0z" />
<path style="fill:#000" d="M277,179 l0,-16 30,0 -30,0 0,8 30,0 -30,0 0,8z" />
<path style="fill:#000" d="M307,179 l0,-16 30,0 -30,0 0,8 30,0 -30,0 0,8z" />
<path style="fill:#000" d="M337,179 l0,-16 26,0 -26,0 0,8 26,0 -26,0 0,8z" />
<path style="fill:#000" d="M363,179 l0,-16 30,0 -26,0 0,8 26,0 -26,0 0,8 -4,0z" />
<path style="fill:#000" d="M393,179 l0,-16 19,0 -19,0 0,8 19,0 -19,0 0,8z" />
<path style="fill:#000" d="M412,179 l0,-16 4,0 0,16 -4,0z" />
<path style="fill:none;stroke:#0ff;stroke-width:2" d="M205,439 l188,-257" />
<path style="fill:none;stroke:#0ff;stroke-width:2" d="M409,450 l-197,-268" />
<path style="fill:none;stroke:#0ff;stroke-width:2" d="M179,182 l-95,268" />
<path style="fill:none;stroke:#0ff;stroke-width:2" d="M84,190 l91,249" />
<path style="fill:none;stroke:#0ff;stroke-width:2" d="M205,695 l204,-230" />
<path style="fill:none;stroke:#0ff;stroke-width:2" d="M420,706 l-211,-241" />
<path style="fill:none;stroke:#0ff;stroke-width:2" d="M175,465 l-110,241" />
<path style="fill:none;stroke:#0ff;stroke-width:2" d="M80,465 l91,234" />
<path style="fill:none;stroke:#0ff;stroke-width:2" d="M205,970 l215,-245" />
<path style="fill:none;stroke:#0ff;stroke-width:2" d="M435,967 l-230,-246" />
<path style="fill:none;stroke:#0ff;stroke-width:2" d="M171,721 l-117,249" />
<path style="fill:none;stroke:#0ff;stroke-width:2" d="M65,725 l102,242" />
<path style="fill:#9cc;stroke:#000;stroke-width:2" d="M435,970 l-42,-788 23,0 42,788 -23,0z" />
<path style="fill:#0ff;stroke:#000;stroke-width:2" d="M73,465 l117,-4 226,4 0,-15 -226,-11 -117,11 0,15z" />
<path style="fill:#0ff;stroke:#000;stroke-width:2" d="M58,725 l132,-7 241,7 0,-19 -241,-11 -132,11 0,19z" />
<path style="fill:#9ff;stroke:#000;stroke-width:2" d="M167,970 l12,-788 33,0 -11,788 -34,0z" />

</svg>
