 

<svg xmlns:agg="http://www.example.com" xmlns="http://www.w3.org/2000/svg" preserveAspectRatio="none" width="1.1673in" height="1.0750in" viewBox="0 0 999 920">

<path style="fill:#b2b2b2;stroke:#000;stroke-width:2" d="M450,263 l30,-29 39,0 29,29 -98,0z" />
<path style="fill:#7f7f7f;stroke:#000;stroke-width:2" d="M478,263 l0,-137 10,0 0,-98 20,0 0,98 11,0 0,137 -41,0z" />
<path style="fill:#e5e5e5" d="M491,263 l0,-137 4,0 0,-98 7,0 0,98 4,0 0,137 -15,0z" />
<path style="fill:#e5e5e5;stroke:#000;stroke-width:2" d="M460,126 l5,-14 14,-6 14,6 6,14 -6,14 -14,6 -14,-6 -5,-14z" />
<path style="fill:#666" d="M715,97 l10,0 0,107 -10,0 0,-107z" />
<path style="fill:#666" d="M666,97 l10,0 0,107 -10,0 0,-107z" />
<path style="fill:#fc0" d="M371,204 l589,0 0,20 -589,0 0,-20z" />
<path style="fill:#fc0" d="M970,263 l-20,0 0,-98 -176,0 0,98 -20,0 0,-98 -177,0 0,98 -19,0 0,-98 -177,0 0,98 -20,0 0,-117 609,0 0,117z" />
<path style="fill:none;stroke:#fff;stroke-width:2" d="M371,263 l0,-108 589,0 0,108" />
<path style="fill:none;stroke:#fff;stroke-width:2" d="M568,155 l0,108" />
<path style="fill:none;stroke:#fff;stroke-width:2" d="M764,155 l0,108" />
<path style="fill:none;stroke:#fff;stroke-width:2" d="M381,214 l177,0" />
<path style="fill:none;stroke:#fff;stroke-width:2" d="M578,214 l176,0" />
<path style="fill:none;stroke:#fff;stroke-width:2" d="M774,214 l177,0" />
<path style="fill:#666" d="M28,303 l20,0 0,-40 922,0 0,40 -19,0 -20,19 0,98 -314,315 0,157 -236,0 0,-157 -314,-315 0,59 -39,0 0,-176z" />
<path style="fill:#7f7f7f" d="M830,420 l-56,118 -68,98 -96,95 -15,3 2,158 -196,0 1,-158 -14,-3 -239,-428 -62,0 0,-40 825,0 -1,40 -61,0 -20,117z" />
<path style="fill:#8c8c8c" d="M785,420 l-48,118 -58,100 -84,93 -12,16 1,144 -170,0 1,-144 -12,-16 -206,-429 -54,0 0,-39 714,0 -1,39 -54,0 -17,118z" />
<path style="fill:#999" d="M740,420 l-39,118 -49,101 -72,92 -9,28 0,132 -144,0 1,-132 -10,-28 -172,-429 -48,0 0,-39 603,0 -1,39 -47,0 -13,118z" />
<path style="fill:#a6a6a6" d="M694,420 l-30,118 -40,102 -58,91 -8,41 0,119 -117,0 0,-119 -8,-41 -139,-429 -40,0 0,-39 491,0 0,39 -41,0 -10,118z" />
<path style="fill:#b2b2b2" d="M551,731 l-6,54 0,106 -91,0 0,-106 -6,-54 -105,-429 -33,0 0,-39 379,0 0,39 -33,0 -105,429z" />
<path style="fill:#bfbfbf" d="M536,731 l-3,67 -1,93 -65,0 -1,-93 -3,-67 -71,-429 -27,0 0,-39 268,0 0,39 -26,0 -71,429z" />
<path style="fill:#ccc" d="M521,731 l-2,161 -39,0 -3,-161 -37,-428 -20,0 0,-40 158,0 0,40 -20,0 -37,428z" />
<path style="fill:#e5e5e5" d="M505,731 l-1,161 -10,0 -1,-161 -9,-428 -5,0 0,-40 40,0 0,40 -5,0 -9,428z" />
<path style="fill:none;stroke:#000;stroke-width:2" d="M695,425 l158,0" />
<path style="fill:none;stroke:#000;stroke-width:2" d="M381,735 l236,0" />
<path style="fill:#333" d="M833,518 l59,-78 39,-128 0,108 -98,98z" />
<path style="fill:none;stroke:#e5e5e5;stroke-width:2" d="M695,420 l157,0" />
<path style="fill:none;stroke:#000;stroke-width:2" d="M28,303 l20,0 0,-40 922,0 0,40 -19,0 -20,19 0,98 -314,315 0,157 -236,0 0,-157 -314,-315 0,59 -39,0 0,-176" />
<path style="fill:#666" d="M676,803 l0,-49 10,0 0,49 -10,0z" />
<path style="fill:#666;stroke:#000;stroke-width:2" d="M607,793 l0,-29 69,0 0,29 -69,0z" />
<path style="fill:#666" d="M322,793 l0,-39 69,0 0,39 -69,0z" />
<path style="fill:#666" d="M322,803 l0,-59 -9,0 0,59 9,0z" />
<path style="fill:#999" d="M686,797 l-10,0 0,-37 10,0 0,37z" />
<path style="fill:#999" d="M676,790 l-69,0 0,-22 69,0 0,22z" />
<path style="fill:#999" d="M391,788 l-69,0 0,-29 69,0 0,29z" />
<path style="fill:#999" d="M313,796 l9,0 0,-44 -9,0 0,44z" />
<path style="fill:#ccc" d="M686,785 l-10,0 0,-12 10,0 0,12z" />
<path style="fill:#ccc" d="M676,782 l-69,0 0,-7 69,0 0,7z" />
<path style="fill:#ccc" d="M391,778 l-69,1 0,-10 69,0 0,9z" />
<path style="fill:#ccc" d="M313,781 l9,0 0,-14 -9,0 0,14z" />
<path style="fill:none;stroke:#000;stroke-width:2" d="M676,803 l0,-49 10,0 0,49 -10,0" />
<path style="fill:none;stroke:#000;stroke-width:2" d="M322,793 l0,-39 69,0 0,39 -69,0" />
<path style="fill:none;stroke:#000;stroke-width:2" d="M322,803 l0,-59 -9,0 0,59 9,0" />
<path style="fill:#ccc;stroke:#000;stroke-width:2" d="M676,87 l39,0 0,49 -39,0 0,-49z" />
<path style="fill:#b2b2b2;stroke:#000;stroke-width:2" d="M607,882 l0,-39 88,0 0,39 -88,0z" />
<path style="fill:#b2b2b2;stroke:#000;stroke-width:2" d="M263,852 l0,-39 128,0 0,39 -128,0z" />
<path style="fill:#e5e5e5" d="M695,877 l-88,0 0,-29 88,0 0,29z" />
<path style="fill:#e5e5e5" d="M391,847 l-128,0 0,-29 128,0 0,29z" />
<path style="fill:#fff" d="M695,867 l-88,0 0,-10 88,0 0,10z" />
<path style="fill:#fff" d="M391,837 l-128,1 0,-10 128,0 0,9z" />
<path style="fill:#b2b2b2;stroke:#000;stroke-width:2" d="M637,892 l0,-59 9,0 0,59 -9,0z" />
<path style="fill:#b2b2b2;stroke:#000;stroke-width:2" d="M352,862 l0,-59 10,0 0,59 -10,0z" />
<path style="fill:#e5e5e5" d="M646,884 l-9,0 0,-44 9,0 0,44z" />
<path style="fill:#e5e5e5" d="M362,855 l-10,0 0,-44 10,0 0,44z" />
<path style="fill:#fff" d="M646,869 l-9,1 0,-15 9,0 0,14z" />
<path style="fill:#fff" d="M362,840 l-10,0 0,-14 10,0 0,14z" />
<path style="fill:#000" d="M694,420 l-30,118 -40,102 -58,91 -8,41 0,90 -167,0 0,-127 -334,-334 0,78 -19,0 0,-167 667,0 -11,108z" />
<path style="fill:#666" d="M48,303 l903,0 -10,9 -884,0 -9,-9z" />
<path style="fill:#666" d="M106,410 l-49,0 0,-9 40,0 0,-40 9,0 0,49z" />
<path style="fill:#666" d="M430,784 l-49,-49 10,0 39,39 0,10z" />
<path style="fill:#7f7f7f;stroke:#000;stroke-width:2" d="M391,852 l167,-78 0,88 -167,0 0,-10z" />
<path style="fill:#b2b2b2" d="M519,793 l39,40 0,29 -29,0 -49,-49 0,-196 39,0 0,176z" />
<path style="fill:#e5e5e5" d="M514,617 l0,181 44,45 0,19 -20,0 -54,-54 1,-191 29,0z" />
<path style="fill:#fff" d="M504,627 l0,176 54,54 0,5 -5,0 -59,-59 0,-176 10,0z" />
<path style="fill:none;stroke:#000;stroke-width:2" d="M519,793 l39,40 0,29 -29,0 -49,-49 0,-186 39,0 0,166" />
<path style="fill:#b2b2b2" d="M529,627 l-59,0 0,-10 59,0 0,10z" />
<path style="fill:#e5e5e5" d="M521,617 l0,10 -44,0 0,-10 44,0z" />
<path style="fill:#fff" d="M506,617 l1,10 -15,0 0,-10 14,0z" />
<path style="fill:none;stroke:#000;stroke-width:2" d="M529,627 l-59,0 0,-10 59,0 0,10" />
<path style="fill:#b2b2b2" d="M509,616 l-19,0 0,-294 19,0 0,294z" />
<path style="fill:#e5e5e5" d="M506,322 l0,294 -14,0 0,-294 14,0z" />
<path style="fill:#fff" d="M502,322 l0,294 -5,0 0,-294 5,0z" />
<path style="fill:none;stroke:#000;stroke-width:2" d="M509,616 l-19,0 0,-294 19,0 0,294" />
<path style="fill:#666;stroke:#000;stroke-width:2" d="M489,578 l-108,-128 236,0 -108,128 -20,0z" />
<path style="fill:#7f7f7f" d="M491,577 l-85,-127 187,0 -86,127 -16,0z" />
<path style="fill:#999" d="M494,577 l-63,-127 137,0 -63,127 -11,0z" />
<path style="fill:#b2b2b2" d="M496,577 l-41,-127 89,0 -41,127 -7,0z" />
<path style="fill:#ccc" d="M497,578 l-18,-128 40,0 -18,128 -4,0z" />
<path style="fill:none;stroke:#000;stroke-width:2" d="M489,578 l-108,-128 236,0 -108,128 -20,0" />

</svg>
