

<svg xmlns:agg="http://www.example.com" xmlns="http://www.w3.org/2000/svg" preserveAspectRatio="none" width="1.7306in" height="1.4792in" viewBox="0 0 530 453">

<path style="fill:#b2b2b2;stroke:#000;stroke-width:2" d="M53,400 l0,-270 1,-8 9,-15 18,-13 12,-7 13,-6 15,-5 16,-5 18,-5 19,-4 20,-3 22,-2 22,-2 22,-2 24,0 24,0 22,2 22,2 22,2 20,3 19,4 18,5 16,5 15,5 13,6 12,7 18,13 9,15 1,8 0,270 -1,4 -17,11 -22,6 -13,3 -15,3 -16,2 -18,3 -19,1 -20,2 -22,1 -22,1 -22,1 -24,0 -24,0 -22,-1 -22,-1 -22,-1 -20,-2 -19,-1 -18,-3 -16,-2 -15,-3 -13,-3 -22,-6 -13,-7 -4,-4 -1,-4z" />
<path style="fill:#ccc" d="M92,400 l0,-270 4,-15 11,-15 18,-13 11,-6 12,-5 14,-5 15,-5 15,-4 17,-3 18,-2 18,-2 19,-2 20,0 20,0 19,2 18,2 18,2 17,3 16,4 15,5 13,5 13,5 21,13 14,13 8,15 1,8 0,270 -1,4 -3,4 -11,7 -18,6 -11,3 -13,3 -13,2 -15,3 -16,1 -17,2 -18,1 -18,1 -19,1 -20,0 -20,0 -19,-1 -18,-1 -18,-1 -17,-2 -15,-1 -15,-3 -14,-2 -23,-6 -18,-6 -11,-7 -3,-4 -1,-4z" />
<path style="fill:#e5e5e5" d="M150,400 l0,-270 3,-15 8,-15 12,-13 16,-11 20,-10 23,-7 25,-4 27,-2 27,2 25,4 23,7 20,10 17,11 12,13 8,15 3,15 0,270 -3,8 -8,7 -12,6 -17,6 -20,5 -23,3 -25,2 -27,1 -27,-1 -25,-2 -23,-3 -20,-5 -16,-6 -12,-6 -8,-7 -3,-8z" />
<path style="fill:none;stroke:#000;stroke-width:2" d="M515,130 l-1,2 -17,6 -22,3 -13,1 -15,2 -16,1 -18,1 -19,1 -20,1 -22,0 -22,1 -92,0 -22,-1 -22,0 -20,-1 -19,-1 -18,-1 -16,-1 -15,-2 -25,-3 -18,-3 -9,-4 -1,-2" />
<path style="fill:#7f7f7f;stroke:#000;stroke-width:2" d="M256,53 l9,10 39,0 0,-19 -29,-29 -231,0 -29,29 0,356 38,0 0,-337 10,-10 193,0z" />
<path style="fill:#4c4c4c;stroke:#000;stroke-width:2" d="M53,400 l-38,0 0,-10 29,0 0,-337 9,-9 212,0 10,9 29,0 0,10 -39,0 -9,-10 -193,0 -10,10 0,337z" />

</svg>
