

<svg xmlns:agg="http://www.example.com" xmlns="http://www.w3.org/2000/svg" preserveAspectRatio="none" width="0.8425in" height="1.4792in" viewBox="0 0 569 999">

<path style="fill:#4c4c4c;stroke:#000;stroke-width:2" d="M133,163 l113,34 76,0 113,-34 -302,0z" />
<path style="fill:#999;stroke:#000;stroke-width:2" d="M133,69 l0,91 302,0 0,-91 -151,-41 -151,41z" />
<path style="fill:#ccc;stroke:#000;stroke-width:2" d="M28,933 l0,-736 18,-19 26,-8 27,-4 27,-2 5,-1 6,0 33,2 28,4 27,8 21,17 0,2 0,1 0,736 -15,20 -24,9 -27,6 -32,2 -5,0 -6,0 -32,-1 -29,-5 -27,-8 -20,-17 -1,-4 0,-2z" />
<path style="fill:#ccc;stroke:#000;stroke-width:2" d="M322,933 l0,-736 19,-19 25,-8 28,-4 26,-2 6,-1 5,0 33,2 28,4 27,8 21,17 0,2 0,1 0,736 -15,20 -24,9 -27,6 -32,2 -5,0 -6,0 -32,-1 -29,-5 -26,-8 -21,-17 -1,-4 0,-2z" />
<path style="fill:#e5e5e5" d="M322,933 l0,-736 19,-18 18,-8 0,792 -24,-12 -13,-18z" />
<path style="fill:#e5e5e5" d="M28,933 l0,-736 19,-18 18,-8 0,792 -24,-12 -13,-18z" />
<path style="fill:#b2b2b2" d="M246,933 l0,-736 -19,-20 -15,-6 0,792 24,-12 10,-18z" />
<path style="fill:#b2b2b2" d="M540,933 l0,-736 -19,-20 -14,-6 0,792 23,-12 10,-18z" />
<path style="fill:#b2b2b2" d="M246,197 l76,0 0,747 -76,0 0,-747z" />
<path style="fill:none;stroke:#000;stroke-width:2" d="M28,933 l0,-736 18,-19 26,-8 27,-4 27,-2 5,-1 6,0 33,2 28,4 27,8 21,17 0,2 0,1 0,736 -15,20 -24,9 -27,6 -32,2 -5,0 -6,0 -32,-1 -29,-5 -27,-8 -20,-17 -1,-4 0,-2" />
<path style="fill:none;stroke:#000;stroke-width:2" d="M322,933 l0,-736 19,-19 25,-8 28,-4 26,-2 6,-1 5,0 33,2 28,4 27,8 21,17 0,2 0,1 0,736 -15,20 -24,9 -27,6 -32,2 -5,0 -6,0 -32,-1 -29,-5 -26,-8 -21,-17 -1,-4 0,-2" />
<path style="fill:none;stroke:#000;stroke-width:2" d="M246,197 l76,0 0,747 -76,0 0,-747" />
<path style="fill:none;stroke:#000;stroke-width:2" d="M514,152 l0,23" />
<path style="fill:none;stroke:#000;stroke-width:2" d="M465,145 l0,18" />
<path style="fill:none;stroke:#000;stroke-width:2" d="M420,141 l0,22" />
<path style="fill:none;stroke:#000;stroke-width:2" d="M371,141 l0,22" />
<path style="fill:none;stroke:#000;stroke-width:2" d="M322,141 l0,22" />
<path style="fill:none;stroke:#000;stroke-width:2" d="M540,197 l0,-15" />
<path style="fill:#b2b2b2;stroke:#000;stroke-width:2" d="M435,967 l23,0 0,-46 -23,0 0,46z" />
<path style="fill:#b2b2b2;stroke:#000;stroke-width:2" d="M137,967 l23,0 0,-46 -23,0 0,46z" />
<path style="fill:#b2b2b2;stroke:#000;stroke-width:2" d="M359,160 l23,0 0,-46 -23,0 0,46z" />
<path style="fill:#7f7f7f;stroke:#000;stroke-width:2" d="M114,967 l23,0 0,-46 -23,0 0,46z" />
<path style="fill:#7f7f7f;stroke:#000;stroke-width:2" d="M412,967 l23,0 0,-46 -23,0 0,46z" />
<path style="fill:#7f7f7f;stroke:#000;stroke-width:2" d="M337,160 l22,0 0,-46 -22,0 0,46z" />
<path style="fill:#666;stroke:#000;stroke-width:2" d="M540,194 l-3,-9 -7,-6 -8,-4 -10,-4 -11,-4 -9,-2 -9,-1 -9,-2 -10,-1 -11,-1 -11,0 -5,0 -6,0 -109,0 0,3 109,0 11,1 11,0 11,1 10,1 9,1 9,2 9,2 11,3 10,4 8,5 7,6 3,7 0,1 0,-3z" />
<path style="fill:none;stroke:#000;stroke-width:2" d="M540,179 l-3,-10 -7,-8 -8,-4 -10,-4 -11,-4 -9,-2 -9,-2 -9,-1 -10,-2 -11,-1 -11,0 -5,0 -6,0 -109,0 0,7 109,0 11,1 11,0 11,1 10,2 9,1 9,2 9,3 11,3 10,5 8,5 7,6 3,7 0,2 0,-7" />

</svg>
