 

<svg xmlns:agg="http://www.example.com" xmlns="http://www.w3.org/2000/svg" preserveAspectRatio="none" width="0.7963in" height="1.0750in" viewBox="0 0 740 999">

<path style="fill:#9cc;stroke:#000;stroke-width:2" d="M659,191 l0,779 -27,0 0,-779 0,-3 1,-2 2,-2 2,-2 2,-1 3,-1 2,0 3,0 2,0 2,0 2,1 1,1 2,2 1,2 1,2 1,3z" />
<path style="fill:#9cc;stroke:#000;stroke-width:2" d="M107,191 l0,779 -26,0 0,-779 0,-3 1,-2 2,-2 2,-2 2,-1 3,-1 2,0 3,0 3,0 2,0 2,1 2,1 1,2 1,2 0,2 0,3z" />
<path style="fill:#9cc;stroke:#000;stroke-width:2" d="M290,191 l0,779 -27,0 0,-779 0,-3 1,-2 1,-2 1,-2 2,-1 2,-1 2,0 3,0 3,0 2,0 3,1 2,1 2,2 2,2 1,2 0,3z" />
<path style="fill:#9cc;stroke:#000;stroke-width:2" d="M476,191 l0,779 -26,0 0,-779 0,-3 1,-2 1,-2 2,-2 3,-1 2,-1 3,0 3,0 2,0 3,0 2,1 1,1 2,2 1,2 0,2 0,3z" />
<path style="fill:none;stroke:#000;stroke-width:2" d="M457,324 l-29,5 -16,10 0,631 -84,0 0,-631 -24,-13 -35,-4 -27,-4 -26,-6 -36,-9 -33,-12 -30,-13 -26,-14 -22,-15 -22,-22 -14,-23 -5,-18 0,-6 0,-8 10,-30 16,-21 23,-20 29,-18 33,-16 26,-9 27,-8 29,-7 31,-6 32,-5 33,-2 35,-2 18,0 18,0 34,2 34,2 32,5 31,6 29,7 27,8 25,9 23,11 31,17 24,19 19,21 13,29 1,8 1,8 0,6 -11,29 -18,23 -27,21 -25,15 -28,13 -32,12 -35,10 -38,9 -27,4 -14,2" />
<path style="fill:none;stroke:#7f7f7f;stroke-width:2" d="M697,970 l-54,-194 54,-190" />
<path style="fill:none;stroke:#7f7f7f;stroke-width:2" d="M643,970 l54,-194 -54,-190" />
<path style="fill:none;stroke:#7f7f7f;stroke-width:2" d="M643,970 l-182,-194 182,-190" />
<path style="fill:none;stroke:#7f7f7f;stroke-width:2" d="M461,970 l182,-194 -182,-190" />
<path style="fill:none;stroke:#7f7f7f;stroke-width:2" d="M461,970 l-182,-194 182,-190" />
<path style="fill:none;stroke:#7f7f7f;stroke-width:2" d="M279,970 l182,-194 -182,-190" />
<path style="fill:none;stroke:#7f7f7f;stroke-width:2" d="M279,970 l-183,-194 183,-190" />
<path style="fill:none;stroke:#7f7f7f;stroke-width:2" d="M96,970 l183,-194 -183,-190" />
<path style="fill:none;stroke:#7f7f7f;stroke-width:2" d="M96,970 l-53,-194 53,-190" />
<path style="fill:none;stroke:#7f7f7f;stroke-width:2" d="M43,970 l53,-194 -53,-190" />
<path style="fill:none;stroke:#7f7f7f;stroke-width:2" d="M697,594 l-54,-190 54,-194" />
<path style="fill:none;stroke:#7f7f7f;stroke-width:2" d="M643,594 l54,-190 -54,-194" />
<path style="fill:none;stroke:#7f7f7f;stroke-width:2" d="M643,594 l-182,-190 182,-194" />
<path style="fill:none;stroke:#7f7f7f;stroke-width:2" d="M461,594 l182,-190 -182,-194" />
<path style="fill:none;stroke:#7f7f7f;stroke-width:2" d="M461,594 l-182,-190 182,-194" />
<path style="fill:none;stroke:#7f7f7f;stroke-width:2" d="M279,594 l182,-190 -182,-194" />
<path style="fill:none;stroke:#7f7f7f;stroke-width:2" d="M279,594 l-183,-190 183,-194" />
<path style="fill:none;stroke:#7f7f7f;stroke-width:2" d="M96,594 l183,-190 -183,-194" />
<path style="fill:none;stroke:#7f7f7f;stroke-width:2" d="M96,594 l-53,-190 53,-194" />
<path style="fill:none;stroke:#7f7f7f;stroke-width:2" d="M43,594 l53,-190 -53,-194" />
<path style="fill:#0ff;stroke:#000;stroke-width:2" d="M457,324 l-29,5 -16,10 0,631 -84,0 0,-631 -24,-13 -35,-4 -27,-4 -26,-6 -36,-9 -33,-12 -30,-13 -26,-14 -22,-15 -22,-22 -14,-23 -5,-18 0,-6 0,-8 10,-30 16,-21 23,-20 29,-18 33,-16 26,-9 27,-8 29,-7 31,-6 32,-5 33,-2 35,-2 18,0 18,0 34,2 34,2 32,5 31,6 29,7 27,8 25,9 23,11 31,17 24,19 19,21 13,29 1,8 1,8 0,6 -11,29 -18,23 -27,21 -25,15 -28,13 -32,12 -35,10 -38,9 -27,4 -14,2z" />
<path style="fill:#9cc;stroke:#000;stroke-width:2" d="M317,370 l106,0 0,23 -106,0 0,-23z" />
<ellipse style="fill:#9ff" cx="347" cy="162" rx="289" ry="127" />
<path style="fill:none;stroke:#000;stroke-width:2" d="M685,970 l-186,-194 186,-190" />
<path style="fill:none;stroke:#000;stroke-width:2" d="M499,970 l186,-194 -186,-190" />
<path style="fill:none;stroke:#000;stroke-width:2" d="M472,970 l-205,-194 205,-190" />
<path style="fill:none;stroke:#000;stroke-width:2" d="M267,970 l205,-194 -205,-190" />
<path style="fill:none;stroke:#000;stroke-width:2" d="M241,970 l-187,-194 187,-190" />
<path style="fill:none;stroke:#000;stroke-width:2" d="M54,970 l187,-194 -187,-190" />
<path style="fill:none;stroke:#000;stroke-width:2" d="M685,594 l-186,-190 186,-194" />
<path style="fill:none;stroke:#000;stroke-width:2" d="M499,594 l186,-190 -186,-194" />
<path style="fill:none;stroke:#000;stroke-width:2" d="M472,594 l-205,-190 205,-194" />
<path style="fill:none;stroke:#000;stroke-width:2" d="M267,594 l205,-190 -205,-194" />
<path style="fill:none;stroke:#000;stroke-width:2" d="M241,594 l-187,-190 187,-194" />
<path style="fill:none;stroke:#000;stroke-width:2" d="M54,594 l187,-190 -187,-194" />
<path style="fill:#699;stroke:#000;stroke-width:2" d="M28,586 l684,0 0,8 -684,0 0,-8z" />
<path style="fill:#9ff;stroke:#000;stroke-width:2" d="M54,191 l0,779 -26,0 0,-779 0,-3 1,-2 2,-2 1,-2 3,-1 2,-1 3,0 3,0 1,0 2,0 2,1 2,1 2,2 1,2 1,2 0,3z" />
<path style="fill:#9ff;stroke:#000;stroke-width:2" d="M267,191 l0,779 -26,0 0,-779 0,-3 1,-2 1,-2 2,-2 3,-1 2,-1 3,0 3,0 2,0 3,0 2,1 1,1 2,2 0,2 1,2 0,3z" />
<path style="fill:#9ff;stroke:#000;stroke-width:2" d="M499,191 l0,779 -27,0 0,-779 1,-3 0,-2 1,-2 1,-2 2,-1 2,-1 2,0 3,0 3,0 2,0 3,1 2,1 2,2 2,2 1,2 0,3z" />
<path style="fill:#9ff;stroke:#000;stroke-width:2" d="M712,191 l0,779 -27,0 0,-779 1,-3 1,-2 1,-2 2,-2 2,-1 3,-1 3,0 2,0 3,0 2,0 2,1 2,1 1,2 1,2 1,2 0,3z" />

</svg>
