

<svg xmlns:agg="http://www.example.com" xmlns="http://www.w3.org/2000/svg" preserveAspectRatio="none" width="0.4901in" height="1.4792in" viewBox="0 0 331 999">

<path style="fill:#666638" d="M28,970 l0,-882 49,-47 88,-13 87,13 51,47 0,882 -275,0z" />
<path style="fill:#78784f" d="M40,970 l0,-882 50,-47 75,-13 75,13 38,47 0,882 -238,0z" />
<path style="fill:#878763" d="M65,970 l0,-882 38,-47 62,-13 63,13 37,47 0,882 -200,0z" />
<path style="fill:#99997a" d="M77,970 l0,-882 38,-47 50,-13 50,13 25,47 0,882 -163,0z" />
<path style="fill:#abab91" d="M103,970 l0,-882 24,-47 38,-13 38,13 12,47 0,882 -112,0z" />
<path style="fill:#babaa6" d="M127,970 l0,-882 13,-47 25,-13 25,13 13,47 0,882 -76,0z" />
<path style="fill:#e5e5dd" d="M140,970 l0,-882 13,-47 12,-13 13,13 0,47 0,882 -38,0z" />
<path style="fill:none;stroke:#000;stroke-width:2" d="M28,970 l0,-882 49,-47 88,-13 87,13 51,47 0,882 -275,0" />
<path style="fill:none;stroke:#7f7f59;stroke-width:2" d="M28,852 l275,0" />
<path style="fill:none;stroke:#7f7f59;stroke-width:2" d="M28,735 l275,0" />
<path style="fill:none;stroke:#7f7f59;stroke-width:2" d="M28,617 l275,0" />
<path style="fill:none;stroke:#7f7f59;stroke-width:2" d="M28,499 l275,0" />
<path style="fill:none;stroke:#7f7f59;stroke-width:2" d="M28,381 l275,0" />
<path style="fill:none;stroke:#7f7f59;stroke-width:2" d="M28,263 l275,0" />
<path style="fill:none;stroke:#7f7f59;stroke-width:2" d="M28,146 l275,0" />

</svg>
