

<svg xmlns:agg="http://www.example.com" xmlns="http://www.w3.org/2000/svg" preserveAspectRatio="none" width="1.7739in" height="1.4792in" viewBox="0 0 999 833">

<path style="fill:#e5e5e5;stroke:#000;stroke-width:2" d="M39,75 l918,0 2,730 -139,0 0,-72 -644,0 0,72 -137,0 0,-730z" />
<path style="fill:#ccc" d="M967,300 l3,85 0,87 -3,82 -8,76 -11,62 -13,43 -16,23 -840,0 -16,-23 -13,-43 -11,-62 -8,-76 -3,-82 0,-87 3,-85 8,-75 11,-60 13,-43 16,-23 840,0 16,21 13,43 11,62 8,75z" />
<path style="fill:#d1d1d1" d="M967,312 l3,75 0,81 -3,75 -8,70 -9,56 -14,40 -13,21 -848,0 -13,-21 -14,-40 -9,-56 -8,-68 -3,-77 0,-81 3,-75 8,-70 9,-56 14,-40 13,-21 848,0 13,21 14,40 9,56 8,70z" />
<path style="fill:#d6d6d6" d="M967,321 l3,70 0,73 -3,70 -6,62 -9,51 -12,35 -11,19 -860,0 -11,-19 -12,-35 -9,-51 -6,-62 -3,-70 0,-73 3,-70 6,-62 9,-51 12,-36 11,-18 860,0 11,18 12,36 9,51 6,62z" />
<path style="fill:#d9d9d9" d="M967,333 l3,62 0,66 -3,62 -6,56 -8,45 -9,32 -11,17 -868,0 -11,-17 -9,-32 -8,-45 -6,-56 -3,-62 0,-66 3,-62 6,-57 8,-45 9,-32 11,-17 868,0 11,17 9,32 8,45 6,57z" />
<path style="fill:#dedede" d="M967,344 l3,54 0,59 -3,54 -4,51 -8,40 -7,30 -10,13 -878,0 -10,-13 -7,-30 -8,-40 -4,-51 -3,-54 0,-59 3,-54 4,-51 8,-40 7,-28 10,-17 878,0 10,15 7,30 8,40 4,51z" />
<path style="fill:#e3e3e3" d="M969,353 l1,49 0,51 -1,49 -4,43 -8,36 -7,24 -8,14 -886,0 -8,-14 -7,-26 -6,-34 -6,-43 -1,-49 0,-51 1,-49 6,-43 6,-34 7,-26 8,-13 886,0 8,13 7,26 8,34 4,43z" />
<path style="fill:#e8e8e8" d="M969,365 l1,41 0,43 -1,42 -4,35 -4,32 -8,21 -5,11 -896,0 -7,-11 -6,-21 -6,-30 -4,-37 -1,-42 0,-43 1,-41 4,-38 6,-30 6,-21 7,-11 896,0 5,11 8,21 4,32 4,36z" />
<path style="fill:#ededed" d="M969,376 l1,34 0,35 -1,34 -2,30 -4,27 -6,17 -5,9 -906,0 -5,-9 -4,-17 -6,-25 -2,-32 -1,-34 0,-35 1,-34 2,-30 6,-27 4,-17 5,-9 906,0 5,9 6,17 4,27 2,30z" />
<path style="fill:#f2f2f2" d="M969,387 l1,26 0,28 -1,27 -2,24 -2,21 -4,15 -4,6 -914,0 -6,-6 -4,-15 -2,-21 -2,-22 -1,-29 0,-28 1,-26 2,-25 2,-20 4,-13 6,-8 914,0 4,8 4,13 2,20 2,25z" />
<path style="fill:#f5f5f5" d="M970,396 l0,21 0,21 0,20 -1,17 -2,16 -4,11 -2,5 -924,0 -2,-5 -4,-11 -2,-16 0,-17 -1,-20 0,-21 1,-21 0,-17 2,-14 4,-12 2,-5 924,0 2,5 4,12 2,14 1,17z" />
<path style="fill:#fafafa" d="M970,408 l0,13 0,13 0,13 -1,11 0,10 -2,7 0,4 -934,0 -2,-4 -2,-7 0,-10 -1,-11 0,-13 0,-13 0,-13 1,-12 0,-9 2,-8 2,-3 934,0 0,3 2,8 0,9 1,12z" />
<path style="fill:#fff" d="M970,419 l0,6 0,5 0,6 0,5 0,6 0,2 0,2 -942,0 0,-2 0,-2 0,-6 0,-5 0,-6 0,-5 0,-6 0,-6 0,-3 0,-4 0,-2 942,0 0,2 0,4 0,3 0,6z" />
<path style="fill:none;stroke:#000;stroke-width:2" d="M967,300 l3,85 0,87 -3,82 -8,76 -11,62 -13,43 -16,23 -840,0 -16,-23 -13,-43 -11,-62 -8,-76 -3,-82 0,-87 3,-85 8,-75 11,-60 13,-43 16,-23 840,0 16,21 13,43 11,62 8,75" />
<path style="fill:#f5f5f5" d="M75,498 l141,0 0,307 -141,0 0,-307z" />
<path style="fill:none;stroke:#000;stroke-width:2" d="M75,498 l0,307 141,0 0,-307" />
<path style="fill:#f5f5f5" d="M428,498 l142,0 0,307 -142,0 0,-307z" />
<path style="fill:none;stroke:#000;stroke-width:2" d="M428,498 l0,307 142,0 0,-307" />
<path style="fill:#f5f5f5" d="M782,498 l141,0 0,307 -141,0 0,-307z" />
<path style="fill:none;stroke:#000;stroke-width:2" d="M782,498 l0,307 141,0 0,-307" />
<path style="fill:#e5e5e5;stroke:#000;stroke-width:2" d="M404,63 l188,0 0,12 -188,0 0,-12z" />
<path style="fill:#e5e5e5;stroke:#000;stroke-width:2" d="M464,28 l70,0 0,35 -70,0 0,-35z" />
<path style="fill:none;stroke:#000;stroke-width:2" d="M511,63 l0,-35" />

</svg>
