

<svg xmlns:agg="http://www.example.com" xmlns="http://www.w3.org/2000/svg" preserveAspectRatio="none" width="1.5687in" height="1.4792in" viewBox="0 0 999 942">

<path style="fill:#000;stroke:#000;stroke-width:2" d="M28,84 l942,0 0,830 -942,0 0,-830z" />
<path style="fill:#333;stroke:#000;stroke-width:2" d="M56,84 l858,0 0,830 -858,0 0,-830z" />
<path style="fill:#4c4c4c" d="M84,84 l748,0 0,830 -748,0 0,-830z" />
<path style="fill:none;stroke:#000;stroke-width:2" d="M28,84 l942,0 0,830 -942,0 0,-830" />
<path style="fill:#333" d="M42,899 l914,0 0,15 -914,0 0,-15z" />
<path style="fill:#333" d="M42,733 l914,0 0,14 -914,0 0,-14z" />
<path style="fill:#333" d="M42,566 l914,0 0,15 -914,0 0,-15z" />
<path style="fill:#333" d="M42,400 l914,0 0,14 -914,0 0,-14z" />
<path style="fill:#333" d="M42,237 l914,0 0,10 -914,0 0,-10z" />
<path style="fill:none;stroke:#4c4c4c;stroke-width:2" d="M28,747 l942,0" />
<path style="fill:none;stroke:#4c4c4c;stroke-width:2" d="M28,581 l942,0" />
<path style="fill:none;stroke:#4c4c4c;stroke-width:2" d="M28,414 l942,0" />
<path style="fill:none;stroke:#4c4c4c;stroke-width:2" d="M28,247 l942,0" />
<path style="fill:#ff0;stroke:#ff0;stroke-width:2" d="M428,88 l0,-60 131,0 0,7 -120,0 0,10 120,0 0,4 -120,0 0,11 120,0 0,7 -120,0 0,21 -11,0z" />
<path style="fill:#ff0;stroke:#ff0;stroke-width:2" d="M293,88 l0,-60 135,0 0,7 -124,0 0,10 124,0 0,4 -124,0 0,11 124,0 0,7 -124,0 0,21 -11,0z" />
<path style="fill:#ff0;stroke:#ff0;stroke-width:2" d="M162,88 l0,-60 131,0 0,7 -120,0 0,10 120,0 0,4 -120,0 0,11 120,0 0,7 -120,0 0,21 -11,0z" />
<path style="fill:#ff0;stroke:#ff0;stroke-width:2" d="M28,88 l0,-60 134,0 0,7 -124,0 0,10 124,0 0,4 -124,0 0,11 124,0 0,7 -124,0 0,21 -10,0z" />
<ellipse style="fill:#ff0;stroke:#ff0;stroke-width:2" cx="965" cy="58" rx="5" ry="30" />
<path style="fill:#ff0;stroke:#ff0;stroke-width:2" d="M825,88 l0,-60 135,0 0,7 -124,0 0,10 124,0 0,4 -124,0 0,11 124,0 0,7 -124,0 0,21 -11,0z" />
<path style="fill:#ff0;stroke:#ff0;stroke-width:2" d="M694,88 l0,-60 131,0 0,7 -120,0 0,10 120,0 0,4 -120,0 0,11 120,0 0,7 -120,0 0,21 -11,0z" />
<path style="fill:#ff0;stroke:#ff0;stroke-width:2" d="M559,88 l0,-60 135,0 0,7 -124,0 0,10 124,0 0,4 -124,0 0,11 124,0 0,7 -124,0 0,21 -11,0z" />
<path style="fill:none;stroke:#000;stroke-width:2" d="M570,45 l0,-10 124,0" />
<path style="fill:none;stroke:#000;stroke-width:2" d="M570,60 l0,-11 124,0" />
<path style="fill:none;stroke:#000;stroke-width:2" d="M570,88 l0,-21 124,0" />
<path style="fill:none;stroke:#000;stroke-width:2" d="M705,45 l0,-10 120,0" />
<path style="fill:none;stroke:#000;stroke-width:2" d="M705,60 l0,-11 120,0" />
<path style="fill:none;stroke:#000;stroke-width:2" d="M705,88 l0,-21 120,0" />
<path style="fill:none;stroke:#000;stroke-width:2" d="M836,45 l0,-10 124,0" />
<path style="fill:none;stroke:#000;stroke-width:2" d="M836,60 l0,-11 124,0" />
<path style="fill:none;stroke:#000;stroke-width:2" d="M836,88 l0,-21 124,0" />
<path style="fill:none;stroke:#000;stroke-width:2" d="M970,88 l0,-60" />
<path style="fill:none;stroke:#000;stroke-width:2" d="M38,45 l0,-10 124,0" />
<path style="fill:none;stroke:#000;stroke-width:2" d="M38,60 l0,-11 124,0" />
<path style="fill:none;stroke:#000;stroke-width:2" d="M38,88 l0,-21 124,0" />
<path style="fill:none;stroke:#000;stroke-width:2" d="M173,45 l0,-10 120,0" />
<path style="fill:none;stroke:#000;stroke-width:2" d="M173,60 l0,-11 120,0" />
<path style="fill:none;stroke:#000;stroke-width:2" d="M173,88 l0,-21 120,0" />
<path style="fill:none;stroke:#000;stroke-width:2" d="M304,45 l0,-10 124,0" />
<path style="fill:none;stroke:#000;stroke-width:2" d="M304,60 l0,-11 124,0" />
<path style="fill:none;stroke:#000;stroke-width:2" d="M304,88 l0,-21 124,0" />
<path style="fill:none;stroke:#000;stroke-width:2" d="M439,45 l0,-10 120,0" />
<path style="fill:none;stroke:#000;stroke-width:2" d="M439,60 l0,-11 120,0" />
<path style="fill:none;stroke:#000;stroke-width:2" d="M439,88 l0,-21 120,0" />

</svg>
