

<svg xmlns:agg="http://www.example.com" xmlns="http://www.w3.org/2000/svg" preserveAspectRatio="none" width="0.9991in" height="1.4792in" viewBox="0 0 358 530">

<path style="fill:#4c4c4c" d="M23,15 l312,0 0,500 -312,0 0,-500z" />
<path style="fill:#666" d="M23,15 l302,0 0,500 -302,0 0,-500z" />
<path style="fill:#7f7f7f" d="M23,15 l283,0 0,500 -283,0 0,-500z" />
<path style="fill:#b2b2b2" d="M23,15 l263,0 0,500 -263,0 0,-500z" />
<path style="fill:#ccc" d="M23,15 l215,0 0,500 -215,0 0,-500z" />
<path style="fill:#e5e5e5" d="M23,15 l146,0 0,500 -146,0 0,-500z" />
<path style="fill:#fff" d="M23,15 l78,0 0,500 -78,0 0,-500z" />
<path style="fill:#e5e5e5" d="M23,15 l48,0 0,500 -48,0 0,-500z" />
<path style="fill:#ccc" d="M23,15 l19,0 0,500 -19,0 0,-500z" />
<path style="fill:none;stroke:#000;stroke-width:2" d="M23,15 l312,0 0,500 -312,0 0,-500" />
<path style="fill:#666" d="M15,15 l328,0 0,8 -328,0 0,-8z" />
<path style="fill:none;stroke:#e5e5e5;stroke-width:2" d="M23,15 l-8,0 0,8" />
<path style="fill:none;stroke:#e5e5e5;stroke-width:2" d="M343,15 l-320,0" />
<path style="fill:none;stroke:#000;stroke-width:2" d="M15,23 l328,0 0,-8" />
<path style="fill:#666" d="M15,177 l328,0 0,8 -328,0 0,-8z" />
<path style="fill:none;stroke:#e5e5e5;stroke-width:2" d="M23,177 l-8,0 0,8" />
<path style="fill:none;stroke:#e5e5e5;stroke-width:2" d="M343,177 l-320,0" />
<path style="fill:none;stroke:#000;stroke-width:2" d="M15,185 l328,0 0,-8" />
<path style="fill:#666" d="M15,340 l328,0 0,8 -328,0 0,-8z" />
<path style="fill:none;stroke:#e5e5e5;stroke-width:2" d="M23,340 l-8,0 0,8" />
<path style="fill:none;stroke:#e5e5e5;stroke-width:2" d="M343,340 l-320,0" />
<path style="fill:none;stroke:#000;stroke-width:2" d="M15,348 l328,0 0,-8" />
<path style="fill:#666" d="M15,507 l328,0 0,8 -328,0 0,-8z" />
<path style="fill:none;stroke:#e5e5e5;stroke-width:2" d="M23,507 l-8,0 0,8" />
<path style="fill:none;stroke:#e5e5e5;stroke-width:2" d="M343,507 l-320,0" />
<path style="fill:none;stroke:#000;stroke-width:2" d="M15,515 l328,0 0,-8" />

</svg>
