

<svg xmlns:agg="http://www.example.com" xmlns="http://www.w3.org/2000/svg" preserveAspectRatio="none" width="1.1075in" height="1.4792in" viewBox="0 0 748 999">

<path style="fill:#900;stroke:#000;stroke-width:2" d="M363,667 l21,0 0,260 -21,0 0,-260z" />
<path style="fill:#900;stroke:#000;stroke-width:2" d="M49,872 l22,-11 43,-10 61,-7 73,-6 83,-3 85,0 83,3 74,6 62,7 41,10 23,11 0,23 -23,-11 -41,-10 -62,-9 -74,-4 -83,-4 -85,0 -83,4 -73,4 -61,9 -43,10 -22,11 0,-23z" />
<path style="fill:#ccc" d="M28,82 l0,347 283,238 126,0 283,-238 0,-347 -33,-22 -629,0 -30,22z" />
<path style="fill:#d1d1d1" d="M58,82 l0,347 258,238 115,0 260,-238 0,-347 -30,-22 -575,0 -28,22z" />
<path style="fill:#d6d6d6" d="M88,82 l0,347 234,238 105,0 234,-238 0,-347 -26,-22 -523,0 -24,22z" />
<path style="fill:#d9d9d9" d="M118,82 l0,347 209,238 95,0 209,-238 0,-347 -25,-22 -465,0 -23,22z" />
<path style="fill:#dedede" d="M147,82 l1,347 185,238 83,0 185,-238 0,-347 -21,-22 -413,0 -20,22z" />
<path style="fill:#e3e3e3" d="M178,82 l0,347 161,238 72,0 160,-238 0,-347 -19,-22 -356,0 -18,22z" />
<path style="fill:#e8e8e8" d="M209,82 l0,347 135,238 61,0 135,-238 0,-347 -15,-22 -301,0 -15,22z" />
<path style="fill:#ededed" d="M237,82 l2,347 111,238 49,0 111,-238 0,-347 -11,-22 -249,0 -13,22z" />
<path style="fill:#f2f2f2" d="M267,82 l0,347 89,238 37,0 87,-238 0,-347 -9,-22 -195,0 -9,22z" />
<path style="fill:#f5f5f5" d="M297,82 l0,347 65,238 26,0 64,-238 0,-347 -8,-22 -139,0 -8,22z" />
<path style="fill:#fafafa" d="M327,82 l0,347 38,238 19,0 38,-238 0,-347 -6,-22 -83,0 -6,22z" />
<path style="fill:#fff" d="M358,82 l0,347 13,238 5,0 16,-238 0,-347 -2,-22 -30,0 -2,22z" />
<path style="fill:none;stroke:#000;stroke-width:2" d="M28,82 l0,347 283,238 126,0 283,-238 0,-347 -33,-22 -629,0 -30,22" />
<path style="fill:#ccc;stroke:#000;stroke-width:2" d="M122,50 l503,0 0,10 -503,0 0,-10z" />
<path style="fill:#333;stroke:#000;stroke-width:2" d="M169,50 l409,0 0,-11 -409,0 0,11z" />
<path style="fill:#333;stroke:#000;stroke-width:2" d="M325,39 l95,0 0,-11 -95,0 0,11z" />
<path style="fill:#bf2600;stroke:#000;stroke-width:2" d="M49,407 l20,0 0,563 -20,0 0,-563z" />
<path style="fill:#bf2600;stroke:#000;stroke-width:2" d="M678,407 l21,0 0,563 -21,0 0,-563z" />
<path style="fill:#bf2600;stroke:#000;stroke-width:2" d="M699,895 l-23,11 -43,10 -60,7 -74,6 -83,4 -85,0 -83,-4 -73,-6 -61,-7 -43,-10 -22,-11 0,-23 22,12 43,11 61,7 73,6 83,2 85,0 83,-2 74,-6 60,-7 43,-11 23,-12 0,23z" />
<path style="fill:#bf2600;stroke:#000;stroke-width:2" d="M676,456 l0,22 -607,0 0,-22 607,0z" />

</svg>
