

<svg xmlns:agg="http://www.example.com" xmlns="http://www.w3.org/2000/svg" preserveAspectRatio="none" width="2.0104in" height="1.3769in" viewBox="0 0 530 363">

<path style="fill:#7f7f7f;stroke:#000;stroke-width:2" d="M514,152 l-1,145 -1,5 -10,10 -19,9 -12,4 -15,4 -16,4 -17,3 -19,3 -21,3 -21,2 -23,2 -24,1 -25,1 -25,0 -26,0 -24,-1 -24,-1 -23,-2 -22,-2 -20,-3 -20,-3 -17,-3 -16,-3 -15,-4 -22,-9 -15,-9 -4,-5 -1,-5 -1,-148 5,-13 6,-13 9,-12 10,-11 12,-11 13,-11 15,-9 16,-9 18,-8 18,-7 20,-6 20,-5 21,-5 22,-3 22,-1 23,-1 23,1 22,1 22,3 21,5 20,5 20,6 18,7 18,8 16,9 14,10 14,10 11,11 11,12 8,13 6,13 5,13z" />
<path style="fill:#ccc;stroke:#ccc;stroke-width:2" d="M357,193 l-11,1 -11,0 -11,1 -12,0 -12,1 -11,0 -12,0 -12,0 0,-171 19,3 17,9 16,14 14,18 11,23 9,25 5,29 2,30 0,4 0,5 -1,4 0,4z" />
<path style="fill:#ccc;stroke:#ccc;stroke-width:2" d="M85,182 l19,3 22,3 23,3 24,2 0,-17 2,-30 5,-29 9,-25 11,-23 13,-18 16,-14 17,-9 19,-3 -18,1 -18,2 -17,4 -17,5 -16,6 -14,8 -14,9 -13,9 -12,11 -10,12 -9,12 -8,13 -6,14 -4,15 -3,15 -1,15 0,6z" />
<path style="fill:#e5e5e5;stroke:#fff;stroke-width:2" d="M174,193 l11,1 11,0 11,1 11,0 12,1 12,0 11,0 12,0 0,-171 -19,3 -17,9 -16,14 -13,18 -11,23 -9,25 -5,29 -2,30 0,4 0,5 0,4 1,4z" />
<path style="fill:#999;stroke:#999;stroke-width:2" d="M515,150 l-7,9 -15,8 -21,7 -13,4 -14,3 0,-5 -1,-15 -3,-15 -4,-15 -6,-14 -8,-13 -9,-12 -10,-12 -12,-11 -13,-9 -14,-9 -14,-8 -16,-6 -17,-5 -17,-4 -18,-2 -18,-1 23,1 22,1 22,3 21,4 20,5 19,6 19,7 17,8 16,9 15,9 13,11 12,11 11,11 8,13 7,13 5,13z" />
<path style="fill:#b2b2b2;stroke:#b2b2b2;stroke-width:2" d="M15,150 l14,13 18,8 11,3 13,4 14,3 0,-5 1,-15 3,-15 4,-15 6,-14 8,-13 9,-12 10,-12 12,-11 13,-9 14,-9 14,-8 16,-6 17,-5 17,-4 18,-2 18,-1 -23,1 -22,1 -21,3 -21,4 -21,5 -19,6 -18,7 -17,8 -17,9 -14,9 -14,11 -12,11 -10,11 -9,13 -7,13 -5,13z" />
<path style="fill:#b2b2b2;stroke:#b2b2b2;stroke-width:2" d="M445,182 l-19,3 -22,3 -23,3 -24,2 1,-17 -2,-30 -5,-29 -9,-25 -11,-23 -14,-18 -16,-14 -17,-9 -19,-3 18,1 18,2 17,4 17,5 16,6 14,8 14,9 13,9 12,11 10,12 9,12 8,13 6,14 4,15 3,15 1,15 0,6z" />
<path style="fill:#999;stroke:#b2b2b2;stroke-width:2" d="M513,298 l-1,3 -1,3 -3,3 -4,3 -4,4 -6,3 -7,3 -7,3 -1,-152 8,-3 6,-3 6,-3 5,-3 3,-3 3,-3 1,-4 1,-3 1,152z" />
<path style="fill:#b2b2b2;stroke:#b2b2b2;stroke-width:2" d="M425,184 l8,-1 7,-2 8,-1 7,-2 7,-1 6,-2 6,-2 6,-2 0,152 -6,2 -6,1 -6,2 -7,1 -7,2 -8,2 -7,1 -8,2 0,-152z" />
<path style="fill:#b2b2b2;stroke:#b2b2b2;stroke-width:2" d="M18,298 l1,3 1,3 3,3 3,3 5,4 6,3 6,3 8,3 0,-152 -7,-3 -7,-3 -6,-3 -4,-3 -4,-3 -3,-3 -1,-4 -1,-3 0,152z" />
<path style="fill:#ccc;stroke:#b2b2b2;stroke-width:2" d="M425,336 l0,-152 -9,1 -9,2 -9,1 -10,1 -10,2 -10,1 -10,1 -10,1 0,151 10,-1 10,-1 10,-1 10,-1 10,-1 9,-1 9,-2 9,-1z" />
<path style="fill:#ccc;stroke:#b2b2b2;stroke-width:2" d="M105,184 l-8,-1 -7,-2 -8,-1 -7,-2 -7,-1 -6,-2 -6,-2 -5,-2 0,152 5,2 6,1 6,2 7,1 7,2 8,2 7,1 8,2 0,-152z" />
<path style="fill:#e5e5e5;stroke:#b2b2b2;stroke-width:2" d="M105,336 l0,-152 9,1 9,2 9,1 10,1 10,2 10,1 11,1 10,1 0,151 -10,-1 -11,-1 -10,-1 -10,-1 -10,-1 -9,-1 -9,-2 -9,-1z" />
<path style="fill:#e5e5e5;stroke:#b2b2b2;stroke-width:2" d="M348,345 l0,-151 -10,0 -10,1 -11,0 -10,1 -11,0 -10,1 -11,0 -10,0 0,151 10,0 11,0 10,0 11,-1 10,0 11,-1 10,0 10,-1z" />
<path style="fill:#fff;stroke:#b2b2b2;stroke-width:2" d="M183,345 l0,-151 10,0 10,1 10,0 10,1 11,0 10,1 11,0 10,0 0,151 -10,0 -11,0 -10,0 -11,-1 -10,0 -10,-1 -10,0 -10,-1z" />
<path style="fill:none;stroke:#b2b2b2;stroke-width:2" d="M513,197 l-1,5 -10,10 -19,9 -13,4 -14,4 -16,3 -18,3 -19,3 -20,3 -22,2 -23,2 -23,1 -25,1 -50,0 -25,-1 -23,-1 -23,-2 -22,-2 -20,-3 -19,-3 -17,-3 -16,-3 -15,-4 -23,-9 -14,-9 -4,-5 -1,-5" />
<path style="fill:none;stroke:#b2b2b2;stroke-width:2" d="M513,247 l-1,5 -10,10 -19,9 -13,4 -14,4 -16,3 -18,4 -19,3 -20,2 -22,2 -23,2 -23,1 -25,1 -50,0 -25,-1 -23,-1 -23,-2 -22,-2 -20,-2 -19,-3 -17,-4 -16,-3 -15,-4 -23,-8 -14,-10 -4,-5 -1,-5" />
<path style="fill:none;stroke:#000;stroke-width:2" d="M515,145 l-1,5 -10,10 -19,9 -13,5 -14,4 -16,3 -18,4 -19,3 -21,3 -22,2 -23,2 -24,1 -24,1 -52,0 -24,-1 -24,-1 -23,-2 -22,-2 -21,-3 -19,-3 -18,-4 -16,-3 -14,-4 -13,-5 -19,-9 -10,-10 -1,-5" />
<path style="fill:none;stroke:#000;stroke-width:2" d="M515,151 l-1,146 -1,5 -10,10 -19,9 -13,4 -14,4 -16,4 -18,3 -19,3 -21,3 -22,2 -23,2 -24,1 -24,1 -26,0 -25,0 -25,-1 -23,-1 -23,-2 -22,-2 -21,-3 -19,-3 -17,-3 -17,-3 -14,-4 -13,-4 -19,-9 -10,-10 -1,-5 0,-147 5,-13 6,-13 9,-13 10,-12 12,-11 14,-10 14,-10 17,-9 17,-8 18,-7 20,-6 20,-5 22,-5 21,-3 23,-1 23,-1 23,1 22,1 22,3 21,5 20,5 19,6 19,7 17,8 16,9 15,10 13,10 12,11 10,12 9,13 6,13 5,13" />
<ellipse style="fill:#7f7f7f;stroke:#000;stroke-width:2" cx="265" cy="26" rx="37" ry="11" />
<path style="fill:none;stroke:#000;stroke-width:2" d="M296,21 l-1,1 -1,1 -3,1 -4,1 -5,1 -5,0 -6,1 -6,0 -6,0 -6,-1 -5,0 -5,-1 -4,-1 -3,-1 -1,-1 -1,-1" />
<ellipse style="fill:#333;stroke:#000;stroke-width:2" cx="265" cy="20" rx="23" ry="4" />

</svg>
