 

<svg xmlns:agg="http://www.example.com" xmlns="http://www.w3.org/2000/svg" preserveAspectRatio="none" width="0.3975in" height="1.0750in" viewBox="0 0 196 530">

<path style="fill:#3da3a3" d="M60,148 l5,0 -25,367 -5,0 25,-367z" />
<path style="fill:#5cc2c2" d="M60,148 l4,0 -24,367 -4,0 24,-367z" />
<path style="fill:#9ff" d="M61,148 l2,0 -24,367 -2,0 24,-367z" />
<path style="fill:none;stroke:#000;stroke-width:2" d="M60,148 l5,0 -25,367 -5,0 25,-367" />
<path style="fill:none;stroke:#7f7f7f;stroke-width:2" d="M38,515 l-8,-122" />
<path style="fill:none;stroke:#7f7f7f;stroke-width:2" d="M22,515 l24,-122" />
<path style="fill:#3da3a3" d="M133,148 l5,0 23,367 -6,0 -22,-367z" />
<path style="fill:#5cc2c2" d="M134,148 l4,0 22,367 -4,0 -22,-367z" />
<path style="fill:#9ff" d="M135,148 l2,0 22,367 -2,0 -22,-367z" />
<path style="fill:none;stroke:#000;stroke-width:2" d="M133,148 l5,0 23,367 -6,0 -22,-367" />
<path style="fill:none;stroke:#7f7f7f;stroke-width:2" d="M158,515 l8,-122" />
<path style="fill:none;stroke:#7f7f7f;stroke-width:2" d="M174,515 l-24,-122" />
<path style="fill:none;stroke:#7f7f7f;stroke-width:2" d="M41,515 l109,-122" />
<path style="fill:none;stroke:#7f7f7f;stroke-width:2" d="M49,393 l106,122" />
<path style="fill:none;stroke:#7f7f7f;stroke-width:2" d="M48,385 l-7,-115" />
<path style="fill:none;stroke:#7f7f7f;stroke-width:2" d="M30,385 l24,-115" />
<path style="fill:none;stroke:#7f7f7f;stroke-width:2" d="M150,385 l8,-115" />
<path style="fill:none;stroke:#7f7f7f;stroke-width:2" d="M168,385 l-23,-115" />
<path style="fill:none;stroke:#7f7f7f;stroke-width:2" d="M41,265 l20,-117" />
<path style="fill:none;stroke:#7f7f7f;stroke-width:2" d="M54,265 l0,-117" />
<path style="fill:none;stroke:#7f7f7f;stroke-width:2" d="M158,265 l-21,-117" />
<path style="fill:none;stroke:#7f7f7f;stroke-width:2" d="M145,265 l0,-117" />
<path style="fill:none;stroke:#7f7f7f;stroke-width:2" d="M56,265 l76,-117" />
<path style="fill:none;stroke:#7f7f7f;stroke-width:2" d="M140,265 l-73,-117" />
<path style="fill:#3da3a3" d="M89,177 l20,0 0,338 -20,0 0,-338z" />
<path style="fill:#5cc2c2" d="M92,177 l14,0 0,338 -14,0 0,-338z" />
<path style="fill:#9ff" d="M96,177 l6,0 0,338 -6,0 0,-338z" />
<path style="fill:none;stroke:#000;stroke-width:2" d="M89,177 l20,0 0,338 -20,0 0,-338" />
<path style="fill:#3da3a3;stroke:#000;stroke-width:2" d="M146,167 l0,-104 8,0 -55,-48 -54,48 8,0 0,104 1,3 3,2 4,2 6,2 6,1 8,1 9,1 9,0 9,0 9,-1 8,-1 7,-1 6,-2 4,-2 3,-2 1,-3z" />
<path style="fill:#54baba" d="M139,167 l0,-104 7,0 -47,-48 -46,48 6,0 0,104 1,3 2,2 4,2 5,2 6,1 6,1 8,1 8,0 8,0 8,-1 6,-1 6,-1 5,-2 4,-2 2,-2 1,-3z" />
<path style="fill:#6bd1d1" d="M129,167 l0,-104 5,0 -35,-48 -35,48 5,0 0,104 1,3 1,2 3,2 4,2 4,1 6,1 5,1 6,0 6,0 6,-1 5,-1 4,-1 4,-2 3,-2 1,-2 1,-3z" />
<path style="fill:#82e8e8" d="M116,167 l0,-104 3,0 -20,-48 -19,48 3,0 0,104 1,5 4,4 5,2 6,1 6,-1 6,-2 4,-4 1,-5z" />
<ellipse style="fill:#9ff" cx="99" cy="97" rx="4" ry="82" />
<path style="fill:none;stroke:#000;stroke-width:2" d="M53,63 l93,0" />
<path style="fill:#54baba;stroke:#000;stroke-width:2" d="M151,128 l1,0 0,17 -1,0 0,-17z" />
<path style="fill:#54baba;stroke:#000;stroke-width:2" d="M46,128 l2,0 0,17 -2,0 0,-17z" />
<path style="fill:#9ff;stroke:#000;stroke-width:2" d="M38,145 l123,0 0,3 -123,0 0,-3z" />
<path style="fill:#9ff;stroke:#000;stroke-width:2" d="M38,126 l123,0 0,2 -123,0 0,-2z" />
<path style="fill:none;stroke:#000;stroke-width:2" d="M38,137 l123,0" />
<path style="fill:#9ff;stroke:#000;stroke-width:2" d="M156,128 l2,0 0,17 -2,0 0,-17z" />
<path style="fill:#9ff;stroke:#000;stroke-width:2" d="M57,128 l2,0 0,17 -2,0 0,-17z" />
<path style="fill:#9ff;stroke:#000;stroke-width:2" d="M74,128 l1,0 0,17 -1,0 0,-17z" />
<path style="fill:#9ff;stroke:#000;stroke-width:2" d="M90,128 l2,0 0,17 -2,0 0,-17z" />
<path style="fill:#9ff;stroke:#000;stroke-width:2" d="M107,128 l1,0 0,17 -1,0 0,-17z" />
<path style="fill:#9ff;stroke:#000;stroke-width:2" d="M123,128 l2,0 0,17 -2,0 0,-17z" />
<path style="fill:#9ff;stroke:#000;stroke-width:2" d="M140,128 l1,0 0,17 -1,0 0,-17z" />
<path style="fill:#9ff;stroke:#000;stroke-width:2" d="M41,128 l1,0 0,17 -1,0 0,-17z" />
<path style="fill:#3da3a3" d="M47,148 l7,0 -32,367 -7,0 32,-367z" />
<path style="fill:#5cc2c2" d="M48,148 l5,0 -32,367 -5,0 32,-367z" />
<path style="fill:#9ff" d="M49,148 l3,0 -33,367 -2,0 32,-367z" />
<path style="fill:none;stroke:#000;stroke-width:2" d="M47,148 l7,0 -32,367 -7,0 32,-367" />
<path style="fill:#3da3a3" d="M145,148 l7,0 29,367 -7,0 -29,-367z" />
<path style="fill:#5cc2c2" d="M146,148 l5,0 29,367 -5,0 -29,-367z" />
<path style="fill:#9ff" d="M147,148 l2,0 30,367 -2,0 -30,-367z" />
<path style="fill:none;stroke:#000;stroke-width:2" d="M145,148 l7,0 29,367 -7,0 -29,-367" />
<path style="fill:#3da3a3" d="M158,265 l0,7 -117,0 0,-7 117,0z" />
<path style="fill:#5cc2c2" d="M158,266 l0,5 -117,0 0,-5 117,0z" />
<path style="fill:#9ff" d="M158,267 l0,3 -117,0 0,-3 117,0z" />
<path style="fill:none;stroke:#000;stroke-width:2" d="M158,265 l0,7 -117,0 0,-7 117,0" />
<path style="fill:#3da3a3" d="M168,385 l0,8 -138,0 0,-8 138,0z" />
<path style="fill:#5cc2c2" d="M168,386 l0,6 -138,0 0,-6 138,0z" />
<path style="fill:#9ff" d="M168,387 l0,3 -138,0 0,-3 138,0z" />
<path style="fill:none;stroke:#000;stroke-width:2" d="M168,385 l0,8 -138,0 0,-8 138,0" />
<path style="fill:none;stroke:#000;stroke-width:2" d="M158,265 l-104,-117" />
<path style="fill:none;stroke:#000;stroke-width:2" d="M145,148 l-104,117" />
<path style="fill:none;stroke:#000;stroke-width:2" d="M30,385 l128,-115" />
<path style="fill:none;stroke:#000;stroke-width:2" d="M41,270 l127,115" />
<path style="fill:none;stroke:#7f7f7f;stroke-width:2" d="M48,385 l94,-115" />
<path style="fill:none;stroke:#7f7f7f;stroke-width:2" d="M56,270 l94,115" />
<path style="fill:none;stroke:#000;stroke-width:2" d="M22,515 l146,-122" />
<path style="fill:none;stroke:#000;stroke-width:2" d="M30,393 l144,122" />

</svg>
