

<svg xmlns:agg="http://www.example.com" xmlns="http://www.w3.org/2000/svg" preserveAspectRatio="none" width="1.8109in" height="1.4792in" viewBox="0 0 999 816">

<path style="fill:#e5e5e5;stroke:#000;stroke-width:2" d="M77,788 l-15,-17 0,-579 -34,0 0,-15 793,0 0,15 -33,0 0,579 -16,17 -695,0z" />
<path style="fill:#e5e5e5;stroke:#000;stroke-width:2" d="M938,341 l0,-164 32,0 0,-34 -17,0 0,-100 -15,-15 -66,0 -17,15 0,100 -66,0 0,34 83,0 0,49 -84,0 0,32 84,0 0,83 15,17 0,346 -17,17 -82,0 0,33 99,0 34,-33 0,-363 17,-17z" />
<path style="fill:none;stroke:#000;stroke-width:2" d="M953,143 l-98,0" />
<path style="fill:none;stroke:#000;stroke-width:2" d="M938,175 l-66,0" />
<path style="fill:#e5e5e5;stroke:#000;stroke-width:2" d="M788,473 l99,0 0,33 -99,0 0,-33z" />
<path style="fill:#000;stroke:#000;stroke-width:2" d="M887,375 l34,0 15,7 -15,10 -34,0 -17,-10 17,-7z" />

</svg>
