

<svg xmlns:agg="http://www.example.com" xmlns="http://www.w3.org/2000/svg" preserveAspectRatio="none" width="1.1297in" height="1.4792in" viewBox="0 0 763 999">

<path style="fill:#b2b29b" d="M734,931 l0,2 -28,13 -32,7 -32,4 -36,4 -28,3 -29,2 -31,1 -32,1 -34,1 -35,1 -18,0 -18,0 -36,0 -35,-1 -34,-1 -32,-1 -31,-1 -29,-2 -27,-3 -37,-4 -32,-4 -32,-7 -24,-9 -4,-4 0,-2 0,-785 11,-29 24,-22 25,-15 32,-13 37,-12 27,-7 29,-5 31,-5 32,-5 34,-2 35,-2 18,-1 18,0 36,1 35,2 34,2 32,5 31,5 29,5 28,7 25,8 33,13 28,14 21,16 17,22 4,12 0,6 0,785z" />
<path style="fill:#b8b8a4" d="M706,931 l0,2 -25,13 -30,7 -29,4 -34,4 -38,3 -28,2 -29,1 -31,2 -31,1 -16,0 -17,0 -17,0 -33,0 -32,-1 -31,-1 -30,-1 -28,-2 -40,-3 -35,-4 -31,-4 -32,-6 -26,-9 -6,-6 0,-2 0,-785 10,-30 22,-21 23,-15 29,-13 34,-12 25,-7 27,-6 28,-5 30,-4 31,-3 32,-2 17,0 16,0 33,0 33,2 31,3 30,4 28,5 27,6 25,7 34,12 29,13 23,15 22,21 10,24 0,6 0,785z" />
<path style="fill:#bdbda9" d="M678,931 l-1,2 -23,13 -27,7 -26,4 -31,4 -35,3 -38,3 -42,2 -29,1 -14,0 -16,0 -15,0 -30,0 -29,-1 -29,-1 -40,-2 -37,-3 -34,-3 -29,-5 -32,-5 -26,-10 -9,-7 -1,-2 0,-785 10,-30 19,-21 22,-15 26,-13 31,-12 35,-10 25,-6 27,-4 28,-3 28,-3 15,-1 15,0 15,0 31,0 29,2 28,3 27,4 26,5 36,9 33,12 27,13 24,14 22,21 12,23 1,6 1,6 0,785z" />
<path style="fill:#bfbfad" d="M649,931 l-1,4 -25,13 -27,6 -35,6 -30,3 -34,3 -36,2 -39,2 -13,0 -14,0 -14,0 -40,0 -39,-2 -36,-2 -34,-3 -31,-3 -26,-5 -29,-5 -24,-10 -7,-5 -1,-2 0,-2 0,-785 8,-30 18,-21 27,-19 25,-13 29,-12 33,-9 35,-7 38,-5 27,-2 14,0 13,0 41,1 39,4 36,6 34,9 30,11 27,12 22,14 23,20 13,23 3,12 0,6 0,785z" />
<path style="fill:#c4c4b2" d="M620,931 l-23,17 -31,7 -33,6 -28,3 -31,3 -33,2 -35,1 -12,0 -13,0 -36,0 -35,-2 -32,-2 -30,-3 -27,-3 -31,-6 -29,-8 -18,-13 -1,-2 0,-785 8,-30 16,-21 24,-19 22,-13 26,-12 29,-9 32,-7 34,-5 24,-2 12,0 12,0 37,1 34,4 33,6 30,9 27,11 24,12 25,19 19,21 10,29 0,6 0,785z" />
<path style="fill:#c9c9ba" d="M592,931 l-1,4 -25,15 -29,7 -30,5 -35,4 -28,2 -31,2 -10,0 -11,0 -11,0 -32,0 -30,-2 -29,-2 -35,-4 -29,-5 -30,-7 -23,-13 -1,-2 -1,-2 0,-2 0,-785 6,-30 14,-21 21,-19 28,-17 24,-11 26,-9 29,-6 30,-4 11,-1 11,0 10,0 32,1 31,4 28,6 27,9 24,11 27,17 21,19 14,21 6,24 1,6 0,785z" />
<path style="fill:#cfcfc0" d="M564,931 l-1,4 -21,15 -32,8 -27,5 -31,4 -34,2 -18,1 -19,0 -18,0 -36,-2 -32,-3 -29,-4 -36,-8 -23,-11 -7,-7 -1,-4 0,-785 8,-35 23,-31 23,-17 27,-15 30,-11 35,-7 18,-2 18,0 19,0 35,5 33,9 29,13 25,16 20,19 18,32 3,12 1,12 0,785z" />
<path style="fill:#d4d4c7" d="M535,931 l-19,19 -26,8 -35,7 -28,3 -30,2 -16,0 -15,0 -30,-2 -28,-3 -35,-7 -27,-8 -17,-15 -1,-4 0,-785 7,-35 19,-31 30,-25 24,-13 28,-9 30,-5 15,0 16,0 30,5 28,9 24,13 21,16 23,29 11,34 1,12 0,785z" />
<path style="fill:#d9d9cc" d="M506,931 l-21,22 -24,8 -31,6 -36,3 -13,0 -12,0 -36,-3 -31,-6 -24,-8 -21,-18 -1,-4 0,-785 6,-35 16,-31 24,-25 31,-18 36,-9 12,0 13,0 36,9 31,18 24,25 16,31 5,23 0,12 0,785z" />
<path style="fill:#dbdbd1" d="M478,931 l-17,22 -26,10 -34,6 -10,1 -10,0 -9,0 -28,-3 -31,-9 -24,-16 -3,-7 -1,-4 0,-785 4,-35 13,-31 18,-25 24,-18 28,-9 9,0 10,0 28,9 24,18 18,25 12,31 4,23 1,12 0,785z" />
<path style="fill:#e0e0d6" d="M449,931 l-15,24 -26,12 -20,3 -7,0 -7,0 -31,-7 -21,-13 -8,-15 0,-4 0,-785 3,-35 8,-31 13,-25 23,-22 13,-5 7,0 7,0 26,14 15,21 12,27 7,32 1,12 0,12 0,785z" />
<path style="fill:#e5e5dd" d="M420,931 l-11,28 -28,11 -28,-11 -11,-28 0,-785 2,-35 4,-31 8,-25 13,-22 12,-5 22,20 11,32 4,31 2,35 0,785z" />
<path style="fill:none;stroke:#000;stroke-width:2" d="M734,931 l0,2 -28,13 -32,7 -32,4 -36,4 -28,3 -29,2 -31,1 -32,1 -34,1 -35,1 -18,0 -18,0 -36,0 -35,-1 -34,-1 -32,-1 -31,-1 -29,-2 -27,-3 -37,-4 -32,-4 -32,-7 -24,-9 -4,-4 0,-2 0,-785 11,-29 24,-22 25,-15 32,-13 37,-12 27,-7 29,-5 31,-5 32,-5 34,-2 35,-2 18,-1 18,0 36,1 35,2 34,2 32,5 31,5 29,5 28,7 25,8 33,13 28,14 21,16 17,22 4,12 0,6 0,785" />
<path style="fill:#99997a" d="M705,922 l0,1 -25,10 -30,5 -29,3 -34,3 -38,2 -28,2 -28,1 -31,1 -31,0 -17,0 -16,0 -50,0 -32,0 -31,-1 -30,-1 -28,-1 -39,-2 -36,-3 -30,-3 -32,-5 -26,-6 -6,-5 -1,-1 0,-384 648,0 0,384z" />
<path style="fill:#a1a185" d="M665,923 l0,1 -28,11 -28,5 -27,3 -31,3 -34,2 -38,2 -40,1 -14,0 -14,1 -15,0 -43,0 -28,-1 -41,-1 -37,-2 -35,-2 -31,-3 -27,-3 -28,-5 -25,-8 -3,-3 0,-1 0,-385 567,0 0,385z" />
<path style="fill:#abab91" d="M625,924 l0,2 -24,11 -31,6 -33,4 -29,2 -32,2 -34,2 -23,0 -12,1 -13,0 -37,0 -36,-1 -34,-2 -32,-2 -28,-2 -33,-4 -26,-5 -25,-8 -5,-4 0,-2 0,-386 487,0 0,386z" />
<path style="fill:#b2b29b" d="M585,926 l-1,3 -23,11 -35,7 -31,3 -34,3 -38,2 -21,0 -41,0 -40,-1 -36,-2 -33,-3 -27,-5 -31,-7 -15,-8 -1,-3 0,-388 407,0 0,388z" />
<path style="fill:#babaa6" d="M545,928 l-1,3 -27,13 -31,6 -41,5 -30,1 -17,1 -33,0 -32,-2 -29,-2 -38,-5 -28,-6 -19,-11 -1,-3 0,-390 327,0 0,390z" />
<path style="fill:#c4c4b2" d="M505,929 l-1,3 -27,16 -27,6 -32,3 -24,2 -37,-1 -34,-3 -28,-5 -27,-9 -9,-9 -1,-3 0,-391 247,0 0,391z" />
<path style="fill:#ccccbd" d="M465,931 l-20,19 -24,7 -31,3 -33,-1 -28,-5 -24,-11 -7,-12 0,-393 167,0 0,393z" />
<ellipse style="fill:#b2b29b" cx="381" cy="538" rx="324" ry="19" />

</svg>
