 

<svg xmlns:agg="http://www.example.com" xmlns="http://www.w3.org/2000/svg" preserveAspectRatio="none" width="0.7360in" height="1.0750in" viewBox="0 0 684 999">

<path style="fill:#ccb299;stroke:#000;stroke-width:2" d="M611,918 l19,52 -576,0 17,-52 -10,-27 -9,-28 -7,-29 -6,-29 -5,-30 -3,-31 -3,-30 0,-16 0,-7 0,-8 1,-48 5,-47 8,-45 11,-43 13,-41 15,-39 19,-36 20,-34 22,-30 24,-27 26,-24 28,-20 29,-16 29,-11 32,-8 16,-2 16,0 16,0 31,5 31,10 29,13 28,18 27,22 25,26 23,29 22,31 19,36 17,37 14,40 12,42 9,45 7,45 3,48 0,24 0,8 0,30 -3,31 -4,30 -5,30 -6,30 -8,28 -10,28 -8,20z" />
<ellipse style="fill:#d1baa3" cx="341" cy="600" rx="281" ry="369" />
<ellipse style="fill:#d6c2ad" cx="342" cy="579" rx="258" ry="335" />
<ellipse style="fill:#d9c7b3" cx="342" cy="558" rx="234" ry="301" />
<ellipse style="fill:#deccbd" cx="342" cy="537" rx="211" ry="267" />
<ellipse style="fill:#e0d1c1" cx="342" cy="516" rx="187" ry="233" />
<ellipse style="fill:#e5d8cb" cx="341" cy="496" rx="163" ry="199" />
<path style="fill:#d1baa3" d="M133,970 l14,-52 390,0 14,52 -418,0z" />
<path style="fill:#dbc9b7" d="M218,970 l8,-52 232,0 8,52 -248,0z" />
<path style="fill:#e5d8cb" d="M297,970 l3,-52 84,0 3,52 -90,0z" />
<path style="fill:none;stroke:#7f7f7f;stroke-width:2" d="M73,918 l537,0" />
<path style="fill:#963" d="M250,160 l183,0 0,71 -183,0 0,-71z" />
<path style="fill:#ad845b" d="M265,159 l155,0 0,72 -155,0 0,-72z" />
<path style="fill:#b89471" d="M292,159 l101,0 0,72 -101,0 0,-72z" />
<path style="fill:#c2a385" d="M319,160 l45,0 0,71 -45,0 0,-71z" />
<path style="fill:none;stroke:#000;stroke-width:2" d="M250,160 l183,0 0,71 -183,0 0,-71" />
<path style="fill:#b28c65" d="M211,28 l0,131 262,0 0,-131 -262,0z" />
<path style="fill:#bd9c7b" d="M232,28 l0,131 220,0 0,-131 -220,0z" />
<path style="fill:#c7ab8f" d="M253,28 l0,131 178,0 0,-131 -178,0z" />
<path style="fill:#d1baa3" d="M275,28 l0,131 135,0 0,-131 -135,0z" />
<path style="fill:#dbc9b7" d="M296,28 l0,131 93,0 0,-131 -93,0z" />
<path style="fill:#e5d8cb" d="M316,28 l0,131 52,0 0,-131 -52,0z" />
<path style="fill:none;stroke:#000;stroke-width:2" d="M211,28 l0,131 262,0 0,-131 -262,0" />
<path style="fill:#666;stroke:#000;stroke-width:2" d="M217,68 l79,0 0,46 -79,0 0,-46z" />
<path style="fill:#666;stroke:#000;stroke-width:2" d="M302,68 l79,0 0,46 -79,0 0,-46z" />
<path style="fill:#666;stroke:#000;stroke-width:2" d="M387,68 l79,0 0,46 -79,0 0,-46z" />
<path style="fill:none;stroke:#fff;stroke-width:2" d="M217,114 l79,0 0,-46" />
<path style="fill:none;stroke:#fff;stroke-width:2" d="M302,114 l79,0 0,-46" />
<path style="fill:none;stroke:#fff;stroke-width:2" d="M387,114 l79,0 0,-46" />

</svg>
