

<svg xmlns:agg="http://www.example.com" xmlns="http://www.w3.org/2000/svg" preserveAspectRatio="none" width="2.0104in" height="1.1390in" viewBox="0 0 999 566">

<path style="fill:#4c4c4c;stroke:#000;stroke-width:2" d="M970,538 l-942,0 2,-48 7,-47 12,-45 16,-43 20,-41 23,-39 27,-37 31,-33 33,-31 36,-27 39,-24 41,-20 43,-16 45,-12 47,-7 24,-2 24,-1 24,1 48,5 46,9 44,14 43,18 40,22 38,26 35,29 32,32 28,35 26,38 22,40 18,42 13,45 10,45 5,48 0,24z" />
<path style="fill:#7f7f7f" d="M912,538 l-874,0 2,-47 7,-46 11,-44 14,-42 19,-41 22,-38 25,-36 28,-32 31,-30 34,-27 36,-23 38,-20 40,-16 42,-11 43,-7 23,-2 22,0 23,0 44,5 42,9 41,14 40,17 37,22 35,25 32,28 30,32 26,34 24,37 20,39 17,42 13,43 8,45 5,46 0,24z" />
<path style="fill:#999" d="M852,538 l-804,0 2,-46 6,-45 10,-43 14,-42 17,-39 20,-38 23,-34 26,-33 29,-29 31,-26 33,-23 35,-19 37,-15 38,-11 40,-7 20,-2 21,0 21,0 40,5 39,9 38,13 36,17 34,21 32,25 30,27 27,31 25,34 22,36 18,38 16,41 11,42 8,44 5,46 0,23z" />
<path style="fill:#b2b2b2" d="M774,538 l-716,0 2,-45 5,-44 9,-42 12,-41 15,-39 18,-36 21,-34 23,-32 25,-28 28,-26 29,-22 31,-19 33,-14 34,-11 36,-7 18,-2 18,0 18,0 37,5 35,9 33,12 33,17 30,21 29,24 26,27 25,30 22,33 19,35 17,37 13,40 11,42 7,43 4,44 0,23z" />
<path style="fill:none;stroke:#7f7f7f;stroke-width:2" d="M598,538 l-198,0 0,-48 2,-47 2,-45 4,-43 4,-41 5,-39 6,-37 6,-33 7,-31 8,-27 12,-35 13,-25 19,-19 5,-2 5,-1 5,1 25,21 13,25 13,35 8,27 7,31 6,33 6,37 5,39 4,41 4,43 2,45 2,47 0,24 0,24" />
<path style="fill:none;stroke:#7f7f7f;stroke-width:2" d="M734,538 l-470,0 1,-48 4,-47 6,-45 8,-43 9,-41 12,-39 14,-37 15,-33 16,-31 18,-27 20,-24 20,-20 22,-16 22,-12 35,-9 12,-1 12,1 35,9 23,12 22,16 20,20 20,24 18,27 17,31 15,33 14,37 12,39 9,41 8,43 6,45 4,47 1,24 0,24" />
<path style="fill:none;stroke:#7f7f7f;stroke-width:2" d="M852,538 l-706,0 2,-48 5,-47 9,-45 12,-43 15,-41 17,-39 20,-37 23,-33 25,-31 27,-27 29,-24 31,-20 32,-16 34,-12 35,-7 18,-2 18,-1 18,1 36,5 34,9 34,14 32,18 30,22 28,26 26,29 24,32 22,35 19,38 16,40 14,42 10,45 7,45 4,48 0,24" />
<path style="fill:none;stroke:#7f7f7f;stroke-width:2" d="M106,460 l354,0" />
<path style="fill:none;stroke:#7f7f7f;stroke-width:2" d="M176,420 l352,0" />
<path style="fill:none;stroke:#7f7f7f;stroke-width:2" d="M106,342 l256,0" />
<path style="fill:none;stroke:#7f7f7f;stroke-width:2" d="M480,380 l254,0" />
<path style="fill:none;stroke:#7f7f7f;stroke-width:2" d="M382,264 l254,0" />
<path style="fill:none;stroke:#7f7f7f;stroke-width:2" d="M166,224 l254,0" />
<path style="fill:none;stroke:#7f7f7f;stroke-width:2" d="M460,146 l254,0" />
<path style="fill:none;stroke:#7f7f7f;stroke-width:2" d="M656,498 l256,0" />
<path style="fill:#b2b2b2;stroke:#000;stroke-width:2" d="M480,65 l-30,-37 98,0 -30,37 -38,0z" />
<path style="fill:#999" d="M490,65 l-30,-37 88,0 -30,37 -28,0z" />
<path style="fill:#7f7f7f" d="M498,65 l-28,-37 78,0 -30,37 -20,0z" />
<path style="fill:#4c4c4c" d="M508,65 l-28,-37 68,0 -30,37 -10,0z" />
<path style="fill:none;stroke:#000;stroke-width:2" d="M480,65 l-30,-37 98,0 -30,37 -38,0" />
<path style="fill:none;stroke:#000;stroke-width:2" d="M970,538 l-942,0 2,-48 7,-47 12,-45 16,-43 20,-41 23,-39 27,-37 31,-33 33,-31 36,-27 39,-24 41,-20 43,-16 45,-12 47,-7 24,-2 24,-1 24,1 48,5 46,9 44,14 43,18 40,22 38,26 35,29 32,32 28,35 26,38 22,40 18,42 13,45 10,45 5,48 0,24" />

</svg>
