 
<svg version="1.1" id="Layer_1" xmlns="http://www.w3.org/2000/svg" preserveAspectRatio="none"  xmlns:agg="http://www.example.com"  x="0px" y="0px"
	   viewBox="0 0 132 87" xml:space="preserve">
	 
<agg:params>
	<agg:param type="C" name="color" description="Color" cssAttributes="fill" classes="color"/>
</agg:params>
	 
<style type="text/css" >
   <![CDATA[

	.stroke{
		stroke-width:2px;
		stroke-linecap:round;
		stroke-linejoin:round;
		stroke: black;
		opacity:0.5;
		fill:none;
	}
	
	.color {
		fill:#79A2C9;
	}

      ]]>
</style>
	 
<path id="boundary" class="color" d="M126.363,10.437V5.712H131V1h-27.853h-6.17v3.884h3.83v3.974h3.897L71.936,28.425L71.32,27.55
	l-5.353,3.441l-5.309-3.441l-0.605,0.875L27.295,8.858h3.909V4.884h3.819V1h-6.16H1v4.712h4.647v4.725h4.637v66.115H5.647v4.724H1
	V86h27.864v-4.724h-4.648v-4.724h-4.647l7.038-4.758h8.417v-3.895h-2.656L59.11,49.821l0.507,0.737l6.35-4.156l6.462,4.156
	l0.493-0.716l26.71,18.057h-2.654v3.895h8.417l7.038,4.758h-4.647v4.724h-4.637V86H131v-4.724h-4.637v-4.724h-4.647V10.437H126.363z
	 M27.295,21.839l28.446,16.636l-0.179,0.262l0.437,0.272L27.295,58.121V21.839z M28.068,63.936h-0.773l28.363-19.133l0.352,0.519
	L28.068,63.936z M57.31,32.388l1.813,1.158l-0.271,0.396L27.295,15.059v-0.465l30.148,17.59L57.31,32.388z M103.932,63.936
	L75.99,45.322l0.353-0.519l28.362,19.132H103.932z M104.705,58.121L76.002,39.009l0.436-0.273l-0.477-0.693l0.298,0.432
	l28.446-16.636V58.121z M104.705,15.059L73.137,33.942l-0.272-0.395l1.826-1.159l-0.144-0.206l30.157-17.589V15.059z"/>
	
<path opacity="0.55" d="M104.705,8.858v5.735l-30.16,17.59l-2.609-3.759L104.705,8.858z M27.296,14.593l30.148,17.59l2.609-3.759
	L27.296,8.858V14.593z"/>
<path opacity="0.7" d="M104.705,58.121v5.815L76.337,44.8l0.101-0.136l-4.637-3.021l4.2-2.635L104.705,58.121z M56,39.008
	L27.296,58.121v5.815L55.664,44.8l-0.101-0.136l4.647-3.021L56,39.008z"/>
<polygon opacity="0.9" points="71.32,27.55 65.967,30.992 60.659,27.55 57.31,32.388 59.124,33.547 59.583,32.876 65.967,36.999 
	72.395,32.876 72.866,33.547 74.691,32.388 "/>
<polygon opacity="0.5" points="76.438,38.736 72.395,32.876 65.967,36.999 59.583,32.876 55.563,38.736 60.21,41.644 55.563,44.664 
	59.617,50.558 65.967,46.402 72.429,50.558 76.438,44.664 71.802,41.644 "/>
<path opacity="0.4" d="M112.432,63.936v5.667l-8.5-5.667h0.773V21.839l7.727-4.52V63.936z M107.785,10.437V5.712h-4.637V1h-6.17
	v3.884h3.83v3.974h3.897v5.735v0.465l7.727-4.622H107.785z M99.632,67.899h-2.654v3.895h8.422L99.632,67.899z M32.37,67.899
	l-5.756,3.895h8.411v-3.895H32.37z M28.864,1v4.712h-4.648v4.725h-4.647l7.728,4.622v-0.465V8.858h3.909V4.884h3.819V1H28.864z
	 M27.296,63.936V21.839l-7.728-4.52v52.283l8.5-5.667H27.296z"/>
<path opacity="0.15" d="M112.432,10.437v6.882L76.259,38.475l-3.125-4.531L112.432,10.437z M72.922,49.842l39.51,26.709v-6.95
	L75.99,45.322L72.922,49.842z M19.569,69.602v6.95l39.544-26.732l-3.103-4.497L19.569,69.602z M55.743,38.475l3.113-4.531
	L19.569,10.437v6.882L55.743,38.475z"/>
</svg>
