

<svg xmlns:agg="http://www.example.com" xmlns="http://www.w3.org/2000/svg" preserveAspectRatio="none" width="0.4294in" height="1.4792in" viewBox="0 0 290 999">

<path style="fill:#ccc;stroke:#000;stroke-width:2" d="M220,103 l2,0 1,0 2,0 29,0 7,9 0,2 0,5 0,765 -6,11 -1,0 -23,0 0,-11 23,-4 0,-762 0,-1 -1,-1 -28,-2 -4,2 -1,1 0,5 -11,0 0,-1 11,-18z" />
<path style="fill:#e5e5e5;stroke:#000;stroke-width:2" d="M133,28 l-41,15 0,87 41,-16 0,-86z" />
<path style="fill:#ccc;stroke:#000;stroke-width:2" d="M133,114 l0,-86 38,3 0,87 -38,-4z" />
<path style="fill:#e5e5e5;stroke:#000;stroke-width:2" d="M243,959 l0,-833 -1,-2 -28,-6 -29,-3 -30,0 -5,0 -6,-1 -5,0 -31,1 -29,1 -30,2 -21,6 0,1 0,1 0,833 0,1 28,7 28,2 28,1 6,0 5,0 5,0 33,0 29,-1 28,-2 24,-7 0,0 1,-1z" />
<path style="fill:#b2b2b2" d="M243,959 l0,-833 -26,-10 -8,-2 0,853 27,-3 7,-5z" />
<path style="fill:#ccc" d="M58,967 l0,-853 -26,7 -4,5 0,833 26,8 4,0z" />
<path style="fill:#ccc" d="M209,967 l0,-853 -76,0 0,856 32,0 28,-1 16,-2z" />
<path style="fill:none;stroke:#ccc;stroke-width:2" d="M243,872 l-1,2 -8,3 -10,2 -10,1 -11,1 -13,1 -9,1 -10,0 -10,0 -11,0 -6,1 -5,0 -16,0 -11,-1 -9,0 -10,0 -9,0 -13,-1 -12,-1 -10,-1 -11,-2 -8,-3 -2,-1 0,-1 0,-1" />
<path style="fill:none;stroke:#ccc;stroke-width:2" d="M243,789 l-1,1 -8,2 -10,1 -10,1 -11,1 -13,1 -9,0 -10,0 -10,1 -11,0 -6,0 -5,0 -16,0 -11,0 -9,-1 -10,0 -9,0 -13,-1 -12,0 -10,-1 -11,-2 -8,-1 -2,-1 0,-1" />
<path style="fill:none;stroke:#ccc;stroke-width:2" d="M243,273 l-1,-1 -8,-2 -10,-1 -10,-1 -11,-1 -13,-1 -9,0 -10,0 -10,0 -11,-1 -6,0 -5,0 -16,0 -11,0 -9,1 -10,0 -9,0 -13,1 -12,1 -10,0 -11,2 -8,1 -2,1 0,1" />
<path style="fill:none;stroke:#ccc;stroke-width:2" d="M243,190 l-1,-2 -8,-3 -10,-2 -10,-1 -11,-1 -13,-1 -9,-1 -10,0 -10,0 -11,0 -6,0 -5,0 -16,0 -11,0 -9,0 -10,0 -9,1 -13,0 -12,1 -10,2 -11,1 -8,3 -2,1 0,1 0,1" />
<path style="fill:none;stroke:#ccc;stroke-width:2" d="M28,703 l218,0" />
<path style="fill:none;stroke:#ccc;stroke-width:2" d="M28,616 l218,0" />
<path style="fill:none;stroke:#ccc;stroke-width:2" d="M28,529 l218,0" />
<path style="fill:none;stroke:#ccc;stroke-width:2" d="M28,446 l218,0" />
<path style="fill:none;stroke:#ccc;stroke-width:2" d="M28,359 l218,0" />
<path style="fill:none;stroke:#000;stroke-width:2" d="M243,959 l0,-833 -1,-2 -28,-6 -29,-3 -30,0 -5,0 -6,-1 -5,0 -31,1 -29,1 -30,2 -21,6 0,1 0,1 0,833 0,1 28,7 28,2 28,1 6,0 5,0 5,0 33,0 29,-1 28,-2 24,-7 0,0 1,-1" />
<path style="fill:#e5e5e5;stroke:#000;stroke-width:2" d="M145,50 l-1,0 -2,0 -1,0 -98,0 -11,10 -1,2 0,4 0,501 10,11 2,0 22,0 0,-11 -22,-12 0,-486 27,-7 71,0 1,0 1,0 2,7 0,45 11,0 0,-1 0,-51 -11,-12z" />
<path style="fill:#e5e5e5;stroke:#000;stroke-width:2" d="M65,959 l-2,0 -1,0 -2,0 -25,-9 0,-2 0,-2 0,-353 6,-11 2,0 22,0 0,11 -22,2 0,1 0,36 0,312 0,1 0,1 7,2 15,0 0,11z" />
<path style="fill:#999;stroke:#000;stroke-width:2" d="M43,118 l0,-38 53,-11 75,0 57,11 0,38 -8,0 0,-34 -49,-7 0,37 -4,0 0,-37 -64,0 0,37 -7,0 0,-37 -46,7 0,34 -7,0z" />
<path style="fill:#7f7f7f;stroke:#000;stroke-width:2" d="M50,103 l46,-7 0,-4 -46,7 0,4z" />
<path style="fill:#7f7f7f;stroke:#000;stroke-width:2" d="M171,92 l49,7 0,4 -49,-7 0,-4z" />
<path style="fill:#7f7f7f;stroke:#000;stroke-width:2" d="M103,96 l64,0 0,-4 -64,0 0,4z" />

</svg>
