

<svg xmlns:agg="http://www.example.com" xmlns="http://www.w3.org/2000/svg" preserveAspectRatio="none" width="0.8624in" height="1.4792in" viewBox="0 0 309 530">

<path style="fill:#366;stroke:#000;stroke-width:2" d="M206,21 l42,0 0,38 -42,0 0,-38z" />
<path style="fill:#4c7f7f" d="M210,21 l33,0 0,38 -33,0 0,-38z" />
<path style="fill:#699" d="M217,21 l20,0 0,38 -20,0 0,-38z" />
<path style="fill:#9cc" d="M225,21 l4,0 0,38 -4,0 0,-38z" />
<path style="fill:#194c4c;stroke:#000;stroke-width:2" d="M65,495 l0,-434 104,-33 104,33 0,434 -208,0z" />
<path style="fill:#366" d="M73,495 l0,-434 96,-33 95,33 0,434 -191,0z" />
<path style="fill:#4c7f7f" d="M86,495 l0,-434 83,-33 82,33 0,434 -165,0z" />
<path style="fill:#699" d="M108,495 l0,-434 61,-33 61,33 0,434 -122,0z" />
<path style="fill:#7fb2b2" d="M134,495 l0,-434 35,-33 34,33 0,434 -69,0z" />
<path style="fill:#9cc" d="M160,495 l0,-434 9,-33 8,33 0,434 -17,0z" />
<path style="fill:#666;stroke:#000;stroke-width:2" d="M44,494 l250,0 0,21 -250,0 0,-21z" />
<path style="fill:#366" d="M200,15 l54,0 0,6 -54,0 0,-6z" />
<path style="fill:#4c7f7f" d="M205,15 l43,0 0,6 -43,0 0,-6z" />
<path style="fill:#699" d="M214,15 l26,0 0,6 -26,0 0,-6z" />
<path style="fill:#9cc" d="M224,15 l6,0 0,6 -6,0 0,-6z" />
<path style="fill:none;stroke:#000;stroke-width:2" d="M200,15 l54,0 0,6 -54,0 0,-6" />
<path style="fill:#366;stroke:#000;stroke-width:2" d="M27,415 l0,-72 38,0 0,72 -38,0z" />
<path style="fill:#4c7f7f" d="M27,408 l0,-58 38,0 0,58 -38,0z" />
<path style="fill:#699" d="M27,397 l0,-36 38,0 0,36 -38,0z" />
<path style="fill:#9cc" d="M27,383 l0,-8 38,0 0,8 -38,0z" />
<path style="fill:#366" d="M15,425 l0,-92 12,0 0,92 -12,0z" />
<path style="fill:#4c7f7f" d="M15,416 l0,-74 12,0 0,74 -12,0z" />
<path style="fill:#699" d="M15,402 l0,-46 12,0 0,46 -12,0z" />
<path style="fill:#9cc" d="M15,384 l0,-10 12,0 0,10 -12,0z" />
<path style="fill:none;stroke:#000;stroke-width:2" d="M15,425 l0,-92 12,0 0,92 -12,0" />
<path style="fill:none;stroke:#699;stroke-width:2" d="M65,62 l208,0" />

</svg>
