

<svg xmlns:agg="http://www.example.com" xmlns="http://www.w3.org/2000/svg" preserveAspectRatio="none" width="0.8690in" height="1.4792in" viewBox="0 0 292 497">

<path style="fill:#ff0;stroke:#000;stroke-width:2" d="M55,36 l183,0 0,7 -183,0 0,-7z" />
<path style="fill:#ff0;stroke:#000;stroke-width:2" d="M62,51 l169,0 0,7 -169,0 0,-7z" />
<path style="fill:#cc3" d="M62,54 l169,0 0,4 -169,0 0,-4z" />
<path style="fill:#cc3" d="M55,40 l183,0 0,3 -183,0 0,-3z" />
<path style="fill:#ff0" d="M168,62 l0,-19 11,-22 11,0 -11,22 0,19 -11,0z" />
<path style="fill:#ff0" d="M124,62 l0,-19 -11,-22 -11,0 11,22 0,19 11,0z" />
<path style="fill:#7f7f7f" d="M240,62 l-187,0 -9,4 -7,4 -7,5 -5,5 -5,5 -3,6 -2,5 -1,6 0,381 264,0 0,-381 -1,-6 -2,-5 -3,-6 -4,-5 -5,-5 -7,-5 -7,-4 -9,-4z" />
<path style="fill:#999" d="M230,62 l-167,0 -8,4 -7,4 -6,5 -5,5 -4,5 -3,6 -1,5 -1,6 0,381 237,0 0,-381 -1,-6 -1,-5 -3,-6 -4,-5 -5,-5 -6,-5 -7,-4 -8,-4z" />
<path style="fill:#b2b2b2" d="M214,62 l-136,0 -6,4 -6,4 -4,5 -4,5 -4,5 -2,6 -1,5 -1,6 0,381 193,0 0,-381 -1,-6 -1,-5 -2,-6 -4,-5 -4,-5 -5,-5 -6,-4 -6,-4z" />
<path style="fill:#ccc" d="M193,62 l-93,0 -4,4 -4,4 -4,5 -2,5 -3,5 -2,6 -1,5 0,6 0,381 132,0 0,-381 0,-6 -1,-5 -2,-6 -2,-5 -3,-5 -3,-5 -4,-4 -4,-4z" />
<path style="fill:#e5e5e5" d="M170,62 l-47,0 -2,4 -2,4 -2,5 -1,5 -1,5 -1,6 -1,5 0,6 0,381 66,0 0,-381 0,-6 -1,-5 0,-6 -1,-5 -2,-5 -1,-5 -2,-4 -2,-4z" />
<path style="fill:#fff" d="M154,62 l-15,0 -1,4 0,4 -1,5 -1,5 0,5 -1,6 0,5 0,6 0,381 22,0 0,-381 0,-6 0,-5 0,-6 -1,-5 0,-5 -1,-5 0,-4 -1,-4z" />
<path style="fill:none;stroke:#000;stroke-width:2" d="M240,62 l-187,0 -9,4 -7,4 -7,5 -5,5 -5,5 -3,6 -2,5 -1,6 0,381 264,0 0,-381 -1,-6 -2,-5 -3,-6 -4,-5 -5,-5 -7,-5 -7,-4 -9,-4" />
<path style="fill:#7f7f7f" d="M49,71 l-9,0 0,412 9,0 0,-412z" />
<path style="fill:#7f7f7f" d="M85,483 l0,-20 -39,0 0,-6 39,0 0,-20 -39,0 0,-6 39,0 0,-20 -39,0 0,-6 39,0 0,-20 -39,0 0,-7 39,0 0,-19 -39,0 0,-7 39,0 0,-19 -39,0 0,-7 39,0 0,-19 -39,0 0,-7 39,0 0,-20 -39,0 0,-6 39,0 0,-20 -39,0 0,-6 39,0 0,-20 -39,0 0,-6 39,0 0,-20 -39,0 0,-6 39,0 0,-20 -39,0 0,-7 39,0 0,-19 -39,0 0,-7 39,0 0,-19 -39,0 0,-7 39,0 0,-20 -39,0 0,-6 39,0 0,-20 10,0 0,412 -10,0z" />
<path style="fill:#ff0;stroke:#000;stroke-width:2" d="M39,62 l-9,0 0,411 9,0 0,-411z" />
<path style="fill:#ff0;stroke:#000;stroke-width:2" d="M75,473 l0,-19 -39,0 0,-7 39,0 0,-20 -39,0 0,-6 39,0 0,-20 -39,0 0,-6 39,0 0,-20 -39,0 0,-6 39,0 0,-20 -39,0 0,-6 39,0 0,-20 -39,0 0,-7 39,0 0,-19 -39,0 0,-7 39,0 0,-19 -39,0 0,-7 39,0 0,-19 -39,0 0,-7 39,0 0,-20 -39,0 0,-6 39,0 0,-20 -39,0 0,-6 39,0 0,-20 -39,0 0,-6 39,0 0,-20 -39,0 0,-6 39,0 0,-20 -39,0 0,-7 39,0 0,-19 -39,0 0,-7 39,0 0,-19 10,0 0,411 -10,0z" />
<path style="fill:#cc3" d="M172,62 l0,-19 11,-22 -4,0 -11,22 0,19 4,0z" />
<path style="fill:#cc3" d="M121,62 l0,-19 -11,-22 3,0 11,22 0,19 -3,0z" />
<path style="fill:#ff0;stroke:#000;stroke-width:2" d="M245,21 l-198,0 19,22 0,19 -11,0 0,-19 -26,-29 235,0 -26,29 0,19 -11,0 0,-19 18,-22z" />
<path style="fill:#cc3" d="M62,62 l0,-19 -22,-25 220,0 -22,25 0,19 -4,0 0,-19 19,-22 -206,0 19,22 0,19 -4,0z" />
<path style="fill:none;stroke:#000;stroke-width:2" d="M168,62 l0,-19 11,-22 11,0 -11,22 0,19 -11,0" />
<path style="fill:none;stroke:#000;stroke-width:2" d="M124,62 l0,-19 -11,-22 -11,0 11,22 0,19 11,0" />

</svg>
