 
<svg version="1.1" id="Default" xmlns="http://www.w3.org/2000/svg" preserveAspectRatio="none"  xmlns:xlink="http://www.w3.org/1999/xlink" x="0px" y="0px"
	   viewBox="0 0 104 189" xmlns:agg="http://www.example.com" xml:space="preserve">

<agg:params>
	<agg:param type="C" name="color" description="Color" cssAttributes="fill" classes="color"/>
</agg:params>

<style type="text/css" >
   <![CDATA[

	.stroke{
		stroke-width:2px;
		stroke-linecap:round;
		stroke-linejoin:round;
		stroke: black;
		opacity:0.5;
		fill:none;
	}
	
	.color {
		fill:#79A2C9;
	}

      ]]>
</style>

<defs>
	<path id="boundary" d="M2.004,35.633L2,136.546L52,187l50-50.454l-0.004-100.913L77,18.818L76.997,2H27.355
		c-0.089,0-0.179,0-0.269,0C27.058,2,27.016,2.053,27,2c0,5.606,0,16.818,0,16.818L2.004,35.633z"/>
</defs>

<use xlink:href="#boundary" class="color"/>

<polygon opacity="0.21" fill="#FFFFFF" points="30.35,2 77,2 77,18.818 101.996,35.633 102,136.546 
	52,187 8.699,136.546 8.699,35.636 30.35,18.818 "/>
<polygon opacity="0.21" fill="#FFFFFF" points="34.322,2 77,2 77,18.818 101.996,35.633 102,136.546 
	52,187 16.645,136.546 16.645,35.636 34.322,18.818 "/>
<polygon opacity="0.25" fill="#FFFFFF" points="39.5,2 77,2 77,18.818 101.996,35.633 102,136.546 
	52,187 27,136.546 27,35.636 39.5,18.818 "/>
<polygon opacity="0.23" fill="#FFFFFF" points="45.529,2 73.65,2 73.65,18.818 95.301,35.636 
	95.301,136.546 52,187 39.06,136.546 39.06,35.636 45.529,18.818 "/>
<polygon opacity="0.25" fill="#FFFFFF" points="52,2 69.678,2 69.678,18.818 87.355,35.636 
	87.355,136.546 52,187 "/>
<polygon opacity="0.35" fill="#FFFFFF" points="58.471,2 58.471,18.818 64.941,35.636 64.941,136.546 
	52,187 77,136.546 77,35.636 64.5,18.818 64.5,2 "/>
	
<g class="stroke">
	<use xlink:href="#boundary"/>
	<line x1="2" y1="136.546" x2="102" y2="136.546"/>
	<line x1="2" y1="35.633" x2="102" y2="35.633"/>
	<line x1="27" y1="18.818" x2="77" y2="18.818"/>
</g>
</svg>
