

<svg xmlns:agg="http://www.example.com" xmlns="http://www.w3.org/2000/svg" preserveAspectRatio="none" width="2.0104in" height="1.4429in" viewBox="0 0 999 717">

<path style="fill:#ccc;stroke:#000;stroke-width:2" d="M28,218 l30,-145 882,0 30,145 -942,0z" />
<path style="fill:#e5e5e5;stroke:#000;stroke-width:2" d="M970,161 l0,57 -942,0 0,-57 9,-25 28,-22 31,-15 25,-9 29,-9 32,-8 35,-7 38,-7 40,-5 42,-4 44,-4 46,-2 48,-1 24,0 24,0 48,1 46,2 44,4 42,4 40,5 38,7 35,7 32,8 29,9 25,9 31,15 23,17 14,23 0,7z" />
<path style="fill:#ccc" d="M596,176 l-9,-61 -176,0 -9,61 -374,0 0,42 942,0 0,-42 -374,0z" />
<path style="fill:#ccc;stroke:#000;stroke-width:2" d="M426,100 l146,0 0,15 -146,0 0,-15z" />
<path style="fill:#4c4c4c;stroke:#000;stroke-width:2" d="M411,100 l6,-66 164,0 6,66 -176,0z" />
<path style="fill:#666;stroke:#000;stroke-width:2" d="M469,34 l3,-6 54,0 3,6 -60,0z" />
<path style="fill:#ccc" d="M970,689 l0,-471 -942,0 0,471 175,0 0,-66 208,0 0,66 176,0 0,-66 205,0 0,66 178,0z" />
<path style="fill:#dbdbdb" d="M883,689 l0,-471 -768,0 0,471 88,0 0,-66 208,0 0,66 176,0 0,-66 205,0 0,66 91,0z" />
<path style="fill:#ededed" d="M735,218 l-472,0 0,405 148,0 0,66 176,0 0,-66 148,0 0,-405z" />
<path style="fill:#fff" d="M572,218 l-146,0 0,471 146,0 0,-471z" />
<path style="fill:none;stroke:#000;stroke-width:2" d="M970,689 l0,-471 -942,0 0,471 175,0 0,-66 208,0 0,66 176,0 0,-66 205,0 0,66 178,0" />
<path style="fill:#dbdbdb" d="M596,176 l-9,-61 -176,0 -9,61 -287,0 0,42 768,0 0,-42 -287,0z" />
<path style="fill:#ededed" d="M596,176 l-9,-61 -176,0 -9,61 -139,0 0,42 472,0 0,-42 -139,0z" />
<path style="fill:#fff" d="M572,115 l-146,0 0,103 146,0 0,-103z" />
<path style="fill:none;stroke:#000;stroke-width:2" d="M596,176 l-9,-61 -176,0 -9,61 -374,0 0,42 942,0 0,-42 -374,0" />
<path style="fill:#4c4c4c;stroke:#000;stroke-width:2" d="M203,623 l148,0 0,30 -148,0 0,-30z" />
<path style="fill:#4c4c4c;stroke:#000;stroke-width:2" d="M647,623 l145,0 0,30 -145,0 0,-30z" />
<path style="fill:#7f7f7f;stroke:#000;stroke-width:2" d="M417,130 l67,0 0,15 -67,0 0,-15z" />

</svg>
