

<svg xmlns:agg="http://www.example.com" xmlns="http://www.w3.org/2000/svg" preserveAspectRatio="none" width="1.3607in" height="1.4792in" viewBox="0 0 919 999">

<path style="fill:#7f7f7f" d="M381,28 l157,0 0,942 -157,0 0,-942z" />
<path style="fill:#969696" d="M396,28 l24,0 8,0 8,0 56,0 31,0 0,177 1,29 0,29 0,501 -1,29 0,147 0,30 -7,0 -32,0 -56,0 -24,0 -8,0 0,-30 0,-147 0,-29 0,-530 0,-29 0,-177z" />
<path style="fill:#ababab" d="M410,28 l19,0 6,0 7,0 43,0 24,0 0,177 0,29 0,29 0,501 0,29 0,147 0,30 -6,0 -31,0 -37,0 -18,0 -7,0 0,-30 0,-147 1,-29 0,-530 -1,-29 0,-177z" />
<path style="fill:#c2c2c2" d="M425,28 l13,0 4,0 5,0 30,0 17,0 0,177 1,29 0,29 0,501 -1,29 0,147 0,30 -4,0 -30,0 -30,0 -5,0 0,-30 0,-147 1,-29 0,-530 -1,-29 0,-177z" />
<path style="fill:#d9d9d9" d="M440,28 l39,0 0,942 -39,0 0,-942z" />
<path style="fill:none;stroke:#000;stroke-width:2" d="M381,28 l157,0 0,942 -157,0 0,-942" />
<circle style="fill:#999" cx="459" cy="499" r="431" />
<ellipse style="fill:#a8a8a8" cx="459" cy="499" rx="370" ry="432" />
<ellipse style="fill:#b8b8b8" cx="460" cy="499" rx="309" ry="432" />
<ellipse style="fill:#c4c4c4" cx="459" cy="499" rx="248" ry="432" />
<ellipse style="fill:#d4d4d4" cx="460" cy="499" rx="187" ry="432" />
<ellipse style="fill:#e3e3e3" cx="460" cy="499" rx="126" ry="432" />
<ellipse style="fill:#f2f2f2" cx="459" cy="499" rx="65" ry="431" />
<circle style="fill:none;stroke:#000;stroke-width:2" cx="459" cy="499" r="431" />
<path style="fill:none;stroke:#000;stroke-width:2" d="M459,931 l-32,-5 -30,-14 -29,-24 -18,-20 -17,-23 -15,-26 -15,-30 -12,-32 -12,-34 -10,-37 -8,-38 -6,-41 -4,-42 -2,-43 -1,-23 1,-22 2,-43 4,-42 6,-41 8,-38 10,-37 12,-35 12,-32 15,-29 15,-26 17,-24 18,-20 29,-23 30,-14 22,-5 10,0" />
<path style="fill:#7f7f7f" d="M382,126 l0,-20 20,0 0,20 -20,0z" />
<path style="fill:#7f7f7f" d="M348,172 l0,-3 0,-10 0,-7 5,0 10,0 4,0 1,5 0,10 -1,5 -9,0 -10,0z" />
<path style="fill:#7f7f7f" d="M321,223 l0,-2 0,-10 0,-7 5,-1 10,0 5,1 0,4 0,10 0,5 -10,0 -10,0z" />
<path style="fill:#7f7f7f" d="M301,278 l0,-3 0,-10 0,-7 5,0 10,0 5,0 0,5 0,10 0,5 -10,0 -10,0z" />
<path style="fill:#7f7f7f" d="M286,334 l0,-2 0,-10 0,-8 5,0 10,0 5,0 0,5 0,10 0,5 -10,0 -10,0z" />
<path style="fill:#7f7f7f" d="M276,391 l0,-2 0,-10 0,-7 5,-1 10,0 5,1 0,4 0,10 0,5 -10,0 -10,0z" />
<path style="fill:#7f7f7f" d="M270,449 l0,-2 0,-10 0,-7 5,-1 10,0 5,1 0,4 0,10 0,5 -10,0 -10,0z" />
<path style="fill:#7f7f7f" d="M268,507 l0,-2 0,-10 0,-8 5,0 10,0 5,0 0,5 0,10 0,5 -10,0 -10,0z" />
<path style="fill:#7f7f7f" d="M270,565 l0,-2 0,-10 0,-8 5,0 10,0 5,0 0,5 0,10 0,5 -10,0 -10,0z" />
<path style="fill:#7f7f7f" d="M275,623 l0,-2 1,-10 -1,-7 5,-1 11,0 4,1 1,4 0,10 -1,5 -9,0 -11,0z" />
<path style="fill:#7f7f7f" d="M286,680 l0,-2 0,-10 0,-7 5,-1 10,0 4,1 1,4 0,10 -1,5 -9,0 -10,0z" />
<path style="fill:#7f7f7f" d="M300,737 l0,-3 0,-10 0,-7 5,0 10,0 4,0 1,5 0,10 -1,5 -9,0 -10,0z" />
<path style="fill:#7f7f7f" d="M319,792 l0,-3 1,-10 -1,-7 5,0 10,0 5,0 1,5 0,10 -1,5 -10,-1 -10,1z" />
<path style="fill:#7f7f7f" d="M346,843 l0,-2 0,-10 0,-7 5,-1 10,0 5,1 0,4 0,10 0,5 -10,0 -10,0z" />
<path style="fill:#7f7f7f" d="M380,891 l0,-20 20,0 0,20 -20,0z" />

</svg>
