

<svg xmlns:agg="http://www.example.com" xmlns="http://www.w3.org/2000/svg" preserveAspectRatio="none" width="1.0773in" height="1.4792in" viewBox="0 0 386 530">

<path style="fill:#7f7f7f;stroke:#000;stroke-width:2" d="M159,24 l34,-9 34,9 -68,0z" />
<path style="fill:#b2b2b2" d="M172,24 l21,-9 21,9 -42,0z" />
<path style="fill:#e5e5e5" d="M187,24 l6,-9 6,9 -12,0z" />
<path style="fill:#7f7f7f;stroke:#000;stroke-width:2" d="M291,405 l42,0 0,102 -42,0 0,-102z" />
<path style="fill:#b2b2b2" d="M298,405 l27,0 0,102 -27,0 0,-102z" />
<path style="fill:#e5e5e5" d="M308,405 l7,0 0,102 -7,0 0,-102z" />
<path style="fill:#7f7f7f;stroke:#000;stroke-width:2" d="M53,405 l43,0 0,102 -43,0 0,-102z" />
<path style="fill:#b2b2b2" d="M61,405 l27,0 0,102 -27,0 0,-102z" />
<path style="fill:#e5e5e5" d="M71,405 l7,0 0,102 -7,0 0,-102z" />
<path style="fill:#a6a6a6" d="M24,100 l1,-18 5,-14 6,-12 19,-16 23,-7 13,-1 13,0 191,0 25,3 11,5 11,7 8,9 7,12 4,14 2,18 0,17 0,254 -2,18 -4,14 -7,12 -8,9 -11,7 -23,7 -13,1 -13,0 -191,0 -25,-3 -21,-12 -9,-9 -6,-12 -5,-14 -1,-18 0,-17 0,-254z" />
<path style="fill:#b2b2b2" d="M41,100 l1,-18 4,-14 6,-12 17,-16 21,-7 12,-1 11,0 172,0 22,3 20,12 8,9 6,12 4,14 1,18 0,17 0,254 -1,18 -4,14 -6,12 -18,16 -21,7 -11,1 -11,0 -172,0 -23,-3 -19,-12 -8,-9 -6,-12 -4,-14 -1,-18 0,-17 0,-254z" />
<path style="fill:#bfbfbf" d="M66,100 l1,-18 3,-14 5,-12 14,-16 18,-7 10,-1 19,0 133,0 19,3 16,12 7,9 5,12 3,14 1,18 0,17 0,254 -1,18 -3,14 -5,12 -14,16 -18,7 -10,1 -19,0 -133,0 -19,-3 -16,-12 -7,-9 -5,-12 -3,-14 -1,-18 0,-17 0,-254z" />
<path style="fill:#ccc" d="M100,100 l1,-18 2,-14 8,-21 12,-12 7,-2 7,-1 14,0 98,0 14,3 12,12 8,21 2,14 1,18 0,17 0,254 -1,18 -2,14 -8,21 -12,12 -7,2 -7,1 -14,0 -98,0 -14,-3 -12,-12 -8,-21 -2,-14 -1,-18 0,-17 0,-254z" />
<path style="fill:#d9d9d9" d="M142,100 l0,-18 2,-14 4,-21 7,-12 4,-2 4,-1 8,0 53,0 11,8 5,16 2,12 2,14 0,18 0,289 -2,14 -4,21 -7,12 -3,2 -4,1 -8,0 -53,0 -8,-3 -7,-12 -4,-21 -2,-14 0,-18 0,-271z" />
<path style="fill:#e5e5e5" d="M176,100 l0,-18 1,-14 1,-21 4,-14 1,-1 5,0 15,0 3,3 3,21 0,12 1,14 0,18 0,289 -1,14 -1,21 -2,12 -2,2 -1,1 -5,0 -15,0 -5,-15 -1,-21 -1,-14 0,-18 0,-271z" />
<path style="fill:none;stroke:#000;stroke-width:2" d="M24,100 l1,-18 5,-14 6,-12 19,-16 23,-7 13,-1 13,0 191,0 25,3 11,5 11,7 8,9 7,12 4,14 2,18 0,17 0,254 -2,18 -4,14 -7,12 -8,9 -11,7 -23,7 -13,1 -13,0 -191,0 -25,-3 -21,-12 -9,-9 -6,-12 -5,-14 -1,-18 0,-17 0,-254" />
<path style="fill:none;stroke:#7f7f7f;stroke-width:2" d="M24,91 l339,0" />
<path style="fill:none;stroke:#7f7f7f;stroke-width:2" d="M41,57 l305,0" />
<path style="fill:#999;stroke:#000;stroke-width:2" d="M15,180 l356,0 0,5 -356,0 0,-5z" />
<path style="fill:#7f7f7f;stroke:#000;stroke-width:2" d="M41,515 l67,0 0,-8 -67,0 0,8z" />
<path style="fill:#b2b2b2" d="M53,515 l43,0 0,-8 -43,0 0,8z" />
<path style="fill:#e5e5e5" d="M68,515 l12,0 0,-8 -12,0 0,8z" />
<path style="fill:#7f7f7f;stroke:#000;stroke-width:2" d="M278,515 l68,0 0,-8 -68,0 0,8z" />
<path style="fill:#b2b2b2" d="M291,515 l42,0 0,-8 -42,0 0,8z" />
<path style="fill:#e5e5e5" d="M306,515 l12,0 0,-8 -12,0 0,8z" />
<path style="fill:#7f7f7f;stroke:#000;stroke-width:2" d="M159,36 l68,0 0,-12 -68,0 0,12z" />
<path style="fill:#b2b2b2" d="M172,36 l42,0 0,-12 -42,0 0,12z" />
<path style="fill:#e5e5e5" d="M187,36 l12,0 0,-12 -12,0 0,12z" />
<path style="fill:none;stroke:#000;stroke-width:2" d="M159,30 l68,0" />

</svg>
