

<svg xmlns:agg="http://www.example.com" xmlns="http://www.w3.org/2000/svg" preserveAspectRatio="none" width="0.7284in" height="1.4792in" viewBox="0 0 261 530">

<path style="fill:none;stroke:#000;stroke-width:2" d="M237,30 l0,-9" />
<path style="fill:none;stroke:#000;stroke-width:2" d="M215,30 l0,-9" />
<path style="fill:none;stroke:#000;stroke-width:2" d="M194,30 l0,-9" />
<path style="fill:none;stroke:#000;stroke-width:2" d="M173,30 l0,-9" />
<path style="fill:none;stroke:#000;stroke-width:2" d="M152,30 l0,-9" />
<path style="fill:none;stroke:#000;stroke-width:2" d="M131,30 l0,-9" />
<path style="fill:none;stroke:#000;stroke-width:2" d="M109,30 l0,-9" />
<path style="fill:none;stroke:#000;stroke-width:2" d="M88,30 l0,-9" />
<path style="fill:none;stroke:#000;stroke-width:2" d="M67,30 l0,-9" />
<path style="fill:none;stroke:#000;stroke-width:2" d="M46,30 l0,-9" />
<path style="fill:none;stroke:#000;stroke-width:2" d="M34,21 l212,0" />
<path style="fill:none;stroke:#000;stroke-width:2" d="M34,26 l212,0" />
<path style="fill:#4c4c4c" d="M42,29 l202,0 0,486 -202,0 0,-486z" />
<path style="fill:#666" d="M39,29 l200,0 0,486 -200,0 0,-486z" />
<path style="fill:#7f7f7f" d="M39,29 l189,0 0,486 -189,0 0,-486z" />
<path style="fill:#b2b2b2" d="M39,29 l170,0 0,486 -170,0 0,-486z" />
<path style="fill:#ccc" d="M39,29 l139,0 0,486 -139,0 0,-486z" />
<path style="fill:#e5e5e5" d="M39,29 l95,0 0,486 -95,0 0,-486z" />
<path style="fill:#fff" d="M39,29 l50,0 0,486 -50,0 0,-486z" />
<path style="fill:#e5e5e5" d="M39,29 l31,0 0,486 -31,0 0,-486z" />
<path style="fill:#ccc" d="M36,29 l15,0 0,486 -15,0 0,-486z" />
<path style="fill:none;stroke:#000;stroke-width:2" d="M36,29 l208,0 0,486 -208,0 0,-486" />
<path style="fill:#666" d="M34,507 l212,0 0,8 -212,0 0,-8z" />
<path style="fill:none;stroke:#e5e5e5;stroke-width:2" d="M39,507 l-5,0 0,8" />
<path style="fill:none;stroke:#e5e5e5;stroke-width:2" d="M246,507 l-207,0" />
<path style="fill:none;stroke:#000;stroke-width:2" d="M34,515 l212,0 0,-8" />
<path style="fill:#666" d="M34,30 l212,0 0,7 -212,0 0,-7z" />
<path style="fill:none;stroke:#e5e5e5;stroke-width:2" d="M39,30 l-5,0 0,7" />
<path style="fill:none;stroke:#e5e5e5;stroke-width:2" d="M246,30 l-207,0" />
<path style="fill:none;stroke:#000;stroke-width:2" d="M34,37 l212,0 0,-7" />
<path style="fill:#ccc;stroke:#000;stroke-width:2" d="M34,515 l-6,0 0,-500 6,0 0,500z" />
<path style="fill:#ccc;stroke:#000;stroke-width:2" d="M19,515 l-4,0 0,-500 4,0 0,500z" />
<path style="fill:#ccc;stroke:#000;stroke-width:2" d="M28,510 l-9,0 0,-4 9,0 0,4z" />
<path style="fill:#ccc;stroke:#000;stroke-width:2" d="M28,501 l-9,0 0,-4 9,0 0,4z" />
<path style="fill:#ccc;stroke:#000;stroke-width:2" d="M28,492 l-9,0 0,-5 9,0 0,5z" />
<path style="fill:#ccc;stroke:#000;stroke-width:2" d="M28,482 l-9,0 0,-4 9,0 0,4z" />
<path style="fill:#ccc;stroke:#000;stroke-width:2" d="M28,473 l-9,0 0,-4 9,0 0,4z" />
<path style="fill:#ccc;stroke:#000;stroke-width:2" d="M28,464 l-9,0 0,-5 9,0 0,5z" />
<path style="fill:#ccc;stroke:#000;stroke-width:2" d="M28,454 l-9,0 0,-4 9,0 0,4z" />
<path style="fill:#ccc;stroke:#000;stroke-width:2" d="M28,445 l-9,0 0,-4 9,0 0,4z" />
<path style="fill:#ccc;stroke:#000;stroke-width:2" d="M28,436 l-9,0 0,-5 9,0 0,5z" />
<path style="fill:#ccc;stroke:#000;stroke-width:2" d="M28,426 l-9,0 0,-4 9,0 0,4z" />
<path style="fill:#ccc;stroke:#000;stroke-width:2" d="M28,417 l-9,0 0,-4 9,0 0,4z" />
<path style="fill:#ccc;stroke:#000;stroke-width:2" d="M28,408 l-9,0 0,-5 9,0 0,5z" />
<path style="fill:#ccc;stroke:#000;stroke-width:2" d="M28,398 l-9,0 0,-4 9,0 0,4z" />
<path style="fill:#ccc;stroke:#000;stroke-width:2" d="M28,389 l-9,0 0,-5 9,0 0,5z" />
<path style="fill:#ccc;stroke:#000;stroke-width:2" d="M28,380 l-9,0 0,-5 9,0 0,5z" />
<path style="fill:#ccc;stroke:#000;stroke-width:2" d="M28,370 l-9,0 0,-4 9,0 0,4z" />
<path style="fill:#ccc;stroke:#000;stroke-width:2" d="M28,361 l-9,0 0,-5 9,0 0,5z" />
<path style="fill:#ccc;stroke:#000;stroke-width:2" d="M28,352 l-9,0 0,-5 9,0 0,5z" />
<path style="fill:#ccc;stroke:#000;stroke-width:2" d="M28,342 l-9,0 0,-4 9,0 0,4z" />
<path style="fill:#ccc;stroke:#000;stroke-width:2" d="M28,333 l-9,0 0,-5 9,0 0,5z" />
<path style="fill:#ccc;stroke:#000;stroke-width:2" d="M28,324 l-9,0 0,-5 9,0 0,5z" />
<path style="fill:#ccc;stroke:#000;stroke-width:2" d="M28,314 l-9,0 0,-4 9,0 0,4z" />
<path style="fill:#ccc;stroke:#000;stroke-width:2" d="M28,305 l-9,0 0,-5 9,0 0,5z" />
<path style="fill:#ccc;stroke:#000;stroke-width:2" d="M28,296 l-9,0 0,-5 9,0 0,5z" />
<path style="fill:#ccc;stroke:#000;stroke-width:2" d="M28,286 l-9,0 0,-4 9,0 0,4z" />
<path style="fill:#ccc;stroke:#000;stroke-width:2" d="M28,277 l-9,0 0,-5 9,0 0,5z" />
<path style="fill:#ccc;stroke:#000;stroke-width:2" d="M28,268 l-9,0 0,-5 9,0 0,5z" />
<path style="fill:#ccc;stroke:#000;stroke-width:2" d="M28,258 l-9,0 0,-4 9,0 0,4z" />
<path style="fill:#ccc;stroke:#000;stroke-width:2" d="M28,249 l-9,0 0,-5 9,0 0,5z" />
<path style="fill:#ccc;stroke:#000;stroke-width:2" d="M28,239 l-9,0 0,-4 9,0 0,4z" />
<path style="fill:#ccc;stroke:#000;stroke-width:2" d="M28,230 l-9,0 0,-4 9,0 0,4z" />
<path style="fill:#ccc;stroke:#000;stroke-width:2" d="M28,221 l-9,0 0,-5 9,0 0,5z" />
<path style="fill:#ccc;stroke:#000;stroke-width:2" d="M28,211 l-9,0 0,-4 9,0 0,4z" />
<path style="fill:#ccc;stroke:#000;stroke-width:2" d="M28,202 l-9,0 0,-4 9,0 0,4z" />
<path style="fill:#ccc;stroke:#000;stroke-width:2" d="M28,193 l-9,0 0,-5 9,0 0,5z" />
<path style="fill:#ccc;stroke:#000;stroke-width:2" d="M28,183 l-9,0 0,-4 9,0 0,4z" />
<path style="fill:#ccc;stroke:#000;stroke-width:2" d="M28,174 l-9,0 0,-4 9,0 0,4z" />
<path style="fill:#ccc;stroke:#000;stroke-width:2" d="M28,165 l-9,0 0,-5 9,0 0,5z" />
<path style="fill:#ccc;stroke:#000;stroke-width:2" d="M28,155 l-9,0 0,-4 9,0 0,4z" />
<path style="fill:#ccc;stroke:#000;stroke-width:2" d="M28,146 l-9,0 0,-4 9,0 0,4z" />
<path style="fill:#ccc;stroke:#000;stroke-width:2" d="M28,137 l-9,0 0,-5 9,0 0,5z" />
<path style="fill:#ccc;stroke:#000;stroke-width:2" d="M28,127 l-9,0 0,-4 9,0 0,4z" />
<path style="fill:#ccc;stroke:#000;stroke-width:2" d="M28,118 l-9,0 0,-5 9,0 0,5z" />
<path style="fill:#ccc;stroke:#000;stroke-width:2" d="M28,109 l-9,0 0,-5 9,0 0,5z" />
<path style="fill:#ccc;stroke:#000;stroke-width:2" d="M28,99 l-9,0 0,-4 9,0 0,4z" />
<path style="fill:#ccc;stroke:#000;stroke-width:2" d="M28,90 l-9,0 0,-5 9,0 0,5z" />
<path style="fill:#ccc;stroke:#000;stroke-width:2" d="M28,81 l-9,0 0,-5 9,0 0,5z" />
<path style="fill:#ccc;stroke:#000;stroke-width:2" d="M28,71 l-9,0 0,-4 9,0 0,4z" />
<path style="fill:#ccc;stroke:#000;stroke-width:2" d="M28,62 l-9,0 0,-5 9,0 0,5z" />
<path style="fill:#ccc;stroke:#000;stroke-width:2" d="M28,53 l-9,0 0,-5 9,0 0,5z" />
<path style="fill:#ccc;stroke:#000;stroke-width:2" d="M28,25 l-9,0 0,-5 9,0 0,5z" />
<path style="fill:#ccc;stroke:#000;stroke-width:2" d="M28,34 l-9,0 0,-5 9,0 0,5z" />
<path style="fill:#ccc;stroke:#000;stroke-width:2" d="M28,43 l-9,0 0,-4 9,0 0,4z" />

</svg>
