

<svg xmlns:agg="http://www.example.com" xmlns="http://www.w3.org/2000/svg" preserveAspectRatio="none" width="0.9930in" height="1.4792in" viewBox="0 0 670 998">

<path style="fill:#7f7f7f" d="M157,935 l356,0 0,36 -356,0 0,-36z" />
<path style="fill:#b2b2b2" d="M182,935 l237,0 0,36 -237,0 0,-36z" />
<path style="fill:#ccc" d="M206,935 l144,0 0,36 -144,0 0,-36z" />
<path style="fill:#e5e5e5" d="M227,935 l61,0 0,36 -61,0 0,-36z" />
<path style="fill:none;stroke:#000;stroke-width:2" d="M157,935 l356,0 0,36 -356,0 0,-36" />
<path style="fill:#0000bf" d="M219,37 l233,0 15,65 -267,0 19,-65z" />
<path style="fill:#0000c9" d="M225,37 l202,0 13,65 -231,0 16,-65z" />
<path style="fill:#0d0dd1" d="M229,37 l172,0 12,65 -196,0 12,-65z" />
<path style="fill:#3333db" d="M235,37 l141,0 9,65 -160,0 10,-65z" />
<path style="fill:#5959e3" d="M241,37 l109,0 8,65 -125,0 8,-65z" />
<path style="fill:#7f7fed" d="M246,37 l79,0 4,65 -88,0 5,-65z" />
<path style="fill:#a6a6f5" d="M252,37 l47,0 2,65 -53,0 4,-65z" />
<path style="fill:#ccf" d="M256,37 l18,0 0,65 -18,0 0,-65z" />
<path style="fill:none;stroke:#000;stroke-width:2" d="M219,37 l233,0 15,65 -267,0 19,-65" />
<path style="fill:#0000bf" d="M246,88 l177,0 84,14 70,33 47,51 18,62 0,548 -18,61 -47,51 -70,33 -84,14 -177,0 -86,-14 -68,-33 -47,-51 -18,-61 0,-548 18,-62 47,-51 68,-33 86,-14z" />
<path style="fill:#0000c4" d="M241,90 l162,0 78,12 67,33 43,51 16,62 0,546 -16,63 -43,51 -67,33 -78,12 -162,0 -79,-12 -64,-35 -43,-51 -16,-61 0,-546 16,-62 43,-49 64,-35 79,-12z" />
<path style="fill:#00c" d="M237,90 l146,0 73,12 60,35 42,51 13,60 0,546 -13,61 -42,51 -60,35 -73,12 -146,0 -73,-14 -60,-33 -39,-51 -16,-63 0,-541 16,-63 39,-51 60,-33 73,-14z" />
<path style="fill:#0a0ad1" d="M231,92 l133,-2 68,14 55,33 35,51 14,63 0,543 -14,61 -35,51 -55,35 -68,12 -133,-2 -67,-14 -55,-33 -35,-51 -14,-61 0,-541 14,-63 35,-49 55,-35 67,-12z" />
<path style="fill:#2121d6" d="M225,92 l121,0 61,12 49,33 33,51 14,63 0,543 -14,61 -33,51 -49,33 -61,14 -121,-4 -58,-12 -49,-35 -34,-49 -12,-63 0,-538 12,-62 34,-51 49,-33 58,-14z" />
<path style="fill:#3838db" d="M221,94 l106,-2 55,12 43,35 31,49 11,63 0,541 -11,63 -31,51 -43,33 -55,14 -106,-4 -54,-14 -44,-33 -29,-51 -10,-61 0,-538 10,-62 29,-49 44,-35 54,-12z" />
<path style="fill:#5454e3" d="M215,94 l92,-2 49,14 39,33 28,51 9,61 0,541 -9,61 -28,51 -39,35 -49,12 -92,-4 -47,-12 -39,-35 -25,-51 -10,-60 0,-534 10,-63 25,-51 39,-33 47,-14z" />
<path style="fill:#6b6be8" d="M211,96 l77,-4 42,14 34,33 24,51 9,62 0,540 -9,61 -24,51 -34,33 -42,14 -77,-4 -41,-14 -35,-33 -21,-51 -8,-63 0,-531 8,-63 21,-49 35,-35 41,-12z" />
<path style="fill:#8282ed" d="M206,98 l62,-4 37,12 29,35 20,49 8,62 0,538 -8,63 -20,51 -29,33 -37,14 -62,-6 -36,-14 -27,-33 -20,-51 -5,-61 0,-530 5,-62 20,-51 27,-34 36,-11z" />
<path style="fill:#9999f2" d="M202,98 l49,-4 29,12 25,35 16,51 6,60 0,538 -6,63 -16,51 -25,33 -29,14 -49,-8 -30,-12 -23,-35 -16,-49 -4,-62 0,-529 4,-62 16,-49 23,-36 30,-11z" />
<path style="fill:#b5b5fa" d="M196,98 l35,-4 24,14 19,33 14,51 6,63 0,535 -6,63 -14,49 -19,35 -24,12 -35,-6 -24,-14 -18,-33 -11,-51 -4,-62 0,-525 4,-62 11,-51 18,-33 24,-14z" />
<path style="fill:#ccf" d="M190,100 l21,-4 18,12 13,33 13,51 1,63 0,535 -1,61 -13,51 -13,35 -18,12 -21,-8 -16,-12 -14,-35 -7,-51 -2,-60 0,-525 2,-61 7,-50 14,-35 16,-12z" />
<path style="fill:none;stroke:#000;stroke-width:2" d="M246,88 l177,0 84,14 70,33 47,51 18,62 0,548 -18,61 -47,51 -70,33 -84,14 -177,0 -86,-14 -68,-33 -47,-51 -18,-61 0,-548 18,-62 47,-51 68,-33 86,-14" />
<path style="fill:#7f7f7f" d="M186,27 l297,0 0,10 -297,0 0,-10z" />
<path style="fill:#b2b2b2" d="M207,27 l198,0 0,10 -198,0 0,-10z" />
<path style="fill:#ccc" d="M227,27 l119,0 0,10 -119,0 0,-10z" />
<path style="fill:#e5e5e5" d="M245,27 l50,0 0,10 -50,0 0,-10z" />
<path style="fill:none;stroke:#000;stroke-width:2" d="M186,27 l297,0 0,10 -297,0 0,-10" />

</svg>
