

<svg xmlns:agg="http://www.example.com" xmlns="http://www.w3.org/2000/svg" preserveAspectRatio="none" width="2.0104in" height="0.9217in" viewBox="0 0 999 458">

<path style="fill:#666;stroke:#666;stroke-width:2" d="M28,38 l942,0 0,392 -942,0 0,-392z" />
<path style="fill:#999;stroke:#999;stroke-width:2" d="M38,38 l887,0 0,392 -887,0 0,-392z" />
<path style="fill:#b2b2b2;stroke:#b2b2b2;stroke-width:2" d="M63,38 l764,0 0,392 -764,0 0,-392z" />
<path style="fill:#ccc" d="M111,38 l628,0 0,392 -628,0 0,-392z" />
<path style="fill:#e5e5e5;stroke:#000;stroke-width:2" d="M28,28 l942,0 0,10 -942,0 0,-10z" />
<path style="fill:#999;stroke:#999;stroke-width:2" d="M48,38 l5,0 0,392 -5,0 0,-392z" />
<path style="fill:#999;stroke:#999;stroke-width:2" d="M88,38 l3,0 0,392 -3,0 0,-392z" />
<path style="fill:#999;stroke:#999;stroke-width:2" d="M126,38 l5,0 0,392 -5,0 0,-392z" />
<path style="fill:#999;stroke:#999;stroke-width:2" d="M166,38 l5,0 0,392 -5,0 0,-392z" />
<path style="fill:#999;stroke:#999;stroke-width:2" d="M204,38 l5,0 0,392 -5,0 0,-392z" />
<path style="fill:#999;stroke:#999;stroke-width:2" d="M244,38 l5,0 0,392 -5,0 0,-392z" />
<path style="fill:#999;stroke:#999;stroke-width:2" d="M284,38 l5,0 0,392 -5,0 0,-392z" />
<path style="fill:#999;stroke:#999;stroke-width:2" d="M322,38 l5,0 0,392 -5,0 0,-392z" />
<path style="fill:#999;stroke:#999;stroke-width:2" d="M362,38 l5,0 0,392 -5,0 0,-392z" />
<path style="fill:#999;stroke:#999;stroke-width:2" d="M402,38 l3,0 0,392 -3,0 0,-392z" />
<path style="fill:#999;stroke:#999;stroke-width:2" d="M440,38 l5,0 0,392 -5,0 0,-392z" />
<path style="fill:#999;stroke:#999;stroke-width:2" d="M480,38 l5,0 0,392 -5,0 0,-392z" />
<path style="fill:#999;stroke:#999;stroke-width:2" d="M518,38 l5,0 0,392 -5,0 0,-392z" />
<path style="fill:#999;stroke:#999;stroke-width:2" d="M558,38 l5,0 0,392 -5,0 0,-392z" />
<path style="fill:#999;stroke:#999;stroke-width:2" d="M598,38 l5,0 0,392 -5,0 0,-392z" />
<path style="fill:#999;stroke:#999;stroke-width:2" d="M636,38 l5,0 0,392 -5,0 0,-392z" />
<path style="fill:#999;stroke:#999;stroke-width:2" d="M676,38 l5,0 0,392 -5,0 0,-392z" />
<path style="fill:#999;stroke:#999;stroke-width:2" d="M716,38 l3,0 0,392 -3,0 0,-392z" />
<path style="fill:#999;stroke:#999;stroke-width:2" d="M754,38 l5,0 0,392 -5,0 0,-392z" />
<path style="fill:#999;stroke:#999;stroke-width:2" d="M794,38 l5,0 0,392 -5,0 0,-392z" />
<path style="fill:#999;stroke:#999;stroke-width:2" d="M832,38 l5,0 0,392 -5,0 0,-392z" />
<path style="fill:#999;stroke:#999;stroke-width:2" d="M872,38 l5,0 0,392 -5,0 0,-392z" />
<path style="fill:#999;stroke:#999;stroke-width:2" d="M912,38 l5,0 0,392 -5,0 0,-392z" />
<path style="fill:#999;stroke:#999;stroke-width:2" d="M950,38 l5,0 0,392 -5,0 0,-392z" />
<path style="fill:#b2b2b2;stroke:#b2b2b2;stroke-width:2" d="M43,38 l5,0 0,392 -5,0 0,-392z" />
<path style="fill:#b2b2b2;stroke:#b2b2b2;stroke-width:2" d="M83,38 l3,0 0,392 -3,0 0,-392z" />
<path style="fill:#b2b2b2;stroke:#b2b2b2;stroke-width:2" d="M121,38 l5,0 0,392 -5,0 0,-392z" />
<path style="fill:#b2b2b2;stroke:#b2b2b2;stroke-width:2" d="M161,38 l5,0 0,392 -5,0 0,-392z" />
<path style="fill:#b2b2b2;stroke:#b2b2b2;stroke-width:2" d="M199,38 l5,0 0,392 -5,0 0,-392z" />
<path style="fill:#b2b2b2;stroke:#b2b2b2;stroke-width:2" d="M239,38 l5,0 0,392 -5,0 0,-392z" />
<path style="fill:#b2b2b2;stroke:#b2b2b2;stroke-width:2" d="M279,38 l5,0 0,392 -5,0 0,-392z" />
<path style="fill:#b2b2b2;stroke:#b2b2b2;stroke-width:2" d="M317,38 l5,0 0,392 -5,0 0,-392z" />
<path style="fill:#b2b2b2;stroke:#b2b2b2;stroke-width:2" d="M357,38 l5,0 0,392 -5,0 0,-392z" />
<path style="fill:#b2b2b2;stroke:#b2b2b2;stroke-width:2" d="M397,38 l3,0 0,392 -3,0 0,-392z" />
<path style="fill:#b2b2b2;stroke:#b2b2b2;stroke-width:2" d="M435,38 l5,0 0,392 -5,0 0,-392z" />
<path style="fill:#b2b2b2;stroke:#b2b2b2;stroke-width:2" d="M475,38 l5,0 0,392 -5,0 0,-392z" />
<path style="fill:#b2b2b2;stroke:#b2b2b2;stroke-width:2" d="M513,38 l5,0 0,392 -5,0 0,-392z" />
<path style="fill:#b2b2b2;stroke:#b2b2b2;stroke-width:2" d="M553,38 l5,0 0,392 -5,0 0,-392z" />
<path style="fill:#b2b2b2;stroke:#b2b2b2;stroke-width:2" d="M593,38 l5,0 0,392 -5,0 0,-392z" />
<path style="fill:#b2b2b2;stroke:#b2b2b2;stroke-width:2" d="M631,38 l5,0 0,392 -5,0 0,-392z" />
<path style="fill:#b2b2b2;stroke:#b2b2b2;stroke-width:2" d="M671,38 l5,0 0,392 -5,0 0,-392z" />
<path style="fill:#b2b2b2;stroke:#b2b2b2;stroke-width:2" d="M711,38 l3,0 0,392 -3,0 0,-392z" />
<path style="fill:#b2b2b2;stroke:#b2b2b2;stroke-width:2" d="M749,38 l5,0 0,392 -5,0 0,-392z" />
<path style="fill:#b2b2b2;stroke:#b2b2b2;stroke-width:2" d="M789,38 l5,0 0,392 -5,0 0,-392z" />
<path style="fill:#b2b2b2;stroke:#b2b2b2;stroke-width:2" d="M827,38 l5,0 0,392 -5,0 0,-392z" />
<path style="fill:#b2b2b2;stroke:#b2b2b2;stroke-width:2" d="M867,38 l5,0 0,392 -5,0 0,-392z" />
<path style="fill:#b2b2b2;stroke:#b2b2b2;stroke-width:2" d="M907,38 l5,0 0,392 -5,0 0,-392z" />
<path style="fill:#b2b2b2;stroke:#b2b2b2;stroke-width:2" d="M945,38 l5,0 0,392 -5,0 0,-392z" />
<path style="fill:none;stroke:#000;stroke-width:2" d="M28,38 l942,0 0,392 -942,0 0,-392" />

</svg>
