 

<svg xmlns:agg="http://www.example.com" xmlns="http://www.w3.org/2000/svg" preserveAspectRatio="none" width="1.6083in" height="0.5265in" viewBox="0 0 999 327">

<path style="fill:#999;stroke:#000;stroke-width:2" d="M38,211 l922,0 0,28 -922,0 0,-28z" />
<path style="fill:#fff;stroke:#000;stroke-width:2" d="M28,33 l0,37 80,81 0,60 782,0 0,-60 80,-81 0,-37 -942,0z" />
<path style="fill:#000;stroke:#000;stroke-width:2" d="M68,241 l862,0 5,13 -867,0 0,-13z" />
<path style="fill:#ccc" d="M116,40 l7,0 0,159 -7,0 0,-159z" />
<path style="fill:#ccc" d="M176,40 l5,0 0,159 -5,0 0,-159z" />
<path style="fill:#ccc" d="M236,40 l5,0 0,159 -5,0 0,-159z" />
<path style="fill:#ccc" d="M294,40 l5,0 0,159 -5,0 0,-159z" />
<path style="fill:#ccc" d="M354,40 l6,0 0,159 -6,0 0,-159z" />
<path style="fill:#ccc" d="M415,40 l5,0 0,159 -5,0 0,-159z" />
<path style="fill:#ccc" d="M772,40 l5,0 0,159 -5,0 0,-159z" />
<path style="fill:#ccc" d="M711,40 l5,0 0,159 -5,0 0,-159z" />
<path style="fill:#ccc" d="M654,40 l5,0 0,159 -5,0 0,-159z" />
<path style="fill:#ccc" d="M593,40 l5,0 0,159 -5,0 0,-159z" />
<path style="fill:#ccc" d="M533,40 l5,0 0,159 -5,0 0,-159z" />
<path style="fill:#ccc" d="M475,40 l5,0 0,159 -5,0 0,-159z" />
<path style="fill:#ccc" d="M832,40 l5,0 0,159 -5,0 0,-159z" />
<path style="fill:#ccc" d="M890,146 l0,-106 5,0 0,101 -5,5z" />
<path style="fill:#ccc" d="M108,136 l-65,-66 0,-25 65,0 0,91z" />
<path style="fill:#ccc" d="M892,136 l63,-66 0,-25 -63,0 0,91z" />
<path style="fill:#4c4c4c" d="M58,221 l882,0 0,15 -882,0 0,-15z" />
<path style="fill:#b2b2b2;stroke:#000;stroke-width:2" d="M782,259 l50,-50 -131,0 51,50 30,0z" />
<path style="fill:#b2b2b2;stroke:#000;stroke-width:2" d="M513,259 l50,-50 -128,0 50,50 28,0z" />
<path style="fill:#b2b2b2;stroke:#000;stroke-width:2" d="M246,259 l51,-50 -131,0 50,50 30,0z" />
<path style="fill:#000;stroke:#000;stroke-width:2" d="M500,239 l8,4 0,1 -8,5 -9,-2 -1,-3 8,-5 2,0z" />
<path style="fill:#000;stroke:#000;stroke-width:2" d="M231,239 l10,3 0,2 0,1 -8,4 -2,0 -9,-3 0,-1 -1,-1 8,-5 2,0z" />
<path style="fill:#000;stroke:#000;stroke-width:2" d="M767,239 l9,3 1,2 -1,1 -7,4 -2,0 -10,-3 0,-1 0,-1 8,-5 2,0z" />
<path style="fill:none;stroke:#000;stroke-width:2" d="M108,201 l0,-161" />
<path style="fill:none;stroke:#000;stroke-width:2" d="M116,40 l0,161" />
<path style="fill:none;stroke:#000;stroke-width:2" d="M882,201 l0,-161" />
<path style="fill:none;stroke:#000;stroke-width:2" d="M890,40 l0,161" />
<path style="fill:none;stroke:#000;stroke-width:2" d="M226,201 l0,-161" />
<path style="fill:none;stroke:#000;stroke-width:2" d="M236,40 l0,161" />
<path style="fill:none;stroke:#000;stroke-width:2" d="M166,201 l0,-161" />
<path style="fill:none;stroke:#000;stroke-width:2" d="M176,40 l0,161" />
<path style="fill:none;stroke:#000;stroke-width:2" d="M287,201 l0,-161" />
<path style="fill:none;stroke:#000;stroke-width:2" d="M297,40 l0,161" />
<path style="fill:none;stroke:#000;stroke-width:2" d="M523,201 l0,-161" />
<path style="fill:none;stroke:#000;stroke-width:2" d="M533,40 l0,161" />
<path style="fill:none;stroke:#000;stroke-width:2" d="M344,201 l0,-161" />
<path style="fill:none;stroke:#000;stroke-width:2" d="M354,40 l0,161" />
<path style="fill:none;stroke:#000;stroke-width:2" d="M762,201 l0,-161" />
<path style="fill:none;stroke:#000;stroke-width:2" d="M772,40 l0,161" />
<path style="fill:none;stroke:#000;stroke-width:2" d="M465,201 l0,-161" />
<path style="fill:none;stroke:#000;stroke-width:2" d="M475,40 l0,161" />
<path style="fill:none;stroke:#000;stroke-width:2" d="M405,201 l0,-161" />
<path style="fill:none;stroke:#000;stroke-width:2" d="M415,40 l0,161" />
<path style="fill:none;stroke:#000;stroke-width:2" d="M822,201 l0,-161" />
<path style="fill:none;stroke:#000;stroke-width:2" d="M832,40 l0,161" />
<path style="fill:none;stroke:#000;stroke-width:2" d="M644,201 l0,-161" />
<path style="fill:none;stroke:#000;stroke-width:2" d="M654,40 l0,161" />
<path style="fill:none;stroke:#000;stroke-width:2" d="M583,201 l0,-161" />
<path style="fill:none;stroke:#000;stroke-width:2" d="M593,40 l0,161" />
<path style="fill:none;stroke:#000;stroke-width:2" d="M704,201 l0,-161" />
<path style="fill:none;stroke:#000;stroke-width:2" d="M711,40 l0,161" />
<path style="fill:none;stroke:#000;stroke-width:2" d="M78,28 l0,196" />
<path style="fill:none;stroke:#000;stroke-width:2" d="M48,224 l0,-196" />
<path style="fill:none;stroke:#000;stroke-width:2" d="M48,38 l30,0" />
<path style="fill:none;stroke:#000;stroke-width:2" d="M78,58 l-30,0" />
<path style="fill:none;stroke:#000;stroke-width:2" d="M48,76 l30,0" />
<path style="fill:none;stroke:#000;stroke-width:2" d="M78,96 l-30,0" />
<path style="fill:none;stroke:#000;stroke-width:2" d="M48,116 l30,0" />
<path style="fill:none;stroke:#000;stroke-width:2" d="M78,136 l-30,0" />
<path style="fill:none;stroke:#000;stroke-width:2" d="M48,156 l30,0" />
<path style="fill:none;stroke:#000;stroke-width:2" d="M78,176 l-30,0" />
<path style="fill:none;stroke:#000;stroke-width:2" d="M48,196 l30,0" />
<path style="fill:none;stroke:#000;stroke-width:2" d="M78,216 l-30,0" />
<path style="fill:none;stroke:#000;stroke-width:2" d="M950,28 l0,196" />
<path style="fill:none;stroke:#000;stroke-width:2" d="M920,224 l0,-196" />
<path style="fill:none;stroke:#000;stroke-width:2" d="M920,38 l30,0" />
<path style="fill:none;stroke:#000;stroke-width:2" d="M950,58 l-30,0" />
<path style="fill:none;stroke:#000;stroke-width:2" d="M920,76 l30,0" />
<path style="fill:none;stroke:#000;stroke-width:2" d="M950,96 l-30,0" />
<path style="fill:none;stroke:#000;stroke-width:2" d="M920,116 l30,0" />
<path style="fill:none;stroke:#000;stroke-width:2" d="M950,136 l-30,0" />
<path style="fill:none;stroke:#000;stroke-width:2" d="M920,156 l30,0" />
<path style="fill:none;stroke:#000;stroke-width:2" d="M950,176 l-30,0" />
<path style="fill:none;stroke:#000;stroke-width:2" d="M920,196 l30,0" />
<path style="fill:none;stroke:#000;stroke-width:2" d="M950,216 l-30,0" />
<path style="fill:#4c4c4c;stroke:#000;stroke-width:2" d="M814,244 l111,0 0,35 -111,0 0,-35z" />
<path style="fill:#4c4c4c;stroke:#000;stroke-width:2" d="M73,244 l111,0 0,35 -111,0 0,-35z" />
<circle style="fill:#333;stroke:#000;stroke-width:2" cx="923" cy="272" r="26" />
<circle style="fill:#333;stroke:#000;stroke-width:2" cx="815" cy="272" r="26" />
<circle style="fill:#333;stroke:#000;stroke-width:2" cx="182" cy="272" r="26" />
<circle style="fill:#333;stroke:#000;stroke-width:2" cx="74" cy="272" r="26" />

</svg>
