

<svg xmlns:agg="http://www.example.com" xmlns="http://www.w3.org/2000/svg" preserveAspectRatio="none" width="2.0104in" height="1.2610in" viewBox="0 0 998 626">

<path style="fill:#ccc" d="M967,197 l3,69 0,72 -3,72 -8,62 -11,50 -13,36 -15,19 -842,0 -15,-19 -13,-36 -11,-50 -8,-62 -3,-70 0,-74 3,-69 8,-62 11,-51 13,-38 15,-18 842,0 15,18 13,36 11,53 8,62z" />
<path style="fill:#d1d1d1" d="M967,206 l3,64 0,66 -3,64 -8,57 -11,47 -13,34 -15,17 -842,0 -15,-17 -13,-34 -9,-47 -10,-57 -3,-64 0,-66 3,-64 10,-58 9,-47 13,-32 15,-17 842,0 15,17 13,32 11,47 8,58z" />
<path style="fill:#d6d6d6" d="M967,214 l3,58 0,60 -3,59 -8,52 -11,42 -13,30 -15,15 -842,0 -15,-15 -13,-30 -9,-42 -10,-52 -3,-59 0,-60 3,-58 10,-51 9,-43 13,-30 15,-15 842,0 15,15 13,30 11,43 8,51z" />
<path style="fill:#d9d9d9" d="M967,223 l3,53 0,53 -3,52 -8,47 -11,38 -13,28 -15,14 -842,0 -15,-14 -13,-28 -9,-38 -10,-47 -3,-52 0,-53 3,-53 10,-47 9,-37 13,-27 15,-15 842,0 15,13 13,29 11,37 8,47z" />
<path style="fill:#dedede" d="M967,233 l3,45 0,49 -3,45 -8,41 -11,36 -13,23 -15,13 -842,0 -15,-13 -13,-25 -9,-32 -10,-43 -3,-45 0,-49 3,-45 10,-42 9,-34 13,-24 15,-13 842,0 15,13 13,24 11,34 8,42z" />
<path style="fill:#e3e3e3" d="M967,242 l3,40 0,41 -3,42 -8,35 -11,30 -13,21 -15,11 -842,-2 -15,-9 -13,-21 -9,-30 -10,-35 -3,-42 0,-41 3,-40 10,-38 9,-28 13,-22 15,-10 842,0 15,10 13,22 11,28 8,38z" />
<path style="fill:#e8e8e8" d="M967,250 l3,35 0,36 -3,34 -8,30 -11,26 -13,17 -15,10 -842,0 -15,-10 -13,-17 -9,-26 -10,-30 -3,-34 0,-36 3,-35 10,-30 9,-27 13,-17 15,-9 842,0 15,9 13,17 11,27 8,30z" />
<path style="fill:#ededed" d="M967,259 l3,28 0,30 -3,28 -8,27 -11,21 -13,15 -15,7 -842,0 -15,-7 -13,-15 -9,-21 -10,-27 -3,-28 0,-30 3,-28 10,-26 9,-21 13,-15 15,-8 842,0 15,8 13,15 11,21 8,26z" />
<path style="fill:#f2f2f2" d="M967,268 l3,23 0,23 -3,22 -8,21 -11,17 -13,11 -15,8 -842,-2 -15,-6 -13,-11 -9,-17 -10,-21 -3,-22 0,-23 3,-23 10,-20 9,-17 13,-11 15,-6 842,0 15,6 13,11 11,17 8,20z" />
<path style="fill:#f5f5f5" d="M967,278 l3,17 0,17 -3,17 -8,15 -11,11 -13,10 -15,3 -842,0 -15,-3 -13,-10 -9,-11 -10,-15 -3,-17 0,-17 3,-17 10,-15 9,-13 13,-10 15,-4 842,0 15,4 13,10 11,13 8,15z" />
<path style="fill:#fafafa" d="M967,285 l3,12 0,11 -3,11 -8,10 -11,7 -13,6 -15,3 -842,0 -15,-3 -13,-6 -9,-7 -10,-10 -3,-11 0,-11 3,-12 10,-9 9,-8 13,-5 15,-4 842,0 15,4 13,5 11,8 8,9z" />
<ellipse style="fill:#fff" cx="499" cy="303" rx="471" ry="19" />
<path style="fill:#f2f2f2" d="M86,28 l11,0 0,549 -11,0 0,-549z" />
<path style="fill:#f2f2f2" d="M901,28 l9,0 0,549 -9,0 0,-549z" />
<path style="fill:none;stroke:#000;stroke-width:2" d="M967,197 l3,69 0,72 -3,72 -8,62 -11,50 -13,36 -15,19 -842,0 -15,-19 -13,-36 -11,-50 -8,-62 -3,-70 0,-74 3,-69 8,-62 11,-51 13,-38 15,-18 842,0 15,18 13,36 11,53 8,62" />
<path style="fill:#e3e3e3" d="M449,442 l98,0 0,156 -98,0 0,-156z" />
<path style="fill:none;stroke:#000;stroke-width:2" d="M449,442 l0,156 98,0 0,-156" />
<path style="fill:#e3e3e3" d="M174,442 l98,0 0,156 -98,0 0,-156z" />
<path style="fill:none;stroke:#000;stroke-width:2" d="M174,442 l0,156 98,0 0,-156" />
<path style="fill:#e3e3e3" d="M724,442 l100,0 0,156 -100,0 0,-156z" />
<path style="fill:none;stroke:#000;stroke-width:2" d="M724,442 l0,156 100,0 0,-156" />

</svg>
