

<svg xmlns:agg="http://www.example.com" xmlns="http://www.w3.org/2000/svg" preserveAspectRatio="none" width="0.7048in" height="1.4792in" viewBox="0 0 476 999">

<path style="fill:#c93" d="M173,28 l122,0 0,73 -122,0 0,-73z" />
<path style="fill:#deab45" d="M189,29 l89,0 0,73 -89,0 0,-73z" />
<path style="fill:#edba54" d="M206,29 l56,0 0,73 -56,0 0,-73z" />
<path style="fill:#fc6" d="M222,28 l24,0 0,73 -24,0 0,-73z" />
<path style="fill:none;stroke:#000;stroke-width:2" d="M173,28 l122,0 0,73 -122,0 0,-73" />
<path style="fill:#c93" d="M382,814 l22,-20 18,-21 13,-24 9,-24 4,-25 0,-9 0,-490 -6,-26 -19,-24 -23,-17 -29,-14 -24,-9 -28,-7 -29,-5 -31,-3 -11,0 -11,0 -32,1 -30,3 -28,6 -27,8 -23,9 -27,15 -21,17 -17,25 -4,16 0,5 0,490 4,34 9,24 13,24 17,21 15,13 8,7 288,0z" />
<path style="fill:#d6a33d" d="M360,814 l19,-20 15,-21 11,-24 8,-24 3,-25 0,-9 0,-15 0,-475 -8,-31 -23,-28 -22,-16 -26,-12 -31,-10 -33,-6 -18,-2 -18,0 -18,0 -35,4 -32,8 -28,12 -25,14 -27,26 -13,31 -1,10 0,15 1,37 0,30 0,35 0,36 0,104 0,38 0,45 0,54 -1,29 0,33 0,34 4,34 7,24 12,24 15,21 12,13 6,7 8,0 238,0z" />
<path style="fill:#e0ad47" d="M339,814 l20,-27 14,-29 8,-33 3,-25 0,-9 0,-15 0,-475 -7,-31 -18,-28 -29,-22 -23,-12 -26,-8 -29,-4 -15,0 -15,0 -29,4 -26,8 -23,12 -29,22 -18,28 -6,21 -1,10 0,15 0,475 3,34 9,33 15,29 14,20 6,7 11,0 191,0z" />
<path style="fill:#ebb852" d="M316,814 l17,-27 11,-29 7,-33 2,-17 1,-8 0,-9 0,-490 -5,-31 -15,-28 -23,-22 -29,-16 -33,-8 -12,0 -12,0 -33,8 -29,16 -22,22 -14,28 -4,21 -1,10 0,15 0,484 3,33 8,32 13,29 7,13 5,7 9,0 149,0z" />
<path style="fill:#f5c25c" d="M295,814 l12,-27 8,-29 5,-33 2,-17 0,-8 0,-9 0,-490 -4,-31 -11,-28 -16,-22 -21,-16 -24,-8 -9,0 -8,0 -32,12 -19,18 -15,25 -9,29 -2,11 0,10 0,15 1,37 0,30 0,35 0,36 0,104 0,38 0,45 0,54 -1,29 0,33 0,34 2,34 5,33 8,29 8,20 4,7 6,0 110,0z" />
<path style="fill:#fc6" d="M273,814 l7,-27 6,-29 3,-33 0,-17 1,-8 0,-9 0,-490 -3,-31 -6,-28 -15,-28 -24,-18 -5,0 -6,0 -24,18 -14,28 -7,28 -1,21 -1,10 0,490 1,34 4,33 5,29 5,20 2,7 72,0z" />
<path style="fill:none;stroke:#000;stroke-width:2" d="M382,814 l22,-20 18,-21 13,-24 9,-24 4,-25 0,-9 0,-490 -6,-26 -19,-24 -23,-17 -29,-14 -24,-9 -28,-7 -29,-5 -31,-3 -11,0 -11,0 -32,1 -30,3 -28,6 -27,8 -23,9 -27,15 -21,17 -17,25 -4,16 0,5 0,490 4,34 9,24 13,24 17,21 15,13 8,7 288,0" />
<path style="fill:#4c4c4c;stroke:#000;stroke-width:2" d="M28,934 l13,-23 13,-23 13,-22 13,-23 13,-23 5,-8 8,0 272,0 13,23 13,23 13,23 13,23 13,23 5,7 -3,-3 -20,-20 -20,-20 -19,-20 -17,-10 -8,1 -21,17 -18,32 -11,23 -16,30 -5,6 -8,0 -96,0 -16,-25 -11,-23 -11,-23 -19,-28 -14,-9 -8,-1 -26,21 -20,19 -20,21 -10,9 -3,3z" />
<path style="fill:#333;stroke:#000;stroke-width:2" d="M269,848 l-24,96 -25,0 -23,-96 72,0z" />
<path style="fill:none;stroke:#000;stroke-width:2" d="M28,205 l416,0" />
<path style="fill:none;stroke:#000;stroke-width:2" d="M28,695 l416,0" />
<path style="fill:none;stroke:#000;stroke-width:2" d="M173,52 l122,0" />

</svg>
