 

<svg xmlns:agg="http://www.example.com" xmlns="http://www.w3.org/2000/svg" preserveAspectRatio="none" width="1.6083in" height="0.4057in" viewBox="0 0 999 252">

<path style="fill:#8c8c8c;stroke:#000;stroke-width:2" d="M970,185 l0,-118 -942,0 0,118 0,2 28,11 29,6 37,4 29,3 31,3 36,2 37,2 40,2 42,2 45,1 45,1 24,0 24,0 24,0 48,0 47,-1 45,-1 43,-1 41,-2 39,-1 36,-3 34,-3 30,-2 27,-3 35,-5 31,-7 15,-8 0,-2z" />
<ellipse style="fill:#ccc;stroke:#000;stroke-width:2" cx="499" cy="67" rx="471" ry="39" />
<ellipse style="fill:#999;stroke:#000;stroke-width:2" cx="499" cy="65" rx="417" ry="32" />
<ellipse style="fill:#0000bf" cx="498" cy="72" rx="386" ry="25" />
<path style="fill:#7f7f7f" d="M401,67 l0,19 98,4 98,-4 0,-19 -196,0z" />
<ellipse style="fill:#ccc;stroke:#000;stroke-width:2" cx="499" cy="67" rx="98" ry="8" />
<path style="fill:#b2b2b2;stroke:#000;stroke-width:2" d="M439,96 l142,-28 -160,0 -166,22 10,1 10,1 11,0 11,0 11,1 11,0 12,1 12,0 11,0 12,1 12,0 12,0 12,0 12,1 12,0 13,0z" />
<path style="fill:none;stroke:#fff;stroke-width:2" d="M794,42 l27,2 35,5 28,4 27,7 5,3 0,2 0,1 -25,10 -35,5 -35,4 -27,2 -30,2 -32,2 -34,2 -37,1 -38,1 -40,1 -42,0 -21,1 -21,0 -31,0 -30,-1 -30,0 -30,-1 -29,-1 -28,-1 -37,-1 -34,-2 -31,-2 -8,0 -7,-1" />

</svg>
