

<svg xmlns:agg="http://www.example.com" xmlns="http://www.w3.org/2000/svg" preserveAspectRatio="none" width="1.1638in" height="1.4792in" viewBox="0 0 417 530">

<path style="fill:#4c4c4c;stroke:#000;stroke-width:2" d="M273,382 l0,102 -8,0 0,8 55,0 0,-8 -8,0 0,-102 -39,0z" />
<path style="fill:#4c4c4c;stroke:#000;stroke-width:2" d="M105,382 l0,102 -8,0 0,8 55,0 0,-8 -8,0 0,-102 -39,0z" />
<path style="fill:#4c4c4c;stroke:#000;stroke-width:2" d="M90,511 l0,4 -63,0 0,-4 11,0 9,0 6,0 5,0 5,0 6,0 9,0 12,0z" />
<path style="fill:#4c4c4c;stroke:#000;stroke-width:2" d="M390,511 l0,4 -62,0 0,-4 11,0 9,0 6,0 5,0 5,0 6,0 8,0 12,0z" />
<path style="fill:#4c4c4c" d="M366,390 l12,-25 0,-314 -12,-24 12,0 24,24 0,314 -24,25 -12,0z" />
<path style="fill:#7f7f7f" d="M52,390 l-12,-25 0,-314 12,-24 -12,0 -25,24 0,314 25,25 12,0z" />
<path style="fill:#7f7f7f" d="M305,390 l12,-25 0,-314 -12,-24 31,0 12,24 0,314 -12,25 -31,0z" />
<path style="fill:#666" d="M336,390 l12,-25 0,-314 -12,-24 30,0 12,24 0,314 -12,25 -30,0z" />
<path style="fill:#999" d="M82,390 l-12,-25 0,-314 12,-24 -30,0 -12,24 0,314 12,25 30,0z" />
<path style="fill:#999" d="M275,390 l12,-25 0,-314 -12,-24 31,0 12,24 0,314 -12,25 -31,0z" />
<path style="fill:#b2b2b2" d="M112,390 l-12,-25 0,-314 12,-24 -30,0 -12,24 0,314 12,25 30,0z" />
<path style="fill:#b2b2b2" d="M248,390 l9,-25 0,-314 -9,-24 27,0 12,24 0,314 -12,25 -27,0z" />
<path style="fill:#ccc" d="M142,390 l-12,-25 0,-314 12,-24 -30,0 -12,24 0,314 12,25 30,0z" />
<path style="fill:#ccc" d="M221,390 l6,-25 0,-314 -6,-24 27,0 9,24 0,314 -9,25 -27,0z" />
<path style="fill:#e5e5e5" d="M169,390 l-9,-25 0,-314 9,-24 -27,0 -12,24 0,314 12,25 27,0z" />
<path style="fill:#e5e5e5" d="M197,390 l-6,-25 0,-314 6,-24 24,0 6,24 0,314 -6,25 -24,0z" />
<path style="fill:#fff" d="M197,390 l-6,-25 0,-314 6,-24 -28,0 -9,24 0,314 9,25 28,0z" />
<path style="fill:#7f7f7f" d="M305,27 l-96,-12 169,12 -73,0z" />
<path style="fill:#b2b2b2" d="M209,15 l24,12 72,0 -96,-12z" />
<path style="fill:#e5e5e5" d="M209,15 l-43,12 67,0 -24,-12z" />
<path style="fill:#ccc" d="M166,27 l43,-12 -103,12 60,0z" />
<path style="fill:#b2b2b2" d="M209,15 l-103,12 -66,0 169,-12z" />
<path style="fill:none;stroke:#000;stroke-width:2" d="M40,27 l338,0 -169,-12 -169,12" />
<path style="fill:none;stroke:#000;stroke-width:2" d="M15,365 l25,25 338,0 24,-25 0,-314 -24,-24 -338,0 -25,24 0,314" />
<path style="fill:none;stroke:#b2b2b2;stroke-width:2" d="M402,356 l-1,2 -14,4 -18,3 -23,2 -14,1 -15,1 -15,0 -17,1 -18,0 -18,1 -77,0 -19,-1 -17,0 -17,-1 -16,0 -14,-1 -14,-1 -23,-2 -18,-3 -14,-4 -1,-2" />
<path style="fill:none;stroke:#b2b2b2;stroke-width:2" d="M402,60 l-4,-3 -19,-4 -21,-2 -26,-2 -15,-1 -15,-1 -17,-1 -18,0 -18,-1 -77,0 -19,1 -17,0 -17,1 -16,1 -14,1 -26,2 -21,2 -14,3 -5,1 -4,3" />
<path style="fill:#4c4c4c;stroke:#000;stroke-width:2" d="M383,507 l-12,0 0,-133 12,-4 0,137z" />
<path style="fill:#4c4c4c;stroke:#000;stroke-width:2" d="M82,507 l-12,0 0,-129 12,0 0,129z" />
<path style="fill:#666;stroke:#000;stroke-width:2" d="M371,507 l-12,0 0,-129 12,-4 0,133z" />
<path style="fill:#666;stroke:#000;stroke-width:2" d="M70,507 l-12,0 0,-129 12,0 0,129z" />
<path style="fill:#7f7f7f;stroke:#000;stroke-width:2" d="M359,507 l-12,0 0,-129 12,0 0,129z" />
<path style="fill:#7f7f7f;stroke:#000;stroke-width:2" d="M58,507 l-11,0 0,-133 11,4 0,129z" />
<path style="fill:#b2b2b2;stroke:#000;stroke-width:2" d="M347,507 l43,0 0,4 -62,0 0,-4 8,0 0,-129 11,0 0,129z" />
<path style="fill:#b2b2b2;stroke:#000;stroke-width:2" d="M47,507 l43,0 0,4 -63,0 0,-4 8,0 0,-137 12,4 0,133z" />

</svg>
