

<svg xmlns:agg="http://www.example.com" xmlns="http://www.w3.org/2000/svg" preserveAspectRatio="none" width="0.8038in" height="1.4792in" viewBox="0 0 288 530">

<path style="fill:#4c4c4c;stroke:#000;stroke-width:2" d="M187,426 l0,68 -5,0 0,6 36,-1 0,-5 -5,0 0,-67 -26,-1z" />
<path style="fill:#4c4c4c;stroke:#000;stroke-width:2" d="M75,427 l0,68 -5,0 0,5 36,0 0,-6 -5,0 0,-67 -26,0z" />
<path style="fill:#4c4c4c;stroke:#000;stroke-width:2" d="M64,512 l0,3 -41,0 0,-3 8,0 5,0 4,0 3,0 3,0 4,0 6,0 8,0z" />
<path style="fill:#4c4c4c;stroke:#000;stroke-width:2" d="M265,512 l0,3 -42,0 0,-3 8,0 5,0 4,0 4,0 3,0 4,0 6,0 8,0z" />
<path style="fill:#4c4c4c" d="M249,431 l8,-16 0,-376 -8,-16 8,0 16,16 0,376 -16,16 -8,0z" />
<path style="fill:#7f7f7f" d="M39,431 l-8,-16 0,-376 8,-16 -8,0 -16,16 0,376 16,16 8,0z" />
<path style="fill:#7f7f7f" d="M208,431 l8,-16 0,-376 -8,-16 21,0 8,16 0,376 -8,16 -21,0z" />
<path style="fill:#666" d="M229,431 l8,-16 0,-376 -8,-16 20,0 8,16 0,376 -8,16 -20,0z" />
<path style="fill:#999" d="M59,431 l-8,-16 0,-376 8,-16 -20,0 -8,16 0,376 8,16 20,0z" />
<path style="fill:#999" d="M188,431 l8,-16 0,-376 -8,-16 20,0 8,16 0,376 -8,16 -20,0z" />
<path style="fill:#b2b2b2" d="M79,431 l-8,-16 0,-376 8,-16 -20,0 -8,16 0,376 8,16 20,0z" />
<path style="fill:#b2b2b2" d="M170,431 l6,-16 0,-376 -6,-16 18,0 8,16 0,376 -8,16 -18,0z" />
<path style="fill:#ccc" d="M100,431 l-8,-16 0,-376 8,-16 -21,0 -8,16 0,376 8,16 21,0z" />
<path style="fill:#ccc" d="M152,431 l4,-16 0,-376 -4,-16 18,0 6,16 0,376 -6,16 -18,0z" />
<path style="fill:#e5e5e5" d="M118,431 l-6,-16 0,-376 6,-16 -19,0 -8,16 0,376 8,16 19,0z" />
<path style="fill:#e5e5e5" d="M136,431 l-4,-16 0,-376 4,-16 16,0 4,16 0,376 -4,16 -16,0z" />
<path style="fill:#fff" d="M136,431 l-4,-16 0,-376 4,-16 -18,0 -6,16 0,376 6,16 18,0z" />
<path style="fill:#7f7f7f" d="M209,23 l-65,-8 113,8 -48,0z" />
<path style="fill:#b2b2b2" d="M144,15 l16,8 49,0 -65,-8z" />
<path style="fill:#e5e5e5" d="M144,15 l-28,8 44,0 -16,-8z" />
<path style="fill:#ccc" d="M116,23 l28,-8 -68,8 40,0z" />
<path style="fill:#b2b2b2" d="M144,15 l-68,8 -44,0 112,-8z" />
<path style="fill:none;stroke:#000;stroke-width:2" d="M31,23 l226,0 -114,-8 -112,8" />
<path style="fill:none;stroke:#000;stroke-width:2" d="M15,415 l16,16 226,0 16,-16 0,-377 -16,-16 -226,0 -16,16 0,377" />
<path style="fill:none;stroke:#b2b2b2;stroke-width:2" d="M273,409 l-3,2 -7,2 -12,2 -16,1 -19,1 -21,1 -24,1 -26,0 -26,0 -24,-1 -22,-1 -19,-1 -15,-1 -12,-2 -7,-2 -3,-2" />
<path style="fill:none;stroke:#b2b2b2;stroke-width:2" d="M273,43 l-3,-2 -7,-2 -12,-1 -16,-2 -19,-1 -21,-1 -24,-1 -26,0 -26,0 -24,1 -22,1 -19,1 -15,2 -12,1 -7,2 -3,2" />
<path style="fill:#4c4c4c;stroke:#000;stroke-width:2" d="M260,510 l-8,0 0,-89 8,-2 0,91z" />
<path style="fill:#4c4c4c;stroke:#000;stroke-width:2" d="M59,510 l-8,0 0,-86 8,0 0,86z" />
<path style="fill:#666;stroke:#000;stroke-width:2" d="M252,510 l-8,0 0,-86 8,-3 0,89z" />
<path style="fill:#666;stroke:#000;stroke-width:2" d="M51,510 l-7,0 0,-86 7,0 0,86z" />
<path style="fill:#7f7f7f;stroke:#000;stroke-width:2" d="M244,510 l-8,0 0,-86 8,0 0,86z" />
<path style="fill:#7f7f7f;stroke:#000;stroke-width:2" d="M44,510 l-8,0 0,-89 8,3 0,86z" />
<path style="fill:#b2b2b2;stroke:#000;stroke-width:2" d="M236,510 l29,0 0,2 -42,0 0,-2 5,0 0,-86 8,0 0,86z" />
<path style="fill:#b2b2b2;stroke:#000;stroke-width:2" d="M36,510 l28,0 0,2 -41,0 0,-2 5,0 0,-92 8,3 0,89z" />

</svg>
