

<svg xmlns:agg="http://www.example.com" xmlns="http://www.w3.org/2000/svg" preserveAspectRatio="none" width="1.2810in" height="1.4792in" viewBox="0 0 459 530">

<path style="fill:#7f7f7f" d="M51,515 l0,-500 357,0 0,500 -357,0z" />
<path style="fill:#999" d="M73,515 l0,-500 312,0 0,500 -312,0z" />
<path style="fill:#b2b2b2" d="M107,515 l0,-500 245,0 0,500 -245,0z" />
<path style="fill:#ccc" d="M152,515 l0,-500 155,0 0,500 -155,0z" />
<path style="fill:#e5e5e5" d="M190,515 l0,-500 78,0 0,500 -78,0z" />
<path style="fill:#fff" d="M223,515 l0,-500 12,0 0,500 -12,0z" />
<path style="fill:none;stroke:#000;stroke-width:2" d="M50,515 l0,-500 358,0 0,500 -358,0" />
<path style="fill:#7f7f7f" d="M15,77 l2,-10 15,-14 10,-2 23,0 351,0 10,2 15,14 2,10 0,23 0,353 -2,10 -15,14 -10,2 -23,0 -351,0 -10,-2 -15,-14 -2,-10 0,-24 0,-352z" />
<path style="fill:#999" d="M41,77 l2,-10 13,-14 9,-2 20,0 309,0 9,2 12,14 2,10 0,23 0,353 -2,10 -12,14 -9,2 -21,0 -308,0 -9,-2 -13,-14 -2,-10 0,-24 0,-352z" />
<path style="fill:#b2b2b2" d="M82,77 l6,-18 6,-6 7,-2 16,0 241,0 7,2 9,14 2,10 0,23 0,353 -6,18 -5,6 -7,2 -16,0 -241,0 -7,-2 -10,-14 -2,-10 0,-24 0,-352z" />
<path style="fill:#ccc" d="M135,77 l4,-18 4,-6 4,-2 10,0 154,0 4,2 7,14 1,10 0,23 0,353 -4,18 -4,6 -4,2 -10,0 -154,0 -4,-2 -7,-14 -1,-10 0,-24 0,-352z" />
<path style="fill:#e5e5e5" d="M182,77 l2,-18 2,-6 2,-2 10,0 72,0 2,2 3,14 1,10 0,23 0,353 -2,18 -2,6 -2,2 -10,0 -72,0 -2,-2 -3,-14 -1,-10 0,-24 0,-352z" />
<ellipse style="fill:#fff" cx="229" cy="265" rx="6" ry="214" />
<path style="fill:none;stroke:#000;stroke-width:2" d="M15,77 l2,-10 15,-14 10,-2 23,0 352,0 10,2 15,14 2,10 0,23 0,353 -2,10 -15,14 -10,2 -23,0 -352,0 -10,-2 -15,-14 -2,-10 0,-24 0,-352" />

</svg>
