

<svg xmlns:agg="http://www.example.com" xmlns="http://www.w3.org/2000/svg" preserveAspectRatio="none" width="1.4792in" height="1.4792in" viewBox="0 0 430 430">

<path style="fill:#7f7f7f" d="M12,266 l152,114 0,38 102,0 0,-38 152,-114 -406,0z" />
<path style="fill:#999" d="M22,266 l145,114 0,38 96,0 0,-38 145,-114 -386,0z" />
<path style="fill:#b2b2b2" d="M50,266 l124,114 0,38 82,0 0,-38 124,-114 -330,0z" />
<path style="fill:#ccc" d="M88,266 l95,114 0,38 64,0 0,-38 95,-114 -254,0z" />
<path style="fill:#e5e5e5" d="M139,266 l57,114 0,38 38,0 0,-38 57,-114 -152,0z" />
<path style="fill:#fff" d="M199,266 l12,114 0,38 8,0 0,-38 12,-114 -32,0z" />
<path style="fill:none;stroke:#000;stroke-width:2" d="M12,266 l152,114 0,38 102,0 0,-38 152,-114 -406,0" />
<ellipse style="fill:#7f7f7f" cx="215" cy="37" rx="203" ry="25" />
<ellipse style="fill:#666" cx="215" cy="44" rx="203" ry="19" />
<ellipse style="fill:#4c4c4c" cx="215" cy="53" rx="203" ry="9" />
<path style="fill:#7f7f7f" d="M418,266 l0,-229 -1,3 -15,7 -19,4 -11,2 -13,2 -15,2 -16,1 -16,2 -18,1 -19,1 -19,0 -20,1 -42,0 -20,-1 -19,0 -19,-1 -18,-1 -16,-2 -16,-1 -14,-2 -14,-2 -11,-2 -19,-4 -12,-5 -3,-2 -1,-3 0,229 1,3 15,7 19,4 11,2 14,2 14,1 16,2 16,1 18,1 19,1 19,0 20,1 21,0 21,0 20,-1 19,0 19,-1 18,-1 16,-1 16,-2 15,-1 13,-2 11,-2 19,-4 12,-5 3,-2 1,-3z" />
<path style="fill:#999" d="M393,278 l-15,3 -18,2 -9,2 -11,1 -10,1 -12,0 -11,1 -13,1 -12,1 -26,0 -14,1 -13,0 -41,0 -14,-1 -26,0 -12,-1 -12,-1 -12,-1 -12,0 -11,-1 -20,-3 -17,-2 -8,-2 -7,-1 0,-228 15,3 17,2 20,3 11,1 11,0 12,1 12,1 13,1 26,0 14,1 54,0 14,-1 26,0 13,-1 12,-1 12,-1 11,0 11,-1 20,-3 17,-2 8,-2 7,-1 0,228z" />
<path style="fill:#b2b2b2" d="M361,283 l-15,2 -16,1 -17,2 -18,1 -19,1 -20,0 -20,1 -42,0 -20,-1 -20,0 -19,-1 -18,-1 -17,-2 -16,-1 -15,-2 0,-228 15,2 16,1 17,2 18,1 19,1 20,0 20,1 42,0 20,-1 20,0 19,-1 18,-1 17,-2 16,-1 15,-2 0,228z" />
<path style="fill:#ccc" d="M323,287 l-12,1 -13,1 -13,1 -14,0 -14,1 -85,0 -14,-1 -13,0 -13,-1 -13,-1 -12,-1 0,-228 12,1 13,0 13,1 13,1 14,0 14,1 58,0 14,-1 14,0 14,-1 13,-1 13,0 12,-1 -1,228z" />
<path style="fill:#e5e5e5" d="M278,290 l-15,1 -97,0 -15,-1 0,-229 15,1 16,0 17,1 40,0 16,-1 16,-1 8,0 -1,229z" />
<path style="fill:#fff" d="M227,291 l-3,0 -3,0 -3,0 -3,0 -4,0 -4,0 -3,0 -3,0 0,-229 3,1 3,0 4,0 4,0 3,0 4,0 3,0 3,-1 -1,229z" />
<path style="fill:none;stroke:#000;stroke-width:2" d="M418,37 l-1,3 -15,7 -19,4 -11,2 -13,2 -15,2 -16,1 -16,2 -18,1 -19,1 -19,0 -20,1 -42,0 -20,-1 -19,0 -19,-1 -18,-1 -16,-2 -16,-1 -14,-2 -14,-2 -11,-2 -19,-4 -12,-5 -3,-2 -1,-3" />
<path style="fill:none;stroke:#000;stroke-width:2" d="M418,266 l0,-229 -1,-3 -15,-7 -19,-4 -11,-2 -13,-2 -15,-1 -16,-2 -16,-1 -18,-1 -19,-1 -19,-1 -20,0 -62,0 -19,1 -19,1 -18,1 -16,1 -16,2 -14,1 -14,2 -11,2 -19,4 -12,5 -3,2 -1,3 0,229 1,3 15,7 19,4 11,2 14,2 14,1 16,2 16,1 18,1 19,1 19,0 20,1 21,0 21,0 20,-1 19,0 19,-1 18,-1 16,-1 16,-2 15,-1 13,-2 11,-2 19,-4 12,-5 3,-2 1,-3" />

</svg>
