

<svg xmlns:agg="http://www.example.com" xmlns="http://www.w3.org/2000/svg" preserveAspectRatio="none" width="0.8380in" height="1.4792in" viewBox="0 0 566 999">

<path style="fill:#666638" d="M28,970 l0,-857 102,-68 153,-17 161,17 93,68 0,857 -509,0z" />
<path style="fill:#78784f" d="M70,970 l0,-857 77,-68 136,-17 136,17 84,68 0,857 -433,0z" />
<path style="fill:#878763" d="M104,970 l0,-857 68,-68 111,-17 119,17 67,68 0,857 -365,0z" />
<path style="fill:#99997a" d="M138,970 l0,-857 60,-68 85,-17 93,17 51,68 0,857 -289,0z" />
<path style="fill:#abab91" d="M181,970 l0,-857 42,-68 60,-17 67,17 43,68 0,857 -212,0z" />
<path style="fill:#babaa6" d="M215,970 l0,-857 25,-68 43,-17 42,17 25,68 0,857 -135,0z" />
<path style="fill:#ccccbd" d="M257,970 l0,-857 9,-68 17,-17 25,17 8,68 0,857 -59,0z" />
<path style="fill:none;stroke:#000;stroke-width:2" d="M28,970 l0,-857 102,-68 153,-17 161,17 93,68 0,857 -509,0" />
<path style="fill:none;stroke:#000;stroke-width:2" d="M28,113 l509,0" />

</svg>
