

<svg xmlns:agg="http://www.example.com" xmlns="http://www.w3.org/2000/svg" preserveAspectRatio="none" width="2.0104in" height="1.0585in" viewBox="0 0 999 526">

<path style="fill:#666;stroke:#000;stroke-width:2" d="M28,65 l40,0 0,11 -40,0 0,-11z" />
<path style="fill:#666" d="M68,65 l902,0 0,11 -902,0 0,-11z" />
<path style="fill:#999" d="M76,65 l864,0 0,11 -864,0 0,-11z" />
<path style="fill:#999" d="M68,76 l902,0 0,422 -902,0 0,-422z" />
<path style="fill:#b2b2b2" d="M96,65 l796,0 0,11 -796,0 0,-11z" />
<path style="fill:#b2b2b2" d="M76,76 l864,0 0,422 -864,0 0,-422z" />
<path style="fill:#ccc" d="M126,65 l696,0 0,11 -696,0 0,-11z" />
<path style="fill:#ccc" d="M96,76 l796,0 0,422 -796,0 0,-422z" />
<path style="fill:none;stroke:#000;stroke-width:2" d="M68,65 l902,0 0,433 -902,0 0,-433" />
<path style="fill:#e5e5e5" d="M126,76 l696,0 0,422 -696,0 0,-422z" />
<path style="fill:none;stroke:#999;stroke-width:2" d="M68,106 l902,0" />
<path style="fill:none;stroke:#999;stroke-width:2" d="M68,143 l902,0" />
<path style="fill:none;stroke:#999;stroke-width:2" d="M68,184 l902,0" />
<path style="fill:none;stroke:#999;stroke-width:2" d="M68,224 l902,0" />
<path style="fill:none;stroke:#999;stroke-width:2" d="M68,262 l902,0" />
<path style="fill:none;stroke:#999;stroke-width:2" d="M68,302 l902,0" />
<path style="fill:none;stroke:#999;stroke-width:2" d="M68,342 l902,0" />
<path style="fill:none;stroke:#999;stroke-width:2" d="M68,380 l902,0" />
<path style="fill:none;stroke:#999;stroke-width:2" d="M68,420 l902,0" />
<path style="fill:none;stroke:#999;stroke-width:2" d="M68,458 l902,0" />
<path style="fill:none;stroke:#000;stroke-width:2" d="M156,106 l20,0" />
<path style="fill:none;stroke:#000;stroke-width:2" d="M156,143 l20,0" />
<path style="fill:none;stroke:#000;stroke-width:2" d="M156,184 l20,0" />
<path style="fill:none;stroke:#000;stroke-width:2" d="M156,224 l20,0" />
<path style="fill:none;stroke:#000;stroke-width:2" d="M156,262 l20,0" />
<path style="fill:none;stroke:#000;stroke-width:2" d="M156,302 l20,0" />
<path style="fill:none;stroke:#000;stroke-width:2" d="M156,342 l20,0" />
<path style="fill:none;stroke:#000;stroke-width:2" d="M156,380 l20,0" />
<path style="fill:none;stroke:#000;stroke-width:2" d="M156,420 l20,0" />
<path style="fill:none;stroke:#000;stroke-width:2" d="M156,458 l20,0" />
<path style="fill:none;stroke:#000;stroke-width:2" d="M390,106 l20,0" />
<path style="fill:none;stroke:#000;stroke-width:2" d="M390,143 l20,0" />
<path style="fill:none;stroke:#000;stroke-width:2" d="M390,184 l20,0" />
<path style="fill:none;stroke:#000;stroke-width:2" d="M390,224 l20,0" />
<path style="fill:none;stroke:#000;stroke-width:2" d="M390,262 l20,0" />
<path style="fill:none;stroke:#000;stroke-width:2" d="M390,302 l20,0" />
<path style="fill:none;stroke:#000;stroke-width:2" d="M390,342 l20,0" />
<path style="fill:none;stroke:#000;stroke-width:2" d="M390,380 l20,0" />
<path style="fill:none;stroke:#000;stroke-width:2" d="M390,420 l20,0" />
<path style="fill:none;stroke:#000;stroke-width:2" d="M390,458 l20,0" />
<path style="fill:none;stroke:#000;stroke-width:2" d="M626,106 l20,0" />
<path style="fill:none;stroke:#000;stroke-width:2" d="M626,143 l20,0" />
<path style="fill:none;stroke:#000;stroke-width:2" d="M626,184 l20,0" />
<path style="fill:none;stroke:#000;stroke-width:2" d="M626,224 l20,0" />
<path style="fill:none;stroke:#000;stroke-width:2" d="M626,262 l20,0" />
<path style="fill:none;stroke:#000;stroke-width:2" d="M626,302 l20,0" />
<path style="fill:none;stroke:#000;stroke-width:2" d="M626,342 l20,0" />
<path style="fill:none;stroke:#000;stroke-width:2" d="M626,380 l20,0" />
<path style="fill:none;stroke:#000;stroke-width:2" d="M626,420 l20,0" />
<path style="fill:none;stroke:#000;stroke-width:2" d="M626,458 l20,0" />
<path style="fill:none;stroke:#000;stroke-width:2" d="M862,106 l20,0" />
<path style="fill:none;stroke:#000;stroke-width:2" d="M862,143 l20,0" />
<path style="fill:none;stroke:#000;stroke-width:2" d="M862,184 l20,0" />
<path style="fill:none;stroke:#000;stroke-width:2" d="M862,224 l20,0" />
<path style="fill:none;stroke:#000;stroke-width:2" d="M862,262 l20,0" />
<path style="fill:none;stroke:#000;stroke-width:2" d="M862,302 l20,0" />
<path style="fill:none;stroke:#000;stroke-width:2" d="M862,342 l20,0" />
<path style="fill:none;stroke:#000;stroke-width:2" d="M862,380 l20,0" />
<path style="fill:none;stroke:#000;stroke-width:2" d="M862,420 l20,0" />
<path style="fill:none;stroke:#000;stroke-width:2" d="M862,458 l20,0" />
<path style="fill:none;stroke:#000;stroke-width:2" d="M28,65 l0,-37" />
<path style="fill:none;stroke:#000;stroke-width:2" d="M106,65 l0,-37" />
<path style="fill:none;stroke:#000;stroke-width:2" d="M184,65 l0,-37" />
<path style="fill:none;stroke:#000;stroke-width:2" d="M264,65 l0,-37" />
<path style="fill:none;stroke:#000;stroke-width:2" d="M342,65 l0,-37" />
<path style="fill:none;stroke:#000;stroke-width:2" d="M420,65 l0,-37" />
<path style="fill:none;stroke:#000;stroke-width:2" d="M498,65 l0,-37" />
<path style="fill:none;stroke:#000;stroke-width:2" d="M578,65 l0,-37" />
<path style="fill:none;stroke:#000;stroke-width:2" d="M656,65 l0,-37" />
<path style="fill:none;stroke:#000;stroke-width:2" d="M734,65 l0,-37" />
<path style="fill:none;stroke:#000;stroke-width:2" d="M812,65 l0,-37" />
<path style="fill:none;stroke:#000;stroke-width:2" d="M892,65 l0,-37" />
<path style="fill:none;stroke:#000;stroke-width:2" d="M970,65 l0,-37" />
<path style="fill:none;stroke:#000;stroke-width:2" d="M28,28 l942,0" />
<path style="fill:none;stroke:#000;stroke-width:2" d="M28,45 l942,0" />
<path style="fill:none;stroke:#000;stroke-width:2" d="M68,262 l-3,-8 -4,-9 -5,-10 -5,-11 -4,-8 -3,-10 -3,-11 -3,-12 -3,-13 -2,-15 -2,-17 -1,-9 -1,-10 0,-10 -1,-11 0,-11 0,-11 2,0 35,0 3,0 0,5 0,175 0,6" />
<path style="fill:none;stroke:#000;stroke-width:2" d="M28,81 l40,0" />
<path style="fill:none;stroke:#000;stroke-width:2" d="M28,86 l40,0" />
<path style="fill:none;stroke:#000;stroke-width:2" d="M28,91 l40,0" />
<path style="fill:none;stroke:#000;stroke-width:2" d="M28,96 l40,0" />
<path style="fill:none;stroke:#000;stroke-width:2" d="M28,101 l40,0" />
<path style="fill:none;stroke:#000;stroke-width:2" d="M28,106 l40,0" />
<path style="fill:none;stroke:#000;stroke-width:2" d="M28,111 l40,0" />
<path style="fill:none;stroke:#000;stroke-width:2" d="M28,116 l40,0" />
<path style="fill:none;stroke:#000;stroke-width:2" d="M28,121 l40,0" />
<path style="fill:none;stroke:#000;stroke-width:2" d="M30,126 l38,0" />
<path style="fill:none;stroke:#000;stroke-width:2" d="M30,131 l38,0" />
<path style="fill:none;stroke:#000;stroke-width:2" d="M30,136 l38,0" />
<path style="fill:none;stroke:#000;stroke-width:2" d="M30,141 l38,0" />
<path style="fill:none;stroke:#000;stroke-width:2" d="M30,146 l38,0" />
<path style="fill:none;stroke:#000;stroke-width:2" d="M30,151 l38,0" />
<path style="fill:none;stroke:#000;stroke-width:2" d="M33,156 l35,0" />
<path style="fill:none;stroke:#000;stroke-width:2" d="M33,161 l35,0" />
<path style="fill:none;stroke:#000;stroke-width:2" d="M33,166 l35,0" />
<path style="fill:none;stroke:#000;stroke-width:2" d="M35,171 l33,0" />
<path style="fill:none;stroke:#000;stroke-width:2" d="M35,176 l33,0" />
<path style="fill:none;stroke:#000;stroke-width:2" d="M38,181 l30,0" />
<path style="fill:none;stroke:#000;stroke-width:2" d="M38,186 l30,0" />
<path style="fill:none;stroke:#000;stroke-width:2" d="M40,191 l28,0" />
<path style="fill:none;stroke:#000;stroke-width:2" d="M40,196 l28,0" />
<path style="fill:none;stroke:#000;stroke-width:2" d="M43,201 l25,0" />
<path style="fill:none;stroke:#000;stroke-width:2" d="M43,206 l25,0" />
<path style="fill:none;stroke:#000;stroke-width:2" d="M45,211 l23,0" />
<path style="fill:none;stroke:#000;stroke-width:2" d="M48,216 l20,0" />
<path style="fill:none;stroke:#000;stroke-width:2" d="M48,221 l20,0" />
<path style="fill:none;stroke:#000;stroke-width:2" d="M50,226 l18,0" />
<path style="fill:none;stroke:#000;stroke-width:2" d="M53,231 l15,0" />
<path style="fill:none;stroke:#000;stroke-width:2" d="M55,236 l13,0" />
<path style="fill:none;stroke:#000;stroke-width:2" d="M58,241 l10,0" />
<path style="fill:none;stroke:#000;stroke-width:2" d="M60,246 l8,0" />
<path style="fill:none;stroke:#000;stroke-width:2" d="M63,251 l5,0" />
<path style="fill:none;stroke:#000;stroke-width:2" d="M65,256 l3,0" />

</svg>
