 

<svg xmlns:agg="http://www.example.com" xmlns="http://www.w3.org/2000/svg" preserveAspectRatio="none" width="1.3475in" height="1.0750in" viewBox="0 0 999 797">

<path style="fill:#596d8c" d="M499,769 l-91,-1 -89,-5 -81,-7 -73,-10 -58,-12 -43,-14 -27,-14 -9,-16 0,-549 942,0 0,549 -8,16 -27,14 -43,14 -59,12 -71,10 -83,7 -88,4 -92,2z" />
<path style="fill:#617594" d="M499,769 l-404,-41 -34,-13 1,-575 875,0 0,575 -32,13 -406,41z" />
<path style="fill:#697d9c" d="M499,769 l-337,-26 -68,-15 1,-588 809,0 0,588 -67,15 -338,26z" />
<path style="fill:#7084a3" d="M499,769 l-309,-24 -62,-9 0,-596 743,0 0,596 -62,9 -310,24z" />
<path style="fill:#788cab" d="M499,769 l-281,-19 -57,-6 0,-604 677,0 0,604 -57,6 -282,19z" />
<path style="fill:#7f93b2" d="M499,769 l-254,-16 -51,-6 1,-607 609,0 0,607 -51,6 -254,16z" />
<path style="fill:#879bba" d="M499,769 l-226,-15 -45,-2 0,-612 543,0 0,612 -45,2 -227,15z" />
<path style="fill:#91a5c4" d="M499,769 l-132,-4 -106,-8 0,-617 477,0 0,617 -105,8 -134,4z" />
<path style="fill:#99adcc" d="M499,769 l-114,-4 -91,-5 0,-620 411,0 0,620 -91,5 -115,4z" />
<path style="fill:#a1b5d4" d="M499,769 l-95,-3 -77,-4 0,-622 344,0 0,622 -76,4 -96,3z" />
<path style="fill:#a8bcdb" d="M499,769 l-77,-2 -62,-4 0,-623 278,0 0,623 -61,4 -78,2z" />
<path style="fill:#b0c4e3" d="M499,769 l-106,-3 1,-626 211,0 0,626 -106,3z" />
<path style="fill:#b8cceb" d="M499,769 l-72,-2 0,-627 145,0 0,627 -73,2z" />
<path style="fill:#bfd3f2" d="M499,769 l-39,-3 0,-625 78,0 0,625 -39,3z" />
<path style="fill:none;stroke:#000;stroke-width:2" d="M499,769 l-91,-1 -89,-5 -81,-7 -73,-10 -58,-12 -43,-14 -27,-14 -9,-16 0,-552 942,0 0,552 -8,16 -27,14 -43,14 -59,12 -71,10 -83,7 -88,4 -92,2" />
<ellipse style="fill:#8ca0bf;stroke:#000;stroke-width:2" cx="499" cy="140" rx="471" ry="78" />
<path style="fill:#405473;stroke:#000;stroke-width:2" d="M741,200 l-76,6 -81,4 -85,1 -84,-1 -82,-4 -75,-6 -66,-9 -54,-11 -40,-12 -24,-14 -9,-13 8,-14 25,-13 40,-13 603,99z" />
<path style="fill:#405473;stroke:#000;stroke-width:2" d="M925,154 l-592,-79 81,-4 85,-1 84,1 82,4 75,7 66,9 54,10 40,13 24,13 9,14 -8,13z" />
<path style="fill:#596d8c;stroke:#000;stroke-width:2" d="M741,200 l-76,6 -61,3 -466,-82 0,-26 603,99z" />
<path style="fill:#ccb24c" d="M298,38 l0,-10 599,73 0,10 -599,-73z" />
<path style="fill:#ccb24c" d="M298,62 l0,-10 599,74 0,10 -599,-74z" />
<path style="fill:#ccb24c" d="M146,82 l0,-10 152,-20 0,10 -152,20z" />
<path style="fill:#ccb24c" d="M146,57 l0,-9 152,-20 0,10 -152,19z" />
<path style="fill:#ccb24c" d="M897,155 l-9,0 0,-54 9,0 0,54z" />
<path style="fill:#ccb24c" d="M749,136 l-9,0 0,-49 9,0 0,49z" />
<path style="fill:#ccb24c" d="M602,116 l-9,0 0,-49 9,0 0,49z" />
<path style="fill:#ccb24c" d="M454,96 l-9,0 0,-44 9,0 0,44z" />
<path style="fill:#ccb24c" d="M307,77 l-9,0 0,-45 9,0 0,45z" />
<path style="fill:#ccb24c" d="M228,87 l-9,0 0,-45 9,0 0,45z" />
<path style="fill:#e5cb65" d="M744,199 l-9,0 0,-58 9,0 0,58z" />
<path style="fill:#e5cb65" d="M597,175 l-9,0 0,-54 9,0 0,54z" />
<path style="fill:#e5cb65" d="M450,150 l-10,0 0,-54 10,0 0,54z" />
<path style="fill:#e5cb65" d="M155,101 l-9,0 0,-49 9,0 0,49z" />
<path style="fill:#e5cb65" d="M302,126 l-9,0 0,-49 9,0 0,49z" />
<path style="fill:#e5cb65" d="M146,57 l0,-9 598,88 0,10 -598,-89z" />
<path style="fill:#e5cb65" d="M146,82 l0,-10 598,88 0,10 -598,-88z" />
<path style="fill:#e5cb65" d="M838,160 l0,609 -10,0 0,-604 -7,-10 -10,-3 -8,5 0,33 -9,0 0,-40 15,-9 16,3 13,16z" />
<path style="fill:#e5cb65" d="M892,151 l0,608 -10,0 0,-599 -7,-9 -10,-10 -8,10 0,29 -9,0 0,-39 15,-10 16,0 13,20z" />
<path style="fill:#ccb24c" d="M887,715 l-49,10 0,-10 49,-10 0,10z" />
<path style="fill:#ccb24c" d="M887,676 l-49,9 0,-9 49,-10 0,10z" />
<path style="fill:#ccb24c" d="M887,636 l-49,10 0,-10 49,-9 0,9z" />
<path style="fill:#ccb24c" d="M887,597 l-49,10 0,-10 49,-10 0,10z" />
<path style="fill:#ccb24c" d="M887,558 l-49,9 0,-9 49,-10 0,10z" />
<path style="fill:#ccb24c" d="M887,518 l-49,10 0,-10 49,-9 0,9z" />
<path style="fill:#ccb24c" d="M887,479 l-49,10 0,-10 49,-10 0,10z" />
<path style="fill:#ccb24c" d="M887,440 l-49,10 0,-10 49,-10 0,10z" />
<path style="fill:#ccb24c" d="M887,401 l-49,9 0,-9 49,-10 0,10z" />
<path style="fill:#ccb24c" d="M887,361 l-49,10 0,-10 49,-9 0,9z" />
<path style="fill:#ccb24c" d="M887,322 l-49,10 0,-10 49,-10 0,10z" />
<path style="fill:#ccb24c" d="M887,283 l-49,10 0,-10 49,-10 0,10z" />
<path style="fill:#ccb24c" d="M887,244 l-49,9 0,-9 49,-10 0,10z" />
<path style="fill:#ccb24c" d="M887,204 l-49,10 0,-10 49,-9 0,9z" />

</svg>
