 

<svg xmlns:agg="http://www.example.com" xmlns="http://www.w3.org/2000/svg" preserveAspectRatio="none" width="0.3981in" height="1.0750in" viewBox="0 0 370 999">

<path style="fill:none;stroke:#7f7f7f;stroke-width:2" d="M116,941 l-54,-216" />
<path style="fill:none;stroke:#7f7f7f;stroke-width:2" d="M48,946 l73,-216" />
<path style="fill:none;stroke:#7f7f7f;stroke-width:2" d="M254,941 l53,-216" />
<path style="fill:none;stroke:#7f7f7f;stroke-width:2" d="M322,946 l-73,-216" />
<path style="fill:none;stroke:#7f7f7f;stroke-width:2" d="M121,720 l-49,-309" />
<path style="fill:none;stroke:#7f7f7f;stroke-width:2" d="M62,715 l69,-309" />
<path style="fill:none;stroke:#7f7f7f;stroke-width:2" d="M249,720 l49,-309" />
<path style="fill:none;stroke:#7f7f7f;stroke-width:2" d="M307,715 l-68,-309" />
<path style="fill:none;stroke:#7f7f7f;stroke-width:2" d="M239,396 l49,-201" />
<path style="fill:none;stroke:#7f7f7f;stroke-width:2" d="M298,401 l-64,-206" />
<path style="fill:none;stroke:#7f7f7f;stroke-width:2" d="M131,396 l-49,-201" />
<path style="fill:none;stroke:#7f7f7f;stroke-width:2" d="M72,401 l64,-206" />
<path style="fill:none;stroke:#7f7f7f;stroke-width:2" d="M136,931 l93,-206" />
<path style="fill:none;stroke:#7f7f7f;stroke-width:2" d="M234,931 l-93,-206" />
<path style="fill:none;stroke:#7f7f7f;stroke-width:2" d="M146,700 l73,-289" />
<path style="fill:none;stroke:#7f7f7f;stroke-width:2" d="M224,700 l-73,-289" />
<path style="fill:none;stroke:#7f7f7f;stroke-width:2" d="M155,396 l59,-201" />
<path style="fill:none;stroke:#7f7f7f;stroke-width:2" d="M214,396 l-59,-201" />
<path style="fill:#4c4c16;stroke:#000;stroke-width:2" d="M229,195 l20,755 -16,0 -20,-755 16,0z" />
<path style="fill:#4c4c16;stroke:#000;stroke-width:2" d="M141,195 l-20,755 16,0 20,-755 -16,0z" />
<path style="fill:#4c4c16;stroke:#000;stroke-width:2" d="M67,401 l74,-5 93,0 69,5 0,10 -69,0 -93,0 -74,0 0,-10z" />
<path style="fill:#4c4c16;stroke:#000;stroke-width:2" d="M67,715 l69,-5 103,0 64,5 0,10 -64,0 -103,0 -69,0 0,-10z" />
<path style="fill:#99997a;stroke:#000;stroke-width:2" d="M303,190 l39,770 -20,0 -39,-770 20,0z" />
<path style="fill:#99997a;stroke:#000;stroke-width:2" d="M67,190 l-39,770 19,0 40,-770 -20,0z" />
<path style="fill:#330;stroke:#000;stroke-width:2" d="M170,229 l0,113 30,29 0,-142 -30,0z" />
<path style="fill:#7f7f59;stroke:#000;stroke-width:2" d="M170,342 l0,623 30,0 0,-594 -30,-29z" />
<path style="fill:#7f7f59;stroke:#000;stroke-width:2" d="M52,715 l74,5 123,0 68,-5 0,10 -68,10 -123,0 -74,-10 0,-10z" />
<path style="fill:#7f7f59;stroke:#000;stroke-width:2" d="M67,401 l69,5 103,0 64,-5 0,10 -64,9 -103,0 -69,-9 0,-10z" />
<path style="fill:#b2b29b" d="M180,352 l0,613 10,0 0,-604 -10,-9z" />
<path style="fill:#99997a;stroke:#000;stroke-width:2" d="M126,720 l123,0 0,15 -123,0 0,-15z" />
<path style="fill:#99997a;stroke:#000;stroke-width:2" d="M136,406 l103,0 0,14 -103,0 0,-14z" />
<path style="fill:#666638" d="M180,229 l0,123 10,9 0,-132 -10,0z" />
<path style="fill:#330;stroke:#000;stroke-width:2" d="M185,192 l-101,0 4,11 8,7 11,6 14,5 7,2 9,2 9,2 9,2 9,0 10,1 11,0 10,0 10,-1 10,0 9,-2 9,-2 8,-2 15,-4 13,-6 9,-6 6,-7 2,-8 -101,0z" />
<path style="fill:#47470f" d="M98,192 l174,0 -6,14 -19,13 -29,8 -33,3 -33,-3 -29,-8 -19,-13 -6,-14z" />
<path style="fill:#595929" d="M112,192 l145,0 -5,14 -15,13 -25,8 -27,3 -27,-3 -25,-8 -15,-13 -6,-14z" />
<path style="fill:#6e6e43" d="M127,192 l116,0 -4,14 -12,13 -20,8 -22,3 -22,-3 -20,-8 -12,-13 -4,-14z" />
<path style="fill:#82825c" d="M141,192 l88,0 -3,14 -10,13 -15,8 -16,3 -16,-3 -16,-8 -9,-13 -3,-14z" />
<path style="fill:#949475" d="M155,192 l60,0 -3,14 -6,13 -10,8 -11,3 -11,-3 -11,-8 -6,-13 -2,-14z" />
<path style="fill:#a8a88e" d="M175,192 l20,0 -1,14 -2,13 -3,8 -4,3 -4,-3 -3,-8 -2,-13 -1,-14z" />
<path style="fill:none;stroke:#000;stroke-width:2" d="M106,960 l-49,-235" />
<path style="fill:none;stroke:#000;stroke-width:2" d="M43,946 l73,-211" />
<path style="fill:none;stroke:#000;stroke-width:2" d="M263,960 l49,-235" />
<path style="fill:none;stroke:#000;stroke-width:2" d="M327,946 l-73,-211" />
<path style="fill:none;stroke:#000;stroke-width:2" d="M116,720 l-49,-309" />
<path style="fill:none;stroke:#000;stroke-width:2" d="M57,715 l74,-295" />
<path style="fill:none;stroke:#000;stroke-width:2" d="M254,720 l49,-309" />
<path style="fill:none;stroke:#000;stroke-width:2" d="M312,715 l-73,-295" />
<path style="fill:none;stroke:#000;stroke-width:2" d="M244,406 l49,-211" />
<path style="fill:none;stroke:#000;stroke-width:2" d="M303,401 l-64,-206" />
<path style="fill:none;stroke:#000;stroke-width:2" d="M126,406 l-49,-211" />
<path style="fill:none;stroke:#000;stroke-width:2" d="M67,401 l64,-206" />
<path style="fill:none;stroke:#000;stroke-width:2" d="M126,960 l108,-225" />
<path style="fill:none;stroke:#000;stroke-width:2" d="M244,960 l-108,-225" />
<path style="fill:none;stroke:#000;stroke-width:2" d="M136,720 l88,-300" />
<path style="fill:none;stroke:#000;stroke-width:2" d="M234,720 l-88,-300" />
<path style="fill:none;stroke:#000;stroke-width:2" d="M146,406 l73,-211" />
<path style="fill:none;stroke:#000;stroke-width:2" d="M224,406 l-73,-211" />
<path style="fill:#b2b29b;stroke:#000;stroke-width:2" d="M239,190 l24,780 -19,0 -25,-780 20,0z" />
<path style="fill:#b2b29b;stroke:#000;stroke-width:2" d="M131,190 l-25,780 20,0 25,-780 -20,0z" />
<path style="fill:none;stroke:#fff;stroke-width:2" d="M293,200 l39,755" />
<path style="fill:none;stroke:#fff;stroke-width:2" d="M229,200 l25,765" />
<path style="fill:none;stroke:#fff;stroke-width:2" d="M141,200 l-25,765" />
<path style="fill:none;stroke:#fff;stroke-width:2" d="M77,200 l-39,755" />
<path style="fill:#666638;stroke:#000;stroke-width:2" d="M286,53 l-5,-7 -7,-5 -11,-4 -14,-3 -16,-3 -9,-1 -9,-1 -10,0 -10,-1 -21,0 -10,1 -9,0 -9,1 -9,1 -16,3 -14,3 -11,4 -8,5 -4,7 0,127 -17,0 0,12 236,0 0,-12 -17,0 0,-127z" />
<path style="fill:#7a7a51" d="M98,53 l6,-9 19,-9 29,-5 33,-2 33,2 29,5 19,9 6,9 0,127 15,0 0,12 -204,0 0,-12 15,0 0,-127z" />
<path style="fill:#8c8c6b" d="M112,53 l5,-9 16,-9 25,-5 27,-2 27,2 25,5 16,9 5,9 0,127 12,0 0,12 -171,0 0,-12 13,0 0,-127z" />
<path style="fill:#a1a185" d="M125,53 l5,-9 13,-9 20,-5 22,-2 22,2 20,5 13,9 4,9 1,127 9,0 0,12 -139,0 0,-12 10,0 0,-127z" />
<path style="fill:#b5b59e" d="M139,53 l4,-9 9,-9 16,-5 17,-2 17,2 16,5 9,9 4,9 0,127 7,0 0,12 -106,0 0,-12 7,0 0,-127z" />
<path style="fill:#c7c7b8" d="M153,53 l3,-9 6,-9 11,-5 12,-2 12,2 10,5 7,9 3,9 0,127 5,0 0,12 -74,0 0,-12 5,0 0,-127z" />
<path style="fill:#dbdbd1" d="M172,53 l1,-9 3,-9 4,-5 5,-2 5,2 4,5 3,9 0,9 1,127 2,0 0,12 -30,0 0,-12 2,0 0,-127z" />
<path style="fill:none;stroke:#000;stroke-width:2" d="M294,192 l-218,0" />
<path style="fill:none;stroke:#000;stroke-width:2" d="M76,180 l218,0" />
<path style="fill:none;stroke:#99997a;stroke-width:2" d="M67,180 l0,-26 236,0 0,26" />
<path style="fill:none;stroke:#99997a;stroke-width:2" d="M303,167 l-236,0" />
<path style="fill:none;stroke:#99997a;stroke-width:2" d="M105,154 l0,26" />
<path style="fill:none;stroke:#99997a;stroke-width:2" d="M158,154 l0,26" />
<path style="fill:none;stroke:#99997a;stroke-width:2" d="M212,154 l0,26" />
<path style="fill:none;stroke:#99997a;stroke-width:2" d="M265,154 l0,26" />

</svg>
