

<svg xmlns:agg="http://www.example.com" xmlns="http://www.w3.org/2000/svg" preserveAspectRatio="none" width="0.8632in" height="1.4792in" viewBox="0 0 583 999">

<path style="fill:#4c4c4c" d="M555,758 l0,-20 -20,0 -41,-690 20,0 0,-20 -446,0 0,20 20,0 -40,690 -20,0 0,20 527,0z" />
<path style="fill:#595959" d="M536,758 l0,-20 -18,0 -38,-690 18,0 0,-20 -413,0 0,20 18,0 -37,690 -19,0 0,20 489,0z" />
<path style="fill:#636363" d="M517,758 l0,-20 -17,0 -35,-690 17,0 0,-20 -381,0 0,20 17,0 -34,690 -18,0 0,20 451,0z" />
<path style="fill:#707070" d="M498,758 l0,-20 -16,0 -32,-690 16,0 0,-20 -349,0 0,20 16,0 -32,690 -15,0 0,20 412,0z" />
<path style="fill:#7a7a7a" d="M479,758 l0,-20 -15,0 -28,-690 14,0 0,-20 -317,0 0,20 15,0 -29,690 -14,0 0,20 374,0z" />
<path style="fill:#878787" d="M460,758 l0,-20 -13,0 -26,-690 13,0 0,-20 -285,0 0,20 13,0 -26,690 -12,0 0,20 336,0z" />
<path style="fill:#949494" d="M441,758 l0,-20 -12,0 -23,-690 12,0 0,-20 -252,0 0,20 11,0 -23,690 -11,0 0,20 298,0z" />
<path style="fill:#9e9e9e" d="M422,758 l0,-20 -11,0 -19,-690 10,0 0,-20 -220,0 0,20 10,0 -20,690 -10,0 0,20 260,0z" />
<path style="fill:#ababab" d="M403,758 l0,-20 -9,0 -17,-690 8,0 0,-20 -187,0 0,20 9,0 -17,690 -9,0 0,20 222,0z" />
<path style="fill:#b8b8b8" d="M383,758 l0,-20 -7,0 -14,-690 7,0 0,-20 -155,0 0,20 8,0 -15,690 -7,0 0,20 183,0z" />
<path style="fill:#c2c2c2" d="M364,758 l0,-20 -6,0 -11,-690 6,0 0,-20 -122,0 0,20 5,0 -11,690 -5,0 0,20 144,0z" />
<path style="fill:#cfcfcf" d="M345,758 l0,-20 -4,0 -8,-690 4,0 0,-20 -90,0 0,20 4,0 -8,690 -4,0 0,20 106,0z" />
<path style="fill:#d9d9d9" d="M326,758 l0,-20 -3,0 -5,-690 3,0 0,-20 -58,0 0,20 3,0 -6,690 -2,0 0,20 68,0z" />
<path style="fill:#e5e5e5" d="M307,758 l0,-20 -2,0 -2,-690 1,0 0,-20 -25,0 0,20 1,0 -2,690 -1,0 0,20 2,0 4,0 4,0 5,0 4,0 5,0 3,0 3,0z" />
<path style="fill:#333" d="M535,758 l-487,0 0,8 1,9 4,31 8,31 13,29 15,28 20,25 22,23 25,20 7,4 7,4 243,0 27,-18 23,-21 21,-24 18,-27 14,-28 10,-30 6,-32 2,-15 1,-9 0,-8z" />
<path style="fill:#404040" d="M518,758 l-452,0 0,8 0,8 4,32 8,31 11,29 15,28 18,25 21,23 23,20 6,4 7,4 226,0 24,-18 22,-21 19,-24 17,-27 13,-28 9,-30 7,-32 1,-16 1,-8 0,-8z" />
<path style="fill:#4a4a4a" d="M500,758 l-416,0 0,8 0,8 4,32 7,31 10,29 14,28 16,25 20,23 21,20 6,4 6,4 208,0 23,-18 20,-21 17,-24 15,-27 12,-28 9,-30 6,-32 1,-16 1,-8 0,-8z" />
<path style="fill:#575757" d="M482,758 l-381,0 0,8 0,8 4,32 6,31 10,29 13,28 14,25 18,23 20,20 5,4 6,4 190,0 21,-18 18,-21 17,-24 13,-27 11,-28 8,-30 6,-32 1,-16 0,-8 0,-8z" />
<path style="fill:#616161" d="M465,758 l-346,0 0,8 0,8 4,32 5,31 9,29 11,28 14,25 16,23 18,20 4,4 5,4 173,0 23,-23 17,-22 14,-25 12,-27 9,-29 7,-30 4,-32 0,-8 1,-8 0,-8z" />
<path style="fill:#6e6e6e" d="M447,758 l-311,0 0,8 1,8 3,32 5,31 8,29 10,28 12,25 14,23 21,24 4,4 155,0 21,-23 15,-22 13,-25 10,-27 9,-29 6,-30 3,-32 0,-8 1,-8 0,-8z" />
<path style="fill:#7a7a7a" d="M429,758 l-275,0 0,8 1,8 1,16 1,16 2,16 3,15 3,15 4,14 4,14 5,14 5,13 5,12 7,12 6,11 7,10 7,10 4,4 4,4 137,0 8,-8 7,-10 7,-10 7,-11 6,-12 6,-12 5,-13 4,-14 5,-14 4,-14 3,-15 2,-15 2,-16 2,-16 1,-16 0,-8 0,-8z" />
<path style="fill:#858585" d="M412,758 l-240,0 0,8 0,8 1,16 1,16 2,16 2,15 3,15 4,14 3,14 4,14 5,13 5,12 5,12 6,11 6,10 6,10 4,4 3,4 120,0 6,-8 7,-10 6,-10 6,-11 5,-12 5,-12 4,-13 4,-14 4,-14 3,-14 3,-15 2,-15 2,-16 2,-16 0,-16 1,-8 0,-8z" />
<path style="fill:#919191" d="M394,758 l-204,0 0,8 0,8 1,16 1,16 1,16 2,15 2,15 3,14 4,14 3,14 4,13 4,12 5,12 4,11 6,10 5,10 3,4 3,4 102,0 6,-8 5,-10 5,-10 5,-11 5,-12 4,-12 4,-13 3,-14 3,-14 3,-14 3,-15 2,-15 1,-16 1,-16 1,-16 0,-8 0,-8z" />
<path style="fill:#9e9e9e" d="M376,758 l-169,0 0,8 1,8 0,16 1,16 1,16 2,15 2,15 2,14 3,14 3,14 3,13 3,12 4,12 4,11 4,10 5,10 2,4 3,4 84,0 5,-8 4,-10 4,-10 5,-11 3,-12 4,-12 3,-13 3,-14 3,-14 2,-14 2,-15 1,-15 2,-16 1,-16 0,-16 0,-8 0,-8z" />
<path style="fill:#a8a8a8" d="M359,758 l-134,0 0,8 0,8 1,16 0,16 1,16 2,15 1,15 2,14 2,14 2,14 3,13 3,12 3,12 3,11 3,10 4,10 2,4 2,4 66,0 4,-8 4,-10 3,-10 3,-11 3,-12 3,-12 2,-13 3,-14 2,-14 2,-14 1,-15 2,-15 0,-16 1,-16 0,-8 1,-8 0,-8 0,-8z" />
<path style="fill:#b5b5b5" d="M341,758 l-98,0 0,8 0,8 0,16 1,16 0,16 1,15 1,15 2,14 1,14 2,14 2,13 2,12 2,12 2,11 3,10 3,10 1,4 1,4 49,0 3,-8 3,-10 2,-10 3,-11 2,-12 2,-12 2,-13 1,-14 2,-14 1,-14 2,-15 1,-15 0,-16 1,-16 0,-8 0,-8 0,-8 0,-8z" />
<path style="fill:#bfbfbf" d="M323,758 l-63,0 0,8 0,8 0,16 1,16 0,16 1,15 1,15 1,14 1,14 1,14 1,13 1,12 2,12 1,11 2,10 1,10 1,4 1,4 32,0 1,-8 2,-10 2,-10 1,-11 2,-12 1,-12 1,-13 1,-14 1,-14 1,-14 1,-15 0,-15 1,-16 0,-16 0,-8 0,-8 0,-8 0,-8z" />
<path style="fill:#ccc" d="M306,758 l-28,0 0,8 0,9 0,15 0,16 0,16 0,15 1,15 0,14 1,14 0,14 1,13 0,12 1,12 1,11 0,10 1,10 0,4 1,4 13,0 2,-13 0,-10 1,-10 1,-12 0,-12 1,-13 0,-13 1,-13 0,-15 1,-14 0,-16 0,-15 0,-15 1,-9 0,-7 0,-17 0,-8z" />
<path style="fill:none;stroke:#000;stroke-width:2" d="M555,758 l0,-20 -20,0 -41,-690 20,0 0,-20 -446,0 0,20 20,0 -40,690 -20,0 0,20 527,0" />
<path style="fill:none;stroke:#000;stroke-width:2" d="M535,758 l-487,0 0,8 1,9 4,31 8,31 13,29 15,28 20,25 22,23 25,20 7,4 7,4 243,0 27,-18 23,-21 21,-24 18,-27 14,-28 10,-30 6,-32 2,-15 1,-9 0,-8" />
<path style="fill:none;stroke:#000;stroke-width:2" d="M48,738 l487,0" />
<path style="fill:none;stroke:#000;stroke-width:2" d="M88,48 l411,0" />

</svg>
