

<svg xmlns:agg="http://www.example.com" xmlns="http://www.w3.org/2000/svg" preserveAspectRatio="none" width="0.8973in" height="1.4792in" viewBox="0 0 606 999">

<path style="fill:#4c4c4c;stroke:#000;stroke-width:2" d="M54,107 l498,0 0,11 -498,0 0,-11z" />
<path style="fill:#7f7f7f" d="M43,759 l0,-573 520,0 0,573 -520,0z" />
<path style="fill:#7f7f7f" d="M563,759 l-181,211 -158,0 -181,-211 520,0z" />
<path style="fill:#999" d="M92,759 l0,-573 422,0 0,573 -422,0z" />
<path style="fill:#999" d="M514,759 l-147,211 -128,0 -147,-211 422,0z" />
<path style="fill:#b2b2b2" d="M145,759 l0,-573 316,0 0,573 -316,0z" />
<path style="fill:#b2b2b2" d="M461,759 l-109,211 -98,0 -109,-211 316,0z" />
<path style="fill:#ccc" d="M197,759 l0,-573 212,0 0,573 -212,0z" />
<path style="fill:#ccc" d="M409,759 l-76,211 -60,0 -76,-211 212,0z" />
<path style="fill:#e5e5e5" d="M250,759 l0,-573 106,0 0,573 -106,0z" />
<path style="fill:#e5e5e5" d="M356,759 l-38,211 -30,0 -38,-211 106,0z" />
<path style="fill:#fff" d="M288,759 l0,-573 30,0 0,573 -30,0z" />
<path style="fill:#fff" d="M318,759 l-11,211 -8,0 -11,-211 30,0z" />
<path style="fill:none;stroke:#000;stroke-width:2" d="M43,759 l520,0 -181,211 -158,0 -181,-211" />
<path style="fill:none;stroke:#000;stroke-width:2" d="M43,759 l0,-573 520,0 0,573 -520,0" />
<path style="fill:none;stroke:#000;stroke-width:2" d="M43,186 l520,0 0,-158 -520,0 0,158" />
<path style="fill:#7f7f7f;stroke:#000;stroke-width:2" d="M54,186 l0,-147 113,0 0,147 12,0 0,-147 116,0 0,147 15,0 0,-147 117,0 0,147 12,0 0,-147 113,0 0,147 11,0 0,-158 -520,0 0,158 11,0z" />
<path style="fill:#4c4c4c;stroke:#000;stroke-width:2" d="M43,179 l207,0 0,11 -207,0 0,-11z" />
<path style="fill:#4c4c4c;stroke:#000;stroke-width:2" d="M356,179 l207,0 0,11 -207,0 0,-11z" />
<path style="fill:#b2b2b2;stroke:#000;stroke-width:2" d="M28,970 l0,-260 15,0 0,49 22,132 475,0 23,-132 0,-49 15,0 0,260 -38,0 0,-37 -475,0 0,37 -37,0z" />
<path style="fill:#666" d="M47,970 l0,-37 -12,-174 0,-49 8,0 0,49 22,147 494,0 12,-147 0,-49 7,0 0,260 -19,0 0,-37 -494,0 0,37 -18,0z" />
<path style="fill:#999;stroke:#000;stroke-width:2" d="M265,73 l76,0 0,11 -76,0 0,-11z" />
<path style="fill:#999;stroke:#000;stroke-width:2" d="M265,179 l76,0 0,11 -76,0 0,-11z" />
<path style="fill:#999;stroke:#000;stroke-width:2" d="M265,284 l76,0 0,11 -76,0 0,-11z" />
<path style="fill:#999;stroke:#000;stroke-width:2" d="M265,386 l76,0 0,15 -76,0 0,-15z" />
<path style="fill:#999;stroke:#000;stroke-width:2" d="M265,491 l76,0 0,16 -76,0 0,-16z" />
<path style="fill:#999;stroke:#000;stroke-width:2" d="M265,597 l76,0 0,11 -76,0 0,-11z" />
<path style="fill:#999;stroke:#000;stroke-width:2" d="M265,703 l76,0 0,11 -76,0 0,-11z" />
<path style="fill:#999;stroke:#000;stroke-width:2" d="M265,808 l76,0 0,11 -76,0 0,-11z" />
<path style="fill:#999;stroke:#000;stroke-width:2" d="M265,910 l76,0 0,15 -76,0 0,-15z" />
<path style="fill:#7f7f7f;stroke:#000;stroke-width:2" d="M341,28 l15,0 0,942 -15,0 0,-942z" />
<path style="fill:#7f7f7f;stroke:#000;stroke-width:2" d="M250,28 l15,0 0,942 -15,0 0,-942z" />

</svg>
