

<svg xmlns:agg="http://www.example.com" xmlns="http://www.w3.org/2000/svg" preserveAspectRatio="none" width="2.0104in" height="1.1773in" viewBox="0 0 999 585">

<path style="fill:#000" d="M86,508 l826,0 0,10 -826,0 0,-10z" />
<path style="fill:#b2b2b2" d="M967,209 l3,54 0,57 -3,56 -8,49 -11,40 -13,28 -16,15 -840,0 -16,-15 -13,-28 -11,-40 -8,-49 -3,-54 0,-59 3,-54 8,-49 11,-40 13,-28 16,-15 840,0 16,15 13,28 11,40 8,49z" />
<path style="fill:#bababa" d="M967,214 l3,51 0,53 -3,49 -8,45 -11,38 -13,24 -16,15 -840,-1 -16,-14 -13,-24 -11,-38 -8,-45 -3,-49 0,-53 3,-51 8,-43 11,-38 13,-26 16,-13 840,0 16,13 13,26 11,38 8,43z" />
<path style="fill:#bfbfbf" d="M967,222 l3,45 0,47 -3,45 -8,40 -11,34 -13,25 -16,11 -840,0 -16,-11 -13,-25 -11,-34 -8,-40 -3,-45 0,-47 3,-45 8,-42 11,-32 13,-24 16,-11 840,0 16,11 13,24 11,32 8,42z" />
<path style="fill:#c7c7c7" d="M967,227 l3,42 0,41 -3,42 -8,36 -11,30 -13,21 -16,11 -840,0 -16,-11 -13,-21 -11,-30 -8,-36 -3,-42 0,-41 3,-42 8,-35 11,-31 13,-20 16,-12 840,0 16,12 13,20 11,31 8,35z" />
<path style="fill:#cfcfcf" d="M967,235 l3,36 0,36 -3,35 -8,33 -11,26 -13,19 -16,9 -840,0 -16,-9 -13,-19 -11,-26 -8,-33 -3,-35 0,-36 3,-36 8,-34 11,-24 13,-19 16,-10 840,0 16,10 13,19 11,26 8,32z" />
<path style="fill:#d6d6d6" d="M967,241 l3,30 0,32 -3,32 -8,28 -11,23 -13,15 -16,9 -840,0 -16,-9 -13,-15 -11,-23 -8,-28 -3,-32 0,-32 3,-30 8,-29 11,-22 13,-17 16,-8 840,0 16,8 13,17 11,22 8,29z" />
<path style="fill:#dbdbdb" d="M967,246 l3,27 0,28 -3,26 -8,23 -11,19 -13,15 -16,6 -840,0 -16,-6 -13,-15 -11,-19 -8,-23 -3,-26 0,-28 3,-27 8,-22 11,-19 13,-15 16,-8 840,0 16,8 13,15 11,19 8,22z" />
<path style="fill:#e3e3e3" d="M967,254 l3,21 0,22 -3,21 -8,21 -11,15 -13,11 -16,6 -840,0 -16,-6 -13,-11 -11,-15 -8,-21 -3,-21 0,-22 3,-21 8,-21 11,-15 13,-11 16,-6 840,0 16,6 13,11 11,15 8,21z" />
<path style="fill:#ebebeb" d="M967,260 l3,17 0,16 -3,17 -8,15 -11,14 -13,7 -16,6 -840,-2 -16,-4 -13,-7 -11,-14 -8,-15 -3,-17 0,-16 3,-17 8,-16 11,-11 13,-9 16,-6 840,0 16,6 13,7 11,13 8,16z" />
<path style="fill:#f2f2f2" d="M967,265 l3,13 0,12 -3,13 -8,9 -11,10 -13,5 -16,4 -840,0 -16,-4 -13,-5 -11,-10 -8,-9 -3,-13 0,-12 3,-13 8,-9 11,-10 13,-5 16,-4 840,0 16,4 13,5 11,10 8,9z" />
<path style="fill:#f7f7f7" d="M967,273 l3,7 0,8 -3,5 -8,8 -11,6 -13,3 -16,2 -840,0 -16,-2 -13,-3 -11,-6 -8,-8 -3,-5 0,-8 3,-7 8,-8 11,-5 13,-4 16,-2 840,0 16,2 13,4 11,5 8,8z" />
<ellipse style="fill:#fff" cx="499" cy="282" rx="471" ry="9" />
<path style="fill:none;stroke:#000;stroke-width:2" d="M967,209 l3,54 0,57 -3,56 -8,49 -11,40 -13,28 -16,15 -840,0 -16,-15 -13,-28 -11,-40 -8,-49 -3,-54 0,-59 3,-54 8,-49 11,-40 13,-28 16,-15 840,0 16,15 13,28 11,40 8,49" />
<path style="fill:#f2f2f2" d="M459,56 l61,0 0,471 -61,0 0,-471z" />
<path style="fill:#e3e3e3" d="M459,56 l61,0 0,164 -61,0 0,-164z" />
<path style="fill:#d4d4d4" d="M459,56 l61,0 0,137 -61,0 0,-137z" />
<path style="fill:#c4c4c4" d="M459,56 l61,0 0,113 -61,0 0,-113z" />
<path style="fill:#b8b8b8" d="M459,56 l61,0 0,88 -61,0 0,-88z" />
<path style="fill:#a8a8a8" d="M459,56 l61,0 0,62 -61,0 0,-62z" />
<path style="fill:#999" d="M459,56 l61,0 0,38 -61,0 0,-38z" />
<path style="fill:none;stroke:#000;stroke-width:2" d="M459,56 l61,0 0,471 -61,0 0,-471" />
<path style="fill:#666" d="M480,46 l19,0 0,481 -19,0 0,-481z" />
<path style="fill:#f2f2f2" d="M126,56 l60,0 0,471 -60,0 0,-471z" />
<path style="fill:#e3e3e3" d="M126,56 l60,0 0,164 -60,0 0,-164z" />
<path style="fill:#d4d4d4" d="M126,56 l60,0 0,137 -60,0 0,-137z" />
<path style="fill:#c4c4c4" d="M126,56 l60,0 0,113 -60,0 0,-113z" />
<path style="fill:#b8b8b8" d="M126,56 l60,0 0,88 -60,0 0,-88z" />
<path style="fill:#a8a8a8" d="M126,56 l60,0 0,62 -60,0 0,-62z" />
<path style="fill:#999" d="M126,56 l60,0 0,38 -60,0 0,-38z" />
<path style="fill:none;stroke:#000;stroke-width:2" d="M126,56 l60,0 0,471 -60,0 0,-471" />
<path style="fill:#666" d="M147,46 l18,0 0,481 -18,0 0,-481z" />
<path style="fill:#f2f2f2" d="M814,56 l58,0 0,471 -58,0 0,-471z" />
<path style="fill:#e3e3e3" d="M814,56 l58,0 0,164 -58,0 0,-164z" />
<path style="fill:#d4d4d4" d="M814,56 l58,0 0,137 -58,0 0,-137z" />
<path style="fill:#c4c4c4" d="M814,56 l58,0 0,113 -58,0 0,-113z" />
<path style="fill:#b8b8b8" d="M814,56 l58,0 0,88 -58,0 0,-88z" />
<path style="fill:#a8a8a8" d="M814,56 l58,0 0,62 -58,0 0,-62z" />
<path style="fill:#999" d="M814,56 l58,0 0,38 -58,0 0,-38z" />
<path style="fill:none;stroke:#000;stroke-width:2" d="M814,56 l58,0 0,471 -58,0 0,-471" />
<path style="fill:#666" d="M833,46 l19,0 0,481 -19,0 0,-481z" />
<path style="fill:#666;stroke:#000;stroke-width:2" d="M58,527 l882,0 0,12 -882,0 0,-12z" />
<path style="fill:#666;stroke:#000;stroke-width:2" d="M37,539 l924,0 0,9 -924,0 0,-9z" />
<path style="fill:#666;stroke:#000;stroke-width:2" d="M28,548 l942,0 0,9 -942,0 0,-9z" />
<path style="fill:#ccc" d="M205,37 l236,0 0,79 -236,0 0,-79z" />
<path style="fill:#666" d="M214,37 l217,0 0,-9 -217,0 0,9z" />
<path style="fill:#d4d4d4" d="M224,37 l200,0 0,79 -200,0 0,-79z" />
<path style="fill:#dedede" d="M241,37 l164,0 0,79 -164,0 0,-79z" />
<path style="fill:#e5e5e5" d="M260,37 l126,0 0,79 -126,0 0,-79z" />
<path style="fill:#ededed" d="M277,37 l92,0 0,79 -92,0 0,-79z" />
<path style="fill:#f7f7f7" d="M295,37 l55,0 0,79 -55,0 0,-79z" />
<path style="fill:#fff" d="M312,37 l21,0 0,79 -21,0 0,-79z" />
<path style="fill:none;stroke:#000;stroke-width:2" d="M205,116 l0,-79 236,0 0,79" />

</svg>
