

<svg xmlns:agg="http://www.example.com" xmlns="http://www.w3.org/2000/svg" preserveAspectRatio="none" width="0.6642in" height="1.4792in" viewBox="0 0 238 530">

<path style="fill:#7f7f7f;stroke:#000;stroke-width:2" d="M223,98 l-2,-17 -6,-15 -10,-14 -12,-13 -16,-10 -17,-8 -20,-4 -21,-2 -21,2 -19,4 -18,8 -15,10 -13,13 -10,14 -6,15 -2,17 0,417 208,0 0,-417z" />
<path style="fill:#999" d="M203,98 l-2,-17 -5,-15 -7,-14 -11,-13 -12,-10 -14,-8 -16,-4 -17,-2 -17,2 -15,4 -14,8 -13,10 -10,13 -7,14 -5,15 -2,17 0,417 167,0 0,-417z" />
<path style="fill:#b2b2b2" d="M171,98 l-1,-17 -3,-15 -5,-14 -6,-13 -8,-10 -9,-8 -9,-4 -11,-2 -11,2 -9,4 -9,8 -8,10 -6,13 -5,14 -3,15 -1,17 0,417 104,0 0,-417z" />
<path style="fill:#ccc" d="M140,98 l0,-17 -2,-15 -1,-14 -3,-13 -3,-10 -4,-8 -4,-4 -4,-2 -4,2 -4,4 -3,8 -4,10 -2,13 -2,14 -2,15 0,17 0,417 42,0 0,-417z" />
<path style="fill:none;stroke:#000;stroke-width:2" d="M15,98 l208,0" />
<path style="fill:none;stroke:#000;stroke-width:2" d="M223,98 l-2,-17 -6,-15 -10,-14 -12,-13 -16,-10 -17,-8 -20,-4 -21,-2 -21,2 -19,4 -18,8 -15,10 -13,13 -10,14 -6,15 -2,17 0,417 208,0 0,-417" />

</svg>
