

<svg xmlns:agg="http://www.example.com" xmlns="http://www.w3.org/2000/svg" preserveAspectRatio="none" width="0.5775in" height="1.4792in" viewBox="0 0 390 999">

<path style="fill:#666638" d="M134,970 l0,-122 -106,-154 0,-520 333,0 0,520 -105,154 0,122 -122,0z" />
<path style="fill:#7a7a51" d="M150,970 l0,-122 -97,-154 0,-520 284,0 0,520 -89,154 0,122 -98,0z" />
<path style="fill:#919170" d="M158,970 l0,-122 -73,-154 0,-520 228,0 0,520 -73,154 0,122 -82,0z" />
<path style="fill:#a6a68a" d="M166,970 l0,-122 -57,-154 0,-520 179,0 0,520 -57,154 0,122 -65,0z" />
<path style="fill:#babaa6" d="M174,970 l0,-122 -40,-154 0,-520 130,0 0,520 -41,154 0,122 -49,0z" />
<path style="fill:#d1d1c2" d="M183,970 l0,-122 -25,-154 0,-520 82,0 0,520 -25,154 0,122 -32,0z" />
<path style="fill:#e5e5dd" d="M191,970 l0,-122 -8,-154 0,-520 32,0 0,520 -16,154 0,122 -8,0z" />
<path style="fill:none;stroke:#000;stroke-width:2" d="M134,970 l0,-122 -106,-154 0,-520 333,0 0,520 -105,154 0,122 -122,0" />
<path style="fill:#330" d="M93,174 l212,0 0,-146 -212,0 0,146z" />
<path style="fill:#47470f" d="M109,174 l179,0 0,-146 -179,0 0,146z" />
<path style="fill:#5e5e2e" d="M126,174 l146,0 0,-146 -146,0 0,146z" />
<path style="fill:#737348" d="M142,174 l114,0 0,-146 -114,0 0,146z" />
<path style="fill:#878763" d="M158,174 l82,0 0,-146 -82,0 0,146z" />
<path style="fill:#9e9e7f" d="M174,174 l49,0 0,-146 -49,0 0,146z" />
<path style="fill:#b2b29b" d="M191,174 l16,0 0,-146 -16,0 0,146z" />
<path style="fill:none;stroke:#000;stroke-width:2" d="M93,174 l212,0 0,-146 -212,0 0,146" />
<path style="fill:none;stroke:#000;stroke-width:2" d="M28,695 l333,0" />
<path style="fill:none;stroke:#000;stroke-width:2" d="M136,847 l117,0" />

</svg>
