 

<svg xmlns:agg="http://www.example.com" xmlns="http://www.w3.org/2000/svg" preserveAspectRatio="none" width="1.6083in" height="0.9998in" viewBox="0 0 999 621">

<path style="fill:#bfd3f2" d="M401,116 l6,-14 14,-5 14,5 5,14 -39,0z" />
<path style="fill:#73878c" d="M931,553 l-864,0 0,-437 864,0 0,437z" />
<path style="fill:#ccc;stroke:#000;stroke-width:2" d="M28,592 l0,-530 39,0 0,491 236,0 39,-39 314,0 39,39 236,0 0,-491 39,0 0,530 -942,0z" />
<path style="fill:#bfd3f2" d="M342,474 l6,-14 13,-5 15,5 6,14 -6,14 -15,6 -13,-6 -6,-14z" />
<path style="fill:#bfd3f2" d="M480,465 l2,-7 7,-3 7,3 3,7 -3,7 -7,2 -7,-2 -2,-7z" />
<path style="fill:#bfd3f2" d="M558,474 l6,-14 14,-5 13,5 6,14 -6,14 -13,6 -14,-6 -6,-14z" />
<path style="fill:#bfd3f2" d="M519,308 l3,-8 7,-2 7,2 3,8 -3,7 -7,2 -7,-2 -3,-7z" />
<path style="fill:#bfd3f2" d="M519,416 l5,-14 15,-6 13,6 6,14 -6,14 -13,5 -15,-5 -5,-14z" />
<path style="fill:#bfd3f2" d="M616,239 l6,-15 15,-5 13,5 6,15 -6,14 -13,5 -15,-5 -6,-14z" />
<path style="fill:#bfd3f2" d="M362,170 l3,-7 6,-3 7,3 4,7 -4,7 -7,3 -6,-3 -3,-7z" />
<path style="fill:#fff" d="M420,396 l6,-14 14,-6 14,6 6,14 -6,14 -14,5 -14,-5 -6,-14z" />
<path style="fill:#fff" d="M597,376 l6,-14 14,-5 14,5 6,14 -6,14 -14,6 -14,-6 -6,-14z" />
<path style="fill:#fff" d="M578,180 l5,-14 14,-6 14,6 6,14 -6,14 -14,6 -14,-6 -5,-14z" />
<path style="fill:#fff" d="M499,229 l3,-7 7,-3 7,3 3,7 -3,7 -7,3 -7,-3 -3,-7z" />
<path style="fill:#fff" d="M381,308 l3,-8 7,-2 7,2 3,8 -3,7 -7,2 -7,-2 -3,-7z" />
<path style="fill:#fff" d="M460,160 l5,-14 15,-5 13,5 6,14 -6,14 -13,6 -15,-6 -5,-14z" />
<path style="fill:none;stroke:#a6bad9;stroke-width:2" d="M386,33 l10,10" />
<path style="fill:none;stroke:#a6bad9;stroke-width:2" d="M406,43 l10,-10" />
<path style="fill:none;stroke:#a6bad9;stroke-width:2" d="M401,28 l0,10" />
<path style="fill:none;stroke:#a6bad9;stroke-width:2" d="M382,48 l9,0" />
<path style="fill:none;stroke:#a6bad9;stroke-width:2" d="M416,62 l-10,-9" />
<path style="fill:none;stroke:#a6bad9;stroke-width:2" d="M396,53 l-10,9" />
<path style="fill:none;stroke:#a6bad9;stroke-width:2" d="M401,67 l0,-10" />
<path style="fill:none;stroke:#a6bad9;stroke-width:2" d="M420,48 l-9,0" />
<path style="fill:none;stroke:#000;stroke-width:2" d="M534,67 l9,9" />
<path style="fill:none;stroke:#000;stroke-width:2" d="M553,76 l10,-9" />
<path style="fill:none;stroke:#000;stroke-width:2" d="M548,62 l0,10" />
<path style="fill:none;stroke:#000;stroke-width:2" d="M529,81 l10,0" />
<path style="fill:none;stroke:#000;stroke-width:2" d="M563,96 l-10,-9" />
<path style="fill:none;stroke:#000;stroke-width:2" d="M543,87 l-9,9" />
<path style="fill:none;stroke:#000;stroke-width:2" d="M548,101 l0,-10" />
<path style="fill:none;stroke:#000;stroke-width:2" d="M568,81 l-10,0" />

</svg>
