 

<svg xmlns:agg="http://www.example.com" xmlns="http://www.w3.org/2000/svg" preserveAspectRatio="none" width="1.6083in" height="0.5329in" viewBox="0 0 999 331">

<path style="fill:#808fa6" d="M970,224 l0,-118 -942,0 0,118 21,23 25,11 35,10 27,6 30,6 34,5 36,4 39,4 41,3 43,3 45,2 47,1 24,1 24,0 48,-1 47,-1 45,-2 43,-3 41,-3 39,-4 36,-4 34,-5 30,-6 27,-6 35,-10 25,-11 21,-19 0,-4z" />
<path style="fill:#8c99ad" d="M917,259 l0,-153 -835,0 0,153 26,5 35,7 35,6 27,4 29,4 33,4 34,3 36,4 39,2 39,2 42,2 21,0 21,0 43,0 41,-1 40,-2 38,-3 37,-3 34,-3 32,-4 30,-3 27,-4 35,-6 28,-5 28,-6 4,-2 1,-1z" />
<path style="fill:#99a3b5" d="M862,273 l0,-167 -726,0 0,167 29,5 33,5 33,4 37,3 28,3 31,3 31,2 34,2 34,1 36,1 19,0 18,0 37,0 37,-1 34,-1 33,-2 32,-2 30,-3 28,-2 38,-4 32,-4 27,-4 28,-4 7,-2 0,0z" />
<path style="fill:#a6aebd" d="M808,282 l0,-176 -618,0 0,176 1,0 30,4 31,4 29,2 34,3 37,3 41,2 29,1 30,1 16,0 15,0 16,0 32,0 31,-1 29,-1 28,-1 41,-2 36,-3 32,-3 28,-2 28,-4 24,-3 0,0z" />
<path style="fill:#b0b7c4" d="M754,289 l0,-183 -510,0 0,183 31,3 27,2 35,3 30,2 33,1 36,1 24,1 13,0 13,0 39,0 38,-1 35,-1 33,-1 30,-2 35,-3 28,-2 28,-3 2,0 0,0z" />
<path style="fill:#c0c7cf" d="M701,294 l0,-188 -403,0 0,188 35,3 38,2 32,1 37,2 39,0 41,0 39,-1 36,-1 32,-1 28,-2 30,-2 16,-1z" />
<path style="fill:#ccd1d6" d="M647,297 l0,-191 -295,0 0,192 34,2 31,1 39,1 28,0 30,0 29,0 39,-1 31,-1 31,-2 2,0 1,-1z" />
<path style="fill:#d9dbde" d="M593,300 l0,-194 -187,0 0,194 11,1 10,0 13,0 15,1 17,0 8,0 38,0 18,0 15,0 14,-1 12,0 12,-1 4,0z" />
<path style="fill:#e5e5e5" d="M538,301 l0,-195 -78,0 0,195 1,0 2,1 3,0 5,0 6,0 7,0 7,1 8,0 8,0 7,0 7,-1 6,0 5,0 3,0 2,-1 1,0z" />
<path style="fill:none;stroke:#000;stroke-width:2" d="M970,224 l0,-118 -942,0 0,118 21,23 25,11 35,10 27,6 30,6 34,5 36,4 39,4 41,3 43,3 45,2 47,1 24,1 24,0 48,-1 47,-1 45,-2 43,-3 41,-3 39,-4 36,-4 34,-5 30,-6 27,-6 35,-10 25,-11 21,-19 0,-4" />
<ellipse style="fill:#e5cbb2;stroke:#000;stroke-width:2" cx="499" cy="106" rx="471" ry="78" />
<ellipse style="fill:#596d8c" cx="499" cy="106" rx="432" ry="72" />
<path style="fill:#7f7f7f;stroke:#000;stroke-width:2" d="M656,109 l0,-9 -314,0 1,12 26,12 30,6 39,4 30,1 15,1 32,0 30,-1 29,-2 36,-5 27,-6 18,-10 1,-3z" />
<path style="fill:#263a59" d="M69,114 l-2,-6 0,-2 1,-3 25,-22 26,-9 34,-9 27,-5 29,-5 32,-4 34,-4 37,-4 39,-2 40,-2 42,-2 22,0 22,-1 22,0 44,1 43,1 41,2 40,2 37,3 36,4 34,4 30,4 28,5 36,9 29,9 25,14 8,11 1,3 0,2 -2,4 0,2 -1,-4 -25,-20 -26,-9 -34,-9 -26,-5 -29,-5 -32,-4 -34,-4 -37,-3 -38,-2 -41,-3 -42,-1 -43,-1 -44,0 -43,1 -42,1 -41,3 -38,2 -37,3 -34,4 -32,4 -29,5 -26,5 -34,9 -26,9 -24,17 -2,7z" />
<path style="fill:#e5cbb2" d="M504,33 l0,146 -10,0 0,-146 10,0z" />
<path style="fill:#e5cbb2" d="M67,101 l864,0 0,6 -864,0 0,-6z" />
<path style="fill:#e5cbb2" d="M778,162 l-516,-116 -27,3 516,116 27,-3z" />
<path style="fill:#e5cbb2" d="M221,162 l516,-116 26,3 -515,116 -27,-3z" />
<ellipse style="fill:#e5e5e5;stroke:#000;stroke-width:2" cx="499" cy="100" rx="157" ry="26" />
<ellipse style="fill:#ccb299" cx="499" cy="100" rx="118" ry="20" />
<path style="fill:#7f4c19" d="M383,101 l-1,0 0,-1 0,0 0,-1 1,-1 8,-6 11,-4 15,-2 8,-2 9,-1 9,-1 11,-1 10,0 11,-1 12,0 12,0 12,0 12,0 11,1 10,0 11,1 9,1 9,1 16,3 13,3 9,4 4,4 1,1 0,1 0,0 0,1 -1,0 0,-2 -9,-5 -11,-3 -14,-3 -8,-1 -9,-1 -10,-1 -10,-1 -10,-1 -12,0 -11,-1 -24,0 -11,1 -12,0 -10,1 -10,1 -10,1 -9,1 -16,2 -12,3 -9,4 -5,3 0,2z" />
<path style="fill:#7f4c19" d="M616,82 l14,2 134,-30 0,-5 -148,33z" />
<path style="fill:#7f4c19" d="M382,82 l-13,2 -134,-30 0,-5 147,33z" />
<path style="fill:#7f4c19" d="M67,106 l2,5 276,0 0,-5 -278,0z" />
<path style="fill:#7f4c19" d="M931,106 l-2,5 -276,0 0,-5 278,0z" />
<path style="fill:#7f4c19" d="M748,165 l-16,2 -165,-38 0,-5 181,41z" />
<path style="fill:#7f4c19" d="M250,165 l16,2 166,-38 0,-5 -182,41z" />

</svg>
