

<svg xmlns:agg="http://www.example.com" xmlns="http://www.w3.org/2000/svg" preserveAspectRatio="none" width="1.4792in" height="1.4792in" viewBox="0 0 999 999">

<path style="fill:#999" d="M970,931 l0,-864 -942,0 0,864 0,2 28,11 29,6 37,5 29,2 31,3 36,2 37,3 40,1 42,2 45,1 45,1 24,0 24,0 24,0 48,0 47,-1 45,-1 43,-1 41,-1 39,-2 36,-3 34,-2 30,-3 27,-3 35,-5 31,-7 15,-8 0,-2z" />
<path style="fill:#a8a8a8" d="M905,931 l0,-162 1,-27 0,-27 0,-459 -1,-55 0,-134 -152,0 -25,-1 -26,0 -431,0 -51,1 -101,0 -26,0 0,27 0,135 1,54 0,459 -1,54 0,135 25,13 34,7 34,4 41,5 30,2 32,2 35,2 36,1 38,2 40,1 20,0 21,0 20,0 42,0 40,-1 39,-1 37,-1 36,-2 33,-2 31,-2 29,-3 38,-4 32,-5 31,-7 18,-11z" />
<path style="fill:#b8b8b8" d="M840,931 l0,-162 0,-27 0,-27 0,-459 0,-55 0,-134 -128,0 -21,-1 -21,0 -362,0 -42,1 -86,0 -21,0 0,27 0,135 0,54 0,459 0,54 0,135 0,2 27,13 31,7 31,4 35,4 40,3 29,2 30,1 32,2 33,1 17,0 18,0 17,0 35,0 34,-1 32,-1 32,-1 29,-2 28,-2 39,-3 34,-5 28,-4 29,-7 20,-11 1,-2z" />
<path style="fill:#c4c4c4" d="M774,931 l0,-162 1,-27 0,-27 0,-459 -1,-55 0,-134 -103,0 -17,-1 -17,0 -292,0 -34,1 -69,0 -18,0 0,27 0,135 1,54 0,459 -1,54 0,135 1,2 21,13 26,7 33,5 30,4 33,3 37,2 39,2 27,1 14,0 14,0 28,0 41,-1 38,-2 36,-3 32,-3 29,-4 31,-6 28,-9 12,-9 0,-2z" />
<path style="fill:#d4d4d4" d="M709,931 l0,-162 0,-27 0,-27 0,-459 0,-55 0,-134 -79,0 -13,-1 -13,0 -222,0 -40,1 -39,0 -13,0 0,27 0,135 0,54 0,459 0,54 0,135 1,4 24,14 29,8 30,5 35,4 28,2 31,2 10,0 11,0 10,0 32,0 31,-2 28,-2 34,-4 30,-5 29,-8 23,-12 2,-2 1,-4z" />
<path style="fill:#e3e3e3" d="M643,931 l0,-162 1,-27 0,-27 0,-459 -1,-55 0,-134 -54,0 -9,-1 -9,0 -152,0 -37,1 -17,0 -10,0 0,27 0,135 1,54 0,459 -1,54 0,135 1,4 24,18 28,8 35,6 27,2 15,1 14,0 15,0 28,-2 38,-5 30,-8 27,-13 6,-7 0,-4z" />
<path style="fill:#f2f2f2" d="M578,931 l0,-864 -158,0 0,864 14,22 28,13 29,4 8,0 30,-3 26,-8 21,-20 2,-8z" />
<path style="fill:none;stroke:#000;stroke-width:2" d="M970,931 l0,-864 -942,0 0,864 0,2 28,11 29,6 37,5 29,2 31,3 36,2 37,3 40,1 42,2 45,1 45,1 24,0 24,0 24,0 48,0 47,-1 45,-1 43,-1 41,-1 39,-2 36,-3 34,-2 30,-3 27,-3 35,-5 31,-7 15,-8 0,-2" />
<ellipse style="fill:#bfbfbf;stroke:#000;stroke-width:2" cx="499" cy="67" rx="471" ry="39" />
<path style="fill:none;stroke:#000;stroke-width:2" d="M263,101 l0,864" />
<path style="fill:#7f7f7f" d="M224,126 l20,0 0,20 -20,0 0,-20z" />
<path style="fill:#7f7f7f" d="M224,204 l20,0 0,20 -20,0 0,-20z" />
<path style="fill:#7f7f7f" d="M224,283 l20,0 0,20 -20,0 0,-20z" />
<path style="fill:#7f7f7f" d="M224,361 l20,0 0,20 -20,0 0,-20z" />
<path style="fill:#7f7f7f" d="M224,440 l20,0 0,20 -20,0 0,-20z" />
<path style="fill:#7f7f7f" d="M224,518 l20,0 0,20 -20,0 0,-20z" />
<path style="fill:#7f7f7f" d="M224,597 l20,0 0,20 -20,0 0,-20z" />
<path style="fill:#7f7f7f" d="M224,676 l20,0 0,19 -20,0 0,-19z" />
<path style="fill:#7f7f7f" d="M224,754 l20,0 0,20 -20,0 0,-20z" />
<path style="fill:#7f7f7f" d="M224,833 l20,0 0,19 -20,0 0,-19z" />
<path style="fill:#7f7f7f" d="M224,911 l20,0 0,20 -20,0 0,-20z" />
<path style="fill:none;stroke:#000;stroke-width:2" d="M656,101 l0,864" />
<path style="fill:#999" d="M617,126 l20,0 0,20 -20,0 0,-20z" />
<path style="fill:#999" d="M617,204 l20,0 0,20 -20,0 0,-20z" />
<path style="fill:#999" d="M617,283 l20,0 0,20 -20,0 0,-20z" />
<path style="fill:#999" d="M617,361 l20,0 0,20 -20,0 0,-20z" />
<path style="fill:#999" d="M617,440 l20,0 0,20 -20,0 0,-20z" />
<path style="fill:#999" d="M617,518 l20,0 0,20 -20,0 0,-20z" />
<path style="fill:#999" d="M617,597 l20,0 0,20 -20,0 0,-20z" />
<path style="fill:#999" d="M617,676 l20,0 0,19 -20,0 0,-19z" />
<path style="fill:#999" d="M617,754 l20,0 0,20 -20,0 0,-20z" />
<path style="fill:#999" d="M617,833 l20,0 0,19 -20,0 0,-19z" />
<path style="fill:#999" d="M617,911 l20,0 0,20 -20,0 0,-20z" />

</svg>
