

<svg xmlns:agg="http://www.example.com" xmlns="http://www.w3.org/2000/svg" preserveAspectRatio="none" width="0.9204in" height="1.4792in" viewBox="0 0 621 998">

<path style="fill:#666" d="M593,923 l0,-754 -20,-17 -63,-18 1,-46 -59,-6 0,-47 -36,-3 -106,-4 -105,4 -36,3 1,47 -60,6 0,46 -62,18 -20,17 0,754 20,18 60,16 97,10 105,3 106,-3 96,-10 61,-16 20,-18z" />
<path style="fill:#757575" d="M561,928 l0,-761 -18,-18 -55,-17 0,-45 -52,-6 0,-46 -31,-4 -94,-3 -94,3 -31,4 0,46 -53,6 1,45 -56,17 -17,18 0,761 18,16 53,14 85,9 94,3 94,-3 84,-9 54,-14 18,-16z" />
<path style="fill:#858585" d="M528,934 l0,-769 -16,-18 -47,-16 0,-45 -46,-6 1,-46 -28,-3 -81,-3 -82,3 -27,3 1,46 -47,6 1,45 -48,16 -16,18 0,769 16,13 47,13 73,7 82,3 81,-3 74,-7 47,-13 15,-13z" />
<path style="fill:#969696" d="M495,940 l0,-777 -13,-18 -40,-15 0,-45 -39,-6 0,-45 -23,-3 -69,-3 -70,3 -22,3 0,45 -40,6 1,45 -41,15 -13,18 0,777 13,11 40,10 62,7 70,2 69,-2 63,-7 39,-10 13,-11z" />
<path style="fill:#a6a6a6" d="M463,945 l0,-785 -11,-17 -33,-15 0,-43 -32,-6 0,-45 -19,-4 -57,-2 -58,2 -18,4 0,45 -32,6 0,43 -34,15 -10,17 0,785 11,9 32,9 52,5 57,2 57,-2 51,-5 33,-9 11,-9z" />
<path style="fill:#b5b5b5" d="M430,951 l0,-793 -9,-18 -25,-13 0,-43 -25,-6 0,-44 -15,-4 -45,-2 -45,2 -15,4 1,44 -26,6 0,43 -26,13 -9,18 0,793 9,7 25,6 41,4 45,2 45,-2 40,-4 26,-6 8,-7z" />
<path style="fill:#c4c4c4" d="M397,956 l0,-800 -6,-17 -19,-14 1,-41 -19,-6 0,-45 -10,-3 -33,-2 -33,2 -11,3 1,44 -19,7 0,41 -19,14 -6,17 0,800 7,5 18,5 29,3 33,1 33,-1 29,-3 18,-5 6,-5z" />
<path style="fill:#d6d6d6" d="M365,962 l0,-808 -4,-18 -12,-12 0,-41 -11,-6 0,-44 -7,-3 -20,-2 -21,2 -6,3 0,43 -12,7 0,41 -12,12 -3,18 0,808 4,3 11,3 18,1 21,1 20,-1 19,-1 11,-3 4,-3z" />
<path style="fill:#e5e5e5" d="M332,968 l0,-816 -2,-18 -4,-11 0,-41 -5,-6 0,-43 -2,-3 -9,-2 -8,2 -2,3 0,43 -5,6 0,41 -5,11 -1,18 0,816 2,0 4,1 7,1 8,0 9,0 7,-1 4,-1 2,0z" />
<path style="fill:none;stroke:#000;stroke-width:2" d="M170,82 l35,-3 105,-4 106,4 37,3" />
<path style="fill:none;stroke:#000;stroke-width:2" d="M110,134 l95,-8 105,-4 106,4 94,8" />
<path style="fill:none;stroke:#000;stroke-width:2" d="M593,923 l0,-754 -20,-17 -63,-18 1,-46 -59,-6 0,-47 -36,-3 -106,-4 -105,4 -36,3 1,47 -60,6 0,46 -62,18 -20,17 0,754 20,18 60,16 97,10 105,3 106,-3 96,-10 61,-16 20,-18" />

</svg>
