

<svg xmlns:agg="http://www.example.com" xmlns="http://www.w3.org/2000/svg" preserveAspectRatio="none" width="1.6079in" height="1.4792in" viewBox="0 0 999 919">

<path style="fill:#e5e5e5;stroke:#000;stroke-width:2" d="M86,891 l-19,-18 0,-512 -39,0 0,-20 942,0 0,20 -39,0 0,512 -19,18 -826,0z" />
<path style="fill:#e5e5e5;stroke:#000;stroke-width:2" d="M382,341 l38,-38 0,-257 21,-18 117,0 20,18 0,257 40,38 -236,0z" />
<path style="fill:#e5e5e5;stroke:#000;stroke-width:2" d="M420,67 l-77,0 -40,38 0,296 40,0 0,-275 18,-21 59,0 0,-38z" />
<path style="fill:none;stroke:#000;stroke-width:2" d="M420,303 l158,0" />
<path style="fill:#e5e5e5;stroke:#000;stroke-width:2" d="M854,518 l0,-177 -40,0 0,-38 19,0 0,-79 21,-21 77,0 21,21 0,79 18,0 0,38 -58,0 0,177 -21,0 0,79 -18,0 0,-79 -19,0z" />
<path style="fill:#e5e5e5;stroke:#000;stroke-width:2" d="M578,224 l77,0 40,39 0,236 21,19 196,0 0,40 -217,0 -40,-40 0,-236 -18,-19 -59,0 0,-39z" />
<path style="fill:none;stroke:#000;stroke-width:2" d="M833,303 l119,0" />
<path style="fill:none;stroke:#000;stroke-width:2" d="M854,341 l58,0" />

</svg>
