

<svg xmlns:agg="http://www.example.com" xmlns="http://www.w3.org/2000/svg" preserveAspectRatio="none" width="1.3030in" height="1.4792in" viewBox="0 0 880 999">

<path style="fill:#ccc" d="M47,735 l0,-656 26,-15 53,-14 73,-11 89,-7 100,-4 103,0 100,4 89,7 73,11 51,14 27,15 0,656 -784,0z" />
<path style="fill:#d1d1d1" d="M79,735 l2,-656 22,-15 49,-14 66,-11 83,-7 91,-4 96,0 90,4 83,7 66,11 47,14 27,15 0,656 -722,0z" />
<path style="fill:#d6d6d6" d="M111,735 l2,-656 20,-15 44,-14 62,-11 73,-7 85,-4 85,0 85,4 73,7 63,11 43,14 21,15 0,656 -656,0z" />
<path style="fill:#d9d9d9" d="M143,735 l2,-656 18,-15 40,-14 55,-11 68,-7 75,-4 77,0 76,4 68,7 54,11 40,14 19,15 0,656 -592,0z" />
<path style="fill:#dedede" d="M175,735 l2,-656 17,-15 35,-14 48,-11 60,-7 68,-4 69,0 66,4 61,7 49,11 36,14 17,15 0,656 -528,0z" />
<path style="fill:#e3e3e3" d="M207,735 l2,-656 15,-15 30,-14 43,-11 53,-7 59,-4 62,0 58,4 53,7 43,11 30,14 16,15 0,656 -464,0z" />
<path style="fill:#e8e8e8" d="M241,735 l0,-656 13,-15 26,-14 36,-11 47,-7 51,-4 51,0 51,4 47,7 36,11 26,14 13,15 0,656 -397,0z" />
<path style="fill:#ededed" d="M273,735 l0,-656 11,-15 21,-14 32,-11 38,-7 43,-4 43,0 44,4 37,7 31,11 22,14 11,15 0,656 -333,0z" />
<path style="fill:#f2f2f2" d="M305,735 l0,-656 7,-15 19,-14 25,-11 32,-7 34,-4 36,0 33,4 33,7 24,11 17,14 9,15 0,656 -269,0z" />
<path style="fill:#f5f5f5" d="M337,735 l0,-656 6,-15 15,-14 18,-11 23,-7 26,-4 29,0 26,4 23,7 19,11 13,14 7,15 0,656 -205,0z" />
<path style="fill:#fafafa" d="M369,735 l0,-656 4,-15 9,-14 13,-11 17,-7 19,-4 17,0 19,4 17,7 13,11 10,14 3,15 0,656 -141,0z" />
<path style="fill:#fff" d="M401,735 l0,-656 2,-15 6,-14 7,-11 8,-7 11,-4 9,0 10,4 9,7 8,11 3,14 4,15 0,656 -77,0z" />
<path style="fill:#cc3" d="M420,147 l-13,-16 0,-20 13,-14 45,0 13,14 0,20 -13,16 -45,0z" />
<path style="fill:#999" d="M420,147 l13,-16 19,0 13,16 -45,0z" />
<path style="fill:#999" d="M420,97 l13,16 19,0 13,-16 -45,0z" />
<path style="fill:#999" d="M407,131 l0,-20 22,3 0,14 -22,3z" />
<path style="fill:#999" d="M478,131 l0,-20 -22,3 0,14 22,3z" />
<path style="fill:#f2f2f2" d="M47,77 l786,0 0,9 -786,0 0,-9z" />
<path style="fill:#000" d="M86,938 l707,0 0,17 -707,0 0,-17z" />
<path style="fill:#000" d="M171,770 l34,0 0,168 -34,0 0,-168z" />
<path style="fill:#000" d="M674,770 l34,0 0,168 -34,0 0,-168z" />
<path style="fill:#333;stroke:#000;stroke-width:2" d="M145,814 l39,0 255,77 -40,0 -254,-77z" />
<path style="fill:#333;stroke:#000;stroke-width:2" d="M695,814 l40,0 -257,77 -39,0 256,-77z" />
<path style="fill:none;stroke:#000;stroke-width:2" d="M47,735 l0,-656 26,-15 53,-14 73,-11 89,-7 100,-4 103,0 100,4 89,7 73,11 51,14 27,15 0,656 -784,0" />
<path style="fill:#b2b2b2" d="M831,735 l0,66 -27,15 -51,13 -73,11 -91,8 -98,5 -103,0 -100,-5 -91,-8 -71,-11 -53,-13 -26,-15 0,-66 784,0z" />
<path style="fill:#b8b8b8" d="M801,735 l-2,66 -23,15 -49,13 -66,11 -83,8 -90,3 -96,0 -93,-3 -81,-8 -66,-11 -49,-13 -24,-15 0,-66 722,0z" />
<path style="fill:#bdbdbd" d="M767,735 l0,66 -21,15 -43,13 -63,11 -73,8 -85,3 -87,0 -83,-3 -75,-8 -60,-11 -44,-13 -22,-15 0,-66 656,0z" />
<path style="fill:#bfbfbf" d="M735,735 l0,66 -19,15 -40,13 -54,11 -68,8 -76,3 -77,0 -75,-3 -68,-8 -55,-11 -40,-13 -20,-15 0,-66 592,0z" />
<path style="fill:#c4c4c4" d="M703,735 l0,66 -17,15 -36,13 -49,11 -61,8 -66,3 -69,0 -68,-3 -60,-8 -49,-11 -34,-13 -19,-15 0,-66 528,0z" />
<path style="fill:#c9c9c9" d="M671,735 l0,66 -16,15 -30,13 -43,11 -53,8 -58,3 -62,0 -59,-3 -53,-8 -43,-11 -30,-13 -17,-15 0,-66 464,0z" />
<path style="fill:#cfcfcf" d="M638,735 l0,66 -13,15 -26,13 -38,11 -45,8 -51,3 -53,0 -51,-3 -45,-8 -36,-11 -26,-13 -13,-15 0,-66 397,0z" />
<path style="fill:#d4d4d4" d="M606,735 l0,66 -11,15 -22,13 -31,11 -37,8 -44,3 -43,0 -43,-3 -38,-8 -32,-11 -21,-13 -11,-15 0,-66 333,0z" />
<path style="fill:#d9d9d9" d="M574,735 l0,66 -9,15 -17,13 -26,11 -31,8 -33,3 -36,0 -34,-3 -32,-8 -25,-11 -19,-13 -7,-15 0,-66 269,0z" />
<path style="fill:#dbdbdb" d="M542,735 l0,66 -5,15 -15,13 -19,11 -23,8 -26,3 -29,0 -26,-3 -23,-8 -18,-11 -15,-13 -6,-15 0,-66 205,0z" />
<path style="fill:#e0e0e0" d="M510,735 l0,66 -3,15 -10,13 -13,11 -17,8 -19,3 -19,0 -17,-3 -17,-8 -13,-11 -9,-13 -4,-15 0,-66 141,0z" />
<path style="fill:#e5e5e5" d="M478,735 l0,66 -4,15 -3,13 -8,11 -9,8 -10,5 -9,0 -11,-5 -8,-8 -7,-11 -6,-13 -2,-15 0,-66 77,0z" />
<path style="fill:none;stroke:#000;stroke-width:2" d="M831,735 l0,66 -27,15 -51,13 -73,11 -91,8 -98,5 -103,0 -100,-5 -91,-8 -71,-11 -53,-13 -26,-15 0,-66 784,0" />
<path style="fill:#333;stroke:#000;stroke-width:2" d="M28,716 l823,0 0,37 -823,0 0,-37z" />
<path style="fill:#333;stroke:#000;stroke-width:2" d="M28,951 l823,0 0,19 -823,0 0,-19z" />
<path style="fill:#333;stroke:#000;stroke-width:2" d="M420,753 l39,0 0,119 -39,0 0,-119z" />
<path style="fill:#333;stroke:#000;stroke-width:2" d="M145,753 l39,0 255,119 -40,0 -254,-119z" />
<path style="fill:#333;stroke:#000;stroke-width:2" d="M695,753 l40,0 -257,119 -39,0 256,-119z" />
<path style="fill:#333;stroke:#000;stroke-width:2" d="M126,753 l39,0 0,198 -39,0 0,-198z" />
<path style="fill:#333;stroke:#000;stroke-width:2" d="M714,753 l39,0 0,198 -39,0 0,-198z" />
<path style="fill:#e5e5e5" d="M401,853 l77,0 0,78 -77,0 0,-78z" />
<path style="fill:none;stroke:#fff;stroke-width:2" d="M401,931 l0,-78 77,0" />
<path style="fill:none;stroke:#000;stroke-width:2" d="M401,931 l77,0 0,-78" />

</svg>
