

<svg xmlns:agg="http://www.example.com" xmlns="http://www.w3.org/2000/svg" preserveAspectRatio="none" width="0.5227in" height="1.4792in" viewBox="0 0 353 999">

<path style="fill:#c93" d="M135,28 l77,0 0,73 -77,0 0,-73z" />
<path style="fill:#deab45" d="M145,28 l57,0 0,75 -57,0 0,-75z" />
<path style="fill:#edba54" d="M156,28 l36,0 0,75 -36,0 0,-75z" />
<path style="fill:#fc6" d="M167,28 l15,0 0,73 -15,0 0,-73z" />
<path style="fill:none;stroke:#000;stroke-width:2" d="M135,28 l77,0 0,73 -77,0 0,-73" />
<path style="fill:#c93" d="M269,775 l17,-25 13,-28 8,-30 3,-24 0,-8 0,-463 -6,-30 -17,-26 -26,-21 -33,-15 -38,-7 -14,-1 -13,1 -39,7 -33,15 -26,21 -18,26 -5,20 -1,10 0,463 3,32 8,30 13,28 14,19 5,6 185,0z" />
<path style="fill:#d6a33d" d="M254,775 l16,-25 11,-29 6,-31 2,-32 0,-60 1,-35 0,-32 0,-48 0,-11 0,-12 0,-62 0,-39 0,-47 0,-54 0,-30 -1,-33 -5,-29 -14,-26 -22,-21 -28,-14 -32,-7 -12,-1 -12,1 -33,7 -28,14 -22,21 -14,26 -5,19 0,10 0,14 0,46 0,35 0,33 0,47 1,38 0,48 -1,39 0,46 0,54 0,31 0,32 2,32 7,31 11,29 11,19 4,6 10,0 147,0z" />
<path style="fill:#e0ad47" d="M240,775 l13,-25 10,-29 5,-31 2,-16 1,-8 0,-8 0,-463 -5,-29 -12,-26 -18,-21 -24,-14 -26,-7 -10,-1 -9,1 -28,7 -23,14 -18,21 -12,26 -3,19 -1,10 0,14 0,457 3,32 6,30 10,28 6,13 4,6 7,0 122,0z" />
<path style="fill:#ebb852" d="M225,775 l11,-25 8,-29 4,-31 1,-16 1,-8 0,-8 0,-463 -4,-29 -9,-26 -20,-26 -26,-15 -7,-1 -8,-1 -7,1 -28,11 -22,24 -12,24 -5,28 -1,10 1,14 0,35 0,29 1,34 0,33 0,99 -1,36 0,42 0,50 0,28 0,31 -1,32 2,32 5,31 7,29 8,19 2,6 6,0 94,0z" />
<path style="fill:#f5c25c" d="M212,775 l8,-25 5,-29 3,-31 1,-16 0,-8 0,-8 0,-463 -2,-29 -7,-26 -14,-26 -24,-16 -6,-1 -5,1 -25,16 -15,26 -7,26 -2,19 0,10 0,14 0,457 2,32 3,30 6,28 3,13 3,6 4,0 69,0z" />
<path style="fill:#fc6" d="M199,775 l5,-32 2,-28 2,-31 0,-8 0,-8 0,-8 0,-463 -1,-30 -4,-26 -9,-27 -15,-16 -3,-1 -3,1 -18,22 -9,29 -3,28 0,10 -1,10 0,463 1,32 2,30 3,28 3,19 1,6 47,0z" />
<path style="fill:none;stroke:#000;stroke-width:2" d="M269,775 l17,-25 13,-28 8,-30 3,-24 0,-8 0,-463 -6,-30 -17,-26 -26,-21 -33,-15 -38,-7 -14,-1 -13,1 -39,7 -33,15 -26,21 -18,26 -5,20 -1,10 0,463 3,32 8,30 13,28 14,19 5,6 185,0" />
<path style="fill:#4c4c4c;stroke:#000;stroke-width:2" d="M28,934 l9,-25 9,-32 9,-33 9,-33 10,-28 3,-8 12,0 185,0 10,26 9,32 10,33 9,33 10,28 3,7 -3,-3 -17,-22 -15,-24 -16,-21 -7,-2 -7,0 -24,27 -16,34 -15,32 -4,9 -4,6 -10,0 -35,0 -13,-24 -14,-34 -16,-32 -18,-18 -6,0 -6,2 -16,21 -16,24 -17,22 -2,3z" />
<path style="fill:#333;stroke:#000;stroke-width:2" d="M199,805 l-17,141 -17,0 -17,-141 51,0z" />
<path style="fill:none;stroke:#000;stroke-width:2" d="M45,677 l265,0" />
<path style="fill:none;stroke:#000;stroke-width:2" d="M45,186 l265,0" />
<path style="fill:none;stroke:#000;stroke-width:2" d="M212,52 l-77,0" />

</svg>
