 

<svg xmlns:agg="http://www.example.com" xmlns="http://www.w3.org/2000/svg" preserveAspectRatio="none" width="0.7360in" height="1.0750in" viewBox="0 0 684 999">

<path style="fill:#4c4c4c" d="M587,970 l-49,-609 -9,0 49,609 9,0z" />
<path style="fill:#4c4c4c" d="M460,970 l-20,-609 -10,0 20,609 10,0z" />
<path style="fill:#4c4c4c" d="M224,970 l20,-609 10,0 -20,609 -10,0z" />
<path style="fill:#4c4c4c" d="M97,970 l49,-609 9,0 -49,609 -9,0z" />
<path style="fill:none;stroke:#7f7f7f;stroke-width:2" d="M152,366 l84,290 106,-290 106,290 84,-290" />
<path style="fill:none;stroke:#7f7f7f;stroke-width:2" d="M129,656 l114,-290 99,290 99,-290 114,290" />
<path style="fill:none;stroke:#7f7f7f;stroke-width:2" d="M129,666 l99,289 114,-289 114,289 99,-289" />
<path style="fill:none;stroke:#7f7f7f;stroke-width:2" d="M106,955 l130,-289 106,289 106,-289 130,289" />
<path style="fill:#666;stroke:#000;stroke-width:2" d="M67,656 l550,0 0,10 -275,5 -275,-5 0,-10z" />
<path style="fill:#7f7f7f" d="M574,366 l-4,34 -10,24 -14,22 -18,21 -22,18 -25,16 -28,13 -31,10 -33,7 -35,3 -12,1 -12,-1 -35,-3 -33,-7 -31,-10 -28,-13 -25,-16 -22,-18 -18,-21 -14,-22 -10,-24 -5,-34 0,-232 -20,0 253,-106 253,106 -21,0 0,232z" />
<path style="fill:#949494" d="M534,366 l-4,34 -12,31 -17,29 -24,25 -28,21 -33,16 -35,9 -39,4 -39,-4 -36,-9 -32,-16 -28,-21 -24,-25 -17,-29 -12,-31 -3,-34 0,-233 -18,0 209,-105 209,105 -17,0 0,233z" />
<path style="fill:#a8a8a8" d="M493,366 l-3,34 -9,31 -14,29 -18,25 -23,21 -25,16 -29,9 -30,4 -30,-4 -29,-9 -25,-16 -23,-21 -18,-25 -14,-29 -9,-31 -3,-34 0,-233 -14,0 165,-105 165,105 -14,0 0,233z" />
<path style="fill:#bdbdbd" d="M452,366 l-2,34 -7,31 -10,29 -13,25 -17,21 -28,21 -33,8 -33,-8 -29,-21 -16,-21 -13,-25 -11,-29 -6,-31 -2,-34 0,-233 -10,0 120,-105 121,105 -11,0 0,233z" />
<path style="fill:#d1d1d1" d="M412,366 l-2,34 -4,31 -6,29 -8,25 -17,29 -26,20 -7,1 -27,-13 -17,-26 -14,-36 -6,-29 -4,-31 -2,-34 0,-233 -6,0 76,-105 76,105 -6,0 0,233z" />
<ellipse style="fill:#e5e5e5" cx="342" cy="281" rx="32" ry="253" />
<path style="fill:#666" d="M574,176 l-23,-14 -30,-6 -31,-5 -28,-2 -30,-2 -32,-2 -35,-1 -35,0 -35,1 -33,1 -31,2 -28,2 -33,4 -27,5 -26,9 -7,6 -1,2 0,-42 465,0 0,42z" />
<path style="fill:#7f7f7f;stroke:#000;stroke-width:2" d="M385,355 l0,-221 10,0 0,221 -10,0z" />
<path style="fill:#4c4c4c" d="M131,355 l0,-221 10,0 0,221 -10,0z" />
<path style="fill:none;stroke:#000;stroke-width:2" d="M574,366 l-4,34 -10,24 -14,22 -18,21 -22,18 -25,16 -28,13 -31,10 -33,7 -35,3 -12,1 -12,-1 -35,-3 -33,-7 -31,-10 -28,-13 -25,-16 -22,-18 -18,-21 -14,-22 -10,-24 -5,-34 0,-232 -20,0 253,-106 253,106 -21,0 0,232" />
<path style="fill:none;stroke:#000;stroke-width:2" d="M109,134 l465,0" />
<path style="fill:#4c4c4c;stroke:#000;stroke-width:2" d="M87,366 l510,0 0,-11 -510,0 0,11z" />
<path style="fill:#999;stroke:#000;stroke-width:2" d="M28,970 l59,-604 19,0 -58,604 -20,0z" />
<path style="fill:#999;stroke:#000;stroke-width:2" d="M597,366 l59,604 -19,0 -59,-604 19,0z" />
<path style="fill:#999;stroke:#000;stroke-width:2" d="M185,970 l20,-604 19,0 -19,604 -20,0z" />
<path style="fill:#999;stroke:#000;stroke-width:2" d="M480,366 l19,604 -19,0 -20,-604 20,0z" />
<path style="fill:#999;stroke:#000;stroke-width:2" d="M332,970 l0,-604 20,0 0,604 -20,0z" />
<path style="fill:none;stroke:#000;stroke-width:2" d="M97,366 l108,290 137,-290 138,290 107,-290" />
<path style="fill:none;stroke:#000;stroke-width:2" d="M67,656 l147,-290 128,290 127,-290 148,290" />
<path style="fill:none;stroke:#000;stroke-width:2" d="M67,666 l128,289 147,-289 147,289 128,-289" />
<path style="fill:none;stroke:#000;stroke-width:2" d="M38,955 l167,-289 137,289 138,-289 166,289" />

</svg>
