

<svg xmlns:agg="http://www.example.com" xmlns="http://www.w3.org/2000/svg" preserveAspectRatio="none" width="0.7803in" height="1.4792in" viewBox="0 0 527 999">

<path style="fill:#666;stroke:#000;stroke-width:2" d="M499,892 l0,-785 -11,-24 -23,-17 -27,-12 -25,-8 -28,-7 -30,-5 -33,-3 -35,-3 -12,0 -12,0 -35,1 -35,3 -32,4 -29,6 -27,6 -30,11 -24,14 -20,22 -3,8 0,4 0,785 10,23 24,18 27,11 25,8 27,7 31,5 33,4 34,2 12,0 12,0 36,-1 34,-2 32,-5 30,-5 27,-7 30,-11 24,-13 20,-22 3,-8 0,-4z" />
<path style="fill:#737373" d="M48,106 l15,-29 46,-27 74,-17 81,-5 81,5 73,17 46,27 16,29 0,785 -16,30 -46,27 -73,16 -81,6 -81,-6 -74,-16 -46,-27 -15,-30 0,-785z" />
<path style="fill:#7d7d7d" d="M67,106 l14,-29 42,-27 67,-17 74,-5 73,5 67,17 42,27 14,29 0,785 -14,30 -42,27 -67,16 -73,6 -74,-6 -67,-16 -42,-27 -14,-30 0,-785z" />
<path style="fill:#8a8a8a" d="M87,106 l13,-29 37,-27 60,-17 67,-5 66,5 60,17 38,27 12,29 0,785 -12,30 -38,27 -60,16 -66,6 -67,-6 -60,-16 -37,-27 -13,-30 0,-785z" />
<path style="fill:#949494" d="M107,106 l11,-29 33,-27 54,-17 59,-5 59,5 53,17 34,27 11,29 0,785 -11,30 -34,27 -53,16 -59,6 -59,-6 -54,-16 -33,-27 -11,-30 0,-785z" />
<path style="fill:#a1a1a1" d="M126,106 l10,-29 29,-27 47,-17 52,-5 51,5 47,17 29,27 10,29 0,785 -10,30 -29,27 -47,16 -51,6 -52,-6 -47,-16 -29,-27 -10,-30 0,-785z" />
<path style="fill:#ababab" d="M146,106 l8,-29 25,-27 40,-17 45,-5 44,5 40,17 25,27 8,29 0,785 -8,30 -25,27 -40,16 -44,6 -45,-6 -40,-16 -25,-27 -8,-30 0,-785z" />
<path style="fill:#b8b8b8" d="M165,106 l8,-29 20,-27 34,-17 37,-5 36,5 34,17 21,27 7,29 0,785 -7,30 -21,27 -34,16 -36,6 -37,-6 -34,-16 -20,-27 -8,-30 0,-785z" />
<path style="fill:#c2c2c2" d="M185,106 l6,-29 16,-27 27,-17 30,-5 29,5 27,17 16,27 6,29 0,785 -6,30 -16,27 -27,16 -29,6 -30,-6 -27,-16 -16,-27 -6,-30 0,-785z" />
<path style="fill:#cfcfcf" d="M205,106 l4,-29 13,-27 19,-17 23,-5 22,5 20,17 12,27 5,29 0,785 -5,30 -12,27 -20,16 -22,6 -23,-6 -19,-16 -13,-27 -4,-30 0,-785z" />
<path style="fill:#d9d9d9" d="M224,106 l3,-29 8,-27 14,-17 15,-5 14,5 14,17 8,27 3,29 0,785 -3,30 -8,27 -14,16 -14,6 -15,-6 -14,-16 -8,-27 -3,-30 0,-785z" />
<ellipse style="fill:#e5e5e5" cx="263" cy="499" rx="19" ry="471" />
<path style="fill:#666;stroke:#000;stroke-width:2" d="M48,146 l0,706 39,-39 0,-628 353,0 39,-39 -431,0z" />
<path style="fill:#ccc;stroke:#000;stroke-width:2" d="M479,852 l0,-706 -39,39 0,628 -353,0 -39,39 431,0z" />
<path style="fill:#000" d="M87,185 l0,628 353,0 0,-628 -353,0z" />

</svg>
