

<svg xmlns:agg="http://www.example.com" xmlns="http://www.w3.org/2000/svg" preserveAspectRatio="none" width="1.0705in" height="1.4792in" viewBox="0 0 723 999">

<path style="fill:#666638" d="M675,931 l0,2 -24,13 -29,7 -28,4 -33,4 -37,4 -41,2 -28,1 -31,1 -31,1 -16,0 -16,0 -32,0 -31,-1 -30,-1 -29,-1 -27,-1 -39,-4 -34,-3 -29,-4 -32,-7 -24,-9 -6,-6 -1,-2 0,-824 -19,0 333,-79 334,79 -20,0 0,824z" />
<path style="fill:#75754c" d="M643,944 l-28,7 -28,4 -27,4 -30,3 -35,3 -37,2 -40,2 -28,1 -14,0 -14,0 -29,0 -28,-1 -40,-1 -37,-2 -34,-3 -31,-3 -27,-3 -28,-4 -26,-7 -1,-1 0,-1 0,-838 -18,0 299,-78 299,78 -18,0 0,838z" />
<path style="fill:#82825c" d="M610,953 l-30,3 -27,3 -33,3 -30,3 -32,2 -35,2 -36,1 -13,0 -12,0 -38,0 -36,-2 -34,-2 -31,-2 -28,-2 -32,-3 -30,-4 -20,-2 0,-847 -15,0 264,-78 264,78 -16,0 0,847z" />
<path style="fill:#919170" d="M577,958 l-1,-1 -30,3 -32,3 -32,3 -37,2 -30,1 -31,1 -11,0 -11,0 -33,0 -31,-1 -30,-2 -35,-2 -31,-3 -30,-2 -25,-3 -1,1 0,-852 -13,0 229,-78 229,78 -14,0 0,852z" />
<path style="fill:#9e9e82" d="M544,961 l-31,3 -35,2 -29,2 -33,1 -36,1 -37,0 -35,-1 -33,-1 -29,-2 -36,-3 -27,-2 -4,0 0,-855 -11,0 194,-78 194,78 -12,0 0,855z" />
<path style="fill:#adad93" d="M511,964 l-34,2 -32,2 -39,1 -29,1 -30,0 -30,-1 -39,-1 -32,-2 -27,-1 -7,-1 0,-858 -9,0 159,-78 159,78 -10,0 0,858z" />
<path style="fill:#babaa6" d="M479,966 l-34,2 -38,1 -33,1 -36,0 -32,-1 -34,-1 -27,-2 0,-860 -7,0 124,-78 124,78 -7,0 0,860z" />
<path style="fill:#c9c9ba" d="M446,967 l-31,2 -28,1 -8,0 -34,0 -30,-1 -31,-1 -6,-1 0,-861 -5,0 89,-78 89,78 -5,0 0,861z" />
<path style="fill:#d6d6c9" d="M413,969 l-31,1 -5,0 -35,0 -29,-1 -1,0 -1,0 0,0 0,-863 -3,0 54,-78 54,78 -3,0 0,863z" />
<path style="fill:#e5e5dd" d="M380,968 l0,0 -2,1 -1,0 -3,0 -2,1 -3,0 -4,0 -3,0 -4,0 -4,0 -2,0 -3,-1 -2,0 -2,0 -1,-1 -1,0 0,-861 -1,0 20,-79 19,79 -1,0 0,861z" />
<path style="fill:none;stroke:#000;stroke-width:2" d="M675,931 l0,2 -24,13 -29,7 -28,4 -33,4 -37,4 -41,2 -28,1 -31,1 -31,1 -16,0 -16,0 -32,0 -31,-1 -30,-1 -29,-1 -27,-1 -39,-4 -34,-3 -29,-4 -32,-7 -24,-9 -6,-6 -1,-2 0,-824 -19,0 333,-79 334,79 -20,0 0,824" />
<path style="fill:#330;fill-rule:evenodd" d="M361,28 l309,79 0,-10 -309,-69z M602,107 l0,-10 -241,-69 241,79z M533,107 l0,-10 -172,-69 172,79z M464,107 l0,-10 -103,-69 103,79z M396,107 l0,-10 -35,-69 35,79z M327,107 l0,-10 34,-69 -34,79z M258,107 l0,-10 103,-69 -103,79z M190,107 l0,-10 171,-69 -171,79z M121,107 l0,-10 240,-69 -240,79z M52,107 l0,-10 309,-69 -309,79z " />
<path style="fill:none;stroke:#4c4c16;stroke-width:2" d="M675,195 l-628,0" />
<path style="fill:none;stroke:#4c4c16;stroke-width:2" d="M676,276 l-314,5 -314,-5" />
<path style="fill:none;stroke:#4c4c16;stroke-width:2" d="M676,358 l-31,4 -32,1 -29,1 -35,1 -38,1 -42,0 -29,1 -15,0 -16,0 -15,0 -80,0 -31,0 -29,-1 -28,0 -40,-1 -35,0 -32,-1 -33,-2 -28,-2 -10,-2 0,0" />
<path style="fill:none;stroke:#4c4c16;stroke-width:2" d="M676,440 l-1,0 -30,5 -32,3 -29,1 -35,1 -38,1 -42,1 -29,1 -15,0 -16,0 -15,0 -80,0 -31,0 -29,-1 -28,0 -40,-1 -35,-1 -32,-2 -33,-2 -28,-3 -10,-3 0,0" />
<path style="fill:none;stroke:#4c4c16;stroke-width:2" d="M676,522 l-1,1 -1,1 -29,5 -32,3 -29,2 -35,2 -38,1 -42,1 -29,0 -31,1 -15,0 -16,0 -48,0 -32,0 -30,-1 -29,0 -40,-1 -37,-2 -33,-2 -28,-1 -29,-4 -23,-4 -1,-1 0,-1" />
<path style="fill:none;stroke:#4c4c16;stroke-width:2" d="M676,603 l-1,2 -24,7 -29,4 -28,2 -33,2 -37,2 -40,2 -29,0 -30,1 -16,0 -15,0 -16,0 -48,0 -32,0 -30,-1 -29,0 -40,-2 -37,-2 -33,-2 -28,-2 -29,-4 -24,-7 0,-2" />
<path style="fill:none;stroke:#4c4c16;stroke-width:2" d="M676,685 l-1,2 -1,1 -29,9 -32,4 -29,3 -35,2 -38,2 -42,2 -29,1 -31,0 -15,0 -16,0 -48,0 -32,0 -30,-1 -29,-1 -40,-1 -37,-3 -33,-2 -28,-3 -29,-5 -23,-7 -1,-1 0,-2" />
<path style="fill:none;stroke:#4c4c16;stroke-width:2" d="M676,767 l-1,2 -24,10 -29,5 -28,3 -33,4 -37,2 -40,2 -29,1 -30,1 -16,0 -15,1 -16,0 -48,0 -32,-1 -30,-1 -29,-1 -40,-2 -37,-2 -33,-4 -28,-3 -29,-5 -24,-10 0,-2" />
<path style="fill:none;stroke:#4c4c16;stroke-width:2" d="M676,849 l-1,2 -24,12 -29,5 -28,5 -33,3 -37,3 -40,2 -29,1 -30,1 -31,1 -16,0 -16,0 -32,0 -32,-1 -30,-1 -29,-1 -40,-2 -37,-3 -33,-3 -28,-5 -29,-5 -23,-11 -1,-1 0,-2" />
<path style="fill:none;stroke:#4c4c16;stroke-width:2" d="M47,107 l628,0" />
<path style="fill:none;stroke:#4c4c16;stroke-width:2" d="M264,185 l0,-78" />
<path style="fill:none;stroke:#4c4c16;stroke-width:2" d="M68,185 l0,-78" />
<path style="fill:none;stroke:#4c4c16;stroke-width:2" d="M460,185 l0,-78" />
<path style="fill:none;stroke:#4c4c16;stroke-width:2" d="M656,185 l0,-78" />
<path style="fill:none;stroke:#4c4c16;stroke-width:2" d="M361,273 l0,-78" />
<path style="fill:none;stroke:#4c4c16;stroke-width:2" d="M165,273 l0,-78" />
<path style="fill:none;stroke:#4c4c16;stroke-width:2" d="M558,273 l0,-78" />
<path style="fill:none;stroke:#4c4c16;stroke-width:2" d="M264,357 l0,-79" />
<path style="fill:none;stroke:#4c4c16;stroke-width:2" d="M68,352 l0,-74" />
<path style="fill:none;stroke:#4c4c16;stroke-width:2" d="M460,357 l0,-79" />
<path style="fill:none;stroke:#4c4c16;stroke-width:2" d="M656,352 l0,-74" />
<path style="fill:none;stroke:#4c4c16;stroke-width:2" d="M361,445 l0,-78" />
<path style="fill:none;stroke:#4c4c16;stroke-width:2" d="M165,445 l0,-78" />
<path style="fill:none;stroke:#4c4c16;stroke-width:2" d="M558,445 l0,-78" />
<path style="fill:none;stroke:#4c4c16;stroke-width:2" d="M264,529 l0,-79" />
<path style="fill:none;stroke:#4c4c16;stroke-width:2" d="M68,524 l0,-79" />
<path style="fill:none;stroke:#4c4c16;stroke-width:2" d="M460,529 l0,-79" />
<path style="fill:none;stroke:#4c4c16;stroke-width:2" d="M656,524 l0,-79" />
<path style="fill:none;stroke:#4c4c16;stroke-width:2" d="M361,617 l0,-79" />
<path style="fill:none;stroke:#4c4c16;stroke-width:2" d="M165,617 l0,-79" />
<path style="fill:none;stroke:#4c4c16;stroke-width:2" d="M558,617 l0,-79" />
<path style="fill:none;stroke:#4c4c16;stroke-width:2" d="M264,705 l0,-78" />
<path style="fill:none;stroke:#4c4c16;stroke-width:2" d="M68,690 l0,-78" />
<path style="fill:none;stroke:#4c4c16;stroke-width:2" d="M460,705 l0,-78" />
<path style="fill:none;stroke:#4c4c16;stroke-width:2" d="M656,690 l0,-78" />
<path style="fill:none;stroke:#4c4c16;stroke-width:2" d="M361,789 l0,-79" />
<path style="fill:none;stroke:#4c4c16;stroke-width:2" d="M165,784 l0,-79" />
<path style="fill:none;stroke:#4c4c16;stroke-width:2" d="M558,784 l0,-79" />
<path style="fill:none;stroke:#4c4c16;stroke-width:2" d="M264,877 l0,-79" />
<path style="fill:none;stroke:#4c4c16;stroke-width:2" d="M68,857 l0,-78" />
<path style="fill:none;stroke:#4c4c16;stroke-width:2" d="M460,877 l0,-79" />
<path style="fill:none;stroke:#4c4c16;stroke-width:2" d="M656,857 l0,-78" />
<path style="fill:none;stroke:#4c4c16;stroke-width:2" d="M361,960 l0,-78" />
<path style="fill:none;stroke:#4c4c16;stroke-width:2" d="M165,955 l0,-78" />
<path style="fill:none;stroke:#4c4c16;stroke-width:2" d="M558,955 l0,-78" />

</svg>
