

<svg xmlns:agg="http://www.example.com" xmlns="http://www.w3.org/2000/svg" preserveAspectRatio="none" width="0.9432in" height="1.4792in" viewBox="0 0 637 999">

<path style="fill:#7f7f7f" d="M573,123 l0,679 -510,0 0,-679 510,0z" />
<path style="fill:#999" d="M541,123 l0,679 -448,0 0,-679 448,0z" />
<path style="fill:#b2b2b2" d="M489,123 l0,679 -342,0 0,-679 342,0z" />
<path style="fill:#ccc" d="M434,123 l0,679 -232,0 0,-679 232,0z" />
<path style="fill:#e5e5e5" d="M393,123 l0,679 -151,0 0,-679 151,0z" />
<path style="fill:#fff" d="M349,123 l0,679 -62,0 0,-679 62,0z" />
<path style="fill:none;stroke:#000;stroke-width:2" d="M63,802 l0,-679" />
<path style="fill:none;stroke:#000;stroke-width:2" d="M573,123 l0,679" />
<path style="fill:#b2b2b2;stroke:#000;stroke-width:2" d="M46,921 l27,0 0,43 -27,0 0,-43z" />
<path style="fill:#b2b2b2;stroke:#000;stroke-width:2" d="M563,921 l29,0 0,43 -29,0 0,-43z" />
<path style="fill:#b2b2b2;stroke:#000;stroke-width:2" d="M28,970 l64,0 0,-6 -64,0 0,6z" />
<path style="fill:#b2b2b2;stroke:#000;stroke-width:2" d="M547,970 l62,0 0,-6 -62,0 0,6z" />
<path style="fill:#7f7f7f;stroke:#000;stroke-width:2" d="M46,921 l6,0 0,43 -6,0 0,-43z" />
<path style="fill:#7f7f7f;stroke:#000;stroke-width:2" d="M563,921 l6,0 0,43 -6,0 0,-43z" />
<path style="fill:#7f7f7f;stroke:#000;stroke-width:2" d="M28,970 l14,0 0,-6 -14,0 0,6z" />
<path style="fill:#7f7f7f;stroke:#000;stroke-width:2" d="M547,970 l12,0 0,-6 -12,0 0,6z" />
<path style="fill:#4c4c4c;stroke:#000;stroke-width:2" d="M118,50 l400,0 0,50 -400,0 0,-50z" />
<path style="fill:#ccc;stroke:#000;stroke-width:2" d="M63,123 l510,0 0,-17 -111,-35 -143,-16 -145,16 -111,35 0,17z" />
<path style="fill:#7f7f7f;stroke:#000;stroke-width:2" d="M255,123 l126,0 0,-67 -27,-20 -35,-8 -35,8 -29,20 0,67z" />
<path style="fill:none;stroke:#000;stroke-width:2" d="M557,127 l0,676" />
<path style="fill:none;stroke:#000;stroke-width:2" d="M522,127 l0,676" />
<path style="fill:none;stroke:#000;stroke-width:2" d="M489,127 l0,676" />
<path style="fill:none;stroke:#000;stroke-width:2" d="M453,127 l0,676" />
<path style="fill:none;stroke:#000;stroke-width:2" d="M420,127 l0,676" />
<path style="fill:none;stroke:#000;stroke-width:2" d="M385,127 l0,676" />
<path style="fill:none;stroke:#000;stroke-width:2" d="M352,127 l0,676" />
<path style="fill:none;stroke:#000;stroke-width:2" d="M319,127 l0,676" />
<path style="fill:none;stroke:#000;stroke-width:2" d="M284,127 l0,676" />
<path style="fill:none;stroke:#000;stroke-width:2" d="M251,127 l0,676" />
<path style="fill:none;stroke:#000;stroke-width:2" d="M216,127 l0,676" />
<path style="fill:none;stroke:#000;stroke-width:2" d="M182,127 l0,676" />
<path style="fill:none;stroke:#000;stroke-width:2" d="M148,127 l0,676" />
<path style="fill:none;stroke:#000;stroke-width:2" d="M114,127 l0,676" />
<path style="fill:none;stroke:#000;stroke-width:2" d="M79,127 l0,676" />
<path style="fill:#f0f0f0;stroke:#000;stroke-width:2" d="M178,377 l279,0 0,70 -279,0 0,-70z" />
<path style="fill:#4c4c4c;stroke:#000;stroke-width:2" d="M40,923 l138,8 141,0 138,0 139,-8 0,-120 -556,0 0,120z" />
<path style="fill:none;stroke:#000;stroke-width:2" d="M63,123 l510,0 0,680 -510,0 0,-680" />
<path style="fill:#7f7f7f;stroke:#000;stroke-width:2" d="M63,123 l510,0 0,-23 -510,0 0,23z" />
<path style="fill:#7f7f7f" d="M67,123 l16,0 0,10 -16,0 0,-10z" />
<path style="fill:#7f7f7f" d="M532,123 l17,0 0,10 -17,0 0,-10z" />
<path style="fill:#7f7f7f" d="M311,123 l14,0 0,10 -14,0 0,-10z" />
<path style="fill:#7f7f7f" d="M423,123 l14,0 0,10 -14,0 0,-10z" />
<path style="fill:#7f7f7f" d="M191,123 l17,0 0,10 -17,0 0,-10z" />
<path style="fill:none;stroke:#000;stroke-width:2" d="M191,393 l76,0" />
<path style="fill:none;stroke:#000;stroke-width:2" d="M303,393 l128,0" />
<path style="fill:none;stroke:#000;stroke-width:2" d="M344,408 l99,0" />
<path style="fill:none;stroke:#000;stroke-width:2" d="M292,427 l153,0" />
<path style="fill:none;stroke:#000;stroke-width:2" d="M311,408 l-122,0" />
<path style="fill:none;stroke:#000;stroke-width:2" d="M259,427 l-68,0" />

</svg>
