

<svg xmlns:agg="http://www.example.com" xmlns="http://www.w3.org/2000/svg" preserveAspectRatio="none" width="1.0128in" height="1.4792in" viewBox="0 0 684 999">

<path style="fill:#366;stroke:#000;stroke-width:2" d="M646,857 l-608,0 0,69 608,0 0,-69z" />
<path style="fill:#194c4c" d="M641,906 l-598,0 0,15 598,0 0,-15z" />
<path style="fill:#f2f2f2;stroke:#000;stroke-width:2" d="M499,897 l-314,0 0,68 314,0 0,-68z" />
<path style="fill:#b2b2b2" d="M656,852 l0,2 -25,14 -29,6 -28,5 -32,4 -37,3 -41,3 -29,1 -30,1 -31,0 -16,1 -16,0 -32,-1 -31,0 -30,-1 -29,-1 -28,-2 -38,-3 -34,-4 -30,-4 -31,-7 -25,-9 -6,-6 0,-2 0,-804 0,-1 31,-8 31,-3 30,-3 34,-1 38,-2 42,-1 30,-1 30,0 16,0 16,0 48,0 31,0 30,1 29,0 41,2 37,1 32,2 28,3 29,3 25,7 0,1 0,804z" />
<path style="fill:#bfbfbf" d="M597,852 l-25,17 -26,7 -33,6 -28,3 -32,3 -35,2 -37,1 -13,0 -13,1 -13,0 -39,-1 -37,-1 -35,-2 -32,-3 -29,-3 -33,-6 -25,-7 -24,-12 -1,-3 0,-2 0,-804 0,-1 25,-8 33,-4 35,-3 30,-1 33,-2 35,-1 25,0 13,0 13,0 39,0 38,0 35,1 33,2 30,1 35,3 28,3 25,5 5,4 0,1 0,804z" />
<path style="fill:#ccc" d="M563,852 l-22,17 -29,8 -30,6 -35,4 -29,2 -32,2 -21,0 -12,1 -11,0 -34,-1 -32,-1 -30,-2 -28,-3 -32,-5 -27,-6 -24,-8 -14,-12 0,-2 0,-804 0,-1 27,-9 31,-4 31,-2 36,-2 30,-1 32,-1 11,0 12,0 34,0 32,0 31,1 28,2 34,2 29,3 26,4 17,7 1,1 0,804z" />
<path style="fill:#d9d9d9" d="M543,852 l-1,5 -23,14 -35,9 -30,5 -34,4 -38,2 -20,0 -20,1 -20,-1 -40,-1 -36,-3 -32,-4 -27,-6 -30,-9 -16,-11 0,-5 0,-804 0,-2 34,-9 39,-5 32,-2 36,-1 19,-1 21,0 20,0 40,0 38,1 34,2 30,2 35,5 23,8 1,2 0,804z" />
<path style="fill:#e5e5e5" d="M489,852 l0,5 -25,17 -28,9 -37,6 -28,2 -14,0 -15,1 -15,-1 -29,-1 -38,-5 -32,-8 -27,-13 -6,-7 0,-5 0,-804 0,-2 25,-9 28,-5 37,-3 27,-1 15,0 15,0 29,0 28,1 37,3 28,5 25,9 0,2 0,804z" />
<path style="fill:#f2f2f2" d="M396,852 l-12,25 -26,13 -10,1 -6,1 -6,-1 -28,-8 -19,-23 -1,-3 0,-5 0,-804 1,-5 23,-12 19,-3 5,0 6,0 30,3 23,12 1,3 0,2 0,804z" />
<path style="fill:none;stroke:#000;stroke-width:2" d="M656,852 l0,2 -25,14 -29,6 -28,5 -32,4 -37,3 -41,3 -29,1 -30,1 -31,0 -16,1 -16,0 -32,-1 -31,0 -30,-1 -29,-1 -28,-2 -38,-3 -34,-4 -30,-4 -31,-7 -25,-9 -6,-6 0,-2 0,-804 0,-1 31,-8 31,-3 30,-3 34,-1 38,-2 42,-1 30,-1 30,0 16,0 16,0 48,0 31,0 30,1 29,0 41,2 37,1 32,2 28,3 29,3 25,7 0,1 0,804" />
<path style="fill:#e5e5e5" d="M244,852 l196,0 0,118 -196,0 0,-118z" />
<path style="fill:#f2f2f2" d="M288,852 l108,0 0,118 -108,0 0,-118z" />
<path style="fill:none;stroke:#000;stroke-width:2" d="M244,892 l0,78 196,0 0,-78" />
<path style="fill:#666;stroke:#000;stroke-width:2" d="M420,803 l-157,0 0,69 157,0 0,-69z" />
<path style="fill:none;stroke:#fff;stroke-width:2" d="M656,376 l0,1 -31,4 -31,1 -30,1 -34,1 -39,1 -41,1 -30,0 -15,0 -15,0 -16,0 -80,0 -30,0 -30,0 -28,-1 -40,0 -35,-1 -31,-1 -34,-2 -28,-2 -10,-2 0,-1" />
<path style="fill:none;stroke:#fff;stroke-width:2" d="M656,303 l0,0 -31,4 -31,1 -30,2 -34,1 -39,0 -41,1 -30,0 -15,0 -15,0 -16,0 -80,0 -30,0 -30,0 -28,-1 -40,0 -35,-1 -31,-1 -34,-2 -28,-2 -10,-2 0,0" />
<path style="fill:none;stroke:#fff;stroke-width:2" d="M656,754 l0,2 -25,9 -29,5 -28,4 -32,3 -37,2 -41,2 -29,1 -30,1 -15,0 -16,1 -16,0 -48,0 -31,-1 -30,-1 -29,-1 -41,-2 -37,-2 -33,-3 -28,-4 -28,-5 -25,-9 0,-2" />
<path style="fill:none;stroke:#fff;stroke-width:2" d="M656,666 l0,1 -25,10 -29,5 -28,4 -32,2 -37,3 -41,2 -29,1 -30,1 -15,0 -16,0 -16,0 -48,0 -31,0 -30,-1 -29,-1 -41,-2 -37,-3 -33,-2 -28,-4 -28,-5 -25,-10 0,-1" />
<path style="fill:#fff;stroke:#000;stroke-width:2" d="M185,106 l314,0 0,123 -314,0 0,-123z" />
<path style="fill:none;stroke:#7f7f7f;stroke-width:2" d="M656,661 l0,2 -25,9 -29,5 -28,4 -32,3 -37,2 -41,2 -29,1 -30,1 -15,0 -16,1 -16,0 -48,0 -31,-1 -30,-1 -29,-1 -41,-2 -37,-2 -33,-3 -28,-4 -28,-5 -25,-9 0,-2" />
<path style="fill:none;stroke:#7f7f7f;stroke-width:2" d="M656,749 l0,2 -25,10 -29,5 -28,3 -32,3 -37,3 -41,1 -29,2 -30,0 -15,1 -16,0 -16,0 -48,0 -31,-1 -30,0 -29,-2 -41,-1 -37,-3 -33,-3 -28,-3 -28,-5 -25,-10 0,-2" />
<path style="fill:none;stroke:#7f7f7f;stroke-width:2" d="M656,371 l0,1 -31,4 -31,1 -30,1 -34,1 -39,1 -41,1 -30,0 -15,0 -15,0 -16,0 -80,0 -30,0 -30,0 -28,-1 -40,0 -35,-1 -31,-1 -34,-2 -28,-2 -10,-2 0,-1" />
<path style="fill:none;stroke:#7f7f7f;stroke-width:2" d="M656,298 l0,0 -31,4 -31,1 -30,2 -34,0 -39,1 -41,1 -30,0 -15,0 -15,0 -16,0 -80,0 -30,0 -30,0 -28,-1 -40,0 -35,-1 -31,-1 -34,-2 -28,-2 -10,-2 0,0" />
<path style="fill:#8c8c8c;stroke:#000;stroke-width:2" d="M579,87 l0,107 77,-7 0,-93 -77,-7z" />
<path style="fill:#d9d9d9;stroke:#000;stroke-width:2" d="M590,97 l0,86 66,-5 0,-75 -66,-6z" />
<path style="fill:#699" d="M357,200 l127,0 0,19 -127,0 0,-19z" />

</svg>
