

<svg xmlns:agg="http://www.example.com" xmlns="http://www.w3.org/2000/svg" preserveAspectRatio="none" width="2.0104in" height="1.0242in" viewBox="0 0 530 270">

<path style="fill:#366;stroke:#000;stroke-width:2" d="M186,28 l83,0 0,27 -83,0 0,-27z" />
<path style="fill:#4c7f7f" d="M194,28 l67,0 0,27 -67,0 0,-27z" />
<path style="fill:#699" d="M207,28 l41,0 0,27 -41,0 0,-27z" />
<path style="fill:#9cc" d="M223,28 l9,0 0,27 -9,0 0,-27z" />
<path style="fill:#194c4c;stroke:#000;stroke-width:2" d="M482,255 l-434,0 -7,-2 -11,-15 -5,-12 -4,-15 -3,-17 -2,-19 -1,-20 1,-20 2,-19 3,-17 4,-15 5,-12 11,-15 7,-2 434,0 7,2 11,15 5,12 4,15 3,17 2,19 1,20 -1,20 -2,19 -3,17 -4,15 -5,12 -11,15 -7,2z" />
<path style="fill:#366" d="M482,247 l-434,0 -7,-2 -6,-5 -10,-20 -4,-13 -3,-16 -2,-17 -1,-19 1,-19 2,-17 3,-16 4,-13 10,-20 6,-5 7,-2 434,0 7,2 6,5 10,20 4,13 3,16 2,17 1,19 -1,19 -2,17 -3,16 -4,13 -10,20 -6,5 -7,2z" />
<path style="fill:#4c7f7f" d="M482,234 l-434,0 -13,-6 -10,-17 -4,-12 -3,-13 -2,-15 -1,-16 1,-16 2,-15 3,-13 9,-22 5,-7 13,-6 434,0 13,6 10,17 4,12 3,13 2,15 1,16 -1,16 -2,15 -3,13 -9,22 -5,7 -13,6z" />
<path style="fill:#699" d="M482,213 l-434,0 -7,-1 -11,-9 -9,-16 -5,-20 -1,-12 3,-23 7,-18 10,-12 6,-4 7,-1 434,0 7,1 11,9 9,16 5,20 1,12 -3,23 -7,18 -10,12 -6,4 -7,1z" />
<path style="fill:#7fb2b2" d="M482,188 l-434,0 -13,-3 -14,-12 -6,-18 3,-13 12,-14 18,-6 434,0 13,3 14,12 6,18 -3,13 -12,14 -18,6z" />
<ellipse style="fill:#9cc" cx="265" cy="155" rx="250" ry="8" />
<path style="fill:none;stroke:#000;stroke-width:2" d="M48,55 l0,200" />
<path style="fill:none;stroke:#000;stroke-width:2" d="M482,55 l0,200" />
<path style="fill:#366" d="M173,15 l109,0 0,13 -109,0 0,-13z" />
<path style="fill:#4c7f7f" d="M184,15 l87,0 0,13 -87,0 0,-13z" />
<path style="fill:#699" d="M200,15 l55,0 0,13 -55,0 0,-13z" />
<path style="fill:#9cc" d="M222,15 l11,0 0,13 -11,0 0,-13z" />
<path style="fill:none;stroke:#000;stroke-width:2" d="M173,15 l109,0 0,13 -109,0 0,-13" />

</svg>
