

<svg xmlns:agg="http://www.example.com" xmlns="http://www.w3.org/2000/svg" preserveAspectRatio="none" width="0.7611in" height="1.4792in" viewBox="0 0 514 999">

<path style="fill:#4c4c4c" d="M71,54 l25,0 0,43 -25,0 0,-43z" />
<path style="fill:#4c4c4c;stroke:#000;stroke-width:2" d="M128,124 l0,43 7,0 0,-43 -7,0z" />
<path style="fill:#194cb2;stroke:#000;stroke-width:2" d="M52,141 l36,0 0,622 -36,0 0,-622z" />
<path style="fill:#00004c" d="M437,739 l30,0 0,222 -30,0 0,-222z" />
<path style="fill:#00004c" d="M88,739 l32,0 0,222 -32,0 0,-222z" />
<path style="fill:#00004c" d="M437,897 l0,32 -317,0 0,-32 317,0z" />
<path style="fill:#ccc" d="M71,729 l0,-543 13,-13 29,-13 37,-10 47,-6 53,-3 55,0 53,3 47,6 39,10 27,13 15,13 0,543 -415,0z" />
<path style="fill:#00197f" d="M71,729 l415,0 0,34 -415,0 0,-34z" />
<path style="fill:#00268c" d="M103,727 l351,0 0,36 -351,0 0,-36z" />
<path style="fill:#039" d="M133,727 l289,0 0,36 -289,0 0,-36z" />
<path style="fill:#0d40a6" d="M165,727 l225,0 0,36 -225,0 0,-36z" />
<path style="fill:#194cb2" d="M197,727 l161,0 0,36 -161,0 0,-36z" />
<path style="fill:#2659bf" d="M229,727 l99,0 0,36 -99,0 0,-36z" />
<path style="fill:#36c" d="M262,729 l33,0 0,34 -33,0 0,-34z" />
<path style="fill:none;stroke:#000;stroke-width:2" d="M71,729 l415,0 0,34 -415,0 0,-34" />
<path style="fill:#d1d1d1" d="M88,727 l0,-547 13,-11 25,-11 36,-8 43,-7 47,-2 51,0 49,2 43,7 34,8 27,11 13,11 0,547 -381,0z" />
<path style="fill:#d6d6d6" d="M105,727 l0,-550 11,-10 25,-11 32,-8 38,-5 45,-2 45,0 43,2 40,5 32,8 23,11 11,10 0,550 -345,0z" />
<path style="fill:#d9d9d9" d="M122,727 l0,-554 11,-9 21,-10 28,-6 36,-5 40,-2 41,0 40,2 34,5 30,6 19,10 11,9 0,554 -311,0z" />
<path style="fill:#dedede" d="M139,727 l2,-558 8,-9 18,-8 26,-6 31,-3 36,-2 35,0 36,2 32,3 25,6 19,8 9,9 0,558 -277,0z" />
<path style="fill:#e3e3e3" d="M158,727 l0,-562 7,-7 15,-8 23,-4 28,-3 31,-2 31,0 33,2 26,3 23,4 15,8 9,7 0,562 -241,0z" />
<path style="fill:#e8e8e8" d="M175,727 l0,-565 7,-8 13,-4 19,-6 23,-1 28,-2 27,0 26,2 24,1 20,6 13,4 7,8 0,565 -207,0z" />
<path style="fill:#ededed" d="M192,727 l0,-571 5,-4 12,-4 17,-4 18,-3 23,0 23,0 21,0 20,3 15,4 12,4 7,4 0,571 -173,0z" />
<path style="fill:#f2f2f2" d="M209,727 l0,-575 5,-4 8,-2 13,-3 17,-2 17,0 19,0 17,0 15,2 13,3 9,2 4,4 0,575 -137,0z" />
<path style="fill:#f5f5f5" d="M226,727 l0,-579 3,-2 8,-2 9,-1 12,-2 13,0 13,0 13,0 14,2 9,1 6,2 3,2 0,579 -103,0z" />
<path style="fill:#fafafa" d="M243,727 l0,-583 3,-1 4,0 8,-2 7,0 8,0 9,0 10,0 7,0 6,2 6,0 2,1 0,583 -70,0z" />
<path style="fill:#fff" d="M262,729 l0,-588 1,0 4,0 4,0 4,0 5,0 4,0 4,0 4,0 1,0 2,0 0,588 -33,0z" />
<path style="fill:none;stroke:#000;stroke-width:2" d="M71,729 l0,-543 13,-13 29,-13 37,-10 47,-6 53,-3 55,0 53,3 47,6 39,10 27,13 15,13 0,543 -415,0" />
<path style="fill:#00197f" d="M450,729 l36,0 0,241 -36,0 0,-241z" />
<path style="fill:#36c" d="M450,729 l19,17 17,-17 -36,0z" />
<path style="fill:none;stroke:#000;stroke-width:2" d="M450,729 l36,0 0,241 -36,0 0,-241" />
<path style="fill:#00197f" d="M71,729 l34,0 0,241 -34,0 0,-241z" />
<path style="fill:#36c" d="M71,729 l17,17 17,-17 -34,0z" />
<path style="fill:none;stroke:#000;stroke-width:2" d="M71,729 l34,0 0,241 -34,0 0,-241" />
<path style="fill:#00197f" d="M450,901 l0,35 -345,0 0,-35 345,0z" />
<path style="fill:#ccc;stroke:#000;stroke-width:2" d="M28,131 l68,0 0,10 -68,0 0,-10z" />
<path style="fill:#7f7f7f" d="M96,124 l0,-96 69,0 0,96 -69,0z" />
<path style="fill:#8c8c8c" d="M99,124 l0,-96 63,0 0,96 -63,0z" />
<path style="fill:#999" d="M103,124 l0,-96 57,0 0,96 -57,0z" />
<path style="fill:#a6a6a6" d="M105,124 l0,-96 51,0 0,96 -51,0z" />
<path style="fill:#b2b2b2" d="M109,124 l0,-96 43,0 0,96 -43,0z" />
<path style="fill:#bfbfbf" d="M111,124 l0,-96 39,0 0,96 -39,0z" />
<path style="fill:#ccc" d="M114,124 l0,-96 33,0 0,96 -33,0z" />
<path style="fill:#d9d9d9" d="M118,124 l0,-96 26,0 0,96 -26,0z" />
<path style="fill:#e5e5e5" d="M120,124 l0,-96 21,0 0,96 -21,0z" />
<path style="fill:#f2f2f2" d="M124,124 l0,-96 13,0 0,96 -13,0z" />
<path style="fill:#fff" d="M128,124 l0,-96 7,0 0,96 -7,0z" />
<path style="fill:none;stroke:#000;stroke-width:2" d="M96,124 l0,-96 69,0 0,96 -69,0" />
<path style="fill:#4c4c4c;stroke:#000;stroke-width:2" d="M79,88 l-19,43 7,0 19,-43 -7,0z" />

</svg>
