 

<svg xmlns:agg="http://www.example.com" xmlns="http://www.w3.org/2000/svg" preserveAspectRatio="none" width="1.6083in" height="1.0626in" viewBox="0 0 999 660">

<path style="fill:#994c19" d="M841,632 l28,-16 25,-21 22,-24 19,-28 15,-31 11,-33 7,-35 2,-18 0,-18 0,-18 -5,-35 -9,-33 -13,-32 -16,-29 -20,-26 -24,-23 -26,-19 -14,-8 -164,0 -14,7 -26,19 -23,22 -21,26 -16,30 -13,31 -9,34 -5,36 -1,18 1,18 5,36 9,34 13,31 17,30 20,26 23,22 27,19 14,7 161,1z" />
<path style="fill:#994c19" d="M317,632 l28,-16 25,-21 22,-24 19,-28 15,-31 11,-33 7,-35 2,-18 1,-18 -1,-18 -4,-35 -10,-33 -13,-32 -16,-29 -20,-26 -24,-23 -26,-19 -14,-8 -164,0 -13,7 -27,19 -23,22 -20,26 -17,30 -13,31 -9,34 -5,36 0,18 0,18 5,36 9,34 13,31 17,30 20,26 24,22 26,19 14,7 161,1z" />
<path style="fill:#ab5e2b" d="M590,408 l12,-90 37,-82 58,-51 128,0 59,51 37,82 12,90 -12,90 -37,81 -59,52 -128,0 -58,-52 -37,-81 -12,-90z" />
<path style="fill:#ab5e2b" d="M66,408 l12,-90 37,-82 58,-51 129,0 58,51 37,82 12,90 -12,90 -37,81 -58,52 -129,0 -58,-52 -37,-81 -12,-90z" />
<path style="fill:#bf723f" d="M637,408 l9,-90 26,-82 42,-51 93,0 43,51 27,82 8,90 -8,90 -27,81 -43,52 -93,0 -42,-52 -26,-81 -9,-90z" />
<path style="fill:#bf723f" d="M113,408 l9,-90 26,-82 43,-51 93,0 42,51 27,82 9,90 -9,90 -27,81 -42,52 -93,0 -43,-52 -26,-81 -9,-90z" />
<path style="fill:#d18451" d="M684,408 l5,-90 17,-82 26,-51 58,0 26,51 17,82 5,90 -5,90 -17,81 -26,52 -58,0 -26,-52 -17,-81 -5,-90z" />
<path style="fill:#d18451" d="M160,408 l5,-90 17,-82 27,-51 57,0 26,51 17,82 5,90 -5,90 -17,81 -26,52 -57,0 -27,-52 -17,-81 -5,-90z" />
<path style="fill:#e59865" d="M732,408 l3,-90 5,-82 10,-51 21,0 10,51 6,82 2,90 -2,90 -6,82 -10,51 -21,0 -10,-51 -5,-82 -3,-90z" />
<path style="fill:#e59865" d="M209,408 l2,-90 6,-82 10,-51 21,0 10,51 5,82 3,90 -3,90 -5,81 -10,52 -21,0 -10,-52 -6,-81 -2,-90z" />
<path style="fill:#7f7f7f;stroke:#000;stroke-width:2" d="M375,106 l2,-4 5,-3 6,-1 5,1 5,3 3,4 -26,0z" />
<path style="fill:#7f7f7f;stroke:#000;stroke-width:2" d="M335,106 l3,-4 5,-3 5,-1 6,1 4,3 3,4 -26,0z" />
<path style="fill:#7f7f7f;stroke:#000;stroke-width:2" d="M637,106 l3,-4 4,-3 6,-1 5,1 5,3 3,4 -26,0z" />
<path style="fill:#7f7f7f;stroke:#000;stroke-width:2" d="M597,106 l3,-4 5,-3 5,-1 6,1 5,3 2,4 -26,0z" />
<path style="fill:#fff" d="M384,106 l4,-8 3,8 -7,0z" />
<path style="fill:#fff" d="M344,106 l4,-8 4,8 -8,0z" />
<path style="fill:#fff" d="M646,106 l4,-8 4,8 -8,0z" />
<path style="fill:#fff" d="M607,106 l3,-8 4,8 -7,0z" />
<path style="fill:none;stroke:#000;stroke-width:2" d="M841,632 l28,-16 25,-21 22,-24 19,-28 15,-31 11,-33 7,-35 2,-18 0,-18 0,-18 -5,-35 -9,-33 -13,-32 -16,-29 -20,-26 -24,-23 -26,-19 -14,-8 -164,0 -14,7 -26,19 -23,22 -21,26 -16,30 -13,31 -9,34 -5,36 -1,18 1,18 5,36 9,34 13,31 17,30 20,26 23,22 27,19 14,7 161,1" />
<path style="fill:none;stroke:#000;stroke-width:2" d="M317,632 l28,-16 25,-21 22,-24 19,-28 15,-31 11,-33 7,-35 2,-18 1,-18 -1,-18 -4,-35 -10,-33 -13,-32 -16,-29 -20,-26 -24,-23 -26,-19 -14,-8 -164,0 -13,7 -27,19 -23,22 -20,26 -17,30 -13,31 -9,34 -5,36 0,18 0,18 5,36 9,34 13,31 17,30 20,26 24,22 26,19 14,7 161,1" />
<path style="fill:#661900;stroke:#000;stroke-width:2" d="M440,630 l0,-393 -98,0 -53,-52 -130,0 0,-53 -14,0 0,-52 144,0 0,13 27,0 0,13 105,0 0,-78 78,0 33,26 46,0 0,52 105,0 0,-13 26,0 0,-13 144,0 0,52 -13,0 0,53 -131,0 -53,52 -98,0 0,393 -118,0z" />
<path style="fill:#b2b2b2" d="M584,113 l20,0 0,52 -20,0 0,-52z" />
<path style="fill:#b2b2b2" d="M663,113 l20,0 0,52 -20,0 0,-52z" />
<path style="fill:#b2b2b2" d="M787,119 l0,-19 -52,0 0,19 52,0z" />
<path style="fill:#b2b2b2" d="M368,113 l20,0 0,52 -20,0 0,-52z" />
<path style="fill:#b2b2b2" d="M499,178 l20,0 0,53 -20,0 0,-53z" />
<path style="fill:#b2b2b2" d="M499,244 l20,0 0,52 -20,0 0,-52z" />
<path style="fill:#b2b2b2" d="M499,440 l20,0 0,52 -20,0 0,-52z" />
<path style="fill:#ccc" d="M342,113 l20,0 0,52 -20,0 0,-52z" />
<path style="fill:#ccc" d="M152,119 l0,-19 52,0 0,19 -52,0z" />
<path style="fill:#999" d="M846,119 l0,-19 -52,0 0,19 52,0z" />
<path style="fill:#999" d="M637,113 l20,0 0,52 -20,0 0,-52z" />
<path style="fill:#999" d="M611,113 l19,0 0,52 -19,0 0,-52z" />
<path style="fill:#999" d="M559,113 l19,0 0,52 -19,0 0,-52z" />
<path style="fill:#999" d="M499,505 l20,0 0,53 -20,0 0,-53z" />
<path style="fill:#999" d="M499,375 l20,0 0,52 -20,0 0,-52z" />
<path style="fill:#999" d="M499,309 l20,0 0,53 -20,0 0,-53z" />
<path style="fill:#999" d="M499,113 l20,0 0,52 -20,0 0,-52z" />
<path style="fill:#999" d="M421,113 l19,0 0,52 -19,0 0,-52z" />
<path style="fill:#999" d="M395,113 l19,0 0,52 -19,0 0,-52z" />
<path style="fill:#999" d="M316,113 l19,0 0,52 -19,0 0,-52z" />
<path style="fill:#999" d="M211,119 l0,-19 52,0 0,19 -52,0z" />
<path style="fill:none;stroke:#999;stroke-width:2" d="M525,54 l0,576" />
<path style="fill:#4c0000" d="M709,152 l0,-19 131,0 0,19 -131,0z" />
<path style="fill:#4c0000" d="M159,152 l0,-19 130,0 0,19 -130,0z" />
<path style="fill:#4c0000" d="M558,630 l-26,0 0,-393 26,0 0,393z" />
<path style="fill:none;stroke:#000;stroke-width:2" d="M839,132 l-130,0" />
<path style="fill:none;stroke:#000;stroke-width:2" d="M826,80 l0,52" />
<path style="fill:none;stroke:#000;stroke-width:2" d="M800,80 l0,52" />
<path style="fill:none;stroke:#000;stroke-width:2" d="M774,80 l0,52" />
<path style="fill:none;stroke:#000;stroke-width:2" d="M748,80 l0,52" />
<path style="fill:none;stroke:#000;stroke-width:2" d="M250,80 l0,52" />
<path style="fill:none;stroke:#000;stroke-width:2" d="M224,80 l0,52" />
<path style="fill:none;stroke:#000;stroke-width:2" d="M198,80 l0,52" />
<path style="fill:none;stroke:#000;stroke-width:2" d="M172,80 l0,52" />
<path style="fill:none;stroke:#000;stroke-width:2" d="M159,132 l130,0" />

</svg>
