

<svg xmlns:agg="http://www.example.com" xmlns="http://www.w3.org/2000/svg" preserveAspectRatio="none" width="0.7418in" height="1.4792in" viewBox="0 0 501 999">

<path style="fill:#999;stroke:#000;stroke-width:2" d="M175,35 l8,3 3,5 -3,8 -8,3 -9,-3 -3,-8 7,-7 5,-1z" />
<path style="fill:none;stroke:#000;stroke-width:2" d="M175,35 l8,3 3,5 -3,8 -8,3 -9,-3 -3,-8 7,-7 5,-1" />
<path style="fill:#999;stroke:#000;stroke-width:2" d="M194,28 l8,3 3,8 -3,8 -8,3 -9,-3 -3,-8 3,-8 9,-3z" />
<path style="fill:#b2b2b2" d="M194,28 l6,6 1,5 -5,7 -2,1 -9,-4 -3,-4 5,-8 7,-3z" />
<path style="fill:#b2b2b2" d="M175,35 l7,5 0,3 -3,9 -4,2 -9,-4 -3,-7 7,-7 5,-1z" />
<path style="fill:#ccc" d="M194,31 l2,0 1,1 0,1 -1,9 -1,1 -1,0 -7,-5 -1,-3 0,-1 1,-1 7,-2z" />
<path style="fill:#ccc" d="M171,35 l7,3 1,3 -1,7 -7,2 -1,0 -1,0 -2,-4 1,-9 1,-1 1,-1 1,0z" />
<path style="fill:none;stroke:#000;stroke-width:2" d="M194,28 l8,3 3,8 -3,8 -8,3 -9,-3 -3,-8 3,-8 9,-3" />
<path style="fill:#b2b2b2;stroke:#000;stroke-width:2" d="M163,43 l23,0 0,49 -23,0 0,-49z" />
<path style="fill:none;stroke:#000;stroke-width:2" d="M163,43 l23,0 0,49 -23,0 0,-49" />
<path style="fill:#b2b2b2;stroke:#000;stroke-width:2" d="M182,39 l23,0 0,45 -23,0 0,-45z" />
<path style="fill:#b2b2b2;stroke:#000;stroke-width:2" d="M318,88 l0,-19 -113,0 0,-15 113,0 0,-7 11,0 0,41 -11,0z" />
<path style="fill:#999" d="M201,39 l4,0 0,45 -4,0 0,-45z" />
<path style="fill:#999" d="M182,43 l4,0 0,49 -4,0 0,-49z" />
<path style="fill:#ccc" d="M182,39 l4,0 0,45 -4,0 0,-45z" />
<path style="fill:#ccc" d="M163,43 l4,0 0,49 -4,0 0,-49z" />
<path style="fill:none;stroke:#000;stroke-width:2" d="M182,39 l23,0 0,45 -23,0 0,-45" />
<path style="fill:#ccc;stroke:#000;stroke-width:2" d="M382,80 l68,4 0,15 -68,-3 0,-16z" />
<path style="fill:#ccc;stroke:#000;stroke-width:2" d="M216,69 l68,0 0,19 -68,0 0,-19z" />
<path style="fill:#e5e5e5;stroke:#000;stroke-width:2" d="M473,955 l0,-856 -1,0 -27,-7 -31,-3 -32,-1 -36,-2 -30,-1 -32,-1 -11,0 -12,0 -11,0 -34,0 -33,1 -30,1 -28,1 -33,2 -27,2 -27,4 -10,4 0,0 0,856 0,1 27,6 31,3 32,2 37,2 30,1 32,0 11,0 11,0 11,0 34,0 32,0 30,-1 28,-1 33,-2 27,-3 28,-4 10,-3 1,-1z" />
<path style="fill:#999" d="M473,99 l-1,0 -28,-7 -32,-3 -7,-1 0,879 28,-3 29,-5 10,-3 1,-1 0,-856z" />
<path style="fill:#ccc" d="M409,967 l-30,0 -28,2 -30,1 -4,0 -3,0 -4,0 -3,0 0,-886 3,0 31,1 29,2 30,1 6,0 3,0 0,879z" />
<path style="fill:#ccc" d="M92,967 l0,-879 -28,3 -27,5 -9,6 0,1 0,852 0,1 25,6 31,4 8,1z" />
<path style="fill:none;stroke:#000;stroke-width:2" d="M473,733 l-1,0 -27,7 -31,3 -32,2 -36,1 -30,1 -32,1 -11,0 -12,0 -11,0 -34,0 -33,-1 -30,-1 -28,-1 -33,-2 -27,-2 -27,-4 -10,-4 0,0" />
<path style="fill:none;stroke:#000;stroke-width:2" d="M28,525 l445,0" />
<path style="fill:none;stroke:#000;stroke-width:2" d="M28,322 l0,-1 27,-6 31,-3 32,-2 37,-2 30,-1 32,0 11,0 11,0 11,0 34,0 32,0 30,1 28,1 33,2 27,3 28,4 10,3 1,1" />
<path style="fill:none;stroke:#000;stroke-width:2" d="M261,77 l0,893" />
<path style="fill:none;stroke:#000;stroke-width:2" d="M239,77 l0,893" />
<path style="fill:none;stroke:#000;stroke-width:2" d="M239,88 l22,0" />
<path style="fill:none;stroke:#000;stroke-width:2" d="M239,99 l22,0" />
<path style="fill:none;stroke:#000;stroke-width:2" d="M239,111 l22,0" />
<path style="fill:none;stroke:#000;stroke-width:2" d="M261,122 l-22,0" />
<path style="fill:none;stroke:#000;stroke-width:2" d="M239,133 l22,0" />
<path style="fill:none;stroke:#000;stroke-width:2" d="M239,145 l22,0" />
<path style="fill:none;stroke:#000;stroke-width:2" d="M239,156 l22,0" />
<path style="fill:none;stroke:#000;stroke-width:2" d="M239,167 l22,0" />
<path style="fill:none;stroke:#000;stroke-width:2" d="M261,179 l-22,0" />
<path style="fill:none;stroke:#000;stroke-width:2" d="M239,190 l22,0" />
<path style="fill:none;stroke:#000;stroke-width:2" d="M239,201 l22,0" />
<path style="fill:none;stroke:#000;stroke-width:2" d="M239,212 l22,0" />
<path style="fill:none;stroke:#000;stroke-width:2" d="M239,220 l22,0" />
<path style="fill:none;stroke:#000;stroke-width:2" d="M261,231 l-22,0" />
<path style="fill:none;stroke:#000;stroke-width:2" d="M239,243 l22,0" />
<path style="fill:none;stroke:#000;stroke-width:2" d="M239,254 l22,0" />
<path style="fill:none;stroke:#000;stroke-width:2" d="M239,265 l22,0" />
<path style="fill:none;stroke:#000;stroke-width:2" d="M239,277 l22,0" />
<path style="fill:none;stroke:#000;stroke-width:2" d="M261,288 l-22,0" />
<path style="fill:none;stroke:#000;stroke-width:2" d="M239,299 l22,0" />
<path style="fill:none;stroke:#000;stroke-width:2" d="M239,310 l22,0" />
<path style="fill:none;stroke:#000;stroke-width:2" d="M239,322 l22,0" />
<path style="fill:none;stroke:#000;stroke-width:2" d="M239,333 l22,0" />
<path style="fill:none;stroke:#000;stroke-width:2" d="M261,344 l-22,0" />
<path style="fill:none;stroke:#000;stroke-width:2" d="M239,356 l22,0" />
<path style="fill:none;stroke:#000;stroke-width:2" d="M239,367 l22,0" />
<path style="fill:none;stroke:#000;stroke-width:2" d="M239,378 l22,0" />
<path style="fill:none;stroke:#000;stroke-width:2" d="M239,390 l22,0" />
<path style="fill:none;stroke:#000;stroke-width:2" d="M261,397 l-22,0" />
<path style="fill:none;stroke:#000;stroke-width:2" d="M239,409 l22,0" />
<path style="fill:none;stroke:#000;stroke-width:2" d="M239,420 l22,0" />
<path style="fill:none;stroke:#000;stroke-width:2" d="M239,431 l22,0" />
<path style="fill:none;stroke:#000;stroke-width:2" d="M239,442 l22,0" />
<path style="fill:none;stroke:#000;stroke-width:2" d="M261,454 l-22,0" />
<path style="fill:none;stroke:#000;stroke-width:2" d="M239,465 l22,0" />
<path style="fill:none;stroke:#000;stroke-width:2" d="M239,476 l22,0" />
<path style="fill:none;stroke:#000;stroke-width:2" d="M239,488 l22,0" />
<path style="fill:none;stroke:#000;stroke-width:2" d="M239,499 l22,0" />
<path style="fill:none;stroke:#000;stroke-width:2" d="M261,510 l-22,0" />
<path style="fill:none;stroke:#000;stroke-width:2" d="M239,522 l22,0" />
<path style="fill:none;stroke:#000;stroke-width:2" d="M239,533 l22,0" />
<path style="fill:none;stroke:#000;stroke-width:2" d="M239,544 l22,0" />
<path style="fill:none;stroke:#000;stroke-width:2" d="M239,556 l22,0" />
<path style="fill:none;stroke:#000;stroke-width:2" d="M261,567 l-22,0" />
<path style="fill:none;stroke:#000;stroke-width:2" d="M239,578 l22,0" />
<path style="fill:none;stroke:#000;stroke-width:2" d="M239,589 l22,0" />
<path style="fill:none;stroke:#000;stroke-width:2" d="M239,597 l22,0" />
<path style="fill:none;stroke:#000;stroke-width:2" d="M239,608 l22,0" />
<path style="fill:none;stroke:#000;stroke-width:2" d="M261,620 l-22,0" />
<path style="fill:none;stroke:#000;stroke-width:2" d="M239,631 l22,0" />
<path style="fill:none;stroke:#000;stroke-width:2" d="M239,642 l22,0" />
<path style="fill:none;stroke:#000;stroke-width:2" d="M239,654 l22,0" />
<path style="fill:none;stroke:#000;stroke-width:2" d="M239,665 l22,0" />
<path style="fill:none;stroke:#000;stroke-width:2" d="M261,676 l-22,0" />
<path style="fill:none;stroke:#000;stroke-width:2" d="M239,688 l22,0" />
<path style="fill:none;stroke:#000;stroke-width:2" d="M239,699 l22,0" />
<path style="fill:none;stroke:#000;stroke-width:2" d="M239,710 l22,0" />
<path style="fill:none;stroke:#000;stroke-width:2" d="M239,721 l22,0" />
<path style="fill:none;stroke:#000;stroke-width:2" d="M261,733 l-22,0" />
<path style="fill:none;stroke:#000;stroke-width:2" d="M239,744 l22,0" />
<path style="fill:none;stroke:#000;stroke-width:2" d="M239,755 l22,0" />
<path style="fill:none;stroke:#000;stroke-width:2" d="M239,767 l22,0" />
<path style="fill:none;stroke:#000;stroke-width:2" d="M239,778 l22,0" />
<path style="fill:none;stroke:#000;stroke-width:2" d="M261,789 l-22,0" />
<path style="fill:none;stroke:#000;stroke-width:2" d="M239,801 l22,0" />
<path style="fill:none;stroke:#000;stroke-width:2" d="M239,808 l22,0" />
<path style="fill:none;stroke:#000;stroke-width:2" d="M239,819 l22,0" />
<path style="fill:none;stroke:#000;stroke-width:2" d="M239,831 l22,0" />
<path style="fill:none;stroke:#000;stroke-width:2" d="M261,842 l-22,0" />
<path style="fill:none;stroke:#000;stroke-width:2" d="M239,853 l22,0" />
<path style="fill:none;stroke:#000;stroke-width:2" d="M239,865 l22,0" />
<path style="fill:none;stroke:#000;stroke-width:2" d="M239,876 l22,0" />
<path style="fill:none;stroke:#000;stroke-width:2" d="M239,887 l22,0" />
<path style="fill:none;stroke:#000;stroke-width:2" d="M261,899 l-22,0" />
<path style="fill:none;stroke:#000;stroke-width:2" d="M239,910 l22,0" />
<path style="fill:none;stroke:#000;stroke-width:2" d="M239,921 l22,0" />
<path style="fill:none;stroke:#000;stroke-width:2" d="M239,933 l22,0" />
<path style="fill:none;stroke:#000;stroke-width:2" d="M239,944 l22,0" />
<path style="fill:none;stroke:#000;stroke-width:2" d="M261,955 l-22,0" />
<path style="fill:none;stroke:#000;stroke-width:2" d="M239,967 l22,0" />
<path style="fill:none;stroke:#000;stroke-width:2" d="M473,955 l0,-856 -1,0 -27,-7 -31,-3 -32,-1 -36,-2 -30,-1 -32,-1 -11,0 -12,0 -11,0 -34,0 -33,1 -30,1 -28,1 -33,2 -27,2 -27,4 -10,4 0,0 0,856 0,1 27,6 31,3 32,2 37,2 30,1 32,0 11,0 11,0 11,0 34,0 32,0 30,-1 28,-1 33,-2 27,-3 28,-4 10,-3 1,-1" />

</svg>
