

<svg xmlns:agg="http://www.example.com" xmlns="http://www.w3.org/2000/svg" preserveAspectRatio="none" width="1.4051in" height="1.4792in" viewBox="0 0 949 999">

<path style="fill:#999;stroke:#000;stroke-width:2" d="M910,115 l-875,0 32,-15 35,-13 25,-8 25,-8 26,-7 28,-7 27,-6 29,-5 29,-5 30,-4 30,-3 30,-3 31,-2 31,-1 16,0 15,0 16,0 31,1 31,1 31,3 30,3 30,3 29,5 29,5 28,5 27,7 26,6 26,8 24,8 35,13 32,14 11,5z" />
<path style="fill:#999" d="M28,115 l893,0 0,106 -893,0 0,-106z" />
<path style="fill:#999" d="M28,221 l893,0 0,106 -893,0 0,-106z" />
<path style="fill:#999" d="M28,327 l893,0 0,106 -893,0 0,-106z" />
<path style="fill:#999" d="M28,437 l893,0 0,106 -893,0 0,-106z" />
<path style="fill:#999" d="M28,543 l893,0 0,106 -893,0 0,-106z" />
<path style="fill:#999" d="M28,649 l893,0 0,106 -893,0 0,-106z" />
<path style="fill:#999" d="M28,755 l893,0 0,109 -893,0 0,-109z" />
<path style="fill:#999;stroke:#000;stroke-width:2" d="M28,864 l893,0 0,106 -893,0 0,-106z" />
<path style="fill:#b2b2b2" d="M849,115 l-783,0 30,-15 32,-13 34,-12 36,-11 36,-10 26,-5 26,-5 27,-5 28,-3 28,-3 29,-3 30,-1 31,-1 15,0 16,0 30,1 28,1 27,3 39,4 36,7 34,7 33,10 32,10 30,12 30,13 30,14 10,5z" />
<path style="fill:#b2b2b2" d="M54,115 l814,0 0,106 -814,0 0,-106z" />
<path style="fill:#b2b2b2" d="M54,221 l814,0 0,106 -814,0 0,-106z" />
<path style="fill:#b2b2b2" d="M54,327 l814,0 0,106 -814,0 0,-106z" />
<path style="fill:#b2b2b2" d="M54,437 l814,0 0,106 -814,0 0,-106z" />
<path style="fill:#b2b2b2" d="M54,543 l814,0 0,106 -814,0 0,-106z" />
<path style="fill:#b2b2b2" d="M54,649 l814,0 0,106 -814,0 0,-106z" />
<path style="fill:#b2b2b2" d="M54,755 l814,0 0,109 -814,0 0,-109z" />
<path style="fill:#b2b2b2" d="M54,864 l814,0 0,106 -814,0 0,-106z" />
<path style="fill:#b2b2b2" d="M28,115 l893,0 0,7 -893,0 0,-7z" />
<path style="fill:#b2b2b2" d="M28,221 l893,0 0,7 -893,0 0,-7z" />
<path style="fill:#b2b2b2" d="M28,327 l893,0 0,11 -893,0 0,-11z" />
<path style="fill:#b2b2b2" d="M28,437 l893,0 0,7 -893,0 0,-7z" />
<path style="fill:#b2b2b2" d="M28,543 l893,0 0,7 -893,0 0,-7z" />
<path style="fill:#b2b2b2" d="M28,649 l893,0 0,11 -893,0 0,-11z" />
<path style="fill:#b2b2b2" d="M28,755 l893,0 0,11 -893,0 0,-11z" />
<path style="fill:#b2b2b2" d="M28,864 l893,0 0,8 -893,0 0,-8z" />
<path style="fill:#ccc" d="M758,115 l-651,0 31,-15 30,-13 29,-12 31,-11 31,-10 32,-8 34,-7 37,-5 39,-4 28,-1 30,-1 15,0 16,0 29,1 28,3 38,5 35,8 30,8 27,10 24,11 25,15 23,17 6,6 3,3z" />
<path style="fill:#ccc" d="M100,115 l677,0 0,106 -677,0 0,-106z" />
<path style="fill:#ccc" d="M100,221 l677,0 0,106 -677,0 0,-106z" />
<path style="fill:#ccc" d="M100,327 l677,0 0,106 -677,0 0,-106z" />
<path style="fill:#ccc" d="M100,437 l677,0 0,106 -677,0 0,-106z" />
<path style="fill:#ccc" d="M100,543 l677,0 0,106 -677,0 0,-106z" />
<path style="fill:#ccc" d="M100,649 l677,0 0,106 -677,0 0,-106z" />
<path style="fill:#ccc" d="M100,755 l677,0 0,109 -677,0 0,-109z" />
<path style="fill:#ccc" d="M100,864 l677,0 0,106 -677,0 0,-106z" />
<path style="fill:#ccc" d="M28,210 l893,0 0,11 -893,0 0,-11z" />
<path style="fill:#ccc" d="M28,319 l893,0 0,8 -893,0 0,-8z" />
<path style="fill:#ccc" d="M28,425 l893,0 0,8 -893,0 0,-8z" />
<path style="fill:#ccc" d="M28,531 l893,0 0,12 -893,0 0,-12z" />
<path style="fill:#ccc" d="M28,641 l893,0 0,8 -893,0 0,-8z" />
<path style="fill:#ccc" d="M28,747 l893,0 0,8 -893,0 0,-8z" />
<path style="fill:#ccc" d="M28,853 l893,0 0,11 -893,0 0,-11z" />
<path style="fill:#ccc" d="M28,963 l893,0 0,7 -893,0 0,-7z" />
<path style="fill:#e5e5e5" d="M607,115 l-401,0 24,-21 25,-16 29,-15 25,-10 26,-9 29,-7 31,-5 33,-3 11,-1 12,0 11,0 34,2 27,5 27,10 22,15 14,21 13,25 5,7 3,2z" />
<path style="fill:#e5e5e5" d="M179,115 l447,0 0,106 -447,0 0,-106z" />
<path style="fill:#e5e5e5" d="M179,221 l447,0 0,106 -447,0 0,-106z" />
<path style="fill:#e5e5e5" d="M179,327 l447,0 0,106 -447,0 0,-106z" />
<path style="fill:#e5e5e5" d="M179,437 l447,0 0,106 -447,0 0,-106z" />
<path style="fill:#e5e5e5" d="M179,543 l447,0 0,106 -447,0 0,-106z" />
<path style="fill:#e5e5e5" d="M179,649 l447,0 0,106 -447,0 0,-106z" />
<path style="fill:#e5e5e5" d="M179,755 l447,0 0,109 -447,0 0,-109z" />
<path style="fill:#e5e5e5" d="M179,864 l447,0 0,106 -447,0 0,-106z" />
<path style="fill:none;stroke:#000;stroke-width:2" d="M28,755 l893,0 0,109 -893,0 0,-109" />
<path style="fill:none;stroke:#000;stroke-width:2" d="M28,649 l893,0 0,106 -893,0 0,-106" />
<path style="fill:none;stroke:#000;stroke-width:2" d="M28,543 l893,0 0,106 -893,0 0,-106" />
<path style="fill:none;stroke:#000;stroke-width:2" d="M28,437 l893,0 0,106 -893,0 0,-106" />
<path style="fill:none;stroke:#000;stroke-width:2" d="M28,327 l893,0 0,106 -893,0 0,-106" />
<path style="fill:none;stroke:#000;stroke-width:2" d="M28,221 l893,0 0,106 -893,0 0,-106" />
<path style="fill:none;stroke:#000;stroke-width:2" d="M28,115 l893,0 0,106 -893,0 0,-106" />
<path style="fill:none;stroke:#999;stroke-width:2" d="M217,149 l0,341" />
<path style="fill:none;stroke:#999;stroke-width:2" d="M357,372 l0,322" />
<path style="fill:none;stroke:#999;stroke-width:2" d="M705,391 l0,560" />
<path style="fill:none;stroke:#999;stroke-width:2" d="M573,353 l0,235" />

</svg>
