 

<svg xmlns:agg="http://www.example.com" xmlns="http://www.w3.org/2000/svg" preserveAspectRatio="none" width="1.4075in" height="1.0750in" viewBox="0 0 999 763">

<path style="fill:#c90" d="M28,63 l33,-13 102,-12 159,-8 177,-2 177,2 159,8 101,12 34,13 0,9 -34,-13 -101,-12 -159,-8 -177,-2 -177,2 -159,8 -102,12 -33,13 0,-9z" />
<path style="fill:#7f7f7f;stroke:#000;stroke-width:2" d="M970,664 l0,-534 0,-2 -28,-10 -29,-5 -37,-4 -29,-3 -31,-2 -36,-2 -37,-2 -40,-2 -42,-1 -45,-1 -45,-1 -24,0 -24,0 -24,0 -48,0 -47,0 -45,1 -43,2 -41,1 -39,2 -36,2 -34,2 -30,3 -27,2 -35,5 -31,6 -15,7 0,2 0,534 21,21 25,9 35,9 27,6 30,5 34,4 36,4 39,4 41,3 43,2 45,2 47,1 24,1 24,0 48,-1 47,-1 45,-2 43,-2 41,-3 39,-4 36,-4 34,-4 30,-5 27,-6 35,-9 25,-9 21,-18 0,-3z" />
<path style="fill:#878787" d="M63,686 l0,-556 874,0 -1,556 -125,28 -148,15 -164,5 -163,-5 -148,-15 -125,-28z" />
<path style="fill:#8f8f8f" d="M98,699 l0,-569 804,0 -1,569 -115,18 -136,12 -151,5 -150,-5 -137,-12 -114,-18z" />
<path style="fill:#969696" d="M132,708 l0,-578 735,0 -1,578 -105,13 -124,8 -138,5 -137,-5 -125,-8 -105,-13z" />
<path style="fill:#9e9e9e" d="M167,712 l0,-582 665,0 0,582 -96,9 -112,8 -124,5 -125,-5 -113,-8 -95,-9z" />
<path style="fill:#a6a6a6" d="M202,717 l0,-587 595,0 0,587 -85,9 -212,8 -213,-8 -85,-9z" />
<path style="fill:#adadad" d="M237,717 l0,-587 526,0 -1,587 -75,9 -187,8 -188,-8 -75,-9z" />
<path style="fill:#b8b8b8" d="M272,721 l0,-591 456,0 -1,591 -65,5 -162,8 -163,-8 -65,-5z" />
<path style="fill:#bfbfbf" d="M307,726 l0,-596 386,0 0,596 -55,4 -138,4 -138,-4 -55,-4z" />
<path style="fill:#c7c7c7" d="M342,726 l0,-596 316,0 0,596 -158,8 -158,-8z" />
<path style="fill:#cfcfcf" d="M376,730 l0,-600 247,0 0,600 -123,4 -124,-4z" />
<path style="fill:#d6d6d6" d="M411,730 l0,-600 178,0 0,600 -89,4 -89,-4z" />
<path style="fill:#dedede" d="M446,730 l0,-600 108,0 0,600 -54,4 -54,-4z" />
<path style="fill:#e5e5e5" d="M480,733 l0,-603 39,0 0,603 -19,2 -20,-2z" />
<ellipse style="fill:#ccc;stroke:#000;stroke-width:2" cx="499" cy="130" rx="471" ry="35" />
<path style="fill:#c90" d="M59,117 l10,0 0,-63 -10,0 0,63z" />
<path style="fill:#c90" d="M121,108 l10,0 0,-63 -10,0 0,63z" />
<path style="fill:#c90" d="M183,103 l10,0 0,-62 -10,0 0,62z" />
<path style="fill:#c90" d="M261,103 l10,0 0,-62 -10,0 0,62z" />
<path style="fill:#c90" d="M339,99 l9,0 0,-62 -9,0 0,62z" />
<path style="fill:#c90" d="M417,95 l10,0 0,-63 -10,0 0,63z" />
<path style="fill:#c90" d="M495,95 l10,0 0,-63 -10,0 0,63z" />
<path style="fill:#c90" d="M573,95 l10,0 0,-63 -10,0 0,63z" />
<path style="fill:#c90" d="M650,99 l9,0 0,-62 -9,0 0,62z" />
<path style="fill:#c90" d="M727,103 l10,0 0,-62 -10,0 0,62z" />
<path style="fill:#c90" d="M805,103 l10,0 0,-62 -10,0 0,62z" />
<path style="fill:#c90" d="M867,108 l10,0 0,-63 -10,0 0,63z" />
<path style="fill:#c90" d="M929,117 l10,0 0,-63 -10,0 0,63z" />
<ellipse style="fill:#263a59" cx="499" cy="130" rx="373" ry="28" />
<path style="fill:none;stroke:#000;stroke-width:2" d="M126,130 l0,-1 29,-10 35,-5 33,-3 39,-3 29,-1 31,-2 32,-1 34,-1 36,0 18,-1 19,0 19,0 57,0 37,1 36,0 34,1 32,1 31,2 29,1 39,3 33,3 27,4 30,7 7,4 0,1" />
<path style="fill:#fc0" d="M960,130 l10,0 0,-62 -10,0 0,62z" />
<path style="fill:#fc0" d="M929,139 l10,0 0,-62 -10,0 0,62z" />
<path style="fill:#fc0" d="M867,148 l10,0 0,-62 -10,0 0,62z" />
<path style="fill:#fc0" d="M805,152 l10,0 0,-62 -10,0 0,62z" />
<path style="fill:#fc0" d="M727,157 l10,0 0,-62 -10,0 0,62z" />
<path style="fill:#fc0" d="M650,161 l9,0 0,-62 -9,0 0,62z" />
<path style="fill:#fc0" d="M572,161 l10,0 0,-62 -10,0 0,62z" />
<path style="fill:#fc0" d="M494,161 l10,0 0,-62 -10,0 0,62z" />
<path style="fill:#fc0" d="M416,161 l10,0 0,-62 -10,0 0,62z" />
<path style="fill:#fc0" d="M339,161 l9,0 0,-62 -9,0 0,62z" />
<path style="fill:#fc0" d="M261,157 l10,0 0,-62 -10,0 0,62z" />
<path style="fill:#fc0" d="M183,152 l10,0 0,-62 -10,0 0,62z" />
<path style="fill:#fc0" d="M121,148 l10,0 0,-62 -10,0 0,62z" />
<path style="fill:#fc0" d="M59,139 l10,0 0,-62 -10,0 0,62z" />
<path style="fill:#fc0" d="M28,130 l10,0 0,-62 -10,0 0,62z" />
<path style="fill:#fc0" d="M970,68 l-33,13 -102,12 -159,8 -177,2 -177,-2 -159,-8 -101,-12 -34,-13 0,-9 34,13 101,12 159,8 177,3 177,-3 159,-8 102,-12 33,-13 0,9z" />

</svg>
