

<svg xmlns:agg="http://www.example.com" xmlns="http://www.w3.org/2000/svg" preserveAspectRatio="none" width="0.7814in" height="1.4792in" viewBox="0 0 280 530">

<path style="fill:#4c4c4c" d="M140,515 l-125,-110 250,0 -125,110z" />
<path style="fill:#4c4c4c" d="M15,109 l250,0 0,296 -250,0 0,-296z" />
<path style="fill:#4c4c4c" d="M93,54 l94,0 78,55 -250,0 78,-55z" />
<path style="fill:#4c4c4c" d="M93,15 l94,0 0,39 -94,0 0,-39z" />
<path style="fill:#666" d="M140,515 l-125,-110 242,0 -117,110z" />
<path style="fill:#666" d="M15,109 l242,0 0,296 -242,0 0,-296z" />
<path style="fill:#666" d="M93,54 l90,0 74,55 -242,0 78,-55z" />
<path style="fill:#666" d="M93,15 l90,0 0,39 -90,0 0,-39z" />
<path style="fill:#7f7f7f" d="M93,15 l86,0 0,39 -86,0 0,-39z" />
<path style="fill:#7f7f7f" d="M15,109 l78,-55 86,0 63,55 -227,0z" />
<path style="fill:#7f7f7f" d="M242,109 l0,296 -227,0 0,-296 227,0z" />
<path style="fill:#7f7f7f" d="M140,515 l-125,-110 227,0 -102,110z" />
<path style="fill:#b2b2b2" d="M93,15 l82,0 0,39 -82,0 0,-39z" />
<path style="fill:#b2b2b2" d="M15,109 l78,-55 82,0 51,55 -211,0z" />
<path style="fill:#b2b2b2" d="M226,109 l0,296 -211,0 0,-296 211,0z" />
<path style="fill:#b2b2b2" d="M140,515 l-125,-110 211,0 -86,110z" />
<path style="fill:#ccc" d="M93,15 l74,0 0,39 -74,0 0,-39z" />
<path style="fill:#ccc" d="M15,109 l78,-55 74,0 20,55 -172,0z" />
<path style="fill:#ccc" d="M187,109 l0,296 -172,0 0,-296 172,0z" />
<path style="fill:#ccc" d="M140,515 l-125,-110 172,0 -47,110z" />
<path style="fill:#e5e5e5" d="M93,15 l47,0 0,39 -47,0 0,-39z" />
<path style="fill:#e5e5e5" d="M15,109 l78,-55 47,0 -8,55 -117,0z" />
<path style="fill:#e5e5e5" d="M132,109 l0,296 -117,0 0,-296 117,0z" />
<path style="fill:#e5e5e5" d="M140,515 l-125,-110 117,0 8,110z" />
<path style="fill:#fff" d="M93,15 l24,0 0,39 -24,0 0,-39z" />
<path style="fill:#fff" d="M15,109 l78,-55 24,0 -39,55 -63,0z" />
<path style="fill:#fff" d="M78,109 l0,296 -63,0 0,-296 63,0z" />
<path style="fill:#fff" d="M140,515 l-125,-110 63,0 62,110z" />
<path style="fill:#e5e5e5" d="M93,15 l16,0 0,39 -16,0 0,-39z" />
<path style="fill:#e5e5e5" d="M15,109 l78,-55 16,0 -55,55 -39,0z" />
<path style="fill:#e5e5e5" d="M54,109 l0,296 -39,0 0,-296 39,0z" />
<path style="fill:#e5e5e5" d="M140,515 l-125,-110 39,0 86,110z" />
<path style="fill:#ccc" d="M93,15 l8,0 0,39 -8,0 0,-39z" />
<path style="fill:#ccc" d="M15,109 l78,-55 8,0 -70,55 -16,0z" />
<path style="fill:#ccc" d="M31,109 l0,296 -16,0 0,-296 16,0z" />
<path style="fill:#ccc" d="M140,515 l-125,-110 16,0 109,110z" />
<path style="fill:none;stroke:#000;stroke-width:2" d="M15,109 l250,0 0,297 -250,0 0,-297" />
<path style="fill:none;stroke:#000;stroke-width:2" d="M15,109 l78,-55 94,0 78,55 -250,0" />
<path style="fill:none;stroke:#000;stroke-width:2" d="M93,54 l94,0 0,-39 -94,0 0,39" />
<path style="fill:none;stroke:#000;stroke-width:2" d="M15,405 l125,110 125,-110 -250,0" />

</svg>
