 

<svg xmlns:agg="http://www.example.com" xmlns="http://www.w3.org/2000/svg" preserveAspectRatio="none" width="1.6083in" height="0.9434in" viewBox="0 0 999 586">

<path style="fill:#73878c" d="M951,460 l-437,59 -30,0 -436,-59 0,-373 903,0 0,373z" />
<path style="fill:#4c4c16" d="M951,460 l-275,34 0,64 -39,0 0,-59 -123,20 -29,0 -437,-59 0,-40 59,-4 63,15 54,-11 25,-9 39,5 20,-5 98,14 54,-9 64,9 25,-9 39,4 68,15 35,-4 49,4 59,-10 20,0 34,6 59,-15 39,9 0,35z" />
<path style="fill:none;stroke:#000;stroke-width:2" d="M77,445 l54,-5" />
<path style="fill:none;stroke:#000;stroke-width:2" d="M165,450 l40,-5 49,10" />
<path style="fill:none;stroke:#000;stroke-width:2" d="M243,441 l50,-6 15,5" />
<path style="fill:none;stroke:#000;stroke-width:2" d="M411,485 l-45,-11" />
<path style="fill:none;stroke:#000;stroke-width:2" d="M347,460 l54,-5 68,5" />
<path style="fill:none;stroke:#000;stroke-width:2" d="M406,425 l-44,6" />
<path style="fill:none;stroke:#000;stroke-width:2" d="M553,440 l54,5 49,-10" />
<path style="fill:none;stroke:#000;stroke-width:2" d="M646,466 l35,-6 39,5" />
<path style="fill:none;stroke:#000;stroke-width:2" d="M754,450 l35,-5" />
<path style="fill:none;stroke:#000;stroke-width:2" d="M798,460 l35,-5 49,10" />
<path style="fill:none;stroke:#000;stroke-width:2" d="M641,489 l-29,-4 -44,4" />
<path style="fill:none;stroke:#000;stroke-width:2" d="M48,420 l58,-4 64,15 54,-11 25,-9 39,5 20,-5 98,14 54,-9 64,9 24,-9 39,4 69,15 39,-4 45,4 58,-10 20,0 34,6 59,-15 40,9" />
<path style="fill:#ccc;stroke:#000;stroke-width:2" d="M28,499 l0,-471 78,0 0,39 -58,0 0,393 436,58 0,-470 -24,0 0,-20 78,0 0,20 -24,0 0,470 123,-19 0,59 39,0 0,-64 275,-34 0,-393 -59,0 0,-39 78,0 0,471 -280,32 0,27 -68,0 0,-18 -123,18 -471,-59z" />

</svg>
