

<svg xmlns:agg="http://www.example.com" xmlns="http://www.w3.org/2000/svg" preserveAspectRatio="none" width="1.5078in" height="1.4792in" viewBox="0 0 999 980">

<path style="fill:#999;stroke:#000;stroke-width:2" d="M921,84 l0,-11 -79,0 -7,5 0,3 0,3 86,0z" />
<path style="fill:#999;stroke:#000;stroke-width:2" d="M687,84 l0,-11 -79,0 -8,2 -3,6 0,3 90,0z" />
<path style="fill:#999;stroke:#000;stroke-width:2" d="M450,84 l0,-11 -79,0 -7,5 -1,3 0,3 87,0z" />
<path style="fill:#999;stroke:#000;stroke-width:2" d="M216,84 l0,-11 -79,0 -8,2 -3,6 0,3 90,0z" />
<path style="fill:#e5e5e5;stroke:#000;stroke-width:2" d="M786,84 l0,-1 0,1 -5,-9 -7,-2 -38,0 0,-45 234,0 0,45 -4,0 -124,0 -7,5 0,3 0,3 -49,0z" />
<path style="fill:#e5e5e5;stroke:#000;stroke-width:2" d="M548,84 l0,-1 0,1 -3,-9 -8,-2 -38,0 0,-45 237,0 0,45 -4,0 -124,0 -8,2 -3,6 0,3 -49,0z" />
<path style="fill:#e5e5e5;stroke:#000;stroke-width:2" d="M314,84 l0,-1 0,1 -4,-9 -7,-2 -38,0 0,-45 234,0 0,45 -4,0 -124,0 -7,5 -1,3 0,3 -49,0z" />
<path style="fill:#e5e5e5;stroke:#000;stroke-width:2" d="M77,84 l0,-1 0,1 -3,-9 -9,-2 -37,0 0,-45 237,0 0,45 -4,0 -124,0 -8,2 -3,6 0,3 -49,0z" />
<path style="fill:none;stroke:#000;stroke-width:2" d="M28,96 l234,0 0,856 -234,0 0,-856" />
<path style="fill:#4c4c4c;stroke:#000;stroke-width:2" d="M28,84 l237,0 0,12 -237,0 0,-12z" />
<path style="fill:#4c4c4c;stroke:#000;stroke-width:2" d="M265,84 l234,0 0,12 -234,0 0,-12z" />
<path style="fill:#4c4c4c;stroke:#000;stroke-width:2" d="M499,84 l237,0 0,12 -237,0 0,-12z" />
<path style="fill:#4c4c4c;stroke:#000;stroke-width:2" d="M736,84 l234,0 0,12 -234,0 0,-12z" />
<path style="fill:none;stroke:#000;stroke-width:2" d="M265,96 l234,0 0,856 -234,0 0,-856" />
<path style="fill:none;stroke:#000;stroke-width:2" d="M499,96 l234,0 0,856 -234,0 0,-856" />
<path style="fill:#b2b2b2" d="M736,952 l8,0 0,-856 -8,0 0,856z" />
<path style="fill:#b2b2b2" d="M895,952 l38,0 0,-856 -38,0 0,856z" />
<path style="fill:#b2b2b2" d="M499,952 l11,0 0,-856 -11,0 0,856z" />
<path style="fill:#b2b2b2" d="M661,952 l34,0 0,-856 -34,0 0,856z" />
<path style="fill:#b2b2b2" d="M265,952 l8,0 0,-856 -8,0 0,856z" />
<path style="fill:#b2b2b2" d="M424,952 l37,0 0,-856 -37,0 0,856z" />
<path style="fill:#b2b2b2" d="M28,952 l11,0 0,-856 -11,0 0,856z" />
<path style="fill:#b2b2b2" d="M190,952 l34,0 0,-856 -34,0 0,856z" />
<path style="fill:#e5e5e5" d="M759,952 l76,0 0,-856 -76,0 0,856z" />
<path style="fill:#e5e5e5" d="M525,952 l72,0 0,-856 -72,0 0,856z" />
<path style="fill:#e5e5e5" d="M288,952 l75,0 0,-856 -75,0 0,856z" />
<path style="fill:#e5e5e5" d="M54,952 l72,0 0,-856 -72,0 0,856z" />
<path style="fill:#ccc" d="M835,952 l60,0 0,-856 -60,0 0,856z" />
<path style="fill:#ccc" d="M744,952 l15,0 0,-856 -15,0 0,856z" />
<path style="fill:#ccc" d="M597,952 l64,0 0,-856 -64,0 0,856z" />
<path style="fill:#ccc" d="M510,952 l15,0 0,-856 -15,0 0,856z" />
<path style="fill:#ccc" d="M363,952 l61,0 0,-856 -61,0 0,856z" />
<path style="fill:#ccc" d="M273,952 l15,0 0,-856 -15,0 0,856z" />
<path style="fill:#ccc" d="M126,952 l64,0 0,-856 -64,0 0,856z" />
<path style="fill:#ccc" d="M39,952 l15,0 0,-856 -15,0 0,856z" />
<path style="fill:#999" d="M933,952 l22,0 0,-856 -22,0 0,856z" />
<path style="fill:#999" d="M695,952 l27,0 0,-856 -27,0 0,856z" />
<path style="fill:#999" d="M461,952 l23,0 0,-856 -23,0 0,856z" />
<path style="fill:#999" d="M224,952 l26,0 0,-856 -26,0 0,856z" />
<path style="fill:#666" d="M955,952 l15,0 0,-856 -15,0 0,856z" />
<path style="fill:#666" d="M722,952 l14,0 0,-856 -14,0 0,856z" />
<path style="fill:#666" d="M484,952 l15,0 0,-856 -15,0 0,856z" />
<path style="fill:#666" d="M250,952 l15,0 0,-856 -15,0 0,856z" />
<path style="fill:#7f7f7f" d="M265,96 l-237,0 237,30 0,-30z" />
<path style="fill:#7f7f7f" d="M499,96 l-234,0 234,30 0,-30z" />
<path style="fill:#7f7f7f" d="M736,96 l-237,0 237,30 0,-30z" />
<path style="fill:#7f7f7f" d="M970,96 l-234,0 234,30 0,-30z" />
<path style="fill:#b2b2b2" d="M820,84 l0,-11 -84,0 0,-15 234,0 0,15 -128,0 -7,5 0,6 -15,0z" />
<path style="fill:#b2b2b2" d="M582,84 l0,-11 -83,0 0,-15 237,0 0,15 -128,0 -8,2 -3,9 -15,0z" />
<path style="fill:#b2b2b2" d="M348,84 l0,-11 -83,0 0,-15 234,0 0,15 -128,0 -7,5 -1,6 -15,0z" />
<path style="fill:#b2b2b2" d="M111,84 l0,-11 -83,0 0,-15 237,0 0,15 -128,0 -8,2 -3,9 -15,0z" />
<path style="fill:none;stroke:#000;stroke-width:2" d="M786,84 l0,-1 0,1 -5,-9 -7,-2 -38,0 0,-45 234,0 0,45 -4,0 -124,0 -7,5 0,3 0,3 -49,0" />
<path style="fill:none;stroke:#000;stroke-width:2" d="M548,84 l0,-1 0,1 -3,-9 -8,-2 -38,0 0,-45 237,0 0,45 -4,0 -124,0 -8,2 -3,6 0,3 -49,0" />
<path style="fill:none;stroke:#000;stroke-width:2" d="M314,84 l0,-1 0,1 -4,-9 -7,-2 -38,0 0,-45 234,0 0,45 -4,0 -124,0 -7,5 -1,3 0,3 -49,0" />
<path style="fill:none;stroke:#000;stroke-width:2" d="M77,84 l0,-1 0,1 -3,-9 -9,-2 -37,0 0,-45 237,0 0,45 -4,0 -124,0 -8,2 -3,6 0,3 -49,0" />
<path style="fill:none;stroke:#000;stroke-width:2" d="M736,84 l234,0 0,868 -234,0 0,-868" />
<path style="fill:none;stroke:#000;stroke-width:2" d="M499,84 l237,0 0,868 -237,0 0,-868" />
<path style="fill:none;stroke:#000;stroke-width:2" d="M265,84 l234,0 0,868 -234,0 0,-868" />
<path style="fill:none;stroke:#000;stroke-width:2" d="M28,84 l237,0 0,868 -237,0 0,-868" />

</svg>
