

<svg xmlns:agg="http://www.example.com" xmlns="http://www.w3.org/2000/svg" preserveAspectRatio="none" width="2.0104in" height="0.6184in" viewBox="0 0 998 307">

<path style="fill:#f0e8c4;stroke:#000;stroke-width:2" d="M450,28 l98,0 0,5 -98,0 0,-5z" />
<path style="fill:#d1b270;stroke:#000;stroke-width:2" d="M453,33 l92,0 0,12 -92,0 0,-12z" />
<path style="fill:#ddc694;stroke:#000;stroke-width:2" d="M455,28 l13,0 0,5 -13,0 0,-5z" />
<path style="fill:#ddc694;stroke:#000;stroke-width:2" d="M475,28 l13,0 0,5 -13,0 0,-5z" />
<path style="fill:#ddc694;stroke:#000;stroke-width:2" d="M493,28 l12,0 0,5 -12,0 0,-5z" />
<path style="fill:#ddc694;stroke:#000;stroke-width:2" d="M510,28 l13,0 0,5 -13,0 0,-5z" />
<path style="fill:#ddc694;stroke:#000;stroke-width:2" d="M530,28 l13,0 0,5 -13,0 0,-5z" />
<path style="fill:#f1e2c8;stroke:#000;stroke-width:2" d="M141,274 l-29,-3 -25,-10 -22,-16 -18,-21 -12,-24 -7,-27 0,-6 0,-6 0,-6 5,-28 11,-26 17,-21 21,-18 25,-11 28,-6 6,0 716,0 29,4 25,11 22,16 18,21 12,25 7,27 0,6 0,6 0,6 -5,28 -11,25 -17,21 -21,17 -25,11 -28,5 -6,0 -716,0z" />
<path style="fill:#ead3ad" d="M965,189 l-10,26 -16,23 -21,18 -24,12 -28,6 -4,0 -5,0 -716,0 -28,-4 -25,-10 -22,-16 -18,-21 -12,-25 -2,-5 -1,-4 2,2 21,15 22,5 842,0 25,-6 18,-14 2,-2z" />
<path style="fill:#e3c491" d="M955,216 l-18,23 -20,16 -23,12 -26,6 -7,1 -4,0 -716,0 -30,-4 -23,-11 -22,-15 -19,-22 -2,-3 -2,-3 2,3 22,16 19,4 826,0 27,-8 14,-12 2,-3z" />
<path style="fill:none;stroke:#000;stroke-width:2" d="M141,274 l-29,-3 -25,-10 -22,-16 -18,-21 -12,-24 -7,-27 0,-6 0,-6 0,-6 5,-28 11,-26 17,-21 21,-18 25,-11 28,-6 6,0 716,0 29,4 25,11 22,16 18,21 12,25 7,27 0,6 0,6 0,6 -5,28 -11,25 -17,21 -21,17 -25,11 -28,5 -6,0 -716,0" />
<path style="fill:#ead3ad;stroke:#7f7f7f;stroke-width:2" d="M925,252 l-3,1 -7,-6 -4,-10 -3,-10 -3,-11 -2,-12 -1,-9 -1,-10 -1,-9 0,-10 0,-10 0,-10 1,-9 0,-10 2,-9 1,-12 3,-12 2,-9 3,-8 5,-8 6,-2 1,0 1,1 0,-1 -4,-4 -1,0 -3,0 -7,6 -4,8 -3,8 -2,10 -2,11 -2,12 -1,13 -1,10 0,10 0,5 0,5 0,10 0,9 1,10 1,13 2,12 2,11 2,10 3,8 4,9 6,6 1,0 3,0 1,0 4,-7z" />
<path style="fill:#ead3ad;stroke:#7f7f7f;stroke-width:2" d="M960,209 l-2,5 -2,0 -5,-8 -2,-9 -2,-10 -1,-12 -1,-11 0,-12 1,-11 2,-11 2,-10 3,-8 3,-4 1,0 0,0 3,4 0,1 0,-1 -2,-6 0,-2 -1,0 0,-1 -2,0 -6,7 -3,10 -2,13 -1,11 0,11 0,6 0,6 0,11 1,10 1,9 3,11 4,10 2,0 1,1 3,0 2,-9 0,-1z" />
<path style="fill:#ead3ad;stroke:#7f7f7f;stroke-width:2" d="M857,274 l-8,-3 -5,-8 -4,-8 -4,-10 -2,-12 -2,-9 -2,-9 -1,-10 -1,-10 0,-11 -1,-11 0,-12 0,-12 1,-11 0,-11 1,-11 1,-10 2,-9 2,-9 2,-12 4,-11 4,-8 5,-8 7,-4 1,0 0,0 -4,-2 -1,0 -2,0 -8,4 -6,7 -4,9 -3,11 -3,12 -2,9 -1,10 -1,10 -1,11 -1,11 -1,12 0,6 0,6 0,12 1,12 1,11 1,11 1,10 1,10 2,9 3,13 3,10 4,9 6,7 6,4 2,0 2,0 5,-5z" />
<path style="fill:#ead3ad;stroke:#7f7f7f;stroke-width:2" d="M769,274 l-8,-5 -5,-8 -3,-9 -3,-11 -3,-12 -1,-9 -2,-10 -1,-10 -1,-11 0,-11 0,-11 0,-12 0,-11 0,-12 1,-10 1,-11 2,-10 1,-9 2,-8 3,-12 3,-10 3,-7 6,-7 4,-3 1,0 0,0 0,-1 -1,-1 -1,0 -3,0 -8,4 -5,7 -4,9 -4,11 -2,12 -2,9 -2,10 -1,10 -1,11 0,11 -1,12 0,6 0,6 0,12 1,12 0,11 1,11 1,10 2,10 2,9 2,13 4,10 4,9 5,7 6,4 2,0 3,0 1,0 1,-5z" />
<path style="fill:#ead3ad;stroke:#7f7f7f;stroke-width:2" d="M684,274 l-8,-5 -5,-8 -4,-9 -3,-11 -2,-12 -2,-9 -1,-10 -1,-10 -1,-11 -1,-11 0,-11 0,-12 0,-11 1,-12 1,-10 1,-11 1,-10 2,-9 1,-8 3,-12 3,-10 4,-7 5,-7 4,-3 2,0 0,0 -1,-1 0,-1 -2,0 -2,0 -8,4 -6,7 -4,9 -3,11 -3,12 -2,9 -1,10 -1,10 -1,11 -1,11 0,12 0,6 0,6 0,12 0,12 1,11 1,11 1,10 1,10 2,9 2,9 3,11 4,9 5,9 8,5 2,0 2,0 2,0 1,-5z" />
<path style="fill:#ead3ad;stroke:#7f7f7f;stroke-width:2" d="M598,274 l-8,-5 -5,-8 -3,-9 -3,-11 -3,-12 -1,-9 -2,-10 -1,-10 -1,-11 0,-11 0,-11 0,-12 0,-11 0,-12 1,-10 1,-11 2,-10 1,-9 2,-8 3,-12 3,-10 4,-7 5,-7 4,-3 1,0 0,0 0,-1 -1,-1 -1,0 -5,0 -8,5 -5,9 -4,9 -3,11 -2,13 -2,10 -1,10 -1,10 -1,12 -1,11 0,6 0,6 0,6 0,12 1,12 0,11 1,11 2,10 1,10 1,9 3,13 3,10 4,9 5,7 5,4 2,0 5,0 2,-1 0,-4z" />
<path style="fill:#ead3ad;stroke:#7f7f7f;stroke-width:2" d="M513,274 l-8,-5 -5,-8 -4,-9 -3,-11 -2,-12 -2,-9 -1,-10 -1,-10 -1,-11 -1,-11 0,-11 0,-12 0,-11 1,-12 1,-10 1,-11 1,-10 2,-9 1,-8 3,-12 4,-10 3,-7 5,-7 4,-3 2,0 0,0 -1,-1 0,-1 -2,0 -5,0 -8,5 -5,9 -3,9 -3,11 -3,13 -1,10 -2,10 -1,10 -1,12 0,11 0,6 0,6 0,6 0,12 0,12 1,11 1,11 1,10 1,10 2,9 3,13 3,10 3,9 5,7 6,4 1,0 5,0 2,0 1,-5z" />
<path style="fill:#ead3ad;stroke:#7f7f7f;stroke-width:2" d="M427,274 l-8,-5 -5,-8 -3,-9 -3,-11 -3,-12 -1,-9 -2,-10 -1,-10 0,-11 -1,-11 0,-11 0,-12 0,-11 1,-12 0,-10 1,-11 2,-10 1,-9 2,-8 3,-12 3,-10 4,-7 5,-7 4,-3 1,0 0,0 -2,-2 0,0 -5,0 -8,5 -5,9 -4,9 -3,11 -2,13 -2,10 -1,10 -1,10 -1,12 -1,11 0,6 0,6 0,6 0,12 1,12 0,11 1,11 2,10 1,10 2,9 2,13 3,10 4,9 5,7 5,4 2,0 5,0 2,-5z" />
<path style="fill:#ead3ad;stroke:#7f7f7f;stroke-width:2" d="M342,274 l-8,-5 -5,-8 -4,-9 -3,-11 -2,-12 -2,-9 -1,-10 -1,-10 -1,-11 0,-11 -1,-11 0,-12 1,-11 0,-12 1,-10 1,-11 1,-10 2,-9 2,-8 2,-12 4,-10 3,-7 5,-7 4,-3 2,0 0,0 -2,-2 -1,0 -5,0 -8,5 -5,9 -3,9 -3,11 -3,13 -1,10 -1,10 -2,10 0,12 -1,11 0,6 0,6 0,6 0,12 0,12 1,11 1,11 1,10 1,10 2,9 3,13 3,10 3,9 6,7 5,4 1,0 5,0 3,-5z" />
<path style="fill:#ead3ad;stroke:#7f7f7f;stroke-width:2" d="M256,274 l-8,-5 -5,-8 -3,-9 -3,-11 -3,-12 -1,-9 -1,-10 -1,-10 -1,-11 -1,-11 0,-11 0,-12 0,-11 1,-12 1,-10 1,-11 1,-10 1,-9 2,-8 3,-12 3,-10 4,-7 5,-7 4,-3 1,0 0,0 -4,-2 -1,0 -2,0 -8,5 -5,9 -4,9 -3,11 -2,13 -2,10 -1,10 -1,10 -1,12 0,11 -1,6 0,6 0,6 0,12 1,12 1,11 0,11 2,10 1,10 2,9 2,13 4,10 3,9 5,7 5,4 2,0 2,0 5,-5z" />
<path style="fill:#ead3ad;stroke:#7f7f7f;stroke-width:2" d="M171,274 l-8,-5 -6,-8 -3,-9 -4,-11 -3,-12 -1,-9 -2,-10 -1,-10 -1,-11 -1,-11 0,-11 0,-12 0,-11 1,-12 1,-10 1,-11 2,-10 1,-9 2,-8 3,-12 4,-10 4,-7 5,-7 5,-3 1,0 0,0 -4,-2 -1,0 -2,0 -9,5 -5,9 -3,9 -3,11 -3,13 -1,10 -1,10 -1,10 -1,12 -1,11 0,6 0,6 0,6 0,12 0,12 1,11 1,11 1,10 2,10 1,9 3,13 3,10 4,9 5,7 5,4 2,0 2,0 5,-5z" />
<path style="fill:#ead3ad;stroke:#7f7f7f;stroke-width:2" d="M91,262 l-8,-5 -5,-8 -3,-8 -3,-9 -2,-11 -2,-12 -1,-13 -1,-10 0,-10 -1,-10 0,-10 1,-10 0,-10 1,-9 1,-9 1,-13 3,-11 2,-11 3,-8 5,-8 7,-6 2,-1 0,0 -1,-1 -2,-1 -1,0 -1,0 -9,3 -5,9 -3,8 -3,10 -3,11 -2,13 -1,9 -1,9 -1,10 0,10 0,6 0,5 0,10 0,10 1,10 1,9 1,9 2,13 3,11 3,10 3,8 4,8 6,5 1,0 3,0 5,-2z" />
<path style="fill:#ead3ad;stroke:#7f7f7f;stroke-width:2" d="M43,216 l-5,-9 -3,-9 -3,-12 -1,-9 -1,-10 0,-12 1,-11 1,-10 3,-12 3,-9 5,-7 1,-2 0,0 -1,-1 -8,7 -3,10 -2,8 -1,10 -1,11 0,6 0,6 0,6 0,11 1,10 2,9 3,11 4,8 3,2 2,1 1,-1 0,0 -1,-2z" />

</svg>
