

<svg xmlns:agg="http://www.example.com" xmlns="http://www.w3.org/2000/svg" preserveAspectRatio="none" width="1.0360in" height="1.4792in" viewBox="0 0 699 998">

<path style="fill:#ccc;stroke:#000;stroke-width:2" d="M233,258 l-53,-196 -18,9 52,183 19,4z" />
<path style="fill:#333" d="M264,194 l18,-4 13,45 -18,6 -13,-47z" />
<path style="fill:#7f7f7f;stroke:#000;stroke-width:2" d="M205,282 l-177,0 0,-9 177,0 0,9z" />
<path style="fill:#b2b2b2;stroke:#000;stroke-width:2" d="M118,282 l4,-57 83,0 -6,14 21,-4 -6,-28 -111,0 -13,81 28,-6z" />
<path style="fill:#7f7f7f" d="M661,239 l-15,-6 -30,-4 -43,-5 -53,-2 -59,-2 -60,0 -60,2 -51,2 -43,5 -31,4 -17,6 0,697 17,10 31,9 43,8 51,5 60,2 60,0 59,-2 53,-5 43,-8 30,-9 15,-10 0,-697z" />
<path style="fill:#858585" d="M641,237 l-15,-6 -27,-3 -40,-4 -47,-2 -52,-2 -57,0 -53,2 -47,2 -39,4 -29,3 -13,6 0,703 13,10 29,7 39,6 47,5 53,2 57,0 52,-2 47,-5 40,-6 27,-7 15,-10 0,-703z" />
<path style="fill:#8a8a8a" d="M620,235 l-13,-4 -25,-6 -36,-1 -41,-2 -49,-2 -49,0 -49,2 -44,2 -34,1 -24,6 -13,4 0,709 13,7 24,8 34,6 44,3 49,2 49,0 47,-2 43,-3 36,-6 25,-8 13,-7 0,-709z" />
<path style="fill:#8f8f8f" d="M599,233 l-13,-4 -21,-4 -32,-1 -38,-2 -41,-2 -45,0 -42,2 -39,2 -31,1 -22,4 -11,4 0,713 11,7 22,6 31,6 39,3 42,2 45,0 41,-2 38,-3 32,-6 23,-6 9,-7 2,-713z" />
<path style="fill:#949494" d="M576,231 l-9,-3 -19,-3 -26,-3 -34,-2 -38,0 -38,0 -37,0 -34,2 -27,3 -19,3 -11,3 0,719 11,5 19,6 27,4 34,3 37,2 38,0 38,-2 32,-3 28,-4 19,-6 9,-5 0,-719z" />
<path style="fill:#999" d="M556,229 l-8,-4 -17,-1 -24,-2 -29,-2 -32,0 -32,0 -32,0 -28,2 -23,2 -17,1 -7,4 0,724 7,6 17,4 23,4 28,1 32,2 32,0 32,-2 29,-1 24,-4 17,-4 8,-6 0,-724z" />
<path style="fill:#9e9e9e" d="M535,228 l-7,-3 -14,-1 -19,-2 -24,-2 -27,0 -26,0 -26,0 -25,2 -19,2 -13,1 -7,3 0,729 7,4 13,4 19,2 25,1 26,2 26,0 27,-2 24,-1 19,-2 14,-4 7,-4 0,-729z" />
<path style="fill:#a3a3a3" d="M514,225 l-5,-1 -12,-2 -15,0 -19,-2 -20,0 -23,0 -21,0 -19,2 -15,0 -11,2 -6,1 0,734 6,4 11,4 15,1 19,0 21,2 23,0 20,-2 19,0 15,-1 12,-4 5,-4 0,-734z" />
<path style="fill:#a8a8a8" d="M492,224 l-4,-2 -8,0 -11,-2 -15,0 -15,0 -15,0 -17,0 -14,0 -11,2 -9,0 -4,2 0,739 4,2 9,2 11,1 14,2 17,0 15,0 15,0 15,-2 11,-1 8,-2 4,-2 0,-739z" />
<path style="fill:#adadad" d="M471,222 l-2,0 -6,-2 -7,0 -10,0 -9,0 -11,0 -10,0 -9,0 -8,0 -6,2 -3,0 0,745 3,1 6,0 8,2 9,0 10,0 11,0 9,0 10,0 7,-2 6,0 2,-1 0,-745z" />
<path style="fill:#b2b2b2" d="M450,220 l-2,0 -2,0 -3,0 -4,0 -6,0 -6,0 -3,0 -6,0 -2,0 -4,0 0,750 4,0 2,0 6,0 3,0 6,0 6,0 4,0 3,0 2,0 2,0 0,-750z" />
<path style="fill:none;stroke:#000;stroke-width:2" d="M661,239 l-15,-6 -30,-4 -43,-5 -53,-2 -59,-2 -60,0 -60,2 -51,2 -43,5 -31,4 -17,6 0,697 17,10 31,9 43,8 51,5 60,2 60,0 59,-2 53,-5 43,-8 30,-9 15,-10 0,-697" />
<path style="fill:#999;stroke:#000;stroke-width:2" d="M199,739 l8,1 32,8 43,6 57,3 60,2 62,0 63,-2 54,-3 46,-6 32,-8 5,-1 0,-8 10,4 0,7 -15,8 -32,7 -46,6 -54,4 -63,2 -62,0 -60,-2 -57,-4 -43,-6 -32,-7 -17,-8 0,-7 9,-4 0,8z" />
<path style="fill:#999;stroke:#000;stroke-width:2" d="M199,448 l8,-2 32,-5 43,-6 57,-4 60,-2 62,0 63,2 54,4 46,6 32,5 5,2 0,8 10,-4 0,-8 -15,-7 -32,-6 -46,-6 -54,-3 -63,-4 -62,0 -60,4 -57,3 -43,6 -32,6 -17,7 0,8 9,4 0,-8z" />
<path style="fill:#999;stroke:#000;stroke-width:2" d="M199,391 l8,-3 32,-10 43,-9 57,-9 60,-10 62,-6 63,-3 54,-2 46,2 32,3 5,2 0,6 10,-4 0,-7 -15,-6 -32,-4 -46,-2 -54,2 -63,4 -62,6 -60,9 -57,7 -43,12 -32,9 -17,10 0,7 9,2 0,-6z" />
<path style="fill:#999;stroke:#000;stroke-width:2" d="M199,320 l8,-2 32,-11 43,-10 57,-9 60,-8 62,-5 63,-6 100,0 32,4 5,2 0,7 10,-4 0,-7 -15,-7 -32,-5 -100,0 -63,5 -62,7 -60,7 -57,10 -43,9 -32,12 -17,7 0,10 9,1 0,-7z" />
<path style="fill:#7f7f7f" d="M290,28 l39,149 -111,30 -39,-149 111,-30z" />
<path style="fill:#8c8c8c" d="M284,30 l40,148 -102,27 -40,-149 102,-26z" />
<path style="fill:#999" d="M280,30 l40,148 -92,25 -40,-147 92,-26z" />
<path style="fill:#a6a6a6" d="M275,31 l39,149 -81,23 -39,-149 81,-23z" />
<path style="fill:#b2b2b2" d="M269,33 l40,149 -72,19 -40,-149 72,-19z" />
<path style="fill:#bfbfbf" d="M265,35 l40,149 -62,15 -40,-149 62,-15z" />
<path style="fill:#ccc" d="M260,35 l39,149 -51,15 -41,-149 53,-15z" />
<path style="fill:#d9d9d9" d="M254,37 l41,149 -43,11 -39,-149 41,-11z" />
<path style="fill:#e5e5e5" d="M250,39 l40,149 -32,7 -40,-148 32,-8z" />
<path style="fill:#f2f2f2" d="M244,39 l40,149 -20,7 -42,-148 22,-8z" />
<path style="fill:#fff" d="M239,41 l41,149 -13,4 -39,-149 11,-4z" />
<path style="fill:none;stroke:#000;stroke-width:2" d="M290,28 l39,149 -111,30 -39,-149 111,-30" />
<path style="fill:none;stroke:#000;stroke-width:2" d="M188,96 l111,-31" />
<path style="fill:none;stroke:#fff;stroke-width:2" d="M231,143 l-13,-51 51,-13" />
<path style="fill:none;stroke:#999;stroke-width:2" d="M231,143 l51,-14 -13,-50" />
<path style="fill:#e59898" d="M278,81 l14,-4 22,79 -15,4 -21,-79z" />
<path style="fill:#9c9" d="M277,378 l307,0 0,472 -307,0 0,-472z" />
<path style="fill:#91c491" d="M294,378 l273,0 0,472 -273,0 0,-472z" />
<path style="fill:#8cbf8c" d="M311,378 l241,0 0,472 -241,0 0,-472z" />
<path style="fill:#85b885" d="M328,378 l207,0 0,472 -207,0 0,-472z" />
<path style="fill:#7fb27f" d="M345,378 l173,0 0,472 -173,0 0,-472z" />
<path style="fill:#78ab78" d="M362,378 l139,0 0,472 -139,0 0,-472z" />
<path style="fill:#73a673" d="M379,378 l105,0 0,472 -105,0 0,-472z" />
<path style="fill:#6b9e6b" d="M396,378 l71,0 0,472 -71,0 0,-472z" />
<path style="fill:#696" d="M412,378 l38,0 0,472 -38,0 0,-472z" />
<path style="fill:none;stroke:#000;stroke-width:2" d="M277,850 l0,-472 307,0" />
<path style="fill:#333" d="M314,378 l21,0 125,472 -19,0 -127,-472z" />
<path style="fill:none;stroke:#cfc;stroke-width:2" d="M584,378 l0,472 -307,0" />
<path style="fill:#666;stroke:#000;stroke-width:2" d="M456,812 l-19,-13 -11,21 -29,5 -22,0 -13,-4 -2,-7 9,-10 21,-11 26,-11 19,13 9,-21 29,-4 22,0 14,4 2,8 -10,9 -19,12 -26,9z" />
<path style="fill:#666;stroke:#000;stroke-width:2" d="M410,646 l-18,-11 -12,20 -28,4 -21,0 -13,-4 -2,-7 10,-10 19,-11 26,-9 19,11 11,-19 28,-5 21,0 13,3 2,8 -9,9 -19,12 -27,9z" />

</svg>
