

<svg xmlns:agg="http://www.example.com" xmlns="http://www.w3.org/2000/svg" preserveAspectRatio="none" width="0.8943in" height="1.4792in" viewBox="0 0 604 999">

<path style="fill:#7f0000" d="M195,105 l213,0 33,4 32,11 28,16 25,22 21,27 15,30 10,35 2,17 1,19 0,401 -3,38 -10,34 -15,31 -21,28 -25,22 -28,16 -32,11 -16,3 -17,1 -213,0 -33,-4 -32,-11 -28,-16 -25,-22 -20,-28 -16,-31 -9,-34 -3,-19 -1,-19 0,-401 4,-36 9,-35 16,-30 20,-27 25,-22 28,-16 32,-11 16,-3 17,-1z" />
<path style="fill:#940000" d="M209,105 l35,0 12,0 11,0 81,0 35,0 41,4 27,10 25,17 21,22 18,27 13,30 9,34 3,37 0,75 0,12 0,13 0,213 0,38 0,50 -3,38 -9,34 -13,31 -18,27 -21,22 -25,17 -27,11 -15,2 -14,1 -12,0 -35,0 -92,0 -35,0 -41,-3 -27,-11 -24,-17 -22,-22 -18,-27 -13,-31 -9,-34 -2,-19 -1,-19 0,-12 0,-63 1,-38 0,-201 -1,-37 0,-50 3,-37 9,-34 13,-30 18,-27 22,-22 24,-17 27,-10 29,-4z" />
<path style="fill:#ab0000" d="M223,105 l30,0 10,0 10,0 68,0 30,0 34,4 23,10 21,17 19,22 15,27 11,30 8,34 2,37 0,75 0,12 0,13 0,213 0,38 0,50 -2,37 -8,35 -11,31 -15,27 -19,22 -21,17 -23,11 -12,3 -12,1 -10,0 -30,-1 -78,0 -30,1 -34,-4 -24,-11 -20,-17 -19,-22 -15,-27 -11,-31 -7,-35 -2,-18 -1,-19 0,-12 0,-63 0,-38 0,-201 0,-37 0,-50 3,-37 7,-34 11,-30 15,-27 19,-22 20,-17 24,-10 24,-4z" />
<path style="fill:#bf0000" d="M237,105 l24,0 9,-1 8,0 57,0 32,1 30,8 26,22 15,23 13,27 9,30 6,35 2,36 0,75 1,13 0,12 0,214 -1,37 0,51 -2,37 -6,34 -9,31 -13,27 -15,22 -26,24 -20,7 -10,1 -8,0 -33,-1 -56,0 -33,1 -30,-8 -27,-24 -15,-22 -12,-27 -9,-31 -6,-34 -2,-18 0,-19 0,-13 0,-63 0,-37 0,-201 0,-38 0,-50 2,-36 6,-35 9,-30 12,-27 15,-23 27,-22 30,-8z" />
<path style="fill:#d40000" d="M251,104 l19,0 7,0 6,0 45,0 33,1 23,14 19,27 11,25 9,29 6,32 3,36 1,31 0,62 0,13 0,13 0,213 0,38 0,50 -2,37 -5,34 -7,31 -10,27 -12,22 -21,24 -15,7 -8,1 -6,0 -32,-1 -38,0 -34,0 -23,-14 -20,-27 -10,-25 -9,-29 -6,-33 -3,-35 -1,-19 0,-12 0,-63 1,-38 0,-201 -1,-38 0,-50 2,-36 5,-35 7,-30 10,-27 12,-23 20,-23 24,-8z" />
<path style="fill:#eb0000" d="M265,104 l14,0 5,0 4,0 33,0 30,4 20,27 13,36 6,29 4,32 2,36 1,31 0,62 0,13 0,13 0,213 0,38 0,50 -1,37 -4,34 -5,31 -7,27 -14,32 -21,21 -6,1 -4,0 -28,0 -28,0 -31,-8 -15,-23 -13,-36 -6,-29 -4,-33 -2,-35 -1,-19 0,-12 0,-63 1,-38 0,-201 -1,-38 0,-50 2,-36 3,-35 5,-30 7,-27 14,-32 21,-21 6,-1z" />
<path style="fill:#f00" d="M279,104 l46,0 4,1 13,21 8,32 5,27 3,31 2,34 1,18 0,19 0,402 -1,36 -2,35 -3,31 -5,27 -8,31 -13,21 -4,1 -46,0 -4,-1 -14,-21 -8,-31 -4,-27 -4,-31 -2,-35 0,-18 0,-18 0,-402 0,-37 2,-34 4,-31 4,-27 8,-32 14,-21 4,-1z" />
<path style="fill:none;stroke:#000;stroke-width:2" d="M194,104 l215,0 34,4 31,11 28,16 25,23 20,27 16,31 9,34 3,18 1,19 0,402 -4,36 -9,35 -16,31 -20,27 -25,22 -28,17 -31,11 -17,2 -17,1 -215,0 -34,-3 -31,-11 -28,-17 -25,-22 -20,-27 -15,-31 -10,-35 -2,-18 -1,-18 0,-402 3,-37 10,-34 15,-31 20,-27 25,-23 28,-16 31,-11 17,-3 17,-1" />
<path style="fill:none;stroke:#000;stroke-width:2" d="M29,286 l547,0" />
<path style="fill:none;stroke:#000;stroke-width:2" d="M29,687 l547,0" />
<path style="fill:#7f0000" d="M95,970 l405,0 0,-129 -405,0 0,129z" />
<path style="fill:#940000" d="M125,970 l10,0 11,0 11,0 33,0 32,0 174,0 32,0 43,0 0,-24 0,-8 0,-9 0,-56 0,-32 -65,0 -10,-1 -11,0 -185,0 -32,1 -33,0 -10,0 0,8 0,32 0,57 0,32z" />
<path style="fill:#ab0000" d="M153,970 l9,0 9,0 9,0 36,-1 163,0 36,1 27,0 0,-25 1,-8 0,-8 0,-56 -1,-33 -54,0 -9,0 -9,0 -154,0 -36,0 -18,0 -9,0 0,8 0,33 0,56 0,33z" />
<path style="fill:#bf0000" d="M182,970 l7,0 7,0 8,0 21,0 15,-1 123,0 14,1 36,0 0,-25 1,-8 0,-8 0,-56 -1,-17 0,-16 -43,0 -7,0 -7,0 -123,0 -15,0 -29,0 -7,0 0,8 0,16 0,17 0,56 0,16 0,17z" />
<path style="fill:#d40000" d="M210,970 l11,0 11,0 11,0 11,-1 87,0 11,1 33,0 0,-25 0,-8 0,-8 0,-57 0,-16 0,-16 -33,0 -11,0 -10,0 -77,0 -11,0 -22,0 -11,0 0,8 0,16 1,16 0,57 -1,16 0,17z" />
<path style="fill:#eb0000" d="M239,969 l7,0 8,0 7,0 15,0 51,0 14,0 15,0 0,-24 0,-8 0,-8 0,-57 0,-16 0,-16 -22,0 -7,0 -7,0 -52,0 -14,0 -8,0 -7,0 0,8 0,16 0,16 0,57 0,16 0,16z" />
<path style="fill:#f00" d="M267,970 l60,0 0,-130 -60,0 0,130z" />
<path style="fill:#7f7f7f;stroke:#000;stroke-width:2" d="M182,871 l46,0 13,2 12,9 7,11 3,15 -1,10 -5,12 -10,10 -12,5 -7,1 -46,0 -12,-3 -10,-7 -7,-12 -3,-13 0,-10 6,-14 9,-10 11,-6 6,0z" />
<path style="fill:#7f7f7f;stroke:#000;stroke-width:2" d="M364,871 l46,0 13,2 11,9 8,11 3,15 -1,10 -5,12 -10,10 -13,5 -6,1 -46,0 -13,-3 -10,-7 -7,-12 -3,-13 1,-10 5,-14 8,-10 12,-6 7,0z" />
<path style="fill:none;stroke:#000;stroke-width:2" d="M95,970 l403,0 0,-130 -403,0 0,130" />
<path style="fill:#7f0000" d="M190,42 l225,0 0,64 -225,0 0,-64z" />
<path style="fill:#940000" d="M206,42 l37,0 12,-1 12,0 84,0 12,1 36,0 0,12 0,3 0,4 0,28 0,12 0,4 -12,0 -24,0 -12,0 -96,0 -12,0 -24,0 -13,0 0,-4 1,-12 0,-32 -1,-11 0,-4z" />
<path style="fill:#ab0000" d="M223,42 l30,0 10,-1 10,0 70,0 9,1 30,0 0,12 1,3 0,4 0,28 -1,12 0,4 -10,0 -20,0 -9,0 -80,0 -10,0 -20,0 -10,0 0,-4 0,-12 0,-32 0,-11 0,-4z" />
<path style="fill:#bf0000" d="M239,42 l24,0 8,-1 8,0 55,0 16,1 16,0 0,12 0,3 0,4 0,28 0,12 0,4 -8,0 -16,0 -16,0 -55,0 -16,0 -8,0 -8,0 0,-4 1,-12 0,-32 -1,-11 0,-4z" />
<path style="fill:#d40000" d="M256,42 l17,0 6,-1 6,0 41,0 12,1 12,0 0,12 0,3 0,4 0,28 0,12 0,4 -6,0 -12,0 -11,0 -42,0 -12,0 -6,0 -5,0 0,-4 0,-12 0,-32 0,-11 0,-4z" />
<path style="fill:#eb0000" d="M272,42 l12,0 3,-1 4,0 27,0 12,1 3,0 0,12 1,3 0,4 0,28 -1,12 0,4 -3,0 -12,0 -31,0 -11,0 -4,0 0,-4 0,-12 0,-32 0,-11 0,-4z" />
<path style="fill:#f00" d="M288,42 l29,0 0,64 -29,0 0,-64z" />
<path style="fill:none;stroke:#000;stroke-width:2" d="M190,42 l225,0 0,64 -225,0 0,-64" />
<path style="fill:#666;stroke:#000;stroke-width:2" d="M180,28 l20,0 0,49 -20,0 0,-49z" />
<path style="fill:#666;stroke:#000;stroke-width:2" d="M219,28 l20,0 0,49 -20,0 0,-49z" />
<path style="fill:#666;stroke:#000;stroke-width:2" d="M258,28 l20,0 0,49 -20,0 0,-49z" />
<path style="fill:#666;stroke:#000;stroke-width:2" d="M297,28 l20,0 0,49 -20,0 0,-49z" />
<path style="fill:#666;stroke:#000;stroke-width:2" d="M336,28 l20,0 0,49 -20,0 0,-49z" />
<path style="fill:#666;stroke:#000;stroke-width:2" d="M376,28 l19,0 0,49 -19,0 0,-49z" />
<path style="fill:#666;stroke:#000;stroke-width:2" d="M415,28 l19,0 0,49 -19,0 0,-49z" />
<path style="fill:#7f7f7f" d="M151,38 l307,0 0,29 -307,0 0,-29z" />
<path style="fill:#999" d="M189,37 l43,0 8,0 7,0 124,0 14,0 36,0 0,4 0,4 0,3 0,11 0,4 0,3 -7,0 -36,0 -15,0 -123,0 -15,0 -29,0 -7,0 0,-3 0,-11 0,-11 0,-4z" />
<path style="fill:#b2b2b2" d="M226,37 l30,0 10,0 79,0 9,0 30,0 0,8 0,14 0,7 -30,0 -9,0 -79,0 -10,0 -30,0 0,-11 0,-10 0,-8z" />
<path style="fill:#ccc" d="M263,38 l83,0 0,29 -83,0 0,-29z" />
<path style="fill:none;stroke:#000;stroke-width:2" d="M151,38 l307,0 0,29 -307,0 0,-29" />
<path style="fill:none;stroke:#000;stroke-width:2" d="M151,52 l307,0" />

</svg>
