 

<svg xmlns:agg="http://www.example.com" xmlns="http://www.w3.org/2000/svg" preserveAspectRatio="none" width="1.0992in" height="1.0750in" viewBox="0 0 999 977">

<path style="fill:#000;stroke:#000;stroke-width:2" d="M500,58 l269,13 201,34 -201,28 -269,13 -283,-13 -189,-28 189,-34 283,-13z" />
<path style="fill:#e5e5e5;stroke:#000;stroke-width:2" d="M217,934 l-176,-33 0,-796 176,32 0,797z" />
<path style="fill:#f0f0f0;stroke:#000;stroke-width:2" d="M217,934 l283,13 0,-797 -283,-13 0,797z" />
<path style="fill:#e0e0e0;stroke:#000;stroke-width:2" d="M769,934 l-269,13 0,-797 269,-13 0,797z" />
<path style="fill:#ccc;stroke:#000;stroke-width:2" d="M769,934 l191,-33 0,-796 -191,32 0,797z" />
<path style="fill:#b2b2b2;stroke:#000;stroke-width:2" d="M500,62 l269,13 191,30 -191,32 -269,13 -283,-13 -176,-32 176,-30 283,-13z" />
<path style="fill:#7f7f7f" d="M841,125 l-564,-54 -60,4 -176,30 176,32 283,13 269,-13 72,-12z" />
<path style="fill:none;stroke:#000;stroke-width:2" d="M474,32 l-429,79" />
<path style="fill:none;stroke:#000;stroke-width:2" d="M522,32 l433,79" />
<path style="fill:#699;stroke:#000;stroke-width:2" d="M30,103 l940,0 -10,13 -919,0 -11,-13z" />
<path style="fill:none;stroke:#000;stroke-width:2" d="M122,146 l0,234" />
<path style="fill:none;stroke:#000;stroke-width:2" d="M633,169 l0,235" />
<path style="fill:none;stroke:#000;stroke-width:2" d="M354,406 l0,266" />
<path style="fill:none;stroke:#000;stroke-width:2" d="M627,674 l0,262" />
<path style="fill:none;stroke:#000;stroke-width:2" d="M122,650 l0,265" />
<path style="fill:#7f7f7f" d="M960,904 l-191,32 -269,13 -285,-13 -176,-30 0,-11 176,32 285,13 269,-13 191,-32 0,9z" />
<path style="fill:#7f7f7f" d="M960,640 l-191,29 -269,14 -285,-14 -176,-29 0,-11 176,32 285,13 269,-13 191,-32 0,11z" />
<path style="fill:#7f7f7f" d="M960,371 l-191,33 -269,12 -285,-12 -176,-31 0,-10 176,30 285,13 269,-13 191,-30 0,8z" />
<path style="fill:#7f7f7f" d="M960,135 l-191,30 -269,13 -285,-13 -176,-30 0,-10 176,32 285,12 269,-12 191,-32 0,10z" />
<path style="fill:#699;stroke:#000;stroke-width:2" d="M970,126 l-195,31 -275,15 -292,-15 -180,-31 0,-23 180,32 292,13 275,-13 195,-32 0,23z" />
<path style="fill:#000" d="M848,135 l0,4 -24,5 0,-5 24,-4z" />
<path style="fill:#000" d="M880,393 l0,4 -24,4 0,-4 24,-4z" />
<path style="fill:#000" d="M910,655 l0,4 -23,2 0,-4 23,-2z" />
<path style="fill:#000" d="M882,380 l0,4 -58,11 0,-5 58,-10z" />
<path style="fill:#000" d="M913,640 l0,4 -58,11 0,-5 58,-10z" />
<path style="fill:#000" d="M848,154 l0,5 -24,4 0,-4 24,-5z" />
<path style="fill:#000" d="M880,412 l0,4 -24,5 0,-5 24,-4z" />
<path style="fill:#000" d="M910,674 l0,4 -23,5 0,-5 23,-4z" />
<path style="fill:#000" d="M848,174 l0,4 -24,4 0,-4 24,-4z" />
<path style="fill:#000" d="M880,431 l0,7 -24,2 0,-4 24,-5z" />
<path style="fill:#000" d="M910,693 l0,4 -23,5 0,-5 23,-4z" />
<path style="fill:#000" d="M848,193 l0,4 -24,5 0,-5 24,-4z" />
<path style="fill:#000" d="M880,453 l0,4 -24,4 0,-6 24,-2z" />
<path style="fill:#000" d="M910,712 l0,5 -23,4 0,-4 23,-5z" />
<path style="fill:#000" d="M848,212 l0,5 -24,4 0,-4 24,-5z" />
<path style="fill:#000" d="M880,472 l0,4 -24,5 0,-5 24,-4z" />
<path style="fill:#000" d="M910,732 l0,4 -23,4 0,-4 23,-4z" />
<path style="fill:#000" d="M848,232 l0,4 -24,4 0,-4 24,-4z" />
<path style="fill:#000" d="M880,491 l0,5 -24,4 0,-4 24,-5z" />
<path style="fill:#000" d="M910,751 l0,4 -23,5 0,-5 23,-4z" />
<path style="fill:#000" d="M848,251 l0,4 -24,5 0,-5 24,-4z" />
<path style="fill:#000" d="M880,511 l0,4 -24,4 0,-4 24,-4z" />
<path style="fill:#000" d="M910,771 l0,4 -23,4 0,-4 23,-4z" />
<path style="fill:#000" d="M848,270 l0,5 -24,4 0,-4 24,-5z" />
<path style="fill:#000" d="M880,530 l0,4 -24,5 0,-5 24,-4z" />
<path style="fill:#000" d="M910,790 l0,4 -23,4 0,-4 23,-4z" />
<path style="fill:#000" d="M848,290 l0,6 -24,2 0,-4 24,-4z" />
<path style="fill:#000" d="M880,550 l0,4 -24,4 0,-4 24,-4z" />
<path style="fill:#000" d="M910,809 l0,4 -23,5 0,-5 23,-4z" />
<path style="fill:#000" d="M848,311 l0,4 -24,5 0,-7 24,-2z" />
<path style="fill:#000" d="M880,569 l0,4 -24,4 0,-4 24,-4z" />
<path style="fill:#000" d="M910,829 l0,6 -23,2 0,-4 23,-4z" />
<path style="fill:#000" d="M848,330 l0,5 -24,4 0,-4 24,-5z" />
<path style="fill:#000" d="M880,588 l0,4 -24,5 0,-5 24,-4z" />
<path style="fill:#000" d="M910,850 l0,4 -23,4 0,-6 23,-2z" />
<path style="fill:#000" d="M848,350 l0,4 -24,4 0,-4 24,-4z" />
<path style="fill:#000" d="M880,608 l0,4 -24,4 0,-4 24,-4z" />
<path style="fill:#000" d="M910,869 l0,4 -23,5 0,-5 23,-4z" />
<path style="fill:#000" d="M848,369 l0,4 -24,5 0,-5 24,-4z" />
<path style="fill:#000" d="M880,629 l0,4 -24,2 0,-4 24,-2z" />
<path style="fill:#000" d="M910,889 l0,4 -23,4 0,-4 23,-4z" />
<path style="fill:#000" d="M824,129 l5,-3 0,267 -5,0 0,-264z" />
<path style="fill:#000" d="M855,386 l4,0 0,264 -4,2 0,-266z" />
<path style="fill:#000" d="M884,648 l5,-2 0,266 -5,0 0,-264z" />
<path style="fill:#000" d="M846,125 l4,0 0,263 -4,0 0,-263z" />
<path style="fill:#000" d="M878,384 l4,-2 0,266 -4,0 0,-264z" />
<path style="fill:#000" d="M908,644 l5,0 0,264 -5,0 0,-264z" />
<path style="fill:#699;stroke:#000;stroke-width:2" d="M466,28 l66,0 0,6 -66,0 0,-6z" />
<path style="fill:#699;stroke:#000;stroke-width:2" d="M472,103 l56,0 0,-69 -56,0 0,69z" />
<circle style="fill:#e5e5e5;stroke:#000;stroke-width:2" cx="356" cy="869" r="53" />
<path style="fill:#f0f0f0;stroke:#000;stroke-width:2" d="M356,844 l17,6 9,19 -9,20 -17,6 -19,-6 -8,-20 8,-19 19,-6z" />
<path style="fill:#000;stroke:#000;stroke-width:2" d="M356,822 l5,2 0,5 0,4 -5,2 -4,-2 -2,-4 2,-5 4,-2z" />
<path style="fill:#000;stroke:#000;stroke-width:2" d="M335,829 l4,0 2,4 -2,4 -4,2 -5,-2 -1,-4 1,-4 5,0z" />
<path style="fill:#000;stroke:#000;stroke-width:2" d="M320,844 l4,0 2,4 -2,4 -4,2 -4,-2 -3,-4 3,-4 4,0z" />
<path style="fill:#000;stroke:#000;stroke-width:2" d="M313,863 l5,2 2,4 -2,4 -5,3 -2,-3 -2,-4 2,-4 2,-2z" />
<path style="fill:#000;stroke:#000;stroke-width:2" d="M320,884 l4,3 2,4 -2,4 -4,0 -4,0 -3,-4 3,-4 4,-3z" />
<path style="fill:#000;stroke:#000;stroke-width:2" d="M335,899 l4,2 2,5 -2,4 -4,0 -5,0 -1,-4 1,-5 5,-2z" />
<path style="fill:#000;stroke:#000;stroke-width:2" d="M356,904 l5,2 0,4 0,5 -5,1 -4,-1 -2,-5 2,-4 4,-2z" />
<path style="fill:#000;stroke:#000;stroke-width:2" d="M376,899 l4,2 2,5 -2,4 -4,0 -5,0 -2,-4 2,-5 5,-2z" />
<path style="fill:#000;stroke:#000;stroke-width:2" d="M391,884 l4,3 2,4 -2,4 -4,0 -4,0 0,-4 0,-4 4,-3z" />
<path style="fill:#000;stroke:#000;stroke-width:2" d="M397,865 l4,0 3,4 -3,4 -4,3 -4,-3 -2,-4 2,-4 4,0z" />
<path style="fill:#000;stroke:#000;stroke-width:2" d="M391,844 l4,0 2,4 -2,4 -4,2 -4,-2 0,-4 0,-4 4,0z" />
<path style="fill:#000;stroke:#000;stroke-width:2" d="M376,829 l4,0 2,4 -2,4 -4,2 -5,-2 -2,-4 2,-4 5,0z" />

</svg>
