

<svg xmlns:agg="http://www.example.com" xmlns="http://www.w3.org/2000/svg" preserveAspectRatio="none" width="1.5409in" height="1.4792in" viewBox="0 0 999 959">

<path style="fill:#b2b2ad" d="M970,224 l-5,-30 -16,-28 -25,-27 -22,-16 -26,-16 -29,-15 -31,-13 -36,-12 -37,-11 -40,-9 -42,-7 -45,-6 -45,-4 -48,-2 -24,0 -24,0 -48,2 -45,4 -45,6 -42,7 -40,9 -37,11 -36,12 -31,13 -29,15 -26,16 -22,16 -25,27 -16,28 -5,20 0,10 0,628 21,24 25,10 35,10 27,6 30,6 34,5 36,4 39,5 41,3 43,3 45,1 47,2 24,0 24,0 48,0 47,-2 45,-1 43,-3 41,-3 39,-5 36,-4 34,-5 30,-6 27,-6 35,-10 25,-10 21,-19 0,-5 0,-628z" />
<path style="fill:#bfbfba" d="M892,224 l-5,-30 -13,-28 -21,-27 -29,-24 -22,-16 -26,-13 -28,-13 -30,-12 -32,-9 -34,-9 -36,-6 -38,-5 -39,-3 -20,-1 -20,0 -20,0 -40,2 -38,4 -37,6 -35,7 -33,9 -32,11 -29,12 -26,13 -24,15 -22,16 -26,25 -18,27 -11,29 -1,10 -1,10 0,628 18,24 30,14 31,10 37,8 28,5 30,4 32,5 34,3 36,3 38,1 39,2 20,0 20,0 40,0 39,-2 38,-1 36,-3 34,-3 32,-5 30,-4 28,-5 26,-6 33,-9 26,-10 23,-15 7,-11 1,-5 0,-628z" />
<path style="fill:#ccccc7" d="M833,224 l-4,-30 -11,-28 -18,-27 -25,-24 -29,-23 -23,-13 -25,-12 -26,-11 -28,-9 -30,-7 -32,-6 -32,-4 -34,-2 -17,0 -17,0 -34,2 -32,4 -32,6 -30,7 -28,9 -26,11 -25,12 -23,13 -29,23 -25,24 -18,27 -11,28 -3,20 -1,10 0,628 15,24 26,14 26,10 31,8 37,7 26,5 28,3 30,3 32,2 32,2 17,1 17,0 17,0 34,0 33,-2 32,-1 31,-3 29,-3 27,-5 38,-6 33,-9 28,-9 28,-14 19,-18 1,-4 1,-5 0,-628z" />
<path style="fill:#d9d9d4" d="M793,224 l-3,-30 -10,-28 -16,-27 -21,-24 -26,-23 -31,-19 -23,-12 -24,-9 -26,-9 -27,-6 -28,-5 -29,-3 -15,-1 -15,0 -15,0 -30,2 -29,4 -27,6 -27,7 -24,9 -24,11 -32,19 -28,21 -23,24 -17,26 -12,28 -6,29 0,10 0,628 13,24 22,14 23,10 28,8 32,7 36,7 39,4 27,2 29,2 15,1 15,0 15,0 30,0 29,-2 28,-1 27,-3 38,-5 35,-7 31,-8 26,-9 27,-13 20,-19 3,-7 0,-5 0,-628z" />
<path style="fill:#e5e5e0" d="M695,224 l-4,-39 -11,-37 -18,-33 -24,-29 -29,-25 -34,-18 -36,-11 -20,-3 -20,-1 -20,1 -38,8 -35,15 -32,21 -26,26 -21,32 -16,35 -7,38 -1,20 0,628 15,31 30,19 26,11 32,9 35,6 38,3 20,0 20,0 38,-3 35,-6 32,-9 26,-11 30,-19 14,-22 1,-9 0,-628z" />
<path style="fill:#f2f2ed" d="M578,224 l-2,-39 -5,-37 -7,-33 -9,-29 -12,-25 -21,-24 -15,-8 -8,-1 -8,1 -22,14 -20,30 -11,26 -8,32 -6,35 -3,38 -1,20 0,628 7,31 16,25 26,17 22,6 8,0 8,0 29,-9 24,-20 14,-26 3,-15 1,-9 0,-628z" />
<path style="fill:none;stroke:#000;stroke-width:2" d="M970,224 l-5,-30 -16,-28 -25,-27 -22,-16 -26,-16 -29,-15 -31,-13 -36,-12 -37,-11 -40,-9 -42,-7 -45,-6 -45,-4 -48,-2 -24,0 -24,0 -48,2 -45,4 -45,6 -42,7 -40,9 -37,11 -36,12 -31,13 -29,15 -26,16 -22,16 -25,27 -16,28 -5,20 0,10 0,628 21,24 25,10 35,10 27,6 30,6 34,5 36,4 39,5 41,3 43,3 45,1 47,2 24,0 24,0 48,0 47,-2 45,-1 43,-3 41,-3 39,-5 36,-4 34,-5 30,-6 27,-6 35,-10 25,-10 21,-19 0,-5 0,-628" />
<path style="fill:none;stroke:#7f7f7f;stroke-width:2" d="M970,224 l0,2 -28,12 -29,5 -37,5 -29,3 -31,2 -36,3 -37,2 -40,2 -42,1 -45,1 -45,1 -48,0 -63,0" />
<path style="fill:#d9d9d4" d="M460,116 l0,147 -237,-7 1,-140 236,0z" />
<path style="fill:none;stroke:#7f7f7f;stroke-width:2" d="M970,342 l0,2 -28,11 -29,6 -37,4 -29,3 -31,3 -36,2 -37,3 -40,1 -42,2 -45,1 -45,1 -24,0 -24,0 -24,0 -48,0 -47,-1 -45,-1 -43,-1 -41,-2 -39,-1 -36,-3 -34,-2 -30,-3 -27,-3 -35,-5 -31,-7 -15,-8 0,-2" />
<path style="fill:none;stroke:#7f7f7f;stroke-width:2" d="M221,256 l-22,-1 -21,-2 -19,-2 -19,-1 -17,-2 -16,-2 -14,-2 -13,-2 -12,-2 -11,-2 -8,-2 -8,-3 -6,-2 -4,-2 -2,-3 -1,-2" />
<path style="fill:#e5e5e0" d="M460,116 l0,147 -158,-4 0,-143 158,0z" />
<path style="fill:#f2f2ed" d="M460,116 l0,147 -39,-1 0,-146 39,0z" />
<path style="fill:none;stroke:#7f7f7f;stroke-width:2" d="M224,116 l-3,140" />
<path style="fill:#ccccc7;stroke:#7f7f7f;stroke-width:2" d="M460,116 l44,-54 -5,25 -39,176 0,-147z" />
<path style="fill:#f2f2ed;stroke:#7f7f7f;stroke-width:2" d="M460,116 l44,-54 -24,0 -256,54 236,0z" />
<path style="fill:#666;stroke:#000;stroke-width:2" d="M254,136 l117,0 0,15 -117,0 0,-15z" />

</svg>
