

<svg xmlns:agg="http://www.example.com" xmlns="http://www.w3.org/2000/svg" preserveAspectRatio="none" width="1.1813in" height="1.4792in" viewBox="0 0 797 998">

<path style="fill:#033;stroke:#000;stroke-width:2" d="M631,659 l28,0 0,302 -28,0 0,-302z" />
<path style="fill:#033;stroke:#000;stroke-width:2" d="M473,659 l30,0 0,291 -30,0 0,-291z" />
<path style="fill:#033;stroke:#000;stroke-width:2" d="M186,659 l30,0 0,291 -30,0 0,-291z" />
<path style="fill:#033;stroke:#000;stroke-width:2" d="M28,659 l30,0 0,302 -30,0 0,-302z" />
<path style="fill:#033;stroke:#000;stroke-width:2" d="M659,872 l-156,-21 -317,0 -158,21 0,19 158,-15 317,0 156,15 0,-19z" />
<path style="fill:#366" d="M39,665 l9,0 0,290 -9,0 0,-290z" />
<path style="fill:#366" d="M640,665 l10,0 0,290 -10,0 0,-290z" />
<path style="fill:#366" d="M659,659 l-30,13 -58,10 -82,7 -95,4 -100,0 -95,-4 -81,-7 -58,-10 -32,-13 0,-503 32,-25 58,-20 81,-16 95,-9 100,0 95,9 82,16 58,20 30,25 0,503z" />
<path style="fill:#3b6e6e" d="M640,665 l-158,24 -88,4 -95,0 -89,-4 -158,-24 0,-511 30,-24 53,-19 75,-16 89,-7 95,0 88,7 75,16 55,19 28,24 0,511z" />
<path style="fill:#427575" d="M618,674 l-147,15 -81,4 -87,0 -81,-4 -147,-15 0,-520 26,-24 51,-19 70,-16 81,-7 87,0 81,7 69,16 51,19 27,24 0,520z" />
<path style="fill:#4a7d7d" d="M597,676 l-136,13 -75,4 -79,0 -76,-4 -134,-13 -2,-522 25,-24 47,-19 64,-16 76,-7 79,0 75,7 64,16 46,19 26,24 0,522z" />
<path style="fill:#528585" d="M574,680 l-122,9 -70,4 -72,0 -69,-4 -123,-9 0,-526 23,-24 43,-19 57,-16 69,-7 72,0 70,7 57,16 43,19 22,24 0,526z" />
<path style="fill:#598c8c" d="M552,680 l-111,9 -63,4 -64,0 -62,-4 -111,-9 0,-526 21,-24 37,-19 53,-16 62,-7 64,0 63,7 52,16 40,19 19,24 0,526z" />
<path style="fill:#619494" d="M531,686 l-100,3 -57,4 -58,0 -55,-4 -98,-3 0,-532 18,-24 33,-19 47,-16 57,-7 56,0 57,7 47,16 34,19 19,24 0,532z" />
<path style="fill:#6b9e9e" d="M509,687 l-89,2 -47,4 -53,0 -47,-4 -89,-2 0,-533 17,-24 30,-19 42,-16 47,-7 53,0 47,7 43,16 28,19 18,24 0,533z" />
<path style="fill:#73a6a6" d="M486,689 l-117,4 -45,0 -117,-4 0,-535 13,-24 26,-19 36,-16 42,-7 45,0 41,7 36,16 27,19 13,24 0,535z" />
<path style="fill:#7aadad" d="M465,689 l-100,4 -38,0 -97,-4 0,-535 11,-24 20,-19 31,-16 35,-7 38,0 36,7 30,16 21,19 13,24 0,535z" />
<path style="fill:#82b5b5" d="M442,691 l-81,2 -30,0 -81,-2 0,-537 9,-24 19,-19 25,-16 28,-7 30,0 29,7 24,16 19,19 9,24 0,537z" />
<path style="fill:#8abdbd" d="M420,691 l-62,2 -23,0 -62,-2 0,-537 7,-24 14,-19 18,-16 23,-7 23,0 22,7 19,16 13,19 8,24 0,537z" />
<path style="fill:#91c4c4" d="M399,689 l-45,4 -15,0 -44,-4 0,-535 4,-24 10,-19 13,-16 17,-7 15,0 17,7 13,16 10,19 5,24 0,535z" />
<path style="fill:#9cc" d="M374,691 l-26,2 -9,0 -25,-2 0,-522 4,-24 6,-21 7,-15 8,-8 9,0 10,8 7,15 6,21 3,24 0,522z" />
<path style="fill:none;stroke:#000;stroke-width:2" d="M659,659 l-30,13 -58,10 -82,7 -95,4 -100,0 -95,-4 -81,-7 -58,-10 -32,-13 0,-503 32,-25 58,-20 81,-16 95,-9 100,0 95,9 82,16 58,20 30,25 0,503" />
<path style="fill:none;stroke:#366;stroke-width:2" d="M659,173 l-30,11 -58,10 -82,7 -95,4 -100,0 -95,-4 -81,-7 -58,-10 -32,-11" />
<path style="fill:#366;stroke:#000;stroke-width:2" d="M463,150 l-19,15 -32,12 -45,5 -47,0 -43,-5 -32,-12 -19,-15 0,19 19,15 32,10 43,7 47,0 45,-7 32,-10 19,-15 0,-19z" />
<ellipse style="fill:#699;stroke:#000;stroke-width:2" cx="344" cy="143" rx="118" ry="42" />
<path style="fill:#366;stroke:#000;stroke-width:2" d="M128,684 l28,0 0,286 -28,0 0,-286z" />
<path style="fill:#366;stroke:#000;stroke-width:2" d="M531,684 l30,0 0,286 -30,0 0,-286z" />
<path style="fill:#699" d="M540,693 l12,0 0,268 -12,0 0,-268z" />
<path style="fill:#699" d="M137,693 l9,0 0,268 -9,0 0,-268z" />
<path style="fill:#366;stroke:#000;stroke-width:2" d="M28,891 l79,21 475,0 77,-21 0,-19 -77,13 -475,0 -79,-13 0,19z" />
<path style="fill:#033" d="M314,28 l60,0 0,64 -60,0 0,-64z" />
<path style="fill:#1f5252" d="M320,28 l49,0 0,58 -49,0 0,-58z" />
<path style="fill:#3d7070" d="M324,28 l41,0 0,58 -41,0 0,-58z" />
<path style="fill:#5c8f8f" d="M329,28 l30,0 0,58 -30,0 0,-58z" />
<path style="fill:#7aadad" d="M335,28 l19,0 0,58 -19,0 0,-58z" />
<path style="fill:#9cc" d="M339,28 l11,0 0,58 -11,0 0,-58z" />
<path style="fill:none;stroke:#000;stroke-width:2" d="M314,28 l60,0 0,58 -60,0 0,-58" />
<path style="fill:#7f7f7f;stroke:#000;stroke-width:2" d="M748,946 l0,-552 -128,-223 18,-9 130,226 0,558 -20,0z" />
<path style="fill:#7f7f7f" d="M701,456 l56,-15 4,9 -59,15 -1,-9z" />
<path style="fill:#7f7f7f" d="M701,576 l56,-15 4,10 -59,15 -1,-10z" />
<path style="fill:#7f7f7f" d="M701,689 l56,-15 4,10 -59,15 -1,-10z" />
<path style="fill:#7f7f7f" d="M701,802 l56,-15 4,10 -59,15 -1,-10z" />
<path style="fill:#b2b2b2" d="M701,802 l56,-15 -2,-9 -58,15 4,9z" />
<path style="fill:#b2b2b2" d="M701,456 l56,-15 -2,-12 -58,15 4,12z" />
<path style="fill:#b2b2b2" d="M701,576 l56,-15 -2,-9 -58,15 4,9z" />
<path style="fill:#b2b2b2" d="M701,689 l56,-15 -2,-9 -58,15 4,9z" />
<path style="fill:#7f7f7f;stroke:#000;stroke-width:2" d="M689,970 l0,-552 -128,-223 17,-9 132,226 0,558 -21,0z" />

</svg>
