 

<svg xmlns:agg="http://www.example.com" xmlns="http://www.w3.org/2000/svg" preserveAspectRatio="none" width="1.6083in" height="0.7486in" viewBox="0 0 999 465">

<path style="fill:#e0e0e0;stroke:#000;stroke-width:2" d="M102,165 l7,2 58,12 68,9 81,8 88,4 95,2 93,-2 90,-4 79,-8 70,-9 58,-12 7,-2 2,2 0,168 -9,13 -23,12 -37,12 -48,11 -60,8 -68,6 -75,4 -160,0 -75,-4 -66,-6 -60,-8 -48,-11 -37,-12 -23,-12 -9,-13 0,-168 2,-2z" />
<path style="fill:#e0e0e0;stroke:#000;stroke-width:2" d="M898,333 l0,2 -9,13 -23,12 -37,12 -48,11 -60,8 -66,6 -75,4 -162,0 -75,-4 -66,-6 -60,-8 -48,-11 -37,-12 -23,-12 -9,-13 0,-2 -2,0 -25,15 -10,14 10,14 25,15 40,13 54,10 64,10 75,7 81,4 87,2 87,-2 81,-4 75,-7 64,-10 52,-10 42,-13 25,-15 8,-14 -8,-14 -25,-15 -2,0z" />
<path style="fill:#7f7f7f;stroke:#000;stroke-width:2" d="M964,115 l-4,8 -27,17 -44,12 -58,13 -70,10 -79,6 -90,5 -93,2 -95,-2 -88,-5 -81,-6 -68,-10 -58,-13 -44,-12 -27,-17 -6,-8 -4,8 10,15 27,17 44,12 58,12 68,11 81,6 88,4 95,2 93,-2 90,-4 79,-6 70,-11 58,-12 44,-12 27,-17 10,-15 -6,-8z" />
<ellipse style="fill:#fff;stroke:#000;stroke-width:2" cx="499" cy="108" rx="471" ry="80" />
<path style="fill:#43a143" d="M839,59 l29,6 40,13 25,14 8,15 -330,0 -2,-5 -4,-1 -11,-5 -6,0 251,-37z" />
<path style="fill:#43a143" d="M582,34 l12,0 81,4 73,7 62,10 25,4 -251,35 -6,0 -15,-2 -16,-2 -19,-2 -2,0 56,-54z" />
<path style="fill:#43a143" d="M570,34 l-75,-2 -85,2 -81,4 -48,4 164,48 13,0 16,-2 21,0 16,0 59,-54z" />
<path style="fill:#43a143" d="M86,82 l6,-4 40,-13 52,-10 64,-8 25,-5 164,50 -7,0 -14,2 -10,2 -11,5 -2,0 -307,-19z" />
<path style="fill:#43a143" d="M84,134 l-19,-11 -10,-14 10,-17 19,-8 307,18 -4,3 -2,4 2,2 4,2 -307,21z" />
<path style="fill:#43a143" d="M273,173 l-25,-2 -64,-10 -52,-11 -40,-12 -6,-2 307,-21 2,2 11,2 10,2 14,2 7,0 -164,50z" />
<path style="fill:#43a143" d="M445,125 l-164,48 48,4 81,4 85,3 75,-3 -59,-54 -16,0 -21,0 -16,-2 -13,0z" />
<path style="fill:#43a143" d="M526,127 l56,54 12,0 81,-4 73,-6 62,-8 25,-6 -251,-36 -6,0 -15,2 -16,2 -19,2 -2,0z" />
<path style="fill:#43a143" d="M588,119 l251,38 29,-7 40,-12 25,-15 8,-14 -330,0 -2,4 -6,2 -9,4 -6,0z" />
<path style="fill:#b2b2b2" d="M702,393 l0,-122 -155,-69 45,-2 90,-4 79,-8 70,-9 58,-12 7,-2 2,2 0,168 -9,13 -23,12 -37,12 -48,11 -60,8 -19,2z" />
<path style="fill:#b2b2b2" d="M696,393 l21,33 25,-2 64,-10 52,-10 42,-13 25,-15 8,-14 -8,-14 -25,-15 -2,0 0,2 -9,13 -23,12 -37,12 -48,11 -60,8 -25,2z" />
<path style="fill:none;stroke:#000;stroke-width:2" d="M898,333 l0,2 -9,13 -23,12 -37,12 -48,11 -60,8 -66,6 -75,4 -162,0 -75,-4 -66,-6 -60,-8 -48,-11 -37,-12 -23,-12 -9,-13 0,-2 -2,0 -25,15 -10,14 10,14 25,15 40,13 54,10 64,10 75,7 81,4 87,2 87,-2 81,-4 75,-7 64,-10 52,-10 42,-13 25,-15 8,-14 -8,-14 -25,-15 -2,0" />
<path style="fill:#b2b2b2;stroke:#000;stroke-width:2" d="M100,308 l0,25 -27,15 27,-40z" />
<path style="fill:#b2b2b2;stroke:#000;stroke-width:2" d="M210,348 l-16,53 16,-18 0,-35z" />
<path style="fill:#b2b2b2;stroke:#000;stroke-width:2" d="M337,362 l-14,56 10,-21 4,-35z" />
<path style="fill:#b2b2b2;stroke:#000;stroke-width:2" d="M476,366 l4,0 0,58 -4,0 0,-58z" />
<path style="fill:#b2b2b2;stroke:#000;stroke-width:2" d="M613,362 l15,56 -11,-21 -4,-35z" />
<path style="fill:#b2b2b2;stroke:#000;stroke-width:2" d="M898,308 l0,25 27,15 -27,-40z" />
<path style="fill:#b2b2b2;stroke:#000;stroke-width:2" d="M777,348 l17,53 -17,-18 0,-35z" />

</svg>
