

<svg xmlns:agg="http://www.example.com" xmlns="http://www.w3.org/2000/svg" preserveAspectRatio="none" width="1.0424in" height="1.4792in" viewBox="0 0 704 999">

<path style="fill:#ccc" d="M28,160 l648,0 0,810 -648,0 0,-810z" />
<path style="fill:#d1d1d1" d="M56,160 l594,0 0,810 -594,0 0,-810z" />
<path style="fill:#d6d6d6" d="M82,160 l539,0 0,810 -539,0 0,-810z" />
<path style="fill:#d9d9d9" d="M111,160 l482,0 0,810 -482,0 0,-810z" />
<path style="fill:#dedede" d="M139,160 l428,0 0,810 -428,0 0,-810z" />
<path style="fill:#e3e3e3" d="M165,160 l374,0 0,810 -374,0 0,-810z" />
<path style="fill:#e8e8e8" d="M194,160 l316,0 0,810 -316,0 0,-810z" />
<path style="fill:#ededed" d="M222,160 l260,0 0,810 -260,0 0,-810z" />
<path style="fill:#f2f2f2" d="M248,160 l208,0 0,810 -208,0 0,-810z" />
<path style="fill:#f5f5f5" d="M277,160 l150,0 0,810 -150,0 0,-810z" />
<path style="fill:#fafafa" d="M305,160 l94,0 0,810 -94,0 0,-810z" />
<path style="fill:#fff" d="M331,160 l42,0 0,810 -42,0 0,-810z" />
<path style="fill:none;stroke:#000;stroke-width:2" d="M28,160 l648,0 0,810 -648,0 0,-810" />
<path style="fill:#ccc" d="M67,889 l62,0 0,81 -62,0 0,-81z" />
<path style="fill:#bfbfbf" d="M67,889 l62,0 -41,21 -21,60 0,-81z" />
<path style="fill:#ccc" d="M575,889 l60,0 0,81 -60,0 0,-81z" />
<path style="fill:#bfbfbf" d="M575,889 l60,0 -40,21 -20,60 0,-81z" />
<path style="fill:#7f7f7f" d="M109,160 l9,0 0,39 -9,0 0,-39z" />
<path style="fill:#7f7f7f" d="M160,160 l9,0 0,39 -9,0 0,-39z" />
<path style="fill:#7f7f7f" d="M535,160 l9,0 0,39 -9,0 0,-39z" />
<path style="fill:#7f7f7f" d="M586,160 l9,0 0,39 -9,0 0,-39z" />
<path style="fill:#ccc" d="M79,160 l0,-12 18,-20 36,-19 51,-15 62,-10 70,-5 72,0 70,5 62,10 51,15 35,19 19,20 0,12 -546,0z" />
<path style="fill:#d1d1d1" d="M111,160 l0,-12 17,-20 32,-19 45,-15 55,-10 60,-5 64,0 60,5 57,10 43,15 32,19 17,20 0,12 -482,0z" />
<path style="fill:#d9d9d9" d="M145,160 l0,-12 13,-20 28,-19 38,-15 47,-10 55,-5 54,0 53,5 47,10 38,15 28,19 13,20 0,12 -414,0z" />
<path style="fill:#dedede" d="M177,160 l0,-12 13,-20 22,-19 32,-15 40,-10 45,-5 46,0 45,5 39,10 33,15 22,19 13,20 0,12 -350,0z" />
<path style="fill:#e5e5e5" d="M211,160 l0,-12 9,-20 19,-19 26,-15 32,-10 36,-5 38,0 35,5 33,10 26,15 19,19 9,20 0,12 -282,0z" />
<path style="fill:#ebebeb" d="M243,160 l0,-12 7,-20 15,-19 21,-15 24,-10 29,-5 28,0 26,5 27,10 19,15 15,19 7,20 0,12 -218,0z" />
<path style="fill:#f2f2f2" d="M277,160 l0,-12 5,-20 10,-19 13,-15 17,-10 21,-5 18,0 21,5 17,10 13,15 11,19 4,20 0,12 -150,0z" />
<path style="fill:#f7f7f7" d="M309,160 l0,-12 3,-20 6,-19 8,-15 9,-10 11,-5 12,0 11,5 9,10 8,15 6,19 3,20 0,12 -86,0z" />
<path style="fill:#fff" d="M343,160 l0,-12 0,-20 1,-19 2,-15 2,-10 2,-5 4,0 2,5 2,10 2,15 1,19 0,20 0,12 -18,0z" />
<path style="fill:none;stroke:#000;stroke-width:2" d="M79,160 l0,-12 18,-20 36,-19 51,-15 62,-10 70,-5 72,0 70,5 62,10 51,15 35,19 19,20 0,12 -546,0" />
<path style="fill:#e5e5e5;stroke:#000;stroke-width:2" d="M261,58 l182,0 11,102 -204,0 11,-102z" />
<path style="fill:#e5e5e5;stroke:#000;stroke-width:2" d="M271,48 l162,0 0,10 -162,0 0,-10z" />
<path style="fill:#e5e5e5;stroke:#000;stroke-width:2" d="M292,48 l120,0 0,-11 -120,0 0,11z" />
<path style="fill:#4c4c4c;stroke:#000;stroke-width:2" d="M343,28 l18,0 31,9 -82,0 33,-9z" />

</svg>
