

<svg xmlns:agg="http://www.example.com" xmlns="http://www.w3.org/2000/svg" preserveAspectRatio="none" width="0.9195in" height="1.4792in" viewBox="0 0 621 999">

<path style="fill:#699;stroke:#000;stroke-width:2" d="M304,73 l139,0 -1,10 -2,9 -4,9 -5,8 -5,8 -7,8 -8,7 -9,7 -10,6 -11,5 -11,5 -12,4 -13,3 -13,2 -14,2 -14,0 -14,0 -14,-2 -13,-2 -13,-3 -12,-4 -11,-5 -11,-5 -10,-6 -9,-7 -8,-7 -7,-8 -5,-8 -5,-8 -3,-9 -2,-9 -1,-10 138,0z" />
<path style="fill:#000;stroke:#000;stroke-width:2" d="M395,918 l138,0 0,52 -138,0 0,-52z" />
<path style="fill:#000;stroke:#000;stroke-width:2" d="M74,918 l138,0 0,52 -138,0 0,-52z" />
<path style="fill:#699" d="M74,38 l47,0 0,167 -47,0 0,-167z" />
<path style="fill:#8fc2c2" d="M80,38 l34,0 0,167 -34,0 0,-167z" />
<path style="fill:#cff" d="M90,38 l16,0 0,167 -16,0 0,-167z" />
<path style="fill:none;stroke:#000;stroke-width:2" d="M74,38 l47,0 0,167 -47,0 0,-167" />
<path style="fill:#699" d="M488,38 l45,0 0,167 -45,0 0,-167z" />
<path style="fill:#8fc2c2" d="M494,38 l34,0 0,167 -34,0 0,-167z" />
<path style="fill:#cff" d="M504,38 l13,0 0,167 -13,0 0,-167z" />
<path style="fill:none;stroke:#000;stroke-width:2" d="M488,38 l45,0 0,167 -45,0 0,-167" />
<path style="fill:#699" d="M580,911 l-2,3 -26,12 -28,6 -26,3 -30,3 -33,3 -37,1 -39,2 -14,0 -13,0 -14,0 -42,0 -41,-1 -38,-1 -36,-2 -32,-3 -29,-3 -32,-5 -28,-8 -11,-7 -1,-1 0,-2 0,-706 12,-26 21,-15 30,-14 27,-9 32,-7 34,-7 38,-4 40,-3 14,-1 13,0 15,0 28,0 27,1 39,4 37,5 33,7 30,8 26,9 28,15 22,20 5,12 1,5 0,706z" />
<path style="fill:#7aadad" d="M536,911 l-23,15 -30,7 -32,4 -27,3 -30,2 -33,1 -22,1 -12,0 -12,0 -35,0 -34,-1 -32,-1 -30,-2 -28,-3 -31,-4 -30,-7 -23,-13 0,-2 0,-22 0,-684 10,-26 23,-19 27,-13 24,-8 28,-8 30,-5 32,-5 34,-2 12,0 12,0 35,1 33,3 32,4 29,7 26,7 30,12 24,15 18,20 4,12 1,5 0,21 0,685z" />
<path style="fill:#8fc2c2" d="M491,911 l-1,3 -21,14 -33,7 -27,4 -32,3 -35,2 -19,0 -19,0 -38,0 -35,-2 -31,-3 -28,-4 -33,-7 -22,-14 -1,-3 0,-22 1,-37 0,-32 0,-28 1,-38 0,-37 0,-109 0,-43 0,-51 -1,-29 0,-31 0,-34 0,-37 0,-40 -1,-42 0,-46 0,-50 9,-26 24,-22 23,-13 28,-10 31,-8 35,-6 19,-1 19,0 19,0 37,4 33,6 30,10 26,11 28,21 13,25 1,9 0,21 0,685z" />
<path style="fill:#a3d6d6" d="M444,911 l0,3 -24,16 -27,7 -34,5 -27,2 -14,0 -14,0 -29,0 -39,-3 -32,-6 -24,-7 -16,-14 -1,-3 0,-22 0,-684 6,-26 18,-22 27,-18 35,-13 26,-6 14,-1 15,0 14,0 27,4 26,6 32,15 25,20 13,24 3,8 0,9 0,21 0,685z" />
<path style="fill:#b8ebeb" d="M400,911 l-16,19 -26,9 -35,5 -9,0 -10,0 -29,-1 -32,-6 -24,-9 -11,-14 -1,-3 0,-22 0,-684 8,-34 15,-21 20,-16 25,-11 19,-4 10,0 10,0 28,7 24,13 23,25 9,24 2,8 0,9 0,21 0,685z" />
<path style="fill:#cff" d="M356,911 l-15,24 -27,9 -10,0 -29,-5 -22,-21 -1,-7 0,-706 4,-34 11,-27 21,-21 16,-4 24,10 16,21 9,29 3,26 0,706z" />
<path style="fill:none;stroke:#000;stroke-width:2" d="M580,911 l-2,3 -26,12 -28,6 -26,3 -30,3 -33,3 -37,1 -39,2 -14,0 -13,0 -14,0 -42,0 -41,-1 -38,-1 -36,-2 -32,-3 -29,-3 -32,-5 -28,-8 -11,-7 -1,-1 0,-2 0,-706 12,-26 21,-15 30,-14 27,-9 32,-7 34,-7 38,-4 40,-3 14,-1 13,0 15,0 28,0 27,1 39,4 37,5 33,7 30,8 26,9 28,15 22,20 5,12 1,5 0,706" />
<path style="fill:none;stroke:#000;stroke-width:2" d="M28,205 l552,0 0,33 -552,0 0,-33" />
<ellipse style="fill:#b2e5e5" cx="304" cy="73" rx="138" ry="45" />
<ellipse style="fill:#9cc" cx="303" cy="83" rx="114" ry="35" />
<ellipse style="fill:#7fb2b2" cx="305" cy="95" rx="93" ry="23" />
<ellipse style="fill:none;stroke:#000;stroke-width:2" cx="304" cy="73" rx="138" ry="45" />
<path style="fill:#366;stroke:#000;stroke-width:2" d="M468,822 l104,0 0,99 -104,0 0,-99z" />
<path style="fill:#000;stroke:#7f7f7f;stroke-width:2" d="M450,921 l143,0 0,13 -143,0 0,-13z" />
<path style="fill:#699;stroke:#000;stroke-width:2" d="M572,788 l0,34 -104,0 0,-13 52,-8 52,-13z" />

</svg>
