

<svg xmlns:agg="http://www.example.com" xmlns="http://www.w3.org/2000/svg" preserveAspectRatio="none" width="1.2280in" height="1.4792in" viewBox="0 0 352 424">

<path style="fill:#7f7f7f;stroke:#000;stroke-width:2" d="M340,294 l0,-255 -1,-3 -12,-8 -15,-4 -20,-4 -12,-2 -13,-1 -13,-2 -14,-1 -15,-1 -16,0 -16,-1 -17,0 -17,0 -16,1 -16,0 -15,1 -14,1 -13,2 -13,1 -12,2 -20,4 -15,4 -10,6 -2,2 -1,3 0,255 1,3 12,8 15,4 20,4 12,2 13,1 13,2 14,1 15,1 16,0 16,1 17,0 17,0 16,-1 16,0 15,-1 14,-1 13,-2 13,-1 12,-2 20,-4 15,-4 10,-6 2,-2 1,-3z" />
<path style="fill:#7f7f7f;stroke:#000;stroke-width:2" d="M340,298 l0,-2 0,-2 -1,3 -12,8 -15,4 -20,4 -12,2 -13,1 -13,2 -14,1 -15,1 -16,0 -16,1 -34,0 -16,-1 -16,0 -15,-1 -14,-1 -13,-2 -13,-1 -12,-2 -20,-4 -15,-4 -10,-6 -2,-2 -1,-3 0,2 0,2 2,12 3,12 5,11 6,11 7,10 8,9 10,9 10,8 12,7 12,6 13,6 14,4 15,4 15,3 16,1 16,1 16,-1 16,-1 15,-3 14,-4 14,-4 13,-6 13,-6 11,-8 11,-8 10,-8 8,-10 7,-10 6,-10 5,-11 3,-12 2,-12z" />
<path style="fill:#999" d="M312,294 l0,-255 -3,-5 -8,-6 -12,-4 -17,-4 -20,-3 -23,-3 -26,-1 -27,-1 -27,1 -26,1 -23,3 -21,3 -16,4 -13,4 -8,6 -3,5 0,255 3,5 8,6 13,4 16,4 21,3 23,3 26,1 27,1 27,-1 26,-1 23,-3 20,-3 17,-4 12,-4 8,-6 3,-5z" />
<path style="fill:#999" d="M312,298 l0,-2 0,-2 -3,5 -8,6 -12,4 -17,4 -20,3 -23,3 -26,1 -27,1 -27,-1 -26,-1 -23,-3 -21,-3 -16,-4 -13,-4 -8,-6 -3,-5 0,4 4,24 9,22 13,19 17,17 20,13 23,10 25,7 26,2 26,-2 25,-7 23,-10 20,-14 17,-16 13,-20 8,-21 4,-24z" />
<path style="fill:#b2b2b2" d="M267,294 l0,-255 -7,-11 -9,-4 -11,-4 -13,-3 -16,-3 -17,-1 -18,-1 -18,1 -17,1 -16,3 -13,3 -11,4 -9,4 -7,11 0,255 7,11 9,4 11,4 13,3 16,3 17,1 18,1 18,-1 17,-1 16,-3 13,-3 11,-4 9,-4 7,-11z" />
<path style="fill:#b2b2b2" d="M267,298 l0,-2 0,-2 -7,11 -9,4 -11,4 -13,3 -16,3 -17,1 -18,1 -18,-1 -17,-1 -16,-3 -13,-3 -11,-4 -9,-4 -7,-11 0,4 3,24 6,22 8,19 12,17 13,13 15,10 16,7 18,2 18,-2 16,-7 15,-10 13,-14 12,-16 8,-20 6,-21 3,-24z" />
<path style="fill:#ccc" d="M221,294 l0,-255 -4,-11 -9,-8 -14,-6 -18,-2 -18,2 -14,6 -10,8 -4,11 0,255 4,11 10,8 14,6 18,2 18,-2 14,-6 9,-8 4,-11z" />
<path style="fill:#ccc" d="M221,298 l0,-2 0,-2 -1,5 -3,6 -4,4 -5,4 -7,3 -7,3 -9,1 -9,1 -9,-1 -9,-1 -8,-3 -6,-3 -6,-4 -4,-4 -3,-6 -1,-5 0,4 2,24 3,22 4,19 6,17 6,13 8,10 8,7 9,2 9,-2 8,-7 8,-10 6,-14 6,-16 4,-20 3,-21 1,-24z" />
<ellipse style="fill:none;stroke:#000;stroke-width:2" cx="176" cy="39" rx="164" ry="27" />
<path style="fill:none;stroke:#000;stroke-width:2" d="M340,294 l-1,3 -12,8 -15,4 -20,4 -12,2 -13,1 -13,2 -14,1 -15,1 -16,0 -16,1 -34,0 -16,-1 -16,0 -15,-1 -14,-1 -13,-2 -13,-1 -12,-2 -20,-4 -15,-4 -10,-6 -2,-2 -1,-3" />
<ellipse style="fill:#7f7f7f;stroke:#000;stroke-width:2" cx="176" cy="39" rx="164" ry="27" />
<path style="fill:#7f7f7f;stroke:#000;stroke-width:2" d="M261,289 l11,-2 9,-6 6,-9 2,-11 -2,-11 -6,-8 -9,-6 -11,-2 -82,27 82,28z" />
<path style="fill:#999" d="M261,285 l11,-2 9,-5 6,-8 2,-9 -2,-9 -6,-7 -9,-5 -11,-2 -82,23 82,24z" />
<path style="fill:#b2b2b2" d="M261,275 l11,-1 9,-3 6,-4 2,-6 -2,-5 -6,-4 -9,-3 -11,-1 -82,13 82,14z" />
<path style="fill:#7f7f7f;stroke:#000;stroke-width:2" d="M96,289 l-11,-2 -9,-6 -6,-9 -2,-11 2,-11 6,-8 9,-6 11,-2 83,27 -83,28z" />
<path style="fill:#999" d="M96,285 l-11,-2 -9,-5 -6,-8 -2,-9 2,-9 6,-7 9,-5 11,-2 83,23 -83,24z" />
<path style="fill:#b2b2b2" d="M96,275 l-11,-1 -9,-3 -6,-4 -2,-6 2,-5 6,-4 9,-3 11,-1 83,13 -83,14z" />
<path style="fill:#7f7f7f;stroke:#000;stroke-width:2" d="M191,248 l0,-180 -25,0 0,180 -2,3 -2,3 -1,3 -1,4 1,8 4,6 6,4 8,1 7,-1 6,-4 4,-6 1,-8 0,-4 -1,-3 -2,-3 -3,-3z" />
<path style="fill:#999" d="M189,247 l0,-176 -21,0 0,176 -2,3 -2,3 -1,3 0,3 1,6 4,5 5,4 6,1 6,-1 5,-4 4,-5 1,-6 0,-3 -1,-3 -2,-3 -3,-3z" />
<path style="fill:#b2b2b2" d="M187,247 l0,-174 -17,0 0,174 -1,2 -2,2 -1,2 0,3 1,5 3,4 4,2 5,1 5,-1 4,-2 2,-4 1,-5 0,-3 -1,-2 -1,-2 -2,-2z" />

</svg>
