 

<svg xmlns:agg="http://www.example.com" xmlns="http://www.w3.org/2000/svg" preserveAspectRatio="none" width="1.6083in" height="0.9756in" viewBox="0 0 999 606">

<path style="fill:#7f7f7f" d="M499,578 l-91,-2 -89,-4 -81,-8 -73,-9 -58,-12 -43,-14 -27,-15 -9,-15 0,-393 942,0 0,393 -8,15 -27,15 -43,14 -59,12 -71,9 -83,8 -88,4 -92,2z" />
<path style="fill:#878787" d="M499,577 l-309,-21 -127,-30 0,-420 873,0 0,420 -128,30 -309,21z" />
<path style="fill:#8f8f8f" d="M499,577 l-284,-15 -117,-26 0,-430 803,0 0,430 -117,26 -285,15z" />
<path style="fill:#969696" d="M499,577 l-259,-16 -108,-16 0,-439 734,0 0,439 -107,16 -260,16z" />
<path style="fill:#9e9e9e" d="M499,577 l-235,-11 -97,-13 0,-447 665,0 0,447 -97,13 -236,11z" />
<path style="fill:#a6a6a6" d="M499,577 l-210,-11 -87,-9 0,-451 595,0 0,451 -87,9 -211,11z" />
<path style="fill:#adadad" d="M499,577 l-219,-10 -44,-4 0,-457 526,0 0,457 -44,4 -219,10z" />
<path style="fill:#b8b8b8" d="M499,577 l-190,-7 -38,-4 0,-460 456,0 0,460 -38,4 -190,7z" />
<path style="fill:#bfbfbf" d="M499,577 l-193,-8 0,-463 387,0 0,463 -194,8z" />
<path style="fill:#c7c7c7" d="M499,577 l-158,-5 0,-466 317,0 0,466 -159,5z" />
<path style="fill:#cfcfcf" d="M499,577 l-124,-3 0,-468 248,0 0,468 -124,3z" />
<path style="fill:#d6d6d6" d="M499,577 l-89,-2 0,-469 179,0 0,469 -90,2z" />
<path style="fill:#dedede" d="M499,577 l-54,-1 0,-470 109,0 0,470 -55,1z" />
<path style="fill:#e5e5e5" d="M499,578 l-20,-1 0,-471 40,0 -1,471 -19,1z" />
<path style="fill:none;stroke:#000;stroke-width:2" d="M499,578 l-91,-2 -89,-4 -81,-8 -73,-9 -58,-12 -43,-14 -27,-15 -9,-15 0,-393 942,0 0,393 -8,15 -27,15 -43,14 -59,12 -71,9 -83,8 -88,4 -92,2" />
<ellipse style="fill:#e5e5e5;stroke:#000;stroke-width:2" cx="499" cy="106" rx="471" ry="78" />
<path style="fill:#666;stroke:#000;stroke-width:2" d="M932,490 l-43,13 -59,12 -71,10 -81,7 -87,5 -92,1 -90,-1 -89,-5 -80,-7 -72,-10 -58,-12 -43,-13 0,-314 43,13 58,12 72,10 80,7 89,5 90,1 92,-1 87,-5 81,-7 71,-10 59,-12 43,-13 0,314z" />
<path style="fill:#4c4c4c" d="M106,455 l59,-12 71,-9 83,-8 88,-4 92,-2 91,2 89,4 81,8 73,9 58,12 1,44 -216,19 -354,0 -216,-19 0,-44z" />
<path style="fill:#999;stroke:#000;stroke-width:2" d="M110,503 l-43,-13 0,-314 43,13 0,314z" />
<path style="fill:#999;stroke:#000;stroke-width:2" d="M932,490 l-43,13 0,-314 43,-13 0,314z" />
<path style="fill:#ccc;stroke:#000;stroke-width:2" d="M932,490 l-43,13 -59,12 -71,10 -81,7 -87,5 -92,1 -90,-1 -89,-5 -80,-7 -72,-10 -58,-12 -43,-13 43,-21 58,12 72,10 80,7 89,5 90,1 92,-1 87,-5 81,-7 71,-10 59,-12 43,21z" />
<path style="fill:#ccc;stroke:#000;stroke-width:2" d="M858,407 l5,-1 4,1 4,2 3,5 1,4 -1,5 -3,4 -4,2 -4,1 -136,24 -4,-24 135,-23z" />
<path style="fill:#ccc;stroke:#000;stroke-width:2" d="M817,374 l5,-1 4,1 4,3 3,4 1,5 -1,4 -3,4 -4,3 -4,1 -206,37 -4,-24 205,-37z" />
<path style="fill:#ccc;stroke:#000;stroke-width:2" d="M743,340 l5,-1 4,1 4,3 3,4 1,4 -1,5 -3,4 -4,3 -4,1 -259,45 -4,-23 258,-46z" />
<path style="fill:#ccc;stroke:#000;stroke-width:2" d="M562,320 l4,-1 5,1 4,3 3,4 0,5 0,4 -3,4 -4,3 -5,1 -210,41 -4,-24 210,-41z" />
<path style="fill:#ccc;stroke:#000;stroke-width:2" d="M399,311 l5,-1 5,1 4,2 2,4 1,5 -1,5 -2,4 -4,2 -5,1 -181,31 -4,-23 180,-31z" />
<path style="fill:#e5e5e5;stroke:#000;stroke-width:2" d="M233,319 l-9,-2 -17,7 -7,18 7,17 17,7 541,97 9,2 9,-2 8,-5 6,-9 2,-9 -2,-9 -6,-8 -8,-6 -9,-2 -541,-96z" />
<path style="fill:#e5e5e5;stroke:#000;stroke-width:2" d="M220,343 l4,-1 9,3 3,9 -3,9 -9,3 -86,14 -4,1 -9,-3 -4,-9 4,-9 9,-4 86,-13z" />
<path style="fill:#e5e5e5;stroke:#000;stroke-width:2" d="M347,363 l5,-1 8,3 4,9 -4,9 -8,3 -214,39 -5,0 -8,-3 -4,-9 4,-9 8,-3 214,-38z" />
<path style="fill:#e5e5e5;stroke:#000;stroke-width:2" d="M482,387 l5,-1 9,4 3,8 -3,9 -9,4 -271,48 -4,1 -9,-3 -4,-9 4,-9 9,-4 270,-48z" />
<path style="fill:#e5e5e5;stroke:#000;stroke-width:2" d="M612,412 l5,-1 9,3 3,9 -3,9 -9,3 -219,39 -5,0 -8,-3 -4,-9 4,-9 8,-3 219,-38z" />
<path style="fill:#e5e5e5;stroke:#000;stroke-width:2" d="M715,431 l5,-1 9,4 3,8 -3,9 -9,4 -136,23 -4,1 -9,-3 -4,-9 4,-9 9,-4 135,-23z" />
<circle style="fill:#ccc;stroke:#000;stroke-width:2" cx="774" cy="440" r="24" />
<path style="fill:#ccc;stroke:#000;stroke-width:2" d="M592,467 l-3,-9 -9,-3 -9,3 -3,9 3,9 9,3 9,-3 3,-9z" />
<path style="fill:#ccc;stroke:#000;stroke-width:2" d="M405,462 l-3,-9 -9,-3 -8,3 -4,9 4,9 8,3 9,-3 3,-9z" />
<path style="fill:#ccc;stroke:#000;stroke-width:2" d="M224,447 l-4,-8 -8,-3 -9,3 -3,8 3,9 9,4 8,-4 4,-9z" />
<path style="fill:#ccc;stroke:#000;stroke-width:2" d="M145,413 l-3,-9 -9,-3 -8,3 -4,9 4,9 8,3 9,-3 3,-9z" />
<path style="fill:#ccc;stroke:#000;stroke-width:2" d="M146,369 l-4,-9 -9,-3 -8,3 -4,9 4,9 8,3 9,-3 4,-9z" />

</svg>
