 

<svg xmlns:agg="http://www.example.com" xmlns="http://www.w3.org/2000/svg" preserveAspectRatio="none" width="1.6083in" height="0.5796in" viewBox="0 0 999 360">

<path style="fill:#7f7f7f;stroke:#000;stroke-width:2" d="M970,254 l-21,23 -25,11 -35,9 -27,7 -30,5 -34,5 -36,5 -39,4 -41,3 -43,3 -45,2 -47,1 -24,0 -24,0 -48,0 -47,-1 -45,-2 -43,-3 -41,-3 -39,-4 -36,-5 -34,-5 -30,-5 -27,-7 -35,-9 -25,-11 -21,-19 0,-4 0,-157 942,0 0,157z" />
<path style="fill:#878787" d="M53,273 l0,-177 894,1 -1,176 -31,15 -97,22 -151,16 -168,6 -167,-6 -152,-16 -95,-22 -32,-15z" />
<path style="fill:#919191" d="M77,283 l0,-187 845,1 0,186 -121,27 -143,16 -159,6 -158,-6 -143,-16 -121,-27z" />
<path style="fill:#999" d="M102,293 l0,-197 796,1 -1,196 -28,5 -86,12 -134,16 -150,6 -149,-6 -135,-16 -84,-12 -29,-5z" />
<path style="fill:#a1a1a1" d="M126,298 l0,-202 747,1 0,201 -40,10 -194,18 -139,6 -140,-6 -200,-18 -34,-10z" />
<path style="fill:#ababab" d="M151,303 l0,-207 698,1 -1,206 -100,14 -118,9 -130,6 -131,-6 -118,-9 -100,-14z" />
<path style="fill:#b2b2b2" d="M175,308 l0,-211 649,0 -1,211 -202,19 -122,5 -121,-5 -203,-19z" />
<path style="fill:#bababa" d="M210,312 l0,-216 579,1 0,215 -83,10 -206,10 -207,-10 -83,-10z" />
<path style="fill:#c2c2c2" d="M255,317 l0,-221 490,1 -1,220 -70,5 -83,4 -91,6 -92,-6 -83,-4 -70,-5z" />
<path style="fill:#c9c9c9" d="M300,322 l0,-226 400,1 -1,225 -56,5 -143,5 -143,-5 -57,-5z" />
<path style="fill:#cfcfcf" d="M344,327 l0,-231 311,1 0,230 -44,0 -111,5 -111,-5 -45,0z" />
<path style="fill:#d6d6d6" d="M389,327 l0,-231 222,1 0,230 -111,5 -111,-5z" />
<path style="fill:#dedede" d="M434,327 l0,-231 132,1 0,230 -66,5 -66,-5z" />
<path style="fill:#e5e5e5" d="M478,332 l0,-235 43,0 0,235 -21,0 -22,0z" />
<path style="fill:#f7f7ef" d="M499,97 l-455,17 -16,-15 0,-2 0,-4 21,-17 25,-9 35,-9 27,-5 30,-5 34,-5 36,-4 39,-3 41,-3 43,-2 45,-2 47,-1 24,0 24,0 48,0 47,1 45,2 43,2 41,3 39,3 36,4 34,5 30,5 27,5 35,9 25,9 21,17 0,4 0,2 -13,13 -3,2 -455,-17z" />
<ellipse style="fill:#a6bad9" cx="499" cy="111" rx="454" ry="54" />
<ellipse style="fill:none;stroke:#000;stroke-width:2" cx="499" cy="96" rx="471" ry="68" />
<path style="fill:#7387a6" d="M460,124 l78,0 0,41 -78,0 0,-41z" />
<path style="fill:#7387a6" d="M48,116 l372,0 0,-5 -372,0 0,5z" />
<path style="fill:#f7f7ef" d="M48,97 l372,0 0,14 -372,0 0,-14z" />
<path style="fill:#7f7f7f" d="M420,117 l0,-28 158,0 0,28 -6,4 -17,5 -26,2 -30,1 -30,-1 -26,-2 -17,-5 -6,-4z" />
<path style="fill:#919191" d="M429,121 l0,-32 141,1 -1,31 -20,4 -23,3 -27,1 -26,-1 -24,-3 -20,-4z" />
<path style="fill:#a1a1a1" d="M437,123 l0,-34 124,1 0,33 -6,2 -32,3 -24,1 -23,-1 -33,-3 -6,-2z" />
<path style="fill:#b2b2b2" d="M445,125 l0,-35 108,0 0,35 -34,3 -20,1 -20,-1 -34,-3z" />
<path style="fill:#c2c2c2" d="M458,126 l0,-37 82,1 0,36 -12,1 -14,1 -15,1 -15,-1 -14,-1 -12,-1z" />
<path style="fill:#cfcfcf" d="M473,128 l0,-39 52,1 0,38 -7,0 -19,1 -19,-1 -7,0z" />
<path style="fill:#dedede" d="M488,128 l0,-39 22,1 0,38 -11,1 -11,-1z" />
<path style="fill:#e5e5e5" d="M496,129 l0,-39 7,0 0,39 -4,0 -3,0z" />
<ellipse style="fill:#e5e5e5" cx="499" cy="89" rx="79" ry="12" />
<path style="fill:none;stroke:#7f7f7f;stroke-width:2" d="M543,89 l-3,3 -9,2 -15,2 -17,0 -17,0 -15,-2 -9,-2 -3,-3" />

</svg>
