 
<svg version="1.1" xmlns="http://www.w3.org/2000/svg" preserveAspectRatio="none"  xmlns:xlink="http://www.w3.org/1999/xlink" x="0px" y="0px" 
	  viewBox="0 0 204 104" enable-background="new 0 0 204 104" xmlns:agg="http://www.example.com" xml:space="preserve">
	 
<agg:params>
	<agg:param type="C" name="color" description="Color" cssAttributes="fill" classes="color"/>
	<agg:param type="F" name="saturation" description="Saturation" min="0" max="1" cssAttributes="opacity" classes="color"/>
</agg:params>

<style type="text/css" >
   <![CDATA[

	.stroke{
		stroke-width:2px;
		stroke-linecap:round;
		stroke-linejoin:round;
		stroke: black;
		opacity:0.5;
		fill:none;
	}
	
	.color {
		fill:#79A2C9;
	}

      ]]>
</style>

<defs>	 
	<polygon id="boundary" points="201.99,46.438 122.001,24.219 122.001,2 81.998,2 81.998,24.219 2.017,46.438 2,102 201.999,102"/>
</defs>

<use xlink:href="#boundary" class="color"/>

<polygon opacity="0.21" fill="#FFFFFF" points="201.999,102 15.396,102 15.396,46.447 84.677,24.219 84.677,2 122.001,2 122.001,24.219 201.99,46.438"/>
<polygon opacity="0.21" fill="#FFFFFF" points="188.604,46.447 188.604,102 31.287,102 31.287,46.447 87.862,24.219 87.862,2 119.322,2 119.322,24.219"/>
<polygon opacity="0.23" fill="#FFFFFF" points="172.712,46.447 172.712,102 51.998,102 51.998,46.447 92.001,24.219 92.001,2 116.145,2 116.145,24.219"/>
<polygon opacity="0.25" fill="#FFFFFF" points="152.001,46.447 152.001,102 76.118,102 76.118,46.447 96.828,24.219 96.828,2 111.998,2 111.998,24.219"/>
<polygon opacity="0.35" fill="#FFFFFF" points="127.881,46.447 127.881,102 102.003,102 102.003,2 107.179,2 107.179,24.219"/>

<g class="stroke">
	<use xlink:href="#boundary"/>
	<line x1="2.001" y1="46.444" x2="202" y2="46.444"/>
	<line x1="82.682" y1="24.223" x2="121.319" y2="24.223"/>
</g>

</svg>
