

<svg xmlns:agg="http://www.example.com" xmlns="http://www.w3.org/2000/svg" preserveAspectRatio="none" width="2.0104in" height="1.3322in" viewBox="0 0 999 662">

<path style="fill:#366" d="M724,532 l0,-27 27,0 0,-29 29,0 0,-392 -29,0 0,-28 -27,0 0,-28 168,0 0,28 -28,0 0,28 -28,0 0,392 28,0 0,29 28,0 0,27 -168,0z" />
<path style="fill:#366" d="M106,532 l0,-27 28,0 0,-29 28,0 0,-392 -28,0 0,-28 -28,0 0,-28 168,0 0,28 -27,0 0,28 -29,0 0,392 29,0 0,29 27,0 0,27 -168,0z" />
<path style="fill:#194c4c" d="M751,505 l0,-29 29,0 0,-392 -29,0 0,-28 113,0 0,28 -28,0 0,392 28,0 0,29 -113,0z" />
<path style="fill:#194c4c" d="M134,505 l0,-29 28,0 0,-392 -28,0 0,-28 113,0 0,28 -29,0 0,392 29,0 0,29 -113,0z" />
<path style="fill:#033" d="M162,476 l0,-392 56,0 0,392 -56,0z" />
<path style="fill:#033" d="M780,476 l0,-392 56,0 0,392 -56,0z" />
<path style="fill:none;stroke:#000;stroke-width:2" d="M780,476 l56,0" />
<path style="fill:none;stroke:#000;stroke-width:2" d="M864,505 l-113,0" />
<path style="fill:none;stroke:#000;stroke-width:2" d="M751,56 l113,0" />
<path style="fill:none;stroke:#000;stroke-width:2" d="M836,84 l-56,0" />
<path style="fill:none;stroke:#000;stroke-width:2" d="M162,476 l56,0" />
<path style="fill:none;stroke:#000;stroke-width:2" d="M247,505 l-113,0" />
<path style="fill:none;stroke:#000;stroke-width:2" d="M134,56 l113,0" />
<path style="fill:none;stroke:#000;stroke-width:2" d="M218,84 l-56,0" />
<path style="fill:none;stroke:#000;stroke-width:2" d="M724,532 l0,-27 27,0 0,-29 29,0 0,-392 -29,0 0,-28 -27,0 0,-28 168,0 0,28 -28,0 0,28 -28,0 0,392 28,0 0,29 28,0 0,27 -168,0" />
<path style="fill:none;stroke:#000;stroke-width:2" d="M106,532 l0,-27 28,0 0,-29 28,0 0,-392 -28,0 0,-28 -28,0 0,-28 168,0 0,28 -27,0 0,28 -29,0 0,392 29,0 0,29 27,0 0,27 -168,0" />
<path style="fill:#033;stroke:#000;stroke-width:2" d="M218,476 l281,-186 281,186 0,-41 -253,-165 253,-145 0,-41 -281,165 -281,-165 0,41 253,145 -253,165 0,41z" />
<path style="fill:#194c4c;stroke:#000;stroke-width:2" d="M436,287 l28,-18 -28,-17 24,-35 39,25 39,-25 24,35 -28,17 28,18 -24,35 -39,-25 -39,25 -24,-35z" />
<path style="fill:#7fb2b2" d="M768,634 l0,-34 34,0 0,-34 34,0 0,-471 -34,0 0,-34 -34,0 0,-33 202,0 0,33 -33,0 0,34 -34,0 0,471 34,0 0,34 33,0 0,34 -202,0z" />
<path style="fill:#7fb2b2" d="M28,634 l0,-34 33,0 0,-34 34,0 0,-471 -34,0 0,-34 -33,0 0,-33 202,0 0,33 -34,0 0,34 -34,0 0,471 34,0 0,34 34,0 0,34 -202,0z" />
<path style="fill:#699" d="M802,600 l0,-34 34,0 0,-471 -34,0 0,-34 135,0 0,34 -34,0 0,471 34,0 0,34 -135,0z" />
<path style="fill:#699" d="M61,600 l0,-34 34,0 0,-471 -34,0 0,-34 135,0 0,34 -34,0 0,471 34,0 0,34 -135,0z" />
<path style="fill:#4c7f7f" d="M95,566 l0,-471 67,0 0,471 -67,0z" />
<path style="fill:#4c7f7f" d="M836,566 l0,-471 67,0 0,471 -67,0z" />
<path style="fill:none;stroke:#000;stroke-width:2" d="M836,566 l67,0" />
<path style="fill:none;stroke:#000;stroke-width:2" d="M937,600 l-135,0" />
<path style="fill:none;stroke:#000;stroke-width:2" d="M802,61 l135,0" />
<path style="fill:none;stroke:#000;stroke-width:2" d="M903,95 l-67,0" />
<path style="fill:none;stroke:#000;stroke-width:2" d="M95,566 l67,0" />
<path style="fill:none;stroke:#000;stroke-width:2" d="M196,600 l-135,0" />
<path style="fill:none;stroke:#000;stroke-width:2" d="M61,61 l135,0" />
<path style="fill:none;stroke:#000;stroke-width:2" d="M162,95 l-67,0" />
<path style="fill:none;stroke:#000;stroke-width:2" d="M768,634 l0,-34 34,0 0,-34 34,0 0,-471 -34,0 0,-34 -34,0 0,-33 202,0 0,33 -33,0 0,34 -34,0 0,471 34,0 0,34 33,0 0,34 -202,0" />
<path style="fill:none;stroke:#000;stroke-width:2" d="M28,634 l0,-34 33,0 0,-34 34,0 0,-471 -34,0 0,-34 -33,0 0,-33 202,0 0,33 -34,0 0,34 -34,0 0,471 34,0 0,34 34,0 0,34 -202,0" />
<path style="fill:#366;stroke:#000;stroke-width:2" d="M162,566 l337,-223 337,223 0,-49 -303,-199 303,-174 0,-49 -337,198 -337,-198 0,49 303,174 -303,199 0,49z" />
<path style="fill:#699;stroke:#000;stroke-width:2" d="M423,339 l34,-21 -34,-21 29,-42 47,29 46,-29 30,42 -34,21 34,21 -29,42 -47,-30 -46,30 -30,-42z" />

</svg>
