 
<svg version="1.1" id="Layer_1" xmlns="http://www.w3.org/2000/svg" preserveAspectRatio="none"  xmlns:xlink="http://www.w3.org/1999/xlink" x="0px" y="0px"
	   viewBox="-1 -1 102 202" xmlns:agg="http://www.example.com" xml:space="preserve">
	 
<agg:params>
	<agg:param type="C" name="color" description="Color" cssAttributes="fill" classes="color"/>
</agg:params>

<style type="text/css" >
   <![CDATA[

	.stroke{
		stroke-width:2px;
		stroke-linecap:round;
		stroke-linejoin:round;
		stroke: black;
		opacity:0.5;
		fill:none;
	}
	
	.color {
		fill:#79A2C9;
	}

      ]]>
</style>

<defs>
	<path id="boundary" d="M50,0c27.614,0,50,13.498,50,41.111v117.775
	C100,186.502,77.614,200,50,200l0,0c-27.614,0-50-13.498-50-41.113V41.111C0,13.498,22.386,0,50,0L50,0z"/>
</defs>
	 
<use xlink:href="#boundary" class="color" />

<path opacity="0.05" fill="#FFFFFF" d="M45.114,3.813c24.274,0,43.952,12.04,43.952,36.29
	v119.794c0,24.25-19.679,36.291-43.952,36.291l0,0c-24.274,0-43.952-12.041-43.952-36.291V40.102
	C1.162,15.853,20.84,3.813,45.114,3.813L45.114,3.813z"/>
<path opacity="0.09" fill="#FFFFFF" d="M40.229,7.625
	c20.935,0,37.904,10.582,37.904,31.467v121.814c0,20.885-16.971,31.469-37.904,31.469l0,0c-20.934,0-37.904-10.584-37.904-31.469
	V39.092C2.324,18.207,19.294,7.625,40.229,7.625L40.229,7.625z"/>
<path opacity="0.13" fill="#FFFFFF" d="M35.343,11.438
	c17.594,0,31.856,9.125,31.856,26.645v123.833c0,17.521-14.263,26.646-31.856,26.646l0,0c-17.594,0-31.857-9.125-31.857-26.646
	V38.083C3.486,20.562,17.749,11.438,35.343,11.438L35.343,11.438z"/>
<path opacity="0.17" fill="#FFFFFF" d="M30.457,15.25c14.254,0,25.809,7.667,25.809,21.823
	l-0.001,125.853c0,14.156-11.554,21.824-25.808,21.824l0,0c-14.253,0-25.809-7.668-25.809-21.824V37.073
	C4.648,22.917,16.203,15.25,30.457,15.25L30.457,15.25z"/>
<path opacity="0.21" fill="#FFFFFF" d="M25.571,19.063
	c10.914,0,19.761,6.209,19.761,17.001v127.872c0,10.793-8.847,17.002-19.761,17.002l0,0c-10.914,0-19.761-6.209-19.761-17.002
	V36.063C5.81,25.271,14.657,19.063,25.571,19.063L25.571,19.063z"/>
<path opacity="0.25" fill="#FFFFFF" d="M20.685,22.875c7.574,0,13.713,4.751,13.713,12.179
	v129.892c0,7.428-6.14,12.18-13.713,12.18l0,0c-7.574,0-13.713-4.752-13.713-12.18V35.054C6.972,27.626,13.111,22.875,20.685,22.875
	L20.685,22.875z"/>
<path opacity="0.29" fill="#FFFFFF" d="M15.799,26.688c4.233,0,7.666,3.293,7.666,7.356
	v131.911c0,4.063-3.432,7.357-7.666,7.357l0,0c-4.233,0-7.666-3.295-7.666-7.357V34.044C8.134,29.981,11.566,26.688,15.799,26.688
	L15.799,26.688z"/>
	
<use xlink:href="#boundary" class="stroke"/>
</svg>
