

<svg xmlns:agg="http://www.example.com" xmlns="http://www.w3.org/2000/svg" preserveAspectRatio="none" width="1.6781in" height="1.4792in" viewBox="0 0 464 409">

<path style="fill:#666" d="M451,40 l-1,-3 -16,-8 -20,-4 -13,-2 -14,-2 -16,-2 -17,-1 -18,-2 -19,-1 -20,-1 -21,0 -22,-1 -22,0 -22,0 -22,1 -21,0 -20,1 -19,1 -18,2 -17,1 -16,2 -14,2 -13,2 -20,4 -13,6 -3,2 -1,3 55,336 13,8 15,3 20,3 12,1 13,2 13,1 14,0 15,1 16,1 16,0 50,0 16,-1 15,-1 14,0 14,-1 12,-2 12,-1 20,-3 15,-3 12,-6 1,-2 55,-336z" />
<path style="fill:#7f7f7f" d="M396,376 l55,-336 -1,3 -3,3 -13,5 -20,4 -13,3 -14,2 -16,1 -17,2 -18,2 -19,1 -20,1 -21,0 -22,1 -44,0 -22,-1 -21,0 -20,-1 -19,-1 -18,-2 -17,-2 -16,-1 -14,-2 -13,-3 -20,-4 -13,-5 -3,-3 -1,-3 55,336 13,8 15,3 20,3 12,1 12,2 14,1 14,0 15,1 16,1 16,0 50,0 16,-1 15,-1 14,0 14,-1 12,-2 12,-1 20,-3 15,-3 12,-6 1,-2z" />
<path style="fill:#999" d="M374,386 l48,-332 -16,3 -19,3 -21,2 -12,1 -12,1 -13,1 -13,1 -13,0 -14,1 -14,0 -14,1 -58,0 -14,-1 -14,0 -14,-1 -13,0 -13,-1 -13,-1 -12,-1 -22,-2 -21,-3 -17,-3 -8,-1 48,332 12,2 14,2 16,2 18,1 19,1 20,1 21,1 44,0 21,-1 20,-1 19,-1 18,-1 16,-2 14,-2 12,-2z" />
<path style="fill:#b2b2b2" d="M347,390 l39,-330 -16,2 -18,1 -18,2 -20,1 -20,1 -21,0 -21,1 -43,0 -21,-1 -21,0 -20,-1 -19,-1 -19,-2 -17,-1 -15,-2 36,330 12,1 13,2 14,1 15,0 15,1 16,1 65,0 15,-1 16,-1 14,0 14,-1 13,-2 12,-1z" />
<path style="fill:#ccc" d="M314,393 l26,-329 -13,1 -13,0 -13,1 -14,1 -14,0 -14,1 -57,0 -14,-1 -14,0 -14,-1 -14,-1 -13,0 -12,-1 26,329 20,1 20,1 11,1 65,0 21,-1 20,-1 10,-1z" />
<path style="fill:#e5e5e5" d="M273,395 l14,-328 -28,0 -15,1 -35,0 -14,-1 -21,0 14,328 10,1 65,0 10,-1z" />
<path style="fill:#fff" d="M244,396 l-3,0 -3,0 -4,0 -4,0 -3,0 -4,0 -4,0 -3,0 -4,-328 4,0 5,0 4,0 5,0 5,0 5,0 5,0 4,0 -5,328z" />
<ellipse style="fill:none;stroke:#000;stroke-width:2" cx="232" cy="40" rx="219" ry="27" />
<path style="fill:none;stroke:#000;stroke-width:2" d="M451,40 l-1,-3 -16,-8 -20,-4 -13,-2 -14,-2 -16,-2 -17,-1 -18,-2 -19,-1 -20,-1 -21,0 -22,-1 -22,0 -22,0 -22,1 -21,0 -20,1 -19,1 -18,2 -17,1 -16,2 -14,2 -13,2 -20,4 -13,6 -3,2 -1,3 55,336 13,8 15,3 20,3 12,1 13,2 13,1 14,0 15,1 16,1 16,0 50,0 16,-1 15,-1 14,0 14,-1 12,-2 12,-1 20,-3 15,-3 12,-6 1,-2 55,-336" />

</svg>
