

<svg xmlns:agg="http://www.example.com" xmlns="http://www.w3.org/2000/svg" preserveAspectRatio="none" width="2.0104in" height="1.3966in" viewBox="0 0 999 694">

<path style="fill:#000;stroke:#000;stroke-width:2" d="M86,116 l826,0 19,19 39,180 0,82 -39,180 -19,19 -826,0 -19,-19 -39,-180 0,-82 39,-180 19,-19z" />
<path style="fill:#333" d="M391,28 l216,0 0,9 -216,0 0,-9z" />
<path style="fill:#ccc" d="M86,116 l826,0 19,19 39,177 0,79 -39,177 -19,19 -826,0 -19,-19 -39,-177 0,-79 39,-177 19,-19z" />
<path style="fill:#d1d1d1" d="M88,135 l824,0 19,19 39,161 0,72 -39,162 -19,19 -824,0 -21,-19 -39,-162 0,-72 39,-161 21,-19z" />
<path style="fill:#d6d6d6" d="M88,155 l824,0 19,16 39,148 0,64 -39,149 -19,15 -824,0 -21,-15 -39,-149 0,-64 39,-148 21,-16z" />
<path style="fill:#d9d9d9" d="M88,174 l824,0 19,15 39,132 0,60 -39,132 -19,15 -824,0 -21,-15 -39,-132 0,-60 39,-132 21,-15z" />
<path style="fill:#dedede" d="M88,193 l824,0 19,13 39,119 0,53 -39,116 -19,13 -824,0 -21,-13 -39,-116 0,-53 39,-119 21,-13z" />
<path style="fill:#e3e3e3" d="M88,214 l824,0 19,11 39,104 0,45 -39,103 -19,12 -824,0 -21,-12 -39,-103 0,-45 39,-104 21,-11z" />
<path style="fill:#e8e8e8" d="M88,233 l824,0 19,9 39,90 0,38 -39,88 -19,10 -824,0 -21,-10 -39,-88 0,-38 39,-90 21,-9z" />
<path style="fill:#ededed" d="M88,253 l824,0 19,8 39,73 0,34 -39,73 -19,8 -824,0 -21,-8 -39,-73 0,-34 39,-73 21,-8z" />
<path style="fill:#f2f2f2" d="M88,272 l824,0 19,8 39,58 0,26 -39,59 -19,7 -824,0 -21,-7 -39,-59 0,-26 39,-58 21,-8z" />
<path style="fill:#f5f5f5" d="M88,293 l824,0 19,4 39,45 0,19 -39,45 -19,4 -824,0 -21,-4 -39,-45 0,-19 39,-45 21,-4z" />
<path style="fill:#fafafa" d="M88,312 l824,0 19,3 39,31 0,11 -39,30 -19,4 -824,0 -21,-4 -39,-30 0,-11 39,-31 21,-3z" />
<ellipse style="fill:#fff" cx="499" cy="351" rx="471" ry="19" />
<path style="fill:none;stroke:#000;stroke-width:2" d="M86,116 l826,0 19,19 39,177 0,79 -39,177 -19,19 -826,0 -19,-19 -39,-177 0,-79 39,-177 19,-19" />
<path style="fill:#033" d="M107,391 l784,0 0,196 -784,0 0,-196z" />
<path style="fill:#0a3d3d" d="M107,391 l784,0 0,180 -784,0 0,-180z" />
<path style="fill:#124545" d="M107,391 l784,0 0,163 -784,0 0,-163z" />
<path style="fill:#1c4f4f" d="M107,391 l784,0 0,149 -784,0 0,-149z" />
<path style="fill:#265959" d="M107,391 l784,0 0,132 -784,0 0,-132z" />
<path style="fill:#2e6161" d="M107,391 l784,0 0,115 -784,0 0,-115z" />
<path style="fill:#386b6b" d="M107,391 l784,0 0,100 -784,0 0,-100z" />
<path style="fill:#407373" d="M107,391 l784,0 0,83 -784,0 0,-83z" />
<path style="fill:#4a7d7d" d="M107,391 l784,0 0,67 -784,0 0,-67z" />
<path style="fill:#548787" d="M107,391 l784,0 0,50 -784,0 0,-50z" />
<path style="fill:#5c8f8f" d="M107,391 l784,0 0,36 -784,0 0,-36z" />
<path style="fill:#699" d="M107,391 l784,0 0,19 -784,0 0,-19z" />
<path style="fill:#b2e5e5" d="M184,116 l60,0 0,314 -60,0 0,-314z" />
<path style="fill:#abdede" d="M186,116 l58,0 0,269 -58,0 0,-269z" />
<path style="fill:#a6d9d9" d="M186,116 l58,0 0,224 -58,0 0,-224z" />
<path style="fill:#9ed1d1" d="M186,116 l58,0 0,201 -58,0 0,-201z" />
<path style="fill:#96c9c9" d="M186,116 l58,0 0,158 -58,0 0,-158z" />
<path style="fill:#8fc2c2" d="M186,116 l58,0 0,143 -58,0 0,-143z" />
<path style="fill:#8abdbd" d="M186,116 l58,0 0,126 -58,0 0,-126z" />
<path style="fill:#82b5b5" d="M186,116 l58,0 0,109 -58,0 0,-109z" />
<path style="fill:#7aadad" d="M186,116 l58,0 0,92 -58,0 0,-92z" />
<path style="fill:#73a6a6" d="M186,116 l58,0 0,77 -58,0 0,-77z" />
<path style="fill:#6ea1a1" d="M186,116 l58,0 0,60 -58,0 0,-60z" />
<path style="fill:#699" d="M184,116 l60,0 0,45 -60,0 0,-45z" />
<path style="fill:none;stroke:#000;stroke-width:2" d="M184,116 l60,0 0,314 -60,0 0,-314" />
<path style="fill:#699;stroke:#000;stroke-width:2" d="M184,430 l-19,236 98,0 -19,-236 -60,0z" />
<path style="fill:#b2e5e5" d="M754,116 l58,0 0,314 -58,0 0,-314z" />
<path style="fill:#abdede" d="M754,116 l60,0 0,269 -60,0 0,-269z" />
<path style="fill:#a6d9d9" d="M754,116 l60,0 0,224 -60,0 0,-224z" />
<path style="fill:#9ed1d1" d="M754,116 l60,0 0,201 -60,0 0,-201z" />
<path style="fill:#96c9c9" d="M754,116 l60,0 0,158 -60,0 0,-158z" />
<path style="fill:#8fc2c2" d="M754,116 l60,0 0,143 -60,0 0,-143z" />
<path style="fill:#8abdbd" d="M754,116 l60,0 0,126 -60,0 0,-126z" />
<path style="fill:#82b5b5" d="M754,116 l60,0 0,109 -60,0 0,-109z" />
<path style="fill:#7aadad" d="M754,116 l60,0 0,92 -60,0 0,-92z" />
<path style="fill:#73a6a6" d="M754,116 l60,0 0,77 -60,0 0,-77z" />
<path style="fill:#6ea1a1" d="M754,116 l60,0 0,60 -60,0 0,-60z" />
<path style="fill:#699" d="M754,116 l58,0 0,45 -58,0 0,-45z" />
<path style="fill:none;stroke:#000;stroke-width:2" d="M754,116 l58,0 0,314 -58,0 0,-314" />
<path style="fill:#699;stroke:#000;stroke-width:2" d="M754,430 l-19,236 98,0 -21,-236 -58,0z" />
<path style="fill:#ccc" d="M620,33 l0,89 -7,5 -17,8 -23,6 -26,3 -30,2 -32,0 -30,-2 -28,-3 -21,-6 -17,-8 -8,-5 0,-89 239,0z" />
<path style="fill:#d4d4d4" d="M604,33 l0,87 -8,7 -13,8 -19,3 -24,6 -25,0 -28,0 -25,0 -24,-6 -19,-3 -13,-8 -8,-7 0,-87 206,0z" />
<path style="fill:#dedede" d="M585,33 l0,87 -6,7 -11,8 -15,3 -19,6 -23,0 -20,0 -23,0 -19,-6 -15,-3 -11,-8 -6,-7 0,-87 168,0z" />
<path style="fill:#e5e5e5" d="M566,33 l0,87 -4,7 -9,8 -12,3 -15,6 -17,0 -17,0 -17,0 -15,-6 -11,-3 -9,-8 -4,-7 0,-87 130,0z" />
<path style="fill:#ededed" d="M549,33 l0,87 -4,7 -5,8 -10,3 -11,6 -12,0 -13,0 -11,0 -11,-6 -10,-3 -5,-8 -4,-7 0,-87 96,0z" />
<path style="fill:#f7f7f7" d="M530,33 l0,87 -2,7 -4,8 -5,3 -6,6 -7,0 -10,0 -5,0 -8,-6 -6,-3 -3,-8 -2,-7 0,-87 58,0z" />
<path style="fill:#fff" d="M513,33 l0,89 -2,5 -2,8 -2,6 -1,3 -4,2 -2,0 -4,-2 -2,-3 -3,-6 0,-8 -2,-5 0,-89 24,0z" />
<path style="fill:none;stroke:#000;stroke-width:2" d="M381,116 l0,-83 239,0 0,83" />

</svg>
