

<svg xmlns:agg="http://www.example.com" xmlns="http://www.w3.org/2000/svg" preserveAspectRatio="none" width="0.9372in" height="1.4792in" viewBox="0 0 633 999">

<path style="fill:#ccc;stroke:#000;stroke-width:2" d="M28,144 l17,-90 541,0 19,90 -577,0z" />
<path style="fill:#e5e5e5;stroke:#000;stroke-width:2" d="M605,109 l0,35 -577,0 0,-35 17,-25 24,-13 24,-8 29,-7 32,-7 37,-5 39,-4 28,-2 29,-1 14,0 15,0 30,0 28,1 28,2 39,4 36,5 33,7 29,7 24,8 24,13 17,21 1,4z" />
<path style="fill:#ccc" d="M375,118 l-6,-36 -107,0 -4,36 -230,0 0,26 577,0 0,-26 -230,0z" />
<path style="fill:#ccc;stroke:#000;stroke-width:2" d="M271,73 l88,0 0,9 -88,0 0,-9z" />
<path style="fill:#4c4c4c;stroke:#000;stroke-width:2" d="M262,73 l3,-42 100,0 4,42 -107,0z" />
<path style="fill:#666;stroke:#000;stroke-width:2" d="M297,31 l2,-3 32,0 2,3 -36,0z" />
<path style="fill:#ccc" d="M605,970 l0,-826 -577,0 0,826 107,0 0,-41 127,0 0,41 107,0 0,-41 126,0 0,41 110,0z" />
<path style="fill:#dbdbdb" d="M550,970 l0,-826 -470,0 0,826 55,0 0,-41 127,0 0,41 107,0 0,-41 126,0 0,41 55,0z" />
<path style="fill:#ededed" d="M459,144 l-288,0 0,785 91,0 0,41 107,0 0,-41 90,0 0,-785z" />
<path style="fill:#fff" d="M359,144 l-88,0 0,826 88,0 0,-826z" />
<path style="fill:none;stroke:#000;stroke-width:2" d="M605,970 l0,-826 -577,0 0,826 107,0 0,-41 127,0 0,41 107,0 0,-41 126,0 0,41 110,0" />
<path style="fill:#dbdbdb" d="M375,118 l-6,-36 -107,0 -4,36 -178,0 0,26 470,0 0,-26 -175,0z" />
<path style="fill:#ededed" d="M375,118 l-6,-36 -107,0 -4,36 -87,0 0,26 288,0 0,-26 -84,0z" />
<path style="fill:#fff" d="M359,82 l-88,0 0,62 88,0 0,-62z" />
<path style="fill:none;stroke:#000;stroke-width:2" d="M375,118 l-6,-36 -107,0 -4,36 -230,0 0,26 577,0 0,-26 -230,0" />
<path style="fill:#4c4c4c;stroke:#000;stroke-width:2" d="M135,929 l91,0 0,19 -91,0 0,-19z" />
<path style="fill:#4c4c4c;stroke:#000;stroke-width:2" d="M405,929 l90,0 0,19 -90,0 0,-19z" />
<path style="fill:#7f7f7f;stroke:#000;stroke-width:2" d="M265,92 l42,0 0,7 -42,0 0,-7z" />

</svg>
