 

<svg xmlns:agg="http://www.example.com" xmlns="http://www.w3.org/2000/svg" preserveAspectRatio="none" width="1.6083in" height="0.5104in" viewBox="0 0 999 317">

<path style="fill:#7f7f7f" d="M141,63 l821,29 -2,128 -29,23 -153,25 -637,-205z" />
<path style="fill:#e5e5e5" d="M890,98 l-9,14 -24,15 -40,11 -54,10 -62,8 -75,8 -80,3 -85,2 -87,-2 -81,-3 -73,-8 -64,-8 -52,-10 -39,-11 -27,-15 -8,-14 0,118 10,17 25,12 39,12 52,11 64,8 73,7 81,3 87,3 87,-3 78,-3 75,-7 62,-8 54,-11 40,-12 24,-12 9,-17 0,-118z" />
<ellipse style="fill:#f0f0f0;stroke:#000;stroke-width:2" cx="460" cy="98" rx="430" ry="70" />
<path style="fill:#b2b2b2" d="M98,135 l-33,-8 -25,-15 -10,-14 0,118 10,17 25,12 33,11 0,-121z" />
<path style="fill:#ccc" d="M890,98 l-9,14 -24,15 -28,6 0,121 28,-9 24,-12 9,-17 0,-118z" />
<path style="fill:none;stroke:#000;stroke-width:2" d="M890,98 l-9,14 -24,15 -40,11 -54,10 -62,8 -75,8 -80,3 -85,2 -87,-2 -81,-3 -73,-8 -64,-8 -52,-10 -39,-11 -27,-15 -8,-14 0,118 10,17 25,12 39,12 52,11 64,8 73,7 81,3 87,3 87,-3 78,-3 75,-7 62,-8 54,-11 40,-12 24,-12 9,-17 0,-118" />
<ellipse style="fill:#000" cx="461" cy="90" rx="112" ry="17" />
<path style="fill:none;stroke:#000;stroke-width:2" d="M30,98 l352,4" />
<path style="fill:none;stroke:#000;stroke-width:2" d="M169,146 l292,-38" />
<path style="fill:none;stroke:#000;stroke-width:2" d="M461,169 l78,-67" />
<path style="fill:none;stroke:#000;stroke-width:2" d="M763,148 l-190,-58" />
<path style="fill:none;stroke:#000;stroke-width:2" d="M890,98 l-351,-21" />
<path style="fill:none;stroke:#000;stroke-width:2" d="M763,48 l-302,25" />
<path style="fill:none;stroke:#000;stroke-width:2" d="M461,28 l-79,49" />
<path style="fill:none;stroke:#000;stroke-width:2" d="M156,48 l193,42" />
<path style="fill:#f0f0f0;stroke:#000;stroke-width:2" d="M883,100 l79,0 0,12 -76,0 -3,-12z" />
<path style="fill:#f0f0f0;stroke:#000;stroke-width:2" d="M881,119 l79,0 0,12 -79,0 0,-12z" />
<path style="fill:#f0f0f0;stroke:#000;stroke-width:2" d="M877,138 l79,0 0,14 -79,0 0,-14z" />
<path style="fill:#f0f0f0;stroke:#000;stroke-width:2" d="M873,156 l79,0 0,14 -79,0 0,-14z" />
<path style="fill:#f0f0f0;stroke:#000;stroke-width:2" d="M869,175 l79,0 0,14 -79,0 0,-14z" />
<path style="fill:#f0f0f0;stroke:#000;stroke-width:2" d="M865,193 l79,0 0,15 -79,0 0,-15z" />
<path style="fill:#f0f0f0;stroke:#000;stroke-width:2" d="M860,212 l79,0 0,15 -79,0 0,-15z" />
<path style="fill:#f0f0f0;stroke:#000;stroke-width:2" d="M857,233 l78,0 0,12 -78,0 0,-12z" />
<path style="fill:#ccc;stroke:#000;stroke-width:2" d="M883,100 l79,0 4,-6 -78,0 -5,6z" />
<path style="fill:#ccc;stroke:#000;stroke-width:2" d="M881,119 l79,0 4,-7 -78,0 -5,7z" />
<path style="fill:#ccc;stroke:#000;stroke-width:2" d="M877,138 l79,0 4,-7 -79,0 -4,7z" />
<path style="fill:#ccc;stroke:#000;stroke-width:2" d="M873,156 l79,0 4,-4 -79,0 -4,4z" />
<path style="fill:#ccc;stroke:#000;stroke-width:2" d="M869,175 l79,0 4,-5 -79,0 -4,5z" />
<path style="fill:#ccc;stroke:#000;stroke-width:2" d="M865,193 l79,0 4,-4 -79,0 -4,4z" />
<path style="fill:#ccc;stroke:#000;stroke-width:2" d="M860,212 l79,0 5,-4 -79,0 -5,4z" />
<path style="fill:#ccc;stroke:#000;stroke-width:2" d="M857,233 l78,0 4,-6 -79,0 -3,6z" />
<path style="fill:#fff" d="M167,264 l0,-110 -11,-2 -8,0 0,110 8,2 11,0z" />
<path style="fill:#fff;fill-rule:evenodd" d="M69,90 l-41,0 0,6 942,0 0,-6 -2,0 0,-21 -2,-10 -6,-9 -8,-4 -8,-2 -850,0 -11,2 -8,4 -4,9 -2,10 0,21z M162,90 l-85,0 0,-21 0,-8 6,-4 7,-5 8,-2 64,0 0,40z M280,90 l-111,0 0,-40 111,0 0,40z M399,90 l-110,0 0,-40 110,0 0,40z M517,90 l-110,0 0,-40 110,0 0,40z M637,90 l-112,0 0,-40 112,0 0,40z M755,90 l-112,0 0,-40 112,0 0,40z M873,90 l-112,0 0,-40 112,0 0,40z M960,90 l-79,0 0,-40 56,0 9,2 8,5 4,4 2,8 0,21z " />
<path style="fill:none;stroke:#000;stroke-width:2" d="M69,90 l-41,0 0,6 942,0 0,-6 -2,0 0,-21 -2,-10 -6,-9 -8,-4 -8,-2 -850,0 -11,2 -8,4 -4,9 -2,10 0,21" />
<path style="fill:none;stroke:#000;stroke-width:2" d="M162,90 l-85,0 0,-21 0,-8 6,-4 7,-5 8,-2 64,0 0,40" />
<path style="fill:none;stroke:#000;stroke-width:2" d="M280,90 l-111,0 0,-40 111,0 0,40" />
<path style="fill:none;stroke:#000;stroke-width:2" d="M399,90 l-110,0 0,-40 110,0 0,40" />
<path style="fill:none;stroke:#000;stroke-width:2" d="M517,90 l-110,0 0,-40 110,0 0,40" />
<path style="fill:none;stroke:#000;stroke-width:2" d="M637,90 l-112,0 0,-40 112,0 0,40" />
<path style="fill:none;stroke:#000;stroke-width:2" d="M755,90 l-112,0 0,-40 112,0 0,40" />
<path style="fill:none;stroke:#000;stroke-width:2" d="M873,90 l-112,0 0,-40 112,0 0,40" />
<path style="fill:none;stroke:#000;stroke-width:2" d="M960,90 l-79,0 0,-40 56,0 9,2 8,5 4,4 2,8 0,21" />

</svg>
