

<svg xmlns:agg="http://www.example.com" xmlns="http://www.w3.org/2000/svg" preserveAspectRatio="none" width="1.0113in" height="1.4792in" viewBox="0 0 683 999">

<path style="fill:#7f7f7f" d="M655,700 l0,2 -25,18 -29,12 -28,10 -33,10 -36,8 -27,5 -28,4 -29,4 -31,2 -32,1 -16,1 -16,-1 -31,-1 -31,-2 -29,-4 -28,-4 -27,-5 -37,-8 -33,-10 -28,-10 -28,-12 -24,-16 -1,-2 0,-2 0,-590 14,-24 24,-15 24,-10 30,-9 34,-8 38,-6 27,-4 29,-2 30,-3 31,-1 16,0 16,0 32,0 31,1 30,3 29,2 28,4 38,6 34,8 29,9 25,10 24,15 14,20 0,4 0,590z" />
<path style="fill:#8f8f8f" d="M621,700 l0,2 -22,17 -26,11 -26,9 -29,8 -33,8 -36,6 -39,5 -27,2 -13,1 -15,0 -14,0 -28,0 -40,-3 -38,-5 -36,-6 -32,-8 -29,-8 -25,-9 -26,-11 -21,-17 -1,-2 0,-18 1,-31 0,-40 0,-33 1,-31 0,-101 -1,-36 0,-66 0,-26 0,-59 0,-33 0,-36 -1,-38 0,-42 13,-24 21,-15 30,-13 28,-8 31,-7 35,-6 37,-4 40,-2 13,-1 14,0 14,0 29,0 40,2 39,4 36,5 33,6 29,8 26,9 26,14 19,20 3,8 0,4 0,18 0,572z" />
<path style="fill:#9c9c9c" d="M584,700 l-20,18 -29,13 -31,11 -28,6 -30,7 -33,4 -35,4 -12,0 -12,1 -13,0 -36,-1 -34,-4 -33,-4 -30,-7 -27,-6 -31,-11 -24,-11 -22,-16 -1,-2 0,-2 0,-18 0,-572 11,-24 23,-18 28,-13 25,-8 28,-6 31,-5 33,-4 35,-2 12,0 12,0 37,1 35,2 33,4 30,6 28,7 24,8 26,13 22,18 7,17 1,4 0,18 0,572z" />
<path style="fill:#ababab" d="M546,700 l-20,19 -26,12 -28,10 -32,7 -28,5 -29,3 -21,2 -10,0 -11,0 -40,-2 -38,-4 -34,-7 -31,-9 -24,-10 -26,-14 -8,-8 -1,-4 0,-18 0,-572 9,-24 26,-22 24,-11 31,-10 34,-7 38,-5 20,-1 20,0 11,0 30,1 30,3 27,5 32,8 28,11 22,13 21,22 4,35 0,31 1,39 0,33 0,63 0,12 0,12 0,101 0,46 0,26 -1,29 0,64 0,35 0,39 0,42z" />
<path style="fill:#bababa" d="M510,700 l-20,20 -29,13 -25,8 -28,6 -31,4 -17,1 -17,1 -17,-1 -32,-3 -31,-5 -27,-7 -33,-12 -25,-18 -3,-3 -1,-4 0,-18 0,-572 8,-24 21,-22 32,-17 27,-8 30,-6 32,-3 17,0 18,0 33,3 30,6 27,8 23,11 25,20 12,24 1,8 0,18 0,572z" />
<path style="fill:#c9c9c9" d="M473,700 l-22,23 -25,11 -32,8 -37,5 -14,0 -13,0 -38,-5 -33,-8 -26,-11 -20,-16 -2,-3 -1,-4 0,-18 0,-572 10,-32 20,-20 28,-15 35,-10 25,-3 13,0 14,0 38,6 32,11 25,17 17,22 6,42 0,58 0,34 0,31 0,32 0,49 1,15 0,16 0,78 -1,50 0,60 0,33 0,74 0,42z" />
<path style="fill:#d6d6d6" d="M437,700 l-16,21 -25,12 -34,7 -9,1 -10,0 -10,0 -27,-4 -31,-10 -25,-17 -4,-7 -1,-3 1,-18 0,-31 0,-40 1,-33 0,-63 0,-125 -1,-46 0,-26 0,-28 0,-64 0,-36 0,-38 -1,-42 8,-32 21,-25 22,-14 26,-8 10,-1 9,0 10,0 28,6 24,11 23,24 10,31 1,8 0,18 0,572z" />
<path style="fill:#e5e5e5" d="M399,700 l-12,22 -26,12 -12,1 -6,1 -6,-1 -27,-6 -24,-16 -4,-10 -1,-3 0,-590 5,-31 13,-27 19,-18 17,-6 6,0 6,0 27,14 15,23 9,29 1,8 0,8 0,590z" />
<path style="fill:none;stroke:#000;stroke-width:2" d="M655,700 l0,2 -25,18 -29,12 -28,10 -33,10 -36,8 -27,5 -28,4 -29,4 -31,2 -32,1 -16,1 -16,-1 -31,-1 -31,-2 -29,-4 -28,-4 -27,-5 -37,-8 -33,-10 -28,-10 -28,-12 -24,-16 -1,-2 0,-2 0,-590 14,-24 24,-15 24,-10 30,-9 34,-8 38,-6 27,-4 29,-2 30,-3 31,-1 16,0 16,0 32,0 31,1 30,3 29,2 28,4 38,6 34,8 29,9 25,10 24,15 14,20 0,4 0,590" />
<path style="fill:#999;stroke:#000;stroke-width:2" d="M538,938 l0,-279 85,34 0,245 17,0 0,15 -118,0 0,-15 16,0z" />
<path style="fill:#999;stroke:#000;stroke-width:2" d="M148,938 l0,-279 -86,34 0,245 -15,0 0,17 116,0 0,-17 -15,0z" />
<path style="fill:#7f7f7f;stroke:#000;stroke-width:2" d="M30,955 l154,0 0,15 -154,0 0,-15z" />
<path style="fill:#7f7f7f;stroke:#000;stroke-width:2" d="M501,955 l154,0 0,15 -154,0 0,-15z" />
<path style="fill:#f2fff2;stroke:#000;stroke-width:2" d="M285,257 l107,0 0,58 -107,0 0,-58z" />
<ellipse style="fill:none;stroke:#7f7f7f;stroke-width:2" cx="344" cy="485" rx="157" ry="161" />
<ellipse style="fill:#999;stroke:#000;stroke-width:2" cx="344" cy="486" rx="117" ry="122" />
<circle style="fill:#ccc;stroke:#000;stroke-width:2" cx="344" cy="481" r="117" />
<path style="fill:#999;stroke:#000;stroke-width:2" d="M167,540 l118,0 0,19 -118,0 0,-19z" />
<path style="fill:#999;stroke:#000;stroke-width:2" d="M167,403 l118,0 0,19 -118,0 0,-19z" />
<path style="fill:#b2b2b2;stroke:#000;stroke-width:2" d="M520,461 l33,0 0,59 -33,0 0,-59z" />
<path style="fill:#b2b2b2;stroke:#000;stroke-width:2" d="M568,467 l21,0 0,53 -21,0 0,-53z" />

</svg>
