 

<svg xmlns:agg="http://www.example.com" xmlns="http://www.w3.org/2000/svg" preserveAspectRatio="none" width="1.6083in" height="1.0432in" viewBox="0 0 999 648">

<path style="fill:#e0e0ff" d="M28,235 l13,15 28,19 45,13 57,12 70,9 79,9 85,4 92,2 94,-2 87,-4 77,-9 70,-9 57,-12 45,-13 30,-19 13,-15 -11,-43 -26,-38 -44,-36 -58,-30 -68,-26 -81,-17 -89,-13 -96,-4 -94,4 -87,13 -81,17 -72,26 -56,30 -43,36 -27,38 -9,43z" />
<path style="fill:#bfbfff" d="M836,292 l46,-10 45,-17 30,-15 13,-15 -11,-43 -26,-38 -44,-36 -58,-30 -68,-26 -81,-17 -89,-13 -56,-2 98,32 135,124 66,106z" />
<path style="fill:#7f7fff;stroke:#000;stroke-width:2" d="M872,128 l-5,45 -112,-100 117,55z" />
<path style="fill:#7f7fff;stroke:#000;stroke-width:2" d="M612,35 l-19,-3 -9,0 71,49 -1,-38 -42,-8z" />
<path style="fill:#7f7fff;stroke:#000;stroke-width:2" d="M510,203 l79,-49 -77,-49 -2,98z" />
<path style="fill:#7f7fff;stroke:#000;stroke-width:2" d="M791,239 l-87,55 -13,-97 100,42z" />
<path style="fill:#f0f0f0;stroke:#000;stroke-width:2" d="M32,503 l5,7 27,15 43,15 56,14 72,9 81,10 87,3 94,2 96,-2 89,-3 81,-10 68,-9 58,-14 44,-15 26,-15 4,-7 0,-270 -8,17 -28,15 -43,13 -57,14 -70,11 -77,9 -89,4 -94,2 -92,-2 -87,-4 -81,-9 -68,-11 -56,-14 -44,-13 -26,-15 -11,-17 0,270z" />
<path style="fill:#fff" d="M92,275 l26,-98 89,-104 28,-11 10,-2 -95,117 -15,109 -21,-4 -22,-7z" />
<path style="fill:#fff" d="M88,535 l19,5 17,4 0,-260 -11,-6 -25,-5 0,262z" />
<path style="fill:#b2b2b2" d="M32,503 l5,7 21,12 0,-262 -15,-10 -11,-17 0,270z" />
<path style="fill:#b2b2b2" d="M838,552 l51,-12 44,-15 26,-15 4,-7 0,-270 -8,17 -28,15 -43,13 -46,12 0,262z" />
<path style="fill:none;stroke:#000;stroke-width:2" d="M28,235 l13,15 28,19 45,13 57,12 70,9 79,9 85,4 92,2 94,-2 87,-4 77,-9 70,-9 57,-12 45,-13 30,-19 13,-15 -11,-43 -26,-38 -44,-36 -58,-30 -68,-26 -81,-17 -89,-13 -96,-4 -94,4 -87,13 -81,17 -72,26 -56,30 -43,36 -27,38 -9,43" />
<path style="fill:#7f7f7f;stroke:#000;stroke-width:2" d="M970,535 l-11,17 -26,15 -44,15 -58,13 -68,11 -81,6 -89,8 -190,0 -87,-8 -81,-6 -72,-11 -56,-13 -43,-15 -27,-15 -9,-17 0,-42 9,17 27,15 43,15 56,14 72,9 81,10 87,3 94,2 96,-2 89,-3 81,-10 68,-9 58,-14 44,-15 26,-15 11,-17 0,42z" />
<path style="fill:none;stroke:#000;stroke-width:2" d="M435,156 l79,-49 -51,-55 -28,104" />
<path style="fill:none;stroke:#000;stroke-width:2" d="M37,248 l2,4 30,15 34,11 6,-3 -53,-57 -19,30" />
<path style="fill:none;stroke:#000;stroke-width:2" d="M107,278 l7,2 6,2 -9,-9 -4,5" />
<path style="fill:none;stroke:#000;stroke-width:2" d="M196,297 l45,6 22,2 32,-11 -73,-55 -26,58" />
<path style="fill:none;stroke:#000;stroke-width:2" d="M292,309 l28,2 2,0 -27,-16 -3,14" />
<path style="fill:none;stroke:#000;stroke-width:2" d="M393,314 l14,2 58,0 36,-15 -92,-49 -16,62" />
<path style="fill:none;stroke:#000;stroke-width:2" d="M497,318 l2,0 36,-2 -36,-17 -2,19" />
<path style="fill:none;stroke:#000;stroke-width:2" d="M672,311 l-69,3 0,-64 101,44 -32,17" />
<path style="fill:none;stroke:#000;stroke-width:2" d="M736,305 l-30,4 -2,-15 32,11" />
<path style="fill:none;stroke:#000;stroke-width:2" d="M802,297 l23,-3 55,-12 11,-9 -102,-34 13,58" />
<path style="fill:none;stroke:#000;stroke-width:2" d="M902,275 l-9,3 -2,-7 11,4" />
<path style="fill:none;stroke:#000;stroke-width:2" d="M966,239 l4,-4 -5,-17 -10,-4 11,25" />
<path style="fill:none;stroke:#000;stroke-width:2" d="M963,209 l-2,-15 -28,-40 -16,-11 -45,-15 85,88 6,-7" />
<path style="fill:none;stroke:#000;stroke-width:2" d="M857,103 l-26,-15 -70,-24 -8,-2 119,66 -15,-25" />
<path style="fill:none;stroke:#000;stroke-width:2" d="M731,56 l-49,-11 -4,-2 81,32 -28,-19" />
<path style="fill:none;stroke:#000;stroke-width:2" d="M627,37 l13,2 14,4 -27,-6" />
<path style="fill:none;stroke:#000;stroke-width:2" d="M548,30 l19,2 2,18 -21,-20" />
<path style="fill:none;stroke:#000;stroke-width:2" d="M514,28 l15,2 40,19 -55,58 0,-79" />
<path style="fill:none;stroke:#000;stroke-width:2" d="M499,28 l-21,2 -15,22 36,-24" />
<path style="fill:none;stroke:#000;stroke-width:2" d="M442,30 l17,0 4,22 -85,32 64,-54" />
<path style="fill:none;stroke:#000;stroke-width:2" d="M405,32 l19,0 -44,24 25,-24" />
<path style="fill:none;stroke:#000;stroke-width:2" d="M358,39 l30,-4 -8,21 -124,26 102,-43" />
<path style="fill:none;stroke:#000;stroke-width:2" d="M275,54 l2,0 -21,28 -113,40 132,-68" />
<path style="fill:none;stroke:#000;stroke-width:2" d="M173,90 l6,-2 -38,34 -77,34 0,-2 43,-34 40,-17 26,-13" />
<path style="fill:none;stroke:#000;stroke-width:2" d="M37,192 l0,2 -7,32 26,-8 -19,-26" />
<path style="fill:none;stroke:#000;stroke-width:2" d="M499,301 l104,-49 -93,-47 -11,96" />
<path style="fill:none;stroke:#000;stroke-width:2" d="M222,241 l109,-40 -60,-81 -49,121" />
<path style="fill:none;stroke:#000;stroke-width:2" d="M691,199 l64,-79 -98,-41 34,120" />
<path style="fill:none;stroke:#000;stroke-width:2" d="M331,199 l106,-43 -59,-72 -47,115" />
<path style="fill:none;stroke:#000;stroke-width:2" d="M111,275 l111,-34 -60,-68 -51,102" />
<path style="fill:none;stroke:#000;stroke-width:2" d="M755,118 l4,-45 -105,-30 101,75" />
<path style="fill:none;stroke:#000;stroke-width:2" d="M893,273 l64,-57 -90,-43 26,100" />
<path style="fill:none;stroke:#000;stroke-width:2" d="M605,252 l86,-53 -102,-45 16,98" />
<path style="fill:none;stroke:#000;stroke-width:2" d="M510,203 l-101,49 28,-98 73,49" />
<path style="fill:none;stroke:#000;stroke-width:2" d="M271,120 l-111,53 98,-92 13,39" />
<path style="fill:none;stroke:#000;stroke-width:2" d="M657,79 l-69,75 -21,-105 90,30" />
<path style="fill:none;stroke:#000;stroke-width:2" d="M269,120 l109,-36 4,-30 -113,66" />
<path style="fill:none;stroke:#000;stroke-width:2" d="M295,294 l114,-42 -78,-55 -36,97" />
<path style="fill:none;stroke:#000;stroke-width:2" d="M56,218 l104,-45 -15,-51 -89,96" />
<path style="fill:none;stroke:#000;stroke-width:2" d="M791,237 l76,-64 -114,-55 38,119" />
<path style="fill:none;stroke:#000;stroke-width:2" d="M28,235 l13,15 28,19 45,13 57,12 70,9 79,9 85,4 92,2 94,-2 87,-4 77,-9 70,-9 57,-12 45,-13 30,-19 13,-15 -11,-43 -26,-38 -44,-36 -58,-30 -68,-26 -81,-17 -89,-13 -96,-4 -94,4 -87,13 -81,17 -72,26 -56,30 -43,36 -27,38 -9,43" />

</svg>
