

<svg xmlns:agg="http://www.example.com" xmlns="http://www.w3.org/2000/svg" preserveAspectRatio="none" width="0.8203in" height="1.4792in" viewBox="0 0 554 999">

<path style="fill:#666;stroke:#000;stroke-width:2" d="M173,726 l12,12 -99,98 -11,-11 98,-99z" />
<path style="fill:#666;stroke:#000;stroke-width:2" d="M480,826 l-11,12 -99,-99 12,-11 98,98z" />
<path style="fill:#999;stroke:#000;stroke-width:2" d="M448,726 l47,0 0,233 -47,0 0,-233z" />
<path style="fill:#999;stroke:#000;stroke-width:2" d="M60,726 l47,0 0,233 -47,0 0,-233z" />
<path style="fill:#7f7f7f" d="M526,681 l0,-561 -12,-27 -25,-21 -28,-14 -26,-9 -29,-8 -32,-6 -35,-5 -36,-2 -13,-1 -13,0 -38,1 -36,4 -34,5 -31,6 -29,9 -25,9 -26,15 -23,21 -7,19 -1,4 0,561 12,27 25,21 28,14 26,9 30,8 32,6 35,5 37,2 13,1 12,0 38,-1 36,-3 34,-5 31,-7 28,-9 25,-9 26,-15 23,-21 7,-18 1,-5z" />
<path style="fill:#919191" d="M495,681 l0,-17 0,-15 0,-15 0,-514 -9,-27 -22,-21 -26,-14 -31,-12 -26,-7 -29,-6 -31,-4 -22,-1 -11,-1 -11,0 -33,1 -31,4 -30,5 -27,6 -24,9 -29,13 -21,15 -18,22 -4,14 0,4 0,17 0,544 10,27 22,21 25,14 31,12 26,7 29,6 31,4 21,1 11,1 11,0 33,-1 32,-3 29,-5 28,-7 24,-9 29,-13 22,-15 17,-22 4,-18z" />
<path style="fill:#a3a3a3" d="M465,681 l0,-17 0,-15 0,-15 0,-514 -9,-27 -24,-25 -22,-13 -28,-12 -32,-8 -35,-6 -19,-1 -19,-1 -18,1 -37,4 -33,7 -30,10 -26,12 -28,23 -14,27 -1,9 0,17 0,56 0,33 0,29 1,30 0,48 0,28 0,75 0,47 0,56 -1,32 0,71 0,39 9,27 23,25 23,13 28,12 32,8 35,6 19,1 18,1 19,-1 37,-3 33,-8 30,-10 26,-12 28,-23 14,-27 1,-9z" />
<path style="fill:#b5b5b5" d="M433,681 l0,-17 0,-15 0,-15 0,-514 -7,-27 -20,-25 -30,-19 -25,-10 -28,-7 -30,-4 -16,-1 -15,1 -30,4 -28,7 -25,10 -30,19 -20,25 -6,18 -1,9 0,17 0,544 7,27 20,25 30,19 25,10 28,8 30,3 15,1 16,-1 30,-3 28,-8 25,-10 30,-19 20,-25 7,-27z" />
<path style="fill:#c9c9c9" d="M403,681 l0,-17 0,-15 0,-15 0,-514 -6,-27 -16,-25 -24,-19 -31,-14 -36,-7 -13,-1 -12,1 -36,7 -31,14 -24,19 -16,25 -5,18 0,9 0,17 0,544 5,27 16,25 24,19 31,14 36,7 12,1 13,-1 36,-7 31,-14 24,-19 16,-25 6,-27z" />
<path style="fill:#dbdbdb" d="M370,681 l0,-73 1,-33 0,-29 0,-30 0,-47 0,-14 0,-16 0,-74 0,-47 0,-56 0,-32 0,-70 -1,-40 -4,-27 -11,-25 -18,-19 -23,-14 -27,-7 -10,-1 -9,1 -26,7 -23,14 -18,19 -12,25 -4,18 0,9 0,17 0,544 4,27 12,25 18,19 23,14 26,7 9,1 10,-1 27,-7 23,-14 18,-19 11,-25 4,-27z" />
<path style="fill:#ededed" d="M340,681 l0,-17 0,-15 0,-15 0,-514 -3,-27 -8,-25 -17,-25 -22,-14 -6,-1 -7,-1 -6,1 -23,11 -19,22 -11,32 -3,18 0,9 0,17 0,544 3,27 8,25 17,25 22,14 6,1 6,1 7,-1 23,-11 19,-22 11,-32 3,-27z" />
<ellipse style="fill:#fff" cx="276" cy="400" rx="31" ry="373" />
<path style="fill:none;stroke:#000;stroke-width:2" d="M526,681 l0,-561 -12,-27 -25,-21 -28,-14 -26,-9 -29,-8 -32,-6 -35,-5 -36,-2 -13,-1 -13,0 -38,1 -36,4 -34,5 -31,6 -29,9 -25,9 -26,15 -23,21 -7,19 -1,4 0,561 12,27 25,21 28,14 26,9 30,8 32,6 35,5 37,2 13,1 12,0 38,-1 36,-3 34,-5 31,-7 28,-9 25,-9 26,-15 23,-21 7,-18 1,-5" />
<path style="fill:none;stroke:#000;stroke-width:2" d="M27,120 l499,0 0,30 -499,0 0,-30" />
<path style="fill:#7f7f7f;stroke:#000;stroke-width:2" d="M56,937 l0,26 55,0 0,-26 7,0 0,34 -70,0 0,-34 8,0z" />
<path style="fill:#7f7f7f;stroke:#000;stroke-width:2" d="M444,937 l0,26 55,0 0,-26 8,0 0,34 -70,0 0,-34 7,0z" />

</svg>
