 
<svg version="1.1" xmlns="http://www.w3.org/2000/svg" preserveAspectRatio="none"  xmlns:xlink="http://www.w3.org/1999/xlink" x="0px" y="0px" 
	  viewBox="0 0 57 202" xmlns:agg="http://www.example.com" xml:space="preserve">

<agg:params>
	<agg:param type="C" name="color" description="Color" cssAttributes="fill" classes="color"/>
	<agg:param type="F" name="saturation" description="Saturation" min="0" max="1" cssAttributes="opacity" classes="color"/>
</agg:params>
	 
<style type="text/css" >
   <![CDATA[

	.stroke {
		stroke-width:0.3;
		stroke-linecap:round;
		stroke-linejoin:round;
		stroke: black;
		fill:none;
	}
	
	.color {
		fill:#3664BF;
		opacity:0.2;
	}
	
      ]]>
</style>
	 
<defs>
	<path id="boundary" d="M45.83,13.42c0,62.2,0,124.39,0,186.58c-12.22,0-24.44,0-36.67,0c0-62.28,0-124.57,0-186.85
		c0.32-1,1.33-1.35,2.3-1.63c0.98-0.29,1.91-0.51,2.87-0.7c0.95-0.18,1.93-0.31,2.91-0.43c0.98-0.11,1.96-0.2,2.93-0.27
		c0.98-0.08,1.96-0.13,2.94-0.17c0.99-0.04,1.97-0.06,2.95-0.07c0.83,0,1.67,0,2.5,0.02l9.7,0.7c0.83,0.11,1.66,0.24,2.46,0.41
		c0.96,0.2,1.89,0.43,2.86,0.74C44.55,12.05,45.56,12.41,45.83,13.42z"/>
</defs>

<linearGradient id="horizontalGradient" gradientUnits="userSpaceOnUse" x1="9.161" y1="0" x2="45.84" y2="0">
	<stop  offset="0" style="stop-color:#767676"/>
	<stop  offset="0.06" style="stop-color:#919191"/>
	<stop  offset="0.14" style="stop-color:#B1B1B1"/>
	<stop  offset="0.21" style="stop-color:#CECECE"/>
	<stop  offset="0.28" style="stop-color:#E4E4E4"/>
	<stop  offset="0.35" style="stop-color:#F6F6F6"/>
	<stop  offset="0.42" style="stop-color:#FEFEFF"/>
	<stop  offset="0.47" style="stop-color:#F6F6F6"/>
	<stop  offset="0.53" style="stop-color:#E7E7E7"/>
	<stop  offset="0.58" style="stop-color:#D2D1D1"/>
	<stop  offset="0.64" style="stop-color:#B7B7B7"/>
	<stop  offset="0.7" style="stop-color:#989898"/>
	<stop  offset="0.72" style="stop-color:#8B8B8B"/>
	<stop  offset="1" style="stop-color:#FDFDFD"/>
</linearGradient>	

<use xlink:href="#boundary" fill="url(#horizontalGradient)"/>

<g class="color">
	<use xlink:href="#boundary"/>
</g>
	
<g class="stroke">
	<use xlink:href="#boundary"/>
	<path d="M9.164,13.423c0-3.294,0-6.588,0-9.882
		c-0.108-1.208,3.373-2.022,4.042-2.179c1.563-0.366,3.139-0.599,4.727-0.792C21.115,0.182,24.293,0,27.499,0
		c3.205,0,6.383,0.182,9.567,0.569c1.589,0.193,3.166,0.427,4.729,0.793c0.669,0.157,4.151,0.97,4.044,2.179
		c0,3.294,0,6.588,0,9.882"/>
	<line x1="38.258" y1="130.828" x2="28.558" y2="130.828"/>
	<line x1="43.195" y1="11.544" x2="43.195" y2="1.742"/>
	<line x1="40.164" y1="10.799" x2="40.165" y2="1.03"/>
	<line x1="36.237" y1="10.224" x2="36.238" y2="0.474"/>
	<line x1="11.143" y1="11.851" x2="11.144" y2="1.969"/>
	<line x1="13.895" y1="11.093" x2="13.896" y2="1.21"/>
	<line x1="17.606" y1="10.492" x2="17.607" y2="0.61"/>
	<line x1="22.023" y1="10.068" x2="22.024" y2="0.186"/>
	<line x1="26.831" y1="9.737" x2="26.832" y2="0.003"/>
	<line x1="31.685" y1="9.861" x2="31.686" y2="0.109"/>		
	<polyline points="28.56,9.9 28.56,190.12 38.26,190.12 38.26,10.6 	"/>
	<line x1="38.258" y1="56.715" x2="28.558" y2="56.715"/>
	<line x1="38.258" y1="61.656" x2="28.558" y2="61.656"/>
	<line x1="38.258" y1="51.774" x2="28.558" y2="51.774"/>
	<line x1="38.258" y1="46.834" x2="28.558" y2="46.834"/>
	<line x1="38.258" y1="41.893" x2="28.558" y2="41.893"/>
	<line x1="38.258" y1="36.952" x2="28.558" y2="36.952"/>
	<line x1="38.258" y1="66.597" x2="28.558" y2="66.597"/>
	<line x1="38.258" y1="71.538" x2="28.558" y2="71.538"/>
	<line x1="38.258" y1="76.479" x2="28.558" y2="76.479"/>
	<line x1="38.258" y1="86.36" x2="28.558" y2="86.36"/>
	<line x1="38.258" y1="81.42" x2="28.558" y2="81.42"/>
	<line x1="38.258" y1="91.301" x2="28.558" y2="91.301"/>
	<line x1="38.258" y1="96.242" x2="28.558" y2="96.242"/>
	<line x1="38.258" y1="101.183" x2="28.558" y2="101.183"/>
	<line x1="38.258" y1="111.065" x2="28.558" y2="111.065"/>
	<line x1="38.258" y1="106.124" x2="28.558" y2="106.124"/>
	<line x1="38.258" y1="116.006" x2="28.558" y2="116.006"/>
	<line x1="38.258" y1="120.946" x2="28.558" y2="120.946"/>
	<line x1="38.258" y1="125.887" x2="28.558" y2="125.887"/>
	<line x1="38.258" y1="135.769" x2="28.558" y2="135.769"/>
	<line x1="38.258" y1="140.709" x2="28.558" y2="140.709"/>
	<line x1="38.258" y1="145.651" x2="28.558" y2="145.651"/>
	<line x1="38.258" y1="150.592" x2="28.558" y2="150.592"/>
	<line x1="38.258" y1="160.473" x2="28.558" y2="160.473"/>
	<line x1="38.258" y1="155.533" x2="28.558" y2="155.533"/>
	<line x1="38.258" y1="165.414" x2="28.558" y2="165.414"/>
	<line x1="38.258" y1="170.355" x2="28.558" y2="170.355"/>
	<line x1="38.258" y1="175.295" x2="28.558" y2="175.295"/>
	<line x1="38.258" y1="185.178" x2="28.558" y2="185.178"/>
	<line x1="38.258" y1="180.236" x2="28.558" y2="180.236"/>
	<line x1="38.258" y1="17.188" x2="28.558" y2="17.188"/>
	<line x1="38.258" y1="22.129" x2="28.558" y2="22.129"/>
	<line x1="38.258" y1="27.07" x2="28.558" y2="27.07"/>
	<line x1="38.258" y1="32.011" x2="28.558" y2="32.011"/>
	<path d="M38.258,48.478
		c1.351,0.151,2.692,0.337,4.025,0.612c0.667,0.138,1.325,0.294,1.972,0.512c0.389,0.131,1.626,0.471,1.579,1.137"/>
	<path d="M9.161,87.887
		c0-0.377,0.753-0.579,0.976-0.649c3.853-1.24,14.568-1.341,18.421-1.301"/>
	<path d="M38.258,86.358
		c1.318,0.112,2.631,0.247,3.94,0.446c0.654,0.1,1.304,0.214,1.949,0.371c0.379,0.093,1.753,0.18,1.687,0.879"/>
	<path d="M9.161,125.258
		c0-0.359,0.78-0.391,0.976-0.433c3.849-0.826,14.576-0.893,18.421-0.866"/>
	<path d="M38.258,124.239
		c1.292,0.072,2.581,0.161,3.868,0.29c0.644,0.065,1.286,0.138,1.926,0.239c0.32,0.051,0.638,0.106,0.953,0.182
		c0.123,0.03,0.862,0.19,0.829,0.419"/>
	<path d="M9.161,162.629
		c0-0.321,0.305-0.126,0.472-0.152c0.167-0.026,0.336-0.046,0.504-0.064c6.149-0.66,12.275-0.455,18.421-0.434"/>
	<path d="M38.258,162.12
		c1.272,0.036,2.543,0.079,3.814,0.142c0.635,0.032,1.271,0.068,1.905,0.117c0.317,0.024,0.634,0.051,0.95,0.087
		c0.235,0.027,0.469,0.053,0.7,0.11c0.08,0.019,0.249-0.041,0.207,0.108"/>
	<path d="M9.161,50.517c0-0.69,0.54-0.68,0.976-0.867
		c3.85-1.652,14.55-1.788,18.421-1.734"/>
</g>

</svg>
