

<svg xmlns:agg="http://www.example.com" xmlns="http://www.w3.org/2000/svg" preserveAspectRatio="none" width="2.0104in" height="1.3580in" viewBox="0 0 530 358">

<path style="fill:#666;fill-rule:evenodd" d="M30,180 l3,5 -2,1 -3,-5 2,-1z M26,183 l2,4 -2,2 -2,-5 2,-1z M21,185 l3,5 -3,1 -2,-4 2,-2z M35,177 l3,5 -2,1 -3,-4 2,-2z M40,175 l2,4 -2,1 -2,-4 2,-1z M45,172 l2,4 -2,2 -3,-5 3,-1z M49,169 l3,5 -2,1 -3,-5 2,-1z M54,166 l2,5 -2,1 -2,-4 2,-2z M59,164 l2,4 -2,2 -3,-5 3,-1z M63,161 l3,5 -2,1 -3,-5 2,-1z M68,158 l3,5 -3,1 -2,-4 2,-2z M73,156 l2,4 -2,2 -3,-5 3,-1z M77,153 l3,5 -2,1 -3,-5 2,-1z M82,150 l3,5 -3,1 -2,-4 2,-2z M87,148 l2,4 -2,1 -3,-4 3,-1z M91,145 l3,4 -2,2 -3,-5 2,-1z M96,142 l3,5 -3,1 -2,-5 2,-1z M101,139 l2,5 -2,1 -3,-4 3,-2z M105,137 l3,4 -2,2 -3,-5 2,-1z M110,134 l3,5 -3,1 -2,-5 2,-1z M115,131 l2,5 -2,1 -3,-4 3,-2z M119,129 l3,4 -2,1 -3,-4 2,-1z M124,126 l3,4 -3,2 -2,-5 2,-1z M129,123 l2,5 -2,1 -3,-4 3,-2z M133,121 l3,4 -2,1 -3,-4 2,-1z M138,118 l3,4 -3,2 -2,-5 2,-1z M143,115 l2,5 -2,1 -2,-5 2,-1z M147,112 l3,5 -2,1 -3,-4 2,-2z M152,110 l3,4 -2,2 -3,-5 2,-1z M157,107 l2,5 -2,1 -2,-5 2,-1z M162,104 l2,5 -2,1 -3,-4 3,-2z M166,102 l3,4 -2,1 -3,-4 2,-1z M171,99 l2,4 -2,2 -2,-5 2,-1z M176,96 l2,5 -2,1 -3,-4 3,-2z M180,94 l3,4 -2,1 -3,-4 2,-1z M185,91 l3,4 -3,2 -2,-5 2,-1z M190,88 l2,5 -2,1 -3,-5 3,-1z M194,85 l3,5 -2,1 -3,-4 2,-2z M199,83 l3,4 -3,2 -2,-5 2,-1z M204,80 l2,5 -2,1 -3,-5 3,-1z M208,77 l3,5 -2,1 -3,-4 2,-2z M213,75 l3,4 -3,1 -2,-4 2,-1z M218,72 l2,4 -2,2 -3,-5 3,-1z M222,69 l3,5 -2,1 -3,-4 2,-2z M227,66 l3,5 -3,1 -2,-4 2,-2z M232,64 l2,4 -2,2 -3,-5 3,-1z M236,61 l3,5 -2,1 -3,-5 2,-1z M241,58 l3,5 -3,1 -2,-4 2,-2z M246,56 l2,4 -2,2 -3,-5 3,-1z M250,53 l3,5 -2,1 -3,-5 2,-1z M255,50 l3,5 -3,1 -2,-4 2,-2z M260,48 l2,4 -2,1 -2,-4 2,-1z M264,45 l3,4 -2,2 -3,-5 2,-1z M269,48 l2,2 -251,145 -1,-2 250,-145z M266,41 l1,3 -251,144 -1,-2 251,-145z " />
<path style="fill:none;stroke:#000;stroke-width:2" d="M30,180 l3,5 -2,1 -3,-5 2,-1" />
<path style="fill:none;stroke:#000;stroke-width:2" d="M26,183 l2,4 -2,2 -2,-5 2,-1" />
<path style="fill:none;stroke:#000;stroke-width:2" d="M21,185 l3,5 -3,1 -2,-4 2,-2" />
<path style="fill:none;stroke:#000;stroke-width:2" d="M35,177 l3,5 -2,1 -3,-4 2,-2" />
<path style="fill:none;stroke:#000;stroke-width:2" d="M40,175 l2,4 -2,1 -2,-4 2,-1" />
<path style="fill:none;stroke:#000;stroke-width:2" d="M45,172 l2,4 -2,2 -3,-5 3,-1" />
<path style="fill:none;stroke:#000;stroke-width:2" d="M49,169 l3,5 -2,1 -3,-5 2,-1" />
<path style="fill:none;stroke:#000;stroke-width:2" d="M54,166 l2,5 -2,1 -2,-4 2,-2" />
<path style="fill:none;stroke:#000;stroke-width:2" d="M59,164 l2,4 -2,2 -3,-5 3,-1" />
<path style="fill:none;stroke:#000;stroke-width:2" d="M63,161 l3,5 -2,1 -3,-5 2,-1" />
<path style="fill:none;stroke:#000;stroke-width:2" d="M68,158 l3,5 -3,1 -2,-4 2,-2" />
<path style="fill:none;stroke:#000;stroke-width:2" d="M73,156 l2,4 -2,2 -3,-5 3,-1" />
<path style="fill:none;stroke:#000;stroke-width:2" d="M77,153 l3,5 -2,1 -3,-5 2,-1" />
<path style="fill:none;stroke:#000;stroke-width:2" d="M82,150 l3,5 -3,1 -2,-4 2,-2" />
<path style="fill:none;stroke:#000;stroke-width:2" d="M87,148 l2,4 -2,1 -3,-4 3,-1" />
<path style="fill:none;stroke:#000;stroke-width:2" d="M91,145 l3,4 -2,2 -3,-5 2,-1" />
<path style="fill:none;stroke:#000;stroke-width:2" d="M96,142 l3,5 -3,1 -2,-5 2,-1" />
<path style="fill:none;stroke:#000;stroke-width:2" d="M101,139 l2,5 -2,1 -3,-4 3,-2" />
<path style="fill:none;stroke:#000;stroke-width:2" d="M105,137 l3,4 -2,2 -3,-5 2,-1" />
<path style="fill:none;stroke:#000;stroke-width:2" d="M110,134 l3,5 -3,1 -2,-5 2,-1" />
<path style="fill:none;stroke:#000;stroke-width:2" d="M115,131 l2,5 -2,1 -3,-4 3,-2" />
<path style="fill:none;stroke:#000;stroke-width:2" d="M119,129 l3,4 -2,1 -3,-4 2,-1" />
<path style="fill:none;stroke:#000;stroke-width:2" d="M124,126 l3,4 -3,2 -2,-5 2,-1" />
<path style="fill:none;stroke:#000;stroke-width:2" d="M129,123 l2,5 -2,1 -3,-4 3,-2" />
<path style="fill:none;stroke:#000;stroke-width:2" d="M133,121 l3,4 -2,1 -3,-4 2,-1" />
<path style="fill:none;stroke:#000;stroke-width:2" d="M138,118 l3,4 -3,2 -2,-5 2,-1" />
<path style="fill:none;stroke:#000;stroke-width:2" d="M143,115 l2,5 -2,1 -2,-5 2,-1" />
<path style="fill:none;stroke:#000;stroke-width:2" d="M147,112 l3,5 -2,1 -3,-4 2,-2" />
<path style="fill:none;stroke:#000;stroke-width:2" d="M152,110 l3,4 -2,2 -3,-5 2,-1" />
<path style="fill:none;stroke:#000;stroke-width:2" d="M157,107 l2,5 -2,1 -2,-5 2,-1" />
<path style="fill:none;stroke:#000;stroke-width:2" d="M162,104 l2,5 -2,1 -3,-4 3,-2" />
<path style="fill:none;stroke:#000;stroke-width:2" d="M166,102 l3,4 -2,1 -3,-4 2,-1" />
<path style="fill:none;stroke:#000;stroke-width:2" d="M171,99 l2,4 -2,2 -2,-5 2,-1" />
<path style="fill:none;stroke:#000;stroke-width:2" d="M176,96 l2,5 -2,1 -3,-4 3,-2" />
<path style="fill:none;stroke:#000;stroke-width:2" d="M180,94 l3,4 -2,1 -3,-4 2,-1" />
<path style="fill:none;stroke:#000;stroke-width:2" d="M185,91 l3,4 -3,2 -2,-5 2,-1" />
<path style="fill:none;stroke:#000;stroke-width:2" d="M190,88 l2,5 -2,1 -3,-5 3,-1" />
<path style="fill:none;stroke:#000;stroke-width:2" d="M194,85 l3,5 -2,1 -3,-4 2,-2" />
<path style="fill:none;stroke:#000;stroke-width:2" d="M199,83 l3,4 -3,2 -2,-5 2,-1" />
<path style="fill:none;stroke:#000;stroke-width:2" d="M204,80 l2,5 -2,1 -3,-5 3,-1" />
<path style="fill:none;stroke:#000;stroke-width:2" d="M208,77 l3,5 -2,1 -3,-4 2,-2" />
<path style="fill:none;stroke:#000;stroke-width:2" d="M213,75 l3,4 -3,1 -2,-4 2,-1" />
<path style="fill:none;stroke:#000;stroke-width:2" d="M218,72 l2,4 -2,2 -3,-5 3,-1" />
<path style="fill:none;stroke:#000;stroke-width:2" d="M222,69 l3,5 -2,1 -3,-4 2,-2" />
<path style="fill:none;stroke:#000;stroke-width:2" d="M227,66 l3,5 -3,1 -2,-4 2,-2" />
<path style="fill:none;stroke:#000;stroke-width:2" d="M232,64 l2,4 -2,2 -3,-5 3,-1" />
<path style="fill:none;stroke:#000;stroke-width:2" d="M236,61 l3,5 -2,1 -3,-5 2,-1" />
<path style="fill:none;stroke:#000;stroke-width:2" d="M241,58 l3,5 -3,1 -2,-4 2,-2" />
<path style="fill:none;stroke:#000;stroke-width:2" d="M246,56 l2,4 -2,2 -3,-5 3,-1" />
<path style="fill:none;stroke:#000;stroke-width:2" d="M250,53 l3,5 -2,1 -3,-5 2,-1" />
<path style="fill:none;stroke:#000;stroke-width:2" d="M255,50 l3,5 -3,1 -2,-4 2,-2" />
<path style="fill:none;stroke:#000;stroke-width:2" d="M260,48 l2,4 -2,1 -2,-4 2,-1" />
<path style="fill:none;stroke:#000;stroke-width:2" d="M264,45 l3,4 -2,2 -3,-5 2,-1" />
<path style="fill:none;stroke:#000;stroke-width:2" d="M269,48 l2,2 -251,145 -1,-2 250,-145" />
<path style="fill:none;stroke:#000;stroke-width:2" d="M266,41 l1,3 -251,144 -1,-2 251,-145" />
<path style="fill:#000;stroke:#000;stroke-width:2" d="M16,195 l13,0 0,5 -13,0 0,-5z" />
<path style="fill:#000" d="M19,195 l0,-11 -3,0 0,11 3,0z" />
<path style="fill:none;stroke:#000;stroke-width:2" d="M16,195 l3,0 0,-11 -3,0 0,11" />
<path style="fill:#4c4c4c;stroke:#000;stroke-width:2" d="M24,64 l245,-49 246,49 -491,0z" />
<path style="fill:#ccc" d="M65,64 l204,-49 -245,49 41,0z" />
<path style="fill:#e5e5e5" d="M65,64 l43,0 161,-49 -204,49z" />
<path style="fill:#fff" d="M108,64 l44,0 117,-49 -161,49z" />
<path style="fill:#e5e5e5" d="M152,64 l102,0 15,-49 -117,49z" />
<path style="fill:#ccc" d="M359,64 l-90,-49 -15,49 105,0z" />
<path style="fill:#b2b2b2" d="M431,64 l-162,-49 90,49 72,0z" />
<path style="fill:#7f7f7f" d="M474,64 l-205,-49 162,49 43,0z" />
<path style="fill:#666" d="M497,64 l-228,-49 202,49 26,0z" />
<path style="fill:none;stroke:#000;stroke-width:2" d="M24,64 l245,-49 246,49 -491,0" />
<path style="fill:#4c4c4c" d="M42,62 l468,0 0,281 -468,0 0,-281z" />
<path style="fill:#666" d="M35,62 l463,0 0,281 -463,0 0,-281z" />
<path style="fill:#7f7f7f" d="M35,62 l438,0 0,281 -438,0 0,-281z" />
<path style="fill:#b2b2b2" d="M35,62 l395,0 0,281 -395,0 0,-281z" />
<path style="fill:#ccc" d="M35,62 l322,0 0,281 -322,0 0,-281z" />
<path style="fill:#e5e5e5" d="M35,62 l220,0 0,281 -220,0 0,-281z" />
<path style="fill:#fff" d="M35,62 l117,0 0,281 -117,0 0,-281z" />
<path style="fill:#e5e5e5" d="M35,62 l73,0 0,281 -73,0 0,-281z" />
<path style="fill:#ccc" d="M28,62 l37,0 0,281 -37,0 0,-281z" />
<path style="fill:none;stroke:#000;stroke-width:2" d="M28,62 l482,0 0,281 -482,0 0,-281" />
<path style="fill:#666" d="M24,62 l491,0 0,5 -491,0 0,-5z" />
<path style="fill:none;stroke:#e5e5e5;stroke-width:2" d="M35,62 l-11,0 0,5" />
<path style="fill:none;stroke:#e5e5e5;stroke-width:2" d="M515,62 l-480,0" />
<path style="fill:none;stroke:#000;stroke-width:2" d="M24,67 l491,0 0,-5" />
<path style="fill:none;stroke:#000;stroke-width:2" d="M29,56 l486,0" />
<path style="fill:none;stroke:#000;stroke-width:2" d="M34,62 l0,-6" />
<path style="fill:none;stroke:#000;stroke-width:2" d="M59,62 l0,-6" />
<path style="fill:none;stroke:#000;stroke-width:2" d="M83,62 l0,-6" />
<path style="fill:none;stroke:#000;stroke-width:2" d="M108,62 l0,-6" />
<path style="fill:none;stroke:#000;stroke-width:2" d="M132,62 l0,-6" />
<path style="fill:none;stroke:#000;stroke-width:2" d="M157,62 l0,-6" />
<path style="fill:none;stroke:#000;stroke-width:2" d="M181,62 l0,-6" />
<path style="fill:none;stroke:#000;stroke-width:2" d="M206,62 l0,-6" />
<path style="fill:none;stroke:#000;stroke-width:2" d="M231,62 l0,-6" />
<path style="fill:none;stroke:#000;stroke-width:2" d="M255,62 l0,-6" />
<path style="fill:none;stroke:#000;stroke-width:2" d="M280,62 l0,-6" />
<path style="fill:none;stroke:#000;stroke-width:2" d="M304,62 l0,-6" />
<path style="fill:none;stroke:#000;stroke-width:2" d="M329,62 l0,-6" />
<path style="fill:none;stroke:#000;stroke-width:2" d="M353,62 l0,-6" />
<path style="fill:none;stroke:#000;stroke-width:2" d="M378,62 l0,-6" />
<path style="fill:none;stroke:#000;stroke-width:2" d="M402,62 l0,-6" />
<path style="fill:none;stroke:#000;stroke-width:2" d="M427,62 l0,-6" />
<path style="fill:none;stroke:#000;stroke-width:2" d="M452,62 l0,-6" />
<path style="fill:none;stroke:#000;stroke-width:2" d="M476,62 l0,-6" />
<path style="fill:none;stroke:#000;stroke-width:2" d="M501,62 l0,-6" />
<path style="fill:#7f7f7f;stroke:#000;stroke-width:2" d="M262,335 l13,0 0,5 -13,0 0,-5z" />
<path style="fill:#666;fill-rule:evenodd" d="M34,197 l-3,5 -2,-2 3,-4 2,1z M29,194 l-2,5 -3,-1 3,-5 2,1z M25,192 l-3,4 -2,-1 2,-5 3,2z M39,200 l-3,4 -2,-1 2,-4 3,1z M43,203 l-2,4 -2,-1 2,-5 2,2z M48,205 l-3,5 -2,-1 3,-5 2,1z M53,208 l-3,5 -2,-2 2,-4 3,1z M57,211 l-2,4 -2,-1 2,-5 2,2z M62,213 l-3,5 -2,-1 3,-5 2,1z M67,216 l-3,5 -2,-2 3,-4 2,1z M71,219 l-2,4 -2,-1 2,-4 2,1z M76,222 l-2,4 -3,-1 3,-5 2,2z M81,224 l-3,5 -2,-2 3,-4 2,1z M86,227 l-3,4 -2,-1 2,-4 3,1z M90,230 l-2,4 -3,-1 3,-5 2,2z M95,232 l-3,5 -2,-1 3,-5 2,1z M100,235 l-3,5 -2,-2 2,-4 3,1z M104,238 l-2,4 -3,-1 3,-5 2,2z M109,240 l-3,5 -2,-1 3,-5 2,1z M114,243 l-3,5 -2,-2 2,-4 3,1z M118,246 l-2,4 -3,-1 3,-4 2,1z M123,249 l-3,4 -2,-1 3,-5 2,2z M128,251 l-3,5 -2,-2 2,-4 3,1z M132,254 l-2,4 -3,-1 3,-4 2,1z M137,257 l-3,4 -2,-1 3,-5 2,2z M142,259 l-3,5 -2,-1 2,-5 3,1z M146,262 l-2,5 -3,-2 3,-4 2,1z M151,265 l-3,4 -2,-1 3,-5 2,2z M156,267 l-3,5 -2,-1 2,-5 3,1z M160,270 l-2,5 -2,-2 2,-4 2,1z M165,273 l-3,4 -2,-1 3,-4 2,1z M170,276 l-3,4 -2,-1 2,-5 3,2z M174,278 l-2,5 -2,-2 2,-4 2,1z M179,281 l-3,4 -2,-1 3,-4 2,1z M184,284 l-3,4 -2,-1 3,-5 2,2z M188,286 l-2,5 -2,-1 2,-5 2,1z M193,289 l-2,5 -3,-2 3,-4 2,1z M198,292 l-3,4 -2,-1 3,-5 2,2z M203,294 l-3,5 -2,-1 2,-5 3,1z M207,297 l-2,5 -3,-2 3,-4 2,1z M212,300 l-3,4 -2,-1 3,-4 2,1z M217,303 l-3,4 -2,-1 2,-5 3,2z M221,305 l-2,5 -3,-1 3,-5 2,1z M226,308 l-3,5 -2,-2 3,-4 2,1z M231,311 l-3,4 -2,-1 2,-5 3,2z M235,313 l-2,5 -3,-1 3,-5 2,1z M240,316 l-3,5 -2,-2 3,-4 2,1z M245,319 l-3,4 -2,-1 2,-5 3,2z M249,321 l-2,5 -3,-1 3,-5 2,1z M254,324 l-3,5 -2,-2 3,-4 2,1z M259,327 l-3,4 -2,-1 2,-4 3,1z M263,330 l-2,4 -3,-1 3,-5 2,2z M268,332 l-3,5 -2,-1 3,-5 2,1z M268,338 l-2,2 -250,-144 1,-2 251,144z M272,331 l-2,3 -250,-145 1,-2 251,144z " />
<path style="fill:none;stroke:#000;stroke-width:2" d="M34,197 l-3,5 -2,-2 3,-4 2,1" />
<path style="fill:none;stroke:#000;stroke-width:2" d="M29,194 l-2,5 -3,-1 3,-5 2,1" />
<path style="fill:none;stroke:#000;stroke-width:2" d="M25,192 l-3,4 -2,-1 2,-5 3,2" />
<path style="fill:none;stroke:#000;stroke-width:2" d="M39,200 l-3,4 -2,-1 2,-4 3,1" />
<path style="fill:none;stroke:#000;stroke-width:2" d="M43,203 l-2,4 -2,-1 2,-5 2,2" />
<path style="fill:none;stroke:#000;stroke-width:2" d="M48,205 l-3,5 -2,-1 3,-5 2,1" />
<path style="fill:none;stroke:#000;stroke-width:2" d="M53,208 l-3,5 -2,-2 2,-4 3,1" />
<path style="fill:none;stroke:#000;stroke-width:2" d="M57,211 l-2,4 -2,-1 2,-5 2,2" />
<path style="fill:none;stroke:#000;stroke-width:2" d="M62,213 l-3,5 -2,-1 3,-5 2,1" />
<path style="fill:none;stroke:#000;stroke-width:2" d="M67,216 l-3,5 -2,-2 3,-4 2,1" />
<path style="fill:none;stroke:#000;stroke-width:2" d="M71,219 l-2,4 -2,-1 2,-4 2,1" />
<path style="fill:none;stroke:#000;stroke-width:2" d="M76,222 l-2,4 -3,-1 3,-5 2,2" />
<path style="fill:none;stroke:#000;stroke-width:2" d="M81,224 l-3,5 -2,-2 3,-4 2,1" />
<path style="fill:none;stroke:#000;stroke-width:2" d="M86,227 l-3,4 -2,-1 2,-4 3,1" />
<path style="fill:none;stroke:#000;stroke-width:2" d="M90,230 l-2,4 -3,-1 3,-5 2,2" />
<path style="fill:none;stroke:#000;stroke-width:2" d="M95,232 l-3,5 -2,-1 3,-5 2,1" />
<path style="fill:none;stroke:#000;stroke-width:2" d="M100,235 l-3,5 -2,-2 2,-4 3,1" />
<path style="fill:none;stroke:#000;stroke-width:2" d="M104,238 l-2,4 -3,-1 3,-5 2,2" />
<path style="fill:none;stroke:#000;stroke-width:2" d="M109,240 l-3,5 -2,-1 3,-5 2,1" />
<path style="fill:none;stroke:#000;stroke-width:2" d="M114,243 l-3,5 -2,-2 2,-4 3,1" />
<path style="fill:none;stroke:#000;stroke-width:2" d="M118,246 l-2,4 -3,-1 3,-4 2,1" />
<path style="fill:none;stroke:#000;stroke-width:2" d="M123,249 l-3,4 -2,-1 3,-5 2,2" />
<path style="fill:none;stroke:#000;stroke-width:2" d="M128,251 l-3,5 -2,-2 2,-4 3,1" />
<path style="fill:none;stroke:#000;stroke-width:2" d="M132,254 l-2,4 -3,-1 3,-4 2,1" />
<path style="fill:none;stroke:#000;stroke-width:2" d="M137,257 l-3,4 -2,-1 3,-5 2,2" />
<path style="fill:none;stroke:#000;stroke-width:2" d="M142,259 l-3,5 -2,-1 2,-5 3,1" />
<path style="fill:none;stroke:#000;stroke-width:2" d="M146,262 l-2,5 -3,-2 3,-4 2,1" />
<path style="fill:none;stroke:#000;stroke-width:2" d="M151,265 l-3,4 -2,-1 3,-5 2,2" />
<path style="fill:none;stroke:#000;stroke-width:2" d="M156,267 l-3,5 -2,-1 2,-5 3,1" />
<path style="fill:none;stroke:#000;stroke-width:2" d="M160,270 l-2,5 -2,-2 2,-4 2,1" />
<path style="fill:none;stroke:#000;stroke-width:2" d="M165,273 l-3,4 -2,-1 3,-4 2,1" />
<path style="fill:none;stroke:#000;stroke-width:2" d="M170,276 l-3,4 -2,-1 2,-5 3,2" />
<path style="fill:none;stroke:#000;stroke-width:2" d="M174,278 l-2,5 -2,-2 2,-4 2,1" />
<path style="fill:none;stroke:#000;stroke-width:2" d="M179,281 l-3,4 -2,-1 3,-4 2,1" />
<path style="fill:none;stroke:#000;stroke-width:2" d="M184,284 l-3,4 -2,-1 3,-5 2,2" />
<path style="fill:none;stroke:#000;stroke-width:2" d="M188,286 l-2,5 -2,-1 2,-5 2,1" />
<path style="fill:none;stroke:#000;stroke-width:2" d="M193,289 l-2,5 -3,-2 3,-4 2,1" />
<path style="fill:none;stroke:#000;stroke-width:2" d="M198,292 l-3,4 -2,-1 3,-5 2,2" />
<path style="fill:none;stroke:#000;stroke-width:2" d="M203,294 l-3,5 -2,-1 2,-5 3,1" />
<path style="fill:none;stroke:#000;stroke-width:2" d="M207,297 l-2,5 -3,-2 3,-4 2,1" />
<path style="fill:none;stroke:#000;stroke-width:2" d="M212,300 l-3,4 -2,-1 3,-4 2,1" />
<path style="fill:none;stroke:#000;stroke-width:2" d="M217,303 l-3,4 -2,-1 2,-5 3,2" />
<path style="fill:none;stroke:#000;stroke-width:2" d="M221,305 l-2,5 -3,-1 3,-5 2,1" />
<path style="fill:none;stroke:#000;stroke-width:2" d="M226,308 l-3,5 -2,-2 3,-4 2,1" />
<path style="fill:none;stroke:#000;stroke-width:2" d="M231,311 l-3,4 -2,-1 2,-5 3,2" />
<path style="fill:none;stroke:#000;stroke-width:2" d="M235,313 l-2,5 -3,-1 3,-5 2,1" />
<path style="fill:none;stroke:#000;stroke-width:2" d="M240,316 l-3,5 -2,-2 3,-4 2,1" />
<path style="fill:none;stroke:#000;stroke-width:2" d="M245,319 l-3,4 -2,-1 2,-5 3,2" />
<path style="fill:none;stroke:#000;stroke-width:2" d="M249,321 l-2,5 -3,-1 3,-5 2,1" />
<path style="fill:none;stroke:#000;stroke-width:2" d="M254,324 l-3,5 -2,-2 3,-4 2,1" />
<path style="fill:none;stroke:#000;stroke-width:2" d="M259,327 l-3,4 -2,-1 2,-4 3,1" />
<path style="fill:none;stroke:#000;stroke-width:2" d="M263,330 l-2,4 -3,-1 3,-5 2,2" />
<path style="fill:none;stroke:#000;stroke-width:2" d="M268,332 l-3,5 -2,-1 3,-5 2,1" />
<path style="fill:none;stroke:#000;stroke-width:2" d="M268,338 l-2,2 -250,-144 1,-2 251,144" />
<path style="fill:none;stroke:#000;stroke-width:2" d="M272,331 l-2,3 -250,-145 1,-2 251,144" />
<path style="fill:#666" d="M24,339 l491,0 0,4 -491,0 0,-4z" />
<path style="fill:none;stroke:#e5e5e5;stroke-width:2" d="M35,339 l-11,0 0,4" />
<path style="fill:none;stroke:#e5e5e5;stroke-width:2" d="M515,339 l-480,0" />
<path style="fill:none;stroke:#000;stroke-width:2" d="M24,343 l491,0 0,-4" />

</svg>
