 

<svg xmlns:agg="http://www.example.com" xmlns="http://www.w3.org/2000/svg" preserveAspectRatio="none" width="1.6083in" height="0.9370in" viewBox="0 0 999 582">

<path style="fill:#661900" d="M970,475 l0,-334 -941,0 0,334 21,23 25,11 34,10 27,6 31,5 34,5 36,5 39,4 41,3 43,3 45,2 47,1 23,0 25,0 48,0 46,-1 45,-2 43,-3 42,-3 39,-4 36,-5 33,-5 30,-5 28,-6 34,-10 25,-11 21,-19 0,-4z" />
<path style="fill:#752800" d="M925,508 l0,-86 0,-12 0,-11 0,-160 0,-38 0,-60 -160,0 -26,0 -27,0 -451,0 -53,0 -106,0 -27,0 0,367 28,9 33,7 31,6 36,5 27,4 29,3 31,3 33,2 36,3 38,1 39,2 21,0 21,0 22,0 43,0 41,-1 38,-1 37,-2 34,-3 32,-3 30,-3 28,-3 37,-5 32,-6 28,-6 29,-7 16,-5z" />
<path style="fill:#823502" d="M879,521 l0,-380 -759,0 0,380 30,6 32,5 29,4 34,4 38,4 28,2 31,3 32,1 34,2 35,1 19,0 18,0 20,0 38,0 37,-1 35,-1 34,-2 31,-2 29,-2 28,-3 37,-4 33,-4 28,-4 28,-5 18,-3 3,-1z" />
<path style="fill:#914411" d="M834,530 l0,-389 -668,0 0,388 28,5 28,4 35,4 31,3 35,2 38,3 28,1 30,1 31,1 16,0 17,0 17,0 34,0 32,-1 31,-1 29,-1 27,-1 39,-3 34,-3 30,-3 33,-4 30,-4 12,-2 3,0z" />
<path style="fill:#9e511e" d="M788,536 l0,-395 -576,0 0,395 31,4 33,4 33,2 29,3 32,1 35,2 38,1 14,0 14,0 14,0 44,0 41,-1 39,-1 35,-1 32,-2 28,-3 32,-2 30,-4 19,-2 3,-1z" />
<path style="fill:#ad602d" d="M742,542 l0,-401 -484,0 0,401 28,3 28,2 28,2 32,2 36,1 32,1 22,0 11,0 13,0 36,0 36,0 32,-1 30,-1 27,-2 32,-2 31,-3 28,-2 2,0z" />
<path style="fill:#ba6d3a" d="M696,545 l0,-404 -392,0 0,405 27,2 29,2 38,2 30,0 34,1 18,0 40,0 37,0 33,-1 29,-1 36,-2 32,-3 9,-1z" />
<path style="fill:#c97c49" d="M650,548 l0,-407 -301,0 0,408 30,2 30,1 28,1 34,0 59,0 41,-1 34,-1 32,-1 13,-2z" />
<path style="fill:#d68956" d="M605,551 l0,-410 -210,0 0,410 31,1 30,1 15,0 50,0 35,0 31,-1 18,-1z" />
<path style="fill:#e59865" d="M559,552 l0,-411 -118,0 0,411 30,1 8,0 41,0 31,-1 8,0z" />
<path style="fill:none;stroke:#000;stroke-width:2" d="M970,475 l0,-334 -941,0 0,334 21,23 25,11 34,10 27,6 31,5 34,5 36,5 39,4 41,3 43,3 45,2 47,1 23,0 25,0 48,0 46,-1 45,-2 43,-3 42,-3 39,-4 36,-5 33,-5 30,-5 28,-6 34,-10 25,-11 21,-19 0,-4" />
<path style="fill:#661900" d="M970,219 l0,-73 -941,0 0,73 21,24 25,10 34,10 27,6 31,6 34,5 36,4 39,5 41,3 43,2 45,2 47,2 23,0 25,0 48,0 46,-2 45,-2 43,-2 42,-3 39,-5 36,-4 33,-5 30,-6 28,-6 34,-10 25,-10 21,-20 0,-4z" />
<path style="fill:#664f40" d="M970,200 l0,-59 -941,0 0,59 21,23 25,11 34,10 27,6 31,6 34,5 36,4 39,4 41,3 43,3 45,2 47,1 23,0 25,0 48,0 46,-1 45,-2 43,-3 42,-3 39,-4 36,-4 33,-5 30,-6 28,-6 34,-10 25,-11 21,-19 0,-4z" />
<path style="fill:#755e4f" d="M925,233 l0,-92 -850,0 0,92 26,8 32,8 31,5 36,6 28,3 29,4 32,3 33,2 36,3 38,2 40,1 21,0 21,0 22,0 43,0 40,-1 39,-1 35,-2 34,-2 32,-3 30,-3 27,-3 37,-6 32,-5 28,-6 30,-8 12,-3 6,-2z" />
<path style="fill:#826b5c" d="M879,246 l0,-105 -759,0 0,105 29,6 31,5 30,4 34,4 39,4 28,2 30,2 32,2 34,2 36,1 19,0 18,0 20,0 39,0 37,-1 35,-1 34,-2 32,-2 31,-2 28,-3 38,-4 33,-4 28,-4 27,-5 15,-3 2,-1z" />
<path style="fill:#917a6b" d="M834,254 l0,-113 -668,0 0,113 30,5 28,4 35,4 30,3 35,3 38,2 28,1 29,1 31,1 16,0 17,0 17,0 34,0 33,0 31,-1 30,-2 28,-2 40,-2 35,-3 31,-3 33,-4 28,-5 9,-1 2,-1z" />
<path style="fill:#9e8778" d="M788,262 l0,-121 -576,0 0,120 30,4 33,4 34,3 28,2 32,1 36,2 38,1 14,0 14,0 14,0 30,0 28,0 41,-1 39,-1 35,-2 32,-2 28,-3 30,-2 27,-4 11,-1 2,0z" />
<path style="fill:#ad9687" d="M742,267 l0,-126 -484,0 0,126 29,2 29,3 29,2 35,2 29,1 32,1 23,0 11,0 13,0 36,0 36,0 32,-1 30,-1 28,-2 32,-2 31,-3 28,-2 1,0z" />
<path style="fill:#baa394" d="M696,271 l0,-130 -392,0 0,130 31,2 33,2 42,2 33,1 37,0 40,0 37,0 34,-1 31,-1 36,-2 31,-3 7,0z" />
<path style="fill:#c9b2a3" d="M650,275 l0,-134 -301,0 0,133 34,2 38,1 36,1 13,0 60,0 39,0 33,-1 31,-2 17,0z" />
<path style="fill:#d6bfb0" d="M605,276 l0,-135 -210,0 0,135 10,1 14,0 12,1 14,0 16,0 9,0 60,0 17,0 15,0 13,-1 11,0 13,-1 6,0z" />
<path style="fill:#e5cebf" d="M559,277 l0,-136 -118,0 0,136 11,1 12,0 11,0 4,0 41,0 12,0 10,0 11,0 6,-1z" />
<path style="fill:none;stroke:#000;stroke-width:2" d="M970,200 l0,-59 -941,0 0,59 21,23 25,11 34,10 27,6 31,6 34,5 36,4 39,4 41,3 43,3 45,2 47,1 23,0 25,0 48,0 46,-1 45,-2 43,-3 42,-3 39,-4 36,-4 33,-5 30,-6 28,-6 34,-10 25,-11 21,-19 0,-4" />
<ellipse style="fill:#f2dbcc;stroke:#000;stroke-width:2" cx="499" cy="142" rx="470" ry="59" />
<ellipse style="fill:#826b5c;stroke:#000;stroke-width:2" cx="499" cy="138" rx="392" ry="43" />
<ellipse style="fill:#596d8c" cx="501" cy="151" rx="367" ry="29" />
<path style="fill:#826b5c;stroke:#000;stroke-width:2" d="M636,395 l78,21 212,-30 0,-15 -212,25 -78,-21 0,20z" />
<path style="fill:#e5cebf;stroke:#000;stroke-width:2" d="M636,376 l78,20 212,-25 -78,-15 -212,20z" />
<path style="fill:none;stroke:#000;stroke-width:2" d="M665,118 l-30,1 -31,1 -31,0 -32,1 -11,0 -10,0 -45,0 -48,-1 -45,0 -45,-2 -42,-2 -40,-2 -37,-2 -36,-3 -31,-3 -29,-4 -37,-5 -29,-6 -26,-12 -2,-2 0,-2 0,-3 28,-13 29,-7 37,-5 29,-4 31,-3 36,-3 37,-2 40,-3 42,-1 45,-2 45,-1 24,0 24,0 24,0 48,0 47,1 45,1 43,2 41,1 39,3 36,2 34,4 30,3 27,4 35,5 25,7 21,11 0,3 -1,2 -27,13 -34,8 -30,4 -35,4 -39,4 -22,2" />
<path style="fill:none;stroke:#000;stroke-width:2" d="M665,147 l-30,1 -31,1 -31,1 -32,0 -11,1 -10,0 -45,0 -48,-1 -45,-1 -45,-2 -42,-1 -40,-3 -37,-3 -36,-3 -31,-3 -29,-4 -37,-6 -29,-7 -23,-10 -5,-5 0,-3 0,-2 28,-16 29,-7 37,-6 29,-4 31,-3 36,-3 37,-3 40,-3 42,-2 45,-1 45,-1 24,0 24,-1 24,0 48,1 47,0 45,1 43,2 41,3 39,2 36,3 34,3 30,4 27,4 35,7 25,7 21,13 0,2 -1,3 -27,15 -34,8 -30,5 -35,4 -39,4 -22,2" />
<path style="fill:none;stroke:#000;stroke-width:2" d="M665,176 l-30,1 -31,1 -31,1 -32,1 -11,0 -10,0 -11,0 -34,0 -48,-1 -45,-1 -45,-2 -42,-2 -40,-2 -37,-3 -36,-4 -31,-4 -29,-4 -37,-7 -29,-7 -23,-11 -5,-6 0,-2 0,-3 28,-17 29,-7 37,-7 29,-4 31,-4 36,-4 37,-3 40,-2 42,-3 45,-1 45,-1 24,-1 24,0 24,0 48,0 47,1 45,2 43,1 41,3 39,3 36,3 34,4 30,4 27,4 35,7 25,8 21,14 0,3 -1,3 -27,16 -34,9 -30,5 -35,5 -39,5 -22,2" />
<path style="fill:none;stroke:#000;stroke-width:2" d="M406,28 l0,59" />
<path style="fill:none;stroke:#000;stroke-width:2" d="M592,28 l0,59" />
<path style="fill:none;stroke:#000;stroke-width:2" d="M784,38 l0,58" />
<path style="fill:none;stroke:#000;stroke-width:2" d="M970,82 l0,59" />
<path style="fill:none;stroke:#000;stroke-width:2" d="M391,200 l0,-79" />
<path style="fill:none;stroke:#000;stroke-width:2" d="M607,200 l0,-79" />
<path style="fill:none;stroke:#000;stroke-width:2" d="M827,187 l0,-76" />
<path style="fill:none;stroke:#000;stroke-width:2" d="M28,82 l0,59" />
<path style="fill:none;stroke:#000;stroke-width:2" d="M214,38 l0,58" />
<path style="fill:none;stroke:#000;stroke-width:2" d="M171,187 l0,-76" />
<path style="fill:none;stroke:#000;stroke-width:2" d="M700,376 l0,-283" />
<path style="fill:none;stroke:#000;stroke-width:2" d="M749,90 l0,282" />
<path style="fill:none;stroke:#000;stroke-width:2" d="M700,118 l49,-4" />
<path style="fill:none;stroke:#000;stroke-width:2" d="M700,157 l49,-4" />
<path style="fill:none;stroke:#000;stroke-width:2" d="M700,196 l49,-3" />
<path style="fill:none;stroke:#000;stroke-width:2" d="M700,236 l49,-4" />
<path style="fill:none;stroke:#000;stroke-width:2" d="M700,275 l49,-4" />
<path style="fill:none;stroke:#000;stroke-width:2" d="M700,314 l49,-3" />
<path style="fill:none;stroke:#000;stroke-width:2" d="M700,354 l49,-4" />
<path style="fill:none;stroke:#000;stroke-width:2" d="M926,372 l0,-79" />
<path style="fill:none;stroke:#000;stroke-width:2" d="M715,396 l0,-78" />
<path style="fill:none;stroke:#000;stroke-width:2" d="M637,357 l78,19 211,-24 -74,-15" />
<path style="fill:none;stroke:#000;stroke-width:2" d="M637,327 l78,20 211,-24 -74,-15" />
<path style="fill:none;stroke:#000;stroke-width:2" d="M637,298 l78,20 211,-25 -74,-15" />

</svg>
