

<svg xmlns:agg="http://www.example.com" xmlns="http://www.w3.org/2000/svg" preserveAspectRatio="none" width="0.7714in" height="1.4792in" viewBox="0 0 521 999">

<path style="fill:#699;stroke:#000;stroke-width:2" d="M415,37 l37,0 0,140 -37,0 0,-140z" />
<path style="fill:#699;stroke:#000;stroke-width:2" d="M67,37 l37,0 0,140 -37,0 0,-140z" />
<path style="fill:#8fc2c2" d="M418,37 l4,0 26,0 0,140 -30,0 0,-15 1,-12 0,-9 0,-17 0,-16 0,-10 0,-11 0,-15 0,-16 -1,-19z" />
<path style="fill:#8fc2c2" d="M71,37 l3,0 26,0 0,140 -29,0 0,-140z" />
<path style="fill:#cff" d="M426,37 l14,0 0,140 -14,0 0,-140z" />
<path style="fill:#cff" d="M79,37 l13,0 0,140 -13,0 0,-140z" />
<path style="fill:#699" d="M491,699 l-23,20 -23,11 -30,11 -26,8 -29,7 -32,5 -33,4 -12,0 -12,1 -12,0 -35,-1 -33,-4 -32,-5 -29,-7 -26,-8 -30,-11 -23,-11 -22,-16 -1,-2 0,-2 0,-522 14,-25 25,-15 29,-11 25,-7 28,-6 31,-4 33,-3 23,-1 12,-1 11,0 36,1 33,3 32,3 29,6 26,7 30,10 23,12 21,20 2,7 0,4 0,522z" />
<path style="fill:#7aadad" d="M454,699 l-24,23 -33,18 -30,10 -32,10 -37,6 -19,1 -20,1 -19,-1 -38,-4 -34,-8 -31,-10 -26,-11 -29,-17 -14,-14 -1,-4 0,-15 0,-507 15,-28 29,-18 26,-10 31,-8 34,-5 38,-3 19,-1 20,1 38,3 34,5 31,8 27,10 29,18 15,21 1,7 0,16 0,506z" />
<path style="fill:#8fc2c2" d="M417,699 l-1,4 -18,19 -28,18 -23,10 -27,10 -29,6 -16,1 -16,1 -15,-1 -30,-4 -28,-8 -25,-10 -30,-17 -20,-17 -6,-8 -1,-4 0,-15 0,-507 13,-28 23,-18 33,-14 26,-7 30,-4 15,-1 15,-1 16,1 31,3 28,5 25,8 31,16 19,19 7,14 1,7 0,16 0,506z" />
<path style="fill:#a3d6d6" d="M377,699 l-14,23 -19,18 -28,15 -32,11 -12,1 -13,1 -12,-1 -33,-7 -30,-15 -22,-17 -18,-21 -2,-4 0,-4 0,-15 0,-507 9,-28 25,-23 27,-13 33,-7 11,-1 12,-1 13,1 34,5 29,11 23,16 17,26 3,30 0,27 0,35 1,30 0,56 0,10 0,12 0,88 -1,41 0,48 0,57 0,31 0,35 -1,36z" />
<path style="fill:#b8ebeb" d="M340,699 l-14,29 -21,22 -29,16 -8,1 -9,1 -8,-1 -30,-12 -24,-21 -15,-23 -3,-8 0,-4 0,-15 0,-507 6,-28 17,-23 26,-16 23,-5 8,-1 9,1 30,8 24,18 14,25 4,14 0,7 0,16 0,506z" />
<path style="fill:#cff" d="M303,699 l-8,28 -15,27 -16,11 -5,1 -4,-1 -23,-21 -12,-28 -3,-13 -1,-4 0,-522 4,-28 12,-28 23,-16 4,-1 5,1 23,16 12,28 3,21 1,7 0,522z" />
<path style="fill:none;stroke:#000;stroke-width:2" d="M491,699 l-23,20 -23,11 -30,11 -26,8 -29,7 -32,5 -33,4 -12,0 -12,1 -12,0 -35,-1 -33,-4 -32,-5 -29,-7 -26,-8 -30,-11 -23,-11 -22,-16 -1,-2 0,-2 0,-522 14,-25 25,-15 29,-11 25,-7 28,-6 31,-4 33,-3 23,-1 12,-1 11,0 36,1 33,3 32,3 29,6 26,7 30,10 23,12 21,20 2,7 0,4 0,522" />
<path style="fill:none;stroke:#000;stroke-width:2" d="M28,177 l463,0 0,29 -463,0 0,-29" />
<path style="fill:none;stroke:#000;stroke-width:2" d="M30,699 l455,0" />
<path style="fill:none;stroke:#000;stroke-width:2" d="M30,589 l463,0 0,51 -463,0 0,-51" />
<path style="fill:none;stroke:#000;stroke-width:2" d="M30,328 l463,0 0,49 -463,0 0,-49" />
<path style="fill:#699;stroke:#000;stroke-width:2" d="M259,67 l116,0 -2,15 -3,7 -4,7 -4,7 -6,6 -7,6 -7,6 -9,5 -8,4 -10,4 -10,3 -11,3 -11,2 -11,1 -13,1 -11,-1 -12,-1 -11,-2 -10,-3 -10,-3 -10,-4 -9,-4 -8,-5 -8,-6 -7,-6 -5,-6 -5,-7 -4,-7 -5,-15 0,-7 115,0z" />
<ellipse style="fill:#b2e5e5" cx="259" cy="66" rx="115" ry="38" />
<ellipse style="fill:#9cc" cx="260" cy="75" rx="97" ry="28" />
<ellipse style="fill:#7fb2b2" cx="260" cy="85" rx="77" ry="18" />
<ellipse style="fill:none;stroke:#000;stroke-width:2" cx="259" cy="66" rx="115" ry="38" />
<path style="fill:#699;stroke:#000;stroke-width:2" d="M401,937 l0,-271 51,33 0,238 18,0 0,16 -85,0 0,-16 16,0z" />
<path style="fill:#699;stroke:#000;stroke-width:2" d="M114,937 l0,-271 -51,33 0,238 -18,0 0,16 85,0 0,-16 -16,0z" />
<path style="fill:#366;stroke:#000;stroke-width:2" d="M30,953 l117,0 0,17 -117,0 0,-17z" />
<path style="fill:#366;stroke:#000;stroke-width:2" d="M367,953 l118,0 0,17 -118,0 0,-17z" />

</svg>
