 

<svg xmlns:agg="http://www.example.com" xmlns="http://www.w3.org/2000/svg" preserveAspectRatio="none" width="1.2302in" height="1.0750in" viewBox="0 0 999 873">

<path style="fill:#666;stroke:#000;stroke-width:2" d="M346,497 l16,0 0,318 -16,0 0,-318z" />
<path style="fill:#666" d="M775,189 l34,34 -531,531 -34,-34 531,-531z" />
<path style="fill:#999" d="M786,201 l11,11 -530,531 -12,-12 531,-530z" />
<path style="fill:none;stroke:#000;stroke-width:2" d="M775,189 l34,34 -472,472 -36,-34 474,-472" />
<path style="fill:#e5e5e5" d="M727,235 l36,34 -369,369 -34,-34 367,-369z" />
<path style="fill:#fff" d="M738,246 l12,12 -367,368 -11,-11 366,-369z" />
<path style="fill:none;stroke:#000;stroke-width:2" d="M727,235 l36,34 -369,369 -34,-34 367,-369" />
<path style="fill:#999;stroke:#000;stroke-width:2" d="M750,167 l70,-69 57,57 0,91 -46,0 -81,-79z" />
<path style="fill:#4c4c4c" d="M843,121 l34,34 68,-68 -34,-36 -68,70z" />
<path style="fill:#7f7f7f" d="M854,132 l12,12 68,-69 -11,-13 -69,70z" />
<path style="fill:none;stroke:#000;stroke-width:2" d="M843,121 l34,34 68,-68 -34,-36 -68,70" />
<path style="fill:#333;stroke:#000;stroke-width:2" d="M911,28 l59,59 -13,11 -57,-59 11,-11z" />
<path style="fill:none;stroke:#000;stroke-width:2" d="M775,167 l56,56" />
<path style="fill:none;stroke:#fff;stroke-width:2" d="M820,121 l-45,46" />
<path style="fill:#666" d="M267,626 l34,35 -57,59 -34,-36 57,-58z" />
<path style="fill:none;stroke:#000;stroke-width:2" d="M267,626 l70,69 -59,59 -68,-70 57,-58" />
<path style="fill:#ccc;stroke:#000;stroke-width:2" d="M827,246 l54,0 0,18 -54,0 0,-18z" />
<path style="fill:#666;stroke:#000;stroke-width:2" d="M57,497 l16,0 0,318 -16,0 0,-318z" />
<path style="fill:#999;stroke:#000;stroke-width:2" d="M240,724 l-60,0 -136,-198 0,-29 332,0 0,29 -136,198z" />
<path style="fill:#ccc;stroke:#000;stroke-width:2" d="M28,481 l364,0 0,16 -364,0 0,-16z" />
<path style="fill:none;stroke:#000;stroke-width:2" d="M44,526 l332,0" />
<path style="fill:#b2b2b2;stroke:#000;stroke-width:2" d="M317,497 l75,75 0,16 -91,-91 16,0z" />
<path style="fill:#b2b2b2;stroke:#000;stroke-width:2" d="M28,572 l75,-75 16,0 -91,91 0,-16z" />
<path style="fill:#b2b2b2;stroke:#000;stroke-width:2" d="M28,497 l23,0 0,348 -23,0 0,-348z" />
<path style="fill:#b2b2b2;stroke:#000;stroke-width:2" d="M369,497 l23,0 0,348 -23,0 0,-348z" />
<path style="fill:#7f7f7f;stroke:#000;stroke-width:2" d="M171,715 l77,0 0,16 -77,0 0,-16z" />

</svg>
