 

<svg xmlns:agg="http://www.example.com" xmlns="http://www.w3.org/2000/svg" preserveAspectRatio="none" width="0.7027in" height="1.0750in" viewBox="0 0 653 999">

<path style="fill:#b2b2aa" d="M28,75 l0,672 75,151 224,72 225,-72 73,-151 0,-672 -42,0 0,-47 -144,0 0,47 -411,0z" />
<path style="fill:#b8b8b0" d="M48,75 l0,672 70,148 209,75 210,-75 69,-148 0,-672 -558,0z" />
<path style="fill:#babab2" d="M69,75 l0,672 64,148 194,75 195,-75 64,-148 0,-672 -517,0z" />
<path style="fill:#bfbfb7" d="M88,75 l0,672 60,148 179,75 179,-75 61,-148 0,-672 -479,0z" />
<path style="fill:#c2c2bd" d="M108,75 l0,672 55,148 164,75 165,-75 54,-148 0,-672 -438,0z" />
<path style="fill:#c7c7c2" d="M129,75 l0,672 49,148 149,75 149,-75 49,-148 0,-672 -396,0z" />
<path style="fill:#c9c9c4" d="M148,75 l0,672 45,148 134,75 134,-75 45,-148 0,-672 -358,0z" />
<path style="fill:#cfcfca" d="M168,75 l0,672 41,148 118,75 119,-75 39,-148 0,-672 -317,0z" />
<path style="fill:#d1d1cc" d="M190,75 l0,672 34,148 103,75 104,-75 34,-148 0,-672 -275,0z" />
<path style="fill:#d6d6d1" d="M209,75 l0,672 30,148 88,75 89,-75 30,-148 0,-672 -237,0z" />
<path style="fill:#d9d9d6" d="M229,75 l0,672 25,148 73,75 74,-75 24,-148 0,-672 -196,0z" />
<path style="fill:#dededb" d="M250,75 l0,672 19,148 58,75 59,-75 19,-148 0,-672 -155,0z" />
<path style="fill:#e0e0dd" d="M269,75 l0,672 15,148 43,75 44,-75 15,-148 0,-672 -117,0z" />
<path style="fill:#e5e5e2" d="M289,75 l0,672 10,151 28,72 29,-72 7,-151 0,-672 -74,0z" />
<path style="fill:none;stroke:#000;stroke-width:2" d="M28,75 l0,672 75,151 224,72 225,-72 73,-151 0,-672 -42,0 0,-47 -144,0 0,47 -411,0" />
<path style="fill:#7f7f72;stroke:#000;stroke-width:2" d="M65,879 l525,0 0,-19 -525,0 0,19z" />
<path style="fill:none;stroke:#000;stroke-width:2" d="M28,747 l597,0" />
<path style="fill:none;stroke:#000;stroke-width:2" d="M428,65 l165,0" />
<path style="fill:none;stroke:#000;stroke-width:2" d="M428,57 l165,0" />
<path style="fill:none;stroke:#000;stroke-width:2" d="M439,75 l144,0" />
<path style="fill:none;stroke:#000;stroke-width:2" d="M103,898 l224,72 225,-72 7,-19 -232,73 -234,-73 10,19" />
<path style="fill:#ccccc7;stroke:#000;stroke-width:2" d="M299,970 l0,-23 57,0 0,23 -57,0z" />

</svg>
