 

<svg xmlns:agg="http://www.example.com" xmlns="http://www.w3.org/2000/svg" preserveAspectRatio="none" width="0.5940in" height="1.0750in" viewBox="0 0 552 999">

<path style="fill:#699;stroke:#194c4c;stroke-width:2" d="M40,204 l-12,13 12,12 -12,12 12,12 -12,13 12,12 -12,12 12,13 0,-99z" />
<path style="fill:#699;stroke:#194c4c;stroke-width:2" d="M511,302 l13,-12 -13,-12 13,-13 -13,-12 13,-12 -13,-12 13,-13 -13,-12 0,98z" />
<path style="fill:#e5e5e5;stroke:#000;stroke-width:2" d="M433,558 l9,0 0,20 -9,0 0,-20z" />
<path style="fill:#e5e5e5;stroke:#000;stroke-width:2" d="M457,892 l9,-1 3,19 -9,2 -3,-20z" />
<path style="fill:#e5e5e5;stroke:#000;stroke-width:2" d="M119,558 l-10,0 0,20 10,0 0,-20z" />
<path style="fill:#e5e5e5;stroke:#000;stroke-width:2" d="M94,892 l-9,-1 -3,19 10,2 2,-20z" />
<path style="fill:#9cc;stroke:#000;stroke-width:2" d="M79,970 l40,-235 0,-354 314,0 0,354 39,235 -393,0z" />
<path style="fill:#b2e5e5;stroke:#000;stroke-width:2" d="M40,185 l98,-157 275,0 98,157 -471,0z" />
<path style="fill:#9cc;stroke:#000;stroke-width:2" d="M119,381 l-79,-59 0,-137 471,0 0,137 -78,59 -314,0z" />
<path style="fill:none;stroke:#cff;stroke-width:2" d="M42,185 l467,0" />
<path style="fill:none;stroke:#7fb2b2;stroke-width:2" d="M138,735 l275,0" />
<path style="fill:#699" d="M300,808 l0,128 88,0 0,-128 -88,0z" />
<path style="fill:#699" d="M163,808 l0,128 88,0 0,-128 -88,0z" />
<path style="fill:#699" d="M163,303 l0,68 225,0 0,-68 -225,0z" />
<path style="fill:#b2e5e5;stroke:#4c7f7f;stroke-width:2" d="M158,808 l5,-19 88,0 5,19 -98,0z" />
<path style="fill:#b2e5e5;stroke:#4c7f7f;stroke-width:2" d="M158,838 l5,-20 88,0 5,20 -98,0z" />
<path style="fill:#b2e5e5;stroke:#4c7f7f;stroke-width:2" d="M158,867 l5,-19 88,0 5,19 -98,0z" />
<path style="fill:#b2e5e5;stroke:#4c7f7f;stroke-width:2" d="M158,897 l5,-20 88,0 5,20 -98,0z" />
<path style="fill:#b2e5e5;stroke:#4c7f7f;stroke-width:2" d="M158,926 l5,-20 88,0 5,20 -98,0z" />
<path style="fill:#b2e5e5;stroke:#4c7f7f;stroke-width:2" d="M295,808 l5,-19 88,0 5,19 -98,0z" />
<path style="fill:#b2e5e5;stroke:#4c7f7f;stroke-width:2" d="M295,838 l5,-20 88,0 5,20 -98,0z" />
<path style="fill:#b2e5e5;stroke:#4c7f7f;stroke-width:2" d="M295,867 l5,-19 88,0 5,19 -98,0z" />
<path style="fill:#b2e5e5;stroke:#4c7f7f;stroke-width:2" d="M295,897 l5,-20 88,0 5,20 -98,0z" />
<path style="fill:#b2e5e5;stroke:#4c7f7f;stroke-width:2" d="M295,926 l5,-20 88,0 5,20 -98,0z" />
<path style="fill:#b2e5e5;stroke:#4c7f7f;stroke-width:2" d="M158,303 l5,-20 225,0 5,20 -235,0z" />
<path style="fill:#b2e5e5;stroke:#4c7f7f;stroke-width:2" d="M158,332 l5,-19 225,0 5,19 -235,0z" />
<path style="fill:#b2e5e5;stroke:#4c7f7f;stroke-width:2" d="M158,362 l5,-20 225,0 5,20 -235,0z" />
<path style="fill:none;stroke:#4c7f7f;stroke-width:2" d="M122,381 l308,0" />
<path style="fill:#7fb2b2;stroke:#194c4c;stroke-width:2" d="M128,440 l295,0 -10,59 -275,0 -10,-59z" />
<path style="fill:#b2e5e5;stroke:#000;stroke-width:2" d="M138,406 l275,0 10,34 -295,0 10,-34z" />
<path style="fill:#4c4c4c" d="M147,411 l257,0 4,24 -265,0 4,-24z" />
<path style="fill:#f2f2f2" d="M192,425 l0,-10 -24,0 0,10 24,0z" />
<path style="fill:#f2f2f2" d="M220,428 l-4,-5 4,-5 9,-3 9,3 3,5 -3,5 -9,2 -9,-2z" />
<path style="fill:#f2f2f2" d="M266,425 l5,0 0,5 -5,0 0,-5z" />
<path style="fill:#f2f2f2" d="M266,415 l5,0 0,5 -5,0 0,-5z" />
<path style="fill:none;stroke:#f00;stroke-width:2" d="M177,425 l-4,-10" />
<path style="fill:#bf0000;stroke:#000;stroke-width:2" d="M384,396 l9,0 0,34 -9,0 0,-34z" />
<path style="fill:none;stroke:#fff;stroke-width:2" d="M300,415 l39,0 0,15 -39,0 0,-15" />
<path style="fill:none;stroke:#4c7f7f;stroke-width:2" d="M122,504 l308,0" />
<path style="fill:#4c4c4c" d="M433,489 l29,0 0,-88 -29,0 0,14 20,0 0,59 -20,0 0,15z" />
<path style="fill:#333" d="M158,224 l235,0 0,39 -235,0 0,-39z" />
<path style="fill:none;stroke:#fff;stroke-width:2" d="M158,263 l0,-39 235,0" />

</svg>
