 

<svg xmlns:agg="http://www.example.com" xmlns="http://www.w3.org/2000/svg" preserveAspectRatio="none" width="1.1498in" height="1.0750in" viewBox="0 0 999 934">

<path style="fill:#4c4c4c" d="M131,544 l710,0 0,207 -710,0 0,-207z" />
<path style="fill:#e56500;stroke:#000;stroke-width:2" d="M338,648 l632,0 0,-259 -478,-320 -26,-14 -29,-11 -29,-8 -30,-6 -20,-2 -10,0 -10,0 -32,1 -31,5 -30,8 -28,10 -27,13 -26,16 -24,18 -21,20 -20,21 -18,24 -16,26 -13,27 -10,28 -8,30 -5,31 -1,16 0,16 0,15 3,32 7,30 9,29 11,28 15,26 16,25 19,23 21,21 23,19 25,17 26,14 28,12 29,9 30,6 32,3 16,1z" />
<path style="fill:#a6a6a6;stroke:#000;stroke-width:2" d="M118,221 l348,0 0,645 -257,0 0,-161 0,-251 -91,0 0,-233z" />
<path style="fill:#bfbfbf;stroke:#000;stroke-width:2" d="M144,841 l51,0 0,26 -51,0 0,-26z" />
<path style="fill:#bfbfbf;stroke:#000;stroke-width:2" d="M480,841 l51,0 0,26 -51,0 0,-26z" />
<path style="fill:#bfbfbf;stroke:#000;stroke-width:2" d="M635,838 l32,0 0,16 -32,0 0,-16z" />
<path style="fill:#bfbfbf;stroke:#000;stroke-width:2" d="M848,838 l32,0 0,16 -32,0 0,-16z" />
<path style="fill:#bfbfbf;stroke:#000;stroke-width:2" d="M622,854 l271,0 0,39 -271,0 0,-39z" />
<path style="fill:#f2f2f2;stroke:#000;stroke-width:2" d="M643,838 l17,0 0,16 -17,0 0,-16z" />
<path style="fill:#f2f2f2;stroke:#000;stroke-width:2" d="M855,838 l17,0 0,16 -17,0 0,-16z" />
<path style="fill:#f2f2f2;stroke:#000;stroke-width:2" d="M157,841 l26,0 0,26 -26,0 0,-26z" />
<path style="fill:#f2f2f2;stroke:#000;stroke-width:2" d="M493,841 l26,0 0,26 -26,0 0,-26z" />
<path style="fill:#8c8c8c;stroke:#000;stroke-width:2" d="M725,648 l65,0 0,206 -65,0 0,-206z" />
<path style="fill:#d9d9d9;stroke:#000;stroke-width:2" d="M648,660 l322,0 0,52 -322,0 0,-52z" />
<path style="fill:#d9d9d9;stroke:#000;stroke-width:2" d="M543,312 l-8,-37 -14,-35 -21,-30 -25,-27 -30,-22 -33,-16 -36,-10 -19,-3 -19,-1 -19,1 -38,7 -34,13 -32,19 -27,24 -23,29 -18,33 -12,36 -3,19 -27,0 0,51 27,0 6,33 11,32 15,28 19,24 0,-1 0,-1 0,2 0,219 310,0 181,-103 0,-116 -181,0 14,-25 13,-26 13,-29 9,-28 1,-8 27,-1 0,-51 -27,0z" />
<path style="fill:#d9d9d9;stroke:#000;stroke-width:2" d="M131,867 l413,0 0,39 -413,0 0,-39z" />
<path style="fill:#333" d="M777,622 l129,0 0,38 -129,0 0,-38z" />
<path style="fill:#8c8c8c;stroke:#000;stroke-width:2" d="M758,627 l-33,-83 33,-83 83,-33 84,33 33,83 -33,83 -84,33 -83,-33z" />
<path style="fill:#a6a6a6" d="M777,609 l-26,-65 26,-64 64,-27 65,26 26,65 -26,65 -65,26 -64,-26z" />
<path style="fill:#333" d="M795,590 l-18,-46 19,-46 45,-18 47,18 18,46 -19,47 -46,18 -46,-19z" />
<path style="fill:none;stroke:#a6a6a6;stroke-width:2" d="M841,609 l0,-129" />
<path style="fill:none;stroke:#a6a6a6;stroke-width:2" d="M906,544 l-129,0" />
<path style="fill:none;stroke:#a6a6a6;stroke-width:2" d="M887,590 l-91,-91" />
<path style="fill:none;stroke:#a6a6a6;stroke-width:2" d="M887,499 l-91,91" />
<circle style="fill:#bfbfbf" cx="337" cy="337" r="142" />
<path style="fill:none;stroke:#000;stroke-width:2" d="M183,480 l310,0" />
<circle style="fill:#666" cx="337" cy="337" r="103" />
<path style="fill:none;stroke:#bfbfbf;stroke-width:2" d="M338,236 l0,205" />
<path style="fill:none;stroke:#bfbfbf;stroke-width:2" d="M234,338 l207,0" />
<path style="fill:none;stroke:#bfbfbf;stroke-width:2" d="M264,411 l146,-146" />
<path style="fill:none;stroke:#bfbfbf;stroke-width:2" d="M266,265 l144,146" />
<path style="fill:none;stroke:#7f7f7f;stroke-width:2" d="M222,476 l-21,-20 -18,-25 -13,-26 -8,-28 -5,-29 0,-10 1,-19 7,-35 14,-32 19,-29 25,-25 29,-19 32,-14 35,-7 19,-1 18,1 35,7 33,14 28,19 25,25 19,29 14,32 7,35 1,19 0,10 -4,28 -9,28 -12,26 -17,24 -21,20" />

</svg>
