 

<svg xmlns:agg="http://www.example.com" xmlns="http://www.w3.org/2000/svg" preserveAspectRatio="none" width="1.6083in" height="0.7003in" viewBox="0 0 999 435">

<path style="fill:#7f7f7f" d="M865,231 l0,-194 -66,0 0,194 66,0z" />
<path style="fill:#999" d="M861,231 l0,-194 -59,0 0,194 59,0z" />
<path style="fill:#b2b2b2" d="M853,231 l0,-194 -43,0 0,194 43,0z" />
<path style="fill:#ccc" d="M848,231 l0,-194 -30,0 0,194 30,0z" />
<path style="fill:#e5e5e5" d="M842,231 l0,-194 -19,0 0,194 19,0z" />
<path style="fill:#fff" d="M836,231 l0,-194 -7,0 0,194 7,0z" />
<path style="fill:none;stroke:#000;stroke-width:2" d="M799,231 l0,-194" />
<path style="fill:none;stroke:#000;stroke-width:2" d="M865,37 l0,194" />
<path style="fill:#7f7f7f" d="M959,169 l-194,0 0,66 194,0 0,-66z" />
<path style="fill:#999" d="M959,173 l-194,0 0,58 194,0 0,-58z" />
<path style="fill:#b2b2b2" d="M959,180 l-194,0 0,44 194,0 0,-44z" />
<path style="fill:#ccc" d="M959,188 l-194,0 0,30 194,0 0,-30z" />
<path style="fill:#e5e5e5" d="M959,192 l-194,0 0,20 194,0 0,-20z" />
<path style="fill:#fff" d="M959,199 l-194,0 0,8 194,0 0,-8z" />
<path style="fill:none;stroke:#000;stroke-width:2" d="M959,235 l-194,0" />
<path style="fill:none;stroke:#000;stroke-width:2" d="M765,169 l194,0" />
<path style="fill:#b2b2b2" d="M716,228 l-228,0 0,33 228,0 0,-33z" />
<path style="fill:#ccc" d="M716,179 l-228,0 0,49 228,0 0,-49z" />
<path style="fill:#e5e5e5" d="M716,179 l-228,0 0,-44 228,0 0,44z" />
<path style="fill:none;stroke:#000;stroke-width:2" d="M716,135 l-228,0 0,126 228,0 0,-126" />
<path style="fill:#666;stroke:#000;stroke-width:2" d="M188,80 l0,-3 -7,-3 -2,-2 0,-3 3,-8 2,-1 4,0 3,0 2,2 2,10 -1,2 -3,2 -3,1 0,3 2,-1 7,-4 1,-2 1,-2 0,-2 0,-2 -5,-8 -4,-1 -2,0 -2,0 -7,4 -2,5 0,2 0,2 0,2 8,6 3,1z" />
<path style="fill:#ccc;stroke:#000;stroke-width:2" d="M291,88 l-241,0 0,228 241,0 0,-228z" />
<path style="fill:#b2b2b2;stroke:#000;stroke-width:2" d="M50,88 l-22,34 0,160 22,34 0,-228z" />
<path style="fill:#b2b2b2;stroke:#000;stroke-width:2" d="M120,88 l136,0 0,228 -136,0 0,-228z" />
<path style="fill:#b2b2b2;stroke:#000;stroke-width:2" d="M291,316 l23,-34 0,-160 -23,-34 0,228z" />
<path style="fill:#999;stroke:#000;stroke-width:2" d="M222,265 l-79,0 0,51 79,0 0,-51z" />
<path style="fill:#999;stroke:#000;stroke-width:2" d="M314,179 l23,0 0,47 -23,0 0,-47z" />
<path style="fill:#999;stroke:#000;stroke-width:2" d="M280,305 l-47,0 0,24 47,0 0,-24z" />
<path style="fill:#999;stroke:#000;stroke-width:2" d="M154,305 l-45,0 0,24 45,0 0,-24z" />
<path style="fill:#ccc;stroke:#000;stroke-width:2" d="M244,99 l-113,0 0,11 113,0 0,-11z" />
<path style="fill:#ccc;stroke:#000;stroke-width:2" d="M244,122 l-113,0 0,11 113,0 0,-11z" />
<path style="fill:#ccc;stroke:#000;stroke-width:2" d="M244,77 l-113,0 0,11 113,0 0,-11z" />
<path style="fill:#ccc;stroke:#000;stroke-width:2" d="M244,145 l-113,0 0,11 113,0 0,-11z" />
<path style="fill:#ccc;stroke:#000;stroke-width:2" d="M244,192 l-113,0 0,11 113,0 0,-11z" />
<path style="fill:#ccc;stroke:#000;stroke-width:2" d="M244,214 l-113,0 0,12 113,0 0,-12z" />
<path style="fill:#ccc;stroke:#000;stroke-width:2" d="M244,169 l-113,0 0,11 113,0 0,-11z" />
<path style="fill:#ccc;stroke:#000;stroke-width:2" d="M244,237 l-113,0 0,11 113,0 0,-11z" />
<path style="fill:#ccc;stroke:#000;stroke-width:2" d="M244,259 l-113,0 0,12 113,0 0,-12z" />
<path style="fill:#e5e5e5;stroke:#000;stroke-width:2" d="M882,329 l-777,0 0,63 777,0 0,-63z" />
<path style="fill:#ccc;stroke:#000;stroke-width:2" d="M882,407 l-777,0 0,-15 777,0 0,15z" />
<path style="fill:#e5e5e5;stroke:#000;stroke-width:2" d="M474,135 l-135,0 0,194 135,0 0,-194z" />
<path style="fill:#ccc;stroke:#000;stroke-width:2" d="M765,299 l-28,0 0,-204 28,0 0,204z" />
<path style="fill:#e5e5e5;stroke:#000;stroke-width:2" d="M716,299 l21,0 0,-204 -21,0 0,204z" />
<path style="fill:#999;stroke:#000;stroke-width:2" d="M716,207 l-228,0 0,-19 228,0 0,19z" />
<path style="fill:#e5e5e5;stroke:#000;stroke-width:2" d="M716,135 l0,-40 -242,40 242,0z" />
<path style="fill:#999;stroke:#000;stroke-width:2" d="M770,329 l0,-15 -54,0 0,-73 -13,0 0,88 67,0z" />
<path style="fill:#ccc;stroke:#000;stroke-width:2" d="M765,314 l-19,0 0,-9 19,0 0,9z" />
<path style="fill:#999;stroke:#000;stroke-width:2" d="M556,329 l0,-15 -53,0 0,-73 -15,0 0,88 68,0z" />
<path style="fill:#ccc;stroke:#000;stroke-width:2" d="M552,314 l-21,0 0,-9 21,0 0,9z" />
<path style="fill:#e5e5e5;stroke:#000;stroke-width:2" d="M488,261 l-14,0 0,-126 14,0 0,126z" />
<path style="fill:#999;stroke:#000;stroke-width:2" d="M697,188 l0,-62 -19,3 0,59 19,0z" />
<path style="fill:#ccc" d="M454,324 l-111,0 0,-40 111,40z" />
<path style="fill:#ccc" d="M110,386 l0,-38 297,38 -297,0z" />
<path style="fill:#7f7f7f" d="M867,101 l0,68 34,0 0,66 -136,0 0,-66 34,0 0,-68 68,0z" />
<path style="fill:#999" d="M861,101 l0,72 40,0 0,58 -136,0 0,-58 37,0 0,-72 59,0z" />
<path style="fill:#b2b2b2" d="M855,101 l0,79 46,0 0,44 -136,0 0,-44 45,0 0,-79 45,0z" />
<path style="fill:#ccc" d="M848,101 l0,85 53,0 0,32 -136,0 0,-32 53,0 0,-85 30,0z" />
<path style="fill:#e5e5e5" d="M842,101 l0,91 59,0 0,20 -136,0 0,-20 56,0 0,-91 21,0z" />
<path style="fill:#fff" d="M836,101 l0,96 65,0 0,10 -136,0 0,-10 64,0 0,-96 7,0z" />
<path style="fill:none;stroke:#000;stroke-width:2" d="M867,101 l0,68 34,0" />
<path style="fill:none;stroke:#000;stroke-width:2" d="M799,101 l0,68 -34,0" />
<path style="fill:none;stroke:#000;stroke-width:2" d="M765,235 l136,0" />
<path style="fill:#7f7f7f;stroke:#000;stroke-width:2" d="M861,35 l2,-7 11,0 4,7 -17,0z" />
<path style="fill:#7f7f7f;stroke:#000;stroke-width:2" d="M825,35 l2,-7 11,0 2,7 -15,0z" />
<path style="fill:#7f7f7f;stroke:#000;stroke-width:2" d="M787,35 l2,-7 13,0 2,7 -17,0z" />
<path style="fill:#7f7f7f;stroke:#000;stroke-width:2" d="M861,84 l2,8 11,0 4,-8 -17,0z" />
<path style="fill:#7f7f7f;stroke:#000;stroke-width:2" d="M825,84 l2,8 11,0 2,-8 -15,0z" />
<path style="fill:#7f7f7f;stroke:#000;stroke-width:2" d="M787,84 l2,8 13,0 2,-8 -17,0z" />
<path style="fill:#b2b2b2;stroke:#000;stroke-width:2" d="M865,35 l0,-7 9,0 4,7 -13,0z" />
<path style="fill:#b2b2b2;stroke:#000;stroke-width:2" d="M827,35 l2,-7 9,0 2,7 -13,0z" />
<path style="fill:#b2b2b2;stroke:#000;stroke-width:2" d="M791,35 l0,-7 11,0 2,7 -13,0z" />
<path style="fill:#b2b2b2;stroke:#000;stroke-width:2" d="M865,84 l0,8 9,0 4,-8 -13,0z" />
<path style="fill:#b2b2b2;stroke:#000;stroke-width:2" d="M827,84 l2,8 9,0 2,-8 -13,0z" />
<path style="fill:#b2b2b2;stroke:#000;stroke-width:2" d="M791,84 l0,8 11,0 2,-8 -13,0z" />
<path style="fill:#7f7f7f" d="M882,84 l0,-24 -98,0 0,24 98,0z" />
<path style="fill:#999" d="M876,84 l0,-24 -87,0 0,24 87,0z" />
<path style="fill:#b2b2b2" d="M865,84 l0,-24 -64,0 0,24 64,0z" />
<path style="fill:#ccc" d="M855,84 l0,-24 -45,0 0,24 45,0z" />
<path style="fill:#e5e5e5" d="M848,84 l0,-24 -30,0 0,24 30,0z" />
<path style="fill:#fff" d="M838,84 l0,-24 -11,0 0,24 11,0z" />
<path style="fill:none;stroke:#000;stroke-width:2" d="M882,84 l0,-24 -98,0 0,24 98,0" />
<path style="fill:#e5e5e5;stroke:#000;stroke-width:2" d="M872,92 l2,0 4,-8 -4,0 -2,8z" />
<path style="fill:#e5e5e5;stroke:#000;stroke-width:2" d="M836,92 l2,0 2,-8 -2,0 -2,8z" />
<path style="fill:#e5e5e5;stroke:#000;stroke-width:2" d="M801,92 l1,0 2,-8 -3,0 0,8z" />
<path style="fill:#e5e5e5;stroke:#000;stroke-width:2" d="M872,28 l2,0 4,7 -4,0 -2,-7z" />
<path style="fill:#e5e5e5;stroke:#000;stroke-width:2" d="M836,28 l2,0 2,7 -2,0 -2,-7z" />
<path style="fill:#e5e5e5;stroke:#000;stroke-width:2" d="M801,28 l1,0 2,7 -3,0 0,-7z" />
<path style="fill:#7f7f7f" d="M882,35 l0,25 -98,0 0,-25 98,0z" />
<path style="fill:#999" d="M876,35 l0,25 -87,0 0,-25 87,0z" />
<path style="fill:#b2b2b2" d="M865,35 l0,25 -64,0 0,-25 64,0z" />
<path style="fill:#ccc" d="M855,35 l0,25 -45,0 0,-25 45,0z" />
<path style="fill:#e5e5e5" d="M848,35 l0,25 -30,0 0,-25 30,0z" />
<path style="fill:#fff" d="M838,35 l0,25 -11,0 0,-25 11,0z" />
<path style="fill:none;stroke:#000;stroke-width:2" d="M882,35 l0,25 -98,0 0,-25 98,0" />
<path style="fill:#7f7f7f;stroke:#000;stroke-width:2" d="M963,231 l7,2 0,11 -7,2 0,-15z" />
<path style="fill:#7f7f7f;stroke:#000;stroke-width:2" d="M963,194 l7,2 0,13 -7,2 0,-17z" />
<path style="fill:#7f7f7f;stroke:#000;stroke-width:2" d="M963,158 l7,2 0,13 -7,2 0,-17z" />
<path style="fill:#7f7f7f;stroke:#000;stroke-width:2" d="M914,231 l-8,2 0,11 8,2 0,-15z" />
<path style="fill:#7f7f7f;stroke:#000;stroke-width:2" d="M914,194 l-8,2 0,13 8,2 0,-17z" />
<path style="fill:#7f7f7f;stroke:#000;stroke-width:2" d="M914,158 l-8,2 0,13 8,2 0,-17z" />
<path style="fill:#b2b2b2;stroke:#000;stroke-width:2" d="M963,233 l7,2 0,9 -7,2 0,-13z" />
<path style="fill:#b2b2b2;stroke:#000;stroke-width:2" d="M963,197 l7,2 0,10 -7,2 0,-14z" />
<path style="fill:#b2b2b2;stroke:#000;stroke-width:2" d="M963,162 l7,0 0,11 -7,2 0,-13z" />
<path style="fill:#b2b2b2;stroke:#000;stroke-width:2" d="M914,233 l-8,2 0,9 8,2 0,-13z" />
<path style="fill:#b2b2b2;stroke:#000;stroke-width:2" d="M914,197 l-8,2 0,10 8,2 0,-14z" />
<path style="fill:#b2b2b2;stroke:#000;stroke-width:2" d="M914,162 l-8,0 0,11 8,2 0,-13z" />
<path style="fill:#7f7f7f" d="M914,250 l24,0 0,-96 -24,0 0,96z" />
<path style="fill:#999" d="M914,244 l24,0 0,-84 -24,0 0,84z" />
<path style="fill:#b2b2b2" d="M914,235 l24,0 0,-66 -24,0 0,66z" />
<path style="fill:#ccc" d="M914,224 l24,0 0,-44 -24,0 0,44z" />
<path style="fill:#e5e5e5" d="M914,216 l24,0 0,-28 -24,0 0,28z" />
<path style="fill:#fff" d="M914,209 l24,0 0,-12 -24,0 0,12z" />
<path style="fill:none;stroke:#000;stroke-width:2" d="M914,250 l24,0 0,-96 -24,0 0,96" />
<path style="fill:#e5e5e5;stroke:#000;stroke-width:2" d="M906,243 l0,1 8,2 0,-2 -8,-1z" />
<path style="fill:#e5e5e5;stroke:#000;stroke-width:2" d="M906,207 l0,2 8,2 0,-4 -8,0z" />
<path style="fill:#e5e5e5;stroke:#000;stroke-width:2" d="M906,169 l0,4 8,2 0,-4 -8,-2z" />
<path style="fill:#e5e5e5;stroke:#000;stroke-width:2" d="M970,243 l0,1 -7,2 0,-2 7,-1z" />
<path style="fill:#e5e5e5;stroke:#000;stroke-width:2" d="M970,207 l0,2 -7,2 0,-4 7,0z" />
<path style="fill:#e5e5e5;stroke:#000;stroke-width:2" d="M970,169 l0,4 -7,2 0,-4 7,-2z" />
<path style="fill:#7f7f7f" d="M963,250 l-25,0 0,-96 25,0 0,96z" />
<path style="fill:#999" d="M963,244 l-25,0 0,-84 25,0 0,84z" />
<path style="fill:#b2b2b2" d="M963,235 l-25,0 0,-66 25,0 0,66z" />
<path style="fill:#ccc" d="M963,224 l-25,0 0,-44 25,0 0,44z" />
<path style="fill:#e5e5e5" d="M963,216 l-25,0 0,-28 25,0 0,28z" />
<path style="fill:#fff" d="M963,209 l-25,0 0,-12 25,0 0,12z" />
<path style="fill:none;stroke:#000;stroke-width:2" d="M963,250 l-25,0 0,-96 25,0 0,96" />

</svg>
