 

<svg xmlns:agg="http://www.example.com" xmlns="http://www.w3.org/2000/svg" preserveAspectRatio="none" width="1.6083in" height="0.9885in" viewBox="0 0 999 614">

<path style="fill:#f2f2f2;stroke:#000;stroke-width:2" d="M596,99 l0,-71 52,0 0,71 -52,0z" />
<path style="fill:#d9d9d1" d="M684,319 l0,31 276,0 0,-31 -276,0z" />
<path style="fill:#ccccc2" d="M684,381 l0,-31 276,0 0,31 -276,0z" />
<path style="fill:#bfbfb2" d="M684,381 l0,20 276,0 0,-20 -276,0z" />
<path style="fill:#bfbfb2;stroke:#000;stroke-width:2" d="M684,504 l82,-103 20,0 -102,123 0,-20z" />
<path style="fill:#999985;stroke:#000;stroke-width:2" d="M643,565 l0,-246 41,0 0,246 -41,0z" />
<path style="fill:#f2f2ed;stroke:#000;stroke-width:2" d="M663,319 l0,-102 307,0 0,102 -307,0z" />
<path style="fill:#9cc" d="M561,555 l0,-41 -5,-10 -118,0 0,61 118,0 5,-10z" />
<path style="fill:#ccccc2;stroke:#000;stroke-width:2" d="M28,586 l0,-21 717,0 0,21 -717,0z" />
<path style="fill:#ccccc2;stroke:#000;stroke-width:2" d="M28,565 l0,-164 21,0 0,164 -21,0z" />
<path style="fill:#ccccc2;stroke:#000;stroke-width:2" d="M213,565 l0,-164 20,0 0,164 -20,0z" />
<path style="fill:#e5e5e0;stroke:#000;stroke-width:2" d="M28,401 l0,-20 205,0 0,20 -205,0z" />
<path style="fill:#ccccc2;stroke:#000;stroke-width:2" d="M90,381 l0,-103 -62,21 0,41 31,41 31,0z" />
<path style="fill:#a6a6a6" d="M90,340 l0,-41 41,0 0,-10 102,0 0,-72 369,0 0,-62 41,0 0,62 20,20 0,164 -20,21 -410,0 0,-72 -102,0 0,-10 -41,0z" />
<path style="fill:#bfbfbf" d="M90,336 l0,-33 41,0 0,-9 102,0 0,-58 369,0 0,-50 41,0 0,50 20,16 0,134 -20,17 -410,0 0,-58 -102,0 0,-9 -41,0z" />
<path style="fill:#d9d9d9" d="M90,332 l0,-25 41,0 0,-7 102,0 0,-45 369,0 0,-38 41,0 0,38 20,13 0,103 -20,13 0,99 -41,0 0,-99 -369,0 0,-45 -102,0 0,-7 -41,0z" />
<path style="fill:#f2f2f2" d="M90,325 l0,-11 41,0 0,-2 102,0 0,-18 369,0 0,-16 41,0 0,16 20,5 0,41 -20,5 0,15 -41,0 0,-15 -369,0 0,-18 -102,0 0,-2 -41,0z" />
<path style="fill:none;stroke:#000;stroke-width:2" d="M90,340 l0,-41 41,0 0,-10 102,0 0,-72 369,0 0,-62 41,0 0,62 20,20 0,164 -20,21 0,61 -41,0 0,-61 -369,0 0,-72 -102,0 0,-10 -41,0" />
<path style="fill:none;stroke:#000;stroke-width:2" d="M131,299 l0,41" />
<path style="fill:none;stroke:#000;stroke-width:2" d="M233,289 l0,61" />
<path style="fill:none;stroke:#000;stroke-width:2" d="M602,217 l0,205" />
<path style="fill:none;stroke:#000;stroke-width:2" d="M643,217 l0,205" />
<path style="fill:#f2f2ed;stroke:#000;stroke-width:2" d="M960,319 l0,82 10,0 0,-82 -10,0z" />
<path style="fill:#f2f2ed;stroke:#000;stroke-width:2" d="M888,319 l0,82 11,0 0,-82 -11,0z" />
<path style="fill:#f2f2ed;stroke:#000;stroke-width:2" d="M817,319 l0,82 10,0 0,-82 -10,0z" />
<path style="fill:#f2f2ed;stroke:#000;stroke-width:2" d="M745,319 l0,82 10,0 0,-82 -10,0z" />
<path style="fill:#f2f2ed;stroke:#000;stroke-width:2" d="M673,319 l11,0 0,82 -11,0 0,-82z" />
<path style="fill:none;stroke:#000;stroke-width:2" d="M684,401 l276,0" />
<path style="fill:#999;stroke:#000;stroke-width:2" d="M740,217 l0,-23 -15,0 0,-8 61,0 0,8 -16,0 0,23 -30,0z" />
<path style="fill:#ccc" d="M746,217 l0,-23 -10,0 0,-8 38,0 0,8 -9,0 0,23 -19,0z" />
<path style="fill:#999;stroke:#000;stroke-width:2" d="M167,289 l0,-23 -16,0 0,-8 61,0 0,8 -15,0 0,23 -15,10 -15,-10z" />
<path style="fill:#ccc" d="M172,291 l0,-26 -9,0 0,-6 38,0 0,6 -9,0 0,26 -10,7 -10,-7z" />
<path style="fill:#4c7f7f;stroke:#000;stroke-width:2" d="M469,535 l0,-31 71,0 0,31 -71,0z" />
<path style="fill:none;stroke:#000;stroke-width:2" d="M463,524 l82,0" />
<path style="fill:none;stroke:#000;stroke-width:2" d="M463,519 l82,0" />
<path style="fill:none;stroke:#000;stroke-width:2" d="M545,514 l-82,0" />
<path style="fill:none;stroke:#000;stroke-width:2" d="M463,509 l82,0" />
<path style="fill:none;stroke:#000;stroke-width:2" d="M463,529 l82,0" />
<path style="fill:#7fb2b2" d="M561,545 l-123,0 0,20 118,0 5,-10 0,-10z" />
<path style="fill:none;stroke:#000;stroke-width:2" d="M469,535 l0,30" />
<path style="fill:none;stroke:#000;stroke-width:2" d="M561,555 l0,-41 -5,-10 -118,0 0,61 118,0 5,-10" />
<path style="fill:#333" d="M637,94 l0,-61 11,0 0,61 -11,0z" />
<path style="fill:#333" d="M596,94 l0,-61 31,0 0,61 -31,0z" />
<path style="fill:#7f7f65;stroke:#000;stroke-width:2" d="M52,308 l14,-15 29,29 -14,15 -29,-29z" />
<path style="fill:#b2b2a3;stroke:#000;stroke-width:2" d="M59,355 l-18,-8 -7,-18 7,-18 18,-7 18,7 8,18 -8,19 -18,7z" />
<path style="fill:#999;stroke:#000;stroke-width:2" d="M233,565 l31,-143 -31,0 0,143z" />
<path style="fill:#d9d9d1;stroke:#000;stroke-width:2" d="M561,565 l0,-82 102,0 0,82 -102,0z" />
<path style="fill:#d9d9d1;stroke:#000;stroke-width:2" d="M596,171 l0,-72 52,0 0,72 -52,0z" />

</svg>
