 

<svg xmlns:agg="http://www.example.com" xmlns="http://www.w3.org/2000/svg" preserveAspectRatio="none" width="1.0718in" height="1.0750in" viewBox="0 0 996 999">

<path style="fill:#f2f2f2;stroke:#000;stroke-width:2" d="M323,863 l28,3 8,0 8,0 7,0 28,-2 32,-6 30,-8 25,-5 30,-5 34,-1 33,1 29,6 27,7 36,5 35,-1 28,-1 29,-1 32,-2 9,0 4,-36 2,-36 1,-34 0,-46 -1,-34 -1,-34 -2,-35 -1,-34 -2,-34 0,-35 0,-32 3,-29 4,-29 1,-15 1,-6 0,-6 -1,-30 -3,-29 -3,-37 -2,-29 0,-35 1,-30 0,-37 -1,-16 0,-7 -13,1 -30,6 -29,11 -28,4 -32,1 -31,-1 -34,-5 -30,-3 -41,2 -38,4 -28,3 -38,-2 -36,-4 -36,-4 -30,-2 -14,-1 -4,35 -2,33 -1,30 0,47 1,28 1,27 1,29 1,29 1,31 1,34 -2,32 -6,27 -1,6 0,7 0,10 3,45 2,22 4,27 -1,31 0,30 0,34 0,70 1,30 1,27 0,4z" />
<path style="fill:#f2f2f2;stroke:#000;stroke-width:2" d="M87,919 l15,-36 37,-15 36,15 16,36 -16,37 -36,14 -37,-14 -15,-37z" />
<path style="fill:#f2f2f2;stroke:#000;stroke-width:2" d="M814,919 l16,-36 36,-15 37,15 16,36 -16,37 -37,14 -36,-14 -16,-37z" />
<path style="fill:#e5e5dd;stroke:#000;stroke-width:2" d="M87,814 l0,-783 822,0 0,97 -725,0 0,686 -19,0 0,-705 724,0 0,-59 -783,0 0,764 -19,0z" />
<path style="fill:#e5e5dd;stroke:#000;stroke-width:2" d="M28,931 l939,0 0,-39 -78,-39 -861,0 0,78z" />
<path style="fill:#e5e5dd;stroke:#000;stroke-width:2" d="M305,38 l37,-10 36,132 -38,10 -35,-132z" />
<path style="fill:#e5e5dd;stroke:#000;stroke-width:2" d="M831,38 l-38,-10 -36,132 38,10 36,-132z" />
<path style="fill:#e5e5dd;stroke:#000;stroke-width:2" d="M67,814 l156,0 0,39 -156,0 0,-39z" />
<path style="fill:#e5e5dd;stroke:#000;stroke-width:2" d="M47,911 l881,0 -58,-39 -823,0 0,39z" />

</svg>
