 

<svg xmlns:agg="http://www.example.com" xmlns="http://www.w3.org/2000/svg" preserveAspectRatio="none" width="1.6083in" height="0.6987in" viewBox="0 0 999 434">

<path style="fill:#7387a6" d="M781,405 l0,-377 -564,0 0,377 564,0z" />
<path style="fill:#263a59;stroke:#000;stroke-width:2" d="M217,405 l0,-377 -189,0 0,377 189,0z" />
<path style="fill:#ccc" d="M60,44 l141,0 0,346 -141,0 0,-346z" />
<path style="fill:#6b7f9e" d="M781,405 l0,-110 -564,-189 0,299 564,0z" />
<path style="fill:#617594" d="M781,405 l0,-47 -564,-189 0,236 564,0z" />
<path style="fill:#596d8c" d="M781,405 l0,-15 -564,-189 0,204 564,0z" />
<path style="fill:none;stroke:#000;stroke-width:2" d="M781,405 l0,-377 -564,0 0,377 564,0" />
<path style="fill:#e5e5e5" d="M60,138 l0,94 141,64 0,-95 -141,-63z" />
<path style="fill:#fff" d="M59,169 l0,32 142,63 0,-31 -142,-64z" />
<path style="fill:none;stroke:#000;stroke-width:2" d="M60,44 l141,0 0,346 -141,0 0,-346" />
<path style="fill:none;stroke:#fff;stroke-width:2" d="M201,390 l0,-346 -141,0" />
<path style="fill:none;stroke:#7387a6;stroke-width:2" d="M28,28 l189,0" />
<path style="fill:#ff0;stroke:#000;stroke-width:2" d="M970,405 l0,-377 -189,0 0,377 189,0z" />
<path style="fill:none;stroke:#000;stroke-width:2" d="M970,28 l0,377" />
<path style="fill:#000" d="M970,28 l0,95 -94,-95 94,0z" />
<path style="fill:#000" d="M876,121 l94,96 0,95 -94,-95 0,-96z" />
<path style="fill:#000" d="M876,311 l94,94 -94,0 0,-94z" />
<path style="fill:#000" d="M876,28 l0,95 -95,-95 95,0z" />
<path style="fill:#000" d="M781,121 l95,96 0,95 -95,-95 0,-96z" />
<path style="fill:#000" d="M781,311 l95,94 -95,0 0,-94z" />
<path style="fill:none;stroke:#bfd3f2;stroke-width:2" d="M781,405 l0,-377 -564,0" />

</svg>
