 

<svg xmlns:agg="http://www.example.com" xmlns="http://www.w3.org/2000/svg" preserveAspectRatio="none" width="1.3716in" height="1.0750in" viewBox="0 0 999 783">

<path style="fill:#e56500;stroke:#000;stroke-width:2" d="M420,117 l550,303 0,256 -903,0 0,-354 3,-35 8,-35 12,-32 17,-29 21,-27 25,-23 28,-20 30,-16 33,-11 35,-6 12,-1 12,0 7,0 31,3 30,7 29,10 20,10z" />
<path style="fill:#ccc;stroke:#000;stroke-width:2" d="M28,735 l942,0 0,19 -942,0 0,-19z" />
<path style="fill:#ccc;stroke:#000;stroke-width:2" d="M519,656 l451,0 0,20 -471,0 -373,-525 -59,-64 196,-59 0,78 157,50 30,0 69,147 0,353z" />
<path style="fill:#999;stroke:#000;stroke-width:2" d="M48,676 l903,0 0,59 -903,0 0,-59z" />
<path style="fill:#e5e5e5;stroke:#000;stroke-width:2" d="M597,617 l354,0 0,39 -354,0 0,-39z" />
<path style="fill:#ff7f00;stroke:#000;stroke-width:2" d="M499,322 l-3,-35 -8,-35 -12,-32 -17,-29 -21,-27 -25,-23 -28,-20 -30,-16 -33,-11 -35,-6 -12,-1 -12,0 -12,0 -35,5 -33,9 -32,14 -28,19 -26,22 -22,26 -19,28 -14,32 -10,33 -4,36 0,11 0,354 471,0 0,-354z" />
<path style="fill:#4c4c4c;stroke:#000;stroke-width:2" d="M852,420 l-157,197 157,0 -44,-59 143,0 -20,-138 -79,0z" />
<path style="fill:none;stroke:#000;stroke-width:2" d="M519,656 l-20,0" />
<path style="fill:#7f7f7f" d="M519,500 l152,0 0,58 -152,0 0,-58z" />
<path style="fill:#7f7f7f" d="M553,401 l118,0 0,39 -118,0 0,-39z" />
<path style="fill:#7f7f7f;stroke:#000;stroke-width:2" d="M519,382 l34,0 0,78 -34,0 0,-78z" />
<path style="fill:#b2b2b2" d="M519,398 l34,0 0,46 -34,0 0,-46z" />
<path style="fill:#b2b2b2" d="M519,511 l152,0 0,35 -152,0 0,-35z" />
<path style="fill:#b2b2b2" d="M553,409 l118,0 0,23 -118,0 0,-23z" />
<path style="fill:#e5e5e5" d="M519,524 l152,0 0,9 -152,0 0,-9z" />
<path style="fill:#e5e5e5" d="M553,418 l118,0 0,6 -118,0 0,-6z" />
<path style="fill:none;stroke:#000;stroke-width:2" d="M519,500 l152,0 0,58 -152,0 0,-58" />
<path style="fill:none;stroke:#000;stroke-width:2" d="M553,401 l118,0 0,39 -118,0 0,-39" />
<path style="fill:#666" d="M765,362 l19,0 0,-59 -19,0 0,59z" />
<circle style="fill:#7f7f7f;stroke:#000;stroke-width:2" cx="774" cy="479" r="137" />
<circle style="fill:#999" cx="774" cy="479" r="118" />
<path style="fill:#b2b2b2" d="M718,536 l-23,-56 23,-57 56,-22 56,22 22,57 -22,56 -56,22 -56,-22z" />
<path style="fill:none;stroke:#000;stroke-width:2" d="M782,489 l46,27" />
<path style="fill:none;stroke:#000;stroke-width:2" d="M783,505 l38,22" />
<path style="fill:none;stroke:#000;stroke-width:2" d="M780,518 l29,17" />
<path style="fill:none;stroke:#000;stroke-width:2" d="M780,533 l17,10" />
<path style="fill:none;stroke:#000;stroke-width:2" d="M796,482 l39,22" />
<path style="fill:none;stroke:#000;stroke-width:2" d="M807,473 l28,17" />
<path style="fill:none;stroke:#000;stroke-width:2" d="M819,465 l17,10" />
<path style="fill:none;stroke:#000;stroke-width:2" d="M771,470 l0,-52" />
<path style="fill:none;stroke:#000;stroke-width:2" d="M784,464 l0,-46" />
<path style="fill:none;stroke:#000;stroke-width:2" d="M797,457 l0,-33" />
<path style="fill:none;stroke:#000;stroke-width:2" d="M810,450 l0,-19" />
<path style="fill:none;stroke:#000;stroke-width:2" d="M758,464 l0,-47" />
<path style="fill:none;stroke:#000;stroke-width:2" d="M745,457 l0,-33" />
<path style="fill:none;stroke:#000;stroke-width:2" d="M732,450 l0,-19" />
<path style="fill:none;stroke:#000;stroke-width:2" d="M760,489 l-45,27" />
<path style="fill:none;stroke:#000;stroke-width:2" d="M748,481 l-40,24" />
<path style="fill:none;stroke:#000;stroke-width:2" d="M735,473 l-28,17" />
<path style="fill:none;stroke:#000;stroke-width:2" d="M723,465 l-17,10" />
<path style="fill:none;stroke:#000;stroke-width:2" d="M762,503 l-41,24" />
<path style="fill:none;stroke:#000;stroke-width:2" d="M762,518 l-29,17" />
<path style="fill:none;stroke:#000;stroke-width:2" d="M762,533 l-17,10" />
<path style="fill:#a6a6a6;stroke:#000;stroke-width:2" d="M760,493 l-6,-13 6,-14 14,-6 14,6 5,14 -5,13 -14,6 -14,-6z" />

</svg>
