 

<svg xmlns:agg="http://www.example.com" xmlns="http://www.w3.org/2000/svg" preserveAspectRatio="none" width="0.8553in" height="1.0750in" viewBox="0 0 794 998">

<path style="fill:#033;stroke:#000;stroke-width:2" d="M325,950 l143,0 0,20 -143,0 0,-20z" />
<path style="fill:#194c4c" d="M28,89 l0,144 246,573 123,41 122,-41 246,-573 0,-144 -737,0z" />
<path style="fill:#366" d="M397,89 l286,0 0,37 -1,36 -2,36 -2,35 -4,35 -4,34 -4,33 -5,32 -6,32 -6,31 -7,30 -8,29 -8,29 -8,26 -9,27 -10,24 -10,24 -21,44 -23,39 -25,33 -25,27 -27,21 -28,15 -29,7 -14,1 -15,-1 -29,-7 -28,-15 -27,-21 -26,-27 -24,-33 -23,-39 -21,-44 -10,-24 -10,-24 -9,-27 -8,-26 -8,-29 -8,-29 -7,-30 -6,-31 -6,-32 -5,-32 -5,-33 -3,-34 -3,-35 -3,-35 -2,-36 -1,-36 0,-37 287,0z" />
<path style="fill:#4c7f7f" d="M397,89 l231,0 0,32 -1,32 -1,31 -2,30 -3,30 -3,30 -4,29 -4,28 -5,28 -5,26 -5,27 -6,25 -14,48 -15,44 -16,40 -18,36 -19,32 -21,26 -21,21 -22,15 -35,12 -11,1 -12,-1 -35,-12 -22,-15 -21,-21 -21,-26 -19,-32 -18,-36 -16,-40 -15,-44 -14,-48 -5,-25 -6,-27 -5,-26 -5,-28 -4,-28 -4,-29 -3,-30 -3,-30 -2,-30 -1,-31 -1,-32 0,-32 232,0z" />
<path style="fill:#699" d="M397,89 l202,0 -1,28 -2,55 -4,52 -6,51 -7,49 -10,46 -11,44 -12,40 -14,37 -15,33 -16,29 -17,25 -18,21 -29,22 -30,10 -10,1 -11,-1 -30,-10 -29,-22 -18,-21 -17,-25 -16,-29 -15,-33 -14,-37 -12,-40 -11,-44 -9,-46 -8,-49 -6,-51 -4,-52 -2,-55 0,-28 202,0z" />
<path style="fill:#7fb2b2" d="M397,89 l143,0 -1,38 -2,36 -4,36 -4,33 -7,32 -7,31 -8,28 -9,27 -10,23 -17,31 -19,25 -20,17 -28,12 -7,0 -8,0 -28,-12 -20,-17 -19,-25 -17,-31 -10,-23 -9,-27 -8,-28 -7,-31 -7,-32 -4,-33 -4,-36 -2,-36 0,-19 -1,-19 144,0z" />
<path style="fill:none;stroke:#000;stroke-width:2" d="M28,89 l0,144 246,573 123,41 122,-41 246,-573 0,-144 -737,0" />
<path style="fill:#033" d="M643,397 l-1,-82 21,-21 0,348 -20,-245z" />
<path style="fill:#033" d="M151,397 l0,-82 -21,-21 0,348 21,-245z" />
<path style="fill:#7fb2b2;stroke:#000;stroke-width:2" d="M724,950 l0,-656 -61,0 0,656 61,0z" />
<path style="fill:#7fb2b2;stroke:#000;stroke-width:2" d="M69,950 l0,-656 61,0 0,656 -61,0z" />
<path style="fill:none;stroke:#000;stroke-width:2" d="M28,233 l737,0" />
<path style="fill:#194c4c" d="M130,48 l533,0 0,41 -533,0 0,-41z" />
<path style="fill:#366" d="M189,48 l415,0 0,41 -415,0 0,-41z" />
<path style="fill:#4c7f7f" d="M230,48 l333,0 0,41 -333,0 0,-41z" />
<path style="fill:#699" d="M252,48 l289,0 0,41 -289,0 0,-41z" />
<path style="fill:#7fb2b2" d="M293,48 l207,0 0,41 -207,0 0,-41z" />
<path style="fill:none;stroke:#000;stroke-width:2" d="M130,48 l533,0 0,41 -533,0 0,-41" />
<path style="fill:#194c4c" d="M212,28 l369,0 0,20 -369,0 0,-20z" />
<path style="fill:#366" d="M253,28 l287,0 0,20 -287,0 0,-20z" />
<path style="fill:#4c7f7f" d="M281,28 l231,0 0,20 -231,0 0,-20z" />
<path style="fill:#699" d="M297,28 l200,0 0,20 -200,0 0,-20z" />
<path style="fill:#7fb2b2" d="M324,28 l145,0 0,20 -145,0 0,-20z" />
<path style="fill:none;stroke:#000;stroke-width:2" d="M212,28 l369,0 0,20 -369,0 0,-20" />
<path style="fill:#abcccc;stroke:#000;stroke-width:2" d="M335,151 l389,0 0,61 -389,0 0,-61z" />
<path style="fill:#4c7f7f;stroke:#000;stroke-width:2" d="M28,950 l143,0 0,20 -143,0 0,-20z" />
<path style="fill:#4c7f7f;stroke:#000;stroke-width:2" d="M622,950 l143,0 0,20 -143,0 0,-20z" />
<path style="fill:#194c4c;stroke:#000;stroke-width:2" d="M356,868 l-113,-92 307,0 -112,92 -82,0z" />
<path style="fill:#7f7f7f;stroke:#000;stroke-width:2" d="M476,859 l15,0 0,80 -15,0 0,-80z" />
<path style="fill:#7f7f7f;stroke:#000;stroke-width:2" d="M302,859 l16,0 0,80 -16,0 0,-80z" />
<circle style="fill:#ccc;stroke:#000;stroke-width:2" cx="396" cy="899" r="71" />
<path style="fill:#e5e5e5;stroke:#000;stroke-width:2" d="M294,876 l205,0 0,47 -205,0 0,-47z" />
<path style="fill:none;stroke:#000;stroke-width:2" d="M294,899 l205,0" />
<circle style="fill:#194c4c;stroke:#000;stroke-width:2" cx="396" cy="899" r="63" />
<circle style="fill:#000;stroke:#000;stroke-width:2" cx="396" cy="899" r="47" />
<path style="fill:#b2b2b2;stroke:#000;stroke-width:2" d="M222,714 l349,0 0,61 -349,0 0,-61z" />
<path style="fill:#7f7f7f;stroke:#000;stroke-width:2" d="M381,783 l0,16 -79,0 0,-16 79,0z" />
<path style="fill:#7f7f7f;stroke:#000;stroke-width:2" d="M381,688 l0,16 -79,0 0,-16 79,0z" />
<path style="fill:#e5e5e5;stroke:#000;stroke-width:2" d="M365,673 l0,134 -47,0 0,-134 47,0z" />
<path style="fill:none;stroke:#000;stroke-width:2" d="M342,673 l0,134" />

</svg>
