 

<svg xmlns:agg="http://www.example.com" xmlns="http://www.w3.org/2000/svg" preserveAspectRatio="none" width="0.7156in" height="1.0750in" viewBox="0 0 665 999">

<path style="fill:#194c4c;stroke:#000;stroke-width:2" d="M126,77 l0,-20 -10,-10 -19,0 -10,10 0,20 -10,0 0,-25 15,-14 29,0 15,14 0,25 -10,0z" />
<path style="fill:#4c7f7f;stroke:#000;stroke-width:2" d="M67,67 l471,0 0,903 -471,0 0,-903z" />
<path style="fill:#699;stroke:#000;stroke-width:2" d="M214,342 l305,0 0,510 -305,0 0,-510z" />
<path style="fill:none;stroke:#b2e5e5;stroke-width:2" d="M214,852 l0,-510 305,0" />
<path style="fill:#4c7f7f;stroke:#000;stroke-width:2" d="M28,263 l550,0 0,40 -550,0 0,-40z" />
<path style="fill:none;stroke:#000;stroke-width:2" d="M28,283 l550,0" />
<path style="fill:#699;stroke:#000;stroke-width:2" d="M175,401 l59,0 0,78 -59,0 0,-78z" />
<path style="fill:#699;stroke:#000;stroke-width:2" d="M175,558 l59,0 0,78 -59,0 0,-78z" />
<path style="fill:#699;stroke:#000;stroke-width:2" d="M175,715 l59,0 0,78 -59,0 0,-78z" />
<path style="fill:#7fb2b2;stroke:#000;stroke-width:2" d="M529,420 l-354,0 0,40 354,0 0,-40z" />
<path style="fill:#7fb2b2;stroke:#000;stroke-width:2" d="M529,578 l-354,0 0,39 354,0 0,-39z" />
<path style="fill:#7fb2b2;stroke:#000;stroke-width:2" d="M529,735 l-354,0 0,39 354,0 0,-39z" />
<path style="fill:none;stroke:#b2e5e5;stroke-width:2" d="M234,420 l295,0" />
<path style="fill:none;stroke:#b2e5e5;stroke-width:2" d="M234,578 l295,0" />
<path style="fill:none;stroke:#b2e5e5;stroke-width:2" d="M234,735 l295,0" />
<path style="fill:#699;stroke:#000;stroke-width:2" d="M519,745 l39,0 20,-20 0,-39 -20,-20 -39,0 0,-20 49,0 29,30 0,59 -29,29 -49,0 0,-19z" />
<path style="fill:#194c4c;stroke:#000;stroke-width:2" d="M234,204 l59,0 0,40 -59,0 0,-40z" />
<path style="fill:#194c4c;stroke:#000;stroke-width:2" d="M489,204 l59,0 0,40 -59,0 0,-40z" />
<path style="fill:#194c4c;stroke:#000;stroke-width:2" d="M361,204 l59,0 0,40 -59,0 0,-40z" />
<path style="fill:#033;stroke:#000;stroke-width:2" d="M244,195 l39,0 0,9 -39,0 0,-9z" />
<path style="fill:#033;stroke:#000;stroke-width:2" d="M371,195 l40,0 0,9 -40,0 0,-9z" />
<path style="fill:#033;stroke:#000;stroke-width:2" d="M499,195 l39,0 0,9 -39,0 0,-9z" />
<path style="fill:#366;stroke:#000;stroke-width:2" d="M637,146 l-491,0 0,39 491,0 0,-39z" />
<path style="fill:#9cc" d="M637,162 l-491,0 0,7 491,0 0,-7z" />
<path style="fill:#366;stroke:#000;stroke-width:2" d="M224,136 l334,0 0,59 -334,0 0,-59z" />
<path style="fill:#699" d="M224,149 l334,0 0,33 -334,0 0,-33z" />
<path style="fill:#9cc" d="M224,160 l334,0 0,10 -334,0 0,-10z" />
<path style="fill:#699;stroke:#000;stroke-width:2" d="M342,28 l177,0 0,137 -177,0 0,-137z" />
<path style="fill:none;stroke:#b2e5e5;stroke-width:2" d="M342,165 l0,-137 177,0" />
<path style="fill:none;stroke:#b2e5e5;stroke-width:2" d="M28,303 l0,-40 550,0" />
<path style="fill:none;stroke:#b2e5e5;stroke-width:2" d="M175,793 l0,-78 59,0" />
<path style="fill:none;stroke:#b2e5e5;stroke-width:2" d="M175,479 l0,-78 59,0" />
<path style="fill:none;stroke:#b2e5e5;stroke-width:2" d="M175,636 l0,-78 59,0" />
<path style="fill:none;stroke:#366;stroke-width:2" d="M214,361 l89,0" />
<path style="fill:none;stroke:#366;stroke-width:2" d="M214,833 l89,0" />

</svg>
