 

<svg xmlns:agg="http://www.example.com" xmlns="http://www.w3.org/2000/svg" preserveAspectRatio="none" width="1.6083in" height="0.4701in" viewBox="0 0 999 292">

<path style="fill:#7387a6" d="M498,263 l0,-235 -352,0 0,235 352,0z" />
<path style="fill:#263a59;stroke:#000;stroke-width:2" d="M146,263 l0,-235 -118,0 0,235 118,0z" />
<path style="fill:#ccc" d="M48,38 l88,0 0,216 -88,0 0,-216z" />
<path style="fill:#6b7f9e" d="M498,263 l0,-68 -352,-118 0,186 352,0z" />
<path style="fill:#617594" d="M498,263 l0,-29 -352,-118 0,147 352,0z" />
<path style="fill:#596d8c" d="M498,263 l0,-9 -352,-118 0,127 352,0z" />
<path style="fill:none;stroke:#000;stroke-width:2" d="M498,263 l0,-235 -352,0 0,235 352,0" />
<path style="fill:#e5e5e5" d="M48,97 l0,58 88,40 0,-59 -88,-39z" />
<path style="fill:#fff" d="M48,116 l0,20 88,39 0,-19 -88,-40z" />
<path style="fill:none;stroke:#000;stroke-width:2" d="M48,38 l88,0 0,216 -88,0 0,-216" />
<path style="fill:none;stroke:#fff;stroke-width:2" d="M136,254 l0,-216 -88,0" />
<path style="fill:none;stroke:#7387a6;stroke-width:2" d="M28,28 l118,0" />
<path style="fill:none;stroke:#bfd3f2;stroke-width:2" d="M498,263 l0,-235 -352,0" />
<path style="fill:#7f7f7f;stroke:#000;stroke-width:2" d="M911,205 l0,29 -353,0 0,-29 353,0z" />
<path style="fill:#7f7f7f;stroke:#000;stroke-width:2" d="M911,57 l0,30 -353,0 0,-30 353,0z" />
<path style="fill:#e5e5e5" d="M911,67 l0,10 -353,0 0,-10 353,0z" />
<path style="fill:#e5e5e5" d="M911,214 l0,10 -353,0 0,-10 353,0z" />
<path style="fill:#ff0;stroke:#000;stroke-width:2" d="M558,263 l0,-235 -59,0 0,235 59,0z" />
<path style="fill:#ff0;stroke:#000;stroke-width:2" d="M970,263 l0,-235 -59,0 0,235 59,0z" />
<path style="fill:#000" d="M558,28 l0,59 -59,-59 59,0z" />
<path style="fill:#000" d="M499,86 l59,60 0,59 -59,-59 0,-60z" />
<path style="fill:#000" d="M499,205 l59,58 -59,0 0,-58z" />
<path style="fill:#000" d="M970,28 l0,59 -59,-59 59,0z" />
<path style="fill:#000" d="M911,86 l59,60 0,59 -59,-59 0,-60z" />
<path style="fill:#000" d="M911,205 l59,58 -59,0 0,-58z" />
<path style="fill:none;stroke:#000;stroke-width:2" d="M970,28 l0,235" />

</svg>
