 

<svg xmlns:agg="http://www.example.com" xmlns="http://www.w3.org/2000/svg" preserveAspectRatio="none" width="0.5951in" height="1.0750in" viewBox="0 0 553 999">

<path style="fill:#b2b2aa" d="M71,64 l0,351 -43,58 0,55 43,0 0,-43 146,281 117,-1 147,-280 0,43 44,0 0,-55 -44,-58 0,-351 -37,0 0,-36 -110,0 0,36 -102,0 -15,-15 -29,0 -14,15 -15,0 -14,-15 -30,0 -14,15 -30,0z" />
<path style="fill:#b8b8b0" d="M86,64 l0,409 136,293 108,-1 136,-292 0,-409 -380,0z" />
<path style="fill:#babab2" d="M101,64 l0,409 125,293 100,-1 126,-292 0,-409 -351,0z" />
<path style="fill:#bfbfb7" d="M116,64 l0,409 114,293 91,-1 116,-292 0,-409 -321,0z" />
<path style="fill:#c2c2bd" d="M130,64 l0,409 105,293 82,-1 106,-292 -1,-409 -292,0z" />
<path style="fill:#c7c7c2" d="M145,64 l0,409 94,293 74,-1 95,-292 0,-409 -263,0z" />
<path style="fill:#c9c9c4" d="M159,64 l0,409 84,293 66,-1 84,-292 0,-409 -234,0z" />
<path style="fill:#cfcfca" d="M174,64 l0,409 73,293 58,-1 74,-292 0,-409 -205,0z" />
<path style="fill:#d1d1cc" d="M189,64 l0,409 62,293 50,-1 63,-292 0,-409 -175,0z" />
<path style="fill:#d6d6d1" d="M203,64 l0,409 52,293 42,-1 52,-292 0,-409 -146,0z" />
<path style="fill:#d9d9d6" d="M218,64 l0,409 42,293 33,-1 42,-292 0,-409 -117,0z" />
<path style="fill:#dededb" d="M233,64 l0,409 31,293 25,-1 31,-292 0,-409 -87,0z" />
<path style="fill:#e0e0dd" d="M247,64 l0,409 21,293 16,-1 22,-292 -1,-409 -58,0z" />
<path style="fill:#e5e5e2" d="M262,64 l0,409 10,293 8,-1 11,-292 0,-409 -29,0z" />
<path style="fill:#7f7f7f" d="M217,970 l0,-36 15,0 0,-37 -7,0 -8,-11 8,-11 7,0 0,-51 -15,0 -7,-36 -7,0 0,-22 146,0 0,22 -7,0 -8,36 -14,0 0,51 7,0 7,11 -7,11 -7,0 0,37 14,0 0,36 -117,0z" />
<path style="fill:#949494" d="M228,970 l0,-36 12,0 0,-37 -6,0 -6,-11 6,-11 6,0 0,-51 -12,0 -6,-36 -5,0 0,-22 119,0 0,22 -6,0 -6,36 -12,0 0,51 6,0 6,11 -6,11 -6,0 0,37 12,0 0,36 -96,0z" />
<path style="fill:#a8a8a8" d="M239,970 l0,-36 9,0 0,-37 -4,0 -5,-11 5,-11 4,0 0,-51 -9,0 -5,-36 -4,0 0,-22 93,0 0,22 -5,0 -4,36 -10,0 0,51 5,0 5,11 -5,11 -5,0 0,37 10,0 0,36 -75,0z" />
<path style="fill:#bdbdbd" d="M250,970 l0,-36 6,0 0,-37 -3,0 -3,-11 3,-11 3,0 0,-51 -6,0 -4,-36 -3,0 0,-22 67,0 0,22 -4,0 -3,36 -6,0 0,51 3,0 3,11 -3,11 -3,0 0,37 6,0 0,36 -53,0z" />
<path style="fill:#d1d1d1" d="M260,970 l0,-36 4,0 0,-37 -2,0 -2,-11 2,-11 2,0 0,-51 -4,0 -2,-36 -2,0 0,-22 41,0 0,22 -2,0 -2,36 -4,0 0,51 1,0 3,11 -3,11 -1,0 0,37 4,0 0,36 -33,0z" />
<path style="fill:#e5e5e5" d="M271,970 l0,-36 1,0 0,-37 -1,0 0,-11 0,-11 1,0 0,-51 -1,0 -1,-36 -1,0 0,-22 14,0 0,22 0,0 -1,36 -2,0 0,51 1,0 1,11 -1,11 -1,0 0,37 2,0 0,36 -11,0z" />
<path style="fill:none;stroke:#000;stroke-width:2" d="M481,528 l44,-44" />
<path style="fill:none;stroke:#000;stroke-width:2" d="M481,484 l44,44" />
<path style="fill:none;stroke:#000;stroke-width:2" d="M28,528 l43,-44" />
<path style="fill:none;stroke:#000;stroke-width:2" d="M28,484 l43,44" />
<path style="fill:none;stroke:#000;stroke-width:2" d="M525,473 l-44,0 0,-58 44,58" />
<path style="fill:none;stroke:#000;stroke-width:2" d="M475,473 l-35,0 0,-58 35,58" />
<path style="fill:none;stroke:#000;stroke-width:2" d="M425,473 l-26,0 0,-58 26,58" />
<path style="fill:none;stroke:#000;stroke-width:2" d="M376,473 l-18,0 0,-58 18,58" />
<path style="fill:none;stroke:#000;stroke-width:2" d="M326,473 l-9,0 0,-58 9,58" />
<path style="fill:none;stroke:#000;stroke-width:2" d="M276,473 l0,-58 0,58" />
<path style="fill:none;stroke:#000;stroke-width:2" d="M227,473 l8,0 0,-58 -8,58" />
<path style="fill:none;stroke:#000;stroke-width:2" d="M177,473 l17,0 0,-58 -17,58" />
<path style="fill:none;stroke:#000;stroke-width:2" d="M127,473 l26,0 0,-58 -26,58" />
<path style="fill:none;stroke:#000;stroke-width:2" d="M77,473 l35,0 0,-58 -35,58" />
<path style="fill:none;stroke:#000;stroke-width:2" d="M28,473 l43,0 0,-58 -43,58" />
<path style="fill:none;stroke:#000;stroke-width:2" d="M28,473 l496,0 0,11 -496,0 0,-11" />
<path style="fill:none;stroke:#000;stroke-width:2" d="M71,404 l410,0 0,11 -410,0 0,-11" />
<path style="fill:none;stroke:#000;stroke-width:2" d="M210,788 l132,0" />
<path style="fill:none;stroke:#000;stroke-width:2" d="M232,824 l88,0" />
<path style="fill:none;stroke:#000;stroke-width:2" d="M232,875 l88,0" />
<path style="fill:none;stroke:#000;stroke-width:2" d="M232,897 l88,0" />
<path style="fill:none;stroke:#000;stroke-width:2" d="M232,934 l88,0" />
<path style="fill:none;stroke:#000;stroke-width:2" d="M334,63 l114,0" />
<path style="fill:none;stroke:#000;stroke-width:2" d="M327,49 l128,0" />
<path style="fill:none;stroke:#000;stroke-width:2" d="M327,56 l128,0" />
<path style="fill:none;stroke:#000;stroke-width:2" d="M101,64 l58,0" />
<path style="fill:none;stroke:#000;stroke-width:2" d="M174,64 l58,0" />
<path style="fill:none;stroke:#000;stroke-width:2" d="M217,970 l0,-36 15,0 0,-37 -7,0 -8,-11 8,-11 7,0 0,-51 -15,0 -7,-36 -7,0 0,-22 146,0 0,22 -7,0 -8,36 -14,0 0,51 7,0 7,11 -7,11 -7,0 0,37 14,0 0,36 -117,0" />
<path style="fill:none;stroke:#000;stroke-width:2" d="M71,64 l0,351 -43,58 0,55 43,0 0,-43 146,281 117,-1 147,-280 0,43 44,0 0,-55 -44,-58 0,-351 -37,0 0,-36 -110,0 0,36 -102,0 -15,-15 -29,0 -14,15 -15,0 -14,-15 -30,0 -14,15 -30,0" />

</svg>
