 

<svg xmlns:agg="http://www.example.com" xmlns="http://www.w3.org/2000/svg" preserveAspectRatio="none" width="1.0750in" height="1.0750in" viewBox="0 0 999 999">

<path style="fill:#666" d="M617,116 l137,0 0,15 -137,0 0,-15z" />
<path style="fill:#4c4c4c" d="M48,862 l451,0 0,5 -451,0 0,-5z" />
<path style="fill:#7f7f7f;stroke:#000;stroke-width:2" d="M538,617 l157,275 79,0 157,-275 -393,0z" />
<path style="fill:#8f8f8f" d="M570,616 l132,275 66,0 132,-275 -330,0z" />
<path style="fill:#9e9e9e" d="M601,616 l107,275 54,0 106,-275 -267,0z" />
<path style="fill:#adadad" d="M633,616 l82,275 40,0 82,-275 -204,0z" />
<path style="fill:#bdbdbd" d="M664,616 l57,275 28,0 57,-275 -142,0z" />
<path style="fill:#ccc" d="M695,617 l32,275 15,0 32,-275 -79,0z" />
<path style="fill:#b2b2b2" d="M931,146 l-1,-2 -33,-9 -38,-5 -31,-2 -35,-1 -38,-1 -40,0 -39,1 -35,1 -31,2 -27,3 -29,5 -15,6 -1,2 0,471 393,0 0,-471z" />
<path style="fill:#e5e5e5" d="M499,862 l0,-314 -412,0 -39,157 0,157 451,0z" />
<path style="fill:#c2c2c2" d="M900,145 l-1,-2 -27,-9 -32,-4 -41,-3 -31,-1 -16,-1 -34,0 -32,1 -30,2 -38,3 -28,5 -19,7 -1,2 0,471 330,0 0,-471z" />
<path style="fill:#d1d1d1" d="M868,145 l0,-2 -30,-10 -29,-4 -34,-3 -27,-1 -40,1 -37,2 -30,3 -29,6 -10,6 -1,2 0,471 267,0 0,-471z" />
<path style="fill:#e0e0e0" d="M837,145 l-23,-12 -30,-5 -29,-2 -10,-1 -30,1 -29,2 -30,5 -23,12 0,471 204,0 0,-471z" />
<path style="fill:#f0f0f0" d="M806,145 l-1,-2 -25,-13 -31,-4 -7,-1 -28,1 -29,5 -20,12 -1,2 0,471 142,0 0,-471z" />
<path style="fill:#fff" d="M774,146 l-1,-5 -2,-3 -4,-3 -5,-4 -5,-2 -7,-2 -8,-1 -7,0 -8,0 -8,1 -6,2 -6,2 -5,4 -4,3 -2,3 -1,5 0,471 79,0 0,-471z" />
<path style="fill:none;stroke:#000;stroke-width:2" d="M931,146 l-1,-2 -33,-9 -38,-5 -31,-2 -35,-1 -38,-1 -40,0 -39,1 -35,1 -31,2 -27,3 -29,5 -15,6 -1,2 0,471 157,275 79,0 157,-275 0,-471" />
<path style="fill:#b2b2b2;stroke:#000;stroke-width:2" d="M529,612 l412,0 0,10 -412,0 0,-10z" />
<path style="fill:#dedede" d="M499,862 l0,-206 -451,108 0,98 451,0z" />
<path style="fill:#d4d4d4" d="M499,862 l0,-181 -451,108 0,73 451,0z" />
<path style="fill:#ccc" d="M499,862 l0,-167 -451,108 0,59 451,0z" />
<path style="fill:none;stroke:#000;stroke-width:2" d="M499,862 l0,-314 -412,0 -39,157 0,157 451,0" />
<path style="fill:#b2b2b2" d="M205,862 l0,-255 196,0 0,255 -196,0z" />
<path style="fill:#4c4c4c" d="M219,862 l0,-240 167,0 15,-15 -196,0 0,255 14,0z" />
<path style="fill:#999" d="M401,862 l0,-255 -15,15 1,240 14,0z" />
<path style="fill:#900" d="M121,607 l49,0 0,20 -49,0 0,-20z" />
<path style="fill:#e5e5e5;stroke:#000;stroke-width:2" d="M28,867 l491,0 0,25 -491,0 0,-25z" />
<path style="fill:#e5e5e5;stroke:#000;stroke-width:2" d="M28,892 l942,0 0,9 -34,69 -874,0 -34,-69 0,-9z" />
<path style="fill:#b2b2b2" d="M28,901 l5,10 932,0 5,-10 -942,0z" />
<path style="fill:#e5e5e5;stroke:#000;stroke-width:2" d="M539,892 l78,0 0,54 -78,0 0,-54z" />
<path style="fill:#e5e5e5;stroke:#000;stroke-width:2" d="M263,892 l79,0 0,54 -79,0 0,-54z" />
<path style="fill:#4c4c4c" d="M548,901 l59,0 0,35 -59,0 0,-35z" />
<path style="fill:#4c4c4c" d="M273,901 l59,0 0,35 -59,0 0,-35z" />
<path style="fill:#7f7f7f" d="M106,567 l59,0 0,20 -59,0 0,-20z" />
<path style="fill:#7f7f7f" d="M224,568 l59,0 0,20 -59,0 0,-20z" />
<path style="fill:#7f7f7f" d="M342,568 l59,0 0,20 -59,0 0,-20z" />
<path style="fill:#c90" d="M322,631 l49,0 0,20 -49,0 0,-20z" />
<path style="fill:#ccc" d="M381,342 l118,0 0,206 -118,0 0,-206z" />
<path style="fill:#dedede" d="M398,342 l85,0 0,206 -85,0 0,-206z" />
<path style="fill:#ededed" d="M414,342 l53,0 0,206 -53,0 0,-206z" />
<path style="fill:#fff" d="M431,342 l19,0 0,206 -19,0 0,-206z" />
<path style="fill:none;stroke:#000;stroke-width:2" d="M381,342 l118,0 0,206 -118,0 0,-206" />
<path style="fill:none;stroke:#999;stroke-width:2" d="M597,381 l275,0" />
<path style="fill:none;stroke:#999;stroke-width:2" d="M597,322 l275,0" />
<path style="fill:#b2b2b2" d="M852,263 l20,0 0,118 -20,0 0,-118z" />
<path style="fill:#b2b2b2" d="M597,263 l20,0 0,118 -20,0 0,-118z" />
<path style="fill:#b2b2b2" d="M852,484 l20,0 0,74 -20,0 0,-74z" />
<path style="fill:#b2b2b2" d="M597,484 l20,0 0,74 -20,0 0,-74z" />
<path style="fill:#999;stroke:#000;stroke-width:2" d="M872,28 l39,0 0,864 -39,0 0,-864z" />
<path style="fill:#999;stroke:#000;stroke-width:2" d="M558,28 l39,0 0,864 -39,0 0,-864z" />
<path style="fill:#e5e5e5" d="M883,28 l18,0 0,864 -18,0 0,-864z" />
<path style="fill:#e5e5e5" d="M568,28 l19,0 0,864 -19,0 0,-864z" />
<path style="fill:#ccc;stroke:#000;stroke-width:2" d="M607,116 l5,-88 147,0 5,88 -157,0z" />
<path style="fill:none;stroke:#fff;stroke-width:2" d="M617,106 l5,-68 127,0" />
<path style="fill:#999;stroke:#000;stroke-width:2" d="M597,754 l275,0 0,30 -275,0 0,-30z" />

</svg>
