 

<svg xmlns:agg="http://www.example.com" xmlns="http://www.w3.org/2000/svg" preserveAspectRatio="none" width="1.6083in" height="0.8581in" viewBox="0 0 999 533">

<path style="fill:#b2b2b2;stroke:#000;stroke-width:2" d="M749,28 l40,0 0,39 -40,0 0,-39z" />
<path style="fill:#b2b2b2;stroke:#000;stroke-width:2" d="M376,28 l40,0 0,39 -40,0 0,-39z" />
<path style="fill:#b2b2b2;stroke:#000;stroke-width:2" d="M567,28 l40,0 0,39 -40,0 0,-39z" />
<path style="fill:#b2b2b2;stroke:#000;stroke-width:2" d="M185,28 l40,0 0,39 -40,0 0,-39z" />
<path style="fill:#ccc;stroke:#000;stroke-width:2" d="M367,348 l382,0 0,123 -382,0 0,-123z" />
<path style="fill:#7f7f7f;stroke:#000;stroke-width:2" d="M170,367 l49,0 0,5 -49,0 0,-5z" />
<path style="fill:#999;stroke:#000;stroke-width:2" d="M170,423 l49,-3 0,7 -49,4 0,-8z" />
<path style="fill:#999;stroke:#000;stroke-width:2" d="M170,410 l49,-4 0,6 -49,4 0,-6z" />
<path style="fill:#999;stroke:#000;stroke-width:2" d="M170,395 l49,-4 0,8 -49,3 0,-7z" />
<path style="fill:#999;stroke:#000;stroke-width:2" d="M170,380 l49,-4 0,8 -49,3 0,-7z" />
<path style="fill:#e5e5e5;stroke:#000;stroke-width:2" d="M170,410 l49,10 0,7 -49,-9 0,-8z" />
<path style="fill:#e5e5e5;stroke:#000;stroke-width:2" d="M170,395 l49,11 0,6 -49,-10 0,-7z" />
<path style="fill:#e5e5e5;stroke:#000;stroke-width:2" d="M170,382 l49,9 0,8 -49,-12 0,-5z" />
<path style="fill:#e5e5e5;stroke:#000;stroke-width:2" d="M170,367 l49,9 0,8 -49,-10 0,-7z" />
<path style="fill:#b2b2b2;stroke:#000;stroke-width:2" d="M28,190 l942,0 0,19 -39,0 -59,139 -767,0 -77,-99 0,-59z" />
<path style="fill:#4c4c4c;stroke:#000;stroke-width:2" d="M28,181 l942,0 0,9 -942,0 0,-9z" />
<path style="fill:#ccc;stroke:#000;stroke-width:2" d="M28,181 l0,-11 58,0 40,-127 727,0 59,127 58,0 0,11 -942,0z" />
<path style="fill:#999;stroke:#000;stroke-width:2" d="M105,228 l40,0 0,40 -40,0 0,-40z" />
<path style="fill:#333;stroke:#000;stroke-width:2" d="M126,234 l10,5 3,7 0,3 -3,11 -10,4 -8,-2 -6,-7 -1,-6 3,-8 7,-6 5,-1z" />
<path style="fill:#999;stroke:#000;stroke-width:2" d="M283,228 l40,0 0,40 -40,0 0,-40z" />
<path style="fill:#333;stroke:#000;stroke-width:2" d="M302,234 l9,3 5,7 1,5 -4,11 -7,4 -4,0 -9,-4 -4,-8 0,-3 4,-10 9,-5z" />
<path style="fill:#999;stroke:#000;stroke-width:2" d="M518,228 l40,0 0,40 -40,0 0,-40z" />
<circle style="fill:#333;stroke:#000;stroke-width:2" cx="539" cy="249" r="15" />
<path style="fill:#999;stroke:#000;stroke-width:2" d="M715,228 l40,0 0,40 -40,0 0,-40z" />
<path style="fill:#333;stroke:#000;stroke-width:2" d="M736,234 l9,5 4,7 0,3 -4,11 -9,4 -9,-2 -5,-7 -2,-6 4,-10 8,-5 4,0z" />
<path style="fill:none;stroke:#7f7f7f;stroke-width:2" d="M480,338 l-369,0 -74,-95 0,-43 443,0 0,138" />
<path style="fill:none;stroke:#7f7f7f;stroke-width:2" d="M490,338 l372,0 65,-138 -437,0 0,138" />
<path style="fill:#ccc;stroke:#7f7f7f;stroke-width:2" d="M130,47 l-38,128 814,0 -59,-128 -717,0z" />
<path style="fill:#e5e5e5" d="M136,47 l-29,98 786,0 -50,-98 -707,0z" />
<path style="fill:#999;stroke:#000;stroke-width:2" d="M185,126 l40,0 0,40 -40,0 0,-40z" />
<path style="fill:#333;stroke:#000;stroke-width:2" d="M204,132 l9,2 6,8 0,3 -2,9 -10,6 -3,0 -10,-4 -3,-8 -1,-3 4,-9 10,-4z" />
<path style="fill:#999;stroke:#000;stroke-width:2" d="M459,126 l40,0 0,40 -40,0 0,-40z" />
<path style="fill:#333;stroke:#000;stroke-width:2" d="M480,132 l10,4 3,9 -2,9 -8,6 -3,0 -9,-2 -6,-10 0,-3 4,-9 8,-4 3,0z" />
<path style="fill:#999;stroke:#000;stroke-width:2" d="M773,126 l40,0 0,40 -40,0 0,-40z" />
<path style="fill:#333;stroke:#000;stroke-width:2" d="M794,132 l10,4 4,9 -3,9 -8,6 -3,0 -9,-2 -6,-10 0,-3 4,-9 8,-4 3,0z" />
<path style="fill:#fff" d="M132,62 l-12,40 748,0 -21,-40 -715,0z" />
<path style="fill:#e5e5e5;stroke:#000;stroke-width:2" d="M145,505 l21,-80 59,0 18,80 -98,0z" />
<path style="fill:#c93;stroke:#000;stroke-width:2" d="M28,175 l942,0 0,6 -942,0 0,-6z" />
<path style="fill:#ccc;stroke:#000;stroke-width:2" d="M155,425 l79,0 0,10 -79,0 0,-10z" />
<path style="fill:#e5e5e5;stroke:#000;stroke-width:2" d="M155,367 l79,0 0,-4 -9,0 0,-74 -40,0 0,13 -19,0 0,61 -11,0 0,4z" />
<path style="fill:#7f7f7f;stroke:#000;stroke-width:2" d="M823,367 l49,0 0,5 -49,0 0,-5z" />
<path style="fill:#999;stroke:#000;stroke-width:2" d="M823,423 l49,-3 0,7 -49,4 0,-8z" />
<path style="fill:#999;stroke:#000;stroke-width:2" d="M823,410 l49,-4 0,6 -49,4 0,-6z" />
<path style="fill:#999;stroke:#000;stroke-width:2" d="M823,395 l49,-4 0,8 -49,3 0,-7z" />
<path style="fill:#999;stroke:#000;stroke-width:2" d="M823,380 l49,-4 0,8 -49,3 0,-7z" />
<path style="fill:#e5e5e5;stroke:#000;stroke-width:2" d="M823,410 l49,10 0,7 -49,-9 0,-8z" />
<path style="fill:#e5e5e5;stroke:#000;stroke-width:2" d="M823,395 l49,11 0,6 -49,-10 0,-7z" />
<path style="fill:#e5e5e5;stroke:#000;stroke-width:2" d="M823,382 l49,9 0,8 -49,-12 0,-5z" />
<path style="fill:#e5e5e5;stroke:#000;stroke-width:2" d="M823,367 l49,9 0,8 -49,-10 0,-7z" />
<path style="fill:#e5e5e5;stroke:#000;stroke-width:2" d="M798,505 l21,-80 59,0 18,80 -98,0z" />
<path style="fill:#ccc;stroke:#000;stroke-width:2" d="M808,425 l79,0 0,10 -79,0 0,-10z" />
<path style="fill:#e5e5e5;stroke:#000;stroke-width:2" d="M808,367 l79,0 0,-4 -9,0 0,-74 -40,0 0,13 -19,0 0,61 -11,0 0,4z" />
<path style="fill:#e5e5e5;stroke:#000;stroke-width:2" d="M323,348 l19,49 59,0 19,-49 -97,0z" />
<path style="fill:#e5e5e5;stroke:#000;stroke-width:2" d="M696,348 l19,49 58,0 21,-49 -98,0z" />

</svg>
