 

<svg xmlns:agg="http://www.example.com" xmlns="http://www.w3.org/2000/svg" preserveAspectRatio="none" width="0.5671in" height="1.0750in" viewBox="0 0 527 999">

<path style="fill:#727f7f" d="M420,67 l0,471 -117,197 0,58 -79,0 0,-58 -118,-197 0,-471 19,-19 27,-9 37,-7 28,-2 30,-2 16,0 32,1 29,2 27,3 33,8 24,10 12,15z" />
<path style="fill:#8c9999" d="M396,67 l0,471 -99,197 0,58 -67,0 0,-58 -99,-197 0,-471 0,-4 22,-18 26,-8 33,-6 38,-3 13,0 40,2 34,4 28,8 25,13 5,8 1,4z" />
<path style="fill:#a5b2b2" d="M371,67 l0,471 -81,197 0,58 -54,0 0,-58 -81,-197 0,-471 19,-22 29,-11 28,-4 32,-2 32,2 29,4 29,11 18,22z" />
<path style="fill:#bfcccc" d="M361,67 l0,471 -73,197 0,58 -49,0 0,-58 -74,-197 0,-471 17,-22 27,-11 35,-5 19,-1 30,2 33,7 23,11 12,19z" />
<path style="fill:#d8e5e5" d="M332,67 l0,471 -51,197 0,58 -35,0 0,-58 -51,-197 0,-471 15,-25 27,-11 26,-3 27,3 26,11 16,21 0,4z" />
<path style="fill:#f2ffff" d="M298,67 l0,471 -26,197 0,58 -17,0 0,-58 -26,-197 0,-471 1,-8 2,-7 3,-7 4,-6 5,-5 6,-3 6,-2 7,-1 7,1 7,2 6,3 5,5 4,6 3,7 2,7 1,8z" />
<path style="fill:none;stroke:#000;stroke-width:2" d="M420,67 l0,471 -117,197 0,58 -79,0 0,-58 -118,-197 0,-471 19,-19 27,-9 37,-7 28,-2 30,-2 16,0 32,1 29,2 27,3 33,8 24,10 12,15" />
<path style="fill:none;stroke:#000;stroke-width:2" d="M106,538 l314,0" />
<path style="fill:none;stroke:#000;stroke-width:2" d="M106,77 l19,-19 27,-9 37,-7 28,-3 30,-1 16,0 32,0 29,3 27,3 33,8 24,9 12,16" />
<path style="fill:#727f7f" d="M219,784 l89,0 0,14 -89,0 0,-14z" />
<path style="fill:#727f7f;stroke:#000;stroke-width:2" d="M219,725 l89,0 0,15 -89,0 0,-15z" />
<path style="fill:#919e9e" d="M232,725 l63,0 0,15 -63,0 0,-15z" />
<path style="fill:#919e9e" d="M232,784 l63,0 0,14 -63,0 0,-14z" />
<path style="fill:#b2bfbf" d="M237,725 l53,0 0,15 -53,0 0,-15z" />
<path style="fill:#b2bfbf" d="M237,784 l53,0 0,14 -53,0 0,-14z" />
<path style="fill:#d8e5e5" d="M254,725 l19,0 0,15 -19,0 0,-15z" />
<path style="fill:#d8e5e5" d="M254,784 l19,0 0,14 -19,0 0,-14z" />
<path style="fill:none;stroke:#000;stroke-width:2" d="M219,784 l89,0 0,14 -89,0 0,-14" />
<path style="fill:#a5b2b2;stroke:#000;stroke-width:2" d="M401,518 l-39,0 0,432 39,0 0,-432z" />
<path style="fill:#a5b2b2;stroke:#000;stroke-width:2" d="M126,518 l39,0 0,432 -39,0 0,-432z" />
<path style="fill:#727f7f;stroke:#000;stroke-width:2" d="M175,518 l-10,0 0,432 10,0 0,-432z" />
<path style="fill:#727f7f;stroke:#000;stroke-width:2" d="M352,518 l10,0 0,432 -10,0 0,-432z" />
<path style="fill:#727f7f;stroke:#000;stroke-width:2" d="M28,970 l10,-20 451,0 10,20 -471,0z" />
<path style="fill:none;stroke:#000;stroke-width:2" d="M175,578 l177,235" />
<path style="fill:none;stroke:#000;stroke-width:2" d="M352,578 l-177,235" />

</svg>
