 

<svg xmlns:agg="http://www.example.com" xmlns="http://www.w3.org/2000/svg" preserveAspectRatio="none" width="1.0925in" height="1.0750in" viewBox="0 0 998 982">

<path style="fill:#fff;stroke:#000;stroke-width:2" d="M122,120 l166,245 24,-15 -166,-245 -24,15z" />
<path style="fill:#ccc;stroke:#000;stroke-width:2" d="M28,261 l101,151 145,-75 -122,-181 -124,105z" />
<path style="fill:#e5e5e5" d="M71,256 l73,111 65,-43 -76,-110 -62,42z" />
<path style="fill:#4c4c4c" d="M120,246 l55,80 15,-12 -55,-79 -15,11z" />
<path style="fill:#4c4c4c;stroke:#000;stroke-width:2" d="M331,707 l0,171 181,0 0,-171 -181,0z" />
<path style="fill:#7f7f7f;stroke:#000;stroke-width:2" d="M54,620 l0,258 96,0 0,-258 -96,0z" />
<path style="fill:#000" d="M116,810 l-24,25 24,24 23,-24 -23,-25z" />
<path style="fill:#c2c2c2" d="M92,37 l0,19 18,0 287,439 0,78 77,0 0,-78 287,-439 19,0 0,-19 -688,0z" />
<path style="fill:#c9c9c9" d="M126,37 l0,19 18,0 257,439 0,78 70,0 0,-78 258,-439 17,0 0,-19 -620,0z" />
<path style="fill:#d1d1d1" d="M160,37 l0,19 17,0 228,439 0,78 62,0 0,-78 230,-439 15,0 0,-19 -552,0z" />
<path style="fill:#dbdbdb" d="M194,37 l0,19 15,0 199,439 0,78 55,0 0,-78 202,-439 13,0 0,-19 -484,0z" />
<path style="fill:#e3e3e3" d="M227,37 l0,19 12,0 173,439 0,78 47,0 0,-78 174,-439 11,0 0,-19 -417,0z" />
<path style="fill:#e8e8e8" d="M261,37 l0,19 10,0 145,439 0,78 40,0 0,-78 145,-439 9,0 0,-19 -349,0z" />
<path style="fill:#ededed" d="M295,37 l0,19 8,0 117,439 0,78 32,0 0,-78 117,-439 7,0 0,-19 -281,0z" />
<path style="fill:#f5f5f5" d="M329,37 l0,19 6,0 88,439 0,78 25,0 0,-78 89,-439 5,0 0,-19 -213,0z" />
<path style="fill:#fafafa" d="M363,37 l0,19 4,0 60,439 0,78 17,0 0,-78 61,-439 3,0 0,-19 -145,0z" />
<path style="fill:#fff" d="M397,37 l0,19 2,0 32,439 0,78 9,0 0,-78 33,-439 1,0 0,-19 -77,0z" />
<path style="fill:none;stroke:#000;stroke-width:2" d="M92,37 l0,19 18,0 287,439 0,78 77,0 0,-78 287,-439 19,0 0,-19 -688,0" />
<path style="fill:none;stroke:#b2b2b2;stroke-width:2" d="M110,56 l651,0" />
<path style="fill:none;stroke:#b2b2b2;stroke-width:2" d="M397,495 l77,0" />
<path style="fill:#7f7f7f" d="M397,573 l0,115 77,0 0,-115 -77,0z" />
<path style="fill:#919191" d="M403,573 l0,113 66,0 0,-113 -66,0z" />
<path style="fill:#a1a1a1" d="M408,573 l0,113 55,0 0,-113 -55,0z" />
<path style="fill:#b2b2b2" d="M414,573 l0,113 43,0 0,-113 -43,0z" />
<path style="fill:#c4c4c4" d="M420,573 l0,113 34,0 0,-113 -34,0z" />
<path style="fill:#d4d4d4" d="M423,573 l0,113 25,0 0,-113 -25,0z" />
<path style="fill:#e5e5e5" d="M429,573 l0,115 13,0 0,-115 -13,0z" />
<path style="fill:none;stroke:#000;stroke-width:2" d="M397,573 l0,115 77,0 0,-115 -77,0" />
<path style="fill:#b2b2b2;stroke:#000;stroke-width:2" d="M733,56 l0,888 28,0 0,-888 -28,0z" />
<path style="fill:#b2b2b2;stroke:#000;stroke-width:2" d="M110,56 l0,888 29,0 0,-888 -29,0z" />
<path style="fill:#b2b2b2;stroke:#000;stroke-width:2" d="M397,648 l0,77 573,19 0,-47 -573,-49z" />
<path style="fill:#e5e5e5;stroke:#000;stroke-width:2" d="M397,648 l0,9 573,50 0,-10 -573,-49z" />
<path style="fill:#e5e5e5" d="M427,667 l-20,21 20,20 19,-20 -19,-21z" />
<path style="fill:#7f7f7f;stroke:#000;stroke-width:2" d="M761,944 l-58,0 0,10 58,0 0,-10z" />
<path style="fill:#7f7f7f;stroke:#000;stroke-width:2" d="M169,944 l-59,0 0,10 59,0 0,-10z" />
<path style="fill:#999" d="M893,707 l0,37 21,0 0,-37 -21,0z" />
<path style="fill:none;stroke:#000;stroke-width:2" d="M893,744 l21,0 0,-37" />
<path style="fill:none;stroke:#fff;stroke-width:2" d="M914,707 l-21,0 0,37" />
<path style="fill:#333" d="M120,37 l0,-9 9,0 0,9 -9,0z" />
<path style="fill:#333" d="M741,37 l0,-9 11,0 0,9 -11,0z" />
<path style="fill:#333" d="M425,37 l0,-9 10,0 0,9 -10,0z" />
<path style="fill:#333" d="M425,67 l0,-11 10,0 0,11 -10,0z" />
<path style="fill:#7f7f7f;stroke:#000;stroke-width:2" d="M388,591 l0,38 9,0 0,-38 -9,0z" />
<path style="fill:#999;stroke:#000;stroke-width:2" d="M731,878 l-592,0 0,10 592,0 0,-10z" />
<path style="fill:#e5e5e5" d="M354,789 l19,74 120,-32 -20,-73 -119,31z" />
<path style="fill:#000" d="M375,833 l5,19 100,-27 -4,-19 -101,27z" />
<path style="fill:none;stroke:#fff;stroke-width:2" d="M365,876 l-26,-102 137,-37" />

</svg>
