 

<svg xmlns:agg="http://www.example.com" xmlns="http://www.w3.org/2000/svg" preserveAspectRatio="none" width="1.6083in" height="0.6978in" viewBox="0 0 998 433">

<path style="fill:#7387a6" d="M782,405 l0,-377 -566,0 0,377 566,0z" />
<path style="fill:none;stroke:#000;stroke-width:2" d="M782,28 l0,377" />
<path style="fill:#263a59;stroke:#000;stroke-width:2" d="M782,405 l0,-377 188,0 0,377 -188,0z" />
<path style="fill:#ccc" d="M797,44 l142,0 0,345 -142,0 0,-345z" />
<path style="fill:#6b7f9e" d="M782,405 l0,-110 -566,-188 0,298 566,0z" />
<path style="fill:#617594" d="M782,405 l0,-48 -566,-188 0,236 566,0z" />
<path style="fill:#596d8c" d="M782,405 l0,-16 -566,-188 0,204 566,0z" />
<path style="fill:none;stroke:#000;stroke-width:2" d="M782,405 l0,-377 -566,0 0,377 566,0" />
<path style="fill:#e5e5e5" d="M797,138 l0,94 141,63 0,-94 -141,-63z" />
<path style="fill:#fff" d="M797,169 l0,32 141,63 0,-32 -141,-63z" />
<path style="fill:none;stroke:#000;stroke-width:2" d="M797,44 l142,0 0,345 -142,0 0,-345" />
<path style="fill:none;stroke:#fff;stroke-width:2" d="M939,389 l0,-345 -142,0" />
<path style="fill:none;stroke:#7387a6;stroke-width:2" d="M970,405 l0,-377 -188,0" />
<path style="fill:none;stroke:#bfd3f2;stroke-width:2" d="M782,405 l0,-377 -566,0" />
<path style="fill:#ff0;stroke:#000;stroke-width:2" d="M216,405 l0,-377 -188,0 0,377 188,0z" />
<path style="fill:#000" d="M216,28 l0,95 -94,-95 94,0z" />
<path style="fill:#000" d="M122,121 l94,95 0,95 -94,-95 0,-95z" />
<path style="fill:#000" d="M122,311 l94,94 -94,0 0,-94z" />
<path style="fill:#000" d="M122,28 l0,95 -94,-95 94,0z" />
<path style="fill:#000" d="M28,121 l94,95 0,95 -94,-95 0,-95z" />
<path style="fill:#000" d="M28,311 l94,94 -94,0 0,-94z" />

</svg>
