 

<svg xmlns:agg="http://www.example.com" xmlns="http://www.w3.org/2000/svg" preserveAspectRatio="none" width="1.6083in" height="0.4057in" viewBox="0 0 999 252">

<path style="fill:#f2f2f2" d="M970,38 l-942,0 0,176 942,0 0,-176z" />
<path style="fill:#e5e5e5" d="M970,67 l-942,0 0,118 942,0 0,-118z" />
<path style="fill:#999;stroke:#000;stroke-width:2" d="M833,205 l58,-157 20,0 -59,157 -19,0z" />
<path style="fill:#999;stroke:#000;stroke-width:2" d="M715,205 l59,-157 19,0 -58,157 -20,0z" />
<path style="fill:#999;stroke:#000;stroke-width:2" d="M597,205 l59,-157 20,0 -59,157 -20,0z" />
<path style="fill:#999;stroke:#000;stroke-width:2" d="M479,205 l59,-157 20,0 -59,157 -20,0z" />
<path style="fill:#999;stroke:#000;stroke-width:2" d="M361,205 l59,-157 20,0 -59,157 -20,0z" />
<path style="fill:#999;stroke:#000;stroke-width:2" d="M244,205 l58,-157 20,0 -59,157 -19,0z" />
<path style="fill:#999;stroke:#000;stroke-width:2" d="M126,205 l59,-157 19,0 -58,157 -20,0z" />
<path style="fill:#999;stroke:#000;stroke-width:2" d="M87,48 l-30,78 -19,0 29,-78 20,0z" />
<path style="fill:#d9d9d9;stroke:#000;stroke-width:2" d="M146,205 l-59,-157 -20,0 59,157 20,0z" />
<path style="fill:#d9d9d9;stroke:#000;stroke-width:2" d="M263,205 l-58,-157 -20,0 59,157 19,0z" />
<path style="fill:#d9d9d9;stroke:#000;stroke-width:2" d="M381,205 l-59,-157 -19,0 58,157 20,0z" />
<path style="fill:#d9d9d9;stroke:#000;stroke-width:2" d="M499,205 l-59,-157 -20,0 59,157 20,0z" />
<path style="fill:#d9d9d9;stroke:#000;stroke-width:2" d="M617,205 l-59,-157 -20,0 59,157 20,0z" />
<path style="fill:#d9d9d9;stroke:#000;stroke-width:2" d="M735,205 l-59,-157 -20,0 59,157 20,0z" />
<path style="fill:#d9d9d9;stroke:#000;stroke-width:2" d="M852,205 l-58,-157 -20,0 59,157 19,0z" />
<path style="fill:#d9d9d9;stroke:#000;stroke-width:2" d="M970,205 l-59,-157 -19,0 58,157 20,0z" />
<path style="fill:#7f7f7f" d="M970,214 l-942,0 0,10 942,0 0,-10z" />
<path style="fill:#7f7f7f" d="M970,28 l-942,0 0,10 942,0 0,-10z" />

</svg>
