 

<svg xmlns:agg="http://www.example.com" xmlns="http://www.w3.org/2000/svg" preserveAspectRatio="none" width="1.6083in" height="0.5007in" viewBox="0 0 999 311">

<path style="fill:#bf8c00;stroke:#000;stroke-width:2" d="M67,146 l35,98 -30,0 -34,-98 29,0z" />
<path style="fill:#bf8c00;stroke:#000;stroke-width:2" d="M185,146 l34,98 -29,0 -34,-98 29,0z" />
<path style="fill:#bf8c00;stroke:#000;stroke-width:2" d="M303,146 l34,98 -29,0 -35,-98 30,0z" />
<path style="fill:#bf8c00;stroke:#000;stroke-width:2" d="M420,146 l35,98 -30,0 -34,-98 29,0z" />
<path style="fill:#bf8c00;stroke:#000;stroke-width:2" d="M538,146 l35,98 -30,0 -34,-98 29,0z" />
<path style="fill:#bf8c00;stroke:#000;stroke-width:2" d="M656,146 l35,98 -30,0 -34,-98 29,0z" />
<path style="fill:#bf8c00;stroke:#000;stroke-width:2" d="M774,146 l34,98 -29,0 -34,-98 29,0z" />
<path style="fill:#bf8c00;stroke:#000;stroke-width:2" d="M892,146 l34,98 -29,0 -35,-98 30,0z" />
<path style="fill:#999" d="M970,47 l-942,0 0,40 942,0 0,-40z" />
<path style="fill:#7f7f7f" d="M970,106 l-942,0 0,-19 942,0 0,19z" />
<path style="fill:none;stroke:#000;stroke-width:2" d="M970,106 l-942,0" />
<path style="fill:#fc0" d="M970,244 l-942,0 0,39 942,0 0,-39z" />
<path style="fill:#fc0" d="M970,126 l-942,0 0,20 942,0 0,-20z" />
<path style="fill:#ccc" d="M970,28 l-942,0 0,20 942,0 0,-20z" />
<path style="fill:none;stroke:#000;stroke-width:2" d="M970,126 l-942,0" />
<path style="fill:none;stroke:#000;stroke-width:2" d="M28,146 l942,0" />
<path style="fill:none;stroke:#000;stroke-width:2" d="M970,185 l-942,0" />
<path style="fill:none;stroke:#000;stroke-width:2" d="M970,283 l-942,0" />
<path style="fill:none;stroke:#000;stroke-width:2" d="M970,244 l-942,0" />
<path style="fill:none;stroke:#000;stroke-width:2" d="M970,28 l-942,0" />
<path style="fill:none;stroke:#000;stroke-width:2" d="M970,48 l-942,0" />
<path style="fill:#e5b200;stroke:#000;stroke-width:2" d="M136,146 l-34,98 -30,0 35,-98 29,0z" />
<path style="fill:#e5b200;stroke:#000;stroke-width:2" d="M254,146 l-35,98 -29,0 34,-98 30,0z" />
<path style="fill:#e5b200;stroke:#000;stroke-width:2" d="M371,146 l-34,98 -29,0 34,-98 29,0z" />
<path style="fill:#e5b200;stroke:#000;stroke-width:2" d="M489,146 l-34,98 -30,0 35,-98 29,0z" />
<path style="fill:#e5b200;stroke:#000;stroke-width:2" d="M607,146 l-34,98 -30,0 35,-98 29,0z" />
<path style="fill:#e5b200;stroke:#000;stroke-width:2" d="M725,146 l-34,98 -30,0 35,-98 29,0z" />
<path style="fill:#e5b200;stroke:#000;stroke-width:2" d="M843,146 l-35,98 -29,0 34,-98 30,0z" />
<path style="fill:#e5b200;stroke:#000;stroke-width:2" d="M960,146 l-34,98 -29,0 34,-98 29,0z" />
<path style="fill:#fc0;stroke:#000;stroke-width:2" d="M92,28 l-10,0 -10,20 0,78 29,0 0,-78 -9,-20z" />
<path style="fill:#fc0;stroke:#000;stroke-width:2" d="M209,28 l-9,0 -10,20 0,78 29,0 0,-78 -10,-20z" />
<path style="fill:#fc0;stroke:#000;stroke-width:2" d="M327,28 l-10,0 -9,20 0,78 29,0 0,-78 -10,-20z" />
<path style="fill:#fc0;stroke:#000;stroke-width:2" d="M445,28 l-10,0 -10,20 0,78 30,0 0,-78 -10,-20z" />
<path style="fill:#fc0;stroke:#000;stroke-width:2" d="M563,28 l-10,0 -10,20 0,78 30,0 0,-78 -10,-20z" />
<path style="fill:#fc0;stroke:#000;stroke-width:2" d="M681,28 l-10,0 -10,20 0,78 29,0 0,-78 -9,-20z" />
<path style="fill:#fc0;stroke:#000;stroke-width:2" d="M798,28 l-9,0 -10,20 0,78 29,0 0,-78 -10,-20z" />
<path style="fill:#fc0;stroke:#000;stroke-width:2" d="M916,28 l-10,0 -9,20 0,78 29,0 0,-78 -10,-20z" />
<path style="fill:#fff2bf" d="M324,33 l-3,0 -4,15 0,45 10,0 0,-45 -3,-15z" />
<path style="fill:#fff2bf" d="M442,33 l-4,0 -3,15 0,45 10,0 0,-45 -3,-15z" />
<path style="fill:#fff2bf" d="M88,33 l-3,0 -3,15 0,45 9,0 0,-45 -3,-15z" />
<path style="fill:#fff2bf" d="M206,33 l-3,0 -3,15 0,45 9,0 0,-45 -3,-15z" />
<path style="fill:#fff2bf" d="M795,33 l-3,0 -3,15 0,45 9,0 0,-45 -3,-15z" />
<path style="fill:#fff2bf" d="M913,33 l-3,0 -4,15 0,45 10,0 0,-45 -3,-15z" />
<path style="fill:#fff2bf" d="M559,33 l-3,0 -3,15 0,45 9,0 0,-45 -3,-15z" />
<path style="fill:#fff2bf" d="M677,33 l-3,0 -3,15 0,45 9,0 0,-45 -3,-15z" />

</svg>
