 

<svg xmlns:agg="http://www.example.com" xmlns="http://www.w3.org/2000/svg" preserveAspectRatio="none" width="1.3374in" height="1.0750in" viewBox="0 0 999 803">

<path style="fill:#b2b2b2;stroke:#000;stroke-width:2" d="M373,760 l207,0 0,15 -207,0 0,-15z" />
<path style="fill:#b2b2b2;stroke:#000;stroke-width:2" d="M74,671 l147,0 0,10 -147,0 0,-10z" />
<path style="fill:#e5e5e5;stroke:#000;stroke-width:2" d="M93,237 l108,0 0,309 -108,0 0,-309z" />
<path style="fill:#e5e5e5;stroke:#000;stroke-width:2" d="M392,763 l166,0 157,-294 -480,0 157,294z" />
<path style="fill:#b2b2b2;stroke:#000;stroke-width:2" d="M93,237 l108,0 0,10 -108,0 0,-10z" />
<path style="fill:#b2b2b2" d="M83,237 l0,309 10,0 0,-309 -10,0z" />
<path style="fill:#b2b2b2" d="M28,372 l46,0 0,58 -46,0 0,-58z" />
<path style="fill:#b2b2b2" d="M83,343 l-9,0 0,116 9,0 0,-116z" />
<path style="fill:none;stroke:#000;stroke-width:2" d="M93,237 l-10,0 0,309 10,0 0,-309" />
<path style="fill:none;stroke:#000;stroke-width:2" d="M28,372 l46,0 0,58 -46,0 0,-58" />
<path style="fill:none;stroke:#000;stroke-width:2" d="M83,343 l-9,0 0,116 9,0 0,-116" />
<path style="fill:#e5e5e5;stroke:#000;stroke-width:2" d="M90,674 l111,0 0,-116 -111,0 0,116z" />
<path style="fill:#b2b2b2;stroke:#000;stroke-width:2" d="M66,551 l162,0 0,7 -162,0 0,-7z" />
<path style="fill:#b2b2b2;stroke:#000;stroke-width:2" d="M247,551 l463,0 0,7 -463,0 0,-7z" />
<path style="fill:#b2b2b2;stroke:#000;stroke-width:2" d="M66,551 l162,0 0,-5 -162,0 0,5z" />
<path style="fill:#b2b2b2;stroke:#000;stroke-width:2" d="M247,551 l463,0 0,-5 -463,0 0,5z" />
<path style="fill:#b2b2b2;stroke:#000;stroke-width:2" d="M864,242 l-651,0 0,227 651,0 0,-227z" />
<path style="fill:#b2b2b2;stroke:#000;stroke-width:2" d="M867,343 l9,0 0,116 -9,0 0,-116z" />
<path style="fill:#b2b2b2;stroke:#000;stroke-width:2" d="M922,372 l-46,0 0,58 46,0 0,-58z" />
<path style="fill:#fff" d="M867,370 l9,0 0,10 -9,0 0,-10z" />
<path style="fill:#fff" d="M922,384 l-46,0 0,5 46,0 0,-5z" />
<path style="fill:#e5e5e5" d="M28,387 l46,0 0,-10 -46,0 0,10z" />
<path style="fill:#e5e5e5" d="M83,372 l-9,0 0,-19 9,0 0,19z" />
<path style="fill:#e5e5e5" d="M864,464 l-643,0 0,-210 643,0 0,210z" />
<path style="fill:#e5e5e5" d="M83,416 l-9,0 0,-36 9,0 0,36z" />
<path style="fill:#e5e5e5" d="M28,408 l46,0 0,-16 -46,0 0,16z" />
<path style="fill:#e5e5e5" d="M867,416 l9,0 0,-36 -9,0 0,36z" />
<path style="fill:#e5e5e5" d="M922,408 l-46,0 0,-16 46,0 0,16z" />
<path style="fill:#e5e5e5" d="M867,370 l9,0 0,-12 -9,0 0,12z" />
<path style="fill:#e5e5e5" d="M922,384 l-46,0 0,-4 46,0 0,4z" />
<path style="fill:#b2b2b2" d="M633,28 l337,0 -101,197 -137,0 -99,-197z" />
<path style="fill:#7f7f7f" d="M640,28 l304,0 -85,195 -123,0 -96,-195z" />
<path style="fill:#7f7f7f" d="M667,380 l2,19 19,17 5,24 128,0 2,-3 12,-7 3,-34 21,-19 0,-21 -185,0 5,7 -12,17z" />
<path style="fill:#7f7f7f" d="M69,546 l12,0 0,-7 -12,0 0,7z" />
<path style="fill:#7f7f7f" d="M71,565 l7,0 0,-2 3,0 0,-5 -12,0 0,5 2,0 0,2z" />
<path style="fill:#7f7f7f" d="M252,546 l12,0 0,-7 -12,0 0,7z" />
<path style="fill:#7f7f7f" d="M211,546 l12,0 0,-7 -12,0 0,7z" />
<path style="fill:#7f7f7f" d="M254,565 l8,0 0,-2 2,0 0,-5 -12,0 0,5 2,0 0,2z" />
<path style="fill:#7f7f7f" d="M216,565 l5,0 0,-2 2,0 0,-5 -12,0 0,5 5,0 0,2z" />
<path style="fill:#7f7f7f" d="M691,546 l12,0 0,-7 -12,0 0,7z" />
<path style="fill:#7f7f7f" d="M693,565 l7,0 0,-2 3,0 0,-5 -12,0 0,5 2,0 0,2z" />
<path style="fill:#ababab" d="M659,28 l229,0 -53,197 -91,0 -85,-197z" />
<path style="fill:#c7c7c7" d="M679,28 l156,0 -24,197 -60,0 -72,-197z" />
<path style="fill:#e5e5e5" d="M862,295 l-653,0 0,-46 653,0 0,46z" />
<path style="fill:#e5e5e5" d="M695,28 l85,0 9,195 -31,0 -63,-195z" />
<path style="fill:#e5e5e5;stroke:#000;stroke-width:2" d="M693,546 l5,0 0,-7 -5,0 0,7z" />
<path style="fill:#e5e5e5;stroke:#000;stroke-width:2" d="M693,558 l5,0 0,5 -5,0 0,-5z" />
<path style="fill:#e5e5e5;stroke:#000;stroke-width:2" d="M254,546 l5,0 0,-7 -5,0 0,7z" />
<path style="fill:#e5e5e5;stroke:#000;stroke-width:2" d="M254,558 l5,0 0,5 -5,0 0,-5z" />
<path style="fill:#e5e5e5;stroke:#000;stroke-width:2" d="M213,558 l5,0 0,5 -5,0 0,-5z" />
<path style="fill:#e5e5e5;stroke:#000;stroke-width:2" d="M213,546 l5,0 0,-7 -5,0 0,7z" />
<path style="fill:#e5e5e5;stroke:#000;stroke-width:2" d="M71,546 l5,0 0,-7 -5,0 0,7z" />
<path style="fill:#e5e5e5;stroke:#000;stroke-width:2" d="M71,558 l5,0 0,5 -5,0 0,-5z" />
<path style="fill:#fff" d="M707,237 l29,0 0,53 -29,0 0,-53z" />
<path style="fill:none;stroke:#000;stroke-width:2" d="M201,237 l506,0 0,53 29,0 0,-53 128,0 0,229 -128,0 -29,0 -506,0 0,-229" />
<path style="fill:#e0e0e0;stroke:#000;stroke-width:2" d="M724,237 l155,0 0,-12 -155,0 0,12z" />
<path style="fill:none;stroke:#000;stroke-width:2" d="M633,28 l337,0 -101,197 -137,0 -99,-197" />
<path style="fill:#b2b2b2;stroke:#000;stroke-width:2" d="M667,380 l0,19 14,9 24,-50 5,2 5,-2 29,65 7,14 38,-79 5,2 5,-2 34,75 2,0 0,-37 24,-19 0,-120 -12,-12 -36,7 -62,-3 -15,56 -34,-3 -21,-9 0,36 -17,2 17,32 -12,17z" />
<path style="fill:#7f7f7f" d="M667,384 l0,15 16,12 152,0 0,-15 15,-12 -183,0z" />
<path style="fill:#969696" d="M667,387 l0,9 31,10 140,0 0,-10 -8,-9 -163,0z" />
<path style="fill:#c2c2c2" d="M667,389 l0,5 60,5 113,0 0,-5 -48,-5 -125,0z" />
<path style="fill:#d9d9d9" d="M667,392 l74,2 102,0 -3,0 -67,-2 -106,0z" />
<path style="fill:#f0f0f0" d="M667,394 l0,-2 178,0 -5,2 -173,0z" />
<path style="fill:#fff" d="M840,437 l-5,3 -12,-12 -9,-22 -8,-29 -9,-17 2,-2 7,2 5,10 10,24 9,31 10,12z" />
<path style="fill:#fff" d="M753,437 l-4,3 -13,-12 -9,-22 -7,-29 -10,-17 2,-2 8,2 4,10 10,24 10,31 9,12z" />
<path style="fill:#fff" d="M712,28 l12,0 41,195 -53,-195z" />
<path style="fill:#fff" d="M862,295 l-653,0 0,17 653,0 0,-17z" />
<path style="fill:#fff" d="M83,370 l-9,0 0,10 9,0 0,-10z" />
<path style="fill:#fff" d="M28,384 l46,0 0,5 -46,0 0,-5z" />
<path style="fill:#fff" d="M93,274 l108,0 0,7 -108,0 0,-7z" />

</svg>
