 

<svg xmlns:agg="http://www.example.com" xmlns="http://www.w3.org/2000/svg" preserveAspectRatio="none" width="1.2664in" height="1.0750in" viewBox="0 0 999 848">

<path style="fill:#999" d="M92,53 l3,15 -25,0 22,-15z" />
<path style="fill:#f0f0f0;stroke:#000;stroke-width:2" d="M714,413 l9,13 13,49 6,51 -6,50 -13,47 -25,42 -31,38 -38,30 -41,25 -49,13 -51,7 -2,0 -2,0 -319,0 -137,-711 832,0 73,82 -219,264z" />
<path style="fill:#b2b2b2;stroke:#000;stroke-width:2" d="M714,413 l9,13 13,49 6,51 -6,50 -13,47 -25,42 -31,38 -38,33 51,-31 45,-36 33,-44 22,-42 16,-46 4,-51 -4,-51 -16,-49 -7,-13 197,-255 -79,-90 -804,0 7,39 766,0 73,82 -219,264z" />
<path style="fill:#fff;stroke:#000;stroke-width:2" d="M912,176 l-65,-82 -815,0 -4,-27 832,0 73,82 -21,27z" />
<path style="fill:#ccc;stroke:#000;stroke-width:2" d="M944,134 l-67,-80 -785,0 -5,-26 804,0 73,81 -20,25z" />
<path style="fill:#ccc;stroke:#000;stroke-width:2" d="M72,67 l-44,0 59,-39 5,26 -20,13z" />
<path style="fill:#f0f0f0;stroke:#000;stroke-width:2" d="M165,778 l-73,0 -35,26 723,16 86,-69 -243,-13 -35,20 -49,13 -51,7 -2,0 -2,0 -319,0z" />
<path style="fill:#e0e0e0;stroke:#000;stroke-width:2" d="M182,778 l-17,0 -64,-334 -9,0 13,334 77,0z" />
<path style="fill:#e0e0e0;stroke:#000;stroke-width:2" d="M941,138 l23,-28 -33,37 -19,29 29,-38z" />
<path style="fill:#7f7f7f;fill-rule:evenodd" d="M499,503 l4,1 4,1 3,2 3,3 2,4 2,3 2,4 0,5 0,4 -2,4 -2,3 -2,4 -3,3 -3,2 -4,1 -4,1 -5,-1 -4,-1 -4,-2 -3,-3 -3,-4 -1,-3 -1,-4 -1,-4 1,-5 1,-4 1,-3 3,-4 3,-3 4,-2 4,-1 5,-1z M494,483 l5,1 5,0 4,1 4,2 3,2 4,2 4,2 3,3 3,3 2,3 2,4 2,4 2,3 1,4 1,4 0,5 0,4 -1,5 -1,4 -2,4 -2,3 -2,4 -2,4 -3,3 -3,3 -4,2 -4,2 -3,2 -4,2 -4,1 -5,1 -5,0 -3,0 -5,-1 -3,-1 -4,-2 -4,-2 -3,-2 -4,-2 -3,-3 -3,-3 -2,-4 -2,-4 -2,-3 -2,-4 -1,-4 0,-5 0,-4 0,-9 3,-7 4,-8 5,-6 7,-5 7,-4 7,-3 8,-1z M94,486 l-2,-14 -9,-2 0,-4 0,-7 -2,-7 0,-2 -5,2 -2,5 -2,9 -2,9 0,11 -3,8 3,7 2,2 2,-2 2,-4 3,-9 2,-5 13,3z " />
<path style="fill:none;stroke:#000;stroke-width:2" d="M107,112 l191,0 4,73 -188,0 -7,-73" />
<path style="fill:#7f7f7f" d="M118,120 l11,0 0,9 -11,0 0,-9z" />
<path style="fill:#7f7f7f" d="M121,136 l8,0 0,9 -8,0 0,-9z" />
<path style="fill:#7f7f7f" d="M123,169 l9,0 0,9 -9,0 0,-9z" />
<path style="fill:#7f7f7f" d="M129,120 l12,0 0,9 -12,0 0,-9z" />
<path style="fill:#7f7f7f" d="M132,136 l11,0 0,9 -11,0 0,-9z" />
<path style="fill:#7f7f7f" d="M134,151 l9,0 0,9 -9,0 0,-9z" />
<path style="fill:#7f7f7f" d="M134,169 l11,0 0,9 -11,0 0,-9z" />
<path style="fill:#7f7f7f" d="M143,120 l8,0 0,9 -8,0 0,-9z" />
<path style="fill:#7f7f7f" d="M143,136 l11,0 0,9 -11,0 0,-9z" />
<path style="fill:#7f7f7f" d="M145,151 l11,0 0,9 -11,0 0,-9z" />
<path style="fill:#7f7f7f" d="M145,169 l11,0 0,9 -11,0 0,-9z" />
<path style="fill:#7f7f7f" d="M154,120 l11,0 0,9 -11,0 0,-9z" />
<path style="fill:#7f7f7f" d="M156,136 l9,0 0,9 -9,0 0,-9z" />
<path style="fill:#7f7f7f" d="M156,151 l11,0 0,9 -11,0 0,-9z" />
<path style="fill:#7f7f7f" d="M158,169 l9,0 0,9 -9,0 0,-9z" />
<path style="fill:#7f7f7f" d="M165,120 l11,0 0,9 -11,0 0,-9z" />
<path style="fill:#7f7f7f" d="M169,151 l9,0 0,9 -9,0 0,-9z" />
<path style="fill:#7f7f7f" d="M169,169 l11,0 0,9 -11,0 0,-9z" />
<path style="fill:#7f7f7f" d="M178,120 l9,0 0,9 -9,0 0,-9z" />
<path style="fill:#7f7f7f" d="M178,136 l11,0 0,9 -11,0 0,-9z" />
<path style="fill:#7f7f7f" d="M180,151 l9,0 0,9 -9,0 0,-9z" />
<path style="fill:#7f7f7f" d="M191,136 l9,0 0,9 -9,0 0,-9z" />
<path style="fill:#7f7f7f" d="M202,136 l9,0 0,9 -9,0 0,-9z" />
<path style="fill:#7f7f7f" d="M205,151 l8,0 0,9 -8,0 0,-9z" />
<path style="fill:#7f7f7f" d="M213,120 l9,0 0,9 -9,0 0,-9z" />
<path style="fill:#7f7f7f" d="M216,151 l9,0 0,9 -9,0 0,-9z" />
<path style="fill:#7f7f7f" d="M216,169 l11,0 0,9 -11,0 0,-9z" />
<path style="fill:#7f7f7f" d="M225,120 l8,0 0,9 -8,0 0,-9z" />
<path style="fill:#7f7f7f" d="M227,151 l11,0 0,9 -11,0 0,-9z" />
<path style="fill:#7f7f7f" d="M229,169 l9,0 0,9 -9,0 0,-9z" />
<path style="fill:#7f7f7f" d="M236,120 l11,0 0,9 -11,0 0,-9z" />
<path style="fill:#7f7f7f" d="M240,151 l9,0 0,9 -9,0 0,-9z" />
<path style="fill:#7f7f7f" d="M240,169 l9,0 0,9 -9,0 0,-9z" />
<path style="fill:#7f7f7f" d="M247,120 l11,0 0,9 -11,0 0,-9z" />
<path style="fill:#7f7f7f" d="M260,120 l9,0 0,9 -9,0 0,-9z" />
<path style="fill:#7f7f7f" d="M262,151 l11,0 0,9 -11,0 0,-9z" />
<path style="fill:#7f7f7f" d="M264,169 l9,0 0,9 -9,0 0,-9z" />
<path style="fill:#7f7f7f" d="M271,120 l11,0 0,9 -11,0 0,-9z" />
<path style="fill:#7f7f7f" d="M273,151 l11,0 0,9 -11,0 0,-9z" />
<path style="fill:#7f7f7f" d="M275,169 l9,0 0,9 -9,0 0,-9z" />
<path style="fill:#fff" d="M490,98 l224,0 -587,456 -20,-113 383,-343z" />

</svg>
