 

<svg xmlns:agg="http://www.example.com" xmlns="http://www.w3.org/2000/svg" preserveAspectRatio="none" width="1.2387in" height="1.0750in" viewBox="0 0 999 867">

<path style="fill:#4c4c4c" d="M537,725 l0,57 433,0 0,-57 -433,0z" />
<path style="fill:#b2b2b2;stroke:#000;stroke-width:2" d="M782,725 l0,-565 -604,0 0,188 38,0 0,208 321,0 0,169 245,0z" />
<path style="fill:#666;stroke:#000;stroke-width:2" d="M273,556 l0,-208 415,0 0,208 -415,0z" />
<path style="fill:#999" d="M273,141 l0,245 151,170 0,226 113,0 0,-226 151,-170 0,-245 -170,-38 0,-56 19,0 0,-19 -113,0 0,19 18,0 0,56 -169,38z" />
<path style="fill:#b2b2b2" d="M311,141 l0,245 123,170 0,226 93,0 0,-226 123,-170 0,-245 -139,-38 0,-56 16,0 0,-19 -93,0 0,19 15,0 0,56 -138,38z" />
<path style="fill:#ccc" d="M386,141 l0,245 69,170 0,226 51,0 0,-226 69,-170 0,-245 -77,-38 0,-56 8,0 0,-19 -51,0 0,19 8,0 0,56 -77,38z" />
<ellipse style="fill:#e5e5e5" cx="480" cy="405" rx="18" ry="377" />
<path style="fill:none;stroke:#000;stroke-width:2" d="M273,141 l0,245 151,170 0,226 113,0 0,-226 151,-170 0,-245 -170,-38 0,-56 19,0 0,-19 -113,0 0,19 18,0 0,56 -169,38" />
<path style="fill:none;stroke:#000;stroke-width:2" d="M216,348 l57,0" />
<path style="fill:none;stroke:#000;stroke-width:2" d="M273,386 l415,0" />
<path style="fill:none;stroke:#000;stroke-width:2" d="M442,47 l76,0" />
<path style="fill:none;stroke:#000;stroke-width:2" d="M442,103 l76,0" />
<path style="fill:none;stroke:#000;stroke-width:2" d="M273,141 l415,0" />
<path style="fill:#ccc;stroke:#000;stroke-width:2" d="M47,612 l0,-56 867,0 0,56 -867,0z" />
<path style="fill:#999;stroke:#000;stroke-width:2" d="M367,556 l0,-114 19,0 94,38 95,-38 18,0 0,114 -226,0z" />
<circle style="fill:#000" cx="782" cy="688" r="151" />
<circle style="fill:#000" cx="178" cy="688" r="150" />
<circle style="fill:#fff" cx="781" cy="687" r="97" />
<circle style="fill:#fff" cx="178" cy="687" r="97" />
<circle style="fill:none;stroke:#000;stroke-width:2" cx="178" cy="687" r="26" />
<circle style="fill:none;stroke:#000;stroke-width:2" cx="782" cy="687" r="26" />
<path style="fill:#b2b2b2;stroke:#000;stroke-width:2" d="M405,51 l-38,0 0,47 38,0 0,-47z" />
<path style="fill:#666;stroke:#000;stroke-width:2" d="M442,89 l0,-28 -37,-10 0,47 37,-9z" />

</svg>
