 

<svg xmlns:agg="http://www.example.com" xmlns="http://www.w3.org/2000/svg" preserveAspectRatio="none" width="1.6083in" height="0.2801in" viewBox="0 0 999 174">

<path style="fill:#4c4c4c;stroke:#000;stroke-width:2" d="M204,146 l-14,-5 -5,-15 5,-15 14,-5 746,0 15,5 5,15 -5,15 -15,5 -746,0z" />
<path style="fill:#f2f2f2;stroke:#000;stroke-width:2" d="M965,140 l5,-14 -5,-14 -15,-6 -13,6 -6,14 6,14 13,6 15,-6z" />
<path style="fill:#f2f2f2;stroke:#000;stroke-width:2" d="M925,140 l6,-14 -6,-14 -14,-6 -14,6 -5,14 5,14 14,6 14,-6z" />
<path style="fill:#f2f2f2;stroke:#000;stroke-width:2" d="M886,140 l6,-14 -6,-14 -14,-6 -14,6 -6,14 6,14 14,6 14,-6z" />
<path style="fill:#f2f2f2;stroke:#000;stroke-width:2" d="M847,140 l5,-14 -5,-14 -14,-6 -14,6 -6,14 6,14 14,6 14,-6z" />
<path style="fill:#f2f2f2;stroke:#000;stroke-width:2" d="M807,140 l6,-14 -6,-14 -14,-6 -13,6 -6,14 6,14 13,6 14,-6z" />
<path style="fill:#f2f2f2;stroke:#000;stroke-width:2" d="M768,140 l6,-14 -6,-14 -14,-6 -14,6 -5,14 5,14 14,6 14,-6z" />
<path style="fill:#f2f2f2;stroke:#000;stroke-width:2" d="M729,140 l6,-14 -6,-14 -14,-6 -14,6 -6,14 6,14 14,6 14,-6z" />
<path style="fill:#f2f2f2;stroke:#000;stroke-width:2" d="M690,140 l5,-14 -5,-14 -14,-6 -14,6 -6,14 6,14 14,6 14,-6z" />
<path style="fill:#f2f2f2;stroke:#000;stroke-width:2" d="M650,140 l6,-14 -6,-14 -14,-6 -14,6 -5,14 5,14 14,6 14,-6z" />
<path style="fill:#f2f2f2;stroke:#000;stroke-width:2" d="M611,140 l6,-14 -6,-14 -14,-6 -14,6 -5,14 5,14 14,6 14,-6z" />
<path style="fill:#f2f2f2;stroke:#000;stroke-width:2" d="M572,140 l6,-14 -6,-14 -14,-6 -14,6 -6,14 6,14 14,6 14,-6z" />
<path style="fill:#f2f2f2;stroke:#000;stroke-width:2" d="M533,140 l5,-14 -5,-14 -15,-6 -13,6 -6,14 6,14 13,6 15,-6z" />
<path style="fill:#f2f2f2;stroke:#000;stroke-width:2" d="M493,140 l6,-14 -6,-14 -14,-6 -14,6 -5,14 5,14 14,6 14,-6z" />
<path style="fill:#f2f2f2;stroke:#000;stroke-width:2" d="M454,140 l6,-14 -6,-14 -14,-6 -14,6 -6,14 6,14 14,6 14,-6z" />
<path style="fill:#f2f2f2;stroke:#000;stroke-width:2" d="M415,140 l5,-14 -5,-14 -14,-6 -14,6 -6,14 6,14 14,6 14,-6z" />
<path style="fill:#f2f2f2;stroke:#000;stroke-width:2" d="M376,140 l5,-14 -5,-14 -15,-6 -13,6 -6,14 6,14 13,6 15,-6z" />
<path style="fill:#f2f2f2;stroke:#000;stroke-width:2" d="M336,140 l6,-14 -6,-14 -14,-6 -14,6 -5,14 5,14 14,6 14,-6z" />
<path style="fill:#f2f2f2;stroke:#000;stroke-width:2" d="M297,140 l6,-14 -6,-14 -14,-6 -14,6 -6,14 6,14 14,6 14,-6z" />
<path style="fill:#f2f2f2;stroke:#000;stroke-width:2" d="M258,140 l5,-14 -5,-14 -14,-6 -14,6 -6,14 6,14 14,6 14,-6z" />
<path style="fill:#f2f2f2;stroke:#000;stroke-width:2" d="M218,140 l6,-14 -6,-14 -14,-6 -13,6 -6,14 6,14 13,6 14,-6z" />
<path style="fill:#4c4c4c" d="M958,133 l2,-7 -2,-7 -8,-3 -6,3 -3,7 3,7 6,3 8,-3z" />
<path style="fill:#4c4c4c" d="M918,133 l3,-7 -3,-7 -7,-3 -7,3 -3,7 3,7 7,3 7,-3z" />
<path style="fill:#4c4c4c" d="M879,133 l3,-7 -3,-7 -7,-3 -7,3 -3,7 3,7 7,3 7,-3z" />
<path style="fill:#4c4c4c" d="M840,133 l3,-7 -3,-7 -7,-3 -7,3 -3,7 3,7 7,3 7,-3z" />
<path style="fill:#4c4c4c" d="M801,133 l2,-7 -2,-7 -8,-3 -7,3 -2,7 2,7 7,3 8,-3z" />
<path style="fill:#4c4c4c" d="M761,133 l3,-7 -3,-7 -7,-3 -7,3 -3,7 3,7 7,3 7,-3z" />
<path style="fill:#4c4c4c" d="M722,133 l3,-7 -3,-7 -7,-3 -7,3 -3,7 3,7 7,3 7,-3z" />
<path style="fill:#4c4c4c" d="M683,133 l3,-7 -3,-7 -7,-3 -7,3 -3,7 3,7 7,3 7,-3z" />
<path style="fill:#4c4c4c" d="M644,133 l2,-7 -2,-7 -8,-3 -7,3 -2,7 2,7 7,3 8,-3z" />
<path style="fill:#4c4c4c" d="M604,133 l3,-7 -3,-7 -7,-3 -7,3 -3,7 3,7 7,3 7,-3z" />
<path style="fill:#4c4c4c" d="M565,133 l3,-7 -3,-7 -7,-3 -7,3 -3,7 3,7 7,3 7,-3z" />
<path style="fill:#4c4c4c" d="M526,133 l3,-7 -3,-7 -8,-3 -6,3 -3,7 3,7 6,3 8,-3z" />
<path style="fill:#4c4c4c" d="M486,133 l3,-7 -3,-7 -7,-3 -7,3 -3,7 3,7 7,3 7,-3z" />
<path style="fill:#4c4c4c" d="M447,133 l3,-7 -3,-7 -7,-3 -7,3 -3,7 3,7 7,3 7,-3z" />
<path style="fill:#4c4c4c" d="M408,133 l3,-7 -3,-7 -7,-3 -7,3 -3,7 3,7 7,3 7,-3z" />
<path style="fill:#4c4c4c" d="M369,133 l2,-7 -2,-7 -8,-3 -7,3 -2,7 2,7 7,3 8,-3z" />
<path style="fill:#4c4c4c" d="M329,133 l3,-7 -3,-7 -7,-3 -7,3 -3,7 3,7 7,3 7,-3z" />
<path style="fill:#4c4c4c" d="M290,133 l3,-7 -3,-7 -7,-3 -7,3 -3,7 3,7 7,3 7,-3z" />
<path style="fill:#4c4c4c" d="M251,133 l3,-7 -3,-7 -7,-3 -7,3 -3,7 3,7 7,3 7,-3z" />
<path style="fill:#4c4c4c" d="M212,133 l2,-7 -2,-7 -8,-3 -7,3 -2,7 2,7 7,3 8,-3z" />
<path style="fill:#b2b2b2" d="M950,106 l-157,-78 -746,0 -14,5 157,78 14,-5 746,0z" />
<path style="fill:#666" d="M185,126 l5,15 -157,-79 -5,-15 157,79z" />
<path style="fill:#8c8c8c" d="M185,126 l5,-15 -157,-78 -5,14 157,79z" />
<path style="fill:#999" d="M950,106 l15,5 -157,-78 -15,-5 157,78z" />
<path style="fill:#a6a6a6;stroke:#7f7f7f;stroke-width:2" d="M435,106 l-157,-78 -78,0 157,78 78,0z" />
<path style="fill:#a6a6a6;stroke:#7f7f7f;stroke-width:2" d="M784,106 l-157,-78 -79,0 157,78 79,0z" />
<path style="fill:none;stroke:#000;stroke-width:2" d="M190,141 l-5,-15 5,-15 14,-5 746,0 15,5 -157,-78 -15,-5 -746,0 -14,5 -5,14 5,15 157,79" />

</svg>
