 

<svg xmlns:agg="http://www.example.com" xmlns="http://www.w3.org/2000/svg" preserveAspectRatio="none" width="1.3049in" height="1.0750in" viewBox="0 0 999 823">

<path style="fill:#b2b2b2;stroke:#000;stroke-width:2" d="M28,264 l79,-59 784,0 79,59 0,-21 -79,-58 -784,0 -79,58 0,21z" />
<path style="fill:#b2b2b2;stroke:#000;stroke-width:2" d="M28,421 l79,-59 784,0 79,59 0,-19 -79,-61 -784,0 -79,61 0,19z" />
<path style="fill:#b2b2b2;stroke:#000;stroke-width:2" d="M28,577 l79,-58 784,0 79,58 0,-18 -79,-59 -784,0 -79,59 0,18z" />
<path style="fill:#b2b2b2;stroke:#000;stroke-width:2" d="M28,734 l79,-59 784,0 79,59 0,-19 -79,-58 -784,0 -79,58 0,19z" />
<path style="fill:#b2b2b2;stroke:#000;stroke-width:2" d="M28,107 l79,-61 784,0 79,61 0,-21 -79,-58 -784,0 -79,58 0,21z" />
<path style="fill:none;stroke:#000;stroke-width:2" d="M107,46 l0,611" />
<path style="fill:none;stroke:#000;stroke-width:2" d="M891,46 l0,611" />
<path style="fill:none;stroke:#000;stroke-width:2" d="M140,46 l0,611" />
<path style="fill:none;stroke:#000;stroke-width:2" d="M173,46 l0,611" />
<path style="fill:none;stroke:#000;stroke-width:2" d="M206,46 l0,611" />
<path style="fill:none;stroke:#000;stroke-width:2" d="M238,46 l0,611" />
<path style="fill:none;stroke:#000;stroke-width:2" d="M271,46 l0,611" />
<path style="fill:none;stroke:#000;stroke-width:2" d="M304,46 l0,611" />
<path style="fill:none;stroke:#000;stroke-width:2" d="M336,46 l0,611" />
<path style="fill:none;stroke:#000;stroke-width:2" d="M369,46 l0,611" />
<path style="fill:none;stroke:#000;stroke-width:2" d="M402,46 l0,611" />
<path style="fill:none;stroke:#000;stroke-width:2" d="M435,46 l0,611" />
<path style="fill:none;stroke:#000;stroke-width:2" d="M467,46 l0,611" />
<path style="fill:none;stroke:#000;stroke-width:2" d="M500,46 l0,611" />
<path style="fill:none;stroke:#000;stroke-width:2" d="M533,46 l0,611" />
<path style="fill:none;stroke:#000;stroke-width:2" d="M566,46 l0,611" />
<path style="fill:none;stroke:#000;stroke-width:2" d="M598,46 l0,611" />
<path style="fill:none;stroke:#000;stroke-width:2" d="M631,46 l0,611" />
<path style="fill:none;stroke:#000;stroke-width:2" d="M664,46 l0,611" />
<path style="fill:none;stroke:#000;stroke-width:2" d="M697,46 l0,611" />
<path style="fill:none;stroke:#000;stroke-width:2" d="M729,46 l0,611" />
<path style="fill:none;stroke:#000;stroke-width:2" d="M762,46 l0,611" />
<path style="fill:none;stroke:#000;stroke-width:2" d="M795,46 l0,611" />
<path style="fill:none;stroke:#000;stroke-width:2" d="M828,46 l0,611" />
<path style="fill:none;stroke:#000;stroke-width:2" d="M860,46 l0,611" />
<path style="fill:#ccc;stroke:#000;stroke-width:2" d="M28,734 l79,-59 784,0 79,59 -942,0z" />
<path style="fill:none;stroke:#000;stroke-width:2" d="M28,107 l0,608" />
<path style="fill:none;stroke:#000;stroke-width:2" d="M970,107 l0,608" />
<path style="fill:none;stroke:#000;stroke-width:2" d="M68,107 l0,608" />
<path style="fill:none;stroke:#000;stroke-width:2" d="M107,107 l0,608" />
<path style="fill:none;stroke:#000;stroke-width:2" d="M145,107 l0,608" />
<path style="fill:none;stroke:#000;stroke-width:2" d="M185,107 l0,608" />
<path style="fill:none;stroke:#000;stroke-width:2" d="M224,107 l0,608" />
<path style="fill:none;stroke:#000;stroke-width:2" d="M264,107 l0,608" />
<path style="fill:none;stroke:#000;stroke-width:2" d="M304,107 l0,608" />
<path style="fill:none;stroke:#000;stroke-width:2" d="M341,107 l0,608" />
<path style="fill:none;stroke:#000;stroke-width:2" d="M381,107 l0,608" />
<path style="fill:none;stroke:#000;stroke-width:2" d="M421,107 l0,608" />
<path style="fill:none;stroke:#000;stroke-width:2" d="M460,107 l0,608" />
<path style="fill:none;stroke:#000;stroke-width:2" d="M500,107 l0,608" />
<path style="fill:none;stroke:#000;stroke-width:2" d="M538,107 l0,608" />
<path style="fill:none;stroke:#000;stroke-width:2" d="M577,107 l0,608" />
<path style="fill:none;stroke:#000;stroke-width:2" d="M617,107 l0,608" />
<path style="fill:none;stroke:#000;stroke-width:2" d="M657,107 l0,608" />
<path style="fill:none;stroke:#000;stroke-width:2" d="M697,107 l0,608" />
<path style="fill:none;stroke:#000;stroke-width:2" d="M734,107 l0,608" />
<path style="fill:none;stroke:#000;stroke-width:2" d="M774,107 l0,608" />
<path style="fill:none;stroke:#000;stroke-width:2" d="M813,107 l0,608" />
<path style="fill:none;stroke:#000;stroke-width:2" d="M853,107 l0,608" />
<path style="fill:none;stroke:#000;stroke-width:2" d="M891,107 l0,608" />
<path style="fill:none;stroke:#000;stroke-width:2" d="M930,107 l0,608" />
<path style="fill:#7f7f7f;stroke:#000;stroke-width:2" d="M28,86 l942,0 0,21 -942,0 0,-21z" />
<path style="fill:#7f7f7f;stroke:#000;stroke-width:2" d="M28,243 l942,0 0,21 -942,0 0,-21z" />
<path style="fill:#7f7f7f;stroke:#000;stroke-width:2" d="M28,402 l942,0 0,19 -942,0 0,-19z" />
<path style="fill:#7f7f7f;stroke:#000;stroke-width:2" d="M28,559 l942,0 0,18 -942,0 0,-18z" />
<path style="fill:#7f7f7f;stroke:#000;stroke-width:2" d="M28,715 l942,0 0,19 -942,0 0,-19z" />
<path style="fill:none;stroke:#7f7f7f;stroke-width:2" d="M107,53 l0,611" />
<path style="fill:none;stroke:#7f7f7f;stroke-width:2" d="M98,58 l0,611" />
<path style="fill:none;stroke:#7f7f7f;stroke-width:2" d="M91,63 l0,610" />
<path style="fill:none;stroke:#7f7f7f;stroke-width:2" d="M84,68 l0,610" />
<path style="fill:none;stroke:#7f7f7f;stroke-width:2" d="M77,72 l0,610" />
<path style="fill:none;stroke:#7f7f7f;stroke-width:2" d="M70,77 l0,610" />
<path style="fill:none;stroke:#7f7f7f;stroke-width:2" d="M63,81 l0,611" />
<path style="fill:none;stroke:#7f7f7f;stroke-width:2" d="M56,86 l0,611" />
<path style="fill:none;stroke:#7f7f7f;stroke-width:2" d="M49,91 l0,610" />
<path style="fill:none;stroke:#7f7f7f;stroke-width:2" d="M42,98 l0,608" />
<path style="fill:none;stroke:#7f7f7f;stroke-width:2" d="M35,103 l0,607" />
<path style="fill:none;stroke:#7f7f7f;stroke-width:2" d="M28,107 l0,608" />
<path style="fill:none;stroke:#7f7f7f;stroke-width:2" d="M891,53 l0,611" />
<path style="fill:none;stroke:#7f7f7f;stroke-width:2" d="M900,58 l0,611" />
<path style="fill:none;stroke:#7f7f7f;stroke-width:2" d="M907,63 l0,610" />
<path style="fill:none;stroke:#7f7f7f;stroke-width:2" d="M914,68 l0,610" />
<path style="fill:none;stroke:#7f7f7f;stroke-width:2" d="M921,72 l0,610" />
<path style="fill:none;stroke:#7f7f7f;stroke-width:2" d="M928,77 l0,610" />
<path style="fill:none;stroke:#7f7f7f;stroke-width:2" d="M935,81 l0,611" />
<path style="fill:none;stroke:#7f7f7f;stroke-width:2" d="M942,86 l0,611" />
<path style="fill:none;stroke:#7f7f7f;stroke-width:2" d="M949,91 l0,610" />
<path style="fill:none;stroke:#7f7f7f;stroke-width:2" d="M956,98 l0,608" />
<path style="fill:none;stroke:#7f7f7f;stroke-width:2" d="M963,103 l0,607" />
<path style="fill:none;stroke:#7f7f7f;stroke-width:2" d="M970,107 l0,608" />
<path style="fill:#999;stroke:#000;stroke-width:2" d="M28,734 l98,0 0,21 -98,0 0,-21z" />
<path style="fill:#999;stroke:#000;stroke-width:2" d="M970,734 l-98,0 0,21 98,0 0,-21z" />
<path style="fill:#ccc;stroke:#000;stroke-width:2" d="M28,755 l18,0 0,40 -18,0 0,-40z" />
<path style="fill:#ccc;stroke:#000;stroke-width:2" d="M970,755 l-18,0 0,40 18,0 0,-40z" />
<path style="fill:#000;stroke:#000;stroke-width:2" d="M126,734 l746,0 0,12 -746,0 0,-12z" />

</svg>
