 

<svg xmlns:agg="http://www.example.com" xmlns="http://www.w3.org/2000/svg" preserveAspectRatio="none" width="1.6083in" height="0.2595in" viewBox="0 0 998 161">

<path style="fill:#0ff;stroke:#000;stroke-width:2" d="M141,126 l17,7 786,0 19,-7 7,-19 -7,-19 -106,-53 -17,-7 -786,0 -19,7 -7,19 7,19 106,53z" />
<path style="fill:none;stroke:#000;stroke-width:2" d="M499,107 l-8,-19 -18,-7 -19,7 -8,19 8,19 19,7 18,-7 8,-19" />
<path style="fill:none;stroke:#000;stroke-width:2" d="M343,107 l-8,-19 -19,-7 -19,7 -7,19 7,19 19,7 19,-7 8,-19" />
<path style="fill:none;stroke:#000;stroke-width:2" d="M184,107 l-8,-19 -18,-7 -17,7 -8,19 8,19 17,7 18,-7 8,-19" />
<path style="fill:none;stroke:#000;stroke-width:2" d="M655,107 l-7,-19 -19,-7 -17,7 -7,19 7,19 17,7 19,-7 7,-19" />
<path style="fill:none;stroke:#000;stroke-width:2" d="M814,107 l-8,-19 -19,-7 -18,7 -8,19 8,19 18,7 19,-7 8,-19" />
<path style="fill:none;stroke:#000;stroke-width:2" d="M970,107 l-7,-19 -19,-7 -19,7 -8,19 8,19 19,7 19,-7 7,-19" />
<path style="fill:none;stroke:#000;stroke-width:2" d="M944,81 l-786,0" />

</svg>
