 

<svg xmlns:agg="http://www.example.com" xmlns="http://www.w3.org/2000/svg" preserveAspectRatio="none" width="0.5456in" height="1.0750in" viewBox="0 0 507 999">

<path style="fill:#7f7f7f" d="M235,438 l36,0 0,491 -36,0 0,-491z" />
<path style="fill:#999" d="M237,438 l32,0 0,491 -32,0 0,-491z" />
<path style="fill:#b2b2b2" d="M242,438 l22,0 0,491 -22,0 0,-491z" />
<path style="fill:#ccc" d="M247,438 l14,0 0,491 -14,0 0,-491z" />
<path style="fill:#e5e5e5" d="M252,438 l2,0 0,491 -2,0 0,-491z" />
<path style="fill:none;stroke:#000;stroke-width:2" d="M235,438 l36,0 0,491 -36,0 0,-491" />
<path style="fill:#666;stroke:#000;stroke-width:2" d="M151,715 l5,10 8,6 12,5 14,4 8,1 9,1 8,2 9,1 10,0 9,0 10,1 10,-1 9,0 10,0 9,-1 8,-2 9,-1 16,-3 13,-5 10,-5 6,-6 2,-4 1,-3 -1,-8 0,-16 -1,-9 -1,-8 -2,-9 -1,-8 -2,-9 -2,-8 -2,-9 -2,-9 -3,-8 -2,-8 -3,-9 -3,-8 -4,-7 -3,-8 -7,-14 -8,-13 -9,-12 -9,-9 -10,-8 -10,-5 -11,-3 -6,0 -5,0 -12,3 -10,5 -11,8 -9,9 -9,12 -8,13 -8,14 -3,8 -3,7 -3,8 -3,9 -3,8 -3,8 -2,9 -2,9 -2,8 -2,9 -1,8 -2,9 -1,8 -1,17 0,8 0,8z" />
<circle style="fill:#b2b2b2;stroke:#000;stroke-width:2" cx="253" cy="704" r="30" />
<ellipse style="fill:#ccc" cx="253" cy="704" rx="25" ry="30" />
<ellipse style="fill:#e5e5e5" cx="253" cy="704" rx="16" ry="30" />
<ellipse style="fill:#fff" cx="254" cy="704" rx="5" ry="30" />
<path style="fill:#b2b2b2" d="M418,28 l0,246 -104,328 0,72 -1,7 -27,19 -33,4 -33,-4 -23,-13 -4,-6 -1,-7 0,-72 -102,-328 0,-246 328,0z" />
<path style="fill:#ccc" d="M382,28 l0,246 -82,328 0,72 -15,23 -32,7 -32,-7 -15,-23 0,-72 -80,-328 0,-246 256,0z" />
<path style="fill:#e5e5e5" d="M329,28 l0,246 -46,328 0,72 -13,26 -16,4 -23,-11 -6,-19 0,-72 -48,-328 0,-246 152,0z" />
<path style="fill:#fff" d="M274,28 l0,246 -13,328 0,72 -3,26 -3,4 -2,0 -2,0 -6,-30 0,-72 -12,-328 0,-246 41,0z" />
<path style="fill:none;stroke:#000;stroke-width:2" d="M418,28 l0,246 -104,328 0,72 -1,7 -27,19 -33,4 -33,-4 -23,-13 -4,-6 -1,-7 0,-72 -102,-328 0,-246 328,0" />
<path style="fill:none;stroke:#7f7f7f;stroke-width:2" d="M90,274 l328,0" />
<path style="fill:#7f7f7f" d="M49,418 l41,0 0,552 -41,0 0,-552z" />
<path style="fill:#999" d="M52,418 l33,0 0,552 -33,0 0,-552z" />
<path style="fill:#b2b2b2" d="M57,418 l24,0 0,552 -24,0 0,-552z" />
<path style="fill:#ccc" d="M61,418 l15,0 0,552 -15,0 0,-552z" />
<path style="fill:#e5e5e5" d="M66,418 l5,0 0,552 -5,0 0,-552z" />
<path style="fill:none;stroke:#000;stroke-width:2" d="M49,418 l41,0 0,552 -41,0 0,-552" />
<path style="fill:#7f7f7f" d="M418,418 l41,0 0,552 -41,0 0,-552z" />
<path style="fill:#999" d="M421,418 l33,0 0,552 -33,0 0,-552z" />
<path style="fill:#b2b2b2" d="M425,418 l24,0 0,552 -24,0 0,-552z" />
<path style="fill:#ccc" d="M430,418 l15,0 0,552 -15,0 0,-552z" />
<path style="fill:#e5e5e5" d="M435,418 l5,0 0,552 -5,0 0,-552z" />
<path style="fill:none;stroke:#000;stroke-width:2" d="M418,418 l41,0 0,552 -41,0 0,-552" />
<path style="fill:#7f7f7f;stroke:#000;stroke-width:2" d="M469,478 l-432,0 -2,0 -7,-19 7,-21 2,0 432,0 2,0 7,21 -7,19 -2,0z" />
<path style="fill:#999" d="M469,476 l-432,0 -9,-17 7,-19 2,0 432,0 2,0 7,19 -9,17z" />
<path style="fill:#b2b2b2" d="M469,471 l-432,0 -9,-12 9,-14 432,0 9,14 -9,12z" />
<path style="fill:#ccc" d="M469,467 l-432,0 -9,-8 9,-9 432,0 9,9 -9,8z" />
<path style="fill:#e5e5e5" d="M469,459 l-432,0 -9,0 0,0 0,-1 6,-1 438,0 6,1 0,1 0,0 -9,0z" />
<path style="fill:#4c4c4c;stroke:#000;stroke-width:2" d="M52,418 l-9,-2 -8,-9 -2,-10 -1,-5 2,-12 4,-9 5,-6 9,-2 33,0 11,4 5,8 3,11 1,6 -2,10 -4,8 -10,8 -4,0 -33,0z" />
<path style="fill:#4c4c4c;stroke:#000;stroke-width:2" d="M421,418 l-11,-4 -5,-7 -3,-10 -1,-5 2,-12 4,-9 6,-6 8,-2 36,0 9,4 5,8 2,11 1,6 -2,10 -3,8 -9,8 -3,0 -36,0z" />
<path style="fill:#4c4c4c;stroke:#000;stroke-width:2" d="M28,961 l82,0 0,9 -82,0 0,-9z" />
<path style="fill:#4c4c4c;stroke:#000;stroke-width:2" d="M396,961 l82,0 0,9 -82,0 0,-9z" />
<path style="fill:#4c4c4c;stroke:#000;stroke-width:2" d="M218,929 l72,0 0,5 -72,0 0,-5z" />
<path style="fill:#999;stroke:#000;stroke-width:2" d="M187,602 l132,0 0,4 -132,0 0,-4z" />
<path style="fill:#999;stroke:#000;stroke-width:2" d="M73,351 l27,-51 24,51 -51,0z" />
<path style="fill:#999;stroke:#000;stroke-width:2" d="M433,351 l-27,-51 -24,51 51,0z" />
<path style="fill:#b2b2b2;stroke:#000;stroke-width:2" d="M93,356 l26,-51 27,51 -53,0z" />
<path style="fill:#b2b2b2;stroke:#000;stroke-width:2" d="M411,356 l-24,-51 -27,51 51,0z" />
<path style="fill:#b2b2b2;stroke:#000;stroke-width:2" d="M274,720 l4,41 -6,-7 -9,0 -8,5 -1,2 -1,-2 -7,-5 -10,0 -7,5 -1,2 5,-41 8,-5 1,0 2,0 8,4 2,3 6,-7 10,1 4,4z" />
<path style="fill:none;stroke:#000;stroke-width:2" d="M254,761 l0,-41" />
<path style="fill:#333;stroke:#000;stroke-width:2" d="M240,751 l10,3 4,9 -4,9 -10,3 -9,-3 -3,-9 3,-9 9,-3z" />
<path style="fill:#333;stroke:#000;stroke-width:2" d="M266,751 l9,3 3,9 -3,9 -9,3 -8,-3 -4,-9 4,-9 8,-3z" />

</svg>
