 

<svg xmlns:agg="http://www.example.com" xmlns="http://www.w3.org/2000/svg" preserveAspectRatio="none" width="0.5655in" height="1.0750in" viewBox="0 0 525 998">

<path style="fill:#e5e5e5;stroke:#000;stroke-width:2" d="M195,592 l14,77 107,0 13,-77 -134,0z" />
<path style="fill:#f2f2f2" d="M211,592 l12,77 79,0 11,-77 -102,0z" />
<path style="fill:#fff" d="M239,592 l5,77 37,0 4,-77 -46,0z" />
<path style="fill:#666;stroke:#000;stroke-width:2" d="M44,37 l51,25 0,857 16,0 0,-857 302,0 0,857 16,0 0,-857 51,-25 -27,0 -26,12 -330,0 -25,-12 -28,0z" />
<path style="fill:#fff;stroke:#000;stroke-width:2" d="M79,162 l24,9 31,9 28,7 31,6 31,3 29,1 33,-1 31,-4 27,-5 25,-7 27,-7 31,-7 14,-2 7,-2 -1,12 -2,38 -4,40 -2,27 -3,27 -3,40 -3,39 -2,37 0,34 2,32 3,26 6,22 -19,25 -24,17 -29,13 -25,6 -26,4 -33,2 -34,1 -9,0 -8,0 -32,-4 -28,-6 -24,-10 -26,-15 -19,-18 -16,-23 -1,-4 5,-41 4,-37 2,-32 1,-28 0,-36 -1,-30 -5,-34 -5,-31 -5,-32 -2,-28 -1,-21 0,-12z" />
<path style="fill:#e5e5e5" d="M360,548 l4,-28 6,-26 6,-32 4,-28 2,-33 0,-35 -4,-30 22,-15 6,-37 4,-31 3,-21 0,8 0,105 -2,32 -5,32 -7,29 -8,28 -8,26 -11,28 -10,24 -2,4z" />
<path style="fill:#ccc" d="M114,232 l4,28 6,26 7,31 4,29 2,33 -1,35 -4,29 22,16 6,25 4,43 3,21 0,-8 0,-105 -2,-32 -5,-32 -7,-30 -8,-27 -9,-26 -11,-28 -10,-24 -1,-4z" />
<path style="fill:#e5e5e5" d="M269,278 l-4,-7 -2,-1 -8,4 -11,6 -9,-1 -11,-7 -6,-7 -7,-10 -7,-14 -7,-3 -13,-5 -12,-1 -11,-1 -11,-2 -12,-6 -6,-5 -8,-6 -8,-8 -9,-10 -10,-13 2,7 5,12 7,10 8,10 12,10 6,5 8,6 9,6 9,7 10,8 12,9 12,10 9,3 9,2 5,0 5,0 10,0 10,-2 9,-2 12,-3 3,-1z" />
<path style="fill:#e5e5e5" d="M325,532 l-6,-10 -4,-7 -4,-8 -4,-9 -5,-9 -5,-11 -5,-11 -6,-12 -5,-13 -6,-13 -6,-15 -4,-7 -3,-8 -3,-8 -3,-8 -3,-9 -4,-8 -3,-9 -4,-9 -3,-9 -14,-3 -10,1 -5,-1 -7,-7 -4,-5 -5,-6 -6,-9 -9,-12 -11,-13 -13,-17 4,6 7,12 7,11 6,11 6,10 6,11 7,11 7,12 8,13 8,15 8,14 8,13 7,14 8,13 7,12 8,12 7,11 7,11 7,10 7,10 7,9 6,8 7,7 7,6 3,3z" />
<path style="fill:#f2f2f2;stroke:#000;stroke-width:2" d="M79,162 l24,9 31,9 28,7 31,6 31,3 29,1 33,-1 27,-4 29,-7 27,-8 26,-8 28,-5 12,-1 7,-1 6,0 -27,8 -27,9 -23,11 -18,20 -19,5 -9,1 -5,0 -31,-3 -29,-4 -28,-5 -29,-5 -31,-2 -35,0 -25,-8 -24,-21 -9,-6z" />
<path style="fill:#b2b2b2;stroke:#000;stroke-width:2" d="M28,28 l16,0 0,942 -16,0 0,-942z" />
<path style="fill:#b2b2b2;stroke:#000;stroke-width:2" d="M480,28 l17,0 0,942 -17,0 0,-942z" />
<path style="fill:#b2b2b2;stroke:#000;stroke-width:2" d="M44,28 l436,0 0,9 -436,0 0,-9z" />
<path style="fill:#b2b2b2;stroke:#000;stroke-width:2" d="M44,130 l436,0 0,16 -436,0 0,-16z" />
<path style="fill:#b2b2b2;stroke:#000;stroke-width:2" d="M81,179 l16,0 0,-33 -16,0 0,33z" />
<path style="fill:#b2b2b2;stroke:#000;stroke-width:2" d="M427,179 l16,0 0,-33 -16,0 0,33z" />
<path style="fill:#999;stroke:#000;stroke-width:2" d="M90,106 l9,5 3,10 -3,8 -9,3 -9,-3 -5,-8 5,-10 9,-5z" />
<path style="fill:#000;stroke:#000;stroke-width:2" d="M90,111 l7,6 0,4 -4,8 -3,1 -7,-5 -2,-4 4,-8 5,-2z" />
<path style="fill:#999;stroke:#000;stroke-width:2" d="M434,106 l10,5 4,10 -4,8 -10,3 -9,-5 -3,-6 4,-10 8,-5z" />
<path style="fill:#000;stroke:#000;stroke-width:2" d="M434,111 l8,4 1,6 -4,7 -5,2 -7,-6 0,-3 4,-9 3,-1z" />
<path style="fill:#ccc;stroke:#000;stroke-width:2" d="M195,666 l134,0 0,86 -134,0 0,-86z" />
<path style="fill:#ccc;stroke:#000;stroke-width:2" d="M179,752 l167,0 0,116 -167,0 0,-116z" />
<path style="fill:#b2b2b2" d="M230,747 l95,0 0,-46 -95,46z" />
<path style="fill:#b2b2b2;stroke:#000;stroke-width:2" d="M44,717 l436,0 0,17 -436,0 0,-17z" />
<path style="fill:#b2b2b2" d="M211,866 l130,0 0,-63 -130,63z" />
<path style="fill:#b2b2b2;stroke:#000;stroke-width:2" d="M44,852 l436,0 0,16 -436,0 0,-16z" />
<path style="fill:#333;stroke:#000;stroke-width:2" d="M246,824 l32,0 0,-51 -32,0 0,51z" />
<path style="fill:#666;stroke:#000;stroke-width:2" d="M230,822 l16,35 32,0 17,-35 -65,0z" />

</svg>
