 

<svg xmlns:agg="http://www.example.com" xmlns="http://www.w3.org/2000/svg" preserveAspectRatio="none" width="1.6083in" height="0.8726in" viewBox="0 0 999 542">

<path style="fill:#4c4c4c" d="M420,357 l0,-314 511,0 0,314 -511,0z" />
<path style="fill:#616161" d="M420,337 l0,-275 511,0 0,275 -511,0z" />
<path style="fill:#787878" d="M420,317 l0,-236 511,0 0,236 -511,0z" />
<path style="fill:#8c8c8c" d="M420,307 l0,-215 511,0 0,215 -511,0z" />
<path style="fill:#a1a1a1" d="M420,287 l0,-176 511,0 0,176 -511,0z" />
<path style="fill:#b8b8b8" d="M420,263 l0,-127 511,0 0,127 -511,0z" />
<path style="fill:#ccc" d="M420,229 l0,-59 511,0 0,59 -511,0z" />
<path style="fill:none;stroke:#000;stroke-width:2" d="M420,357 l0,-314 511,0 0,314 -511,0" />
<path style="fill:#000" d="M381,371 l0,-343 39,0 0,343 -39,0z" />
<path style="fill:#4c4c4c" d="M381,327 l0,-255 39,0 0,255 -39,0z" />
<path style="fill:#666" d="M381,249 l0,-98 39,0 0,98 -39,0z" />
<path style="fill:none;stroke:#7f7f7f;stroke-width:2" d="M381,298 l39,0" />
<path style="fill:none;stroke:#7f7f7f;stroke-width:2" d="M381,337 l39,0" />
<path style="fill:none;stroke:#7f7f7f;stroke-width:2" d="M381,317 l39,0" />
<path style="fill:none;stroke:#7f7f7f;stroke-width:2" d="M381,357 l39,0" />
<path style="fill:none;stroke:#7f7f7f;stroke-width:2" d="M381,101 l39,0" />
<path style="fill:none;stroke:#7f7f7f;stroke-width:2" d="M381,62 l39,0" />
<path style="fill:none;stroke:#7f7f7f;stroke-width:2" d="M381,82 l39,0" />
<path style="fill:none;stroke:#7f7f7f;stroke-width:2" d="M381,43 l39,0" />
<path style="fill:none;stroke:#bfbfbf;stroke-width:2" d="M381,258 l39,0" />
<path style="fill:none;stroke:#bfbfbf;stroke-width:2" d="M381,278 l39,0" />
<path style="fill:none;stroke:#bfbfbf;stroke-width:2" d="M381,239 l39,0" />
<path style="fill:none;stroke:#bfbfbf;stroke-width:2" d="M381,141 l39,0" />
<path style="fill:none;stroke:#bfbfbf;stroke-width:2" d="M381,160 l39,0" />
<path style="fill:none;stroke:#bfbfbf;stroke-width:2" d="M381,121 l39,0" />
<path style="fill:none;stroke:#e5e5e5;stroke-width:2" d="M381,219 l39,0" />
<path style="fill:none;stroke:#e5e5e5;stroke-width:2" d="M381,180 l39,0" />
<path style="fill:none;stroke:#e5e5e5;stroke-width:2" d="M381,200 l39,0" />
<path style="fill:none;stroke:#000;stroke-width:2" d="M381,371 l0,-343 39,0 0,343 -39,0" />
<path style="fill:#a6a6a6;stroke:#000;stroke-width:2" d="M931,504 l0,-246 39,0 0,246 -39,0z" />
<path style="fill:#a6a6a6;stroke:#000;stroke-width:2" d="M342,504 l0,-246 39,0 0,246 -39,0z" />
<path style="fill:#ccc;stroke:#000;stroke-width:2" d="M28,504 l353,0 0,10 -353,0 0,-10z" />
<path style="fill:#ccc;stroke:#000;stroke-width:2" d="M931,504 l39,0 0,10 -39,0 0,-10z" />
<path style="fill:#4c4c4c" d="M322,239 l0,-79 59,0 0,79 -59,0z" />
<path style="fill:#8c8c8c" d="M322,227 l0,-54 59,0 0,54 -59,0z" />
<path style="fill:#a1a1a1" d="M322,222 l0,-44 59,0 0,44 -59,0z" />
<path style="fill:#ccc" d="M322,207 l0,-15 59,0 0,15 -59,0z" />
<path style="fill:none;stroke:#000;stroke-width:2" d="M322,239 l0,-79 59,0 0,79 -59,0" />
<path style="fill:#e5e5e5;stroke:#000;stroke-width:2" d="M322,258 l0,-19 15,0 0,-44 10,0 0,44 10,0 0,-44 9,0 0,44 15,0 0,19 -59,0z" />
<path style="fill:#7f7f7f;stroke:#000;stroke-width:2" d="M38,504 l10,-49 274,0 0,-197 20,0 0,246 -304,0z" />
<path style="fill:#b2b2b2;stroke:#000;stroke-width:2" d="M205,455 l0,-20 39,0 29,-10 10,-29 0,-39 39,0 0,98 -117,0z" />
<path style="fill:#4c4c4c;stroke:#000;stroke-width:2" d="M141,455 l-93,0 -20,-5 0,-88 20,-5 93,0 0,5 24,0 10,9 0,25 25,0 0,-15 5,0 0,-5 14,0 0,5 5,0 0,15 20,0 0,-30 19,0 0,-4 20,0 0,88 -20,0 0,-5 -19,0 0,-30 -20,0 0,15 -5,0 0,5 -14,0 0,-5 -5,0 0,-15 -25,0 0,25 -10,10 -24,0 0,5z" />
<path style="fill:#666" d="M141,446 l-93,0 -20,-4 0,-73 20,-4 93,0 0,4 25,0 9,8 0,21 25,0 0,-13 5,0 0,-4 14,0 0,4 5,0 0,13 20,0 0,-25 20,0 0,-4 19,0 0,73 -19,0 0,-4 -20,0 0,-24 -20,0 0,11 -5,0 0,5 -14,0 0,-5 -5,0 0,-11 -25,0 0,20 -9,8 -25,0 0,4z" />
<path style="fill:#7f7f7f" d="M141,440 l-93,0 -20,-4 0,-61 20,-4 93,0 0,4 25,0 9,7 0,17 25,0 0,-10 5,0 0,-4 14,0 0,4 5,0 0,10 20,0 0,-21 20,0 0,-3 19,0 0,61 -19,0 0,-3 -20,0 0,-21 -20,0 0,11 -5,0 0,3 -14,0 0,-3 -5,0 0,-11 -25,0 0,18 -9,6 -25,0 0,4z" />
<path style="fill:#999" d="M141,430 l-93,0 -20,-3 0,-43 20,-3 93,0 0,3 25,0 9,4 0,13 25,0 0,-8 5,0 0,-2 14,0 0,2 5,0 0,8 20,0 0,-15 20,0 0,-2 19,0 0,43 -19,0 0,-2 -20,0 0,-15 -20,0 0,8 -5,0 0,2 -14,0 0,-2 -5,0 0,-8 -25,0 0,12 -9,5 -25,0 0,3z" />
<path style="fill:#b2b2b2" d="M141,415 l-93,0 -20,-1 0,-17 20,-1 93,0 0,1 24,0 10,2 0,5 25,0 0,-3 5,0 0,-1 14,0 0,1 5,0 0,3 20,0 0,-6 19,0 0,-1 20,0 0,17 -20,0 0,0 -19,0 0,-6 -20,0 0,2 -5,0 0,1 -14,0 0,-1 -5,0 0,-2 -25,0 0,5 -10,1 -24,0 0,1z" />
<path style="fill:none;stroke:#000;stroke-width:2" d="M141,455 l-93,0" />
<path style="fill:none;stroke:#000;stroke-width:2" d="M175,415 l0,-19" />
<path style="fill:none;stroke:#000;stroke-width:2" d="M200,396 l0,19" />
<path style="fill:none;stroke:#000;stroke-width:2" d="M205,430 l0,-49" />
<path style="fill:none;stroke:#000;stroke-width:2" d="M219,381 l0,49" />
<path style="fill:none;stroke:#000;stroke-width:2" d="M224,415 l0,-19" />
<path style="fill:none;stroke:#000;stroke-width:2" d="M244,396 l0,19" />
<path style="fill:none;stroke:#000;stroke-width:2" d="M263,445 l0,-79" />
<path style="fill:none;stroke:#000;stroke-width:2" d="M141,450 l0,-88" />
<path style="fill:none;stroke:#000;stroke-width:2" d="M48,357 l0,98" />
<path style="fill:#333;stroke:#000;stroke-width:2" d="M77,357 l59,0 0,44 -59,0 0,-44z" />
<path style="fill:#bfbfbf;stroke:#000;stroke-width:2" d="M72,396 l69,0 0,-5 -69,0 0,5z" />
<path style="fill:#bfbfbf;stroke:#000;stroke-width:2" d="M72,386 l69,0 0,-5 -69,0 0,5z" />
<path style="fill:#bfbfbf;stroke:#000;stroke-width:2" d="M72,376 l69,0 0,-5 -69,0 0,5z" />
<path style="fill:#bfbfbf;stroke:#000;stroke-width:2" d="M72,367 l69,0 0,-5 -69,0 0,5z" />
<path style="fill:#bfbfbf;stroke:#000;stroke-width:2" d="M72,360 l69,0 0,-5 -69,0 0,5z" />
<path style="fill:#999;stroke:#000;stroke-width:2" d="M97,415 l34,0 0,40 -34,0 0,-40z" />
<path style="fill:none;stroke:#fff;stroke-width:2" d="M97,455 l0,-40 34,0" />
<path style="fill:#666" d="M460,268 l9,0 0,15 -9,0 0,-15z" />
<path style="fill:#666" d="M499,268 l10,0 0,15 -10,0 0,-15z" />
<path style="fill:#666" d="M538,268 l10,0 0,15 -10,0 0,-15z" />
<path style="fill:#666" d="M578,268 l9,0 0,15 -9,0 0,-15z" />
<path style="fill:#666" d="M617,268 l10,0 0,15 -10,0 0,-15z" />
<path style="fill:#666" d="M656,268 l10,0 0,15 -10,0 0,-15z" />
<path style="fill:#666" d="M695,268 l10,0 0,15 -10,0 0,-15z" />
<path style="fill:#666" d="M735,268 l9,0 0,15 -9,0 0,-15z" />
<path style="fill:#666" d="M774,268 l10,0 0,15 -10,0 0,-15z" />
<path style="fill:#666" d="M813,268 l10,0 0,15 -10,0 0,-15z" />
<path style="fill:#666" d="M852,268 l10,0 0,15 -10,0 0,-15z" />
<path style="fill:#666" d="M892,268 l9,0 0,15 -9,0 0,-15z" />
<path style="fill:#666" d="M460,141 l9,0 0,14 -9,0 0,-14z" />
<path style="fill:#666" d="M499,141 l10,0 0,14 -10,0 0,-14z" />
<path style="fill:#666" d="M538,141 l10,0 0,14 -10,0 0,-14z" />
<path style="fill:#666" d="M578,141 l9,0 0,14 -9,0 0,-14z" />
<path style="fill:#666" d="M617,141 l10,0 0,14 -10,0 0,-14z" />
<path style="fill:#666" d="M656,141 l10,0 0,14 -10,0 0,-14z" />
<path style="fill:#666" d="M695,141 l10,0 0,14 -10,0 0,-14z" />
<path style="fill:#666" d="M735,141 l9,0 0,14 -9,0 0,-14z" />
<path style="fill:#666" d="M774,141 l10,0 0,14 -10,0 0,-14z" />
<path style="fill:#666" d="M813,141 l10,0 0,14 -10,0 0,-14z" />
<path style="fill:#666" d="M852,141 l10,0 0,14 -10,0 0,-14z" />
<path style="fill:#666" d="M892,141 l9,0 0,14 -9,0 0,-14z" />

</svg>
