 

<svg xmlns:agg="http://www.example.com" xmlns="http://www.w3.org/2000/svg" preserveAspectRatio="none" width="1.6083in" height="0.7196in" viewBox="0 0 999 447">

<path style="fill:#4c4c4c;stroke:#000;stroke-width:2" d="M754,417 l16,2 12,-12 2,-16 -12,-12 -714,-348 -17,-2 -11,11 -2,16 12,12 714,349z" />
<path style="fill:#f2f2f2;stroke:#000;stroke-width:2" d="M29,56 l1,-16 11,-10 17,1 10,12 -1,16 -12,10 -15,-1 -11,-12z" />
<path style="fill:#f2f2f2;stroke:#000;stroke-width:2" d="M66,74 l1,-15 12,-11 16,1 11,12 -1,16 -12,11 -16,-1 -11,-13z" />
<path style="fill:#f2f2f2;stroke:#000;stroke-width:2" d="M104,93 l1,-16 12,-11 16,1 10,12 -1,16 -11,11 -16,-1 -11,-12z" />
<path style="fill:#f2f2f2;stroke:#000;stroke-width:2" d="M142,111 l0,-16 12,-10 17,1 10,12 -1,16 -12,10 -16,-1 -10,-12z" />
<path style="fill:#f2f2f2;stroke:#000;stroke-width:2" d="M179,129 l1,-15 12,-11 16,1 11,12 -1,16 -12,10 -16,0 -11,-13z" />
<path style="fill:#f2f2f2;stroke:#000;stroke-width:2" d="M217,148 l1,-16 11,-11 17,1 10,12 -1,16 -12,11 -16,-1 -10,-12z" />
<path style="fill:#f2f2f2;stroke:#000;stroke-width:2" d="M254,166 l1,-16 12,-10 16,1 11,12 -1,16 -12,10 -16,-1 -11,-12z" />
<path style="fill:#f2f2f2;stroke:#000;stroke-width:2" d="M292,185 l1,-16 12,-11 16,1 10,13 -1,15 -12,10 -15,0 -11,-12z" />
<path style="fill:#f2f2f2;stroke:#000;stroke-width:2" d="M329,203 l1,-16 12,-10 17,1 10,12 -1,15 -12,11 -15,-1 -12,-12z" />
<path style="fill:#f2f2f2;stroke:#000;stroke-width:2" d="M367,221 l1,-16 12,-10 16,1 11,12 -2,15 -11,11 -16,-1 -11,-12z" />
<path style="fill:#f2f2f2;stroke:#000;stroke-width:2" d="M404,239 l1,-16 13,-10 16,1 10,12 -1,16 -12,11 -16,-1 -11,-13z" />
<path style="fill:#f2f2f2;stroke:#000;stroke-width:2" d="M442,258 l1,-16 12,-11 16,1 11,12 -1,16 -12,11 -16,-1 -11,-12z" />
<path style="fill:#f2f2f2;stroke:#000;stroke-width:2" d="M480,276 l1,-16 12,-10 16,1 11,12 -1,16 -12,10 -16,-1 -11,-12z" />
<path style="fill:#f2f2f2;stroke:#000;stroke-width:2" d="M517,295 l2,-16 11,-11 16,1 11,12 -1,16 -12,11 -16,-2 -11,-11z" />
<path style="fill:#f2f2f2;stroke:#000;stroke-width:2" d="M555,313 l1,-16 12,-11 16,2 11,11 -1,16 -12,11 -16,-1 -11,-12z" />
<path style="fill:#f2f2f2;stroke:#000;stroke-width:2" d="M593,331 l1,-16 12,-10 16,1 10,12 -1,16 -12,10 -15,-1 -11,-12z" />
<path style="fill:#f2f2f2;stroke:#000;stroke-width:2" d="M630,349 l1,-15 12,-11 16,1 11,12 -1,16 -12,11 -15,-1 -12,-13z" />
<path style="fill:#f2f2f2;stroke:#000;stroke-width:2" d="M668,368 l1,-16 12,-10 16,0 10,13 -1,15 -11,11 -16,-1 -11,-12z" />
<path style="fill:#f2f2f2;stroke:#000;stroke-width:2" d="M705,386 l1,-16 13,-10 15,1 11,12 -1,16 -12,10 -16,-1 -11,-12z" />
<path style="fill:#f2f2f2;stroke:#000;stroke-width:2" d="M743,404 l1,-15 12,-11 16,1 10,12 0,16 -12,11 -16,-1 -11,-13z" />
<path style="fill:#4c4c4c" d="M39,52 l0,-7 6,-6 8,1 5,6 0,8 -6,5 -8,0 -5,-7z" />
<path style="fill:#4c4c4c" d="M76,71 l0,-8 6,-5 9,1 5,5 0,8 -6,6 -9,-1 -5,-6z" />
<path style="fill:#4c4c4c" d="M114,90 l0,-9 6,-5 8,1 6,6 -1,8 -6,5 -7,0 -6,-6z" />
<path style="fill:#4c4c4c" d="M151,108 l1,-8 6,-5 8,0 5,6 0,8 -7,5 -7,0 -6,-6z" />
<path style="fill:#4c4c4c" d="M189,126 l0,-8 6,-5 9,1 5,5 -1,8 -6,6 -7,-1 -6,-6z" />
<path style="fill:#4c4c4c" d="M226,144 l1,-7 6,-6 8,1 5,6 0,8 -6,5 -8,-1 -6,-6z" />
<path style="fill:#4c4c4c" d="M264,163 l1,-8 6,-6 8,1 5,6 0,8 -6,6 -8,-1 -6,-6z" />
<path style="fill:#4c4c4c" d="M302,181 l0,-8 6,-5 8,1 5,6 0,8 -6,5 -8,-1 -5,-6z" />
<path style="fill:#4c4c4c" d="M340,199 l0,-7 6,-6 8,1 5,6 -1,8 -5,5 -8,0 -5,-7z" />
<path style="fill:#4c4c4c" d="M377,218 l0,-8 6,-5 8,0 6,6 -1,8 -6,5 -8,0 -5,-6z" />
<path style="fill:#4c4c4c" d="M414,236 l1,-8 6,-5 8,1 6,5 -1,8 -6,6 -8,-1 -6,-6z" />
<path style="fill:#4c4c4c" d="M452,255 l1,-9 5,-5 9,1 5,6 0,8 -7,5 -7,0 -6,-6z" />
<path style="fill:#4c4c4c" d="M490,273 l0,-8 6,-6 8,1 6,6 -1,8 -6,5 -8,0 -5,-6z" />
<path style="fill:#4c4c4c" d="M527,291 l1,-8 6,-5 8,1 5,6 -1,7 -5,6 -8,-1 -6,-6z" />
<path style="fill:#4c4c4c" d="M565,309 l0,-7 6,-6 8,1 6,6 -1,8 -6,5 -7,0 -6,-7z" />
<path style="fill:#4c4c4c" d="M603,328 l0,-9 6,-5 8,1 5,6 0,8 -6,5 -8,0 -5,-6z" />
<path style="fill:#4c4c4c" d="M640,346 l0,-8 6,-5 9,1 5,6 -1,7 -6,6 -8,0 -5,-7z" />
<path style="fill:#4c4c4c" d="M678,365 l0,-8 6,-6 8,1 6,6 -1,8 -6,5 -8,0 -5,-6z" />
<path style="fill:#4c4c4c" d="M715,383 l1,-8 5,-6 9,1 5,6 0,8 -6,5 -8,0 -6,-6z" />
<path style="fill:#4c4c4c" d="M753,401 l1,-8 5,-5 9,1 5,5 -1,8 -6,6 -7,-1 -6,-6z" />
<path style="fill:#b2b2b2" d="M58,31 l187,-1 714,348 11,12 -186,1 -12,-12 -714,-348z" />
<path style="fill:#666" d="M782,407 l-12,12 187,-1 12,-12 -187,1z" />
<path style="fill:#8c8c8c" d="M782,407 l2,-16 186,-1 -1,16 -187,1z" />
<path style="fill:#999" d="M58,31 l-17,-2 187,-1 17,2 -187,1z" />
<path style="fill:#a6a6a6;stroke:#7f7f7f;stroke-width:2" d="M551,272 l187,-2 75,37 -187,1 -75,-36z" />
<path style="fill:#a6a6a6;stroke:#7f7f7f;stroke-width:2" d="M218,109 l186,-1 75,36 -186,1 -75,-36z" />
<path style="fill:none;stroke:#000;stroke-width:2" d="M770,419 l12,-12 2,-16 -12,-12 -714,-348 -17,-2 187,-1 17,2 714,348 11,12 -1,16 -12,12 -187,1" />

</svg>
