 

<svg xmlns:agg="http://www.example.com" xmlns="http://www.w3.org/2000/svg" preserveAspectRatio="none" width="1.6083in" height="1.0384in" viewBox="0 0 999 645">

<path style="fill:#ccc;stroke:#000;stroke-width:2" d="M420,185 l58,0 0,-127 -58,0 0,127z" />
<path style="fill:#ccc;stroke:#000;stroke-width:2" d="M420,58 l-118,0 0,127 118,0 0,-127z" />
<path style="fill:#ccc;stroke:#000;stroke-width:2" d="M302,185 l-39,-30 0,-69 39,-28 0,127z" />
<path style="fill:#999;stroke:#000;stroke-width:2" d="M302,66 l118,0 0,11 -118,0 0,-11z" />
<path style="fill:#999;stroke:#000;stroke-width:2" d="M302,86 l118,0 0,11 -118,0 0,-11z" />
<path style="fill:#999;stroke:#000;stroke-width:2" d="M302,105 l118,0 0,11 -118,0 0,-11z" />
<path style="fill:#999;stroke:#000;stroke-width:2" d="M302,125 l118,0 0,10 -118,0 0,-10z" />
<path style="fill:#999;stroke:#000;stroke-width:2" d="M302,144 l118,0 0,11 -118,0 0,-11z" />
<path style="fill:#999;stroke:#000;stroke-width:2" d="M302,166 l118,0 0,8 -118,0 0,-8z" />
<path style="fill:#e5e5e5;stroke:#000;stroke-width:2" d="M381,185 l117,0 0,19 -235,0 0,-49 118,30z" />
<path style="fill:#e5e5e5;stroke:#000;stroke-width:2" d="M105,224 l158,0 0,-166 -158,0 0,166z" />
<path style="fill:#ccc" d="M105,155 l158,0 0,-69 -158,0 0,69z" />
<path style="fill:#999" d="M105,135 l158,0 0,-30 -158,0 0,30z" />
<path style="fill:#4c4c4c" d="M105,125 l158,0 0,-9 -158,0 0,9z" />
<path style="fill:#999;stroke:#000;stroke-width:2" d="M105,224 l158,0 0,205 -158,0 0,-205z" />
<path style="fill:#4c4c4c;stroke:#000;stroke-width:2" d="M146,597 l-41,-19 0,-158 41,-39 0,138 805,0 0,20 -805,0 0,58z" />
<path style="fill:#b2b2b2;stroke:#000;stroke-width:2" d="M951,224 l19,0 0,392 -19,0 0,-392z" />
<path style="fill:#b2b2b2;stroke:#000;stroke-width:2" d="M146,224 l20,0 0,392 -20,0 0,-392z" />
<path style="fill:#ccc" d="M166,224 l785,0 0,293 -785,0 0,-293z" />
<path style="fill:#b2b2b2" d="M166,371 l785,0 0,146 -785,0 0,-146z" />
<path style="fill:#999" d="M166,450 l785,0 0,67 -785,0 0,-67z" />
<path style="fill:#7f7f7f" d="M166,498 l785,0 0,19 -785,0 0,-19z" />
<path style="fill:none;stroke:#000;stroke-width:2" d="M166,224 l785,0 0,293 -785,0 0,-293" />
<path style="fill:#e5e5e5" d="M28,578 l77,0 0,-550 -77,0 0,550z" />
<path style="fill:#ccc" d="M28,578 l77,0 0,-227 -77,0 0,227z" />
<path style="fill:#b2b2b2" d="M28,578 l77,0 0,-80 -77,0 0,80z" />
<path style="fill:#999" d="M28,578 l77,0 0,-20 -77,0 0,20z" />
<path style="fill:none;stroke:#000;stroke-width:2" d="M28,578 l77,0 0,-550 -77,0 0,550" />
<path style="fill:#4c4c4c;stroke:#000;stroke-width:2" d="M166,232 l785,0 0,11 -785,0 0,-11z" />
<path style="fill:#7f7f7f" d="M519,194 l78,0 0,19 -78,0 0,-19z" />
<path style="fill:#b2b2b2" d="M532,194 l52,0 0,19 -52,0 0,-19z" />
<path style="fill:#e5e5e5;stroke:#ccc;stroke-width:2" d="M548,194 l19,0 0,19 -19,0 0,-19z" />
<path style="fill:none;stroke:#000;stroke-width:2" d="M519,194 l78,0 0,19 -78,0 0,-19" />
<path style="fill:#7f7f7f" d="M204,194 l78,0 0,19 -78,0 0,-19z" />
<path style="fill:#b2b2b2" d="M217,194 l54,0 0,19 -54,0 0,-19z" />
<path style="fill:#e5e5e5;stroke:#ccc;stroke-width:2" d="M235,194 l19,0 0,19 -19,0 0,-19z" />
<path style="fill:none;stroke:#000;stroke-width:2" d="M204,194 l78,0 0,19 -78,0 0,-19" />
<path style="fill:#7f7f7f" d="M832,185 l80,0 0,19 -80,0 0,-19z" />
<path style="fill:#b2b2b2" d="M845,185 l54,0 0,19 -54,0 0,-19z" />
<path style="fill:#e5e5e5;stroke:#ccc;stroke-width:2" d="M862,185 l20,0 0,19 -20,0 0,-19z" />
<path style="fill:none;stroke:#000;stroke-width:2" d="M832,185 l80,0 0,19 -80,0 0,-19" />
<path style="fill:#b2b2b2;stroke:#000;stroke-width:2" d="M735,213 l216,0 0,11 -216,0 0,-11z" />
<path style="fill:#4c4c4c;stroke:#000;stroke-width:2" d="M224,213 l39,0 0,11 -39,0 0,-11z" />
<path style="fill:#4c4c4c;stroke:#000;stroke-width:2" d="M539,213 l39,0 0,11 -39,0 0,-11z" />
<path style="fill:#4c4c4c;stroke:#000;stroke-width:2" d="M852,204 l41,0 0,9 -41,0 0,-9z" />
<path style="fill:none;stroke:#7f7f7f;stroke-width:2" d="M224,409 l658,0" />
<path style="fill:none;stroke:#7f7f7f;stroke-width:2" d="M194,429 l580,0" />
<path style="fill:none;stroke:#7f7f7f;stroke-width:2" d="M362,470 l550,0" />
<path style="fill:none;stroke:#7f7f7f;stroke-width:2" d="M312,343 l589,0" />
<circle style="fill:#b2b2b2;stroke:#000;stroke-width:2" cx="200" cy="278" r="15" />
<path style="fill:#191919;stroke:#000;stroke-width:2" d="M200,271 l6,3 1,4 -7,6 -6,-6 1,-4 5,-3z" />
<path style="fill:#ff0;stroke:#000;stroke-width:2" d="M47,252 l39,0 0,21 -39,0 0,-21z" />
<path style="fill:#ff0;stroke:#000;stroke-width:2" d="M47,144 l39,0 0,22 -39,0 0,-22z" />

</svg>
