 

<svg xmlns:agg="http://www.example.com" xmlns="http://www.w3.org/2000/svg" preserveAspectRatio="none" width="0.9093in" height="1.0750in" viewBox="0 0 845 999">

<path style="fill:#4c4c4c;stroke:#000;stroke-width:2" d="M393,509 l39,0 0,423 -39,0 0,-423z" />
<path style="fill:#4c4c4c;stroke:#000;stroke-width:2" d="M85,509 l39,0 0,423 -39,0 0,-423z" />
<path style="fill:#999" d="M586,258 l211,-38 0,-58 -211,96z" />
<path style="fill:#bfbfbf" d="M586,66 l211,96 -211,96 0,-192z" />
<path style="fill:#e5e5e5" d="M586,66 l211,96 0,-58 -211,-38z" />
<path style="fill:#7f7f7f" d="M28,509 l0,-462 461,0 0,462 -461,0z" />
<path style="fill:#4c4c4c" d="M181,778 l-153,-269 461,0 -154,269 -154,0z" />
<path style="fill:#949494" d="M70,509 l0,-462 377,0 0,462 -377,0z" />
<path style="fill:#a8a8a8" d="M112,509 l0,-462 293,0 0,462 -293,0z" />
<path style="fill:#bdbdbd" d="M155,509 l0,-462 208,0 0,462 -208,0z" />
<path style="fill:#d1d1d1" d="M197,509 l0,-462 123,0 0,462 -123,0z" />
<path style="fill:#e5e5e5" d="M239,509 l0,-462 39,0 0,462 -39,0z" />
<path style="fill:#616161" d="M196,778 l-126,-269 377,0 -125,269 -126,0z" />
<path style="fill:#757575" d="M210,778 l-98,-269 293,0 -98,269 -97,0z" />
<path style="fill:#8a8a8a" d="M224,778 l-69,-269 208,0 -69,269 -70,0z" />
<path style="fill:#9e9e9e" d="M238,778 l-41,-269 123,0 -41,269 -41,0z" />
<path style="fill:#b2b2b2" d="M252,778 l-13,-269 39,0 -13,269 -13,0z" />
<path style="fill:none;stroke:#000;stroke-width:2" d="M28,509 l0,-462 461,0 0,462 -461,0" />
<path style="fill:none;stroke:#000;stroke-width:2" d="M181,778 l-153,-269 461,0 -154,269 -154,0" />
<path style="fill:#ccc;stroke:#000;stroke-width:2" d="M797,239 l20,0 0,-154 -20,0 0,154z" />
<path style="fill:#ccc;stroke:#000;stroke-width:2" d="M566,297 l20,0 0,-269 -20,0 0,269z" />
<path style="fill:#666" d="M239,278 l250,0 0,173 -250,-173z" />
<path style="fill:#7a7a7a" d="M240,278 l207,0 0,144 -207,-144z" />
<path style="fill:#8f8f8f" d="M240,278 l165,0 0,115 -165,-115z" />
<path style="fill:#a3a3a3" d="M240,278 l123,0 0,85 -123,-85z" />
<path style="fill:#b8b8b8" d="M240,278 l80,0 0,56 -80,-56z" />
<path style="fill:#ccc" d="M239,278 l39,0 0,27 -39,-27z" />
<path style="fill:#e5e5e5" d="M258,47 l308,0 0,231 -308,0 0,-231z" />
<path style="fill:#dedede" d="M258,273 l303,0 0,-154 -303,77 0,77z" />
<path style="fill:#d4d4d4" d="M258,273 l303,0 0,-135 -303,77 0,58z" />
<path style="fill:#ccc" d="M258,273 l303,0 0,-106 -303,77 0,29z" />
<path style="fill:#999;stroke:#000;stroke-width:2" d="M451,509 l39,0 0,461 -39,0 0,-461z" />
<path style="fill:#999;stroke:#000;stroke-width:2" d="M28,509 l38,0 0,461 -38,0 0,-461z" />
<path style="fill:#7f7f7f;stroke:#000;stroke-width:2" d="M182,778 l154,0 0,19 -154,0 0,-19z" />
<path style="fill:#999;stroke:#000;stroke-width:2" d="M201,797 l115,0 0,39 -115,0 0,-39z" />
<path style="fill:#7f7f7f" d="M201,826 l-106,0 0,-20 106,0 0,20z" />
<path style="fill:#e5e5e5" d="M201,818 l-106,0 0,-4 106,0 0,4z" />
<path style="fill:none;stroke:#000;stroke-width:2" d="M201,826 l-106,0 0,-20 106,0 0,20" />
<path style="fill:none;stroke:#000;stroke-width:2" d="M586,258 l211,-38 0,-116 -211,-38 0,192" />
<path style="fill:none;stroke:#000;stroke-width:2" d="M239,47 l327,0 0,231 -327,0" />

</svg>
