 

<svg xmlns:agg="http://www.example.com" xmlns="http://www.w3.org/2000/svg" preserveAspectRatio="none" width="0.5671in" height="1.0750in" viewBox="0 0 527 999">

<path style="fill:#ccc;stroke:#000;stroke-width:2" d="M42,415 l443,0 0,546 -443,0 0,-546z" />
<path style="fill:#dedede" d="M79,415 l369,0 0,546 -369,0 0,-546z" />
<path style="fill:#f0f0f0" d="M148,415 l230,0 0,546 -230,0 0,-546z" />
<path style="fill:#fff" d="M223,415 l81,0 0,546 -81,0 0,-546z" />
<path style="fill:#b2b2b2;stroke:#000;stroke-width:2" d="M37,775 l453,0 0,10 -453,0 0,-10z" />
<path style="fill:#b2b2b2;stroke:#000;stroke-width:2" d="M37,592 l453,0 0,9 -453,0 0,-9z" />
<path style="fill:#b2b2b2;stroke:#000;stroke-width:2" d="M37,961 l453,0 0,9 -453,0 0,-9z" />
<path style="fill:#999;stroke:#000;stroke-width:2" d="M37,406 l453,0 0,9 -453,0 0,-9z" />
<path style="fill:#b2b2b2;stroke:#000;stroke-width:2" d="M28,397 l471,0 0,9 -471,0 0,-9z" />
<path style="fill:#fff;stroke:#000;stroke-width:2" d="M199,251 l37,62 54,0 37,-62 -19,0 -25,34 -37,0 -28,-34 -19,0z" />
<path style="fill:#b2b2b2" d="M262,251 l0,-19 -53,0 0,-130 109,0 0,130 -56,0 0,19 74,0 0,-168 -146,0 0,168 72,0z" />
<path style="fill:none;stroke:#000;stroke-width:2" d="M209,102 l109,0 0,130 -109,0 0,-130" />
<path style="fill:none;stroke:#000;stroke-width:2" d="M190,83 l146,0 0,168 -146,0 0,-168" />
<path style="fill:#ccc;stroke:#000;stroke-width:2" d="M213,313 l142,0 0,19 -142,0 0,-19z" />
<path style="fill:#e5e5e5;stroke:#000;stroke-width:2" d="M355,304 l23,0 0,37 -23,0 0,-37z" />
<path style="fill:#ccc;stroke:#000;stroke-width:2" d="M308,513 l0,-33 66,-55 0,-374 -14,0 0,364 -66,56 0,42 14,0z" />
<path style="fill:#ccc;stroke:#000;stroke-width:2" d="M236,896 l0,-564 14,0 0,564 -14,0z" />
<path style="fill:#ccc;stroke:#000;stroke-width:2" d="M271,896 l0,-564 14,0 0,564 -14,0z" />
<path style="fill:#e5e5e5;stroke:#000;stroke-width:2" d="M232,896 l58,0 0,14 -58,0 0,-14z" />
<path style="fill:#fff;stroke:#000;stroke-width:2" d="M241,910 l42,0 0,14 -42,0 0,-14z" />
<path style="fill:#fff;stroke:#000;stroke-width:2" d="M246,924 l30,0 0,32 -30,0 0,-32z" />
<path style="fill:#fff;stroke:#000;stroke-width:2" d="M250,332 l21,0 0,23 -21,0 0,-23z" />
<path style="fill:#fff;stroke:#000;stroke-width:2" d="M253,355 l16,0 0,541 -16,0 0,-541z" />
<path style="fill:#7f7f7f;stroke:#000;stroke-width:2" d="M227,383 l67,0 0,14 -67,0 0,-14z" />
<path style="fill:#333;stroke:#000;stroke-width:2" d="M213,513 l100,0 0,18 -100,0 0,-18z" />
<path style="fill:#b2b2b2;stroke:#000;stroke-width:2" d="M355,28 l32,0 0,23 -32,0 0,-23z" />
<path style="fill:#e5e5e5;stroke:#000;stroke-width:2" d="M387,32 l19,0 0,14 -19,0 0,-14z" />
<path style="fill:#7f7f7f;stroke:#000;stroke-width:2" d="M313,125 l0,19 -100,0 0,-19 4,-8 8,-4 11,-4 9,-1 9,-1 5,0 11,0 9,0 9,2 11,2 8,5 6,7 0,2z" />
<path style="fill:#666;stroke:#000;stroke-width:2" d="M213,134 l100,0 0,10 -100,0 0,-10z" />
<path style="fill:#999;stroke:#000;stroke-width:2" d="M218,144 l0,5 0,78 1,1 13,2 15,0 8,1 17,0 15,-1 13,-1 7,-1 1,-1 0,-83 -90,0z" />
<path style="fill:none;stroke:#000;stroke-width:2" d="M227,227 l0,-83" />
<path style="fill:none;stroke:#000;stroke-width:2" d="M236,230 l0,-86" />
<path style="fill:none;stroke:#000;stroke-width:2" d="M246,230 l0,-86" />
<path style="fill:none;stroke:#000;stroke-width:2" d="M255,232 l0,-88" />
<path style="fill:none;stroke:#000;stroke-width:2" d="M262,232 l0,-88" />
<path style="fill:none;stroke:#000;stroke-width:2" d="M271,232 l0,-88" />
<path style="fill:none;stroke:#000;stroke-width:2" d="M283,230 l0,-86" />
<path style="fill:none;stroke:#000;stroke-width:2" d="M290,230 l0,-86" />
<path style="fill:none;stroke:#000;stroke-width:2" d="M299,227 l0,-83" />

</svg>
