 

<svg xmlns:agg="http://www.example.com" xmlns="http://www.w3.org/2000/svg" preserveAspectRatio="none" width="1.6083in" height="0.5334in" viewBox="0 0 998 331">

<path style="fill:none;stroke:#000;stroke-width:2" d="M204,216 l-55,-55" />
<path style="fill:none;stroke:#000;stroke-width:2" d="M204,161 l-55,55" />
<path style="fill:none;stroke:#000;stroke-width:2" d="M204,222 l-53,0" />
<path style="fill:none;stroke:#000;stroke-width:2" d="M204,284 l-55,-56" />
<path style="fill:none;stroke:#000;stroke-width:2" d="M204,228 l-55,56" />
<path style="fill:#4c4c4c" d="M189,214 l-130,0 0,79 130,0 0,-79z" />
<path style="fill:#999" d="M166,214 l-59,0 0,-44 59,0 0,44z" />
<path style="fill:#000" d="M182,214 l-44,0 0,-31 44,0 0,31z" />
<path style="fill:#666" d="M119,214 l-57,0 0,-50 57,0 0,50z" />
<path style="fill:#7f7f7f" d="M154,259 l-114,0 0,41 114,0 0,-41z" />
<path style="fill:#fc0;stroke:#000;stroke-width:2" d="M179,88 l-6,0 0,215 6,0 0,-215z" />
<path style="fill:#999;stroke:#000;stroke-width:2" d="M189,88 l-136,0 0,70 136,0 0,-70z" />
<path style="fill:#bf8c00;stroke:#000;stroke-width:2" d="M555,303 l-13,-117 -6,0 12,117 7,0z" />
<path style="fill:#ccc;stroke:#000;stroke-width:2" d="M548,271 l-25,0 0,-6 25,0 0,6z" />
<path style="fill:#fc0;stroke:#000;stroke-width:2" d="M523,303 l13,-117 -10,0 -12,117 9,0z" />
<path style="fill:#bf8c00" d="M192,68 l2,22 -7,-2 -1,-22 6,2z" />
<path style="fill:#bf8c00" d="M216,74 l2,22 -6,-1 -2,-23 6,2z" />
<path style="fill:#bf8c00" d="M241,81 l1,22 -6,-2 -1,-22 6,2z" />
<path style="fill:#bf8c00" d="M265,87 l1,22 -5,-1 -2,-22 6,1z" />
<path style="fill:#bf8c00" d="M289,94 l2,22 -6,-2 -2,-22 6,2z" />
<path style="fill:#bf8c00" d="M314,100 l1,22 -6,-1 -1,-22 6,1z" />
<path style="fill:#bf8c00" d="M338,107 l1,22 -5,-2 -2,-22 6,2z" />
<path style="fill:#bf8c00" d="M362,113 l2,22 -6,-1 -2,-22 6,1z" />
<path style="fill:#bf8c00" d="M387,120 l2,22 -7,-2 -1,-22 6,2z" />
<path style="fill:#bf8c00" d="M411,126 l2,23 -6,-2 -2,-22 6,1z" />
<path style="fill:#bf8c00" d="M436,133 l1,22 -6,-2 -1,-22 6,2z" />
<path style="fill:#bf8c00" d="M460,139 l1,23 -5,-2 -2,-22 6,1z" />
<path style="fill:#bf8c00" d="M484,146 l2,22 -6,-2 -2,-22 6,2z" />
<path style="fill:#bf8c00" d="M509,153 l2,22 -7,-2 -1,-22 6,2z" />
<path style="fill:#bf8c00" d="M533,159 l2,22 -7,-1 -1,-23 6,2z" />
<path style="fill:#bf8c00" d="M557,165 l2,23 -6,-2 -2,-22 6,1z" />
<path style="fill:#bf8c00" d="M582,172 l2,22 -7,-1 -1,-22 6,1z" />
<path style="fill:#bf8c00" d="M606,179 l2,22 -6,-2 -2,-22 6,2z" />
<path style="fill:#bf8c00" d="M631,185 l1,22 -6,-1 -1,-23 6,2z" />
<path style="fill:#bf8c00" d="M655,192 l1,22 -5,-2 -2,-22 6,2z" />
<path style="fill:#bf8c00" d="M679,198 l2,22 -6,-1 -2,-22 6,1z" />
<path style="fill:#bf8c00" d="M704,205 l2,22 -7,-2 -1,-22 6,2z" />
<path style="fill:#bf8c00" d="M728,211 l2,23 -6,-2 -2,-22 6,1z" />
<path style="fill:#bf8c00" d="M752,218 l2,22 -6,-2 -2,-22 6,2z" />
<path style="fill:#bf8c00" d="M777,224 l2,23 -7,-2 -1,-22 6,1z" />
<path style="fill:#bf8c00" d="M801,231 l2,22 -6,-2 -2,-22 6,2z" />
<path style="fill:#bf8c00" d="M825,237 l2,23 -6,-2 -2,-22 6,1z" />
<path style="fill:#bf8c00" d="M850,244 l2,22 -6,-1 -2,-23 6,2z" />
<path style="fill:#bf8c00" d="M874,250 l2,23 -6,-2 -2,-22 6,1z" />
<path style="fill:#bf8c00" d="M899,257 l1,22 -6,-1 -1,-23 6,2z" />
<path style="fill:#bf8c00" d="M923,264 l2,22 -6,-2 -2,-22 6,2z" />
<path style="fill:#bf8c00" d="M947,270 l2,22 -6,-1 -2,-23 6,2z" />
<path style="fill:#999" d="M969,254 l-780,-209 -2,8 780,209 2,-8z" />
<path style="fill:#7f7f7f" d="M966,266 l-780,-209 1,-4 780,209 -1,4z" />
<path style="fill:#fc0" d="M958,295 l-780,-209 -2,8 780,209 2,-8z" />
<path style="fill:#fc0" d="M965,270 l-780,-209 -1,4 780,209 1,-4z" />
<path style="fill:#ccc" d="M970,250 l-780,-209 -1,4 780,209 1,-4z" />
<path style="fill:none;stroke:#000;stroke-width:2" d="M965,270 l-780,-209" />
<path style="fill:none;stroke:#000;stroke-width:2" d="M184,65 l780,209" />
<path style="fill:none;stroke:#000;stroke-width:2" d="M962,282 l-781,-209" />
<path style="fill:none;stroke:#000;stroke-width:2" d="M956,303 l-780,-209" />
<path style="fill:none;stroke:#000;stroke-width:2" d="M958,295 l-780,-209" />
<path style="fill:none;stroke:#000;stroke-width:2" d="M970,250 l-780,-209" />
<path style="fill:none;stroke:#000;stroke-width:2" d="M969,254 l-780,-209" />
<path style="fill:none;stroke:#000;stroke-width:2" d="M966,266 l-780,-209" />
<path style="fill:#e5b200" d="M206,71 l-12,19 -7,-2 13,-18 6,1z" />
<path style="fill:#e5b200" d="M230,78 l-12,18 -6,-1 12,-19 6,2z" />
<path style="fill:#e5b200" d="M255,84 l-13,19 -6,-2 12,-18 7,1z" />
<path style="fill:#e5b200" d="M279,91 l-13,18 -5,-1 12,-19 6,2z" />
<path style="fill:#e5b200" d="M304,97 l-13,19 -6,-2 13,-18 6,1z" />
<path style="fill:#e5b200" d="M328,104 l-13,18 -6,-1 13,-19 6,2z" />
<path style="fill:#e5b200" d="M352,111 l-13,18 -5,-2 12,-18 6,2z" />
<path style="fill:#e5b200" d="M376,117 l-12,18 -6,-1 13,-19 5,2z" />
<path style="fill:#e5b200" d="M401,124 l-12,18 -7,-2 13,-18 6,2z" />
<path style="fill:#e5b200" d="M425,130 l-12,19 -6,-2 12,-18 6,1z" />
<path style="fill:#e5b200" d="M450,137 l-13,18 -6,-2 12,-18 7,2z" />
<path style="fill:#e5b200" d="M474,143 l-13,19 -5,-2 12,-18 6,1z" />
<path style="fill:#e5b200" d="M499,150 l-13,18 -6,-2 13,-18 6,2z" />
<path style="fill:#e5b200" d="M523,156 l-12,19 -7,-2 13,-18 6,1z" />
<path style="fill:#e5b200" d="M547,163 l-12,18 -7,-1 13,-19 6,2z" />
<path style="fill:#e5b200" d="M571,169 l-12,19 -6,-2 13,-18 5,1z" />
<path style="fill:#e5b200" d="M596,176 l-12,18 -7,-1 13,-19 6,2z" />
<path style="fill:#e5b200" d="M620,182 l-12,19 -6,-2 12,-18 6,1z" />
<path style="fill:#e5b200" d="M645,189 l-13,18 -6,-1 13,-19 6,2z" />
<path style="fill:#e5b200" d="M669,195 l-13,19 -5,-2 12,-18 6,1z" />
<path style="fill:#e5b200" d="M694,202 l-13,18 -6,-1 13,-19 6,2z" />
<path style="fill:#e5b200" d="M718,208 l-12,19 -7,-2 13,-18 6,1z" />
<path style="fill:#e5b200" d="M742,215 l-12,19 -6,-2 12,-19 6,2z" />
<path style="fill:#e5b200" d="M767,222 l-13,18 -6,-2 13,-18 6,2z" />
<path style="fill:#e5b200" d="M791,228 l-12,19 -7,-2 13,-19 6,2z" />
<path style="fill:#e5b200" d="M815,235 l-12,18 -6,-2 12,-18 6,2z" />
<path style="fill:#e5b200" d="M840,241 l-13,19 -6,-2 13,-18 6,1z" />
<path style="fill:#e5b200" d="M864,248 l-12,18 -6,-1 12,-19 6,2z" />
<path style="fill:#e5b200" d="M888,254 l-12,19 -6,-2 12,-18 6,1z" />
<path style="fill:#e5b200" d="M913,261 l-13,18 -6,-1 13,-19 6,2z" />
<path style="fill:#e5b200" d="M937,267 l-12,19 -6,-2 12,-18 6,1z" />
<path style="fill:#e5b200" d="M962,274 l-13,18 -6,-1 13,-19 6,2z" />
<path style="fill:#fc0" d="M203,44 l-2,0 -3,4 -4,16 6,1 4,-16 -1,-5z" />
<path style="fill:#fc0" d="M228,51 l-2,-1 -3,4 -5,16 6,2 5,-16 -1,-5z" />
<path style="fill:#fc0" d="M252,57 l-2,0 -3,4 -4,16 6,1 4,-16 -1,-5z" />
<path style="fill:#fc0" d="M277,64 l-3,-1 -3,4 -4,16 6,2 4,-16 0,-5z" />
<path style="fill:#fc0" d="M301,71 l-2,-1 -3,4 -5,16 7,1 4,-16 -1,-4z" />
<path style="fill:#fc0" d="M325,77 l-2,-1 -3,4 -4,16 6,2 4,-16 -1,-5z" />
<path style="fill:#fc0" d="M349,83 l-1,0 -4,4 -4,16 6,1 4,-16 -1,-5z" />
<path style="fill:#fc0" d="M374,90 l-2,0 -3,3 -4,16 6,2 4,-16 -1,-5z" />
<path style="fill:#fc0" d="M398,97 l-2,-1 -3,4 -4,16 6,1 4,-16 -1,-4z" />
<path style="fill:#fc0" d="M423,103 l-2,0 -3,3 -5,16 6,2 5,-16 -1,-5z" />
<path style="fill:#fc0" d="M447,110 l-2,-1 -3,4 -4,16 6,2 4,-16 -1,-5z" />
<path style="fill:#fc0" d="M472,116 l-3,0 -3,3 -4,16 6,2 4,-16 0,-5z" />
<path style="fill:#fc0" d="M496,123 l-2,-1 -3,4 -5,16 7,2 4,-16 -1,-5z" />
<path style="fill:#fc0" d="M520,129 l-2,0 -3,4 -4,16 6,1 4,-16 -1,-5z" />
<path style="fill:#fc0" d="M544,136 l-1,-1 -4,4 -4,16 6,2 4,-16 -1,-5z" />
<path style="fill:#fc0" d="M569,142 l-2,0 -3,4 -4,16 6,1 4,-16 -1,-5z" />
<path style="fill:#fc0" d="M593,149 l-2,-1 -3,4 -4,16 6,2 4,-16 -1,-5z" />
<path style="fill:#fc0" d="M618,155 l-2,0 -3,4 -5,16 6,1 5,-16 -1,-5z" />
<path style="fill:#fc0" d="M642,162 l-2,-1 -3,4 -4,16 6,2 4,-16 -1,-5z" />
<path style="fill:#fc0" d="M667,168 l-3,0 -2,4 -5,16 6,1 4,-16 0,-5z" />
<path style="fill:#fc0" d="M691,175 l-2,-1 -3,4 -4,16 6,2 4,-16 -1,-5z" />
<path style="fill:#fc0" d="M715,182 l-2,-1 -3,4 -4,16 6,1 4,-16 -1,-4z" />
<path style="fill:#fc0" d="M739,188 l-1,-1 -4,4 -4,16 6,2 4,-16 -1,-5z" />
<path style="fill:#fc0" d="M764,195 l-2,-1 -3,4 -4,16 6,1 4,-16 -1,-4z" />
<path style="fill:#fc0" d="M789,201 l-3,0 -3,3 -4,16 6,2 5,-16 -1,-5z" />
<path style="fill:#fc0" d="M813,208 l-2,-1 -3,4 -5,16 6,1 5,-15 -1,-5z" />
<path style="fill:#fc0" d="M837,214 l-2,0 -3,3 -4,16 6,2 4,-16 -1,-5z" />
<path style="fill:#fc0" d="M862,221 l-3,-1 -2,4 -5,16 6,2 4,-17 0,-4z" />
<path style="fill:#fc0" d="M886,227 l-2,0 -3,3 -5,16 7,2 4,-16 -1,-5z" />
<path style="fill:#fc0" d="M910,234 l-2,-1 -3,4 -4,16 6,1 4,-15 -1,-5z" />
<path style="fill:#fc0" d="M934,240 l-1,0 -4,4 -4,16 6,1 5,-16 -2,-5z" />
<path style="fill:#fc0" d="M959,247 l-2,-1 -3,4 -4,16 6,2 4,-16 -1,-5z" />
<path style="fill:#fc0" d="M163,95 l-34,63 -60,0 0,-120 85,0 9,57z" />
<path style="fill:#f7c400" d="M146,126 l-17,32 -60,0 0,-57 77,25z" />
<path style="fill:#edba00" d="M142,134 l-13,24 -60,0 0,-48 73,24z" />
<path style="fill:#e5b200" d="M139,139 l-10,19 -60,0 0,-41 70,22z" />
<path style="fill:none;stroke:#000;stroke-width:2" d="M163,95 l-34,63 -60,0 0,-120 85,0 9,57" />
<path style="fill:#ffd940;stroke:#000;stroke-width:2" d="M195,28 l-20,73 -68,-13 0,-50 88,-10z" />
<path style="fill:#bf8c00" d="M125,164 l-34,88 -22,0 0,-88 56,0z" />
<path style="fill:none;stroke:#000;stroke-width:2" d="M173,221 l-57,-57" />
<path style="fill:none;stroke:#000;stroke-width:2" d="M173,164 l-57,57" />
<path style="fill:none;stroke:#000;stroke-width:2" d="M110,164 l-57,57" />
<path style="fill:none;stroke:#000;stroke-width:2" d="M110,221 l-57,-57" />
<path style="fill:none;stroke:#000;stroke-width:2" d="M173,227 l-120,0" />
<path style="fill:none;stroke:#000;stroke-width:2" d="M173,290 l-57,-57" />
<path style="fill:none;stroke:#000;stroke-width:2" d="M173,233 l-57,57" />
<path style="fill:none;stroke:#000;stroke-width:2" d="M110,233 l-57,57" />
<path style="fill:none;stroke:#000;stroke-width:2" d="M110,290 l-57,-57" />
<path style="fill:#e5b200;stroke:#000;stroke-width:2" d="M53,164 l-6,0 0,139 6,0 0,-139z" />
<path style="fill:#e5b200;stroke:#000;stroke-width:2" d="M116,164 l-6,0 0,139 6,0 0,-139z" />
<path style="fill:#ccc;stroke:#000;stroke-width:2" d="M192,164 l0,-6 -164,0 0,6 164,0z" />
<path style="fill:#ccc;stroke:#000;stroke-width:2" d="M173,259 l0,-7 -126,0 0,7 126,0z" />
<path style="fill:#ccc;stroke:#000;stroke-width:2" d="M192,227 l0,-6 -29,0 0,6 29,0z" />
<path style="fill:#fc0;stroke:#000;stroke-width:2" d="M211,88 l-7,0 0,205 7,0 0,-205z" />
<path style="fill:#ccc;stroke:#000;stroke-width:2" d="M223,161 l0,-6 -31,3 0,6 31,-3z" />
<path style="fill:#ccc;stroke:#000;stroke-width:2" d="M204,255 l0,-6 -31,3 0,7 31,-4z" />
<path style="fill:#ccc;stroke:#000;stroke-width:2" d="M223,224 l0,-6 -31,3 0,6 31,-3z" />
<path style="fill:none;stroke:#000;stroke-width:2" d="M163,158 l0,-57" />
<path style="fill:#fff;stroke:#000;stroke-width:2" d="M223,155 l-34,0 -26,3 29,0 31,-3z" />
<path style="fill:#fff;stroke:#000;stroke-width:2" d="M223,218 l-34,0 -26,3 29,0 31,-3z" />
<path style="fill:#fff;stroke:#000;stroke-width:2" d="M204,249 l-129,0 -28,3 126,0 31,-3z" />

</svg>
