 

<svg xmlns:agg="http://www.example.com" xmlns="http://www.w3.org/2000/svg" preserveAspectRatio="none" width="1.0970in" height="1.0750in" viewBox="0 0 999 979">

<path style="fill:#596d8c;stroke:#000;stroke-width:2" d="M855,903 l0,20 -96,0 0,-20 96,0z" />
<path style="fill:#596d8c;stroke:#000;stroke-width:2" d="M162,903 l0,20 -96,0 0,-20 96,0z" />
<path style="fill:#596d8c;stroke:#000;stroke-width:2" d="M153,143 l0,760 -77,0 0,-683 77,-77z" />
<path style="fill:#596d8c;stroke:#000;stroke-width:2" d="M768,643 l0,39 -307,0 0,-39 307,0z" />
<path style="fill:#596d8c;stroke:#000;stroke-width:2" d="M845,181 l0,722 -77,0 0,-644 77,-78z" />
<path style="fill:#a6bad9;stroke:#000;stroke-width:2" d="M537,37 l0,279 -423,0 0,-279 423,0z" />
<path style="fill:#a6bad9;stroke:#000;stroke-width:2" d="M807,663 l0,38 -346,0 0,-38 346,0z" />
<path style="fill:#a6bad9;stroke:#000;stroke-width:2" d="M114,143 l0,789 -77,0 0,-712 77,-77z" />
<path style="fill:#a6bad9;stroke:#000;stroke-width:2" d="M884,143 l0,808 -77,0 0,-731 77,-77z" />
<path style="fill:#8ca0bf;stroke:#000;stroke-width:2" d="M461,778 l-97,115 -154,0 -96,-115 347,0z" />
<path style="fill:#8ca0bf" d="M884,143 l-19,29 -328,0 0,-29 347,0z" />
<path style="fill:#bfd3f2;stroke:#000;stroke-width:2" d="M961,28 l0,115 -424,0 0,-115 424,0z" />
<path style="fill:#bfd3f2;stroke:#000;stroke-width:2" d="M461,567 l423,-424 -347,0 -423,424 0,211 347,0 0,-211z" />
<path style="fill:#8ca0bf" d="M576,451 l-29,29 -346,0 29,-29 346,0z" />
<path style="fill:#bfd3f2;stroke:#000;stroke-width:2" d="M634,413 l-39,38 -385,0 39,-38 385,0z" />
<path style="fill:#8ca0bf" d="M364,749 l0,10 -154,0 0,-10 154,0z" />
<path style="fill:none;stroke:#000;stroke-width:2" d="M364,595 l0,154 -154,0 0,-154 154,0" />
<path style="fill:#7387a6" d="M537,57 l0,19 -423,0 0,-19 423,0z" />
<path style="fill:#8ca0bf" d="M961,47 l0,19 -424,0 0,-19 424,0z" />
<path style="fill:#bfd3f2;stroke:#000;stroke-width:2" d="M537,37 l0,20 -432,0 0,-20 432,0z" />
<path style="fill:#bfd3f2;stroke:#000;stroke-width:2" d="M970,28 l0,19 -442,0 0,-19 442,0z" />
<path style="fill:#263a59" d="M297,663 l0,19 -20,0 0,-19 20,0z" />
<path style="fill:#263a59" d="M350,691 l9,0 0,10 -9,0 0,-10z" />
<path style="fill:#263a59" d="M350,643 l9,0 0,10 -9,0 0,-10z" />
<path style="fill:#263a59" d="M350,600 l9,0 0,10 -9,0 0,-10z" />
<path style="fill:#263a59" d="M306,600 l10,0 0,10 -10,0 0,-10z" />
<path style="fill:#263a59" d="M258,600 l10,0 0,10 -10,0 0,-10z" />
<path style="fill:#263a59" d="M215,600 l10,0 0,10 -10,0 0,-10z" />
<path style="fill:#263a59" d="M215,643 l10,0 0,10 -10,0 0,-10z" />
<path style="fill:#263a59" d="M215,691 l10,0 0,10 -10,0 0,-10z" />
<path style="fill:#263a59" d="M215,735 l10,0 0,9 -10,0 0,-9z" />
<path style="fill:#263a59" d="M258,735 l10,0 0,9 -10,0 0,-9z" />
<path style="fill:#263a59" d="M306,735 l10,0 0,9 -10,0 0,-9z" />
<path style="fill:#263a59" d="M350,735 l9,0 0,9 -9,0 0,-9z" />
<path style="fill:none;stroke:#263a59;stroke-width:2" d="M230,730 l0,-116 115,0" />
<path style="fill:none;stroke:#fff;stroke-width:2" d="M345,614 l0,116 -115,0" />
<path style="fill:#bfd3f2;stroke:#000;stroke-width:2" d="M893,932 l0,19 -96,0 0,-19 96,0z" />
<path style="fill:#bfd3f2;stroke:#000;stroke-width:2" d="M124,932 l0,19 -96,0 0,-19 96,0z" />
<circle style="fill:#596d8c;stroke:#000;stroke-width:2" cx="287" cy="893" r="43" />
<circle style="fill:#0d2140" cx="287" cy="893" r="29" />

</svg>
