 

<svg xmlns:agg="http://www.example.com" xmlns="http://www.w3.org/2000/svg" preserveAspectRatio="none" width="0.3809in" height="1.0750in" viewBox="0 0 354 999">

<path style="fill:#b2b2b2;stroke:#000;stroke-width:2" d="M128,343 l-6,9 -4,8 -5,10 -2,12 1,14 2,8 3,8 4,8 7,9 -6,0 -12,-2 -12,-5 -12,-6 -12,-8 -13,-10 -6,-5 -7,-6 -6,-7 -7,-6 -7,-7 0,-11 1,-11 1,-9 1,-9 4,-14 6,-12 6,-10 9,-7 9,-6 10,-5 11,-5 12,-4 12,-5 13,-5 14,-7 14,-8 6,-5 8,-5 6,-6 8,-7 3,3 7,6 6,6 6,7 5,7 6,7 6,7 7,6 4,2 -6,5 -14,9 -13,8 -13,9 -12,9 -12,10 -12,9 -13,11 -6,6z" />
<path style="fill:#ccc;stroke:#000;stroke-width:2" d="M128,343 l28,-15 29,-14 29,-14 27,-14 25,-14 21,-14 21,-18 8,-11 2,0 7,-12 1,-4 0,-4 -8,-28 -2,-2 -27,-10 -26,-9 -27,-9 -26,-10 -27,-10 -26,-9 -27,-10 -27,-9 -26,-18 -21,-21 -18,-21 -8,-10 -2,-5 0,4 0,58 11,25 20,24 21,21 24,21 25,19 25,17 25,12 16,22 -7,28 -19,21 -22,21 -14,14 -5,8z" />
<path style="fill:#b2b2b2;stroke:#000;stroke-width:2" d="M128,644 l-6,10 -4,8 -5,10 -2,12 1,14 2,7 3,8 4,9 7,9 -6,0 -12,-3 -12,-4 -12,-6 -12,-8 -13,-10 -6,-6 -7,-6 -6,-6 -7,-6 -7,-7 0,-12 1,-10 1,-9 1,-9 4,-15 6,-12 6,-9 9,-8 9,-6 10,-5 11,-4 12,-5 12,-4 13,-5 14,-7 14,-8 6,-5 8,-5 6,-6 8,-7 3,2 7,6 6,7 6,7 5,7 6,7 6,6 7,6 4,3 -6,4 -14,9 -13,9 -13,9 -12,9 -12,9 -12,10 -13,11 -6,5z" />
<path style="fill:#ccc;stroke:#000;stroke-width:2" d="M128,644 l28,-14 29,-14 29,-14 27,-14 25,-15 21,-14 21,-17 8,-11 2,0 7,-13 1,-3 0,-4 -8,-28 -2,-3 -27,-9 -26,-9 -27,-10 -26,-10 -27,-9 -26,-10 -27,-9 -27,-9 -26,-19 -21,-20 -18,-22 -8,-10 -2,-5 0,5 0,58 11,24 20,24 21,21 24,21 25,20 25,16 25,13 16,21 -7,28 -19,22 -22,21 -14,14 -5,7z" />
<path style="fill:#b2b2b2;stroke:#000;stroke-width:2" d="M128,946 l0,21 0,3 -6,0 -88,0 -6,0 0,-11 1,-11 1,-9 1,-8 4,-15 6,-12 6,-10 9,-7 9,-6 10,-5 11,-5 12,-4 12,-5 13,-5 14,-7 14,-8 6,-4 8,-6 6,-6 8,-7 3,3 7,6 6,7 6,6 5,7 6,7 6,7 7,6 4,2 -6,5 -14,9 -13,9 -13,9 -12,9 -12,9 -12,10 -13,10 -6,6z" />
<path style="fill:#ccc;stroke:#000;stroke-width:2" d="M128,946 l28,-15 29,-14 29,-14 27,-14 25,-14 21,-14 21,-18 8,-10 2,-1 7,-12 1,-4 0,-4 -8,-28 -2,-2 -27,-9 -26,-10 -27,-9 -26,-10 -27,-10 -26,-9 -27,-9 -27,-10 -26,-18 -21,-20 -18,-22 -8,-10 -2,-5 0,4 0,58 11,25 20,24 21,21 24,21 25,19 25,17 25,13 16,21 -7,28 -19,21 -22,22 -14,14 -5,7z" />

</svg>
