 

<svg xmlns:agg="http://www.example.com" xmlns="http://www.w3.org/2000/svg" preserveAspectRatio="none" width="1.6083in" height="0.5329in" viewBox="0 0 999 331">

<path style="fill:#000" d="M949,284 l0,10 -902,0 0,-10 902,0z" />
<path style="fill:#4c4c4c;stroke:#000;stroke-width:2" d="M765,137 l0,-70 -667,0 -27,6 -24,15 -14,23 -5,26 737,0z" />
<path style="fill:#999" d="M39,92 l28,17 -9,17 -28,-17 9,-17z" />
<path style="fill:#999" d="M141,62 l0,36 -21,0 0,-36 21,0z" />
<path style="fill:#999" d="M171,62 l0,36 -21,0 0,-36 21,0z" />
<path style="fill:#999" d="M199,62 l0,36 -19,0 0,-36 19,0z" />
<path style="fill:#999" d="M229,62 l0,36 -20,0 0,-36 20,0z" />
<path style="fill:#999" d="M258,62 l0,36 -19,0 0,-36 19,0z" />
<path style="fill:#999" d="M288,62 l0,36 -19,0 0,-36 19,0z" />
<path style="fill:#999" d="M318,62 l0,36 -21,0 0,-36 21,0z" />
<path style="fill:#999" d="M346,62 l0,36 -19,0 0,-36 19,0z" />
<path style="fill:#999" d="M376,62 l0,36 -20,0 0,-36 20,0z" />
<path style="fill:#999" d="M407,62 l0,36 -21,0 0,-36 21,0z" />
<path style="fill:#999" d="M435,62 l0,36 -19,0 0,-36 19,0z" />
<path style="fill:#999" d="M465,62 l0,36 -21,0 0,-36 21,0z" />
<path style="fill:#999" d="M493,62 l0,36 -19,0 0,-36 19,0z" />
<path style="fill:#999" d="M524,62 l0,36 -19,0 0,-36 19,0z" />
<path style="fill:#999" d="M554,62 l0,36 -21,0 0,-36 21,0z" />
<path style="fill:#999" d="M582,62 l0,36 -19,0 0,-36 19,0z" />
<path style="fill:#999" d="M612,62 l0,36 -21,0 0,-36 21,0z" />
<path style="fill:#999" d="M642,62 l0,36 -20,0 0,-36 20,0z" />
<path style="fill:#999" d="M111,62 l0,36 -19,0 0,-36 19,0z" />
<path style="fill:#999" d="M671,62 l0,36 -19,0 0,-36 19,0z" />
<path style="fill:#999" d="M701,62 l0,36 -21,0 0,-36 21,0z" />
<path style="fill:#999" d="M731,62 l0,36 -21,0 0,-36 21,0z" />
<path style="fill:#999" d="M759,62 l0,36 -19,0 0,-36 19,0z" />
<path style="fill:#999" d="M69,69 l15,29 -17,9 -15,-28 17,-10z" />
<path style="fill:#b2b2b2;stroke:#000;stroke-width:2" d="M765,137 l-718,0 3,-19 12,-17 17,-11 17,-2 669,-2 0,51z" />
<path style="fill:#000" d="M765,98 l0,37 -669,0 0,-37 669,0z" />
<path style="fill:#666;stroke:#000;stroke-width:2" d="M135,137 l-2,-15 -9,-13 -13,-10 -15,-1 -14,1 -13,10 -9,13 -2,15 77,0z" />
<path style="fill:#c90" d="M263,284 l0,10 -196,0 0,-10 196,0z" />
<path style="fill:#fc0" d="M949,186 l0,98 -902,0 0,-98 902,0z" />
<path style="fill:#fc0" d="M263,284 l0,19 -196,0 0,-19 196,0z" />
<path style="fill:#fac700" d="M695,284 l-648,0 0,-98 648,98z" />
<path style="fill:#f2bf00" d="M565,284 l-518,0 0,-79 518,79z" />
<path style="fill:#ebb800" d="M499,284 l-452,0 0,-70 452,70z" />
<path style="fill:#c90" d="M949,186 l0,19 -902,0 0,-19 902,0z" />
<path style="fill:#ffe57f;stroke:#000;stroke-width:2" d="M970,126 l0,60 -942,0 0,-60 942,0z" />
<path style="fill:#ffe066;stroke:#000;stroke-width:2" d="M561,131 l0,49 -62,0 0,-49 62,0z" />
<path style="fill:#ffe066;stroke:#000;stroke-width:2" d="M863,131 l0,49 -94,0 0,-49 94,0z" />
<path style="fill:#ffe066;stroke:#000;stroke-width:2" d="M437,150 l0,25 -66,0 0,-25 66,0z" />
<path style="fill:none;stroke:#000;stroke-width:2" d="M263,284 l0,19 -196,0 0,-19 196,0" />
<path style="fill:#e5b200;stroke:#000;stroke-width:2" d="M184,107 l0,19 -39,0 0,-19 39,0z" />
<path style="fill:#e5b200;stroke:#000;stroke-width:2" d="M518,107 l0,19 -40,0 0,-19 40,0z" />
<path style="fill:#e5b200;stroke:#000;stroke-width:2" d="M420,284 l0,19 -40,0 0,-19 40,0z" />
<path style="fill:#e5b200;stroke:#000;stroke-width:2" d="M931,284 l0,19 -40,0 0,-19 40,0z" />
<path style="fill:#000" d="M818,141 l-4,0 0,-4 4,0 0,4z" />
<path style="fill:#000" d="M778,141 l-4,0 0,-4 4,0 0,4z" />
<path style="fill:#000" d="M778,175 l-4,0 0,-4 4,0 0,4z" />
<path style="fill:#000" d="M818,175 l-4,0 0,-4 4,0 0,4z" />
<path style="fill:#000" d="M857,175 l-6,0 0,-4 6,0 0,4z" />
<path style="fill:#000" d="M857,141 l-6,0 0,-4 6,0 0,4z" />
<path style="fill:#000" d="M508,175 l-3,0 0,-4 3,0 0,4z" />
<path style="fill:#000" d="M508,141 l-3,0 0,-4 3,0 0,4z" />
<path style="fill:#000" d="M557,141 l-3,0 0,-4 3,0 0,4z" />
<path style="fill:#000" d="M557,175 l-3,0 0,-4 3,0 0,4z" />
<path style="fill:#4c4c4c" d="M725,150 l-73,0 0,6 73,0 0,-6z" />
<path style="fill:#fc0" d="M949,43 l0,83 -184,0 0,-83 184,0z" />
<path style="fill:#fac700" d="M949,96 l0,30 -184,0 -2,-59 186,29z" />
<path style="fill:#f2bf00" d="M949,113 l0,13 -184,0 -2,-42 186,29z" />
<path style="fill:#ebb800" d="M949,122 l0,4 -184,0 -2,-32 186,28z" />
<path style="fill:none;stroke:#000;stroke-width:2" d="M949,43 l0,83 -184,0 0,-83 184,0" />
<path style="fill:none;stroke:#000;stroke-width:2" d="M949,186 l0,98 -902,0 0,-98 902,0" />
<path style="fill:#b2b2b2;stroke:#000;stroke-width:2" d="M940,58 l0,58 -79,0 0,-58 79,0z" />
<path style="fill:#7f7f7f" d="M784,107 l0,9 -10,0 0,-9 10,0z" />
<path style="fill:#7f7f7f" d="M936,199 l0,12 -9,0 0,-12 9,0z" />
<path style="fill:#7f7f7f" d="M784,199 l0,12 -10,0 0,-12 10,0z" />
<path style="fill:#7f7f7f" d="M441,199 l0,12 -12,0 0,-12 12,0z" />
<path style="fill:#7f7f7f" d="M77,199 l0,12 -10,0 0,-12 10,0z" />
<path style="fill:#c90;stroke:#000;stroke-width:2" d="M931,43 l0,-10 -147,0 0,10 147,0z" />
<path style="fill:#fc0;stroke:#000;stroke-width:2" d="M940,28 l0,5 -166,0 0,-5 166,0z" />
<ellipse style="fill:#4c4c4c" cx="901" cy="155" rx="29" ry="20" />
<path style="fill:none;stroke:#fff;stroke-width:2" d="M912,167 l4,-5 0,-6 0,-6 -4,-5 -6,-2 -6,-2 -5,2" />
<path style="fill:none;stroke:#fff;stroke-width:2" d="M563,180 l0,-49 -64,0" />
<path style="fill:none;stroke:#fff;stroke-width:2" d="M863,180 l0,-49 -94,0" />
<path style="fill:none;stroke:#fff;stroke-width:2" d="M437,175 l0,-25 -66,0" />
<path style="fill:none;stroke:#fff;stroke-width:2" d="M940,116 l0,-58 -77,0" />
<path style="fill:none;stroke:#000;stroke-width:2" d="M895,143 l-4,2 -4,5 0,6 0,6 4,3 4,4 5,2 6,-2 6,-4" />

</svg>
