 

<svg xmlns:agg="http://www.example.com" xmlns="http://www.w3.org/2000/svg" preserveAspectRatio="none" width="1.6083in" height="0.8549in" viewBox="0 0 999 531">

<path style="fill:#666;stroke:#000;stroke-width:2" d="M222,103 l0,-4 -5,-2 -3,-2 -1,-10 9,-6 6,0 3,2 2,9 -4,7 -5,2 0,4 3,0 8,-6 2,-5 0,-2 0,-4 -4,-7 -6,-4 -3,0 -3,0 -8,4 -4,7 0,4 0,2 6,8 7,3z" />
<path style="fill:#ccc;stroke:#000;stroke-width:2" d="M350,112 l-294,0 0,281 294,0 0,-281z" />
<path style="fill:#b2b2b2;stroke:#000;stroke-width:2" d="M56,112 l-28,44 0,194 28,43 0,-281z" />
<path style="fill:#b2b2b2;stroke:#000;stroke-width:2" d="M139,112 l168,0 0,281 -168,0 0,-281z" />
<path style="fill:#b2b2b2;stroke:#000;stroke-width:2" d="M350,393 l28,-43 0,-194 -28,-44 0,281z" />
<path style="fill:#999;stroke:#000;stroke-width:2" d="M265,329 l-98,0 0,64 98,0 0,-64z" />
<path style="fill:#999;stroke:#000;stroke-width:2" d="M378,226 l27,0 0,54 -27,0 0,-54z" />
<path style="fill:#999;stroke:#000;stroke-width:2" d="M335,378 l-55,0 0,29 55,0 0,-29z" />
<path style="fill:#999;stroke:#000;stroke-width:2" d="M182,378 l-56,0 0,29 56,0 0,-29z" />
<path style="fill:#ccc;stroke:#000;stroke-width:2" d="M293,127 l-139,0 0,14 139,0 0,-14z" />
<path style="fill:#ccc;stroke:#000;stroke-width:2" d="M293,156 l-139,0 0,13 139,0 0,-13z" />
<path style="fill:#ccc;stroke:#000;stroke-width:2" d="M293,99 l-139,0 0,13 139,0 0,-13z" />
<path style="fill:#ccc;stroke:#000;stroke-width:2" d="M293,184 l-139,0 0,13 139,0 0,-13z" />
<path style="fill:#ccc;stroke:#000;stroke-width:2" d="M293,239 l-139,0 0,15 139,0 0,-15z" />
<path style="fill:#ccc;stroke:#000;stroke-width:2" d="M293,267 l-139,0 0,13 139,0 0,-13z" />
<path style="fill:#ccc;stroke:#000;stroke-width:2" d="M293,210 l-139,0 0,16 139,0 0,-16z" />
<path style="fill:#ccc;stroke:#000;stroke-width:2" d="M293,295 l-139,0 0,14 139,0 0,-14z" />
<path style="fill:#ccc;stroke:#000;stroke-width:2" d="M293,324 l-139,0 0,13 139,0 0,-13z" />
<path style="fill:#e5e5e5;stroke:#000;stroke-width:2" d="M821,407 l-699,0 0,77 699,0 0,-77z" />
<path style="fill:#ccc;stroke:#000;stroke-width:2" d="M821,503 l-699,0 0,-19 699,0 0,19z" />
<path style="fill:#ccc" d="M129,478 l0,-47 361,47 -361,0z" />
<path style="fill:#999" d="M407,395 l237,0 47,-53 47,0 0,29 31,0 0,-225 -31,0 0,30 -47,0 -47,-54 -237,0 0,273z" />
<path style="fill:#b2b2b2" d="M407,365 l237,0 47,-41 47,0 0,22 31,0 0,-175 -31,0 0,23 -47,0 -47,-42 -237,0 0,213z" />
<path style="fill:#ccc" d="M407,329 l237,0 47,-26 47,0 0,15 31,0 0,-119 -31,0 0,17 -47,0 -47,-28 -237,0 0,141z" />
<path style="fill:#e5e5e5" d="M407,288 l237,0 47,-11 47,0 0,7 31,0 0,-49 -31,0 0,6 -47,0 -47,-12 -237,0 0,59z" />
<path style="fill:none;stroke:#000;stroke-width:2" d="M407,395 l237,0 47,-53 47,0 0,29 31,0 0,-225 -31,0 0,30 -47,0 -47,-54 -237,0 0,273" />
<path style="fill:none;stroke:#000;stroke-width:2" d="M738,176 l0,166" />
<path style="fill:none;stroke:#000;stroke-width:2" d="M691,342 l0,-166" />
<path style="fill:#fff;stroke:#000;stroke-width:2" d="M644,122 l-47,0 0,273 47,0 0,-273z" />
<path style="fill:#000;stroke:#000;stroke-width:2" d="M644,395 l-237,0 0,6 237,0 0,-6z" />
<path style="fill:#e5e5e5" d="M638,277 l-35,0 0,77 35,0 0,-77z" />
<path style="fill:#ccc" d="M638,389 l-35,0 0,-35 35,0 0,35z" />
<path style="fill:#b2b2b2;stroke:#000;stroke-width:2" d="M578,116 l-5,0 0,285 -142,0 0,6 147,0 0,-291z" />
<path style="fill:#666;stroke:#000;stroke-width:2" d="M763,371 l-6,36 -5,0 -6,-36 17,0z" />
<path style="fill:#d6d6d6;stroke:#000;stroke-width:2" d="M769,371 l113,0 0,-225 -113,0 0,225z" />
<path style="fill:#ebebeb;stroke:#000;stroke-width:2" d="M769,348 l113,0 0,-179 -113,0 0,179z" />
<path style="fill:#fff;stroke:#000;stroke-width:2" d="M769,324 l113,0 0,-130 -113,0 0,130z" />
<circle style="fill:#fff;stroke:#000;stroke-width:2" cx="825" cy="280" r="32" />
<circle style="fill:#fff;stroke:#000;stroke-width:2" cx="824" cy="279" r="16" />
<path style="fill:#fff;stroke:#000;stroke-width:2" d="M904,122 l-22,0 0,273 22,0 0,-273z" />
<path style="fill:#e5e5e5;stroke:#000;stroke-width:2" d="M929,378 l24,0 0,-71 -24,0 0,71z" />
<path style="fill:#e5e5e5;stroke:#000;stroke-width:2" d="M929,210 l24,0 0,-69 -24,0 0,69z" />
<path style="fill:#e5e5e5;stroke:#000;stroke-width:2" d="M948,295 l22,0 0,-71 -22,0 0,71z" />
<path style="fill:#999;stroke:#000;stroke-width:2" d="M904,365 l25,0 0,-47 -25,0 0,47z" />
<path style="fill:#999;stroke:#000;stroke-width:2" d="M904,199 l25,0 0,-49 -25,0 0,49z" />
<path style="fill:#999;stroke:#000;stroke-width:2" d="M904,282 l44,0 0,-47 -44,0 0,47z" />
<path style="fill:#7f7f7f;stroke:#000;stroke-width:2" d="M633,122 l0,-78 -13,-16 -12,16 0,78 25,0z" />
<path style="fill:#b2b2b2;stroke:#000;stroke-width:2" d="M669,75 l-96,0 0,24 96,0 0,-24z" />

</svg>
