 

<svg xmlns:agg="http://www.example.com" xmlns="http://www.w3.org/2000/svg" preserveAspectRatio="none" width="1.6083in" height="0.2962in" viewBox="0 0 999 184">

<path style="fill:#4c4c4c;stroke:#000;stroke-width:2" d="M868,156 l0,-6 -15,-5 0,-10 -9,0 0,10 -15,5 0,6 39,0z" />
<path style="fill:#4c4c4c;stroke:#000;stroke-width:2" d="M520,156 l0,-6 -17,-5 0,-10 -8,0 0,10 -17,5 0,6 42,0z" />
<path style="fill:#4c4c4c;stroke:#000;stroke-width:2" d="M169,156 l0,-6 -15,-5 0,-10 -9,0 0,10 -15,5 0,6 39,0z" />
<path style="fill:#ccc" d="M946,105 l0,-13 -894,0 0,13 894,0z" />
<path style="fill:#666" d="M946,92 l0,-25 -894,0 0,25 894,0z" />
<path style="fill:#b2b2b2;stroke:#000;stroke-width:2" d="M966,86 l-5,-13 -15,-6 -13,6 -6,13 6,15 13,4 15,-4 5,-15z" />
<path style="fill:#b2b2b2;stroke:#000;stroke-width:2" d="M71,86 l-6,-13 -13,-6 -15,6 -5,13 5,15 15,4 13,-4 6,-15z" />
<path style="fill:#b2b2b2" d="M654,96 l0,-19 39,0 0,19 -39,0z" />
<path style="fill:#b2b2b2" d="M305,96 l0,-19 39,0 0,19 -39,0z" />
<path style="fill:none;stroke:#fff;stroke-width:2" d="M946,67 l-894,0" />
<path style="fill:none;stroke:#000;stroke-width:2" d="M946,105 l-894,0" />
<path style="fill:#ccc;stroke:#000;stroke-width:2" d="M966,62 l0,-25 -934,0 0,25 934,0z" />
<path style="fill:none;stroke:#fff;stroke-width:2" d="M965,37 l-933,0" />
<path style="fill:#666" d="M478,50 l0,-5 -5,-2 -6,2 -2,5 2,6 6,2 5,-2 0,-6z" />
<path style="fill:#666" d="M246,50 l-1,-5 -6,-2 -4,2 -4,5 4,6 4,2 6,-2 1,-6z" />
<path style="fill:#666" d="M712,50 l-2,-5 -4,-2 -5,2 -4,5 4,6 5,2 4,-2 2,-6z" />
<path style="fill:#666" d="M946,50 l-2,-5 -6,-2 -5,2 -2,5 2,6 5,2 6,-2 2,-6z" />
<path style="fill:#b2b2b2;stroke:#000;stroke-width:2" d="M86,86 l0,-37 -11,0 0,37 11,0z" />
<path style="fill:#b2b2b2;stroke:#000;stroke-width:2" d="M154,86 l0,-37 -9,0 0,37 9,0z" />
<path style="fill:#b2b2b2;stroke:#000;stroke-width:2" d="M222,86 l0,-37 -10,0 0,37 10,0z" />
<path style="fill:#b2b2b2;stroke:#000;stroke-width:2" d="M320,86 l0,-37 -11,0 0,37 11,0z" />
<path style="fill:#b2b2b2;stroke:#000;stroke-width:2" d="M388,86 l0,-37 -12,0 0,37 12,0z" />
<path style="fill:#b2b2b2;stroke:#000;stroke-width:2" d="M454,86 l0,-37 -8,0 0,37 8,0z" />
<path style="fill:#b2b2b2;stroke:#000;stroke-width:2" d="M552,86 l0,-37 -10,0 0,37 10,0z" />
<path style="fill:#b2b2b2;stroke:#000;stroke-width:2" d="M622,86 l0,-37 -12,0 0,37 12,0z" />
<path style="fill:#b2b2b2;stroke:#000;stroke-width:2" d="M687,86 l0,-37 -9,0 0,37 9,0z" />
<path style="fill:#b2b2b2;stroke:#000;stroke-width:2" d="M786,86 l0,-37 -10,0 0,37 10,0z" />
<path style="fill:#b2b2b2;stroke:#000;stroke-width:2" d="M853,86 l0,-37 -9,0 0,37 9,0z" />
<path style="fill:#b2b2b2;stroke:#000;stroke-width:2" d="M921,86 l0,-37 -9,0 0,37 9,0z" />
<path style="fill:#b2b2b2;stroke:#000;stroke-width:2" d="M28,28 l0,77 9,0 0,-77 -9,0z" />
<path style="fill:#b2b2b2;stroke:#000;stroke-width:2" d="M262,28 l0,77 9,0 0,-77 -9,0z" />
<path style="fill:#b2b2b2;stroke:#000;stroke-width:2" d="M495,28 l0,77 8,0 0,-77 -8,0z" />
<path style="fill:#b2b2b2;stroke:#000;stroke-width:2" d="M727,28 l0,77 9,0 0,-77 -9,0z" />
<path style="fill:#b2b2b2;stroke:#000;stroke-width:2" d="M961,28 l0,77 9,0 0,-77 -9,0z" />
<path style="fill:#b2b2b2;stroke:#000;stroke-width:2" d="M966,135 l0,-24 -934,0 0,24 934,0z" />
<path style="fill:#000" d="M946,105 l0,6 -894,0 0,-6 894,0z" />
<path style="fill:#7f7f7f;stroke:#000;stroke-width:2" d="M32,139 l0,-77 60,0 0,77 -60,0z" />
<path style="fill:#7f7f7f" d="M92,120 l39,11 0,8 95,0 11,-8 0,-60 -11,-9 -95,0 0,9 -39,10 0,39z" />
<path style="fill:#b2b2b2" d="M92,116 l39,6 0,9 95,0 11,-9 0,-43 -11,-8 -95,0 0,8 -39,7 0,30z" />
<path style="fill:#e5e5e5" d="M92,105 l39,4 0,2 95,0 11,-2 0,-15 -11,-2 -95,0 0,2 -39,2 0,9z" />
<path style="fill:none;stroke:#000;stroke-width:2" d="M92,120 l39,11 0,8 95,0 11,-8 0,-60 -11,-9 -95,0 0,9 -39,10 0,39" />
<path style="fill:none;stroke:#000;stroke-width:2" d="M131,131 l0,-60" />
<path style="fill:none;stroke:#000;stroke-width:2" d="M226,139 l0,-77" />
<path style="fill:none;stroke:#000;stroke-width:2" d="M139,139 l0,-77" />
<path style="fill:#000" d="M71,111 l-2,-8 -7,-2 -8,2 -2,8 2,7 8,2 7,-2 2,-7z" />
<path style="fill:#7f5959" d="M43,81 l0,-10 38,0 0,10 -38,0z" />
<path style="fill:#7f7f7f;stroke:#000;stroke-width:2" d="M179,139 l0,-47 39,0 0,47 -39,0z" />
<path style="fill:none;stroke:#fff;stroke-width:2" d="M218,139 l0,-47 -39,0" />
<path style="fill:none;stroke:#fff;stroke-width:2" d="M81,128 l0,-36 -38,0" />
<path style="fill:none;stroke:#fff;stroke-width:2" d="M92,139 l0,-77 -60,0" />
<path style="fill:#000" d="M955,86 l-2,-7 -7,-2 -8,2 -2,7 2,8 8,2 7,-2 2,-8z" />

</svg>
