 

<svg xmlns:agg="http://www.example.com" xmlns="http://www.w3.org/2000/svg" preserveAspectRatio="none" width="0.8135in" height="1.0750in" viewBox="0 0 756 999">

<path style="fill:#033;stroke:#000;stroke-width:2" d="M105,970 l0,-914 30,0 0,914 -30,0z" />
<path style="fill:#033;stroke:#000;stroke-width:2" d="M650,970 l0,-914 -30,0 0,914 30,0z" />
<path style="fill:#7fb2b2;stroke:#000;stroke-width:2" d="M28,37 l0,195 233,738 233,0 234,-738 0,-195 -700,0z" />
<path style="fill:#699" d="M37,232 l224,734 233,0 224,-734 -681,0z" />
<path style="fill:#4c7f7f" d="M105,455 l156,511 233,0 156,-511 -545,0z" />
<path style="fill:#366" d="M173,679 l88,287 233,0 88,-287 -409,0z" />
<path style="fill:#194c4c" d="M251,922 l10,44 233,0 10,-44 -253,0z" />
<path style="fill:#194c4c" d="M76,970 l0,-942 -10,0 0,942 10,0z" />
<path style="fill:#194c4c" d="M679,970 l0,-942 10,0 0,942 -10,0z" />
<path style="fill:#7fb2b2;stroke:#000;stroke-width:2" d="M66,212 l623,0 0,39 -623,0 0,-39z" />
<path style="fill:#194c4c" d="M66,261 l623,0 0,-10 -623,0 0,10z" />
<path style="fill:#7fb2b2;stroke:#000;stroke-width:2" d="M66,435 l623,0 0,39 -623,0 0,-39z" />
<path style="fill:#7fb2b2;stroke:#000;stroke-width:2" d="M66,659 l623,0 0,39 -623,0 0,-39z" />
<path style="fill:#7fb2b2;stroke:#000;stroke-width:2" d="M66,883 l623,0 0,39 -623,0 0,-39z" />
<path style="fill:#194c4c" d="M66,484 l623,0 0,-10 -623,0 0,10z" />
<path style="fill:#194c4c" d="M66,708 l623,0 0,-10 -623,0 0,10z" />
<path style="fill:#194c4c" d="M66,932 l623,0 0,-10 -623,0 0,10z" />
<path style="fill:#7fb2b2;stroke:#000;stroke-width:2" d="M28,970 l0,-942 38,0 0,942 -38,0z" />
<path style="fill:#7fb2b2;stroke:#000;stroke-width:2" d="M728,970 l0,-942 -39,0 0,942 39,0z" />

</svg>
