 

<svg xmlns:agg="http://www.example.com" xmlns="http://www.w3.org/2000/svg" preserveAspectRatio="none" width="1.6053in" height="1.0750in" viewBox="0 0 999 669">

<path style="fill:#999;stroke:#000;stroke-width:2" d="M391,470 l-318,57 0,-409 318,57 0,295z" />
<path style="fill:#ccc;stroke:#000;stroke-width:2" d="M391,187 l-318,0 0,272 318,0 0,-272z" />
<path style="fill:#a6a6a6" d="M73,312 l114,-12 91,-22 33,-57 0,204 -33,-57 -91,-23 -114,-11 0,-22z" />
<path style="fill:#ccc;stroke:#000;stroke-width:2" d="M73,334 l238,0 0,-22 -238,0 0,22z" />
<path style="fill:#b2b2b2;stroke:#000;stroke-width:2" d="M891,618 l0,-454 -69,0 0,454 69,0z" />
<path style="fill:#b2b2b2" d="M391,618 l0,-454 68,0 0,454 -68,0z" />
<path style="fill:#bfbfbf" d="M891,444 l0,-243 -69,0 0,243 69,0z" />
<path style="fill:#bfbfbf" d="M390,444 l0,-243 69,0 0,243 -69,0z" />
<path style="fill:#d9d9d9" d="M891,426 l0,-207 -69,0 0,207 69,0z" />
<path style="fill:#d9d9d9" d="M390,426 l0,-207 69,0 0,207 -69,0z" />
<path style="fill:#e5e5e5" d="M891,370 l0,-95 -69,0 0,95 69,0z" />
<path style="fill:#e5e5e5" d="M390,370 l0,-95 69,0 0,95 -69,0z" />
<path style="fill:none;stroke:#000;stroke-width:2" d="M390,618 l0,-454 69,0 0,454 -69,0" />
<path style="fill:#e5e5e5;stroke:#000;stroke-width:2" d="M879,425 l-46,0 0,57 46,0 0,-57z" />
<path style="fill:#e5e5e5;stroke:#000;stroke-width:2" d="M402,425 l46,0 0,57 -46,0 0,-57z" />
<path style="fill:#7f7f7f;stroke:#000;stroke-width:2" d="M391,505 l45,0 0,90 -45,0 0,-90z" />
<path style="fill:#7f7f7f;stroke:#000;stroke-width:2" d="M890,505 l-46,0 0,90 46,0 0,-90z" />
<path style="fill:#e5e5e5" d="M459,459 l0,-272 364,0 0,272 -364,0z" />
<path style="fill:#ccc" d="M459,459 l114,159 136,0 114,-159 -364,0z" />
<path style="fill:#999;stroke:#000;stroke-width:2" d="M505,141 l45,-91 182,0 45,91 -272,0z" />
<path style="fill:#ccc;stroke:#000;stroke-width:2" d="M459,187 l0,-46 136,0 0,-45 91,0 0,45 137,0 0,46 -364,0z" />
<path style="fill:#7f7f7f" d="M777,641 l-272,0 0,-23 272,0 0,23z" />
<path style="fill:#7f7f7f" d="M777,50 l-272,0 0,-23 272,0 0,23z" />
<path style="fill:#7f7f7f" d="M27,550 l0,-454 46,0 0,454 -46,0z" />
<path style="fill:#a1a1a1" d="M745,641 l-209,0 0,-23 209,0 0,23z" />
<path style="fill:#a1a1a1" d="M745,50 l-209,0 0,-23 209,0 0,23z" />
<path style="fill:#a1a1a1" d="M27,497 l0,-349 46,0 0,349 -46,0z" />
<path style="fill:#c4c4c4" d="M729,641 l-177,0 0,-23 177,0 0,23z" />
<path style="fill:#c4c4c4" d="M27,470 l0,-295 46,0 0,295 -46,0z" />
<path style="fill:#c4c4c4" d="M730,50 l-178,0 0,-23 178,0 0,23z" />
<path style="fill:#e5e5e5" d="M682,50 l-82,0 0,-23 82,0 0,23z" />
<path style="fill:#e5e5e5" d="M27,391 l0,-136 46,0 0,136 -46,0z" />
<path style="fill:#e5e5e5" d="M682,641 l-82,0 0,-23 82,0 0,23z" />
<path style="fill:#7f7f7f;stroke:#000;stroke-width:2" d="M766,448 l0,-91 -28,0 0,80 -23,0 0,-80 -34,0 0,80 -23,0 0,-80 -34,0 0,79 -23,1 0,-80 -33,0 0,80 -23,-1 0,-79 -29,0 0,91 250,0z" />
<path style="fill:#7f7f7f;stroke:#000;stroke-width:2" d="M516,198 l0,136 28,0 0,-136 23,0 0,136 34,0 0,-136 22,0 0,136 35,0 0,-136 23,0 0,136 33,0 0,-136 23,0 0,136 29,0 0,-136 -250,0z" />
<path style="fill:none;stroke:#000;stroke-width:2" d="M573,618 l-114,-159 0,-272 364,0 0,272 -114,159 -136,0" />
<path style="fill:#7f7f7f;stroke:#000;stroke-width:2" d="M891,209 l68,0 12,11 0,205 -12,11 -68,0 0,-227z" />
<path style="fill:#7f7f7f;stroke:#000;stroke-width:2" d="M391,436 l-68,0 -12,-11 0,-205 12,-11 68,0 0,227z" />
<path style="fill:#a1a1a1" d="M891,231 l68,0 12,9 0,165 -12,9 -68,0 0,-183z" />
<path style="fill:#a1a1a1" d="M391,414 l-68,0 -12,-9 0,-165 12,-9 68,0 0,183z" />
<path style="fill:#c4c4c4" d="M891,243 l68,0 12,7 0,146 -12,7 -68,0 0,-160z" />
<path style="fill:#c4c4c4" d="M391,403 l-68,0 -12,-8 0,-145 12,-8 68,0 0,161z" />
<path style="fill:#e5e5e5" d="M891,277 l68,0 12,4 0,83 -12,4 -68,0 0,-91z" />
<path style="fill:#e5e5e5" d="M391,368 l-68,0 -12,-4 0,-82 12,-5 68,0 0,91z" />
<path style="fill:none;stroke:#000;stroke-width:2" d="M777,641 l-272,0 0,-23 272,0 0,23" />
<path style="fill:none;stroke:#000;stroke-width:2" d="M777,50 l-272,0 0,-23 272,0 0,23" />
<path style="fill:none;stroke:#000;stroke-width:2" d="M27,550 l0,-454 46,0 0,454 -46,0" />

</svg>
