 

<svg xmlns:agg="http://www.example.com" xmlns="http://www.w3.org/2000/svg" preserveAspectRatio="none" width="0.4993in" height="1.0750in" viewBox="0 0 464 999">

<path style="fill:#7f7f7f;stroke:#000;stroke-width:2" d="M424,393 l-19,0 0,544 19,3 0,-547z" />
<path style="fill:#7f7f7f;stroke:#000;stroke-width:2" d="M422,465 l-9,-6 -340,445 12,7 337,-446z" />
<path style="fill:#7f7f7f;stroke:#000;stroke-width:2" d="M73,465 l10,-6 339,445 -13,7 -336,-446z" />
<path style="fill:#7f7f7f;stroke:#000;stroke-width:2" d="M413,465 l5,0 -31,458 -6,-2 32,-456z" />
<path style="fill:#e5e5e5;stroke:#000;stroke-width:2" d="M389,479 l-6,0 30,425 7,0 -31,-425z" />
<path style="fill:#7f7f7f;stroke:#000;stroke-width:2" d="M85,393 l-16,0 0,547 16,0 0,-547z" />
<path style="fill:#7f7f7f;stroke:#000;stroke-width:2" d="M85,944 l-24,0 0,-4 24,0 0,4z" />
<path style="fill:#7f7f7f;stroke:#000;stroke-width:2" d="M257,636 l31,-31 103,-194 -17,0 -117,225z" />
<path style="fill:#e5e5e5;stroke:#000;stroke-width:2" d="M28,79 l379,2 29,-27 -371,0 -37,25z" />
<path style="fill:#7f7f7f;stroke:#000;stroke-width:2" d="M32,970 l26,0 0,-4 -26,0 0,4z" />
<path style="fill:#7f7f7f;stroke:#000;stroke-width:2" d="M401,970 l-25,0 0,-4 25,0 0,4z" />
<path style="fill:#7f7f7f;stroke:#000;stroke-width:2" d="M430,944 l-25,0 0,-7 25,0 0,7z" />
<path style="fill:#e5e5e5;stroke:#000;stroke-width:2" d="M34,79 l24,-2 0,-10 -6,-25 -12,0 -6,27 0,10z" />
<ellipse style="fill:#fff;stroke:#000;stroke-width:2" cx="46" cy="56" rx="6" ry="11" />
<path style="fill:#e5e5e5;stroke:#000;stroke-width:2" d="M63,56 l20,0 0,-10 -4,-16 -12,-2 -4,18 0,10z" />
<path style="fill:#fff;stroke:#000;stroke-width:2" d="M71,30 l1,0 7,4 -1,9 0,1 -6,2 -1,0 0,-1 -2,-3 0,-2 0,-8 2,-2z" />
<path style="fill:#e5e5e5;stroke:#000;stroke-width:2" d="M383,77 l24,0 0,-10 -6,-25 -12,0 -6,25 0,10z" />
<ellipse style="fill:#fff;stroke:#000;stroke-width:2" cx="395" cy="55" rx="6" ry="11" />
<path style="fill:#7f7f7f" d="M168,609 l6,0 97,0 -6,10 -5,11 -3,6 -73,0 -4,-10 -7,-10 -5,-7z" />
<path style="fill:#8c8c8c" d="M156,587 l8,0 119,0 -5,9 -6,10 -5,7 -97,0 -5,-10 -5,-10 -4,-6z" />
<path style="fill:#999" d="M145,560 l10,0 141,0 -5,8 -3,7 -4,8 -3,8 -121,0 -5,-8 -3,-8 -4,-7 -3,-8z" />
<path style="fill:#a6a6a6" d="M133,537 l5,0 6,0 5,0 153,0 6,0 -2,4 -4,8 -4,7 -4,7 -2,3 -9,0 -136,0 -5,-10 -6,-11 -2,-4 -1,-4z" />
<path style="fill:#b2b2b2" d="M116,510 l7,0 7,0 6,0 180,0 7,0 -3,4 -5,9 -5,8 -4,10 -2,4 -5,0 -164,0 -4,-9 -4,-9 -6,-9 -2,-4 -3,-4z" />
<path style="fill:#bfbfbf" d="M104,488 l7,0 8,0 7,0 202,0 7,0 -2,4 -5,8 -4,8 -4,9 -2,4 -6,0 -189,0 -5,-8 -4,-9 -5,-8 -2,-4 -3,-4z" />
<path style="fill:#ccc" d="M91,461 l9,0 8,0 8,0 223,0 8,0 -2,5 -5,9 -4,10 -5,9 -2,4 -7,0 -210,0 -5,-9 -5,-9 -5,-10 -3,-4 -3,-5z" />
<path style="fill:#d9d9d9" d="M79,436 l9,0 9,0 9,0 245,0 9,0 -2,6 -5,10 -5,9 -5,10 -2,4 -8,0 -233,0 -5,-9 -5,-10 -5,-9 -3,-5 -3,-6z" />
<path style="fill:#e5e5e5" d="M65,411 l9,0 10,0 10,0 271,0 9,0 -1,3 -13,24 -7,14 -1,3 -9,0 -256,0 -12,-26 -9,-15 -1,-3z" />
<path style="fill:none;stroke:#000;stroke-width:2" d="M65,411 l9,0 10,0 10,0 271,0 9,0 -3,8 -15,28 -15,28 -15,28 -14,28 -15,29 -15,27 -14,28 -8,14 -3,7 -5,0 -68,0 -14,-28 -15,-28 -15,-27 -15,-28 -16,-29 -15,-28 -15,-28 -11,-21 -3,-8" />
<path style="fill:#7f7f7f;stroke:#000;stroke-width:2" d="M436,56 l-29,27 0,341 29,-25 0,-343z" />
<path style="fill:#e5e5e5;stroke:#000;stroke-width:2" d="M391,479 l-8,-4 -337,446 8,6 337,-448z" />
<path style="fill:#e5e5e5;stroke:#000;stroke-width:2" d="M46,479 l8,-4 337,448 -8,4 -337,-448z" />
<path style="fill:#e5e5e5;stroke:#000;stroke-width:2" d="M413,56 l19,0 0,-10 -4,-16 -10,0 -5,16 0,10z" />
<ellipse style="fill:#fff;stroke:#000;stroke-width:2" cx="423" cy="38" rx="5" ry="8" />
<path style="fill:#e5e5e5;stroke:#000;stroke-width:2" d="M40,418 l18,0 0,548 -18,0 0,-548z" />
<path style="fill:#e5e5e5;stroke:#000;stroke-width:2" d="M395,418 l-19,0 0,548 19,0 0,-548z" />
<path style="fill:#e5e5e5;stroke:#000;stroke-width:2" d="M28,77 l379,2 0,345 -379,0 0,-347z" />

</svg>
