 

<svg xmlns:agg="http://www.example.com" xmlns="http://www.w3.org/2000/svg" preserveAspectRatio="none" width="1.6083in" height="0.9917in" viewBox="0 0 999 616">

<path style="fill:#ccc;stroke:#000;stroke-width:2" d="M292,571 l54,-47 128,0 33,47 -215,0z" />
<path style="fill:#ccc;stroke:#000;stroke-width:2" d="M882,571 l-55,-47 -128,0 -32,47 215,0z" />
<path style="fill:#999;stroke:#000;stroke-width:2" d="M450,363 l273,0 0,144 -273,0 0,-144z" />
<path style="fill:#ccc;stroke:#000;stroke-width:2" d="M331,588 l64,-296 383,0 64,296 -128,0 -94,-225 -64,0 -97,225 -128,0z" />
<path style="fill:#999;stroke:#000;stroke-width:2" d="M171,99 l353,0 0,236 -353,0 0,-236z" />
<path style="fill:#ccc" d="M235,35 l703,0 0,257 -703,0 0,-257z" />
<path style="fill:#d9d9d9" d="M275,35 l624,0 0,257 -624,0 0,-257z" />
<path style="fill:#e5e5e5" d="M339,35 l496,0 0,257 -496,0 0,-257z" />
<path style="fill:#f2f2f2" d="M442,35 l289,0 0,257 -289,0 0,-257z" />
<path style="fill:#fff" d="M571,35 l32,0 0,257 -32,0 0,-257z" />
<path style="fill:none;stroke:#000;stroke-width:2" d="M235,35 l703,0 0,257 -703,0 0,-257" />
<path style="fill:#666;stroke:#000;stroke-width:2" d="M235,131 l703,0 0,33 -703,0 0,-33z" />
<path style="fill:#000;stroke:#000;stroke-width:2" d="M235,139 l703,0 0,17 -703,0 0,-17z" />
<path style="fill:#999" d="M235,35 l703,0 0,17 -703,0 0,-17z" />
<path style="fill:#999" d="M235,67 l703,0 0,17 -703,0 0,-17z" />
<path style="fill:#b2b2b2" d="M307,35 l560,0 0,17 -560,0 0,-17z" />
<path style="fill:#b2b2b2" d="M307,67 l560,0 0,17 -560,0 0,-17z" />
<path style="fill:#ccc" d="M474,35 l225,0 0,17 -225,0 0,-17z" />
<path style="fill:#ccc" d="M474,67 l225,0 0,17 -225,0 0,-17z" />
<path style="fill:none;stroke:#000;stroke-width:2" d="M235,35 l703,0 0,17 -703,0 0,-17" />
<path style="fill:none;stroke:#000;stroke-width:2" d="M235,67 l703,0 0,17 -703,0 0,-17" />
<path style="fill:#666;stroke:#000;stroke-width:2" d="M203,35 l767,0 0,-7 -767,0 0,7z" />
<path style="fill:#7f7f7f;stroke:#000;stroke-width:2" d="M299,303 l0,-268 57,0 0,57 -25,15 0,96 25,17 0,72 -57,11z" />
<path style="fill:#b2b2b2;stroke:#000;stroke-width:2" d="M299,303 l-17,-4 0,-264 17,0 0,268z" />
<path style="fill:#7f7f7f;stroke:#000;stroke-width:2" d="M874,303 l0,-268 -55,0 0,57 23,15 0,96 -23,17 0,72 55,11z" />
<path style="fill:#b2b2b2;stroke:#000;stroke-width:2" d="M874,303 l17,-4 0,-264 -17,0 0,268z" />
<path style="fill:none;stroke:#000;stroke-width:2" d="M250,196 l32,0 0,71 -32,0 0,-71" />
<path style="fill:#e5e5e5;stroke:#000;stroke-width:2" d="M267,571 l257,0 0,17 -257,0 0,-17z" />
<path style="fill:#e5e5e5;stroke:#000;stroke-width:2" d="M650,571 l256,0 0,17 -256,0 0,-17z" />
<path style="fill:#e5e5e5" d="M442,348 l-47,215 25,0 71,-215 -49,0z" />
<path style="fill:#e5e5e5" d="M731,348 l47,215 -23,0 -73,-215 49,0z" />
<path style="fill:#4c4c4c;stroke:#000;stroke-width:2" d="M131,324 l15,0 0,-208 -15,0 0,208z" />
<path style="fill:#e5e5e5;stroke:#000;stroke-width:2" d="M131,67 l-103,0 0,296 103,0 0,-296z" />
<path style="fill:#b2b2b2;stroke:#000;stroke-width:2" d="M131,116 l-103,0 0,200 103,0 0,-200z" />
<path style="fill:#ccc;stroke:#000;stroke-width:2" d="M171,363 l-25,0 0,-296 25,0 0,296z" />
<path style="fill:#e5e5e5;stroke:#000;stroke-width:2" d="M50,260 l96,0 0,39 -96,0 0,-39z" />
<path style="fill:#e5e5e5;stroke:#000;stroke-width:2" d="M50,131 l96,0 0,40 -96,0 0,-40z" />

</svg>
