 

<svg xmlns:agg="http://www.example.com" xmlns="http://www.w3.org/2000/svg" preserveAspectRatio="none" width="1.6083in" height="0.8179in" viewBox="0 0 999 508">

<path style="fill:#009" d="M48,460 l0,-20 902,0 0,20 -902,0z" />
<path style="fill:#00c;stroke:#000;stroke-width:2" d="M824,420 l-703,0 0,-157 0,-9 7,-29 12,-25 18,-22 24,-17 26,-11 487,-114 26,-7 5,-1 5,0 4,0 31,4 30,13 26,20 18,19 16,23 13,25 10,28 8,30 4,32 0,11 1,11 -1,13 -4,38 -9,37 -14,34 -18,30 -14,17 -8,7z" />
<path style="fill:#0000e5;stroke:#000;stroke-width:2" d="M87,421 l0,-59 461,0 0,59 -461,0z" />
<path style="fill:#00f;stroke:#000;stroke-width:2" d="M28,480 l0,-20 942,0 0,20 -942,0z" />
<path style="fill:#00f;stroke:#000;stroke-width:2" d="M28,440 l0,-20 942,0 0,20 -942,0z" />
<path style="fill:#00f;stroke:#000;stroke-width:2" d="M828,180 l64,-44 9,15 -73,49 0,-20z" />
<path style="fill:#00f;stroke:#000;stroke-width:2" d="M813,308 l15,0 0,-40 15,0 0,54 -30,0 0,-14z" />
<path style="fill:#00f;stroke:#000;stroke-width:2" d="M843,401 l59,0 0,-20 -59,0 0,20z" />
<path style="fill:#009;stroke:#000;stroke-width:2" d="M568,362 l255,0 0,34 -255,0 0,-34z" />
<path style="fill:#00f;stroke:#000;stroke-width:2" d="M548,352 l0,68 295,0 0,-68 -20,0 0,49 -255,0 0,-49 -20,0z" />
<path style="fill:#00f;stroke:#000;stroke-width:2" d="M539,174 l-6,-14 6,-13 14,-6 275,0 0,19 -255,0 -6,14 -14,6 -14,-6z" />
<path style="fill:#009" d="M546,167 l-3,-7 3,-7 7,-2 7,2 3,7 -3,7 -7,3 -7,-3z" />
<path style="fill:#0000e5;stroke:#000;stroke-width:2" d="M813,282 l15,0 0,-37 -15,0 0,37z" />
<path style="fill:#0000e5;stroke:#000;stroke-width:2" d="M813,212 l15,0 0,-38 -15,0 0,38z" />
<path style="fill:#0000e5;stroke:#000;stroke-width:2" d="M578,352 l0,-187 235,0 0,187 -235,0z" />
<path style="fill:#00f;stroke:#000;stroke-width:2" d="M656,195 l79,0 0,-20 -79,0 0,20z" />
<path style="fill:none;stroke:#ababff;stroke-width:2" d="M539,174 l-6,-14 6,-13 14,-6 275,0" />
<path style="fill:none;stroke:#ababff;stroke-width:2" d="M656,195 l0,-20 79,0" />
<path style="fill:none;stroke:#ababff;stroke-width:2" d="M578,352 l0,-187 235,0" />
<path style="fill:none;stroke:#ababff;stroke-width:2" d="M87,420 l0,-58 461,0" />
<path style="fill:#000" d="M146,416 l157,0 0,4 -157,0 0,-4z" />
<path style="fill:#ff7f00;stroke:#000;stroke-width:2" d="M146,416 l0,-216 117,0 0,-25 40,0 0,241 -157,0z" />
<path style="fill:#333" d="M224,347 l25,0 0,-79 -25,0 0,79z" />
<path style="fill:#333" d="M181,322 l-6,-15 6,-14 14,-5 14,5 6,14 -6,15 -14,5 -14,-5z" />
<path style="fill:none;stroke:#fff;stroke-width:2" d="M181,322 l-6,-15 6,-14 14,-5 14,5" />
<path style="fill:none;stroke:#fff;stroke-width:2" d="M146,415 l0,-215 157,0" />
<path style="fill:none;stroke:#fff;stroke-width:2" d="M263,200 l0,-25 40,0" />
<path style="fill:#00f;stroke:#000;stroke-width:2" d="M568,361 l255,0 0,-9 -255,0 0,9z" />
<path style="fill:#00c;stroke:#000;stroke-width:2" d="M774,386 l29,0 0,15 -29,0 0,-15z" />
<path style="fill:#00c;stroke:#000;stroke-width:2" d="M681,386 l29,0 0,15 -29,0 0,-15z" />
<path style="fill:#00c;stroke:#000;stroke-width:2" d="M774,386 l29,0 0,15 -29,0 0,-15z" />
<path style="fill:#00c;stroke:#000;stroke-width:2" d="M681,386 l29,0 0,15 -29,0 0,-15z" />
<path style="fill:#00c;stroke:#000;stroke-width:2" d="M587,386 l30,0 0,15 -30,0 0,-15z" />
<path style="fill:#7f7fff" d="M784,386 l10,0 0,15 -10,0 0,-15z" />
<path style="fill:#7f7fff" d="M690,386 l10,0 0,15 -10,0 0,-15z" />
<path style="fill:#7f7fff" d="M597,386 l10,0 0,15 -10,0 0,-15z" />

</svg>
