 

<svg xmlns:agg="http://www.example.com" xmlns="http://www.w3.org/2000/svg" preserveAspectRatio="none" width="0.7791in" height="1.0750in" viewBox="0 0 724 999">

<path style="fill:#a6a6a6;stroke:#000;stroke-width:2" d="M160,676 l25,0 0,83 -25,0 0,-83z" />
<path style="fill:#4c4c4c;stroke:#000;stroke-width:2" d="M146,715 l18,0 15,0 12,-2 12,-2 12,-3 13,-5 7,-4 9,-4 9,-4 10,-5 0,19 -8,5 -9,6 -12,4 -13,5 -15,4 -9,2 -9,1 -9,1 -11,1 -11,0 -11,0 0,-19z" />
<path style="fill:#4c4c4c;stroke:#000;stroke-width:2" d="M97,676 l29,0 0,113 -29,0 0,-113z" />
<path style="fill:#666;stroke:#000;stroke-width:2" d="M92,391 l9,-49 35,19 -5,30 -39,0z" />
<path style="fill:#7f7f7f;stroke:#000;stroke-width:2" d="M111,317 l43,25 -15,26 -42,-25 14,-26z" />
<path style="fill:#7f7f7f;stroke:#000;stroke-width:2" d="M87,391 l49,0 0,29 -49,0 0,-29z" />
<path style="fill:#7f7f7f;stroke:#000;stroke-width:2" d="M116,676 l30,0 0,152 -30,0 0,-152z" />
<path style="fill:#d9d9d9" d="M124,325 l17,10 -15,25 -17,-10 15,-25z" />
<path style="fill:#d9d9d9" d="M102,391 l19,0 0,29 -19,0 0,-29z" />
<path style="fill:#d9d9d9" d="M126,676 l10,0 0,152 -10,0 0,-152z" />
<path style="fill:#ccc;stroke:#000;stroke-width:2" d="M67,656 l157,0 0,20 -157,0 0,-20z" />
<path style="fill:#e5e5e5" d="M87,656 l118,0 0,20 -118,0 0,-20z" />
<path style="fill:#fff" d="M126,656 l39,0 0,20 -39,0 0,-20z" />
<path style="fill:#4c4c4c;stroke:#000;stroke-width:2" d="M67,460 l157,0 0,196 -157,0 0,-196z" />
<path style="fill:#7f7f7f" d="M87,460 l118,0 0,196 -118,0 0,-196z" />
<path style="fill:#999" d="M126,460 l39,0 0,196 -39,0 0,-196z" />
<path style="fill:#ccc;stroke:#000;stroke-width:2" d="M263,460 l-196,0 0,-40 118,0 0,-59 -137,-78 0,-59 215,0 0,236z" />
<path style="fill:#a6a6a6;stroke:#000;stroke-width:2" d="M200,381 l0,-39 19,0 0,39 -19,0z" />
<path style="fill:#666" d="M185,936 l59,0 0,14 -59,0 0,-14z" />
<path style="fill:#666" d="M607,936 l59,0 0,14 -59,0 0,-14z" />
<path style="fill:#e5e5e5;stroke:#000;stroke-width:2" d="M28,106 l667,0 0,830 -530,0 0,-44 98,0 0,-668 -235,0 0,-118z" />
<path style="fill:#e5e5e5;stroke:#000;stroke-width:2" d="M578,950 l117,0 0,20 -117,0 0,-20z" />
<path style="fill:#e5e5e5;stroke:#000;stroke-width:2" d="M165,950 l98,0 0,20 -98,0 0,-20z" />
<path style="fill:#4c4c4c;stroke:#000;stroke-width:2" d="M106,106 l511,0 0,-78 -511,0 0,78z" />
<path style="fill:none;stroke:#7f7f7f;stroke-width:2" d="M303,892 l353,0 0,-295" />
<path style="fill:none;stroke:#7f7f7f;stroke-width:2" d="M303,558 l353,0 0,-294" />
<path style="fill:none;stroke:#fff;stroke-width:2" d="M303,892 l0,-295 353,0" />
<path style="fill:none;stroke:#fff;stroke-width:2" d="M303,558 l0,-294 353,0" />
<path style="fill:#333;stroke:#000;stroke-width:2" d="M361,342 l236,0 0,137 -236,0 0,-137z" />
<circle style="fill:none;stroke:#7f7f7f;stroke-width:2" cx="410" cy="410" r="19" />
<circle style="fill:#bf0000" cx="410" cy="410" r="9" />
<circle style="fill:none;stroke:#fff;stroke-width:2" cx="489" cy="391" r="9" />
<circle style="fill:none;stroke:#fff;stroke-width:2" cx="538" cy="391" r="9" />
<path style="fill:#ccc" d="M450,450 l30,0 0,10 -30,0 0,-10z" />
<path style="fill:#ccc" d="M519,450 l29,0 0,10 -29,0 0,-10z" />
<circle style="fill:#4c4c4c;stroke:#000;stroke-width:2" cx="391" cy="646" r="29" />
<circle style="fill:#fff" cx="391" cy="646" r="20" />
<circle style="fill:#000" cx="391" cy="646" r="15" />
<path style="fill:#4c4c4c;stroke:#000;stroke-width:2" d="M342,735 l93,0 0,117 -93,0 0,-117z" />
<path style="fill:none;stroke:#fff;stroke-width:2" d="M352,843 l5,-30 63,0 5,30" />
<path style="fill:#7f7f7f;stroke:#000;stroke-width:2" d="M430,769 l-19,-69 49,0 -15,69 -15,0z" />
<path style="fill:none;stroke:#fff;stroke-width:2" d="M440,764 l5,-59" />
<path style="fill:none;stroke:#000;stroke-width:2" d="M263,892 l0,19" />
<path style="fill:#000" d="M538,224 l118,0 0,5 -118,0 0,-5z" />
<path style="fill:#000" d="M268,224 l231,0 0,5 -231,0 0,-5z" />
<path style="fill:#bfbfbf" d="M180,298 l59,0 0,44 -59,0 0,-44z" />
<path style="fill:#8c8c8c" d="M180,332 l59,0 0,10 -59,0 0,-10z" />
<path style="fill:#fff" d="M180,307 l59,0 0,10 -59,0 0,-10z" />
<path style="fill:none;stroke:#000;stroke-width:2" d="M180,298 l59,0 0,44 -59,0 0,-44" />
<ellipse style="fill:#7f7f7f;stroke:#000;stroke-width:2" cx="180" cy="320" rx="5" ry="22" />
<circle style="fill:#7f7f7f;stroke:#000;stroke-width:2" cx="209" cy="391" r="14" />
<path style="fill:#7f7f7f;stroke:#000;stroke-width:2" d="M199,744 l0,-358 20,0 0,358 -20,0z" />
<path style="fill:#7f7f7f;stroke:#000;stroke-width:2" d="M195,793 l49,0 0,-29 -20,0 0,-20 -29,0 0,49z" />
<path style="fill:#7f7f7f;stroke:#000;stroke-width:2" d="M244,769 l206,0 0,20 -206,0 0,-20z" />
<path style="fill:#e5e5e5" d="M206,744 l0,-358 6,0 0,358 -6,0z" />
<path style="fill:#e5e5e5" d="M244,774 l-30,0 0,-30 -9,0 0,40 39,0 0,-10z" />
<path style="fill:#e5e5e5" d="M244,775 l206,0 0,7 -206,0 0,-7z" />
<circle style="fill:#bfbfbf;stroke:#000;stroke-width:2" cx="386" cy="778" r="29" />

</svg>
