 

<svg xmlns:agg="http://www.example.com" xmlns="http://www.w3.org/2000/svg" preserveAspectRatio="none" width="1.0481in" height="1.0750in" viewBox="0 0 974 999">

<path style="fill:#7f7f7f;stroke:#000;stroke-width:2" d="M702,627 l0,314 -17,0 -16,-314 33,0z" />
<path style="fill:#7f7f7f;stroke:#000;stroke-width:2" d="M140,627 l0,314 16,0 17,-314 -33,0z" />
<path style="fill:#d9d9d4;stroke:#000;stroke-width:2" d="M754,587 l167,0 0,25 -167,0 0,-25z" />
<path style="fill:#bfbfbf;stroke:#000;stroke-width:2" d="M754,204 l118,0 0,15 -118,0 0,-15z" />
<path style="fill:#d9d9d4" d="M67,568 l707,0 -20,-383 -667,0 -20,383z" />
<path style="fill:#e0e0db" d="M71,489 l698,0 -15,-304 -667,0 -16,304z" />
<path style="fill:#ebebe6" d="M75,420 l691,0 -12,-235 -667,0 -12,235z" />
<path style="fill:#b2b2b2;stroke:#000;stroke-width:2" d="M67,568 l707,0 0,29 -707,0 0,-29z" />
<path style="fill:#bfbfbf" d="M87,597 l255,196 157,0 255,-196 -667,0z" />
<path style="fill:#ccc;stroke:#000;stroke-width:2" d="M342,793 l-20,40 197,0 -20,-40 -157,0z" />
<path style="fill:#b2b2b2" d="M165,656 l177,137 157,0 177,-137 -511,0z" />
<path style="fill:#a6a6a6" d="M263,735 l79,58 157,0 79,-58 -315,0z" />
<path style="fill:none;stroke:#000;stroke-width:2" d="M87,597 l255,196 157,0 255,-196 -667,0" />
<path style="fill:#bfbfbf;stroke:#000;stroke-width:2" d="M754,597 l0,373 -19,0 -20,-373 39,0z" />
<path style="fill:#bfbfbf;stroke:#000;stroke-width:2" d="M87,597 l0,373 19,0 20,-373 -39,0z" />
<path style="fill:#000;stroke:#000;stroke-width:2" d="M87,568 l667,0 0,10 -667,0 0,-10z" />
<path style="fill:#f2f2ed" d="M79,332 l682,0 -7,-147 -667,0 -8,147z" />
<path style="fill:none;stroke:#000;stroke-width:2" d="M67,568 l707,0 -20,-383 -667,0 -20,383" />
<path style="fill:#e5e5e5;stroke:#000;stroke-width:2" d="M87,28 l667,0 0,88 -667,0 0,-88z" />
<path style="fill:#bfbfbf;stroke:#000;stroke-width:2" d="M87,151 l667,0 0,-35 -667,0 0,35z" />
<path style="fill:#d9d9d9;stroke:#000;stroke-width:2" d="M87,151 l667,0 0,34 -667,0 0,-34z" />
<path style="fill:#f2f2ed;stroke:#000;stroke-width:2" d="M28,101 l864,0 0,15 -864,0 0,-15z" />
<path style="fill:#d9d9d9;stroke:#000;stroke-width:2" d="M774,87 l0,39 19,5 0,24 35,0 0,-24 19,-5 0,-39 -73,0z" />
<path style="fill:#e5e5e5;stroke:#000;stroke-width:2" d="M803,155 l15,0 0,457 -15,0 0,-457z" />
<path style="fill:#bfbfb2;stroke:#000;stroke-width:2" d="M754,612 l172,0 0,162 -172,0 0,-162z" />
<path style="fill:#666;stroke:#000;stroke-width:2" d="M813,632 l39,0 0,122 -39,0 0,-122z" />
<path style="fill:#d9d9d9;stroke:#000;stroke-width:2" d="M892,92 l44,0 0,88 -44,0 0,-88z" />
<path style="fill:#e5e5e5;stroke:#000;stroke-width:2" d="M872,200 l30,0 0,-20 24,0 0,44 -54,0 0,-24z" />
<path style="fill:#a6a6a6;stroke:#000;stroke-width:2" d="M926,632 l20,0 0,44 -20,0 0,-44z" />
<path style="fill:#a6a6a6;stroke:#000;stroke-width:2" d="M926,710 l20,0 0,44 -20,0 0,-44z" />
<path style="fill:#a6a6a6;stroke:#000;stroke-width:2" d="M798,774 l30,0 0,39 -30,0 0,-39z" />

</svg>
