 

<svg xmlns:agg="http://www.example.com" xmlns="http://www.w3.org/2000/svg" preserveAspectRatio="none" width="0.4664in" height="1.0750in" viewBox="0 0 433 998">

<path style="fill:#7387a6" d="M404,782 l0,-566 -376,0 0,566 376,0z" />
<path style="fill:#263a59;stroke:#000;stroke-width:2" d="M28,782 l377,0 0,188 -377,0 0,-188z" />
<path style="fill:#6b7f9e" d="M405,782 l0,-236 -377,-126 0,362 377,0z" />
<path style="fill:#617594" d="M405,782 l0,-173 -377,-126 0,299 377,0z" />
<path style="fill:#596d8c" d="M405,782 l0,-141 -377,-126 0,267 377,0z" />
<path style="fill:none;stroke:#000;stroke-width:2" d="M404,782 l0,-566 -376,0 0,566 376,0" />
<path style="fill:none;stroke:#7387a6;stroke-width:2" d="M28,970 l377,0 0,-188" />
<path style="fill:none;stroke:#bfd3f2;stroke-width:2" d="M404,782 l0,-566 -376,0" />
<path style="fill:#ff0;stroke:#000;stroke-width:2" d="M28,216 l377,0 0,-188 -377,0 0,188z" />
<path style="fill:#000" d="M405,216 l-96,0 96,-94 0,94z" />
<path style="fill:#000" d="M311,122 l-95,94 -95,0 95,-94 95,0z" />
<path style="fill:#000" d="M122,122 l-94,94 0,-94 94,0z" />
<path style="fill:#000" d="M405,122 l-96,0 96,-94 0,94z" />
<path style="fill:#000" d="M311,28 l-95,94 -95,0 95,-94 95,0z" />
<path style="fill:#000" d="M122,28 l-94,94 0,-94 94,0z" />
<path style="fill:#ccc" d="M43,797 l346,0 0,140 -346,0 0,-140z" />
<path style="fill:#e5e5e5" d="M161,797 l-118,0 0,40 228,102 118,0 0,-40 -228,-102z" />
<path style="fill:#fff" d="M91,797 l-48,0 0,8 299,134 47,0 0,-7 -298,-135z" />
<path style="fill:none;stroke:#000;stroke-width:2" d="M43,797 l346,0 0,140 -346,0 0,-140" />
<path style="fill:none;stroke:#fff;stroke-width:2" d="M389,937 l0,-140 -346,0" />

</svg>
