 

<svg xmlns:agg="http://www.example.com" xmlns="http://www.w3.org/2000/svg" preserveAspectRatio="none" width="1.1673in" height="1.0750in" viewBox="0 0 999 920">

<path style="fill:#a6a6a6;stroke:#000;stroke-width:2" d="M87,351 l824,0 0,99 -824,0 0,-99z" />
<path style="fill:#ccc" d="M87,365 l824,0 0,71 -824,0 0,-71z" />
<path style="fill:#f2f2f2" d="M87,391 l824,0 0,19 -824,0 0,-19z" />
<path style="fill:#2b2b7f" d="M911,146 l59,0 0,510 -59,0 0,-510z" />
<path style="fill:#2b2b7f" d="M28,146 l59,0 0,510 -59,0 0,-510z" />
<path style="fill:#404094" d="M911,181 l59,0 0,439 -59,0 0,-439z" />
<path style="fill:#404094" d="M28,181 l59,0 0,439 -59,0 0,-439z" />
<path style="fill:#5757ab" d="M911,217 l59,0 0,367 -59,0 0,-367z" />
<path style="fill:#5757ab" d="M28,217 l59,0 0,367 -59,0 0,-367z" />
<path style="fill:#6b6bbf" d="M911,234 l59,0 0,333 -59,0 0,-333z" />
<path style="fill:#6b6bbf" d="M28,234 l59,0 0,333 -59,0 0,-333z" />
<path style="fill:#8080d4" d="M911,249 l59,0 0,303 -59,0 0,-303z" />
<path style="fill:#8080d4" d="M28,249 l59,0 0,303 -59,0 0,-303z" />
<path style="fill:#9797eb" d="M911,298 l59,0 0,205 -59,0 0,-205z" />
<path style="fill:#9797eb" d="M28,298 l59,0 0,205 -59,0 0,-205z" />
<path style="fill:#ababff" d="M911,361 l59,0 0,79 -59,0 0,-79z" />
<path style="fill:#ababff" d="M28,361 l59,0 0,79 -59,0 0,-79z" />
<path style="fill:#2b2b7f" d="M165,146 l59,-99 550,0 59,99 -668,0z" />
<path style="fill:#7878cc" d="M244,146 l0,-99 20,0 0,99 -20,0z" />
<path style="fill:#7878cc" d="M734,146 l0,-99 20,0 0,99 -20,0z" />
<path style="fill:#7878cc" d="M489,146 l0,-99 20,0 0,99 -20,0z" />
<path style="fill:#454599;stroke:#000;stroke-width:2" d="M205,47 l0,-19 589,0 0,19 -589,0z" />
<path style="fill:#454599;stroke:#000;stroke-width:2" d="M67,892 l0,-20 98,0 0,-334 -39,0 0,-392 746,0 0,392 -39,0 0,334 98,0 0,20 -864,0z" />
<path style="fill:none;stroke:#7878cc;stroke-width:2" d="M205,872 l0,-648 589,0" />
<path style="fill:none;stroke:#7878cc;stroke-width:2" d="M244,406 l511,0" />
<path style="fill:none;stroke:#000;stroke-width:2" d="M244,396 l510,0" />
<path style="fill:none;stroke:#000;stroke-width:2" d="M165,538 l0,-59 40,0 0,-59 39,0" />
<path style="fill:none;stroke:#000;stroke-width:2" d="M833,538 l0,-59 -39,0 0,-59 -40,0" />
<path style="fill:none;stroke:#000;stroke-width:2" d="M794,872 l0,-648" />
<path style="fill:#7878cc" d="M794,440 l39,0 0,39 -39,0 0,-39z" />
<path style="fill:#7878cc" d="M754,381 l40,0 0,39 -40,0 0,-39z" />
<path style="fill:#7878cc" d="M205,381 l39,0 0,39 -39,0 0,-39z" />
<path style="fill:#7878cc" d="M165,440 l40,0 0,39 -40,0 0,-39z" />
<path style="fill:none;stroke:#000;stroke-width:2" d="M911,146 l59,0 0,510 -59,0 0,-510" />
<path style="fill:none;stroke:#000;stroke-width:2" d="M28,146 l59,0 0,510 -59,0 0,-510" />
<path style="fill:#7f7f7f;stroke:#000;stroke-width:2" d="M686,594 l-84,0 0,-21 84,0 4,-8 18,-8 19,8 8,19 -8,18 -19,8 -18,-8 -4,-8z" />
<path style="fill:#7f7f7f;stroke:#000;stroke-width:2" d="M670,292 l0,84 -21,0 0,-84 -8,-3 -8,-19 8,-19 18,-7 19,7 8,19 -8,19 -8,3z" />
<path style="fill:#7f7f7f;stroke:#000;stroke-width:2" d="M354,292 l0,84 -21,0 0,-84 -8,-3 -8,-19 8,-19 19,-7 19,7 7,19 -7,19 -9,3z" />
<path style="fill:#7f7f7f;stroke:#000;stroke-width:2" d="M312,573 l84,0 0,22 -84,0 -4,8 -18,7 -19,-7 -8,-19 8,-19 19,-7 18,7 4,8z" />
<path style="fill:#b2b2b2" d="M305,600 l-15,6 -16,-6 -7,-16 7,-16 16,-6 15,6 7,16 -7,16z" />
<path style="fill:#b2b2b2" d="M693,568 l15,-7 16,7 7,16 -7,16 -16,6 -15,-6 -7,-16 7,-16z" />
<path style="fill:#b2b2b2" d="M328,286 l-6,-16 6,-16 16,-6 16,6 6,16 -6,16 -16,6 -16,-6z" />
<path style="fill:#b2b2b2" d="M644,286 l-7,-16 7,-16 15,-6 16,6 7,16 -7,16 -16,6 -15,-6z" />
<path style="fill:#b2b2b2" d="M689,577 l0,13 -87,0 0,-13 87,0z" />
<path style="fill:#b2b2b2" d="M653,289 l13,0 0,87 -13,0 0,-87z" />
<path style="fill:#b2b2b2" d="M337,289 l14,0 0,87 -14,0 0,-87z" />
<path style="fill:#b2b2b2" d="M309,590 l0,-12 87,0 0,12 -87,0z" />
<path style="fill:#e5e5e5" d="M683,581 l0,5 -81,0 0,-5 81,0z" />
<path style="fill:#e5e5e5" d="M657,295 l5,0 0,81 -5,0 0,-81z" />
<path style="fill:#e5e5e5" d="M341,295 l6,0 0,81 -6,0 0,-81z" />
<path style="fill:#e5e5e5" d="M315,587 l0,-6 81,0 0,6 -81,0z" />
<path style="fill:#333" d="M697,573 l11,-5 12,5 4,11 -4,11 -12,5 -11,-5 -4,-11 4,-11z" />
<path style="fill:#333" d="M648,281 l-4,-11 4,-11 11,-5 12,5 4,11 -4,11 -12,5 -11,-5z" />
<path style="fill:#333" d="M333,281 l-5,-11 5,-11 11,-5 11,5 5,11 -5,11 -11,5 -11,-5z" />
<path style="fill:#333" d="M301,595 l-11,5 -12,-5 -4,-11 4,-11 12,-5 11,5 4,11 -4,11z" />
<path style="fill:none;stroke:#000;stroke-width:2" d="M67,146 l0,510" />
<path style="fill:none;stroke:#000;stroke-width:2" d="M48,146 l0,510" />

</svg>
