 

<svg xmlns:agg="http://www.example.com" xmlns="http://www.w3.org/2000/svg" preserveAspectRatio="none" width="1.0438in" height="1.0750in" viewBox="0 0 970 999">

<path style="fill:#7f7f7f" d="M28,970 l0,-190 914,0 0,190 -914,0z" />
<path style="fill:#999" d="M28,954 l0,-158 914,0 0,158 -914,0z" />
<path style="fill:#b2b2b2" d="M28,938 l0,-126 914,0 0,126 -914,0z" />
<path style="fill:#ccc" d="M28,931 l0,-113 914,0 0,113 -914,0z" />
<path style="fill:#e5e5e5" d="M28,913 l0,-76 914,0 0,76 -914,0z" />
<path style="fill:#fff" d="M28,889 l0,-28 914,0 0,28 -914,0z" />
<path style="fill:none;stroke:#000;stroke-width:2" d="M28,970 l0,-190 914,0 0,190 -914,0" />
<path style="fill:#b2b2b2" d="M771,932 l-172,-76 -324,0 172,76 324,0z" />
<path style="fill:#999;stroke:#000;stroke-width:2" d="M485,685 l114,95 -29,0 29,76 -114,-171z" />
<path style="fill:#ccc" d="M771,932 l-172,-76 -114,-171 -324,0 114,171 172,76 324,0z" />
<path style="fill:none;stroke:#000;stroke-width:2" d="M771,932 l-172,-76 -114,-171 -324,0 114,171 172,76" />
<path style="fill:#7f7f7f;stroke:#000;stroke-width:2" d="M599,294 l95,0 0,134 -95,0 0,-134z" />
<path style="fill:#d9d9d9;stroke:#000;stroke-width:2" d="M847,323 l0,-248 -115,0 0,210 -95,0 0,38 57,0 0,76 -57,0 0,38 114,0 28,-7 24,-15 22,-22 16,-31 6,-39z" />
<circle style="fill:#e5e5e5;stroke:#000;stroke-width:2" cx="732" cy="361" r="76" />
<path style="fill:#ccc;stroke:#000;stroke-width:2" d="M28,56 l590,0 0,19 -76,0 -76,95 152,172 0,-133 19,0 0,323 -19,0 0,-152 -152,190 76,95 76,0 0,24 -590,0 0,-24 76,0 76,-95 0,-400 -76,-95 -76,0 0,-19z" />
<path style="fill:#999;stroke:#000;stroke-width:2" d="M542,75 l-76,95 0,400 76,95 -438,0 76,-95 0,-400 -76,-95 438,0z" />
<circle style="fill:#e5e5e5;stroke:#000;stroke-width:2" cx="323" cy="370" r="295" />
<circle style="fill:#bfbfbf;stroke:#7f7f7f;stroke-width:2" cx="323" cy="370" r="219" />
<path style="fill:#d9d9d9;stroke:#666;stroke-width:2" d="M227,551 l0,-362 29,0 0,96 133,0 0,-96 29,0 0,362 -29,0 0,-95 -133,0 0,95 -29,0z" />
<path style="fill:#666" d="M275,285 l95,0 0,171 -95,0 0,-171z" />
<path style="fill:#e5e5e5;stroke:#4c4c4c;stroke-width:2" d="M370,456 l0,-171 38,0 0,171 -38,0z" />
<path style="fill:#e5e5e5;stroke:#4c4c4c;stroke-width:2" d="M237,456 l0,-171 38,0 0,171 -38,0z" />
<path style="fill:#d9d9d9;stroke:#000;stroke-width:2" d="M262,432 l-25,-62 25,-61 61,-24 61,24 24,61 -24,62 -61,24 -61,-24z" />
<path style="fill:#f2f2f2;stroke:#000;stroke-width:2" d="M279,415 l-18,-45 18,-44 44,-17 44,17 18,44 -18,45 -44,17 -44,-17z" />
<path style="fill:#ccc;stroke:#7f7f7f;stroke-width:2" d="M313,123 l0,-19 19,0 0,19 -19,0z" />
<path style="fill:#ccc;stroke:#7f7f7f;stroke-width:2" d="M439,151 l9,-16 16,9 -9,16 -16,-9z" />
<path style="fill:#ccc;stroke:#7f7f7f;stroke-width:2" d="M533,238 l16,-9 9,16 -16,10 -9,-17z" />
<path style="fill:#ccc;stroke:#7f7f7f;stroke-width:2" d="M571,361 l19,0 0,19 -19,0 0,-19z" />
<path style="fill:#ccc;stroke:#7f7f7f;stroke-width:2" d="M542,486 l16,10 -9,16 -16,-10 9,-16z" />
<path style="fill:#ccc;stroke:#7f7f7f;stroke-width:2" d="M455,580 l9,17 -16,9 -9,-16 16,-10z" />
<path style="fill:#ccc;stroke:#7f7f7f;stroke-width:2" d="M332,618 l0,19 -19,0 0,-19 19,0z" />
<path style="fill:#ccc;stroke:#7f7f7f;stroke-width:2" d="M207,590 l-9,16 -17,-9 10,-17 16,10z" />
<path style="fill:#ccc;stroke:#7f7f7f;stroke-width:2" d="M113,502 l-16,10 -10,-16 16,-10 10,16z" />
<path style="fill:#ccc;stroke:#7f7f7f;stroke-width:2" d="M75,380 l-19,0 0,-19 19,0 0,19z" />
<path style="fill:#ccc;stroke:#7f7f7f;stroke-width:2" d="M103,255 l-16,-10 10,-16 16,9 -10,17z" />
<path style="fill:#ccc;stroke:#7f7f7f;stroke-width:2" d="M191,160 l-10,-16 17,-9 9,16 -16,9z" />
<path style="fill:#333" d="M292,401 l-12,-31 12,-30 31,-13 31,13 12,30 -12,31 -31,12 -31,-12z" />
<path style="fill:#666" d="M318,295 l9,0 0,9 -9,0 0,-9z" />
<path style="fill:#666" d="M318,437 l9,0 0,10 -9,0 0,-10z" />
<path style="fill:none;stroke:#000;stroke-width:2" d="M28,685 l590,0" />
<path style="fill:none;stroke:#7f7f7f;stroke-width:2" d="M761,247 l0,-124 57,0" />
<path style="fill:none;stroke:#fff;stroke-width:2" d="M818,123 l0,124 -57,0" />
<path style="fill:#000" d="M732,66 l115,0 0,9 -115,0 0,-9z" />
<path style="fill:#999" d="M732,66 l0,-29 19,-9 77,0 19,9 0,29 -115,0z" />
<path style="fill:#bfbfbf" d="M752,66 l0,-29 12,-9 51,0 13,9 0,29 -76,0z" />
<path style="fill:#e5e5e5" d="M781,66 l0,-29 3,-9 12,0 3,9 0,29 -18,0z" />
<path style="fill:none;stroke:#000;stroke-width:2" d="M732,66 l0,-29 19,-9 77,0 19,9 0,29 -115,0" />

</svg>
