 

<svg xmlns:agg="http://www.example.com" xmlns="http://www.w3.org/2000/svg" preserveAspectRatio="none" width="1.2231in" height="1.0750in" viewBox="0 0 999 878">

<path style="fill:#99997a;stroke:#000;stroke-width:2" d="M743,499 l4,-163 5,-8 -5,171 -4,0z" />
<path style="fill:#7f7f7f" d="M824,499 l0,-9 -4,0 0,-137 4,0 0,-8 9,0 0,154 -9,0z" />
<path style="fill:#4c4c16" d="M182,824 l0,-257 685,0 0,257 52,0 0,-308 -788,0 0,308 51,0z" />
<path style="fill:#4c4c16" d="M109,824 l77,0 0,9 -77,0 0,-9z" />
<path style="fill:#4c4c16" d="M533,824 l86,0 0,9 -86,0 0,-9z" />
<path style="fill:#4c4c16" d="M863,824 l77,0 0,9 -77,0 0,-9z" />
<path style="fill:#e5e5dd;stroke:#000;stroke-width:2" d="M114,841 l0,-342 822,0 0,342 -52,0 0,-291 -291,0 0,206 291,0 0,51 -291,0 0,34 -51,0 0,-291 -377,0 0,291 -51,0z" />
<path style="fill:#e5e5dd;stroke:#000;stroke-width:2" d="M131,499 l0,-120 -17,0 0,-17 359,0 0,-34 172,0 0,171 -514,0z" />
<path style="fill:#ccccbd" d="M148,482 l0,-103 325,0 0,103 -325,0z" />
<path style="fill:#ccccbd" d="M490,379 l0,120 137,0 0,-120 -137,0z" />
<path style="fill:#330" d="M251,447 l0,-34 120,0 0,34 -120,0z" />
<path style="fill:#ccccbd" d="M148,362 l-103,-300 480,0 -69,300 -308,0z" />
<path style="fill:#c4c4b2" d="M148,366 l-34,-111 376,-56 -34,167 -308,0z" />
<path style="fill:#babaa6" d="M148,366 l-22,-69 356,-55 -26,124 -308,0z" />
<path style="fill:#b2b29b" d="M148,366 l-13,-43 342,-55 -21,98 -308,0z" />
<path style="fill:#b2b2b2" d="M645,345 l64,0 4,17 22,0 4,17 85,0 0,-26 9,0 0,-8 120,0 17,17 0,120 -17,17 -120,0 0,-9 -9,0 0,-25 -85,0 -4,17 -22,0 -4,17 -64,0 0,-154z" />
<path style="fill:#c4c4c4" d="M645,359 l64,0 4,14 22,0 4,14 86,0 0,-21 8,0 0,-7 120,0 17,14 0,97 -17,14 -120,0 0,-7 -8,0 0,-21 -86,0 -4,14 -22,0 -4,14 -64,0 0,-125z" />
<path style="fill:#d9d9d9" d="M645,374 l64,0 4,11 22,0 4,10 86,0 0,-15 8,0 0,-6 120,0 17,11 0,73 -17,10 -120,0 0,-4 -8,0 0,-16 -86,0 -4,10 -22,0 -4,10 -64,0 0,-94z" />
<path style="fill:#ebebeb" d="M645,389 l64,0 4,8 22,0 4,6 86,0 0,-10 8,0 0,-4 120,0 17,8 0,49 -17,7 -120,0 0,-3 -8,0 0,-11 -86,0 -4,7 -22,0 -4,7 -64,0 0,-64z" />
<path style="fill:#fff" d="M645,405 l64,0 4,3 22,0 4,4 85,0 0,-5 9,0 0,-2 120,0 17,3 0,27 -17,4 -120,0 0,-2 -9,0 0,-6 -85,0 -4,4 -22,0 -4,4 -64,0 0,-34z" />
<path style="fill:none;stroke:#000;stroke-width:2" d="M645,345 l64,0 4,17 22,0 4,17 85,0 0,-26 9,0 0,-8 120,0 17,17 0,120 -17,17 -120,0 0,-9 -9,0 0,-25 -85,0 -4,17 -22,0 -4,17 -64,0 0,-154" />
<path style="fill:none;stroke:#000;stroke-width:2" d="M713,482 l0,-120" />
<path style="fill:none;stroke:#000;stroke-width:2" d="M739,465 l0,-86" />
<path style="fill:none;stroke:#000;stroke-width:2" d="M824,465 l0,-86" />
<path style="fill:none;stroke:#000;stroke-width:2" d="M833,490 l0,-137" />
<path style="fill:none;stroke:#000;stroke-width:2" d="M953,499 l0,-154" />
<path style="fill:#ccccbd" d="M747,499 l5,-171 60,0 4,171 -69,0z" />
<path style="fill:#deded4" d="M752,396 l0,-68 60,0 0,68 -60,0z" />
<path style="fill:#edede8" d="M752,353 l0,-25 60,0 0,25 -60,0z" />
<path style="fill:none;stroke:#000;stroke-width:2" d="M747,499 l5,-171 60,0 4,171 -69,0" />
<path style="fill:none;stroke:#4c4c16;stroke-width:2" d="M148,482 l0,-103 325,0" />
<path style="fill:none;stroke:#4c4c16;stroke-width:2" d="M490,499 l0,-120 137,0" />
<path style="fill:#ccccbd" d="M259,426 l34,0 0,9 -34,0 0,-9z" />
<path style="fill:#7f7f59" d="M302,426 l51,0 0,9 -51,0 0,-9z" />
<path style="fill:#e5e5dd;stroke:#000;stroke-width:2" d="M28,62 l0,-34 514,0 0,34 -514,0z" />
<path style="fill:#4c4c16" d="M28,62 l0,4 514,0 0,-4 -514,0z" />
<path style="fill:none;stroke:#000;stroke-width:2" d="M148,362 l-103,-300 480,0 -69,300 -308,0" />
<path style="fill:#ccccbd;stroke:#000;stroke-width:2" d="M88,841 l86,0 0,9 -86,0 0,-9z" />
<path style="fill:#ccccbd;stroke:#000;stroke-width:2" d="M533,841 l86,0 0,9 -86,0 0,-9z" />
<path style="fill:#ccccbd;stroke:#000;stroke-width:2" d="M876,841 l86,0 0,9 -86,0 0,-9z" />

</svg>
