 

<svg xmlns:agg="http://www.example.com" xmlns="http://www.w3.org/2000/svg" preserveAspectRatio="none" width="0.5251in" height="1.0750in" viewBox="0 0 488 999">

<path style="fill:#e5e5e5;stroke:#000;stroke-width:2" d="M460,558 l-79,39 -353,0 78,-39 354,0z" />
<path style="fill:#4c4c4c;stroke:#000;stroke-width:2" d="M28,578 l0,392 353,0 79,-39 0,-353 -40,0 0,-20 -392,20z" />
<path style="fill:#7f7f7f;stroke:#000;stroke-width:2" d="M381,597 l79,-39 0,368 -79,39 0,-368z" />
<path style="fill:#999;stroke:#000;stroke-width:2" d="M381,578 l39,-20 0,-530 -34,19 -5,99 0,432z" />
<path style="fill:#ccc;stroke:#000;stroke-width:2" d="M28,597 l353,0 0,368 -353,0 0,-368z" />
<path style="fill:#ccc;stroke:#000;stroke-width:2" d="M33,47 l353,0 0,94 -5,5 0,432 -353,0 0,-431 5,-6 0,-94z" />
<path style="fill:none;stroke:#fff;stroke-width:2" d="M33,146 l343,0" />
<path style="fill:#666;stroke:#000;stroke-width:2" d="M381,632 l10,0 0,78 -10,0 0,-78z" />
<path style="fill:#666;stroke:#000;stroke-width:2" d="M381,867 l10,0 0,79 -10,0 0,-79z" />
<path style="fill:#7f7f7f;stroke:#000;stroke-width:2" d="M48,862 l29,0 0,69 -29,0 0,-69z" />
<path style="fill:#7f7f7f;stroke:#000;stroke-width:2" d="M48,636 l29,0 0,69 -29,0 0,-69z" />
<path style="fill:#4c4c4c" d="M58,636 l9,0 0,69 -9,0 0,-69z" />
<path style="fill:#4c4c4c" d="M58,862 l9,0 0,69 -9,0 0,-69z" />
<path style="fill:#333" d="M55,563 l-9,-4 -3,-8 3,-9 9,-4 8,4 4,9 -4,8 -8,4z" />
<path style="fill:#333" d="M354,563 l-8,-4 -4,-8 4,-9 8,-4 9,4 3,9 -3,8 -9,4z" />
<path style="fill:#333" d="M55,376 l-9,-4 -3,-8 3,-9 9,-3 8,3 4,9 -4,8 -8,4z" />
<path style="fill:#333" d="M354,376 l-8,-4 -4,-8 4,-9 8,-3 9,3 3,9 -3,8 -9,4z" />
<path style="fill:#333" d="M55,190 l-9,-4 -3,-9 3,-8 9,-4 8,4 4,8 -4,9 -8,4z" />
<path style="fill:#333" d="M354,190 l-8,-4 -4,-9 4,-8 8,-4 9,4 3,8 -3,9 -9,4z" />
<path style="fill:#f2f2f2;stroke:#000;stroke-width:2" d="M33,48 l39,-20 348,0 -39,20 -348,0z" />

</svg>
