 

<svg xmlns:agg="http://www.example.com" xmlns="http://www.w3.org/2000/svg" preserveAspectRatio="none" width="0.4724in" height="1.0750in" viewBox="0 0 439 999">

<path style="fill:#4c5959;stroke:#000;stroke-width:2" d="M121,411 l-6,0 0,453 6,0 0,-453z" />
<path style="fill:#4c5959;stroke:#000;stroke-width:2" d="M320,411 l6,0 0,453 -6,0 0,-453z" />
<path style="fill:#4c5959;stroke:#000;stroke-width:2" d="M308,911 l6,0 0,-47 -6,0 0,47z" />
<path style="fill:#4c5959;stroke:#000;stroke-width:2" d="M133,864 l-6,0 0,47 6,0 0,-47z" />
<path style="fill:#7f8c8c;stroke:#000;stroke-width:2" d="M93,864 l35,0 0,47 -35,0 0,-47z" />
<path style="fill:#7f8c8c;stroke:#000;stroke-width:2" d="M349,911 l-35,0 0,-47 35,0 0,47z" />
<path style="fill:#7f8c8c;stroke:#000;stroke-width:2" d="M337,411 l-12,0 0,453 12,0 0,-453z" />
<path style="fill:#7f8c8c;stroke:#000;stroke-width:2" d="M104,411 l12,0 0,453 -12,0 0,-453z" />
<path style="fill:#727f7f" d="M336,57 l0,354 -87,88 0,44 -60,0 0,-44 -87,-88 0,-354 20,-17 31,-7 31,-4 35,-1 35,1 31,4 31,7 20,17z" />
<path style="fill:#8c9999" d="M318,57 l0,354 -73,88 0,44 -51,0 0,-44 -74,-88 0,-354 23,-19 28,-7 28,-3 20,0 30,1 33,5 24,9 12,14z" />
<path style="fill:#a5b2b2" d="M299,57 l0,354 -60,88 0,44 -39,0 0,-44 -61,-88 0,-354 18,-19 30,-8 32,-2 31,2 26,6 22,15 1,6z" />
<path style="fill:#bfcccc" d="M292,57 l0,354 -55,88 0,44 -36,0 0,-44 -56,-88 0,-354 22,-21 30,-7 22,-1 29,2 28,8 16,19z" />
<path style="fill:#d8e5e5" d="M271,57 l0,354 -39,88 0,44 -26,0 0,-44 -38,-88 0,-354 15,-21 25,-8 11,0 29,5 21,15 2,9z" />
<path style="fill:#f2ffff" d="M245,57 l0,354 -19,88 0,44 -14,0 0,-44 -18,-88 0,-354 0,-6 2,-6 2,-5 3,-4 4,-3 4,-3 5,-2 5,0 5,0 5,2 4,3 4,3 4,4 2,5 1,6 1,6z" />
<path style="fill:none;stroke:#000;stroke-width:2" d="M336,57 l0,354 -87,88 0,44 -60,0 0,-44 -87,-88 0,-354 20,-17 31,-7 31,-4 35,-1 35,1 31,4 31,7 20,17" />
<path style="fill:none;stroke:#000;stroke-width:2" d="M102,65 l5,-9 9,-6 12,-5 8,-2 8,-2 9,-1 10,-2 10,-1 11,-1 11,-1 12,0 12,0 12,0 12,0 11,1 11,1 10,1 10,2 9,1 8,2 14,5 11,5 7,6 2,6" />
<path style="fill:none;stroke:#000;stroke-width:2" d="M102,183 l5,-10 9,-5 12,-5 8,-2 8,-2 9,-1 10,-2 10,-1 11,-1 11,-1 12,0 12,-1 12,1 12,0 11,1 11,1 10,1 10,2 9,1 8,2 14,5 11,5 7,5 2,7" />
<path style="fill:none;stroke:#000;stroke-width:2" d="M102,300 l5,-9 9,-5 12,-5 8,-2 8,-2 9,-2 10,-1 10,-1 11,-1 11,-1 12,-1 12,0 12,0 12,1 11,1 11,1 10,1 10,1 9,2 8,2 14,4 11,6 7,5 2,6" />
<path style="fill:#727f7f" d="M186,539 l67,0 0,12 -67,0 0,-12z" />
<path style="fill:#727f7f;stroke:#000;stroke-width:2" d="M186,496 l67,0 0,11 -67,0 0,-11z" />
<path style="fill:#919e9e" d="M195,496 l48,0 0,11 -48,0 0,-11z" />
<path style="fill:#919e9e" d="M195,539 l48,0 0,12 -48,0 0,-12z" />
<path style="fill:#b2bfbf" d="M200,496 l39,0 0,11 -39,0 0,-11z" />
<path style="fill:#b2bfbf" d="M200,539 l39,0 0,12 -39,0 0,-12z" />
<path style="fill:#d8e5e5" d="M212,496 l14,0 0,11 -14,0 0,-11z" />
<path style="fill:#d8e5e5" d="M212,539 l14,0 0,12 -14,0 0,-12z" />
<path style="fill:none;stroke:#000;stroke-width:2" d="M186,539 l67,0 0,12 -67,0 0,-12" />
<path style="fill:#d8e5e5;stroke:#000;stroke-width:2" d="M42,366 l354,0 0,15 -354,0 0,-15z" />
<path style="fill:#727f7f;stroke:#000;stroke-width:2" d="M337,411 l59,-30 -354,0 59,30 1,-2 26,-8 35,-3 33,-2 35,0 34,1 29,2 29,5 13,5 1,2z" />
<path style="fill:#a5b2b2;stroke:#000;stroke-width:2" d="M57,558 l324,0 0,15 -324,0 0,-15z" />
<path style="fill:#727f7f;stroke:#000;stroke-width:2" d="M65,381 l-8,0 0,530 8,0 0,-530z" />
<path style="fill:#727f7f;stroke:#000;stroke-width:2" d="M374,381 l7,0 0,530 -7,0 0,-530z" />
<path style="fill:#727f7f;stroke:#000;stroke-width:2" d="M359,970 l8,0 0,-59 -8,0 0,59z" />
<path style="fill:#727f7f;stroke:#000;stroke-width:2" d="M79,911 l-7,0 0,59 7,0 0,-59z" />
<path style="fill:#a5b2b2;stroke:#000;stroke-width:2" d="M28,911 l44,0 0,59 -44,0 0,-59z" />
<path style="fill:#a5b2b2;stroke:#000;stroke-width:2" d="M411,970 l-44,0 0,-59 44,0 0,59z" />
<path style="fill:#a5b2b2;stroke:#000;stroke-width:2" d="M396,381 l-15,0 0,530 15,0 0,-530z" />
<path style="fill:#a5b2b2;stroke:#000;stroke-width:2" d="M42,381 l15,0 0,530 -15,0 0,-530z" />

</svg>
