 

<svg xmlns:agg="http://www.example.com" xmlns="http://www.w3.org/2000/svg" preserveAspectRatio="none" width="0.9157in" height="1.0750in" viewBox="0 0 851 999">

<path style="fill:#7f7f7f" d="M308,931 l20,22 32,11 30,4 23,2 12,0 12,0 34,-3 29,-6 29,-11 14,-19 0,-157 275,-236 0,-471 -2,-4 -29,-11 -26,-5 -33,-4 -39,-5 -29,-2 -31,-2 -34,-2 -35,-1 -37,-2 -38,-1 -20,0 -20,0 -20,0 -40,0 -38,1 -38,1 -36,1 -35,2 -32,2 -30,2 -28,3 -37,4 -31,4 -30,8 -15,7 -2,2 0,2 0,471 275,236 0,157z" />
<path style="fill:#919191" d="M325,931 l17,22 27,10 27,5 19,2 11,0 10,0 29,-3 32,-9 22,-12 8,-25 0,-30 0,-78 0,-30 0,-9 22,-23 22,-22 22,-22 22,-22 22,-22 23,-22 22,-22 22,-22 22,-22 22,-22 15,-15 0,-88 0,-15 0,-15 0,-250 0,-29 0,-74 -1,-2 -26,-13 -31,-7 -30,-4 -35,-4 -40,-4 -29,-1 -30,-2 -31,-1 -33,-1 -17,0 -17,0 -17,0 -35,0 -33,1 -32,1 -31,1 -30,1 -27,2 -39,4 -33,4 -28,5 -29,7 -20,11 0,2 0,15 0,73 0,29 0,251 0,29 0,74 22,22 22,22 22,22 22,22 23,22 22,22 22,23 22,22 22,22 22,22 15,15 0,29 0,29 0,59 0,30 0,10z" />
<path style="fill:#a1a1a1" d="M341,931 l15,22 23,10 30,6 8,1 9,0 8,0 32,-5 25,-10 19,-20 0,-34 0,-29 0,-59 0,-30 0,-9 19,-23 18,-22 19,-22 18,-22 19,-22 18,-22 19,-22 18,-22 18,-22 19,-22 12,-15 0,-88 0,-15 0,-15 0,-250 0,-29 0,-74 0,-2 -22,-13 -26,-7 -35,-6 -30,-3 -35,-4 -37,-2 -40,-1 -28,-1 -14,0 -14,0 -29,0 -28,1 -40,1 -37,2 -34,4 -31,3 -27,4 -28,7 -25,11 -2,4 -1,2 0,15 0,73 1,29 0,251 -1,29 0,74 19,22 18,22 19,22 18,22 19,22 18,22 19,23 18,22 18,22 19,22 12,15 0,29 1,29 0,59 -1,30 0,10z" />
<path style="fill:#b2b2b2" d="M358,931 l15,24 26,12 20,3 7,0 7,0 30,-7 22,-13 9,-29 0,-30 0,-78 0,-30 0,-9 14,-23 15,-22 15,-22 15,-22 15,-22 14,-22 15,-22 15,-22 15,-22 14,-22 10,-15 0,-88 0,-15 0,-15 0,-250 0,-29 0,-74 -22,-17 -29,-8 -31,-5 -27,-4 -29,-2 -31,-2 -33,-1 -12,0 -11,0 -35,0 -32,2 -31,2 -29,2 -33,5 -28,6 -24,9 -14,11 0,2 0,15 0,73 0,29 0,251 0,29 0,74 15,22 15,22 14,22 15,22 15,22 15,22 15,23 15,22 14,22 15,22 10,15 0,29 0,29 0,59 0,30 0,10z" />
<path style="fill:#c4c4c4" d="M374,931 l12,24 25,13 10,2 5,0 5,0 27,-9 18,-22 1,-28 0,-30 0,-68 0,-30 0,-9 15,-30 15,-29 14,-30 16,-29 14,-30 15,-29 15,-30 15,-29 0,-88 0,-15 0,-15 0,-250 0,-29 0,-74 -1,-4 -29,-18 -32,-8 -27,-5 -31,-2 -33,-2 -17,0 -18,0 -33,2 -30,2 -27,5 -33,8 -26,14 -2,4 -1,4 0,15 0,73 0,29 0,251 0,29 0,74 15,29 15,30 14,29 15,30 15,29 15,30 15,29 14,30 0,29 1,29 0,59 -1,30 0,10z" />
<path style="fill:#d4d4d4" d="M391,931 l10,27 18,11 7,1 7,-1 21,-16 6,-32 1,-30 0,-78 -1,-30 8,-32 10,-29 10,-29 10,-30 10,-29 10,-30 10,-29 9,-30 3,-36 0,-59 0,-15 0,-15 0,-250 0,-29 0,-74 -19,-22 -32,-11 -29,-4 -23,-2 -11,0 -12,0 -33,3 -28,6 -28,11 -13,15 -1,4 0,15 0,73 1,29 0,251 -1,29 0,74 10,29 10,30 11,29 9,30 10,29 10,30 10,29 10,30 0,29 0,29 0,59 0,30 0,10z" />
<path style="fill:#e5e5e5" d="M407,931 l6,28 9,10 3,1 4,-1 13,-23 1,-15 0,-157 41,-236 0,-471 -13,-24 -28,-13 -12,-2 -6,0 -6,0 -26,7 -22,17 -4,11 0,4 0,471 40,236 0,157z" />
<path style="fill:none;stroke:#000;stroke-width:2" d="M308,931 l20,22 32,11 30,4 23,2 12,0 12,0 34,-3 29,-6 29,-11 14,-19 0,-157 275,-236 0,-471 -2,-4 -29,-11 -26,-5 -33,-4 -39,-5 -29,-2 -31,-2 -34,-2 -35,-1 -37,-2 -38,-1 -20,0 -20,0 -20,0 -40,0 -38,1 -38,1 -36,1 -35,2 -32,2 -30,2 -28,3 -37,4 -31,4 -30,8 -15,7 -2,2 0,2 0,471 275,236 0,157" />
<path style="fill:#d9d9d9;stroke:#000;stroke-width:2" d="M28,58 l795,0 0,19 -795,0 0,-19z" />
<path style="fill:#d9d9d9;stroke:#000;stroke-width:2" d="M28,529 l795,0 0,19 -795,0 0,-19z" />
<path style="fill:#d9d9d9;stroke:#000;stroke-width:2" d="M293,764 l265,0 0,20 -265,0 0,-20z" />

</svg>
