 

<svg xmlns:agg="http://www.example.com" xmlns="http://www.w3.org/2000/svg" preserveAspectRatio="none" width="0.9061in" height="1.0750in" viewBox="0 0 842 999">

<path style="fill:#366;stroke:#000;stroke-width:2" d="M284,714 l38,177 198,0 38,-177 98,-136 -98,-550 -274,0 -100,550 100,136z" />
<path style="fill:#699;stroke:#000;stroke-width:2" d="M67,970 l117,0 0,-256 472,0 0,256 118,0 0,-256 -18,-58 0,-78 -670,0 0,78 -19,58 0,256z" />
<circle style="fill:#699;stroke:#000;stroke-width:2" cx="421" cy="342" r="314" />
<path style="fill:#9cc;stroke:#000;stroke-width:2" d="M28,656 l786,0 0,58 -58,0 0,100 -61,0 0,-100 -549,0 0,100 -60,0 0,-100 -58,0 0,-58z" />
<path style="fill:#9cc;stroke:#000;stroke-width:2" d="M67,814 l707,0 0,38 -39,0 0,118 -19,0 0,-118 -590,0 0,118 -19,0 0,-118 -40,0 0,-38z" />
<circle style="fill:#6ea1a1" cx="409" cy="330" r="272" />
<circle style="fill:#78abab" cx="399" cy="320" r="251" />
<circle style="fill:#7fb2b2" cx="389" cy="309" r="229" />
<circle style="fill:#87baba" cx="377" cy="297" r="206" />
<circle style="fill:#91c4c4" cx="366" cy="286" r="186" />
<circle style="fill:#9cc" cx="356" cy="275" r="164" />
<circle style="fill:#a1d4d4" cx="344" cy="265" r="141" />
<circle style="fill:#abdede" cx="334" cy="254" r="120" />
<circle style="fill:#b2e5e5" cx="322" cy="244" r="98" />
<path style="fill:#fc0" d="M656,28 l13,0 0,628 -13,0 0,-628z" />
<path style="fill:#fc0" d="M722,28 l13,0 0,628 -13,0 0,-628z" />
<path style="fill:#fc0" d="M669,122 l53,0 0,13 -53,0 0,-13z" />
<path style="fill:#fc0" d="M669,230 l53,0 0,12 -53,0 0,-12z" />
<path style="fill:#fc0" d="M669,335 l53,0 0,13 -53,0 0,-13z" />
<path style="fill:#fc0" d="M669,443 l53,0 0,13 -53,0 0,-13z" />
<path style="fill:#fc0" d="M669,550 l53,0 0,13 -53,0 0,-13z" />
<path style="fill:#fc0" d="M669,67 l53,0 0,13 -53,0 0,-13z" />
<path style="fill:#fc0" d="M669,175 l53,0 0,13 -53,0 0,-13z" />
<path style="fill:#fc0" d="M669,282 l53,0 0,14 -53,0 0,-14z" />
<path style="fill:#fc0" d="M669,390 l53,0 0,13 -53,0 0,-13z" />
<path style="fill:#fc0" d="M669,495 l53,0 0,15 -53,0 0,-15z" />
<path style="fill:#fc0" d="M669,603 l53,0 0,13 -53,0 0,-13z" />

</svg>
