 

<svg xmlns:agg="http://www.example.com" xmlns="http://www.w3.org/2000/svg" preserveAspectRatio="none" width="0.6101in" height="1.0750in" viewBox="0 0 567 999">

<path style="fill:#00bf00;stroke:#000;stroke-width:2" d="M244,106 l-216,0 0,20 216,0 0,-20z" />
<path style="fill:none;stroke:#0f0;stroke-width:2" d="M28,116 l206,0" />
<path style="fill:#00bf00;stroke:#000;stroke-width:2" d="M322,872 l-137,-216 0,-236 314,0 0,236 -137,216 19,0 0,20 -78,0 0,-20 19,0z" />
<path style="fill:#00bf00;stroke:#000;stroke-width:2" d="M303,950 l78,0 0,20 -78,0 0,-20z" />
<path style="fill:#00cf00" d="M326,872 l-111,-216 0,-236 255,0 0,236 -112,216 -32,0z" />
<path style="fill:#00de00" d="M330,872 l-86,-216 0,-236 196,0 0,236 -86,216 -24,0z" />
<path style="fill:#00f000" d="M333,872 l-60,-216 0,-236 138,0 0,236 -60,216 -18,0z" />
<path style="fill:#0f0" d="M337,872 l-34,-216 0,-236 78,0 0,236 -34,216 -10,0z" />
<path style="fill:none;stroke:#000;stroke-width:2" d="M185,656 l314,0" />
<path style="fill:none;stroke:#000;stroke-width:2" d="M322,872 l40,0" />
<path style="fill:#00bf00;stroke:#000;stroke-width:2" d="M480,165 l0,138 19,0 0,19 -19,0 0,20 -275,0 0,-20 -20,0 0,-19 20,0 0,-138 2,-27 9,-26 12,-23 17,-21 21,-17 23,-12 26,-8 27,-3 28,3 26,8 23,12 20,17 17,21 13,23 8,26 3,27z" />
<path style="fill:#00d900;stroke:#000;stroke-width:2" d="M460,146 l-6,34 -14,32 -23,24 -29,18 -34,9 -12,0 -35,-5 -31,-15 -25,-23 -18,-29 -8,-33 -1,-12 5,-35 15,-31 23,-25 29,-18 34,-9 12,0 196,0 0,118 -78,0z" />
<path style="fill:none;stroke:#000;stroke-width:2" d="M205,303 l275,0" />
<path style="fill:none;stroke:#000;stroke-width:2" d="M480,322 l-275,0" />
<path style="fill:#00bf00;stroke:#000;stroke-width:2" d="M205,342 l-20,78 314,0 -19,-78 -275,0z" />
<path style="fill:#00d400" d="M208,342 l6,59 129,9 126,-9 7,-59 -268,0z" />
<path style="fill:#0f0;stroke:#000;stroke-width:2" d="M106,420 l118,0 0,236 -118,0 0,-236z" />
<path style="fill:#00bf00" d="M116,646 l69,-29 0,-187 -69,0 0,216z" />
<path style="fill:#00d900" d="M214,641 l-29,-24 -69,29 98,0 0,-5z" />
<path style="fill:#007f00" d="M214,641 l-29,-24 0,-187 29,0 0,211z" />
<path style="fill:none;stroke:#000;stroke-width:2" d="M116,430 l98,0 0,216 -98,0 0,-216" />
<path style="fill:#090;stroke:#000;stroke-width:2" d="M357,950 l-30,0 -19,-14 0,-30 19,-15 30,0 19,15 0,30 -19,14z" />
<path style="fill:#090" d="M327,169 l-5,-14 5,-14 15,-5 14,5 5,14 -5,14 -14,6 -15,-6z" />
<path style="fill:#ccc;stroke:#000;stroke-width:2" d="M328,160 l-6,-14 6,-14 14,-6 14,6 6,14 -6,14 -14,6 -14,-6z" />

</svg>
