 

<svg xmlns:agg="http://www.example.com" xmlns="http://www.w3.org/2000/svg" preserveAspectRatio="none" width="1.6083in" height="0.6794in" viewBox="0 0 999 422">

<path style="fill:#4c4c4c;stroke:#000;stroke-width:2" d="M838,99 l42,30 0,163 -42,20 0,-213z" />
<path style="fill:#333;stroke:#000;stroke-width:2" d="M49,271 l769,0 0,41 -769,0 0,-41z" />
<path style="fill:#b2b2b2;stroke:#000;stroke-width:2" d="M28,69 l21,0 0,325 -21,0 0,-325z" />
<path style="fill:#b2b2b2;stroke:#000;stroke-width:2" d="M818,69 l20,0 0,325 -20,0 0,-325z" />
<path style="fill:#b2b2b2;stroke:#000;stroke-width:2" d="M49,312 l627,0 0,82 -627,0 0,-82z" />
<path style="fill:#666;stroke:#000;stroke-width:2" d="M49,331 l627,0 0,42 -627,0 0,-42z" />
<path style="fill:#999" d="M49,69 l769,0 0,202 -769,0 0,-202z" />
<path style="fill:#b2b2b2" d="M49,88 l769,0 0,162 -769,0 0,-162z" />
<path style="fill:#ccc" d="M49,118 l769,0 0,102 -769,0 0,-102z" />
<path style="fill:#e5e5e5" d="M49,150 l769,0 0,40 -769,0 0,-40z" />
<path style="fill:none;stroke:#000;stroke-width:2" d="M49,69 l769,0 0,202 -769,0 0,-202" />
<path style="fill:#7f7f7f;stroke:#000;stroke-width:2" d="M818,39 l-91,0 0,30 91,0 0,-30z" />
<path style="fill:#7f7f7f;stroke:#000;stroke-width:2" d="M139,39 l-90,0 0,30 90,0 0,-30z" />
<path style="fill:#ccc;stroke:#000;stroke-width:2" d="M28,28 l132,0 0,11 -132,0 0,-11z" />
<path style="fill:#ccc;stroke:#000;stroke-width:2" d="M706,28 l132,0 0,11 -132,0 0,-11z" />
<path style="fill:#b2b2b2" d="M880,99 l90,0 0,213 -90,0 0,-213z" />
<path style="fill:#999" d="M880,211 l90,0 0,101 -90,0 0,-101z" />
<path style="fill:#7f7f7f" d="M880,271 l90,0 0,41 -90,0 0,-41z" />
<path style="fill:#4c4c4c" d="M880,301 l90,0 0,11 -90,0 0,-11z" />
<path style="fill:none;stroke:#000;stroke-width:2" d="M880,99 l90,0 0,213 -90,0 0,-213" />
<path style="fill:#ccc;stroke:#000;stroke-width:2" d="M676,292 l204,0 0,102 -204,0 0,-102z" />
<path style="fill:#7f7f7f;stroke:#000;stroke-width:2" d="M676,316 l204,0 0,51 -204,0 0,-51z" />
<path style="fill:#e5e5e5;stroke:#000;stroke-width:2" d="M686,169 l71,0 0,113 -71,0 0,-113z" />
<path style="fill:#e5e5e5;stroke:#000;stroke-width:2" d="M757,169 l91,0 0,113 -91,0 0,-113z" />
<path style="fill:#e5e5e5;stroke:#000;stroke-width:2" d="M848,169 l32,21 0,72 -32,20 0,-113z" />
<path style="fill:#666;stroke:#000;stroke-width:2" d="M757,180 l91,0 0,10 -91,0 0,-10z" />
<path style="fill:#666;stroke:#000;stroke-width:2" d="M757,201 l91,0 0,10 -91,0 0,-10z" />
<path style="fill:#666;stroke:#000;stroke-width:2" d="M757,220 l91,0 0,11 -91,0 0,-11z" />
<path style="fill:#666;stroke:#000;stroke-width:2" d="M757,241 l91,0 0,9 -91,0 0,-9z" />
<path style="fill:#666;stroke:#000;stroke-width:2" d="M757,262 l91,0 0,9 -91,0 0,-9z" />
<path style="fill:#b2b2b2;stroke:#000;stroke-width:2" d="M706,282 l142,0 0,10 -142,0 0,-10z" />
<path style="fill:none;stroke:#7f7f7f;stroke-width:2" d="M180,99 l0,132" />
<path style="fill:none;stroke:#7f7f7f;stroke-width:2" d="M220,139 l0,111" />
<path style="fill:none;stroke:#7f7f7f;stroke-width:2" d="M535,109 l0,111" />
<path style="fill:none;stroke:#7f7f7f;stroke-width:2" d="M646,79 l0,81" />
<path style="fill:none;stroke:#7f7f7f;stroke-width:2" d="M616,160 l0,90" />

</svg>
