 

<svg xmlns:agg="http://www.example.com" xmlns="http://www.w3.org/2000/svg" preserveAspectRatio="none" width="0.6463in" height="1.0750in" viewBox="0 0 600 998">

<path style="fill:#4c7f7f;stroke:#000;stroke-width:2" d="M74,656 l17,0 0,209 -17,0 0,-209z" />
<path style="fill:#4c7f7f;stroke:#000;stroke-width:2" d="M527,656 l-18,0 0,209 18,0 0,-209z" />
<path style="fill:#366;stroke:#000;stroke-width:2" d="M509,865 l0,-139 -52,139 52,0z" />
<path style="fill:#366;stroke:#000;stroke-width:2" d="M91,865 l0,-139 52,139 -52,0z" />
<path style="fill:#c7cccc;stroke:#000;stroke-width:2" d="M28,91 l544,0 0,544 -544,0 0,-544z" />
<path style="fill:#e0e5e5;stroke:#7f7f7f;stroke-width:2" d="M49,614 l251,-251 -251,-251 0,502z" />
<path style="fill:#eff2f2;stroke:#7f7f7f;stroke-width:2" d="M49,112 l251,251 251,-251 -502,0z" />
<path style="fill:#d4d9d9;stroke:#7f7f7f;stroke-width:2" d="M551,112 l-251,251 251,251 0,-502z" />
<path style="fill:#c7cccc;stroke:#7f7f7f;stroke-width:2" d="M551,614 l-251,-251 -251,251 502,0z" />
<path style="fill:#e0e5e5;stroke:#000;stroke-width:2" d="M28,91 l272,-42 272,42 -544,0z" />
<path style="fill:#b2b2b2" d="M174,49 l252,0 0,21 -252,0 0,-21z" />
<path style="fill:#b2b2b2" d="M216,28 l168,0 0,20 -168,0 0,-20z" />
<path style="fill:#ccc" d="M216,49 l168,0 0,21 -168,0 0,-21z" />
<path style="fill:#ccc" d="M244,28 l112,0 0,20 -112,0 0,-20z" />
<path style="fill:#e5e5e5" d="M237,49 l126,0 0,21 -126,0 0,-21z" />
<path style="fill:#e5e5e5" d="M258,28 l84,0 0,20 -84,0 0,-20z" />
<path style="fill:#fff" d="M279,49 l42,0 0,21 -42,0 0,-21z" />
<path style="fill:#fff" d="M286,28 l28,0 0,20 -28,0 0,-20z" />
<path style="fill:none;stroke:#000;stroke-width:2" d="M174,49 l252,0 0,21 -252,0 0,-21" />
<path style="fill:none;stroke:#000;stroke-width:2" d="M216,28 l168,0 0,20 -168,0 0,-20" />
<path style="fill:#b2bfbf" d="M28,635 l209,210 126,0 209,-210 -544,0z" />
<path style="fill:#a5b2b2" d="M111,719 l126,126 126,0 125,-126 -377,0z" />
<path style="fill:#99a6a6" d="M174,782 l63,63 126,0 63,-63 -252,0z" />
<path style="fill:none;stroke:#000;stroke-width:2" d="M28,635 l209,210 126,0 209,-210 -544,0" />
<path style="fill:#194c4c;stroke:#000;stroke-width:2" d="M164,885 l271,0 0,-20 116,0 0,78 -38,0 0,-20 -426,0 0,20 -39,0 0,-78 116,0 0,20z" />
<path style="fill:#9cc;stroke:#000;stroke-width:2" d="M28,635 l21,0 0,252 -21,0 0,-252z" />
<path style="fill:#9cc;stroke:#000;stroke-width:2" d="M572,635 l-21,0 0,252 21,0 0,-252z" />
<path style="fill:#699;stroke:#000;stroke-width:2" d="M551,887 l0,-168 -63,168 63,0z" />
<path style="fill:#699;stroke:#000;stroke-width:2" d="M49,887 l0,-168 62,168 -62,0z" />
<path style="fill:#99a6a6;stroke:#000;stroke-width:2" d="M237,845 l126,0 0,83 -126,0 0,-83z" />
<path style="fill:#9cc;stroke:#000;stroke-width:2" d="M153,907 l294,0 0,-20 125,0 0,83 -42,0 0,-21 -460,0 0,21 -42,0 0,-83 125,0 0,20z" />

</svg>
