 

<svg xmlns:agg="http://www.example.com" xmlns="http://www.w3.org/2000/svg" preserveAspectRatio="none" width="1.0750in" height="1.0750in" viewBox="0 0 998 998">

<path style="fill:#194c4c" d="M337,494 l15,0 0,31 -15,0 0,-31z" />
<path style="fill:#194c4c" d="M138,619 l99,0 0,58 -99,0 0,-58z" />
<path style="fill:#4c7f7f" d="M70,604 l235,0 0,15 -235,0 0,-15z" />
<path style="fill:#b2e5e5" d="M447,551 l314,0 -5,-251 -304,0 -5,251z" />
<path style="fill:#699" d="M28,604 l293,0 0,-189 -293,0 0,189z" />
<path style="fill:#78abab" d="M28,583 l293,0 0,-147 -293,0 0,147z" />
<path style="fill:#8cbfbf" d="M28,562 l293,0 0,-105 -293,0 0,105z" />
<path style="fill:#9ed1d1" d="M28,541 l293,0 0,-63 -293,0 0,63z" />
<path style="fill:#b2e5e5" d="M28,520 l293,0 0,-21 -293,0 0,21z" />
<path style="fill:none;stroke:#000;stroke-width:2" d="M28,604 l293,0 0,-189 -293,0 0,189" />
<path style="fill:#366;stroke:#000;stroke-width:2" d="M101,415 l178,0 0,84 -178,0 0,-84z" />
<path style="fill:#9cc;stroke:#000;stroke-width:2" d="M91,410 l198,0 0,10 -198,0 0,-10z" />
<path style="fill:#9cc;stroke:#000;stroke-width:2" d="M91,431 l198,0 0,10 -198,0 0,-10z" />
<path style="fill:#9cc;stroke:#000;stroke-width:2" d="M91,452 l198,0 0,10 -198,0 0,-10z" />
<path style="fill:#9cc;stroke:#000;stroke-width:2" d="M91,472 l198,0 0,11 -198,0 0,-11z" />
<path style="fill:#9cc;stroke:#000;stroke-width:2" d="M91,493 l198,0 0,11 -198,0 0,-11z" />
<path style="fill:none;stroke:#000;stroke-width:2" d="M85,551 l236,0" />
<path style="fill:none;stroke:#000;stroke-width:2" d="M85,415 l0,189" />
<path style="fill:#b2e5e5;stroke:#000;stroke-width:2" d="M237,614 l68,0 0,63 -68,0 0,-63z" />
<path style="fill:#b2e5e5;stroke:#000;stroke-width:2" d="M70,614 l68,0 0,63 -68,0 0,-63z" />
<path style="fill:#7fb2b2" d="M237,614 l68,0 0,16 -68,0 0,-16z" />
<path style="fill:#7fb2b2" d="M70,614 l68,0 0,16 -68,0 0,-16z" />
<path style="fill:#fff" d="M242,530 l63,0 0,-15 -63,0 0,15z" />
<path style="fill:#7fb2b2;stroke:#000;stroke-width:2" d="M54,520 l73,0 0,73 -73,0 0,-73z" />
<path style="fill:none;stroke:#fff;stroke-width:2" d="M54,593 l0,-73 73,0" />
<path style="fill:#9cc;stroke:#000;stroke-width:2" d="M761,824 l209,0 0,-84 -209,0 0,84z" />
<path style="fill:#9cc;stroke:#000;stroke-width:2" d="M342,551 l105,0 0,294 -105,0 0,-294z" />
<path style="fill:#baeded" d="M452,431 l10,0 9,0 10,0 28,0 29,0 152,0 28,0 38,0 0,-25 0,-8 0,-8 0,-58 0,-32 -57,0 -9,-1 -10,0 -161,0 -29,1 -28,0 -10,0 0,8 1,32 0,58 -1,33z" />
<path style="fill:#c2f5f5" d="M452,384 l10,0 9,0 10,0 28,0 29,0 152,0 28,0 38,0 0,-16 0,-5 0,-6 0,-36 0,-21 -57,0 -9,-1 -10,0 -161,0 -29,1 -28,0 -10,0 0,5 1,31 -1,32 0,16z" />
<path style="fill:#cff" d="M452,368 l304,0 0,-68 -304,0 0,68z" />
<path style="fill:none;stroke:#000;stroke-width:2" d="M447,551 l314,0 -5,-251 -304,0 -5,251" />
<path style="fill:#7fb2b2;stroke:#000;stroke-width:2" d="M321,447 l16,0 0,126 -16,0 0,-126z" />
<path style="fill:#b2e5e5;stroke:#000;stroke-width:2" d="M468,300 l0,-251 282,0 0,-21 21,0 0,21 53,0 0,-21 21,0 0,21 20,0 0,125 -125,0 0,126 -272,0z" />
<path style="fill:#b2e5e5;stroke:#000;stroke-width:2" d="M70,677 l235,0 0,168 -235,0 0,-168z" />
<path style="fill:#b2e5e5;stroke:#000;stroke-width:2" d="M28,845 l754,0 0,125 -754,0 0,-125z" />
<path style="fill:#b2e5e5;stroke:#000;stroke-width:2" d="M447,845 l314,0 0,-294 -314,0 0,294z" />
<path style="fill:#b2e5e5;stroke:#000;stroke-width:2" d="M342,551 l5,-99 94,0 6,99 -105,0z" />
<path style="fill:#cff;stroke:#000;stroke-width:2" d="M462,284 l53,0 0,16 -53,0 0,-16z" />
<path style="fill:#cff;stroke:#000;stroke-width:2" d="M693,284 l52,0 0,16 -52,0 0,-16z" />
<path style="fill:#cff;stroke:#000;stroke-width:2" d="M578,284 l52,0 0,16 -52,0 0,-16z" />
<path style="fill:#ffffb2" d="M567,510 l94,0 -5,-126 -84,0 -5,126z" />
<path style="fill:#ffffb2" d="M383,499 l22,0 0,-31 -22,0 0,31z" />
<path style="fill:#e5b200" d="M572,478 l84,0 0,-16 -84,0 0,16z" />
<path style="fill:#7f7f7f;stroke:#fff;stroke-width:2" d="M295,887 l220,0 0,41 -220,0 0,-41z" />
<path style="fill:#7fb2b2;stroke:#000;stroke-width:2" d="M468,572 l272,0 0,273 -272,0 0,-273z" />

</svg>
