 

<svg xmlns:agg="http://www.example.com" xmlns="http://www.w3.org/2000/svg" preserveAspectRatio="none" width="0.6370in" height="1.0750in" viewBox="0 0 592 999">

<path style="fill:#7f7f7f;stroke:#000;stroke-width:2" d="M501,872 l0,32 -414,0 0,-32 414,0z" />
<path style="fill:#7f7f7f;stroke:#000;stroke-width:2" d="M152,58 l102,-10 -2,-20 -102,9 2,21z" />
<path style="fill:#7f7f7f;stroke:#000;stroke-width:2" d="M439,58 l-102,-10 1,-20 103,9 -2,21z" />
<path style="fill:#7f7f7f" d="M28,599 l0,-536 267,-31 268,31 0,536 -144,103 -41,268 -165,0 -41,-268 -144,-103z" />
<path style="fill:#8a8a8a" d="M50,599 l0,-536 246,-31 245,31 0,536 -132,103 -38,268 -151,0 -38,-268 -132,-103z" />
<path style="fill:#919191" d="M73,599 l0,-536 223,-31 223,31 0,536 -120,103 -35,268 -137,0 -34,-268 -120,-103z" />
<path style="fill:#9c9c9c" d="M95,599 l0,-536 201,-31 200,31 0,536 -108,103 -31,268 -123,0 -31,-268 -108,-103z" />
<path style="fill:#a6a6a6" d="M118,599 l0,-536 178,-31 178,31 0,536 -96,103 -28,268 -109,0 -27,-268 -96,-103z" />
<path style="fill:#adadad" d="M140,599 l0,-536 156,-31 155,31 0,536 -83,103 -25,268 -95,0 -24,-268 -84,-103z" />
<path style="fill:#b8b8b8" d="M163,599 l0,-536 133,-31 133,31 0,536 -72,103 -20,268 -82,0 -21,-268 -71,-103z" />
<path style="fill:#bfbfbf" d="M186,599 l0,-536 110,-31 110,31 0,536 -59,103 -17,268 -68,0 -17,-268 -59,-103z" />
<path style="fill:#c9c9c9" d="M208,599 l0,-536 88,-31 88,31 0,536 -47,103 -14,268 -54,0 -14,-268 -47,-103z" />
<path style="fill:#d4d4d4" d="M230,599 l0,-536 66,-31 65,31 0,536 -35,103 -10,268 -40,0 -10,-268 -36,-103z" />
<path style="fill:#dbdbdb" d="M253,599 l0,-536 43,-31 43,31 0,536 -23,103 -7,268 -26,0 -7,-268 -23,-103z" />
<path style="fill:#e5e5e5" d="M275,599 l0,-536 21,-31 20,31 0,536 -11,103 -3,268 -13,0 -3,-268 -11,-103z" />
<path style="fill:#4c4c4c" d="M28,599 l535,0 -144,103 -247,0 -144,-103z" />
<path style="fill:#575757" d="M50,599 l491,0 -132,103 -227,0 -132,-103z" />
<path style="fill:#5e5e5e" d="M73,599 l446,0 -120,103 -206,0 -120,-103z" />
<path style="fill:#696969" d="M95,599 l401,0 -108,103 -185,0 -108,-103z" />
<path style="fill:#737373" d="M118,599 l356,0 -96,103 -164,0 -96,-103z" />
<path style="fill:#7a7a7a" d="M140,599 l311,0 -83,103 -144,0 -84,-103z" />
<path style="fill:#858585" d="M163,599 l266,0 -72,103 -123,0 -71,-103z" />
<path style="fill:#8c8c8c" d="M186,599 l220,0 -59,103 -102,0 -59,-103z" />
<path style="fill:#969696" d="M208,599 l176,0 -47,103 -82,0 -47,-103z" />
<path style="fill:#a1a1a1" d="M230,599 l131,0 -35,103 -60,0 -36,-103z" />
<path style="fill:#a8a8a8" d="M253,599 l86,0 -23,103 -40,0 -23,-103z" />
<path style="fill:#b2b2b2" d="M275,599 l41,0 -11,103 -19,0 -11,-103z" />
<path style="fill:none;stroke:#000;stroke-width:2" d="M28,599 l0,-536 267,-31 268,31 0,536 -144,103 -41,268 -165,0 -41,-268 -144,-103" />
<path style="fill:none;stroke:#000;stroke-width:2" d="M213,950 l165,0" />
<path style="fill:none;stroke:#000;stroke-width:2" d="M28,599 l535,0" />
<path style="fill:none;stroke:#000;stroke-width:2" d="M28,84 l535,0" />
<path style="fill:#7f7f7f;stroke:#000;stroke-width:2" d="M445,687 l0,31 -299,0 0,-31 299,0z" />
<path style="fill:#7f7f7f;stroke:#000;stroke-width:2" d="M476,599 l0,207 -31,0 0,-207 31,0z" />
<path style="fill:#7f7f7f;stroke:#000;stroke-width:2" d="M470,806 l0,67 -19,0 0,-67 19,0z" />
<path style="fill:#7f7f7f;stroke:#000;stroke-width:2" d="M146,599 l0,207 -31,0 0,-207 31,0z" />
<path style="fill:#7f7f7f;stroke:#000;stroke-width:2" d="M141,806 l0,67 -20,0 0,-67 20,0z" />
<path style="fill:#e5e5e5" d="M136,599 l0,274 -10,0 0,-274 10,0z" />
<path style="fill:#e5e5e5" d="M466,599 l0,274 -10,0 0,-274 10,0z" />
<path style="fill:#fc0" d="M31,63 l13,0 0,619 -13,0 0,-619z" />
<path style="fill:#fc0" d="M97,63 l13,0 0,619 -13,0 0,-619z" />
<path style="fill:#fc0" d="M44,156 l53,0 0,13 -53,0 0,-13z" />
<path style="fill:#fc0" d="M44,261 l53,0 0,13 -53,0 0,-13z" />
<path style="fill:#fc0" d="M44,366 l53,0 0,13 -53,0 0,-13z" />
<path style="fill:#fc0" d="M44,471 l53,0 0,13 -53,0 0,-13z" />
<path style="fill:#fc0" d="M44,577 l53,0 0,13 -53,0 0,-13z" />
<path style="fill:#fc0" d="M44,103 l53,0 0,13 -53,0 0,-13z" />
<path style="fill:#fc0" d="M44,208 l53,0 0,13 -53,0 0,-13z" />
<path style="fill:#fc0" d="M44,313 l53,0 0,14 -53,0 0,-14z" />
<path style="fill:#fc0" d="M44,419 l53,0 0,13 -53,0 0,-13z" />
<path style="fill:#fc0" d="M44,524 l53,0 0,13 -53,0 0,-13z" />
<path style="fill:#fc0" d="M44,629 l53,0 0,13 -53,0 0,-13z" />

</svg>
