 

<svg xmlns:agg="http://www.example.com" xmlns="http://www.w3.org/2000/svg" preserveAspectRatio="none" width="0.9050in" height="1.0750in" viewBox="0 0 841 999">

<path style="fill:#666" d="M224,499 l157,-236 197,0 0,236 -354,0z" />
<path style="fill:#b2b2b2;stroke:#000;stroke-width:2" d="M185,499 l78,0 0,-196 -78,0 0,196z" />
<path style="fill:#7f7f7f" d="M200,312 l9,0 0,187 -9,0 0,-187z" />
<path style="fill:#7f7f7f" d="M28,499 l785,0 0,79 -785,0 0,-79z" />
<path style="fill:#7f7f7f" d="M28,892 l785,0 0,78 -785,0 0,-78z" />
<path style="fill:#919191" d="M87,499 l667,0 0,78 -667,0 0,-78z" />
<path style="fill:#919191" d="M87,891 l667,0 0,79 -667,0 0,-79z" />
<path style="fill:#a1a1a1" d="M146,499 l550,0 0,78 -550,0 0,-78z" />
<path style="fill:#a1a1a1" d="M146,891 l550,0 0,79 -550,0 0,-79z" />
<path style="fill:#b2b2b2" d="M205,499 l432,0 0,78 -432,0 0,-78z" />
<path style="fill:#b2b2b2" d="M205,891 l432,0 0,79 -432,0 0,-79z" />
<path style="fill:#c4c4c4" d="M264,499 l314,0 0,78 -314,0 0,-78z" />
<path style="fill:#c4c4c4" d="M264,891 l314,0 0,79 -314,0 0,-79z" />
<path style="fill:#d4d4d4" d="M322,499 l197,0 0,78 -197,0 0,-78z" />
<path style="fill:#d4d4d4" d="M322,891 l197,0 0,79 -197,0 0,-79z" />
<path style="fill:#e5e5e5" d="M381,499 l79,0 0,79 -79,0 0,-79z" />
<path style="fill:#e5e5e5" d="M381,892 l79,0 0,78 -79,0 0,-78z" />
<path style="fill:#b2b2b2;stroke:#000;stroke-width:2" d="M67,578 l707,0 0,314 -707,0 0,-314z" />
<path style="fill:#ccc" d="M185,578 l20,0 0,-79 -20,0 0,79z" />
<path style="fill:#ccc" d="M636,578 l20,0 0,-79 -20,0 0,79z" />
<path style="fill:#ccc" d="M185,970 l20,0 0,-78 -20,0 0,78z" />
<path style="fill:#ccc" d="M636,970 l20,0 0,-78 -20,0 0,78z" />
<path style="fill:none;stroke:#000;stroke-width:2" d="M48,578 l746,196" />
<path style="fill:none;stroke:#000;stroke-width:2" d="M794,578 l-746,196" />
<path style="fill:none;stroke:#000;stroke-width:2" d="M48,597 l746,196" />
<path style="fill:none;stroke:#000;stroke-width:2" d="M794,597 l-746,196" />
<path style="fill:none;stroke:#000;stroke-width:2" d="M48,617 l746,196" />
<path style="fill:none;stroke:#000;stroke-width:2" d="M794,617 l-746,196" />
<path style="fill:none;stroke:#000;stroke-width:2" d="M48,636 l746,197" />
<path style="fill:none;stroke:#000;stroke-width:2" d="M794,636 l-746,197" />
<path style="fill:none;stroke:#000;stroke-width:2" d="M48,656 l746,196" />
<path style="fill:none;stroke:#000;stroke-width:2" d="M794,656 l-746,196" />
<path style="fill:none;stroke:#000;stroke-width:2" d="M48,676 l746,196" />
<path style="fill:none;stroke:#000;stroke-width:2" d="M794,676 l-746,196" />
<path style="fill:none;stroke:#000;stroke-width:2" d="M48,695 l746,197" />
<path style="fill:none;stroke:#000;stroke-width:2" d="M794,695 l-746,197" />
<path style="fill:none;stroke:#000;stroke-width:2" d="M570,578 l224,58" />
<path style="fill:none;stroke:#000;stroke-width:2" d="M271,578 l-223,58" />
<path style="fill:none;stroke:#000;stroke-width:2" d="M496,578 l298,78" />
<path style="fill:none;stroke:#000;stroke-width:2" d="M345,578 l-297,78" />
<path style="fill:none;stroke:#000;stroke-width:2" d="M421,578 l373,98" />
<path style="fill:none;stroke:#000;stroke-width:2" d="M420,578 l-372,98" />
<path style="fill:none;stroke:#000;stroke-width:2" d="M347,578 l447,117" />
<path style="fill:none;stroke:#000;stroke-width:2" d="M494,578 l-446,117" />
<path style="fill:none;stroke:#000;stroke-width:2" d="M272,578 l522,137" />
<path style="fill:none;stroke:#000;stroke-width:2" d="M570,578 l-522,137" />
<path style="fill:none;stroke:#000;stroke-width:2" d="M198,578 l596,156" />
<path style="fill:none;stroke:#000;stroke-width:2" d="M644,578 l-596,156" />
<path style="fill:none;stroke:#000;stroke-width:2" d="M123,578 l671,176" />
<path style="fill:none;stroke:#000;stroke-width:2" d="M719,578 l-671,176" />
<path style="fill:none;stroke:#000;stroke-width:2" d="M48,715 l671,177" />
<path style="fill:none;stroke:#000;stroke-width:2" d="M794,715 l-671,177" />
<path style="fill:none;stroke:#000;stroke-width:2" d="M48,735 l596,157" />
<path style="fill:none;stroke:#000;stroke-width:2" d="M794,735 l-597,157" />
<path style="fill:none;stroke:#000;stroke-width:2" d="M48,754 l521,138" />
<path style="fill:none;stroke:#000;stroke-width:2" d="M794,754 l-522,138" />
<path style="fill:none;stroke:#000;stroke-width:2" d="M48,774 l447,118" />
<path style="fill:none;stroke:#000;stroke-width:2" d="M794,774 l-448,118" />
<path style="fill:none;stroke:#000;stroke-width:2" d="M48,794 l372,98" />
<path style="fill:none;stroke:#000;stroke-width:2" d="M794,794 l-373,98" />
<path style="fill:none;stroke:#000;stroke-width:2" d="M48,813 l298,79" />
<path style="fill:none;stroke:#000;stroke-width:2" d="M794,813 l-298,79" />
<path style="fill:none;stroke:#000;stroke-width:2" d="M48,833 l223,59" />
<path style="fill:none;stroke:#000;stroke-width:2" d="M794,833 l-223,59" />
<path style="fill:none;stroke:#000;stroke-width:2" d="M720,578 l74,19" />
<path style="fill:none;stroke:#000;stroke-width:2" d="M122,578 l-74,19" />
<path style="fill:none;stroke:#000;stroke-width:2" d="M646,578 l148,38" />
<path style="fill:none;stroke:#000;stroke-width:2" d="M196,578 l-148,38" />
<path style="fill:none;stroke:#000;stroke-width:2" d="M48,853 l148,39" />
<path style="fill:none;stroke:#000;stroke-width:2" d="M794,853 l-148,39" />
<path style="fill:none;stroke:#000;stroke-width:2" d="M48,872 l74,20" />
<path style="fill:none;stroke:#000;stroke-width:2" d="M794,872 l-74,20" />
<path style="fill:none;stroke:#000;stroke-width:2" d="M48,892 l0,-314" />
<path style="fill:none;stroke:#000;stroke-width:2" d="M794,892 l0,-314" />
<path style="fill:none;stroke:#000;stroke-width:2" d="M28,499 l785,0 0,79 -785,0 0,-79" />
<path style="fill:none;stroke:#000;stroke-width:2" d="M28,892 l785,0 0,78 -785,0 0,-78" />
<path style="fill:#7f7f7f" d="M185,578 l20,0 0,314 -20,0 0,-314z" />
<path style="fill:#7f7f7f" d="M636,578 l20,0 0,314 -20,0 0,-314z" />
<path style="fill:#ccc;stroke:#000;stroke-width:2" d="M617,224 l0,275 -118,0 0,-97 -28,11 -30,6 -41,1 -38,-8 -35,-15 -31,-21 -27,-27 -21,-32 -15,-35 -8,-38 -1,-20 1,-20 8,-38 15,-35 21,-32 27,-26 31,-21 35,-15 38,-8 20,-1 21,1 38,8 35,15 31,21 27,26 21,32 15,35 8,38 1,20z" />
<circle style="fill:#d9d9d9;stroke:#000;stroke-width:2" cx="420" cy="244" r="137" />
<circle style="fill:#000" cx="421" cy="244" r="78" />
<path style="fill:#666" d="M302,239 l10,0 0,10 -10,0 0,-10z" />
<path style="fill:#666" d="M316,299 l9,-5 5,8 -9,5 -5,-8z" />
<path style="fill:#666" d="M357,343 l5,-8 9,5 -5,9 -9,-6z" />
<path style="fill:#666" d="M416,362 l0,-10 10,0 0,10 -10,0z" />
<path style="fill:#666" d="M475,348 l-5,-9 9,-5 5,9 -9,5z" />
<path style="fill:#666" d="M520,307 l-8,-5 5,-9 8,5 -5,9z" />
<path style="fill:#666" d="M539,248 l-10,0 0,-10 10,0 0,10z" />
<path style="fill:#666" d="M525,189 l-9,5 -5,-9 9,-5 5,9z" />
<path style="fill:#666" d="M484,144 l-5,8 -9,-5 5,-8 9,5z" />
<path style="fill:#666" d="M425,125 l0,11 -10,0 0,-11 10,0z" />
<path style="fill:#666" d="M365,139 l6,9 -9,5 -5,-9 8,-5z" />
<path style="fill:#666" d="M321,180 l8,5 -5,9 -8,-5 5,-9z" />

</svg>
