 

<svg xmlns:agg="http://www.example.com" xmlns="http://www.w3.org/2000/svg" preserveAspectRatio="none" width="0.7576in" height="1.0750in" viewBox="0 0 704 999">

<path style="fill:#666;stroke:#000;stroke-width:2" d="M415,385 l88,0 0,-14 -88,0 0,14z" />
<path style="fill:#7f7f7f;stroke:#000;stroke-width:2" d="M323,311 l87,0 0,21 -87,0 0,-21z" />
<path style="fill:#999;stroke:#000;stroke-width:2" d="M622,546 l21,3 -4,34 -21,-2 4,-35z" />
<path style="fill:#ccc;stroke:#000;stroke-width:2" d="M627,546 l12,3 16,-143 -10,0 -18,140z" />
<path style="fill:#999;stroke:#000;stroke-width:2" d="M627,420 l-51,235 -78,0 -39,-235 168,0z" />
<path style="fill:#999;stroke:#000;stroke-width:2" d="M244,841 l19,0 0,26 -19,0 0,-26z" />
<path style="fill:#999;stroke:#000;stroke-width:2" d="M224,420 l59,0 0,78 -59,0 0,-78z" />
<path style="fill:#999;stroke:#000;stroke-width:2" d="M106,420 l60,0 0,78 -60,0 0,-78z" />
<path style="fill:#999;stroke:#000;stroke-width:2" d="M341,420 l60,0 0,78 -60,0 0,-78z" />
<path style="fill:#ccc;stroke:#000;stroke-width:2" d="M419,701 l0,-7 0,-6 0,-6 0,-184 -28,-20 -30,-16 -31,-12 -32,-7 -33,-4 -11,0 -11,0 -33,4 -33,7 -31,12 -30,16 -19,13 -9,7 0,203 3,31 10,28 15,26 20,23 25,18 28,14 31,9 25,3 9,0 8,0 33,-5 31,-10 27,-15 24,-20 19,-23 13,-27 8,-29 2,-23z" />
<path style="fill:#dedede" d="M380,701 l0,-7 0,-6 0,-6 0,-184 -21,-20 -23,-16 -24,-12 -25,-7 -25,-4 -8,0 -9,0 -33,6 -25,9 -24,13 -22,17 -7,7 -7,7 0,203 2,31 8,28 12,26 15,23 19,18 21,14 24,9 19,3 7,0 6,0 31,-7 23,-11 20,-16 17,-21 14,-24 10,-28 5,-30 0,-15z" />
<path style="fill:#f0f0f0" d="M323,701 l0,-7 0,-6 0,-6 0,-184 -16,-26 -22,-22 -27,-11 -4,0 -5,0 -27,11 -21,22 -13,19 -4,7 0,203 2,31 4,28 7,26 10,28 17,24 23,14 3,1 4,0 3,0 23,-12 17,-22 12,-27 7,-25 5,-28 2,-30 0,-8z" />
<ellipse style="fill:#fff" cx="253" cy="646" rx="29" ry="207" />
<path style="fill:#fff;stroke:#000;stroke-width:2" d="M67,401 l588,0 0,19 -588,0 0,-19z" />
<path style="fill:#fff;stroke:#000;stroke-width:2" d="M28,615 l451,0 0,60 -451,0 0,-60z" />
<path style="fill:#e5e5e5;stroke:#000;stroke-width:2" d="M49,675 l18,0 0,295 -18,0 0,-295z" />
<path style="fill:#e5e5e5;stroke:#000;stroke-width:2" d="M440,675 l19,0 0,295 -19,0 0,-295z" />
<path style="fill:#b2b2b2;stroke:#000;stroke-width:2" d="M67,931 l373,0 0,19 -373,0 0,-19z" />
<path style="fill:#fff;stroke:#000;stroke-width:2" d="M493,576 l162,0 0,196 -162,0 0,-196z" />
<path style="fill:#e5e5e5;stroke:#000;stroke-width:2" d="M459,853 l196,0 0,39 -196,0 0,-39z" />
<path style="fill:#ccc;stroke:#000;stroke-width:2" d="M636,892 l19,0 0,78 -19,0 0,-78z" />
<path style="fill:#ccc;stroke:#000;stroke-width:2" d="M615,772 l21,0 0,81 -21,0 0,-81z" />
<circle style="fill:#e5e5e5;stroke:#000;stroke-width:2" cx="576" cy="812" r="39" />
<path style="fill:none;stroke:#000;stroke-width:2" d="M88,498 l331,0 0,78 -331,0 0,-78" />
<path style="fill:#999;stroke:#000;stroke-width:2" d="M28,959 l60,0 0,11 -60,0 0,-11z" />
<path style="fill:#999;stroke:#000;stroke-width:2" d="M419,959 l60,0 0,11 -60,0 0,-11z" />
<path style="fill:#999;stroke:#000;stroke-width:2" d="M615,959 l60,0 0,11 -60,0 0,-11z" />
<path style="fill:#ccc;stroke:#000;stroke-width:2" d="M240,867 l27,0 0,4 -27,0 0,-4z" />
<path style="fill:#e5e5e5;stroke:#000;stroke-width:2" d="M249,871 l9,0 0,9 -9,0 0,-9z" />
<path style="fill:#e5e5e5;stroke:#000;stroke-width:2" d="M76,484 l353,0 0,9 -353,0 0,-9z" />
<path style="fill:#e5e5e5;stroke:#000;stroke-width:2" d="M76,459 l353,0 0,11 -353,0 0,-11z" />
<path style="fill:#ccc;stroke:#000;stroke-width:2" d="M131,498 l10,0 0,-28 13,-21 -9,-4 -9,14 -11,-14 -10,4 16,21 0,28z" />
<path style="fill:#ccc;stroke:#000;stroke-width:2" d="M249,498 l9,0 0,-28 14,-21 -9,-4 -9,14 -10,-14 -11,4 16,21 0,28z" />
<path style="fill:#ccc;stroke:#000;stroke-width:2" d="M366,498 l10,0 0,-28 13,-21 -9,-4 -9,14 -9,-14 -12,4 16,21 0,28z" />
<path style="fill:#ccc;stroke:#000;stroke-width:2" d="M189,498 l12,0 0,-28 13,-21 -9,-4 -11,14 -10,-14 -9,4 14,21 0,28z" />
<path style="fill:#ccc;stroke:#000;stroke-width:2" d="M307,498 l11,0 0,-28 14,-21 -9,-4 -12,14 -9,-14 -9,4 14,21 0,28z" />
<circle style="fill:#fff;stroke:#000;stroke-width:2" cx="531" cy="736" r="17" />
<circle style="fill:#fff;stroke:#000;stroke-width:2" cx="575" cy="736" r="17" />
<circle style="fill:#fff;stroke:#000;stroke-width:2" cx="619" cy="736" r="17" />
<circle style="fill:#fff;stroke:#000;stroke-width:2" cx="531" cy="697" r="17" />
<circle style="fill:#fff;stroke:#000;stroke-width:2" cx="575" cy="697" r="17" />
<circle style="fill:#fff;stroke:#000;stroke-width:2" cx="619" cy="697" r="17" />
<circle style="fill:#fff;stroke:#000;stroke-width:2" cx="575" cy="619" r="17" />
<circle style="fill:#fff;stroke:#000;stroke-width:2" cx="619" cy="619" r="17" />
<path style="fill:#b2b2b2;stroke:#000;stroke-width:2" d="M509,597 l44,0 0,44 -44,0 0,-44z" />
<circle style="fill:#fff;stroke:#000;stroke-width:2" cx="531" cy="619" r="17" />
<path style="fill:#b2b2b2;stroke:#000;stroke-width:2" d="M184,401 l139,0 0,-21 -139,0 0,21z" />
<path style="fill:#ccc;stroke:#000;stroke-width:2" d="M205,380 l0,-97 97,0 0,10 21,0 0,57 -21,0 0,30 -97,0z" />
<path style="fill:#b2b2b2;stroke:#000;stroke-width:2" d="M205,263 l97,0 0,20 -97,0 0,-20z" />
<path style="fill:#e5e5e5;stroke:#000;stroke-width:2" d="M509,145 l106,0 0,226 -106,0 0,-226z" />
<path style="fill:#ccc;stroke:#000;stroke-width:2" d="M205,175 l97,0 0,19 -97,0 0,-19z" />
<path style="fill:#fff;stroke:#000;stroke-width:2" d="M214,194 l10,69 59,0 10,-69 -10,0 -11,50 -39,0 -9,-50 -10,0z" />
<path style="fill:#fff;stroke:#000;stroke-width:2" d="M233,224 l39,0 0,20 -39,0 0,-20z" />
<path style="fill:#fff;stroke:#000;stroke-width:2" d="M244,205 l19,0 0,19 -19,0 0,-19z" />
<path style="fill:#fff;stroke:#000;stroke-width:2" d="M249,194 l9,0 0,11 -9,0 0,-11z" />
<path style="fill:#ccc;stroke:#000;stroke-width:2" d="M332,401 l57,0 0,-39 12,-12 0,-57 -12,-10 -57,0 0,118z" />
<path style="fill:#ccc;stroke:#000;stroke-width:2" d="M419,380 l0,-117 79,0 0,117 -79,0z" />
<path style="fill:#b2b2b2;stroke:#000;stroke-width:2" d="M419,380 l-9,-9 0,-99 9,-9 0,117z" />
<path style="fill:#b2b2b2;stroke:#000;stroke-width:2" d="M389,362 l0,-79 12,10 0,57 -12,12z" />
<path style="fill:#b2b2b2;stroke:#000;stroke-width:2" d="M498,263 l11,0 0,108 -11,0 0,-108z" />
<path style="fill:#999;stroke:#000;stroke-width:2" d="M406,401 l108,0 0,-16 -108,0 0,16z" />
<path style="fill:#e5e5e5;stroke:#000;stroke-width:2" d="M615,279 l17,0 0,92 -17,0 0,-92z" />
<path style="fill:#e5e5e5;stroke:#000;stroke-width:2" d="M615,175 l26,0 0,39 -26,0 0,-39z" />
<path style="fill:#b2b2b2;stroke:#000;stroke-width:2" d="M424,166 l85,0 0,62 -85,0 0,-62z" />
<path style="fill:#999;stroke:#000;stroke-width:2" d="M436,154 l62,0 0,86 -62,0 0,-86z" />
<path style="fill:none;stroke:#000;stroke-width:2" d="M436,203 l62,0" />
<path style="fill:none;stroke:#000;stroke-width:2" d="M436,191 l62,0" />
<path style="fill:none;stroke:#000;stroke-width:2" d="M436,182 l62,0" />
<path style="fill:none;stroke:#000;stroke-width:2" d="M436,171 l62,0" />
<path style="fill:none;stroke:#000;stroke-width:2" d="M436,159 l62,0" />
<path style="fill:none;stroke:#000;stroke-width:2" d="M436,212 l62,0" />
<path style="fill:none;stroke:#000;stroke-width:2" d="M436,224 l62,0" />
<path style="fill:none;stroke:#000;stroke-width:2" d="M436,233 l62,0" />
<path style="fill:#b2b2b2;stroke:#000;stroke-width:2" d="M214,175 l-9,-147 97,0 -9,147 -79,0z" />
<path style="fill:#999;stroke:#000;stroke-width:2" d="M205,67 l97,0 0,78 -97,0 0,-78z" />
<path style="fill:none;stroke:#000;stroke-width:2" d="M210,67 l0,78" />
<path style="fill:none;stroke:#000;stroke-width:2" d="M219,67 l0,78" />
<path style="fill:none;stroke:#000;stroke-width:2" d="M230,67 l0,78" />
<path style="fill:none;stroke:#000;stroke-width:2" d="M286,67 l0,78" />
<path style="fill:none;stroke:#000;stroke-width:2" d="M277,67 l0,78" />
<path style="fill:none;stroke:#000;stroke-width:2" d="M265,67 l0,78" />
<path style="fill:none;stroke:#000;stroke-width:2" d="M254,67 l0,78" />
<path style="fill:none;stroke:#000;stroke-width:2" d="M242,67 l0,78" />
<path style="fill:none;stroke:#000;stroke-width:2" d="M297,67 l0,78" />

</svg>
