 

<svg xmlns:agg="http://www.example.com" xmlns="http://www.w3.org/2000/svg" preserveAspectRatio="none" width="1.2770in" height="1.0750in" viewBox="0 0 999 841">

<path style="fill:#bfbfbf;stroke:#000;stroke-width:2" d="M504,342 l152,0 0,260 -152,0 0,-260z" />
<circle style="fill:#e5e5e0;stroke:#000;stroke-width:2" cx="778" cy="483" r="191" />
<circle style="fill:#a6a699;stroke:#000;stroke-width:2" cx="778" cy="483" r="142" />
<circle style="fill:#333;stroke:#000;stroke-width:2" cx="779" cy="483" r="39" />
<path style="fill:#ccc;stroke:#000;stroke-width:2" d="M970,675 l-333,0 0,99 333,0 0,-99z" />
<path style="fill:#ccc;stroke:#000;stroke-width:2" d="M28,146 l137,0 0,34 -137,0 0,-34z" />
<path style="fill:#ccc;stroke:#000;stroke-width:2" d="M38,180 l14,0 0,495 -14,0 0,-495z" />
<path style="fill:#ccc;stroke:#000;stroke-width:2" d="M558,96 l20,0 0,157 -20,0 0,-157z" />
<path style="fill:#999991;stroke:#000;stroke-width:2" d="M185,616 l353,0 0,118 -353,0 0,-118z" />
<path style="fill:#ccccc2;stroke:#000;stroke-width:2" d="M77,28 l181,0 0,176 -181,0 0,-176z" />
<path style="fill:#d9d9d1;stroke:#000;stroke-width:2" d="M146,72 l137,0 0,73 -137,0 0,-73z" />
<path style="fill:#e5e5e5;stroke:#000;stroke-width:2" d="M165,136 l393,0 0,78 -393,0 0,-78z" />
<path style="fill:#bfbfbf;stroke:#000;stroke-width:2" d="M185,214 l314,0 0,79 -314,0 0,-79z" />
<path style="fill:#e5e5e5;stroke:#000;stroke-width:2" d="M542,261 l28,28 -35,35 -28,-28 35,-35z" />
<path style="fill:#e5e5e5;stroke:#000;stroke-width:2" d="M570,650 l-28,28 -35,-35 28,-27 35,34z" />
<path style="fill:#e5e5e5;stroke:#000;stroke-width:2" d="M636,450 l0,39 -49,0 0,-39 49,0z" />
<path style="fill:#e5e5e5;stroke:#000;stroke-width:2" d="M181,678 l-28,-28 35,-35 27,28 -34,35z" />
<path style="fill:#e5e5e5;stroke:#000;stroke-width:2" d="M153,289 l28,-28 35,35 -28,27 -35,-34z" />
<path style="fill:#e5e5e5;stroke:#000;stroke-width:2" d="M87,489 l0,-39 49,0 0,39 -49,0z" />
<path style="fill:#4c4c4c" d="M627,460 l0,19 -30,0 0,-19 30,0z" />
<path style="fill:#4c4c4c" d="M556,650 l-14,14 -21,-21 14,-14 21,21z" />
<path style="fill:#4c4c4c" d="M181,664 l-14,-14 21,-21 14,14 -21,21z" />
<path style="fill:#4c4c4c" d="M96,479 l0,-19 30,0 0,19 -30,0z" />
<path style="fill:#4c4c4c" d="M167,289 l14,-14 21,21 -14,14 -21,-21z" />
<path style="fill:#4c4c4c" d="M542,275 l14,14 -21,21 -14,-14 21,-21z" />
<circle style="fill:#e5e5e0;stroke:#000;stroke-width:2" cx="361" cy="469" r="255" />
<path style="fill:none;stroke:#7f7f7f;stroke-width:2" d="M244,265 l6,-3 7,-4 7,-3 7,-3 7,-3 7,-3 8,-2 7,-2 8,-2 8,-1 7,-2 8,-1 7,-1 8,-1 8,0 7,0" />
<path style="fill:#f2f2ef" d="M564,352 l14,27 11,30 6,30 1,15 1,8 0,7 -3,36 -8,35 -12,32 -17,29 -21,27 -25,23 -28,20 -30,16 -33,11 -35,6 -12,1 -12,0 -12,0 -35,-5 -33,-9 -32,-15 -28,-18 -26,-22 -22,-26 -19,-28 -14,-32 -9,-33 -5,-36 0,-12 0,-15 5,-31 8,-30 12,-28 15,-27 19,-23 21,-22 24,-18 14,-8 59,100 -25,19 -18,24 -12,29 -4,30 5,35 15,31 23,25 29,18 33,9 36,-2 32,-12 28,-20 20,-28 12,-32 2,-27 -4,-27 -9,-25 -2,-4 -122,-137 -39,-78 0,-118 117,0 0,98 20,39 124,138z" />
<path style="fill:none;stroke:#000;stroke-width:2" d="M303,367 l-25,19 -18,24 -12,29 -4,30 5,35 15,31 23,25 29,18 33,9 36,-2 32,-12 28,-20 20,-28 12,-32 2,-27 -4,-27 -9,-25 -2,-4 -122,-137 -39,-78 0,-118 117,0 0,98 20,39 124,138 14,27 11,30 6,30 1,15 1,8 0,7 -3,36 -8,35 -12,32 -17,29 -21,27 -25,23 -28,20 -30,16 -33,11 -35,6 -12,1 -12,0 -12,0 -35,-5 -33,-9 -32,-15 -28,-18 -26,-22 -22,-26 -19,-28 -14,-32 -9,-33 -5,-36 0,-12 0,-15 5,-31 8,-30 12,-28 15,-27 19,-23 21,-22 24,-18 14,-8" />
<path style="fill:#ccc" d="M170,141 l93,0 0,54 -93,0 0,-54z" />
<path style="fill:none;stroke:#000;stroke-width:2" d="M165,195 l98,0" />
<path style="fill:#d9d9d9;stroke:#000;stroke-width:2" d="M558,244 l-98,-30 98,-5 0,35z" />
<path style="fill:#d9d9d9;stroke:#000;stroke-width:2" d="M460,170 l98,0 0,10 -98,0 0,-10z" />
<path style="fill:#d9d9d9;stroke:#000;stroke-width:2" d="M558,141 l-98,-5 98,-30 0,35z" />
<path style="fill:#e5e5e5;stroke:#000;stroke-width:2" d="M28,675 l157,0 0,59 353,0 0,-59 99,0 0,138 -609,0 0,-138z" />
<path style="fill:#000" d="M769,420 l20,0 0,-59 -20,0 0,59z" />
<path style="fill:#000" d="M817,432 l14,14 42,-42 -14,-14 -42,42z" />
<path style="fill:#000" d="M843,474 l0,20 59,0 0,-20 -59,0z" />
<path style="fill:#000" d="M831,522 l-14,14 42,42 14,-14 -42,-42z" />
<path style="fill:#000" d="M789,548 l-20,0 0,59 20,0 0,-59z" />
<path style="fill:#000" d="M741,536 l-14,-14 -42,42 14,14 42,-42z" />
<path style="fill:#000" d="M715,494 l0,-20 -59,0 0,20 59,0z" />
<path style="fill:#000" d="M727,446 l14,-14 -42,-42 -14,14 42,42z" />
<path style="fill:#d9d9d1;stroke:#000;stroke-width:2" d="M597,675 l20,-39 324,0 19,39 -363,0z" />
<path style="fill:#e5e5e5" d="M243,86 l20,21 -21,21 -20,-21 21,-21z" />
<path style="fill:#e5e5e5" d="M194,86 l20,21 -21,21 -20,-21 21,-21z" />
<path style="fill:#a6a69c" d="M234,96 l20,0 0,20 -20,0 0,-20z" />
<path style="fill:#a6a69c" d="M185,96 l20,0 0,20 -20,0 0,-20z" />

</svg>
