 

<svg xmlns:agg="http://www.example.com" xmlns="http://www.w3.org/2000/svg" preserveAspectRatio="none" width="1.0320in" height="1.0750in" viewBox="0 0 959 999">

<ellipse style="fill:#00007f;stroke:#000;stroke-width:2" cx="366" cy="915" rx="15" ry="13" />
<path style="fill:#0000bf;stroke:#000;stroke-width:2" d="M70,489 l30,-12 128,312 -29,12 -129,-312z" />
<path style="fill:#00f" d="M80,485 l10,-4 129,312 -10,4 -129,-312z" />
<path style="fill:#00008c;stroke:#000;stroke-width:2" d="M160,812 l443,0 0,85 -443,0 0,-85z" />
<path style="fill:#0000bf" d="M508,168 l0,338 -105,253 -127,0 -106,-253 0,-338 21,-21 29,-9 39,-8 30,-3 33,-1 17,-1 34,1 32,3 29,3 35,9 26,10 13,17z" />
<path style="fill:#00f" d="M244,780 l190,0 159,21 0,106 -423,0 0,-106 74,-21z" />
<path style="fill:#0000d9" d="M170,875 l423,0 0,11 -423,0 0,-11z" />
<path style="fill:#0000bf" d="M170,907 l423,0 0,-21 -423,0 0,21z" />
<path style="fill:none;stroke:#000;stroke-width:2" d="M244,780 l190,0 159,21 0,106 -423,0 0,-106 74,-21" />
<path style="fill:#7f7fff;stroke:#000;stroke-width:2" d="M265,759 l148,0 0,21 -148,0 0,-21z" />
<path style="fill:#7f7fff;stroke:#000;stroke-width:2" d="M244,823 l349,0 0,10 -349,0 0,-10z" />
<path style="fill:#7f7fff;stroke:#000;stroke-width:2" d="M572,960 l0,-95 10,0 0,95 -10,0z" />
<path style="fill:#7f7fff;stroke:#000;stroke-width:2" d="M181,960 l0,-95 10,0 0,95 -10,0z" />
<path style="fill:#0000bf;stroke:#000;stroke-width:2" d="M212,970 l-52,0 0,-10 52,0 0,10z" />
<path style="fill:#0000bf;stroke:#000;stroke-width:2" d="M603,970 l-52,0 0,-10 52,0 0,10z" />
<path style="fill:#00f;stroke:#000;stroke-width:2" d="M603,780 l22,0 0,148 -22,0 0,-148z" />
<path style="fill:#00f;stroke:#000;stroke-width:2" d="M138,780 l22,0 0,148 -22,0 0,-148z" />
<path style="fill:#00f" d="M931,812 l0,84 -306,11 0,-106 306,11z" />
<path style="fill:#0000bf" d="M625,907 l306,-11 0,-21 -306,11 0,21z" />
<path style="fill:#0000d9" d="M625,875 l306,-10 0,10 -306,11 0,-11z" />
<path style="fill:none;stroke:#000;stroke-width:2" d="M931,812 l0,84 -306,11 0,-106 306,11" />
<path style="fill:none;stroke:#7f7fff;stroke-width:2" d="M625,854 l306,0" />
<path style="fill:none;stroke:#7f7fff;stroke-width:2" d="M625,822 l306,11" />
<path style="fill:#0000d9" d="M603,896 l21,0 0,11 -21,0 0,-11z" />
<path style="fill:#0000d9" d="M138,896 l21,0 0,11 -21,0 0,-11z" />
<path style="fill:#0000bf" d="M603,928 l21,0 0,-21 -21,0 0,21z" />
<path style="fill:#0000bf" d="M138,928 l21,0 0,-21 -21,0 0,21z" />
<path style="fill:#0000d9" d="M477,168 l0,338 -86,253 -103,0 -86,-253 0,-338 17,-21 23,-9 32,-8 38,-4 27,-1 28,1 38,4 31,8 24,9 17,21z" />
<path style="fill:#00f" d="M466,168 l0,338 -79,253 -95,0 -80,-253 0,-338 16,-21 31,-12 31,-6 36,-3 13,-1 38,2 33,5 27,9 23,14 6,13z" />
<path style="fill:#6161ff" d="M434,168 l0,338 -59,253 -71,0 -60,-253 0,-338 16,-24 26,-12 34,-6 19,-1 28,2 33,8 23,12 11,21z" />
<path style="fill:#7f7fff" d="M382,168 l0,338 -27,253 -32,0 -26,-253 0,-338 1,-9 2,-8 4,-7 6,-6 6,-6 7,-3 8,-3 8,-1 9,1 8,3 7,3 6,6 5,6 4,7 3,8 1,9z" />
<path style="fill:none;stroke:#000;stroke-width:2" d="M508,168 l0,338 -105,253 -127,0 -106,-253 0,-338 21,-21 29,-9 39,-8 30,-3 33,-1 17,-1 34,1 32,3 29,3 35,9 26,10 13,17" />
<path style="fill:#00f;stroke:#000;stroke-width:2" d="M445,231 l53,0 0,148 -53,0 0,-148z" />
<path style="fill:#0000d9;stroke:#000;stroke-width:2" d="M498,379 l74,-11 0,-127 -74,-10 0,148z" />
<path style="fill:none;stroke:#000;stroke-width:2" d="M170,506 l338,0" />
<ellipse style="fill:#0000d9;stroke:#000;stroke-width:2" cx="254" cy="210" rx="25" ry="42" />
<ellipse style="fill:#0000bf;stroke:#000;stroke-width:2" cx="253" cy="210" rx="19" ry="34" />
<path style="fill:#0000bf;stroke:#000;stroke-width:2" d="M54,416 l37,0 0,-254 -37,0 0,254z" />
<path style="fill:#00f" d="M65,416 l15,0 0,-254 -15,0 0,254z" />
<path style="fill:#0000bf;stroke:#000;stroke-width:2" d="M28,83 l84,0 0,79 -84,0 0,-79z" />
<path style="fill:#0000bf;stroke:#000;stroke-width:2" d="M96,453 l0,-37 -53,0 0,47 22,43 47,-22 -16,-31z" />
<path style="fill:#0000bf;stroke:#000;stroke-width:2" d="M159,733 l49,-21 16,39 -49,20 -16,-38z" />
<path style="fill:#0000bf;stroke:#000;stroke-width:2" d="M70,517 l49,-20 16,39 -49,20 -16,-39z" />
<path style="fill:#0000bf;stroke:#000;stroke-width:2" d="M93,572 l48,-21 8,19 -48,20 -8,-18z" />
<path style="fill:#00007f;stroke:#000;stroke-width:2" d="M126,83 l42,4 -41,452 -41,-4 40,-452z" />
<path style="fill:#00007f;stroke:#000;stroke-width:2" d="M281,41 l0,42 -105,0 0,-42 105,0z" />
<path style="fill:#0000bf;stroke:#000;stroke-width:2" d="M281,93 l0,-63 90,0 0,106 -64,0 0,-43 -26,0z" />
<path style="fill:#0000bf;stroke:#000;stroke-width:2" d="M281,93 l0,-63 90,0 0,106 -64,0 0,-43 -26,0z" />
<path style="fill:#0000bf;stroke:#000;stroke-width:2" d="M201,96 l4,-63 -90,-5 -6,105 63,4 3,-43 26,2z" />
<path style="fill:#00f;stroke:#000;stroke-width:2" d="M469,765 l99,12 -2,21 -100,-12 3,-21z" />
<path style="fill:#00f;stroke:#000;stroke-width:2" d="M555,710 l5,4 -45,59 -4,-4 44,-59z" />
<ellipse style="fill:#0000bf;stroke:#000;stroke-width:2" cx="523" cy="758" rx="21" ry="18" />
<path style="fill:#00f;stroke:#000;stroke-width:2" d="M548,705 l3,-4 21,15 -4,5 -20,-16z" />
<path style="fill:#7f7fff;stroke:#000;stroke-width:2" d="M360,923 l0,-74 11,0 0,74 -11,0z" />

</svg>
