 

<svg xmlns:agg="http://www.example.com" xmlns="http://www.w3.org/2000/svg" preserveAspectRatio="none" width="0.8533in" height="1.0750in" viewBox="0 0 793 999">

<path style="fill:#657f72" d="M560,28 l-164,0 0,11 -184,0 0,51 184,0 0,9 164,0 0,-71z" />
<path style="fill:#7a9487" d="M561,33 l-164,0 0,9 -185,0 0,42 185,0 0,9 164,0 0,-60z" />
<path style="fill:#8ea89b" d="M561,39 l-164,0 0,7 -185,0 0,34 185,0 0,6 164,0 0,-47z" />
<path style="fill:#a3bdb0" d="M561,46 l-164,0 0,4 -185,0 0,27 185,0 0,3 164,0 0,-34z" />
<path style="fill:#b7d1c4" d="M561,52 l-164,0 0,4 -185,0 0,15 185,0 0,3 164,0 0,-22z" />
<path style="fill:#cbe5d8" d="M560,58 l-164,0 0,2 -184,0 0,7 184,0 0,2 164,0 0,-11z" />
<path style="fill:none;stroke:#000;stroke-width:2" d="M560,28 l-164,0 0,11 -184,0 0,51 184,0 0,9 164,0 0,-71" />
<path style="fill:#4c6659" d="M28,233 l41,0 245,737 164,0 245,-737 42,0 -21,-62 -696,0 -20,62z" />
<path style="fill:#004c19" d="M141,233 l190,717 128,0 193,-717 -511,0z" />
<path style="fill:#004a17" d="M173,233 l167,717 112,0 168,-717 -447,0z" />
<path style="fill:#004512" d="M205,233 l143,717 96,0 144,-717 -383,0z" />
<path style="fill:#00420f" d="M237,233 l121,717 79,0 118,-717 -318,0z" />
<path style="fill:#003d0a" d="M269,233 l96,717 62,0 96,-717 -254,0z" />
<path style="fill:#003b08" d="M301,233 l72,717 47,0 71,-717 -190,0z" />
<path style="fill:#003603" d="M333,233 l47,717 32,0 47,-717 -126,0z" />
<path style="fill:#030" d="M365,233 l23,717 17,0 22,-717 -62,0z" />
<path style="fill:none;stroke:#000;stroke-width:2" d="M652,233 l-511,0 190,717" />
<path style="fill:none;stroke:#000;stroke-width:2" d="M28,233 l41,0 245,737 164,0 245,-737 42,0 -21,-62 -696,0 -20,62" />
<path style="fill:#000" d="M548,324 l-6,-21 13,-4 57,38 6,21 -17,3 -53,-37z" />
<path style="fill:#000" d="M533,380 l-6,-21 14,-3 56,37 6,21 -17,4 -53,-38z" />
<path style="fill:#000" d="M518,435 l-4,-21 12,-4 56,38 6,21 -17,4 -53,-38z" />
<path style="fill:#000" d="M503,491 l-4,-20 11,-4 57,38 6,20 -18,4 -52,-38z" />
<path style="fill:#000" d="M488,548 l-4,-23 11,-2 57,37 6,22 -17,4 -53,-38z" />
<path style="fill:#000" d="M473,603 l-4,-21 11,-4 57,38 5,21 -16,3 -53,-37z" />
<path style="fill:#000" d="M457,659 l-3,-20 11,-4 57,37 5,21 -15,4 -55,-38z" />
<path style="fill:#000" d="M443,714 l-4,-21 11,-3 57,37 5,21 -15,6 -54,-40z" />
<path style="fill:#000" d="M429,770 l-5,-20 13,-4 54,38 6,21 -15,3 -53,-38z" />
<path style="fill:#000" d="M414,827 l-5,-20 13,-5 54,37 6,22 -15,4 -53,-38z" />
<path style="fill:#000" d="M399,882 l-6,-21 14,-4 55,38 5,21 -15,3 -53,-37z" />
<path style="fill:#196640" d="M584,275 l21,5 -180,670 -20,-6 179,-669z" />
<path style="fill:#657f72" d="M592,276 l5,2 -179,670 -8,-2 182,-670z" />
<path style="fill:#196640" d="M462,895 l5,21 -83,22 -6,-20 84,-23z" />
<path style="fill:#196640" d="M476,839 l6,20 -83,23 -6,-21 83,-22z" />
<path style="fill:#196640" d="M491,784 l6,21 -83,22 -5,-20 82,-23z" />
<path style="fill:#196640" d="M507,727 l5,21 -83,22 -5,-20 83,-23z" />
<path style="fill:#196640" d="M522,672 l5,21 -83,23 -5,-23 83,-21z" />
<path style="fill:#196640" d="M537,616 l5,21 -85,22 -3,-20 83,-23z" />
<path style="fill:#196640" d="M552,560 l6,20 -85,23 -6,-21 85,-22z" />
<path style="fill:#196640" d="M567,505 l6,20 -85,23 -6,-21 85,-22z" />
<path style="fill:#196640" d="M582,448 l6,21 -85,22 -6,-20 85,-23z" />
<path style="fill:#196640" d="M597,392 l6,20 -85,23 -6,-21 85,-22z" />
<path style="fill:#196640" d="M612,337 l6,21 -85,22 -6,-21 85,-22z" />
<path style="fill:#196640" d="M625,280 l6,21 -83,23 -6,-21 83,-23z" />
<path style="fill:#657f72" d="M463,903 l2,5 -83,23 -2,-6 83,-22z" />
<path style="fill:#657f72" d="M478,846 l2,8 -83,22 -1,-8 82,-22z" />
<path style="fill:#657f72" d="M494,789 l1,8 -83,23 -2,-8 84,-23z" />
<path style="fill:#657f72" d="M508,735 l2,7 -83,23 -2,-8 83,-22z" />
<path style="fill:#657f72" d="M523,678 l3,8 -83,23 -2,-8 82,-23z" />
<path style="fill:#657f72" d="M539,624 l2,5 -85,23 -2,-8 85,-20z" />
<path style="fill:#657f72" d="M554,567 l1,7 -84,23 -2,-8 85,-22z" />
<path style="fill:#657f72" d="M569,510 l2,8 -85,23 -2,-8 85,-23z" />
<path style="fill:#657f72" d="M584,456 l2,5 -85,23 -2,-6 85,-22z" />
<path style="fill:#657f72" d="M599,399 l2,7 -85,23 -2,-7 85,-23z" />
<path style="fill:#657f72" d="M614,342 l2,8 -85,23 -2,-8 85,-23z" />
<path style="fill:#657f72" d="M629,288 l2,7 -85,23 -2,-8 85,-22z" />
<path style="fill:none;stroke:#6c9;stroke-width:2" d="M331,950 l128,0 193,-717" />
<path style="fill:#657f72" d="M273,171 l0,-21 41,0 10,-9 32,0 0,-30 -11,0 0,-83 103,0 0,83 -11,0 0,30 30,0 11,9 42,0 0,21 -247,0z" />
<path style="fill:#7a9487" d="M294,171 l0,-21 33,0 10,-9 27,0 0,-32 -10,0 0,-81 85,0 0,81 -8,0 0,32 25,0 9,9 34,0 0,21 -205,0z" />
<path style="fill:#8ea89b" d="M314,171 l0,-21 29,0 5,-9 21,0 0,-32 -5,0 0,-81 67,0 0,81 -7,0 0,32 20,0 8,9 26,0 0,21 -164,0z" />
<path style="fill:#a3bdb0" d="M335,171 l0,-21 21,0 3,-9 18,0 0,-32 -6,0 0,-81 51,0 0,81 -4,0 0,32 15,0 4,9 20,0 0,21 -122,0z" />
<path style="fill:#b7d1c4" d="M356,171 l0,-21 13,0 4,-9 9,0 0,-32 -2,0 0,-81 34,0 0,81 -4,0 0,32 10,0 4,9 13,0 0,21 -81,0z" />
<path style="fill:#cbe5d8" d="M375,171 l0,-21 7,0 2,-9 6,0 0,-30 -2,0 0,-83 17,0 0,83 -2,0 0,30 6,0 1,9 6,0 0,21 -41,0z" />
<path style="fill:none;stroke:#000;stroke-width:2" d="M273,171 l0,-21 41,0 10,-9 32,0 0,-30 -11,0 0,-83 103,0 0,83 -11,0 0,30 30,0 11,9 42,0 0,21 -247,0" />
<path style="fill:none;stroke:#7f998c;stroke-width:2" d="M356,111 l81,0" />
<path style="fill:none;stroke:#7f998c;stroke-width:2" d="M356,141 l81,0" />
<path style="fill:none;stroke:#7f998c;stroke-width:2" d="M314,150 l164,0" />
<path style="fill:#194c3f" d="M365,233 l0,113 62,0 0,-113 -62,0z" />
<path style="fill:#295c4f" d="M371,233 l0,112 51,0 0,-112 -51,0z" />
<path style="fill:#386b5e" d="M377,233 l0,112 41,0 0,-112 -41,0z" />
<path style="fill:#477a6d" d="M380,233 l0,112 32,0 0,-112 -32,0z" />
<path style="fill:#578a7d" d="M386,233 l0,112 21,0 0,-112 -21,0z" />
<path style="fill:#66998c" d="M392,233 l0,113 9,0 0,-113 -9,0z" />
<path style="fill:none;stroke:#000;stroke-width:2" d="M365,233 l0,113 62,0 0,-113 -62,0" />
<path style="fill:#194c3f" d="M416,329 l179,0 0,-60 -179,0 0,60z" />
<path style="fill:#295c4f" d="M416,326 l179,0 0,-53 -179,0 0,53z" />
<path style="fill:#386b5e" d="M416,320 l179,0 0,-42 -179,0 0,42z" />
<path style="fill:#477a6d" d="M416,314 l179,0 0,-30 -179,0 0,30z" />
<path style="fill:#578a7d" d="M416,310 l179,0 0,-22 -179,0 0,22z" />
<path style="fill:#66998c" d="M416,305 l179,0 0,-11 -179,0 0,11z" />
<path style="fill:none;stroke:#000;stroke-width:2" d="M416,329 l179,0 0,-60 -179,0 0,60" />
<path style="fill:#194c3f" d="M569,246 l-25,89 70,19 23,-91 -68,-17z" />
<path style="fill:#295c4f" d="M574,246 l-24,91 58,15 23,-89 -57,-17z" />
<path style="fill:#386b5e" d="M580,248 l-25,89 48,13 22,-89 -45,-13z" />
<path style="fill:#477a6d" d="M586,250 l-25,89 36,9 23,-88 -34,-10z" />
<path style="fill:#578a7d" d="M592,252 l-25,88 25,6 22,-89 -22,-5z" />
<path style="fill:#66998c" d="M597,254 l-24,88 11,4 24,-90 -11,-2z" />
<path style="fill:none;stroke:#000;stroke-width:2" d="M569,246 l-25,89 70,19 23,-91 -68,-17" />

</svg>
