 

<svg xmlns:agg="http://www.example.com" xmlns="http://www.w3.org/2000/svg" preserveAspectRatio="none" width="0.5262in" height="1.0750in" viewBox="0 0 489 999">

<path style="fill:#fff;stroke:#000;stroke-width:2" d="M443,141 l18,5 -34,127 -18,-4 34,-128z" />
<path style="fill:#b2b2b2" d="M424,66 l-1,-4 -22,-18 -25,-7 -33,-6 -38,-3 -13,0 -39,2 -35,4 -28,8 -24,12 -6,8 0,4 0,527 37,189 0,19 189,0 0,-19 38,-189 0,-527z" />
<path style="fill:#4c4c4c" d="M216,801 l151,0 0,169 -151,0 0,-169z" />
<path style="fill:#c4c4c4" d="M393,65 l-18,-21 -27,-10 -26,-5 -20,-1 -10,0 -10,0 -29,3 -32,8 -25,15 -4,7 0,4 0,17 0,82 0,33 0,281 0,32 0,83 5,35 5,36 6,35 5,35 5,36 2,28 0,2 9,0 36,0 63,0 36,0 2,-30 5,-36 6,-35 5,-35 5,-36 6,-35 0,-99 0,-16 0,-17 0,-281 0,-32 0,-83z" />
<path style="fill:#d4d4d4" d="M361,65 l-16,-24 -26,-10 -20,-3 -7,0 -7,0 -26,4 -24,12 -12,17 0,4 0,17 0,82 0,33 0,281 0,32 0,83 4,35 4,36 3,35 4,35 3,36 2,28 0,2 6,0 31,0 37,0 24,0 1,-30 4,-36 4,-35 4,-35 3,-36 4,-35 0,-99 0,-16 0,-17 0,-281 0,-32 0,-83z" />
<path style="fill:#e5e5e5" d="M329,66 l-1,-8 -2,-7 -3,-7 -5,-5 -5,-5 -7,-3 -7,-2 -7,-1 -8,1 -7,2 -6,3 -5,5 -5,5 -4,7 -2,7 -1,8 0,527 11,189 0,19 54,0 0,-19 10,-189 0,-527z" />
<path style="fill:#666" d="M244,800 l18,0 6,0 6,0 42,0 12,0 12,0 0,32 1,11 0,10 0,75 -1,10 0,22 0,10 -6,0 -12,0 -12,0 -42,0 -12,0 -6,0 -6,0 0,-10 0,-22 0,-10 0,-85 0,-11 0,-32z" />
<path style="fill:#7f7f7f" d="M270,801 l43,0 0,169 -43,0 0,-169z" />
<path style="fill:none;stroke:#000;stroke-width:2" d="M160,593 l264,0" />
<path style="fill:none;stroke:#000;stroke-width:2" d="M254,593 l75,0" />
<path style="fill:none;stroke:#000;stroke-width:2" d="M197,782 l189,0" />
<path style="fill:none;stroke:#000;stroke-width:2" d="M424,66 l-1,-4 -22,-18 -25,-7 -33,-6 -38,-3 -13,0 -39,2 -35,4 -28,8 -24,12 -6,8 0,4 0,527 37,189 0,19 189,0 0,-19 38,-189 0,-527" />
<path style="fill:none;stroke:#000;stroke-width:2" d="M216,801 l151,0 0,169 -151,0 0,-169" />
<path style="fill:#b23232;stroke:#fff;stroke-width:2" d="M254,273 l151,0 0,37 -151,0 0,-37z" />
<ellipse style="fill:#ccc;stroke:#000;stroke-width:2" cx="384" cy="514" rx="17" ry="42" />
<path style="fill:#7f7f7f" d="M392,547 l33,0 0,-67 -33,0 -3,1 -4,2 -2,3 -3,4 -2,5 -1,6 -1,6 -1,6 1,7 1,7 1,5 2,5 3,5 2,3 4,2 3,0z" />
<path style="fill:#b2b2b2" d="M392,530 l33,0 0,-33 -33,0 -3,0 -4,1 -2,2 -3,2 -2,2 -1,3 -1,3 -1,3 1,4 1,3 1,3 2,3 3,2 2,1 4,1 3,0z" />
<path style="fill:none;stroke:#000;stroke-width:2" d="M392,547 l33,0 0,-67 -33,0 -3,1 -4,2 -2,3 -3,4 -2,5 -1,6 -1,6 -1,6 1,7 1,7 1,5 2,5 3,5 2,3 4,2 3,0" />
<ellipse style="fill:#ccc;stroke:#000;stroke-width:2" cx="425" cy="513" rx="16" ry="33" />
<path style="fill:#b2b2b2" d="M160,122 l301,0 0,38 -301,0 0,-38z" />
<path style="fill:#d9d9d9" d="M246,122 l129,0 0,38 -129,0 0,-38z" />
<path style="fill:none;stroke:#000;stroke-width:2" d="M160,122 l301,0 0,38 -301,0 0,-38" />
<path style="fill:#4c4c4c;stroke:#000;stroke-width:2" d="M28,84 l56,396 19,0 -56,-396 -19,0z" />
<path style="fill:#999" d="M47,103 l131,0 0,321 -131,0 0,-321z" />
<path style="fill:#7f7f7f;stroke:#000;stroke-width:2" d="M28,66 l169,0 0,18 -169,0 0,-18z" />
<path style="fill:#7f7f7f;stroke:#000;stroke-width:2" d="M84,462 l94,0 0,150 -94,0 0,-150z" />
<path style="fill:#b2b2b2" d="M65,103 l95,0 0,321 -95,0 0,-321z" />
<path style="fill:#ccc" d="M85,103 l56,0 0,321 -56,0 0,-321z" />
<path style="fill:none;stroke:#000;stroke-width:2" d="M47,103 l131,0 0,321 -131,0 0,-321" />
<path style="fill:#4c4c4c;stroke:#000;stroke-width:2" d="M85,103 l56,0 0,-19 -56,0 0,19z" />
<path style="fill:#999;stroke:#000;stroke-width:2" d="M103,480 l75,0 0,57 -75,0 0,-57z" />

</svg>
