 

<svg xmlns:agg="http://www.example.com" xmlns="http://www.w3.org/2000/svg" preserveAspectRatio="none" width="0.7303in" height="1.0750in" viewBox="0 0 678 998">

<path style="fill:#196619;stroke:#000;stroke-width:2" d="M361,147 l-55,-80 -92,0 0,30 -45,0 0,50 192,0z" />
<path style="fill:#9c6" d="M479,666 l-29,0 -28,-10 -21,-21 -11,-29 0,-465 11,-27 21,-21 28,-11 29,0 28,11 20,21 11,27 0,465 -11,29 -20,21 -28,10z" />
<path style="fill:#a3d175" d="M479,661 l-27,0 -25,-11 -18,-21 -10,-26 0,-459 10,-26 18,-21 25,-11 27,0 21,11 19,21 10,26 0,459 -10,26 -19,21 -21,11z" />
<path style="fill:#add684" d="M476,658 l-22,0 -23,-12 -15,-21 -9,-26 0,-451 9,-26 15,-18 23,-12 22,0 22,12 14,18 10,26 0,451 -10,26 -14,21 -22,12z" />
<path style="fill:#b7db94" d="M475,652 l-21,0 -17,-10 -15,-20 -8,-27 0,-443 8,-27 15,-18 17,-11 21,0 16,11 16,18 7,27 0,443 -7,27 -16,20 -16,10z" />
<path style="fill:#c1e0a3" d="M472,648 l-16,0 -15,-11 -12,-19 -6,-27 0,-435 6,-25 12,-21 15,-9 16,0 16,9 11,19 8,27 0,435 -8,27 -11,19 -16,11z" />
<path style="fill:#cbe5b2" d="M471,642 l-14,0 -11,-9 -9,-19 -6,-25 0,-429 6,-25 9,-21 11,-9 14,0 13,9 10,19 4,27 0,429 -4,25 -10,19 -13,9z" />
<ellipse style="fill:#d7ebc2" cx="464" cy="374" rx="26" ry="265" />
<ellipse style="fill:#e1f0d1" cx="465" cy="373" rx="17" ry="259" />
<ellipse style="fill:#ebf5e1" cx="464" cy="373" rx="8" ry="255" />
<path style="fill:none;stroke:#000;stroke-width:2" d="M479,666 l-29,0 -28,-10 -21,-21 -11,-29 0,-465 11,-27 21,-21 28,-11 29,0 28,11 20,21 11,27 0,465 -11,29 -20,21 -28,10" />
<path style="fill:#9c6" d="M537,676 l-30,0 -28,-11 -22,-23 -12,-28 0,-481 12,-26 22,-22 28,-12 30,0 28,12 21,20 11,28 0,481 -11,28 -21,23 -28,11z" />
<path style="fill:#a3d175" d="M535,670 l-27,0 -24,-11 -19,-20 -11,-29 0,-473 11,-27 19,-22 24,-11 27,0 25,11 18,22 11,27 0,473 -11,29 -18,20 -25,11z" />
<path style="fill:#add684" d="M533,666 l-23,0 -22,-10 -17,-21 -8,-29 0,-465 8,-27 17,-21 22,-11 23,0 23,11 16,21 8,27 0,465 -8,29 -16,21 -23,10z" />
<path style="fill:#b7db94" d="M531,661 l-19,0 -18,-11 -15,-21 -8,-26 0,-459 8,-26 15,-21 18,-11 19,0 19,11 15,21 7,26 0,459 -7,26 -15,21 -19,11z" />
<path style="fill:#c1e0a3" d="M531,658 l-19,0 -14,-12 -12,-21 -7,-26 0,-451 7,-26 12,-21 14,-9 17,0 17,9 11,21 8,26 0,451 -8,26 -11,21 -15,12z" />
<path style="fill:#cbe5b2" d="M529,652 l-15,0 -11,-11 -9,-19 -6,-27 0,-443 6,-27 9,-18 11,-11 15,0 12,11 9,18 6,27 0,443 -6,27 -9,19 -12,11z" />
<path style="fill:#d7ebc2" d="M527,648 l-11,0 -9,-11 -8,-19 -4,-27 0,-435 4,-25 8,-21 9,-9 11,0 10,9 7,19 4,27 0,435 -4,27 -7,19 -10,11z" />
<ellipse style="fill:#e1f0d1" cx="521" cy="373" rx="17" ry="268" />
<ellipse style="fill:#ebf5e1" cx="521" cy="374" rx="9" ry="264" />
<path style="fill:none;stroke:#000;stroke-width:2" d="M537,676 l-30,0 -28,-11 -22,-23 -12,-28 0,-481 12,-26 22,-22 28,-12 30,0 28,12 21,20 11,28 0,481 -11,28 -21,23 -28,11" />
<path style="fill:#696" d="M47,970 l0,-19 39,0 0,-373 39,0 0,-373 40,0 0,-58 196,0 0,58 40,0 0,373 40,0 0,373 39,0 0,19 -433,0z" />
<path style="fill:#7fb27f" d="M67,970 l0,-19 37,0 0,-373 35,0 0,-373 36,0 0,-58 177,0 0,58 36,0 0,373 35,0 0,373 37,0 0,19 -393,0z" />
<path style="fill:#9c9" d="M86,970 l0,-19 32,0 0,-373 32,0 0,-373 32,0 0,-58 162,0 0,58 32,0 0,373 33,0 0,373 32,0 0,19 -355,0z" />
<path style="fill:#696" d="M96,970 l0,-19 29,0 0,-373 33,0 0,-373 30,0 0,-58 151,0 0,58 30,0 0,373 30,0 0,373 30,0 0,19 -333,0z" />
<path style="fill:#70a370" d="M114,970 l0,-20 29,0 0,-372 26,0 0,-373 26,0 0,-61 137,0 0,61 25,0 0,373 27,0 0,372 28,0 0,20 -298,0z" />
<path style="fill:#78ab78" d="M133,970 l0,-20 25,0 0,-372 23,0 0,-373 24,0 0,-61 119,0 0,61 22,0 0,373 23,0 0,372 25,0 0,20 -261,0z" />
<path style="fill:#82b582" d="M152,970 l0,-20 21,0 0,-372 18,0 0,-373 22,0 0,-61 101,0 0,61 21,0 0,373 21,0 0,372 19,0 0,20 -223,0z" />
<path style="fill:#8cbf8c" d="M171,970 l0,-20 17,0 0,-372 17,0 0,-373 17,0 0,-61 84,0 0,61 18,0 0,373 16,0 0,372 17,0 0,20 -186,0z" />
<path style="fill:#96c996" d="M190,970 l0,-20 13,0 0,-372 13,0 0,-373 13,0 0,-61 68,0 0,61 13,0 0,373 15,0 0,372 14,0 0,20 -149,0z" />
<path style="fill:#9ed19e" d="M207,970 l0,-20 11,0 0,-372 10,0 0,-373 11,0 0,-61 51,0 0,61 9,0 0,373 11,0 0,372 10,0 0,20 -113,0z" />
<path style="fill:#a8dba8" d="M225,970 l0,-20 8,0 0,-372 6,0 0,-373 8,0 0,-61 33,0 0,61 7,0 0,373 8,0 0,372 6,0 0,20 -76,0z" />
<path style="fill:#b2e5b2" d="M244,970 l0,-19 4,0 0,-373 2,0 0,-373 4,0 0,-58 18,0 0,58 4,0 0,373 3,0 0,373 3,0 0,19 -38,0z" />
<path style="fill:none;stroke:#000;stroke-width:2" d="M47,970 l0,-19 39,0 0,-373 39,0 0,-373 40,0 0,-58 196,0 0,58 40,0 0,373 40,0 0,373 38,0 0,19 -432,0" />
<path style="fill:none;stroke:#000;stroke-width:2" d="M165,205 l196,0" />
<path style="fill:none;stroke:#000;stroke-width:2" d="M125,578 l276,0" />
<path style="fill:none;stroke:#000;stroke-width:2" d="M86,951 l355,0" />
<path style="fill:#4c7f4c" d="M116,597 l294,0 0,353 -294,0 0,-353z" />
<path style="fill:#427542" d="M133,597 l262,0 0,353 -262,0 0,-353z" />
<path style="fill:#386b38" d="M148,597 l230,0 0,353 -230,0 0,-353z" />
<path style="fill:#306330" d="M165,597 l198,0 0,353 -198,0 0,-353z" />
<path style="fill:#265926" d="M181,597 l165,0 0,353 -165,0 0,-353z" />
<path style="fill:#1c4f1c" d="M195,597 l137,0 0,353 -137,0 0,-353z" />
<path style="fill:#124512" d="M213,597 l101,0 0,353 -101,0 0,-353z" />
<path style="fill:#0a3d0a" d="M228,597 l71,0 0,353 -71,0 0,-353z" />
<path style="fill:#030" d="M244,597 l38,0 0,353 -38,0 0,-353z" />
<path style="fill:none;stroke:#000;stroke-width:2" d="M116,597 l294,0 0,353 -294,0 0,-353" />
<path style="fill:#4c4c4c" d="M154,627 l207,0 0,324 -207,0 0,-324z" />
<path style="fill:#575757" d="M167,627 l183,0 0,323 -183,0 0,-323z" />
<path style="fill:#5e5e5e" d="M178,627 l161,0 0,323 -161,0 0,-323z" />
<path style="fill:#696969" d="M190,627 l138,0 0,323 -138,0 0,-323z" />
<path style="fill:#737373" d="M203,627 l111,0 0,323 -111,0 0,-323z" />
<path style="fill:#7d7d7d" d="M214,627 l89,0 0,323 -89,0 0,-323z" />
<path style="fill:#858585" d="M225,627 l66,0 0,323 -66,0 0,-323z" />
<path style="fill:#8f8f8f" d="M237,627 l42,0 0,323 -42,0 0,-323z" />
<path style="fill:#999" d="M250,627 l17,0 0,324 -17,0 0,-324z" />
<path style="fill:#191919" d="M154,637 l-7,-10 224,0 -10,10 -207,0z" />
<path style="fill:#191919" d="M154,744 l-7,-9 224,0 -10,9 -207,0z" />
<path style="fill:#191919" d="M154,851 l-7,-9 224,0 -10,9 -207,0z" />
<path style="fill:#242424" d="M167,851 l-7,-9 197,0 -7,9 -183,0z" />
<path style="fill:#242424" d="M167,744 l-7,-9 197,0 -7,9 -183,0z" />
<path style="fill:#242424" d="M167,635 l-7,-8 197,0 -7,8 -183,0z" />
<path style="fill:#2b2b2b" d="M178,635 l-7,-8 173,0 -5,8 -161,0z" />
<path style="fill:#2b2b2b" d="M178,744 l-7,-9 173,0 -5,9 -161,0z" />
<path style="fill:#2b2b2b" d="M178,851 l-7,-9 173,0 -5,9 -161,0z" />
<path style="fill:#363636" d="M190,851 l-6,-9 149,0 -8,9 -135,0z" />
<path style="fill:#363636" d="M190,744 l-6,-9 149,0 -8,9 -135,0z" />
<path style="fill:#363636" d="M190,635 l-6,-8 149,0 -8,8 -135,0z" />
<path style="fill:#404040" d="M203,635 l-6,-8 123,0 -6,8 -111,0z" />
<path style="fill:#404040" d="M203,744 l-6,-9 123,0 -6,9 -111,0z" />
<path style="fill:#404040" d="M203,851 l-6,-9 123,0 -6,9 -111,0z" />
<path style="fill:#4a4a4a" d="M214,851 l-4,-9 96,0 -3,9 -89,0z" />
<path style="fill:#4a4a4a" d="M214,744 l-4,-9 96,0 -3,9 -89,0z" />
<path style="fill:#4a4a4a" d="M214,635 l-4,-8 96,0 -3,8 -89,0z" />
<path style="fill:#525252" d="M225,635 l-1,-8 70,0 -4,8 -65,0z" />
<path style="fill:#525252" d="M225,744 l-1,-9 70,0 -4,9 -65,0z" />
<path style="fill:#525252" d="M225,851 l-1,-9 70,0 -4,9 -65,0z" />
<path style="fill:#5c5c5c" d="M239,851 l-2,-9 43,0 -1,9 -40,0z" />
<path style="fill:#5c5c5c" d="M239,744 l-2,-9 43,0 -1,9 -40,0z" />
<path style="fill:#5c5c5c" d="M239,635 l-2,-8 43,0 -1,8 -40,0z" />
<path style="fill:#666" d="M250,637 l0,-10 17,0 0,10 -17,0z" />
<path style="fill:#666" d="M250,744 l0,-9 17,0 0,9 -17,0z" />
<path style="fill:#666" d="M250,851 l0,-9 17,0 0,9 -17,0z" />
<path style="fill:#7f7f7f" d="M361,942 l10,8 -224,0 9,-8 205,0z" />
<path style="fill:#7f7f7f" d="M361,833 l10,9 -224,0 9,-9 205,0z" />
<path style="fill:#7f7f7f" d="M361,726 l10,9 -224,0 9,-9 205,0z" />
<path style="fill:#8a8a8a" d="M350,726 l7,9 -197,0 7,-9 183,0z" />
<path style="fill:#8a8a8a" d="M350,833 l7,9 -197,0 7,-9 183,0z" />
<path style="fill:#8a8a8a" d="M350,942 l7,9 -197,0 7,-9 183,0z" />
<path style="fill:#919191" d="M339,942 l5,9 -173,0 7,-9 161,0z" />
<path style="fill:#919191" d="M339,833 l5,9 -173,0 7,-9 161,0z" />
<path style="fill:#919191" d="M339,726 l5,9 -173,0 7,-9 161,0z" />
<path style="fill:#9c9c9c" d="M325,726 l7,9 -148,0 6,-9 135,0z" />
<path style="fill:#9c9c9c" d="M325,833 l7,9 -148,0 6,-9 135,0z" />
<path style="fill:#9c9c9c" d="M325,942 l7,9 -148,0 6,-9 135,0z" />
<path style="fill:#a6a6a6" d="M314,942 l6,9 -123,0 6,-9 111,0z" />
<path style="fill:#a6a6a6" d="M314,833 l6,9 -123,0 6,-9 111,0z" />
<path style="fill:#a6a6a6" d="M314,726 l6,9 -123,0 6,-9 111,0z" />
<path style="fill:#b0b0b0" d="M303,726 l3,9 -96,0 4,-9 89,0z" />
<path style="fill:#b0b0b0" d="M303,942 l3,9 -96,0 4,-9 89,0z" />
<path style="fill:#b0b0b0" d="M303,833 l3,9 -96,0 4,-9 89,0z" />
<path style="fill:#b8b8b8" d="M290,942 l4,9 -70,0 1,-9 65,0z" />
<path style="fill:#b8b8b8" d="M290,833 l4,9 -70,0 1,-9 65,0z" />
<path style="fill:#b8b8b8" d="M290,726 l4,9 -70,0 1,-9 65,0z" />
<path style="fill:#c2c2c2" d="M279,726 l1,9 -43,0 2,-9 40,0z" />
<path style="fill:#c2c2c2" d="M279,833 l1,9 -43,0 2,-9 40,0z" />
<path style="fill:#c2c2c2" d="M279,942 l1,9 -43,0 2,-9 40,0z" />
<path style="fill:#ccc" d="M267,942 l0,8 -17,0 0,-8 17,0z" />
<path style="fill:#ccc" d="M267,833 l0,9 -17,0 0,-9 17,0z" />
<path style="fill:#ccc" d="M267,726 l0,9 -17,0 0,-9 17,0z" />
<path style="fill:none;stroke:#000;stroke-width:2" d="M147,951 l7,-9 0,-91 -7,-9 7,-9 0,-89 -7,-9 7,-9 0,-91 -7,-8 224,0 -10,8 0,91 10,9 -10,9 0,89 10,9 -10,9 0,91 10,9 -224,0" />
<path style="fill:#696" d="M125,342 l-18,0 -70,-48 0,-70 79,-10 9,0 0,128z" />
<path style="fill:none;stroke:#363;stroke-width:2" d="M107,342 l9,-128" />
<path style="fill:#4c7f4c" d="M116,214 l-49,10 -30,0 79,-10z" />
<path style="fill:#4c7f4c" d="M107,342 l-40,-48 -30,0 70,48z" />
<path style="fill:none;stroke:#000;stroke-width:2" d="M125,342 l-18,0 -70,-48 0,-70 79,-10 9,0 0,128" />
<path style="fill:#030;stroke:#000;stroke-width:2" d="M37,294 l10,-22 0,-28 -10,-20 -9,20 0,28 9,22z" />
<path style="fill:#9c6" d="M588,685 l-32,0 -29,-11 -23,-22 -10,-29 0,-498 10,-28 23,-22 29,-12 32,0 28,12 23,22 11,28 0,498 -11,29 -23,22 -28,11z" />
<path style="fill:#a3d175" d="M586,680 l-29,0 -26,-11 -19,-21 -12,-28 0,-491 12,-28 19,-23 26,-11 29,0 26,11 19,23 11,28 0,491 -11,28 -19,21 -26,11z" />
<path style="fill:#add684" d="M584,676 l-24,0 -23,-11 -18,-23 -9,-26 0,-483 9,-28 18,-20 23,-12 24,0 22,12 17,20 10,28 0,483 -10,26 -17,23 -22,11z" />
<path style="fill:#b7db94" d="M582,670 l-21,0 -19,-11 -15,-20 -8,-29 0,-473 8,-27 15,-22 19,-11 21,0 19,11 15,21 9,28 0,473 -9,29 -15,20 -19,11z" />
<path style="fill:#c1e0a3" d="M580,666 l-17,0 -17,-10 -11,-21 -8,-29 0,-465 8,-27 11,-21 17,-11 17,0 17,11 11,21 8,27 0,465 -8,29 -11,21 -17,10z" />
<path style="fill:#cbe5b2" d="M578,661 l-13,0 -13,-11 -10,-19 -5,-28 0,-459 5,-26 10,-21 13,-11 13,0 13,11 12,21 3,26 0,459 -3,28 -12,19 -13,11z" />
<ellipse style="fill:#d7ebc2" cx="571" cy="375" rx="27" ry="283" />
<ellipse style="fill:#e1f0d1" cx="571" cy="374" rx="18" ry="277" />
<ellipse style="fill:#ebf5e1" cx="571" cy="374" rx="10" ry="273" />
<path style="fill:none;stroke:#000;stroke-width:2" d="M588,685 l-32,0 -29,-11 -23,-22 -10,-29 0,-498 10,-28 23,-22 29,-12 32,0 28,12 23,22 11,28 0,498 -11,29 -23,22 -28,11" />
<path style="fill:#696;stroke:#000;stroke-width:2" d="M401,303 l19,0 98,-9 0,-70 -108,-10 -9,0 0,89z" />
<path style="fill:#7fb27f" d="M405,297 l11,0 0,-77 -11,0 0,77z" />
<path style="fill:none;stroke:#d8e5d8;stroke-width:2" d="M224,480 l0,-30 79,0" />
<path style="fill:none;stroke:#d8e5d8;stroke-width:2" d="M243,186 l0,-21 39,0" />
<path style="fill:none;stroke:#696;stroke-width:2" d="M282,165 l0,19 -38,0" />
<path style="fill:none;stroke:#696;stroke-width:2" d="M303,450 l0,30 -79,0" />
<path style="fill:#7f7f7f" d="M218,28 l88,0 0,119 -88,0 0,-119z" />
<path style="fill:#999" d="M224,28 l79,0 0,119 -79,0 0,-119z" />
<path style="fill:#b2b2b2" d="M229,28 l68,0 0,119 -68,0 0,-119z" />
<path style="fill:#ccc" d="M239,28 l48,0 0,119 -48,0 0,-119z" />
<path style="fill:#e5e5e5" d="M254,28 l18,0 0,119 -18,0 0,-119z" />
<path style="fill:none;stroke:#000;stroke-width:2" d="M218,28 l88,0 0,119 -88,0 0,-119" />
<path style="fill:none;stroke:#000;stroke-width:2" d="M218,122 l88,0" />
<path style="fill:none;stroke:#000;stroke-width:2" d="M218,58 l88,0" />
<path style="fill:#999;stroke:#000;stroke-width:2" d="M209,116 l-15,0 0,-30 15,0 0,30z" />
<path style="fill:#7f7f7f;stroke:#000;stroke-width:2" d="M224,125 l-15,-9 0,-30 15,-9 0,48z" />
<path style="fill:#e5e5e5;stroke:#000;stroke-width:2" d="M224,77 l-6,0 -24,9 15,0 15,-9z" />
<path style="fill:#4c4c4c;stroke:#000;stroke-width:2" d="M224,125 l-15,-9 -15,0 24,9 6,0z" />

</svg>
