 

<svg xmlns:agg="http://www.example.com" xmlns="http://www.w3.org/2000/svg" preserveAspectRatio="none" width="0.7156in" height="1.0750in" viewBox="0 0 665 999">

<path style="fill:#4c4c4c" d="M234,327 l334,0 0,15 -334,0 0,-15z" />
<path style="fill:#999" d="M48,852 l589,0 0,118 -589,0 0,-118z" />
<path style="fill:#007f00" d="M362,28 l78,0 0,19 -78,0 0,-19z" />
<path style="fill:#7f7f7f;stroke:#000;stroke-width:2" d="M244,597 l19,0 0,-79 -19,0 0,79z" />
<path style="fill:#b2b2b2;stroke:#000;stroke-width:2" d="M244,538 l-39,0 0,40 39,0 0,-40z" />
<path style="fill:#999" d="M263,852 l0,-235 -19,0 0,-20 19,0 0,-79 275,0 0,79 20,0 0,20 -20,0 0,235 -275,0z" />
<path style="fill:#ababab" d="M294,852 l0,-236 -16,0 0,-19 16,0 0,-79 214,0 0,79 16,0 0,19 -16,0 0,236 -214,0z" />
<path style="fill:#bfbfbf" d="M324,852 l0,-236 -11,0 0,-19 11,0 0,-79 154,0 0,79 12,0 0,19 -12,0 0,236 -154,0z" />
<path style="fill:#d1d1d1" d="M354,852 l0,-236 -7,0 0,-19 7,0 0,-79 94,0 0,79 7,0 0,19 -7,0 0,236 -94,0z" />
<path style="fill:#e5e5e5" d="M384,852 l0,-235 -2,0 0,-20 2,0 0,-79 34,0 0,79 2,0 0,20 -2,0 0,235 -34,0z" />
<path style="fill:none;stroke:#000;stroke-width:2" d="M263,852 l0,-235 -19,0 0,-20 19,0 0,-79 275,0 0,79 20,0 0,20 -20,0 0,235 -275,0" />
<path style="fill:none;stroke:#000;stroke-width:2" d="M263,597 l275,0" />
<path style="fill:none;stroke:#000;stroke-width:2" d="M538,617 l-275,0" />
<path style="fill:#a8a8a8" d="M100,852 l485,0 0,118 -485,0 0,-118z" />
<path style="fill:#b8b8b8" d="M151,852 l383,0 0,118 -383,0 0,-118z" />
<path style="fill:#c7c7c7" d="M203,852 l279,0 0,118 -279,0 0,-118z" />
<path style="fill:#ccc;stroke:#000;stroke-width:2" d="M106,548 l99,0 0,20 -99,0 0,-20z" />
<path style="fill:#999;stroke:#000;stroke-width:2" d="M322,578 l158,0 0,274 -158,0 0,-274z" />
<path style="fill:none;stroke:#fff;stroke-width:2" d="M322,852 l0,-274 158,0" />
<path style="fill:#d6d6d6" d="M254,852 l177,0 0,118 -177,0 0,-118z" />
<path style="fill:#e5e5e5" d="M305,852 l73,0 0,118 -73,0 0,-118z" />
<path style="fill:#b2b2b2;stroke:#000;stroke-width:2" d="M28,843 l373,0 0,127 -373,0 0,-127z" />
<path style="fill:#999" d="M48,950 l88,-19 157,0 88,19 -333,0z" />
<path style="fill:#7f7f7f" d="M48,950 l88,-19 0,-69 -88,0 0,88z" />
<path style="fill:#666" d="M136,931 l0,-69 245,0 0,88 -88,-19 -157,0z" />
<path style="fill:none;stroke:#000;stroke-width:2" d="M48,862 l333,0 0,88 -333,0 0,-88" />
<path style="fill:none;stroke:#000;stroke-width:2" d="M401,852 l236,0 0,118 -236,0 0,-118" />
<path style="fill:#000" d="M342,833 l0,-20 -39,10 39,10z" />
<path style="fill:#000" d="M460,813 l0,19 39,-10 -39,-9z" />
<path style="fill:#000" d="M460,597 l0,19 39,-10 -39,-9z" />
<path style="fill:#000" d="M342,617 l0,-20 -39,10 39,10z" />
<path style="fill:#000" d="M342,725 l0,-20 -39,10 39,10z" />
<path style="fill:#000" d="M460,705 l0,20 39,-10 -39,-10z" />
<path style="fill:#007f00" d="M263,518 l-19,-19 0,-314 39,0 0,-20 -39,0 0,-78 59,0 0,-10 196,0 0,10 59,0 0,78 -39,0 0,20 39,0 0,314 -20,19 -275,0z" />
<path style="fill:#009100" d="M294,518 l-16,-19 0,-314 31,0 0,-20 -31,0 0,-79 46,0 0,-10 154,0 0,10 46,0 0,79 -31,0 0,20 31,0 0,314 -16,19 -214,0z" />
<path style="fill:#0da60d" d="M324,518 l-11,-19 0,-314 22,0 0,-20 -22,0 0,-79 33,0 0,-10 110,0 0,10 34,0 0,79 -23,0 0,20 23,0 0,314 -12,19 -154,0z" />
<path style="fill:#52b852" d="M354,518 l-7,-19 0,-314 14,0 0,-20 -14,0 0,-79 20,0 0,-10 68,0 0,10 20,0 0,79 -13,0 0,20 13,0 0,314 -7,19 -94,0z" />
<path style="fill:#9c9" d="M384,518 l-2,-19 0,-314 5,0 0,-20 -5,0 0,-78 7,0 0,-10 24,0 0,10 7,0 0,78 -5,0 0,20 5,0 0,314 -2,19 -34,0z" />
<path style="fill:none;stroke:#000;stroke-width:2" d="M263,518 l-19,-19 0,-314 39,0 0,-20 -39,0 0,-78 59,0 0,-10 196,0 0,10 59,0 0,78 -39,0 0,20 39,0 0,314 -20,19 -275,0" />
<path style="fill:none;stroke:#000;stroke-width:2" d="M303,87 l196,0" />
<path style="fill:none;stroke:#000;stroke-width:2" d="M519,165 l-236,0" />
<path style="fill:none;stroke:#000;stroke-width:2" d="M283,185 l236,0" />
<path style="fill:none;stroke:#000;stroke-width:2" d="M244,499 l314,0" />
<path style="fill:#00b200;stroke:#000;stroke-width:2" d="M362,77 l235,0 0,98 -235,0 0,-98z" />
<path style="fill:#060" d="M381,97 l197,0 0,58 -197,0 0,-58z" />
<path style="fill:#090" d="M381,155 l0,-9 118,0 79,9 -197,0z" />
<path style="fill:#007f00" d="M499,146 l0,-49 79,0 0,58 -79,-9z" />
<path style="fill:#960;stroke:#000;stroke-width:2" d="M391,97 l20,0 0,44 -20,0 0,-44z" />
<path style="fill:#e5b200;stroke:#000;stroke-width:2" d="M391,47 l20,0 0,30 -20,0 0,-30z" />
<path style="fill:#00bf00" d="M382,28 l38,0 0,19 -38,0 0,-19z" />
<path style="fill:#00e500" d="M396,28 l10,0 0,19 -10,0 0,-19z" />
<path style="fill:none;stroke:#000;stroke-width:2" d="M362,28 l78,0 0,19 -78,0 0,-19" />
<path style="fill:none;stroke:#000;stroke-width:2" d="M381,97 l197,0 0,58 -197,0 0,-58" />

</svg>
