 

<svg xmlns:agg="http://www.example.com" xmlns="http://www.w3.org/2000/svg" preserveAspectRatio="none" width="0.3142in" height="1.0750in" viewBox="0 0 292 999">

<path style="fill:#263a59;stroke:#000;stroke-width:2" d="M28,28 l236,0 0,118 -236,0 0,-118z" />
<path style="fill:none;stroke:#7387a6;stroke-width:2" d="M28,146 l236,0 0,-118" />
<path style="fill:#7387a6" d="M263,499 l0,-353 -235,0 0,353 235,0z" />
<path style="fill:#6b7f9e" d="M264,499 l0,-147 -236,-79 0,226 236,0z" />
<path style="fill:#617594" d="M264,499 l0,-108 -236,-79 0,187 236,0z" />
<path style="fill:#596d8c" d="M264,499 l0,-88 -236,-79 0,167 236,0z" />
<path style="fill:none;stroke:#000;stroke-width:2" d="M263,499 l0,-353 -235,0 0,353 235,0" />
<path style="fill:none;stroke:#bfd3f2;stroke-width:2" d="M263,499 l0,-353 -235,0" />
<path style="fill:#ccc" d="M38,48 l216,0 0,87 -216,0 0,-87z" />
<path style="fill:#e5e5e5" d="M112,48 l-74,0 0,24 142,64 74,0 0,-25 -142,-63z" />
<path style="fill:#fff" d="M68,48 l-30,0 0,5 187,83 29,0 0,-5 -186,-83z" />
<path style="fill:none;stroke:#000;stroke-width:2" d="M38,48 l216,0 0,87 -216,0 0,-87" />
<path style="fill:none;stroke:#fff;stroke-width:2" d="M254,135 l0,-87 -216,0" />
<path style="fill:#7f7f7f;stroke:#000;stroke-width:2" d="M205,558 l29,0 0,354 -29,0 0,-354z" />
<path style="fill:#7f7f7f;stroke:#000;stroke-width:2" d="M58,558 l29,0 0,354 -29,0 0,-354z" />
<path style="fill:#e5e5e5" d="M67,558 l10,0 0,354 -10,0 0,-354z" />
<path style="fill:#e5e5e5" d="M215,558 l9,0 0,354 -9,0 0,-354z" />
<path style="fill:#ff0;stroke:#000;stroke-width:2" d="M264,911 l-236,0 0,59 236,0 0,-59z" />
<path style="fill:#ff0;stroke:#000;stroke-width:2" d="M264,499 l-236,0 0,59 236,0 0,-59z" />
<path style="fill:#000" d="M28,911 l60,0 -60,59 0,-59z" />
<path style="fill:#000" d="M86,970 l60,-59 59,0 -59,59 -60,0z" />
<path style="fill:#000" d="M205,970 l59,-59 0,59 -59,0z" />
<path style="fill:#000" d="M28,499 l60,0 -60,59 0,-59z" />
<path style="fill:#000" d="M86,558 l60,-59 59,0 -59,59 -60,0z" />
<path style="fill:#000" d="M205,558 l59,-59 0,59 -59,0z" />

</svg>
