 

<svg xmlns:agg="http://www.example.com" xmlns="http://www.w3.org/2000/svg" preserveAspectRatio="none" width="0.7974in" height="1.0750in" viewBox="0 0 741 999">

<path style="fill:#999;stroke:#7f7f7f;stroke-width:2" d="M138,642 l0,58 20,0 -10,25 34,0 -14,-25 19,0 0,-58 -49,0z" />
<path style="fill:#d9d9d9" d="M153,642 l0,58 8,0 -4,25 13,0 -6,-25 8,0 0,-58 -19,0z" />
<path style="fill:#7fb2b2;stroke:#000;stroke-width:2" d="M160,147 l-2,102 -89,0 0,-20 -19,0 0,39 235,0 0,-39 -19,0 0,20 -89,0 -2,-102 -15,0z" />
<path style="fill:#7fb2b2;stroke:#000;stroke-width:2" d="M45,67 l0,59 628,0 0,-59 -628,0z" />
<path style="fill:#e5e5e5;stroke:#7f7f7f;stroke-width:2" d="M64,298 l-6,28 -6,27 -6,27 -5,26 -6,39 -4,36 -3,34 0,11 0,11 2,29 5,26 11,29 9,11 5,5 14,0 187,0 16,-23 7,-25 3,-22 0,-9 0,-9 -1,-30 -3,-34 -4,-39 -4,-28 -3,-31 -5,-34 -4,-36 -2,-19 -12,2 -34,5 -32,5 -35,1 -38,-3 -30,-6 -16,-4z" />
<path style="fill:#a6a6a6" d="M60,637 l34,14 118,5 39,-5 10,-14 -54,-5 -49,5 -30,-15 -19,-20 -20,-108 5,84 -10,59 -24,0z" />
<path style="fill:#bfbfbf" d="M143,450 l10,24 29,30 15,-49 15,-19 5,-45 -5,-54 -25,128 -15,-10 -24,-138 -10,84 20,35 -15,14z" />
<path style="fill:#ccc;stroke:#7f7f7f;stroke-width:2" d="M246,308 l15,0 -10,-64 -10,0 5,64z" />
<path style="fill:#ccc;stroke:#7f7f7f;stroke-width:2" d="M79,308 l-15,0 10,-64 10,0 -5,64z" />
<path style="fill:#9cc;stroke:#4c7f7f;stroke-width:2" d="M359,636 l334,-569 -20,-20 -334,570 20,19z" />
<path style="fill:#9cc;stroke:#4c7f7f;stroke-width:2" d="M673,636 l-334,-569 20,-20 334,570 -20,19z" />
<path style="fill:#366;stroke:#000;stroke-width:2" d="M359,656 l0,59 314,0 0,-59 -314,0z" />
<path style="fill:#366;stroke:#000;stroke-width:2" d="M176,123 l-8,-21 8,-21 21,-9 22,9 8,21 -8,21 -22,9 -21,-9z" />
<path style="fill:#366;stroke:#000;stroke-width:2" d="M116,123 l-8,-21 8,-21 22,-9 21,9 9,21 -9,21 -21,9 -22,-9z" />
<path style="fill:#b2e5e5;stroke:#000;stroke-width:2" d="M138,102 l0,45 59,0 0,-45 -59,0z" />
<path style="fill:#b2e5e5;stroke:#000;stroke-width:2" d="M123,154 l0,30 89,0 0,-30 -89,0z" />
<path style="fill:#b2e5e5" d="M712,970 l0,-942 -392,0 0,942 39,0 0,-903 314,0 0,550 -314,0 0,39 314,0 0,314 39,0z" />
<path style="fill:none;stroke:#000;stroke-width:2" d="M359,617 l0,-550 314,0 0,550 -314,0" />
<path style="fill:none;stroke:#000;stroke-width:2" d="M712,970 l0,-942 -392,0 0,942 39,0 0,-314 314,0 0,314 39,0" />
<path style="fill:none;stroke:#000;stroke-width:2" d="M138,185 l-20,176 20,226 -5,182" />
<path style="fill:#b2b2b2;stroke:#000;stroke-width:2" d="M123,769 l15,0 0,44 -15,0 0,-44z" />

</svg>
