 

<svg xmlns:agg="http://www.example.com" xmlns="http://www.w3.org/2000/svg" preserveAspectRatio="none" width="0.6048in" height="1.0750in" viewBox="0 0 562 999">

<path style="fill:#7f7f7f;stroke:#000;stroke-width:2" d="M263,342 l0,59 -19,64 157,0 -20,-64 0,-59 -118,0z" />
<path style="fill:#4c4c4c" d="M352,28 l-59,0 0,118 59,0 0,-118z" />
<path style="fill:#999" d="M381,224 l0,39 -19,0 0,20 19,0 0,59 -118,0 0,-59 20,0 0,-20 -20,0 0,-39 20,0 0,-78 79,0 0,78 19,0z" />
<path style="fill:#bfbfbf" d="M366,224 l0,39 -14,0 0,20 14,0 0,59 -88,0 0,-59 15,0 0,-20 -15,0 0,-39 15,0 0,-78 59,0 0,78 14,0z" />
<path style="fill:#e5e5e5" d="M337,224 l0,39 -5,0 0,20 5,0 0,59 -29,0 0,-59 5,0 0,-20 -5,0 0,-39 5,0 0,-78 19,0 0,78 5,0z" />
<path style="fill:none;stroke:#000;stroke-width:2" d="M381,224 l0,39 -19,0 0,20 19,0 0,59 -118,0 0,-59 20,0 0,-20 -20,0 0,-39 20,0 0,-78 79,0 0,78 19,0" />
<path style="fill:none;stroke:#000;stroke-width:2" d="M283,224 l79,0" />
<path style="fill:none;stroke:#000;stroke-width:2" d="M362,263 l-79,0" />
<path style="fill:none;stroke:#000;stroke-width:2" d="M283,283 l79,0" />
<path style="fill:#ccc;stroke:#000;stroke-width:2" d="M381,185 l-255,0 0,39 255,0 0,-39z" />
<path style="fill:#ccc;stroke:#000;stroke-width:2" d="M499,381 l-373,0 0,39 373,0 0,-39z" />
<path style="fill:#ccc;stroke:#000;stroke-width:2" d="M67,911 l0,-648 39,0 0,648 -39,0z" />
<path style="fill:#e5e5e5;stroke:#7f7f7f;stroke-width:2" d="M209,437 l-7,32 -7,33 -7,32 -5,31 -6,30 -4,30 -3,29 -2,27 -1,13 0,13 0,12 2,34 6,31 10,25 14,21 6,5 8,0 226,0 17,-20 10,-28 4,-34 1,-11 0,-10 -2,-35 -3,-40 -3,-30 -4,-33 -4,-35 -5,-38 -5,-41 -3,-21 -3,-22 -7,1 -27,5 -32,6 -32,4 -33,1 -30,-2 -32,-6 -27,-6 -10,-3z" />
<path style="fill:#b2b2b2" d="M205,835 l40,18 137,4 46,-4 11,-18 -62,-6 -57,6 -36,-17 -22,-22 -24,-129 7,100 -11,68 -29,0z" />
<path style="fill:#bfbfbf" d="M302,616 l11,29 36,35 15,-57 18,-24 6,-51 -6,-65 -29,151 -18,-11 -26,-162 -14,98 25,40 -18,17z" />
<path style="fill:#ccc;stroke:#7f7f7f;stroke-width:2" d="M422,448 l17,0 -11,-73 -11,0 5,73z" />
<path style="fill:#ccc;stroke:#7f7f7f;stroke-width:2" d="M227,448 l-18,0 11,-73 14,0 -7,73z" />
<path style="fill:#999;stroke:#000;stroke-width:2" d="M460,843 l-275,0 0,19 275,0 0,-19z" />
<path style="fill:#999;stroke:#000;stroke-width:2" d="M460,892 l-275,0 0,19 275,0 0,-19z" />
<path style="fill:#999;stroke:#000;stroke-width:2" d="M214,862 l-19,0 0,30 19,0 0,-30z" />
<path style="fill:#999;stroke:#000;stroke-width:2" d="M450,862 l-20,0 0,30 20,0 0,-30z" />
<path style="fill:#999;stroke:#000;stroke-width:2" d="M332,862 l-20,0 0,30 20,0 0,-30z" />
<path style="fill:#e5e5e5;stroke:#000;stroke-width:2" d="M533,911 l-505,0 0,59 505,0 0,-59z" />
<path style="fill:#e5e5e5;stroke:#000;stroke-width:2" d="M126,165 l-78,0 0,98 78,0 0,-98z" />
<path style="fill:#e5e5e5;stroke:#000;stroke-width:2" d="M126,361 l-78,0 0,99 78,0 0,-99z" />
<path style="fill:#b2b2b2;stroke:#000;stroke-width:2" d="M362,126 l-79,0 0,20 79,0 0,-20z" />
<path style="fill:#b2b2b2;stroke:#000;stroke-width:2" d="M362,97 l-79,0 0,19 79,0 0,-19z" />
<path style="fill:#b2b2b2;stroke:#000;stroke-width:2" d="M362,67 l-79,0 0,20 79,0 0,-20z" />
<path style="fill:#b2b2b2;stroke:#000;stroke-width:2" d="M362,38 l-79,0 0,19 79,0 0,-19z" />

</svg>
