<?xml version="1.0" encoding="utf-8"?>
<!-- Generator: Adobe Illustrator 16.0.0, SVG Export Plug-In . SVG Version: 6.00 Build 0)  -->
<!DOCTYPE svg PUBLIC "-//W3C//DTD SVG 1.1//EN" "http://www.w3.org/Graphics/SVG/1.1/DTD/svg11.dtd">
<svg version="1.1" id="图层_1" xmlns="http://www.w3.org/2000/svg" preserveAspectRatio="none" xmlns:xlink="http://www.w3.org/1999/xlink" x="0px" y="0px"
	 width="100px" height="100px" viewBox="0 0 100 100" enable-background="new 0 0 100 100" xml:space="preserve">
<g>
	<ellipse fill="#C5C1AE" cx="44.577" cy="77.517" rx="44.577" ry="8.685"/>
	<g>
		<path fill="#8FC05B" d="M12.927,77.517c0,0,6.579-43.636-5.7-57.231c0,0,13.156,9.209,13.156,40.784
			c0,0,2.631-21.927-2.631-42.538c0,0,10.086,14.033,7.894,44.292c0,0,0.877-39.029,5.263-48.677c0,0-3.947,39.906,2.192,51.309
			c0,0,3.508-25.436,2.631-41.223c0,0,7.456,22.364,3.07,40.346c0,0,9.781-27.628,1.382-50.432c0,0,13.428,22.803,9.751,51.746
			c0,0,6.848-46.923,19.126-48.238c0,0-10.524,12.279-6.577,47.361c0,0,9.004-17.049,6.577-31.77c0,0,3.9,11.16,0.414,33.525
			c0,0,11.426-43.369,29.844-33.525c0,0-18.418-4.184-21.489,44.271H12.927z"/>
		<path fill="#87B052" d="M79.963,59.934L79.963,59.934c-7.636,14.174-67.036,17.583-67.036,17.583h64.902
			C78.267,70.652,79.01,64.846,79.963,59.934z"/>
	</g>
</g>
</svg>
