 

<svg xmlns:agg="http://www.example.com" xmlns="http://www.w3.org/2000/svg" preserveAspectRatio="none" width="1.2164in" height="1.0750in" viewBox="0 0 998 882">

<path style="fill:#000;stroke:#000;stroke-width:2" d="M779,510 l-526,0 0,30 526,0 0,-30z" />
<path style="fill:#fff;stroke:#000;stroke-width:2" d="M956,537 l-914,0 -14,10 0,3 0,258 14,14 914,0 6,-1 8,-12 0,-260 -14,-12z" />
<path style="fill:#fff;stroke:#000;stroke-width:2" d="M820,28 l-596,0 -17,16 -15,448 2,6 14,11 627,0 3,0 14,-17 -15,-447 -17,-17z" />
<path style="fill:#fff;stroke:#000;stroke-width:2" d="M850,600 l-709,0 -22,7 -70,189 19,7 856,0 17,-6 -68,-190 -23,-7z" />
<path style="fill:#ababab;stroke:#000;stroke-width:2" d="M923,854 l-851,0 -23,-10 0,-48 3,2 4,1 3,2 4,1 4,1 5,0 847,0 4,0 5,-2 3,-1 4,-1 3,-2 2,-2 1,48 -18,11z" />
<path style="fill:#ababab;stroke:#000;stroke-width:2" d="M739,94 l-434,0 -4,1 -3,1 -3,3 -2,3 -1,4 -11,332 1,4 2,3 2,3 3,2 4,1 457,0 4,0 3,-2 3,-3 2,-3 0,-4 -11,-332 0,-3 -2,-4 -3,-3 -3,-2 -4,-1z" />
<path style="fill:#000;stroke:#000;stroke-width:2" d="M721,106 l-403,0 -3,1 -3,1 -4,4 -1,3 -1,3 -9,302 0,3 2,3 3,4 2,1 4,1 423,0 4,-1 2,-2 3,-3 2,-3 0,-3 -10,-302 -1,-3 -1,-3 -3,-3 -3,-2 -3,-1z" />
<path style="fill:#0ff;stroke:#000;stroke-width:2" d="M717,120 l-396,0 -5,300 409,0 -8,-300z" />
<path style="fill:#0ff;stroke:#000;stroke-width:2" d="M700,154 l-114,0 0,102 114,0 0,-102z" />
<path style="fill:#00f;stroke:#000;stroke-width:2" d="M700,154 l-114,0 0,13 114,0 0,-13z" />
<path style="fill:#00f;stroke:#000;stroke-width:2" d="M712,126 l-385,0 0,15 385,0 0,-15z" />
<path style="fill:#0ff;stroke:#000;stroke-width:2" d="M627,238 l-138,0 0,104 138,0 0,-104z" />
<path style="fill:#00f;stroke:#000;stroke-width:2" d="M627,240 l-138,0 0,15 138,0 0,-15z" />
<path style="fill:#0ff;stroke:#000;stroke-width:2" d="M361,289 l161,0 0,123 -161,0 0,-123z" />
<path style="fill:#00f;stroke:#000;stroke-width:2" d="M361,290 l161,0 0,14 -161,0 0,-14z" />
<path style="fill:none;stroke:#000;stroke-width:2" d="M436,561 l-316,0 0,25" />
<path style="fill:#000;stroke:#000;stroke-width:2" d="M866,750 l-741,0 43,-132 656,0 42,132z" />
<path style="fill:#fff;stroke:#000;stroke-width:2" d="M846,743 l-694,0 33,-116 625,0 36,116z" />
<path style="fill:none;stroke:#000;stroke-width:2" d="M818,648 l-646,0" />
<path style="fill:none;stroke:#000;stroke-width:2" d="M160,681 l668,0" />
<path style="fill:none;stroke:#000;stroke-width:2" d="M838,716 l-688,0" />
<path style="fill:none;stroke:#000;stroke-width:2" d="M806,743 l-29,-116" />
<path style="fill:none;stroke:#000;stroke-width:2" d="M770,743 l-28,-116" />
<path style="fill:none;stroke:#000;stroke-width:2" d="M734,743 l-20,-116" />
<path style="fill:none;stroke:#000;stroke-width:2" d="M697,743 l-19,-116" />
<path style="fill:none;stroke:#000;stroke-width:2" d="M662,743 l-12,-116" />
<path style="fill:none;stroke:#000;stroke-width:2" d="M625,743 l-11,-116" />
<path style="fill:none;stroke:#000;stroke-width:2" d="M590,743 l-6,-116" />
<path style="fill:none;stroke:#000;stroke-width:2" d="M553,743 l-3,-116" />
<path style="fill:none;stroke:#000;stroke-width:2" d="M517,743 l0,-116" />
<path style="fill:none;stroke:#000;stroke-width:2" d="M481,743 l4,-116" />
<path style="fill:none;stroke:#000;stroke-width:2" d="M445,743 l6,-116" />
<path style="fill:none;stroke:#000;stroke-width:2" d="M409,743 l8,-116" />
<path style="fill:none;stroke:#000;stroke-width:2" d="M373,743 l11,-116" />
<path style="fill:none;stroke:#000;stroke-width:2" d="M337,743 l13,-116" />
<path style="fill:none;stroke:#000;stroke-width:2" d="M301,743 l19,-116" />
<path style="fill:none;stroke:#000;stroke-width:2" d="M265,743 l23,-116" />
<path style="fill:none;stroke:#000;stroke-width:2" d="M229,743 l25,-116" />
<path style="fill:none;stroke:#000;stroke-width:2" d="M193,743 l26,-116" />

</svg>
