 

<svg xmlns:agg="http://www.example.com" xmlns="http://www.w3.org/2000/svg" preserveAspectRatio="none" width="0.8200in" height="1.0750in" viewBox="0 0 762 999">

<path style="fill:#5454ff;fill-rule:evenodd" d="M664,375 l-48,-59 8,123 28,-3 12,-61z M294,484 l16,-34 -25,-37 -8,71 17,0z M428,102 l0,-7 1,-8 2,-7 2,-7 3,-7 4,-5 4,-6 5,-6 6,-4 5,-5 6,-4 7,-3 6,-2 8,-2 7,-1 8,0 7,0 8,1 7,2 7,2 6,3 6,4 6,5 6,4 5,6 5,6 4,6 3,6 2,8 2,6 1,8 0,7 0,8 -1,7 -2,7 -2,7 -3,6 -4,7 -5,5 -5,6 -6,5 -7,4 -5,4 -7,3 -6,3 -8,2 -7,1 -7,0 -8,0 -6,-1 -8,-2 -6,-3 -7,-3 -6,-4 -5,-4 -6,-5 -5,-6 -4,-5 -4,-7 -3,-6 -3,-7 -2,-7 -1,-7 0,-8z M723,428 l11,105 -101,9 0,203 98,192 -57,33 -112,-222 -23,-117 -48,100 -19,231 -64,-13 17,-274 68,-157 -27,-135 -41,50 -80,13 -26,38 43,-3 13,83 -82,6 45,108 -51,19 78,215 -36,13 -106,-225 -40,-6 -90,237 -30,-16 61,-231 -25,-9 81,-175 -20,-56 -27,56 -87,64 -18,-28 81,-74 42,-121 39,-30 4,-1 2,-3 4,-1 5,-2 4,-1 3,0 5,-1 5,0 5,0 4,0 5,1 4,1 4,1 4,1 4,2 4,2 46,15 39,85 73,-25 44,-156 39,-31 3,-2 4,-2 4,-2 6,-1 7,-1 7,-1 9,-1 8,0 20,0 56,16 83,163 -5,64 24,-3z M131,208 l0,-8 1,-7 2,-7 2,-7 3,-6 4,-7 4,-5 4,-6 5,-5 6,-4 6,-4 6,-3 6,-3 8,-2 7,-1 7,0 9,0 7,1 8,2 7,3 7,3 6,4 6,4 6,5 5,5 4,5 4,7 4,7 2,6 1,8 1,7 0,8 0,7 -1,8 -1,6 -3,7 -3,7 -4,6 -5,6 -4,6 -6,4 -7,5 -6,4 -7,3 -6,2 -8,2 -8,1 -8,0 -7,0 -7,-1 -7,-2 -6,-2 -7,-3 -5,-4 -6,-5 -6,-4 -4,-6 -4,-7 -4,-5 -3,-7 -2,-7 -2,-7 -1,-7 0,-7z " />
<path style="fill:none;stroke:#000;stroke-width:2" d="M664,375 l-48,-59 8,123 28,-3 12,-61" />
<path style="fill:none;stroke:#000;stroke-width:2" d="M294,484 l16,-34 -25,-37 -8,71 17,0" />
<circle style="fill:none;stroke:#000;stroke-width:2" cx="502" cy="102" r="74" />
<path style="fill:none;stroke:#000;stroke-width:2" d="M723,428 l11,105 -101,9 0,203 98,192 -57,33 -112,-222 -23,-117 -48,100 -19,231 -64,-13 17,-274 68,-157 -27,-135 -41,50 -80,13 -26,38 43,-3 13,83 -82,6 45,108 -51,19 78,215 -36,13 -106,-225 -40,-6 -90,237 -30,-16 61,-231 -25,-9 81,-175 -20,-56 -27,56 -87,64 -18,-28 81,-74 42,-121 39,-30 6,-4 26,-5 26,4 8,4 46,15 39,85 73,-25 44,-156 39,-31 24,-8 7,-1 9,-1 8,0 20,0 56,16 83,163 -5,64 24,-3" />
<circle style="fill:none;stroke:#000;stroke-width:2" cx="205" cy="207" r="74" />

</svg>
