 

<svg xmlns:agg="http://www.example.com" xmlns="http://www.w3.org/2000/svg" preserveAspectRatio="none" width="1.3081in" height="1.0750in" viewBox="0 0 999 821">

<path style="fill:#999" d="M456,117 l-23,-18 -17,-20 -24,-10 -31,8 -28,-1 -27,-6 -26,-6 -32,-2 -31,4 -20,17 -17,23 -16,22 -29,13 -10,33 6,26 19,22 9,24 -25,17 -24,18 -25,18 -6,3 -9,27 -11,26 -10,29 -7,29 -11,25 -2,12 -1,11 0,10 7,26 13,24 17,22 17,23 5,9 25,11 26,7 37,4 39,0 16,3 2,3 -1,4 11,25 14,26 26,26 21,15 25,24 22,25 26,17 30,2 34,2 32,6 32,7 31,6 15,1 6,1 7,0 25,-5 16,-23 16,-31 14,-27 17,-23 23,-12 27,6 29,12 27,16 25,11 28,-5 22,-14 26,-7 29,-6 26,-11 18,-20 7,-30 8,-28 9,-27 9,-26 6,-27 0,-9 0,-9 -3,-30 -1,-36 -3,-34 -12,-25 -6,-4 -31,-3 -27,-5 -32,-8 -24,-14 2,-26 1,-33 4,-29 3,-32 0,-18 7,-30 -7,-32 -17,-26 -19,-21 -25,-18 -30,-18 -27,-14 -27,-8 -16,-3 -8,0 -8,0 -8,1 -22,20 -31,14 -34,2 -29,-5 -20,2 -17,23 -16,24 -22,13 -9,-5z" />
<path style="fill:#666" d="M560,334 l-17,-27 -14,-30 -11,-27 -12,-28 -12,-26 -11,-25 -14,-25 -11,-12 -2,-1 -26,-6 -12,-23 -16,-24 -10,-2 -4,-1 -4,0 -26,6 -26,8 -31,3 -29,-4 -27,-6 -22,-7 11,24 15,44 6,40 -1,36 -7,33 -13,29 -17,26 -19,23 -22,21 -23,18 -23,15 -21,14 -28,16 -23,16 -2,3 -5,20 -2,13 1,12 13,23 26,18 13,24 -7,29 2,5 32,6 36,-3 36,-2 26,5 26,19 21,19 6,24 15,23 16,23 16,20 23,22 27,17 30,7 29,-4 35,-17 27,-21 14,-14 20,20 8,29 9,28 10,12 3,1 4,-1 23,-22 21,-34 8,-15 18,-20 13,-24 13,-22 3,-1 4,0 28,7 30,14 30,15 27,10 30,-8 28,-14 26,-13 23,-16 20,-26 2,-8 -1,-3 -29,-14 -31,-9 -33,-10 -31,-12 -23,-17 -7,-29 19,-30 28,-24 18,-13 23,-15 26,-15 30,-16 35,-18 -2,-4 -23,-10 -27,-3 -32,-5 -27,-4 -36,-1 -31,-1 -29,-5 -4,-2 -1,-3 0,-3 1,-4 11,-26 16,-22 20,-25 21,-25 20,-25 16,-22 11,-26 -5,-31 -22,-18 -24,-14 -26,-15 -32,3 -25,8 -26,11 -25,13 -23,11 -24,11 -3,1 -10,29 13,35 14,23 16,23 18,26 2,5 0,5 -26,17 -30,14 -29,7 -14,-4z" />
<path style="fill:#4c4c4c" d="M532,400 l-3,0 -20,22 -21,28 -22,28 -18,20 -10,5 -2,-1 -4,-27 2,-32 3,-28 3,-29 3,-28 2,-31 -3,-25 -2,0 -3,9 -13,26 -18,25 -20,23 -22,19 -23,15 -29,13 -32,0 -20,-19 -5,-15 -14,22 -21,22 -16,22 -3,14 -1,9 1,8 17,21 17,21 -5,18 1,4 4,2 32,1 32,-3 25,11 24,9 26,9 12,6 1,2 0,2 -2,28 7,29 10,10 3,1 2,-1 1,-34 4,-29 12,-31 16,-20 12,27 27,11 27,-8 26,-15 24,-9 22,15 3,31 -2,32 -3,20 15,-22 8,-24 1,-1 3,-1 24,9 23,11 24,-8 28,-7 31,-8 24,-13 4,-9 0,-2 -26,-11 -28,-8 -27,-10 -20,-20 13,-29 30,-25 32,-19 19,-11 23,-11 -1,-2 -29,-9 -28,-4 -38,2 -19,16 0,1 1,1 2,0 7,-35 13,-31 10,-31 1,-15 -1,-2 -2,0 -25,18 -22,26 -18,20 -20,24 -23,16 -26,-12 -22,-15 -5,-4z" />

</svg>
