 

<svg xmlns:agg="http://www.example.com" xmlns="http://www.w3.org/2000/svg" preserveAspectRatio="none" width="1.6083in" height="0.7905in" viewBox="0 0 999 491">

<path style="fill:#666;stroke:#000;stroke-width:2" d="M150,457 l-102,-20 -20,-19 62,-62 81,-42 41,-60 102,-62 42,-83 101,-61 63,-20 102,20 41,42 62,39 81,98 83,66 40,63 41,41 -47,25 -75,15 -155,15 -185,-4 -183,15 -175,-6z" />
<path style="fill:#616161" d="M305,457 l-87,-9 19,-41 56,-31 99,-77 45,-66 32,-41 51,-83 41,-19 49,24 81,17 34,32 46,64 51,66 83,34 33,49 8,29 -38,17 -92,11 -153,15 -102,-5 -88,5 -168,9z" />
<path style="fill:#595959" d="M606,416 l36,-15 -36,-36 -35,-24 -10,-78 -41,-62 41,-72 36,33 66,14 23,25 24,25 -5,64 50,9 78,62 3,51 -56,17 -115,11 -136,-3 77,-21z" />
<path style="fill:none;stroke:#999;stroke-width:2" d="M791,325 l10,-11 21,11" />
<path style="fill:none;stroke:#999;stroke-width:2" d="M863,293 l-11,-9 -21,9" />
<path style="fill:none;stroke:#999;stroke-width:2" d="M780,275 l11,-12 21,12" />
<path style="fill:none;stroke:#999;stroke-width:2" d="M750,314 l9,-9 21,9" />
<path style="fill:none;stroke:#999;stroke-width:2" d="M822,299 l-10,-9 -21,9" />
<path style="fill:none;stroke:#999;stroke-width:2" d="M227,382 l10,-11 21,11" />
<path style="fill:none;stroke:#999;stroke-width:2" d="M299,350 l-9,-9 -21,9" />
<path style="fill:none;stroke:#999;stroke-width:2" d="M218,329 l9,-9 21,9" />
<path style="fill:none;stroke:#999;stroke-width:2" d="M186,371 l11,-10 21,10" />
<path style="fill:none;stroke:#999;stroke-width:2" d="M258,356 l-10,-12 -21,12" />
<path style="fill:none;stroke:#999;stroke-width:2" d="M514,105 l9,-12 21,12" />
<path style="fill:none;stroke:#999;stroke-width:2" d="M586,75 l-10,-12 -21,12" />
<path style="fill:none;stroke:#999;stroke-width:2" d="M505,54 l9,-11 21,11" />
<path style="fill:none;stroke:#999;stroke-width:2" d="M473,93 l11,-9 21,9" />
<path style="fill:none;stroke:#999;stroke-width:2" d="M544,79 l-9,-10 -21,10" />
<path style="fill:none;stroke:#999;stroke-width:2" d="M407,176 l9,-11 21,11" />
<path style="fill:none;stroke:#999;stroke-width:2" d="M478,146 l-9,-11 -21,11" />
<path style="fill:none;stroke:#999;stroke-width:2" d="M397,125 l10,-11 20,11" />
<path style="fill:none;stroke:#999;stroke-width:2" d="M365,165 l11,-9 21,9" />
<path style="fill:none;stroke:#999;stroke-width:2" d="M437,150 l-10,-9 -20,9" />
<path style="fill:none;stroke:#333;stroke-width:2" d="M597,278 l9,-9 21,9" />
<path style="fill:none;stroke:#333;stroke-width:2" d="M669,248 l-12,-9 -20,9" />
<path style="fill:none;stroke:#333;stroke-width:2" d="M586,227 l11,-9 21,9" />
<path style="fill:none;stroke:#333;stroke-width:2" d="M555,269 l10,-11 21,11" />
<path style="fill:none;stroke:#333;stroke-width:2" d="M627,254 l-9,-11 -21,11" />
<path style="fill:none;stroke:#333;stroke-width:2" d="M693,412 l12,-11 20,11" />
<path style="fill:none;stroke:#333;stroke-width:2" d="M765,382 l-10,-11 -20,11" />
<path style="fill:none;stroke:#333;stroke-width:2" d="M684,361 l9,-11 21,11" />
<path style="fill:none;stroke:#333;stroke-width:2" d="M652,401 l11,-9 21,9" />
<path style="fill:none;stroke:#333;stroke-width:2" d="M725,386 l-11,-10 -21,10" />

</svg>
