 

<svg xmlns:agg="http://www.example.com" xmlns="http://www.w3.org/2000/svg" preserveAspectRatio="none" width="1.6083in" height="0.5426in" viewBox="0 0 999 337">

<path style="fill:#999;stroke:#000;stroke-width:2" d="M49,309 l30,-81 139,-21 81,-70 40,-60 139,21 142,9 130,202 -701,0z" />
<path style="fill:#b2b2b2;stroke:#000;stroke-width:2" d="M267,237 l132,-19 109,-60 40,-91 130,-30 141,-9 40,19 0,81 51,109 60,72 -761,0 58,-72z" />
<path style="fill:#ccc;stroke:#000;stroke-width:2" d="M28,309 l109,-81 51,-91 151,-21 58,72 102,60 109,61 -580,0z" />
<path style="fill:#e5e5e5;stroke:#000;stroke-width:2" d="M429,309 l91,-51 49,-51 30,-60 130,-19 81,-30 94,37 6,72 30,51 30,51 -541,0z" />

</svg>
