 

<svg xmlns:agg="http://www.example.com" xmlns="http://www.w3.org/2000/svg" preserveAspectRatio="none" width="0.7242in" height="1.0750in" viewBox="0 0 673 999">

<path style="fill:#808040;stroke:#000;stroke-width:2" d="M310,596 l33,8 34,1 33,-6 30,-11 26,-17 21,-20 13,-24 7,-26 -40,-1 -36,-9 -28,-16 -20,-20 -11,-25 -3,-35 -3,-40 0,-37 6,-31 21,-20 28,5 15,28 -2,29 -3,29 5,29 24,19 25,7 32,-2 7,-2 12,-35 3,-32 2,-37 3,-36 7,-32 13,-25 22,-14 31,2 12,6 14,21 2,13 0,17 -5,36 -10,42 -14,45 -13,44 -10,42 -7,32 -8,29 -8,28 -10,25 -11,23 -19,29 -21,23 -21,16 -22,12 -25,8 -26,6 -28,4 -28,2 -29,2 -30,1 -2,34 -2,34 -2,34 -1,34 0,49 1,32 1,32 1,15 -99,0 -2,-34 -1,-34 -1,-36 0,-36 1,-37 2,-37 2,-37 3,-37 -34,-9 -31,-10 -28,-12 -25,-15 -21,-16 -21,-29 -9,-36 -2,-34 -2,-35 0,-17 0,-16 2,-31 4,-26 14,-29 25,-12 24,8 17,30 6,30 2,33 1,32 4,26 11,31 22,22 26,9 21,1 4,-36 5,-39 5,-38 5,-38 4,-39 5,-37 5,-37 4,-36 -31,5 -28,-1 -25,-6 -30,-17 -21,-26 -11,-30 -1,-32 2,-32 5,-27 13,-27 25,-8 25,6 22,22 -1,32 -3,34 3,16 26,4 27,-6 13,-26 2,-30 0,-35 6,-31 12,-21 21,-12 7,-1 8,0 24,7 16,23 4,27 0,35 0,32 -1,36 -4,40 -2,29 -4,29 -3,31 -3,32 -4,33 -4,34 -4,34 -4,36 -4,36 -4,37 -3,37z" />

</svg>
