 

<svg xmlns:agg="http://www.example.com" xmlns="http://www.w3.org/2000/svg" preserveAspectRatio="none" width="0.8555in" height="1.0750in" viewBox="0 0 795 999">

<path style="fill:#ff0;stroke:#000;stroke-width:2" d="M334,821 l0,-28 -2,-37 -4,-31 -6,-25 -9,-29 -13,-23 -17,-25 -20,-23 -19,-24 -15,-22 -11,-23 -9,-24 -7,-26 -4,-27 -2,-23 0,-6 0,-12 4,-36 8,-34 13,-31 16,-29 20,-26 22,-23 26,-18 27,-15 30,-9 31,-5 11,0 10,0 32,5 29,9 28,15 25,18 23,23 19,26 16,29 13,31 8,34 4,36 0,12 0,6 -2,29 -5,28 -7,26 -11,26 -13,25 -18,24 -18,21 -18,20 -16,24 -11,24 -9,29 -5,28 -3,33 -2,39 0,14 -139,0z" />
<ellipse style="fill:#fff" cx="331" cy="881" rx="5" ry="60" />
<path style="fill:#fcfcfc" d="M336,941 l0,-120 9,0 0,124 -9,-4z" />
<path style="fill:#f7f7f7" d="M345,945 l0,-124 10,0 0,127 -10,-3z" />
<path style="fill:#f4f4f4" d="M355,948 l0,-127 10,0 0,131 -10,-4z" />
<path style="fill:#efefef" d="M365,952 l0,-131 9,0 0,135 -9,-4z" />
<path style="fill:#eaeaea" d="M374,956 l0,-135 10,0 0,139 -10,-4z" />
<path style="fill:#e8e8e8" d="M384,960 l0,-139 10,0 0,139 -8,0 -2,0z" />
<path style="fill:#e2e2e2" d="M394,960 l0,-139 10,0 0,139 -10,0z" />
<path style="fill:#e0e0e0" d="M404,960 l0,-139 9,0 0,139 -9,0z" />
<path style="fill:#dbdbdb" d="M413,960 l0,-139 10,0 0,139 -2,0 -8,0z" />
<path style="fill:#d6d6d6" d="M423,960 l0,-139 10,0 0,135 -10,4z" />
<path style="fill:#d1d1d1" d="M433,956 l0,-135 10,0 0,131 -10,4z" />
<path style="fill:#cecece" d="M443,952 l0,-131 9,0 0,127 -9,4z" />
<path style="fill:#c9c9c9" d="M452,948 l0,-127 10,0 0,124 -10,3z" />
<path style="fill:#c6c6c6" d="M462,945 l0,-124 10,0 0,120 -10,4z" />
<ellipse style="fill:#c1c1c1" cx="477" cy="881" rx="5" ry="60" />
<path style="fill:none;stroke:#000;stroke-width:2" d="M334,831 l-8,10 8,10 0,10 -8,10 8,10 0,10 -8,10 8,10 0,29 52,20 35,0 52,-20 0,-9 9,-10 -9,-10 0,-10 9,-10 -9,-10 0,-10 9,-10 -9,-10 0,-30 -139,0 0,10" />
<path style="fill:none;stroke:#000;stroke-width:2" d="M326,841 l156,20" />
<path style="fill:none;stroke:#000;stroke-width:2" d="M326,871 l156,20" />
<path style="fill:none;stroke:#000;stroke-width:2" d="M326,901 l156,20" />
<path style="fill:#828282;stroke:#000;stroke-width:2" d="M386,960 l35,0 0,10 -35,0 0,-10z" />
<path style="fill:#fff;stroke:#000;stroke-width:2" d="M459,301 l5,12 5,12 4,14 4,14 2,14 1,15 1,16 0,15 -1,15 -1,15 -2,15 -4,14 -4,13 -5,12 -5,12 -3,5 3,0 9,-2 9,-5 8,-6 7,-9 7,-10 4,-8 3,-8 3,-9 3,-10 2,-10 1,-10 1,-11 0,-5 0,-6 0,-5 0,-12 -2,-10 -1,-10 -3,-10 -3,-9 -3,-9 -3,-8 -5,-7 -6,-10 -8,-8 -8,-6 -9,-4 -6,-1 -3,0 3,5z" />
<path style="fill:#ff0;stroke:#000;stroke-width:2" d="M659,350 l69,-20 36,-22 -40,9 -65,33z" />
<path style="fill:#ff0;stroke:#000;stroke-width:2" d="M584,202 l56,-50 25,-37 -33,27 -48,60z" />
<path style="fill:#ff0;stroke:#000;stroke-width:2" d="M454,152 l22,-78 1,-46 -14,44 -9,80z" />
<path style="fill:#ff0;stroke:#000;stroke-width:2" d="M317,164 l-22,-76 -23,-40 11,45 34,71z" />
<path style="fill:#ff0;stroke:#000;stroke-width:2" d="M186,262 l-52,-56 -36,-22 29,34 59,44z" />
<path style="fill:#ff0;stroke:#000;stroke-width:2" d="M153,522 l-67,27 -34,26 39,-13 62,-40z" />
<path style="fill:#ff0;stroke:#000;stroke-width:2" d="M210,638 l-44,39 -19,29 26,-21 37,-47z" />
<path style="fill:#ff0;stroke:#000;stroke-width:2" d="M139,385 l-71,-10 -40,6 40,8 71,-4z" />
<path style="fill:#ff0;stroke:#000;stroke-width:2" d="M659,497 l67,27 41,3 -38,-17 -70,-13z" />
<path style="fill:#ff0;stroke:#000;stroke-width:2" d="M600,627 l34,51 26,23 -18,-30 -42,-44z" />

</svg>
