 

<svg xmlns:agg="http://www.example.com" xmlns="http://www.w3.org/2000/svg" preserveAspectRatio="none" width="1.4281in" height="1.0750in" viewBox="0 0 999 752">

<path style="fill:#008040;stroke:#000;stroke-width:2" d="M970,460 l-29,-3 -31,-8 -33,-6 -35,-2 -38,7 -40,20 -21,15 -22,20 -23,25 -23,30 37,-1 46,1 49,6 46,12 39,21 26,30 8,42 -5,25 -11,30 -1,-1 -23,-11 -23,-9 -31,-10 -37,-10 -30,-6 -31,-4 -35,-2 -37,-1 -39,2 -41,5 -44,8 -46,12 -34,-13 -35,-7 -35,-3 -36,1 -36,3 -36,5 -35,5 -33,3 -33,2 -31,-2 -20,-3 3,-35 20,-27 30,-21 37,-15 37,-11 33,-6 28,-5 2,0 -30,-19 -27,-15 -25,-11 -43,-15 -36,-5 -31,2 -27,5 -28,6 -28,3 -15,0 19,-20 38,-30 37,-20 37,-10 36,-3 36,4 37,9 36,13 19,8 -15,-23 -16,-20 -35,-29 -38,-20 -39,-11 -38,-5 -35,-3 -30,-3 -25,-4 39,-25 35,-19 33,-12 31,-7 28,-1 38,7 33,16 30,24 18,19 16,22 15,24 14,24 13,27 12,26 6,14 -8,-30 -10,-28 -11,-29 -11,-29 -12,-29 -11,-28 -11,-29 -9,-27 -8,-27 -6,-27 -6,-39 2,-37 9,-35 17,-33 22,22 18,28 13,32 12,35 6,24 8,38 6,38 6,37 7,36 7,32 10,29 8,-30 6,-30 4,-30 2,-30 1,-29 0,-29 -1,-28 -2,-40 -1,-36 2,-34 4,-29 10,-24 10,-13 6,-5 15,11 26,24 18,24 12,25 7,37 -3,38 -4,27 -8,26 -8,28 -8,27 -8,28 -6,28 -4,29 -1,28 4,30 4,15 21,-33 20,-33 17,-32 16,-30 16,-29 14,-27 14,-26 13,-23 21,-31 21,-25 23,-18 27,-11 30,-2 11,1 -9,43 -12,35 -16,28 -19,26 -20,28 -22,33 -11,20 -12,22 -12,26 -11,29 36,-19 37,-14 45,-12 47,-5 48,5 45,19 20,16 18,20 16,26z" />

</svg>
