<?xml version="1.0" encoding="utf-8"?>
<!-- Generator: Adobe Illustrator 16.0.0, SVG Export Plug-In . SVG Version: 6.00 Build 0)  -->
<!DOCTYPE svg PUBLIC "-//W3C//DTD SVG 1.1//EN" "http://www.w3.org/Graphics/SVG/1.1/DTD/svg11.dtd">
<svg version="1.1" id="图层_1" xmlns="http://www.w3.org/2000/svg" preserveAspectRatio="none" xmlns:xlink="http://www.w3.org/1999/xlink" x="0px" y="0px"
	 width="100px" height="100px" viewBox="0 0 100 100" enable-background="new 0 0 100 100" xml:space="preserve">
<g>
	<ellipse fill="#C5C1AE" cx="50.8" cy="91.325" rx="15.803" ry="6.272"/>
	<g>
		<g>
			<path fill="#85C07E" d="M78.633,24.566c-2.443-8.695-10.509-12.745-17.83-12.771C57.858,4.234,48.087,0.12,40.164,3.162
				C30.973,6.69,28.48,16.954,30.817,24.169c0,0.001,0,0.003,0.001,0.005c-2.758,1.211-5.213,3.335-7.03,6.501
				c-4.136,7.206,1.197,16.816,9.215,18.582c7.323,1.617,13.336-3.25,15.61-8.75c3.348,3.67,8.114,6.074,14.185,6.255
				C73.714,47.093,81.551,34.956,78.633,24.566z"/>
			<path fill="#689F60" d="M59.84,37.782c-6.841,0.654-10.801-2.912-10.801-2.912s-4.679,5.064-14.036,5.771
				c-8.66,0.654-12.124-4.843-12.591-5.665c-0.632,6.276,4.098,12.852,10.592,14.282c7.323,1.617,13.336-3.25,15.61-8.75
				c3.348,3.67,8.114,6.074,14.185,6.255c10.915,0.331,18.752-11.807,15.834-22.196c-2.443-8.695-10.509-12.745-17.83-12.771
				C73.994,21.326,66.682,37.128,59.84,37.782z"/>
		</g>
		<g>
			<path fill="#685023" d="M46.067,92.833c0,0,1.321-46.314,0.943-47.912c-0.377-1.599-5.094-8.899-5.094-8.899
				s6.037,6.616,6.603,3.878c0.566-2.737,1.698-23.502,1.698-23.502s0.377,20.993,1.888,20.765c1.508-0.229,7.734-8.443,7.734-8.443
				s-7.17,10.954-7.17,15.06c0,4.106,0.568,49.052,0.568,49.052H46.067z"/>
		</g>
	</g>
</g>
</svg>
