 

<svg xmlns:agg="http://www.example.com" xmlns="http://www.w3.org/2000/svg" preserveAspectRatio="none" width="0.6295in" height="1.0750in" viewBox="0 0 585 999">

<path style="fill:#ccc;stroke:#000;stroke-width:2" d="M441,392 l0,-166 -3,-29 -8,-28 -14,-26 -18,-22 -23,-19 -26,-14 -28,-8 -29,-3 -29,3 -28,8 -26,14 -22,19 -19,23 -14,25 -8,28 -3,29 1,314 -50,0 0,-314 3,-38 12,-38 18,-34 25,-30 30,-25 34,-18 37,-12 39,-3 39,3 37,12 34,18 31,25 24,30 18,34 12,37 4,39 0,166 -50,0z" />
<circle style="fill:#ccc;stroke:#000;stroke-width:2" cx="292" cy="705" r="264" />
<circle style="fill:#000" cx="292" cy="705" r="198" />
<circle style="fill:#e5e5e5" cx="292" cy="705" r="182" />
<circle style="fill:#4c4c4c" cx="292" cy="705" r="115" />
<circle style="fill:#fff" cx="292" cy="705" r="99" />
<path style="fill:none;stroke:#000;stroke-width:2" d="M292,904 l0,-50" />
<path style="fill:none;stroke:#000;stroke-width:2" d="M392,877 l-17,-28" />
<path style="fill:none;stroke:#000;stroke-width:2" d="M464,805 l-29,-17" />
<path style="fill:none;stroke:#000;stroke-width:2" d="M491,705 l-50,0" />
<path style="fill:none;stroke:#000;stroke-width:2" d="M464,606 l-29,17" />
<path style="fill:none;stroke:#000;stroke-width:2" d="M392,534 l-17,29" />
<path style="fill:none;stroke:#000;stroke-width:2" d="M292,507 l0,50" />
<path style="fill:none;stroke:#000;stroke-width:2" d="M193,534 l16,29" />
<path style="fill:none;stroke:#000;stroke-width:2" d="M120,606 l29,17" />
<path style="fill:none;stroke:#000;stroke-width:2" d="M94,705 l50,0" />
<path style="fill:none;stroke:#000;stroke-width:2" d="M120,805 l29,-17" />
<path style="fill:none;stroke:#000;stroke-width:2" d="M193,877 l16,-28" />

</svg>
