 

<svg xmlns:agg="http://www.example.com" xmlns="http://www.w3.org/2000/svg" preserveAspectRatio="none" width="1.3663in" height="1.0750in" viewBox="0 0 999 786">

<path style="fill:#333;stroke:#000;stroke-width:2" d="M137,178 l145,-82 145,-53 93,-15 130,15 119,47 103,72 68,67 -803,-51z" />
<path style="fill:#4c1900" d="M305,422 l-226,-178 297,-22 227,0 314,115 -247,294 -616,0 0,-209 251,0z" />
<path style="fill:#000;fill-rule:evenodd" d="M663,463 l28,0 0,294 -28,0 0,-294z M627,473 l25,-8 75,283 -24,7 -76,-282z M591,490 l25,-14 147,255 -24,13 -148,-254z M563,516 l19,-19 209,207 -19,19 -209,-207z M542,548 l15,-22 253,147 -13,22 -255,-147z M531,586 l7,-27 285,76 -7,26 -285,-75z M531,623 l0,-26 292,0 0,26 -292,0z M538,661 l-7,-26 285,-76 7,27 -285,75z M557,695 l-15,-22 255,-147 13,22 -253,147z M582,723 l-19,-19 209,-207 19,19 -209,207z M616,744 l-25,-13 148,-255 24,14 -147,254z M652,755 l-25,-7 76,-283 24,8 -75,282z M244,463 l27,0 0,294 -27,0 0,-294z M207,473 l26,-8 76,283 -27,7 -75,-282z M173,490 l22,-14 148,255 -23,13 -147,-254z M145,516 l18,-19 208,207 -19,19 -207,-207z M124,548 l13,-22 254,147 -13,22 -254,-147z M112,586 l8,-27 283,76 -6,26 -285,-75z M111,623 l0,-26 294,0 0,26 -294,0z M120,661 l-8,-26 285,-76 6,27 -283,75z M137,695 l-13,-22 254,-147 13,22 -254,147z M163,723 l-18,-19 207,-207 19,19 -208,207z M195,744 l-22,-13 147,-255 23,14 -148,254z M233,755 l-26,-7 75,-283 27,8 -76,282z " />
<circle style="fill:#333;stroke:#000;stroke-width:2" cx="677" cy="610" r="140" />
<path style="fill:#333;stroke:#000;stroke-width:2" d="M312,740 l-35,10 -36,0 -36,-10 -32,-19 -26,-26 -20,-30 -9,-36 0,-38 9,-35 20,-33 26,-24 32,-19 34,-9 38,0 35,9 32,19 27,24 17,33 9,35 0,38 -9,36 -17,30 -27,26 -32,19z" />
<circle style="fill:#4c4c4c" cx="677" cy="610" r="59" />
<circle style="fill:#4c4c4c" cx="258" cy="610" r="59" />
<circle style="fill:#c90;stroke:#000;stroke-width:2" cx="677" cy="610" r="46" />
<circle style="fill:#c90;stroke:#000;stroke-width:2" cx="258" cy="610" r="47" />
<path style="fill:#000" d="M684,616 l24,7 -4,8 -7,6 -8,3 -5,-24z" />
<path style="fill:#000" d="M670,616 l-5,24 -8,-3 -7,-6 -4,-8 24,-7z" />
<path style="fill:#000" d="M670,603 l-24,-6 4,-8 7,-5 8,-6 5,25z" />
<path style="fill:#000" d="M684,603 l5,-25 8,6 7,5 4,8 -24,6z" />
<path style="fill:#000" d="M265,616 l25,7 -6,8 -6,6 -7,3 -6,-24z" />
<path style="fill:#000" d="M252,616 l-8,24 -7,-3 -6,-6 -3,-8 24,-7z" />
<path style="fill:#000" d="M252,603 l-24,-6 3,-8 6,-5 7,-6 8,25z" />
<path style="fill:#000" d="M265,603 l6,-25 7,6 6,5 6,8 -25,6z" />
<path style="fill:#d9a600;stroke:#000;stroke-width:2" d="M101,290 l204,0 0,132 -204,0 0,-132z" />
<path style="fill:#300" d="M190,316 l26,0 0,64 -26,0 0,-64z" />
<path style="fill:#300" d="M107,316 l36,0 -12,64 -24,0 0,-64z" />
<path style="fill:#300" d="M154,316 l24,0 0,64 -35,0 11,-64z" />
<path style="fill:#f2bf00;stroke:#000;stroke-width:2" d="M75,290 l230,0 0,-15 -230,0 0,15z" />
<path style="fill:#f2bf00;stroke:#000;stroke-width:2" d="M28,422 l277,0 0,20 -151,0 -91,210 -35,0 0,-230z" />
<path style="fill:#fc0;stroke:#000;stroke-width:2" d="M363,457 l-53,-214 -235,0 0,-74 722,0 53,43 79,131 -566,114z" />
<path style="fill:none;stroke:#b27f00;stroke-width:2" d="M405,442 l-62,-267" />
<path style="fill:none;stroke:#b27f00;stroke-width:2" d="M358,233 l497,0" />
<path style="fill:none;stroke:#b27f00;stroke-width:2" d="M378,307 l498,0" />
<path style="fill:none;stroke:#b27f00;stroke-width:2" d="M390,369 l397,0" />
<path style="fill:none;stroke:#b27f00;stroke-width:2" d="M425,437 l0,-262" />
<path style="fill:#fc0;stroke:#000;stroke-width:2" d="M431,160 l-6,41 174,79 335,74 36,-11 -11,-131 -277,0 -204,-52 -47,0z" />

</svg>
