 

<svg xmlns:agg="http://www.example.com" xmlns="http://www.w3.org/2000/svg" preserveAspectRatio="none" width="1.5587in" height="1.0750in" viewBox="0 0 999 689">

<path style="fill:#f0f0f0;stroke:#000;stroke-width:2" d="M166,498 l10,25 13,23 29,41 33,33 37,24 39,14 20,3 21,0 40,-7 39,-18 35,-27 17,-17 33,32 38,22 39,13 41,2 40,-8 39,-19 35,-29 31,-38 13,-21 13,-23 10,-25 29,5 28,-5 27,-17 23,-25 18,-32 10,-38 3,-21 1,-20 -1,-21 -7,-40 -15,-36 -20,-29 -25,-21 -28,-10 -29,-1 -14,4 -10,-24 -13,-24 -13,-21 -31,-38 -35,-28 -39,-19 -20,-6 -20,-3 -21,0 -39,7 -39,17 -36,28 -16,17 -34,-32 -37,-23 -40,-12 -41,-2 -40,9 -38,19 -35,28 -32,38 -13,21 -13,24 -10,24 -29,-5 -28,6 -27,15 -22,26 -18,33 -11,38 -3,20 0,21 0,20 8,40 14,36 20,29 25,21 28,11 29,0 14,-4z" />

</svg>
