 

<svg xmlns:agg="http://www.example.com" xmlns="http://www.w3.org/2000/svg" preserveAspectRatio="none" width="0.6629in" height="1.0750in" viewBox="0 0 616 999">

<path style="fill:#008040;fill-rule:evenodd" d="M186,201 l3,3 4,1 5,1 4,0 4,0 3,0 2,2 1,4 0,4 0,5 0,4 -1,4 0,3 -1,4 -1,4 0,3 -1,4 -1,3 -2,4 -1,3 -1,4 -2,3 -2,3 -2,4 7,-5 6,-5 6,-5 6,-4 6,-5 5,-5 6,-5 6,-5 7,-4 6,-4 6,-3 7,-3 7,-3 8,-1 8,-2 8,0 4,-6 4,-4 4,-2 5,-1 6,1 6,2 5,2 6,4 7,4 6,4 7,4 6,4 7,3 6,3 6,2 7,0 -1,-3 -1,-3 -1,-3 -2,-2 -2,-3 -2,-3 -2,-2 -2,-3 -3,-2 -2,-3 -3,-2 -2,-3 -2,-2 -2,-3 -2,-2 -2,-3 -3,-6 -4,-5 -3,-6 -4,-6 -4,-6 -3,-6 -3,-6 -3,-6 -3,-6 -1,-6 -1,-6 0,-6 1,-6 1,-5 3,-6 5,-5 -3,-3 -3,-4 -3,-4 -3,-4 -3,-5 -2,-5 -3,-4 -2,-6 -3,-5 -2,-4 -3,-5 -2,-5 -3,-4 -2,-4 -3,-4 -3,-3 -3,5 -3,6 -3,6 -2,5 -2,5 -2,5 -2,6 -2,5 -3,5 -2,5 -3,6 -3,5 -4,5 -4,6 -4,6 -5,5 0,4 1,2 1,1 2,-1 1,-2 2,-2 2,-3 1,-2 2,-1 1,-1 0,2 0,2 0,6 -2,7 -3,11 -3,14 -5,4 -6,3 -4,1 -4,2 -4,2 -2,4 -2,5 0,7 -4,0 -3,1 -3,1 -3,1 -3,1 -2,1 -3,1 -2,1 -2,2 -3,1 -2,2 -3,1 -2,2 -3,2 -2,2 -3,3z M186,350 l7,-6 5,-5 5,-7 5,-6 4,-7 4,-6 4,-7 4,-6 5,-6 4,-6 5,-5 5,-4 6,-3 7,-3 8,-2 9,0 1,-3 2,-4 2,-4 2,-4 2,-4 3,-3 2,-3 2,-3 4,0 3,1 4,0 3,1 4,1 3,0 2,1 3,0 2,6 3,6 4,5 5,5 5,5 6,5 6,4 7,4 6,4 7,3 7,4 6,4 6,4 6,4 6,4 4,4 17,35 -3,1 -4,1 -4,1 -4,0 -5,0 -5,0 -5,0 -4,0 -5,-1 -5,0 -5,0 -5,-1 -5,0 -4,0 -5,-1 -4,0 5,5 4,3 4,3 5,3 4,2 4,2 4,2 4,1 4,2 5,1 4,2 5,1 5,2 5,2 5,2 5,3 4,2 3,4 3,3 1,3 2,4 0,3 1,3 1,3 2,5 3,4 4,5 4,4 5,4 6,4 5,4 5,4 6,4 5,4 5,4 4,4 3,4 3,5 2,4 0,6 -5,0 -5,0 -5,0 -4,-2 -4,-2 -3,-2 -3,-3 -3,-3 -3,-3 -3,-4 -3,-3 -3,-3 -3,-3 -3,-3 -3,-2 -4,-2 -2,-1 -2,-1 -3,-1 -2,0 -3,0 -3,0 -3,0 -3,0 -3,0 -3,0 -2,0 -3,0 -3,0 -3,1 -2,0 -2,0 0,47 2,2 3,3 3,2 3,3 3,3 3,3 3,3 2,3 -3,1 -3,0 -3,1 -2,0 -3,1 -3,1 -2,1 -3,1 -3,0 -4,0 -3,0 -4,0 -4,-1 -5,-2 -5,-2 -5,-2 -3,-6 -4,-6 -4,-6 -4,-6 -4,-7 -4,-7 -5,-7 -5,-7 -5,-6 -5,-6 -6,-6 -6,-6 -5,-4 -7,-4 -6,-4 -6,-2 -3,-1 -4,-1 -3,-1 -4,0 -3,0 -4,0 -3,0 -4,0 -3,0 -4,0 -4,0 -3,-1 -4,0 -3,-1 -3,0 -3,-1 2,-3 2,-3 2,-3 3,-3 2,-2 2,-3 1,-2 0,-3 -5,-1 -5,-1 -3,0 -3,0 -3,0 -3,1 -2,0 -2,2 -2,1 -2,2 -2,2 -2,2 -2,3 -3,3 -3,4 -4,4 -48,2 4,-4 4,-3 4,-2 3,-3 4,-2 3,-3 3,-2 3,-3 3,-2 2,-3 2,-3 2,-3 2,-3 1,-4 1,-5 0,-5 -17,-11 2,-2 2,-1 2,-1 2,-1 2,-1 1,-1 1,-1 1,-1z M197,471 l-3,3 -2,3 -4,2 -3,1 -4,2 -3,1 -4,1 -4,1 -5,1 -4,0 -4,1 -4,1 -4,2 -4,1 -3,2 -4,2 20,12 4,3 1,5 1,5 -1,6 -2,5 -3,6 -4,6 -4,5 -4,6 -5,5 -5,5 -5,5 -5,4 -5,4 -5,4 -4,3 -3,2 4,0 5,0 5,-1 5,0 6,-1 5,0 5,-1 5,-1 5,-1 5,-2 5,-2 5,-1 4,-3 4,-2 4,-3 3,-3 2,0 2,1 2,0 2,0 2,0 3,1 2,0 2,0 2,1 2,0 2,1 2,0 2,0 2,1 2,0 2,1 0,11 7,-6 6,-6 7,-4 6,-4 7,-4 6,-3 6,-3 7,-3 6,-3 6,-2 7,-3 7,-2 7,-3 7,-2 7,-4 8,-3 -4,-1 -4,0 -4,-2 -4,-2 -5,-2 -4,-2 -4,-3 -5,-2 -4,-3 -4,-2 -3,-3 -4,-2 -3,-1 -3,-2 -2,-1 -2,0 -2,-3 -2,-3 -2,-2 -3,-2 -2,-1 -3,-1 -3,-1 -3,-2 -2,-1 -3,-5 -2,-4 -2,-3 -2,-3 -3,-2 -2,-2 -2,-1 -2,-1 -2,0 -3,0 -3,1 -3,1 -4,1 -4,2 -4,2 -5,2z M190,607 l3,2 4,1 3,1 3,2 3,1 3,1 4,2 3,1 3,1 4,1 3,2 4,1 3,0 4,1 4,0 4,0 42,-48 5,0 5,0 5,0 5,0 5,0 5,0 5,0 6,0 5,0 5,-1 5,0 5,0 6,0 5,0 5,0 5,0 5,0 6,0 5,0 5,0 5,0 6,0 5,0 5,0 5,1 5,0 5,0 5,0 5,1 5,0 5,1 5,0 3,-2 2,-2 1,-2 1,-2 1,-2 0,-2 0,-3 -1,-3 -1,-3 -1,-4 -1,-5 -2,-6 -1,-6 -2,-7 -2,-8 -2,-9 2,2 2,2 2,3 2,2 3,3 2,3 2,3 2,3 3,3 2,2 3,3 2,3 2,3 3,3 2,3 3,3 0,6 0,6 1,6 1,5 1,6 1,5 1,5 2,6 2,5 2,5 2,4 2,5 2,5 3,5 3,4 3,5 3,4 2,4 4,4 3,5 3,4 4,4 3,4 4,4 3,3 4,4 3,4 4,4 4,4 3,3 4,4 3,4 -2,0 -2,0 -2,-1 -2,0 -2,0 -3,0 -2,0 -2,0 -2,0 -3,-1 -2,0 -2,0 -2,0 -2,0 -2,0 -2,0 -2,3 -1,4 0,3 0,4 1,3 1,4 1,3 2,4 1,3 3,4 2,3 2,3 3,3 3,3 3,3 2,3 -5,0 -5,-1 -5,0 -5,-1 -6,-1 -5,-2 -5,-1 -5,-2 -5,-2 -4,-1 -5,-2 -5,-3 -5,-2 -5,-2 -5,-2 -5,-3 -5,-2 -4,-2 -5,-3 -5,-2 -5,-2 -5,-2 -5,-2 -5,-2 -5,-1 -5,-2 -6,-1 -5,-1 -5,-1 -5,-1 -6,0 -5,0 -4,4 -3,4 -3,3 -3,4 -2,3 -2,2 -2,3 -3,1 -2,1 -3,0 -3,-1 -3,-2 -4,-2 -5,-4 -6,-5 -6,-6 -15,0 -6,-7 -6,-6 -7,-5 -6,-5 -7,-3 -7,-3 -7,-1 -6,-1 -6,1 -5,2 -5,4 -4,5 -4,6 -3,8 -1,9 -1,11 -1,0 -1,-1 -1,-2 -1,-1 -2,-3 -1,-2 -2,-2 -1,-3 -1,-3 -2,-3 -1,-3 -2,-3 -1,-3 -2,-2 -1,-2 -2,-2 -1,0 -2,0 -3,0 -3,1 -4,0 -5,0 -5,1 -5,0 -5,0 -5,-1 -5,-1 -4,-1 -3,-2 -3,-2 -1,-3 -1,-3 -9,0 -8,1 -8,3 -8,2 -7,4 -8,3 -7,4 -7,4 -7,4 -8,4 -7,3 -7,4 -8,2 -8,2 -8,2 -8,0 7,-5 6,-6 6,-6 5,-6 6,-6 5,-6 4,-6 5,-7 4,-6 5,-6 4,-7 5,-6 5,-6 5,-7 5,-6 6,-6 2,-1 3,-1 4,-2 4,-1 5,-2 5,-1 6,-1 5,-1 6,-1 5,-1 6,-1 4,-1 4,0 4,-1 3,0 2,0z M79,768 l-1,5 -1,4 -3,4 -3,4 -4,3 -4,3 -5,2 -5,3 -4,2 -5,3 -4,3 -4,4 -4,3 -2,5 -2,5 0,6 22,0 4,1 0,3 0,3 -1,4 -1,4 -1,4 0,4 -1,4 0,2 5,0 5,-1 7,0 8,-2 8,-1 8,-2 9,-2 8,-3 9,-2 8,-3 8,-4 7,-3 6,-4 5,-3 4,-4 3,-4 6,0 6,-1 4,0 4,0 3,-1 3,0 2,-1 3,0 2,-1 3,0 4,-1 3,0 5,0 5,-1 6,0 8,0 9,9 0,5 0,5 -1,6 0,7 -1,7 0,8 -1,7 -1,8 0,8 -1,8 -1,7 0,7 -1,7 0,6 0,5 0,4 -3,1 -3,1 -3,1 -3,2 -4,1 -3,2 -3,1 -3,2 -4,2 -2,2 -3,2 -2,2 -2,2 -2,3 -1,3 0,3 2,0 3,0 3,0 2,0 3,1 3,0 2,1 2,1 0,1 -1,1 -1,1 0,2 -1,2 -1,1 -1,2 0,1 5,0 5,0 6,-1 5,-2 6,-1 6,-2 6,-1 5,-2 6,-1 6,-1 6,-1 6,-1 6,0 6,0 6,1 6,1 4,1 4,1 5,1 4,1 4,0 5,1 5,0 4,1 5,0 5,1 4,0 5,0 5,0 5,1 5,0 5,0 -3,-2 -3,-2 -2,-2 -2,-2 -3,-2 -2,-2 -2,-2 -2,-2 -2,-2 -2,-2 -2,-2 -2,-2 -2,-3 -1,-2 -2,-2 -2,-2 -3,-6 -3,-6 -3,-7 -1,-7 -1,-8 -1,-7 0,-8 0,-9 1,-8 1,-8 0,-8 1,-7 1,-7 0,-7 1,-6 0,-6 7,1 6,1 6,2 6,2 6,3 6,3 5,3 6,3 5,3 6,3 6,3 5,3 6,2 7,2 6,1 7,0 0,-55 2,-1 2,-2 2,-1 3,-1 2,-1 3,-1 3,0 3,-1 3,0 3,-1 3,0 3,0 3,0 2,0 3,0 2,0 0,-1 0,-2 1,-2 0,-2 0,-2 1,-3 0,-2 0,-3 -4,0 -3,-1 -4,-1 -4,-1 -3,-2 -4,-2 -4,-1 -4,-2 -4,-2 -4,-2 -4,-2 -3,-2 -4,-1 -3,-1 -4,0 -3,0 -7,1 -8,2 -7,2 -7,2 -8,1 -8,2 -7,1 -8,1 -7,1 -7,0 -8,-1 -7,-2 -8,-2 -7,-4 -7,-5 -7,-7 -6,1 -6,1 -8,1 -8,1 -8,2 -9,1 -8,1 -9,1 -8,0 -8,-1 -7,-2 -6,-4 -5,-5 -4,-6 -2,-8 -1,-10 -16,0 -3,3 -2,3 -3,2 -2,2 -3,2 -2,2 -3,1 -2,2 -3,1 -3,2 -2,1 -3,2 -3,1 -3,2 -3,1 -3,2 -3,0 -4,0 -4,0 -4,0 -4,1 -4,0 -4,0 -4,1 -4,1 -3,2 -3,1 -3,2 -2,3 -1,2 -1,4 0,4z M539,795 l-7,1 -8,0 -7,1 -7,1 -7,1 -6,2 -6,2 -5,3 -3,3 -4,4 -2,4 -2,5 0,5 1,6 1,7 4,7 2,0 2,0 2,0 2,0 3,0 2,0 3,1 2,0 2,0 3,0 2,0 3,0 2,0 2,1 2,0 2,0 0,-1 1,-1 0,-1 0,-1 1,-1 0,-1 0,-1 0,0 69,5 -5,-4 -3,-4 -3,-3 -3,-3 -2,-2 -1,-2 -2,-2 -1,-2 -2,-2 -2,-2 -2,-2 -3,-4 -4,-3 -4,-5 -5,-5 -7,-7z M483,657 l-4,-3 -4,-4 -3,-4 -4,-5 -3,-3 -3,-4 -2,-4 -1,-4 -1,3 0,3 -1,3 0,3 -1,3 -1,2 0,3 0,2 -11,0 -2,-2 -2,-2 -2,-2 -2,-2 -2,-1 -2,-2 -2,-2 -2,-2 -3,-2 -2,-2 -3,-1 -2,-1 -3,-1 -3,-1 -2,0 -3,-1 1,8 1,7 3,6 4,5 5,5 6,4 6,4 6,3 7,2 8,3 7,1 8,2 8,1 8,0 7,1 7,0 -3,-2 -3,-3 -3,-2 -2,-3 -2,-2 -2,-2 -1,-2 0,-3z " />
<path style="fill:none;stroke:#000;stroke-width:2" d="M186,201 l3,3 13,2 7,0 2,2 1,13 -1,11 -2,11 -4,11 -4,10 -2,3 -2,4 7,-5 12,-10 12,-9 11,-10 13,-9 12,-7 14,-6 16,-3 8,0 8,-10 9,-3 12,3 11,6 13,8 13,8 13,6 6,2 7,0 -1,-3 -4,-8 -6,-8 -7,-8 -7,-7 -6,-8 -7,-11 -7,-12 -7,-12 -6,-12 -4,-12 -1,-12 2,-11 8,-11 -6,-7 -6,-8 -5,-10 -5,-10 -5,-9 -5,-10 -5,-8 -3,-4 -3,-3 -3,5 -6,12 -4,10 -4,11 -5,10 -5,11 -7,10 -8,12 -5,5 1,6 1,1 7,-8 3,-3 1,-1 0,2 -2,15 -3,11 -3,14 -11,7 -8,3 -6,6 -2,12 -10,2 -8,3 -7,4 -8,4 -7,6 -3,3" />
<path style="fill:none;stroke:#000;stroke-width:2" d="M186,350 l22,-24 16,-26 19,-21 30,-8 12,-22 2,-3 2,-3 4,0 22,4 14,22 24,18 26,15 22,16 17,35 -30,3 -29,-2 -13,-1 22,16 25,10 25,10 14,22 19,25 22,16 20,21 2,4 0,6 -5,0 -24,-9 -21,-22 -25,-7 -24,1 0,47 20,19 2,3 -25,6 -4,0 -3,0 -23,-7 -15,-24 -18,-28 -22,-24 -24,-14 -28,-3 -27,-3 14,-22 -28,2 -18,20 -48,2 4,-4 21,-15 15,-21 1,-10 -17,-11 12,-8 1,-1" />
<path style="fill:none;stroke:#000;stroke-width:2" d="M197,471 l-9,8 -10,4 -13,3 -12,2 -11,5 -4,2 20,12 4,3 2,10 -3,11 -7,12 -8,11 -10,10 -10,9 -10,8 -4,3 -3,2 4,0 10,-1 11,-1 10,-1 10,-2 10,-4 9,-4 8,-5 3,-3 10,1 11,2 10,2 2,1 0,11 7,-6 6,-6 13,-8 13,-7 13,-6 12,-5 14,-5 14,-5 7,-4 8,-3 -4,-1 -8,-2 -9,-4 -8,-5 -9,-5 -7,-5 -10,-5 -4,-1 -6,-8 -8,-4 -8,-4 -5,-9 -7,-8 -6,-4 -2,0 -3,0 -10,3 -8,4 -5,2" />
<path style="fill:none;stroke:#000;stroke-width:2" d="M190,607 l26,11 29,6 42,-48 30,0 31,-1 32,0 31,0 30,2 10,1 5,-25 -8,-32 -2,-9 2,2 18,22 17,20 3,29 8,26 12,23 15,22 17,19 22,23 3,4 -2,0 -28,-2 -4,0 2,28 17,22 2,3 -5,0 -31,-6 -24,-10 -25,-11 -24,-11 -26,-8 -26,-3 -17,20 -31,-9 -6,-6 -15,0 -19,-18 -27,-12 -26,11 -9,34 -1,0 -13,-23 -8,-12 -28,2 -26,-10 -1,-3 -33,6 -29,15 -29,15 -24,6 -8,0 7,-5 23,-24 18,-25 19,-25 18,-20 27,-8 26,-5 13,-1" />
<path style="fill:none;stroke:#000;stroke-width:2" d="M79,768 l-16,23 -23,13 -12,17 0,6 22,0 4,1 -4,28 33,-4 25,-7 25,-9 22,-14 3,-4 28,-3 31,-3 8,0 9,9 -2,30 -2,31 -3,29 0,15 -25,11 -16,19 20,3 -5,10 0,1 5,0 28,-6 29,-6 30,1 26,5 28,2 20,1 -21,-18 -16,-21 -8,-28 0,-32 3,-30 1,-19 25,6 23,12 22,12 26,5 0,-55 26,-9 16,0 2,-12 0,-2 0,-3 -26,-8 -26,-12 -29,5 -30,6 -30,1 -29,-13 -7,-7 -28,4 -34,5 -29,-7 -11,-19 -1,-10 -16,0 -20,17 -23,12 -31,2 -17,19" />
<path style="fill:none;stroke:#000;stroke-width:2" d="M539,795 l-15,1 -14,2 -13,3 -11,5 -7,7 -4,9 0,5 1,6 5,14 11,0 9,1 10,0 2,1 2,0 2,0 2,-7 69,5 -5,-4 -6,-7 -6,-7 -7,-8 -9,-9 -9,-10 -7,-7" />
<path style="fill:none;stroke:#000;stroke-width:2" d="M483,657 l-8,-7 -7,-9 -6,-7 -3,-8 -2,12 -2,10 -11,0 -8,-8 -6,-5 -7,-6 -8,-3 -5,-1 -3,-1 1,8 4,13 9,10 12,8 13,5 15,4 16,3 15,1 7,0 -3,-2 -8,-8 -5,-6 0,-3" />

</svg>
