 

<svg xmlns:agg="http://www.example.com" xmlns="http://www.w3.org/2000/svg" preserveAspectRatio="none" width="1.6083in" height="0.8887in" viewBox="0 0 999 552">

<path style="fill:#7f7f7f;stroke:#000;stroke-width:2" d="M789,473 l-51,3 -35,-13 86,0 0,10z" />
<path style="fill:#f00;stroke:#000;stroke-width:2" d="M923,486 l47,0 0,-19 -9,-4 5,-3 -5,-66 -83,-10 -13,-55 -66,0 -4,55 0,60 -232,0 0,19 360,0 0,23z" />
<path style="fill:#000;stroke:#000;stroke-width:2" d="M869,384 l-10,-45 -55,0 0,45 65,0z" />
<path style="fill:#000" d="M618,435 l0,9 66,0 0,-9 -66,0z" />
<path style="fill:#ccc;stroke:#000;stroke-width:2" d="M776,263 l0,181 9,0 0,-181 -9,-9 -6,6 6,3z" />
<path style="fill:#ccc;stroke:#000;stroke-width:2" d="M770,343 l0,88 19,0 0,-88 -19,0z" />
<path style="fill:#000;stroke:#000;stroke-width:2" d="M294,444 l-195,0 0,10 195,0 0,-10z" />
<path style="fill:#fff;stroke:#000;stroke-width:2" d="M294,444 l-195,0 0,-9 195,0 0,9z" />
<path style="fill:#7f0000" d="M961,486 l-10,-42 -45,0 -19,16 0,3 10,0 64,23z" />
<circle style="fill:#000" cx="924" cy="487" r="37" />
<circle style="fill:#000" cx="701" cy="487" r="36" />
<circle style="fill:#000" cx="609" cy="487" r="36" />
<circle style="fill:#000" cx="248" cy="487" r="37" />
<circle style="fill:#000" cx="146" cy="487" r="37" />
<circle style="fill:#ccc" cx="924" cy="487" r="18" />
<circle style="fill:#ccc" cx="701" cy="487" r="17" />
<circle style="fill:#ccc" cx="609" cy="487" r="18" />
<circle style="fill:#ccc" cx="248" cy="487" r="18" />
<circle style="fill:#ccc" cx="147" cy="487" r="19" />
<path style="fill:#fff;stroke:#000;stroke-width:2" d="M859,467 l28,0 0,-7 19,-16 51,0 0,-22 -60,0 -25,9 -13,23 0,13z" />
<path style="fill:#fff;stroke:#000;stroke-width:2" d="M789,450 l0,26 66,0 0,-26 -66,0z" />
<path style="fill:#e5e5e5;stroke:#000;stroke-width:2" d="M693,435 l-603,0 0,-17 603,0 0,17z" />
<path style="fill:#000;stroke:#000;stroke-width:2" d="M99,444 l-19,0 0,32 10,0 0,-32 9,0z" />
<path style="fill:#b2b2b2;stroke:#000;stroke-width:2" d="M405,505 l-13,0 0,-70 13,0 0,70z" />
<path style="fill:#000" d="M407,476 l0,-9 35,-32 10,0 -45,41z" />
<path style="fill:#b2b2b2;stroke:#000;stroke-width:2" d="M395,510 l-3,-5 3,-4 8,0 2,4 -2,5 -8,0z" />
<path style="fill:#fff;stroke:#000;stroke-width:2" d="M641,418 l0,-9 5,-6 7,0 6,6 0,9 -18,0z" />
<path style="fill:#e5e5e5;stroke:#000;stroke-width:2" d="M604,308 l37,101 10,-4 -35,-100 -12,3z" />
<path style="fill:#b2b2b2;stroke:#000;stroke-width:2" d="M578,233 l26,75 12,-3 -28,-75 -10,3z" />
<path style="fill:#fff;stroke:#000;stroke-width:2" d="M28,239 l64,175 582,-213 -64,-173 -582,211z" />

</svg>
