 

<svg xmlns:agg="http://www.example.com" xmlns="http://www.w3.org/2000/svg" preserveAspectRatio="none" width="1.0664in" height="1.0750in" viewBox="0 0 991 999">

<path style="fill:#ff0;stroke:#000;stroke-width:2" d="M433,236 l72,-208 47,204 67,-83 11,109 208,-157 -109,242 109,0 -76,79 201,68 -197,62 79,93 -105,-8 112,191 -197,-99 13,118 -97,-78 -61,201 -63,-199 -80,74 -4,-107 -190,83 103,-169 -110,-13 71,-79 -209,-59 209,-59 -71,-65 103,-18 -96,-195 175,112 2,-112 83,72z" />
<ellipse style="fill:#ff0;stroke:#000;stroke-width:2" cx="503" cy="495" rx="209" ry="211" />
<path style="fill:#000;stroke:#000;stroke-width:2" d="M700,440 l-10,-22 -375,0 -7,24 16,23 18,22 19,25 23,16 13,3 6,1 7,0 31,-7 25,-19 22,-25 13,-13 19,19 21,25 26,16 28,2 27,-5 28,-23 18,-24 18,-22 11,-14 3,-2z" />

</svg>
