 

<svg xmlns:agg="http://www.example.com" xmlns="http://www.w3.org/2000/svg" preserveAspectRatio="none" width="1.6083in" height="0.7293in" viewBox="0 0 999 453">

<path style="fill:#7f7f7f;stroke:#000;stroke-width:2" d="M254,268 l416,0 0,35 -416,0 0,-35z" />
<path style="fill:#666;stroke:#000;stroke-width:2" d="M138,95 l113,0 0,118 719,0 0,41 -832,0 0,-159z" />
<path style="fill:#000;stroke:#000;stroke-width:2" d="M58,236 l791,0 -19,86 -73,6 0,39 -699,0 0,-131z" />
<circle style="fill:#666;stroke:#000;stroke-width:2" cx="609" cy="367" r="59" />
<circle style="fill:#666;stroke:#000;stroke-width:2" cx="737" cy="367" r="59" />
<path style="fill:#699;stroke:#000;stroke-width:2" d="M86,296 l-15,80 -40,0 10,-84 0,-86 92,-13 0,-74 -25,0 0,-11 148,-13 0,251 -41,0 -22,-50 -107,0z" />
<path style="fill:#e5e5e5;stroke:#000;stroke-width:2" d="M28,328 l35,0 0,48 -35,0 0,-48z" />
<path style="fill:#b2b2b2;stroke:#000;stroke-width:2" d="M279,262 l584,0 0,24 -584,0 0,-24z" />
<path style="fill:#000;stroke:#000;stroke-width:2" d="M144,119 l0,75 49,-13 0,-62 -49,0z" />
<circle style="fill:#ccc;stroke:#000;stroke-width:2" cx="609" cy="367" r="29" />
<circle style="fill:#ccc;stroke:#000;stroke-width:2" cx="737" cy="367" r="29" />
<path style="fill:#999;stroke:#000;stroke-width:2" d="M282,307 l119,0 0,73 -119,0 0,-73z" />
<path style="fill:#7f7f7f;stroke:#000;stroke-width:2" d="M804,286 l13,0 30,124 -12,0 -31,-124z" />
<circle style="fill:#666;stroke:#000;stroke-width:2" cx="143" cy="367" r="59" />
<circle style="fill:#ccc;stroke:#000;stroke-width:2" cx="143" cy="367" r="29" />
<path style="fill:#999;stroke:#000;stroke-width:2" d="M206,356 l0,-13 73,0 0,13 -73,0z" />
<path style="fill:#999;stroke:#000;stroke-width:2" d="M168,307 l0,-13 71,0 0,13 -71,0z" />
<ellipse style="fill:#999;stroke:#000;stroke-width:2" cx="276" cy="149" rx="9" ry="121" />
<path style="fill:#e5e5e5" d="M273,258 l0,-172 2,-4 0,-54 4,0 0,54 2,4 0,172 -3,11 -1,1 -1,-1 -3,-11z" />
<path style="fill:none;stroke:#000;stroke-width:2" d="M267,86 l19,0" />

</svg>
