 

<svg xmlns:agg="http://www.example.com" xmlns="http://www.w3.org/2000/svg" preserveAspectRatio="none" width="1.3081in" height="1.0750in" viewBox="0 0 999 821">

<path style="fill:#fff" d="M456,116 l-22,-18 -17,-20 -25,-10 -30,8 -29,-1 -27,-5 -25,-7 -33,-3 -30,5 -20,17 -16,24 -17,21 -28,14 -11,33 6,25 19,22 9,24 -26,17 -24,18 -25,18 -6,3 -9,26 -11,27 -9,29 -8,28 -11,26 -2,12 -1,10 0,11 7,26 14,24 17,22 17,23 5,9 25,12 26,6 37,4 31,0 24,4 2,3 0,4 10,24 13,26 26,25 21,15 25,24 23,26 25,17 30,2 35,2 31,6 32,7 31,6 15,2 6,0 7,0 25,-5 12,-18 15,-28 15,-27 16,-25 23,-18 6,0 26,6 30,12 27,16 25,11 28,-4 30,-17 27,-7 28,-7 24,-14 15,-23 5,-30 8,-27 10,-27 8,-27 4,-18 0,-9 0,-9 -3,-30 0,-36 -4,-35 -13,-25 -6,-4 -30,-3 -27,-4 -31,-8 -25,-15 2,-26 1,-32 3,-29 3,-32 1,-18 7,-29 -7,-33 -17,-26 -20,-20 -24,-18 -30,-18 -28,-14 -26,-9 -8,-1 -9,-1 -7,0 -16,2 -23,19 -30,14 -33,1 -29,-5 -20,1 -18,24 -16,24 -17,13 -14,-5z" />
<path style="fill:#e5e5e5" d="M560,333 l-2,0 -15,-26 -13,-31 -11,-26 -12,-28 -12,-27 -12,-24 -14,-25 -11,-12 -2,-1 -26,-7 -12,-22 -16,-24 -28,-2 -26,8 -30,7 -30,-1 -34,-7 -20,-6 -11,-3 11,23 15,45 6,40 -1,36 -7,33 -13,29 -16,26 -20,24 -22,20 -23,18 -22,16 -22,13 -28,16 -22,16 -3,3 -5,20 -1,14 0,11 13,23 27,18 13,25 -7,28 2,5 31,6 36,-3 37,-2 26,5 25,19 21,19 7,23 15,24 15,23 23,27 26,22 24,12 33,4 30,-7 24,-13 26,-21 15,-13 20,19 8,30 9,28 10,12 3,0 4,0 23,-23 20,-34 8,-15 19,-19 12,-24 14,-22 7,-2 29,8 29,13 30,16 27,9 21,-2 22,-13 24,-11 25,-13 22,-17 16,-29 -1,-3 -29,-14 -31,-8 -34,-11 -31,-12 -22,-17 -8,-29 19,-30 27,-24 19,-13 23,-15 26,-15 30,-16 35,-18 -2,-3 -23,-11 -27,-3 -27,-4 -33,-5 -35,-1 -31,-1 -29,-5 -3,-2 -2,-2 0,-3 2,-4 11,-26 15,-23 20,-24 21,-25 20,-25 16,-22 11,-26 -4,-31 -22,-18 -25,-15 -25,-14 -33,2 -25,8 -26,11 -25,13 -23,11 -24,11 -3,1 -10,29 13,35 15,23 15,22 18,26 2,10 -26,18 -30,14 -29,7 -14,-4z" />
<path style="fill:#ccc" d="M533,399 l-3,0 -21,22 -22,27 -22,28 -17,20 -10,5 -1,-1 -4,-26 1,-32 3,-28 3,-29 3,-28 2,-31 -3,-25 -2,0 -3,9 -13,26 -17,25 -21,22 -22,20 -22,15 -30,13 -31,0 -21,-19 -4,-15 -14,22 -21,22 -17,22 -3,14 0,9 0,8 18,21 15,11 -4,28 2,3 3,2 33,1 32,-1 16,4 27,14 27,8 17,10 0,2 -1,28 6,29 10,10 3,1 2,-1 1,-34 4,-29 13,-32 15,-20 12,27 28,12 26,-8 27,-15 23,-9 23,15 3,31 -3,31 -2,20 15,-25 7,-20 4,-2 25,9 23,12 6,0 23,-11 30,-6 31,-9 21,-19 -1,-3 -25,-11 -29,-8 -27,-10 -20,-19 13,-30 30,-24 32,-20 19,-10 23,-12 -1,-2 -2,-2 -26,-6 -29,-5 -28,0 -26,12 -3,6 1,1 1,1 2,0 7,-35 13,-31 10,-31 1,-15 -1,-1 -3,-1 -24,19 -23,25 -18,21 -20,24 -18,15 -27,-9 -22,-14 -8,-8z" />

</svg>
