 

<svg xmlns:agg="http://www.example.com" xmlns="http://www.w3.org/2000/svg" preserveAspectRatio="none" width="0.9813in" height="1.0750in" viewBox="0 0 911 998">

<path style="fill:#fff;stroke:#000;stroke-width:2" d="M249,347 l0,-208 178,104 -13,-209 1,-4 2,-2 3,-1 59,0 3,1 2,2 2,4 -5,206 184,-101 0,208 153,-104 22,-14 6,3 11,25 0,4 19,19 0,1 0,0 0,2 2,2 0,0 0,2 -1,7 -25,15 -5,3 -1,1 -150,82 182,103 -185,104 174,89 15,12 1,4 -1,4 -17,23 -8,18 -11,11 -22,-14 -3,-2 -156,-93 0,210 -184,-104 11,186 -1,18 -2,4 -4,2 -4,1 -2,-1 -28,-4 -26,5 -6,-2 -2,-20 10,-189 -178,104 0,-210 -159,95 -24,14 -2,-2 -2,-3 -9,-24 -19,-23 -4,-3 -3,-1 1,-3 13,-11 180,-91 -180,-104 180,-103 -183,-90 -11,-9 5,-11 1,0 14,-16 3,-3 5,-20 6,-5 17,5 1,0 170,101z" />
<path style="fill:#fff;stroke:#000;stroke-width:2" d="M249,414 l-155,84 155,89 152,-89 -152,-84z" />
<path style="fill:#fff;stroke:#000;stroke-width:2" d="M430,728 l-3,-185 -151,92 0,181 154,-88z" />
<path style="fill:#fff;stroke:#000;stroke-width:2" d="M638,635 l-155,-92 0,185 155,88 0,-181z" />
<path style="fill:#fff;stroke:#000;stroke-width:2" d="M665,414 l-157,84 157,89 155,-89 -155,-84z" />
<path style="fill:#fff;stroke:#000;stroke-width:2" d="M638,184 l-155,90 0,179 155,-95 0,-174z" />
<path style="fill:#fff;stroke:#000;stroke-width:2" d="M430,274 l-154,-90 0,182 151,87 3,-179z" />

</svg>
