 

<svg xmlns:agg="http://www.example.com" xmlns="http://www.w3.org/2000/svg" preserveAspectRatio="none" width="1.0750in" height="1.0750in" viewBox="0 0 999 999">

<path style="fill:#fff;stroke:#000;stroke-width:2" d="M970,891 l0,-784 -6,-31 -17,-25 -25,-17 -23,-6 -8,0 -784,0 -31,6 -25,17 -17,25 -6,23 0,8 0,784 6,31 17,25 25,17 23,6 8,0 784,0 31,-6 25,-17 17,-25 6,-23 0,-8z" />
<path style="fill:#f00" d="M931,851 l0,-706 -6,-31 -17,-24 -24,-17 -22,-5 -9,-1 -706,0 -31,6 -25,17 -17,24 -6,22 -1,9 0,706 7,31 17,25 25,17 22,6 9,1 706,0 31,-7 24,-17 17,-25 5,-22 1,-9z" />
<path style="fill:#fff" d="M840,352 l0,-68 49,0 0,11 -36,0 0,16 34,0 0,11 -34,0 0,19 38,0 0,11 -51,0z" />
<path style="fill:#fff" d="M782,352 l0,-68 13,0 0,57 36,0 0,11 -49,0z" />
<path style="fill:#fff" d="M720,352 l0,-68 21,0 3,0 9,1 9,4 7,7 2,6 0,2 0,1 -1,9 -6,8 -7,4 -10,1 -15,0 0,25 -12,0z" />
<ellipse style="fill:#fff" cx="676" cy="318" rx="32" ry="35" />
<path style="fill:#fff" d="M584,352 l0,-68 49,0 0,11 -37,0 0,16 34,0 0,11 -34,0 0,19 39,0 0,11 -51,0z" />
<path style="fill:#fff" d="M521,352 l0,-68 21,0 3,0 10,1 9,4 6,7 3,6 0,2 0,1 -2,9 -5,8 -8,4 -10,1 -14,0 0,25 -13,0z" />
<path style="fill:#fff" d="M451,352 l0,-28 -25,-40 15,0 16,29 17,-29 15,0 -25,40 0,28 -13,0z" />
<path style="fill:#fff" d="M366,352 l0,-68 12,0 0,32 28,-32 18,0 -25,27 27,41 -18,0 -19,-31 -11,11 0,20 -12,0z" />
<path style="fill:#fff" d="M359,352 l-14,0 -6,-15 -27,0 -5,15 -13,0 25,-68 14,0 26,68z" />
<path style="fill:#fff" d="M238,352 l0,-68 49,0 0,11 -37,0 0,16 34,0 0,11 -34,0 0,19 39,0 0,11 -51,0z" />
<path style="fill:#fff" d="M170,352 l0,-68 28,0 2,0 9,1 9,4 5,8 2,9 -3,8 -8,7 -7,2 7,6 6,9 2,1 8,13 -15,0 -10,-15 -6,-7 -5,-5 -9,-1 -3,0 0,28 -12,0z" />
<path style="fill:#fff" d="M112,352 l0,-68 46,0 0,11 -33,0 0,17 29,0 0,11 -29,0 0,29 -13,0z" />
<path style="fill:#fff" d="M769,176 l25,0 2,0 2,0 9,2 4,1 7,6 5,7 2,8 1,6 0,2 0,3 -1,9 -2,9 -5,7 -7,5 -9,2 -2,0 -1,1 -2,0 -2,0 -26,0 0,-68z" />
<path style="fill:#fff" d="M707,244 l0,-68 49,0 0,11 -36,0 0,15 33,0 0,11 -33,0 0,20 38,0 0,11 -51,0z" />
<path style="fill:#fff" d="M639,244 l0,-68 28,0 2,0 9,1 9,3 6,8 1,9 -2,8 -7,7 -9,3 7,5 5,7 3,4 8,13 -15,0 -10,-15 -6,-8 -8,-4 -8,-1 0,28 -13,0z" />
<path style="fill:#fff" d="M613,244 l0,-68 12,0 0,68 -12,0z" />
<path style="fill:#fff" d="M606,244 l-14,0 -6,-15 -27,0 -5,15 -14,0 26,-68 13,0 27,68z" />
<path style="fill:#fff" d="M480,244 l0,-68 12,0 0,26 29,0 0,-26 13,0 0,68 -13,0 0,-31 -29,0 0,31 -12,0z" />
<path style="fill:#fff" d="M446,226 l0,-12 26,0 0,12 -26,0z" />
<path style="fill:#fff" d="M406,218 l0,-11 29,0 0,27 -7,5 -9,3 -9,2 -2,1 -2,0 -9,-2 -9,-3 -7,-5 -5,-9 -3,-9 0,-2 -1,-3 0,-2 2,-10 3,-8 5,-7 7,-7 9,-3 3,0 2,0 3,0 11,1 8,4 6,7 3,8 -12,3 -6,-8 -9,-3 -9,1 -8,6 -4,8 -1,10 2,10 6,7 8,3 11,0 9,-3 2,-1 0,-10 -17,0z" />
<path style="fill:#fff" d="M307,244 l0,-68 13,0 29,47 0,-47 12,0 0,68 -14,0 -27,-45 0,45 -13,0z" />
<ellipse style="fill:#fff" cx="264" cy="210" rx="32" ry="35" />
<path style="fill:#fff" d="M177,244 l0,-68 12,0 0,57 36,0 0,11 -48,0z" />
<path style="fill:#fff" d="M840,608 l0,-155 -32,0 0,-30 84,0 0,30 -32,0 0,155 -20,0z" />
<ellipse style="fill:#fff" cx="744" cy="515" rx="52" ry="95" />
<path style="fill:#fff" d="M586,608 l0,-185 20,0 47,127 0,-127 21,0 0,185 -24,0 -44,-123 0,123 -20,0z" />
<path style="fill:#fff" d="M432,423 l40,0 3,0 4,0 8,2 8,3 7,6 6,7 5,10 3,8 3,11 3,8 1,10 1,12 0,6 1,6 0,6 -1,11 0,10 -1,10 -4,13 -2,10 -3,8 -6,10 -4,7 -7,6 -4,3 -11,1 -2,1 -3,0 -3,0 -42,0 0,-185z" />
<path style="fill:#fff" d="M330,608 l0,-185 80,0 0,30 -59,0 0,42 55,0 0,30 -55,0 0,53 62,0 0,30 -83,0z" />
<path style="fill:#fff" d="M228,608 l0,-185 80,0 0,30 -59,0 0,42 55,0 0,30 -55,0 0,53 62,0 0,30 -83,0z" />
<path style="fill:#fff" d="M118,608 l0,-185 21,0 46,127 0,-127 21,0 0,185 -23,0 -44,-123 0,123 -21,0z" />
<path style="fill:#fff" d="M685,833 l0,-77 -41,-109 24,0 27,79 26,-79 25,0 -40,109 0,77 -21,0z" />
<path style="fill:#fff" d="M576,833 l0,-186 21,0 0,155 58,0 0,31 -79,0z" />
<path style="fill:#fff" d="M361,833 l-23,0 -9,-42 -44,0 -8,42 -22,0 41,-186 22,0 43,186z" />
<path style="fill:#f00" d="M323,761 l-16,-70 -15,70 31,0z" />
<path style="fill:#fff" d="M372,833 l0,-186 34,0 5,0 13,2 7,2 8,5 7,8 5,10 3,12 1,9 1,5 0,5 -1,13 -2,11 -2,9 -5,9 -3,3 -7,8 -9,3 -11,1 -10,1 -13,0 0,70 -21,0z" />
<path style="fill:#f00" d="M393,677 l0,56 15,0 9,-2 9,-1 3,-2 4,-9 2,-10 0,-2 -1,-10 -3,-8 -6,-8 -8,-2 -10,-2 -14,0z" />
<path style="fill:#fff" d="M474,833 l0,-186 34,0 5,0 13,2 7,2 8,5 7,8 5,10 3,12 1,9 1,5 0,5 -1,13 -1,11 -3,9 -5,9 -3,3 -6,8 -10,3 -11,1 -10,1 -13,0 0,70 -21,0z" />
<path style="fill:#f00" d="M495,677 l0,56 15,0 9,-2 10,-1 2,-2 4,-9 2,-10 0,-2 -1,-10 -3,-8 -6,-8 -8,-2 -10,-2 -14,0z" />
<ellipse style="fill:#f00" cx="744" cy="515" rx="31" ry="62" />
<path style="fill:#f00" d="M453,453 l0,125 18,0 2,0 12,0 7,-5 3,-2 3,-8 4,-11 1,-11 1,-9 0,-4 0,-5 0,-5 0,-11 -1,-9 -1,-12 -3,-11 -3,-9 -5,-7 -4,-3 -9,-2 -8,-1 -4,0 -3,0 -10,0z" />
<ellipse style="fill:#f00" cx="264" cy="210" rx="19" ry="23" />
<path style="fill:#f00" d="M782,187 l0,46 20,0 8,-6 3,-8 1,-7 -1,-9 -3,-9 -5,-5 -9,-2 -4,0 -10,0z" />
<path style="fill:#f00" d="M652,205 l10,0 10,-1 8,-4 1,-3 -1,-7 -9,-3 -4,0 -15,0 0,18z" />
<path style="fill:#f00" d="M583,217 l-10,-25 -10,25 20,0z" />
<path style="fill:#f00" d="M732,295 l0,21 12,0 9,-1 2,-1 3,-7 -3,-9 -9,-2 -3,-1 -11,0z" />
<ellipse style="fill:#f00" cx="676" cy="318" rx="19" ry="23" />
<path style="fill:#f00" d="M534,295 l0,21 11,0 10,-1 1,-1 4,-7 -4,-9 -9,-2 -3,-1 -10,0z" />
<path style="fill:#f00" d="M336,326 l-10,-26 -10,26 20,0z" />
<path style="fill:#f00" d="M182,313 l11,0 10,0 8,-4 1,-3 0,-3 -1,-4 -5,-3 -8,-1 -16,0 0,18z" />

</svg>
