 

<svg xmlns:agg="http://www.example.com" xmlns="http://www.w3.org/2000/svg" preserveAspectRatio="none" width="1.4168in" height="1.0750in" viewBox="0 0 999 758">

<path style="fill:#008040;stroke:#000;stroke-width:2" d="M880,633 l-2,-31 -9,-28 -5,-5 -8,-2 -3,-32 -8,-25 -22,-26 -29,-17 -35,-11 -26,-7 -13,-3 -7,27 -7,31 -7,34 -7,35 -8,37 -8,36 -9,36 -10,34 -35,7 -33,4 -30,2 -15,0 -14,0 -29,-1 -28,-2 -30,-4 -32,-4 -6,-33 -6,-35 -8,-35 -8,-36 -8,-36 -8,-36 -7,-35 -7,-34 -17,25 -14,21 -20,35 -14,27 -22,27 -35,19 -40,10 -27,5 -31,6 3,-31 6,-33 6,-32 3,-31 -6,-1 -20,9 -2,-1 10,-25 8,-28 6,-29 8,-29 9,-28 15,-25 19,-21 27,-17 24,-12 26,-13 24,-8 5,0 -36,1 -33,-4 -30,-5 -32,-4 -18,5 14,-22 1,-2 -33,-9 -26,-4 -28,-1 -28,1 -18,2 -9,1 5,-5 18,-25 17,-28 19,-26 18,-17 34,-7 34,1 37,6 35,9 35,8 31,3 28,-4 22,-16 -7,-24 -22,-19 -30,-12 -27,-14 -6,-5 38,4 36,3 33,3 29,6 24,10 24,29 8,31 1,19 21,20 16,8 12,-24 17,-24 31,-20 25,-10 25,-13 16,-21 25,-22 28,-10 12,-3 -10,12 -17,22 -5,10 13,26 1,9 -27,21 -19,19 -5,6 35,-6 42,-14 46,-16 45,-14 41,-6 34,6 22,25 6,21 3,28 2,5 3,3 4,1 18,-20 2,-9 5,1 18,27 11,35 7,36 4,31 1,7 0,6 -24,-18 -27,-15 -37,-14 -31,-11 -32,-9 -33,-7 -33,-2 -29,3 -25,10 -11,8 27,20 30,10 31,3 32,2 31,5 29,12 26,24 23,40 8,27 7,15 -25,-7 -25,-9 -22,3 -9,17 17,22 15,27 10,30 7,32 3,32 -3,31 -7,29 -13,23z" />
<path style="fill:#008040;stroke:#000;stroke-width:2" d="M361,434 l7,34 8,42 5,24 5,25 6,26 5,26 10,46 7,36 3,19 -1,0 31,4 29,4 29,2 14,0 14,1 15,0 28,-2 29,-2 31,-5 16,-3 8,-33 8,-35 8,-36 9,-36 7,-35 7,-34 5,-30 3,-14 2,-12 -17,0 -27,-2 -26,-33 -25,-9 -6,-1 -5,0 -5,0 21,29 7,30 -1,31 -4,33 -4,35 0,12 -19,-56 -29,7 -4,3 -7,-26 -18,-23 -28,-19 -33,-15 -35,-9 -33,-6 -29,1 -12,3 -9,3z" />

</svg>
