<?xml version="1.0" encoding="utf-8"?>
<!-- Generator: Adobe Illustrator 16.0.0, SVG Export Plug-In . SVG Version: 6.00 Build 0)  -->
<!DOCTYPE svg PUBLIC "-//W3C//DTD SVG 1.1//EN" "http://www.w3.org/Graphics/SVG/1.1/DTD/svg11.dtd">
<svg version="1.1" id="图层_1" xmlns="http://www.w3.org/2000/svg" preserveAspectRatio="none" xmlns:xlink="http://www.w3.org/1999/xlink" x="0px" y="0px"
	 width="283.46px" height="283.46px" viewBox="0 0 283.46 283.46" enable-background="new 0 0 283.46 283.46" xml:space="preserve">
<g>
	<path fill="#FFFFFF" d="M252.767,209.491c14.41-6.226,24.497-20.562,24.497-37.258c0-12.122-5.322-22.994-13.753-30.43
		c11.94-7.063,19.954-20.063,19.954-34.94c0-18.601-12.521-34.266-29.589-39.058c0.555-2.673,0.849-5.442,0.849-8.28
		c0-22.409-18.168-40.575-40.575-40.575c-20.661,0-37.703,15.446-40.239,35.418c-2.324-0.304-4.692-0.479-7.103-0.479
		c-29.877,0-54.099,24.221-54.099,54.101c0,3.344,0.318,6.611,0.9,9.788c-5.088-2.298-10.732-3.589-16.679-3.589
		c-22.409,0-40.575,18.167-40.575,40.577c0,5.333,1.038,10.419,2.909,15.083c-18.113,4.068-31.651,20.238-31.651,39.578h-0.813
		c-14.801,0-26.799,12-26.799,26.802v1.487c0,14.801,11.998,26.799,26.799,26.799h224.706c14.8,0,26.799-11.998,26.799-26.799
		v-1.487C278.304,221.853,266.979,210.155,252.767,209.491z"/>
	<linearGradient id="SVGID_1_" gradientUnits="userSpaceOnUse" x1="187.4014" y1="235.0205" x2="105.4053" y2="114.1398">
		<stop  offset="0" style="stop-color:#FFFFFF;stop-opacity:0"/>
		<stop  offset="1" style="stop-color:#EDEDED"/>
	</linearGradient>
	<path fill="url(#SVGID_1_)" d="M26.799,254.931c-9.492,0-17.215-7.722-17.215-17.215v-1.487c0-9.492,7.723-17.216,17.215-17.216
		h10.396v-9.586c0-14.368,10.164-27.081,24.167-30.227l10.988-2.467l-4.192-10.452c-1.473-3.674-2.221-7.549-2.221-11.516
		c0-17.089,13.903-30.992,30.991-30.992c4.425,0,8.709,0.921,12.732,2.738l16.666,7.527l-3.291-17.987
		c-0.494-2.695-0.745-5.408-0.745-8.063c0-24.546,19.971-44.516,44.515-44.516c1.872,0,3.844,0.134,5.858,0.397l9.542,1.25
		l1.212-9.546c1.955-15.416,15.167-27.04,30.729-27.04c17.088,0,30.989,13.902,30.989,30.99c0,2.128-0.218,4.258-0.647,6.333
		l-1.819,8.758l8.611,2.418c13.305,3.734,22.597,16,22.597,29.83c0,10.9-5.842,21.127-15.249,26.691l-11.35,6.714l9.89,8.724
		c6.677,5.89,10.508,14.362,10.508,23.242c0,12.376-7.344,23.547-18.713,28.46l3.354,18.372c9.196,0.43,16.401,7.968,16.401,17.163
		v1.487c0,9.493-7.724,17.215-17.217,17.215H26.799z"/>
</g>
</svg>
