 

<svg xmlns:agg="http://www.example.com" xmlns="http://www.w3.org/2000/svg" preserveAspectRatio="none" width="1.1853in" height="1.0750in" viewBox="0 0 999 906">

<path style="fill:#fff;stroke:#000;stroke-width:2" d="M118,878 l749,0 9,0 9,-1 30,-4 23,-9 21,-18 10,-24 1,-6 0,-6 -5,-33 -12,-30 -5,-8 -375,-656 -18,-25 -19,-17 -25,-11 -5,-2 -5,0 -5,0 -25,5 -25,17 -19,20 -9,13 -376,657 -12,28 -1,5 -1,6 0,6 4,28 13,26 20,20 27,15 26,4z" />
<path style="fill:#ff0" d="M128,800 l744,0 9,-3 3,-4 2,-7 -2,-10 -368,-650 -1,-3 -15,-9 -26,12 -359,650 -1,4 0,8 4,7 10,5z" />
<path style="fill:#000" d="M435,280 l-125,225 206,0 -69,259 198,-345 -166,-1 78,-138 -122,0z" />

</svg>
