 

<svg xmlns:agg="http://www.example.com" xmlns="http://www.w3.org/2000/svg" preserveAspectRatio="none" width="1.4731in" height="1.0750in" viewBox="0 0 999 729">

<path style="fill:#4c1900" d="M301,352 l-234,-183 310,-23 559,119 -256,306 -639,0 62,-200 198,-19z" />
<path style="fill:#d9a600;stroke:#000;stroke-width:2" d="M426,399 l101,0 0,136 -101,0 0,-136z" />
<path style="fill:#d9a600;stroke:#000;stroke-width:2" d="M50,358 l81,0 -58,209 -23,0 0,-209z" />
<path style="fill:#000;fill-rule:evenodd" d="M674,395 l27,0 0,306 -27,0 0,-306z M635,405 l26,-8 79,294 -26,8 -79,-294z M599,424 l25,-14 152,263 -24,15 -153,-264z M571,450 l18,-19 215,215 -18,19 -215,-215z M548,484 l15,-25 262,153 -13,25 -264,-153z M537,522 l7,-27 294,80 -7,26 -294,-79z M535,561 l0,-26 305,0 0,26 -305,0z M544,601 l-7,-26 294,-80 7,27 -294,79z M563,637 l-15,-25 264,-153 13,25 -262,153z M589,665 l-18,-19 215,-215 18,19 -215,215z M624,688 l-25,-15 153,-263 24,14 -152,264z M661,699 l-26,-8 79,-294 26,8 -79,294z M239,395 l28,0 0,306 -28,0 0,-306z M199,405 l29,-8 77,294 -27,8 -79,-294z M165,424 l23,-14 153,263 -25,15 -151,-264z M135,450 l19,-19 217,215 -21,19 -215,-215z M114,484 l13,-25 265,153 -15,25 -263,-153z M101,522 l8,-27 294,80 -8,26 -294,-79z M101,561 l0,-26 304,0 0,26 -304,0z M109,601 l-8,-26 294,-80 8,27 -294,79z M127,637 l-13,-25 263,-153 15,25 -265,153z M154,665 l-19,-19 215,-215 21,19 -217,215z M188,688 l-23,-15 151,-263 25,14 -153,264z M228,699 l-29,-8 79,-294 27,8 -77,294z " />
<circle style="fill:#333;stroke:#000;stroke-width:2" cx="687" cy="548" r="145" />
<circle style="fill:#333;stroke:#000;stroke-width:2" cx="252" cy="548" r="145" />
<circle style="fill:#4c4c4c" cx="687" cy="548" r="62" />
<circle style="fill:#4c4c4c" cx="252" cy="548" r="62" />
<path style="fill:#c90;stroke:#000;stroke-width:2" d="M706,593 l-13,4 -13,0 -11,-4 -12,-5 -9,-10 -6,-11 -4,-11 0,-14 4,-13 6,-11 9,-8 12,-7 11,-2 13,0 13,2 12,7 7,8 8,11 2,13 0,14 -2,11 -8,11 -7,10 -12,5z" />
<circle style="fill:#c90;stroke:#000;stroke-width:2" cx="253" cy="548" r="48" />
<path style="fill:#000" d="M695,556 l24,5 -3,8 -8,7 -7,4 -6,-24z" />
<path style="fill:#000" d="M680,556 l-6,24 -7,-4 -8,-7 -3,-8 24,-5z" />
<path style="fill:#000" d="M680,540 l-24,-5 3,-8 8,-7 7,-4 6,24z" />
<path style="fill:#000" d="M695,540 l6,-24 7,4 8,7 3,8 -24,5z" />
<path style="fill:#000" d="M260,556 l24,5 -4,8 -7,7 -8,4 -5,-24z" />
<path style="fill:#000" d="M246,556 l-7,24 -8,-4 -5,-7 -6,-8 26,-5z" />
<path style="fill:#000" d="M246,540 l-26,-5 6,-8 5,-7 8,-4 7,24z" />
<path style="fill:#000" d="M260,540 l5,-24 10,4 5,7 4,8 -24,5z" />
<path style="fill:#d9a600;stroke:#000;stroke-width:2" d="M126,216 l175,0 28,136 -203,0 0,-136z" />
<path style="fill:#300" d="M141,246 l38,0 -12,66 -26,0 0,-66z" />
<path style="fill:#300" d="M190,246 l26,0 0,66 -37,0 11,-66z" />
<path style="fill:#f2bf00;stroke:#000;stroke-width:2" d="M99,216 l202,0 0,-15 -202,0 0,15z" />
<path style="fill:#f2bf00;stroke:#000;stroke-width:2" d="M126,352 l207,0 0,22 -188,0 -46,102 -22,0 49,-124z" />
<path style="fill:#fc0;stroke:#000;stroke-width:2" d="M377,429 l-65,-247 -73,-2 -17,-15 -160,2 0,-37 166,-38 635,26 107,219 -593,92z" />
<path style="fill:#fc0;stroke:#000;stroke-width:2" d="M804,222 l-13,30 -139,-15 -247,-77 -19,-21 66,-111 169,135 151,42 32,17z" />
<path style="fill:#fc0;stroke:#000;stroke-width:2" d="M746,194 l41,-38 66,21 21,60 -128,-43z" />
<path style="fill:none;stroke:#c90;stroke-width:2" d="M906,273 l-477,32 -58,-202" />
<path style="fill:#fc0" d="M28,303 l5,0 0,264 -5,0 0,-264z" />
<path style="fill:#fc0" d="M56,303 l6,0 0,264 -6,0 0,-264z" />
<path style="fill:#fc0" d="M33,342 l23,0 0,6 -23,0 0,-6z" />
<path style="fill:#fc0" d="M33,388 l23,0 0,5 -23,0 0,-5z" />
<path style="fill:#fc0" d="M33,433 l23,0 0,6 -23,0 0,-6z" />
<path style="fill:#fc0" d="M33,478 l23,0 0,6 -23,0 0,-6z" />
<path style="fill:#fc0" d="M33,522 l23,0 0,5 -23,0 0,-5z" />
<path style="fill:#fc0" d="M33,320 l23,0 0,5 -23,0 0,-5z" />
<path style="fill:#fc0" d="M33,365 l23,0 0,6 -23,0 0,-6z" />
<path style="fill:#fc0" d="M33,410 l23,0 0,6 -23,0 0,-6z" />
<path style="fill:#fc0" d="M33,456 l23,0 0,5 -23,0 0,-5z" />
<path style="fill:#fc0" d="M33,499 l23,0 0,8 -23,0 0,-8z" />
<path style="fill:#fc0" d="M33,544 l23,0 0,6 -23,0 0,-6z" />

</svg>
