 

<svg xmlns:agg="http://www.example.com" xmlns="http://www.w3.org/2000/svg" preserveAspectRatio="none" width="1.0750in" height="1.0750in" viewBox="0 0 999 999">

<circle style="fill:#fff;stroke:#000;stroke-width:2" cx="499" cy="499" r="471" />
<circle style="fill:#00f;stroke:#000;stroke-width:2" cx="499" cy="498" r="439" />
<ellipse style="fill:#fff;stroke:#000;stroke-width:2" cx="502" cy="367" rx="65" ry="109" />
<path style="fill:#fff;stroke:#000;stroke-width:2" d="M704,220 l0,544 -1,10 -19,12 -29,-5 -8,-17 0,-262 -13,-22 -7,-29 -3,-29 -1,-23 1,-38 5,-36 10,-32 17,-28 22,-24 26,-21z" />
<path style="fill:#fff;stroke:#000;stroke-width:2" d="M532,483 l0,278 -2,11 -22,13 -7,1 -21,-6 -5,-8 -2,-11 0,-278 28,9 31,-9z" />
<path style="fill:#fff;stroke:#000;stroke-width:2" d="M375,473 l-16,24 -8,4 0,262 -17,22 -7,1 -30,-6 -8,-17 0,-262 -20,-15 -6,-13 0,-190 11,-26 11,25 0,116 24,2 0,-117 11,-27 10,27 0,117 26,0 0,-117 10,-27 9,27 0,190z" />

</svg>
