 

<svg xmlns:agg="http://www.example.com" xmlns="http://www.w3.org/2000/svg" preserveAspectRatio="none" width="1.5840in" height="1.0750in" viewBox="0 0 999 678">

<path style="fill:#999;stroke:#000;stroke-width:2" d="M970,631 l-126,-603 -9,0 0,49 116,554 19,0z" />
<path style="fill:#999;stroke:#000;stroke-width:2" d="M348,631 l-126,-603 -10,0 0,49 117,554 19,0z" />
<path style="fill:#b2b2b2;stroke:#000;stroke-width:2" d="M893,631 l-126,-603 58,0 126,603 -58,0z" />
<path style="fill:#b2b2b2;stroke:#000;stroke-width:2" d="M271,631 l-126,-603 58,0 126,603 -58,0z" />
<path style="fill:#fff;stroke:#000;stroke-width:2" d="M942,77 l-914,0 0,145 914,0 0,-145z" />
<path style="fill:#f60;stroke:#000;stroke-width:2" d="M28,222 l56,-145 59,0 -59,145 -56,0z" />
<path style="fill:#f60;stroke:#000;stroke-width:2" d="M143,222 l56,-145 57,0 -57,145 -56,0z" />
<path style="fill:#f60;stroke:#000;stroke-width:2" d="M256,222 l58,-145 57,0 -57,145 -58,0z" />
<path style="fill:#f60;stroke:#000;stroke-width:2" d="M371,222 l57,-145 56,0 -56,145 -57,0z" />
<path style="fill:#f60;stroke:#000;stroke-width:2" d="M484,222 l58,-145 57,0 -57,145 -58,0z" />
<path style="fill:#f60;stroke:#000;stroke-width:2" d="M599,222 l56,-145 57,0 -57,145 -56,0z" />
<path style="fill:#f60;stroke:#000;stroke-width:2" d="M712,222 l59,-145 56,0 -56,145 -59,0z" />
<path style="fill:#f60;stroke:#000;stroke-width:2" d="M827,222 l56,-145 59,0 -59,145 -56,0z" />
<path style="fill:#b2b2b2;stroke:#000;stroke-width:2" d="M942,67 l19,0 0,164 -19,0 0,-164z" />
<path style="fill:#fff;stroke:#000;stroke-width:2" d="M28,67 l914,0 0,10 -914,0 0,-10z" />
<path style="fill:#fff;stroke:#000;stroke-width:2" d="M28,222 l914,0 0,9 -914,0 0,-9z" />
<path style="fill:#e5e5e5;stroke:#000;stroke-width:2" d="M28,650 l117,-622 58,0 -117,622 -58,0z" />
<path style="fill:#b2b2b2;stroke:#000;stroke-width:2" d="M86,650 l117,-622 9,0 0,49 -107,573 -19,0z" />
<path style="fill:#e5e5e5;stroke:#000;stroke-width:2" d="M650,650 l117,-622 58,0 -117,622 -58,0z" />
<path style="fill:#b2b2b2;stroke:#000;stroke-width:2" d="M708,650 l117,-622 10,0 0,49 -108,573 -19,0z" />

</svg>
