 

<svg xmlns:agg="http://www.example.com" xmlns="http://www.w3.org/2000/svg" preserveAspectRatio="none" width="1.0750in" height="1.0750in" viewBox="0 0 999 999">

<path style="fill:#333" d="M813,774 l-11,-25 -4,-30 2,-34 5,-36 8,-38 10,-36 10,-34 9,-30 7,-26 3,-25 15,-30 14,-30 12,-29 9,-24 5,-19 1,-7 0,-5 -2,-2 -3,0 -11,8 -7,-32 -8,-31 -9,-29 -11,-25 -14,-28 -18,-22 -29,5 -17,20 -29,8 -14,26 -2,14 -24,11 -6,-1 -2,-1 0,-2 0,-2 13,-9 7,-25 8,-44 1,-37 -3,-31 -12,-33 -18,-20 -15,-6 -7,0 -15,0 -28,4 -28,6 -26,9 -31,17 -21,21 -9,26 -10,24 -9,27 0,3 -19,-26 -15,-22 -16,-24 -16,-22 -27,-4 -38,-5 -33,-4 -30,2 -30,14 -20,19 -11,13 -24,-12 -36,-13 -33,4 -13,23 -4,29 -8,28 -8,2 -5,3 0,5 2,7 19,28 14,24 10,26 -6,39 -26,23 -10,26 1,30 8,33 9,27 10,26 11,23 14,27 14,22 2,2 -7,30 -8,30 -8,33 -6,25 -6,26 -9,33 -7,29 -6,25 -2,5 687,0z" />
<path style="fill:#6e5c4d" d="M126,774 l12,-23 13,-27 12,-25 2,-4 -1,-34 -7,-29 -5,-29 0,-19 -17,-28 -10,-28 -4,-21 -1,-10 0,-10 5,-26 8,-15 7,-33 9,-34 11,-32 12,-30 13,-27 12,-23 17,-21 15,-10 3,0 3,1 14,25 11,28 4,26 0,35 -1,10 27,18 24,16 12,8 -4,-2 25,-21 20,-26 11,-25 7,-13 29,-1 38,-5 29,-5 30,4 3,3 9,26 22,16 24,14 9,13 17,-27 9,-33 -4,-31 -6,-19 1,-1 29,2 27,8 19,20 6,27 0,21 22,-16 25,-6 28,8 17,14 26,6 2,2 11,24 31,17 14,4 15,26 6,30 2,26 0,9 0,9 -2,36 -4,34 -6,28 -10,24 5,31 3,32 2,34 2,32 5,31 2,10 -25,0 -48,0 -48,-1 -47,-1 -46,-2 -46,-1 -45,-2 -45,-2 -45,-2 -45,-1 -45,-2 -46,-2 -47,-1 -46,-1 -48,-1 -49,0 -25,0z" />
<path style="fill:#ab8a66" d="M872,852 l-14,-21 -23,-36 -16,-29 -13,-30 -2,-20 5,-4 29,1 26,-4 2,-21 12,-25 6,-27 1,-7 -1,-6 -10,-26 -8,-26 -8,-40 -11,-31 -17,-29 -12,-10 -12,-1 -21,22 -14,25 -23,18 -15,25 2,27 -22,-24 -17,-21 -13,-20 12,-46 9,-35 5,-34 -3,-16 -3,-3 -4,-1 -5,0 -18,4 -40,5 -22,13 -19,20 -14,23 -11,25 -10,34 -2,17 -2,4 -4,1 -28,-17 -26,-22 -24,-20 -10,-6 -3,0 -1,2 -20,-23 -20,-12 -24,19 -28,16 -28,2 -13,25 2,25 -20,-18 -24,-13 -29,2 -12,9 -25,10 -13,22 -9,27 -14,22 -25,7 -12,-2 -5,34 -7,29 -6,27 0,30 5,10 -5,31 3,32 -3,33 -2,9 26,0 50,1 48,2 47,2 46,2 45,4 45,3 44,4 44,4 44,3 45,3 45,4 46,2 47,3 48,1 25,1 25,0 26,0z" />
<path style="fill:#e5b27f" d="M67,950 l14,-22 16,-22 9,-14 7,-31 6,-31 6,-30 1,-7 -11,-27 -6,-34 8,-30 25,-10 4,3 8,-38 9,-26 22,-22 26,19 13,28 19,26 20,24 5,28 -5,20 15,-23 15,-26 15,-21 14,-8 -10,-45 -2,-31 7,-27 11,-8 7,-1 7,0 32,10 7,4 27,-7 31,-5 30,2 11,29 16,21 25,18 17,20 19,-25 17,-23 13,-13 36,4 27,8 19,20 6,27 1,22 20,-20 22,-19 25,-8 11,7 28,11 20,24 17,25 18,15 25,-7 10,-9 18,22 13,28 -1,30 -10,18 7,30 7,29 8,30 7,29 7,30 3,9 -864,0z" />
<path style="fill:#ff7f00" d="M28,970 l24,-18 25,-19 24,-18 5,-4 7,2 6,0 4,-3 11,-32 4,-35 3,-38 5,-31 12,24 12,25 12,24 3,5 -4,35 21,22 30,-4 24,-10 7,-3 31,-6 16,-22 -7,-31 7,-26 8,-24 4,-29 0,-19 13,23 12,27 12,24 3,4 24,-17 6,-30 4,-32 5,-19 -9,-23 0,-1 27,6 10,-25 0,-30 -3,-28 -2,-17 -4,-19 4,9 11,30 11,29 11,30 12,29 11,30 -6,39 -3,32 2,32 9,19 6,2 14,-8 8,-33 4,-32 4,-8 4,-1 4,2 16,27 24,17 29,-3 27,18 11,31 4,23 32,14 35,-1 16,-18 -15,-27 -10,-8 19,-21 20,-18 5,-27 -2,-31 -2,-20 12,29 15,28 14,28 11,30 6,31 1,11 17,25 22,16 26,5 13,-7 17,-24 9,-28 -6,-27 13,24 13,26 12,25 15,22 18,17 7,4 -942,0z" />
<path style="fill:#ff0" d="M59,970 l24,-17 23,-18 16,-12 5,2 5,-1 12,-27 3,-29 2,-30 4,-25 12,24 12,23 8,16 0,31 16,24 24,16 27,7 31,-4 25,-14 11,-26 2,-30 -6,-20 8,-27 7,-29 1,-22 14,29 11,26 11,25 12,26 2,4 6,-1 4,-3 7,-28 1,-30 -1,-29 3,-27 -6,-15 1,-3 2,0 29,11 6,-1 6,-4 7,-35 -1,-23 -5,-28 -3,7 -4,26 9,31 12,27 6,15 -3,31 2,36 13,26 27,1 3,-1 8,-26 6,-26 5,-7 4,0 4,1 10,12 4,35 18,23 32,4 20,8 6,32 -2,19 35,6 34,-5 28,-12 14,-16 1,-6 -14,-17 19,-19 16,-26 -1,-33 -2,-17 10,24 11,22 12,23 9,23 5,34 19,18 30,9 29,0 20,-8 16,-21 2,-33 -2,-8 11,23 8,29 14,23 4,4 6,3 -892,0z" />
<path style="fill:#fff" d="M480,931 l39,-20 59,39 -236,0 20,-19 -20,-59 59,59 19,-20 0,-59 40,40 20,39z" />
<path style="fill:#fff" d="M126,950 l39,-19 0,-39 20,78 -59,-20z" />
<path style="fill:#fff" d="M754,950 l0,-78 20,59 -20,19z" />

</svg>
