 

<svg xmlns:agg="http://www.example.com" xmlns="http://www.w3.org/2000/svg" preserveAspectRatio="none" width="1.0815in" height="1.0750in" viewBox="0 0 999 993">

<path style="fill:#ff0;stroke:#000;stroke-width:2" d="M130,28 l738,0 30,3 27,9 22,14 19,25 4,14 0,8 0,791 -8,29 -22,23 -23,12 -29,8 -10,1 -10,0 -738,0 -30,-3 -27,-9 -22,-14 -19,-25 -4,-15 0,-7 0,-791 8,-29 22,-23 23,-12 29,-8 10,-1 10,0z" />
<path style="fill:#000;stroke:#000;stroke-width:2" d="M424,400 l28,-13 30,-8 31,0 31,8 28,13 29,-21 23,-25 -33,-21 -36,-15 -38,-6 -39,0 -38,6 -36,15 -31,21 23,25 28,21z" />
<path style="fill:#000;stroke:#000;stroke-width:2" d="M634,506 l0,8 -4,29 -8,30 -17,25 -21,20 -25,18 4,35 10,32 36,-19 32,-25 27,-32 19,-35 10,-38 5,-40 -3,-28 -33,5 -30,15 -2,0z" />
<path style="fill:#000;stroke:#000;stroke-width:2" d="M436,636 l-25,-18 -21,-20 -15,-25 -11,-30 -2,-29 0,-8 -33,-15 -33,-5 -2,28 4,40 12,38 19,35 25,32 32,25 35,19 10,-32 5,-35z" />
<path style="fill:#000;stroke:#000;stroke-width:2" d="M521,537 l-10,9 -27,0 -10,-9 -32,19 13,31 8,34 0,33 -8,34 -13,31 -17,29 -25,24 -27,20 -30,13 -31,8 -33,2 38,4 37,-2 36,-8 34,-17 28,-19 26,-26 20,-28 19,28 25,26 30,19 35,17 35,8 38,2 36,-4 -31,-2 -34,-8 -29,-13 -27,-20 -23,-24 -19,-29 -13,-31 -6,-34 0,-33 6,-34 13,-31 -32,-19z" />
<path style="fill:#000;stroke:#000;stroke-width:2" d="M465,523 l-2,-9 13,-27 14,-6 0,-36 -34,-4 -32,-10 -30,-19 -26,-21 -20,-27 -17,-29 -8,-34 -5,-33 5,-34 8,-31 15,-29 -23,29 -17,34 -8,35 -4,38 2,35 10,36 14,31 -35,2 -34,11 -33,14 -29,21 -27,27 -21,31 -15,34 19,-28 23,-22 27,-19 30,-15 33,-8 36,-2 33,6 31,10 30,17 25,23 21,28 31,-19z" />
<path style="fill:#000;stroke:#000;stroke-width:2" d="M507,481 l12,6 13,27 -2,9 31,19 21,-28 25,-23 29,-17 34,-10 33,-6 34,2 34,8 31,15 25,19 23,22 19,28 -15,-34 -21,-31 -25,-27 -31,-21 -31,-14 -36,-11 -36,-2 15,-31 10,-36 3,-35 -3,-38 -10,-35 -17,-34 -21,-29 13,29 10,31 2,34 -2,33 -10,34 -15,29 -21,27 -27,21 -29,19 -32,10 -33,4 0,36z" />

</svg>
