 

<svg xmlns:agg="http://www.example.com" xmlns="http://www.w3.org/2000/svg" preserveAspectRatio="none" width="1.0739in" height="1.0750in" viewBox="0 0 998 999">

<path style="fill:#fff;stroke:#000;stroke-width:2" d="M876,970 l41,-9 33,-27 17,-37 3,-21 0,-754 -9,-41 -27,-33 -37,-19 -21,-1 -754,0 -41,9 -34,27 -18,36 -1,22 0,754 9,41 27,33 36,17 22,3 754,0z" />
<path style="fill:#000" d="M397,494 l62,11 -16,-45 36,9 -40,-60 21,-20 -30,-20 4,-24 -13,-10 42,-45 -29,-3 21,-72 -113,11 16,184 5,23 8,22 11,21 15,18z" />
<path style="fill:#000" d="M492,228 l-28,70 29,5 -46,41 12,11 -5,23 28,23 -23,17 34,64 -34,-12 12,46 -61,-15 17,18 23,15 24,10 51,7 25,-5 25,-7 23,-13 20,-18 16,-21 11,-24 7,-25 3,-25 0,-185 -163,0z" />
<path style="fill:#000" d="M494,736 l45,0 -7,-44 -3,-44 2,-43 6,-44 -20,1 -21,-1 6,44 2,43 -3,44 -7,44z" />
<path style="fill:#000" d="M400,782 l233,0 0,-11 -93,-23 -47,0 -93,23 0,11z" />

</svg>
