 

<svg xmlns:agg="http://www.example.com" xmlns="http://www.w3.org/2000/svg" preserveAspectRatio="none" width="0.8219in" height="1.0750in" viewBox="0 0 763 998">

<path style="fill:#fff" d="M28,28 l707,0 0,942 -707,0 0,-942z" />
<path style="fill:#f00" d="M28,107 l79,-79 117,0 -196,196 0,-117z" />
<path style="fill:#f00" d="M28,342 l314,-314 117,0 -431,431 0,-117z" />
<path style="fill:#f00" d="M28,578 l550,-550 117,0 -667,667 0,-117z" />
<path style="fill:#f00" d="M28,814 l707,-707 0,117 -707,707 0,-117z" />
<path style="fill:#f00" d="M735,342 l-628,628 117,0 511,-511 0,-117z" />
<path style="fill:#f00" d="M342,970 l393,-392 0,117 -276,275 -117,0z" />
<path style="fill:#f00" d="M578,970 l157,-156 0,117 -40,39 -117,0z" />
<path style="fill:none;stroke:#f00;stroke-width:2" d="M28,28 l707,0 0,942 -707,0 0,-942" />
<path style="fill:#fff" d="M145,145 l473,0 0,707 -473,0 0,-707z" />

</svg>
