<?xml version="1.0" encoding="utf-8"?>
<!-- Generator: Adobe Illustrator 16.0.0, SVG Export Plug-In . SVG Version: 6.00 Build 0)  -->
<!DOCTYPE svg PUBLIC "-//W3C//DTD SVG 1.1//EN" "http://www.w3.org/Graphics/SVG/1.1/DTD/svg11.dtd">
<svg version="1.1" id="图层_1" xmlns="http://www.w3.org/2000/svg" preserveAspectRatio="none" xmlns:xlink="http://www.w3.org/1999/xlink" x="0px" y="0px"
	 width="100px" height="100px" viewBox="0 0 100 100" enable-background="new 0 0 100 100" xml:space="preserve">
<g>
	<g>
		<path fill="#272520" d="M15.923,54.777c0.716,0.022,1.389,0.383,2.031,0.672c0.599,0.268,1.086,0.752,1.691,0.998
			c0.549,0.221,0.987,0.056,1.555,0.079c0.416,0.017,0.795,0.154,1.182,0.264c0.064,0.047,0.137,0.084,0.212,0.113
			c0.316,0.18,0.669,0.313,1.087,0.389c1.397,0.245,2.835,0.301,4.169,0.809c0.324,0.124,0.862,0.387,1.229,0.267
			c0.129-0.042,0.226-0.099,0.33-0.167c-0.151,0.122-0.31,0.239-0.438,0.392c-0.307,0.364-1.072-0.069-1.467-0.032
			c-0.983,0.096-1.211,1.024-1.698,1.738c-0.014,0.022,0.016,0.046,0.031,0.024c0.489-0.669,0.831-1.818,1.891-1.624
			c0.297,0.056,0.79,0.281,1.087,0.199c0.314-0.09,0.469-0.432,0.76-0.588c0.176-0.094,0.239-0.176,0.276-0.325
			c0.012-0.004,0.024-0.007,0.034-0.008c0.226,0.091,0.464,0.161,0.723,0.207c0.023,0.009,0.045,0.021,0.066,0.028
			c0.023,0.011,0.042,0.004,0.056-0.008c0.189,0.027,0.388,0.047,0.601,0.057c1.781,0.062,3.571,0.108,5.282,0.671
			c1.685,0.553,3.284,1.383,4.785,2.322c1.51,0.945,3.009,1.978,4.661,2.662c1.563,0.648,3.321,1.044,4.739,1.997
			c0.714,0.48,1.377,0.989,1.823,1.743c0.414,0.702,0.686,1.481,0.997,2.231c0.007,1.112,0.046,2.223,0.085,3.332
			c0.088,2.474-0.112,4.927-0.033,7.401c0.078,2.495,0.154,4.991,0.223,7.486c0.067,2.396,0.278,4.824,0.104,7.018
			c-0.099,1.234-0.188,2.522-0.433,3.739c-0.042,0.207-0.086,0.415-0.131,0.622c2.022-0.106,4.047-0.216,6.072-0.314
			c0.002-0.136,0.002-0.274-0.004-0.413c-0.057-1.258-0.068-2.515-0.167-3.772c-0.212-2.658-0.316-5.317-0.436-7.981
			c-0.112-2.49-0.251-4.976-0.456-7.462c-0.201-2.445-0.733-4.848-1.141-7.265c-0.402-2.379-0.813-4.771-0.925-7.184
			c-0.019-0.419-0.019-0.84-0.011-1.261c0.575-1.492,1.754-2.727,2.096-4.356c0.204-0.963,0.021-1.951,0.2-2.909
			c0.175-0.945,0.731-1.484,1.562-1.921c0.775-0.408,1.605-0.725,2.324-1.229c0.418-0.294,0.818-0.619,1.253-0.886
			c0.547-0.335,1.036-0.443,1.667-0.52c1.123-0.136,1.859-0.686,2.367-1.474c0.334,0.104,0.659,0.247,0.975,0.397
			c0.481,0.232,0.969,0.544,1.517,0.427c0.164-0.034,0.27-0.103,0.376-0.161c0.016-0.003,0.03-0.007,0.046-0.01
			c0.656,0.21,1.42,0.012,2.084,0.264c0.556,0.211,1.069,0.5,1.592,0.782c0.046,0.026,0.095,0.051,0.142,0.076
			c0.003,0.016,0.011,0.032,0.032,0.039c0.031,0.011,0.063,0.02,0.094,0.028c0.247,0.133,0.513,0.268,0.789,0.387
			c-0.086-0.021-0.167-0.049-0.246-0.087c-0.04-0.016-0.063,0.037-0.04,0.065c0.18,0.207,0.317,0.309,0.38,0.591
			c0.051,0.232,0.209,0.376,0.401,0.492c0.625,0.38,0.799,0.776,0.728,1.454c-0.057,0.548-0.179,1.057-0.46,1.536
			c-0.005,0.007,0.007,0.013,0.011,0.006c0.396-0.646,0.541-1.406,0.5-2.156c-0.05-0.894-1.083-0.876-1.093-1.795
			c0-0.014-0.004-0.024-0.01-0.036c0.589,0.231,1.216,0.356,1.796,0.152c0.093-0.033,0.183-0.07,0.271-0.115
			c0.426-0.001,0.9,0.131,0.999,0.59c0.122,0.56-0.203,1.108-0.593,1.487c-0.03,0.028,0.015,0.075,0.046,0.046
			c0.497-0.451,0.935-1.226,0.521-1.865c-0.096-0.149-0.393-0.329-0.69-0.418c1.125-0.714,1.976-2.098,3.532-1.4
			c0.68,0.306,0.859,0.807,1.252,1.363c0.164,0.23,0.304,0.416,0.597,0.418c0.023,0,0.023-0.034,0.001-0.038
			c-0.416-0.07-0.831-1.154-1.13-1.482c-0.265-0.292-0.659-0.493-1.048-0.562c-1.439-0.256-2.104,0.635-3.177,1.405
			c-0.147,0.104-0.294,0.187-0.443,0.248c-0.072,0.007-0.136,0.028-0.188,0.065c-0.605,0.178-1.224,0.044-1.823-0.208
			c0.316-0.003,0.624-0.079,0.891-0.285c0.198-0.153,0.285-0.437,0.414-0.641c0.356-0.563,0.945-0.808,1.529-1.073
			c0.016-0.007,0.008-0.034-0.007-0.025c-0.505,0.214-1.161,0.431-1.481,0.908c-0.284,0.427-0.508,1.011-1.128,1.007
			c-0.205-0.001-0.402-0.031-0.597-0.063c-0.418-0.204-0.822-0.444-1.204-0.649c-0.592-0.317-1.16-0.51-1.751-0.62
			c0.095-0.033,0.184-0.077,0.263-0.145c0.341-0.29-0.092-1.159-0.05-1.513c0.141-1.155,1.424-1.37,2.394-1.373
			c0.764-0.002,1.368-0.153,1.789-0.833c1.102-1.781,4.246-0.359,4.816,1.256c0.013,0.037,0.075,0.016,0.064-0.021
			c-0.467-1.687-2.554-2.64-4.194-2.262c-0.289,0.067-0.583,0.226-0.756,0.472c-0.109,0.155-0.2,0.326-0.319,0.475
			c-0.355,0.445-0.822,0.537-1.366,0.517c-0.746-0.025-1.797,0.075-2.363,0.646c-0.538,0.542-0.628,1.313-0.431,2.036
			c0.128,0.46-0.326,0.35-0.721,0.274c0.003-0.024,0.009-0.045,0.009-0.069c0.017-0.707-0.248-1.565,0.151-2.209
			c0.474-0.764,1.106-0.598,1.827-0.846c0.537-0.186,0.7-0.519,1.082-0.906c0.578-0.588,1.356-0.656,2.084-0.947
			c1.124-0.45,2.194-1.116,3.126-1.884c0.011-0.009-0.006-0.03-0.017-0.02c-1.121,0.89-2.463,1.675-3.856,2.035
			c-0.446,0.116-0.951,0.243-1.295,0.578c-0.438,0.43-0.689,0.908-1.355,1.026c-0.889,0.157-1.784,0.309-1.983,1.364
			c-0.104,0.551-0.016,1.082-0.046,1.635c-0.004,0.078-0.021,0.144-0.041,0.2c-0.028,0-0.055,0.001-0.079,0.005
			c-0.506,0.083-0.835,0.368-1.333,0.088c-0.468-0.264-0.946-0.596-1.47-0.747c0.135-0.298,0.251-0.619,0.349-0.957
			c0.286-0.978,0.662-1.71,1.462-2.369c0.639-0.528,1.344-0.966,1.988-1.486c0.809-0.651,1.644-1.321,2.444-2.028
			c0.269-0.095,0.526-0.111,0.912-0.043c0.305,0.052,0.581,0.075,0.89,0.054c0.61-0.043,1.081-0.459,1.527-0.83
			c0.654-0.543,1.279-1.149,1.973-1.643c0.555-0.392,1.119-0.767,1.623-1.224c0.012-0.01-0.005-0.029-0.018-0.021
			c-0.648,0.547-1.421,0.916-2.077,1.448c-0.681,0.557-1.34,1.176-2.066,1.67c-0.479,0.323-1.004,0.486-1.582,0.374
			c-0.223-0.044-0.462-0.139-0.689-0.153c-0.027-0.002-0.055,0-0.08,0c0.785-0.721,1.527-1.482,2.164-2.308
			c1.13-1.465,1.624-3.196,2.039-4.967c0.002-0.009-0.014-0.012-0.017-0.004c-0.24,1.14-0.622,2.292-1.183,3.313
			c-0.212,0.387-0.452,0.75-0.712,1.092c0.066-0.187,0.121-0.382,0.159-0.587c0.102-0.542-0.071-0.886-0.223-1.395
			c-0.278-0.945,0.444-1.542,0.918-2.244c0.837-1.239,1.468-2.611,2.266-3.879c0.793-1.261,1.625-2.489,2.589-3.625
			c0.012-0.013-0.009-0.028-0.021-0.016c-0.996,1.107-1.867,2.31-2.688,3.55c-0.774,1.166-1.4,2.453-2.213,3.588
			c-0.509,0.711-1.52,1.557-1.202,2.548c0.077,0.237,0.226,0.536,0.299,0.818c-0.063-0.108-0.132-0.212-0.201-0.306
			c-0.427-0.591-0.96-1.337-0.765-2.118c0.156-0.63,0.669-1.082,0.837-1.701c0.202-0.75,0.414-1.491,0.519-2.263
			c0.003-0.018-0.022-0.023-0.025-0.006c-0.148,0.841-0.337,1.897-0.792,2.629c-0.318,0.51-0.683,0.931-0.75,1.543
			c-0.115,1.054,0.785,1.842,1.179,2.758c-0.072,0.333-0.192,0.654-0.309,0.975c-0.075,0.207-0.168,0.388-0.273,0.559
			c-0.784,0.838-1.688,1.564-2.618,2.265c0.044-0.141,0.087-0.282,0.136-0.408c0.391-1.006,1.125-1.849,1.814-2.662
			c0.017-0.021-0.013-0.045-0.03-0.027c-0.565,0.639-1.155,1.288-1.577,2.036c-0.179,0.315-0.304,0.763-0.477,1.164
			c-0.236,0.176-0.475,0.353-0.712,0.529c-0.849,0.629-1.701,1.249-2.574,1.847c-0.094,0.064-0.188,0.13-0.281,0.196
			c0.005-0.129-0.007-0.268-0.039-0.416c-0.149-0.7-0.19-1.408,0.318-1.982c0.362-0.408,0.842-0.604,1.262-0.938
			c0.012-0.01-0.002-0.031-0.017-0.021c-0.683,0.511-1.423,0.743-1.714,1.618c-0.086,0.256-0.111,0.611-0.072,0.876
			c0.064,0.424,0.087,0.763-0.018,1.068c-0.444,0.328-0.862,0.685-1.223,1.112c-0.693,0.827-0.826,2.077-1.346,2.993
			c-0.285,0.109-0.503,0.341-0.509,0.642c-0.229,0.2-0.513,0.355-0.873,0.446c-0.577,0.148-1.177,0.114-1.75,0.284
			c-0.44,0.133-0.866,0.426-1.241,0.683c-0.726,0.495-1.431,0.949-2.229,1.323c-1.534,0.717-2.888,1.533-3.061,3.373
			c-0.095,1.004,0.036,2.026-0.306,2.995c-0.2,0.567-0.477,1.09-0.778,1.602c0.069-1.109,0.118-2.219,0.019-3.331
			c-0.087-0.966-0.239-1.916-0.431-2.856c0.012-0.028,0.022-0.059,0.034-0.088c0.469-1.178,0.975-2.307,1.184-3.567
			c0.111-0.677,0.184-1.358,0.25-2.04c0.059-0.587,0.047-1.329,0.482-1.79c0.492-0.523,1.215-0.717,1.855-1.028
			c0.389-0.02,0.781,0.049,1.207,0.039c0.508-0.01,1.033-0.138,1.522-0.262c1.027-0.255,1.575-0.456,2.222-1.298
			c0.401-0.523,0.931-0.885,1.359-1.373c0.117-0.132,0.825-1.039,0.979-0.378c0.031,0.135,0.052,0.272,0.083,0.407
			c0.153,0.674,0.722,1.05,1.331,1.287c0.008,0.004,0.013-0.007,0.006-0.012c-0.657-0.388-1.035-0.857-1.176-1.593
			c-0.046-0.247-0.099-0.446-0.308-0.597c-0.151-0.109-0.413-0.032-0.534,0.078c-0.42,0.387-0.803,0.816-1.22,1.21
			c-0.372,0.35-0.654,0.742-0.979,1.132c-0.529,0.633-1.302,0.764-2.072,0.931c-0.66,0.143-1.264,0.195-1.928,0.149
			c1.13-0.721,2.242-1.458,3.39-2.152c0.873-0.528,1.762-1.084,2.531-1.764c0.326-0.176,0.713-0.344,0.944-0.457
			c0.589-0.285,1.167-0.364,1.714-0.743c0.541-0.374,1.013-0.683,1.683-0.76c0.537-0.062,1.116-0.052,1.643-0.188
			c1.709-0.439,2.109-2.15,2.554-3.642c0.016-0.049-0.06-0.071-0.075-0.022c-0.257,0.836-0.459,1.771-0.976,2.494
			c-0.304,0.424-0.651,0.681-1.035,0.847c0.298-0.35,0.272-0.797,0.052-1.312c-0.299-0.695-1.036-1.908-0.262-2.582
			c0.506-0.438,1.126-0.65,1.748-0.866c0.007-0.003,0.005-0.016-0.004-0.014c-0.84,0.264-1.77,0.515-2.154,1.376
			c-0.5,1.119,1.588,2.696,0.164,3.524c-0.017,0.01-0.025,0.021-0.034,0.033c-0.435,0.106-0.91,0.145-1.418,0.201
			c-0.454,0.05-0.929,0.117-1.325,0.366c-0.532,0.332-0.969,0.708-1.582,0.894c-0.491,0.148-0.854,0.336-1.302,0.578
			c-0.028,0.016-0.056,0.029-0.085,0.042c0.049-0.045,0.098-0.089,0.144-0.136c1.636-1.641,2.662-3.929,4.756-5.077
			c0.062-0.034,0.007-0.14-0.056-0.109c-2.171,1.104-3.2,3.392-4.957,4.962c-1.147,1.028-2.515,1.757-3.854,2.499
			c-1.135,0.63-2.197,1.474-3.404,1.954c-0.746,0.297-1.605,0.611-1.969,1.401c-0.51,1.112-0.428,2.459-0.684,3.645
			c-0.172,0.802-0.475,1.54-0.787,2.276c-0.146-0.598-0.305-1.193-0.469-1.788c-0.006-0.112-0.012-0.227-0.017-0.34
			c-0.07-1.987,0.112-3.923,0.445-5.881c0.041-0.239,0.083-0.476,0.124-0.714c0.404-0.484,0.941-0.566,1.618-0.62
			c0.618-0.05,1.352-0.096,1.708-0.678c0.152-0.25,0.106-0.557,0.049-0.825c-0.033-0.157-0.232-0.643-0.229-0.954
			c0.182-0.044,0.414-0.091,0.586-0.173c0.859,0.271,1.904,0.079,2.781,0.085c0.023,0,0.023-0.039,0.001-0.04
			c-0.715-0.054-1.449-0.017-2.157-0.138c-0.142-0.024-0.277-0.059-0.409-0.098c0.017-0.033,0.026-0.072,0.024-0.115
			c-0.021-0.524-0.043-1.093,0.49-1.406c0.25-0.146,0.521-0.241,0.803-0.309c0.691-0.167,2.012-0.24,2.229-1.094
			c0.001-0.008-0.013-0.012-0.014-0.003c-0.342,1.1-2.293,0.709-3.099,1.28c-0.383,0.272-0.575,0.655-0.618,1.116
			c-0.017,0.179,0.016,0.338-0.059,0.454c-0.112-0.039-0.225-0.079-0.34-0.122c-0.064-0.024-0.169-0.044-0.238-0.017
			c-0.299,0.117-0.374,0.316-0.351,0.553c-0.003,0.014,0,0.026,0.004,0.04c0.078,0.545,0.63,1.275,0.214,1.691
			c-0.736,0.732-2.049,0.105-2.871,0.703c0.096-0.521,0.199-1.042,0.313-1.558c0.196-0.882,0.317-1.889,0.82-2.663
			c0.884-1.363,2.585-1.47,3.733-2.5c1.243-1.115,1.941-2.694,3.157-3.812c1.07-0.985,2.359-1.693,3.627-2.408
			c0.069-0.003,0.14-0.008,0.209-0.016c0.18-0.021,0.354-0.051,0.522-0.12c0.602-0.248,0.693,0.028,1.005,0.287
			c0.647,0.536,1.693-0.53,2.1-0.883c0.631-0.55,1.274-0.779,2.112-0.583c0.632,0.149,1.276,0.348,1.883,0.581
			c0.939,0.361,1.912,0.838,2.914,0.443c0.009-0.002,0.003-0.014-0.005-0.011c-1.457,0.516-3.129-0.756-4.532-1.112
			c-1.008-0.256-1.716-0.153-2.505,0.522c-0.631,0.542-1.374,1.326-2.163,0.5c-0.196-0.202-0.483-0.155-0.721-0.06
			c-0.019,0.007-0.04,0.011-0.06,0.02c0.527-0.307,1.052-0.617,1.57-0.932c0.003,0.022,0.018,0.043,0.046,0.043
			c0.286-0.005,0.508-0.083,0.678-0.324c0.079-0.111,0.146-0.211,0.216-0.305c0.452-0.29,0.897-0.589,1.335-0.899
			c0.007,0.021,0.024,0.037,0.048,0.025c0.154-0.075,0.278-0.193,0.381-0.335c0.193-0.144,0.385-0.29,0.573-0.439
			c0.011,0.001,0.021,0.001,0.031-0.002c0.409-0.1,0.74-0.47,1.173-0.481c0.17-0.004,0.418,0.03,0.58-0.036
			c0.498-0.2,0.593-0.708,1.062-0.962c0.56-0.302,1.182-0.45,1.734-0.768c0.523-0.301,0.991-0.652,1.434-1.061
			c0.006-0.006-0.004-0.016-0.011-0.009c-0.633,0.551-1.335,1.027-2.132,1.311c-0.417,0.148-0.927,0.25-1.282,0.538
			c-0.15,0.12-0.195,0.146-0.304,0.309c-0.474,0.713-0.591,0.436-1.089,0.497c-0.263,0.031-0.466,0.127-0.668,0.234
			c0.846-0.715,1.634-1.503,2.334-2.399c0.032-0.042-0.033-0.087-0.067-0.047c-0.917,1.055-1.972,1.965-3.103,2.783
			c0.071-0.204,0.123-0.41,0.168-0.592c0.093-0.381,0.063-0.716,0.01-1.104c-0.056-0.417-0.206-1.18,0.448-1.333
			c0.203-0.048,0.385-0.112,0.574-0.195c0.671-0.293,1.038-1.192,1.305-1.808c0.416-0.965,0.767-1.939,1.467-2.742
			c0.018-0.02-0.013-0.044-0.03-0.026c-1.256,1.374-1.428,4.052-3.375,4.602c-0.574,0.161-0.71,0.742-0.629,1.286
			c0.116,0.777,0.068,1.481-0.258,2.138c-0.25,0.174-0.502,0.347-0.757,0.514c0.378-0.863,0.045-1.771-0.135-2.68
			c-0.004-0.017-0.028-0.013-0.025,0.004c0.119,0.766,0.511,2.049,0.007,2.775c-1.432,0.923-2.942,1.739-4.424,2.542
			c-0.264,0.009-0.525,0.026-0.759,0.086c0.053-0.126,0.101-0.262,0.165-0.413c0.2-0.476,0.436-0.917,0.727-1.345
			c0.008-0.011-0.013-0.027-0.022-0.014c-0.434,0.54-0.692,1.324-1.136,1.872c-0.13,0.063-0.248,0.149-0.341,0.269
			c-0.023,0.029-0.029,0.058-0.026,0.083c-0.01,0.007-0.02,0.015-0.029,0.022c-0.749,0.511-1.599,0.922-2.172,1.645
			c-0.029,0.036-0.029,0.081-0.011,0.116c-0.301,0.273-0.583,0.572-0.842,0.903c-1.088,1.39-2.01,2.814-3.672,3.569
			c-1.378,0.627-2.536,1.304-3.024,2.833c-0.524,1.646-0.802,3.397-1.077,5.102c-0.035,0.134-0.056,0.266-0.061,0.396
			c-0.176,1.142-0.303,2.275-0.352,3.417c-0.211-0.742-0.418-1.485-0.612-2.231c0-0.357,0.009-0.714,0.034-1.071
			c0.074-1.074,0.213-2.14,0.376-3.205c0.12-0.792,0.251-1.409,0.636-2.024c0.107,0.176,0.461,0.174,0.545-0.096
			c0.123-0.401,0.261-0.799,0.404-1.196c0.232-0.36,0.436-0.733,0.602-1.129c0.762-1.837,2.119-3.292,3.086-5.026
			c0.912-1.64,1.606-3.355,2.062-5.173c0.495-1.986,0.854-4.027,1.51-5.937c0.376-0.478,0.6-0.985,1.067-1.415
			c0.508-0.467,1.074-0.765,1.761-0.875c1.108-0.175,1.611-0.915,2.492-1.504c1.118-0.749,2.53-0.369,3.778-0.674
			c1.104-0.269,2.091-0.903,3.025-1.523c0.021-0.014-0.001-0.045-0.022-0.032c-1.351,0.849-2.704,1.559-4.335,1.562
			c-1.203,0.002-2.138,0.068-3.078,0.876c-0.594,0.511-1.1,0.873-1.896,1.006c-0.421,0.069-0.847,0.159-1.216,0.381
			c-0.301,0.178-0.678,0.441-1.005,0.755c0.255-0.556,0.549-1.096,0.892-1.615c0.281-0.181,0.563-0.365,0.87-0.51
			c0.553-0.262,1.104-0.318,1.707-0.332c0.657-0.011,1.239-0.042,1.699-0.558c0.558-0.622,0.909-1.39,1.591-1.899
			c0.854-0.641,1.816-1.004,2.837-1.286c0.008-0.002,0.002-0.013-0.006-0.011c-0.924,0.239-1.885,0.534-2.669,1.1
			c-0.688,0.5-1.058,1.118-1.591,1.758c-0.448,0.539-0.904,0.764-1.61,0.767c-0.444,0.002-0.923-0.033-1.356,0.084
			c-0.398,0.108-0.82,0.285-1.209,0.508c0.217-0.301,0.451-0.592,0.708-0.876c0.527-0.579,1.089-1.13,1.659-1.673
			c0.042,0.008,0.088-0.003,0.12-0.049c0.038-0.056,0.074-0.113,0.108-0.17c1.819-1.724,3.704-3.395,4.887-5.641
			c0.013-0.025-0.024-0.038-0.038-0.017c-1.128,1.914-2.787,3.335-4.436,4.773c0.243-0.695,0.337-1.451,0.299-2.169
			c-0.008-0.161-0.03-0.33-0.055-0.501c0.022-0.161,0.055-0.32,0.117-0.471c0.208-0.505,0.584-0.737,1.062-0.952
			c0.61-0.274,1.117-0.597,1.614-1.052c0.603-0.554,0.965-1.327,1.618-1.818c0.75-0.566,1.581-1.108,2.52-1.284
			c0.01-0.001,0.008-0.016-0.002-0.014c-0.939,0.21-1.802,0.652-2.574,1.225c-0.781,0.578-1.233,1.462-2.016,2.064
			c-0.45,0.348-0.91,0.548-1.416,0.796c-0.233,0.115-0.511,0.24-0.687,0.444c-0.129,0.148-0.228,0.322-0.305,0.509
			c-0.042-0.509,0.009-1,0.449-1.348c0.34-0.27,0.725-0.501,0.986-0.854c1.505-2.042,2.249-4.459,2.907-6.875
			c0.005-0.016-0.02-0.027-0.024-0.009c-0.414,1.225-0.814,2.466-1.316,3.66c-0.496,1.181-1.121,2.771-2.193,3.554
			c-0.793,0.58-1.124,0.948-0.997,1.942c0.017,0.147,0.034,0.295,0.046,0.443c-0.063,0.365-0.056,0.746,0.002,1.085
			c0.003,0.013,0.011,0.023,0.019,0.031c-0.036,0.679-0.174,1.345-0.466,1.957c-1.007,0.886-1.992,1.792-2.833,2.837
			c-2.288,2.847-2.69,6.582-3.621,9.999c-0.559,2.056-1.479,4.018-2.654,5.793c-0.386,0.582-0.83,1.127-1.244,1.687
			c0.019-0.081,0.037-0.164,0.057-0.247c0.35-1.62,0.449-3.284,0.49-4.936c0.041-1.681,0.056-3.355,0.141-5.034
			c0.082-1.638,0.164-3.426,1.025-4.874c0.877-1.472,2.293-2.558,3.226-3.991c0.804-1.233,1.281-2.61,1.899-3.938
			c1.269-2.728,3.09-5.195,3.787-8.164c0.007-0.029-0.037-0.036-0.045-0.008c-0.868,3.172-3.026,5.756-4.324,8.743
			c-0.654,1.506-1.298,2.923-2.379,4.18c-0.989,1.152-2.262,2.262-2.836,3.7c-0.553,1.383-0.709,2.857-0.82,4.329
			c-0.122,1.606-0.197,3.201-0.238,4.811c-0.042,1.781-0.1,3.62-0.554,5.353c-0.244,0.931-0.569,1.834-0.896,2.738
			c-0.079,0.164-0.161,0.326-0.255,0.483c-0.4,0.68-1.067,1.203-1.396,1.927c-0.375,0.829-0.441,1.799-0.572,2.69
			c-0.045,0.304-0.086,0.607-0.125,0.914c-0.042-0.225-0.083-0.449-0.119-0.674c-0.352-2.132-0.541-4.296-0.62-6.467
			c0.261-1.545,0.235-3.116,0.12-4.687c0.17-1.309-0.016-2.629,0.217-3.944c0.238-1.359,0.768-2.647,1.193-3.956
			c0.381-1.169,0.67-2.317,0.709-3.555c0.029-0.921-0.023-1.843-0.039-2.766c0.098-0.469,0.263-0.915,0.625-1.272
			c0.69-0.684,1.338-0.46,2.197-0.466c0.986-0.006,1.157-0.963,1.787-1.494c0.018-0.015-0.005-0.045-0.023-0.032
			c-0.455,0.323-0.686,0.976-1.195,1.2c-0.727,0.316-1.539-0.175-2.223,0.175c-0.492,0.252-0.914,0.703-1.17,1.226v-0.03
			c0.205-0.803,0.229-1.425,0.896-2.032c0.572-0.521,1.055-1.132,1.585-1.693c0.101-0.106,0.195-0.215,0.285-0.322
			c0.55-0.451,1.189-0.559,1.908-0.643c0.425-0.05,0.841-0.073,1.185-0.355c0.814-0.667,1.354-2.272,2.632-1.9
			c0.024,0.007,0.036-0.03,0.011-0.039c-1.176-0.406-1.743,0.824-2.436,1.527c-0.63,0.639-1.363,0.537-2.18,0.704
			c-0.256,0.053-0.531,0.118-0.777,0.232c0.093-0.151,0.176-0.309,0.245-0.479c0.448-0.59,0.915-1.157,1.375-1.752
			c0.396-0.514,0.57-1.106,1.25-1.344c0.296-0.104,0.63-0.186,0.913-0.341c1.295-0.434,2.177-1.519,3.146-2.487
			c1.188-1.185,1.301-2.803,1.293-4.402c0-0.017-0.026-0.018-0.026-0.001c-0.013,0.845-0.028,1.728-0.277,2.54
			c-0.269,0.88-0.721,1.475-1.397,2.075c-0.484,0.43-0.862,0.984-1.356,1.391c-0.273,0.223-0.579,0.376-0.895,0.504
			c0.663-0.623,1.189-1.416,1.648-2.19c0.487-0.825,0.796-1.661,0.809-2.627c0-0.008-0.013-0.009-0.013-0.001
			c-0.064,1.25-0.637,2.196-1.328,3.197c-0.33,0.478-0.667,0.987-1.103,1.377c-0.483,0.434-0.927,0.543-1.493,0.786
			c-0.784,0.335-0.975,0.987-1.504,1.593c-0.305,0.345-0.584,0.696-0.855,1.052c0.116-0.63,0.072-1.313,0.354-1.895
			c0.02-0.044,0.043-0.086,0.066-0.127c0.031,0.008,0.066,0.002,0.094-0.027c0.201-0.214,0.293-0.417,0.323-0.627
			c0.683-0.916,1.605-1.663,2.056-2.725c0.627-1.479,0.174-3.011,0.172-4.554c0-0.007-0.013-0.009-0.014-0.001
			c-0.063,1.829,0.459,3.682-0.813,5.236c-0.427,0.523-0.962,1.027-1.411,1.579c-0.019-0.138-0.047-0.286-0.076-0.445
			c-0.195-1.056,0.403-1.664,0.852-2.542c0.887-1.739,0.393-3.531,0.137-5.368c-0.004-0.018-0.03-0.015-0.027,0.003
			c0.111,0.939,0.324,1.884,0.334,2.833c0.015,1.191-0.313,2.116-0.965,3.107c-0.275,0.418-0.592,0.85-0.594,1.377
			c0,0.433,0.157,0.863,0.157,1.268c-0.317,0.428-0.573,0.886-0.684,1.412c-0.145,0.69-0.148,1.447-0.415,2.103
			c-0.074,0.101-0.148,0.199-0.222,0.3c-0.032,0.044-0.026,0.09-0.001,0.124c-0.035,0.051-0.071,0.101-0.111,0.15
			c-0.499,0.617-1.09,1.262-1.652,1.822c-0.348,0.347-0.727,0.71-0.987,1.12c0.285-2.108,1.049-4.144,1.425-6.237
			c0.085-0.465,0.16-0.931,0.232-1.396c0.006-0.007,0.014-0.015,0.014-0.026c0.029-0.125,0.045-0.254,0.049-0.387
			c0.277-1.848,0.517-3.703,1.004-5.512c0.013-0.043-0.054-0.054-0.067-0.013c-0.47,1.524-0.765,3.085-1.045,4.649
			c-0.149-0.592-0.431-1.177-0.707-1.614C54.997,4.409,55.34,2.196,55.539,0.6c0.004-0.016-0.021-0.021-0.025-0.003
			c-0.227,1.457-0.482,3.167-0.09,4.614c0.156,0.576,0.587,1.039,0.773,1.611c0.154,0.466,0.207,0.92,0.271,1.385
			c-0.144,0.811-0.292,1.621-0.462,2.429c-0.139,0.654-0.316,1.309-0.5,1.963c-0.002-0.005-0.002-0.011-0.004-0.015
			c-0.144-0.619-0.135-1.18-0.162-1.805c-0.045-1.011-0.5-1.932-0.758-2.9c-0.623-2.338-0.456-5.12-0.01-7.48
			c0.004-0.026-0.035-0.034-0.04-0.009c-0.427,2.125-0.589,4.529-0.267,6.677c0.15,1.015,0.639,1.945,0.827,2.943
			c0.12,0.632,0.001,1.253,0.089,1.879c0.06,0.432,0.19,0.841,0.168,1.263c-0.416,1.48-0.818,2.969-0.831,4.498
			c-0.013,1.407,0.114,2.835-0.031,4.239c-0.144,1.38-0.594,2.659-1.054,3.96c-0.378,1.068-0.743,2.198-0.953,3.345
			c-0.031-0.387-0.059-0.774-0.077-1.159c-0.047-0.925-0.362-1.767-0.624-2.627c-0.02-0.544,0.074-1.093,0.193-1.651
			c0.211-0.989,0.213-2.009,0.348-3.01c0.053-0.384,0.109-0.77,0.169-1.156c0.01,0.1,0.019,0.199,0.023,0.295
			c0.003,0.05,0.072,0.059,0.079,0.006c0.029-0.297,0.014-0.589-0.014-0.879c0.233-1.503,0.461-3.013,0.461-4.532
			c0-0.877-0.113-1.717-0.285-2.543c0.021-0.017,0.032-0.042,0.021-0.075c-0.34-0.969,0.028-2.13,0.062-3.141
			c0.031-1.023,0.014-2.047,0.13-3.065c0.208-1.803,0.021-3.584-0.305-5.364c-0.003-0.009-0.015-0.009-0.014,0
			c0.161,1.018,0.294,2.045,0.312,3.077c0.016,1.063-0.193,2.081-0.23,3.135c-0.037,1.096,0.012,2.207-0.116,3.298
			c-0.041,0.354-0.096,0.707-0.11,1.057c-0.166-0.645-0.351-1.288-0.529-1.94c0.002-0.008,0.002-0.019-0.002-0.03
			c-0.004-0.008-0.009-0.016-0.012-0.024c-0.063-0.232-0.125-0.463-0.184-0.697c-0.583-2.289-0.917-4.644-0.956-7.006
			c-0.001-0.014-0.023-0.012-0.024,0.002c-0.011,2.298,0.238,4.629,0.771,6.869c-0.535-1.106-1.083-2.226-1.291-3.436
			c-0.29-1.685-1.091-3.118-1.656-4.72c-0.008-0.024-0.043-0.015-0.037,0.009c0.271,0.908,0.604,1.794,0.952,2.676
			c0.338,0.861,0.398,1.743,0.633,2.626c0.21,0.792,0.522,1.514,0.904,2.238c0.228,0.433,0.356,0.974,0.677,1.351
			c0.546,2.152,1.133,4.213,0.938,6.476c-0.016-0.068-0.031-0.133-0.049-0.196c-0.227-0.779-0.656-1.455-1.053-2.154
			c-0.914-1.612-1.177-3.417-1.842-5.127c-0.005-0.014-0.03-0.006-0.025,0.008c0.534,1.557,0.65,3.274,1.451,4.727
			c0.445,0.807,1.116,1.666,1.301,2.582c0.086,0.426,0.084,0.851,0.085,1.274c0,0.004-0.001,0.008-0.001,0.012
			c-0.223-0.705-0.979-1.262-1.408-1.829c-0.839-1.117-1.305-2.237-1.706-3.565C49.151,10.03,48.8,9.124,48.25,8.29
			c-0.007-0.008-0.02,0-0.012,0.009c1.185,1.725,1.15,3.977,2.35,5.717c0.292,0.423,0.589,0.871,0.934,1.252
			c0.445,0.493,1.059,0.919,0.867,1.7c-0.068,0.282-0.088,0.576-0.081,0.872c-0.279,1.504-0.61,3.001-0.743,4.527
			c-0.025,0.302-0.085,0.642-0.145,0.995c-0.014-1.334-0.051-2.754-0.647-3.974c-0.369-0.753-0.868-1.47-1.143-2.263
			c-0.295-0.848-0.242-1.655-0.285-2.532c-0.071-1.443-0.867-2.506-1.362-3.814c-0.584-1.544-0.476-3.221-0.486-4.841
			c-0.01-1.56-0.228-3.113-0.154-4.674c0.001-0.029-0.044-0.025-0.045,0.003c-0.115,1.649,0.09,3.297,0.042,4.948
			c-0.025,0.841-0.081,1.734-0.023,2.605c-0.357-0.776-0.982-1.506-1.441-2.142c-0.52-0.722-0.933-1.39-1.185-2.251
			c-0.19-0.659-0.369-1.319-0.538-1.983c-0.005-0.017-0.029-0.011-0.026,0.004c0.3,1.375,0.538,2.713,1.308,3.908
			c0.323,0.5,0.653,0.995,0.985,1.488c0.391,0.583,0.654,1.195,0.987,1.797c0.027,0.159,0.059,0.318,0.097,0.476
			c-0.293-0.257-0.64-0.437-0.928-0.706c-0.784-0.733-1.119-1.618-1.563-2.567c-0.385-0.822-0.844-1.522-1.549-2.103
			C42.63,4.056,41.727,3.484,40.86,2.85c-0.007-0.006-0.018,0.006-0.011,0.011c0.87,0.615,1.735,1.263,2.533,1.965
			c0.858,0.757,1.334,1.672,1.75,2.725c0.269,0.679,0.608,1.35,1.141,1.865c0.316,0.305,0.738,0.513,1.042,0.819
			c0.355,0.359,0.392,0.807,0.657,1.196c0.267,0.612,0.566,1.204,0.78,1.827c-0.424-0.689-1.093-1.285-1.655-1.75
			c-0.605-0.498-1.274-0.931-1.843-1.472c-0.483-0.458-0.939-0.939-1.465-1.349c-0.017-0.015-0.041,0.016-0.023,0.031
			c0.51,0.426,0.936,0.931,1.412,1.391c0.501,0.485,1.066,0.892,1.589,1.352c0.533,0.468,1.019,0.999,1.483,1.537
			c0.284,0.329,0.599,0.673,0.678,1.117c0.033,0.182,0.06,0.358,0.104,0.535c0.004,0.073,0.005,0.145,0.004,0.219
			c0,0.031,0,0.06,0,0.09c-0.311-0.9-0.814-1.746-1.614-2.19c-1.296-0.718-2.953-0.437-4.1-1.453
			c-0.006-0.006-0.015,0.003-0.009,0.009c0.92,0.946,2.152,0.903,3.325,1.299c0.892,0.3,1.51,0.935,1.961,1.752
			c0.292,0.527,0.339,1.119,0.504,1.675c0.122,0.91,0.41,1.716,0.895,2.622c0.455,0.844,0.811,1.661,0.92,2.625
			C50.975,21.8,50.992,22.299,51,22.8c-0.2-0.611-0.4-1.242-0.749-1.771c-0.453-0.684-1.124-1.08-1.748-1.58
			c0.011-0.02,0.011-0.042-0.01-0.063c-0.15-0.139-0.314-0.251-0.485-0.347c-0.513-0.431-1.044-0.859-1.655-1.129
			c-0.695-0.31-1.448-0.44-2.164-0.692c-0.529-0.573-0.813-1.306-1.266-1.976c-0.636-0.944-0.643-1.934-0.978-2.979
			c-0.276-0.855-0.803-1.601-1.472-2.201c-0.59-0.531-1.111-1.196-1.815-1.582c-0.022-0.012-0.039,0.021-0.018,0.036
			c0.485,0.306,0.811,0.735,1.188,1.153c0.336,0.372,0.723,0.697,1.043,1.084c0.85,1.03,0.915,2.079,1.251,3.294
			c-0.058-0.06-0.118-0.117-0.18-0.167c-0.697-0.57-0.907-1.229-1.361-1.961c-0.457-0.736-1.412-1.897-2.342-1.99
			c-0.008-0.001-0.011,0.012-0.001,0.013c0.641,0.097,1.186,0.775,1.604,1.219c0.446,0.473,0.727,1.072,1.004,1.652
			c0.215,0.445,0.451,0.747,0.836,1.058c0.378,0.305,0.582,0.681,0.817,1.054c0.268,0.459,0.597,0.882,0.833,1.374
			c0.116,0.241,0.246,0.505,0.406,0.74c-0.015-0.006-0.03-0.012-0.044-0.018c-0.89-0.42-1.694-0.977-2.436-1.623
			c-1.706-1.478-3.059-3.318-4.602-4.958c-0.011-0.011-0.031,0.004-0.02,0.016c2.196,2.563,4.24,5.782,7.513,7.035
			c0.142,0.11,0.303,0.195,0.49,0.236c0.038,0.008,0.056-0.021,0.052-0.051c0.067,0.021,0.136,0.042,0.204,0.061
			c0.817,0.225,1.514,0.505,2.182,0.965c-0.705-0.147-1.468-0.123-2.16-0.095c-0.121,0.004-0.241,0.021-0.36,0.042
			c-1.252-0.633-2.251-1.347-3.118-2.521c-0.021-0.027-0.062,0.003-0.043,0.032c0.701,0.973,1.576,1.871,2.676,2.386
			c0.101,0.047,0.204,0.093,0.308,0.141c-0.53,0.121-1.055,0.33-1.599,0.252c-0.91-0.127-1.53-0.721-2.077-1.414
			c-0.005-0.007-0.015,0.002-0.01,0.008c0.683,0.95,1.555,1.713,2.801,1.523c0.17-0.025,0.336-0.049,0.502-0.073
			c0.762,0.308,1.182,1.787,1.368,2.435c0.191,0.668,0.186,1.401,0.398,2.053c0.159,0.491,0.465,0.868,0.78,1.272
			c0.023,0.03,0.047,0.061,0.071,0.091c-0.149-0.031-0.299-0.058-0.424-0.119c-0.305-0.152-0.553-0.332-0.827-0.525
			c-0.728-0.516-1.359-1.277-2.272-1.465c-0.363-0.073-0.727-0.109-1.096-0.112c-0.22-0.243-0.454-0.472-0.71-0.679
			c-0.694-0.559-1.494-0.939-2.249-1.391c-0.125-0.12-0.249-0.243-0.34-0.413c-0.186-0.343-0.453-0.648-0.615-1.004
			c-0.396-0.875-0.247-1.883-0.394-2.816c-0.155-0.981-0.53-2.491-1.345-3.147c-0.006-0.005-0.016,0.004-0.009,0.009
			c0.559,0.514,0.72,1.353,0.921,2.056c0.26,0.911,0.355,1.771,0.38,2.714c0.022,0.85,0.368,1.639,0.898,2.282
			c-0.13-0.09-0.258-0.182-0.381-0.28c-0.213-0.171-0.411-0.351-0.594-0.542c-0.217-0.326-0.458-0.626-0.693-0.932
			c-0.118-0.211-0.217-0.435-0.294-0.673c-0.138-0.425-0.239-0.857-0.338-1.289c0.032-0.214-0.031-0.426-0.147-0.625
			c-0.019-0.078-0.038-0.153-0.058-0.229c-0.383-1.447-1.115-2.886-1.913-4.145c-0.024-0.036-0.084-0.005-0.062,0.032
			c0.749,1.232,1.362,2.578,1.751,3.973c-0.179-0.191-0.386-0.354-0.56-0.47c-0.794-0.531-1.84-0.467-2.749-0.613
			c-0.026-0.004-0.028,0.035-0.004,0.039c0.758,0.15,1.594,0.154,2.31,0.465c0.314,0.137,0.763,0.424,1.059,0.775
			c0.062,0.227,0.116,0.457,0.163,0.687c0.096,0.467,0.201,0.925,0.344,1.365c-0.013-0.021-0.027-0.041-0.039-0.062
			c-0.208-0.347-0.48-0.778-0.881-0.927c-1.293-0.48-2.956-0.087-4.121-0.853c-0.021-0.013-0.042,0.019-0.021,0.033
			c0.948,0.681,2.321,0.542,3.416,0.797c1.004,0.233,1.238,0.827,1.766,1.593c0.09,0.131,0.186,0.256,0.284,0.379
			c0.221,0.41,0.502,0.788,0.876,1.123c0.949,0.848,2.133,1.306,3.123,2.092c0.265,0.21,0.502,0.444,0.723,0.688
			c-0.615,0.015-0.962-0.283-1.524-0.416c-0.486-0.114-0.996-0.071-1.484,0.025c-0.612,0.119-0.997,0.458-1.676,0.404
			c-0.025-0.002-0.032,0.036-0.006,0.038c1.006,0.106,1.907-0.675,2.939-0.406c0.394,0.103,0.738,0.382,1.133,0.46
			c0.25,0.049,0.486,0.035,0.733,0.026c0.613,0.707,1.115,1.498,1.804,2.154c1.003,0.955,2.245,1.701,3.108,2.795
			c0.851,1.078,1.161,2.529,2.13,3.512c0.084,0.086,0.167,0.171,0.25,0.257c-0.013,0.004-0.025,0.007-0.038,0.011
			c-0.203,0.077-0.384,0.15-0.531,0.316c-0.352,0.4-0.7,0.174-1.076,0.081c-0.141-0.035-0.285-0.042-0.42-0.013
			c-0.229-0.244-0.203-0.621-0.293-0.918c-0.058-0.191-0.226-0.372-0.324-0.545c-0.292-0.519-0.335-1.121-0.605-1.651
			c-0.486-0.954-1.199-1.729-2.181-2.18c-0.039-0.018-0.062,0.043-0.023,0.062c0.766,0.381,1.432,0.995,1.838,1.754
			c0.301,0.563,0.352,1.193,0.617,1.753c0.248,0.523,0.514,0.923,0.615,1.51c0.024,0.134,0.078,0.224,0.159,0.292
			c-0.065,0.039-0.126,0.089-0.179,0.155c-0.205,0.252-0.29,0.532-0.457,0.807c-0.302,0.5-0.885,0.439-1.275,0.101
			c-0.546-0.47-1.092-0.92-1.512-1.514c-0.39-0.554-0.714-1.155-1.116-1.699c-0.604-0.816-1.328-1.294-2.321-1.51
			c-0.015-0.003-0.02,0.022-0.005,0.026c1.633,0.406,2.221,1.587,3.059,2.907c0.555,0.875,1.327,1.721,2.222,2.263
			c1.148,0.693,1.241-1.788,2.124-1.391c0.128,0.056,0.253,0.12,0.379,0.168c-0.141,0.09-0.263,0.226-0.362,0.409
			c-0.235,0.439-0.49,1.047,0.005,1.386c0.838,0.576,0.274,1.267,0.137,1.948c-0.053,0.261,0.055,0.555,0.144,0.792
			c0.223,0.592,0.781,0.912,1.374,1.004c0.011,0.001,0.014-0.014,0.002-0.016c-0.987-0.108-1.743-1.173-1.332-2.134
			c0.116-0.268,0.348-0.649,0.314-0.959c-0.061-0.557-0.882-0.879-0.589-1.544c0.269-0.609,0.475-0.653,1.063-0.805
			c0.078-0.021,0.096-0.136,0.024-0.17c0.062-0.066,0.116-0.144,0.181-0.198c0.232-0.196,0.483-0.19,0.737-0.122
			c0.857,0.918,1.577,1.857,1.991,3.12c0.262,0.8,0.42,1.622,0.629,2.427c-0.064,2.095,0.004,4.193,0.264,6.29
			c-0.129-0.215-0.26-0.427-0.398-0.635c-1.101-1.665-2.851-2.318-4.666-2.977c-1.077-0.391-2.048-0.479-3.185-0.414
			c-1.275,0.072-2.536-0.28-3.767-0.568c-0.163-0.039-0.326-0.075-0.488-0.112c-0.9-0.674-1.759-1.447-2.348-2.405
			c-0.5-0.813-0.581-1.796-1.068-2.589c-0.001-0.006,0-0.01-0.002-0.014c-0.317-0.563-0.895-1.12-1.566-1.506
			c-0.615-0.483-1.247-0.94-1.83-1.467c-0.486-0.439-0.925-0.923-1.352-1.418c0.003-0.188,0.001-0.378-0.014-0.568
			c-0.054-0.691-0.43-1.301-0.842-1.833c-0.472-0.608-1.216-0.933-1.605-1.602c-0.004-0.007-0.016-0.001-0.011,0.006
			c0.396,0.741,1.205,1.139,1.683,1.836c0.459,0.668,0.596,1.289,0.628,1.971c-0.402-0.472-0.798-0.95-1.217-1.407
			c-0.012-0.011-0.033,0.003-0.021,0.016c0.431,0.498,0.831,1.028,1.244,1.546c0.007,0.285,0,0.582-0.009,0.898
			c-0.019,0.78,0.097,1.241,0.391,1.841c-0.069,0.04-0.137,0.08-0.205,0.123c-0.014-0.027-0.029-0.055-0.043-0.083
			c-0.302-0.633-0.721-1.197-1.407-1.44c-1.056-0.374-2.158-0.538-3.189-1c-0.007-0.003-0.014,0.007-0.005,0.011
			c1.047,0.523,2.276,0.654,3.294,1.203c0.585,0.315,0.924,0.837,1.213,1.403c-0.18,0.126-0.354,0.262-0.532,0.396
			c-0.434-0.293-0.85-0.61-1.3-0.88c-1.136-0.68-2.316-0.756-3.598-0.595c-0.01,0.001-0.007,0.017,0.003,0.015
			c1.334-0.171,2.618,0.095,3.763,0.804c0.361,0.225,0.698,0.479,1.044,0.723c-0.143,0.104-0.287,0.209-0.438,0.305
			c-0.782,0.494-1.553,0.996-2.403,1.341c-0.3-0.086-0.598-0.178-0.892-0.285c-0.649-0.238-1.296-0.468-1.997-0.445
			c-0.017,0-0.021,0.026-0.002,0.026c0.847,0.015,1.588,0.398,2.354,0.705c0.092,0.035,0.183,0.069,0.276,0.102
			c-0.141,0.049-0.283,0.095-0.43,0.136c-0.022,0.006-0.013,0.043,0.009,0.039c0.175-0.041,0.346-0.089,0.515-0.145
			c0.728,0.246,1.49,0.389,2.222,0.622c0.526,0.167,1.056,0.006,1.336,0.687c0.126,0.307,0.24,0.605,0.418,0.889
			c0.013,0.02,0.026,0.041,0.038,0.06c-0.168-0.151-0.334-0.29-0.499-0.39c-1.629-0.985-2.715,1.044-3.984,1.689
			c-0.007,0.003-0.002,0.015,0.005,0.011c0.708-0.308,1.22-0.848,1.847-1.281c0.625-0.436,1.283-0.697,2.005-0.234
			c0.355,0.229,0.67,0.488,0.957,0.799c0.369,0.4,0.713,0.716,1.279,0.738c0.313,0.012,0.537-0.21,0.833-0.252
			c0.475-0.07,0.89,0.143,1.348,0.194c0.24,0.113,0.481,0.227,0.728,0.332c1.067,0.45,2.156,0.68,3.269,0.979
			c1.131,0.305,2.275,0.693,3.445,0.811c1.133,0.114,2.224-0.08,3.317,0.349c0.974,0.38,2.021,0.811,2.92,1.343
			c0.743,0.439,1.262,1.082,1.718,1.802c0.673,1.065,1.16,2.181,1.663,3.334c0.105,0.24,0.207,0.485,0.308,0.731
			c-0.007,0.462-0.019,0.924-0.02,1.387c0,0.137,0.004,0.274,0.005,0.413c-1.15-1.164-2.541-2.229-3.972-2.901
			c-1.353-0.636-2.728-0.918-4.12-0.791c-0.745-0.15-1.542-0.178-2.247-0.375c-0.938-0.264-1.407-0.809-1.898-1.448
			c-0.067-0.208-0.128-0.413-0.243-0.587c-0.28-0.424-0.435-0.831-0.545-1.325c-0.154-0.689-0.362-1.243-0.95-1.667
			c-0.007-0.003-0.016,0.005-0.009,0.01c0.862,0.697,0.662,1.627,1.053,2.534c0.052,0.122,0.107,0.241,0.164,0.36
			c-0.019-0.024-0.037-0.046-0.057-0.067c-0.652-0.771-1.822-2.53-3.006-2.354c-0.043,0.007-0.037,0.072,0.007,0.067
			c0.868-0.091,1.702,1.028,2.181,1.614c0.137,0.167,0.264,0.337,0.388,0.509c-0.672-0.4-1.403-0.555-2.218-0.558
			c-0.486,0-1.096,0.001-1.492-0.338c-0.224-0.19-0.437-0.393-0.663-0.58c-0.397-0.325-0.791-0.564-1.274-0.737
			c-0.008-0.002-0.014,0.008-0.006,0.013c0.615,0.233,1.091,0.599,1.568,1.042c0.342,0.319,0.679,0.583,1.16,0.64
			c0.591,0.073,1.206,0.007,1.786,0.16c0.465,0.125,0.866,0.333,1.279,0.553c0.228,0.325,0.447,0.653,0.679,0.981
			c-0.329-0.169-0.689-0.272-1.046-0.255c-0.582,0.026-1.23,0.001-1.801,0.109c-0.493,0.093-0.895,0.341-1.363,0.496
			c-1.214,0.403-1.809-1.211-2.847-1.593c-0.804-0.295-1.622-0.7-2.492-0.466c-0.024,0.007-0.019,0.045,0.006,0.039
			c1.111-0.236,2.709,0.528,3.474,1.31c0.5,0.511,0.645,1.016,1.441,1.001c0.32-0.004,0.644-0.176,0.929-0.301
			c0.578-0.251,1.047-0.255,1.664-0.308c0.58-0.049,1.215-0.174,1.762,0.082c0.24,0.112,0.453,0.251,0.669,0.388
			c0.442,0.491,0.974,0.851,1.644,1.037c0.345,0.098,0.692,0.171,1.042,0.241c-0.25,0.068-0.5,0.147-0.752,0.245
			c-1.025,0.387-2.051,0.786-3.091,1.128c-0.019-0.036-0.064-0.058-0.102-0.032c-0.409,0.288-0.942,0.053-1.391-0.026
			c-0.458-0.083-0.906,0.12-1.373-0.03c-0.573-0.185-1.234-0.482-1.831-0.173c-0.361,0.187-0.422,0.335-0.618,0.66
			c-0.088,0.145-0.226,0.237-0.378,0.311c-0.099-0.019-0.199-0.041-0.303-0.067c-0.44-0.106-0.925-0.131-1.352-0.285
			c-0.75-0.271-0.918-0.993-1.303-1.603c-0.208-0.329-0.521-0.656-0.814-0.912c-0.576-0.504-1.158-0.814-1.936-0.82
			c-0.043-0.002-0.043,0.061-0.002,0.066c1.496,0.151,2.321,1.365,2.997,2.551c0.102,0.177,0.209,0.319,0.323,0.436
			c-0.158-0.031-0.324-0.05-0.503-0.059c-0.564-0.032-0.943,0.357-1.515,0.348c-0.57-0.01-1.087-0.065-1.648-0.157
			c-0.33-0.055-0.624-0.096-0.94,0.017c-0.016,0.007-0.005,0.029,0.011,0.024c0.52-0.162,1.014,0.073,1.518,0.159
			c0.415,0.072,0.857,0.082,1.278,0.068c0.191-0.008,0.469-0.045,0.632-0.17c0.374-0.288,0.898-0.229,1.35-0.065
			c0.43,0.33,0.951,0.386,1.61,0.55c0.088,0.023,0.176,0.046,0.267,0.07c-0.138,0.064-0.27,0.137-0.368,0.247
			c-0.528,0.583-0.766,1.276-0.868,2.05c-0.002,0.018,0.022,0.023,0.025,0.007c0.092-0.502,0.224-1.027,0.518-1.454
			c0.278-0.405,0.605-0.58,0.987-0.772c0.296,0.075,0.598,0.138,0.895,0.134c0.357-0.005,0.695-0.067,1.035-0.144
			c2.072-0.018,4.121-0.518,6.097-1.114c1.102-0.334,2.237-0.737,3.406-0.661c0.096,0.006,0.193,0.018,0.287,0.028
			c0.092,0.024,0.183,0.048,0.276,0.068c0.041,0.008,0.077,0,0.11-0.017c0.844,0.139,1.646,0.427,2.403,0.859
			c1.573,0.896,3.269,1.952,4.461,3.362c0.094,1.748,0.285,3.49,0.336,5.24c0.069,2.361-0.223,4.725,0.063,7.076
			c0.098,0.806,0.247,1.548,0.482,2.288c-0.008,0.061-0.017,0.123-0.023,0.185c-0.039,0.373-0.068,0.747-0.094,1.121
			c-0.413-0.701-0.93-1.327-1.659-1.836c-1.538-1.073-3.299-1.542-5.03-2.198c-1.748-0.664-3.31-1.659-4.907-2.612
			c-1.608-0.96-3.311-1.788-5.114-2.308c-1.625-0.469-3.316-0.575-5-0.547c-0.165,0.004-0.336,0.009-0.511,0.009
			c-0.504-0.285-0.994-0.588-1.321-1.086c-0.4-0.612-0.601-1.352-0.875-2.024c-0.216-0.525-0.594-1.652-1.243-1.767
			c-0.018-0.003-0.022,0.022-0.005,0.027c0.572,0.116,0.935,1.159,1.11,1.627c0.193,0.518,0.354,1.052,0.571,1.563
			c0.298,0.7,0.778,1.255,1.386,1.658c-0.528-0.017-1.061-0.089-1.508-0.344c-0.725-0.41-1.23-1.156-1.845-1.711
			c-1.02-0.919-2.142-1.501-3.499-1.739c-0.08-0.014-0.092,0.103-0.017,0.12c0.106,0.028,0.208,0.06,0.312,0.091
			c-0.153-0.018-0.305-0.047-0.433-0.141c-0.25-0.184,0.072-0.721,0.128-0.935c0.035-0.133-0.063-0.32-0.118-0.431
			c-0.067-0.139-0.126-0.278-0.18-0.418c0.003,0.002,0.005,0.005,0.007,0.008c0.028,0.04,0.089,0.006,0.081-0.038
			c-0.164-0.802-0.18-1.445,0.196-2.192c0.23-0.453,0.363-0.961,0.371-1.473c0.022-1.271-0.395-2.475-0.6-3.717
			c-0.003-0.015-0.028-0.011-0.025,0.006c0.217,1.643,0.952,3.503,0.094,5.076c-0.213,0.388-0.381,0.899-0.388,1.388
			c-0.122-0.595-0.183-1.205-0.277-1.815c-0.14-0.928-0.329-1.841-0.537-2.756c-0.002-0.011-0.017-0.006-0.014,0.004
			c0.252,1.088,0.383,2.221,0.503,3.331c0.091,0.827,0.14,1.694,0.504,2.457c0.213,0.449-0.117,0.797-0.129,1.184
			c-0.005,0.154-0.011,0.27,0.137,0.382c0.406,0.306,0.937,0.27,1.384,0.527c0.029,0.018,0.067-0.012,0.057-0.045
			c-0.019-0.057-0.041-0.102-0.068-0.143c0.135,0.061,0.271,0.123,0.401,0.192c-0.644-0.007-1.328,0.252-1.927-0.084
			c-0.518-0.29-0.917-0.744-1.231-1.262c0.012-0.013,0.017-0.032,0.006-0.049c-0.314-0.48-0.366-0.86-0.431-1.422
			c-0.072-0.63-0.225-1.21-0.038-1.838c0.272-0.909,0.196-1.749,0.029-2.672c-0.003-0.018-0.028-0.01-0.025,0.005
			c0.115,0.81,0.212,1.635-0.057,2.424c-0.123,0.358-0.264,0.745-0.215,1.131c0.028,0.227,0.038,0.478,0.051,0.73
			c-0.038-0.065-0.077-0.133-0.12-0.197c-0.457-1.262-1.279-2.252-2.015-3.366c-0.5-0.756-1.066-1.504-1.892-1.88
			c-0.044-0.214-0.087-0.429-0.138-0.643c-0.005-0.017-0.03-0.011-0.027,0.005c0.044,0.2,0.078,0.406,0.112,0.615
			c-0.098-0.043-0.198-0.08-0.303-0.112c-0.008-0.002-0.011,0.011-0.005,0.012c0.108,0.041,0.212,0.087,0.313,0.141
			c0.077,0.468,0.157,0.939,0.354,1.361c0.272,0.579,0.663,1.158,1.094,1.63c0.484,0.529,1.076,0.931,1.584,1.435
			c0.304,0.301,0.548,0.613,0.772,0.946c0.001,0.001,0.001,0.001,0.001,0.003c0.134,0.426,0.284,0.85,0.479,1.252
			c0.352,0.724,0.838,1.586,1.608,1.94c0.393,0.182,0.761,0.234,1.19,0.168c0.542-0.085,0.997-0.033,1.46,0.112
			c0.694,0.479,1.3,1.085,1.874,1.79c0.44,0.542,0.875,0.946,1.377,1.223c-0.018,0.012-0.038,0.021-0.054,0.034
			c-0.42,0.282-0.77,0.289-1.266,0.101c-1.384-0.526-2.787-0.623-4.238-0.864c-0.43-0.072-0.811-0.182-1.157-0.346
			c-0.268-0.221-0.508-0.467-0.631-0.804c-0.079-0.218-0.243-0.425-0.38-0.609c-0.311-0.423-0.552-0.819-0.615-1.354
			c-0.022-0.176-0.033-0.361-0.079-0.531c-0.294-1.085-1.605-1.633-2.498-2.154c-0.013-0.007-0.027,0.015-0.014,0.022
			c0.659,0.427,1.596,0.894,2.06,1.543c0.405,0.567,0.229,1.188,0.508,1.774c0.273,0.577,0.69,1.029,0.914,1.623
			c-0.163-0.144-0.319-0.307-0.467-0.495c-0.404-0.507-0.784-0.886-1.357-1.203c-1.171-0.646-2.458-1.07-3.804-0.854
			c-0.017,0.002-0.013,0.027,0.003,0.025c0.986-0.095,1.901,0.146,2.79,0.563c0.667,0.311,1.422,0.647,1.889,1.242
			c0.292,0.372,0.577,0.703,0.895,0.979c-0.27-0.073-0.542-0.12-0.799-0.104c-0.827,0.048-1.408,0.054-2.125-0.428
			c-0.891-0.597-2.062-1.219-3.163-1.194C15.916,54.766,15.914,54.777,15.923,54.777z M21.26,50.625
			c-0.396-0.442-0.871-0.828-1.294-1.145c-0.648-0.483-1.131-1.106-1.574-1.773c-0.351-0.531-0.488-1.131-0.613-1.737
			c1.143,0.629,1.87,2.07,2.576,3.102C20.694,49.566,21.012,50.08,21.26,50.625z M38.801,47.933
			c-0.031,0.008-0.062,0.019-0.092,0.027c-0.954,0.105-1.89,0.182-2.836,0.403c-0.559,0.133-1.053,0.137-1.574,0.06
			c0.298-0.177,0.272-0.604,0.609-0.774c0.524-0.265,1.068-0.205,1.588,0.028c0.676,0.303,1.464,0.1,2.176,0.231
			C38.713,47.917,38.757,47.924,38.801,47.933z M30.845,33.039c0.105,0.071,0.209,0.143,0.316,0.209
			c0.276,0.173,0.564,0.29,0.809,0.47c0.021,0.039,0.043,0.08,0.067,0.118c0.338,0.546,0.896,1.128,1.04,1.762
			c0.099,0.436,0.115,1.031,0.388,1.411c0.069,0.097,0.146,0.188,0.228,0.275c-0.277-0.078-0.558-0.152-0.84-0.219
			c-0.009-0.002-0.013,0.012-0.004,0.014c0.36,0.114,0.708,0.255,1.049,0.407c0.114,0.103,0.233,0.196,0.36,0.278
			c-0.173,0.024-0.352,0.075-0.537,0.154c-0.384,0.166-0.741,0.057-1.078-0.159c0.005-0.021,0.001-0.047-0.018-0.062
			c-0.414-0.339-0.703-0.704-0.948-1.182c-0.124-0.244-0.177-0.534-0.339-0.756c-0.383-0.525-1.005-0.482-1.585-0.651
			c-0.576-0.167-1.161-0.305-1.739-0.464C29.034,34.269,29.963,33.678,30.845,33.039z M31.856,33.517
			c-0.129-0.08-0.268-0.153-0.409-0.232c-0.176-0.097-0.345-0.2-0.512-0.31c0.106-0.078,0.213-0.156,0.319-0.236
			c0.054-0.04,0.108-0.075,0.163-0.111C31.564,32.923,31.702,33.227,31.856,33.517z M31.769,32.427
			c0.031,0.062,0.063,0.124,0.099,0.187c0.159,0.296,0.203,0.606,0.276,0.899c-0.207-0.318-0.407-0.64-0.583-0.976
			C31.629,32.498,31.699,32.461,31.769,32.427z M34.12,32.203c-0.611-0.249-1.259-0.341-1.838-0.173
			c-0.176,0.053-0.336,0.125-0.492,0.205c-0.104-0.15-0.205-0.306-0.254-0.505c-0.164-0.66-0.09-1.327-0.067-1.994
			c0.34,0.421,0.692,0.831,1.082,1.204C33.027,31.394,33.577,31.793,34.12,32.203z M39.064,38.849
			c-0.961-0.221-1.91-0.449-2.859-0.766c-0.681-0.228-1.356-0.455-2.039-0.661c-0.096-0.075-0.188-0.155-0.268-0.248
			c-0.507-0.575-0.386-1.236-0.688-1.88c-0.164-0.354-0.365-0.692-0.576-1.024c0.008-0.016,0.008-0.036-0.007-0.052
			c-0.388-0.435-0.323-0.971-0.524-1.474c-0.055-0.138-0.133-0.255-0.214-0.369c1.096-0.469,2.221-0.125,3.163,0.577
			c0.312,0.273,0.603,0.565,0.852,0.894c0.458,0.602,0.523,1.263,0.767,1.952c0.202,0.574,0.523,1.092,0.922,1.555
			C38.061,37.895,38.533,38.404,39.064,38.849z M46.852,25.14c0.414,0.54,0.82,1.116,1.042,1.75
			c0.273,0.778,0.335,1.625,0.479,2.432c0.049,0.271,0.116,0.525,0.201,0.765c-0.527-0.842-0.909-1.763-1.558-2.551
			c-0.852-1.036-1.979-1.733-2.978-2.608c-0.732-0.641-1.277-1.45-1.914-2.173c0.528,0.009,1.099,0.068,1.55,0.337
			c0.459,0.275,0.836,0.634,1.255,0.961c0.306,0.239,0.631,0.521,0.98,0.694C46.178,24.88,46.583,24.947,46.852,25.14z
			 M50.29,21.905c-0.084-0.157-0.188-0.302-0.322-0.419c-0.736-0.644-1.645-0.506-2.535-0.717c-0.807-0.192-1.054-0.76-1.589-1.31
			c-0.235-0.24-0.534-0.43-0.836-0.586c0.909-0.066,1.777-0.019,2.663,0.288c0.298,0.252,0.592,0.511,0.898,0.753
			c0.34,0.269,0.757,0.499,1.04,0.828C49.91,21.092,50.12,21.489,50.29,21.905z M52.168,33.153c-0.076,0.727-0.14,1.457-0.189,2.185
			c-0.085-0.276-0.175-0.551-0.278-0.817c-0.489-1.274-1.186-2.271-2.137-3.218c-0.309-0.409-0.646-0.805-0.784-1.297
			c-0.245-0.874-0.294-1.793-0.502-2.674c-0.166-0.698-0.509-1.323-0.924-1.905c-0.076-0.106-0.161-0.216-0.251-0.324
			c-0.025-0.056-0.064-0.105-0.12-0.144c-0.37-0.441-0.781-0.904-0.947-1.408c-0.233-0.713-0.235-1.491-0.459-2.218
			c-0.122-0.4-0.305-0.792-0.511-1.157c-0.215-0.384-0.529-0.996-0.985-1.204c0.249-0.033,0.491-0.061,0.732-0.083
			c0.289,0.145,0.565,0.31,0.798,0.525c0.408,0.375,0.634,0.895,1.075,1.225c0.786,0.587,1.947,0.229,2.784,0.704
			c0.701,0.398,0.785,1.026,1.07,1.706c0.137,0.33,0.283,0.663,0.449,0.986c0.032,0.121,0.06,0.242,0.088,0.363
			c0.037,0.239,0.09,0.476,0.149,0.71c0.009,0.036,0.015,0.073,0.022,0.107c0.015,0.247,0.056,0.485,0.135,0.706
			c0.018,0.1,0.037,0.199,0.057,0.299c0.016,0.081,0.078,0.114,0.139,0.112c0.162,0.566,0.296,1.135,0.295,1.732
			c-0.004,1.572,0.257,3.103,0.291,4.67C52.168,32.872,52.168,33.011,52.168,33.153z M66.158,31.502
			c0.027-0.027,0.054-0.052,0.077-0.08c0.086-0.047,0.175-0.083,0.265-0.109C66.386,31.375,66.272,31.438,66.158,31.502z"/>
		<path fill="#373A28" d="M53.436,99.486c0.045-0.207,0.089-0.415,0.131-0.622c0.244-1.217,0.334-2.505,0.433-3.739
			c0.174-2.193-0.037-4.622-0.104-7.018c-0.068-2.495-0.145-4.991-0.223-7.486c-0.039-1.248-0.009-2.492,0.021-3.737
			c0.031-0.338,0.049-0.682,0.05-1.028c0.255-2.238,0.118-4.467-0.101-6.691c0.232-3.46,0.358-6.925,0.422-10.392
			c0.027-1.417,0.056-2.835,0.064-4.255c0.099,1.086,0.215,2.168,0.346,3.248c0.699,5.753,1.521,11.493,2.344,17.23
			c0.679,4.733,1.39,9.47,2.18,14.191c0.088,1.934,0.186,3.867,0.339,5.799c0.099,1.258,0.11,2.515,0.167,3.772
			c0.006,0.139,0.006,0.277,0.004,0.413C57.482,99.271,55.458,99.38,53.436,99.486z"/>
		<path fill="#4B4B3C" d="M57.648,99.266c-0.088-2.961-0.5-5.902-0.868-8.841c-0.476-3.803-0.634-7.624-0.958-11.439
			c-0.148-1.741-0.297-3.482-0.424-5.225c0.162,0.674,0.318,1.349,0.463,2.025c1.004,4.694,2.08,9.45,2.429,14.247
			c0.205,2.837,0.734,5.633,0.799,8.482c0.004,0.227,0.008,0.452,0.008,0.677C58.614,99.216,58.131,99.241,57.648,99.266z"/>
	</g>
</g>
</svg>
