 

<svg xmlns:agg="http://www.example.com" xmlns="http://www.w3.org/2000/svg" preserveAspectRatio="none" width="0.5144in" height="1.0750in" viewBox="0 0 478 999">

<path style="fill:#00f" d="M239,27 l-6,32 -6,31 -6,28 -6,28 -7,25 -13,46 -14,41 -13,37 -14,34 -14,31 -14,28 -13,28 -13,26 -13,28 -11,28 -12,30 -9,33 -9,37 -7,30 -8,37 -3,26 -1,13 0,14 1,28 3,28 5,30 7,29 15,29 18,26 20,24 22,20 26,16 28,13 31,7 17,2 19,1 17,-1 32,-5 28,-10 25,-14 22,-19 20,-22 21,-25 21,-28 11,-14 9,-35 3,-25 2,-13 0,-14 0,-14 0,-27 -4,-29 -4,-30 -6,-30 -8,-38 -10,-34 -10,-31 -11,-30 -13,-27 -12,-27 -14,-27 -14,-29 -13,-29 -14,-32 -14,-35 -14,-39 -14,-43 -6,-24 -6,-25 -7,-28 -6,-28 -6,-31 -5,-32z" />
<path style="fill:#69f" d="M232,85 l-5,30 -6,27 -6,27 -5,24 -12,46 -12,40 -13,36 -12,32 -14,29 -12,27 -13,26 -12,25 -12,25 -10,25 -11,27 -10,29 -8,31 -7,35 -9,33 -4,35 -1,12 0,13 2,39 4,26 5,28 10,26 15,26 17,22 20,21 22,17 25,13 27,9 30,5 17,0 16,0 29,-5 26,-9 22,-13 21,-17 19,-21 18,-22 19,-26 14,-23 7,-34 3,-36 0,-12 0,-13 -3,-40 -4,-27 -7,-27 -7,-35 -8,-32 -10,-29 -10,-26 -12,-25 -12,-26 -12,-24 -12,-26 -13,-27 -13,-29 -13,-32 -12,-36 -13,-40 -11,-46 -6,-24 -6,-27 -5,-27 -5,-30z" />
<path style="fill:#0cf" d="M235,86 l-5,28 -5,27 -5,25 -12,45 -11,41 -12,36 -12,33 -12,28 -12,28 -13,25 -11,24 -12,23 -11,24 -10,24 -9,27 -9,29 -8,32 -6,27 -7,31 -3,23 0,12 0,12 2,37 5,38 7,26 13,25 16,23 17,21 20,18 22,14 24,11 28,7 15,1 16,1 16,-1 27,-4 25,-9 21,-13 20,-16 18,-19 18,-22 18,-25 13,-22 6,-32 2,-22 1,-12 0,-12 -2,-37 -3,-26 -4,-25 -7,-31 -8,-32 -8,-28 -10,-27 -10,-24 -11,-24 -11,-24 -12,-24 -13,-24 -12,-28 -12,-28 -12,-33 -12,-36 -12,-41 -11,-45 -5,-25 -5,-27 -5,-28z" />
<path style="fill:#0ff" d="M225,178 l-8,46 -9,40 -10,36 -9,32 -10,28 -11,26 -10,23 -15,32 -14,30 -14,30 -13,32 -11,35 -7,26 -7,32 -4,27 -1,10 -1,9 0,10 2,31 5,32 10,33 19,29 22,25 27,19 32,12 24,4 13,1 14,-1 33,-7 28,-14 24,-22 22,-26 15,-20 9,-11 6,-26 3,-28 1,-10 0,-10 0,-10 -3,-31 -5,-33 -6,-25 -6,-27 -7,-24 -12,-32 -14,-30 -14,-30 -15,-30 -10,-23 -10,-25 -11,-27 -9,-30 -10,-33 -10,-39 -8,-43 -5,-23z" />
<path style="fill:#9ff" d="M188,419 l-5,27 -10,43 -12,35 -12,28 -11,24 -11,23 -10,23 -8,28 -6,26 -2,10 -1,11 0,11 3,36 9,24 16,21 20,16 25,8 15,1 14,-1 23,-8 28,-26 17,-23 6,-31 0,-11 0,-11 -6,-37 -7,-31 -9,-25 -11,-23 -11,-23 -12,-26 -12,-31 -10,-39 -5,-22 -5,-27z" />

</svg>
