 

<svg xmlns:agg="http://www.example.com" xmlns="http://www.w3.org/2000/svg" preserveAspectRatio="none" width="0.7565in" height="1.0750in" viewBox="0 0 703 999">

<path style="fill:#008000;fill-rule:evenodd" d="M464,311 l-3,4 -3,4 -3,3 -3,4 -3,4 -2,4 -2,4 -2,6 5,-2 4,-3 4,-3 5,-3 4,-4 5,-3 5,-4 4,-4 5,-3 5,-4 5,-2 5,-3 6,-1 6,-1 6,0 6,2 -4,-2 -4,-1 -4,-1 -5,-1 -4,-1 -4,-1 -5,-1 -4,0 -4,0 -4,0 -3,1 -4,1 -3,2 -2,2 -3,3 -2,4z M310,386 l-2,-1 -2,0 -3,-1 -2,-1 -3,-2 -2,-1 -3,-2 -3,-1 -2,-2 -3,-1 -3,-1 -3,-1 -2,-1 -3,0 -2,0 -3,1 4,1 4,2 4,3 4,3 5,4 3,3 3,3 2,2 -3,0 -4,0 -3,1 -4,1 -3,0 -4,1 -3,1 -3,1 -3,1 -4,2 -3,1 -3,1 -4,1 -3,1 -3,1 -3,1 4,1 5,0 5,0 5,1 6,-1 5,0 6,0 6,-1 5,-1 6,-2 5,-1 4,-2 5,-2 4,-3 4,-2 3,-3 -13,-5z M281,347 l0,1 0,0 -1,-1 -2,-3 -2,-3 -2,-4 -3,-4 -4,-5 -3,-6 -4,-7 -5,-7 -4,-7 -5,-8 -4,-7 -5,-8 -5,-9 -5,-8 -5,-8 -5,-9 -5,-8 -4,-8 -5,-8 -4,-7 -4,-8 -3,-6 -4,-7 -3,-5 -2,-6 -2,-4 -1,-4 -1,-3 -1,-2 16,0 -1,-3 -1,-4 -2,-3 -2,-4 -3,-3 -3,-4 -4,-3 -3,-4 -4,-4 -4,-3 -4,-3 -4,-4 -4,-3 -3,-3 -4,-2 -2,-3 11,-4 10,-2 11,0 10,2 10,3 9,5 10,5 9,7 8,7 8,8 8,9 8,9 7,8 6,9 6,8 6,8 -3,-10 -2,-9 -2,-10 -1,-9 -1,-9 -1,-9 -1,-9 0,-9 -1,-8 1,-8 0,-7 0,-7 1,-7 0,-6 1,-5 1,-5 1,-5 1,-4 1,-3 1,-2 1,-2 1,-1 2,0 1,1 1,1 1,3 0,3 1,5 1,5 0,7 1,7 0,9 0,-7 0,-7 2,-6 1,-6 2,-6 2,-5 3,-5 3,-5 3,-4 4,-3 5,-4 4,-2 6,-2 5,-2 6,-1 7,0 0,56 3,-1 2,-2 3,-2 2,-2 2,-3 3,-2 2,-4 1,-3 2,-3 2,-3 2,-4 2,-3 2,-4 2,-3 2,-3 2,-2 3,0 3,1 3,1 4,1 3,1 3,2 2,1 2,2 5,-1 4,-2 4,-1 4,-3 4,-2 3,-2 4,-2 4,-2 3,-2 4,-2 4,-1 5,-1 4,-1 5,0 6,0 6,1 -1,5 -1,5 -1,5 -2,5 -2,6 -3,6 -2,5 -3,6 -3,6 -2,5 -3,6 -2,6 -2,5 -2,5 -1,5 -1,5 -2,9 -2,9 -2,9 -3,10 -2,9 -3,10 -3,9 -3,10 -3,10 -3,9 -3,9 -3,9 -3,9 -2,9 -3,8 -2,8 -3,7 -2,6 -1,6 -2,6 -1,5 -1,4 -1,3 0,3 0,1 1,1 1,0 2,-2 2,-2 2,-4 3,-4 4,-6 6,-11 6,-10 5,-9 5,-9 5,-9 5,-9 4,-8 4,-8 4,-7 4,-7 3,-7 4,-6 3,-5 4,-6 3,-5 3,-4 4,-4 4,-3 3,-4 4,-2 4,-2 4,-2 4,-1 5,0 4,0 5,0 6,2 5,1 6,2 7,3 7,4 7,4 -4,2 -3,3 -3,3 -4,4 -3,3 -3,4 -3,4 -3,4 -3,4 -2,4 -3,4 -2,4 -2,4 -2,4 -2,4 -2,4 7,-1 6,0 6,-1 5,-1 4,0 4,0 4,0 3,0 3,1 3,1 2,1 2,3 2,2 1,4 2,5 1,5 -3,0 -3,1 -3,1 -4,1 -4,2 -4,2 -4,2 -4,3 -4,2 -3,3 -4,3 -4,3 -3,3 -3,3 -2,2 -3,3 6,0 6,0 6,0 7,1 7,1 8,1 8,2 9,2 9,3 10,5 10,6 10,7 12,8 12,11 12,12 13,13 -7,1 -6,2 -6,1 -7,2 -6,1 -7,2 -7,1 -7,2 -7,1 -7,0 -8,1 -7,0 -8,-1 -9,-2 -8,-2 -10,-3 -2,0 -4,1 -5,2 -5,4 -5,4 -5,5 -5,6 -6,5 -5,6 -4,6 -4,5 -3,5 -2,4 0,3 0,2 2,1 2,0 2,0 2,0 2,-1 2,0 2,0 3,-1 3,0 3,-1 3,0 4,-1 4,0 4,-1 4,0 6,0 5,-1 5,0 6,0 7,0 7,0 7,0 8,0 8,1 9,0 9,1 10,1 10,1 11,1 12,1 12,2 13,2 13,2 -4,6 -5,5 -3,4 -4,5 -3,3 -4,3 -2,3 -3,3 -3,2 -3,1 -3,2 -3,1 -3,0 -4,0 -3,1 -4,-1 -4,0 -5,0 -5,-1 -5,0 -7,-1 -6,-1 -8,-1 -8,-1 -8,-1 -10,0 -10,-1 -11,-1 -12,-1 -13,0 -15,0 -15,0 1,0 2,0 3,1 3,1 4,1 4,1 5,2 5,2 6,2 6,2 7,3 7,2 7,3 7,3 8,3 7,3 8,4 7,3 8,4 7,3 7,4 8,3 7,4 6,4 6,4 6,4 6,4 5,3 4,4 4,4 4,4 2,4 -99,10 -1,-3 -4,-3 -5,-4 -5,-3 -6,-3 -6,-2 -4,-3 -3,-2 0,2 0,2 -1,2 -1,3 -1,2 0,2 -1,1 0,1 -4,-1 -3,-1 -3,-1 -3,-3 -3,-3 -3,-3 -2,-3 -3,-4 -2,-4 -3,-4 -3,-3 -3,-4 -3,-3 -4,-3 -3,-2 -5,-2 -4,-2 -4,-3 -5,-3 -6,-4 -6,-4 -6,-5 -6,-4 -6,-6 -6,-4 -6,-5 -6,-4 -6,-4 -6,-3 -6,-2 -5,-2 -5,0 2,14 1,14 1,14 0,14 0,14 0,14 -1,14 -1,15 -2,14 -2,15 -2,14 -2,15 -3,15 -2,15 -3,15 -2,15 -3,15 -3,15 -3,16 -2,16 -3,15 -3,16 -2,16 -2,17 -2,16 -1,17 -1,17 -1,17 -1,17 0,17 0,18 1,17 4,0 5,1 6,1 6,2 7,2 8,2 8,3 7,3 8,3 8,3 7,3 7,3 5,3 5,2 4,2 2,2 -8,-2 -8,-1 -8,-1 -7,-1 -8,0 -7,-1 -7,0 -7,-1 -6,0 -7,0 -6,0 -6,0 -7,0 -6,0 -5,1 -6,0 -6,0 -6,1 -5,0 -6,0 -6,1 -5,0 -6,1 -6,0 -5,1 -6,0 -6,1 -5,0 -6,0 -6,0 -6,1 -7,0 -4,-1 -5,0 -4,0 -5,0 -4,1 -4,0 -5,0 -4,1 -4,0 -4,1 -4,0 -4,0 -5,1 -4,0 -4,0 -4,0 2,-1 3,-1 2,-2 2,-3 4,-2 4,-2 6,-2 7,-2 2,-2 3,-2 3,-2 3,-2 4,-1 4,-1 5,-1 4,-1 5,0 4,-1 5,0 4,0 4,0 4,0 3,0 2,0 3,-2 4,-2 4,-2 5,-1 4,-1 5,-1 4,0 3,-1 0,-45 1,-15 0,-14 1,-15 1,-14 2,-14 2,-14 2,-15 2,-14 2,-14 3,-14 3,-14 2,-14 3,-15 3,-14 3,-14 3,-14 3,-14 3,-14 2,-14 3,-14 2,-14 3,-14 1,-14 2,-14 2,-15 1,-14 1,-14 0,-14 0,-14 0,-14 -1,-15 -1,-14 -5,6 -4,6 -5,5 -4,6 -4,6 -3,6 -4,6 -3,5 -3,6 -3,6 -3,5 -3,6 -2,6 -2,5 -3,6 -2,5 -2,6 -2,6 -2,5 -1,6 -2,5 -2,6 -1,6 -2,5 -1,6 -2,5 -2,6 -1,6 -2,5 -1,6 -2,6 -2,5 -5,-3 -4,-4 -4,-5 -2,-6 -2,-6 -1,-6 -1,-7 0,-8 0,-8 1,-7 1,-8 1,-8 2,-8 2,-7 1,-8 2,-7 2,-6 2,-6 1,-6 1,-4 1,-5 0,-3 0,-2 0,-1 -1,0 -2,1 -2,2 -4,4 -4,5 -4,6 -6,9 -7,9 -17,0 0,3 -1,3 0,3 0,3 -1,3 0,3 -1,3 0,2 -4,2 -4,2 -5,3 -4,2 -5,3 -4,3 -5,3 -5,3 -5,3 -4,2 -5,2 -5,2 -4,2 -5,1 -5,1 -5,0 1,-5 1,-6 2,-6 3,-6 3,-6 4,-6 4,-6 5,-6 5,-6 4,-6 5,-5 5,-5 5,-6 4,-4 5,-4 4,-4 -8,0 -9,0 -8,1 -8,1 -9,0 -9,1 -8,1 -9,1 -8,0 -9,1 -8,0 -9,-1 -7,0 -8,-1 -8,-2 -7,-2 5,-5 6,-5 6,-4 7,-4 8,-4 8,-4 8,-3 8,-4 9,-3 9,-3 10,-4 9,-3 9,-3 10,-3 10,-4 10,-3 -166,-10 2,-7 3,-7 4,-5 4,-5 5,-5 4,-3 6,-3 5,-2 6,-2 6,-2 6,-1 7,0 7,-1 7,0 6,1 7,0 7,1 7,0 7,1 7,1 7,1 6,1 7,0 6,1 6,0 5,0 6,0 5,-1 4,-1 5,-1 3,-2 4,-2 -8,-5 -8,-5 -7,-5 -8,-4 -7,-5 -8,-5 -7,-5 -8,-4 -7,-5 -8,-5 -7,-5 -7,-6 -6,-5 -6,-5 -7,-6 -5,-5 0,-20 -6,0 -5,0 -4,0 -4,0 -3,0 -4,-1 -3,0 -2,0 -3,-1 -3,-1 -3,-1 -3,-1 -4,-1 -4,-2 -4,-1 -5,-2 5,-5 6,-4 6,-3 6,-3 6,-2 7,-2 6,-1 7,-1 7,0 8,0 8,1 7,2 8,2 8,2 8,3 9,3 8,3 8,4 9,5 9,5 8,5 9,5 9,6 9,6 9,6 8,7 9,7 9,7 8,8 9,7 9,8 8,8z M344,315 l0,-7 0,-6 -1,-7 0,-7 0,-6 0,-7 1,-7 0,-7 0,-6 1,-7 1,-6 1,-6 2,-7 2,-6 2,-5 2,-6 -2,-1 -3,1 -2,1 -2,2 -3,2 -2,3 -2,2 -3,2 -1,-6 -1,-7 -1,-8 -1,-8 -1,-8 0,-10 0,-9 0,-9 0,-9 0,-9 1,-9 1,-8 1,-7 1,-7 2,-6 1,-4 -1,2 -2,4 -1,4 -2,5 -2,5 -2,7 -1,6 -2,8 -2,8 -1,9 -1,8 -1,10 0,10 1,10 0,11 2,11 -5,-3 -4,1 -2,2 -1,3 1,5 2,6 4,6 5,7 0,4 1,5 1,4 1,4 2,5 1,4 2,4 2,4 2,4 2,4 2,5 1,4 2,5 1,4 0,5 1,5z " />
<path style="fill:none;stroke:#000;stroke-width:2" d="M464,311 l-6,8 -6,7 -5,8 -4,10 9,-5 9,-6 9,-7 9,-8 10,-7 10,-5 12,-2 12,2 -8,-3 -9,-2 -8,-2 -13,-1 -11,2 -8,7 -2,4" />
<path style="fill:none;stroke:#000;stroke-width:2" d="M310,386 l-9,-3 -8,-5 -8,-4 -8,-3 -3,0 -2,0 -3,1 12,6 9,7 6,6 2,2 -10,1 -11,2 -9,3 -10,4 -10,3 -3,1 4,1 10,0 5,1 6,-1 11,0 11,-2 11,-3 9,-4 8,-5 3,-3 -13,-5" />
<path style="fill:none;stroke:#000;stroke-width:2" d="M281,347 l0,1 -17,-26 -18,-29 -14,-24 -15,-25 -14,-24 -15,-28 -10,-24 16,0 -16,-24 -19,-18 -13,-11 32,-6 29,10 27,19 24,26 19,25 6,8 -7,-29 -3,-27 -1,-34 1,-27 7,-26 1,-1 2,0 1,1 5,31 0,9 5,-32 15,-22 26,-11 7,0 0,56 20,-22 14,-22 23,9 24,-11 24,-10 4,-1 5,0 6,0 6,1 -7,26 -11,23 -11,27 -6,28 -7,28 -9,29 -9,28 -8,27 -10,29 -6,27 0,1 1,1 1,0 19,-29 16,-28 14,-26 12,-22 14,-24 17,-20 25,-7 29,8 14,8 -20,19 -16,24 -8,16 28,-3 24,12 3,10 -25,9 -22,17 -8,8 32,2 34,8 30,18 24,19 25,25 -26,6 -27,6 -29,2 -35,-8 -2,0 -24,16 -20,23 -9,17 0,2 30,-3 28,-2 35,0 36,3 33,3 25,4 13,2 -4,6 -19,20 -24,12 -33,-2 -30,-4 -31,-2 -40,-1 -15,0 27,8 26,9 29,12 30,14 28,15 23,15 14,16 -99,10 -21,-16 -13,-7 -4,15 -21,-15 -17,-22 -25,-15 -24,-17 -24,-19 -23,-11 -5,0 3,28 1,28 0,28 -2,29 -4,29 -4,29 -5,30 -5,30 -6,30 -5,32 -6,31 -4,33 -3,33 -2,34 -1,34 1,35 28,6 31,11 27,12 11,6 -31,-5 -29,-2 -32,0 -29,2 -28,2 -28,2 -29,0 -31,2 -25,2 -4,0 -4,0 23,-13 7,-2 24,-11 30,-2 5,0 25,-9 7,-1 0,-45 1,-29 2,-29 4,-28 4,-29 5,-28 5,-28 6,-29 6,-28 6,-28 5,-28 5,-28 3,-28 3,-29 1,-28 0,-28 -2,-29 -18,23 -14,23 -12,23 -11,28 -9,28 -8,28 -8,28 -17,-24 -2,-29 5,-31 7,-28 5,-26 0,-1 -1,0 -22,27 -7,9 -17,0 -3,23 -22,12 -23,14 -29,8 10,-29 18,-24 19,-22 13,-12 -33,2 -35,3 -34,0 -30,-5 24,-18 24,-11 26,-10 28,-10 30,-10 -166,-10 2,-7 16,-22 27,-12 33,-1 28,2 33,4 31,-3 7,-4 -23,-15 -23,-14 -22,-14 -22,-16 -24,-21 0,-20 -29,-1 -26,-8 -5,-2 23,-15 26,-6 30,3 33,10 25,12 26,15 27,18 26,21 26,23 8,8" />
<path style="fill:none;stroke:#000;stroke-width:2" d="M344,315 l0,-13 -1,-14 0,-13 1,-14 1,-13 2,-12 4,-13 2,-5 2,-6 -2,-1 -10,6 -7,7 -2,-13 -2,-16 -1,-8 0,-10 0,-9 0,-9 0,-9 1,-18 2,-15 3,-13 1,-4 -1,2 -5,13 -4,12 -3,14 -2,8 -1,9 -1,8 -1,10 0,10 1,10 0,11 2,11 -5,-3 -4,1 -2,2 -1,3 1,5 6,12 5,7 1,9 2,8 3,9 4,8 4,8 3,9 3,9 0,5 1,5" />

</svg>
