 

<svg xmlns:agg="http://www.example.com" xmlns="http://www.w3.org/2000/svg" preserveAspectRatio="none" width="1.6083in" height="0.7744in" viewBox="0 0 999 481">

<path style="fill:#fff" d="M281,433 l-41,-41 -182,-40 -31,-92 92,-151 294,-71 223,20 142,-31 172,152 21,92 -122,60 -71,72 -142,30 -213,20 -142,-20z" />
<path style="fill:#e5e5e5" d="M281,433 l-41,-41 -182,-40 -10,-41 162,-71 142,152 273,-102 92,-91 142,21 112,51 -122,60 -71,72 -152,30 -203,20 -142,-20z" />
<path style="fill:none;stroke:#000;stroke-width:2" d="M281,433 l-41,-41 -182,-40 -31,-92 92,-151 294,-71 223,20 142,-31 172,152 21,92 -122,60 -71,72 -152,30 -203,20 -142,-20" />

</svg>
