 

<svg xmlns:agg="http://www.example.com" xmlns="http://www.w3.org/2000/svg" preserveAspectRatio="none" width="1.6083in" height="0.4701in" viewBox="0 0 999 292">

<path style="fill:#000;stroke:#000;stroke-width:2" d="M28,28 l942,0 0,236 -942,0 0,-236z" />
<path style="fill:#fff;stroke:#000;stroke-width:2" d="M264,28 l118,0 0,118 -118,0 0,-118z" />
<path style="fill:#fff;stroke:#000;stroke-width:2" d="M146,146 l118,0 0,118 -118,0 0,-118z" />
<path style="fill:#fff;stroke:#000;stroke-width:2" d="M264,28 l118,0 0,118 -118,0 0,-118z" />
<path style="fill:#fff;stroke:#000;stroke-width:2" d="M28,28 l118,0 0,118 -118,0 0,-118z" />
<path style="fill:#fff;stroke:#000;stroke-width:2" d="M618,146 l117,0 0,118 -117,0 0,-118z" />
<path style="fill:#fff;stroke:#000;stroke-width:2" d="M499,28 l119,0 0,118 -119,0 0,-118z" />
<path style="fill:#fff;stroke:#000;stroke-width:2" d="M618,146 l117,0 0,118 -117,0 0,-118z" />
<path style="fill:#fff;stroke:#000;stroke-width:2" d="M382,146 l117,0 0,118 -117,0 0,-118z" />
<path style="fill:#fff;stroke:#000;stroke-width:2" d="M853,146 l117,0 0,118 -117,0 0,-118z" />
<path style="fill:#fff;stroke:#000;stroke-width:2" d="M735,28 l118,0 0,118 -118,0 0,-118z" />

</svg>
