 

<svg xmlns:agg="http://www.example.com" xmlns="http://www.w3.org/2000/svg" preserveAspectRatio="none" width="1.6083in" height="0.4685in" viewBox="0 0 999 291">

<path style="fill:#000;stroke:#000;stroke-width:2" d="M28,28 l942,0 0,235 -942,0 0,-235z" />
<path style="fill:#ff0;stroke:#000;stroke-width:2" d="M263,28 l119,0 0,119 -119,0 0,-119z" />
<path style="fill:#ff0;stroke:#000;stroke-width:2" d="M147,147 l116,0 0,116 -116,0 0,-116z" />
<path style="fill:#ff0;stroke:#000;stroke-width:2" d="M263,28 l119,0 0,119 -119,0 0,-119z" />
<path style="fill:#ff0;stroke:#000;stroke-width:2" d="M28,28 l119,0 0,119 -119,0 0,-119z" />
<path style="fill:#ff0;stroke:#000;stroke-width:2" d="M618,147 l117,0 0,116 -117,0 0,-116z" />
<path style="fill:#ff0;stroke:#000;stroke-width:2" d="M499,28 l119,0 0,119 -119,0 0,-119z" />
<path style="fill:#ff0;stroke:#000;stroke-width:2" d="M618,147 l117,0 0,116 -117,0 0,-116z" />
<path style="fill:#ff0;stroke:#000;stroke-width:2" d="M382,147 l117,0 0,116 -117,0 0,-116z" />
<path style="fill:#ff0;stroke:#000;stroke-width:2" d="M853,147 l117,0 0,116 -117,0 0,-116z" />
<path style="fill:#ff0;stroke:#000;stroke-width:2" d="M735,28 l118,0 0,119 -118,0 0,-119z" />

</svg>
