 

<svg xmlns:agg="http://www.example.com" xmlns="http://www.w3.org/2000/svg" preserveAspectRatio="none" width="1.3804in" height="1.0750in" viewBox="0 0 999 778">

<path style="fill:#804000;stroke:#000;stroke-width:2" d="M59,664 l23,-37 24,-31 25,-27 25,-24 26,-20 26,-18 25,-15 25,-14 23,-12 31,-18 28,-18 21,-19 14,-24 6,-25 2,-29 -5,-31 -19,-26 -11,-16 15,-2 24,12 8,6 7,-31 10,-32 13,-30 15,-27 18,-24 7,-7 12,0 -17,29 -18,33 -6,13 32,-2 29,-8 24,-10 5,-1 1,0 2,8 -24,13 -30,8 -26,6 -17,3 -9,32 -6,29 -3,32 1,33 6,36 32,-27 35,-22 34,-19 37,-19 37,-19 39,-22 41,-27 20,-16 21,-18 5,-33 8,-36 9,-36 10,-31 11,-24 4,-2 2,1 -7,30 -7,25 -7,27 -3,36 6,16 6,5 30,-22 30,-17 29,-13 28,-10 27,-7 37,-7 32,-6 3,2 0,7 -35,7 -33,9 -28,10 -26,12 -23,12 -30,21 -27,22 -26,23 -24,23 -26,22 -29,20 -33,17 -12,6 28,8 27,10 16,9 27,-20 22,-15 27,-15 26,-9 13,-2 2,5 -29,9 -28,14 -21,16 -21,18 -5,5 34,14 27,13 31,14 33,13 35,13 36,11 36,7 18,3 0,9 -35,-1 -33,-8 -26,-7 -26,-8 -26,-9 -26,-8 20,25 13,26 9,24 8,25 6,12 0,1 -13,-6 -9,-25 -22,-40 -29,-33 -36,-27 -40,-21 -40,-13 -38,-4 -35,3 -29,11 -32,16 -25,14 -27,16 -24,16 -26,21 -17,23 -24,16 -31,17 -32,18 -32,18 -9,7 -23,16 -35,27 -22,22 -23,28 -20,30 -19,26 -29,32 -19,20 -21,16 -9,4 -4,0 -4,0 -4,-3 -6,-21 0,-9 0,-10 5,-28 10,-18 5,-2 5,1 6,5z" />

</svg>
