 

<svg xmlns:agg="http://www.example.com" xmlns="http://www.w3.org/2000/svg" preserveAspectRatio="none" width="1.6083in" height="0.7494in" viewBox="0 0 998 465">

<path style="fill:#ff8040;stroke:#000;stroke-width:2" d="M970,28 l0,409 -18,-24 -23,-26 -25,-26 -27,-26 -27,-25 -26,-22 -21,-17 -20,-17 -6,-1 -25,12 -27,15 -27,16 -23,12 -29,16 -27,13 -25,13 -24,10 -25,10 -26,10 -26,9 -27,7 -27,7 -28,5 -29,5 -35,0 -29,-4 -28,-6 -30,-9 -29,-11 -30,-13 -28,-13 -27,-15 -24,-15 -23,-15 -28,-22 -21,-20 -19,-25 -2,-7 -1,-6 0,-1 1,-2 14,-26 19,-21 25,-22 21,-16 22,-15 24,-16 26,-14 26,-13 27,-12 28,-10 27,-8 27,-5 33,-3 32,1 27,4 27,4 29,8 28,8 28,9 28,11 27,12 27,12 24,11 22,11 25,13 25,14 23,12 23,13 24,13 12,5 21,-14 34,-28 26,-23 24,-22 21,-21 20,-20 25,-28 14,-17 6,-8z" />

</svg>
