 

<svg xmlns:agg="http://www.example.com" xmlns="http://www.w3.org/2000/svg" preserveAspectRatio="none" width="1.0642in" height="1.0750in" viewBox="0 0 989 999">

<path style="fill:#bfbf00;stroke:#000;stroke-width:2" d="M184,28 l630,0 147,908 -119,0 -9,-79 -377,0 -6,79 -117,0 -149,-908z" />
<path style="fill:#ff0;stroke:#000;stroke-width:2" d="M184,28 l630,0 -158,942 -117,0 5,-79 -378,0 -19,79 -119,0 156,-942z" />
<circle style="fill:#7f7f7f;stroke:#000;stroke-width:2" cx="214" cy="57" r="9" />
<path style="fill:#7f7f7f;stroke:#000;stroke-width:2" d="M765,47 l7,5 2,6 -4,7 -5,2 -8,-3 -3,-6 3,-8 8,-3z" />
<circle style="fill:#7f7f7f;stroke:#000;stroke-width:2" cx="342" cy="57" r="9" />
<circle style="fill:#7f7f7f;stroke:#000;stroke-width:2" cx="627" cy="57" r="9" />

</svg>
