 

<svg xmlns:agg="http://www.example.com" xmlns="http://www.w3.org/2000/svg" preserveAspectRatio="none" width="0.7863in" height="1.0750in" viewBox="0 0 730 998">

<path style="fill:#963;stroke:#000;stroke-width:2" d="M325,632 l0,38 0,28 0,29 1,28 0,29 0,28 1,28 0,29 1,29 0,28 -10,24 -19,12 0,0 0,1 1,1 2,2 -1,2 -6,2 -1,0 2,0 28,-8 12,-1 1,2 2,6 5,1 31,-4 31,0 19,-1 2,-1 -4,-1 -21,-8 -10,-28 0,-5 0,-290 -67,0z" />
<path style="fill:#630" d="M382,941 l-2,-33 -3,-33 -2,-33 2,-33 -3,-30 -5,-26 -6,-13 -2,-2 -4,-26 -3,-10 -2,-1 -2,1 -11,16 -5,12 0,-7 0,-99 0,-8 4,1 27,6 20,2 3,1 0,9 0,276 -5,27 -1,3z" />
<path style="fill:#063;stroke:#000;stroke-width:2" d="M271,647 l-26,7 -29,-3 -24,-10 -29,-4 -31,-13 -16,-21 -7,-26 2,-35 2,-8 -27,-12 -25,-16 -11,-26 -8,-32 -9,-31 -5,-24 0,-8 0,-8 11,-31 20,-20 22,-22 19,-20 11,-25 -4,-10 0,-30 -2,-29 -6,-40 -1,-30 12,-25 31,-10 33,-7 22,-20 27,-4 29,9 30,8 27,-4 20,-20 15,-16 4,-3 16,1 38,2 30,3 31,3 14,0 18,22 18,22 18,21 3,5 26,7 26,7 27,9 17,23 3,29 14,25 35,13 7,26 8,27 -2,29 -3,28 8,30 2,7 0,8 0,7 -17,27 -22,11 21,24 4,31 -3,31 1,12 -9,35 -14,30 -17,23 -26,19 -22,3 -22,15 -27,11 -30,-1 -26,-6 -38,5 -26,6 -10,2 -9,0 -28,-7 -23,-11 -29,-4 -31,4 -28,5z" />
<path style="fill:#004c19" d="M319,514 l-5,30 0,32 -7,29 -22,19 -16,3 -9,1 -11,-1 -41,-7 -34,-11 -20,-7 -22,-9 10,-9 23,-25 14,-29 0,-29 -11,-25 6,-28 12,-3 -18,-7 0,-1 1,-2 26,-9 24,-13 4,-7 -15,-28 -28,-19 -13,-8 0,-1 1,-1 31,3 31,6 26,5 28,5 20,0 1,-1 0,-1 -22,-12 -35,-22 -23,-17 -18,-23 1,-4 26,-14 25,-7 17,-11 1,-4 -12,-22 -33,-27 26,-17 33,-3 24,11 18,28 3,13 4,1 26,-17 17,-20 20,-25 25,-16 31,-11 7,-2 5,-1 4,0 2,1 1,2 -13,22 -18,19 -21,23 -5,9 1,1 1,1 13,-2 3,31 -3,30 -2,30 2,30 3,0 22,-18 21,-22 12,-6 4,3 2,4 -7,27 -13,26 -7,29 2,5 4,4 7,2 2,2 24,-19 29,-27 19,-19 23,-20 7,-5 0,2 -13,27 -12,32 -5,33 12,26 37,12 3,4 2,3 1,5 -1,4 -14,27 -15,25 2,29 -1,3 -2,2 -2,0 -23,-14 -24,-22 -25,-22 -23,-13 -3,0 -2,2 4,38 4,14 18,28 -5,33 -12,22 -20,18 -4,1 -21,-18 -26,-16 -31,-1 -24,15 -14,6 -15,-27 -9,-36 -8,-35z" />
<path style="fill:#630" d="M336,812 l0,12 1,11 1,11 0,11 0,11 2,12 1,1 2,10 1,0 1,-3 3,-6 0,2 0,34 0,2 -2,0 -9,-3 -1,0 -2,-1 0,-5 0,-92 2,-5 0,-2z" />
<path style="fill:#030" d="M346,551 l1,-31 -20,-16 -31,0 -33,0 -26,-12 -4,-4 -3,-4 14,-2 28,-9 14,-22 1,-33 1,-19 30,-4 7,-25 -1,-30 -1,-29 8,-27 11,-5 6,-1 3,11 10,27 17,25 24,21 25,18 20,24 12,29 5,31 1,25 7,5 0,0 -1,0 -26,-10 -26,-8 -28,-5 -2,1 -1,1 -1,2 7,13 -10,25 -10,26 -10,26 -8,19 -2,7 -1,-2 -6,-28 -1,-10z" />

</svg>
