<?xml version="1.0" encoding="utf-8"?>
<!-- Generator: Adobe Illustrator 16.0.0, SVG Export Plug-In . SVG Version: 6.00 Build 0)  -->
<!DOCTYPE svg PUBLIC "-//W3C//DTD SVG 1.1//EN" "http://www.w3.org/Graphics/SVG/1.1/DTD/svg11.dtd">
<svg version="1.1" id="图层_1" xmlns="http://www.w3.org/2000/svg" preserveAspectRatio="none" xmlns:xlink="http://www.w3.org/1999/xlink" x="0px" y="0px"
	 width="100px" height="100px" viewBox="0 0 100 100" enable-background="new 0 0 100 100" xml:space="preserve">
<g>
	<g>
		<path fill="#221F20" d="M23.625,37.642c-0.055,0.013-0.114,0.029-0.169,0.044C23.511,37.67,23.569,37.655,23.625,37.642z"/>
		<path fill="#221F20" d="M22.702,37.886c0.251-0.065,0.504-0.133,0.754-0.2c-0.252,0.068-0.5,0.138-0.749,0.215
			C22.696,37.903,22.692,37.888,22.702,37.886z"/>
		<path fill="#584F35" d="M22.022,60.19c0.458-0.514,0.797-1.115,1.257-1.626c0.412-0.461,0.921-0.838,1.432-1.182
			c0.394-0.262,1.674-1.211,2.213-0.842c0.354,0.242,0.518,0.817,0.83,1.137c0.47,0.479,0.96,1.038,1.482,1.448
			c1.243,0.973,2.669,0.915,4.114,1.263c0.734,0.178,1.4,0.56,2.071,0.935c-0.199-0.387-0.407-0.671-0.787-0.946
			c-0.973-0.705-1.688-1.77-2.224-2.831c-0.237-0.471-0.623-0.754-0.944-1.137c-0.201-0.241-0.353-0.501-0.513-0.77
			c-0.194-0.33-0.52-0.553-0.793-0.812c-0.883-0.836-1.462-1.939-2.324-2.797c-0.006-0.007,0.005-0.019,0.012-0.011
			c0.768,0.827,1.425,1.752,2.213,2.563c0.334,0.344,0.732,0.584,1.012,0.979c0.178,0.252,0.311,0.499,0.521,0.736
			c0.145,0.164,0.358,0.259,0.502,0.437c0.807,1.005,1.341,2.122,2.273,3.046c0.306,0.307,0.745,0.454,1.019,0.797
			c0.266,0.33,0.393,0.83,0.718,1.11c0.295,0.148,0.598,0.28,0.911,0.38c0.611,0.192,1.291,0.12,1.919,0.331
			c0.579,0.194,1.117,0.447,1.631,0.773c0.604,0.38,1.071,0.8,1.634,1.239c0.063,0.049,0.13,0.094,0.195,0.143
			c-0.016-0.052-0.031-0.101-0.046-0.15c-0.603-1.927-1.118-3.853-1.454-5.832c-0.077-0.207-0.156-0.412-0.253-0.605
			c-0.458-0.917-0.946-1.818-1.45-2.71c-0.902-1.597-0.965-3.546-1.487-5.261c-0.271-0.885-0.626-1.733-0.771-2.653
			c-0.08-0.517-0.255-0.994-0.454-1.476c-0.211-0.509-0.377-1.115-0.664-1.586c-0.45-0.734-0.693-1.549-1.091-2.308
			c-0.188-0.359-0.495-0.678-0.717-1.023c-0.249-0.389-0.432-0.824-0.619-1.245c-0.219-0.5-0.432-1.004-0.65-1.505
			c-0.538,0.077-1.058,0.167-1.609,0.003c-0.875-0.262-1.715-0.624-2.511-1.065c-0.787-0.436-1.821-0.098-2.646,0.02
			c-0.788,0.113-1.578,0.278-2.354,0.481c0.601-0.16,1.201-0.316,1.809-0.442c0.758-0.157,1.595-0.391,2.374-0.34
			c0.787,0.053,1.372,0.495,2.102,0.746c0.509,0.175,0.987,0.396,1.519,0.492c0.439,0.08,0.833,0.004,1.239-0.068
			c-0.119-0.267-0.237-0.53-0.362-0.792c-0.374-0.779-0.841-1.508-1.13-2.326c-0.153-0.432-0.199-0.927-0.381-1.343
			c-0.163-0.37-0.433-0.707-0.615-1.069c-0.453-0.904-0.748-1.879-1.214-2.786c-0.383-0.743-0.721-1.483-1.082-2.236
			c-0.406-0.845-0.793-1.823-1.331-2.589c-0.006-0.009,0.008-0.016,0.015-0.008c0.476,0.722,0.875,1.547,1.275,2.312
			c0.385,0.74,0.761,1.474,1.152,2.208c0.401,0.752,0.854,1.474,1.142,2.279c0.305,0.867,0.927,1.531,1.143,2.42
			c0.216,0.883,0.713,1.67,1.158,2.45c0.264,0.458,0.5,0.933,0.726,1.409c0.065,0.013,0.09,0.087,0.065,0.14
			c0.173,0.366,0.342,0.732,0.515,1.096c0.2,0.421,0.402,0.838,0.633,1.243c0.222,0.391,0.549,0.678,0.806,1.036
			c0.099,0.139,0.19,0.283,0.277,0.43c0.107-0.535,0.248-1.062,0.261-1.605c0.012-0.471,0.095-1.036-0.048-1.492
			c-0.136-0.43-0.386-0.798-0.539-1.209c-0.297-0.805-0.526-1.61-0.59-2.469c-0.041-0.539,0.003-1.03-0.141-1.565
			c-0.13-0.489-0.298-0.973-0.461-1.451c-0.004-0.009,0.011-0.013,0.015-0.003c0.265,0.818,0.632,1.593,0.679,2.461
			c0.069,1.26,0.366,2.322,0.968,3.428c0.785,1.438,0.271,2.924,0.155,4.439c0.258,0.486,0.498,0.979,0.816,1.433
			c1.071,1.532,1.414,3.443,2.145,5.132c0.733,1.693,1.073,3.54,1.829,5.237c0.017,0.038,0.037,0.077,0.054,0.115
			c0.064-1.513,0.279-3.021,0.496-4.529c0.348-2.417,0.972-4.794,1.103-7.239c0.285-5.378,0.404-10.76,0.417-16.146
			c0-0.374-0.012-0.742-0.036-1.107c-0.134-0.188-0.38-0.469-0.507-0.609c-0.282-0.309-0.846-0.726-1.215-0.921
			c-0.367-0.195-0.677-0.438-0.939-0.764c-0.279-0.349-0.517-1.005-1.002-1.107c-0.436-0.09-0.869-0.492-1.268-0.683
			c-0.688-0.329-1.405-0.584-2.147-0.753c-1.154-0.265-2.239-0.407-3.325-0.905c-0.01-0.004-0.003-0.019,0.006-0.014
			c1.407,0.686,2.982,0.625,4.457,1.073c0.639,0.194,1.251,0.469,1.854,0.752c0.329,0.154,0.776,0.31,1.027,0.601
			c0.414,0.475,0.708,1.022,1.267,1.355c0.439,0.264,0.874,0.494,1.274,0.825c0.165,0.138,0.316,0.281,0.46,0.432
			c-0.208-2.034-0.752-3.951-1.482-5.925c-0.193-0.52-0.617-1.018-0.887-1.503c-0.321-0.582-0.594-1.195-0.908-1.784
			c-0.617-1.159-1.115-2.312-1.611-3.524c-0.003-0.011,0.01-0.018,0.015-0.008c0.841,2.152,2.056,4.247,3.331,6.169
			c0.595,0.898,0.901,1.966,1.262,2.978c0.425,1.19,0.728,2.347,0.872,3.606c0.274,2.411,0.186,4.861,0.368,7.281
			c0.039,0.516,0.073,1.032,0.104,1.547c0.126-0.137,0.209-0.304,0.362-0.41c0.218-0.151,0.448-0.256,0.687-0.373
			c0.83-0.403,0.573-1.257,0.567-2.02c-0.004-0.451,0.305-0.818,0.52-1.187c0.473-0.812,0.309-1.678,0.126-2.566
			c-0.292-1.433-0.792-2.819-0.733-4.301c0.031-0.758,0.314-1.46,0.372-2.211c0.057-0.76,0.332-1.244,0.659-1.929
			c0.004-0.009,0.02-0.003,0.015,0.006c-0.39,0.746-0.597,1.361-0.641,2.202c-0.019,0.353-0.154,0.763-0.227,1.103
			c-0.115,0.534-0.094,1.124-0.05,1.662c0.128,1.597,0.876,3.081,1.018,4.681c0.039,0.435,0.048,0.905-0.187,1.289
			c-0.174,0.287-0.356,0.579-0.499,0.883c-0.18,0.38-0.039,1.026-0.025,1.442c0.009,0.297,0.012,0.785-0.251,1
			C45.095,32.892,44.774,33,44.54,33.12c-0.386,0.198-0.509,0.513-0.833,0.749c-0.031,0.021-0.063,0.033-0.093,0.037
			c0.115,1.983,0.19,3.968,0.271,5.953c0.01,0.21,0.018,0.42,0.025,0.629c0.618-0.223,1.243-0.419,1.824-0.743
			c0.77-0.428,1.673-0.267,2.506-0.252c0.011,0,0.01,0.016-0.002,0.016c-1.125-0.01-1.903,0.09-2.886,0.682
			c-0.449,0.271-0.944,0.449-1.428,0.651c0.081,2.165,0.105,4.302-0.213,6.465c-0.352,2.387-0.417,4.948-0.333,7.359
			c0.083,2.396,0.694,4.86,1.435,7.129c0.017,0.049,0.034,0.099,0.051,0.15c0.013,0.022,0.026,0.044,0.04,0.066
			c-0.037-0.565-0.127-1.137-0.196-1.691c-0.083-0.667-0.085-1.339-0.158-2.006c-0.067-0.605,0.036-1.188,0.123-1.785
			c0.032-0.219-0.014-0.476,0.101-0.671c0.167-0.29,0.5-0.645,0.524-0.988c0.088-1.287,1.249-2.116,1.811-3.182
			c0.248-0.469,0.684-0.786,0.926-1.267c0.041-0.081,0.089-0.155,0.142-0.227c-0.048-0.444-0.264-1.005-0.323-1.188
			c-0.248-0.787-0.137-1.64-0.421-2.435c-0.004-0.011,0.01-0.017,0.014-0.007c0.368,1.022,0.477,2.103,0.817,3.136
			c0.031,0.091,0.054,0.194,0.074,0.302c0.171-0.183,0.372-0.341,0.574-0.487c1.238-0.897,1.996-2.348,2.076-3.885
			c0.057-1.146-0.044-2.254,0.587-3.267c0.035-0.055,0.111,0.004,0.08,0.057c-0.662,1.145-0.412,2.441-0.473,3.699
			c-0.051,1.089-0.67,2.277-1.329,3.125c-0.309,0.397-0.815,0.569-1.13,0.974c-0.126,0.164-0.24,0.337-0.352,0.511
			c-0.002,0.009-0.002,0.02-0.003,0.028c-0.008,0.068-0.09,0.16-0.185,0.253c-0.09,0.132-0.182,0.262-0.284,0.384
			c-0.331,0.391-0.541,0.845-0.862,1.247c-0.449,0.561-0.851,1.225-1.097,1.897c-0.071,0.196,0.005,0.47-0.079,0.658
			c-0.099,0.219-0.213,0.425-0.341,0.627c-0.319,0.51-0.33,1.558-0.295,2.148c0.071,1.228,0.269,2.486,0.477,3.696
			c0.112,0.651,0.065,1.329,0.121,1.984c0.055,0.671,0.191,1.329,0.276,1.995c0.276,0.884,0.555,1.786,0.888,2.636
			c0.448,1.146,0.717,2.469,0.93,3.679c0.115,0.654,0.223,1.311,0.335,1.966c0.125,0.733,0.396,1.399,0.453,2.148
			c0.087,1.118,0.37,2.266,0.526,3.402c0.152,1.099,0.167,2.204,0.23,3.306c0.332-1.794,0.674-3.604,0.775-5.414
			c0.063-1.124,0.038-2.242,0.14-3.366c0.105-1.18,0.21-2.358,0.224-3.543c0.011-1.06,0.151-2.065,0.329-3.108
			c0.222-1.291,0.317-2.537,0.736-3.79c0.122-0.362,0.237-0.727,0.353-1.094c-0.002-0.102-0.002-0.203,0.001-0.306
			c0.013-0.488-0.249-0.958-0.286-1.448c-0.08-1.085-0.214-2.152-0.707-3.13c-0.254-0.505-0.659-1.304-0.444-1.896
			c0.13-0.358,0.309-0.581,0.588-0.838c0.563-0.515,0.764-1.145,0.436-1.858c-0.004-0.008,0.012-0.013,0.016-0.005
			c0.238,0.59,0.277,1.114-0.104,1.644c-0.383,0.528-0.849,0.762-0.796,1.535c0.041,0.603,0.457,1.198,0.745,1.704
			c0.439,0.771,0.473,1.717,0.619,2.569c0.055,0.318,0.172,0.633,0.266,0.944c0.496-1.626,0.994-3.259,1.709-4.793
			c0.42-0.9,0.948-1.783,1.501-2.622c0.024-0.41,0.03-0.77,0.276-1.189c0.279-0.477,0.694-0.866,0.877-1.393
			c0.201-0.579,0.374-1.157,0.449-1.768c0.151-1.243,0.014-2.481-0.109-3.721c-0.063-0.628-0.053-1.251-0.105-1.882
			c-0.012-0.132-0.033-0.264-0.061-0.394c-0.189-0.23-0.438-0.424-0.732-0.599c-0.375-0.222-0.73-0.434-1.046-0.736
			c-0.407-0.388-0.341-0.702-0.646-1.168c-0.301-0.465-0.498-0.974-0.805-1.439c-0.388-0.591-0.809-1.169-1.104-1.815
			c-0.244-0.534-0.516-1.06-0.728-1.611c-0.24-0.629-0.401-1.285-0.705-1.89c-0.005-0.01,0.011-0.017,0.015-0.007
			c0.446,1.012,0.704,2.102,1.301,3.043c0.113,0.178,0.172,0.446,0.264,0.64c0.188,0.395,0.463,0.751,0.707,1.112
			c0.295,0.436,0.604,0.85,0.825,1.33c0.181,0.395,0.504,0.672,0.579,1.101c0.115,0.648,0.917,1.021,1.426,1.312
			c0.182,0.103,0.383,0.218,0.562,0.357c-0.115-0.418-0.274-0.833-0.401-1.237c-0.398-1.265-0.734-2.583-1.018-3.877
			c-0.139-0.632-0.21-1.258-0.394-1.886c-0.175-0.596-0.362-1.185-0.509-1.791c-0.141-0.582-0.327-1.116-0.346-1.72
			c-0.02-0.709-0.099-1.425-0.314-2.104c-0.352-1.113-0.455-2.18-0.449-3.343c0-0.011,0.017-0.009,0.017,0
			c0.005,0.705,0.175,1.337,0.245,2.026c0.064,0.607,0.432,1.168,0.601,1.752c0.185,0.637,0.274,1.258,0.342,1.914
			c0.076,0.731,0.51,1.622,0.771,2.312c0.447,1.175,0.735,2.365,1.127,3.555c0.053,0.162,0.107,0.324,0.162,0.485
			c0.082-0.301,0.271-0.443,0.415-0.757c0.136-0.292,0.263-0.587,0.458-0.849c0.802-1.072,0.74-2.523,0.503-3.793
			c-0.194-1.038-0.456-2.042-0.366-3.102c0.063-0.749-0.121-1.575,0.225-2.263c0.006-0.009,0.021-0.001,0.015,0.007
			c-0.286,0.513-0.17,1.047-0.146,1.602c0.021,0.473-0.061,0.947-0.05,1.422c0.027,1.147,0.549,2.258,0.607,3.41
			c0.045,0.823,0.068,1.57-0.249,2.344c-0.114,0.278-0.38,0.707-0.558,0.941c-0.165,0.219-0.564,0.989-0.593,1.231
			c-0.011,0.091-0.086,0.122-0.157,0.106c0.146,0.425,0.292,0.851,0.429,1.278c0.243,0.764,0.585,1.549,0.767,2.326
			c0.283,1.203,0.291,2.499,0.436,3.726c0.136,1.157,0.262,2.368,0.015,3.526c0.486-0.727,0.872-1.519,1.376-2.235
			c0.707-1.007,1.295-2.062,1.771-3.196c0.677-1.611,1.129-3.342,1.607-5.02c0.547-1.925,0.869-3.93,1.165-5.906
			c0.274-1.837,0.321-3.805,0.964-5.556c0.133-0.361,0.276-0.718,0.419-1.077c0.093-0.796,0.096-1.629-0.256-2.337
			c-0.559-1.122-0.733-2.402-1.389-3.467c-0.646-1.044-1.014-2.281-1.742-3.271c-0.267-0.361-0.536-0.709-0.753-1.103
			c-0.31-0.569-0.418-1.303-0.625-1.916c-0.003-0.01,0.012-0.017,0.016-0.007c0.205,0.629,0.402,1.291,0.688,1.888
			c0.276,0.578,0.809,1.003,1.131,1.553c0.65,1.104,1.354,2.228,1.937,3.365c0.272,0.531,0.41,1.138,0.603,1.699
			c0.195,0.563,0.54,1.063,0.705,1.634c0.07,0.246,0.11,0.503,0.126,0.765c0.012-0.036,0.027-0.07,0.038-0.107
			c0.273-0.86,0.344-1.842,0.558-2.727c0.215-0.884,0.125-1.817,0.092-2.718c-0.037-1.04-0.064-2.076-0.048-3.116
			c0.01-0.515-0.005-1.027-0.033-1.539c-0.011-0.023-0.013-0.051-0.006-0.079c-0.083-1.402-0.289-2.795-0.534-4.185
			c-0.317-1.813-0.328-3.666-0.721-5.458c-0.177-0.801-0.384-1.593-0.549-2.397c-0.174-0.843-0.27-1.71-0.469-2.546
			c-0.003-0.01,0.013-0.014,0.015-0.003c0.219,1.028,0.42,2.05,0.664,3.073c0.281,1.169,0.663,2.302,0.833,3.495
			c0.167,1.166,0.263,2.315,0.5,3.474c0.26,1.273,0.545,2.54,0.646,3.84c0,0.021,0.004,0.043,0.006,0.065
			c0.063-0.131,0.104-0.271,0.105-0.448c0-0.057,0.031-0.115,0.09-0.13c0.774-0.197,0.376-2.212,0.73-2.7
			c0.297-0.41,0.523-0.789,0.945-1.074c0.405-0.273,0.934-0.374,1.4-0.485c0.061-0.014,0.09,0.077,0.029,0.093
			c-0.833,0.222-1.437,0.46-1.971,1.198c-0.33,0.455-0.358,0.782-0.352,1.32c0.005,0.327-0.149,0.617-0.15,0.95
			c0,0.35-0.075,0.688-0.371,0.888c-0.152,0.102-0.059,0.299-0.09,0.444c-0.03,0.143-0.171,0.293-0.3,0.44
			c0.045,0.274,0.091,0.546,0.094,0.833c0.011,0.639,0.02,1.278,0.035,1.917c0.031,1.346,0.191,2.684,0.222,4.03
			c0.024,1.038-0.361,2.118-0.485,3.146c-0.137,1.154-0.662,2.237-1.024,3.33c-0.398,1.205-0.396,2.603-0.522,3.858
			c-0.133,1.31-0.299,2.614-0.493,3.917c-0.368,2.46-0.906,4.926-1.483,7.347c-0.26,1.085-0.622,2.142-1.065,3.167
			c-0.45,1.038-1.073,1.98-1.561,2.999c-0.461,0.963-0.946,1.857-1.587,2.715c-0.73,0.979-1.414,1.889-1.92,3.01
			c-0.364,0.808-0.746,1.544-1.006,2.399c-0.146,0.483-0.305,0.963-0.465,1.442c0.01-0.012,0.02-0.024,0.029-0.036
			c0.217-0.293,0.533-0.511,0.779-0.777c0.298-0.322,0.449-0.742,0.794-1.032c0.282-0.24,0.581-0.423,0.913-0.589
			c0.457-0.229,0.884-0.82,1.229-1.194c0.636-0.685,1.092-1.392,1.869-1.937c0.871-0.608,1.799-1.054,2.562-1.813
			c0.622-0.618,1.095-1.47,1.39-2.312c-0.008-0.216-0.033-0.435-0.031-0.635c0.008-0.468,0.049-0.919,0.184-1.368
			c0.35-1.168,0.738-2.369,1.229-3.477c0.176-0.396,0.073-0.877,0.19-1.293c0.121-0.431,0.489-0.802,0.742-1.155
			c0.23-0.321,0.449-0.653,0.7-0.957c0.014,0.007,0.028,0.014,0.041,0.021c-0.292,0.369-0.54,0.774-0.805,1.162
			c-0.362,0.53-0.651,0.96-0.649,1.636c0.002,0.507-0.233,0.826-0.378,1.293c-0.338,1.107-0.84,2.309-0.978,3.452
			c-0.021,0.172-0.018,0.353-0.007,0.539c0.442-1.521,0.969-3.007,1.971-4.26c1.137-1.42,2.728-2.03,4.091-3.158
			c0.546-0.451,1.046-0.793,1.623-1.14c0.321-0.37,0.544-0.835,0.743-1.335c0.193-0.482,0.438-1.024,0.558-1.528
			c0.111-0.474-0.319-1.349-0.481-1.811c-0.236-0.678-0.503-1.039-0.494-1.766l0.019-1.296c0.006-0.543,0.148-1.054,0.172-1.592
			c0.002-0.01,0.017-0.008,0.016,0.002c-0.08,1.058-0.141,2.07-0.127,3.137c0.009,0.621,0.415,1.162,0.63,1.729
			c0.167,0.44,0.339,0.885,0.436,1.346c0.076,0.357-0.122,0.702-0.244,1.021c-0.2,0.521-0.336,1.044-0.59,1.544
			c-0.043,0.085-0.087,0.167-0.131,0.247c0.843-0.563,1.104-1.5,1.558-2.342c0.239-0.444,0.229-0.895,0.354-1.364
			c0.098-0.356,0.353-0.656,0.476-1.008c0.299-0.847,0.441-1.742,0.837-2.545c0.004-0.009,0.018-0.002,0.014,0.006
			c-0.373,0.768-0.332,1.635-0.647,2.438c-0.131,0.336-0.205,0.655-0.383,0.977c-0.201,0.363,0.025,0.806-0.128,1.138
			c-0.207,0.447-0.435,0.885-0.551,1.367c-0.05,0.212-0.108,0.458-0.246,0.632c-0.589,0.743-1.207,1.262-2.007,1.75
			c-0.644,0.397-1.165,0.994-1.797,1.425c-0.829,0.567-1.717,1.077-2.438,1.783c-1.412,1.384-2.019,3.223-2.507,5.086
			c-0.446,1.703-1.367,3.112-2.762,4.186c-0.726,0.559-1.573,0.933-2.23,1.583c-0.307,0.302-0.521,0.694-0.792,1.028
			c-0.368,0.456-0.785,0.877-1.193,1.297c-0.278,0.289-0.54,0.437-0.872,0.659c-0.377,0.255-0.531,0.643-0.767,1.009
			c-0.425,0.665-1.024,1.348-1.563,1.926c-0.648,0.693-1.178,1.454-1.664,2.271c-0.27,0.895-0.493,1.801-0.595,2.717
			c-0.09,0.826-0.253,1.639-0.362,2.463c-0.114,0.874-0.054,1.764-0.086,2.642c-0.064,1.743-0.268,3.466-0.29,5.215
			c-0.024,1.779-0.384,3.542-0.672,5.293c-0.136,0.832-0.292,1.68-0.427,2.53c0.354-0.772,0.683-1.545,0.993-2.339
			c0.386-0.983,0.863-1.973,1.087-3.009c0.18-0.826,0.397-1.588,0.412-2.44c0.013-0.757,0.078-1.453,0.313-2.172
			c0.164-0.493,0.522-1.067,0.996-1.31c0.747-0.383,1.43-0.849,2.032-1.415c-0.006-0.036-0.006-0.075,0.013-0.115
			c0.31-0.697,0.666-1.103,0.578-1.926c-0.069-0.685-0.06-1.341-0.037-2.028c0.023-0.672,0.1-1.406,0.561-1.934
			c0.042-0.047,0.111,0.016,0.073,0.065c-0.653,0.854-0.431,2.306-0.34,3.301c0.042,0.459,0.279,0.98,0.161,1.447
			c-0.009,0.029-0.018,0.058-0.024,0.088c0.371-0.48,0.716-0.989,1.044-1.496c0.474-0.73,0.729-1.548,1.257-2.248
			c0.408-0.542,0.985-1.019,1.563-1.363c0.556-0.332,1.195-0.705,1.807-0.92c0.35-0.121,0.714-0.203,1.071-0.293
			c0.398-0.1,0.881-0.318,1.288-0.373c0.915-0.118,1.816-0.104,2.735-0.109c0.011,0,0.013,0.015,0.004,0.015
			c-0.726-0.004-1.447,0.034-2.166,0.121c-0.861,0.105-1.77,0.486-2.598,0.757c-0.664,0.217-1.346,0.696-1.955,1.045
			c-0.761,0.438-1.386,1.201-1.808,1.956c-0.351,0.625-0.563,1.32-0.931,1.945c-0.43,0.73-0.914,1.437-1.453,2.091
			c-0.522,0.634-1.142,1.099-1.815,1.563c-0.189,0.131-0.392,0.241-0.583,0.365c0.662-0.017,1.375-0.042,1.971,0.212
			c0.444,0.187,0.813,0.496,1.234,0.729c0.569,0.313,1.296,0.553,1.912,0.764c0.011,0.003,0.006,0.02-0.005,0.016
			c-0.795-0.292-1.622-0.525-2.359-0.947c-0.591-0.34-1.034-0.56-1.733-0.603c-0.426-0.026-0.856,0.005-1.282,0.024
			c-0.056,0.047-0.11,0.098-0.161,0.153c-0.305,0.336-0.408,0.836-0.508,1.259c-0.18,0.746-0.025,1.571-0.09,2.333
			c-0.058,0.691-0.268,1.383-0.413,2.062c-0.178,0.841-0.565,1.664-0.855,2.471c-0.3,0.837-0.597,1.665-0.954,2.478
			c-0.299,0.688-0.613,1.327-0.975,1.979c-0.15,0.271-0.066,0.701-0.062,1c0.005,0.439,0.009,0.876-0.001,1.315
			c-0.021,0.92-0.276,1.843-0.262,2.759c0.007,0.508-0.033,0.935-0.115,1.369c-0.002,0.049-0.004,0.097-0.006,0.146
			c-0.081,1.914-0.065,3.825-0.061,5.739c0,0.048-0.002,0.093-0.005,0.137c0.028,0.029,0.056,0.057,0.083,0.091
			c0.099,0.111,0.207,0.206,0.316,0.299c0.1,0.002,0.199,0.007,0.299,0.016c-0.011,0.039-0.021,0.077-0.032,0.116
			c-0.13-0.016-0.259-0.031-0.388-0.051c-0.582-0.082-1.162-0.095-1.729-0.046c-0.955-0.099-1.913-0.206-2.872-0.261
			c-1.571-0.09-3.103-0.128-4.608,0.004c0.073-0.035,0.148-0.071,0.219-0.104c0.521-0.254,1.164-0.366,1.641-0.688
			c0.02-0.304,0.09-0.605,0.185-0.86c-0.065-0.613-0.026-1.238-0.003-1.852c0.021-0.631,0.125-1.178,0.198-1.793
			c0.043-0.383,0.123-0.714,0.161-1.067c-0.077,0.001-0.153-0.045-0.152-0.143l0.041-2.689c0.008-0.494-0.075-0.797-0.326-1.219
			c-0.219-0.364-0.251-0.815-0.476-1.192c-0.284-0.475-0.834-1.069-0.921-1.619c-0.06-0.387-0.299-0.727-0.594-0.975
			c-0.279-0.235-0.251-0.858-0.475-1.132c-0.007-0.009,0.006-0.02,0.013-0.011c0.17,0.23,0.221,0.418,0.29,0.692
			c0.083,0.326,0.632,0.58,0.695,0.911c0.144,0.765,0.696,1.427,1.106,2.069c0.242,0.381,0.316,0.773,0.509,1.174
			c0.077,0.16,0.17,0.276,0.245,0.398c-0.066-0.974-0.184-1.941-0.18-2.92c0.002-1.291,0.153-2.582-0.18-3.843
			c-0.338-1.274-0.472-2.687-1.26-3.783c-0.32-0.446-0.617-0.902-0.871-1.39c-0.336-0.642-0.461-1.354-0.849-1.974
			c-0.006-0.009,0.008-0.017,0.015-0.007c0.276,0.46,0.48,0.93,0.662,1.436c0.243,0.678,0.719,1.274,1.152,1.839
			c0.595,0.776,0.856,1.685,1.103,2.618c0.258,0.984,0.611,1.915,0.63,2.942c0.024,1.253,0.009,2.515,0.155,3.761
			c0.146,1.229,0.28,2.422,0.308,3.663c0.02,0.944,0.193,1.89-0.16,2.806c-0.168,0.439-0.162,0.924-0.162,1.4
			c0.104-0.327,0.202-0.657,0.286-1c0.144-0.589,0.172-1.143,0.303-1.682c-0.001-0.499,0.042-1.007,0.055-1.499
			c0.011-0.527,0.097-1.05,0.103-1.578c0.005-0.318-0.193-0.907-0.244-1.301c-0.173-1.349-0.102-2.737-0.194-4.095
			c-0.083-1.233-0.063-2.459-0.098-3.692c-0.036-1.229-0.415-2.451-0.398-3.667c0.013-1.007-0.338-1.939-0.481-2.924
			c-0.178-1.22-0.395-2.414-0.614-3.622c-0.323-1.773-0.874-3.498-1.427-5.217c-1.049-0.621-1.893-1.44-2.899-2.121
			c-0.485-0.328-1.087-0.561-1.647-0.736c-0.567-0.177-1.14-0.128-1.706-0.327c-1.103-0.389-2.061-1.136-3.119-1.625
			c-1.059-0.489-2.279-0.336-3.348-0.877c-1.045-0.53-1.606-1.289-2.427-2.069c-0.351-0.334-0.625-0.701-0.825-1.141
			c-0.2-0.437-1.571,0.402-1.783,0.519c-0.605,0.336-1.146,0.76-1.65,1.23c-0.499,0.467-0.834,1.087-1.306,1.58
			C22.056,60.294,21.984,60.229,22.022,60.19z"/>
	</g>
	<g>
		<path fill="#81B727" d="M74.346,41.99c-1.959,0.025-0.685,3.668,3.27,4.629C77.873,43.429,75.996,39.728,74.346,41.99z"/>
		<path fill="#4E652F" d="M74.425,41.935c-0.13,0.123,1.338,2.283,3.211,4.67C76.348,44.475,74.56,41.811,74.425,41.935z"/>
	</g>
	<g>
		<path fill="#81B727" d="M52.482,53.36c0.021,1.747,3.274,0.608,4.133-2.919C53.766,50.208,50.463,51.886,52.482,53.36z"/>
		<path fill="#4E652F" d="M52.434,53.289c0.108,0.116,2.038-1.194,4.168-2.866C54.7,51.572,52.322,53.17,52.434,53.289z"/>
	</g>
	<g>
		<path fill="#81B727" d="M49.72,54.949c1.282,0.907,2.173-2.059,0.059-4.543C48.108,52.354,47.583,55.64,49.72,54.949z"/>
		<path fill="#4E652F" d="M49.641,54.948c0.144-0.019,0.209-2.113,0.12-4.542C49.591,52.393,49.496,54.967,49.641,54.948z"/>
	</g>
	<g>
		<path fill="#81B727" d="M77.411,37.618c0.115,1.567,2.968,0.368,3.546-2.842C78.389,34.724,75.52,36.407,77.411,37.618z"/>
		<path fill="#4E652F" d="M77.362,37.557c0.104,0.098,1.763-1.182,3.582-2.796C79.302,35.894,77.257,37.456,77.362,37.557z"/>
	</g>
	<g>
		<path fill="#81B727" d="M73.817,32.255c1.058,1.162,2.565-1.541,1.039-4.424C72.805,29.373,71.582,32.468,73.817,32.255z"/>
		<path fill="#4E652F" d="M73.742,32.236c0.144,0.015,0.659-2.016,1.097-4.409C74.243,29.731,73.597,32.224,73.742,32.236z"/>
	</g>
	<g>
		<path fill="#81B727" d="M73.075,33.887c1.353-0.798-0.988-2.824-4.12-1.917C70.045,34.293,72.829,36.118,73.075,33.887z"/>
		<path fill="#4E652F" d="M73.041,33.958c0.043-0.138-1.84-1.057-4.094-1.971C70.689,32.957,72.999,34.097,73.041,33.958z"/>
	</g>
	<g>
		<path fill="#81B727" d="M74.698,34.037c0.191,0.943,1.835-0.003,1.938-2C75.073,32.201,73.456,33.445,74.698,34.037z"/>
		<path fill="#4E652F" d="M74.665,34.003c0.072,0.052,0.981-0.854,1.964-1.975C75.718,32.844,74.592,33.95,74.665,34.003z"/>
	</g>
	<g>
		<path fill="#81B727" d="M21.392,61.186c-0.191-1.56-2.985-0.225-3.405,3.011C20.551,64.124,23.337,62.304,21.392,61.186z"/>
		<path fill="#4E652F" d="M21.441,61.243C21.333,61.15,19.739,62.51,18,64.21C19.585,62.999,21.552,61.339,21.441,61.243z"/>
	</g>
	<g>
		<path fill="#81B727" d="M22.94,60.282c-1.565-0.129-0.827,2.877,2.256,3.946C25.646,61.702,24.431,58.604,22.94,60.282z"/>
		<path fill="#4E652F" d="M23.008,60.245c-0.114,0.088,0.892,1.925,2.204,3.975C24.348,62.42,23.124,60.157,23.008,60.245z"/>
	</g>
	<g>
		<path fill="#81B727" d="M21.7,59.223c0.391-0.88-1.499-1.058-2.737,0.513C20.335,60.505,22.373,60.424,21.7,59.223z"/>
		<path fill="#4E652F" d="M21.71,59.27c-0.028-0.084-1.294,0.13-2.745,0.477C20.182,59.608,21.738,59.354,21.71,59.27z"/>
	</g>
	<g>
		<path fill="#81B727" d="M71.377,64.688c0.034-1.571,2.947-0.522,3.69,2.653C72.508,67.527,69.553,65.994,71.377,64.688z"/>
		<path fill="#4E652F" d="M71.333,64.751c0.099-0.104,1.822,1.087,3.723,2.605C73.355,66.311,71.233,64.856,71.333,64.751z"/>
	</g>
	<g>
		<path fill="#81B727" d="M57.857,27.209c-0.945-0.339,0.281-1.89,2.354-1.696C59.807,27.101,58.279,28.58,57.857,27.209z"/>
		<path fill="#4E652F" d="M57.887,27.249c-0.043-0.082,1.029-0.883,2.334-1.726C59.242,26.34,57.93,27.331,57.887,27.249z"/>
	</g>
	<g>
		<path fill="#81B727" d="M69.324,65.242c1.481-0.522,1.529,2.572-1.182,4.39C67.066,67.301,67.457,63.997,69.324,65.242z"/>
		<path fill="#4E652F" d="M69.25,65.224c0.133,0.057-0.376,2.089-1.125,4.401C68.504,67.667,69.114,65.166,69.25,65.224z"/>
	</g>
	<g>
		<path fill="#81B727" d="M69.625,63.233c-0.862-0.43,0.479-1.771,2.434-1.354C71.494,63.347,69.873,64.586,69.625,63.233z"/>
		<path fill="#4E652F" d="M69.648,63.275c-0.032-0.084,1.078-0.728,2.417-1.386C71.042,62.559,69.68,63.357,69.648,63.275z"/>
	</g>
	<g>
		<path fill="#81B727" d="M28.189,37.662c-1.325-1.444-3.191,1.936-1.272,5.522C29.467,41.251,30.974,37.383,28.189,37.662z"/>
		<path fill="#4E652F" d="M28.282,37.683c-0.178-0.015-0.811,2.519-1.341,5.506C27.671,40.811,28.464,37.7,28.282,37.683z"/>
	</g>
	<g>
		<path fill="#81B727" d="M26.611,35.925c1.443-1.325-1.937-3.191-5.522-1.272C23.021,37.204,26.888,38.71,26.611,35.925z"/>
		<path fill="#4E652F" d="M26.589,36.019c0.016-0.179-2.52-0.81-5.506-1.343C23.461,35.407,26.572,36.201,26.589,36.019z"/>
	</g>
	<g>
		<path fill="#81B727" d="M56.701,29.268c1.375,0.059,0.626-2.545-2.105-3.376C54.286,28.118,55.455,30.786,56.701,29.268z"/>
		<path fill="#4E652F" d="M56.644,29.302c0.098-0.08-0.847-1.653-2.063-3.402C55.397,27.445,56.545,29.384,56.644,29.302z"/>
	</g>
	<g>
		<path fill="#81B727" d="M37.13,51.785c1.441-1.002-1.334-3.065-4.748-1.792C33.791,52.488,37.042,54.291,37.13,51.785z"/>
		<path fill="#4E652F" d="M37.1,51.865c0.036-0.157-2.139-1.022-4.725-1.853C34.397,50.946,37.063,52.024,37.1,51.865z"/>
	</g>
	<g>
		<path fill="#81B727" d="M59.129,65.584c1.229,1.253,2.799-1.827,0.974-4.979C57.876,62.409,56.643,65.915,59.129,65.584z"/>
		<path fill="#4E652F" d="M59.043,65.567c0.162,0.01,0.653-2.279,1.039-4.969C59.498,62.75,58.881,65.559,59.043,65.567z"/>
	</g>
	<g>
		<path fill="#81B727" d="M50,35.011c1.092,0.034,0.473-2.029-1.706-2.665C48.068,34.118,49.021,36.229,50,35.011z"/>
		<path fill="#4E652F" d="M49.955,35.04c0.075-0.065-0.689-1.308-1.672-2.686C48.946,33.573,49.876,35.105,49.955,35.04z"/>
	</g>
	<g>
		<path fill="#81B727" d="M67.424,9.48c0.394,1.02,2.052-0.355,1.787-2.61C67.49,7.354,65.92,9.058,67.424,9.48z"/>
		<path fill="#4E652F" d="M67.38,9.45c0.091,0.045,0.936-1.145,1.819-2.587C68.335,7.949,67.29,9.404,67.38,9.45z"/>
	</g>
	<g>
		<path fill="#81B727" d="M31.167,32.14c0.646,0.883,1.891-0.877,1.046-2.986C30.679,30.068,29.604,32.122,31.167,32.14z"/>
		<path fill="#4E652F" d="M31.117,32.122c0.098,0.02,0.605-1.349,1.084-2.973C31.648,30.424,31.017,32.101,31.117,32.122z"/>
	</g>
	<g>
		<path fill="#81B727" d="M46.377,18.218c0.443,1.237,2.475-0.366,2.222-3.082C46.52,15.667,44.583,17.666,46.377,18.218z"/>
		<path fill="#4E652F" d="M46.324,18.18c0.107,0.056,1.157-1.345,2.262-3.052C47.516,16.407,46.216,18.123,46.324,18.18z"/>
	</g>
	<g>
		<path fill="#81B727" d="M45.352,18.982c1.137-0.241-0.024-2.212-2.435-2.316C43.134,18.551,44.654,20.487,45.352,18.982z"/>
		<path fill="#4E652F" d="M45.312,19.023c0.063-0.086-1.04-1.174-2.405-2.346C43.901,17.767,45.25,19.11,45.312,19.023z"/>
	</g>
	<g>
		<path fill="#81B727" d="M35.574,37.4c1.325,1.442,3.191-1.937,1.273-5.523C34.296,33.809,32.79,37.675,35.574,37.4z"/>
		<path fill="#4E652F" d="M35.481,37.376c0.179,0.018,0.811-2.519,1.342-5.505C36.092,34.25,35.3,37.36,35.481,37.376z"/>
	</g>
	<g>
		<path fill="#81B727" d="M46.211,25.776c-0.084,1.957,3.626,0.888,4.805-3.005C47.846,22.334,44.045,24.003,46.211,25.776z"/>
		<path fill="#4E652F" d="M46.162,25.694c0.113,0.138,2.354-1.208,4.84-2.944C48.805,23.915,46.045,25.555,46.162,25.694z"/>
	</g>
	<g>
		<path fill="#81B727" d="M58.412,29.261c-1.555,1.19,1.645,3.351,5.388,1.761C62.103,28.308,58.387,26.463,58.412,29.261z"/>
		<path fill="#4E652F" d="M58.443,29.17c-0.031,0.177,2.437,1.032,5.364,1.83C61.504,30.059,58.477,28.991,58.443,29.17z"/>
	</g>
	<g>
		<path fill="#81B727" d="M37.956,20.952c1.958,0.084,0.888-3.625-3.005-4.805C34.514,19.319,36.182,23.117,37.956,20.952z"/>
		<path fill="#4E652F" d="M37.874,21.002c0.136-0.115-1.208-2.353-2.944-4.842C36.094,18.358,37.733,21.119,37.874,21.002z"/>
	</g>
	<g>
		<path fill="#81B727" d="M65.043,9.489C66.357,8.485,63.657,6.658,60.495,8C61.928,10.292,65.064,11.854,65.043,9.489z"/>
		<path fill="#4E652F" d="M65.017,9.566c0.026-0.149-2.058-0.873-4.527-1.547C62.434,8.814,64.989,9.717,65.017,9.566z"/>
	</g>
	<g>
		<path fill="#81B727" d="M67.988,15.205c-1.442,1.325,1.937,3.191,5.522,1.271C71.578,13.926,67.712,12.419,67.988,15.205z"/>
		<path fill="#4E652F" d="M68.011,15.111c-0.016,0.179,2.519,0.811,5.506,1.342C71.138,15.724,68.027,14.93,68.011,15.111z"/>
	</g>
</g>
</svg>
