 

<svg xmlns:agg="http://www.example.com" xmlns="http://www.w3.org/2000/svg" preserveAspectRatio="none" width="1.6083in" height="0.5876in" viewBox="0 0 999 365">

<path style="fill:#998c7f" d="M28,337 l10,-20 63,-29 50,0 63,-30 59,-59 64,-19 59,-34 24,-64 60,-25 53,-29 54,34 40,79 54,49 59,19 39,30 103,24 39,40 39,19 10,15 -942,0z" />
<path style="fill:#8c8c7f" d="M28,337 l10,-20 63,-29 50,0 63,-30 59,-59 123,-24 19,29 45,-9 49,-25 34,-78 79,78 59,29 0,-9 59,19 39,30 103,24 39,40 39,19 10,15 -942,0z" />
<path style="fill:#828a78" d="M28,337 l10,-20 65,-28 48,4 67,-26 64,-44 108,-20 31,20 48,-13 53,-14 45,-60 78,60 58,21 12,-5 57,19 36,20 79,17 39,39 -57,18 -40,12 -801,0z" />
<path style="fill:#788a70" d="M28,337 l10,-20 68,-26 45,6 72,-21 68,-28 93,-17 42,10 52,-15 56,-3 57,-42 76,42 57,11 26,0 55,18 31,12 85,39 20,13 -165,11 -88,9 -660,1z" />
<path style="fill:#6e8769" d="M28,337 l10,-20 70,-23 43,8 75,-17 74,-12 79,-13 52,0 56,-19 60,8 67,-22 76,22 56,3 38,5 53,17 28,3 56,26 30,20 -267,7 -137,6 -519,1z" />
<path style="fill:#638761" d="M28,337 l10,-20 72,-22 41,12 79,-13 79,3 64,-9 63,-10 60,-21 64,19 78,-4 74,4 55,-6 51,10 51,15 24,-6 67,33 1,8 -369,3 -186,3 -378,1z" />
<path style="fill:#598559" d="M28,337 l10,-20 73,-19 40,14 83,-9 83,19 49,-5 74,-20 64,-24 69,30 88,14 74,-14 54,-15 63,15 49,14 20,-14 39,19 10,15 -942,0z" />
<path style="fill:#666" d="M381,229 l74,-88 -20,-49 30,24 49,-19 -49,68 -84,64z" />
<path style="fill:#666" d="M529,67 l49,34 5,69 49,25 5,39 -69,-49 -39,-118z" />
<path style="fill:#666" d="M465,273 l34,-93 25,-39 -15,63 -44,69z" />
<path style="fill:#060" d="M666,337 l-15,-25 -54,-5 40,-19 63,10 59,-20 0,-20 54,0 34,20 35,-15 39,40 0,34 -88,0 -69,-20 -10,20 -88,0z" />
<path style="fill:#060" d="M695,283 l-98,5 -24,-20 39,-5 49,-14 39,4 15,35 -20,-5z" />
<path style="fill:#060" d="M538,322 l-39,-5 -10,-19 -15,-15 50,-15 49,5 10,30 -45,19z" />
<path style="fill:#060" d="M415,337 l-98,0 10,-25 15,-14 -20,-15 -44,-10 15,-25 73,5 59,35 40,10 24,9 -15,30 -39,0 5,-20 -34,5 9,15z" />
<path style="fill:#060" d="M62,337 l-24,-20 63,-29 25,0 29,5 30,-20 29,-15 44,5 15,30 30,14 -35,15 -14,15 -192,0z" />
<path style="fill:none;stroke:#000;stroke-width:2" d="M28,337 l10,-20 63,-29 50,0 63,-30 59,-59 64,-19 59,-34 24,-64 60,-25 53,-29 54,34 40,79 54,49 59,19 39,30 103,24 39,40 39,19 10,15 -942,0" />

</svg>
