 

<svg xmlns:agg="http://www.example.com" xmlns="http://www.w3.org/2000/svg" preserveAspectRatio="none" width="0.7382in" height="1.0750in" viewBox="0 0 686 999">

<path style="fill:#fff" d="M28,970 l0,-863 79,-79 471,0 79,79 0,863 -629,0z" />
<path style="fill:#f00" d="M28,107 l79,-79 156,0 -235,235 0,-156z" />
<path style="fill:#f00" d="M30,420 l392,-392 156,0 -548,550 0,-158z" />
<path style="fill:#f00" d="M30,735 l627,-628 0,156 -627,628 0,-156z" />
<path style="fill:#f00" d="M107,970 l550,-550 0,158 -394,392 -156,0z" />
<path style="fill:#f00" d="M422,970 l235,-235 -2,156 -77,79 -156,0z" />
<path style="fill:#000;stroke:#000;stroke-width:2" d="M67,145 l551,0 0,177 -551,0 0,-177z" />
<path style="fill:#fff" d="M343,150 l-15,0 -14,0 -14,0 -40,1 -37,1 -34,2 -30,4 -26,5 -29,11 -23,21 -8,22 0,7 0,8 8,29 18,21 26,15 25,8 29,5 33,3 36,2 39,1 13,0 14,0 71,0 40,0 37,-2 34,-3 30,-4 26,-7 29,-14 19,-19 11,-27 1,-8 0,-8 0,-7 -12,-27 -26,-19 -30,-10 -28,-4 -31,-4 -35,-1 -38,-1 -41,-1 -28,0z" />
<path style="fill:#f00" d="M343,156 l-15,0 -13,0 -14,0 -39,0 -36,2 -34,2 -30,3 -26,6 -28,10 -23,19 -8,21 0,7 0,8 8,26 17,20 26,14 25,7 29,5 32,4 36,1 38,1 13,0 14,0 69,0 39,0 36,-1 34,-3 30,-4 26,-7 28,-13 20,-18 10,-25 1,-7 0,-8 0,-7 -11,-26 -26,-17 -30,-10 -28,-4 -31,-3 -34,-2 -38,-1 -39,0 -28,0z" />
<path style="fill:#fff" d="M497,286 l0,-109 31,0 2,0 10,1 8,5 5,8 3,8 1,9 -1,11 -4,9 -6,7 -8,4 6,6 5,9 3,8 2,3 9,21 -18,0 -10,-24 -4,-7 -4,-8 -4,-4 -8,-3 -3,0 0,46 -15,0z" />
<path style="fill:#fff" d="M429,286 l0,-109 55,0 0,18 -40,0 0,25 37,0 0,18 -37,0 0,30 41,0 0,18 -56,0z" />
<path style="fill:#fff" d="M384,246 l0,-18 31,0 0,44 -7,7 -8,5 -9,3 -3,1 -2,0 -2,0 -11,-2 -9,-4 -6,-7 -4,-8 -4,-10 -1,-11 -1,-7 -1,-4 0,-4 1,-12 2,-11 3,-10 4,-9 6,-7 8,-5 7,-2 3,0 2,0 10,2 7,3 8,9 4,9 3,11 -15,3 -3,-9 -6,-7 -10,-1 -8,3 -7,8 -3,9 -1,11 0,14 2,11 3,8 7,7 9,3 9,-2 9,-7 0,-14 -17,0z" />
<path style="fill:#fff" d="M277,286 l0,-109 14,0 30,73 0,-73 14,0 0,109 -15,0 -30,-71 0,71 -13,0z" />
<path style="fill:#fff" d="M268,286 l-15,0 -7,-24 -29,0 -6,24 -15,0 27,-109 16,0 29,109z" />
<path style="fill:#fff" d="M129,177 l27,0 2,0 2,0 9,2 7,5 7,7 4,9 2,10 2,9 0,7 0,3 0,4 0,9 -2,12 -3,10 -4,9 -6,7 -7,4 -8,2 -2,0 -2,0 -28,0 0,-109z" />
<path style="fill:#fff" d="M147,361 l392,0 0,413 -392,0 0,-413z" />
<path style="fill:none;stroke:#f00;stroke-width:2" d="M28,970 l0,-863 79,-79 471,0 79,79 0,863 -629,0" />
<path style="fill:#f00" d="M512,223 l11,0 9,-1 4,0 2,-2 4,-9 -1,-9 -5,-6 -9,-1 -15,0 0,28z" />
<path style="fill:#f00" d="M242,243 l-11,-40 -9,40 20,0z" />
<path style="fill:#f00" d="M144,195 l0,73 11,0 3,0 10,-2 5,-7 2,-8 1,-10 1,-3 0,-3 -1,-12 -1,-10 -3,-7 -5,-7 -9,-3 -1,0 -2,-1 -3,0 -2,0 -6,0z" />

</svg>
