<?xml version="1.0" encoding="utf-8"?>
<!-- Generator: Adobe Illustrator 16.0.0, SVG Export Plug-In . SVG Version: 6.00 Build 0)  -->
<!DOCTYPE svg PUBLIC "-//W3C//DTD SVG 1.1//EN" "http://www.w3.org/Graphics/SVG/1.1/DTD/svg11.dtd">
<svg version="1.1" id="图层_1" xmlns="http://www.w3.org/2000/svg" preserveAspectRatio="none" xmlns:xlink="http://www.w3.org/1999/xlink" x="0px" y="0px"
	 width="100px" height="100px" viewBox="0 0 100 100" enable-background="new 0 0 100 100" xml:space="preserve">
<g>
	<ellipse fill="#C5C1AE" cx="49.769" cy="68.081" rx="48.769" ry="7.864"/>
	<g>
		<path fill="#85C07E" d="M14.522,68.079c0,0-7.869-7.869-3.781-17.474c4.088-9.606,16.351-8.075,16.351-8.075
			s-3.577-10.851,10.014-15.287c13.592-4.435,20.95,9.872,20.95,9.872s0.714-7.152,6.949-6.642c6.233,0.51,3.883,9.197,1.327,11.036
			c0,0,7.052-6.54,11.444-0.919c4.395,5.62-6.642,6.646-6.642,6.646s9.811-1.572,12.978,4.27c3.169,5.846-2.247,8.705-2.247,8.705
			s7.255-2.859,9.198,0.919c1.941,3.782-9.914,6.439-9.914,6.439L14.522,68.079z"/>
		<path fill="#9CCF92" d="M15.553,53.594c3.695-5.455,17.121-6.359,17.121-6.359s-3.568-6.855,1.257-11.471
			c4.825-4.616,17.603-2.098,21.282,4.405c0,0,4.29-2.518,7.342-2.098c3.05,0.42,2.842,7.342,2.842,7.342s0.944-3.356,4.877-2.098
			c3.933,1.259-0.379,5.608-0.379,5.608s6.409-0.154,9.345,3.832c2.937,3.985-1.678,9.857-1.678,9.857s8.731-3.283,9.925,2.87l0,0
			c2.445-1.114,4.471-2.614,3.578-4.354c-1.943-3.778-9.198-0.919-9.198-0.919s5.416-2.859,2.247-8.705
			c-2.681-4.946-10.122-4.577-12.343-4.348c2.278-0.322,9.757-1.771,6.007-6.567c-3.806-4.869-9.601-0.616-11.086,0.61
			c2.399-2.336,4.254-10.24-1.686-10.727c-6.235-0.511-6.949,6.642-6.949,6.642s-7.358-14.307-20.95-9.872
			C23.516,31.679,27.092,42.53,27.092,42.53s-12.263-1.532-16.351,8.075c-4.088,9.605,3.781,17.474,3.781,17.474
			S11.857,59.047,15.553,53.594z"/>
	</g>
</g>
</svg>
