 

<svg xmlns:agg="http://www.example.com" xmlns="http://www.w3.org/2000/svg" preserveAspectRatio="none" width="1.6083in" height="1.0706in" viewBox="0 0 999 665">

<path style="fill:#bf0000" d="M28,617 l18,-22 17,-27 17,-31 19,-33 13,-22 14,-23 6,-28 -2,-32 -2,-31 0,-30 3,-34 5,-29 10,-31 8,29 2,33 4,27 5,9 27,-13 13,-27 24,31 8,28 5,30 4,29 5,26 14,27 8,5 10,1 7,-1 16,-31 4,-39 2,-27 3,-37 7,-22 -6,-46 -4,-36 -1,-28 0,-31 5,-8 2,0 21,21 15,15 3,1 2,-1 1,-2 2,-3 29,-2 27,-7 20,-19 3,-32 1,-34 5,-35 11,-26 18,-18 4,-3 0,7 3,27 8,25 8,25 10,25 8,28 5,31 0,36 -3,31 1,-2 2,1 16,23 2,2 2,0 2,-3 -1,-33 -5,-47 14,24 9,27 4,29 2,30 1,30 0,29 1,35 6,28 17,22 5,2 22,-18 11,-24 7,-34 6,-29 20,-17 11,-26 2,-29 8,28 10,36 6,27 6,28 5,27 4,39 0,11 4,2 3,-1 15,-28 11,-37 7,-26 11,-33 8,-14 -3,-35 7,-25 26,-13 12,-29 -3,-35 15,23 15,24 5,4 2,0 3,-31 5,-29 13,-26 1,-5 10,26 10,36 6,35 2,32 0,32 -1,31 -2,30 0,28 1,28 5,28 8,28 4,-1 9,-31 3,-30 1,-29 3,-27 17,28 6,32 2,28 2,30 1,30 1,28 3,32 6,25 1,3 -6,0 -27,3 -27,2 -27,3 -27,2 -27,2 -27,3 -27,2 -14,2 -7,0 -11,-1 -33,-4 -33,-3 -33,-4 -33,-4 -33,-3 -34,3 -33,4 -33,4 -33,3 -33,4 -33,1 -214,0 -34,-5 -34,-4 -35,-5 -26,-4 -8,-1z" />
<path style="fill:#de4500" d="M38,616 l20,-18 22,-18 23,-23 18,-21 11,-26 5,-28 3,-28 7,-35 8,-29 5,-16 8,28 0,29 7,18 31,0 5,-2 3,-3 1,-4 19,20 11,24 9,31 22,22 26,-11 12,-27 8,-29 10,-20 -5,-36 -2,-29 -1,-32 5,-29 28,1 11,2 1,-1 3,-4 11,22 20,23 25,13 22,-6 0,-33 0,-35 0,-28 8,-22 2,-3 1,11 11,27 18,20 11,30 -2,40 2,-2 1,-1 1,0 7,4 2,-1 2,-28 -2,-30 -3,-21 14,24 8,26 5,26 4,36 6,31 22,24 24,21 9,9 3,-2 5,-29 22,-16 29,-3 13,-5 13,-34 13,25 15,21 15,23 11,24 5,25 2,2 4,-1 15,-28 9,-27 10,-26 9,-18 -3,-27 10,-26 22,-21 2,-29 -2,-15 12,31 7,28 8,30 2,5 0,-2 5,-26 4,-5 15,-3 3,-3 3,-6 13,36 7,27 3,32 -1,35 3,29 9,25 2,0 8,-27 2,-33 3,-20 15,28 4,35 3,38 2,32 3,14 3,4 -11,1 -32,2 -34,2 -34,1 -34,2 -32,2 -33,-2 -28,-1 -31,-1 -32,-1 -31,-1 -28,-1 -28,-2 -32,2 -28,2 -28,1 -28,1 -28,2 -34,2 -31,1 -35,1 -36,2 -27,2 -35,1 -32,1 -14,1 -7,0 -6,0 -28,-3 -34,-6 -26,-4 -32,-5 -7,-1 -7,-1z" />
<path style="fill:#fc0" d="M48,617 l27,-6 32,0 21,-18 15,-22 16,-28 11,-27 4,-11 6,26 5,26 23,14 15,8 1,-2 21,14 28,6 31,-2 27,-10 11,-7 -5,-48 1,-34 9,-29 22,-18 12,-9 4,46 8,35 13,26 22,23 25,11 3,-1 3,-1 1,-1 -3,-32 -9,-32 -9,-24 0,-9 1,-2 2,11 3,1 23,-13 7,-3 3,0 2,2 0,22 5,-27 -1,-32 -3,-25 -2,-14 6,8 16,27 13,25 24,18 2,2 12,29 10,33 7,30 4,13 1,-14 4,-6 34,-8 34,2 30,0 18,-13 1,-9 2,4 26,10 28,5 22,15 1,6 2,1 2,0 15,-22 14,-27 6,-12 0,-33 16,-22 6,-32 -2,-11 6,27 5,39 3,27 3,33 2,14 2,-11 4,-3 26,13 5,2 3,-3 12,26 4,4 1,-1 1,-11 0,-1 1,1 8,17 3,-2 6,-30 2,-11 13,23 3,30 3,11 2,3 -8,0 -43,0 -27,-1 -36,0 -32,0 -33,0 -36,0 -30,0 -31,1 -31,0 -28,1 -39,0 -46,0 -32,-1 -31,-1 -32,1 -33,2 -37,2 -31,3 -32,3 -33,2 -31,3 -28,2 -30,2 -6,0 -5,0 -5,0 -33,-5 -34,-6 -33,-6 -12,-2 -5,0z" />
<path style="fill:#ff0" d="M93,623 l29,-3 24,-10 2,-4 2,-1 3,-1 2,-1 10,-25 3,4 2,2 10,-2 2,0 22,14 6,3 1,-2 23,13 31,-1 34,-2 28,-3 29,-4 6,-3 -3,-30 2,-28 1,-2 3,-1 13,5 2,-1 1,-2 4,29 18,27 24,11 31,-1 14,-5 1,-2 4,-27 3,-3 13,-3 1,7 2,2 22,-11 1,1 0,15 3,-27 -2,-29 -2,-10 15,23 13,22 13,8 -3,30 -4,9 -1,1 -1,0 -1,-12 3,-4 29,-5 30,2 15,-5 2,-4 1,-6 2,2 35,0 30,-3 16,2 2,2 1,4 24,9 34,8 29,4 9,0 2,-2 3,-33 12,-27 6,-30 -1,-8 1,2 7,30 5,31 2,16 -1,-4 1,-6 3,-2 21,10 1,-2 20,21 25,-6 12,12 2,-1 5,-27 4,3 6,25 2,12 2,4 -6,0 -32,0 -29,0 -31,0 -32,-1 -52,0 -29,0 -33,1 -34,2 -36,1 -36,2 -30,1 -31,0 -30,0 -32,-1 -31,1 -30,2 -30,1 -35,2 -36,1 -37,2 -34,2 -30,1 -30,2 -6,0 -4,0 -31,-4 -29,-5 -18,-3 -4,-1z" />

</svg>
