 

<svg xmlns:agg="http://www.example.com" xmlns="http://www.w3.org/2000/svg" preserveAspectRatio="none" width="1.0848in" height="1.0750in" viewBox="0 0 999 990">

<path style="fill:#008040;stroke:#000;stroke-width:2" d="M492,27 l10,38 12,32 12,28 12,25 16,25 25,15 7,1 26,-11 20,-14 21,-22 11,-13 -66,267 -5,30 8,27 5,3 23,-11 22,-20 15,-20 15,-23 16,-21 21,-26 20,-26 14,-20 4,-6 3,32 2,29 6,28 9,7 31,-4 27,-7 23,-8 29,-8 25,-7 5,-1 -15,36 -11,32 -8,27 -3,30 10,23 23,11 35,4 12,0 12,0 -12,10 -26,21 -25,19 -25,19 -25,18 -23,18 -22,14 -23,17 -23,17 -23,19 -15,24 -3,26 8,30 5,15 -32,-2 -27,-6 -27,-5 -33,-9 -28,-6 -32,-7 -27,-2 -5,1 -13,22 0,6 0,195 -38,0 0,-195 -2,-13 -8,-9 -28,-8 -33,5 -27,6 -32,8 -32,9 -26,5 -24,5 -5,0 5,-26 2,-26 -7,-25 -18,-22 -28,-23 -24,-19 -29,-22 -32,-24 -33,-27 -34,-29 -18,-16 -17,-16 4,1 31,2 30,-5 18,-27 -2,-30 -7,-29 -12,-36 -9,-21 -9,-22 25,8 23,9 27,9 32,12 25,7 19,-5 10,-27 -1,-31 -3,-27 -1,-11 20,17 14,21 15,22 15,20 16,25 14,20 17,21 22,22 20,13 5,-2 3,-5 2,-32 -1,-30 -4,-30 -59,-229 22,24 21,17 28,15 30,-5 22,-24 14,-33 8,-27 10,-33 5,-18 6,-20z" />

</svg>
