 

<svg xmlns:agg="http://www.example.com" xmlns="http://www.w3.org/2000/svg" preserveAspectRatio="none" width="0.5875in" height="1.0750in" viewBox="0 0 546 999">

<circle style="fill:#b2b2b2;stroke:#000;stroke-width:2" cx="147" cy="949" r="19" />
<circle style="fill:#d9d9d9" cx="147" cy="951" r="17" />
<circle style="fill:#ededed" cx="150" cy="946" r="11" />
<circle style="fill:#fff" cx="152" cy="943" r="5" />
<circle style="fill:#b2b2b2;stroke:#000;stroke-width:2" cx="335" cy="530" r="38" />
<circle style="fill:#d9d9d9" cx="335" cy="530" r="34" />
<circle style="fill:#ededed" cx="341" cy="521" r="21" />
<circle style="fill:#fff" cx="345" cy="516" r="10" />
<circle style="fill:#b2b2b2;stroke:#000;stroke-width:2" cx="66" cy="660" r="38" />
<circle style="fill:#d9d9d9" cx="66" cy="659" r="33" />
<circle style="fill:#ededed" cx="71" cy="652" r="21" />
<circle style="fill:#fff" cx="76" cy="647" r="11" />
<circle style="fill:#b2b2b2;stroke:#000;stroke-width:2" cx="264" cy="176" r="38" />
<circle style="fill:#d9d9d9" cx="265" cy="176" r="34" />
<circle style="fill:#ededed" cx="271" cy="169" r="21" />
<circle style="fill:#fff" cx="275" cy="164" r="10" />
<circle style="fill:#b2b2b2;stroke:#000;stroke-width:2" cx="105" cy="46" r="19" />
<circle style="fill:#d9d9d9" cx="104" cy="46" r="16" />
<circle style="fill:#ededed" cx="106" cy="42" r="9" />
<circle style="fill:#fff" cx="109" cy="40" r="4" />
<circle style="fill:#b2b2b2;stroke:#000;stroke-width:2" cx="479" cy="268" r="38" />
<circle style="fill:#d9d9d9" cx="478" cy="269" r="34" />
<circle style="fill:#ededed" cx="484" cy="261" r="21" />
<circle style="fill:#fff" cx="488" cy="256" r="10" />
<circle style="fill:#b2b2b2;stroke:#000;stroke-width:2" cx="184" cy="383" r="25" />
<circle style="fill:#d9d9d9" cx="184" cy="382" r="20" />
<circle style="fill:#ededed" cx="187" cy="377" r="12" />
<circle style="fill:#fff" cx="190" cy="375" r="6" />
<circle style="fill:#b2b2b2;stroke:#000;stroke-width:2" cx="405" cy="815" r="38" />
<circle style="fill:#d9d9d9" cx="405" cy="814" r="34" />
<circle style="fill:#ededed" cx="410" cy="806" r="20" />
<circle style="fill:#fff" cx="415" cy="801" r="10" />
<circle style="fill:#b2b2b2;stroke:#000;stroke-width:2" cx="221" cy="762" r="20" />
<circle style="fill:#d9d9d9" cx="221" cy="762" r="18" />
<circle style="fill:#ededed" cx="223" cy="758" r="11" />
<circle style="fill:#fff" cx="225" cy="755" r="5" />

</svg>
