 

<svg xmlns:agg="http://www.example.com" xmlns="http://www.w3.org/2000/svg" preserveAspectRatio="none" width="1.0970in" height="1.0750in" viewBox="0 0 998 978">

<path style="fill:#bf0000;fill-rule:evenodd" d="M776,212 l-2,-5 -2,-5 -1,-3 -1,-3 -1,-3 0,-2 -1,-3 0,-2 0,-3 -1,-3 -1,-3 -1,-4 -2,-5 -2,-6 -3,-7 -4,-8 -1,-6 0,-6 1,-6 2,-7 2,-6 3,-8 3,-7 3,-7 4,-8 3,-7 4,-9 3,-8 4,-8 2,-9 3,-8 2,-9 1,6 1,6 1,6 1,7 1,6 2,6 1,6 1,7 1,6 1,6 1,6 1,6 0,7 1,7 0,6 0,7 -1,9 -2,8 -1,8 -2,6 -2,6 -2,5 -2,5 -2,4 -2,4 -2,3 -2,4 -2,4 -2,4 -2,3 -2,5 -2,5z M611,499 l3,-7 2,-6 1,-5 1,-3 1,-4 0,-3 0,-4 1,-3 0,-4 1,-3 1,-5 1,-6 2,-6 2,-8 4,-10 4,-10 1,-8 0,-8 -1,-8 -2,-9 -2,-9 -3,-9 -4,-10 -3,-10 -4,-10 -4,-11 -4,-10 -3,-11 -4,-11 -3,-12 -2,-11 -2,-12 -1,8 -1,9 -1,8 -2,8 -1,9 -1,8 -2,8 -1,8 -1,9 -1,8 -1,8 -1,9 -1,8 -1,9 0,9 0,9 2,12 1,12 2,9 2,9 2,8 2,6 2,7 2,5 2,5 2,5 2,5 2,5 3,5 2,5 2,6 2,7z M28,663 l0,18 0,18 0,15 1,15 0,13 1,13 1,11 1,10 1,9 1,9 2,8 2,7 1,7 2,5 2,6 3,5 2,5 3,4 3,4 3,4 3,4 3,4 4,3 4,4 4,5 4,4 5,5 5,5 5,6 5,6 5,6 6,8 9,3 9,4 9,3 9,3 8,3 8,3 8,2 8,2 7,3 8,1 7,2 8,1 7,2 8,1 7,1 8,1 8,1 8,1 7,1 9,0 9,1 8,0 9,1 10,0 10,0 10,0 10,1 11,0 12,0 12,0 12,0 14,0 9,-2 9,-2 9,-1 9,-1 8,-1 8,-1 8,-1 7,0 8,0 7,0 7,-1 7,1 7,0 7,0 6,0 6,1 7,0 6,1 7,1 6,0 6,1 6,1 6,0 6,1 7,0 6,1 6,0 7,1 6,0 7,0 7,1 7,0 7,-2 7,-1 7,-1 7,-2 7,-1 7,-1 7,-2 8,-1 6,-1 8,-1 6,-1 8,-2 7,-1 7,-1 7,-2 7,-1 7,-1 7,-2 7,-1 7,-1 7,-1 7,-2 7,-1 7,-1 7,-1 7,-2 7,-1 7,-1 7,-1 7,-2 7,-1 7,-1 12,-5 10,-6 9,-7 8,-8 8,-9 7,-10 7,-10 6,-12 5,-12 6,-12 4,-12 5,-12 4,-13 4,-12 4,-12 4,-12 2,-11 1,-11 1,-10 1,-9 1,-9 0,-9 0,-7 0,-8 0,-8 0,-7 -1,-7 0,-7 -1,-7 0,-7 -1,-7 -1,-7 0,-7 0,-8 -1,-7 0,-9 0,-8 1,-9 0,-10 1,-10 1,-11 1,-11 2,-12 2,-13 2,-14 2,-15 4,-16 3,-16 -4,5 -4,8 -5,10 -5,13 -6,12 -5,13 -6,14 -6,12 -6,10 -5,9 -6,6 -5,3 -5,-1 -5,-6 -5,-10 -4,-17 -2,16 -2,14 -2,14 -2,13 -2,13 -3,12 -2,11 -3,11 -3,11 -3,9 -2,9 -3,9 -3,7 -3,8 -3,6 -3,6 -2,6 -3,5 -3,4 -3,4 -3,3 -3,2 -2,2 -3,1 -3,1 -2,0 -2,0 -3,-2 -2,-1 -2,-3 -3,-3 -2,-3 -5,-15 -4,-15 -4,-14 -3,-13 -2,-13 -1,-12 -1,-12 0,-11 1,-11 0,-10 2,-10 1,-10 2,-9 2,-9 3,-8 2,-8 2,-7 3,-7 2,-7 2,-6 2,-7 2,-6 2,-5 1,-6 1,-5 0,-5 0,-4 0,-5 -2,-4 -1,-5 -3,-4 -4,-3 -4,-11 -4,-10 -5,-9 -5,-8 -5,-8 -5,-7 -5,-8 -5,-9 -5,-9 -4,-10 -4,-11 -3,-13 -3,-15 -2,-16 -2,-19 0,-22 -1,5 -1,5 -1,7 -1,7 -1,8 0,8 -1,8 0,9 -1,9 0,9 -1,9 0,9 0,10 -1,8 -1,9 0,8 -1,8 -1,7 -1,7 -1,6 -1,5 -1,4 -2,3 -1,3 -2,1 -2,0 -3,-1 -2,-2 -3,-4 -3,-6 -3,-7 -4,-8 -3,-5 -2,-6 -3,-5 -2,-5 -3,-5 -2,-5 -3,-5 -3,-5 -5,11 -5,12 -4,13 -4,13 -4,13 -2,13 -3,14 -3,13 -2,13 -1,14 -2,13 -1,13 -1,13 -2,13 -1,12 -1,11 -1,12 -1,10 -1,11 -1,9 -1,9 -1,8 -2,7 -2,6 -3,6 -2,4 -3,3 -4,2 -4,1 -4,-1 -5,-1 -6,-4 -10,-15 -8,-14 -7,-14 -5,-14 -4,-13 -2,-13 -1,-12 -1,-12 0,-12 0,-12 0,-12 1,-12 0,-12 -1,-12 -1,-13 -2,-12 -3,2 -4,5 -4,6 -4,7 -4,8 -4,8 -3,8 -4,7 -4,6 -4,3 -4,2 -3,-1 -4,-4 -4,-8 -4,-12 -4,-17 0,-10 -1,-9 -1,-10 0,-10 -1,-9 -1,-10 0,-9 -1,-10 -1,-9 0,-10 -1,-10 -1,-9 0,-10 -1,-10 -1,-9 0,-10 -1,-9 0,-10 -1,-9 -1,-10 0,-10 -1,-9 -1,-10 0,-9 -1,-10 -1,-10 0,-9 -1,-10 -1,-10 0,-9 -1,-10 0,-9 -2,4 -2,5 -2,7 -1,8 -2,7 -1,9 -2,9 -1,10 -1,10 -2,10 -1,10 -1,11 -2,10 -1,10 -1,9 -1,9 -2,8 -1,8 -2,7 -2,6 -2,4 -2,4 -2,2 -2,1 -2,0 -3,-2 -2,-4 -3,-6 -3,-8 -4,-9 -3,-12 -4,-14 0,7 1,8 0,8 0,9 1,9 0,9 0,9 1,10 0,10 1,10 0,10 0,9 1,10 0,9 0,10 0,8 0,9 0,9 -1,7 0,8 -1,6 -1,6 0,6 -2,4 -1,4 -2,3 -2,2 -3,1 -3,1 -3,-1 -3,-2 -3,-3 -7,-5 -5,-1 -5,1 -5,3 -4,4 -5,5 -4,5 -4,3 -4,1 -5,0 -4,-5 -5,-8 -6,-12 -6,-18 -6,-25 -7,-30 -3,7 -3,8 -2,7 -3,8 -2,8 -3,8 -2,7 -3,8 -3,8 -2,7 -3,8 -2,8 -3,8 -2,7 -3,8 -2,7 3,15 2,11 0,9 0,7 -1,5 -2,3 -3,2 -4,0 -4,-1 -5,-2 -5,-3 -5,-4 -7,-4 -5,-4 -7,-4 -6,-4 -6,-4 -6,-3 -6,-2 -6,-1 -5,-1 -4,2 -4,2 -4,4 -2,7 -2,8 -1,11 0,13 1,16 3,19 4,22 5,25 -6,-8 -5,-5 -5,-4 -6,-3 -6,-2 -5,-1 -5,-2 -6,-3 -5,-4 -5,-7 -6,-8 -5,-12 -5,-14 -4,-19 -4,-23 -4,-29 -4,-7 -4,-8 -4,-7 -4,-8 -4,-8 -4,-8 -3,-7 -4,-8 -4,-8 -4,-7 -4,-8 -3,-8 -4,-8 -4,-7 -4,-8 -4,-7 2,20 2,19 1,17 1,16 0,15 1,13 0,12 0,12 -1,10 0,9 -1,9 0,8 -1,6 -1,7 -2,6 -1,5 -1,5 -2,5 -1,4 -1,4 -2,4 -2,4 -1,4 -1,5 -2,4 -1,5 -1,5 -2,5 -1,6 -1,7 -1,7 0,8z M315,397 l3,-7 2,-6 1,-5 1,-4 1,-3 0,-4 1,-3 0,-3 0,-4 1,-4 1,-4 1,-6 2,-7 3,-8 3,-9 4,-11 1,-8 0,-7 -1,-9 -2,-8 -2,-9 -3,-9 -3,-10 -4,-10 -4,-10 -3,-11 -4,-10 -4,-11 -3,-12 -3,-11 -3,-12 -2,-11 0,8 -2,8 -1,9 -1,8 -2,8 -1,9 -1,8 -2,8 -1,9 -1,8 -1,8 -1,9 -1,8 -1,9 0,9 0,8 2,13 1,11 2,10 2,9 2,7 2,7 2,6 3,6 1,5 3,5 2,5 2,5 2,5 2,5 2,6 2,7z " />
<path style="fill:#de4500" d="M49,728 l1,49 2,35 8,33 17,25 19,20 16,19 27,10 29,9 28,6 29,3 33,2 31,0 36,0 31,-4 35,-1 28,1 28,2 28,2 27,3 35,4 30,2 12,1 6,0 6,0 31,-5 31,-5 35,-6 26,-4 27,-5 26,-4 32,-5 27,-5 27,-9 20,-18 14,-24 12,-27 9,-28 7,-26 3,-29 0,-28 -2,-32 -1,-29 2,-29 3,-27 6,-33 3,-13 -3,4 -11,23 -12,29 -13,23 -4,5 -4,2 -4,-1 -10,-24 -6,42 -8,35 -8,28 -13,28 -12,13 -4,0 -3,-1 -7,-8 -27,-22 -13,-25 -2,-27 3,-27 7,-26 7,-35 -9,-32 -14,-25 -13,-25 -7,-25 -4,-38 0,-16 -4,29 -2,40 -3,37 -6,21 -2,1 -4,-2 -12,-23 -15,-22 -2,-3 -12,27 -11,29 -10,29 -10,29 -9,28 -9,25 -12,26 -20,20 -16,-3 -15,-22 -11,-30 -3,-28 1,-36 -3,-36 -3,2 -16,30 -14,30 -14,21 -5,3 -4,0 -4,-4 -6,-26 -1,-28 0,-33 1,-33 0,-32 1,-34 -1,-34 0,-7 0,-7 -2,3 -7,30 -6,33 -5,27 -7,33 -8,24 -4,8 -5,2 -2,0 -13,-27 -3,-10 -13,26 -6,28 -8,24 -3,1 -4,0 -18,-23 -9,-16 -4,-3 -4,-1 -3,1 -8,15 -1,1 -2,-1 -10,-32 -9,-41 -11,23 -14,23 -15,23 -11,23 5,26 -2,9 -2,2 -3,2 -24,-9 -26,-12 -26,10 -2,36 4,31 4,18 -25,-15 -30,-11 -16,-25 -8,-31 -6,-26 -11,-23 -12,-23 -11,-23 -9,-17 3,29 2,46 0,32 -5,30 -8,26 -6,24 -1,11z" />
<ellipse style="fill:#fc0" cx="778" cy="132" rx="13" ry="45" />
<ellipse style="fill:#fc0" cx="609" cy="392" rx="13" ry="60" />
<ellipse style="fill:#fc0" cx="313" cy="290" rx="13" ry="60" />
<path style="fill:#fc0" d="M70,794 l0,32 4,31 13,24 21,21 6,7 25,10 30,7 31,3 30,0 29,0 29,-2 29,1 34,3 36,3 36,3 36,3 34,4 28,3 29,2 5,1 4,0 28,-5 33,-5 30,-4 32,-5 33,-5 31,-5 29,-4 32,-5 26,-6 21,-19 13,-28 8,-24 4,-26 0,-30 -1,-29 1,-29 5,-26 3,-16 -2,3 -12,27 -14,25 -3,1 -2,0 -7,-16 -4,28 -7,32 -12,27 -8,9 -2,0 -7,-6 -37,13 -22,-2 -6,-5 -5,-29 6,-37 5,-32 0,-8 -10,-24 -10,-25 -4,-27 0,-9 0,-10 -1,5 -3,31 -2,33 -3,14 -2,1 -15,-21 -12,-11 -13,24 -17,25 -18,25 -20,23 -20,19 -28,18 -15,2 -6,-2 -15,-28 -4,-30 1,-30 -2,-12 -14,25 -10,23 -11,25 -12,23 -15,19 -3,1 -4,-2 -1,-28 8,-34 8,-25 8,-25 8,-25 7,-35 1,-20 -9,24 -10,14 -2,1 -3,-1 -12,-26 -4,-14 -31,19 -18,25 -16,29 -15,25 -16,14 -8,2 -9,-3 -20,-25 -11,-23 -3,-2 -3,-1 -13,11 -2,0 -2,0 -13,-33 -4,-15 -9,26 -8,27 -3,7 1,23 -4,6 -33,9 -29,6 -20,23 -2,33 3,23 -22,-21 -19,-20 -12,-24 -8,-37 -12,-22 -13,-26 -5,-12 2,35 0,35 -5,29 -7,24 0,7z" />
<path style="fill:#ff0" d="M132,849 l2,31 13,24 11,12 36,8 40,6 29,3 28,2 38,3 10,0 8,0 29,-3 29,-2 34,-1 35,-1 33,-1 29,0 29,-1 37,-4 36,-3 37,-3 29,-3 26,-6 28,-11 4,-5 7,-15 3,-3 32,-2 20,-18 3,-9 -2,2 -24,10 -28,0 -8,-12 -11,25 -24,7 -24,-9 -2,-2 -23,11 -24,11 -4,1 -2,0 0,-1 -5,-11 -10,-25 -2,-27 -3,32 -3,17 -1,0 -1,-1 -14,-17 -26,19 -34,-2 -24,-8 -9,-5 -10,-23 0,-31 -1,-4 -13,26 -12,28 -12,24 -9,11 -3,-1 -5,-25 -9,-29 -11,-32 -10,-30 -7,-31 -9,21 -3,2 -4,-3 -3,-7 -4,-14 -3,0 -10,27 0,32 3,36 3,33 2,29 -1,5 -1,1 -1,-1 -15,-23 -20,-24 -19,-28 -12,-26 -5,-19 -14,28 -14,26 -12,25 -1,3 1,7 -2,3 -25,-11 -27,-18 -22,-9 -5,1 -3,5 1,22 -22,-21 -11,-24 -10,-28 -11,-22 2,29 -3,29 -4,13 -1,5z" />

</svg>
