 

<svg xmlns:agg="http://www.example.com" xmlns="http://www.w3.org/2000/svg" preserveAspectRatio="none" width="0.5380in" height="1.0750in" viewBox="0 0 500 999">

<path style="fill:#808000;stroke:#000;stroke-width:2" d="M179,681 l-19,-17 -22,-14 -23,-15 -20,-17 -16,-25 -10,-25 -10,-33 -7,-27 -6,-30 -6,-33 -5,-33 -4,-34 -2,-34 -1,-16 0,-16 0,-16 2,-29 7,-36 13,-26 29,-14 27,17 11,30 4,27 3,30 1,31 1,34 1,34 1,31 2,30 5,27 11,31 28,17 20,-4 3,-32 4,-30 4,-31 3,-30 4,-30 4,-28 3,-29 3,-27 5,-38 3,-37 3,-34 2,-32 0,-28 1,-34 7,-29 15,-20 17,-8 7,-1 7,0 24,8 16,23 4,27 1,35 -1,32 -2,36 -3,40 -2,28 -4,30 -3,31 -3,32 -4,33 -4,34 -4,35 -4,35 -4,36 -3,37 -4,37 17,1 14,-5 23,-26 16,-41 7,-24 6,-26 6,-25 13,-49 15,-39 20,-22 14,-3 21,16 8,26 2,23 1,12 -1,14 -2,28 -5,30 -6,30 -8,29 -9,29 -10,26 -11,23 -17,26 -25,15 -27,5 -26,9 -26,13 -19,12 -3,35 -2,34 -1,34 -1,33 0,33 0,33 1,33 1,16 1,15 -98,0 -3,-34 -1,-36 -1,-35 0,-36 0,-37 2,-37 2,-37 2,-37z" />

</svg>
