 

<svg xmlns:agg="http://www.example.com" xmlns="http://www.w3.org/2000/svg" preserveAspectRatio="none" width="1.0777in" height="1.0750in" viewBox="0 0 806 804">

<circle style="fill:#f00;stroke:#000;stroke-width:2" cx="403" cy="402" r="381" />
<path style="fill:#fff;stroke:#000;stroke-width:2" d="M641,581 l14,-20 13,-21 10,-21 9,-22 7,-23 4,-24 3,-24 1,-13 0,-12 -1,-30 -5,-29 -7,-28 -9,-27 -13,-26 -15,-25 -17,-23 -20,-22 -22,-20 -23,-17 -25,-15 -26,-13 -27,-9 -28,-7 -30,-5 -15,-1 -15,0 -25,1 -24,3 -23,4 -23,7 -22,8 -22,11 -21,12 -10,7 -10,7 417,417z" />
<path style="fill:#fff;stroke:#000;stroke-width:2" d="M582,641 l-417,-418 -14,21 -13,21 -11,22 -8,22 -7,22 -5,23 -3,23 -1,12 0,12 2,31 4,30 7,28 11,27 12,26 15,25 18,23 20,22 22,20 24,17 24,15 26,13 27,10 29,7 29,5 16,1 15,0 24,-1 24,-3 23,-5 23,-6 22,-9 21,-10 21,-12 10,-7 10,-7z" />
<path style="fill:#7f7f7f;stroke:#000;stroke-width:2" d="M477,208 l-14,17 -3,7 1,3 8,4 7,1 9,1 10,1 10,1 8,2 5,2 3,3 1,3 -1,4 -4,5 -6,5 -10,8 -7,7 -4,6 -2,5 1,4 4,3 7,3 9,2 10,2 9,3 9,4 7,5 6,6 6,6 4,7 4,8 -28,0 -2,-7 -3,-6 -3,-6 -4,-4 -5,-3 -5,-3 -6,-1 -7,-1 -7,-1 -6,-2 -5,-3 -7,-7 -2,-5 -2,-6 1,-10 3,-6 7,-5 5,-3 6,-6 4,-4 1,-7 -7,-4 -6,-2 -8,-1 -10,-1 -10,-1 -7,-1 -6,-1 -3,-2 -2,-2 1,-3 3,-3 5,-4 28,-17z" />
<path style="fill:#7f7f7f;stroke:#000;stroke-width:2" d="M514,199 l7,-4 6,-2 6,-2 6,0 10,2 5,3 5,4 4,5 3,4 2,10 -1,6 -2,5 -3,5 -5,6 -5,8 -2,7 -1,6 2,6 5,6 6,4 9,4 12,3 11,3 9,5 6,6 4,7 1,8 -1,10 -3,10 -6,12 -22,0 4,-9 3,-7 3,-6 1,-6 -3,-7 -3,-4 -5,-4 -6,-6 -8,-6 -8,-6 -6,-5 -5,-6 -4,-7 -2,-7 0,-9 1,-8 3,-10 4,-10 4,-8 1,-6 -1,-5 -4,-4 -6,-2 -8,-1 -10,0 -13,2z" />
<path style="fill:#000;stroke:#000;stroke-width:2" d="M147,364 l164,0 55,62 -219,0 0,-62z" />
<path style="fill:#000;stroke:#000;stroke-width:2" d="M490,427 l-62,-63 125,0 0,63 -63,0z" />
<path style="fill:#f00;stroke:#000;stroke-width:2" d="M568,364 l16,0 0,62 -16,0 0,-62z" />
<path style="fill:#f00;stroke:#000;stroke-width:2" d="M599,364 l16,0 0,62 -16,0 0,-62z" />

</svg>
