 

<svg xmlns:agg="http://www.example.com" xmlns="http://www.w3.org/2000/svg" preserveAspectRatio="none" width="0.9685in" height="1.0750in" viewBox="0 0 900 999">

<path style="fill:#008040;fill-rule:evenodd" d="M347,77 l-4,-1 -5,-1 -5,0 -5,-1 -5,-1 -3,-2 -3,-2 -1,-5 6,-1 8,-2 8,-2 9,-2 8,-3 8,-3 7,-3 7,-4 6,-6 8,-4 7,-3 9,-3 8,-1 10,1 9,1 10,2 5,0 5,0 6,0 6,-1 6,0 7,-1 6,0 7,-1 7,0 6,0 6,0 6,1 5,0 5,1 5,2 4,1 -2,5 -4,3 -4,3 -4,2 -5,2 -3,4 -3,3 -1,6 6,0 6,1 7,1 7,2 7,4 5,3 3,5 2,6 6,1 7,2 7,1 8,1 8,1 8,0 9,1 8,0 9,0 8,0 9,0 8,0 8,0 8,0 7,0 7,0 -2,5 -5,3 -7,4 -7,3 -9,2 -8,1 -8,0 -7,1 -1,1 -2,2 -1,1 -1,2 -1,1 -1,2 -1,3 0,3 4,-1 3,-1 3,-1 4,0 3,0 3,0 4,1 4,2 5,4 4,4 4,3 4,3 4,2 4,2 5,2 4,2 6,2 5,2 6,2 8,3 8,3 8,4 10,4 11,5 3,1 3,2 3,2 3,2 3,3 2,3 1,2 1,2 -6,0 -7,0 -9,0 -9,0 -8,2 -7,3 -4,5 -2,7 3,0 3,0 5,1 5,1 5,1 5,2 4,1 3,1 3,2 5,2 5,3 5,3 7,2 7,4 7,3 7,3 7,3 7,3 6,4 5,3 4,3 4,3 2,3 1,2 -8,5 -9,4 -9,2 -9,3 -10,2 -9,1 -10,1 -9,1 -10,2 -9,1 -9,1 -9,2 -9,2 -8,3 -7,3 -7,4 1,3 2,2 2,3 4,2 4,2 5,2 5,3 6,2 6,2 6,3 7,2 7,3 7,3 6,3 7,3 7,3 9,5 9,5 6,5 5,4 4,3 1,4 -1,3 -4,3 -7,1 -7,2 -8,2 -8,1 -8,1 -8,1 -9,1 -8,1 -9,0 -9,1 -8,1 -9,0 -8,0 -7,1 -8,0 -6,0 -15,12 2,4 5,4 4,3 6,4 8,3 7,3 8,3 8,3 9,3 8,2 9,2 7,2 8,2 7,1 6,1 5,1 8,1 8,1 6,1 6,0 6,0 5,1 5,0 5,0 5,0 5,0 5,0 6,0 6,0 6,0 8,0 8,0 6,3 5,3 4,3 2,4 -1,3 -4,4 -7,3 -11,3 -13,1 -13,1 -12,2 -11,2 -12,3 -11,2 -11,3 -12,2 -12,1 -12,2 -14,0 -14,0 -16,-2 -17,-2 -18,-4 -20,-6 -12,8 -12,9 -11,9 -10,11 -9,10 -9,11 -9,11 -8,12 -8,11 -9,13 -8,12 -8,11 -7,12 -9,12 -8,12 -9,10 -1,4 -1,10 -3,15 -3,19 -3,23 -4,25 -4,27 -4,27 -4,28 -4,27 -3,26 -4,23 -2,19 -2,15 0,11 0,4 1,3 1,3 1,2 2,2 3,3 4,4 5,3 7,5 -139,0 6,-5 5,-3 5,-2 5,-3 4,-2 3,-3 3,-4 2,-4 3,-13 3,-12 4,-13 3,-14 5,-13 3,-14 4,-14 4,-14 4,-14 3,-14 3,-14 3,-13 3,-13 2,-12 1,-13 0,-11 -15,-9 -12,-7 -11,-7 -9,-6 -7,-5 -7,-5 -5,-4 -5,-5 -4,-5 -4,-6 -4,-6 -5,-7 -6,-8 -6,-9 -8,-11 -10,-13 -4,1 -4,0 -3,2 -3,1 -3,2 -2,3 -1,3 0,3 -6,1 -7,2 -7,2 -7,1 -8,1 -7,1 -7,1 -5,0 -7,1 -7,2 -9,2 -8,1 -10,2 -10,2 -10,2 -10,1 -10,2 -10,0 -9,1 -9,0 -9,-1 -8,0 -7,-2 -6,-2 4,-4 4,-2 5,-2 5,-1 5,-1 5,-2 5,-2 4,-2 0,-14 6,-5 5,-5 6,-4 7,-4 7,-2 7,-3 7,-2 7,-2 1,-2 1,-3 1,-2 1,-3 5,0 5,0 4,0 5,-1 4,0 2,-1 3,-2 1,-3 -5,0 -5,-1 -5,-2 -6,-2 -4,-3 -6,-4 -4,-3 -4,-3 -2,-19 -8,-8 -10,-2 -12,1 -12,2 -10,-1 -6,-6 -3,-15 5,-4 5,-3 5,-3 6,-2 5,-1 7,-2 6,-1 6,-1 6,-2 6,-2 6,-2 6,-3 6,-2 5,-5 5,-4 4,-6 -2,-1 -3,-1 -4,-1 -2,0 -3,-1 -3,0 -2,0 -3,0 -6,-2 -6,-5 -6,-7 -6,-7 -6,-8 -6,-8 -6,-6 -6,-5 -4,-2 -5,-1 -4,-2 -6,-2 -6,-1 -6,-2 -7,-1 -7,-1 -6,-2 -7,-1 -7,-1 -5,-2 -6,-1 -6,-1 -4,-2 -5,-2 2,-1 3,-1 5,-2 6,-1 6,0 5,-1 3,-2 2,-1 14,1 15,1 13,-1 13,0 11,-1 12,-2 10,-1 11,-2 10,-2 9,-3 9,-2 9,-2 8,-3 8,-3 8,-3 8,-2 8,-2 8,-2 7,-2 8,-2 9,-1 8,-1 9,-1 8,0 10,1 9,1 10,1 10,2 11,3 12,4 12,4 13,5 -3,-5 -1,-6 -1,-8 0,-9 0,-8 2,-8 3,-6 4,-3 -4,-4 -5,-2 -6,-2 -5,0 -7,0 -6,0 -6,0 -6,0 0,-4 0,-4 0,-4 1,-4 0,-3 0,-4 1,-4 0,-4 -10,-10 -10,-7 -10,-5 -10,-4 -10,-2 -10,-1 -10,0 -10,1 -11,3 -10,2 -12,4 -12,3 -12,4 -14,3 -14,4 -15,3 2,-6 4,-6 4,-5 5,-6 6,-5 6,-5 7,-5 7,-4 6,-4 6,-4 5,-3 4,-3 2,-2 1,-3 -1,-1 -2,-1 1,-5 4,-5 4,-4 6,-4 5,-4 4,-4 1,-4 -1,-3 -5,0 -6,-1 -7,0 -8,-1 -9,-1 -8,0 -9,-2 -8,0 -8,-2 -6,-2 -5,-1 -4,-2 -1,-2 0,-2 4,-2 6,-3 6,-2 7,-2 6,-2 6,-2 7,-2 7,-1 6,-1 6,-2 6,-2 6,-2 5,-2 5,-3 4,-3 5,-3 4,-5 2,-4 2,-2 2,-2 3,-2 3,-3 5,-3 4,-3 6,-3 5,-4 6,-4 7,-3 7,-4 7,-3 7,-4 8,-3 7,-2 8,-2z M303,612 l9,9 8,10 9,11 8,10 10,10 9,9 10,7 11,6 3,1 4,1 7,3 6,2 6,2 6,2 5,1 4,1 1,-5 1,-6 1,-7 1,-7 1,-7 1,-8 1,-7 1,-8 0,-8 1,-7 0,-6 0,-6 0,-6 -1,-5 0,-4 -1,-3 -5,-16 -5,-12 -6,-10 -7,-7 -7,-6 -7,-5 -7,-5 -8,-6 -5,14 -3,11 -4,8 -3,7 -2,4 -3,4 -3,2 -2,1 -3,2 -4,1 -3,2 -5,2 -6,3 -7,5 -8,7 -9,9z M432,549 l8,-76 -6,-2 -6,1 -8,4 -8,5 -7,7 -7,7 -7,6 -5,6 -2,6 3,7 6,8 9,8 10,7 9,4 7,3 4,-1z M493,440 l0,7 0,9 0,10 -1,10 0,10 0,10 -1,10 0,8 4,-7 5,-7 7,-7 7,-6 8,-6 7,-4 6,-3 5,-1 6,-3 -1,-5 -5,-5 -9,-6 -10,-5 -11,-5 -10,-3 -7,-1z M486,612 l6,-6 7,-8 7,-7 6,-8 7,-9 7,-9 6,-9 7,-10 7,-9 7,-9 7,-9 6,-9 7,-9 7,-8 7,-7 6,-7 -7,-1 -5,-1 -4,-1 -3,-2 -4,-1 -4,0 -6,0 -7,2 -7,4 -8,7 -10,10 -9,11 -9,12 -8,11 -6,9 -3,6 -2,8 -2,8 -1,9 -1,9 0,8 -1,9 0,8 0,8z M493,314 l0,7 0,8 0,7 0,6 0,7 0,7 0,8 0,7 14,0 6,-6 5,-4 6,-3 6,-2 5,0 6,2 5,2 7,4 1,6 3,5 5,4 6,2 6,2 6,1 7,0 4,0 -1,-1 -2,0 -2,-2 -2,-2 -2,-1 -2,-2 -2,-2 -1,-1 0,-17 2,0 4,0 3,-1 4,-1 4,0 3,-1 4,-1 4,-1 -3,0 -4,-1 -4,-1 -5,-1 -4,-1 -5,-1 -4,-1 -3,-1 -5,-4 -5,-6 -5,-6 -5,-7 -5,-7 -5,-6 -6,-4 -6,-1 -1,8 -2,4 -3,3 -5,1 -5,0 -7,-2 -7,-2 -8,-1z M410,134 l-5,4 -5,4 -6,2 -5,3 -6,2 -6,1 -5,1 -6,2 -6,-13 -31,30 4,8 3,6 2,3 2,0 4,-1 6,-4 11,-4 16,-7 5,-5 6,-3 8,-1 8,0 7,1 7,1 5,0 2,0 0,-4 -2,-4 -3,-2 -3,-3 -3,-2 -2,-3 -2,-5 0,-7z M401,323 l-7,5 -3,6 -2,7 1,8 2,8 3,8 3,6 3,4 4,1 4,2 4,3 4,2 3,3 4,4 4,3 4,4 10,0 0,-50 -4,-3 -4,-4 -5,-3 -5,-5 -5,-3 -6,-3 -6,-2 -6,-1z " />
<path style="fill:none;stroke:#000;stroke-width:2" d="M347,77 l-27,-6 -3,-2 -1,-5 31,-7 23,-9 28,-17 9,-3 8,-1 10,1 29,3 31,-2 32,0 19,4 -22,19 -3,3 -1,6 26,4 15,12 2,6 28,5 33,2 34,0 30,0 -21,15 -32,4 -8,15 28,0 21,16 24,10 30,12 24,10 16,16 -31,0 -15,5 -4,5 -2,7 26,5 25,12 28,12 25,13 11,11 -26,11 -28,6 -29,4 -27,4 -24,8 -7,4 23,17 25,9 27,12 25,13 15,12 1,4 -1,3 -4,3 -30,6 -33,4 -35,2 -29,1 -15,12 25,18 23,9 26,7 28,6 27,4 27,1 49,0 15,9 2,4 -1,3 -35,11 -36,5 -34,8 -36,5 -28,0 -33,-4 -38,-10 -24,17 -21,20 -18,21 -17,23 -17,24 -16,23 -16,24 -17,22 -5,29 -6,42 -4,25 -4,27 -4,27 -4,28 -4,27 -7,49 -4,34 0,15 17,20 7,5 -139,0 25,-15 11,-24 7,-25 8,-27 7,-28 8,-28 6,-28 6,-26 3,-36 -27,-16 -27,-18 -21,-19 -19,-27 -24,-33 -17,6 -3,9 -27,6 -27,3 -31,6 -30,6 -30,3 -27,0 -21,-4 23,-10 14,-6 0,-14 24,-18 28,-9 4,-10 25,-2 3,-2 1,-3 -25,-8 -14,-10 -2,-19 -8,-8 -34,1 -10,-1 -6,-6 -3,-15 26,-13 31,-8 23,-12 9,-10 -22,-4 -24,-21 -18,-22 -25,-12 -26,-5 -25,-6 -16,-4 -5,-2 2,-1 25,-5 5,-3 29,2 37,-2 33,-5 28,-7 25,-8 32,-9 32,-6 36,1 31,6 37,13 -5,-28 5,-22 4,-3 -27,-8 -18,0 2,-27 0,-4 -20,-17 -30,-11 -30,0 -33,9 -24,7 -28,7 -15,3 15,-23 26,-19 21,-14 2,-2 1,-3 -1,-1 -2,-1 1,-5 19,-17 4,-4 1,-4 -1,-3 -35,-3 -33,-4 -15,-5 -1,-2 0,-2 29,-11 26,-6 28,-11 19,-19 21,-14 25,-15 29,-12 8,-2" />
<path style="fill:none;stroke:#000;stroke-width:2" d="M303,612 l9,9 8,10 9,11 8,10 10,10 9,9 10,7 11,6 7,2 13,5 12,4 5,1 4,1 1,-5 2,-13 2,-14 2,-15 1,-16 1,-7 0,-6 0,-12 -1,-9 -1,-3 -5,-16 -5,-12 -6,-10 -7,-7 -7,-6 -7,-5 -7,-5 -8,-6 -5,14 -3,11 -4,8 -5,11 -8,7 -10,5 -11,5 -7,5 -8,7 -9,9" />
<path style="fill:none;stroke:#000;stroke-width:2" d="M432,549 l8,-76 -6,-2 -6,1 -8,4 -8,5 -7,7 -7,7 -7,6 -5,6 -2,6 3,7 6,8 9,8 10,7 9,4 7,3 4,-1" />
<path style="fill:none;stroke:#000;stroke-width:2" d="M493,440 l0,7 0,9 0,10 -1,10 0,10 0,10 -1,10 0,8 4,-7 5,-7 7,-7 7,-6 8,-6 7,-4 6,-3 5,-1 6,-3 -1,-5 -5,-5 -9,-6 -10,-5 -11,-5 -10,-3 -7,-1" />
<path style="fill:none;stroke:#000;stroke-width:2" d="M486,612 l6,-6 7,-8 7,-7 6,-8 7,-9 7,-9 6,-9 7,-10 7,-9 7,-9 7,-9 6,-9 7,-9 7,-8 7,-7 6,-7 -12,-2 -11,-4 -4,0 -13,2 -7,4 -8,7 -10,10 -9,11 -9,12 -8,11 -6,9 -3,6 -2,8 -2,8 -1,9 -1,9 0,8 -1,9 0,16" />
<path style="fill:none;stroke:#000;stroke-width:2" d="M493,314 l0,7 0,8 0,7 0,35 14,0 6,-6 11,-7 11,-2 11,4 7,4 1,6 8,9 12,4 6,1 7,0 4,0 -7,-5 -7,-6 0,-17 9,-1 11,-2 4,-1 4,-1 -3,0 -13,-3 -9,-2 -7,-2 -10,-10 -5,-6 -5,-7 -5,-7 -11,-10 -6,-1 -1,8 -2,4 -3,3 -10,1 -14,-4 -8,-1" />
<path style="fill:none;stroke:#000;stroke-width:2" d="M410,134 l-10,8 -11,5 -12,3 -11,3 -6,-13 -31,30 4,8 5,9 2,0 10,-5 11,-4 16,-7 5,-5 14,-4 15,1 12,1 2,0 0,-4 -2,-4 -9,-7 -4,-8 0,-7" />
<path style="fill:none;stroke:#000;stroke-width:2" d="M401,323 l-7,5 -3,6 -2,7 1,8 2,8 3,8 6,10 8,3 8,5 7,7 8,7 10,0 0,-50 -8,-7 -10,-8 -11,-6 -12,-3" />

</svg>
