 

<svg xmlns:agg="http://www.example.com" xmlns="http://www.w3.org/2000/svg" preserveAspectRatio="none" width="1.1071in" height="1.0750in" viewBox="0 0 999 970">

<path style="fill:#0f0;fill-rule:evenodd" d="M904,942 l-876,0 0,-877 839,0 11,-5 10,-5 11,-5 10,-4 10,-5 11,-5 9,-4 10,-4 21,24 -7,6 -8,7 -8,5 -8,7 -8,7 -9,7 -9,8 -9,8 0,835z M801,197 l-12,13 -10,12 -11,12 -12,14 -11,14 -11,14 -12,15 -12,15 -11,16 -12,16 -13,17 -12,17 -12,17 -12,18 -14,18 -12,19 -12,19 -12,18 -13,19 -11,17 -11,18 -11,17 -10,17 -9,16 -10,16 -9,16 -9,15 -7,15 -8,15 -7,14 -7,14 -7,14 -42,29 -12,8 -11,9 -10,8 -9,7 -9,6 -7,7 -7,6 -5,4 -2,-7 -2,-9 -4,-9 -4,-11 -5,-12 -4,-13 -6,-13 -6,-15 -15,-38 -8,-20 -9,-19 -7,-17 -9,-15 -7,-14 -8,-13 -7,-12 -8,-11 -7,-9 -8,-8 -8,-8 -8,-8 -9,-5 -8,-5 -8,-5 -9,-2 15,-16 15,-13 14,-11 14,-9 15,-8 13,-6 13,-2 13,-1 11,1 11,6 11,10 12,13 13,17 12,20 13,25 13,28 18,41 13,-22 14,-23 15,-22 15,-23 16,-22 18,-24 18,-24 18,-24 20,-24 21,-25 22,-25 22,-25 23,-25 24,-27 26,-26 25,-27 39,-37 -615,0 0,688 670,0 0,-651z " />
<path style="fill:none;stroke:#000;stroke-width:2" d="M904,942 l-876,0 0,-877 839,0 11,-5 10,-5 11,-5 10,-4 10,-5 11,-5 9,-4 10,-4 21,24 -7,6 -8,7 -8,5 -8,7 -8,7 -9,7 -9,8 -9,8 0,835" />
<path style="fill:none;stroke:#000;stroke-width:2" d="M801,197 l-22,25 -23,26 -22,28 -24,30 -23,32 -25,34 -24,35 -26,37 -24,37 -24,36 -22,35 -19,33 -19,32 -16,30 -15,29 -14,28 -42,29 -23,17 -28,21 -19,17 -8,-25 -13,-36 -12,-28 -15,-38 -17,-39 -16,-32 -15,-27 -15,-23 -23,-25 -25,-18 -17,-7 30,-29 28,-20 28,-14 26,-3 33,17 25,30 12,20 13,25 13,28 18,41 13,-22 14,-23 15,-22 15,-23 16,-22 18,-24 18,-24 18,-24 20,-24 21,-25 22,-25 22,-25 23,-25 24,-27 26,-26 25,-27 39,-37 -615,0 0,688 670,0 0,-651" />

</svg>
