 

<svg xmlns:agg="http://www.example.com" xmlns="http://www.w3.org/2000/svg" preserveAspectRatio="none" width="1.0761in" height="1.0750in" viewBox="0 0 999 998">

<path style="fill:#f00;stroke:#000;stroke-width:2" d="M96,27 l807,0 29,4 21,13 14,21 4,29 0,808 -4,29 -14,21 -21,14 -29,4 -807,0 -30,-4 -21,-14 -14,-21 -4,-29 0,-808 4,-29 14,-21 21,-13 30,-4z" />
<path style="fill:#fff;stroke:#000;stroke-width:2" d="M96,49 l-28,6 -18,28 -1,11 0,808 7,27 29,18 11,1 807,0 28,-7 17,-28 1,-11 0,-808 -6,-27 -29,-17 -11,-1 -807,0z" />
<circle style="fill:#f00;stroke:#000;stroke-width:2" cx="499" cy="498" r="349" />
<path style="fill:#fff;stroke:#000;stroke-width:2" d="M451,497 l-20,-17 0,17 20,0z" />
<path style="fill:#fff;stroke:#000;stroke-width:2" d="M498,542 l-67,0 0,168 -43,0 0,-277 -110,-108 -7,10 -18,30 -14,30 -11,33 -7,34 -1,11 -1,13 0,11 1,29 4,27 7,27 10,25 10,24 15,23 16,22 19,21 21,19 22,16 23,15 25,11 25,10 27,7 27,4 15,1 14,0 36,-2 35,-6 33,-11 30,-14 29,-18 10,-7 -175,-178z" />
<path style="fill:#fff;stroke:#000;stroke-width:2" d="M590,542 l130,130 19,-29 16,-30 12,-32 8,-35 3,-24 1,-12 0,-13 -1,-28 -4,-28 -7,-26 -9,-26 -11,-24 -15,-23 -16,-21 -19,-21 -21,-19 -22,-16 -23,-15 -24,-11 -25,-9 -26,-7 -28,-4 -14,0 -14,0 -37,1 -35,7 -33,11 -30,14 -29,18 -10,7 62,61 0,-30 179,0 31,5 28,13 26,23 19,31 7,25 2,28 -6,41 -17,32 -27,23 -40,13z" />
<path style="fill:#fff;stroke:#000;stroke-width:2" d="M547,497 l20,0 11,-1 11,-3 12,-4 10,-4 10,-9 7,-12 3,-7 2,-7 0,-9 0,-8 0,-19 -3,-16 -6,-13 -7,-12 -9,-8 -12,-7 -13,-4 -16,-1 -136,0 0,30 116,114z" />

</svg>
