 

<svg xmlns:agg="http://www.example.com" xmlns="http://www.w3.org/2000/svg" preserveAspectRatio="none" width="1.6083in" height="0.8162in" viewBox="0 0 999 507">

<path style="fill:#fff" d="M118,416 l23,10 24,18 30,13 40,5 38,-1 27,4 29,6 30,6 21,2 6,0 6,0 31,-3 30,-7 22,-12 29,-7 30,-1 29,-2 29,1 27,2 34,-1 26,-5 24,-11 27,-9 15,4 34,1 29,4 30,5 28,2 24,-10 26,-15 15,-7 20,-26 10,-26 7,-31 2,-25 0,-13 0,-14 -1,-30 -8,-27 -20,-29 -19,-21 -24,-21 -28,-21 -34,-22 -25,-10 -30,-6 -27,-2 -28,-1 -28,-2 -27,-2 -32,-6 -28,2 -29,4 -30,5 -27,2 -30,-4 -33,-11 -32,-13 -28,-12 -26,-7 -33,0 -32,-5 -32,-4 -19,-2 -7,0 -6,0 -27,2 -27,9 -29,16 -27,13 -13,29 -7,26 -19,26 -26,16 -18,7 -14,25 -11,32 -1,10 0,10 0,8 3,35 0,37 13,22 12,29 24,21 38,15z" />
<path style="fill:#e5e5e5" d="M195,432 l25,7 26,6 35,1 28,-1 35,0 33,7 34,5 9,0 10,0 34,-4 26,-11 30,-5 31,2 30,2 31,0 28,1 26,-5 21,-15 28,-12 8,4 28,0 31,5 30,5 32,3 27,-6 13,-21 34,-6 17,-11 4,-7 1,-7 -2,-9 -14,-31 -13,-23 -11,-24 -6,-25 1,-14 -2,-5 -31,-7 -30,4 -33,7 -31,5 -32,-2 -10,-7 3,-31 13,-26 24,-34 17,-21 5,-7 -25,-16 -27,-5 -14,-2 -8,0 -7,0 -28,3 -27,11 -10,16 -19,29 -18,30 -16,24 -16,25 -18,24 -18,24 -19,21 -28,25 -27,12 -31,-9 -18,-32 -6,-49 -10,-36 -15,-25 -29,-19 -35,-1 -26,7 -28,11 -29,14 -30,15 -29,15 -29,14 -28,11 -27,7 -36,0 -11,-4 -9,20 0,9 1,8 20,28 20,18 16,26 0,8 19,19 24,17 24,9 34,11z" />
<path style="fill:#ccc" d="M398,424 l30,2 31,4 27,3 28,2 5,1 6,0 28,-2 29,-2 29,-5 28,-8 27,-5 29,1 27,4 31,3 36,-1 25,-5 21,-12 1,-4 29,-8 1,-4 -1,-5 -26,-25 -27,-24 -19,-26 -3,-9 1,-9 -1,-1 -25,15 -24,20 -28,20 -27,17 -25,8 -22,-14 -6,-33 4,-37 4,-24 6,-27 9,-30 -12,9 -19,19 -19,26 -10,24 -2,29 7,25 11,23 15,24 7,25 -30,3 -30,3 -38,3 -28,1 -30,0 -29,-1 -30,-2 -28,-5 -26,-7 -23,-10 -28,-20 -18,-29 -2,-36 -3,-27 -6,-25 -7,-11 -3,-1 -21,15 -18,20 -22,18 -25,8 -22,-4 -9,23 -1,8 1,6 8,27 11,25 2,18 26,16 26,7 29,3 30,0 31,-2 30,-4 28,-3 19,-1z" />

</svg>
