 

<svg xmlns:agg="http://www.example.com" xmlns="http://www.w3.org/2000/svg" preserveAspectRatio="none" width="0.6908in" height="1.0750in" viewBox="0 0 642 999">

<path style="fill:#063;stroke:#000;stroke-width:2" d="M185,962 l-31,6 -29,-6 -35,-6 -27,-15 -12,-31 -3,-35 -12,-21 -8,-5 11,-1 25,-8 15,-23 -6,-29 -13,-24 -15,-24 -2,-11 1,-2 17,3 13,-28 -1,-29 -3,-28 1,-19 2,-3 4,-1 11,2 25,-15 15,-25 4,-28 -15,-24 -25,-11 21,-20 -2,-31 -11,-22 1,-3 2,-2 29,-12 3,-5 1,-4 -17,-28 -21,-19 -6,-6 0,-5 21,-15 26,-9 21,-15 -5,-35 -1,-30 4,-27 11,-26 4,-27 -9,-28 -3,-7 10,-26 2,-31 16,-21 34,26 28,9 4,-3 4,-28 0,-34 2,-6 4,-3 9,4 25,17 24,18 27,16 28,-11 14,21 16,26 19,24 26,18 19,21 13,26 26,21 5,5 3,6 -11,29 -13,22 -2,14 3,6 30,13 20,21 10,8 1,2 0,4 -20,18 -11,7 13,28 14,23 1,20 -28,18 -22,16 -9,13 1,3 3,2 32,1 30,-6 -15,29 -12,24 -2,20 3,4 26,5 31,-5 18,3 3,5 1,7 -1,8 -13,30 -15,33 -3,27 15,23 7,28 -5,29 -9,8 -8,1 -3,1 -1,2 11,28 16,22 1,0 -19,23 -13,21 -15,28 -15,26 -27,10 -22,16 -28,11 -8,1 -7,0 -8,0 -27,-6 -28,-2 -28,5 -35,-5 -29,-5 -28,-5 -9,-1 -23,11 -29,0 -23,0z" />
<path style="fill:#004c19" d="M258,825 l0,28 -5,35 -10,27 -20,24 -27,12 -15,3 -8,0 -9,-1 -27,-4 -28,-9 -29,-12 -20,-9 -10,-6 11,-10 19,-19 17,-26 8,-29 -5,-28 -14,-26 -2,-12 28,-13 -24,-10 -1,-1 0,-2 22,-16 19,-17 -7,-32 -21,-19 -10,-8 0,-1 1,0 25,11 27,14 26,9 25,5 30,-5 18,-17 -22,-16 -4,-26 18,-21 -9,-24 -19,-22 -22,-18 -30,-21 21,-15 27,-7 28,2 25,17 12,23 4,15 5,1 22,-13 19,-20 18,-22 19,-21 33,-15 29,-9 5,-1 4,0 3,1 1,2 0,3 -15,21 -21,22 -19,20 -9,14 1,3 1,1 15,-2 4,26 -1,33 0,29 4,13 2,0 20,-17 19,-20 20,-16 3,0 5,3 2,5 -8,31 -14,28 -9,26 3,13 4,5 10,3 28,-21 21,-20 22,-21 20,-20 20,-19 2,-1 -11,28 -11,29 -7,25 -2,30 12,24 24,12 17,2 4,3 2,5 0,5 0,5 -12,23 -15,23 -5,18 -24,17 -23,-10 -25,-21 -22,-23 -20,-18 -3,0 -2,0 -1,2 6,35 10,29 17,22 -1,37 -13,26 -16,21 -16,9 -23,-22 -28,-23 -23,-13 -26,-9 -27,-3 -21,-23 -11,-23 -5,-10z" />
<path style="fill:#004c19" d="M280,406 l-5,29 0,30 -13,24 -30,8 -29,-4 -25,-7 -31,-11 -17,-7 15,-14 19,-25 4,-30 -11,-28 -4,-9 1,-4 20,-9 -14,-5 -1,-1 0,-1 26,-10 20,-17 -17,-24 -27,-18 1,0 28,9 35,14 23,10 29,11 10,2 2,-1 -27,-17 -18,-24 5,-31 9,-28 -7,-28 -17,-21 -29,-24 28,-4 26,12 18,20 12,32 3,0 18,-25 12,-26 11,-25 9,-15 2,-2 9,3 5,5 2,28 -10,31 -1,11 2,4 4,2 16,-2 2,30 -1,29 3,14 24,-20 21,-18 2,0 3,2 1,3 -9,29 -12,27 1,16 4,3 6,3 27,-23 24,-23 21,-21 11,-8 0,1 -13,31 -9,27 3,34 22,15 13,1 4,6 0,3 0,4 -15,25 -7,29 -1,13 -1,1 -26,-15 -20,-19 -23,-20 -10,-4 -3,1 -1,1 4,31 4,11 14,23 -5,27 -15,23 -11,10 -3,1 -9,-8 -22,-16 -28,-6 -24,13 -11,5 -15,-30 -8,-34 -3,-15z" />
<path style="fill:#030" d="M324,829 l4,-26 -9,-25 -30,-8 -33,1 -34,-1 -29,-11 -9,-8 -4,-6 18,-2 30,-9 23,-14 23,-28 15,-31 7,-30 8,-25 11,-25 10,-25 11,-25 11,-25 11,-24 3,-27 3,-27 -32,-8 -24,-18 -11,-25 -8,-8 19,-22 0,-30 -7,-31 -2,-21 1,-5 4,3 21,14 24,19 19,21 7,29 6,26 8,27 7,26 1,6 1,6 -3,9 -10,25 -10,25 -12,25 -10,24 -9,25 18,23 3,32 -2,30 -1,33 6,32 12,24 4,6 -10,23 -9,24 -9,24 -10,24 -10,25 -3,8 0,-3 -5,-28 -4,-18z" />

</svg>
