 

<svg xmlns:agg="http://www.example.com" xmlns="http://www.w3.org/2000/svg" preserveAspectRatio="none" width="0.8493in" height="1.0750in" viewBox="0 0 365 462">

<path style="fill:#f00;stroke:#000;stroke-width:2" d="M120,449 l-18,-2 -20,-7 -11,-6 -9,-8 -10,-10 -9,-13 -7,-12 -9,-9 -8,-14 -3,-11 -3,-15 1,-11 2,-21 2,-21 2,-21 1,-10 12,15 8,0 5,-10 3,-18 1,-22 2,-22 3,-21 4,-14 7,15 9,14 7,19 1,12 -1,16 2,16 2,16 3,17 4,10 5,11 2,-2 1,-13 1,-17 1,-13 10,-7 5,0 2,-10 -3,-13 -5,-19 -4,-17 -2,-11 -1,-14 0,-18 2,-13 2,-14 1,-13 2,-13 6,-8 7,-17 7,-21 7,-21 6,-16 6,-9 4,3 4,19 4,16 6,11 2,8 1,12 -2,16 -4,22 10,14 8,11 7,14 3,9 3,13 0,22 1,12 1,12 2,12 6,19 5,7 14,-25 8,-10 3,3 1,12 -2,17 -1,17 -1,16 1,9 8,-9 12,-10 7,-15 3,-12 0,-62 10,20 6,4 3,-8 2,-16 0,-58 2,-10 6,13 5,10 10,14 9,9 9,7 8,17 9,14 7,18 1,13 -2,15 -9,15 -9,16 -8,17 -8,16 -5,14 -3,11 0,7 4,3 28,-13 10,-2 -2,7 -11,14 -16,17 -17,18 -15,16 -8,12 -6,10 -7,6 -16,4 -16,1 -8,0 -8,2 -12,0 -88,0z" />
<path style="fill:#f60" d="M120,441 l-16,-5 -14,1 -16,-7 -10,-10 -13,-17 -10,-13 -7,-16 -7,-16 -3,-8 -4,-8 1,-18 2,-11 4,-5 12,-2 2,-2 2,-8 5,-11 3,-12 2,-13 2,-14 1,-13 2,-13 3,-13 5,-11 3,17 1,17 1,18 3,17 3,20 3,13 7,13 8,9 2,7 2,-1 7,-11 6,-10 2,-1 -2,15 12,-4 11,-17 1,-12 0,-11 -1,-12 1,-21 -3,-11 -4,-10 -4,-11 -6,-20 -1,-21 3,-18 0,-13 -1,-13 0,-20 11,-17 9,-18 8,-17 5,-9 6,-9 0,10 -2,20 -4,18 -2,19 0,10 10,16 9,14 8,15 11,16 0,11 1,12 2,13 1,14 1,14 2,13 1,13 0,10 8,10 11,9 11,10 8,10 9,-11 10,-9 10,-8 9,-11 0,-61 7,16 5,4 4,-5 2,-11 1,-15 1,-16 1,-15 2,-12 9,11 7,16 7,16 8,11 4,14 5,13 4,11 2,8 -5,12 -7,13 -7,12 -8,12 -7,13 -8,12 -6,13 -6,12 1,5 26,0 6,3 -1,8 -13,17 -26,28 -16,12 -16,5 -14,3 -8,1 -7,2 -12,0 -88,0z" />
<path style="fill:#ff0" d="M134,435 l-15,-5 -16,-1 -8,-1 -6,-4 -9,-17 -8,-11 -10,-12 -9,-13 -4,-8 -3,-10 13,-5 14,-11 2,-14 -4,-15 -4,-9 4,-3 11,14 5,13 5,12 6,10 5,4 4,-3 8,14 8,7 0,-18 -2,-12 11,6 5,-12 7,-13 3,-12 -4,-15 0,-13 5,-10 0,-23 -5,-18 -3,-11 -6,-20 -2,-15 16,31 8,11 3,-3 -2,-14 -5,-19 -4,-22 -2,-18 2,-12 2,10 3,11 6,14 6,13 6,14 5,13 4,12 5,17 0,12 -1,12 -2,13 -1,20 2,4 6,-2 1,15 2,16 2,16 1,15 8,7 8,1 14,-8 11,-11 4,-3 3,1 10,-13 7,-9 7,-9 3,-4 1,-13 0,-6 -1,-2 -2,1 7,-11 9,-17 3,-1 2,-8 1,-12 1,-12 1,-13 0,5 1,16 10,7 8,14 1,8 -1,7 -1,15 1,7 -5,9 -5,10 -7,9 -7,10 -7,10 -7,9 -5,10 -5,9 0,5 4,2 20,0 4,2 0,4 -13,12 -10,13 -14,15 -10,6 -12,3 -16,0 -82,0z" />
<path style="fill:#fff" d="M144,434 l-10,-2 -7,-2 -5,-2 -4,-2 -2,-3 -1,-5 -1,-5 0,-8 3,1 5,3 7,2 8,2 8,1 6,-1 3,-5 0,-8 6,-5 2,-4 -2,-5 -4,-5 -4,-5 -5,-4 -3,-4 -1,-3 3,-3 9,3 8,3 3,-3 1,0 2,5 3,7 3,8 2,8 3,7 2,5 1,0 6,-8 5,-5 5,-2 6,-1 5,0 7,1 8,-1 10,-1 -1,4 -2,5 -1,5 -2,6 -1,6 -2,6 -1,5 -2,3 -3,1 -6,1 -7,1 -7,0 -7,1 -7,1 -6,0 -3,1 -4,0 -29,0z" />

</svg>
