 

<svg xmlns:agg="http://www.example.com" xmlns="http://www.w3.org/2000/svg" preserveAspectRatio="none" width="1.6083in" height="0.6858in" viewBox="0 0 999 426">

<path style="fill:#f2f2f2;stroke:#000;stroke-width:2" d="M204,289 l0,-177 -117,0 -43,76 -8,75 0,26 168,0z" />
<circle style="fill:#000" cx="86" cy="347" r="50" />
<circle style="fill:#fff" cx="86" cy="348" r="25" />
<path style="fill:none;stroke:#000;stroke-width:2" d="M36,263 l93,0 16,-17 0,-126" />
<path style="fill:none;stroke:#000;stroke-width:2" d="M204,120 l-122,0" />
<path style="fill:none;stroke:#000;stroke-width:2" d="M53,179 l151,0" />
<path style="fill:none;stroke:#000;stroke-width:2" d="M78,263 l0,-84 17,-59" />
<path style="fill:none;stroke:#000;stroke-width:2" d="M158,133 l0,34 34,0 0,-34 -34,0" />
<path style="fill:#f2f2f2;stroke:#000;stroke-width:2" d="M144,360 l27,0 0,-71 -135,0 -8,12 12,8 7,-5 8,-5 9,-3 8,-2 10,-1 9,0 12,2 10,4 10,6 8,7 7,8 5,10 2,10 0,11 -1,9z" />
<path style="fill:#000" d="M204,289 l0,-30 13,0 0,-114 4,-4 0,-67 9,0 0,67 4,4 0,114 12,0 0,30 -42,0z" />
<path style="fill:#000" d="M196,196 l0,50 -42,0 0,-50 42,0z" />
<path style="fill:#000" d="M225,297 l0,80 -71,0 0,-80 17,0 -1,-8 39,0 0,8 16,0z" />
<path style="fill:#000" d="M928,297 l13,0 0,88 -13,0 0,-88z" />
<path style="fill:#000" d="M743,297 l-17,13 -286,0 25,42 -4,12 -34,-54 -12,-13 328,0z" />
<circle style="fill:#000" cx="284" cy="347" r="50" />
<circle style="fill:#fff" cx="284" cy="348" r="25" />
<circle style="fill:#000" cx="385" cy="347" r="50" />
<circle style="fill:#fff" cx="385" cy="348" r="25" />
<path style="fill:#f2f2f2;stroke:#000;stroke-width:2" d="M247,28 l723,0 0,261 -723,0 0,-261z" />
<circle style="fill:#000" cx="768" cy="347" r="50" />
<circle style="fill:#fff" cx="768" cy="348" r="25" />
<circle style="fill:#000" cx="869" cy="347" r="50" />
<circle style="fill:#fff" cx="869" cy="348" r="25" />

</svg>
