 

<svg xmlns:agg="http://www.example.com" xmlns="http://www.w3.org/2000/svg" preserveAspectRatio="none" width="0.8380in" height="1.0750in" viewBox="0 0 778 998">

<path style="fill:#ccc" d="M750,448 l0,483 -21,39 -680,0 -21,-39 2,-483 720,0z" />
<path style="fill:#b2b2b2;stroke:#000;stroke-width:2" d="M569,448 l100,0 0,-139 -19,-106 -61,-94 -96,-60 -105,-21 -104,21 -96,60 -60,94 -19,106 0,139 100,0 0,-160 13,-68 38,-60 62,-40 66,-11 68,11 62,40 37,60 14,68 0,160z" />
<path style="fill:#e5e5e5" d="M88,448 l140,522 241,0 -140,-522 -241,0z" />
<path style="fill:#fff" d="M188,448 l141,522 40,0 -139,-522 -42,0z" />
<path style="fill:#4c4c4c" d="M565,765 l185,0 0,85 -228,0 33,-53 10,-32z" />
<path style="fill:#4c4c4c" d="M555,661 l-33,-51 228,0 0,85 -185,0 -10,-34z" />
<circle style="fill:#4c4c4c" cx="388" cy="730" r="119" />
<path style="fill:#4c4c4c" d="M213,765 l-185,0 0,85 226,0 -32,-53 -9,-32z" />
<path style="fill:#4c4c4c" d="M222,661 l32,-51 -226,0 0,85 185,0 9,-34z" />
<path style="fill:none;stroke:#fff;stroke-width:2" d="M148,448 l0,-160 17,-89 51,-83 83,-50 89,-17 90,17 83,50 51,83 17,89 0,160" />
<path style="fill:none;stroke:#000;stroke-width:2" d="M750,448 l0,483 -21,39 -680,0 -21,-39 2,-483 720,0" />

</svg>
