 

<svg xmlns:agg="http://www.example.com" xmlns="http://www.w3.org/2000/svg" preserveAspectRatio="none" width="1.0298in" height="1.0750in" viewBox="0 0 956 998">

<path style="fill:#666;stroke:#000;stroke-width:2" d="M77,232 l0,574 -19,0 0,-574 19,0z" />
<path style="fill:#666;stroke:#000;stroke-width:2" d="M56,37 l21,195 -19,0 -21,-195 19,0z" />
<path style="fill:#191919" d="M68,817 l860,0 0,-11 -860,0 0,11z" />
<path style="fill:#ccc;stroke:#000;stroke-width:2" d="M68,766 l860,0 0,40 -860,0 0,-40z" />
<path style="fill:#333;stroke:#000;stroke-width:2" d="M175,965 l-21,6 -19,0 -19,-6 -20,-10 -13,-15 -9,-17 -6,-20 0,-21 6,-19 9,-17 13,-14 20,-11 19,-4 19,0 21,4 17,11 14,14 11,17 4,19 0,21 -4,20 -11,17 -14,15 -17,10z" />
<circle style="fill:#000" cx="144" cy="893" r="57" />
<path style="fill:#999;stroke:#000;stroke-width:2" d="M154,894 l-10,19 -9,-19 0,-88 19,0 0,88z" />
<circle style="fill:#333;stroke:#000;stroke-width:2" cx="851" cy="894" r="76" />
<circle style="fill:#000" cx="851" cy="893" r="57" />
<path style="fill:#999;stroke:#000;stroke-width:2" d="M861,894 l-9,19 -10,-19 0,-88 19,0 0,88z" />
<path style="fill:#7f7f7f" d="M68,232 l0,585 -21,0 0,-585 21,0z" />
<path style="fill:#999" d="M66,232 l0,585 -17,0 0,-585 17,0z" />
<path style="fill:#b2b2b2" d="M64,232 l0,585 -14,0 0,-585 14,0z" />
<path style="fill:#ccc" d="M62,232 l0,585 -10,0 0,-585 10,0z" />
<path style="fill:#e5e5e5" d="M60,232 l0,585 -6,0 0,-585 6,0z" />
<path style="fill:#fff" d="M58,232 l0,585 -2,0 0,-585 2,0z" />
<path style="fill:none;stroke:#000;stroke-width:2" d="M68,232 l0,585 -21,0 0,-585 21,0" />
<path style="fill:#7f7f7f" d="M47,27 l21,205 -21,0 -20,-205 20,0z" />
<path style="fill:#999" d="M45,27 l21,205 -17,0 -22,-205 18,0z" />
<path style="fill:#b2b2b2" d="M43,27 l21,205 -14,0 -20,-205 13,0z" />
<path style="fill:#ccc" d="M41,27 l21,205 -10,0 -21,-205 10,0z" />
<path style="fill:#e5e5e5" d="M39,27 l21,205 -6,0 -21,-205 6,0z" />
<path style="fill:#fff" d="M39,27 l19,205 -2,0 -21,-205 4,0z" />
<path style="fill:none;stroke:#000;stroke-width:2" d="M47,27 l21,205 -21,0 -20,-205 20,0" />

</svg>
