<?xml version="1.0" encoding="utf-8"?>
<!-- Generator: Adobe Illustrator 16.0.0, SVG Export Plug-In . SVG Version: 6.00 Build 0)  -->
<!DOCTYPE svg PUBLIC "-//W3C//DTD SVG 1.1//EN" "http://www.w3.org/Graphics/SVG/1.1/DTD/svg11.dtd">
<svg version="1.1" id="图层_1" xmlns="http://www.w3.org/2000/svg" preserveAspectRatio="none" xmlns:xlink="http://www.w3.org/1999/xlink" x="0px" y="0px"
	 width="100px" height="100px" viewBox="0 0 100 100" enable-background="new 0 0 100 100" xml:space="preserve">
<g>
	<ellipse fill="#C5C1AE" cx="48.039" cy="74.535" rx="48.039" ry="9.359"/>
	<g>
		<path fill="#578A3F" d="M13.096,74.535c0,0-8.152-20.56,0-34.739c0,0-1.772,13.116,3.189,15.596c0,0,2.836-17.722-1.771-25.874
			c0,0,7.443,10.988,7.443,19.494c0,0,0.709-11.696,4.608-14.532c0,0-3.544,20.558,2.126,23.748c0,0,3.544-5.316,2.481-13.47
			c0,0,4.962,7.799,2.836,13.824c0,0,7.797-15.24,1.772-29.063c0,0,8.114,12.406,2.285,26.937c0,0,6.931-6.379,5.868-18.785
			c0,0,5.67,13.469,2.48,19.848c0,0,2.836-6.025,2.482-19.14c-0.354-13.114,3.543-20.203,8.862-21.267c0,0-7.444,11.343-3.19,20.204
			c4.253,8.86,3.19,20.913,3.19,20.913s6.732-12.052,2.481-22.33c0,0,6.023,14.532,3.897,20.202c0,0,1.24-19.494,8.771-25.519
			c0,0-7.53,18.785,0,25.874c0,0,5.053-4.962,4.344-14.886c0,0,3.898,13.469,2.128,21.622c0,0,2.479-25.52,20.202-21.976
			c0,0-19.14,3.55-13.823,33.321H13.096z"/>
		<path fill="#4A7434" d="M85.519,57.544l-0.012-0.008c-7.222,12.805-72.411,16.999-72.411,16.999h72.661
			C84.501,67.503,84.62,61.949,85.519,57.544z"/>
	</g>
</g>
</svg>
