 

<svg xmlns:agg="http://www.example.com" xmlns="http://www.w3.org/2000/svg" preserveAspectRatio="none" width="1.6083in" height="0.9821in" viewBox="0 0 999 610">

<path style="fill:#000" d="M105,224 l58,-172 129,0 151,421 -332,5 -6,-254z" />
<path style="fill:#c90;stroke:#000;stroke-width:2" d="M354,310 l456,-65 -47,213 -358,0 -51,-148z" />
<path style="fill:none;stroke:#fc0;stroke-width:2" d="M670,322 l0,26 -263,0" />
<path style="fill:none;stroke:#fc0;stroke-width:2" d="M407,440 l0,-82 133,0" />
<path style="fill:none;stroke:#960;stroke-width:2" d="M670,322 l-263,0 0,26" />
<path style="fill:none;stroke:#960;stroke-width:2" d="M407,440 l133,0 0,-82" />
<path style="fill:#fc0;stroke:#000;stroke-width:2" d="M256,458 l435,0 0,20 -435,0 0,-20z" />
<path style="fill:#000;fill-rule:evenodd" d="M689,580 l-26,-7 79,-293 27,8 -80,292z M652,569 l-25,-15 153,-261 23,14 -151,262z M618,548 l-19,-21 213,-213 21,19 -215,215z M591,518 l-13,-23 262,-153 14,25 -263,151z M573,482 l-8,-26 294,-78 6,27 -292,77z M565,444 l0,-28 302,0 0,28 -302,0z M565,405 l8,-27 292,78 -6,26 -294,-77z M578,367 l13,-25 263,153 -14,23 -262,-151z M599,333 l19,-19 215,213 -21,21 -213,-215z M627,307 l25,-14 151,261 -23,15 -153,-262z M663,288 l26,-8 80,293 -27,7 -79,-292z M703,278 l26,0 0,304 -26,0 0,-304z M211,580 l-29,-7 79,-293 27,8 -77,292z M171,569 l-23,-15 151,-261 25,14 -153,262z M139,548 l-21,-21 215,-213 19,19 -213,215z M111,518 l-14,-23 263,-153 13,25 -262,151z M94,482 l-8,-26 292,-78 8,27 -292,77z M84,444 l0,-28 304,0 0,28 -304,0z M86,405 l8,-27 292,78 -8,26 -292,-77z M97,367 l14,-25 262,153 -13,23 -263,-151z M118,333 l21,-19 213,213 -19,21 -215,-215z M148,307 l23,-14 153,261 -25,15 -151,-262z M182,288 l29,-8 77,293 -27,7 -79,-292z M222,278 l26,0 0,304 -26,0 0,-304z " />
<circle style="fill:#333;stroke:#000;stroke-width:2" cx="715" cy="430" r="144" />
<circle style="fill:#333;stroke:#000;stroke-width:2" cx="236" cy="430" r="144" />
<circle style="fill:#4c4c4c" cx="236" cy="431" r="61" />
<circle style="fill:#4c4c4c" cx="716" cy="431" r="62" />
<circle style="fill:#c90;stroke:#000;stroke-width:2" cx="236" cy="430" r="48" />
<circle style="fill:#c90;stroke:#000;stroke-width:2" cx="715" cy="430" r="48" />
<path style="fill:#ffd940;stroke:#000;stroke-width:2" d="M348,312 l-83,-248 -139,-6 0,-30 15,0 0,15 136,0 661,41 32,140 -622,88z" />
<path style="fill:#fc0;stroke:#000;stroke-width:2" d="M101,328 l51,-42 172,0 -63,-213 -109,0 -36,109 -15,10 0,136z" />
<path style="fill:#333" d="M141,162 l22,-68 87,0 15,68 -124,0z" />
<path style="fill:#999;stroke:#000;stroke-width:2" d="M328,307 l-170,-21 0,-21 164,0 6,42z" />
<path style="fill:#ccc;stroke:#000;stroke-width:2" d="M28,265 l130,0 0,10 -130,0 0,-10z" />
<path style="fill:none;stroke:#fc0;stroke-width:2" d="M220,94 l0,73" />
<path style="fill:none;stroke:#000;stroke-width:2" d="M297,209 l-269,0 0,56" />
<path style="fill:none;stroke:#000;stroke-width:2" d="M28,239 l279,0" />
<path style="fill:none;stroke:#000;stroke-width:2" d="M111,209 l0,56" />
<path style="fill:none;stroke:#000;stroke-width:2" d="M182,209 l0,56" />
<path style="fill:none;stroke:#000;stroke-width:2" d="M250,209 l0,56" />
<path style="fill:none;stroke:#fff2bf;stroke-width:2" d="M443,99 l18,57 -115,0" />
<path style="fill:none;stroke:#fff2bf;stroke-width:2" d="M582,99 l19,57 -115,0" />
<path style="fill:none;stroke:#fff2bf;stroke-width:2" d="M721,99 l19,57 -113,0" />
<path style="fill:none;stroke:#fff2bf;stroke-width:2" d="M861,99 l19,57 -113,0" />
<path style="fill:none;stroke:#fff2bf;stroke-width:2" d="M463,177 l19,56 -115,0" />
<path style="fill:none;stroke:#fff2bf;stroke-width:2" d="M603,177 l19,56 -115,0" />
<path style="fill:none;stroke:#fff2bf;stroke-width:2" d="M742,177 l19,56 -113,0" />
<path style="fill:none;stroke:#c90;stroke-width:2" d="M861,99 l-113,0 19,57" />
<path style="fill:none;stroke:#c90;stroke-width:2" d="M721,99 l-113,0 19,57" />
<path style="fill:none;stroke:#c90;stroke-width:2" d="M742,177 l-113,0 19,56" />
<path style="fill:none;stroke:#c90;stroke-width:2" d="M603,177 l-115,0 19,56" />
<path style="fill:none;stroke:#c90;stroke-width:2" d="M582,99 l-115,0 19,57" />
<path style="fill:none;stroke:#c90;stroke-width:2" d="M443,99 l-115,0 18,57" />
<path style="fill:none;stroke:#c90;stroke-width:2" d="M463,177 l-115,0 19,56" />

</svg>
