 

<svg xmlns:agg="http://www.example.com" xmlns="http://www.w3.org/2000/svg" preserveAspectRatio="none" width="0.7629in" height="1.0750in" viewBox="0 0 709 999">

<path style="fill:#ff0;stroke:#000;stroke-width:2" d="M367,209 l-7,-2 -12,2 -8,0 -8,16 -4,15 1,13 5,13 8,12 10,10 12,9 14,8 14,7 15,5 15,3 14,3 12,0 11,-1 8,-3 6,-4 5,-10 4,-10 1,-10 -1,-9 -2,-9 -5,-9 -6,-8 -7,-8 -9,-7 -10,-6 -11,-6 -12,-5 -12,-4 -13,-2 -14,-2 -14,-1z" />
<path style="fill:#ff0;stroke:#000;stroke-width:2" d="M385,194 l-14,-8 -14,-8 -12,-8 -12,-7 -10,-8 -10,-7 -8,-8 -8,-8 -7,-9 -6,-9 -5,-10 -4,-11 -4,-11 -2,-13 -1,-14 -1,-16 14,-8 12,-4 12,1 12,5 10,9 10,11 9,13 9,15 7,16 6,17 6,17 4,16 4,15 2,13 1,11 0,8z" />
<path style="fill:#ff0;stroke:#000;stroke-width:2" d="M432,201 l-2,-8 -2,-9 -3,-9 -3,-9 -3,-9 -3,-9 -4,-10 -3,-9 -3,-9 -2,-8 -2,-9 -2,-15 2,-12 2,-5 16,-9 14,-6 11,-2 10,0 8,3 7,4 4,7 4,7 2,9 2,10 0,10 -1,11 -1,10 -2,9 -2,9 -3,8 -4,9 -3,8 -4,14 -10,10 -8,5 -12,4z" />
<path style="fill:#ff0;stroke:#000;stroke-width:2" d="M510,266 l18,-12 18,-10 18,-8 17,-5 16,-4 15,-2 15,0 13,2 11,4 10,5 8,6 6,8 4,10 2,10 -2,12 -3,13 -13,3 -8,-1 -9,0 -10,-2 -10,-2 -11,-2 -11,-3 -12,-3 -12,-3 -12,-4 -12,-3 -12,-3 -12,-2 -11,-2 -11,-2z" />
<path style="fill:#ff0;stroke:#000;stroke-width:2" d="M510,311 l13,0 14,0 14,1 14,1 14,2 14,2 13,3 12,4 11,6 10,6 10,8 8,10 6,11 5,12 3,15 1,16 -10,9 -12,5 -13,-1 -7,-3 -7,-6 -11,-10 -6,-6 -6,-6 -6,-7 -7,-7 -6,-7 -7,-8 -7,-7 -8,-7 -7,-7 -8,-7 -8,-6 -9,-6 -8,-5 -9,-5z" />
<path style="fill:#ff0;stroke:#000;stroke-width:2" d="M310,194 l-11,-1 -11,-1 -11,-1 -11,-1 -12,-1 -11,-2 -11,-2 -11,-2 -11,-3 -11,-3 -10,-4 -9,-4 -9,-5 -8,-6 -8,-6 -7,-7 -3,-13 -1,-6 1,-13 5,-10 4,-3 13,0 13,1 12,2 12,2 12,3 12,3 11,5 10,5 10,6 10,7 9,8 8,8 7,10 7,10 5,11 5,13z" />
<path style="fill:#ff0;stroke:#000;stroke-width:2" d="M310,252 l-12,3 -12,4 -10,4 -11,5 -9,5 -10,5 -9,5 -10,4 -9,4 -10,3 -10,2 -11,0 -11,-2 -12,-3 -13,-5 -14,-8 -4,-7 -4,-14 0,-14 4,-15 4,-7 12,-4 13,-3 12,-2 11,0 12,1 11,2 11,3 10,3 11,4 10,4 10,5 11,4 10,4 10,4 9,3 10,3z" />
<path style="fill:#ff0;stroke:#000;stroke-width:2" d="M350,307 l-7,11 -7,11 -7,11 -7,11 -8,10 -8,10 -8,9 -9,7 -8,7 -9,4 -9,3 -10,2 -9,-2 -10,-3 -9,-6 -10,-9 1,-12 2,-11 2,-10 4,-9 4,-8 6,-7 6,-5 8,-5 8,-4 10,-3 11,-3 12,-1 13,-1 15,0 15,1 18,2z" />
<path style="fill:#ff0;stroke:#000;stroke-width:2" d="M392,330 l7,7 6,7 8,9 7,10 8,11 7,11 7,12 6,11 6,12 5,11 3,11 2,10 0,9 -1,8 -4,7 -6,5 -5,7 -8,3 -11,0 -11,-3 -12,-5 -11,-8 -10,-8 -8,-10 -2,-13 -1,-8 1,-15 0,-9 1,-8 1,-9 2,-8 1,-9 2,-9 2,-8 2,-8 2,-8 2,-8 2,-7z" />
<path style="fill:#ff0;stroke:#000;stroke-width:2" d="M461,344 l6,13 6,15 5,16 4,16 4,17 4,17 4,15 5,14 5,12 5,9 7,7 8,2 9,-1 11,-6 12,-12 14,-17 6,-13 -1,-9 -2,-9 -4,-9 -5,-10 -7,-10 -8,-10 -9,-9 -10,-9 -10,-8 -11,-7 -12,-6 -12,-4 -12,-3 -12,-1z" />
<path style="fill:#ff0;stroke:#000;stroke-width:2" d="M275,420 l11,3 29,-18 19,-21 8,-8 8,-5 0,5 -1,30 2,27 5,26 15,23 6,3 -41,9 -29,26 -21,38 -14,46 -8,51 -4,50 -2,45 0,37 26,-31 27,-29 31,-32 35,-31 36,-25 36,-17 34,-3 28,10 24,9 26,8 29,7 8,1 9,2 -24,1 -44,9 -40,15 -37,21 -36,24 -34,25 -35,26 -36,25 -27,14 -23,13 -22,22 -13,29 -6,34 5,33 -2,9 -4,7 -8,5 -12,3 -16,0 0,-41 9,-34 8,-37 7,-37 5,-35 3,-29 -2,-32 -15,-45 -26,-41 -33,-39 -17,-19 -35,-37 -32,-37 -25,-37 -8,-19 -5,-20 12,0 27,10 22,16 21,18 27,14 38,6 19,20 22,25 16,29 6,27 9,42 3,-41 3,-27 5,-26 5,-28 5,-27 4,-28 3,-28 1,-14z" />
<path style="fill:#ff0;stroke:#000;stroke-width:2" d="M482,231 l3,-15 4,-15 2,-8 3,-7 6,-14 8,-13 9,-11 10,-9 12,-6 26,0 12,2 11,2 10,5 7,8 5,12 1,16 -1,5 -7,9 -7,3 -8,3 -9,3 -10,2 -10,2 -11,2 -11,2 -11,3 -11,2 -10,4 -9,3 -7,5 -7,5z" />

</svg>
