 

<svg xmlns:agg="http://www.example.com" xmlns="http://www.w3.org/2000/svg" preserveAspectRatio="none" width="1.6083in" height="0.4991in" viewBox="0 0 999 310">

<circle style="fill:#000;stroke:#000;stroke-width:2" cx="108" cy="247" r="35" />
<circle style="fill:#fff;stroke:#000;stroke-width:2" cx="107" cy="247" r="17" />
<path style="fill:#000;stroke:#000;stroke-width:2" d="M107,241 l7,6 0,1 -7,6 -6,-6 5,-7 1,0z" />
<path style="fill:#f00;stroke:#000;stroke-width:2" d="M167,112 l9,0 7,0 5,0 4,0 3,0 2,0 1,0 2,0 2,0 2,0 3,0 3,0 6,0 7,0 9,0 11,0 0,-84 -10,3 -66,81z" />
<path style="fill:#f00;stroke:#000;stroke-width:2" d="M160,116 l-4,-4 -8,0 0,4 -15,6 13,0 -7,32 7,0 6,-26 30,0 0,26 -43,0 -32,4 -9,2 -9,2 -10,2 -9,2 -9,3 -9,2 -10,3 -4,1 -5,2 0,52 34,4 6,-12 10,-8 12,-6 12,-1 13,1 11,5 9,9 5,12 5,0 0,23 2,0 1,-3 10,-3 9,-1 11,0 13,0 12,1 12,0 11,1 11,1 3,0 1,0 0,-4 0,-12 0,-11 0,-12 0,-12 -1,-13 0,-12 0,-12 0,-13 0,-12 -1,-13 0,-4 -1,-2 0,-2 -26,0 -10,0 -9,0 -6,-1 0,0 0,0 1,0 0,0 0,0 -13,-1 -14,0 -6,0z" />
<path style="fill:#e5e5e5;stroke:#000;stroke-width:2" d="M152,222 l0,-4 40,0 0,4 -40,0z" />
<path style="fill:#e5e5e5;stroke:#000;stroke-width:2" d="M152,250 l0,-22 40,0 0,22 -40,0z" />
<path style="fill:#e5e5e5;stroke:#000;stroke-width:2" d="M212,250 l0,-34 27,0 0,34 -27,0z" />
<path style="fill:#e5e5e5;stroke:#000;stroke-width:2" d="M197,250 l0,-34 13,0 0,34 -13,0z" />
<path style="fill:#e5e5e5;stroke:#000;stroke-width:2" d="M241,250 l0,-34 13,0 0,34 -13,0z" />
<path style="fill:#e5e5e5;stroke:#000;stroke-width:2" d="M203,118 l0,17 2,0 0,64 -4,0 0,13 -6,0 0,-13 -3,0 0,-64 2,0 0,-41 3,-9 7,-7 3,-1 0,11 -3,3 -1,3 0,24z" />
<path style="fill:#e5e5e5;stroke:#000;stroke-width:2" d="M50,231 l-22,-3 0,24 22,2 0,-23z" />
<path style="fill:#4c4c4c;stroke:#000;stroke-width:2" d="M269,197 l0,-28 701,0 0,28 -701,0z" />
<path style="fill:#000;stroke:#000;stroke-width:2" d="M363,207 l0,5 -7,6 -6,7 -5,8 -1,2 -3,-9 -6,-7 -8,-5 -9,-4 -10,-1 -3,0 0,-6 58,4z" />
<path style="fill:#fff;stroke:#000;stroke-width:2" d="M354,207 l0,-10 -38,0 0,6 38,4z" />
<path style="fill:#000;stroke:#000;stroke-width:2" d="M284,209 l-9,5 -6,7 -4,8 -4,10 -1,9 5,0 2,-10 3,-9 6,-8 8,-7 0,-5z" />
<path style="fill:#000;stroke:#000;stroke-width:2" d="M254,244 l0,-24 15,0 -1,1 0,2 -1,1 -1,2 0,2 -1,1 -1,2 0,1 -1,2 -1,1 0,2 -1,2 0,1 -1,2 0,1 0,1 -6,0z" />
<path style="fill:#000;stroke:#000;stroke-width:2" d="M422,273 l5,0 0,-57 -15,0 2,2 1,3 2,3 1,2 2,3 1,3 0,3 1,2 0,36z" />
<path style="fill:#000;stroke:#000;stroke-width:2" d="M631,220 l106,0 24,-12 27,5 16,18 2,0 18,-20 30,-1 18,12 10,0 0,51 5,0 0,-51 49,0 0,24 6,0 0,-49 -311,0 0,23z" />
<circle style="fill:#000;stroke:#000;stroke-width:2" cx="306" cy="247" r="35" />
<circle style="fill:#fff;stroke:#000;stroke-width:2" cx="306" cy="247" r="18" />
<path style="fill:#000;stroke:#000;stroke-width:2" d="M305,241 l7,6 0,1 -7,6 -6,-6 4,-7 2,0z" />
<circle style="fill:#000;stroke:#000;stroke-width:2" cx="383" cy="247" r="35" />
<circle style="fill:#fff;stroke:#000;stroke-width:2" cx="384" cy="247" r="17" />
<path style="fill:#000;stroke:#000;stroke-width:2" d="M384,241 l1,0 5,7 -6,6 -7,-4 0,-2 6,-7 1,0z" />
<circle style="fill:#000;stroke:#000;stroke-width:2" cx="768" cy="247" r="35" />
<circle style="fill:#fff;stroke:#000;stroke-width:2" cx="768" cy="247" r="18" />
<path style="fill:#000;stroke:#000;stroke-width:2" d="M769,241 l5,7 -5,6 -8,-4 0,-2 6,-7 2,0z" />
<circle style="fill:#000;stroke:#000;stroke-width:2" cx="843" cy="247" r="35" />
<circle style="fill:#fff;stroke:#000;stroke-width:2" cx="842" cy="247" r="17" />
<path style="fill:#000;stroke:#000;stroke-width:2" d="M842,241 l8,6 0,1 -8,6 -6,-6 5,-7 1,0z" />

</svg>
