<?xml version="1.0" encoding="utf-8"?>
<!-- Generator: Adobe Illustrator 16.0.0, SVG Export Plug-In . SVG Version: 6.00 Build 0)  -->
<!DOCTYPE svg PUBLIC "-//W3C//DTD SVG 1.1//EN" "http://www.w3.org/Graphics/SVG/1.1/DTD/svg11.dtd">
<svg version="1.1" id="图层_1" xmlns="http://www.w3.org/2000/svg" preserveAspectRatio="none" xmlns:xlink="http://www.w3.org/1999/xlink" x="0px" y="0px"
	 width="100px" height="100px" viewBox="0 0 100 100" enable-background="new 0 0 100 100" xml:space="preserve">
<g>
	<ellipse fill="#C5C1AE" cx="50.026" cy="64.246" rx="48.974" ry="9.711"/>
	<g>
		<path fill="#699F44" d="M15.354,64.246c0,0-7.5-19.099-1.785-25.507c5.715-6.405,16.964-5.694,20.714,1.067
			c0,0,1.072-6.939,9.107-8.097c8.034-1.156,10.355,6.319,10.535,9.344c0,0,6.43-5.339,13.747-4.448
			c7.324,0.889,9.109,7.296,7.682,9.609c0,0,19.173,0.234,12.141,18.032H15.354z"/>
		<path fill="#7FBB53" d="M18.919,43.514c6.215-3.884,14.501,1.813,14.501,1.813s3.093-7.154,9.962-6.814
			c6.87,0.339,9.977,7.072,9.977,7.072s8.258-4.919,14.487-1.035c6.229,3.884,5.452,8.027,5.452,8.027s15.183-1.265,14.194,11.668
			c7.032-17.798-12.141-18.032-12.141-18.032c1.428-2.313-0.357-8.72-7.682-9.609c-7.317-0.891-13.747,4.448-13.747,4.448
			c-0.18-3.025-2.501-10.5-10.535-9.344c-8.036,1.158-9.107,8.097-9.107,8.097c-3.75-6.761-15-7.473-20.714-1.067
			c-5.715,6.408,1.785,25.507,1.785,25.507S12.704,47.398,18.919,43.514z"/>
	</g>
</g>
</svg>
