 

<svg xmlns:agg="http://www.example.com" xmlns="http://www.w3.org/2000/svg" preserveAspectRatio="none" width="0.2938in" height="1.0750in" viewBox="0 0 273 999">

<path style="fill:#bf0000" d="M149,970 l11,-26 10,-32 8,-31 4,-31 4,-34 5,-26 9,-33 8,-27 11,-34 13,-38 11,-37 1,-15 1,-15 -1,-15 -3,-32 -7,-33 -9,-35 -11,-35 -13,-37 -14,-38 -14,-39 -15,-40 -15,-41 -14,-42 -12,-43 -12,-44 -9,-44 -4,-22 -3,-23 -2,16 -5,32 -4,32 -5,32 -5,32 -5,31 -5,32 -5,32 -5,32 -4,31 -4,33 -4,32 -3,33 -2,33 -2,33 -1,17 0,17 0,17 6,48 6,43 7,38 7,33 7,29 8,26 12,35 12,30 12,28 13,28 12,29 12,33 3,12 4,13z" />
<path style="fill:#fc0" d="M150,909 l13,-35 7,-26 5,-28 4,-31 6,-29 13,-41 9,-26 11,-32 3,-21 0,-12 0,-11 -5,-36 -6,-25 -7,-26 -9,-27 -10,-27 -11,-29 -11,-29 -11,-30 -10,-31 -10,-32 -9,-32 -8,-32 -7,-33 -2,-17 -1,12 -5,35 -6,36 -5,35 -6,35 -5,35 -6,36 -4,36 -3,36 -3,37 -1,25 0,12 0,13 4,35 5,32 5,28 11,46 11,37 12,31 13,28 12,28 11,32 6,18z" />
<path style="fill:#ff0" d="M143,849 l11,-30 5,-31 5,-30 8,-26 12,-35 2,-13 0,-13 -5,-30 -9,-32 -12,-33 -13,-36 -13,-37 -10,-40 -5,-19 -3,-21 -2,15 -4,29 -4,29 -5,28 -4,29 -4,29 -3,29 -1,15 0,16 0,15 5,41 6,32 7,25 11,29 11,25 11,29 3,11z" />

</svg>
