 

<svg xmlns:agg="http://www.example.com" xmlns="http://www.w3.org/2000/svg" preserveAspectRatio="none" width="1.0008in" height="1.0750in" viewBox="0 0 930 999">

<path style="fill:#400000;fill-rule:evenodd" d="M679,145 l-10,11 -10,12 -11,11 -10,11 -10,11 -11,11 -11,11 -11,11 -12,10 -11,10 -12,10 -12,9 -12,8 -13,8 -13,8 -14,7 -2,0 -4,1 -3,0 -3,1 6,-1 5,-1 6,-2 5,-2 5,-2 5,-3 5,-3 5,-2 10,-5 11,-5 10,-6 11,-6 10,-7 11,-7 10,-8 10,-8 9,-8 10,-8 9,-9 8,-9 8,-9 7,-9 7,-10 6,-10 1,-1 1,-2 1,-3 1,-3 1,-3 1,-3 0,-3 0,-3z M229,265 l8,-12 9,-12 10,-12 10,-12 10,-12 11,-12 12,-12 12,-12 13,-12 13,-12 13,-12 14,-11 15,-11 15,-11 15,-10 15,-9 15,-9 16,-8 16,-8 16,-7 16,-6 17,-5 16,-4 16,-3 17,-2 16,-1 17,0 16,2 17,2 16,4 16,6 16,7 4,24 4,23 4,23 2,22 3,21 1,21 2,19 0,20 1,19 0,19 -1,18 -1,17 -1,17 -1,18 -2,16 -2,17 -2,17 -3,16 -2,17 -3,16 -2,16 -3,17 -3,16 -3,17 -3,17 -2,18 -3,17 -3,18 -2,18 -3,19 -2,19 -2,20 11,1 10,1 10,3 11,3 10,4 11,5 10,5 11,5 11,6 10,6 10,6 9,6 10,6 9,5 9,6 9,4 -6,0 -7,0 -8,-1 -8,0 -9,0 -10,0 -9,0 -10,1 -10,1 -8,2 -8,3 -7,4 -6,5 -4,6 -3,8 -1,9 15,5 15,6 15,7 15,8 13,7 14,9 13,8 13,9 12,10 12,9 12,10 11,10 10,10 11,9 10,11 9,9 -11,-2 -12,-3 -14,-3 -13,-4 -14,-5 -14,-5 -14,-5 -14,-5 -14,-6 -14,-5 -14,-6 -14,-6 -13,-5 -12,-5 -12,-5 -11,-5 -16,-5 -17,-4 -19,-4 -20,-3 -20,-2 -21,-1 -22,-1 -22,0 -22,0 -22,0 -22,1 -21,0 -20,1 -20,0 -19,1 -18,0 -22,1 -22,4 -21,6 -21,9 -21,10 -20,11 -20,13 -19,14 -19,14 -18,15 -18,14 -16,15 -17,13 -16,13 -14,12 -14,10 -1,-2 -2,-3 -1,-4 0,-4 -1,-6 0,-6 1,-7 2,-7 2,-9 4,-9 4,-11 7,-11 7,-12 9,-13 11,-14 13,-15 -8,0 -4,1 -3,0 -3,1 -2,0 -3,0 -5,-1 -6,-1 5,-10 7,-10 7,-9 8,-8 10,-9 10,-7 10,-8 10,-6 11,-7 11,-6 10,-5 11,-6 9,-4 10,-4 8,-4 8,-3 -16,-4 -15,-2 -15,-1 -14,2 -14,2 -13,4 -13,5 -13,6 -12,7 -13,7 -12,8 -12,7 -12,8 -12,7 -13,7 -12,6 13,-25 13,-20 12,-18 12,-14 12,-11 11,-9 12,-8 12,-6 11,-6 11,-5 12,-5 12,-7 13,-7 12,-9 14,-11 14,-14 0,-17 1,-15 2,-15 2,-15 2,-14 3,-14 3,-13 3,-13 3,-14 4,-13 4,-13 4,-14 3,-14 3,-14 3,-14 3,-15 1,-9 -1,-9 -1,-10 -3,-10 -3,-10 -4,-9 -4,-10 -5,-9 -4,-9 -4,-9 -4,-8 -3,-8 -2,-7 -2,-6 0,-6 1,-4z M245,272 l7,16 8,13 11,10 12,8 15,5 15,3 17,1 19,-1 19,-3 20,-5 21,-7 21,-8 21,-9 22,-11 21,-11 21,-13 21,-13 19,-14 19,-15 18,-14 16,-15 15,-15 14,-15 11,-14 10,-15 7,-14 5,-13 2,-12 -1,-11 -3,-11 -7,-9 -10,-7 -4,-3 -6,-3 -7,-1 -8,-2 -9,-1 -10,0 -10,0 -10,0 -11,1 -10,1 -10,1 -10,1 -9,1 -9,2 -7,1 -7,2 -23,7 -23,10 -23,12 -22,13 -23,14 -21,16 -21,16 -20,16 -18,17 -16,17 -15,16 -14,15 -11,15 -8,13 -7,12 -4,10z M363,165 l3,-2 7,-5 10,-7 13,-9 15,-10 18,-12 19,-11 20,-11 21,-11 22,-9 21,-8 21,-6 20,-4 19,-1 18,3 16,6 8,6 5,7 3,9 0,8 -2,10 -4,10 -5,10 -8,11 -8,10 -9,10 -9,11 -10,9 -10,9 -10,9 -9,8 -9,6 -5,4 -6,4 -7,5 -7,4 -7,3 -6,3 -6,2 -5,1 -9,6 0,1 5,-4 11,-7 14,-10 17,-14 18,-15 19,-16 18,-18 16,-17 12,-17 9,-17 3,-14 -5,-12 -12,-9 -22,-6 -9,0 -13,3 -18,5 -21,6 -23,9 -25,11 -26,12 -26,14 -26,14 -24,16 -23,17 -21,18 -17,19 -13,19 -8,20 -3,19 3,5 4,4 6,2 7,0 9,0 9,-2 11,-3 11,-4 12,-5 14,-5 13,-7 13,-7 14,-7 13,-8 14,-8 13,-9 13,-8 13,-9 12,-9 11,-8 10,-9 9,-8 8,-8 7,-7 5,-7 4,-6 2,-5 0,-4 -2,-5 -4,-2 -6,-1 -8,-1 -7,1 -9,1 -12,3 -13,4 -14,5 -15,6 -15,7 -16,7 -15,9 -14,9 -13,10 -12,10 -10,11 -8,11 -5,12 -1,12 7,1 8,-1 10,-2 10,-5 10,-5 11,-7 11,-7 10,-8 11,-8 9,-8 9,-7 8,-6 6,-6 5,-4 3,-3 1,0 -4,0 -7,2 -10,4 -12,5 -13,6 -12,6 -10,5 -8,3 3,-3 4,-3 5,-3 5,-3 6,-4 6,-4 6,-3 7,-4 6,-3 7,-3 6,-2 6,-2 6,-2 5,0 4,0 4,2 1,4 -2,5 -5,6 -6,7 -8,8 -10,7 -11,8 -11,8 -12,8 -12,7 -13,6 -12,6 -11,5 -11,4 -10,2 -8,1 -5,-6 -2,-8 3,-9 6,-11 9,-11 12,-13 13,-12 16,-13 17,-11 18,-11 19,-10 20,-9 20,-6 20,-3 18,-1 18,2 7,8 1,10 -2,9 -6,11 -9,10 -11,12 -13,11 -15,11 -17,11 -16,10 -16,10 -15,9 -15,9 -13,7 -11,6 -8,4 -7,3 -8,4 -7,3 -9,3 -8,3 -8,2 -9,2 -8,2 -7,1 -8,1 -7,0 -6,0 -6,-1 -5,-2 -4,-2 -3,-4 -2,-6 -1,-6 1,-7 2,-7 2,-8 4,-8 5,-8 5,-8 6,-8 7,-8 7,-8 7,-7 7,-7 8,-6 7,-6 8,-5z " />
<path style="fill:none;stroke:#000;stroke-width:2" d="M679,145 l-10,11 -10,12 -11,11 -10,11 -10,11 -11,11 -11,11 -11,11 -12,10 -11,10 -12,10 -12,9 -12,8 -13,8 -13,8 -14,7 -9,1 -3,1 6,-1 11,-3 10,-4 10,-6 5,-2 10,-5 11,-5 10,-6 11,-6 10,-7 11,-7 10,-8 10,-8 9,-8 10,-8 9,-9 8,-9 8,-9 7,-9 7,-10 6,-10 4,-9 2,-6 0,-3 0,-3" />
<path style="fill:none;stroke:#000;stroke-width:2" d="M229,265 l17,-24 20,-24 21,-24 24,-24 26,-24 27,-23 30,-22 30,-19 31,-17 32,-15 33,-11 32,-7 17,-2 16,-1 17,0 33,4 32,10 16,7 8,47 6,45 4,42 2,39 1,38 -2,35 -2,35 -4,33 -5,33 -5,33 -5,33 -6,33 -5,35 -6,35 -5,37 -4,39 31,5 32,12 32,16 29,18 28,17 9,4 -29,-1 -28,0 -28,4 -25,18 -4,17 30,11 30,15 27,16 26,17 24,19 23,20 21,19 10,11 9,9 -11,-2 -26,-6 -27,-9 -28,-10 -28,-11 -28,-11 -27,-11 -24,-10 -27,-10 -36,-8 -40,-5 -43,-2 -44,0 -44,1 -41,1 -39,1 -40,1 -43,10 -42,19 -40,24 -38,28 -36,29 -33,28 -30,25 -14,10 -1,-2 -3,-30 8,-25 18,-34 20,-27 13,-15 -28,1 -6,-1 19,-29 28,-24 31,-21 32,-17 27,-12 8,-3 -31,-6 -29,1 -27,6 -26,11 -25,14 -24,15 -24,15 -13,7 -12,6 13,-25 25,-38 24,-25 23,-17 23,-12 23,-10 25,-14 26,-20 14,-14 1,-32 4,-30 5,-28 6,-26 7,-27 8,-27 6,-28 6,-29 -1,-28 -10,-29 -13,-28 -11,-25 -3,-23" />
<path style="fill:none;stroke:#000;stroke-width:2" d="M245,272 l15,29 23,18 30,8 17,1 19,-1 39,-8 42,-15 43,-20 42,-24 40,-27 37,-29 31,-30 25,-29 17,-29 5,-13 2,-12 -1,-11 -20,-27 -25,-9 -9,-1 -10,0 -10,0 -31,2 -29,3 -46,12 -23,10 -23,12 -22,13 -23,14 -21,16 -21,16 -20,16 -34,34 -29,31 -19,28 -7,12 -4,10" />
<path style="fill:none;stroke:#000;stroke-width:2" d="M363,165 l33,-23 33,-22 39,-22 43,-20 42,-14 20,-4 19,-1 18,3 24,12 5,7 3,9 0,8 -11,30 -16,21 -18,21 -20,18 -28,23 -25,17 -24,9 -9,6 0,1 30,-21 35,-29 37,-34 28,-34 12,-31 -5,-12 -12,-9 -31,-6 -31,8 -44,15 -25,11 -26,12 -26,14 -26,14 -24,16 -23,17 -21,18 -30,38 -11,39 3,5 26,6 31,-9 26,-10 26,-14 27,-15 27,-17 26,-17 23,-17 19,-17 20,-22 6,-15 -2,-5 -4,-2 -30,0 -25,7 -29,11 -31,14 -29,18 -25,20 -18,22 -6,24 35,-7 32,-19 21,-16 26,-21 15,-13 -33,11 -25,12 -18,8 23,-16 25,-14 25,-9 13,2 1,4 -21,26 -21,15 -23,16 -25,13 -23,11 -29,7 -5,-6 -2,-8 18,-31 25,-25 33,-24 37,-21 40,-15 38,-4 18,2 7,8 1,10 -17,30 -24,23 -32,22 -32,20 -30,18 -24,13 -23,11 -24,9 -25,6 -7,1 -8,1 -7,0 -21,-5 -3,-4 -2,-6 -1,-6 1,-7 13,-31 18,-24 21,-22 23,-17" />

</svg>
