 

<svg xmlns:agg="http://www.example.com" xmlns="http://www.w3.org/2000/svg" preserveAspectRatio="none" width="0.9566in" height="1.0750in" viewBox="0 0 889 999">

<path style="fill:none;stroke:#000;stroke-width:2" d="M668,437 l-11,-21 32,-334 12,334 -12,21" />
<path style="fill:none;stroke:#000;stroke-width:2" d="M211,416 l441,-328 -415,371 -4,-22 447,-366 -458,356" />
<path style="fill:#333;stroke:#000;stroke-width:2" d="M269,544 l432,-516 20,0 23,43 -368,581 -107,-108z" />
<path style="fill:#191919" d="M344,573 l374,-481 -325,501 -49,-20z" />
<path style="fill:#000;stroke:#000;stroke-width:2" d="M92,884 l194,0 0,86 -194,0 0,-86z" />
<path style="fill:#000;stroke:#000;stroke-width:2" d="M227,738 l108,0 87,-107 -153,-128 -42,41 0,194z" />
<path style="fill:#333" d="M312,610 l324,0 0,21 -324,0 0,-21z" />
<path style="fill:#7f7f7f;stroke:#000;stroke-width:2" d="M312,567 l259,0 65,-23 0,87 -65,-21 -259,0 0,-43z" />
<path style="fill:#bfb299" d="M227,544 l85,0 0,130 -85,0 0,-130z" />
<path style="fill:#7f7f7f" d="M574,752 l134,77 126,-166 -179,-104 -81,193z" />
<path style="fill:#666;stroke:#000;stroke-width:2" d="M678,573 l183,45 -27,45 -156,-90z" />
<path style="fill:none;stroke:#000;stroke-width:2" d="M574,752 l134,77 126,-166 -179,-104 -81,193" />
<path style="fill:#666" d="M610,742 l23,13 54,-147 -22,-13 -55,147z" />
<path style="fill:#666" d="M691,759 l40,40 85,-110 -38,-30 -87,100z" />
<path style="fill:#999;stroke:#000;stroke-width:2" d="M636,567 l87,0 0,43 -87,0 0,-43z" />
<path style="fill:#ccc;stroke:#000;stroke-width:2" d="M668,393 l21,0 0,174 -21,0 0,-174z" />
<path style="fill:#4c4c4c;stroke:#000;stroke-width:2" d="M179,544 l32,-128 22,0 42,258 -21,0 -32,-237 -21,107 -22,0z" />
<path style="fill:#f2e5cc" d="M54,544 l189,0 -16,130 85,0 0,194 -258,0 0,-324z" />
<path style="fill:#ede0c7" d="M54,774 l258,-136 0,230 -258,0 0,-94z" />
<path style="fill:#e8dbc2" d="M54,787 l258,-133 0,214 -258,0 0,-81z" />
<path style="fill:#e3d6bd" d="M54,808 l258,-136 0,196 -258,0 0,-60z" />
<path style="fill:none;stroke:#000;stroke-width:2" d="M54,544 l189,0 -16,130 85,0 0,194 -258,0 0,-324" />
<path style="fill:none;stroke:#fc0;stroke-width:2" d="M205,674 l0,-32 107,0 0,32" />
<path style="fill:none;stroke:#fc0;stroke-width:2" d="M205,657 l107,0" />
<path style="fill:none;stroke:#fc0;stroke-width:2" d="M237,674 l0,-32" />
<path style="fill:none;stroke:#fc0;stroke-width:2" d="M280,674 l0,-32" />
<path style="fill:#333;stroke:#000;stroke-width:2" d="M193,599 l34,0 -5,58 -29,0 0,-58z" />
<path style="fill:#333;stroke:#000;stroke-width:2" d="M161,599 l29,0 0,58 -29,0 0,-58z" />
<path style="fill:#333;stroke:#000;stroke-width:2" d="M129,599 l27,0 0,58 -27,0 0,-58z" />
<path style="fill:#665940;stroke:#000;stroke-width:2" d="M73,833 l87,-145 13,7 -87,145 -13,-7z" />
<path style="fill:none;stroke:#fff;stroke-width:2" d="M303,767 l0,85 -87,0" />
<path style="fill:none;stroke:#bfb299;stroke-width:2" d="M303,767 l-87,0 0,85" />
<path style="fill:none;stroke:#4c4c4c;stroke-width:2" d="M680,567 l0,-98" />
<path style="fill:none;stroke:#fc0;stroke-width:2" d="M167,459 l0,-32 108,0 0,32" />
<path style="fill:none;stroke:#fc0;stroke-width:2" d="M167,443 l108,0" />
<path style="fill:none;stroke:#fc0;stroke-width:2" d="M201,459 l0,-32" />
<path style="fill:none;stroke:#fc0;stroke-width:2" d="M243,459 l0,-32" />
<path style="fill:none;stroke:#fc0;stroke-width:2" d="M120,669 l0,-32 107,0 0,32" />
<path style="fill:none;stroke:#fc0;stroke-width:2" d="M120,654 l107,0" />
<path style="fill:none;stroke:#fc0;stroke-width:2" d="M152,669 l0,-32" />
<path style="fill:none;stroke:#fc0;stroke-width:2" d="M195,669 l0,-32" />
<path style="fill:none;stroke:#fc0;stroke-width:2" d="M99,789 l-28,-15 53,-94 28,17" />
<path style="fill:none;stroke:#fc0;stroke-width:2" d="M84,782 l55,-93" />
<path style="fill:none;stroke:#fc0;stroke-width:2" d="M114,763 l-28,-17" />
<path style="fill:none;stroke:#fc0;stroke-width:2" d="M137,725 l-28,-17" />
<path style="fill:none;stroke:#fc0;stroke-width:2" d="M28,831 l0,-32 107,0 0,32" />
<path style="fill:none;stroke:#fc0;stroke-width:2" d="M28,814 l107,0" />
<path style="fill:none;stroke:#fc0;stroke-width:2" d="M60,831 l0,-32" />
<path style="fill:none;stroke:#fc0;stroke-width:2" d="M103,831 l0,-32" />
<path style="fill:none;stroke:#fc0;stroke-width:2" d="M312,637 l0,-32 110,0 0,32" />
<path style="fill:none;stroke:#fc0;stroke-width:2" d="M312,620 l110,0" />
<path style="fill:none;stroke:#fc0;stroke-width:2" d="M346,637 l0,-32" />
<path style="fill:none;stroke:#fc0;stroke-width:2" d="M390,637 l0,-32" />
<path style="fill:none;stroke:#fc0;stroke-width:2" d="M318,868 l0,-32 32,0 0,32" />
<path style="fill:none;stroke:#fc0;stroke-width:2" d="M318,852 l32,0" />
<path style="fill:#333;stroke:#000;stroke-width:2" d="M54,868 l296,0 0,16 -296,0 0,-16z" />
<path style="fill:#333;stroke:#000;stroke-width:2" d="M312,637 l110,0 0,11 -110,0 0,-11z" />
<path style="fill:#333;stroke:#000;stroke-width:2" d="M167,459 l108,0 0,10 -108,0 0,-10z" />
<path style="fill:#4c4c4c;stroke:#000;stroke-width:2" d="M28,831 l171,0 0,69 -171,0 0,-69z" />
<path style="fill:#4c4c4c;stroke:#000;stroke-width:2" d="M48,900 l23,0 0,70 -23,0 0,-70z" />
<path style="fill:#4c4c4c;stroke:#000;stroke-width:2" d="M129,900 l23,0 0,70 -23,0 0,-70z" />
<path style="fill:#4c4c4c;stroke:#000;stroke-width:2" d="M216,884 l21,0 0,86 -21,0 0,-86z" />
<path style="fill:#4c4c4c;stroke:#000;stroke-width:2" d="M291,884 l21,0 0,86 -21,0 0,-86z" />
<path style="fill:#000;stroke:#000;stroke-width:2" d="M120,669 l107,0 0,26 -107,0 0,-26z" />

</svg>
