 

<svg xmlns:agg="http://www.example.com" xmlns="http://www.w3.org/2000/svg" preserveAspectRatio="none" width="0.9037in" height="1.0750in" viewBox="0 0 839 998">

<path style="fill:#804000;stroke:#000;stroke-width:2" d="M27,287 l40,14 41,8 41,4 41,3 40,6 38,11 35,20 32,31 -10,-34 -6,-29 -4,-47 6,-33 13,-27 17,-24 18,-27 14,-33 10,-47 9,-40 4,-11 3,-5 3,0 10,24 7,27 8,31 9,26 29,36 25,32 13,29 4,37 -7,35 -6,26 -4,28 0,15 22,-13 41,-16 38,-6 38,0 37,4 37,3 37,0 40,-7 21,-8 -19,28 -16,24 -22,40 -15,29 -14,24 -19,21 -29,22 -21,13 -26,14 -31,17 -37,19 46,-8 36,2 29,11 24,17 19,23 19,27 19,27 20,29 -32,-4 -28,3 -29,7 -32,9 -35,8 -36,5 -39,0 -26,-3 -27,-7 -29,-10 -28,-16 -30,-21 -2,45 -4,40 -5,37 -6,32 -7,28 -9,25 -19,38 -23,27 -26,14 -14,4 -15,1 -16,-2 -16,-3 37,-5 30,-13 22,-23 18,-31 12,-41 5,-24 4,-25 2,-29 3,-30 2,-32 1,-35 -37,28 -38,18 -38,9 -40,2 -42,-2 -46,-5 -48,-5 -26,-3 -27,-1 27,-21 16,-24 13,-25 12,-27 18,-26 28,-26 19,-13 23,-12 29,-12 33,-12 -24,-8 -44,-17 -35,-19 -29,-23 -24,-27 -21,-31 -19,-38 -10,-22 -10,-24 -10,-25z" />

</svg>
