 

<svg xmlns:agg="http://www.example.com" xmlns="http://www.w3.org/2000/svg" preserveAspectRatio="none" width="1.2473in" height="1.0750in" viewBox="0 0 999 861">

<path style="fill:#4c4c4c;stroke:#000;stroke-width:2" d="M52,180 l74,0 0,-18 19,-19 588,0 18,19 0,18 38,0 0,-73 -737,0 0,73z" />
<path style="fill:#4c4c4c;stroke:#000;stroke-width:2" d="M163,695 l0,-38 -18,0 -19,-17 0,-460 -74,0 0,496 19,19 92,0z" />
<path style="fill:#4c4c4c;stroke:#000;stroke-width:2" d="M789,180 l0,496 -19,19 -56,0 0,-38 19,0 18,-17 0,-460 38,0z" />
<path style="fill:#4c4c4c;stroke:#000;stroke-width:2" d="M163,657 l553,0 0,38 -553,0 0,-38z" />
<path style="fill:#ccc;stroke:#000;stroke-width:2" d="M28,165 l79,0 0,-20 19,-19 628,0 20,19 0,20 40,0 0,-79 -786,0 0,79z" />
<path style="fill:#b2b2b2;stroke:#000;stroke-width:2" d="M145,714 l0,-38 -19,0 -19,-21 0,-490 -79,0 0,530 18,19 99,0z" />
<path style="fill:#b2b2b2;stroke:#000;stroke-width:2" d="M814,165 l0,530 -21,19 -59,0 0,-38 20,0 20,-21 0,-490 40,0z" />
<path style="fill:#ccc;stroke:#000;stroke-width:2" d="M145,676 l589,0 0,38 -589,0 0,-38z" />
<circle style="fill:#f60;stroke:#000;stroke-width:2" cx="83" cy="777" r="55" />
<circle style="fill:#000" cx="82" cy="778" r="41" />
<path style="fill:#ccc;stroke:#000;stroke-width:2" d="M62,714 l0,49 20,21 21,-21 0,-49 -41,0z" />
<circle style="fill:#f60;stroke:#000;stroke-width:2" cx="758" cy="777" r="55" />
<circle style="fill:#000" cx="757" cy="778" r="41" />
<path style="fill:#ccc;stroke:#000;stroke-width:2" d="M737,714 l0,49 20,21 21,-21 0,-49 -41,0z" />
<path style="fill:#e5e5e5;stroke:#000;stroke-width:2" d="M28,77 l786,0 0,9 -786,0 0,-9z" />
<path style="fill:#ccc;stroke:#000;stroke-width:2" d="M814,145 l19,0 0,-29 30,-20 107,-40 0,-28 -156,49 0,68z" />

</svg>
