 

<svg xmlns:agg="http://www.example.com" xmlns="http://www.w3.org/2000/svg" preserveAspectRatio="none" width="1.6083in" height="1.0706in" viewBox="0 0 999 665">

<path style="fill:#0000bf" d="M28,618 l17,-23 17,-27 18,-31 18,-33 14,-22 14,-23 6,-29 -1,-31 -3,-31 0,-30 4,-34 5,-28 10,-31 8,28 1,33 4,28 5,9 27,-13 13,-27 24,31 8,28 5,30 4,29 5,26 15,27 18,6 6,-1 16,-32 4,-38 1,-28 4,-37 7,-22 -6,-46 -4,-36 -2,-28 2,-31 4,-8 20,18 18,19 2,0 2,0 2,-2 1,-3 29,-2 28,-8 20,-19 3,-32 1,-34 5,-35 11,-27 18,-17 4,-3 0,7 4,27 7,26 9,25 9,25 8,27 6,31 0,37 -3,30 1,-2 2,1 15,24 2,2 2,-1 1,-35 -4,-47 13,24 9,27 4,28 2,31 1,29 0,29 1,35 6,28 17,21 5,2 23,-17 11,-24 6,-33 6,-30 21,-17 11,-26 1,-30 9,28 9,36 7,27 6,29 4,27 4,27 1,24 3,2 4,-1 14,-29 11,-37 7,-25 12,-33 7,-14 -3,-36 8,-25 26,-14 12,-28 -3,-35 15,23 15,25 5,4 2,0 3,-32 5,-29 12,-26 1,-5 10,26 7,24 7,36 3,33 1,32 -1,31 -1,30 -1,29 1,28 3,28 7,28 4,9 3,-1 10,-31 2,-30 1,-29 3,-26 16,27 7,32 2,28 2,30 2,30 1,29 2,32 6,25 1,3 -6,0 -34,3 -27,2 -34,3 -33,3 -27,2 -34,3 -13,2 -7,1 -11,-2 -34,-4 -33,-4 -33,-3 -33,-3 -33,-3 -33,3 -34,3 -33,3 -33,4 -33,4 -33,2 -214,0 -34,-6 -34,-4 -35,-5 -26,-3 -8,-1z" />
<path style="fill:#ababff" d="M37,616 l21,-18 22,-19 23,-22 17,-22 12,-25 4,-28 4,-27 7,-35 7,-29 6,-16 7,28 1,29 7,18 31,0 4,-2 3,-3 1,-4 20,20 11,24 9,31 16,20 29,-4 13,-25 9,-30 9,-24 3,-3 -5,-36 -2,-29 -1,-32 4,-28 29,0 8,2 4,-1 3,-4 11,22 19,23 25,13 21,-6 1,-34 -1,-33 0,-29 8,-21 2,-3 1,10 12,28 21,24 9,35 -3,29 1,-1 2,-1 8,4 2,0 1,-2 0,-40 -5,-37 14,24 9,25 4,26 5,36 7,31 22,24 23,21 9,8 3,-1 4,-29 22,-17 30,-2 22,-17 4,-22 13,25 14,22 15,23 11,24 5,25 3,2 3,-1 15,-28 10,-28 9,-27 9,-18 -2,-27 10,-26 22,-20 2,-29 -2,-15 12,31 7,28 8,30 2,5 1,-1 4,-26 4,-5 15,-4 3,-3 3,-6 13,36 7,27 3,32 -2,35 4,30 9,25 2,-1 8,-27 2,-27 3,-26 15,28 4,35 3,38 2,32 3,14 3,4 -11,1 -32,2 -34,2 -34,1 -34,3 -32,2 -33,-2 -28,-2 -31,-1 -32,-1 -31,-1 -28,-2 -28,-2 -31,2 -28,3 -28,1 -28,2 -28,2 -34,1 -31,2 -35,1 -27,2 -37,1 -35,2 -32,1 -15,0 -6,1 -7,0 -28,-4 -33,-6 -26,-4 -32,-5 -8,-1 -7,-1z" />
<path style="fill:#d9ffff" d="M47,618 l28,-7 32,0 21,-18 16,-21 16,-29 11,-27 4,-11 5,27 4,25 24,14 15,9 1,-2 21,14 29,5 31,-2 27,-10 11,-7 -5,-48 0,-33 9,-30 22,-17 10,-6 1,-3 4,45 9,35 13,26 22,24 24,10 4,0 2,-1 1,-2 -2,-32 -9,-31 -9,-24 -1,-6 3,-5 2,10 2,2 23,-13 7,-4 3,1 2,2 0,21 5,-26 -1,-32 -2,-25 -2,-15 5,8 16,27 13,25 25,19 1,2 12,29 9,33 8,29 4,14 1,-15 4,-7 33,-7 34,2 31,0 14,-7 4,-6 1,-8 28,13 28,5 22,16 1,5 2,1 2,0 2,-1 16,-26 13,-27 5,-7 -1,-33 16,-22 5,-32 -1,-11 6,27 5,38 3,28 4,33 2,13 2,-10 4,-3 25,13 4,2 3,-4 13,27 2,3 2,1 1,-1 1,-11 1,0 1,1 7,16 3,-1 5,-30 2,-12 14,23 3,31 3,11 2,3 -7,0 -34,0 -37,-1 -36,-1 -31,1 -33,-1 -46,0 -31,1 -31,0 -31,1 -28,0 -41,0 -35,0 -31,-1 -31,-1 -32,2 -33,2 -37,2 -31,3 -33,2 -32,3 -31,2 -28,2 -30,2 -6,0 -5,1 -5,0 -33,-6 -34,-6 -33,-5 -13,-2 -5,0z" />
<path style="fill:#f2ffff" d="M94,623 l2,-1 30,-1 22,-14 2,-2 2,0 13,-27 3,4 2,2 3,0 6,-2 3,0 2,2 23,14 3,1 1,-2 23,13 31,0 34,-3 28,-2 28,-5 6,-3 -3,-30 2,-28 2,-2 5,-1 11,5 1,-1 1,-1 5,28 18,27 24,11 31,-1 14,-5 1,-2 4,-26 3,-3 10,-1 3,-2 2,7 1,1 2,0 19,-11 1,2 0,14 2,-4 2,-29 -4,-33 15,23 13,22 13,9 -3,29 -5,10 -1,0 -2,-6 1,-6 2,-4 30,-4 29,1 16,-5 2,-4 1,-6 2,2 28,1 31,-3 22,2 3,2 1,3 24,10 33,8 29,4 10,-1 2,-2 2,-32 12,-27 6,-31 -1,-8 1,2 7,30 5,31 2,16 0,-4 1,-5 2,-2 21,9 2,-2 19,21 25,-6 4,0 9,12 2,-1 3,-27 5,3 6,26 2,12 2,4 -6,0 -32,0 -29,-1 -32,0 -31,-1 -42,0 -28,1 -30,0 -31,1 -35,1 -36,2 -34,1 -32,1 -33,1 -32,-1 -29,0 -34,2 -29,1 -33,1 -36,2 -36,2 -35,2 -32,1 -33,2 -7,0 -5,1 -5,0 -30,-5 -29,-5 -18,-3 -3,-1z" />

</svg>
