 

<svg xmlns:agg="http://www.example.com" xmlns="http://www.w3.org/2000/svg" preserveAspectRatio="none" width="1.6083in" height="0.5189in" viewBox="0 0 530 171">

<path style="fill:#f00;stroke:#000;stroke-width:2" d="M87,68 l15,0 0,-10 0,-1 1,-2 0,-1 1,-1 1,-2 1,0 1,-1 2,-1 0,6 -1,0 -1,1 0,1 -1,1 0,10 21,0 0,-46 -1,1 -2,1 -1,1 -36,43z" />
<path style="fill:#f00;stroke:#000;stroke-width:2" d="M102,120 l0,-7 -1,0 0,-34 1,0 0,-9 -18,0 0,-2 -2,0 0,-1 -4,0 0,2 -3,1 -5,2 7,1 -4,16 4,0 3,-13 15,0 0,13 -22,0 -8,1 -9,1 -9,2 -10,2 -10,3 -9,3 0,27 17,3 0,-2 1,-2 0,-1 3,-4 4,-4 3,-2 1,0 3,-2 10,0 4,2 1,0 4,3 3,4 3,5 0,1 1,2 3,0 0,12 1,0 0,-21 21,0 0,3 -21,0 0,3 21,0 0,8 3,0 0,-14 6,0 0,18 2,0 0,-18 13,0 0,18 2,0 0,-18 2,0 0,-49 -1,-2 -1,0 -2,-1 -19,0 0,9 2,0 0,34 -2,0 0,7 -4,0z" />
<path style="fill:#e5e5e5;stroke:#000;stroke-width:2" d="M27,130 l-12,-2 0,12 12,2 0,-12z" />
<ellipse style="fill:#e5e5e5;stroke:#000;stroke-width:2" cx="105" cy="84" rx="4" ry="35" />
<path style="fill:#e5e5e5;stroke:#000;stroke-width:2" d="M127,140 l0,-18 6,0 0,18 -6,0z" />
<path style="fill:#e5e5e5;stroke:#000;stroke-width:2" d="M104,140 l0,-18 6,0 0,18 -6,0z" />
<path style="fill:#e5e5e5;stroke:#000;stroke-width:2" d="M112,140 l0,-18 13,0 0,18 -13,0z" />
<path style="fill:#e5e5e5;stroke:#000;stroke-width:2" d="M80,140 l0,-12 21,0 0,12 -21,0z" />
<path style="fill:#e5e5e5;stroke:#000;stroke-width:2" d="M80,125 l0,-3 21,0 0,3 -21,0z" />
<path style="fill:#4c4c4c;stroke:#000;stroke-width:2" d="M141,112 l0,-15 366,0 0,15 -366,0z" />
<path style="fill:#000;stroke:#000;stroke-width:2" d="M191,117 l0,3 -2,1 -2,1 -2,2 -1,2 -2,2 -1,2 0,2 -1,-2 -1,-2 -1,-2 -2,-2 -2,-2 -1,-1 -2,-1 -3,-1 -2,-1 -2,0 -2,-1 -2,0 0,-2 31,2z" />
<circle style="fill:#fff;stroke:#000;stroke-width:2" cx="456" cy="138" r="9" />
<circle style="fill:#fff;stroke:#000;stroke-width:2" cx="417" cy="138" r="9" />
<circle style="fill:#fff;stroke:#000;stroke-width:2" cx="201" cy="138" r="9" />
<circle style="fill:#fff;stroke:#000;stroke-width:2" cx="161" cy="138" r="9" />
<circle style="fill:#fff;stroke:#000;stroke-width:2" cx="55" cy="138" r="9" />
<path style="fill:#fff;stroke:#000;stroke-width:2" d="M141,97 l-4,-19 0,-9 -1,-10 0,-9 3,-19 2,-9 11,0 355,0 4,19 1,9 0,9 -1,19 -2,10 -2,9 -23,0 -343,0z" />
<path style="fill:#fff;stroke:#000;stroke-width:2" d="M185,117 l0,-5 -19,0 0,3 19,2z" />
<circle style="fill:#000;stroke:#000;stroke-width:2" cx="55" cy="138" r="3" />
<circle style="fill:#000;stroke:#000;stroke-width:2" cx="161" cy="138" r="3" />
<circle style="fill:#000;stroke:#000;stroke-width:2" cx="201" cy="138" r="3" />
<circle style="fill:#000;stroke:#000;stroke-width:2" cx="456" cy="138" r="3" />
<circle style="fill:#000;stroke:#000;stroke-width:2" cx="417" cy="138" r="3" />
<path style="fill:#fff;stroke:#000;stroke-width:2" d="M264,22 l118,0 0,75 -118,0 0,-75z" />
<path style="fill:#7f7f7f;stroke:#000;stroke-width:2" d="M171,83 l344,0 0,13 -344,0 0,-13z" />
<path style="fill:#7f7f7f;stroke:#000;stroke-width:2" d="M311,15 l25,0 0,3 -25,0 0,-3z" />
<path style="fill:#000;stroke:#000;stroke-width:2" d="M345,124 l56,0 1,-2 4,-3 2,0 12,-2 4,2 2,0 10,10 0,1 10,-11 2,0 14,-1 2,0 8,6 5,0 0,25 2,0 0,-25 26,0 0,13 2,0 1,-25 -163,0 0,12z" />
<path style="fill:#000;stroke:#000;stroke-width:2" d="M318,18 l11,0 0,4 -11,0 0,-4z" />
<path style="fill:#000;stroke:#000;stroke-width:2" d="M254,79 l10,0 0,21 -10,0 0,-21z" />
<path style="fill:#000;stroke:#000;stroke-width:2" d="M177,79 l11,0 0,21 -11,0 0,-21z" />
<path style="fill:#000;stroke:#000;stroke-width:2" d="M330,79 l11,0 0,21 -11,0 0,-21z" />
<path style="fill:#000;stroke:#000;stroke-width:2" d="M406,79 l11,0 0,21 -11,0 0,-21z" />
<path style="fill:#000;stroke:#000;stroke-width:2" d="M483,79 l10,0 0,21 -10,0 0,-21z" />
<path style="fill:#000;stroke:#000;stroke-width:2" d="M221,151 l1,0 0,-27 -6,0 2,2 1,1 1,2 1,3 0,19z" />
<path style="fill:#000;stroke:#000;stroke-width:2" d="M136,137 l-3,0 0,-13 8,0 -1,2 -1,3 -1,3 -1,3 -1,2z" />
<path style="fill:#000;stroke:#000;stroke-width:2" d="M149,118 l-1,0 -3,2 -1,2 -3,2 -1,2 -1,3 -1,3 -1,3 -1,2 0,2 3,0 0,-2 1,-3 0,-2 1,-2 1,-2 2,-2 1,-2 2,-2 2,-1 0,-3z" />
<path style="fill:#000;stroke:#000;stroke-width:2" d="M465,138 l0,2 -2,3 0,1 -3,2 -2,0 -1,1 -3,0 -1,-1 -2,0 -3,-4 0,-1 -1,-2 0,-4 3,-4 1,-1 1,0 2,-1 4,0 2,1 1,0 3,4 1,1 0,3 9,0 0,-2 -1,-2 0,-2 -2,-4 -3,-3 -3,-3 -2,-1 -2,0 -2,-1 -5,0 -2,1 -2,0 -5,3 -3,3 -2,4 -1,2 0,2 -1,2 0,2 1,2 0,2 2,4 1,2 2,1 1,2 4,2 2,1 2,0 8,0 4,-2 5,-4 3,-5 0,-2 1,-2 0,-2 -9,0z" />
<path style="fill:#000;stroke:#000;stroke-width:2" d="M426,138 l0,2 -1,1 0,1 -3,4 -1,1 -8,0 -3,-3 -2,-3 0,-5 2,-3 0,-1 3,-2 1,0 2,-1 1,0 2,1 1,0 4,3 1,1 0,1 1,2 0,1 8,0 0,-2 0,-2 -2,-4 -4,-5 -5,-3 -2,-1 -2,0 -8,0 -4,2 -1,2 -4,3 -2,3 0,2 -1,2 0,2 0,3 1,2 0,2 2,4 2,3 4,2 1,2 2,0 2,1 3,-1 4,1 2,-1 2,0 5,-4 4,-5 0,-2 1,-2 0,-4 -8,0z" />
<path style="fill:#000;stroke:#000;stroke-width:2" d="M64,138 l0,4 -2,3 -1,0 -3,2 -5,0 -1,-1 -1,0 -2,-1 -1,-2 0,-1 -1,-1 0,-1 -1,-2 0,-2 1,-1 0,-1 3,-4 2,0 1,-1 5,0 1,1 1,0 3,2 0,2 1,1 0,3 9,0 0,-2 0,-2 -2,-4 -2,-4 -2,-1 -1,-2 -4,-2 -2,0 -2,-1 -4,0 -2,1 -2,0 -4,2 -2,1 -1,2 -2,1 -2,4 -1,2 0,2 0,6 1,2 0,2 2,4 2,1 1,2 4,2 2,1 2,0 2,1 2,0 2,-1 2,0 4,-2 4,-2 3,-5 2,-4 0,-4 -9,0z" />
<path style="fill:#000;stroke:#000;stroke-width:2" d="M170,138 l0,3 -3,4 -1,1 -1,0 -2,1 -5,0 -4,-3 -2,-3 0,-5 3,-4 4,-3 4,0 4,3 3,3 0,3 9,0 0,-2 -1,-2 0,-2 -2,-4 -2,-1 -1,-2 -5,-3 -2,-1 -2,0 -9,0 -4,2 -1,2 -2,1 -3,5 -1,2 0,2 -1,2 1,3 0,4 2,4 3,3 5,3 2,1 2,1 2,0 4,0 2,-1 2,0 4,-3 3,-3 3,-5 0,-2 1,-2 0,-2 -9,0z" />
<path style="fill:#000;stroke:#000;stroke-width:2" d="M210,138 l0,2 -3,4 -2,2 -2,0 -1,1 -3,0 -2,-1 -1,0 -3,-4 -1,-1 0,-6 3,-4 1,-1 1,0 1,-1 5,0 2,1 1,0 3,4 0,1 1,1 0,2 8,0 0,-2 0,-2 -2,-4 -2,-4 -3,-3 -4,-2 -2,0 -2,-1 -4,0 -2,1 -2,0 -4,2 -3,3 -2,1 -2,4 0,2 -1,2 0,2 0,4 2,4 2,4 3,3 3,2 2,1 2,0 9,0 4,-2 3,-2 3,-4 1,-1 0,-2 1,-2 0,-4 -8,0z" />

</svg>
