 

<svg xmlns:agg="http://www.example.com" xmlns="http://www.w3.org/2000/svg" preserveAspectRatio="none" width="1.6083in" height="0.4499in" viewBox="0 0 976 273">

<path style="fill:#963" d="M89,136 l94,-46 156,-32 110,-31 187,16 172,31 78,0 63,31 -32,47 -109,16 -156,0 -125,-16 -141,16 63,62 -157,16 -172,-16 -93,-47 62,-47z" />
<path style="fill:#ccb299" d="M183,105 l78,-31 78,-16 110,-31 156,16 250,47 31,-16 31,31 16,31 -63,-31 -109,16 -234,-31 -219,31 16,31 -110,31 -31,-62 -63,15 63,-31z" />
<path style="fill:#661900" d="M651,121 l-62,15 -47,16 125,16 156,0 -172,-47z" />
<path style="fill:#661900" d="M308,121 l16,31 125,78 -63,-62 16,-32 -94,-15z" />
<path style="fill:#661900" d="M105,136 l-78,47 93,47 0,-62 63,-16 -78,-16z" />

</svg>
