 

<svg xmlns:agg="http://www.example.com" xmlns="http://www.w3.org/2000/svg" preserveAspectRatio="none" width="0.8479in" height="1.0750in" viewBox="0 0 788 999">

<path style="fill:#008040;fill-rule:evenodd" d="M430,355 l-13,3 -12,3 -11,4 -10,5 -9,4 -9,6 -7,6 -6,7 -5,8 -4,9 -3,9 -1,11 0,11 1,12 3,13 5,15 3,11 5,11 3,12 4,11 4,12 4,12 3,13 3,12 3,12 4,13 3,13 3,13 2,13 3,12 2,14 3,13 2,13 2,13 2,13 2,13 2,14 1,13 2,13 1,13 1,14 1,13 1,12 1,14 0,12 1,13 0,13 0,12 24,0 3,-13 3,-14 2,-14 3,-15 2,-14 2,-15 2,-15 2,-16 2,-15 2,-16 1,-16 1,-17 1,-16 0,-17 0,-16 1,-17 -1,-17 0,-17 -1,-18 -1,-17 -1,-18 -2,-18 -2,-17 -2,-18 -3,-18 -3,-18 -3,-18 -3,-18 -4,-18 -5,-18 -5,-19 -5,-18z M321,284 l1,-1 2,0 3,-2 2,-1 3,-2 4,-2 3,-2 4,-1 5,-2 4,-1 5,-1 5,0 6,0 6,1 6,2 6,2 -1,-10 -3,-9 -3,-7 -4,-7 -5,-6 -6,-4 -5,-2 -6,-2 -6,1 -6,2 -5,4 -5,5 -4,8 -3,10 -2,12 -1,15z M160,357 l-3,-2 -3,-2 -4,-2 -4,-1 -4,-2 -5,-1 -4,0 -4,-1 -5,0 -4,0 -5,1 -4,0 -4,1 -3,1 -4,1 -3,1 0,2 -2,3 -1,2 -1,3 -1,3 -1,3 -1,3 -1,3 -1,4 0,3 -1,3 0,3 0,4 0,2 0,3 1,2 3,-4 3,-3 3,-2 4,-2 4,-2 4,-1 4,-1 4,-1 4,0 4,0 4,0 4,1 3,0 3,0 4,1 2,0 2,-3 2,-4 1,-4 2,-3 2,-4 2,-3 1,-3 3,-2z M150,254 l6,-18 7,-16 7,-15 7,-14 8,-13 8,-12 8,-10 8,-10 9,-9 8,-7 9,-7 9,-5 9,-5 9,-3 10,-3 9,-2 10,-1 9,-1 10,1 10,1 10,1 9,3 10,3 10,4 10,4 9,5 10,5 9,6 10,7 9,7 9,7 9,7 1,-2 0,-3 0,-4 0,-5 0,-5 0,-6 1,-6 0,-7 1,-8 1,-7 1,-8 2,-7 2,-8 2,-8 3,-7 4,-8 4,-6 5,-7 6,-5 7,-6 7,-4 9,-4 9,-3 10,-2 12,0 13,0 14,2 15,3 16,4 18,6 19,7 21,9 -3,1 -4,0 -4,0 -3,-1 -4,-1 -5,-1 -4,-1 -4,-2 -5,-1 -5,-1 -5,-2 -4,-1 -6,0 -5,-1 -5,0 -5,1 -6,1 -5,2 -6,3 -5,3 -6,4 -5,6 -6,6 -6,8 -5,9 -6,10 -5,11 -6,13 -5,14 -5,17 -6,17 -5,20 2,-5 3,-6 3,-5 3,-5 4,-6 4,-6 4,-6 5,-6 5,-6 5,-6 6,-6 5,-6 6,-6 6,-5 6,-5 6,-5 6,-5 7,-4 6,-4 7,-3 6,-3 6,-3 7,-1 7,-1 6,-1 6,0 7,1 6,2 6,3 6,3 5,5 6,5 4,5 4,5 3,6 3,6 2,7 3,7 1,7 2,8 0,7 1,7 0,7 0,6 0,6 -1,5 -1,5 -2,4 -2,-10 -2,-9 -3,-8 -4,-7 -4,-7 -4,-5 -5,-6 -4,-4 -5,-4 -6,-3 -5,-2 -6,-2 -6,-1 -6,0 -7,1 -6,1 -6,2 -6,2 -7,3 -6,4 -6,5 -6,5 -6,6 -6,6 -6,7 -5,8 -5,8 -5,9 -4,10 -4,10 -4,11 -4,11 5,0 4,-1 5,-1 4,-1 5,-2 5,-2 5,-3 5,-2 5,-3 5,-3 6,-3 5,-2 6,-3 6,-3 7,-2 6,-2 6,-2 7,-2 7,-1 8,-1 7,-1 8,0 8,1 8,1 9,2 8,3 9,3 10,5 9,4 10,6 11,7 10,8 -8,0 -7,0 -6,0 -6,0 -5,1 -5,1 -4,0 -3,1 -3,1 -2,1 -3,1 -2,0 -2,1 -2,0 -1,1 -2,0 11,1 11,4 9,5 9,7 9,9 8,10 6,11 7,12 5,12 5,13 4,13 3,12 3,12 2,11 1,10 0,9 -6,-12 -6,-11 -6,-11 -7,-9 -7,-9 -8,-9 -7,-8 -8,-7 -9,-6 -8,-6 -8,-6 -9,-4 -8,-4 -9,-4 -9,-3 -8,-2 -9,-2 -8,-1 -8,-1 -8,0 -8,0 -8,1 -7,1 -7,2 -6,2 -6,2 -6,3 -5,3 -5,4 -4,4 -4,5 -3,5 13,4 10,5 9,6 6,6 6,7 3,7 2,8 1,9 -1,9 -2,10 -4,10 -5,12 -6,11 -7,12 -9,13 -9,14 -2,-12 -1,-10 -2,-10 -1,-9 -1,-8 -2,-8 -2,-7 -2,-6 -3,-6 -5,-5 -5,-4 -7,-5 -8,-4 -10,-3 -12,-4 -13,-3 3,15 3,15 3,16 3,15 2,16 3,16 2,16 3,16 1,17 2,16 2,17 2,17 1,16 2,17 1,17 1,17 0,17 1,17 0,17 0,17 0,17 0,17 -1,17 -1,17 -1,17 -1,16 -2,17 -2,16 -2,16 -2,17 -2,16 -3,15 -2,4 -1,4 -1,5 -1,5 0,5 -1,5 0,5 0,6 7,6 7,5 8,5 9,5 8,4 9,4 9,4 8,3 8,3 7,2 7,2 5,1 4,1 3,1 1,1 -1,0 -4,1 -5,0 -4,1 -4,0 -5,0 -4,1 -4,0 -4,0 -4,0 -4,-1 -4,0 -4,-1 -4,0 -4,-1 -4,-1 -3,-1 -9,-2 -10,-3 -9,-3 -10,-3 -9,-4 -10,-3 -9,-2 -10,-2 -9,-2 -9,-1 -9,0 -8,1 -8,2 -8,3 -8,5 -6,6 -2,2 -3,2 -4,2 -5,1 -6,2 -6,2 -7,1 -7,2 -7,1 -8,1 -7,1 -7,1 -8,0 -6,0 -6,0 -5,0 7,-5 7,-4 6,-3 6,-3 5,-2 5,-2 5,-2 4,-1 4,-2 4,-1 3,-2 4,-2 4,-2 3,-3 4,-3 4,-5 8,-9 6,-11 6,-12 5,-12 4,-14 3,-14 2,-14 2,-16 1,-16 0,-16 0,-16 -1,-17 -2,-17 -2,-17 -2,-17 -3,-17 -3,-17 -4,-16 -3,-16 -4,-16 -5,-16 -4,-14 -5,-14 -4,-14 -5,-12 -5,-11 -4,-11 -5,-9 -5,-9 -4,-7 -5,-6 -3,-4 -11,-9 -11,-3 -11,-1 -11,3 -11,5 -10,7 -10,9 -10,10 -9,10 -7,10 -7,9 -6,8 -5,6 -4,4 -2,1 -1,-2 1,-6 1,-8 0,-8 1,-9 2,-9 2,-9 2,-9 4,-10 4,-9 5,-8 6,-8 8,-7 9,-6 10,-6 13,-4 14,-3 -4,-5 -5,-4 -5,-4 -7,-3 -6,-3 -7,-3 -7,-3 -8,-2 -6,-2 -7,-1 -6,-1 -6,-1 -5,-1 -4,-1 -3,0 -2,0 -2,6 -3,6 -2,6 -2,6 -3,7 -2,6 -2,6 -2,7 -2,6 -1,7 -1,7 -1,7 -1,7 -1,7 0,7 0,7 -5,-6 -3,-6 -3,-7 -2,-7 -2,-7 -1,-7 -1,-7 0,-7 0,-7 0,-7 0,-7 0,-6 0,-7 0,-7 1,-6 0,-6 -7,1 -8,2 -7,4 -9,5 -8,6 -8,7 -8,8 -8,8 -8,8 -8,9 -6,9 -7,9 -6,8 -4,8 -5,7 -3,6 0,-15 0,-13 1,-12 2,-10 2,-9 3,-7 3,-7 3,-6 4,-5 4,-4 4,-4 4,-4 4,-4 4,-4 3,-4 3,-5 -4,-4 -3,-5 -2,-5 -2,-6 0,-6 -1,-7 1,-6 0,-6 2,-7 2,-6 2,-6 3,-6 3,-5 3,-6 4,-4 4,-4 7,-4 6,-3 7,-2 7,-2 7,0 7,0 6,0 7,1 6,2 7,2 5,2 6,2 6,2 5,3 4,2 5,3 2,-4 3,-4 3,-4 3,-4 4,-4 4,-4 4,-3 5,-3 5,-2 6,-2 6,-1 7,-1 6,0 8,0 7,2 8,2 1,-15 1,-13 3,-12 3,-10 3,-9 4,-8 5,-7 5,-5 5,-5 6,-4 5,-4 5,-2 5,-3 5,-1 4,-2 4,-2 -12,-6 -10,-6 -10,-5 -10,-4 -9,-3 -8,-2 -8,-1 -7,-1 -7,0 -7,1 -6,1 -6,2 -5,3 -5,3 -5,3 -5,4 -4,4 -4,4 -4,5 -4,5 -3,5 -4,5 -3,5 -4,5 -3,5 -3,6 -4,5 -3,4 -3,5 -4,4 -3,4 -4,4z M225,347 l3,1 3,1 3,2 4,1 3,2 4,2 4,2 4,3 4,3 4,2 4,3 4,3 4,3 3,4 4,3 3,3 -1,-2 -1,-3 -1,-4 -2,-4 -1,-4 -2,-5 -1,-5 -2,-6 -2,-5 -2,-5 -2,-5 -1,-4 -2,-4 -1,-4 -2,-3 -1,-2 -4,0 -4,2 -5,2 -6,4 -5,4 -4,4 -4,6 -2,5z M325,333 l-1,3 -1,4 0,4 -1,6 0,6 0,6 0,7 0,7 1,7 0,6 1,7 1,5 1,5 1,4 2,3 1,2 1,-6 1,-8 1,-8 2,-8 2,-9 2,-9 2,-9 3,-9 3,-8 3,-8 4,-7 5,-6 5,-5 6,-4 6,-3 6,0 -6,0 -6,1 -5,1 -4,1 -4,1 -4,1 -3,1 -3,1 -3,2 -3,1 -2,2 -3,2 -3,3 -2,2 -3,3 -3,3z " />
<path style="fill:none;stroke:#000;stroke-width:2" d="M430,355 l-36,10 -28,15 -18,21 -7,18 -1,11 0,11 9,40 11,34 12,35 9,37 7,26 5,26 5,26 5,26 4,26 4,27 3,26 3,40 2,38 1,26 0,12 24,0 6,-27 5,-29 4,-29 4,-31 4,-31 2,-33 1,-33 0,-16 1,-17 -1,-17 -1,-35 -2,-35 -4,-35 -5,-36 -6,-36 -7,-36 -10,-37 -5,-18" />
<path style="fill:none;stroke:#000;stroke-width:2" d="M321,284 l8,-4 10,-6 9,-3 9,-2 11,0 12,3 6,2 -1,-10 -3,-9 -3,-7 -9,-13 -11,-6 -6,-2 -12,3 -10,9 -4,8 -3,10 -2,12 -1,15" />
<path style="fill:none;stroke:#000;stroke-width:2" d="M160,357 l-10,-6 -8,-3 -9,-1 -4,-1 -5,0 -4,0 -13,2 -10,3 -4,10 -3,9 -2,10 -1,3 0,3 0,4 0,5 1,2 3,-4 6,-5 8,-4 12,-3 12,0 10,1 6,1 5,-11 6,-10 1,-3 3,-2" />
<path style="fill:none;stroke:#000;stroke-width:2" d="M150,254 l13,-34 14,-29 16,-25 16,-20 26,-23 27,-13 29,-6 29,1 29,7 29,13 29,18 27,21 2,-31 3,-30 9,-30 19,-26 23,-14 19,-5 12,0 13,0 29,5 34,10 40,16 -27,-3 -29,-7 -26,3 -22,16 -17,23 -17,34 -10,31 -11,37 15,-27 18,-24 22,-24 24,-20 26,-14 26,-6 31,9 19,20 11,26 4,29 -2,29 -2,4 -7,-27 -17,-25 -26,-15 -31,3 -25,14 -24,24 -15,25 -12,31 -4,11 28,-7 26,-14 24,-10 26,-7 31,-1 25,6 28,12 31,21 -32,1 -26,6 -3,1 31,10 26,26 13,23 10,25 7,25 6,33 0,9 -6,-12 -12,-22 -22,-27 -24,-21 -25,-16 -26,-11 -25,-5 -32,0 -26,7 -24,19 -3,5 32,15 15,20 0,36 -15,33 -16,25 -9,14 -5,-32 -6,-32 -15,-21 -25,-12 -25,-7 6,30 6,31 5,32 5,32 3,33 4,34 3,33 2,34 1,34 0,34 0,34 -2,34 -2,33 -4,33 -4,33 -5,31 -6,28 0,11 22,16 26,13 25,10 26,7 1,1 -27,3 -28,-2 -30,-8 -28,-10 -29,-7 -27,-3 -32,11 -26,15 -27,6 -30,3 -6,0 -6,0 -5,0 26,-15 27,-10 22,-17 20,-32 9,-26 5,-28 3,-32 0,-32 -3,-34 -4,-34 -6,-34 -7,-32 -9,-32 -9,-28 -9,-26 -14,-31 -14,-22 -25,-16 -33,7 -20,16 -19,20 -20,27 -9,10 -2,1 -1,-2 3,-31 6,-27 13,-27 23,-21 37,-13 -21,-16 -28,-11 -25,-5 -14,-2 -9,24 -9,26 -5,27 -2,28 -13,-26 -4,-28 0,-34 1,-19 -31,12 -24,21 -24,25 -19,26 -12,21 0,-15 0,-13 5,-31 13,-25 20,-20 6,-9 -11,-26 4,-32 11,-23 21,-15 28,-4 26,5 26,11 5,3 19,-24 26,-11 28,1 8,2 2,-28 9,-31 19,-25 26,-14 8,-4 -22,-12 -29,-12 -30,-4 -29,10 -22,20 -18,25 -16,25 -11,12" />
<path style="fill:none;stroke:#000;stroke-width:2" d="M225,347 l9,4 11,5 8,5 8,5 8,6 7,7 7,6 -3,-9 -3,-8 -3,-10 -4,-11 -4,-10 -3,-8 -4,-9 -13,4 -11,8 -8,10 -2,5" />
<path style="fill:none;stroke:#000;stroke-width:2" d="M325,333 l-2,11 -1,12 0,13 1,14 1,13 2,10 4,9 2,-14 3,-16 2,-9 2,-9 2,-9 3,-9 3,-8 3,-8 4,-7 10,-11 12,-7 6,0 -12,1 -9,2 -11,3 -9,4 -8,7 -8,8" />

</svg>
