<?xml version="1.0" encoding="utf-8"?>
<!-- Generator: Adobe Illustrator 16.0.0, SVG Export Plug-In . SVG Version: 6.00 Build 0)  -->
<!DOCTYPE svg PUBLIC "-//W3C//DTD SVG 1.1//EN" "http://www.w3.org/Graphics/SVG/1.1/DTD/svg11.dtd">
<svg version="1.1" id="图层_1" xmlns="http://www.w3.org/2000/svg" preserveAspectRatio="none" xmlns:xlink="http://www.w3.org/1999/xlink" x="0px" y="0px"
	 width="100px" height="100px" viewBox="0 0 100 100" enable-background="new 0 0 100 100" xml:space="preserve">
<g>
	<path fill="#85AF27" d="M48.463,97.51c-0.101,0-0.203,0-0.307,0.001c-0.108,0-0.22,0.002-0.334,0.002
		c-0.058,0-0.115-0.002-0.175-0.002c-1.659-0.009-1.439-1.174,1.083-2.047c1.692-0.585,0.677-0.673-0.582-0.673
		c-0.269,0-0.547,0.005-0.813,0.009c-0.245,0.004-0.479,0.009-0.685,0.009c-0.085,0-0.165-0.001-0.238-0.004
		c-1.338-0.016-3.448-0.132-3.448-0.132s1.543,0.439,3.138,0.447c0.997,0.008,0.285,0.188-0.813,0.188
		c-0.663,0-1.467-0.066-2.123-0.273c-1.741-0.556-2.76-0.524-3.974-0.543c-1.147-0.021-0.117-1.586,2.854-1.898
		c-0.002,0.029-0.003,0.044-0.003,0.044s-0.843,0.527,0.629,0.527c0.148,0,0.322-0.007,0.522-0.019
		c0.126-0.006,0.256-0.01,0.39-0.01c0.841,0,1.787,0.135,2.611,0.27c0.821,0.134,1.521,0.268,1.875,0.268
		c0.195,0,0.286-0.041,0.234-0.145c-0.092-0.183-0.216-0.542-0.342-1.017l0,0c3.068,0.099,6.302,0.433,7.856,1.261
		c0,0,2.28,1.513,4.967,1.733c0.646,0.051,0.985,0.074,1.113,0.074c0.402,0-1.299-0.231-2.084-0.533
		c-0.625-0.239-0.992-0.396-0.483-0.396c0.331,0,1.029,0.067,2.265,0.219c3.137,0.389,5.425,2.082,0.668,2.967
		c-2.335,0.434-4.031,0.583-5.277,0.583c-1.293,0-2.099-0.16-2.625-0.328c-0.13-0.043-0.219-0.062-0.268-0.062
		c-0.137,0,0.07,0.148,0.647,0.295c0.577,0.147,1.522,0.295,2.86,0.295c0.54,0,1.145-0.024,1.813-0.081
		c0.531-0.047,0.907-0.064,1.152-0.064c0.636,0,0.383,0.126-0.348,0.255c-0.73,0.128-1.933,0.255-3.202,0.255
		c-1.192,0-2.44-0.112-3.407-0.443L48.463,97.51z"/>
	<path fill="#632616" d="M38.594,65.158c0,0,3.833,9.971,3.964,13.292c0.126,3.322-0.512,14.186-0.512,14.186
		s-1.024,0.641,1.15,0.51c0.931-0.054,2.048,0.104,3.001,0.259c1.273,0.209,2.255,0.415,2.109,0.124
		c-0.257-0.509-0.769-2.427-0.895-4.343c-0.127-1.918-1.919-9.202-1.789-11.63c0.126-2.427,1.918-7.921,2.045-10.222
		c-0.639,0.126-0.639,0.126-0.639,0.126s-1.406,5.751-2.044,6.771c-0.64,1.023-2.046-3.833-4.347-9.581
		C38.465,63.498,38.594,65.158,38.594,65.158L38.594,65.158z"/>
	<path fill="#6A9B31" d="M50.638,48.902c0,0,3.187,7.395,4.608,11.112c1.422,3.719,0.427,5.573-0.419,5.134
		c-0.208,3.271-2.328,1.695-2.646,0.543c0.366,4.39-2.66,1.841-2.805,0.671c0.365,2.982-1.926,1.427-2.029,0.574
		c-0.208,1.865-3.539,1.843-3.862-0.063c-0.473,1.138-1.499,0.617-1.711-1.087c-0.272,1.33-2.094,1.449-2.75-0.312
		c0.025,1.619-1.713,1.728-2.056,0.362c-0.228,2.407-2.576,1.831-2.636,0.649c-1.274,2.428-2.5,1.712-2.646,0.544
		c-1.771,1.948-2.687,0.222-2.756-1.066c-1.03,0.882-2.051-0.29-1.851-1.501c0.202-1.216,2.529-11.453,4.416-13.2
		C33.379,49.516,50.638,48.902,50.638,48.902L50.638,48.902z"/>
	<path fill="#8ABB23" d="M48.593,39.42c0,0,3.779,7.212,4.512,11.015c0,0,0.195,1.601-1.177,1.12
		c0.342,2.77-1.608,2.575-2.249,0.925c-0.144,3.805-2.06,1.77-2.118,0.588c-0.832,3.887-2.764,0.99-2.843,0.349
		c0.536,4.366-1.761,2.056-1.958,0.458c-0.245,3.708-2.157,0.267-2.149-0.386c-0.321,3.069-2.011,1.44-2.182,0.054
		c-0.124,4.666-2.537,2.152-2.13,0.481c-1.468,2.992-2.534,0.742-2.458-0.778c-2.053,2.522-3.026,1.02-2.866-0.514
		c-1.029,2.29-1.578-0.021-1.004-2.472c0.571-2.449,2.448-10.684,2.448-10.684S46.469,35.681,48.593,39.42L48.593,39.42z"/>
	<path fill="#AECF2A" d="M45.476,28.34c0,0,2.097,4.932,3.554,6.809c1.457,1.875,3.21,5.443,2.01,6.349
		c-1.03,0.884-2.396-0.246-2.396-0.246s0.964,3.558-1.308,1.459c-0.189,2.728-1.958,0.458-2.261-0.587
		c0.088,3.559-1.907,2.291-2.091,0.799c0.149,3.334-1.68,1.288-1.737,0.106c0.093,4.314-2.29,2.012-2.401,0.403
		c0.162,3.442-2.064,1.013-1.903-0.522c-0.615,3.536-2.649,1.948-2.673,0.33c-1.203,2.312-2.13,0.479-1.981-1.161
		c-1.39,2.226-2.329,0.287,0.217-10.302C37.155,26.878,45.476,28.34,45.476,28.34z"/>
	<path fill="#D0DD47" d="M38.059,14.33c0,0,0.883-0.65,0.365,0.819c2.129-0.478,0.7,1.429,0.356,1.471
		c2.517,1.961,2.636,2.919,5.455,7.331c2.819,4.411,3.904,7.521,2.696,7.67c-1.207,0.149-2.087-0.607-2.325-1.118
		c0.938,1.938-1.184,1.768-1.725,0.213c0.784,4.229-1.748,2.162-1.893,0.989c0.427,4.167-2.402,1.812-2.539-0.011
		c0.159,4.848-1.88,2.503-1.819,0.874c-0.845,2.376-2.163,0.916-2.001-0.619c-0.548,2.664-2.618,2.919-2.58-0.33
		c0.037-3.25,1.878-12.453,3.797-14.636c-0.773-1.311-0.336-2.014,0.333-1.555C36.004,13.285,37.378,12.359,38.059,14.33z"/>
	<path fill="#783D20" d="M58.146,95.318c0,0,0.512-3.834-1.917-10.224c-2.428-6.39-4.346-10.351-3.833-11.758
		c0.511-1.405,2.811-4.217,3.194-5.878c-0.511-0.256-0.511-0.256-0.511-0.256s-1.79,2.684-2.428,3.962
		c-0.64,1.278-1.79,1.022-1.79-0.895c0-1.916,0-4.601,0-4.601l-0.639-0.128c0,0,0,4.09,0,6.006c0,1.917-1.661,0.256-2.045-1.15
		c-0.383-1.404-1.662-6.517-1.662-6.517h-0.767c0,0,1.15,9.328,3.323,14.313c1.398,3.206,1.997,6.784,2.266,10.252
		c0.109,1.43,0.222,2.93-0.03,4.354c-0.246,1.396-0.968,2.882-2.016,3.848c0.748-0.426,1.569-0.818,2.464-0.818
		c1.789,0,1.149,0.512,3.706,0.896c2.556,0.383,3.706,0.254,5.366,0.254C62.491,96.979,59.041,96.98,58.146,95.318z"/>
	<path fill="#4D8937" d="M67.985,46.118c0,0,3.324,9.203,4.729,13.803c1.404,4.599-0.386,6.644-1.535,6.006
		c-0.894,3.833-3.703,1.661-3.959,0.255c-0.257,5.239-4.22,1.789-4.22,0.383c0,3.577-3.064,1.406-3.064,0.386
		c-0.641,2.171-5.496,1.659-5.624-0.642c-0.894,1.279-2.301,0.512-2.301-1.532c-0.639,1.532-3.324,1.405-3.963-0.768
		c-0.255,1.918-2.81,1.79-3.065,0.128c-0.768,2.813-4.089,1.79-3.962,0.383c-2.302,2.684-3.963,1.662-3.963,0.257
		c-2.939,2.044-3.96-0.128-3.834-1.663c-1.66,0.896-2.939-0.638-2.427-2.045c0.511-1.403,5.752-13.163,8.817-14.952
		C42.683,44.329,67.985,46.118,67.985,46.118L67.985,46.118z"/>
	<path fill="#6EAF2E" d="M66.709,34.617c0,0,4.215,9.074,4.601,13.675c0,0,0,1.915-1.919,1.15c0,3.322-2.809,2.809-3.451,0.765
		c-0.894,4.474-3.32,1.789-3.192,0.386c-1.918,4.472-4.219,0.765-4.219,0c0,5.236-2.938,2.171-2.938,0.253
		c-1.024,4.345-3.194,0-3.068-0.766c-1.021,3.577-3.192,1.404-3.192-0.255c-1.023,5.496-4.09,2.17-3.194,0.255
		c-2.688,3.322-3.834,0.512-3.452-1.28c-3.452,2.686-4.602,0.768-4.09-1.021c-1.919,2.558-2.301-0.255-1.024-3.068
		c1.28-2.809,5.497-12.267,5.497-12.267S64.28,29.89,66.709,34.617L66.709,34.617z"/>
	<path fill="#97C848" d="M64.153,21.071c0,0,2.171,6.133,3.961,8.563c1.79,2.428,3.706,6.9,1.79,7.795
		c-1.661,0.894-3.451-0.641-3.451-0.641s0.766,4.346-2.173,1.534c-0.767,3.195-2.939,0.256-3.194-1.023
		c-0.513,4.218-3.195,2.428-3.195,0.639c-0.384,3.961-2.684,1.279-2.555-0.127c-0.64,5.11-3.707,2.044-3.579,0.127
		c-0.384,4.09-3.194,0.895-2.684-0.894c-1.533,4.089-4.217,1.916-3.962,0c-2.173,2.555-3.194,0.255-2.684-1.662
		c-2.428,2.428-3.45,0,2.172-12.14C52.268,18.131,64.153,21.071,64.153,21.071z"/>
	<path fill="#B3D469" d="M55.847,3.435c0,0,1.405-0.639,0.384,1.022c3.193-0.255,0.766,1.79,0.255,1.79
		c3.322,2.684,3.322,3.834,6.646,9.457c3.322,5.623,4.345,9.457,2.556,9.457c-1.79,0-2.939-1.022-3.195-1.662
		c1.022,2.428-2.045,1.917-2.557,0c0.385,5.112-2.938,2.301-2.938,0.895c-0.128,4.983-3.834,1.79-3.707-0.384
		c-0.639,5.75-3.193,2.684-2.811,0.767c-1.661,2.685-3.322,0.768-2.812-1.022c-1.279,3.067-4.346,3.067-3.706-0.767
		C44.6,19.154,48.945,8.546,52.14,6.246c-0.895-1.662-0.128-2.428,0.767-1.79C53.035,1.901,55.206,1.006,55.847,3.435z"/>
	<path fill="#C7DD81" d="M54.942,6.282c0,0,0.968-0.224,1.265-0.671c0.298-0.446-0.372-0.893-1.265-0.446
		c0.743-1.116-0.224-1.712-0.521-0.967c0-1.712-1.192-1.489-1.118,0.148c-0.074,0.596-0.074,0.596-0.074,0.596
		s-1.116-0.894-0.818,0.967c0.223,0.521,0.223,0.521,0.223,0.521s-3.721,2.457-6.849,12.06c-0.967,2.605,0.671,5.21,1.937,2.382
		c0.671,3.275,2.084,1.712,2.308,0.371c0.449,3.532,2.53,4.095,2.681,0.373c0.223,1.266,2.381,1.489,2.009-0.67
		c1.191,2.159,2.902,0.372,1.936-1.34c1.413,0.224,2.158-2.084,1.041-4.689C56.58,12.312,54.942,6.282,54.942,6.282z"/>
	<path fill="#B3D469" d="M57.355,28.688c0,0,1.498,1.638,1.498,3.35c0,1.713-1.143,1.491-1.641,1.118
		c2.067,3.275-1.426,3.126-1.64,1.787c0.356,2.456-1.785,1.265-1.713,0.372c-0.642,2.978-2.637,1.415-2.566,0.373
		c0,2.531-1.996,0.521-1.711-0.67c-1.283,2.01-3.851,1.266-3.851-0.819c-0.855,1.265-1.996,0.297-1.996-1.117
		c-1.569,1.19-0.712-2.755-0.214-4.467c0.499-1.712,2.424-2.531,2.852-1.266c0.429,1.266,2.425,1.191,2.639,0.447
		c0,0,2.354,2.977,3.85,0.148c1.213,1.117,2.711,1.191,3.067,0.447C56.215,29.507,57.355,28.688,57.355,28.688z"/>
	<path fill="#97C848" d="M55.309,41.537c0,0,1.527,1.876,1.408,3.73c-0.116,1.854-1.349,1.533-1.871,1.095
		c2.039,3.689-1.774,3.287-1.916,1.821c0.222,2.684-2.036,1.246-1.897,0.283c-0.905,3.18-2.983,1.348-2.834,0.225
		c-0.175,2.74-2.22,0.425-1.825-0.844c-1.543,2.087-4.299,1.103-4.156-1.154c-1.022,1.311-2.205,0.184-2.107-1.348
		c-1.798,1.182-0.591-3.03,0.073-4.85c0.664-1.819,2.827-2.571,3.208-1.172c0.381,1.399,2.57,1.457,2.855,0.667
		c0,0,2.368,3.387,4.201,0.429c1.25,1.293,2.882,1.478,3.323,0.697C54.006,42.344,55.309,41.537,55.309,41.537z"/>
	<path fill="#61A132" d="M41.989,50.946c0,0.95,0.149,2.877,1.275,2.877c0.459,0,1.083-0.322,1.926-1.164
		c-0.286,0.66,0.363,2.195,1.617,2.195c0.72,0,1.642-0.506,2.699-1.974c-0.048,0.534,0.379,1.607,1.198,1.607
		c0.438,0,0.984-0.306,1.632-1.16c0.052,0.619,0.816,1.913,1.703,1.913c0.394,0,0.813-0.257,1.201-0.945
		c0.323,0.646,0.843,0.83,1.327,0.83c0.632,0,1.203-0.311,1.203-0.311c0.041-0.031,0.093-0.047,0.15-0.047
		c0.719,0,2.391,2.482,2.528,4.07c0.128,1.46-0.722,1.566-0.973,1.566c-0.042,0-0.067-0.004-0.067-0.004s1.116,2.977,0.298,4.467
		c-0.403,0.732-1.059,1.284-1.842,1.284c-0.81,0-1.754-0.589-2.701-2.18c-0.229,0.289-0.516,0.511-0.817,0.511
		c-0.481,0-1.004-0.56-1.416-2.296c-0.384,0.689-1.022,1.183-1.879,1.183c-0.807,0-1.804-0.438-2.961-1.557
		c-0.344,0.652-0.847,0.988-1.396,0.988c-0.518,0-1.074-0.298-1.58-0.912c-0.28,1.203-1.035,1.908-1.766,1.908
		c-0.626,0-1.235-0.519-1.51-1.687c-0.375,0.918-1.051,1.576-1.641,1.576c-0.465,0-0.875-0.409-1.04-1.427
		c-0.196,0.392-0.412,0.784-0.681,0.784c-0.243,0-0.528-0.315-0.88-1.231c-0.515,0.932-1.237,1.364-1.903,1.364
		c-0.879,0-1.662-0.754-1.744-2.107c-0.07,0.022-0.134,0.032-0.191,0.032c-1.113,0-0.041-3.979,1.231-6.88
		c0.971-2.214,2.413-3.136,3.245-3.136c0.315,0,0.544,0.133,0.625,0.379c0.122,0.368,0.408,0.547,0.812,0.547
		C40.25,52.014,41.067,51.646,41.989,50.946L41.989,50.946z"/>
	<path fill="#DBE89F" d="M53.184,6.939c0,0,0.728,0.509,0.728,1.894c0,0-0.365,0.437-0.655,0c0.655,1.894,0.072,2.477-0.365,2.185
		c0.438,2.549,0.146,4.516-0.875,5.172c-1.018,0.655-2.038-0.073-2.038-0.438c-0.364,2.112-1.383,0.364-1.165-0.365
		c-0.364,1.603-1.603,0.947-1.529-0.146C47.356,14.149,51.069,6.137,53.184,6.939z"/>
	<path fill="#C7DD81" d="M48.448,29.371c0,0-0.729,0.438-1.165-0.218c-0.874,1.602-1.648-0.243-1.808-0.814
		c-0.159-0.57-1.929,1.694-1.834,3.217c0.094,1.523,1.02,1.093,1.238,0.438c0.219,1.603,1.384,1.019,1.821,0.436
		c0.437,1.822,1.82,1.675,2.33,0.947C49.541,32.649,50.052,28.934,48.448,29.371z"/>
	<path fill="#8D5137" d="M50.377,72.523c-0.272,0.482-1.003,0.298-1.49-0.078c-0.941-0.726-1.325-3.761-1.666-4.444
		c-0.342-0.684-0.13,3.162,0.683,5.812c0.812,2.65,2.649,6.411,3.29,8.676c0.643,2.266,0.898,8.29,0.599,9.701
		c-0.298,1.411,0.044,1.924,0.642,2.137c0.599,0.214,1.582,1.411,3.42,1.538c0,0,1.58-0.299,1.109-3.247
		c-0.47-2.949-0.768-5.428-1.88-7.863c0.514,1.751,1.454,5.812,1.112,7.137c-0.342,1.324,0.17-3.719-2.693-10.685
		c-1.41-3.762-1.367-3.889-0.983-3.247c0.386,0.641,1.113,2.178,1.113,2.178s-0.812-2.648-1.24-4.314
		c-0.427-1.667-0.257-2.949-0.086-3.42c0.171-0.469-0.685,0.129-1.025-0.17c-0.342-0.299-0.684-0.983-0.642-3.077
		c0.003-0.171,0.01-0.343,0.001-0.513c-0.132,1.178-0.032,2.377-0.162,3.548C50.462,72.325,50.428,72.436,50.377,72.523z"/>
	<path fill="#A66148" d="M47.604,72.532c0,0,1.153,4.103,2.606,7.436s1.753,7.82,1.71,9.486c-0.043,1.668,0.342,0.728,0.428-0.726
		c0.085-1.454-0.257-4.273-0.557-5.555c-0.3-1.283,0.983,2.179,0.983,6.28c0,4.104,1.068-0.213,0.556-4.188
		s-1.923-6.154-2.735-8.034s0.427-0.043,0.642,0.642c0.213,0.683,0.129-1.453-0.342-2.608c-0.471-1.152-1.411-1.409-0.812-0.384
		c0.598,1.025-0.472-0.085-0.771-0.726c-0.298-0.643-1.367-1.924-1.751-3.591C47.177,68.898,47.177,70.821,47.604,72.532z"/>
	<path fill="#824426" d="M41.055,67.33c0.104,0,0.226,0.091,0.352,0.286c0,0,1.454,4.276,2.353,6.624
		c0.351,0.92,0.656,1.237,0.907,1.237c0.394,0,0.655-0.769,0.76-1.237c0.038-0.17,0.074-0.247,0.106-0.247
		c0.107,0,0.131,0.943-0.235,2.044c-0.47,1.409-0.428,5.127,0.088,7.094c0.1,0.386,0.153,0.546,0.174,0.546
		c0.087,0-0.355-2.673-0.219-3.495c0.015-0.093,0.032-0.136,0.052-0.136c0.188-0.001,0.532,4.293,0.803,5.691
		c0.302,1.537,0.469,4.616-0.256,5.17c-0.099,0.074-0.154,0.113-0.18,0.113c-0.161,0,0.936-1.543,0.31-4.685
		c0.041,1.623-0.387,4.83-1.497,5.299c-0.053,0.022-0.102,0.033-0.146,0.033c-0.883,0-0.086-4.356-0.412-7.939
		c-0.341-3.761-0.341-3.761-0.341-3.761s0.298,7.35,0,9.06c-0.127,0.731-0.304,1.212-0.447,1.212c-0.194,0-0.333-0.86-0.236-3.136
		c0.169-3.973,0.043-7.352-0.086-9.101c-0.127-1.752-1.283-5.344-1.794-6.795c-0.094-0.267-0.123-0.38-0.104-0.38
		c0.081,0,1.111,2.277,1.6,3.499c0.092,0.228,0.14,0.328,0.153,0.328c0.068,0-0.953-3.107-1.606-4.772
		C40.558,68.365,40.703,67.33,41.055,67.33L41.055,67.33z"/>
	<path fill="#A66148" d="M44.807,75.914c0,0-0.324,0.744-1.199-0.94s0,0.454,0.324,1.394c0.325,0.939,0.325,3.143,0.357,3.725
		c0.032,0.584-0.455-4.017-1.069-4.404c-0.616-0.389,0.744,0.809,0.972,5.54c0.226,4.729,0.355,6.867,0.647,6.867
		c0.291,0,0.551-1.813,0.453-3.11c-0.098-1.296-0.518-3.142-0.583-4.762c-0.064-1.62,0.227-3.92,0.485-4.47
		C45.455,75.2,45.194,75.429,44.807,75.914z"/>
	<path fill="#A66148" d="M41.276,68.171c0,0,1.878,4.665,1.813,5.248C43.025,74.002,40.984,68.105,41.276,68.171z"/>
	<path fill="#A66148" d="M43.381,81.938c0,0,0.292,5.282,0.065,6.479C43.22,89.617,43.284,82.49,43.381,81.938z"/>
	<path fill="#A66148" d="M45.844,87.543c0,0-0.293,2.69-0.875,2.916c-0.584,0.228,0.13-0.583,0.389-1.684
		c0.259-1.102,0.486-2.755,0.389-4.081C45.648,83.365,45.973,85.374,45.844,87.543z"/>
	<path fill="#ECEE8E" d="M36.509,15.531c0,0,0-1.796,0.467-1.796c0.468,0,0.86,0.547,0.703,1.484
		c0.234-0.391,0.625,0.077,0.391,0.546c0.624-0.156,0.624,0.468-0.235,1.092c1.016,0.624,2.655,3.825,2.655,5.386
		c0,1.561-1.171,0-1.406-0.937c2.421,5.074,0.781,5.542,0.078,3.902c2.343,5.31-0.077,7.104-1.092,4.45
		c-0.624,2.498-1.64,1.092-1.64-0.077c-0.234,2.419-1.092,1.327-1.092,0.701c-0.234,1.406-2.654,2.108-2.654,0.235
		c0-1.874,1.015-10.617,3.434-13.505C35.729,16,35.806,15.297,36.509,15.531z"/>
	<path fill="#D0DD47" d="M38.384,35.983c0,0,0.779,1.953-0.391,4.684c-0.389,0.781-0.546-0.624-0.546-0.624s-0.234,2.263-0.859,2.42
		c-0.624,0.155-0.938-0.86-0.938-0.86s-0.78,1.563-1.092,0.469c-0.547,1.405-1.483-0.234-1.249-1.483
		c-0.625,0.859-0.938-0.078-0.938-0.624c-0.624,1.483-1.249,1.015-1.015-1.483c0.234-2.499,1.405-4.45,2.107-3.669
		c0.703,0.781,1.717-1.093,2.107,0.079c0.392,1.17,0.781,0.78,1.172,0.39C37.134,34.892,38.305,35.046,38.384,35.983z"/>
	<path fill="#AECF2A" d="M33.542,45.584c0,0,1.796,0.001,2.029,0.625c0.234,0.623-0.155,1.248-0.701,0.857
		c0.546,3.591-0.859,2.889-0.859,1.718c-0.235,4.059-2.108,3.669-2.108,2.185c-0.858,1.093-1.015-0.156-0.78-1.015
		c-0.625,1.483-0.625-0.156-0.313-1.951C31.123,46.21,32.294,44.57,33.542,45.584z"/>
	<path fill="#86B725" d="M30.623,55.145c0.121,0,0.236,0.087,0.344,0.277c0,0,1.248,0.075,0.548,1.794
		c-0.703,1.719-1.485,4.608-1.485,6.01c0,1.407,1.327,0.783,1.327,1.407c0,0.464-0.517,1.965-0.944,1.965
		c-0.147,0-0.283-0.179-0.383-0.638c-0.146-0.663-0.31-0.805-0.466-0.805c-0.057,0-0.112,0.019-0.164,0.037
		c-0.052,0.018-0.101,0.037-0.146,0.037c-0.121,0-0.21-0.133-0.238-0.755c-0.014-0.308-0.073-0.425-0.159-0.425
		c-0.129,0-0.319,0.261-0.505,0.523c-0.185,0.263-0.363,0.524-0.469,0.524c-0.109,0-0.145-0.271-0.037-1.089
		C28.194,61.354,29.603,55.145,30.623,55.145L30.623,55.145z"/>
</g>
</svg>
