 

<svg xmlns:agg="http://www.example.com" xmlns="http://www.w3.org/2000/svg" preserveAspectRatio="none" width="1.0750in" height="1.0750in" viewBox="0 0 999 999">

<path style="fill:#000;fill-rule:evenodd" d="M456,28 l86,0 0,942 -86,0 0,-942z M335,54 l83,-21 245,911 -83,21 -245,-911z M226,113 l75,-44 471,816 -75,44 -471,-816z M135,195 l60,-60 668,668 -60,60 -668,-668z M69,301 l44,-75 816,471 -44,75 -816,-471z M33,418 l21,-83 911,245 -21,83 -911,-245z M28,542 l0,-86 942,0 0,86 -942,0z M54,663 l-21,-83 911,-245 21,83 -911,245z M113,772 l-44,-75 816,-471 44,75 -816,471z M195,863 l-60,-60 668,-668 60,60 -668,668z M301,929 l-75,-44 471,-816 75,44 -471,816z M418,965 l-83,-21 245,-911 83,21 -245,911z " />
<path style="fill:#333;stroke:#000;stroke-width:2" d="M672,918 l-115,30 -116,0 -115,-30 -102,-59 -85,-85 -59,-102 -30,-115 0,-116 30,-115 59,-102 85,-85 102,-59 115,-30 116,0 115,30 104,59 83,85 59,102 30,115 0,116 -30,115 -59,102 -85,85 -102,59z" />
<circle style="fill:#4c4c4c" cx="499" cy="499" r="192" />
<path style="fill:#c90;stroke:#000;stroke-width:2" d="M557,638 l-39,10 -38,0 -39,-10 -34,-18 -29,-29 -18,-34 -10,-39 0,-38 10,-39 20,-34 27,-29 34,-18 39,-10 38,0 39,10 34,18 27,29 20,34 10,39 0,38 -10,39 -18,34 -29,29 -34,18z" />
<path style="fill:#000" d="M520,520 l79,20 -15,25 -19,19 -25,15 -20,-79z" />
<path style="fill:#000" d="M478,520 l-20,79 -25,-15 -19,-19 -15,-25 79,-20z" />
<path style="fill:#000" d="M478,478 l-79,-20 15,-25 19,-19 25,-15 20,79z" />
<path style="fill:#000" d="M520,478 l20,-79 25,15 19,19 15,25 -79,20z" />

</svg>
