 

<svg xmlns:agg="http://www.example.com" xmlns="http://www.w3.org/2000/svg" preserveAspectRatio="none" width="1.6083in" height="0.6398in" viewBox="0 0 998 397">

<path style="fill:#666;stroke:#000;stroke-width:2" d="M28,348 l23,-17 23,-17 23,-17 27,-10 28,-7 25,-9 22,-16 19,-26 19,-25 16,-20 22,-18 22,-14 26,-17 25,-18 20,-22 20,-21 21,-22 27,-10 27,-11 4,-2 4,-1 3,0 28,8 23,7 21,17 24,21 24,21 26,17 28,15 27,12 14,4 22,20 21,20 22,20 21,19 12,12 25,10 23,11 24,12 25,10 3,0 21,18 21,19 20,18 16,14 5,5 -13,0 -37,1 -33,1 -31,1 -29,1 -27,1 -28,1 -29,1 -30,1 -33,2 -38,1 -13,0 -12,0 -382,0 -30,-4 -34,-2 -31,-1 -32,-2 -29,-3 -32,-4 -15,-3 -4,-2z" />
<path style="fill:#404040" d="M748,245 l-30,3 -28,3 -26,7 -14,5 -16,23 -19,19 -22,14 -20,19 -14,14 -24,11 -2,0 -3,0 -20,-5 -21,-19 -21,-16 -24,-12 -20,-16 -21,-18 -26,-9 -29,-3 -21,-20 -21,-20 -14,-12 -2,-2 6,0 29,4 26,5 30,6 31,5 31,3 32,-1 29,-6 28,-14 23,-21 14,-19 5,-11 11,0 27,11 22,17 22,20 7,3 2,0 2,-3 2,-5 28,13 24,12 24,13 3,2z" />
<path style="fill:#666;stroke:#000;stroke-width:2" d="M229,309 l6,11 -7,9 0,10 -14,5 -3,-17 0,-17 18,-1z" />
<path style="fill:#666;stroke:#000;stroke-width:2" d="M867,309 l5,11 -7,9 0,10 -15,5 -4,-17 2,-17 19,-1z" />
<path style="fill:#666;stroke:#000;stroke-width:2" d="M605,263 l-6,12 9,9 -1,9 15,8 3,-19 0,-15 -20,-4z" />
<path style="fill:#666;stroke:#000;stroke-width:2" d="M427,160 l6,11 -7,9 0,10 -16,7 -3,-18 2,-16 18,-3z" />
<path style="fill:#666;stroke:#000;stroke-width:2" d="M235,293 l13,6 0,11 6,8 -6,13 -15,-9 -9,-13 11,-16z" />
<path style="fill:#666;stroke:#000;stroke-width:2" d="M872,293 l13,6 0,11 6,8 -6,13 -15,-9 -9,-13 11,-16z" />
<path style="fill:#666;stroke:#000;stroke-width:2" d="M599,250 l-11,4 0,13 -8,6 8,15 13,-11 11,-14 -13,-13z" />
<path style="fill:#666;stroke:#000;stroke-width:2" d="M557,82 l12,4 0,13 7,6 -7,15 -15,-11 -10,-13 13,-14z" />
<path style="fill:#666;stroke:#000;stroke-width:2" d="M203,348 l-13,-4 0,-13 -6,-5 6,-16 15,12 9,11 -11,15z" />
<path style="fill:#666;stroke:#000;stroke-width:2" d="M838,348 l-11,-4 0,-13 -6,-5 6,-16 15,12 10,11 -14,15z" />
<path style="fill:#666;stroke:#000;stroke-width:2" d="M633,305 l11,-6 0,-11 8,-8 -8,-13 -13,10 -11,13 13,15z" />
<path style="fill:#666;stroke:#000;stroke-width:2" d="M410,205 l-13,-4 0,-13 -6,-6 6,-15 15,12 10,11 -12,15z" />
<path style="fill:#666;stroke:#000;stroke-width:2" d="M246,326 l-11,3 0,14 -7,5 7,15 13,-11 12,-11 -14,-15z" />
<path style="fill:#666;stroke:#000;stroke-width:2" d="M884,326 l-12,3 0,14 -7,5 7,15 13,-11 12,-11 -13,-15z" />
<path style="fill:#666;stroke:#000;stroke-width:2" d="M588,280 l13,6 0,11 6,8 -6,13 -15,-9 -10,-14 12,-15z" />
<path style="fill:#666;stroke:#000;stroke-width:2" d="M569,114 l-14,4 0,11 -5,8 5,13 16,-9 9,-13 -11,-14z" />
<path style="fill:#666;stroke:#000;stroke-width:2" d="M239,361 l-10,8 -11,-9 -7,1 -8,-15 17,-3 17,0 2,18z" />
<path style="fill:#666;stroke:#000;stroke-width:2" d="M876,361 l-11,8 -10,-9 -7,1 -8,-15 17,-3 17,0 2,18z" />
<path style="fill:#666;stroke:#000;stroke-width:2" d="M595,316 l12,8 9,-8 9,0 6,-15 -17,-4 -15,0 -4,19z" />
<path style="fill:#666;stroke:#000;stroke-width:2" d="M437,214 l-11,6 -10,-8 -7,0 -8,-15 17,-3 17,0 2,20z" />
<path style="fill:#666;stroke:#000;stroke-width:2" d="M165,356 l12,7 9,-7 10,2 7,-14 -17,-5 -15,-2 -6,19z" />
<path style="fill:#666;stroke:#000;stroke-width:2" d="M802,356 l12,7 9,-7 10,2 7,-14 -17,-5 -15,-2 -6,19z" />
<path style="fill:#666;stroke:#000;stroke-width:2" d="M669,310 l-10,8 -11,-6 -8,0 -9,-13 17,-6 17,-1 4,18z" />
<path style="fill:#666;stroke:#000;stroke-width:2" d="M363,207 l10,7 11,-5 9,0 8,-13 -17,-6 -17,-2 -4,19z" />
<path style="fill:#666;stroke:#000;stroke-width:2" d="M293,344 l-9,-7 -11,6 -8,-2 -9,11 15,8 17,3 5,-19z" />
<path style="fill:#666;stroke:#000;stroke-width:2" d="M931,344 l-10,-7 -11,6 -8,-2 -11,11 17,8 17,3 6,-19z" />
<path style="fill:#666;stroke:#000;stroke-width:2" d="M540,301 l10,-9 11,5 10,-2 9,14 -17,7 -15,2 -8,-17z" />
<path style="fill:#666;stroke:#000;stroke-width:2" d="M614,133 l-9,-9 -10,5 -9,-1 -10,13 15,7 17,2 6,-17z" />

</svg>
