<?xml version="1.0" encoding="utf-8"?>
<!-- Generator: Adobe Illustrator 16.0.0, SVG Export Plug-In . SVG Version: 6.00 Build 0)  -->
<!DOCTYPE svg PUBLIC "-//W3C//DTD SVG 1.1//EN" "http://www.w3.org/Graphics/SVG/1.1/DTD/svg11.dtd">
<svg version="1.1" id="图层_1" xmlns="http://www.w3.org/2000/svg" preserveAspectRatio="none" xmlns:xlink="http://www.w3.org/1999/xlink" x="0px" y="0px"
	 width="100px" height="100px" viewBox="0 0 100 100" enable-background="new 0 0 100 100" xml:space="preserve">
<g>
	<ellipse fill="#C5C1AE" cx="49.886" cy="90.37" rx="18.765" ry="7.449"/>
	<g>
		<g>
			<g>
				<path fill="#8FC05B" d="M50.625,53.507c0,0-12.831-1.514-18.259-9.41c-5.428-7.896-6.286-24.192,0-32.089
					c6.285-7.898,17.66-13.946,26.341-8.569c8.682,5.376,17.063,26.714,11.075,37.298C63.796,51.323,55.115,53.001,50.625,53.507z"
					/>
			</g>
			<path fill="#86B04F" d="M50.625,53.507c4.49-0.506,13.171-2.184,19.157-12.77C75.77,30.153,67.389,8.815,58.707,3.439
				c-3.629-2.249-7.729-2.494-11.733-1.447l0,0c0,0,5.134,0.879,9.504,3.805c4.371,2.925,15.273,27.65,3.972,35.968
				c-11.299,8.317-28.084,2.333-28.084,2.333C37.794,51.993,50.625,53.507,50.625,53.507z"/>
		</g>
		<g>
			<path fill="#685023" d="M45.488,92.162c0,0,1.64-46.88,1.17-48.36c-0.466-1.484-6.317-8.259-6.317-8.259s7.488,6.14,8.191,3.6
				c0.702-2.539,2.106-21.805,2.106-21.805s0.468,19.476,2.339,19.266c1.872-0.213,9.596-7.833,9.596-7.833
				s-8.893,10.161-8.893,13.973c0,3.809,0.701,49.419,0.701,49.419H45.488z"/>
		</g>
	</g>
</g>
</svg>
