 

<svg xmlns:agg="http://www.example.com" xmlns="http://www.w3.org/2000/svg" preserveAspectRatio="none" width="1.0029in" height="1.0750in" viewBox="0 0 932 999">

<path style="fill:#f00" d="M323,971 l-35,-4 -31,-8 -30,-13 -27,-13 -29,-13 -10,-3 -15,-20 -14,-21 -24,-41 -21,-40 -18,-41 -15,-39 -12,-41 -9,-40 -3,-21 -3,-20 4,-17 6,-34 7,-34 7,-33 6,-34 7,-33 7,-34 7,-34 3,-16 13,27 13,31 13,32 13,32 13,30 14,21 21,17 15,0 22,-16 14,-21 15,-29 14,-31 12,-34 12,-32 11,-27 5,-30 2,-31 0,-30 2,-31 3,-30 7,-30 14,-30 21,-31 1,42 0,38 2,35 4,32 2,29 5,25 8,44 9,30 13,24 4,2 4,-1 16,-33 15,-36 13,-23 6,-1 12,32 4,29 4,30 5,29 5,25 12,25 11,4 7,-4 16,-20 12,-35 2,-35 -3,-37 -2,-37 5,-48 11,-39 17,-32 18,-25 19,-23 17,-23 14,-26 8,-32 1,-19 20,21 19,21 15,21 13,23 18,44 10,45 4,46 -3,44 -6,44 -9,41 1,50 -1,46 -6,43 -5,39 -4,35 -1,29 9,34 7,8 31,4 23,-9 19,-17 15,-25 15,-30 16,-33 18,-34 24,-32 4,28 7,39 4,25 0,7 0,6 -6,26 -6,38 -3,20 -4,42 -4,36 -6,33 -8,31 -7,25 -9,25 -19,38 -21,27 -20,20 -29,16 -8,4 -12,-2 -35,-5 -35,-4 -36,-5 -35,-6 -36,-5 -34,1 -32,2 -30,3 -30,5 -29,4 -28,4 -30,4 -29,4z" />
<path style="fill:#c30" d="M320,957 l-31,-2 -27,-8 -25,-11 -25,-12 -25,-11 -9,-3 -25,-36 -22,-36 -18,-35 -17,-37 -13,-35 -10,-35 -8,-37 -3,-17 -3,-18 3,-15 7,-30 6,-29 5,-30 6,-30 6,-29 6,-30 6,-29 2,-15 13,23 11,28 12,29 11,28 11,26 18,26 13,7 14,0 26,-22 12,-23 13,-26 11,-29 11,-29 11,-26 7,-25 2,-27 1,-27 0,-27 2,-27 5,-27 9,-26 15,-27 11,-14 0,36 2,34 3,31 4,28 4,26 12,43 12,32 12,22 14,14 5,-1 14,-30 13,-31 12,-21 6,-1 11,29 6,25 8,27 7,26 14,32 16,15 7,0 6,-2 19,-29 7,-31 -1,-32 -3,-32 0,-33 4,-31 10,-35 15,-27 16,-23 16,-20 15,-20 12,-24 7,-27 1,-17 19,18 29,38 21,38 12,40 6,41 0,39 -4,39 -7,38 -3,41 0,41 -3,40 -5,36 -5,32 -2,28 4,34 9,16 28,4 29,-15 22,-30 13,-27 14,-29 16,-29 22,-29 7,44 4,28 2,8 0,7 0,6 0,8 -9,34 -4,32 -4,36 -4,33 -5,29 -6,27 -15,44 -17,33 -19,25 -27,23 -16,9 -7,2 -11,-2 -31,-3 -31,-4 -31,-5 -31,-4 -32,-5 -32,1 -32,1 -35,3 -34,3 -34,5 -33,3 -30,5 -29,2z" />
<path style="fill:#f60" d="M175,890 l-15,-30 -14,-31 -10,-30 -5,-30 1,-30 -1,-33 -6,-28 -8,-28 -8,-28 -3,-13 -1,-11 0,-11 5,-16 5,-4 20,-1 23,14 24,13 23,14 23,14 17,-37 7,-34 11,-29 23,-32 23,-30 23,-29 18,-25 12,23 6,27 7,32 11,34 11,22 7,10 3,-3 5,-26 4,-26 4,-29 7,-29 7,-25 17,-22 7,-2 12,35 -1,42 -10,46 -14,45 -15,44 -10,38 -1,30 4,10 8,7 38,-7 10,-11 9,-33 -3,-41 -7,-41 -5,-34 0,-13 4,-7 6,-3 29,15 21,9 9,-2 9,-7 8,-16 6,-25 7,-29 6,-29 6,-31 7,-38 6,-28 9,-34 22,-21 23,-24 19,-19 3,-3 2,16 3,27 9,33 10,28 9,30 4,25 4,30 -4,35 -6,31 -8,34 -8,37 -6,38 -3,39 4,37 4,18 29,21 26,16 25,4 27,-22 21,-22 17,-24 8,-13 8,-13 -1,13 -2,27 -2,37 -2,38 -3,28 -5,31 -7,34 -4,20 -19,24 -17,25 -20,24 -12,11 -13,10 -13,-1 -37,-2 -38,-3 -38,-2 -38,-3 -38,-3 -38,1 -33,1 -29,2 -27,2 -37,3 -38,4 -28,1 -33,-10 -31,-8 -33,-12 -37,-23z" />
<path style="fill:#fc0" d="M188,904 l-14,-37 -6,-30 -3,-27 -4,-28 -4,-35 -8,-32 -9,-36 -9,-33 -2,-16 -2,-14 0,-11 2,-9 4,-5 6,-1 9,3 23,24 20,21 24,23 23,17 13,11 6,1 6,-5 7,-31 5,-37 3,-26 5,-25 10,-28 3,-7 9,-5 5,1 15,21 10,27 7,11 11,5 16,-1 26,-11 3,2 6,29 -1,37 -1,39 0,34 2,8 26,9 32,4 9,0 25,-15 19,-20 10,-18 -10,-38 -13,-43 -6,-33 5,-8 11,0 26,-17 15,-16 16,-20 14,-22 12,-21 10,-37 12,-30 12,-34 13,-26 8,-6 9,1 1,32 -1,41 -1,47 -2,50 -1,49 -1,46 2,40 3,31 19,31 19,29 7,6 30,1 30,2 31,-15 6,31 5,30 2,9 0,11 -16,31 -14,30 -11,20 -20,14 -20,15 -13,10 -30,0 -31,0 -31,-2 -30,-3 -30,-1 -30,-3 -30,-3 -31,-1 -35,7 -27,6 -26,3 -25,3 -12,1 -10,0 -26,-4 -1,-3 -30,-4 -30,-2 -30,-6 -31,-13z" />
<path style="fill:#ff0" d="M201,836 l17,27 10,27 25,12 31,2 30,6 27,7 13,1 11,1 11,-2 33,-9 28,-9 27,-8 31,-5 40,1 30,5 35,6 32,2 27,-1 30,-5 11,-4 16,-24 19,-25 8,-12 4,-12 0,-11 -6,-10 -33,1 -27,-13 -23,-7 -20,-25 -8,-39 0,-49 2,-27 2,-26 2,-27 2,-48 -4,-40 -6,-13 -8,-11 -12,14 -18,33 -13,37 -10,39 -6,37 -5,34 -5,27 -12,22 -18,20 -16,19 -24,23 -10,5 -26,-3 -34,-11 -35,-13 -8,-33 0,-50 -4,-32 -2,-7 -4,-5 -6,-1 -16,7 -15,24 -19,37 -20,36 -13,24 -33,-6 -27,-17 -8,-4 2,31 -7,28 -2,14 -2,13 2,11 7,11z" />
<path style="fill:#ff6" d="M323,904 l3,0 4,0 3,0 17,0 10,-8 16,-7 20,-6 21,-6 21,-8 17,-9 12,-10 4,-14 -19,1 -16,-2 -15,-3 -13,-6 -11,-7 -9,-9 -9,-10 -7,-11 -7,-12 -6,-12 -5,-12 -6,-12 -5,-12 -6,-10 -7,-10 -7,-8 -3,8 -6,15 -5,17 -7,20 -7,21 -7,17 -10,15 -9,9 -11,1 -7,2 -6,-1 -7,-2 -10,-6 -13,-8 2,18 3,14 6,13 6,9 7,8 6,7 6,6 5,6 8,2 9,1 8,2 8,2 9,1 9,2 7,2 9,2z" />
<path style="fill:#ff6" d="M565,877 l-28,-15 -21,-6 -3,-8 -1,-12 7,-1 21,-29 12,-33 13,-38 11,-41 10,-40 10,-35 6,-14 4,-12 2,4 1,36 0,55 -1,40 1,38 3,31 6,21 4,5 32,5 41,-1 19,-4 -6,17 -24,24 -19,8 -5,5 -12,2 -11,1 -12,0 -35,-2 -25,-1z" />

</svg>
