<?xml version="1.0" encoding="utf-8"?>
<!-- Generator: Adobe Illustrator 16.0.0, SVG Export Plug-In . SVG Version: 6.00 Build 0)  -->
<!DOCTYPE svg PUBLIC "-//W3C//DTD SVG 1.1//EN" "http://www.w3.org/Graphics/SVG/1.1/DTD/svg11.dtd">
<svg version="1.1" id="图层_1" xmlns="http://www.w3.org/2000/svg" preserveAspectRatio="none" xmlns:xlink="http://www.w3.org/1999/xlink" x="0px" y="0px"
	 width="100px" height="100px" viewBox="0 0 100 100" enable-background="new 0 0 100 100" xml:space="preserve">
<g>
	<ellipse fill="#C5C1AE" cx="49.511" cy="92.541" rx="12.524" ry="4.971"/>
	<g>
		<g>
			<polygon fill="#685023" points="50.758,61.876 49.511,62.038 48.263,61.876 46.082,93.735 49.511,93.735 52.94,93.735 			"/>
		</g>
		<g>
			<polygon fill="#578A3F" points="65.719,69.25 67.519,69.25 63.404,59.851 65.719,59.851 62.374,52.416 64.432,52.416 
				59.802,45.236 62.632,45.236 58.001,36.006 59.802,36.006 56.2,27.888 58.772,27.888 54.656,20.88 57.486,20.88 52.599,13.958 
				54.913,13.958 49.511,2.164 44.109,13.958 46.424,13.958 41.536,20.88 44.366,20.88 40.25,27.888 42.823,27.888 39.221,36.006 
				41.022,36.006 36.391,45.236 39.221,45.236 34.59,52.416 36.648,52.416 33.304,59.851 35.62,59.851 31.503,69.25 33.304,69.25 
				28.931,77.798 49.511,77.798 70.092,77.798 			"/>
		</g>
	</g>
	<path fill="#437034" d="M70.092,77.798l-4.373-8.548h1.8l-4.114-9.399h2.314l-3.345-7.435h2.058l-4.63-7.18h2.83l-4.631-9.23h1.801
		L56.2,27.888h2.572l-4.116-7.008h2.83l-4.888-6.922h2.314L49.511,2.164c3.892,35.888,0,59.874-6.077,66.913
		c-6.078,7.04-14.503,8.721-14.503,8.721h20.58H70.092z"/>
</g>
</svg>
