<?xml version="1.0" encoding="utf-8"?>
<!-- Generator: Adobe Illustrator 16.0.0, SVG Export Plug-In . SVG Version: 6.00 Build 0)  -->
<!DOCTYPE svg PUBLIC "-//W3C//DTD SVG 1.1//EN" "http://www.w3.org/Graphics/SVG/1.1/DTD/svg11.dtd">
<svg version="1.1" id="图层_1" xmlns="http://www.w3.org/2000/svg" preserveAspectRatio="none" xmlns:xlink="http://www.w3.org/1999/xlink" x="0px" y="0px"
	 width="100px" height="100px" viewBox="0 0 100 100" enable-background="new 0 0 100 100" xml:space="preserve">
<g>
	<path fill="#E0DCB9" d="M72.042,95.422c0,1.222-9.147,2.21-20.432,2.21c-11.283,0-20.43-0.988-20.43-2.21
		c0-1.221,11.362-3.933,22.645-3.933S72.042,94.201,72.042,95.422z"/>
	<path fill="#CCCCCC" d="M67.072,94.963c0,0.922-6.923,1.672-15.462,1.672c-8.54,0-15.462-0.75-15.462-1.672
		c0-0.924,8.6-2.977,17.139-2.977S67.072,94.039,67.072,94.963z"/>
	<g>
		<g>
			<path fill="#7CBA28" d="M46.801,8.607c0,0-1.023-2.076-4.049-1.834c-3.027,0.241-4.719,3.001-3.923,5.503
				c-2.11-1.784-8.641,0.415-5.88,5.99c-3.835-1.723-6.121,3.071-4.234,5.063c-6.343-0.819-11.455,4.76-11.619,10.796
				c-0.163,6.035,6.652,9.349,6.652,9.349s-5.346,2.228-2.03,7.279c-5.142,2.665-5.541,9.45-4.323,12.287
				c1.219,2.839,4.481,5.838,9.043,4.668c-2.861,6.071,4.649,7.566,6.443,5.027c-2.044,7.818,8.471,5.944,8.752,3.471
				c0.9,6.605,9.821,3.825,9.7,0.263c4.006,3.453,10.435,1.037,10.864-2.834c7.351,7.424,16.445-1.823,11.765-8.313
				c4.476,2.063,6.076-5.336,2.785-7.258c3.525,1.28,5.814-3.62,3.173-5.632c5.59,0.69,8.092-12.078-0.817-13.72
				c2.234-2.852,0.266-9.809-4.377-9.718c4.217-4.31,2.93-12.544-5.376-12.551c1.475-2.657-3.467-7.43-7.185-5.588
				c0,0,1.771-5.669-4.193-8.528C52.008-0.53,45.956,3.949,46.801,8.607z"/>
			<g>
				<path fill="#538A36" d="M69.809,49.374c-1.757-0.323-3.533-3.754-2.67-5.009c-1.063,0.976-4.352-0.393-3.423-4.024
					c-0.455,1.449-5.11,0.776-0.867-2.492c-2.643,0.991-5.826-3.175-0.255-4.031c0.101,0.025,0.202,0.049,0.302,0.085
					c-0.039-0.038-0.074-0.074-0.109-0.11c0.124-0.018,0.248-0.037,0.381-0.05c-0.205-0.048-0.39-0.115-0.579-0.176
					c-0.72-0.911-0.493-1.896,1.692-1.681c-1.986-0.413-3.494-3.173-0.066-4.531c-4.29,1.165-6.818-1.372-7.638-3.48
					c-0.804,1.183-3.001,1.273-4.633,0.133c0.835,3.678-3.569,3.577-3.569,3.577c1.384,2.596-2.102,4.789-3.806,2.457
					c0.409,4.125-5.066,6.81-7.906,4.265c0.177,1.103,0.845,3.314-1.987,4.334c7.032,1.195,5.104,7.178,1.898,6.634
					c7.455,4.771,2.055,12.397-2.248,10.177c0.896,1.396-0.702,2.906-1.923,1.958c0.049,2.013-0.313,3.924-2.181,3.78
					c1.439,0.589,2.826,3.095,0.086,4.574c3.763-0.903,7.833,2.224,6.526,4.474c1.392-1.517,4.231,1.027,2.635,2.446
					c2.911-0.104,3.262,2.283,3.262,2.283c6.87-4.386,12.086-1.32,12.149-3.694c0.063-2.376,3.776-5.201,5.016-4.984
					c-1.409-1.592-0.368-5.585,2.48-3.316c-0.274-1.378,0.802-2.812,2.157-2.958c-3.003-0.354-2.977-5.199,1.05-4.267
					C64.003,52.779,66.788,49.656,69.809,49.374z"/>
				<path fill="#538A36" d="M64.28,31.887c0.145,0.03,0.288,0.05,0.435,0.054C64.561,31.917,64.42,31.901,64.28,31.887z"/>
			</g>
			<path fill="#589635" d="M25.901,52.469c0,0,1.848-0.183,0.807-2.511c2.828,0.937,2.241-2.374,0.688-3.517
				c1.546,0.993,3.846-0.171,3.407-1.869c1.749,2.244,3.444,1.866,3.881,0.583c0.349,1.299,1.895,2.29,1.895,2.29
				s-2.68,0.675-1.61,3.608c-1.974-0.973-1.596,0.931-0.766,1.854c-2.163-1.925-4.89-0.743-4.071,1.444
				c-1.003-1.573-2.126-1.171-2.669-0.59C27.463,53.764,27.183,52.41,25.901,52.469z"/>
			<path fill="#589635" d="M20.362,34.113c0,0,3.508,0.502,3.135,4.284c2.249-3.054,4.864,0.402,4.864,0.402s1.71-3.205,4.787-1.768
				c-3.939-4.574,1.535-6.728,1.535-6.728s-3.123,0.321-3.192-2.119c-1.108,0.92-3.807,0.576-3.88-1.728
				c-1.013,2.41-3.464,2.885-4.919,1.627C23.583,30.138,22.827,33.096,20.362,34.113z"/>
			<path fill="#589635" d="M67.118,40.542c0,0,2.259,0.323,2.019,2.759c1.449-1.966,3.134,0.26,3.134,0.26s1.103-2.064,3.084-1.139
				c-2.537-2.946,0.989-4.335,0.989-4.335s-2.011,0.208-2.056-1.364c-0.715,0.592-2.453,0.372-2.501-1.111
				c-0.652,1.551-2.229,1.856-3.168,1.047C69.193,37.982,68.706,39.887,67.118,40.542z"/>
			<path fill="#467033" d="M34.156,59.253c0,0,1.222,1.928-0.787,3.327c2.437-0.177,1.836,2.551,1.836,2.551
				s2.286-0.502,2.868,1.605c0.593-3.844,3.939-2.063,3.939-2.063s-1.464-1.395-0.297-2.449c-0.916-0.158-1.876-1.624-0.777-2.624
				c-1.604,0.513-2.86-0.49-2.855-1.729C37.45,59.168,35.685,60.035,34.156,59.253z"/>
			<path fill="#589635" d="M45.61,13.27c0,0-0.09,3.4-4.6,2.406c0,0,2.389,1.984-1.57,3.186c1.915,0.139,2.421,4.077,0.22,4.803
				c2.366-0.372,4.256,0.64,4.216,2.121c1.171-1.364,2.378-0.809,3.331-0.609c-0.512-3.677,4.989-3.877,6.614-2.612
				c-1.409-2.742,1.396-3.278,1.396-3.278c-2.259-0.322-2.828-1.82-1.917-3.279c-1.663,0.217-2.155-0.93-1.783-1.792
				C49.816,15.827,46.752,16.266,45.61,13.27z"/>
			<path fill="#589635" d="M69.174,71.611c0,0-0.928-2.422,2.537-3.037c0,0-2.261-0.7,0.175-2.703
				c-1.391,0.462-2.896-2.164-1.557-3.318c-1.559,0.955-3.185,0.793-3.59-0.261c-0.426,1.303-1.439,1.264-2.169,1.402
				c1.435,2.439-2.382,4.188-3.893,3.771c1.793,1.52-0.028,2.718-0.028,2.718c1.686-0.436,2.525,0.453,2.31,1.746
				c1.107-0.637,1.789,0.027,1.779,0.743C65.466,71.04,67.495,69.835,69.174,71.611z"/>
			<path fill="#467033" d="M61.892,54.965c-3.834-5.149,2.338-7.583,2.338-7.583s-3.792,0.392-3.877-2.573
				c-1.317,1.094-4.481,0.71-4.696-1.933c-0.2-3.122,3.586-4.614,3.586-4.614s-3.794,0.391-3.879-2.572
				c-1.346,1.117-4.624,0.7-4.714-2.1c-1.23,2.927-4.205,3.505-5.973,1.976c1.083,2.497,0.164,6.09-2.832,7.326
				c0,0,2.33,0.957,2.288,2.527c-0.02,0.756-0.501,1.234-0.992,1.53c-0.047-0.023-0.094-0.043-0.139-0.072
				c0.023,0.037,0.038,0.081,0.059,0.12c-0.5,0.28-0.987,0.374-0.987,0.374s2.125,2.324-0.263,5.051
				c1.07,0.642,2.879,4.7,0.391,6.379c1.497-0.483,2.594,0.855,2.554,2.337c1.89-2.13,4.712-0.047,4.712-0.047l8.125-0.479
				c0,0-0.71-2.813,1.816-2.655c-0.53-1.337,0.318-2.67,1.502-2.817c0.453,0.05,0.936,0.176,1.454,0.419
				C62.229,55.377,62.066,55.174,61.892,54.965z"/>
			<g>
				<path fill="#AB5023" d="M53.772,30.043c0,0-0.577-2.606-0.907,1.593c-0.328,4.198-1.127,13.776-2.117,14.504
					c-0.99,0.729-4.978-7.362-5.733-7.383c-0.754-0.02-0.536-0.122,1.61,4.25c2.147,4.374,1.787,21.73,1.172,24.518
					s-6.351-4.487-8.771-6.708c-2.421-2.223-0.869,0.191,0.912,2.181c1.78,1.99,7.457,11.419,6.595,19.38
					c-0.862,7.959-5.414,8.807-7.099,11.242c-1.684,2.436,3.438,0.522,6.348,0.603c2.911,0.078,9.125,1.65,14.649,0.721
					c5.527-0.932,2.431-2.093,0.522-3.331s-4.402-8.748-4.701-13.61c-0.301-4.861-0.563-15.116,0.15-17.58
					c0.713-2.459,6.178-9.107,7.009-11.89c0.83-2.782-0.984,0.512-2.552,2.627c-1.567,2.116-4.445,4.843-5.092,4.824
					c-0.646-0.017-1.405-3.92-1.789-9.647C53.594,40.607,53.772,30.043,53.772,30.043z"/>
				<path fill="#873D21" d="M45.783,94.224c0,0,3.143,0.231,4.635,0.556c1.494,0.326,9.624,1.189,12.967-0.794
					c0.227-0.424,0.024-0.93-0.89-1.455c-0.917-0.526-2.414-0.637-4.275-5.908c-1.86-5.271-2.241-9.716-2.214-16.009
					c0.026-6.291,0.093-8.721,0.336-9.787s1.228-3.112,3.677-6.409c2.448-3.296,3.068-5.065,3.532-6.341
					c-0.972,1.547-5.312,8.653-7.267,9.601c-1.957,0.95-2.588-10.153-2.588-10.153l-0.13-11.09c0,0-0.33,7-0.422,13.006
					c-0.091,6.004,0.681,9.244,0.762,11.533c0.081,2.29-0.986-0.528-1.194-3.395c-0.209-2.865-1.059,2.046-1.231,5.832
					c-0.172,3.786,0.607,11.961,1.076,15.763c0.471,3.804-0.838-3.385-0.929-5.318c-0.091-1.932-0.259,1.64-0.326,6.787
					c-0.067,5.146-1.661,8.536-3.476,9.562c-1.816,1.022-8.694,4.127-6.775,1.89c0,0-2.554,1.862-1.855,2.525
					c0.696,0.663,3.291-0.055,5.087-0.363L45.783,94.224z"/>
				<path fill="#873D21" d="M37.832,60.326c0,0,2.77,3.364,3.998,5.543c1.229,2.178,5.044,9.146,4.673,15.001
					c-0.372,5.854,1.755-1.453-0.306-7.23C44.137,67.861,42.291,64.737,37.832,60.326z"/>
				<path fill="#873D21" d="M45.44,67.253c0,0,1.103,0.924,1.792,0.844c0.688-0.078,0.841-2.085,0.828-3.411
					c-0.013-1.323,0.235-8.676,0.011-13.147c-0.223-4.47-0.797-6.792-0.797-6.792s1.299,4.549,1.701,9.613
					c0.404,5.064,0.844,14.2-0.151,16.528C47.83,73.216,45.44,67.253,45.44,67.253z"/>
				<path fill="#592914" d="M56.139,63.496c0,0-0.568,15.054,1.191,20.143c0.689,2.567,2.205,6.673,3.48,7.685
					c1.271,1.01,3.612,2.084,2.574,2.662c-1.036,0.578-2.688,1.51-10.538,1.134c0,0-1.785-0.155-3.185-0.52
					s-4.057-0.326-4.057-0.326s1.638-0.444,3.958-0.055c2.321,0.387,5.678,0.53,8.082-0.163c2.403-0.693-0.337-3.585-1.269-7.19
					C55.443,83.264,54.07,73.903,56.139,63.496z"/>
			</g>
		</g>
	</g>
</g>
</svg>
