 

<svg xmlns:agg="http://www.example.com" xmlns="http://www.w3.org/2000/svg" preserveAspectRatio="none" width="1.0848in" height="1.0750in" viewBox="0 0 999 990">

<path style="fill:#808080;stroke:#000;stroke-width:2" d="M28,491 l42,-11 -42,-158 66,12 98,127 189,0 37,-4 27,-9 20,-29 0,-31 -6,-32 -9,-37 -9,-28 -11,-29 -13,-32 -15,-33 -16,-33 -14,-29 -11,-26 -10,-23 -13,-28 -12,-26 -2,-3 17,0 6,-1 6,0 31,2 24,16 19,19 15,23 16,22 19,22 34,1 35,1 17,7 4,24 -4,9 -6,4 -27,2 -16,1 61,88 33,-2 28,-1 26,6 7,6 -7,28 -3,3 -30,5 -17,1 97,126 39,1 41,1 57,0 29,1 46,7 31,13 11,8 5,11 2,11 -2,10 -28,23 -38,9 -24,3 -28,2 -29,1 -48,1 -35,1 -29,0 -97,127 28,4 26,8 5,5 -9,27 -26,4 -27,-1 -29,-2 -3,0 -66,90 33,3 24,12 3,3 -1,16 -23,13 -33,1 -37,-1 -20,17 -17,26 -18,27 -17,22 -24,15 -6,1 -5,1 -5,0 -31,-2 -10,0 19,-41 17,-37 18,-37 16,-35 16,-34 15,-32 15,-30 14,-28 13,-26 8,-25 6,-39 -9,-30 -23,-19 -31,-11 -27,-5 -30,-2 -34,-2 -27,-1 -39,0 -30,-1 -41,0 -96,125 -66,11 42,-155 -42,-15z" />

</svg>
