 

<svg xmlns:agg="http://www.example.com" xmlns="http://www.w3.org/2000/svg" preserveAspectRatio="none" width="1.6083in" height="0.7148in" viewBox="0 0 999 444">

<path style="fill:#f2f2f2;stroke:#000;stroke-width:2" d="M232,300 l738,0 0,-272 -738,0 0,272z" />
<path style="fill:#fc0;stroke:#000;stroke-width:2" d="M193,378 l0,-273 -136,0 -20,117 0,97 -9,0 0,29 19,0 68,30 78,0z" />
<path style="fill:#c90;stroke:#000;stroke-width:2" d="M61,319 l69,0 63,20 0,39 -78,0 -68,-30 14,-29z" />
<path style="fill:none;stroke:#000;stroke-width:2" d="M115,319 l0,-214" />
<path style="fill:none;stroke:#000;stroke-width:2" d="M52,319 l0,-97 63,0" />
<path style="fill:none;stroke:#000;stroke-width:2" d="M37,319 l24,0" />
<path style="fill:#a6bad9" d="M57,120 l48,0 0,87 -63,0 15,-87z" />
<path style="fill:none;stroke:#000;stroke-width:2" d="M105,120 l-48,0 -15,87" />
<path style="fill:none;stroke:#fff;stroke-width:2" d="M42,207 l63,0 0,-87" />
<path style="fill:#ccc;stroke:#000;stroke-width:2" d="M193,358 l228,0 0,-29 -228,0 0,29z" />
<path style="fill:#e5e5cc;stroke:#000;stroke-width:2" d="M168,392 l78,0 0,-48 -78,0 0,48z" />
<path style="fill:#999;stroke:#000;stroke-width:2" d="M256,329 l102,0 0,-20 -102,0 0,20z" />
<path style="fill:#999;stroke:#000;stroke-width:2" d="M485,309 l306,49 150,0 0,-49 -456,0z" />
<path style="fill:#4c4c4c" d="M232,309 l738,0 0,-9 -738,0 0,9z" />
<circle style="fill:#4c4c4c;stroke:#000;stroke-width:2" cx="921" cy="367" r="48" />
<circle style="fill:#4c4c4c;stroke:#000;stroke-width:2" cx="805" cy="367" r="49" />
<circle style="fill:#4c4c4c;stroke:#000;stroke-width:2" cx="416" cy="367" r="48" />
<circle style="fill:#4c4c4c;stroke:#000;stroke-width:2" cx="299" cy="367" r="48" />
<circle style="fill:#4c4c4c;stroke:#000;stroke-width:2" cx="95" cy="367" r="48" />
<circle style="fill:#e5e5e5" cx="922" cy="367" r="24" />
<circle style="fill:#e5e5e5" cx="805" cy="367" r="24" />
<circle style="fill:#e5e5e5" cx="416" cy="367" r="24" />
<circle style="fill:#e5e5e5" cx="299" cy="367" r="24" />
<circle style="fill:#e5e5e5" cx="95" cy="367" r="24" />

</svg>
