 

<svg xmlns:agg="http://www.example.com" xmlns="http://www.w3.org/2000/svg" preserveAspectRatio="none" width="1.1853in" height="1.0750in" viewBox="0 0 999 906">

<path style="fill:#fff;stroke:#000;stroke-width:2" d="M118,878 l749,0 9,0 8,-1 31,-4 24,-10 21,-17 10,-25 0,-5 0,-6 -5,-33 -13,-30 -4,-8 -375,-656 -18,-25 -19,-17 -25,-12 -5,-1 -5,0 -5,0 -25,5 -25,17 -19,20 -9,13 -376,656 -13,29 -1,5 0,6 0,6 4,28 13,25 21,21 27,14 25,5z" />
<path style="fill:#ff0" d="M127,789 l745,0 14,-14 0,-4 -1,-4 -1,-1 -368,-652 -3,-4 -7,-5 -7,-2 -25,12 -359,651 -1,4 13,19z" />
<path style="fill:#ff0" d="M872,788 l-745,0 0,2 745,0 0,0 0,-1 0,0 0,-1z" />
<path style="fill:#ff0" d="M516,115 l368,651 1,-1 -368,-651 -1,0 0,0 -1,0 1,1z" />
<path style="fill:#ff0" d="M116,766 l0,0 359,-651 -1,-1 -360,651 0,1 0,0 1,0 1,0 0,0z" />
<path style="fill:#000" d="M486,622 l-32,-225 0,-108 92,0 0,111 -29,222 -31,0z" />
<path style="fill:#000" d="M474,645 l52,0 0,45 -52,0 0,-45z" />
<path style="fill:#000" d="M453,397 l32,225 1,0 -32,-225 0,0 0,0 -1,0 0,0z" />
<path style="fill:#000" d="M454,288 l-1,1 0,108 1,0 0,-108 0,1 0,-1 0,0 0,-1 -1,1 0,0 1,-1z" />
<path style="fill:#000" d="M547,289 l-1,-1 -92,0 0,2 92,0 0,-1 0,1 1,0 0,-1 0,0 -1,-1 1,1z" />
<path style="fill:#000" d="M547,400 l0,-111 -1,0 0,111 0,1 0,0 1,0 0,-1z" />
<path style="fill:#000" d="M517,622 l1,0 29,-222 -1,0 -30,222 1,-1 -1,1 1,0 0,0 1,0 -1,0z" />
<path style="fill:#000" d="M485,622 l1,0 31,0 0,-1 -31,0 0,1 0,-1 -1,1 0,0 1,0 -1,0z" />
<path style="fill:#000" d="M527,645 l-1,0 -52,0 0,2 52,0 0,-2 0,2 1,-1 0,-1 0,0 -1,0 1,0z" />
<path style="fill:#000" d="M526,691 l1,-1 0,-45 -1,0 0,45 0,-1 0,1 0,1 0,0 1,0 0,-1 -1,1z" />
<path style="fill:#000" d="M473,690 l1,1 52,0 0,-2 -52,0 0,1 0,-1 -1,1 0,0 0,1 1,0 -1,-1z" />
<path style="fill:#000" d="M474,645 l-1,0 0,45 1,0 0,-45 0,2 0,-2 0,0 0,0 -1,0 0,0 1,0z" />

</svg>
