 

<svg xmlns:agg="http://www.example.com" xmlns="http://www.w3.org/2000/svg" preserveAspectRatio="none" width="1.0750in" height="1.0750in" viewBox="0 0 999 999">

<path style="fill:#ff0;stroke:#000;stroke-width:2" d="M469,41 l22,-13 4,0 4,0 4,0 26,13 428,428 13,22 0,4 0,4 0,4 -13,26 -428,428 -22,13 -4,0 -4,0 -4,0 -26,-13 -428,-428 -13,-22 0,-4 0,-4 0,-4 13,-26 428,-428z" />
<path style="fill:#000;stroke:#000;stroke-width:2" d="M471,80 l24,-10 4,-1 4,1 22,10 393,391 10,24 1,4 -1,4 -10,22 -393,393 -22,10 -4,1 -4,-1 -24,-10 -391,-393 -10,-22 -1,-4 1,-4 10,-24 391,-391z" />
<path style="fill:#ff0;stroke:#000;stroke-width:2" d="M473,101 l22,-11 4,0 4,0 22,11 372,372 11,22 0,4 0,4 -11,22 -372,372 -22,11 -4,0 -4,0 -22,-11 -372,-372 -11,-22 0,-4 0,-4 11,-22 372,-372z" />

</svg>
