 

<svg xmlns:agg="http://www.example.com" xmlns="http://www.w3.org/2000/svg" preserveAspectRatio="none" width="1.6083in" height="0.7277in" viewBox="0 0 999 452">

<path style="fill:#000" d="M910,326 l0,-36 -138,0 0,-10 -39,0 0,10 -338,0 0,-10 -39,0 0,10 -61,0 -158,-4 -79,4 0,75 79,-30 79,30 79,-39 615,0z" />
<path style="fill:#4c4c4c" d="M201,360 l-4,-25 -13,-21 -22,-15 -25,-4 -24,4 -23,15 -13,21 -4,25 4,24 13,23 23,13 24,4 25,-4 22,-13 13,-23 4,-24z" />
<path style="fill:#4c4c4c" d="M742,360 l-6,-25 -13,-21 -20,-15 -25,-4 -24,4 -23,15 -13,21 -4,25 4,24 13,23 23,13 24,4 25,-4 20,-13 13,-23 6,-24z" />
<path style="fill:#4c4c4c" d="M891,360 l-6,-25 -13,-21 -21,-15 -24,-4 -25,4 -22,15 -13,21 -4,25 4,24 13,23 22,13 25,4 24,-4 21,-13 13,-23 6,-24z" />
<circle style="fill:#ccc" cx="137" cy="359" r="34" />
<ellipse style="fill:#ccc" cx="677" cy="359" rx="35" ry="33" />
<circle style="fill:#ccc" cx="826" cy="360" r="35" />
<circle style="fill:#4c4c4c" cx="137" cy="359" r="9" />
<circle style="fill:#4c4c4c" cx="678" cy="359" r="9" />
<circle style="fill:#4c4c4c" cx="826" cy="359" r="10" />
<path style="fill:#fc0;stroke:#000;stroke-width:2" d="M58,365 l6,-30 17,-26 26,-17 30,-6 30,6 27,17 17,26 5,30 79,0 0,-337 -218,0 21,15 -21,143 -19,0 -21,19 0,121 -9,0 0,39 30,0z" />
<path style="fill:none;stroke:#000;stroke-width:2" d="M49,365 l0,-39 -12,0" />
<path style="fill:none;stroke:#000;stroke-width:2" d="M37,286 l12,0 0,-75 -12,0" />
<path style="fill:none;stroke:#000;stroke-width:2" d="M49,271 l-12,0" />
<path style="fill:none;stroke:#000;stroke-width:2" d="M49,256 l-12,0" />
<path style="fill:none;stroke:#000;stroke-width:2" d="M49,241 l-12,0" />
<path style="fill:none;stroke:#000;stroke-width:2" d="M49,226 l-12,0" />
<path style="fill:none;stroke:#000;stroke-width:2" d="M265,256 l0,-198 -137,0 -15,107 0,91 152,0" />
<path style="fill:none;stroke:#000;stroke-width:2" d="M113,162 l152,0" />
<path style="fill:#fff;stroke:#000;stroke-width:2" d="M49,290 l-12,0 0,30 12,0 0,-30z" />
<path style="fill:#b2b2b2;stroke:#000;stroke-width:2" d="M305,280 l665,0 0,-158 -665,0 0,158z" />
<path style="fill:#cff;stroke:#000;stroke-width:2" d="M58,186 l24,-158 16,15 -21,143 -19,0z" />
<path style="fill:#cff;stroke:#000;stroke-width:2" d="M256,147 l0,-80 -119,0 -9,80 128,0z" />
<path style="fill:none;stroke:#fff;stroke-width:2" d="M593,344 l25,-54 60,-10 58,10 16,36 15,-36 60,-10 58,10 25,54" />
<path style="fill:none;stroke:#000;stroke-width:2" d="M603,326 l-10,18" />
<path style="fill:none;stroke:#000;stroke-width:2" d="M885,290 l-58,-10 -55,10" />
<path style="fill:none;stroke:#000;stroke-width:2" d="M733,290 l-55,-10 -60,10" />
<path style="fill:none;stroke:#000;stroke-width:2" d="M910,344 l-10,-18" />

</svg>
