 

<svg xmlns:agg="http://www.example.com" xmlns="http://www.w3.org/2000/svg" preserveAspectRatio="none" width="1.0772in" height="1.0750in" viewBox="0 0 999 997">

<path style="fill:#fff;stroke:#000;stroke-width:2" d="M876,969 l46,-13 21,-14 14,-21 13,-46 0,-753 -13,-49 -14,-18 -21,-14 -23,-11 -23,-2 -754,0 -25,2 -23,11 -33,32 -11,24 -2,25 0,753 2,23 11,23 14,21 42,23 25,4 754,0z" />
<path style="fill:#f00" d="M373,373 l-251,0 0,251 251,0 0,251 251,0 0,-251 252,0 0,-251 -252,0 0,-251 -251,0 0,251z" />

</svg>
