 

<svg xmlns:agg="http://www.example.com" xmlns="http://www.w3.org/2000/svg" preserveAspectRatio="none" width="1.0750in" height="1.0750in" viewBox="0 0 999 999">

<path style="fill:#f00;stroke:#000;stroke-width:2" d="M95,27 l809,0 29,4 21,13 13,21 4,29 0,810 -4,30 -13,21 -21,12 -29,4 -809,0 -30,-4 -21,-12 -13,-21 -4,-30 0,-810 4,-29 13,-21 21,-13 30,-4z" />
<path style="fill:#fff;stroke:#000;stroke-width:2" d="M95,49 l-28,7 -17,27 -1,11 0,810 7,28 28,17 11,1 809,0 28,-7 16,-28 1,-11 0,-810 -6,-27 -28,-17 -11,-1 -809,0z" />
<circle style="fill:#f00;stroke:#000;stroke-width:2" cx="499" cy="499" r="349" />
<circle style="fill:#fff;stroke:#000;stroke-width:2" cx="499" cy="499" r="279" />
<path style="fill:#f00;stroke:#000;stroke-width:2" d="M387,308 l181,0 34,5 30,16 23,25 17,31 6,34 1,12 -7,49 -20,35 -36,21 -48,7 -138,0 0,170 -43,0 0,-405z" />
<path style="fill:#fff;stroke:#000;stroke-width:2" d="M430,353 l0,145 141,0 9,-2 11,-3 11,-4 7,-2 10,-9 5,-6 4,-6 3,-7 1,-9 2,-9 0,-19 -2,-9 -1,-8 -3,-8 -3,-8 -5,-6 -5,-6 -5,-5 -7,-5 -12,-6 -10,-5 -10,-3 -141,0z" />

</svg>
