 

<svg xmlns:agg="http://www.example.com" xmlns="http://www.w3.org/2000/svg" preserveAspectRatio="none" width="1.0728in" height="1.0750in" viewBox="0 0 997 999">

<path style="fill:#fff;stroke:#000;stroke-width:2" d="M968,301 l0,396 -273,273 -394,0 -273,-273 0,-396 273,-273 394,0 273,273z" />
<path style="fill:#f00" d="M946,310 l0,378 -260,260 -376,0 -260,-260 0,-378 260,-260 376,0 260,260z" />
<path style="fill:#fff" d="M719,671 l0,-338 65,0 9,0 29,3 23,13 19,26 9,25 4,29 0,5 0,4 -2,31 -8,29 -14,23 -22,19 -28,3 -45,1 0,127 -39,0z" />
<path style="fill:#fff" d="M489,502 l0,-6 0,-5 0,-6 2,-32 4,-27 10,-29 12,-27 18,-20 22,-14 22,-7 5,-1 6,1 27,6 23,16 17,24 12,25 9,31 4,26 3,29 1,10 0,10 -2,28 -4,35 -8,30 -10,25 -18,25 -22,17 -24,9 -6,0 -5,1 -6,-1 -27,-6 -22,-15 -18,-21 -10,-25 -8,-30 -6,-35 -1,-27 0,-14z" />
<path style="fill:#fff" d="M377,671 l0,-283 -60,0 0,-55 159,0 0,55 -60,0 0,283 -39,0z" />
<path style="fill:#fff" d="M125,561 l40,-8 4,28 15,25 27,10 26,-7 15,-20 2,-27 -18,-22 -24,-11 -28,-13 -25,-17 -15,-23 -9,-28 -2,-29 5,-30 10,-27 17,-21 24,-11 11,-1 6,-1 10,1 24,8 23,21 13,23 8,29 2,20 -39,4 -9,-26 -20,-18 -28,1 -17,21 3,29 26,15 29,10 22,13 21,21 11,25 7,29 1,14 1,6 -1,7 -4,28 -8,26 -18,23 -22,13 -25,4 -7,1 -10,-1 -25,-6 -25,-19 -13,-25 -8,-30 -2,-20 -1,-7 0,-7z" />
<path style="fill:#f00" d="M758,388 l0,101 30,0 11,-1 10,-2 8,-1 9,-5 6,-9 3,-10 2,-8 1,-11 0,-10 -3,-12 -3,-8 -6,-9 -7,-8 -9,-3 -10,-2 -10,-1 -6,-1 -26,0z" />
<path style="fill:#f00" d="M527,502 l1,14 0,13 2,12 1,11 2,10 3,9 3,9 8,13 10,10 12,8 12,5 6,0 6,0 11,-3 11,-7 9,-9 6,-10 4,-7 3,-10 3,-10 3,-12 1,-12 2,-13 0,-7 0,-7 0,-7 0,-13 0,-12 -2,-12 -1,-12 -3,-10 -2,-10 -3,-8 -4,-8 -9,-11 -11,-10 -12,-6 -6,-1 -6,-1 -7,1 -12,4 -11,8 -10,10 -6,10 -3,7 -3,10 -3,10 -2,11 -1,12 -1,12 0,6 -1,6 0,7z" />

</svg>
