 

<svg xmlns:agg="http://www.example.com" xmlns="http://www.w3.org/2000/svg" preserveAspectRatio="none" width="1.0718in" height="1.0750in" viewBox="0 0 996 999">

<circle style="fill:#7f7f7f;stroke:#000;stroke-width:2" cx="498" cy="499" r="470" />
<circle style="fill:#333;stroke:#000;stroke-width:2" cx="497" cy="499" r="451" />
<circle style="fill:#7f7f7f;stroke:#000;stroke-width:2" cx="497" cy="499" r="284" />
<circle style="fill:#4c4c4c;stroke:#000;stroke-width:2" cx="498" cy="499" r="255" />
<circle style="fill:#ccc;stroke:#000;stroke-width:2" cx="497" cy="499" r="226" />
<circle style="fill:none;stroke:#000;stroke-width:2" cx="496" cy="499" r="137" />
<path style="fill:#333;stroke:#000;stroke-width:2" d="M667,382 l34,111 -46,17 -35,-112 47,-16z" />
<path style="fill:#333;stroke:#000;stroke-width:2" d="M440,303 l116,0 0,49 -116,0 0,-49z" />
<path style="fill:#333;stroke:#000;stroke-width:2" d="M294,493 l35,-111 46,16 -35,112 -46,-17z" />
<path style="fill:#333;stroke:#000;stroke-width:2" d="M431,692 l-95,-69 28,-40 95,70 -28,39z" />
<path style="fill:#333;stroke:#000;stroke-width:2" d="M660,623 l-95,69 -28,-39 95,-70 28,40z" />
<circle style="fill:#4c4c4c;stroke:#000;stroke-width:2" cx="498" cy="499" r="69" />
<circle style="fill:#7f7f7f;stroke:#000;stroke-width:2" cx="498" cy="499" r="30" />

</svg>
