 

<svg xmlns:agg="http://www.example.com" xmlns="http://www.w3.org/2000/svg" preserveAspectRatio="none" width="1.0653in" height="1.0750in" viewBox="0 0 989 998">

<path style="fill:#bfbfbf;stroke:#000;stroke-width:2" d="M184,28 l630,0 147,908 -119,0 -9,-79 -377,0 -6,79 -117,0 -149,-908z" />
<path style="fill:#fff;stroke:#000;stroke-width:2" d="M184,28 l630,0 -159,942 -116,0 5,-79 -379,0 -18,79 -119,0 156,-942z" />
<path style="fill:#7f7f7f;stroke:#000;stroke-width:2" d="M214,47 l8,5 2,6 -4,7 -6,2 -8,-4 -1,-5 2,-8 7,-3z" />
<path style="fill:#7f7f7f;stroke:#000;stroke-width:2" d="M765,47 l1,0 7,7 1,4 -5,7 -4,2 -8,-3 -4,-6 4,-8 8,-3z" />
<path style="fill:#7f7f7f;stroke:#000;stroke-width:2" d="M343,47 l7,5 2,6 -4,7 -5,2 -8,-4 -2,-5 3,-8 7,-3z" />
<path style="fill:#7f7f7f;stroke:#000;stroke-width:2" d="M627,47 l8,5 2,6 -4,7 -6,2 -8,-4 -1,-5 2,-8 7,-3z" />

</svg>
