 

<svg xmlns:agg="http://www.example.com" xmlns="http://www.w3.org/2000/svg" preserveAspectRatio="none" width="1.5348in" height="1.0750in" viewBox="0 0 998 699">

<path style="fill:#999" d="M941,451 l25,-7 4,-6 0,-5 0,-4 -12,-22 -9,-10 -4,-31 -21,-18 -26,-12 -27,-8 -27,7 -14,21 -5,14 -7,-28 -16,-25 -22,-15 -18,-4 -9,0 -9,1 -31,13 -32,-1 -21,16 -11,27 -12,-23 -24,-11 -25,9 -28,19 -20,-15 -30,3 -16,28 -4,17 -29,-4 -4,3 -2,20 -21,20 -3,7 -1,3 0,4 10,22 0,31 21,18 30,3 15,-2 3,31 27,12 29,-5 11,28 30,10 43,-5 22,26 26,21 18,7 9,0 9,0 30,-12 23,-16 19,-18 25,12 33,1 24,-13 16,-25 23,-11 -3,-28 -15,-15 24,9 24,-1 3,-33 -18,-30z" />
<path style="fill:#999" d="M920,181 l25,-7 3,-6 1,-5 0,-4 -21,-32 -4,-32 -21,-18 -27,-10 -26,-9 -27,7 -14,21 -5,14 -7,-28 -16,-25 -23,-15 -17,-4 -9,0 -9,1 -31,13 -32,-2 -22,17 -11,27 -11,-23 -24,-11 -25,9 -28,19 -21,-15 -29,3 -16,28 -4,17 -26,-4 -10,7 1,16 -21,20 -4,7 -1,3 0,3 10,23 1,31 21,18 30,3 15,-2 3,31 27,12 29,-4 11,26 30,11 42,-5 22,26 27,21 17,6 10,1 9,0 30,-12 23,-16 19,-18 25,11 33,2 24,-13 16,-25 23,-11 -3,-28 -15,-15 24,9 27,-5 0,-29 -18,-30z" />
<path style="fill:#999" d="M539,490 l25,-6 4,-7 0,-4 0,-5 -21,-32 -3,-31 -22,-18 -26,-11 -27,-9 -26,7 -14,21 -6,14 -6,-28 -17,-24 -22,-15 -17,-4 -9,-1 -9,1 -32,14 -31,-2 -22,17 -11,27 -11,-24 -24,-11 -26,9 -27,19 -21,-15 -30,4 -15,27 -5,17 -26,-4 -7,3 -2,21 -21,19 -4,11 0,3 0,3 10,20 0,30 21,18 31,3 14,-2 3,31 28,13 29,-5 11,27 23,10 33,-2 16,-3 22,27 26,20 18,7 9,1 10,-1 30,-12 23,-16 18,-17 26,11 33,1 24,-12 16,-26 23,-10 -3,-29 -15,-15 23,10 20,0 8,-5 -1,-30 -18,-30z" />
<path style="fill:#999" d="M493,295 l17,-9 1,-2 0,-3 -13,-19 -8,-24 -22,-12 -26,-5 -16,20 -1,5 -10,-27 -23,-15 -5,0 -5,-1 -6,1 -18,8 -28,4 -11,21 -17,-20 -28,10 -7,6 -24,-10 -18,30 -16,-3 -2,1 -3,13 -14,16 -1,2 0,2 6,14 6,25 34,4 10,25 25,-2 17,21 32,-2 19,21 21,11 5,1 6,-1 25,-11 18,-16 25,9 26,-11 7,-13 12,-23 -9,-9 26,6 -1,-30 -6,-8z" />

</svg>
