 

<svg xmlns:agg="http://www.example.com" xmlns="http://www.w3.org/2000/svg" preserveAspectRatio="none" width="1.6083in" height="0.3011in" viewBox="0 0 999 187">

<path style="fill:#661900" d="M28,130 l56,-65 74,-28 159,-9 215,9 205,-9 149,9 56,37 28,56 -205,10 -112,18 -383,-19 -131,10 -111,-19z" />
<path style="fill:#963" d="M149,102 l-84,0 28,-37 74,-28 196,-9 131,18 262,-18 158,28 19,37 -159,-19 -187,10 -111,37 -215,-28 -74,37 -38,-28z" />
<path style="fill:#ccb299" d="M205,74 l-140,28 28,-37 74,-28 187,0 112,9 262,-9 186,19 -18,9 -112,-9 -187,9 -149,19 -159,-19 -65,37 -19,-28z" />

</svg>
