 

<svg xmlns:agg="http://www.example.com" xmlns="http://www.w3.org/2000/svg" preserveAspectRatio="none" width="1.2890in" height="1.0750in" viewBox="0 0 530 442">

<path style="fill:#7f7f7f;stroke:#000;stroke-width:2" d="M155,59 l0,287 7,0 0,-287 -7,0z" />
<path style="fill:#000;stroke:#000;stroke-width:2" d="M147,405 l0,-390 -22,0 0,375 -110,0 0,15 132,0z" />
<path style="fill:#000;stroke:#000;stroke-width:2" d="M191,287 l0,-95 30,0 7,7 8,-7 -22,-22 7,-8 44,44 -7,8 -15,-15 -7,7 22,22 0,52 66,0 0,-7 -15,0 -2,-2 -1,-6 1,-5 2,-2 48,0 4,-30 -56,0 -2,-2 -3,-10 2,-2 59,0 7,-66 15,0 0,139 -192,0z" />
<path style="fill:#c30;stroke:#000;stroke-width:2" d="M177,390 l0,-110 323,0 0,110 -323,0z" />
<circle style="fill:#4c4c4c;stroke:#000;stroke-width:2" cx="449" cy="383" r="44" />
<circle style="fill:#4c4c4c;stroke:#000;stroke-width:2" cx="191" cy="368" r="58" />
<circle style="fill:#191919;stroke:#000;stroke-width:2" cx="449" cy="383" r="22" />
<circle style="fill:#191919;stroke:#000;stroke-width:2" cx="191" cy="368" r="29" />
<path style="fill:#e5e5e5;stroke:#000;stroke-width:2" d="M258,361 l51,0 0,7 -51,0 0,-7z" />
<path style="fill:#e5e5e5;stroke:#000;stroke-width:2" d="M258,324 l51,0 0,7 -51,0 0,-7z" />
<path style="fill:#c30;stroke:#000;stroke-width:2" d="M243,289 l30,114 -7,2 -30,-114 7,-2z" />
<path style="fill:#f60;stroke:#000;stroke-width:2" d="M133,287 l114,0 0,15 -114,0 0,-15z" />
<path style="fill:#f60;stroke:#000;stroke-width:2" d="M515,398 l-7,-147 -111,0 -29,-221 -162,0 -29,221 0,29 14,0 0,-29 30,-192 132,0 30,192 0,29 29,0 0,15 -103,0 0,103 88,0 15,-74 74,0 14,74 15,0z" />

</svg>
