 

<svg xmlns:agg="http://www.example.com" xmlns="http://www.w3.org/2000/svg" preserveAspectRatio="none" width="1.6083in" height="0.9547in" viewBox="0 0 999 593">

<path style="fill:none;stroke:#fc0;stroke-width:2" d="M961,440 l0,-20 -21,0 0,-21 21,0 0,-21 -21,0 0,-20 21,0 0,-21 -21,0 0,-21 21,0 0,-21 -21,0 0,-18 21,0 0,-21 -21,0 0,-21 21,0 0,-21 -21,0 0,-21" />
<path style="fill:none;stroke:#fc0;stroke-width:2" d="M940,440 l0,-20 21,0 0,-21 -21,0 0,-21 21,0 0,-20 -21,0 0,-21 21,0 0,-21 -21,0 0,-21 21,0 0,-18 -21,0 0,-21 21,0 0,-21 -21,0 0,-21 21,0 0,-21" />
<path style="fill:#4c1900" d="M699,235 l220,-175 -292,-21 -507,145 219,256 605,0 -81,-205 -164,0z" />
<path style="fill:#000;fill-rule:evenodd" d="M344,277 l-24,0 0,288 24,0 0,-288z M382,284 l-26,-7 -74,279 25,7 75,-279z M416,301 l-23,-13 -145,251 23,13 145,-251z M442,327 l-17,-18 -205,203 19,19 203,-204z M463,359 l-13,-22 -249,143 13,23 249,-144z M474,395 l-7,-24 -277,73 5,27 279,-76z M476,433 l0,-27 -288,0 0,27 288,0z M467,471 l7,-27 -279,-73 -5,24 277,76z M450,503 l13,-23 -249,-143 -13,22 249,144z M425,531 l17,-19 -203,-203 -19,18 205,204z M393,552 l23,-13 -145,-251 -23,13 145,251z M356,563 l26,-7 -75,-279 -25,7 74,279z M757,277 l-26,0 0,288 26,0 0,-288z M793,284 l-24,-7 -76,279 27,7 73,-279z M827,301 l-22,-13 -144,251 23,13 143,-251z M855,327 l-18,-18 -204,203 19,19 203,-204z M876,359 l-13,-22 -251,143 13,23 251,-144z M887,395 l-7,-24 -279,73 7,27 279,-76z M887,433 l0,-27 -288,0 0,27 288,0z M880,471 l7,-27 -279,-73 -7,24 279,76z M863,503 l13,-23 -251,-143 -13,22 251,144z M837,531 l18,-19 -203,-203 -19,18 204,204z M805,552 l22,-13 -143,-251 -23,13 144,251z M769,563 l24,-7 -73,-279 -27,7 76,279z " />
<path style="fill:#333;stroke:#000;stroke-width:2" d="M279,548 l35,9 36,0 34,-9 32,-19 26,-24 17,-32 10,-34 0,-38 -10,-34 -17,-32 -26,-25 -30,-18 -36,-10 -36,0 -35,10 -31,18 -26,25 -17,32 -11,36 0,36 11,34 17,32 26,24 31,19z" />
<circle style="fill:#333;stroke:#000;stroke-width:2" cx="744" cy="419" r="137" />
<circle style="fill:#4c4c4c" cx="332" cy="419" r="59" />
<circle style="fill:#4c4c4c" cx="744" cy="419" r="58" />
<circle style="fill:#c90;stroke:#000;stroke-width:2" cx="332" cy="419" r="46" />
<circle style="fill:#c90;stroke:#000;stroke-width:2" cx="743" cy="419" r="46" />
<path style="fill:#000" d="M326,425 l-25,8 6,7 5,6 8,4 6,-25z" />
<path style="fill:#000" d="M339,425 l5,25 8,-4 6,-6 5,-7 -24,-8z" />
<path style="fill:#000" d="M339,414 l24,-8 -5,-5 -6,-8 -8,-3 -5,24z" />
<path style="fill:#000" d="M326,414 l-6,-24 -8,3 -5,8 -6,5 25,8z" />
<path style="fill:#000" d="M737,425 l-23,8 4,7 5,6 8,4 6,-25z" />
<path style="fill:#000" d="M750,425 l7,25 6,-4 8,-6 3,-7 -24,-8z" />
<path style="fill:#000" d="M750,414 l24,-8 -3,-7 -8,-6 -6,-3 -7,24z" />
<path style="fill:#000" d="M737,414 l-6,-24 -8,3 -5,8 -4,5 23,8z" />
<path style="fill:#d9a600;stroke:#000;stroke-width:2" d="M899,105 l-202,0 0,130 202,0 0,-130z" />
<path style="fill:#300" d="M810,131 l-24,0 0,62 24,0 0,-62z" />
<path style="fill:#300" d="M893,131 l-36,0 10,62 26,0 0,-62z" />
<path style="fill:#300" d="M848,131 l-26,0 0,62 35,0 -9,-62z" />
<path style="fill:#f2bf00;stroke:#000;stroke-width:2" d="M925,105 l-228,0 0,-15 228,0 0,15z" />
<path style="fill:#f2bf00;stroke:#000;stroke-width:2" d="M929,235 l-279,0 0,21 196,0 89,205 35,0 -41,-226z" />
<path style="fill:#fc0" d="M584,342 l87,-241 77,-41 177,0 -26,-32 -747,41 -124,134 262,62 32,-5 87,20 18,21 157,41z" />
<path style="fill:#e5b200" d="M126,193 l66,-71 392,-17 -66,187 -392,-99z" />
<path style="fill:#e5b200" d="M584,342 l8,-16 -549,-138 -15,15 262,62 30,-5 89,20 18,21 157,41z" />
<path style="fill:#c90" d="M126,193 l66,-71 392,-17 -387,32 -71,56z" />
<path style="fill:#ffd940" d="M114,122 l574,-32 24,-15 -586,30 -12,17z" />
<path style="fill:none;stroke:#000;stroke-width:2" d="M584,342 l87,-241 77,-41 177,0 -26,-32 -747,41 -124,134 262,62 32,-5 87,20 18,21 157,41" />
<path style="fill:#c90;stroke:#000;stroke-width:2" d="M486,352 l98,0 -6,115 -87,0 -5,-115z" />

</svg>
