 

<svg xmlns:agg="http://www.example.com" xmlns="http://www.w3.org/2000/svg" preserveAspectRatio="none" width="1.3577in" height="1.0750in" viewBox="0 0 999 791">

<path style="fill:#bf8c00;stroke:#000;stroke-width:2" d="M350,603 l115,-48 23,-22 22,-45 0,-138 23,-47 47,-23 23,0 22,390 -275,-67z" />
<path style="fill:#7f7f7f" d="M437,271 l134,-78 7,14 -132,77 -9,-13z" />
<path style="fill:#b2b2b2" d="M439,273 l133,-76 4,6 -133,77 -4,-7z" />
<path style="fill:#7f7f7f" d="M518,241 l85,147 -13,7 -85,-147 13,-7z" />
<path style="fill:#999" d="M518,243 l83,145 -11,7 -84,-147 12,-5z" />
<path style="fill:#b2b2b2" d="M516,243 l85,147 -10,4 -85,-146 10,-5z" />
<path style="fill:#ccc" d="M514,244 l85,146 -6,4 -84,-148 5,-2z" />
<path style="fill:#e5e5e5" d="M514,244 l83,146 -4,1 -83,-145 4,-2z" />
<path style="fill:#fff" d="M512,244 l85,147 -2,0 -85,-145 2,-2z" />
<path style="fill:none;stroke:#000;stroke-width:2" d="M518,241 l85,147 -13,7 -85,-147 13,-7" />
<path style="fill:none;stroke:#000;stroke-width:2" d="M437,271 l134,-78 7,14 -132,77 -9,-13" />
<path style="fill:#bf8c00;stroke:#000;stroke-width:2" d="M603,303 l67,0 0,367 -67,0 0,-367z" />
<path style="fill:#fc0;stroke:#000;stroke-width:2" d="M373,603 l115,-48 22,-22 23,-45 0,-138 25,-47 45,-23 22,0 23,390 -275,-67z" />
<path style="fill:#fc0;stroke:#000;stroke-width:2" d="M580,603 l0,-25 -185,0 -22,-183 -300,0 -45,208 552,0z" />
<path style="fill:#fc0;stroke:#000;stroke-width:2" d="M580,603 l-552,0 0,90 552,0 0,-90z" />
<path style="fill:#fc0;stroke:#000;stroke-width:2" d="M670,28 l48,0 0,690 -48,0 0,-690z" />
<path style="fill:#fc0;stroke:#000;stroke-width:2" d="M970,578 l-252,0 0,25 252,0 0,-25z" />
<path style="fill:#c90;stroke:#000;stroke-width:2" d="M28,693 l22,-90 70,-48 45,0 70,48 23,90 -230,0z" />
<path style="fill:#000;fill-rule:evenodd" d="M135,578 l15,0 0,185 -15,0 0,-185z M111,584 l17,-4 47,177 -17,6 -47,-179z M90,595 l15,-8 90,159 -13,9 -92,-160z M71,612 l13,-11 130,130 -13,11 -130,-130z M60,633 l7,-15 160,92 -9,13 -158,-90z M52,656 l4,-17 177,49 -3,14 -178,-46z M50,680 l0,-17 185,0 0,17 -185,0z M56,702 l-4,-14 178,-49 3,17 -177,46z M67,723 l-7,-13 158,-92 9,15 -160,90z M84,742 l-13,-11 130,-130 13,11 -130,130z M105,755 l-15,-9 92,-159 13,8 -90,160z M128,763 l-17,-6 47,-177 17,4 -47,179z " />
<circle style="fill:#333;stroke:#000;stroke-width:2" cx="143" cy="671" r="87" />
<circle style="fill:#f60" cx="142" cy="670" r="37" />
<path style="fill:#36c" d="M152,693 l-6,0 -7,0 -6,0 -4,-4 -5,-3 -2,-6 -2,-6 0,-5 2,-6 2,-6 5,-4 4,-3 6,-2 7,0 6,2 6,2 3,5 3,6 1,6 0,5 -1,6 -3,6 -3,3 -6,4z" />
<path style="fill:#999;stroke:#000;stroke-width:2" d="M373,373 l-138,0 -22,-185 22,-23 23,185 115,0 0,23z" />
<path style="fill:#4c4c4c;stroke:#000;stroke-width:2" d="M373,373 l-138,0 0,22 138,0 0,-22z" />
<path style="fill:none;stroke:#fff;stroke-width:2" d="M73,533 l0,-93 47,0" />
<path style="fill:none;stroke:#bf8c00;stroke-width:2" d="M120,440 l0,93 -47,0" />
<path style="fill:none;stroke:#fff;stroke-width:2" d="M143,533 l0,-93 45,0" />
<path style="fill:none;stroke:#bf8c00;stroke-width:2" d="M188,440 l0,93 -45,0" />
<path style="fill:none;stroke:#fff;stroke-width:2" d="M213,533 l0,-93 45,0" />
<path style="fill:none;stroke:#bf8c00;stroke-width:2" d="M258,440 l0,93 -45,0" />
<path style="fill:none;stroke:#bf8c00;stroke-width:2" d="M695,718 l0,-690" />
<path style="fill:#c90;stroke:#000;stroke-width:2" d="M465,693 l23,-90 70,-48 45,0 45,0 22,138 -205,0z" />
<path style="fill:#000;fill-rule:evenodd" d="M571,578 l16,0 0,185 -16,0 0,-185z M548,584 l15,-4 49,177 -17,6 -47,-179z M525,595 l16,-8 92,159 -15,9 -93,-160z M509,612 l11,-11 130,130 -11,11 -130,-130z M495,633 l10,-15 158,92 -7,13 -161,-90z M488,656 l5,-17 177,49 -3,14 -179,-46z M488,680 l0,-17 182,0 0,17 -182,0z M493,702 l-5,-14 179,-49 3,17 -177,46z M505,723 l-10,-13 161,-92 7,15 -158,90z M520,742 l-11,-11 130,-130 11,11 -130,130z M541,755 l-16,-9 93,-159 15,8 -92,160z M563,763 l-15,-6 47,-177 17,4 -49,179z " />
<path style="fill:#333;stroke:#000;stroke-width:2" d="M614,754 l-23,5 -22,0 -23,-5 -21,-14 -16,-15 -12,-20 -5,-23 0,-23 5,-23 12,-18 16,-17 21,-11 21,-6 24,0 23,6 19,11 17,17 11,18 6,23 0,23 -6,23 -11,20 -17,15 -19,14z" />
<circle style="fill:#f60" cx="580" cy="670" r="38" />
<ellipse style="fill:#36c" cx="579" cy="670" rx="24" ry="22" />

</svg>
