 

<svg xmlns:agg="http://www.example.com" xmlns="http://www.w3.org/2000/svg" preserveAspectRatio="none" width="0.5036in" height="1.0750in" viewBox="0 0 468 999">

<path style="fill:#f00" d="M194,971 l-34,-37 -16,-19 -15,-20 -15,-21 -13,-21 -13,-22 -12,-22 -11,-23 -9,-23 -9,-24 -12,-47 -7,-49 -1,-24 3,-19 6,-38 10,-37 12,-37 14,-37 16,-37 17,-36 19,-36 19,-37 19,-36 20,-37 18,-37 18,-36 16,-38 15,-37 13,-38 6,-19 1,13 2,34 0,30 0,29 -1,29 0,40 2,34 3,38 4,29 6,33 6,36 9,40 5,22 32,37 16,20 13,20 25,42 20,41 15,38 8,34 3,27 -3,18 5,24 1,23 -1,21 -12,39 -20,35 -26,31 -29,28 -29,25 -26,23 -11,11 -11,0 -81,0z" />
<path style="fill:#c30" d="M198,971 l-30,-33 -29,-37 -26,-38 -23,-41 -18,-42 -15,-42 -8,-45 -3,-22 0,-22 1,-18 7,-34 9,-35 11,-34 13,-34 15,-33 15,-34 17,-33 18,-33 17,-34 18,-33 17,-34 16,-34 16,-34 13,-34 11,-35 6,-17 2,23 1,39 0,35 -1,35 1,38 3,44 3,25 4,28 6,31 6,36 9,39 30,34 27,37 22,38 19,38 13,35 9,30 1,35 -2,7 4,22 1,20 -1,20 -10,36 -19,32 -23,28 -27,26 -26,23 -24,21 -10,10 -11,0 -75,0z" />
<path style="fill:#f60" d="M203,971 l-28,-30 -26,-33 -23,-35 -21,-37 -17,-38 -13,-39 -7,-40 -3,-21 0,-20 1,-16 6,-31 8,-31 10,-31 12,-30 13,-31 15,-30 15,-30 16,-31 16,-30 16,-31 15,-30 15,-31 14,-31 12,-31 11,-31 5,-16 1,20 1,36 0,32 -1,31 1,35 3,40 2,23 4,26 5,28 7,32 7,35 28,31 24,33 21,35 16,34 12,32 8,28 1,31 -2,7 4,20 1,19 -1,17 -9,32 -17,29 -22,26 -24,24 -24,21 -22,19 -9,9 -9,0 -68,0z" />
<path style="fill:#fc0" d="M218,952 l-19,-21 -17,-22 -16,-24 -14,-24 -11,-26 -9,-26 -5,-27 -1,-13 -1,-14 3,-21 11,-42 16,-41 18,-41 22,-41 21,-40 20,-42 17,-42 6,-21 1,13 1,35 -1,32 2,36 3,30 6,37 9,45 18,20 16,23 15,23 10,22 11,32 4,30 -2,5 3,13 1,12 -1,12 -12,32 -20,27 -25,23 -22,20 -7,6 -6,0 -45,0z" />
<path style="fill:#ff0" d="M230,923 l-21,-25 -14,-21 -10,-23 -9,-32 -1,-8 0,-8 8,-37 9,-25 12,-24 13,-25 13,-24 12,-24 9,-25 4,-13 1,8 0,28 1,33 3,28 8,39 20,25 15,28 8,24 0,15 2,15 -2,14 -13,24 -19,18 -10,8 -8,7 -3,0 -28,0z" />
<path style="fill:#ff6" d="M239,904 l-6,-6 -6,-7 -4,-7 -5,-8 -4,-8 -2,-9 -2,-8 0,-9 1,-6 3,-14 5,-13 6,-13 7,-12 7,-13 6,-13 5,-13 2,-7 1,8 0,29 1,9 2,12 3,14 6,6 5,7 4,8 4,7 4,13 -1,8 1,8 -1,7 -6,13 -10,10 -6,4 -4,3 -4,0 -12,0z" />

</svg>
