 

<svg xmlns:agg="http://www.example.com" xmlns="http://www.w3.org/2000/svg" preserveAspectRatio="none" width="1.0255in" height="1.0750in" viewBox="0 0 953 999">

<path style="fill:#a5a5a5;stroke:#000;stroke-width:2" d="M825,334 l3,6 -1,6 -20,24 -19,17 -10,7 19,4 1,1 -17,22 -23,24 10,14 -5,3 -25,5 -10,2 -22,33 26,-2 3,3 -2,12 33,2 38,0 27,-1 30,1 26,9 0,3 -9,7 0,9 6,4 3,4 0,4 -11,10 -6,16 6,7 1,7 -3,5 -25,9 -1,0 -8,26 -23,11 -25,-2 -1,2 4,6 0,1 -2,2 -28,1 -25,-6 -26,-16 -19,-15 -7,2 -22,-17 -18,-13 -7,10 -3,-1 -5,-14 -3,0 -4,3 -11,26 -4,31 -7,5 -9,1 0,9 -6,13 -30,7 -11,-2 -15,28 -8,6 -3,0 -1,8 -20,21 -10,5 0,4 -19,21 -22,12 -14,6 -11,21 -5,4 -12,0 -7,-5 -12,24 -25,18 -16,-2 -18,19 -20,15 -15,1 -2,-3 -9,14 -25,12 -7,1 -4,-1 -2,-2 2,-11 -2,-1 -4,0 -21,15 -12,23 -13,12 -7,1 -2,-4 8,-24 3,-9 -9,0 -14,20 -20,19 -18,16 -6,5 -3,1 -4,-1 -3,-1 -1,-3 19,-24 20,-21 17,-24 2,-4 -1,-3 -2,-2 -7,1 -16,21 -20,19 -24,19 -27,18 -14,2 -2,-1 -1,-2 19,-16 22,-19 25,-19 23,-22 11,-11 0,-5 -4,-2 -20,14 -20,17 -21,15 -26,15 -27,12 -13,2 -3,-1 0,-4 25,-18 25,-13 27,-15 24,-17 18,-20 5,-8 -2,-4 -6,0 -26,23 -20,15 -23,14 -25,12 -21,2 -4,-2 0,-2 3,-3 32,-15 23,-12 23,-15 24,-16 25,-19 13,-16 -26,15 -21,16 -18,3 0,-1 1,-2 21,-15 23,-15 21,-15 22,-19 22,-14 21,-13 22,-18 20,-27 21,-27 20,-20 24,-22 22,-24 22,-29 19,-31 10,-20 -2,-2 -25,-12 -24,-17 -25,-9 -28,-2 -27,-4 -2,-3 0,-1 25,-12 23,-8 26,-7 8,-2 25,-15 25,-3 30,3 28,5 9,1 27,-18 20,-27 14,-22 24,-26 28,-33 22,-29 16,-27 8,-23 15,-31 18,-25 20,-26 22,-23 25,-19 3,-5 2,0 4,6 -14,24 -12,22 4,-1 18,-18 18,-27 12,-22 14,-29 8,-27 2,-3 3,0 3,2 6,25 -11,22 -11,22 -17,25 -7,7 0,3 1,1 3,1 4,-1 21,-19 16,-21 9,-23 9,-23 14,-26 4,-4 4,-1 3,1 3,20 -11,22 -12,21 -22,29 -12,12 0,4 2,1 7,0 4,-1 20,-22 20,-22 17,-23 17,-21 7,-12 4,-2 3,3 1,13 -14,24 -17,22 -20,20 -23,18 0,3 2,1 27,-11 19,-16 19,-21 21,-15 4,-1 3,1 3,3 -1,2 -18,23 -21,20 -22,16 -3,4 0,2 2,1 24,-12 21,-12 7,3 2,7 -1,5 -5,6 -25,14 -5,15 3,5 25,8 3,2 0,4 -3,4 -17,4 -14,15 15,2 3,3 1,4 -21,23 -18,23 3,1 17,-7 0,1 -16,25 -19,18 -5,3 4,1 1,2 -18,21z" />

</svg>
