 

<svg xmlns:agg="http://www.example.com" xmlns="http://www.w3.org/2000/svg" preserveAspectRatio="none" width="1.6083in" height="0.9073in" viewBox="0 0 998 563">

<path style="fill:#ff0;stroke:#000;stroke-width:2" d="M130,372 l-9,13 -2,-1 -14,-26 -7,-26 -6,-35 -4,-30 -4,-34 -3,-37 -5,29 -3,33 -5,30 -11,19 -2,0 -19,-24 -4,-9 -4,-11 0,10 1,28 2,34 3,30 4,27 6,31 6,29 5,29 1,6 21,14 24,15 27,7 32,5 34,3 28,2 15,1 10,0 35,-3 33,-1 32,-1 31,-1 31,-1 32,-1 34,-2 27,-2 37,1 35,2 35,3 28,2 29,1 31,-1 33,-3 36,-5 26,-5 27,-6 15,-4 26,4 29,0 25,-11 23,-23 12,-23 10,-29 8,-39 2,-14 -1,-7 -3,-27 -4,-27 -3,-27 -3,-27 -3,-27 -4,-27 -3,-27 -2,-20 -1,29 -6,29 -3,2 -2,1 -22,-24 -13,-22 -11,-16 -1,1 -1,1 2,38 7,27 14,24 6,25 3,20 -10,24 -9,28 -8,27 -14,25 -4,3 -4,2 -25,-15 2,-29 9,-25 8,-25 2,-15 -16,-22 2,-31 5,-30 -1,-20 -1,-2 -3,0 -26,14 -29,25 -13,12 7,27 6,27 7,27 6,26 -14,-29 -12,-16 -2,0 -2,1 -2,27 2,31 3,35 2,33 -1,27 -2,-1 -8,-25 -3,-33 -3,-29 -7,-12 -3,-1 -26,24 -20,34 -9,15 8,-24 8,-26 8,-26 8,-28 6,-29 2,-28 -7,-28 -17,-22 -14,-23 -2,-9 -19,21 -23,15 -16,24 0,33 6,35 -3,36 -30,11 -29,-2 -12,5 -4,5 7,-27 17,-21 11,-26 -5,-32 -9,-22 -16,-24 -8,-28 -6,-26 -5,-27 -7,-30 -11,-24 -6,-7 -3,-3 1,6 -5,28 -14,28 -13,25 -10,28 -5,35 2,31 8,35 10,27 7,14 -16,24 -14,16 -3,0 -9,-23 -3,-31 -2,-33 -15,22 -4,28 -1,3 -1,2 -2,0 -11,-14 0,-34 4,-28 5,-32 4,-31 3,-27 -1,-31 -1,-3 -2,-1 -3,0 -22,25 -15,25 -5,3 -24,-14 -23,-19 -13,-6 -6,2 -10,27 -2,35 1,33 5,31 18,22 8,24 -1,36 -2,16 -16,20 -18,15 -5,-1 -8,-13 9,-24 3,-32 -13,-24 -5,-16 -15,-26 -7,-28 -11,-25 -4,-4 -2,-1 -19,21 -13,29 -10,28 -3,1 -23,-10 -17,-6 -2,2 9,27 8,25 -6,27 6,29 9,26 13,34 6,14 -21,-17 -21,-27 -15,-22 -20,-20 -5,-2z" />
<path style="fill:#f60" d="M150,413 l-23,10 -17,-21 -10,-23 -9,-31 -6,-28 -3,-31 -1,-11 -4,31 -3,29 -5,26 -8,12 -2,0 -17,-21 -4,-8 -4,-9 0,9 2,30 6,29 10,26 12,24 9,28 2,10 25,13 25,9 29,4 30,2 30,2 37,3 14,1 8,-1 31,-1 30,-1 28,-1 28,-1 28,0 29,-2 31,-2 33,-2 31,2 32,2 32,2 34,2 36,-1 30,-2 32,-4 36,-7 26,-7 26,5 30,2 31,-5 25,-12 22,-22 13,-24 11,-31 6,-30 6,-21 0,-4 0,-5 -3,-28 -7,-25 -7,-27 -7,-28 -3,-18 -1,34 -4,13 -2,1 -2,-1 -13,-29 -9,-29 -8,-28 -1,-5 -1,0 5,29 4,30 -1,33 2,30 1,10 -15,30 -16,24 -17,22 -22,17 -21,-4 -3,-29 11,-31 10,-29 0,-7 -17,-24 0,-34 5,-27 1,-2 -10,26 -13,33 2,30 -3,27 -6,27 -10,28 -15,17 -2,0 -12,-28 -11,-22 -1,0 8,30 6,28 4,27 -1,12 -14,-25 -21,-18 -26,7 -20,10 8,-29 5,-28 7,-29 7,-28 3,-28 -4,-27 -16,-20 -14,-23 -2,-8 -16,22 -11,30 2,27 6,26 1,27 -7,32 -13,26 -24,21 -30,3 -20,-17 -9,-29 4,-32 21,-22 10,-31 -13,-34 -13,-23 -4,-29 -2,-31 -7,-27 -7,-9 -3,-3 0,5 -7,27 -15,23 -12,23 -6,30 4,33 11,31 10,25 -14,21 -16,21 -19,11 -12,-23 -4,-32 -1,-11 -20,19 -4,6 -2,0 -2,-1 -13,-18 0,-29 5,-34 4,-28 4,-34 0,-30 -2,-6 -2,0 -2,0 -21,24 -14,22 -4,2 -21,-18 -15,-22 -6,-6 -2,0 -2,1 -5,29 0,36 2,33 14,24 20,26 7,26 -1,40 -20,16 -22,14 -29,12 -22,-5 -3,-5 2,-30 -7,-26 -8,-19 -7,-27 2,-30 2,-31 -1,-8 0,0 -1,0 -14,27 -13,35 -1,1 -25,-11 -7,-2 -3,0 -2,1 8,24 3,28 -11,22 0,32 8,32 11,32 5,12 -24,-18 -19,-22 -19,-20 -13,-8z" />
<path style="fill:#f00" d="M150,440 l-13,24 -21,12 -14,-22 -6,-41 -22,-23 -9,-10 -1,0 0,0 12,27 9,27 6,25 5,30 23,11 29,9 29,6 28,5 34,5 29,3 32,3 12,1 7,0 31,-2 29,-2 28,-1 29,-1 29,-2 31,-2 33,0 32,3 33,2 28,1 30,-1 34,-4 28,-5 30,-7 26,-7 32,-5 29,-3 31,-4 27,-8 23,-15 16,-21 6,-14 -20,18 -4,2 -1,0 16,-26 15,-24 13,-26 5,-18 1,-6 0,-5 -10,-18 0,32 -1,3 -1,1 -1,0 -13,-27 -9,-25 -8,-25 -2,-3 0,-1 3,35 3,26 0,31 2,15 -20,25 -23,23 -26,21 -24,15 -30,1 -27,-6 -24,-9 -17,-23 -14,-12 0,-1 1,-1 1,1 2,2 -2,34 -3,14 -17,19 -12,8 -4,0 -3,-2 -9,-26 -19,-23 6,-26 5,-26 5,-31 0,-11 -2,-2 -2,1 -18,27 -16,29 -18,30 -18,25 -22,17 -5,-1 -4,-2 -11,-25 -4,-32 2,-42 4,-34 3,-36 -2,-25 -1,-1 -1,1 -12,25 -9,31 -7,25 -1,6 -25,28 -22,13 -27,-2 -21,-20 -16,-32 -11,-35 -6,-30 -3,-17 0,-2 0,1 4,35 3,41 2,27 2,32 -21,18 -24,14 -29,-1 -3,-4 -21,19 -23,-13 -21,-18 -2,0 -2,0 0,0 7,28 13,34 -26,-10 -23,-10 -26,-10 -24,-10 -25,-10 -4,-2z" />
<path style="fill:#ff0;stroke:#000;stroke-width:2" d="M160,261 l10,-10 9,-10 8,-10 7,-11 5,-12 1,-6 1,-7 -1,-7 -4,-15 -4,-9 -6,-11 -6,-10 -5,-10 -4,-8 -3,-9 -5,-11 -3,-11 -3,-9 -2,-10 -2,-10 -3,-10 -3,-11 -2,-3 -7,12 -6,12 -5,10 -3,8 -5,15 -2,11 0,4 0,4 1,10 0,10 3,9 4,9 5,8 4,8 4,7 4,11 3,9 3,12 4,14 2,8 2,9 2,9 2,11z" />
<path style="fill:#f60" d="M162,246 l8,-8 8,-8 7,-8 6,-8 4,-9 1,-5 0,-5 0,-5 -3,-13 -3,-6 -5,-9 -4,-8 -4,-8 -6,-13 -5,-11 -3,-11 -3,-10 -3,-10 -3,-11 -2,-5 -6,10 -4,8 -4,8 -5,12 -2,10 0,10 0,11 0,2 -1,4 2,5 4,8 5,7 5,10 4,10 2,7 2,9 3,11 2,13 3,16z" />
<path style="fill:#f00" d="M165,227 l7,-9 7,-8 4,-8 2,-7 0,-3 0,-4 -2,-8 -5,-10 -5,-11 -4,-9 -3,-7 -3,-11 -3,-10 -3,-7 -1,-4 -4,7 -5,11 -3,9 -3,9 0,2 0,3 0,1 0,9 4,9 5,7 4,7 3,9 3,13 2,9 3,11z" />
<path style="fill:#ff0;stroke:#000;stroke-width:2" d="M618,216 l8,-8 8,-8 7,-8 6,-9 4,-10 1,-5 1,-6 -1,-5 -3,-13 -3,-7 -6,-10 -5,-9 -4,-8 -3,-7 -6,-14 -4,-12 -3,-11 -3,-11 -3,-11 -2,-6 -2,-6 -6,11 -5,9 -4,8 -6,14 -2,10 -1,4 0,4 0,3 1,11 -1,5 5,11 5,10 5,9 4,9 5,14 3,9 3,12 3,14 4,17z" />
<path style="fill:#f60" d="M620,205 l7,-7 6,-6 6,-7 5,-7 4,-12 1,-4 0,-5 -3,-10 -2,-6 -5,-7 -7,-13 -5,-11 -4,-10 -2,-9 -3,-8 -2,-9 -3,-9 -1,-5 -5,8 -4,7 -6,12 -3,10 -1,9 0,11 0,2 -1,3 2,4 5,10 6,9 4,12 4,14 2,10 2,11 3,13z" />
<path style="fill:#ff0;stroke:#000;stroke-width:2" d="M776,173 l-6,-6 -7,-7 -5,-6 -5,-7 -3,-8 -1,-4 -1,-5 1,-5 2,-10 2,-6 4,-7 7,-13 5,-11 4,-10 3,-9 2,-8 2,-9 3,-9 2,-5 4,8 4,7 6,12 3,10 2,9 0,3 0,2 0,11 -3,8 -4,8 -5,7 -5,12 -4,14 -2,9 -2,12 -3,13z" />
<path style="fill:#f60" d="M774,162 l-8,-7 -8,-8 -5,-8 -2,-7 0,-3 0,-4 4,-12 7,-11 5,-9 3,-9 3,-10 3,-11 3,-10 1,-4 4,6 6,11 3,8 2,9 0,2 0,2 0,11 -4,9 -5,7 -4,11 -3,11 -1,7 -2,9 -2,10z" />
<path style="fill:#f00" d="M772,150 l-7,-7 -5,-7 -2,-4 0,-2 0,-2 3,-10 4,-8 5,-9 3,-11 2,-8 2,-5 1,-2 3,4 5,10 2,6 0,2 0,2 -2,10 -4,8 -4,9 -3,11 -2,6 -1,7z" />
<path style="fill:#ff0;stroke:#000;stroke-width:2" d="M295,154 l-7,-8 -8,-9 -5,-9 -2,-7 0,-4 0,-4 1,-8 5,-11 7,-10 4,-9 3,-8 4,-11 3,-11 2,-7 1,-4 4,7 6,11 3,9 2,9 0,2 1,3 -1,1 1,9 -5,10 -4,7 -4,8 -3,9 -4,14 -2,10 -2,11z" />
<path style="fill:#f60" d="M293,145 l-8,-8 -7,-9 -3,-8 0,-2 0,-3 3,-10 6,-9 4,-8 4,-10 2,-9 2,-9 2,-6 1,-3 3,6 4,9 4,10 0,2 0,2 0,2 0,10 -3,9 -4,8 -4,10 -2,11 -2,7 -2,8z" />
<ellipse style="fill:#f00" cx="292" cy="104" rx="12" ry="31" />

</svg>
