 

<svg xmlns:agg="http://www.example.com" xmlns="http://www.w3.org/2000/svg" preserveAspectRatio="none" width="1.0750in" height="1.0750in" viewBox="0 0 999 999">

<path style="fill:#f00;fill-rule:evenodd" d="M139,868 l719,0 0,-739 -719,0 0,739z M28,970 l0,-942 942,0 0,942 -942,0z M495,617 l-9,14 -12,19 -12,18 -10,17 -11,15 -11,14 -10,12 -11,12 -9,11 -10,8 -10,9 -8,6 -9,6 -9,4 -8,3 -8,1 -8,1 -17,-1 -18,-6 -17,-10 -16,-14 -18,-17 -17,-20 -17,-26 -17,-28 4,0 4,0 3,1 2,0 10,-1 11,-1 10,-3 10,-4 11,-3 11,-6 10,-7 12,-8 11,-9 11,-9 12,-10 11,-13 12,-12 12,-14 12,-14 12,-16 16,-21 -21,-24 -10,-13 -10,-11 -10,-12 -8,-12 -8,-11 -7,-10 -7,-12 -6,-10 -5,-10 -5,-10 -4,-10 -3,-10 -2,-9 -2,-8 -1,-10 0,-8 2,-14 4,-16 8,-16 10,-16 14,-17 16,-17 20,-17 23,-19 2,12 2,12 2,12 4,12 4,12 4,12 4,12 5,12 6,12 5,11 7,12 7,12 6,11 9,13 7,11 9,11 18,24 14,-20 13,-16 12,-15 12,-14 13,-14 12,-12 12,-11 12,-10 12,-9 11,-8 11,-7 12,-6 10,-4 11,-4 11,-3 10,-1 10,-1 17,2 14,5 14,7 13,12 11,14 12,17 9,20 9,25 -5,0 -4,-1 -4,0 -3,0 -7,1 -9,2 -8,3 -10,4 -11,6 -11,7 -12,8 -13,10 -13,10 -12,10 -11,12 -12,10 -11,12 -10,12 -10,13 -9,12 -20,26 19,17 12,13 12,10 13,10 12,10 12,9 12,8 14,7 12,7 13,5 12,5 13,5 14,3 13,3 12,1 13,2 13,0 -14,29 -14,24 -14,22 -15,17 -15,13 -15,9 -15,6 -15,2 -8,0 -7,-2 -8,-2 -8,-3 -9,-4 -9,-3 -10,-6 -9,-6 -11,-6 -11,-8 -10,-8 -12,-10 -12,-10 -12,-10 -12,-13 -13,-12 -29,-27z " />
<path style="fill:none;stroke:#000;stroke-width:2" d="M139,868 l719,0 0,-739 -719,0 0,739" />
<path style="fill:none;stroke:#000;stroke-width:2" d="M28,970 l0,-942 942,0 0,942 -942,0" />
<path style="fill:none;stroke:#000;stroke-width:2" d="M495,617 l-21,33 -22,35 -22,29 -21,24 -19,19 -27,21 -25,8 -8,1 -17,-1 -35,-16 -34,-31 -17,-20 -17,-26 -17,-28 4,0 30,-1 31,-10 21,-13 23,-17 23,-19 23,-25 24,-28 12,-16 16,-21 -21,-24 -20,-24 -18,-24 -15,-21 -13,-22 -14,-30 -7,-27 1,-32 12,-32 24,-33 16,-17 20,-17 23,-19 2,12 8,36 8,24 9,24 11,23 14,24 15,24 16,22 18,24 27,-36 24,-29 25,-26 24,-21 23,-17 23,-13 32,-11 37,0 28,12 24,26 21,37 9,25 -32,2 -29,13 -23,15 -26,20 -23,22 -23,22 -20,25 -9,12 -20,26 31,30 25,20 24,19 26,15 25,12 25,10 27,6 25,3 13,0 -14,29 -14,24 -14,22 -30,30 -30,15 -30,0 -25,-9 -28,-15 -22,-14 -22,-18 -24,-20 -25,-25 -29,-27" />

</svg>
