 

<svg xmlns:agg="http://www.example.com" xmlns="http://www.w3.org/2000/svg" preserveAspectRatio="none" width="1.2107in" height="1.0750in" viewBox="0 0 999 887">

<path style="fill:#fff;stroke:#000;stroke-width:2" d="M542,834 l-21,20 -16,5 -3,0 -3,0 -27,-8 -16,-17 -423,-731 -5,-19 0,-4 0,-3 8,-27 22,-18 14,-4 5,0 844,0 27,8 18,22 4,14 0,5 0,3 -6,23 -422,731z" />
<path style="fill:#f00" d="M539,787 l-20,18 -14,5 -3,0 -3,0 -26,-8 -14,-15 -390,-667 -7,-20 0,-3 0,-4 10,-24 23,-14 9,-2 5,-1 780,0 25,8 17,20 3,13 0,4 0,3 -5,20 -390,667z" />
<path style="fill:#fff" d="M518,544 l-19,11 -19,-11 -183,-318 -4,-8 14,-23 9,-1 366,0 22,17 0,5 -3,10 -183,318z" />

</svg>
