<?xml version="1.0" encoding="utf-8"?>
<!-- Generator: Adobe Illustrator 16.0.0, SVG Export Plug-In . SVG Version: 6.00 Build 0)  -->
<!DOCTYPE svg PUBLIC "-//W3C//DTD SVG 1.1//EN" "http://www.w3.org/Graphics/SVG/1.1/DTD/svg11.dtd">
<svg version="1.1" id="图层_1" xmlns="http://www.w3.org/2000/svg" preserveAspectRatio="none" xmlns:xlink="http://www.w3.org/1999/xlink" x="0px" y="0px"
	 width="100px" height="100px" viewBox="0 0 100 100" enable-background="new 0 0 100 100" xml:space="preserve">
<g>
	<ellipse fill="#C5C1AE" cx="50.024" cy="72.635" rx="49.023" ry="11.052"/>
	<g>
		<path fill="#8FC05B" d="M19.206,72.634c0,0-18.604-7.833-4.564-19.019c0,0-16.567-14.173-5.29-23.301
			c11.277-9.129,23.041,6.057,23.041,6.057s-10.179-14.237,3.965-17.214c14.454-3.043,12.01,14.678,12.01,14.678
			s2.187-20.099,18.004-11.411c14.361,7.89,9.129,20.286-1.268,22.062c0,0,15.214-4.818,17.749,4.564
			c2.537,9.382-11.664,12.171-11.664,12.171s16.482-3.549,19.02,4.057c2.534,7.609-17.083,7.355-17.083,7.355H19.206z"/>
		<path fill="#AFD374" d="M15.877,57.881c4.42-5.895,6.779-6.483,6.779-6.483s-8.621-5.305-8.142-11.494
			c0.479-6.189,18.457,2.063,18.457,2.063s-1.502-12.379,5.585-13.557c7.088-1.179,9.371,9.431,9.371,9.431
			s5.085-11.495,11.276-10.905c6.188,0.589,13.262,9.571,3.831,18.785c0,0,11.445-0.813,12.794,4.052
			c1.352,4.867-7.946,12.57-7.946,12.57s17.825-0.349,16.723,9.007c3.735-1.015,6.685-2.825,5.604-6.071
			c-2.449-7.341-17.886-4.29-18.956-4.069c0.974-0.205,14.042-3.125,11.601-12.159c-1.939-7.179-11.295-6.044-15.586-5.115
			c8.882-2.998,12.428-14.19-0.896-21.51c-15.183-8.339-17.804,9.832-17.99,11.307c0.166-1.383,1.813-17.488-12.024-14.574
			c-14.144,2.977-3.965,17.214-3.965,17.214S20.628,21.186,9.351,30.314c-11.277,9.128,5.29,23.301,5.29,23.301
			c-14.039,11.186,4.564,19.019,4.564,19.019S11.456,63.775,15.877,57.881z"/>
	</g>
</g>
</svg>
