 

<svg xmlns:agg="http://www.example.com" xmlns="http://www.w3.org/2000/svg" preserveAspectRatio="none" width="0.3616in" height="1.0750in" viewBox="0 0 336 999">

<path style="fill:#ff0" d="M175,27 l84,195 14,-28 14,214 21,-20 -28,218 28,-16 -70,210 28,-17 -63,181 -35,7 -98,-178 35,17 -78,-268 28,16 -28,-221 21,27 28,-198 14,32 85,-171z" />
<path style="fill:#fc0" d="M259,222 l14,-28 14,214 21,-20 -28,218 28,-16 -70,210 28,-17 -63,181 -35,7 -98,-178 35,17 -78,-268 28,16 -28,-221 21,27 28,-198 11,24 3,8 22,-23 21,-19 27,-15 10,-1 29,9 21,20 26,32 13,21z" />
<path style="fill:#f90" d="M287,408 l21,-20 -28,218 28,-16 -70,210 28,-17 -63,181 -35,7 -98,-178 35,17 -78,-268 28,16 -28,-221 16,21 5,6 11,-25 13,-23 26,-35 30,-21 32,-6 32,10 33,28 16,22 16,26 15,31 15,37z" />
<path style="fill:#f60" d="M280,606 l28,-16 -70,210 28,-17 -63,181 -35,7 -98,-178 35,17 -78,-268 28,16 5,-33 5,-29 14,-46 17,-32 19,-19 32,-9 33,11 22,17 21,21 19,25 17,27 12,28 10,26 6,36 -7,25z" />
<path style="fill:#f30" d="M238,800 l28,-17 -63,181 -35,7 -98,-178 35,17 -12,-67 -3,-54 4,-42 9,-32 13,-22 18,-11 19,-3 21,4 20,11 20,18 17,22 13,28 9,31 2,34 -4,36 -13,37z" />
<path style="fill:none;stroke:#000;stroke-width:2" d="M175,27 l84,195 14,-28 14,214 21,-20 -28,218 28,-16 -70,210 28,-17 -63,181 -35,7 -98,-178 35,17 -78,-268 28,16 -28,-221 21,27 28,-198 14,32 85,-171" />

</svg>
