 

<svg xmlns:agg="http://www.example.com" xmlns="http://www.w3.org/2000/svg" preserveAspectRatio="none" width="1.0567in" height="1.0750in" viewBox="0 0 981 998">

<path style="fill:#f00" d="M492,970 l0,-134 -34,-2 -32,-6 -32,-9 -30,-11 -30,-15 -27,-17 -26,-20 -23,-22 -22,-24 -20,-26 -16,-28 -14,-29 -12,-31 -8,-32 -5,-34 -2,-34 2,-35 5,-33 8,-32 12,-31 14,-29 16,-28 20,-26 22,-24 23,-22 26,-19 27,-17 30,-14 30,-12 32,-8 32,-5 17,-1 17,-1 0,-129 -47,3 -46,8 -44,12 -43,16 -40,20 -38,24 -37,27 -32,30 -31,34 -26,36 -24,39 -19,41 -16,43 -12,45 -7,46 -2,24 0,24 0,24 5,47 9,46 14,44 18,42 21,39 26,38 28,35 32,31 34,29 37,26 40,21 41,18 44,14 45,9 46,5 24,0z" />
<path style="fill:#f00" d="M488,968 l0,-135 34,-2 33,-6 31,-9 31,-12 29,-14 27,-17 26,-20 24,-22 21,-24 20,-26 17,-28 14,-29 11,-31 8,-32 5,-34 2,-34 -2,-35 -5,-33 -8,-32 -11,-31 -14,-30 -17,-27 -20,-26 -21,-24 -24,-22 -26,-19 -27,-17 -29,-14 -31,-12 -31,-8 -33,-5 -17,-1 -17,-1 0,-128 47,2 46,8 44,12 43,16 40,20 39,24 36,27 33,31 30,33 27,36 23,39 20,41 16,43 11,45 7,46 2,24 1,24 -1,24 -5,47 -9,46 -14,44 -18,42 -21,40 -25,37 -29,35 -31,32 -35,28 -37,26 -40,21 -41,18 -44,14 -45,9 -46,5 -24,1z" />
<path style="fill:#f00" d="M252,170 l543,543 -93,93 -543,-543 93,-93z" />

</svg>
