 

<svg xmlns:agg="http://www.example.com" xmlns="http://www.w3.org/2000/svg" preserveAspectRatio="none" width="1.4094in" height="1.0750in" viewBox="0 0 999 762">

<path style="fill:#004020;stroke:#000;stroke-width:2" d="M27,285 l28,-17 36,-6 29,1 31,4 33,7 35,9 36,12 36,13 35,15 35,15 33,16 31,16 27,15 24,15 23,16 19,8 2,-2 -17,-34 -17,-32 -16,-30 -15,-27 -15,-26 -14,-24 -13,-21 -25,-38 -23,-32 -21,-26 -19,-21 -26,-22 -24,-16 -28,-12 -27,-8 -20,-7 31,-6 29,0 28,4 26,8 23,12 23,16 20,18 20,21 18,23 17,24 16,27 14,26 15,27 12,26 13,27 12,25 -2,-34 -6,-34 -8,-34 -10,-34 -12,-32 -14,-30 -15,-29 -15,-25 25,5 23,26 16,29 10,23 9,26 9,27 9,28 7,28 7,29 5,27 6,26 6,36 4,20 9,-33 8,-35 7,-35 5,-36 4,-36 1,-36 0,-36 -3,-35 -5,-36 -8,-34 -4,-11 -3,-12 11,4 25,24 11,28 6,35 2,41 -2,46 -3,51 -3,26 -3,27 14,-29 16,-27 18,-24 19,-23 21,-20 21,-18 23,-15 22,-14 23,-11 33,-13 33,-7 30,-3 35,4 7,2 -32,17 -28,10 -33,16 -37,22 -21,15 -22,19 -22,22 -24,27 -24,32 -25,37 -26,42 27,-19 30,-19 32,-18 33,-17 33,-13 33,-11 33,-7 31,-3 29,3 27,8 8,4 8,5 -7,1 -29,4 -27,4 -29,7 -32,9 -35,12 -24,10 -25,11 -24,14 -26,15 -26,18 -25,21 -25,23 -13,12 27,-4 38,-5 35,-2 33,0 30,3 28,6 27,9 26,14 23,17 24,23 22,27 -28,-10 -28,-15 -29,-17 -23,-11 -27,-9 -30,-6 -35,-1 -26,4 -28,6 -32,11 -34,14 40,8 39,12 34,17 25,22 15,31 3,39 -5,22 -8,26 -14,28 -18,31 -1,0 1,0 6,-41 3,-35 -1,-29 -6,-26 -22,-29 -25,-14 -34,-11 -21,-4 -18,25 -2,40 2,29 2,28 -8,34 -7,7 -36,6 -31,-20 -13,-23 -9,-29 -5,-30 -1,-28 3,-32 3,-7 2,-4 2,-4 -1,-3 -2,-2 -28,-1 -27,8 -24,16 -22,19 -20,23 -19,23 -18,21 -18,16 -10,-40 8,-35 21,-30 32,-24 36,-18 38,-11 35,-3 27,4 -1,-18 -1,-1 -35,-10 -30,-5 -28,-3 -28,-1 -27,2 -38,5 -35,8 -32,11 -28,12 -24,14 -26,18 -15,13 -3,-15 10,-29 28,-26 40,-22 22,-10 24,-9 25,-8 47,-10 41,-3 29,4 -24,-12 -23,-11 -43,-20 -39,-18 -35,-14 -32,-13 -29,-10 -26,-9 -35,-9 -29,-6 -27,-5 -30,-3 -28,-1 -8,-1z" />

</svg>
