 

<svg xmlns:agg="http://www.example.com" xmlns="http://www.w3.org/2000/svg" preserveAspectRatio="none" width="0.3702in" height="1.0750in" viewBox="0 0 344 999">

<path style="fill:#008040;fill-rule:evenodd" d="M120,138 l0,2 1,3 2,2 3,3 2,3 3,2 2,2 1,1 4,-7 3,-8 4,-8 3,-8 3,-8 3,-8 3,-9 3,-8 3,-8 3,-9 3,-8 3,-8 3,-8 3,-8 3,-8 3,-7 6,7 5,7 5,9 3,9 3,9 3,10 2,10 2,11 2,10 2,11 2,10 2,10 3,10 3,10 4,9 5,9 0,-17 3,4 3,4 2,5 1,4 1,4 0,4 0,4 -1,4 0,5 -1,4 -1,4 0,5 0,4 0,5 1,4 1,4 1,2 0,3 1,2 0,2 1,3 0,3 1,2 0,3 1,2 0,3 1,3 0,3 1,2 0,3 0,3 0,2 2,-1 2,-2 2,-1 2,-3 2,-2 3,-2 2,-1 2,-1 2,4 1,5 2,5 1,6 0,7 1,6 0,7 1,6 0,7 0,7 0,6 0,7 -1,6 0,6 0,5 0,5 2,1 1,1 2,1 2,1 1,1 2,1 1,1 1,1 -2,79 0,1 1,2 2,1 1,0 1,1 2,1 2,0 1,0 1,3 2,4 1,3 1,5 0,4 1,4 1,5 1,4 0,4 0,5 0,4 0,4 0,3 0,3 -1,3 -1,3 -2,3 -2,4 -1,3 -1,2 -1,2 -1,2 -1,2 -1,2 0,2 -1,2 -1,2 0,2 -1,3 0,3 -1,3 0,4 4,8 3,3 4,1 3,-2 4,-2 2,-3 3,-2 2,-1 0,7 0,7 1,7 0,9 1,9 0,9 0,10 1,9 0,10 0,9 -1,10 0,8 -1,8 -1,8 -2,6 -1,5 -2,3 -2,2 -3,3 -4,2 -3,2 -4,3 -2,2 -2,2 -5,8 -4,7 -3,7 -3,6 -1,6 -1,6 -1,5 -1,5 0,5 0,5 -1,4 0,5 -1,4 0,5 -2,5 -1,5 -2,3 -2,3 -3,3 -2,2 -3,3 -3,2 -4,2 -4,2 -3,1 -4,2 -4,1 -3,1 -4,1 -3,2 -3,1 -3,0 -2,2 0,2 0,3 1,5 0,7 0,8 1,9 0,10 1,10 0,10 1,9 0,9 1,8 0,7 0,5 0,4 0,1 1,2 0,2 1,3 1,2 2,3 2,3 2,3 3,2 3,3 5,2 5,2 6,2 7,2 8,1 9,1 10,0 0,11 -195,0 0,-11 7,0 6,-1 6,-1 6,-1 5,-2 4,-2 5,-2 3,-2 4,-3 3,-3 2,-2 2,-3 2,-3 2,-3 1,-2 1,-3 0,-7 1,-7 1,-7 0,-6 1,-6 0,-6 1,-5 0,-6 0,-5 1,-6 0,-5 0,-6 0,-5 0,-6 0,-6 0,-7 -2,0 -3,-1 -2,-2 -3,-3 -4,-3 -3,-3 -3,-4 -3,-4 -4,-4 -3,-3 -3,-4 -3,-4 -2,-3 -2,-2 -2,-2 -2,-2 -2,-2 -2,-3 -4,-3 -3,-4 -5,-3 -4,-5 -5,-4 -4,-5 -5,-5 -5,-5 -4,-6 -5,-5 -3,-6 -3,-6 -3,-6 -2,-6 0,-3 0,-4 -1,-3 -1,-3 0,-4 -1,-3 -1,-4 -1,-4 0,-3 -1,-4 -1,-4 0,-3 0,-4 0,-4 1,-4 1,-4 2,2 4,3 5,3 4,4 4,4 3,4 2,4 0,3 -1,-4 0,-5 -2,-4 -1,-4 -2,-4 -2,-4 -3,-3 -2,-3 -3,-4 -3,-3 -2,-3 -3,-4 -2,-3 -2,-4 -2,-4 -2,-4 -1,-5 -2,-6 -1,-6 -1,-7 -1,-7 -1,-8 0,-8 0,-8 0,-8 0,-8 0,-7 0,-7 1,-7 1,-7 1,-5 1,-5 0,-5 1,-4 1,-5 0,-4 1,-5 0,-5 1,-5 1,-5 0,-5 0,-5 1,-6 0,-4 0,-5 0,-5 1,-5 0,-5 3,4 3,4 3,4 3,4 2,3 3,4 2,3 3,2 0,-6 0,-5 0,-6 0,-6 0,-6 0,-6 0,-6 0,-6 0,-7 1,-5 0,-7 0,-6 1,-6 0,-6 1,-6 0,-6 1,-6 1,-6 0,-6 1,-6 1,-6 1,-6 1,-6 2,-6 1,-5 2,-6 1,-5 2,-6 2,-5 2,-5 2,-5 3,-5 0,2 1,1 1,3 1,2 1,2 0,2 1,3 0,2 6,-101 0,1 1,1 1,1 1,1 1,0 1,1 1,0 1,0 2,-2 2,-3 2,-3 1,-4 1,-3 1,-4 1,-4 1,-4 1,-5 1,-4 0,-4 1,-4 0,-4 0,-4 1,-4 0,-3z M212,797 l6,0 5,-1 4,-1 5,-2 5,-3 4,-3 3,-4 4,-3 3,-5 3,-4 2,-5 2,-5 2,-6 1,-5 0,-6 1,-6 -3,0 -2,-1 -3,-2 -2,-2 -2,-2 -2,-1 -2,-2 -1,-1 0,-16 -4,-4 -4,-4 -3,-5 -3,-5 -3,-5 -2,-6 -1,-5 0,-5 -2,2 -2,2 -1,2 -1,2 -1,2 -1,2 -2,2 -1,2 -2,109z M149,639 l-2,0 -1,2 -1,2 -1,3 0,3 0,3 0,4 0,3 -20,0 2,3 2,3 3,3 3,3 2,4 3,3 2,3 3,2 4,6 4,3 3,0 1,-2 1,-3 1,-3 1,-4 1,-2 0,-5 -1,-5 -2,-5 -1,-5 -2,-5 -2,-5 -2,-5 -1,-4z M153,737 l2,-25 -3,-3 -4,-4 -6,-5 -5,-6 -5,-6 -4,-6 -3,-4 -1,-4 0,8 1,7 1,6 1,6 2,5 2,4 2,4 2,4 2,3 2,3 3,2 2,2 2,2 3,2 2,3 2,2z M149,795 l2,-29 -4,-3 -3,-3 -4,-3 -3,-4 -2,-4 -3,-3 -2,-4 -3,-4 -1,-4 -2,-4 -2,-4 -1,-3 -2,-4 -1,-4 -1,-3 -1,-3 -2,9 -2,8 -1,9 0,8 0,8 0,8 2,7 1,6 2,6 3,5 4,5 4,3 5,3 5,1 6,1 6,-1z M217,552 l3,-8 3,-8 3,-8 2,-7 2,-8 2,-7 2,-7 2,-8 1,-7 1,-8 1,-7 1,-8 1,-8 0,-8 0,-9 0,-9 -2,6 -3,5 -3,4 -3,4 -3,4 -4,4 -4,4 -5,4 0,5 0,6 0,5 -1,6 0,6 0,6 0,5 1,6 0,6 0,6 0,6 1,5 0,6 1,6 0,5 1,5z M212,444 l1,-4 0,-4 1,-5 0,-4 1,-4 0,-5 1,-4 0,-5 0,-4 1,-5 0,-4 0,-4 0,-4 0,-4 0,-3 0,-4 1,1 1,2 2,2 2,3 2,3 3,4 2,4 2,5 1,5 1,5 0,5 -2,6 -2,5 -4,6 -6,5 -8,6z " />
<path style="fill:none;stroke:#000;stroke-width:2" d="M120,138 l14,18 11,-23 9,-24 9,-25 9,-25 9,-24 3,-7 6,7 13,25 8,29 6,32 7,30 12,28 0,-17 10,25 -3,30 5,28 4,26 17,-13 6,27 2,33 -1,30 0,5 12,8 -2,79 10,6 7,28 1,27 -11,24 -5,23 4,8 3,3 4,1 12,-9 2,-1 1,30 1,28 1,9 0,10 -2,35 -8,24 -23,22 -11,26 -4,30 -6,27 -21,17 -24,9 -3,0 -2,2 2,34 1,30 2,33 9,28 22,11 34,4 0,11 -195,0 0,-11 30,-5 21,-14 9,-28 3,-30 1,-33 0,-19 -20,-16 -18,-22 -22,-21 -18,-19 -17,-22 -8,-25 -6,-28 1,-23 22,20 2,4 0,3 -8,-25 -18,-23 -10,-29 -3,-30 0,-8 0,-8 0,-8 2,-28 4,-28 3,-30 2,-30 17,23 5,5 0,-29 1,-30 2,-31 3,-30 6,-29 9,-27 5,-10 5,17 6,-101 0,1 7,4 10,-23 4,-29 1,-7" />
<path style="fill:none;stroke:#000;stroke-width:2" d="M212,797 l11,-1 9,-3 9,-6 7,-7 6,-9 4,-10 3,-11 1,-12 -10,-5 -7,-6 0,-16 -8,-8 -6,-10 -5,-11 -1,-10 -6,8 -5,8 -2,109" />
<path style="fill:none;stroke:#000;stroke-width:2" d="M149,639 l-2,0 -1,2 -2,11 0,7 -20,0 7,9 5,7 8,8 8,9 3,0 3,-8 2,-6 -1,-10 -3,-10 -4,-10 -3,-9" />
<path style="fill:none;stroke:#000;stroke-width:2" d="M153,737 l2,-25 -7,-7 -11,-11 -9,-12 -4,-8 1,15 2,12 4,9 4,8 7,8 7,6 4,5" />
<path style="fill:none;stroke:#000;stroke-width:2" d="M149,795 l2,-29 -7,-6 -7,-7 -5,-7 -5,-8 -3,-8 -3,-7 -4,-11 -1,-3 -2,9 -2,8 -1,17 0,16 3,13 5,11 8,8 10,4 6,1 6,-1" />
<path style="fill:none;stroke:#000;stroke-width:2" d="M217,552 l3,-8 3,-8 5,-15 4,-15 4,-15 2,-15 2,-15 1,-16 0,-9 0,-9 -5,11 -6,8 -7,8 -9,8 0,16 -1,6 0,17 1,12 0,12 1,11 1,11 1,5" />
<path style="fill:none;stroke:#000;stroke-width:2" d="M212,444 l2,-13 1,-13 1,-9 1,-9 0,-12 0,-11 6,8 5,7 4,9 2,10 -2,11 -6,11 -6,5 -8,6" />

</svg>
