<?xml version="1.0" encoding="utf-8"?>
<!-- Generator: Adobe Illustrator 16.0.0, SVG Export Plug-In . SVG Version: 6.00 Build 0)  -->
<!DOCTYPE svg PUBLIC "-//W3C//DTD SVG 1.1//EN" "http://www.w3.org/Graphics/SVG/1.1/DTD/svg11.dtd">
<svg version="1.1" id="图层_1" xmlns="http://www.w3.org/2000/svg" preserveAspectRatio="none" xmlns:xlink="http://www.w3.org/1999/xlink" x="0px" y="0px"
	 width="100px" height="100px" viewBox="0 0 100 100" enable-background="new 0 0 100 100" xml:space="preserve">
<g>
	<ellipse fill="#C5C1AE" cx="50.083" cy="71.159" rx="50.083" ry="10.856"/>
	<g>
		<path fill="#ADC33B" d="M10.036,71.157c0,0-12.899-7.81-5.091-22.56c7.81-14.75,22.995-3.037,22.995-3.037
			s5.903-31.67,39.61-25.596c33.708,6.074,21.561,51.193,21.561,51.193H10.036z"/>
		<path fill="#CAD948" d="M10.036,53.768c5.542-6.081,19.656-1.158,19.656-1.158s6.292-18.243,15.923-22.586
			c9.631-4.343,26.105-8.394,35.69,4.343c6.836,9.083,8.974,20.082,9.638,25.644c1.241-13.777-0.494-35.92-23.394-40.046
			c-33.707-6.074-39.61,25.596-39.61,25.596S12.755,33.848,4.945,48.598c-7.808,14.75,5.091,22.56,5.091,22.56
			S4.494,59.848,10.036,53.768z"/>
	</g>
</g>
</svg>
