 

<svg xmlns:agg="http://www.example.com" xmlns="http://www.w3.org/2000/svg" preserveAspectRatio="none" width="1.5436in" height="1.0750in" viewBox="0 0 975 679">

<path style="fill:#a6794d;stroke:#000;stroke-width:2" d="M406,244 l-3,-11 -21,-20 -27,-20 -26,-18 -20,-16 -17,-18 -19,-16 -22,-12 -24,-7 -26,4 -24,13 -22,11 -29,4 -33,-3 -32,-4 -26,-5 -6,-5 -1,-3 -1,-3 0,-2 3,-2 30,-3 25,-10 19,-17 17,-20 27,-23 25,-10 8,-1 6,0 26,8 23,15 25,19 25,18 26,12 28,6 34,-6 23,-8 26,-9 28,-12 26,-10 30,-12 27,-8 30,-4 31,-1 27,3 28,7 28,9 29,12 30,14 31,16 31,17 26,16 27,16 24,11 29,10 25,6 9,1 9,2 -5,2 -27,11 -21,13 -24,15 -24,13 -9,3 -27,0 -35,-4 -32,-3 -32,-3 -18,0 -9,4 1,27 2,12 1,0 30,5 9,1 26,-2 27,1 12,23 26,8 7,5 -29,-2 -29,-3 -26,-6 -27,-5 -29,-3 -22,4 -19,20 -18,21 -15,24 -14,25 -13,26 -13,25 -13,26 -12,25 -13,23 -13,21 -22,25 -7,6 -19,15 -36,27 -36,24 -34,20 -17,8 4,-5 14,-24 10,-22 9,-24 7,-23 8,-30 4,-27 0,-253z" />

</svg>
