 

<svg xmlns:agg="http://www.example.com" xmlns="http://www.w3.org/2000/svg" preserveAspectRatio="none" width="1.6083in" height="0.5973in" viewBox="0 0 999 371">

<path style="fill:#7f7f7f;stroke:#000;stroke-width:2" d="M778,288 l-53,5 -39,-15 92,0 0,10z" />
<path style="fill:#f00;stroke:#000;stroke-width:2" d="M921,303 l49,0 0,-19 -9,-6 4,-5 -4,-68 -89,-10 -15,-58 -68,0 -5,58 0,65 -245,0 0,18 382,0 0,25z" />
<path style="fill:#000;stroke:#000;stroke-width:2" d="M863,195 l-11,-49 -59,0 0,49 70,0z" />
<path style="fill:#000" d="M597,248 l0,12 70,0 0,-12 -70,0z" />
<path style="fill:#ccc;stroke:#000;stroke-width:2" d="M765,67 l0,193 9,0 0,-193 -9,-9 -6,5 6,4z" />
<path style="fill:#ccc;stroke:#000;stroke-width:2" d="M759,150 l0,95 19,0 0,-95 -19,0z" />
<path style="fill:#000;stroke:#000;stroke-width:2" d="M254,260 l-207,0 0,9 207,0 0,-9z" />
<path style="fill:#fff;stroke:#000;stroke-width:2" d="M254,260 l-207,0 0,-12 207,0 0,12z" />
<path style="fill:#7f0000" d="M961,303 l-10,-43 -48,0 -21,13 0,5 9,0 70,25z" />
<circle style="fill:#000" cx="921" cy="303" r="39" />
<circle style="fill:#000" cx="685" cy="303" r="39" />
<circle style="fill:#000" cx="587" cy="303" r="39" />
<circle style="fill:#000" cx="205" cy="303" r="40" />
<ellipse style="fill:#000" cx="96" cy="303" rx="38" ry="40" />
<circle style="fill:#ccc" cx="921" cy="303" r="18" />
<circle style="fill:#ccc" cx="686" cy="303" r="19" />
<circle style="fill:#ccc" cx="588" cy="303" r="19" />
<circle style="fill:#ccc" cx="204" cy="303" r="20" />
<circle style="fill:#ccc" cx="96" cy="303" r="19" />
<path style="fill:#fff;stroke:#000;stroke-width:2" d="M852,284 l30,0 0,-11 21,-13 52,0 0,-25 -64,0 -24,10 -15,24 0,15z" />
<path style="fill:#fff;stroke:#000;stroke-width:2" d="M778,263 l0,30 70,0 0,-30 -70,0z" />
<path style="fill:#e5e5e5;stroke:#000;stroke-width:2" d="M676,248 l-639,0 0,-18 639,0 0,18z" />
<path style="fill:#000;stroke:#000;stroke-width:2" d="M47,260 l-19,0 0,33 9,0 0,-33 10,0z" />
<path style="fill:#b2b2b2;stroke:#000;stroke-width:2" d="M371,322 l-15,0 0,-74 15,0 0,74z" />
<path style="fill:#000" d="M373,293 l0,-9 37,-36 12,0 -49,45z" />
<path style="fill:#b2b2b2;stroke:#000;stroke-width:2" d="M359,327 l-3,-3 3,-6 8,0 4,6 -4,3 -8,0z" />
<path style="fill:#fff;stroke:#000;stroke-width:2" d="M37,28 l0,196 658,0 0,-196 -658,0z" />

</svg>
