 

<svg xmlns:agg="http://www.example.com" xmlns="http://www.w3.org/2000/svg" preserveAspectRatio="none" width="0.9749in" height="1.0750in" viewBox="0 0 906 999">

<path style="fill:#f00" d="M291,678 l-73,51 -49,61 -62,36 -49,35 -23,61 -8,47 851,-2 0,-141 -73,-63 -47,-43 -84,-51 -62,-19 -321,28z" />
<path style="fill:#4c1900" d="M220,410 l-21,-111 -22,-38 0,-56 20,-32 17,-59 49,-36 8,-11 70,-30 11,9 34,-19 43,12 17,21 38,1 53,63 20,9 6,23 19,22 13,68 -9,60 -36,57 -9,25 -321,22z" />
<path style="fill:#e5b27f" d="M352,820 l62,-55 89,-76 42,-67 -6,-310 -17,-77 -44,-45 -71,7 -65,-28 -43,15 -38,26 -22,-11 -19,41 -10,76 14,106 7,81 32,72 36,47 10,70 0,66 43,62z" />
<path style="fill:#fc9" d="M331,450 l-4,-32 6,-53 -17,-23 -45,-13 -13,-64 3,-53 80,-35 41,32 59,9 26,47 0,51 -15,13 -49,-2 -30,12 -17,26 -2,53 7,13 -4,19 -15,6 -11,-6z" />
<path style="fill:#7f4c19" d="M261,580 l33,43 28,27 47,21 49,-6 62,-38 42,-75 19,-57 1,-134 -3,-67 -14,-55 -31,-30 28,73 -21,-2 34,44 -4,175 -43,87 -30,36 -42,28 -55,4 46,-13 -61,0 -85,-61z" />
<path style="fill:#d9a6a6" d="M295,518 l23,28 24,6 38,-2 27,-13 22,-27 -51,-11 -15,0 -13,2 -19,-2 -15,4 -21,15z" />
<path style="fill:#966" d="M318,512 l28,-3 10,3 9,-3 45,0 15,1 -17,14 -22,7 -21,6 -28,0 -23,-8 -17,-13 21,-4z" />
<path style="fill:#002626" d="M316,514 l30,-2 8,2 11,-2 43,0 17,-2 -17,10 -22,9 -19,6 -26,0 -27,-8 -17,-11 19,-2z" />
<path style="fill:#366" d="M316,514 l30,-2 8,2 11,-2 43,0 0,8 -22,9 -19,6 -26,0 -27,-8 2,-13z" />
<path style="fill:#999" d="M390,525 l7,0 2,-1 0,-4 0,-2 0,-4 -2,-2 -7,0 0,13z" />
<path style="fill:#999" d="M329,529 l-7,0 -2,-2 -2,-3 0,-4 2,-4 2,-2 7,0 0,15z" />
<path style="fill:#b2b2b2" d="M337,531 l-8,0 -3,-2 0,-4 0,-5 0,-4 3,-2 8,0 0,17z" />
<path style="fill:#b2b2b2" d="M371,529 l7,0 4,-2 0,-3 0,-4 0,-4 -4,-2 -7,0 0,15z" />
<circle style="fill:#ccc" cx="344" cy="523" r="9" />
<circle style="fill:#ccc" cx="361" cy="523" r="9" />
<path style="fill:#b2b2b2" d="M382,527 l8,0 2,-2 0,-3 0,-4 0,-2 -2,-2 -8,0 0,13z" />
<path style="fill:#e5b27f" d="M545,480 l-4,-92 7,-25 17,-24 11,-4 14,13 3,32 -22,94 -17,10 -9,-4z" />
<path style="fill:#260000" d="M541,367 l-4,-68 -30,-75 -17,-38 -34,-28 -4,-23 -19,-8 -47,35 -23,-35 -54,23 -33,-26 27,-10 -19,-15 76,-24 18,13 0,-30 14,51 45,7 34,21 54,32 20,51 28,4 -31,-70 -79,-55 51,19 2,-15 38,26 9,27 19,17 13,64 -13,77 -36,27 -5,26z" />
<path style="fill:#e5e5e5" d="M348,822 l151,-130 46,-72 -3,-40 14,-5 15,7 47,60 -2,29 -79,109 -61,89 -28,-34 0,-36 -25,-34 -46,38 -29,19z" />
<path style="fill:none;stroke:#000;stroke-width:2" d="M350,822 l0,32 -19,62 -9,53" />
<path style="fill:#7f0000" d="M137,971 l4,-36 -12,36 8,0z" />
<path style="fill:#7f0000" d="M641,971 l-19,-53 43,53 2,-57 -8,-66 15,-34 2,64 12,47 9,-43 -4,89 34,0 66,-57 23,-75 -8,79 -64,53 -103,0z" />
<path style="fill:#7f0000" d="M580,971 l11,-114 36,-120 6,-51 -2,72 -30,113 -21,100z" />
<path style="fill:#7f0000" d="M348,822 l77,-29 6,29 17,28 28,19 -28,-34 0,-36 -25,-34 -46,38 -29,19z" />
<path style="fill:#7f0000" d="M346,871 l-20,-40 -40,-25 -83,33 51,-57 37,-2 53,49 6,8 -4,34z" />
<path style="fill:#ccc" d="M348,842 l-60,-54 -27,-2 -56,56 89,-179 3,-4 8,15 4,80 20,41 21,25 -2,22z" />
<path style="fill:#000" d="M342,971 l0,-13 8,-8 13,0 8,8 0,13 -29,0z" />
<path style="fill:#b27f4c;fill-rule:evenodd" d="M486,346 l-53,0 -45,4 -6,-2 0,-9 34,-8 49,4 21,11z M380,369 l23,-12 28,-3 30,6 15,11 -20,-8 -27,-6 -28,4 -21,8z M386,378 l13,-9 17,-8 21,0 37,14 -11,0 -7,3 -36,6 -28,-6 -6,0z M305,539 l11,28 30,13 44,-9 17,-15 -57,7 -28,-7 -17,-17z M239,395 l21,8 20,-6 -13,0 -19,-5 4,-10 23,4 35,-6 10,0 -36,36 19,-13 15,-17 0,30 -19,30 -9,27 5,1 -13,36 12,-13 1,15 4,-22 21,-8 34,-2 9,-9 19,0 10,-6 7,-13 34,38 4,17 -8,3 10,2 2,21 5,-24 -3,-19 -33,-36 -13,-10 -9,19 -6,0 -15,-2 -15,12 -19,1 -11,-11 -4,-19 -2,19 -7,4 -10,-9 6,-15 11,-10 8,-17 5,-45 -24,-23 -51,-13 -19,2 -10,-59 14,-53 15,-15 -11,-11 -27,36 -7,64 1,36 4,26 8,64 0,51 18,65 21,39 65,58 22,6 53,-2 -44,12 59,-2 43,-29 31,-39 39,-79 10,-40 -2,-55 -2,-84 -8,45 -26,60 4,102 -53,81 -40,23 31,-29 -40,25 -51,5 -40,-24 -37,-39 -23,-48 -17,-37 -4,-49 8,-42 -10,8 -4,-30 15,0 -1,-14 5,-7 16,-4 22,4 23,7 15,10 -29,-10 -20,0 -28,10 -4,22z M584,384 l4,-17 -6,-23 -13,6 -27,40 -1,47 0,45 13,6 19,-10 9,-35 9,-53 -22,84 -15,6 -8,-4 0,-15 8,6 3,9 0,-13 -11,-11 0,-51 8,7 0,15 9,16 10,-14 -8,-17 -19,-16 6,-4 5,4 3,-8 -4,-6 9,-11 13,36 -2,22 -11,14 0,5 -8,8 12,-2 2,-9 7,-12 6,-36 -9,-33 5,0 4,24z " />
<path style="fill:#999" d="M393,377 l25,5 40,-5 -23,-14 -21,0 -21,14z" />
<path style="fill:#999" d="M254,380 l21,4 35,-4 -19,-13 -16,0 -21,13z" />
<path style="fill:#ccc" d="M399,375 l21,5 32,-3 -19,-12 -17,0 -17,10z" />
<path style="fill:#ccc" d="M261,380 l15,2 27,-4 -15,-9 -12,0 -15,11z" />
<path style="fill:#366" d="M414,375 l6,7 21,-4 3,-9 -7,-6 -21,0 -2,12z" />
<path style="fill:#366" d="M267,377 l8,7 16,-2 4,-7 -4,-8 -16,0 -8,10z" />
<path style="fill:#191919" d="M423,373 l2,4 8,-2 4,-4 -6,-2 -8,0 0,4z" />
<path style="fill:#191919" d="M276,377 l4,1 6,0 0,-3 0,-2 -6,0 -4,4z" />
<path style="fill:#630" d="M367,467 l4,-2 15,0 -8,4 -11,-2z" />
<path style="fill:#630" d="M329,474 l-9,-7 -11,2 7,5 13,0z" />
<path style="fill:#630" d="M480,626 l36,-33 23,-64 3,98 4,-5 -4,-157 -20,83 -42,78z" />
<path style="fill:#630" d="M352,820 l-19,-45 -17,-23 -6,-57 36,32 31,8 -35,-32 -11,-32 34,7 55,-13 -79,-11 -47,-34 0,21 9,35 3,82 20,37 26,25z" />
<path style="fill:#b2b2b2" d="M473,829 l-4,-30 77,-85 30,-76 6,40 -40,66 -69,85z" />
<path style="fill:none;stroke:#000;stroke-width:2" d="M591,380 l-7,53 -11,45 -17,8 -15,-4 4,98 9,-5 19,9 43,58 0,10 58,17 84,51 47,43 73,63 0,141 -851,2 8,-47 23,-61 49,-35 62,-36 49,-61 66,-47 13,-26 -3,-33 -33,-43 -22,-45 -17,-61 0,-58 -23,-119 -22,-37 0,-55 20,-32 17,-57 47,-36 10,-13 70,-30 9,9 34,-19 44,12 16,21 38,3 43,48 29,18 7,27 19,18 15,66 -11,69 -19,28 11,0 14,11 1,32" />
<path style="fill:none;stroke:#000;stroke-width:2" d="M458,377 l-23,-14 -21,0 -21,14" />
<path style="fill:none;stroke:#000;stroke-width:2" d="M310,380 l-19,-13 -16,0 -21,13" />

</svg>
