 

<svg xmlns:agg="http://www.example.com" xmlns="http://www.w3.org/2000/svg" preserveAspectRatio="none" width="0.7823in" height="1.0750in" viewBox="0 0 727 999">

<path style="fill:#000" d="M282,52 l0,-8 162,0 0,8 -162,0z" />
<path style="fill:#666;stroke:#000;stroke-width:2" d="M271,44 l6,-17 173,0 6,17 -185,0z" />
<path style="fill:#666;stroke:#000;stroke-width:2" d="M259,69 l12,-17 185,0 13,17 -210,0z" />
<path style="fill:#787878" d="M282,44 l6,-17 153,0 5,17 -164,0z" />
<path style="fill:#787878" d="M273,67 l9,-17 164,0 10,17 -183,0z" />
<path style="fill:#8c8c8c" d="M293,44 l4,-17 134,0 4,17 -142,0z" />
<path style="fill:#8c8c8c" d="M284,67 l9,-17 142,0 9,17 -160,0z" />
<path style="fill:#9e9e9e" d="M305,44 l3,-17 112,0 4,17 -119,0z" />
<path style="fill:#9e9e9e" d="M297,67 l8,-17 119,0 7,17 -134,0z" />
<path style="fill:#b2b2b2" d="M316,44 l2,-17 92,0 2,17 -96,0z" />
<path style="fill:#b2b2b2" d="M308,67 l8,-17 96,0 8,17 -112,0z" />
<path style="fill:#c4c4c4" d="M327,44 l2,-17 70,0 2,17 -74,0z" />
<path style="fill:#c4c4c4" d="M322,67 l5,-17 74,0 5,17 -84,0z" />
<path style="fill:#d9d9d9" d="M337,44 l2,-17 51,0 1,17 -54,0z" />
<path style="fill:#d9d9d9" d="M335,67 l2,-17 54,0 4,17 -60,0z" />
<path style="fill:#ebebeb" d="M348,44 l2,-17 28,0 2,17 -32,0z" />
<path style="fill:#ebebeb" d="M346,67 l2,-17 32,0 2,17 -36,0z" />
<path style="fill:#fff" d="M359,44 l0,-17 10,0 0,17 -10,0z" />
<path style="fill:#fff" d="M358,69 l1,-17 10,0 0,17 -11,0z" />
<path style="fill:#b2b2b2" d="M50,137 l-23,-15 0,-15 23,-15 45,-14 63,-9 77,-7 85,-4 89,0 84,4 78,7 60,9 45,14 23,15 0,15 -23,15 -626,0z" />
<path style="fill:#bdbdbd" d="M67,114 l0,-15 21,-11 39,-11 55,-10 68,-8 75,-3 78,0 75,3 68,8 55,10 39,11 21,11 0,15 -594,0z" />
<path style="fill:#c4c4c4" d="M107,105 l0,-11 17,-12 34,-9 47,-8 60,-6 66,-3 66,0 66,3 59,6 49,8 33,9 18,12 0,11 -515,0z" />
<path style="fill:#cfcfcf" d="M144,97 l2,-9 14,-10 30,-7 39,-8 51,-4 55,-3 59,0 54,3 51,4 39,8 29,7 15,10 0,9 -438,0z" />
<path style="fill:#d9d9d9" d="M184,90 l0,-8 13,-8 23,-7 34,-5 41,-4 45,-2 48,0 45,2 42,4 32,5 24,7 11,8 0,8 -358,0z" />
<path style="fill:#e3e3e3" d="M223,80 l0,-6 10,-5 19,-4 26,-3 32,-4 36,-2 36,0 36,2 32,4 26,3 19,4 10,5 0,6 -282,0z" />
<path style="fill:#ebebeb" d="M263,73 l0,-4 6,-4 13,-3 19,-3 24,-1 25,-2 26,0 27,2 22,1 19,3 13,3 8,4 0,4 -202,0z" />
<path style="fill:#f5f5f5" d="M307,137 l-6,-72 0,-2 6,-1 7,-3 11,-1 15,0 15,-2 18,0 15,2 15,0 11,1 7,3 4,1 0,2 -4,72 -114,0z" />
<path style="fill:#fff" d="M343,137 l-3,-79 3,-2 1,2 6,0 4,-2 7,2 6,0 6,-2 5,2 4,0 4,-2 2,2 -2,79 -43,0z" />
<path style="fill:none;stroke:#000;stroke-width:2" d="M50,137 l-23,-15 0,-15 23,-15 45,-14 63,-9 77,-7 85,-4 89,0 84,4 78,7 60,9 45,14 23,15 0,15 -23,15 -626,0" />
<path style="fill:#333" d="M27,508 l12,0 0,68 -12,0 0,-68z" />
<path style="fill:#4c4c4c" d="M471,967 l-70,4 -74,0 -71,-4 -63,-6 -51,-7 -37,-12 -19,-11 23,-262 509,0 22,262 -18,11 -36,12 -53,7 -62,6z" />
<path style="fill:#595959" d="M463,967 l-66,4 -66,0 -66,-4 -58,-6 -47,-7 -35,-10 -18,-11 22,-264 470,0 21,264 -17,11 -34,10 -47,7 -59,6z" />
<path style="fill:#666" d="M454,967 l-59,4 -62,0 -60,-4 -53,-4 -44,-8 -32,-9 -15,-10 19,-267 432,0 19,267 -15,10 -32,9 -44,8 -54,4z" />
<path style="fill:#737373" d="M446,967 l-55,4 -56,0 -53,-4 -49,-4 -40,-6 -28,-9 -15,-8 17,-271 392,0 19,271 -15,8 -28,9 -40,6 -49,4z" />
<path style="fill:#7f7f7f" d="M439,969 l-49,2 -51,0 -50,-2 -43,-6 -36,-4 -26,-8 -13,-9 17,-273 352,0 16,273 -12,9 -26,8 -36,4 -43,6z" />
<path style="fill:#8c8c8c" d="M431,969 l-45,2 -46,0 -43,-2 -38,-4 -32,-6 -22,-5 -12,-8 14,-277 315,0 13,277 -12,8 -22,5 -32,6 -38,4z" />
<path style="fill:#999" d="M421,969 l-37,2 -40,0 -37,-2 -34,-4 -29,-4 -21,-6 -9,-5 12,-281 275,0 13,281 -9,5 -21,6 -28,4 -35,4z" />
<path style="fill:#a6a6a6" d="M414,969 l-34,2 -34,0 -32,-2 -30,-2 -23,-4 -17,-4 -9,-5 11,-285 236,0 11,285 -9,5 -17,4 -25,4 -28,2z" />
<path style="fill:#b2b2b2" d="M405,969 l-27,2 -28,0 -28,-2 -25,-2 -19,-2 -15,-4 -7,-4 9,-288 198,0 9,288 -7,4 -15,4 -19,2 -26,2z" />
<path style="fill:#bfbfbf" d="M397,969 l-23,2 -22,0 -21,-2 -21,0 -15,-4 -11,-2 -7,-2 7,-292 160,0 6,292 -6,2 -11,2 -17,4 -19,0z" />
<path style="fill:#ccc" d="M390,971 l-17,0 -18,0 -16,0 -15,-2 -12,-2 -9,-2 -4,-2 6,-294 119,0 5,294 -4,2 -9,2 -11,2 -15,2z" />
<path style="fill:#d9d9d9" d="M380,971 l-9,0 -13,0 -12,0 -9,-2 -8,0 -5,0 -4,-2 4,-298 81,0 4,298 -4,2 -6,0 -8,0 -11,2z" />
<path style="fill:#e5e5e5" d="M373,971 l-6,0 -6,0 -6,0 -5,0 -6,0 -1,0 -3,0 3,-302 41,0 2,302 -4,0 -4,0 -5,0z" />
<path style="fill:none;stroke:#000;stroke-width:2" d="M471,967 l-70,4 -74,0 -71,-4 -63,-6 -51,-7 -37,-12 -19,-11 23,-262 509,0 22,262 -18,11 -36,12 -53,7 -62,6" />
<path style="fill:none;stroke:#4c4c4c;stroke-width:2" d="M640,906 l-18,14 -36,9 -53,10 -62,5 -70,4 -74,0 -71,-4 -63,-5 -51,-10 -37,-9 -19,-14" />
<path style="fill:#4c4c4c" d="M488,690 l-82,3 -84,0 -83,-3 -74,-6 -60,-10 -44,-9 -20,-11 0,-545 20,-12 44,-11 60,-8 74,-7 83,-2 84,0 82,2 75,7 59,8 43,11 22,12 0,545 -22,11 -41,9 -63,10 -73,6z" />
<path style="fill:#595959" d="M478,690 l-75,3 -78,0 -77,-3 -68,-6 -55,-8 -39,-9 -21,-12 0,-550 21,-11 39,-10 55,-7 68,-6 77,-4 78,0 75,4 70,6 55,7 39,10 21,11 0,550 -21,12 -39,9 -55,8 -70,6z" />
<path style="fill:#666" d="M469,690 l-70,3 -72,0 -69,-3 -61,-4 -53,-8 -35,-9 -19,-10 0,-558 19,-9 35,-10 51,-5 63,-6 69,-4 72,0 70,4 64,6 49,5 38,10 17,9 0,558 -17,10 -36,9 -53,8 -62,4z" />
<path style="fill:#737373" d="M459,690 l-62,3 -66,0 -62,-3 -57,-4 -47,-6 -32,-9 -17,-8 0,-566 17,-7 32,-10 45,-6 59,-3 62,-4 66,0 62,4 57,3 47,6 32,10 17,7 0,566 -17,8 -32,9 -47,6 -57,4z" />
<path style="fill:#7f7f7f" d="M450,690 l-56,3 -59,0 -57,-3 -51,-4 -41,-6 -30,-6 -15,-7 0,-572 15,-9 30,-6 40,-6 52,-3 57,-4 59,0 56,4 51,3 41,6 31,6 15,9 0,572 -15,7 -31,6 -41,6 -51,4z" />
<path style="fill:#8c8c8c" d="M441,691 l-51,2 -51,0 -51,-2 -46,-3 -37,-6 -27,-6 -13,-7 0,-577 13,-8 27,-6 37,-5 46,-4 51,-2 51,0 51,2 45,4 37,5 27,6 13,8 0,577 -13,7 -27,6 -37,6 -45,3z" />
<path style="fill:#999" d="M431,691 l-45,2 -46,0 -43,-2 -39,-3 -32,-4 -23,-6 -13,-5 0,-585 13,-6 23,-5 32,-4 39,-4 43,-2 46,0 45,2 40,4 32,4 22,5 12,6 0,585 -12,5 -22,6 -32,4 -40,3z" />
<path style="fill:#a6a6a6" d="M421,691 l-37,2 -40,0 -37,-2 -34,-1 -29,-4 -18,-6 -10,-4 0,-592 10,-4 20,-6 27,-3 34,-2 37,-2 40,0 37,2 35,2 26,3 21,6 9,4 0,592 -9,4 -21,6 -26,4 -35,1z" />
<path style="fill:#b2b2b2" d="M412,691 l-32,2 -32,0 -32,-2 -28,-1 -23,-4 -17,-2 -7,-4 0,-600 7,-3 17,-3 23,-3 28,-2 32,-2 32,0 32,2 29,2 22,3 15,3 10,3 0,600 -10,4 -15,2 -22,4 -29,1z" />
<path style="fill:#bfbfbf" d="M401,691 l-25,2 -24,0 -27,-2 -22,-1 -17,-2 -13,-2 -8,-2 0,-606 8,-4 13,-1 17,-2 22,-2 27,-2 24,0 25,2 24,2 17,2 14,1 7,4 0,606 -7,2 -14,2 -18,2 -23,1z" />
<path style="fill:#ccc" d="M391,691 l-17,2 -20,0 -19,-2 -17,0 -13,-1 -10,-2 -3,-2 0,-612 3,-1 10,-2 13,-2 17,0 19,-2 20,0 17,2 18,0 15,2 9,2 4,1 0,612 -4,2 -9,2 -15,1 -18,0z" />
<path style="fill:#d9d9d9" d="M382,691 l-11,2 -13,0 -12,-2 -11,0 -10,0 -7,-1 -2,0 0,-619 2,0 7,-2 10,0 11,0 12,-2 13,0 11,2 12,0 9,0 6,2 3,0 0,619 -3,0 -6,1 -9,0 -12,0z" />
<path style="fill:#e5e5e5" d="M373,693 l-6,0 -6,0 -7,0 -4,0 -6,0 -1,0 -3,0 0,-624 3,0 1,0 6,0 4,0 7,0 6,0 6,0 5,0 4,0 4,0 2,0 0,624 -2,0 -4,0 -4,0 -5,0z" />
<path style="fill:none;stroke:#000;stroke-width:2" d="M488,690 l-82,3 -84,0 -83,-3 -74,-6 -60,-10 -44,-9 -20,-11 0,-545 20,-12 44,-11 60,-8 74,-7 83,-2 84,0 82,2 75,7 59,8 43,11 22,12 0,545 -22,11 -41,9 -63,10 -73,6" />
<path style="fill:none;stroke:#fff;stroke-width:2" d="M324,271 l0,-40 81,0" />
<path style="fill:none;stroke:#7f7f7f;stroke-width:2" d="M324,271 l81,0 0,-40" />
<path style="fill:#999" d="M352,554 l22,0 0,92 -22,0 0,-92z" />
<path style="fill:none;stroke:#fff;stroke-width:2" d="M271,936 l0,-150 185,0" />
<path style="fill:none;stroke:#7f7f7f;stroke-width:2" d="M271,936 l185,0 0,-150" />
<path style="fill:#4c4c4c" d="M503,693 l11,249 34,17 -34,-266 -11,0z" />
<path style="fill:#4c4c4c" d="M226,693 l-12,249 -36,17 36,-266 12,0z" />
<path style="fill:#fff" d="M335,797 l59,0 0,23 -59,0 0,-23z" />
<path style="fill:#333" d="M601,682 l23,236 24,13 -30,-255 -17,6z" />
<path style="fill:#333" d="M133,682 l-24,236 -23,13 28,-255 19,6z" />

</svg>
