 

<svg xmlns:agg="http://www.example.com" xmlns="http://www.w3.org/2000/svg" preserveAspectRatio="none" width="1.0147in" height="1.0750in" viewBox="0 0 943 999">

<path style="fill:#9cc" d="M914,104 l-810,0 0,866 810,0 0,-866z" />
<path style="fill:#94c7c7" d="M914,719 l-810,-362 0,613 810,0 0,-251z" />
<path style="fill:#8fc2c2" d="M914,755 l-810,-362 0,577 810,0 0,-215z" />
<path style="fill:#8abdbd" d="M914,808 l-810,-361 0,523 810,0 0,-162z" />
<path style="fill:none;stroke:#000;stroke-width:2" d="M914,104 l-810,0 0,866 810,0 0,-866" />
<path style="fill:#9cc;stroke:#000;stroke-width:2" d="M914,104 l-810,0 -76,-76 810,0 76,76z" />
<path style="fill:#699;stroke:#000;stroke-width:2" d="M28,28 l76,76 0,866 -76,-76 0,-866z" />
<path style="fill:#000" d="M241,559 l-61,0 -7,6 0,88 7,4 61,0 6,-4 0,-88 -6,-6z" />
<path style="fill:#217f21" d="M236,573 l-50,0 0,72 50,0 0,-72z" />
<path style="fill:#0f0" d="M236,573 l-50,0 0,34 50,0 0,-34z" />
<path style="fill:#000" d="M287,413 l-149,0 0,66 149,0 0,-66z" />
<path style="fill:#f60" d="M277,419 l-129,0 0,54 129,0 0,-54z" />
<path style="fill:#0f0" d="M277,419 l-41,0 0,54 41,0 0,-54z" />
<path style="fill:#f00" d="M190,419 l-42,0 0,54 42,0 0,-54z" />
<path style="fill:#ff0;stroke:#000;stroke-width:2" d="M637,234 l-22,-30 -90,28 14,15 -86,26 10,12 -80,32 106,-14 -10,-12 98,-26 -14,-16 74,-15z" />
<path style="fill:#7f7f7f;stroke:#000;stroke-width:2" d="M92,395 l-54,-54 0,392 54,53 0,-391z" />
<path style="fill:none;stroke:#fff;stroke-width:2" d="M723,361 l0,-205 -424,0" />
<path style="fill:none;stroke:#699;stroke-width:2" d="M723,361 l-424,0 0,-205" />
<path style="fill:none;stroke:#fff;stroke-width:2" d="M805,575 l0,-152 -22,0" />
<path style="fill:none;stroke:#699;stroke-width:2" d="M805,575 l-22,0 0,-152" />
<path style="fill:none;stroke:#fff;stroke-width:2" d="M769,575 l0,-152 -22,0" />
<path style="fill:none;stroke:#699;stroke-width:2" d="M769,575 l-22,0 0,-152" />
<path style="fill:none;stroke:#fff;stroke-width:2" d="M733,575 l0,-152 -22,0" />
<path style="fill:none;stroke:#699;stroke-width:2" d="M733,575 l-22,0 0,-152" />
<path style="fill:none;stroke:#fff;stroke-width:2" d="M699,575 l0,-152 -22,0" />
<path style="fill:none;stroke:#699;stroke-width:2" d="M699,575 l-22,0 0,-152" />
<path style="fill:none;stroke:#fff;stroke-width:2" d="M663,575 l0,-152 -22,0" />
<path style="fill:none;stroke:#699;stroke-width:2" d="M663,575 l-22,0 0,-152" />
<path style="fill:none;stroke:#fff;stroke-width:2" d="M627,575 l0,-152 -22,0" />
<path style="fill:none;stroke:#699;stroke-width:2" d="M627,575 l-22,0 0,-152" />
<path style="fill:none;stroke:#fff;stroke-width:2" d="M591,575 l0,-152 -22,0" />
<path style="fill:none;stroke:#699;stroke-width:2" d="M591,575 l-22,0 0,-152" />
<path style="fill:none;stroke:#fff;stroke-width:2" d="M555,575 l0,-152 -22,0" />
<path style="fill:none;stroke:#699;stroke-width:2" d="M555,575 l-22,0 0,-152" />
<path style="fill:none;stroke:#fff;stroke-width:2" d="M521,575 l0,-152 -22,0" />
<path style="fill:none;stroke:#699;stroke-width:2" d="M521,575 l-22,0 0,-152" />
<path style="fill:none;stroke:#fff;stroke-width:2" d="M485,575 l0,-152 -22,0" />
<path style="fill:none;stroke:#699;stroke-width:2" d="M485,575 l-22,0 0,-152" />
<path style="fill:none;stroke:#fff;stroke-width:2" d="M449,575 l0,-152 -22,0" />
<path style="fill:none;stroke:#699;stroke-width:2" d="M449,575 l-22,0 0,-152" />
<path style="fill:none;stroke:#fff;stroke-width:2" d="M413,575 l0,-152 -22,0" />
<path style="fill:none;stroke:#699;stroke-width:2" d="M413,575 l-22,0 0,-152" />
<path style="fill:none;stroke:#fff;stroke-width:2" d="M805,759 l0,-152 -22,0" />
<path style="fill:none;stroke:#699;stroke-width:2" d="M805,759 l-22,0 0,-152" />
<path style="fill:none;stroke:#fff;stroke-width:2" d="M769,759 l0,-152 -22,0" />
<path style="fill:none;stroke:#699;stroke-width:2" d="M769,759 l-22,0 0,-152" />
<path style="fill:none;stroke:#fff;stroke-width:2" d="M733,759 l0,-152 -22,0" />
<path style="fill:none;stroke:#699;stroke-width:2" d="M733,759 l-22,0 0,-152" />
<path style="fill:none;stroke:#fff;stroke-width:2" d="M699,759 l0,-152 -22,0" />
<path style="fill:none;stroke:#699;stroke-width:2" d="M699,759 l-22,0 0,-152" />
<path style="fill:none;stroke:#fff;stroke-width:2" d="M663,759 l0,-152 -22,0" />
<path style="fill:none;stroke:#699;stroke-width:2" d="M663,759 l-22,0 0,-152" />
<path style="fill:none;stroke:#fff;stroke-width:2" d="M627,759 l0,-152 -22,0" />
<path style="fill:none;stroke:#699;stroke-width:2" d="M627,759 l-22,0 0,-152" />
<path style="fill:none;stroke:#fff;stroke-width:2" d="M591,759 l0,-152 -22,0" />
<path style="fill:none;stroke:#699;stroke-width:2" d="M591,759 l-22,0 0,-152" />
<path style="fill:none;stroke:#fff;stroke-width:2" d="M555,759 l0,-152 -22,0" />
<path style="fill:none;stroke:#699;stroke-width:2" d="M555,759 l-22,0 0,-152" />
<path style="fill:none;stroke:#fff;stroke-width:2" d="M521,759 l0,-152 -22,0" />
<path style="fill:none;stroke:#699;stroke-width:2" d="M521,759 l-22,0 0,-152" />
<path style="fill:none;stroke:#fff;stroke-width:2" d="M485,759 l0,-152 -22,0" />
<path style="fill:none;stroke:#699;stroke-width:2" d="M485,759 l-22,0 0,-152" />
<path style="fill:none;stroke:#fff;stroke-width:2" d="M449,759 l0,-152 -22,0" />
<path style="fill:none;stroke:#699;stroke-width:2" d="M449,759 l-22,0 0,-152" />
<path style="fill:none;stroke:#fff;stroke-width:2" d="M413,759 l0,-152 -22,0" />
<path style="fill:none;stroke:#699;stroke-width:2" d="M413,759 l-22,0 0,-152" />

</svg>
