 

<svg xmlns:agg="http://www.example.com" xmlns="http://www.w3.org/2000/svg" preserveAspectRatio="none" width="1.1853in" height="1.0750in" viewBox="0 0 999 906">

<path style="fill:#191919;stroke:#000;stroke-width:2" d="M826,158 l-660,0 0,552 660,0 0,-552z" />
<path style="fill:#7f7f7f;stroke:#000;stroke-width:2" d="M838,208 l-72,-72 0,482 72,71 0,-481z" />
<path style="fill:#7f7f7f;stroke:#000;stroke-width:2" d="M766,618 l-618,0 72,71 618,0 -72,-71z" />
<path style="fill:#7f7fff;fill-rule:evenodd" d="M838,208 l-618,0 0,481 618,0 0,-481z M946,112 l-834,0 0,744 834,0 0,-744z " />
<path style="fill:none;stroke:#000;stroke-width:2" d="M838,208 l-618,0 0,481 618,0 0,-481" />
<path style="fill:none;stroke:#000;stroke-width:2" d="M946,112 l-834,0 0,744 834,0 0,-744" />
<path style="fill:#0000e0;stroke:#000;stroke-width:2" d="M28,28 l84,84 0,744 -84,-84 0,-744z" />
<path style="fill:#7f7fff;stroke:#000;stroke-width:2" d="M946,112 l-834,0 -84,-84 832,0 86,84z" />
<path style="fill:#7f7fff;stroke:#000;stroke-width:2" d="M970,766 l-836,0 0,112 836,0 0,-112z" />
<path style="fill:#0000e0;stroke:#000;stroke-width:2" d="M112,744 l22,22 0,112 -22,-22 0,-112z" />
<path style="fill:#7f7fff;stroke:#000;stroke-width:2" d="M970,764 l-836,0 -22,-22 834,0 24,22z" />
<path style="fill:#f0f0f0;fill-rule:evenodd" d="M814,156 l-578,0 -62,24 -26,60 0,414 26,60 62,24 578,0 62,-24 26,-60 0,-414 -26,-60 -62,-24z M808,184 l-566,0 -46,18 -18,42 0,405 18,43 46,18 566,0 46,-18 18,-43 0,-405 -18,-42 -46,-18z " />
<path style="fill:none;stroke:#000;stroke-width:2" d="M814,156 l-578,0 -62,24 -26,60 0,414 26,60 62,24 578,0 62,-24 26,-60 0,-414 -26,-60 -62,-24" />
<path style="fill:none;stroke:#000;stroke-width:2" d="M808,184 l-566,0 -46,18 -18,42 0,405 18,43 46,18 566,0 46,-18 18,-43 0,-405 -18,-42 -46,-18" />
<path style="fill:#f0f0f0;stroke:#000;stroke-width:2" d="M445,774 l235,0 0,96 -235,0 0,-96z" />
<path style="fill:#7f7f7f;stroke:#000;stroke-width:2" d="M505,780 l-6,0 -4,4 0,8 4,2 6,0 4,-2 0,-8 -4,-4z" />
<path style="fill:#7f7f7f;stroke:#000;stroke-width:2" d="M529,780 l16,0 2,4 0,8 -2,2 -16,0 -4,-2 0,-8 4,-4z" />
<path style="fill:#7f7f7f;stroke:#000;stroke-width:2" d="M529,802 l16,0 2,4 0,8 -2,2 -16,0 -4,-2 0,-8 4,-4z" />
<path style="fill:#7f7f7f;stroke:#000;stroke-width:2" d="M529,824 l16,0 2,4 0,8 -2,2 -16,0 -4,-2 0,-8 4,-4z" />
<path style="fill:#7f7f7f;stroke:#000;stroke-width:2" d="M505,802 l-6,0 -4,4 0,8 4,2 6,0 4,-2 0,-8 -4,-4z" />
<path style="fill:#7f7f7f;stroke:#000;stroke-width:2" d="M505,824 l-6,0 -4,4 0,6 4,4 6,0 4,-4 0,-6 -4,-4z" />
<path style="fill:#7f7f7f;stroke:#000;stroke-width:2" d="M505,844 l-26,0 -4,2 0,8 4,4 26,0 4,-4 0,-8 -4,-2z" />
<path style="fill:#7f7f7f;stroke:#000;stroke-width:2" d="M485,780 l-8,0 -2,4 0,8 2,2 8,0 4,-2 0,-8 -4,-4z" />
<path style="fill:#7f7f7f;stroke:#000;stroke-width:2" d="M485,802 l-8,0 -2,4 0,8 2,2 8,0 4,-2 0,-8 -4,-4z" />
<path style="fill:#7f7f7f;stroke:#000;stroke-width:2" d="M485,824 l-8,0 -2,4 0,6 2,4 8,0 4,-4 0,-6 -4,-4z" />
<path style="fill:#7f7f7f;stroke:#000;stroke-width:2" d="M465,780 l-8,0 -2,4 0,8 2,2 8,0 4,-2 0,-8 -4,-4z" />
<path style="fill:#7f7f7f;stroke:#000;stroke-width:2" d="M465,802 l-8,0 -2,4 0,8 2,2 8,0 4,-2 0,-8 -4,-4z" />
<path style="fill:#7f7f7f;stroke:#000;stroke-width:2" d="M465,824 l-8,0 -2,4 0,6 2,4 8,0 4,-4 0,-6 -4,-4z" />
<path style="fill:#7f7f7f;stroke:#000;stroke-width:2" d="M465,844 l-8,0 -2,2 0,8 2,4 8,0 4,-4 0,-8 -4,-2z" />
<path style="fill:#000" d="M668,782 l-99,0 14,56 64,0 21,-56z" />
<path style="fill:#fff;stroke:#000;stroke-width:2" d="M660,786 l-85,0 8,34 64,0 13,-34z" />
<path style="fill:none;stroke:#000;stroke-width:2" d="M609,796 l9,22" />
<path style="fill:none;stroke:#000;stroke-width:2" d="M654,788 l0,6" />
<path style="fill:none;stroke:#000;stroke-width:2" d="M644,788 l0,6" />
<path style="fill:none;stroke:#000;stroke-width:2" d="M635,788 l0,6" />
<path style="fill:none;stroke:#000;stroke-width:2" d="M625,788 l0,6" />
<path style="fill:none;stroke:#000;stroke-width:2" d="M616,788 l0,6" />
<path style="fill:none;stroke:#000;stroke-width:2" d="M607,788 l0,6" />
<path style="fill:none;stroke:#000;stroke-width:2" d="M597,788 l0,6" />
<path style="fill:none;stroke:#000;stroke-width:2" d="M590,788 l0,6" />
<path style="fill:none;stroke:#000;stroke-width:2" d="M579,788 l0,6" />
<path style="fill:none;stroke:#000;stroke-width:2" d="M780,616 l-6,-11 -2,-10 2,-8 6,3 42,42 8,3 4,-5 -12,-25 -42,-40 -8,-20 2,-6 6,2 42,40 8,4 4,-4 -4,-12 -8,-12 -42,-40 -6,-10 -2,-12 2,-6 6,2 42,42 8,4 4,-6 -12,-24 -42,-40 -6,-10 -2,-12 2,-6 6,2 42,42 8,4 4,-6 -12,-24 -42,-40 -8,-20 2,-6 6,2 42,40 8,6 4,-6 -12,-24 -42,-41 -6,-9 -2,-12 2,-7 6,2 42,43 8,4 4,-6 -12,-24 -42,-40 -8,-21 2,-5 6,2 42,40 8,5 4,-5 -12,-25 -42,-40 -8,-22 2,-6 6,2 42,40 8,6 4,-6 -12,-24 -40,-40" />
<path style="fill:none;stroke:#fff;stroke-width:2" d="M780,621 l-6,-10 -2,-9 2,-9 6,4 42,40 8,5 4,-5 -12,-24 -42,-42 -8,-20 2,-6 6,2 42,40 8,6 4,-6 -4,-12 -8,-12 -42,-40 -6,-10 -2,-10 2,-8 6,2 42,42 8,4 4,-6 -12,-24 -42,-40 -8,-20 2,-8 6,2 42,42 8,4 4,-4 -12,-24 -42,-42 -6,-8 -2,-12 2,-6 6,2 42,42 8,4 4,-6 -12,-24 -42,-40 -8,-21 2,-7 6,2 42,42 8,3 4,-5 -12,-24 -42,-41 -8,-20 2,-6 6,2 42,40 8,7 4,-7 -12,-24 -42,-40 -6,-9 -2,-13 2,-6 6,2 42,40 8,6 4,-6 -12,-23 -40,-41" />

</svg>
