 

<svg xmlns:agg="http://www.example.com" xmlns="http://www.w3.org/2000/svg" preserveAspectRatio="none" width="0.8630in" height="1.0750in" viewBox="0 0 802 999">

<path style="fill:#333" d="M343,343 l88,0 0,-315 -88,0 0,315z" />
<path style="fill:#36c" d="M737,891 l-692,0 -17,79 727,0 -18,-79z" />
<path style="fill:#999" d="M685,912 l-588,0 -16,58 622,0 -18,-58z" />
<path style="fill:none;stroke:#fff;stroke-width:2" d="M703,970 l-18,-58 -588,0" />
<path style="fill:none;stroke:#000;stroke-width:2" d="M737,891 l-692,0 -17,79 727,0 -18,-79" />
<path style="fill:#36c" d="M480,107 l-39,0 0,784 39,0 0,-784z" />
<path style="fill:#69f" d="M467,107 l-13,0 0,784 13,0 0,-784z" />
<path style="fill:none;stroke:#000;stroke-width:2" d="M480,107 l-39,0 0,784 39,0 0,-784" />
<path style="fill:#039" d="M716,616 l-177,0 0,217 18,58 138,0 21,-58 0,-217z" />
<path style="fill:#1245ab" d="M701,616 l-149,0 0,217 17,58 116,0 16,-58 0,-217z" />
<path style="fill:#2154ba" d="M689,616 l-124,0 0,217 13,58 96,0 15,-58 0,-217z" />
<path style="fill:#36c" d="M676,616 l-98,0 0,217 10,58 77,0 11,-58 0,-217z" />
<path style="fill:#4578de" d="M663,616 l-71,0 0,217 7,58 55,0 9,-58 0,-217z" />
<path style="fill:#5487ed" d="M650,616 l-47,0 0,217 5,58 36,0 6,-58 0,-217z" />
<path style="fill:#69f" d="M637,616 l-19,0 0,217 2,58 15,0 2,-58 0,-217z" />
<path style="fill:#ccc" d="M676,637 l-137,0 0,88 137,0 0,-88z" />
<path style="fill:#999" d="M655,646 l-116,0 0,68 116,0 0,-68z" />
<path style="fill:none;stroke:#000;stroke-width:2" d="M716,616 l-177,0 0,217 18,58 138,0 21,-58 0,-217" />
<path style="fill:none;stroke:#000;stroke-width:2" d="M539,695 l-50,-10 -58,-30 -39,-58 -31,-79" />
<path style="fill:none;stroke:#000;stroke-width:2" d="M539,676 l-59,-21 -39,-49 -31,-128 -9,-165" />
<path style="fill:#7f7f7f" d="M716,616 l0,-87 -177,0 0,87 177,0z" />
<path style="fill:#8c8c8c" d="M708,616 l0,-87 -162,0 0,87 162,0z" />
<path style="fill:#999" d="M699,616 l0,-87 -145,0 0,87 145,0z" />
<path style="fill:#a6a6a6" d="M691,616 l0,-87 -128,0 0,87 128,0z" />
<path style="fill:#b2b2b2" d="M684,616 l0,-87 -113,0 0,87 113,0z" />
<path style="fill:#bfbfbf" d="M676,616 l0,-87 -98,0 0,87 98,0z" />
<path style="fill:#ccc" d="M669,616 l0,-87 -83,0 0,87 83,0z" />
<path style="fill:#d9d9d9" d="M661,616 l0,-87 -68,0 0,87 68,0z" />
<path style="fill:#e5e5e5" d="M652,616 l0,-87 -51,0 0,87 51,0z" />
<path style="fill:#f2f2f2" d="M644,616 l0,-87 -34,0 0,87 34,0z" />
<path style="fill:#fff" d="M637,616 l0,-87 -19,0 0,87 19,0z" />
<path style="fill:none;stroke:#000;stroke-width:2" d="M716,616 l0,-87 -177,0 0,87 177,0" />
<path style="fill:#7f7f7f" d="M676,527 l0,-86 -39,0 0,86 39,0z" />
<path style="fill:#8c8c8c" d="M674,527 l0,-86 -36,0 0,86 36,0z" />
<path style="fill:#999" d="M673,527 l0,-86 -33,0 0,86 33,0z" />
<path style="fill:#a6a6a6" d="M671,527 l0,-86 -29,0 0,86 29,0z" />
<path style="fill:#b2b2b2" d="M669,527 l0,-86 -25,0 0,86 25,0z" />
<path style="fill:#bfbfbf" d="M667,527 l0,-86 -21,0 0,86 21,0z" />
<path style="fill:#ccc" d="M665,527 l0,-86 -19,0 0,86 19,0z" />
<path style="fill:#d9d9d9" d="M663,527 l0,-86 -15,0 0,86 15,0z" />
<path style="fill:#e5e5e5" d="M661,527 l0,-86 -11,0 0,86 11,0z" />
<path style="fill:#f2f2f2" d="M659,527 l0,-86 -7,0 0,86 7,0z" />
<path style="fill:#fff" d="M657,527 l0,-86 -3,0 0,86 3,0z" />
<path style="fill:none;stroke:#000;stroke-width:2" d="M676,527 l0,-86 -39,0 0,86 39,0" />
<path style="fill:#7f7f7f" d="M578,527 l0,-58 59,0 0,58 -59,0z" />
<path style="fill:#8c8c8c" d="M580,527 l0,-58 53,0 0,58 -53,0z" />
<path style="fill:#999" d="M584,527 l0,-58 47,0 0,58 -47,0z" />
<path style="fill:#a6a6a6" d="M586,527 l0,-58 43,0 0,58 -43,0z" />
<path style="fill:#b2b2b2" d="M588,527 l0,-58 37,0 0,58 -37,0z" />
<path style="fill:#bfbfbf" d="M592,527 l0,-58 31,0 0,58 -31,0z" />
<path style="fill:#ccc" d="M593,527 l0,-58 29,0 0,58 -29,0z" />
<path style="fill:#d9d9d9" d="M595,527 l0,-58 23,0 0,58 -23,0z" />
<path style="fill:#e5e5e5" d="M599,527 l0,-58 17,0 0,58 -17,0z" />
<path style="fill:#f2f2f2" d="M601,527 l0,-58 11,0 0,58 -11,0z" />
<path style="fill:#fff" d="M604,527 l0,-58 6,0 0,58 -6,0z" />
<path style="fill:none;stroke:#000;stroke-width:2" d="M578,527 l0,-58 59,0 0,58 -59,0" />
<path style="fill:#7f7f7f" d="M774,557 l-89,0 0,40 89,0 0,-40z" />
<path style="fill:#8c8c8c" d="M774,559 l-89,0 0,36 89,0 0,-36z" />
<path style="fill:#999" d="M774,561 l-89,0 0,32 89,0 0,-32z" />
<path style="fill:#a6a6a6" d="M774,563 l-89,0 0,29 89,0 0,-29z" />
<path style="fill:#b2b2b2" d="M774,565 l-89,0 0,25 89,0 0,-25z" />
<path style="fill:#bfbfbf" d="M774,567 l-89,0 0,21 89,0 0,-21z" />
<path style="fill:#ccc" d="M774,569 l-89,0 0,17 89,0 0,-17z" />
<path style="fill:#d9d9d9" d="M774,571 l-89,0 0,13 89,0 0,-13z" />
<path style="fill:#e5e5e5" d="M774,571 l-89,0 0,11 89,0 0,-11z" />
<path style="fill:#f2f2f2" d="M774,572 l-89,0 0,10 89,0 0,-10z" />
<path style="fill:#fff" d="M774,574 l-89,0 0,6 89,0 0,-6z" />
<path style="fill:none;stroke:#000;stroke-width:2" d="M774,557 l-89,0 0,40 89,0 0,-40" />
<path style="fill:#7f7f7f" d="M343,891 l0,-68 -196,0 0,68 196,0z" />
<path style="fill:#8c8c8c" d="M333,891 l0,-68 -177,0 0,68 177,0z" />
<path style="fill:#999" d="M325,891 l0,-68 -162,0 0,68 162,0z" />
<path style="fill:#a6a6a6" d="M316,891 l0,-68 -143,0 0,68 143,0z" />
<path style="fill:#b2b2b2" d="M307,891 l0,-68 -127,0 0,68 127,0z" />
<path style="fill:#bfbfbf" d="M299,891 l0,-68 -109,0 0,68 109,0z" />
<path style="fill:#ccc" d="M290,891 l0,-68 -91,0 0,68 91,0z" />
<path style="fill:#d9d9d9" d="M282,891 l0,-68 -75,0 0,68 75,0z" />
<path style="fill:#e5e5e5" d="M273,891 l0,-68 -57,0 0,68 57,0z" />
<path style="fill:#f2f2f2" d="M263,891 l0,-68 -37,0 0,68 37,0z" />
<path style="fill:#fff" d="M256,891 l0,-68 -23,0 0,68 23,0z" />
<path style="fill:none;stroke:#000;stroke-width:2" d="M343,891 l0,-68 -196,0 0,68 196,0" />
<path style="fill:#7f7f7f" d="M401,450 l0,373 -313,0 0,-373 313,0z" />
<path style="fill:#8c8c8c" d="M388,450 l0,373 -287,0 0,-373 287,0z" />
<path style="fill:#999" d="M373,450 l0,373 -257,0 0,-373 257,0z" />
<path style="fill:#a6a6a6" d="M360,450 l0,373 -231,0 0,-373 231,0z" />
<path style="fill:#b2b2b2" d="M346,450 l0,373 -203,0 0,-373 203,0z" />
<path style="fill:#bfbfbf" d="M331,450 l0,373 -173,0 0,-373 173,0z" />
<path style="fill:#ccc" d="M318,450 l0,373 -147,0 0,-373 147,0z" />
<path style="fill:#d9d9d9" d="M303,450 l0,373 -117,0 0,-373 117,0z" />
<path style="fill:#e5e5e5" d="M290,450 l0,373 -91,0 0,-373 91,0z" />
<path style="fill:#f2f2f2" d="M277,450 l0,373 -65,0 0,-373 65,0z" />
<path style="fill:#fff" d="M261,450 l0,373 -33,0 0,-373 33,0z" />
<path style="fill:none;stroke:#000;stroke-width:2" d="M401,450 l0,373 -313,0 0,-373 313,0" />
<path style="fill:#333" d="M382,567 l-247,0 0,235 247,0 0,-235z" />
<path style="fill:none;stroke:#7f7f7f;stroke-width:2" d="M147,802 l0,-235 18,0 0,235 21,0 0,-235 21,0 0,235 21,0 0,-235 20,0 0,235 21,0 0,-235 21,0 0,235 21,0 0,-235 20,0 0,235 21,0 0,-235 19,0 0,235" />
<path style="fill:#ccc" d="M343,58 l-246,0 -20,235 275,0 -9,-235z" />
<path style="fill:#7f7f7f" d="M343,343 l-246,0 -20,-50 275,0 -9,50z" />
<path style="fill:#bfb299" d="M363,313 l0,-89 -11,0 0,-89 11,0 0,-89 87,0 0,89 9,0 0,89 -9,0 0,89 -87,0z" />
<path style="fill:#c9bca3" d="M369,313 l0,-89 -8,0 0,-89 8,0 0,-89 73,0 0,89 10,0 0,89 -10,0 0,89 -73,0z" />
<path style="fill:#d4c7ae" d="M376,313 l0,-89 -7,0 0,-89 7,0 0,-89 59,0 0,89 7,0 0,89 -7,0 0,89 -59,0z" />
<path style="fill:#ded1b8" d="M384,313 l0,-89 -6,0 0,-89 6,0 0,-89 45,0 0,89 4,0 0,89 -4,0 0,89 -45,0z" />
<path style="fill:#e8dbc2" d="M390,313 l0,-89 -4,0 0,-89 4,0 0,-89 32,0 0,89 4,0 0,89 -4,0 0,89 -32,0z" />
<path style="fill:#f2e5cc" d="M397,313 l0,-89 -2,0 0,-89 2,0 0,-89 17,0 0,89 2,0 0,89 -2,0 0,89 -17,0z" />
<path style="fill:none;stroke:#000;stroke-width:2" d="M363,313 l0,-89 -11,0 0,-89 11,0 0,-89 87,0 0,89 9,0 0,89 -9,0 0,89 -87,0" />
<path style="fill:#fc0" d="M327,145 l-101,0 -8,88 115,0 -6,-88z" />
<ellipse style="fill:#e54c00;stroke:#000;stroke-width:2" cx="278" cy="176" rx="43" ry="28" />
<path style="fill:#b2b2b2;stroke:#000;stroke-width:2" d="M86,655 l-58,0 0,129 58,0 0,-129z" />

</svg>
