 

<svg xmlns:agg="http://www.example.com" xmlns="http://www.w3.org/2000/svg" preserveAspectRatio="none" width="1.3275in" height="1.0750in" viewBox="0 0 999 809">

<path style="fill:#0000bf;stroke:#000;stroke-width:2" d="M233,28 l-11,4 -5,14 0,201 10,3 9,-3 0,-189 4,-7 7,-3 444,0 0,-20 -458,0z" />
<path style="fill:#ccc" d="M504,67 l-395,303 -62,309 852,34 -5,-313 -390,-333z" />
<path style="fill:#7f7f7f;stroke:#000;stroke-width:2" d="M970,781 l-852,0 0,-33 852,0 0,33z" />
<path style="fill:#7f7f7f;stroke:#000;stroke-width:2" d="M28,693 l90,88 0,-33 -90,-87 0,32z" />
<path style="fill:#e5e5e5;stroke:#000;stroke-width:2" d="M885,663 l-855,0 88,85 852,0 -85,-85z" />
<path style="fill:#000;stroke:#000;stroke-width:2" d="M455,568 l3,0 14,3 20,2 28,2 35,3 39,2 41,0 47,0 46,0 44,0 39,-2 32,-3 28,-2 23,-2 11,-3 5,-2 0,-481 -455,0 0,483z" />
<path style="fill:#4c4c4c" d="M760,580 l44,0 39,-2 12,0 0,-493 -95,0 0,495z" />
<path style="fill:#7f7f7f" d="M795,580 l9,0 16,0 0,-495 -25,0 0,495z" />
<path style="fill:#000;stroke:#7f7f7f;stroke-width:2" d="M910,88 l-39,7 -28,2 -34,2 -40,0 -41,3 -93,0 -41,-3 -39,0 -33,-2 -28,-2 -34,-5 -5,-2 5,-12 34,-20 28,-10 33,-7 39,-7 41,-2 47,-2 46,2 41,2 40,7 34,7 28,10 34,20 5,12z" />
<path style="fill:#000;stroke:#7f7f7f;stroke-width:2" d="M453,566 l39,7 28,2 35,3 39,2 178,0 39,-2 32,-3 30,-2 21,0 16,-7 -5,12 -32,22 -30,7 -32,10 -39,4 -44,5 -93,0 -41,-5 -39,-4 -35,-10 -28,-7 -34,-22 -5,-12z" />
<path style="fill:#7f7f7f;stroke:#000;stroke-width:2" d="M379,378 l-11,0 0,335 11,0 0,-335z" />
<path style="fill:#7f7f7f;stroke:#000;stroke-width:2" d="M125,378 l-12,0 0,335 12,0 0,-335z" />
<path style="fill:none;stroke:#000;stroke-width:2" d="M333,381 l0,213 -10,23 -20,23 -42,23 -134,0" />
<path style="fill:none;stroke:#000;stroke-width:2" d="M321,381 l0,208 -9,25 -21,23 -39,21 -125,0" />
<path style="fill:none;stroke:#000;stroke-width:2" d="M310,381 l0,205 -10,26 -18,21 -37,23 -118,0" />
<path style="fill:none;stroke:#000;stroke-width:2" d="M296,381 l0,204 -7,22 -18,23 -33,21 -111,0" />
<path style="fill:none;stroke:#000;stroke-width:2" d="M285,381 l0,201 -7,23 -17,23 -32,21 -102,0" />
<path style="fill:none;stroke:#000;stroke-width:2" d="M273,381 l0,199 -8,23 -15,20 -28,21 -95,0" />
<path style="fill:none;stroke:#000;stroke-width:2" d="M259,381 l0,194 -5,23 -14,23 -27,19 -86,0" />
<path style="fill:none;stroke:#000;stroke-width:2" d="M247,381 l0,192 -4,23 -14,21 -23,20 -79,0" />
<path style="fill:none;stroke:#000;stroke-width:2" d="M236,381 l0,190 -5,23 -11,20 -23,19 -70,0" />
<path style="fill:none;stroke:#000;stroke-width:2" d="M224,381 l0,187 -4,21 -12,21 -19,20 -62,0" />
<path style="fill:none;stroke:#000;stroke-width:2" d="M210,381 l0,185 -2,20 -9,21 -16,19 -56,0" />
<path style="fill:none;stroke:#000;stroke-width:2" d="M199,381 l0,180 -2,24 -10,18 -13,20 -47,0" />
<path style="fill:none;stroke:#000;stroke-width:2" d="M187,381 l0,178 -2,23 -7,18 -11,19 -40,0" />
<path style="fill:none;stroke:#000;stroke-width:2" d="M175,381 l0,176 -1,21 -5,20 -9,19 -33,0" />
<path style="fill:#ccc;stroke:#000;stroke-width:2" d="M379,85 l-286,0 0,285 11,8 284,-281 -9,-12z" />
<path style="fill:#e0e0e0;stroke:#000;stroke-width:2" d="M388,95 l-284,0 0,283 284,0 0,-283z" />
<path style="fill:#191919;stroke:#000;stroke-width:2" d="M478,400 l-27,0 0,316 27,0 0,-316z" />
<path style="fill:#191919;stroke:#000;stroke-width:2" d="M913,400 l-28,0 0,316 28,0 0,-316z" />
<path style="fill:#0000bf;stroke:#000;stroke-width:2" d="M264,450 l-12,5 -7,13 0,202 12,2 8,-2 0,-189 3,-7 7,-3 667,0 0,-21 -678,0z" />
<path style="fill:#0000bf;stroke:#000;stroke-width:2" d="M788,446 l113,0 0,32 -113,0 0,-32z" />
<path style="fill:#0000bf;stroke:#000;stroke-width:2" d="M804,436 l81,0 0,54 -81,0 0,-54z" />
<path style="fill:#b2b2b2;stroke:#000;stroke-width:2" d="M837,436 l15,0 0,-9 -15,0 0,9z" />
<ellipse style="fill:#f0f0f0;stroke:#000;stroke-width:2" cx="880" cy="424" rx="53" ry="8" />
<path style="fill:#f00;stroke:#000;stroke-width:2" d="M855,416 l69,0 0,16 -69,0 0,-16z" />
<path style="fill:#0000bf;stroke:#000;stroke-width:2" d="M305,647 l-14,7 -6,14 0,30 11,2 11,-2 0,-17 3,-9 9,-2 631,0 0,-23 -645,0z" />
<path style="fill:#0000bf" d="M772,642 l127,0 0,37 -127,0 0,-37z" />
<path style="fill:#0000ad" d="M772,672 l127,0 0,7 -127,0 0,-7z" />
<path style="fill:#0000bf" d="M790,630 l93,0 0,61 -93,0 0,-61z" />
<path style="fill:#0000ad" d="M790,630 l93,0 0,10 -93,0 0,-10z" />
<path style="fill:#0000ad" d="M790,668 l93,0 0,23 -93,0 0,-23z" />
<path style="fill:#b2b2b2;stroke:#000;stroke-width:2" d="M827,630 l18,0 0,-11 -18,0 0,11z" />
<ellipse style="fill:#f0f0f0;stroke:#000;stroke-width:2" cx="876" cy="615" rx="61" ry="8" />
<path style="fill:#f00;stroke:#000;stroke-width:2" d="M848,607 l79,0 0,16 -79,0 0,-16z" />
<path style="fill:none;stroke:#000;stroke-width:2" d="M790,630 l93,0 0,61 -93,0 0,-61" />
<path style="fill:#217f21;stroke:#000;stroke-width:2" d="M282,640 l-125,0 0,93 125,0 0,-93z" />
<path style="fill:#005e00;stroke:#000;stroke-width:2" d="M282,619 l44,0 0,118 -44,0 0,-118z" />
<path style="fill:#f0f0f0;stroke:#000;stroke-width:2" d="M347,665 l-21,0 0,23 21,0 0,-23z" />
<path style="fill:none;stroke:#000;stroke-width:2" d="M171,651 l46,0" />
<path style="fill:none;stroke:#000;stroke-width:2" d="M174,663 l34,0" />
<path style="fill:none;stroke:#000;stroke-width:2" d="M178,684 l44,0" />
<path style="fill:none;stroke:#000;stroke-width:2" d="M175,700 l31,0" />
<path style="fill:none;stroke:#fff;stroke-width:2" d="M760,143 l-150,0 0,35 150,0 0,-35" />
<path style="fill:#ccc;stroke:#fff;stroke-width:2" d="M721,340 l-72,0 0,-58 72,0 0,58z" />
<path style="fill:#000;stroke:#000;stroke-width:2" d="M349,118 l-9,4 -5,12 5,9 9,5 12,-5 4,-9 -4,-12 -12,-4z" />
<path style="fill:#000;stroke:#000;stroke-width:2" d="M285,118 l-12,4 -2,12 2,9 12,5 8,-5 5,-9 -5,-12 -8,-4z" />
<path style="fill:#000;stroke:#000;stroke-width:2" d="M215,118 l-9,4 -5,12 5,9 9,5 12,-5 4,-9 -4,-12 -12,-4z" />
<path style="fill:#000;stroke:#000;stroke-width:2" d="M148,118 l9,4 5,12 -5,9 -9,5 -11,-5 -5,-9 5,-12 11,-4z" />
<path style="fill:#000;stroke:#000;stroke-width:2" d="M271,270 l11,5 3,9 -3,9 -11,5 -10,-5 -4,-9 4,-9 10,-5z" />
<path style="fill:#000;stroke:#000;stroke-width:2" d="M222,270 l9,5 5,9 -5,9 -9,5 -12,-5 -4,-9 4,-9 12,-5z" />
<path style="fill:#f00" d="M271,273 l7,4 4,7 -4,7 -7,5 -7,-5 -5,-7 5,-7 7,-4z" />
<path style="fill:#0f0" d="M222,273 l7,4 2,7 -2,7 -7,5 -9,-5 -3,-7 3,-7 9,-4z" />
<path style="fill:#e0e0e0" d="M344,122 l-2,3 12,18 4,-2 -14,-19z" />
<path style="fill:#e0e0e0" d="M279,122 l-1,3 11,18 2,-2 -12,-19z" />
<path style="fill:#e0e0e0" d="M210,122 l-2,3 12,18 4,-2 -14,-19z" />
<path style="fill:#e0e0e0" d="M153,122 l2,3 -12,18 -4,-2 14,-19z" />
<path style="fill:#000" d="M279,180 l-66,0 11,39 44,0 11,-39z" />
<path style="fill:#fff;stroke:#000;stroke-width:2" d="M275,185 l-58,0 7,21 44,0 7,-21z" />
<path style="fill:none;stroke:#000;stroke-width:2" d="M240,189 l7,17" />
<path style="fill:none;stroke:#000;stroke-width:2" d="M271,185 l0,4" />
<path style="fill:none;stroke:#000;stroke-width:2" d="M265,185 l0,4" />
<path style="fill:none;stroke:#000;stroke-width:2" d="M259,185 l0,4" />
<path style="fill:none;stroke:#000;stroke-width:2" d="M252,185 l0,4" />
<path style="fill:none;stroke:#000;stroke-width:2" d="M245,185 l0,4" />
<path style="fill:none;stroke:#000;stroke-width:2" d="M240,185 l0,4" />
<path style="fill:none;stroke:#000;stroke-width:2" d="M233,185 l0,4" />
<path style="fill:none;stroke:#000;stroke-width:2" d="M227,185 l0,4" />
<path style="fill:none;stroke:#000;stroke-width:2" d="M220,185 l0,4" />

</svg>
