 

<svg xmlns:agg="http://www.example.com" xmlns="http://www.w3.org/2000/svg" preserveAspectRatio="none" width="1.6083in" height="0.8098in" viewBox="0 0 999 503">

<path style="fill:#333" d="M895,425 l-867,0 0,17 867,0 0,-17z" />
<path style="fill:#666" d="M899,273 l-174,0 0,141 174,0 0,-141z" />
<path style="fill:#ccc" d="M725,39 l-611,0 0,188 -86,0 0,204 697,0 0,-392z" />
<path style="fill:#c7c7c7" d="M725,376 l-175,-79 0,134 175,0 0,-55z" />
<path style="fill:#c2c2c2" d="M725,384 l-175,-79 0,126 175,0 0,-47z" />
<path style="fill:#bdbdbd" d="M725,395 l-175,-77 0,113 175,0 0,-36z" />
<path style="fill:#c7c7c7" d="M550,376 l-174,-79 0,134 174,0 0,-55z" />
<path style="fill:#c2c2c2" d="M550,384 l-174,-79 0,126 174,0 0,-47z" />
<path style="fill:#bdbdbd" d="M550,395 l-174,-77 0,113 174,0 0,-36z" />
<path style="fill:#c7c7c7" d="M376,376 l-175,-79 0,134 175,0 0,-55z" />
<path style="fill:#c2c2c2" d="M376,384 l-175,-79 0,126 175,0 0,-47z" />
<path style="fill:#bdbdbd" d="M376,395 l-175,-77 0,113 175,0 0,-36z" />
<path style="fill:#c7c7c7" d="M201,376 l-173,-79 0,134 173,0 0,-55z" />
<path style="fill:#c2c2c2" d="M201,384 l-173,-79 0,126 173,0 0,-47z" />
<path style="fill:#bdbdbd" d="M201,395 l-173,-77 0,113 173,0 0,-36z" />
<path style="fill:#c7c7c7" d="M725,173 l-305,-79 0,133 305,0 0,-54z" />
<path style="fill:#c2c2c2" d="M725,180 l-305,-79 0,126 305,0 0,-47z" />
<path style="fill:#bdbdbd" d="M725,192 l-305,-80 0,115 305,0 0,-35z" />
<path style="fill:#c7c7c7" d="M420,173 l-306,-79 0,133 306,0 0,-54z" />
<path style="fill:#c2c2c2" d="M420,180 l-306,-79 0,126 306,0 0,-47z" />
<path style="fill:#bdbdbd" d="M420,192 l-306,-80 0,115 306,0 0,-35z" />
<path style="fill:#7f7f7f" d="M725,227 l-697,0 0,16 697,0 0,-16z" />
<path style="fill:none;stroke:#000;stroke-width:2" d="M725,39 l-611,0 0,188 -86,0 0,204 697,0 0,-392" />
<path style="fill:none;stroke:#7f7f7f;stroke-width:2" d="M665,129 l-496,0" />
<path style="fill:none;stroke:#e5e5e5;stroke-width:2" d="M665,135 l-496,0" />
<path style="fill:none;stroke:#7f7f7f;stroke-width:2" d="M550,431 l0,-188" />
<path style="fill:none;stroke:#e5e5e5;stroke-width:2" d="M544,431 l0,-188" />
<path style="fill:none;stroke:#7f7f7f;stroke-width:2" d="M201,431 l0,-188" />
<path style="fill:none;stroke:#e5e5e5;stroke-width:2" d="M195,431 l0,-188" />
<path style="fill:#b2b2b2;stroke:#7f7f7f;stroke-width:2" d="M584,54 l-23,0 0,181 23,0 0,-181z" />
<path style="fill:#b2b2b2;stroke:#7f7f7f;stroke-width:2" d="M284,54 l-23,0 0,181 23,0 0,-181z" />
<path style="fill:#ccc" d="M169,109 l-109,0 0,49 109,0 0,-49z" />
<path style="fill:none;stroke:#fff;stroke-width:2" d="M169,158 l0,-49 -109,0" />
<path style="fill:none;stroke:#999;stroke-width:2" d="M169,158 l-109,0 0,-49" />
<path style="fill:#ccc;stroke:#000;stroke-width:2" d="M757,71 l-32,0 0,158 208,0 0,-37 -176,0 0,-121z" />
<path style="fill:#b2b2b2;stroke:#000;stroke-width:2" d="M904,273 l-167,0 0,152 -12,0 0,-196 179,0 0,44z" />
<path style="fill:#b2b2b2;stroke:#000;stroke-width:2" d="M904,469 l-11,0 0,-196 11,0 0,196z" />
<path style="fill:#b2b2b2;stroke:#000;stroke-width:2" d="M893,414 l0,11 -156,0 0,-11 156,0z" />
<path style="fill:#b2b2b2;stroke:#000;stroke-width:2" d="M763,469 l-11,0 0,-196 11,0 0,196z" />
<path style="fill:#999;stroke:#000;stroke-width:2" d="M904,229 l66,0 0,17 -32,15 -34,93 0,-125z" />
<path style="fill:#e5e5e5" d="M397,284 l-43,0 0,17 43,0 0,-17z" />
<path style="fill:#333" d="M682,431 l-55,0 0,32 55,0 0,-32z" />
<path style="fill:#b2b2b2;stroke:#000;stroke-width:2" d="M665,431 l-21,0 0,44 21,0 0,-44z" />
<path style="fill:#333" d="M305,431 l-53,0 0,32 53,0 0,-32z" />
<path style="fill:#b2b2b2;stroke:#000;stroke-width:2" d="M290,431 l-23,0 0,44 23,0 0,-44z" />
<path style="fill:#333" d="M82,431 l-54,0 0,32 54,0 0,-32z" />
<path style="fill:#b2b2b2;stroke:#000;stroke-width:2" d="M65,431 l-20,0 0,44 20,0 0,-44z" />
<path style="fill:none;stroke:#f00;stroke-width:2" d="M393,290 l-34,0" />
<path style="fill:none;stroke:#000;stroke-width:2" d="M742,71 l0,-43 -115,0 0,11" />

</svg>
