 

<svg xmlns:agg="http://www.example.com" xmlns="http://www.w3.org/2000/svg" preserveAspectRatio="none" width="1.1198in" height="1.0750in" viewBox="0 0 999 959">

<path style="fill:#030;stroke:#000;stroke-width:2" d="M942,629 l0,288 -55,0 0,-288 -441,0 0,288 -53,0 0,-288 -9,0 0,-53 503,0 0,-45 55,0 0,45 10,0 0,53 -10,0z" />
<path style="fill:#363" d="M154,267 l-49,0 0,251 49,0 0,-251z" />
<path style="fill:#457845" d="M152,280 l-47,0 0,223 47,0 0,-223z" />
<path style="fill:#598c59" d="M152,295 l-47,0 0,195 47,0 0,-195z" />
<path style="fill:#6b9e6b" d="M152,309 l-47,0 0,165 47,0 0,-165z" />
<path style="fill:#7fb27f" d="M152,324 l-47,0 0,137 47,0 0,-137z" />
<path style="fill:#91c491" d="M152,337 l-47,0 0,111 47,0 0,-111z" />
<path style="fill:#a6d9a6" d="M152,350 l-47,0 0,83 47,0 0,-83z" />
<path style="fill:#b8ebb8" d="M152,363 l-47,0 0,57 47,0 0,-57z" />
<path style="fill:#cfc" d="M154,378 l-49,0 0,29 49,0 0,-29z" />
<path style="fill:none;stroke:#000;stroke-width:2" d="M154,267 l-49,0 0,251 49,0 0,-251" />
<path style="fill:#363;stroke:#000;stroke-width:2" d="M375,642 l-136,0 0,106 136,0 0,-106z" />
<path style="fill:none;stroke:#696;stroke-width:2" d="M260,661 l0,68 96,0" />
<path style="fill:none;stroke:#030;stroke-width:2" d="M260,661 l96,0 0,68" />
<path style="fill:#030" d="M260,642 l115,0 0,-77 -87,0 0,19 -9,0 0,21 -19,0 0,37z" />
<path style="fill:#030" d="M288,248 l0,317 615,0 -8,-481 -290,-38 0,202 -317,0z" />
<path style="fill:#4c7f4c" d="M124,478 l0,68 664,0 0,-68 -664,0z" />
<path style="fill:#696" d="M124,478 l19,-239 645,0 0,239 -664,0z" />
<path style="fill:#619461" d="M124,478 l17,-203 647,90 0,113 -664,0z" />
<path style="fill:#5c8f5c" d="M124,478 l13,-179 651,98 0,81 -664,0z" />
<path style="fill:#578a57" d="M124,478 l11,-149 653,100 0,49 -664,0z" />
<path style="fill:none;stroke:#9c9;stroke-width:2" d="M788,478 l-664,0" />
<path style="fill:none;stroke:#000;stroke-width:2" d="M124,478 l19,-239 645,0 0,307 -664,0 0,-68" />
<path style="fill:#696" d="M970,248 l-115,0 0,270 115,0 0,-270z" />
<path style="fill:#696" d="M970,248 l-115,0 -9,-173 115,0 9,173z" />
<path style="fill:#5e915e" d="M968,224 l-114,0 -8,-149 115,0 7,149z" />
<path style="fill:#548754" d="M968,199 l-116,0 -6,-124 115,0 7,124z" />
<path style="fill:#4c7f4c" d="M967,176 l-115,0 -6,-101 115,0 6,101z" />
<path style="fill:#457845" d="M965,152 l-115,0 -4,-77 115,0 4,77z" />
<path style="fill:#3b6e3b" d="M965,128 l-117,0 -2,-53 115,0 4,53z" />
<path style="fill:#363" d="M963,103 l-115,0 -2,-28 115,0 2,28z" />
<path style="fill:none;stroke:#000;stroke-width:2" d="M970,248 l0,270 -115,0 0,-270 -9,-173 115,0 9,173" />
<path style="fill:#696" d="M701,354 l-29,0 0,134 29,0 0,-134z" />
<path style="fill:none;stroke:#030;stroke-width:2" d="M701,488 l0,-134 -29,0 0,134" />
<path style="fill:#696" d="M307,354 l-28,0 0,134 28,0 0,-134z" />
<path style="fill:none;stroke:#030;stroke-width:2" d="M307,488 l0,-134 -28,0 0,134" />
<path style="fill:#b2b2b2;stroke:#000;stroke-width:2" d="M788,382 l0,-47 -10,0 0,-106 68,0 0,87 -58,66z" />
<circle style="fill:#030" cx="815" cy="257" r="9" />
<path style="fill:#696" d="M816,210 l-177,0 -14,-173 178,0 13,173z" />
<path style="fill:#5e915e" d="M814,186 l-177,0 -12,-149 178,0 11,149z" />
<path style="fill:#548754" d="M812,162 l-177,0 -10,-125 178,0 9,125z" />
<path style="fill:#4c7f4c" d="M810,137 l-177,0 -8,-100 178,0 7,100z" />
<path style="fill:#457845" d="M808,113 l-177,0 -6,-76 178,0 5,76z" />
<path style="fill:#3b6e3b" d="M806,90 l-177,0 -4,-53 178,0 3,53z" />
<path style="fill:#363" d="M804,65 l-177,0 -2,-28 178,0 1,28z" />
<path style="fill:none;stroke:#000;stroke-width:2" d="M816,210 l-177,0 -14,-173 178,0 13,173" />
<path style="fill:#194c19" d="M614,46 l-258,0 0,153 258,0 0,-153z" />
<path style="fill:#295c29" d="M614,54 l-260,0 0,138 260,0 0,-138z" />
<path style="fill:#386b38" d="M614,62 l-260,0 0,120 260,0 0,-120z" />
<path style="fill:#4a7d4a" d="M614,71 l-260,0 0,104 260,0 0,-104z" />
<path style="fill:#598c59" d="M614,79 l-260,0 0,86 260,0 0,-86z" />
<path style="fill:#699c69" d="M614,88 l-260,0 0,70 260,0 0,-70z" />
<path style="fill:#78ab78" d="M614,95 l-260,0 0,55 260,0 0,-55z" />
<path style="fill:#8abd8a" d="M614,105 l-260,0 0,36 260,0 0,-36z" />
<path style="fill:#9c9" d="M614,113 l-258,0 0,20 258,0 0,-20z" />
<path style="fill:none;stroke:#000;stroke-width:2" d="M614,46 l-258,0 0,153 258,0 0,-153" />
<path style="fill:#030" d="M605,103 l-153,0 0,87 153,0 0,-87z" />
<path style="fill:#030" d="M605,84 l-153,0 0,-28 153,0 0,28z" />
<path style="fill:none;stroke:#696;stroke-width:2" d="M605,114 l-153,0 0,15 153,0 0,17 -153,0 0,18 153,0 0,16 -153,0" />
<path style="fill:none;stroke:#696;stroke-width:2" d="M605,75 l-153,0 0,-10 153,0" />
<circle style="fill:#ccc;stroke:#030;stroke-width:2" cx="547" cy="37" r="10" />
<path style="fill:#ccc" d="M441,133 l-76,0 0,27 76,0 0,-27z" />
<path style="fill:#363;stroke:#000;stroke-width:2" d="M961,623 l0,308 -58,0 0,-308 -472,0 0,308 -56,0 0,-308 -10,0 0,-58 538,0 0,-47 58,0 0,47 9,0 0,58 -9,0z" />
<path style="fill:#c93" d="M105,508 l-19,-39 -9,-47 -49,0 0,-59 49,0 9,-47 19,-39 0,231z" />
<path style="fill:#d1a142" d="M105,495 l-19,-34 -9,-43 -49,0 0,-51 49,0 9,-43 19,-36 0,207z" />
<path style="fill:#d9ab52" d="M105,484 l-19,-30 -9,-38 -49,0 0,-47 49,0 9,-38 19,-30 0,183z" />
<path style="fill:#deb561" d="M105,471 l-19,-27 -9,-32 -49,0 0,-39 49,0 9,-34 19,-27 0,159z" />
<path style="fill:#e5bf72" d="M105,459 l-19,-22 -9,-28 -49,0 0,-34 49,0 9,-27 19,-22 0,133z" />
<path style="fill:#ebc782" d="M105,446 l-19,-17 -9,-22 -49,0 0,-29 49,0 9,-22 19,-19 0,109z" />
<path style="fill:#f2d191" d="M105,435 l-19,-15 -9,-17 -49,0 0,-21 49,0 9,-19 19,-15 0,87z" />
<path style="fill:#f7dba0" d="M105,423 l-19,-11 -9,-11 -49,0 0,-17 49,0 9,-13 19,-10 0,62z" />
<path style="fill:#ffe5b2" d="M105,412 l-19,-7 -9,-8 -49,0 0,-9 49,0 9,-8 19,-7 0,39z" />
<path style="fill:none;stroke:#000;stroke-width:2" d="M105,508 l-19,-39 -9,-47 -49,0 0,-59 49,0 9,-47 19,-39 0,231" />
<path style="fill:none;stroke:#c93;stroke-width:2" d="M77,363 l0,59" />

</svg>
