 

<svg xmlns:agg="http://www.example.com" xmlns="http://www.w3.org/2000/svg" preserveAspectRatio="none" width="1.4473in" height="1.0750in" viewBox="0 0 999 742">

<path style="fill:#4c4c4c;stroke:#000;stroke-width:2" d="M126,629 l537,0 0,-36 -537,0 0,36z" />
<path style="fill:#4c4c4c;stroke:#000;stroke-width:2" d="M733,333 l-677,0 0,130 677,0 0,-130z" />
<path style="fill:#4c4c4c;stroke:#000;stroke-width:2" d="M663,456 l0,241 51,0 0,-241 -51,0z" />
<path style="fill:#4c4c4c;stroke:#000;stroke-width:2" d="M73,456 l0,241 53,0 0,-241 -53,0z" />
<path style="fill:#000" d="M938,324 l-177,0 0,126 177,0 0,-126z" />
<path style="fill:#4c4c4c" d="M761,318 l-733,0 0,141 733,0 0,-141z" />
<path style="fill:#595959" d="M761,324 l-733,0 0,126 733,0 0,-126z" />
<path style="fill:#666" d="M761,331 l-733,0 0,110 733,0 0,-110z" />
<path style="fill:#737373" d="M761,337 l-733,0 0,94 733,0 0,-94z" />
<path style="fill:#7f7f7f" d="M761,343 l-733,0 0,69 733,0 0,-69z" />
<path style="fill:#8c8c8c" d="M761,318 l-733,0 0,75 733,0 0,-75z" />
<path style="fill:none;stroke:#000;stroke-width:2" d="M761,318 l-733,0 0,141 733,0 0,-141" />
<path style="fill:#7f7f7f" d="M752,384 l-76,0 0,66 76,0 0,-66z" />
<path style="fill:#999" d="M752,384 l-76,0 0,-47 76,0 0,47z" />
<path style="fill:none;stroke:#000;stroke-width:2" d="M752,337 l-76,0 0,113 76,0 0,-113" />
<path style="fill:#7f7f7f" d="M113,384 l-76,0 0,66 76,0 0,-66z" />
<path style="fill:#999" d="M113,384 l-76,0 0,-47 76,0 0,47z" />
<path style="fill:none;stroke:#000;stroke-width:2" d="M113,337 l-76,0 0,113 76,0 0,-113" />
<path style="fill:#7f7f7f" d="M686,450 l0,264 56,0 0,-264 -56,0z" />
<path style="fill:#999" d="M689,450 l0,264 49,0 0,-264 -49,0z" />
<path style="fill:#b2b2b2" d="M695,450 l0,264 38,0 0,-264 -38,0z" />
<path style="fill:#ccc" d="M701,450 l0,264 26,0 0,-264 -26,0z" />
<path style="fill:#e5e5e5" d="M704,450 l0,264 17,0 0,-264 -17,0z" />
<path style="fill:#fff" d="M710,450 l0,264 8,0 0,-264 -8,0z" />
<path style="fill:none;stroke:#000;stroke-width:2" d="M686,450 l0,264 56,0 0,-264 -56,0" />
<path style="fill:#7f7f7f" d="M47,450 l0,264 56,0 0,-264 -56,0z" />
<path style="fill:#999" d="M50,450 l0,264 49,0 0,-264 -49,0z" />
<path style="fill:#b2b2b2" d="M56,450 l0,264 38,0 0,-264 -38,0z" />
<path style="fill:#ccc" d="M62,450 l0,264 26,0 0,-264 -26,0z" />
<path style="fill:#e5e5e5" d="M67,450 l0,264 16,0 0,-264 -16,0z" />
<path style="fill:#fff" d="M71,450 l0,264 8,0 0,-264 -8,0z" />
<path style="fill:none;stroke:#000;stroke-width:2" d="M47,450 l0,264 56,0 0,-264 -56,0" />
<path style="fill:#7f7f7f" d="M103,638 l583,0 0,-37 -583,0 0,37z" />
<path style="fill:#999" d="M103,635 l583,0 0,-32 -583,0 0,32z" />
<path style="fill:#b2b2b2" d="M103,631 l583,0 0,-24 -583,0 0,24z" />
<path style="fill:#ccc" d="M103,627 l583,0 0,-17 -583,0 0,17z" />
<path style="fill:#e5e5e5" d="M103,625 l583,0 0,-11 -583,0 0,11z" />
<path style="fill:#fff" d="M103,621 l583,0 0,-3 -583,0 0,3z" />
<path style="fill:none;stroke:#000;stroke-width:2" d="M103,638 l583,0 0,-37 -583,0 0,37" />
<path style="fill:none;stroke:#b2b2b2;stroke-width:2" d="M535,459 l0,-141" />
<path style="fill:none;stroke:#000;stroke-width:2" d="M525,459 l0,-141" />
<path style="fill:none;stroke:#b2b2b2;stroke-width:2" d="M244,459 l0,-141" />
<path style="fill:none;stroke:#000;stroke-width:2" d="M235,459 l0,-141" />
<path style="fill:#a6a6a6" d="M761,122 l-733,0 0,196 733,0 0,-196z" />
<path style="fill:#a1a1a1" d="M761,261 l-733,-82 0,139 733,0 0,-57z" />
<path style="fill:#9c9c9c" d="M761,269 l-733,-81 0,130 733,0 0,-49z" />
<path style="fill:#969696" d="M761,282 l-733,-83 0,119 733,0 0,-36z" />
<path style="fill:#666;stroke:#000;stroke-width:2" d="M948,327 l-177,0 0,151 177,0 0,-151z" />
<path style="fill:#000" d="M929,459 l-14,0 -97,-98 0,-15 13,0 98,98 0,15z" />
<path style="fill:#000" d="M929,422 l-14,0 -62,-61 0,-15 15,0 61,62 0,14z" />
<path style="fill:#000" d="M893,459 l-15,0 -60,-60 0,-15 13,0 62,60 0,15z" />
<path style="fill:#000" d="M929,384 l-14,0 -22,-23 0,-15 13,0 23,25 0,13z" />
<path style="fill:#000" d="M853,459 l-13,0 -22,-22 0,-15 13,0 22,22 0,15z" />
<path style="fill:#7f7f7f" d="M923,280 l47,-177 -55,-15 -47,177 55,15z" />
<path style="fill:#8c8c8c" d="M921,278 l47,-175 -50,-13 -48,175 51,13z" />
<path style="fill:#999" d="M918,278 l47,-177 -44,-11 -47,177 44,11z" />
<path style="fill:#a6a6a6" d="M915,278 l48,-177 -40,-11 -47,177 39,11z" />
<path style="fill:#b2b2b2" d="M914,277 l47,-176 -36,-9 -47,175 36,10z" />
<path style="fill:#bfbfbf" d="M910,277 l49,-178 -30,-7 -49,177 30,8z" />
<path style="fill:#ccc" d="M908,277 l47,-178 -24,-7 -47,177 24,8z" />
<path style="fill:#d9d9d9" d="M906,275 l47,-176 -21,-5 -47,175 21,6z" />
<path style="fill:#e5e5e5" d="M904,275 l47,-178 -16,-3 -48,177 17,4z" />
<path style="fill:#f2f2f2" d="M901,275 l47,-178 -10,-3 -47,177 10,4z" />
<path style="fill:#fff" d="M899,273 l47,-176 -6,-1 -47,175 6,2z" />
<path style="fill:none;stroke:#000;stroke-width:2" d="M923,280 l47,-177 -55,-15 -47,177 55,15" />
<path style="fill:#7f7f7f" d="M910,277 l-13,45 -27,-8 12,-45 28,8z" />
<path style="fill:#8c8c8c" d="M908,277 l-11,45 -27,-8 14,-45 24,8z" />
<path style="fill:#999" d="M906,277 l-11,45 -23,-8 12,-45 22,8z" />
<path style="fill:#a6a6a6" d="M906,275 l-13,45 -19,-4 11,-47 21,6z" />
<path style="fill:#b2b2b2" d="M904,275 l-11,45 -19,-4 13,-45 17,4z" />
<path style="fill:#bfbfbf" d="M902,275 l-11,45 -15,-4 11,-45 15,4z" />
<path style="fill:#ccc" d="M902,275 l-13,45 -13,-4 13,-45 13,4z" />
<path style="fill:#d9d9d9" d="M901,275 l-12,45 -11,-4 13,-45 10,4z" />
<path style="fill:#e5e5e5" d="M901,273 l-14,47 -7,-4 11,-45 10,2z" />
<path style="fill:#f2f2f2" d="M899,273 l-14,45 -5,0 13,-45 6,0z" />
<path style="fill:#fff" d="M897,273 l-12,45 -3,0 13,-45 2,0z" />
<path style="fill:none;stroke:#000;stroke-width:2" d="M910,277 l-13,45 -27,-8 12,-45 28,8" />
<path style="fill:#666;stroke:#000;stroke-width:2" d="M827,216 l-66,0 0,83 66,0 0,-83z" />
<path style="fill:#666;stroke:#000;stroke-width:2" d="M919,324 l-158,0 0,-25 158,0 0,25z" />
<path style="fill:#7f7f7f;stroke:#000;stroke-width:2" d="M846,277 l0,-25 -62,-85 0,110 62,0z" />
<path style="fill:#333;stroke:#7f7f7f;stroke-width:2" d="M799,131 l-38,0 0,127 38,0 0,-127z" />
<path style="fill:#ccc" d="M737,141 l-48,0 0,32 48,0 0,-32z" />
<path style="fill:#bf723f" d="M737,141 l-48,0 0,9 48,0 0,-9z" />
<path style="fill:#ccc" d="M525,141 l-47,0 0,32 47,0 0,-32z" />
<path style="fill:#bf723f" d="M525,141 l-47,0 0,9 47,0 0,-9z" />
<path style="fill:none;stroke:#000;stroke-width:2" d="M761,122 l-733,0 0,196 733,0 0,-196" />
<path style="fill:none;stroke:#000;stroke-width:2" d="M878,286 l-32,-25" />
<path style="fill:none;stroke:#000;stroke-width:2" d="M874,252 l-62,-41" />
<path style="fill:#4c4c4c" d="M437,188 l-113,0 0,92 113,0 0,-92z" />
<path style="fill:#7f0000" d="M427,220 l-94,0 0,28 94,0 0,-28z" />
<path style="fill:#7f7f7f" d="M47,103 l695,0 0,-56 -695,0 0,56z" />
<path style="fill:#999" d="M47,103 l695,0 0,-51 -695,0 0,51z" />
<path style="fill:#b2b2b2" d="M47,103 l695,0 0,-37 -695,0 0,37z" />
<path style="fill:#ccc" d="M47,103 l695,0 0,-19 -695,0 0,19z" />
<path style="fill:none;stroke:#000;stroke-width:2" d="M47,103 l695,0 0,-56 -695,0 0,56" />
<path style="fill:#7f7f7f;stroke:#000;stroke-width:2" d="M761,122 l0,-94 -19,0 0,75 -217,0 0,-75 -18,0 0,75 -225,0 0,-75 -19,0 0,75 -216,0 0,-75 -19,0 0,94 733,0z" />
<path style="fill:none;stroke:#000;stroke-width:2" d="M761,318 l-733,0 0,141 733,0 0,-141" />
<path style="fill:none;stroke:#000;stroke-width:2" d="M686,450 l0,264 56,0 0,-264 -56,0" />
<path style="fill:none;stroke:#000;stroke-width:2" d="M47,450 l0,264 56,0 0,-264 -56,0" />

</svg>
