 

<svg xmlns:agg="http://www.example.com" xmlns="http://www.w3.org/2000/svg" preserveAspectRatio="none" width="1.6083in" height="0.8967in" viewBox="0 0 999 557">

<path style="fill:#666" d="M814,495 l-649,0 0,-5 649,0 0,5z" />
<path style="fill:#ccc" d="M814,254 l-649,0 0,236 649,0 0,-236z" />
<path style="fill:#c7c7c7" d="M814,422 l-198,-98 0,166 198,0 0,-68z" />
<path style="fill:#c2c2c2" d="M814,431 l-198,-98 0,157 198,0 0,-59z" />
<path style="fill:#bdbdbd" d="M814,446 l-198,-98 0,142 198,0 0,-44z" />
<path style="fill:#c7c7c7" d="M518,431 l-353,-177 0,236 353,0 0,-59z" />
<path style="fill:#c2c2c2" d="M518,450 l-353,-177 0,217 353,0 0,-40z" />
<path style="fill:#bdbdbd" d="M518,476 l-353,-179 0,193 353,0 0,-14z" />
<path style="fill:#4c4c4c" d="M518,352 l-353,0 0,21 353,0 0,-21z" />
<path style="fill:#999" d="M814,361 l-198,0 0,12 198,0 0,-12z" />
<path style="fill:#ccc" d="M459,410 l-113,0 0,70 113,0 0,-70z" />
<path style="fill:#c7c7c7" d="M459,452 l-113,-38 0,66 113,0 0,-28z" />
<path style="fill:#c2c2c2" d="M459,456 l-113,-38 0,62 113,0 0,-24z" />
<path style="fill:#bdbdbd" d="M459,463 l-113,-39 0,56 113,0 0,-17z" />
<path style="fill:none;stroke:#999;stroke-width:2" d="M348,410 l0,70" />
<path style="fill:none;stroke:#333;stroke-width:2" d="M348,410 l111,0 0,70" />
<path style="fill:#ccc" d="M341,410 l-112,0 0,70 112,0 0,-70z" />
<path style="fill:#c7c7c7" d="M341,452 l-112,-38 0,66 112,0 0,-28z" />
<path style="fill:#c2c2c2" d="M341,456 l-112,-38 0,62 112,0 0,-24z" />
<path style="fill:#bdbdbd" d="M341,463 l-112,-39 0,56 112,0 0,-17z" />
<path style="fill:none;stroke:#999;stroke-width:2" d="M229,410 l0,70" />
<path style="fill:none;stroke:#333;stroke-width:2" d="M229,410 l114,0 0,70" />
<path style="fill:none;stroke:#000;stroke-width:2" d="M354,450 l0,-9" />
<path style="fill:none;stroke:#000;stroke-width:2" d="M335,441 l0,9" />
<path style="fill:none;stroke:#333;stroke-width:2" d="M814,293 l-649,0" />
<path style="fill:none;stroke:#000;stroke-width:2" d="M814,254 l-649,0 0,236 649,0 0,-236" />
<path style="fill:#ccc" d="M618,37 l-100,0 0,471 100,0 0,-471z" />
<path style="fill:#c7c7c7" d="M618,299 l-100,-60 0,104 100,0 0,-44z" />
<path style="fill:#c2c2c2" d="M618,307 l-100,-62 0,98 100,0 0,-36z" />
<path style="fill:#bdbdbd" d="M618,314 l-100,-60 0,256 100,0 0,-196z" />
<path style="fill:none;stroke:#000;stroke-width:2" d="M618,37 l-100,0 0,471 100,0 0,-471" />
<path style="fill:none;stroke:#333;stroke-width:2" d="M518,480 l-353,0" />
<path style="fill:#b2b2b2" d="M165,490 l-137,-99 0,-152 122,0 0,-15 15,0 0,266z" />
<path style="fill:#adadad" d="M165,490 l-137,-99 0,-122 137,74 0,147z" />
<path style="fill:none;stroke:#000;stroke-width:2" d="M165,490 l-137,-99 0,-152 122,0 0,-15 15,0 0,266" />
<path style="fill:#b2b2b2" d="M814,471 l58,0 98,-89 0,-79 -156,-74 0,242z" />
<path style="fill:#adadad" d="M814,471 l58,0 85,-77 -143,-82 0,159z" />
<path style="fill:none;stroke:#000;stroke-width:2" d="M814,471 l58,0 98,-89 0,-79 -156,-74 0,242" />
<path style="fill:#7f7f7f;stroke:#000;stroke-width:2" d="M814,490 l0,18 -10,0 0,-18 10,0z" />
<path style="fill:#000;stroke:#000;stroke-width:2" d="M808,508 l0,12 10,9 -19,0 9,-9 0,-12z" />
<path style="fill:#7f7f7f;stroke:#000;stroke-width:2" d="M175,490 l0,18 -10,0 0,-18 10,0z" />
<path style="fill:#000;stroke:#000;stroke-width:2" d="M169,508 l0,12 11,9 -20,0 9,-9 0,-12z" />
<path style="fill:#7f7f7f;stroke:#000;stroke-width:2" d="M627,490 l0,18 -9,0 0,-18 9,0z" />
<path style="fill:#000;stroke:#000;stroke-width:2" d="M622,508 l0,12 9,9 -19,0 10,-9 0,-12z" />
<path style="fill:#7f7f7f;stroke:#000;stroke-width:2" d="M520,490 l0,18 -12,0 0,-18 12,0z" />
<path style="fill:#000;stroke:#000;stroke-width:2" d="M514,508 l0,12 10,9 -19,0 9,-9 0,-12z" />
<path style="fill:#ccc" d="M814,180 l-196,0 0,74 196,0 0,-74z" />
<path style="fill:#4c4c4c" d="M789,195 l-171,0 0,59 171,0 0,-59z" />
<path style="fill:#666" d="M686,214 l-55,0 0,34 55,0 0,-34z" />
<path style="fill:#7f7f7f" d="M784,205 l-55,0 0,49 55,0 0,-49z" />
<path style="fill:none;stroke:#7f7f7f;stroke-width:2" d="M789,199 l-118,0 0,15" />
<path style="fill:none;stroke:#000;stroke-width:2" d="M729,229 l-43,0" />
<path style="fill:none;stroke:#666;stroke-width:2" d="M729,226 l-43,0" />
<path style="fill:none;stroke:#000;stroke-width:2" d="M814,180 l-196,0 0,74 196,0 0,-74" />
<circle style="fill:#999;stroke:#000;stroke-width:2" cx="493" cy="82" r="24" />
<circle style="fill:#ccc" cx="493" cy="82" r="13" />
<path style="fill:#b2b2b2;stroke:#000;stroke-width:2" d="M474,254 l0,-40 34,-186 10,0 0,226 -44,0z" />
<path style="fill:#ccc;stroke:#000;stroke-width:2" d="M759,37 l-104,0 0,143 104,0 0,-143z" />
<path style="fill:#333" d="M744,52 l-73,0 0,113 73,0 0,-113z" />
<path style="fill:#7f7f7f;stroke:#000;stroke-width:2" d="M814,214 l117,-34 0,-9 -117,15 0,28z" />
<path style="fill:#ccc;stroke:#000;stroke-width:2" d="M474,248 l-309,0 0,6 309,0 0,-6z" />

</svg>
