 

<svg xmlns:agg="http://www.example.com" xmlns="http://www.w3.org/2000/svg" preserveAspectRatio="none" width="1.6083in" height="0.9676in" viewBox="0 0 999 601">

<path style="fill:#b2b2b2;stroke:#000;stroke-width:2" d="M28,42 l942,0 0,374 -942,0 0,-374z" />
<path style="fill:#7f7fcc" d="M33,67 l932,0 0,4 -932,0 0,-4z" />
<path style="fill:#7f7fcc" d="M33,46 l932,0 0,6 -932,0 0,-6z" />
<path style="fill:#339" d="M144,416 l0,19 61,0 0,98 -21,19 0,21 630,0 0,-21 -21,-19 0,-98 59,0 0,-19 -708,0z" />
<path style="fill:#006" d="M205,435 l588,0 0,98 -588,0 0,-98z" />
<path style="fill:#4c4cb2" d="M205,533 l588,0 21,19 -630,0 21,-19z" />
<path style="fill:none;stroke:#000;stroke-width:2" d="M144,416 l0,19 61,0 0,98 -21,19 0,21 630,0 0,-21 -21,-19 0,-98 59,0 0,-19 -708,0" />
<path style="fill:#ccc;stroke:#000;stroke-width:2" d="M46,416 l0,98 98,0 0,-39 -37,0 0,-59 -61,0z" />
<path style="fill:#006;stroke:#000;stroke-width:2" d="M146,475 l59,0 0,39 -59,0 0,-39z" />
<path style="fill:none;stroke:#7f7f7f;stroke-width:2" d="M116,508 l0,-30" />
<path style="fill:none;stroke:#fff;stroke-width:2" d="M120,508 l0,-30" />
<path style="fill:none;stroke:#7f7f7f;stroke-width:2" d="M52,450 l49,0" />
<path style="fill:none;stroke:#fff;stroke-width:2" d="M52,456 l49,0" />
<path style="fill:#ccc" d="M86,28 l826,0 0,392 -826,0 0,-392z" />
<path style="fill:#c7c7c7" d="M86,307 l826,-164 0,277 -826,0 0,-113z" />
<path style="fill:#c2c2c2" d="M86,324 l826,-164 0,260 -826,0 0,-96z" />
<path style="fill:#bdbdbd" d="M86,348 l826,-166 0,238 -826,0 0,-72z" />
<path style="fill:none;stroke:#000;stroke-width:2" d="M86,28 l826,0 0,392 -826,0 0,-392" />
<path style="fill:none;stroke:#7f7f7f;stroke-width:2" d="M622,61 l0,355" />
<path style="fill:none;stroke:#7f7f7f;stroke-width:2" d="M376,61 l0,355" />
<path style="fill:none;stroke:#7f7f7f;stroke-width:2" d="M92,61 l814,0" />
<path style="fill:none;stroke:#fff;stroke-width:2" d="M625,67 l0,349" />
<path style="fill:none;stroke:#fff;stroke-width:2" d="M380,67 l0,349" />
<path style="fill:#7f7f7f" d="M678,380 l-11,-11 0,-202 11,-11 144,0 11,11 0,202 -11,11 -144,0z" />
<path style="fill:#7f7f7f" d="M444,380 l-11,-11 0,-202 11,-11 110,0 11,11 0,202 -11,11 -110,0z" />
<path style="fill:#7f7f7f" d="M176,380 l-11,-11 0,-202 11,-11 144,0 11,11 0,202 -11,11 -144,0z" />
<path style="fill:#333" d="M684,376 l-11,-11 1,-196 12,-11 130,0 11,11 2,196 -11,11 -134,0z" />
<path style="fill:#333" d="M450,376 l-11,-11 1,-196 12,-11 94,0 12,11 1,196 -11,11 -98,0z" />
<path style="fill:#333" d="M182,376 l-11,-11 0,-196 11,-11 132,0 11,11 3,196 -12,11 -134,0z" />
<path style="fill:none;stroke:#b2b2b2;stroke-width:2" d="M720,322 l79,-104" />
<path style="fill:none;stroke:#b2b2b2;stroke-width:2" d="M729,273 l55,-68" />
<path style="fill:none;stroke:#b2b2b2;stroke-width:2" d="M710,208 l30,-33" />
<path style="fill:none;stroke:#b2b2b2;stroke-width:2" d="M459,322 l80,-104" />
<path style="fill:none;stroke:#b2b2b2;stroke-width:2" d="M469,273 l54,-68" />
<path style="fill:none;stroke:#b2b2b2;stroke-width:2" d="M450,208 l30,-33" />
<path style="fill:none;stroke:#b2b2b2;stroke-width:2" d="M218,322 l77,-104" />
<path style="fill:none;stroke:#b2b2b2;stroke-width:2" d="M227,273 l53,-68" />
<path style="fill:none;stroke:#b2b2b2;stroke-width:2" d="M207,208 l30,-33" />
<path style="fill:#7f7fcc" d="M92,52 l814,0 0,4 -814,0 0,-4z" />
<path style="fill:#7f7fcc" d="M92,31 l814,0 0,6 -814,0 0,-6z" />
<path style="fill:#7f7f7f" d="M591,248 l6,0 0,40 -6,0 0,-40z" />

</svg>
