 

<svg xmlns:agg="http://www.example.com" xmlns="http://www.w3.org/2000/svg" preserveAspectRatio="none" width="0.9857in" height="1.0750in" viewBox="0 0 916 999">

<path style="fill:#b7b7c4;stroke:#000;stroke-width:2" d="M493,107 l-56,0 0,51 56,0 0,-51z" />
<path style="fill:#b7b7c4;stroke:#000;stroke-width:2" d="M477,28 l-23,0 0,79 23,0 0,-79z" />
<path style="fill:#ccc;stroke:#000;stroke-width:2" d="M661,918 l-62,-57 -356,0 -68,57 486,0z" />
<path style="fill:#999;stroke:#000;stroke-width:2" d="M661,918 l-486,0 0,52 109,0 0,-15 268,0 0,15 109,0 0,-52z" />
<path style="fill:#7f7f7f" d="M231,561 l-192,0 -4,4 -2,4 -3,7 -2,10 0,9 0,12 0,9 2,10 3,7 2,6 4,2 192,0 0,-80z" />
<path style="fill:#8c8c8c" d="M231,567 l-192,0 -2,4 -4,3 -2,6 -1,8 -2,9 0,10 2,7 1,8 2,5 4,6 2,2 192,0 0,-68z" />
<path style="fill:#999" d="M231,574 l-192,0 -2,2 -4,4 -2,4 -1,7 -2,6 0,8 2,7 1,6 2,5 4,4 2,2 192,0 0,-55z" />
<path style="fill:#a6a6a6" d="M231,580 l-192,0 -2,2 -4,2 -2,4 -1,5 -2,6 0,6 2,5 1,4 2,4 4,4 2,1 192,0 0,-43z" />
<path style="fill:#b2b2b2" d="M231,586 l-192,0 -2,2 -4,2 -2,1 -1,4 -2,4 0,4 2,4 1,3 2,4 4,2 2,2 192,0 0,-32z" />
<path style="fill:#bfbfbf" d="M231,591 l-192,0 -2,0 -4,2 -2,2 -1,2 -2,4 0,2 2,2 1,2 2,1 4,2 2,0 192,0 0,-19z" />
<ellipse style="fill:#ccc" cx="129" cy="601" rx="101" ry="4" />
<path style="fill:none;stroke:#000;stroke-width:2" d="M231,561 l-192,0 -4,4 -2,4 -3,7 -2,10 0,9 0,12 0,9 2,10 3,7 2,6 4,2 192,0 0,-80" />
<path style="fill:#7f7f7f" d="M246,699 l-190,0 -4,4 -4,5 -2,10 -1,13 -2,13 0,13 2,14 1,11 2,11 4,6 4,4 190,0 0,-104z" />
<path style="fill:#8c8c8c" d="M246,706 l-190,0 -4,4 -4,6 -2,7 -1,10 0,13 0,11 0,12 1,9 2,8 4,7 4,2 190,0 0,-89z" />
<path style="fill:#999" d="M246,714 l-190,0 -4,4 -4,3 -2,8 -1,8 0,9 0,10 0,9 1,7 2,8 4,6 4,2 190,0 0,-74z" />
<path style="fill:#a6a6a6" d="M246,721 l-190,0 -4,2 -4,4 -2,6 -1,7 0,8 0,6 0,7 1,8 2,5 4,4 4,2 190,0 0,-59z" />
<path style="fill:#b2b2b2" d="M246,731 l-190,0 -4,0 -4,4 -2,4 -1,3 0,6 0,6 0,5 1,4 2,4 4,4 4,1 190,0 0,-41z" />
<path style="fill:#bfbfbf" d="M246,739 l-190,0 -4,0 -4,1 -2,2 -1,4 0,4 0,2 0,4 1,3 2,2 4,2 4,0 190,0 0,-24z" />
<ellipse style="fill:#ccc" cx="144" cy="751" rx="101" ry="5" />
<path style="fill:none;stroke:#000;stroke-width:2" d="M246,699 l-190,0 -4,4 -4,5 -2,10 -1,13 -2,13 0,13 2,14 1,11 2,11 4,6 4,4 190,0 0,-104" />
<path style="fill:#4c4c4c;stroke:#000;stroke-width:2" d="M122,184 l21,0 0,-105 -21,0 0,105z" />
<path style="fill:#4c4c4c;stroke:#000;stroke-width:2" d="M222,137 l0,11 366,0 0,-11 -366,0z" />
<path style="fill:none;stroke:#000;stroke-width:2" d="M750,358 l0,62 -10,17" />
<path style="fill:none;stroke:#000;stroke-width:2" d="M635,384 l-4,-38 -32,-30" />
<path style="fill:#7f7f7f" d="M584,803 l192,0 4,-4 2,-8 2,-9 2,-11 2,-14 0,-13 -2,-13 -2,-13 -2,-10 -2,-7 -4,-2 -192,0 0,104z" />
<path style="fill:#8c8c8c" d="M584,795 l192,0 2,-4 4,-5 2,-8 2,-11 2,-11 0,-12 -2,-11 -2,-10 -2,-9 -4,-6 -2,-2 -192,0 0,89z" />
<path style="fill:#999" d="M584,788 l192,0 2,-4 4,-4 2,-8 2,-7 2,-9 0,-10 -2,-9 -2,-10 -2,-6 -4,-5 -2,-2 -192,0 0,74z" />
<path style="fill:#a6a6a6" d="M584,778 l192,0 2,-2 4,-4 2,-5 2,-6 2,-7 0,-8 -2,-7 -2,-6 -2,-6 -4,-4 -2,-2 -192,0 0,57z" />
<path style="fill:#b2b2b2" d="M584,771 l192,0 2,-2 4,-2 2,-4 2,-6 2,-3 0,-6 -2,-6 -2,-5 -2,-4 -4,-2 -2,-2 -192,0 0,42z" />
<path style="fill:#bfbfbf" d="M584,763 l192,0 2,0 4,-2 2,-4 2,-1 2,-4 0,-4 -2,-2 -2,-4 -2,-2 -4,-1 -2,-2 -192,0 0,26z" />
<ellipse style="fill:#ccc" cx="686" cy="751" rx="102" ry="5" />
<path style="fill:none;stroke:#000;stroke-width:2" d="M584,803 l192,0 4,-4 2,-8 2,-9 2,-11 2,-14 0,-13 -2,-13 -2,-13 -2,-10 -2,-7 -4,-2 -192,0 0,104" />
<path style="fill:#7f7f7f" d="M572,656 l193,0 2,-4 4,-6 1,-11 2,-12 2,-13 0,-13 -2,-13 -2,-13 -1,-10 -4,-5 -2,-4 -193,0 0,104z" />
<path style="fill:#8c8c8c" d="M572,648 l191,0 4,-4 4,-5 1,-8 2,-11 2,-12 0,-11 -2,-11 -2,-10 -1,-9 -4,-6 -4,-2 -191,0 0,89z" />
<path style="fill:#999" d="M572,641 l191,0 4,-4 4,-4 1,-7 2,-8 2,-10 0,-9 -2,-9 -2,-10 -1,-6 -4,-5 -4,-2 -191,0 0,74z" />
<path style="fill:#a6a6a6" d="M572,633 l191,0 4,-2 4,-5 1,-4 2,-8 2,-7 0,-8 -2,-8 -2,-5 -1,-6 -4,-4 -4,-2 -191,0 0,59z" />
<path style="fill:#b2b2b2" d="M572,623 l191,0 4,0 4,-3 1,-4 2,-4 2,-5 0,-6 -2,-6 -2,-4 -1,-5 -4,-2 -4,-2 -191,0 0,41z" />
<path style="fill:#bfbfbf" d="M572,616 l191,0 4,0 4,-2 1,-4 2,-2 2,-3 0,-4 -2,-2 -2,-4 -1,-2 -4,-2 -4,0 -191,0 0,25z" />
<ellipse style="fill:#ccc" cx="674" cy="603" rx="102" ry="4" />
<path style="fill:none;stroke:#000;stroke-width:2" d="M572,656 l193,0 2,-4 4,-6 1,-11 2,-12 2,-13 0,-13 -2,-13 -2,-13 -1,-10 -4,-5 -2,-4 -193,0 0,104" />
<path style="fill:#ffccab;stroke:#000;stroke-width:2" d="M720,358 l-48,0 0,9 48,0 0,-9z" />
<path style="fill:#ffccab;stroke:#000;stroke-width:2" d="M818,352 l-51,0 0,11 51,0 0,-11z" />
<path style="fill:#4c4c4c;stroke:#000;stroke-width:2" d="M776,316 l-36,0 0,57 36,0 0,-57z" />
<path style="fill:#191919" d="M578,243 l-441,0 0,560 100,0 0,100 341,0 0,-660z" />
<path style="fill:#ccc" d="M305,143 l-168,0 0,188 168,0 0,-188z" />
<path style="fill:#c7c7c7" d="M305,277 l-168,-80 0,134 168,0 0,-54z" />
<path style="fill:#c2c2c2" d="M305,284 l-168,-79 0,126 168,0 0,-47z" />
<path style="fill:#bdbdbd" d="M305,295 l-168,-77 0,113 168,0 0,-36z" />
<path style="fill:none;stroke:#000;stroke-width:2" d="M305,143 l-168,0 0,188 168,0 0,-188" />
<path style="fill:#333" d="M252,169 l-47,0 0,36 47,0 0,-36z" />
<path style="fill:#ccc" d="M331,452 l-230,0 0,277 230,0 0,-277z" />
<path style="fill:#c7c7c7" d="M331,648 l-230,-115 0,196 230,0 0,-81z" />
<path style="fill:#c2c2c2" d="M331,661 l-230,-117 0,185 230,0 0,-68z" />
<path style="fill:#bdbdbd" d="M331,678 l-230,-117 0,168 230,0 0,-51z" />
<path style="fill:none;stroke:#000;stroke-width:2" d="M331,452 l-230,0 0,277 230,0 0,-277" />
<path style="fill:#000" d="M295,499 l-85,0 0,79 85,0 0,-79z" />
<path style="fill:#000" d="M269,607 l-32,0 0,28 32,0 0,-28z" />
<path style="fill:#8c8c99" d="M435,805 l21,1 19,0 18,-1 19,-6 14,-8 9,-9 6,-11 0,-583 -6,-9 -9,-10 -14,-7 -19,-6 -18,-2 -19,0 -21,2 -17,6 -13,7 -12,10 -3,9 0,583 3,11 12,9 13,8 17,6z" />
<path style="fill:#9494a1" d="M441,805 l15,1 17,0 17,-1 15,-6 11,-8 10,-9 3,-11 0,-583 -3,-9 -10,-10 -11,-7 -15,-6 -17,-2 -17,0 -15,2 -15,6 -14,7 -7,10 -4,9 0,583 4,11 7,9 14,8 15,6z" />
<path style="fill:#9e9eab" d="M444,805 l13,1 14,0 15,-1 11,-6 10,-8 7,-9 4,-11 0,-583 -4,-9 -7,-10 -10,-7 -11,-6 -15,-2 -14,0 -13,2 -13,6 -9,7 -6,10 -6,9 0,583 6,11 6,9 9,8 13,6z" />
<path style="fill:#a5a5b2" d="M448,805 l11,1 12,0 9,-1 10,-6 7,-8 6,-9 4,-11 0,-583 -4,-9 -6,-10 -7,-7 -10,-6 -9,-2 -12,0 -11,2 -9,6 -8,7 -5,10 -4,9 0,583 4,11 5,9 8,8 9,6z" />
<path style="fill:#adadba" d="M452,805 l9,1 8,0 8,-1 7,-6 6,-8 3,-9 2,-11 0,-583 -2,-9 -3,-10 -6,-7 -7,-6 -8,-2 -8,0 -9,2 -6,6 -5,7 -4,10 -2,9 0,583 2,11 4,9 5,8 6,6z" />
<path style="fill:#b7b7c4" d="M457,805 l4,1 6,0 6,-1 4,-6 3,-8 2,-9 2,-11 0,-583 -2,-9 -2,-10 -3,-7 -4,-6 -6,-2 -6,0 -4,2 -5,6 -2,7 -4,10 -2,9 0,583 2,11 4,9 2,8 5,6z" />
<ellipse style="fill:#bfbfcc" cx="465" cy="480" rx="8" ry="326" />
<path style="fill:none;stroke:#000;stroke-width:2" d="M435,805 l21,1 19,0 18,-1 19,-6 14,-8 9,-9 6,-11 0,-583 -6,-9 -9,-10 -14,-7 -19,-6 -18,-2 -19,0 -21,2 -17,6 -13,7 -12,10 -3,9 0,583 3,11 12,9 13,8 17,6" />
<path style="fill:#a5a5b2" d="M603,75 l-21,0 0,816 21,0 0,-816z" />
<path style="fill:#f2f2ff" d="M599,75 l-11,0 0,816 11,0 0,-816z" />
<path style="fill:none;stroke:#000;stroke-width:2" d="M603,75 l-21,0 0,816 21,0 0,-816" />
<path style="fill:#a5a5b2" d="M363,75 l-20,0 0,816 20,0 0,-816z" />
<path style="fill:#f2f2ff" d="M358,75 l-12,0 0,816 12,0 0,-816z" />
<path style="fill:none;stroke:#000;stroke-width:2" d="M363,75 l-20,0 0,816 20,0 0,-816" />
<path style="fill:#7f99cc" d="M763,273 l9,2 10,0 9,-2 8,-2 7,-2 4,-4 4,-4 0,-205 -4,-4 -4,-4 -7,-2 -8,-1 -9,-2 -10,0 -9,2 -9,1 -6,2 -6,4 -2,4 0,205 2,4 6,4 6,2 9,2z" />
<path style="fill:#8ca6d9" d="M765,273 l7,2 8,0 10,-2 5,-2 8,-2 3,-4 2,-4 0,-205 -2,-4 -3,-4 -8,-2 -5,-1 -10,-2 -8,0 -7,2 -8,1 -5,2 -4,4 -4,4 0,205 4,4 4,4 5,2 8,2z" />
<path style="fill:#a5bff2" d="M769,273 l5,2 6,0 6,-2 4,-2 3,-2 4,-4 0,-4 0,-205 0,-4 -4,-4 -3,-2 -4,-1 -6,-2 -6,0 -5,2 -6,1 -4,2 -2,4 -1,4 0,205 1,4 2,4 4,2 6,2z" />
<path style="fill:none;stroke:#000;stroke-width:2" d="M763,273 l9,2 10,0 9,-2 8,-2 7,-2 4,-4 4,-4 0,-205 -4,-4 -4,-4 -7,-2 -8,-1 -9,-2 -10,0 -9,2 -9,1 -6,2 -6,4 -2,4 0,205 2,4 6,4 6,2 9,2" />
<path style="fill:#7f99cc" d="M669,273 l7,2 12,0 9,-2 8,-2 7,-2 4,-4 2,-4 0,-205 -2,-4 -4,-4 -7,-2 -8,-1 -9,-2 -12,0 -7,2 -10,1 -5,2 -6,4 -2,4 0,205 2,4 6,4 5,2 10,2z" />
<path style="fill:#8ca6d9" d="M671,273 l7,2 8,0 7,-2 8,-2 5,-2 6,-4 2,-4 0,-205 -2,-4 -6,-4 -5,-2 -8,-1 -7,-2 -8,0 -7,2 -8,1 -6,2 -5,4 -2,4 0,205 2,4 5,4 6,2 8,2z" />
<path style="fill:#a5bff2" d="M674,273 l6,2 6,0 4,-2 5,-2 4,-2 4,-4 0,-4 0,-205 0,-4 -4,-4 -4,-2 -5,-1 -4,-2 -6,0 -6,2 -5,1 -4,2 -2,4 -2,4 0,205 2,4 2,4 4,2 5,2z" />
<path style="fill:none;stroke:#000;stroke-width:2" d="M669,273 l7,2 12,0 9,-2 8,-2 7,-2 4,-4 2,-4 0,-205 -2,-4 -4,-4 -7,-2 -8,-1 -9,-2 -12,0 -7,2 -10,1 -5,2 -6,4 -2,4 0,205 2,4 6,4 5,2 10,2" />
<path style="fill:#a5a5b2" d="M158,54 l0,21 730,0 0,-21 -730,0z" />
<path style="fill:#f2f2ff" d="M158,60 l0,9 730,0 0,-9 -730,0z" />
<path style="fill:none;stroke:#000;stroke-width:2" d="M158,54 l0,21 730,0 0,-21 -730,0" />
<path style="fill:#7f7f7f" d="M788,358 l0,-83 -21,0 0,83 21,0z" />
<path style="fill:#ccc" d="M784,358 l0,-83 -13,0 0,83 13,0z" />
<path style="fill:#7f7f7f" d="M693,723 l0,-448 -21,0 0,448 21,0z" />
<path style="fill:#ccc" d="M690,723 l0,-448 -14,0 0,448 14,0z" />
<circle style="fill:#999;stroke:#000;stroke-width:2" cx="643" cy="407" r="23" />
<path style="fill:none;stroke:#000;stroke-width:2" d="M788,358 l0,-83 -21,0 0,83 21,0" />
<path style="fill:none;stroke:#000;stroke-width:2" d="M693,723 l0,-448 -21,0 0,448 21,0" />
<path style="fill:#f2e5cc;stroke:#000;stroke-width:2" d="M661,541 l-15,-27 0,-83 -5,0 0,83 -15,27 -23,0 0,16 17,0 11,21 25,0 11,-21 126,0 0,-16 -47,0 0,-42 -6,0 0,42 -79,0z" />
<path style="fill:none;stroke:#000;stroke-width:2" d="M740,437 l-20,9 -27,0" />
<circle style="fill:#999;stroke:#000;stroke-width:2" cx="742" cy="486" r="13" />
<path style="fill:#b7b7c4" d="M488,708 l-47,0 0,204 47,0 0,-204z" />
<path style="fill:#333" d="M652,929 l-91,0 0,30 91,0 0,-30z" />
<path style="fill:#333" d="M275,929 l-91,0 0,30 91,0 0,-30z" />
<path style="fill:#333" d="M552,923 l-268,0 0,27 268,0 0,-27z" />
<path style="fill:none;stroke:#000;stroke-width:2" d="M488,708 l0,204 -47,0 0,-204" />
<path style="fill:#7f7f7f;stroke:#000;stroke-width:2" d="M231,452 l-21,0 0,-121 21,0 0,121z" />
<path style="fill:#7f7f7f;stroke:#000;stroke-width:2" d="M231,891 l-21,0 0,-162 21,0 0,162z" />
<path style="fill:#e5e5e5" d="M499,331 l-68,0 0,68 68,0 0,-68z" />
<path style="fill:none;stroke:#fff;stroke-width:2" d="M499,399 l0,-68 -68,0" />
<path style="fill:none;stroke:#999;stroke-width:2" d="M499,399 l-68,0 0,-68" />

</svg>
