 

<svg xmlns:agg="http://www.example.com" xmlns="http://www.w3.org/2000/svg" preserveAspectRatio="none" width="0.4251in" height="1.0750in" viewBox="0 0 395 999">

<path style="fill:#4c4c4c" d="M92,459 l177,0 0,217 -177,0 0,-217z" />
<path style="fill:#b2b2b2;stroke:#000;stroke-width:2" d="M73,303 l215,0 0,156 -215,0 0,-156z" />
<path style="fill:#ccc" d="M83,949 l0,-214 195,0 0,214 -18,0 0,-117 -159,0 0,117 -18,0z" />
<path style="fill:#e5e5e5" d="M62,814 l21,0 0,18 -21,0 0,-18z" />
<path style="fill:#999" d="M62,832 l21,0 0,19 -21,0 0,-19z" />
<path style="fill:none;stroke:#000;stroke-width:2" d="M62,814 l21,0 0,37 -21,0 0,-37" />
<path style="fill:#e5e5e5" d="M278,814 l19,0 0,18 -19,0 0,-18z" />
<path style="fill:#999" d="M278,832 l19,0 0,19 -19,0 0,-19z" />
<path style="fill:none;stroke:#000;stroke-width:2" d="M278,814 l19,0 0,37 -19,0 0,-37" />
<path style="fill:#b2b2b2" d="M83,832 l18,0 0,117 -18,0 0,-117z" />
<path style="fill:#b2b2b2" d="M258,832 l20,0 0,117 -20,0 0,-117z" />
<path style="fill:none;stroke:#000;stroke-width:2" d="M83,949 l0,-214 195,0 0,214 -18,0 0,-117 -159,0 0,117 -18,0" />
<path style="fill:#ccc;stroke:#000;stroke-width:2" d="M43,814 l19,0 0,156 -19,0 0,-156z" />
<path style="fill:#ccc;stroke:#000;stroke-width:2" d="M297,814 l21,0 0,156 -21,0 0,-156z" />
<path style="fill:#ccc;stroke:#000;stroke-width:2" d="M67,676 l227,0 0,59 -227,0 0,-59z" />
<path style="fill:none;stroke:#7f7f7f;stroke-width:2" d="M67,714 l227,0" />
<path style="fill:#ccc" d="M122,714 l117,0 0,60 -117,0 0,-60z" />
<path style="fill:none;stroke:#fff;stroke-width:2" d="M122,774 l0,-60 117,0" />
<path style="fill:none;stroke:#7f7f7f;stroke-width:2" d="M122,774 l117,0 0,-60" />
<path style="fill:#4c4c4c" d="M171,735 l19,0 0,18 -19,0 0,-18z" />
<path style="fill:#4c4c4c" d="M113,303 l135,0 0,77 -135,0 0,-77z" />
<path style="fill:#ccc" d="M73,107 l215,0 0,196 -215,0 0,-196z" />
<path style="fill:#c4c4c4" d="M73,245 l215,-79 0,137 -215,0 0,-58z" />
<path style="fill:none;stroke:#000;stroke-width:2" d="M73,107 l215,0 0,196 -215,0 0,-196" />
<path style="fill:#999;stroke:#000;stroke-width:2" d="M73,459 l19,0 0,217 -19,0 0,-217z" />
<path style="fill:#999;stroke:#000;stroke-width:2" d="M269,459 l19,0 0,217 -19,0 0,-217z" />
<path style="fill:#ccc" d="M83,539 l195,0 0,-21 -18,-19 0,-119 -159,0 0,119 -18,19 0,21z" />
<path style="fill:#e5e5e5" d="M278,518 l-18,-19 -159,0 -18,19 195,0z" />
<path style="fill:none;stroke:#000;stroke-width:2" d="M83,539 l195,0 0,-21 -18,-19 0,-119 -159,0 0,119 -18,19 0,21" />
<path style="fill:none;stroke:#fff;stroke-width:2" d="M239,401 l0,77 -117,0" />
<path style="fill:none;stroke:#7f7f7f;stroke-width:2" d="M239,401 l-117,0 0,77" />
<path style="fill:#b2b2b2;stroke:#000;stroke-width:2" d="M49,695 l13,0 0,119 -13,0 0,-119z" />
<path style="fill:#b2b2b2;stroke:#000;stroke-width:2" d="M297,695 l16,0 0,119 -16,0 0,-119z" />
<path style="fill:#b2b2b2" d="M28,107 l45,0 0,236 -45,0 0,-236z" />
<path style="fill:#bfbfbf" d="M28,107 l45,0 0,62 -45,0 0,-62z" />
<path style="fill:#ccc" d="M28,107 l45,0 0,43 -45,0 0,-43z" />
<path style="fill:#d9d9d9" d="M28,107 l45,0 0,24 -45,0 0,-24z" />
<path style="fill:#e5e5e5" d="M28,107 l45,0 0,9 -45,0 0,-9z" />
<path style="fill:none;stroke:#000;stroke-width:2" d="M28,107 l45,0 0,236 -45,0 0,-236" />
<path style="fill:#7f7f7f" d="M288,28 l79,0 0,392 -79,0 0,-392z" />
<path style="fill:#878787" d="M288,45 l79,0 0,358 -79,0 0,-358z" />
<path style="fill:#8f8f8f" d="M288,62 l79,0 0,324 -79,0 0,-324z" />
<path style="fill:#969696" d="M288,79 l79,0 0,290 -79,0 0,-290z" />
<path style="fill:#9e9e9e" d="M288,96 l79,0 0,256 -79,0 0,-256z" />
<path style="fill:#a6a6a6" d="M288,112 l79,0 0,223 -79,0 0,-223z" />
<path style="fill:#adadad" d="M288,129 l79,0 0,187 -79,0 0,-187z" />
<path style="fill:#b5b5b5" d="M288,148 l79,0 0,151 -79,0 0,-151z" />
<path style="fill:#bdbdbd" d="M288,166 l79,0 0,116 -79,0 0,-116z" />
<path style="fill:#c4c4c4" d="M288,182 l79,0 0,83 -79,0 0,-83z" />
<path style="fill:#ccc" d="M288,199 l79,0 0,49 -79,0 0,-49z" />
<path style="fill:none;stroke:#000;stroke-width:2" d="M288,28 l79,0 0,392 -79,0 0,-392" />
<path style="fill:#333" d="M264,343 l24,0 0,67 -24,0 0,-67z" />
<path style="fill:#ccc" d="M264,312 l24,0 0,31 -24,0 0,-31z" />
<path style="fill:none;stroke:#000;stroke-width:2" d="M264,312 l24,0 0,98 -24,0 0,-98" />
<path style="fill:#b2b2b2;stroke:#000;stroke-width:2" d="M83,28 l28,0 0,79 -28,0 0,-79z" />
<path style="fill:#7f7f7f" d="M111,37 l177,0 0,30 -177,0 0,-30z" />
<path style="fill:#949494" d="M113,39 l175,0 0,27 -175,0 0,-27z" />
<path style="fill:#ababab" d="M113,41 l175,0 0,22 -175,0 0,-22z" />
<path style="fill:#bfbfbf" d="M113,45 l175,0 0,15 -175,0 0,-15z" />
<path style="fill:#d4d4d4" d="M113,47 l175,0 0,11 -175,0 0,-11z" />
<path style="fill:#ebebeb" d="M113,49 l175,0 0,7 -175,0 0,-7z" />
<path style="fill:#fff" d="M111,50 l177,0 0,4 -177,0 0,-4z" />
<path style="fill:none;stroke:#000;stroke-width:2" d="M111,37 l177,0 0,30 -177,0 0,-30" />
<path style="fill:#7f7f7f" d="M111,71 l177,0 0,15 -177,0 0,-15z" />
<path style="fill:#949494" d="M111,73 l177,0 0,13 -177,0 0,-13z" />
<path style="fill:#ababab" d="M111,75 l177,0 0,9 -177,0 0,-9z" />
<path style="fill:#bfbfbf" d="M111,75 l177,0 0,7 -177,0 0,-7z" />
<path style="fill:#d4d4d4" d="M111,77 l177,0 0,5 -177,0 0,-5z" />
<path style="fill:#ebebeb" d="M111,77 l177,0 0,3 -177,0 0,-3z" />
<path style="fill:#fff" d="M111,79 l177,0 0,1 -177,0 0,-1z" />
<path style="fill:none;stroke:#000;stroke-width:2" d="M111,71 l177,0 0,15 -177,0 0,-15" />
<path style="fill:#999;stroke:#000;stroke-width:2" d="M199,376 l0,-20 6,0 0,-19 4,0 0,-19 -59,0 0,19 6,0 0,19 4,0 0,20 39,0z" />
<path style="fill:none;stroke:#666;stroke-width:2" d="M160,337 l39,0" />
<path style="fill:none;stroke:#666;stroke-width:2" d="M166,356 l30,0" />
<path style="fill:#333" d="M147,420 l68,0 0,54 -68,0 0,-54z" />
<path style="fill:#e5e5e5" d="M152,441 l59,0 0,28 -59,0 0,-28z" />

</svg>
