 

<svg xmlns:agg="http://www.example.com" xmlns="http://www.w3.org/2000/svg" preserveAspectRatio="none" width="0.8953in" height="1.0750in" viewBox="0 0 832 999">

<path style="fill:#ccccbd;stroke:#000;stroke-width:2" d="M450,754 l187,0 0,186 -187,0 0,-186z" />
<path style="fill:#ccccbd;stroke:#000;stroke-width:2" d="M67,911 l236,0 0,39 -236,0 0,-39z" />
<path style="fill:#ccccbd;stroke:#000;stroke-width:2" d="M67,499 l20,-79 196,0 20,79 -236,0z" />
<path style="fill:#330" d="M656,941 l-10,0 0,-678 10,0 0,678z" />
<path style="fill:#330" d="M391,941 l-10,0 0,-678 10,0 0,678z" />
<path style="fill:#666638;stroke:#000;stroke-width:2" d="M303,293 l19,0 0,-89 -19,0 0,89z" />
<path style="fill:#b2b29b" d="M308,293 l9,0 0,-89 -9,0 0,89z" />
<path style="fill:#b2b29b;stroke:#000;stroke-width:2" d="M342,185 l432,0 0,78 -432,0 0,-78z" />
<path style="fill:#b2b29b;stroke:#000;stroke-width:2" d="M67,499 l236,0 0,412 -236,0 0,-412z" />
<path style="fill:#b2b29b;stroke:#000;stroke-width:2" d="M656,941 l39,0 0,-678 -39,0 0,678z" />
<path style="fill:#b2b29b;stroke:#000;stroke-width:2" d="M342,941 l39,0 0,-678 -39,0 0,678z" />
<path style="fill:#b2b29b;stroke:#000;stroke-width:2" d="M322,941 l393,0 0,9 -393,0 0,-9z" />
<path style="fill:#b2b29b;stroke:#000;stroke-width:2" d="M28,950 l707,0 0,20 -707,0 0,-20z" />
<path style="fill:#7f7f59;stroke:#000;stroke-width:2" d="M401,204 l275,0 0,59 -275,0 0,-59z" />
<path style="fill:#666;stroke:#000;stroke-width:2" d="M224,464 l17,9 17,-9 0,-8 -34,0 0,8z" />
<path style="fill:#666;stroke:#000;stroke-width:2" d="M224,481 l17,8 17,-8 0,-8 -34,0 0,8z" />
<path style="fill:#666;stroke:#000;stroke-width:2" d="M191,481 l16,8 17,-8 0,-8 -33,0 0,8z" />
<path style="fill:#666;stroke:#000;stroke-width:2" d="M191,464 l16,9 17,-9 0,-8 -33,0 0,8z" />
<path style="fill:#666;stroke:#000;stroke-width:2" d="M122,447 l16,9 17,-9 0,-8 -33,0 0,8z" />
<path style="fill:#666;stroke:#000;stroke-width:2" d="M122,481 l16,8 17,-8 0,-8 -33,0 0,8z" />
<path style="fill:#666;stroke:#000;stroke-width:2" d="M122,464 l16,9 17,-9 0,-8 -33,0 0,8z" />
<path style="fill:#997a7a;stroke:#000;stroke-width:2" d="M224,456 l17,8 17,-8 -17,-9 -17,9z" />
<path style="fill:#7a9999;stroke:#000;stroke-width:2" d="M224,473 l17,8 17,-8 -17,-9 -17,9z" />
<path style="fill:#e5e5e5;stroke:#000;stroke-width:2" d="M191,456 l16,8 17,-8 -17,-9 -16,9z" />
<path style="fill:#e5e5e5;stroke:#000;stroke-width:2" d="M191,473 l16,8 17,-8 -17,-9 -16,9z" />
<path style="fill:#e5e5e5;stroke:#000;stroke-width:2" d="M122,473 l16,8 17,-8 -17,-9 -16,9z" />
<path style="fill:#e5e5e5;stroke:#000;stroke-width:2" d="M122,456 l16,8 17,-8 -17,-9 -16,9z" />
<path style="fill:#e5e5e5;stroke:#000;stroke-width:2" d="M122,439 l16,8 17,-8 -17,-8 -16,8z" />
<path style="fill:#7f7f59" d="M342,28 l314,0 0,59 -314,0 0,-59z" />
<path style="fill:#b2b29b;stroke:#000;stroke-width:2" d="M342,87 l245,0 0,98 -245,0 0,-98z" />
<path style="fill:#99997a;stroke:#000;stroke-width:2" d="M538,87 l40,0 0,98 -40,0 0,-98z" />
<path style="fill:#99997a;stroke:#000;stroke-width:2" d="M420,87 l40,0 0,98 -40,0 0,-98z" />
<circle style="fill:#99997a" cx="543" cy="847" r="74" />
<path style="fill:#b2b29b;stroke:#000;stroke-width:2" d="M450,695 l128,0 0,59 -128,0 0,-59z" />
<path style="fill:#b2b2aa;stroke:#000;stroke-width:2" d="M430,646 l167,0 0,49 -167,0 0,-49z" />
<path style="fill:#330" d="M450,646 l0,-117 -30,-109 0,-196 197,0 0,196 -39,109 0,117 -128,0z" />
<path style="fill:#404005" d="M464,646 l0,-118 -23,-108 0,-196 156,0 0,196 -31,108 0,118 -102,0z" />
<path style="fill:#4c4c16" d="M471,646 l0,-118 -21,-108 -1,-196 138,0 1,196 -28,108 0,118 -89,0z" />
<path style="fill:#595926" d="M484,646 l0,-118 -15,-108 0,-196 99,0 0,196 -19,108 0,118 -65,0z" />
<path style="fill:#666638" d="M505,646 l0,-117 -6,-109 0,-196 39,0 0,196 -8,109 0,117 -25,0z" />
<path style="fill:none;stroke:#000;stroke-width:2" d="M450,646 l0,-117 -30,-109 0,-196 197,0 0,196 -39,109 0,117 -128,0" />
<path style="fill:#919170" d="M376,28 l246,0 0,58 -246,0 0,-58z" />
<path style="fill:#a6a68a" d="M391,28 l216,0 0,58 -216,0 0,-58z" />
<path style="fill:#b8b8a4" d="M430,28 l138,0 0,58 -138,0 0,-58z" />
<path style="fill:#ccccbd" d="M469,28 l60,0 0,59 -60,0 0,-59z" />
<path style="fill:none;stroke:#000;stroke-width:2" d="M342,28 l314,0 0,59 -314,0 0,-59" />
<path style="fill:none;stroke:#000;stroke-width:2" d="M420,303 l197,0" />
<path style="fill:none;stroke:#000;stroke-width:2" d="M420,401 l197,0" />
<path style="fill:none;stroke:#000;stroke-width:2" d="M617,420 l-197,0" />
<path style="fill:none;stroke:#000;stroke-width:2" d="M578,529 l-128,0" />
<path style="fill:none;stroke:#000;stroke-width:2" d="M430,666 l167,0" />
<path style="fill:none;stroke:#000;stroke-width:2" d="M597,676 l-167,0" />
<path style="fill:#e5e5dd;stroke:#000;stroke-width:2" d="M774,254 l29,-1 0,-59 -29,1 0,9 20,0 0,40 -20,0 0,10z" />
<path style="fill:#4c4c16;stroke:#000;stroke-width:2" d="M494,209 l49,0 0,15 -49,0 0,-15z" />
<path style="fill:#b2b2b2;stroke:#000;stroke-width:2" d="M293,303 l39,0 0,58 -39,0 0,-58z" />
<path style="fill:#b2b2b2;stroke:#000;stroke-width:2" d="M617,234 l-569,0 0,10 137,0 235,10 197,0 0,-20z" />
<path style="fill:#ccccbd;stroke:#000;stroke-width:2" d="M391,303 l-157,0 0,-79 10,0 0,69 147,0 0,10z" />
<path style="fill:#ccccbd;stroke:#000;stroke-width:2" d="M352,401 l0,-40 -69,1 0,9 49,0 0,30 20,0z" />
<path style="fill:none;stroke:#4c4c16;stroke-width:2" d="M106,420 l-9,79 0,412" />
<path style="fill:none;stroke:#4c4c16;stroke-width:2" d="M273,911 l0,-412 -10,-79" />
<path style="fill:none;stroke:#4c4c16;stroke-width:2" d="M116,538 l138,0 0,334 -138,0 0,-334" />
<path style="fill:#ccccbd;stroke:#ccccbd;stroke-width:2" d="M136,578 l98,0 0,9 -98,0 0,-9z" />
<path style="fill:#000" d="M214,578 l20,0 0,9 -20,0 0,-9z" />
<path style="fill:#000" d="M136,578 l10,0 0,9 -10,0 0,-9z" />
<path style="fill:#000" d="M151,578 l19,0 0,9 -19,0 0,-9z" />
<path style="fill:#000" d="M175,578 l34,0 0,9 -34,0 0,-9z" />
<path style="fill:#000" d="M134,719 l-7,-15 14,-14 14,14 -7,15 -7,50 -7,-50z" />
<path style="fill:none;stroke:#fff;stroke-width:2" d="M420,244 l197,0" />

</svg>
