 

<svg xmlns:agg="http://www.example.com" xmlns="http://www.w3.org/2000/svg" preserveAspectRatio="none" width="0.7508in" height="1.0750in" viewBox="0 0 697 998">

<path style="fill:#7f7f7f;stroke:#000;stroke-width:2" d="M603,320 l37,19 0,601 -37,0 0,-620z" />
<path style="fill:#7f7f7f;stroke:#000;stroke-width:2" d="M650,940 l-57,0 0,10 57,0 0,-10z" />
<path style="fill:#7f7f7f;stroke:#000;stroke-width:2" d="M94,320 l-36,19 0,601 36,0 0,-620z" />
<path style="fill:#7f7f7f;stroke:#000;stroke-width:2" d="M48,940 l55,0 0,10 -55,0 0,-10z" />
<path style="fill:#7f7f7f;stroke:#000;stroke-width:2" d="M603,733 l-507,0 0,19 507,0 0,-19z" />
<path style="fill:#ccc" d="M620,58 l-543,0 0,381 543,0 0,-381z" />
<path style="fill:#c7c7c7" d="M620,327 l-543,-158 0,270 543,0 0,-112z" />
<path style="fill:#c2c2c2" d="M620,344 l-543,-160 0,255 543,0 0,-95z" />
<path style="fill:#bdbdbd" d="M620,367 l-543,-158 0,230 543,0 0,-72z" />
<path style="fill:#b2b2b2" d="M620,439 l-242,301 -60,0 -241,-301 543,0z" />
<path style="fill:#ababab" d="M593,471 l-215,267 -60,0 -215,-267 490,0z" />
<path style="fill:#a6a6a6" d="M567,505 l-189,233 -60,0 -189,-233 438,0z" />
<path style="fill:#9e9e9e" d="M541,537 l-163,201 -60,0 -162,-201 385,0z" />
<path style="fill:#999" d="M514,571 l-136,167 -60,0 -136,-167 332,0z" />
<path style="fill:#919191" d="M488,603 l-110,135 -60,0 -109,-135 279,0z" />
<path style="fill:#8c8c8c" d="M461,635 l-83,103 -60,0 -83,-103 226,0z" />
<path style="fill:#858585" d="M435,669 l-57,69 -60,0 -57,-69 174,0z" />
<path style="fill:#7f7f7f" d="M409,703 l-31,37 -60,0 -30,-37 121,0z" />
<path style="fill:none;stroke:#000;stroke-width:2" d="M620,58 l-543,0 0,381 241,301 60,0 242,-301 0,-381" />
<path style="fill:#e5e5e5" d="M620,299 l39,19 0,643 -39,0 0,-662z" />
<path style="fill:#fff" d="M635,307 l9,4 0,650 -9,0 0,-654z" />
<path style="fill:none;stroke:#000;stroke-width:2" d="M620,299 l39,19 0,643 -39,0 0,-662" />
<path style="fill:#ccc;stroke:#000;stroke-width:2" d="M669,961 l-61,0 0,9 61,0 0,-9z" />
<path style="fill:#e5e5e5" d="M77,299 l-40,19 0,643 40,0 0,-662z" />
<path style="fill:#fff" d="M61,307 l-9,4 0,650 9,0 0,-654z" />
<path style="fill:none;stroke:#000;stroke-width:2" d="M77,299 l-40,19 0,643 40,0 0,-662" />
<path style="fill:#ccc;stroke:#000;stroke-width:2" d="M28,961 l60,0 0,9 -60,0 0,-9z" />
<path style="fill:#ccc;stroke:#000;stroke-width:2" d="M620,740 l-543,0 0,19 543,0 0,-19z" />
<path style="fill:#999" d="M569,399 l-281,0 0,-351 281,0 0,351z" />
<path style="fill:#ccc;stroke:#000;stroke-width:2" d="M639,48 l-581,0 0,10 581,0 0,-10z" />
<path style="fill:#999;stroke:#666;stroke-width:2" d="M359,378 l0,21 10,0 0,10 -40,0 0,-10 10,0 0,-21 20,0z" />
<path style="fill:#ccc" d="M578,28 l-279,0 0,350 279,0 0,-350z" />
<path style="fill:none;stroke:#fff;stroke-width:2" d="M578,378 l0,-350 -279,0" />
<path style="fill:none;stroke:#333;stroke-width:2" d="M578,378 l-279,0 0,-350" />

</svg>
