 

<svg xmlns:agg="http://www.example.com" xmlns="http://www.w3.org/2000/svg" preserveAspectRatio="none" width="0.9179in" height="1.0750in" viewBox="0 0 853 999">

<path style="fill:#0000e0" d="M784,738 l-41,0 -37,-6 -37,-11 -4,-4 -2,0 -31,-15 -28,-22 -106,-106 -15,-22 -2,-17 0,-2 0,244 10,16 113,110 28,24 37,17 37,13 37,5 41,0 28,-5 13,-13 0,-223 -13,11 -28,6z" />
<path style="fill:#0000ad" d="M717,719 l0,241 -11,-3 -37,-13 -37,-17 -17,-15 -11,-9 -113,-110 -6,-9 -4,-7 0,-244 19,41 104,106 28,22 31,15 54,2z" />
<path style="fill:#0000bf" d="M805,957 l0,-236 20,0 0,221 0,2 -13,13 -7,0z" />
<path style="fill:#00f;stroke:#000;stroke-width:2" d="M784,738 l-41,0 -37,-4 -37,-13 -37,-19 -28,-22 -106,-106 -15,-22 -2,-19 13,-11 28,-7 41,0 37,7 37,11 36,19 31,22 104,106 15,22 2,19 -13,13 -28,4z" />
<path style="fill:none;stroke:#000;stroke-width:2" d="M784,738 l-41,0 -37,-6 -37,-11 -4,-4 -2,0 -31,-15 -28,-22 -106,-106 -15,-22 -2,-17 0,-2 0,244 10,16 113,110 28,24 37,17 37,13 37,5 41,0 28,-5 13,-13 0,-223 -13,11 -28,6" />
<path style="fill:#f0f0f0;stroke:#000;stroke-width:2" d="M290,476 l49,52 7,24 0,252 -7,14 -49,-49 -223,-13 0,-252 223,-28z" />
<path style="fill:#f0f0f0;stroke:#000;stroke-width:2" d="M325,823 l-217,0 -26,-5 -50,-49 17,-2 217,0 26,2 50,49 -17,5z" />
<path style="fill:#f0f0f0;stroke:#000;stroke-width:2" d="M325,533 l-217,0 -22,19 0,252 22,19 217,0 19,-19 0,-252 -19,-19z" />
<path style="fill:#e0e0e0;stroke:#000;stroke-width:2" d="M325,533 l-217,0 -26,-5 -50,-52 17,-2 217,0 26,4 50,50 -17,5z" />
<path style="fill:#e0e0e0;stroke:#000;stroke-width:2" d="M32,476 l50,52 4,24 0,252 -4,14 -50,-49 -4,-26 0,-252 4,-15z" />
<path style="fill:#00007f" d="M634,229 l-143,0 0,334 143,0 0,-334z" />
<path style="fill:#0000e0" d="M626,229 l-59,0 0,334 59,0 0,-334z" />
<path style="fill:#00f" d="M619,229 l-11,0 0,334 11,0 0,-334z" />
<path style="fill:none;stroke:#000;stroke-width:2" d="M634,229 l-143,0 0,334 143,0 0,-334" />
<path style="fill:#006;stroke:#000;stroke-width:2" d="M491,561 l7,6 15,4 22,3 28,2 28,-2 22,-3 17,-4 4,-6 0,-16 -4,7 -17,5 -22,1 -28,3 -28,-3 -22,-1 -15,-5 -7,-7 0,16z" />
<path style="fill:#00007f" d="M266,229 l-141,0 0,275 141,0 0,-275z" />
<path style="fill:#0000e0" d="M257,229 l-58,0 0,275 58,0 0,-275z" />
<path style="fill:#00f" d="M253,229 l-11,0 0,275 11,0 0,-275z" />
<path style="fill:none;stroke:#000;stroke-width:2" d="M266,229 l-141,0 0,275 141,0 0,-275" />
<path style="fill:#006;stroke:#000;stroke-width:2" d="M123,502 l7,5 15,6 21,2 28,2 29,-2 24,-2 15,-6 6,-5 0,-15 -6,7 -15,4 -24,2 -29,2 -28,-2 -21,-2 -15,-4 -7,-7 0,15z" />
<path style="fill:#0000bf;stroke:#000;stroke-width:2" d="M117,205 l15,-69 36,-57 59,-36 67,-15 159,0 69,15 56,36 24,25 28,101 -102,48 -24,-24 0,-24 -15,-34 -36,-16 -159,0 -154,98 -23,-24 0,-24z" />
<path style="fill:#0000e0;stroke:#000;stroke-width:2" d="M140,229 l15,-69 38,-56 58,-37 67,-16 158,0 69,16 57,37 39,56 13,69 0,24 -128,0 2,-24 -15,-35 -37,-14 -158,0 -35,14 -15,35 0,24 -128,0 0,-24z" />
<path style="fill:#f0f0f0;stroke:#000;stroke-width:2" d="M463,624 l50,49 4,27 0,251 -4,15 -50,-50 -223,-13 0,-251 223,-28z" />
<path style="fill:#f0f0f0;stroke:#000;stroke-width:2" d="M498,970 l-217,0 -26,-4 -50,-50 18,-4 217,0 23,4 50,50 -15,4z" />
<path style="fill:#f0f0f0;stroke:#000;stroke-width:2" d="M498,680 l-217,0 -21,20 0,251 21,19 217,0 19,-19 0,-251 -19,-20z" />
<path style="fill:#e0e0e0;stroke:#000;stroke-width:2" d="M498,680 l-217,0 -26,-5 -50,-51 18,-3 217,0 23,5 50,49 -15,5z" />
<path style="fill:#e0e0e0;stroke:#000;stroke-width:2" d="M205,624 l50,49 5,27 0,251 -5,15 -50,-50 -6,-26 0,-251 6,-15z" />
<path style="fill:#00007f" d="M422,355 l-143,0 0,297 143,0 0,-297z" />
<path style="fill:#0000e0" d="M411,355 l-58,0 0,297 58,0 0,-297z" />
<path style="fill:#00f" d="M407,355 l-11,0 0,297 11,0 0,-297z" />
<path style="fill:none;stroke:#000;stroke-width:2" d="M422,355 l-143,0 0,297 143,0 0,-297" />
<path style="fill:#006;stroke:#000;stroke-width:2" d="M665,708 l4,5 15,6 24,2 28,2 28,-2 22,-2 15,-6 7,-5 0,-15 -7,7 -15,4 -22,2 -28,2 -28,-2 -24,-2 -15,-4 -4,-7 0,15z" />
<path style="fill:#006;stroke:#000;stroke-width:2" d="M277,650 l6,4 15,6 25,3 25,2 29,-2 23,-3 15,-6 7,-4 0,-16 -7,7 -15,4 -23,2 -29,3 -25,-3 -25,-2 -15,-4 -6,-7 0,16z" />
<path style="fill:#f60;stroke:#000;stroke-width:2" d="M554,613 l3,8 6,3 132,0 5,-3 2,-8 0,-172 -74,-4 -74,4 0,172z" />
<path style="fill:#e07a14;stroke:#000;stroke-width:2" d="M708,441 l-15,0 0,172 4,4 9,-6 2,-5 0,-165z" />
<path style="fill:#e07a14;stroke:#000;stroke-width:2" d="M693,441 l-13,-1 0,177 2,0 6,-4 5,-7 0,-165z" />
<path style="fill:#f93;stroke:#000;stroke-width:2" d="M675,440 l-8,0 0,177 2,0 6,-11 0,-166z" />
<path style="fill:#f93;stroke:#000;stroke-width:2" d="M663,440 l-11,-3 0,180 2,0 9,-11 0,-166z" />
<path style="fill:#f93;stroke:#000;stroke-width:2" d="M647,437 l-8,0 0,178 2,2 6,-11 0,-169z" />
<path style="fill:#bf1400;stroke:#000;stroke-width:2" d="M626,437 l4,0 2,0 0,169 -6,13 0,-4 0,-178z" />
<path style="fill:#bf1400;stroke:#000;stroke-width:2" d="M617,437 l-6,0 0,180 6,-11 0,-169z" />
<path style="fill:#bf1400;stroke:#000;stroke-width:2" d="M604,440 l-8,0 0,175 0,2 8,-11 0,-166z" />
<path style="fill:#bf1400;stroke:#000;stroke-width:2" d="M591,440 l-11,0 0,175 0,2 11,-11 0,-166z" />
<path style="fill:#bf1400;stroke:#000;stroke-width:2" d="M578,440 l-13,1 0,174 2,2 11,-11 0,-166z" />
<path style="fill:#000;stroke:#000;stroke-width:2" d="M583,411 l97,0 20,2 8,7 0,21 -154,0 0,-21 7,-7 22,-2z" />
<path style="fill:#bf1400;stroke:#000;stroke-width:2" d="M554,621 l7,7 17,4 24,5 28,0 30,0 24,-5 16,-4 6,-7 0,-15 -6,7 -16,4 -24,4 -30,0 -28,0 -24,-4 -17,-4 -7,-7 0,15z" />
<path style="fill:#00007f" d="M808,364 l-143,0 0,344 143,0 0,-344z" />
<path style="fill:#0000e0" d="M797,364 l-56,0 0,344 56,0 0,-344z" />
<path style="fill:#00f" d="M793,364 l-11,0 0,344 11,0 0,-344z" />
<path style="fill:none;stroke:#000;stroke-width:2" d="M808,364 l-143,0 0,344 143,0 0,-344" />
<path style="fill:#0000bf;stroke:#000;stroke-width:2" d="M272,338 l13,-70 40,-56 56,-39 69,-13 158,0 67,13 59,39 22,24 30,102 -104,45 -23,-24 0,-21 -16,-37 -35,-16 -158,0 -154,98 -24,-24 0,-21z" />
<path style="fill:#0000e0;stroke:#000;stroke-width:2" d="M296,361 l14,-69 38,-56 57,-39 69,-13 158,0 68,13 58,39 37,56 15,69 0,24 -128,0 0,-24 -15,-36 -35,-15 -158,0 -37,15 -15,36 0,24 -128,0 2,-24z" />

</svg>
