 

<svg xmlns:agg="http://www.example.com" xmlns="http://www.w3.org/2000/svg" preserveAspectRatio="none" width="1.3733in" height="1.0750in" viewBox="0 0 999 782">

<path style="fill:#98b2e5" d="M184,28 l315,0 0,331 -315,0 0,-331z" />
<path style="fill:#98b2e5" d="M165,359 l334,0 0,355 -334,0 0,-355z" />
<path style="fill:#98b2e5" d="M28,243 l137,0 0,413 -137,0 0,-413z" />
<path style="fill:#93ade0" d="M184,263 l315,-139 0,235 -315,0 0,-96z" />
<path style="fill:#93ade0" d="M28,456 l137,-63 0,263 -137,0 0,-200z" />
<path style="fill:#93ade0" d="M165,610 l334,-147 0,251 -334,0 0,-104z" />
<path style="fill:#8ea8db" d="M165,625 l334,-147 0,236 -334,0 0,-89z" />
<path style="fill:#8ea8db" d="M28,480 l137,-60 0,236 -137,0 0,-176z" />
<path style="fill:#8ea8db" d="M184,278 l315,-139 0,220 -315,0 0,-81z" />
<path style="fill:#89a3d6" d="M184,299 l315,-139 0,199 -315,0 0,-60z" />
<path style="fill:#89a3d6" d="M28,520 l137,-63 0,199 -137,0 0,-136z" />
<path style="fill:#89a3d6" d="M165,648 l334,-147 0,213 -334,0 0,-66z" />
<path style="fill:#657fb2;stroke:#000;stroke-width:2" d="M882,203 l9,0 9,187 -28,0 10,-187z" />
<path style="fill:#006" d="M28,656 l137,0 0,9 -137,0 0,-9z" />
<path style="fill:#006" d="M165,714 l334,0 0,15 -334,0 0,-15z" />
<path style="fill:#98b2e5" d="M499,390 l471,0 0,354 -471,0 0,-354z" />
<path style="fill:#039" d="M499,459 l471,0 0,-30 -471,0 0,30z" />
<path style="fill:#039" d="M499,509 l471,0 0,-31 -471,0 0,31z" />
<path style="fill:#039" d="M499,558 l471,0 0,-31 -471,0 0,31z" />
<path style="fill:#039" d="M499,607 l471,0 0,-31 -471,0 0,31z" />
<path style="fill:#039" d="M499,656 l471,0 0,-31 -471,0 0,31z" />
<path style="fill:#039" d="M499,704 l471,0 0,-30 -471,0 0,30z" />
<path style="fill:#b2ccff" d="M499,457 l471,0 0,6 -471,0 0,-6z" />
<path style="fill:#b2ccff" d="M499,509 l471,0 0,3 -471,0 0,-3z" />
<path style="fill:#b2ccff" d="M499,558 l471,0 0,3 -471,0 0,-3z" />
<path style="fill:#b2ccff" d="M499,607 l471,0 0,3 -471,0 0,-3z" />
<path style="fill:#b2ccff" d="M499,656 l471,0 0,3 -471,0 0,-3z" />
<path style="fill:#b2ccff" d="M499,704 l471,0 0,4 -471,0 0,-4z" />
<path style="fill:#b2ccff" d="M499,390 l471,0 0,5 -471,0 0,-5z" />
<path style="fill:none;stroke:#000;stroke-width:2" d="M499,390 l471,0 0,354 -471,0 0,-354" />
<path style="fill:#7f99cc;stroke:#000;stroke-width:2" d="M480,714 l19,0 0,39 -19,0 0,-39z" />
<path style="fill:#7f99cc;stroke:#000;stroke-width:2" d="M282,714 l21,0 0,39 -21,0 0,-39z" />
<path style="fill:#7f99cc;stroke:#000;stroke-width:2" d="M37,656 l19,0 0,97 -19,0 0,-97z" />
<path style="fill:#98b2e5;stroke:#000;stroke-width:2" d="M872,484 l30,0 0,264 -30,0 0,-264z" />
<path style="fill:#98b2e5;stroke:#000;stroke-width:2" d="M876,359 l21,0 0,361 -21,0 0,-361z" />
<path style="fill:#98b2e5;stroke:#000;stroke-width:2" d="M882,203 l9,0 0,156 -9,0 0,-156z" />
<path style="fill:#ff0;stroke:#000;stroke-width:2" d="M499,371 l19,0 0,343 -19,0 0,-343z" />
<path style="fill:none;stroke:#fff;stroke-width:2" d="M352,184 l0,-137 128,0" />
<path style="fill:none;stroke:#fff;stroke-width:2" d="M205,341 l0,-138 128,0" />
<path style="fill:none;stroke:#fff;stroke-width:2" d="M233,184 l0,-109 100,0" />
<path style="fill:none;stroke:#4c6699;stroke-width:2" d="M205,341 l128,0 0,-138" />
<path style="fill:none;stroke:#4c6699;stroke-width:2" d="M352,184 l128,0 0,-137" />
<path style="fill:none;stroke:#4c6699;stroke-width:2" d="M233,184 l100,0 0,-109" />
<path style="fill:#98b2e5" d="M554,237 l175,0 0,171 -175,0 0,-171z" />
<path style="fill:#333" d="M603,252 l77,0 0,25 -77,0 0,-25z" />
<path style="fill:#e5e5e5" d="M554,237 l175,0 0,-15 -175,0 0,15z" />
<path style="fill:none;stroke:#4c6699;stroke-width:2" d="M554,222 l175,0 0,186 -175,0 0,-186" />
<path style="fill:#7f99cc;stroke:#4c6699;stroke-width:2" d="M58,47 l126,0 0,135 -126,0 0,-135z" />
<path style="fill:#fc0" d="M62,154 l118,0 0,25 -118,0 0,-25z" />
<path style="fill:#fc0" d="M126,50 l49,0 0,15 -49,0 0,-15z" />
<path style="fill:#fc0" d="M616,252 l49,0 0,15 -49,0 0,-15z" />
<path style="fill:#ccc" d="M294,375 l28,0 0,73 -28,0 0,-73z" />
<path style="fill:#4c6699" d="M391,203 l108,0 0,156 -108,0 0,-156z" />
<path style="fill:none;stroke:#000;stroke-width:2" d="M28,243 l137,0 0,413 -137,0 0,-413" />
<path style="fill:none;stroke:#000;stroke-width:2" d="M165,359 l334,0 0,355 -334,0 0,-355" />
<path style="fill:none;stroke:#000;stroke-width:2" d="M184,28 l315,0 0,331 -315,0 0,-331" />
<path style="fill:#98b2e5;stroke:#4c6699;stroke-width:2" d="M342,469 l167,0 0,254 -167,0 0,-254z" />
<path style="fill:#324c7f" d="M401,203 l19,0 20,156 -20,0 -19,-156z" />
<path style="fill:#324c7f" d="M459,237 l10,0 0,122 -10,0 0,-122z" />
<path style="fill:#324c7f" d="M391,271 l89,0 0,60 -89,0 0,-60z" />

</svg>
