 

<svg xmlns:agg="http://www.example.com" xmlns="http://www.w3.org/2000/svg" preserveAspectRatio="none" width="0.8219in" height="1.0750in" viewBox="0 0 763 998">

<path style="fill:#7f7f7f" d="M244,966 l91,4 92,0 91,-4 79,-7 66,-11 47,-14 25,-15 0,-539 -707,0 0,539 24,15 47,14 66,11 79,7z" />
<path style="fill:#999" d="M256,966 l83,4 84,0 84,-4 73,-7 60,-11 44,-14 21,-15 0,-539 -647,0 0,539 22,15 42,14 60,11 74,7z" />
<path style="fill:#a6a6a6" d="M290,966 l60,4 62,0 60,-4 53,-7 44,-11 32,-14 15,-15 0,-539 -470,0 0,539 15,15 32,14 44,11 53,7z" />
<path style="fill:none;stroke:#000;stroke-width:2" d="M244,966 l91,4 92,0 91,-4 79,-7 66,-11 47,-14 25,-15 0,-539 -707,0 0,539 24,15 47,14 66,11 79,7" />
<path style="fill:#7f7f7f;stroke:#000;stroke-width:2" d="M58,380 l-30,0 0,-45 24,-91 47,-81 64,-66 81,-45 91,-24 92,0 91,24 81,45 64,66 47,81 25,91 0,45 -29,2 0,-43 -22,-83 -44,-74 -60,-60 -73,-43 -84,-23 -84,0 -83,23 -74,43 -60,60 -43,74 -21,83 0,41z" />
<path style="fill:#b2b2b2;stroke:#000;stroke-width:2" d="M28,919 l24,15 47,14 66,11 79,7 91,4 92,0 91,-4 81,-7 66,-11 45,-14 25,-15 0,-73 -25,11 -45,10 -66,7 -81,6 -91,2 -92,0 -91,-2 -79,-6 -66,-7 -47,-10 -24,-11 0,73z" />
<path style="fill:#b2b2b2;stroke:#000;stroke-width:2" d="M244,497 l91,2 92,0 91,-2 79,-4 66,-6 47,-7 25,-6 0,-9 0,-83 -707,-2 0,94 24,6 47,7 66,6 79,4z" />
<ellipse style="fill:#b2b2b2;stroke:#000;stroke-width:2" cx="381" cy="381" rx="353" ry="29" />
<path style="fill:none;stroke:#666;stroke-width:2" d="M558,793 l-295,-235" />
<path style="fill:none;stroke:#666;stroke-width:2" d="M529,793 l-296,-235" />
<path style="fill:none;stroke:#666;stroke-width:2" d="M499,793 l-294,-235" />
<path style="fill:none;stroke:#666;stroke-width:2" d="M469,793 l-294,-235" />
<path style="fill:none;stroke:#666;stroke-width:2" d="M324,793 l256,-205" />
<path style="fill:none;stroke:#666;stroke-width:2" d="M352,793 l221,-177" />
<path style="fill:none;stroke:#666;stroke-width:2" d="M382,793 l183,-147" />
<path style="fill:none;stroke:#666;stroke-width:2" d="M410,793 l148,-117" />
<path style="fill:none;stroke:#666;stroke-width:2" d="M116,823 l117,-88" />
<path style="fill:none;stroke:#666;stroke-width:2" d="M86,823 l119,-88" />
<path style="fill:none;stroke:#666;stroke-width:2" d="M58,823 l117,-88" />
<path style="fill:#b2b2b2" d="M618,499 l-30,0 0,383 30,0 0,-383z" />
<path style="fill:#b2b2b2" d="M175,499 l-30,0 0,383 30,0 0,-383z" />

</svg>
