 

<svg xmlns:agg="http://www.example.com" xmlns="http://www.w3.org/2000/svg" preserveAspectRatio="none" width="1.1585in" height="1.0750in" viewBox="0 0 999 927">

<path style="fill:#4c4c4c" d="M190,572 l147,0 0,217 -147,0 0,-217z" />
<path style="fill:#4c4c4c" d="M190,28 l147,0 0,54 -147,0 0,-54z" />
<path style="fill:#575757" d="M199,572 l128,0 0,217 -128,0 0,-217z" />
<path style="fill:#575757" d="M199,28 l128,0 0,54 -128,0 0,-54z" />
<path style="fill:#5e5e5e" d="M207,572 l113,0 0,217 -113,0 0,-217z" />
<path style="fill:#5e5e5e" d="M207,28 l113,0 0,54 -113,0 0,-54z" />
<path style="fill:#696969" d="M214,28 l98,0 0,54 -98,0 0,-54z" />
<path style="fill:#696969" d="M214,572 l98,0 0,217 -98,0 0,-217z" />
<path style="fill:#737373" d="M224,572 l79,0 0,217 -79,0 0,-217z" />
<path style="fill:#737373" d="M224,28 l79,0 0,54 -79,0 0,-54z" />
<path style="fill:#7d7d7d" d="M231,28 l64,0 0,54 -64,0 0,-54z" />
<path style="fill:#7d7d7d" d="M231,572 l64,0 0,217 -64,0 0,-217z" />
<path style="fill:#858585" d="M239,572 l49,0 0,217 -49,0 0,-217z" />
<path style="fill:#858585" d="M239,28 l49,0 0,54 -49,0 0,-54z" />
<path style="fill:#8f8f8f" d="M246,572 l34,0 0,217 -34,0 0,-217z" />
<path style="fill:#8f8f8f" d="M246,28 l34,0 0,54 -34,0 0,-54z" />
<path style="fill:#999" d="M256,28 l17,0 0,54 -17,0 0,-54z" />
<path style="fill:#999" d="M256,572 l17,0 0,217 -17,0 0,-217z" />
<path style="fill:#7f7f7f;stroke:#000;stroke-width:2" d="M99,899 l0,-36 19,0 0,-36 833,0 0,36 19,0 0,36 -871,0z" />
<path style="fill:#999;stroke:#000;stroke-width:2" d="M173,789 l181,0 0,38 -181,0 0,-38z" />
<path style="fill:none;stroke:#000;stroke-width:2" d="M190,572 l147,0 0,217 -147,0 0,-217" />
<path style="fill:none;stroke:#000;stroke-width:2" d="M190,28 l147,0 0,54 -147,0 0,-54" />
<path style="fill:#999" d="M201,82 l126,0 0,490 -126,0 0,-490z" />
<path style="fill:#a3a3a3" d="M207,82 l113,0 0,490 -113,0 0,-490z" />
<path style="fill:#ababab" d="M214,82 l98,0 0,490 -98,0 0,-490z" />
<path style="fill:#b5b5b5" d="M222,82 l83,0 0,490 -83,0 0,-490z" />
<path style="fill:#bfbfbf" d="M229,82 l70,0 0,490 -70,0 0,-490z" />
<path style="fill:#c9c9c9" d="M235,82 l57,0 0,490 -57,0 0,-490z" />
<path style="fill:#d1d1d1" d="M243,82 l41,0 0,490 -41,0 0,-490z" />
<path style="fill:#dbdbdb" d="M250,82 l27,0 0,490 -27,0 0,-490z" />
<path style="fill:#e5e5e5" d="M258,82 l13,0 0,490 -13,0 0,-490z" />
<path style="fill:none;stroke:#000;stroke-width:2" d="M201,82 l126,0 0,490 -126,0 0,-490" />
<path style="fill:none;stroke:#4c4c4c;stroke-width:2" d="M122,863 l826,0" />
<path style="fill:none;stroke:#b2b2b2;stroke-width:2" d="M122,857 l826,0" />
<path style="fill:#666;stroke:#000;stroke-width:2" d="M354,499 l0,19 -17,19 -290,0 -19,-19 0,-36 164,0 0,36 145,0 0,-19 17,0z" />
<path style="fill:#4c4c4c;stroke:#000;stroke-width:2" d="M970,463 l0,-79 -24,-25 -47,-24 -64,-19 -82,-13 -90,-8 -94,0 -232,0 0,-13 -145,0 0,236 145,0 0,-55 633,0z" />
<path style="fill:#575757" d="M199,282 l128,0 0,236 -128,0 0,-236z" />
<path style="fill:#5e5e5e" d="M207,282 l113,0 0,236 -113,0 0,-236z" />
<path style="fill:#696969" d="M214,282 l98,0 0,236 -98,0 0,-236z" />
<path style="fill:#737373" d="M224,282 l81,0 0,236 -81,0 0,-236z" />
<path style="fill:#7d7d7d" d="M231,282 l64,0 0,236 -64,0 0,-236z" />
<path style="fill:#858585" d="M239,282 l49,0 0,236 -49,0 0,-236z" />
<path style="fill:#8f8f8f" d="M246,282 l34,0 0,236 -34,0 0,-236z" />
<path style="fill:#999" d="M256,282 l17,0 0,236 -17,0 0,-236z" />
<path style="fill:#191919" d="M99,356 l93,0 0,126 -93,0 0,-126z" />
<path style="fill:#4c4c4c" d="M154,337 l0,90 -126,0 0,-90 126,0z" />
<path style="fill:#575757" d="M154,342 l0,80 -126,0 0,-80 126,0z" />
<path style="fill:#5e5e5e" d="M154,346 l0,72 -126,0 0,-72 126,0z" />
<path style="fill:#696969" d="M154,352 l0,60 -126,0 0,-60 126,0z" />
<path style="fill:#737373" d="M154,358 l0,49 -126,0 0,-49 126,0z" />
<path style="fill:#7d7d7d" d="M154,361 l0,42 -126,0 0,-42 126,0z" />
<path style="fill:#858585" d="M154,367 l0,30 -126,0 0,-30 126,0z" />
<path style="fill:#8f8f8f" d="M154,371 l0,21 -126,0 0,-21 126,0z" />
<path style="fill:#999" d="M154,376 l0,12 -126,0 0,-12 126,0z" />
<path style="fill:none;stroke:#000;stroke-width:2" d="M154,337 l0,90 -126,0 0,-90 126,0" />
<path style="fill:#4c4c4c;stroke:#000;stroke-width:2" d="M163,418 l19,0 0,90 -19,0 0,-90z" />
<path style="fill:#e5e5e5" d="M171,418 l4,0 0,90 -4,0 0,-90z" />
<path style="fill:#4c4c4c;stroke:#000;stroke-width:2" d="M163,246 l19,0 0,507 -19,0 0,-507z" />
<path style="fill:#e5e5e5" d="M171,246 l4,0 0,507 -4,0 0,-507z" />
<path style="fill:#4c4c4c" d="M28,427 l164,0 0,36 -164,0 0,-36z" />
<path style="fill:#4c4c4c" d="M99,463 l-52,0 0,19 52,0 0,-19z" />
<path style="fill:none;stroke:#ccc;stroke-width:2" d="M160,427 l0,36" />
<path style="fill:none;stroke:#7f7f7f;stroke-width:2" d="M186,427 l0,36" />
<path style="fill:none;stroke:#000;stroke-width:2" d="M970,463 l0,-79 -24,-25 -47,-24 -64,-19 -82,-13 -90,-8 -94,0 -232,0 0,-13 -145,0 0,145 -164,0 0,36 164,0 0,55 145,0 0,-55 633,0" />
<path style="fill:#b2b2b2;stroke:#000;stroke-width:2" d="M359,346 l611,0 0,40 -611,0 0,-40z" />
<path style="fill:#b2b2b2;stroke:#000;stroke-width:2" d="M359,405 l611,0 0,26 -611,0 0,-26z" />
<path style="fill:#666;stroke:#000;stroke-width:2" d="M571,537 l-36,-38 0,-362 19,-36 126,0 19,36 0,236 17,0 0,126 -36,38 -109,0z" />
<path style="fill:none;stroke:#333;stroke-width:2" d="M571,318 l92,0 0,-181" />
<path style="fill:none;stroke:#333;stroke-width:2" d="M616,292 l0,-155" />
<path style="fill:none;stroke:#333;stroke-width:2" d="M571,292 l92,0" />
<path style="fill:none;stroke:#b2b2b2;stroke-width:2" d="M663,137 l-91,0 0,181" />
<circle style="fill:#4c4c4c;stroke:#000;stroke-width:2" cx="625" cy="463" r="32" />
<path style="fill:#000" d="M569,371 l7,-4 46,79 -8,4 -45,-79z" />
<path style="fill:#000" d="M629,478 l8,-6 47,84 -8,3 -47,-81z" />
<path style="fill:#999;stroke:#000;stroke-width:2" d="M490,369 l45,0 0,130 -45,0 0,-130z" />
<path style="fill:none;stroke:#000;stroke-width:2" d="M699,373 l-145,0" />
<circle style="fill:#b2b2b2" cx="512" cy="440" r="13" />
<circle style="fill:#b2b2b2" cx="512" cy="400" r="13" />
<path style="fill:#4c4c4c" d="M382,82 l-45,0 0,-54 45,0 0,54z" />
<path style="fill:#4c4c4c" d="M145,644 l47,0 0,55 -47,0 0,-55z" />
<path style="fill:#191919" d="M344,82 l-7,0 0,-54 7,0 0,54z" />
<path style="fill:#191919" d="M182,644 l10,0 0,55 -10,0 0,-55z" />
<path style="fill:#999;stroke:#000;stroke-width:2" d="M608,537 l27,0 0,71 -27,0 0,-71z" />
<path style="fill:#999;stroke:#000;stroke-width:2" d="M145,753 l54,0 0,74 -54,0 0,-74z" />
<path style="fill:#ababab" d="M610,537 l21,0 0,71 -21,0 0,-71z" />
<path style="fill:#ababab" d="M152,753 l42,0 0,74 -42,0 0,-74z" />
<path style="fill:#bfbfbf" d="M614,537 l15,0 0,71 -15,0 0,-71z" />
<path style="fill:#bfbfbf" d="M158,753 l30,0 0,74 -30,0 0,-74z" />
<path style="fill:#d1d1d1" d="M163,753 l19,0 0,74 -19,0 0,-74z" />
<path style="fill:#d1d1d1" d="M616,537 l9,0 0,71 -9,0 0,-71z" />
<path style="fill:#e5e5e5" d="M169,753 l6,0 0,74 -6,0 0,-74z" />
<path style="fill:#e5e5e5" d="M620,537 l3,0 0,71 -3,0 0,-71z" />
<path style="fill:#ccc;stroke:#000;stroke-width:2" d="M376,818 l562,0 0,9 -562,0 0,-9z" />
<path style="fill:none;stroke:#b2b2b2;stroke-width:2" d="M160,699 l0,-55" />
<path style="fill:none;stroke:#b2b2b2;stroke-width:2" d="M367,28 l0,54" />
<path style="fill:none;stroke:#000;stroke-width:2" d="M382,82 l-45,0 0,-54 45,0 0,54" />
<path style="fill:none;stroke:#000;stroke-width:2" d="M145,644 l47,0 0,55 -47,0 0,-55" />
<path style="fill:none;stroke:#333;stroke-width:2" d="M192,699 l145,0" />
<path style="fill:none;stroke:#333;stroke-width:2" d="M192,644 l145,0" />
<path style="fill:none;stroke:#333;stroke-width:2" d="M192,499 l145,0" />
<path style="fill:none;stroke:#333;stroke-width:2" d="M47,337 l0,90" />

</svg>
