 

<svg xmlns:agg="http://www.example.com" xmlns="http://www.w3.org/2000/svg" preserveAspectRatio="none" width="1.1660in" height="1.0750in" viewBox="0 0 999 921">

<path style="fill:#333" d="M927,162 l13,0 0,9 -13,0 0,-9z" />
<path style="fill:#333" d="M897,210 l15,0 0,16 -15,0 0,-16z" />
<path style="fill:#4c7f7f" d="M146,422 l78,0 0,392 -78,0 0,-392z" />
<path style="fill:#366" d="M146,422 l78,0 0,77 -78,0 0,-77z" />
<path style="fill:none;stroke:#000;stroke-width:2" d="M146,422 l78,0 0,392 -78,0 0,-392" />
<path style="fill:#033" d="M224,186 l609,0 0,236 -609,0 0,-236z" />
<path style="fill:#000" d="M441,67 l254,0 0,345 -254,0 0,-345z" />
<path style="fill:#033" d="M916,893 l-25,-34 -628,0 -19,34 -11,0 21,-40 649,0 18,40 -5,0z" />
<path style="fill:#699" d="M195,461 l19,392 0,40 19,0 21,-40 649,0 18,40 19,0 0,-40 21,-392 -766,0z" />
<path style="fill:#5e9191" d="M209,735 l5,118 0,40 19,0 21,-40 649,0 18,40 19,0 0,-40 17,-335 -748,217z" />
<path style="fill:none;stroke:#000;stroke-width:2" d="M195,461 l19,392 0,40 19,0 21,-40 649,0 18,40 19,0 0,-40 21,-392 -766,0" />
<path style="fill:#699;stroke:#366;stroke-width:2" d="M265,833 l-32,-155 0,-41 11,-42 21,-34 30,-30 36,-20 40,-12 41,0 40,12 35,20 29,30 21,36 11,40 0,41 -32,155 -251,0z" />
<path style="fill:none;stroke:#9cc;stroke-width:2" d="M233,678 l0,-41 11,-40 21,-36 30,-30 36,-20 40,-12 41,0 40,12" />
<path style="fill:none;stroke:#9cc;stroke-width:2" d="M297,729 l-15,-26 -10,-30 0,-33 10,-28 15,-28 21,-21 28,-15 29,-9 31,0 31,9 26,15 23,21" />
<path style="fill:none;stroke:#9cc;stroke-width:2" d="M461,603 l12,20 7,23 0,23 -7,22 -12,21 -15,15 -21,11 -22,8 -23,0 -22,-8 -21,-11 -17,-15" />
<path style="fill:none;stroke:#9cc;stroke-width:2" d="M667,657 l156,0" />
<path style="fill:none;stroke:#9cc;stroke-width:2" d="M667,686 l156,0" />
<path style="fill:none;stroke:#9cc;stroke-width:2" d="M667,716 l156,0" />
<path style="fill:none;stroke:#9cc;stroke-width:2" d="M667,746 l156,0" />
<path style="fill:none;stroke:#9cc;stroke-width:2" d="M667,774 l156,0" />
<path style="fill:none;stroke:#9cc;stroke-width:2" d="M650,793 l-4,-11 0,-132 4,-12 7,-9 10,-7 13,-4 130,0 11,4 10,7" />
<path style="fill:none;stroke:#366;stroke-width:2" d="M831,629 l7,9 4,12 0,132 -4,11 -7,10 -10,7 -11,4 -130,0 -13,-4 -10,-7 -7,-10" />
<path style="fill:none;stroke:#366;stroke-width:2" d="M486,584 l15,28 7,28 0,33 -7,30 -15,26 -23,23 -26,15 -31,7 -31,0 -29,-7 -28,-15 -21,-23" />
<path style="fill:none;stroke:#366;stroke-width:2" d="M320,712 l-12,-21 -5,-22 0,-23 5,-23 12,-20 17,-17 21,-11 22,-6 23,0 22,6 21,11 15,17" />
<path style="fill:none;stroke:#366;stroke-width:2" d="M667,765 l156,0" />
<path style="fill:none;stroke:#366;stroke-width:2" d="M667,735 l156,0" />
<path style="fill:none;stroke:#366;stroke-width:2" d="M667,705 l156,0" />
<path style="fill:none;stroke:#366;stroke-width:2" d="M667,676 l156,0" />
<path style="fill:none;stroke:#366;stroke-width:2" d="M667,648 l156,0" />
<path style="fill:#9cc;stroke:#000;stroke-width:2" d="M184,422 l786,0 0,39 -786,0 0,-39z" />
<path style="fill:#7fb2b2;stroke:#000;stroke-width:2" d="M331,392 l98,0 0,20 275,0 0,-20 266,0 0,30 -639,0 0,-30z" />
<path style="fill:#ccc" d="M435,373 l266,0 0,33 -266,0 0,-33z" />
<path style="fill:none;stroke:#e5e5e5;stroke-width:2" d="M435,406 l0,-33 266,0" />
<path style="fill:none;stroke:#000;stroke-width:2" d="M701,373 l0,33 -266,0" />
<path style="fill:#4c7f7f;stroke:#000;stroke-width:2" d="M28,28 l196,0 0,394 -196,0 0,-394z" />
<path style="fill:#033;stroke:#000;stroke-width:2" d="M244,28 l-20,0 0,79 20,0 0,-79z" />
<path style="fill:#4c7f7f;stroke:#000;stroke-width:2" d="M184,107 l251,0 0,79 -251,0 0,-79z" />
<path style="fill:#699" d="M342,226 l78,0 0,166 -78,0 0,-166z" />
<path style="fill:#366" d="M401,226 l19,0 0,166 -19,0 0,-166z" />
<path style="fill:#033" d="M67,186 l79,0 0,156 -79,0 0,-156z" />
<path style="fill:#699" d="M107,244 l137,0 0,157 -137,0 0,-157z" />
<path style="fill:#366" d="M224,244 l20,0 0,157 -20,0 0,-157z" />
<path style="fill:#cff" d="M97,244 l-11,-11 0,-17 11,-11 17,0 12,11 0,17 -12,11 -17,0z" />
<path style="fill:#366;stroke:#000;stroke-width:2" d="M46,126 l12,0 0,315 -12,0 0,-315z" />
<path style="fill:#9cc" d="M50,126 l4,0 0,315 -4,0 0,-315z" />
<path style="fill:#699;stroke:#000;stroke-width:2" d="M37,373 l70,0 0,24 -70,0 0,-24z" />
<path style="fill:#033" d="M184,244 l25,0 0,157 -25,0 0,-157z" />
<path style="fill:#9cc" d="M195,388 l-5,-10 0,-11 5,-9 8,0 6,9 0,11 -6,10 -8,0z" />
<path style="fill:#9cc" d="M195,352 l-5,-8 0,-13 5,-7 8,0 6,7 0,13 -6,8 -8,0z" />
<path style="fill:#9cc" d="M195,318 l-5,-10 0,-11 5,-9 8,0 6,9 0,11 -6,10 -8,0z" />
<path style="fill:#9cc" d="M195,284 l-5,-9 0,-12 5,-9 8,0 6,9 0,12 -6,9 -8,0z" />
<path style="fill:#ccc" d="M435,146 l266,0 0,157 -266,0 0,-157z" />
<path style="fill:#c7c7c7" d="M435,284 l266,-98 0,117 -266,0 0,-19z" />
<path style="fill:#dbdbdb" d="M435,131 l266,0 0,15 -266,0 0,-15z" />
<path style="fill:#f7f7f7" d="M435,116 l266,0 0,15 -266,0 0,-15z" />
<path style="fill:#e5e5e5" d="M435,67 l266,0 0,49 -266,0 0,-49z" />
<path style="fill:none;stroke:#000;stroke-width:2" d="M435,67 l266,0 0,236 -266,0 0,-236" />
<path style="fill:#e5e5e5" d="M578,165 l78,0 0,98 -78,0 0,-98z" />
<path style="fill:none;stroke:#fff;stroke-width:2" d="M578,263 l0,-98 78,0" />
<path style="fill:#9cc" d="M725,156 l172,0 0,128 -172,0 0,-128z" />
<path style="fill:#366" d="M725,239 l172,0 0,45 -172,0 0,-45z" />
<path style="fill:none;stroke:#000;stroke-width:2" d="M725,156 l172,0 0,128 -172,0 0,-128" />
<path style="fill:#699;stroke:#000;stroke-width:2" d="M701,303 l24,5 187,0 -6,-82 -83,0 0,18 -122,31 0,28z" />
<path style="fill:#333" d="M912,156 l15,0 0,122 -15,0 0,-122z" />
<path style="fill:#4c4c4c" d="M912,162 l2,0 2,0 2,0 7,0 2,0 0,3 0,104 0,4 -2,-1 -9,-1 -2,1 -2,1 0,-4 0,-107z" />
<path style="fill:#666" d="M912,169 l15,0 0,96 -15,0 0,-96z" />
<path style="fill:#7f7f7f" d="M912,177 l15,0 0,81 -15,0 0,-81z" />
<path style="fill:#999" d="M912,182 l15,0 0,70 -15,0 0,-70z" />
<path style="fill:#b2b2b2" d="M912,190 l15,0 0,54 -15,0 0,-54z" />
<path style="fill:#ccc" d="M912,195 l15,0 0,44 -15,0 0,-44z" />
<path style="fill:#e5e5e5" d="M912,203 l15,0 0,28 -15,0 0,-28z" />
<path style="fill:#fff" d="M912,210 l15,0 0,16 -15,0 0,-16z" />
<path style="fill:none;stroke:#000;stroke-width:2" d="M912,156 l15,0 0,122 -15,0 0,-122" />
<path style="fill:none;stroke:#000;stroke-width:2" d="M342,226 l78,0 0,166 -78,0 0,-166" />
<path style="fill:none;stroke:#000;stroke-width:2" d="M107,244 l137,0 0,157 -137,0 0,-157" />

</svg>
