 

<svg xmlns:agg="http://www.example.com" xmlns="http://www.w3.org/2000/svg" preserveAspectRatio="none" width="1.2754in" height="1.0750in" viewBox="0 0 999 842">

<path style="fill:#666;stroke:#000;stroke-width:2" d="M774,205 l138,0 0,254 -138,0 0,-254z" />
<path style="fill:#666;stroke:#000;stroke-width:2" d="M86,205 l138,0 0,254 -138,0 0,-254z" />
<path style="fill:#999;stroke:#000;stroke-width:2" d="M107,263 l784,0 0,196 -784,0 0,-196z" />
<path style="fill:#a5b2a5;stroke:#000;stroke-width:2" d="M282,205 l-98,156 -117,0 -21,21 0,40 906,0 0,-40 -21,-21 -117,0 -98,-156 -434,0z" />
<path style="fill:#9c9" d="M86,27 l826,0 0,178 -826,0 0,-178z" />
<path style="fill:#94c794" d="M86,122 l826,-74 0,157 -826,0 0,-83z" />
<path style="fill:#8fc28f" d="M86,141 l826,-74 0,138 -826,0 0,-64z" />
<path style="fill:#8abd8a" d="M86,161 l826,-75 0,119 -826,0 0,-44z" />
<path style="fill:#9c9" d="M27,459 l944,0 0,89 -78,266 -784,0 -82,-266 0,-89z" />
<path style="fill:#94c794" d="M971,514 l0,34 -78,266 -784,0 -63,-206 925,-94z" />
<path style="fill:#8fc28f" d="M965,569 l-72,245 -784,0 -46,-155 902,-90z" />
<path style="fill:#8abd8a" d="M948,629 l-55,185 -784,0 -29,-98 868,-87z" />
<path style="fill:none;stroke:#000;stroke-width:2" d="M27,459 l944,0 0,89 -78,266 -784,0 -82,-266 0,-89" />
<path style="fill:#ccc;stroke:#000;stroke-width:2" d="M86,755 l21,0 0,59 -21,0 0,-59z" />
<path style="fill:#ccc;stroke:#000;stroke-width:2" d="M891,755 l21,0 0,59 -21,0 0,-59z" />
<path style="fill:#ccc;stroke:#000;stroke-width:2" d="M107,205 l0,19 236,0 37,-19 236,0 39,19 236,0 0,-19 -784,0z" />
<path style="fill:#bf2600" d="M46,401 l906,0 0,21 -906,0 0,-21z" />
<path style="fill:#000" d="M46,420 l906,0 0,20 -906,0 0,-20z" />
<path style="fill:#fc0" d="M46,420 l38,2 38,18 -38,0 -38,-20z" />
<path style="fill:#fc0" d="M122,420 l37,2 38,18 -38,0 -37,-20z" />
<path style="fill:#fc0" d="M197,420 l38,2 38,18 -38,0 -38,-20z" />
<path style="fill:#fc0" d="M273,420 l37,2 38,18 -38,0 -37,-20z" />
<path style="fill:#fc0" d="M348,420 l38,2 37,18 -37,0 -38,-20z" />
<path style="fill:#fc0" d="M423,420 l38,2 38,18 -38,0 -38,-20z" />
<path style="fill:#fc0" d="M499,420 l38,2 38,18 -38,0 -38,-20z" />
<path style="fill:#fc0" d="M575,420 l37,2 38,18 -38,0 -37,-20z" />
<path style="fill:#fc0" d="M650,420 l37,2 38,18 -38,0 -37,-20z" />
<path style="fill:#fc0" d="M725,420 l38,2 38,18 -38,0 -38,-20z" />
<path style="fill:#fc0" d="M801,420 l36,2 39,18 -37,0 -38,-20z" />
<path style="fill:#fc0" d="M876,420 l36,2 40,18 -38,0 -38,-20z" />
<path style="fill:#696" d="M86,186 l826,0 0,19 -826,0 0,-19z" />
<path style="fill:none;stroke:#696;stroke-width:2" d="M107,499 l784,0" />
<path style="fill:none;stroke:#696;stroke-width:2" d="M107,735 l19,0 0,-196" />
<path style="fill:none;stroke:#000;stroke-width:2" d="M86,27 l826,0 0,178 -826,0 0,-178" />
<path style="fill:#7fb27f" d="M401,126 l196,0 0,39 -196,0 0,-39z" />
<path style="fill:none;stroke:#fff;stroke-width:2" d="M558,67 l0,40 -118,0" />
<path style="fill:none;stroke:#696;stroke-width:2" d="M558,67 l-118,0 0,40" />
<path style="fill:none;stroke:#696;stroke-width:2" d="M872,735 l19,0 0,-196" />
<path style="fill:#7f7f7f" d="M922,391 l-846,0 0,-18 846,0 0,18z" />
<path style="fill:#b2b2b2" d="M922,388 l-846,0 0,-13 846,0 0,13z" />
<path style="fill:#fff" d="M922,382 l-846,0 0,-2 846,0 0,2z" />
<path style="fill:none;stroke:#000;stroke-width:2" d="M922,391 l-846,0 0,-18 846,0 0,18" />
<path style="fill:#cccc7f" d="M558,244 l30,0 0,59 -30,0 0,-59z" />
<path style="fill:#ccc;stroke:#000;stroke-width:2" d="M490,352 l18,0 0,49 -18,0 0,-49z" />
<path style="fill:none;stroke:#fff;stroke-width:2" d="M529,263 l0,40 -60,0" />
<path style="fill:none;stroke:#696;stroke-width:2" d="M529,263 l-60,0 0,40" />
<path style="fill:#ccc" d="M420,312 l158,0 0,31 -158,0 0,-31z" />
<path style="fill:#bdbdbd" d="M420,337 l158,-11 0,17 -158,0 0,-6z" />
<path style="fill:none;stroke:#000;stroke-width:2" d="M420,312 l158,0 0,31 -158,0 0,-31" />
<path style="fill:#ccc;stroke:#000;stroke-width:2" d="M882,352 l19,0 0,49 -19,0 0,-49z" />
<path style="fill:#ccc;stroke:#000;stroke-width:2" d="M95,352 l21,0 0,49 -21,0 0,-49z" />
<path style="fill:#ccc" d="M725,286 l138,-6 6,138 -138,5 -6,-137z" />
<path style="fill:#c7c7c7" d="M729,384 l136,-64 4,98 -138,5 -2,-39z" />
<path style="fill:#c2c2c2" d="M729,390 l136,-64 4,92 -138,5 -2,-33z" />
<path style="fill:#bdbdbd" d="M731,397 l134,-62 4,83 -138,5 0,-26z" />
<path style="fill:#d94000;stroke:#000;stroke-width:2" d="M782,244 l19,0 2,38 -19,2 -2,-40z" />
<path style="fill:#333" d="M746,305 l77,-4 4,58 -79,4 -2,-58z" />
<path style="fill:none;stroke:#fff;stroke-width:2" d="M823,301 l4,58 -79,4" />
<path style="fill:none;stroke:#999;stroke-width:2" d="M823,301 l-77,4 2,58" />
<path style="fill:#999" d="M750,384 l98,-6 0,21 -98,4 0,-19z" />
<path style="fill:#ccc;stroke:#000;stroke-width:2" d="M863,280 l19,-2 7,138 -20,2 -6,-138z" />
<path style="fill:none;stroke:#000;stroke-width:2" d="M725,286 l138,-6 6,138 -138,5 -6,-137" />
<path style="fill:#d94000;stroke:#000;stroke-width:2" d="M774,224 l157,0 0,20 -157,0 0,-20z" />

</svg>
