 

<svg xmlns:agg="http://www.example.com" xmlns="http://www.w3.org/2000/svg" preserveAspectRatio="none" width="0.9728in" height="1.0750in" viewBox="0 0 904 999">

<path style="fill:#4c4c4c;stroke:#000;stroke-width:2" d="M71,209 l686,0 0,113 -686,0 0,-113z" />
<path style="fill:#666;stroke:#000;stroke-width:2" d="M452,60 l81,0 0,181 -81,0 0,-181z" />
<path style="fill:#7f7f7f" d="M139,371 l724,0 0,73 -25,27 0,499 -699,0 0,-599z" />
<path style="fill:#7a7a7a" d="M190,371 l599,0 0,599 -599,0 0,-599z" />
<path style="fill:#757575" d="M263,371 l451,0 0,599 -451,0 0,-599z" />
<path style="fill:#7f7f7f" d="M263,946 l51,0 0,24 -51,0 0,-24z" />
<path style="fill:#7f7f7f" d="M714,970 l-51,0 0,-26 51,0 0,26z" />
<path style="fill:#858585" d="M714,970 l100,0 0,-26 -100,0 0,26z" />
<path style="fill:#858585" d="M263,946 l-98,0 0,24 98,0 0,-24z" />
<path style="fill:#8c8c8c" d="M738,970 l51,0 0,-26 -51,0 0,26z" />
<path style="fill:#8c8c8c" d="M239,946 l-49,0 0,24 49,0 0,-24z" />
<path style="fill:none;stroke:#ccc;stroke-width:2" d="M152,938 l675,0" />
<path style="fill:#4c4c4c" d="M139,457 l712,0 -13,14 -699,0 0,-14z" />
<path style="fill:none;stroke:#4c4c4c;stroke-width:2" d="M139,384 l724,0" />
<path style="fill:none;stroke:#4c4c4c;stroke-width:2" d="M152,946 l675,0" />
<path style="fill:none;stroke:#000;stroke-width:2" d="M139,371 l724,0 0,73 -25,27 0,499 -699,0 0,-599" />
<path style="fill:#333" d="M301,857 l375,0 0,-298 6,-7 0,313 -387,0 6,-8z" />
<path style="fill:#999" d="M676,557 l-375,0 0,300 -6,8 0,-313 387,0 -6,5z" />
<path style="fill:#7f7f7f" d="M301,557 l375,0 0,300 -375,0 0,-300z" />
<circle style="fill:#999" cx="333" cy="714" r="24" />
<path style="fill:#666;stroke:#000;stroke-width:2" d="M671,776 l18,0 0,45 -18,0 0,-45z" />
<path style="fill:#666;stroke:#000;stroke-width:2" d="M671,595 l18,0 0,43 -18,0 0,-43z" />
<path style="fill:none;stroke:#b2b2b2;stroke-width:2" d="M169,442 l-4,-13 0,-15 4,-13 11,-11 14,-6 15,0 13,6 11,9" />
<path style="fill:none;stroke:#b2b2b2;stroke-width:2" d="M228,403 l5,11 0,13 -5,12 -8,9 -11,4 -14,0 -11,-4 -9,-9" />
<path style="fill:none;stroke:#000;stroke-width:2" d="M175,439 l-4,-12 0,-13 4,-11 9,-8 11,-5 14,0 11,5 8,8" />
<path style="fill:none;stroke:#000;stroke-width:2" d="M233,399 l6,15 0,15 -6,13 -9,12 -15,3 -15,0 -14,-3 -11,-12" />
<path style="fill:#7f7f7f" d="M33,371 l100,0 6,5 0,575 -6,6 -100,0 -5,-6 0,-575 5,-5z" />
<path style="fill:#4c4c4c" d="M33,957 l-5,-6 111,0 -6,6 -100,0z" />
<path style="fill:#e5e5e5" d="M133,371 l6,5 -111,0 5,-5 100,0z" />
<path style="fill:none;stroke:#000;stroke-width:2" d="M33,371 l100,0 6,5 0,575 -6,6 -100,0 -5,-6 0,-575 5,-5" />
<path style="fill:#7f7f7f" d="M644,246 l0,119 -6,6 -491,0 -8,-6 0,-119 8,-5 491,0 6,5z" />
<path style="fill:#787878" d="M644,246 l0,119 -6,6 -491,0 -8,-6 0,-32 505,-87z" />
<path style="fill:none;stroke:#000;stroke-width:2" d="M644,246 l0,119 -6,6 -491,0 -8,-6 0,-119 8,-5 491,0 6,5" />
<path style="fill:#7f7f7f" d="M30,160 l109,0 0,86 -109,0 0,-86z" />
<path style="fill:#999" d="M30,171 l109,0 0,62 -109,0 0,-62z" />
<path style="fill:#b2b2b2" d="M30,184 l109,0 0,38 -109,0 0,-38z" />
<path style="fill:#ccc" d="M30,195 l109,0 0,14 -109,0 0,-14z" />
<path style="fill:none;stroke:#000;stroke-width:2" d="M30,160 l109,0 0,86 -109,0 0,-86" />
<path style="fill:#333" d="M47,195 l73,0 0,38 -73,0 0,-38z" />
<path style="fill:#7f7f7f;stroke:#000;stroke-width:2" d="M96,209 l18,0 0,162 -18,0 0,-162z" />
<path style="fill:#7f7f7f;stroke:#000;stroke-width:2" d="M52,209 l19,0 0,162 -19,0 0,-162z" />
<path style="fill:#7f7f7f" d="M535,160 l192,0 0,62 -192,0 0,-62z" />
<path style="fill:#999" d="M535,167 l192,0 0,45 -192,0 0,-45z" />
<path style="fill:#b2b2b2" d="M535,177 l192,0 0,26 -192,0 0,-26z" />
<path style="fill:#ccc" d="M535,186 l192,0 0,8 -192,0 0,-8z" />
<path style="fill:none;stroke:#000;stroke-width:2" d="M535,160 l192,0 0,62 -192,0 0,-62" />
<path style="fill:#7f7f7f;stroke:#000;stroke-width:2" d="M727,228 l111,0 0,67 -111,0 0,-67z" />
<path style="fill:#7f7f7f;stroke:#000;stroke-width:2" d="M770,160 l38,0 0,68 -38,0 0,-68z" />
<path style="fill:#7f7f7f;stroke:#000;stroke-width:2" d="M725,184 l151,0 0,19 -151,0 0,-19z" />
<path style="fill:none;stroke:#000;stroke-width:2" d="M620,160 l0,-46 -12,-11 -118,0" />
<path style="fill:#666;stroke:#000;stroke-width:2" d="M390,28 l24,0 19,181 -24,0 -19,-181z" />
<path style="fill:#666;stroke:#000;stroke-width:2" d="M433,28 l24,0 -24,181 -24,0 24,-181z" />

</svg>
