 

<svg xmlns:agg="http://www.example.com" xmlns="http://www.w3.org/2000/svg" preserveAspectRatio="none" width="1.4711in" height="1.0750in" viewBox="0 0 999 730">

<path style="fill:#b2b2b2;stroke:#000;stroke-width:2" d="M936,696 l6,6 0,-80 -6,-6 0,80z" />
<path style="fill:#b2b2b2;stroke:#000;stroke-width:2" d="M226,696 l7,6 0,-80 -7,-6 0,80z" />
<path style="fill:#7f7f7f;stroke:#000;stroke-width:2" d="M103,583 l7,7 0,-80 -7,-7 0,80z" />
<path style="fill:#ccc;stroke:#000;stroke-width:2" d="M970,241 l-761,0 0,381 761,0 0,-381z" />
<path style="fill:#f0f0f0;stroke:#000;stroke-width:2" d="M964,702 l-22,0 0,-80 22,0 0,80z" />
<path style="fill:#f0f0f0;stroke:#000;stroke-width:2" d="M255,702 l-22,0 0,-80 22,0 0,80z" />
<path style="fill:#e5e5e5;stroke:#000;stroke-width:2" d="M134,590 l-24,0 0,-80 24,0 0,80z" />
<path style="fill:#f0f0f0;stroke:#000;stroke-width:2" d="M970,241 l-761,0 -110,-107 755,0 116,107z" />
<path style="fill:#999;stroke:#000;stroke-width:2" d="M101,134 l108,107 0,381 -108,-117 0,-371z" />
<path style="fill:#366;stroke:#000;stroke-width:2" d="M618,346 l-348,0 0,309 348,0 0,-309z" />
<path style="fill:#366;stroke:#000;stroke-width:2" d="M618,346 l-348,0 -33,-35 346,0 35,35z" />
<path style="fill:#366;stroke:#000;stroke-width:2" d="M237,311 l33,35 0,309 -33,-33 0,-311z" />
<path style="fill:#000;stroke:#000;stroke-width:2" d="M590,417 l-5,-9 -8,-4 -7,4 -4,9 4,9 7,2 8,-2 5,-9z" />
<path style="fill:#000;stroke:#000;stroke-width:2" d="M590,380 l-5,-6 -8,-5 -7,5 -4,6 4,9 7,4 8,-4 5,-9z" />
<path style="fill:#000;stroke:#000;stroke-width:2" d="M547,417 l-5,-9 -9,-4 -6,4 -4,9 4,9 6,2 9,-2 5,-9z" />
<path style="fill:#000;stroke:#000;stroke-width:2" d="M547,380 l-5,-6 -9,-5 -6,5 -4,6 4,9 6,4 9,-4 5,-9z" />
<path style="fill:#000;stroke:#000;stroke-width:2" d="M501,417 l-2,-9 -9,-4 -8,4 -5,9 5,9 8,2 9,-2 2,-9z" />
<path style="fill:#000;stroke:#000;stroke-width:2" d="M501,380 l-2,-6 -9,-5 -8,5 -5,6 5,9 8,4 9,-4 2,-9z" />
<path style="fill:#0f0;stroke:#000;stroke-width:2" d="M585,417 l-2,-7 -6,-2 -5,2 -4,7 4,6 5,3 6,-3 2,-6z" />
<path style="fill:#0f0;stroke:#000;stroke-width:2" d="M544,417 l-4,-7 -7,-2 -4,2 -2,7 2,6 4,3 7,-3 4,-6z" />
<path style="fill:#0f0;stroke:#000;stroke-width:2" d="M499,417 l-2,-7 -7,-2 -6,2 -2,7 2,6 6,3 7,-3 2,-6z" />
<path style="fill:#f00;stroke:#000;stroke-width:2" d="M585,380 l-2,-4 -6,-5 -5,5 -4,4 4,7 5,2 6,-2 2,-7z" />
<path style="fill:#f00;stroke:#000;stroke-width:2" d="M544,380 l-4,-4 -7,-5 -4,5 -2,4 2,7 4,2 7,-2 4,-7z" />
<path style="fill:#f00;stroke:#000;stroke-width:2" d="M499,380 l-2,-4 -7,-5 -6,5 -2,4 2,7 6,2 7,-2 2,-7z" />
<path style="fill:#e0e0e0;stroke:#000;stroke-width:2" d="M590,486 l-28,0 0,41 28,0 0,-41z" />
<path style="fill:#000;stroke:#000;stroke-width:2" d="M590,503 l-28,0 0,7 28,0 0,-7z" />
<path style="fill:#f0f0f0;stroke:#000;stroke-width:2" d="M90,549 l-2,-16 -41,-12 -15,-22 -4,-19 4,-22 11,-17 17,-11 22,-4 21,4 20,13 -33,106z" />
<path style="fill:#f0f0f0;stroke:#000;stroke-width:2" d="M140,549 l-50,0 0,-13 -4,2 -22,-6 -17,-11 -11,-18 -4,-21 4,-20 11,-17 17,-13 22,-4 21,4 18,13 11,17 4,20 0,67z" />
<circle style="fill:#ccc;stroke:#000;stroke-width:2" cx="85" cy="482" r="36" />
<path style="fill:#666;stroke:#000;stroke-width:2" d="M929,229 l-320,0 -86,-87 313,0 93,87z" />
<path style="fill:#666;stroke:#000;stroke-width:2" d="M330,229 l223,0 -87,-87 -222,0 86,87z" />
<path style="fill:none;stroke:#000;stroke-width:2" d="M877,192 l0,-18 -25,-23 0,17" />
<path style="fill:none;stroke:#000;stroke-width:2" d="M583,192 l0,-18 -23,-23 0,17" />
<path style="fill:none;stroke:#000;stroke-width:2" d="M508,192 l0,-18 -26,-23 0,17" />
<path style="fill:none;stroke:#000;stroke-width:2" d="M304,192 l0,-18 -26,-23 0,17" />
<path style="fill:#f0f0f0" d="M151,529 l-61,0 0,33 61,0 0,-33z" />
<path style="fill:#fff" d="M151,532 l-61,0 0,4 61,0 0,-4z" />
<path style="fill:#b2b2b2" d="M151,560 l-61,0 0,2 61,0 0,-2z" />
<path style="fill:none;stroke:#000;stroke-width:2" d="M151,529 l-61,0 0,33 61,0 0,-33" />
<path style="fill:#f0f0f0;stroke:#000;stroke-width:2" d="M259,30 l-97,0 0,160 97,0 0,-160z" />
<path style="fill:#fff" d="M255,32 l-7,0 0,156 7,0 0,-156z" />
<path style="fill:#7f7f7f" d="M170,32 l-6,0 0,158 6,0 0,-158z" />
<path style="fill:#f0f0f0;stroke:#000;stroke-width:2" d="M144,88 l74,0 0,41 -74,0 0,-41z" />
<path style="fill:#fff" d="M144,90 l74,0 0,5 -74,0 0,-5z" />
<path style="fill:#7f7f7f" d="M144,127 l74,0 0,2 -74,0 0,-2z" />
<path style="fill:none;stroke:#000;stroke-width:2" d="M144,88 l74,0 0,41 -74,0 0,-41" />
<path style="fill:#f0f0f0;stroke:#000;stroke-width:2" d="M252,56 l-43,0 0,112 43,0 0,-112z" />
<path style="fill:#b2b2b2" d="M252,151 l-43,0 0,17 43,0 0,-17z" />
<path style="fill:#fff" d="M252,62 l-43,0 0,17 43,0 0,-17z" />
<path style="fill:#f0f0f0;stroke:#000;stroke-width:2" d="M179,512 l-28,0 0,63 28,0 0,-63z" />
<path style="fill:#f0f0f0;stroke:#000;stroke-width:2" d="M179,512 l-28,0 -7,-9 26,0 9,9z" />
<path style="fill:#ccc;stroke:#000;stroke-width:2" d="M144,503 l7,9 0,63 -7,-9 0,-63z" />
<path style="fill:#000" d="M173,557 l1,3 -8,8 -9,-8 7,-9 6,-22 -4,4 -9,-8 7,-9 30,-134 54,0 0,-2 4,0 0,13 -4,0 0,-2 -47,0 -28,132 30,-108 49,0 0,13 -4,0 0,-2 -39,0 -36,131z" />
<path style="fill:#7f7f7f;stroke:#000;stroke-width:2" d="M211,28 l-38,2 -18,2 18,2 38,0 39,0 15,-2 -15,-2 -39,-2z" />
<path style="fill:#f0f0f0;stroke:#000;stroke-width:2" d="M162,192 l12,2 37,0 35,0 15,-2 0,-7 -15,3 -35,0 -37,0 -12,-3 0,7z" />
<path style="fill:none;stroke:#000;stroke-width:2" d="M252,56 l-43,0 0,112 43,0 0,-112" />
<path style="fill:#fff;stroke:#000;stroke-width:2" d="M268,618 l-27,-26 0,-45 27,28 0,43z" />
<path style="fill:none;stroke:#fff;stroke-width:2" d="M891,387 l0,-89 -195,0" />
<path style="fill:none;stroke:#999;stroke-width:2" d="M891,387 l-195,0 0,-89" />

</svg>
