 

<svg xmlns:agg="http://www.example.com" xmlns="http://www.w3.org/2000/svg" preserveAspectRatio="none" width="0.7393in" height="1.0750in" viewBox="0 0 687 999">

<path style="fill:#7f7f7f;stroke:#000;stroke-width:2" d="M258,499 l-17,-21 -15,-28 -8,-34 0,-34 8,-34 15,-28 21,-21 24,-11 24,0 25,11 21,21 15,28 7,34 0,34 -7,34 -15,28 -15,21 30,-21 17,-28 11,-34 0,-34 -11,-34 -17,-28 -27,-21 -30,-11 -32,0 -30,11 -26,21 -19,28 -10,34 0,34 10,34 19,28 32,21z" />
<path style="fill:#7f7f7f;stroke:#000;stroke-width:2" d="M508,640 l0,-41 -69,-40 -281,0 -70,40 0,41 420,0z" />
<path style="fill:#999;stroke:#000;stroke-width:2" d="M478,829 l-360,0 0,60 360,0 0,-60z" />
<path style="fill:#ccc" d="M118,629 l-81,0 0,341 81,0 0,-341z" />
<path style="fill:#c7c7c7" d="M118,851 l-81,-141 0,242 81,0 0,-101z" />
<path style="fill:#c2c2c2" d="M118,867 l-81,-144 0,229 81,0 0,-85z" />
<path style="fill:#bdbdbd" d="M118,887 l-81,-141 0,224 81,0 0,-83z" />
<path style="fill:none;stroke:#000;stroke-width:2" d="M118,629 l-81,0 0,341 81,0 0,-341" />
<path style="fill:#ccc" d="M559,629 l-81,0 0,341 81,0 0,-341z" />
<path style="fill:#c7c7c7" d="M559,851 l-81,-141 0,242 81,0 0,-101z" />
<path style="fill:#c2c2c2" d="M559,867 l-81,-144 0,229 81,0 0,-85z" />
<path style="fill:#bdbdbd" d="M559,887 l-81,-141 0,224 81,0 0,-83z" />
<path style="fill:none;stroke:#000;stroke-width:2" d="M559,629 l-81,0 0,341 81,0 0,-341" />
<path style="fill:#666" d="M412,744 l30,-41 17,-48 0,-50 -20,-16 0,-39 20,0 0,-21 -322,0 0,19 21,2 0,39 -21,16 0,50 17,48 30,41 40,30 49,15 51,0 49,-15 39,-30z" />
<path style="fill:#737373" d="M403,744 l26,-41 13,-49 0,-51 -17,-14 0,-41 17,0 0,-19 -290,0 0,19 19,0 0,41 -19,14 0,51 15,49 27,41 37,30 43,15 48,0 43,-15 38,-30z" />
<path style="fill:#7f7f7f" d="M391,744 l25,-41 11,-49 0,-51 -15,-14 0,-41 15,0 0,-19 -260,0 0,19 17,0 0,41 -17,14 0,51 13,49 25,41 32,30 39,15 42,0 40,-15 33,-30z" />
<path style="fill:#8c8c8c" d="M380,744 l21,-41 13,-49 0,-51 -15,-14 0,-41 15,0 0,-19 -232,0 0,19 15,0 0,41 -15,14 0,51 12,49 22,41 28,30 36,15 36,0 36,-15 28,-30z" />
<path style="fill:#999" d="M369,744 l19,-41 11,-49 0,-51 -13,-14 0,-41 13,0 0,-19 -202,0 0,19 13,0 0,41 -13,14 0,51 10,49 19,41 26,30 30,15 32,0 30,-15 25,-30z" />
<path style="fill:#a6a6a6" d="M359,744 l16,-41 9,-49 0,-51 -11,-14 0,-41 11,0 0,-19 -172,0 0,19 12,0 0,41 -12,14 0,51 8,49 17,41 23,30 24,15 26,0 27,-15 22,-30z" />
<path style="fill:#b2b2b2" d="M348,744 l13,-41 8,-49 0,-51 -10,-14 0,-41 10,0 0,-19 -141,0 0,19 9,0 0,41 -9,14 0,51 7,49 13,41 17,30 21,15 23,0 20,-15 19,-30z" />
<path style="fill:#bfbfbf" d="M337,744 l11,-41 6,-49 0,-51 -8,-14 0,-41 8,0 0,-19 -112,0 0,19 8,0 0,41 -8,14 0,51 6,49 10,41 15,30 17,15 17,0 17,-15 13,-30z" />
<path style="fill:#ccc" d="M327,744 l8,-41 4,-49 0,-51 -6,-14 0,-41 6,0 0,-19 -81,0 0,19 5,0 0,41 -5,14 0,51 4,49 7,41 9,30 14,15 13,0 11,-15 11,-30z" />
<path style="fill:#d9d9d9" d="M316,744 l4,-41 4,-49 0,-51 -4,-14 0,-41 4,0 0,-19 -51,0 0,19 3,0 0,41 -3,14 0,51 1,49 6,41 6,30 8,15 7,0 9,-15 6,-30z" />
<path style="fill:#e5e5e5" d="M305,744 l2,-41 2,-48 0,-50 -2,-16 0,-39 2,0 0,-21 -21,0 0,19 2,2 0,39 -2,16 0,50 2,48 2,41 2,30 3,15 2,0 4,-15 2,-30z" />
<path style="fill:#333" d="M439,550 l-281,0 0,39 281,0 0,-39z" />
<path style="fill:none;stroke:#000;stroke-width:2" d="M412,744 l30,-41 17,-48 0,-50 -20,-16 0,-39 20,0 0,-21 -322,0 0,19 21,2 0,39 -21,16 0,50 17,48 30,41 40,30 49,15 51,0 49,-15 39,-30" />
<path style="fill:#7f7f7f" d="M508,369 l0,260 21,0 0,-260 -21,0z" />
<path style="fill:#999" d="M510,369 l0,260 17,0 0,-260 -17,0z" />
<path style="fill:#b2b2b2" d="M512,369 l0,260 13,0 0,-260 -13,0z" />
<path style="fill:#ccc" d="M514,369 l0,260 10,0 0,-260 -10,0z" />
<path style="fill:#e5e5e5" d="M516,369 l0,260 6,0 0,-260 -6,0z" />
<path style="fill:#fff" d="M518,369 l0,260 2,0 0,-260 -2,0z" />
<path style="fill:none;stroke:#000;stroke-width:2" d="M508,369 l0,260 21,0 0,-260 -21,0" />
<path style="fill:#7f7f7f" d="M67,369 l0,260 21,0 0,-260 -21,0z" />
<path style="fill:#999" d="M69,369 l0,260 17,0 0,-260 -17,0z" />
<path style="fill:#b2b2b2" d="M71,369 l0,260 13,0 0,-260 -13,0z" />
<path style="fill:#ccc" d="M73,369 l0,260 9,0 0,-260 -9,0z" />
<path style="fill:#e5e5e5" d="M75,369 l0,260 5,0 0,-260 -5,0z" />
<path style="fill:#fff" d="M77,369 l0,260 2,0 0,-260 -2,0z" />
<path style="fill:none;stroke:#000;stroke-width:2" d="M67,369 l0,260 21,0 0,-260 -21,0" />
<path style="fill:#ccc" d="M559,288 l-522,0 0,81 522,0 0,-81z" />
<path style="fill:#c7c7c7" d="M559,346 l-522,-34 0,57 522,0 0,-23z" />
<path style="fill:#c2c2c2" d="M559,348 l-522,-32 0,53 522,0 0,-21z" />
<path style="fill:#bdbdbd" d="M559,354 l-522,-34 0,49 522,0 0,-15z" />
<path style="fill:none;stroke:#000;stroke-width:2" d="M559,288 l-522,0 0,81 522,0 0,-81" />
<path style="fill:none;stroke:#666;stroke-width:2" d="M448,599 l-311,0" />
<path style="fill:#666" d="M459,378 l0,-35 -17,-14 -30,-9 -39,-8 -49,-3 -51,0 -49,3 -40,8 -30,9 -17,14 0,35 322,0z" />
<path style="fill:#737373" d="M442,378 l0,-35 -13,-14 -26,-9 -38,-8 -43,-3 -48,0 -43,3 -37,8 -27,9 -15,14 0,35 290,0z" />
<path style="fill:#7f7f7f" d="M427,378 l0,-35 -11,-14 -25,-9 -33,-8 -40,-3 -42,0 -39,3 -32,8 -25,9 -13,14 0,35 260,0z" />
<path style="fill:#8c8c8c" d="M414,378 l0,-35 -13,-14 -21,-9 -28,-8 -36,-3 -36,0 -36,3 -28,8 -22,9 -12,14 0,35 232,0z" />
<path style="fill:#999" d="M399,378 l0,-35 -11,-14 -19,-9 -25,-8 -30,-3 -32,0 -30,3 -26,8 -19,9 -10,14 0,35 202,0z" />
<path style="fill:#a6a6a6" d="M384,378 l0,-35 -9,-14 -16,-9 -22,-8 -27,-3 -26,0 -24,3 -23,8 -17,9 -8,14 0,35 172,0z" />
<path style="fill:#b2b2b2" d="M369,378 l0,-35 -8,-14 -13,-9 -19,-8 -20,-3 -23,0 -21,3 -17,8 -13,9 -7,14 0,35 141,0z" />
<path style="fill:#bfbfbf" d="M354,378 l0,-35 -6,-14 -11,-9 -13,-8 -17,-3 -17,0 -17,3 -15,8 -10,9 -6,14 0,35 112,0z" />
<path style="fill:#ccc" d="M339,378 l0,-35 -4,-14 -8,-9 -11,-8 -11,-3 -13,0 -14,3 -9,8 -7,9 -4,14 0,35 81,0z" />
<path style="fill:#d9d9d9" d="M324,378 l0,-35 -4,-14 -4,-9 -6,-8 -9,-3 -7,0 -8,3 -6,8 -6,9 -1,14 0,35 51,0z" />
<path style="fill:#e5e5e5" d="M309,378 l0,-35 -2,-14 -2,-9 -2,-8 -4,-3 -2,0 -3,3 -2,8 -2,9 -2,14 0,35 21,0z" />
<path style="fill:none;stroke:#000;stroke-width:2" d="M459,378 l0,-35 -17,-14 -30,-9 -39,-8 -49,-3 -51,0 -49,3 -40,8 -30,9 -17,14 0,35 322,0" />
<path style="fill:none;stroke:#000;stroke-width:2" d="M459,348 l-322,0" />
<path style="fill:#7f7f7f" d="M258,28 l0,260 81,0 0,-260 -81,0z" />
<path style="fill:#999" d="M263,28 l0,260 70,0 0,-260 -70,0z" />
<path style="fill:#b2b2b2" d="M271,28 l0,260 55,0 0,-260 -55,0z" />
<path style="fill:#ccc" d="M280,28 l0,260 36,0 0,-260 -36,0z" />
<path style="fill:#e5e5e5" d="M286,28 l0,260 24,0 0,-260 -24,0z" />
<path style="fill:#fff" d="M294,28 l0,260 9,0 0,-260 -9,0z" />
<path style="fill:#4c4c4c" d="M327,69 l-69,0 0,58 69,0 0,-58z" />
<path style="fill:none;stroke:#000;stroke-width:2" d="M258,28 l0,260 81,0 0,-260 -81,0" />
<path style="fill:none;stroke:#7f7f7f;stroke-width:2" d="M318,127 l0,-58 -9,0 0,58 -12,0 0,-58 -9,0 0,58 -10,0 0,-58 -9,0 0,58" />
<path style="fill:none;stroke:#000;stroke-width:2" d="M339,69 l-81,0" />
<path style="fill:#7f7f7f" d="M248,209 l0,9 100,0 0,-9 -100,0z" />
<path style="fill:#999" d="M254,209 l0,9 89,0 0,-9 -89,0z" />
<path style="fill:#b2b2b2" d="M265,209 l0,9 66,0 0,-9 -66,0z" />
<path style="fill:#ccc" d="M274,209 l0,9 48,0 0,-9 -48,0z" />
<path style="fill:#e5e5e5" d="M284,209 l0,9 28,0 0,-9 -28,0z" />
<path style="fill:#fff" d="M292,209 l0,9 13,0 0,-9 -13,0z" />
<path style="fill:none;stroke:#000;stroke-width:2" d="M248,209 l0,9 100,0 0,-9 -100,0" />
<path style="fill:#7f7f7f" d="M248,139 l0,9 100,0 0,-9 -100,0z" />
<path style="fill:#999" d="M254,139 l0,9 89,0 0,-9 -89,0z" />
<path style="fill:#b2b2b2" d="M265,139 l0,9 66,0 0,-9 -66,0z" />
<path style="fill:#ccc" d="M274,139 l0,9 48,0 0,-9 -48,0z" />
<path style="fill:#e5e5e5" d="M284,139 l0,9 28,0 0,-9 -28,0z" />
<path style="fill:#fff" d="M292,139 l0,9 13,0 0,-9 -13,0z" />
<path style="fill:none;stroke:#000;stroke-width:2" d="M248,139 l0,9 100,0 0,-9 -100,0" />
<path style="fill:#7f7f7f" d="M339,269 l49,0 0,-40 -49,0 0,40z" />
<path style="fill:#999" d="M339,265 l49,0 0,-34 -49,0 0,34z" />
<path style="fill:#b2b2b2" d="M339,262 l49,0 0,-27 -49,0 0,27z" />
<path style="fill:#ccc" d="M339,258 l49,0 0,-19 -49,0 0,19z" />
<path style="fill:#e5e5e5" d="M339,254 l49,0 0,-12 -49,0 0,12z" />
<path style="fill:#fff" d="M339,250 l49,0 0,-4 -49,0 0,4z" />
<path style="fill:none;stroke:#000;stroke-width:2" d="M339,269 l49,0 0,-40 -49,0 0,40" />
<path style="fill:#666;stroke:#000;stroke-width:2" d="M218,409 l0,20 160,0 0,-20 -160,0z" />
<path style="fill:#4c4c4c;stroke:#000;stroke-width:2" d="M267,378 l0,31 60,0 0,-31 -60,0z" />
<path style="fill:#4c4c4c;stroke:#000;stroke-width:2" d="M288,429 l0,79 21,0 0,-79 -21,0z" />
<path style="fill:#666;stroke:#000;stroke-width:2" d="M248,439 l0,20 100,0 0,-20 -100,0z" />
<path style="fill:#7f7f7f" d="M388,288 l162,0 0,-79 -162,0 0,79z" />
<path style="fill:#999" d="M388,265 l162,0 0,-53 -162,0 0,53z" />
<path style="fill:#b2b2b2" d="M388,258 l162,0 0,-40 -162,0 0,40z" />
<path style="fill:#ccc" d="M388,252 l162,0 0,-28 -162,0 0,28z" />
<path style="fill:#e5e5e5" d="M388,246 l162,0 0,-17 -162,0 0,17z" />
<path style="fill:none;stroke:#000;stroke-width:2" d="M388,288 l162,0 0,-79 -162,0 0,79" />
<path style="fill:#7f7f7f" d="M659,209 l-109,0 0,69 109,0 0,-69z" />
<path style="fill:#999" d="M659,212 l-109,0 0,63 109,0 0,-63z" />
<path style="fill:#b2b2b2" d="M659,220 l-109,0 0,47 109,0 0,-47z" />
<path style="fill:#ccc" d="M659,228 l-109,0 0,32 109,0 0,-32z" />
<path style="fill:#e5e5e5" d="M659,233 l-109,0 0,21 109,0 0,-21z" />
<path style="fill:#fff" d="M659,239 l-109,0 0,9 109,0 0,-9z" />
<path style="fill:#4c4c4c" d="M618,269 l0,-60 -61,0 0,60 61,0z" />
<path style="fill:none;stroke:#000;stroke-width:2" d="M659,209 l-109,0 0,69 109,0 0,-69" />
<path style="fill:none;stroke:#7f7f7f;stroke-width:2" d="M557,262 l61,0 0,-10 -61,0 0,-10 61,0 0,-7 -61,0 0,-9 61,0 0,-8 -61,0" />
<path style="fill:none;stroke:#000;stroke-width:2" d="M618,278 l0,-69" />
<path style="fill:none;stroke:#000;stroke-width:2" d="M399,589 l19,-81" />
<path style="fill:none;stroke:#000;stroke-width:2" d="M197,589 l-18,-81" />
<path style="fill:none;stroke:#000;stroke-width:2" d="M339,589 l9,-81" />
<path style="fill:none;stroke:#000;stroke-width:2" d="M258,589 l-10,-81" />
<path style="fill:none;stroke:#000;stroke-width:2" d="M439,589 l39,-81" />
<path style="fill:none;stroke:#000;stroke-width:2" d="M158,589 l-40,-81" />
<path style="fill:#ccc;stroke:#000;stroke-width:2" d="M569,961 l-100,0 0,9 100,0 0,-9z" />
<path style="fill:#ccc;stroke:#000;stroke-width:2" d="M127,961 l-99,0 0,9 99,0 0,-9z" />

</svg>
