 

<svg xmlns:agg="http://www.example.com" xmlns="http://www.w3.org/2000/svg" preserveAspectRatio="none" width="1.2664in" height="1.0750in" viewBox="0 0 999 848">

<path style="fill:#f0f0f0;stroke:#000;stroke-width:2" d="M942,83 l-824,0 0,458 824,0 0,-458z" />
<path style="fill:#f0f0f0;stroke:#000;stroke-width:2" d="M942,362 l-824,0 0,459 824,0 0,-459z" />
<path style="fill:#000" d="M942,356 l-824,0 0,22 824,0 0,-22z" />
<path style="fill:#e0e0e0;stroke:#000;stroke-width:2" d="M942,83 l-824,0 -44,-31 824,0 44,31z" />
<path style="fill:#f0f0f0;stroke:#000;stroke-width:2" d="M942,83 l29,-11 0,456 -29,13 0,-458z" />
<path style="fill:#f0f0f0;stroke:#000;stroke-width:2" d="M942,362 l29,-11 0,457 -29,13 0,-459z" />
<path style="fill:#e5e5e5;stroke:#000;stroke-width:2" d="M74,52 l44,31 0,458 -44,-20 0,-469z" />
<path style="fill:#e5e5e5;stroke:#000;stroke-width:2" d="M74,334 l44,28 0,459 -44,-20 0,-467z" />
<path style="fill:#ccc;stroke:#000;stroke-width:2" d="M27,27 l47,25 0,471 -47,-28 0,-468z" />
<path style="fill:#ccc;stroke:#000;stroke-width:2" d="M27,307 l47,27 0,467 -47,-35 0,-459z" />
<path style="fill:#b2b2b2;stroke:#000;stroke-width:2" d="M898,52 l-824,0 -44,-25 826,0 42,25z" />
<path style="fill:#f0f0f0;stroke:#000;stroke-width:2" d="M968,72 l-81,-42 -33,0 90,53 24,-11z" />
<path style="fill:#000" d="M942,356 l29,-11 0,22 -29,11 0,-22z" />
<path style="fill:#000" d="M27,298 l91,58 0,22 -91,-55 0,-25z" />
<path style="fill:none;stroke:#000;stroke-width:2" d="M111,746 l-24,-16" />
<path style="fill:none;stroke:#000;stroke-width:2" d="M111,710 l-24,-15" />
<path style="fill:none;stroke:#000;stroke-width:2" d="M111,673 l-24,-16" />
<path style="fill:none;stroke:#000;stroke-width:2" d="M111,638 l-24,-15" />
<path style="fill:none;stroke:#000;stroke-width:2" d="M111,600 l-24,-15" />
<path style="fill:none;stroke:#000;stroke-width:2" d="M111,565 l-24,-15" />
<path style="fill:none;stroke:#000;stroke-width:2" d="M111,528 l-24,-16" />
<path style="fill:none;stroke:#000;stroke-width:2" d="M111,492 l-24,-15" />
<path style="fill:none;stroke:#000;stroke-width:2" d="M111,455 l-24,-15" />
<path style="fill:none;stroke:#000;stroke-width:2" d="M111,420 l-24,-16" />
<path style="fill:#000;stroke:#000;stroke-width:2" d="M248,537 l-40,0 0,90 9,6 38,-88 -7,-8z" />
<path style="fill:#7f7f7f;stroke:#000;stroke-width:2" d="M255,545 l-40,0 0,88 40,0 0,-88z" />
<path style="fill:none;stroke:#000;stroke-width:2" d="M252,580 l-33,0" />
<path style="fill:none;stroke:#000;stroke-width:2" d="M252,591 l-31,0" />
<path style="fill:#000;stroke:#000;stroke-width:2" d="M261,428 l-15,7 -7,16 7,15 15,7 15,-7 7,-15 -7,-16 -15,-7z" />
<path style="fill:#000;stroke:#000;stroke-width:2" d="M195,428 l-16,7 -6,16 6,15 16,7 15,-7 7,-15 -7,-16 -15,-7z" />
<path style="fill:#0f0;stroke:#000;stroke-width:2" d="M261,435 l-11,5 -4,11 4,10 11,7 11,-7 4,-10 -4,-11 -11,-5z" />
<path style="fill:#f00;stroke:#000;stroke-width:2" d="M195,435 l-11,5 -5,11 5,10 11,7 11,-7 4,-10 -4,-11 -11,-5z" />
<path style="fill:#000" d="M263,783 l-97,0 0,7 97,0 0,-7z" />
<path style="fill:#f00" d="M263,796 l-97,0 0,-6 97,0 0,6z" />
<path style="fill:none;stroke:#fff;stroke-width:2" d="M623,250 l0,-88 -78,0" />
<path style="fill:none;stroke:#999;stroke-width:2" d="M623,250 l-78,0 0,-88" />
<path style="fill:none;stroke:#fff;stroke-width:2" d="M525,250 l0,-88 -77,0" />
<path style="fill:none;stroke:#999;stroke-width:2" d="M525,250 l-77,0 0,-88" />

</svg>
