 

<svg xmlns:agg="http://www.example.com" xmlns="http://www.w3.org/2000/svg" preserveAspectRatio="none" width="0.9082in" height="1.0750in" viewBox="0 0 844 999">

<path style="fill:#191919;stroke:#000;stroke-width:2" d="M759,267 l0,28 -155,0 0,-15 127,0 0,-13 28,0z" />
<path style="fill:#333" d="M69,365 l0,29 507,0 0,-29 -507,0z" />
<path style="fill:#666" d="M576,380 l-24,0 0,547 24,0 0,-547z" />
<path style="fill:#666" d="M95,380 l-26,0 0,547 26,0 0,-547z" />
<path style="fill:#666" d="M95,737 l0,24 457,0 0,-24 -457,0z" />
<path style="fill:#4c4c4c;stroke:#000;stroke-width:2" d="M463,97 l-26,0 0,29 -268,0 0,-14 -43,0 0,42 337,0 0,-57z" />
<path style="fill:#999;stroke:#000;stroke-width:2" d="M126,41 l-70,0 0,113 70,0 0,-113z" />
<path style="fill:#666;stroke:#000;stroke-width:2" d="M788,154 l28,0 0,126 -28,0 0,-126z" />
<path style="fill:#ccc" d="M604,154 l-507,0 0,-42 -55,0 0,266 562,0 0,-224z" />
<path style="fill:#c7c7c7" d="M604,314 l-562,-94 0,158 562,0 0,-64z" />
<path style="fill:#c2c2c2" d="M604,324 l-562,-95 0,149 562,0 0,-54z" />
<path style="fill:#bdbdbd" d="M604,337 l-562,-94 0,135 562,0 0,-41z" />
<path style="fill:#fff" d="M591,169 l-113,0 0,57 113,0 0,-57z" />
<path style="fill:#f60" d="M591,169 l-113,0 0,28 113,0 0,-28z" />
<path style="fill:#b2b2b2;stroke:#000;stroke-width:2" d="M604,378 l-28,0 0,592 28,0 0,-592z" />
<path style="fill:#b2b2b2;stroke:#000;stroke-width:2" d="M71,378 l-29,0 0,592 29,0 0,-592z" />
<path style="fill:none;stroke:#000;stroke-width:2" d="M591,169 l-113,0 0,57 113,0 0,-57" />
<path style="fill:none;stroke:#000;stroke-width:2" d="M604,154 l-507,0 0,-42 -55,0 0,266 562,0 0,-224" />
<path style="fill:#7f7f7f" d="M97,141 l366,0 0,-15 -366,0 0,15z" />
<path style="fill:#999" d="M97,139 l366,0 0,-11 -366,0 0,11z" />
<path style="fill:#b2b2b2" d="M97,137 l366,0 0,-8 -366,0 0,8z" />
<path style="fill:#ccc" d="M97,137 l366,0 0,-8 -366,0 0,8z" />
<path style="fill:#e5e5e5" d="M97,135 l366,0 0,-4 -366,0 0,4z" />
<path style="fill:none;stroke:#000;stroke-width:2" d="M463,126 l-366,0" />
<path style="fill:none;stroke:#000;stroke-width:2" d="M97,141 l366,0" />
<path style="fill:#7f7f7f" d="M97,141 l366,0 0,-15 -366,0 0,15z" />
<path style="fill:#b2b2b2" d="M97,137 l366,0 0,-8 -366,0 0,8z" />
<path style="fill:#ccc" d="M97,137 l366,0 0,-8 -366,0 0,8z" />
<path style="fill:none;stroke:#000;stroke-width:2" d="M463,126 l-366,0" />
<path style="fill:none;stroke:#000;stroke-width:2" d="M97,141 l366,0" />
<path style="fill:#ccc" d="M604,41 l-141,0 0,115 141,0 0,-115z" />
<path style="fill:#c7c7c7" d="M604,94 l-141,-23 0,40 141,0 0,-17z" />
<path style="fill:#c2c2c2" d="M604,107 l-141,-23 0,38 141,0 0,-15z" />
<path style="fill:#bdbdbd" d="M604,122 l-141,-25 0,57 141,0 0,-32z" />
<path style="fill:none;stroke:#000;stroke-width:2" d="M604,41 l-141,0 0,115 141,0 0,-115" />
<path style="fill:#fff" d="M591,56 l-56,0 0,70 56,0 0,-70z" />
<path style="fill:#f60" d="M591,56 l-56,0 0,13 56,0 0,-13z" />
<path style="fill:none;stroke:#000;stroke-width:2" d="M591,56 l-56,0 0,70 56,0 0,-70" />
<path style="fill:#e5e5e5" d="M746,169 l-142,0 0,98 142,0 0,-98z" />
<path style="fill:#ccc" d="M746,182 l-142,0 0,28 142,0 0,-28z" />
<path style="fill:#ccc" d="M746,224 l-142,0 0,28 142,0 0,-28z" />
<path style="fill:none;stroke:#000;stroke-width:2" d="M746,169 l-142,0 0,98 142,0 0,-98" />
<path style="fill:#000;stroke:#000;stroke-width:2" d="M746,169 l57,0 0,98 -57,0 0,-98z" />
<path style="fill:none;stroke:#ccc;stroke-width:2" d="M788,252 l0,-70" />
<path style="fill:#b2b2b2;stroke:#000;stroke-width:2" d="M69,759 l0,29 507,0 0,-29 -507,0z" />
<path style="fill:#999" d="M226,337 l0,28 56,0 0,-28 -56,0z" />
<path style="fill:#4c4c4c" d="M563,352 l0,13 13,0 0,-13 -13,0z" />
<path style="fill:#4c4c4c" d="M69,352 l0,13 15,0 0,-13 -15,0z" />
<path style="fill:#4c4c4c" d="M324,352 l0,13 13,0 0,-13 -13,0z" />
<path style="fill:#ccc;stroke:#000;stroke-width:2" d="M267,84 l-13,0 0,70 13,0 0,-70z" />
<path style="fill:#b2b2b2;stroke:#000;stroke-width:2" d="M154,41 l-126,0 0,-13 126,0 0,13z" />

</svg>
