 

<svg xmlns:agg="http://www.example.com" xmlns="http://www.w3.org/2000/svg" preserveAspectRatio="none" width="1.0750in" height="1.0750in" viewBox="0 0 999 999">

<path style="fill:#4c4c4c;stroke:#000;stroke-width:2" d="M273,460 l658,0 0,118 -658,0 0,-118z" />
<circle style="fill:#a6a6a6;stroke:#000;stroke-width:2" cx="852" cy="518" r="68" />
<circle style="fill:#a6a6a6;stroke:#000;stroke-width:2" cx="685" cy="518" r="68" />
<circle style="fill:#a6a6a6;stroke:#000;stroke-width:2" cx="351" cy="518" r="68" />
<path style="fill:#666" d="M832,540 l-9,-21 9,-22 21,-8 21,8 8,22 -8,21 -21,8 -21,-8z" />
<path style="fill:#666" d="M665,540 l-9,-21 9,-22 21,-8 21,8 8,22 -8,21 -21,8 -21,-8z" />
<path style="fill:#666" d="M331,540 l-9,-21 9,-22 21,-8 21,8 9,22 -9,21 -21,8 -21,-8z" />
<path style="fill:#a6a6a6;stroke:#000;stroke-width:2" d="M455,499 l10,-39 93,0 0,39 -103,0z" />
<path style="fill:#bfbfbf;stroke:#000;stroke-width:2" d="M646,705 l59,0 0,49 -59,0 0,-49z" />
<path style="fill:#e5e5e5" d="M646,720 l59,0 0,20 -59,0 0,-20z" />
<path style="fill:#7f7f7f" d="M273,332 l108,-186 0,-118 -304,0 0,118 108,186 88,0z" />
<path style="fill:#999" d="M265,332 l89,-186 0,-118 -250,0 0,118 89,186 72,0z" />
<path style="fill:#b2b2b2" d="M261,332 l79,-186 0,-118 -222,0 0,118 79,186 64,0z" />
<path style="fill:#ccc" d="M254,332 l61,-186 0,-118 -171,0 0,118 61,186 49,0z" />
<path style="fill:#e5e5e5" d="M239,332 l24,-186 0,-118 -68,0 0,118 24,186 20,0z" />
<path style="fill:none;stroke:#000;stroke-width:2" d="M273,332 l108,-186 0,-118 -304,0 0,118 108,186 88,0" />
<path style="fill:none;stroke:#666;stroke-width:2" d="M77,146 l304,0" />
<path style="fill:#333" d="M185,332 l88,0 0,246 -88,0 0,-246z" />
<path style="fill:#4c7f7f;stroke:#000;stroke-width:2" d="M656,911 l314,0 0,39 -314,0 0,-39z" />
<path style="fill:#7fb2b2;stroke:#000;stroke-width:2" d="M205,833 l412,0 0,19 -412,0 0,-19z" />
<path style="fill:#7fb2b2;stroke:#000;stroke-width:2" d="M28,381 l59,0 0,530 -59,0 0,-530z" />
<path style="fill:#7fb2b2;stroke:#000;stroke-width:2" d="M28,911 l628,0 0,59 -628,0 0,-59z" />
<path style="fill:#7fb2b2;stroke:#000;stroke-width:2" d="M578,852 l19,0 0,59 -19,0 0,-59z" />
<path style="fill:#7fb2b2;stroke:#000;stroke-width:2" d="M224,852 l20,0 0,59 -20,0 0,-59z" />
<path style="fill:#699;stroke:#000;stroke-width:2" d="M892,636 l58,0 0,275 -58,0 0,-275z" />
<path style="fill:#699;stroke:#000;stroke-width:2" d="M106,342 l99,0 0,569 -99,0 0,-569z" />
<path style="fill:#7fb2b2;stroke:#000;stroke-width:2" d="M205,578 l746,0 0,58 -746,0 0,-58z" />
<path style="fill:#7fb2b2;stroke:#000;stroke-width:2" d="M931,578 l20,0 0,-256 -20,0 0,256z" />
<path style="fill:#9cc;stroke:#000;stroke-width:2" d="M126,263 l59,0 0,79 -59,0 0,-79z" />
<path style="fill:#9cc;stroke:#000;stroke-width:2" d="M28,460 l78,0 0,118 -78,0 0,-118z" />
<path style="fill:#e5e5e5;stroke:#000;stroke-width:2" d="M263,322 l668,0 0,138 -668,0 0,-138z" />
<path style="fill:#d9d9d9" d="M926,362 l0,93 -525,0 525,-93z" />
<path style="fill:#4c4c4c" d="M283,342 l10,0 0,10 -10,0 0,-10z" />
<path style="fill:#4c4c4c" d="M283,430 l10,0 0,10 -10,0 0,-10z" />
<path style="fill:#4c4c4c" d="M902,342 l9,0 0,10 -9,0 0,-10z" />
<path style="fill:#4c4c4c" d="M597,342 l10,0 0,10 -10,0 0,-10z" />
<path style="fill:#4c4c4c" d="M597,430 l11,0 0,10 -11,0 0,-10z" />
<path style="fill:#4c4c4c" d="M901,430 l10,0 0,10 -10,0 0,-10z" />
<path style="fill:#c63;stroke:#000;stroke-width:2" d="M214,371 l10,0 0,275 -10,0 0,-275z" />
<path style="fill:#c63;stroke:#000;stroke-width:2" d="M244,420 l10,0 0,109 98,0 0,9 -108,0 0,-118z" />
<path style="fill:#d9d9d9;stroke:#000;stroke-width:2" d="M205,813 l441,0 0,-167 -441,0 0,167z" />
<path style="fill:#f2f2f2;stroke:#000;stroke-width:2" d="M480,676 l107,0 0,108 -107,0 0,-108z" />
<path style="fill:#f2f2f2;stroke:#000;stroke-width:2" d="M303,656 l157,0 0,147 -157,0 0,-147z" />
<path style="fill:none;stroke:#fff;stroke-width:2" d="M303,803 l0,-147 157,0" />
<path style="fill:none;stroke:#fff;stroke-width:2" d="M480,784 l0,-108 107,0" />
<path style="fill:none;stroke:#000;stroke-width:2" d="M224,686 l59,0" />
<path style="fill:none;stroke:#000;stroke-width:2" d="M283,705 l-59,0" />
<path style="fill:none;stroke:#000;stroke-width:2" d="M224,725 l59,0" />
<path style="fill:none;stroke:#000;stroke-width:2" d="M283,744 l-59,0" />
<path style="fill:none;stroke:#000;stroke-width:2" d="M224,764 l59,0" />
<path style="fill:none;stroke:#000;stroke-width:2" d="M283,784 l-59,0" />
<path style="fill:#ccc;stroke:#000;stroke-width:2" d="M558,450 l118,0 0,177 -118,0 0,-177z" />
<path style="fill:#333" d="M558,636 l88,0 0,10 -88,0 0,-10z" />
<path style="fill:#333" d="M205,813 l412,0 0,20 -412,0 0,-20z" />
<path style="fill:#e5e5e5;stroke:#000;stroke-width:2" d="M558,440 l118,0 0,10 -118,0 0,-10z" />
<path style="fill:#e5e5e5;stroke:#000;stroke-width:2" d="M558,626 l118,0 0,10 -118,0 0,-10z" />
<path style="fill:#bfbfbf;stroke:#000;stroke-width:2" d="M489,479 l69,0 0,118 -69,0 0,-118z" />
<path style="fill:#e5e5e5" d="M489,499 l69,0 0,79 -69,0 0,-79z" />
<path style="fill:#fff" d="M489,525 l69,0 0,26 -69,0 0,-26z" />
<path style="fill:#bfbfbf;stroke:#000;stroke-width:2" d="M352,499 l107,0 0,79 -107,0 0,-79z" />
<path style="fill:#e5e5e5" d="M352,512 l107,0 0,53 -107,0 0,-53z" />
<path style="fill:#fff" d="M352,530 l107,0 0,17 -107,0 0,-17z" />
<path style="fill:#f2f2f2;stroke:#000;stroke-width:2" d="M489,440 l-29,0 0,206 29,0 0,-206z" />
<path style="fill:#999;stroke:#000;stroke-width:2" d="M951,440 l9,0 0,59 -9,0 0,-59z" />
<path style="fill:#bfbfbf;stroke:#000;stroke-width:2" d="M951,342 l19,0 0,88 -19,0 0,-88z" />
<path style="fill:#a6a6a6" d="M715,352 l167,0 0,9 -167,0 0,-9z" />
<path style="fill:none;stroke:#000;stroke-width:2" d="M136,332 l0,-59" />
<path style="fill:none;stroke:#000;stroke-width:2" d="M175,332 l0,-59" />
<path style="fill:#e5e5e5" d="M121,366 l69,0 0,49 -69,0 0,-49z" />
<path style="fill:#4c4c4c" d="M52,715 l25,0 0,59 -25,0 0,-59z" />

</svg>
