 

<svg xmlns:agg="http://www.example.com" xmlns="http://www.w3.org/2000/svg" preserveAspectRatio="none" width="0.9253in" height="1.0750in" viewBox="0 0 859 998">

<path style="fill:#7f7f7f;stroke:#000;stroke-width:2" d="M86,232 l9,0 0,705 -9,0 0,-705z" />
<path style="fill:#ccc" d="M95,31 l267,0 0,470 -267,0 0,-470z" />
<path style="fill:#c7c7c7" d="M95,366 l267,-197 0,332 -267,0 0,-135z" />
<path style="fill:#c2c2c2" d="M95,384 l267,-195 0,312 -267,0 0,-117z" />
<path style="fill:#bdbdbd" d="M95,414 l267,-197 0,284 -267,0 0,-87z" />
<path style="fill:#333" d="M362,535 l469,0 0,435 -469,0 0,-435z" />
<path style="fill:#7f7f7f" d="M95,535 l267,0 0,435 -267,0 0,-435z" />
<path style="fill:#666" d="M95,535 l267,0 0,34 -267,0 0,-34z" />
<path style="fill:#ccc;stroke:#000;stroke-width:2" d="M28,249 l67,0 0,68 -67,0 0,-68z" />
<path style="fill:#ccc;stroke:#000;stroke-width:2" d="M28,351 l67,0 0,65 -67,0 0,-65z" />
<path style="fill:#ccc;stroke:#000;stroke-width:2" d="M28,450 l67,0 0,68 -67,0 0,-68z" />
<path style="fill:#ccc;stroke:#000;stroke-width:2" d="M28,551 l67,0 0,66 -67,0 0,-66z" />
<path style="fill:#ccc;stroke:#000;stroke-width:2" d="M28,651 l67,0 0,68 -67,0 0,-68z" />
<path style="fill:#ccc;stroke:#000;stroke-width:2" d="M28,753 l67,0 0,65 -67,0 0,-65z" />
<path style="fill:#ccc;stroke:#000;stroke-width:2" d="M28,852 l67,0 0,68 -67,0 0,-68z" />
<circle style="fill:#b2b2b2;stroke:#000;stroke-width:2" cx="60" cy="886" r="25" />
<circle style="fill:#b2b2b2;stroke:#000;stroke-width:2" cx="60" cy="785" r="25" />
<path style="fill:#b2b2b2;stroke:#000;stroke-width:2" d="M67,709 l-13,0 -12,-5 -7,-12 0,-14 7,-12 12,-6 13,0 13,6 6,12 0,14 -6,12 -13,5z" />
<circle style="fill:#b2b2b2;stroke:#000;stroke-width:2" cx="60" cy="584" r="25" />
<path style="fill:#b2b2b2;stroke:#000;stroke-width:2" d="M67,508 l-13,0 -12,-5 -7,-12 0,-15 7,-11 12,-5 13,0 13,5 6,11 0,15 -6,12 -13,5z" />
<circle style="fill:#b2b2b2;stroke:#000;stroke-width:2" cx="60" cy="383" r="25" />
<path style="fill:#b2b2b2;stroke:#000;stroke-width:2" d="M67,307 l-13,0 -12,-5 -7,-11 0,-16 7,-11 12,-5 13,0 13,5 6,11 0,16 -6,11 -13,5z" />
<circle style="fill:#4c4c4c" cx="61" cy="283" r="17" />
<circle style="fill:#4c4c4c" cx="61" cy="383" r="17" />
<circle style="fill:#4c4c4c" cx="61" cy="484" r="17" />
<ellipse style="fill:#4c4c4c" cx="61" cy="584" rx="17" ry="15" />
<circle style="fill:#4c4c4c" cx="61" cy="685" r="17" />
<circle style="fill:#4c4c4c" cx="61" cy="785" r="17" />
<circle style="fill:#4c4c4c" cx="61" cy="886" r="17" />
<path style="fill:none;stroke:#000;stroke-width:2" d="M95,28 l267,0 0,942 -267,0 0,-942" />
<path style="fill:#ccc;stroke:#000;stroke-width:2" d="M95,501 l736,0 0,34 -736,0 0,-34z" />
<path style="fill:#999;stroke:#7f7f7f;stroke-width:2" d="M106,296 l17,0 0,96 -17,0 0,-96z" />
<path style="fill:#ccc;stroke:#7f7f7f;stroke-width:2" d="M584,279 l0,17 227,0 0,-17 -227,0z" />
<path style="fill:#ccc;stroke:#7f7f7f;stroke-width:2" d="M584,392 l0,17 227,0 0,-17 -227,0z" />
<path style="fill:#ccc;stroke:#7f7f7f;stroke-width:2" d="M828,279 l-17,0 0,218 17,0 0,-218z" />
<path style="fill:#ccc;stroke:#7f7f7f;stroke-width:2" d="M585,279 l-17,0 0,218 17,0 0,-218z" />
<path style="fill:#ccc;stroke:#7f7f7f;stroke-width:2" d="M409,279 l17,0 0,218 -17,0 0,-218z" />
<path style="fill:#ccc" d="M409,296 l-303,0 0,-17 303,0 0,17z" />
<path style="fill:#ccc" d="M409,392 l0,17 -303,0 0,-17 303,0z" />
<path style="fill:none;stroke:#7f7f7f;stroke-width:2" d="M409,279 l0,17 -303,0 0,-17 303,0" />
<path style="fill:none;stroke:#7f7f7f;stroke-width:2" d="M409,392 l0,17 -303,0 0,-17 303,0" />
<path style="fill:#ccc;stroke:#7f7f7f;stroke-width:2" d="M166,279 l15,0 0,218 -15,0 0,-218z" />
<path style="fill:#7f7f7f;stroke:#000;stroke-width:2" d="M405,497 l24,0 0,41 -24,0 0,-41z" />
<path style="fill:#7f7f7f;stroke:#000;stroke-width:2" d="M831,497 l-24,0 0,41 24,0 0,-41z" />
<path style="fill:#7f7f7f;stroke:#000;stroke-width:2" d="M589,497 l-24,0 0,41 24,0 0,-41z" />
<path style="fill:#7f7f7f;stroke:#000;stroke-width:2" d="M161,497 l26,0 0,41 -26,0 0,-41z" />
<path style="fill:#ccc" d="M409,279 l17,0 0,218 -17,0 0,-218z" />
<path style="fill:#7f7f7f" d="M405,933 l184,0 0,7 -184,0 0,-7z" />
<path style="fill:#7f7f7f" d="M405,878 l184,0 0,8 -184,0 0,-8z" />
<path style="fill:#7f7f7f" d="M405,824 l184,0 0,7 -184,0 0,-7z" />
<path style="fill:#7f7f7f" d="M405,769 l184,0 0,8 -184,0 0,-8z" />
<path style="fill:#7f7f7f" d="M405,715 l184,0 0,8 -184,0 0,-8z" />
<path style="fill:#7f7f7f" d="M405,660 l184,0 0,8 -184,0 0,-8z" />
<path style="fill:#7f7f7f" d="M405,606 l184,0 0,8 -184,0 0,-8z" />
<path style="fill:#7f7f7f" d="M405,551 l184,0 0,8 -184,0 0,-8z" />
<path style="fill:#e5e5e5" d="M405,535 l184,0 0,16 -184,0 0,-16z" />
<path style="fill:#e5e5e5" d="M405,589 l184,0 0,17 -184,0 0,-17z" />
<path style="fill:#e5e5e5" d="M405,644 l184,0 0,16 -184,0 0,-16z" />
<path style="fill:#e5e5e5" d="M405,698 l184,0 0,17 -184,0 0,-17z" />
<path style="fill:#e5e5e5" d="M405,753 l184,0 0,16 -184,0 0,-16z" />
<path style="fill:#e5e5e5" d="M405,807 l184,0 0,17 -184,0 0,-17z" />
<path style="fill:#e5e5e5" d="M405,862 l184,0 0,16 -184,0 0,-16z" />
<path style="fill:#e5e5e5" d="M405,916 l184,0 0,17 -184,0 0,-17z" />
<path style="fill:none;stroke:#000;stroke-width:2" d="M405,916 l184,0 0,24 -184,0 0,-24" />
<path style="fill:none;stroke:#000;stroke-width:2" d="M405,862 l184,0 0,24 -184,0 0,-24" />
<path style="fill:none;stroke:#000;stroke-width:2" d="M405,807 l184,0 0,24 -184,0 0,-24" />
<path style="fill:none;stroke:#000;stroke-width:2" d="M405,753 l184,0 0,24 -184,0 0,-24" />
<path style="fill:none;stroke:#000;stroke-width:2" d="M405,698 l184,0 0,25 -184,0 0,-25" />
<path style="fill:none;stroke:#000;stroke-width:2" d="M405,644 l184,0 0,24 -184,0 0,-24" />
<path style="fill:none;stroke:#000;stroke-width:2" d="M405,589 l184,0 0,25 -184,0 0,-25" />
<path style="fill:none;stroke:#000;stroke-width:2" d="M405,535 l184,0 0,24 -184,0 0,-24" />
<path style="fill:#ccc;stroke:#7f7f7f;stroke-width:2" d="M409,279 l17,0 -21,474 0,217 -17,0 0,-217 21,-474z" />
<path style="fill:#ccc;stroke:#7f7f7f;stroke-width:2" d="M584,279 l-16,0 21,474 0,217 17,0 0,-217 -22,-474z" />
<path style="fill:#666" d="M195,803 l167,0 0,167 -167,0 0,-167z" />
<path style="fill:#4c4c4c" d="M195,803 l167,0 5,-17 -176,0 4,17z" />
<path style="fill:#666" d="M195,769 l167,0 5,17 -176,0 4,-17z" />
<path style="fill:#ccc" d="M195,769 l167,0 -4,-50 -160,0 -3,50z" />
<path style="fill:#b2b2b2" d="M198,617 l160,0 0,102 -160,0 0,-102z" />
<path style="fill:none;stroke:#000;stroke-width:2" d="M198,617 l160,0 0,102 4,50 5,17 -5,17 0,167 -167,0 0,-169 -4,-16 4,-16 3,-50 0,-102" />
<path style="fill:#999" d="M262,634 l17,0 0,13 -17,0 0,-13z" />
<path style="fill:#999" d="M287,634 l16,0 0,13 -16,0 0,-13z" />
<path style="fill:#999" d="M313,634 l17,0 0,13 -17,0 0,-13z" />
<path style="fill:#666" d="M236,694 l9,0 0,8 -9,0 0,-8z" />
<path style="fill:#666" d="M270,694 l9,0 0,8 -9,0 0,-8z" />
<path style="fill:#666" d="M303,694 l10,0 0,8 -10,0 0,-8z" />
<path style="fill:#666" d="M337,694 l8,0 0,8 -8,0 0,-8z" />
<path style="fill:#666" d="M266,726 l84,0 0,6 -84,0 0,-6z" />
<path style="fill:#191919" d="M212,726 l13,0 0,10 -13,0 0,-10z" />

</svg>
