 

<svg xmlns:agg="http://www.example.com" xmlns="http://www.w3.org/2000/svg" preserveAspectRatio="none" width="1.6083in" height="1.0738in" viewBox="0 0 999 667">

<path style="fill:#ccc;stroke:#000;stroke-width:2" d="M970,173 l-11,0 -105,-103 11,0 105,103z" />
<path style="fill:#ccc;stroke:#000;stroke-width:2" d="M970,561 l-11,0 -105,-105 11,0 105,105z" />
<path style="fill:#e0e0e0;stroke:#000;stroke-width:2" d="M945,136 l-803,0 0,495 803,0 0,-495z" />
<path style="fill:#ccc;stroke:#000;stroke-width:2" d="M945,136 l-803,0 -101,-101 803,0 101,101z" />
<path style="fill:#999;stroke:#000;stroke-width:2" d="M41,35 l101,101 0,495 -101,-103 0,-493z" />
<path style="fill:#f0f0f0;stroke:#000;stroke-width:2" d="M881,136 l-17,0 0,503 17,0 0,-503z" />
<path style="fill:#f0f0f0;stroke:#000;stroke-width:2" d="M881,136 l-17,0 -109,-108 17,0 109,108z" />
<path style="fill:#7f7f7f;stroke:#000;stroke-width:2" d="M856,136 l8,0 -109,-108 0,7 101,101z" />
<path style="fill:#7f7f7f;stroke:#000;stroke-width:2" d="M856,136 l8,0 0,503 -8,-8 0,-495z" />
<path style="fill:#f0f0f0;stroke:#000;stroke-width:2" d="M235,136 l-19,0 0,503 19,0 0,-503z" />
<path style="fill:#f0f0f0;stroke:#000;stroke-width:2" d="M235,136 l-19,0 -107,-108 18,0 108,108z" />
<path style="fill:#7f7f7f;stroke:#000;stroke-width:2" d="M208,136 l8,0 -109,-108 0,7 101,101z" />
<path style="fill:#7f7f7f;stroke:#000;stroke-width:2" d="M210,136 l6,0 0,503 -6,-8 0,-495z" />
<path style="fill:#f0f0f0;stroke:#000;stroke-width:2" d="M676,136 l-18,0 0,503 18,0 0,-503z" />
<path style="fill:#f0f0f0;stroke:#000;stroke-width:2" d="M676,136 l-18,0 -108,-108 17,0 109,108z" />
<path style="fill:#7f7f7f;stroke:#000;stroke-width:2" d="M650,136 l8,0 -108,-108 0,7 100,101z" />
<path style="fill:#7f7f7f;stroke:#000;stroke-width:2" d="M652,136 l6,0 0,503 -6,-8 0,-495z" />
<path style="fill:#f0f0f0;stroke:#000;stroke-width:2" d="M452,136 l-17,0 0,503 17,0 0,-503z" />
<path style="fill:#f0f0f0;stroke:#000;stroke-width:2" d="M452,136 l-17,0 -109,-108 18,0 108,108z" />
<path style="fill:#7f7f7f;stroke:#000;stroke-width:2" d="M427,136 l8,0 -109,-108 0,7 101,101z" />
<path style="fill:#7f7f7f;stroke:#000;stroke-width:2" d="M429,136 l6,0 0,503 -6,-8 0,-495z" />
<path style="fill:#e0e0e0;stroke:#000;stroke-width:2" d="M970,173 l-837,0 0,53 837,0 0,-53z" />
<path style="fill:#e0e0e0;stroke:#000;stroke-width:2" d="M970,561 l-837,0 0,51 837,0 0,-51z" />
<path style="fill:#ccc;stroke:#000;stroke-width:2" d="M28,70 l105,103 0,53 -105,-105 0,-51z" />
<path style="fill:#ccc;stroke:#000;stroke-width:2" d="M28,456 l105,105 0,51 -105,-103 0,-53z" />
<path style="fill:#e0e0e0;stroke:#000;stroke-width:2" d="M970,173 l-837,0 -14,-12 838,0 13,12z" />
<path style="fill:#e0e0e0;stroke:#000;stroke-width:2" d="M970,561 l-837,0 -14,-14 838,0 13,14z" />
<path style="fill:#ccc;stroke:#000;stroke-width:2" d="M144,173 l-11,0 -105,-103 11,0 105,103z" />
<path style="fill:#ccc;stroke:#000;stroke-width:2" d="M144,561 l-11,0 -105,-105 11,0 105,105z" />

</svg>
