 

<svg xmlns:agg="http://www.example.com" xmlns="http://www.w3.org/2000/svg" preserveAspectRatio="none" width="0.9351in" height="1.0750in" viewBox="0 0 869 999">

<path style="fill:#9c9" d="M841,332 l-509,0 0,632 509,0 0,-632z" />
<path style="fill:#94c794" d="M841,779 l-509,-263 0,448 509,0 0,-185z" />
<path style="fill:#8fc28f" d="M841,807 l-509,-264 0,421 509,0 0,-157z" />
<path style="fill:#8abd8a" d="M841,845 l-509,-263 0,382 509,0 0,-119z" />
<path style="fill:none;stroke:#000;stroke-width:2" d="M841,332 l-509,0 0,632 509,0 0,-632" />
<path style="fill:#8abd8a;stroke:#000;stroke-width:2" d="M841,330 l-511,0 -302,-302 450,0 363,302z" />
<path style="fill:#696;stroke:#000;stroke-width:2" d="M28,28 l302,302 0,634 -302,-368 0,-568z" />
<path style="fill:none;stroke:#333;stroke-width:2" d="M821,439 l-473,0 0,525 473,0 0,-525" />
<path style="fill:#e0e0e0;stroke:#666;stroke-width:2" d="M596,439 l-21,0 0,525 21,0 0,-525z" />
<path style="fill:#7f7f7f;stroke:#000;stroke-width:2" d="M618,695 l0,30 -4,2 0,14 4,2 12,0 4,-2 0,-14 -4,-2 0,-30 4,-4 0,-11 -4,-3 -12,0 -4,3 0,11 4,4z" />
<ellipse style="fill:#7f7f7f;stroke:#000;stroke-width:2" cx="548" cy="710" rx="9" ry="33" />
<path style="fill:#f0f0f0;stroke:#000;stroke-width:2" d="M559,927 l-13,0 0,7 -2,0 0,23 20,0 0,-23 -5,0 0,-7z" />
<path style="fill:#000;stroke:#000;stroke-width:2" d="M559,941 l-13,0 0,27 0,2 13,0 0,-2 0,-27z" />
<path style="fill:#f0f0f0;stroke:#000;stroke-width:2" d="M623,927 l-14,0 0,7 -2,0 0,23 21,0 0,-23 -5,0 0,-7z" />
<path style="fill:#000;stroke:#000;stroke-width:2" d="M623,941 l-14,0 0,27 0,2 14,0 0,-2 0,-27z" />
<path style="fill:none;stroke:#7f7f7f;stroke-width:2" d="M764,441 l0,518" />
<path style="fill:none;stroke:#7f7f7f;stroke-width:2" d="M505,441 l0,518" />
<path style="fill:none;stroke:#7f7f7f;stroke-width:2" d="M666,441 l0,518" />
<path style="fill:none;stroke:#7f7f7f;stroke-width:2" d="M407,441 l0,518" />
<path style="fill:none;stroke:#000;stroke-width:2" d="M773,275 l-498,0 0,621" />
<path style="fill:none;stroke:#000;stroke-width:2" d="M682,200 l-479,0 0,605" />
<path style="fill:none;stroke:#000;stroke-width:2" d="M598,130 l-466,0 0,588" />
<path style="fill:none;stroke:#000;stroke-width:2" d="M521,66 l-457,0 0,570" />
<path style="fill:#ccc;stroke:#000;stroke-width:2" d="M294,562 l-30,0 0,154 30,0 0,-154z" />
<path style="fill:#ccc;stroke:#000;stroke-width:2" d="M294,562 l-30,0 -50,-50 30,0 50,50z" />
<path style="fill:#7f7f7f;stroke:#000;stroke-width:2" d="M214,512 l50,50 0,154 -50,-52 0,-152z" />
<path style="fill:#000;stroke:#000;stroke-width:2" d="M237,568 l-5,5 0,11 0,14 5,4 4,-4 3,-14 -3,-11 -4,-5z" />
<path style="fill:#000;stroke:#000;stroke-width:2" d="M237,621 l-5,4 0,11 0,14 5,5 4,-5 3,-14 -3,-11 -4,-4z" />
<path style="fill:#0f0;stroke:#000;stroke-width:2" d="M237,570 l-3,5 -2,9 2,12 3,2 2,-2 2,-12 -2,-9 -2,-5z" />
<path style="fill:#f00;stroke:#000;stroke-width:2" d="M237,623 l-3,4 -2,9 2,12 3,2 2,-2 2,-12 -2,-9 -2,-4z" />
<path style="fill:#7f7f7f;stroke:#000;stroke-width:2" d="M117,73 l11,7 34,2 34,-2 13,-7 0,-36 -92,0 0,36z" />
<path style="fill:#000;stroke:#000;stroke-width:2" d="M162,30 l-34,2 -14,5 14,6 34,3 34,-3 13,-6 -13,-5 -34,-2z" />
<path style="fill:none;stroke:#fff;stroke-width:2" d="M684,405 l0,-43 -195,0" />
<path style="fill:none;stroke:#696;stroke-width:2" d="M684,405 l-195,0 0,-43" />

</svg>
