 

<svg xmlns:agg="http://www.example.com" xmlns="http://www.w3.org/2000/svg" preserveAspectRatio="none" width="0.9588in" height="1.0750in" viewBox="0 0 891 999">

<path style="fill:#7f7f7f;stroke:#000;stroke-width:2" d="M50,748 l-6,38 -16,0 0,18 96,0 0,-56 -74,0z" />
<path style="fill:#7f7f7f" d="M124,748 l-19,56 92,166 666,0 0,-203 -17,-19 -722,0z" />
<path style="fill:#787878" d="M163,908 l34,62 666,0 0,-203 -700,141z" />
<path style="fill:none;stroke:#000;stroke-width:2" d="M124,748 l-19,56 92,166 666,0 0,-203 -17,-19 -722,0" />
<path style="fill:#666;stroke:#000;stroke-width:2" d="M401,342 l0,406 -313,0 0,-406 313,0z" />
<path style="fill:#5e5e5e" d="M401,342 l0,406 -313,0 313,-406z" />
<path style="fill:#666" d="M401,120 l0,389 241,0 0,-389 -241,0z" />
<path style="fill:#737373" d="M420,120 l0,389 203,0 0,-389 -203,0z" />
<path style="fill:none;stroke:#000;stroke-width:2" d="M401,120 l0,389 241,0 0,-389 -241,0" />
<path style="fill:#4c4c4c;stroke:#000;stroke-width:2" d="M401,748 l0,-239 241,0 0,239 -241,0z" />
<path style="fill:#7f7f7f;stroke:#000;stroke-width:2" d="M50,359 l0,389 38,0 0,-424 -38,35z" />
<path style="fill:#7f7f7f;stroke:#000;stroke-width:2" d="M493,120 l0,-55 -36,17 0,38 36,0z" />
<path style="fill:#4c4c4c" d="M493,120 l0,-55 149,0 0,55 -149,0z" />
<path style="fill:#7f7f7f" d="M586,729 l0,-351 -204,0 0,351 204,0z" />
<path style="fill:#7f7f7f;stroke:#000;stroke-width:2" d="M642,748 l0,-666 128,0 23,8 19,11 15,15 11,21 8,21 -2,590 -202,0z" />
<path style="fill:#8c8c8c" d="M586,786 l0,-389 -204,0 0,332 -185,0 0,57 389,0z" />
<path style="fill:none;stroke:#000;stroke-width:2" d="M586,786 l0,-408 -204,0 0,351 -185,0 0,57 389,0" />
<path style="fill:none;stroke:#b2b2b2;stroke-width:2" d="M197,748 l389,0" />
<path style="fill:none;stroke:#666;stroke-width:2" d="M197,744 l389,0" />
<path style="fill:none;stroke:#666;stroke-width:2" d="M382,729 l204,0" />
<path style="fill:#7f7f7f" d="M442,454 l0,286 -22,0 0,-286 22,0z" />
<path style="fill:#999" d="M440,454 l0,286 -18,0 0,-286 18,0z" />
<path style="fill:#b2b2b2" d="M439,454 l0,286 -15,0 0,-286 15,0z" />
<path style="fill:#ccc" d="M437,454 l0,286 -12,0 0,-286 12,0z" />
<path style="fill:#e5e5e5" d="M435,454 l0,286 -8,0 0,-286 8,0z" />
<path style="fill:#fff" d="M433,454 l0,286 -4,0 0,-286 4,0z" />
<path style="fill:none;stroke:#000;stroke-width:2" d="M442,454 l0,286 -22,0 0,-286 22,0" />
<path style="fill:#7f7f7f" d="M550,454 l0,286 -23,0 0,-286 23,0z" />
<path style="fill:#999" d="M548,454 l0,286 -21,0 0,-286 21,0z" />
<path style="fill:#b2b2b2" d="M546,454 l0,286 -15,0 0,-286 15,0z" />
<path style="fill:#ccc" d="M542,454 l0,286 -9,0 0,-286 9,0z" />
<path style="fill:#e5e5e5" d="M540,454 l0,286 -5,0 0,-286 5,0z" />
<path style="fill:#fff" d="M538,454 l0,286 -1,0 0,-286 1,0z" />
<path style="fill:none;stroke:#000;stroke-width:2" d="M550,454 l0,286 -23,0 0,-286 23,0" />
<path style="fill:#7f7f7f" d="M720,776 l-240,0 0,-13 240,0 0,13z" />
<path style="fill:#999" d="M720,776 l-240,0 0,-13 240,0 0,13z" />
<path style="fill:#b2b2b2" d="M720,774 l-240,0 0,-9 240,0 0,9z" />
<path style="fill:#ccc" d="M720,772 l-240,0 0,-5 240,0 0,5z" />
<path style="fill:#e5e5e5" d="M720,772 l-240,0 0,-5 240,0 0,5z" />
<path style="fill:#fff" d="M720,770 l-240,0 0,-1 240,0 0,1z" />
<path style="fill:none;stroke:#000;stroke-width:2" d="M720,776 l-240,0 0,-13 240,0 0,13" />
<path style="fill:#666" d="M642,120 l0,-55 -75,17 -55,38 130,0z" />
<path style="fill:#999" d="M652,425 l96,0 0,170 -96,0 0,-170z" />
<path style="fill:none;stroke:#ccc;stroke-width:2" d="M652,595 l0,-170 96,0" />
<path style="fill:none;stroke:#4c4c4c;stroke-width:2" d="M652,595 l96,0 0,-170" />
<circle style="fill:none;stroke:#333;stroke-width:2" cx="708" cy="561" r="49" />
<path style="fill:none;stroke:#333;stroke-width:2" d="M697,608 l24,-94" />
<path style="fill:none;stroke:#333;stroke-width:2" d="M661,550 l94,24" />
<path style="fill:none;stroke:#000;stroke-width:2" d="M493,120 l0,-55 149,0 0,55 -149,0" />
<path style="fill:#999" d="M591,735 l255,0 0,13 -255,0 0,-13z" />
<path style="fill:#4c4c4c" d="M471,162 l130,0 0,79 -130,0 0,-79z" />
<path style="fill:none;stroke:#000;stroke-width:2" d="M489,477 l-9,-380 9,-41 19,-23 13,-5 19,5 10,13 4,19" />
<path style="fill:#999" d="M476,477 l23,0 0,71 -23,0 0,-71z" />
<path style="fill:none;stroke:#ccc;stroke-width:2" d="M476,548 l0,-71 23,0" />
<path style="fill:none;stroke:#4c4c4c;stroke-width:2" d="M476,548 l23,0 0,-71" />
<path style="fill:#4c4c4c" d="M207,906 l18,0 0,46 -18,0 0,-46z" />
<path style="fill:#4c4c4c" d="M827,906 l19,0 0,46 -19,0 0,-46z" />

</svg>
