 

<svg xmlns:agg="http://www.example.com" xmlns="http://www.w3.org/2000/svg" preserveAspectRatio="none" width="0.6499in" height="1.0750in" viewBox="0 0 604 999">

<path style="fill:#4c4c4c" d="M576,301 l-32,0 0,87 -482,2 0,-89 -34,0 0,385 34,0 0,-89 482,0 0,89 32,0 0,-385z" />
<path style="fill:#595959" d="M576,329 l-34,0 0,74 -482,2 0,-76 -32,0 0,328 32,0 0,-73 482,0 0,73 34,0 0,-328z" />
<path style="fill:#666" d="M576,356 l-34,0 0,62 -482,2 0,-64 -32,0 0,275 32,0 0,-62 482,0 0,62 34,0 0,-275z" />
<path style="fill:#737373" d="M576,384 l-34,0 0,49 -482,2 0,-51 -32,0 0,219 32,0 0,-49 482,0 0,49 34,0 0,-219z" />
<path style="fill:#7f7f7f" d="M576,412 l-34,0 0,36 -482,0 0,-36 -32,0 0,162 32,0 0,-35 482,0 0,35 34,0 0,-162z" />
<path style="fill:#8c8c8c" d="M576,439 l-34,0 0,24 -482,0 0,-24 -32,0 0,109 32,0 0,-25 482,0 0,25 34,0 0,-109z" />
<path style="fill:#999" d="M576,467 l-32,0 0,11 -482,2 0,-13 -34,0 0,54 34,0 0,-12 482,0 0,12 32,0 0,-54z" />
<path style="fill:none;stroke:#000;stroke-width:2" d="M576,301 l-32,0 0,87 -482,2 0,-89 -34,0 0,385 34,0 0,-89 482,0 0,89 32,0 0,-385" />
<path style="fill:#999" d="M478,148 l-350,0 0,790 350,0 0,-790z" />
<path style="fill:#949494" d="M478,708 l-350,-330 0,560 350,0 0,-230z" />
<path style="fill:#8f8f8f" d="M478,742 l-350,-330 0,526 350,0 0,-196z" />
<path style="fill:#8a8a8a" d="M478,791 l-350,-330 0,477 350,0 0,-147z" />
<path style="fill:none;stroke:#000;stroke-width:2" d="M478,148 l-350,0 0,790 350,0 0,-790" />
<path style="fill:#999;stroke:#000;stroke-width:2" d="M521,938 l-439,0 0,32 439,0 0,-32z" />
<path style="fill:#f2f2f2;stroke:#7f7f7f;stroke-width:2" d="M390,488 l-176,0 0,132 176,0 0,-132z" />
<path style="fill:#7f7f7f;stroke:#000;stroke-width:2" d="M412,116 l0,-88 -220,0 0,88 33,0 0,-56 153,0 0,56 34,0z" />
<path style="fill:#333;stroke:#000;stroke-width:2" d="M499,116 l0,-34 11,0 0,-11 -66,0 0,11 12,0 0,34 43,0z" />
<path style="fill:#333;stroke:#000;stroke-width:2" d="M148,116 l0,-34 12,0 0,-11 -66,0 0,11 11,0 0,34 43,0z" />
<path style="fill:#333;stroke:#000;stroke-width:2" d="M390,116 l0,-34 11,0 0,-11 -66,0 0,11 11,0 0,34 44,0z" />
<path style="fill:#333;stroke:#000;stroke-width:2" d="M257,116 l0,-34 12,0 0,-11 -66,0 0,11 11,0 0,34 43,0z" />
<path style="fill:#7f7f7f" d="M478,171 l-350,0 0,-23 350,0 0,23z" />
<path style="fill:#999;stroke:#000;stroke-width:2" d="M521,116 l-439,0 0,32 439,0 0,-32z" />
<path style="fill:#e5e5e5" d="M312,499 l-87,0 0,43 87,0 0,-43z" />

</svg>
