 

<svg xmlns:agg="http://www.example.com" xmlns="http://www.w3.org/2000/svg" preserveAspectRatio="none" width="0.7619in" height="1.0750in" viewBox="0 0 708 999">

<path style="fill:#999" d="M297,970 l51,0 45,-3 36,-8 19,-11 2,-57 41,0 0,-43 -43,0 0,-62 -253,0 0,62 -41,0 0,43 41,0 0,57 19,11 36,8 47,3z" />
<path style="fill:#9e9e9e" d="M299,970 l45,0 44,-3 33,-8 18,-11 0,-59 37,0 0,-41 -37,0 0,-62 -234,0 0,62 -38,0 0,41 38,0 0,59 19,11 32,6 43,5z" />
<path style="fill:#a3a3a3" d="M301,970 l41,0 40,-3 30,-8 17,-11 0,-59 34,0 0,-41 -36,0 0,-62 -211,0 0,62 -36,0 0,41 36,0 0,59 15,11 30,6 40,5z" />
<path style="fill:#a6a6a6" d="M303,970 l38,0 35,-3 29,-8 13,-11 0,-59 32,0 0,-41 -32,0 0,-62 -193,0 0,62 -31,0 0,41 31,0 0,59 16,11 26,6 36,5z" />
<path style="fill:#ababab" d="M305,970 l34,0 32,-3 24,-8 13,-11 0,-59 29,0 0,-41 -29,0 0,-62 -173,0 0,62 -28,0 0,41 28,0 0,59 13,11 25,6 32,5z" />
<path style="fill:#b0b0b0" d="M307,970 l30,0 28,-3 21,-8 13,-11 0,-59 24,0 0,-41 -26,0 0,-62 -151,0 0,62 -26,0 0,41 26,0 0,59 12,11 20,6 29,5z" />
<path style="fill:#b5b5b5" d="M308,970 l27,0 24,-3 19,-8 10,-11 0,-59 22,0 0,-41 -22,0 0,-62 -132,0 0,62 -23,0 0,41 23,0 0,59 9,11 19,6 24,5z" />
<path style="fill:#bababa" d="M310,970 l23,0 21,-3 15,-8 9,-11 0,-59 19,0 0,-41 -19,0 0,-62 -113,0 0,62 -19,0 0,41 19,0 0,59 10,11 15,6 20,5z" />
<path style="fill:#bfbfbf" d="M312,970 l19,0 17,-3 13,-8 8,-11 0,-59 15,0 0,-41 -17,0 2,-62 -92,0 0,62 -16,0 0,41 16,0 0,59 5,11 13,6 17,5z" />
<path style="fill:#c2c2c2" d="M314,970 l15,0 13,-3 10,-8 6,-11 0,-59 13,0 -2,-41 -11,0 0,-62 -72,0 0,62 -11,0 0,41 11,0 0,59 6,11 9,6 13,5z" />
<path style="fill:#c7c7c7" d="M316,970 l11,0 10,-3 7,-8 4,-11 0,-59 10,0 0,-41 -10,0 0,-62 -53,0 0,62 -7,0 0,41 7,0 0,59 6,11 6,6 9,5z" />
<path style="fill:#ccc" d="M320,970 l5,0 6,-3 4,-8 4,-11 0,-57 5,0 0,-43 -5,0 0,-62 -32,0 0,62 -6,0 0,43 6,0 0,57 1,11 6,8 6,3z" />
<path style="fill:none;stroke:#7f7f7f;stroke-width:2" d="M195,891 l253,0" />
<path style="fill:none;stroke:#ccc;stroke-width:2" d="M195,848 l253,0" />
<path style="fill:none;stroke:#000;stroke-width:2" d="M297,970 l51,0 45,-3 36,-8 19,-11 2,-57 41,0 0,-43 -43,0 0,-62 -253,0 0,62 -41,0 0,43 41,0 0,57 19,11 36,8 47,3" />
<path style="fill:none;stroke:#000;stroke-width:2" d="M533,533 l64,-420" />
<path style="fill:none;stroke:#000;stroke-width:2" d="M112,533 l-64,-420" />
<path style="fill:#b2b2b2" d="M48,113 l-20,-23 0,-21 45,-19 83,-15 107,-7 119,0 107,7 83,15 46,19 0,21 -21,23 -64,420 21,41 -42,0 -41,212 -23,11 -42,5 -54,4 -59,0 -54,-4 -42,-5 -22,-11 -42,-212 -41,0 20,-41 -64,-420z" />
<path style="fill:#b2b2b2" d="M48,113 l-20,-23 45,-19 83,-15 107,-8 119,0 107,8 83,15 46,19 -21,23 -64,420 21,41 -42,0 -41,212 -23,11 -42,5 -54,4 -59,0 -54,-4 -42,-5 -22,-11 -42,-212 -41,0 20,-41 -64,-420z" />
<path style="fill:#b8b8b8" d="M71,111 l-19,-21 42,-19 75,-15 100,-8 107,0 98,8 76,15 41,19 -19,21 -58,422 21,41 -40,0 -37,212 -21,11 -38,5 -51,4 -53,0 -49,-4 -39,-5 -21,-11 -38,-212 -37,0 18,-41 -58,-422z" />
<path style="fill:#bdbdbd" d="M96,111 l-19,-21 37,-19 70,-15 89,-8 98,0 90,8 68,15 38,19 -17,21 -53,422 17,41 -34,0 -36,212 -19,11 -34,5 -45,4 -49,0 -45,-4 -34,-5 -19,-11 -34,-212 -36,0 17,-41 -50,-422z" />
<path style="fill:#bfbfbf" d="M118,111 l-17,-21 34,-19 62,-15 81,-8 89,0 79,8 62,15 34,19 -15,21 -47,422 15,41 -32,0 -30,212 -17,11 -32,5 -40,4 -43,0 -41,-4 -31,-5 -17,-11 -32,-212 -32,0 17,-41 -47,-422z" />
<path style="fill:#c4c4c4" d="M141,111 l-14,-21 29,-19 54,-15 74,-8 77,0 72,8 55,15 30,19 -15,21 -42,422 15,41 -28,0 -28,212 -15,11 -29,5 -35,4 -38,0 -36,-4 -28,-5 -15,-11 -29,-212 -26,0 13,-41 -41,-422z" />
<path style="fill:#c9c9c9" d="M163,111 l-11,-21 25,-19 48,-15 63,-8 68,0 62,8 49,15 26,19 -13,21 -36,422 12,41 -25,0 -23,212 -13,11 -24,5 -32,4 -34,0 -30,-4 -25,-5 -13,-11 -25,-212 -24,0 13,-41 -38,-422z" />
<path style="fill:#cfcfcf" d="M186,111 l-9,-21 22,-19 40,-15 54,-8 59,0 53,8 41,15 21,19 -9,21 -33,422 12,41 -21,0 -21,212 -11,11 -21,5 -26,4 -30,0 -27,-4 -20,-5 -12,-11 -21,-212 -18,0 9,-41 -32,-422z" />
<path style="fill:#d4d4d4" d="M210,111 l-9,-21 19,-19 34,-15 43,-8 49,0 44,8 33,15 19,19 -7,21 -27,422 10,41 -19,0 -17,212 -9,11 -17,5 -23,4 -23,0 -22,-4 -17,-5 -10,-11 -17,-212 -17,0 8,-41 -25,-422z" />
<path style="fill:#d9d9d9" d="M233,111 l-8,-21 16,-19 26,-15 36,-8 38,0 35,8 27,15 15,19 -8,21 -20,422 7,41 -13,0 -13,212 -8,11 -13,5 -19,4 -19,0 -17,-4 -13,-5 -7,-11 -15,-212 -14,0 8,-41 -21,-422z" />
<path style="fill:#dbdbdb" d="M256,111 l-6,-21 11,-19 21,-15 26,-8 29,0 26,8 19,15 11,19 -5,21 -15,422 5,41 -11,0 -9,212 -6,11 -10,5 -13,4 -15,0 -13,-4 -9,-5 -6,-11 -9,-212 -10,0 4,-41 -15,-422z" />
<path style="fill:#e0e0e0" d="M278,111 l-1,-21 5,-19 13,-15 17,-8 19,0 17,8 13,15 8,19 -4,21 -9,422 2,41 -6,0 -8,212 -3,11 -6,5 -10,4 -7,0 -10,-4 -5,-5 -4,-11 -7,-212 -6,0 4,-41 -12,-422z" />
<ellipse style="fill:#e5e5e5" cx="322" cy="427" rx="21" ry="379" />
<path style="fill:#98b2e5" d="M406,239 l0,-106 181,32 -11,77 -170,-3z" />
<path style="fill:#91abde" d="M431,239 l2,-102 154,26 -11,79 -145,-3z" />
<path style="fill:#87a1d4" d="M456,239 l3,-96 128,20 -11,79 -120,-3z" />
<path style="fill:#7f99cc" d="M480,241 l8,-95 99,17 -11,79 -96,-1z" />
<path style="fill:#7791c4" d="M504,241 l10,-89 73,11 -11,79 -72,-1z" />
<path style="fill:#6d87ba" d="M531,241 l9,-85 47,7 -11,79 -45,-1z" />
<path style="fill:#657fb2" d="M556,242 l13,-81 18,4 -11,77 -20,0z" />
<circle style="fill:#ccc;stroke:#7f7f7f;stroke-width:2" cx="406" cy="469" r="41" />
<circle style="fill:#ccc;stroke:#7f7f7f;stroke-width:2" cx="406" cy="680" r="41" />
<circle style="fill:#333" cx="406" cy="469" r="20" />
<circle style="fill:#333" cx="406" cy="680" r="20" />
<path style="fill:none;stroke:#7f7f7f;stroke-width:2" d="M512,574 l-379,0" />
<path style="fill:none;stroke:#b2b2b2;stroke-width:2" d="M533,533 l-421,0" />
<path style="fill:none;stroke:#000;stroke-width:2" d="M48,113 l-20,-23 0,-21 45,-19 83,-15 107,-7 119,0 107,7 83,15 46,19 0,21 -21,23 -64,420 21,41 -42,0 -41,212 -23,11 -42,5 -54,4 -59,0 -54,-4 -42,-5 -22,-11 -42,-212 -41,0 20,-41 -64,-420" />
<circle style="fill:#ccc;stroke:#7f7f7f;stroke-width:2" cx="504" cy="782" r="16" />
<circle style="fill:#4c4c4c" cx="504" cy="782" r="7" />
<path style="fill:#333;stroke:#000;stroke-width:2" d="M378,735 l-3,11 -4,11 0,12 0,9 2,9 3,8 6,6 264,69 6,-1 7,-4 6,-8 5,-7 6,-12 2,-11 2,-11 0,-12 -2,-9 -4,-8 -5,-3 -264,-70 -6,0 -8,4 -7,7 -6,10z" />
<path style="fill:#7f7f7f" d="M595,763 l-194,-51 -2,7 192,53 4,-9z" />
<path style="fill:#7f7f7f" d="M589,780 l-203,-55 -4,8 205,54 2,-7z" />
<path style="fill:#7f7f7f" d="M586,795 l-210,-55 -1,8 209,54 2,-7z" />
<path style="fill:#7f7f7f" d="M582,812 l-209,-56 -2,7 209,56 2,-7z" />
<path style="fill:#7f7f7f" d="M578,827 l-205,-55 -2,8 203,55 4,-8z" />
<path style="fill:#7f7f7f" d="M572,842 l-192,-51 -4,8 195,53 1,-10z" />
<path style="fill:#666" d="M559,784 l-3,9 -4,11 0,14 0,9 2,10 3,7 6,4 83,22 23,-86 -83,-23 -6,2 -8,4 -5,7 -8,10z" />
<path style="fill:#757575" d="M559,786 l-3,9 -2,9 -2,10 0,9 4,10 3,5 6,4 81,23 21,-76 -81,-22 -8,2 -7,3 -6,6 -6,8z" />
<path style="fill:#828282" d="M559,787 l-3,8 -2,7 -2,10 2,7 2,8 5,6 6,4 81,22 17,-64 -81,-23 -8,0 -5,4 -6,6 -6,5z" />
<path style="fill:#919191" d="M559,789 l-3,6 -2,7 0,8 0,8 3,5 4,4 6,4 83,23 13,-53 -81,-23 -8,0 -5,2 -6,4 -4,5z" />
<path style="fill:#a1a1a1" d="M557,791 l-1,6 -2,5 0,6 2,6 3,4 4,5 6,2 83,23 11,-42 -83,-22 -6,0 -7,2 -4,1 -6,4z" />
<path style="fill:#b0b0b0" d="M557,793 l-3,4 0,4 0,5 2,4 3,4 6,4 6,1 81,23 9,-30 -83,-23 -6,0 -5,0 -6,2 -4,2z" />
<path style="fill:#bdbdbd" d="M557,797 l-3,2 0,2 2,1 1,4 4,4 6,2 5,2 82,23 5,-19 -83,-23 -5,0 -6,-2 -4,2 -4,2z" />
<path style="fill:#ccc" d="M556,799 l-2,0 0,2 2,0 1,1 6,2 4,2 7,2 81,23 2,-8 -81,-22 -5,-2 -6,0 -6,0 -3,0z" />
<path style="fill:#b2b2b2;stroke:#000;stroke-width:2" d="M631,802 l-4,10 -4,13 -2,12 2,9 2,9 4,8 6,4 11,3 6,-1 7,-4 6,-8 5,-7 6,-12 2,-11 2,-11 0,-12 -2,-9 -4,-8 -5,-3 -12,-4 -7,2 -6,4 -7,7 -6,9z" />
<circle style="fill:#4c4c4c" cx="514" cy="743" r="8" />
<path style="fill:#999" d="M554,342 l11,-82 -11,-21 -10,73 10,30z" />

</svg>
