 

<svg xmlns:agg="http://www.example.com" xmlns="http://www.w3.org/2000/svg" preserveAspectRatio="none" width="1.6083in" height="1.0674in" viewBox="0 0 999 663">

<path style="fill:#ccc;stroke:#000;stroke-width:2" d="M133,59 l674,0 0,21 -674,0 0,-21z" />
<path style="fill:#999;stroke:#000;stroke-width:2" d="M878,80 l-815,0 0,555 815,0 0,-555z" />
<path style="fill:#7f7f7f" d="M859,635 l-779,0 0,-249 779,0 0,249z" />
<path style="fill:#7a7a7a" d="M859,459 l-779,104 0,-177 779,0 0,73z" />
<path style="fill:#757575" d="M859,448 l-779,104 0,-166 779,0 0,62z" />
<path style="fill:#707070" d="M859,433 l-779,104 0,-151 779,0 0,47z" />
<path style="fill:none;stroke:#000;stroke-width:2" d="M859,635 l-779,0 0,-249 779,0 0,249" />
<path style="fill:#7f7f7f" d="M895,618 l-850,0 0,-19 850,0 0,19z" />
<path style="fill:#999" d="M895,616 l-850,0 0,-15 850,0 0,15z" />
<path style="fill:#b2b2b2" d="M895,614 l-850,0 0,-11 850,0 0,11z" />
<path style="fill:#ccc" d="M895,612 l-850,0 0,-7 850,0 0,7z" />
<path style="fill:#e5e5e5" d="M895,610 l-850,0 0,-5 850,0 0,5z" />
<path style="fill:#fff" d="M895,608 l-850,0 0,-2 850,0 0,2z" />
<path style="fill:none;stroke:#000;stroke-width:2" d="M895,618 l-850,0 0,-19 850,0 0,19" />
<path style="fill:#ccc" d="M80,67 l72,0 0,36 637,0 0,-36 70,0 0,249 -779,0 0,-249z" />
<path style="fill:#c7c7c7" d="M80,254 l779,-89 0,151 -779,0 0,-62z" />
<path style="fill:#c2c2c2" d="M80,263 l779,-88 0,141 -779,0 0,-53z" />
<path style="fill:#bdbdbd" d="M80,276 l779,-88 0,128 -779,0 0,-40z" />
<path style="fill:none;stroke:#7f7f7f;stroke-width:2" d="M80,103 l779,0" />
<path style="fill:#b2b2b2;stroke:#000;stroke-width:2" d="M80,316 l779,0 0,53 -779,0 0,-53z" />
<path style="fill:#b2b2b2;stroke:#000;stroke-width:2" d="M63,369 l815,0 0,17 -815,0 0,-17z" />
<path style="fill:#999" d="M399,191 l141,0 0,53 -141,0 0,-53z" />
<path style="fill:none;stroke:#fff;stroke-width:2" d="M718,299 l0,-72 89,0" />
<path style="fill:none;stroke:#999;stroke-width:2" d="M718,299 l89,0 0,-72" />
<path style="fill:none;stroke:#000;stroke-width:2" d="M80,67 l72,0 0,36 637,0 0,-36 70,0 0,249 -779,0 0,-249" />
<path style="fill:#333" d="M727,237 l72,0 0,30 -72,0 0,-30z" />
<path style="fill:none;stroke:#fff;stroke-width:2" d="M799,237 l0,30 -72,0" />
<path style="fill:none;stroke:#999;stroke-width:2" d="M799,237 l-72,0 0,30" />
<path style="fill:#999" d="M727,280 l72,0 0,10 -72,0 0,-10z" />
<path style="fill:#666" d="M99,369 l-9,-17 0,-19 9,-8 34,0 9,8 0,19 -9,17 -34,0z" />
<path style="fill:#999" d="M90,333 l52,0 0,13 -52,0 0,-13z" />
<path style="fill:none;stroke:#000;stroke-width:2" d="M90,346 l52,0" />
<path style="fill:none;stroke:#000;stroke-width:2" d="M99,369 l-9,-17 0,-19 9,-8 34,0 9,8 0,19 -9,17 -34,0" />
<path style="fill:#666" d="M169,369 l-9,-17 0,-19 9,-8 36,0 9,8 0,19 -9,17 -36,0z" />
<path style="fill:#999" d="M160,333 l54,0 0,13 -54,0 0,-13z" />
<path style="fill:none;stroke:#000;stroke-width:2" d="M160,346 l54,0" />
<path style="fill:none;stroke:#000;stroke-width:2" d="M169,369 l-9,-17 0,-19 9,-8 36,0 9,8 0,19 -9,17 -36,0" />
<path style="fill:#666" d="M241,369 l-10,-17 0,-19 10,-8 33,0 10,8 0,19 -10,17 -33,0z" />
<path style="fill:#999" d="M231,333 l53,0 0,13 -53,0 0,-13z" />
<path style="fill:none;stroke:#000;stroke-width:2" d="M231,346 l53,0" />
<path style="fill:none;stroke:#000;stroke-width:2" d="M241,369 l-10,-17 0,-19 10,-8 33,0 10,8 0,19 -10,17 -33,0" />
<path style="fill:#666" d="M310,369 l-7,-17 0,-19 7,-8 36,0 10,8 0,19 -10,17 -36,0z" />
<path style="fill:#999" d="M303,333 l53,0 0,13 -53,0 0,-13z" />
<path style="fill:none;stroke:#000;stroke-width:2" d="M303,346 l53,0" />
<path style="fill:none;stroke:#000;stroke-width:2" d="M310,369 l-7,-17 0,-19 7,-8 36,0 10,8 0,19 -10,17 -36,0" />
<path style="fill:#666" d="M382,369 l-9,-17 0,-19 9,-8 36,0 8,8 0,19 -8,17 -36,0z" />
<path style="fill:#999" d="M373,333 l53,0 0,13 -53,0 0,-13z" />
<path style="fill:none;stroke:#000;stroke-width:2" d="M373,346 l53,0" />
<path style="fill:none;stroke:#000;stroke-width:2" d="M382,369 l-9,-17 0,-19 9,-8 36,0 8,8 0,19 -8,17 -36,0" />
<path style="fill:#666" d="M452,369 l-8,-17 0,-19 8,-8 36,0 9,8 0,19 -9,17 -36,0z" />
<path style="fill:#999" d="M444,333 l53,0 0,13 -53,0 0,-13z" />
<path style="fill:none;stroke:#000;stroke-width:2" d="M444,346 l53,0" />
<path style="fill:none;stroke:#000;stroke-width:2" d="M452,369 l-8,-17 0,-19 8,-8 36,0 9,8 0,19 -9,17 -36,0" />
<path style="fill:#666" d="M523,369 l-9,-17 0,-19 9,-8 36,0 8,8 0,19 -8,17 -36,0z" />
<path style="fill:#999" d="M514,333 l53,0 0,13 -53,0 0,-13z" />
<path style="fill:none;stroke:#000;stroke-width:2" d="M514,346 l53,0" />
<path style="fill:none;stroke:#000;stroke-width:2" d="M523,369 l-9,-17 0,-19 9,-8 36,0 8,8 0,19 -8,17 -36,0" />
<path style="fill:#666" d="M593,369 l-7,-17 0,-19 7,-8 36,0 10,8 0,19 -10,17 -36,0z" />
<path style="fill:#999" d="M586,333 l53,0 0,13 -53,0 0,-13z" />
<path style="fill:none;stroke:#000;stroke-width:2" d="M586,346 l53,0" />
<path style="fill:none;stroke:#000;stroke-width:2" d="M593,369 l-7,-17 0,-19 7,-8 36,0 10,8 0,19 -10,17 -36,0" />
<path style="fill:#666" d="M665,369 l-10,-17 0,-19 10,-8 36,0 7,8 0,19 -7,17 -36,0z" />
<path style="fill:#999" d="M655,333 l53,0 0,13 -53,0 0,-13z" />
<path style="fill:none;stroke:#000;stroke-width:2" d="M655,346 l53,0" />
<path style="fill:none;stroke:#000;stroke-width:2" d="M665,369 l-10,-17 0,-19 10,-8 36,0 7,8 0,19 -7,17 -36,0" />
<path style="fill:#666" d="M737,369 l-10,-17 0,-19 10,-8 34,0 9,8 0,19 -9,17 -34,0z" />
<path style="fill:#999" d="M727,333 l53,0 0,13 -53,0 0,-13z" />
<path style="fill:none;stroke:#000;stroke-width:2" d="M727,346 l53,0" />
<path style="fill:none;stroke:#000;stroke-width:2" d="M737,369 l-10,-17 0,-19 10,-8 34,0 9,8 0,19 -9,17 -34,0" />
<path style="fill:#666" d="M807,369 l-8,-17 0,-19 8,-8 35,0 10,8 0,19 -10,17 -35,0z" />
<path style="fill:#999" d="M799,333 l53,0 0,13 -53,0 0,-13z" />
<path style="fill:none;stroke:#000;stroke-width:2" d="M799,346 l53,0" />
<path style="fill:none;stroke:#000;stroke-width:2" d="M807,369 l-8,-17 0,-19 8,-8 35,0 10,8 0,19 -10,17 -35,0" />
<path style="fill:#7f7f7f" d="M133,67 l-26,0 0,-34 26,0 0,34z" />
<path style="fill:#999" d="M133,63 l-26,0 0,-30 26,0 0,30z" />
<path style="fill:#b2b2b2" d="M133,56 l-26,0 0,-23 26,0 0,23z" />
<path style="fill:#ccc" d="M133,48 l-26,0 0,-15 26,0 0,15z" />
<path style="fill:#e5e5e5" d="M133,43 l-26,0 0,-10 26,0 0,10z" />
<path style="fill:#fff" d="M133,37 l-26,0 0,-10 26,0 0,10z" />
<path style="fill:none;stroke:#000;stroke-width:2" d="M133,67 l-26,0 0,-34 26,0 0,34" />
<path style="fill:#7f7f7f" d="M833,67 l-26,0 0,-34 26,0 0,34z" />
<path style="fill:#999" d="M833,63 l-26,0 0,-30 26,0 0,30z" />
<path style="fill:#b2b2b2" d="M833,56 l-26,0 0,-23 26,0 0,23z" />
<path style="fill:#ccc" d="M833,48 l-26,0 0,-15 26,0 0,15z" />
<path style="fill:#e5e5e5" d="M833,43 l-26,0 0,-10 26,0 0,10z" />
<path style="fill:#fff" d="M833,37 l-26,0 0,-10 26,0 0,10z" />
<path style="fill:none;stroke:#000;stroke-width:2" d="M833,67 l-26,0 0,-34 26,0 0,34" />
<path style="fill:#b2b2b2;stroke:#000;stroke-width:2" d="M27,618 l53,0 0,17 -53,0 0,-17z" />
<path style="fill:#b2b2b2;stroke:#000;stroke-width:2" d="M859,618 l55,0 0,17 -55,0 0,-17z" />
<path style="fill:none;stroke:#7f7f7f;stroke-width:2" d="M67,378 l811,0" />
<path style="fill:#b2b2b2;stroke:#000;stroke-width:2" d="M116,365 l72,0 0,36 -72,0 0,-36z" />
<path style="fill:#b2b2b2;stroke:#000;stroke-width:2" d="M399,365 l72,0 0,36 -72,0 0,-36z" />
<path style="fill:#4c4c4c" d="M878,392 l53,0 0,186 -53,0 0,-186z" />
<path style="fill:#7f7f7f" d="M878,90 l93,0 0,253 -93,0 0,-253z" />
<path style="fill:#333" d="M878,556 l53,0 0,22 -53,0 0,-22z" />
<path style="fill:#7f7f7f" d="M878,392 l53,0 0,13 -53,0 0,-13z" />
<path style="fill:none;stroke:#000;stroke-width:2" d="M878,392 l53,0 0,186 -53,0 0,-186" />
<path style="fill:none;stroke:#000;stroke-width:2" d="M878,90 l93,0 0,253 -93,0 0,-253" />
<path style="fill:#666" d="M878,108 l75,0 0,217 -75,0 0,-217z" />
<path style="fill:#4c4c4c" d="M878,116 l43,0 36,19 0,138 -36,17 -43,0 0,-174z" />
<path style="fill:#5e5e5e" d="M878,129 l43,0 36,15 0,117 -36,15 -43,0 0,-147z" />
<path style="fill:#6e6e6e" d="M878,141 l43,0 36,13 0,98 -36,13 -43,0 0,-124z" />
<path style="fill:#7f7f7f" d="M878,154 l43,0 36,9 0,80 -36,9 -43,0 0,-98z" />
<path style="fill:#919191" d="M878,167 l43,0 36,8 0,56 -36,8 -43,0 0,-72z" />
<path style="fill:#a1a1a1" d="M878,178 l43,0 36,6 0,38 -36,5 -43,0 0,-49z" />
<path style="fill:#b2b2b2" d="M878,191 l43,0 36,2 0,19 -36,2 -43,0 0,-23z" />
<path style="fill:none;stroke:#000;stroke-width:2" d="M878,116 l43,0 36,19 0,138 -36,17 -43,0 0,-174" />
<path style="fill:none;stroke:#666;stroke-width:2" d="M921,286 l0,-164" />

</svg>
