 

<svg xmlns:agg="http://www.example.com" xmlns="http://www.w3.org/2000/svg" preserveAspectRatio="none" width="0.4821in" height="1.0750in" viewBox="0 0 448 999">

<path style="fill:#33260d;stroke:#000;stroke-width:2" d="M173,246 l0,-20 90,0 0,20 -90,0z" />
<path style="fill:#665940;stroke:#000;stroke-width:2" d="M173,171 l0,55 104,0 0,-55 -104,0z" />
<path style="fill:#665940;stroke:#000;stroke-width:2" d="M173,97 l0,55 104,0 0,-55 -104,0z" />
<path style="fill:#33260d;stroke:#000;stroke-width:2" d="M192,171 l0,-19 81,0 0,19 -81,0z" />
<path style="fill:#bfb299;stroke:#000;stroke-width:2" d="M192,97 l20,-15 31,0 17,15 -68,0z" />
<path style="fill:#665940;stroke:#000;stroke-width:2" d="M331,192 l36,-21 -6,-59 -60,0 30,80z" />
<path style="fill:#bfb299;stroke:#000;stroke-width:2" d="M294,112 l20,-9 30,0 17,9 -67,0z" />
<path style="fill:#8c7f66;stroke:#000;stroke-width:2" d="M277,97 l48,19 6,91 -54,19 -16,-64 16,-65z" />
<path style="fill:#7f7f7f" d="M88,226 l0,30 79,0 0,-30 -79,0z" />
<path style="fill:#999" d="M94,226 l0,30 69,0 0,-30 -69,0z" />
<path style="fill:#b2b2b2" d="M101,226 l0,30 53,0 0,-30 -53,0z" />
<path style="fill:#ccc" d="M111,226 l0,30 36,0 0,-30 -36,0z" />
<path style="fill:#e5e5e5" d="M116,226 l0,30 23,0 0,-30 -23,0z" />
<path style="fill:#fff" d="M124,226 l0,30 9,0 0,-30 -9,0z" />
<path style="fill:none;stroke:#000;stroke-width:2" d="M88,226 l0,30 79,0 0,-30 -79,0" />
<path style="fill:#7f7f7f" d="M73,226 l0,-10 109,0 0,10 -109,0z" />
<path style="fill:#999" d="M80,226 l0,-10 97,0 0,10 -97,0z" />
<path style="fill:#b2b2b2" d="M92,226 l0,-10 71,0 0,10 -71,0z" />
<path style="fill:#ccc" d="M103,226 l0,-10 49,0 0,10 -49,0z" />
<path style="fill:#e5e5e5" d="M112,226 l0,-10 33,0 0,10 -33,0z" />
<path style="fill:#fff" d="M122,226 l0,-10 13,0 0,10 -13,0z" />
<path style="fill:none;stroke:#000;stroke-width:2" d="M73,226 l0,-10 109,0 0,10 -109,0" />
<path style="fill:#7f7f7f" d="M325,226 l0,30 31,0 0,-30 -31,0z" />
<path style="fill:#999" d="M327,226 l0,30 27,0 0,-30 -27,0z" />
<path style="fill:#b2b2b2" d="M331,226 l0,30 21,0 0,-30 -21,0z" />
<path style="fill:#ccc" d="M335,226 l0,30 13,0 0,-30 -13,0z" />
<path style="fill:#e5e5e5" d="M337,226 l0,30 9,0 0,-30 -9,0z" />
<path style="fill:#fff" d="M339,226 l0,30 3,0 0,-30 -3,0z" />
<path style="fill:none;stroke:#000;stroke-width:2" d="M325,226 l0,30 31,0 0,-30 -31,0" />
<path style="fill:#7f7f7f" d="M312,226 l0,-10 59,0 0,10 -59,0z" />
<path style="fill:#999" d="M316,226 l0,-10 51,0 0,10 -51,0z" />
<path style="fill:#b2b2b2" d="M322,226 l0,-10 39,0 0,10 -39,0z" />
<path style="fill:#ccc" d="M327,226 l0,-10 29,0 0,10 -29,0z" />
<path style="fill:#e5e5e5" d="M333,226 l0,-10 17,0 0,10 -17,0z" />
<path style="fill:#fff" d="M337,226 l0,-10 7,0 0,10 -7,0z" />
<path style="fill:none;stroke:#000;stroke-width:2" d="M312,226 l0,-10 59,0 0,10 -59,0" />
<path style="fill:#7f7f7f" d="M118,573 l-75,43 -8,9 -5,12 -2,11 3,11 6,12 8,7 11,4 11,2 11,-2 78,-45 -38,-64z" />
<path style="fill:#919191" d="M122,580 l-76,43 -9,8 -6,9 -1,12 1,9 4,8 8,5 9,4 11,0 12,-4 77,-43 -30,-51z" />
<path style="fill:#a6a6a6" d="M126,586 l-76,43 -9,8 -6,9 -4,8 0,7 4,8 6,4 9,0 11,0 10,-4 77,-46 -22,-37z" />
<path style="fill:#b8b8b8" d="M129,591 l-75,46 -9,5 -8,8 -4,8 -2,5 4,4 4,2 9,0 10,-2 9,-6 78,-43 -16,-27z" />
<path style="fill:#ccc" d="M133,599 l-75,43 -10,8 -7,6 -6,3 -2,4 2,2 4,0 6,-2 9,-2 11,-5 76,-44 -8,-13z" />
<path style="fill:none;stroke:#000;stroke-width:2" d="M118,573 l-75,43 -8,9 -5,12 -2,11 3,11 6,12 8,7 11,4 11,2 11,-2 78,-45 -38,-64" />
<path style="fill:none;stroke:#000;stroke-width:2" d="M97,595 l-64,38" />
<path style="fill:none;stroke:#000;stroke-width:2" d="M97,606 l-67,40" />
<path style="fill:none;stroke:#000;stroke-width:2" d="M103,616 l-68,40" />
<path style="fill:none;stroke:#000;stroke-width:2" d="M39,665 l70,-42" />
<path style="fill:none;stroke:#000;stroke-width:2" d="M45,673 l67,-40" />
<path style="fill:none;stroke:#000;stroke-width:2" d="M54,678 l68,-39" />
<path style="fill:none;stroke:#000;stroke-width:2" d="M67,682 l68,-40" />
<circle style="fill:#7f7f7f;stroke:#000;stroke-width:2" cx="135" cy="606" r="38" />
<ellipse style="fill:#333;stroke:#000;stroke-width:2" cx="393" cy="961" rx="22" ry="9" />
<path style="fill:#7f7f7f" d="M282,712 l119,-387 0,-39 -17,-17 -34,-17 -45,-9 -55,-6 -57,0 -52,6 -47,9 -33,17 -18,17 0,39 120,387 119,0z" />
<path style="fill:#878787" d="M277,712 l109,-387 0,-39 -15,-19 -32,-15 -42,-11 -49,-6 -53,0 -48,6 -42,11 -32,15 -15,19 0,39 109,387 110,0z" />
<path style="fill:#919191" d="M271,712 l102,-387 0,-39 -15,-19 -29,-15 -37,-11 -46,-6 -49,0 -45,6 -38,11 -28,15 -15,19 0,39 100,387 100,0z" />
<path style="fill:#999" d="M267,712 l91,-387 0,-39 -14,-19 -24,-15 -36,-11 -40,-6 -43,0 -41,6 -36,11 -25,15 -13,19 0,39 91,387 90,0z" />
<path style="fill:#a1a1a1" d="M263,712 l81,-387 0,-39 -11,-19 -24,-15 -31,-11 -37,-6 -38,0 -38,6 -30,11 -24,15 -12,19 0,39 81,387 83,0z" />
<path style="fill:#ababab" d="M258,712 l71,-387 0,-39 -9,-19 -21,-15 -28,-11 -32,-6 -34,0 -32,6 -28,11 -21,15 -12,19 0,39 74,387 72,0z" />
<path style="fill:#b2b2b2" d="M254,712 l62,-387 0,-39 -9,-19 -17,-15 -25,-11 -28,-6 -30,0 -29,6 -24,11 -17,15 -9,19 0,39 62,387 64,0z" />
<path style="fill:#bababa" d="M248,712 l55,-387 0,-39 -9,-19 -16,-15 -20,-11 -23,-6 -27,0 -24,6 -19,11 -17,15 -7,19 0,39 54,387 53,0z" />
<path style="fill:#c4c4c4" d="M244,712 l44,-387 0,-39 -6,-19 -13,-15 -17,-11 -21,-6 -21,0 -18,6 -17,11 -13,15 -6,19 0,39 43,387 45,0z" />
<path style="fill:#ccc" d="M239,712 l36,-387 0,-39 -6,-19 -9,-15 -14,-11 -17,-6 -17,0 -15,6 -13,11 -9,15 -6,19 0,39 36,387 34,0z" />
<path style="fill:#d4d4d4" d="M235,712 l25,-387 0,-39 -4,-19 -8,-15 -9,-11 -12,-6 -11,0 -11,6 -10,11 -7,15 -4,19 0,39 24,387 27,0z" />
<path style="fill:#dedede" d="M229,712 l17,-387 0,-39 -3,-19 -4,-15 -6,-11 -7,-6 -8,0 -8,6 -5,11 -6,15 -2,19 0,39 17,387 15,0z" />
<ellipse style="fill:#e5e5e5" cx="221" cy="474" rx="9" ry="237" />
<path style="fill:none;stroke:#000;stroke-width:2" d="M282,712 l119,-387 0,-39 -17,-17 -34,-17 -45,-9 -55,-6 -57,0 -52,6 -47,9 -33,17 -18,17 0,39 120,387 119,0" />
<path style="fill:#333" d="M401,305 l-358,0 0,20 358,0 0,-20z" />
<circle style="fill:#000" cx="222" cy="534" r="30" />
<circle style="fill:#e5e5e5" cx="223" cy="534" r="20" />
<path style="fill:none;stroke:#000;stroke-width:2" d="M243,544 l-21,-9 -10,-11" />
<path style="fill:#7f7f7f;stroke:#000;stroke-width:2" d="M361,375 l0,-59 19,0 15,19 0,40 -34,0z" />
<path style="fill:#b2b2b2;stroke:#000;stroke-width:2" d="M395,316 l-15,0 15,19 25,0 -25,-19z" />
<path style="fill:#999;stroke:#000;stroke-width:2" d="M420,375 l0,-40 -25,0 0,40 25,0z" />
<path style="fill:#7f7f7f" d="M380,375 l0,586 27,0 0,-586 -27,0z" />
<path style="fill:#999" d="M382,375 l0,586 23,0 0,-586 -23,0z" />
<path style="fill:#b2b2b2" d="M384,375 l0,586 17,0 0,-586 -17,0z" />
<path style="fill:#ccc" d="M388,375 l0,586 11,0 0,-586 -11,0z" />
<path style="fill:#e5e5e5" d="M390,375 l0,586 7,0 0,-586 -7,0z" />
<path style="fill:#fff" d="M392,375 l0,586 3,0 0,-586 -3,0z" />
<path style="fill:none;stroke:#000;stroke-width:2" d="M380,375 l0,586 27,0 0,-586 -27,0" />
<ellipse style="fill:#333;stroke:#000;stroke-width:2" cx="55" cy="961" rx="22" ry="9" />
<path style="fill:#b2b2b2;stroke:#000;stroke-width:2" d="M88,375 l0,-59 -19,0 -15,19 0,40 34,0z" />
<path style="fill:#999;stroke:#000;stroke-width:2" d="M54,316 l15,0 -15,19 -24,0 24,-19z" />
<path style="fill:#7f7f7f;stroke:#000;stroke-width:2" d="M30,375 l0,-40 24,0 0,40 -24,0z" />
<path style="fill:#7f7f7f" d="M69,375 l0,586 -24,0 0,-586 24,0z" />
<path style="fill:#999" d="M67,375 l0,586 -22,0 0,-586 22,0z" />
<path style="fill:#b2b2b2" d="M65,375 l0,586 -17,0 0,-586 17,0z" />
<path style="fill:#ccc" d="M61,375 l0,586 -11,0 0,-586 11,0z" />
<path style="fill:#e5e5e5" d="M60,375 l0,586 -8,0 0,-586 8,0z" />
<path style="fill:#fff" d="M58,375 l0,586 -4,0 0,-586 4,0z" />
<path style="fill:none;stroke:#000;stroke-width:2" d="M69,375 l0,586 -24,0 0,-586 24,0" />
<ellipse style="fill:#333;stroke:#000;stroke-width:2" cx="224" cy="920" rx="21" ry="10" />
<path style="fill:#666" d="M212,712 l0,210 25,0 0,-210 -25,0z" />
<path style="fill:#7f7f7f" d="M216,712 l0,210 17,0 0,-210 -17,0z" />
<path style="fill:#b2b2b2" d="M222,712 l0,210 5,0 0,-210 -5,0z" />
<path style="fill:none;stroke:#000;stroke-width:2" d="M212,712 l0,210 25,0 0,-210 -25,0" />
<path style="fill:#7f7f7f" d="M310,152 l-66,0 -7,2 -8,6 -3,7 -4,8 0,9 4,8 3,7 8,6 7,2 66,0 0,-55z" />
<path style="fill:#919191" d="M310,158 l-66,0 -7,2 -8,3 -5,6 -2,6 0,7 2,8 5,5 8,4 7,2 66,0 0,-43z" />
<path style="fill:#a6a6a6" d="M310,163 l-66,0 -7,0 -8,4 -5,4 -2,6 0,5 2,6 5,4 8,1 7,2 66,0 0,-32z" />
<path style="fill:#b8b8b8" d="M310,169 l-66,0 -7,0 -8,2 -5,4 -2,2 0,3 2,4 5,4 8,2 7,0 66,0 0,-21z" />
<ellipse style="fill:#ccc" cx="266" cy="179" rx="44" ry="4" />
<path style="fill:none;stroke:#000;stroke-width:2" d="M310,152 l-66,0 -7,2 -8,6 -3,7 -4,8 0,9 4,8 3,7 8,6 7,2 66,0 0,-55" />
<path style="fill:none;stroke:#000;stroke-width:2" d="M288,160 l-55,0" />
<path style="fill:none;stroke:#000;stroke-width:2" d="M284,167 l-58,0" />
<path style="fill:none;stroke:#000;stroke-width:2" d="M284,173 l-58,0" />
<path style="fill:none;stroke:#000;stroke-width:2" d="M226,180 l58,0" />
<path style="fill:none;stroke:#000;stroke-width:2" d="M226,188 l58,0" />
<path style="fill:none;stroke:#000;stroke-width:2" d="M229,195 l59,0" />
<path style="fill:none;stroke:#000;stroke-width:2" d="M237,203 l58,0" />
<circle style="fill:#7f7f7f;stroke:#000;stroke-width:2" cx="308" cy="179" r="28" />
<path style="fill:#333;stroke:#000;stroke-width:2" d="M277,712 l-80,0 0,30 80,0 0,-30z" />
<path style="fill:#000" d="M167,712 l30,0 0,21 -30,0 0,-21z" />
<path style="fill:#7f7f7f;stroke:#000;stroke-width:2" d="M243,718 l-66,0 0,34 66,0 0,-34z" />
<path style="fill:#4c4c4c" d="M169,755 l26,19 6,-11 2,-11 -34,-2 26,-21 -7,-8 -11,-5 -12,30 -11,-30 -11,5 -8,8 27,21 -34,2 1,11 6,11 28,-19 -9,33 11,2 12,-2 -8,-33z" />
<path style="fill:#000" d="M165,708 l0,6 -11,2 -11,5 -8,8 -6,11 -1,12 1,11 6,11 8,8 11,6 11,2 12,-2 11,-6 7,-8 6,-11 2,-11 -2,-12 -6,-11 -7,-8 -11,-5 -12,-2 0,-6 13,4 12,6 9,9 6,11 2,14 -2,13 -6,11 -9,10 -12,5 -13,2 -13,-2 -11,-5 -10,-10 -5,-11 -4,-13 4,-14 5,-11 10,-9 11,-6 13,-4z" />
<path style="fill:#7f7f7f" d="M216,28 l0,54 21,0 0,-54 -21,0z" />
<path style="fill:#999" d="M218,28 l0,54 17,0 0,-54 -17,0z" />
<path style="fill:#b2b2b2" d="M220,28 l0,54 13,0 0,-54 -13,0z" />
<path style="fill:#ccc" d="M222,28 l0,54 9,0 0,-54 -9,0z" />
<path style="fill:#e5e5e5" d="M224,28 l0,54 5,0 0,-54 -5,0z" />
<path style="fill:#fff" d="M226,28 l0,54 1,0 0,-54 -1,0z" />
<path style="fill:none;stroke:#000;stroke-width:2" d="M216,28 l0,54 21,0 0,-54 -21,0" />
<path style="fill:#7f7f7f" d="M261,58 l0,39 16,0 0,-39 -16,0z" />
<path style="fill:#999" d="M263,58 l0,39 14,0 0,-39 -14,0z" />
<path style="fill:#b2b2b2" d="M263,58 l0,39 12,0 0,-39 -12,0z" />
<path style="fill:#ccc" d="M265,58 l0,39 8,0 0,-39 -8,0z" />
<path style="fill:#e5e5e5" d="M267,58 l0,39 4,0 0,-39 -4,0z" />
<path style="fill:#fff" d="M269,58 l0,39 2,0 0,-39 -2,0z" />
<path style="fill:none;stroke:#000;stroke-width:2" d="M261,58 l0,39 16,0 0,-39 -16,0" />

</svg>
