 

<svg xmlns:agg="http://www.example.com" xmlns="http://www.w3.org/2000/svg" preserveAspectRatio="none" width="0.5918in" height="1.0750in" viewBox="0 0 550 999">

<path style="fill:#c63;stroke:#000;stroke-width:2" d="M510,478 l0,-422 -17,-8 -30,-7 -43,-6 -55,-6 -60,-1 -61,0 -60,1 -55,6 -43,6 -30,7 -17,8 0,422 471,0z" />
<path style="fill:#c63;stroke:#000;stroke-width:2" d="M209,967 l43,3 45,0 44,-3 39,-8 2,-42 30,-11 23,-11 11,-13 0,-123 -343,0 0,123 11,13 23,11 30,11 2,42 40,8z" />
<path style="fill:#cc6b33" d="M490,476 l0,-420 -16,-8 -28,-7 -39,-8 -49,-4 -55,-1 -57,0 -54,1 -49,4 -40,8 -30,7 -13,8 0,420 430,0z" />
<path style="fill:#cc6b33" d="M214,967 l40,3 41,0 40,-3 36,-8 2,-43 26,-10 21,-11 11,-15 0,-121 -313,0 0,121 10,15 20,11 29,10 2,43 35,8z" />
<path style="fill:#cc7033" d="M469,476 l0,-420 -13,-8 -27,-7 -36,-8 -43,-4 -51,-1 -51,0 -49,1 -45,4 -36,8 -24,7 -13,8 0,420 388,0z" />
<path style="fill:#cc7033" d="M220,967 l36,3 38,0 35,-3 32,-8 2,-43 25,-10 19,-11 9,-15 0,-121 -283,0 0,121 10,15 19,11 24,10 2,43 32,8z" />
<path style="fill:#cc7333" d="M448,476 l0,-420 -11,-8 -23,-7 -34,-8 -37,-4 -46,-1 -45,0 -45,1 -40,4 -32,8 -23,7 -13,8 0,420 349,0z" />
<path style="fill:#cc7333" d="M226,967 l32,3 34,0 32,-3 28,-8 2,-43 22,-10 17,-11 8,-15 0,-121 -255,0 0,121 10,15 17,11 23,10 0,43 30,8z" />
<path style="fill:#cc7833" d="M427,476 l0,-420 -9,-8 -21,-7 -28,-8 -36,-4 -39,-1 -40,0 -40,1 -34,4 -30,8 -19,7 -11,8 0,420 307,0z" />
<path style="fill:#cc7833" d="M231,967 l29,3 30,0 28,-3 25,-8 2,-43 18,-10 15,-11 8,-15 0,-121 -224,0 0,121 7,15 15,11 21,10 0,43 26,8z" />
<path style="fill:#cc7d33" d="M407,476 l0,-420 -8,-8 -19,-7 -24,-8 -30,-4 -34,-1 -36,0 -34,1 -30,4 -25,8 -17,7 -9,8 0,420 266,0z" />
<path style="fill:#cc7d33" d="M237,967 l24,3 25,0 26,-3 21,-8 2,-43 17,-10 13,-11 6,-15 0,-121 -194,0 0,121 7,15 12,11 18,10 0,43 23,8z" />
<path style="fill:#cc8233" d="M388,476 l0,-420 -8,-8 -15,-7 -20,-8 -27,-4 -28,-1 -30,0 -29,1 -26,4 -21,8 -15,7 -7,8 0,420 226,0z" />
<path style="fill:#cc8233" d="M243,967 l20,3 23,0 21,-3 17,-8 2,-43 15,-10 9,-11 6,-15 0,-121 -164,0 0,121 5,15 12,11 15,10 0,43 19,8z" />
<path style="fill:#cc8733" d="M367,476 l0,-420 -6,-8 -13,-7 -17,-8 -20,-4 -25,-1 -25,0 -22,1 -21,4 -19,8 -11,7 -6,8 0,420 185,0z" />
<path style="fill:#cc8733" d="M248,967 l17,3 17,0 19,-3 15,-8 0,-43 12,-10 9,-11 6,-15 0,-121 -136,0 0,121 4,15 9,11 13,10 0,43 15,8z" />
<path style="fill:#cc8c33" d="M346,476 l0,-420 -3,-8 -12,-7 -13,-8 -17,-4 -17,-1 -19,0 -19,1 -17,4 -13,8 -9,7 -4,8 0,420 143,0z" />
<path style="fill:#cc8c33" d="M254,967 l13,3 13,0 14,-3 13,-8 0,-43 9,-10 8,-11 4,-15 0,-121 -106,0 0,121 4,15 5,11 10,10 2,43 11,8z" />
<path style="fill:#cc8f33" d="M326,476 l0,-420 -4,-8 -6,-7 -9,-8 -13,-4 -14,-1 -13,0 -13,1 -11,4 -10,8 -7,7 -4,8 0,420 104,0z" />
<path style="fill:#cc8f33" d="M260,967 l9,3 9,0 10,-3 9,-8 0,-43 8,-10 4,-11 3,-15 0,-121 -75,0 0,121 2,15 5,11 6,10 2,43 8,8z" />
<path style="fill:#cc9433" d="M305,476 l0,-420 -2,-8 -4,-7 -5,-8 -8,-4 -8,-1 -7,0 -10,1 -7,4 -6,8 -4,7 -1,8 0,420 62,0z" />
<path style="fill:#cc9433" d="M265,967 l6,3 6,0 5,-3 6,-8 0,-43 6,-10 1,-11 2,-15 0,-121 -45,0 0,121 0,15 4,11 4,10 0,43 5,8z" />
<path style="fill:#c93" d="M286,478 l0,-422 -2,-8 0,-7 -2,-6 -4,-6 -1,-1 -4,0 -2,1 -4,6 -2,6 -2,7 0,8 0,422 23,0z" />
<path style="fill:#c93" d="M271,967 l2,3 2,0 3,-3 0,-8 2,-42 0,-11 2,-11 0,-13 0,-123 -15,0 0,123 0,13 0,11 2,11 0,42 2,8z" />
<path style="fill:#333" d="M103,701 l11,3 23,4 32,2 40,4 43,0 45,0 44,0 39,-4 32,-2 23,-4 11,-3 0,58 -11,10 -23,7 -32,6 -39,4 -44,2 -45,0 -43,-2 -40,-4 -32,-6 -23,-7 -11,-10 0,-58z" />
<path style="fill:#d9ccb3" d="M380,710 l32,-2 0,68 -32,6 0,-72z" />
<path style="fill:#d9ccb3" d="M252,714 l45,0 0,74 -45,0 0,-74z" />
<path style="fill:#d9ccb3" d="M188,712 l41,2 0,74 -41,-4 0,-72z" />
<path style="fill:none;stroke:#000;stroke-width:2" d="M103,701 l11,3 23,4 32,2 40,4 43,0 45,0 44,0 39,-4 32,-2 23,-4 11,-3 0,58 -11,10 -23,7 -32,6 -39,4 -44,2 -45,0 -43,-2 -40,-4 -32,-6 -23,-7 -11,-10 0,-58" />
<path style="fill:none;stroke:#000;stroke-width:2" d="M169,917 l40,6 43,4 45,0 44,-4 39,-6" />
<path style="fill:#4c4c4c;stroke:#000;stroke-width:2" d="M510,478 l-11,10 0,32 -449,0 0,-32 -11,-10 471,0z" />
<ellipse style="fill:#666;stroke:#000;stroke-width:2" cx="274" cy="701" rx="171" ry="19" />
<path style="fill:#333" d="M392,520 l-236,0 0,171 236,0 0,-171z" />
<path style="fill:#191919" d="M350,520 l-151,0 0,171 151,0 0,-171z" />
<path style="fill:#7f7f7f" d="M243,520 l0,177 64,0 0,-177 -64,0z" />
<path style="fill:#999" d="M246,520 l0,177 57,0 0,-177 -57,0z" />
<path style="fill:#b2b2b2" d="M254,520 l0,177 41,0 0,-177 -41,0z" />
<path style="fill:#ccc" d="M260,520 l0,177 30,0 0,-177 -30,0z" />
<path style="fill:#e5e5e5" d="M265,520 l0,177 19,0 0,-177 -19,0z" />
<path style="fill:#fff" d="M271,520 l0,177 7,0 0,-177 -7,0z" />
<path style="fill:none;stroke:#000;stroke-width:2" d="M243,520 l0,177 64,0 0,-177 -64,0" />
<path style="fill:#191919" d="M490,478 l-21,0 0,53 21,0 0,-53z" />
<path style="fill:#191919" d="M448,478 l-21,0 0,53 21,0 0,-53z" />
<path style="fill:#191919" d="M407,478 l-21,0 0,53 21,0 0,-53z" />
<path style="fill:#191919" d="M367,478 l-21,0 0,53 21,0 0,-53z" />
<path style="fill:#191919" d="M326,478 l-21,0 0,53 21,0 0,-53z" />
<path style="fill:#191919" d="M284,478 l-19,0 0,53 19,0 0,-53z" />
<path style="fill:#191919" d="M244,478 l-20,0 0,53 20,0 0,-53z" />
<path style="fill:#191919" d="M203,478 l-21,0 0,53 21,0 0,-53z" />
<path style="fill:#191919" d="M162,478 l-19,0 0,53 19,0 0,-53z" />
<path style="fill:#191919" d="M122,478 l-21,0 0,53 21,0 0,-53z" />
<path style="fill:#191919" d="M81,478 l-21,0 0,53 21,0 0,-53z" />
<path style="fill:#cc7f33" d="M522,359 l0,-228 -17,-9 -34,-6 -45,-7 -57,-4 -62,-2 -64,0 -63,2 -56,4 -47,7 -32,6 -17,9 0,228 494,0z" />
<path style="fill:#cf8536" d="M501,359 l0,-228 -15,-9 -30,-8 -44,-5 -51,-4 -56,-2 -61,0 -56,2 -53,4 -41,5 -30,8 -16,9 0,228 453,0z" />
<path style="fill:#d18a38" d="M480,359 l0,-228 -13,-9 -28,-8 -38,-5 -47,-4 -53,-2 -53,0 -52,2 -48,4 -39,5 -27,8 -13,9 0,228 411,0z" />
<path style="fill:#d48f3b" d="M460,359 l0,-228 -14,-9 -24,-8 -34,-5 -42,-4 -47,-2 -49,0 -47,2 -43,4 -34,5 -25,8 -11,9 0,228 370,0z" />
<path style="fill:#d6943d" d="M439,359 l0,-228 -12,-9 -20,-8 -32,-5 -36,-4 -44,-2 -43,0 -41,2 -38,4 -30,5 -23,8 -11,9 0,228 330,0z" />
<path style="fill:#d99940" d="M418,359 l0,-228 -9,-9 -19,-8 -27,-5 -34,-4 -35,-2 -38,0 -38,2 -32,4 -26,5 -21,8 -10,9 0,228 289,0z" />
<path style="fill:#d99940" d="M397,359 l0,-228 -7,-9 -17,-8 -23,-5 -28,-4 -32,-2 -32,0 -32,2 -29,4 -22,5 -17,8 -8,9 0,228 247,0z" />
<path style="fill:#db9e42" d="M378,359 l0,-228 -7,-9 -13,-8 -19,-5 -25,-4 -26,-2 -27,0 -26,2 -24,4 -19,5 -13,8 -8,9 0,228 207,0z" />
<path style="fill:#dea345" d="M358,359 l0,-228 -6,-9 -11,-8 -15,-5 -19,-4 -21,-2 -23,0 -20,2 -19,4 -15,5 -12,8 -5,9 0,228 166,0z" />
<path style="fill:#e0a847" d="M337,359 l0,-228 -4,-9 -9,-8 -12,-5 -15,-4 -15,-2 -17,0 -15,2 -15,4 -11,5 -8,8 -3,9 0,228 124,0z" />
<path style="fill:#e3ad4a" d="M316,359 l0,-228 -2,-9 -5,-8 -8,-5 -11,-4 -10,-2 -11,0 -11,2 -10,4 -7,5 -6,8 -4,9 0,228 85,0z" />
<path style="fill:#e5b24c" d="M295,359 l0,-228 0,-9 -3,-6 -4,-7 -6,-4 -5,-2 -6,0 -4,2 -6,4 -3,7 -4,6 -2,9 0,228 43,0z" />
<path style="fill:none;stroke:#000;stroke-width:2" d="M522,359 l0,-228 -17,-9 -34,-6 -45,-7 -57,-4 -62,-2 -64,0 -63,2 -56,4 -47,7 -32,6 -17,9 0,228 494,0" />
<path style="fill:none;stroke:#000;stroke-width:2" d="M510,88 l-17,-6 -30,-7 -43,-4 -55,-4 -60,-2 -61,0 -60,2 -55,4 -43,4 -30,7 -17,6" />
<path style="fill:none;stroke:#000;stroke-width:2" d="M446,869 l-11,13 -23,13 -32,10 -39,7 -44,4 -45,0 -43,-4 -40,-7 -32,-10 -23,-13 -11,-13" />

</svg>
