 

<svg xmlns:agg="http://www.example.com" xmlns="http://www.w3.org/2000/svg" preserveAspectRatio="none" width="1.1413in" height="1.0750in" viewBox="0 0 998 940">

<path style="fill:#999" d="M971,452 l-34,0 0,45 -162,12 -552,0 -160,-23 0,-34 -36,0 0,184 36,0 0,-47 160,-11 552,0 162,11 0,47 34,0 0,-184z" />
<path style="fill:#b2b2b2" d="M971,471 l-36,0 0,38 -160,7 -552,0 -162,-17 0,-28 -34,0 0,144 34,0 0,-35 162,-9 552,0 160,9 0,35 36,0 0,-144z" />
<path style="fill:#ccc" d="M971,491 l-36,0 0,27 -160,5 -552,0 -162,-11 0,-21 -34,0 0,104 34,0 0,-26 162,-6 552,0 160,6 0,26 36,0 0,-104z" />
<path style="fill:#e5e5e5" d="M971,512 l-36,0 0,15 -160,4 -552,0 -162,-8 0,-11 -34,0 0,62 34,0 0,-15 162,-4 552,0 160,4 0,15 36,0 0,-62z" />
<path style="fill:#fff" d="M971,533 l-34,0 0,5 -162,0 -552,0 -160,-1 0,-4 -36,0 0,22 36,0 0,-5 160,-2 552,0 162,2 0,5 34,0 0,-22z" />
<path style="fill:none;stroke:#000;stroke-width:2" d="M971,452 l-34,0 0,45 -162,12 -552,0 -160,-23 0,-34 -36,0 0,184 36,0 0,-47 160,-11 552,0 162,11 0,47 34,0 0,-184" />
<path style="fill:#039;stroke:#000;stroke-width:2" d="M591,497 l-22,-173 -140,0 -22,173 184,0z" />
<path style="fill:#006" d="M535,497 l-10,-173 -52,0 -8,173 70,0z" />
<path style="fill:#36c;stroke:#000;stroke-width:2" d="M675,35 l-351,0 0,351 351,0 0,-351z" />
<path style="fill:#194cb2;stroke:#000;stroke-width:2" d="M427,383 l48,11 48,0 47,-11 42,-25 34,-35 24,-42 13,-47 0,-49 -13,-45 -24,-43 -34,-34 -42,-24 -47,-12 -48,0 -48,12 -41,24 -34,34 -24,43 -13,45 0,49 13,47 24,42 34,35 41,25z" />
<path style="fill:#36c" d="M441,351 l39,9 40,0 37,-9 34,-21 28,-26 21,-36 9,-38 0,-39 -9,-40 -21,-33 -28,-29 -34,-18 -37,-12 -40,0 -39,12 -34,18 -28,29 -19,33 -11,40 0,39 11,38 19,36 28,26 34,21z" />
<path style="fill:#4c7fe5;stroke:#000;stroke-width:2" d="M365,227 l-33,0 0,-32 33,0 10,-36 17,-32 -23,-23 23,-24 24,24 32,-18 34,-10 0,-34 34,0 0,34 35,10 31,18 24,-24 23,24 -23,23 19,32 7,34 34,0 0,34 -34,0 -7,35 -19,30 25,25 -25,24 -24,-24 -31,19 -35,9 0,34 -34,0 0,-34 -34,-9 -32,-19 -24,24 -23,-24 25,-23 -19,-32 -10,-35z" />
<circle style="fill:none;stroke:#000;stroke-width:2" cx="500" cy="210" r="84" />
<circle style="fill:#69f" cx="499" cy="210" r="41" />
<path style="fill:#b2b2b2" d="M775,497 l-552,0 0,137 552,0 0,-137z" />
<path style="fill:#ccc" d="M223,634 l69,278 414,0 69,-278 -552,0z" />
<path style="fill:#c4c4c4" d="M234,676 l58,234 414,0 60,-234 -532,0z" />
<path style="fill:#bababa" d="M243,715 l49,195 414,0 48,-195 -511,0z" />
<path style="fill:#b2b2b2" d="M253,757 l39,153 414,0 39,-153 -492,0z" />
<path style="fill:#ababab" d="M264,796 l28,114 414,0 28,-114 -470,0z" />
<path style="fill:#a1a1a1" d="M274,835 l18,75 414,0 18,-75 -450,0z" />
<path style="fill:#999" d="M283,877 l9,35 414,0 9,-35 -432,0z" />
<path style="fill:none;stroke:#fff;stroke-width:2" d="M741,715 l-494,0" />
<path style="fill:none;stroke:#7f7f7f;stroke-width:2" d="M741,745 l-494,0" />
<path style="fill:none;stroke:#fff;stroke-width:2" d="M717,775 l-447,0" />
<path style="fill:none;stroke:#7f7f7f;stroke-width:2" d="M717,803 l-447,0" />
<path style="fill:none;stroke:#fff;stroke-width:2" d="M706,835 l-425,0" />
<path style="fill:none;stroke:#7f7f7f;stroke-width:2" d="M706,865 l-425,0" />
<path style="fill:none;stroke:#fff;stroke-width:2" d="M753,657 l-519,0" />
<path style="fill:none;stroke:#7f7f7f;stroke-width:2" d="M753,687 l-519,0" />
<path style="fill:#ccc" d="M751,497 l-504,0 0,137 506,0 -2,-137z" />
<path style="fill:none;stroke:#000;stroke-width:2" d="M223,634 l69,278 414,0 69,-278 0,-137 -552,0 0,137" />

</svg>
