 

<svg xmlns:agg="http://www.example.com" xmlns="http://www.w3.org/2000/svg" preserveAspectRatio="none" width="1.0925in" height="1.0750in" viewBox="0 0 999 983">

<path style="fill:#7f7f7f;stroke:#000;stroke-width:2" d="M886,647 l69,0 13,167 -26,0 -56,-126 0,-41z" />
<path style="fill:none;stroke:#ccc;stroke-width:2" d="M935,765 l-49,-105" />
<path style="fill:#665940;stroke:#000;stroke-width:2" d="M161,824 l0,35 668,0 0,-35 -668,0z" />
<path style="fill:#665940;stroke:#000;stroke-width:2" d="M161,543 l-36,0 0,375 36,0 0,-375z" />
<path style="fill:#665940;stroke:#000;stroke-width:2" d="M502,543 l-36,0 0,375 36,0 0,-375z" />
<path style="fill:#333" d="M886,534 l-226,0 0,280 226,0 0,-280z" />
<path style="fill:#b2b2b2;stroke:#000;stroke-width:2" d="M786,534 l-26,0 0,252 26,0 0,-252z" />
<path style="fill:#999;stroke:#000;stroke-width:2" d="M829,534 l-28,0 0,252 28,0 0,-252z" />
<path style="fill:#999;stroke:#000;stroke-width:2" d="M745,534 l-29,0 0,252 29,0 0,-252z" />
<path style="fill:#7f7f7f;stroke:#000;stroke-width:2" d="M871,534 l-27,0 0,252 27,0 0,-252z" />
<path style="fill:#7f7f7f;stroke:#000;stroke-width:2" d="M701,534 l-26,0 0,252 26,0 0,-252z" />
<path style="fill:#666;stroke:#000;stroke-width:2" d="M534,899 l0,-85 393,0 0,85 -393,0z" />
<path style="fill:#333" d="M197,899 l0,-139 -28,0 0,139 28,0z" />
<path style="fill:#bfb299" d="M590,506 l0,-379 -28,-26 -51,-21 -73,-15 -85,-9 -88,0 -85,9 -71,15 -53,21 -28,26 0,379 562,0z" />
<path style="fill:#c4b79e" d="M562,506 l0,-379 -24,-26 -48,-21 -65,-17 -76,-7 -81,0 -77,7 -64,17 -47,21 -24,26 0,379 506,0z" />
<path style="fill:#ccbfa6" d="M536,506 l0,-379 -23,-26 -43,-21 -57,-17 -69,-7 -70,0 -70,7 -58,17 -41,21 -23,26 0,379 454,0z" />
<path style="fill:#d1c4ab" d="M507,506 l0,-379 -18,-26 -38,-21 -51,-17 -60,-7 -62,0 -60,7 -51,17 -38,21 -19,26 0,379 397,0z" />
<path style="fill:#d9ccb3" d="M479,506 l0,-379 -15,-26 -32,-21 -45,-17 -51,-7 -54,0 -53,7 -43,17 -32,21 -17,26 0,379 342,0z" />
<path style="fill:#ded1b8" d="M453,506 l0,-379 -13,-26 -29,-21 -35,-17 -46,-7 -45,0 -43,7 -36,17 -26,21 -15,26 0,379 288,0z" />
<path style="fill:#e5d8bf" d="M425,506 l0,-379 -12,-26 -20,-21 -31,-17 -35,-7 -36,0 -36,7 -30,17 -21,21 -13,26 0,379 234,0z" />
<path style="fill:#ebdec5" d="M398,506 l0,-379 -9,-26 -15,-21 -25,-17 -26,-7 -28,0 -27,7 -22,17 -17,21 -9,26 0,379 178,0z" />
<path style="fill:#f2e5cc" d="M370,506 l0,-379 -6,-26 -11,-21 -15,-17 -19,-7 -21,0 -18,7 -15,17 -12,21 -5,26 0,379 122,0z" />
<path style="fill:#f7ead1" d="M336,506 l0,-379 -2,-26 -5,-21 -8,-17 -7,-7 -10,0 -7,7 -8,17 -6,21 -3,26 0,379 56,0z" />
<path style="fill:#8c7f66" d="M590,506 l-169,141 0,280 -224,0 0,-280 -169,-141 562,0z" />
<path style="fill:#94876e" d="M564,506 l-155,141 0,280 -203,0 0,-280 -152,-141 510,0z" />
<path style="fill:#9c8f76" d="M536,506 l-136,141 0,280 -182,0 0,-280 -136,-141 454,0z" />
<path style="fill:#a3967d" d="M509,506 l-120,141 0,280 -160,0 0,-280 -120,-141 400,0z" />
<path style="fill:#ab9e85" d="M483,506 l-106,141 0,280 -139,0 0,-280 -103,-141 348,0z" />
<path style="fill:#b2a58c" d="M457,506 l-89,141 0,280 -118,0 0,-280 -89,-141 296,0z" />
<path style="fill:#baad94" d="M430,506 l-73,141 0,280 -96,0 0,-280 -73,-141 242,0z" />
<path style="fill:#c2b59c" d="M402,506 l-56,141 0,280 -74,0 0,-280 -56,-141 186,0z" />
<path style="fill:#c9bca3" d="M376,506 l-40,141 0,280 -54,0 0,-280 -40,-141 134,0z" />
<path style="fill:#d1c4ab" d="M349,506 l-24,141 0,280 -32,0 0,-280 -25,-141 81,0z" />
<path style="fill:#d9ccb3" d="M323,506 l-8,141 0,280 -11,0 0,-280 -9,-141 28,0z" />
<path style="fill:none;stroke:#fff2d9;stroke-width:2" d="M590,127 l-562,0" />
<path style="fill:#333" d="M197,842 l0,-28 224,0 0,28 -224,0z" />
<path style="fill:none;stroke:#000;stroke-width:2" d="M421,899 l-224,0" />
<path style="fill:none;stroke:#fff2d9;stroke-width:2" d="M590,449 l-562,0" />
<path style="fill:none;stroke:#000;stroke-width:2" d="M28,506 l0,-379 28,-26 53,-21 71,-15 85,-9 88,0 85,9 73,15 51,21 28,26 0,379 -169,141 0,280 -224,0 0,-280 -169,-141" />
<path style="fill:#d9ccb3;stroke:#000;stroke-width:2" d="M927,827 l-9,-13 -17,-13 -380,-113 -367,0 0,-41 367,0 372,105 36,17 26,21 15,26 0,139 -43,0 0,-128z" />
<path style="fill:#d9ccb3;stroke:#000;stroke-width:2" d="M127,842 l0,44 800,0 0,-44 -800,0z" />
<path style="fill:#d9ccb3;stroke:#000;stroke-width:2" d="M127,506 l-43,0 0,449 43,0 0,-449z" />
<path style="fill:#d9ccb3;stroke:#000;stroke-width:2" d="M534,506 l-42,0 0,449 42,0 0,-449z" />
<path style="fill:#7f7f7f" d="M886,534 l0,-113 -57,-13 0,-29 -113,0 0,29 -56,13 0,113 226,0z" />
<path style="fill:#8c8c8c" d="M869,534 l0,-113 -49,-13 0,-29 -96,0 0,29 -47,13 0,113 192,0z" />
<path style="fill:#999" d="M852,534 l0,-113 -40,-13 0,-29 -79,0 0,29 -41,13 0,113 160,0z" />
<path style="fill:#a6a6a6" d="M835,534 l0,-113 -32,-13 0,-29 -62,0 0,29 -32,13 0,113 126,0z" />
<path style="fill:#b2b2b2" d="M820,534 l0,-113 -25,-13 0,-29 -47,0 0,29 -22,13 0,113 94,0z" />
<path style="fill:#bfbfbf" d="M803,534 l0,-113 -15,-13 0,-29 -30,0 0,29 -15,13 0,113 60,0z" />
<path style="fill:#ccc" d="M786,534 l0,-113 -6,-13 0,-29 -15,0 0,29 -5,13 0,113 26,0z" />
<path style="fill:none;stroke:#000;stroke-width:2" d="M886,534 l0,-113 -57,-13 0,-29 -113,0 0,29 -56,13 0,113 226,0" />
<path style="fill:#d9ccb3;stroke:#000;stroke-width:2" d="M300,65 l-3,-13 -14,-9 -22,-6 -28,0 -34,4 -32,9 -32,13 -25,15 -16,16 -6,15 4,13 208,-57z" />
<path style="fill:#bfb299;stroke:#000;stroke-width:2" d="M203,58 l0,-15 -15,-15 -29,7 -28,30 36,-15 21,8 15,0z" />

</svg>
