 

<svg xmlns:agg="http://www.example.com" xmlns="http://www.w3.org/2000/svg" preserveAspectRatio="none" width="0.7350in" height="1.0750in" viewBox="0 0 683 999">

<path style="fill:#630" d="M184,465 l0,13 -79,0 0,-19 226,0 0,227 -9,0 0,-217 -80,0 0,-4 -58,0z" />
<path style="fill:#b27f19;stroke:#000;stroke-width:2" d="M499,753 l0,-710 -315,0 0,416 156,0 0,236 -294,0 0,58 453,0z" />
<path style="fill:#c93" d="M27,971 l38,-236 551,0 39,236 -628,0z" />
<path style="fill:#c93;stroke:#000;stroke-width:2" d="M184,474 l-79,0 -29,-131 34,-316 74,0 0,447z" />
<path style="fill:#c93" d="M327,420 l-51,0 -50,-13 -44,-27 -38,-36 -26,-45 -13,-49 0,-53 13,-49 26,-45 38,-36 44,-26 50,-14 51,0 230,40 0,313 -230,40z" />
<path style="fill:#c4912b" d="M327,420 l-51,0 -50,-13 -44,-27 -38,-36 -26,-45 439,-110 0,191 -230,40z" />
<path style="fill:none;stroke:#960;stroke-width:2" d="M374,129 l21,23 17,26 8,30 0,31 -8,30 -17,26 -21,23 -28,15 -28,10 -32,0 -31,-10 -26,-15" />
<path style="fill:none;stroke:#f2e5cc;stroke-width:2" d="M229,318 l-22,-23 -16,-26 -7,-30 0,-31 7,-30 16,-26 22,-23 26,-15 31,-8 32,0 30,8 26,15" />
<path style="fill:#630" d="M382,199 l0,53 -4,8 -8,5 -9,0 -8,-5 -5,-8 0,-53 5,-8 8,-5 9,0 8,5 4,8z" />
<path style="fill:#630" d="M329,180 l-53,0 -9,-5 -4,-8 0,-9 4,-8 9,-6 53,0 8,6 3,8 0,9 -3,8 -8,5z" />
<path style="fill:#630" d="M255,199 l0,53 -3,8 -8,5 -9,0 -9,-5 -4,-8 0,-53 4,-8 9,-5 9,0 8,5 3,8z" />
<path style="fill:#630" d="M329,307 l-53,0 -9,-6 -4,-8 0,-9 4,-8 9,-3 53,0 8,3 3,8 0,9 -3,8 -8,6z" />
<path style="fill:none;stroke:#000;stroke-width:2" d="M327,420 l-51,0 -50,-13 -44,-27 -38,-36 -26,-45 -13,-49 0,-53 13,-49 26,-45 38,-36 44,-26 50,-14 51,0 230,40 0,313 -230,40" />
<path style="fill:#c4912b" d="M27,971 l12,-68 588,-104 28,172 -628,0z" />
<path style="fill:none;stroke:#000;stroke-width:2" d="M27,971 l38,-236 551,0 39,236 -628,0" />
<path style="fill:none;stroke:#f2e5cc;stroke-width:2" d="M636,912 l0,38 -79,0" />
<path style="fill:none;stroke:#f2e5cc;stroke-width:2" d="M125,912 l0,38 -79,0" />
<path style="fill:none;stroke:#960;stroke-width:2" d="M636,912 l-79,0 0,38" />
<path style="fill:none;stroke:#960;stroke-width:2" d="M125,912 l-79,0 0,38" />
<path style="fill:#960" d="M299,235 l-6,-11 6,-10 11,0 6,10 -6,11 -11,0z" />
<path style="fill:#ccc" d="M65,637 l257,0 0,58 -257,0 0,-58z" />
<path style="fill:#bfbfbf" d="M65,686 l257,-40 0,49 -257,0 0,-9z" />
<path style="fill:none;stroke:#e5e5e5;stroke-width:2" d="M76,684 l236,-36" />
<path style="fill:none;stroke:#000;stroke-width:2" d="M65,637 l257,0 0,58 -257,0 0,-58" />
<path style="fill:none;stroke:#000;stroke-width:2" d="M65,676 l257,0" />
<path style="fill:#c93" d="M263,686 l0,49 77,0 21,-40 0,-236 -21,-39 -98,21 0,24 89,0 0,221 -68,0z" />
<path style="fill:#ccc" d="M199,422 l-6,-12 6,-9 13,0 6,9 -6,12 -13,0z" />
<path style="fill:#7f4c00" d="M282,454 l0,-2 0,-2 0,-3 0,-12 9,-2 9,-2 9,-2 9,-2 8,-2 7,-4 10,-7 3,-4 3,0 5,-11 1,-12 1,-15 -1,-17 0,-9 -2,-17 -2,-15 -2,-14 -4,-13 -5,-11 -7,-11 -8,-8 -8,-9 -9,-8 -7,-7 -4,-4 7,-5 6,-5 2,-1 4,4 8,8 8,9 8,9 8,10 7,12 5,12 4,13 3,15 1,9 1,9 1,10 1,10 0,10 1,9 0,10 -1,9 -1,17 -3,12 -3,9 -7,6 -10,7 -9,5 -9,4 -10,3 -10,1 -11,2 -10,1 -6,1z" />
<path style="fill:none;stroke:#c93;stroke-width:2" d="M288,444 l43,-9 24,-19 6,-15 4,-30 -10,-78 -15,-30 -33,-34" />
<path style="fill:#333" d="M199,426 l13,0 0,28 -13,0 0,-28z" />
<path style="fill:#630" d="M272,686 l29,0 0,15 -29,0 0,-15z" />
<path style="fill:#630" d="M95,695 l79,0 0,19 -79,0 0,-19z" />
<path style="fill:none;stroke:#000;stroke-width:2" d="M263,686 l0,49 77,0 21,-40 0,-236 -21,-39 -98,21 0,24 89,0 0,221 -68,0" />
<path style="fill:#960;stroke:#000;stroke-width:2" d="M103,480 l-23,34 23,13 22,-34 -22,-13z" />
<path style="fill:#e5b24c;stroke:#000;stroke-width:2" d="M103,484 l-17,30 -19,-15 15,-25 21,10z" />
<path style="fill:#c93;stroke:#000;stroke-width:2" d="M105,474 l-29,44 10,6 28,-46 -9,-4z" />

</svg>
