 

<svg xmlns:agg="http://www.example.com" xmlns="http://www.w3.org/2000/svg" preserveAspectRatio="none" width="1.6083in" height="0.9927in" viewBox="0 0 998 616">

<path style="fill:#366;stroke:#000;stroke-width:2" d="M81,552 l8,6 0,-169 -8,-8 0,171z" />
<path style="fill:#366;stroke:#000;stroke-width:2" d="M863,552 l8,6 0,-169 -8,-8 0,171z" />
<path style="fill:#8abdbd;stroke:#000;stroke-width:2" d="M107,558 l-18,0 0,-169 18,0 0,169z" />
<path style="fill:#8abdbd;stroke:#000;stroke-width:2" d="M889,558 l-18,0 0,-169 18,0 0,169z" />
<path style="fill:#366;stroke:#000;stroke-width:2" d="M897,579 l8,8 0,-170 -8,-6 0,168z" />
<path style="fill:#366;stroke:#000;stroke-width:2" d="M113,579 l8,8 0,-170 -8,-6 0,168z" />
<path style="fill:#8abdbd;stroke:#000;stroke-width:2" d="M930,189 l-819,0 0,228 819,0 0,-228z" />
<path style="fill:#9cc;stroke:#000;stroke-width:2" d="M930,189 l-819,0 -36,-38 820,0 35,38z" />
<path style="fill:#366;stroke:#000;stroke-width:2" d="M75,151 l36,38 0,228 -36,-36 0,-230z" />
<path style="fill:#8abdbd;stroke:#000;stroke-width:2" d="M925,587 l-20,0 0,-170 20,0 0,170z" />
<path style="fill:#8abdbd;stroke:#000;stroke-width:2" d="M141,587 l-20,0 0,-170 20,0 0,170z" />
<path style="fill:#e0e0e0;stroke:#000;stroke-width:2" d="M181,236 l-52,0 0,107 52,0 0,-107z" />
<path style="fill:#000;stroke:#000;stroke-width:2" d="M171,317 l-6,10 -12,6 -10,-6 -6,-10 6,-11 10,-7 12,7 6,11z" />
<path style="fill:#000;stroke:#000;stroke-width:2" d="M171,262 l-6,10 -12,6 -10,-6 -6,-10 6,-12 10,-6 12,6 6,12z" />
<path style="fill:#f00" d="M167,317 l-4,8 -10,4 -8,-4 -4,-8 4,-9 8,-5 10,5 4,9z" />
<path style="fill:#0f0" d="M167,262 l-4,8 -10,4 -8,-4 -4,-8 4,-10 8,-4 10,4 4,10z" />
<path style="fill:#699;stroke:#000;stroke-width:2" d="M970,93 l-932,0 0,-6 932,0 0,6z" />
<path style="fill:#699;stroke:#000;stroke-width:2" d="M28,83 l10,10 0,-6 -10,-10 0,6z" />
<path style="fill:#699;stroke:#000;stroke-width:2" d="M960,77 l-932,0 10,10 932,0 -10,-10z" />
<path style="fill:#699;stroke:#000;stroke-width:2" d="M966,40 l-932,0 0,43 932,0 0,-43z" />
<path style="fill:#699;stroke:#000;stroke-width:2" d="M30,36 l4,4 0,43 -4,-4 0,-43z" />
<path style="fill:#699;stroke:#000;stroke-width:2" d="M970,44 l-932,0 0,-6 932,0 0,6z" />
<path style="fill:#699;stroke:#000;stroke-width:2" d="M28,34 l10,10 0,-6 -10,-10 0,6z" />
<path style="fill:#699;stroke:#000;stroke-width:2" d="M960,28 l-932,0 10,10 932,0 -10,-10z" />
<circle style="fill:#366;stroke:#000;stroke-width:2" cx="908" cy="76" r="9" />
<circle style="fill:#366;stroke:#000;stroke-width:2" cx="870" cy="76" r="9" />
<path style="fill:#366;stroke:#000;stroke-width:2" d="M911,75 l-44,0 12,30 18,0 14,-30z" />
<path style="fill:#366;stroke:#000;stroke-width:2" d="M885,111 l-4,6 -2,4 0,6 2,4 6,2 4,0 4,-2 2,-4 0,-4 0,-2 -2,-2 -2,2 0,4 -2,2 -2,2 -2,-2 -2,-2 2,-6 2,-4 2,-2 0,-2 0,-4 -6,0 0,4z" />
<path style="fill:#366;stroke:#000;stroke-width:2" d="M891,109 l-6,0 0,-4 6,0 0,4z" />
<path style="fill:none;stroke:#fff;stroke-width:2" d="M889,228 l0,-16 -643,0" />
<path style="fill:none;stroke:#699;stroke-width:2" d="M889,228 l-643,0 0,-16" />
<path style="fill:none;stroke:#fff;stroke-width:2" d="M889,248 l0,-16 -643,0" />
<path style="fill:none;stroke:#699;stroke-width:2" d="M889,248 l-643,0 0,-16" />
<path style="fill:none;stroke:#fff;stroke-width:2" d="M889,268 l0,-16 -643,0" />
<path style="fill:none;stroke:#699;stroke-width:2" d="M889,268 l-643,0 0,-16" />
<path style="fill:none;stroke:#fff;stroke-width:2" d="M889,288 l0,-16 -643,0" />
<path style="fill:none;stroke:#699;stroke-width:2" d="M889,288 l-643,0 0,-16" />
<path style="fill:none;stroke:#fff;stroke-width:2" d="M889,308 l0,-14 -643,0" />
<path style="fill:none;stroke:#699;stroke-width:2" d="M889,308 l-643,0 0,-14" />
<path style="fill:none;stroke:#fff;stroke-width:2" d="M889,327 l0,-14 -643,0" />
<path style="fill:none;stroke:#699;stroke-width:2" d="M889,327 l-643,0 0,-14" />
<path style="fill:none;stroke:#fff;stroke-width:2" d="M889,347 l0,-14 -643,0" />
<path style="fill:none;stroke:#699;stroke-width:2" d="M889,347 l-643,0 0,-14" />
<path style="fill:none;stroke:#fff;stroke-width:2" d="M889,367 l0,-14 -643,0" />
<path style="fill:none;stroke:#699;stroke-width:2" d="M889,367 l-643,0 0,-14" />

</svg>
