 

<svg xmlns:agg="http://www.example.com" xmlns="http://www.w3.org/2000/svg" preserveAspectRatio="none" width="1.0750in" height="1.0750in" viewBox="0 0 999 999">

<path style="fill:#b2b2b2" d="M126,95 l118,0 0,483 -118,0 0,-483z" />
<path style="fill:#bfbfbf" d="M135,95 l100,0 0,481 -100,0 0,-481z" />
<path style="fill:#ccc" d="M143,95 l84,0 0,481 -84,0 0,-481z" />
<path style="fill:#d9d9d9" d="M152,95 l66,0 0,481 -66,0 0,-481z" />
<path style="fill:#e5e5e5" d="M160,95 l49,0 0,481 -49,0 0,-481z" />
<path style="fill:#f2f2f2" d="M169,95 l32,0 0,481 -32,0 0,-481z" />
<path style="fill:#fff" d="M177,95 l15,0 0,483 -15,0 0,-483z" />
<path style="fill:none;stroke:#000;stroke-width:2" d="M126,95 l118,0 0,483 -118,0 0,-483" />
<path style="fill:#ccc" d="M67,903 l864,0 0,58 -864,0 0,-58z" />
<path style="fill:#bdbdbd" d="M67,950 l864,-25 0,36 39,0 0,9 -942,0 0,-9 39,0 0,-11z" />
<path style="fill:none;stroke:#000;stroke-width:2" d="M67,903 l864,-2 0,60 39,0 0,9 -942,0 0,-9 39,0 0,-58" />
<path style="fill:none;stroke:#7f7f7f;stroke-width:2" d="M67,961 l864,0" />
<path style="fill:#7f7f7f" d="M107,46 l19,0 0,-18 118,0 0,18 19,0 0,49 -156,0 0,-49z" />
<path style="fill:#7f7f7f" d="M107,342 l156,0 0,10 472,0 205,58 30,0 0,80 -707,0 0,9 -156,0 0,-9 -79,0 0,-138 79,0 0,-10z" />
<path style="fill:#7f7f7f" d="M107,578 l156,0 0,323 -156,0 0,-323z" />
<path style="fill:#8c8c8c" d="M118,46 l17,0 0,-18 100,0 0,18 17,0 0,49 -134,0 0,-49z" />
<path style="fill:#8c8c8c" d="M118,341 l134,0 0,158 -134,0 0,-158z" />
<path style="fill:#8c8c8c" d="M118,576 l134,0 0,325 -134,0 0,-325z" />
<path style="fill:#999" d="M129,46 l14,0 0,-18 84,0 0,18 14,0 0,49 -112,0 0,-49z" />
<path style="fill:#999" d="M129,341 l112,0 0,158 -112,0 0,-158z" />
<path style="fill:#999" d="M129,576 l112,0 0,325 -112,0 0,-325z" />
<path style="fill:#a6a6a6" d="M141,46 l11,0 0,-18 66,0 0,18 11,0 0,49 -88,0 0,-49z" />
<path style="fill:#a6a6a6" d="M141,341 l88,0 0,158 -88,0 0,-158z" />
<path style="fill:#a6a6a6" d="M141,576 l88,0 0,325 -88,0 0,-325z" />
<path style="fill:#b2b2b2" d="M152,46 l8,0 0,-18 49,0 0,18 9,0 0,49 -66,0 0,-49z" />
<path style="fill:#b2b2b2" d="M152,341 l66,0 0,158 -66,0 0,-158z" />
<path style="fill:#b2b2b2" d="M152,576 l66,0 0,325 -66,0 0,-325z" />
<path style="fill:#bfbfbf" d="M163,46 l6,0 0,-18 32,0 0,18 6,0 0,49 -44,0 0,-49z" />
<path style="fill:#bfbfbf" d="M163,341 l44,0 0,158 -44,0 0,-158z" />
<path style="fill:#bfbfbf" d="M163,576 l44,0 0,325 -44,0 0,-325z" />
<path style="fill:#ccc" d="M175,46 l2,0 0,-18 15,0 0,18 2,0 0,49 -19,0 0,-49z" />
<path style="fill:#ccc" d="M175,342 l19,0 0,157 -19,0 0,-157z" />
<path style="fill:#ccc" d="M175,578 l19,0 0,323 -19,0 0,-323z" />
<path style="fill:#999" d="M37,361 l79,0 0,117 -79,0 0,-117z" />
<path style="fill:#999" d="M254,361 l520,0 166,49 -686,0 0,-49z" />
<path style="fill:#999" d="M254,429 l716,0 0,49 -716,0 0,-49z" />
<path style="fill:none;stroke:#ccc;stroke-width:2" d="M254,478 l716,0" />
<path style="fill:none;stroke:#ccc;stroke-width:2" d="M254,412 l677,0" />
<path style="fill:none;stroke:#000;stroke-width:2" d="M107,46 l19,0 0,-18 118,0 0,18 19,0 0,49 -156,0 0,-49" />
<path style="fill:none;stroke:#000;stroke-width:2" d="M107,342 l156,0 0,10 472,0 205,58 30,0 0,80 -707,0 0,9 -156,0 0,-9 -79,0 0,-138 79,0 0,-10" />
<path style="fill:none;stroke:#000;stroke-width:2" d="M107,578 l156,0 0,323 -156,0 0,-323" />
<path style="fill:none;stroke:#000;stroke-width:2" d="M254,361 l511,0" />
<path style="fill:none;stroke:#000;stroke-width:2" d="M254,429 l716,0" />
<path style="fill:#b2b2b2;stroke:#000;stroke-width:2" d="M450,401 l177,0 0,187 -177,0 0,-187z" />
<path style="fill:#ccc;stroke:#000;stroke-width:2" d="M458,243 l148,0 0,158 -148,0 0,-158z" />
<path style="fill:#ccc;stroke:#000;stroke-width:2" d="M656,420 l-29,0 0,158 29,0 0,-158z" />
<circle style="fill:#d9d9d9;stroke:#4c4c4c;stroke-width:2" cx="537" cy="499" r="68" />
<path style="fill:none;stroke:#fff;stroke-width:2" d="M450,588 l0,-187 177,0" />
<path style="fill:#ccc;stroke:#000;stroke-width:2" d="M606,401 l-16,-9 -144,247 17,9 143,-247z" />
<circle style="fill:#e5e5e5;stroke:#7f7f7f;stroke-width:2" cx="538" cy="499" r="22" />
<path style="fill:#b2b2b2" d="M529,588 l19,0 0,28 -19,0 0,-28z" />
<path style="fill:#ccc" d="M531,588 l15,0 0,28 -15,0 0,-28z" />
<path style="fill:#e5e5e5" d="M535,588 l7,0 0,28 -7,0 0,-28z" />
<path style="fill:#fff" d="M537,588 l2,0 0,28 -2,0 0,-28z" />
<path style="fill:none;stroke:#000;stroke-width:2" d="M529,588 l19,0 0,28 -19,0 0,-28" />
<path style="fill:none;stroke:#999;stroke-width:2" d="M469,380 l17,0 0,-117" />
<path style="fill:none;stroke:#999;stroke-width:2" d="M503,380 l17,0 0,-117" />
<path style="fill:none;stroke:#999;stroke-width:2" d="M537,380 l17,0 0,-117" />
<path style="fill:none;stroke:#999;stroke-width:2" d="M571,380 l17,0 0,-117" />
<path style="fill:#b2b2b2;stroke:#000;stroke-width:2" d="M648,548 l-8,0 -7,-2 -6,-4 -5,-7 -4,-8 0,-11 0,-9 2,-10 5,-9 6,-8 8,-6 7,-3 8,0 5,2 8,3 4,8 3,7 2,10 -2,11 -2,10 -3,9 -8,8 -5,5 -8,4z" />
<path style="fill:#666" d="M646,505 l19,-21 -25,-8 6,29z" />
<path style="fill:#666" d="M640,508 l-7,-18 -8,28 15,-10z" />
<path style="fill:#666" d="M644,514 l-19,21 25,5 -6,-26z" />
<path style="fill:#666" d="M648,510 l13,25 11,-42 -24,17z" />

</svg>
