 

<svg xmlns:agg="http://www.example.com" xmlns="http://www.w3.org/2000/svg" preserveAspectRatio="none" width="0.4401in" height="1.0750in" viewBox="0 0 409 999">

<path style="fill:#e0e0e0;stroke:#000;stroke-width:2" d="M381,154 l-318,0 -36,-35 319,0 35,35z" />
<path style="fill:#b2b2b2;stroke:#000;stroke-width:2" d="M65,154 l-35,-35 0,814 35,35 0,-814z" />
<path style="fill:#039;stroke:#000;stroke-width:2" d="M36,106 l6,-12 14,-9 218,0 4,3 -4,12 -211,0 -9,4 -4,8 0,836 -14,0 0,-842z" />
<path style="fill:#b2b2b2;stroke:#000;stroke-width:2" d="M319,950 l-215,0 0,-387 215,0 0,387z" />
<path style="fill:#e0e0e0;stroke:#000;stroke-width:2" d="M232,574 l-25,0 0,132 25,0 0,-132z" />
<path style="fill:#7f7fff;stroke:#000;stroke-width:2" d="M236,644 l7,0 0,27 -7,0 0,10 -33,0 0,-10 -6,0 0,-27 6,0 0,-11 33,0 0,11z" />
<path style="fill:#f00;fill-rule:evenodd" d="M218,644 l-8,2 -5,10 13,0 0,-12z M205,658 l5,11 8,2 0,-13 -13,0z M222,671 l8,-2 4,-11 -12,0 0,13z M234,656 l-4,-10 -8,-2 0,12 12,0z M220,640 l-13,4 -6,14 6,13 13,6 12,-6 6,-13 -6,-14 -12,-4z " />
<path style="fill:none;stroke:#000;stroke-width:2" d="M218,644 l-8,2 -5,10 13,0 0,-12" />
<path style="fill:none;stroke:#000;stroke-width:2" d="M205,658 l5,11 8,2 0,-13 -13,0" />
<path style="fill:none;stroke:#000;stroke-width:2" d="M222,671 l8,-2 4,-11 -12,0 0,13" />
<path style="fill:none;stroke:#000;stroke-width:2" d="M234,656 l-4,-10 -8,-2 0,12 12,0" />
<path style="fill:none;stroke:#000;stroke-width:2" d="M220,640 l-13,4 -6,14 6,13 13,6 12,-6 6,-13 -6,-14 -12,-4" />
<path style="fill:#e5e5e5;stroke:#000;stroke-width:2" d="M332,577 l-21,-20 0,393 21,21 0,-394z" />
<path style="fill:#f0f0f0;stroke:#000;stroke-width:2" d="M121,968 l0,-384 211,0 0,384 49,0 0,-814 -318,0 0,814 58,0z" />
<path style="fill:#ccc;stroke:#000;stroke-width:2" d="M352,191 l-271,0 0,273 10,6 269,-269 -8,-10z" />
<path style="fill:#e0e0e0;stroke:#000;stroke-width:2" d="M363,201 l-274,0 0,271 274,0 0,-271z" />
<path style="fill:#039;stroke:#000;stroke-width:2" d="M305,108 l0,-81 -61,0 0,81 61,0z" />
<path style="fill:#039;stroke:#000;stroke-width:2" d="M319,108 l0,29 -76,0 0,-29 76,0z" />
<path style="fill:none;stroke:#000;stroke-width:2" d="M299,38 l0,29" />
<path style="fill:none;stroke:#000;stroke-width:2" d="M290,40 l0,21" />
<path style="fill:none;stroke:#000;stroke-width:2" d="M276,42 l0,29" />
<path style="fill:none;stroke:#000;stroke-width:2" d="M267,40 l0,21" />
<path style="fill:#000;stroke:#000;stroke-width:2" d="M325,222 l-10,4 -4,10 4,11 10,4 11,-4 4,-11 -4,-10 -11,-4z" />
<path style="fill:#000;stroke:#000;stroke-width:2" d="M263,222 l-10,4 -4,10 4,11 10,4 8,-4 5,-11 -5,-10 -8,-4z" />
<path style="fill:#000;stroke:#000;stroke-width:2" d="M197,222 l-10,4 -4,10 4,11 10,4 10,-4 4,-11 -4,-10 -10,-4z" />
<path style="fill:#000;stroke:#000;stroke-width:2" d="M131,222 l10,4 4,10 -4,11 -10,4 -9,-4 -3,-11 3,-10 9,-4z" />
<path style="fill:#000;stroke:#000;stroke-width:2" d="M249,366 l10,5 4,10 -4,10 -10,5 -8,-5 -5,-10 5,-10 8,-5z" />
<path style="fill:#000;stroke:#000;stroke-width:2" d="M201,366 l10,5 5,10 -5,10 -10,5 -8,-5 -4,-10 4,-10 8,-5z" />
<path style="fill:#f00" d="M249,371 l8,2 4,8 -4,8 -8,2 -6,-2 -5,-8 5,-8 6,-2z" />
<path style="fill:#0f0" d="M201,371 l9,2 3,8 -3,8 -9,2 -6,-2 -4,-8 4,-8 6,-2z" />
<path style="fill:#e0e0e0" d="M321,226 l-4,2 12,19 3,-3 -11,-18z" />
<path style="fill:#e0e0e0" d="M259,226 l-4,2 12,19 2,-3 -10,-18z" />
<path style="fill:#e0e0e0" d="M193,226 l-4,2 12,19 2,-3 -10,-18z" />
<path style="fill:#e0e0e0" d="M135,226 l4,2 -12,19 -2,-3 10,-18z" />
<path style="fill:#000" d="M259,282 l-64,0 8,37 44,0 12,-37z" />
<path style="fill:#fff;stroke:#000;stroke-width:2" d="M253,286 l-54,0 4,21 44,0 6,-21z" />
<path style="fill:none;stroke:#000;stroke-width:2" d="M222,292 l4,15" />
<path style="fill:none;stroke:#000;stroke-width:2" d="M251,286 l0,4" />
<path style="fill:none;stroke:#000;stroke-width:2" d="M244,286 l0,4" />
<path style="fill:none;stroke:#000;stroke-width:2" d="M238,286 l0,4" />
<path style="fill:none;stroke:#000;stroke-width:2" d="M232,286 l0,4" />
<path style="fill:none;stroke:#000;stroke-width:2" d="M226,286 l0,4" />
<path style="fill:none;stroke:#000;stroke-width:2" d="M220,286 l0,4" />
<path style="fill:none;stroke:#000;stroke-width:2" d="M213,286 l0,4" />
<path style="fill:none;stroke:#000;stroke-width:2" d="M207,286 l0,4" />
<path style="fill:none;stroke:#000;stroke-width:2" d="M201,286 l0,4" />
<path style="fill:#fff;stroke:#000;stroke-width:2" d="M340,104 l-15,6 -6,15 6,14 15,6 14,-6 6,-14 -6,-15 -14,-6z" />
<path style="fill:#000" d="M340,127 l2,-2 -15,-13 13,15z" />
<path style="fill:#fff;stroke:#000;stroke-width:2" d="M75,104 l-14,6 -7,15 7,14 14,6 14,-6 7,-14 -7,-15 -14,-6z" />
<path style="fill:#000" d="M75,127 l2,-2 -14,-13 12,15z" />
<path style="fill:#f0f0f0;stroke:#000;stroke-width:2" d="M135,958 l19,4 64,0 62,0 20,-4 5,-242 -176,0 6,242z" />
<path style="fill:#fff" d="M290,727 l-12,0 0,233 12,-2 0,-231z" />
<path style="fill:#fff;stroke:#000;stroke-width:2" d="M125,718 l0,2 8,0 19,2 28,2 38,0 35,0 29,-2 20,-2 9,0 0,-4 -186,2z" />
<ellipse style="fill:#f0f0f0;stroke:#000;stroke-width:2" cx="217" cy="753" rx="90" ry="4" />
<ellipse style="fill:#f0f0f0;stroke:#000;stroke-width:2" cx="217" cy="764" rx="90" ry="4" />
<ellipse style="fill:#7f7f7f;stroke:#000;stroke-width:2" cx="218" cy="717" rx="93" ry="5" />

</svg>
