 

<svg xmlns:agg="http://www.example.com" xmlns="http://www.w3.org/2000/svg" preserveAspectRatio="none" width="0.9319in" height="1.0750in" viewBox="0 0 866 999">

<path style="fill:#f2e5cc;stroke:#000;stroke-width:2" d="M687,27 l68,0 0,202 -68,0 0,-202z" />
<path style="fill:#ffb27f" d="M734,233 l0,-202 12,0 0,202 -12,0z" />
<path style="fill:#333" d="M712,171 l0,-75 13,0 0,75 -13,0z" />
<path style="fill:#f2e5cc;stroke:#000;stroke-width:2" d="M131,902 l0,69 556,0 0,-185 151,0 0,-219 -17,0 0,-338 -134,0 0,-17 -286,0 0,17 -253,0 0,673 -17,0z" />
<path style="fill:#ede0c7" d="M157,620 l660,-189 0,321 -660,0 0,-132z" />
<path style="fill:#ede0c7" d="M140,908 l544,-85 0,144 -544,0 0,-59z" />
<path style="fill:#e8dbc2" d="M157,641 l660,-191 0,302 -660,0 0,-111z" />
<path style="fill:#e8dbc2" d="M140,916 l544,-85 0,136 -544,0 0,-51z" />
<path style="fill:#e3d6bd" d="M157,667 l660,-189 0,274 -660,0 0,-85z" />
<path style="fill:#e3d6bd" d="M140,929 l544,-85 0,123 -544,0 0,-38z" />
<path style="fill:#e5cb98;stroke:#000;stroke-width:2" d="M687,786 l51,0 0,134 -51,0 0,-134z" />
<path style="fill:none;stroke:#d9b366;stroke-width:2" d="M165,837 l488,0 0,49 17,0 0,51 17,0" />
<path style="fill:#ffb27f" d="M165,803 l505,0 0,20 -505,0 0,-20z" />
<path style="fill:#333" d="M165,772 l136,0 0,25 -136,0 0,-25z" />
<path style="fill:none;stroke:#000;stroke-width:2" d="M148,755 l522,0" />
<path style="fill:#f2e5cc" d="M670,567 l168,0 0,219 -168,0 0,-219z" />
<path style="fill:#ede0c7" d="M670,721 l168,-90 0,155 -168,0 0,-65z" />
<path style="fill:#e8dbc2" d="M670,731 l168,-93 0,148 -168,0 0,-55z" />
<path style="fill:#e3d6bd" d="M670,744 l168,-90 0,132 -168,0 0,-42z" />
<path style="fill:none;stroke:#fff;stroke-width:2" d="M674,601 l160,0" />
<path style="fill:none;stroke:#d9b366;stroke-width:2" d="M674,595 l160,0" />
<path style="fill:#630" d="M418,482 l235,0 0,253 -235,0 0,-253z" />
<path style="fill:#960" d="M646,735 l0,-219 7,-34 0,253 -7,0z" />
<path style="fill:#7f4c00" d="M418,516 l228,0 7,-34 -235,0 0,34z" />
<path style="fill:#000" d="M520,616 l117,0 0,119 -117,0 0,-119z" />
<path style="fill:none;stroke:#000;stroke-width:2" d="M418,482 l235,0 0,253 -235,0 0,-253" />
<path style="fill:#999;stroke:#000;stroke-width:2" d="M435,482 l0,-202 218,0 0,202 -218,0z" />
<path style="fill:#7f7f7f" d="M452,482 l0,-185 185,0 0,185 -185,0z" />
<path style="fill:#eddbb7" d="M182,748 l-17,-49 0,-66 17,-164 253,0 17,164 0,66 -17,49 -253,0z" />
<path style="fill:#f2e5cc" d="M165,633 l17,-164 253,0 17,164 -287,0z" />
<path style="fill:#e8d1a3" d="M182,748 l-17,-49 287,0 -17,49 -253,0z" />
<path style="fill:none;stroke:#000;stroke-width:2" d="M182,748 l-17,-49 0,-66 17,-164 253,0 17,164 0,66 -17,49 -253,0" />
<path style="fill:#f2e5cc" d="M148,752 l-17,-51 0,-68 17,-168 253,0 17,168 0,68 -17,51 -253,0z" />
<path style="fill:#f7efe0" d="M131,633 l17,-168 253,0 17,168 -287,0z" />
<path style="fill:#eddbb7" d="M148,752 l-17,-51 287,0 -17,51 -253,0z" />
<path style="fill:none;stroke:#000;stroke-width:2" d="M148,752 l-17,-51 0,-68 17,-168 253,0 17,168 0,68 -17,51 -253,0" />
<path style="fill:#333" d="M427,608 l8,0 -8,-75 -7,0 7,75z" />
<path style="fill:#333" d="M284,841 l83,0 0,82 -83,0 0,-82z" />
<path style="fill:#666" d="M199,841 l72,0 0,24 -72,0 0,-24z" />
<path style="fill:none;stroke:#fff;stroke-width:2" d="M523,946 l0,-68 34,0" />
<path style="fill:none;stroke:#d9b366;stroke-width:2" d="M523,946 l34,0 0,-68" />
<path style="fill:#f2e5cc;stroke:#000;stroke-width:2" d="M102,465 l46,0 0,437 -46,0 0,-437z" />
<path style="fill:#191919" d="M27,263 l189,0 0,202 -189,0 0,-202z" />
<path style="fill:#333" d="M38,318 l164,0 0,85 -164,0 0,-85z" />
<path style="fill:#4c4c4c" d="M127,327 l68,0 0,66 -68,0 0,-66z" />
<path style="fill:#7f0000" d="M176,448 l-5,-7 0,-10 5,-7 12,0 7,7 0,10 -7,7 -12,0z" />
<path style="fill:#000" d="M123,482 l4,0 0,4 -4,0 0,-4z" />
<path style="fill:#000" d="M123,507 l4,0 0,5 -4,0 0,-5z" />
<path style="fill:none;stroke:#000;stroke-width:2" d="M687,229 l0,338" />
<path style="fill:none;stroke:#fff;stroke-width:2" d="M670,786 l0,-219 168,0" />
<path style="fill:#333" d="M695,348 l119,0 0,117 -119,0 0,-117z" />
<path style="fill:none;stroke:#7f7f7f;stroke-width:2" d="M704,465 l0,-117" />
<path style="fill:none;stroke:#7f7f7f;stroke-width:2" d="M712,465 l0,-117" />
<path style="fill:none;stroke:#7f7f7f;stroke-width:2" d="M721,465 l0,-117" />
<path style="fill:none;stroke:#7f7f7f;stroke-width:2" d="M729,465 l0,-117" />
<path style="fill:none;stroke:#7f7f7f;stroke-width:2" d="M738,465 l0,-117" />
<path style="fill:none;stroke:#7f7f7f;stroke-width:2" d="M746,465 l0,-117" />
<path style="fill:none;stroke:#7f7f7f;stroke-width:2" d="M754,465 l0,-117" />
<path style="fill:none;stroke:#7f7f7f;stroke-width:2" d="M763,465 l0,-117" />
<path style="fill:none;stroke:#7f7f7f;stroke-width:2" d="M772,465 l0,-117" />
<path style="fill:none;stroke:#7f7f7f;stroke-width:2" d="M780,465 l0,-117" />
<path style="fill:none;stroke:#7f7f7f;stroke-width:2" d="M787,465 l0,-117" />
<path style="fill:none;stroke:#7f7f7f;stroke-width:2" d="M797,465 l0,-117" />
<path style="fill:none;stroke:#7f7f7f;stroke-width:2" d="M806,465 l0,-117" />
<path style="fill:none;stroke:#7f7f7f;stroke-width:2" d="M697,356 l117,0" />
<path style="fill:none;stroke:#7f7f7f;stroke-width:2" d="M697,363 l117,0" />
<path style="fill:none;stroke:#7f7f7f;stroke-width:2" d="M697,373 l117,0" />
<path style="fill:none;stroke:#7f7f7f;stroke-width:2" d="M697,380 l117,0" />
<path style="fill:none;stroke:#7f7f7f;stroke-width:2" d="M697,390 l117,0" />
<path style="fill:none;stroke:#7f7f7f;stroke-width:2" d="M697,397 l117,0" />
<path style="fill:none;stroke:#7f7f7f;stroke-width:2" d="M697,405 l117,0" />
<path style="fill:none;stroke:#7f7f7f;stroke-width:2" d="M697,414 l117,0" />
<path style="fill:none;stroke:#7f7f7f;stroke-width:2" d="M697,424 l117,0" />
<path style="fill:none;stroke:#7f7f7f;stroke-width:2" d="M697,431 l117,0" />
<path style="fill:none;stroke:#7f7f7f;stroke-width:2" d="M697,439 l117,0" />
<path style="fill:none;stroke:#7f7f7f;stroke-width:2" d="M697,448 l117,0" />
<path style="fill:none;stroke:#7f7f7f;stroke-width:2" d="M697,457 l117,0" />

</svg>
