 

<svg xmlns:agg="http://www.example.com" xmlns="http://www.w3.org/2000/svg" preserveAspectRatio="none" width="0.9835in" height="1.0750in" viewBox="0 0 914 999">

<path style="fill:#e0e0e0;stroke:#000;stroke-width:2" d="M592,739 l-28,-28 0,-521 28,28 0,521z" />
<path style="fill:#7f7f7f;stroke:#000;stroke-width:2" d="M133,737 l0,-506 459,0 0,506 104,0 0,-588 -666,0 0,588 103,0z" />
<path style="fill:#7f7f7f;stroke:#000;stroke-width:2" d="M886,929 l-188,-190 0,-588 188,188 0,590z" />
<path style="fill:#e0e0e0;stroke:#000;stroke-width:2" d="M782,929 l-28,-28 0,-521 28,28 0,521z" />
<path style="fill:#f0f0f0;stroke:#000;stroke-width:2" d="M324,929 l0,-508 458,0 0,508 104,0 0,-590 -666,0 0,590 104,0z" />
<path style="fill:#e0e0e0;stroke:#000;stroke-width:2" d="M27,737 l193,192 0,-590 -193,-190 0,588z" />
<path style="fill:#f0f0f0;stroke:#000;stroke-width:2" d="M696,149 l-669,0 193,190 666,0 -190,-190z" />
<path style="fill:#f0f0f0;stroke:#000;stroke-width:2" d="M665,142 l-281,0 0,169 281,0 0,-169z" />
<path style="fill:#f0f0f0;stroke:#000;stroke-width:2" d="M665,142 l-281,0 -112,-115 281,0 112,115z" />
<path style="fill:#e0e0e0;stroke:#000;stroke-width:2" d="M272,27 l112,115 0,169 -112,-113 0,-171z" />
<path style="fill:#f0f0f0;stroke:#000;stroke-width:2" d="M313,216 l0,-61 37,0 0,61 -37,0z" />
<path style="fill:#f0f0f0;stroke:#000;stroke-width:2" d="M313,216 l0,-61 -26,-26 0,63 26,24z" />
<path style="fill:#e0e0e0;stroke:#000;stroke-width:2" d="M287,129 l26,26 37,0 -24,-26 -39,0z" />
<path style="fill:#f0f0f0;stroke:#000;stroke-width:2" d="M882,475 l-33,0 0,496 33,0 0,-496z" />
<path style="fill:#f0f0f0;stroke:#000;stroke-width:2" d="M882,475 l-33,0 -62,-43 34,0 61,43z" />
<path style="fill:#e0e0e0;stroke:#000;stroke-width:2" d="M787,432 l62,43 0,496 -62,-46 0,-493z" />
<path style="fill:#f0f0f0;stroke:#000;stroke-width:2" d="M335,471 l-35,0 0,493 35,0 0,-493z" />
<path style="fill:#f0f0f0;stroke:#000;stroke-width:2" d="M335,471 l-35,0 -13,-45 35,0 13,45z" />
<path style="fill:#e0e0e0;stroke:#000;stroke-width:2" d="M287,426 l13,45 0,493 -13,-45 0,-493z" />
<path style="fill:#f0f0f0;stroke:#000;stroke-width:2" d="M633,259 l0,-9 -164,0 0,9 164,0z" />
<path style="fill:#f0f0f0;stroke:#000;stroke-width:2" d="M633,229 l0,-9 -82,0 0,9 82,0z" />
<path style="fill:#f0f0f0;stroke:#000;stroke-width:2" d="M633,200 l0,-8 -82,0 0,8 82,0z" />
<path style="fill:#f0f0f0;stroke:#000;stroke-width:2" d="M633,168 l0,-6 -171,0 0,6 171,0z" />
<path style="fill:#f0f0f0;stroke:#000;stroke-width:2" d="M646,187 l-9,0 0,-12 9,0 0,12z" />
<path style="fill:#f0f0f0;stroke:#000;stroke-width:2" d="M646,233 l-9,0 0,13 9,0 0,-13z" />
<path style="fill:#f0f0f0;stroke:#000;stroke-width:2" d="M471,168 l-9,0 0,95 9,0 0,-95z" />
<path style="fill:#000;stroke:#000;stroke-width:2" d="M646,175 l-7,0 -2,-3 0,-2 -2,-2 -2,0 0,-6 2,0 2,0 2,2 3,0 2,2 2,4 0,2 0,3z" />
<path style="fill:#000;stroke:#000;stroke-width:2" d="M646,185 l-7,0 -2,2 0,3 -2,2 -2,0 0,8 2,0 2,-2 2,0 3,-2 2,-2 2,-2 0,-5 0,-2z" />
<path style="fill:#000;stroke:#000;stroke-width:2" d="M646,233 l-7,0 -2,-2 0,-2 -2,0 -2,-3 0,-6 2,0 2,0 2,2 3,2 2,2 2,3 0,2 0,2z" />
<path style="fill:#000;stroke:#000;stroke-width:2" d="M646,243 l-7,0 -2,3 0,2 -2,2 -2,0 0,9 2,0 2,-3 2,0 3,-1 2,-3 2,-2 0,-4 0,-3z" />
<path style="fill:#000;stroke:#000;stroke-width:2" d="M536,205 l9,0 0,-2 1,-3 3,0 2,-2 0,-6 -2,0 -4,0 -3,2 -2,2 0,2 -2,2 0,3 -2,2z" />
<path style="fill:#000;stroke:#000;stroke-width:2" d="M545,216 l0,-11 -7,0 0,11 7,0z" />
<path style="fill:#000;stroke:#000;stroke-width:2" d="M536,213 l9,0 0,5 1,2 3,0 2,0 0,9 -2,0 -4,-3 -3,0 -2,-2 0,-2 -2,-2 0,-2 -2,-5z" />
<path style="fill:#7f7f7f;stroke:#000;stroke-width:2" d="M551,192 l-2,0 0,8 2,0 0,-8z" />
<path style="fill:#7f7f7f;stroke:#000;stroke-width:2" d="M536,203 l0,4 10,0 0,-4 -10,0z" />
<path style="fill:#7f7f7f;stroke:#000;stroke-width:2" d="M536,218 l0,-5 10,0 0,5 -10,0z" />
<path style="fill:#7f7f7f;stroke:#000;stroke-width:2" d="M551,229 l-2,0 0,-9 2,0 0,9z" />
<path style="fill:#7f7f7f;stroke:#000;stroke-width:2" d="M631,159 l4,0 0,11 -4,0 0,-11z" />
<path style="fill:#7f7f7f;stroke:#000;stroke-width:2" d="M646,172 l0,3 -9,0 0,-3 9,0z" />
<path style="fill:#7f7f7f;stroke:#000;stroke-width:2" d="M646,187 l0,-2 -9,0 0,2 9,0z" />
<path style="fill:#7f7f7f;stroke:#000;stroke-width:2" d="M631,200 l4,0 0,-10 -4,0 0,10z" />
<path style="fill:#7f7f7f;stroke:#000;stroke-width:2" d="M631,220 l4,0 0,9 -4,0 0,-9z" />
<path style="fill:#7f7f7f;stroke:#000;stroke-width:2" d="M646,231 l0,4 -9,0 0,-4 9,0z" />
<path style="fill:#7f7f7f;stroke:#000;stroke-width:2" d="M646,246 l0,-3 -9,0 0,3 9,0z" />
<path style="fill:#7f7f7f;stroke:#000;stroke-width:2" d="M631,259 l4,0 0,-11 -4,0 0,11z" />
<path style="fill:#fff;stroke:#000;stroke-width:2" d="M546,255 l-4,-13 -13,-5 -15,5 -4,13 4,14 15,5 13,-5 4,-14z" />
<path style="fill:#fff;stroke:#000;stroke-width:2" d="M486,172 l-4,-10 -11,-5 -11,5 -4,10 4,11 11,4 11,-4 4,-11z" />
<path style="fill:#000" d="M527,256 l2,0 7,-8 -9,8z" />
<path style="fill:#7f7f7f;stroke:#000;stroke-width:2" d="M443,168 l-52,0 0,54 4,4 52,-54 -4,-4z" />
<path style="fill:#f0f0f0;stroke:#000;stroke-width:2" d="M447,172 l-52,0 0,54 52,0 0,-54z" />
<path style="fill:#f00;stroke:#000;stroke-width:2" d="M434,181 l-4,0 0,4 0,5 4,2 4,-2 2,-5 -2,-4 -4,0z" />
<path style="fill:#000" d="M410,181 l-4,0 -2,4 2,5 4,2 4,-2 3,-5 -3,-4 -4,0z" />
<path style="fill:#00007f;stroke:#000;stroke-width:2" d="M473,259 l0,-11 -13,0 0,11 13,0z" />
<path style="fill:#000" d="M393,192 l-6,0 -5,0 -52,-28 0,4 52,28 6,0 5,0 0,-4z" />
<path style="fill:#ccc;stroke:#000;stroke-width:2" d="M27,198 l78,334 -78,170 0,33 18,19 71,-173 74,316 28,28 0,-52 -76,-327 76,-181 0,-28 -20,-18 -71,165 -71,-312 -29,-28 0,54z" />

</svg>
