 

<svg xmlns:agg="http://www.example.com" xmlns="http://www.w3.org/2000/svg" preserveAspectRatio="none" width="1.0524in" height="1.0750in" viewBox="0 0 978 999">

<path style="fill:#7f7f7f;stroke:#000;stroke-width:2" d="M263,414 l23,0 0,128 -23,0 0,-128z" />
<path style="fill:#7f7f7f" d="M371,542 l428,0 0,321 -428,0 0,-321z" />
<path style="fill:#7a7a7a" d="M371,767 l428,-140 0,236 -428,0 0,-96z" />
<path style="fill:#757575" d="M371,780 l428,-138 0,221 -428,0 0,-83z" />
<path style="fill:#707070" d="M371,801 l428,-138 0,200 -428,0 0,-62z" />
<path style="fill:#4c4c4c;stroke:#000;stroke-width:2" d="M371,348 l428,0 0,108 -428,0 0,-108z" />
<path style="fill:#666;stroke:#000;stroke-width:2" d="M799,691 l87,0 0,151 -87,0 0,-151z" />
<path style="fill:#7f7f7f;stroke:#000;stroke-width:2" d="M414,307 l536,0 0,41 -536,0 0,-41z" />
<path style="fill:#666" d="M693,542 l106,0 0,-128 -106,0 0,128z" />
<path style="fill:#7f7f7f;stroke:#000;stroke-width:2" d="M799,691 l151,0 0,-343 -151,0 0,343z" />
<path style="fill:#7f7f7f;stroke:#000;stroke-width:2" d="M757,863 l42,0 0,107 -42,0 0,-107z" />
<path style="fill:#7f7f7f;stroke:#000;stroke-width:2" d="M371,863 l43,0 0,107 -43,0 0,-107z" />
<path style="fill:none;stroke:#000;stroke-width:2" d="M393,799 l385,0 0,-236 -385,0 0,236" />
<path style="fill:#7f7f7f;stroke:#000;stroke-width:2" d="M327,927 l387,0 0,-64 21,0 0,87 -408,0 0,-23z" />
<path style="fill:#b2b2b2" d="M542,954 l65,0 11,16 -87,0 11,-16z" />
<path style="fill:none;stroke:#000;stroke-width:2" d="M371,542 l428,0 0,321 -428,0 0,-321" />
<path style="fill:none;stroke:#4c4c4c;stroke-width:2" d="M746,542 l0,-128" />
<path style="fill:none;stroke:#999;stroke-width:2" d="M752,542 l0,-128" />
<path style="fill:none;stroke:#000;stroke-width:2" d="M693,542 l106,0 0,-128 -106,0 0,128" />
<path style="fill:#999" d="M521,671 l129,0 0,-21 -129,0 0,21z" />
<path style="fill:#7f7f7f;stroke:#000;stroke-width:2" d="M457,135 l172,0 0,321 -172,0 0,-321z" />
<path style="fill:#999;stroke:#000;stroke-width:2" d="M71,348 l-43,0 258,87 0,-21 -215,-66z" />
<path style="fill:#7f7f7f;stroke:#000;stroke-width:2" d="M693,414 l21,0 0,128 -21,0 0,-128z" />
<path style="fill:#7f7f7f" d="M286,456 l-23,-21 12,0 20,21 387,0 21,-21 11,0 -21,21 0,86 -407,0 0,-86z" />
<path style="fill:#757575" d="M693,456 l0,86 -300,0 300,-86z" />
<path style="fill:none;stroke:#000;stroke-width:2" d="M286,456 l-23,-21 12,0 20,21 387,0 21,-21 11,0 -21,21 0,86 -407,0 0,-86" />
<path style="fill:#999;stroke:#000;stroke-width:2" d="M906,348 l44,0 -257,87 0,-21 213,-66z" />
<path style="fill:#666;stroke:#000;stroke-width:2" d="M478,135 l0,-57 10,-22 18,-19 23,-9 27,0 22,9 19,19 10,22 0,57 -129,0z" />
<circle style="fill:#7f7f7f;stroke:#000;stroke-width:2" cx="542" cy="91" r="43" />
<path style="fill:#d9ccb3;stroke:#000;stroke-width:2" d="M327,456 l0,-42 87,-23 43,0 64,44 -64,0 -22,-21 -21,42 -87,0z" />
<circle style="fill:#b2b2b2;stroke:#000;stroke-width:2" cx="435" cy="435" r="21" />
<circle style="fill:#b2b2b2;stroke:#000;stroke-width:2" cx="553" cy="339" r="32" />
<path style="fill:#333" d="M478,156 l87,0 0,64 -87,0 0,-64z" />
<path style="fill:#7f7f7f" d="M542,927 l65,0 0,27 -65,0 0,-27z" />
<path style="fill:none;stroke:#000;stroke-width:2" d="M542,927 l65,0 0,27 11,16 -87,0 11,-16 0,-27" />
<circle style="fill:#333" cx="922" cy="515" r="16" />

</svg>
