 

<svg xmlns:agg="http://www.example.com" xmlns="http://www.w3.org/2000/svg" preserveAspectRatio="none" width="0.8951in" height="1.0750in" viewBox="0 0 831 998">

<path style="fill:#4c4c4c;stroke:#000;stroke-width:2" d="M101,825 l0,60 628,0 0,-60 -628,0z" />
<path style="fill:#4c4c4c;stroke:#000;stroke-width:2" d="M769,386 l-40,0 0,558 40,0 0,-558z" />
<path style="fill:#4c4c4c;stroke:#000;stroke-width:2" d="M101,386 l-40,0 0,558 40,0 0,-558z" />
<path style="fill:#ccc" d="M797,77 l-764,0 0,522 764,0 0,-522z" />
<path style="fill:#c7c7c7" d="M797,448 l-764,-219 0,370 764,0 0,-151z" />
<path style="fill:#c2c2c2" d="M797,471 l-764,-219 0,347 764,0 0,-128z" />
<path style="fill:#bdbdbd" d="M797,503 l-764,-219 0,315 764,0 0,-96z" />
<path style="fill:none;stroke:#000;stroke-width:2" d="M797,77 l-764,0 0,522 764,0 0,-522" />
<path style="fill:#666;stroke:#000;stroke-width:2" d="M627,906 l0,65 132,0 0,-65 -132,0z" />
<path style="fill:#e5e5e5" d="M785,120 l-109,0 0,66 109,0 0,-66z" />
<path style="fill:none;stroke:#000;stroke-width:2" d="M589,120 l-348,0 0,121 348,0 0,-121" />
<path style="fill:#e5e5e5" d="M557,261 l-284,0 0,98 284,0 0,-98z" />
<path style="fill:#e5e5e5" d="M469,480 l-108,0 0,98 108,0 0,-98z" />
<path style="fill:#7f7f7f;stroke:#000;stroke-width:2" d="M759,599 l0,23 -322,218 -44,0 -322,-218 0,-23 688,0z" />
<path style="fill:#fff" d="M546,273 l-262,0 0,77 262,0 0,-77z" />
<path style="fill:#333" d="M638,916 l0,43 110,0 0,-43 -110,0z" />
<path style="fill:#666;stroke:#000;stroke-width:2" d="M71,906 l0,65 132,0 0,-65 -132,0z" />
<path style="fill:#333" d="M82,916 l0,43 109,0 0,-43 -109,0z" />
<path style="fill:#bfbfbf;stroke:#000;stroke-width:2" d="M71,840 l0,65 688,0 0,-65 -688,0z" />
<path style="fill:#ccbfbf" d="M774,131 l-32,0 0,21 32,0 0,-21z" />
<path style="fill:#ccbfbf" d="M720,131 l-33,0 0,21 33,0 0,-21z" />
<path style="fill:#ccbfbf" d="M774,158 l-87,0 0,22 87,0 0,-22z" />
<path style="fill:#e5e5e5" d="M163,120 l-108,0 0,66 108,0 0,-66z" />
<path style="fill:#ccbfbf" d="M152,131 l-32,0 0,21 32,0 0,-21z" />
<path style="fill:#ccbfbf" d="M99,131 l-32,0 0,21 32,0 0,-21z" />
<path style="fill:#ccbfbf" d="M152,158 l-87,0 0,22 87,0 0,-22z" />
<path style="fill:#ccc" d="M71,846 l0,55 688,0 0,-55 -688,0z" />
<path style="fill:#d9d9d9" d="M71,850 l0,45 688,0 0,-45 -688,0z" />
<path style="fill:#ccc;stroke:#000;stroke-width:2" d="M803,359 l-44,0 0,612 44,0 0,-612z" />
<path style="fill:#ccc;stroke:#000;stroke-width:2" d="M71,359 l-44,0 0,612 44,0 0,-612z" />
<path style="fill:#72727f" d="M612,77 l0,-29 -394,0 0,29 394,0z" />
<path style="fill:#7f7f8c" d="M595,77 l0,-29 -358,0 0,29 358,0z" />
<path style="fill:#8c8c99" d="M576,77 l0,-29 -322,0 0,29 322,0z" />
<path style="fill:#9999a6" d="M559,77 l0,-29 -288,0 0,29 288,0z" />
<path style="fill:#a5a5b2" d="M542,77 l0,-29 -254,0 0,29 254,0z" />
<path style="fill:#b2b2bf" d="M523,77 l0,-29 -217,0 0,29 217,0z" />
<path style="fill:#bfbfcc" d="M507,77 l0,-29 -183,0 0,29 183,0z" />
<path style="fill:#ccccd9" d="M489,77 l0,-29 -148,0 0,29 148,0z" />
<path style="fill:#d8d8e5" d="M472,77 l0,-29 -113,0 0,29 113,0z" />
<path style="fill:#e5e5f2" d="M454,77 l0,-29 -78,0 0,29 78,0z" />
<path style="fill:#f2f2ff" d="M437,77 l0,-29 -44,0 0,29 44,0z" />
<path style="fill:none;stroke:#000;stroke-width:2" d="M612,77 l0,-29 -394,0 0,29 394,0" />
<path style="fill:#72727f" d="M508,48 l0,-21 -66,0 0,21 66,0z" />
<path style="fill:#7f7f8c" d="M504,48 l0,-21 -58,0 0,21 58,0z" />
<path style="fill:#8c8c99" d="M503,48 l0,-21 -55,0 0,21 55,0z" />
<path style="fill:#9999a6" d="M499,48 l0,-21 -47,0 0,21 47,0z" />
<path style="fill:#a5a5b2" d="M497,48 l0,-21 -43,0 0,21 43,0z" />
<path style="fill:#b2b2bf" d="M493,48 l0,-21 -36,0 0,21 36,0z" />
<path style="fill:#bfbfcc" d="M489,48 l0,-21 -30,0 0,21 30,0z" />
<path style="fill:#ccccd9" d="M487,48 l0,-21 -24,0 0,21 24,0z" />
<path style="fill:#d8d8e5" d="M484,48 l0,-21 -19,0 0,21 19,0z" />
<path style="fill:#e5e5f2" d="M482,48 l0,-21 -13,0 0,21 13,0z" />
<path style="fill:#f2f2ff" d="M478,48 l0,-21 -7,0 0,21 7,0z" />
<path style="fill:none;stroke:#000;stroke-width:2" d="M508,48 l0,-21 -66,0 0,21 66,0" />

</svg>
