 

<svg xmlns:agg="http://www.example.com" xmlns="http://www.w3.org/2000/svg" preserveAspectRatio="none" width="1.3543in" height="1.0750in" viewBox="0 0 999 793">

<path style="fill:#9cc" d="M129,478 l740,0 0,245 -740,0 0,-245z" />
<path style="fill:#94c7c7" d="M129,652 l370,-102 0,173 -370,0 0,-71z" />
<path style="fill:#94c7c7" d="M499,652 l370,-102 0,173 -370,0 0,-71z" />
<path style="fill:#8fc2c2" d="M499,663 l370,-104 0,164 -370,0 0,-60z" />
<path style="fill:#8fc2c2" d="M129,663 l370,-104 0,164 -370,0 0,-60z" />
<path style="fill:#8abdbd" d="M129,678 l370,-104 0,149 -370,0 0,-45z" />
<path style="fill:#8abdbd" d="M499,678 l370,-104 0,149 -370,0 0,-45z" />
<path style="fill:#366;stroke:#000;stroke-width:2" d="M490,129 l9,-20 6,0 39,-66 21,9 -40,68 0,4 -11,21 -24,-16z" />
<path style="fill:#366;stroke:#000;stroke-width:2" d="M141,273 l143,0 0,-164 21,-51 -21,-12 -11,21 -40,0 0,21 -20,11 -104,-71 -10,9 42,51 -12,11 -20,-20 -10,9 21,21 0,11 30,40 -9,11 0,102z" />
<path style="fill:#699" d="M192,186 l87,-87 11,-41 -11,15 -31,0 0,21 -35,20 -104,-77 83,83 -21,21 -62,-53 53,62 30,36z" />
<path style="fill:#699" d="M499,124 l6,-10 3,-5 42,-63 6,6 -36,62 0,10 -6,11 -15,-11z" />
<path style="fill:#4c4c4c;stroke:#000;stroke-width:2" d="M904,380 l6,36 -11,11 -10,-11 4,-36 11,0z" />
<path style="fill:#033" d="M213,273 l60,-164 369,20 42,144 0,143 -471,0 0,-143z" />
<path style="fill:#366" d="M776,145 l9,0 0,230 -9,0 0,-230z" />
<path style="fill:#366" d="M816,141 l0,9 -209,0 0,-9 209,0z" />
<path style="fill:#366" d="M150,723 l698,0 0,42 -698,0 0,-42z" />
<path style="fill:#9cc;stroke:#000;stroke-width:2" d="M129,273 l84,0 0,143 757,0 0,62 -841,0 0,-205z" />
<path style="fill:none;stroke:#000;stroke-width:2" d="M129,478 l740,0 0,245 -740,0 0,-245" />
<path style="fill:none;stroke:#366;stroke-width:2" d="M499,478 l0,245" />
<path style="fill:#699" d="M28,703 l0,-389 7,-19 15,-15 19,-7 62,0 -2,430 -101,0z" />
<path style="fill:#9cc" d="M33,703 l0,-385 8,-17 13,-15 17,-7 58,0 0,424 -96,0z" />
<path style="fill:none;stroke:#000;stroke-width:2" d="M28,703 l0,-389 7,-19 15,-15 19,-7 62,0 -2,430 -101,0" />
<path style="fill:none;stroke:#cff;stroke-width:2" d="M33,318 l8,-17 13,-15 17,-7" />
<path style="fill:#8fc2c2" d="M33,703 l0,-164 96,-40 0,204 -96,0z" />
<path style="fill:#033" d="M150,723 l698,0 0,16 -698,0 0,-16z" />
<path style="fill:none;stroke:#000;stroke-width:2" d="M150,723 l698,0 0,42 -698,0 0,-42" />
<path style="fill:#9cc;stroke:#000;stroke-width:2" d="M222,395 l0,-122 -72,0 0,-47 17,-49 30,-42 42,-30 49,-17 149,0 0,62 -19,21 -21,42 0,122 -21,21 -103,39 -51,0z" />
<path style="fill:none;stroke:#699;stroke-width:2" d="M765,473 l0,-51 122,0" />
<path style="fill:none;stroke:#cff;stroke-width:2" d="M889,422 l0,51 -122,0" />
<path style="fill:#9cc;stroke:#000;stroke-width:2" d="M499,375 l-21,-40 98,0 6,-11 -41,-174 184,21 40,164 20,21 104,0 0,19 -390,0z" />
<path style="fill:#9cc" d="M457,314 l0,-185 27,6 30,25 42,20 15,51 11,83 -125,0z" />
<path style="fill:#699;stroke:#000;stroke-width:2" d="M294,416 l103,-41 409,0 0,41 -512,0z" />
<path style="fill:#cff" d="M582,335 l4,-11 169,0 6,11 -179,0z" />
<path style="fill:#8fc2c2" d="M457,314 l0,-47 114,-36 11,83 -125,0z" />
<path style="fill:none;stroke:#000;stroke-width:2" d="M457,314 l0,-185 27,6 30,25 42,20 15,51 11,83 -125,0" />
<path style="fill:#9cc;stroke:#000;stroke-width:2" d="M448,416 l9,-30 0,-51 -39,0 0,51 9,30 21,0z" />
<path style="fill:#366" d="M427,356 l10,-11 11,11 -11,9 -10,-9z" />
<path style="fill:#366" d="M192,597 l-6,2 -28,-40 -4,-2 -4,-5 0,-6 4,-4 4,-3 5,0 6,3 2,4 0,6 21,45z" />
<ellipse style="fill:#699" cx="214" cy="189" rx="22" ry="24" />
<path style="fill:#366" d="M848,288 l0,11 -102,0 0,-11 102,0z" />
<path style="fill:none;stroke:#cff;stroke-width:2" d="M746,294 l102,0" />
<path style="fill:#366" d="M848,231 l41,0 0,125 -41,0 0,-125z" />
<path style="fill:#598c8c" d="M848,244 l41,0 0,99 -41,0 0,-99z" />
<path style="fill:#7fb2b2" d="M848,258 l41,0 0,71 -41,0 0,-71z" />
<path style="fill:#a6d9d9" d="M848,269 l41,0 0,47 -41,0 0,-47z" />
<path style="fill:#cff" d="M848,282 l41,0 0,21 -41,0 0,-21z" />
<path style="fill:none;stroke:#000;stroke-width:2" d="M848,231 l41,0 0,125 -41,0 0,-125" />
<path style="fill:#7f7f7f" d="M887,207 l21,0 0,173 -21,0 0,-173z" />
<path style="fill:#999" d="M889,224 l19,0 0,137 -19,0 0,-137z" />
<path style="fill:#b2b2b2" d="M889,243 l19,0 0,102 -19,0 0,-102z" />
<path style="fill:#ccc" d="M889,259 l19,0 0,66 -19,0 0,-66z" />
<path style="fill:#e5e5e5" d="M887,279 l21,0 0,30 -21,0 0,-30z" />
<path style="fill:none;stroke:#000;stroke-width:2" d="M887,207 l21,0 0,173 -21,0 0,-173" />
<path style="fill:#4c4c4c;stroke:#000;stroke-width:2" d="M893,207 l-4,-36 10,-11 9,11 -4,36 -11,0z" />
<path style="fill:#4c4c4c;stroke:#000;stroke-width:2" d="M899,303 l-10,-9 10,-10 9,10 -9,9z" />

</svg>
