 

<svg xmlns:agg="http://www.example.com" xmlns="http://www.w3.org/2000/svg" preserveAspectRatio="none" width="1.6083in" height="0.9434in" viewBox="0 0 999 586">

<path style="fill:#4c4c4c" d="M184,518 l630,0 0,30 -630,0 0,-30z" />
<path style="fill:#e5e5e5" d="M46,439 l0,-59 -18,-58 18,-276 906,0 18,276 -18,58 0,59 -138,0 0,79 -630,0 0,-79 -138,0z" />
<path style="fill:#ccc" d="M46,380 l-18,-58 942,0 -18,58 -906,0z" />
<path style="fill:none;stroke:#7f7f7f;stroke-width:2" d="M263,380 l-9,-58 9,-276" />
<path style="fill:#999" d="M363,65 l-11,257 11,58 272,0 11,-58 -11,-257 -272,0z" />
<path style="fill:#666" d="M352,322 l11,58 272,0 11,-58 -294,0z" />
<path style="fill:none;stroke:#000;stroke-width:2" d="M363,65 l-11,257 11,58 272,0 11,-58 -11,-257 -272,0" />
<path style="fill:#b2b2b2" d="M184,459 l0,-20 630,0 0,20 -630,0z" />
<path style="fill:none;stroke:#000;stroke-width:2" d="M46,439 l0,-59 -18,-58 18,-276 906,0 18,276 -18,58 0,59 -138,0 0,109 -630,0 0,-109 -138,0" />
<path style="fill:none;stroke:#000;stroke-width:2" d="M184,439 l630,0" />
<path style="fill:#000" d="M205,548 l19,0 0,10 -19,0 0,-10z" />
<path style="fill:#000" d="M774,548 l19,0 0,10 -19,0 0,-10z" />
<path style="fill:#000" d="M489,548 l20,0 0,10 -20,0 0,-10z" />
<path style="fill:#000" d="M343,548 l18,0 0,10 -18,0 0,-10z" />
<path style="fill:#000" d="M637,548 l18,0 0,10 -18,0 0,-10z" />
<path style="fill:none;stroke:#fff;stroke-width:2" d="M267,380 l-9,-58 9,-276" />
<path style="fill:#191919" d="M363,95 l227,0 0,31 -227,0 0,-31z" />
<path style="fill:#191919" d="M431,126 l34,0 0,77 -34,0 0,-77z" />
<path style="fill:#4c4c4c;stroke:#000;stroke-width:2" d="M386,322 l68,0 0,-147 -68,0 0,147z" />
<path style="fill:#4c4c4c;stroke:#000;stroke-width:2" d="M499,165 l102,0 0,38 -102,0 0,-38z" />
<path style="fill:#f2e5cc;stroke:#000;stroke-width:2" d="M442,203 l136,0 0,119 -136,0 0,-119z" />
<path style="fill:#b2ccff;stroke:#000;stroke-width:2" d="M408,282 l193,0 0,19 -193,0 0,-19z" />
<path style="fill:#b2ccff;stroke:#000;stroke-width:2" d="M363,243 l91,0 0,39 -91,0 0,-39z" />
<path style="fill:#b2ccff;stroke:#000;stroke-width:2" d="M590,65 l11,257 -11,58 45,0 11,-58 -11,-257 -45,0z" />
<path style="fill:#000" d="M612,322 l6,-10 0,-49 -6,-11 11,0 6,11 0,49 -6,10 -11,0z" />
<path style="fill:#666;stroke:#000;stroke-width:2" d="M655,37 l119,0 0,117 -119,0 0,-117z" />
<path style="fill:#666;stroke:#000;stroke-width:2" d="M695,488 l30,0 0,30 -30,0 0,-30z" />
<path style="fill:#4c4c4c;stroke:#000;stroke-width:2" d="M665,154 l30,0 0,373 -30,0 0,-373z" />
<path style="fill:#7f7f7f" d="M667,46 l68,0 0,59 -68,0 0,-59z" />
<path style="fill:#333;stroke:#000;stroke-width:2" d="M678,56 l46,0 0,39 -46,0 0,-39z" />
<path style="fill:#e5e5e5" d="M665,116 l6,0 0,4 -6,0 0,-4z" />
<path style="fill:#e5e5e5" d="M665,128 l6,0 0,5 -6,0 0,-5z" />
<path style="fill:#e5e5e5" d="M665,141 l6,0 0,3 -6,0 0,-3z" />
<path style="fill:#e5e5e5" d="M682,116 l4,0 0,4 -4,0 0,-4z" />
<path style="fill:#e5e5e5" d="M682,128 l4,0 0,5 -4,0 0,-5z" />
<path style="fill:#e5e5e5" d="M682,141 l4,0 0,3 -4,0 0,-3z" />
<path style="fill:#e5e5e5" d="M697,116 l6,0 0,4 -6,0 0,-4z" />
<path style="fill:#e5e5e5" d="M697,128 l6,0 0,5 -6,0 0,-5z" />
<path style="fill:#e5e5e5" d="M697,141 l6,0 0,3 -6,0 0,-3z" />
<path style="fill:#e5e5e5" d="M712,116 l6,0 0,4 -6,0 0,-4z" />
<path style="fill:#e5e5e5" d="M712,128 l6,0 0,5 -6,0 0,-5z" />
<path style="fill:#e5e5e5" d="M712,141 l6,0 0,3 -6,0 0,-3z" />
<path style="fill:#e5e5e5" d="M727,116 l6,0 0,4 -6,0 0,-4z" />
<path style="fill:#e5e5e5" d="M727,128 l6,0 0,5 -6,0 0,-5z" />
<path style="fill:#e5e5e5" d="M727,141 l6,0 0,3 -6,0 0,-3z" />
<path style="fill:#e5e5e5" d="M744,116 l4,0 0,4 -4,0 0,-4z" />
<path style="fill:#e5e5e5" d="M744,128 l4,0 0,5 -4,0 0,-5z" />
<path style="fill:#e5e5e5" d="M744,141 l4,0 0,3 -4,0 0,-3z" />
<path style="fill:#e5e5e5" d="M759,116 l4,0 0,4 -4,0 0,-4z" />
<path style="fill:#e5e5e5" d="M759,128 l4,0 0,5 -4,0 0,-5z" />
<path style="fill:#e5e5e5" d="M759,141 l4,0 0,3 -4,0 0,-3z" />
<path style="fill:#7f0000" d="M548,475 l30,0 0,18 -30,0 0,-18z" />
<path style="fill:#7f0000" d="M542,493 l40,0 0,19 -40,0 0,-19z" />
<path style="fill:#7f0000" d="M92,126 l52,0 0,18 -52,0 0,-18z" />
<path style="fill:#333;stroke:#000;stroke-width:2" d="M382,28 l234,0 0,18 -234,0 0,-18z" />

</svg>
