 

<svg xmlns:agg="http://www.example.com" xmlns="http://www.w3.org/2000/svg" preserveAspectRatio="none" width="0.6080in" height="1.0750in" viewBox="0 0 565 999">

<path style="fill:#666;stroke:#000;stroke-width:2" d="M69,650 l0,24 424,0 0,-22 -424,-2z" />
<path style="fill:#666;stroke:#000;stroke-width:2" d="M507,486 l-25,0 11,449 25,0 -11,-449z" />
<path style="fill:#666;stroke:#000;stroke-width:2" d="M58,486 l24,0 -13,449 -22,0 11,-449z" />
<path style="fill:#7f7f7f" d="M397,818 l-90,0 0,-244 26,0 0,-50 -102,0 0,50 25,0 0,244 -89,0 0,50 230,0 0,-50z" />
<path style="fill:#8c8c8c" d="M378,818 l-75,0 0,-244 23,0 0,-50 -87,0 0,50 21,0 0,244 -76,0 0,50 194,0 0,-50z" />
<path style="fill:#999" d="M361,818 l-62,0 0,-244 19,0 0,-50 -72,0 0,50 17,0 0,244 -62,0 0,50 160,0 0,-50z" />
<path style="fill:#a6a6a6" d="M345,818 l-50,0 0,-244 16,0 0,-50 -57,0 0,50 13,0 0,244 -49,0 0,50 127,0 0,-50z" />
<path style="fill:#b2b2b2" d="M328,818 l-36,0 0,-244 11,0 0,-50 -42,0 0,50 10,0 0,244 -36,0 0,50 93,0 0,-50z" />
<path style="fill:#bfbfbf" d="M311,818 l-23,0 0,-244 7,0 0,-50 -26,0 0,50 6,0 0,244 -23,0 0,50 59,0 0,-50z" />
<path style="fill:#ccc" d="M295,818 l-11,0 0,-244 4,0 0,-50 -11,0 0,50 1,0 0,244 -9,0 0,50 26,0 0,-50z" />
<path style="fill:none;stroke:#000;stroke-width:2" d="M397,818 l-90,0 0,-244 26,0 0,-50 -102,0 0,50 25,0 0,244 -89,0 0,50 230,0 0,-50" />
<path style="fill:#99948a;stroke:#000;stroke-width:2" d="M282,537 l-254,-51 509,0 -255,51z" />
<path style="fill:#e5e0d6" d="M537,103 l-509,0 0,383 509,0 0,-383z" />
<path style="fill:#f2ede3" d="M537,103 l-509,0 254,192 255,-192z" />
<path style="fill:#d9d4ca" d="M282,295 l-254,191 509,0 -255,-191z" />
<path style="fill:none;stroke:#000;stroke-width:2" d="M537,103 l-509,0 0,383 509,0 0,-383" />
<path style="fill:#72727f" d="M433,92 l0,-13 -303,0 0,13 303,0z" />
<path style="fill:#7f7f8c" d="M420,92 l0,-13 -277,0 0,13 277,0z" />
<path style="fill:#8c8c99" d="M407,92 l0,-13 -251,0 0,13 251,0z" />
<path style="fill:#9999a6" d="M394,92 l0,-13 -225,0 0,13 225,0z" />
<path style="fill:#a5a5b2" d="M380,92 l0,-13 -196,0 0,13 196,0z" />
<path style="fill:#b2b2bf" d="M367,92 l0,-13 -169,0 0,13 169,0z" />
<path style="fill:#bfbfcc" d="M352,92 l0,-13 -141,0 0,13 141,0z" />
<path style="fill:#ccccd9" d="M339,92 l0,-13 -115,0 0,13 115,0z" />
<path style="fill:#d8d8e5" d="M326,92 l0,-13 -89,0 0,13 89,0z" />
<path style="fill:#e5e5f2" d="M312,92 l0,-13 -60,0 0,13 60,0z" />
<path style="fill:#f2f2ff" d="M299,92 l0,-13 -34,0 0,13 34,0z" />
<path style="fill:none;stroke:#000;stroke-width:2" d="M433,92 l0,-13 -303,0 0,13 303,0" />
<path style="fill:#bfbfcc;stroke:#000;stroke-width:2" d="M524,92 l-485,0 0,11 485,0 0,-11z" />
<path style="fill:#333;stroke:#000;stroke-width:2" d="M384,818 l0,-129 -203,0 0,129 203,0z" />
<path style="fill:#999" d="M288,818 l0,-129 -13,0 0,129 13,0z" />
<path style="fill:#8c8c8c" d="M314,818 l0,-129 -13,0 0,129 13,0z" />
<path style="fill:#8c8c8c" d="M263,818 l0,-129 -13,0 0,129 13,0z" />
<path style="fill:#666" d="M212,818 l0,-129 -13,0 0,129 13,0z" />
<path style="fill:#7f7f7f" d="M237,818 l0,-129 -13,0 0,129 13,0z" />
<path style="fill:#4c4c4c" d="M186,818 l0,-129 -13,0 0,129 13,0z" />
<path style="fill:#666" d="M365,818 l0,-129 -13,0 0,129 13,0z" />
<path style="fill:#4c4c4c" d="M390,818 l0,-129 -13,0 0,129 13,0z" />
<path style="fill:#7f7f7f" d="M339,818 l0,-129 -13,0 0,129 13,0z" />
<path style="fill:#ccc;stroke:#000;stroke-width:2" d="M52,665 l0,24 460,0 0,-24 -460,0z" />
<path style="fill:#ccc;stroke:#000;stroke-width:2" d="M524,486 l-25,0 11,484 27,0 -13,-484z" />
<path style="fill:#ccc;stroke:#000;stroke-width:2" d="M39,486 l26,0 -13,484 -24,0 11,-484z" />
<path style="fill:#ccc;stroke:#000;stroke-width:2" d="M263,37 l10,-9 168,20 13,44 -19,0 -172,-55z" />
<path style="fill:#e5e5e5;stroke:#000;stroke-width:2" d="M429,82 l-15,-17 -28,-15 -38,-9 -45,-6 -47,0 -44,6 -39,9 -26,15 -16,17 298,0z" />

</svg>
