 

<svg xmlns:agg="http://www.example.com" xmlns="http://www.w3.org/2000/svg" preserveAspectRatio="none" width="1.0739in" height="1.0750in" viewBox="0 0 998 999">

<path style="fill:#9cc" d="M538,244 l0,-20 -44,0 0,-39 83,0 0,59 -39,0z" />
<path style="fill:#9cc" d="M455,102 l0,-20 299,0 0,-40 -339,0 0,60 40,0z" />
<path style="fill:#cff" d="M548,244 l0,-30 -54,0 0,-19 73,0 0,49 -19,0z" />
<path style="fill:#cff" d="M445,102 l0,-30 309,0 0,-20 -329,0 0,50 20,0z" />
<path style="fill:none;stroke:#fff;stroke-width:2" d="M435,97 l0,-35 319,0" />
<path style="fill:none;stroke:#fff;stroke-width:2" d="M558,239 l0,-34 -59,0" />
<path style="fill:none;stroke:#000;stroke-width:2" d="M538,244 l0,-20 -44,0 0,-39 83,0 0,59 -39,0" />
<path style="fill:none;stroke:#000;stroke-width:2" d="M455,102 l0,-20 299,0 0,-40 -339,0 0,60 40,0" />
<path style="fill:#7f7f7f" d="M577,244 l0,98 -39,0 0,-98 39,0z" />
<path style="fill:#7f7f7f" d="M499,42 l98,0 0,40 -98,0 0,-40z" />
<path style="fill:#999" d="M575,244 l0,98 -34,0 0,-98 34,0z" />
<path style="fill:#999" d="M499,45 l98,0 0,35 -98,0 0,-35z" />
<path style="fill:#b2b2b2" d="M571,244 l0,98 -27,0 0,-98 27,0z" />
<path style="fill:#b2b2b2" d="M499,49 l98,0 0,26 -98,0 0,-26z" />
<path style="fill:#ccc" d="M566,244 l0,98 -17,0 0,-98 17,0z" />
<path style="fill:#ccc" d="M499,53 l98,0 0,18 -98,0 0,-18z" />
<path style="fill:#e5e5e5" d="M564,244 l0,98 -12,0 0,-98 12,0z" />
<path style="fill:#e5e5e5" d="M499,57 l98,0 0,11 -98,0 0,-11z" />
<path style="fill:#fff" d="M561,244 l0,98 -6,0 0,-98 6,0z" />
<path style="fill:#fff" d="M499,60 l98,0 0,4 -98,0 0,-4z" />
<path style="fill:#033" d="M185,965 l648,0 0,6 -648,0 0,-6z" />
<path style="fill:#033" d="M62,322 l432,0 0,20 -432,0 0,-20z" />
<path style="fill:#699" d="M62,322 l0,-235 432,0 0,235 -432,0z" />
<path style="fill:#699" d="M42,342 l0,-275 20,0 0,275 -20,0z" />
<path style="fill:#78abab" d="M62,306 l0,-203 432,0 0,203 -432,0z" />
<path style="fill:#78abab" d="M42,323 l0,-237 20,0 0,237 -20,0z" />
<path style="fill:#87baba" d="M62,290 l0,-171 432,0 0,171 -432,0z" />
<path style="fill:#87baba" d="M42,304 l0,-199 20,0 0,199 -20,0z" />
<path style="fill:#9cc" d="M62,273 l0,-137 432,0 0,137 -432,0z" />
<path style="fill:#9cc" d="M42,285 l0,-161 20,0 0,161 -20,0z" />
<path style="fill:#abdede" d="M62,257 l0,-105 432,0 0,105 -432,0z" />
<path style="fill:#abdede" d="M42,266 l0,-123 20,0 0,123 -20,0z" />
<path style="fill:#baeded" d="M62,241 l0,-73 432,0 0,73 -432,0z" />
<path style="fill:#baeded" d="M42,247 l0,-85 20,0 0,85 -20,0z" />
<path style="fill:#cff" d="M62,224 l0,-39 432,0 0,39 -432,0z" />
<path style="fill:#cff" d="M42,228 l0,-46 20,0 0,46 -20,0z" />
<path style="fill:#78abab" d="M860,970 l-54,0 -47,-11 -28,-18 0,-885 28,-18 47,-11 54,0 48,11 27,18 0,885 -27,18 -48,11z" />
<path style="fill:#87baba" d="M856,970 l-45,0 -40,-11 -23,-18 0,-885 23,-18 40,-11 45,0 39,11 23,18 0,885 -23,18 -39,11z" />
<path style="fill:#9cc" d="M852,970 l-38,0 -31,-11 -19,-18 0,-885 19,-18 31,-11 38,0 31,11 19,18 0,885 -19,18 -31,11z" />
<path style="fill:#abdede" d="M847,970 l-28,0 -24,-11 -14,-18 0,-885 14,-18 24,-11 28,0 25,11 14,18 0,885 -14,18 -25,11z" />
<path style="fill:#baeded" d="M843,970 l-20,0 -16,-11 -10,-18 0,-885 10,-18 16,-11 20,0 16,11 10,18 0,885 -10,18 -16,11z" />
<path style="fill:#baeded" d="M803,342 l-776,0 0,275 158,118 0,216 589,0 0,-412 29,0 0,-197z" />
<path style="fill:#b5e8e8" d="M106,676 l79,59 0,216 589,0 0,-412 29,0 0,-99 -697,236z" />
<path style="fill:#b0e3e3" d="M145,706 l40,29 0,216 589,0 0,-412 29,0 0,-50 -658,217z" />
<path style="fill:#abdede" d="M185,735 l0,230 589,0 0,-426 -589,196z" />
<path style="fill:none;stroke:#699;stroke-width:2" d="M774,965 l0,-426 29,0" />
<path style="fill:#699" d="M695,106 l275,0 0,20 -275,0 0,-20z" />
<path style="fill:#78abab" d="M715,106 l236,0 0,19 -236,0 0,-19z" />
<path style="fill:#87baba" d="M733,106 l200,0 0,19 -200,0 0,-19z" />
<path style="fill:#9cc" d="M752,106 l161,0 0,19 -161,0 0,-19z" />
<path style="fill:#abdede" d="M772,106 l122,0 0,19 -122,0 0,-19z" />
<path style="fill:#baeded" d="M790,106 l85,0 0,19 -85,0 0,-19z" />
<path style="fill:#cff" d="M810,106 l46,0 0,20 -46,0 0,-20z" />
<path style="fill:none;stroke:#366;stroke-width:2" d="M833,146 l-10,-10 10,-10 10,10 -10,10" />
<path style="fill:none;stroke:#366;stroke-width:2" d="M833,145 l0,60" />
<path style="fill:none;stroke:#366;stroke-width:2" d="M842,175 l-10,-10 10,-10 10,10 -10,10" />
<path style="fill:none;stroke:#366;stroke-width:2" d="M779,715 l167,0" />
<path style="fill:none;stroke:#cff;stroke-width:2" d="M779,720 l167,0" />
<path style="fill:none;stroke:#000;stroke-width:2" d="M695,106 l275,0 0,20 -275,0 0,-20" />
<path style="fill:none;stroke:#000;stroke-width:2" d="M803,342 l-776,0 0,275 158,118 0,230 589,0" />
<circle style="fill:#9cc" cx="184" cy="460" r="78" />
<path style="fill:#fff" d="M690,357 l103,0 0,29 -103,0 0,-29z" />
<path style="fill:#fff" d="M504,784 l73,0 0,29 -73,0 0,-29z" />
<path style="fill:#fff" d="M913,180 l33,0 0,23 -33,0 0,-23z" />
<path style="fill:#000" d="M543,787 l32,0 0,23 -32,0 0,-23z" />
<path style="fill:none;stroke:#000;stroke-width:2" d="M513,794 l18,0" />
<path style="fill:none;stroke:#000;stroke-width:2" d="M62,86 l432,0 0,236 -432,0 0,-236" />
<path style="fill:none;stroke:#000;stroke-width:2" d="M42,67 l20,0 0,275 -20,0 0,-275" />
<path style="fill:#cff" d="M342,205 l14,0 0,137 -14,0 0,-137z" />
<path style="fill:none;stroke:#366;stroke-width:2" d="M342,205 l0,137 14,0 0,-137" />
<path style="fill:none;stroke:#000;stroke-width:2" d="M577,244 l0,98 -39,0 0,-98 39,0" />
<path style="fill:none;stroke:#000;stroke-width:2" d="M499,42 l98,0 0,40 -98,0 0,-40" />
<path style="fill:#9cc" d="M597,28 l0,69 20,0 0,-69 -20,0z" />
<path style="fill:#b2e5e5" d="M597,38 l0,48 20,0 0,-48 -20,0z" />
<path style="fill:#cff" d="M597,48 l0,29 20,0 0,-29 -20,0z" />
<path style="fill:#fff" d="M597,58 l0,9 20,0 0,-9 -20,0z" />
<path style="fill:none;stroke:#000;stroke-width:2" d="M597,28 l0,69 20,0 0,-69 -20,0" />
<path style="fill:none;stroke:#366;stroke-width:2" d="M607,97 l0,-69" />
<path style="fill:#e5e5e5" d="M213,258 l-20,-33 20,-35 40,0 20,35 -20,33 -40,0z" />
<path style="fill:#7f7f7f" d="M736,710 l33,0 0,23 -33,0 0,-23z" />

</svg>
