 

<svg xmlns:agg="http://www.example.com" xmlns="http://www.w3.org/2000/svg" preserveAspectRatio="none" width="1.3716in" height="1.0750in" viewBox="0 0 999 783">

<path style="fill:#00f;stroke:#000;stroke-width:2" d="M75,712 l6,6 0,37 -6,-6 0,-37z" />
<path style="fill:#00f;stroke:#000;stroke-width:2" d="M923,670 l-889,0 0,38 889,0 0,-38z" />
<path style="fill:#00f;stroke:#000;stroke-width:2" d="M34,670 l-6,-6 0,37 6,7 0,-38z" />
<path style="fill:#00f;stroke:#000;stroke-width:2" d="M970,718 l-889,0 0,37 889,0 0,-37z" />
<path style="fill:#0000ad;stroke:#000;stroke-width:2" d="M970,718 l-889,0 -53,-54 889,0 53,54z" />
<path style="fill:#0000bf" d="M629,139 l-236,0 0,552 236,0 0,-552z" />
<path style="fill:#0000c9" d="M621,139 l-199,0 0,552 199,0 0,-552z" />
<path style="fill:#0000d4" d="M611,139 l-160,0 0,552 160,0 0,-552z" />
<path style="fill:#1f1fde" d="M603,139 l-126,0 0,552 126,0 0,-552z" />
<path style="fill:#4040eb" d="M594,139 l-88,0 0,552 88,0 0,-552z" />
<path style="fill:#6161f5" d="M586,139 l-51,0 0,552 51,0 0,-552z" />
<path style="fill:#7f7fff" d="M578,139 l-14,0 0,552 14,0 0,-552z" />
<path style="fill:none;stroke:#000;stroke-width:2" d="M629,139 l-236,0 0,552 236,0 0,-552" />
<path style="fill:#0000bf" d="M332,442 l-99,0 0,231 99,0 0,-231z" />
<path style="fill:#0000c9" d="M328,442 l-83,0 0,231 83,0 0,-231z" />
<path style="fill:#0000d4" d="M323,442 l-67,0 0,231 67,0 0,-231z" />
<path style="fill:#1f1fde" d="M319,442 l-51,0 0,231 51,0 0,-231z" />
<path style="fill:#4040eb" d="M317,442 l-37,0 0,231 37,0 0,-231z" />
<path style="fill:#6161f5" d="M313,442 l-23,0 0,231 23,0 0,-231z" />
<path style="fill:#7f7fff" d="M309,442 l-6,0 0,231 6,0 0,-231z" />
<path style="fill:none;stroke:#000;stroke-width:2" d="M332,442 l-99,0 0,231 99,0 0,-231" />
<path style="fill:#0000ad;stroke:#7f7f7f;stroke-width:2" d="M332,445 l-15,2 -70,0 -10,-2 -4,0 0,-4 8,-4 12,-5 9,0 10,-2 21,0 8,2 8,0 8,2 11,4 4,7z" />
<path style="fill:#8282a1" d="M361,34 l-157,0 0,355 58,48 39,0 60,-48 0,-355z" />
<path style="fill:#8a8cab" d="M358,34 l-139,0 0,355 47,48 35,0 57,-48 0,-355z" />
<path style="fill:#8f96b5" d="M354,34 l-121,0 0,355 35,48 31,0 55,-48 0,-355z" />
<path style="fill:#96a0bf" d="M352,34 l-105,0 0,355 23,48 27,0 55,-48 0,-355z" />
<path style="fill:#9baac9" d="M350,34 l-90,0 0,355 12,48 23,0 55,-48 0,-355z" />
<path style="fill:#a6b7d6" d="M348,34 l-74,0 0,355 0,48 19,0 55,-48 0,-355z" />
<path style="fill:#aac1e0" d="M346,34 l-57,0 0,355 -13,48 14,0 56,-48 0,-355z" />
<path style="fill:#b3cceb" d="M344,34 l-41,0 0,355 -25,48 12,0 54,-48 0,-355z" />
<path style="fill:#b8d6f5" d="M342,34 l-25,0 0,355 -37,48 9,0 53,-48 0,-355z" />
<path style="fill:#bfe0ff" d="M340,34 l-8,0 0,355 -50,48 4,0 54,-48 0,-355z" />
<path style="fill:none;stroke:#000;stroke-width:2" d="M361,34 l-157,0 0,355 58,48 39,0 60,-48 0,-355" />
<path style="fill:#66f;stroke:#000;stroke-width:2" d="M204,389 l6,2 17,2 25,2 30,0 31,0 25,-2 16,-2 7,-2 0,-6 -7,2 -16,2 -25,0 -31,2 -30,-2 -25,0 -17,-2 -6,-2 0,6z" />
<ellipse style="fill:#70707f;stroke:#000;stroke-width:2" cx="282" cy="33" rx="78" ry="5" />
<ellipse style="fill:#000;stroke:#000;stroke-width:2" cx="282" cy="436" rx="20" ry="2" />
<path style="fill:#00f;stroke:#000;stroke-width:2" d="M381,57 l-19,0 0,642 19,0 0,-642z" />
<path style="fill:#b2b2b2;stroke:#7f7f7f;stroke-width:2" d="M319,586 l-22,4 -19,13 -12,18 -6,23 6,22 16,23 83,-80 -25,-19 -21,-4z" />
<ellipse style="fill:#b2b2b2;stroke:#7f7f7f;stroke-width:2" cx="323" cy="649" rx="57" ry="59" />
<circle style="fill:#b2b2b2;stroke:#7f7f7f;stroke-width:2" cx="323" cy="649" r="41" />
<ellipse style="fill:#b2b2b2;stroke:#7f7f7f;stroke-width:2" cx="323" cy="649" rx="24" ry="26" />
<path style="fill:#b2b2b2;stroke:#7f7f7f;stroke-width:2" d="M323,642 l-4,2 -4,6 4,4 4,2 6,-2 3,-4 -3,-6 -6,-2z" />
<path style="fill:#f0f0f0" d="M940,475 l-255,0 0,238 255,0 0,-238z" />
<path style="fill:#e5e5e5" d="M685,494 l255,193 0,26 -255,0 0,-219z" />
<path style="fill:#e0e0e0" d="M685,582 l174,131 -174,0 0,-131z" />
<path style="fill:#ccc" d="M685,646 l88,67 -88,0 0,-67z" />
<path style="fill:none;stroke:#000;stroke-width:2" d="M940,475 l-255,0 0,238 255,0 0,-238" />
<path style="fill:#e0e0e0;stroke:#000;stroke-width:2" d="M642,430 l43,45 0,238 -43,-44 0,-239z" />
<path style="fill:#f0f0f0;stroke:#000;stroke-width:2" d="M940,475 l-255,0 -43,-45 252,0 46,45z" />
<path style="fill:#000;stroke:#000;stroke-width:2" d="M909,502 l-11,4 -4,11 4,10 11,2 10,-2 4,-10 -4,-11 -10,-4z" />
<path style="fill:#000;stroke:#000;stroke-width:2" d="M847,502 l-10,4 -4,11 4,10 10,2 10,-2 4,-10 -4,-11 -10,-4z" />
<path style="fill:#000;stroke:#000;stroke-width:2" d="M784,502 l-11,4 -4,11 4,10 11,2 8,-2 4,-10 -4,-11 -8,-4z" />
<path style="fill:#000;stroke:#000;stroke-width:2" d="M718,502 l10,4 4,11 -4,10 -10,2 -9,-2 -4,-10 4,-11 9,-4z" />
<path style="fill:#000;stroke:#000;stroke-width:2" d="M835,644 l8,4 4,10 -4,8 -8,4 -10,-4 -4,-8 4,-10 10,-4z" />
<path style="fill:#000;stroke:#000;stroke-width:2" d="M788,644 l10,4 4,10 -4,8 -10,4 -11,-4 -2,-8 2,-10 11,-4z" />
<path style="fill:#f00" d="M835,648 l6,2 4,8 -4,6 -6,5 -8,-5 -2,-6 2,-8 8,-2z" />
<path style="fill:#0f0" d="M788,648 l8,2 2,8 -2,6 -8,5 -7,-5 -4,-6 4,-8 7,-2z" />
<path style="fill:#e0e0e0" d="M905,506 l-4,2 12,19 2,-2 -10,-19z" />
<path style="fill:#e0e0e0" d="M843,506 l-4,2 12,19 2,-2 -10,-19z" />
<path style="fill:#e0e0e0" d="M779,506 l-4,2 13,19 1,-2 -10,-19z" />
<path style="fill:#e0e0e0" d="M724,506 l2,2 -13,19 -1,-2 12,-19z" />
<path style="fill:#000" d="M843,561 l-62,0 8,36 42,0 12,-36z" />
<path style="fill:#fff;stroke:#000;stroke-width:2" d="M839,564 l-54,0 4,20 42,0 8,-20z" />
<path style="fill:none;stroke:#000;stroke-width:2" d="M806,570 l6,14" />
<path style="fill:none;stroke:#000;stroke-width:2" d="M835,566 l0,4" />
<path style="fill:none;stroke:#000;stroke-width:2" d="M829,566 l0,4" />
<path style="fill:none;stroke:#000;stroke-width:2" d="M822,566 l0,4" />
<path style="fill:none;stroke:#000;stroke-width:2" d="M816,566 l0,4" />
<path style="fill:none;stroke:#000;stroke-width:2" d="M812,566 l0,4" />
<path style="fill:none;stroke:#000;stroke-width:2" d="M806,566 l0,4" />
<path style="fill:none;stroke:#000;stroke-width:2" d="M800,566 l0,4" />
<path style="fill:none;stroke:#000;stroke-width:2" d="M794,566 l0,4" />
<path style="fill:none;stroke:#000;stroke-width:2" d="M788,566 l0,4" />
<path style="fill:#0000e0;stroke:#000;stroke-width:2" d="M186,299 l-29,0 0,388 29,0 0,-388z" />
<path style="fill:#0000e0;stroke:#000;stroke-width:2" d="M87,325 l-2,7 0,55 4,8 1,2 6,2 37,0 8,-4 1,-1 1,-7 0,-62 14,0 0,91 -86,0 0,-91 16,0z" />

</svg>
