 

<svg xmlns:agg="http://www.example.com" xmlns="http://www.w3.org/2000/svg" preserveAspectRatio="none" width="0.7317in" height="1.0750in" viewBox="0 0 680 999">

<path style="fill:#ccbfa6" d="M572,971 l0,-31 61,0 0,31 -61,0z" />
<path style="fill:#ccbfa6" d="M226,971 l0,-31 58,0 0,31 -58,0z" />
<path style="fill:#ccbfa6" d="M46,971 l0,-31 61,0 0,31 -61,0z" />
<path style="fill:#e5d8bf" d="M582,971 l0,-31 40,0 0,31 -40,0z" />
<path style="fill:#e5d8bf" d="M235,971 l0,-31 40,0 0,31 -40,0z" />
<path style="fill:#e5d8bf" d="M56,971 l0,-31 40,0 0,31 -40,0z" />
<path style="fill:#f2e5cc" d="M71,971 l0,-31 9,0 0,31 -9,0z" />
<path style="fill:#f2e5cc" d="M250,971 l0,-31 9,0 0,31 -9,0z" />
<path style="fill:#f2e5cc" d="M597,971 l0,-31 9,0 0,31 -9,0z" />
<path style="fill:#f2e5cc;stroke:#000;stroke-width:2" d="M637,137 l15,0 0,128 -15,0 0,-128z" />
<path style="fill:#b2b2b2;stroke:#000;stroke-width:2" d="M229,256 l0,-49 398,0 0,49 -398,0z" />
<path style="fill:#999;stroke:#000;stroke-width:2" d="M229,207 l0,-12 398,0 0,12 -398,0z" />
<path style="fill:#000;stroke:#000;stroke-width:2" d="M37,871 l168,0 0,69 -168,0 0,-69z" />
<path style="fill:#f2e5cc" d="M205,265 l447,0 0,675 -447,0 0,-675z" />
<path style="fill:#ede0c7" d="M205,744 l447,-281 0,477 -447,0 0,-196z" />
<path style="fill:#e8dbc2" d="M205,772 l447,-281 0,449 -447,0 0,-168z" />
<path style="fill:#e3d6bd" d="M205,816 l447,-283 0,407 -447,0 0,-124z" />
<path style="fill:#f2e5cc" d="M37,167 l158,0 0,715 -158,0 0,-715z" />
<path style="fill:#ede0c7" d="M37,575 l158,-100 0,167 -158,0 0,-67z" />
<path style="fill:#e8dbc2" d="M37,584 l158,-100 0,158 -158,0 0,-58z" />
<path style="fill:#e3d6bd" d="M37,599 l158,-100 0,383 -158,0 0,-283z" />
<path style="fill:none;stroke:#000;stroke-width:2" d="M37,167 l158,0 0,715 -158,0 0,-715" />
<path style="fill:none;stroke:#f2e5cc;stroke-width:2" d="M195,882 l0,58" />
<path style="fill:#ccc" d="M56,265 l119,0 0,179 -119,0 0,-179z" />
<path style="fill:#c7c7c7" d="M56,393 l119,-75 0,126 -119,0 0,-51z" />
<path style="fill:#c2c2c2" d="M56,401 l119,-75 0,118 -119,0 0,-43z" />
<path style="fill:#bdbdbd" d="M56,410 l119,-73 0,107 -119,0 0,-34z" />
<path style="fill:none;stroke:#000;stroke-width:2" d="M56,265 l119,0 0,179 -119,0 0,-179" />
<path style="fill:#7f7f7f" d="M56,493 l119,0 0,51 -119,0 0,-51z" />
<path style="fill:none;stroke:#998c73;stroke-width:2" d="M444,563 l0,377" />
<path style="fill:none;stroke:#f2e5cc;stroke-width:2" d="M448,563 l0,377" />
<path style="fill:#369" d="M205,584 l447,0 0,9 -447,0 0,-9z" />
<path style="fill:#369" d="M205,603 l447,0 0,20 -447,0 0,-20z" />
<path style="fill:#369" d="M37,584 l158,0 0,9 -158,0 0,-9z" />
<path style="fill:#369" d="M37,603 l158,0 0,20 -158,0 0,-20z" />
<path style="fill:none;stroke:#000;stroke-width:2" d="M205,265 l447,0 0,675 -447,0 0,-675" />
<path style="fill:#d9ccb3;stroke:#000;stroke-width:2" d="M195,167 l10,0 0,704 -10,0 0,-704z" />
<path style="fill:#d9ccb3;stroke:#000;stroke-width:2" d="M27,167 l10,0 0,704 -10,0 0,-704z" />
<path style="fill:#ccc" d="M284,265 l288,0 0,298 -288,0 0,-298z" />
<path style="fill:#b2b2b2" d="M572,559 l-20,-15 0,-279 20,0 0,294z" />
<path style="fill:#b2b2b2" d="M284,559 l21,-15 0,-279 -21,0 0,294z" />
<path style="fill:#e5e5e5" d="M284,559 l21,-15 247,0 20,15 -288,0z" />
<path style="fill:none;stroke:#ccbfa6;stroke-width:2" d="M211,557 l69,0 0,-67" />
<path style="fill:none;stroke:#ccbfa6;stroke-width:2" d="M578,557 l68,0 0,-67" />
<path style="fill:none;stroke:#fff;stroke-width:2" d="M578,557 l0,-67 68,0" />
<path style="fill:none;stroke:#fff;stroke-width:2" d="M211,557 l0,-67 69,0" />
<path style="fill:#7f7f7f" d="M269,493 l6,0 0,6 -6,0 0,-6z" />
<path style="fill:#7f7f7f" d="M214,493 l6,0 0,6 -6,0 0,-6z" />
<path style="fill:#7f7f7f" d="M214,548 l6,0 0,6 -6,0 0,-6z" />
<path style="fill:#7f7f7f" d="M269,548 l6,0 0,6 -6,0 0,-6z" />
<path style="fill:#7f7f7f" d="M637,493 l5,0 0,6 -5,0 0,-6z" />
<path style="fill:#7f7f7f" d="M582,493 l6,0 0,6 -6,0 0,-6z" />
<path style="fill:#7f7f7f" d="M582,548 l6,0 0,6 -6,0 0,-6z" />
<path style="fill:#7f7f7f" d="M637,548 l5,0 0,6 -5,0 0,-6z" />
<path style="fill:#7f7f7f" d="M433,569 l6,0 0,3 -6,0 0,-3z" />
<path style="fill:#7f7f7f" d="M448,569 l6,0 0,3 -6,0 0,-3z" />
<path style="fill:#7f7f7f" d="M433,737 l6,0 0,5 -6,0 0,-5z" />
<path style="fill:#7f7f7f" d="M448,737 l6,0 0,5 -6,0 0,-5z" />
<path style="fill:#7f7f7f" d="M433,931 l6,0 0,4 -6,0 0,-4z" />
<path style="fill:#7f7f7f" d="M448,931 l6,0 0,4 -6,0 0,-4z" />
<path style="fill:none;stroke:#000;stroke-width:2" d="M284,265 l288,0 0,298 -288,0 0,-298" />
<path style="fill:#000" d="M284,559 l288,0 0,4 -288,0 0,-4z" />
<path style="fill:#f2e5cc;stroke:#000;stroke-width:2" d="M588,207 l54,0 0,58 -54,0 0,-58z" />
<path style="fill:#f2e5cc;stroke:#000;stroke-width:2" d="M214,207 l57,0 0,58 -57,0 0,-58z" />
<path style="fill:#999;stroke:#000;stroke-width:2" d="M563,137 l9,0 0,422 -9,0 0,-422z" />
<path style="fill:#999;stroke:#000;stroke-width:2" d="M284,137 l11,0 0,422 -11,0 0,-422z" />
<path style="fill:#666;stroke:#000;stroke-width:2" d="M295,146 l0,-9 268,0 0,9 -268,0z" />
<path style="fill:#7f7f7f" d="M472,505 l-39,0 0,39 -70,0 0,10 179,0 0,-10 -70,0 0,-39z" />
<path style="fill:#7f7f7f" d="M539,399 l-170,0 0,11 -6,0 0,16 179,0 0,-16 -3,0 0,-11z" />
<path style="fill:#7f7f7f" d="M429,350 l49,0 0,-55 6,0 0,-39 -61,0 0,39 6,0 0,55z" />
<path style="fill:#8c8c8c" d="M472,503 l-37,0 0,39 -62,0 0,12 162,0 0,-12 -63,0 0,-39z" />
<path style="fill:#8c8c8c" d="M531,399 l-155,0 0,11 -3,0 0,13 162,0 0,-13 -4,0 0,-11z" />
<path style="fill:#8c8c8c" d="M431,350 l45,0 0,-55 6,0 0,-39 -55,0 0,39 4,0 0,55z" />
<path style="fill:#999" d="M471,503 l-34,0 0,39 -57,0 0,12 147,0 0,-12 -56,0 0,-39z" />
<path style="fill:#999" d="M523,399 l-139,0 0,11 -4,0 0,13 147,0 0,-13 -4,0 0,-11z" />
<path style="fill:#999" d="M433,350 l42,0 0,-55 3,0 0,-39 -49,0 0,39 4,0 0,55z" />
<path style="fill:#a6a6a6" d="M469,503 l-30,0 0,39 -51,0 0,12 132,0 0,-12 -51,0 0,-39z" />
<path style="fill:#a6a6a6" d="M516,399 l-124,0 0,11 -4,0 0,13 132,0 0,-13 -4,0 0,-11z" />
<path style="fill:#a6a6a6" d="M435,350 l37,0 0,-55 4,0 0,-39 -45,0 0,39 4,0 0,55z" />
<path style="fill:#b2b2b2" d="M467,503 l-26,0 0,39 -46,0 0,12 117,0 0,-12 -45,0 0,-39z" />
<path style="fill:#b2b2b2" d="M508,399 l-109,0 0,11 -4,0 0,13 117,0 0,-13 -4,0 0,-11z" />
<path style="fill:#b2b2b2" d="M439,350 l32,0 0,-55 1,0 0,-39 -37,0 0,39 4,0 0,55z" />
<path style="fill:#bfbfbf" d="M465,503 l-23,0 0,39 -37,0 0,12 98,0 0,-12 -38,0 0,-39z" />
<path style="fill:#bfbfbf" d="M501,399 l-94,0 0,11 -2,0 0,13 98,0 0,-13 -2,0 0,-11z" />
<path style="fill:#bfbfbf" d="M441,350 l26,0 0,-55 4,0 0,-39 -34,0 0,39 4,0 0,55z" />
<path style="fill:#ccc" d="M463,503 l-19,0 0,39 -32,0 0,12 83,0 0,-12 -32,0 0,-39z" />
<path style="fill:#ccc" d="M493,399 l-79,0 0,11 -2,0 0,13 83,0 0,-13 -2,0 0,-11z" />
<path style="fill:#ccc" d="M442,350 l23,0 0,-55 2,0 0,-39 -26,0 0,39 1,0 0,55z" />
<path style="fill:#d9d9d9" d="M461,503 l-15,0 0,39 -26,0 0,12 68,0 0,-12 -27,0 0,-39z" />
<path style="fill:#d9d9d9" d="M486,399 l-64,0 0,11 -2,0 0,13 68,0 0,-13 -2,0 0,-11z" />
<path style="fill:#d9d9d9" d="M444,350 l19,0 0,-55 2,0 0,-39 -23,0 0,39 2,0 0,55z" />
<path style="fill:#e5e5e5" d="M459,503 l-11,0 0,39 -21,0 0,12 53,0 0,-12 -21,0 0,-39z" />
<path style="fill:#e5e5e5" d="M478,399 l-49,0 0,11 -2,0 0,13 53,0 0,-13 -2,0 0,-11z" />
<path style="fill:#e5e5e5" d="M446,350 l15,0 0,-55 2,0 0,-39 -17,0 0,39 0,55z" />
<path style="fill:#f2f2f2" d="M457,503 l-7,0 0,39 -13,0 0,12 35,0 0,-12 -15,0 0,-39z" />
<path style="fill:#f2f2f2" d="M471,399 l-34,0 0,11 0,13 35,0 0,-13 -1,0 0,-11z" />
<path style="fill:#f2f2f2" d="M448,350 l11,0 0,-55 0,-39 -11,0 0,39 0,55z" />
<path style="fill:#fff" d="M456,505 l-4,0 0,39 -8,0 0,10 19,0 0,-10 -7,0 0,-39z" />
<path style="fill:#fff" d="M463,399 l-19,0 0,11 0,16 19,0 0,-16 0,-11z" />
<path style="fill:#fff" d="M450,350 l6,0 0,-55 1,0 0,-39 -7,0 0,39 0,55z" />
<path style="fill:none;stroke:#7f7f7f;stroke-width:2" d="M429,295 l49,0" />
<path style="fill:none;stroke:#7f7f7f;stroke-width:2" d="M369,410 l170,0" />
<path style="fill:none;stroke:#7f7f7f;stroke-width:2" d="M433,544 l39,0" />
<path style="fill:none;stroke:#000;stroke-width:2" d="M472,505 l-39,0 0,39 -70,0 0,10 179,0 0,-10 -70,0 0,-39" />
<path style="fill:none;stroke:#000;stroke-width:2" d="M539,399 l-170,0 0,11 -6,0 0,16 179,0 0,-16 -3,0 0,-11" />
<path style="fill:none;stroke:#000;stroke-width:2" d="M429,350 l49,0 0,-55 6,0 0,-39 -61,0 0,39 6,0 0,55" />
<path style="fill:#e5e5e5;stroke:#000;stroke-width:2" d="M429,350 l4,0 0,40 -4,0 0,-40z" />
<path style="fill:#e5e5e5;stroke:#000;stroke-width:2" d="M444,350 l4,0 0,40 -4,0 0,-40z" />
<path style="fill:#e5e5e5;stroke:#000;stroke-width:2" d="M457,350 l6,0 0,40 -6,0 0,-40z" />
<path style="fill:#e5e5e5;stroke:#000;stroke-width:2" d="M472,350 l6,0 0,40 -6,0 0,-40z" />
<path style="fill:#b2b2b2;stroke:#000;stroke-width:2" d="M469,390 l15,0 0,9 -15,0 0,-9z" />
<path style="fill:#b2b2b2;stroke:#000;stroke-width:2" d="M454,390 l15,0 0,9 -15,0 0,-9z" />
<path style="fill:#b2b2b2;stroke:#000;stroke-width:2" d="M439,390 l15,0 0,9 -15,0 0,-9z" />
<path style="fill:#b2b2b2;stroke:#000;stroke-width:2" d="M423,390 l16,0 0,9 -16,0 0,-9z" />
<path style="fill:#b2b2b2;stroke:#000;stroke-width:2" d="M423,195 l10,-49 39,0 12,49 -61,0z" />
<path style="fill:#999" d="M433,137 l0,-110 39,0 0,110 -39,0z" />
<path style="fill:#666" d="M439,137 l0,-110 3,0 0,110 -3,0z" />
<path style="fill:#666" d="M463,137 l0,-110 6,0 0,110 -6,0z" />
<path style="fill:#333" d="M444,137 l0,-110 19,0 0,110 -19,0z" />
<path style="fill:none;stroke:#000;stroke-width:2" d="M433,137 l0,-110 39,0 0,110 -39,0" />
<path style="fill:#999" d="M295,67 l0,277 268,0 0,-277 -258,0 0,10 247,0 0,258 -247,0 0,-268 -10,0z" />
<path style="fill:none;stroke:#000;stroke-width:2" d="M295,67 l268,0 0,277 -268,0 0,-277" />
<path style="fill:none;stroke:#000;stroke-width:2" d="M305,77 l247,0 0,258 -247,0 0,-258" />
<path style="fill:none;stroke:#000;stroke-width:2" d="M226,971 l0,-31 58,0 0,31 -58,0" />
<path style="fill:none;stroke:#000;stroke-width:2" d="M46,971 l0,-31 61,0 0,31 -61,0" />
<path style="fill:none;stroke:#000;stroke-width:2" d="M572,971 l0,-31 61,0 0,31 -61,0" />
<path style="fill:#333" d="M299,642 l51,0 0,15 -51,0 0,-15z" />
<path style="fill:#333" d="M522,642 l50,0 0,15 -50,0 0,-15z" />
<path style="fill:#333" d="M65,326 l81,0 0,69 -81,0 0,-69z" />
<path style="fill:#333" d="M65,276 l81,0 0,40 -81,0 0,-40z" />

</svg>
