 

<svg xmlns:agg="http://www.example.com" xmlns="http://www.w3.org/2000/svg" preserveAspectRatio="none" width="0.8329in" height="1.0750in" viewBox="0 0 774 999">

<path style="fill:#595900" d="M243,707 l175,0 0,131 -175,0 0,-131z" />
<path style="fill:#b2b219;stroke:#000;stroke-width:2" d="M286,28 l87,0 0,899 -87,0 0,-899z" />
<path style="fill:#7f7f00;stroke:#000;stroke-width:2" d="M286,356 l87,0 45,351 -175,0 43,-351z" />
<path style="fill:#cc3" d="M637,576 l109,0 0,44 -109,0 0,-44z" />
<path style="fill:#cc3;stroke:#000;stroke-width:2" d="M614,510 l23,0 0,110 -23,0 0,-110z" />
<path style="fill:#cc3" d="M263,50 l132,0 0,219 -132,0 0,-219z" />
<path style="fill:#333;stroke:#000;stroke-width:2" d="M154,927 l351,0 0,21 -351,0 0,-21z" />
<path style="fill:#cc3;stroke:#000;stroke-width:2" d="M154,948 l351,0 0,22 -351,0 0,-22z" />
<path style="fill:#333;stroke:#000;stroke-width:2" d="M263,620 l132,0 0,175 -132,0 0,-175z" />
<path style="fill:#4c4c4c;stroke:#000;stroke-width:2" d="M395,686 l66,0 0,86 -66,0 0,-86z" />
<path style="fill:#c7c72e" d="M263,201 l132,-96 0,164 -132,0 0,-68z" />
<path style="fill:#c2c229" d="M263,210 l132,-96 0,155 -132,0 0,-59z" />
<path style="fill:#bdbd24" d="M263,226 l132,-97 0,140 -132,0 0,-43z" />
<path style="fill:none;stroke:#000;stroke-width:2" d="M263,50 l132,0 0,219 -132,0 0,-219" />
<path style="fill:#cc3" d="M67,422 l176,0 0,439 -176,0 0,-439z" />
<path style="fill:#c7c72e" d="M67,725 l176,-194 0,330 -176,0 0,-136z" />
<path style="fill:#c2c229" d="M67,746 l176,-194 0,309 -176,0 0,-115z" />
<path style="fill:#bdbd24" d="M67,774 l176,-194 0,281 -176,0 0,-87z" />
<path style="fill:none;stroke:#000;stroke-width:2" d="M67,422 l176,0 0,439 -176,0 0,-439" />
<circle style="fill:#666;stroke:#000;stroke-width:2" cx="417" cy="641" r="44" />
<path style="fill:#cc3;stroke:#000;stroke-width:2" d="M231,510 l196,0 0,44 -196,0 0,-44z" />
<path style="fill:#e5e54c" d="M637,582 l109,0 0,32 -109,0 0,-32z" />
<path style="fill:#ff6" d="M637,591 l109,0 0,12 -109,0 0,-12z" />
<path style="fill:none;stroke:#000;stroke-width:2" d="M637,576 l109,0 0,44 -109,0 0,-44" />
<path style="fill:#333;stroke:#000;stroke-width:2" d="M427,154 l170,0 0,209 -170,0 0,-209z" />
<path style="fill:#ccc" d="M433,160 l160,0 0,98 6,98 -160,0 -6,-98 0,-98z" />
<path style="fill:#b2b219;stroke:#000;stroke-width:2" d="M427,291 l-54,0 0,38 54,0 0,-38z" />
<path style="fill:#b2b219" d="M456,346 l-6,-7 0,-10 6,-5 9,0 8,5 0,10 -8,7 -9,0z" />
<path style="fill:#000" d="M395,226 l-132,0 0,26 132,0 0,-26z" />
<path style="fill:#000" d="M395,177 l-132,0 0,37 132,0 0,-37z" />
<path style="fill:#000" d="M543,175 l-93,0 0,71 93,0 0,-71z" />
<path style="fill:none;stroke:#fff;stroke-width:2" d="M543,175 l0,71 -93,0" />
<path style="fill:none;stroke:#999;stroke-width:2" d="M543,175 l-93,0 0,71" />
<path style="fill:none;stroke:#000;stroke-width:2" d="M198,838 l11,34 28,15 26,0 23,-15 17,-77" />
<path style="fill:none;stroke:#000;stroke-width:2" d="M177,842 l15,34 37,17 40,0 32,-17 23,-81" />
<path style="fill:#cc3;stroke:#000;stroke-width:2" d="M231,522 l-186,0 0,9 186,0 0,-9z" />
<path style="fill:#cc3;stroke:#000;stroke-width:2" d="M88,488 l549,0 0,132 -23,0 -5,-110 -498,0 0,33 -23,0 0,-55z" />
<path style="fill:none;stroke:#000;stroke-width:2" d="M88,499 l549,0" />
<path style="fill:#000" d="M111,510 l503,0 0,6 -503,0 0,-6z" />
<path style="fill:#bf2600;stroke:#000;stroke-width:2" d="M28,495 l17,0 0,64 -17,0 0,-64z" />

</svg>
