 

<svg xmlns:agg="http://www.example.com" xmlns="http://www.w3.org/2000/svg" preserveAspectRatio="none" width="1.6083in" height="0.6253in" viewBox="0 0 998 388">

<path style="fill:#000" d="M970,280 l0,6 -933,0 0,-6 933,0z" />
<path style="fill:#ccc" d="M659,280 l0,-232 -622,0 0,232 622,0z" />
<path style="fill:#c7c7c7" d="M659,235 l-77,-64 0,109 77,0 0,-45z" />
<path style="fill:#c2c2c2" d="M659,242 l-77,-65 0,103 77,0 0,-38z" />
<path style="fill:#bdbdbd" d="M659,252 l-77,-64 0,92 77,0 0,-28z" />
<path style="fill:#c7c7c7" d="M114,235 l-77,-64 0,109 77,0 0,-45z" />
<path style="fill:#c2c2c2" d="M114,242 l-77,-65 0,103 77,0 0,-38z" />
<path style="fill:#bdbdbd" d="M114,252 l-77,-64 0,92 77,0 0,-28z" />
<path style="fill:none;stroke:#7f7f7f;stroke-width:2" d="M659,126 l-622,0" />
<path style="fill:#c7c7c7" d="M505,101 l-80,-34 0,59 80,0 0,-25z" />
<path style="fill:#c2c2c2" d="M505,105 l-80,-34 0,55 80,0 0,-21z" />
<path style="fill:#bdbdbd" d="M505,111 l-80,-36 0,51 80,0 0,-15z" />
<path style="fill:#c7c7c7" d="M348,101 l-77,-34 0,59 77,0 0,-25z" />
<path style="fill:#c2c2c2" d="M348,105 l-77,-34 0,55 77,0 0,-21z" />
<path style="fill:#bdbdbd" d="M348,111 l-77,-36 0,51 77,0 0,-15z" />
<path style="fill:#c7c7c7" d="M193,101 l-79,-34 0,59 79,0 0,-25z" />
<path style="fill:#c2c2c2" d="M193,105 l-79,-34 0,55 79,0 0,-21z" />
<path style="fill:#bdbdbd" d="M193,111 l-79,-36 0,51 79,0 0,-15z" />
<path style="fill:#c7c7c7" d="M582,235 l-77,-64 0,109 77,0 0,-45z" />
<path style="fill:#c2c2c2" d="M582,242 l-77,-65 0,103 77,0 0,-38z" />
<path style="fill:#bdbdbd" d="M582,252 l-77,-64 0,92 77,0 0,-28z" />
<path style="fill:#c7c7c7" d="M505,235 l-80,-64 0,109 80,0 0,-45z" />
<path style="fill:#c2c2c2" d="M505,242 l-80,-65 0,103 80,0 0,-38z" />
<path style="fill:#bdbdbd" d="M505,252 l-80,-64 0,92 80,0 0,-28z" />
<path style="fill:#c7c7c7" d="M425,235 l-77,-64 0,109 77,0 0,-45z" />
<path style="fill:#c2c2c2" d="M425,242 l-77,-65 0,103 77,0 0,-38z" />
<path style="fill:#bdbdbd" d="M425,252 l-77,-64 0,92 77,0 0,-28z" />
<path style="fill:#c7c7c7" d="M271,235 l-78,-64 0,109 78,0 0,-45z" />
<path style="fill:#c2c2c2" d="M271,242 l-78,-65 0,103 78,0 0,-38z" />
<path style="fill:#bdbdbd" d="M271,252 l-78,-64 0,92 78,0 0,-28z" />
<path style="fill:#c7c7c7" d="M348,235 l-77,-64 0,109 77,0 0,-45z" />
<path style="fill:#c2c2c2" d="M348,242 l-77,-65 0,103 77,0 0,-38z" />
<path style="fill:#bdbdbd" d="M348,252 l-77,-64 0,92 77,0 0,-28z" />
<path style="fill:#c7c7c7" d="M193,235 l-79,-64 0,109 79,0 0,-45z" />
<path style="fill:#c2c2c2" d="M193,242 l-79,-65 0,103 79,0 0,-38z" />
<path style="fill:#bdbdbd" d="M193,252 l-79,-64 0,92 79,0 0,-28z" />
<path style="fill:none;stroke:#7f7f7f;stroke-width:2" d="M582,280 l0,-232" />
<path style="fill:none;stroke:#e5e5e5;stroke-width:2" d="M576,280 l0,-232" />
<path style="fill:none;stroke:#7f7f7f;stroke-width:2" d="M503,280 l0,-232" />
<path style="fill:none;stroke:#e5e5e5;stroke-width:2" d="M499,280 l0,-232" />
<path style="fill:none;stroke:#7f7f7f;stroke-width:2" d="M425,280 l0,-232" />
<path style="fill:none;stroke:#e5e5e5;stroke-width:2" d="M420,280 l0,-232" />
<path style="fill:none;stroke:#7f7f7f;stroke-width:2" d="M348,280 l0,-232" />
<path style="fill:none;stroke:#e5e5e5;stroke-width:2" d="M342,280 l0,-232" />
<path style="fill:none;stroke:#7f7f7f;stroke-width:2" d="M271,280 l0,-232" />
<path style="fill:none;stroke:#e5e5e5;stroke-width:2" d="M267,280 l0,-232" />
<path style="fill:none;stroke:#7f7f7f;stroke-width:2" d="M193,280 l0,-232" />
<path style="fill:none;stroke:#e5e5e5;stroke-width:2" d="M188,280 l0,-232" />
<path style="fill:none;stroke:#7f7f7f;stroke-width:2" d="M114,280 l0,-232" />
<path style="fill:none;stroke:#e5e5e5;stroke-width:2" d="M109,280 l0,-232" />
<path style="fill:#c7c7c7" d="M659,101 l-77,-34 0,59 77,0 0,-25z" />
<path style="fill:#c2c2c2" d="M659,105 l-77,-34 0,55 77,0 0,-21z" />
<path style="fill:#bdbdbd" d="M659,111 l-77,-36 0,51 77,0 0,-15z" />
<path style="fill:none;stroke:#000;stroke-width:2" d="M659,280 l0,-232 -622,0 0,232 622,0" />
<path style="fill:#666" d="M561,52 l-37,0 0,53 37,0 0,-53z" />
<path style="fill:#ccc;stroke:#000;stroke-width:2" d="M552,37 l-19,0 0,58 19,0 0,-58z" />
<path style="fill:#666" d="M407,52 l-40,0 0,53 40,0 0,-53z" />
<path style="fill:#ccc;stroke:#000;stroke-width:2" d="M397,37 l-21,0 0,58 21,0 0,-58z" />
<path style="fill:#666" d="M250,52 l-38,0 0,53 38,0 0,-53z" />
<path style="fill:#ccc;stroke:#000;stroke-width:2" d="M241,37 l-19,0 0,58 19,0 0,-58z" />
<path style="fill:#666" d="M95,52 l-39,0 0,53 39,0 0,-53z" />
<path style="fill:#ccc;stroke:#000;stroke-width:2" d="M86,37 l-21,0 0,58 21,0 0,-58z" />
<path style="fill:none;stroke:#000;stroke-width:2" d="M659,105 l-9,0" />
<path style="fill:none;stroke:#000;stroke-width:2" d="M659,67 l-9,0" />
<path style="fill:none;stroke:#000;stroke-width:2" d="M601,86 l-10,0 -5,-4 -4,4 4,6 5,-6" />
<path style="fill:none;stroke:#000;stroke-width:2" d="M505,105 l-12,0" />
<path style="fill:none;stroke:#000;stroke-width:2" d="M505,67 l-12,0" />
<path style="fill:none;stroke:#000;stroke-width:2" d="M446,86 l-11,0 -4,-4 -6,4 6,6 4,-6" />
<path style="fill:none;stroke:#000;stroke-width:2" d="M348,105 l-9,0" />
<path style="fill:none;stroke:#000;stroke-width:2" d="M348,67 l-9,0" />
<path style="fill:none;stroke:#000;stroke-width:2" d="M290,86 l-10,0 -5,-4 -4,4 4,6 5,-6" />
<path style="fill:none;stroke:#000;stroke-width:2" d="M193,105 l-11,0" />
<path style="fill:none;stroke:#000;stroke-width:2" d="M193,67 l-11,0" />
<path style="fill:none;stroke:#000;stroke-width:2" d="M135,86 l-11,0 -4,-4 -6,4 6,6 4,-6" />
<path style="fill:none;stroke:#000;stroke-width:2" d="M659,252 l-9,0" />
<path style="fill:none;stroke:#000;stroke-width:2" d="M514,252 l-25,0" />
<path style="fill:none;stroke:#000;stroke-width:2" d="M659,154 l-9,0" />
<path style="fill:none;stroke:#000;stroke-width:2" d="M514,154 l-25,0" />
<path style="fill:none;stroke:#000;stroke-width:2" d="M601,227 l-10,0 -5,-5 -4,5 4,6 5,-6" />
<path style="fill:none;stroke:#000;stroke-width:2" d="M561,227 l12,0 3,-5 6,5 -6,6 -3,-6" />
<path style="fill:none;stroke:#000;stroke-width:2" d="M358,252 l-25,0" />
<path style="fill:none;stroke:#000;stroke-width:2" d="M358,154 l-25,0" />
<path style="fill:none;stroke:#000;stroke-width:2" d="M446,227 l-11,0 -4,-5 -6,5 6,6 4,-6" />
<path style="fill:none;stroke:#000;stroke-width:2" d="M407,227 l9,0 6,-5 3,5 -3,6 -6,-6" />
<path style="fill:none;stroke:#000;stroke-width:2" d="M203,252 l-25,0" />
<path style="fill:none;stroke:#000;stroke-width:2" d="M203,154 l-25,0" />
<path style="fill:none;stroke:#000;stroke-width:2" d="M290,227 l-10,0 -5,-5 -4,5 4,6 5,-6" />
<path style="fill:none;stroke:#000;stroke-width:2" d="M250,227 l12,0 3,-5 6,5 -6,6 -3,-6" />
<path style="fill:none;stroke:#000;stroke-width:2" d="M46,252 l-9,0" />
<path style="fill:none;stroke:#000;stroke-width:2" d="M46,154 l-9,0" />
<path style="fill:none;stroke:#000;stroke-width:2" d="M135,227 l-11,0 -4,-5 -6,5 6,6 4,-6" />
<path style="fill:none;stroke:#000;stroke-width:2" d="M95,227 l10,0 6,-5 3,5 -3,6 -6,-6" />
<path style="fill:#999;stroke:#000;stroke-width:2" d="M659,280 l0,68 10,12 -25,0 10,-12 0,-68 5,0z" />
<path style="fill:#999;stroke:#000;stroke-width:2" d="M505,280 l0,68 9,12 -25,0 10,-12 0,-68 6,0z" />
<path style="fill:#999;stroke:#000;stroke-width:2" d="M348,280 l0,68 10,12 -25,0 9,-12 0,-68 6,0z" />
<path style="fill:#999;stroke:#000;stroke-width:2" d="M193,280 l0,68 10,12 -25,0 10,-12 0,-68 5,0z" />
<path style="fill:#999;stroke:#000;stroke-width:2" d="M43,280 l0,68 9,12 -24,0 9,-12 0,-68 6,0z" />
<path style="fill:#999;stroke:#000;stroke-width:2" d="M771,280 l0,68 11,12 -25,0 10,-12 0,-68 4,0z" />
<path style="fill:#999;stroke:#000;stroke-width:2" d="M893,280 l0,68 10,12 -25,0 9,-12 0,-68 6,0z" />
<path style="fill:#ccc;stroke:#000;stroke-width:2" d="M970,163 l-273,0 0,-37 -38,0 0,154 311,0 0,-117z" />
<path style="fill:none;stroke:#fff;stroke-width:2" d="M893,169 l0,108 68,0" />
<path style="fill:none;stroke:#999;stroke-width:2" d="M893,169 l68,0 0,108" />
<path style="fill:none;stroke:#fff;stroke-width:2" d="M699,169 l0,108 68,0" />
<path style="fill:none;stroke:#999;stroke-width:2" d="M699,169 l68,0 0,108" />
<path style="fill:none;stroke:#fff;stroke-width:2" d="M771,169 l0,108 116,0" />
<path style="fill:none;stroke:#999;stroke-width:2" d="M771,169 l116,0 0,108" />
<path style="fill:#b2b2b2" d="M931,267 l-210,0 0,-15 210,0 0,15z" />
<path style="fill:#e5e5e5;stroke:#7f7f7f;stroke-width:2" d="M931,227 l-210,0 0,25 210,0 0,-25z" />
<path style="fill:#ccc;stroke:#000;stroke-width:2" d="M961,144 l-34,0 0,19 34,0 0,-19z" />
<path style="fill:#ccc;stroke:#000;stroke-width:2" d="M622,28 l-36,0 0,20 36,0 0,-20z" />
<path style="fill:none;stroke:#000;stroke-width:2" d="M893,163 l0,-9 -34,0 0,9" />
<path style="fill:none;stroke:#000;stroke-width:2" d="M780,163 l0,-9 -34,0 0,9" />

</svg>
