 

<svg xmlns:agg="http://www.example.com" xmlns="http://www.w3.org/2000/svg" preserveAspectRatio="none" width="1.3526in" height="1.0750in" viewBox="0 0 999 794">

<path style="fill:#e0e0e0" d="M596,577 l-499,0 0,95 499,0 0,-95z" />
<path style="fill:#f0f0f0" d="M568,577 l-57,0 0,95 57,0 0,-95z" />
<path style="fill:#fff" d="M552,577 l-24,0 0,95 24,0 0,-95z" />
<path style="fill:none;stroke:#000;stroke-width:2" d="M596,577 l-499,0 0,95 499,0 0,-95" />
<path style="fill:#e0e0e0" d="M928,577 l-55,0 0,-358 55,0 0,358z" />
<path style="fill:#f0f0f0" d="M924,577 l-4,0 0,-358 4,0 0,358z" />
<path style="fill:#fff" d="M924,577 l-4,0 0,-358 4,0 0,358z" />
<path style="fill:none;stroke:#000;stroke-width:2" d="M928,577 l-55,0 0,-358 55,0 0,358" />
<path style="fill:#e0e0e0" d="M930,577 l-59,0 -29,95 118,0 -30,-95z" />
<path style="fill:#f0f0f0" d="M928,577 l-6,0 19,95 13,0 -26,-95z" />
<path style="fill:#fff" d="M926,577 l-4,0 23,95 4,0 -23,-95z" />
<path style="fill:none;stroke:#000;stroke-width:2" d="M930,577 l-59,0 -29,95 118,0 -30,-95" />
<path style="fill:#e0e0e0" d="M970,766 l-873,0 0,-94 873,0 0,94z" />
<path style="fill:#f0f0f0" d="M924,766 l-99,0 0,-94 99,0 0,94z" />
<path style="fill:#fff" d="M895,766 l-42,0 0,-94 42,0 0,94z" />
<path style="fill:none;stroke:#000;stroke-width:2" d="M970,766 l-873,0 0,-94 873,0 0,94" />
<path style="fill:#e0e0e0" d="M581,303 l0,57 4,2 27,24 17,27 7,27 -7,27 -17,28 -27,23 -4,2 0,57 -221,0 -15,2 -14,-2 -222,0 0,-57 -2,-2 -27,-23 -17,-28 -6,-27 6,-27 17,-27 27,-24 2,-2 0,-57 472,0z" />
<path style="fill:#f0f0f0" d="M556,303 l-53,0 0,274 53,0 0,-274z" />
<path style="fill:#fff" d="M541,303 l-23,0 0,274 23,0 0,-274z" />
<ellipse style="fill:#e5e5e5" cx="388" cy="434" rx="234" ry="118" />
<ellipse style="fill:#ededed" cx="430" cy="427" rx="180" ry="96" />
<ellipse style="fill:#f2f2f2" cx="472" cy="421" rx="125" ry="76" />
<path style="fill:#fafafa" d="M503,360 l-12,2 -13,4 -11,7 -10,6 -7,11 -4,8 -2,10 0,11 4,11 7,10 8,8 11,9 10,4 13,4 14,5 15,0 13,-3 13,-4 10,-6 8,-9 9,-8 4,-8 2,-11 0,-10 -4,-13 -6,-8 -9,-9 -10,-8 -11,-7 -14,-4 -13,-2 -15,0z" />
<path style="fill:#fff" d="M543,375 l-6,11 0,16 4,13 7,13 8,8 4,4 4,0 2,2 4,0 3,-2 4,-8 0,-17 -4,-13 -7,-12 -8,-9 -8,-6 -7,0z" />
<path style="fill:none;stroke:#000;stroke-width:2" d="M581,303 l0,57 4,2 27,24 17,27 7,27 -7,27 -17,28 -27,23 -4,2 0,57 -221,0 -15,2 -14,-2 -222,0 0,-57 -2,-2 -27,-23 -17,-28 -6,-27 6,-27 17,-27 27,-24 2,-2 0,-57 472,0" />
<path style="fill:#7f0000" d="M282,303 l0,72 177,0 0,-72 135,0 0,-25 -499,0 0,25 187,0z" />
<path style="fill:#9e1e1e" d="M566,278 l-57,0 0,25 57,0 0,-25z" />
<path style="fill:#e0c1c1" d="M550,278 l-24,0 0,25 24,0 0,-25z" />
<path style="fill:none;stroke:#000;stroke-width:2" d="M282,303 l0,72 177,0 0,-72 135,0 0,-25 -499,0 0,25 187,0" />
<path style="fill:#000" d="M419,303 l-118,0 0,53 118,0 0,-53z" />
<path style="fill:#e0e0e0" d="M105,95 l2,-11 501,118 -2,13 316,74 17,-68 -821,-193 -17,67 4,0z" />
<path style="fill:#f0f0f0" d="M895,211 l-93,-23 -17,69 93,21 17,-67z" />
<path style="fill:#fff" d="M867,204 l-38,-10 -17,69 39,9 16,-68z" />
<path style="fill:none;stroke:#000;stroke-width:2" d="M105,95 l2,-11 501,118 -2,13 316,74 17,-68 -821,-193 -17,67 4,0" />
<path style="fill:#7f0000;stroke:#000;stroke-width:2" d="M430,160 l-116,-27 6,-32 116,28 -6,31z" />
<path style="fill:#f0f0f0;stroke:#000;stroke-width:2" d="M810,697 l-63,0 0,63 63,0 0,-63z" />
<path style="fill:#f0f0f0;stroke:#000;stroke-width:2" d="M810,697 l-63,0 -10,-8 63,0 10,8z" />
<path style="fill:#ccc;stroke:#000;stroke-width:2" d="M737,689 l10,8 0,63 -10,-10 0,-61z" />
<circle style="fill:#b2b2b2;stroke:#000;stroke-width:2" cx="902" cy="249" r="20" />
<path style="fill:#b2b2b2;stroke:#000;stroke-width:2" d="M42,430 l19,-9 44,95 -19,8 -44,-94z" />
<path style="fill:#f0f0f0;stroke:#000;stroke-width:2" d="M32,406 l-4,2 67,142 2,0 2,-9 -6,-17 -9,-23 -12,-27 -13,-28 -13,-21 -10,-14 -4,-5z" />
<path style="fill:#e0e0e0;stroke:#000;stroke-width:2" d="M28,408 l0,7 4,17 10,23 11,27 14,27 13,22 8,15 7,4 0,-7 -7,-17 -8,-23 -13,-27 -12,-28 -13,-23 -8,-12 -6,-5z" />
<path style="fill:#7f7f7f;stroke:#000;stroke-width:2" d="M32,417 l0,2 2,6 4,5 0,2 0,-2 -2,-7 -2,-4 -2,-2z" />
<path style="fill:#7f7f7f;stroke:#000;stroke-width:2" d="M82,526 l2,3 2,6 2,4 3,2 0,-2 -5,-6 -2,-4 -2,-3z" />
<path style="fill:#7f7f7f;stroke:#000;stroke-width:2" d="M63,493 l0,4 2,4 5,6 0,2 0,-4 -3,-4 -2,-6 -2,-2z" />
<path style="fill:#7f7f7f;stroke:#000;stroke-width:2" d="M70,491 l2,2 2,6 2,4 2,2 -2,-2 -2,-6 -2,-4 -2,-2z" />
<path style="fill:#7f7f7f;stroke:#000;stroke-width:2" d="M48,444 l2,2 3,4 2,7 2,2 0,-2 -4,-7 -3,-4 -2,-2z" />
<path style="fill:#7f7f7f;stroke:#000;stroke-width:2" d="M42,446 l0,2 2,7 2,6 2,0 0,-2 -2,-4 -2,-7 -2,-2z" />
<path style="fill:#b2b2b2;stroke:#000;stroke-width:2" d="M657,430 l-21,-9 -44,95 20,8 45,-94z" />
<path style="fill:#f0f0f0;stroke:#000;stroke-width:2" d="M667,406 l4,2 -67,142 -4,0 0,-9 4,-17 11,-23 12,-27 13,-28 13,-21 8,-14 6,-5z" />
<path style="fill:#e0e0e0;stroke:#000;stroke-width:2" d="M671,408 l0,7 -6,17 -8,23 -13,27 -12,27 -13,22 -9,15 -6,4 0,-7 4,-17 11,-23 10,-27 15,-28 13,-23 8,-12 6,-5z" />
<path style="fill:#7f7f7f;stroke:#000;stroke-width:2" d="M667,417 l-2,2 -2,6 -2,5 -2,2 2,-2 2,-7 2,-4 2,-2z" />
<path style="fill:#7f7f7f;stroke:#000;stroke-width:2" d="M615,526 l0,3 -3,6 -2,4 -2,2 0,-2 2,-6 5,-4 0,-3z" />
<path style="fill:#7f7f7f;stroke:#000;stroke-width:2" d="M636,493 l-2,4 -2,4 -3,6 -2,2 2,-4 3,-4 2,-6 2,-2z" />
<path style="fill:#7f7f7f;stroke:#000;stroke-width:2" d="M627,491 l0,2 -2,6 -2,4 -2,2 0,-2 2,-6 4,-4 0,-2z" />
<path style="fill:#7f7f7f;stroke:#000;stroke-width:2" d="M649,444 l0,2 -3,4 -2,7 -2,2 0,-2 2,-7 5,-4 0,-2z" />
<path style="fill:#7f7f7f;stroke:#000;stroke-width:2" d="M657,446 l0,2 -2,7 -4,6 0,-2 2,-4 2,-7 2,-2z" />

</svg>
