 

<svg xmlns:agg="http://www.example.com" xmlns="http://www.w3.org/2000/svg" preserveAspectRatio="none" width="1.4854in" height="1.0750in" viewBox="0 0 999 723">

<path style="fill:#ccc" d="M970,116 l-822,0 0,579 822,0 0,-579z" />
<path style="fill:#c7c7c7" d="M970,527 l-822,-241 0,409 822,0 0,-168z" />
<path style="fill:#c2c2c2" d="M970,552 l-822,-242 0,385 822,0 0,-143z" />
<path style="fill:#bdbdbd" d="M970,588 l-822,-242 0,349 822,0 0,-107z" />
<path style="fill:none;stroke:#000;stroke-width:2" d="M970,116 l-822,0 0,579 822,0 0,-579" />
<path style="fill:none;stroke:#b2b2b2;stroke-width:2" d="M241,148 l0,515" />
<path style="fill:#b2b2b2;stroke:#000;stroke-width:2" d="M148,116 l-120,-58 0,577 120,60 0,-579z" />
<path style="fill:#e5e5e5;stroke:#000;stroke-width:2" d="M148,116 l-120,-58 822,0 120,58 -822,0z" />
<path style="fill:#e5e5e5;stroke:#000;stroke-width:2" d="M878,88 l-121,-60 0,30 121,58 0,-28z" />
<path style="fill:none;stroke:#b2b2b2;stroke-width:2" d="M331,148 l0,515" />
<path style="fill:none;stroke:#b2b2b2;stroke-width:2" d="M424,148 l0,515" />
<path style="fill:none;stroke:#b2b2b2;stroke-width:2" d="M514,148 l0,515" />
<path style="fill:none;stroke:#b2b2b2;stroke-width:2" d="M607,148 l0,515" />
<path style="fill:none;stroke:#b2b2b2;stroke-width:2" d="M697,148 l0,515" />
<path style="fill:none;stroke:#b2b2b2;stroke-width:2" d="M787,148 l0,515" />
<path style="fill:none;stroke:#b2b2b2;stroke-width:2" d="M878,148 l0,515" />
<path style="fill:#7f6565;stroke:#fff;stroke-width:2" d="M818,178 l-304,0 0,61 304,0 0,-61z" />
<path style="fill:#e5e5e5" d="M787,197 l-243,0 0,21 243,0 0,-21z" />
<circle style="fill:#d9d9d9" cx="880" cy="299" r="30" />
<path style="fill:none;stroke:#fff;stroke-width:2" d="M904,318 l4,-8 2,-7 0,-8 -2,-7 -4,-8 -5,-5 -8,-4 -7,-2 -8,0 -9,2 -6,4 -6,5" />
<path style="fill:none;stroke:#999;stroke-width:2" d="M855,280 l-3,8 -2,7 0,8 2,7 3,8 6,6 6,3 9,2 8,0 7,-2 8,-3 5,-6" />

</svg>
