 

<svg xmlns:agg="http://www.example.com" xmlns="http://www.w3.org/2000/svg" preserveAspectRatio="none" width="0.5612in" height="1.0750in" viewBox="0 0 521 998">

<path style="fill:#630" d="M126,529 l9,0 0,108 -9,0 0,-108z" />
<path style="fill:#630" d="M312,529 l9,0 0,108 -9,0 0,-108z" />
<path style="fill:#960;stroke:#000;stroke-width:2" d="M420,343 l39,0 0,-236 -39,0 0,236z" />
<path style="fill:#960;stroke:#000;stroke-width:2" d="M361,420 l59,0 0,-392 -59,0 0,392z" />
<path style="fill:#a6730d" d="M422,327 l37,0 0,-207 -37,0 0,207z" />
<path style="fill:#a6730d" d="M361,397 l61,0 0,-347 -61,0 0,347z" />
<path style="fill:#b27f19" d="M422,314 l37,0 0,-181 -37,0 0,181z" />
<path style="fill:#b27f19" d="M361,375 l61,0 0,-302 -61,0 0,302z" />
<path style="fill:#bf8c26" d="M422,301 l37,0 0,-155 -37,0 0,155z" />
<path style="fill:#bf8c26" d="M361,352 l61,0 0,-257 -61,0 0,257z" />
<path style="fill:#c93" d="M422,288 l37,0 0,-128 -37,0 0,128z" />
<path style="fill:#c93" d="M361,329 l61,0 0,-211 -61,0 0,211z" />
<path style="fill:#d9a640" d="M422,273 l37,0 0,-98 -37,0 0,98z" />
<path style="fill:#d9a640" d="M361,307 l61,0 0,-166 -61,0 0,166z" />
<path style="fill:#e5b24c" d="M422,260 l37,0 0,-72 -37,0 0,72z" />
<path style="fill:#e5b24c" d="M361,284 l61,0 0,-121 -61,0 0,121z" />
<path style="fill:#f2bf59" d="M422,246 l37,0 0,-45 -37,0 0,45z" />
<path style="fill:#f2bf59" d="M361,261 l61,0 0,-75 -61,0 0,75z" />
<path style="fill:#fc6" d="M420,233 l39,0 0,-19 -39,0 0,19z" />
<path style="fill:#fc6" d="M361,239 l59,0 0,-30 -59,0 0,30z" />
<path style="fill:#c93" d="M86,695 l0,236 275,0 0,-236 -275,0z" />
<path style="fill:#c93" d="M86,833 l0,98 275,0 0,-98 -275,0z" />
<path style="fill:#bf8c26" d="M88,833 l0,98 273,0 0,-98 -273,0z" />
<path style="fill:#b27f19" d="M88,859 l0,72 273,0 0,-72 -273,0z" />
<path style="fill:#a6730d" d="M88,872 l0,59 273,0 0,-59 -273,0z" />
<path style="fill:#960" d="M88,885 l0,46 273,0 0,-46 -273,0z" />
<path style="fill:#8c5900" d="M88,897 l0,34 273,0 0,-34 -273,0z" />
<path style="fill:#7f4c00" d="M86,912 l0,19 275,0 0,-19 -275,0z" />
<path style="fill:none;stroke:#000;stroke-width:2" d="M86,695 l0,236 275,0 0,-236 -275,0" />
<path style="fill:#c93;stroke:#000;stroke-width:2" d="M342,735 l78,0 0,235 -78,0 0,-235z" />
<path style="fill:#c93;stroke:#000;stroke-width:2" d="M28,735 l79,0 0,235 -79,0 0,-235z" />
<path style="fill:#d4a13b" d="M342,735 l78,0 0,137 -78,0 0,-137z" />
<path style="fill:#d4a13b" d="M28,735 l79,0 0,137 -79,0 0,-137z" />
<path style="fill:#deab45" d="M342,735 l78,0 0,58 -78,0 0,-58z" />
<path style="fill:#deab45" d="M28,735 l79,0 0,58 -79,0 0,-58z" />
<path style="fill:#e5b24c" d="M28,735 l79,0 0,18 -79,0 0,-18z" />
<path style="fill:#e5b24c" d="M342,735 l78,0 0,18 -78,0 0,-18z" />
<path style="fill:#ccc" d="M186,708 l0,27 77,0 0,-27 -77,0z" />
<path style="fill:#000" d="M186,695 l0,13 77,0 0,-13 -77,0z" />
<path style="fill:#7f0000" d="M205,695 l0,13 39,0 0,-13 -39,0z" />
<path style="fill:#e5b24c" d="M303,695 l58,0 0,40 -58,0 0,-40z" />
<path style="fill:#e5b24c" d="M86,695 l60,0 0,40 -60,0 0,-40z" />
<path style="fill:#ccc" d="M46,637 l355,0 0,58 -355,0 0,-58z" />
<path style="fill:#bfbfbf" d="M46,686 l355,-40 0,49 -355,0 0,-9z" />
<path style="fill:none;stroke:#e5e5e5;stroke-width:2" d="M61,684 l327,-36" />
<path style="fill:none;stroke:#000;stroke-width:2" d="M48,637 l353,0 0,58 -353,0 0,-58" />
<path style="fill:none;stroke:#000;stroke-width:2" d="M48,676 l353,0" />
<path style="fill:#c93;stroke:#000;stroke-width:2" d="M318,401 l64,0 0,236 -64,0 0,-236z" />
<path style="fill:#c93;stroke:#000;stroke-width:2" d="M67,401 l62,0 0,236 -62,0 0,-236z" />
<path style="fill:#d4a13b" d="M318,401 l64,0 0,138 -64,0 0,-138z" />
<path style="fill:#d4a13b" d="M67,401 l62,0 0,138 -62,0 0,-138z" />
<path style="fill:#deab45" d="M299,401 l51,0 0,58 -51,0 0,-58z" />
<path style="fill:#deab45" d="M97,401 l51,0 0,58 -51,0 0,-58z" />
<path style="fill:#e5b24c" d="M97,401 l51,0 0,19 -51,0 0,-19z" />
<path style="fill:#e5b24c" d="M299,401 l51,0 0,19 -51,0 0,-19z" />
<path style="fill:#c93" d="M82,478 l283,0 17,-135 -315,0 15,135z" />
<path style="fill:#e5b24c" d="M382,343 l-17,-315 -283,0 -15,315 315,0z" />
<path style="fill:#deab45" d="M382,343 l-11,-198 -300,100 -4,98 315,0z" />
<path style="fill:#333" d="M218,637 l11,0 0,34 -11,0 0,-34z" />
<path style="fill:#333" d="M184,637 l11,0 0,34 -11,0 0,-34z" />
<path style="fill:#333" d="M252,637 l11,0 0,34 -11,0 0,-34z" />
<path style="fill:none;stroke:#000;stroke-width:2" d="M82,478 l283,0 17,-135 -17,-315 -283,0 -15,315 15,135" />
<path style="fill:#e5b24c;stroke:#000;stroke-width:2" d="M107,478 l-10,40 255,0 -10,-40 -235,0z" />
<path style="fill:#e5cb98" d="M297,514 l-9,-15 9,-15 17,0 7,15 -7,15 -17,0z" />
<path style="fill:#e5cb98" d="M139,514 l-8,-15 8,-15 17,0 9,15 -9,15 -17,0z" />
<path style="fill:#333" d="M208,484 l36,0 0,30 -36,0 0,-30z" />
<path style="fill:#f00" d="M227,508 l-13,-9 13,-9 12,9 -12,9z" />
<path style="fill:#960;stroke:#000;stroke-width:2" d="M107,518 l3,11 227,0 5,-11 -235,0z" />
<path style="fill:#960" d="M382,429 l68,0 30,-38 -11,-158 -10,0 0,-15 21,0 13,177 -37,49 -74,0 0,-15z" />
<path style="fill:none;stroke:#c93;stroke-width:2" d="M382,441 l68,-6 39,-44 -15,-162 -15,0" />
<path style="fill:#e5b24c;stroke:#000;stroke-width:2" d="M28,429 l39,0 0,119 -39,0 0,-119z" />
<path style="fill:none;stroke:#f2e5cc;stroke-width:2" d="M39,535 l-6,-6 0,-7 2,-8 8,-4 7,-2 6,4" />
<path style="fill:none;stroke:#f2e5cc;stroke-width:2" d="M39,495 l-6,-5 0,-8 2,-7 8,-4 7,-2 6,3" />
<path style="fill:none;stroke:#960;stroke-width:2" d="M56,472 l5,6 0,8 -1,7 -6,4 -8,2 -7,-4" />
<path style="fill:none;stroke:#960;stroke-width:2" d="M56,512 l5,6 0,8 -1,7 -6,4 -8,2 -7,-4" />
<path style="fill:#630" d="M107,695 l19,0 0,40 -19,0 0,-40z" />
<path style="fill:#630" d="M321,695 l21,0 0,40 -21,0 0,-40z" />
<path style="fill:none;stroke:#000;stroke-width:2" d="M86,695 l60,0 0,40 -60,0 0,-40" />
<path style="fill:none;stroke:#000;stroke-width:2" d="M303,695 l58,0 0,40 -58,0 0,-40" />

</svg>
