 

<svg xmlns:agg="http://www.example.com" xmlns="http://www.w3.org/2000/svg" preserveAspectRatio="none" width="1.0298in" height="1.0750in" viewBox="0 0 957 999">

<path style="fill:#7f7f7f" d="M109,970 l0,-122 -51,-123 -30,0 0,-184 901,0 0,429 -820,0z" />
<path style="fill:#7a7a7a" d="M109,970 l0,-122 -23,-59 843,-181 0,362 -820,0z" />
<path style="fill:#757575" d="M109,970 l0,-122 -10,-23 830,-188 0,333 -820,0z" />
<path style="fill:#707070" d="M109,970 l0,-115 820,-183 0,298 -820,0z" />
<path style="fill:#4c4c4c" d="M663,970 l0,-30 19,-21 20,21 0,30 -39,0z" />
<path style="fill:#7f7f7f;stroke:#000;stroke-width:2" d="M621,541 l0,-513 149,0 34,26 32,51 25,73 17,89 9,98 0,174 -266,2z" />
<circle style="fill:#999" cx="764" cy="273" r="62" />
<path style="fill:#999" d="M335,28 l286,0 0,286 -286,0 0,-286z" />
<path style="fill:#949494" d="M335,231 l286,-120 0,203 -286,0 0,-83z" />
<path style="fill:#8f8f8f" d="M335,243 l286,-119 0,190 -286,0 0,-71z" />
<path style="fill:#8a8a8a" d="M335,262 l286,-121 0,173 -286,0 0,-52z" />
<path style="fill:none;stroke:#000;stroke-width:2" d="M335,28 l286,0 0,286 -286,0 0,-286" />
<path style="fill:none;stroke:#b2b2b2;stroke-width:2" d="M375,299 l41,0 0,-251" />
<path style="fill:none;stroke:#4c4c4c;stroke-width:2" d="M375,299 l0,-251 41,0" />
<path style="fill:none;stroke:#b2b2b2;stroke-width:2" d="M457,299 l42,0 0,-251" />
<path style="fill:none;stroke:#4c4c4c;stroke-width:2" d="M457,299 l0,-251 42,0" />
<path style="fill:none;stroke:#b2b2b2;stroke-width:2" d="M538,299 l42,0 0,-251" />
<path style="fill:none;stroke:#4c4c4c;stroke-width:2" d="M538,299 l0,-251 42,0" />
<path style="fill:#999" d="M356,233 l245,0 0,245 -245,0 0,-245z" />
<path style="fill:none;stroke:#e5e5e5;stroke-width:2" d="M356,478 l0,-245 245,0" />
<path style="fill:none;stroke:#333;stroke-width:2" d="M356,478 l245,0 0,-245" />
<path style="fill:#7f7f7f" d="M499,377 l21,0 0,101 -21,0 0,-101z" />
<path style="fill:#333" d="M335,314 l286,0 0,227 -286,0 0,-227z" />
<path style="fill:#919191" d="M109,478 l226,0 0,-266 -226,0 0,266z" />
<path style="fill:#999" d="M109,478 l164,-62 62,-204 -226,0 0,266z" />
<path style="fill:none;stroke:#000;stroke-width:2" d="M109,478 l226,0 0,-266 -226,0 0,266" />
<path style="fill:none;stroke:#000;stroke-width:2" d="M109,970 l0,-122 -51,-123 -30,0 0,-184 901,0 0,429 -820,0" />
<path style="fill:#b2b2b2;stroke:#000;stroke-width:2" d="M48,478 l61,0 0,-286 -61,0 0,286z" />
<path style="fill:none;stroke:#b2b2b2;stroke-width:2" d="M439,825 l-16,-15 -11,-19 -5,-21 0,-20 5,-21 11,-19 16,-15 18,-11 21,-6 21,0 21,6 18,11" />
<path style="fill:none;stroke:#333;stroke-width:2" d="M538,695 l16,15" />
<path style="fill:none;stroke:#333;stroke-width:2" d="M554,810 l-16,15 -18,11 -21,6 -21,0 -22,-6 -17,-11" />
<path style="fill:none;stroke:#b2b2b2;stroke-width:2" d="M535,699 l15,15" />
<path style="fill:none;stroke:#b2b2b2;stroke-width:2" d="M550,808 l-15,13 -17,10 -19,5 -21,0 -19,-5 -18,-10" />
<path style="fill:none;stroke:#333;stroke-width:2" d="M441,821 l-14,-15 -11,-17 -4,-19 0,-20 4,-19 11,-17 14,-15 18,-10 19,-5 21,0 19,5 17,10" />
<path style="fill:none;stroke:#b2b2b2;stroke-width:2" d="M586,727 l7,8 6,9 2,11 0,10 -2,11 -6,10 -7,7 -10,6 -11,1 -11,0 -10,-1 -9,-6" />
<path style="fill:none;stroke:#333;stroke-width:2" d="M535,793 l-8,-7 -5,-10 -2,-11 0,-10 2,-11 5,-9 8,-8 9,-6 10,-1 11,0 11,1 10,6" />
<path style="fill:none;stroke:#b2b2b2;stroke-width:2" d="M531,797 l-8,-10 -5,-9 -4,-11 0,-13 4,-12 5,-9 8,-10 11,-5 12,-4 13,0 11,4 10,5" />
<path style="fill:none;stroke:#333;stroke-width:2" d="M588,723 l9,10 5,9 4,12 0,13 -4,11 -5,9 -9,10 -10,5 -11,4 -13,0 -12,-4 -11,-5" />
<path style="fill:none;stroke:#b2b2b2;stroke-width:2" d="M878,684 l0,45 -140,0" />
<path style="fill:none;stroke:#4c4c4c;stroke-width:2" d="M878,684 l-140,0 0,45" />
<path style="fill:#7f7f7f;stroke:#000;stroke-width:2" d="M48,478 l558,0 0,63 -558,0 0,-63z" />
<circle style="fill:#ccc;stroke:#000;stroke-width:2" cx="303" cy="591" r="42" />
<path style="fill:#b2b2b2;stroke:#666;stroke-width:2" d="M297,580 l55,-198 15,4 -53,200 200,53 -4,16 -200,-52 -54,197 -17,-3 54,-200 -199,-53 3,-17 200,53z" />
<circle style="fill:#ccc" cx="724" cy="396" r="82" />
<circle style="fill:#7f7f7f" cx="724" cy="396" r="69" />
<path style="fill:#ccc" d="M697,318 l11,-2 44,159 -14,1 -41,-158z" />
<path style="fill:#ccc" d="M646,423 l-4,-11 158,-43 4,13 -158,41z" />
<circle style="fill:#ccc;stroke:#333;stroke-width:2" cx="682" cy="110" r="19" />
<path style="fill:#7f7f7f" d="M702,561 l0,60 -81,0 0,-60 81,0z" />
<path style="fill:#999" d="M699,561 l0,60 -74,0 0,-60 74,0z" />
<path style="fill:#b2b2b2" d="M689,561 l0,60 -54,0 0,-60 54,0z" />
<path style="fill:#ccc" d="M680,561 l0,60 -36,0 0,-60 36,0z" />
<path style="fill:#e5e5e5" d="M674,561 l0,60 -24,0 0,-60 24,0z" />
<path style="fill:#fff" d="M667,561 l0,60 -10,0 0,-60 10,0z" />
<path style="fill:none;stroke:#666;stroke-width:2" d="M621,621 l81,0" />
<path style="fill:none;stroke:#b2b2b2;stroke-width:2" d="M642,198 l0,-48 138,0" />
<path style="fill:none;stroke:#4c4c4c;stroke-width:2" d="M642,198 l138,0 0,-48" />
<path style="fill:#8c8c8c;stroke:#000;stroke-width:2" d="M601,478 l0,83 62,0 21,-20 60,0 0,-63 -143,0z" />
<path style="fill:none;stroke:#b2b2b2;stroke-width:2" d="M708,663 l0,-108 200,0" />
<path style="fill:none;stroke:#4c4c4c;stroke-width:2" d="M708,663 l200,0 0,-108" />

</svg>
