 

<svg xmlns:agg="http://www.example.com" xmlns="http://www.w3.org/2000/svg" preserveAspectRatio="none" width="0.8221in" height="1.0750in" viewBox="0 0 764 999">

<path style="fill:#9cc;stroke:#000;stroke-width:2" d="M736,77 l-443,0 0,-19 409,0 34,19z" />
<path style="fill:#9cc" d="M736,77 l-394,0 0,874 394,0 0,-874z" />
<path style="fill:#94c7c7" d="M736,616 l-394,-352 0,597 394,0 0,-245z" />
<path style="fill:#8abdbd" d="M736,703 l-394,-352 0,600 394,0 0,-248z" />
<path style="fill:#699" d="M28,951 l0,-874 314,0 0,874 -1,2 -26,9 -30,4 -39,3 -30,1 -15,0 -32,0 -31,-1 -28,-1 -36,-3 -27,-4 -18,-8 -1,-2z" />
<path style="fill:#6b9e9e" d="M47,951 l0,-874 278,0 0,874 -1,2 -31,10 -30,4 -37,2 -27,1 -29,0 -40,-1 -34,-3 -26,-5 -23,-8 0,-2z" />
<path style="fill:#73a6a6" d="M64,951 l0,-874 242,0 0,874 -1,2 -26,10 -36,5 -33,2 -13,0 -37,0 -33,-2 -28,-4 -26,-6 -9,-5 0,-2z" />
<path style="fill:#78abab" d="M81,951 l0,-874 208,0 0,874 -1,2 -23,10 -31,5 -29,2 -10,0 -31,0 -29,-2 -30,-5 -24,-10 0,-2z" />
<path style="fill:#7fb2b2" d="M99,951 l0,-874 173,0 0,874 -26,13 -28,5 -24,1 -35,-1 -29,-3 -24,-8 -6,-5 -1,-2z" />
<path style="fill:#85b8b8" d="M117,951 l0,-874 136,0 0,874 0,2 -25,13 -29,4 -7,0 -34,-1 -26,-6 -15,-10 0,-2z" />
<path style="fill:#8cbfbf" d="M136,951 l0,-874 100,0 0,874 -1,4 -26,13 -19,2 -29,-2 -23,-11 -2,-6z" />
<path style="fill:#91c4c4" d="M153,951 l0,-874 64,0 0,874 -1,4 -1,3 -3,3 -4,3 -5,3 -5,2 -7,1 -6,0 -7,0 -6,-1 -5,-2 -5,-3 -4,-3 -3,-3 -2,-3 0,-4z" />
<path style="fill:#9cc" d="M170,951 l0,-874 30,0 0,874 0,4 -1,4 -1,3 -2,3 -2,2 -3,2 -3,1 -3,0 -3,0 -3,-1 -2,-2 -3,-2 -2,-3 -1,-3 -1,-4 0,-4z" />
<path style="fill:none;stroke:#366;stroke-width:2" d="M736,77 l-708,0 0,30 708,0 0,-30" />
<path style="fill:none;stroke:#9cc;stroke-width:2" d="M736,804 l-708,0" />
<path style="fill:none;stroke:#699;stroke-width:2" d="M736,819 l-708,0" />
<path style="fill:none;stroke:#9cc;stroke-width:2" d="M736,647 l-708,0" />
<path style="fill:none;stroke:#699;stroke-width:2" d="M736,662 l-708,0" />
<path style="fill:none;stroke:#9cc;stroke-width:2" d="M736,478 l-708,0" />
<path style="fill:none;stroke:#699;stroke-width:2" d="M736,493 l-708,0" />
<path style="fill:none;stroke:#9cc;stroke-width:2" d="M736,323 l-708,0" />
<path style="fill:none;stroke:#699;stroke-width:2" d="M736,338 l-708,0" />
<path style="fill:none;stroke:#000;stroke-width:2" d="M736,77 l-394,0 0,874 394,0 0,-874" />
<path style="fill:#e5f2f2" d="M702,348 l-326,0 0,58 326,0 0,-58z" />
<circle style="fill:#366" cx="615" cy="187" r="37" />
<circle style="fill:#e5e5e5" cx="615" cy="187" r="21" />
<path style="fill:none;stroke:#fff;stroke-width:2" d="M520,209 l0,-34 -61,0" />
<path style="fill:none;stroke:#699;stroke-width:2" d="M520,209 l-61,0 0,-34" />
<path style="fill:#e5f2f2" d="M141,209 l-113,0 0,31 113,0 0,-31z" />
<path style="fill:#e5f2f2" d="M141,259 l-113,0 0,-10 113,0 0,10z" />
<path style="fill:#e5f2f2" d="M141,200 l-113,0 0,-9 113,0 0,9z" />
<path style="fill:none;stroke:#000;stroke-width:2" d="M28,951 l0,-874 314,0 0,874 -1,2 -26,9 -30,4 -39,3 -30,1 -15,0 -32,0 -31,-1 -28,-1 -36,-3 -27,-4 -18,-8 -1,-2" />
<path style="fill:#699" d="M342,77 l0,-10 -15,-15 -29,-11 -41,-8 -48,-5 -49,0 -47,5 -40,8 -30,11 -15,15 0,10 314,0z" />
<path style="fill:#6b9e9e" d="M325,77 l0,-10 -15,-15 -25,-11 -36,-9 -42,-4 -45,0 -41,4 -37,9 -24,11 -13,15 0,10 278,0z" />
<path style="fill:#73a6a6" d="M306,77 l0,-10 -11,-15 -23,-11 -30,-9 -38,-4 -38,0 -36,4 -32,9 -23,11 -11,15 0,10 242,0z" />
<path style="fill:#78abab" d="M289,77 l0,-10 -10,-15 -20,-11 -27,-9 -30,-4 -34,0 -31,4 -26,9 -19,11 -11,15 0,10 208,0z" />
<path style="fill:#7fb2b2" d="M272,77 l0,-10 -10,-15 -15,-11 -23,-9 -26,-4 -26,0 -27,4 -21,9 -17,11 -8,15 0,10 173,0z" />
<path style="fill:#85b8b8" d="M253,77 l0,-10 -8,-15 -11,-11 -17,-9 -21,-4 -23,0 -20,4 -17,9 -12,11 -7,15 0,10 136,0z" />
<path style="fill:#8cbfbf" d="M236,77 l0,-10 -6,-15 -9,-11 -14,-9 -15,-4 -15,0 -15,4 -13,9 -10,11 -3,15 0,10 100,0z" />
<path style="fill:#91c4c4" d="M217,77 l0,-10 -2,-15 -6,-11 -9,-9 -9,-4 -12,0 -9,4 -8,9 -6,11 -3,15 0,10 64,0z" />
<path style="fill:#9cc" d="M200,77 l0,-10 -2,-15 -2,-11 -4,-8 -5,-5 -4,0 -4,5 -4,8 -3,11 -2,15 0,10 30,0z" />
<path style="fill:none;stroke:#000;stroke-width:2" d="M342,77 l0,-10 -15,-15 -29,-11 -41,-8 -48,-5 -49,0 -47,5 -40,8 -30,11 -15,15 0,10 314,0" />
<path style="fill:#366;stroke:#000;stroke-width:2" d="M206,58 l-21,0 0,87 21,0 0,-87z" />

</svg>
