 

<svg xmlns:agg="http://www.example.com" xmlns="http://www.w3.org/2000/svg" preserveAspectRatio="none" width="0.4928in" height="1.0750in" viewBox="0 0 458 999">

<path style="fill:#666;stroke:#000;stroke-width:2" d="M62,720 l0,17 333,0 0,-17 -333,0z" />
<path style="fill:#666;stroke:#000;stroke-width:2" d="M405,590 l-19,0 9,352 19,0 -9,-352z" />
<path style="fill:#666;stroke:#000;stroke-width:2" d="M52,590 l19,0 -9,352 -19,0 9,-352z" />
<path style="fill:#7f7f7f" d="M318,850 l-70,0 0,-191 21,0 0,-39 -81,0 0,39 21,0 0,191 -70,0 0,39 179,0 0,-39z" />
<path style="fill:#8c8c8c" d="M305,850 l-60,0 0,-191 18,0 0,-39 -69,0 0,39 17,0 0,191 -59,0 0,39 153,0 0,-39z" />
<path style="fill:#999" d="M292,850 l-49,0 0,-191 13,0 0,-39 -57,0 0,39 15,0 0,191 -49,0 0,39 127,0 0,-39z" />
<path style="fill:#a6a6a6" d="M278,850 l-39,0 0,-191 11,0 0,-39 -43,0 0,39 11,0 0,191 -39,0 0,39 99,0 0,-39z" />
<path style="fill:#b2b2b2" d="M265,850 l-28,0 0,-191 8,0 0,-39 -32,0 0,39 7,0 0,191 -28,0 0,39 73,0 0,-39z" />
<path style="fill:#bfbfbf" d="M252,850 l-19,0 0,-191 6,0 0,-39 -21,0 0,39 6,0 0,191 -19,0 0,39 47,0 0,-39z" />
<path style="fill:#ccc" d="M239,850 l-8,0 0,-191 2,0 0,-39 -9,0 0,39 2,0 0,191 -8,0 0,39 21,0 0,-39z" />
<path style="fill:none;stroke:#000;stroke-width:2" d="M318,850 l-70,0 0,-191 21,0 0,-39 -81,0 0,39 21,0 0,191 -70,0 0,39 179,0 0,-39" />
<path style="fill:#99948a;stroke:#000;stroke-width:2" d="M230,629 l-202,-39 401,0 -199,39z" />
<path style="fill:#e5e0d6" d="M429,288 l-401,0 0,302 401,0 0,-302z" />
<path style="fill:#f2ede3" d="M429,288 l-401,0 202,151 199,-151z" />
<path style="fill:#d9d4ca" d="M230,439 l-202,151 401,0 -199,-151z" />
<path style="fill:none;stroke:#000;stroke-width:2" d="M429,288 l-401,0 0,302 401,0 0,-302" />
<path style="fill:#72727f" d="M348,278 l0,-9 -239,0 0,9 239,0z" />
<path style="fill:#7f7f8c" d="M339,278 l0,-9 -219,0 0,9 219,0z" />
<path style="fill:#8c8c99" d="M328,278 l0,-9 -199,0 0,9 199,0z" />
<path style="fill:#9999a6" d="M316,278 l0,-9 -175,0 0,9 175,0z" />
<path style="fill:#a5a5b2" d="M307,278 l0,-9 -155,0 0,9 155,0z" />
<path style="fill:#b2b2bf" d="M295,278 l0,-9 -133,0 0,9 133,0z" />
<path style="fill:#bfbfcc" d="M284,278 l0,-9 -111,0 0,9 111,0z" />
<path style="fill:#ccccd9" d="M275,278 l0,-9 -91,0 0,9 91,0z" />
<path style="fill:#d8d8e5" d="M263,278 l0,-9 -69,0 0,9 69,0z" />
<path style="fill:#e5e5f2" d="M252,278 l0,-9 -47,0 0,9 47,0z" />
<path style="fill:#f2f2ff" d="M243,278 l0,-9 -29,0 0,9 29,0z" />
<path style="fill:none;stroke:#000;stroke-width:2" d="M348,278 l0,-9 -239,0 0,9 239,0" />
<path style="fill:#bfbfcc;stroke:#000;stroke-width:2" d="M420,278 l-381,0 0,10 381,0 0,-10z" />
<path style="fill:#333;stroke:#000;stroke-width:2" d="M309,850 l0,-100 -161,0 0,100 161,0z" />
<path style="fill:#999" d="M233,850 l0,-100 -9,0 0,100 9,0z" />
<path style="fill:#8c8c8c" d="M254,850 l0,-100 -9,0 0,100 9,0z" />
<path style="fill:#8c8c8c" d="M214,850 l0,-100 -11,0 0,100 11,0z" />
<path style="fill:#666" d="M173,850 l0,-100 -10,0 0,100 10,0z" />
<path style="fill:#7f7f7f" d="M194,850 l0,-100 -10,0 0,100 10,0z" />
<path style="fill:#4c4c4c" d="M154,850 l0,-100 -11,0 0,100 11,0z" />
<path style="fill:#666" d="M293,850 l0,-100 -9,0 0,100 9,0z" />
<path style="fill:#4c4c4c" d="M314,850 l0,-100 -11,0 0,100 11,0z" />
<path style="fill:#7f7f7f" d="M275,850 l0,-100 -12,0 0,100 12,0z" />
<path style="fill:#ccc;stroke:#000;stroke-width:2" d="M48,729 l0,21 360,0 0,-21 -360,0z" />
<path style="fill:#ccc;stroke:#000;stroke-width:2" d="M420,590 l-21,0 9,380 21,0 -9,-380z" />
<path style="fill:#ccc;stroke:#000;stroke-width:2" d="M39,590 l19,0 -10,380 -20,0 11,-380z" />
<path style="fill:#ccc;stroke:#000;stroke-width:2" d="M348,269 l66,-241 10,0 -61,250 -15,0 0,-9z" />
<path style="fill:#e5e5e5;stroke:#000;stroke-width:2" d="M388,230 l15,-27 11,-32 10,-34 5,-34 0,-30 -4,-23 -9,-15 -13,-2 -13,6 -17,19 -15,26 -12,31 -9,35 -6,34 0,30 6,23 8,13 13,4 15,-8 15,-16z" />
<path style="fill:#ccc" d="M386,216 l13,-22 11,-27 8,-30 4,-28 0,-27 -4,-20 -8,-12 -9,-3 -13,7 -13,15 -13,23 -12,26 -7,30 -4,31 0,24 4,21 7,11 12,4 11,-8 13,-15z" />
<path style="fill:#bfbfbf" d="M388,213 l11,-21 9,-25 8,-28 6,-26 0,-25 -4,-19 -8,-9 -9,-4 -13,6 -12,15 -13,21 -9,24 -8,28 -3,27 0,24 3,19 8,11 9,2 12,-5 13,-15z" />
<path style="fill:#b2b2b2" d="M388,209 l11,-19 9,-23 8,-26 4,-25 0,-22 -4,-17 -6,-10 -9,-2 -11,6 -12,11 -11,21 -9,23 -8,26 -2,25 -2,22 4,17 8,10 9,2 9,-6 12,-13z" />
<path style="fill:#a6a6a6" d="M390,207 l11,-19 7,-21 6,-22 4,-25 0,-19 -2,-17 -8,-7 -7,-4 -10,6 -11,11 -9,19 -9,20 -6,25 -4,23 0,19 4,17 6,7 7,4 11,-6 10,-11z" />
<path style="fill:#999" d="M391,203 l10,-17 7,-19 6,-21 2,-20 0,-19 -2,-15 -6,-8 -7,-2 -10,4 -9,12 -9,15 -8,20 -5,21 -2,21 0,19 2,13 5,9 8,2 9,-4 9,-11z" />
<path style="fill:#8c8c8c" d="M391,199 l10,-15 6,-17 5,-19 4,-19 0,-16 -4,-14 -4,-5 -7,-2 -8,4 -9,9 -8,15 -7,17 -6,19 -1,19 0,17 1,11 6,8 7,2 8,-4 7,-10z" />
<path style="fill:#7f7f7f" d="M393,196 l8,-12 6,-17 5,-17 2,-17 0,-13 -2,-11 -4,-8 -7,-2 -8,4 -7,10 -6,13 -7,15 -4,17 -2,17 0,13 2,11 4,8 5,2 8,-4 7,-9z" />

</svg>
