 

<svg xmlns:agg="http://www.example.com" xmlns="http://www.w3.org/2000/svg" preserveAspectRatio="none" width="1.6083in" height="0.6327in" viewBox="0 0 999 393">

<path style="fill:#000" d="M107,225 l30,0 0,-34 -30,0 0,34z" />
<path style="fill:#000" d="M137,225 l30,0 0,-24 -30,0 0,24z" />
<path style="fill:#000" d="M167,216 l595,0 0,-6 -595,0 0,6z" />
<path style="fill:#e5e5e5" d="M801,37 l-386,0 -20,19 -313,0 -24,24 0,145 9,0 0,-139 21,-19 713,0 0,-30z" />
<path style="fill:#000" d="M464,365 l497,0 0,-10 -497,0 0,10z" />
<path style="fill:#0cf" d="M801,28 l160,0 0,327 -160,0 0,-327z" />
<path style="fill:#00c7fa" d="M801,212 l160,-68 0,211 -160,0 0,-143z" />
<path style="fill:#00c2f5" d="M801,233 l160,-76 0,198 -160,0 0,-122z" />
<path style="fill:#00bdf0" d="M801,254 l160,-76 0,177 -160,0 0,-101z" />
<path style="fill:none;stroke:#000;stroke-width:2" d="M801,28 l160,0 0,327 -160,0 0,-327" />
<path style="fill:#0cf" d="M801,67 l-713,0 -21,19 0,139 40,0 0,-39 694,0 0,-119z" />
<path style="fill:#00c7fa" d="M67,167 l0,58 40,0 0,-39 694,0 0,-100 -734,81z" />
<path style="fill:#00c2f5" d="M67,176 l0,49 40,0 0,-39 694,0 0,-89 -734,79z" />
<path style="fill:#00bdf0" d="M67,186 l0,39 40,0 0,-39 694,0 0,-79 -734,79z" />
<path style="fill:none;stroke:#000;stroke-width:2" d="M801,67 l-713,0 -21,19 0,139 40,0 0,-39 694,0 0,-119" />
<path style="fill:#0cf;stroke:#000;stroke-width:2" d="M970,37 l-9,0 0,307 9,0 0,-307z" />
<path style="fill:#0cf;stroke:#000;stroke-width:2" d="M28,225 l0,100 39,40 397,0 0,-140 -436,0z" />
<path style="fill:#0cf;stroke:#000;stroke-width:2" d="M464,355 l337,0 0,-130 -337,0 0,130z" />
<path style="fill:#ff8c40" d="M801,46 l-397,0 -9,10 406,0 0,-10z" />
<path style="fill:none;stroke:#000;stroke-width:2" d="M801,37 l-386,0 -20,19 -313,0 -24,24 0,145 9,0 0,-139 21,-19 713,0 0,-30" />
<path style="fill:#e5e5e5" d="M464,210 l0,-85 19,-18 260,0 19,18 0,85 -298,0z" />
<path style="fill:#e0e0e0" d="M464,210 l0,-32 298,-43 0,75 -298,0z" />
<path style="fill:#dbdbdb" d="M464,210 l0,-28 298,-43 0,71 -298,0z" />
<path style="fill:#d6d6d6" d="M464,210 l0,-22 298,-44 0,66 -298,0z" />
<path style="fill:#f2f2f2" d="M464,125 l19,-18 260,0 19,18 -298,0z" />
<path style="fill:none;stroke:#000;stroke-width:2" d="M464,210 l0,-85 19,-18 260,0 19,18 0,85 -298,0" />
<path style="fill:none;stroke:#7f7f7f;stroke-width:2" d="M492,210 l0,-85 4,-18" />
<path style="fill:none;stroke:#7f7f7f;stroke-width:2" d="M735,210 l0,-85 -5,-18" />
<path style="fill:#4c4c4c" d="M767,216 l6,0 0,6 -6,0 0,-6z" />
<path style="fill:#4c4c4c" d="M767,191 l6,0 0,4 -6,0 0,-4z" />
<path style="fill:#4c4c4c" d="M116,225 l39,0 0,-19 -39,0 0,19z" />
<path style="fill:#e5e5e5" d="M822,92 l118,0 0,118 -118,0 0,-118z" />
<path style="fill:none;stroke:#fff;stroke-width:2" d="M822,210 l0,-118 118,0" />
<path style="fill:none;stroke:#000;stroke-width:2" d="M940,92 l0,118 -118,0" />
<path style="fill:#7f7f7f" d="M831,101 l100,0 0,64 -100,0 0,-64z" />
<path style="fill:#7f7f7f" d="M831,171 l100,0 0,20 -100,0 0,-20z" />
<path style="fill:#333" d="M839,107 l52,0 0,34 -52,0 0,-34z" />
<path style="fill:#fc0" d="M762,71 l37,0 0,15 -37,0 0,-15z" />
<path style="fill:#333" d="M839,107 l52,0 0,34 -52,0 0,-34z" />
<path style="fill:#09c" d="M474,225 l327,0 0,10 -327,0 0,-10z" />
<path style="fill:#09c" d="M107,250 l357,0 0,11 -357,0 0,-11z" />
<path style="fill:#33d6ff;stroke:#000;stroke-width:2" d="M107,225 l367,0 0,25 -367,0 0,-25z" />
<path style="fill:#b2b2b2;stroke:#000;stroke-width:2" d="M167,216 l595,0 0,9 -595,0 0,-9z" />
<path style="fill:#e5e5e5;stroke:#000;stroke-width:2" d="M762,225 l0,-39 39,0 0,39 -39,0z" />
<path style="fill:#4c4c4c" d="M521,186 l0,-19 54,0 0,19 -54,0z" />
<path style="fill:#4c4c4c" d="M474,201 l3,0 0,5 -3,0 0,-5z" />
<path style="fill:#4c4c4c" d="M474,152 l3,0 0,3 -3,0 0,-3z" />
<path style="fill:#4c4c4c" d="M474,137 l3,0 0,4 -3,0 0,-4z" />
<path style="fill:#4c4c4c" d="M792,216 l5,0 0,6 -5,0 0,-6z" />
<path style="fill:#4c4c4c" d="M792,191 l5,0 0,4 -5,0 0,-4z" />
<path style="fill:#4c4c4c" d="M807,325 l5,0 0,6 -5,0 0,-6z" />
<path style="fill:#4c4c4c" d="M807,56 l5,0 0,6 -5,0 0,-6z" />
<path style="fill:#4c4c4c" d="M807,195 l5,0 0,6 -5,0 0,-6z" />
<path style="fill:#4c4c4c" d="M180,92 l-4,-2 0,-6 4,-2 4,0 2,2 0,6 -2,2 -4,0z" />
<path style="fill:#4c4c4c" d="M701,92 l-3,-2 0,-6 3,-2 4,0 2,2 0,6 -2,2 -4,0z" />
<path style="fill:none;stroke:#069;stroke-width:2" d="M206,365 l0,-115" />
<path style="fill:none;stroke:#069;stroke-width:2" d="M385,365 l0,-115" />
<path style="fill:none;stroke:#069;stroke-width:2" d="M703,355 l0,-130" />
<path style="fill:none;stroke:#069;stroke-width:2" d="M762,355 l0,-130" />
<path style="fill:none;stroke:#069;stroke-width:2" d="M197,285 l0,50 -70,0" />
<path style="fill:none;stroke:#7fe5ff;stroke-width:2" d="M127,335 l0,-50 70,0" />

</svg>
