 

<svg xmlns:agg="http://www.example.com" xmlns="http://www.w3.org/2000/svg" preserveAspectRatio="none" width="1.4224in" height="1.0750in" viewBox="0 0 999 755">

<path style="fill:#33260d;stroke:#000;stroke-width:2" d="M190,28 l750,0 0,9 -750,0 0,-9z" />
<path style="fill:#f2e5cc" d="M190,37 l729,0 0,690 -729,0 0,-690z" />
<path style="fill:#ede0c7" d="M190,527 l729,-288 0,488 -729,0 0,-200z" />
<path style="fill:#e8dbc2" d="M190,556 l729,-289 0,460 -729,0 0,-171z" />
<path style="fill:#e3d6bd" d="M190,599 l729,-289 0,417 -729,0 0,-128z" />
<path style="fill:#d9ccb3" d="M331,565 l-141,-243 0,-62 183,305 -42,0z" />
<path style="fill:none;stroke:#000;stroke-width:2" d="M190,37 l729,0 0,690 -729,0 0,-690" />
<path style="fill:#d9ccb3" d="M595,79 l285,0 -12,39 -282,0 9,-39z" />
<path style="fill:#d9ccb3" d="M220,118 l285,0 -12,42 -282,0 9,-42z" />
<path style="fill:none;stroke:#d9ccb3;stroke-width:2" d="M586,130 l282,0" />
<path style="fill:none;stroke:#d9ccb3;stroke-width:2" d="M211,169 l282,0" />
<path style="fill:none;stroke:#d9ccb3;stroke-width:2" d="M231,361 l688,0" />
<path style="fill:none;stroke:#d9ccb3;stroke-width:2" d="M556,565 l0,-528" />
<path style="fill:#bfb299;stroke:#000;stroke-width:2" d="M190,727 l0,-162 -40,-204 -122,0 0,-101 141,0 183,305 547,0 0,162 -709,0z" />
<path style="fill:#665940;stroke:#000;stroke-width:2" d="M899,565 l41,0 0,162 -41,0 0,-162z" />
<path style="fill:#d9ccb3;stroke:#000;stroke-width:2" d="M919,37 l21,0 0,528 -21,0 0,-528z" />
<path style="fill:none;stroke:#998c73;stroke-width:2" d="M190,565 l162,0" />
<path style="fill:#ccc" d="M37,271 l62,0 0,30 -62,0 0,-30z" />
<path style="fill:#33260d;stroke:#000;stroke-width:2" d="M454,322 l222,0 0,232 -222,0 0,-232z" />
<path style="fill:#665940" d="M474,472 l183,0 0,82 -183,0 0,-82z" />
<path style="fill:#bfb299" d="M493,433 l144,0 20,21 -183,0 19,-21z" />
<path style="fill:#998c73;stroke:#000;stroke-width:2" d="M454,554 l20,0 0,-232 -20,0 0,232z" />
<path style="fill:#998c73;stroke:#000;stroke-width:2" d="M474,472 l183,0 0,-18 -183,0 0,18z" />
<path style="fill:#998c73;stroke:#000;stroke-width:2" d="M655,554 l21,0 0,-232 -21,0 0,232z" />
<path style="fill:#998c73" d="M493,433 l0,-111 -9,0 0,120 9,-9z" />
<path style="fill:#998c73" d="M637,433 l0,-111 9,0 0,120 -9,-9z" />
<path style="fill:#ccc" d="M552,442 l-17,-17 0,-26 17,-17 26,0 17,17 0,26 -17,17 -26,0z" />
<path style="fill:#b2b2b2" d="M552,442 l-17,-17 60,-26 0,26 -17,17 -26,0z" />
<path style="fill:none;stroke:#000;stroke-width:2" d="M552,442 l-17,-17 0,-26 17,-17 26,0 17,17 0,26 -17,17 -26,0" />
<path style="fill:#d9ccb3;stroke:#000;stroke-width:2" d="M474,454 l10,0 0,-132 -10,0 0,132z" />
<path style="fill:#d9ccb3;stroke:#000;stroke-width:2" d="M646,454 l9,0 0,-132 -9,0 0,132z" />
<path style="fill:#998c73" d="M808,524 l21,122 120,0 21,-122 -162,0z" />
<path style="fill:#d9ccb3" d="M808,524 l0,-40 162,0 0,40 -162,0z" />
<path style="fill:#f2e5cc" d="M829,422 l-21,62 162,0 -21,-62 -120,0z" />
<path style="fill:none;stroke:#000;stroke-width:2" d="M808,524 l21,122 120,0 21,-122 0,-40 -21,-62 -120,0 -21,62 0,40" />
<path style="fill:#33260d" d="M859,439 l-11,30 81,0 -10,-30 -60,0z" />
<path style="fill:none;stroke:#000;stroke-width:2" d="M829,503 l17,0" />
<path style="fill:none;stroke:#000;stroke-width:2" d="M863,503 l17,0" />
<path style="fill:none;stroke:#000;stroke-width:2" d="M899,503 l16,0" />
<path style="fill:none;stroke:#000;stroke-width:2" d="M932,503 l17,0" />
<path style="fill:#000" d="M880,601 l-12,-11 0,-16 12,-9 17,0 13,9 0,16 -13,11 -17,0z" />
<path style="fill:#ccc" d="M883,595 l-9,-7 0,-12 9,-7 12,0 9,7 0,12 -9,7 -12,0z" />
<path style="fill:#000" d="M885,591 l-7,-5 0,-8 7,-5 8,0 6,5 0,8 -6,5 -8,0z" />
<path style="fill:#665940;stroke:#000;stroke-width:2" d="M180,697 l19,0 0,30 -19,0 0,-30z" />
<path style="fill:#33260d;stroke:#000;stroke-width:2" d="M874,646 l40,0 26,51 -41,0 -25,-51z" />

</svg>
