 

<svg xmlns:agg="http://www.example.com" xmlns="http://www.w3.org/2000/svg" preserveAspectRatio="none" width="1.0750in" height="1.0750in" viewBox="0 0 999 999">

<path style="fill:#e5e5e5" d="M46,343 l-19,471 19,136 297,21 312,0 297,-21 19,-136 -19,-471 -906,0z" />
<path style="fill:#e0e0e0" d="M27,814 l19,136 297,21 312,0 297,-21 19,-136 -944,0z" />
<path style="fill:#32b2b2" d="M33,765 l932,0 0,-30 -932,0 0,30z" />
<path style="fill:#000" d="M416,961 l4,0 0,4 -4,0 0,-4z" />
<path style="fill:#000" d="M416,912 l4,0 0,6 -4,0 0,-6z" />
<path style="fill:#000" d="M416,865 l4,0 0,6 -4,0 0,-6z" />
<path style="fill:#000" d="M416,818 l4,0 0,4 -4,0 0,-4z" />
<path style="fill:#000" d="M416,769 l4,0 0,5 -4,0 0,-5z" />
<path style="fill:#000" d="M597,961 l6,0 0,4 -6,0 0,-4z" />
<path style="fill:#000" d="M597,912 l6,0 0,6 -6,0 0,-6z" />
<path style="fill:#000" d="M597,865 l6,0 0,6 -6,0 0,-6z" />
<path style="fill:#000" d="M597,818 l6,0 0,4 -6,0 0,-4z" />
<path style="fill:#000" d="M597,769 l6,0 0,5 -6,0 0,-5z" />
<path style="fill:#000" d="M482,769 l6,0 0,5 -6,0 0,-5z" />
<path style="fill:#000" d="M508,769 l6,0 0,5 -6,0 0,-5z" />
<path style="fill:none;stroke:#b2b2b2;stroke-width:2" d="M612,971 l0,-206" />
<path style="fill:none;stroke:#b2b2b2;stroke-width:2" d="M401,971 l0,-206" />
<path style="fill:none;stroke:#b2b2b2;stroke-width:2" d="M46,931 l355,0" />
<path style="fill:none;stroke:#b2b2b2;stroke-width:2" d="M616,931 l336,0" />
<path style="fill:none;stroke:#fff;stroke-width:2" d="M616,971 l0,-206" />
<path style="fill:none;stroke:#fff;stroke-width:2" d="M405,971 l0,-206" />
<path style="fill:none;stroke:#4c4c4c;stroke-width:2" d="M303,695 l0,-315 392,0" />
<path style="fill:none;stroke:#b2b2b2;stroke-width:2" d="M499,380 l0,315" />
<path style="fill:none;stroke:#fff;stroke-width:2" d="M695,380 l0,315 -392,0" />
<path style="fill:#e5e5e5" d="M361,27 l157,0 0,316 -157,0 0,-316z" />
<path style="fill:#e0e0e0" d="M361,250 l157,-130 0,223 -157,0 0,-93z" />
<path style="fill:#dbdbdb" d="M361,263 l157,-130 0,210 -157,0 0,-80z" />
<path style="fill:#d6d6d6" d="M361,284 l157,-132 0,191 -157,0 0,-59z" />
<path style="fill:none;stroke:#000;stroke-width:2" d="M361,27 l157,0 0,316 -157,0 0,-316" />
<path style="fill:#e5e5e5" d="M205,282 l156,0 0,61 -156,0 0,-61z" />
<path style="fill:none;stroke:#000;stroke-width:2" d="M46,343 l-19,471 19,136 297,21 312,0 297,-21 19,-136 -19,-471 -906,0" />
<path style="fill:#000" d="M480,578 l0,-79 10,0 0,79 -10,0z" />
<path style="fill:#000" d="M508,578 l0,-79 10,0 0,79 -10,0z" />
<path style="fill:#7f7f7f" d="M335,655 l-13,-11 0,-211 13,-13 113,0 11,13 0,211 -11,11 -113,0z" />
<path style="fill:#7f7f7f" d="M550,655 l-11,-11 0,-211 11,-13 113,0 13,13 0,211 -13,11 -113,0z" />
<path style="fill:#333" d="M556,650 l-12,-11 0,-204 14,-11 100,0 11,11 2,204 -12,11 -103,0z" />
<path style="fill:#333" d="M339,650 l-12,-11 2,-204 11,-11 100,0 12,11 2,204 -12,11 -103,0z" />
<path style="fill:none;stroke:#b2b2b2;stroke-width:2" d="M350,595 l83,-107" />
<path style="fill:none;stroke:#b2b2b2;stroke-width:2" d="M359,542 l57,-71" />
<path style="fill:none;stroke:#b2b2b2;stroke-width:2" d="M339,476 l32,-36" />
<path style="fill:none;stroke:#b2b2b2;stroke-width:2" d="M565,595 l83,-107" />
<path style="fill:none;stroke:#b2b2b2;stroke-width:2" d="M577,542 l56,-71" />
<path style="fill:none;stroke:#b2b2b2;stroke-width:2" d="M556,476 l30,-36" />
<path style="fill:#b2b2b2;stroke:#7f7f7f;stroke-width:2" d="M401,144 l79,0 0,80 -79,0 0,-80z" />
<path style="fill:#b2b2b2;stroke:#7f7f7f;stroke-width:2" d="M263,282 l40,0 0,21 -40,0 0,-21z" />
<path style="fill:none;stroke:#000;stroke-width:2" d="M205,282 l156,0 0,61 -156,0 0,-61" />
<path style="fill:none;stroke:#000;stroke-width:2" d="M704,493 l0,15 89,10 0,-19" />
<path style="fill:#e5e5e5;stroke:#000;stroke-width:2" d="M518,243 l211,-29 0,29 -211,20 0,-20z" />
<path style="fill:#fff;stroke:#000;stroke-width:2" d="M769,214 l-40,0 0,29 40,0 0,-29z" />
<path style="fill:#ccc" d="M765,244 l-30,0 0,132 30,0 0,-132z" />
<path style="fill:#e5e5e5" d="M761,244 l-22,0 0,132 22,0 0,-132z" />
<path style="fill:#f2f2f2" d="M757,244 l-15,0 0,132 15,0 0,-132z" />
<path style="fill:#fff" d="M754,244 l-8,0 0,132 8,0 0,-132z" />
<path style="fill:none;stroke:#000;stroke-width:2" d="M765,244 l-30,0 0,132 30,0 0,-132" />
<path style="fill:#ccc;stroke:#000;stroke-width:2" d="M686,376 l118,-9 0,138 -118,-12 0,-117z" />
<path style="fill:#fff;stroke:#000;stroke-width:2" d="M823,376 l-19,-9 0,138 19,-12 0,-117z" />
<path style="fill:#666" d="M706,388 l76,-6 0,89 -76,-8 0,-75z" />
<path style="fill:#333" d="M710,391 l68,-5 0,79 -68,-6 0,-68z" />
<path style="fill:none;stroke:#7f7f7f;stroke-width:2" d="M686,469 l117,11" />
<path style="fill:none;stroke:#7f7f7f;stroke-width:2" d="M741,499 l0,-24" />

</svg>
