 

<svg xmlns:agg="http://www.example.com" xmlns="http://www.w3.org/2000/svg" preserveAspectRatio="none" width="1.3193in" height="1.0750in" viewBox="0 0 999 814">

<path style="fill:#7f0000" d="M807,28 l-82,0 0,266 82,0 0,-266z" />
<path style="fill:#8f0000" d="M799,28 l-68,0 0,266 68,0 0,-266z" />
<path style="fill:#9e0000" d="M792,28 l-53,0 0,266 53,0 0,-266z" />
<path style="fill:#b00000" d="M782,28 l-36,0 0,266 36,0 0,-266z" />
<path style="fill:#bf0000" d="M776,28 l-20,0 0,266 20,0 0,-266z" />
<path style="fill:none;stroke:#000;stroke-width:2" d="M807,28 l-82,0 0,266 82,0 0,-266" />
<path style="fill:none;stroke:#000;stroke-width:2" d="M950,765 l0,-450" />
<path style="fill:none;stroke:#000;stroke-width:2" d="M847,294 l0,450" />
<path style="fill:#8c0000;stroke:#000;stroke-width:2" d="M756,191 l-115,0 0,103 115,0 0,-103z" />
<path style="fill:#7f0000;stroke:#000;stroke-width:2" d="M622,252 l-41,0 0,42 41,0 0,-42z" />
<path style="fill:#900;stroke:#000;stroke-width:2" d="M602,273 l-432,0 0,21 432,0 0,-21z" />
<path style="fill:#4c0000;stroke:#000;stroke-width:2" d="M847,744 l-656,0 0,42 656,0 0,-42z" />
<path style="fill:none;stroke:#000;stroke-width:2" d="M170,417 l-142,0 0,327 142,0 0,-327" />
<path style="fill:#7f0000;stroke:#000;stroke-width:2" d="M961,315 l-93,0 0,441 93,0 0,-441z" />
<path style="fill:#7f0000" d="M868,294 l-698,0 0,123 -142,0 0,327 840,0 0,-450z" />
<path style="fill:#7a0000" d="M868,541 l-698,-165 0,368 698,0 0,-203z" />
<path style="fill:#750000" d="M868,560 l-698,-164 0,348 698,0 0,-184z" />
<path style="fill:#700000" d="M868,602 l-698,-166 0,308 698,0 0,-142z" />
<path style="fill:none;stroke:#000;stroke-width:2" d="M868,294 l-698,0 0,123 -142,0 0,327 840,0 0,-450" />
<path style="fill:#4c0000" d="M208,634 l10,4 11,0 12,-4 7,-4 10,-8 13,-45 2,-12 0,-11 -2,-9 -6,-10 -7,-7 -10,-6 -11,-2 -10,0 -11,2 -10,6 -7,7 -14,46 -2,11 0,10 2,11 6,9 8,8 9,4z" />
<circle style="fill:#8c0000;stroke:#000;stroke-width:2" cx="232" cy="561" r="41" />
<path style="fill:none;stroke:#4c0000;stroke-width:2" d="M170,744 l0,-327" />
<path style="fill:none;stroke:#b20000;stroke-width:2" d="M170,303 l698,0" />
<path style="fill:#4c0000" d="M140,448 l-21,0 0,245 21,0 0,-245z" />
<path style="fill:#900;stroke:#4c0000;stroke-width:2" d="M149,436 l-19,0 0,247 19,0 0,-247z" />
<path style="fill:#7f0000;stroke:#000;stroke-width:2" d="M961,315 l9,0 0,450 -9,0 0,-450z" />
<path style="fill:#191919" d="M928,355 l-39,0 0,165 39,0 0,-165z" />
<path style="fill:none;stroke:#fff;stroke-width:2" d="M919,376 l-21,0" />
<path style="fill:none;stroke:#fff;stroke-width:2" d="M919,387 l-21,0" />
<path style="fill:none;stroke:#fff;stroke-width:2" d="M898,406 l-9,0" />
<path style="fill:none;stroke:#fff;stroke-width:2" d="M919,427 l-10,0" />
<path style="fill:none;stroke:#fff;stroke-width:2" d="M928,478 l-9,0" />
<path style="fill:#bf0000;stroke:#000;stroke-width:2" d="M541,273 l-165,-40 -21,0 0,40 21,0 0,-31 133,31 32,0z" />
<circle style="fill:#a60000" cx="233" cy="557" r="25" />

</svg>
