 

<svg xmlns:agg="http://www.example.com" xmlns="http://www.w3.org/2000/svg" preserveAspectRatio="none" width="1.2204in" height="1.0750in" viewBox="0 0 999 880">

<path style="fill:#366" d="M46,649 l-18,-17 0,-55 18,-19 110,0 0,91 -110,0z" />
<path style="fill:#194c4c;stroke:#000;stroke-width:2" d="M230,733 l-146,-55 0,-29 146,0 0,84z" />
<path style="fill:#699" d="M156,642 l0,-74 74,0 0,74 -74,0z" />
<path style="fill:#9cc" d="M156,568 l0,-36 74,0 0,36 -74,0z" />
<path style="fill:#b2e5e5" d="M156,549 l0,-9 74,0 0,9 -74,0z" />
<path style="fill:none;stroke:#000;stroke-width:2" d="M156,642 l0,-110 74,0 0,110 -74,0" />
<path style="fill:#457878" d="M46,643 l-16,-16 0,-46 16,-15 110,0 0,77 -110,0z" />
<path style="fill:#548787" d="M46,636 l-16,-13 0,-38 16,-13 110,0 0,64 -110,0z" />
<path style="fill:#699" d="M46,629 l-16,-10 0,-30 16,-10 110,0 0,50 -110,0z" />
<path style="fill:#78abab" d="M46,623 l-16,-8 0,-22 16,-8 110,0 0,38 -110,0z" />
<path style="fill:#87baba" d="M46,615 l-16,-3 0,-16 16,-3 110,0 0,22 -110,0z" />
<path style="fill:#9cc" d="M46,608 l-18,0 0,-6 18,-2 110,0 0,8 -110,0z" />
<path style="fill:none;stroke:#000;stroke-width:2" d="M46,649 l-18,-17 0,-55 18,-19 110,0 0,91 -110,0" />
<path style="fill:none;stroke:#000;stroke-width:2" d="M65,587 l91,0" />
<path style="fill:none;stroke:#000;stroke-width:2" d="M65,649 l0,-91" />
<path style="fill:#699;stroke:#000;stroke-width:2" d="M230,678 l0,-110 -36,55 -110,55 146,0z" />
<path style="fill:#033" d="M870,421 l-9,411 73,0 -3,-411 -61,0z" />
<path style="fill:#033" d="M235,421 l-5,411 73,0 -9,-411 -59,0z" />
<path style="fill:#033" d="M211,832 l109,0 0,6 -109,0 0,-6z" />
<path style="fill:#033" d="M844,832 l109,0 0,6 -109,0 0,-6z" />
<path style="fill:#699" d="M239,211 l0,45 -13,0 0,93 13,0 0,45 13,0 0,-45 46,0 0,196 38,0 0,-196 13,0 0,187 32,0 0,13 447,0 38,-17 0,-183 46,0 0,45 13,0 0,-45 15,0 0,-93 -15,0 0,-45 -13,0 0,45 -46,0 0,-183 -38,-17 -447,0 0,13 -32,0 0,187 -13,0 0,-192 -38,0 0,192 -46,0 0,-45 -13,0z" />
<path style="fill:#9cc" d="M870,421 l6,421 72,0 -17,-421 -61,0z" />
<path style="fill:#9cc" d="M235,421 l-19,421 74,0 4,-421 -59,0z" />
<path style="fill:#6b9e9e" d="M239,217 l0,41 -13,0 0,87 13,0 0,44 13,0 0,-44 46,0 0,185 38,0 0,-185 13,0 0,178 32,0 0,11 450,0 35,-17 0,-172 46,0 0,44 13,0 0,-44 15,0 0,-87 -15,0 0,-41 -13,0 0,41 -46,0 0,-172 -35,-17 -450,0 0,14 -32,0 0,175 -13,0 0,-179 -38,0 0,179 -46,0 0,-41 -13,0z" />
<path style="fill:#73a6a6" d="M239,220 l0,42 -13,0 0,81 13,0 0,40 13,0 0,-40 46,0 0,174 38,0 0,-174 13,0 0,166 32,0 0,12 450,0 35,-17 0,-161 46,0 0,40 13,0 0,-40 15,0 0,-81 -15,0 0,-42 -13,0 0,42 -46,0 0,-163 -35,-14 -450,0 0,11 -32,0 0,166 -13,0 0,-170 -38,0 0,170 -46,0 0,-42 -13,0z" />
<path style="fill:#78abab" d="M239,226 l0,38 -13,0 0,75 13,0 0,38 13,0 0,-38 46,0 0,163 38,0 0,-163 13,0 0,156 32,0 0,11 450,0 35,-16 0,-151 46,0 0,38 13,0 0,-38 15,0 0,-75 -15,0 0,-38 -13,0 0,38 -46,0 0,-151 -35,-15 -450,0 0,11 -32,0 0,155 -13,0 0,-159 -38,0 0,159 -46,0 0,-38 -13,0z" />
<path style="fill:#7fb2b2" d="M239,232 l0,36 -13,0 0,69 13,0 0,35 13,0 0,-35 46,0 0,152 38,0 0,-152 13,0 0,144 32,0 0,11 450,0 35,-15 0,-140 46,0 0,35 13,0 0,-35 15,0 0,-69 -15,0 0,-36 -13,0 0,36 -46,0 0,-142 -35,-13 -450,0 0,9 -32,0 0,146 -13,0 0,-150 -38,0 0,150 -46,0 0,-36 -13,0z" />
<path style="fill:#85b8b8" d="M239,238 l0,31 -13,0 0,65 13,0 0,34 13,0 0,-34 46,0 0,140 38,0 0,-140 13,0 0,134 32,0 0,9 450,0 35,-13 0,-130 46,0 0,34 13,0 0,-34 15,0 0,-65 -15,0 0,-31 -13,0 0,31 -46,0 0,-130 -35,-13 -450,0 0,9 -32,0 0,134 -13,0 0,-135 -38,0 0,135 -46,0 0,-31 -13,0z" />
<path style="fill:#8cbfbf" d="M239,241 l0,30 -13,0 0,61 13,0 0,30 13,0 0,-30 46,0 0,128 38,0 0,-128 13,0 0,123 32,0 0,9 450,0 35,-13 0,-119 46,0 0,30 13,0 0,-30 15,0 0,-61 -15,0 0,-30 -13,0 0,30 -46,0 0,-118 -35,-12 -450,0 0,10 -32,0 0,120 -13,0 0,-124 -38,0 0,124 -46,0 0,-30 -13,0z" />
<path style="fill:#91c4c4" d="M239,247 l0,28 -13,0 0,55 13,0 0,26 13,0 0,-26 46,0 0,117 38,0 0,-117 13,0 0,111 32,0 0,8 450,0 35,-11 0,-108 46,0 0,26 13,0 0,-26 15,0 0,-55 -15,0 0,-28 -13,0 0,28 -46,0 0,-109 -35,-12 -450,0 0,10 -32,0 0,111 -13,0 0,-115 -38,0 0,115 -46,0 0,-28 -13,0z" />
<path style="fill:#9cc" d="M239,252 l0,25 -13,0 0,49 13,0 0,25 13,0 0,-25 46,0 0,106 38,0 0,-106 13,0 0,102 32,0 0,8 450,0 35,-12 0,-98 46,0 0,25 13,0 0,-25 15,0 0,-49 -15,0 0,-25 -13,0 0,25 -46,0 0,-98 -35,-9 -450,0 0,7 -32,0 0,100 -13,0 0,-102 -38,0 0,102 -46,0 0,-25 -13,0z" />
<path style="fill:#9ed1d1" d="M239,258 l0,21 -13,0 0,45 13,0 0,21 13,0 0,-21 46,0 0,95 38,0 0,-95 13,0 0,91 32,0 0,6 450,0 35,-10 0,-87 46,0 0,21 13,0 0,-21 15,0 0,-45 -15,0 0,-21 -13,0 0,21 -46,0 0,-87 -35,-9 -450,0 0,7 -32,0 0,89 -13,0 0,-91 -38,0 0,91 -46,0 0,-21 -13,0z" />
<path style="fill:#a6d9d9" d="M239,264 l0,19 -13,0 0,38 13,0 0,20 13,0 0,-20 46,0 0,83 38,0 0,-83 13,0 0,79 32,0 0,5 450,0 35,-7 0,-77 46,0 0,20 13,0 0,-20 15,0 0,-38 -15,0 0,-19 -13,0 0,19 -46,0 0,-78 -35,-7 -450,0 0,5 -32,0 0,80 -13,0 0,-81 -38,0 0,81 -46,0 0,-19 -13,0z" />
<path style="fill:#abdede" d="M239,269 l0,16 -13,0 0,34 13,0 0,17 13,0 0,-17 46,0 0,72 38,0 0,-72 13,0 0,68 32,0 0,5 450,0 35,-7 0,-66 46,0 0,17 13,0 0,-17 15,0 0,-34 -15,0 0,-16 -13,0 0,16 -46,0 0,-66 -35,-6 -450,0 0,4 -32,0 0,68 -13,0 0,-70 -38,0 0,70 -46,0 0,-16 -13,0z" />
<path style="fill:#b2e5e5" d="M239,273 l0,15 -13,0 0,29 13,0 0,13 13,0 0,-13 46,0 0,60 38,0 0,-60 13,0 0,56 32,0 0,4 450,0 35,-5 0,-55 46,0 0,13 13,0 0,-13 15,0 0,-29 -15,0 0,-15 -13,0 0,15 -46,0 0,-56 -35,-6 -450,0 0,4 -32,0 0,58 -13,0 0,-58 -38,0 0,58 -46,0 0,-15 -13,0z" />
<path style="fill:#b8ebeb" d="M239,279 l0,11 -13,0 0,23 13,0 0,11 13,0 0,-11 46,0 0,49 38,0 0,-49 13,0 0,47 32,0 0,4 450,0 35,-6 0,-45 46,0 0,11 13,0 0,-11 15,0 0,-23 -15,0 0,-11 -13,0 0,11 -46,0 0,-45 -35,-4 -450,0 0,4 -32,0 0,45 -13,0 0,-47 -38,0 0,47 -46,0 0,-11 -13,0z" />
<path style="fill:#bff2f2" d="M239,285 l0,7 -13,0 0,19 13,0 0,8 13,0 0,-8 46,0 0,38 38,0 0,-38 13,0 0,36 32,0 0,2 450,0 35,-4 0,-34 46,0 0,8 13,0 0,-8 15,0 0,-19 -15,0 0,-7 -13,0 0,7 -46,0 0,-34 -35,-4 -450,0 0,4 -32,0 0,34 -13,0 0,-36 -38,0 0,36 -46,0 0,-7 -13,0z" />
<ellipse style="fill:#c4f7f7" cx="583" cy="301" rx="357" ry="32" />
<ellipse style="fill:#cff" cx="583" cy="303" rx="357" ry="18" />
<path style="fill:none;stroke:#000;stroke-width:2" d="M866,256 l0,93" />
<path style="fill:none;stroke:#000;stroke-width:2" d="M925,349 l0,-93" />
<path style="fill:none;stroke:#000;stroke-width:2" d="M239,256 l0,93" />
<path style="fill:none;stroke:#000;stroke-width:2" d="M298,256 l0,93" />
<path style="fill:none;stroke:#000;stroke-width:2" d="M336,256 l0,93" />
<path style="fill:none;stroke:#000;stroke-width:2" d="M349,256 l0,93" />
<path style="fill:#91c4c4" d="M872,653 l4,189 72,0 -12,-285 -64,96z" />
<path style="fill:#91c4c4" d="M224,653 l-8,189 74,0 2,-285 -68,96z" />
<path style="fill:none;stroke:#000;stroke-width:2" d="M235,421 l-19,421 74,0 4,-421 -59,0" />
<path style="fill:none;stroke:#000;stroke-width:2" d="M870,421 l6,421 72,0 -17,-421 -61,0" />
<path style="fill:none;stroke:#366;stroke-width:2" d="M828,549 l0,-493" />
<path style="fill:none;stroke:#366;stroke-width:2" d="M381,536 l0,-467" />
<path style="fill:none;stroke:#cff;stroke-width:2" d="M235,714 l8,-165 38,0" />
<path style="fill:none;stroke:#366;stroke-width:2" d="M281,549 l-6,165 -40,0" />
<path style="fill:#699;stroke:#000;stroke-width:2" d="M339,285 l-41,0 0,7 41,0 0,-7z" />
<path style="fill:#699;stroke:#000;stroke-width:2" d="M339,311 l-41,0 0,10 41,0 0,-10z" />
<path style="fill:#407373;stroke:#000;stroke-width:2" d="M339,394 l-41,0 0,8 41,0 0,-8z" />
<path style="fill:#407373;stroke:#000;stroke-width:2" d="M339,203 l-41,0 0,10 41,0 0,-10z" />
<path style="fill:#194c4c;stroke:#000;stroke-width:2" d="M339,476 l-41,0 0,9 41,0 0,-9z" />
<path style="fill:#194c4c;stroke:#000;stroke-width:2" d="M339,122 l-41,0 0,10 41,0 0,-10z" />
<path style="fill:#033;stroke:#000;stroke-width:2" d="M339,532 l-41,0 0,8 41,0 0,-8z" />
<path style="fill:#033;stroke:#000;stroke-width:2" d="M339,69 l-41,0 0,10 41,0 0,-10z" />
<path style="fill:#4c7f7f;stroke:#000;stroke-width:2" d="M339,230 l-41,0 0,9 41,0 0,-9z" />
<path style="fill:#4c7f7f;stroke:#000;stroke-width:2" d="M339,366 l-41,0 0,9 41,0 0,-9z" />
<path style="fill:#366;stroke:#000;stroke-width:2" d="M339,177 l-41,0 0,7 41,0 0,-7z" />
<path style="fill:#366;stroke:#000;stroke-width:2" d="M339,421 l-41,0 0,9 41,0 0,-9z" />
<path style="fill:#265959;stroke:#000;stroke-width:2" d="M339,149 l-41,0 0,9 41,0 0,-9z" />
<path style="fill:#265959;stroke:#000;stroke-width:2" d="M339,449 l-41,0 0,10 41,0 0,-10z" />
<path style="fill:#0d4040;stroke:#000;stroke-width:2" d="M339,96 l-41,0 0,9 41,0 0,-9z" />
<path style="fill:#0d4040;stroke:#000;stroke-width:2" d="M339,504 l-41,0 0,9 41,0 0,-9z" />
<path style="fill:#699;stroke:#000;stroke-width:2" d="M194,842 l119,0 0,9 -119,0 0,-9z" />
<path style="fill:#699;stroke:#000;stroke-width:2" d="M853,842 l117,0 0,9 -117,0 0,-9z" />
<path style="fill:#598c8c" d="M674,56 l0,36 -146,0 0,-36 146,0z" />
<path style="fill:none;stroke:#000;stroke-width:2" d="M239,211 l0,45 -13,0 0,93 13,0 0,45 13,0 0,-45 46,0 0,196 38,0 0,-196 13,0 0,187 32,0 0,13 447,0 38,-17 0,-183 46,0 0,45 13,0 0,-45 15,0 0,-93 -15,0 0,-45 -13,0 0,45 -46,0 0,-183 -38,-17 -447,0 0,13 -32,0 0,187 -13,0 0,-192 -38,0 0,192 -46,0 0,-45 -13,0" />
<path style="fill:#699;stroke:#000;stroke-width:2" d="M889,202 l23,0 0,202 19,0 0,18 -61,-1 0,-17 19,0 0,-202z" />
<path style="fill:#699;stroke:#000;stroke-width:2" d="M252,202 l23,0 0,202 19,0 0,17 -61,0 2,-17 17,0 0,-202z" />
<path style="fill:#598c8c;stroke:#000;stroke-width:2" d="M339,339 l-41,0 0,8 41,0 0,-8z" />
<path style="fill:#598c8c;stroke:#000;stroke-width:2" d="M339,256 l-41,0 0,10 41,0 0,-10z" />
<path style="fill:#9cc;stroke:#000;stroke-width:2" d="M519,41 l9,0 0,15 -9,0 0,-15z" />
<path style="fill:#9cc;stroke:#000;stroke-width:2" d="M674,41 l9,0 0,15 -9,0 0,-15z" />
<path style="fill:#9cc;stroke:#000;stroke-width:2" d="M528,41 l72,-13 74,13 0,15 -146,0 0,-15z" />
<path style="fill:#699" d="M532,47 l68,-16 70,16 0,3 -138,0 0,-3z" />

</svg>
