 

<svg xmlns:agg="http://www.example.com" xmlns="http://www.w3.org/2000/svg" preserveAspectRatio="none" width="1.0750in" height="1.0750in" viewBox="0 0 999 999">

<path style="fill:#b2b2b2;stroke:#000;stroke-width:2" d="M578,420 l77,0 0,315 -77,0 0,-315z" />
<path style="fill:#ccc" d="M28,814 l79,40 19,0 0,77 -19,21 0,18 784,0 0,-18 -19,-21 0,-77 19,0 79,-40 -942,0z" />
<path style="fill:#e5e5e5" d="M116,952 l19,-21 732,0 20,21 -771,0z" />
<path style="fill:#999" d="M28,814 l20,9 264,0 10,10 392,0 -10,-10 246,0 20,-9 -942,0z" />
<path style="fill:none;stroke:#000;stroke-width:2" d="M28,814 l79,40 19,0 0,77 -19,21 0,18 784,0 0,-18 -19,-21 0,-77 19,0 79,-40 -942,0" />
<path style="fill:#d9d9d9" d="M184,912 l0,-70 6,-4 618,0 6,4 0,70 -6,4 -618,0 -6,-4z" />
<path style="fill:none;stroke:#7f7f7f;stroke-width:2" d="M808,838 l6,4 0,70 -6,4 -618,0" />
<path style="fill:none;stroke:#fff;stroke-width:2" d="M190,916 l-6,-4 0,-70 6,-4 618,0" />
<path style="fill:#e5e5e5;stroke:#000;stroke-width:2" d="M970,814 l-20,-40 -255,-9 0,49 275,0z" />
<path style="fill:#e5e5e5;stroke:#000;stroke-width:2" d="M28,814 l20,-40 255,-9 0,49 -275,0z" />
<path style="fill:#ccc;stroke:#000;stroke-width:2" d="M303,753 l392,0 0,61 -392,0 0,-61z" />
<path style="fill:#ccc;stroke:#000;stroke-width:2" d="M318,740 l362,0 0,13 -362,0 0,-13z" />
<path style="fill:#ccc;stroke:#000;stroke-width:2" d="M343,735 l312,0 0,5 -312,0 0,-5z" />
<path style="fill:#d9d9d9;stroke:#000;stroke-width:2" d="M361,735 l21,-707 255,0 0,39 -59,0 19,668 -236,0z" />
<path style="fill:#ccc" d="M499,67 l49,0 0,634 -49,0 0,-634z" />
<path style="fill:#ccc" d="M597,435 l30,0 0,39 -30,0 0,-39z" />
<path style="fill:#7f7f7f" d="M407,410 l86,0 0,64 -86,0 0,-64z" />
<path style="fill:#4c4c4c" d="M425,490 l68,0 0,24 -68,0 0,-24z" />
<path style="fill:#999" d="M416,382 l68,0 0,25 -68,0 0,-25z" />
<circle style="fill:#999" cx="626" cy="656" r="20" />
<path style="fill:none;stroke:#666;stroke-width:2" d="M627,435 l0,39 -30,0" />
<path style="fill:none;stroke:#666;stroke-width:2" d="M548,67 l0,634 -49,0" />
<path style="fill:#ccc;stroke:#7f7f7f;stroke-width:2" d="M597,67 l15,0 0,353 -15,0 0,-353z" />
<path style="fill:#ccc;stroke:#7f7f7f;stroke-width:2" d="M622,67 l15,0 0,353 -15,0 0,-353z" />
<path style="fill:#d9d9d9" d="M420,769 l158,0 0,54 -158,0 0,-54z" />
<path style="fill:#d9d9d9" d="M469,823 l60,0 0,55 -60,0 0,-55z" />
<path style="fill:none;stroke:#666;stroke-width:2" d="M529,823 l0,55 -60,0" />
<path style="fill:none;stroke:#666;stroke-width:2" d="M578,769 l0,54 -158,0" />
<path style="fill:#333" d="M327,765 l349,0 0,4 -349,0 0,-4z" />
<path style="fill:none;stroke:#fff;stroke-width:2" d="M420,823 l0,-54 158,0" />
<path style="fill:none;stroke:#fff;stroke-width:2" d="M469,878 l0,-55" />
<path style="fill:none;stroke:#fff;stroke-width:2" d="M597,474 l0,-39 30,0" />
<path style="fill:none;stroke:#fff;stroke-width:2" d="M499,701 l0,-634 49,0" />

</svg>
