 

<svg xmlns:agg="http://www.example.com" xmlns="http://www.w3.org/2000/svg" preserveAspectRatio="none" width="0.8673in" height="1.0750in" viewBox="0 0 806 999">

<path style="fill:#330" d="M327,970 l87,-942 172,0 85,942 -344,0z" />
<path style="fill:#4c4c19" d="M124,810 l113,-648 492,-82 32,108 -175,119 -274,5 -177,530 -11,-32z" />
<path style="fill:#996" d="M156,755 l430,-471 -23,-4 -364,402 70,-215 115,11 21,-22 -130,-10 58,-183 76,189 20,-23 -85,-192 242,47 171,-107 21,-42 -21,-22 -430,86 -171,556z" />
<path style="fill:none;stroke:#000;stroke-width:2" d="M156,755 l171,-556 430,-86 21,22 -21,42 -171,107 -430,471" />
<path style="fill:none;stroke:#000;stroke-width:2" d="M563,280 l-134,149 -85,-192 219,43" />
<path style="fill:none;stroke:#000;stroke-width:2" d="M405,456 l-130,-10 58,-183 76,189 -4,4" />
<path style="fill:none;stroke:#000;stroke-width:2" d="M199,682 l70,-215 115,11 -185,204" />
<path style="fill:#996;stroke:#000;stroke-width:2" d="M199,970 l87,-686 192,0 85,686 -85,0 -64,-599 -64,0 -64,599 -87,0z" />
<path style="fill:#996;stroke:#000;stroke-width:2" d="M124,842 l194,-654 417,-85 0,-75 -536,85 0,130 -171,576 96,23z" />
<path style="fill:none;stroke:#663;stroke-width:2" d="M173,682 l-96,-23" />
<path style="fill:none;stroke:#cc9;stroke-width:2" d="M173,676 l-96,-21" />
<path style="fill:none;stroke:#663;stroke-width:2" d="M220,510 l-96,-22" />
<path style="fill:none;stroke:#cc9;stroke-width:2" d="M226,505 l-96,-23" />
<path style="fill:none;stroke:#663;stroke-width:2" d="M275,339 l-96,-23" />
<path style="fill:none;stroke:#cc9;stroke-width:2" d="M275,333 l-96,-21" />
<path style="fill:#7f7f4c" d="M216,953 l79,-652 166,0 87,652 -55,0 -64,-599 -96,0 -64,599 -53,0z" />
<path style="fill:#b2b27f;stroke:#663;stroke-width:2" d="M622,58 l17,-4 20,132 -15,4 -22,-132z" />
<path style="fill:#b2b27f;stroke:#663;stroke-width:2" d="M397,90 l17,-4 21,132 -15,4 -23,-132z" />

</svg>
