 

<svg xmlns:agg="http://www.example.com" xmlns="http://www.w3.org/2000/svg" preserveAspectRatio="none" width="0.9889in" height="1.0750in" viewBox="0 0 919 999">

<path style="fill:#4c3f26" d="M224,205 l471,0 0,628 -471,0 0,-628z" />
<path style="fill:#f2e5cc" d="M65,833 l787,0 0,117 -787,0 0,-117z" />
<path style="fill:#ede0c7" d="M65,916 l787,-49 0,83 -787,0 0,-34z" />
<path style="fill:#e8dbc2" d="M65,921 l787,-49 0,78 -787,0 0,-29z" />
<path style="fill:#e3d6bd" d="M65,929 l787,-49 0,70 -787,0 0,-21z" />
<path style="fill:none;stroke:#000;stroke-width:2" d="M65,833 l787,0 0,117 -787,0 0,-117" />
<path style="fill:none;stroke:#000;stroke-width:2" d="M65,842 l787,0" />
<path style="fill:#f2e5cc;stroke:#000;stroke-width:2" d="M478,656 l21,0 0,177 -21,0 0,-177z" />
<path style="fill:#f2e5cc;stroke:#000;stroke-width:2" d="M420,656 l19,0 0,177 -19,0 0,-177z" />
<path style="fill:#333" d="M86,656 l-39,0 0,39 39,0 0,-39z" />
<path style="fill:#bfb299;stroke:#000;stroke-width:2" d="M224,205 l471,0 0,38 -471,0 0,-38z" />
<path style="fill:#665940;stroke:#000;stroke-width:2" d="M557,735 l138,0 0,58 -138,0 0,-58z" />
<path style="fill:#998c73;stroke:#000;stroke-width:2" d="M499,695 l98,0 0,58 -98,0 0,-58z" />
<path style="fill:#665940;stroke:#000;stroke-width:2" d="M224,676 l156,0 0,117 -156,0 0,-117z" />
<path style="fill:#998c73;stroke:#000;stroke-width:2" d="M282,695 l79,0 0,98 -79,0 0,-98z" />
<path style="fill:#bfb299;stroke:#000;stroke-width:2" d="M224,793 l471,0 0,40 -471,0 0,-40z" />
<path style="fill:#d9ccb3;stroke:#000;stroke-width:2" d="M695,656 l78,0 0,177 -78,0 0,-177z" />
<path style="fill:#d9ccb3;stroke:#000;stroke-width:2" d="M145,656 l79,0 0,177 -79,0 0,-177z" />
<path style="fill:none;stroke:#000;stroke-width:2" d="M420,656 l79,0 0,177 -79,0 0,-177" />
<path style="fill:#f2e5cc;stroke:#000;stroke-width:2" d="M224,107 l19,-40 431,0 21,40 0,98 -471,0 0,-98z" />
<path style="fill:#f2e5cc;stroke:#000;stroke-width:2" d="M773,656 l58,-59 -58,0 0,-490 -78,0 0,549 78,0z" />
<path style="fill:#f2e5cc;stroke:#000;stroke-width:2" d="M145,656 l-59,-59 59,0 0,-490 79,0 0,549 -79,0z" />
<path style="fill:#f2e5cc;stroke:#000;stroke-width:2" d="M852,833 l-79,-138 0,138 79,0z" />
<path style="fill:#f2e5cc;stroke:#000;stroke-width:2" d="M65,833 l80,-138 0,138 -80,0z" />
<path style="fill:#f2e5cc;stroke:#000;stroke-width:2" d="M714,950 l177,0 0,20 -177,0 0,-20z" />
<path style="fill:#f2e5cc;stroke:#000;stroke-width:2" d="M28,950 l175,0 0,20 -175,0 0,-20z" />
<path style="fill:#bfb299;stroke:#000;stroke-width:2" d="M469,872 l19,0 0,78 -19,0 0,-78z" />
<path style="fill:#bfb299;stroke:#000;stroke-width:2" d="M429,872 l21,0 0,78 -21,0 0,-78z" />
<path style="fill:#f2e5cc;stroke:#000;stroke-width:2" d="M509,852 l-98,0 0,20 98,0 0,-20z" />
<path style="fill:#bfb299;stroke:#000;stroke-width:2" d="M184,735 l19,0 0,98 -19,0 0,-98z" />
<path style="fill:#bfb299;stroke:#000;stroke-width:2" d="M145,735 l20,0 0,98 -20,0 0,-98z" />
<path style="fill:#bfb299;stroke:#000;stroke-width:2" d="M754,735 l19,0 0,98 -19,0 0,-98z" />
<path style="fill:#bfb299;stroke:#000;stroke-width:2" d="M714,735 l21,0 0,98 -21,0 0,-98z" />
<path style="fill:#f2e5cc;stroke:#000;stroke-width:2" d="M793,714 l-98,0 0,21 98,0 0,-21z" />
<path style="fill:#f2e5cc;stroke:#000;stroke-width:2" d="M126,714 l98,0 0,21 -98,0 0,-21z" />
<path style="fill:#333;stroke:#000;stroke-width:2" d="M509,852 l-98,0 0,-38 98,0 0,38z" />
<path style="fill:#333;stroke:#000;stroke-width:2" d="M416,837 l-9,-16 -6,-18 0,-19 6,-17 9,-15 15,-12 19,-5 19,0 17,5 15,12 11,15 6,17 0,19 -6,18 -11,16 -15,9 -17,6 -19,0 -19,-6 -15,-9z" />
<circle style="fill:#666" cx="458" cy="794" r="38" />
<circle style="fill:#000" cx="459" cy="793" r="9" />
<path style="fill:#333" d="M203,627 l-117,0 0,87 117,0 0,-87z" />
<path style="fill:#4c4c4c" d="M203,635 l-117,0 0,72 117,0 0,-72z" />
<path style="fill:#666" d="M203,646 l-117,0 0,49 117,0 0,-49z" />
<path style="fill:#7f7f7f" d="M203,659 l-117,0 0,23 117,0 0,-23z" />
<path style="fill:none;stroke:#000;stroke-width:2" d="M203,627 l-117,0 0,87 117,0 0,-87" />
<path style="fill:#666" d="M86,661 l-39,0 0,30 39,0 0,-30z" />
<path style="fill:#7f7f7f" d="M86,671 l-39,0 0,9 39,0 0,-9z" />
<path style="fill:none;stroke:#000;stroke-width:2" d="M86,656 l-39,0 0,39 39,0 0,-39" />
<path style="fill:#333" d="M833,686 l40,0 0,-40 -40,0 0,40z" />
<path style="fill:#333" d="M714,714 l119,0 0,-89 -119,0 0,89z" />
<path style="fill:#4c4c4c" d="M714,707 l119,0 0,-72 -119,0 0,72z" />
<path style="fill:#666" d="M714,695 l119,0 0,-49 -119,0 0,49z" />
<path style="fill:#7f7f7f" d="M714,682 l119,0 0,-23 -119,0 0,23z" />
<path style="fill:none;stroke:#000;stroke-width:2" d="M714,714 l119,0 0,-89 -119,0 0,89" />
<path style="fill:#666" d="M833,680 l40,0 0,-30 -40,0 0,30z" />
<path style="fill:#7f7f7f" d="M833,671 l40,0 0,-10 -40,0 0,10z" />
<path style="fill:none;stroke:#000;stroke-width:2" d="M833,686 l40,0 0,-40 -40,0 0,40" />
<path style="fill:#f2e5cc" d="M224,478 l471,0 0,178 -471,0 0,-178z" />
<path style="fill:#ede0c7" d="M224,605 l471,-74 0,125 -471,0 0,-51z" />
<path style="fill:#e8dbc2" d="M224,612 l471,-73 0,117 -471,0 0,-44z" />
<path style="fill:#e3d6bd" d="M224,623 l471,-73 0,106 -471,0 0,-33z" />
<path style="fill:none;stroke:#000;stroke-width:2" d="M224,478 l471,0 0,178 -471,0 0,-178" />
<path style="fill:#f2e5cc;stroke:#000;stroke-width:2" d="M301,459 l315,0 0,80 -315,0 0,-80z" />
<path style="fill:#333" d="M203,107 l0,-79 -38,0 0,79 38,0z" />
<path style="fill:#4c4c4c" d="M199,107 l0,-79 -30,0 0,79 30,0z" />
<path style="fill:#666" d="M195,107 l0,-79 -22,0 0,79 22,0z" />
<path style="fill:#7f7f7f" d="M190,107 l0,-79 -11,0 0,79 11,0z" />
<path style="fill:none;stroke:#000;stroke-width:2" d="M203,107 l0,-79 -38,0 0,79 38,0" />
<path style="fill:#333" d="M754,107 l0,-79 -40,0 0,79 40,0z" />
<path style="fill:#4c4c4c" d="M750,107 l0,-79 -30,0 0,79 30,0z" />
<path style="fill:#666" d="M746,107 l0,-79 -23,0 0,79 23,0z" />
<path style="fill:#7f7f7f" d="M738,107 l0,-79 -9,0 0,79 9,0z" />
<path style="fill:none;stroke:#000;stroke-width:2" d="M754,107 l0,-79 -40,0 0,79 40,0" />
<path style="fill:#e5e5e5;stroke:#000;stroke-width:2" d="M401,86 l117,0 0,98 -117,0 0,-98z" />
<path style="fill:#666" d="M411,95 l98,0 0,31 -98,0 0,-31z" />
<path style="fill:#999" d="M411,145 l98,0 0,30 -98,0 0,-30z" />
<path style="fill:#665940" d="M292,393 l28,55 28,0 28,-55 -28,0 -15,27 -13,-27 -28,0z" />
<path style="fill:#665940" d="M376,393 l27,55 28,0 29,-55 -29,0 -13,27 -15,-27 -27,0z" />
<path style="fill:#665940" d="M460,393 l28,55 26,0 28,-55 -28,0 -13,27 -13,-27 -28,0z" />
<path style="fill:#665940" d="M542,393 l29,55 28,0 26,-55 -26,0 -15,27 -13,-27 -29,0z" />
<path style="fill:#998c73" d="M233,312 l19,0 0,521 -19,0 0,-521z" />
<path style="fill:#f2e5cc" d="M241,312 l5,0 0,521 -5,0 0,-521z" />
<path style="fill:#f2e5cc;stroke:#000;stroke-width:2" d="M224,303 l471,0 0,19 -471,0 0,-19z" />

</svg>
