 

<svg xmlns:agg="http://www.example.com" xmlns="http://www.w3.org/2000/svg" preserveAspectRatio="none" width="1.6083in" height="0.4991in" viewBox="0 0 999 310">

<path style="fill:#f60;stroke:#000;stroke-width:2" d="M746,46 l115,0 0,168 -115,0 0,-168z" />
<path style="fill:#7f7f7f" d="M763,109 l15,0 0,105 -15,0 0,-105z" />
<path style="fill:#333" d="M763,133 l15,0 0,19 -15,0 0,-19z" />
<path style="fill:#333" d="M763,180 l15,0 0,19 -15,0 0,-19z" />
<path style="fill:#333" d="M75,90 l94,0 0,124 -94,0 0,-124z" />
<path style="fill:#69f" d="M43,214 l924,0 0,64 -924,0 0,-64z" />
<path style="fill:#5c8ff5" d="M43,261 l924,-30 0,47 -924,0 0,-17z" />
<path style="fill:none;stroke:#000;stroke-width:2" d="M43,214 l924,0 0,64 -924,0 0,-64" />
<path style="fill:#69f;stroke:#000;stroke-width:2" d="M28,122 l47,0 0,62 -47,0 0,-62z" />
<path style="fill:#ccc" d="M75,137 l94,0 0,77 -94,0 0,-77z" />
<path style="fill:#ccc;stroke:#000;stroke-width:2" d="M169,90 l500,0 0,124 -500,0 0,-124z" />
<path style="fill:#ccc;stroke:#000;stroke-width:2" d="M669,75 l94,0 0,139 -94,0 0,-139z" />
<path style="fill:#ccc" d="M75,75 l94,0 0,34 -94,0 0,-34z" />
<path style="fill:none;stroke:#fff;stroke-width:2" d="M75,137 l94,0" />
<path style="fill:none;stroke:#000;stroke-width:2" d="M75,75 l94,0 0,139 -94,0 0,-139" />
<path style="fill:#7f7f7f" d="M669,199 l-500,0 0,-94 500,0 0,94z" />
<path style="fill:#999" d="M669,193 l-500,0 0,-82 500,0 0,82z" />
<path style="fill:#b2b2b2" d="M669,184 l-500,0 0,-64 500,0 0,64z" />
<path style="fill:#ccc" d="M669,173 l-500,0 0,-42 500,0 0,42z" />
<path style="fill:#e5e5e5" d="M669,165 l-500,0 0,-26 500,0 0,26z" />
<path style="fill:#fff" d="M669,157 l-500,0 0,-11 500,0 0,11z" />
<path style="fill:#fc0;stroke:#000;stroke-width:2" d="M778,90 l83,0 0,124 -83,0 0,-124z" />
<path style="fill:#fff" d="M803,105 l34,0 0,7 -34,0 0,-7z" />
<path style="fill:#69f" d="M861,28 l74,0 17,81 0,105 -91,0 0,-186z" />
<path style="fill:#5e91f7" d="M946,84 l6,25 0,105 -91,0 0,-109 85,-21z" />
<path style="fill:#578af0" d="M952,135 l0,79 -91,0 0,-64 91,-15z" />
<path style="fill:none;stroke:#000;stroke-width:2" d="M861,28 l74,0 17,81 0,105 -91,0 0,-186" />
<path style="fill:none;stroke:#7f7f7f;stroke-width:2" d="M184,105 l0,94 13,0 0,-94 13,0 0,94 15,0 0,-94 13,0 0,94 14,0 0,-94" />
<path style="fill:none;stroke:#7f7f7f;stroke-width:2" d="M284,105 l0,94 15,0 0,-94 13,0 0,94 13,0 0,-94 13,0 0,94 13,0 0,-94" />
<path style="fill:none;stroke:#7f7f7f;stroke-width:2" d="M385,105 l0,94 13,0 0,-94 13,0 0,94 14,0 0,-94 13,0 0,94 15,0 0,-94" />
<path style="fill:none;stroke:#7f7f7f;stroke-width:2" d="M485,105 l0,94 13,0 0,-94 15,0 0,94 13,0 0,-94 13,0 0,94 14,0 0,-94" />
<path style="fill:none;stroke:#7f7f7f;stroke-width:2" d="M587,105 l0,94 13,0 0,-94 13,0 0,94 13,0 0,-94 13,0 0,94 15,0 0,-94" />
<path style="fill:none;stroke:#000;stroke-width:2" d="M669,199 l-500,0 0,-94 500,0 0,94" />
<path style="fill:#ccc;stroke:#000;stroke-width:2" d="M265,97 l5,0 0,110 -5,0 0,-110z" />
<path style="fill:#ccc;stroke:#000;stroke-width:2" d="M364,97 l8,0 0,110 -8,0 0,-110z" />
<path style="fill:#ccc;stroke:#000;stroke-width:2" d="M466,97 l6,0 0,110 -6,0 0,-110z" />
<path style="fill:#ccc;stroke:#000;stroke-width:2" d="M566,97 l7,0 0,110 -7,0 0,-110z" />
<path style="fill:#ccc;stroke:#000;stroke-width:2" d="M169,148 l500,0 0,8 -500,0 0,-8z" />
<path style="fill:#4c7fe5;stroke:#000;stroke-width:2" d="M39,274 l47,0 0,8 -47,0 0,-8z" />
<path style="fill:#4c7fe5;stroke:#000;stroke-width:2" d="M188,274 l45,0 0,8 -45,0 0,-8z" />
<path style="fill:#4c7fe5;stroke:#000;stroke-width:2" d="M334,274 l46,0 0,8 -46,0 0,-8z" />
<path style="fill:#4c7fe5;stroke:#000;stroke-width:2" d="M481,274 l47,0 0,8 -47,0 0,-8z" />
<path style="fill:#4c7fe5;stroke:#000;stroke-width:2" d="M630,274 l45,0 0,8 -45,0 0,-8z" />
<path style="fill:#4c7fe5;stroke:#000;stroke-width:2" d="M776,274 l48,0 0,8 -48,0 0,-8z" />
<path style="fill:#4c7fe5;stroke:#000;stroke-width:2" d="M925,274 l45,0 0,8 -45,0 0,-8z" />
<path style="fill:none;stroke:#36c;stroke-width:2" d="M208,269 l0,-51" />
<path style="fill:none;stroke:#36c;stroke-width:2" d="M809,269 l0,-51" />
<path style="fill:none;stroke:#fff;stroke-width:2" d="M805,269 l0,-51" />
<path style="fill:none;stroke:#fff;stroke-width:2" d="M205,269 l0,-51" />

</svg>
