 

<svg xmlns:agg="http://www.example.com" xmlns="http://www.w3.org/2000/svg" preserveAspectRatio="none" width="1.4552in" height="1.0750in" viewBox="0 0 999 738">

<path style="fill:#333" d="M601,669 l185,0 0,7 -185,0 0,-7z" />
<path style="fill:#4c4c4c;stroke:#000;stroke-width:2" d="M62,584 l0,-102 -17,0 -17,-7 0,-34 17,-8 51,0 0,151 -34,0z" />
<path style="fill:#b2b2b2;stroke:#000;stroke-width:2" d="M35,584 l0,-93 68,93 -68,0z" />
<path style="fill:#7f7f7f;stroke:#000;stroke-width:2" d="M52,710 l549,0 0,-51 -549,0 0,51z" />
<path style="fill:#ccc;stroke:#000;stroke-width:2" d="M86,659 l700,0 0,-83 -700,0 0,83z" />
<path style="fill:#b2b2b2" d="M195,37 l34,17 0,522 -34,0 0,-539z" />
<path style="fill:#ccc" d="M397,54 l-168,0 0,522 168,0 0,-522z" />
<path style="fill:none;stroke:#000;stroke-width:2" d="M195,37 l34,17 168,0 0,522 -202,0 0,-539" />
<path style="fill:#ccc" d="M188,669 l598,0 0,-93 -598,0 0,93z" />
<path style="fill:#b2b2b2" d="M188,669 l598,0 0,-17 -598,0 0,17z" />
<path style="fill:none;stroke:#000;stroke-width:2" d="M188,669 l598,0 0,-93 -598,0 0,93" />
<path style="fill:#ccc;stroke:#000;stroke-width:2" d="M701,307 l269,0 -41,66 -228,0 0,-66z" />
<path style="fill:#ccc;stroke:#000;stroke-width:2" d="M878,373 l17,0 0,329 -17,0 0,-329z" />
<path style="fill:#ccc;stroke:#000;stroke-width:2" d="M869,710 l33,0 0,-8 -33,0 0,8z" />
<path style="fill:none;stroke:#000;stroke-width:2" d="M885,373 l-48,34 -51,9 -44,-9 -41,-25" />
<path style="fill:#999" d="M96,424 l99,0 0,152 -99,0 0,-152z" />
<path style="fill:#ccc" d="M96,424 l99,0 0,-185 -99,0 0,185z" />
<path style="fill:#b2b2b2" d="M96,307 l99,0 0,58 -99,0 0,-58z" />
<path style="fill:none;stroke:#000;stroke-width:2" d="M96,239 l99,0 0,337 -99,0 0,-337" />
<path style="fill:#666" d="M113,314 l16,0 0,27 -16,0 0,-27z" />
<path style="fill:#666" d="M113,348 l9,0 0,8 -9,0 0,-8z" />
<path style="fill:#666" d="M131,348 l10,0 0,8 -10,0 0,-8z" />
<path style="fill:#666" d="M150,348 l10,0 0,8 -10,0 0,-8z" />
<path style="fill:#666" d="M169,348 l10,0 0,8 -10,0 0,-8z" />
<path style="fill:#ccc;stroke:#000;stroke-width:2" d="M86,659 l-58,0 0,-75 58,0 0,75z" />
<path style="fill:#999" d="M239,62 l160,0 0,43 -160,0 0,-43z" />
<path style="fill:#ccc" d="M397,37 l304,0 0,539 -304,0 0,-539z" />
<path style="fill:#c7c7c7" d="M397,420 l304,-227 0,383 -304,0 0,-156z" />
<path style="fill:#c2c2c2" d="M397,443 l304,-227 0,360 -304,0 0,-133z" />
<path style="fill:#bdbdbd" d="M397,475 l304,-225 0,326 -304,0 0,-101z" />
<path style="fill:none;stroke:#000;stroke-width:2" d="M397,37 l304,0 0,539 -304,0 0,-539" />
<path style="fill:#b2b2b2" d="M516,256 l117,0 0,34 -117,0 0,-34z" />
<path style="fill:#b2b2b2" d="M482,290 l117,0 0,151 -117,0 0,-151z" />
<path style="fill:#b2b2b2" d="M465,214 l136,0 0,17 -136,0 0,-17z" />
<path style="fill:#b2b2b2" d="M584,171 l17,0 0,43 -17,0 0,-43z" />
<path style="fill:none;stroke:#e5e5e5;stroke-width:2" d="M499,324 l68,-85" />
<path style="fill:none;stroke:#e5e5e5;stroke-width:2" d="M499,356 l68,-83" />
<path style="fill:none;stroke:#e5e5e5;stroke-width:2" d="M550,341 l66,-85" />
<path style="fill:none;stroke:#fff;stroke-width:2" d="M633,171 l0,270 -168,0" />
<path style="fill:none;stroke:#999;stroke-width:2" d="M633,171 l-168,0 0,270" />
<path style="fill:#999" d="M499,88 l102,0 0,41 -102,0 0,-41z" />
<path style="fill:none;stroke:#fff;stroke-width:2" d="M246,79 l136,0" />
<path style="fill:none;stroke:#fff;stroke-width:2" d="M246,71 l76,0" />
<path style="fill:none;stroke:#fff;stroke-width:2" d="M246,96 l68,0" />
<path style="fill:none;stroke:#fff;stroke-width:2" d="M348,96 l25,0" />
<path style="fill:#7f7f7f;stroke:#000;stroke-width:2" d="M96,239 l41,0 0,-211 -58,0 0,17 17,0 0,194z" />
<path style="fill:#b2b2b2;stroke:#000;stroke-width:2" d="M154,239 l-17,0 0,-211 17,17 0,194z" />
<path style="fill:#4c4c4c" d="M120,239 l-15,0 0,-194 15,17 0,177z" />

</svg>
