 

<svg xmlns:agg="http://www.example.com" xmlns="http://www.w3.org/2000/svg" preserveAspectRatio="none" width="1.1258in" height="1.0750in" viewBox="0 0 998 953">

<path style="fill:#9cc" d="M802,454 l168,-46 0,-246 -45,0 -45,156 -78,0 0,136z" />
<path style="fill:#699" d="M802,454 l168,-46 0,-17 -168,46 0,17z" />
<path style="fill:none;stroke:#000;stroke-width:2" d="M802,454 l168,-46 0,-246 -45,0 -45,156 -78,0 0,136" />
<path style="fill:#033" d="M62,45 l740,0 0,363 -740,0 0,-363z" />
<path style="fill:#9cc" d="M785,297 l0,-252 29,0 0,-17 -764,0 0,17 28,0 0,252 707,0z" />
<path style="fill:#9cc;stroke:#000;stroke-width:2" d="M28,610 l0,181 179,134 448,0 181,-134 0,-181 -808,0z" />
<path style="fill:#9cc;stroke:#000;stroke-width:2" d="M28,454 l808,0 0,23 -808,0 0,-23z" />
<path style="fill:#174a4a" d="M716,408 l0,-111 60,0 0,111 -60,0z" />
<path style="fill:#174a4a" d="M86,408 l0,-111 62,0 0,111 -62,0z" />
<path style="fill:#2e6161" d="M90,408 l0,-111 55,0 0,111 -55,0z" />
<path style="fill:#2e6161" d="M720,408 l0,-111 52,0 0,111 -52,0z" />
<path style="fill:#457878" d="M721,408 l0,-111 48,0 0,111 -48,0z" />
<path style="fill:#457878" d="M94,408 l0,-111 47,0 0,111 -47,0z" />
<path style="fill:#5c8f8f" d="M98,408 l0,-111 39,0 0,111 -39,0z" />
<path style="fill:#5c8f8f" d="M725,408 l0,-111 40,0 0,111 -40,0z" />
<path style="fill:#70a3a3" d="M729,408 l0,-111 34,0 0,111 -34,0z" />
<path style="fill:#70a3a3" d="M101,408 l0,-111 32,0 0,111 -32,0z" />
<path style="fill:#87baba" d="M105,408 l0,-111 25,0 0,111 -25,0z" />
<path style="fill:#87baba" d="M733,408 l0,-111 26,0 0,111 -26,0z" />
<path style="fill:#9ed1d1" d="M737,408 l0,-111 18,0 0,111 -18,0z" />
<path style="fill:#9ed1d1" d="M107,408 l0,-111 21,0 0,111 -21,0z" />
<path style="fill:#b5e8e8" d="M111,408 l0,-111 13,0 0,111 -13,0z" />
<path style="fill:#b5e8e8" d="M740,408 l0,-111 12,0 0,111 -12,0z" />
<path style="fill:#cff" d="M742,408 l0,-111 6,0 0,111 -6,0z" />
<path style="fill:#cff" d="M115,408 l0,-111 5,0 0,111 -5,0z" />
<path style="fill:#033" d="M135,341 l17,0 0,22 -17,0 0,-22z" />
<path style="fill:#033" d="M84,341 l17,0 0,22 -17,0 0,-22z" />
<path style="fill:#033" d="M763,341 l17,0 0,22 -17,0 0,-22z" />
<path style="fill:#033" d="M712,341 l17,0 0,22 -17,0 0,-22z" />
<path style="fill:none;stroke:#000;stroke-width:2" d="M84,408 l0,-111 68,0 0,111 -68,0" />
<path style="fill:none;stroke:#000;stroke-width:2" d="M152,363 l-68,0" />
<path style="fill:none;stroke:#000;stroke-width:2" d="M84,341 l63,0" />
<path style="fill:none;stroke:#000;stroke-width:2" d="M712,408 l0,-111 68,0 0,111 -68,0" />
<path style="fill:none;stroke:#000;stroke-width:2" d="M780,363 l-68,0" />
<path style="fill:none;stroke:#000;stroke-width:2" d="M712,341 l68,0" />
<path style="fill:#9cc" d="M28,567 l808,0 0,-159 -90,0 -45,-111 -539,0 -44,111 -90,0 0,159z" />
<path style="fill:#91c4c4" d="M28,567 l808,0 0,-159 -90,0 -21,-52 -697,132 0,79z" />
<path style="fill:none;stroke:#000;stroke-width:2" d="M28,567 l808,0 0,-159 -90,0 -45,-111 -539,0 -44,111 -90,0 0,159" />
<path style="fill:#033;stroke:#000;stroke-width:2" d="M791,50 l45,0 0,291 -45,0 0,-291z" />
<path style="fill:#033;stroke:#000;stroke-width:2" d="M28,50 l45,0 0,291 -45,0 0,-291z" />
<path style="fill:#174a4a" d="M791,64 l45,0 0,262 -45,0 0,-262z" />
<path style="fill:#174a4a" d="M28,64 l45,0 0,262 -45,0 0,-262z" />
<path style="fill:#2e6161" d="M791,78 l45,0 0,232 -45,0 0,-232z" />
<path style="fill:#2e6161" d="M28,78 l45,0 0,232 -45,0 0,-232z" />
<path style="fill:#457878" d="M791,94 l45,0 0,201 -45,0 0,-201z" />
<path style="fill:#457878" d="M28,94 l45,0 0,201 -45,0 0,-201z" />
<path style="fill:#5c8f8f" d="M791,109 l45,0 0,171 -45,0 0,-171z" />
<path style="fill:#5c8f8f" d="M28,109 l45,0 0,171 -45,0 0,-171z" />
<path style="fill:#70a3a3" d="M791,124 l45,0 0,143 -45,0 0,-143z" />
<path style="fill:#70a3a3" d="M28,124 l45,0 0,143 -45,0 0,-143z" />
<path style="fill:#87baba" d="M791,139 l45,0 0,113 -45,0 0,-113z" />
<path style="fill:#87baba" d="M28,139 l45,0 0,113 -45,0 0,-113z" />
<path style="fill:#9ed1d1" d="M791,154 l45,0 0,83 -45,0 0,-83z" />
<path style="fill:#9ed1d1" d="M28,154 l45,0 0,83 -45,0 0,-83z" />
<path style="fill:#b5e8e8" d="M791,169 l45,0 0,53 -45,0 0,-53z" />
<path style="fill:#b5e8e8" d="M28,169 l45,0 0,53 -45,0 0,-53z" />
<path style="fill:#cff" d="M791,184 l45,0 0,23 -45,0 0,-23z" />
<path style="fill:#cff" d="M28,184 l45,0 0,23 -45,0 0,-23z" />
<path style="fill:#91c4c4" d="M785,297 l0,-203 -707,147 0,56 707,0z" />
<path style="fill:#699" d="M78,269 l707,0 0,17 -707,0 0,-17z" />
<path style="fill:#366" d="M78,286 l707,0 0,11 -707,0 0,-11z" />
<path style="fill:none;stroke:#000;stroke-width:2" d="M118,297 l628,0" />
<path style="fill:#033" d="M162,297 l539,0 5,12 -548,0 4,-12z" />
<path style="fill:none;stroke:#000;stroke-width:2" d="M785,297 l0,-252 29,0 0,-17 -764,0 0,17 28,0 0,252 707,0" />
<path style="fill:#4c7f7f;stroke:#000;stroke-width:2" d="M39,567 l11,0 0,43 -11,0 0,-43z" />
<path style="fill:#4c7f7f;stroke:#000;stroke-width:2" d="M808,567 l11,0 0,43 -11,0 0,-43z" />
<path style="fill:none;stroke:#366;stroke-width:2" d="M812,735 l0,-91" />
<path style="fill:none;stroke:#366;stroke-width:2" d="M785,735 l0,-91" />
<path style="fill:none;stroke:#366;stroke-width:2" d="M39,477 l792,0" />
<path style="fill:none;stroke:#366;stroke-width:2" d="M45,735 l0,-91" />
<path style="fill:none;stroke:#366;stroke-width:2" d="M96,45 l678,0" />
<path style="fill:none;stroke:#cff;stroke-width:2" d="M96,50 l678,0" />
<path style="fill:none;stroke:#cff;stroke-width:2" d="M39,482 l792,0" />
<path style="fill:none;stroke:#cff;stroke-width:2" d="M39,559 l792,0" />
<path style="fill:none;stroke:#cff;stroke-width:2" d="M50,735 l0,-91" />
<path style="fill:none;stroke:#cff;stroke-width:2" d="M818,735 l0,-91" />
<path style="fill:none;stroke:#cff;stroke-width:2" d="M791,735 l0,-91" />
<path style="fill:#033" d="M50,610 l0,-43 758,0 0,43 -6,0 0,-34 -746,0 0,34 -6,0z" />
<path style="fill:#366" d="M45,746 l774,0 0,11 -774,0 0,-11z" />
<path style="fill:#366;stroke:#000;stroke-width:2" d="M45,622 l774,0 0,11 -774,0 0,-11z" />
<path style="fill:#cff" d="M45,625 l774,0 0,6 -774,0 0,-6z" />
<path style="fill:#cff" d="M45,748 l774,0 0,5 -774,0 0,-5z" />
<path style="fill:none;stroke:#000;stroke-width:2" d="M45,746 l774,0 0,11 -774,0 0,-11" />

</svg>
