 

<svg xmlns:agg="http://www.example.com" xmlns="http://www.w3.org/2000/svg" preserveAspectRatio="none" width="1.0051in" height="1.0750in" viewBox="0 0 934 999">

<path style="fill:#7f7f7f;stroke:#000;stroke-width:2" d="M880,823 l-340,0 0,51 340,0 0,-51z" />
<path style="fill:#7f7f7f" d="M540,516 l0,294 161,0 0,-294 -161,0z" />
<path style="fill:#8c8c8c" d="M548,516 l0,294 145,0 0,-294 -145,0z" />
<path style="fill:#999" d="M554,516 l0,294 132,0 0,-294 -132,0z" />
<path style="fill:#a6a6a6" d="M561,516 l0,294 119,0 0,-294 -119,0z" />
<path style="fill:#b2b2b2" d="M569,516 l0,294 103,0 0,-294 -103,0z" />
<path style="fill:#bfbfbf" d="M576,516 l0,294 89,0 0,-294 -89,0z" />
<path style="fill:#ccc" d="M584,516 l0,294 73,0 0,-294 -73,0z" />
<path style="fill:#d9d9d9" d="M590,516 l0,294 60,0 0,-294 -60,0z" />
<path style="fill:#e5e5e5" d="M597,516 l0,294 47,0 0,-294 -47,0z" />
<path style="fill:#f2f2f2" d="M605,516 l0,294 32,0 0,-294 -32,0z" />
<path style="fill:#fff" d="M612,516 l0,294 17,0 0,-294 -17,0z" />
<path style="fill:none;stroke:#000;stroke-width:2" d="M540,516 l0,294 161,0 0,-294 -161,0" />
<path style="fill:#333" d="M674,637 l-128,0 0,173 128,0 0,-173z" />
<path style="fill:none;stroke:#7f7f7f;stroke-width:2" d="M661,810 l0,-173 -11,0 0,173 -13,0 0,-173 -13,0 0,173 -14,0 0,-173 -11,0 0,173 -13,0 0,-173 -14,0 0,173 -13,0 0,-173" />
<path style="fill:#bfbfcc;stroke:#000;stroke-width:2" d="M880,837 l0,96 26,0 0,-110 -17,-34 -28,-30 -42,-21 -279,-88 0,26 257,83 38,19 26,26 19,33z" />
<path style="fill:#7f7f7f" d="M311,292 l0,-110 -46,0 0,110 46,0z" />
<path style="fill:#999" d="M307,292 l0,-110 -40,0 0,110 40,0z" />
<path style="fill:#b2b2b2" d="M303,292 l0,-110 -30,0 0,110 30,0z" />
<path style="fill:#ccc" d="M297,292 l0,-110 -21,0 0,110 21,0z" />
<path style="fill:#e5e5e5" d="M293,292 l0,-110 -13,0 0,110 13,0z" />
<path style="fill:#fff" d="M290,292 l0,-110 -6,0 0,110 6,0z" />
<path style="fill:none;stroke:#000;stroke-width:2" d="M265,182 l0,110" />
<path style="fill:none;stroke:#000;stroke-width:2" d="M311,292 l0,-110" />
<path style="fill:#333;stroke:#000;stroke-width:2" d="M380,195 l-179,0 0,-32 179,0 0,32z" />
<path style="fill:#8c8c99;stroke:#000;stroke-width:2" d="M546,599 l-518,0 211,102 103,0 204,-102z" />
<path style="fill:#72727f" d="M546,599 l0,-307 -518,0 0,307 518,0z" />
<path style="fill:#7f7f8c" d="M524,599 l0,-307 -474,0 0,307 474,0z" />
<path style="fill:#8c8c99" d="M501,599 l0,-307 -426,0 0,307 426,0z" />
<path style="fill:#9999a6" d="M478,599 l0,-307 -381,0 0,307 381,0z" />
<path style="fill:#a5a5b2" d="M456,599 l0,-307 -336,0 0,307 336,0z" />
<path style="fill:#b2b2bf" d="M431,599 l0,-307 -288,0 0,307 288,0z" />
<path style="fill:#bfbfcc" d="M408,599 l0,-307 -241,0 0,307 241,0z" />
<path style="fill:#ccccd9" d="M386,599 l0,-307 -196,0 0,307 196,0z" />
<path style="fill:#d8d8e5" d="M363,599 l0,-307 -150,0 0,307 150,0z" />
<path style="fill:#e5e5f2" d="M339,599 l0,-307 -102,0 0,307 102,0z" />
<path style="fill:#f2f2ff" d="M311,599 l0,-307 -46,0 0,307 46,0z" />
<path style="fill:none;stroke:#000;stroke-width:2" d="M546,599 l0,-307 -518,0 0,307 518,0" />
<path style="fill:#b2b2cc;stroke:#000;stroke-width:2" d="M393,48 l-205,0 0,115 205,0 0,-115z" />
<path style="fill:#9898b2" d="M565,163 l34,-34 0,-49 -34,-32 -102,0 -5,-20 -32,7 -33,13 0,115 33,19 32,0 5,-19 102,0z" />
<path style="fill:#b2b2cc" d="M599,129 l0,-49 -34,-32 -102,0 -5,-20 -32,7 -33,13 0,76 33,7 0,-90 32,-6 0,96 141,-2z" />
<path style="fill:#cbcbe5" d="M599,80 l-34,-32 -102,0 -5,-20 -32,7 -33,13 57,-7 8,38 141,1z" />
<path style="fill:none;stroke:#000;stroke-width:2" d="M599,129 l0,-49 -34,-32 -102,0 -5,-20 -32,7 -33,13 0,115 33,19 32,0 5,-19 104,0 32,-34" />
<path style="fill:#ccc" d="M380,701 l-179,0 0,128 179,0 0,-128z" />
<path style="fill:#c7c7c7" d="M380,791 l-179,-53 0,91 179,0 0,-38z" />
<path style="fill:#c2c2c2" d="M380,797 l-179,-53 0,85 179,0 0,-32z" />
<path style="fill:#bdbdbd" d="M380,806 l-179,-54 0,77 179,0 0,-23z" />
<path style="fill:none;stroke:#000;stroke-width:2" d="M380,701 l-179,0 0,128 179,0 0,-128" />
<path style="fill:#b2b2b2;stroke:#000;stroke-width:2" d="M393,874 l-205,0 0,-45 205,0 0,45z" />
<path style="fill:#bfbfcc;stroke:#000;stroke-width:2" d="M906,837 l-859,0 0,24 859,0 0,-24z" />
<path style="fill:#bfbfcc;stroke:#000;stroke-width:2" d="M546,933 l-6,-334 -26,0 8,334 24,0z" />
<path style="fill:#bfbfcc;stroke:#000;stroke-width:2" d="M52,933 l8,-334 -27,0 -5,334 24,0z" />
<path style="fill:#000;stroke:#000;stroke-width:2" d="M540,970 l-13,0 0,-56 13,0 0,56z" />
<path style="fill:#000;stroke:#000;stroke-width:2" d="M47,970 l-14,0 0,-56 14,0 0,56z" />
<path style="fill:#000;stroke:#000;stroke-width:2" d="M899,970 l-14,0 0,-56 14,0 0,56z" />
<path style="fill:#000" d="M693,823 l-147,0 0,-13 147,0 0,13z" />
<path style="fill:#ccc" d="M508,265 l-435,0 0,27 435,0 0,-27z" />
<path style="fill:#c7c7c7" d="M508,284 l-435,-11 0,19 435,0 0,-8z" />
<path style="fill:#c2c2c2" d="M508,284 l-435,-9 0,17 435,0 0,-8z" />
<path style="fill:#bdbdbd" d="M508,286 l-435,-10 0,16 435,0 0,-6z" />
<path style="fill:none;stroke:#000;stroke-width:2" d="M508,265 l-435,0 0,27 435,0 0,-27" />
<path style="fill:#bfbfcc;stroke:#000;stroke-width:2" d="M28,311 l45,0 0,-32 15,-23 32,-21 43,-13 53,-8 143,0 52,8 43,13 32,21 17,23 0,32 43,0 0,-42 -19,-32 -39,-27 -51,-18 -63,-10 -173,0 -62,10 -53,18 -38,27 -20,32 0,42z" />

</svg>
