 

<svg xmlns:agg="http://www.example.com" xmlns="http://www.w3.org/2000/svg" preserveAspectRatio="none" width="1.0750in" height="1.0750in" viewBox="0 0 999 999">

<path style="fill:#e5e5e5" d="M46,342 l-19,472 19,136 296,21 314,0 296,-21 19,-136 -19,-472 -906,0z" />
<path style="fill:#e0e0e0" d="M27,814 l19,136 296,21 314,0 296,-21 19,-136 -944,0z" />
<path style="fill:#32b2b2" d="M33,765 l932,0 0,-30 -932,0 0,30z" />
<path style="fill:#000" d="M416,961 l4,0 0,4 -4,0 0,-4z" />
<path style="fill:#000" d="M416,912 l4,0 0,6 -4,0 0,-6z" />
<path style="fill:#000" d="M416,865 l4,0 0,5 -4,0 0,-5z" />
<path style="fill:#000" d="M416,818 l4,0 0,4 -4,0 0,-4z" />
<path style="fill:#000" d="M416,769 l4,0 0,5 -4,0 0,-5z" />
<path style="fill:#000" d="M597,961 l6,0 0,4 -6,0 0,-4z" />
<path style="fill:#000" d="M597,912 l6,0 0,6 -6,0 0,-6z" />
<path style="fill:#000" d="M597,865 l6,0 0,5 -6,0 0,-5z" />
<path style="fill:#000" d="M597,818 l6,0 0,4 -6,0 0,-4z" />
<path style="fill:#000" d="M597,769 l6,0 0,5 -6,0 0,-5z" />
<path style="fill:#000" d="M482,769 l6,0 0,5 -6,0 0,-5z" />
<path style="fill:#000" d="M509,769 l5,0 0,5 -5,0 0,-5z" />
<path style="fill:none;stroke:#b2b2b2;stroke-width:2" d="M612,971 l0,-206" />
<path style="fill:none;stroke:#b2b2b2;stroke-width:2" d="M401,971 l0,-206" />
<path style="fill:none;stroke:#b2b2b2;stroke-width:2" d="M46,931 l355,0" />
<path style="fill:none;stroke:#b2b2b2;stroke-width:2" d="M616,931 l336,0" />
<path style="fill:none;stroke:#fff;stroke-width:2" d="M616,971 l0,-206" />
<path style="fill:none;stroke:#fff;stroke-width:2" d="M405,971 l0,-206" />
<path style="fill:#e5e5e5" d="M361,27 l157,0 0,315 -157,0 0,-315z" />
<path style="fill:#e0e0e0" d="M361,250 l157,-130 0,222 -157,0 0,-92z" />
<path style="fill:#dbdbdb" d="M361,263 l157,-130 0,209 -157,0 0,-79z" />
<path style="fill:#d6d6d6" d="M361,284 l157,-132 0,190 -157,0 0,-58z" />
<path style="fill:none;stroke:#000;stroke-width:2" d="M361,27 l157,0 0,315 -157,0 0,-315" />
<path style="fill:#e5e5e5" d="M205,282 l156,0 0,60 -156,0 0,-60z" />
<path style="fill:none;stroke:#000;stroke-width:2" d="M46,342 l-19,472 19,136 296,21 314,0 296,-21 19,-136 -19,-472 -906,0" />
<path style="fill:#b2b2b2;stroke:#7f7f7f;stroke-width:2" d="M401,144 l79,0 0,80 -79,0 0,-80z" />
<path style="fill:#b2b2b2;stroke:#7f7f7f;stroke-width:2" d="M263,282 l40,0 0,21 -40,0 0,-21z" />
<path style="fill:none;stroke:#000;stroke-width:2" d="M205,282 l156,0 0,60 -156,0 0,-60" />
<path style="fill:#e5e5e5;stroke:#000;stroke-width:2" d="M518,242 l211,-28 0,28 -211,21 0,-21z" />
<path style="fill:#fff;stroke:#000;stroke-width:2" d="M769,214 l-40,0 0,28 40,0 0,-28z" />
<path style="fill:#ccc" d="M765,244 l-30,0 0,133 30,0 0,-133z" />
<path style="fill:#e5e5e5" d="M761,244 l-23,0 0,133 23,0 0,-133z" />
<path style="fill:#f2f2f2" d="M757,244 l-15,0 0,133 15,0 0,-133z" />
<path style="fill:#fff" d="M754,244 l-8,0 0,133 8,0 0,-133z" />
<path style="fill:none;stroke:#000;stroke-width:2" d="M765,244 l-30,0 0,133 30,0 0,-133" />
<path style="fill:#fff;stroke:#000;stroke-width:2" d="M303,695 l39,-19 314,0 39,19 -392,0z" />
<path style="fill:#ccc;stroke:#000;stroke-width:2" d="M303,695 l39,-19 0,-275 -39,-21 0,315z" />
<path style="fill:#ccc;stroke:#000;stroke-width:2" d="M695,695 l-38,-19 0,-275 38,-21 0,315z" />
<path style="fill:#b2b2b2;stroke:#000;stroke-width:2" d="M303,380 l39,21 314,0 39,-21 -392,0z" />
<path style="fill:#d9d9d9" d="M695,695 l-30,0 0,-315 30,2 0,313z" />
<path style="fill:#d9d9d9" d="M303,380 l28,0 0,315 -28,0 0,-315z" />
<path style="fill:#000" d="M312,578 l0,-79 10,0 0,79 -10,0z" />
<path style="fill:#000" d="M676,578 l0,-79 10,0 0,79 -10,0z" />
<path style="fill:none;stroke:#7f7f7f;stroke-width:2" d="M665,695 l0,-313" />
<path style="fill:none;stroke:#7f7f7f;stroke-width:2" d="M331,380 l0,315" />
<path style="fill:none;stroke:#fff;stroke-width:2" d="M695,382 l0,313 -392,0" />
<path style="fill:none;stroke:#4c4c4c;stroke-width:2" d="M303,695 l0,-313 392,0" />
<path style="fill:none;stroke:#000;stroke-width:2" d="M705,493 l0,16 88,9 0,-19" />
<path style="fill:#ccc;stroke:#000;stroke-width:2" d="M686,377 l117,-10 0,138 -117,-12 0,-116z" />
<path style="fill:#fff;stroke:#000;stroke-width:2" d="M824,377 l-21,-10 0,138 21,-12 0,-116z" />
<path style="fill:#666" d="M707,388 l75,-6 0,89 -75,-8 0,-75z" />
<path style="fill:#333" d="M710,392 l68,-6 0,79 -68,-6 0,-67z" />
<path style="fill:none;stroke:#7f7f7f;stroke-width:2" d="M686,469 l117,11" />
<path style="fill:none;stroke:#7f7f7f;stroke-width:2" d="M741,499 l0,-25" />

</svg>
