 

<svg xmlns:agg="http://www.example.com" xmlns="http://www.w3.org/2000/svg" preserveAspectRatio="none" width="0.7091in" height="1.0750in" viewBox="0 0 659 999">

<path style="fill:#fc0" d="M631,28 l-603,0 0,905 603,0 0,-905z" />
<path style="fill:#fac700" d="M631,444 l-603,-263 0,752 603,0 0,-489z" />
<path style="fill:#f5c200" d="M631,480 l-603,-264 0,717 603,0 0,-453z" />
<path style="fill:#f0bd00" d="M631,539 l-603,-264 0,658 603,0 0,-394z" />
<path style="fill:#333" d="M593,46 l-188,0 0,132 188,0 0,-132z" />
<path style="fill:#7f7f7f" d="M574,103 l-37,0 0,57 37,0 0,-57z" />
<path style="fill:#e5e5e5" d="M574,46 l-37,0 0,17 37,0 0,-17z" />
<path style="fill:#bf0000" d="M518,84 l-38,0 0,38 38,0 0,-38z" />
<path style="fill:none;stroke:#c90;stroke-width:2" d="M593,763 l0,-245 -377,0" />
<path style="fill:none;stroke:#ff0;stroke-width:2" d="M216,518 l0,245 377,0" />
<path style="fill:#333" d="M631,857 l-453,0 0,-75 453,0 0,75z" />
<path style="fill:#333" d="M103,857 l-75,0 0,-75 75,0 0,75z" />
<path style="fill:#333" d="M178,28 l-75,0 0,754 75,0 0,-754z" />
<path style="fill:#333" d="M173,857 l-4,0 0,-75 4,0 0,75z" />
<path style="fill:#333" d="M163,857 l-4,0 0,-75 4,0 0,75z" />
<path style="fill:#333" d="M156,857 l-4,0 0,-75 4,0 0,75z" />
<path style="fill:#333" d="M146,857 l-4,0 0,-75 4,0 0,75z" />
<path style="fill:#333" d="M139,857 l-6,0 0,-75 6,0 0,75z" />
<path style="fill:#333" d="M129,857 l-4,0 0,-75 4,0 0,75z" />
<path style="fill:#333" d="M120,857 l-4,0 0,-75 4,0 0,75z" />
<path style="fill:#333" d="M112,857 l-5,0 0,-75 5,0 0,75z" />
<path style="fill:#333" d="M178,933 l-75,0 0,-76 75,0 0,76z" />
<path style="fill:#333" d="M593,254 l-188,0 0,-38 188,0 0,38z" />
<path style="fill:none;stroke:#fc0;stroke-width:2" d="M593,235 l-188,0" />
<path style="fill:none;stroke:#000;stroke-width:2" d="M631,28 l-603,0 0,905 603,0 0,-905" />
<path style="fill:none;stroke:#b27f00;stroke-width:2" d="M480,556 l75,0 0,5 -75,0 0,4 75,0 0,5 -75,0 0,4 75,0 0,6 -75,0 0,4 75,0 0,6 -75,0 0,3 75,0 0,6 -75,0 0,4 75,0 0,5 -75,0 0,4 75,0 0,6 -75,0 0,4 75,0 0,5 -75,0 0,4 75,0 0,5 -75,0 0,4 75,0 0,6 -75,0 0,4 75,0 0,6 -75,0 0,3 75,0 0,6 -75,0 0,4 75,0 0,5 -75,0 0,4 75,0 0,6 -75,0 0,4 75,0 0,5 -75,0 0,4 75,0 0,5 -75,0 0,4 75,0 0,6 -75,0 0,4 75,0 0,5 -75,0 0,4 75,0" />
<path style="fill:none;stroke:#b27f00;stroke-width:2" d="M367,556 l75,0 0,5 -75,0 0,4 75,0 0,5 -75,0 0,4 75,0 0,6 -75,0 0,4 75,0 0,6 -75,0 0,3 75,0 0,6 -75,0 0,4 75,0 0,5 -75,0 0,4 75,0 0,6 -75,0 0,4 75,0 0,5 -75,0 0,4 75,0 0,5 -75,0 0,4 75,0 0,6 -75,0 0,4 75,0 0,6 -75,0 0,3 75,0 0,6 -75,0 0,4 75,0 0,5 -75,0 0,4 75,0 0,6 -75,0 0,4 75,0 0,5 -75,0 0,4 75,0 0,5 -75,0 0,4 75,0 0,6 -75,0 0,4 75,0 0,5 -75,0 0,4 75,0" />
<path style="fill:none;stroke:#b27f00;stroke-width:2" d="M254,556 l75,0 0,5 -75,0 0,4 75,0 0,5 -75,0 0,4 75,0 0,6 -75,0 0,4 75,0 0,6 -75,0 0,3 75,0 0,6 -75,0 0,4 75,0 0,5 -75,0 0,4 75,0 0,6 -75,0 0,4 75,0 0,5 -75,0 0,4 75,0 0,5 -75,0 0,4 75,0 0,6 -75,0 0,4 75,0 0,6 -75,0 0,3 75,0 0,6 -75,0 0,4 75,0 0,5 -75,0 0,4 75,0 0,6 -75,0 0,4 75,0 0,5 -75,0 0,4 75,0 0,5 -75,0 0,4 75,0 0,6 -75,0 0,4 75,0 0,5 -75,0 0,4 75,0" />
<path style="fill:#000" d="M56,933 l-19,0 0,37 19,0 0,-37z" />
<path style="fill:#000" d="M621,933 l-18,0 0,37 18,0 0,-37z" />

</svg>
