 

<svg xmlns:agg="http://www.example.com" xmlns="http://www.w3.org/2000/svg" preserveAspectRatio="none" width="0.2284in" height="1.0750in" viewBox="0 0 212 998">

<path style="fill:#7f7f7f;stroke:#000;stroke-width:2" d="M184,931 l-79,39 -77,-39 19,-98 -19,-59 0,-58 19,-61 -19,-58 0,-58 19,-59 -19,-60 0,-392 156,0 0,392 -21,60 21,59 0,58 -21,58 21,61 0,58 -21,59 21,98z" />
<path style="fill:#999" d="M167,322 l-124,98 0,-392 124,0 0,294z" />
<path style="fill:#b2b2b2" d="M152,331 l-94,89 0,-392 94,0 0,303z" />
<path style="fill:#ccc" d="M135,343 l-60,77 0,-392 60,0 0,315z" />
<path style="fill:#e5e5e5" d="M120,361 l-30,59 0,-392 30,0 0,333z" />
<path style="fill:#666" d="M90,961 l-49,-25 70,-85 52,-18 12,58 0,15 -40,6 -45,49z" />
<path style="fill:#666" d="M47,833 l-19,-59 83,-98 52,-21 21,61 0,13 -49,6 -88,98z" />
<path style="fill:#666" d="M47,655 l-19,-58 83,-98 52,-19 21,59 0,13 -49,5 -88,98z" />
<path style="fill:#666" d="M47,478 l-19,-58 83,-98 52,-19 21,58 0,15 -49,4 -88,98z" />
<path style="fill:#999" d="M71,371 l40,-44 49,-20 15,30 -104,34z" />
<path style="fill:#999" d="M71,548 l40,-45 49,-19 15,30 -104,34z" />
<path style="fill:#999" d="M71,725 l40,-45 49,-19 15,28 -104,36z" />
<path style="fill:#999" d="M71,900 l40,-43 49,-19 9,29 -98,33z" />
<path style="fill:#999" d="M105,965 l-9,-4 39,-49 34,24 -64,29z" />
<path style="fill:#4c4c4c" d="M90,961 l-25,-15 12,-10 58,-24 -45,49z" />
<path style="fill:#4c4c4c" d="M47,833 l-10,-31 40,-43 58,-24 -88,98z" />
<path style="fill:#4c4c4c" d="M47,655 l-10,-28 40,-45 58,-25 -88,98z" />
<path style="fill:#4c4c4c" d="M47,478 l-10,-28 40,-45 58,-25 -88,98z" />
<path style="fill:#ccc" d="M160,416 l-40,43 -49,19 30,-34 59,-28z" />
<path style="fill:#ccc" d="M160,591 l-40,46 -49,18 30,-33 59,-31z" />
<path style="fill:#ccc" d="M160,769 l-40,45 -49,19 30,-34 59,-30z" />

</svg>
