 

<svg xmlns:agg="http://www.example.com" xmlns="http://www.w3.org/2000/svg" preserveAspectRatio="none" width="1.4651in" height="1.0750in" viewBox="0 0 999 733">

<path style="fill:#e5e5e5;stroke:#000;stroke-width:2" d="M48,48 l389,0 0,-20 164,1 0,21 288,0 0,374 -841,0 0,-376z" />
<path style="fill:#7f7f7f;stroke:#000;stroke-width:2" d="M48,173 l841,0 0,213 -841,0 0,-213z" />
<path style="fill:#4c4c4c" d="M293,316 l412,0 0,70 -412,0 0,-70z" />
<path style="fill:#4c4c4c" d="M295,224 l410,0 0,-11 -410,0 0,11z" />
<path style="fill:#ccc;stroke:#000;stroke-width:2" d="M627,182 l102,0 0,195 -102,0 0,-195z" />
<path style="fill:#ccc;stroke:#000;stroke-width:2" d="M269,310 l132,0 0,72 -132,0 0,-72z" />
<path style="fill:#b2b2b2;stroke:#000;stroke-width:2" d="M403,290 l224,0 0,77 -224,0 0,-77z" />
<path style="fill:#b2b2b2;stroke:#000;stroke-width:2" d="M284,203 l81,0 0,107 -81,0 0,-107z" />
<path style="fill:#999" d="M678,182 l36,0 0,195 -30,0 9,-21 0,-102 -15,-72z" />
<path style="fill:#999" d="M320,203 l-30,0 0,179 30,0 -15,-26 0,-102 15,-51z" />
<path style="fill:#7f0000" d="M48,418 l841,0 0,287 -841,0 0,-287z" />
<path style="fill:#e5e5e5" d="M48,561 l841,0 0,21 -841,0 0,-21z" />
<path style="fill:#e5e5e5" d="M48,520 l841,0 0,21 -841,0 0,-21z" />
<path style="fill:none;stroke:#000;stroke-width:2" d="M48,418 l841,0 0,287 -841,0 0,-287" />
<path style="fill:#e5e5e5" d="M950,386 l20,-30 0,-102 -20,-83 -266,0 21,83 0,102 -21,30 266,0z" />
<path style="fill:#e5e5e5" d="M48,386 l-20,-30 0,-102 20,-83 266,0 -21,83 0,102 21,30 -266,0z" />
<path style="fill:#d9d9d9" d="M561,520 l-11,-81 226,0 -11,81 -204,0z" />
<path style="fill:#f2f2f2" d="M550,439 l11,-32 204,0 11,32 -226,0z" />
<path style="fill:none;stroke:#000;stroke-width:2" d="M561,520 l-11,-81 11,-32 204,0 11,32 -11,81 -204,0" />
<path style="fill:#ccc" d="M555,433 l8,-21 200,0 8,21 -216,0z" />
<path style="fill:#333" d="M567,433 l5,-21 182,0 5,21 -192,0z" />
<path style="fill:#f2f2f2" d="M28,254 l20,-83 266,0 -21,83 -265,0z" />
<path style="fill:#f2f2f2" d="M970,254 l-20,-83 -266,0 21,83 265,0z" />
<path style="fill:#000" d="M42,248 l19,-72 236,0 -19,72 -236,0z" />
<path style="fill:#000" d="M955,248 l-18,-72 -234,0 16,72 236,0z" />
<path style="fill:none;stroke:#fff;stroke-width:2" d="M776,224 l72,-34" />
<path style="fill:none;stroke:#fff;stroke-width:2" d="M791,239 l87,-42" />
<path style="fill:none;stroke:#fff;stroke-width:2" d="M848,233 l41,-19" />
<path style="fill:none;stroke:#fff;stroke-width:2" d="M99,224 l72,-34" />
<path style="fill:none;stroke:#fff;stroke-width:2" d="M114,239 l89,-42" />
<path style="fill:none;stroke:#fff;stroke-width:2" d="M171,233 l41,-19" />
<path style="fill:#ccc" d="M48,386 l-20,-30 265,0 21,30 -266,0z" />
<path style="fill:#ccc" d="M950,386 l20,-30 -265,0 -21,30 266,0z" />
<path style="fill:#000" d="M273,335 l-8,0 0,-30 8,0 0,4 -2,0 0,22 2,0 0,4z" />
<path style="fill:#000" d="M953,305 l8,0 0,30 -8,0 0,-4 4,0 0,-22 -4,0 0,-4z" />
<path style="fill:none;stroke:#000;stroke-width:2" d="M950,386 l20,-30 0,-102 -20,-83 -266,0 21,83 0,102 -21,30 266,0" />
<path style="fill:none;stroke:#000;stroke-width:2" d="M48,386 l-20,-30 0,-102 20,-83 266,0 -21,83 0,102 21,30 -266,0" />
<path style="fill:#7f7f7f" d="M454,84 l132,0 0,72 -132,0 0,-72z" />
<path style="fill:#4c4c4c" d="M105,80 l102,0 0,70 -102,0 0,-70z" />
<path style="fill:#e5e5e5;stroke:#000;stroke-width:2" d="M314,275 l104,0 0,20 -104,0 0,-20z" />
<path style="fill:#e5e5e5;stroke:#000;stroke-width:2" d="M346,188 l96,0 0,87 -96,0 0,-87z" />
<path style="fill:none;stroke:#7f7f7f;stroke-width:2" d="M403,263 l-17,0 -17,-7 -8,-17 0,-17 8,-15 17,-10 17,0 15,10 9,15 0,17 -9,17 -15,7" />
<path style="fill:none;stroke:#7f7f7f;stroke-width:2" d="M433,48 l0,123" />
<path style="fill:none;stroke:#7f7f7f;stroke-width:2" d="M606,48 l0,123" />
<path style="fill:none;stroke:#000;stroke-width:2" d="M603,48 l0,123" />
<path style="fill:none;stroke:#000;stroke-width:2" d="M437,48 l0,123" />
<path style="fill:#ccc" d="M731,84 l132,0 0,42 -132,0 0,-42z" />

</svg>
