 

<svg xmlns:agg="http://www.example.com" xmlns="http://www.w3.org/2000/svg" preserveAspectRatio="none" width="0.9414in" height="1.0750in" viewBox="0 0 874 998">

<path style="fill:#7f7f7f;stroke:#000;stroke-width:2" d="M776,720 l59,0 11,136 -23,0 -47,-102 0,-34z" />
<path style="fill:none;stroke:#ccc;stroke-width:2" d="M816,816 l-40,-85" />
<path style="fill:#665940;stroke:#000;stroke-width:2" d="M188,863 l0,30 543,0 0,-30 -543,0z" />
<path style="fill:#665940;stroke:#000;stroke-width:2" d="M188,635 l-28,0 0,305 28,0 0,-305z" />
<path style="fill:#665940;stroke:#000;stroke-width:2" d="M465,635 l-30,0 0,305 30,0 0,-305z" />
<path style="fill:#333" d="M776,627 l-183,0 0,229 183,0 0,-229z" />
<path style="fill:#b2b2b2;stroke:#000;stroke-width:2" d="M697,627 l-23,0 0,206 23,0 0,-206z" />
<path style="fill:#999;stroke:#000;stroke-width:2" d="M731,627 l-23,0 0,206 23,0 0,-206z" />
<path style="fill:#999;stroke:#000;stroke-width:2" d="M663,627 l-23,0 0,206 23,0 0,-206z" />
<path style="fill:#7f7f7f;stroke:#000;stroke-width:2" d="M765,627 l-23,0 0,206 23,0 0,-206z" />
<path style="fill:#7f7f7f;stroke:#000;stroke-width:2" d="M627,627 l-22,0 0,206 22,0 0,-206z" />
<path style="fill:#666;stroke:#000;stroke-width:2" d="M492,925 l0,-69 320,0 0,69 -320,0z" />
<path style="fill:#333" d="M216,925 l0,-115 -23,0 0,115 23,0z" />
<path style="fill:#bfb299" d="M537,605 l0,-308 -23,-20 -41,-19 -59,-12 -70,-7 -71,0 -70,7 -58,12 -42,19 -23,20 0,308 457,0z" />
<path style="fill:#c4b79e" d="M514,605 l0,-308 -21,-23 -37,-16 -53,-14 -62,-5 -67,0 -62,5 -52,14 -38,16 -21,23 0,308 413,0z" />
<path style="fill:#ccbfa6" d="M492,605 l0,-308 -18,-23 -33,-16 -49,-14 -55,-5 -59,0 -54,5 -47,14 -35,16 -18,23 0,308 368,0z" />
<path style="fill:#d1c4ab" d="M469,605 l0,-308 -15,-23 -30,-16 -42,-14 -49,-5 -51,0 -49,5 -41,14 -31,16 -15,23 0,308 323,0z" />
<path style="fill:#d9ccb3" d="M448,605 l0,-308 -13,-23 -26,-16 -36,-14 -44,-5 -43,0 -42,5 -35,14 -27,16 -13,23 0,308 279,0z" />
<path style="fill:#ded1b8" d="M425,605 l0,-308 -11,-23 -22,-16 -31,-14 -36,-5 -35,0 -36,5 -30,14 -21,16 -11,23 0,308 233,0z" />
<path style="fill:#e5d8bf" d="M403,605 l0,-308 -10,-23 -17,-16 -24,-14 -28,-5 -31,0 -28,5 -24,14 -19,16 -10,23 0,308 191,0z" />
<path style="fill:#ebdec5" d="M380,605 l0,-308 -6,-23 -14,-16 -19,-14 -21,-5 -23,0 -23,5 -18,14 -14,16 -7,23 0,308 145,0z" />
<path style="fill:#f2e5cc" d="M358,605 l0,-308 -4,-23 -10,-16 -13,-14 -15,-5 -15,0 -17,5 -11,14 -10,16 -5,23 0,308 100,0z" />
<path style="fill:#f7ead1" d="M331,605 l0,-308 -2,-23 -4,-16 -7,-14 -6,-5 -7,0 -8,5 -5,14 -4,16 -4,23 0,308 47,0z" />
<path style="fill:#8c7f66" d="M537,605 l-138,115 0,228 -183,0 0,-228 -136,-115 457,0z" />
<path style="fill:#94876e" d="M514,605 l-122,115 0,228 -166,0 0,-228 -125,-115 413,0z" />
<path style="fill:#9c8f76" d="M493,605 l-111,115 0,228 -147,0 0,-228 -111,-115 369,0z" />
<path style="fill:#a3967d" d="M471,605 l-98,115 0,228 -131,0 0,-228 -97,-115 326,0z" />
<path style="fill:#ab9e85" d="M450,605 l-85,115 0,228 -113,0 0,-228 -85,-115 283,0z" />
<path style="fill:#b2a58c" d="M427,605 l-71,115 0,228 -96,0 0,-228 -72,-115 239,0z" />
<path style="fill:#baad94" d="M406,605 l-60,115 0,228 -77,0 0,-228 -59,-115 196,0z" />
<path style="fill:#c2b59c" d="M384,605 l-45,115 0,228 -61,0 0,-228 -47,-115 153,0z" />
<path style="fill:#c9bca3" d="M363,605 l-34,115 0,228 -43,0 0,-228 -32,-115 109,0z" />
<path style="fill:#d1c4ab" d="M341,605 l-19,115 0,228 -27,0 0,-228 -21,-115 67,0z" />
<path style="fill:#d9ccb3" d="M320,605 l-8,115 0,228 -9,0 0,-228 -6,-115 23,0z" />
<path style="fill:none;stroke:#fff2d9;stroke-width:2" d="M537,297 l-457,0" />
<path style="fill:#333" d="M216,880 l0,-24 183,0 0,24 -183,0z" />
<path style="fill:none;stroke:#000;stroke-width:2" d="M399,925 l-183,0" />
<path style="fill:none;stroke:#fff2d9;stroke-width:2" d="M537,559 l-457,0" />
<path style="fill:none;stroke:#000;stroke-width:2" d="M80,605 l0,-308 23,-20 42,-19 58,-12 70,-7 71,0 70,7 59,12 41,19 23,20 0,308 -138,115 0,228 -183,0 0,-228 -136,-115" />
<path style="fill:#d9ccb3;stroke:#000;stroke-width:2" d="M812,867 l-7,-11 -16,-12 -309,-90 -298,0 0,-34 298,0 304,86 30,14 21,17 11,20 0,113 -34,0 0,-103z" />
<path style="fill:#d9ccb3;stroke:#000;stroke-width:2" d="M160,880 l0,34 652,0 0,-34 -652,0z" />
<path style="fill:#d9ccb3;stroke:#000;stroke-width:2" d="M160,605 l-34,0 0,365 34,0 0,-365z" />
<path style="fill:#d9ccb3;stroke:#000;stroke-width:2" d="M492,605 l-35,0 0,365 35,0 0,-365z" />
<path style="fill:#7f7f7f" d="M776,627 l0,-90 -45,-12 0,-22 -91,0 0,22 -47,12 0,90 183,0z" />
<path style="fill:#8c8c8c" d="M763,627 l0,-90 -39,-12 0,-24 -78,0 0,24 -40,12 0,90 157,0z" />
<path style="fill:#999" d="M750,627 l0,-90 -32,-12 0,-24 -64,0 0,24 -34,12 0,90 130,0z" />
<path style="fill:#a6a6a6" d="M737,627 l0,-90 -27,-12 0,-24 -51,0 0,24 -26,12 0,90 104,0z" />
<path style="fill:#b2b2b2" d="M724,627 l0,-90 -19,-12 0,-24 -38,0 0,24 -21,12 0,90 78,0z" />
<path style="fill:#bfbfbf" d="M710,627 l0,-90 -13,-12 0,-24 -24,0 0,24 -12,12 0,90 49,0z" />
<path style="fill:#ccc" d="M697,627 l0,-90 -6,-12 0,-22 -11,0 0,22 -6,12 0,90 23,0z" />
<path style="fill:none;stroke:#000;stroke-width:2" d="M776,627 l0,-90 -45,-12 0,-22 -91,0 0,22 -47,12 0,90 183,0" />
<path style="fill:#bfb299;stroke:#000;stroke-width:2" d="M277,261 l13,-7 7,-6 -2,-4 -9,-3 -15,1 -23,2 -24,4 -27,8 -24,7 -19,8 -15,7 -6,6 0,4 9,4 18,-2 20,-2 27,-4 24,-7 25,-8 21,-8z" />
<path style="fill:#333;stroke:#000;stroke-width:2" d="M273,254 l15,-6 7,-6 -2,-1 -7,-2 -17,2 -21,3 -24,4 -27,8 -24,5 -19,8 -15,5 -8,6 2,2 8,2 17,-2 20,-4 25,-4 26,-7 25,-6 19,-7z" />
<path style="fill:#d9ccb3;stroke:#000;stroke-width:2" d="M154,267 l0,-28 -85,-211 -13,0 75,239 23,0z" />
<path style="fill:#f2e5cc;stroke:#000;stroke-width:2" d="M177,209 l5,-29 0,-34 -9,-32 -15,-28 -21,-22 -23,-16 -24,-3 -23,5 -19,17 -13,23 -7,30 1,34 10,32 15,28 19,23 24,13 25,6 23,-8 18,-15 14,-24z" />
<path style="fill:#d9ccb3" d="M165,201 l6,-26 0,-27 -8,-28 -13,-24 -17,-19 -21,-12 -20,-4 -19,4 -17,15 -11,19 -4,27 0,26 7,28 13,25 17,19 21,11 19,4 21,-6 15,-13 11,-19z" />
<path style="fill:#cfc2a9" d="M158,199 l5,-22 -2,-27 -5,-24 -14,-23 -14,-19 -19,-11 -19,-4 -17,6 -15,13 -12,19 -5,22 1,25 8,26 11,23 16,17 19,11 18,4 19,-6 15,-11 10,-19z" />
<path style="fill:#c4b79e" d="M150,199 l6,-22 -2,-23 -6,-25 -11,-20 -15,-15 -17,-12 -17,-2 -17,4 -13,12 -10,16 -6,21 3,25 5,22 11,23 16,15 17,10 16,3 18,-3 13,-14 9,-15z" />
<path style="fill:#b8ab92" d="M142,197 l4,-19 0,-22 -5,-21 -10,-19 -13,-15 -17,-9 -15,-2 -15,4 -13,9 -8,17 -5,19 1,21 6,22 9,19 14,15 15,8 17,4 15,-4 11,-12 9,-15z" />
<path style="fill:#ada087" d="M135,197 l4,-19 0,-18 -6,-19 -9,-17 -12,-14 -13,-9 -15,-2 -13,4 -11,9 -10,14 -4,19 2,18 6,19 7,17 14,13 13,8 15,4 13,-4 12,-10 7,-13z" />
<path style="fill:#a3967d" d="M128,196 l3,-18 0,-15 -5,-17 -8,-17 -11,-11 -11,-8 -14,-1 -13,3 -9,8 -8,13 -4,15 2,17 4,17 7,17 12,11 13,8 13,2 11,-4 10,-7 8,-13z" />
<path style="fill:#998c73" d="M120,196 l4,-16 0,-15 -6,-15 -6,-13 -9,-9 -11,-8 -12,-2 -11,4 -8,7 -7,12 -2,13 0,15 4,15 8,13 9,12 11,5 12,2 9,-2 9,-7 6,-11z" />

</svg>
