 

<svg xmlns:agg="http://www.example.com" xmlns="http://www.w3.org/2000/svg" preserveAspectRatio="none" width="1.3258in" height="1.0750in" viewBox="0 0 999 810">

<path style="fill:#b2b2b2;stroke:#000;stroke-width:2" d="M865,739 l0,-544 -42,-52 0,596 42,0z" />
<path style="fill:#000" d="M258,739 l273,0 0,11 -273,0 0,-11z" />
<path style="fill:#69f;stroke:#000;stroke-width:2" d="M823,739 l147,0 0,43 -147,0 0,-43z" />
<path style="fill:#039;stroke:#000;stroke-width:2" d="M823,739 l-62,0 0,43 62,0 0,-43z" />
<path style="fill:#030;stroke:#000;stroke-width:2" d="M531,739 l230,0 0,43 -230,0 0,-43z" />
<path style="fill:#696" d="M697,48 l85,0 0,493 -85,0 0,-493z" />
<path style="fill:#696" d="M278,529 l419,0 0,-501 -419,0 0,501z" />
<path style="fill:#b2b2b2;stroke:#000;stroke-width:2" d="M39,739 l219,0 0,43 -219,0 0,-43z" />
<path style="fill:#030" d="M761,48 l21,0 0,481 -21,0 0,-481z" />
<path style="fill:none;stroke:#000;stroke-width:2" d="M697,48 l85,0 0,493 -85,0 0,-493" />
<path style="fill:#ccc;stroke:#000;stroke-width:2" d="M740,111 l83,0 0,628 -83,0 0,-628z" />
<path style="fill:#b2b2b2" d="M720,529 l83,12 0,198 -83,0 0,-210z" />
<path style="fill:#ccc" d="M216,529 l504,0 0,210 -504,0 0,-210z" />
<path style="fill:#ccc" d="M28,488 l167,0 0,251 -167,0 0,-251z" />
<path style="fill:#c7c7c7" d="M216,655 l504,-105 0,189 -504,0 0,-84z" />
<path style="fill:#c7c7c7" d="M28,614 l167,-41 0,166 -167,0 0,-125z" />
<path style="fill:#c2c2c2" d="M216,697 l504,-104 0,146 -504,0 0,-42z" />
<path style="fill:#c2c2c2" d="M28,657 l167,-43 0,125 -167,0 0,-82z" />
<path style="fill:#bdbdbd" d="M216,718 l504,-104 0,125 -504,0 0,-21z" />
<path style="fill:#bdbdbd" d="M28,699 l167,-44 0,84 -167,0 0,-40z" />
<path style="fill:none;stroke:#000;stroke-width:2" d="M216,529 l504,0 83,12 0,198 -587,0 0,-210" />
<path style="fill:none;stroke:#000;stroke-width:2" d="M28,488 l167,0 0,251 -167,0 0,-251" />
<path style="fill:#619461" d="M278,258 l419,-106 0,377 -419,0 0,-271z" />
<path style="fill:#5c8f5c" d="M278,352 l419,-106 0,283 -419,0 0,-177z" />
<path style="fill:#578a57" d="M278,446 l419,-105 0,188 -419,0 0,-83z" />
<path style="fill:none;stroke:#000;stroke-width:2" d="M278,529 l419,0 0,-501 -419,0 0,501" />
<path style="fill:#b2b2b2" d="M384,655 l168,0 0,21 -168,0 0,-21z" />
<path style="fill:none;stroke:#e5e5e5;stroke-width:2" d="M720,739 l0,-210" />
<path style="fill:none;stroke:#e5e5e5;stroke-width:2" d="M384,655 l168,0" />
<path style="fill:none;stroke:#7f7f7f;stroke-width:2" d="M384,739 l0,-210" />
<path style="fill:none;stroke:#7f7f7f;stroke-width:2" d="M552,739 l0,-210" />
<path style="fill:none;stroke:#030;stroke-width:2" d="M457,529 l0,-501" />
<path style="fill:#fc0" d="M163,499 l21,0 0,42 -21,0 0,-42z" />
<path style="fill:#ffb27f" d="M310,48 l63,0 0,21 -63,0 0,-21z" />
<path style="fill:#000" d="M310,69 l63,0 0,21 -63,0 0,-21z" />
<path style="fill:#000" d="M437,488 l0,-336 -85,0 -21,168 21,168 85,0z" />
<path style="fill:#000" d="M478,488 l0,-336 83,0 21,168 -21,168 -83,0z" />
<path style="fill:#333" d="M425,478 l0,-315 -62,0 -20,157 20,158 62,0z" />
<path style="fill:#333" d="M488,478 l0,-315 62,0 21,157 -21,158 -62,0z" />
<path style="fill:#000" d="M446,499 l21,0 0,21 -21,0 0,-21z" />

</svg>
