 

<svg xmlns:agg="http://www.example.com" xmlns="http://www.w3.org/2000/svg" preserveAspectRatio="none" width="1.0750in" height="1.0750in" viewBox="0 0 998 998">

<path style="fill:#ccc;stroke:#000;stroke-width:2" d="M498,500 l0,-450 41,-20 -21,20 -20,450z" />
<path style="fill:#ccc;stroke:#000;stroke-width:2" d="M498,500 l-39,-448 39,-24 -18,22 18,450z" />
<path style="fill:#ccc;stroke:#000;stroke-width:2" d="M498,500 l-77,-442 36,-28 -17,24 58,446z" />
<path style="fill:#ccc;stroke:#000;stroke-width:2" d="M498,500 l-116,-435 34,-30 -13,24 95,441z" />
<path style="fill:#ccc;stroke:#000;stroke-width:2" d="M498,500 l-153,-424 32,-31 -13,26 134,429z" />
<path style="fill:#ccc;stroke:#000;stroke-width:2" d="M498,500 l-189,-409 29,-35 -10,27 170,417z" />
<path style="fill:#ccc;stroke:#000;stroke-width:2" d="M498,500 l-224,-390 26,-38 -7,28 205,400z" />
<path style="fill:#ccc;stroke:#000;stroke-width:2" d="M498,500 l-258,-370 23,-39 -6,28 241,381z" />
<path style="fill:#ccc;stroke:#000;stroke-width:2" d="M498,500 l-288,-345 17,-42 -2,29 273,358z" />
<path style="fill:#ccc;stroke:#000;stroke-width:2" d="M498,500 l-317,-319 14,-43 0,30 303,332z" />
<path style="fill:#ccc;stroke:#000;stroke-width:2" d="M498,500 l-343,-290 11,-44 2,28 330,306z" />
<path style="fill:#ccc;stroke:#000;stroke-width:2" d="M498,500 l-368,-258 8,-47 5,30 355,275z" />
<path style="fill:#ccc;stroke:#000;stroke-width:2" d="M498,500 l-388,-226 2,-45 7,28 379,243z" />
<path style="fill:#ccc;stroke:#000;stroke-width:2" d="M498,500 l-407,-191 0,-46 9,28 398,209z" />
<path style="fill:#ccc;stroke:#000;stroke-width:2" d="M498,500 l-422,-155 -5,-45 12,26 415,174z" />
<path style="fill:#ccc;stroke:#000;stroke-width:2" d="M498,500 l-433,-118 -9,-44 15,26 427,136z" />
<path style="fill:#ccc;stroke:#000;stroke-width:2" d="M498,500 l-442,-79 -13,-44 16,24 439,99z" />
<path style="fill:#ccc;stroke:#000;stroke-width:2" d="M498,500 l-446,-39 -17,-43 19,22 444,60z" />
<path style="fill:#ccc;stroke:#000;stroke-width:2" d="M498,500 l-448,0 -20,-41 20,21 448,20z" />
<path style="fill:#ccc;stroke:#000;stroke-width:2" d="M498,500 l-446,39 -24,-39 22,18 448,-18z" />
<path style="fill:#ccc;stroke:#000;stroke-width:2" d="M498,500 l-442,77 -26,-36 22,17 446,-58z" />
<path style="fill:#ccc;stroke:#000;stroke-width:2" d="M498,500 l-433,116 -30,-34 24,13 439,-95z" />
<path style="fill:#ccc;stroke:#000;stroke-width:2" d="M498,500 l-422,153 -33,-32 26,13 429,-134z" />
<path style="fill:#ccc;stroke:#000;stroke-width:2" d="M498,500 l-407,189 -35,-29 27,10 415,-170z" />
<path style="fill:#ccc;stroke:#000;stroke-width:2" d="M498,500 l-388,224 -39,-26 27,7 400,-205z" />
<path style="fill:#ccc;stroke:#000;stroke-width:2" d="M498,500 l-368,258 -39,-23 28,6 379,-241z" />
<path style="fill:#ccc;stroke:#000;stroke-width:2" d="M498,500 l-343,288 -42,-17 29,2 356,-273z" />
<path style="fill:#ccc;stroke:#000;stroke-width:2" d="M498,500 l-317,317 -43,-14 28,0 332,-303z" />
<path style="fill:#ccc;stroke:#000;stroke-width:2" d="M498,500 l-288,343 -44,-11 28,-2 304,-330z" />
<path style="fill:#ccc;stroke:#000;stroke-width:2" d="M498,500 l-258,368 -45,-8 29,-5 274,-355z" />
<path style="fill:#ccc;stroke:#000;stroke-width:2" d="M498,500 l-224,388 -45,-2 28,-7 241,-379z" />
<path style="fill:#ccc;stroke:#000;stroke-width:2" d="M498,500 l-189,407 -46,0 28,-9 207,-398z" />
<path style="fill:#ccc;stroke:#000;stroke-width:2" d="M498,500 l-153,422 -45,5 26,-12 172,-415z" />
<path style="fill:#ccc;stroke:#000;stroke-width:2" d="M498,500 l-116,433 -44,9 24,-15 136,-427z" />
<path style="fill:#ccc;stroke:#000;stroke-width:2" d="M498,500 l-77,442 -44,13 24,-16 97,-439z" />
<path style="fill:#ccc;stroke:#000;stroke-width:2" d="M498,500 l-39,446 -41,17 20,-19 60,-444z" />
<path style="fill:#ccc;stroke:#000;stroke-width:2" d="M498,500 l0,448 -39,20 19,-20 20,-448z" />
<path style="fill:#ccc;stroke:#000;stroke-width:2" d="M498,500 l39,446 -37,24 17,-22 -19,-448z" />
<path style="fill:#ccc;stroke:#000;stroke-width:2" d="M498,500 l79,442 -36,26 15,-22 -58,-446z" />
<path style="fill:#ccc;stroke:#000;stroke-width:2" d="M498,500 l118,433 -36,30 15,-24 -97,-439z" />
<path style="fill:#ccc;stroke:#000;stroke-width:2" d="M498,500 l155,422 -32,33 11,-26 -134,-429z" />
<path style="fill:#ccc;stroke:#000;stroke-width:2" d="M498,500 l191,407 -29,35 10,-27 -172,-415z" />
<path style="fill:#ccc;stroke:#000;stroke-width:2" d="M498,500 l226,388 -26,39 7,-27 -207,-400z" />
<path style="fill:#ccc;stroke:#000;stroke-width:2" d="M498,500 l258,368 -21,39 4,-28 -241,-379z" />
<path style="fill:#ccc;stroke:#000;stroke-width:2" d="M498,500 l290,343 -19,42 4,-29 -275,-356z" />
<path style="fill:#ccc;stroke:#000;stroke-width:2" d="M498,500 l319,317 -14,43 0,-28 -305,-332z" />
<path style="fill:#ccc;stroke:#000;stroke-width:2" d="M498,500 l345,288 -11,44 -2,-28 -332,-304z" />
<path style="fill:#ccc;stroke:#000;stroke-width:2" d="M498,500 l370,258 -8,45 -5,-29 -357,-274z" />
<path style="fill:#ccc;stroke:#000;stroke-width:2" d="M498,500 l390,224 -3,45 -8,-28 -379,-241z" />
<path style="fill:#ccc;stroke:#000;stroke-width:2" d="M498,500 l409,189 0,46 -9,-28 -400,-207z" />
<path style="fill:#ccc;stroke:#000;stroke-width:2" d="M498,500 l424,153 4,45 -11,-26 -417,-172z" />
<path style="fill:#ccc;stroke:#000;stroke-width:2" d="M498,500 l435,116 9,44 -15,-24 -429,-136z" />
<path style="fill:#ccc;stroke:#000;stroke-width:2" d="M498,500 l442,77 15,44 -16,-24 -441,-97z" />
<path style="fill:#ccc;stroke:#000;stroke-width:2" d="M498,500 l448,39 17,41 -19,-20 -446,-60z" />
<path style="fill:#ccc;stroke:#000;stroke-width:2" d="M498,500 l450,0 20,39 -20,-19 -450,-20z" />
<path style="fill:#ccc;stroke:#000;stroke-width:2" d="M498,500 l448,-39 24,37 -22,-17 -450,19z" />
<path style="fill:#ccc;stroke:#000;stroke-width:2" d="M498,500 l442,-79 28,36 -24,-15 -446,58z" />
<path style="fill:#ccc;stroke:#000;stroke-width:2" d="M498,500 l435,-118 30,36 -24,-15 -441,97z" />
<path style="fill:#ccc;stroke:#000;stroke-width:2" d="M498,500 l424,-155 31,32 -26,-11 -429,134z" />
<path style="fill:#ccc;stroke:#000;stroke-width:2" d="M498,500 l409,-191 35,29 -27,-10 -417,172z" />
<path style="fill:#ccc;stroke:#000;stroke-width:2" d="M498,500 l390,-226 38,26 -28,-7 -400,207z" />
<path style="fill:#ccc;stroke:#000;stroke-width:2" d="M498,500 l370,-258 39,21 -28,-4 -381,241z" />
<path style="fill:#ccc;stroke:#000;stroke-width:2" d="M498,500 l345,-290 42,19 -29,-4 -358,275z" />
<path style="fill:#ccc;stroke:#000;stroke-width:2" d="M498,500 l319,-319 43,14 -30,0 -332,305z" />
<path style="fill:#ccc;stroke:#000;stroke-width:2" d="M498,500 l290,-345 44,11 -28,2 -306,332z" />
<path style="fill:#ccc;stroke:#000;stroke-width:2" d="M498,500 l258,-370 47,8 -30,5 -275,357z" />
<path style="fill:#ccc;stroke:#000;stroke-width:2" d="M498,500 l226,-390 45,3 -28,8 -243,379z" />
<path style="fill:#ccc;stroke:#000;stroke-width:2" d="M498,500 l191,-409 46,0 -28,9 -209,400z" />
<path style="fill:#ccc;stroke:#000;stroke-width:2" d="M498,500 l155,-424 45,-4 -26,11 -174,417z" />
<path style="fill:#ccc;stroke:#000;stroke-width:2" d="M498,500 l118,-435 44,-9 -26,15 -136,429z" />
<path style="fill:#ccc;stroke:#000;stroke-width:2" d="M498,500 l79,-442 44,-15 -24,16 -99,441z" />
<path style="fill:#ccc;stroke:#000;stroke-width:2" d="M498,500 l39,-448 43,-17 -22,19 -60,446z" />
<circle style="fill:#e5e5e5;stroke:#7f7f7f;stroke-width:2" cx="499" cy="499" r="449" />
<path style="fill:#dedede" d="M498,498 l-427,58 0,-114 27,-108 59,-99 80,-78 97,-59 108,-27 114,0 -58,427 429,-56 0,114 -29,108 -57,97 -80,80 -97,57 -108,29 -114,0 56,-429z" />
<path style="fill:#d6d6d6" d="M98,334 l59,-99 80,-78 97,-59 164,400 400,166 -57,97 -80,80 -97,57 -166,-400 -400,-164z" />
<path style="fill:#ccc" d="M157,235 l80,-78 261,341 343,263 -80,80 -263,-343 -341,-263z" />
<circle style="fill:#333" cx="499" cy="499" r="19" />

</svg>
