 

<svg xmlns:agg="http://www.example.com" xmlns="http://www.w3.org/2000/svg" preserveAspectRatio="none" width="0.6064in" height="1.0750in" viewBox="0 0 563 998">

<path style="fill:#ccc" d="M31,584 l3,-541 424,0 0,232 -232,0 0,309 269,0 0,386 -464,0 0,-386z" />
<path style="fill:#c7c7c7" d="M31,584 l195,-96 0,96 269,0 0,386 -464,0 0,-386z" />
<path style="fill:#c2c2c2" d="M31,603 l195,-97 0,78 269,0 0,386 -464,0 0,-367z" />
<path style="fill:#bdbdbd" d="M31,622 l195,-97 0,59 269,0 0,386 -464,0 0,-348z" />
<path style="fill:none;stroke:#000;stroke-width:2" d="M31,584 l3,-541 424,0 0,232 -232,0 0,309 269,0 0,386 -464,0 0,-386" />
<path style="fill:none;stroke:#7f7f7f;stroke-width:2" d="M458,622 l-251,0 0,231 37,40" />
<path style="fill:none;stroke:#7f7f7f;stroke-width:2" d="M207,622 l0,-566" />
<path style="fill:none;stroke:#e5e5e5;stroke-width:2" d="M244,893 l214,0 0,-271" />
<path style="fill:none;stroke:#666;stroke-width:2" d="M65,931 l108,0" />
<path style="fill:none;stroke:#666;stroke-width:2" d="M65,912 l108,0" />
<path style="fill:none;stroke:#666;stroke-width:2" d="M173,893 l-108,0" />
<path style="fill:none;stroke:#666;stroke-width:2" d="M65,874 l108,0" />
<path style="fill:none;stroke:#666;stroke-width:2" d="M173,853 l-108,0" />
<path style="fill:none;stroke:#666;stroke-width:2" d="M65,834 l108,0" />
<path style="fill:none;stroke:#666;stroke-width:2" d="M173,816 l-108,0" />
<path style="fill:none;stroke:#666;stroke-width:2" d="M65,797 l108,0" />
<path style="fill:none;stroke:#666;stroke-width:2" d="M173,776 l-108,0" />
<path style="fill:none;stroke:#666;stroke-width:2" d="M65,757 l108,0" />
<path style="fill:none;stroke:#666;stroke-width:2" d="M173,738 l-108,0" />
<path style="fill:none;stroke:#666;stroke-width:2" d="M65,719 l108,0" />
<path style="fill:#e5e5e5;stroke:#000;stroke-width:2" d="M101,680 l-11,-11 0,-15 11,-12 17,0 12,12 0,15 -12,11 -17,0z" />
<path style="fill:#333;stroke:#000;stroke-width:2" d="M101,488 l-11,-13 0,-16 11,-11 17,0 12,11 0,16 -12,13 -17,0z" />
<path style="fill:#999;stroke:#000;stroke-width:2" d="M226,565 l250,0 0,19 -250,0 0,-19z" />
<path style="fill:#333;stroke:#000;stroke-width:2" d="M226,525 l309,0 0,40 -309,0 0,-40z" />
<path style="fill:#ccc;stroke:#000;stroke-width:2" d="M439,275 l0,194 -21,0 0,-194 21,0z" />
<path style="fill:#000;stroke:#000;stroke-width:2" d="M380,303 l-39,0 0,-10 39,0 0,10z" />
<path style="fill:none;stroke:#000;stroke-width:2" d="M361,293 l0,-18" />
<path style="fill:#999" d="M254,148 l175,0 0,40 -175,0 0,-40z" />
<path style="fill:#666" d="M86,111 l62,0 0,22 -62,0 0,-22z" />
<path style="fill:#4c4c4c;stroke:#000;stroke-width:2" d="M65,970 l-37,0 0,-9 37,0 0,9z" />
<path style="fill:#4c4c4c;stroke:#000;stroke-width:2" d="M501,970 l-38,0 0,-9 38,0 0,9z" />
<path style="fill:none;stroke:#000;stroke-width:2" d="M244,43 l-3,-6 0,-6 3,-3 6,0 4,3 0,6 -4,6 -6,0" />

</svg>
