 

<svg xmlns:agg="http://www.example.com" xmlns="http://www.w3.org/2000/svg" preserveAspectRatio="none" width="1.2473in" height="1.0750in" viewBox="0 0 999 861">

<path style="fill:#f2e5cc;stroke:#000;stroke-width:2" d="M744,322 l0,-59 6,-17 9,-17 11,-11 17,-9 17,-6 19,0 17,6 15,9 13,11 10,17 4,17 0,59 -138,0z" />
<path style="fill:#f2e5cc" d="M28,105 l235,0 0,-77 -235,0 0,77z" />
<path style="fill:#ccbfa6" d="M28,105 l235,0 0,-58 -167,0 -68,58z" />
<path style="fill:none;stroke:#000;stroke-width:2" d="M28,105 l235,0 0,-77 -235,0 0,77" />
<path style="fill:#f2e5cc;stroke:#000;stroke-width:2" d="M441,245 l0,-61 3,-17 10,-15 13,-13 15,-8 17,-5 19,0 17,5 17,8 11,13 9,15 4,17 0,59 -135,2z" />
<path style="fill:#7f7259" d="M126,401 l805,0 0,373 -805,0 0,-373z" />
<path style="fill:#f2e5cc;stroke:#000;stroke-width:2" d="M380,420 l257,0 0,79 -257,0 0,-79z" />
<path style="fill:#b2a58c;stroke:#000;stroke-width:2" d="M951,380 l19,0 0,79 -19,0 0,-79z" />
<path style="fill:#f2e5cc;stroke:#000;stroke-width:2" d="M282,341 l79,0 0,158 -79,0 0,-158z" />
<path style="fill:#f2e5cc;stroke:#000;stroke-width:2" d="M107,774 l844,0 0,38 -844,0 0,-38z" />
<path style="fill:#f2e5cc;stroke:#000;stroke-width:2" d="M86,812 l884,0 0,20 -884,0 0,-20z" />
<path style="fill:#f2e5cc" d="M676,557 l255,0 0,217 -255,0 0,-217z" />
<path style="fill:#f2e5cc" d="M380,557 l275,0 0,217 -275,0 0,-217z" />
<path style="fill:#f2e5cc" d="M126,557 l235,0 0,217 -235,0 0,-217z" />
<path style="fill:#f2e5cc;stroke:#000;stroke-width:2" d="M774,224 l98,0 0,79 -98,0 0,-79z" />
<path style="fill:#ccbfa6;stroke:#000;stroke-width:2" d="M695,303 l256,0 0,196 -256,0 0,-196z" />
<path style="fill:#f2e5cc;stroke:#000;stroke-width:2" d="M28,105 l275,0 0,394 -275,0 0,-394z" />
<circle style="fill:#f2e5cc;stroke:#000;stroke-width:2" cx="508" cy="194" r="49" />
<path style="fill:#998c73" d="M126,86 l196,0 0,119 -196,0 0,-119z" />
<path style="fill:#b0a38a" d="M126,99 l196,0 0,93 -196,0 0,-93z" />
<path style="fill:#c4b79e" d="M126,113 l196,0 0,66 -196,0 0,-66z" />
<path style="fill:#dbceb5" d="M126,124 l196,0 0,43 -196,0 0,-43z" />
<path style="fill:#f2e5cc" d="M126,137 l196,0 0,17 -196,0 0,-17z" />
<path style="fill:#f2e5cc" d="M282,86 l40,0 0,119 -40,0 0,-119z" />
<path style="fill:none;stroke:#000;stroke-width:2" d="M126,86 l196,0 0,119 -196,0 0,-119" />
<path style="fill:none;stroke:#000;stroke-width:2" d="M286,205 l0,-119" />
<path style="fill:#b2a58c" d="M28,420 l98,0 0,79 -98,0 0,-79z" />
<path style="fill:#ccbfa6" d="M28,420 l98,0 0,-59 -98,0 0,59z" />
<path style="fill:#e5d8bf" d="M28,184 l98,0 0,177 -98,0 0,-177z" />
<path style="fill:none;stroke:#000;stroke-width:2" d="M28,105 l98,0 0,394 -98,0 0,-394" />
<path style="fill:#7f7259" d="M126,205 l156,0 0,236 -156,0 0,-236z" />
<path style="fill:#ccbfa6;stroke:#000;stroke-width:2" d="M184,224 l98,0 0,58 -98,0 0,-58z" />
<path style="fill:#ccbfa6;stroke:#000;stroke-width:2" d="M145,282 l100,0 0,119 -119,0 0,-21 19,0 0,-98z" />
<path style="fill:#ccbfa6;stroke:#000;stroke-width:2" d="M126,401 l196,0 0,58 -196,0 0,-58z" />
<path style="fill:#f60" d="M145,410 l158,0 0,21 -158,0 0,-21z" />
<path style="fill:#7f7259;stroke:#000;stroke-width:2" d="M420,478 l0,-117 -40,-39 0,-79 257,0 0,79 -40,39 0,117 -177,0z" />
<path style="fill:#ccbfa6;stroke:#000;stroke-width:2" d="M480,282 l77,0 0,217 -77,0 0,-217z" />
<path style="fill:#f2e5cc;stroke:#000;stroke-width:2" d="M361,243 l294,0 0,11 -294,0 0,-11z" />
<path style="fill:none;stroke:#fff;stroke-width:2" d="M499,744 l0,-156 147,0" />
<path style="fill:none;stroke:#bfb299;stroke-width:2" d="M499,744 l147,0 0,-156" />
<path style="fill:#ccbfa6" d="M380,753 l275,0 0,21 -275,0 0,-21z" />
<path style="fill:#ccbfa6" d="M676,753 l255,0 0,21 -255,0 0,-21z" />
<path style="fill:#ccbfa6" d="M126,753 l235,0 0,21 -235,0 0,-21z" />
<path style="fill:#998c73;stroke:#000;stroke-width:2" d="M459,282 l-18,0 0,217 18,0 0,-217z" />
<path style="fill:#f2e5cc;stroke:#000;stroke-width:2" d="M410,273 l187,0 0,68 -187,0 0,-68z" />
<path style="fill:#ccbfa6" d="M380,557 l275,0 0,19 -275,0 0,-19z" />
<path style="fill:#ccbfa6" d="M676,557 l255,0 0,19 -255,0 0,-19z" />
<path style="fill:#ccbfa6" d="M126,557 l235,0 0,19 -235,0 0,-19z" />
<path style="fill:#f2e5cc" d="M47,499 l904,0 0,58 -904,0 0,-58z" />
<path style="fill:none;stroke:#000;stroke-width:2" d="M676,557 l255,0 0,217 -255,0 0,-217" />
<path style="fill:none;stroke:#000;stroke-width:2" d="M380,557 l275,0 0,217 -275,0 0,-217" />
<path style="fill:none;stroke:#000;stroke-width:2" d="M126,557 l235,0 0,217 -235,0 0,-217" />
<path style="fill:#7f7259" d="M312,750 l31,0 0,13 -31,0 0,-13z" />
<path style="fill:#7f7259" d="M695,750 l30,0 0,13 -30,0 0,-13z" />
<path style="fill:#f2e5cc;stroke:#000;stroke-width:2" d="M744,392 l119,0 0,107 -119,0 0,-107z" />
<path style="fill:#f2e5cc;stroke:#000;stroke-width:2" d="M729,476 l-10,2 -9,0 -9,-2 -10,-5 -7,-8 -6,-7 -2,-12 0,-9 2,-9 6,-10 7,-7 10,-6 9,-2 9,0 10,2 9,6 8,7 6,10 1,9 0,9 -1,12 -6,7 -8,8 -9,5z" />
<path style="fill:#f60" d="M765,410 l49,0 0,10 -49,0 0,-10z" />
<circle style="fill:#7f7259" cx="715" cy="439" r="20" />
<path style="fill:#b2a58c" d="M489,175 l40,0 0,39 -40,0 0,-39z" />
<path style="fill:#e5d8bf" d="M47,499 l296,0 0,58 -296,0 0,-58z" />
<path style="fill:#d9ccb3" d="M716,499 l235,0 0,58 -235,0 0,-58z" />
<path style="fill:none;stroke:#000;stroke-width:2" d="M47,499 l904,0 0,58 -904,0 0,-58" />
<circle style="fill:#b2a58c;stroke:#000;stroke-width:2" cx="921" cy="331" r="49" />
<path style="fill:none;stroke:#fff;stroke-width:2" d="M774,322 l0,58 -58,0" />
<path style="fill:none;stroke:#bfb299;stroke-width:2" d="M774,322 l-58,0 0,58" />

</svg>
