 

<svg xmlns:agg="http://www.example.com" xmlns="http://www.w3.org/2000/svg" preserveAspectRatio="none" width="1.1686in" height="1.0750in" viewBox="0 0 999 919">

<path style="fill:#4c4c4c;stroke:#000;stroke-width:2" d="M563,350 l162,0 0,236 -162,0 0,-236z" />
<path style="fill:#333;stroke:#000;stroke-width:2" d="M199,429 l364,0 0,236 -364,0 0,-236z" />
<path style="fill:#333;stroke:#000;stroke-width:2" d="M71,665 l722,0 0,43 -722,0 0,-43z" />
<path style="fill:#333;stroke:#000;stroke-width:2" d="M71,724 l722,0 0,45 -722,0 0,-45z" />
<path style="fill:#006;stroke:#000;stroke-width:2" d="M101,218 l560,0 0,236 -560,0 0,-236z" />
<path style="fill:#333;stroke:#000;stroke-width:2" d="M67,28 l628,0 0,77 -628,0 0,-77z" />
<path style="fill:#cc3" d="M145,41 l45,0 0,54 -45,0 0,-54z" />
<path style="fill:#cc3" d="M263,41 l44,0 0,54 -44,0 0,-54z" />
<path style="fill:#cc3" d="M380,41 l45,0 0,54 -45,0 0,-54z" />
<path style="fill:#cc3" d="M499,41 l43,0 0,54 -43,0 0,-54z" />
<path style="fill:#cc3" d="M622,41 l43,0 0,54 -43,0 0,-54z" />
<path style="fill:#666;stroke:#000;stroke-width:2" d="M582,735 l6,0 0,-664 58,0 0,664 6,0 4,9 -10,4 0,98 -58,0 0,-98 -10,-4 4,-9z" />
<path style="fill:#666;stroke:#000;stroke-width:2" d="M465,735 l4,0 0,-664 60,0 0,664 4,0 6,9 -10,4 0,98 -60,0 0,-98 -10,-4 6,-9z" />
<path style="fill:#666;stroke:#000;stroke-width:2" d="M346,735 l6,0 0,-664 58,0 0,664 6,0 4,9 -10,4 0,98 -58,0 0,-98 -10,-4 4,-9z" />
<path style="fill:#666;stroke:#000;stroke-width:2" d="M229,735 l4,0 0,-664 60,0 0,664 4,0 6,9 -10,4 0,98 -60,0 0,-98 -9,-4 5,-9z" />
<path style="fill:#666;stroke:#000;stroke-width:2" d="M111,735 l5,0 0,-664 59,0 0,664 5,0 4,9 -9,4 0,98 -59,0 0,-98 -9,-4 4,-9z" />
<path style="fill:#7f7f7f" d="M646,184 l0,551 -58,0 0,-551 58,0z" />
<path style="fill:#7f7f7f" d="M529,184 l0,551 -60,0 0,-551 60,0z" />
<path style="fill:#7f7f7f" d="M410,184 l0,551 -58,0 0,-551 58,0z" />
<path style="fill:#7f7f7f" d="M293,184 l0,551 -60,0 0,-551 60,0z" />
<path style="fill:#7f7f7f" d="M175,184 l0,551 -59,0 0,-551 59,0z" />
<path style="fill:#999" d="M642,184 l0,551 -51,0 0,-551 51,0z" />
<path style="fill:#999" d="M525,184 l0,551 -52,0 0,-551 52,0z" />
<path style="fill:#999" d="M407,184 l0,551 -51,0 0,-551 51,0z" />
<path style="fill:#999" d="M290,184 l0,551 -53,0 0,-551 53,0z" />
<path style="fill:#999" d="M171,184 l0,551 -51,0 0,-551 51,0z" />
<path style="fill:#b2b2b2" d="M637,184 l0,551 -40,0 0,-551 40,0z" />
<path style="fill:#b2b2b2" d="M518,184 l0,551 -40,0 0,-551 40,0z" />
<path style="fill:#b2b2b2" d="M401,184 l0,551 -40,0 0,-551 40,0z" />
<path style="fill:#b2b2b2" d="M282,184 l0,551 -39,0 0,-551 39,0z" />
<path style="fill:#b2b2b2" d="M165,184 l0,551 -39,0 0,-551 39,0z" />
<path style="fill:#ccc" d="M631,184 l0,551 -28,0 0,-551 28,0z" />
<path style="fill:#ccc" d="M512,184 l0,551 -26,0 0,-551 26,0z" />
<path style="fill:#ccc" d="M395,184 l0,551 -28,0 0,-551 28,0z" />
<path style="fill:#ccc" d="M276,184 l0,551 -26,0 0,-551 26,0z" />
<path style="fill:#ccc" d="M160,184 l0,551 -29,0 0,-551 29,0z" />
<path style="fill:#e5e5e5" d="M625,184 l0,551 -17,0 0,-551 17,0z" />
<path style="fill:#e5e5e5" d="M508,184 l0,551 -18,0 0,-551 18,0z" />
<path style="fill:#e5e5e5" d="M390,184 l0,551 -17,0 0,-551 17,0z" />
<path style="fill:#e5e5e5" d="M273,184 l0,551 -19,0 0,-551 19,0z" />
<path style="fill:#e5e5e5" d="M154,184 l0,551 -17,0 0,-551 17,0z" />
<path style="fill:#fff" d="M620,184 l0,551 -8,0 0,-551 8,0z" />
<path style="fill:#fff" d="M503,184 l0,551 -8,0 0,-551 8,0z" />
<path style="fill:#fff" d="M384,184 l0,551 -8,0 0,-551 8,0z" />
<path style="fill:#fff" d="M267,184 l0,551 -7,0 0,-551 7,0z" />
<path style="fill:#fff" d="M148,184 l0,551 -5,0 0,-551 5,0z" />
<path style="fill:#666" d="M77,836 l737,0 0,40 -737,0 0,-40z" />
<path style="fill:#999" d="M77,840 l737,0 0,32 -737,0 0,-32z" />
<path style="fill:#b2b2b2" d="M77,848 l737,0 0,17 -737,0 0,-17z" />
<path style="fill:none;stroke:#000;stroke-width:2" d="M77,836 l737,0 0,40 -737,0 0,-40" />
<path style="fill:#039;stroke:#000;stroke-width:2" d="M61,812 l46,0 0,58 -46,0 0,-58z" />
<path style="fill:#039;stroke:#000;stroke-width:2" d="M337,812 l88,0 0,58 -88,0 0,-58z" />
<path style="fill:#039;stroke:#000;stroke-width:2" d="M578,812 l44,0 0,58 -44,0 0,-58z" />
<path style="fill:#36c;stroke:#000;stroke-width:2" d="M774,891 l0,-707 -21,0 0,658 -28,28 -30,0 0,-58 21,0 0,-40 -688,0 0,40 648,0 0,58 -648,0 0,21 725,0 21,0z" />
<path style="fill:#98b2e5" d="M28,772 l688,0 0,12 -688,0 0,-12z" />
<path style="fill:#ccc" d="M784,263 l186,0 0,393 -186,0 0,-393z" />
<path style="fill:#c7c7c7" d="M784,542 l186,-166 0,280 -186,0 0,-114z" />
<path style="fill:#c2c2c2" d="M784,557 l186,-164 0,263 -186,0 0,-99z" />
<path style="fill:#bdbdbd" d="M784,582 l186,-164 0,238 -186,0 0,-74z" />
<path style="fill:none;stroke:#000;stroke-width:2" d="M784,263 l186,0 0,393 -186,0 0,-393" />
<path style="fill:none;stroke:#999;stroke-width:2" d="M803,631 l145,0 0,-24" />
<path style="fill:none;stroke:#999;stroke-width:2" d="M938,607 l19,0 0,-44" />
<path style="fill:none;stroke:#999;stroke-width:2" d="M938,350 l19,0 0,-43" />
<path style="fill:none;stroke:#999;stroke-width:2" d="M948,307 l0,-19" />
<path style="fill:none;stroke:#999;stroke-width:2" d="M948,561 l0,-211" />
<path style="fill:none;stroke:#fff;stroke-width:2" d="M803,631 l0,-343 145,0" />
<path style="fill:none;stroke:#fff;stroke-width:2" d="M938,350 l0,-43 19,0" />
<path style="fill:none;stroke:#fff;stroke-width:2" d="M938,607 l0,-44 19,0" />
<path style="fill:#b2b2b2;stroke:#000;stroke-width:2" d="M774,233 l10,0 0,453 -10,0 0,-453z" />
<path style="fill:none;stroke:#000;stroke-width:2" d="M646,184 l0,551 -58,0 0,-551 58,0" />
<path style="fill:none;stroke:#000;stroke-width:2" d="M175,184 l0,551 -59,0 0,-551 59,0" />
<path style="fill:none;stroke:#000;stroke-width:2" d="M293,184 l0,551 -60,0 0,-551 60,0" />
<path style="fill:none;stroke:#000;stroke-width:2" d="M410,184 l0,551 -58,0 0,-551 58,0" />
<path style="fill:none;stroke:#000;stroke-width:2" d="M529,184 l0,551 -60,0 0,-551 60,0" />
<path style="fill:#999;stroke:#000;stroke-width:2" d="M725,209 l28,0 0,520 -28,0 0,-520z" />

</svg>
