 

<svg xmlns:agg="http://www.example.com" xmlns="http://www.w3.org/2000/svg" preserveAspectRatio="none" width="1.0750in" height="1.0750in" viewBox="0 0 999 999">

<path style="fill:#000;stroke:#000;stroke-width:2" d="M597,949 l-569,0 0,21 569,0 0,-21z" />
<path style="fill:#000;stroke:#000;stroke-width:2" d="M716,949 l175,0 0,21 -175,0 0,-21z" />
<path style="fill:#ccc" d="M716,184 l175,0 0,765 -175,0 0,-765z" />
<path style="fill:#c7c7c7" d="M716,618 l175,-70 0,138 -175,0 0,-68z" />
<path style="fill:#c2c2c2" d="M716,627 l175,-58 0,117 -175,0 0,-59z" />
<path style="fill:#bdbdbd" d="M716,642 l175,-54 0,364 -175,0 0,-310z" />
<path style="fill:none;stroke:#000;stroke-width:2" d="M716,184 l175,0 0,765 -175,0 0,-765" />
<path style="fill:#e5e5e5;stroke:#000;stroke-width:2" d="M656,361 l314,0 0,196 -314,0 0,-196z" />
<path style="fill:#ccc;stroke:#000;stroke-width:2" d="M441,28 l175,0 0,413 -175,0 0,-413z" />
<path style="fill:#333" d="M491,86 l-11,-11 0,-17 11,-12 16,0 11,12 0,17 -11,11 -16,0z" />
<path style="fill:#333" d="M459,116 l138,0 0,78 -138,0 0,-78z" />
<path style="fill:#e5e5e5;stroke:#000;stroke-width:2" d="M401,145 l79,0 0,119 -79,0 0,-119z" />
<path style="fill:#e5e5e5;stroke:#000;stroke-width:2" d="M361,264 l157,0 0,137 -157,0 0,-137z" />
<path style="fill:#999;stroke:#000;stroke-width:2" d="M342,401 l255,0 0,40 -255,0 0,-40z" />
<path style="fill:#b2b2b2;stroke:#000;stroke-width:2" d="M184,322 l158,9 0,110 -158,0 0,-119z" />
<path style="fill:#e5e5e5" d="M28,322 l156,0 0,119 -156,0 0,-119z" />
<path style="fill:#ccc;stroke:#000;stroke-width:2" d="M46,842 l119,0 0,58 -119,0 0,-58z" />
<path style="fill:#ccc;stroke:#000;stroke-width:2" d="M28,900 l137,0 0,61 -137,0 0,-61z" />
<path style="fill:#ccc" d="M165,676 l432,0 0,273 -432,0 0,-273z" />
<path style="fill:#999" d="M165,676 l432,0 0,19 -432,0 0,-19z" />
<path style="fill:#e5e5e5;stroke:#000;stroke-width:2" d="M263,676 l236,0 0,236 -236,0 0,-236z" />
<path style="fill:#333" d="M28,784 l137,0 0,58 -137,0 0,-58z" />
<path style="fill:#4c4c4c" d="M28,793 l137,0 0,40 -137,0 0,-40z" />
<path style="fill:#666" d="M28,803 l137,0 0,20 -137,0 0,-20z" />
<path style="fill:none;stroke:#000;stroke-width:2" d="M28,784 l137,0 0,58 -137,0 0,-58" />
<path style="fill:#b2b2b2" d="M46,322 l119,0 0,119 -119,0 0,-119z" />
<path style="fill:none;stroke:#000;stroke-width:2" d="M28,322 l156,0 0,119 -156,0 0,-119" />
<path style="fill:#ccc" d="M126,676 l0,-119 -98,0 0,-116 706,0 0,116 -97,0 0,119 -511,0z" />
<path style="fill:#c7c7c7" d="M126,676 l0,-98 608,-119 0,98 -97,0 0,119 -511,0z" />
<path style="fill:#c2c2c2" d="M126,676 l0,-79 608,-119 0,79 -97,0 0,119 -511,0z" />
<path style="fill:#bdbdbd" d="M126,676 l0,-60 608,-117 0,58 -97,0 0,119 -511,0z" />
<path style="fill:none;stroke:#000;stroke-width:2" d="M126,676 l0,-119 -98,0 0,-116 706,0 0,116 -97,0 0,119 -511,0" />
<path style="fill:none;stroke:#000;stroke-width:2" d="M126,557 l511,0" />
<path style="fill:none;stroke:#000;stroke-width:2" d="M165,676 l432,0 0,273 -432,0 0,-273" />
<path style="fill:#999;stroke:#000;stroke-width:2" d="M393,665 l-24,2 -24,-14 -12,-24 0,-24 12,-25 24,-11 24,0 25,11 11,25 0,24 -11,24 -25,12z" />
<path style="fill:none;stroke:#000;stroke-width:2" d="M352,588 l58,58" />
<circle style="fill:#333" cx="381" cy="616" r="10" />
<path style="fill:#ccc" d="M656,431 l148,-11 -30,186 -158,0 40,-175z" />
<path style="fill:#b2b2b2" d="M853,431 l-49,-11 -30,186 79,-9 0,-166z" />
<path style="fill:none;stroke:#000;stroke-width:2" d="M616,606 l40,-177 147,-9 49,9 0,168 -78,9 -158,0" />
<path style="fill:#4c4c4c" d="M669,491 l36,-1 -3,18 -37,0 4,-17z" />
<path style="fill:#4c4c4c" d="M680,450 l36,0 -4,19 -36,0 4,-19z" />
<path style="fill:#4c4c4c" d="M738,450 l36,0 -4,19 -36,0 4,-19z" />
<path style="fill:#000;stroke:#000;stroke-width:2" d="M814,557 l9,-9 0,-58 -9,-12 9,40 -9,39z" />
<path style="fill:none;stroke:#000;stroke-width:2" d="M872,557 l0,37 1,35 0,35 1,33 1,32 1,30 2,29 2,39 3,33 4,28 5,27 7,14 1,2 5,-40 4,-37 4,-35 2,-33 3,-31 2,-29 2,-27 2,-49 0,-22 0,-20 -2,-35 -2,-29 -7,-35 -9,-23 -21,-19 -5,-1 -5,0 -5,0 -11,1 -5,2" />
<path style="fill:#e5e5e5;stroke:#000;stroke-width:2" d="M557,676 l0,38 49,0 0,-38 -49,0z" />
<path style="fill:#333;stroke:#000;stroke-width:2" d="M637,606 l28,0 4,32 4,32 4,32 4,32 3,32 4,32 4,32 3,33 4,28 13,20 4,1 16,-5 12,-29 0,-15 10,-207 30,0 -1,13 -2,40 -2,38 -2,37 -1,38 -2,41 -3,26 -13,28 -20,21 -4,2 -3,0 -33,-1 -20,-24 -2,-15 -39,-294z" />
<path style="fill:#e5e5e5" d="M567,765 l138,28 39,0 0,-187 -39,0 0,148 -108,-10 0,-30 -30,0 0,51z" />
<path style="fill:#b2b2b2" d="M705,793 l0,-39 -108,-10 -30,21 138,28z" />
<path style="fill:none;stroke:#000;stroke-width:2" d="M567,765 l138,28 39,0 0,-187 -39,0 0,148 -108,-10 0,-30 -30,0 0,51" />

</svg>
