 

<svg xmlns:agg="http://www.example.com" xmlns="http://www.w3.org/2000/svg" preserveAspectRatio="none" width="1.4691in" height="1.0750in" viewBox="0 0 999 731">

<path style="fill:#333;stroke:#000;stroke-width:2" d="M114,46 l599,0 0,657 -599,0 0,-657z" />
<path style="fill:#666" d="M156,306 l197,0 0,-181 -197,0 0,181z" />
<path style="fill:#4c4c4c" d="M253,306 l379,0 0,179 -379,0 0,-179z" />
<path style="fill:#666" d="M931,125 l39,0 0,339 -39,0 0,-339z" />
<path style="fill:#ccc" d="M713,28 l218,0 0,337 -218,0 0,-337z" />
<path style="fill:#c7c7c7" d="M713,267 l218,-142 0,240 -218,0 0,-98z" />
<path style="fill:#c2c2c2" d="M713,282 l218,-142 0,225 -218,0 0,-83z" />
<path style="fill:#bdbdbd" d="M713,302 l218,-141 0,204 -218,0 0,-63z" />
<path style="fill:none;stroke:#000;stroke-width:2" d="M713,28 l218,0 0,337 -218,0 0,-337" />
<path style="fill:#ccc" d="M713,365 l218,0 0,338 -218,0 0,-338z" />
<path style="fill:#c7c7c7" d="M713,605 l218,-141 0,239 -218,0 0,-98z" />
<path style="fill:#c2c2c2" d="M713,618 l218,-141 0,226 -218,0 0,-85z" />
<path style="fill:#bdbdbd" d="M713,641 l218,-143 0,205 -218,0 0,-62z" />
<path style="fill:none;stroke:#000;stroke-width:2" d="M713,365 l218,0 0,338 -218,0 0,-338" />
<path style="fill:#707070" d="M931,146 l39,0 0,313 -39,0 0,-313z" />
<path style="fill:#7a7a7a" d="M931,165 l39,0 0,288 -39,0 0,-288z" />
<path style="fill:#858585" d="M931,186 l39,0 0,261 -39,0 0,-261z" />
<path style="fill:#8f8f8f" d="M931,206 l39,0 0,234 -39,0 0,-234z" />
<path style="fill:#999" d="M931,225 l39,0 0,209 -39,0 0,-209z" />
<path style="fill:#a3a3a3" d="M931,246 l39,0 0,182 -39,0 0,-182z" />
<path style="fill:#adadad" d="M931,265 l39,0 0,158 -39,0 0,-158z" />
<path style="fill:#b8b8b8" d="M931,285 l39,0 0,132 -39,0 0,-132z" />
<path style="fill:#c2c2c2" d="M931,304 l39,0 0,106 -39,0 0,-106z" />
<path style="fill:#ccc" d="M931,325 l39,0 0,79 -39,0 0,-79z" />
<path style="fill:none;stroke:#000;stroke-width:2" d="M931,125 l39,0 0,339 -39,0 0,-339" />
<path style="fill:#b2b2b2" d="M174,664 l597,0 0,39 -597,0 0,-39z" />
<path style="fill:#b2b2b2;stroke:#000;stroke-width:2" d="M652,365 l61,0 0,59 -61,0 0,-59z" />
<path style="fill:#b2b2b2;stroke:#000;stroke-width:2" d="M453,504 l199,0 0,20 -199,0 0,-20z" />
<path style="fill:#b2b2b2;stroke:#000;stroke-width:2" d="M493,346 l159,0 0,118 -159,0 0,-118z" />
<path style="fill:#666" d="M95,186 l139,0 0,139 -139,0 0,-139z" />
<path style="fill:#999" d="M692,485 l-518,0 -18,179 557,0 -21,-179z" />
<path style="fill:#b2b2b2" d="M474,246 l19,0 0,318 -19,0 0,-318z" />
<path style="fill:#999" d="M174,664 l0,39 -118,0 0,-20 118,-19z" />
<path style="fill:#7f7f7f" d="M771,664 l121,19 0,20 -121,0 0,-39z" />
<path style="fill:none;stroke:#000;stroke-width:2" d="M174,664 l597,0 121,19 0,20 -836,0 0,-20 118,-19" />
<path style="fill:#b2b2b2" d="M532,664 l0,-179 160,0 21,179 -42,-160 -119,0 0,160 -20,0z" />
<path style="fill:#7f7f7f" d="M713,664 l-61,-140 -100,0 0,-20 119,0 42,160z" />
<path style="fill:none;stroke:#4c4c4c;stroke-width:2" d="M532,664 l0,-179 160,0 21,179 -42,-160 -119,0 0,160 -20,0" />
<path style="fill:#666" d="M474,446 l19,0 0,78 -19,0 0,-78z" />
<path style="fill:#666" d="M474,267 l19,0 0,58 -19,0 0,-58z" />
<path style="fill:none;stroke:#000;stroke-width:2" d="M474,267 l19,0" />
<path style="fill:none;stroke:#fff;stroke-width:2" d="M474,325 l19,0" />
<path style="fill:none;stroke:#000;stroke-width:2" d="M474,446 l19,0" />
<path style="fill:none;stroke:#fff;stroke-width:2" d="M474,524 l19,0" />
<path style="fill:none;stroke:#000;stroke-width:2" d="M474,246 l19,0 0,318 -19,0 0,-318" />
<path style="fill:#4c4c4c" d="M393,306 l-19,0 0,-139 19,0 0,139z" />
<path style="fill:#4c4c4c" d="M434,306 l-21,0 0,-139 21,0 0,139z" />
<path style="fill:#7f7f7f" d="M713,167 l-360,0 0,-42 360,0 0,42z" />
<path style="fill:#666" d="M571,306 l142,0 0,-139 -142,0 0,139z" />
<path style="fill:#ccc" d="M35,464 l121,0 0,179 -121,0 0,-179z" />
<path style="fill:#c7c7c7" d="M35,592 l121,-75 0,126 -121,0 0,-51z" />
<path style="fill:#c2c2c2" d="M35,600 l121,-76 0,119 -121,0 0,-43z" />
<path style="fill:#bdbdbd" d="M35,611 l121,-75 0,107 -121,0 0,-32z" />
<path style="fill:none;stroke:#000;stroke-width:2" d="M35,464 l121,0 0,179 -121,0 0,-179" />
<path style="fill:#7f7f7f" d="M474,424 l-240,0 0,-39 240,0 0,39z" />
<path style="fill:#999" d="M474,423 l-240,0 0,-36 240,0 0,36z" />
<path style="fill:#b2b2b2" d="M474,419 l-240,0 0,-28 240,0 0,28z" />
<path style="fill:#ccc" d="M474,413 l-240,0 0,-17 240,0 0,17z" />
<path style="fill:#e5e5e5" d="M474,412 l-240,0 0,-14 240,0 0,14z" />
<path style="fill:#fff" d="M474,408 l-240,0 0,-6 240,0 0,6z" />
<path style="fill:none;stroke:#000;stroke-width:2" d="M474,424 l-240,0 0,-39 240,0 0,39" />
<path style="fill:#6e6e6e" d="M95,186 l139,0 0,84 -139,0 0,-84z" />
<path style="fill:#787878" d="M95,186 l139,0 0,69 -139,0 0,-69z" />
<path style="fill:#7f7f7f" d="M95,186 l139,0 0,54 -139,0 0,-54z" />
<path style="fill:#878787" d="M95,186 l139,0 0,39 -139,0 0,-39z" />
<path style="fill:#919191" d="M95,186 l139,0 0,24 -139,0 0,-24z" />
<path style="fill:#999" d="M95,186 l139,0 0,9 -139,0 0,-9z" />
<path style="fill:none;stroke:#000;stroke-width:2" d="M95,186 l139,0 0,139 -139,0 0,-139" />
<path style="fill:#666" d="M75,325 l159,0 0,139 -159,0 0,-139z" />
<path style="fill:#6e6e6e" d="M77,325 l157,0 0,85 -157,0 0,-85z" />
<path style="fill:#787878" d="M77,325 l157,0 0,70 -157,0 0,-70z" />
<path style="fill:#7f7f7f" d="M77,325 l157,0 0,55 -157,0 0,-55z" />
<path style="fill:#878787" d="M77,325 l157,0 0,40 -157,0 0,-40z" />
<path style="fill:#919191" d="M77,325 l157,0 0,24 -157,0 0,-24z" />
<path style="fill:#999" d="M75,325 l159,0 0,11 -159,0 0,-11z" />
<path style="fill:none;stroke:#000;stroke-width:2" d="M75,325 l159,0 0,139 -159,0 0,-139" />
<path style="fill:#4c4c4c" d="M156,464 l-121,0 -4,-9 -2,-17 -1,-21 0,-24 1,-21 2,-17 4,-9 121,0 3,9 2,15 2,23 0,24 -2,21 -2,17 -3,9z" />
<path style="fill:#666" d="M31,455 l-2,-17 -1,-21 0,-24 1,-21 2,-17 4,-9 121,0 3,9 2,15 2,23 0,24 -2,21 -2,17 -128,0z" />
<path style="fill:#7f7f7f" d="M29,438 l-1,-21 0,-24 1,-21 2,-17 128,0 2,15 2,23 0,24 -2,21 -132,0z" />
<path style="fill:#999" d="M28,417 l0,-24 1,-21 132,-2 2,23 0,24 -135,0z" />
<path style="fill:none;stroke:#000;stroke-width:2" d="M156,464 l-121,0 -4,-9 -2,-17 -1,-21 0,-24 1,-21 2,-17 4,-9 121,0 3,9 2,15 2,23 0,24 -2,21 -2,17 -3,9" />

</svg>
