 

<svg xmlns:agg="http://www.example.com" xmlns="http://www.w3.org/2000/svg" preserveAspectRatio="none" width="0.4810in" height="1.0750in" viewBox="0 0 447 999">

<path style="fill:#4c4c4c" d="M107,872 l235,0 0,89 -235,0 0,-89z" />
<path style="fill:#4c4c4c" d="M77,603 l293,0 0,132 -293,0 0,-132z" />
<path style="fill:#4c4c4c" d="M77,284 l293,0 0,15 -293,0 0,-15z" />
<path style="fill:#ccc;stroke:#000;stroke-width:2" d="M28,617 l391,0 0,79 -391,0 0,-79z" />
<path style="fill:none;stroke:#7f7f7f;stroke-width:2" d="M37,628 l373,0" />
<path style="fill:none;stroke:#fff;stroke-width:2" d="M410,632 l-373,0" />
<path style="fill:#666;stroke:#000;stroke-width:2" d="M28,814 l391,0 0,58 -391,0 0,-58z" />
<path style="fill:#ccc;stroke:#000;stroke-width:2" d="M28,735 l391,0 0,79 -391,0 0,-79z" />
<path style="fill:#7f7f7f" d="M321,814 l0,66 -6,15 -13,13 -18,12 -23,7 -24,4 -27,0 -24,-4 -23,-7 -19,-12 -11,-13 -7,-15 0,-66 195,0z" />
<path style="fill:#8a8a8a" d="M312,812 l0,68 -6,15 -11,13 -17,12 -19,7 -22,4 -25,0 -22,-4 -19,-7 -17,-12 -12,-13 -7,-15 0,-68 177,0z" />
<path style="fill:#919191" d="M302,812 l0,68 -5,15 -10,13 -15,12 -17,7 -20,4 -21,0 -21,-4 -17,-7 -15,-12 -11,-13 -4,-15 0,-68 156,0z" />
<path style="fill:#9c9c9c" d="M293,812 l0,68 -6,15 -7,13 -13,12 -15,7 -19,4 -17,0 -19,-4 -15,-7 -13,-12 -10,-13 -3,-15 0,-68 137,0z" />
<path style="fill:#a6a6a6" d="M284,812 l0,68 -4,15 -10,13 -9,12 -15,7 -15,4 -15,0 -15,-4 -13,-7 -12,-12 -7,-13 -4,-15 0,-68 119,0z" />
<path style="fill:#b0b0b0" d="M272,812 l0,68 -2,15 -7,13 -10,12 -11,7 -11,4 -13,0 -14,-4 -11,-7 -7,-12 -8,-13 -3,-15 0,-68 97,0z" />
<path style="fill:#b8b8b8" d="M263,812 l0,68 -2,15 -6,13 -7,12 -10,7 -9,4 -10,0 -11,-4 -7,-7 -8,-12 -5,-13 -2,-15 0,-68 77,0z" />
<path style="fill:#c2c2c2" d="M253,812 l0,68 -1,15 -4,13 -6,12 -7,7 -8,4 -8,0 -7,-4 -6,-7 -5,-12 -4,-13 -2,-15 0,-68 58,0z" />
<path style="fill:#ccc" d="M242,814 l0,66 0,15 -4,13 -1,12 -6,7 -4,4 -5,0 -6,-4 -4,-7 -4,-12 -2,-13 -2,-15 0,-66 38,0z" />
<path style="fill:none;stroke:#000;stroke-width:2" d="M321,814 l0,66 -6,15 -13,13 -18,12 -23,7 -24,4 -27,0 -24,-4 -23,-7 -19,-12 -11,-13 -7,-15 0,-66 195,0" />
<path style="fill:#7f7f7f;stroke:#000;stroke-width:2" d="M86,970 l275,0 0,-9 -275,0 0,9z" />
<path style="fill:none;stroke:#7f7f7f;stroke-width:2" d="M302,895 l-18,6 -23,4 -24,1 -27,0 -24,-1 -23,-4 -19,-6" />
<path style="fill:#999;stroke:#000;stroke-width:2" d="M333,961 l-25,0 -15,-60 4,-10 36,70z" />
<path style="fill:#999;stroke:#000;stroke-width:2" d="M116,961 l25,0 15,-60 -6,-10 -34,70z" />
<path style="fill:#ccc;stroke:#000;stroke-width:2" d="M342,961 l-40,-70 -5,0 36,70 9,0z" />
<path style="fill:#ccc;stroke:#000;stroke-width:2" d="M107,961 l39,-70 4,0 -34,70 -9,0z" />
<path style="fill:#c4c4c4" d="M342,745 l68,0 0,58 -68,0 0,-58z" />
<path style="fill:#c4c4c4" d="M37,745 l70,0 0,58 -70,0 0,-58z" />
<path style="fill:#ccc" d="M364,745 l42,0 0,58 -42,0 0,-58z" />
<path style="fill:#ccc" d="M41,745 l41,0 0,58 -41,0 0,-58z" />
<path style="fill:#d4d4d4" d="M370,745 l32,0 0,58 -32,0 0,-58z" />
<path style="fill:#d4d4d4" d="M46,745 l32,0 0,58 -32,0 0,-58z" />
<path style="fill:#dedede" d="M374,745 l24,0 0,58 -24,0 0,-58z" />
<path style="fill:#dedede" d="M50,745 l25,0 0,58 -25,0 0,-58z" />
<path style="fill:#f2f2f2" d="M378,745 l15,0 0,58 -15,0 0,-58z" />
<path style="fill:#f2f2f2" d="M54,745 l15,0 0,58 -15,0 0,-58z" />
<path style="fill:#b2b2b2" d="M107,745 l235,0 0,60 -235,0 0,-60z" />
<path style="fill:#bababa" d="M135,745 l177,0 0,58 -177,0 0,-58z" />
<path style="fill:#c4c4c4" d="M161,745 l125,0 0,58 -125,0 0,-58z" />
<path style="fill:#ccc" d="M173,745 l103,0 0,58 -103,0 0,-58z" />
<path style="fill:#d4d4d4" d="M184,745 l81,0 0,58 -81,0 0,-58z" />
<path style="fill:#dedede" d="M193,745 l62,0 0,58 -62,0 0,-58z" />
<path style="fill:#e5e5e5" d="M204,745 l40,0 0,60 -40,0 0,-60z" />
<path style="fill:#999" d="M67,803 l40,-9 117,9 118,-9 39,9 -314,0z" />
<path style="fill:#999" d="M381,745 l-39,9 -118,-9 -117,9 -40,-9 314,0z" />
<path style="fill:none;stroke:#7f7f7f;stroke-width:2" d="M37,745 l373,0" />
<path style="fill:none;stroke:#7f7f7f;stroke-width:2" d="M37,803 l373,0" />
<path style="fill:#7f7f7f;stroke:#000;stroke-width:2" d="M372,28 l28,0 0,707 -28,0 0,-707z" />
<path style="fill:#7f7f7f;stroke:#000;stroke-width:2" d="M48,28 l29,0 0,707 -29,0 0,-707z" />
<path style="fill:#919191" d="M374,30 l24,0 0,705 -24,0 0,-705z" />
<path style="fill:#919191" d="M50,30 l25,0 0,705 -25,0 0,-705z" />
<path style="fill:#a1a1a1" d="M376,30 l21,0 0,705 -21,0 0,-705z" />
<path style="fill:#a1a1a1" d="M52,30 l21,0 0,705 -21,0 0,-705z" />
<path style="fill:#b2b2b2" d="M378,30 l17,0 0,705 -17,0 0,-705z" />
<path style="fill:#b2b2b2" d="M54,30 l17,0 0,705 -17,0 0,-705z" />
<path style="fill:#c4c4c4" d="M379,30 l14,0 0,705 -14,0 0,-705z" />
<path style="fill:#c4c4c4" d="M56,30 l13,0 0,705 -13,0 0,-705z" />
<path style="fill:#d4d4d4" d="M383,30 l8,0 0,705 -8,0 0,-705z" />
<path style="fill:#d4d4d4" d="M60,30 l7,0 0,705 -7,0 0,-705z" />
<path style="fill:#fff" d="M385,28 l2,0 0,707 -2,0 0,-707z" />
<path style="fill:#fff" d="M62,28 l2,0 0,707 -2,0 0,-707z" />
<path style="fill:none;stroke:#666;stroke-width:2" d="M48,314 l29,0" />
<path style="fill:none;stroke:#666;stroke-width:2" d="M48,353 l29,0" />
<path style="fill:none;stroke:#666;stroke-width:2" d="M372,314 l28,0" />
<path style="fill:none;stroke:#666;stroke-width:2" d="M372,353 l28,0" />
<path style="fill:none;stroke:#ccc;stroke-width:2" d="M372,372 l28,0" />
<path style="fill:none;stroke:#ccc;stroke-width:2" d="M372,333 l28,0" />
<path style="fill:none;stroke:#ccc;stroke-width:2" d="M48,372 l29,0" />
<path style="fill:none;stroke:#ccc;stroke-width:2" d="M48,333 l29,0" />
<path style="fill:#ccc" d="M28,146 l391,0 0,138 -391,0 0,-138z" />
<path style="fill:#c7c7c7" d="M28,244 l391,-56 0,96 -391,0 0,-40z" />
<path style="fill:#c2c2c2" d="M28,250 l391,-57 0,91 -391,0 0,-34z" />
<path style="fill:#bdbdbd" d="M28,259 l391,-58 0,83 -391,0 0,-25z" />
<path style="fill:none;stroke:#000;stroke-width:2" d="M28,146 l391,0 0,138 -391,0 0,-138" />
<path style="fill:#ccc;stroke:#000;stroke-width:2" d="M82,617 l0,-14 17,0 0,6 13,0 0,-6 25,0 0,6 11,0 0,-6 25,0 0,6 11,0 0,-6 38,0 0,6 11,0 0,-6 35,0 0,6 14,0 0,-6 24,0 0,6 11,0 0,-6 25,0 0,6 11,0 0,-6 13,0 0,14 -284,0z" />
<path style="fill:#ccc;stroke:#000;stroke-width:2" d="M366,284 l0,15 -18,0 0,-8 -12,0 0,8 -24,0 0,-8 -11,0 0,8 -25,0 0,-8 -13,0 0,8 -36,0 0,-8 -11,0 0,8 -38,0 0,-8 -11,0 0,8 -25,0 0,-8 -11,0 0,8 -24,0 0,-8 -14,0 0,8 -11,0 0,-15 284,0z" />
<path style="fill:#bfbfbf;stroke:#000;stroke-width:2" d="M37,814 l11,0 0,38 -11,-4 0,-34z" />
<path style="fill:#bfbfbf;stroke:#000;stroke-width:2" d="M410,848 l-10,4 0,-40 10,0 0,36z" />
<path style="fill:#bfbfbf;stroke:#000;stroke-width:2" d="M376,146 l-15,0 0,-34 15,-5 0,39z" />
<path style="fill:#bfbfbf;stroke:#000;stroke-width:2" d="M37,112 l11,-4 0,38 -11,0 0,-34z" />
<path style="fill:#999;stroke:#000;stroke-width:2" d="M412,146 l-12,0 0,-39 12,5 0,34z" />
<path style="fill:#999;stroke:#000;stroke-width:2" d="M73,108 l15,4 0,34 -15,0 0,-38z" />
<path style="fill:#999;stroke:#000;stroke-width:2" d="M376,852 l-15,-4 0,-36 15,0 0,40z" />
<path style="fill:#999;stroke:#000;stroke-width:2" d="M73,814 l13,0 0,34 -13,4 0,-38z" />
<path style="fill:#e5e5e5;stroke:#000;stroke-width:2" d="M48,108 l25,0 0,38 -25,0 0,-38z" />
<path style="fill:#e5e5e5;stroke:#000;stroke-width:2" d="M400,146 l-24,0 0,-39 24,0 0,39z" />
<path style="fill:#e5e5e5;stroke:#000;stroke-width:2" d="M400,852 l-24,0 0,-40 24,0 0,40z" />
<path style="fill:#e5e5e5;stroke:#000;stroke-width:2" d="M48,814 l25,0 0,38 -25,0 0,-38z" />
<path style="fill:#c4c4c4" d="M342,161 l68,0 0,107 -68,0 0,-107z" />
<path style="fill:#c4c4c4" d="M37,161 l70,0 0,107 -70,0 0,-107z" />
<path style="fill:#ccc" d="M364,161 l42,0 0,107 -42,0 0,-107z" />
<path style="fill:#ccc" d="M41,161 l41,0 0,107 -41,0 0,-107z" />
<path style="fill:#d4d4d4" d="M370,161 l32,0 0,107 -32,0 0,-107z" />
<path style="fill:#d4d4d4" d="M46,161 l32,0 0,107 -32,0 0,-107z" />
<path style="fill:#dedede" d="M374,161 l24,0 0,107 -24,0 0,-107z" />
<path style="fill:#dedede" d="M50,161 l25,0 0,107 -25,0 0,-107z" />
<path style="fill:#e5e5e5" d="M378,163 l15,0 0,107 -15,0 0,-107z" />
<path style="fill:#e5e5e5" d="M54,163 l15,0 0,107 -15,0 0,-107z" />
<path style="fill:none;stroke:#7f7f7f;stroke-width:2" d="M342,161 l0,109 -235,0" />
<path style="fill:none;stroke:#7f7f7f;stroke-width:2" d="M37,157 l373,0" />
<path style="fill:none;stroke:#7f7f7f;stroke-width:2" d="M37,274 l373,0" />
<path style="fill:none;stroke:#7f7f7f;stroke-width:2" d="M272,235 l0,20 -97,0" />
<path style="fill:none;stroke:#fff;stroke-width:2" d="M107,268 l0,-107 235,0" />
<path style="fill:none;stroke:#fff;stroke-width:2" d="M175,255 l0,-20 97,0" />
<path style="fill:#000" d="M186,244 l5,-6 8,8 -8,6 -5,-8z" />
<path style="fill:#000" d="M218,244 l6,-6 7,8 -7,6 -6,-8z" />
<path style="fill:#000" d="M250,244 l5,-6 8,8 -6,6 -7,-8z" />
<path style="fill:#b2b2b2" d="M199,171 l49,0 0,20 -49,0 0,-20z" />

</svg>
