 

<svg xmlns:agg="http://www.example.com" xmlns="http://www.w3.org/2000/svg" preserveAspectRatio="none" width="1.1210in" height="1.0750in" viewBox="0 0 999 958">

<path style="fill:#ccc" d="M970,236 l-740,0 0,693 740,0 0,-693z" />
<path style="fill:#c7c7c7" d="M970,729 l-740,-290 0,490 740,0 0,-200z" />
<path style="fill:#c2c2c2" d="M970,757 l-740,-288 0,460 740,0 0,-172z" />
<path style="fill:#bdbdbd" d="M970,800 l-740,-288 0,417 740,0 0,-129z" />
<path style="fill:none;stroke:#000;stroke-width:2" d="M970,236 l-740,0 0,693 740,0 0,-693" />
<path style="fill:#666;stroke:#000;stroke-width:2" d="M970,236 l-742,0 -88,-88 742,0 88,88z" />
<path style="fill:#666;stroke:#000;stroke-width:2" d="M137,146 l91,90 0,693 -91,-90 0,-693z" />
<path style="fill:#e0e0e0;fill-rule:evenodd" d="M959,415 l-705,0 0,504 705,0 0,-504z M949,426 l-684,0 0,482 684,0 0,-482z " />
<path style="fill:none;stroke:#000;stroke-width:2" d="M959,415 l-705,0 0,504 705,0 0,-504" />
<path style="fill:none;stroke:#000;stroke-width:2" d="M949,426 l-684,0 0,482 684,0 0,-482" />
<path style="fill:#7f0000" d="M64,464 l-6,3 -11,6 -8,6 -5,9 -4,7 0,348 127,0 0,-344 -2,-2 -3,-9 -6,-9 -9,-6 -8,-6 -9,-3 -56,0z" />
<path style="fill:#940000" d="M64,464 l-6,3 -11,6 0,370 105,0 0,-350 0,-5 -6,-9 -9,-6 -8,-6 -9,-3 -56,0z" />
<path style="fill:#ab0000" d="M64,464 l56,0 9,3 8,6 9,6 4,7 0,357 -86,0 0,-379z" />
<path style="fill:#bf0000" d="M148,484 l-2,-5 -9,-6 -8,-6 -9,-3 -41,0 0,379 69,0 0,-359z" />
<path style="fill:#d40000" d="M146,479 l-9,-6 -8,-6 -9,-3 -24,0 0,379 50,0 0,-364z" />
<path style="fill:#eb0000" d="M144,478 l-7,-5 -8,-6 -9,-3 -6,0 0,379 30,0 0,-365z" />
<path style="fill:#f00" d="M142,475 l-5,-2 -8,-6 0,376 13,0 0,-368z" />
<path style="fill:none;stroke:#000;stroke-width:2" d="M64,464 l-6,3 -11,6 -8,6 -5,9 -4,7 0,348 127,0 0,-344 -2,-2 -3,-9 -6,-9 -9,-6 -8,-6 -9,-3 -56,0" />
<path style="fill:#e0e0e0;stroke:#000;stroke-width:2" d="M116,449 l0,3 6,0 0,-3 0,18 -58,0 0,-18 7,0 0,3 6,0 0,-3 7,0 0,3 6,0 0,-3 11,0 0,3 6,0 0,-3 9,0z" />
<path style="fill:#b2b2b2" d="M157,833 l-129,0 0,23 129,0 0,-23z" />
<path style="fill:#f0f0f0" d="M144,833 l-4,0 0,23 4,0 0,-23z" />
<path style="fill:#7f7f7f" d="M43,833 l-15,0 0,23 15,0 0,-23z" />
<path style="fill:none;stroke:#000;stroke-width:2" d="M157,833 l-129,0 0,23 129,0 0,-23" />
<path style="fill:#000" d="M904,708 l0,-76 -3,0 -2,-2 0,-19 2,-2 22,0 2,2 0,19 -2,2 -2,0 0,76 4,4 0,17 -4,2 -17,0 -5,-2 0,-17 5,-4z" />
<path style="fill:#e0e0e0;stroke:#000;stroke-width:2" d="M919,613 l-2,2 2,0 0,2 2,-2 0,-2 -2,0z" />
<path style="fill:#e0e0e0;stroke:#000;stroke-width:2" d="M919,725 l-2,2 2,2 2,0 0,-2 0,-2 -2,0z" />
<path style="fill:#e0e0e0;stroke:#000;stroke-width:2" d="M906,613 l-2,0 0,2 2,2 2,-2 0,-2 -2,0z" />
<path style="fill:#e0e0e0;stroke:#000;stroke-width:2" d="M906,725 l-2,0 0,2 0,2 2,0 2,0 0,-2 0,-2 -2,0z" />
<path style="fill:#e0e0e0;stroke:#000;stroke-width:2" d="M286,469 l-21,0 0,86 21,0 0,-86z" />
<path style="fill:#f0f0f0;stroke:#000;stroke-width:2" d="M249,469 l16,0 0,86 -16,0 0,-86z" />
<path style="fill:#e0e0e0;stroke:#000;stroke-width:2" d="M249,469 l-19,0 0,86 19,0 0,-86z" />
<path style="fill:#fff;stroke:#000;stroke-width:2" d="M275,475 l-2,3 -2,1 2,3 2,2 2,-2 3,-3 -3,-1 -2,-3z" />
<path style="fill:#fff;stroke:#000;stroke-width:2" d="M275,535 l-2,0 -2,5 2,2 2,2 2,-2 3,-2 -3,-5 -2,0z" />
<path style="fill:#fff;stroke:#000;stroke-width:2" d="M239,475 l-3,3 0,1 0,3 3,2 4,-2 0,-3 0,-1 -4,-3z" />
<path style="fill:#fff;stroke:#000;stroke-width:2" d="M239,535 l-3,0 0,5 0,2 3,2 4,-2 0,-2 0,-5 -4,0z" />
<path style="fill:#e0e0e0;stroke:#000;stroke-width:2" d="M286,787 l-21,0 0,86 21,0 0,-86z" />
<path style="fill:#f0f0f0;stroke:#000;stroke-width:2" d="M249,787 l16,0 0,86 -16,0 0,-86z" />
<path style="fill:#e0e0e0;stroke:#000;stroke-width:2" d="M249,787 l-19,0 0,86 19,0 0,-86z" />
<path style="fill:#fff;stroke:#000;stroke-width:2" d="M275,796 l-2,0 -2,4 2,2 2,0 2,0 3,-2 -3,-4 -2,0z" />
<path style="fill:#fff;stroke:#000;stroke-width:2" d="M275,854 l-2,2 -2,2 2,5 2,0 2,0 3,-5 -3,-2 -2,-2z" />
<path style="fill:#fff;stroke:#000;stroke-width:2" d="M239,796 l-3,0 0,4 0,2 3,0 4,0 0,-2 0,-4 -4,0z" />
<path style="fill:#fff;stroke:#000;stroke-width:2" d="M239,854 l-3,2 0,2 0,5 3,0 4,0 0,-5 0,-2 -4,-2z" />
<path style="fill:#0000bf;stroke:#000;stroke-width:2" d="M550,165 l0,-137 -101,0 0,137 101,0z" />
<path style="fill:#0000ad;stroke:#000;stroke-width:2" d="M574,165 l0,48 -126,0 0,-48 126,0z" />
<path style="fill:none;stroke:#000;stroke-width:2" d="M540,45 l0,49" />
<path style="fill:none;stroke:#000;stroke-width:2" d="M527,47 l0,37" />
<path style="fill:none;stroke:#000;stroke-width:2" d="M503,51 l0,48" />
<path style="fill:none;stroke:#000;stroke-width:2" d="M486,49 l0,35" />
<path style="fill:#0000ad" d="M550,155 l22,6 19,11 14,19 4,22 97,2 -5,-32 -9,-28 -15,-28 -17,-22 -23,-19 -26,-15 -30,-9 -31,-4 0,97z" />
<path style="fill:#0000e0" d="M550,79 l18,5 30,15 23,15 18,19 15,22 11,25 4,26 0,9 37,0 -5,-32 -9,-28 -15,-28 -17,-22 -23,-19 -26,-15 -30,-9 -31,-4 0,21z" />
<path style="fill:none;stroke:#000;stroke-width:2" d="M692,155 l-90,36" />
<path style="fill:none;stroke:#000;stroke-width:2" d="M589,174 l69,-69" />
<path style="fill:none;stroke:#000;stroke-width:2" d="M572,159 l37,-86" />
<path style="fill:none;stroke:#000;stroke-width:2" d="M550,155 l22,6 19,11 14,19 4,22 97,2 -5,-32 -9,-28 -15,-28 -17,-22 -23,-19 -26,-15 -30,-9 -31,-4 0,97" />
<path style="fill:none;stroke:#000;stroke-width:2" d="M966,318 l-732,0" />
<path style="fill:#e0e0e0;stroke:#000;stroke-width:2" d="M215,290 l-84,0 0,428 84,0 0,-428z" />
<path style="fill:#e0e0e0;stroke:#000;stroke-width:2" d="M215,290 l-84,0 -19,-21 84,0 19,21z" />
<path style="fill:#7f7f7f;stroke:#000;stroke-width:2" d="M110,269 l21,21 0,428 -21,-21 0,-428z" />
<path style="fill:#000;stroke:#000;stroke-width:2" d="M159,510 l4,10 11,5 11,-5 4,-10 -4,-11 -11,-4 -11,4 -4,11z" />
<path style="fill:#000;stroke:#000;stroke-width:2" d="M159,579 l4,10 11,7 11,-7 4,-10 -4,-11 -11,-4 -11,4 -4,11z" />
<path style="fill:#000;stroke:#000;stroke-width:2" d="M159,652 l4,10 11,5 11,-5 4,-10 -4,-11 -11,-4 -11,4 -4,11z" />
<path style="fill:#000;stroke:#000;stroke-width:2" d="M191,378 l-4,11 -11,4 -11,-4 -4,-11 4,-10 11,-7 11,7 4,10z" />
<path style="fill:#000;stroke:#000;stroke-width:2" d="M191,325 l-4,11 -11,4 -11,-4 -4,-11 4,-11 11,-4 11,4 4,11z" />
<path style="fill:#f00" d="M187,378 l-2,7 -9,4 -8,-4 -5,-7 5,-8 8,-4 9,4 2,8z" />
<path style="fill:#0f0" d="M187,325 l-2,8 -9,5 -8,-5 -5,-8 5,-9 8,-2 9,2 2,9z" />
<path style="fill:#e0e0e0" d="M161,514 l2,5 22,-14 -2,-4 -22,13z" />
<path style="fill:#e0e0e0" d="M161,585 l2,2 22,-13 -2,-2 -22,13z" />
<path style="fill:#e0e0e0" d="M161,656 l2,4 22,-13 -2,-4 -22,13z" />
<path style="fill:#000" d="M209,430 l-72,0 11,39 48,0 13,-39z" />
<path style="fill:#fff;stroke:#000;stroke-width:2" d="M204,432 l-62,0 6,24 48,0 8,-24z" />
<path style="fill:none;stroke:#000;stroke-width:2" d="M168,439 l6,17" />
<path style="fill:none;stroke:#000;stroke-width:2" d="M200,434 l0,5" />
<path style="fill:none;stroke:#000;stroke-width:2" d="M191,434 l0,5" />
<path style="fill:none;stroke:#000;stroke-width:2" d="M185,434 l0,5" />
<path style="fill:none;stroke:#000;stroke-width:2" d="M178,434 l0,5" />
<path style="fill:none;stroke:#000;stroke-width:2" d="M172,434 l0,5" />
<path style="fill:none;stroke:#000;stroke-width:2" d="M165,434 l0,5" />
<path style="fill:none;stroke:#000;stroke-width:2" d="M159,434 l0,5" />
<path style="fill:none;stroke:#000;stroke-width:2" d="M152,434 l0,5" />
<path style="fill:none;stroke:#000;stroke-width:2" d="M146,434 l0,5" />
<path style="fill:none;stroke:#fff;stroke-width:2" d="M695,396 l0,-60 -217,0" />
<path style="fill:none;stroke:#999;stroke-width:2" d="M695,396 l-217,0 0,-60" />

</svg>
