 

<svg xmlns:agg="http://www.example.com" xmlns="http://www.w3.org/2000/svg" preserveAspectRatio="none" width="1.1071in" height="1.0750in" viewBox="0 0 999 970">

<path style="fill:#333;stroke:#000;stroke-width:2" d="M761,828 l19,0 0,-153 76,0 0,153 19,0 0,57 -114,0 0,-57z" />
<path style="fill:#d9d9d9;stroke:#000;stroke-width:2" d="M56,66 l381,0 0,819 -381,0 0,-819z" />
<path style="fill:#4c4c4c" d="M75,885 l19,0 0,38 -19,0 0,-38z" />
<path style="fill:#4c4c4c" d="M132,561 l610,0 0,324 -610,0 0,-324z" />
<path style="fill:#d9d9d9;stroke:#000;stroke-width:2" d="M970,85 l-133,247 -38,0 -133,-247 304,0z" />
<path style="fill:#f2f2f2;stroke:#000;stroke-width:2" d="M666,28 l304,0 0,57 -304,0 0,-57z" />
<path style="fill:#e5e5e5;stroke:#000;stroke-width:2" d="M780,332 l76,0 0,115 -76,0 0,-115z" />
<path style="fill:#ccc;stroke:#000;stroke-width:2" d="M761,465 l-629,0 0,96 629,0 0,-96z" />
<path style="fill:#f2f2f2;stroke:#000;stroke-width:2" d="M761,465 l-629,0 0,-57 629,0 0,57z" />
<path style="fill:#ccc;stroke:#000;stroke-width:2" d="M761,447 l95,0 19,-20 0,115 -19,-19 -95,0 0,-76z" />
<path style="fill:#666" d="M856,465 l15,0 0,-14 -15,5 0,9z" />
<path style="fill:#666" d="M856,504 l15,0 0,14 -15,-5 0,-9z" />
<path style="fill:#666" d="M856,480 l15,0 0,10 -15,0 0,-10z" />
<path style="fill:#fff;stroke:#000;stroke-width:2" d="M875,408 l95,0 0,191 -95,0 0,-191z" />
<path style="fill:#4c4c4c;stroke:#000;stroke-width:2" d="M94,885 l876,0 0,57 -876,0 0,-57z" />
<path style="fill:#000" d="M132,895 l248,0 0,37 -248,0 0,-37z" />
<path style="fill:#000" d="M418,895 l248,0 0,37 -248,0 0,-37z" />
<path style="fill:#000" d="M704,895 l248,0 0,37 -248,0 0,-37z" />
<path style="fill:#333;stroke:#000;stroke-width:2" d="M132,427 l-57,0 0,115 57,0 0,-115z" />
<path style="fill:#f2f2f2;stroke:#000;stroke-width:2" d="M94,618 l0,-19 19,0 0,-57 19,0 0,57 20,0 0,19 -58,0z" />
<path style="fill:#ccc;stroke:#000;stroke-width:2" d="M704,561 l19,228 57,0 -19,-228 -57,0z" />
<path style="fill:#d94059" d="M152,523 l361,0 0,19 -361,0 0,-19z" />
<path style="fill:#000" d="M418,599 l210,0 0,190 -210,0 0,-190z" />
<path style="fill:#666;stroke:#000;stroke-width:2" d="M152,561 l19,95 99,0 19,-95 20,95 99,0 20,-95 19,95 99,0 19,-95 21,95 98,0 20,-95 -552,0z" />
<path style="fill:#000" d="M465,626 l-14,-32 14,-33 67,0 14,33 -14,32 -33,13 -34,-13z" />
<path style="fill:#000" d="M327,626 l-15,-32 15,-33 67,0 14,33 -14,32 -34,13 -33,-13z" />
<path style="fill:#000" d="M188,626 l-14,-32 14,-33 68,0 14,33 -14,32 -34,13 -34,-13z" />
<path style="fill:#000" d="M599,626 l-13,-32 13,-33 68,0 14,33 -14,32 -34,13 -34,-13z" />
<path style="fill:#333" d="M247,675 l209,0 0,95 -209,0 0,-95z" />
<path style="fill:#333" d="M494,732 l172,0 0,153 -172,0 0,-153z" />
<path style="fill:#666;stroke:#000;stroke-width:2" d="M742,789 l19,0 0,96 -19,0 0,-96z" />
<path style="fill:#666;stroke:#000;stroke-width:2" d="M418,808 l324,0 0,38 -324,0 0,-38z" />
<path style="fill:#666;stroke:#000;stroke-width:2" d="M94,885 l0,-267 58,0 0,267 -58,0z" />
<path style="fill:#666;stroke:#000;stroke-width:2" d="M875,599 l95,0 0,286 -95,0 0,-286z" />
<path style="fill:#7f7f7f;stroke:#000;stroke-width:2" d="M170,694 l210,0 0,191 -210,0 0,-191z" />
<path style="fill:#f2f2f2;stroke:#000;stroke-width:2" d="M152,447 l0,-153 152,0 0,153 -152,0z" />
<path style="fill:#d9d9d9;stroke:#000;stroke-width:2" d="M152,485 l0,-38 152,0 0,38 -152,0z" />
<path style="fill:#666;stroke:#000;stroke-width:2" d="M209,885 l0,-400 37,0 0,400 -37,0z" />
<path style="fill:#b2b2b2" d="M221,885 l0,-400 13,0 0,400 -13,0z" />
<path style="fill:#ccc;stroke:#000;stroke-width:2" d="M170,389 l0,-85 115,0 0,85 -115,0z" />
<path style="fill:#cbe5cb" d="M180,380 l0,-67 95,0 0,67 -95,0z" />
<path style="fill:#7fbf7f" d="M275,313 l-95,0 0,10 95,0 0,-10z" />
<path style="fill:#fff;stroke:#000;stroke-width:2" d="M170,404 l115,0 0,28 -115,0 0,-28z" />
<path style="fill:#ccc;stroke:#000;stroke-width:2" d="M170,432 l115,0 0,5 -115,0 0,-5z" />
<path style="fill:none;stroke:#999;stroke-width:2" d="M266,404 l0,33" />
<path style="fill:none;stroke:#999;stroke-width:2" d="M247,404 l0,33" />
<path style="fill:none;stroke:#999;stroke-width:2" d="M228,404 l0,33" />
<path style="fill:none;stroke:#999;stroke-width:2" d="M209,404 l0,33" />
<path style="fill:none;stroke:#999;stroke-width:2" d="M190,404 l0,33" />
<path style="fill:none;stroke:#999;stroke-width:2" d="M170,413 l115,0" />
<path style="fill:none;stroke:#999;stroke-width:2" d="M285,423 l-115,0" />
<path style="fill:#c63;fill-rule:evenodd" d="M751,561 l0,9 124,0 0,10 -133,0 0,-19 9,0z M732,561 l0,29 143,0 0,9 -152,0 0,-38 9,0z " />
<path style="fill:none;stroke:#000;stroke-width:2" d="M751,561 l0,9 124,0 0,10 -133,0 0,-19 9,0" />
<path style="fill:none;stroke:#000;stroke-width:2" d="M732,561 l0,29 143,0 0,9 -152,0 0,-38 9,0" />
<path style="fill:#333" d="M113,142 l57,0 0,43 -57,0 0,-43z" />
<path style="fill:#d94059" d="M190,166 l171,0 0,14 -171,0 0,-14z" />
<path style="fill:#7f7fff" d="M894,447 l19,0 0,18 -19,0 0,-18z" />
<path style="fill:#fc0" d="M932,447 l20,0 0,18 -20,0 0,-18z" />
<path style="fill:#fc0" d="M780,456 l57,0 0,34 -57,0 0,-34z" />
<path style="fill:#000" d="M785,461 l47,0 0,9 -47,0 0,-9z" />
<path style="fill:#c63;stroke:#000;stroke-width:2" d="M789,361 l58,0 0,57 -58,0 0,-57z" />
<path style="fill:#4c4c4c" d="M799,370 l38,0 0,38 -38,0 0,-38z" />
<path style="fill:#7f7f7f" d="M916,558 l-3,-7 3,-6 7,-3 7,3 2,6 -2,7 -7,3 -7,-3z" />
<path style="fill:#c93" d="M926,529 l-3,-6 3,-7 6,-3 7,3 3,7 -3,6 -7,3 -6,-3z" />
<path style="fill:#e5e5e5" d="M80,451 l47,0 0,19 -47,0 0,-19z" />
<path style="fill:#7f7f7f" d="M80,504 l47,0 0,28 -47,0 0,-28z" />
<path style="fill:#b2b2b2;stroke:#000;stroke-width:2" d="M28,456 l47,0 0,57 -47,0 0,-57z" />
<path style="fill:#ccc;stroke:#000;stroke-width:2" d="M28,451 l47,0 0,5 -47,0 0,-5z" />
<path style="fill:#000" d="M51,451 l-14,-81 5,-19 14,-9 0,-7 -19,12 -7,23 17,81 4,0z" />

</svg>
