 

<svg xmlns:agg="http://www.example.com" xmlns="http://www.w3.org/2000/svg" preserveAspectRatio="none" width="0.9469in" height="1.0750in" viewBox="0 0 880 999">

<path style="fill:#666;stroke:#000;stroke-width:2" d="M111,505 l658,0 0,220 -658,0 0,-220z" />
<path style="fill:#999;stroke:#000;stroke-width:2" d="M56,936 l70,-103 627,0 68,103 -765,0z" />
<path style="fill:#b2b2b2;stroke:#000;stroke-width:2" d="M46,936 l787,0 0,14 -787,0 0,-14z" />
<path style="fill:#7f7f7f;stroke:#000;stroke-width:2" d="M126,961 l0,-933 627,0 0,933 -627,0z" />
<path style="fill:#666" d="M184,184 l511,0 0,551 -511,0 0,-551z" />
<path style="fill:#333" d="M184,695 l511,0 0,40 -511,0 0,-40z" />
<path style="fill:#333" d="M184,184 l511,0 0,40 -511,0 0,-40z" />
<path style="fill:none;stroke:#000;stroke-width:2" d="M184,184 l511,0 0,551 -511,0 0,-551" />
<path style="fill:#666" d="M184,765 l511,0 0,196 -511,0 0,-196z" />
<path style="fill:#616161" d="M184,905 l511,-84 0,140 -511,0 0,-56z" />
<path style="fill:#5c5c5c" d="M184,912 l511,-83 0,132 -511,0 0,-49z" />
<path style="fill:#575757" d="M184,923 l511,-81 0,119 -511,0 0,-38z" />
<path style="fill:#4c4c4c" d="M184,765 l511,0 0,19 -511,0 0,-19z" />
<path style="fill:none;stroke:#b2b2b2;stroke-width:2" d="M224,165 l0,-98 98,0" />
<path style="fill:none;stroke:#b2b2b2;stroke-width:2" d="M558,165 l0,-98 98,0" />
<path style="fill:#e54c00" d="M184,539 l511,0 0,39 -511,0 0,-39z" />
<path style="fill:#f60" d="M205,518 l470,0 20,21 -511,0 21,-21z" />
<path style="fill:#c30;stroke:#000;stroke-width:2" d="M203,294 l79,0 0,-110 59,0 0,110 198,0 -2,-110 60,0 0,110 79,0 0,205 -473,0 0,-205z" />
<path style="fill:none;stroke:#4c4c4c;stroke-width:2" d="M558,165 l98,0 0,-98" />
<path style="fill:none;stroke:#4c4c4c;stroke-width:2" d="M224,165 l98,0 0,-98" />
<path style="fill:none;stroke:#666;stroke-width:2" d="M279,145 l-12,0 -11,-4 -10,-8 -4,-11 0,-11 4,-12 10,-9 11,-4 12,0 11,4 7,9 4,12 0,11 -4,11 -7,8 -11,4" />
<circle style="fill:none;stroke:#666;stroke-width:2" cx="605" cy="115" r="29" />
<path style="fill:#333" d="M227,156 l6,0 0,4 -6,0 0,-4z" />
<path style="fill:#333" d="M227,71 l6,0 0,6 -6,0 0,-6z" />
<path style="fill:#333" d="M310,71 l6,0 0,6 -6,0 0,-6z" />
<path style="fill:#333" d="M310,156 l6,0 0,4 -6,0 0,-4z" />
<path style="fill:#333" d="M561,156 l6,0 0,4 -6,0 0,-4z" />
<path style="fill:#333" d="M561,71 l6,0 0,6 -6,0 0,-6z" />
<path style="fill:#333" d="M646,71 l4,0 0,6 -4,0 0,-6z" />
<path style="fill:#333" d="M646,156 l4,0 0,4 -4,0 0,-4z" />
<path style="fill:#999" d="M224,803 l52,0 0,30 -52,0 0,-30z" />
<path style="fill:#cc590d" d="M224,808 l52,0 0,6 -52,0 0,-6z" />
<path style="fill:#000" d="M561,450 l12,0 0,49 -12,0 0,-49z" />
<path style="fill:#000" d="M435,450 l9,0 0,49 -9,0 0,-49z" />
<path style="fill:#000" d="M307,450 l9,0 0,49 -9,0 0,-49z" />
<path style="fill:#000" d="M659,765 l16,0 0,9 -16,0 0,-9z" />
<path style="fill:#000" d="M518,765 l15,0 0,9 -15,0 0,-9z" />
<path style="fill:#000" d="M346,765 l16,0 0,9 -16,0 0,-9z" />
<path style="fill:#000" d="M203,765 l15,0 0,9 -15,0 0,-9z" />
<path style="fill:#000" d="M65,916 l10,0 0,20 -10,0 0,-20z" />
<path style="fill:#000" d="M803,916 l9,0 0,20 -9,0 0,-20z" />
<path style="fill:#e54c00;stroke:#000;stroke-width:2" d="M224,294 l0,-15 313,0 0,15 -313,0z" />
<path style="fill:#e54c00;stroke:#000;stroke-width:2" d="M610,294 l-3,-15 15,-46 28,-49 25,0 0,110 -65,0z" />
<path style="fill:#191919" d="M184,578 l34,0 0,98 -34,0 0,-98z" />
<path style="fill:#191919" d="M661,578 l34,0 0,98 -34,0 0,-98z" />
<path style="fill:#666;stroke:#000;stroke-width:2" d="M420,184 l39,0 0,95 -39,0 0,-95z" />
<path style="fill:#666;stroke:#000;stroke-width:2" d="M714,145 l21,0 0,590 -21,0 0,-590z" />
<path style="fill:#666;stroke:#000;stroke-width:2" d="M145,145 l19,0 0,590 -19,0 0,-590z" />
<path style="fill:#b2b2b2" d="M425,184 l29,0 0,95 -29,0 0,-95z" />
<path style="fill:#b2b2b2" d="M718,145 l13,0 0,590 -13,0 0,-590z" />
<path style="fill:#b2b2b2" d="M146,145 l15,0 0,590 -15,0 0,-590z" />
<path style="fill:#e5e5e5" d="M435,184 l9,0 0,95 -9,0 0,-95z" />
<path style="fill:#e5e5e5" d="M152,145 l6,0 0,590 -6,0 0,-590z" />
<path style="fill:#e5e5e5" d="M722,145 l5,0 0,590 -5,0 0,-590z" />
<path style="fill:#fc0" d="M738,518 l-24,0 0,-19 -549,0 0,19 -24,0 0,40 24,0 0,79 19,0 0,-119 511,0 0,40 43,0 0,-40z" />
<path style="fill:#fc0" d="M139,676 l25,0 0,19 550,0 0,-19 24,0 0,-39 -24,0 0,-79 -19,0 0,118 -511,0 0,-39 -45,0 0,39z" />
<path style="fill:none;stroke:#000;stroke-width:2" d="M139,637 l0,39 25,0 0,19 550,0 0,-19 24,0 0,-39 -24,0 0,-79 24,0 0,-40 -24,0 0,-19 -549,0 0,19 -24,0 0,40 24,0 0,79 -26,0" />
<path style="fill:none;stroke:#000;stroke-width:2" d="M184,518 l511,0 0,158 -511,0 0,-158" />
<path style="fill:none;stroke:#000;stroke-width:2" d="M184,578 l511,0" />
<path style="fill:#000" d="M126,961 l627,0 0,9 -627,0 0,-9z" />
<path style="fill:none;stroke:#000;stroke-width:2" d="M184,765 l511,0 0,196 -511,0 0,-196" />
<path style="fill:#ffb27f;stroke:#000;stroke-width:2" d="M763,950 l89,0 0,20 -89,0 0,-20z" />
<path style="fill:#ffb27f;stroke:#000;stroke-width:2" d="M28,950 l86,0 0,20 -86,0 0,-20z" />
<path style="fill:#ffd9bf" d="M787,950 l40,0 0,20 -40,0 0,-20z" />
<path style="fill:#ffd9bf" d="M52,950 l38,0 0,20 -38,0 0,-20z" />
<path style="fill:#333;stroke:#999;stroke-width:2" d="M139,46 l79,0 0,99 -79,0 0,-99z" />
<path style="fill:#333;stroke:#999;stroke-width:2" d="M659,46 l79,0 0,99 -79,0 0,-99z" />

</svg>
