 

<svg xmlns:agg="http://www.example.com" xmlns="http://www.w3.org/2000/svg" preserveAspectRatio="none" width="1.2231in" height="1.0750in" viewBox="0 0 999 878">

<path style="fill:#366" d="M549,268 l181,0 0,160 -181,0 0,-160z" />
<path style="fill:#033" d="M208,368 l301,0 0,382 -301,0 0,-382z" />
<path style="fill:#194c4c" d="M428,428 l503,0 0,322 -503,0 0,-322z" />
<path style="fill:#699;stroke:#000;stroke-width:2" d="M349,88 l0,39 -201,0 0,-39 201,0z" />
<path style="fill:#9cc" d="M349,93 l0,31 -201,0 0,-31 201,0z" />
<path style="fill:#cff" d="M349,103 l0,9 -201,0 0,-9 201,0z" />
<path style="fill:#699;stroke:#000;stroke-width:2" d="M48,28 l79,0 0,400 -79,0 0,-400z" />
<path style="fill:#699;stroke:#000;stroke-width:2" d="M750,187 l79,0 0,322 -79,0 0,-322z" />
<path style="fill:#699;stroke:#000;stroke-width:2" d="M349,67 l-62,0 -58,60 0,382 79,0 0,-340 21,-21 20,0 0,-81z" />
<path style="fill:#366" d="M750,436 l79,0 0,13 -79,0 0,-13z" />
<path style="fill:#366" d="M750,395 l79,0 0,28 -79,0 0,-28z" />
<path style="fill:#366" d="M750,368 l79,0 0,13 -79,0 0,-13z" />
<path style="fill:#366" d="M229,436 l79,0 0,13 -79,0 0,-13z" />
<path style="fill:#366" d="M229,395 l79,0 0,28 -79,0 0,-28z" />
<path style="fill:#366" d="M229,368 l79,0 0,13 -79,0 0,-13z" />
<path style="fill:#366" d="M48,376 l79,0 0,13 -79,0 0,-13z" />
<path style="fill:#366" d="M48,334 l79,0 0,28 -79,0 0,-28z" />
<path style="fill:#366" d="M48,308 l79,0 0,13 -79,0 0,-13z" />
<path style="fill:#366;stroke:#000;stroke-width:2" d="M88,509 l-40,-60 121,0 0,60 -81,0z" />
<path style="fill:#9cc;stroke:#000;stroke-width:2" d="M48,428 l121,0 0,21 -121,0 0,-21z" />
<path style="fill:#033" d="M570,187 l39,0 0,21 -39,0 0,-21z" />
<path style="fill:#033" d="M449,187 l40,0 0,21 -40,0 0,-21z" />
<path style="fill:#4c7f7f" d="M389,489 l0,81 199,0 0,-81 21,0 0,20 280,0 0,-20 21,0 0,241 -21,0 0,-21 -280,0 0,21 -21,0 0,-81 -199,0 0,81 -21,0 0,-21 -280,0 0,21 -21,0 0,-241 21,0 0,20 280,0 0,-20 21,0z" />
<path style="fill:#578a8a" d="M389,502 l0,71 199,0 0,-71 21,0 0,17 280,0 0,-17 21,0 0,214 -21,0 0,-17 -280,0 0,17 -21,0 0,-71 -199,0 0,71 -21,0 0,-17 -280,0 0,17 -21,0 0,-214 21,0 0,17 280,0 0,-17 21,0z" />
<path style="fill:#5e9191" d="M389,513 l0,64 199,0 0,-64 21,0 0,17 280,0 0,-17 21,0 0,192 -21,0 0,-17 -280,0 0,17 -21,0 0,-64 -199,0 0,64 -21,0 0,-17 -280,0 0,17 -21,0 0,-192 21,0 0,17 280,0 0,-17 21,0z" />
<path style="fill:#699c9c" d="M389,526 l0,55 199,0 0,-55 21,0 0,14 280,0 0,-14 21,0 0,166 -21,0 0,-13 -280,0 0,13 -21,0 0,-55 -199,0 0,55 -21,0 0,-13 -280,0 0,13 -21,0 0,-166 21,0 0,14 280,0 0,-14 21,0z" />
<path style="fill:#73a6a6" d="M389,540 l0,45 199,0 0,-45 21,0 0,11 280,0 0,-11 21,0 0,139 -21,0 0,-12 -280,0 0,12 -21,0 0,-47 -199,0 0,47 -21,0 0,-12 -280,0 0,12 -21,0 0,-139 21,0 0,11 280,0 0,-11 21,0z" />
<path style="fill:#7db0b0" d="M389,551 l0,39 199,0 0,-39 21,0 0,9 280,0 0,-9 21,0 0,116 -21,0 0,-9 -280,0 0,9 -21,0 0,-39 -199,0 0,39 -21,0 0,-9 -280,0 0,9 -21,0 0,-116 21,0 0,9 280,0 0,-9 21,0z" />
<path style="fill:#85b8b8" d="M389,564 l0,30 199,0 0,-30 21,0 0,7 280,0 0,-7 21,0 0,90 -21,0 0,-7 -280,0 0,7 -21,0 0,-30 -199,0 0,30 -21,0 0,-7 -280,0 0,7 -21,0 0,-90 21,0 0,7 280,0 0,-7 21,0z" />
<path style="fill:#8fc2c2" d="M389,577 l0,21 199,0 0,-21 21,0 0,4 280,0 0,-4 21,0 0,64 -21,0 0,-5 -280,0 0,5 -21,0 0,-20 -199,0 0,20 -21,0 0,-5 -280,0 0,5 -21,0 0,-64 21,0 0,4 280,0 0,-4 21,0z" />
<path style="fill:#9cc" d="M389,588 l0,15 199,0 0,-15 21,0 0,4 280,0 0,-4 21,0 0,42 -21,0 0,-4 -280,0 0,4 -21,0 0,-13 -199,0 0,13 -21,0 0,-4 -280,0 0,4 -21,0 0,-42 21,0 0,4 280,0 0,-4 21,0z" />
<path style="fill:#f2e5cc;stroke:#000;stroke-width:2" d="M28,850 l0,-100 922,0 0,100 -922,0z" />
<path style="fill:none;stroke:#998c73;stroke-width:2" d="M28,790 l922,0" />
<path style="fill:none;stroke:#366;stroke-width:2" d="M889,509 l0,200" />
<path style="fill:none;stroke:#366;stroke-width:2" d="M88,709 l0,-200" />
<path style="fill:none;stroke:#366;stroke-width:2" d="M368,509 l0,200" />
<path style="fill:none;stroke:#366;stroke-width:2" d="M609,709 l0,-200" />
<path style="fill:none;stroke:#366;stroke-width:2" d="M588,649 l0,-79" />
<path style="fill:none;stroke:#366;stroke-width:2" d="M389,570 l0,79" />
<path style="fill:none;stroke:#000;stroke-width:2" d="M389,489 l0,81 199,0 0,-81 21,0 0,20 280,0 0,-20 21,0 0,241 -21,0 0,-21 -280,0 0,21 -21,0 0,-81 -199,0 0,81 -21,0 0,-21 -280,0 0,21 -21,0 0,-241 21,0 0,20 280,0 0,-20 21,0" />
<path style="fill:#4c7f7f" d="M408,28 l562,0 0,159 -562,0 -59,-39 0,-81 59,-39z" />
<path style="fill:#598c8c" d="M410,37 l560,0 0,141 -560,0 -61,-36 0,-69 61,-36z" />
<path style="fill:#699" d="M410,46 l560,0 0,121 -560,0 -61,-30 0,-61 61,-30z" />
<path style="fill:#73a6a6" d="M410,58 l560,0 0,99 -560,0 -61,-24 0,-51 61,-24z" />
<path style="fill:#7fb2b2" d="M410,67 l560,0 0,81 -560,0 -61,-21 0,-39 61,-21z" />
<path style="fill:#8cbfbf" d="M410,76 l560,0 0,61 -560,0 -61,-13 0,-33 61,-15z" />
<path style="fill:#9cc" d="M408,88 l562,0 0,39 -562,0 -59,-9 0,-21 59,-9z" />
<path style="fill:none;stroke:#000;stroke-width:2" d="M408,28 l562,0 0,159 -562,0 -59,-39 0,-81 59,-39" />
<path style="fill:#366;stroke:#000;stroke-width:2" d="M48,690 l360,0 0,60 -360,0 0,-60z" />
<path style="fill:#d9ccb3;stroke:#000;stroke-width:2" d="M570,750 l0,-60 60,0 0,19 100,0 0,-19 60,0 0,60 -220,0z" />
<path style="fill:#699;stroke:#000;stroke-width:2" d="M570,208 l39,0 0,482 -39,0 0,-482z" />
<path style="fill:#9cc" d="M573,208 l30,0 0,482 -30,0 0,-482z" />
<path style="fill:#cff" d="M585,208 l9,0 0,482 -9,0 0,-482z" />
<path style="fill:#699;stroke:#000;stroke-width:2" d="M109,88 l39,0 0,602 -39,0 0,-602z" />
<path style="fill:#9cc" d="M112,88 l30,0 0,602 -30,0 0,-602z" />
<path style="fill:#cff" d="M124,88 l9,0 0,602 -9,0 0,-602z" />
<path style="fill:#699;stroke:#000;stroke-width:2" d="M449,208 l40,0 0,542 -40,0 0,-542z" />
<path style="fill:#9cc" d="M455,208 l28,0 0,542 -28,0 0,-542z" />
<path style="fill:#cff" d="M464,208 l10,0 0,542 -10,0 0,-542z" />
<circle style="fill:none;stroke:#000;stroke-width:2" cx="469" cy="710" r="20" />
<path style="fill:none;stroke:#000;stroke-width:2" d="M570,268 l39,0" />
<path style="fill:none;stroke:#000;stroke-width:2" d="M449,528 l40,0" />
<path style="fill:none;stroke:#000;stroke-width:2" d="M148,489 l-39,0" />
<path style="fill:none;stroke:#000;stroke-width:2" d="M208,127 l0,-39" />
<path style="fill:none;stroke:#366;stroke-width:2" d="M408,187 l0,-159" />
<path style="fill:none;stroke:#366;stroke-width:2" d="M570,187 l0,-159" />
<path style="fill:none;stroke:#366;stroke-width:2" d="M730,187 l0,-159" />
<path style="fill:none;stroke:#366;stroke-width:2" d="M889,187 l0,-159" />

</svg>
