 

<svg xmlns:agg="http://www.example.com" xmlns="http://www.w3.org/2000/svg" preserveAspectRatio="none" width="1.1317in" height="1.0750in" viewBox="0 0 998 948">

<path style="fill:#333" d="M118,676 l0,244 144,0 18,-21 244,0 20,21 426,0 0,-244 -852,0z" />
<path style="fill:#191919" d="M788,701 l20,-19 0,232 -20,0 0,-213z" />
<path style="fill:#191919" d="M262,676 l0,244 18,-21 244,0 20,21 0,-244 -282,0z" />
<path style="fill:#ccc" d="M160,154 l162,0 0,56 -162,0 0,-56z" />
<path style="fill:#ccc" d="M808,554 l51,0 0,122 -51,0 0,-122z" />
<path style="fill:#c7c7c7" d="M160,194 l162,-23 0,39 -162,0 0,-16z" />
<path style="fill:#c7c7c7" d="M808,616 l51,-26 0,86 -51,0 0,-60z" />
<path style="fill:#c2c2c2" d="M160,195 l162,-22 0,37 -162,0 0,-15z" />
<path style="fill:#c2c2c2" d="M808,626 l51,-25 0,75 -51,0 0,-50z" />
<path style="fill:#bdbdbd" d="M160,199 l162,-23 0,34 -162,0 0,-11z" />
<path style="fill:#bdbdbd" d="M808,635 l51,-25 0,66 -51,0 0,-41z" />
<path style="fill:#f00;stroke:#000;stroke-width:2" d="M44,580 l10,-17 -19,-7 -7,17 16,7z" />
<path style="fill:none;stroke:#000;stroke-width:2" d="M118,676 l0,244 144,0 18,-21 244,0 20,21 426,0 0,-244 -852,0" />
<path style="fill:#e5e5e5" d="M99,697 l689,0 20,-21 0,-528 -20,0 0,-19 41,0 0,-20 -183,0 0,-81 -243,0 0,81 -81,20 0,81 -244,0 0,466 21,21z" />
<path style="fill:#e0e0e0" d="M99,697 l689,0 20,-21 0,-385 -730,163 0,222 21,21z" />
<path style="fill:#dbdbdb" d="M99,697 l689,0 20,-21 0,-366 -730,163 0,203 21,21z" />
<path style="fill:#d6d6d6" d="M99,697 l689,0 20,-21 0,-345 -730,162 0,183 21,21z" />
<path style="fill:none;stroke:#fff;stroke-width:2" d="M646,210 l0,425 -243,0" />
<path style="fill:#b2b2b2" d="M99,697 l689,0 20,-21 -730,0 21,21z" />
<path style="fill:none;stroke:#000;stroke-width:2" d="M99,697 l689,0 20,-21 0,-528 -20,0 0,-19 41,0 0,-20 -183,0 0,-81 -243,0 0,81 -81,20 0,81 -244,0 0,466 21,21" />
<path style="fill:#333" d="M327,210 l19,-20 0,405 -19,-21 0,-364z" />
<path style="fill:#ccc;stroke:#000;stroke-width:2" d="M346,190 l21,0 0,405 -21,0 0,-405z" />
<path style="fill:none;stroke:#ccc;stroke-width:2" d="M337,373 l0,-153" />
<path style="fill:#ffb27f" d="M656,473 l30,0 0,11 -30,0 0,-11z" />
<path style="fill:#000;stroke:#000;stroke-width:2" d="M454,565 l-11,-9 0,-265 11,-11 141,0 12,11 0,265 -12,9 -141,0z" />
<path style="fill:#4c4c4c;stroke:#000;stroke-width:2" d="M458,559 l-10,-9 0,-254 10,-10 132,0 11,10 0,254 -11,9 -132,0z" />
<path style="fill:none;stroke:#fff;stroke-width:2" d="M505,499 l54,-81" />
<path style="fill:none;stroke:#fff;stroke-width:2" d="M490,454 l75,-111" />
<path style="fill:none;stroke:#fff;stroke-width:2" d="M490,373 l34,-48" />
<path style="fill:#999" d="M169,559 l-9,-9 0,-254 9,-10 60,0 12,10 0,254 -12,9 -60,0z" />
<path style="fill:none;stroke:#000;stroke-width:2" d="M808,554 l51,0 0,122 -51,0 0,-122" />
<path style="fill:none;stroke:#000;stroke-width:2" d="M160,154 l162,0 0,56 -162,0 0,-56" />
<path style="fill:#000;stroke:#000;stroke-width:2" d="M78,595 l-45,0 0,-15 30,-60 15,0 0,75z" />
<path style="fill:none;stroke:#000;stroke-width:2" d="M58,595 l2,26 3,23 4,19 4,16 4,14 4,11 5,9 5,7 4,5 5,4 4,3 4,2 4,1 3,1 3,0 2,1" />
<path style="fill:#333" d="M176,403 l-7,-4 0,-109 7,-4 46,0 7,4 2,109 -9,4 -46,0z" />
<path style="fill:#333" d="M176,559 l-7,-3 0,-95 7,-3 46,0 7,3 2,95 -9,3 -46,0z" />
<path style="fill:none;stroke:#000;stroke-width:2" d="M169,559 l-9,-9 0,-254 9,-10 60,0 12,10 0,254 -12,9 -60,0" />
<path style="fill:#7f7f7f;stroke:#000;stroke-width:2" d="M767,808 l0,25 -390,0 0,-25 390,0z" />
<path style="fill:#7f7f7f;stroke:#000;stroke-width:2" d="M352,656 l25,0 0,177 -25,0 0,-177z" />
<path style="fill:#b2b2b2" d="M767,812 l0,17 -390,0 0,-17 390,0z" />
<path style="fill:#b2b2b2" d="M358,656 l15,0 0,177 -15,0 0,-177z" />
<path style="fill:#e5e5e5" d="M767,820 l0,2 -390,0 0,-2 390,0z" />
<path style="fill:#e5e5e5" d="M363,656 l4,0 0,177 -4,0 0,-177z" />
<path style="fill:#ccc" d="M667,129 l121,0 0,19 -121,0 0,-19z" />
<path style="fill:none;stroke:#7f7f7f;stroke-width:2" d="M788,129 l-121,0" />
<path style="fill:none;stroke:#7f7f7f;stroke-width:2" d="M646,210 l-243,0 0,425" />
<path style="fill:#fc0" d="M818,610 l15,0 0,10 -15,0 0,-10z" />

</svg>
