 

<svg xmlns:agg="http://www.example.com" xmlns="http://www.w3.org/2000/svg" preserveAspectRatio="none" width="0.6725in" height="1.0750in" viewBox="0 0 625 999">

<path style="fill:#7f7f7f" d="M28,184 l19,0 0,21 177,0 0,-79 -177,0 0,19 -19,0 0,39z" />
<path style="fill:#878787" d="M28,182 l19,0 0,17 177,0 0,-70 -177,0 0,19 -19,0 0,34z" />
<path style="fill:#919191" d="M28,178 l19,0 0,15 177,0 0,-58 -177,0 0,15 -19,0 0,28z" />
<path style="fill:#999" d="M28,177 l19,0 0,13 177,0 0,-49 -177,0 0,11 -19,0 0,25z" />
<path style="fill:#a1a1a1" d="M28,175 l19,0 0,9 177,0 0,-39 -177,0 0,9 -19,0 0,21z" />
<path style="fill:#ababab" d="M28,173 l19,0 0,7 177,0 0,-30 -177,0 0,8 -19,0 0,15z" />
<path style="fill:#b2b2b2" d="M28,171 l19,0 0,4 177,0 0,-21 -177,0 0,6 -19,0 0,11z" />
<path style="fill:none;stroke:#000;stroke-width:2" d="M28,184 l19,0 0,21 177,0 0,-79 -177,0 0,19 -19,0 0,39" />
<path style="fill:#ccc" d="M28,224 l39,0 0,-138 138,0 0,138 392,0 0,137 -569,0 0,-137z" />
<path style="fill:#c7c7c7" d="M28,322 l569,-59 0,98 -569,0 0,-39z" />
<path style="fill:#c2c2c2" d="M28,328 l569,-59 0,92 -569,0 0,-33z" />
<path style="fill:#bdbdbd" d="M28,335 l569,-57 0,83 -569,0 0,-26z" />
<path style="fill:none;stroke:#000;stroke-width:2" d="M28,224 l39,0 0,-138 138,0 0,138 392,0 0,137 -569,0 0,-137" />
<path style="fill:#7f7f7f" d="M322,263 l119,0 0,79 -119,0 0,-79z" />
<path style="fill:#8a8a8a" d="M329,263 l104,0 0,78 -104,0 0,-78z" />
<path style="fill:#919191" d="M335,263 l92,0 0,78 -92,0 0,-78z" />
<path style="fill:#9c9c9c" d="M341,263 l81,0 0,78 -81,0 0,-78z" />
<path style="fill:#a6a6a6" d="M346,263 l70,0 0,78 -70,0 0,-78z" />
<path style="fill:#b0b0b0" d="M354,263 l55,0 0,78 -55,0 0,-78z" />
<path style="fill:#b8b8b8" d="M360,263 l43,0 0,78 -43,0 0,-78z" />
<path style="fill:#c2c2c2" d="M365,263 l32,0 0,78 -32,0 0,-78z" />
<path style="fill:#ccc" d="M371,263 l19,0 0,79 -19,0 0,-79z" />
<path style="fill:none;stroke:#000;stroke-width:2" d="M322,263 l119,0 0,79 -119,0 0,-79" />
<path style="fill:none;stroke:#999;stroke-width:2" d="M267,254 l232,0" />
<path style="fill:#7f7f7f" d="M267,263 l6,0 0,79 -6,0 0,-79z" />
<path style="fill:#7f7f7f" d="M489,263 l4,0 0,79 -4,0 0,-79z" />
<path style="fill:#7f7f7f" d="M282,263 l4,0 0,79 -4,0 0,-79z" />
<path style="fill:#7f7f7f" d="M474,263 l4,0 0,79 -4,0 0,-79z" />
<path style="fill:#bdbdbd" d="M169,126 l-53,0 0,-19 -45,0 0,117 98,0 0,-98z" />
<path style="fill:#bdbdbd" d="M224,243 l-55,0 0,-19 -43,0 0,118 98,0 0,-99z" />
<path style="fill:none;stroke:#000;stroke-width:2" d="M67,224 l59,0 0,104" />
<path style="fill:#7f7f7f" d="M96,61 l5,0 0,163 -5,0 0,-163z" />
<path style="fill:#7f7f7f" d="M101,67 l0,-6 162,0 0,6 -162,0z" />
<path style="fill:#7f7f7f" d="M248,293 l-5,0 0,-226 5,0 0,226z" />
<path style="fill:#7f7f7f" d="M243,290 l0,6 -50,0 0,-6 50,0z" />
<path style="fill:#7f7f7f" d="M243,205 l0,4 -74,0 0,-4 74,0z" />
<path style="fill:#7f7f7f" d="M165,205 l4,0 0,49 -4,0 0,-49z" />
<path style="fill:none;stroke:#fff;stroke-width:2" d="M141,307 l0,-53 52,0" />
<path style="fill:none;stroke:#7f7f7f;stroke-width:2" d="M141,307 l52,0 0,-53" />
<path style="fill:#7f7f7f;stroke:#000;stroke-width:2" d="M578,224 l-79,0 0,-123 49,0 19,11 9,17 0,21 -9,19 11,55z" />
<path style="fill:none;stroke:#000;stroke-width:2" d="M47,184 l0,-39" />
<path style="fill:#ccc" d="M263,28 l236,0 0,235 -236,0 0,-235z" />
<path style="fill:#ccc" d="M263,342 l236,0 0,118 -236,0 0,-118z" />
<path style="fill:#c7c7c7" d="M263,196 l236,-100 0,167 -236,0 0,-67z" />
<path style="fill:#c7c7c7" d="M263,425 l236,-48 0,83 -236,0 0,-35z" />
<path style="fill:#c2c2c2" d="M263,205 l236,-98 0,156 -236,0 0,-58z" />
<path style="fill:#c2c2c2" d="M263,431 l236,-51 0,80 -236,0 0,-29z" />
<path style="fill:#bdbdbd" d="M263,437 l236,-49 0,72 -236,0 0,-23z" />
<path style="fill:#bdbdbd" d="M263,220 l236,-100 0,143 -236,0 0,-43z" />
<path style="fill:#7f7f7f" d="M267,460 l6,0 0,294 -6,0 0,-294z" />
<path style="fill:#7f7f7f" d="M489,460 l4,0 0,294 -4,0 0,-294z" />
<path style="fill:#ccc" d="M478,754 l-18,0 0,-294 18,0 0,294z" />
<path style="fill:#ccc" d="M282,460 l21,0 0,294 -21,0 0,-294z" />
<path style="fill:#b2b2b2" d="M478,754 l-9,0 0,-294 9,0 0,294z" />
<path style="fill:#b2b2b2" d="M282,460 l10,0 0,294 -10,0 0,-294z" />
<path style="fill:#7f7f7f" d="M478,754 l-4,0 0,-294 4,0 0,294z" />
<path style="fill:#7f7f7f" d="M282,460 l6,0 0,294 -6,0 0,-294z" />
<path style="fill:#b2b2b2;stroke:#000;stroke-width:2" d="M322,754 l119,0 0,216 -119,0 0,-216z" />
<path style="fill:#4c4c4c" d="M322,872 l119,0 0,59 -119,0 0,-59z" />
<path style="fill:#ccc" d="M263,754 l59,0 0,216 -59,0 0,-216z" />
<path style="fill:#ccc" d="M439,754 l60,0 0,216 -60,0 0,-216z" />
<path style="fill:#d6d6d6" d="M439,891 l60,0 0,79 -60,0 0,-79z" />
<path style="fill:#d6d6d6" d="M263,891 l59,0 0,79 -59,0 0,-79z" />
<path style="fill:#dedede" d="M439,910 l60,0 0,60 -60,0 0,-60z" />
<path style="fill:#dedede" d="M263,910 l59,0 0,60 -59,0 0,-60z" />
<path style="fill:#e8e8e8" d="M439,931 l60,0 0,39 -60,0 0,-39z" />
<path style="fill:#e8e8e8" d="M263,931 l59,0 0,39 -59,0 0,-39z" />
<path style="fill:#f2f2f2" d="M263,950 l59,0 0,20 -59,0 0,-20z" />
<path style="fill:#f2f2f2" d="M439,950 l60,0 0,20 -60,0 0,-20z" />
<path style="fill:#ccc;stroke:#000;stroke-width:2" d="M499,401 l39,0 0,432 -39,0 0,-432z" />
<path style="fill:#ccc;stroke:#000;stroke-width:2" d="M393,912 l-24,0 -21,-6 -17,-7 -9,-12 0,-113 119,0 0,113 -10,12 -17,7 -21,6z" />
<path style="fill:none;stroke:#000;stroke-width:2" d="M263,754 l59,0 0,216 -59,0 0,-216" />
<path style="fill:none;stroke:#000;stroke-width:2" d="M439,754 l60,0 0,216 -60,0 0,-216" />
<path style="fill:#e5e5e5;stroke:#000;stroke-width:2" d="M322,754 l119,0 0,20 -119,0 0,-20z" />
<circle style="fill:#fff;stroke:#000;stroke-width:2" cx="518" cy="655" r="9" />
<circle style="fill:#fff;stroke:#000;stroke-width:2" cx="518" cy="577" r="9" />
<path style="fill:#b2b2b2;stroke:#000;stroke-width:2" d="M503,793 l0,-59 30,0 0,59 -30,0z" />
<path style="fill:none;stroke:#666;stroke-width:2" d="M509,744 l0,40" />
<path style="fill:none;stroke:#666;stroke-width:2" d="M527,744 l0,40" />
<path style="fill:none;stroke:#7f7f7f;stroke-width:2" d="M282,616 l21,0" />
<path style="fill:none;stroke:#7f7f7f;stroke-width:2" d="M460,616 l18,0" />
<path style="fill:none;stroke:#000;stroke-width:2" d="M478,754 l-18,0 0,-294 18,0 0,294" />
<path style="fill:none;stroke:#000;stroke-width:2" d="M282,460 l21,0 0,294 -21,0 0,-294" />
<path style="fill:#ccc" d="M278,518 l206,0 0,60 -206,0 0,-60z" />
<path style="fill:#c7c7c7" d="M278,561 l206,-26 0,43 -206,0 0,-17z" />
<path style="fill:#c2c2c2" d="M278,563 l206,-25 0,40 -206,0 0,-15z" />
<path style="fill:#bdbdbd" d="M278,567 l206,-25 0,36 -206,0 0,-11z" />
<path style="fill:none;stroke:#000;stroke-width:2" d="M278,518 l206,0 0,60 -206,0 0,-60" />
<path style="fill:none;stroke:#000;stroke-width:2" d="M263,28 l236,0 0,235 -236,0 0,-235" />
<path style="fill:none;stroke:#000;stroke-width:2" d="M263,342 l236,0 0,118 -236,0 0,-118" />
<path style="fill:#999" d="M316,460 l0,29 12,0 0,-9 9,0 0,9 9,0 0,-9 10,0 0,9 9,0 0,-9 12,0 0,9 9,0 0,-9 9,0 0,9 10,0 0,-9 9,0 0,9 11,0 0,-9 10,0 0,9 9,0 0,-29 -128,0z" />
<path style="fill:#4c4c4c" d="M316,460 l0,14 128,0 0,-14 -128,0z" />
<path style="fill:#595959" d="M325,460 l0,14 110,0 0,-14 -110,0z" />
<path style="fill:#666" d="M335,460 l0,14 92,0 0,-14 -92,0z" />
<path style="fill:#737373" d="M344,460 l0,14 74,0 0,-14 -74,0z" />
<path style="fill:#7f7f7f" d="M354,460 l0,14 55,0 0,-14 -55,0z" />
<path style="fill:#8c8c8c" d="M361,460 l0,14 38,0 0,-14 -38,0z" />
<path style="fill:#999" d="M371,460 l0,14 19,0 0,-14 -19,0z" />
<path style="fill:none;stroke:#000;stroke-width:2" d="M316,460 l0,29 12,0 0,-9 9,0 0,9 9,0 0,-9 10,0 0,9 9,0 0,-9 12,0 0,9 9,0 0,-9 9,0 0,9 10,0 0,-9 9,0 0,9 11,0 0,-9 10,0 0,9 9,0 0,-29 -128,0" />
<ellipse style="fill:#b2b2b2;stroke:#666;stroke-width:2" cx="378" cy="145" rx="13" ry="38" />
<circle style="fill:#b2b2b2;stroke:#666;stroke-width:2" cx="381" cy="401" r="35" />
<path style="fill:#000" d="M503,612 l11,0 0,9 -11,0 0,-9z" />
<path style="fill:#000" d="M524,612 l9,0 0,9 -9,0 0,-9z" />
<path style="fill:#000" d="M377,165 l3,0 0,10 -3,0 0,-10z" />
<path style="fill:#000" d="M377,116 l3,0 0,10 -3,0 0,-10z" />
<path style="fill:#000" d="M328,395 l9,0 0,12 -9,0 0,-12z" />
<path style="fill:#000" d="M425,395 l10,0 0,12 -10,0 0,-12z" />
<path style="fill:#7f7f7f" d="M460,970 l0,-39 18,0 0,39 -18,0z" />
<path style="fill:#7f7f7f;stroke:#000;stroke-width:2" d="M282,970 l0,-39 21,0 0,39 -21,0z" />
<path style="fill:#e5e5e5" d="M290,970 l0,-39 6,0 0,39 -6,0z" />
<path style="fill:#e5e5e5" d="M467,970 l0,-39 6,0 0,39 -6,0z" />
<path style="fill:none;stroke:#000;stroke-width:2" d="M460,970 l0,-39 18,0 0,39 -18,0" />

</svg>
