 

<svg xmlns:agg="http://www.example.com" xmlns="http://www.w3.org/2000/svg" preserveAspectRatio="none" width="1.5326in" height="1.0750in" viewBox="0 0 998 700">

<path style="fill:#e0e0e0" d="M862,512 l2,-175 -71,-66 -6,-188 -680,4 -8,469 630,-13 58,-31 75,0z" />
<path style="fill:#bf1400;stroke:#000;stroke-width:2" d="M326,550 l-55,0 0,-463 55,0 0,463z" />
<path style="fill:#bf1400;stroke:#000;stroke-width:2" d="M612,550 l-53,0 0,-463 53,0 0,463z" />
<path style="fill:#e0e0e0;stroke:#000;stroke-width:2" d="M649,605 l-8,18 -7,13 0,13 7,16 11,7 15,0 11,-7 5,-11 0,-15 -3,-5 -4,-2 -4,2 0,9 -5,11 -6,2 -9,-4 -3,-9 5,-14 7,-8 2,-9 2,-7 0,-11 -16,0 0,11z" />
<path style="fill:#b2b2b2;stroke:#000;stroke-width:2" d="M669,601 l-22,0 0,-11 22,0 0,11z" />
<path style="fill:#e0e0e0;stroke:#000;stroke-width:2" d="M187,605 l11,18 4,13 3,13 -7,16 -13,7 -13,0 -14,-7 -4,-11 0,-15 2,-5 4,-2 7,2 0,9 5,11 6,2 7,-4 4,-9 -4,-14 -7,-8 -4,-9 -2,-7 0,-11 15,0 0,11z" />
<path style="fill:#b2b2b2;stroke:#000;stroke-width:2" d="M169,601 l20,0 0,-11 -20,0 0,11z" />
<path style="fill:#f0f0f0;stroke:#000;stroke-width:2" d="M702,180 l-559,0 0,20 559,0 0,-20z" />
<path style="fill:#cc3;stroke:#000;stroke-width:2" d="M96,140 l47,0 0,355 -47,0 0,-355z" />
<path style="fill:#cc3;stroke:#000;stroke-width:2" d="M680,140 l47,0 0,355 -47,0 0,-355z" />
<path style="fill:#f93;stroke:#000;stroke-width:2" d="M970,273 l-150,0 0,182 150,0 0,-182z" />
<path style="fill:#f60;stroke:#000;stroke-width:2" d="M970,273 l-150,0 -16,-13 151,0 15,13z" />
<path style="fill:#f60;stroke:#000;stroke-width:2" d="M804,260 l16,13 0,182 -16,-16 0,-179z" />
<path style="fill:#fff;stroke:#000;stroke-width:2" d="M953,284 l-120,0 0,49 120,0 0,-49z" />
<path style="fill:#f00" d="M944,293 l-102,0 0,13 102,0 0,-13z" />
<path style="fill:#000" d="M944,320 l-102,0 0,-9 102,0 0,9z" />
<path style="fill:#f93;stroke:#000;stroke-width:2" d="M816,523 l0,-398 -3,0 0,398 3,0z" />
<path style="fill:#f93;stroke:#000;stroke-width:2" d="M811,121 l5,4 -3,0 -4,-4 2,0z" />
<path style="fill:#f93;stroke:#000;stroke-width:2" d="M807,519 l0,-398 6,4 0,398 -6,-4z" />
<path style="fill:#f60;stroke:#000;stroke-width:2" d="M776,521 l0,-398 33,0 0,398 -33,0z" />
<path style="fill:#f60;stroke:#000;stroke-width:2" d="M773,121 l3,2 33,0 0,-2 -36,0z" />
<path style="fill:#f93;stroke:#000;stroke-width:2" d="M778,523 l0,-398 -2,0 0,398 2,0z" />
<path style="fill:#f93;stroke:#000;stroke-width:2" d="M773,121 l5,4 -2,0 -7,-4 4,0z" />
<path style="fill:#f93;stroke:#000;stroke-width:2" d="M769,519 l0,-398 7,4 0,398 -7,-4z" />
<path style="fill:#f93;stroke:#000;stroke-width:2" d="M875,123 l-836,0 0,-5 836,0 0,5z" />
<path style="fill:#f93;stroke:#000;stroke-width:2" d="M28,114 l11,9 0,-5 -11,-11 0,7z" />
<path style="fill:#f93;stroke:#000;stroke-width:2" d="M864,107 l-836,0 11,11 836,0 -11,-11z" />
<path style="fill:#f60;stroke:#000;stroke-width:2" d="M869,39 l-837,0 0,73 837,0 0,-73z" />
<path style="fill:#f60;stroke:#000;stroke-width:2" d="M30,36 l2,3 0,73 -2,-3 0,-73z" />
<path style="fill:#f93;stroke:#000;stroke-width:2" d="M875,45 l-836,0 0,-6 836,0 0,6z" />
<path style="fill:#f93;stroke:#000;stroke-width:2" d="M28,34 l11,11 0,-6 -11,-9 0,4z" />
<path style="fill:#f93;stroke:#000;stroke-width:2" d="M864,28 l-836,0 11,11 836,0 -11,-11z" />
<path style="fill:#f93;stroke:#000;stroke-width:2" d="M743,592 l-647,0 0,-4 647,0 0,4z" />
<path style="fill:#f93;stroke:#000;stroke-width:2" d="M87,583 l9,9 0,-4 -9,-9 0,4z" />
<path style="fill:#f93;stroke:#000;stroke-width:2" d="M736,579 l-649,0 9,9 647,0 -7,-9z" />
<path style="fill:#f60;stroke:#000;stroke-width:2" d="M740,526 l-648,0 0,57 648,0 0,-57z" />
<path style="fill:#f60;stroke:#000;stroke-width:2" d="M89,526 l3,0 0,57 -3,-2 0,-55z" />
<path style="fill:#f93;stroke:#000;stroke-width:2" d="M743,530 l-647,0 0,-4 647,0 0,4z" />
<path style="fill:#f93;stroke:#000;stroke-width:2" d="M87,521 l9,9 0,-4 -9,-7 0,2z" />
<path style="fill:#f93;stroke:#000;stroke-width:2" d="M736,519 l-649,0 9,7 647,0 -7,-7z" />
<path style="fill:#f60;stroke:#000;stroke-width:2" d="M860,457 l-16,4 -13,9 -9,13 -4,16 4,18 9,13 7,7 59,-60 -6,-7 -14,-9 -17,-4z" />
<circle style="fill:#f60;stroke:#000;stroke-width:2" cx="866" cy="506" r="42" />
<circle style="fill:#000" cx="864" cy="506" r="11" />
<path style="fill:none;stroke:#000;stroke-width:2" d="M880,475 l-14,-3" />
<path style="fill:none;stroke:#000;stroke-width:2" d="M897,493 l-6,-12" />
<path style="fill:none;stroke:#000;stroke-width:2" d="M897,519 l2,-14" />
<path style="fill:none;stroke:#000;stroke-width:2" d="M880,537 l11,-7" />
<path style="fill:none;stroke:#000;stroke-width:2" d="M853,537 l13,4" />
<path style="fill:none;stroke:#000;stroke-width:2" d="M836,519 l6,11" />
<path style="fill:none;stroke:#000;stroke-width:2" d="M836,493 l-5,12" />
<path style="fill:none;stroke:#000;stroke-width:2" d="M853,475 l-11,6" />
<path style="fill:none;stroke:#000;stroke-width:2" d="M884,488 l-9,-5" />
<path style="fill:none;stroke:#000;stroke-width:2" d="M891,505 l0,-8" />
<path style="fill:none;stroke:#000;stroke-width:2" d="M884,523 l7,-6" />
<path style="fill:none;stroke:#000;stroke-width:2" d="M866,532 l9,-2" />
<path style="fill:none;stroke:#000;stroke-width:2" d="M849,523 l6,7" />
<path style="fill:none;stroke:#000;stroke-width:2" d="M840,505 l2,12" />
<path style="fill:none;stroke:#000;stroke-width:2" d="M849,488 l-7,9" />
<path style="fill:none;stroke:#000;stroke-width:2" d="M866,481 l-11,2" />
<circle style="fill:#f60;stroke:#000;stroke-width:2" cx="866" cy="506" r="11" />
<path style="fill:#e0e0e0;fill-rule:evenodd" d="M734,475 l-58,0 0,46 58,0 0,-46z M725,490 l-40,0 0,18 40,0 0,-18z M149,475 l-57,0 0,46 57,0 0,-46z M140,490 l-39,0 0,18 39,0 0,-18z " />
<path style="fill:none;stroke:#000;stroke-width:2" d="M734,475 l-58,0 0,46 58,0 0,-46" />
<path style="fill:none;stroke:#000;stroke-width:2" d="M725,490 l-40,0 0,18 40,0 0,-18" />
<path style="fill:none;stroke:#000;stroke-width:2" d="M149,475 l-57,0 0,46 57,0 0,-46" />
<path style="fill:none;stroke:#000;stroke-width:2" d="M140,490 l-39,0 0,18 39,0 0,-18" />
<path style="fill:#7f7f7f;stroke:#000;stroke-width:2" d="M143,517 l-14,0 0,6 14,0 0,-6z" />
<path style="fill:#7f7f7f;stroke:#000;stroke-width:2" d="M727,517 l-15,0 0,6 15,0 0,-6z" />
<path style="fill:#7f7f7f;stroke:#000;stroke-width:2" d="M114,517 l-15,0 0,6 15,0 0,-6z" />
<path style="fill:#7f7f7f;stroke:#000;stroke-width:2" d="M696,517 l-13,0 0,6 13,0 0,-6z" />
<path style="fill:#f60;stroke:#000;stroke-width:2" d="M455,235 l-5,0 -2,-4 0,-82 2,-4 5,0 106,0 2,46 -2,44 -106,0z" />
<path style="fill:#f60;stroke:#000;stroke-width:2" d="M422,235 l4,0 0,-4 0,-82 0,-4 -4,0 -109,0 -2,46 2,44 109,0z" />
<path style="fill:#f60;stroke:#000;stroke-width:2" d="M444,245 l0,-109 -7,0 0,109 7,0z" />
<path style="fill:#f60;stroke:#000;stroke-width:2" d="M444,235 l0,-90 4,2 0,84 -4,4z" />
<path style="fill:#f60;stroke:#000;stroke-width:2" d="M432,245 l0,-109 5,0 0,109 -5,0z" />
<path style="fill:#f60;stroke:#000;stroke-width:2" d="M432,235 l0,-90 -6,2 0,84 6,4z" />
<path style="fill:#e07a14;stroke:#000;stroke-width:2" d="M561,140 l2,9 -108,0 -3,0 3,-6 4,-3 102,0z" />
<path style="fill:#e07a14;stroke:#000;stroke-width:2" d="M563,152 l0,6 -111,0 0,-2 3,-2 4,-2 104,0z" />
<path style="fill:#e07a14;stroke:#000;stroke-width:2" d="M313,140 l0,9 109,0 2,0 -5,-6 -2,-3 -104,0z" />
<path style="fill:#e07a14;stroke:#000;stroke-width:2" d="M313,152 l0,6 111,0 0,-2 -2,-2 -5,-2 -104,0z" />
<path style="fill:#bf1400;stroke:#000;stroke-width:2" d="M563,191 l0,-2 -104,0 -9,2 2,0 111,0z" />
<path style="fill:#bf1400;stroke:#000;stroke-width:2" d="M563,198 l0,4 -111,0 0,-2 7,-2 104,0z" />
<path style="fill:#bf1400;stroke:#000;stroke-width:2" d="M563,205 l0,6 -111,0 7,-6 104,0z" />
<path style="fill:#bf1400;stroke:#000;stroke-width:2" d="M563,213 l0,7 -111,0 7,-7 104,0z" />
<path style="fill:#bf1400;stroke:#000;stroke-width:2" d="M563,222 l0,9 -111,0 0,-2 7,-7 104,0z" />
<path style="fill:#bf1400;stroke:#000;stroke-width:2" d="M311,191 l0,-2 106,0 7,2 -113,0z" />
<path style="fill:#bf1400;stroke:#000;stroke-width:2" d="M311,198 l0,4 113,0 0,-2 -7,-2 -106,0z" />
<path style="fill:#bf1400;stroke:#000;stroke-width:2" d="M311,205 l2,6 111,0 -7,-6 -106,0z" />
<path style="fill:#bf1400;stroke:#000;stroke-width:2" d="M313,213 l0,7 111,0 -7,-7 -104,0z" />
<path style="fill:#bf1400;stroke:#000;stroke-width:2" d="M313,222 l0,9 111,0 0,-2 -7,-7 -104,0z" />
<path style="fill:#f93;stroke:#000;stroke-width:2" d="M313,160 l0,7 111,0 0,-2 -7,-5 -104,0z" />
<path style="fill:#f93;stroke:#000;stroke-width:2" d="M313,169 l-2,7 113,0 0,-2 -7,-5 -104,0z" />
<path style="fill:#f93;stroke:#000;stroke-width:2" d="M311,178 l0,7 113,0 0,-3 -7,-4 -106,0z" />
<path style="fill:#f93;stroke:#000;stroke-width:2" d="M563,160 l0,7 -111,0 0,-2 7,-5 104,0z" />
<path style="fill:#f93;stroke:#000;stroke-width:2" d="M563,169 l0,7 -111,0 0,-2 7,-5 104,0z" />
<path style="fill:#f93;stroke:#000;stroke-width:2" d="M563,178 l0,7 -111,0 0,-3 7,-4 104,0z" />
<path style="fill:#f0f0f0;stroke:#000;stroke-width:2" d="M446,240 l0,-2 -2,0 0,2 2,0z" />
<path style="fill:#f0f0f0;stroke:#000;stroke-width:2" d="M446,138 l0,5 -2,0 0,-5 2,0z" />
<path style="fill:#f0f0f0;stroke:#000;stroke-width:2" d="M446,165 l0,2 -2,0 0,-2 2,0z" />
<path style="fill:#f0f0f0;stroke:#000;stroke-width:2" d="M446,191 l0,5 -2,0 0,-5 2,0z" />
<path style="fill:#f0f0f0;stroke:#000;stroke-width:2" d="M446,218 l0,2 -2,0 0,-2 2,0z" />
<path style="fill:#f0f0f0;stroke:#000;stroke-width:2" d="M430,240 l0,-2 2,0 0,2 -2,0z" />
<path style="fill:#f0f0f0;stroke:#000;stroke-width:2" d="M430,138 l0,5 2,0 0,-5 -2,0z" />
<path style="fill:#f0f0f0;stroke:#000;stroke-width:2" d="M430,165 l0,2 2,0 0,-2 -2,0z" />
<path style="fill:#f0f0f0;stroke:#000;stroke-width:2" d="M430,191 l0,5 2,0 0,-5 -2,0z" />
<path style="fill:#f0f0f0;stroke:#000;stroke-width:2" d="M430,218 l0,2 2,0 0,-2 -2,0z" />
<path style="fill:#000;stroke:#000;stroke-width:2" d="M581,220 l0,-62 -2,-13 -5,-5 -13,0 0,98 13,0 5,-7 2,-11z" />
<path style="fill:#000;stroke:#000;stroke-width:2" d="M296,220 l0,-62 2,-13 4,-5 11,0 0,98 -11,0 -4,-7 -2,-11z" />

</svg>
