 

<svg xmlns:agg="http://www.example.com" xmlns="http://www.w3.org/2000/svg" preserveAspectRatio="none" width="0.5789in" height="1.0750in" viewBox="0 0 538 999">

<path style="fill:#8282a1" d="M103,470 l0,27 -64,0 0,-27 64,0z" />
<path style="fill:#8f96b5" d="M103,472 l0,21 -64,0 0,-21 64,0z" />
<path style="fill:#9baac9" d="M103,472 l0,16 -64,0 0,-16 64,0z" />
<path style="fill:#aac1e0" d="M103,472 l0,11 -64,0 0,-11 64,0z" />
<path style="fill:#b8d6f5" d="M103,475 l0,4 -64,0 0,-4 64,0z" />
<path style="fill:none;stroke:#000;stroke-width:2" d="M103,470 l0,27 -64,0 0,-27 64,0" />
<path style="fill:#8282a1" d="M68,441 l0,85 6,0 0,-85 -6,0z" />
<path style="fill:#8f96b5" d="M68,446 l0,64 6,0 0,-64 -6,0z" />
<path style="fill:#9baac9" d="M68,448 l0,47 6,0 0,-47 -6,0z" />
<path style="fill:#aac1e0" d="M68,450 l0,29 6,0 0,-29 -6,0z" />
<path style="fill:#b8d6f5" d="M68,452 l0,14 6,0 0,-14 -6,0z" />
<path style="fill:none;stroke:#000;stroke-width:2" d="M68,441 l0,85 6,0 0,-85 -6,0" />
<path style="fill:#8282a1" d="M99,112 l0,20 -49,0 0,-20 49,0z" />
<path style="fill:#8f96b5" d="M99,114 l0,14 -49,0 0,-14 49,0z" />
<path style="fill:#9baac9" d="M99,114 l0,12 -49,0 0,-12 49,0z" />
<path style="fill:#aac1e0" d="M99,114 l0,7 -49,0 0,-7 49,0z" />
<path style="fill:#b8d6f5" d="M99,114 l0,5 -49,0 0,-5 49,0z" />
<path style="fill:none;stroke:#000;stroke-width:2" d="M99,112 l0,20 -49,0 0,-20 49,0" />
<path style="fill:#e0e0e0;stroke:#000;stroke-width:2" d="M361,165 l-155,0 0,18 155,0 0,-18z" />
<path style="fill:#e0e0e0;stroke:#000;stroke-width:2" d="M361,652 l-173,0 0,18 173,0 0,-18z" />
<path style="fill:#8282a1" d="M281,81 l-197,0 0,460 73,60 51,0 73,-60 0,-460z" />
<path style="fill:#8a8cab" d="M279,81 l-178,0 0,460 60,60 45,0 73,-60 0,-460z" />
<path style="fill:#8f96b5" d="M277,81 l-158,0 0,460 44,60 41,0 73,-60 0,-460z" />
<path style="fill:#96a0bf" d="M272,81 l-135,0 0,460 29,60 35,0 71,-60 0,-460z" />
<path style="fill:#9baac9" d="M270,81 l-115,0 0,460 13,60 31,0 71,-60 0,-460z" />
<path style="fill:#a6b7d6" d="M268,81 l-96,0 0,460 0,60 25,0 71,-60 0,-460z" />
<path style="fill:#aac1e0" d="M265,81 l-75,0 0,460 -15,60 19,0 71,-60 0,-460z" />
<path style="fill:#b3cceb" d="M261,81 l-53,0 0,460 -31,60 15,0 69,-60 0,-460z" />
<path style="fill:#b8d6f5" d="M259,81 l-31,0 0,460 -47,60 9,0 69,-60 0,-460z" />
<path style="fill:#bfe0ff" d="M257,81 l-11,0 0,460 -62,60 4,0 69,-60 0,-460z" />
<path style="fill:none;stroke:#000;stroke-width:2" d="M281,81 l-197,0 0,460 73,60 51,0 73,-60 0,-460" />
<path style="fill:#66f;stroke:#000;stroke-width:2" d="M81,541 l9,3 22,2 31,2 38,0 40,0 31,-2 23,-2 9,-3 0,-9 -9,3 -23,2 -31,2 -40,0 -38,0 -31,-2 -22,-2 -9,-3 0,9z" />
<path style="fill:#e5e5e5;stroke:#000;stroke-width:2" d="M81,183 l9,2 22,0 31,3 38,0 40,0 31,-3 23,0 9,-2 0,-20 -9,2 -23,3 -31,0 -40,0 -38,0 -31,0 -22,-3 -9,-2 0,20z" />
<ellipse style="fill:#70707f;stroke:#000;stroke-width:2" cx="181" cy="81" rx="100" ry="7" />
<path style="fill:#ccc;stroke:#000;stroke-width:2" d="M510,933 l-396,0 0,37 396,0 0,-37z" />
<path style="fill:#ccc;stroke:#000;stroke-width:2" d="M28,846 l86,87 0,37 -86,-86 0,-38z" />
<path style="fill:#e0e0e0;stroke:#000;stroke-width:2" d="M510,933 l-396,0 -86,-87 396,0 86,87z" />
<path style="fill:#8282a1" d="M406,892 l-51,0 0,-862 51,0 0,862z" />
<path style="fill:#8a8cab" d="M406,892 l-47,0 0,-862 47,0 0,862z" />
<path style="fill:#8f96b5" d="M404,892 l-41,0 0,-862 41,0 0,862z" />
<path style="fill:#96a0bf" d="M404,892 l-36,0 0,-862 36,0 0,862z" />
<path style="fill:#9baac9" d="M404,892 l-31,0 0,-862 31,0 0,862z" />
<path style="fill:#a6b7d6" d="M402,892 l-25,0 0,-862 25,0 0,862z" />
<path style="fill:#aac1e0" d="M402,892 l-19,0 0,-862 19,0 0,862z" />
<path style="fill:#b3cceb" d="M402,892 l-14,0 0,-862 14,0 0,862z" />
<path style="fill:#b8d6f5" d="M399,892 l-7,0 0,-862 7,0 0,862z" />
<path style="fill:#bfe0ff" d="M399,892 l-2,0 0,-862 2,0 0,862z" />
<path style="fill:none;stroke:#000;stroke-width:2" d="M406,892 l-51,0 0,-862 51,0 0,862" />
<ellipse style="fill:#7f7f7f;stroke:#000;stroke-width:2" cx="381" cy="891" rx="26" ry="3" />
<ellipse style="fill:#70707f;stroke:#000;stroke-width:2" cx="380" cy="30" rx="25" ry="2" />
<path style="fill:#8282a1" d="M199,717 l-2,-2 -9,-7 -11,-9 -9,-9 -9,-9 -4,-4 0,-76 53,0 0,116 -9,0z" />
<path style="fill:#8a8cab" d="M199,717 l-2,-2 -9,-7 -11,-9 -9,-9 -7,-9 0,-80 45,0 0,116 -7,0z" />
<path style="fill:#8f96b5" d="M199,717 l-2,-2 -9,-7 -11,-9 -9,-9 -2,-4 0,-85 40,0 0,116 -7,0z" />
<path style="fill:#96a0bf" d="M199,717 l-2,-2 -9,-7 -11,-9 -7,-9 0,-89 36,0 0,116 -7,0z" />
<path style="fill:#9baac9" d="M199,717 l-2,-2 -9,-7 -11,-9 -2,-2 0,-96 29,0 0,116 -5,0z" />
<path style="fill:#a6b7d6" d="M199,717 l-2,-2 -9,-7 -9,-9 0,-98 25,0 0,116 -5,0z" />
<path style="fill:#aac1e0" d="M199,717 l-2,-2 -9,-7 -4,-5 0,-102 20,0 0,116 -5,0z" />
<path style="fill:#b3cceb" d="M199,717 l-2,-2 -9,-7 0,-107 13,0 0,116 -2,0z" />
<path style="fill:#b8d6f5" d="M199,717 l-2,-2 -5,-2 0,-112 9,0 0,116 -2,0z" />
<path style="fill:#bfe0ff" d="M199,717 l2,0 0,-116 -2,0 0,116z" />
<path style="fill:none;stroke:#000;stroke-width:2" d="M199,717 l-2,-2 -9,-7 -11,-9 -9,-9 -9,-9 -4,-4 0,-76 53,0 0,116 -9,0" />
<ellipse style="fill:#000;stroke:#000;stroke-width:2" cx="182" cy="601" rx="27" ry="2" />
<path style="fill:#e5e5e5;stroke:#000;stroke-width:2" d="M355,181 l2,2 4,0 9,0 11,0 9,0 9,0 7,0 0,-2 0,-18 0,2 -7,0 -9,0 -9,0 -11,0 -9,0 -4,0 -2,-2 0,18z" />
<path style="fill:#e5e5e5;stroke:#000;stroke-width:2" d="M355,670 l2,0 4,0 9,2 11,0 9,0 9,-2 7,0 0,-18 -7,0 -9,0 -9,0 -11,0 -9,0 -4,0 -2,0 0,18z" />
<path style="fill:#e5e5e5;stroke:#000;stroke-width:2" d="M155,670 l2,0 6,0 9,2 9,0 11,0 9,-2 5,0 2,0 0,-18 -2,0 -5,0 -9,0 -11,0 -9,0 -9,0 -6,0 -2,0 0,18z" />
<path style="fill:#8282a1" d="M237,681 l-89,0 0,-7 89,0 0,7z" />
<path style="fill:#8f96b5" d="M235,681 l-69,0 0,-7 69,0 0,7z" />
<path style="fill:#9baac9" d="M232,681 l-51,0 0,-7 51,0 0,7z" />
<path style="fill:#aac1e0" d="M230,681 l-33,0 0,-7 33,0 0,7z" />
<path style="fill:#b8d6f5" d="M226,681 l-14,0 0,-7 14,0 0,7z" />
<path style="fill:none;stroke:#000;stroke-width:2" d="M237,681 l-89,0 0,-7 89,0 0,7" />
<path style="fill:#a0c1e0;stroke:#000;stroke-width:2" d="M132,681 l0,3 5,6 6,2 5,-4 7,4 37,60 5,-4 -40,-60 -5,-7 -4,-7 -7,-2 -33,-31 -11,-4 -7,2 -4,5 -5,13 7,13 4,2 9,2 2,0 5,-2 24,9z" />
<path style="fill:#b2b2b2;stroke:#000;stroke-width:2" d="M137,681 l2,-2 2,-2 4,2 3,2 -3,5 -2,0 -4,0 -2,-5z" />

</svg>
