 

<svg xmlns:agg="http://www.example.com" xmlns="http://www.w3.org/2000/svg" preserveAspectRatio="none" width="1.6083in" height="0.9611in" viewBox="0 0 999 597">

<path style="fill:#ccc;stroke:#000;stroke-width:2" d="M888,339 l-74,0 0,38 74,0 0,-38z" />
<path style="fill:#ccc;stroke:#000;stroke-width:2" d="M872,165 l-43,0 0,174 43,0 0,-174z" />
<path style="fill:#f2f2f2" d="M784,195 l-417,0 0,202 417,0 0,-202z" />
<path style="fill:#f2f2f2" d="M28,195 l330,0 0,202 -330,0 0,-202z" />
<path style="fill:#ccc" d="M514,195 l-122,0 0,202 122,0 0,-202z" />
<path style="fill:#b2b2b2" d="M490,373 l-74,0 0,24 74,0 0,-24z" />
<path style="fill:#b2b2b2" d="M490,254 l-74,0 0,98 74,0 0,-98z" />
<path style="fill:#b2b2b2" d="M490,195 l-74,0 0,44 74,0 0,-44z" />
<path style="fill:#b2b2b2" d="M401,299 l-24,0 0,98 24,0 0,-98z" />
<path style="fill:#ccc" d="M637,343 l-123,0 0,54 123,0 0,-54z" />
<path style="fill:#b2b2b2" d="M529,299 l-24,0 0,98 24,0 0,-98z" />
<path style="fill:#b2b2b2" d="M618,358 l-76,0 0,24 76,0 0,-24z" />
<path style="fill:#ccc" d="M759,195 l-122,0 0,202 122,0 0,-202z" />
<path style="fill:#b2b2b2" d="M735,367 l-74,0 0,30 74,0 0,-30z" />
<path style="fill:#b2b2b2" d="M735,254 l-74,0 0,98 74,0 0,-98z" />
<path style="fill:#b2b2b2" d="M735,195 l-74,0 0,44 74,0 0,-44z" />
<path style="fill:#b2b2b2" d="M382,324 l-198,0 0,73 198,0 0,-73z" />
<path style="fill:#7f7f7f" d="M367,324 l-9,0 0,73 9,0 0,-73z" />
<path style="fill:#999" d="M269,312 l-11,0 0,74 11,0 0,-74z" />
<path style="fill:#999" d="M209,312 l-10,0 0,74 10,0 0,-74z" />
<path style="fill:#999" d="M258,318 l-49,0 0,25 49,0 0,-25z" />
<path style="fill:#ccc" d="M175,312 l-138,0 0,85 138,0 0,-85z" />
<path style="fill:#999" d="M175,312 l-117,0 0,-34 117,0 0,34z" />
<path style="fill:#b2b2b2" d="M184,278 l-136,0 0,-83 136,0 0,83z" />
<path style="fill:#ccc" d="M184,177 l-136,0 0,18 136,0 0,-18z" />
<path style="fill:#ccc;stroke:#000;stroke-width:2" d="M955,377 l-171,0 0,20 171,0 0,-20z" />
<path style="fill:#b2b2b2" d="M735,377 l49,0 0,20 -49,0 0,-20z" />
<path style="fill:#000" d="M970,544 l-942,0 0,-5 942,0 0,5z" />
<path style="fill:#ccc" d="M970,397 l-942,0 0,142 942,0 0,-142z" />
<path style="fill:#c7c7c7" d="M970,473 l-116,-34 0,60 116,0 0,-26z" />
<path style="fill:#c2c2c2" d="M970,480 l-116,-34 0,53 116,0 0,-19z" />
<path style="fill:#bdbdbd" d="M970,490 l-116,-34 0,83 116,0 0,-49z" />
<path style="fill:#c7c7c7" d="M854,499 l-238,-56 0,96 238,0 0,-40z" />
<path style="fill:#c2c2c2" d="M854,505 l-238,-57 0,91 238,0 0,-34z" />
<path style="fill:#bdbdbd" d="M854,514 l-238,-58 0,83 238,0 0,-25z" />
<path style="fill:#c7c7c7" d="M618,499 l-238,-56 0,96 238,0 0,-40z" />
<path style="fill:#c2c2c2" d="M618,505 l-238,-57 0,91 238,0 0,-34z" />
<path style="fill:#bdbdbd" d="M618,514 l-238,-58 0,83 238,0 0,-25z" />
<path style="fill:#c7c7c7" d="M382,499 l-237,-56 0,96 237,0 0,-40z" />
<path style="fill:#c2c2c2" d="M382,505 l-237,-57 0,91 237,0 0,-34z" />
<path style="fill:#bdbdbd" d="M382,514 l-237,-58 0,83 237,0 0,-25z" />
<path style="fill:#c7c7c7" d="M146,473 l-118,-34 0,60 118,0 0,-26z" />
<path style="fill:#c2c2c2" d="M146,480 l-118,-34 0,53 118,0 0,-19z" />
<path style="fill:#bdbdbd" d="M146,490 l-118,-34 0,83 118,0 0,-49z" />
<path style="fill:none;stroke:#7f7f7f;stroke-width:2" d="M854,539 l0,-138" />
<path style="fill:none;stroke:#e5e5e5;stroke-width:2" d="M848,539 l0,-138" />
<path style="fill:none;stroke:#7f7f7f;stroke-width:2" d="M616,539 l0,-138" />
<path style="fill:none;stroke:#e5e5e5;stroke-width:2" d="M612,539 l0,-138" />
<path style="fill:none;stroke:#7f7f7f;stroke-width:2" d="M380,539 l0,-138" />
<path style="fill:none;stroke:#e5e5e5;stroke-width:2" d="M377,539 l0,-138" />
<path style="fill:none;stroke:#7f7f7f;stroke-width:2" d="M145,539 l0,-138" />
<path style="fill:none;stroke:#e5e5e5;stroke-width:2" d="M141,539 l0,-138" />
<path style="fill:#999" d="M916,441 l-4,0 0,20 4,0 0,-20z" />
<path style="fill:#999" d="M86,441 l-4,0 0,20 4,0 0,-20z" />
<path style="fill:#999" d="M805,441 l-6,0 0,20 6,0 0,-20z" />
<path style="fill:#999" d="M671,441 l-4,0 0,20 4,0 0,-20z" />
<path style="fill:#999" d="M569,441 l-6,0 0,20 6,0 0,-20z" />
<path style="fill:#999" d="M435,441 l-4,0 0,20 4,0 0,-20z" />
<path style="fill:#999" d="M333,441 l-6,0 0,20 6,0 0,-20z" />
<path style="fill:#999" d="M199,441 l-4,0 0,20 4,0 0,-20z" />
<path style="fill:none;stroke:#7f7f7f;stroke-width:2" d="M970,401 l-942,0" />
<path style="fill:none;stroke:#000;stroke-width:2" d="M970,397 l-942,0 0,142 942,0 0,-142" />
<path style="fill:#999;stroke:#000;stroke-width:2" d="M961,539 l-9,0 0,30 9,0 0,-30z" />
<path style="fill:#999;stroke:#000;stroke-width:2" d="M846,539 l-9,0 0,30 9,0 0,-30z" />
<path style="fill:#999;stroke:#000;stroke-width:2" d="M733,539 l-12,0 0,30 12,0 0,-30z" />
<path style="fill:#999;stroke:#000;stroke-width:2" d="M618,539 l-10,0 0,30 10,0 0,-30z" />
<path style="fill:#999;stroke:#000;stroke-width:2" d="M505,539 l-12,0 0,30 12,0 0,-30z" />
<path style="fill:#999;stroke:#000;stroke-width:2" d="M390,539 l-10,0 0,30 10,0 0,-30z" />
<path style="fill:#999;stroke:#000;stroke-width:2" d="M277,539 l-12,0 0,30 12,0 0,-30z" />
<path style="fill:#999;stroke:#000;stroke-width:2" d="M161,539 l-9,0 0,30 9,0 0,-30z" />
<path style="fill:#999;stroke:#000;stroke-width:2" d="M48,539 l-11,0 0,30 11,0 0,-30z" />
<path style="fill:#7f7f7f;stroke:#000;stroke-width:2" d="M878,318 l-15,0 0,79 15,0 0,-79z" />
<path style="fill:#ccc;stroke:#000;stroke-width:2" d="M906,250 l-73,0 0,68 73,0 0,-68z" />
<path style="fill:#e5e5e5" d="M897,260 l-55,0 0,34 55,0 0,-34z" />
<path style="fill:#98b2e5" d="M891,263 l-43,0 0,25 43,0 0,-25z" />
<path style="fill:#b2b2b2;stroke:#000;stroke-width:2" d="M759,195 l0,-43 -122,0 0,43 24,0 0,-15 74,0 0,15 24,0z" />
<path style="fill:#b2b2b2;stroke:#000;stroke-width:2" d="M514,195 l0,-43 -122,0 0,43 24,0 0,-15 74,0 0,15 24,0z" />
<path style="fill:#999" d="M704,195 l-15,0 0,44 15,0 0,-44z" />
<path style="fill:#999" d="M704,254 l-15,0 0,79 15,0 0,-79z" />
<path style="fill:#999" d="M735,352 l-74,0 0,-19 74,0 0,19z" />
<path style="fill:#999" d="M460,195 l-16,0 0,44 16,0 0,-44z" />
<path style="fill:#999" d="M460,254 l-16,0 0,79 16,0 0,-79z" />
<path style="fill:#999" d="M490,352 l-74,0 0,-19 74,0 0,19z" />
<path style="fill:#666;stroke:#000;stroke-width:2" d="M704,195 l-15,0 0,-15 15,0 0,15z" />
<path style="fill:#666;stroke:#000;stroke-width:2" d="M460,195 l-16,0 0,-15 16,0 0,15z" />
<path style="fill:#999" d="M563,244 l-21,0 0,99 21,0 0,-99z" />
<path style="fill:#b2b2b2" d="M603,195 l-12,0 0,148 12,0 0,-148z" />
<path style="fill:#666" d="M603,195 l-12,0 0,-43 12,0 0,43z" />
<path style="fill:none;stroke:#ccc;stroke-width:2" d="M784,195 l-417,0 0,202 417,0 0,-202" />
<path style="fill:#ccc" d="M646,64 l-141,0 0,88 141,0 0,-88z" />
<path style="fill:#c7c7c7" d="M646,126 l-141,-36 0,62 141,0 0,-26z" />
<path style="fill:#c2c2c2" d="M646,129 l-141,-37 0,60 141,0 0,-23z" />
<path style="fill:#bdbdbd" d="M646,135 l-141,-38 0,55 141,0 0,-17z" />
<path style="fill:none;stroke:#000;stroke-width:2" d="M646,64 l-141,0 0,88 141,0 0,-88" />
<path style="fill:#666;stroke:#000;stroke-width:2" d="M793,348 l21,0 0,29 -21,0 0,-29z" />
<path style="fill:#666" d="M120,177 l2,-14 9,0 0,-2 -24,0 0,2 9,0 2,14 2,0z" />
<path style="fill:#c93" d="M129,161 l-3,-16 -15,0 -2,16 20,0z" />
<path style="fill:#ff0" d="M124,161 l-2,-16 -8,0 0,16 10,0z" />
<path style="fill:none;stroke:#000;stroke-width:2" d="M184,195 l0,-18 -137,0 0,18" />
<path style="fill:none;stroke:#ccc;stroke-width:2" d="M28,195 l330,0 0,202 -330,0 0,-202" />
<path style="fill:#ccc;stroke:#000;stroke-width:2" d="M744,28 l-92,0 0,15 92,0 0,-15z" />
<path style="fill:#ccc" d="M738,43 l-83,0 0,69 25,25 11,0 -2,15 15,0 0,-15 10,0 24,-25 0,-69z" />
<path style="fill:#b2b2b2" d="M738,43 l-83,0 0,15 83,0 0,-15z" />
<path style="fill:none;stroke:#000;stroke-width:2" d="M738,43 l-83,0 0,69 25,25 11,0 -2,15 15,0 0,-15 10,0 24,-25 0,-69" />
<path style="fill:#ccc;stroke:#000;stroke-width:2" d="M499,28 l-92,0 0,15 92,0 0,-15z" />
<path style="fill:#ccc" d="M493,43 l-83,0 0,69 25,25 9,0 0,15 16,0 0,-15 9,0 24,-25 0,-69z" />
<path style="fill:#b2b2b2" d="M493,43 l-83,0 0,15 83,0 0,-15z" />
<path style="fill:none;stroke:#000;stroke-width:2" d="M493,43 l-83,0 0,69 25,25 9,0 0,15 16,0 0,-15 9,0 24,-25 0,-69" />
<path style="fill:#7f7f7f;stroke:#000;stroke-width:2" d="M655,52 l-37,0 0,12 37,0 0,-12z" />
<path style="fill:#7f7f7f;stroke:#000;stroke-width:2" d="M533,52 l-40,0 0,12 40,0 0,-12z" />
<path style="fill:#000" d="M708,69 l-11,-9 -9,11 9,9 11,-11z" />
<path style="fill:#000" d="M463,69 l-11,-9 -9,11 9,9 11,-11z" />

</svg>
