 

<svg xmlns:agg="http://www.example.com" xmlns="http://www.w3.org/2000/svg" preserveAspectRatio="none" width="0.4369in" height="1.0750in" viewBox="0 0 406 999">

<path style="fill:#000" d="M329,94 l-253,0 0,858 253,0 0,-858z" />
<path style="fill:#212121" d="M323,94 l-218,0 0,858 218,0 0,-858z" />
<path style="fill:#454545" d="M317,94 l-184,0 0,858 184,0 0,-858z" />
<path style="fill:#666" d="M311,94 l-150,0 0,858 150,0 0,-858z" />
<path style="fill:#8a8a8a" d="M305,94 l-115,0 0,858 115,0 0,-858z" />
<path style="fill:#ababab" d="M299,94 l-81,0 0,858 81,0 0,-858z" />
<path style="fill:#cfcfcf" d="M293,94 l-47,0 0,858 47,0 0,-858z" />
<path style="fill:#f0f0f0" d="M287,94 l-12,0 0,858 12,0 0,-858z" />
<path style="fill:none;stroke:#000;stroke-width:2" d="M329,94 l-253,0 0,858 253,0 0,-858" />
<path style="fill:#b2b2b2;stroke:#000;stroke-width:2" d="M366,107 l-14,0 0,850 14,0 0,-850z" />
<path style="fill:#fff" d="M359,108 l5,0 0,846 -5,0 0,-846z" />
<path style="fill:#b2b2b2" d="M301,248 l-191,0 0,81 191,0 0,-81z" />
<path style="fill:#bababa" d="M297,248 l-164,0 0,81 164,0 0,-81z" />
<path style="fill:#c4c4c4" d="M293,248 l-140,0 0,81 140,0 0,-81z" />
<path style="fill:#ccc" d="M291,248 l-115,0 0,81 115,0 0,-81z" />
<path style="fill:#d6d6d6" d="M287,248 l-89,0 0,81 89,0 0,-81z" />
<path style="fill:#dedede" d="M283,248 l-63,0 0,81 63,0 0,-81z" />
<path style="fill:#e8e8e8" d="M281,248 l-39,0 0,81 39,0 0,-81z" />
<path style="fill:#f0f0f0" d="M276,248 l-11,0 0,81 11,0 0,-81z" />
<path style="fill:none;stroke:#000;stroke-width:2" d="M301,248 l-191,0 0,81 191,0 0,-81" />
<path style="fill:#b2b2b2;stroke:#000;stroke-width:2" d="M54,107 l-14,0 0,850 14,0 0,-850z" />
<path style="fill:#fff" d="M48,108 l4,0 0,846 -4,0 0,-846z" />
<path style="fill:#b2b2b2;stroke:#000;stroke-width:2" d="M208,107 l-15,0 0,850 15,0 0,-850z" />
<path style="fill:#fff" d="M202,108 l4,0 0,846 -4,0 0,-846z" />
<path style="fill:#000" d="M378,76 l-351,0 0,53 351,0 0,-53z" />
<path style="fill:#212121" d="M369,76 l-303,0 0,53 303,0 0,-53z" />
<path style="fill:#454545" d="M362,76 l-257,0 0,53 257,0 0,-53z" />
<path style="fill:#666" d="M352,76 l-207,0 0,53 207,0 0,-53z" />
<path style="fill:#8a8a8a" d="M343,76 l-160,0 0,53 160,0 0,-53z" />
<path style="fill:#ababab" d="M335,76 l-111,0 0,53 111,0 0,-53z" />
<path style="fill:#cfcfcf" d="M327,76 l-65,0 0,53 65,0 0,-53z" />
<path style="fill:#f0f0f0" d="M319,76 l-16,0 0,53 16,0 0,-53z" />
<path style="fill:none;stroke:#000;stroke-width:2" d="M378,76 l-351,0 0,53 351,0 0,-53" />
<path style="fill:#000" d="M315,76 l-77,0 0,-49 77,0 0,49z" />
<path style="fill:#212121" d="M313,76 l-67,0 0,-49 67,0 0,49z" />
<path style="fill:#454545" d="M311,76 l-57,0 0,-49 57,0 0,49z" />
<path style="fill:#666" d="M309,76 l-44,0 0,-49 44,0 0,49z" />
<path style="fill:#8a8a8a" d="M307,76 l-34,0 0,-49 34,0 0,49z" />
<path style="fill:#ababab" d="M305,76 l-24,0 0,-49 24,0 0,49z" />
<path style="fill:#cfcfcf" d="M305,76 l-14,0 0,-49 14,0 0,49z" />
<path style="fill:#f0f0f0" d="M303,76 l-4,0 0,-49 4,0 0,49z" />
<path style="fill:none;stroke:#000;stroke-width:2" d="M315,76 l-77,0 0,-49 77,0 0,49" />
<path style="fill:#000" d="M378,918 l-351,0 0,53 351,0 0,-53z" />
<path style="fill:#212121" d="M369,918 l-303,0 0,53 303,0 0,-53z" />
<path style="fill:#454545" d="M362,918 l-257,0 0,53 257,0 0,-53z" />
<path style="fill:#666" d="M352,918 l-207,0 0,53 207,0 0,-53z" />
<path style="fill:#8a8a8a" d="M343,918 l-160,0 0,53 160,0 0,-53z" />
<path style="fill:#ababab" d="M335,918 l-111,0 0,53 111,0 0,-53z" />
<path style="fill:#cfcfcf" d="M327,918 l-65,0 0,53 65,0 0,-53z" />
<path style="fill:#f0f0f0" d="M319,918 l-16,0 0,53 16,0 0,-53z" />
<path style="fill:none;stroke:#000;stroke-width:2" d="M378,918 l-351,0 0,53 351,0 0,-53" />
<path style="fill:#000" d="M378,477 l-351,0 0,50 351,0 0,-50z" />
<path style="fill:#212121" d="M369,477 l-303,0 0,50 303,0 0,-50z" />
<path style="fill:#454545" d="M362,477 l-257,0 0,50 257,0 0,-50z" />
<path style="fill:#666" d="M352,477 l-207,0 0,50 207,0 0,-50z" />
<path style="fill:#8a8a8a" d="M343,477 l-160,0 0,50 160,0 0,-50z" />
<path style="fill:#ababab" d="M335,477 l-111,0 0,50 111,0 0,-50z" />
<path style="fill:#cfcfcf" d="M327,477 l-65,0 0,50 65,0 0,-50z" />
<path style="fill:#f0f0f0" d="M319,477 l-16,0 0,50 16,0 0,-50z" />
<path style="fill:none;stroke:#000;stroke-width:2" d="M378,477 l-351,0 0,50 351,0 0,-50" />

</svg>
