 

<svg xmlns:agg="http://www.example.com" xmlns="http://www.w3.org/2000/svg" preserveAspectRatio="none" width="1.0750in" height="1.0750in" viewBox="0 0 998 998">

<path style="fill:#ccc" d="M28,380 l235,0 0,198 -235,0 0,-198z" />
<path style="fill:#c7c7c7" d="M28,520 l235,-81 0,139 -235,0 0,-58z" />
<path style="fill:#c2c2c2" d="M28,529 l235,-83 0,132 -235,0 0,-49z" />
<path style="fill:#bdbdbd" d="M28,540 l235,-81 0,119 -235,0 0,-38z" />
<path style="fill:none;stroke:#7f7f7f;stroke-width:2" d="M135,380 l0,168" />
<path style="fill:none;stroke:#fff;stroke-width:2" d="M145,380 l0,168" />
<path style="fill:none;stroke:#000;stroke-width:2" d="M28,380 l235,0 0,198 -235,0 0,-198" />
<path style="fill:#4c4c4c" d="M77,567 l354,0 0,226 -354,0 0,-226z" />
<path style="fill:#99f" d="M37,814 l924,0 0,156 -924,0 0,-156z" />
<path style="fill:#66c" d="M410,970 l0,-79 -235,0 0,79 -10,0 0,-98 255,0 0,98 -10,0z" />
<path style="fill:none;stroke:#000;stroke-width:2" d="M165,970 l0,-98 255,0 0,98" />
<path style="fill:#f2f2f2" d="M37,539 l40,0 0,254 352,0 0,-264 287,-2 0,12 245,0 9,226 -9,28 0,21 -924,0 0,-21 -9,-28 9,-226z" />
<path style="fill:#8585eb" d="M175,891 l235,0 0,79 -235,0 0,-79z" />
<path style="fill:none;stroke:#000;stroke-width:2" d="M37,814 l924,0 0,156 -924,0 0,-156" />
<path style="fill:#b2b2b2" d="M28,765 l49,0 0,28 -40,0 -9,-28z" />
<path style="fill:#b2b2b2" d="M970,765 l-9,28 -532,0 0,-28 541,0z" />
<path style="fill:#b2b2b2" d="M86,567 l334,0 0,226 -334,0 0,-226z" />
<path style="fill:#ccc;stroke:#000;stroke-width:2" d="M77,548 l352,0 0,19 -352,0 0,-19z" />
<path style="fill:#ededed" d="M725,708 l236,-83 9,140 -245,0 0,-57z" />
<path style="fill:#ededed" d="M429,695 l287,-98 9,168 -296,0 0,-70z" />
<path style="fill:#e8e8e8" d="M725,716 l236,-81 9,130 -245,0 0,-49z" />
<path style="fill:#e8e8e8" d="M429,706 l287,-100 9,159 -296,0 0,-59z" />
<path style="fill:#e3e3e3" d="M725,727 l236,-81 9,119 -245,0 0,-38z" />
<path style="fill:#e3e3e3" d="M429,720 l287,-98 9,143 -296,0 0,-45z" />
<path style="fill:none;stroke:#7f7f7f;stroke-width:2" d="M77,802 l874,0" />
<path style="fill:none;stroke:#7f7f7f;stroke-width:2" d="M716,539 l9,226 -9,28 0,9" />
<path style="fill:none;stroke:#000;stroke-width:2" d="M37,539 l40,0 0,254 352,0 0,-264 287,-2 0,12 245,0 9,226 -9,28 0,21 -924,0 0,-21 -9,-28 9,-226" />
<path style="fill:#99f" d="M263,28 l157,0 0,520 -157,0 0,-520z" />
<path style="fill:#9494fa" d="M263,326 l157,-63 0,285 -157,0 0,-222z" />
<path style="fill:#8f8ff5" d="M263,331 l157,-62 0,279 -157,0 0,-217z" />
<path style="fill:#8a8af0" d="M263,341 l157,-63 0,270 -157,0 0,-207z" />
<path style="fill:none;stroke:#000;stroke-width:2" d="M263,28 l157,0 0,520 -157,0 0,-520" />
<path style="fill:#4c4c4c" d="M145,714 l216,0 0,60 -9,0 0,19 -196,0 0,-19 -11,0 0,-60z" />
<path style="fill:#5e5e5e" d="M158,714 l192,0 0,58 -9,0 0,21 -174,0 0,-21 -9,0 0,-58z" />
<path style="fill:#737373" d="M171,714 l166,0 0,58 -8,0 0,21 -150,0 0,-21 -8,0 0,-58z" />
<path style="fill:#858585" d="M182,714 l144,0 0,58 -8,0 0,21 -128,0 0,-21 -8,0 0,-58z" />
<path style="fill:#999" d="M196,714 l116,0 0,58 -5,0 0,21 -108,0 0,-21 -3,0 0,-58z" />
<path style="fill:#ababab" d="M207,714 l94,0 0,58 -6,0 0,21 -84,0 0,-21 -4,0 0,-58z" />
<path style="fill:#bfbfbf" d="M220,714 l68,0 0,58 -4,0 0,21 -62,0 0,-21 -2,0 0,-58z" />
<path style="fill:#d1d1d1" d="M231,714 l46,0 0,58 -4,0 0,21 -40,0 0,-21 -2,0 0,-58z" />
<path style="fill:#e5e5e5" d="M245,714 l18,0 0,60 0,19 -18,0 0,-19 0,-60z" />
<path style="fill:none;stroke:#000;stroke-width:2" d="M145,714 l216,0 0,60 -9,0 0,19 -196,0 0,-19 -11,0 0,-60" />
<path style="fill:none;stroke:#7f7f7f;stroke-width:2" d="M165,774 l178,0" />
<path style="fill:#8585eb" d="M67,882 l68,0 0,79 -68,0 0,-79z" />
<path style="fill:#000" d="M92,927 l34,0 0,28 -34,0 0,-28z" />
<path style="fill:#000" d="M96,906 l20,0 0,19 -20,0 0,-19z" />
<path style="fill:#66c" d="M81,906 l11,0 0,49 -11,0 0,-49z" />
<path style="fill:#fff;stroke:#000;stroke-width:2" d="M81,906 l11,0 0,-9 -11,0 0,9z" />
<path style="fill:#339" d="M67,882 l68,0 0,79 -4,-6 0,-68 -54,0 0,68 -10,6 0,-79z" />
<path style="fill:none;stroke:#000;stroke-width:2" d="M67,882 l68,0 0,79 -68,0 0,-79" />
<path style="fill:#333" d="M735,578 l79,0 0,157 -79,0 0,-157z" />
<path style="fill:#333" d="M578,578 l77,0 0,157 -77,0 0,-157z" />
<path style="fill:#ccc" d="M499,578 l79,0 0,157 -79,0 0,-157z" />
<path style="fill:none;stroke:#000;stroke-width:2" d="M499,735 l0,-157 156,0" />
<path style="fill:none;stroke:#fff;stroke-width:2" d="M655,578 l0,157 -156,0" />
<path style="fill:#b2b2ff;stroke:#000;stroke-width:2" d="M514,955 l49,0 0,15 -49,0 0,-15z" />
<path style="fill:#b2b2ff;stroke:#000;stroke-width:2" d="M524,789 l30,0 0,166 -30,0 0,-166z" />
<path style="fill:#b2b2ff;stroke:#000;stroke-width:2" d="M514,774 l49,0 0,15 -49,0 0,-15z" />
<path style="fill:#ccf;stroke:#000;stroke-width:2" d="M603,616 l9,6 0,122 -9,6 0,-134z" />
<path style="fill:#b2b2ff" d="M518,744 l39,0 0,30 -39,0 0,-30z" />
<path style="fill:#c7c7ff" d="M524,744 l30,0 0,30 -30,0 0,-30z" />
<path style="fill:#dedeff" d="M529,744 l19,0 0,30 -19,0 0,-30z" />
<path style="fill:#f2f2ff" d="M533,744 l9,0 0,30 -9,0 0,-30z" />
<path style="fill:none;stroke:#000;stroke-width:2" d="M518,744 l39,0 0,30 -39,0 0,-30" />
<path style="fill:#e5e5e5;stroke:#000;stroke-width:2" d="M505,744 l0,-117 98,-11 0,134 -98,-6z" />
<path style="fill:#7f7f7f" d="M508,631 l0,40 89,0 0,-49 -89,9z" />
<path style="fill:#333" d="M514,637 l0,30 34,0 0,-34 -34,4z" />
<path style="fill:#000" d="M557,676 l6,0 0,64 -6,0 0,-64z" />
<path style="fill:#000" d="M567,676 l6,0 0,64 -6,0 0,-64z" />
<path style="fill:none;stroke:#b2b2b2;stroke-width:2" d="M548,740 l0,-45 -40,0" />
<path style="fill:none;stroke:#ccf;stroke-width:2" d="M282,343 l0,-80 119,0" />
<path style="fill:none;stroke:#66c;stroke-width:2" d="M282,343 l119,0 0,-80" />
<path style="fill:none;stroke:#66c;stroke-width:2" d="M269,352 l147,0" />

</svg>
