 

<svg xmlns:agg="http://www.example.com" xmlns="http://www.w3.org/2000/svg" preserveAspectRatio="none" width="0.7941in" height="1.0750in" viewBox="0 0 738 999">

<path style="fill:#333" d="M184,441 l419,0 0,524 -419,0 0,-524z" />
<path style="fill:#4c4c4c" d="M233,582 l74,0 0,305 -74,0 0,-305z" />
<path style="fill:#4c4c4c" d="M405,631 l158,0 0,236 -158,0 0,-236z" />
<path style="fill:#b2b2b2;stroke:#000;stroke-width:2" d="M465,671 l-39,15 -55,-6 -19,-43 24,-46 44,-19 45,99z" />
<path style="fill:#999" d="M101,303 l232,0 0,83 -232,0 0,-83z" />
<path style="fill:#e54c00;stroke:#000;stroke-width:2" d="M303,459 l-58,0 -16,4 -5,34 13,34 28,23 19,3 92,21 68,-15 15,-24 21,18 19,0 19,-18 21,-40 0,-173 -10,-25 -21,-15 -26,-4 -23,12 -9,7 -10,25 0,16 -195,-109 -40,-9 -42,0 -39,9 -36,19 -28,25 -21,32 -11,33 0,38 98,0 0,-9 13,-29 28,-18 36,-4 34,11 81,45 -15,83z" />
<path style="fill:#4c4c4c" d="M307,478 l-4,40 -36,-4 -15,-17 2,-22 53,3z" />
<path style="fill:#4c4c4c;stroke:#000;stroke-width:2" d="M429,380 l2,-9 19,-10 9,-15 6,-17 7,-7 12,-4 11,0 12,4 7,7 6,17 9,15 19,10 0,9 -119,0z" />
<path style="fill:#e5e5e5;stroke:#000;stroke-width:2" d="M229,382 l-54,-15 13,-49 55,13 -14,51z" />
<path style="fill:#7f7f7f;stroke:#000;stroke-width:2" d="M450,554 l-49,18 28,25 36,79 28,-15 -39,-79 -4,-28z" />
<path style="fill:#b2b2b2;stroke:#000;stroke-width:2" d="M493,970 l0,-186 30,15 49,-119 84,0 0,290 -163,0z" />
<path style="fill:#f7efe0;stroke:#000;stroke-width:2" d="M28,970 l0,-590 511,0 0,-196 77,-77 0,-79 79,0 0,117 -79,79 0,315 -255,0 0,-98 -177,0 0,529 -156,0z" />
<path style="fill:#ccc;stroke:#000;stroke-width:2" d="M316,672 l89,-39 5,13 -88,40 -6,-14z" />
<path style="fill:#000" d="M418,593 l8,-28 28,7 -8,29 -28,-8z" />
<path style="fill:#000" d="M454,654 l5,-17 17,3 -4,19 -18,-5z" />
<path style="fill:#999" d="M475,459 l103,0 0,59 -103,0 0,-59z" />
<path style="fill:none;stroke:#fff;stroke-width:2" d="M475,518 l0,-59 103,0" />
<path style="fill:none;stroke:#000;stroke-width:2" d="M475,518 l103,0 0,-59" />
<path style="fill:#b20000" d="M533,490 l9,-10 10,10 -10,9 -9,-9z" />
<path style="fill:#000" d="M52,484 l34,0 0,88 -34,0 0,-88z" />
<path style="fill:#333" d="M62,484 l15,0 0,88 -15,0 0,-88z" />
<path style="fill:#f7efe0;stroke:#000;stroke-width:2" d="M640,802 l-68,-49 -15,-39 15,-34 84,0 0,290 -102,0 -21,-128 55,0 52,15 0,-55z" />
<circle style="fill:#c93;stroke:#665940;stroke-width:2" cx="599" cy="716" r="27" />
<path style="fill:none;stroke:#000;stroke-width:2" d="M426,386 l-16,-10 -15,0 -162,-107 -32,-8 -32,0 -32,8 -28,13 -23,21 -15,24 -9,29 0,28" />
<path style="fill:none;stroke:#000;stroke-width:2" d="M46,499 l0,-83 21,-21 289,0 20,-9 104,0 13,9 46,0 18,-24 0,-166 123,-128 0,-49" />
<path style="fill:none;stroke:#000;stroke-width:2" d="M28,950 l83,0 34,-34 0,-475 24,-25 168,0 68,34 167,0 10,-15 0,-230 128,-128" />
<path style="fill:none;stroke:#000;stroke-width:2" d="M294,475 l9,-16 77,70 55,0 40,-39" />
<path style="fill:none;stroke:#000;stroke-width:2" d="M582,490 l39,3 16,-3 3,-21 -13,-28 -36,-36 -9,-38" />
<circle style="fill:#ccc;stroke:#000;stroke-width:2" cx="293" cy="490" r="15" />

</svg>
