 

<svg xmlns:agg="http://www.example.com" xmlns="http://www.w3.org/2000/svg" preserveAspectRatio="none" width="0.7339in" height="1.0750in" viewBox="0 0 682 999">

<path style="fill:#366;stroke:#000;stroke-width:2" d="M39,893 l15,15 0,-362 -15,-15 0,362z" />
<path style="fill:#366;stroke:#000;stroke-width:2" d="M505,893 l15,15 0,-362 -15,-15 0,362z" />
<path style="fill:#8abdbd;stroke:#000;stroke-width:2" d="M95,908 l-41,0 0,-362 41,0 0,362z" />
<path style="fill:#8abdbd;stroke:#000;stroke-width:2" d="M561,908 l-41,0 0,-362 41,0 0,362z" />
<path style="fill:#366;stroke:#000;stroke-width:2" d="M578,955 l16,15 0,-360 -16,-15 0,360z" />
<path style="fill:#9cc" d="M654,120 l-549,0 0,490 549,0 0,-490z" />
<path style="fill:#94c7c7" d="M654,469 l-549,-206 0,347 549,0 0,-141z" />
<path style="fill:#8fc2c2" d="M654,488 l-549,-205 0,327 549,0 0,-122z" />
<path style="fill:#8abdbd" d="M654,520 l-549,-205 0,295 549,0 0,-90z" />
<path style="fill:none;stroke:#000;stroke-width:2" d="M654,120 l-549,0 0,490 549,0 0,-490" />
<path style="fill:#366;stroke:#000;stroke-width:2" d="M107,955 l15,15 0,-360 -15,-15 0,360z" />
<path style="fill:#8abdbd;stroke:#000;stroke-width:2" d="M654,120 l-547,0 -77,-77 546,0 78,77z" />
<path style="fill:#4c4c4c;stroke:#000;stroke-width:2" d="M538,55 l-443,0 46,50 446,0 -49,-50z" />
<path style="fill:#366;stroke:#000;stroke-width:2" d="M28,43 l79,77 0,490 -79,-76 0,-491z" />
<path style="fill:#8abdbd;stroke:#000;stroke-width:2" d="M634,970 l-40,0 0,-360 40,0 0,360z" />
<path style="fill:#8abdbd;stroke:#000;stroke-width:2" d="M163,970 l-41,0 0,-360 41,0 0,360z" />
<path style="fill:#8abdbd;stroke:#000;stroke-width:2" d="M587,99 l-53,0 0,21 53,0 0,-21z" />
<path style="fill:#366;stroke:#000;stroke-width:2" d="M465,28 l69,71 0,21 -69,-69 0,-23z" />
<path style="fill:#8abdbd;stroke:#000;stroke-width:2" d="M587,99 l-53,0 -71,-71 54,0 70,71z" />
<path style="fill:#8abdbd;stroke:#000;stroke-width:2" d="M212,99 l-53,0 0,21 53,0 0,-21z" />
<path style="fill:#366;stroke:#000;stroke-width:2" d="M90,28 l69,71 0,21 -69,-69 0,-23z" />
<path style="fill:#8abdbd;stroke:#000;stroke-width:2" d="M212,99 l-53,0 -71,-71 53,0 71,71z" />
<path style="fill:#000;stroke:#000;stroke-width:2" d="M527,207 l7,-15 15,-6 14,6 7,15 -7,18 -14,6 -15,-6 -7,-18z" />
<path style="fill:#000;stroke:#000;stroke-width:2" d="M527,283 l7,-15 15,-7 14,7 7,15 -7,15 -14,6 -15,-6 -7,-15z" />
<path style="fill:#f00" d="M531,207 l4,-10 14,-5 10,5 7,10 -7,14 -10,4 -14,-4 -4,-14z" />
<path style="fill:#0f0" d="M531,283 l4,-11 14,-7 10,7 7,11 -7,13 -10,4 -14,-4 -4,-13z" />
<path style="fill:none;stroke:#fff;stroke-width:2" d="M615,336 l0,-173 -133,0" />
<path style="fill:none;stroke:#999;stroke-width:2" d="M615,336 l-133,0 0,-173" />

</svg>
