 

<svg xmlns:agg="http://www.example.com" xmlns="http://www.w3.org/2000/svg" preserveAspectRatio="none" width="1.1624in" height="1.0750in" viewBox="0 0 998 923">

<path style="fill:#999;stroke:#000;stroke-width:2" d="M442,56 l19,0 0,311 -19,0 0,-311z" />
<path style="fill:#999;stroke:#000;stroke-width:2" d="M113,424 l254,0 0,-10 -254,0 0,10z" />
<path style="fill:#4c4c4c;stroke:#000;stroke-width:2" d="M339,508 l179,0 0,377 -226,0 0,-141 47,0 0,-236z" />
<path style="fill:#999" d="M386,631 l132,0 0,245 -132,0 0,-245z" />
<path style="fill:#b2b2b2;stroke:#000;stroke-width:2" d="M688,895 l0,-264 18,-19 38,0 19,38 207,207 0,38 -282,0z" />
<path style="fill:#ccc" d="M367,367 l151,0 0,245 -151,0 0,-245z" />
<path style="fill:#c7c7c7" d="M367,540 l151,-101 0,173 -151,0 0,-72z" />
<path style="fill:#c2c2c2" d="M367,552 l151,-104 0,164 -151,0 0,-60z" />
<path style="fill:#bdbdbd" d="M367,567 l151,-104 0,149 -151,0 0,-45z" />
<path style="fill:none;stroke:#000;stroke-width:2" d="M367,367 l151,0 0,245 -151,0 0,-245" />
<path style="fill:#ccc" d="M329,631 l95,0 0,132 -95,0 0,-132z" />
<path style="fill:#c7c7c7" d="M329,725 l95,-56 0,94 -95,0 0,-38z" />
<path style="fill:#c2c2c2" d="M329,731 l95,-57 0,89 -95,0 0,-32z" />
<path style="fill:#bdbdbd" d="M329,739 l95,-55 0,79 -95,0 0,-24z" />
<path style="fill:none;stroke:#000;stroke-width:2" d="M329,631 l95,0 0,132 -95,0 0,-132" />
<path style="fill:#ccc;stroke:#000;stroke-width:2" d="M329,876 l434,0 0,19 -434,0 0,-19z" />
<path style="fill:#ccc;stroke:#000;stroke-width:2" d="M631,650 l57,0 0,-19 -57,0 0,19z" />
<path style="fill:#ccc;stroke:#000;stroke-width:2" d="M574,650 l132,0 0,226 -132,0 0,-226z" />
<path style="fill:#ccc;stroke:#000;stroke-width:2" d="M518,28 l56,0 0,848 -56,0 0,-848z" />
<path style="fill:#ccc;stroke:#000;stroke-width:2" d="M461,28 l57,0 0,19 -38,0 0,320 -19,0 0,-339z" />
<path style="fill:#ccc;stroke:#000;stroke-width:2" d="M386,28 l56,0 0,339 -56,0 0,-339z" />
<path style="fill:#ccc;stroke:#000;stroke-width:2" d="M103,386 l264,0 0,28 -264,0 0,-28z" />
<path style="fill:#fff" d="M348,650 l57,0 0,19 -57,0 0,-19z" />
<path style="fill:#666" d="M348,650 l57,0 0,-10 -57,0 0,10z" />
<path style="fill:#7f7f7f;stroke:#000;stroke-width:2" d="M395,763 l10,0 0,113 -10,0 0,-113z" />
<path style="fill:#7f7f7f;stroke:#000;stroke-width:2" d="M376,763 l10,0 0,113 -10,0 0,-113z" />
<path style="fill:#7f7f7f;stroke:#000;stroke-width:2" d="M358,763 l9,0 0,113 -9,0 0,-113z" />
<path style="fill:#7f7f7f;stroke:#000;stroke-width:2" d="M339,763 l9,0 0,113 -9,0 0,-113z" />
<path style="fill:#ccc;stroke:#000;stroke-width:2" d="M103,424 l264,0 0,113 -151,0 0,301 -113,0 0,-414z" />
<path style="fill:#ccc" d="M28,838 l301,0 0,47 -301,0 0,-47z" />
<path style="fill:#999" d="M28,848 l301,0 0,28 -301,0 0,-28z" />
<path style="fill:none;stroke:#000;stroke-width:2" d="M28,838 l301,0 0,47 -301,0 0,-47" />
<path style="fill:#7f7f7f" d="M442,744 l76,0 0,132 -76,0 0,-132z" />
<path style="fill:none;stroke:#4c4c4c;stroke-width:2" d="M442,876 l0,-132 76,0" />
<path style="fill:#ccc;stroke:#000;stroke-width:2" d="M216,791 l47,0 0,47 -47,0 0,-47z" />
<path style="fill:#ccc;stroke:#000;stroke-width:2" d="M273,791 l47,0 0,47 -47,0 0,-47z" />
<path style="fill:none;stroke:#fff;stroke-width:2" d="M113,782 l0,-142 94,0" />
<path style="fill:none;stroke:#999;stroke-width:2" d="M113,782 l94,0 0,-142" />
<circle style="fill:#4c4c4c;stroke:#000;stroke-width:2" cx="239" cy="484" r="23" />
<path style="fill:#ccc;stroke:#000;stroke-width:2" d="M47,499 l56,0 0,339 -56,0 0,-339z" />
<path style="fill:#ccc" d="M28,565 l75,0 0,132 -75,0 0,-132z" />
<path style="fill:#c7c7c7" d="M28,659 l75,-56 0,94 -75,0 0,-38z" />
<path style="fill:#c2c2c2" d="M28,665 l75,-57 0,89 -75,0 0,-32z" />
<path style="fill:#bdbdbd" d="M28,672 l75,-54 0,79 -75,0 0,-25z" />
<path style="fill:none;stroke:#000;stroke-width:2" d="M28,565 l75,0 0,132 -75,0 0,-132" />
<path style="fill:#7f7f7f;stroke:#000;stroke-width:2" d="M640,744 l19,-38 -19,-37 -18,37 18,38z" />

</svg>
