 

<svg xmlns:agg="http://www.example.com" xmlns="http://www.w3.org/2000/svg" preserveAspectRatio="none" width="1.1413in" height="1.0750in" viewBox="0 0 998 940">

<path style="fill:#666" d="M970,703 l-794,0 0,-12 794,0 0,12z" />
<path style="fill:#000" d="M959,693 l-21,0 0,202 21,0 0,-202z" />
<path style="fill:#000" d="M209,693 l-21,0 0,202 21,0 0,-202z" />
<path style="fill:#4c4c4c;stroke:#000;stroke-width:2" d="M970,691 l-20,0 0,221 20,0 0,-221z" />
<path style="fill:#4c4c4c;stroke:#000;stroke-width:2" d="M199,691 l-23,0 0,221 23,0 0,-221z" />
<path style="fill:#ccc;stroke:#000;stroke-width:2" d="M510,456 l-322,0 0,43 322,0 0,-43z" />
<path style="fill:#333" d="M959,488 l-449,0 0,11 449,0 0,-11z" />
<path style="fill:#b2b2b2" d="M970,499 l-794,0 0,192 794,0 0,-192z" />
<path style="fill:#adadad" d="M176,546 l0,145 506,0 -506,-145z" />
<path style="fill:#999;stroke:#000;stroke-width:2" d="M28,499 l0,9 148,0 0,-9 -148,0z" />
<path style="fill:#b2b2b2" d="M970,488 l0,-213 -64,-64 -343,0 -64,64 0,213 471,0z" />
<path style="fill:#adadad" d="M970,488 l0,-108 -471,-85 0,193 471,0z" />
<path style="fill:#a8a8a8" d="M970,488 l0,-85 -471,-87 0,172 471,0z" />
<path style="fill:#a3a3a3" d="M970,488 l0,-65 -471,-84 0,149 471,0z" />
<path style="fill:none;stroke:#000;stroke-width:2" d="M970,488 l0,-213 -64,-64 -343,0 -64,64 0,213 471,0" />
<path style="fill:#7f7f7f;stroke:#000;stroke-width:2" d="M176,671 l-128,-163 128,0 0,163z" />
<path style="fill:#333" d="M799,380 l0,12 151,0 0,-12 -151,0z" />
<path style="fill:#333" d="M799,444 l0,12 151,0 0,-12 -151,0z" />
<path style="fill:#333" d="M520,380 l0,12 151,0 0,-12 -151,0z" />
<path style="fill:#333" d="M520,444 l0,12 151,0 0,-12 -151,0z" />
<path style="fill:#333" d="M520,316 l0,11 151,0 0,-11 -151,0z" />
<path style="fill:#ccc;stroke:#000;stroke-width:2" d="M895,467 l-53,0 0,32 53,0 0,-32z" />
<path style="fill:#b2b2b2;stroke:#000;stroke-width:2" d="M810,476 l-32,0 0,23 32,0 0,-23z" />
<path style="fill:#ccc;stroke:#000;stroke-width:2" d="M659,467 l-139,0 0,32 139,0 0,-32z" />
<path style="fill:#e5e5e5;stroke:#000;stroke-width:2" d="M188,456 l-32,7 0,19 32,6 0,-32z" />
<path style="fill:#bababa" d="M886,691 l-44,-192 -87,0 44,192 87,0z" />
<path style="fill:#c2c2c2" d="M863,691 l-44,-192 -41,0 41,192 44,0z" />
<path style="fill:#d9d9d9" d="M848,691 l-44,-192 -11,0 43,192 12,0z" />
<path style="fill:#bababa" d="M714,691 l-43,-192 -87,0 43,192 87,0z" />
<path style="fill:#c2c2c2" d="M691,691 l-41,-192 -44,0 44,192 41,0z" />
<path style="fill:#d9d9d9" d="M676,691 l-43,-192 -12,0 44,192 11,0z" />
<path style="fill:none;stroke:#000;stroke-width:2" d="M970,499 l-794,0 0,192 794,0 0,-192" />
<path style="fill:#7f7f7f" d="M787,209 l0,-42 -107,0 0,42 107,0z" />
<path style="fill:#8c8c8c" d="M784,209 l0,-42 -98,0 0,42 98,0z" />
<path style="fill:#999" d="M778,209 l0,-42 -89,0 0,42 89,0z" />
<path style="fill:#a6a6a6" d="M774,209 l0,-42 -79,0 0,42 79,0z" />
<path style="fill:#b2b2b2" d="M769,209 l0,-42 -68,0 0,42 68,0z" />
<path style="fill:#bfbfbf" d="M765,209 l0,-42 -61,0 0,42 61,0z" />
<path style="fill:#ccc" d="M759,209 l0,-42 -49,0 0,42 49,0z" />
<path style="fill:#d9d9d9" d="M755,209 l0,-42 -41,0 0,42 41,0z" />
<path style="fill:#e5e5e5" d="M750,209 l0,-42 -31,0 0,42 31,0z" />
<path style="fill:#f2f2f2" d="M746,209 l0,-42 -23,0 0,42 23,0z" />
<path style="fill:#fff" d="M740,209 l0,-42 -11,0 0,42 11,0z" />
<path style="fill:none;stroke:#000;stroke-width:2" d="M787,209 l0,-42 -107,0 0,42 107,0" />
<path style="fill:#ccc" d="M671,167 l0,-23 -23,-9 0,-32 32,-55 0,-20 107,0 0,20 32,55 0,32 -20,9 0,23 -128,0z" />
<path style="fill:#d1d1d1" d="M676,165 l0,-21 -19,-11 0,-32 29,-53 0,-20 96,0 0,20 28,53 0,32 -19,11 0,21 -115,0z" />
<path style="fill:#d9d9d9" d="M684,165 l0,-21 -17,-11 0,-32 24,-53 0,-20 85,0 0,20 25,53 0,32 -17,11 0,21 -100,0z" />
<path style="fill:#dedede" d="M691,165 l0,-21 -15,-11 0,-32 21,-53 0,-20 74,0 0,20 20,53 0,32 -13,11 0,21 -87,0z" />
<path style="fill:#e5e5e5" d="M697,165 l0,-21 -11,-11 0,-32 18,-53 0,-20 61,0 0,20 17,53 0,32 -11,11 0,21 -74,0z" />
<path style="fill:#ebebeb" d="M704,165 l0,-21 -9,-11 0,-32 15,-53 0,-20 49,0 0,20 13,53 0,32 -9,11 0,21 -59,0z" />
<path style="fill:#f2f2f2" d="M712,165 l0,-21 -8,-11 0,-32 12,-53 0,-20 38,0 0,20 11,53 0,32 -8,11 0,21 -45,0z" />
<path style="fill:#f7f7f7" d="M719,165 l0,-21 -5,-11 0,-32 7,-53 0,-20 25,0 0,20 8,53 0,32 -4,11 0,21 -31,0z" />
<path style="fill:#fff" d="M727,167 l0,-23 -4,-9 0,-32 4,-55 0,-20 15,0 0,20 4,55 0,32 -4,9 0,23 -15,0z" />
<path style="fill:#b2b2b2" d="M819,135 l-171,0 23,9 128,0 20,-9z" />
<path style="fill:none;stroke:#000;stroke-width:2" d="M671,167 l0,-23 -23,-9 0,-32 32,-55 0,-20 107,0 0,20 32,55 0,32 -20,9 0,23 -128,0" />

</svg>
