 

<svg xmlns:agg="http://www.example.com" xmlns="http://www.w3.org/2000/svg" preserveAspectRatio="none" width="1.1198in" height="1.0750in" viewBox="0 0 999 959">

<path style="fill:#fc0;stroke:#000;stroke-width:2" d="M218,870 l25,0 0,61 -25,0 0,-61z" />
<path style="fill:#fc0;stroke:#000;stroke-width:2" d="M554,870 l24,0 0,61 -24,0 0,-61z" />
<path style="fill:#b27f00;stroke:#000;stroke-width:2" d="M569,67 l39,0 0,181 -39,0 0,-181z" />
<path style="fill:#b27f00;stroke:#000;stroke-width:2" d="M608,109 l81,0 0,139 -81,0 0,-139z" />
<path style="fill:#b27f00;stroke:#000;stroke-width:2" d="M629,188 l40,0 0,281 -40,0 0,-281z" />
<path style="fill:#b27f00;stroke:#000;stroke-width:2" d="M589,188 l19,0 0,281 -19,0 0,-281z" />
<path style="fill:#c90" d="M569,149 l81,0 0,241 -81,0 0,-241z" />
<path style="fill:#b27f00" d="M650,149 l79,0 0,81 -79,0 0,-81z" />
<path style="fill:#c90" d="M650,158 l79,0 0,60 -79,0 0,-60z" />
<path style="fill:#e5b200" d="M650,169 l79,0 0,40 -79,0 0,-40z" />
<path style="fill:#fc0" d="M650,179 l79,0 0,20 -79,0 0,-20z" />
<path style="fill:#fc0" d="M28,931 l0,-522 81,0 0,-381 460,0 0,441 401,0 0,462 -39,0 0,-61 -864,0 0,61 -39,0z" />
<path style="fill:#fac700" d="M28,678 l341,-149 0,300 -341,0 0,-151z" />
<path style="fill:#f5c200" d="M28,699 l341,-149 0,279 -341,0 0,-130z" />
<path style="fill:#f0bd00" d="M28,733 l341,-151 0,249 -341,0 0,-98z" />
<path style="fill:#fac700" d="M109,263 l260,-114 0,260 -260,0 0,-146z" />
<path style="fill:#f5c200" d="M109,278 l260,-115 0,246 -260,0 0,-131z" />
<path style="fill:#f0bd00" d="M109,303 l260,-113 0,219 -260,1 0,-107z" />
<path style="fill:none;stroke:#7f4c00;stroke-width:2" d="M109,409 l260,0" />
<path style="fill:none;stroke:#7f4c00;stroke-width:2" d="M28,831 l942,0" />
<path style="fill:none;stroke:#b27f00;stroke-width:2" d="M133,450 l-66,0 0,4 66,0 0,3 -66,0 0,4 66,0 0,4 -66,0 0,6 66,0 0,3 -66,0 0,4 66,0 0,4 -66,0 0,4 66,0 0,4 -66,0 0,5 66,0 0,4 -66,0 0,4 66,0 0,4 -66,0 0,3 66,0 0,4 -66,0 0,6 66,0 0,4 -66,0 0,3 66,0 0,4 -66,0 0,4 66,0 0,3 -66,0 0,6 66,0 0,4 -66,0 0,4 66,0 0,3 -66,0 0,4 66,0 0,4 -66,0 0,4 66,0 0,5 -66,0 0,4 66,0 0,4 -66,0 0,4 66,0 0,4 -66,0 0,5 66,0 0,4 -66,0" />
<path style="fill:none;stroke:#b27f00;stroke-width:2" d="M231,450 l-66,0 0,4 66,0 0,3 -66,0 0,4 66,0 0,4 -66,0 0,6 66,0 0,3 -66,0 0,4 66,0 0,4 -66,0 0,4 66,0 0,4 -66,0 0,5 66,0 0,4 -66,0 0,4 66,0 0,4 -66,0 0,3 66,0 0,4 -66,0 0,6 66,0 0,4 -66,0 0,3 66,0 0,4 -66,0 0,4 66,0 0,3 -66,0 0,6 66,0 0,4 -66,0 0,4 66,0 0,3 -66,0 0,4 66,0 0,4 -66,0 0,4 66,0 0,5 -66,0 0,4 66,0 0,4 -66,0 0,4 66,0 0,4 -66,0 0,5 66,0 0,4 -66,0" />
<path style="fill:none;stroke:#b27f00;stroke-width:2" d="M329,450 l-66,0 0,4 66,0 0,3 -66,0 0,4 66,0 0,4 -66,0 0,6 66,0 0,3 -66,0 0,4 66,0 0,4 -66,0 0,4 66,0 0,4 -66,0 0,5 66,0 0,4 -66,0 0,4 66,0 0,4 -66,0 0,3 66,0 0,4 -66,0 0,6 66,0 0,4 -66,0 0,3 66,0 0,4 -66,0 0,4 66,0 0,3 -66,0 0,6 66,0 0,4 -66,0 0,4 66,0 0,3 -66,0 0,4 66,0 0,4 -66,0 0,4 66,0 0,5 -66,0 0,4 66,0 0,4 -66,0 0,4 66,0 0,4 -66,0 0,5 66,0 0,4 -66,0" />
<path style="fill:none;stroke:#b27f00;stroke-width:2" d="M182,128 l-54,0 0,5 54,0 0,6 -54,0 0,6 54,0 0,4 -54,0 0,5 54,0 0,6 -54,0 0,3 54,0 0,6 -54,0 0,6 54,0 0,4 -54,0 0,5 54,0 0,6 -54,0 0,6 54,0 0,3 -54,0 0,6 54,0 0,6 -54,0 0,5 54,0 0,4 -54,0 0,6 54,0 0,5 -54,0 0,4 54,0 0,6 -54,0 0,6 54,0 0,5 -54,0 0,4 54,0 0,5 -54,0 0,6 54,0 0,4 -54,0 0,6 54,0 0,5 -54,0 0,4 54,0 0,6 -54,0 0,5 54,0 0,6 -54,0 0,4 54,0 0,5 -54,0" />
<path style="fill:none;stroke:#b27f00;stroke-width:2" d="M265,128 l-54,0 0,5 54,0 0,6 -54,0 0,6 54,0 0,4 -54,0 0,5 54,0 0,6 -54,0 0,3 54,0 0,6 -54,0 0,6 54,0 0,4 -54,0 0,5 54,0 0,6 -54,0 0,6 54,0 0,3 -54,0 0,6 54,0 0,6 -54,0 0,5 54,0 0,4 -54,0 0,6 54,0 0,5 -54,0 0,4 54,0 0,6 -54,0 0,6 54,0 0,5 -54,0 0,4 54,0 0,5 -54,0 0,6 54,0 0,4 -54,0 0,6 54,0 0,5 -54,0 0,4 54,0 0,6 -54,0 0,5 54,0 0,6 -54,0 0,4 54,0 0,5 -54,0" />
<path style="fill:none;stroke:#b27f00;stroke-width:2" d="M348,128 l-54,0 0,5 54,0 0,6 -54,0 0,6 54,0 0,4 -54,0 0,5 54,0 0,6 -54,0 0,3 54,0 0,6 -54,0 0,6 54,0 0,4 -54,0 0,5 54,0 0,6 -54,0 0,6 54,0 0,3 -54,0 0,6 54,0 0,6 -54,0 0,5 54,0 0,4 -54,0 0,6 54,0 0,5 -54,0 0,4 54,0 0,6 -54,0 0,6 54,0 0,5 -54,0 0,4 54,0 0,5 -54,0 0,6 54,0 0,4 -54,0 0,6 54,0 0,5 -54,0 0,4 54,0 0,6 -54,0 0,5 54,0 0,6 -54,0 0,4 54,0 0,5 -54,0" />
<path style="fill:#333" d="M390,109 l160,0 0,100 -160,0 0,-100z" />
<path style="fill:#b2b2b2" d="M390,88 l160,0 0,21 -160,0 0,-21z" />
<path style="fill:none;stroke:#000;stroke-width:2" d="M390,209 l0,-121 160,0" />
<path style="fill:none;stroke:#ff0;stroke-width:2" d="M550,88 l0,121 -160,0" />
<path style="fill:#666" d="M390,309 l58,0 0,81 -58,0 0,-81z" />
<path style="fill:#fac700" d="M569,678 l401,-149 0,300 -401,0 0,-151z" />
<path style="fill:#f5c200" d="M569,699 l401,-149 0,279 -401,0 0,-130z" />
<path style="fill:#f0bd00" d="M569,733 l401,-151 0,249 -401,0 0,-98z" />
<path style="fill:none;stroke:#c90;stroke-width:2" d="M569,831 l0,-362" />
<path style="fill:none;stroke:#c90;stroke-width:2" d="M369,831 l0,-803" />
<path style="fill:none;stroke:#000;stroke-width:2" d="M28,931 l0,-522 81,0 0,-381 460,0 0,441 401,0 0,462 -39,0 0,-61 -864,0 0,61 -39,0" />
<ellipse style="fill:#c90" cx="509" cy="269" rx="19" ry="21" />
<path style="fill:#333" d="M339,835 l30,0 0,30 -30,0 0,-30z" />

</svg>
