 

<svg xmlns:agg="http://www.example.com" xmlns="http://www.w3.org/2000/svg" preserveAspectRatio="none" width="0.9222in" height="1.0750in" viewBox="0 0 857 999">

<path style="fill:#b2b2b2;stroke:#000;stroke-width:2" d="M728,927 l-548,0 0,-544 548,0 0,544z" />
<path style="fill:#e5e5e5;stroke:#000;stroke-width:2" d="M710,406 l-28,-31 0,552 28,28 0,-549z" />
<path style="fill:#f0f0f0;stroke:#000;stroke-width:2" d="M216,955 l0,-541 494,0 0,541 119,0 0,-737 -753,0 0,737 140,0z" />
<path style="fill:#f0f0f0;stroke:#000;stroke-width:2" d="M396,414 l-23,0 0,165 23,0 0,-165z" />
<path style="fill:#fff" d="M391,416 l-5,0 0,160 5,0 0,-160z" />
<path style="fill:#b2b2b2;stroke:#000;stroke-width:2" d="M76,218 l-48,-49 0,737 48,49 0,-737z" />
<path style="fill:#e0e0e0;stroke:#000;stroke-width:2" d="M829,218 l-753,0 -48,-49 752,0 49,49z" />
<path style="fill:#7f7f7f;stroke:#000;stroke-width:2" d="M772,205 l-662,0 -26,-28 662,0 26,28z" />
<ellipse style="fill:#000;stroke:#000;stroke-width:2" cx="312" cy="194" rx="60" ry="4" />
<path style="fill:#000" d="M370,33 l-118,0 0,162 118,0 0,-162z" />
<path style="fill:#1f1f1f" d="M368,33 l-98,0 0,162 98,0 0,-162z" />
<path style="fill:#3b3b3b" d="M365,33 l-80,0 0,162 80,0 0,-162z" />
<path style="fill:#595959" d="M365,33 l-62,0 0,162 62,0 0,-162z" />
<path style="fill:#787878" d="M362,33 l-43,0 0,162 43,0 0,-162z" />
<path style="fill:#949494" d="M360,33 l-26,0 0,162 26,0 0,-162z" />
<path style="fill:#b2b2b2" d="M357,33 l-7,0 0,162 7,0 0,-162z" />
<ellipse style="fill:#000;stroke:#000;stroke-width:2" cx="312" cy="30" rx="60" ry="2" />
<path style="fill:#7f7f7f;stroke:#000;stroke-width:2" d="M579,582 l-268,0 -23,10 -8,23 0,317 8,23 23,10 268,0 23,-10 8,-23 0,-317 -8,-23 -23,-10z" />
<path style="fill:#000" d="M424,566 l-82,0 0,26 82,0 0,-26z" />
<path style="fill:none;stroke:#fff;stroke-width:2" d="M416,566 l0,23" />
<path style="fill:none;stroke:#fff;stroke-width:2" d="M398,566 l0,23" />
<path style="fill:none;stroke:#fff;stroke-width:2" d="M380,566 l0,23" />
<path style="fill:none;stroke:#fff;stroke-width:2" d="M362,566 l0,23" />
<path style="fill:none;stroke:#fff;stroke-width:2" d="M344,566 l0,23" />
<path style="fill:#e5e5e5;stroke:#000;stroke-width:2" d="M584,589 l-265,0 -24,8 -10,23 0,317 10,23 24,10 265,0 23,-10 8,-23 0,-317 -8,-23 -23,-8z" />
<path style="fill:#f0f0f0" d="M574,592 l10,5 10,13 8,18 0,312 -10,12 -18,5 -250,0 -10,-10 -6,-20 0,-307 13,-10 23,-8 70,-10 160,0z" />
<path style="fill:#fff" d="M592,605 l2,10 0,327 0,10 8,-12 0,-312 -8,-18 -2,-5z" />
<path style="fill:#fff;stroke:#000;stroke-width:2" d="M638,409 l-23,10 -13,28 13,23 23,13 28,-13 11,-23 -11,-28 -28,-10z" />
<path style="fill:#000" d="M638,447 l3,0 -26,-20 23,20z" />
<path style="fill:#f00;stroke:#000;stroke-width:2" d="M723,275 l8,18 18,8 15,-8 8,-18 -8,-16 -15,-7 -18,7 -8,16z" />
<path style="fill:#000" d="M723,347 l8,18 18,8 15,-8 8,-18 -8,-15 -15,-8 -18,8 -8,15z" />
<path style="fill:none;stroke:#fff;stroke-width:2" d="M579,339 l0,-62 -250,0" />
<path style="fill:none;stroke:#999;stroke-width:2" d="M579,339 l-250,0 0,-62" />

</svg>
