 

<svg xmlns:agg="http://www.example.com" xmlns="http://www.w3.org/2000/svg" preserveAspectRatio="none" width="0.8210in" height="1.0750in" viewBox="0 0 763 999">

<path style="fill:#699" d="M99,75 l0,-23 23,-24 471,47 23,24 0,683 -447,0 0,-95 25,0 5,-5 0,-83 -5,-6 -25,0 0,-399 -70,-119z" />
<path style="fill:#5e9191" d="M616,311 l0,471 -447,0 0,-95 25,0 5,-5 0,-83 -5,-6 -25,0 0,-83 447,-199z" />
<path style="fill:none;stroke:#000;stroke-width:2" d="M99,75 l0,-23 23,-24 471,47 23,24 0,683 -447,0 0,-95 25,0 5,-5 0,-83 -5,-6 -25,0 0,-399 -70,-119" />
<path style="fill:#033" d="M264,787 l0,-5 282,0 0,5 -282,0z" />
<path style="fill:#9cc" d="M147,358 l22,0 0,235 -22,0 0,-235z" />
<path style="fill:#366" d="M147,840 l22,0 0,130 -22,0 0,-130z" />
<path style="fill:#9cc" d="M147,640 l22,0 0,177 -22,0 0,-177z" />
<path style="fill:#699;stroke:#000;stroke-width:2" d="M546,799 l0,-17 94,0 0,17 -94,0z" />
<path style="fill:#699;stroke:#000;stroke-width:2" d="M169,799 l0,-17 95,0 0,17 -95,0z" />
<path style="fill:none;stroke:#366;stroke-width:2" d="M175,735 l254,0 0,-72 23,0 0,-187" />
<path style="fill:none;stroke:#9cc;stroke-width:2" d="M175,740 l260,0 0,-69 23,0 0,-195" />
<path style="fill:none;stroke:#366;stroke-width:2" d="M416,393 l119,0 0,95 -119,0 0,-95" />
<path style="fill:#9cc" d="M216,405 l31,0 0,41 -31,0 0,-41z" />
<path style="fill:none;stroke:#699;stroke-width:2" d="M169,429 l-22,0" />
<path style="fill:none;stroke:#000;stroke-width:2" d="M147,358 l22,0 0,235 -22,0 0,-235" />
<path style="fill:#000" d="M535,122 l189,0 0,47 -189,0 0,-47z" />
<path style="fill:#333" d="M465,79 l223,20 -2,12 -223,-19 2,-13z" />
<path style="fill:#333" d="M492,303 l196,-109 -6,-12 -196,112 6,9z" />
<path style="fill:#b2b2b2" d="M552,128 l152,0 0,35 -152,0 0,-35z" />
<circle style="fill:#7f7f7f;stroke:#000;stroke-width:2" cx="687" cy="145" r="47" />
<path style="fill:#9cc" d="M569,265 l-21,23 -26,15 -30,8 -33,0 -30,-8 -26,-15 -23,-23 -15,-26 -7,-30 0,-32 7,-29 15,-28 23,-21 26,-17 30,-7 33,0 30,7 26,17 23,21 15,28 7,29 0,32 -7,30 -17,26z" />
<path style="fill:#9cc" d="M303,299 l-28,28 -34,19 -40,12 -39,0 -40,-12 -34,-19 -30,-28 -19,-36 -11,-39 0,-40 11,-38 21,-35 28,-29 34,-20 40,-10 39,0 40,10 34,20 28,29 21,34 9,39 0,40 -9,39 -21,36z" />
<path style="fill:#a6d9d9" d="M303,299 l-122,-94 -142,58 -11,-39 0,-40 11,-38 21,-35 121,94 143,-60 9,39 0,40 -9,39 -21,36z" />
<path style="fill:#a6d9d9" d="M569,265 l-93,-71 -111,45 -7,-30 0,-32 7,-29 15,-28 95,74 111,-46 7,29 0,32 -7,30 -17,26z" />
<path style="fill:#7fb2b2" d="M182,205 l-124,94 -19,-36 142,-58 122,-94 21,34 -142,60z" />
<path style="fill:#7fb2b2" d="M476,194 l-96,71 -15,-26 110,-45 94,-74 17,28 -110,46z" />
<circle style="fill:none;stroke:#366;stroke-width:2" cx="475" cy="192" r="59" />
<ellipse style="fill:none;stroke:#366;stroke-width:2" cx="181" cy="205" rx="34" ry="36" />
<path style="fill:none;stroke:#000;stroke-width:2" d="M569,265 l-21,23 -26,15 -30,8 -33,0 -30,-8 -26,-15 -23,-23 -15,-26 -7,-30 0,-32 7,-29 15,-28 23,-21 26,-17 30,-7 33,0 30,7 26,17 23,21 15,28 7,29 0,32 -7,30 -17,26" />
<path style="fill:none;stroke:#000;stroke-width:2" d="M303,299 l-28,28 -34,19 -40,12 -39,0 -40,-12 -34,-19 -30,-28 -19,-36 -11,-39 0,-40 11,-38 21,-35 28,-29 34,-20 40,-10 39,0 40,10 34,20 28,29 21,34 9,39 0,40 -9,39 -21,36" />
<circle style="fill:#033" cx="475" cy="193" r="47" />
<path style="fill:#366" d="M428,429 l94,0 0,47 -94,0 0,-47z" />
<path style="fill:#699" d="M435,169 l81,0 6,260 -94,0 7,-260z" />
<path style="fill:none;stroke:#000;stroke-width:2" d="M435,169 l81,0 6,307 -94,0 7,-307" />
<path style="fill:#699" d="M147,817 l22,0 0,23 -22,0 0,-23z" />
<path style="fill:none;stroke:#000;stroke-width:2" d="M147,640 l22,0 0,330 -22,0 0,-330" />

</svg>
