 

<svg xmlns:agg="http://www.example.com" xmlns="http://www.w3.org/2000/svg" preserveAspectRatio="none" width="1.1686in" height="1.0750in" viewBox="0 0 999 919">

<path style="fill:#ccc;stroke:#000;stroke-width:2" d="M578,224 l147,0 0,39 -147,0 0,-39z" />
<path style="fill:#699;stroke:#000;stroke-width:2" d="M67,793 l864,0 0,78 -864,0 0,-78z" />
<path style="fill:#033;stroke:#000;stroke-width:2" d="M47,891 l904,0 0,-20 -904,0 0,20z" />
<path style="fill:#e5e5e5" d="M67,793 l-39,-120 19,-410 904,0 19,410 -39,120 -864,0z" />
<path style="fill:#e0e0e0" d="M67,793 l-39,-120 9,-204 918,-104 15,308 -39,120 -864,0z" />
<path style="fill:#dbdbdb" d="M67,793 l-39,-120 5,-102 928,-102 9,204 -39,120 -864,0z" />
<path style="fill:#d6d6d6" d="M67,793 l-39,-120 937,-102 5,102 -39,120 -864,0z" />
<path style="fill:none;stroke:#000;stroke-width:2" d="M67,793 l-39,-120 19,-410 904,0 19,410 -39,120 -864,0" />
<path style="fill:#366" d="M263,263 l472,0 0,393 -472,0 0,-393z" />
<path style="fill:#ccc;stroke:#000;stroke-width:2" d="M322,263 l354,0 0,393 -354,0 0,-393z" />
<path style="fill:none;stroke:#000;stroke-width:2" d="M263,263 l472,0 0,393 -472,0 0,-393" />
<path style="fill:#333;stroke:#000;stroke-width:2" d="M322,616 l354,0 0,40 -354,0 0,-40z" />
<path style="fill:#7f7f7f;stroke:#000;stroke-width:2" d="M322,616 l354,0 0,-19 -354,0 0,19z" />
<path style="fill:#e5e5e5;stroke:#000;stroke-width:2" d="M322,597 l39,-21 276,0 39,21 -354,0z" />
<path style="fill:#e5e5e5" d="M420,28 l158,0 0,313 -158,0 0,-313z" />
<path style="fill:#d9d9d9" d="M420,28 l158,0 0,77 -158,0 0,-77z" />
<path style="fill:#ccc" d="M420,28 l158,0 0,58 -158,0 0,-58z" />
<path style="fill:#bfbfbf" d="M420,28 l158,0 0,37 -158,0 0,-37z" />
<path style="fill:#b2b2b2" d="M420,28 l158,0 0,19 -158,0 0,-19z" />
<path style="fill:#033" d="M695,558 l21,0 0,77 -21,0 0,-77z" />
<path style="fill:#033" d="M282,558 l21,0 0,77 -21,0 0,-77z" />
<path style="fill:#033" d="M201,597 l44,0 0,28 -44,0 0,-28z" />
<path style="fill:#033" d="M146,597 l42,0 0,28 -42,0 0,-28z" />
<path style="fill:#033" d="M97,597 l42,0 0,28 -42,0 0,-28z" />
<path style="fill:#033" d="M47,597 l43,0 0,28 -43,0 0,-28z" />
<path style="fill:#033" d="M201,563 l44,0 0,28 -44,0 0,-28z" />
<path style="fill:#033" d="M146,563 l42,0 0,28 -42,0 0,-28z" />
<path style="fill:#033" d="M97,563 l42,0 0,28 -42,0 0,-28z" />
<path style="fill:#033" d="M201,527 l44,0 0,29 -44,0 0,-29z" />
<path style="fill:#033" d="M146,527 l42,0 0,29 -42,0 0,-29z" />
<path style="fill:#033" d="M201,493 l44,0 0,27 -44,0 0,-27z" />
<path style="fill:none;stroke:#fff;stroke-width:2" d="M597,361 l0,197 -196,0" />
<path style="fill:none;stroke:#999;stroke-width:2" d="M597,361 l-196,0 0,197" />
<path style="fill:#7f7f7f" d="M459,420 l0,-79 80,0 0,79 -80,0z" />
<path style="fill:#999" d="M465,420 l0,-79 68,0 0,79 -68,0z" />
<path style="fill:#b2b2b2" d="M473,420 l0,-79 52,0 0,79 -52,0z" />
<path style="fill:#ccc" d="M482,420 l0,-79 34,0 0,79 -34,0z" />
<path style="fill:#e5e5e5" d="M488,420 l0,-79 22,0 0,79 -22,0z" />
<path style="fill:#fff" d="M493,420 l0,-79 12,0 0,79 -12,0z" />
<path style="fill:none;stroke:#000;stroke-width:2" d="M459,420 l0,-79 80,0 0,79 -80,0" />
<path style="fill:#ccc" d="M303,86 l117,0 0,177 -117,0 0,-177z" />
<path style="fill:#c7c7c7" d="M303,210 l117,-73 0,126 -117,0 0,-53z" />
<path style="fill:#c2c2c2" d="M303,218 l117,-74 0,119 -117,0 0,-45z" />
<path style="fill:#bdbdbd" d="M303,229 l117,-73 0,107 -117,0 0,-34z" />
<path style="fill:#b2b2b2;stroke:#000;stroke-width:2" d="M322,282 l58,0 0,40 -58,0 0,-40z" />
<path style="fill:#b2b2b2;stroke:#000;stroke-width:2" d="M322,322 l39,0 0,49 -39,0 0,-49z" />
<path style="fill:#fc0" d="M459,812 l472,0 0,21 -472,0 0,-21z" />
<path style="fill:#fc0" d="M86,812 l354,0 0,21 -354,0 0,-21z" />
<path style="fill:#fc0" d="M695,282 l21,0 0,19 -21,0 0,-19z" />
<path style="fill:#fc0" d="M429,292 l61,0 0,39 -61,0 0,-39z" />
<path style="fill:#fc0" d="M331,350 l30,0 0,21 -30,0 0,-21z" />
<path style="fill:#fc0" d="M245,576 l18,0 0,21 -18,0 0,-21z" />
<path style="fill:#699;stroke:#000;stroke-width:2" d="M753,341 l159,0 0,158 -159,0 0,-158z" />
<path style="fill:#ccc;stroke:#000;stroke-width:2" d="M823,548 l-58,0 -12,-49 80,0 -10,49z" />
<path style="fill:#ccc;stroke:#000;stroke-width:2" d="M765,292 l58,0 10,49 -80,0 12,-49z" />
<path style="fill:none;stroke:#033;stroke-width:2" d="M86,331 l159,0" />
<path style="fill:none;stroke:#033;stroke-width:2" d="M86,350 l159,0" />
<path style="fill:none;stroke:#033;stroke-width:2" d="M765,499 l0,-158" />
<path style="fill:#033" d="M774,350 l80,0 0,70 -80,0 0,-70z" />
<path style="fill:none;stroke:#000;stroke-width:2" d="M774,420 l0,-70 78,0" />
<path style="fill:none;stroke:#9cc;stroke-width:2" d="M852,350 l0,70 -78,0" />
<path style="fill:none;stroke:#9cc;stroke-width:2" d="M774,439 l127,0" />
<path style="fill:none;stroke:#9cc;stroke-width:2" d="M814,439 l0,49" />
<path style="fill:none;stroke:#9cc;stroke-width:2" d="M872,439 l0,49" />
<path style="fill:none;stroke:#000;stroke-width:2" d="M420,28 l158,0 0,313 -158,0 0,-313" />
<path style="fill:none;stroke:#000;stroke-width:2" d="M303,86 l117,0 0,177 -117,0 0,-177" />
<path style="fill:#e5e5e5;stroke:#000;stroke-width:2" d="M322,282 l354,0 0,-19 -354,0 0,19z" />

</svg>
