 

<svg xmlns:agg="http://www.example.com" xmlns="http://www.w3.org/2000/svg" preserveAspectRatio="none" width="1.6083in" height="0.8468in" viewBox="0 0 999 526">

<path style="fill:#ccc" d="M126,400 l746,0 0,98 -746,0 0,-98z" />
<path style="fill:#c7c7c7" d="M126,470 l746,-42 0,70 -746,0 0,-28z" />
<path style="fill:#c2c2c2" d="M126,474 l746,-42 0,66 -746,0 0,-24z" />
<path style="fill:#bdbdbd" d="M126,479 l746,-41 0,60 -746,0 0,-19z" />
<path style="fill:none;stroke:#7f7f7f;stroke-width:2" d="M332,400 l0,98" />
<path style="fill:none;stroke:#7f7f7f;stroke-width:2" d="M735,400 l0,98" />
<path style="fill:none;stroke:#000;stroke-width:2" d="M126,419 l746,0" />
<path style="fill:#600;stroke:#000;stroke-width:2" d="M28,302 l942,0 0,98 -942,0 0,-98z" />
<path style="fill:#e5e5e5;stroke:#000;stroke-width:2" d="M48,28 l902,0 0,274 -902,0 0,-274z" />
<path style="fill:#b2b2b2" d="M263,46 l658,0 0,236 -658,0 0,-236z" />
<path style="fill:#b8b8b8" d="M263,67 l658,0 0,215 -658,0 0,-215z" />
<path style="fill:#bfbfbf" d="M263,90 l658,0 0,192 -658,0 0,-192z" />
<path style="fill:#c4c4c4" d="M263,112 l658,0 0,170 -658,0 0,-170z" />
<path style="fill:#ccc" d="M263,135 l658,0 0,147 -658,0 0,-147z" />
<path style="fill:#d1d1d1" d="M263,157 l658,0 0,125 -658,0 0,-125z" />
<path style="fill:#d9d9d9" d="M263,178 l658,0 0,104 -658,0 0,-104z" />
<path style="fill:#dedede" d="M263,201 l658,0 0,81 -658,0 0,-81z" />
<path style="fill:#e5e5e5" d="M263,223 l658,0 0,59 -658,0 0,-59z" />
<path style="fill:#e5e5e5" d="M37,302 l0,-197 11,-68 215,0 0,265 -226,0z" />
<path style="fill:#000" d="M263,263 l658,0 0,9 -658,0 0,-9z" />
<path style="fill:#666" d="M263,272 l658,0 0,10 -658,0 0,-10z" />
<path style="fill:none;stroke:#000;stroke-width:2" d="M263,46 l658,0 0,236 -658,0 0,-236" />
<path style="fill:#f2f2f2" d="M37,105 l11,-68 215,0 0,68 -226,0z" />
<path style="fill:none;stroke:#000;stroke-width:2" d="M37,302 l0,-197 11,-68 215,0 0,265 -226,0" />
<path style="fill:none;stroke:#000;stroke-width:2" d="M126,400 l746,0 0,98 -746,0 0,-98" />
<path style="fill:#999" d="M745,477 l116,0 0,15 -116,0 0,-15z" />
<path style="fill:#999;stroke:#000;stroke-width:2" d="M263,477 l60,0 0,15 -60,0 0,-15z" />
<path style="fill:#999" d="M199,477 l60,0 0,15 -60,0 0,-15z" />
<path style="fill:#999;stroke:#000;stroke-width:2" d="M135,477 l60,0 0,15 -60,0 0,-15z" />
<path style="fill:#333" d="M263,477 l60,0 0,6 -60,0 0,-6z" />
<path style="fill:#333" d="M199,477 l60,0 0,6 -60,0 0,-6z" />
<path style="fill:#333" d="M135,477 l60,0 0,6 -60,0 0,-6z" />
<path style="fill:#333" d="M745,477 l116,0 0,6 -116,0 0,-6z" />
<path style="fill:none;stroke:#000;stroke-width:2" d="M199,477 l60,0 0,15 -60,0 0,-15" />
<path style="fill:none;stroke:#000;stroke-width:2" d="M745,477 l116,0 0,15 -116,0 0,-15" />
<path style="fill:#b2b2b2" d="M302,361 l0,-6 659,0 0,6 -659,0z" />
<path style="fill:#000" d="M748,208 l0,-34 12,0 0,34 -12,0z" />
<path style="fill:#e5e5e5;stroke:#000;stroke-width:2" d="M852,204 l0,59 -79,0 0,-40 -10,0 -9,-19 0,-24 9,-15 104,0 0,39 -15,0z" />
<path style="fill:#b2b2b2" d="M812,229 l0,-26 36,0 0,26 -36,0z" />
<path style="fill:#666" d="M263,95 l658,0 0,10 -658,0 0,-10z" />
<path style="fill:#e5e5e5" d="M489,302 l0,-158 5,-107 217,0 4,107 0,158 -226,0z" />
<path style="fill:#f2f2f2" d="M489,144 l5,-107 217,0 4,107 -226,0z" />
<path style="fill:none;stroke:#000;stroke-width:2" d="M489,302 l0,-158 5,-107 217,0 4,107 0,158 -226,0" />
<path style="fill:#333" d="M504,137 l3,-93 189,0 3,93 -195,0z" />
<path style="fill:#404040" d="M504,137 l3,-89 189,0 5,89 -197,0z" />
<path style="fill:#4c4c4c" d="M504,137 l3,-81 190,0 4,81 -197,0z" />
<path style="fill:#595959" d="M504,137 l3,-75 190,0 4,75 -197,0z" />
<path style="fill:#666" d="M504,137 l3,-70 190,0 4,70 -197,0z" />
<path style="fill:#737373" d="M504,137 l3,-64 190,0 4,64 -197,0z" />
<path style="fill:#7f7f7f" d="M504,137 l3,-59 190,0 4,59 -197,0z" />
<path style="fill:#8c8c8c" d="M504,137 l2,-53 191,0 4,53 -197,0z" />
<path style="fill:#999" d="M504,137 l2,-47 191,0 4,47 -197,0z" />
<path style="fill:#a6a6a6" d="M504,137 l2,-42 193,0 2,42 -197,0z" />
<path style="fill:#b2b2b2" d="M504,137 l2,-34 193,0 2,34 -197,0z" />
<path style="fill:#bfbfbf" d="M504,137 l2,-29 193,0 2,29 -197,0z" />
<path style="fill:#ccc" d="M504,137 l2,-23 193,0 0,23 -195,0z" />
<path style="fill:none;stroke:#000;stroke-width:2" d="M504,137 l3,-93 189,0 3,93 -195,0" />
<path style="fill:#b2b2b2;stroke:#000;stroke-width:2" d="M519,381 l0,-94 177,0 0,94 -177,0z" />
<path style="fill:#ccc;stroke:#000;stroke-width:2" d="M513,287 l0,-49 186,0 0,49 -186,0z" />
<path style="fill:#666;stroke:#000;stroke-width:2" d="M519,238 l3,-69 168,0 6,69 -177,0z" />
<path style="fill:#000" d="M498,144 l11,-18 187,0 9,18 -9,0 -10,-15 -167,0 -10,15 -11,0z" />
<path style="fill:#7f7f7f" d="M263,144 l30,0 0,-9 49,0 0,107 -49,0 0,-9 -30,0 0,-89z" />
<path style="fill:#919191" d="M263,150 l30,0 0,-8 49,0 0,93 -49,0 0,-8 -30,0 0,-77z" />
<path style="fill:#a1a1a1" d="M263,155 l30,0 0,-5 49,0 0,77 -49,0 0,-6 -30,0 0,-66z" />
<path style="fill:#b2b2b2" d="M263,163 l30,0 0,-6 49,0 0,62 -49,0 0,-5 -30,0 0,-51z" />
<path style="fill:#c4c4c4" d="M263,169 l30,0 0,-6 49,0 0,51 -49,0 0,-6 -30,0 0,-39z" />
<path style="fill:#d4d4d4" d="M263,174 l30,0 0,-4 49,0 0,36 -49,0 0,-3 -30,0 0,-29z" />
<path style="fill:#e5e5e5" d="M263,180 l30,0 0,-2 49,0 0,21 -49,0 0,-2 -30,0 0,-17z" />
<path style="fill:none;stroke:#000;stroke-width:2" d="M263,144 l30,0 0,-9 49,0 0,107 -49,0 0,-9 -30,0 0,-89" />
<path style="fill:none;stroke:#7f7f7f;stroke-width:2" d="M293,233 l0,-89" />
<path style="fill:#ccc" d="M86,242 l0,-98 118,0 0,98 -118,0z" />
<path style="fill:#b2b2b2" d="M86,159 l0,-15 118,0 0,15 -118,0z" />
<path style="fill:none;stroke:#000;stroke-width:2" d="M204,242 l0,-98 -118,0 0,98" />

</svg>
