 

<svg xmlns:agg="http://www.example.com" xmlns="http://www.w3.org/2000/svg" preserveAspectRatio="none" width="1.1535in" height="1.0750in" viewBox="0 0 999 931">

<path style="fill:#7f7f7f" d="M701,725 l0,79 -40,0 0,-79 40,0z" />
<path style="fill:#999" d="M697,725 l0,79 -34,0 0,-79 34,0z" />
<path style="fill:#b2b2b2" d="M693,725 l0,79 -26,0 0,-79 26,0z" />
<path style="fill:#ccc" d="M689,725 l0,79 -16,0 0,-79 16,0z" />
<path style="fill:#e5e5e5" d="M686,725 l0,79 -12,0 0,-79 12,0z" />
<path style="fill:#fff" d="M684,725 l0,79 -6,0 0,-79 6,0z" />
<path style="fill:none;stroke:#000;stroke-width:2" d="M701,725 l0,79 -40,0 0,-79 40,0" />
<path style="fill:#7f7f7f" d="M705,646 l0,79 -50,0 0,-79 50,0z" />
<path style="fill:#999" d="M703,646 l0,79 -44,0 0,-79 44,0z" />
<path style="fill:#b2b2b2" d="M697,646 l0,79 -32,0 0,-79 32,0z" />
<path style="fill:#ccc" d="M691,646 l0,79 -22,0 0,-79 22,0z" />
<path style="fill:#e5e5e5" d="M687,646 l0,79 -13,0 0,-79 13,0z" />
<path style="fill:#fff" d="M684,646 l0,79 -6,0 0,-79 6,0z" />
<path style="fill:none;stroke:#000;stroke-width:2" d="M705,646 l0,79 -50,0 0,-79 50,0" />
<path style="fill:#030;stroke:#000;stroke-width:2" d="M28,392 l156,0 0,354 -156,0 0,-354z" />
<path style="fill:#363;stroke:#000;stroke-width:2" d="M852,823 l-432,-77 0,-100 532,0 0,-588 -40,0 0,334 -471,0 0,-334 -315,0 -59,845 766,0 19,-80z" />
<path style="fill:#696" d="M107,863 l0,-234 9,-36 17,-30 27,-26 30,-17 36,-10 35,0 36,10 30,17 27,26 17,30 9,36 0,234 -273,0z" />
<path style="fill:#4c7f4c" d="M167,786 l0,-132 6,-19 9,-17 15,-15 17,-10 19,-5 21,0 19,5 19,10 13,15 9,17 6,19 0,130 -153,2z" />
<path style="fill:#194c19" d="M107,863 l58,-79 157,0 58,79 -273,0z" />
<path style="fill:#407340" d="M107,627 l58,19 0,138 -58,79 0,-236z" />
<path style="fill:#407340" d="M380,627 l-58,19 0,138 58,79 0,-236z" />
<path style="fill:none;stroke:#000;stroke-width:2" d="M107,863 l0,-234 9,-36 17,-30 27,-26 30,-17 36,-10 35,0 36,10 30,17 27,26 17,30 9,36 0,234 -273,0" />
<path style="fill:none;stroke:#363;stroke-width:2" d="M169,765 l149,0" />
<path style="fill:none;stroke:#363;stroke-width:2" d="M318,746 l-149,0" />
<path style="fill:none;stroke:#363;stroke-width:2" d="M169,725 l149,0" />
<path style="fill:none;stroke:#363;stroke-width:2" d="M318,706 l-149,0" />
<path style="fill:none;stroke:#363;stroke-width:2" d="M169,686 l149,0" />
<path style="fill:none;stroke:#363;stroke-width:2" d="M318,667 l-149,0" />
<path style="fill:none;stroke:#363;stroke-width:2" d="M169,646 l149,0" />
<path style="fill:none;stroke:#363;stroke-width:2" d="M180,627 l129,0" />
<path style="fill:none;stroke:#363;stroke-width:2" d="M194,608 l99,0" />
<path style="fill:none;stroke:#363;stroke-width:2" d="M244,780 l0,-187" />
<path style="fill:none;stroke:#363;stroke-width:2" d="M205,603 l0,177" />
<path style="fill:none;stroke:#363;stroke-width:2" d="M282,780 l0,-177" />
<circle style="fill:#407340" cx="268" cy="318" r="103" />
<path style="fill:#4c7f4c" d="M297,278 l-39,12 -34,28 -15,40 -4,43 -19,-19 -13,-24 -8,-27 0,-26 8,-27 13,-24 19,-19 24,-13 25,-8 28,0 27,8 22,13 19,19 15,24 -28,-3 -40,3z" />
<circle style="fill:none;stroke:#030;stroke-width:2" cx="268" cy="318" r="103" />
<path style="fill:#696;stroke:#000;stroke-width:2" d="M258,333 l20,0 0,98 -20,0 0,-98z" />
<circle style="fill:#696;stroke:#000;stroke-width:2" cx="268" cy="318" r="20" />
<circle style="fill:#4c7f4c;stroke:#000;stroke-width:2" cx="189" cy="136" r="39" />
<path style="fill:#696;stroke:#000;stroke-width:2" d="M212,28 l14,3 -25,98 96,27 -4,13 -96,-26 -26,96 -13,-2 26,-98 -98,-26 4,-14 96,27 26,-98z" />
<path style="fill:#333" d="M254,82 l156,0 0,34 -156,0 0,-34z" />
<path style="fill:#7f0000" d="M269,101 l126,0 0,25 -126,0 0,-25z" />
<path style="fill:#696" d="M441,73 l471,0 0,68 -471,0 0,-68z" />
<path style="fill:#7fb27f" d="M441,79 l471,0 0,56 -471,0 0,-56z" />
<path style="fill:#9c9" d="M441,86 l471,0 0,41 -471,0 0,-41z" />
<path style="fill:#b2e5b2" d="M441,94 l471,0 0,26 -471,0 0,-26z" />
<path style="fill:#cfc" d="M441,99 l471,0 0,15 -471,0 0,-15z" />
<path style="fill:none;stroke:#000;stroke-width:2" d="M441,73 l471,0 0,68 -471,0 0,-68" />
<path style="fill:#7fb27f;stroke:#000;stroke-width:2" d="M352,716 l15,0 0,43 -15,0 0,-43z" />
<path style="fill:#2e612e" d="M420,646 l0,-87 532,-137 0,224 -532,0z" />
<path style="fill:#295c29" d="M420,646 l0,-58 532,-138 0,196 -532,0z" />
<path style="fill:none;stroke:#030;stroke-width:2" d="M765,622 l0,24" />
<path style="fill:none;stroke:#030;stroke-width:2" d="M829,612 l0,34" />
<path style="fill:none;stroke:#030;stroke-width:2" d="M887,588 l0,58" />
<path style="fill:none;stroke:#696;stroke-width:2" d="M769,622 l0,24" />
<path style="fill:none;stroke:#696;stroke-width:2" d="M833,612 l0,34" />
<path style="fill:none;stroke:#696;stroke-width:2" d="M893,584 l0,62" />
<path style="fill:none;stroke:#030;stroke-width:2" d="M429,627 l217,0 104,-5 83,-10 54,-24 29,-34 20,-44 10,-49 0,-51" />
<path style="fill:#696;stroke:#030;stroke-width:2" d="M459,373 l315,0 0,58 -98,0 19,34 -156,0 18,-34 -98,0 0,-58z" />
<path style="fill:#696" d="M616,67 l89,0 0,79 -89,0 0,-79z" />
<path style="fill:#4c7f4c" d="M616,127 l89,0 0,19 -29,0 0,129 -30,0 0,-129 -30,0 0,-19z" />
<path style="fill:none;stroke:#000;stroke-width:2" d="M616,67 l89,0 0,79 -29,0 0,129 -30,0 0,-129 -30,0 0,-79" />
<path style="fill:#696" d="M646,205 l30,0 0,70 -30,0 0,-70z" />
<path style="fill:#7fb27f" d="M646,212 l30,0 0,55 -30,0 0,-55z" />
<path style="fill:#9c9" d="M646,218 l30,0 0,42 -30,0 0,-42z" />
<path style="fill:#b2e5b2" d="M646,226 l30,0 0,28 -30,0 0,-28z" />
<path style="fill:#cfc" d="M646,233 l30,0 0,13 -30,0 0,-13z" />
<path style="fill:none;stroke:#000;stroke-width:2" d="M646,205 l30,0 0,70 -30,0 0,-70" />
<path style="fill:#696" d="M441,205 l28,0 0,70 -28,0 0,-70z" />
<path style="fill:#7fb27f" d="M441,212 l28,0 0,55 -28,0 0,-55z" />
<path style="fill:#9c9" d="M441,218 l28,0 0,42 -28,0 0,-42z" />
<path style="fill:#b2e5b2" d="M441,226 l28,0 0,28 -28,0 0,-28z" />
<path style="fill:#cfc" d="M441,233 l28,0 0,13 -28,0 0,-13z" />
<path style="fill:none;stroke:#000;stroke-width:2" d="M441,205 l28,0 0,70 -28,0 0,-70" />
<path style="fill:#696" d="M842,67 l70,0 0,79 -70,0 0,-79z" />
<path style="fill:#4c7f4c" d="M842,127 l70,0 0,19 -9,0 0,129 -31,0 0,-129 -30,0 0,-19z" />
<path style="fill:none;stroke:#000;stroke-width:2" d="M842,67 l70,0 0,79 -9,0 0,129 -31,0 0,-129 -30,0 0,-79" />
<path style="fill:#696" d="M872,205 l29,0 0,70 -29,0 0,-70z" />
<path style="fill:#7fb27f" d="M872,212 l29,0 0,55 -29,0 0,-55z" />
<path style="fill:#9c9" d="M872,218 l29,0 0,42 -29,0 0,-42z" />
<path style="fill:#b2e5b2" d="M872,226 l29,0 0,28 -29,0 0,-28z" />
<path style="fill:#cfc" d="M872,233 l29,0 0,13 -29,0 0,-13z" />
<path style="fill:none;stroke:#000;stroke-width:2" d="M872,205 l29,0 0,70 -29,0 0,-70" />
<path style="fill:#696" d="M952,422 l18,0 0,101 -18,0 0,-101z" />
<path style="fill:#7fb27f" d="M952,431 l18,0 0,83 -18,0 0,-83z" />
<path style="fill:#9c9" d="M952,442 l18,0 0,63 -18,0 0,-63z" />
<path style="fill:#b2e5b2" d="M952,452 l18,0 0,41 -18,0 0,-41z" />
<path style="fill:#cfc" d="M952,461 l18,0 0,23 -18,0 0,-23z" />
<path style="fill:none;stroke:#000;stroke-width:2" d="M952,422 l18,0 0,101 -18,0 0,-101" />
<path style="fill:none;stroke:#363;stroke-width:2" d="M489,388 l0,22 -20,0" />
<path style="fill:none;stroke:#9c9;stroke-width:2" d="M469,410 l0,-24 20,0" />

</svg>
