 

<svg xmlns:agg="http://www.example.com" xmlns="http://www.w3.org/2000/svg" preserveAspectRatio="none" width="1.3577in" height="1.0750in" viewBox="0 0 999 791">

<path style="fill:#7f7f7f;stroke:#000;stroke-width:2" d="M812,500 l-549,0 0,263 549,0 0,-263z" />
<path style="fill:#000;stroke:#000;stroke-width:2" d="M812,500 l-549,0 -153,-151 551,0 151,151z" />
<path style="fill:#000;stroke:#000;stroke-width:2" d="M110,349 l153,151 0,263 -153,-153 0,-261z" />
<path style="fill:#f0f0f0;stroke:#000;stroke-width:2" d="M971,417 l-865,0 0,77 216,12 433,0 216,-12 0,-77z" />
<path style="fill:#f0f0f0;stroke:#000;stroke-width:2" d="M971,417 l-865,0 -79,-78 863,0 81,78z" />
<path style="fill:#b2b2b2;stroke:#000;stroke-width:2" d="M106,494 l-79,-79 0,-76 79,78 0,77z" />
<path style="fill:#e0e0e0;stroke:#000;stroke-width:2" d="M799,180 l-551,0 0,261 551,0 0,-261z" />
<path style="fill:#e0e0e0;stroke:#000;stroke-width:2" d="M799,180 l-551,0 -151,-153 549,0 153,153z" />
<path style="fill:#ccc;stroke:#000;stroke-width:2" d="M97,29 l151,151 0,261 -151,-151 0,-261z" />
<path style="fill:#ccc;stroke:#000;stroke-width:2" d="M820,197 l-152,0 0,312 152,0 0,-312z" />
<path style="fill:#ccc;stroke:#000;stroke-width:2" d="M820,197 l-152,0 -22,-21 153,0 21,21z" />
<path style="fill:#ccc;stroke:#000;stroke-width:2" d="M646,176 l22,21 0,312 -22,-24 0,-309z" />
<path style="fill:#000" d="M784,216 l-15,15 15,12 15,-12 -15,-15z" />
<path style="fill:#000" d="M784,248 l-15,15 15,14 15,-14 -15,-15z" />
<path style="fill:#000" d="M719,250 l-13,15 13,14 14,-14 -14,-15z" />
<path style="fill:#000" d="M784,286 l-15,15 15,12 15,-12 -15,-15z" />
<path style="fill:#000" d="M784,320 l-15,15 15,14 15,-14 -15,-15z" />
<path style="fill:#000" d="M784,356 l-15,15 15,12 15,-12 -15,-15z" />
<path style="fill:#000" d="M784,390 l-15,15 15,14 15,-14 -15,-15z" />
<path style="fill:#000" d="M784,426 l-15,15 15,15 15,-15 -15,-15z" />
<path style="fill:#000" d="M784,460 l-15,15 15,14 15,-14 -15,-15z" />
<path style="fill:#f00" d="M789,222 l-7,0 0,15 7,0 0,-15z" />
<path style="fill:#f00" d="M789,254 l-7,0 0,17 7,0 0,-17z" />
<path style="fill:#f00" d="M789,254 l-7,0 0,17 7,0 0,-17z" />
<path style="fill:#0f0" d="M723,256 l-7,0 0,17 7,0 0,-17z" />
<path style="fill:#f00" d="M789,292 l-7,0 0,15 7,0 0,-15z" />
<path style="fill:#f00" d="M789,326 l-7,0 0,17 7,0 0,-17z" />
<path style="fill:#f00" d="M789,362 l-7,0 0,17 7,0 0,-17z" />
<path style="fill:#f00" d="M789,396 l-7,0 0,17 7,0 0,-17z" />
<path style="fill:#f00" d="M789,432 l-7,0 0,17 7,0 0,-17z" />
<path style="fill:#f00" d="M789,466 l-7,0 0,17 7,0 0,-17z" />
<path style="fill:#000" d="M752,307 l-65,0 8,38 45,0 12,-38z" />
<path style="fill:#fff;stroke:#000;stroke-width:2" d="M746,311 l-55,0 4,22 45,0 6,-22z" />
<path style="fill:none;stroke:#000;stroke-width:2" d="M714,318 l5,15" />
<path style="fill:none;stroke:#000;stroke-width:2" d="M742,311 l0,5" />
<path style="fill:none;stroke:#000;stroke-width:2" d="M735,311 l0,5" />
<path style="fill:none;stroke:#000;stroke-width:2" d="M731,311 l0,5" />
<path style="fill:none;stroke:#000;stroke-width:2" d="M725,311 l0,5" />
<path style="fill:none;stroke:#000;stroke-width:2" d="M719,311 l0,5" />
<path style="fill:none;stroke:#000;stroke-width:2" d="M712,311 l0,5" />
<path style="fill:none;stroke:#000;stroke-width:2" d="M706,311 l0,5" />
<path style="fill:none;stroke:#000;stroke-width:2" d="M699,311 l0,5" />
<path style="fill:none;stroke:#000;stroke-width:2" d="M693,311 l0,5" />
<path style="fill:#f0f0f0;stroke:#000;stroke-width:2" d="M615,222 l-306,0 0,297 306,0 0,-297z" />
<path style="fill:#f0f0f0;stroke:#000;stroke-width:2" d="M615,222 l-306,0 -17,-15 308,0 15,15z" />
<path style="fill:#f0f0f0;stroke:#000;stroke-width:2" d="M292,207 l17,15 0,297 -17,-17 0,-295z" />
<path style="fill:#f00;stroke:#000;stroke-width:2" d="M464,256 l-19,7 -9,19 9,19 19,6 17,-6 8,-19 -8,-19 -17,-7z" />
<path style="fill:#f00;stroke:#000;stroke-width:2" d="M303,258 l-7,0 0,15 7,0 0,-15z" />
<path style="fill:#0f0;stroke:#000;stroke-width:2" d="M303,286 l-7,0 0,15 7,0 0,-15z" />
<path style="fill:#b2b2b2;stroke:#000;stroke-width:2" d="M810,528 l-79,0 0,70 4,4 79,-70 -4,-4z" />
<path style="fill:#f0f0f0;stroke:#000;stroke-width:2" d="M814,532 l-79,0 0,70 79,0 0,-70z" />
<path style="fill:#7f7f7f;stroke:#000;stroke-width:2" d="M780,530 l-15,0 0,-4 15,0 0,4z" />
<path style="fill:#000;stroke:#000;stroke-width:2" d="M778,511 l-11,0 0,15 11,0 0,-15z" />
<path style="fill:#f0f0f0;stroke:#000;stroke-width:2" d="M231,294 l-117,-116 -40,0 114,241 43,0 0,-125z" />
<path style="fill:#7f7f7f;stroke:#000;stroke-width:2" d="M190,294 l-116,-116 0,127 116,114 0,-125z" />

</svg>
