 

<svg xmlns:agg="http://www.example.com" xmlns="http://www.w3.org/2000/svg" preserveAspectRatio="none" width="1.6083in" height="0.8654in" viewBox="0 0 998 537">

<path style="fill:#0000e0;stroke:#000;stroke-width:2" d="M32,469 l9,7 0,-187 -9,-7 0,187z" />
<path style="fill:#0000e0;stroke:#000;stroke-width:2" d="M894,469 l7,7 0,-187 -7,-7 0,187z" />
<path style="fill:#7f7fff;stroke:#000;stroke-width:2" d="M62,476 l-21,0 0,-187 21,0 0,187z" />
<path style="fill:#7f7fff;stroke:#000;stroke-width:2" d="M924,476 l-23,0 0,-187 23,0 0,187z" />
<path style="fill:#f0f0f0;stroke:#000;stroke-width:2" d="M936,309 l-837,0 312,167 211,0 314,-167z" />
<path style="fill:#b2b2b2;stroke:#000;stroke-width:2" d="M55,298 l44,11 312,167 -88,-30 -268,-148z" />
<path style="fill:#0000e0;stroke:#000;stroke-width:2" d="M934,501 l6,7 0,-187 -6,-7 0,187z" />
<path style="fill:#0000e0;stroke:#000;stroke-width:2" d="M69,501 l7,7 0,-187 -7,-7 0,187z" />
<path style="fill:#7f7fff;stroke:#000;stroke-width:2" d="M970,67 l-903,0 0,254 903,0 0,-254z" />
<path style="fill:#7f7fff;stroke:#000;stroke-width:2" d="M970,67 l-903,0 -39,-39 903,0 39,39z" />
<path style="fill:#0000e0;stroke:#000;stroke-width:2" d="M28,28 l39,39 0,254 -39,-39 0,-254z" />
<path style="fill:#f0f0f0;stroke:#000;stroke-width:2" d="M550,182 l-16,0 0,26 16,0 0,-26z" />
<path style="fill:#7f7f7f;stroke:#000;stroke-width:2" d="M550,192 l-16,0 0,4 16,0 0,-4z" />
<path style="fill:#7f7fff;stroke:#000;stroke-width:2" d="M961,508 l-21,0 0,-187 21,0 0,187z" />
<path style="fill:#7f7fff;stroke:#000;stroke-width:2" d="M97,508 l-21,0 0,-187 21,0 0,187z" />
<path style="fill:#f0f0f0;stroke:#000;stroke-width:2" d="M508,182 l-16,0 0,26 16,0 0,-26z" />
<path style="fill:#7f7f7f;stroke:#000;stroke-width:2" d="M508,192 l-16,0 0,4 16,0 0,-4z" />
<path style="fill:#ccc;stroke:#000;stroke-width:2" d="M952,83 l-120,0 0,120 4,3 118,-118 -2,-5z" />
<path style="fill:#e0e0e0;stroke:#000;stroke-width:2" d="M957,88 l-121,0 0,118 121,0 0,-118z" />
<path style="fill:#000;stroke:#000;stroke-width:2" d="M915,164 l9,2 2,9 -2,7 -9,5 -7,-5 -5,-7 5,-9 7,-2z" />
<path style="fill:#000;stroke:#000;stroke-width:2" d="M876,164 l7,2 4,9 -4,7 -7,5 -9,-5 -3,-7 3,-9 9,-2z" />
<path style="fill:#f00" d="M915,166 l7,3 2,6 -2,7 -7,3 -7,-3 -2,-7 2,-6 7,-3z" />
<path style="fill:#0f0" d="M876,166 l7,3 2,6 -2,7 -7,3 -7,-3 -2,-7 2,-6 7,-3z" />
<path style="fill:#000" d="M938,97 l-81,0 12,46 53,0 16,-46z" />
<path style="fill:#fff;stroke:#000;stroke-width:2" d="M931,99 l-69,0 7,28 53,0 9,-28z" />
<path style="fill:none;stroke:#000;stroke-width:2" d="M890,108 l6,19" />
<path style="fill:none;stroke:#000;stroke-width:2" d="M926,102 l0,4" />
<path style="fill:none;stroke:#000;stroke-width:2" d="M919,102 l0,4" />
<path style="fill:none;stroke:#000;stroke-width:2" d="M910,102 l0,4" />
<path style="fill:none;stroke:#000;stroke-width:2" d="M903,102 l0,4" />
<path style="fill:none;stroke:#000;stroke-width:2" d="M896,102 l0,4" />
<path style="fill:none;stroke:#000;stroke-width:2" d="M887,102 l0,4" />
<path style="fill:none;stroke:#000;stroke-width:2" d="M880,102 l0,4" />
<path style="fill:none;stroke:#000;stroke-width:2" d="M873,102 l0,4" />
<path style="fill:none;stroke:#000;stroke-width:2" d="M864,102 l0,4" />
<path style="fill:none;stroke:#69f;stroke-width:2" d="M682,312 l0,-233 -155,0" />
<path style="fill:none;stroke:#333;stroke-width:2" d="M682,312 l-155,0 0,-233" />
<path style="fill:none;stroke:#69f;stroke-width:2" d="M517,312 l0,-233 -157,0" />
<path style="fill:none;stroke:#333;stroke-width:2" d="M517,312 l-157,0 0,-233" />
<path style="fill:none;stroke:#69f;stroke-width:2" d="M213,175 l0,-71 -33,0" />
<path style="fill:none;stroke:#333;stroke-width:2" d="M213,175 l-33,0 0,-71" />
<path style="fill:none;stroke:#69f;stroke-width:2" d="M169,175 l0,-71 -33,0" />
<path style="fill:none;stroke:#333;stroke-width:2" d="M169,175 l-33,0 0,-71" />

</svg>
