 

<svg xmlns:agg="http://www.example.com" xmlns="http://www.w3.org/2000/svg" preserveAspectRatio="none" width="1.2026in" height="1.0750in" viewBox="0 0 999 893">

<path style="fill:#ccc" d="M116,307 l0,-70 34,-173 36,-19 209,-17 279,0 209,17 34,19 36,173 0,70 -837,0z" />
<path style="fill:#c7c7c7" d="M116,307 l0,-70 10,-55 801,-75 26,130 0,70 -837,0z" />
<path style="fill:#c2c2c2" d="M116,307 l0,-70 4,-28 811,-85 22,113 0,70 -837,0z" />
<path style="fill:#bdbdbd" d="M116,376 l0,-139 820,-77 17,77 0,139 -837,0z" />
<path style="fill:none;stroke:#000;stroke-width:2" d="M116,376 l0,-139 34,-173 36,-19 209,-17 279,0 209,17 34,19 36,173 0,139 -837,0" />
<path style="fill:#7f7f7f" d="M446,45 l176,0 0,53 -176,0 0,-53z" />
<path style="fill:#4c4c4c" d="M175,273 l-8,-62 8,-61 47,0 8,61 -8,62 -47,0z" />
<path style="fill:none;stroke:#fff;stroke-width:2" d="M175,273 l-8,-62 8,-61 47,0" />
<path style="fill:none;stroke:#000;stroke-width:2" d="M222,150 l8,61 -8,62 -45,0" />
<path style="fill:#4c4c4c" d="M848,273 l-8,-62 8,-61 45,0 7,61 -7,62 -45,0z" />
<path style="fill:none;stroke:#fff;stroke-width:2" d="M848,273 l-8,-62 8,-61 45,0" />
<path style="fill:none;stroke:#000;stroke-width:2" d="M893,150 l7,61 -7,62 -45,0" />
<path style="fill:#ccc" d="M133,307 l801,0 0,69 -801,0 0,-69z" />
<path style="fill:#e5e5e5" d="M934,307 l0,69 -801,0 801,-69z" />
<path style="fill:none;stroke:#7f7f7f;stroke-width:2" d="M934,307 l-801,0 0,69" />
<path style="fill:#fff" d="M107,403 l541,0 0,139 -541,0 0,-139z" />
<path style="fill:#b2b2b2" d="M961,403 l-313,0 0,139 313,0 0,-139z" />
<path style="fill:#999" d="M107,569 l854,0 0,-27 -854,0 0,27z" />
<path style="fill:none;stroke:#000;stroke-width:2" d="M107,542 l854,0 0,-139 -854,0 0,139" />
<path style="fill:#4c4c4c" d="M904,367 l49,0 0,70 -49,0 0,-70z" />
<path style="fill:#e5e5e5" d="M904,391 l49,0 0,23 -49,0 0,-23z" />
<path style="fill:#333" d="M917,397 l23,0 0,11 -23,0 0,-11z" />
<path style="fill:#4c4c4c" d="M833,367 l49,0 0,70 -49,0 0,-70z" />
<path style="fill:#e5e5e5" d="M833,391 l49,0 0,23 -49,0 0,-23z" />
<path style="fill:#333" d="M844,397 l25,0 0,11 -25,0 0,-11z" />
<path style="fill:#4c4c4c" d="M761,367 l49,0 0,70 -49,0 0,-70z" />
<path style="fill:#e5e5e5" d="M761,391 l49,0 0,23 -49,0 0,-23z" />
<path style="fill:#333" d="M772,397 l25,0 0,11 -25,0 0,-11z" />
<path style="fill:#4c4c4c" d="M689,367 l48,0 0,70 -48,0 0,-70z" />
<path style="fill:#e5e5e5" d="M689,391 l48,0 0,23 -48,0 0,-23z" />
<path style="fill:#333" d="M701,397 l24,0 0,11 -24,0 0,-11z" />
<path style="fill:#4c4c4c" d="M618,367 l47,0 0,70 -47,0 0,-70z" />
<path style="fill:#e5e5e5" d="M618,391 l47,0 0,23 -47,0 0,-23z" />
<path style="fill:#333" d="M629,397 l24,0 0,11 -24,0 0,-11z" />
<path style="fill:#4c4c4c" d="M546,367 l47,0 0,70 -47,0 0,-70z" />
<path style="fill:#e5e5e5" d="M546,391 l47,0 0,23 -47,0 0,-23z" />
<path style="fill:#333" d="M557,397 l25,0 0,11 -25,0 0,-11z" />
<path style="fill:#4c4c4c" d="M475,367 l47,0 0,70 -47,0 0,-70z" />
<path style="fill:#e5e5e5" d="M475,391 l47,0 0,23 -47,0 0,-23z" />
<path style="fill:#333" d="M486,397 l24,0 0,11 -24,0 0,-11z" />
<path style="fill:#4c4c4c" d="M403,367 l47,0 0,70 -47,0 0,-70z" />
<path style="fill:#e5e5e5" d="M403,391 l47,0 0,23 -47,0 0,-23z" />
<path style="fill:#333" d="M414,397 l25,0 0,11 -25,0 0,-11z" />
<path style="fill:#4c4c4c" d="M331,367 l47,0 0,70 -47,0 0,-70z" />
<path style="fill:#e5e5e5" d="M331,391 l47,0 0,23 -47,0 0,-23z" />
<path style="fill:#333" d="M343,397 l24,0 0,11 -24,0 0,-11z" />
<path style="fill:#4c4c4c" d="M259,367 l48,0 0,70 -48,0 0,-70z" />
<path style="fill:#e5e5e5" d="M259,391 l48,0 0,23 -48,0 0,-23z" />
<path style="fill:#333" d="M271,397 l24,0 0,11 -24,0 0,-11z" />
<path style="fill:#4c4c4c" d="M188,367 l47,0 0,70 -47,0 0,-70z" />
<path style="fill:#e5e5e5" d="M188,391 l47,0 0,23 -47,0 0,-23z" />
<path style="fill:#333" d="M199,397 l25,0 0,11 -25,0 0,-11z" />
<path style="fill:#4c4c4c" d="M116,367 l47,0 0,70 -47,0 0,-70z" />
<path style="fill:#e5e5e5" d="M116,391 l47,0 0,23 -47,0 0,-23z" />
<path style="fill:#333" d="M128,397 l24,0 0,11 -24,0 0,-11z" />
<path style="fill:#4c4c4c" d="M465,569 l140,0 0,-36 -140,0 0,36z" />
<path style="fill:#4c4c4c" d="M116,569 l140,0 0,-36 -140,0 0,36z" />
<path style="fill:#4c4c4c" d="M290,569 l139,0 0,-36 -139,0 0,36z" />
<path style="fill:#4c4c4c" d="M814,569 l139,0 0,-36 -139,0 0,36z" />
<path style="fill:#4c4c4c" d="M638,569 l140,0 0,-36 -140,0 0,36z" />
<path style="fill:#e5e5e5" d="M107,603 l854,0 0,-34 -854,0 0,34z" />
<path style="fill:#ccc" d="M107,665 l854,0 0,-62 -854,0 0,62z" />
<path style="fill:#999" d="M107,761 l854,0 0,-9 -854,0 0,9z" />
<path style="fill:none;stroke:#000;stroke-width:2" d="M107,761 l854,0 0,-192 -854,0 0,192" />
<path style="fill:#ccc" d="M98,752 l872,0 0,-17 -872,0 0,17z" />
<path style="fill:#e5e5e5" d="M98,735 l872,0 -9,-70 -854,0 -9,70z" />
<path style="fill:none;stroke:#000;stroke-width:2" d="M98,735 l0,17 872,0 0,-17 -9,-70 -854,0 -9,70" />
<path style="fill:#ccc" d="M116,761 l837,0 0,104 -837,0 0,-104z" />
<path style="fill:#c7c7c7" d="M116,835 l837,-44 0,74 -837,0 0,-30z" />
<path style="fill:#c2c2c2" d="M116,838 l837,-43 0,70 -837,0 0,-27z" />
<path style="fill:#bdbdbd" d="M116,846 l837,-44 0,63 -837,0 0,-19z" />
<path style="fill:#666" d="M116,821 l837,0 0,27 -837,0 0,-27z" />
<path style="fill:none;stroke:#000;stroke-width:2" d="M116,761 l837,0 0,104 -837,0 0,-104" />
<path style="fill:#ccc;stroke:#000;stroke-width:2" d="M28,263 l88,0 0,270 -88,0 0,-270z" />
<path style="fill:#333" d="M37,273 l79,0 0,51 -79,0 0,-51z" />
<path style="fill:#333" d="M37,333 l79,0 0,192 -79,0 0,-192z" />
<circle style="fill:#e5e5e5;stroke:#7f7f7f;stroke-width:2" cx="72" cy="298" r="18" />
<path style="fill:#000" d="M54,499 l10,0 0,7 -10,0 0,-7z" />
<path style="fill:#000" d="M90,499 l8,0 0,7 -8,0 0,-7z" />
<path style="fill:#000" d="M54,473 l10,0 0,9 -10,0 0,-9z" />
<path style="fill:#000" d="M90,473 l8,0 0,9 -8,0 0,-9z" />
<path style="fill:#ccc" d="M47,393 l60,0 0,70 -60,0 0,-70z" />
<path style="fill:#666" d="M47,360 l60,0 0,33 -60,0 0,-33z" />

</svg>
