 

<svg xmlns:agg="http://www.example.com" xmlns="http://www.w3.org/2000/svg" preserveAspectRatio="none" width="0.9061in" height="1.0750in" viewBox="0 0 842 999">

<path style="fill:#7f4c00;stroke:#000;stroke-width:2" d="M88,441 l726,0 -40,39 -117,0 0,475 -569,0 0,-475 0,-39z" />
<path style="fill:#c93" d="M107,952 l-19,-315 -21,0 0,-157 276,0 0,59 18,18 138,0 0,-77 177,0 0,77 -79,0 0,80 40,0 0,315 -530,0z" />
<path style="fill:#c7942e" d="M107,952 l-6,-78 536,-183 0,261 -530,0z" />
<path style="fill:#c28f29" d="M107,952 l-4,-59 534,-188 0,247 -530,0z" />
<path style="fill:none;stroke:#000;stroke-width:2" d="M107,952 l-19,-315 -21,0 0,-157 276,0 0,59 18,18 138,0 0,-77 177,0 0,77 -79,0 0,80 40,0 0,315 -530,0" />
<path style="fill:#4c1900" d="M441,28 l98,0 0,39 -98,0 0,-39z" />
<path style="fill:#4c1900" d="M48,754 l0,-99 40,0 0,99 -40,0z" />
<path style="fill:#630" d="M448,28 l85,0 0,39 -85,0 0,-39z" />
<path style="fill:#630" d="M48,748 l0,-87 40,0 0,87 -40,0z" />
<path style="fill:#7f4c00" d="M454,28 l71,0 0,39 -71,0 0,-39z" />
<path style="fill:#7f4c00" d="M48,741 l0,-72 40,0 0,72 -40,0z" />
<path style="fill:#960" d="M459,28 l61,0 0,39 -61,0 0,-39z" />
<path style="fill:#960" d="M48,735 l0,-61 40,0 0,61 -40,0z" />
<path style="fill:#b27f19" d="M467,28 l47,0 0,39 -47,0 0,-39z" />
<path style="fill:#b27f19" d="M48,727 l0,-47 40,0 0,47 -40,0z" />
<path style="fill:#c93" d="M473,28 l33,0 0,39 -33,0 0,-39z" />
<path style="fill:#c93" d="M48,722 l0,-34 40,0 0,34 -40,0z" />
<path style="fill:#e5b24c" d="M478,28 l23,0 0,39 -23,0 0,-39z" />
<path style="fill:#e5b24c" d="M48,716 l0,-23 40,0 0,23 -40,0z" />
<path style="fill:#fc6" d="M486,28 l9,0 0,39 -9,0 0,-39z" />
<path style="fill:#fc6" d="M48,710 l0,-9 40,0 0,9 -40,0z" />
<path style="fill:#7f4c00;stroke:#000;stroke-width:2" d="M107,67 l452,0 0,334 -452,0 0,-334z" />
<path style="fill:#b27f19;stroke:#000;stroke-width:2" d="M263,48 l159,0 0,353 -159,0 0,-353z" />
<path style="fill:#4c1900" d="M284,58 l117,0 0,18 -117,0 0,-18z" />
<path style="fill:#b27f19" d="M557,86 l178,0 0,217 39,0 0,98 -215,0 -2,-98 0,-217z" />
<path style="fill:#fc6" d="M559,86 l157,0 0,217 -157,0 0,-217z" />
<path style="fill:#b27f19" d="M126,86 l118,0 0,315 -118,0 0,-315z" />
<path style="fill:#c93;stroke:#000;stroke-width:2" d="M28,401 l786,0 0,40 -786,0 0,-40z" />
<path style="fill:#c93;stroke:#000;stroke-width:2" d="M597,554 l-9,-83 5,-61 78,0 5,61 -9,83 -70,0z" />
<path style="fill:#b27f19" d="M593,471 l10,77 58,0 10,-77 -78,0z" />
<path style="fill:#e5b24c" d="M593,471 l4,-55 70,0 4,55 -78,0z" />
<path style="fill:#e5b24c;stroke:#000;stroke-width:2" d="M603,622 l0,-68 58,0 0,68 -58,0z" />
<path style="fill:#960" d="M608,433 l-5,-4 0,-5 5,-4 8,0 6,4 0,5 -6,4 -8,0z" />
<path style="fill:#960" d="M608,446 l-5,-4 0,-5 5,-4 8,0 6,4 0,5 -6,4 -8,0z" />
<path style="fill:#960" d="M608,459 l-5,-3 0,-4 5,-4 8,0 6,4 0,4 -6,3 -8,0z" />
<path style="fill:#960" d="M648,459 l-6,-3 0,-6 6,-2 7,0 6,2 0,6 -6,3 -7,0z" />
<path style="fill:#960" d="M648,446 l-6,-4 0,-5 6,-4 7,0 6,4 0,5 -6,4 -7,0z" />
<path style="fill:#960" d="M648,433 l-6,-4 0,-5 6,-4 7,0 6,4 0,5 -6,4 -7,0z" />
<path style="fill:#000" d="M631,452 l-4,-2 0,-4 4,-2 4,0 2,2 0,4 -2,2 -4,0z" />
<path style="fill:#e5b24c" d="M112,533 l157,0 0,79 -157,0 0,-79z" />
<path style="fill:none;stroke:#960;stroke-width:2" d="M112,612 l157,0 0,-79" />
<path style="fill:none;stroke:#fc6;stroke-width:2" d="M269,533 l-157,0 0,79" />
<circle style="fill:#fc6" cx="636" cy="204" r="39" />
<path style="fill:#fff" d="M637,205 l-40,-8 7,-15 12,-11 21,34 39,7 -5,15 -12,12 -22,-34z" />
<path style="fill:#c93" d="M637,205 l-38,7 -2,-15 40,8 39,-8 0,15 -39,-7z" />
<circle style="fill:none;stroke:#000;stroke-width:2" cx="636" cy="204" r="39" />
<circle style="fill:#000" cx="637" cy="205" r="19" />
<path style="fill:none;stroke:#000;stroke-width:2" d="M441,28 l98,0 0,39 -98,0 0,-39" />
<path style="fill:none;stroke:#000;stroke-width:2" d="M48,754 l0,-99 40,0 0,99 -40,0" />
<path style="fill:#fc6" d="M92,395 l663,0 0,6 -663,0 0,-6z" />
<path style="fill:#c93;stroke:#000;stroke-width:2" d="M361,637 l21,-551 177,0 19,551 -19,18 -177,0 -21,-18z" />
<path style="fill:#b27f19;stroke:#000;stroke-width:2" d="M395,637 l-9,-10 0,-11 9,-9 12,0 9,9 0,11 -9,10 -12,0z" />
<path style="fill:#b27f19;stroke:#000;stroke-width:2" d="M533,637 l-9,-10 0,-11 9,-9 11,0 10,9 0,11 -10,10 -11,0z" />
<path style="fill:#960" d="M501,343 l-2,0 -4,-4 0,-191 4,-2 2,0 4,2 0,191 -4,4z" />
<path style="fill:#960" d="M442,343 l-3,0 -2,-4 0,-191 2,-2 3,0 4,2 0,191 -4,4z" />
<ellipse style="fill:#960" cx="469" cy="263" rx="10" ry="98" />
<path style="fill:#c93;stroke:#000;stroke-width:2" d="M76,955 l630,0 0,15 -630,0 0,-15z" />

</svg>
