 

<svg xmlns:agg="http://www.example.com" xmlns="http://www.w3.org/2000/svg" preserveAspectRatio="none" width="1.2026in" height="1.0750in" viewBox="0 0 999 893">

<path style="fill:#666" d="M902,797 l-577,0 0,-10 577,0 0,10z" />
<path style="fill:#ccc" d="M902,269 l-577,0 0,518 577,0 0,-518z" />
<path style="fill:#c7c7c7" d="M902,636 l-577,-216 0,367 577,0 0,-151z" />
<path style="fill:#c2c2c2" d="M902,659 l-577,-217 0,345 577,0 0,-128z" />
<path style="fill:#bdbdbd" d="M902,691 l-577,-216 0,312 577,0 0,-96z" />
<path style="fill:none;stroke:#000;stroke-width:2" d="M902,269 l-577,0 0,518 577,0 0,-518" />
<path style="fill:#d9d9d9" d="M883,325 l-538,0 0,97 538,0 0,-97z" />
<path style="fill:none;stroke:#666;stroke-width:2" d="M883,769 l-538,0 0,-444" />
<path style="fill:#333" d="M883,322 l-538,0 0,-6 538,0 0,6z" />
<path style="fill:none;stroke:#666;stroke-width:2" d="M883,278 l-538,0" />
<path style="fill:#7f7f7f;stroke:#000;stroke-width:2" d="M902,759 l62,-68 0,-341 -62,0 0,409z" />
<path style="fill:#7f7f7f;stroke:#000;stroke-width:2" d="M902,288 l62,0 0,24 -62,0 0,-24z" />
<path style="fill:#f2f2f2" d="M648,325 l-68,0 0,55 68,0 0,-55z" />
<path style="fill:#bf723f" d="M648,325 l-68,0 0,16 68,0 0,-16z" />
<path style="fill:#333" d="M475,341 l-87,0 0,62 87,0 0,-62z" />
<path style="fill:#b2b2b2" d="M427,369 l-28,0 0,25 28,0 0,-25z" />
<path style="fill:#333;stroke:#000;stroke-width:2" d="M902,269 l-37,-19 -500,0 -40,19 577,0z" />
<path style="fill:#7f7f7f;stroke:#000;stroke-width:2" d="M865,250 l37,-213 -577,0 40,213 500,0z" />
<path style="fill:#666" d="M819,229 l31,-171 -217,0 0,171 186,0z" />
<path style="fill:#666" d="M414,229 l-30,-171 211,0 0,171 -181,0z" />
<path style="fill:#ccc;stroke:#000;stroke-width:2" d="M902,28 l0,9 -577,0 0,-9 577,0z" />
<path style="fill:#666;stroke:#000;stroke-width:2" d="M902,787 l68,0 -68,-18 0,18z" />
<circle style="fill:#333;stroke:#000;stroke-width:2" cx="927" cy="831" r="34" />
<path style="fill:#ccc;stroke:#000;stroke-width:2" d="M942,787 l0,49 -15,10 -15,-10 0,-49 30,0z" />
<path style="fill:#666;stroke:#000;stroke-width:2" d="M325,787 l-65,0 65,-18 0,18z" />
<circle style="fill:#333;stroke:#000;stroke-width:2" cx="302" cy="831" r="33" />
<path style="fill:#ccc;stroke:#000;stroke-width:2" d="M288,787 l0,49 13,10 15,-10 0,-49 -28,0z" />
<path style="fill:#e5e5e5" d="M325,297 l-86,0 0,279 86,0 0,-279z" />
<path style="fill:#e0e0e0" d="M325,409 l-86,-53 0,115 86,0 0,-62z" />
<path style="fill:#dbdbdb" d="M325,429 l-86,-54 0,96 86,0 0,-42z" />
<path style="fill:#d6d6d6" d="M325,446 l-86,-52 0,182 86,0 0,-130z" />
<path style="fill:none;stroke:#000;stroke-width:2" d="M325,297 l-86,0 0,279 86,0 0,-279" />
<path style="fill:#000" d="M883,260 l0,-49 -9,-57 -9,0 9,57 0,49 9,0z" />
<path style="fill:#000" d="M345,260 l0,-49 9,-57 11,0 -11,57 0,49 -9,0z" />
<path style="fill:#333" d="M307,356 l-47,0 0,13 47,0 0,-13z" />
<path style="fill:#333;stroke:#000;stroke-width:2" d="M325,682 l-22,28 -21,0 -17,-19 -5,-115 22,0 6,97 7,0 30,-38 0,47z" />
<path style="fill:#7f7f7f" d="M325,586 l-297,0 0,105 297,0 0,-105z" />
<path style="fill:#8c8c8c" d="M325,591 l-297,0 0,97 297,0 0,-97z" />
<path style="fill:#999" d="M325,595 l-297,0 0,87 297,0 0,-87z" />
<path style="fill:#a6a6a6" d="M325,601 l-297,0 0,77 297,0 0,-77z" />
<path style="fill:#b2b2b2" d="M325,604 l-297,0 0,69 297,0 0,-69z" />
<path style="fill:#bfbfbf" d="M325,610 l-297,0 0,59 297,0 0,-59z" />
<path style="fill:#ccc" d="M325,614 l-297,0 0,49 297,0 0,-49z" />
<path style="fill:#d9d9d9" d="M325,620 l-297,0 0,39 297,0 0,-39z" />
<path style="fill:#e5e5e5" d="M325,623 l-297,0 0,30 297,0 0,-30z" />
<path style="fill:#f2f2f2" d="M325,629 l-297,0 0,21 297,0 0,-21z" />
<path style="fill:#fff" d="M325,633 l-297,0 0,11 297,0 0,-11z" />
<path style="fill:#7f7f7f" d="M105,604 l-77,0 0,21 77,0 0,-21z" />
<path style="fill:#7f7f7f" d="M105,653 l-77,0 0,20 77,0 0,-20z" />
<path style="fill:none;stroke:#000;stroke-width:2" d="M325,586 l-297,0 0,105 297,0 0,-105" />
<path style="fill:#7f7f7f" d="M135,567 l-30,0 0,143 30,0 0,-143z" />
<path style="fill:#8c8c8c" d="M135,572 l-30,0 0,133 30,0 0,-133z" />
<path style="fill:#999" d="M135,580 l-30,0 0,119 30,0 0,-119z" />
<path style="fill:#a6a6a6" d="M135,586 l-30,0 0,105 30,0 0,-105z" />
<path style="fill:#b2b2b2" d="M135,593 l-30,0 0,93 30,0 0,-93z" />
<path style="fill:#bfbfbf" d="M135,599 l-30,0 0,79 30,0 0,-79z" />
<path style="fill:#ccc" d="M135,604 l-30,0 0,69 30,0 0,-69z" />
<path style="fill:#d9d9d9" d="M135,612 l-30,0 0,55 30,0 0,-55z" />
<path style="fill:#e5e5e5" d="M135,618 l-30,0 0,41 30,0 0,-41z" />
<path style="fill:#f2f2f2" d="M135,623 l-30,0 0,30 30,0 0,-30z" />
<path style="fill:#fff" d="M135,631 l-30,0 0,15 30,0 0,-15z" />
<path style="fill:none;stroke:#000;stroke-width:2" d="M135,567 l-30,0 0,143 30,0 0,-143" />

</svg>
