 

<svg xmlns:agg="http://www.example.com" xmlns="http://www.w3.org/2000/svg" preserveAspectRatio="none" width="1.3017in" height="1.0750in" viewBox="0 0 999 825">

<path style="fill:#ccc" d="M344,363 l96,0 0,15 -96,0 0,-15z" />
<path style="fill:#ccc" d="M499,363 l96,0 0,15 -96,0 0,-15z" />
<path style="fill:#ccc" d="M344,407 l96,0 0,14 -96,0 0,-14z" />
<path style="fill:#ccc" d="M499,407 l96,0 0,14 -96,0 0,-14z" />
<path style="fill:#ccc" d="M344,450 l96,0 0,15 -96,0 0,-15z" />
<path style="fill:#ccc" d="M499,450 l96,0 0,15 -96,0 0,-15z" />
<path style="fill:#ccc" d="M344,493 l96,0 0,15 -96,0 0,-15z" />
<path style="fill:#ccc" d="M499,493 l96,0 0,15 -96,0 0,-15z" />
<path style="fill:#ccc" d="M440,537 l0,-202 59,0 0,202 -59,0z" />
<path style="fill:#ccc" d="M316,537 l307,0 0,30 -307,0 0,-30z" />
<path style="fill:#ccc" d="M595,537 l0,-202 28,0 0,202 -28,0z" />
<path style="fill:#ccc" d="M316,306 l307,0 0,29 -307,0 0,-29z" />
<path style="fill:#ccc" d="M316,335 l28,0 0,202 -28,0 0,-202z" />
<path style="fill:none;stroke:#000;stroke-width:2" d="M344,508 l96,0 0,29 -96,0 0,-29" />
<path style="fill:none;stroke:#000;stroke-width:2" d="M499,508 l96,0 0,29 -96,0 0,-29" />
<path style="fill:none;stroke:#000;stroke-width:2" d="M344,465 l96,0 0,28 -96,0 0,-28" />
<path style="fill:none;stroke:#000;stroke-width:2" d="M499,465 l96,0 0,28 -96,0 0,-28" />
<path style="fill:none;stroke:#000;stroke-width:2" d="M344,421 l96,0 0,29 -96,0 0,-29" />
<path style="fill:none;stroke:#000;stroke-width:2" d="M499,421 l96,0 0,29 -96,0 0,-29" />
<path style="fill:none;stroke:#000;stroke-width:2" d="M344,335 l96,0 0,28 -96,0 0,-28" />
<path style="fill:none;stroke:#000;stroke-width:2" d="M499,335 l96,0 0,28 -96,0 0,-28" />
<path style="fill:none;stroke:#000;stroke-width:2" d="M316,306 l307,0 0,261 -307,0 0,-261" />
<path style="fill:none;stroke:#000;stroke-width:2" d="M344,378 l96,0 0,29 -96,0 0,-29" />
<path style="fill:none;stroke:#000;stroke-width:2" d="M499,378 l96,0 0,29 -96,0 0,-29" />
<path style="fill:#999;stroke:#000;stroke-width:2" d="M893,663 l78,0 0,128 -78,0 0,-128z" />
<path style="fill:#999;stroke:#000;stroke-width:2" d="M27,205 l78,0 0,130 -78,0 0,-130z" />
<path style="fill:#999;stroke:#000;stroke-width:2" d="M46,567 l617,0 0,56 -617,0 0,-56z" />
<path style="fill:#4c4c4c;stroke:#000;stroke-width:2" d="M124,623 l769,0 0,159 -769,0 0,-159z" />
<path style="fill:#333" d="M393,595 l230,0 0,10 -230,0 0,-10z" />
<path style="fill:#bfbfbf" d="M67,182 l826,0 0,153 -826,0 0,-153z" />
<path style="fill:none;stroke:#000;stroke-width:2" d="M67,201 l826,0" />
<path style="fill:none;stroke:#000;stroke-width:2" d="M67,182 l826,0 0,153 -826,0 0,-153" />
<path style="fill:#ccc" d="M663,258 l230,0 0,424 -230,0 0,-424z" />
<path style="fill:#c7c7c7" d="M663,467 l230,-113 0,328 -230,0 0,-215z" />
<path style="fill:#c2c2c2" d="M663,478 l230,-113 0,317 -230,0 0,-204z" />
<path style="fill:#bdbdbd" d="M663,495 l230,-113 0,300 -230,0 0,-187z" />
<path style="fill:none;stroke:#000;stroke-width:2" d="M663,258 l230,0 0,424 -230,0 0,-424" />
<path style="fill:#ccc" d="M46,258 l232,0 0,269 -232,0 0,-269z" />
<path style="fill:#c7c7c7" d="M46,450 l232,-113 0,190 -232,0 0,-77z" />
<path style="fill:#c2c2c2" d="M46,461 l232,-113 0,179 -232,0 0,-66z" />
<path style="fill:#bdbdbd" d="M46,478 l232,-113 0,162 -232,0 0,-49z" />
<path style="fill:none;stroke:#000;stroke-width:2" d="M46,258 l232,0 0,269 -232,0 0,-269" />
<path style="fill:#f60;stroke:#000;stroke-width:2" d="M161,450 l174,0 0,232 -174,0 0,-232z" />
<path style="fill:#f60;stroke:#000;stroke-width:2" d="M682,450 l174,0 0,232 -174,0 0,-232z" />
<path style="fill:#999" d="M720,567 l192,0 0,19 -192,0 0,-19z" />
<path style="fill:#ccc" d="M720,490 l192,0 0,75 -192,0 0,-75z" />
<path style="fill:none;stroke:#000;stroke-width:2" d="M720,490 l192,0 0,96 -192,0 0,-96" />
<path style="fill:none;stroke:#fff;stroke-width:2" d="M278,276 l385,0" />
<path style="fill:none;stroke:#000;stroke-width:2" d="M278,273 l385,0" />
<path style="fill:#ccc" d="M220,27 l500,0 0,155 -500,0 0,-155z" />
<path style="fill:#999" d="M720,65 l-500,0 0,-13 500,0 0,13z" />
<path style="fill:#999" d="M720,142 l-500,0 0,-15 500,0 0,15z" />
<path style="fill:#999" d="M67,201 l828,0 0,13 -828,0 0,-13z" />
<path style="fill:#333" d="M722,52 l-502,0 0,-15 502,0 0,15z" />
<path style="fill:#4c4c4c" d="M229,138 l31,0 0,44 -31,0 0,-44z" />
<path style="fill:#4c4c4c" d="M682,138 l29,0 0,44 -29,0 0,-44z" />
<path style="fill:#7f7f7f;stroke:#000;stroke-width:2" d="M350,663 l-34,75 -10,-66 44,-9z" />
<path style="fill:#b2b2b2;stroke:#000;stroke-width:2" d="M124,738 l192,0 -10,-66 -33,0 0,10 -20,0 0,-10 -67,0 0,10 -19,0 0,-10 -34,0 -9,66z" />
<path style="fill:#ccc;stroke:#000;stroke-width:2" d="M90,663 l34,75 9,-66 -43,-9z" />
<path style="fill:#fc0" d="M226,503 l47,0 0,40 -47,0 0,-40z" />
<path style="fill:#fc0" d="M167,455 l40,0 0,19 -40,0 0,-19z" />
<path style="fill:#fc0" d="M292,455 l39,0 0,19 -39,0 0,-19z" />
<path style="fill:#4c4c4c" d="M148,335 l38,0 0,19 -38,0 0,-19z" />
<path style="fill:#4c4c4c" d="M759,335 l38,0 0,19 -38,0 0,-19z" />
<path style="fill:#fc0" d="M797,387 l68,0 0,63 -68,0 0,-63z" />
<path style="fill:#fc0" d="M692,387 l65,0 0,53 -65,0 0,-53z" />
<path style="fill:#fc0" d="M188,387 l65,0 0,63 -65,0 0,-63z" />
<path style="fill:#fc0" d="M80,387 l66,0 0,53 -66,0 0,-53z" />
<path style="fill:#fc0" d="M686,455 l39,0 0,19 -39,0 0,-19z" />
<path style="fill:#fc0" d="M812,455 l38,0 0,19 -38,0 0,-19z" />
<path style="fill:none;stroke:#fff;stroke-width:2" d="M735,558 l0,-59 105,0" />
<path style="fill:none;stroke:#fff;stroke-width:2" d="M856,558 l0,-59 18,0" />
<path style="fill:none;stroke:#999;stroke-width:2" d="M856,558 l18,0 0,-59" />
<path style="fill:none;stroke:#999;stroke-width:2" d="M735,558 l105,0 0,-59" />
<path style="fill:#fc0" d="M446,397 l47,0 0,40 -47,0 0,-40z" />
<path style="fill:#ccc" d="M375,605 l269,0 0,192 -269,0 0,-192z" />
<path style="fill:#c7c7c7" d="M375,740 l269,-79 0,136 -269,0 0,-57z" />
<path style="fill:#c2c2c2" d="M375,750 l269,-81 0,128 -269,0 0,-47z" />
<path style="fill:#bdbdbd" d="M375,761 l269,-81 0,117 -269,0 0,-36z" />
<path style="fill:none;stroke:#000;stroke-width:2" d="M375,605 l269,0 0,192 -269,0 0,-192" />
<path style="fill:#7f7f7f" d="M393,577 l230,0 0,18 -230,0 0,-18z" />
<path style="fill:#b2b2b2" d="M393,580 l230,0 0,11 -230,0 0,-11z" />
<path style="fill:#fff" d="M393,584 l230,0 0,4 -230,0 0,-4z" />
<path style="fill:none;stroke:#000;stroke-width:2" d="M393,577 l230,0 0,18 -230,0 0,-18" />
<path style="fill:#e5e5e5;stroke:#000;stroke-width:2" d="M356,682 l19,29 269,0 19,-29 -19,10 -269,0 -19,-10z" />
<path style="fill:#333" d="M471,682 l75,0 0,10 -75,0 0,-10z" />
<path style="fill:#f60;stroke:#000;stroke-width:2" d="M607,577 l37,0 0,-16 -37,-28 0,44z" />
<path style="fill:#f60;stroke:#000;stroke-width:2" d="M412,577 l-37,0 0,-16 37,-28 0,44z" />
<path style="fill:#f60;stroke:#000;stroke-width:2" d="M412,512 l9,0 0,65 -9,0 0,-65z" />
<path style="fill:#f60;stroke:#000;stroke-width:2" d="M595,512 l10,0 0,65 -10,0 0,-65z" />
<path style="fill:#ccc;stroke:#000;stroke-width:2" d="M623,571 l21,0 0,34 -21,0 0,-34z" />
<path style="fill:#ccc;stroke:#000;stroke-width:2" d="M375,571 l18,0 0,34 -18,0 0,-34z" />
<path style="fill:#999;stroke:#000;stroke-width:2" d="M124,738 l192,0 0,53 -192,0 0,-53z" />
<path style="fill:#ccc;stroke:#000;stroke-width:2" d="M893,663 l0,-68 10,0 30,68 -40,0z" />
<path style="fill:none;stroke:#f60;stroke-width:2" d="M716,52 l-492,0" />
<path style="fill:none;stroke:#f60;stroke-width:2" d="M76,214 l814,0" />
<path style="fill:none;stroke:#000;stroke-width:2" d="M220,27 l500,0 0,155 -500,0 0,-155" />
<path style="fill:none;stroke:#000;stroke-width:2" d="M220,127 l500,0" />

</svg>
