 

<svg xmlns:agg="http://www.example.com" xmlns="http://www.w3.org/2000/svg" preserveAspectRatio="none" width="0.9200in" height="1.0750in" viewBox="0 0 855 999">

<path style="fill:#7f7f7f;stroke:#000;stroke-width:2" d="M316,28 l223,0 0,443 -223,0 0,-443z" />
<path style="fill:#333;stroke:#000;stroke-width:2" d="M272,226 l199,0 0,112 -199,0 -11,-89 11,-23z" />
<path style="fill:#ccc" d="M304,249 l134,0 0,66 -134,0 0,-66z" />
<path style="fill:#999" d="M304,249 l134,0 0,23 -134,0 0,-23z" />
<path style="fill:#b2b2b2" d="M361,28 l132,0 0,43 -132,0 0,-43z" />
<path style="fill:#4c4c4c" d="M495,71 l-134,0 0,-23 134,0 0,23z" />
<path style="fill:none;stroke:#b2b2b2;stroke-width:2" d="M493,71 l0,356 -132,0" />
<path style="fill:none;stroke:#333;stroke-width:2" d="M493,71 l-132,0 0,356" />
<path style="fill:#b2b2b2;stroke:#666;stroke-width:2" d="M649,459 l-555,0 0,12 555,0 0,-12z" />
<path style="fill:#333" d="M649,505 l134,0 0,110 -134,0 0,-110z" />
<path style="fill:#7f7f7f;stroke:#000;stroke-width:2" d="M39,272 l55,0 0,199 -66,0 11,-199z" />
<path style="fill:#7f7f7f" d="M206,516 l443,0 0,443 -443,0 0,-443z" />
<path style="fill:#4c4c4c;stroke:#000;stroke-width:2" d="M649,637 l155,0 0,46 -155,0 0,-46z" />
<path style="fill:#7f7f7f;stroke:#000;stroke-width:2" d="M649,615 l134,0 0,-122 44,0 0,144 -178,0 0,-22z" />
<path style="fill:#666;stroke:#000;stroke-width:2" d="M649,338 l134,0 0,133 -134,0 0,-133z" />
<path style="fill:#7f7f7f;stroke:#000;stroke-width:2" d="M28,471 l799,0 0,34 -133,11 -534,0 -132,-11 0,-34z" />
<path style="fill:#666" d="M206,827 l443,0 0,132 -443,0 0,-132z" />
<path style="fill:#7a7a7a" d="M206,705 l443,-111 0,233 -443,0 0,-122z" />
<path style="fill:#757575" d="M206,737 l443,-111 0,201 -443,0 0,-90z" />
<path style="fill:#707070" d="M206,772 l443,-112 0,167 -443,0 0,-55z" />
<path style="fill:none;stroke:#000;stroke-width:2" d="M206,516 l443,0 0,443 -443,0 0,-443" />
<circle style="fill:#999;stroke:#333;stroke-width:2" cx="282" cy="577" r="56" />
<path style="fill:none;stroke:#b2b2b2;stroke-width:2" d="M249,804 l0,-133 356,0" />
<path style="fill:none;stroke:#333;stroke-width:2" d="M249,804 l356,0 0,-133" />
<path style="fill:none;stroke:#333;stroke-width:2" d="M206,649 l443,0" />
<circle style="fill:#7f7f7f" cx="282" cy="576" r="33" />
<path style="fill:none;stroke:#b2b2b2;stroke-width:2" d="M637,527 l0,116 -282,0" />
<path style="fill:none;stroke:#333;stroke-width:2" d="M637,527 l-282,0 0,116" />
<circle style="fill:#999;stroke:#333;stroke-width:2" cx="416" cy="587" r="55" />
<circle style="fill:#7f7f7f" cx="416" cy="587" r="33" />
<circle style="fill:#999;stroke:#333;stroke-width:2" cx="549" cy="587" r="56" />
<circle style="fill:#7f7f7f" cx="549" cy="587" r="33" />
<path style="fill:none;stroke:#000;stroke-width:2" d="M243,499 l362,0" />
<path style="fill:#333" d="M160,959 l89,0 0,11 -89,0 0,-11z" />
<path style="fill:#333" d="M599,959 l89,0 0,11 -89,0 0,-11z" />

</svg>
