 

<svg xmlns:agg="http://www.example.com" xmlns="http://www.w3.org/2000/svg" preserveAspectRatio="none" width="1.3226in" height="1.0750in" viewBox="0 0 999 812">

<path style="fill:#7f4c00" d="M921,195 l29,0 0,156 -29,0 0,-156z" />
<path style="fill:#8f5c00" d="M921,208 l29,0 0,130 -29,0 0,-130z" />
<path style="fill:#9e6b05" d="M921,223 l29,0 0,100 -29,0 0,-100z" />
<path style="fill:#ad7a14" d="M921,236 l29,0 0,74 -29,0 0,-74z" />
<path style="fill:#bd8a24" d="M921,250 l29,0 0,47 -29,0 0,-47z" />
<path style="fill:#c93" d="M921,265 l29,0 0,17 -29,0 0,-17z" />
<path style="fill:none;stroke:#000;stroke-width:2" d="M921,195 l29,0 0,156 -29,0 0,-156" />
<path style="fill:#7f4c00" d="M921,412 l49,0 0,176 -49,0 0,-176z" />
<path style="fill:#8f5c00" d="M921,427 l49,0 0,144 -49,0 0,-144z" />
<path style="fill:#9e6b05" d="M921,442 l49,0 0,114 -49,0 0,-114z" />
<path style="fill:#ad7a14" d="M921,457 l49,0 0,82 -49,0 0,-82z" />
<path style="fill:#bd8a24" d="M921,474 l49,0 0,50 -49,0 0,-50z" />
<path style="fill:#c93" d="M921,489 l49,0 0,20 -49,0 0,-20z" />
<path style="fill:none;stroke:#000;stroke-width:2" d="M921,412 l49,0 0,176 -49,0 0,-176" />
<path style="fill:#7f4c00" d="M872,195 l0,-98 59,0 0,98 -59,0z" />
<path style="fill:#8f5c00" d="M876,195 l0,-98 49,0 0,98 -49,0z" />
<path style="fill:#9e6b05" d="M882,195 l0,-98 37,0 0,98 -37,0z" />
<path style="fill:#ad7a14" d="M887,195 l0,-98 29,0 0,98 -29,0z" />
<path style="fill:#bd8a24" d="M893,195 l0,-98 17,0 0,98 -17,0z" />
<path style="fill:#c93" d="M899,195 l0,-98 5,0 0,98 -5,0z" />
<path style="fill:none;stroke:#000;stroke-width:2" d="M872,195 l0,-98 59,0 0,98 -59,0" />
<path style="fill:#000" d="M28,754 l942,0 0,-9 -942,0 0,9z" />
<path style="fill:#c93" d="M28,116 l707,0 0,256 -707,0 0,-256z" />
<path style="fill:#c93;stroke:#000;stroke-width:2" d="M28,628 l942,0 0,117 -942,0 0,-117z" />
<path style="fill:#c93;stroke:#000;stroke-width:2" d="M67,39 l510,0 0,19 -510,0 0,-19z" />
<path style="fill:#960;stroke:#000;stroke-width:2" d="M107,58 l430,0 0,58 -430,0 0,-58z" />
<path style="fill:#960" d="M735,628 l186,0 0,-139 -186,0 0,139z" />
<path style="fill:#c93;stroke:#000;stroke-width:2" d="M58,775 l77,0 0,9 -77,0 0,-9z" />
<path style="fill:#960;stroke:#000;stroke-width:2" d="M67,775 l59,0 0,-30 -59,0 0,30z" />
<path style="fill:#c93;stroke:#000;stroke-width:2" d="M852,775 l79,0 0,9 -79,0 0,-9z" />
<path style="fill:#960;stroke:#000;stroke-width:2" d="M861,775 l60,0 0,-30 -60,0 0,30z" />
<path style="fill:#c93" d="M735,195 l196,0 0,294 -196,0 0,-294z" />
<path style="fill:#c7942e" d="M735,404 l196,-122 0,207 -196,0 0,-85z" />
<path style="fill:#c28f29" d="M735,417 l196,-124 0,196 -196,0 0,-72z" />
<path style="fill:#bd8a24" d="M735,434 l196,-122 0,177 -196,0 0,-55z" />
<path style="fill:none;stroke:#000;stroke-width:2" d="M735,195 l196,0 0,294 -196,0 0,-294" />
<path style="fill:#f2e5cc" d="M756,351 l22,0 0,40 -22,0 0,-40z" />
<path style="fill:#333" d="M844,412 l64,0 0,58 -64,0 0,-58z" />
<path style="fill:none;stroke:#000;stroke-width:2" d="M735,195 l196,0 0,294 -196,0 0,-294" />
<path style="fill:#e5e5e5" d="M853,421 l46,0 0,19 -46,0 0,-19z" />
<path style="fill:#c7942e" d="M28,285 l707,-122 0,209 -707,0 0,-87z" />
<path style="fill:#c28f29" d="M28,299 l707,-122 0,195 -707,0 0,-73z" />
<path style="fill:#bd8a24" d="M28,317 l707,-124 0,179 -707,0 0,-55z" />
<path style="fill:none;stroke:#000;stroke-width:2" d="M28,116 l707,0 0,256 -707,0 0,-256" />
<path style="fill:#bf2600" d="M204,195 l138,0 0,40 -138,0 0,-40z" />
<path style="fill:#c93" d="M28,372 l707,0 0,256 -707,0 0,-256z" />
<path style="fill:#c7942e" d="M28,541 l707,-122 0,209 -707,0 0,-87z" />
<path style="fill:#c28f29" d="M28,554 l707,-124 0,198 -707,0 0,-74z" />
<path style="fill:#bd8a24" d="M28,571 l707,-122 0,179 -707,0 0,-57z" />
<path style="fill:none;stroke:#000;stroke-width:2" d="M28,372 l707,0 0,256 -707,0 0,-256" />
<path style="fill:#c93;stroke:#000;stroke-width:2" d="M156,58 l26,0 0,58 -26,0 0,-58z" />
<path style="fill:#c93;stroke:#000;stroke-width:2" d="M261,58 l26,0 0,58 -26,0 0,-58z" />
<path style="fill:#c93;stroke:#000;stroke-width:2" d="M366,58 l27,0 0,58 -27,0 0,-58z" />
<path style="fill:#c93;stroke:#000;stroke-width:2" d="M472,58 l26,0 0,58 -26,0 0,-58z" />
<path style="fill:#bf2600;stroke:#000;stroke-width:2" d="M86,39 l472,0 0,-11 -472,0 0,11z" />
<path style="fill:#8c5900" d="M735,539 l186,-30 0,-20 -186,0 0,50z" />
<path style="fill:none;stroke:#000;stroke-width:2" d="M735,628 l186,0 0,-139 -186,0 0,139" />
<path style="fill:none;stroke:#fc6;stroke-width:2" d="M735,376 l-707,0" />
<path style="fill:none;stroke:#7f4c00;stroke-width:2" d="M735,372 l-707,0" />
<path style="fill:none;stroke:#fc6;stroke-width:2" d="M970,632 l-942,0" />
<path style="fill:none;stroke:#7f4c00;stroke-width:2" d="M735,628 l-707,0" />

</svg>
