 

<svg xmlns:agg="http://www.example.com" xmlns="http://www.w3.org/2000/svg" preserveAspectRatio="none" width="1.1947in" height="1.0750in" viewBox="0 0 998 898">

<path style="fill:#7f7f7f;stroke:#000;stroke-width:2" d="M593,369 l96,0 0,-166 -96,0 0,166z" />
<path style="fill:#666" d="M288,831 l-19,-102 -60,-19 0,-100 39,-21 -20,-20 0,-60 722,0 0,80 -19,40 0,202 -643,0z" />
<path style="fill:#616161" d="M288,831 l-19,-102 -60,-19 0,-15 741,-106 -19,40 0,202 -643,0z" />
<path style="fill:#5c5c5c" d="M288,831 l-19,-102 -43,-13 712,-102 -7,15 0,202 -643,0z" />
<path style="fill:#575757" d="M288,831 l-19,-102 662,-89 0,191 -643,0z" />
<path style="fill:none;stroke:#000;stroke-width:2" d="M288,831 l-19,-102 -60,-19 0,-100 39,-21 -20,-20 0,-60 722,0 0,80 -19,40 0,202 -643,0" />
<path style="fill:#4c4c4c;stroke:#000;stroke-width:2" d="M710,390 l40,0 0,79 -40,0 0,-79z" />
<path style="fill:#666" d="M309,640 l130,0 0,170 -130,0 0,-170z" />
<path style="fill:#333" d="M831,550 l79,0 0,79 -79,0 0,-79z" />
<path style="fill:#4c4c4c;stroke:#000;stroke-width:2" d="M614,390 l66,0 0,64 -66,0 0,-64z" />
<path style="fill:#7f7f7f;stroke:#000;stroke-width:2" d="M569,28 l120,0 0,175 -120,0 0,-175z" />
<path style="fill:#7f7f7f" d="M489,369 l261,0 0,21 -261,0 0,-21z" />
<path style="fill:#7f7f7f" d="M248,329 l241,0 0,140 -241,0 0,-140z" />
<path style="fill:#666" d="M228,831 l742,0 0,39 -742,0 0,-39z" />
<path style="fill:none;stroke:#000;stroke-width:2" d="M248,589 l0,121" />
<path style="fill:#7f7f7f;stroke:#000;stroke-width:2" d="M369,509 l220,0 0,180 -141,0 0,-60 -79,0 0,-120z" />
<path style="fill:#b2b2b2" d="M970,469 l-461,0 0,40 441,0 20,-40z" />
<path style="fill:#5c5c5c" d="M970,831 l0,39 -580,0 580,-39z" />
<path style="fill:none;stroke:#000;stroke-width:2" d="M228,831 l742,0 0,39 -742,0 0,-39" />
<path style="fill:#7f7f7f" d="M48,469 l461,0 0,40 -461,0 0,-40z" />
<path style="fill:none;stroke:#000;stroke-width:2" d="M970,469 l-922,0 0,40 902,0 20,-40" />
<path style="fill:none;stroke:#4c4c4c;stroke-width:2" d="M48,489 l461,0" />
<path style="fill:#7f7f7f" d="M248,469 l-200,0 -15,-13 -5,-23 0,-28 5,-23 15,-13 200,0 0,100z" />
<path style="fill:#8c8c8c" d="M248,456 l-215,0 -5,-23 0,-28 5,-23 15,-13 200,0 0,87z" />
<path style="fill:#999" d="M248,433 l-220,0 0,-28 5,-23 15,-13 200,0 0,64z" />
<path style="fill:#a6a6a6" d="M248,407 l-220,-2 5,-23 15,-13 200,0 0,38z" />
<path style="fill:#b2b2b2" d="M248,382 l-215,0 15,-13 200,0 0,13z" />
<path style="fill:none;stroke:#666;stroke-width:2" d="M209,448 l-102,0 -6,-9 -4,-19 0,-23 4,-17 6,-11 102,0 0,79" />
<path style="fill:#878787" d="M248,327 l241,0 0,82 -241,0 0,-82z" />
<path style="fill:#919191" d="M248,327 l241,0 0,59 -241,0 0,-59z" />
<path style="fill:#999" d="M248,327 l241,0 0,48 -241,0 0,-48z" />
<path style="fill:#a1a1a1" d="M248,327 l241,0 0,36 -241,0 0,-36z" />
<path style="fill:#ababab" d="M248,327 l241,0 0,25 -241,0 0,-25z" />
<path style="fill:#b2b2b2" d="M248,329 l241,0 0,12 -241,0 0,-12z" />
<path style="fill:none;stroke:#666;stroke-width:2" d="M269,329 l200,0 0,119 -200,0 0,-119" />
<path style="fill:none;stroke:#000;stroke-width:2" d="M248,469 l-200,0 -15,-13 -5,-23 0,-28 5,-23 15,-13 200,0 0,100" />
<path style="fill:none;stroke:#000;stroke-width:2" d="M248,329 l241,0 0,140 -241,0 0,-140" />
<path style="fill:#e5e5e5" d="M489,375 l261,0 0,7 -261,0 0,-7z" />
<path style="fill:none;stroke:#000;stroke-width:2" d="M489,369 l261,0 0,21 -261,0 0,-21" />
<path style="fill:#ccc;stroke:#000;stroke-width:2" d="M644,369 l-28,0 -27,-11 -18,-19 -12,-27 0,-19 142,0 0,19 -12,27 -20,19 -25,11z" />
<path style="fill:#999" d="M550,293 l-6,-54 10,-36 151,0 9,36 -4,54 -160,0z" />
<path style="fill:#b2b2b2" d="M544,239 l10,-36 151,0 9,36 -170,0z" />
<path style="fill:none;stroke:#000;stroke-width:2" d="M550,293 l-6,-54 10,-36 151,0 9,36 -4,54 -160,0" />
<path style="fill:#333" d="M589,48 l80,0 0,100 -80,0 0,-100z" />
<path style="fill:#7f7f7f;stroke:#000;stroke-width:2" d="M605,390 l9,0 0,64 -9,0 0,-64z" />
<path style="fill:#7f7f7f;stroke:#000;stroke-width:2" d="M680,390 l9,0 0,64 -9,0 0,-64z" />
<path style="fill:#4c4c4c;stroke:#000;stroke-width:2" d="M593,454 l106,0 0,15 -106,0 0,-15z" />
<path style="fill:#7f7f7f;stroke:#000;stroke-width:2" d="M740,390 l16,0 0,79 -16,0 0,-79z" />
<path style="fill:#7f7f7f;stroke:#000;stroke-width:2" d="M705,390 l15,0 0,79 -15,0 0,-79z" />
<path style="fill:#7f7f7f" d="M489,269 l0,60 -41,0 0,-60 41,0z" />
<path style="fill:#999" d="M486,269 l0,60 -34,0 0,-60 34,0z" />
<path style="fill:#b2b2b2" d="M482,269 l0,60 -26,0 0,-60 26,0z" />
<path style="fill:#ccc" d="M478,269 l0,60 -18,0 0,-60 18,0z" />
<path style="fill:#e5e5e5" d="M474,269 l0,60 -11,0 0,-60 11,0z" />
<path style="fill:#fff" d="M471,269 l0,60 -4,0 0,-60 4,0z" />
<path style="fill:none;stroke:#000;stroke-width:2" d="M489,269 l0,60 -41,0 0,-60 41,0" />
<path style="fill:none;stroke:#b2b2b2;stroke-width:2" d="M309,810 l0,-170 130,0" />
<path style="fill:none;stroke:#333;stroke-width:2" d="M309,810 l130,0 0,-170" />
<path style="fill:#666" d="M608,629 l81,0 0,121 -81,0 0,-121z" />
<path style="fill:none;stroke:#b2b2b2;stroke-width:2" d="M608,750 l0,-121 81,0" />
<path style="fill:none;stroke:#333;stroke-width:2" d="M608,750 l81,0 0,-121" />
<path style="fill:none;stroke:#333;stroke-width:2" d="M454,831 l0,-66 251,0 0,-121 214,0 0,-94" />
<path style="fill:#666" d="M665,520 l109,0 0,69 -109,0 0,-69z" />
<path style="fill:none;stroke:#b2b2b2;stroke-width:2" d="M665,589 l0,-69 109,0" />
<path style="fill:none;stroke:#333;stroke-width:2" d="M665,589 l109,0 0,-69" />
<circle style="fill:#b2b2b2;stroke:#000;stroke-width:2" cx="719" cy="549" r="20" />

</svg>
