 

<svg xmlns:agg="http://www.example.com" xmlns="http://www.w3.org/2000/svg" preserveAspectRatio="none" width="0.6650in" height="1.0750in" viewBox="0 0 618 999">

<path style="fill:#666" d="M505,908 l-394,0 0,19 394,0 0,-19z" />
<path style="fill:#666" d="M559,944 l0,-430 -501,0 0,430 53,0 0,-287 394,0 0,287 54,0z" />
<path style="fill:#ccc;stroke:#000;stroke-width:2" d="M529,931 l-441,0 0,19 441,0 0,-19z" />
<path style="fill:#d9d9d9" d="M590,650 l-142,139 -281,0 -139,-139 562,0z" />
<path style="fill:#d1d1d1" d="M574,665 l-126,124 -281,0 -124,-124 531,0z" />
<path style="fill:#ccc" d="M558,680 l-110,109 -281,0 -109,-109 500,0z" />
<path style="fill:#c4c4c4" d="M542,695 l-94,94 -281,0 -94,-94 469,0z" />
<path style="fill:#bfbfbf" d="M527,710 l-79,79 -281,0 -77,-79 437,0z" />
<path style="fill:#b8b8b8" d="M512,725 l-64,64 -281,0 -62,-64 407,0z" />
<path style="fill:#b2b2b2" d="M497,740 l-49,49 -281,0 -47,-49 377,0z" />
<path style="fill:#ababab" d="M482,755 l-34,34 -281,0 -32,-34 347,0z" />
<path style="fill:#a6a6a6" d="M467,772 l-19,17 -281,0 -17,-17 317,0z" />
<path style="fill:none;stroke:#000;stroke-width:2" d="M590,650 l-142,139 -281,0 -139,-139" />
<path style="fill:#191919;stroke:#000;stroke-width:2" d="M448,789 l-19,61 -241,0 -21,-61 281,0z" />
<path style="fill:#333;stroke:#000;stroke-width:2" d="M429,910 l0,-60 -241,0 0,60 241,0z" />
<path style="fill:#e5e5e5" d="M590,970 l0,-481 -562,0 0,481 60,0 0,-320 441,0 0,320 61,0z" />
<circle style="fill:#666" cx="379" cy="559" r="50" />
<circle style="fill:#666" cx="238" cy="559" r="50" />
<path style="fill:#e5e5e5;stroke:#000;stroke-width:2" d="M580,128 l-71,0 0,30 -400,0 0,-30 -72,0 0,60 543,0 0,-60z" />
<path style="fill:#f2f2f2" d="M580,188 l-543,0 -9,301 562,0 -10,-301z" />
<circle style="fill:#000" cx="379" cy="559" r="40" />
<circle style="fill:#000" cx="238" cy="559" r="40" />
<path style="fill:#7f7f7f;stroke:#000;stroke-width:2" d="M213,407 l11,1 169,0 12,-1 9,-6 8,-8 3,-9 4,-9 0,-91 -4,-11 -3,-10 -8,-7 -9,-4 -12,-4 -169,0 -11,4 -10,4 -7,7 -4,10 -4,11 0,91 4,9 4,9 7,8 10,6z" />
<path style="fill:#333" d="M224,395 l9,4 151,0 9,-4 10,-3 7,-8 6,-9 4,-12 0,-69 -4,-12 -6,-7 -7,-8 -10,-5 -9,-4 -151,0 -11,4 -8,5 -7,8 -6,7 -3,12 0,69 3,12 6,9 7,8 10,3z" />
<path style="fill:none;stroke:#fff;stroke-width:2" d="M348,369 l-79,-81" />
<path style="fill:none;stroke:#fff;stroke-width:2" d="M288,339 l-49,-51" />
<path style="fill:none;stroke:#fff;stroke-width:2" d="M369,329 l-51,-50" />
<path style="fill:none;stroke:#000;stroke-width:2" d="M590,970 l0,-481 -10,-301 -543,0 -9,303 0,479 60,0 0,-320 441,0 0,320 61,0" />
<path style="fill:#ccc;stroke:#000;stroke-width:2" d="M509,139 l-400,0 0,19 400,0 0,-19z" />
<path style="fill:#333;stroke:#000;stroke-width:2" d="M167,28 l-70,0 0,111 70,0 0,-111z" />
<path style="fill:none;stroke:#666;stroke-width:2" d="M158,58 l0,81" />
<path style="fill:none;stroke:#666;stroke-width:2" d="M149,58 l0,81" />
<path style="fill:none;stroke:#666;stroke-width:2" d="M139,58 l0,81" />
<path style="fill:none;stroke:#666;stroke-width:2" d="M128,58 l0,81" />
<path style="fill:none;stroke:#666;stroke-width:2" d="M118,58 l0,81" />
<path style="fill:none;stroke:#666;stroke-width:2" d="M109,58 l0,81" />
<path style="fill:#000;stroke:#000;stroke-width:2" d="M179,58 l-40,0 0,51 40,0 0,-51z" />
<path style="fill:none;stroke:#000;stroke-width:2" d="M299,139 l-81,-21 -20,-9 -19,-21" />

</svg>
