 

<svg xmlns:agg="http://www.example.com" xmlns="http://www.w3.org/2000/svg" preserveAspectRatio="none" width="1.6083in" height="0.9756in" viewBox="0 0 999 606">

<path style="fill:#ccc" d="M28,116 l30,0 0,462 -30,0 0,-462z" />
<path style="fill:#b2b2b2" d="M28,294 l30,0 0,284 -30,0 0,-284z" />
<path style="fill:#999" d="M28,373 l30,0 0,205 -30,0 0,-205z" />
<path style="fill:#7f7f7f" d="M28,529 l30,0 0,49 -30,0 0,-49z" />
<path style="fill:none;stroke:#000;stroke-width:2" d="M28,116 l30,0 0,462 -30,0 0,-462" />
<path style="fill:#333" d="M86,322 l826,0 0,21 -826,0 0,-21z" />
<path style="fill:#333;stroke:#000;stroke-width:2" d="M86,450 l30,0 0,21 187,0 0,-49 98,0 0,126 147,0 0,-77 -147,0 0,-12 187,0 0,-18 49,0 0,18 116,0 0,-37 80,0 0,126 9,0 0,-68 70,0 0,98 -826,0 0,-128z" />
<path style="fill:#4c4c4c" d="M145,431 l79,0 0,147 -79,0 0,-147z" />
<path style="fill:#666;stroke:#000;stroke-width:2" d="M28,271 l942,0 0,34 -942,0 0,-34z" />
<path style="fill:#666" d="M28,524 l942,0 0,30 -942,0 0,-30z" />
<path style="fill:#666;stroke:#000;stroke-width:2" d="M28,361 l942,0 0,23 -942,0 0,-23z" />
<path style="fill:#7f7f7f" d="M28,365 l942,0 0,13 -942,0 0,-13z" />
<path style="fill:#7f7f7f" d="M28,529 l942,0 0,19 -942,0 0,-19z" />
<path style="fill:#7f7f7f" d="M28,278 l942,0 0,21 -942,0 0,-21z" />
<path style="fill:#999" d="M28,284 l942,0 0,10 -942,0 0,-10z" />
<path style="fill:#999" d="M28,369 l942,0 0,6 -942,0 0,-6z" />
<path style="fill:#999" d="M28,535 l942,0 0,7 -942,0 0,-7z" />
<path style="fill:none;stroke:#000;stroke-width:2" d="M28,524 l942,0 0,30 -942,0 0,-30" />
<path style="fill:#030;stroke:#000;stroke-width:2" d="M101,245 l796,0 0,22 5,-2 0,46 -5,0 0,22 -796,0 0,-22 -5,0 0,-46 5,2 0,-22z" />
<path style="fill:#666;stroke:#000;stroke-width:2" d="M101,343 l796,0 0,15 3,0 0,28 -3,0 0,15 -796,0 0,-15 -5,0 0,-28 5,0 0,-15z" />
<path style="fill:#666;stroke:#000;stroke-width:2" d="M101,499 l796,0 0,21 3,0 0,37 -3,0 0,21 -796,0 0,-21 -5,0 0,-37 5,0 0,-21z" />
<path style="fill:#7f7f7f" d="M107,343 l784,0 0,58 -784,0 0,-58z" />
<path style="fill:#7f7f7f" d="M107,499 l784,0 0,79 -784,0 0,-79z" />
<path style="fill:#919191" d="M107,505 l784,0 0,68 -784,0 0,-68z" />
<path style="fill:#919191" d="M107,346 l784,0 0,51 -784,0 0,-51z" />
<path style="fill:#a1a1a1" d="M107,352 l784,0 0,40 -784,0 0,-40z" />
<path style="fill:#a1a1a1" d="M107,512 l784,0 0,55 -784,0 0,-55z" />
<path style="fill:#b2b2b2" d="M107,518 l784,0 0,41 -784,0 0,-41z" />
<path style="fill:#b2b2b2" d="M107,356 l784,0 0,32 -784,0 0,-32z" />
<path style="fill:#c4c4c4" d="M107,360 l784,0 0,22 -784,0 0,-22z" />
<path style="fill:#c4c4c4" d="M107,524 l784,0 0,30 -784,0 0,-30z" />
<path style="fill:#d4d4d4" d="M107,529 l784,0 0,19 -784,0 0,-19z" />
<path style="fill:#d4d4d4" d="M107,365 l784,0 0,13 -784,0 0,-13z" />
<path style="fill:#e5e5e5" d="M107,369 l784,0 0,6 -784,0 0,-6z" />
<path style="fill:#e5e5e5" d="M107,535 l784,0 0,7 -784,0 0,-7z" />
<path style="fill:#696" d="M105,245 l786,0 0,88 -786,0 0,-88z" />
<path style="fill:#78ab78" d="M107,250 l784,0 0,75 -784,0 0,-75z" />
<path style="fill:#87ba87" d="M107,258 l784,0 0,62 -784,0 0,-62z" />
<path style="fill:#9c9" d="M107,265 l784,0 0,47 -784,0 0,-47z" />
<path style="fill:#abdeab" d="M107,271 l784,0 0,34 -784,0 0,-34z" />
<path style="fill:#baedba" d="M107,278 l784,0 0,21 -784,0 0,-21z" />
<path style="fill:#cfc" d="M105,284 l786,0 0,8 -786,0 0,-8z" />
<path style="fill:none;stroke:#363;stroke-width:2" d="M105,245 l786,0 0,88 -786,0 0,-88" />
<path style="fill:#ccc;stroke:#000;stroke-width:2" d="M86,401 l826,0 0,21 -826,0 0,-21z" />
<path style="fill:#ccc;stroke:#000;stroke-width:2" d="M86,578 l0,-471 826,0 0,471 28,0 0,-550 -882,0 0,550 28,0z" />
<path style="fill:none;stroke:#000;stroke-width:2" d="M107,499 l784,0 0,79 -784,0 0,-79" />
<path style="fill:none;stroke:#000;stroke-width:2" d="M107,343 l784,0 0,58 -784,0 0,-58" />
<path style="fill:none;stroke:#000;stroke-width:2" d="M86,107 l0,-79" />
<path style="fill:none;stroke:#000;stroke-width:2" d="M912,107 l0,-79" />
<path style="fill:none;stroke:#fff;stroke-width:2" d="M96,92 l0,-49 801,0" />
<path style="fill:none;stroke:#999;stroke-width:2" d="M96,92 l801,0 0,-49" />
<path style="fill:#b2b2b2" d="M62,573 l0,-68 20,0 0,68 -20,0z" />
<path style="fill:#b2b2b2" d="M62,397 l0,-49 20,0 0,49 -20,0z" />
<path style="fill:#b2b2b2" d="M62,327 l0,-79 20,0 0,79 -20,0z" />
<path style="fill:#b2b2b2" d="M916,573 l0,-68 20,0 0,68 -20,0z" />
<path style="fill:#b2b2b2" d="M916,397 l0,-49 20,0 0,49 -20,0z" />
<path style="fill:#b2b2b2" d="M916,327 l0,-79 20,0 0,79 -20,0z" />
<path style="fill:none;stroke:#666;stroke-width:2" d="M82,505 l-20,0 0,68" />
<path style="fill:none;stroke:#666;stroke-width:2" d="M82,348 l-20,0 0,49" />
<path style="fill:none;stroke:#666;stroke-width:2" d="M82,248 l-20,0 0,79" />
<path style="fill:none;stroke:#666;stroke-width:2" d="M936,505 l-20,0 0,68" />
<path style="fill:none;stroke:#666;stroke-width:2" d="M936,348 l-20,0 0,49" />
<path style="fill:none;stroke:#666;stroke-width:2" d="M936,248 l-20,0 0,79" />
<path style="fill:none;stroke:#fff;stroke-width:2" d="M936,248 l0,79 -20,0" />
<path style="fill:none;stroke:#fff;stroke-width:2" d="M936,348 l0,49 -20,0" />
<path style="fill:none;stroke:#fff;stroke-width:2" d="M936,505 l0,68 -20,0" />
<path style="fill:none;stroke:#fff;stroke-width:2" d="M82,248 l0,79 -20,0" />
<path style="fill:none;stroke:#fff;stroke-width:2" d="M82,348 l0,49 -20,0" />
<path style="fill:none;stroke:#fff;stroke-width:2" d="M82,505 l0,68 -20,0" />
<path style="fill:#7f7f7f" d="M420,52 l158,0 0,30 -158,0 0,-30z" />
<path style="fill:#4c4c4c" d="M62,67 l20,0 0,55 -20,0 0,-55z" />
<path style="fill:#4c4c4c" d="M62,177 l20,0 0,52 -20,0 0,-52z" />
<path style="fill:#4c4c4c" d="M916,67 l20,0 0,55 -20,0 0,-55z" />
<path style="fill:#4c4c4c" d="M916,177 l20,0 0,52 -20,0 0,-52z" />
<path style="fill:#e5e5e5;stroke:#000;stroke-width:2" d="M52,122 l40,0 0,19 -40,0 0,-19z" />
<path style="fill:#e5e5e5;stroke:#000;stroke-width:2" d="M906,122 l40,0 0,19 -40,0 0,-19z" />
<path style="fill:#fff" d="M33,150 l14,0 0,30 -14,0 0,-30z" />

</svg>
