 

<svg xmlns:agg="http://www.example.com" xmlns="http://www.w3.org/2000/svg" preserveAspectRatio="none" width="0.8219in" height="1.0750in" viewBox="0 0 763 998">

<path style="fill:#000;fill-rule:evenodd" d="M244,499 l0,-49 10,0 0,-30 49,0 0,-38 -98,0 0,117 39,0z M597,499 l0,-49 -9,0 0,-30 -49,0 0,-38 98,0 0,117 -40,0z M263,420 l6,0 0,79 -6,0 0,-79z M293,420 l4,0 0,79 -4,0 0,-79z M544,420 l4,0 0,79 -4,0 0,-79z M572,420 l6,0 0,79 -6,0 0,-79z " />
<path style="fill:none;stroke:#000;stroke-width:2" d="M244,499 l0,-49 10,0 0,-30 49,0 0,-38 -98,0 0,117 39,0" />
<path style="fill:none;stroke:#000;stroke-width:2" d="M597,499 l0,-49 -9,0 0,-30 -49,0 0,-38 98,0 0,117 -40,0" />
<path style="fill:none;stroke:#000;stroke-width:2" d="M263,420 l6,0 0,79 -6,0 0,-79" />
<path style="fill:none;stroke:#000;stroke-width:2" d="M293,420 l4,0 0,79 -4,0 0,-79" />
<path style="fill:none;stroke:#000;stroke-width:2" d="M544,420 l4,0 0,79 -4,0 0,-79" />
<path style="fill:none;stroke:#000;stroke-width:2" d="M572,420 l6,0 0,79 -6,0 0,-79" />
<path style="fill:#696" d="M539,263 l39,0 0,-196 -39,0 0,196z" />
<path style="fill:#696" d="M263,263 l40,0 0,-196 -40,0 0,196z" />
<path style="fill:#598c59" d="M548,263 l21,0 0,-196 -21,0 0,196z" />
<path style="fill:#598c59" d="M273,263 l20,0 0,-196 -20,0 0,196z" />
<path style="fill:#333" d="M175,567 l9,0 0,177 -9,0 0,-177z" />
<path style="fill:#696;stroke:#000;stroke-width:2" d="M205,714 l432,0 0,21 -432,0 0,-21z" />
<path style="fill:#363;stroke:#000;stroke-width:2" d="M656,86 l79,0 0,413 -79,0 0,-413z" />
<path style="fill:#363;stroke:#000;stroke-width:2" d="M28,67 l156,0 0,432 -156,0 0,-432z" />
<path style="fill:#3d703d" d="M657,116 l78,0 0,377 -78,0 0,-377z" />
<path style="fill:#3d703d" d="M28,84 l158,0 0,406 -158,0 0,-406z" />
<path style="fill:#477a47" d="M657,145 l78,0 0,341 -78,0 0,-341z" />
<path style="fill:#477a47" d="M28,101 l158,0 0,377 -158,0 0,-377z" />
<path style="fill:#528552" d="M657,175 l78,0 0,305 -78,0 0,-305z" />
<path style="fill:#528552" d="M28,120 l158,0 0,349 -158,0 0,-349z" />
<path style="fill:#5c8f5c" d="M657,205 l78,0 0,270 -78,0 0,-270z" />
<path style="fill:#5c8f5c" d="M28,137 l158,0 0,322 -158,0 0,-322z" />
<path style="fill:#696" d="M657,233 l78,0 0,236 -78,0 0,-236z" />
<path style="fill:#696" d="M28,156 l158,0 0,294 -158,0 0,-294z" />
<path style="fill:#70a370" d="M657,263 l78,0 0,200 -78,0 0,-200z" />
<path style="fill:#70a370" d="M28,173 l158,0 0,268 -158,0 0,-268z" />
<path style="fill:#7aad7a" d="M657,293 l78,0 0,164 -78,0 0,-164z" />
<path style="fill:#7aad7a" d="M28,190 l158,0 0,239 -158,0 0,-239z" />
<path style="fill:#85b885" d="M657,322 l78,0 0,130 -78,0 0,-130z" />
<path style="fill:#85b885" d="M28,209 l158,0 0,211 -158,0 0,-211z" />
<path style="fill:#8fc28f" d="M657,352 l78,0 0,94 -78,0 0,-94z" />
<path style="fill:#8fc28f" d="M28,225 l158,0 0,185 -158,0 0,-185z" />
<path style="fill:#9c9" d="M656,382 l79,0 0,59 -79,0 0,-59z" />
<path style="fill:#9c9" d="M28,244 l156,0 0,157 -156,0 0,-157z" />
<path style="fill:#70a370" d="M205,852 l0,-117 432,0 0,117 -40,0 -40,39 -273,0 -40,-39 -39,0z" />
<path style="fill:#6b9e6b" d="M205,852 l0,-12 432,-77 0,89 -40,0 -40,39 -273,0 -40,-39 -39,0z" />
<path style="fill:#696" d="M637,774 l0,78 -40,0 -40,39 -273,0 -40,-39 -20,0 413,-78z" />
<path style="fill:none;stroke:#000;stroke-width:2" d="M205,852 l0,-117 432,0 0,117 -40,0 -40,39 -273,0 -40,-39 -39,0" />
<path style="fill:#ccc;stroke:#000;stroke-width:2" d="M184,695 l472,0 0,21 -472,0 0,-21z" />
<path style="fill:#696;stroke:#000;stroke-width:2" d="M637,263 l19,0 0,707 -19,0 0,-707z" />
<path style="fill:#696;stroke:#000;stroke-width:2" d="M184,263 l21,0 0,707 -21,0 0,-707z" />
<path style="fill:#ccc" d="M98,557 l77,0 0,197 -77,0 0,-197z" />
<path style="fill:#c7c7c7" d="M98,657 l77,-39 0,136 -77,0 0,-97z" />
<path style="fill:#c2c2c2" d="M98,676 l77,-39 0,117 -77,0 0,-78z" />
<path style="fill:#bdbdbd" d="M98,695 l77,-39 0,98 -77,0 0,-59z" />
<path style="fill:none;stroke:#000;stroke-width:2" d="M98,557 l77,0 0,197 -77,0 0,-197" />
<path style="fill:#696;stroke:#000;stroke-width:2" d="M205,578 l432,0 0,19 -432,0 0,-19z" />
<path style="fill:#73a673;stroke:#000;stroke-width:2" d="M205,518 l432,0 0,60 -432,0 0,-60z" />
<path style="fill:#696;stroke:#000;stroke-width:2" d="M637,478 l0,40 -432,0 0,-40 19,21 39,0 59,-58 198,0 58,58 40,0 19,-21z" />
<path style="fill:#73a673" d="M322,499 l198,0 0,40 -198,0 0,-40z" />
<path style="fill:none;stroke:#363;stroke-width:2" d="M520,499 l0,40 -196,0" />
<path style="fill:#75a875" d="M205,263 l432,0 0,119 -432,0 0,-119z" />
<path style="fill:#70a370" d="M205,346 l432,-49 0,85 -432,0 0,-36z" />
<path style="fill:#6b9e6b" d="M205,352 l432,-49 0,79 -432,0 0,-30z" />
<path style="fill:#696" d="M205,359 l432,-48 0,71 -432,0 0,-23z" />
<path style="fill:none;stroke:#000;stroke-width:2" d="M205,263 l432,0 0,119 -432,0 0,-119" />
<path style="fill:#030" d="M352,518 l9,-10 10,10 -10,9 -9,-9z" />
<path style="fill:#030" d="M410,520 l10,-12 11,12 -11,9 -10,-9z" />
<path style="fill:#030" d="M471,518 l9,-10 10,10 -10,11 -9,-11z" />
<path style="fill:none;stroke:#000;stroke-width:2" d="M126,695 l30,0" />
<path style="fill:#d9d9d9" d="M107,588 l58,0 0,77 -58,0 0,-77z" />
<path style="fill:#7f7f7f" d="M107,607 l9,-10 10,10 -10,9 -9,-9z" />
<path style="fill:#7f7f7f" d="M146,607 l10,-10 9,10 -9,9 -10,-9z" />
<path style="fill:#7f7f7f" d="M107,646 l9,-9 10,9 -10,10 -9,-10z" />
<path style="fill:#7f7f7f" d="M126,695 l9,-9 11,9 -11,10 -9,-10z" />
<path style="fill:none;stroke:#9c9;stroke-width:2" d="M214,371 l413,0" />
<path style="fill:none;stroke:#9c9;stroke-width:2" d="M205,578 l432,0" />
<path style="fill:none;stroke:#000;stroke-width:2" d="M539,263 l39,0 0,-196 -39,0 0,196" />
<path style="fill:none;stroke:#000;stroke-width:2" d="M263,263 l40,0 0,-196 -40,0 0,196" />
<path style="fill:#9c9;stroke:#000;stroke-width:2" d="M278,33 l10,0 0,230 -10,0 0,-230z" />
<path style="fill:#9c9;stroke:#000;stroke-width:2" d="M554,33 l9,0 0,230 -9,0 0,-230z" />
<path style="fill:#000" d="M539,28 l39,0 0,5 -39,0 0,-5z" />
<path style="fill:#000" d="M263,28 l40,0 0,5 -40,0 0,-5z" />
<path style="fill:none;stroke:#cfc;stroke-width:2" d="M322,539 l0,-40 198,0" />
<path style="fill:#4c7f4c;stroke:#000;stroke-width:2" d="M184,900 l0,70 -28,0 0,-9 19,0 0,-61 9,0z" />
<path style="fill:#4c7f4c;stroke:#000;stroke-width:2" d="M656,900 l0,70 30,0 0,-9 -19,0 0,-61 -11,0z" />

</svg>
