

<svg xmlns:agg="http://www.example.com" xmlns="http://www.w3.org/2000/svg" preserveAspectRatio="none" width="0.7566in" height="1.4792in" viewBox="0 0 511 999">

<path style="fill:#000;stroke:#000;stroke-width:2" d="M237,27 l37,0 0,7 -37,0 0,-7z" />
<path style="fill:#000;stroke:#000;stroke-width:2" d="M167,78 l177,0 0,-44 -177,0 0,44z" />
<path style="fill:#000;stroke:#000;stroke-width:2" d="M97,325 l317,0 0,-247 -317,0 0,247z" />
<path style="fill:#000;stroke:#000;stroke-width:2" d="M85,382 l341,0 0,-57 -341,0 0,57z" />
<path style="fill:#000;stroke:#000;stroke-width:2" d="M78,546 l-44,0 0,-158 44,0 0,158z" />
<path style="fill:#b2b2b2;stroke:#000;stroke-width:2" d="M407,648 l32,0 0,-95 -32,0 0,95z" />
<path style="fill:#b2b2b2;stroke:#000;stroke-width:2" d="M72,648 l31,0 0,-95 -31,0 0,95z" />
<path style="fill:#666;stroke:#000;stroke-width:2" d="M27,869 l45,0 0,57 -45,0 0,-57z" />
<path style="fill:#666;stroke:#000;stroke-width:2" d="M439,870 l44,0 0,57 -44,0 0,-57z" />
<path style="fill:#999;stroke:#000;stroke-width:2" d="M439,869 l0,-94 44,0 0,94 -44,0z" />
<path style="fill:#999;stroke:#000;stroke-width:2" d="M420,926 l-4,1 -15,21 -7,10 -31,6 -28,2 -29,2 -27,1 -17,1 -6,1 -7,-1 -33,-2 -36,-2 -27,-2 -31,-6 -16,-20 -15,-12 -19,-12 0,-184 32,-24 0,-64 303,-1 0,64 32,24 1,184 -5,1 -4,3 -4,6 -7,3z" />
<path style="fill:#999;stroke:#000;stroke-width:2" d="M27,869 l0,-94 45,0 0,94 -45,0z" />
<path style="fill:#e5e5e5;stroke:#000;stroke-width:2" d="M439,717 l44,0 0,57 -44,0 0,-57z" />
<path style="fill:#e5e5e5;stroke:#000;stroke-width:2" d="M27,717 l45,0 0,57 -45,0 0,-57z" />
<path style="fill:#666" d="M110,686 l76,0 0,-38 -76,0 0,38z" />
<path style="fill:#b2b2b2" d="M325,686 l76,0 0,-38 -76,0 0,38z" />
<path style="fill:#ccc;stroke:#000;stroke-width:2" d="M78,641 l355,0 0,-82 -355,0 0,82z" />
<path style="fill:#333;stroke:#000;stroke-width:2" d="M78,553 l355,0 0,-171 -355,0 0,171z" />
<path style="fill:#e5e5e5;stroke:#000;stroke-width:2" d="M97,401 l317,0 0,133 -317,0 0,-133z" />
<path style="fill:#000;stroke:#000;stroke-width:2" d="M103,414 l304,0 0,107 -304,0 0,-107z" />
<path style="fill:#e5e5e5;stroke:#000;stroke-width:2" d="M261,446 l83,0 0,19 -83,0 0,-19z" />
<path style="fill:#e5e5e5;stroke:#000;stroke-width:2" d="M236,471 l139,0 0,19 -139,0 0,-19z" />
<path style="fill:#e5e5e5;stroke:#000;stroke-width:2" d="M148,471 l63,0 0,19 -63,0 0,-19z" />
<path style="fill:#e5e5e5;stroke:#000;stroke-width:2" d="M204,446 l32,0 0,19 -32,0 0,-19z" />
<path style="fill:#e5e5e5;stroke:#000;stroke-width:2" d="M122,446 l76,0 0,19 -76,0 0,-19z" />
<path style="fill:#e5e5e5;stroke:#000;stroke-width:2" d="M122,420 l114,0 0,19 -114,0 0,-19z" />
<path style="fill:#000;stroke:#000;stroke-width:2" d="M78,553 l355,0 0,6 -355,0 0,-6z" />
<path style="fill:#666" d="M104,642 l303,0 0,6 -303,0 0,-6z" />
<path style="fill:#999;stroke:#000;stroke-width:2" d="M192,553 l6,6 0,82 -6,7 0,-95z" />
<path style="fill:#b2b2b2;stroke:#000;stroke-width:2" d="M356,648 l-31,0 0,-95 31,0 0,95z" />
<path style="fill:#b2b2b2;stroke:#000;stroke-width:2" d="M161,648 l31,0 0,-95 -31,0 0,95z" />
<path style="fill:#999;stroke:#000;stroke-width:2" d="M325,553 l-6,6 0,82 6,7 0,-95z" />
<path style="fill:none;stroke:#7f7f7f;stroke-width:2" d="M167,34 l177,0" />
<path style="fill:none;stroke:#7f7f7f;stroke-width:2" d="M414,78 l-317,0 1,246 328,1" />
<path style="fill:none;stroke:#7f7f7f;stroke-width:2" d="M97,325 l-12,0" />
<path style="fill:none;stroke:#7f7f7f;stroke-width:2" d="M78,388 l-44,0" />
<path style="fill:none;stroke:#7f7f7f;stroke-width:2" d="M78,553 l0,-171 355,0" />
<path style="fill:#4c4c4c" d="M236,27 l13,0 0,6 -13,0 0,-6z" />
<path style="fill:#4c4c4c" d="M173,40 l44,0 0,38 -44,0 0,-38z" />
<path style="fill:#4c4c4c" d="M103,84 l76,0 0,241 -76,0 0,-241z" />
<path style="fill:#4c4c4c" d="M122,502 l266,0 0,6 -266,0 0,-6z" />
<path style="fill:#4c4c4c" d="M91,331 l76,0 0,44 -76,0 0,-44z" />
<path style="fill:#b2b2b2" d="M40,401 l32,0 0,25 -32,0 0,-25z" />
<path style="fill:#b2b2b2" d="M116,375 l19,0 0,-43 -19,0 0,43z" />
<path style="fill:#b2b2b2" d="M129,325 l19,0 0,-241 -19,0 0,241z" />
<path style="fill:#b2b2b2" d="M188,78 l11,0 0,-38 -11,0 0,38z" />
<path style="fill:#b2b2b2" d="M241,34 l3,0 0,-6 -3,0 0,6z" />
<path style="fill:#666" d="M370,924 l-13,6 -14,5 -13,5 -14,3 -14,3 -15,2 -15,1 -14,0 -15,0 -15,-1 -15,-2 -14,-3 -14,-3 -14,-5 -14,-5 -12,-6 -5,10 13,7 14,5 14,4 15,4 15,3 16,2 15,1 16,1 15,-1 15,-1 15,-2 15,-3 15,-4 14,-4 14,-5 14,-7z" />
<ellipse style="fill:#b2b2b2" cx="255" cy="774" rx="113" ry="57" />
<ellipse style="fill:#ccc" cx="255" cy="774" rx="95" ry="47" />
<ellipse style="fill:#e5e5e5" cx="255" cy="774" rx="75" ry="38" />

</svg>
