

<svg xmlns:agg="http://www.example.com" xmlns="http://www.w3.org/2000/svg" preserveAspectRatio="none" width="2.0104in" height="1.0134in" viewBox="0 0 492 248">

<path style="fill:#7f7f7f" d="M63,89 l0,145 -50,0 0,-145 50,0z" />
<path style="fill:#b2b2b2" d="M58,89 l0,145 -40,0 0,-145 40,0z" />
<path style="fill:#e5e5e5" d="M52,89 l0,145 -27,0 0,-145 27,0z" />
<path style="fill:#fff" d="M43,89 l0,145 -9,0 0,-145 9,0z" />
<path style="fill:none;stroke:#000;stroke-width:2" d="M13,89 l0,145" />
<path style="fill:none;stroke:#000;stroke-width:2" d="M63,234 l0,-145" />
<path style="fill:#7f7f7f" d="M88,76 l-25,-14 25,-43 24,15 -24,42z" />
<path style="fill:#b2b2b2" d="M90,72 l-25,-14 20,-35 25,15 -20,34z" />
<path style="fill:#e5e5e5" d="M93,67 l-25,-14 14,-24 25,14 -14,24z" />
<path style="fill:#fff" d="M98,59 l-25,-14 4,-8 25,14 -4,8z" />
<path style="fill:none;stroke:#000;stroke-width:2" d="M112,34 l-24,-15" />
<path style="fill:none;stroke:#000;stroke-width:2" d="M63,62 l25,14" />
<path style="fill:#7f7f7f" d="M63,62 l-49,0 0,-6 2,-6 2,-6 3,-6 6,-8 7,-7 8,-5 9,-3 9,-2 10,1 9,2 9,4 -25,42z" />
<path style="fill:#b2b2b2" d="M63,62 l-44,0 1,-5 1,-6 2,-6 2,-5 5,-7 6,-6 8,-4 8,-3 8,-2 8,0 9,2 8,4 -22,38z" />
<path style="fill:#e5e5e5" d="M63,62 l-38,0 0,-5 1,-5 2,-4 2,-5 5,-6 5,-5 7,-4 7,-3 7,-1 7,0 8,2 7,3 -20,33z" />
<path style="fill:#fff" d="M63,62 l-29,0 0,-4 1,-3 1,-4 2,-3 3,-5 5,-4 4,-3 6,-2 5,-1 6,0 6,2 5,2 -15,25z" />
<path style="fill:#e5e5e5" d="M63,62 l-20,0 0,-2 1,-3 1,-3 1,-2 5,-6 7,-3 8,0 7,2 -10,17z" />
<path style="fill:#b2b2b2" d="M63,62 l-10,0 0,-1 0,-1 0,-2 1,-1 3,-3 4,-2 4,0 4,1 -6,9z" />
<path style="fill:#7f7f7f" d="M63,62 l-4,0 0,-1 0,-1 2,-1 2,-1 1,0 2,0 -3,4z" />
<path style="fill:none;stroke:#000;stroke-width:2" d="M14,62 l0,-6 2,-6 2,-6 3,-6 6,-8 7,-7 8,-5 9,-3 9,-2 10,1 9,2 9,4" />
<path style="fill:#7f7f7f" d="M14,90 l0,-28 49,0 0,28 -49,0z" />
<path style="fill:#b2b2b2" d="M19,90 l0,-28 39,0 0,28 -39,0z" />
<path style="fill:#e5e5e5" d="M25,90 l0,-28 27,0 0,28 -27,0z" />
<path style="fill:#fff" d="M34,90 l0,-28 9,0 0,28 -9,0z" />
<path style="fill:none;stroke:#000;stroke-width:2" d="M63,90 l0,-28" />
<path style="fill:none;stroke:#000;stroke-width:2" d="M14,62 l0,28" />
<path style="fill:#7f7f7f" d="M429,159 l0,-146 50,0 0,146 -50,0z" />
<path style="fill:#b2b2b2" d="M434,159 l0,-146 40,0 0,146 -40,0z" />
<path style="fill:#e5e5e5" d="M440,159 l0,-146 27,0 0,146 -27,0z" />
<path style="fill:#fff" d="M449,159 l0,-146 9,0 0,146 -9,0z" />
<path style="fill:none;stroke:#000;stroke-width:2" d="M479,159 l0,-146" />
<path style="fill:none;stroke:#000;stroke-width:2" d="M429,13 l0,146" />
<path style="fill:#7f7f7f" d="M404,171 l25,15 -25,42 -24,-14 24,-43z" />
<path style="fill:#b2b2b2" d="M402,176 l25,14 -20,34 -25,-14 20,-34z" />
<path style="fill:#e5e5e5" d="M399,181 l25,14 -14,24 -25,-14 14,-24z" />
<path style="fill:#fff" d="M394,189 l25,14 -4,8 -25,-14 4,-8z" />
<path style="fill:none;stroke:#000;stroke-width:2" d="M380,214 l24,14" />
<path style="fill:none;stroke:#000;stroke-width:2" d="M429,186 l-25,-15" />
<path style="fill:#7f7f7f" d="M429,185 l49,0 0,7 -2,6 -2,6 -3,6 -6,8 -7,6 -8,5 -9,4 -9,2 -10,-1 -9,-2 -9,-4 25,-43z" />
<path style="fill:#b2b2b2" d="M429,185 l44,0 -1,6 -1,6 -2,5 -2,5 -5,7 -6,6 -8,5 -8,3 -8,1 -8,0 -9,-2 -8,-4 22,-38z" />
<path style="fill:#e5e5e5" d="M429,185 l38,0 0,5 -1,5 -2,5 -2,5 -5,6 -5,5 -7,4 -6,2 -8,2 -7,0 -8,-2 -7,-3 20,-34z" />
<path style="fill:#fff" d="M429,185 l29,0 0,4 -1,4 -1,4 -2,3 -3,5 -5,4 -4,3 -6,2 -5,1 -6,0 -6,-2 -5,-2 15,-26z" />
<path style="fill:#e5e5e5" d="M429,185 l20,0 0,3 -1,2 -1,3 -1,2 -5,6 -7,4 -8,0 -7,-2 10,-18z" />
<path style="fill:#b2b2b2" d="M429,185 l10,0 0,1 0,2 0,1 -1,2 -3,3 -4,2 -4,0 -4,-1 6,-10z" />
<path style="fill:#7f7f7f" d="M429,185 l4,0 0,1 0,1 0,1 -2,1 -1,1 -2,0 -2,-1 3,-4z" />
<path style="fill:none;stroke:#000;stroke-width:2" d="M478,185 l0,7 -2,6 -2,6 -3,6 -6,8 -7,6 -8,5 -9,4 -9,2 -10,-1 -9,-2 -9,-4" />
<path style="fill:#7f7f7f" d="M478,158 l0,27 -49,0 0,-27 49,0z" />
<path style="fill:#b2b2b2" d="M473,158 l0,27 -39,0 0,-27 39,0z" />
<path style="fill:#e5e5e5" d="M467,158 l0,27 -27,0 0,-27 27,0z" />
<path style="fill:#fff" d="M458,158 l0,27 -9,0 0,-27 9,0z" />
<path style="fill:none;stroke:#000;stroke-width:2" d="M429,158 l0,27" />
<path style="fill:none;stroke:#000;stroke-width:2" d="M478,185 l0,-27" />
<path style="fill:#7f7f7f" d="M387,220 l-304,-145 21,-45 304,146 -21,44z" />
<path style="fill:#b2b2b2" d="M389,216 l-304,-146 17,-36 304,146 -17,36z" />
<path style="fill:#e5e5e5" d="M392,210 l-304,-145 12,-25 303,146 -11,24z" />
<path style="fill:#fff" d="M395,202 l-303,-146 4,-8 303,146 -4,8z" />
<path style="fill:none;stroke:#000;stroke-width:2" d="M408,176 l-304,-146" />
<path style="fill:none;stroke:#000;stroke-width:2" d="M83,75 l304,145" />

</svg>
