

<svg xmlns:agg="http://www.example.com" xmlns="http://www.w3.org/2000/svg" preserveAspectRatio="none" width="1.6478in" height="1.4792in" viewBox="0 0 518 465">

<path style="fill:#7f7f7f" d="M288,40 l15,-26 201,116 -15,26 -201,-116z" />
<path style="fill:#b2b2b2" d="M290,37 l12,-21 201,116 -13,21 -200,-116z" />
<path style="fill:#e5e5e5" d="M292,34 l8,-14 201,116 -8,14 -201,-116z" />
<path style="fill:#fff" d="M294,29 l3,-5 201,116 -3,5 -201,-116z" />
<path style="fill:none;stroke:#000;stroke-width:2" d="M303,14 l201,116" />
<path style="fill:none;stroke:#000;stroke-width:2" d="M288,40 l201,116" />
<path style="fill:#7f7f7f" d="M267,339 l-26,-15 120,-208 25,15 -119,208z" />
<path style="fill:#b2b2b2" d="M264,337 l-21,-12 120,-207 21,12 -120,207z" />
<path style="fill:#e5e5e5" d="M261,335 l-14,-8 120,-207 13,8 -119,207z" />
<path style="fill:#fff" d="M256,333 l-5,-3 120,-208 5,3 -120,208z" />
<path style="fill:none;stroke:#000;stroke-width:2" d="M241,324 l120,-208" />
<path style="fill:none;stroke:#000;stroke-width:2" d="M267,339 l119,-208" />
<path style="fill:#7f7f7f" d="M363,83 l15,-26 52,30 -15,26 -13,-8 -15,26 -26,-15 15,-26 -13,-7z" />
<path style="fill:#b2b2b2" d="M364,80 l12,-21 37,21 15,9 -12,21 -15,-9 -17,29 -21,-12 17,-29 -16,-9z" />
<path style="fill:#e5e5e5" d="M366,77 l8,-14 33,19 19,11 -8,14 -19,-11 -18,32 -14,-8 18,-32 -19,-11z" />
<path style="fill:#fff" d="M369,72 l3,-5 28,17 24,13 -3,5 -24,-13 -21,36 -5,-3 21,-36 -23,-14z" />
<path style="fill:none;stroke:#000;stroke-width:2" d="M363,83 l13,7 -15,26" />
<path style="fill:none;stroke:#000;stroke-width:2" d="M387,131 l15,-26 13,8" />
<path style="fill:none;stroke:#000;stroke-width:2" d="M430,87 l-13,-8 -39,-22" />
<path style="fill:#7f7f7f" d="M14,451 l0,-240 479,240 0,-240 -479,240z" />
<path style="fill:#999" d="M14,439 l0,-215 479,215 0,-215 -479,215z" />
<path style="fill:#b2b2b2" d="M14,414 l0,-166 479,166 0,-166 -479,166z" />
<path style="fill:#ccc" d="M14,390 l0,-117 479,117 0,-117 -479,117z" />
<path style="fill:#e5e5e5" d="M14,371 l0,-80 479,80 0,-80 -479,80z" />
<path style="fill:#fff" d="M14,346 l0,-30 479,30 0,-30 -479,30z" />
<path style="fill:none;stroke:#000;stroke-width:2" d="M14,451 l0,-240 479,240 0,-240 -479,240" />

</svg>
