 

<svg xmlns:agg="http://www.example.com" xmlns="http://www.w3.org/2000/svg" preserveAspectRatio="none" width="0.5553in" height="1.0750in" viewBox="0 0 516 999">

<path style="fill:#ccc" d="M167,816 l32,7 117,0 32,-7 28,-17 25,-23 17,-30 7,-32 0,-226 42,-42 -419,0 42,42 0,226 9,32 17,30 23,23 28,17z" />
<path style="fill:#000;stroke:#000;stroke-width:2" d="M224,967 l13,3 43,0 11,-3 12,-6 9,-9 6,-12 4,-13 0,-104 -127,0 0,104 4,13 6,12 9,9 10,6z" />
<path style="fill:#666" d="M467,299 l-419,0 0,147 419,0 0,-147z" />
<path style="fill:none;stroke:#999;stroke-width:2" d="M467,446 l-419,-20 0,-21 419,21 0,-21 -419,-21 0,-21 419,21 0,-21 -419,-21 0,-20 419,20 0,-20 -419,-23" />
<path style="fill:none;stroke:#000;stroke-width:2" d="M467,299 l-419,0 0,147 419,0 0,-147" />
<path style="fill:none;stroke:#000;stroke-width:2" d="M167,816 l32,7 117,0 32,-7 28,-17 25,-23 17,-30 7,-32 0,-226 42,-42 -419,0 42,42 0,226 9,32 17,30 23,23 28,17" />
<path style="fill:#e5e5e5" d="M186,795 l24,8 95,0 26,-8 23,-15 19,-21 13,-24 7,-28 0,-202 32,-38 -335,0 34,38 0,202 7,28 13,24 19,21 23,15z" />
<path style="fill:#999" d="M322,793 l0,-53 41,0 0,-20 -209,0 0,20 41,0 0,53 127,0z" />
<path style="fill:#b2b232" d="M363,720 l-21,-21 0,-189 -11,-43 -147,0 -10,43 0,189 -20,21 209,0z" />
<path style="fill:#cccc4c" d="M331,720 l-15,-21 0,-181 -7,-40 -102,0 -8,40 0,181 -15,21 147,0z" />
<path style="fill:#000" d="M488,299 l-460,0 0,-230 11,-21 30,-20 377,0 32,20 10,21 0,230z" />
<path style="fill:#191919" d="M457,299 l-398,0 0,-230 8,-21 28,-20 326,0 27,20 9,21 0,230z" />
<path style="fill:#333" d="M405,299 l-295,0 0,-230 8,-21 21,-20 239,0 21,20 6,21 0,230z" />
<path style="fill:#191919" d="M488,299 l-166,0 -21,-230 9,-21 32,-20 104,0 32,20 10,21 0,230z" />
<path style="fill:#000" d="M488,299 l-104,0 0,-230 9,-21 27,-20 34,0 26,20 8,21 0,230z" />
<path style="fill:none;stroke:#000;stroke-width:2" d="M488,299 l-460,0 0,-230 11,-21 30,-20 377,0 32,20 10,21 0,230" />
<ellipse style="fill:#c93" cx="441" cy="143" rx="25" ry="83" />
<path style="fill:none;stroke:#999;stroke-width:2" d="M384,299 l0,-230 9,-21 27,-20" />
<ellipse style="fill:#b27f19" cx="431" cy="143" rx="15" ry="51" />
<path style="fill:#fff" d="M269,814 l41,-53 12,-105 0,-72 -12,94 -11,83 -30,53z" />

</svg>
