

<svg xmlns:agg="http://www.example.com" xmlns="http://www.w3.org/2000/svg" preserveAspectRatio="none" width="0.5656in" height="1.4792in" viewBox="0 0 382 999">

<path style="fill:#7f7f7f;stroke:#000;stroke-width:2" d="M137,716 l107,0 0,109 -107,0 0,-109z" />
<path style="fill:#7f7f7f;stroke:#000;stroke-width:2" d="M154,699 l73,0 0,17 -73,0 0,-17z" />
<path style="fill:#7f7f7f;stroke:#000;stroke-width:2" d="M173,625 l36,0 0,74 -36,0 0,-74z" />
<path style="fill:#999" d="M152,716 l79,0 0,109 -79,0 0,-109z" />
<path style="fill:#999" d="M165,699 l51,0 0,17 -51,0 0,-17z" />
<path style="fill:#999" d="M178,625 l27,0 0,74 -27,0 0,-74z" />
<path style="fill:#b2b2b2" d="M167,716 l47,0 0,109 -47,0 0,-109z" />
<path style="fill:#b2b2b2" d="M175,699 l32,0 0,17 -32,0 0,-17z" />
<path style="fill:#b2b2b2" d="M184,625 l15,0 0,74 -15,0 0,-74z" />
<path style="fill:#ccc" d="M182,716 l17,0 0,109 -17,0 0,-109z" />
<path style="fill:#ccc" d="M186,699 l11,0 0,17 -11,0 0,-17z" />
<path style="fill:#ccc" d="M188,625 l6,0 0,74 -6,0 0,-74z" />
<path style="fill:#ccc" d="M163,735 l55,0 0,19 -55,0 0,-19z" />
<path style="fill:#595959;stroke:#000;stroke-width:2" d="M282,635 l17,0 0,9 -17,0 0,-9z" />
<path style="fill:#595959;stroke:#000;stroke-width:2" d="M82,635 l17,0 0,9 -17,0 0,-9z" />
<path style="fill:#7f7f7f" d="M46,625 l0,110 17,19 255,0 17,-19 0,-110 -17,-17 -128,0 0,17 118,0 10,10 0,90 -10,10 -235,0 -10,-10 0,-90 10,-10 117,0 0,-17 -127,0 -17,17z" />
<path style="fill:#999;stroke:#000;stroke-width:2" d="M272,625 l36,0 0,10 -36,0 0,-10z" />
<path style="fill:#999;stroke:#000;stroke-width:2" d="M73,625 l35,0 0,10 -35,0 0,-10z" />
<path style="fill:#7f7f7f" d="M73,608 l235,0 0,17 -235,0 0,-17z" />
<path style="fill:#bfbfbf" d="M54,173 l273,0 0,362 -273,0 0,-362z" />
<path style="fill:#d1d1d1" d="M88,172 l206,0 0,363 -206,0 0,-363z" />
<path style="fill:#e0e0e0" d="M121,172 l139,0 0,363 -139,0 0,-363z" />
<path style="fill:#f2f2f2" d="M154,173 l73,0 0,362 -73,0 0,-362z" />
<path style="fill:none;stroke:#000;stroke-width:2" d="M54,173 l273,0 0,362 -273,0 0,-362" />
<path style="fill:none;stroke:#000;stroke-width:2" d="M73,535 l35,0 0,-17 -35,0 0,17" />
<path style="fill:#8c8c8c;stroke:#000;stroke-width:2" d="M272,535 l36,0 0,-17 -36,0 0,17z" />
<path style="fill:#8c8c8c" d="M73,535 l35,0 0,-17 -35,0 0,17z" />
<path style="fill:#d9d9d9" d="M282,535 l17,0 0,-17 -17,0 0,17z" />
<path style="fill:#d9d9d9" d="M82,535 l17,0 0,-17 -17,0 0,17z" />
<path style="fill:#b2b2b2;stroke:#000;stroke-width:2" d="M182,173 l17,0 0,362 -17,0 0,-362z" />
<path style="fill:#b2b2b2;stroke:#000;stroke-width:2" d="M37,173 l17,0 0,362 -17,0 0,-362z" />
<path style="fill:#b2b2b2;stroke:#000;stroke-width:2" d="M327,173 l17,0 0,362 -17,0 0,-362z" />
<path style="fill:#fff" d="M333,173 l5,0 0,362 -5,0 0,-362z" />
<path style="fill:#fff" d="M188,173 l6,0 0,362 -6,0 0,-362z" />
<path style="fill:#fff" d="M43,173 l5,0 0,362 -5,0 0,-362z" />
<path style="fill:#c93" d="M63,935 l0,-74 45,0 0,-36 164,0 0,36 46,0 0,74 -255,0z" />
<path style="fill:#a6730d" d="M63,906 l255,0 0,29 -255,0 0,-29z" />
<path style="fill:#f2bf59" d="M63,861 l255,0 0,19 -255,0 0,-19z" />
<path style="fill:#c93" d="M137,825 l107,0 0,81 -107,0 0,-81z" />
<path style="fill:#d9a640" d="M151,825 l79,0 0,82 -79,0 0,-82z" />
<path style="fill:#e5b24c" d="M167,825 l48,0 0,82 -48,0 0,-82z" />
<path style="fill:#f2bf59" d="M182,825 l17,0 0,81 -17,0 0,-81z" />
<path style="fill:none;stroke:#033;stroke-width:2" d="M63,935 l0,-74 45,0 0,-36 164,0 0,36 46,0 0,74 -255,0" />
<circle style="fill:#c93;stroke:#000;stroke-width:2" cx="189" cy="925" r="45" />
<circle style="fill:#ba8721;stroke:#000;stroke-width:2" cx="190" cy="925" r="27" />
<path style="fill:#b2b2b2" d="M163,99 l55,0 0,-72 -55,0 0,72z" />
<path style="fill:#999" d="M163,27 l19,0 0,72 -19,0 0,-72z" />
<path style="fill:#7f7f7f" d="M209,27 l9,0 0,72 -9,0 0,-72z" />
<path style="fill:none;stroke:#000;stroke-width:2" d="M163,27 l55,0 0,72 -55,0 0,-72" />
<path style="fill:#7f7f7f" d="M73,735 l235,0 0,19 -235,0 0,-19z" />
<path style="fill:#ff7f00" d="M27,101 l327,0 0,72 -327,0 0,-72z" />
<path style="fill:#f93" d="M70,100 l242,0 0,73 -242,0 0,-73z" />
<path style="fill:#ffb266" d="M113,100 l156,0 0,73 -156,0 0,-73z" />
<path style="fill:#fc9" d="M155,101 l72,0 0,72 -72,0 0,-72z" />
<path style="fill:none;stroke:#000;stroke-width:2" d="M27,101 l327,0 0,72 -327,0 0,-72" />
<path style="fill:#ff7f00" d="M27,535 l327,0 0,73 -327,0 0,-73z" />
<path style="fill:#f93" d="M70,535 l242,0 0,73 -242,0 0,-73z" />
<path style="fill:#ffb266" d="M113,535 l156,0 0,73 -156,0 0,-73z" />
<path style="fill:#fc9" d="M155,535 l72,0 0,73 -72,0 0,-73z" />
<path style="fill:none;stroke:#000;stroke-width:2" d="M27,535 l327,0 0,73 -327,0 0,-73" />
<path style="fill:#999" d="M103,608 l175,0 0,18 -175,0 0,-18z" />
<path style="fill:#999" d="M103,735 l175,0 0,18 -175,0 0,-18z" />
<path style="fill:#b2b2b2" d="M133,735 l115,0 0,18 -115,0 0,-18z" />
<path style="fill:#b2b2b2" d="M133,608 l115,0 0,18 -115,0 0,-18z" />
<path style="fill:#ccc" d="M163,608 l55,0 0,17 -55,0 0,-17z" />
<path style="fill:#ccc" d="M163,735 l55,0 0,19 -55,0 0,-19z" />
<path style="fill:none;stroke:#000;stroke-width:2" d="M63,608 l-17,17 0,110 17,19 255,0 17,-19 0,-110 -17,-17" />
<path style="fill:none;stroke:#000;stroke-width:2" d="M73,625 l-10,10 0,90 10,10 235,0 10,-10 0,-90 -10,-10 -235,0" />

</svg>
