

<svg xmlns:agg="http://www.example.com" xmlns="http://www.w3.org/2000/svg" preserveAspectRatio="none" width="1.3045in" height="1.4792in" viewBox="0 0 881 999">

<path style="fill:#b2e5e5;stroke:#000;stroke-width:2" d="M185,420 l157,0 0,550 -157,0 0,-550z" />
<path style="fill:#b2e5e5;stroke:#000;stroke-width:2" d="M106,303 l-78,-79 0,-118 78,-78 314,0 79,78 0,118 -79,79 -78,0 0,117 -157,0 0,-117 -79,0z" />
<path style="fill:none;stroke:#000;stroke-width:2" d="M67,263 l0,-196" />
<path style="fill:none;stroke:#000;stroke-width:2" d="M106,303 l0,-275" />
<path style="fill:none;stroke:#000;stroke-width:2" d="M420,303 l0,-275" />
<path style="fill:none;stroke:#000;stroke-width:2" d="M460,263 l0,-196" />
<path style="fill:none;stroke:#000;stroke-width:2" d="M106,165 l314,0" />
<path style="fill:none;stroke:#000;stroke-width:2" d="M106,97 l314,0" />
<path style="fill:none;stroke:#000;stroke-width:2" d="M106,234 l314,0" />
<path style="fill:none;stroke:#000;stroke-width:2" d="M185,303 l157,0" />
<path style="fill:none;stroke:#000;stroke-width:2" d="M263,420 l0,550" />
<path style="fill:none;stroke:#000;stroke-width:2" d="M224,420 l0,550" />
<path style="fill:none;stroke:#000;stroke-width:2" d="M303,420 l0,550" />
<path style="fill:#b2e5e5;stroke:#000;stroke-width:2" d="M67,892 l-39,0 0,-275 39,0 0,39 668,0 78,-78 39,0 0,353 -39,0 -78,-79 -668,0 0,40z" />
<path style="fill:none;stroke:#000;stroke-width:2" d="M67,852 l0,-196" />
<path style="fill:none;stroke:#000;stroke-width:2" d="M735,852 l0,-196" />
<path style="fill:none;stroke:#000;stroke-width:2" d="M813,931 l0,-353" />
<path style="fill:none;stroke:#000;stroke-width:2" d="M67,656 l668,0 78,-78 39,0" />
<path style="fill:none;stroke:#000;stroke-width:2" d="M67,852 l668,0 78,79 39,0" />
<path style="fill:none;stroke:#000;stroke-width:2" d="M67,695 l668,0 78,-39 39,0" />
<path style="fill:none;stroke:#000;stroke-width:2" d="M67,813 l668,0 78,39 39,0" />
<path style="fill:none;stroke:#000;stroke-width:2" d="M28,754 l824,0" />
<path style="fill:none;stroke:#000;stroke-width:2" d="M67,852 l-39,0" />
<path style="fill:none;stroke:#000;stroke-width:2" d="M67,656 l-39,0" />

</svg>
