

<svg xmlns:agg="http://www.example.com" xmlns="http://www.w3.org/2000/svg" preserveAspectRatio="none" width="1.4792in" height="1.4792in" viewBox="0 0 530 530">

<path style="fill:#7f7f7f" d="M307,98 l0,334 -250,0 0,-334 250,0z" />
<path style="fill:#999" d="M291,98 l0,334 -219,0 0,-334 219,0z" />
<path style="fill:#b2b2b2" d="M265,98 l0,334 -166,0 0,-334 166,0z" />
<path style="fill:#ccc" d="M239,98 l0,334 -114,0 0,-334 114,0z" />
<path style="fill:#e5e5e5" d="M219,98 l0,334 -73,0 0,-334 73,0z" />
<path style="fill:#fff" d="M197,98 l0,334 -30,0 0,-334 30,0z" />
<path style="fill:none;stroke:#000;stroke-width:2" d="M57,98 l0,334" />
<path style="fill:none;stroke:#000;stroke-width:2" d="M307,432 l0,-334" />
<path style="fill:#7f7f7f" d="M349,15 l0,83 -334,0 0,-83 334,0z" />
<path style="fill:#999" d="M328,15 l0,83 -292,0 0,-83 292,0z" />
<path style="fill:#b2b2b2" d="M292,15 l0,83 -221,0 0,-83 221,0z" />
<path style="fill:#ccc" d="M258,15 l0,83 -153,0 0,-83 153,0z" />
<path style="fill:#e5e5e5" d="M231,15 l0,83 -98,0 0,-83 98,0z" />
<path style="fill:#fff" d="M202,15 l0,83 -40,0 0,-83 40,0z" />
<path style="fill:none;stroke:#000;stroke-width:2" d="M349,15 l0,83 -334,0 0,-83 334,0" />
<path style="fill:#7f7f7f" d="M349,432 l0,83 -334,0 0,-83 334,0z" />
<path style="fill:#999" d="M328,432 l0,83 -292,0 0,-83 292,0z" />
<path style="fill:#b2b2b2" d="M292,432 l0,83 -221,0 0,-83 221,0z" />
<path style="fill:#ccc" d="M258,432 l0,83 -153,0 0,-83 153,0z" />
<path style="fill:#e5e5e5" d="M231,432 l0,83 -98,0 0,-83 98,0z" />
<path style="fill:#fff" d="M202,432 l0,83 -40,0 0,-83 40,0z" />
<path style="fill:none;stroke:#000;stroke-width:2" d="M349,432 l0,83 -334,0 0,-83 334,0" />
<path style="fill:#7f7f7f" d="M307,223 l125,0 0,84 -125,0 -8,-1 -8,-2 -7,-4 -7,-5 -5,-7 -4,-7 -2,-8 -1,-8 1,-8 2,-8 4,-7 5,-7 7,-5 7,-4 8,-2 8,-1z" />
<path style="fill:#999" d="M287,229 l-5,3 -4,3 -4,5 -3,4 -3,5 -2,5 -1,5 0,6 0,6 2,5 2,5 2,5 3,5 4,4 4,4 5,3 145,0 0,-73 -145,0z" />
<path style="fill:#b2b2b2" d="M276,237 l-5,6 -3,7 -2,8 -1,7 1,7 2,8 3,7 5,6 156,0 0,-56 -156,0z" />
<path style="fill:#ccc" d="M270,246 l-2,5 -2,4 -1,5 0,5 0,5 1,5 2,4 2,5 162,0 0,-38 -162,0z" />
<path style="fill:#e5e5e5" d="M267,253 l-1,3 0,3 -1,3 0,3 0,4 1,3 1,4 1,3 164,0 0,-26 -165,0z" />
<path style="fill:#fff" d="M266,260 l0,1 0,1 -1,2 0,1 0,1 1,2 0,1 0,1 166,0 0,-10 -166,0z" />
<path style="fill:none;stroke:#000;stroke-width:2" d="M432,307 l-125,0 -8,-1 -8,-2 -7,-4 -7,-5 -5,-7 -4,-7 -2,-8 -1,-8 1,-8 2,-8 4,-7 5,-7 7,-5 7,-4 8,-2 8,-1 125,0" />
<path style="fill:#999;stroke:#000;stroke-width:2" d="M463,432 l-6,-3 -9,-17 -5,-18 -4,-23 -2,-13 -1,-14 -2,-14 -1,-15 0,-16 -1,-17 0,-17 0,-17 1,-17 0,-16 1,-15 2,-14 1,-14 4,-25 5,-20 5,-16 6,-10 3,-2 3,-1 32,0 -4,3 -6,17 -4,18 -2,23 -2,13 -1,14 0,14 -1,15 -1,16 0,68 1,16 1,15 0,14 1,14 3,25 3,20 4,16 4,10 2,2 2,1 -32,0z" />
<ellipse style="fill:#e5e5e5;stroke:#000;stroke-width:2" cx="494" cy="265" rx="20" ry="167" />

</svg>
