

<svg xmlns:agg="http://www.example.com" xmlns="http://www.w3.org/2000/svg" preserveAspectRatio="none" width="1.2896in" height="1.4792in" viewBox="0 0 871 999">

<path style="fill:#7f7f7f" d="M445,198 l0,602 -313,0 0,-602 313,0z" />
<path style="fill:#999" d="M427,198 l0,602 -276,0 0,-602 276,0z" />
<path style="fill:#b2b2b2" d="M393,198 l0,602 -209,0 0,-602 209,0z" />
<path style="fill:#ccc" d="M360,198 l0,602 -144,0 0,-602 144,0z" />
<path style="fill:#e5e5e5" d="M335,198 l0,602 -93,0 0,-602 93,0z" />
<path style="fill:#fff" d="M308,198 l0,602 -38,0 0,-602 38,0z" />
<path style="fill:none;stroke:#000;stroke-width:2" d="M132,198 l0,602" />
<path style="fill:none;stroke:#000;stroke-width:2" d="M445,800 l0,-602" />
<path style="fill:#7f7f7f;stroke:#000;stroke-width:2" d="M442,200 l9,24 65,0 12,-24 -86,0z" />
<path style="fill:#7f7f7f;stroke:#000;stroke-width:2" d="M246,200 l9,24 66,0 11,-24 -86,0z" />
<path style="fill:#7f7f7f;stroke:#000;stroke-width:2" d="M50,200 l10,24 65,0 11,-24 -86,0z" />
<path style="fill:#7f7f7f;stroke:#000;stroke-width:2" d="M442,52 l9,-24 65,0 12,24 -86,0z" />
<path style="fill:#7f7f7f;stroke:#000;stroke-width:2" d="M246,52 l9,-24 66,0 11,24 -86,0z" />
<path style="fill:#7f7f7f;stroke:#000;stroke-width:2" d="M50,52 l10,-24 65,0 11,24 -86,0z" />
<path style="fill:#b2b2b2;stroke:#000;stroke-width:2" d="M457,200 l5,24 54,0 12,-24 -71,0z" />
<path style="fill:#b2b2b2;stroke:#000;stroke-width:2" d="M261,200 l6,24 54,0 11,-24 -71,0z" />
<path style="fill:#b2b2b2;stroke:#000;stroke-width:2" d="M65,200 l6,24 54,0 11,-24 -71,0z" />
<path style="fill:#b2b2b2;stroke:#000;stroke-width:2" d="M457,52 l5,-24 54,0 12,24 -71,0z" />
<path style="fill:#b2b2b2;stroke:#000;stroke-width:2" d="M261,52 l6,-24 54,0 11,24 -71,0z" />
<path style="fill:#b2b2b2;stroke:#000;stroke-width:2" d="M65,52 l6,-24 54,0 11,24 -71,0z" />
<path style="fill:#7f7f7f" d="M550,52 l0,75 -522,0 0,-75 522,0z" />
<path style="fill:#999" d="M518,52 l0,75 -458,0 0,-75 458,0z" />
<path style="fill:#b2b2b2" d="M462,52 l0,75 -348,0 0,-75 348,0z" />
<path style="fill:#ccc" d="M408,52 l0,75 -240,0 0,-75 240,0z" />
<path style="fill:#e5e5e5" d="M365,52 l0,75 -153,0 0,-75 153,0z" />
<path style="fill:#fff" d="M321,52 l0,75 -64,0 0,-75 64,0z" />
<path style="fill:none;stroke:#000;stroke-width:2" d="M550,52 l0,75 -522,0 0,-75 522,0" />
<path style="fill:#e5e5e5;stroke:#000;stroke-width:2" d="M507,28 l9,0 12,24 -17,0 -4,-24z" />
<path style="fill:#e5e5e5;stroke:#000;stroke-width:2" d="M311,28 l10,0 11,24 -17,0 -4,-24z" />
<path style="fill:#e5e5e5;stroke:#000;stroke-width:2" d="M115,28 l10,0 11,24 -15,0 -6,-24z" />
<path style="fill:#e5e5e5;stroke:#000;stroke-width:2" d="M507,224 l9,0 12,-24 -17,0 -4,24z" />
<path style="fill:#e5e5e5;stroke:#000;stroke-width:2" d="M311,224 l10,0 11,-24 -17,0 -4,24z" />
<path style="fill:#e5e5e5;stroke:#000;stroke-width:2" d="M115,224 l10,0 11,-24 -15,0 -6,24z" />
<path style="fill:#7f7f7f" d="M550,200 l0,-73 -522,0 0,73 522,0z" />
<path style="fill:#999" d="M518,200 l0,-73 -458,0 0,73 458,0z" />
<path style="fill:#b2b2b2" d="M462,200 l0,-73 -348,0 0,73 348,0z" />
<path style="fill:#ccc" d="M408,200 l0,-73 -240,0 0,73 240,0z" />
<path style="fill:#e5e5e5" d="M365,200 l0,-73 -153,0 0,73 153,0z" />
<path style="fill:#fff" d="M321,200 l0,-73 -64,0 0,73 64,0z" />
<path style="fill:none;stroke:#000;stroke-width:2" d="M550,200 l0,-73 -522,0 0,73 522,0" />
<path style="fill:#7f7f7f;stroke:#000;stroke-width:2" d="M442,946 l9,24 65,0 12,-24 -86,0z" />
<path style="fill:#7f7f7f;stroke:#000;stroke-width:2" d="M246,946 l9,24 66,0 11,-24 -86,0z" />
<path style="fill:#7f7f7f;stroke:#000;stroke-width:2" d="M50,946 l10,24 65,0 11,-24 -86,0z" />
<path style="fill:#7f7f7f;stroke:#000;stroke-width:2" d="M442,798 l9,-24 65,0 12,24 -86,0z" />
<path style="fill:#7f7f7f;stroke:#000;stroke-width:2" d="M246,798 l9,-24 66,0 11,24 -86,0z" />
<path style="fill:#7f7f7f;stroke:#000;stroke-width:2" d="M50,798 l10,-24 65,0 11,24 -86,0z" />
<path style="fill:#b2b2b2;stroke:#000;stroke-width:2" d="M457,946 l5,24 54,0 12,-24 -71,0z" />
<path style="fill:#b2b2b2;stroke:#000;stroke-width:2" d="M261,946 l6,24 54,0 11,-24 -71,0z" />
<path style="fill:#b2b2b2;stroke:#000;stroke-width:2" d="M65,946 l6,24 54,0 11,-24 -71,0z" />
<path style="fill:#b2b2b2;stroke:#000;stroke-width:2" d="M457,798 l5,-24 54,0 12,24 -71,0z" />
<path style="fill:#b2b2b2;stroke:#000;stroke-width:2" d="M261,798 l6,-24 54,0 11,24 -71,0z" />
<path style="fill:#b2b2b2;stroke:#000;stroke-width:2" d="M65,798 l6,-24 54,0 11,24 -71,0z" />
<path style="fill:#7f7f7f" d="M550,798 l0,73 -522,0 0,-73 522,0z" />
<path style="fill:#999" d="M518,798 l0,73 -458,0 0,-73 458,0z" />
<path style="fill:#b2b2b2" d="M462,798 l0,73 -348,0 0,-73 348,0z" />
<path style="fill:#ccc" d="M408,798 l0,73 -240,0 0,-73 240,0z" />
<path style="fill:#e5e5e5" d="M365,798 l0,73 -153,0 0,-73 153,0z" />
<path style="fill:#fff" d="M321,798 l0,73 -64,0 0,-73 64,0z" />
<path style="fill:none;stroke:#000;stroke-width:2" d="M550,798 l0,73 -522,0 0,-73 522,0" />
<path style="fill:#e5e5e5;stroke:#000;stroke-width:2" d="M507,774 l9,0 12,24 -17,0 -4,-24z" />
<path style="fill:#e5e5e5;stroke:#000;stroke-width:2" d="M311,774 l10,0 11,24 -17,0 -4,-24z" />
<path style="fill:#e5e5e5;stroke:#000;stroke-width:2" d="M115,774 l10,0 11,24 -15,0 -6,-24z" />
<path style="fill:#e5e5e5;stroke:#000;stroke-width:2" d="M507,970 l9,0 12,-24 -17,0 -4,24z" />
<path style="fill:#e5e5e5;stroke:#000;stroke-width:2" d="M311,970 l10,0 11,-24 -17,0 -4,24z" />
<path style="fill:#e5e5e5;stroke:#000;stroke-width:2" d="M115,970 l10,0 11,-24 -15,0 -6,24z" />
<path style="fill:#7f7f7f" d="M550,946 l0,-75 -522,0 0,75 522,0z" />
<path style="fill:#999" d="M518,946 l0,-75 -458,0 0,75 458,0z" />
<path style="fill:#b2b2b2" d="M462,946 l0,-75 -348,0 0,75 348,0z" />
<path style="fill:#ccc" d="M408,946 l0,-75 -240,0 0,75 240,0z" />
<path style="fill:#e5e5e5" d="M365,946 l0,-75 -153,0 0,75 153,0z" />
<path style="fill:#fff" d="M321,946 l0,-75 -64,0 0,75 64,0z" />
<path style="fill:none;stroke:#000;stroke-width:2" d="M550,946 l0,-75 -522,0 0,75 522,0" />
<path style="fill:#4c4c4c;stroke:#000;stroke-width:2" d="M520,230 l220,222 47,-46 -222,-223 -45,47z" />
<path style="fill:#666;stroke:#000;stroke-width:2" d="M584,164 l221,223 -18,19 -222,-223 19,-19z" />
<path style="fill:#999;stroke:#000;stroke-width:2" d="M602,183 l56,56 28,-28 -56,-56 -28,28z" />
<path style="fill:#b2b2b2;stroke:#000;stroke-width:2" d="M686,211 l91,94 -28,26 -91,-92 28,-28z" />
<path style="fill:#ccc;stroke:#000;stroke-width:2" d="M777,305 l38,35 -28,28 -38,-37 28,-26z" />
<path style="fill:#7f7f7f" d="M843,183 l-94,93 -54,-56 92,-93 56,56z" />
<path style="fill:#999" d="M839,179 l-91,94 -51,-49 94,-93 48,48z" />
<path style="fill:#b2b2b2" d="M833,174 l-93,93 -35,-37 91,-94 37,38z" />
<path style="fill:#ccc" d="M828,168 l-94,94 -24,-27 92,-91 26,24z" />
<path style="fill:#e5e5e5" d="M822,164 l-91,92 -17,-17 93,-92 15,17z" />
<path style="fill:#fff" d="M818,159 l-93,93 -5,-7 91,-92 7,6z" />
<path style="fill:none;stroke:#000;stroke-width:2" d="M787,129 l56,54 -94,93 -54,-56 92,-91" />
<path style="fill:#7f7f7f" d="M270,478 l248,-248 222,222 -295,296 -177,-79 2,-191z" />
<path style="fill:#999" d="M270,505 l263,-262 194,194 -300,303 -157,-71 0,-164z" />
<path style="fill:#b2b2b2" d="M268,551 l288,-284 147,148 -310,314 -123,-60 -2,-118z" />
<path style="fill:#ccc" d="M268,596 l312,-306 100,101 -320,323 -90,-45 -2,-73z" />
<path style="fill:#e5e5e5" d="M270,635 l327,-327 65,66 -327,327 -65,-32 0,-34z" />
<path style="fill:#fff" d="M268,675 l347,-348 28,28 -335,333 -40,-13z" />
<path style="fill:none;stroke:#000;stroke-width:2" d="M740,452 l-295,296" />
<path style="fill:none;stroke:#000;stroke-width:2" d="M270,478 l248,-248" />

</svg>
