

<svg xmlns:agg="http://www.example.com" xmlns="http://www.w3.org/2000/svg" preserveAspectRatio="none" width="1.7162in" height="1.4792in" viewBox="0 0 999 861">

<path style="fill:#e0e0e0;stroke:#000;stroke-width:2" d="M588,28 l-89,0 0,805 89,0 0,-805z" />
<path style="fill:#e0e0e0;stroke:#000;stroke-width:2" d="M588,150 l181,0 -59,560 -122,0 0,-560z" />
<path style="fill:#e0e0e0;stroke:#000;stroke-width:2" d="M710,695 l36,-329 31,-5 58,-23 46,-15 0,329 -51,20 -71,23 -49,0z" />
<path style="fill:#e0e0e0;stroke:#000;stroke-width:2" d="M970,153 l-89,0 0,680 89,0 0,-680z" />
<path style="fill:#e0e0e0;stroke:#000;stroke-width:2" d="M410,28 l89,0 0,805 -89,0 0,-805z" />
<path style="fill:#e0e0e0;stroke:#000;stroke-width:2" d="M410,150 l-181,0 59,560 122,0 0,-560z" />
<path style="fill:#e0e0e0;stroke:#000;stroke-width:2" d="M288,695 l-36,-329 -31,-5 -58,-23 -46,-15 0,329 51,20 71,23 49,0z" />
<path style="fill:#e0e0e0;stroke:#000;stroke-width:2" d="M28,153 l89,0 0,680 -89,0 0,-680z" />
<path style="fill:#b2b2b2" d="M410,769 l86,0 0,61 -86,0 0,-61z" />
<path style="fill:#b2b2b2" d="M33,774 l76,0 0,59 -76,0 0,-59z" />
<path style="fill:#b2b2b2" d="M285,695 l-8,-71 -160,-21 0,56 51,18 71,18 46,0z" />
<path style="fill:#b2b2b2" d="M280,634 l130,0 0,74 -120,0 -10,-74z" />
<path style="fill:#b2b2b2" d="M586,769 l-84,0 0,61 84,0 0,-61z" />
<path style="fill:#b2b2b2" d="M965,774 l-79,0 0,59 79,0 0,-59z" />
<path style="fill:#b2b2b2" d="M713,695 l8,-71 160,-21 0,56 -51,18 -71,18 -46,0z" />
<path style="fill:#b2b2b2" d="M718,634 l-130,0 0,74 120,0 10,-74z" />
<path style="fill:#000;stroke:#000;stroke-width:2" d="M435,389 l5,0 13,31 94,0 -2,-38 28,46 -28,45 2,-38 -94,0 -13,31 -5,0 8,-38 -8,-39z" />
<path style="fill:#7f7f7f" d="M308,710 l61,0 0,26 -8,0 0,7 -45,0 0,-7 -8,0 0,-26z" />
<path style="fill:#7f7f7f" d="M377,104 l-13,0 0,-36 13,0 0,-17 33,0 0,74 -33,0 0,-21z" />
<path style="fill:#7f7f7f" d="M377,315 l-13,0 0,-38 13,0 0,-18 33,0 0,77 -33,0 0,-21z" />
<path style="fill:#7f7f7f" d="M377,535 l-13,0 0,-36 13,0 0,-18 33,0 0,77 -33,0 0,-23z" />
<path style="fill:#7f7f7f" d="M377,794 l-13,0 0,-35 13,0 0,-18 33,0 0,74 -33,0 0,-21z" />
<path style="fill:#7f7f7f" d="M690,710 l-61,0 0,26 8,0 0,7 45,0 0,-7 8,0 0,-26z" />
<path style="fill:#7f7f7f" d="M621,104 l13,0 0,-36 -13,0 0,-17 -33,0 0,74 33,0 0,-21z" />
<path style="fill:#7f7f7f" d="M621,315 l13,0 0,-38 -13,0 0,-18 -33,0 0,77 33,0 0,-21z" />
<path style="fill:#7f7f7f" d="M621,535 l13,0 0,-36 -13,0 0,-18 -33,0 0,77 33,0 0,-23z" />
<path style="fill:#7f7f7f" d="M621,794 l13,0 0,-35 -13,0 0,-18 -33,0 0,74 33,0 0,-21z" />
<path style="fill:#f0f0f0" d="M33,168 l76,0 0,35 -76,0 0,-35z" />
<path style="fill:#f0f0f0" d="M415,48 l81,0 0,51 -81,0 0,-51z" />
<path style="fill:#f0f0f0" d="M379,104 l26,0 0,-36 -26,0 0,36z" />
<path style="fill:#f0f0f0" d="M379,315 l26,0 0,-38 -26,0 0,38z" />
<path style="fill:#f0f0f0" d="M379,537 l26,0 0,-38 -26,0 0,38z" />
<path style="fill:#f0f0f0" d="M379,794 l26,0 0,-35 -26,0 0,35z" />
<path style="fill:#f0f0f0" d="M326,710 l28,0 0,26 -28,0 0,-26z" />
<path style="fill:#f0f0f0" d="M321,201 l30,10 13,31 -13,30 -30,10 -28,-10 -13,-30 13,-31 28,-10z" />
<path style="fill:#f0f0f0" d="M232,165 l175,0 0,38 -170,0 -5,-38z" />
<path style="fill:#f0f0f0" d="M965,168 l-79,0 0,35 79,0 0,-35z" />
<path style="fill:#f0f0f0" d="M583,48 l-81,0 0,51 81,0 0,-51z" />
<path style="fill:#f0f0f0" d="M619,104 l-28,0 0,-36 28,0 0,36z" />
<path style="fill:#f0f0f0" d="M619,315 l-28,0 0,-38 28,0 0,38z" />
<path style="fill:#f0f0f0" d="M619,537 l-28,0 0,-38 28,0 0,38z" />
<path style="fill:#f0f0f0" d="M619,794 l-28,0 0,-35 28,0 0,35z" />
<path style="fill:#f0f0f0" d="M672,710 l-28,0 0,26 28,0 0,-26z" />
<path style="fill:#f0f0f0" d="M675,201 l-28,10 -13,31 13,30 28,10 30,-10 13,-30 -13,-31 -30,-10z" />
<path style="fill:#f0f0f0" d="M764,165 l-173,0 0,38 170,0 3,-38z" />
<path style="fill:#7f7f7f" d="M321,214 l20,7 8,21 -8,20 -20,8 -18,-8 -8,-20 8,-21 18,-7z" />
<path style="fill:#7f7f7f" d="M675,214 l-18,7 -8,21 8,20 18,8 20,-8 8,-20 -8,-21 -20,-7z" />

</svg>
