

<svg xmlns:agg="http://www.example.com" xmlns="http://www.w3.org/2000/svg" preserveAspectRatio="none" width="0.6959in" height="1.4792in" viewBox="0 0 470 999">

<path style="fill:#7f7f7f" d="M442,971 l-117,0 0,-367 -296,0 0,-210 296,0 0,-367 117,0 0,944z" />
<path style="fill:#999" d="M442,880 l-119,0 0,-295 -296,0 0,-169 296,0 0,-295 119,0 0,759z" />
<path style="fill:#b2b2b2" d="M442,788 l-119,0 0,-223 -296,0 0,-129 296,0 0,-223 119,0 0,575z" />
<path style="fill:#ccc" d="M442,697 l-119,0 0,-152 -296,0 0,-87 296,0 0,-152 119,0 0,391z" />
<path style="fill:#e5e5e5" d="M442,604 l-117,0 0,-81 -296,0 0,-46 296,0 0,-82 117,0 0,209z" />
<path style="fill:none;stroke:#000;stroke-width:2" d="M442,971 l-117,0 0,-367 -296,0 0,-210 296,0 0,-367 117,0 0,944" />
<path style="fill:none;stroke:#000;stroke-width:2" d="M323,396 l0,205" />

</svg>
