

<svg xmlns:agg="http://www.example.com" xmlns="http://www.w3.org/2000/svg" preserveAspectRatio="none" width="1.3360in" height="1.4792in" viewBox="0 0 476 527">

<path style="fill:#7f7f7f" d="M253,147 l0,256 -33,0 0,-256 33,0z" />
<path style="fill:#b2b2b2" d="M250,147 l0,256 -27,0 0,-256 27,0z" />
<path style="fill:#e5e5e5" d="M245,147 l0,256 -18,0 0,-256 18,0z" />
<path style="fill:#fff" d="M239,147 l0,256 -6,0 0,-256 6,0z" />
<path style="fill:none;stroke:#000;stroke-width:2" d="M220,147 l0,256" />
<path style="fill:none;stroke:#000;stroke-width:2" d="M253,403 l0,-256" />
<path style="fill:#7f7f7f" d="M236,193 l-183,0 1,-18 3,-18 4,-17 6,-17 8,-15 9,-15 11,-14 12,-13 13,-11 14,-10 15,-9 16,-8 17,-6 17,-4 18,-3 19,-1 19,1 18,3 17,4 17,6 16,8 16,9 14,10 13,11 12,13 10,14 10,15 7,15 7,17 4,17 3,18 1,18 -184,0z" />
<path style="fill:#999" d="M236,193 l-166,0 1,-18 2,-18 4,-17 6,-16 7,-16 8,-15 10,-14 11,-12 11,-12 13,-10 14,-9 14,-8 16,-6 15,-4 17,-3 17,-1 17,1 17,3 15,4 16,6 14,8 14,9 13,10 12,12 10,12 10,14 8,15 7,16 6,16 4,17 2,18 1,18 -166,0z" />
<path style="fill:#b2b2b2" d="M236,193 l-132,0 1,-18 2,-18 3,-17 4,-16 6,-16 7,-15 7,-14 9,-12 9,-12 10,-10 11,-9 12,-8 12,-6 12,-4 13,-3 14,-1 14,1 13,3 12,4 12,6 12,8 11,9 10,10 9,12 9,12 7,14 7,15 6,16 4,16 3,17 2,18 1,18 -132,0z" />
<path style="fill:#ccc" d="M236,193 l-97,0 0,-18 2,-18 2,-17 4,-17 4,-15 4,-15 6,-14 6,-13 7,-11 8,-10 16,-17 18,-10 20,-4 20,4 18,10 17,17 7,10 7,11 7,13 5,14 5,15 4,15 4,17 2,17 1,18 1,18 -98,0z" />
<path style="fill:#e5e5e5" d="M236,193 l-63,0 0,-18 1,-18 2,-17 2,-17 3,-15 3,-15 3,-14 4,-13 5,-11 10,-19 11,-14 13,-7 6,-1 13,4 12,10 10,17 5,10 5,11 4,13 3,14 3,15 3,15 2,17 2,17 1,18 0,18 -63,0z" />
<path style="fill:none;stroke:#000;stroke-width:2" d="M236,193 l-183,0 1,-18 3,-18 4,-17 6,-17 8,-15 9,-15 11,-14 12,-13 13,-11 14,-10 15,-9 16,-8 17,-6 17,-4 18,-3 19,-1 19,1 18,3 17,4 17,6 16,8 16,9 14,10 13,11 12,13 10,14 10,15 7,15 7,17 4,17 3,18 1,18 -184,0" />
<path style="fill:#fff" d="M236,193 l-17,0 0,-36 1,-17 0,-17 1,-15 1,-15 1,-14 1,-13 3,-21 3,-17 4,-13 2,-1 2,1 5,13 3,17 2,21 1,13 1,14 1,15 1,15 0,17 1,17 0,36 -17,0z" />
<path style="fill:#7f7f7f" d="M14,513 l0,-223 448,223 0,-223 -448,223z" />
<path style="fill:#999" d="M14,502 l0,-200 448,200 0,-200 -448,200z" />
<path style="fill:#b2b2b2" d="M14,479 l0,-154 448,154 0,-154 -448,154z" />
<path style="fill:#ccc" d="M14,456 l0,-109 448,109 0,-109 -448,109z" />
<path style="fill:#e5e5e5" d="M14,439 l0,-75 448,75 0,-75 -448,75z" />
<path style="fill:#fff" d="M14,416 l0,-29 448,29 0,-29 -448,29z" />
<path style="fill:none;stroke:#000;stroke-width:2" d="M14,513 l0,-223 448,223 0,-223 -448,223" />

</svg>
