

<svg xmlns:agg="http://www.example.com" xmlns="http://www.w3.org/2000/svg" preserveAspectRatio="none" width="1.2532in" height="1.4792in" viewBox="0 0 477 563">

<path style="fill:#000;stroke:#000;stroke-width:2" d="M181,311 l88,0 0,89 -88,0 0,-89z" />
<path style="fill:#7f7f7f" d="M181,111 l0,367 -33,0 0,-367 33,0z" />
<path style="fill:#b2b2b2" d="M178,111 l0,367 -27,0 0,-367 27,0z" />
<path style="fill:#e5e5e5" d="M174,111 l0,367 -19,0 0,-367 19,0z" />
<path style="fill:#fff" d="M167,111 l0,367 -6,0 0,-367 6,0z" />
<path style="fill:none;stroke:#000;stroke-width:2" d="M148,111 l0,367" />
<path style="fill:none;stroke:#000;stroke-width:2" d="M181,478 l0,-367" />
<path style="fill:#7f7f7f" d="M433,111 l0,156 -33,0 0,-156 33,0z" />
<path style="fill:#b2b2b2" d="M430,111 l0,156 -27,0 0,-156 27,0z" />
<path style="fill:#e5e5e5" d="M426,111 l0,156 -19,0 0,-156 19,0z" />
<path style="fill:#fff" d="M419,111 l0,156 -6,0 0,-156 6,0z" />
<path style="fill:none;stroke:#000;stroke-width:2" d="M400,111 l0,156" />
<path style="fill:none;stroke:#000;stroke-width:2" d="M433,267 l0,-156" />
<path style="fill:#7f7f7f" d="M214,296 l156,0 0,34 -156,0 0,-34z" />
<path style="fill:#b2b2b2" d="M214,299 l156,0 0,27 -156,0 0,-27z" />
<path style="fill:#e5e5e5" d="M214,304 l156,0 0,18 -156,0 0,-18z" />
<path style="fill:#fff" d="M214,310 l156,0 0,6 -156,0 0,-6z" />
<path style="fill:none;stroke:#000;stroke-width:2" d="M214,330 l156,0" />
<path style="fill:none;stroke:#000;stroke-width:2" d="M370,296 l-156,0" />
<path style="fill:#7f7f7f" d="M214,82 l0,-33 -66,0 33,33 33,0z" />
<path style="fill:#7f7f7f" d="M181,115 l-33,0 0,-67 33,33 0,34z" />
<path style="fill:#b2b2b2" d="M151,115 l27,0 0,-36 -27,-28 0,64z" />
<path style="fill:#b2b2b2" d="M214,52 l0,27 -36,0 -27,-27 63,0z" />
<path style="fill:#e5e5e5" d="M155,115 l18,0 0,-41 -18,-18 0,59z" />
<path style="fill:#e5e5e5" d="M214,56 l0,18 -40,0 -19,-18 59,0z" />
<path style="fill:#fff" d="M214,62 l0,6 -46,0 -7,-6 53,0z" />
<path style="fill:#fff" d="M161,115 l6,0 0,-47 -6,-6 0,53z" />
<path style="fill:none;stroke:#000;stroke-width:2" d="M148,115 l0,-67" />
<path style="fill:none;stroke:#000;stroke-width:2" d="M181,81 l0,34" />
<path style="fill:none;stroke:#000;stroke-width:2" d="M214,48 l-66,0" />
<path style="fill:none;stroke:#000;stroke-width:2" d="M181,82 l33,0" />
<path style="fill:#7f7f7f" d="M399,114 l33,0 0,-66 -33,33 0,33z" />
<path style="fill:#7f7f7f" d="M366,81 l0,-33 67,0 -33,33 -34,0z" />
<path style="fill:#b2b2b2" d="M366,51 l0,27 36,0 27,-27 -63,0z" />
<path style="fill:#b2b2b2" d="M429,114 l-27,0 0,-36 27,-27 0,63z" />
<path style="fill:#e5e5e5" d="M366,56 l0,18 41,0 18,-18 -59,0z" />
<path style="fill:#e5e5e5" d="M425,114 l-18,0 0,-40 18,-18 0,58z" />
<path style="fill:#fff" d="M419,114 l-6,0 0,-46 6,-6 0,52z" />
<path style="fill:#fff" d="M366,62 l0,6 47,0 6,-6 -53,0z" />
<path style="fill:none;stroke:#000;stroke-width:2" d="M366,48 l67,0" />
<path style="fill:none;stroke:#000;stroke-width:2" d="M400,81 l-34,0" />
<path style="fill:none;stroke:#000;stroke-width:2" d="M433,114 l0,-66" />
<path style="fill:none;stroke:#000;stroke-width:2" d="M399,81 l0,33" />
<path style="fill:#7f7f7f" d="M210,48 l160,0 0,34 -160,0 0,-34z" />
<path style="fill:#b2b2b2" d="M210,51 l160,0 0,27 -160,0 0,-27z" />
<path style="fill:#e5e5e5" d="M210,56 l160,0 0,18 -160,0 0,-18z" />
<path style="fill:#fff" d="M210,62 l160,0 0,6 -160,0 0,-6z" />
<path style="fill:none;stroke:#000;stroke-width:2" d="M210,82 l160,0" />
<path style="fill:none;stroke:#000;stroke-width:2" d="M370,48 l-160,0" />
<path style="fill:#7f7f7f" d="M367,296 l0,33 66,0 -33,-33 -33,0z" />
<path style="fill:#7f7f7f" d="M400,263 l33,0 0,66 -33,-33 0,-33z" />
<path style="fill:#b2b2b2" d="M430,263 l-27,0 0,36 27,27 0,-63z" />
<path style="fill:#b2b2b2" d="M367,326 l0,-27 36,0 27,27 -63,0z" />
<path style="fill:#e5e5e5" d="M425,263 l-18,0 0,40 18,19 0,-59z" />
<path style="fill:#e5e5e5" d="M367,321 l0,-18 40,0 18,18 -58,0z" />
<path style="fill:#fff" d="M367,315 l0,-6 46,0 6,6 -52,0z" />
<path style="fill:#fff" d="M419,263 l-6,0 0,46 6,7 0,-53z" />
<path style="fill:none;stroke:#000;stroke-width:2" d="M433,263 l0,66" />
<path style="fill:none;stroke:#000;stroke-width:2" d="M400,296 l0,-33" />
<path style="fill:none;stroke:#000;stroke-width:2" d="M366,329 l67,0" />
<path style="fill:none;stroke:#000;stroke-width:2" d="M400,296 l-34,0" />
<path style="fill:#7f7f7f" d="M214,295 l-33,0 0,-16 -34,0 0,66 34,0 0,-17 33,0 0,-33z" />
<path style="fill:#b2b2b2" d="M214,299 l-37,0 0,-20 -26,0 0,66 26,0 0,-20 37,0 0,-26z" />
<path style="fill:#e5e5e5" d="M214,303 l-41,0 0,-24 -18,0 0,66 18,0 0,-24 41,0 0,-18z" />
<path style="fill:#fff" d="M214,308 l-47,0 0,-29 -6,0 0,66 6,0 0,-30 47,0 0,-7z" />
<path style="fill:none;stroke:#000;stroke-width:2" d="M214,295 l-33,0 0,-16" />
<path style="fill:none;stroke:#000;stroke-width:2" d="M214,328 l-33,0 0,17" />
<path style="fill:none;stroke:#000;stroke-width:2" d="M147,345 l0,-66" />
<path style="fill:#7f7f7f" d="M15,548 l0,-148 297,148 0,-148 -297,148z" />
<path style="fill:#999" d="M15,541 l0,-134 297,134 0,-134 -297,134z" />
<path style="fill:#b2b2b2" d="M15,525 l0,-102 297,102 0,-102 -297,102z" />
<path style="fill:#ccc" d="M15,510 l0,-72 297,72 0,-72 -297,72z" />
<path style="fill:#e5e5e5" d="M15,499 l0,-50 297,50 0,-50 -297,50z" />
<path style="fill:#fff" d="M15,483 l0,-19 297,19 0,-19 -297,19z" />
<path style="fill:none;stroke:#000;stroke-width:2" d="M15,548 l0,-148 297,148 0,-148 -297,148" />
<path style="fill:#000" d="M429,200 l-10,-24 -22,22 20,20 22,-22 -10,-24 10,24 23,-24 -33,0z" />
<path style="fill:#000" d="M397,176 l10,24 22,0 0,-28 -22,0 10,24 -20,-20 -23,24 33,0z" />
<path style="fill:#000" d="M429,164 l-10,-10 -22,22 20,20 22,-22 -10,-10z" />
<path style="fill:#000" d="M304,48 l-24,-10 -22,22 20,20 22,-22 -24,-10 28,0 0,-33 -24,23z" />
<path style="fill:#000" d="M280,60 l24,10 0,-22 -28,0 0,22 24,10 -24,-10 0,33 24,-23z" />
<path style="fill:#000" d="M313,48 l-10,-10 -23,22 20,20 23,-22 -10,-10z" />
<path style="fill:#7f7f7f;stroke:#000;stroke-width:2" d="M164,297 l88,0 0,88 -88,0 0,-88z" />
<path style="fill:#7f7f7f" d="M163,232 l-121,0 2,-25 8,-24 11,-21 15,-18 18,-16 20,-11 23,-7 24,-3 24,3 23,7 21,11 18,16 14,18 12,21 7,24 2,25 -121,0z" />
<path style="fill:#999" d="M163,232 l-109,0 2,-25 7,-24 10,-21 13,-18 16,-16 19,-11 20,-7 22,-3 22,3 21,7 19,11 16,16 13,18 10,21 7,24 2,25 -110,0z" />
<path style="fill:#b2b2b2" d="M163,232 l-87,0 2,-25 5,-24 8,-21 11,-18 12,-16 15,-11 16,-7 18,-3 18,3 16,7 15,11 13,16 10,18 8,21 5,24 2,25 -87,0z" />
<path style="fill:#ccc" d="M163,232 l-64,0 1,-25 4,-24 6,-21 8,-18 9,-16 11,-11 12,-7 13,-3 13,3 12,7 11,11 10,16 8,18 6,21 4,24 1,25 -65,0z" />
<path style="fill:#e5e5e5" d="M163,232 l-41,0 1,-25 2,-24 4,-21 5,-18 6,-16 7,-11 8,-7 8,-3 8,3 8,7 7,11 7,16 5,18 4,21 2,24 1,25 -42,0z" />
<path style="fill:none;stroke:#000;stroke-width:2" d="M163,232 l-121,0 2,-25 8,-24 11,-21 15,-18 18,-16 20,-11 23,-7 24,-3 24,3 23,7 21,11 18,16 14,18 12,21 7,24 2,25 -121,0" />
<path style="fill:#fff" d="M163,232 l-11,0 0,-25 1,-24 1,-21 1,-18 2,-16 2,-11 2,-7 2,-3 3,3 2,7 2,11 2,16 1,18 1,21 1,24 0,25 -12,0z" />

</svg>
