

<svg xmlns:agg="http://www.example.com" xmlns="http://www.w3.org/2000/svg" preserveAspectRatio="none" width="1.1666in" height="1.4792in" viewBox="0 0 418 530">

<path style="fill:#7f7f7f" d="M117,349 l286,0 0,142 -286,0 0,-142z" />
<path style="fill:#999" d="M117,357 l286,0 0,126 -286,0 0,-126z" />
<path style="fill:#b2b2b2" d="M117,373 l286,0 0,95 -286,0 0,-95z" />
<path style="fill:#ccc" d="M117,387 l286,0 0,66 -286,0 0,-66z" />
<path style="fill:#e5e5e5" d="M117,399 l286,0 0,42 -286,0 0,-42z" />
<path style="fill:#fff" d="M117,411 l286,0 0,18 -286,0 0,-18z" />
<path style="fill:none;stroke:#000;stroke-width:2" d="M117,491 l286,0" />
<path style="fill:none;stroke:#000;stroke-width:2" d="M403,349 l-286,0" />
<path style="fill:#7f7f7f" d="M141,325 l48,0 0,190 -48,0 0,-190z" />
<path style="fill:#999" d="M141,336 l48,0 0,168 -48,0 0,-168z" />
<path style="fill:#b2b2b2" d="M141,357 l48,0 0,127 -48,0 0,-127z" />
<path style="fill:#ccc" d="M141,376 l48,0 0,88 -48,0 0,-88z" />
<path style="fill:#e5e5e5" d="M141,392 l48,0 0,56 -48,0 0,-56z" />
<path style="fill:#fff" d="M141,408 l48,0 0,23 -48,0 0,-23z" />
<path style="fill:none;stroke:#000;stroke-width:2" d="M141,325 l48,0 0,190 -48,0 0,-190" />
<path style="fill:#7f7f7f" d="M332,325 l47,0 0,190 -47,0 0,-190z" />
<path style="fill:#999" d="M332,336 l47,0 0,168 -47,0 0,-168z" />
<path style="fill:#b2b2b2" d="M332,357 l47,0 0,127 -47,0 0,-127z" />
<path style="fill:#ccc" d="M332,376 l47,0 0,88 -47,0 0,-88z" />
<path style="fill:#e5e5e5" d="M332,392 l47,0 0,56 -47,0 0,-56z" />
<path style="fill:#fff" d="M332,408 l47,0 0,23 -47,0 0,-23z" />
<path style="fill:none;stroke:#000;stroke-width:2" d="M332,325 l47,0 0,190 -47,0 0,-190" />
<path style="fill:#7f7f7f" d="M236,348 l0,-71 48,0 0,71 -2,9 -5,8 -8,5 -9,2 -9,-2 -8,-5 -5,-8 -2,-9z" />
<path style="fill:#999" d="M239,360 l4,5 5,4 6,2 6,1 7,-1 5,-2 5,-4 4,-5 0,-83 -42,0 0,83z" />
<path style="fill:#b2b2b2" d="M244,366 l4,3 4,1 4,2 4,0 4,0 5,-2 4,-1 3,-3 0,-89 -32,0 0,89z" />
<path style="fill:#ccc" d="M249,370 l3,1 3,0 3,1 2,0 3,0 3,-1 3,0 2,-1 0,-93 -22,0 0,93z" />
<path style="fill:#e5e5e5" d="M253,371 l2,1 2,0 1,0 2,0 2,0 2,0 2,0 2,-1 0,-94 -15,0 0,94z" />
<path style="fill:#fff" d="M257,372 l1,0 1,0 1,0 1,0 1,0 1,0 0,-95 -6,0 0,95z" />
<path style="fill:none;stroke:#000;stroke-width:2" d="M284,277 l0,71 -2,9 -5,8 -8,5 -9,2 -9,-2 -8,-5 -5,-8 -2,-9 0,-71" />
<path style="fill:#999;stroke:#000;stroke-width:2" d="M158,275 l-20,-20 0,-204 20,-21 204,0 21,21 0,204 -21,20 -204,0z" />
<path style="fill:#7f7f7f" d="M373,40 l10,11 0,204 -21,20 -204,0 -10,-10 18,-18 8,8 173,0 15,-16 0,-173 -7,-8 18,-18z" />
<path style="fill:#ccc" d="M148,265 l-10,-10 0,-204 20,-21 204,0 11,10 -18,18 -8,-7 -173,0 -16,15 0,173 8,8 -18,18z" />
<path style="fill:none;stroke:#000;stroke-width:2" d="M158,275 l-20,-20 0,-204 20,-21 204,0 21,21 0,204 -21,20 -204,0" />
<path style="fill:#999;stroke:#000;stroke-width:2" d="M401,173 l-281,0 -3,-2 0,-36 3,-3 281,0 2,3 0,36 -2,2z" />
<path style="fill:#ccc" d="M120,173 l-3,-2 0,-36 3,-3 281,0 -3,5 -276,0 0,31 -2,5z" />
<path style="fill:#7f7f7f" d="M401,132 l2,3 0,36 -2,2 -281,0 2,-5 276,0 0,-31 3,-5z" />
<path style="fill:none;stroke:#000;stroke-width:2" d="M401,173 l-281,0 -3,-2 0,-36 3,-3 281,0 2,3 0,36 -2,2" />
<path style="fill:#7f7f7f;stroke:#000;stroke-width:2" d="M209,30 l-3,-15 -24,0 -3,15 30,0z" />
<path style="fill:#b2b2b2;stroke:#000;stroke-width:2" d="M204,30 l-2,-15 -20,0 -3,15 25,0z" />
<path style="fill:#e5e5e5;stroke:#000;stroke-width:2" d="M186,15 l-4,0 -3,15 5,0 2,-15z" />
<path style="fill:#7f7f7f;stroke:#000;stroke-width:2" d="M138,250 l-16,0 0,-62 16,0 0,62z" />
<path style="fill:#999;stroke:#000;stroke-width:2" d="M122,209 l-86,0 -16,5 -5,15 0,120 21,0 0,-115 5,-5 81,0 0,-20z" />
<path style="fill:#ccc" d="M26,349 l-11,0 0,-120 5,-15 16,-5 86,0 0,10 -86,0 -8,3 -2,7 0,120z" />
<path style="fill:none;stroke:#000;stroke-width:2" d="M122,209 l-86,0 -16,5 -5,15 0,120 21,0 0,-115 5,-5 81,0 0,-20" />

</svg>
