 

<svg xmlns:agg="http://www.example.com" xmlns="http://www.w3.org/2000/svg" preserveAspectRatio="none" width="0.1883in" height="1.0750in" viewBox="0 0 175 999">

<path style="fill:#bfbfbf;stroke:#000;stroke-width:2" d="M121,375 l0,521 -87,45 26,0 74,-41 0,-528 -13,3z" />
<path style="fill:#e5e5e5" d="M44,382 l0,588 90,-51 0,-19 -74,41 0,-543 74,-26 0,547 13,-10 0,-556 -103,29z" />
<path style="fill:none;stroke:#000;stroke-width:2" d="M44,970 l0,-588 103,-29 0,556 -103,61" />
<path style="fill:none;stroke:#000;stroke-width:2" d="M60,941 l0,-543 74,-26 0,528 -74,41" />
<path style="fill:#bfbfbf;stroke:#000;stroke-width:2" d="M44,970 l0,-588 103,-29 -26,0 -93,22 0,595 16,0z" />
<path style="fill:none;stroke:#000;stroke-width:2" d="M121,896 l13,4" />
<path style="fill:#d9d9d9;stroke:#000;stroke-width:2" d="M60,398 l74,-26 0,270 -74,32 0,-276z" />
<path style="fill:#b2b2b2" d="M69,446 l0,61 55,-22 10,-29 -55,22 -10,-32z" />
<path style="fill:#b2b2b2" d="M69,552 l0,61 55,-23 10,-28 -55,22 -10,-32z" />
<ellipse style="fill:#666;stroke:#000;stroke-width:2" cx="87" cy="359" rx="59" ry="19" />
<path style="fill:#333;stroke:#000;stroke-width:2" d="M34,362 l39,-19 -23,25 -16,-6z" />
<path style="fill:#333;stroke:#000;stroke-width:2" d="M60,371 l22,-28 -3,28 -19,0z" />
<path style="fill:#333;stroke:#000;stroke-width:2" d="M112,371 l-23,-28 3,28 20,0z" />
<path style="fill:#333;stroke:#000;stroke-width:2" d="M140,362 l-38,-19 22,25 16,-6z" />
<path style="fill:#666;stroke:#000;stroke-width:2" d="M79,28 l13,0 0,315 -13,0 0,-315z" />
<path style="fill:#ccc" d="M84,28 l4,0 0,315 -4,0 0,-315z" />
<path style="fill:none;stroke:#000;stroke-width:2" d="M28,375 l16,7" />
<path style="fill:none;stroke:#000;stroke-width:2" d="M28,375 l16,7" />

</svg>
