

<svg xmlns:agg="http://www.example.com" xmlns="http://www.w3.org/2000/svg" preserveAspectRatio="none" width="2.0104in" height="1.0605in" viewBox="0 0 527 278">

<path style="fill:#7f7f7f" d="M14,264 l0,-250 499,250 0,-250 -499,250z" />
<path style="fill:#999" d="M14,251 l0,-224 499,224 0,-224 -499,224z" />
<path style="fill:#b2b2b2" d="M14,225 l0,-173 499,173 0,-173 -499,173z" />
<path style="fill:#ccc" d="M14,200 l0,-122 499,122 0,-122 -499,122z" />
<path style="fill:#e5e5e5" d="M14,180 l0,-83 499,83 0,-83 -499,83z" />
<path style="fill:#fff" d="M14,155 l0,-32 499,32 0,-32 -499,32z" />
<path style="fill:none;stroke:#000;stroke-width:2" d="M14,264 l0,-250 499,250 0,-250 -499,250" />

</svg>
