

<svg xmlns:agg="http://www.example.com" xmlns="http://www.w3.org/2000/svg" preserveAspectRatio="none" width="0.9254in" height="1.4792in" viewBox="0 0 625 999">

<path style="fill:#7f7f7f;stroke:#000;stroke-width:2" d="M283,931 l69,-39 98,0 68,39 -39,0 -29,-15 -98,0 -30,15 -39,0z" />
<path style="fill:#ccc;stroke:#000;stroke-width:2" d="M381,656 l39,0 0,236 -39,0 0,-236z" />
<path style="fill:#fff" d="M396,656 l10,0 0,236 -10,0 0,-236z" />
<path style="fill:#7f7f7f;stroke:#000;stroke-width:2" d="M361,700 l76,-20 4,14 -76,21 -4,-15z" />
<path style="fill:#7f7f7f;stroke:#000;stroke-width:2" d="M361,740 l76,-20 4,14 -76,21 -4,-15z" />
<path style="fill:#7f7f7f;stroke:#000;stroke-width:2" d="M361,779 l76,-21 4,15 -76,20 -4,-14z" />
<path style="fill:#7f7f7f;stroke:#000;stroke-width:2" d="M361,818 l76,-20 4,14 -76,21 -4,-15z" />
<path style="fill:#7f7f7f;stroke:#000;stroke-width:2" d="M361,857 l76,-20 4,14 -76,21 -4,-15z" />
<path style="fill:#7f7f7f;stroke:#000;stroke-width:2" d="M361,897 l76,-21 4,15 -76,20 -4,-14z" />
<path style="fill:#7f7f7f;stroke:#000;stroke-width:2" d="M361,661 l76,-20 4,14 -76,21 -4,-15z" />
<path style="fill:#999" d="M342,263 l0,-34 -172,98 -59,-103 231,-132 0,-25 118,0 0,196 -118,0z" />
<path style="fill:#b2b2b2" d="M351,264 l0,-54 -186,107 -49,-83 236,-137 -1,-30 99,0 0,197 -99,0z" />
<path style="fill:#ccc" d="M371,263 l0,-88 -216,123 -29,-44 245,-143 0,-44 59,0 0,196 -59,0z" />
<path style="fill:#e5e5e5" d="M391,263 l0,-122 -245,142 -10,-15 255,-147 0,-54 19,0 0,196 -19,0z" />
<path style="fill:#999" d="M244,28 l314,0 0,39 -314,0 0,-39z" />
<path style="fill:#999;stroke:#000;stroke-width:2" d="M342,656 l0,-157 -39,-39 0,-197 196,0 0,197 -39,39 0,157 -118,0z" />
<path style="fill:none;stroke:#000;stroke-width:2" d="M342,263 l0,-34 -172,98 -59,-103 231,-132 0,-25 118,0 0,196 -118,0" />
<path style="fill:#b2b2b2" d="M270,28 l261,0 0,39 -261,0 0,-39z" />
<path style="fill:#ccc" d="M322,28 l157,0 0,39 -157,0 0,-39z" />
<path style="fill:#e5e5e5" d="M375,28 l51,0 0,39 -51,0 0,-39z" />
<path style="fill:none;stroke:#000;stroke-width:2" d="M244,28 l314,0 0,39 -314,0 0,-39" />
<path style="fill:#999" d="M62,138 l157,272 -34,20 -157,-272 34,-20z" />
<path style="fill:#b2b2b2" d="M75,162 l131,225 -34,20 -131,-226 34,-19z" />
<path style="fill:#ccc" d="M101,206 l79,137 -34,19 -79,-136 34,-20z" />
<path style="fill:#e5e5e5" d="M127,252 l26,45 -33,19 -27,-44 34,-20z" />
<path style="fill:none;stroke:#000;stroke-width:2" d="M62,138 l157,272 -34,20 -157,-272 34,-20" />
<path style="fill:#4c4c4c;stroke:#000;stroke-width:2" d="M371,317 l59,0 0,84 -59,0 0,-84z" />
<path style="fill:#ccc" d="M387,263 l28,0 0,138 -28,0 0,-138z" />
<path style="fill:none;stroke:#000;stroke-width:2" d="M371,263 l59,0 0,54 -59,0 0,-54" />
<path style="fill:#ccc" d="M445,435 l0,-172 39,0 0,187 -49,49 0,157 -69,0 0,-157 -49,-49 0,-187 39,0 0,172 45,44 44,-44z" />
<path style="fill:#b2b2b2" d="M371,406 l0,24 30,30 29,-30 0,-24 -59,0z" />
<path style="fill:#f2f2f2" d="M459,445 l0,-182 10,0 0,187 -54,54 0,152 -29,0 0,-152 -54,-54 0,-187 10,0 0,182 59,59 58,-59z" />
<path style="fill:none;stroke:#000;stroke-width:2" d="M303,263 l196,0 0,54 -196,0 0,-54" />
<path style="fill:#666;stroke:#000;stroke-width:2" d="M460,180 l29,0 0,34 -29,0 0,-34z" />
<path style="fill:#999;stroke:#000;stroke-width:2" d="M460,116 l29,0 0,64 -29,0 0,-64z" />
<path style="fill:#b2b2b2;stroke:#000;stroke-width:2" d="M489,155 l20,0 0,40 -20,0 0,-40z" />
<path style="fill:#e5e5e5;stroke:#000;stroke-width:2" d="M489,136 l20,0 0,19 -20,0 0,-19z" />
<path style="fill:#999" d="M578,970 l-354,0 -20,-19 6,-14 14,-6 354,0 19,20 -19,19z" />
<path style="fill:#bfbfbf" d="M525,970 l-248,0 -3,0 -7,-5 -4,-10 0,-4 3,-11 6,-7 2,-2 3,0 248,0 7,3 5,9 1,8 -2,11 -6,7 -5,1z" />
<path style="fill:#e5e5e5" d="M463,970 l-124,0 -1,0 -5,-8 -1,-7 1,-12 2,-9 3,-3 1,0 124,0 1,0 1,2 4,10 0,4 0,11 -3,9 -1,2 -1,1 -1,0z" />
<path style="fill:none;stroke:#000;stroke-width:2" d="M578,970 l-354,0 -20,-19 6,-14 14,-6 354,0 19,20 -19,19" />
<path style="fill:#a6a6a6;stroke:#000;stroke-width:2" d="M352,931 l0,-39 98,0 0,39 -98,0z" />
<path style="fill:none;stroke:#000;stroke-width:2" d="M342,627 l118,0" />
<circle style="fill:#e5e5e5;stroke:#000;stroke-width:2" cx="400" cy="597" r="19" />
<circle style="fill:#000" cx="401" cy="597" r="10" />

</svg>
