 

<svg xmlns:agg="http://www.example.com" xmlns="http://www.w3.org/2000/svg" preserveAspectRatio="none" width="0.7059in" height="1.0750in" viewBox="0 0 656 999">

<path style="fill:#000" d="M412,28 l-150,0 0,155 150,0 0,-155z" />
<path style="fill:#0d0d0d" d="M402,28 l-128,0 0,155 128,0 0,-155z" />
<path style="fill:#191919" d="M391,28 l-108,0 0,155 108,0 0,-155z" />
<path style="fill:#262626" d="M380,28 l-85,0 0,155 85,0 0,-155z" />
<path style="fill:#333" d="M370,28 l-64,0 0,155 64,0 0,-155z" />
<path style="fill:#404040" d="M359,28 l-44,0 0,155 44,0 0,-155z" />
<path style="fill:#4c4c4c" d="M347,28 l-20,0 0,155 20,0 0,-155z" />
<path style="fill:none;stroke:#000;stroke-width:2" d="M412,28 l-150,0 0,155 150,0 0,-155" />
<path style="fill:#666" d="M628,692 l0,-301 -44,0 0,76 -515,0 0,-76 -41,0 0,301 41,0 0,-76 515,0 0,76 44,0z" />
<path style="fill:#787878" d="M626,671 l0,-257 -42,0 0,64 -515,0 0,-64 -41,0 0,257 41,0 0,-64 515,0 0,64 42,0z" />
<path style="fill:#878787" d="M626,648 l0,-213 -42,0 0,53 -515,0 0,-53 -41,0 0,213 41,0 0,-52 515,0 0,52 42,0z" />
<path style="fill:#999" d="M626,628 l0,-172 -42,0 0,43 -515,0 0,-43 -41,0 0,172 41,0 0,-44 515,0 0,44 42,0z" />
<path style="fill:#ababab" d="M626,607 l0,-131 -42,0 0,34 -515,0 0,-34 -41,0 0,131 41,0 0,-32 515,0 0,32 42,0z" />
<path style="fill:#bababa" d="M626,584 l0,-85 -42,0 0,21 -515,0 0,-21 -41,0 0,85 41,0 0,-21 515,0 0,21 42,0z" />
<path style="fill:#ccc" d="M628,563 l0,-43 -44,0 0,11 -515,0 0,-11 -41,0 0,43 41,0 0,-11 515,0 0,11 44,0z" />
<path style="fill:none;stroke:#000;stroke-width:2" d="M628,692 l0,-301 -44,0 0,76 -515,0 0,-76 -41,0 0,301 41,0 0,-76 515,0 0,76 44,0" />
<path style="fill:none;stroke:#000;stroke-width:2" d="M584,616 l0,-149" />
<path style="fill:none;stroke:#000;stroke-width:2" d="M69,616 l0,-149" />
<path style="fill:#191919;stroke:#000;stroke-width:2" d="M347,156 l-128,6 0,102 128,0 0,-108z" />
<path style="fill:#4c4c4c;stroke:#000;stroke-width:2" d="M456,162 l-109,-6 0,108 109,0 0,-102z" />
<path style="fill:#7f7f7f" d="M338,970 l-32,0 0,-64 -44,0 0,-193 -9,0 0,-10 -12,0 0,-11 -11,0 0,-11 -21,0 0,-10 -11,0 0,-257 21,0 0,-12 43,0 0,-11 33,0 0,-127 85,0 0,127 32,0 0,11 44,0 0,12 20,0 0,257 -9,0 0,10 -23,0 0,11 -9,0 0,11 -12,0 0,10 -11,0 0,193 -42,0 0,64 -32,0z" />
<path style="fill:#8c8c8c" d="M338,970 l-30,0 0,-64 -38,0 0,-193 -9,0 0,-10 -12,0 0,-11 -9,0 0,-11 -19,0 0,-10 -10,0 0,-257 19,0 0,-12 40,0 0,-11 28,0 0,-129 78,0 0,129 30,0 0,11 38,0 0,12 19,0 0,257 -10,0 0,10 -18,0 0,11 -10,0 0,11 -9,0 0,10 -10,0 0,193 -39,0 0,64 -29,0z" />
<path style="fill:#999" d="M338,970 l-26,0 0,-64 -36,0 0,-193 -8,0 0,-10 -9,0 0,-11 -10,0 0,-11 -17,0 0,-10 -8,0 0,-257 17,0 0,-12 35,0 0,-11 26,0 0,-129 70,0 0,129 27,0 0,11 34,0 0,12 19,0 0,257 -10,0 0,10 -17,0 0,11 -9,0 0,11 -8,0 0,10 -9,0 0,193 -34,0 0,64 -27,0z" />
<path style="fill:#a6a6a6" d="M338,970 l-25,0 0,-64 -30,0 0,-193 -7,0 0,-10 -8,0 0,-11 -7,0 0,-11 -16,0 0,-10 -7,0 0,-257 15,0 0,-12 30,0 0,-11 23,0 0,-129 62,0 0,129 23,0 0,11 32,0 0,12 16,0 0,257 -8,0 0,10 -15,0 0,11 -10,0 0,11 -7,0 0,10 -8,0 0,193 -30,0 0,64 -23,0z" />
<path style="fill:#b2b2b2" d="M338,970 l-21,0 0,-64 -26,0 0,-193 -8,0 0,-10 -5,0 0,-11 -8,0 0,-11 -13,0 0,-10 -8,0 0,-257 13,0 0,-12 29,0 0,-11 19,0 0,-129 55,0 0,129 20,0 0,11 27,0 0,12 13,0 0,257 -6,0 0,10 -15,0 0,11 -5,0 0,11 -8,0 0,10 -6,0 0,193 -28,0 0,64 -19,0z" />
<path style="fill:#bfbfbf" d="M338,970 l-17,0 0,-64 -25,0 0,-193 -5,0 0,-10 -6,0 0,-11 -6,0 0,-11 -11,0 0,-10 -6,0 0,-257 12,0 0,-12 22,0 0,-11 17,0 0,-129 48,0 0,129 17,0 0,11 23,0 0,12 11,0 0,257 -6,0 0,10 -11,0 0,11 -6,0 0,11 -5,0 0,10 -6,0 0,193 -23,0 0,64 -17,0z" />
<path style="fill:#ccc" d="M338,970 l-15,0 0,-64 -19,0 0,-193 -4,0 0,-10 -5,0 0,-11 -6,0 0,-11 -10,0 0,-10 -3,0 0,-257 9,0 0,-12 19,0 0,-11 13,0 0,-129 40,0 0,129 13,0 0,11 19,0 0,12 10,0 0,257 -4,0 0,10 -10,0 0,11 -5,0 0,11 -4,0 0,10 -6,0 0,193 -19,0 0,64 -13,0z" />
<path style="fill:#d9d9d9" d="M338,970 l-11,0 0,-64 -17,0 0,-193 -2,0 0,-10 -4,0 0,-11 -4,0 0,-11 -7,0 0,-10 -4,0 0,-257 7,0 0,-12 14,0 0,-11 13,0 0,-129 30,0 0,129 12,0 0,11 15,0 0,12 7,0 0,257 -3,0 0,10 -8,0 0,11 -4,0 0,11 -4,0 0,10 -3,0 0,193 -15,0 0,64 -12,0z" />
<path style="fill:#e5e5e5" d="M338,970 l-9,0 0,-64 -12,0 0,-193 -2,0 0,-10 -3,0 0,-11 -2,0 0,-11 -6,0 0,-10 -4,0 0,-257 6,0 0,-12 11,0 0,-11 10,0 0,-129 23,0 0,129 7,0 0,11 11,0 0,12 6,0 0,257 -4,0 0,10 -5,0 0,11 -2,0 0,11 -4,0 0,10 -2,0 0,193 -11,0 0,64 -8,0z" />
<path style="fill:#f2f2f2" d="M338,970 l-5,0 0,-64 -8,0 0,-193 -2,0 0,-10 -2,0 0,-11 -2,0 0,-11 -4,0 0,-10 -2,0 0,-257 4,0 0,-12 8,0 0,-11 5,0 0,-129 16,0 0,129 4,0 0,11 7,0 0,12 4,0 0,257 -2,0 0,10 -4,0 0,11 -2,0 0,11 -2,0 0,10 -1,0 0,193 -6,0 0,64 -6,0z" />
<ellipse style="fill:#fff" cx="337" cy="617" rx="10" ry="353" />
<path style="fill:none;stroke:#000;stroke-width:2" d="M338,970 l-32,0 0,-64 -44,0 0,-193 -9,0 0,-10 -12,0 0,-11 -11,0 0,-11 -21,0 0,-10 -11,0 0,-257 21,0 0,-12 43,0 0,-11 33,0 0,-127 85,0 0,127 32,0 0,11 44,0 0,12 20,0 0,257 -9,0 0,10 -23,0 0,11 -9,0 0,11 -12,0 0,10 -11,0 0,193 -42,0 0,64 -32,0" />
<path style="fill:none;stroke:#000;stroke-width:2" d="M467,671 l-258,0" />
<path style="fill:none;stroke:#000;stroke-width:2" d="M456,414 l-237,0" />
<path style="fill:none;stroke:#7f7f7f;stroke-width:2" d="M444,681 l-214,0" />
<path style="fill:none;stroke:#7f7f7f;stroke-width:2" d="M435,692 l-194,0" />
<path style="fill:none;stroke:#7f7f7f;stroke-width:2" d="M423,703 l-170,0" />
<path style="fill:none;stroke:#7f7f7f;stroke-width:2" d="M412,713 l-150,0" />
<path style="fill:none;stroke:#7f7f7f;stroke-width:2" d="M412,402 l-150,0" />
<path style="fill:none;stroke:#7f7f7f;stroke-width:2" d="M295,391 l85,0" />
<path style="fill:none;stroke:#000;stroke-width:2" d="M370,906 l-64,0" />
<path style="fill:#b2b2b2" d="M444,200 l-85,0 0,21 85,0 0,-21z" />

</svg>
