

<svg xmlns:agg="http://www.example.com" xmlns="http://www.w3.org/2000/svg" preserveAspectRatio="none" width="1.7959in" height="1.4792in" viewBox="0 0 533 439">

<path style="fill:#7f7f7f" d="M487,156 l0,32 -252,0 0,-32 252,0z" />
<path style="fill:#b2b2b2" d="M487,159 l0,26 -252,0 0,-26 252,0z" />
<path style="fill:#e5e5e5" d="M487,164 l0,17 -252,0 0,-17 252,0z" />
<path style="fill:#fff" d="M487,169 l0,6 -252,0 0,-6 252,0z" />
<path style="fill:none;stroke:#000;stroke-width:2" d="M487,188 l-252,0" />
<path style="fill:none;stroke:#000;stroke-width:2" d="M487,156 l-252,0" />
<path style="fill:#7f7f7f" d="M424,223 l-32,0 0,-102 32,0 0,102z" />
<path style="fill:#b2b2b2" d="M421,223 l-26,0 0,-102 26,0 0,102z" />
<path style="fill:#e5e5e5" d="M416,223 l-16,0 0,-102 16,0 0,102z" />
<path style="fill:#fff" d="M411,223 l-6,0 0,-102 6,0 0,102z" />
<path style="fill:none;stroke:#000;stroke-width:2" d="M392,223 l0,-102" />
<path style="fill:none;stroke:#000;stroke-width:2" d="M424,223 l0,-102" />
<path style="fill:#7f7f7f" d="M381,239 l-32,0 0,-134 32,0 0,134z" />
<path style="fill:#b2b2b2" d="M378,239 l-26,0 0,-134 26,0 0,134z" />
<path style="fill:#e5e5e5" d="M373,239 l-17,0 0,-134 17,0 0,134z" />
<path style="fill:#fff" d="M368,239 l-6,0 0,-134 6,0 0,134z" />
<path style="fill:none;stroke:#000;stroke-width:2" d="M349,239 l0,-134" />
<path style="fill:none;stroke:#000;stroke-width:2" d="M381,239 l0,-134" />
<path style="fill:#7f7f7f" d="M333,188 l0,-31 16,0 0,-16 31,0 0,16 16,0 0,31 -16,0 0,16 -31,0 0,-16 -16,0z" />
<path style="fill:#b2b2b2" d="M333,185 l0,-25 19,0 0,-19 25,0 0,19 19,0 0,25 -19,0 0,19 -25,0 0,-19 -19,0z" />
<path style="fill:#e5e5e5" d="M333,181 l0,-17 23,0 0,-23 17,0 0,23 23,0 0,17 -23,0 0,23 -17,0 0,-23 -23,0z" />
<path style="fill:#fff" d="M333,175 l0,-6 29,0 0,-28 6,0 0,28 28,0 0,6 -28,0 0,29 -6,0 0,-29 -29,0z" />
<path style="fill:none;stroke:#000;stroke-width:2" d="M333,188 l16,0 0,16" />
<path style="fill:none;stroke:#000;stroke-width:2" d="M380,204 l0,-16 16,0" />
<path style="fill:none;stroke:#000;stroke-width:2" d="M396,157 l-16,0 0,-16" />
<path style="fill:none;stroke:#000;stroke-width:2" d="M349,141 l0,16 -16,0" />
<path style="fill:#7f7f7f" d="M377,188 l0,-31 15,0 0,-16 32,0 0,16 15,0 0,31 -15,0 0,16 -32,0 0,-16 -15,0z" />
<path style="fill:#b2b2b2" d="M377,185 l0,-25 18,0 0,-19 26,0 0,19 18,0 0,25 -18,0 0,19 -26,0 0,-19 -18,0z" />
<path style="fill:#e5e5e5" d="M377,181 l0,-17 23,0 0,-23 16,0 0,23 23,0 0,17 -23,0 0,23 -16,0 0,-23 -23,0z" />
<path style="fill:#fff" d="M377,175 l0,-6 28,0 0,-28 6,0 0,28 28,0 0,6 -28,0 0,29 -6,0 0,-29 -28,0z" />
<path style="fill:none;stroke:#000;stroke-width:2" d="M377,188 l15,0 0,16" />
<path style="fill:none;stroke:#000;stroke-width:2" d="M424,204 l0,-16 15,0" />
<path style="fill:none;stroke:#000;stroke-width:2" d="M439,157 l-15,0 0,-16" />
<path style="fill:none;stroke:#000;stroke-width:2" d="M392,141 l0,16 -15,0" />
<path style="fill:#7f7f7f" d="M424,188 l0,-31 15,0 0,-16 32,0 0,16 16,0 0,31 -16,0 0,16 -32,0 0,-16 -15,0z" />
<path style="fill:#b2b2b2" d="M424,185 l0,-25 18,0 0,-19 26,0 0,19 19,0 0,25 -19,0 0,19 -26,0 0,-19 -18,0z" />
<path style="fill:#e5e5e5" d="M424,181 l0,-17 23,0 0,-23 16,0 1,23 23,0 0,17 -24,0 1,23 -17,0 0,-23 -23,0z" />
<path style="fill:#fff" d="M424,175 l0,-6 28,0 0,-28 6,0 0,28 29,0 0,6 -29,0 0,29 -6,0 0,-29 -28,0z" />
<path style="fill:none;stroke:#000;stroke-width:2" d="M424,188 l15,0 0,16" />
<path style="fill:none;stroke:#000;stroke-width:2" d="M471,204 l0,-16 16,0" />
<path style="fill:none;stroke:#000;stroke-width:2" d="M487,157 l-16,0 0,-16" />
<path style="fill:none;stroke:#000;stroke-width:2" d="M439,141 l0,16 -15,0" />
<path style="fill:#7f7f7f" d="M518,393 l0,31 -503,0 0,-31 503,0z" />
<path style="fill:#b2b2b2" d="M518,395 l0,26 -503,0 0,-26 503,0z" />
<path style="fill:#e5e5e5" d="M518,400 l0,17 -503,0 0,-17 503,0z" />
<path style="fill:#fff" d="M518,405 l0,6 -503,0 0,-6 503,0z" />
<path style="fill:none;stroke:#000;stroke-width:2" d="M518,424 l-503,0" />
<path style="fill:none;stroke:#000;stroke-width:2" d="M518,393 l-503,0" />
<path style="fill:#7f7f7f" d="M282,361 l-31,0 0,-43 31,0 0,43z" />
<path style="fill:#b2b2b2" d="M279,361 l-25,0 0,-43 25,0 0,43z" />
<path style="fill:#e5e5e5" d="M275,361 l-17,0 0,-43 17,0 0,43z" />
<path style="fill:#fff" d="M269,361 l-6,0 0,-43 6,0 0,43z" />
<path style="fill:none;stroke:#000;stroke-width:2" d="M251,361 l0,-43" />
<path style="fill:none;stroke:#000;stroke-width:2" d="M282,361 l0,-43" />
<path style="fill:#7f7f7f" d="M298,393 l0,31 -63,0 0,-31 16,0 0,-32 31,0 0,32 16,0z" />
<path style="fill:#b2b2b2" d="M298,396 l0,25 -44,0 -19,0 0,-26 19,1 0,-35 25,0 0,35 19,0z" />
<path style="fill:#e5e5e5" d="M298,400 l0,17 -40,0 -23,0 0,-17 23,0 0,-39 17,0 0,39 23,0z" />
<path style="fill:#fff" d="M298,405 l0,6 -35,0 -28,0 0,-6 28,0 0,-44 6,0 0,44 29,0z" />
<path style="fill:none;stroke:#000;stroke-width:2" d="M298,393 l-16,0 0,-32" />
<path style="fill:none;stroke:#000;stroke-width:2" d="M251,361 l0,32 -16,0" />
<path style="fill:none;stroke:#000;stroke-width:2" d="M235,424 l16,0 47,0" />
<path style="fill:#7f7f7f" d="M109,330 l157,-158 -157,-157 0,315z" />
<path style="fill:#999" d="M109,315 l157,-143 -157,-142 0,285z" />
<path style="fill:#b2b2b2" d="M109,281 l157,-109 -157,-108 0,217z" />
<path style="fill:#ccc" d="M109,251 l157,-79 -157,-78 0,157z" />
<path style="fill:#e5e5e5" d="M109,226 l157,-54 -157,-54 0,108z" />
<path style="fill:#fff" d="M109,192 l157,-20 -157,-19 0,39z" />
<path style="fill:none;stroke:#000;stroke-width:2" d="M109,330 l157,-158 -157,-157 0,315" />
<path style="fill:#7f7f7f" d="M109,330 l157,-158 158,158 -315,0z" />
<path style="fill:#999" d="M124,330 l142,-158 143,158 -285,0z" />
<path style="fill:#b2b2b2" d="M158,330 l108,-158 109,158 -217,0z" />
<path style="fill:#ccc" d="M188,330 l78,-158 79,158 -157,0z" />
<path style="fill:#e5e5e5" d="M212,330 l54,-158 54,158 -108,0z" />
<path style="fill:#fff" d="M247,330 l19,-158 20,158 -39,0z" />
<path style="fill:none;stroke:#000;stroke-width:2" d="M109,330 l157,-158 158,158 -315,0" />

</svg>
