

<svg xmlns:agg="http://www.example.com" xmlns="http://www.w3.org/2000/svg" preserveAspectRatio="none" width="1.3474in" height="1.4792in" viewBox="0 0 910 999">

<path style="fill:#000" d="M188,313 l19,-37 141,0 19,37 -179,0z" />
<path style="fill:#999" d="M455,970 l0,-35 106,0 0,-178 -106,0 0,-35 -52,0 0,16 -357,0 -18,72 0,72 18,72 357,0 0,16 52,0z" />
<path style="fill:#b2b2b2" d="M455,935 l0,-25 106,0 0,-128 -106,0 0,-25 -52,0 0,13 -357,0 -18,51 0,51 18,49 357,0 0,14 52,0z" />
<path style="fill:#ccc" d="M455,899 l0,-15 106,0 0,-76 -106,0 0,-15 -52,0 0,8 -357,0 -18,30 0,30 18,30 357,0 0,8 52,0z" />
<path style="fill:#e5e5e5" d="M455,863 l0,-4 106,0 0,-26 -106,0 0,-4 -52,0 0,2 -357,0 -18,9 0,11 18,10 357,0 0,2 52,0z" />
<path style="fill:none;stroke:#000;stroke-width:2" d="M455,970 l0,-35 106,0 0,-178 -106,0 0,-35 -52,0 0,16 -357,0 -18,72 0,72 18,72 357,0 0,16 52,0" />
<path style="fill:#ff4000" d="M420,313 l35,-285 391,0 36,285 -462,0z" />
<path style="fill:#fa3b00" d="M420,313 l9,-82 432,-90 21,172 -462,0z" />
<path style="fill:#333" d="M882,313 l-711,0 0,212 0,53 213,0 0,-53 143,0 0,-71 355,0 0,-141z" />
<path style="fill:#404040" d="M171,454 l356,0 0,19 -356,0 0,-19z" />
<path style="fill:none;stroke:#000;stroke-width:2" d="M171,454 l356,0" />
<path style="fill:none;stroke:#999;stroke-width:2" d="M171,473 l356,0" />
<path style="fill:#f63" d="M420,313 l35,-285 18,0 -18,285 -35,0z" />
<path style="fill:#e52600" d="M846,313 l-17,-285 17,0 36,285 -36,0z" />
<path style="fill:none;stroke:#000;stroke-width:2" d="M420,313 l35,-285 391,0 36,285 -462,0" />
<path style="fill:#333" d="M223,241 l108,0 0,-142 -303,0 0,70 195,19 0,53z" />
<path style="fill:#4c4c4c" d="M243,241 l70,0 0,-142 -70,0 0,142z" />
<path style="fill:#666" d="M260,241 l35,0 0,-142 -35,0 0,142z" />
<path style="fill:none;stroke:#000;stroke-width:2" d="M223,241 l108,0 0,-142 -303,0 0,70 195,19 0,53" />
<path style="fill:none;stroke:#7f7f7f;stroke-width:2" d="M223,188 l0,-72" />
<path style="fill:#333" d="M230,241 l96,0 0,72 -96,0 0,-72z" />
<path style="fill:#4c4c4c" d="M245,241 l66,0 0,72 -66,0 0,-72z" />
<path style="fill:#666" d="M261,241 l32,0 0,72 -32,0 0,-72z" />
<path style="fill:#7f7f7f" d="M273,241 l9,0 0,72 -9,0 0,-72z" />
<path style="fill:none;stroke:#000;stroke-width:2" d="M230,241 l96,0 0,72 -96,0 0,-72" />
<path style="fill:none;stroke:#666;stroke-width:2" d="M384,525 l-213,0" />
<path style="fill:none;stroke:#000;stroke-width:2" d="M882,313 l-711,0 0,212 0,53 213,0 0,-53 143,0 0,-71 355,0 0,-141" />
<path style="fill:#999" d="M367,757 l0,-143 -179,0 0,143 24,34 42,19 47,0 41,-19 25,-34z" />
<path style="fill:#b2b2b2" d="M348,757 l0,-143 -141,0 0,143 19,34 34,19 37,0 32,-19 19,-34z" />
<path style="fill:#ccc" d="M331,757 l0,-143 -108,0 0,143 16,34 24,19 28,0 25,-19 15,-34z" />
<path style="fill:#e5e5e5" d="M295,757 l0,-143 -35,0 0,143 5,34 8,19 9,0 9,-19 4,-34z" />
<path style="fill:none;stroke:#000;stroke-width:2" d="M367,757 l0,-143 -179,0 0,143 24,34 42,19 47,0 41,-19 25,-34" />
<path style="fill:#999;stroke:#000;stroke-width:2" d="M171,578 l213,0 0,36 -213,0 0,-36z" />
<path style="fill:none;stroke:#000;stroke-width:2" d="M403,954 l0,-216" />
<path style="fill:none;stroke:#000;stroke-width:2" d="M455,757 l0,178" />

</svg>
