

<svg xmlns:agg="http://www.example.com" xmlns="http://www.w3.org/2000/svg" preserveAspectRatio="none" width="1.4792in" height="1.4792in" viewBox="0 0 530 530">

<path style="fill:#7f7f7f" d="M99,224 l333,0 0,249 -333,0 0,-249z" />
<path style="fill:#999" d="M99,239 l333,0 0,219 -333,0 0,-219z" />
<path style="fill:#b2b2b2" d="M99,266 l333,0 0,166 -333,0 0,-166z" />
<path style="fill:#ccc" d="M99,291 l333,0 0,115 -333,0 0,-115z" />
<path style="fill:#e5e5e5" d="M99,312 l333,0 0,73 -333,0 0,-73z" />
<path style="fill:#fff" d="M99,333 l333,0 0,31 -333,0 0,-31z" />
<path style="fill:none;stroke:#000;stroke-width:2" d="M99,473 l333,0" />
<path style="fill:none;stroke:#000;stroke-width:2" d="M432,224 l-333,0" />
<path style="fill:#7f7f7f" d="M15,182 l84,0 0,333 -84,0 0,-333z" />
<path style="fill:#999" d="M15,202 l84,0 0,293 -84,0 0,-293z" />
<path style="fill:#b2b2b2" d="M15,238 l84,0 0,222 -84,0 0,-222z" />
<path style="fill:#ccc" d="M15,272 l84,0 0,153 -84,0 0,-153z" />
<path style="fill:#e5e5e5" d="M15,299 l84,0 0,98 -84,0 0,-98z" />
<path style="fill:#fff" d="M15,328 l84,0 0,41 -84,0 0,-41z" />
<path style="fill:none;stroke:#000;stroke-width:2" d="M15,182 l84,0 0,333 -84,0 0,-333" />
<path style="fill:#7f7f7f" d="M432,182 l83,0 0,333 -83,0 0,-333z" />
<path style="fill:#999" d="M432,202 l83,0 0,293 -83,0 0,-293z" />
<path style="fill:#b2b2b2" d="M432,238 l83,0 0,222 -83,0 0,-222z" />
<path style="fill:#ccc" d="M432,272 l83,0 0,153 -83,0 0,-153z" />
<path style="fill:#e5e5e5" d="M432,299 l83,0 0,98 -83,0 0,-98z" />
<path style="fill:#fff" d="M432,328 l83,0 0,41 -83,0 0,-41z" />
<path style="fill:none;stroke:#000;stroke-width:2" d="M432,182 l83,0 0,333 -83,0 0,-333" />
<path style="fill:#7f7f7f" d="M224,223 l0,-125 83,0 0,125 -1,8 -2,8 -4,7 -5,7 -7,5 -7,4 -8,2 -8,1 -8,-1 -8,-2 -7,-4 -6,-5 -5,-7 -4,-7 -2,-8 -1,-8z" />
<path style="fill:#999" d="M229,244 l3,5 3,4 5,3 4,3 5,3 5,2 5,1 6,0 6,0 5,-1 5,-2 6,-3 4,-3 4,-3 4,-4 3,-5 0,-146 -73,0 0,146z" />
<path style="fill:#b2b2b2" d="M238,254 l6,5 6,3 8,2 7,1 7,-1 8,-2 7,-3 6,-4 0,-157 -55,0 0,156z" />
<path style="fill:#ccc" d="M246,260 l5,2 5,2 4,1 5,0 5,0 5,-1 5,-2 4,-2 0,-162 -38,0 0,162z" />
<path style="fill:#e5e5e5" d="M253,263 l3,1 3,0 3,1 3,0 4,0 3,-1 4,0 3,-1 0,-165 -26,0 0,165z" />
<path style="fill:#fff" d="M260,265 l1,0 2,0 1,0 1,0 2,0 1,0 2,0 1,0 0,-167 -11,0 0,167z" />
<path style="fill:none;stroke:#000;stroke-width:2" d="M307,98 l0,125 -1,8 -2,8 -4,7 -5,7 -7,5 -7,4 -8,2 -8,1 -8,-1 -8,-2 -7,-4 -6,-5 -5,-7 -4,-7 -2,-8 -1,-8 0,-125" />
<path style="fill:#999;stroke:#000;stroke-width:2" d="M432,67 l-3,6 -17,9 -18,5 -23,4 -13,2 -14,1 -14,2 -15,1 -16,0 -17,1 -17,0 -17,0 -17,-1 -15,0 -16,-1 -14,-2 -14,-1 -24,-4 -21,-5 -15,-5 -12,-9 -1,-3 0,-31 13,8 15,3 21,4 24,2 14,1 14,1 16,1 15,1 68,0 16,-1 15,-1 14,-1 14,-1 25,-2 20,-4 16,-3 10,-4 2,-2 1,-2 0,31z" />
<ellipse style="fill:#e5e5e5;stroke:#000;stroke-width:2" cx="265" cy="36" rx="166" ry="21" />

</svg>
