 
<svg version="1.1" id="_x30_" xmlns="http://www.w3.org/2000/svg" preserveAspectRatio="none"  xmlns:agg="http://www.example.com"  x="0px" y="0px"
	   viewBox="-0.681 -25.124 52.482 101.344"
	 enable-background="new -0.681 -25.124 52.482 101.344" xml:space="preserve">

<agg:params>
	<agg:param type="C" name="color" description="Color" cssAttributes="fill" classes="color"/>
	<agg:param type="F" name="saturation" description="Saturation" min="0" max="1" cssAttributes="opacity" classes="color"/>
</agg:params>

<style type="text/css" >
   <![CDATA[

	.stroke,.thin{
		stroke-width:0.3;
		stroke-linecap:round;
		stroke-linejoin:round;
		stroke: black;
	}

	.stroke{stroke-width:0.3}

	.thin {stroke-width:0.15}
	
	.color {
		fill:#3664BF;
		opacity:0.2;
	}

      ]]>
</style>


<g>
	<linearGradient id="SVGID_1_" gradientUnits="userSpaceOnUse" x1="48.3938" y1="54.7932" x2="48.3938" y2="75.0432">
		<stop  offset="0.0051" style="stop-color:#4C5B75"/>
		<stop  offset="0.0323" style="stop-color:#616F86"/>
		<stop  offset="0.098" style="stop-color:#8E99AA"/>
		<stop  offset="0.1641" style="stop-color:#B4BCC7"/>
		<stop  offset="0.2298" style="stop-color:#D1D7DE"/>
		<stop  offset="0.2946" style="stop-color:#E5EAEF"/>
		<stop  offset="0.3584" style="stop-color:#F2F6F9"/>
		<stop  offset="0.42" style="stop-color:#F6FAFC"/>
		<stop  offset="0.4744" style="stop-color:#F2F6F8"/>
		<stop  offset="0.5308" style="stop-color:#E6E9EC"/>
		<stop  offset="0.5882" style="stop-color:#D3D5D7"/>
		<stop  offset="0.6461" style="stop-color:#B7B8BB"/>
		<stop  offset="0.704" style="stop-color:#949396"/>
		<stop  offset="0.72" style="stop-color:#89878B"/>
		<stop  offset="1" style="stop-color:#F6FAFC"/>
	</linearGradient>
	<polygon fill="url(#SVGID_1_)" points="50.384,55.223 50.384,74.803 46.404,74.803 46.404,71.623 46.404,58.404 46.404,55.223 	"/>
	<linearGradient id="SVGID_2_" gradientUnits="userSpaceOnUse" x1="2.8586" y1="54.7932" x2="2.8586" y2="75.0432">
		<stop  offset="0.0051" style="stop-color:#4C5B75"/>
		<stop  offset="0.0323" style="stop-color:#616F86"/>
		<stop  offset="0.098" style="stop-color:#8E99AA"/>
		<stop  offset="0.1641" style="stop-color:#B4BCC7"/>
		<stop  offset="0.2298" style="stop-color:#D1D7DE"/>
		<stop  offset="0.2946" style="stop-color:#E5EAEF"/>
		<stop  offset="0.3584" style="stop-color:#F2F6F9"/>
		<stop  offset="0.42" style="stop-color:#F6FAFC"/>
		<stop  offset="0.4744" style="stop-color:#F2F6F8"/>
		<stop  offset="0.5308" style="stop-color:#E6E9EC"/>
		<stop  offset="0.5882" style="stop-color:#D3D5D7"/>
		<stop  offset="0.6461" style="stop-color:#B7B8BB"/>
		<stop  offset="0.704" style="stop-color:#949396"/>
		<stop  offset="0.72" style="stop-color:#89878B"/>
		<stop  offset="1" style="stop-color:#F6FAFC"/>
	</linearGradient>
	<polygon fill="url(#SVGID_2_)" points="4.984,71.623 4.984,74.803 0.734,74.803 0.734,55.223 4.984,55.223 4.984,58.404 	"/>
	<linearGradient id="SVGID_3_" gradientUnits="userSpaceOnUse" x1="25.6931" y1="55.0432" x2="25.6931" y2="74.7932">
		<stop  offset="0.0051" style="stop-color:#4C5B75"/>
		<stop  offset="0.0323" style="stop-color:#616F86"/>
		<stop  offset="0.098" style="stop-color:#8E99AA"/>
		<stop  offset="0.1641" style="stop-color:#B4BCC7"/>
		<stop  offset="0.2298" style="stop-color:#D1D7DE"/>
		<stop  offset="0.2946" style="stop-color:#E5EAEF"/>
		<stop  offset="0.3584" style="stop-color:#F2F6F9"/>
		<stop  offset="0.42" style="stop-color:#F6FAFC"/>
		<stop  offset="0.4744" style="stop-color:#F2F6F8"/>
		<stop  offset="0.5308" style="stop-color:#E6E9EC"/>
		<stop  offset="0.5882" style="stop-color:#D3D5D7"/>
		<stop  offset="0.6461" style="stop-color:#B7B8BB"/>
		<stop  offset="0.704" style="stop-color:#949396"/>
		<stop  offset="0.72" style="stop-color:#89878B"/>
		<stop  offset="1" style="stop-color:#F6FAFC"/>
	</linearGradient>
	<path fill="url(#SVGID_3_)" d="M46.404,58.404v13.22c-2.17,0.84-4.34,1.68-6.51,2.51c-1.17,0.45-2.32,0.67-3.57,0.67
		c-7.09,0-14.18,0-21.27,0c-1.25,0-2.4-0.22-3.57-0.67c-2.16-0.83-4.34-1.67-6.5-2.51v-13.22c2.16-0.841,4.34-1.681,6.5-2.511
		c0.58-0.229,1.15-0.39,1.73-0.5v-0.01c0.6-0.109,1.21-0.16,1.84-0.16c7.09,0,14.18,0,21.27,0c0.641,0,1.25,0.051,1.85,0.17
		c0.58,0.11,1.15,0.28,1.721,0.5C42.064,56.723,44.234,57.563,46.404,58.404z"/>
	<linearGradient id="SVGID_4_" gradientUnits="userSpaceOnUse" x1="13.2126" y1="49.6223" x2="38.1731" y2="49.6223">
		<stop  offset="0.0051" style="stop-color:#4C5B75"/>
		<stop  offset="0.0323" style="stop-color:#616F86"/>
		<stop  offset="0.098" style="stop-color:#8E99AA"/>
		<stop  offset="0.1641" style="stop-color:#B4BCC7"/>
		<stop  offset="0.2298" style="stop-color:#D1D7DE"/>
		<stop  offset="0.2946" style="stop-color:#E5EAEF"/>
		<stop  offset="0.3584" style="stop-color:#F2F6F9"/>
		<stop  offset="0.42" style="stop-color:#F6FAFC"/>
		<stop  offset="0.4744" style="stop-color:#F2F6F8"/>
		<stop  offset="0.5308" style="stop-color:#E6E9EC"/>
		<stop  offset="0.5882" style="stop-color:#D3D5D7"/>
		<stop  offset="0.6461" style="stop-color:#B7B8BB"/>
		<stop  offset="0.704" style="stop-color:#949396"/>
		<stop  offset="0.72" style="stop-color:#89878B"/>
		<stop  offset="1" style="stop-color:#F6FAFC"/>
	</linearGradient>
	<path fill="url(#SVGID_4_)" d="M13.213,43.853v11.53c0.601-0.109,1.211-0.16,1.84-0.16c7.091,0,14.181,0,21.271,0
		c0.639,0,1.25,0.051,1.85,0.17v-11.54H13.213z"/>
	<linearGradient id="SVGID_5_" gradientUnits="userSpaceOnUse" x1="17.7234" y1="36.4426" x2="33.6536" y2="36.4426">
		<stop  offset="0.0051" style="stop-color:#4C5B75"/>
		<stop  offset="0.0323" style="stop-color:#616F86"/>
		<stop  offset="0.098" style="stop-color:#8E99AA"/>
		<stop  offset="0.1641" style="stop-color:#B4BCC7"/>
		<stop  offset="0.2298" style="stop-color:#D1D7DE"/>
		<stop  offset="0.2946" style="stop-color:#E5EAEF"/>
		<stop  offset="0.3584" style="stop-color:#F2F6F9"/>
		<stop  offset="0.42" style="stop-color:#F6FAFC"/>
		<stop  offset="0.4744" style="stop-color:#F2F6F8"/>
		<stop  offset="0.5308" style="stop-color:#E6E9EC"/>
		<stop  offset="0.5882" style="stop-color:#D3D5D7"/>
		<stop  offset="0.6461" style="stop-color:#B7B8BB"/>
		<stop  offset="0.704" style="stop-color:#949396"/>
		<stop  offset="0.72" style="stop-color:#89878B"/>
		<stop  offset="1" style="stop-color:#F6FAFC"/>
	</linearGradient>
	<polygon fill="url(#SVGID_5_)" points="33.654,33.533 33.654,43.853 17.723,43.853 17.723,33.533 17.723,31.873 17.723,29.033 
		19.444,29.033 31.933,29.033 33.654,29.033 33.654,31.873 	"/>
	<linearGradient id="SVGID_6_" gradientUnits="userSpaceOnUse" x1="19.4436" y1="27.5784" x2="31.9329" y2="27.5784">
		<stop  offset="0.0051" style="stop-color:#4C5B75"/>
		<stop  offset="0.0323" style="stop-color:#616F86"/>
		<stop  offset="0.098" style="stop-color:#8E99AA"/>
		<stop  offset="0.1641" style="stop-color:#B4BCC7"/>
		<stop  offset="0.2298" style="stop-color:#D1D7DE"/>
		<stop  offset="0.2946" style="stop-color:#E5EAEF"/>
		<stop  offset="0.3584" style="stop-color:#F2F6F9"/>
		<stop  offset="0.42" style="stop-color:#F6FAFC"/>
		<stop  offset="0.4744" style="stop-color:#F2F6F8"/>
		<stop  offset="0.5308" style="stop-color:#E6E9EC"/>
		<stop  offset="0.5882" style="stop-color:#D3D5D7"/>
		<stop  offset="0.6461" style="stop-color:#B7B8BB"/>
		<stop  offset="0.704" style="stop-color:#949396"/>
		<stop  offset="0.72" style="stop-color:#89878B"/>
		<stop  offset="1" style="stop-color:#F6FAFC"/>
	</linearGradient>
	<polygon fill="url(#SVGID_6_)" points="31.933,26.123 31.933,29.033 19.444,29.033 19.444,26.123 24.094,26.123 27.283,26.123 	"/>
	<linearGradient id="SVGID_7_" gradientUnits="userSpaceOnUse" x1="24.0935" y1="23.2483" x2="27.2834" y2="23.2483">
		<stop  offset="0.0051" style="stop-color:#4C5B75"/>
		<stop  offset="0.0323" style="stop-color:#616F86"/>
		<stop  offset="0.098" style="stop-color:#8E99AA"/>
		<stop  offset="0.1641" style="stop-color:#B4BCC7"/>
		<stop  offset="0.2298" style="stop-color:#D1D7DE"/>
		<stop  offset="0.2946" style="stop-color:#E5EAEF"/>
		<stop  offset="0.3584" style="stop-color:#F2F6F9"/>
		<stop  offset="0.42" style="stop-color:#F6FAFC"/>
		<stop  offset="0.4744" style="stop-color:#F2F6F8"/>
		<stop  offset="0.5308" style="stop-color:#E6E9EC"/>
		<stop  offset="0.5882" style="stop-color:#D3D5D7"/>
		<stop  offset="0.6461" style="stop-color:#B7B8BB"/>
		<stop  offset="0.704" style="stop-color:#949396"/>
		<stop  offset="0.72" style="stop-color:#89878B"/>
		<stop  offset="1" style="stop-color:#F6FAFC"/>
	</linearGradient>
	<rect x="24.094" y="20.373" fill="url(#SVGID_7_)"  />
	<linearGradient id="SVGID_8_" gradientUnits="userSpaceOnUse" x1="22.5037" y1="17.4983" x2="28.6135" y2="17.4983">
		<stop  offset="0.0051" style="stop-color:#4C5B75"/>
		<stop  offset="0.0323" style="stop-color:#616F86"/>
		<stop  offset="0.098" style="stop-color:#8E99AA"/>
		<stop  offset="0.1641" style="stop-color:#B4BCC7"/>
		<stop  offset="0.2298" style="stop-color:#D1D7DE"/>
		<stop  offset="0.2946" style="stop-color:#E5EAEF"/>
		<stop  offset="0.3584" style="stop-color:#F2F6F9"/>
		<stop  offset="0.42" style="stop-color:#F6FAFC"/>
		<stop  offset="0.4744" style="stop-color:#F2F6F8"/>
		<stop  offset="0.5308" style="stop-color:#E6E9EC"/>
		<stop  offset="0.5882" style="stop-color:#D3D5D7"/>
		<stop  offset="0.6461" style="stop-color:#B7B8BB"/>
		<stop  offset="0.704" style="stop-color:#949396"/>
		<stop  offset="0.72" style="stop-color:#89878B"/>
		<stop  offset="1" style="stop-color:#F6FAFC"/>
	</linearGradient>
	<polygon fill="url(#SVGID_8_)" points="28.614,14.623 28.614,20.373 27.283,20.373 24.094,20.373 22.504,20.373 22.504,14.623 
		24.094,14.623 27.283,14.623 	"/>
	<linearGradient id="SVGID_9_" gradientUnits="userSpaceOnUse" x1="24.0935" y1="11.7434" x2="27.2834" y2="11.7434">
		<stop  offset="0.0051" style="stop-color:#4C5B75"/>
		<stop  offset="0.0323" style="stop-color:#616F86"/>
		<stop  offset="0.098" style="stop-color:#8E99AA"/>
		<stop  offset="0.1641" style="stop-color:#B4BCC7"/>
		<stop  offset="0.2298" style="stop-color:#D1D7DE"/>
		<stop  offset="0.2946" style="stop-color:#E5EAEF"/>
		<stop  offset="0.3584" style="stop-color:#F2F6F9"/>
		<stop  offset="0.42" style="stop-color:#F6FAFC"/>
		<stop  offset="0.4744" style="stop-color:#F2F6F8"/>
		<stop  offset="0.5308" style="stop-color:#E6E9EC"/>
		<stop  offset="0.5882" style="stop-color:#D3D5D7"/>
		<stop  offset="0.6461" style="stop-color:#B7B8BB"/>
		<stop  offset="0.704" style="stop-color:#949396"/>
		<stop  offset="0.72" style="stop-color:#89878B"/>
		<stop  offset="1" style="stop-color:#F6FAFC"/>
	</linearGradient>
	<rect x="24.094" y="8.864" fill="url(#SVGID_9_)"  />
	<linearGradient id="SVGID_10_" gradientUnits="userSpaceOnUse" x1="22.5037" y1="5.9885" x2="28.6135" y2="5.9885">
		<stop  offset="0.0051" style="stop-color:#4C5B75"/>
		<stop  offset="0.0323" style="stop-color:#616F86"/>
		<stop  offset="0.098" style="stop-color:#8E99AA"/>
		<stop  offset="0.1641" style="stop-color:#B4BCC7"/>
		<stop  offset="0.2298" style="stop-color:#D1D7DE"/>
		<stop  offset="0.2946" style="stop-color:#E5EAEF"/>
		<stop  offset="0.3584" style="stop-color:#F2F6F9"/>
		<stop  offset="0.42" style="stop-color:#F6FAFC"/>
		<stop  offset="0.4744" style="stop-color:#F2F6F8"/>
		<stop  offset="0.5308" style="stop-color:#E6E9EC"/>
		<stop  offset="0.5882" style="stop-color:#D3D5D7"/>
		<stop  offset="0.6461" style="stop-color:#B7B8BB"/>
		<stop  offset="0.704" style="stop-color:#949396"/>
		<stop  offset="0.72" style="stop-color:#89878B"/>
		<stop  offset="1" style="stop-color:#F6FAFC"/>
	</linearGradient>
	<polygon fill="url(#SVGID_10_)" points="28.614,3.114 28.614,8.864 27.283,8.864 24.094,8.864 22.504,8.864 22.504,3.114 	"/>
	<linearGradient id="SVGID_11_" gradientUnits="userSpaceOnUse" x1="5.8464" y1="3.3816" x2="33.8454" y2="37.6304">
		<stop  offset="0.0051" style="stop-color:#4C5B75"/>
		<stop  offset="0.1465" style="stop-color:#5D6B83"/>
		<stop  offset="0.4279" style="stop-color:#8A95A7"/>
		<stop  offset="0.8191" style="stop-color:#D2D9E0"/>
		<stop  offset="1" style="stop-color:#F6FAFC"/>
	</linearGradient>
	<path fill="url(#SVGID_11_)" d="M17.723,31.873v1.66c-2.49,0-4.51-2.021-4.51-4.521c0-8.27,0-16.55,0-24.819
		c0-2.5,2.02-4.521,4.51-4.521v1.66c-1.58,0-2.86,1.28-2.86,2.86c0,8.27,0,16.55,0,24.819
		C14.864,30.593,16.144,31.873,17.723,31.873z"/>
	<linearGradient id="SVGID_12_" gradientUnits="userSpaceOnUse" x1="16.6775" y1="-5.4744" x2="44.6775" y2="28.7756">
		<stop  offset="0.0051" style="stop-color:#4C5B75"/>
		<stop  offset="0.1465" style="stop-color:#5D6B83"/>
		<stop  offset="0.4279" style="stop-color:#8A95A7"/>
		<stop  offset="0.8191" style="stop-color:#D2D9E0"/>
		<stop  offset="1" style="stop-color:#F6FAFC"/>
	</linearGradient>
	<path fill="url(#SVGID_12_)" d="M38.173,4.194c0,8.27,0,16.55,0,24.819c0,2.5-2.02,4.521-4.52,4.521v-1.66
		c1.58,0,2.859-1.28,2.859-2.86c0-8.27,0-16.55,0-24.819c0-1.58-1.279-2.86-2.859-2.86v-1.66
		C36.154-0.327,38.173,1.694,38.173,4.194z"/>
	<linearGradient id="SVGID_13_" gradientUnits="userSpaceOnUse" x1="17.7234" y1="0.6833" x2="33.6536" y2="0.6833">
		<stop  offset="0.0051" style="stop-color:#4C5B75"/>
		<stop  offset="0.0323" style="stop-color:#616F86"/>
		<stop  offset="0.098" style="stop-color:#8E99AA"/>
		<stop  offset="0.1641" style="stop-color:#B4BCC7"/>
		<stop  offset="0.2298" style="stop-color:#D1D7DE"/>
		<stop  offset="0.2946" style="stop-color:#E5EAEF"/>
		<stop  offset="0.3584" style="stop-color:#F2F6F9"/>
		<stop  offset="0.42" style="stop-color:#F6FAFC"/>
		<stop  offset="0.4744" style="stop-color:#F2F6F8"/>
		<stop  offset="0.5308" style="stop-color:#E6E9EC"/>
		<stop  offset="0.5882" style="stop-color:#D3D5D7"/>
		<stop  offset="0.6461" style="stop-color:#B7B8BB"/>
		<stop  offset="0.704" style="stop-color:#949396"/>
		<stop  offset="0.72" style="stop-color:#89878B"/>
		<stop  offset="1" style="stop-color:#F6FAFC"/>
	</linearGradient>
	<polygon fill="url(#SVGID_13_)" points="33.654,1.333 33.654,3.114 28.614,3.114 22.504,3.114 17.723,3.114 17.723,1.333 
		17.723,-0.327 17.723,-1.747 33.654,-1.747 33.654,-0.327 	"/>
	<linearGradient id="SVGID_14_" gradientUnits="userSpaceOnUse" x1="13.2136" y1="-4.262" x2="38.1731" y2="-4.262">
		<stop  offset="0.0051" style="stop-color:#4C5B75"/>
		<stop  offset="0.0323" style="stop-color:#616F86"/>
		<stop  offset="0.098" style="stop-color:#8E99AA"/>
		<stop  offset="0.1641" style="stop-color:#B4BCC7"/>
		<stop  offset="0.2298" style="stop-color:#D1D7DE"/>
		<stop  offset="0.2946" style="stop-color:#E5EAEF"/>
		<stop  offset="0.3584" style="stop-color:#F2F6F9"/>
		<stop  offset="0.42" style="stop-color:#F6FAFC"/>
		<stop  offset="0.4744" style="stop-color:#F2F6F8"/>
		<stop  offset="0.5308" style="stop-color:#E6E9EC"/>
		<stop  offset="0.5882" style="stop-color:#D3D5D7"/>
		<stop  offset="0.6461" style="stop-color:#B7B8BB"/>
		<stop  offset="0.704" style="stop-color:#949396"/>
		<stop  offset="0.72" style="stop-color:#89878B"/>
		<stop  offset="1" style="stop-color:#F6FAFC"/>
	</linearGradient>
	<polygon fill="url(#SVGID_14_)" points="13.214,-6.777 13.214,-3.867 16.394,-1.747 17.723,-1.747 33.654,-1.747 34.984,-1.747 
		38.173,-3.867 38.173,-6.777 	"/>
	<linearGradient id="SVGID_15_" gradientUnits="userSpaceOnUse" x1="0.7336" y1="-15.2419" x2="50.384" y2="-15.2419">
		<stop  offset="0.0051" style="stop-color:#4C5B75"/>
		<stop  offset="0.0323" style="stop-color:#616F86"/>
		<stop  offset="0.098" style="stop-color:#8E99AA"/>
		<stop  offset="0.1641" style="stop-color:#B4BCC7"/>
		<stop  offset="0.2298" style="stop-color:#D1D7DE"/>
		<stop  offset="0.2946" style="stop-color:#E5EAEF"/>
		<stop  offset="0.3584" style="stop-color:#F2F6F9"/>
		<stop  offset="0.42" style="stop-color:#F6FAFC"/>
		<stop  offset="0.4744" style="stop-color:#F2F6F8"/>
		<stop  offset="0.5308" style="stop-color:#E6E9EC"/>
		<stop  offset="0.5882" style="stop-color:#D3D5D7"/>
		<stop  offset="0.6461" style="stop-color:#B7B8BB"/>
		<stop  offset="0.704" style="stop-color:#949396"/>
		<stop  offset="0.72" style="stop-color:#89878B"/>
		<stop  offset="1" style="stop-color:#F6FAFC"/>
	</linearGradient>
	<rect x="0.734" y="-17.357" fill="url(#SVGID_15_)"  />
	<linearGradient id="SVGID_16_" gradientUnits="userSpaceOnUse" x1="4.9836" y1="-9.9519" x2="46.4036" y2="-9.9519">
		<stop  offset="0.0051" style="stop-color:#4C5B75"/>
		<stop  offset="0.0323" style="stop-color:#616F86"/>
		<stop  offset="0.098" style="stop-color:#8E99AA"/>
		<stop  offset="0.1641" style="stop-color:#B4BCC7"/>
		<stop  offset="0.2298" style="stop-color:#D1D7DE"/>
		<stop  offset="0.2946" style="stop-color:#E5EAEF"/>
		<stop  offset="0.3584" style="stop-color:#F2F6F9"/>
		<stop  offset="0.42" style="stop-color:#F6FAFC"/>
		<stop  offset="0.4744" style="stop-color:#F2F6F8"/>
		<stop  offset="0.5308" style="stop-color:#E6E9EC"/>
		<stop  offset="0.5882" style="stop-color:#D3D5D7"/>
		<stop  offset="0.6461" style="stop-color:#B7B8BB"/>
		<stop  offset="0.704" style="stop-color:#949396"/>
		<stop  offset="0.72" style="stop-color:#89878B"/>
		<stop  offset="1" style="stop-color:#F6FAFC"/>
	</linearGradient>
	<path fill="url(#SVGID_16_)" d="M46.404-13.127c0,1.46,0,2.91,0,4.37c0,1.399-0.58,1.979-1.99,1.979c-2.08,0-4.16,0-6.24,0H13.214
		c-2.08,0-4.17,0-6.25,0c-1.4,0-1.98-0.58-1.98-1.979c0-1.46,0-2.91,0-4.37H46.404z"/>
	<linearGradient id="SVGID_17_" gradientUnits="userSpaceOnUse" x1="4.9836" y1="-20.532" x2="46.4036" y2="-20.532">
		<stop  offset="0.0051" style="stop-color:#4C5B75"/>
		<stop  offset="0.0323" style="stop-color:#616F86"/>
		<stop  offset="0.098" style="stop-color:#8E99AA"/>
		<stop  offset="0.1641" style="stop-color:#B4BCC7"/>
		<stop  offset="0.2298" style="stop-color:#D1D7DE"/>
		<stop  offset="0.2946" style="stop-color:#E5EAEF"/>
		<stop  offset="0.3584" style="stop-color:#F2F6F9"/>
		<stop  offset="0.42" style="stop-color:#F6FAFC"/>
		<stop  offset="0.4744" style="stop-color:#F2F6F8"/>
		<stop  offset="0.5308" style="stop-color:#E6E9EC"/>
		<stop  offset="0.5882" style="stop-color:#D3D5D7"/>
		<stop  offset="0.6461" style="stop-color:#B7B8BB"/>
		<stop  offset="0.704" style="stop-color:#949396"/>
		<stop  offset="0.72" style="stop-color:#89878B"/>
		<stop  offset="1" style="stop-color:#F6FAFC"/>
	</linearGradient>
	<path fill="url(#SVGID_17_)" d="M46.404-21.726c0,1.46,0,2.909,0,4.369h-0.11H4.984c0-1.46,0-2.909,0-4.369
		c0-1.4,0.58-1.98,1.98-1.98c12.48,0,24.969,0,37.45,0C45.823-23.707,46.404-23.127,46.404-21.726z"/>
</g>

<path class="color" d="M34.984-1.747l3.189-2.12v-2.91c2.08,0,4.16,0,6.24,0c1.41,0,1.99-0.58,1.99-1.979
	c0-1.46,0-2.91,0-4.37h3.98v-4.23h-3.98c0-1.46,0-2.909,0-4.369c0-1.4-0.58-1.98-1.99-1.98c-12.48,0-24.97,0-37.45,0
	c-1.4,0-1.98,0.58-1.98,1.98c0,1.46,0,2.909,0,4.369h-4.25v4.23h4.25c0,1.46,0,2.91,0,4.37c0,1.399,0.58,1.979,1.98,1.979
	c2.08,0,4.17,0,6.25,0v2.91l3.18,2.12h1.33v1.42c-2.49,0-4.51,2.021-4.51,4.521c0,8.27,0,16.55,0,24.819
	c0,2.5,2.02,4.521,4.51,4.521v10.319h-4.511v11.53c0.601-0.109,1.211-0.16,1.84-0.16c0,0,0,0,0.001,0c-0.63,0-1.24,0.051-1.84,0.16
	v0.01c-0.58,0.11-1.15,0.271-1.73,0.5c-2.16,0.83-4.34,1.67-6.5,2.511v-3.181h-4.25v19.58h4.25v-3.18c2.16,0.84,4.34,1.68,6.5,2.51
	c1.17,0.45,2.32,0.67,3.57,0.67c7.09,0,14.18,0,21.27,0c1.25,0,2.4-0.22,3.57-0.67c2.17-0.83,4.34-1.67,6.51-2.51v3.18h3.98v-19.58
	h-3.98v3.181c-2.17-0.841-4.34-1.681-6.51-2.511c-0.57-0.22-1.141-0.39-1.721-0.5v-11.54h-4.52V33.533c2.5,0,4.52-2.021,4.52-4.521
	c0-8.27,0-16.55,0-24.819c0-2.5-2.02-4.521-4.52-4.521v-1.42H34.984z M14.864,29.013c0-8.27,0-16.55,0-24.819
	c0-1.58,1.28-2.86,2.86-2.86v1.78h4.78v5.75h1.59v5.76h-1.59v5.75h1.59v5.75h-4.65v2.91h-1.72v2.84
	C16.144,31.873,14.864,30.593,14.864,29.013z M36.513,4.194c0,8.27,0,16.55,0,24.819c0,1.58-1.279,2.86-2.859,2.86v-2.84h-1.721
	v-2.91h-4.649v-5.75h1.33v-5.75h-1.33v-5.76h1.33v-5.75h5.04v-1.78C35.234,1.333,36.513,2.614,36.513,4.194z"/>

<g fill="#606060">
	<rect x="40.028" y="-18.416"  />
	<rect x="16.396" y="-18.416"   />
	<rect x="1.791" y="-18.416"   />
	<rect x="47.465" y="-18.416"   />
	<rect x="24.628" y="-18.416"   />
	<rect x="8.961" y="-18.416"   />
	<rect x="32.86" y="-18.416"   />
	<rect x="29.241" y="42.754"   />
	<rect x="18.82" y="42.754"   />
	<rect x="13.741" y="42.754"   />
	<rect x="34.452" y="42.754"   />
	<rect x="40.028" y="-13.131"   />
	<rect x="16.396" y="-13.131"   />
	<rect x="1.791" y="-13.131"   />
	<rect x="47.465" y="-13.131"   />
	<rect x="24.628" y="-13.131"   />
	<rect x="8.961" y="-13.131"   />
	<rect x="24.097" y="42.754"   />
	<rect x="32.86" y="-13.131"   />
</g>

<g opacity="0.5" class="stroke">
	<path fill="none"  d="M38.173-6.777
		c2.08,0,4.16,0,6.24,0c1.41,0,1.99-0.58,1.99-1.979c0-1.46,0-2.91,0-4.37"/>
	<path fill="none"  d="M4.984-13.127
		c0,1.46,0,2.91,0,4.37c0,1.399,0.58,1.979,1.98,1.979c2.08,0,4.17,0,6.25,0"/>
	<path fill="none"  d="M4.984-17.357
		c0-1.46,0-2.909,0-4.369c0-1.4,0.58-1.98,1.98-1.98c12.48,0,24.969,0,37.45,0c1.41,0,1.99,0.58,1.99,1.98c0,1.46,0,2.909,0,4.369"
		/>
	<polyline fill="none"  points="
		19.444,29.033 19.444,26.123 31.933,26.123 31.933,29.033 	"/>
	<polygon fill="none"  points="
		46.404,58.404 46.404,55.223 50.384,55.223 50.384,74.803 46.404,74.803 46.404,71.623 	"/>
	<polygon fill="none"  points="
		4.984,71.623 4.984,74.803 0.734,74.803 0.734,55.223 4.984,55.223 4.984,58.404 	"/>
	<path fill="none"  d="M13.214,55.383
		c0.6-0.109,1.21-0.16,1.84-0.16c7.09,0,14.18,0,21.27,0c0.641,0,1.25,0.051,1.85,0.17c0.58,0.11,1.15,0.28,1.721,0.5
		c2.17,0.83,4.34,1.67,6.51,2.511"/>
	<path fill="none"  d="M4.984,58.404
		c2.16-0.841,4.34-1.681,6.5-2.511c0.58-0.229,1.15-0.39,1.73-0.5"/>
	
		<line fill="none"  x1="13.214" y1="47.823" x2="38.173" y2="47.823"/>
	<polyline fill="none"  points="
		13.214,55.393 13.214,55.383 13.214,47.823 13.214,43.853 17.723,43.853 33.654,43.853 38.173,43.853 38.173,47.823 38.173,55.393 
			"/>
	<polygon fill="none"  points="
		13.214,-6.777 13.214,-3.867 16.394,-1.747 17.723,-1.747 33.654,-1.747 34.984,-1.747 38.173,-3.867 38.173,-6.777 	"/>
	<path fill="none"  d="M33.654-0.327
		c2.5,0,4.52,2.021,4.52,4.521c0,8.27,0,16.55,0,24.819c0,2.5-2.02,4.521-4.52,4.521"/>
	<path fill="none"  d="M33.654,1.333
		c1.58,0,2.859,1.28,2.859,2.86c0,8.27,0,16.55,0,24.819c0,1.58-1.279,2.86-2.859,2.86"/>
	<path fill="none"  d="M17.723-0.327
		c-2.49,0-4.51,2.021-4.51,4.521c0,8.27,0,16.55,0,24.819c0,2.5,2.02,4.521,4.51,4.521"/>
	<path fill="none"  d="M17.723,1.333
		c-1.58,0-2.86,1.28-2.86,2.86c0,8.27,0,16.55,0,24.819c0,1.58,1.28,2.86,2.86,2.86"/>
	
		<line fill="none"  x1="24.094" y1="26.123" x2="24.094" y2="20.373"/>
	
		<line fill="none"  x1="27.283" y1="20.373" x2="27.283" y2="26.123"/>
	<polyline fill="none"  points="
		28.614,3.114 28.614,8.864 27.283,8.864 24.094,8.864 22.504,8.864 22.504,3.114 	"/>
	
		<line fill="none"  x1="27.283" y1="8.864" x2="27.283" y2="14.623"/>
	
		<line fill="none"  x1="24.094" y1="14.623" x2="24.094" y2="8.864"/>
	
		<line fill="none"  x1="13.214" y1="-3.867" x2="38.173" y2="-3.867"/>
	<polyline fill="none"  points="
		17.723,-1.747 17.723,-0.327 17.723,1.333 17.723,3.114 22.504,3.114 28.614,3.114 33.654,3.114 33.654,1.333 33.654,-0.327 
		33.654,-1.747 	"/>
	<polyline fill="none"  points="
		33.654,43.853 33.654,33.533 33.654,31.873 33.654,29.033 31.933,29.033 19.444,29.033 17.723,29.033 17.723,31.873 17.723,33.533 
		17.723,43.853 	"/>
	<path fill="none"  d="M46.404,71.623
		c-2.17,0.84-4.34,1.68-6.51,2.51c-1.17,0.45-2.32,0.67-3.57,0.67c-7.09,0-14.18,0-21.27,0c-1.25,0-2.4-0.22-3.57-0.67
		c-2.16-0.83-4.34-1.67-6.5-2.51"/>
	<polyline fill="none"  points="
		46.293,-17.357 4.984,-17.357 0.734,-17.357 0.734,-15.247 0.734,-13.127 4.984,-13.127 46.404,-13.127 50.384,-13.127 
		50.384,-15.247 50.384,-17.357 46.404,-17.357 	"/>
	
		<line fill="none"  x1="0.734" y1="-15.247" x2="50.384" y2="-15.247"/>
	<polygon fill="none"  points="
		24.094,20.373 22.504,20.373 22.504,14.623 24.094,14.623 27.283,14.623 28.614,14.623 28.614,20.373 27.283,20.373 	"/>
	
		<line fill="none"  x1="46.404" y1="-17.357" x2="46.293" y2="-17.357"/>
</g>
</svg>
