

<svg xmlns:agg="http://www.example.com" xmlns="http://www.w3.org/2000/svg" preserveAspectRatio="none" width="1.4792in" height="1.4792in" viewBox="0 0 999 999">

<path style="fill:#b2b2b2;stroke:#000;stroke-width:2" d="M499,499 l373,-215 12,25 11,25 10,26 8,27 7,28 5,28 3,28 1,21 0,7 -430,0z" />
<path style="fill:#b2b2b2" d="M126,284 l15,-24 16,-22 18,-22 20,-21 21,-20 22,-18 22,-16 24,-15 215,373 -373,-215z" />
<path style="fill:#b2b2b2" d="M499,929 l-7,0 -28,-2 -28,-3 -28,-6 -27,-7 -27,-8 -26,-10 -26,-12 -18,-9 215,-373 0,430z" />
<path style="fill:none;stroke:#000;stroke-width:2" d="M499,499 l-373,-215 15,-24 16,-22 18,-22 20,-21 21,-20 22,-18 22,-16 24,-15 215,373" />
<path style="fill:none;stroke:#000;stroke-width:2" d="M499,499 l0,430 -28,-1 -28,-3 -28,-5 -28,-7 -27,-8 -26,-10 -25,-11 -25,-12 215,-373" />
<path style="fill:#ccc" d="M737,92 l-28,-15 -29,-13 -29,-11 -30,-9 -31,-7 -31,-5 -30,-3 -15,-1 -8,0 -7,0 -48,2 -47,7 -45,12 -43,16 -42,20 -39,23 -36,27 -33,31 -31,33 -27,36 -23,39 -20,42 -16,43 -12,45 -7,47 -2,24 0,24 0,24 5,48 10,46 13,44 18,42 22,40 25,38 29,35 32,32 35,29 38,25 40,22 42,18 44,13 46,10 48,5 24,0 24,0 48,-5 46,-10 44,-13 42,-18 40,-22 38,-25 35,-29 32,-32 29,-35 25,-38 22,-40 18,-42 13,-44 10,-46 5,-48 0,-24 0,-16 -2,-30 -4,-31 -6,-30 -8,-30 -10,-29 -12,-28 -13,-27 -16,-27 -17,-25 -18,-25 -20,-23 -21,-22 -23,-20 -25,-19 -25,-17 -13,-8 -42,75 32,21 29,23 26,27 24,28 21,31 18,33 14,34 12,35 7,37 5,38 0,45 -4,38 -8,38 -11,36 -15,34 -17,33 -21,31 -24,28 -26,26 -28,24 -31,21 -33,17 -34,15 -36,11 -38,8 -38,4 -40,0 -38,-4 -38,-8 -36,-11 -34,-15 -33,-17 -31,-21 -28,-24 -26,-26 -24,-28 -21,-31 -17,-33 -15,-34 -11,-36 -8,-38 -4,-38 0,-40 4,-38 8,-38 11,-36 15,-34 17,-33 21,-31 24,-28 26,-26 28,-24 31,-21 33,-17 34,-15 36,-11 38,-8 38,-4 33,0 31,2 32,5 30,8 30,10 29,12 27,15 46,-75z" />
<circle style="fill:none;stroke:#000;stroke-width:2" cx="499" cy="499" r="471" />
<circle style="fill:none;stroke:#000;stroke-width:2" cx="499" cy="499" r="385" />
<circle style="fill:#999" cx="499" cy="499" r="87" />
<path style="fill:#000" d="M588,499 l-1,-9 -1,-9 -2,-9 -3,-8 -4,-8 -4,-7 -11,-13 -13,-11 -7,-4 -8,-4 -8,-3 -9,-2 -9,-1 -9,-1 0,4 17,2 9,2 8,3 14,7 12,11 11,12 7,14 3,8 2,9 2,17z" />
<path style="fill:#000" d="M499,588 l9,-1 9,-1 9,-2 8,-3 8,-4 7,-4 13,-11 11,-13 4,-7 4,-8 3,-8 2,-9 1,-9 1,-9 -4,0 -2,17 -2,9 -3,8 -7,14 -11,12 -12,11 -14,7 -8,3 -9,2 -17,2z" />
<path style="fill:#000" d="M410,499 l1,9 1,9 2,9 3,8 4,8 4,7 11,13 13,11 7,4 8,4 8,3 9,2 9,1 9,1 0,-4 -17,-2 -9,-2 -8,-3 -14,-7 -12,-11 -11,-12 -7,-14 -3,-8 -2,-9 -2,-17z" />
<path style="fill:#000" d="M499,410 l-9,1 -9,1 -9,2 -8,3 -8,4 -7,4 -13,11 -11,13 -4,7 -4,8 -3,8 -2,9 -1,9 -1,9 4,0 2,-17 2,-9 3,-8 7,-14 11,-12 12,-11 14,-7 8,-3 9,-2 17,-2z" />

</svg>
