

<svg xmlns:agg="http://www.example.com" xmlns="http://www.w3.org/2000/svg" preserveAspectRatio="none" width="1.3030in" height="1.4792in" viewBox="0 0 880 999">

<path style="fill:#fff;stroke:#000;stroke-width:2" d="M852,364 l0,-185 -420,-1 0,18 404,0 0,152 -85,0 0,16 101,0z" />
<path style="fill:#00f;stroke:#000;stroke-width:2" d="M112,667 l134,0 0,85 -134,0 0,-85z" />
<path style="fill:#00f;stroke:#000;stroke-width:2" d="M61,448 l0,186 34,33 168,0 33,-33 1,-186 -34,0 0,169 -17,17 -134,0 -17,-17 0,-169 -34,0z" />
<path style="fill:#00f;stroke:#000;stroke-width:2" d="M95,752 l0,33 -16,17 0,101 16,51 169,0 17,-51 0,-101 -17,-17 0,-33 -169,0z" />
<path style="fill:#000;stroke:#000;stroke-width:2" d="M79,903 l-17,0 0,-101 17,0 0,101z" />
<path style="fill:#000;stroke:#000;stroke-width:2" d="M297,903 l-16,0 0,-101 16,0 0,101z" />
<path style="fill:#00f;stroke:#000;stroke-width:2" d="M29,734 l33,0 0,236 -33,0 0,-236z" />
<path style="fill:#00f;stroke:#000;stroke-width:2" d="M298,734 l33,0 0,236 -33,0 0,-236z" />
<path style="fill:#00f;stroke:#000;stroke-width:2" d="M44,432 l270,0 0,16 -270,0 0,-16z" />
<path style="fill:#7f7f7f;stroke:#000;stroke-width:2" d="M128,583 l34,0 0,51 -34,0 0,-51z" />
<path style="fill:#7f7f7f;stroke:#000;stroke-width:2" d="M196,583 l34,0 0,51 -34,0 0,-51z" />
<path style="fill:#000;stroke:#000;stroke-width:2" d="M112,566 l134,0 0,17 -134,0 0,-17z" />
<path style="fill:#7f7f7f;stroke:#000;stroke-width:2" d="M146,448 l66,0 0,118 -66,0 0,-118z" />
<path style="fill:#00f;stroke:#000;stroke-width:2" d="M28,230 l302,0 0,202 -302,0 0,-202z" />
<circle style="fill:#000;stroke:#000;stroke-width:2" cx="128" cy="398" r="16" />
<circle style="fill:#000;stroke:#000;stroke-width:2" cx="229" cy="398" r="16" />
<circle style="fill:#000;stroke:#000;stroke-width:2" cx="154" cy="356" r="8" />
<path style="fill:#00f;stroke:#000;stroke-width:2" d="M347,415 l112,17 192,-1 0,-151 -192,0 -112,17 0,118z" />
<path style="fill:#000;stroke:#000;stroke-width:2" d="M330,297 l17,0 0,118 -17,0 0,-118z" />
<path style="fill:none;stroke:#000;stroke-width:2" d="M448,432 l0,-152" />
<path style="fill:#fff;stroke:#7f7f7f;stroke-width:2" d="M465,297 l151,0 0,67 -151,0 0,-67z" />
<path style="fill:#00f;stroke:#000;stroke-width:2" d="M684,280 l67,0 0,152 -67,0 0,-152z" />
<path style="fill:none;stroke:#000;stroke-width:2" d="M667,230 l0,252" />
<path style="fill:#7f7f7f;stroke:#7f7f7f;stroke-width:2" d="M684,246 l34,0 0,17 -34,0 0,-17z" />
<path style="fill:#7f7f7f;stroke:#7f7f7f;stroke-width:2" d="M684,348 l34,0 0,16 -34,0 0,-16z" />
<path style="fill:#7f7f7f;stroke:#7f7f7f;stroke-width:2" d="M684,448 l34,0 0,17 -34,0 0,-17z" />
<path style="fill:#00f;stroke:#000;stroke-width:2" d="M650,230 l34,0 0,252 -34,0 0,-252z" />
<path style="fill:#000;stroke:#000;stroke-width:2" d="M78,213 l354,0 0,-185 -354,0 0,185z" />
<path style="fill:#00f;stroke:#000;stroke-width:2" d="M112,213 l134,0 0,17 -134,0 0,-17z" />
<path style="fill:#00f;stroke:#00f;stroke-width:2" d="M381,78 l33,0 0,84 -33,0 0,-84z" />
<path style="fill:#000;stroke:#000;stroke-width:2" d="M499,348 l84,0 0,-1 -84,0 0,1z" />

</svg>
