

<svg xmlns:agg="http://www.example.com" xmlns="http://www.w3.org/2000/svg" preserveAspectRatio="none" width="1.5596in" height="1.4792in" viewBox="0 0 543 515">

<path style="fill:#7f7f7f" d="M304,129 l0,250 -61,0 0,-250 61,0z" />
<path style="fill:#b2b2b2" d="M298,129 l0,250 -49,0 0,-250 49,0z" />
<path style="fill:#e5e5e5" d="M290,129 l0,250 -33,0 0,-250 33,0z" />
<path style="fill:#fff" d="M279,129 l0,250 -11,0 0,-250 11,0z" />
<path style="fill:none;stroke:#000;stroke-width:2" d="M243,129 l0,250" />
<path style="fill:none;stroke:#000;stroke-width:2" d="M304,379 l0,-250" />
<path style="fill:#7f7f7f" d="M357,15 l142,0 0,61 -142,0 0,-61z" />
<path style="fill:#b2b2b2" d="M357,21 l142,0 0,49 -142,0 0,-49z" />
<path style="fill:#e5e5e5" d="M357,28 l142,0 0,34 -142,0 0,-34z" />
<path style="fill:#fff" d="M357,39 l142,0 0,12 -142,0 0,-12z" />
<path style="fill:none;stroke:#000;stroke-width:2" d="M357,76 l142,0" />
<path style="fill:none;stroke:#000;stroke-width:2" d="M499,15 l-142,0" />
<path style="fill:#7f7f7f" d="M363,76 l0,-60 -120,0 60,60 60,0z" />
<path style="fill:#7f7f7f" d="M303,136 l-60,0 0,-121 60,61 0,60z" />
<path style="fill:#b2b2b2" d="M248,136 l50,0 0,-65 -50,-50 0,115z" />
<path style="fill:#b2b2b2" d="M363,21 l0,50 -65,0 -50,-50 115,0z" />
<path style="fill:#e5e5e5" d="M256,136 l33,0 0,-74 -33,-33 0,107z" />
<path style="fill:#e5e5e5" d="M363,30 l0,33 -73,0 -33,-33 106,0z" />
<path style="fill:#fff" d="M363,41 l0,11 -84,0 -11,-11 95,0z" />
<path style="fill:#fff" d="M267,136 l11,0 0,-84 -11,-12 0,96z" />
<path style="fill:none;stroke:#000;stroke-width:2" d="M243,136 l0,-121" />
<path style="fill:none;stroke:#000;stroke-width:2" d="M303,76 l0,60" />
<path style="fill:none;stroke:#000;stroke-width:2" d="M364,15 l-121,0" />
<path style="fill:none;stroke:#000;stroke-width:2" d="M303,76 l61,0" />
<path style="fill:#7f7f7f" d="M15,500 l0,-257 513,257 0,-257 -513,257z" />
<path style="fill:#999" d="M15,487 l0,-231 513,231 0,-231 -513,231z" />
<path style="fill:#b2b2b2" d="M15,460 l0,-177 513,177 0,-177 -513,177z" />
<path style="fill:#ccc" d="M15,434 l0,-125 513,125 0,-125 -513,125z" />
<path style="fill:#e5e5e5" d="M15,414 l0,-86 513,86 0,-86 -513,86z" />
<path style="fill:#fff" d="M15,388 l0,-33 513,33 0,-33 -513,33z" />
<path style="fill:none;stroke:#000;stroke-width:2" d="M15,500 l0,-257 513,257 0,-257 -513,257" />

</svg>
