

<svg xmlns:agg="http://www.example.com" xmlns="http://www.w3.org/2000/svg" preserveAspectRatio="none" width="1.4792in" height="1.4792in" viewBox="0 0 530 530">

<path style="fill:#7f7f7f" d="M15,312 l500,0 0,156 -500,0 0,-156z" />
<path style="fill:#999" d="M15,322 l500,0 0,136 -500,0 0,-136z" />
<path style="fill:#b2b2b2" d="M15,337 l500,0 0,107 -500,0 0,-107z" />
<path style="fill:#ccc" d="M15,356 l500,0 0,68 -500,0 0,-68z" />
<path style="fill:#e5e5e5" d="M15,373 l500,0 0,34 -500,0 0,-34z" />
<path style="fill:#fff" d="M15,388 l500,0 0,4 -500,0 0,-4z" />
<path style="fill:none;stroke:#000;stroke-width:2" d="M15,312 l500,0 0,156 -500,0 0,-156" />
<path style="fill:#7f7f7f" d="M140,266 l250,0 0,249 -250,0 0,-249z" />
<path style="fill:#999" d="M140,281 l250,0 0,218 -250,0 0,-218z" />
<path style="fill:#b2b2b2" d="M140,305 l250,0 0,171 -250,0 0,-171z" />
<path style="fill:#ccc" d="M140,336 l250,0 0,108 -250,0 0,-108z" />
<path style="fill:#e5e5e5" d="M140,363 l250,0 0,54 -250,0 0,-54z" />
<path style="fill:#fff" d="M140,386 l250,0 0,8 -250,0 0,-8z" />
<path style="fill:none;stroke:#000;stroke-width:2" d="M140,265 l250,0 0,250 -250,0 0,-250" />
<path style="fill:#7f7f7f" d="M15,266 l94,0 0,249 -94,0 0,-249z" />
<path style="fill:#999" d="M15,281 l94,0 0,218 -94,0 0,-218z" />
<path style="fill:#b2b2b2" d="M15,304 l94,0 0,172 -94,0 0,-172z" />
<path style="fill:#ccc" d="M15,336 l94,0 0,108 -94,0 0,-108z" />
<path style="fill:#e5e5e5" d="M15,363 l94,0 0,54 -94,0 0,-54z" />
<path style="fill:#fff" d="M15,386 l94,0 0,8 -94,0 0,-8z" />
<path style="fill:none;stroke:#000;stroke-width:2" d="M15,265 l94,0 0,250 -94,0 0,-250" />
<path style="fill:#7f7f7f" d="M421,266 l94,0 0,249 -94,0 0,-249z" />
<path style="fill:#999" d="M421,281 l94,0 0,218 -94,0 0,-218z" />
<path style="fill:#b2b2b2" d="M421,304 l94,0 0,172 -94,0 0,-172z" />
<path style="fill:#ccc" d="M421,336 l94,0 0,108 -94,0 0,-108z" />
<path style="fill:#e5e5e5" d="M421,363 l94,0 0,54 -94,0 0,-54z" />
<path style="fill:#fff" d="M421,386 l94,0 0,8 -94,0 0,-8z" />
<path style="fill:none;stroke:#000;stroke-width:2" d="M421,265 l94,0 0,250 -94,0 0,-250" />
<path style="fill:#7f7f7f" d="M343,171 l0,94 -156,0 0,-94 156,0z" />
<path style="fill:#999" d="M333,171 l0,94 -136,0 0,-94 136,0z" />
<path style="fill:#b2b2b2" d="M319,171 l0,94 -107,0 0,-94 107,0z" />
<path style="fill:#ccc" d="M299,171 l0,94 -68,0 0,-94 68,0z" />
<path style="fill:#e5e5e5" d="M282,171 l0,94 -34,0 0,-94 34,0z" />
<path style="fill:#fff" d="M268,171 l0,94 -5,0 0,-94 5,0z" />
<path style="fill:none;stroke:#000;stroke-width:2" d="M343,171 l0,94 -156,0 0,-94 156,0" />
<path style="fill:#7f7f7f" d="M296,77 l0,94 -62,0 0,-94 62,0z" />
<path style="fill:#999" d="M292,77 l0,94 -54,0 0,-94 54,0z" />
<path style="fill:#b2b2b2" d="M286,77 l0,94 -42,0 0,-94 42,0z" />
<path style="fill:#ccc" d="M279,77 l0,94 -28,0 0,-94 28,0z" />
<path style="fill:#e5e5e5" d="M272,77 l0,94 -14,0 0,-94 14,0z" />
<path style="fill:#fff" d="M266,77 l0,94 -2,0 0,-94 2,0z" />
<path style="fill:none;stroke:#000;stroke-width:2" d="M296,77 l0,94 -62,0 0,-94 62,0" />
<path style="fill:#7f7f7f" d="M265,77 l-125,1 3,-13 7,-12 11,-10 16,-10 18,-7 21,-6 24,-4 25,-1 25,1 24,4 21,6 18,7 16,9 11,11 7,12 3,12 -125,0z" />
<path style="fill:#999" d="M265,78 l-109,0 2,-13 7,-12 10,-10 13,-10 16,-7 19,-6 20,-4 22,-1 22,1 20,4 19,6 16,7 13,9 10,11 7,12 2,12 -109,1z" />
<path style="fill:#b2b2b2" d="M265,78 l-86,0 2,-13 5,-12 8,-10 10,-10 13,-7 15,-6 16,-4 17,-1 17,1 16,4 15,6 13,7 10,9 8,11 5,12 2,12 -86,1z" />
<path style="fill:#ccc" d="M265,77 l-55,1 1,-13 3,-12 5,-10 7,-10 8,-7 10,-6 10,-4 11,-1 11,1 10,4 10,6 8,7 7,9 5,11 3,12 1,12 -55,0z" />
<path style="fill:#e5e5e5" d="M265,77 l-27,1 1,-13 1,-12 3,-10 3,-10 4,-7 4,-6 6,-4 5,-1 5,1 6,4 4,6 4,7 3,9 3,11 1,12 1,12 -27,0z" />
<ellipse style="fill:#fff" cx="265" cy="46" rx="4" ry="31" />
<path style="fill:none;stroke:#000;stroke-width:2" d="M265,77 l-125,1 3,-13 7,-12 11,-10 16,-10 18,-7 21,-6 24,-4 25,-1 25,1 24,4 21,6 18,7 16,9 11,11 7,12 3,12 -125,0" />

</svg>
