

<svg xmlns:agg="http://www.example.com" xmlns="http://www.w3.org/2000/svg" preserveAspectRatio="none" width="1.4792in" height="1.4792in" viewBox="0 0 530 530">

<path style="fill:#7f7f7f" d="M316,113 l0,31 -102,0 0,-31 102,0z" />
<path style="fill:#b2b2b2" d="M316,116 l0,25 -102,0 0,-25 102,0z" />
<path style="fill:#e5e5e5" d="M316,120 l0,17 -102,0 0,-17 102,0z" />
<path style="fill:#fff" d="M316,125 l0,6 -102,0 0,-6 102,0z" />
<path style="fill:none;stroke:#000;stroke-width:2" d="M316,144 l-102,0" />
<path style="fill:none;stroke:#000;stroke-width:2" d="M316,113 l-102,0" />
<path style="fill:#7f7f7f" d="M331,156 l0,31 -132,0 0,-31 132,0z" />
<path style="fill:#b2b2b2" d="M331,158 l0,26 -132,0 0,-26 132,0z" />
<path style="fill:#e5e5e5" d="M331,163 l0,16 -132,0 0,-16 132,0z" />
<path style="fill:#fff" d="M331,168 l0,6 -132,0 0,-6 132,0z" />
<path style="fill:none;stroke:#000;stroke-width:2" d="M332,187 l-133,0" />
<path style="fill:none;stroke:#000;stroke-width:2" d="M332,156 l-133,0" />
<path style="fill:#7f7f7f" d="M515,484 l0,31 -500,0 0,-31 500,0z" />
<path style="fill:#b2b2b2" d="M515,487 l0,25 -500,0 0,-25 500,0z" />
<path style="fill:#e5e5e5" d="M515,491 l0,17 -500,0 0,-17 500,0z" />
<path style="fill:#fff" d="M515,496 l0,6 -500,0 0,-6 500,0z" />
<path style="fill:none;stroke:#000;stroke-width:2" d="M515,515 l-500,0" />
<path style="fill:none;stroke:#000;stroke-width:2" d="M515,484 l-500,0" />
<path style="fill:#7f7f7f" d="M281,452 l-31,0 0,-437 31,0 0,437z" />
<path style="fill:#b2b2b2" d="M278,452 l-26,0 0,-437 26,0 0,437z" />
<path style="fill:#e5e5e5" d="M273,452 l-16,0 0,-437 16,0 0,437z" />
<path style="fill:#fff" d="M268,452 l-6,0 0,-437 6,0 0,437z" />
<path style="fill:none;stroke:#000;stroke-width:2" d="M250,453 l0,-438" />
<path style="fill:none;stroke:#000;stroke-width:2" d="M281,453 l0,-438" />
<path style="fill:#7f7f7f" d="M296,484 l0,31 -62,0 0,-31 15,0 0,-31 32,0 0,31 15,0z" />
<path style="fill:#b2b2b2" d="M296,487 l0,25 -44,0 -18,0 0,-25 18,0 0,-34 26,0 0,34 18,0z" />
<path style="fill:#e5e5e5" d="M296,491 l0,17 -39,0 -23,0 0,-17 23,0 0,-38 16,0 0,38 23,0z" />
<path style="fill:#fff" d="M296,496 l0,6 -34,0 -28,0 0,-6 28,0 0,-43 6,0 0,43 28,0z" />
<path style="fill:none;stroke:#000;stroke-width:2" d="M296,484 l-15,0 0,-31" />
<path style="fill:none;stroke:#000;stroke-width:2" d="M249,453 l0,31 -15,0" />
<path style="fill:none;stroke:#000;stroke-width:2" d="M234,515 l15,0 47,0" />
<path style="fill:#7f7f7f" d="M281,202 l-32,0 0,-15 -15,0 0,-31 15,0 0,-16 32,0 0,16 15,0 0,31 -15,0 0,15z" />
<path style="fill:#b2b2b2" d="M278,202 l-26,0 0,-18 -18,0 0,-25 18,0 0,-19 26,0 0,19 18,0 0,25 -18,0 0,18z" />
<path style="fill:#e5e5e5" d="M273,202 l-16,0 0,-22 -23,0 0,-17 23,0 0,-23 16,0 0,23 23,0 0,16 -23,0 0,23z" />
<path style="fill:#fff" d="M268,202 l-6,0 0,-28 -28,0 0,-6 28,0 0,-28 6,0 0,28 28,0 0,6 -28,0 0,28z" />
<path style="fill:none;stroke:#000;stroke-width:2" d="M281,202 l0,-15 15,0" />
<path style="fill:none;stroke:#000;stroke-width:2" d="M296,156 l-15,0 0,-16" />
<path style="fill:none;stroke:#000;stroke-width:2" d="M249,140 l0,16 -15,0" />
<path style="fill:none;stroke:#000;stroke-width:2" d="M234,187 l15,0 0,15" />
<path style="fill:#7f7f7f" d="M281,159 l-32,0 0,-15 -15,0 0,-31 15,0 0,-16 32,0 0,16 15,0 0,31 -15,0 0,15z" />
<path style="fill:#b2b2b2" d="M278,159 l-26,0 0,-18 -18,0 0,-25 18,0 0,-19 26,0 0,19 18,0 0,25 -18,0 0,18z" />
<path style="fill:#e5e5e5" d="M273,159 l-16,0 0,-22 -23,0 0,-17 23,0 0,-23 16,0 0,23 23,0 0,16 -23,0 0,23z" />
<path style="fill:#fff" d="M268,159 l-6,0 0,-28 -28,0 0,-6 28,0 0,-28 6,0 0,28 28,0 0,6 -28,0 0,28z" />
<path style="fill:none;stroke:#000;stroke-width:2" d="M281,159 l0,-15 15,0" />
<path style="fill:none;stroke:#000;stroke-width:2" d="M296,113 l-15,0 0,-16" />
<path style="fill:none;stroke:#000;stroke-width:2" d="M249,97 l0,16 -15,0" />
<path style="fill:none;stroke:#000;stroke-width:2" d="M234,144 l15,0 0,15" />
<path style="fill:#7f7f7f" d="M281,113 l-32,0 0,-16 -15,0 0,-31 15,0 0,-16 32,0 0,16 15,0 0,31 -15,0 0,16z" />
<path style="fill:#b2b2b2" d="M278,113 l-26,0 0,-19 -18,0 0,-25 18,0 0,-19 26,0 0,19 18,0 0,25 -18,0 0,19z" />
<path style="fill:#e5e5e5" d="M273,113 l-16,0 0,-23 -23,0 0,-17 23,0 0,-23 16,0 0,23 23,0 0,17 -23,0 0,23z" />
<path style="fill:#fff" d="M268,113 l-6,0 0,-29 -28,0 0,-5 28,0 0,-29 6,0 0,29 28,0 0,5 -28,0 0,29z" />
<path style="fill:none;stroke:#000;stroke-width:2" d="M281,113 l0,-16 15,0" />
<path style="fill:none;stroke:#000;stroke-width:2" d="M296,66 l-15,0 0,-16" />
<path style="fill:none;stroke:#000;stroke-width:2" d="M249,50 l0,16 -15,0" />
<path style="fill:none;stroke:#000;stroke-width:2" d="M234,97 l15,0 0,16" />
<path style="fill:#7f7f7f" d="M109,421 l156,-156 -156,-156 0,312z" />
<path style="fill:#999" d="M109,407 l156,-142 -156,-142 0,284z" />
<path style="fill:#b2b2b2" d="M109,373 l156,-108 -156,-108 0,216z" />
<path style="fill:#ccc" d="M109,343 l156,-78 -156,-78 0,156z" />
<path style="fill:#e5e5e5" d="M109,319 l156,-54 -156,-54 0,108z" />
<path style="fill:#fff" d="M109,284 l156,-19 -156,-19 0,38z" />
<path style="fill:none;stroke:#000;stroke-width:2" d="M109,421 l156,-156 -156,-156 0,312" />
<path style="fill:#7f7f7f" d="M109,421 l156,-156 156,156 -312,0z" />
<path style="fill:#999" d="M123,421 l142,-156 142,156 -284,0z" />
<path style="fill:#b2b2b2" d="M157,421 l108,-156 108,156 -216,0z" />
<path style="fill:#ccc" d="M187,421 l78,-156 78,156 -156,0z" />
<path style="fill:#e5e5e5" d="M211,421 l54,-156 54,156 -108,0z" />
<path style="fill:#fff" d="M246,421 l19,-156 19,156 -38,0z" />
<path style="fill:none;stroke:#000;stroke-width:2" d="M109,421 l156,-156 156,156 -312,0" />

</svg>
