

<svg xmlns:agg="http://www.example.com" xmlns="http://www.w3.org/2000/svg" preserveAspectRatio="none" width="0.7803in" height="1.4792in" viewBox="0 0 527 999">

<path style="fill:#7f7f7f" d="M185,420 l0,-78 -39,0 0,-39 39,0 0,-79 -39,0 0,-39 39,0 0,-118 20,-20 39,-19 39,0 39,19 20,20 0,118 39,0 0,39 -39,0 0,79 39,0 0,39 -39,0 0,78 -157,0z" />
<path style="fill:#999" d="M198,420 l0,-78 -33,0 0,-39 33,0 0,-79 -33,0 0,-39 33,0 0,-118 17,-20 33,-19 32,0 33,19 16,20 0,118 32,0 0,39 -32,0 0,79 32,0 0,39 -32,0 0,78 -131,0z" />
<path style="fill:#b2b2b2" d="M211,420 l0,-78 -26,0 0,-39 26,0 0,-79 -26,0 0,-39 26,0 0,-118 13,-20 27,-19 26,0 26,19 13,20 0,118 26,0 0,39 -26,0 0,79 26,0 0,39 -26,0 0,78 -105,0z" />
<path style="fill:#ccc" d="M224,420 l0,-78 -20,0 0,-39 20,0 0,-79 -20,0 0,-39 20,0 0,-118 10,-20 20,-19 19,0 20,19 10,20 0,118 19,0 0,39 -19,0 0,79 19,0 0,39 -19,0 0,78 -79,0z" />
<path style="fill:#e5e5e5" d="M250,420 l0,-78 -6,0 0,-39 6,0 0,-79 -6,0 0,-39 6,0 0,-118 4,-20 6,-19 7,0 6,19 4,20 0,118 6,0 0,39 -6,0 0,79 6,0 0,39 -6,0 0,78 -27,0z" />
<path style="fill:none;stroke:#000;stroke-width:2" d="M185,420 l0,-78 -39,0 0,-39 39,0 0,-79 -39,0 0,-39 39,0 0,-118 20,-20 39,-19 39,0 39,19 20,20 0,118 39,0 0,39 -39,0 0,79 39,0 0,39 -39,0 0,78 -157,0" />
<path style="fill:#7f7f7f" d="M28,754 l59,0 0,59 353,0 0,-59 59,0 0,216 -59,0 0,-59 -353,0 0,59 -59,0 0,-216z" />
<path style="fill:#999" d="M28,774 l59,0 0,48 353,0 0,-48 59,0 0,176 -59,0 0,-47 -353,0 0,47 -59,0 0,-176z" />
<path style="fill:#b2b2b2" d="M28,793 l59,0 0,38 353,0 0,-38 59,0 0,138 -59,0 0,-38 -353,0 0,38 -59,0 0,-138z" />
<path style="fill:#ccc" d="M28,813 l59,0 0,27 353,0 0,-27 59,0 0,98 -59,0 0,-27 -353,0 0,27 -59,0 0,-98z" />
<path style="fill:#e5e5e5" d="M28,852 l59,0 0,6 353,0 0,-6 59,0 0,20 -59,0 0,-5 -353,0 0,5 -59,0 0,-20z" />
<path style="fill:none;stroke:#000;stroke-width:2" d="M28,754 l59,0 0,59 353,0 0,-59 59,0 0,216 -59,0 0,-59 -353,0 0,59 -59,0 0,-216" />
<path style="fill:none;stroke:#000;stroke-width:2" d="M87,911 l0,-98" />
<path style="fill:none;stroke:#000;stroke-width:2" d="M440,813 l0,98" />
<path style="fill:none;stroke:#000;stroke-width:2" d="M185,185 l157,0" />
<path style="fill:none;stroke:#000;stroke-width:2" d="M342,224 l-157,0" />
<path style="fill:none;stroke:#000;stroke-width:2" d="M185,303 l157,0" />
<path style="fill:none;stroke:#000;stroke-width:2" d="M342,342 l-157,0" />
<path style="fill:none;stroke:#000;stroke-width:2" d="M185,401 l157,0" />
<path style="fill:#7f7f7f;stroke:#000;stroke-width:2" d="M185,420 l-20,20 0,295 10,9 10,-9 157,0 0,-295 10,-9 -10,-11 -157,0z" />
<path style="fill:#7f7f7f;stroke:#000;stroke-width:2" d="M224,754 l-19,20 0,118 9,9 10,-9 79,0 0,-118 9,-10 -9,-10 -79,0z" />
<path style="fill:#4c4c4c;stroke:#000;stroke-width:2" d="M342,735 l-157,0 -10,9 10,10 157,0 20,-19 0,-295 -10,-10 -10,10 0,295z" />
<path style="fill:#4c4c4c;stroke:#000;stroke-width:2" d="M303,892 l-79,0 -10,9 10,10 79,0 19,-19 0,-118 -10,-10 -9,10 0,118z" />
<path style="fill:none;stroke:#fff;stroke-width:2" d="M185,735 l0,-295 157,0" />
<path style="fill:none;stroke:#fff;stroke-width:2" d="M224,892 l0,-118 79,0" />

</svg>
