

<svg xmlns:agg="http://www.example.com" xmlns="http://www.w3.org/2000/svg" preserveAspectRatio="none" width="0.9728in" height="1.4792in" viewBox="0 0 657 999">

<path style="fill:#b2b2b2;stroke:#000;stroke-width:2" d="M557,571 l43,0 0,399 -43,0 0,-399z" />
<path style="fill:#b2b2b2;stroke:#000;stroke-width:2" d="M557,655 l0,230 -150,0 -15,16 -18,13 -22,9 -23,3 -22,-3 -20,-9 -16,-11 -15,-18 -146,0 0,-230 105,0 -24,-102 274,0 -24,102 116,0z" />
<path style="fill:#b2b2b2;stroke:#000;stroke-width:2" d="M66,571 l44,0 0,399 -44,0 0,-399z" />
<path style="fill:#b2b2b2;stroke:#000;stroke-width:2" d="M130,550 l0,-31 398,0 0,31 -398,0z" />
<path style="fill:#b2b2b2;stroke:#000;stroke-width:2" d="M130,481 l0,34 398,0 0,-34 -398,0z" />
<path style="fill:#7f7f7f;stroke:#000;stroke-width:2" d="M146,515 l367,0 0,4 -367,0 0,-4z" />
<path style="fill:#e5e5e5;stroke:#000;stroke-width:2" d="M349,124 l-40,0 0,-96 40,0 0,96z" />
<path style="fill:#e5e5e5;stroke:#000;stroke-width:2" d="M372,345 l0,-25 45,0 0,23 -45,2z" />
<path style="fill:#e5e5e5;stroke:#000;stroke-width:2" d="M289,320 l0,25 -45,-2 0,-23 45,0z" />
<path style="fill:#e5e5e5;stroke:#000;stroke-width:2" d="M269,307 l0,13 9,0 0,-13 -9,0z" />
<path style="fill:#e5e5e5;stroke:#000;stroke-width:2" d="M403,307 l0,13 9,0 0,-13 -9,0z" />
<path style="fill:none;stroke:#000;stroke-width:2" d="M314,32 l33,9" />
<path style="fill:none;stroke:#000;stroke-width:2" d="M314,41 l33,9" />
<path style="fill:none;stroke:#000;stroke-width:2" d="M314,52 l33,7" />
<path style="fill:none;stroke:#000;stroke-width:2" d="M314,61 l33,7" />
<path style="fill:none;stroke:#000;stroke-width:2" d="M314,70 l33,7" />
<path style="fill:none;stroke:#000;stroke-width:2" d="M314,79 l33,7" />
<path style="fill:none;stroke:#000;stroke-width:2" d="M314,88 l33,7" />
<path style="fill:none;stroke:#000;stroke-width:2" d="M314,97 l33,7" />
<path style="fill:none;stroke:#000;stroke-width:2" d="M314,106 l33,9" />
<path style="fill:none;stroke:#000;stroke-width:2" d="M314,115 l33,9" />
<path style="fill:#ccc;stroke:#000;stroke-width:2" d="M296,188 l69,0 0,316 -69,0 0,-316z" />
<path style="fill:#ccc;stroke:#000;stroke-width:2" d="M363,124 l-65,0 0,-3 65,0 0,3z" />
<path style="fill:#ccc;stroke:#000;stroke-width:2" d="M298,150 l65,0 0,7 -65,0 0,-7z" />
<path style="fill:#f0f0f0" d="M300,188 l11,0 0,-29 -11,0 0,29z" />
<path style="fill:#ccc;stroke:#000;stroke-width:2" d="M298,191 l65,0 0,-34 -65,0 0,34z" />
<path style="fill:#ccc;stroke:#000;stroke-width:2" d="M289,188 l83,0 0,217 -83,0 0,-217z" />
<path style="fill:#ccc;stroke:#000;stroke-width:2" d="M46,124 l567,0 4,2 7,2 5,5 0,4 0,7 -5,2 -7,4 -4,0 -567,0 -5,0 -7,-2 -4,-4 -2,-7 2,-4 4,-5 5,-2 7,-2z" />
<path style="fill:#fff;stroke:#000;stroke-width:2" d="M383,307 l0,13 7,0 0,-13 -7,0z" />
<path style="fill:#fff;stroke:#000;stroke-width:2" d="M338,387 l-11,0 0,-216 11,0 0,216z" />
<path style="fill:#fff;stroke:#000;stroke-width:2" d="M327,430 l11,0 0,29 -11,0 0,-29z" />
<path style="fill:#fff;stroke:#000;stroke-width:2" d="M249,307 l0,13 7,0 0,-13 -7,0z" />
<path style="fill:#ccc" d="M139,481 l0,34 336,0 0,-34 -336,0z" />
<path style="fill:#ccc" d="M139,550 l0,-31 336,0 0,31 -336,0z" />
<path style="fill:#e0e0e0;stroke:#000;stroke-width:2" d="M457,479 l-257,0 26,-9 30,-7 35,-4 38,0 38,0 34,4 31,7 25,9z" />
<path style="fill:none;stroke:#000;stroke-width:2" d="M130,481 l0,34 398,0 0,-34 -398,0" />
<path style="fill:none;stroke:#000;stroke-width:2" d="M130,553 l0,-34 398,0 0,34 -398,0" />
<path style="fill:#ccc" d="M70,582 l38,0 0,332 -38,0 0,-332z" />
<path style="fill:#ccc" d="M559,582 l38,0 0,332 -38,0 0,-332z" />
<path style="fill:#ccc" d="M557,678 l0,192 -183,0 -34,24 -31,3 -22,-12 -11,-15 -163,0 0,-192 131,0 -13,-67 -20,-58 212,0 -11,125 145,0z" />
<path style="fill:#f0f0f0" d="M559,591 l38,0 0,26 -38,0 0,-26z" />
<path style="fill:#f0f0f0" d="M557,689 l0,29 -109,0 -12,-16 -11,-13 132,0z" />
<path style="fill:#f0f0f0" d="M110,718 l0,-29 152,0 -24,-136 24,0 9,53 16,83 7,109 11,45 29,34 -9,6 -9,2 -20,-13 -27,-74 -4,-40 0,-40 -155,0z" />
<path style="fill:#f0f0f0" d="M70,591 l38,0 0,26 -38,0 0,-26z" />
<path style="fill:#f0f0f0" d="M139,481 l0,34 27,0 0,-34 -27,0z" />
<path style="fill:#f0f0f0" d="M139,553 l0,-34 27,0 0,34 -27,0z" />
<path style="fill:#fff;stroke:#000;stroke-width:2" d="M139,461 l0,20 9,0 0,-20 -9,0z" />
<path style="fill:#fff;stroke:#000;stroke-width:2" d="M139,573 l0,-23 9,0 0,23 -9,0z" />
<path style="fill:#fff;stroke:#000;stroke-width:2" d="M242,461 l0,20 9,0 0,-20 -9,0z" />
<path style="fill:#fff;stroke:#000;stroke-width:2" d="M242,573 l0,-23 9,0 0,23 -9,0z" />
<path style="fill:#fff;stroke:#000;stroke-width:2" d="M378,461 l0,20 9,0 0,-20 -9,0z" />
<path style="fill:#fff;stroke:#000;stroke-width:2" d="M378,573 l0,-23 9,0 0,23 -9,0z" />
<path style="fill:#fff;stroke:#000;stroke-width:2" d="M479,461 l0,20 9,0 0,-20 -9,0z" />
<path style="fill:#fff;stroke:#000;stroke-width:2" d="M479,573 l0,-23 9,0 0,23 -9,0z" />
<path style="fill:#b2b2b2;stroke:#000;stroke-width:2" d="M262,387 l137,0 6,0 9,5 5,6 0,5 2,4 -2,5 0,4 -2,5 -10,6 -4,3 -141,0 -9,-3 -6,-4 -5,-7 -2,-9 7,-13 6,-4 9,-3z" />
<path style="fill:#b2b2b2;stroke:#000;stroke-width:2" d="M403,307 l-13,0 0,-7 13,0 0,7z" />
<path style="fill:#b2b2b2;stroke:#000;stroke-width:2" d="M390,345 l13,-2 0,44 -13,0 0,-42z" />
<path style="fill:#b2b2b2;stroke:#000;stroke-width:2" d="M256,343 l13,2 0,42 -7,0 -6,0 0,-44z" />
<path style="fill:#b2b2b2;stroke:#000;stroke-width:2" d="M269,307 l-13,0 0,-7 13,0 0,7z" />
<path style="fill:#b2b2b2;stroke:#000;stroke-width:2" d="M271,463 l-20,0 0,-9 22,0 0,7 9,0 0,20 -11,0 0,-18z" />
<path style="fill:#b2b2b2;stroke:#000;stroke-width:2" d="M407,463 l-20,0 0,-9 23,0 0,7 9,0 0,20 -12,0 0,-18z" />
<path style="fill:#b2b2b2;stroke:#000;stroke-width:2" d="M508,463 l-22,0 0,-9 24,0 0,7 9,0 0,20 -11,0 0,-18z" />
<path style="fill:#b2b2b2;stroke:#000;stroke-width:2" d="M271,568 l-20,0 0,11 22,0 0,-6 9,0 0,-23 -11,0 0,18z" />
<path style="fill:#b2b2b2;stroke:#000;stroke-width:2" d="M407,568 l-20,0 0,11 23,0 0,-6 9,0 0,-23 -12,0 0,18z" />
<path style="fill:#b2b2b2;stroke:#000;stroke-width:2" d="M508,568 l-22,0 0,11 24,0 0,-6 9,0 0,-23 -11,0 0,18z" />
<path style="fill:#b2b2b2;stroke:#000;stroke-width:2" d="M168,463 l0,18 12,0 0,-20 -12,0 0,-7 -22,0 0,9 22,0z" />
<path style="fill:#b2b2b2;stroke:#000;stroke-width:2" d="M168,568 l-22,0 0,11 22,0 0,-6 12,0 0,-23 -12,0 0,18z" />
<path style="fill:#f0f0f0;stroke:#000;stroke-width:2" d="M508,461 l0,20 -20,0 0,-20 20,0z" />
<path style="fill:#f0f0f0;stroke:#000;stroke-width:2" d="M508,573 l0,-23 -20,0 0,23 20,0z" />
<path style="fill:#f0f0f0;stroke:#000;stroke-width:2" d="M407,573 l0,-23 -20,0 0,23 20,0z" />
<path style="fill:#f0f0f0;stroke:#000;stroke-width:2" d="M407,461 l0,20 -20,0 0,-20 20,0z" />
<path style="fill:#f0f0f0;stroke:#000;stroke-width:2" d="M271,461 l0,20 -20,0 0,-20 20,0z" />
<path style="fill:#f0f0f0;stroke:#000;stroke-width:2" d="M271,573 l0,-23 -20,0 0,23 20,0z" />
<path style="fill:#f0f0f0;stroke:#000;stroke-width:2" d="M168,573 l0,-23 -20,0 0,23 20,0z" />
<path style="fill:#f0f0f0;stroke:#000;stroke-width:2" d="M168,461 l0,20 -20,0 0,-20 20,0z" />
<path style="fill:none;stroke:#000;stroke-width:2" d="M265,394 l8,4 5,9 -5,12 -8,2 -12,-2 -4,-12 4,-9 12,-4" />
<path style="fill:none;stroke:#000;stroke-width:2" d="M399,394 l8,4 5,9 -5,12 -8,2 -12,-2 -4,-12 4,-9 12,-4" />
<path style="fill:#e5e5e5" d="M323,387 l-12,0 0,-196 12,0 0,196z" />
<path style="fill:#e5e5e5" d="M311,430 l12,0 0,29 -12,0 0,-29z" />

</svg>
