

<svg xmlns:agg="http://www.example.com" xmlns="http://www.w3.org/2000/svg" preserveAspectRatio="none" width="0.8484in" height="1.4792in" viewBox="0 0 304 530">

<path style="fill:#7f7f7f" d="M167,245 l-31,0 0,-163 31,0 0,163z" />
<path style="fill:#b2b2b2" d="M164,245 l-25,0 0,-163 25,0 0,163z" />
<path style="fill:#e5e5e5" d="M160,245 l-17,0 0,-163 17,0 0,163z" />
<path style="fill:#fff" d="M155,245 l-6,0 0,-163 6,0 0,163z" />
<path style="fill:none;stroke:#000;stroke-width:2" d="M136,245 l0,-164" />
<path style="fill:none;stroke:#000;stroke-width:2" d="M167,245 l0,-164" />
<path style="fill:#7f7f7f" d="M84,241 l68,137 68,-137 -136,0z" />
<path style="fill:#999" d="M90,241 l62,137 62,-137 -124,0z" />
<path style="fill:#b2b2b2" d="M105,241 l47,137 47,-137 -94,0z" />
<path style="fill:#ccc" d="M118,241 l34,137 34,-137 -68,0z" />
<path style="fill:#e5e5e5" d="M128,241 l24,137 23,-137 -47,0z" />
<path style="fill:#fff" d="M143,241 l9,137 8,-137 -17,0z" />
<path style="fill:none;stroke:#000;stroke-width:2" d="M84,241 l68,137 68,-137 -136,0" />
<path style="fill:#7f7f7f" d="M84,515 l68,-137 68,137 -136,0z" />
<path style="fill:#999" d="M90,515 l62,-137 62,137 -124,0z" />
<path style="fill:#b2b2b2" d="M105,515 l47,-137 47,137 -94,0z" />
<path style="fill:#ccc" d="M118,515 l34,-137 34,137 -68,0z" />
<path style="fill:#e5e5e5" d="M128,515 l24,-137 23,137 -47,0z" />
<path style="fill:#fff" d="M143,515 l9,-137 8,137 -17,0z" />
<path style="fill:none;stroke:#000;stroke-width:2" d="M84,515 l68,-137 68,137 -136,0" />
<path style="fill:#7f7f7f" d="M289,15 l-137,68 137,69 0,-137z" />
<path style="fill:#999" d="M289,21 l-137,62 137,62 0,-124z" />
<path style="fill:#b2b2b2" d="M289,36 l-137,47 137,47 0,-94z" />
<path style="fill:#ccc" d="M289,49 l-137,34 137,34 0,-68z" />
<path style="fill:#e5e5e5" d="M289,60 l-137,23 137,24 0,-47z" />
<path style="fill:#fff" d="M289,75 l-137,8 137,9 0,-17z" />
<path style="fill:none;stroke:#000;stroke-width:2" d="M289,15 l-137,68 137,69 0,-137" />
<path style="fill:#7f7f7f" d="M15,15 l137,68 -137,69 0,-137z" />
<path style="fill:#999" d="M15,21 l137,62 -137,62 0,-124z" />
<path style="fill:#b2b2b2" d="M15,36 l137,47 -137,47 0,-94z" />
<path style="fill:#ccc" d="M15,49 l137,34 -137,34 0,-68z" />
<path style="fill:#e5e5e5" d="M15,60 l137,23 -137,24 0,-47z" />
<path style="fill:#fff" d="M15,75 l137,8 -137,9 0,-17z" />
<path style="fill:none;stroke:#000;stroke-width:2" d="M15,15 l137,68 -137,69 0,-137" />

</svg>
