

<svg xmlns:agg="http://www.example.com" xmlns="http://www.w3.org/2000/svg" preserveAspectRatio="none" width="0.6056in" height="1.4792in" viewBox="0 0 409 999">

<path style="fill:#fff091;stroke:#000;stroke-width:2" d="M194,448 l22,0 0,155 -22,0 0,-155z" />
<path style="fill:#fff" d="M201,454 l8,0 0,141 -8,0 0,-141z" />
<path style="fill:#00c;stroke:#000;stroke-width:2" d="M128,772 l154,0 0,6 -154,0 0,-6z" />
<path style="fill:#00c;stroke:#000;stroke-width:2" d="M160,395 l88,0 0,8 -88,0 0,-8z" />
<path style="fill:#00c;stroke:#000;stroke-width:2" d="M182,403 l44,0 0,45 -44,0 0,-45z" />
<path style="fill:#00c;stroke:#000;stroke-width:2" d="M182,491 l44,0 0,46 -44,0 0,-46z" />
<path style="fill:#00c;stroke:#000;stroke-width:2" d="M167,537 l74,0 0,5 -74,0 0,-5z" />
<path style="fill:#00c;stroke:#000;stroke-width:2" d="M160,603 l88,0 0,20 -88,0 0,-20z" />
<path style="fill:#00c;stroke:#000;stroke-width:2" d="M145,631 l118,0 0,119 -118,0 0,-119z" />
<path style="fill:#00f;stroke:#000;stroke-width:2" d="M116,399 l18,-21 10,-5 4,-2 0,2 0,19 -13,26 0,231 4,7 4,1 123,0 9,-26 0,-228 -1,-3 -12,-8 -2,0 0,-21 26,15 6,8 2,5 0,8 0,247 -20,21 -5,1 -6,0 -7,0 -111,0 -26,-13 -2,-4 -1,-5 0,-9 0,-246z" />
<path style="fill:#0000e5;stroke:#000;stroke-width:2" d="M28,71 l352,0 0,15 -352,0 0,-15z" />
<path style="fill:#00f;stroke:#000;stroke-width:2" d="M116,167 l23,15 0,13 1,12 0,12 0,13 1,12 0,13 1,12 0,12 0,13 0,12 1,13 0,13 1,12 0,13 0,12 1,13 2,10 1,2 3,1 1,0 0,0 104,0 4,-1 3,-12 8,-200 23,-15 0,-20 -178,0 0,20z" />
<path style="fill:#00f;stroke:#000;stroke-width:2" d="M352,43 l0,9 0,4 0,2 0,6 0,9 -1,0 -292,0 -1,0 0,-9 2,-29 8,-7 3,0 8,0 258,0 15,15z" />
<path style="fill:#00c;stroke:#000;stroke-width:2" d="M139,182 l-23,-15 178,0 -23,15 -132,0z" />
<path style="fill:#00c;stroke:#000;stroke-width:2" d="M28,86 l352,0 0,15 -352,0 0,-15z" />
<path style="fill:#00c;stroke:#000;stroke-width:2" d="M58,131 l0,-8 0,-5 0,-1 0,-7 0,-9 1,0 292,0 1,0 0,9 -3,29 -9,7 -3,1 -8,0 -258,0 -13,-16z" />
<ellipse style="fill:#4c4cff;stroke:#000;stroke-width:2" cx="204" cy="308" rx="37" ry="14" />
<circle style="fill:#00007f;stroke:#000;stroke-width:2" cx="226" cy="308" r="2" />
<circle style="fill:#00007f;stroke:#000;stroke-width:2" cx="182" cy="308" r="3" />
<path style="fill:#00007f;stroke:#000;stroke-width:2" d="M167,623 l74,0 0,8 -74,0 0,-8z" />
<path style="fill:#333;stroke:#000;stroke-width:2" d="M190,542 l30,0 0,15 -30,0 0,-15z" />
<path style="fill:#00f;stroke:#000;stroke-width:2" d="M58,853 l29,-11 21,-10 8,-1 11,0 167,0 28,11 22,10 8,1 0,7 0,88 -30,11 -21,10 -7,1 -12,0 -166,0 -29,-11 -22,-10 -7,-1 0,-7 0,-88z" />
<path style="fill:#00f;stroke:#000;stroke-width:2" d="M116,778 l178,0 0,53 -178,0 0,-53z" />
<path style="fill:#00f;stroke:#000;stroke-width:2" d="M116,750 l178,0 0,22 -178,0 0,-22z" />
<path style="fill:#00f;stroke:#000;stroke-width:2" d="M120,735 l21,0 0,15 -21,0 0,-15z" />
<path style="fill:#00f;stroke:#000;stroke-width:2" d="M267,735 l23,0 0,15 -23,0 0,-15z" />
<path style="fill:#00f;stroke:#000;stroke-width:2" d="M194,735 l22,0 0,15 -22,0 0,-15z" />
<path style="fill:#00f;stroke:#000;stroke-width:2" d="M233,735 l23,0 0,15 -23,0 0,-15z" />
<path style="fill:#00f;stroke:#000;stroke-width:2" d="M152,735 l23,0 0,15 -23,0 0,-15z" />
<path style="fill:#00f;stroke:#000;stroke-width:2" d="M352,831 l28,0 0,139 -28,0 0,-139z" />
<path style="fill:#00f;stroke:#000;stroke-width:2" d="M28,831 l30,0 0,139 -30,0 0,-139z" />
<ellipse style="fill:#4c4cff" cx="202" cy="893" rx="116" ry="55" />
<path style="fill:#4c4cff" d="M32,835 l22,0 0,28 -22,0 0,-28z" />
<path style="fill:#4c4cff" d="M356,835 l20,0 0,28 -20,0 0,-28z" />
<path style="fill:#4c4cff;stroke:#000;stroke-width:2" d="M35,71 l15,0 0,-6 -15,0 0,6z" />
<path style="fill:#4c4cff;stroke:#000;stroke-width:2" d="M360,71 l15,0 0,-6 -15,0 0,6z" />
<path style="fill:#4c4cff;stroke:#000;stroke-width:2" d="M197,71 l15,0 0,-6 -15,0 0,6z" />
<path style="fill:#4c4cff;stroke:#000;stroke-width:2" d="M86,71 l15,0 0,-6 -15,0 0,6z" />
<path style="fill:#4c4cff;stroke:#000;stroke-width:2" d="M139,71 l13,0 0,-6 -13,0 0,6z" />
<path style="fill:#4c4cff;stroke:#000;stroke-width:2" d="M256,71 l15,0 0,-6 -15,0 0,6z" />
<path style="fill:#4c4cff;stroke:#000;stroke-width:2" d="M307,71 l15,0 0,-6 -15,0 0,6z" />
<path style="fill:#00c;stroke:#000;stroke-width:2" d="M35,109 l15,0 0,-8 -15,0 0,8z" />
<path style="fill:#00c;stroke:#000;stroke-width:2" d="M360,109 l15,0 0,-8 -15,0 0,8z" />
<path style="fill:#00c;stroke:#000;stroke-width:2" d="M197,109 l15,0 0,-8 -15,0 0,8z" />
<path style="fill:#00c;stroke:#000;stroke-width:2" d="M86,109 l15,0 0,-8 -15,0 0,8z" />
<path style="fill:#00c;stroke:#000;stroke-width:2" d="M139,109 l13,0 0,-8 -13,0 0,8z" />
<path style="fill:#00c;stroke:#000;stroke-width:2" d="M256,109 l15,0 0,-8 -15,0 0,8z" />
<path style="fill:#00c;stroke:#000;stroke-width:2" d="M307,109 l15,0 0,-8 -15,0 0,8z" />
<path style="fill:#00c" d="M32,923 l22,0 0,43 -22,0 0,-43z" />
<path style="fill:#00c" d="M356,923 l20,0 0,43 -20,0 0,-43z" />

</svg>
