

<svg xmlns:agg="http://www.example.com" xmlns="http://www.w3.org/2000/svg" preserveAspectRatio="none" width="0.9026in" height="1.4792in" viewBox="0 0 609 998">

<path style="fill:#ff0;stroke:#000;stroke-width:2" d="M28,200 l95,0 0,122 -95,0 0,-122z" />
<path style="fill:#ff0;stroke:#000;stroke-width:2" d="M28,28 l52,0 0,103 -52,0 0,-103z" />
<path style="fill:#ff0;stroke:#000;stroke-width:2" d="M529,28 l52,0 0,103 -52,0 0,-103z" />
<path style="fill:#ff0;stroke:#000;stroke-width:2" d="M486,200 l95,0 0,122 -95,0 0,-122z" />
<path style="fill:#fc0;stroke:#000;stroke-width:2" d="M123,304 l363,0 0,346 -363,0 0,-346z" />
<path style="fill:#fc0;stroke:#000;stroke-width:2" d="M252,650 l104,0 0,52 -104,0 0,-52z" />
<path style="fill:#ff6;stroke:#000;stroke-width:2" d="M443,893 l0,-70 35,0 0,70 -35,0z" />
<path style="fill:#ff6;stroke:#000;stroke-width:2" d="M382,702 l0,35 -43,0 0,-35 43,0z" />
<path style="fill:#ff6;stroke:#000;stroke-width:2" d="M132,893 l0,-70 35,0 0,70 -35,0z" />
<path style="fill:#ff9;stroke:#000;stroke-width:2" d="M443,780 l35,0 0,43 -35,0 0,-43z" />
<path style="fill:#ff9;stroke:#000;stroke-width:2" d="M269,702 l70,0 0,35 -70,0 0,-35z" />
<path style="fill:#ff9;stroke:#000;stroke-width:2" d="M132,780 l35,0 0,43 -35,0 0,-43z" />
<path style="fill:#ff9;stroke:#000;stroke-width:2" d="M80,28 l449,0 0,103 -449,0 0,-103z" />
<path style="fill:#ff6;stroke:#000;stroke-width:2" d="M80,200 l449,0 0,104 -449,0 0,-104z" />
<path style="fill:#ff0;stroke:#000;stroke-width:2" d="M28,131 l553,0 0,69 -553,0 0,-69z" />
<path style="fill:#ff0;stroke:#000;stroke-width:2" d="M132,304 l346,0 0,346 -346,0 0,-346z" />
<path style="fill:#ff0;stroke:#000;stroke-width:2" d="M132,892 l35,0 0,44 -35,0 0,-44z" />
<path style="fill:#ff0;stroke:#000;stroke-width:2" d="M409,936 l-4,1 -6,4 -7,8 -6,9 -4,3 -9,3 -10,2 -10,2 -9,0 -10,1 -10,0 -10,0 -10,1 -10,-1 -9,0 -10,0 -9,-1 -10,0 -10,-2 -10,-2 -10,-3 -6,-7 -6,-9 -7,-6 -3,-2 -3,-1 -34,-9 -1,-138 52,-17 0,-18 173,0 0,18 52,17 0,138 -9,2 -8,2 -9,3 -8,2z" />
<path style="fill:#ff0;stroke:#000;stroke-width:2" d="M443,892 l35,0 0,44 -35,0 0,-44z" />
<path style="fill:#ff0;stroke:#000;stroke-width:2" d="M270,702 l0,35 -44,0 0,-35 44,0z" />
<path style="fill:#ff0;stroke:#000;stroke-width:2" d="M218,737 l173,0 0,17 -173,0 0,-17z" />
<path style="fill:#000" d="M581,166 l0,-8 -553,0 0,16 553,0 0,-8z" />
<path style="fill:#ccc;stroke:#000;stroke-width:2" d="M63,131 l43,0 0,-25 -43,0 0,25z" />
<path style="fill:#ccc" d="M504,131 l43,0 0,-25 -43,0 0,25z" />
<path style="fill:#ccc" d="M209,131 l43,0 0,-25 -43,0 0,25z" />
<path style="fill:#ccc" d="M356,131 l44,0 0,-25 -44,0 0,25z" />
<path style="fill:#ccc" d="M63,235 l43,0 0,-25 -43,0 0,25z" />
<path style="fill:#ccc" d="M504,235 l43,0 0,-25 -43,0 0,25z" />
<path style="fill:#ccc" d="M209,235 l43,0 0,-25 -43,0 0,25z" />
<path style="fill:#ccc" d="M356,235 l44,0 0,-25 -44,0 0,25z" />
<path style="fill:#ccc" d="M54,200 l60,0 0,9 -60,0 0,-9z" />
<path style="fill:#ccc" d="M200,200 l61,0 0,9 -61,0 0,-9z" />
<path style="fill:#ccc" d="M348,200 l61,0 0,9 -61,0 0,-9z" />
<path style="fill:#ccc" d="M495,200 l60,0 0,9 -60,0 0,-9z" />
<path style="fill:#ccc" d="M71,235 l26,0 0,17 -26,0 0,-17z" />
<path style="fill:#ccc" d="M218,235 l26,0 0,17 -26,0 0,-17z" />
<path style="fill:#ccc" d="M365,235 l26,0 0,17 -26,0 0,-17z" />
<path style="fill:#ccc" d="M512,235 l26,0 0,17 -26,0 0,-17z" />
<path style="fill:none;stroke:#000;stroke-width:2" d="M88,106 l0,25" />
<path style="fill:none;stroke:#000;stroke-width:2" d="M504,131 l43,0 0,-25 -43,0 0,25" />
<path style="fill:none;stroke:#000;stroke-width:2" d="M521,106 l0,25" />
<path style="fill:none;stroke:#000;stroke-width:2" d="M209,131 l43,0 0,-25 -43,0 0,25" />
<path style="fill:none;stroke:#000;stroke-width:2" d="M235,106 l0,25" />
<path style="fill:none;stroke:#000;stroke-width:2" d="M356,131 l44,0 0,-25 -44,0 0,25" />
<path style="fill:none;stroke:#000;stroke-width:2" d="M374,106 l0,25" />
<path style="fill:none;stroke:#000;stroke-width:2" d="M63,235 l43,0 0,-25 -43,0 0,25" />
<path style="fill:none;stroke:#000;stroke-width:2" d="M88,210 l0,25" />
<path style="fill:none;stroke:#000;stroke-width:2" d="M504,235 l43,0 0,-25 -43,0 0,25" />
<path style="fill:none;stroke:#000;stroke-width:2" d="M521,210 l0,25" />
<path style="fill:none;stroke:#000;stroke-width:2" d="M209,235 l43,0 0,-25 -43,0 0,25" />
<path style="fill:none;stroke:#000;stroke-width:2" d="M235,210 l0,25" />
<path style="fill:none;stroke:#000;stroke-width:2" d="M356,235 l44,0 0,-25 -44,0 0,25" />
<path style="fill:none;stroke:#000;stroke-width:2" d="M374,210 l0,25" />
<path style="fill:none;stroke:#000;stroke-width:2" d="M54,200 l60,0 0,9 -60,0 0,-9" />
<path style="fill:none;stroke:#000;stroke-width:2" d="M200,200 l61,0 0,9 -61,0 0,-9" />
<path style="fill:none;stroke:#000;stroke-width:2" d="M348,200 l61,0 0,9 -61,0 0,-9" />
<path style="fill:none;stroke:#000;stroke-width:2" d="M495,200 l60,0 0,9 -60,0 0,-9" />
<path style="fill:none;stroke:#000;stroke-width:2" d="M71,235 l26,0 0,17 -26,0 0,-17" />
<path style="fill:none;stroke:#000;stroke-width:2" d="M218,235 l26,0 0,17 -26,0 0,-17" />
<path style="fill:none;stroke:#000;stroke-width:2" d="M365,235 l26,0 0,17 -26,0 0,-17" />
<path style="fill:none;stroke:#000;stroke-width:2" d="M512,235 l26,0 0,17 -26,0 0,-17" />
<path style="fill:#ff6" d="M387,912 l-9,3 -10,4 -10,4 -10,2 -11,2 -11,2 -10,1 -22,0 -11,-1 -11,-2 -11,-2 -10,-2 -10,-4 -10,-4 -10,-4 -6,14 10,5 11,4 11,3 11,3 12,3 11,1 12,1 24,0 11,-1 11,-1 12,-3 12,-3 11,-3 10,-4 10,-5z" />
<circle style="fill:#ccc;stroke:#000;stroke-width:2" cx="158" cy="460" r="17" />
<circle style="fill:#ccc" cx="442" cy="460" r="17" />
<path style="fill:none;stroke:#000;stroke-width:2" d="M157,443 l0,34" />
<circle style="fill:none;stroke:#000;stroke-width:2" cx="442" cy="460" r="17" />
<path style="fill:none;stroke:#000;stroke-width:2" d="M442,443 l0,34" />

</svg>
