

<svg xmlns:agg="http://www.example.com" xmlns="http://www.w3.org/2000/svg" preserveAspectRatio="none" width="2.0104in" height="1.0154in" viewBox="0 0 491 248">

<path style="fill:#7f7f7f" d="M63,89 l0,145 -50,0 0,-145 50,0z" />
<path style="fill:#b2b2b2" d="M58,89 l0,145 -40,0 0,-145 40,0z" />
<path style="fill:#e5e5e5" d="M52,89 l0,145 -28,0 0,-145 28,0z" />
<path style="fill:#fff" d="M42,89 l0,145 -9,0 0,-145 9,0z" />
<path style="fill:none;stroke:#000;stroke-width:2" d="M13,89 l0,145" />
<path style="fill:none;stroke:#000;stroke-width:2" d="M63,234 l0,-145" />
<path style="fill:#7f7f7f" d="M87,76 l-25,-14 25,-43 25,15 -25,42z" />
<path style="fill:#b2b2b2" d="M90,72 l-25,-14 20,-35 24,15 -19,34z" />
<path style="fill:#e5e5e5" d="M93,67 l-25,-14 14,-24 24,14 -13,24z" />
<path style="fill:#fff" d="M97,59 l-25,-14 5,-8 25,14 -5,8z" />
<path style="fill:none;stroke:#000;stroke-width:2" d="M112,34 l-25,-15" />
<path style="fill:none;stroke:#000;stroke-width:2" d="M62,62 l25,14" />
<path style="fill:#7f7f7f" d="M63,62 l-49,0 0,-6 2,-6 1,-6 3,-6 6,-8 7,-7 8,-5 9,-3 10,-2 9,1 10,2 9,4 -25,42z" />
<path style="fill:#b2b2b2" d="M63,62 l-44,0 0,-5 2,-6 1,-6 3,-5 5,-7 6,-6 8,-4 8,-3 8,-2 8,0 9,2 8,4 -22,38z" />
<path style="fill:#e5e5e5" d="M63,62 l-39,0 0,-5 2,-5 1,-4 3,-5 4,-6 6,-5 6,-4 7,-3 7,-1 8,0 7,2 7,3 -19,33z" />
<path style="fill:#fff" d="M63,62 l-29,0 0,-4 1,-3 1,-4 2,-3 3,-5 5,-4 4,-3 6,-2 5,-1 6,0 6,2 5,2 -15,25z" />
<path style="fill:#e5e5e5" d="M63,62 l-20,0 0,-2 1,-3 1,-3 1,-2 5,-6 7,-3 8,0 7,2 -10,17z" />
<path style="fill:#b2b2b2" d="M63,62 l-11,0 0,-1 1,-1 0,-2 1,-1 3,-3 3,-2 4,0 4,1 -5,9z" />
<path style="fill:#7f7f7f" d="M63,62 l-5,0 1,-1 0,-1 1,-1 2,-1 1,0 2,0 -2,4z" />
<path style="fill:none;stroke:#000;stroke-width:2" d="M14,62 l0,-6 2,-6 1,-6 3,-6 6,-8 7,-7 8,-5 9,-3 10,-2 9,1 10,2 9,4" />
<path style="fill:#7f7f7f" d="M13,90 l0,-28 50,0 0,28 -50,0z" />
<path style="fill:#b2b2b2" d="M18,90 l0,-28 40,0 0,28 -40,0z" />
<path style="fill:#e5e5e5" d="M24,90 l0,-28 28,0 0,28 -28,0z" />
<path style="fill:#fff" d="M33,90 l0,-28 10,0 0,28 -10,0z" />
<path style="fill:none;stroke:#000;stroke-width:2" d="M63,90 l0,-28" />
<path style="fill:none;stroke:#000;stroke-width:2" d="M13,62 l0,28" />
<path style="fill:#7f7f7f" d="M429,159 l0,-146 49,0 0,146 -49,0z" />
<path style="fill:#b2b2b2" d="M434,159 l0,-146 40,0 0,146 -40,0z" />
<path style="fill:#e5e5e5" d="M440,159 l0,-146 27,0 0,146 -27,0z" />
<path style="fill:#fff" d="M449,159 l0,-146 9,0 0,146 -9,0z" />
<path style="fill:none;stroke:#000;stroke-width:2" d="M478,159 l0,-146" />
<path style="fill:none;stroke:#000;stroke-width:2" d="M429,13 l0,146" />
<path style="fill:#7f7f7f" d="M404,171 l25,15 -25,43 -25,-15 25,-43z" />
<path style="fill:#b2b2b2" d="M402,176 l25,14 -20,34 -25,-14 20,-34z" />
<path style="fill:#e5e5e5" d="M399,181 l24,14 -13,24 -25,-14 14,-24z" />
<path style="fill:#fff" d="M394,189 l25,14 -5,8 -24,-14 4,-8z" />
<path style="fill:none;stroke:#000;stroke-width:2" d="M379,214 l25,15" />
<path style="fill:none;stroke:#000;stroke-width:2" d="M429,186 l-25,-15" />
<path style="fill:#7f7f7f" d="M428,185 l50,0 -1,7 -1,6 -2,6 -3,6 -6,8 -7,7 -8,5 -9,3 -9,2 -10,-1 -9,-2 -9,-4 24,-43z" />
<path style="fill:#b2b2b2" d="M428,185 l44,0 0,6 -1,6 -2,5 -3,5 -5,7 -6,6 -8,5 -8,3 -8,1 -8,0 -9,-1 -8,-4 22,-39z" />
<path style="fill:#e5e5e5" d="M428,185 l39,0 0,5 -1,5 -2,5 -2,5 -5,6 -5,5 -7,4 -7,2 -7,2 -8,0 -7,-2 -7,-3 19,-34z" />
<path style="fill:#fff" d="M428,185 l30,0 0,4 -1,4 -2,4 -1,3 -3,5 -5,4 -4,3 -6,2 -5,1 -6,0 -6,-2 -5,-2 14,-26z" />
<path style="fill:#e5e5e5" d="M428,185 l20,0 0,3 -1,2 0,3 -1,2 -5,6 -7,4 -8,0 -8,-2 10,-18z" />
<path style="fill:#b2b2b2" d="M428,185 l11,0 0,1 0,2 0,1 -1,2 -3,3 -4,2 -4,0 -4,-1 5,-10z" />
<path style="fill:#7f7f7f" d="M428,185 l5,0 0,1 0,1 -1,1 -1,1 -2,1 -1,0 -2,-1 2,-4z" />
<path style="fill:none;stroke:#000;stroke-width:2" d="M478,185 l-1,7 -1,6 -2,6 -3,6 -6,8 -7,7 -8,5 -9,3 -9,2 -10,-1 -9,-2 -9,-4" />
<path style="fill:#7f7f7f" d="M478,158 l0,28 -49,0 0,-28 49,0z" />
<path style="fill:#b2b2b2" d="M473,158 l0,28 -40,0 0,-28 40,0z" />
<path style="fill:#e5e5e5" d="M467,158 l0,28 -27,0 0,-28 27,0z" />
<path style="fill:#fff" d="M458,158 l0,28 -9,0 0,-28 9,0z" />
<path style="fill:none;stroke:#000;stroke-width:2" d="M429,158 l0,28" />
<path style="fill:none;stroke:#000;stroke-width:2" d="M478,186 l0,-28" />
<path style="fill:#7f7f7f" d="M386,220 l-303,-145 21,-45 304,146 -22,44z" />
<path style="fill:#b2b2b2" d="M389,216 l-304,-146 17,-36 304,146 -17,36z" />
<path style="fill:#e5e5e5" d="M391,210 l-304,-145 12,-25 304,146 -12,24z" />
<path style="fill:#fff" d="M395,202 l-304,-145 4,-9 304,146 -4,8z" />
<path style="fill:none;stroke:#000;stroke-width:2" d="M408,176 l-304,-146" />
<path style="fill:none;stroke:#000;stroke-width:2" d="M83,75 l303,145" />
<circle style="fill:#7f7f7f" cx="245" cy="123" r="54" />
<circle style="fill:#999" cx="245" cy="124" r="50" />
<circle style="fill:#b2b2b2" cx="245" cy="123" r="42" />
<circle style="fill:#ccc" cx="245" cy="123" r="31" />
<circle style="fill:#e5e5e5" cx="245" cy="124" r="22" />
<circle style="fill:none;stroke:#000;stroke-width:2" cx="245" cy="123" r="54" />
<circle style="fill:#fff" cx="245" cy="124" r="13" />

</svg>
