 
<svg version="1.1" xmlns="http://www.w3.org/2000/svg" preserveAspectRatio="none"   xmlns:agg="http://www.example.com" xmlns:xlink="http://www.w3.org/1999/xlink" x="-1px" y="-1px"   viewBox="-1 -1 52 50.212" enable-background="new 0 0 50 48.212" xml:space="preserve">

<agg:params>
	<agg:param name="color" description="Color" type="C" cssAttributes="fill" classes="color"/>
    <agg:param type="F" name="saturation" description="Saturation" min="0" max="1" cssAttributes="opacity" classes="color"/>
</agg:params>

<style type="text/css" >
   <![CDATA[

	.stroke{
		stroke-width:0.5px;
		opacity:0.5;
		stroke-linecap:round;
		stroke-linejoin:round;
		stroke: black;
		fill:none;
	}
	
	.color {
		fill:#3664BF;
		opacity:0.2;
	}

      ]]>
</style>

<defs>
	<linearGradient id="base" gradientUnits="userSpaceOnUse">
		<stop  offset="0.0051" style="stop-color:#767677"/>
		<stop  offset="0.0583" style="stop-color:#959595"/>
		<stop  offset="0.132" style="stop-color:#BBBBBB"/>
		<stop  offset="0.2058" style="stop-color:#D7D7D7"/>
		<stop  offset="0.2788" style="stop-color:#EBEBEB"/>
		<stop  offset="0.3507" style="stop-color:#F7F8F8"/>
		<stop  offset="0.42" style="stop-color:#FDFEFF"/>
		<stop  offset="0.4749" style="stop-color:#F7F8F8"/>
		<stop  offset="0.5318" style="stop-color:#EBEBEB"/>
		<stop  offset="0.5897" style="stop-color:#D7D7D7"/>
		<stop  offset="0.6481" style="stop-color:#BBBBBB"/>
		<stop  offset="0.7066" style="stop-color:#959595"/>
		<stop  offset="0.72" style="stop-color:#8B8B8B"/>
		<stop  offset="1" style="stop-color:#FDFEFF"/>
	</linearGradient>
	<linearGradient id="SVGID_1_" xlink:href="#base" gradientUnits="userSpaceOnUse" x1="45.9814" y1="42.3901" x2="44.1102" y2="44.2614"/>
	<linearGradient id="SVGID_2_" xlink:href="#base" gradientUnits="userSpaceOnUse" x1="39.2705" y1="33.5786" x2="35.3552" y2="37.4939"/>
	<linearGradient id="SVGID_3_" xlink:href="#base" gradientUnits="userSpaceOnUse" x1="10.437" y1="0.543" x2="2.3797" y2="8.6003"/>
	<linearGradient id="SVGID_4_" xlink:href="#base" gradientUnits="userSpaceOnUse" x1="0" y1="11.9756" x2="0" y2="23.9022"/>
	<linearGradient id="SVGID_6_" xlink:href="#base" gradientUnits="userSpaceOnUse" x1="22.5269" y1="14.9683" x2="16.7349" y2="20.7602"/>	
	<linearGradient id="SVGID_7_" xlink:href="#base" gradientUnits="userSpaceOnUse" x1="0" y1="14.2056" x2="0" y2="21.5443"/>

</defs>
	 
	<polygon fill="url(#SVGID_1_)" points="50,46.318 42.053,38.371 40.159,40.265 48.106,48.212 	"/>
	<polygon fill="url(#SVGID_2_)" points="35.424,29.849 31.636,33.636 39.212,41.212 43,37.424 	"/>
	<polygon fill="url(#SVGID_3_)" points="10.98,1.263 9.717,0 1.788,7.929 3.051,9.192 	"/>
	<polygon fill="url(#SVGID_3_)" points="37.495,27.778 36.232,26.515 28.303,34.444 29.565,35.707 	"/>
	<rect x="37.498" y="11.976" fill="url(#SVGID_4_)"  />
	<rect y="11.947" fill="url(#SVGID_4_)"  />
	<polygon fill="url(#SVGID_6_)" points="4.111,8.131 9.919,2.323 35.172,27.576 29.364,33.384 	"/>
	<path fill="url(#SVGID_7_)" d="M1.785,21.417c0-1.19,0-7.237,0-7.128c2.826-0.002,5.652-0.005,8.478-0.007
		c0.882,0.398,1.763,0.798,2.632,1.218c0.619,0.299,1.231,0.608,1.835,0.938c0.708,0.388,1.404,0.805,1.984,1.365
		c0.214,0.206,0.412,0.432,0.559,0.688c0.134,0.232,0.226,0.49,0.279,0.753c0.063,0.312,0.071,0.632,0.05,0.95
		c-0.028,0.415-0.106,0.827-0.198,1.229c-0.001,0.004-0.002,0.009,0.001-0.007C12.199,21.417,6.992,21.417,1.785,21.417z"/>
	<path fill="url(#SVGID_7_)" d="M37.498,14.29c0,1.19,0,7.135,0,7.135s-5.652-0.002-8.478,0c-0.882-0.398-1.764-0.798-2.633-1.219
		c-0.619-0.299-1.231-0.608-1.834-0.938c-0.708-0.387-1.404-0.804-1.984-1.365c-0.214-0.206-0.412-0.432-0.56-0.688
		c-0.134-0.233-0.226-0.492-0.279-0.757c-0.063-0.313-0.07-0.633-0.048-0.951c0.028-0.414,0.106-0.823,0.197-1.223
		c0.001-0.004,0.002-0.008-0.001,0.006C27.083,14.29,32.291,14.29,37.498,14.29z"/>
		
	<path class="color" d="M42.053,38.371L43,37.424l-7.576-7.576l-1.894,1.894
		l3.965-3.964l-1.263-1.263l-1.061,1.061l-6.151-6.151c2.827-0.002,8.477,0,8.477,0v2.336h1.786V11.975h-1.786v2.314
		c-5.204,0-10.408,0-15.611,0L9.919,2.323l1.061-1.061L9.717,0L1.788,7.929l1.263,1.263l1.061-1.061l6.151,6.151
		c-2.825,0.002-5.651,0.005-8.477,0.007v-2.343H0v11.785h1.785v-2.314c5.204,0,10.408,0,15.611-0.001l11.967,11.967l-1.061,1.061
		l1.262,1.263l2.071-2.071l7.576,7.576l0.947-0.947l7.947,7.947L50,46.317L42.053,38.371z"/>
		
	<g class="stroke">
		<rect x="37.498" y="11.976"  />
		<rect x="32.006" y="25.504" transform="matrix(0.7071 0.7071 -0.7071 0.7071 31.6348 -14.151)"  />
		<rect x="5.491" y="-1.011" transform="matrix(0.707 0.7072 -0.7072 0.707 5.1212 -3.1683)"  />
		<polyline points="40.159,40.265 48.106,48.211 50,46.318 42.053,38.371 		"/>
		<polyline points="31.637,33.636 39.212,41.212 43,37.424 35.424,29.848 		"/>
		<rect y="11.946"  />
		<line x1="17.407" y1="21.417" x2="1.786" y2="21.417"/>
		<line x1="37.498" y1="21.425" x2="37.498" y2="21.417"/>
		<line x1="37.498" y1="21.417" x2="29.02" y2="21.425"/>
		<line x1="21.877" y1="14.29" x2="37.498" y2="14.29"/>
		<path d="M29.364,33.384
			c-3.986-3.986-7.973-7.973-11.959-11.959c-0.001-0.003-0.002-0.005-0.003-0.008c0.001,0.016,0.003,0.011,0.004,0.006
			c0.092-0.401,0.17-0.813,0.198-1.229c0.021-0.318,0.013-0.638-0.05-0.95c-0.053-0.263-0.145-0.521-0.279-0.753
			c-0.147-0.256-0.346-0.481-0.559-0.688c-0.581-0.56-1.277-0.977-1.985-1.365c-0.604-0.331-1.216-0.64-1.835-0.938
			c-0.869-0.42-1.75-0.82-2.633-1.218h0c-2.05-2.05-4.101-4.101-6.151-6.151"/>
		<line x1="1.786" y1="14.282" x2="1.786" y2="14.29"/>
		<line x1="1.786" y1="14.29" x2="10.263" y2="14.282"/>
		<path d="M9.919,2.323
			c3.986,3.986,7.973,7.973,11.959,11.959c0.001,0.002,0.002,0.005,0.003,0.008c-0.001-0.015-0.002-0.011-0.003-0.006
			c-0.092,0.4-0.169,0.81-0.198,1.223c-0.021,0.318-0.014,0.639,0.049,0.952c0.053,0.265,0.145,0.523,0.279,0.757
			c0.147,0.256,0.346,0.482,0.559,0.688c0.581,0.56,1.277,0.977,1.984,1.365c0.604,0.331,1.216,0.639,1.834,0.938
			c0.87,0.42,1.751,0.82,2.634,1.218c0,0,0.001,0,0.001,0c2.05,2.05,4.1,4.101,6.15,6.151"/>
	</g>

</svg>
