

<svg xmlns:agg="http://www.example.com" xmlns="http://www.w3.org/2000/svg" preserveAspectRatio="none" width="1.9942in" height="1.4792in" viewBox="0 0 999 741">

<path style="fill:#f00;stroke:#000;stroke-width:2" d="M510,49 l460,0 0,300 -460,0 0,-300z" />
<path style="fill:#fff;stroke:#fff;stroke-width:2" d="M521,60 l439,0 0,43 -439,0 0,-43z" />
<path style="fill:#000;stroke:#000;stroke-width:2" d="M521,317 l439,0 0,21 -439,0 0,-21z" />
<path style="fill:#f00;stroke:#000;stroke-width:2" d="M59,392 l22,0 0,32 -22,0 0,-32z" />
<path style="fill:#f00;stroke:#000;stroke-width:2" d="M81,49 l-11,0 0,311 11,0 0,-311z" />
<path style="fill:#f00;stroke:#000;stroke-width:2" d="M28,713 l0,-257 53,-53 0,-375 375,0 0,375 -53,53 0,257 -375,0z" />
<path style="fill:#f00;stroke:#000;stroke-width:2" d="M49,113 l21,0 0,33 -21,0 0,-33z" />
<path style="fill:#f00;stroke:#000;stroke-width:2" d="M124,403 l225,0 0,289 -225,0 0,-289z" />
<circle style="fill:#000;stroke:#000;stroke-width:2" cx="236" cy="547" r="91" />
<circle style="fill:#b2b2b2" cx="236" cy="547" r="26" />
<path style="fill:none;stroke:#fff;stroke-width:2" d="M172,612 l-6,-7 -5,-7 -5,-8 -4,-8 -3,-8 -2,-9 -1,-9 -1,-4 0,-5 1,-9 1,-9 2,-9 3,-8 4,-8 5,-7 5,-8 6,-6 6,-6 8,-5 7,-5 8,-4 8,-3 9,-2 9,-2 9,0 9,0 9,2 9,2 8,3 8,4 8,5 7,5 7,6" />
<circle style="fill:#000;stroke:#7f7f7f;stroke-width:2" cx="237" cy="429" r="16" />
<circle style="fill:#000;stroke:#7f7f7f;stroke-width:2" cx="237" cy="665" r="16" />
<path style="fill:none;stroke:#000;stroke-width:2" d="M92,38 l354,0 0,354 -354,0 0,-354" />
<path style="fill:#000;stroke:#000;stroke-width:2" d="M103,70 l332,0 0,311 -332,0 0,-311z" />
<circle style="fill:#f00;stroke:#7f7f7f;stroke-width:2" cx="129" cy="97" r="16" />
<path style="fill:none;stroke:#fff;stroke-width:2" d="M118,109 l-1,-2 -1,-1 -1,-1 0,-2 -1,-1 0,-2 -1,-1 0,-2 1,-3 1,-3 1,-3 2,-2 3,-2 2,-2 3,-1 3,0 2,0 2,0 2,1 2,1 1,1 2,1 1,2 1,1" />
<circle style="fill:#f00;stroke:#7f7f7f;stroke-width:2" cx="408" cy="97" r="16" />
<path style="fill:none;stroke:#fff;stroke-width:2" d="M396,109 l-1,-2 -1,-1 0,-1 -1,-2 -1,-1 0,-2 0,-1 0,-2 0,-3 1,-3 1,-3 2,-2 3,-2 3,-2 3,-1 3,0 2,0 2,0 1,1 2,1 2,1 1,1 1,2 2,1" />
<circle style="fill:#f00;stroke:#7f7f7f;stroke-width:2" cx="129" cy="354" r="16" />
<path style="fill:none;stroke:#fff;stroke-width:2" d="M118,366 l-1,-2 -1,-1 -1,-1 0,-2 -1,-1 0,-2 -1,-1 0,-2 1,-3 1,-3 1,-3 2,-2 3,-2 2,-1 3,-1 3,-1 2,0 2,1 2,0 2,1 1,1 2,1 1,2 1,1" />
<circle style="fill:#f00;stroke:#7f7f7f;stroke-width:2" cx="408" cy="354" r="16" />
<path style="fill:none;stroke:#fff;stroke-width:2" d="M396,366 l-1,-2 -1,-1 0,-1 -1,-2 -1,-1 0,-2 0,-1 0,-2 0,-3 1,-3 1,-3 2,-2 3,-2 3,-1 3,-1 3,-1 2,0 2,1 1,0 2,1 2,1 1,1 1,2 2,1" />
<path style="fill:#fff;stroke:#fff;stroke-width:2" d="M178,306 l182,0 0,43 -182,0 0,-43z" />
<path style="fill:#fff;stroke:#fff;stroke-width:2" d="M178,81 l182,0 0,32 -182,0 0,-32z" />
<path style="fill:#f00;stroke:#000;stroke-width:2" d="M403,574 l53,0 0,107 -53,0 0,-107z" />
<path style="fill:#fff" d="M403,177 l-11,-10 11,-11 0,21z" />
<path style="fill:#fff" d="M376,151 l11,0 0,11 -11,0 0,-11z" />
<path style="fill:#fff" d="M376,172 l11,0 0,11 -11,0 0,-11z" />
<path style="fill:#fff" d="M140,151 l11,0 0,11 -11,0 0,-11z" />
<path style="fill:#fff" d="M140,172 l11,0 0,11 -11,0 0,-11z" />
<path style="fill:#fff" d="M156,177 l-11,-10 11,-11 0,21z" />
<path style="fill:#fff" d="M269,248 l-11,0 -12,0 -11,1 -11,0 -11,1 -10,1 -10,2 -10,1 -10,1 -9,2 -8,2 -8,2 -15,5 -12,4 4,9 12,-5 14,-4 7,-2 8,-1 9,-2 9,-2 10,-1 10,-1 10,-1 11,-1 11,-1 11,0 11,-1 11,0z" />
<path style="fill:#fff" d="M415,269 l-13,-4 -14,-5 -8,-2 -9,-1 -9,-2 -9,-1 -10,-2 -10,-1 -10,-1 -10,-1 -11,-1 -11,0 -11,0 -11,0 0,9 11,0 11,1 10,0 11,1 10,1 10,1 10,1 10,1 8,2 9,1 9,2 14,3 13,5 6,2z" />
<path style="fill:#fff" d="M263,188 l-4,0 0,65 9,0 0,-65 -5,0z" />
<path style="fill:#fff" d="M339,210 l-5,-1 -6,48 10,2 5,-49 -4,0z" />
<path style="fill:#fff" d="M403,236 l-5,0 -6,32 10,1 5,-32 -4,-1z" />
<path style="fill:#fff" d="M194,210 l-5,0 5,49 10,-2 -6,-48 -4,1z" />
<path style="fill:#fff" d="M129,236 l-4,1 5,32 10,-1 -6,-32 -5,0z" />
<path style="fill:#e5e5e5;stroke:#fff;stroke-width:2" d="M290,81 l70,0 0,32 -70,0 0,-32z" />
<circle style="fill:#000;stroke:#7f7f7f;stroke-width:2" cx="129" cy="97" r="5" />
<circle style="fill:#000;stroke:#7f7f7f;stroke-width:2" cx="407" cy="97" r="5" />
<circle style="fill:#000;stroke:#7f7f7f;stroke-width:2" cx="129" cy="354" r="5" />
<circle style="fill:#000;stroke:#7f7f7f;stroke-width:2" cx="407" cy="354" r="5" />
<path style="fill:#f00;stroke:#000;stroke-width:2" d="M799,28 l118,0 0,342 -118,0 0,-342z" />
<path style="fill:#fff;stroke:#fff;stroke-width:2" d="M810,38 l96,0 0,54 -96,0 0,-54z" />
<path style="fill:#000;stroke:#000;stroke-width:2" d="M810,349 l96,0 0,11 -96,0 0,-11z" />
<path style="fill:#f00;stroke:#000;stroke-width:2" d="M456,49 l54,0 0,300 -54,0 0,-300z" />
<path style="fill:none;stroke:#fff;stroke-width:2" d="M92,38 l354,0" />
<path style="fill:none;stroke:#fff;stroke-width:2" d="M124,403 l225,0" />

</svg>
