 

<svg xmlns:agg="http://www.example.com" xmlns="http://www.w3.org/2000/svg" preserveAspectRatio="none" width="1.6083in" height="0.8484in" viewBox="0 0 999 527">

<path style="fill:#d9d9d9;stroke:#000;stroke-width:2" d="M955,43 l-353,39 -157,0 -353,-39 0,368 863,0 0,-368z" />
<path style="fill:#f2f2f2;stroke:#000;stroke-width:2" d="M538,440 l354,59 0,-393 -354,0 0,334z" />
<path style="fill:#b2b2b2;stroke:#000;stroke-width:2" d="M892,106 l14,-14 0,368 49,-49 0,-368 15,-15 0,392 -78,79 0,-393z" />
<path style="fill:#fff;stroke:#000;stroke-width:2" d="M92,43 l14,-15 354,39 157,0 353,-39 -15,15 -353,39 -162,0 -348,-39z" />
<path style="fill:#fff;stroke:#000;stroke-width:2" d="M892,106 l14,-14 -863,0 -15,14 864,0z" />
<path style="fill:#d9d9d9;stroke:#000;stroke-width:2" d="M381,440 l157,0 0,-334 -157,0 0,334z" />
<path style="fill:#bfbfbf;stroke:#000;stroke-width:2" d="M28,499 l353,-59 0,-334 -353,0 0,393z" />
<path style="fill:none;stroke:#000;stroke-width:2" d="M381,106 l15,-14" />
<path style="fill:none;stroke:#000;stroke-width:2" d="M538,106 l15,-14" />
<path style="fill:none;stroke:#000;stroke-width:2" d="M460,67 l-20,15 0,10" />
<path style="fill:none;stroke:#000;stroke-width:2" d="M597,92 l0,-10 20,-15" />
<path style="fill:#a6a6a6" d="M67,141 l49,0 0,319 -49,0 0,-319z" />
<path style="fill:#a6a6a6" d="M175,141 l49,0 0,299 -49,0 0,-299z" />
<path style="fill:#a6a6a6" d="M288,141 l49,0 0,279 -49,0 0,-279z" />
<path style="fill:none;stroke:#000;stroke-width:2" d="M67,460 l0,-319 49,0" />
<path style="fill:none;stroke:#000;stroke-width:2" d="M175,440 l0,-299 49,0" />
<path style="fill:none;stroke:#000;stroke-width:2" d="M288,420 l0,-279 49,0" />
<path style="fill:#d9d9d9" d="M803,141 l49,0 0,319 -49,0 0,-319z" />
<path style="fill:#d9d9d9" d="M691,141 l49,0 0,299 -49,0 0,-299z" />
<path style="fill:#d9d9d9" d="M583,141 l49,0 0,279 -49,0 0,-279z" />
<path style="fill:#f2f2f2" d="M420,420 l79,0 0,-294 -79,0 0,294z" />
<path style="fill:none;stroke:#000;stroke-width:2" d="M499,126 l0,294 -79,0" />
<path style="fill:none;stroke:#7f7f7f;stroke-width:2" d="M583,420 l0,-279 49,0" />
<path style="fill:none;stroke:#7f7f7f;stroke-width:2" d="M691,440 l0,-299 49,0" />
<path style="fill:none;stroke:#7f7f7f;stroke-width:2" d="M803,460 l0,-319 49,0" />

</svg>
