

<svg xmlns:agg="http://www.example.com" xmlns="http://www.w3.org/2000/svg" preserveAspectRatio="none" width="2.0104in" height="0.8513in" viewBox="0 0 999 423">

<path style="fill:#7f7f7f" d="M28,337 l471,0 0,58 -471,0 0,-58z" />
<path style="fill:#b2b2b2" d="M28,218 l471,0 0,119 -471,0 0,-119z" />
<path style="fill:#ccc" d="M28,160 l471,0 0,58 -471,0 0,-58z" />
<path style="fill:none;stroke:#000;stroke-width:2" d="M28,160 l471,0 0,235 -471,0 0,-235" />
<path style="fill:#666" d="M184,337 l0,58 11,0 0,-49 215,0 0,-9 -226,0z" />
<path style="fill:#999" d="M410,218 l-9,0 0,119 9,0 0,-119z" />
<path style="fill:#b2b2b2;stroke:#000;stroke-width:2" d="M184,218 l217,0 0,119 -217,0 0,-119z" />
<path style="fill:#b2b2b2" d="M195,160 l-11,0 0,58 11,0 0,-58z" />
<path style="fill:#7f7f7f" d="M184,160 l-77,0 0,235 77,0 0,-235z" />
<path style="fill:#999" d="M184,175 l-77,0 0,205 77,0 0,-205z" />
<path style="fill:#b2b2b2" d="M184,199 l-77,0 0,157 77,0 0,-157z" />
<path style="fill:#ccc" d="M184,228 l-77,0 0,97 77,0 0,-97z" />
<path style="fill:#e5e5e5" d="M184,258 l-77,0 0,39 77,0 0,-39z" />
<path style="fill:none;stroke:#000;stroke-width:2" d="M184,160 l-77,0 0,235 77,0 0,-235" />
<path style="fill:#b2b2b2;stroke:#000;stroke-width:2" d="M184,165 l0,-45 60,0 15,-3 13,-2 12,-1 6,-1 6,0 5,0 12,1 11,2 12,2 7,2 0,3 0,42 -13,3 -12,2 -11,2 -6,0 -5,0 -12,0 -12,-2 -13,-2 -15,-3 -60,0z" />
<path style="fill:#999" d="M309,169 l28,-4 0,-45 -28,-6 0,55z" />
<path style="fill:#ccc" d="M278,169 l-30,-4 0,-45 30,-6 0,55z" />
<path style="fill:#b2b2b2;stroke:#000;stroke-width:2" d="M254,56 l79,0 0,30 -79,0 0,-30z" />
<path style="fill:#ccc;stroke:#000;stroke-width:2" d="M254,105 l79,0 0,9 -79,0 0,-9z" />
<path style="fill:#e5e5e5;stroke:#000;stroke-width:2" d="M273,56 l39,0 0,30 -39,0 0,-30z" />
<path style="fill:#f60" d="M425,28 l545,0 0,37 -545,0 0,-37z" />
<path style="fill:#d94000" d="M425,65 l545,0 0,12 -545,0 0,-12z" />
<path style="fill:#ff8c00" d="M425,41 l545,0 0,11 -545,0 0,-11z" />
<path style="fill:none;stroke:#000;stroke-width:2" d="M425,28 l545,0 0,49 -545,0 0,-49" />
<path style="fill:#e5e5e5;stroke:#000;stroke-width:2" d="M263,52 l59,0 0,4 -59,0 0,-4z" />
<path style="fill:#e5e5e5" d="M224,120 l1,-9 5,-6 11,0 126,0 9,-7 5,-7 5,-8 6,-8 5,-7 7,-6 11,0 8,0 2,0 0,-3 0,-15 0,-3 -3,0 -27,0 -8,7 -5,7 -5,8 -6,9 -5,7 -7,7 -11,0 -134,0 -6,6 -2,9 -1,9 0,3 0,2 0,3 0,2 2,0 17,0z" />
<path style="fill:#b2b2b2" d="M224,120 l1,-9 5,-6 11,0 126,0 9,-7 5,-7 5,-8 6,-8 5,-7 7,-6 11,0 8,0 2,0 0,-3 0,-5 0,-2 -2,0 -22,0 -9,7 -5,7 -6,8 -5,8 -6,7 -7,6 -11,1 -123,0 -9,4 -5,11 -1,5 0,4 3,0 7,0z" />
<path style="fill:none;stroke:#000;stroke-width:2" d="M224,120 l1,-9 5,-6 11,0 126,0 9,-7 5,-7 5,-8 6,-8 5,-7 7,-6 11,0 8,0 2,0 0,-3 0,-15 0,-3 -3,0 -27,0 -8,7 -5,7 -5,8 -6,9 -5,7 -7,7 -11,0 -134,0 -6,6 -2,9 -1,9 0,3 0,2 0,3 0,2 2,0 17,0" />

</svg>
