 

<svg xmlns:agg="http://www.example.com" xmlns="http://www.w3.org/2000/svg" preserveAspectRatio="none" width="1.0750in" height="1.0750in" viewBox="0 0 999 999">

<path style="fill:#999" d="M568,652 l84,-84 213,212 -22,21 127,127 -42,42 -127,-127 -21,22 -212,-213z" />
<path style="fill:#b2b2b2" d="M576,644 l68,-69 213,213 -17,17 127,127 -35,34 -127,-127 -17,17 -212,-212z" />
<path style="fill:#ccc" d="M584,636 l52,-52 212,212 -12,13 127,127 -27,26 -127,-127 -13,13 -212,-212z" />
<path style="fill:#e5e5e5" d="M592,628 l36,-36 212,212 -9,9 127,127 -18,18 -127,-127 -8,9 -213,-212z" />
<path style="fill:#fff" d="M600,620 l20,-20 212,212 -5,5 127,128 -9,9 -128,-127 -5,5 -212,-212z" />
<path style="fill:none;stroke:#000;stroke-width:2" d="M568,652 l84,-84 213,212 -22,21 127,127 -42,42 -127,-127 -21,22 -212,-213" />
<path style="fill:none;stroke:#000;stroke-width:2" d="M801,843 l42,-42" />
<path style="fill:#933" d="M54,254 l-25,-26 201,-200 26,25 -26,25 452,452 26,-25 25,25 -201,201 -25,-25 25,-25 -453,-453 -25,26z" />
<path style="fill:#ab4d4d" d="M67,241 l-25,-25 176,-176 25,25 -22,22 453,452 21,-21 25,25 -176,175 -24,-25 22,-22 -453,-452 -22,22z" />
<path style="fill:#ba6666" d="M80,228 l-25,-25 150,-150 26,25 -19,19 452,452 19,-19 25,25 -151,151 -25,-25 19,-19 -452,-452 -19,18z" />
<path style="fill:#cc7f7f" d="M92,216 l-25,-25 126,-126 25,26 -16,15 452,452 16,-15 25,25 -125,125 -26,-24 16,-17 -452,-452 -16,16z" />
<path style="fill:#de9999" d="M105,203 l-25,-24 100,-101 25,25 -12,12 452,453 13,-13 25,25 -101,101 -25,-25 13,-13 -452,-452 -13,12z" />
<path style="fill:#edb2b2" d="M118,191 l-26,-25 76,-75 25,25 -9,9 452,452 9,-9 25,25 -75,76 -25,-26 9,-9 -452,-452 -9,9z" />
<path style="fill:#fcc" d="M130,179 l-25,-26 50,-50 25,25 -7,7 453,452 6,-7 25,25 -50,51 -25,-25 6,-7 -452,-452 -6,7z" />
<path style="fill:none;stroke:#000;stroke-width:2" d="M54,254 l-25,-26 201,-200 26,25 -26,25 452,452 26,-25 25,25 -201,201 -25,-25 25,-25 -453,-453 -25,26" />
<path style="fill:none;stroke:#000;stroke-width:2" d="M79,228 l151,-150" />
<path style="fill:none;stroke:#000;stroke-width:2" d="M532,681 l150,-151" />
<path style="fill:#ba6666;stroke:#000;stroke-width:2" d="M180,78 l-38,-38 -100,101 37,38 13,-13 -25,-25 75,-76 26,25 12,-12z" />
<path style="fill:#933" d="M703,260 l30,0 0,240 -30,0 0,-30 -105,0 -74,-38 -60,-52 -46,-90 285,0 0,-30z" />
<path style="fill:#933" d="M58,500 l-30,0 0,-240 30,0 0,30 105,0 73,38 61,52 46,90 -285,0 0,30z" />
<path style="fill:#ab4d4d" d="M702,275 l30,0 0,210 -30,0 0,-26 -116,0 -64,-29 -58,-50 -35,-78 273,0 0,-27z" />
<path style="fill:#ab4d4d" d="M58,485 l-30,0 0,-210 30,0 0,26 116,0 64,29 58,50 35,79 -273,0 0,26z" />
<path style="fill:#ba6666" d="M702,290 l30,0 0,180 -30,0 0,-22 -126,0 -58,-23 -53,-45 -24,-67 261,0 0,-23z" />
<path style="fill:#ba6666" d="M58,470 l-30,0 0,-180 30,0 0,22 126,0 59,23 52,45 24,67 -261,0 0,23z" />
<path style="fill:#cc7f7f" d="M702,305 l30,0 0,150 -30,0 0,-19 -137,0 -52,-15 -47,-41 -14,-56 250,0 0,-19z" />
<path style="fill:#cc7f7f" d="M58,455 l-30,0 0,-150 30,0 0,19 137,0 53,16 47,40 14,56 -251,0 0,19z" />
<path style="fill:#de9999" d="M702,320 l30,0 0,120 -30,0 0,-15 -149,0 -45,-10 -42,-35 -1,-45 237,0 0,-15z" />
<path style="fill:#de9999" d="M58,440 l-30,0 0,-120 30,0 0,15 149,0 46,11 41,34 1,45 -237,0 0,15z" />
<path style="fill:#edb2b2" d="M702,335 l30,0 0,90 -30,0 0,-11 -159,0 -41,-8 -34,-26 7,-34 227,0 0,-11z" />
<path style="fill:#edb2b2" d="M58,425 l-30,0 0,-90 30,0 0,11 159,0 42,8 33,26 -6,34 -228,0 0,11z" />
<path style="fill:#fcc" d="M703,350 l30,0 0,60 -30,0 0,-7 -172,0 -35,-5 -28,-18 18,-22 217,0 0,-8z" />
<path style="fill:#fcc" d="M58,410 l-30,0 0,-60 30,0 0,8 171,0 35,4 28,18 -18,23 -216,0 0,7z" />
<path style="fill:none;stroke:#000;stroke-width:2" d="M703,290 l0,180" />
<path style="fill:none;stroke:#000;stroke-width:2" d="M703,260 l30,0 0,240 -30,0 0,-30 -105,0 -75,-38 -60,-52 -45,-90 285,0 0,-30" />
<path style="fill:none;stroke:#000;stroke-width:2" d="M58,500 l-30,0 0,-240 30,0 0,30 105,0 74,38 60,52 46,90 -285,0 0,30" />
<path style="fill:none;stroke:#000;stroke-width:2" d="M58,470 l0,-180" />
<path style="fill:#ba6666;stroke:#000;stroke-width:2" d="M612,577 l-27,6 -21,-21 0,-22 -26,-16 31,-32 17,27 20,0 22,21 -6,27 -10,10z" />
<path style="fill:#d48d8d" d="M614,575 l-21,0 -21,-21 -4,-18 -24,-18 19,-20 18,25 17,4 22,21 1,21 -7,6z" />
<path style="fill:#edb2b2" d="M616,574 l-15,-7 -21,-21 -8,-14 -22,-20 7,-7 21,22 13,8 21,21 7,15 -3,3z" />
<path style="fill:#933;stroke:#000;stroke-width:2" d="M522,667 l-27,5 -21,-21 0,-21 -26,-16 31,-32 16,27 21,0 22,21 -6,27 -10,10z" />
<path style="fill:#ab4d4d" d="M524,665 l-21,-1 -21,-21 -4,-17 -24,-18 19,-20 18,25 17,4 22,21 0,20 -6,7z" />
<path style="fill:#ba6666" d="M526,663 l-15,-6 -21,-22 -8,-13 -23,-20 8,-8 20,23 14,8 21,21 6,14 -2,3z" />

</svg>
