 

<svg xmlns:agg="http://www.example.com" xmlns="http://www.w3.org/2000/svg" preserveAspectRatio="none" width="1.1867in" height="1.0750in" viewBox="0 0 999 905">

<path style="fill:#b2b2b2;fill-rule:evenodd" d="M620,391 l54,0 0,-94 -54,0 0,94z M540,795 l-27,-68 -162,-161 -27,-108 0,-215 296,0 0,215 -27,0 27,108 27,27 81,162 -188,40z M324,189 l0,323 -27,54 0,108 -54,0 0,-108 -27,-54 0,-323 27,-54 0,-107 54,0 0,107 27,54z M28,458 l188,0 0,-215 -188,0 0,215z " />
<path style="fill:#ccc" d="M472,324 l148,0 0,-81 -148,0 0,81z" />
<path style="fill:#ccc" d="M28,324 l188,0 0,-81 -188,0 0,81z" />
<path style="fill:#7f7f7f" d="M620,458 l54,0 0,-67 -54,0 0,67z" />
<path style="fill:#7f7f7f" d="M620,566 l-148,-108 0,-53 148,0 0,53 -27,0 27,108z" />
<path style="fill:#7f7f7f" d="M28,458 l188,0 0,-67 -188,0 0,67z" />
<path style="fill:#ccc;stroke:#000;stroke-width:2" d="M862,297 l81,0 0,-162 -81,0 0,162z" />
<path style="fill:#e5e5e5;stroke:#000;stroke-width:2" d="M863,405 l107,0 0,-108 -107,0 0,108z" />
<path style="fill:#b2b2b2;stroke:#000;stroke-width:2" d="M862,566 l81,0 0,-161 -81,0 0,161z" />
<path style="fill:none;stroke:#000;stroke-width:2" d="M540,795 l-27,-68 -162,-161 -27,-108 0,-215 296,0 0,215 -27,0 27,108 27,27 81,162 -188,40" />
<path style="fill:#7f7f7f" d="M547,877 l-21,-80 208,-55 21,79 -208,56z" />
<path style="fill:#ccc" d="M620,297 l54,0 0,-54 -54,0 0,54z" />
<path style="fill:none;stroke:#000;stroke-width:2" d="M620,458 l54,0 0,-215 -54,0 0,215" />
<path style="fill:#b2b2b2" d="M586,867 l-21,-80 130,-35 21,80 -130,35z" />
<path style="fill:#e5e5e5" d="M638,852 l-21,-79 26,-7 21,80 -26,6z" />
<path style="fill:none;stroke:#000;stroke-width:2" d="M533,824 l207,-57" />
<path style="fill:none;stroke:#000;stroke-width:2" d="M748,795 l-208,55" />
<path style="fill:none;stroke:#000;stroke-width:2" d="M863,333 l107,0" />
<path style="fill:none;stroke:#000;stroke-width:2" d="M863,368 l107,0" />
<path style="fill:none;stroke:#000;stroke-width:2" d="M836,405 l0,-108" />
<path style="fill:none;stroke:#000;stroke-width:2" d="M548,877 l-22,-80 207,-55 22,79 -207,56" />
<path style="fill:#e5e5e5" d="M607,741 l-41,-94 -134,-108 -54,-81 40,0 40,68 135,107 54,95 -40,13z" />
<path style="fill:#e5e5e5" d="M472,284 l148,0 0,-28 -148,0 0,28z" />
<path style="fill:#e5e5e5" d="M28,284 l188,0 0,-28 -188,0 0,28z" />
<path style="fill:none;stroke:#000;stroke-width:2" d="M28,458 l188,0 0,-215 -188,0 0,215" />
<path style="fill:#999" d="M297,135 l0,81 27,54 0,-81 -27,-54z" />
<path style="fill:#999" d="M243,135 l0,81 -27,54 0,-81 27,-54z" />
<path style="fill:#999" d="M243,566 l0,-81 -27,-54 0,81 27,54z" />
<path style="fill:#999" d="M297,566 l0,-81 27,-54 0,81 -27,54z" />
<path style="fill:none;stroke:#000;stroke-width:2" d="M324,189 l0,323 -27,54 0,108 -54,0 0,-108 -27,-54 0,-323 27,-54 0,-107 54,0 0,107 27,54" />
<path style="fill:#7f7f7f" d="M674,297 l162,0 0,-189 27,0 0,485 -27,0 0,-188 -162,0 0,-108z" />
<path style="fill:#b2b2b2" d="M674,312 l162,0 0,-137 27,0 0,351 -27,0 0,-136 -162,0 0,-78z" />
<path style="fill:#fff" d="M674,333 l162,0 0,-64 27,0 0,162 -27,0 0,-63 -162,0 0,-35z" />
<path style="fill:none;stroke:#000;stroke-width:2" d="M674,297 l162,0 0,-189 27,0 0,485 -27,0 0,-188 -162,0 0,-108" />

</svg>
