 

<svg xmlns:agg="http://www.example.com" xmlns="http://www.w3.org/2000/svg" preserveAspectRatio="none" width="0.9491in" height="1.0750in" viewBox="0 0 882 999">

<path style="fill:#ffff7f;stroke:#000;stroke-width:2" d="M665,571 l-447,0 -29,88 509,0 -33,-88z" />
<path style="fill:#bfbf00" d="M489,571 l-90,0 -7,88 103,0 -6,-88z" />
<path style="fill:#bfbf00" d="M28,722 l167,0 0,238 -167,0 0,-238z" />
<path style="fill:#bfbf00" d="M685,722 l169,0 0,238 -169,0 0,-238z" />
<path style="fill:#7f7f00" d="M28,921 l167,0 0,39 -167,0 0,-39z" />
<path style="fill:#7f7f00" d="M685,921 l169,0 0,39 -169,0 0,-39z" />
<path style="fill:#ffff7f" d="M28,722 l167,0 0,64 -167,0 0,-64z" />
<path style="fill:#ffff7f" d="M685,722 l169,0 0,64 -169,0 0,-64z" />
<path style="fill:none;stroke:#000;stroke-width:2" d="M28,722 l167,0 0,238 -167,0 0,-238" />
<path style="fill:#7f7f00;stroke:#000;stroke-width:2" d="M136,722 l59,0 0,-20 -59,0 0,20z" />
<path style="fill:#7f7f00;stroke:#000;stroke-width:2" d="M745,722 l-60,0 0,-20 60,0 0,20z" />
<path style="fill:#bfbf00;stroke:#000;stroke-width:2" d="M136,573 l86,0 -27,125 -59,0 0,-125z" />
<path style="fill:#bfbf00;stroke:#000;stroke-width:2" d="M745,573 l-86,0 26,125 60,0 0,-125z" />
<path style="fill:#bfbf00;stroke:#000;stroke-width:2" d="M685,702 l-490,0 0,51 490,0 0,-51z" />
<path style="fill:#ffff7f;stroke:#000;stroke-width:2" d="M685,698 l-490,0 0,-39 490,0 0,39z" />
<path style="fill:#bfbf00;stroke:#000;stroke-width:2" d="M636,571 l-391,0 0,-60 391,0 0,60z" />
<path style="fill:#217f21;stroke:#000;stroke-width:2" d="M628,159 l-375,0 0,352 375,0 0,-352z" />
<path style="fill:#217f21;stroke:#000;stroke-width:2" d="M596,159 l-310,0 0,-131 310,0 0,131z" />
<path style="fill:#217f21" d="M614,136 l43,0 0,-86 -43,0 0,86z" />
<path style="fill:#333" d="M614,109 l-18,0 0,-32 18,0 0,32z" />
<path style="fill:#fff" d="M614,72 l43,0 0,-3 -43,0 0,3z" />
<path style="fill:#43a143" d="M614,116 l43,0 0,-2 -43,0 0,2z" />
<path style="fill:#005e00" d="M614,136 l43,0 0,-22 -43,0 0,22z" />
<path style="fill:#e0e0e0;stroke:#000;stroke-width:2" d="M249,634 l-35,0 0,25 35,0 0,-25z" />
<path style="fill:#e0e0e0;stroke:#000;stroke-width:2" d="M280,144 l-21,0 0,15 21,0 0,-15z" />
<path style="fill:#e0e0e0;stroke:#000;stroke-width:2" d="M665,634 l-35,0 0,25 35,0 0,-25z" />
<path style="fill:#e0e0e0;stroke:#000;stroke-width:2" d="M620,144 l-18,0 0,15 18,0 0,-15z" />
<path style="fill:none;stroke:#000;stroke-width:2" d="M685,722 l169,0 0,238 -169,0 0,-238" />
<path style="fill:#7f7f00;stroke:#000;stroke-width:2" d="M685,753 l-490,0 0,173 77,32 102,12 92,-18 72,-26 102,0 45,0 0,-173z" />
<path style="fill:#bfbf00" d="M685,753 l-490,0 0,133 77,33 102,15 92,-21 72,-27 102,-43 45,0 0,-90z" />
<path style="fill:none;stroke:#000;stroke-width:2" d="M685,753 l-490,0 0,173 77,32 102,12 92,-18 72,-26 102,0 45,0 0,-173" />
<path style="fill:#b2b2b2;stroke:#000;stroke-width:2" d="M247,753 l-29,0 0,27 29,0 0,-27z" />
<path style="fill:#b2b2b2;stroke:#000;stroke-width:2" d="M663,753 l-29,0 0,27 29,0 0,-27z" />
<path style="fill:none;stroke:#000;stroke-width:2" d="M251,175 l379,0" />
<path style="fill:none;stroke:#000;stroke-width:2" d="M614,136 l43,0 0,-86 -43,0 0,86" />
<path style="fill:none;stroke:#000;stroke-width:2" d="M269,192 l0,301" />
<path style="fill:none;stroke:#000;stroke-width:2" d="M321,192 l0,301" />
<path style="fill:none;stroke:#000;stroke-width:2" d="M378,192 l0,301" />
<path style="fill:none;stroke:#000;stroke-width:2" d="M444,192 l0,301" />
<path style="fill:none;stroke:#000;stroke-width:2" d="M507,192 l0,301" />
<path style="fill:none;stroke:#000;stroke-width:2" d="M565,192 l0,301" />
<path style="fill:none;stroke:#fff;stroke-width:2" d="M275,192 l0,301" />
<path style="fill:none;stroke:#fff;stroke-width:2" d="M325,192 l0,301" />
<path style="fill:none;stroke:#fff;stroke-width:2" d="M382,192 l0,301" />
<path style="fill:none;stroke:#fff;stroke-width:2" d="M450,192 l0,301" />
<path style="fill:none;stroke:#fff;stroke-width:2" d="M511,192 l0,301" />
<path style="fill:none;stroke:#fff;stroke-width:2" d="M569,192 l0,301" />
<path style="fill:none;stroke:#000;stroke-width:2" d="M286,192 l0,301" />
<path style="fill:none;stroke:#000;stroke-width:2" d="M337,192 l0,301" />
<path style="fill:none;stroke:#000;stroke-width:2" d="M395,192 l0,301" />
<path style="fill:none;stroke:#000;stroke-width:2" d="M460,192 l0,301" />
<path style="fill:none;stroke:#000;stroke-width:2" d="M524,192 l0,301" />
<path style="fill:none;stroke:#000;stroke-width:2" d="M581,192 l0,301" />
<path style="fill:none;stroke:#fff;stroke-width:2" d="M292,192 l0,301" />
<path style="fill:none;stroke:#fff;stroke-width:2" d="M343,192 l0,301" />
<path style="fill:none;stroke:#fff;stroke-width:2" d="M401,192 l0,301" />
<path style="fill:none;stroke:#fff;stroke-width:2" d="M466,192 l0,301" />
<path style="fill:none;stroke:#fff;stroke-width:2" d="M528,192 l0,301" />
<path style="fill:none;stroke:#fff;stroke-width:2" d="M585,192 l0,301" />

</svg>
