 

<svg xmlns:agg="http://www.example.com" xmlns="http://www.w3.org/2000/svg" preserveAspectRatio="none" width="0.5020in" height="1.0750in" viewBox="0 0 466 998">

<path style="fill:#b2b2b2;stroke:#000;stroke-width:2" d="M438,28 l0,737 -82,0 0,-737 82,0z" />
<path style="fill:#d9d9d9;stroke:#000;stroke-width:2" d="M110,970 l328,-205 -82,0 -328,205 82,0z" />
<path style="fill:none;stroke:#000;stroke-width:2" d="M69,970 l328,-410" />
<path style="fill:none;stroke:#000;stroke-width:2" d="M192,899 l205,-257" />
<path style="fill:none;stroke:#000;stroke-width:2" d="M315,827 l82,-103" />
<path style="fill:none;stroke:#000;stroke-width:2" d="M69,888 l328,-409" />
<path style="fill:none;stroke:#000;stroke-width:2" d="M69,806 l328,-409" />
<path style="fill:none;stroke:#000;stroke-width:2" d="M69,724 l328,-409" />
<path style="fill:none;stroke:#000;stroke-width:2" d="M69,642 l328,-409" />
<path style="fill:none;stroke:#000;stroke-width:2" d="M69,560 l328,-409" />
<path style="fill:none;stroke:#000;stroke-width:2" d="M69,479 l328,-410" />
<path style="fill:none;stroke:#000;stroke-width:2" d="M69,397 l278,-349" />
<path style="fill:none;stroke:#000;stroke-width:2" d="M69,315 l164,-205" />
<path style="fill:none;stroke:#000;stroke-width:2" d="M397,765 l-328,-143" />
<path style="fill:none;stroke:#000;stroke-width:2" d="M397,683 l-328,-143" />
<path style="fill:none;stroke:#000;stroke-width:2" d="M397,601 l-328,-143" />
<path style="fill:none;stroke:#000;stroke-width:2" d="M397,519 l-328,-143" />
<path style="fill:none;stroke:#000;stroke-width:2" d="M397,438 l-328,-144" />
<path style="fill:none;stroke:#000;stroke-width:2" d="M397,356 l-328,-144" />
<path style="fill:none;stroke:#000;stroke-width:2" d="M397,274 l-267,-117" />
<path style="fill:none;stroke:#000;stroke-width:2" d="M397,192 l-185,-81" />
<path style="fill:none;stroke:#000;stroke-width:2" d="M397,110 l-94,-41" />
<path style="fill:none;stroke:#000;stroke-width:2" d="M335,820 l-266,-116" />
<path style="fill:none;stroke:#000;stroke-width:2" d="M253,866 l-184,-80" />
<path style="fill:none;stroke:#000;stroke-width:2" d="M162,909 l-93,-41" />
<path style="fill:#e5e5e5;stroke:#000;stroke-width:2" d="M110,192 l328,-164 -82,0 -328,164 82,0z" />
<path style="fill:#ccc;stroke:#000;stroke-width:2" d="M110,192 l0,778 -82,0 0,-778 82,0z" />

</svg>
