

<svg xmlns:agg="http://www.example.com" xmlns="http://www.w3.org/2000/svg" preserveAspectRatio="none" width="1.4821in" height="1.4792in" viewBox="0 0 999 997">

<path style="fill:#7f7f7f" d="M459,106 l80,0 0,270 -80,0 0,-270z" />
<path style="fill:#b2b2b2" d="M474,106 l50,0 0,270 -50,0 0,-270z" />
<path style="fill:#e5e5e5" d="M493,106 l12,0 0,270 -12,0 0,-270z" />
<path style="fill:none;stroke:#000;stroke-width:2" d="M459,106 l80,0 0,270 -80,0 0,-270" />
<path style="fill:#009" d="M197,552 l602,0 0,314 -602,0 0,-314z" />
<path style="fill:#0000ba" d="M198,597 l602,0 0,222 -602,0 0,-222z" />
<path style="fill:#0000de" d="M198,643 l602,0 0,130 -602,0 0,-130z" />
<path style="fill:#00f" d="M197,689 l602,0 0,38 -602,0 0,-38z" />
<path style="fill:none;stroke:#000;stroke-width:2" d="M197,866 l602,0" />
<path style="fill:none;stroke:#000;stroke-width:2" d="M799,552 l-602,0" />
<path style="fill:#009" d="M945,444 l-148,0 0,524 148,0 0,-524z" />
<path style="fill:none;stroke:#000;stroke-width:2" d="M945,444 l-74,0 0,524 74,0 0,-524" />
<path style="fill:#006" d="M347,524 l0,32 7,26 22,21 31,15 24,8 28,4 28,3 29,0 29,-3 27,-4 25,-8 31,-15 21,-21 8,-26 0,-32 -310,0z" />
<path style="fill:#000078" d="M387,524 l0,32 1,9 2,8 3,9 4,7 6,7 6,6 7,6 8,5 8,4 9,4 9,4 10,2 11,2 10,2 11,1 11,0 10,0 11,-1 10,-2 11,-2 10,-2 9,-4 9,-4 9,-4 7,-5 7,-6 7,-6 5,-7 4,-7 3,-9 2,-8 1,-9 0,-32 -231,0z" />
<path style="fill:#000087" d="M428,524 l0,32 1,17 5,16 8,13 9,11 12,8 12,6 14,4 14,1 14,-1 13,-4 13,-6 11,-8 10,-11 7,-13 5,-16 2,-17 0,-32 -150,0z" />
<path style="fill:#009" d="M467,524 l0,32 1,18 2,16 3,13 5,11 5,8 6,6 6,4 7,1 6,-1 7,-4 6,-6 5,-8 4,-11 4,-13 2,-16 1,-18 0,-32 -70,0z" />
<path style="fill:none;stroke:#000;stroke-width:2" d="M347,524 l0,32 7,26 22,21 31,15 24,8 28,4 28,3 29,0 29,-3 27,-4 25,-8 31,-15 21,-21 8,-26 0,-32 -310,0" />
<path style="fill:#009" d="M239,376 l0,148 524,0 0,-148 -524,0z" />
<path style="fill:#0000ba" d="M316,376 l0,147 370,0 0,-147 -370,0z" />
<path style="fill:#0000de" d="M393,376 l0,147 216,0 0,-147 -216,0z" />
<path style="fill:#00f" d="M469,376 l0,148 64,0 0,-148 -64,0z" />
<path style="fill:none;stroke:#000;stroke-width:2" d="M239,376 l0,74 524,0 0,-74 -524,0" />
<path style="fill:none;stroke:#000;stroke-width:2" d="M239,450 l0,74 524,0 0,-74 -524,0" />
<path style="fill:#000" d="M121,28 l756,0 0,78 -756,0 0,-78z" />
<path style="fill:#7f7f7f" d="M121,43 l756,0 0,49 -756,0 0,-49z" />
<path style="fill:#ccc" d="M121,60 l756,0 0,15 -756,0 0,-15z" />
<path style="fill:#595959" d="M229,28 l540,0 0,78 -540,0 0,-78z" />
<path style="fill:#a6a6a6" d="M229,43 l540,0 0,49 -540,0 0,-49z" />
<path style="fill:#e5e5e5" d="M229,60 l540,0 0,15 -540,0 0,-15z" />
<path style="fill:#8c8c8c" d="M372,28 l254,0 0,78 -254,0 0,-78z" />
<path style="fill:#ccc" d="M372,43 l254,0 0,49 -254,0 0,-49z" />
<path style="fill:#fff" d="M372,60 l254,0 0,15 -254,0 0,-15z" />
<path style="fill:none;stroke:#000;stroke-width:2" d="M121,28 l756,0 0,78 -756,0 0,-78" />
<path style="fill:#009;stroke:#000;stroke-width:2" d="M381,376 l0,-230 236,0 0,230 -34,0 0,-196 -168,0 0,196 -34,0z" />
<path style="fill:#009" d="M199,444 l-146,0 0,524 146,0 0,-524z" />
<path style="fill:#009" d="M945,862 l25,10 0,64 -25,9 0,-83z" />
<path style="fill:#009" d="M797,862 l-22,10 0,64 22,9 0,-83z" />
<path style="fill:#009;stroke:#000;stroke-width:2" d="M797,666 l-22,10 0,64 22,10 0,-84z" />
<path style="fill:#009" d="M945,666 l25,10 0,64 -25,10 0,-84z" />
<path style="fill:#009" d="M945,469 l25,11 0,63 -25,9 0,-83z" />
<path style="fill:#009;stroke:#000;stroke-width:2" d="M797,469 l-22,11 0,63 22,9 0,-83z" />
<path style="fill:#00c" d="M946,874 l24,7 0,45 -24,7 0,-59z" />
<path style="fill:#00c" d="M798,874 l-25,7 0,45 25,7 0,-59z" />
<path style="fill:#00c" d="M798,677 l-25,7 0,46 25,6 0,-59z" />
<path style="fill:#00c" d="M946,677 l24,7 0,46 -24,6 0,-59z" />
<path style="fill:#00c" d="M946,481 l24,7 0,45 -24,7 0,-59z" />
<path style="fill:#00c" d="M798,481 l-25,7 0,45 25,7 0,-59z" />
<path style="fill:#00f" d="M945,493 l25,4 0,27 -25,4 0,-35z" />
<path style="fill:#00f" d="M797,493 l-22,4 0,27 22,4 0,-35z" />
<path style="fill:#00f" d="M797,691 l-22,4 0,26 22,4 0,-34z" />
<path style="fill:#00f" d="M945,691 l25,4 0,26 -25,4 0,-34z" />
<path style="fill:#00f" d="M945,887 l25,3 0,27 -25,4 0,-34z" />
<path style="fill:#00f" d="M797,887 l-22,3 0,27 22,4 0,-34z" />
<path style="fill:#0000ba" d="M946,522 l-148,0 0,370 148,0 0,-370z" />
<path style="fill:#0000de" d="M946,599 l-148,0 0,217 148,0 0,-217z" />
<path style="fill:#00f" d="M945,676 l-148,0 0,64 148,0 0,-64z" />
<path style="fill:none;stroke:#000;stroke-width:2" d="M797,862 l-22,10 0,64 22,9 0,-83" />
<path style="fill:none;stroke:#000;stroke-width:2" d="M945,666 l25,10 0,64 -25,10 0,-84" />
<path style="fill:none;stroke:#000;stroke-width:2" d="M945,469 l25,11 0,63 -25,9 0,-83" />
<path style="fill:none;stroke:#000;stroke-width:2" d="M945,862 l25,10 0,64 -25,9 0,-83" />
<path style="fill:none;stroke:#000;stroke-width:2" d="M871,444 l-74,0 0,524 74,0 0,-524" />
<path style="fill:#009" d="M201,862 l24,10 0,64 -24,9 0,-83z" />
<path style="fill:#009;stroke:#000;stroke-width:2" d="M53,862 l-25,10 0,64 25,9 0,-83z" />
<path style="fill:#009" d="M53,666 l-25,10 0,64 25,10 0,-84z" />
<path style="fill:#009;stroke:#000;stroke-width:2" d="M201,666 l24,10 0,64 -24,10 0,-84z" />
<path style="fill:#009" d="M201,469 l24,11 0,63 -24,9 0,-83z" />
<path style="fill:#009" d="M53,469 l-25,11 0,63 25,9 0,-83z" />
<path style="fill:#00c" d="M201,874 l24,7 0,45 -24,7 0,-59z" />
<path style="fill:#00c" d="M53,874 l-25,7 0,45 25,7 0,-59z" />
<path style="fill:#00c" d="M53,678 l-10,2 -9,3 -6,2 0,44 9,3 9,3 7,1 0,-58z" />
<path style="fill:#00c" d="M201,677 l24,7 0,46 -24,6 0,-59z" />
<path style="fill:#00c" d="M201,481 l24,7 0,45 -24,7 0,-59z" />
<path style="fill:#00c" d="M53,482 l-10,2 -9,2 -6,2 0,45 9,2 9,3 7,3 0,-59z" />
<path style="fill:#00f" d="M201,887 l24,3 0,27 -24,4 0,-34z" />
<path style="fill:#00f" d="M53,887 l-25,3 0,27 25,4 0,-34z" />
<path style="fill:#00f" d="M53,691 l-25,4 0,26 25,4 0,-34z" />
<path style="fill:#00f" d="M201,691 l24,4 0,26 -24,4 0,-34z" />
<path style="fill:#00f" d="M201,493 l24,4 0,27 -24,4 0,-35z" />
<path style="fill:#00f" d="M53,493 l-25,4 0,27 25,4 0,-35z" />
<path style="fill:#0000ba" d="M200,522 l-147,0 0,370 147,0 0,-370z" />
<path style="fill:#0000de" d="M200,599 l-147,0 0,217 147,0 0,-217z" />
<path style="fill:#00f" d="M201,676 l-148,0 0,64 148,0 0,-64z" />
<path style="fill:none;stroke:#000;stroke-width:2" d="M201,862 l24,10 0,64 -24,9 0,-83" />
<path style="fill:none;stroke:#000;stroke-width:2" d="M53,666 l-25,10 0,64 25,10 0,-84" />
<path style="fill:none;stroke:#000;stroke-width:2" d="M201,469 l24,11 0,63 -24,9 0,-83" />
<path style="fill:none;stroke:#000;stroke-width:2" d="M53,469 l-25,11 0,63 25,9 0,-83" />
<path style="fill:none;stroke:#000;stroke-width:2" d="M199,444 l-72,0 0,524 72,0 0,-524" />
<path style="fill:none;stroke:#000;stroke-width:2" d="M127,444 l-74,0 0,524 74,0 0,-524" />

</svg>
