

<svg xmlns:agg="http://www.example.com" xmlns="http://www.w3.org/2000/svg" preserveAspectRatio="none" width="1.0210in" height="1.4792in" viewBox="0 0 361 523">

<path style="fill:#7f7f7f" d="M70,246 l227,0 0,33 -227,0 0,-33z" />
<path style="fill:#b2b2b2" d="M70,249 l227,0 0,27 -227,0 0,-27z" />
<path style="fill:#e5e5e5" d="M70,253 l227,0 0,18 -227,0 0,-18z" />
<path style="fill:#fff" d="M70,259 l227,0 0,6 -227,0 0,-6z" />
<path style="fill:none;stroke:#000;stroke-width:2" d="M70,279 l227,0" />
<path style="fill:none;stroke:#000;stroke-width:2" d="M297,246 l-227,0" />
<path style="fill:#7f7f7f" d="M200,145 l0,283 -33,0 0,-283 33,0z" />
<path style="fill:#b2b2b2" d="M197,145 l0,283 -27,0 0,-283 27,0z" />
<path style="fill:#e5e5e5" d="M193,145 l0,283 -19,0 0,-283 19,0z" />
<path style="fill:#fff" d="M186,145 l0,283 -6,0 0,-283 6,0z" />
<path style="fill:none;stroke:#000;stroke-width:2" d="M167,145 l0,283" />
<path style="fill:none;stroke:#000;stroke-width:2" d="M200,428 l0,-283" />
<path style="fill:#7f7f7f" d="M201,229 l0,16 16,0 0,33 -16,0 0,17 -33,0 0,-17 -17,0 0,-33 17,0 0,-16 33,0z" />
<path style="fill:#b2b2b2" d="M197,229 l0,20 20,0 0,26 -20,0 0,20 -26,0 0,-20 -20,0 0,-26 20,0 0,-20 26,0z" />
<path style="fill:#e5e5e5" d="M193,229 l0,24 24,0 0,18 -24,0 0,24 -18,0 0,-24 -24,0 0,-18 24,0 0,-24 18,0z" />
<path style="fill:#fff" d="M187,229 l0,30 30,0 0,6 -30,0 0,30 -6,0 0,-30 -30,0 0,-6 30,0 0,-30 6,0z" />
<path style="fill:none;stroke:#000;stroke-width:2" d="M201,229 l0,17 16,0" />
<path style="fill:none;stroke:#000;stroke-width:2" d="M217,279 l-16,0 0,16" />
<path style="fill:none;stroke:#000;stroke-width:2" d="M168,295 l0,-16 -17,0" />
<path style="fill:none;stroke:#000;stroke-width:2" d="M151,246 l17,0 0,-17" />
<path style="fill:#7f7f7f" d="M70,192 l227,0 0,33 -227,0 0,-33z" />
<path style="fill:#b2b2b2" d="M70,195 l227,0 0,27 -227,0 0,-27z" />
<path style="fill:#e5e5e5" d="M70,199 l227,0 0,18 -227,0 0,-18z" />
<path style="fill:#fff" d="M70,205 l227,0 0,6 -227,0 0,-6z" />
<path style="fill:none;stroke:#000;stroke-width:2" d="M70,225 l227,0" />
<path style="fill:none;stroke:#000;stroke-width:2" d="M297,192 l-227,0" />
<path style="fill:#7f7f7f" d="M201,175 l0,16 16,0 0,33 -16,0 0,17 -33,0 0,-17 -17,0 0,-33 17,0 0,-16 33,0z" />
<path style="fill:#b2b2b2" d="M197,175 l0,20 20,0 0,26 -20,0 0,20 -26,0 0,-20 -20,0 0,-26 20,0 0,-20 26,0z" />
<path style="fill:#e5e5e5" d="M193,175 l0,24 24,0 0,18 -24,0 0,24 -18,0 0,-24 -24,0 0,-18 24,0 0,-24 18,0z" />
<path style="fill:#fff" d="M187,175 l0,30 30,0 0,6 -30,0 0,30 -6,0 0,-30 -30,0 0,-6 30,0 0,-30 6,0z" />
<path style="fill:none;stroke:#000;stroke-width:2" d="M201,175 l0,16 16,0" />
<path style="fill:none;stroke:#000;stroke-width:2" d="M217,224 l-16,0 0,17" />
<path style="fill:none;stroke:#000;stroke-width:2" d="M168,241 l0,-17 -17,0" />
<path style="fill:none;stroke:#000;stroke-width:2" d="M151,191 l17,0 0,-16" />
<path style="fill:#7f7f7f" d="M180,149 l-135,0 3,-27 8,-25 12,-23 17,-20 20,-17 23,-12 25,-8 27,-3 27,3 26,8 23,12 20,17 17,20 12,23 8,25 3,27 -136,0z" />
<path style="fill:#999" d="M180,149 l-122,0 2,-27 8,-25 11,-23 15,-20 18,-17 21,-12 23,-8 24,-3 25,3 23,8 21,12 18,17 15,20 11,23 8,25 2,27 -123,0z" />
<path style="fill:#b2b2b2" d="M180,150 l-97,0 2,-27 6,-26 9,-23 12,-20 14,-17 16,-12 19,-8 19,-3 20,3 18,8 17,12 14,17 12,20 9,23 6,26 2,27 -98,0z" />
<path style="fill:#ccc" d="M180,149 l-71,0 1,-27 5,-25 6,-23 9,-20 10,-17 12,-12 14,-8 14,-3 15,3 13,8 12,12 11,17 9,20 6,23 5,25 1,27 -72,0z" />
<path style="fill:#e5e5e5" d="M181,149 l-47,0 1,-27 3,-25 4,-23 6,-20 7,-17 8,-12 9,-8 9,-3 9,3 9,8 8,12 6,17 6,20 4,23 3,25 1,27 -46,0z" />
<path style="fill:none;stroke:#000;stroke-width:2" d="M180,149 l-135,0 3,-27 8,-25 12,-23 17,-20 20,-17 23,-12 25,-8 27,-3 27,3 26,8 23,12 20,17 17,20 12,23 8,25 3,27 -136,0" />
<path style="fill:#fff" d="M180,149 l-12,0 0,-27 1,-25 1,-23 1,-20 2,-17 2,-12 2,-8 3,-3 3,3 2,8 3,12 2,17 1,20 1,23 1,25 0,27 -13,0z" />
<path style="fill:#7f7f7f" d="M14,509 l0,-166 333,166 0,-166 -333,166z" />
<path style="fill:#999" d="M14,501 l0,-150 333,150 0,-150 -333,150z" />
<path style="fill:#b2b2b2" d="M14,484 l0,-116 333,116 0,-116 -333,116z" />
<path style="fill:#ccc" d="M14,467 l0,-82 333,82 0,-82 -333,82z" />
<path style="fill:#e5e5e5" d="M14,454 l0,-56 333,56 0,-56 -333,56z" />
<path style="fill:#fff" d="M14,437 l0,-22 333,22 0,-22 -333,22z" />
<path style="fill:none;stroke:#000;stroke-width:2" d="M14,509 l0,-166 333,166 0,-166 -333,166" />

</svg>
