

<svg xmlns:agg="http://www.example.com" xmlns="http://www.w3.org/2000/svg" preserveAspectRatio="none" width="1.9861in" height="1.4792in" viewBox="0 0 999 744">

<path style="fill:#263a59;stroke:#000;stroke-width:2" d="M396,525 l29,-30 0,-44 79,74 -108,0z" />
<path style="fill:none;stroke:#000;stroke-width:2" d="M204,152 l28,-27 -97,-97 -28,27 97,97" />
<path style="fill:#666" d="M183,118 l14,-14 28,28 -14,14 -28,-28z" />
<path style="fill:#405473;stroke:#000;stroke-width:2" d="M146,480 l0,236 157,0 0,-39 392,0 0,39 157,0 0,-236 -157,0 0,40 -392,0 0,-40 -157,0z" />
<path style="fill:#596d8c" d="M146,503 l0,190 157,0 0,-31 392,0 0,31 157,0 0,-190 -157,0 0,32 -392,0 0,-32 -157,0z" />
<path style="fill:#7387a6" d="M146,534 l0,129 157,0 0,-22 392,0 0,22 157,0 0,-129 -157,0 0,22 -392,0 0,-22 -157,0z" />
<path style="fill:#8ca0bf" d="M146,566 l0,65 157,0 0,-11 392,0 0,11 157,0 0,-65 -157,0 0,11 -392,0 0,-11 -157,0z" />
<path style="fill:#a6bad9" d="M146,590 l0,17 157,0 0,-3 392,0 0,3 157,0 0,-17 -157,0 0,3 -392,0 0,-3 -157,0z" />
<path style="fill:#666;stroke:#000;stroke-width:2" d="M852,517 l118,0 0,162 -118,0 0,-162z" />
<path style="fill:#666;stroke:#000;stroke-width:2" d="M28,517 l118,0 0,162 -118,0 0,-162z" />
<path style="fill:#7f7f7f" d="M852,533 l118,0 0,131 -118,0 0,-131z" />
<path style="fill:#7f7f7f" d="M28,533 l118,0 0,131 -118,0 0,-131z" />
<path style="fill:#999" d="M852,553 l118,0 0,90 -118,0 0,-90z" />
<path style="fill:#999" d="M28,553 l118,0 0,90 -118,0 0,-90z" />
<path style="fill:#b2b2b2" d="M852,575 l118,0 0,47 -118,0 0,-47z" />
<path style="fill:#b2b2b2" d="M28,575 l118,0 0,47 -118,0 0,-47z" />
<path style="fill:#ccc" d="M852,593 l118,0 0,11 -118,0 0,-11z" />
<path style="fill:#ccc" d="M28,593 l118,0 0,11 -118,0 0,-11z" />
<path style="fill:none;stroke:#000;stroke-width:2" d="M303,677 l0,-157" />
<path style="fill:none;stroke:#000;stroke-width:2" d="M695,520 l0,157" />
<path style="fill:#263a59;stroke:#000;stroke-width:2" d="M322,687 l40,0 0,29 -40,0 0,-29z" />
<path style="fill:#263a59;stroke:#000;stroke-width:2" d="M381,687 l39,0 0,29 -39,0 0,-29z" />
<path style="fill:#263a59;stroke:#000;stroke-width:2" d="M637,687 l39,0 0,29 -39,0 0,-29z" />
<path style="fill:#263a59;stroke:#000;stroke-width:2" d="M617,687 l-39,0 0,29 39,0 0,-29z" />
<path style="fill:#8ca0bf;stroke:#000;stroke-width:2" d="M337,638 l10,0 0,49 -10,0 0,-49z" />
<path style="fill:#8ca0bf;stroke:#000;stroke-width:2" d="M396,638 l10,0 0,49 -10,0 0,-49z" />
<path style="fill:#8ca0bf;stroke:#000;stroke-width:2" d="M593,638 l9,0 0,49 -9,0 0,-49z" />
<path style="fill:#8ca0bf;stroke:#000;stroke-width:2" d="M651,638 l10,0 0,49 -10,0 0,-49z" />
<path style="fill:#405473" d="M505,535 l190,0 1,-29 -243,-242 70,-70 -97,-97 -70,70 -111,-56 -55,56 55,111 -69,69 97,97 69,-69 163,160z" />
<path style="fill:#596d8c" d="M540,546 l154,-1 1,-15 -254,-254 54,-54 -97,-97 -54,54 -105,-62 -43,44 62,104 -54,54 97,97 54,-54 185,184z" />
<path style="fill:#7387a6" d="M571,556 l122,-1 -264,-266 38,-39 -97,-97 -38,38 -99,-67 -31,31 68,98 -38,38 97,97 38,-38 204,206z" />
<path style="fill:#8ca0bf" d="M621,577 l70,-1 -275,-275 23,-23 -97,-97 -23,23 -92,-74 -19,18 74,93 -23,23 97,97 23,-23 242,239z" />
<path style="fill:#a6bad9" d="M665,593 l21,0 -282,-280 8,-8 -97,-97 -8,8 -86,-80 -6,6 80,86 -8,8 97,97 8,-8 273,268z" />
<path style="fill:none;stroke:#000;stroke-width:2" d="M695,505 l-242,-241 70,-70 -97,-97 -70,70 -111,-56 -55,56 55,111 -69,69 97,97 69,-69 147,145" />
<path style="fill:none;stroke:#000;stroke-width:2" d="M217,306 l97,97" />
<path style="fill:none;stroke:#000;stroke-width:2" d="M259,264 l97,97" />
<path style="fill:none;stroke:#000;stroke-width:2" d="M301,222 l97,97" />
<path style="fill:none;stroke:#000;stroke-width:2" d="M343,180 l97,98" />
<path style="fill:none;stroke:#000;stroke-width:2" d="M384,139 l97,97" />
<path style="fill:none;stroke:#000;stroke-width:2" d="M245,278 l111,-111" />
<path style="fill:none;stroke:#000;stroke-width:2" d="M453,264 l-111,111" />
<path style="fill:none;stroke:#fff;stroke-width:2" d="M211,125 l-31,-32" />
<path style="fill:none;stroke:#fff;stroke-width:2" d="M195,117 l-32,-31" />
<path style="fill:none;stroke:#263a59;stroke-width:2" d="M411,446 l113,-113" />

</svg>
