 

<svg xmlns:agg="http://www.example.com" xmlns="http://www.w3.org/2000/svg" preserveAspectRatio="none" width="1.1083in" height="1.0750in" viewBox="0 0 999 969">

<path style="fill:#e5e5e5;stroke:#000;stroke-width:2" d="M803,636 l-608,0 0,305 608,0 0,-305z" />
<path style="fill:none;stroke:#000;stroke-width:2" d="M742,636 l0,304" />
<path style="fill:#000;stroke:#000;stroke-width:2" d="M803,636 l0,-593 -15,-15 -274,0 -15,15 0,593 304,0z" />
<path style="fill:#7f7f7f;stroke:#000;stroke-width:2" d="M195,894 l-46,0 0,-30 46,0 0,30z" />
<path style="fill:#e5e5e5;stroke:#000;stroke-width:2" d="M195,863 l-46,0 0,-60 46,0 0,60z" />
<path style="fill:#fff;stroke:#000;stroke-width:2" d="M195,803 l-46,0 0,-31 46,0 0,31z" />
<path style="fill:#7f7f7f;stroke:#000;stroke-width:2" d="M104,894 l-61,0 0,-30 61,0 0,30z" />
<path style="fill:#e5e5e5;stroke:#000;stroke-width:2" d="M104,863 l-61,0 0,-60 61,0 0,60z" />
<path style="fill:#fff;stroke:#000;stroke-width:2" d="M104,803 l-61,0 0,-31 61,0 0,31z" />
<path style="fill:#e5e5e5;stroke:#000;stroke-width:2" d="M43,796 l-15,0 0,75 15,0 0,-75z" />
<path style="fill:#e5e5e5;stroke:#000;stroke-width:2" d="M149,796 l-45,0 0,75 45,0 0,-75z" />
<path style="fill:none;stroke:#000;stroke-width:2" d="M142,879 l7,-92" />
<path style="fill:none;stroke:#000;stroke-width:2" d="M134,879 l8,-92" />
<path style="fill:none;stroke:#000;stroke-width:2" d="M126,879 l8,-92" />
<path style="fill:none;stroke:#000;stroke-width:2" d="M119,879 l7,-92" />
<path style="fill:none;stroke:#000;stroke-width:2" d="M111,879 l8,-92" />
<path style="fill:none;stroke:#000;stroke-width:2" d="M104,879 l7,-92" />
<path style="fill:none;stroke:#000;stroke-width:2" d="M35,879 l8,-92" />
<path style="fill:none;stroke:#000;stroke-width:2" d="M35,787 l-7,92" />
<path style="fill:#7f7f7f;stroke:#000;stroke-width:2" d="M803,894 l46,0 0,-30 -46,0 0,30z" />
<path style="fill:#e5e5e5;stroke:#000;stroke-width:2" d="M803,863 l46,0 0,-60 -46,0 0,60z" />
<path style="fill:#fff;stroke:#000;stroke-width:2" d="M803,803 l46,0 0,-31 -46,0 0,31z" />
<path style="fill:#7f7f7f;stroke:#000;stroke-width:2" d="M894,894 l61,0 0,-30 -61,0 0,30z" />
<path style="fill:#e5e5e5;stroke:#000;stroke-width:2" d="M894,863 l61,0 0,-60 -61,0 0,60z" />
<path style="fill:#fff;stroke:#000;stroke-width:2" d="M894,803 l61,0 0,-31 -61,0 0,31z" />
<path style="fill:#e5e5e5;stroke:#000;stroke-width:2" d="M955,871 l15,0 0,-75 -15,0 0,75z" />
<path style="fill:#e5e5e5;stroke:#000;stroke-width:2" d="M849,796 l45,0 0,75 -45,0 0,-75z" />
<path style="fill:none;stroke:#000;stroke-width:2" d="M856,787 l-7,92" />
<path style="fill:none;stroke:#000;stroke-width:2" d="M864,787 l-8,92" />
<path style="fill:none;stroke:#000;stroke-width:2" d="M872,787 l-8,92" />
<path style="fill:none;stroke:#000;stroke-width:2" d="M879,787 l-7,92" />
<path style="fill:none;stroke:#000;stroke-width:2" d="M887,787 l-8,92" />
<path style="fill:none;stroke:#000;stroke-width:2" d="M894,787 l-7,92" />
<path style="fill:none;stroke:#000;stroke-width:2" d="M963,787 l-8,92" />
<path style="fill:none;stroke:#000;stroke-width:2" d="M963,879 l7,-92" />
<path style="fill:#000;stroke:#000;stroke-width:2" d="M446,636 l-243,0 0,-244 243,0 0,244z" />
<path style="fill:#e5e5e5;stroke:#000;stroke-width:2" d="M286,332 l-53,0 0,60 53,0 0,-60z" />
<path style="fill:#7f7f7f;stroke:#000;stroke-width:2" d="M415,332 l-23,0 0,60 23,0 0,-60z" />
<path style="fill:#ccc;stroke:#000;stroke-width:2" d="M392,332 l-106,0 0,60 106,0 0,-60z" />
<path style="fill:#000;stroke:#000;stroke-width:2" d="M267,590 l21,19 26,15 27,9 15,2 7,1 7,0 27,-3 25,-8 23,-12 28,-25 14,-22 10,-24 5,-25 -1,-33 -8,-30 -11,-23 -16,-20 -17,-19 -6,-26 10,-32 25,-20 26,-5 22,8 11,-14 -4,-2 -23,-8 -5,0 -5,0 -28,6 -24,15 -15,24 -6,28 7,31 21,25 17,23 10,25 5,28 -2,29 -12,32 -20,27 -27,20 -32,12 -30,2 -31,-5 -28,-12 -22,-20 -16,7z" />
<path style="fill:#000;stroke:#000;stroke-width:2" d="M499,285 l-15,0 0,38 15,0 0,-38z" />
<path style="fill:#7f7f7f;stroke:#000;stroke-width:2" d="M438,574 l-15,0 0,23 15,0 0,-23z" />
<path style="fill:#b2b2b2;stroke:#000;stroke-width:2" d="M423,574 l-23,0 0,23 23,0 0,-23z" />
<path style="fill:#e5e5e5;stroke:#000;stroke-width:2" d="M400,574 l-15,0 0,23 15,0 0,-23z" />
<path style="fill:#7f7f7f;stroke:#000;stroke-width:2" d="M264,574 l-16,0 0,23 16,0 0,-23z" />
<path style="fill:#b2b2b2;stroke:#000;stroke-width:2" d="M248,574 l-23,0 0,23 23,0 0,-23z" />
<path style="fill:#e5e5e5;stroke:#000;stroke-width:2" d="M225,574 l-15,0 0,23 15,0 0,-23z" />
<path style="fill:#4c4c4c;stroke:#000;stroke-width:2" d="M429,597 l-37,0 0,7 37,0 0,-7z" />
<path style="fill:#4c4c4c;stroke:#000;stroke-width:2" d="M256,597 l-38,0 0,7 38,0 0,-7z" />
<path style="fill:none;stroke:#7f7f7f;stroke-width:2" d="M438,604 l-228,0" />
<path style="fill:#000;stroke:#000;stroke-width:2" d="M499,58 l-15,0 0,23 15,0 0,-23z" />
<path style="fill:#000;stroke:#000;stroke-width:2" d="M499,217 l-15,0 0,23 15,0 0,-23z" />
<path style="fill:#000;stroke:#000;stroke-width:2" d="M499,88 l-15,0 0,122 15,0 0,-122z" />
<path style="fill:none;stroke:#7f7f7f;stroke-width:2" d="M499,58 l0,182" />
<path style="fill:none;stroke:#7f7f7f;stroke-width:2" d="M643,571 l0,-12 -11,0" />
<path style="fill:none;stroke:#7f7f7f;stroke-width:2" d="M632,565 l11,0" />
<path style="fill:none;stroke:#7f7f7f;stroke-width:2" d="M627,559 l0,12 -12,-1" />
<path style="fill:none;stroke:#7f7f7f;stroke-width:2" d="M609,571 l0,-12 -11,0 0,12 11,0" />
<path style="fill:none;stroke:#7f7f7f;stroke-width:2" d="M592,559 l0,12 -11,-1 0,-11" />
<path style="fill:none;stroke:#7f7f7f;stroke-width:2" d="M587,571 l0,-12" />
<path style="fill:none;stroke:#7f7f7f;stroke-width:2" d="M667,582 l-109,0" />
<path style="fill:none;stroke:#7f7f7f;stroke-width:2" d="M667,588 l-109,0" />
<path style="fill:none;stroke:#7f7f7f;stroke-width:2" d="M667,543 l-109,0" />
<path style="fill:none;stroke:#7f7f7f;stroke-width:2" d="M667,549 l-109,0" />
<path style="fill:none;stroke:#7f7f7f;stroke-width:2" d="M564,605 l-29,-40 29,-40" />
<path style="fill:none;stroke:#7f7f7f;stroke-width:2" d="M558,605 l-29,-40 29,-40" />

</svg>
