

<svg xmlns:agg="http://www.example.com" xmlns="http://www.w3.org/2000/svg" preserveAspectRatio="none" width="1.6402in" height="1.4792in" viewBox="0 0 998 900">

<path style="fill:#657fb2" d="M28,499 l117,0 0,-58 706,0 0,58 119,0 0,315 -119,0 0,58 -706,0 0,-58 -117,0 0,-315z" />
<path style="fill:#6b85b8" d="M28,514 l119,0 0,-55 706,0 0,55 117,0 0,285 -117,0 0,52 -706,0 0,-52 -119,0 0,-285z" />
<path style="fill:#708abd" d="M28,527 l119,0 0,-47 706,0 0,47 117,0 0,257 -117,0 0,49 -706,0 0,-49 -119,0 0,-257z" />
<path style="fill:#758fc2" d="M28,542 l119,0 0,-43 706,0 0,43 117,0 0,228 -117,0 0,44 -706,0 0,-44 -119,0 0,-228z" />
<path style="fill:#7a94c7" d="M28,556 l119,0 0,-38 706,0 0,38 117,0 0,199 -117,0 0,38 -706,0 0,-38 -119,0 0,-199z" />
<path style="fill:#7f99cc" d="M28,571 l119,0 0,-32 706,0 0,32 117,0 0,171 -117,0 0,32 -706,0 0,-32 -119,0 0,-171z" />
<path style="fill:#849ed1" d="M28,584 l119,0 0,-27 706,0 0,27 117,0 0,143 -117,0 0,26 -706,0 0,-26 -119,0 0,-143z" />
<path style="fill:#89a3d6" d="M28,599 l119,0 0,-21 706,0 0,21 117,0 0,115 -117,0 0,21 -706,0 0,-21 -119,0 0,-115z" />
<path style="fill:#8ea8db" d="M28,614 l119,0 0,-17 706,0 0,17 117,0 0,85 -117,0 0,15 -706,0 0,-15 -119,0 0,-85z" />
<path style="fill:#93ade0" d="M28,627 l119,0 0,-9 706,0 0,9 117,0 0,57 -117,0 0,11 -706,0 0,-11 -119,0 0,-57z" />
<path style="fill:#98b2e5" d="M28,642 l117,0 0,-5 706,0 0,5 119,0 0,29 -119,0 0,5 -706,0 0,-5 -117,0 0,-29z" />
<path style="fill:none;stroke:#000;stroke-width:2" d="M145,814 l0,-315" />
<path style="fill:none;stroke:#000;stroke-width:2" d="M851,814 l0,-315" />
<path style="fill:#657fb2" d="M655,441 l0,15 -9,30 -21,26 -30,23 -36,15 -39,7 -42,0 -39,-7 -36,-15 -30,-23 -21,-26 -9,-30 0,-15 0,-196 77,0 0,-217 158,0 0,217 77,0 0,196z" />
<path style="fill:#6b85b8" d="M642,452 l0,15 -9,26 -19,25 -26,19 -34,13 -36,7 -38,0 -36,-7 -32,-13 -28,-19 -19,-25 -9,-26 0,-15 0,-207 71,0 0,-217 144,0 0,217 71,0 0,207z" />
<path style="fill:#708abd" d="M629,463 l0,13 -9,25 -17,21 -25,17 -28,13 -34,5 -34,0 -32,-5 -30,-13 -25,-17 -17,-21 -9,-25 0,-13 0,-218 66,0 0,-217 128,0 0,217 66,0 0,218z" />
<path style="fill:#758fc2" d="M616,476 l0,10 -10,22 -15,17 -20,17 -27,10 -30,5 -30,0 -30,-5 -27,-10 -20,-17 -15,-17 -8,-22 0,-10 0,-231 57,0 0,-217 116,0 0,217 59,0 0,231z" />
<path style="fill:#7a94c7" d="M601,488 l0,9 -6,17 -15,17 -19,13 -22,10 -27,3 -26,0 -27,-3 -22,-10 -19,-13 -13,-17 -8,-17 0,-9 0,-243 51,0 0,-217 102,0 0,217 51,0 0,243z" />
<path style="fill:#7f99cc" d="M588,499 l0,8 -6,15 -11,13 -17,11 -21,8 -23,3 -22,0 -23,-3 -21,-8 -15,-11 -13,-13 -6,-15 0,-8 0,-254 46,0 0,-217 88,0 0,217 44,0 0,254z" />
<path style="fill:#849ed1" d="M574,510 l0,8 -5,11 -10,11 -15,8 -17,8 -19,1 -18,0 -19,-1 -17,-8 -15,-8 -10,-11 -5,-11 0,-8 0,-265 37,0 0,-217 76,0 0,217 37,0 0,265z" />
<path style="fill:#89a3d6" d="M559,524 l0,3 -3,10 -8,7 -11,8 -13,4 -17,1 -16,0 -15,-1 -15,-4 -11,-8 -8,-7 -3,-10 0,-3 0,-279 30,0 0,-217 60,0 0,217 30,0 0,279z" />
<path style="fill:#8ea8db" d="M546,535 l0,2 -4,7 -5,4 -10,6 -9,2 -13,1 -12,0 -13,-1 -9,-2 -10,-6 -5,-4 -4,-7 0,-2 0,-290 22,0 0,-217 50,0 0,217 22,0 0,290z" />
<path style="fill:#93ade0" d="M533,546 l0,2 -2,2 -6,4 -5,2 -8,1 -9,0 -8,0 -9,0 -8,-1 -5,-2 -6,-4 -2,-2 0,-2 0,-301 17,0 0,-217 34,0 0,217 17,0 0,301z" />
<path style="fill:#98b2e5" d="M518,557 l-4,0 -4,0 -3,0 -6,0 -4,0 -6,0 -5,0 -2,0 -4,0 -2,0 0,-312 12,0 0,-217 18,0 0,217 10,0 0,312z" />
<path style="fill:none;stroke:#000;stroke-width:2" d="M655,441 l196,0 0,58 119,0 0,315 -119,0 0,58 -706,0 0,-58 -117,0 0,-315 117,0 0,-58 198,0 0,-196 77,0 0,-217 158,0 0,217 77,0 0,196" />
<path style="fill:#7f99cc;stroke:#000;stroke-width:2" d="M28,48 l0,176 403,0 10,-10 0,-156 -10,-10 -403,0z" />
<path style="fill:#728cbf" d="M47,67 l0,138 365,0 8,-8 0,-122 -8,-8 -365,0z" />

</svg>
