

<svg xmlns:agg="http://www.example.com" xmlns="http://www.w3.org/2000/svg" preserveAspectRatio="none" width="0.9431in" height="1.4792in" viewBox="0 0 336 527">

<path style="fill:#7f7f7f" d="M47,260 l0,226 -33,0 0,-226 33,0z" />
<path style="fill:#b2b2b2" d="M44,260 l0,226 -27,0 0,-226 27,0z" />
<path style="fill:#e5e5e5" d="M40,260 l0,226 -19,0 0,-226 19,0z" />
<path style="fill:#fff" d="M34,260 l0,226 -6,0 0,-226 6,0z" />
<path style="fill:none;stroke:#000;stroke-width:2" d="M14,260 l0,226" />
<path style="fill:none;stroke:#000;stroke-width:2" d="M47,486 l0,-226" />
<path style="fill:#7f7f7f" d="M322,260 l0,226 -33,0 0,-226 33,0z" />
<path style="fill:#b2b2b2" d="M319,260 l0,226 -27,0 0,-226 27,0z" />
<path style="fill:#e5e5e5" d="M315,260 l0,226 -18,0 0,-226 18,0z" />
<path style="fill:#fff" d="M309,260 l0,226 -6,0 0,-226 6,0z" />
<path style="fill:none;stroke:#000;stroke-width:2" d="M289,260 l0,226" />
<path style="fill:none;stroke:#000;stroke-width:2" d="M322,486 l0,-226" />
<path style="fill:#7f7f7f" d="M184,147 l0,97 -33,0 0,-97 33,0z" />
<path style="fill:#b2b2b2" d="M181,147 l0,97 -27,0 0,-97 27,0z" />
<path style="fill:#e5e5e5" d="M177,147 l0,97 -19,0 0,-97 19,0z" />
<path style="fill:#fff" d="M171,147 l0,97 -7,0 0,-97 7,0z" />
<path style="fill:none;stroke:#000;stroke-width:2" d="M151,147 l0,97" />
<path style="fill:none;stroke:#000;stroke-width:2" d="M184,244 l0,-97" />
<path style="fill:#7f7f7f" d="M168,151 l-138,0 3,-28 8,-25 13,-24 17,-20 20,-17 23,-12 26,-8 28,-3 28,3 26,8 24,12 20,17 17,20 13,24 8,25 3,28 -139,0z" />
<path style="fill:#999" d="M168,151 l-125,0 3,-27 7,-26 11,-23 16,-21 18,-16 21,-13 24,-8 25,-3 25,3 24,8 21,13 19,16 15,21 12,23 7,26 3,27 -126,0z" />
<path style="fill:#b2b2b2" d="M168,151 l-99,0 2,-27 6,-26 9,-23 12,-21 15,-16 17,-13 18,-8 20,-3 20,3 19,8 17,13 15,16 12,21 9,23 6,26 2,27 -100,0z" />
<path style="fill:#ccc" d="M168,151 l-73,0 1,-28 5,-25 7,-24 9,-20 10,-17 13,-12 13,-8 15,-3 15,3 14,8 12,12 11,17 9,20 7,24 5,25 1,28 -74,0z" />
<path style="fill:#e5e5e5" d="M168,151 l-47,0 1,-28 3,-25 4,-24 6,-20 7,-17 8,-12 9,-8 9,-3 10,3 9,8 8,12 7,17 6,20 4,24 3,25 1,28 -48,0z" />
<path style="fill:none;stroke:#000;stroke-width:2" d="M168,151 l-138,0 3,-28 8,-25 13,-24 17,-20 20,-17 23,-12 26,-8 28,-3 28,3 26,8 24,12 20,17 17,20 13,24 8,25 3,28 -139,0" />
<path style="fill:#fff" d="M168,151 l-13,0 0,-28 1,-25 1,-24 2,-20 2,-17 2,-12 2,-8 3,-3 3,3 2,8 3,12 2,17 1,20 1,24 1,25 0,28 -13,0z" />
<circle style="fill:#7f7f7f" cx="168" cy="375" r="138" />
<circle style="fill:#999" cx="168" cy="375" r="126" />
<circle style="fill:#b2b2b2" cx="168" cy="375" r="107" />
<circle style="fill:#ccc" cx="168" cy="375" r="79" />
<circle style="fill:#e5e5e5" cx="168" cy="375" r="56" />
<circle style="fill:none;stroke:#000;stroke-width:2" cx="168" cy="375" r="138" />
<circle style="fill:#fff" cx="168" cy="375" r="32" />

</svg>
