 

<svg xmlns:agg="http://www.example.com" xmlns="http://www.w3.org/2000/svg" preserveAspectRatio="none" width="0.8200in" height="1.0750in" viewBox="0 0 762 999">

<path style="fill:#4c6659" d="M28,28 l0,942 706,0 0,-942 -706,0z" />
<path style="fill:#5b7568" d="M65,28 l0,942 631,0 0,-942 -631,0z" />
<path style="fill:#688275" d="M103,28 l0,942 556,0 0,-942 -556,0z" />
<path style="fill:#779184" d="M141,28 l0,942 480,0 0,-942 -480,0z" />
<path style="fill:#849e91" d="M179,28 l0,942 404,0 0,-942 -404,0z" />
<path style="fill:#93ada0" d="M216,28 l0,942 331,0 0,-942 -331,0z" />
<path style="fill:#a0baad" d="M254,28 l0,942 255,0 0,-942 -255,0z" />
<path style="fill:#afc9bc" d="M290,28 l0,942 182,0 0,-942 -182,0z" />
<path style="fill:#bcd6c9" d="M328,28 l0,942 106,0 0,-942 -106,0z" />
<path style="fill:#cbe5d8" d="M366,28 l0,942 30,0 0,-942 -30,0z" />
<path style="fill:none;stroke:#000;stroke-width:2" d="M28,28 l0,942 706,0 0,-942 -706,0" />
<path style="fill:#197f4c" d="M105,146 l2,747 548,0 0,-747 -550,0z" />
<path style="fill:#147a47" d="M133,145 l0,746 495,0 0,-746 -495,0z" />
<path style="fill:#0f7542" d="M161,145 l0,746 439,0 0,-746 -439,0z" />
<path style="fill:#086e3b" d="M190,145 l0,746 382,0 0,-746 -382,0z" />
<path style="fill:#036936" d="M216,145 l2,746 327,0 0,-746 -329,0z" />
<path style="fill:#006330" d="M245,145 l0,746 272,0 0,-746 -272,0z" />
<path style="fill:#005e2b" d="M273,145 l0,746 215,0 0,-746 -215,0z" />
<path style="fill:#005724" d="M301,145 l0,746 159,0 0,-746 -159,0z" />
<path style="fill:#00521f" d="M328,145 l0,746 106,0 0,-746 -106,0z" />
<path style="fill:#004c19" d="M356,146 l0,747 49,0 0,-747 -49,0z" />
<path style="fill:none;stroke:#699;stroke-width:2" d="M105,184 l40,-38" />
<path style="fill:none;stroke:#699;stroke-width:2" d="M105,264 l119,-118" />
<path style="fill:none;stroke:#699;stroke-width:2" d="M105,341 l196,-195" />
<path style="fill:none;stroke:#699;stroke-width:2" d="M105,421 l276,-275" />
<path style="fill:none;stroke:#699;stroke-width:2" d="M105,500 l353,-354" />
<path style="fill:none;stroke:#699;stroke-width:2" d="M105,577 l433,-431" />
<path style="fill:none;stroke:#699;stroke-width:2" d="M105,657 l512,-511" />
<path style="fill:none;stroke:#699;stroke-width:2" d="M105,734 l550,-550" />
<path style="fill:none;stroke:#699;stroke-width:2" d="M105,814 l550,-550" />
<path style="fill:none;stroke:#699;stroke-width:2" d="M105,893 l550,-552" />
<path style="fill:none;stroke:#699;stroke-width:2" d="M184,893 l471,-472" />
<path style="fill:none;stroke:#699;stroke-width:2" d="M264,893 l391,-393" />
<path style="fill:none;stroke:#699;stroke-width:2" d="M341,893 l314,-316" />
<path style="fill:none;stroke:#699;stroke-width:2" d="M420,893 l235,-236" />
<path style="fill:none;stroke:#699;stroke-width:2" d="M494,893 l161,-163" />
<path style="fill:none;stroke:#699;stroke-width:2" d="M577,893 l78,-79" />
<path style="fill:none;stroke:#699;stroke-width:2" d="M655,184 l-38,-38" />
<path style="fill:none;stroke:#699;stroke-width:2" d="M655,264 l-117,-118" />
<path style="fill:none;stroke:#699;stroke-width:2" d="M655,341 l-197,-195" />
<path style="fill:none;stroke:#699;stroke-width:2" d="M655,421 l-274,-275" />
<path style="fill:none;stroke:#699;stroke-width:2" d="M655,500 l-354,-354" />
<path style="fill:none;stroke:#699;stroke-width:2" d="M655,577 l-431,-431" />
<path style="fill:none;stroke:#699;stroke-width:2" d="M655,657 l-510,-511" />
<path style="fill:none;stroke:#699;stroke-width:2" d="M655,734 l-550,-550" />
<path style="fill:none;stroke:#699;stroke-width:2" d="M655,814 l-550,-550" />
<path style="fill:none;stroke:#699;stroke-width:2" d="M655,893 l-550,-552" />
<path style="fill:none;stroke:#699;stroke-width:2" d="M577,893 l-472,-472" />
<path style="fill:none;stroke:#699;stroke-width:2" d="M498,893 l-393,-393" />
<path style="fill:none;stroke:#699;stroke-width:2" d="M420,893 l-315,-316" />
<path style="fill:none;stroke:#699;stroke-width:2" d="M341,893 l-236,-236" />
<path style="fill:none;stroke:#699;stroke-width:2" d="M267,893 l-162,-163" />
<path style="fill:none;stroke:#699;stroke-width:2" d="M184,893 l-79,-79" />
<path style="fill:none;stroke:#000;stroke-width:2" d="M655,146 l-550,0 0,747" />
<path style="fill:none;stroke:#fff;stroke-width:2" d="M105,893 l550,0 0,-747" />

</svg>
