

<svg xmlns:agg="http://www.example.com" xmlns="http://www.w3.org/2000/svg" preserveAspectRatio="none" width="0.8751in" height="1.4792in" viewBox="0 0 591 999">

<path style="fill:#960" d="M113,950 l107,20 87,0 85,-20 20,-44 44,-21 20,-43 0,-215 -20,-21 -44,-20 -20,-23 -21,-128 0,-128 -23,-23 -64,-21 -64,0 -64,21 -21,23 0,128 -22,128 -21,23 -44,20 -20,21 0,215 20,43 44,21 21,44z" />
<path style="fill:#a3700a" d="M129,950 l95,20 75,0 77,-20 19,-44 38,-22 19,-42 0,-215 -19,-21 -38,-22 -19,-21 -18,-128 0,-128 -21,-23 -57,-21 -56,0 -57,21 -19,23 0,128 -19,128 -19,21 -37,22 -19,21 0,215 19,42 37,22 19,44z" />
<path style="fill:#ab7812" d="M146,950 l82,20 65,0 66,-20 17,-44 33,-22 17,-42 0,-215 -17,-21 -33,-22 -17,-21 -16,-128 0,-128 -16,-23 -51,-21 -48,0 -50,21 -17,23 0,128 -15,128 -17,21 -33,22 -16,21 0,215 16,42 33,22 17,44z" />
<path style="fill:#b5821c" d="M161,950 l70,20 57,0 55,-20 15,-44 28,-22 13,-42 0,-215 -13,-21 -28,-22 -15,-21 -14,-128 0,-128 -13,-23 -43,-21 -42,0 -41,21 -13,23 0,128 -16,128 -13,21 -28,22 -13,21 0,215 13,42 28,22 13,44z" />
<path style="fill:#bf8c26" d="M178,950 l57,20 45,0 47,-20 12,-44 22,-22 12,-42 0,-215 -12,-21 -22,-22 -12,-21 -11,-128 0,-128 -11,-23 -36,-21 -34,0 -34,21 -11,23 0,128 -12,128 -11,21 -24,22 -12,21 0,215 12,42 24,22 11,44z" />
<path style="fill:#c99630" d="M194,950 l45,20 36,0 35,-20 10,-44 19,-22 7,-42 0,-215 -7,-21 -19,-22 -10,-21 -7,-128 0,-128 -10,-23 -28,-21 -26,0 -27,21 -9,23 0,128 -9,128 -8,21 -19,22 -9,21 0,215 9,42 19,22 8,44z" />
<path style="fill:#d19e38" d="M211,950 l31,20 27,0 27,-20 5,-44 13,-22 8,-42 0,-215 -8,-21 -13,-22 -5,-21 -8,-128 0,-128 -6,-23 -20,-21 -20,0 -18,21 -8,23 0,128 -5,128 -8,21 -13,22 -6,21 0,215 6,42 13,22 8,44z" />
<path style="fill:#dba842" d="M228,950 l18,20 17,0 16,-20 3,-44 10,-22 4,-42 0,-215 -14,-43 -3,-21 -4,-128 0,-128 -4,-23 -13,-21 -12,0 -11,21 -4,23 0,128 -3,128 -14,43 -3,21 0,215 3,42 8,22 6,44z" />
<ellipse style="fill:#e5b24c" cx="253" cy="616" rx="16" ry="353" />
<path style="fill:none;stroke:#000;stroke-width:2" d="M113,950 l107,20 87,0 85,-20 20,-44 44,-21 20,-43 0,-215 -20,-21 -44,-20 -20,-23 -21,-128 0,-128 -23,-23 -64,-21 -64,0 -64,21 -21,23 0,128 -22,128 -21,23 -44,20 -20,21 0,215 20,43 44,21 21,44" />
<path style="fill:#7f7f7f" d="M199,28 l106,0 17,17 0,230 -140,0 0,-230 17,-17z" />
<path style="fill:#919191" d="M211,28 l85,0 11,17 0,230 -110,0 0,-230 14,-17z" />
<path style="fill:#a6a6a6" d="M222,28 l62,0 9,17 0,230 -81,0 0,-230 10,-17z" />
<path style="fill:#b8b8b8" d="M233,28 l40,0 6,17 0,230 -51,0 0,-230 5,-17z" />
<path style="fill:#ccc" d="M245,28 l14,0 4,17 0,230 -21,0 0,-230 3,-17z" />
<path style="fill:none;stroke:#000;stroke-width:2" d="M199,28 l106,0 17,17 0,230 -140,0 0,-230 17,-17" />
<path style="fill:#960" d="M550,874 l-127,0 -37,-34 -21,-60 0,-70 21,-58 37,-34 127,0 8,34 5,58 0,70 -5,60 -8,34z" />
<path style="fill:#a16e08" d="M550,854 l-136,0 -32,-29 -17,-51 0,-58 17,-51 32,-28 136,0 8,28 5,51 0,58 -5,51 -8,29z" />
<path style="fill:#ab7812" d="M550,835 l-145,0 -27,-25 -13,-41 0,-47 13,-42 27,-24 145,0 8,24 5,42 0,47 -5,41 -8,25z" />
<path style="fill:#b27f19" d="M550,814 l-155,0 -19,-17 -11,-34 0,-36 11,-32 19,-19 155,0 8,19 5,32 0,36 -5,34 -8,17z" />
<path style="fill:#ba8721" d="M550,795 l-166,0 -11,-13 -8,-23 0,-26 8,-25 11,-13 166,0 8,13 5,25 0,26 -5,23 -8,13z" />
<path style="fill:#c4912b" d="M550,776 l-175,0 -6,-9 -4,-14 0,-17 4,-13 6,-7 175,0 8,7 5,13 0,17 -5,14 -8,9z" />
<path style="fill:#c93" d="M550,756 l-185,0 0,-3 0,-5 0,-6 0,-3 0,-4 185,0 8,4 5,3 0,6 -5,5 -8,3z" />
<path style="fill:none;stroke:#000;stroke-width:2" d="M461,618 l89,0 8,34 5,58 0,70 -5,60 -8,34 -89,0" />
<path style="fill:#7f7f7f;stroke:#000;stroke-width:2" d="M322,248 l0,-172 49,70 0,38 -49,64z" />
<path style="fill:#b2b2b2;stroke:#000;stroke-width:2" d="M71,456 l79,-268 183,0 0,-59 -192,0 -55,38 -32,59 -11,86 5,144 23,0z" />
<path style="fill:#e5e5e5" d="M65,312 l10,-64 26,-60 32,-27 49,-9 134,-11 -181,0 -43,32 -32,58 -6,81 2,123 9,-123z" />
<ellipse style="fill:#630" cx="541" cy="746" rx="16" ry="90" />
<path style="fill:#ccc" d="M171,450 l162,0 10,130 -182,0 10,-130z" />
<path style="fill:#c2c2c2" d="M337,495 l6,85 -182,0 4,-49 172,-36z" />
<path style="fill:none;stroke:#999;stroke-width:2" d="M167,558 l166,0" />
<path style="fill:none;stroke:#999;stroke-width:2" d="M177,488 l150,0" />
<path style="fill:none;stroke:#999;stroke-width:2" d="M171,520 l156,0" />

</svg>
