

<svg xmlns:agg="http://www.example.com" xmlns="http://www.w3.org/2000/svg" preserveAspectRatio="none" width="0.8899in" height="1.4792in" viewBox="0 0 601 999">

<path style="fill:#194c4c;stroke:#000;stroke-width:2" d="M243,550 l113,0 0,11 -113,0 0,-11z" />
<path style="fill:#366" d="M96,695 l67,0 30,-4 25,-17 11,-24 2,-23 0,-66 136,0 0,66 4,30 14,21 22,13 30,4 68,0 0,136 -68,0 -30,4 -22,13 -15,28 -3,23 0,71 -136,0 0,-71 -4,-30 -17,-25 -24,-11 -23,-2 -67,0 0,-136z" />
<path style="fill:#194c4c" d="M231,28 l136,0 0,522 -136,0 0,-522z" />
<path style="fill:#366" d="M241,28 l119,0 0,522 -119,0 0,-522z" />
<path style="fill:#4c7f7f" d="M252,28 l96,0 0,522 -96,0 0,-522z" />
<path style="fill:#699" d="M265,28 l68,0 0,522 -68,0 0,-522z" />
<path style="fill:#7fb2b2" d="M282,28 l34,0 0,522 -34,0 0,-522z" />
<path style="fill:none;stroke:#000;stroke-width:2" d="M231,28 l136,0 0,522 -136,0 0,-522" />
<path style="fill:#194c4c" d="M65,237 l4,-36 11,-27 22,-23 28,-11 7,-1 8,0 9,0 302,0 29,5 24,16 14,22 8,30 2,12 0,13 0,13 -7,33 -12,24 -23,20 -28,8 -7,0 -10,0 -301,0 -30,-5 -25,-16 -14,-22 -9,-30 -1,-12 -1,-13z" />
<path style="fill:#366" d="M96,237 l3,-36 9,-27 19,-23 24,-11 6,-1 6,0 9,0 265,0 31,8 20,20 11,24 5,33 1,13 -1,13 -5,33 -11,24 -20,20 -25,8 -6,0 -9,0 -265,0 -30,-8 -21,-20 -10,-24 -6,-33 0,-13z" />
<path style="fill:#4c7f7f" d="M133,237 l3,-36 8,-27 15,-23 26,-12 5,0 7,0 213,0 26,8 19,27 8,27 2,23 0,13 0,13 -5,33 -8,24 -21,23 -15,5 -6,0 -7,0 -213,0 -26,-8 -17,-20 -9,-24 -4,-33 -1,-13z" />
<path style="fill:#699" d="M182,237 l1,-13 0,-12 1,-11 2,-10 2,-9 2,-8 5,-14 6,-9 7,-7 10,-5 4,0 9,0 147,0 11,3 9,9 6,9 5,14 2,8 2,9 1,10 1,11 1,12 0,13 0,13 -1,12 -1,11 -1,10 -2,9 -4,15 -5,12 -7,8 -10,7 -3,1 -4,0 -9,0 -147,0 -11,-3 -7,-5 -6,-8 -6,-12 -2,-7 -2,-8 -2,-9 -2,-10 -1,-11 0,-12 -1,-13z" />
<path style="fill:#7fb2b2" d="M241,237 l0,-13 0,-12 1,-11 0,-10 1,-9 2,-15 3,-12 4,-8 5,-7 2,-1 3,0 4,0 73,0 2,0 6,8 3,8 3,12 2,15 1,9 1,10 0,11 1,12 0,13 0,13 -1,12 0,11 -1,10 -1,9 -2,15 -3,12 -3,8 -6,8 -2,0 -5,0 -72,0 -8,-5 -6,-11 -3,-12 -2,-15 -1,-9 0,-10 -1,-11 0,-12 0,-13z" />
<path style="fill:none;stroke:#000;stroke-width:2" d="M65,237 l4,-36 11,-27 22,-23 28,-11 7,-1 8,0 9,0 302,0 29,5 24,16 14,22 8,30 2,12 0,13 0,13 -7,33 -12,24 -23,20 -28,8 -7,0 -10,0 -301,0 -30,-5 -25,-16 -14,-22 -9,-30 -1,-12 -1,-13" />
<path style="fill:#4c7f7f;stroke:#000;stroke-width:2" d="M28,218 l545,0 0,38 -545,0 0,-38z" />
<path style="fill:none;stroke:#000;stroke-width:2" d="M28,237 l545,0" />
<path style="fill:#699;stroke:#000;stroke-width:2" d="M47,197 l39,0 0,21 -39,0 0,-21z" />
<path style="fill:#699;stroke:#000;stroke-width:2" d="M163,197 l40,0 0,21 -40,0 0,-21z" />
<path style="fill:#699;stroke:#000;stroke-width:2" d="M280,197 l40,0 0,21 -40,0 0,-21z" />
<path style="fill:#699;stroke:#000;stroke-width:2" d="M397,197 l40,0 0,21 -40,0 0,-21z" />
<path style="fill:#699;stroke:#000;stroke-width:2" d="M514,197 l40,0 0,21 -40,0 0,-21z" />
<path style="fill:#4c7f7f;stroke:#000;stroke-width:2" d="M56,256 l21,0 0,39 -21,0 0,-39z" />
<path style="fill:#4c7f7f;stroke:#000;stroke-width:2" d="M173,256 l21,0 0,39 -21,0 0,-39z" />
<path style="fill:#4c7f7f;stroke:#000;stroke-width:2" d="M290,256 l21,0 0,39 -21,0 0,-39z" />
<path style="fill:#4c7f7f;stroke:#000;stroke-width:2" d="M407,256 l18,0 0,39 -18,0 0,-39z" />
<path style="fill:#4c7f7f;stroke:#000;stroke-width:2" d="M524,256 l18,0 0,39 -18,0 0,-39z" />
<path style="fill:#4c7f7f" d="M96,703 l83,0 31,-6 20,-18 9,-30 0,-7 0,-81 121,0 0,81 5,32 19,20 30,8 8,1 83,0 0,120 -83,0 -28,4 -23,16 -11,27 0,14 0,86 -121,0 0,-86 -6,-32 -18,-20 -29,-8 -7,-1 -83,0 0,-120z" />
<path style="fill:#699" d="M96,714 l105,0 30,-7 16,-21 3,-21 0,-104 98,0 0,104 7,29 22,17 22,3 106,0 0,98 -106,0 -27,5 -19,18 -5,26 0,109 -98,0 0,-109 -7,-30 -21,-16 -21,-3 -105,0 0,-98z" />
<path style="fill:#7fb2b2" d="M96,729 l135,0 26,-9 8,-25 0,-134 68,0 0,134 9,25 25,9 138,0 0,68 -138,0 -25,8 -9,26 0,139 -68,0 0,-139 -8,-26 -26,-8 -135,0 0,-68z" />
<path style="fill:none;stroke:#000;stroke-width:2" d="M96,695 l67,0 30,-4 25,-17 11,-24 2,-23 0,-66 136,0 0,66 4,30 14,21 22,13 30,4 68,0 0,136 -68,0 -30,4 -22,13 -15,28 -3,23 0,71 -136,0 0,-71 -4,-30 -17,-25 -24,-11 -23,-2 -67,0 0,-136" />
<ellipse style="fill:#7fb2b2" cx="300" cy="769" rx="103" ry="68" />
<ellipse style="fill:#8cbfbf" cx="300" cy="765" rx="88" ry="57" />
<ellipse style="fill:#9cc" cx="300" cy="757" rx="61" ry="39" />
<path style="fill:none;stroke:#000;stroke-width:2" d="M231,471 l136,0" />

</svg>
