

<svg xmlns:agg="http://www.example.com" xmlns="http://www.w3.org/2000/svg" preserveAspectRatio="none" width="1.5269in" height="1.4792in" viewBox="0 0 480 465">

<path style="fill:#7f7f7f" d="M267,37 l14,-24 186,107 -14,24 -186,-107z" />
<path style="fill:#b2b2b2" d="M268,34 l12,-19 186,107 -12,20 -186,-108z" />
<path style="fill:#e5e5e5" d="M270,31 l8,-13 186,108 -8,12 -186,-107z" />
<path style="fill:#fff" d="M273,27 l2,-5 186,108 -2,4 -186,-107z" />
<path style="fill:none;stroke:#000;stroke-width:2" d="M281,13 l186,107" />
<path style="fill:none;stroke:#000;stroke-width:2" d="M267,37 l186,107" />
<path style="fill:#7f7f7f" d="M41,447 l-28,0 0,-178 28,0 0,178z" />
<path style="fill:#b2b2b2" d="M38,447 l-22,0 0,-178 22,0 0,178z" />
<path style="fill:#e5e5e5" d="M34,447 l-14,0 0,-178 14,0 0,178z" />
<path style="fill:#fff" d="M30,447 l-6,0 0,-178 6,0 0,178z" />
<path style="fill:none;stroke:#000;stroke-width:2" d="M13,447 l0,-178" />
<path style="fill:none;stroke:#000;stroke-width:2" d="M41,447 l0,-178" />
<path style="fill:#7f7f7f" d="M67,240 l-14,24 -12,-7 14,-24 12,7z" />
<path style="fill:#b2b2b2" d="M65,242 l-11,19 -12,-6 11,-20 12,7z" />
<path style="fill:#e5e5e5" d="M64,245 l-8,13 -12,-7 8,-13 12,7z" />
<path style="fill:#fff" d="M61,249 l-2,5 -12,-7 2,-4 12,6z" />
<path style="fill:none;stroke:#000;stroke-width:2" d="M53,264 l-12,-7" />
<path style="fill:none;stroke:#000;stroke-width:2" d="M67,240 l-12,-7" />
<path style="fill:#7f7f7f" d="M41,257 l-28,0 0,-4 1,-3 1,-4 2,-3 3,-4 4,-4 5,-3 5,-2 5,-1 6,0 5,2 5,2 -14,24z" />
<path style="fill:#b2b2b2" d="M41,257 l-25,0 0,-4 1,-3 1,-3 1,-3 3,-4 4,-3 4,-3 4,-2 5,0 5,0 4,1 5,2 -12,22z" />
<path style="fill:#e5e5e5" d="M41,257 l-21,0 0,-3 1,-3 1,-3 1,-2 5,-6 7,-4 9,0 8,2 -11,19z" />
<path style="fill:#fff" d="M41,257 l-17,0 0,-2 1,-2 1,-2 1,-2 4,-5 6,-3 6,0 6,2 -8,14z" />
<path style="fill:#e5e5e5" d="M41,257 l-11,0 0,-2 0,-1 0,-2 1,-1 3,-3 4,-2 4,0 5,1 -6,10z" />
<path style="fill:#b2b2b2" d="M41,257 l-7,0 0,-1 1,-1 0,-1 2,-2 2,-2 3,0 2,1 -3,6z" />
<path style="fill:#7f7f7f" d="M41,257 l-3,0 0,-1 1,0 0,-1 1,-1 1,0 1,1 -1,2z" />
<path style="fill:none;stroke:#000;stroke-width:2" d="M13,257 l0,-4 1,-3 1,-4 2,-3 3,-4 4,-4 5,-3 5,-2 5,-1 6,0 5,2 5,2" />
<path style="fill:#7f7f7f" d="M13,257 l28,0 0,14 -28,0 0,-14z" />
<path style="fill:#b2b2b2" d="M16,257 l22,0 0,14 -22,0 0,-14z" />
<path style="fill:#e5e5e5" d="M20,257 l14,0 0,14 -14,0 0,-14z" />
<path style="fill:#fff" d="M24,257 l6,0 0,14 -6,0 0,-14z" />
<path style="fill:none;stroke:#000;stroke-width:2" d="M41,257 l0,14" />
<path style="fill:none;stroke:#000;stroke-width:2" d="M13,257 l0,14" />
<path style="fill:#7f7f7f" d="M390,229 l27,0 0,183 -27,0 0,-183z" />
<path style="fill:#b2b2b2" d="M392,229 l23,0 0,183 -23,0 0,-183z" />
<path style="fill:#e5e5e5" d="M396,229 l15,0 0,183 -15,0 0,-183z" />
<path style="fill:#fff" d="M401,229 l5,0 0,183 -5,0 0,-183z" />
<path style="fill:none;stroke:#000;stroke-width:2" d="M417,229 l0,183" />
<path style="fill:none;stroke:#000;stroke-width:2" d="M390,229 l0,183" />
<path style="fill:#7f7f7f" d="M364,441 l14,-24 12,7 -14,24 -12,-7z" />
<path style="fill:#b2b2b2" d="M365,439 l11,-19 12,7 -11,19 -12,-7z" />
<path style="fill:#e5e5e5" d="M367,436 l7,-13 12,7 -7,13 -12,-7z" />
<path style="fill:#fff" d="M369,432 l3,-5 12,7 -3,5 -12,-7z" />
<path style="fill:none;stroke:#000;stroke-width:2" d="M378,417 l12,7" />
<path style="fill:none;stroke:#000;stroke-width:2" d="M364,441 l12,7" />
<path style="fill:#7f7f7f" d="M390,424 l27,0 0,4 -1,3 -1,4 -1,3 -3,4 -4,4 -5,3 -5,2 -5,1 -6,0 -5,-2 -5,-2 14,-24z" />
<path style="fill:#b2b2b2" d="M390,424 l25,0 0,4 -1,3 -1,3 -2,3 -3,4 -3,3 -4,3 -5,2 -5,0 -4,0 -5,-1 -5,-2 13,-22z" />
<path style="fill:#e5e5e5" d="M390,424 l21,0 0,3 -1,3 -1,3 -1,2 -6,6 -7,4 -8,1 -8,-3 11,-19z" />
<path style="fill:#fff" d="M390,424 l16,0 0,2 -1,2 0,3 -1,2 -5,4 -5,3 -7,1 -6,-2 9,-15z" />
<path style="fill:#e5e5e5" d="M390,424 l11,0 0,1 -1,2 0,1 -1,2 -3,3 -4,2 -4,0 -4,-1 6,-10z" />
<path style="fill:#b2b2b2" d="M390,424 l6,0 0,1 0,1 0,1 -1,1 -1,2 -2,1 -3,0 -3,-1 4,-6z" />
<path style="fill:#7f7f7f" d="M390,424 l2,0 0,1 0,1 -1,1 -1,0 -1,0 -1,0 2,-3z" />
<path style="fill:none;stroke:#000;stroke-width:2" d="M417,424 l0,4 -1,3 -1,4 -1,3 -3,4 -4,4 -5,3 -5,2 -5,1 -6,0 -5,-2 -5,-2" />
<path style="fill:#7f7f7f" d="M417,424 l-27,0 0,-13 27,0 0,13z" />
<path style="fill:#b2b2b2" d="M415,424 l-23,0 0,-13 23,0 0,13z" />
<path style="fill:#e5e5e5" d="M411,424 l-15,0 0,-13 15,0 0,13z" />
<path style="fill:#fff" d="M406,424 l-5,0 0,-13 5,0 0,13z" />
<path style="fill:none;stroke:#000;stroke-width:2" d="M390,424 l0,-13" />
<path style="fill:none;stroke:#000;stroke-width:2" d="M417,424 l0,-13" />
<path style="fill:#7f7f7f" d="M379,419 l-14,24 -312,-180 13,-24 313,180z" />
<path style="fill:#b2b2b2" d="M377,421 l-11,20 -312,-180 11,-20 312,180z" />
<path style="fill:#e5e5e5" d="M375,425 l-7,12 -312,-180 7,-13 312,181z" />
<path style="fill:#fff" d="M373,429 l-3,4 -312,-180 3,-4 312,180z" />
<path style="fill:none;stroke:#000;stroke-width:2" d="M365,443 l-312,-180" />
<path style="fill:none;stroke:#000;stroke-width:2" d="M379,419 l-313,-180" />
<path style="fill:#7f7f7f" d="M246,343 l-14,24 -48,-28 14,-24 12,7 14,-24 24,14 -14,24 12,7z" />
<path style="fill:#b2b2b2" d="M245,345 l-11,20 -34,-20 -14,-8 11,-20 14,9 15,-27 20,12 -15,26 14,8z" />
<path style="fill:#e5e5e5" d="M243,349 l-7,12 -31,-17 -18,-10 8,-13 18,10 17,-30 12,8 -17,29 18,11z" />
<path style="fill:#fff" d="M241,353 l-3,4 -26,-15 -22,-13 2,-4 22,12 20,-33 4,2 -19,34 22,13z" />
<path style="fill:none;stroke:#000;stroke-width:2" d="M246,343 l-12,-7 14,-24" />
<path style="fill:none;stroke:#000;stroke-width:2" d="M224,298 l-14,24 -12,-7" />
<path style="fill:none;stroke:#000;stroke-width:2" d="M184,339 l12,7 36,21" />
<path style="fill:#7f7f7f" d="M247,313 l-24,-13 111,-193 24,14 -111,192z" />
<path style="fill:#b2b2b2" d="M245,312 l-20,-11 111,-192 20,11 -111,192z" />
<path style="fill:#e5e5e5" d="M241,310 l-12,-7 111,-192 12,7 -111,192z" />
<path style="fill:#fff" d="M237,308 l-4,-3 111,-192 4,3 -111,192z" />
<path style="fill:none;stroke:#000;stroke-width:2" d="M223,300 l111,-193" />
<path style="fill:none;stroke:#000;stroke-width:2" d="M247,313 l111,-192" />
<path style="fill:#7f7f7f" d="M336,76 l14,-24 48,28 -14,24 -12,-7 -14,24 -24,-14 14,-24 -12,-7z" />
<path style="fill:#b2b2b2" d="M337,74 l12,-19 33,19 15,8 -12,20 -14,-8 -15,26 -20,-11 16,-27 -15,-8z" />
<path style="fill:#e5e5e5" d="M339,71 l8,-13 30,18 18,10 -8,13 -17,-11 -17,30 -13,-7 17,-30 -18,-10z" />
<path style="fill:#fff" d="M342,67 l2,-5 27,15 21,13 -2,4 -22,-12 -20,34 -4,-3 19,-34 -21,-12z" />
<path style="fill:none;stroke:#000;stroke-width:2" d="M336,76 l12,7 -14,24" />
<path style="fill:none;stroke:#000;stroke-width:2" d="M358,121 l14,-24 12,7" />
<path style="fill:none;stroke:#000;stroke-width:2" d="M398,80 l-12,-7 -36,-21" />

</svg>
