 

<svg xmlns:agg="http://www.example.com" xmlns="http://www.w3.org/2000/svg" preserveAspectRatio="none" width="0.2486in" height="1.0750in" viewBox="0 0 231 999">

<path style="fill:#bfbfbf;stroke:#000;stroke-width:2" d="M158,175 l0,361 -116,39 34,0 99,-34 0,-370 -17,4z" />
<path style="fill:#bfbfbf;stroke:#000;stroke-width:2" d="M55,970 l0,-786 137,-38 -34,0 -125,29 0,795 22,0z" />
<path style="fill:none;stroke:#000;stroke-width:2" d="M33,175 l22,9" />
<path style="fill:#d9d9d9;stroke:#000;stroke-width:2" d="M76,575 l99,-34 0,335 -99,55 0,-356z" />
<path style="fill:none;stroke:#000;stroke-width:2" d="M158,536 l17,5" />
<path style="fill:#666;stroke:#000;stroke-width:2" d="M102,184 l17,0 0,378 -17,0 0,-378z" />
<path style="fill:#ccc" d="M108,184 l5,0 0,378 -5,0 0,-378z" />
<path style="fill:#e5e5e5" d="M55,184 l0,786 120,-69 0,-25 -99,55 0,-725 99,-35 0,730 17,-12 0,-743 -137,38z" />
<path style="fill:none;stroke:#000;stroke-width:2" d="M55,970 l0,-786 137,-38 0,743 -137,81" />
<path style="fill:none;stroke:#000;stroke-width:2" d="M76,931 l0,-725 99,-35 0,705 -99,55" />
<path style="fill:#b2b2b2" d="M89,769 l0,81 73,-39 13,-38 -73,38 -13,-42z" />
<path style="fill:#b2b2b2" d="M89,627 l0,81 73,-38 13,-39 -73,38 -13,-42z" />
<path style="fill:#666;stroke:#000;stroke-width:2" d="M28,45 l3,10 6,6 9,6 11,4 12,4 15,2 15,2 8,0 8,0 16,-2 14,-2 13,-4 11,-4 8,-6 6,-6 3,-6 1,-4 -1,-2 -9,-6 -8,-3 -11,-2 -13,-2 -14,-1 -8,-1 -8,0 -8,0 -16,0 -15,1 -13,2 -12,2 -10,2 -10,5 -3,3 0,2z" />
<path style="fill:#333;stroke:#000;stroke-width:2" d="M178,49 l-51,26 30,-34 21,8z" />
<path style="fill:#333;stroke:#000;stroke-width:2" d="M144,37 l-30,38 4,-38 26,0z" />
<path style="fill:#333;stroke:#000;stroke-width:2" d="M75,37 l30,38 -4,-38 -26,0z" />
<path style="fill:#333;stroke:#000;stroke-width:2" d="M36,49 l52,26 -30,-34 -22,8z" />
<path style="fill:#666;stroke:#000;stroke-width:2" d="M102,74 l17,0 0,91 -17,0 0,-91z" />
<path style="fill:#ccc" d="M108,74 l5,0 0,91 -5,0 0,-91z" />
<path style="fill:#b2b2b2;stroke:#000;stroke-width:2" d="M101,185 l-1,-98 -58,13 0,58 59,27z" />
<path style="fill:#8c8c8c;stroke:#000;stroke-width:2" d="M100,87 l72,0 1,78 -72,20 -1,-98z" />
<path style="fill:none;stroke:#000;stroke-width:2" d="M114,172 l0,-72 52,0" />
<path style="fill:none;stroke:#fff;stroke-width:2" d="M48,107 l46,-7" />
<path style="fill:none;stroke:#000;stroke-width:2" d="M94,165 l0,-65" />
<ellipse style="fill:#666;stroke:#000;stroke-width:2" cx="141" cy="136" rx="15" ry="29" />
<path style="fill:#999" d="M191,154 l-46,0 -9,-5 -3,-9 -1,-4 3,-10 7,-7 3,0 46,0 3,0 7,7 2,10 -2,10 -5,6 -5,2z" />
<path style="fill:#e5e5e5" d="M191,142 l-46,0 -9,-1 -3,-2 -1,-3 8,-5 2,0 52,0 8,3 1,2 -7,6 -5,0z" />
<path style="fill:none;stroke:#000;stroke-width:2" d="M191,154 l-46,0 -9,-5 -3,-9 -1,-4 3,-10 7,-7 3,0 46,0 3,0 7,7 2,10 -2,10 -5,6 -5,2" />
<ellipse style="fill:#666;stroke:#000;stroke-width:2" cx="191" cy="136" rx="12" ry="17" />

</svg>
