

<svg xmlns:agg="http://www.example.com" xmlns="http://www.w3.org/2000/svg" preserveAspectRatio="none" width="2.0104in" height="1.0621in" viewBox="0 0 530 280">

<path style="fill:#7f7f7f" d="M515,265 l-250,-125 250,-125 0,250z" />
<path style="fill:#7f7f7f;stroke:#000;stroke-width:2" d="M15,265 l250,-125 -250,-125 0,250z" />
<path style="fill:#999" d="M515,253 l-250,-113 250,-114 0,227z" />
<path style="fill:#999" d="M15,253 l250,-113 -250,-114 0,227z" />
<path style="fill:#b2b2b2" d="M515,226 l-250,-86 250,-86 0,172z" />
<path style="fill:#b2b2b2" d="M15,226 l250,-86 -250,-86 0,172z" />
<path style="fill:#ccc" d="M515,202 l-250,-62 250,-63 0,125z" />
<path style="fill:#ccc" d="M15,202 l250,-62 -250,-63 0,125z" />
<path style="fill:#e5e5e5" d="M515,183 l-250,-43 250,-43 0,86z" />
<path style="fill:#e5e5e5" d="M15,183 l250,-43 -250,-43 0,86z" />
<path style="fill:#fff" d="M515,155 l-250,-15 250,-16 0,31z" />
<path style="fill:#fff" d="M15,155 l250,-15 -250,-16 0,31z" />
<path style="fill:none;stroke:#000;stroke-width:2" d="M515,265 l-250,-125 250,-125 0,250" />
<path style="fill:#7f7f7f;stroke:#000;stroke-width:2" d="M183,214 l4,0 0,-148 -4,0 0,148z" />
<path style="fill:#7f7f7f;stroke:#000;stroke-width:2" d="M343,214 l4,0 0,-148 -4,0 0,148z" />

</svg>
