

<svg xmlns:agg="http://www.example.com" xmlns="http://www.w3.org/2000/svg" preserveAspectRatio="none" width="1.1526in" height="1.4792in" viewBox="0 0 413 530">

<path style="fill:#7f7f7f" d="M261,441 l0,-361 -35,0 0,361 35,0z" />
<path style="fill:#b2b2b2" d="M257,441 l0,-361 -28,0 0,361 28,0z" />
<path style="fill:#e5e5e5" d="M253,441 l0,-361 -19,0 0,361 19,0z" />
<path style="fill:#fff" d="M246,441 l0,-361 -6,0 0,361 6,0z" />
<path style="fill:none;stroke:#000;stroke-width:2" d="M226,441 l0,-361" />
<path style="fill:none;stroke:#000;stroke-width:2" d="M261,80 l0,361" />
<path style="fill:#7f7f7f" d="M192,50 l0,-35 69,0 -35,35 -34,0z" />
<path style="fill:#7f7f7f" d="M226,84 l35,0 0,-69 -35,35 0,34z" />
<path style="fill:#b2b2b2" d="M258,84 l-29,0 0,-37 29,-29 0,66z" />
<path style="fill:#b2b2b2" d="M192,18 l0,29 37,0 29,-29 -66,0z" />
<path style="fill:#e5e5e5" d="M253,84 l-19,0 0,-42 19,-19 0,61z" />
<path style="fill:#e5e5e5" d="M192,23 l0,19 42,0 19,-19 -61,0z" />
<path style="fill:#fff" d="M192,29 l0,7 48,0 7,-7 -55,0z" />
<path style="fill:#fff" d="M247,84 l-7,0 0,-48 7,-7 0,55z" />
<path style="fill:none;stroke:#000;stroke-width:2" d="M261,84 l0,-69" />
<path style="fill:none;stroke:#000;stroke-width:2" d="M226,50 l0,34" />
<path style="fill:none;stroke:#000;stroke-width:2" d="M191,15 l70,0" />
<path style="fill:none;stroke:#000;stroke-width:2" d="M226,50 l-35,0" />
<path style="fill:#7f7f7f" d="M50,85 l-35,0 0,-70 35,35 0,35z" />
<path style="fill:#7f7f7f" d="M85,50 l0,-35 -70,0 35,35 35,0z" />
<path style="fill:#b2b2b2" d="M85,18 l0,29 -38,0 -29,-29 67,0z" />
<path style="fill:#b2b2b2" d="M18,85 l29,0 0,-38 -29,-29 0,67z" />
<path style="fill:#e5e5e5" d="M85,23 l0,19 -43,0 -19,-19 62,0z" />
<path style="fill:#e5e5e5" d="M23,85 l19,0 0,-43 -19,-19 0,62z" />
<path style="fill:#fff" d="M30,85 l6,0 0,-49 -6,-6 0,55z" />
<path style="fill:#fff" d="M85,29 l0,7 -49,0 -7,-7 56,0z" />
<path style="fill:none;stroke:#000;stroke-width:2" d="M85,15 l-70,0" />
<path style="fill:none;stroke:#000;stroke-width:2" d="M50,50 l35,0" />
<path style="fill:none;stroke:#000;stroke-width:2" d="M15,85 l0,-70" />
<path style="fill:none;stroke:#000;stroke-width:2" d="M50,50 l0,35" />
<path style="fill:#7f7f7f" d="M50,441 l0,-356 -35,0 0,356 35,0z" />
<path style="fill:#b2b2b2" d="M47,441 l0,-356 -28,0 0,356 28,0z" />
<path style="fill:#e5e5e5" d="M42,441 l0,-356 -19,0 0,356 19,0z" />
<path style="fill:#fff" d="M36,441 l0,-356 -7,0 0,356 7,0z" />
<path style="fill:none;stroke:#000;stroke-width:2" d="M15,441 l0,-356" />
<path style="fill:none;stroke:#000;stroke-width:2" d="M50,85 l0,356" />
<path style="fill:#7f7f7f" d="M81,50 l114,0 0,-35 -114,0 0,35z" />
<path style="fill:#b2b2b2" d="M81,46 l114,0 0,-28 -114,0 0,28z" />
<path style="fill:#e5e5e5" d="M81,42 l114,0 0,-19 -114,0 0,19z" />
<path style="fill:#fff" d="M81,36 l114,0 0,-7 -114,0 0,7z" />
<path style="fill:none;stroke:#000;stroke-width:2" d="M81,15 l114,0" />
<path style="fill:none;stroke:#000;stroke-width:2" d="M195,50 l-114,0" />
<path style="fill:#7f7f7f" d="M242,187 l125,0 -3,-25 -7,-24 -12,-21 -15,-18 -19,-16 -21,-11 -23,-7 -25,-3 -25,3 -24,7 -21,11 -18,16 -16,18 -11,21 -7,24 -3,25 125,0z" />
<path style="fill:#999" d="M242,187 l113,0 -2,-25 -7,-24 -10,-21 -14,-18 -17,-16 -19,-11 -21,-7 -23,-3 -23,3 -21,7 -20,11 -17,16 -14,18 -10,21 -7,24 -2,25 114,0z" />
<path style="fill:#b2b2b2" d="M242,187 l89,0 -2,-25 -5,-24 -8,-21 -11,-18 -13,-16 -15,-11 -17,-7 -18,-3 -18,3 -17,7 -15,11 -14,16 -11,18 -8,21 -5,24 -2,25 90,0z" />
<path style="fill:#ccc" d="M242,187 l66,0 -1,-25 -4,-24 -6,-21 -8,-18 -10,-16 -11,-11 -13,-7 -13,-3 -14,3 -12,7 -11,11 -10,16 -9,18 -6,21 -4,24 -1,25 67,0z" />
<path style="fill:#e5e5e5" d="M242,187 l43,0 -1,-25 -2,-24 -5,-21 -5,-18 -6,-16 -8,-11 -8,-7 -8,-3 -9,3 -8,7 -7,11 -6,16 -6,18 -4,21 -2,24 -1,25 43,0z" />
<path style="fill:none;stroke:#000;stroke-width:2" d="M242,187 l125,0 -3,-25 -7,-24 -12,-21 -15,-18 -19,-16 -21,-11 -23,-7 -25,-3 -25,3 -24,7 -21,11 -18,16 -16,18 -11,21 -7,24 -3,25 125,0" />
<path style="fill:#fff" d="M242,187 l11,0 0,-25 -1,-24 -1,-21 -1,-18 -2,-16 -2,-11 -2,-7 -2,-3 -3,3 -2,7 -2,11 -2,16 -1,18 -1,21 -1,24 0,25 12,0z" />
<path style="fill:#7f7f7f" d="M398,515 l0,-152 -309,152 0,-152 309,152z" />
<path style="fill:#999" d="M398,507 l0,-137 -309,137 0,-137 309,137z" />
<path style="fill:#b2b2b2" d="M398,492 l0,-106 -309,106 0,-106 309,106z" />
<path style="fill:#ccc" d="M398,476 l0,-74 -309,74 0,-74 309,74z" />
<path style="fill:#e5e5e5" d="M398,464 l0,-51 -309,51 0,-51 309,51z" />
<path style="fill:#fff" d="M398,449 l0,-20 -309,20 0,-20 309,20z" />
<path style="fill:none;stroke:#000;stroke-width:2" d="M398,515 l0,-152 -309,152 0,-152 309,152" />

</svg>
