

<svg xmlns:agg="http://www.example.com" xmlns="http://www.w3.org/2000/svg" preserveAspectRatio="none" width="0.8869in" height="1.4792in" viewBox="0 0 599 999">

<path style="fill:#4c4c4c;stroke:#000;stroke-width:2" d="M179,702 l211,0 0,23 -211,0 0,-23z" />
<path style="fill:#999;stroke:#000;stroke-width:2" d="M571,744 l-44,0 0,226 44,0 0,-226z" />
<path style="fill:#999;stroke:#000;stroke-width:2" d="M360,812 l167,-23 0,137 -167,-23 0,-91z" />
<path style="fill:#999;stroke:#000;stroke-width:2" d="M194,789 l151,0 15,23 0,91 -15,23 -151,0 0,-137z" />
<path style="fill:#999;stroke:#000;stroke-width:2" d="M179,744 l-45,0 0,226 45,0 0,-226z" />
<path style="fill:#999;stroke:#000;stroke-width:2" d="M224,692 l121,0 0,45 -121,0 0,-45z" />
<path style="fill:#999;stroke:#000;stroke-width:2" d="M345,323 l30,0 0,407 -30,0 0,-407z" />
<path style="fill:#999;stroke:#000;stroke-width:2" d="M261,323 l47,0 0,312 -47,0 0,-312z" />
<path style="fill:#999;stroke:#000;stroke-width:2" d="M194,323 l30,0 0,407 -30,0 0,-407z" />
<path style="fill:#666;stroke:#000;stroke-width:2" d="M33,482 l0,-14 1,-14 2,-15 3,-16 3,-16 5,-15 6,-16 6,-15 7,-14 8,-12 9,-12 10,-10 12,-9 12,-6 13,-3 14,-2 0,8 -12,1 -11,4 -11,6 -10,7 -9,10 -9,11 -8,12 -7,13 -6,14 -5,15 -5,15 -4,15 -3,15 -2,15 -1,14 -1,14 -7,0z" />
<path style="fill:#191919;stroke:#000;stroke-width:2" d="M142,303 l0,-15 15,0 0,15 -15,0z" />
<path style="fill:#333;stroke:#000;stroke-width:2" d="M58,427 l453,0 0,156 -453,0 0,-156z" />
<path style="fill:#666" d="M65,435 l439,0 0,14 -439,0 0,-14z" />
<path style="fill:#191919" d="M65,551 l439,0 0,28 -439,0 0,-28z" />
<path style="fill:#191919;stroke:#000;stroke-width:2" d="M142,390 l285,0 0,225 -285,0 0,-225z" />
<path style="fill:#333;stroke:#000;stroke-width:2" d="M236,149 l0,-62 -5,0 0,-59 107,0 0,59 -5,0 0,62 -97,0z" />
<path style="fill:#ff0;stroke:#000;stroke-width:2" d="M107,239 l3,-23 24,0 16,-52 270,0 15,52 22,0 5,23 -355,0z" />
<path style="fill:#7f7f7f;stroke:#000;stroke-width:2" d="M194,206 l35,0 0,10 -35,0 0,-10z" />
<path style="fill:#7f7f7f;stroke:#000;stroke-width:2" d="M340,206 l35,0 0,10 -35,0 0,-10z" />
<path style="fill:#7f7f7f;stroke:#000;stroke-width:2" d="M420,206 l35,0 0,10 -35,0 0,-10z" />
<path style="fill:#7f7f7f;stroke:#000;stroke-width:2" d="M114,206 l36,0 0,10 -36,0 0,-10z" />
<path style="fill:#999" d="M318,144 l0,-57 5,0 0,-54 -12,0 0,54 -5,0 0,57 12,0z" />
<path style="fill:#963;stroke:#000;stroke-width:2" d="M150,397 l270,0 0,211 -270,0 0,-211z" />
<path style="fill:none;stroke:#000;stroke-width:2" d="M231,462 l107,0 0,81 -107,0 0,-81" />
<path style="fill:none;stroke:#000;stroke-width:2" d="M134,216 l301,0" />
<path style="fill:none;stroke:#000;stroke-width:2" d="M231,87 l107,0" />
<path style="fill:none;stroke:#000;stroke-width:2" d="M345,926 l0,-137" />
<path style="fill:#666;stroke:#000;stroke-width:2" d="M231,360 l107,0 0,23 -107,0 0,-23z" />
<path style="fill:#333" d="M301,365 l32,0 0,15 -32,0 0,-15z" />
<path style="fill:#191919;stroke:#000;stroke-width:2" d="M58,514 l-30,0 0,-32 15,0 0,14 15,0 0,18z" />
<path style="fill:#333;stroke:#000;stroke-width:2" d="M355,318 l47,0 0,22 -47,0 0,-22z" />
<path style="fill:#000;stroke:#000;stroke-width:2" d="M244,149 l82,0 0,15 -82,0 0,-15z" />
<path style="fill:#000;stroke:#000;stroke-width:2" d="M283,338 l-29,-4 -30,-4 -30,-3 -30,-4 -2,-1 -12,-24 -8,-27 -6,-9 -2,-1 -32,0 5,-22 355,0 2,22 -3,0 -26,0 -2,1 -11,24 -9,27 -6,9 -32,5 -30,3 -30,4 -24,3 -8,1z" />
<path style="fill:#666;stroke:#000;stroke-width:2" d="M246,635 l77,0 0,50 -77,0 0,-50z" />
<path style="fill:#000;stroke:#000;stroke-width:2" d="M254,685 l61,0 0,7 -61,0 0,-7z" />
<path style="fill:#666;stroke:#000;stroke-width:2" d="M254,737 l61,0 0,75 -61,0 0,-75z" />
<path style="fill:#666" d="M529,968 l37,0 0,-70 -37,0 0,70z" />
<path style="fill:#666" d="M521,920 l0,-36 -158,0 0,14 158,22z" />
<path style="fill:#666" d="M137,968 l37,0 0,-70 -37,0 0,70z" />
<path style="fill:#b2b2b2" d="M529,796 l37,0 0,-47 -37,0 0,47z" />
<path style="fill:#b2b2b2" d="M521,794 l0,37 -158,0 0,-15 158,-22z" />
<path style="fill:#b2b2b2" d="M137,796 l37,0 0,-47 -37,0 0,47z" />
<path style="fill:#b2b2b2" d="M236,365 l15,0 0,15 -15,0 0,-15z" />
<path style="fill:#666;stroke:#000;stroke-width:2" d="M194,767 l-15,0 0,181 15,0 0,-181z" />
<path style="fill:#ff6;stroke:#000;stroke-width:2" d="M439,216 l-7,-57 -22,0 0,57 29,0z" />
<path style="fill:#ff6;stroke:#000;stroke-width:2" d="M268,216 l6,-57 22,0 5,57 -33,0z" />
<path style="fill:#ff6;stroke:#000;stroke-width:2" d="M130,216 l7,-57 22,0 0,57 -29,0z" />

</svg>
