 
<svg version="1.1" id="_x30_" xmlns="http://www.w3.org/2000/svg" preserveAspectRatio="none"   xmlns:agg="http://www.example.com"  x="0px" y="0px"
	   viewBox="-13.49 -12.241 78.63 77.874" enable-background="new -13.49 -12.241 78.63 77.874"
	 xml:space="preserve">

<agg:params>
	<agg:param type="C" name="color" description="Color" cssAttributes="fill" classes="color"/>
	<agg:param type="F" name="saturation" description="Saturation" min="0" max="1" cssAttributes="opacity" classes="color"/>
</agg:params>

<style type="text/css" >
   <![CDATA[

	.stroke,.thin{
		stroke-width:0.3;
		stroke-linecap:round;
		stroke-linejoin:round;
		stroke: black;
	}

	.stroke{stroke-width:0.3}

	.thin {stroke-width:0.15}
	
	.color {
		fill:#3664BF;
		opacity:0.2;
	}

      ]]>
</style>

<g>
	<linearGradient id="SVGID_1_" gradientUnits="userSpaceOnUse" x1="55.9329" y1="22.0959" x2="55.9329" y2="64.0964">
		<stop  offset="0.0051" style="stop-color:#4C5B75"/>
		<stop  offset="0.0323" style="stop-color:#616F86"/>
		<stop  offset="0.098" style="stop-color:#8E99AA"/>
		<stop  offset="0.1641" style="stop-color:#B4BCC7"/>
		<stop  offset="0.2298" style="stop-color:#D1D7DE"/>
		<stop  offset="0.2946" style="stop-color:#E5EAEF"/>
		<stop  offset="0.3584" style="stop-color:#F2F6F9"/>
		<stop  offset="0.42" style="stop-color:#F6FAFC"/>
		<stop  offset="0.4744" style="stop-color:#F2F6F8"/>
		<stop  offset="0.5308" style="stop-color:#E6E9EC"/>
		<stop  offset="0.5882" style="stop-color:#D3D5D7"/>
		<stop  offset="0.6461" style="stop-color:#B7B8BB"/>
		<stop  offset="0.704" style="stop-color:#949396"/>
		<stop  offset="0.72" style="stop-color:#89878B"/>
		<stop  offset="1" style="stop-color:#F6FAFC"/>
	</linearGradient>
	<polygon fill="url(#SVGID_1_)" points="61.752,22.386 61.752,64.216 50.113,64.216 50.113,55.896 50.113,31.006 50.113,22.386 	"/>
	<linearGradient id="SVGID_2_" gradientUnits="userSpaceOnUse" x1="-4.2825" y1="22.0959" x2="-4.2825" y2="64.0964">
		<stop  offset="0.0051" style="stop-color:#4C5B75"/>
		<stop  offset="0.0323" style="stop-color:#616F86"/>
		<stop  offset="0.098" style="stop-color:#8E99AA"/>
		<stop  offset="0.1641" style="stop-color:#B4BCC7"/>
		<stop  offset="0.2298" style="stop-color:#D1D7DE"/>
		<stop  offset="0.2946" style="stop-color:#E5EAEF"/>
		<stop  offset="0.3584" style="stop-color:#F2F6F9"/>
		<stop  offset="0.42" style="stop-color:#F6FAFC"/>
		<stop  offset="0.4744" style="stop-color:#F2F6F8"/>
		<stop  offset="0.5308" style="stop-color:#E6E9EC"/>
		<stop  offset="0.5882" style="stop-color:#D3D5D7"/>
		<stop  offset="0.6461" style="stop-color:#B7B8BB"/>
		<stop  offset="0.704" style="stop-color:#949396"/>
		<stop  offset="0.72" style="stop-color:#89878B"/>
		<stop  offset="1" style="stop-color:#F6FAFC"/>
	</linearGradient>
	<rect x="-10.097" y="22.386" fill="url(#SVGID_2_)"  />
	<linearGradient id="SVGID_3_" gradientUnits="userSpaceOnUse" x1="22.4221" y1="9.116" x2="28.7825" y2="9.116">
		<stop  offset="0.0051" style="stop-color:#4C5B75"/>
		<stop  offset="0.0323" style="stop-color:#616F86"/>
		<stop  offset="0.098" style="stop-color:#8E99AA"/>
		<stop  offset="0.1641" style="stop-color:#B4BCC7"/>
		<stop  offset="0.2298" style="stop-color:#D1D7DE"/>
		<stop  offset="0.2946" style="stop-color:#E5EAEF"/>
		<stop  offset="0.3584" style="stop-color:#F2F6F9"/>
		<stop  offset="0.42" style="stop-color:#F6FAFC"/>
		<stop  offset="0.4744" style="stop-color:#F2F6F8"/>
		<stop  offset="0.5308" style="stop-color:#E6E9EC"/>
		<stop  offset="0.5882" style="stop-color:#D3D5D7"/>
		<stop  offset="0.6461" style="stop-color:#B7B8BB"/>
		<stop  offset="0.704" style="stop-color:#949396"/>
		<stop  offset="0.72" style="stop-color:#89878B"/>
		<stop  offset="1" style="stop-color:#F6FAFC"/>
	</linearGradient>
	<rect x="22.422" y="1.306" fill="url(#SVGID_3_)"  />
	<linearGradient id="SVGID_4_" gradientUnits="userSpaceOnUse" x1="22.4221" y1="-3.0139" x2="28.7825" y2="-3.0139">
		<stop  offset="0.0051" style="stop-color:#4C5B75"/>
		<stop  offset="0.0323" style="stop-color:#616F86"/>
		<stop  offset="0.098" style="stop-color:#8E99AA"/>
		<stop  offset="0.1641" style="stop-color:#B4BCC7"/>
		<stop  offset="0.2298" style="stop-color:#D1D7DE"/>
		<stop  offset="0.2946" style="stop-color:#E5EAEF"/>
		<stop  offset="0.3584" style="stop-color:#F2F6F9"/>
		<stop  offset="0.42" style="stop-color:#F6FAFC"/>
		<stop  offset="0.4744" style="stop-color:#F2F6F8"/>
		<stop  offset="0.5308" style="stop-color:#E6E9EC"/>
		<stop  offset="0.5882" style="stop-color:#D3D5D7"/>
		<stop  offset="0.6461" style="stop-color:#B7B8BB"/>
		<stop  offset="0.704" style="stop-color:#949396"/>
		<stop  offset="0.72" style="stop-color:#89878B"/>
		<stop  offset="1" style="stop-color:#F6FAFC"/>
	</linearGradient>
	<rect x="22.422" y="-4.604" fill="url(#SVGID_4_)"  />
	<linearGradient id="SVGID_5_" gradientUnits="userSpaceOnUse" x1="-4.5173" y1="-7.7141" x2="55.7229" y2="-7.7141">
		<stop  offset="0.0051" style="stop-color:#4C5B75"/>
		<stop  offset="0.0323" style="stop-color:#616F86"/>
		<stop  offset="0.098" style="stop-color:#8E99AA"/>
		<stop  offset="0.1641" style="stop-color:#B4BCC7"/>
		<stop  offset="0.2298" style="stop-color:#D1D7DE"/>
		<stop  offset="0.2946" style="stop-color:#E5EAEF"/>
		<stop  offset="0.3584" style="stop-color:#F2F6F9"/>
		<stop  offset="0.42" style="stop-color:#F6FAFC"/>
		<stop  offset="0.4744" style="stop-color:#F2F6F8"/>
		<stop  offset="0.5308" style="stop-color:#E6E9EC"/>
		<stop  offset="0.5882" style="stop-color:#D3D5D7"/>
		<stop  offset="0.6461" style="stop-color:#B7B8BB"/>
		<stop  offset="0.704" style="stop-color:#949396"/>
		<stop  offset="0.72" style="stop-color:#89878B"/>
		<stop  offset="1" style="stop-color:#F6FAFC"/>
	</linearGradient>
	<polygon fill="url(#SVGID_5_)" points="55.723,-10.824 55.723,-4.604 28.782,-4.604 22.422,-4.604 -4.517,-4.604 -4.517,-10.824 	
		"/>
	<linearGradient id="SVGID_6_" gradientUnits="userSpaceOnUse" x1="16.2229" y1="7.7512" x2="34.9827" y2="7.7512">
		<stop  offset="0.0051" style="stop-color:#4C5B75"/>
		<stop  offset="0.0323" style="stop-color:#616F86"/>
		<stop  offset="0.098" style="stop-color:#8E99AA"/>
		<stop  offset="0.1641" style="stop-color:#B4BCC7"/>
		<stop  offset="0.2298" style="stop-color:#D1D7DE"/>
		<stop  offset="0.2946" style="stop-color:#E5EAEF"/>
		<stop  offset="0.3584" style="stop-color:#F2F6F9"/>
		<stop  offset="0.42" style="stop-color:#F6FAFC"/>
		<stop  offset="0.4744" style="stop-color:#F2F6F8"/>
		<stop  offset="0.5308" style="stop-color:#E6E9EC"/>
		<stop  offset="0.5882" style="stop-color:#D3D5D7"/>
		<stop  offset="0.6461" style="stop-color:#B7B8BB"/>
		<stop  offset="0.704" style="stop-color:#949396"/>
		<stop  offset="0.72" style="stop-color:#89878B"/>
		<stop  offset="1" style="stop-color:#F6FAFC"/>
	</linearGradient>
	<polygon fill="url(#SVGID_6_)" points="34.983,-1.424 34.983,16.926 32.252,16.926 32.252,1.306 28.782,1.306 22.422,1.306 
		18.952,1.306 18.952,16.926 16.223,16.926 16.223,-1.424 22.422,-1.424 28.782,-1.424 	"/>
	<linearGradient id="SVGID_7_" gradientUnits="userSpaceOnUse" x1="4.8625" y1="22.8411" x2="46.6428" y2="22.8411">
		<stop  offset="0.0051" style="stop-color:#4C5B75"/>
		<stop  offset="0.0323" style="stop-color:#616F86"/>
		<stop  offset="0.098" style="stop-color:#8E99AA"/>
		<stop  offset="0.1641" style="stop-color:#B4BCC7"/>
		<stop  offset="0.2298" style="stop-color:#D1D7DE"/>
		<stop  offset="0.2946" style="stop-color:#E5EAEF"/>
		<stop  offset="0.3584" style="stop-color:#F2F6F9"/>
		<stop  offset="0.42" style="stop-color:#F6FAFC"/>
		<stop  offset="0.4744" style="stop-color:#F2F6F8"/>
		<stop  offset="0.5308" style="stop-color:#E6E9EC"/>
		<stop  offset="0.5882" style="stop-color:#D3D5D7"/>
		<stop  offset="0.6461" style="stop-color:#B7B8BB"/>
		<stop  offset="0.704" style="stop-color:#949396"/>
		<stop  offset="0.72" style="stop-color:#89878B"/>
		<stop  offset="1" style="stop-color:#F6FAFC"/>
	</linearGradient>
	<polygon fill="url(#SVGID_7_)" points="46.643,16.926 46.643,28.756 4.863,28.756 4.863,16.926 16.223,16.926 18.952,16.926 
		22.422,16.926 28.782,16.926 32.252,16.926 34.983,16.926 	"/>
	<linearGradient id="SVGID_8_" gradientUnits="userSpaceOnUse" x1="13.4924" y1="33.1067" x2="38.1624" y2="33.1067">
		<stop  offset="0.0051" style="stop-color:#4C5B75"/>
		<stop  offset="0.0323" style="stop-color:#616F86"/>
		<stop  offset="0.098" style="stop-color:#8E99AA"/>
		<stop  offset="0.1641" style="stop-color:#B4BCC7"/>
		<stop  offset="0.2298" style="stop-color:#D1D7DE"/>
		<stop  offset="0.2946" style="stop-color:#E5EAEF"/>
		<stop  offset="0.3584" style="stop-color:#F2F6F9"/>
		<stop  offset="0.42" style="stop-color:#F6FAFC"/>
		<stop  offset="0.4744" style="stop-color:#F2F6F8"/>
		<stop  offset="0.5308" style="stop-color:#E6E9EC"/>
		<stop  offset="0.5882" style="stop-color:#D3D5D7"/>
		<stop  offset="0.6461" style="stop-color:#B7B8BB"/>
		<stop  offset="0.704" style="stop-color:#949396"/>
		<stop  offset="0.72" style="stop-color:#89878B"/>
		<stop  offset="1" style="stop-color:#F6FAFC"/>
	</linearGradient>
	<path fill="url(#SVGID_8_)" d="M38.162,28.756c0,0.75,0,1.5,0,2.25c0,2.68-2.95,4.38-4.939,5.16c-2.42,0.949-4.82,1.29-7.4,1.29
		c-2.57,0-4.97-0.341-7.4-1.29c-1.979-0.78-4.93-2.48-4.93-5.16c0-0.75,0-1.5,0-2.25H38.162z"/>
	<linearGradient id="SVGID_9_" gradientUnits="userSpaceOnUse" x1="25.822" y1="30.8459" x2="25.822" y2="55.8459">
		<stop  offset="0.0051" style="stop-color:#4C5B75"/>
		<stop  offset="0.0323" style="stop-color:#616F86"/>
		<stop  offset="0.098" style="stop-color:#8E99AA"/>
		<stop  offset="0.1641" style="stop-color:#B4BCC7"/>
		<stop  offset="0.2298" style="stop-color:#D1D7DE"/>
		<stop  offset="0.2946" style="stop-color:#E5EAEF"/>
		<stop  offset="0.3584" style="stop-color:#F2F6F9"/>
		<stop  offset="0.42" style="stop-color:#F6FAFC"/>
		<stop  offset="0.4744" style="stop-color:#F2F6F8"/>
		<stop  offset="0.5308" style="stop-color:#E6E9EC"/>
		<stop  offset="0.5882" style="stop-color:#D3D5D7"/>
		<stop  offset="0.6461" style="stop-color:#B7B8BB"/>
		<stop  offset="0.704" style="stop-color:#949396"/>
		<stop  offset="0.72" style="stop-color:#89878B"/>
		<stop  offset="1" style="stop-color:#F6FAFC"/>
	</linearGradient>
	<path fill="url(#SVGID_9_)" d="M50.113,31.006v24.89H1.532v-24.89h11.96c0,2.68,2.95,4.38,4.93,5.16
		c2.431,0.949,4.83,1.29,7.4,1.29c2.58,0,4.98-0.341,7.4-1.29c1.989-0.78,4.939-2.48,4.939-5.16H50.113z"/>
</g>

<path class="color" d="M50.113,22.386v8.62h-11.95c0-0.75,0-1.5,0-2.25h8.48v-11.83h-11.66v-18.35h-6.2v-3.181h26.94
	v-6.22h-60.24v6.22h26.939v3.181h-6.199v18.35H4.863v11.83h8.63c0,0.75,0,1.5,0,2.25H1.532v-8.62h-11.63v41.83h11.63v-8.32h48.58
	v8.32h11.64v-41.83H50.113z M32.252,1.306v15.62h-3.47V1.306H32.252z M18.952,1.306h3.47v15.62h-3.47V1.306z"/>

<g opacity="0.5" class="stroke">
		<line fill="none"  x1="28.782" y1="1.306" x2="28.782" y2="16.926"/>
	
		<line fill="none"  x1="28.782" y1="-4.604" x2="28.782" y2="-1.424"/>
	
		<line fill="none"  x1="22.422" y1="-1.424" x2="22.422" y2="-4.604"/>
	
		<line fill="none"  x1="22.422" y1="16.926" x2="22.422" y2="1.306"/>
	<polyline fill="none"  points="
		32.252,16.926 32.252,1.306 28.782,1.306 22.422,1.306 18.952,1.306 18.952,16.926 	"/>
	<polyline fill="none"  points="
		16.223,16.926 16.223,-1.424 22.422,-1.424 28.782,-1.424 34.983,-1.424 34.983,16.926 	"/>
	
		<line fill="none"  x1="38.162" y1="31.006" x2="50.113" y2="31.006"/>
	
		<line fill="none"  x1="1.532" y1="31.006" x2="13.492" y2="31.006"/>
	
		<line fill="none"  x1="4.863" y1="22.836" x2="46.643" y2="22.836"/>
	<polyline fill="none"  points="
		38.162,28.756 46.643,28.756 46.643,22.836 46.643,16.926 34.983,16.926 32.252,16.926 28.782,16.926 22.422,16.926 18.952,16.926 
		16.223,16.926 4.863,16.926 4.863,22.836 4.863,28.756 13.492,28.756 	"/>
	
		<line fill="none"  x1="55.932" y1="22.386" x2="55.932" y2="64.216"/>
	
		<line fill="none"  x1="-4.277" y1="22.386" x2="-4.277" y2="64.216"/>
	
		<line fill="none"  x1="1.532" y1="55.896" x2="50.113" y2="55.896"/>
	<polygon fill="none"  points="
		50.113,31.006 50.113,22.386 55.933,22.386 61.752,22.386 61.752,64.216 55.933,64.216 50.113,64.216 50.113,55.896 	"/>
	<polygon fill="none"  points="
		22.422,-4.604 -4.517,-4.604 -4.517,-10.824 55.723,-10.824 55.723,-4.604 28.782,-4.604 	"/>
	
		<line fill="none"  x1="38.162" y1="28.756" x2="13.492" y2="28.756"/>
	<path fill="none"  d="M13.492,28.756
		c0,0.75,0,1.5,0,2.25c0,2.68,2.95,4.38,4.93,5.16c2.431,0.949,4.83,1.29,7.4,1.29c2.58,0,4.98-0.341,7.4-1.29
		c1.989-0.78,4.939-2.48,4.939-5.16c0-0.75,0-1.5,0-2.25"/>
	<polygon fill="none"  points="
		1.532,31.006 1.532,22.386 -4.277,22.386 -10.097,22.386 -10.097,64.216 -4.277,64.216 1.532,64.216 1.532,55.896 	"/>
</g>

<g id="nuts" fill="#606060">
	<rect x="61.747" y="24.341"  />
	<rect x="61.747" y="40.109"  />
	<rect x="61.747" y="55.896"  />
	<rect x="48.139" y="24.341"  />
	<rect x="48.139" y="40.109"  />
	<rect x="48.139" y="55.896"  />
	<rect x="-12.073" y="24.341"  />
	<rect x="-12.073" y="40.109"  />
	<rect x="-12.073" y="55.896"  />
	<rect x="1.534" y="24.341"  />
	<rect x="1.534" y="40.109"  />
	<rect x="1.534" y="55.896"  />
</g>
</svg>
