

<svg xmlns:agg="http://www.example.com" xmlns="http://www.w3.org/2000/svg" preserveAspectRatio="none" width="1.1526in" height="1.4792in" viewBox="0 0 413 530">

<path style="fill:#7f7f7f" d="M152,441 l0,-361 35,0 0,361 -35,0z" />
<path style="fill:#b2b2b2" d="M156,441 l0,-361 28,0 0,361 -28,0z" />
<path style="fill:#e5e5e5" d="M160,441 l0,-361 19,0 0,361 -19,0z" />
<path style="fill:#fff" d="M166,441 l0,-361 7,0 0,361 -7,0z" />
<path style="fill:none;stroke:#000;stroke-width:2" d="M187,441 l0,-361" />
<path style="fill:none;stroke:#000;stroke-width:2" d="M152,80 l0,361" />
<path style="fill:#7f7f7f" d="M221,50 l0,-35 -69,0 35,35 34,0z" />
<path style="fill:#7f7f7f" d="M186,85 l-34,0 0,-70 34,35 0,35z" />
<path style="fill:#b2b2b2" d="M155,85 l28,0 0,-38 -28,-29 0,67z" />
<path style="fill:#b2b2b2" d="M221,18 l0,29 -37,0 -29,-29 66,0z" />
<path style="fill:#e5e5e5" d="M160,85 l19,0 0,-43 -19,-19 0,62z" />
<path style="fill:#e5e5e5" d="M221,23 l0,19 -42,0 -19,-19 61,0z" />
<path style="fill:#fff" d="M221,30 l0,6 -48,0 -7,-6 55,0z" />
<path style="fill:#fff" d="M166,85 l6,0 0,-49 -6,-7 0,56z" />
<path style="fill:none;stroke:#000;stroke-width:2" d="M152,85 l0,-70" />
<path style="fill:none;stroke:#000;stroke-width:2" d="M186,50 l0,35" />
<path style="fill:none;stroke:#000;stroke-width:2" d="M221,15 l-69,0" />
<path style="fill:none;stroke:#000;stroke-width:2" d="M187,50 l34,0" />
<path style="fill:#7f7f7f" d="M363,85 l34,0 0,-70 -34,35 0,35z" />
<path style="fill:#7f7f7f" d="M328,50 l0,-35 70,0 -35,35 -35,0z" />
<path style="fill:#b2b2b2" d="M328,18 l0,29 38,0 28,-29 -66,0z" />
<path style="fill:#b2b2b2" d="M394,85 l-28,0 0,-38 28,-28 0,66z" />
<path style="fill:#e5e5e5" d="M328,23 l0,19 43,0 19,-19 -62,0z" />
<path style="fill:#e5e5e5" d="M389,85 l-18,0 0,-43 18,-19 0,62z" />
<path style="fill:#fff" d="M383,85 l-6,0 0,-49 6,-6 0,55z" />
<path style="fill:#fff" d="M328,29 l0,7 49,0 6,-7 -55,0z" />
<path style="fill:none;stroke:#000;stroke-width:2" d="M328,15 l70,0" />
<path style="fill:none;stroke:#000;stroke-width:2" d="M363,50 l-35,0" />
<path style="fill:none;stroke:#000;stroke-width:2" d="M398,85 l0,-70" />
<path style="fill:none;stroke:#000;stroke-width:2" d="M363,50 l0,35" />
<path style="fill:#7f7f7f" d="M363,441 l0,-356 35,0 0,356 -35,0z" />
<path style="fill:#b2b2b2" d="M366,441 l0,-356 28,0 0,356 -28,0z" />
<path style="fill:#e5e5e5" d="M371,441 l0,-356 19,0 0,356 -19,0z" />
<path style="fill:#fff" d="M377,441 l0,-356 6,0 0,356 -6,0z" />
<path style="fill:none;stroke:#000;stroke-width:2" d="M398,441 l0,-356" />
<path style="fill:none;stroke:#000;stroke-width:2" d="M363,85 l0,356" />
<path style="fill:#7f7f7f" d="M331,50 l-113,0 0,-35 113,0 0,35z" />
<path style="fill:#b2b2b2" d="M331,46 l-113,0 0,-28 113,0 0,28z" />
<path style="fill:#e5e5e5" d="M331,42 l-113,0 0,-19 113,0 0,19z" />
<path style="fill:#fff" d="M331,36 l-113,0 0,-7 113,0 0,7z" />
<path style="fill:none;stroke:#000;stroke-width:2" d="M331,15 l-113,0" />
<path style="fill:none;stroke:#000;stroke-width:2" d="M218,50 l113,0" />
<path style="fill:#7f7f7f" d="M171,187 l-125,0 3,-25 7,-24 11,-21 16,-18 18,-16 21,-11 24,-7 25,-3 25,3 24,7 21,11 18,16 16,18 11,21 7,24 3,25 -125,0z" />
<path style="fill:#999" d="M171,187 l-113,0 2,-25 7,-24 10,-21 14,-18 17,-16 19,-11 21,-7 23,-3 23,3 21,7 19,11 17,16 14,18 10,21 7,24 2,25 -113,0z" />
<path style="fill:#b2b2b2" d="M171,187 l-90,0 2,-25 5,-24 9,-21 11,-18 13,-16 15,-11 17,-7 18,-3 18,3 17,7 15,11 14,16 11,18 8,21 5,24 2,25 -90,0z" />
<path style="fill:#ccc" d="M171,187 l-66,0 1,-25 4,-24 6,-21 9,-18 9,-16 12,-11 12,-7 13,-3 14,3 12,7 11,11 10,16 9,18 6,21 4,24 1,25 -67,0z" />
<path style="fill:#e5e5e5" d="M171,187 l-43,0 1,-25 2,-24 5,-21 5,-18 6,-16 8,-11 8,-7 8,-3 9,3 8,7 7,11 7,16 5,18 4,21 2,24 1,25 -43,0z" />
<path style="fill:none;stroke:#000;stroke-width:2" d="M171,187 l-125,0 3,-25 7,-24 11,-21 16,-18 18,-16 21,-11 24,-7 25,-3 25,3 24,7 21,11 18,16 16,18 11,21 7,24 3,25 -125,0" />
<path style="fill:#fff" d="M171,187 l-12,0 0,-25 1,-24 1,-21 2,-18 2,-16 2,-11 2,-7 2,-3 3,3 2,7 2,11 2,16 1,18 1,21 1,24 0,25 -12,0z" />
<path style="fill:#7f7f7f" d="M15,515 l0,-152 308,152 0,-152 -308,152z" />
<path style="fill:#999" d="M15,507 l0,-137 308,137 0,-137 -308,137z" />
<path style="fill:#b2b2b2" d="M15,492 l0,-106 308,106 0,-106 -308,106z" />
<path style="fill:#ccc" d="M15,476 l0,-74 308,74 0,-74 -308,74z" />
<path style="fill:#e5e5e5" d="M15,464 l0,-51 308,51 0,-51 -308,51z" />
<path style="fill:#fff" d="M15,449 l0,-20 308,20 0,-20 -308,20z" />
<path style="fill:none;stroke:#000;stroke-width:2" d="M15,515 l0,-152 308,152 0,-152 -308,152" />

</svg>
