

<svg xmlns:agg="http://www.example.com" xmlns="http://www.w3.org/2000/svg" preserveAspectRatio="none" width="1.6914in" height="1.4792in" viewBox="0 0 534 467">

<path style="fill:#7f7f7f" d="M106,228 l322,0 0,168 -322,0 0,-168z" />
<path style="fill:#999" d="M106,238 l322,0 0,148 -322,0 0,-148z" />
<path style="fill:#b2b2b2" d="M106,256 l322,0 0,112 -322,0 0,-112z" />
<path style="fill:#ccc" d="M106,274 l322,0 0,77 -322,0 0,-77z" />
<path style="fill:#e5e5e5" d="M106,287 l322,0 0,50 -322,0 0,-50z" />
<path style="fill:#fff" d="M106,302 l322,0 0,20 -322,0 0,-20z" />
<path style="fill:none;stroke:#000;stroke-width:2" d="M106,396 l322,0" />
<path style="fill:none;stroke:#000;stroke-width:2" d="M428,228 l-322,0" />
<path style="fill:#7f7f7f;stroke:#000;stroke-width:2" d="M107,230 l13,-5 0,-35 -13,-6 0,46z" />
<path style="fill:#7f7f7f;stroke:#000;stroke-width:2" d="M107,335 l13,-5 0,-35 -13,-6 0,46z" />
<path style="fill:#7f7f7f;stroke:#000;stroke-width:2" d="M107,440 l13,-5 0,-35 -13,-6 0,46z" />
<path style="fill:#7f7f7f;stroke:#000;stroke-width:2" d="M28,230 l-13,-5 0,-35 13,-6 0,46z" />
<path style="fill:#7f7f7f;stroke:#000;stroke-width:2" d="M28,335 l-13,-5 0,-35 13,-6 0,46z" />
<path style="fill:#7f7f7f;stroke:#000;stroke-width:2" d="M28,440 l-13,-5 0,-35 13,-6 0,46z" />
<path style="fill:#b2b2b2;stroke:#000;stroke-width:2" d="M107,222 l13,-3 0,-29 -13,-6 0,38z" />
<path style="fill:#b2b2b2;stroke:#000;stroke-width:2" d="M107,327 l13,-3 0,-29 -13,-6 0,38z" />
<path style="fill:#b2b2b2;stroke:#000;stroke-width:2" d="M107,432 l13,-3 0,-29 -13,-6 0,38z" />
<path style="fill:#b2b2b2;stroke:#000;stroke-width:2" d="M28,222 l-13,-3 0,-29 13,-6 0,38z" />
<path style="fill:#b2b2b2;stroke:#000;stroke-width:2" d="M28,327 l-13,-3 0,-29 13,-6 0,38z" />
<path style="fill:#b2b2b2;stroke:#000;stroke-width:2" d="M28,432 l-13,-3 0,-29 13,-6 0,38z" />
<path style="fill:#7f7f7f" d="M28,172 l40,0 0,280 -40,0 0,-280z" />
<path style="fill:#999" d="M28,189 l40,0 0,246 -40,0 0,-246z" />
<path style="fill:#b2b2b2" d="M28,219 l40,0 0,187 -40,0 0,-187z" />
<path style="fill:#ccc" d="M28,248 l40,0 0,129 -40,0 0,-129z" />
<path style="fill:#e5e5e5" d="M28,271 l40,0 0,82 -40,0 0,-82z" />
<path style="fill:#fff" d="M28,295 l40,0 0,34 -40,0 0,-34z" />
<path style="fill:none;stroke:#000;stroke-width:2" d="M28,172 l40,0 0,280 -40,0 0,-280" />
<path style="fill:#e5e5e5;stroke:#000;stroke-width:2" d="M15,195 l0,-5 13,-6 0,9 -13,2z" />
<path style="fill:#e5e5e5;stroke:#000;stroke-width:2" d="M15,300 l0,-5 13,-6 0,9 -13,2z" />
<path style="fill:#e5e5e5;stroke:#000;stroke-width:2" d="M15,405 l0,-5 13,-6 0,8 -13,3z" />
<path style="fill:#e5e5e5;stroke:#000;stroke-width:2" d="M120,195 l0,-5 -13,-6 0,9 13,2z" />
<path style="fill:#e5e5e5;stroke:#000;stroke-width:2" d="M120,300 l0,-5 -13,-6 0,9 13,2z" />
<path style="fill:#e5e5e5;stroke:#000;stroke-width:2" d="M120,405 l0,-5 -13,-6 0,8 13,3z" />
<path style="fill:#7f7f7f" d="M107,172 l-39,0 0,280 39,0 0,-280z" />
<path style="fill:#999" d="M107,189 l-39,0 0,246 39,0 0,-246z" />
<path style="fill:#b2b2b2" d="M107,219 l-39,0 0,187 39,0 0,-187z" />
<path style="fill:#ccc" d="M107,248 l-39,0 0,129 39,0 0,-129z" />
<path style="fill:#e5e5e5" d="M107,271 l-39,0 0,82 39,0 0,-82z" />
<path style="fill:#fff" d="M107,295 l-39,0 0,34 39,0 0,-34z" />
<path style="fill:none;stroke:#000;stroke-width:2" d="M107,172 l-39,0 0,280 39,0 0,-280" />
<path style="fill:#7f7f7f;stroke:#000;stroke-width:2" d="M506,230 l13,-5 0,-35 -13,-6 0,46z" />
<path style="fill:#7f7f7f;stroke:#000;stroke-width:2" d="M506,335 l13,-5 0,-35 -13,-6 0,46z" />
<path style="fill:#7f7f7f;stroke:#000;stroke-width:2" d="M506,440 l13,-5 0,-35 -13,-6 0,46z" />
<path style="fill:#7f7f7f;stroke:#000;stroke-width:2" d="M427,230 l-13,-5 0,-35 13,-6 0,46z" />
<path style="fill:#7f7f7f;stroke:#000;stroke-width:2" d="M427,335 l-13,-5 0,-35 13,-6 0,46z" />
<path style="fill:#7f7f7f;stroke:#000;stroke-width:2" d="M427,440 l-13,-5 0,-35 13,-6 0,46z" />
<path style="fill:#b2b2b2;stroke:#000;stroke-width:2" d="M506,222 l13,-3 0,-29 -13,-6 0,38z" />
<path style="fill:#b2b2b2;stroke:#000;stroke-width:2" d="M506,327 l13,-3 0,-29 -13,-6 0,38z" />
<path style="fill:#b2b2b2;stroke:#000;stroke-width:2" d="M506,432 l13,-3 0,-29 -13,-6 0,38z" />
<path style="fill:#b2b2b2;stroke:#000;stroke-width:2" d="M427,222 l-13,-3 0,-29 13,-6 0,38z" />
<path style="fill:#b2b2b2;stroke:#000;stroke-width:2" d="M427,327 l-13,-3 0,-29 13,-6 0,38z" />
<path style="fill:#b2b2b2;stroke:#000;stroke-width:2" d="M427,432 l-13,-3 0,-29 13,-6 0,38z" />
<path style="fill:#7f7f7f" d="M427,172 l39,0 0,280 -39,0 0,-280z" />
<path style="fill:#999" d="M427,189 l39,0 0,246 -39,0 0,-246z" />
<path style="fill:#b2b2b2" d="M427,219 l39,0 0,187 -39,0 0,-187z" />
<path style="fill:#ccc" d="M427,248 l39,0 0,129 -39,0 0,-129z" />
<path style="fill:#e5e5e5" d="M427,271 l39,0 0,82 -39,0 0,-82z" />
<path style="fill:#fff" d="M427,295 l39,0 0,34 -39,0 0,-34z" />
<path style="fill:none;stroke:#000;stroke-width:2" d="M427,172 l39,0 0,280 -39,0 0,-280" />
<path style="fill:#e5e5e5;stroke:#000;stroke-width:2" d="M414,195 l0,-5 13,-6 0,9 -13,2z" />
<path style="fill:#e5e5e5;stroke:#000;stroke-width:2" d="M414,300 l0,-5 13,-6 0,9 -13,2z" />
<path style="fill:#e5e5e5;stroke:#000;stroke-width:2" d="M414,405 l0,-5 13,-6 0,8 -13,3z" />
<path style="fill:#e5e5e5;stroke:#000;stroke-width:2" d="M519,195 l0,-5 -13,-6 0,9 13,2z" />
<path style="fill:#e5e5e5;stroke:#000;stroke-width:2" d="M519,300 l0,-5 -13,-6 0,9 13,2z" />
<path style="fill:#e5e5e5;stroke:#000;stroke-width:2" d="M519,405 l0,-5 -13,-6 0,8 13,3z" />
<path style="fill:#7f7f7f" d="M506,172 l-40,0 0,280 40,0 0,-280z" />
<path style="fill:#999" d="M506,189 l-40,0 0,246 40,0 0,-246z" />
<path style="fill:#b2b2b2" d="M506,219 l-40,0 0,187 40,0 0,-187z" />
<path style="fill:#ccc" d="M506,248 l-40,0 0,129 40,0 0,-129z" />
<path style="fill:#e5e5e5" d="M506,271 l-40,0 0,82 40,0 0,-82z" />
<path style="fill:#fff" d="M506,295 l-40,0 0,34 40,0 0,-34z" />
<path style="fill:none;stroke:#000;stroke-width:2" d="M506,172 l-40,0 0,280 40,0 0,-280" />
<path style="fill:#4c4c4c;stroke:#000;stroke-width:2" d="M123,188 l119,-118 -25,-25 -119,119 25,24z" />
<path style="fill:#666;stroke:#000;stroke-width:2" d="M88,154 l119,-119 10,10 -119,119 -10,-10z" />
<path style="fill:#999;stroke:#000;stroke-width:2" d="M98,144 l30,-30 -15,-15 -30,30 15,15z" />
<path style="fill:#b2b2b2;stroke:#000;stroke-width:2" d="M113,99 l50,-49 14,15 -49,49 -15,-15z" />
<path style="fill:#ccc;stroke:#000;stroke-width:2" d="M163,50 l19,-20 15,15 -20,20 -14,-15z" />
<path style="fill:#7f7f7f" d="M98,15 l50,50 -30,29 -50,-49 30,-30z" />
<path style="fill:#999" d="M96,17 l50,49 -26,27 -50,-50 26,-26z" />
<path style="fill:#b2b2b2" d="M93,20 l50,50 -20,19 -50,-49 20,-20z" />
<path style="fill:#ccc" d="M90,23 l50,50 -14,13 -49,-49 13,-14z" />
<path style="fill:#e5e5e5" d="M88,26 l49,49 -9,9 -49,-50 9,-8z" />
<path style="fill:#fff" d="M85,28 l50,50 -4,3 -49,-49 3,-4z" />
<path style="fill:none;stroke:#000;stroke-width:2" d="M69,45 l29,-30 50,50 -30,29 -49,-49" />
<path style="fill:#7f7f7f" d="M256,322 l-133,-133 119,-119 158,158 -42,95 -102,-1z" />
<path style="fill:#999" d="M270,322 l-140,-141 104,-104 162,161 -38,84 -88,0z" />
<path style="fill:#b2b2b2" d="M295,323 l-152,-154 79,-79 168,166 -32,66 -63,1z" />
<path style="fill:#ccc" d="M319,323 l-164,-167 54,-54 173,172 -24,48 -39,1z" />
<path style="fill:#e5e5e5" d="M340,322 l-175,-175 35,-35 175,175 -17,35 -18,0z" />
<path style="fill:#fff" d="M361,323 l-186,-186 15,-15 178,180 -7,21z" />
<path style="fill:none;stroke:#000;stroke-width:2" d="M242,70 l158,158" />
<path style="fill:none;stroke:#000;stroke-width:2" d="M256,322 l-133,-133" />

</svg>
