

<svg xmlns:agg="http://www.example.com" xmlns="http://www.w3.org/2000/svg" preserveAspectRatio="none" width="1.4764in" height="1.4792in" viewBox="0 0 530 531">

<path style="fill:#7f7f7f" d="M515,516 l-250,-251 250,-250 0,501z" />
<path style="fill:#999" d="M515,492 l-250,-227 250,-226 0,453z" />
<path style="fill:#b2b2b2" d="M515,437 l-250,-172 250,-172 0,344z" />
<path style="fill:#ccc" d="M515,390 l-250,-125 250,-125 0,250z" />
<path style="fill:#e5e5e5" d="M515,351 l-250,-86 250,-86 0,172z" />
<path style="fill:#fff" d="M515,296 l-250,-31 250,-31 0,62z" />
<path style="fill:none;stroke:#000;stroke-width:2" d="M515,516 l-250,-251 250,-250 0,501" />
<path style="fill:#7f7f7f" d="M15,515 l250,-250 250,251 -500,-1z" />
<path style="fill:#999" d="M38,515 l227,-250 227,251 -454,-1z" />
<path style="fill:#b2b2b2" d="M93,515 l172,-250 172,251 -344,-1z" />
<path style="fill:#ccc" d="M140,515 l125,-250 125,251 -250,-1z" />
<path style="fill:#e5e5e5" d="M179,515 l86,-250 86,251 -172,-1z" />
<path style="fill:#fff" d="M234,516 l31,-251 31,251 -62,0z" />
<path style="fill:none;stroke:#000;stroke-width:2" d="M15,515 l250,-250 250,251 -500,-1" />

</svg>
