

<svg xmlns:agg="http://www.example.com" xmlns="http://www.w3.org/2000/svg" preserveAspectRatio="none" width="0.8899in" height="1.4792in" viewBox="0 0 601 999">

<path style="fill:#000;stroke:#000;stroke-width:2" d="M54,54 l518,0 0,518 -518,0 0,-518z" />
<path style="fill:#7f7f7f" d="M318,542 l0,302 -62,0 0,-302 62,0z" />
<path style="fill:#b2b2b2" d="M312,542 l0,302 -51,0 0,-302 51,0z" />
<path style="fill:#e5e5e5" d="M305,542 l0,302 -36,0 0,-302 36,0z" />
<path style="fill:#fff" d="M293,542 l0,302 -13,0 0,-302 13,0z" />
<path style="fill:none;stroke:#000;stroke-width:2" d="M256,542 l0,302" />
<path style="fill:none;stroke:#000;stroke-width:2" d="M318,844 l0,-302" />
<path style="fill:#7f7f7f" d="M28,970 l0,-258 522,258 0,-258 -522,258z" />
<path style="fill:#999" d="M28,957 l0,-232 522,232 0,-232 -522,232z" />
<path style="fill:#b2b2b2" d="M28,931 l0,-179 522,179 0,-179 -522,179z" />
<path style="fill:#ccc" d="M28,904 l0,-126 522,126 0,-126 -522,126z" />
<path style="fill:#e5e5e5" d="M28,884 l0,-87 522,87 0,-87 -522,87z" />
<path style="fill:#fff" d="M28,857 l0,-34 522,34 0,-34 -522,34z" />
<path style="fill:none;stroke:#000;stroke-width:2" d="M28,970 l0,-258 522,258 0,-258 -522,258" />
<path style="fill:#7f7f7f;stroke:#000;stroke-width:2" d="M28,28 l518,0 0,518 -518,0 0,-518z" />
<path style="fill:#000" d="M288,286 l-5,0 0,256 9,0 0,-256 -4,0z" />
<path style="fill:#000" d="M546,286 l0,-5 -518,0 0,10 518,0 0,-5z" />

</svg>
