

<svg xmlns:agg="http://www.example.com" xmlns="http://www.w3.org/2000/svg" preserveAspectRatio="none" width="1.0216in" height="1.4792in" viewBox="0 0 690 999">

<path style="fill:#7f7f7f" d="M134,469 l432,0 0,63 -432,0 0,-63z" />
<path style="fill:#b2b2b2" d="M134,475 l432,0 0,52 -432,0 0,-52z" />
<path style="fill:#e5e5e5" d="M134,483 l432,0 0,34 -432,0 0,-34z" />
<path style="fill:#fff" d="M134,494 l432,0 0,12 -432,0 0,-12z" />
<path style="fill:none;stroke:#000;stroke-width:2" d="M134,532 l432,0" />
<path style="fill:none;stroke:#000;stroke-width:2" d="M566,469 l-432,0" />
<path style="fill:#7f7f7f" d="M382,277 l0,539 -63,0 0,-539 63,0z" />
<path style="fill:#b2b2b2" d="M376,277 l0,539 -51,0 0,-539 51,0z" />
<path style="fill:#e5e5e5" d="M368,277 l0,539 -36,0 0,-539 36,0z" />
<path style="fill:#fff" d="M355,277 l0,539 -11,0 0,-539 11,0z" />
<path style="fill:none;stroke:#000;stroke-width:2" d="M319,277 l0,539" />
<path style="fill:none;stroke:#000;stroke-width:2" d="M382,816 l0,-539" />
<path style="fill:#7f7f7f" d="M384,437 l0,30 30,0 0,64 -30,0 0,32 -63,0 0,-32 -32,0 0,-64 32,0 0,-30 63,0z" />
<path style="fill:#b2b2b2" d="M376,437 l0,38 38,0 0,50 -38,0 0,38 -49,0 0,-38 -38,0 0,-50 38,0 0,-38 49,0z" />
<path style="fill:#e5e5e5" d="M368,437 l0,46 46,0 0,34 -46,0 0,46 -33,0 0,-46 -46,0 0,-34 46,0 0,-46 33,0z" />
<path style="fill:#fff" d="M357,437 l0,57 57,0 0,12 -57,0 0,57 -11,0 0,-57 -57,0 0,-12 57,0 0,-57 11,0z" />
<path style="fill:none;stroke:#000;stroke-width:2" d="M384,437 l0,32 30,0" />
<path style="fill:none;stroke:#000;stroke-width:2" d="M414,532 l-30,0 0,31" />
<path style="fill:none;stroke:#000;stroke-width:2" d="M321,563 l0,-31 -32,0" />
<path style="fill:none;stroke:#000;stroke-width:2" d="M289,469 l32,0 0,-32" />
<path style="fill:#7f7f7f" d="M344,285 l-257,0 5,-52 15,-48 11,-22 28,-41 35,-35 41,-28 23,-11 48,-15 51,-5 52,5 25,7 24,8 22,11 41,28 36,35 28,41 10,22 15,48 6,52 -259,0z" />
<path style="fill:#999" d="M344,285 l-232,0 4,-52 14,-48 22,-44 28,-38 34,-31 40,-24 43,-15 47,-5 47,5 44,15 40,24 34,31 29,38 22,44 13,48 5,52 -234,0z" />
<path style="fill:#b2b2b2" d="M344,286 l-185,0 4,-52 11,-48 17,-44 23,-38 27,-32 31,-24 35,-15 37,-5 38,5 35,15 31,24 28,32 23,38 17,44 11,48 4,52 -187,0z" />
<path style="fill:#ccc" d="M344,285 l-135,0 0,-26 3,-26 3,-24 5,-24 5,-22 7,-22 8,-19 8,-19 10,-16 11,-15 10,-13 13,-11 12,-8 13,-7 13,-4 14,-1 14,1 14,4 13,7 12,8 12,11 12,13 10,15 10,16 9,19 8,19 7,22 5,22 5,24 3,24 3,26 0,26 -137,0z" />
<path style="fill:#e5e5e5" d="M346,285 l-90,0 1,-26 1,-26 3,-24 2,-24 4,-22 4,-22 6,-19 6,-19 6,-16 7,-15 7,-13 8,-11 8,-8 9,-7 9,-4 9,-1 9,1 8,4 9,7 8,8 7,11 7,13 7,15 7,16 5,19 5,19 5,22 3,22 3,24 3,24 1,26 0,26 -87,0z" />
<path style="fill:none;stroke:#000;stroke-width:2" d="M344,285 l-257,0 5,-52 15,-48 11,-22 28,-41 35,-35 41,-28 23,-11 48,-15 51,-5 52,5 25,7 24,8 22,11 41,28 36,35 28,41 10,22 15,48 6,52 -259,0" />
<path style="fill:#fff" d="M344,285 l-23,0 0,-26 0,-26 1,-24 1,-24 1,-22 1,-22 1,-19 1,-19 2,-16 2,-15 2,-13 2,-11 2,-8 5,-11 2,-1 3,1 5,11 2,8 2,11 3,13 1,15 2,16 1,19 2,19 1,22 1,22 1,24 0,24 0,26 0,26 -24,0z" />
<path style="fill:#7f7f7f" d="M28,970 l0,-316 634,316 0,-316 -634,316z" />
<path style="fill:#999" d="M28,955 l0,-285 634,285 0,-285 -634,285z" />
<path style="fill:#b2b2b2" d="M28,923 l0,-221 634,221 0,-221 -634,221z" />
<path style="fill:#ccc" d="M28,890 l0,-156 634,156 0,-156 -634,156z" />
<path style="fill:#e5e5e5" d="M28,866 l0,-107 634,107 0,-107 -634,107z" />
<path style="fill:#fff" d="M28,833 l0,-42 634,42 0,-42 -634,42z" />
<path style="fill:none;stroke:#000;stroke-width:2" d="M28,970 l0,-316 634,316 0,-316 -634,316" />

</svg>
