

<svg xmlns:agg="http://www.example.com" xmlns="http://www.w3.org/2000/svg" preserveAspectRatio="none" width="1.0113in" height="1.4792in" viewBox="0 0 683 999">

<path style="fill:#e5e5e5;stroke:#000;stroke-width:2" d="M242,304 l223,0 0,41 -223,0 0,-41z" />
<path style="fill:#7f7f7f;stroke:#000;stroke-width:2" d="M242,622 l223,0 -18,-143 -187,0 -18,143z" />
<path style="fill:#666;stroke:#000;stroke-width:2" d="M297,488 l112,0 0,124 -112,0 0,-124z" />
<path style="fill:#b2b2b2" d="M52,669 l603,0 0,264 -603,0 0,-264z" />
<path style="fill:#ccc" d="M52,697 l603,0 0,208 -603,0 0,-208z" />
<path style="fill:#e5e5e5" d="M52,743 l603,0 0,115 -603,0 0,-115z" />
<path style="fill:none;stroke:#000;stroke-width:2" d="M52,669 l603,0 0,264 -603,0 0,-264" />
<path style="fill:#b2b2b2" d="M108,631 l152,0 0,339 -152,0 0,-339z" />
<path style="fill:#ccc" d="M108,669 l152,0 0,264 -152,0 0,-264z" />
<path style="fill:#e5e5e5" d="M108,727 l152,0 0,147 -152,0 0,-147z" />
<path style="fill:none;stroke:#000;stroke-width:2" d="M108,631 l152,0 0,339 -152,0 0,-339" />
<path style="fill:#b2b2b2" d="M447,631 l152,0 0,339 -152,0 0,-339z" />
<path style="fill:#ccc" d="M447,669 l152,0 0,264 -152,0 0,-264z" />
<path style="fill:#e5e5e5" d="M447,727 l152,0 0,147 -152,0 0,-147z" />
<path style="fill:none;stroke:#000;stroke-width:2" d="M447,631 l152,0 0,339 -152,0 0,-339" />
<path style="fill:#666;stroke:#000;stroke-width:2" d="M163,102 l380,0 0,115 -380,0 0,-115z" />
<path style="fill:#ccc;stroke:#000;stroke-width:2" d="M279,743 l149,0 0,153 -149,0 0,-153z" />
<path style="fill:#b2b2b2;stroke:#000;stroke-width:2" d="M70,697 l38,0 0,65 -38,0 0,-65z" />
<path style="fill:#b2b2b2;stroke:#000;stroke-width:2" d="M70,821 l38,0 0,65 -38,0 0,-65z" />
<path style="fill:#b2b2b2;stroke:#000;stroke-width:2" d="M599,697 l37,0 0,65 -37,0 0,-65z" />
<path style="fill:#b2b2b2;stroke:#000;stroke-width:2" d="M599,821 l37,0 0,65 -37,0 0,-65z" />
<path style="fill:#666;stroke:#000;stroke-width:2" d="M279,622 l149,0 0,47 -149,0 0,-47z" />
<path style="fill:#333;stroke:#000;stroke-width:2" d="M260,292 l187,0 0,66 -187,0 0,-66z" />
<path style="fill:#0000bf;stroke:#000;stroke-width:2" d="M232,358 l242,0 0,121 -242,0 0,-121z" />
<path style="fill:#00f;stroke:#000;stroke-width:2" d="M242,367 l223,0 0,103 -223,0 0,-103z" />
<path style="fill:#0000bf;stroke:#000;stroke-width:2" d="M316,460 l-28,0 -28,-28 0,-28 28,-28 28,0 28,28 0,28 -28,28z" />
<path style="fill:none;stroke:#000;stroke-width:2" d="M260,376 l84,0 0,84 -84,0 0,-84" />
<path style="fill:#0000bf;stroke:#000;stroke-width:2" d="M192,432 l40,0 0,28 -40,0 0,-28z" />
<path style="fill:#00f;stroke:#000;stroke-width:2" d="M192,395 l40,0 0,37 -40,0 0,-37z" />
<path style="fill:#7f7fff;stroke:#000;stroke-width:2" d="M192,376 l40,0 0,19 -40,0 0,-19z" />
<path style="fill:#0000bf;stroke:#000;stroke-width:2" d="M474,432 l38,0 0,28 -38,0 0,-28z" />
<path style="fill:#00f;stroke:#000;stroke-width:2" d="M474,395 l38,0 0,37 -38,0 0,-37z" />
<path style="fill:#7f7fff;stroke:#000;stroke-width:2" d="M474,376 l38,0 0,19 -38,0 0,-19z" />
<circle style="fill:#ccc;stroke:#000;stroke-width:2" cx="279" cy="584" r="28" />
<circle style="fill:#ccc;stroke:#000;stroke-width:2" cx="428" cy="584" r="28" />
<path style="fill:#666;stroke:#000;stroke-width:2" d="M163,217 l380,0 0,38 -380,0 0,-38z" />
<path style="fill:#4c4c4c;stroke:#000;stroke-width:2" d="M163,255 l380,0 0,37 -380,0 0,-37z" />
<path style="fill:#ccc;stroke:#000;stroke-width:2" d="M260,84 l37,-56 112,0 38,56 -187,0z" />
<path style="fill:#fff" d="M416,81 l-25,-47 -13,0 6,47 32,0z" />
<ellipse style="fill:#ccc;stroke:#000;stroke-width:2" cx="456" cy="207" rx="37" ry="39" />
<circle style="fill:#666;stroke:#000;stroke-width:2" cx="457" cy="206" r="32" />
<circle style="fill:#00f;stroke:#000;stroke-width:2" cx="456" cy="206" r="28" />
<circle style="fill:#0000bf" cx="455" cy="208" r="18" />
<path style="fill:#4c4c4c;stroke:#000;stroke-width:2" d="M543,208 l19,0 0,66 -19,0 0,-66z" />
<path style="fill:#ccc;stroke:#000;stroke-width:2" d="M562,208 l9,0 0,66 -9,0 0,-66z" />
<path style="fill:#999;stroke:#000;stroke-width:2" d="M260,84 l187,0 0,9 -187,0 0,-9z" />
<path style="fill:#999;stroke:#000;stroke-width:2" d="M260,93 l187,0 0,9 -187,0 0,-9z" />
<path style="fill:#999;stroke:#000;stroke-width:2" d="M242,314 l-13,0 -12,0 -12,1 -13,0 -13,0 -12,0 -13,0 -12,-1 -12,-1 -11,-2 -11,-2 -9,-3 -9,-3 -8,-5 -6,-6 -6,-6 -3,-14 -2,-15 -2,-15 -1,-15 0,-13 0,-12 2,-9 6,-10 3,-2 10,-2 12,3 10,2 11,2 12,2 14,-2 0,-27 -12,0 -14,-2 -15,-3 -16,-2 -8,-1 -7,0 -15,3 -12,7 -5,6 -5,7 -3,15 -2,16 0,7 0,7 0,14 2,15 3,16 2,9 2,9 3,9 2,10 6,10 8,7 9,7 12,5 12,5 13,3 15,3 14,1 16,1 15,1 15,0 14,-1 15,-1 13,-1 12,-1 11,-1 0,-4 0,-21z" />
<path style="fill:#666;stroke:#000;stroke-width:2" d="M142,146 l21,0 0,53 -21,0 0,-53z" />

</svg>
