 

<svg xmlns:agg="http://www.example.com" xmlns="http://www.w3.org/2000/svg" preserveAspectRatio="none" width="0.2305in" height="1.0750in" viewBox="0 0 214 998">

<path style="fill:#bfbfbf;stroke:#000;stroke-width:2" d="M151,181 l0,358 -115,39 34,0 99,-35 0,-366 -18,4z" />
<path style="fill:#bfbfbf;stroke:#000;stroke-width:2" d="M49,970 l0,-781 137,-38 -35,0 -123,30 0,789 21,0z" />
<path style="fill:none;stroke:#000;stroke-width:2" d="M28,181 l21,8" />
<path style="fill:#d9d9d9;stroke:#000;stroke-width:2" d="M70,578 l99,-35 0,333 -99,56 0,-354z" />
<path style="fill:none;stroke:#000;stroke-width:2" d="M151,539 l18,4" />
<path style="fill:#666;stroke:#000;stroke-width:2" d="M96,189 l17,0 0,376 -17,0 0,-376z" />
<path style="fill:#ccc" d="M102,189 l5,0 0,376 -5,0 0,-376z" />
<path style="fill:#e5e5e5" d="M49,189 l0,781 120,-68 0,-26 -99,56 0,-721 99,-34 0,725 17,-13 0,-738 -137,38z" />
<path style="fill:none;stroke:#000;stroke-width:2" d="M49,970 l0,-781 137,-38 0,738 -137,81" />
<path style="fill:none;stroke:#000;stroke-width:2" d="M70,932 l0,-721 99,-34 0,699 -99,56" />
<path style="fill:#b2b2b2" d="M83,770 l0,81 73,-39 13,-38 -73,38 -13,-42z" />
<path style="fill:#b2b2b2" d="M83,629 l0,81 73,-38 13,-39 -73,38 -13,-42z" />
<path style="fill:#666;stroke:#000;stroke-width:2" d="M186,168 l-4,-11 -10,-8 -10,-6 -11,-4 -14,-3 -15,-2 -7,0 -8,0 -8,0 -16,1 -14,3 -13,3 -10,5 -9,5 -8,10 -1,3 0,4 0,1 9,6 9,3 10,3 13,1 14,2 8,0 8,0 8,0 15,0 15,-1 14,-2 11,-1 10,-3 10,-5 3,-3 1,-1z" />
<path style="fill:#333;stroke:#000;stroke-width:2" d="M36,163 l51,-26 -30,35 -21,-9z" />
<path style="fill:#333;stroke:#000;stroke-width:2" d="M70,176 l30,-39 -4,39 -26,0z" />
<path style="fill:#333;stroke:#000;stroke-width:2" d="M139,176 l-30,-39 4,39 26,0z" />
<path style="fill:#333;stroke:#000;stroke-width:2" d="M177,163 l-51,-26 30,35 21,-9z" />
<path style="fill:#666;stroke:#000;stroke-width:2" d="M96,28 l17,0 0,110 -17,0 0,-110z" />
<path style="fill:#ccc" d="M102,28 l5,0 0,110 -5,0 0,-110z" />

</svg>
