

<svg xmlns:agg="http://www.example.com" xmlns="http://www.w3.org/2000/svg" preserveAspectRatio="none" width="0.5745in" height="1.4792in" viewBox="0 0 388 999">

<path style="fill:#fff091;stroke:#000;stroke-width:2" d="M182,422 l21,0 0,145 -21,0 0,-145z" />
<path style="fill:#fff" d="M190,427 l7,0 0,132 -7,0 0,-132z" />
<path style="fill:#00c;stroke:#000;stroke-width:2" d="M139,593 l109,0 0,25 -109,0 0,-25z" />
<path style="fill:#4c4c4c;stroke:#000;stroke-width:2" d="M120,725 l145,0 0,8 -145,0 0,-8z" />
<path style="fill:#00c;stroke:#000;stroke-width:2" d="M152,373 l83,0 0,7 -83,0 0,-7z" />
<path style="fill:#00c;stroke:#000;stroke-width:2" d="M173,380 l41,0 0,42 -41,0 0,-42z" />
<path style="fill:#00c;stroke:#000;stroke-width:2" d="M173,463 l41,0 0,42 -41,0 0,-42z" />
<path style="fill:#00c;stroke:#000;stroke-width:2" d="M160,505 l68,0 0,5 -68,0 0,-5z" />
<path style="fill:#00c;stroke:#000;stroke-width:2" d="M152,567 l83,0 0,21 -83,0 0,-21z" />
<path style="fill:#00f;stroke:#000;stroke-width:2" d="M111,376 l0,-4 21,-20 5,-2 4,-2 0,3 0,18 -1,0 -12,9 0,31 0,201 1,4 30,4 92,0 7,-4 2,-4 0,-230 -1,-2 -13,-9 -1,0 0,-21 24,15 7,9 1,4 0,16 0,222 -18,20 -5,0 -6,1 -6,0 -103,0 -23,-8 -5,-8 0,-5 0,-15 0,-223z" />
<path style="fill:#0000e5;stroke:#000;stroke-width:2" d="M28,69 l332,0 0,13 -332,0 0,-13z" />
<path style="fill:#00f;stroke:#000;stroke-width:2" d="M111,160 l20,13 1,12 0,11 1,12 0,12 0,11 1,12 0,12 0,11 1,12 1,11 0,12 0,12 1,11 0,12 1,12 1,12 2,9 2,3 1,0 0,1 1,0 98,0 0,-1 3,-1 2,-11 8,-187 21,-13 0,-21 -166,0 0,21z" />
<path style="fill:#00f;stroke:#000;stroke-width:2" d="M331,41 l0,8 0,4 0,2 0,6 0,8 -1,0 -273,0 -1,0 0,-8 0,-20 4,-9 7,-4 2,0 8,0 241,0 9,4 4,9z" />
<path style="fill:#00c;stroke:#000;stroke-width:2" d="M131,173 l-20,-13 166,0 -21,13 -125,0z" />
<path style="fill:#00c;stroke:#000;stroke-width:2" d="M28,82 l332,0 0,16 -332,0 0,-16z" />
<path style="fill:#00c;stroke:#000;stroke-width:2" d="M56,124 l0,-8 0,-4 0,-1 0,-6 0,-7 1,0 273,0 1,0 0,7 0,19 -4,10 -6,5 -3,0 -8,0 -241,0 -9,-5 -4,-7 0,-3z" />
<path style="fill:#4c4cff;stroke:#000;stroke-width:2" d="M214,305 l-41,0 -10,-5 -3,-8 0,-2 3,-10 10,-3 41,0 10,3 4,10 -4,10 -10,5z" />
<circle style="fill:#00007f;stroke:#000;stroke-width:2" cx="214" cy="290" r="3" />
<circle style="fill:#00007f;stroke:#000;stroke-width:2" cx="173" cy="290" r="4" />
<path style="fill:#00007f;stroke:#000;stroke-width:2" d="M160,588 l68,0 0,5 -68,0 0,-5z" />
<path style="fill:#333;stroke:#000;stroke-width:2" d="M180,510 l27,0 0,15 -27,0 0,-15z" />
<path style="fill:#e5e5e5;stroke:#000;stroke-width:2" d="M111,733 l166,0 0,124 -166,0 0,-124z" />
<path style="fill:#4c4cff;stroke:#000;stroke-width:2" d="M35,69 l14,0 0,-7 -14,0 0,7z" />
<path style="fill:#4c4cff;stroke:#000;stroke-width:2" d="M339,69 l13,0 0,-7 -13,0 0,7z" />
<path style="fill:#4c4cff;stroke:#000;stroke-width:2" d="M186,69 l15,0 0,-7 -15,0 0,7z" />
<path style="fill:#4c4cff;stroke:#000;stroke-width:2" d="M82,69 l16,0 0,-7 -16,0 0,7z" />
<path style="fill:#4c4cff;stroke:#000;stroke-width:2" d="M131,69 l14,0 0,-7 -14,0 0,7z" />
<path style="fill:#4c4cff;stroke:#000;stroke-width:2" d="M241,69 l15,0 0,-7 -15,0 0,7z" />
<path style="fill:#4c4cff;stroke:#000;stroke-width:2" d="M290,69 l15,0 0,-7 -15,0 0,7z" />
<path style="fill:#00c;stroke:#000;stroke-width:2" d="M35,103 l14,0 0,-5 -14,0 0,5z" />
<path style="fill:#00c;stroke:#000;stroke-width:2" d="M339,103 l13,0 0,-5 -13,0 0,5z" />
<path style="fill:#00c;stroke:#000;stroke-width:2" d="M186,103 l15,0 0,-5 -15,0 0,5z" />
<path style="fill:#00c;stroke:#000;stroke-width:2" d="M82,103 l16,0 0,-5 -16,0 0,5z" />
<path style="fill:#00c;stroke:#000;stroke-width:2" d="M131,103 l14,0 0,-5 -14,0 0,5z" />
<path style="fill:#00c;stroke:#000;stroke-width:2" d="M241,103 l15,0 0,-5 -15,0 0,5z" />
<path style="fill:#00c;stroke:#000;stroke-width:2" d="M290,103 l15,0 0,-5 -15,0 0,5z" />
<path style="fill:#b2b2b2;stroke:#000;stroke-width:2" d="M139,870 l109,0 0,100 -109,0 0,-100z" />
<path style="fill:#666;stroke:#000;stroke-width:2" d="M169,735 l49,0 0,20 -49,0 0,-20z" />
<path style="fill:#b2b2b2;stroke:#000;stroke-width:2" d="M111,925 l166,0 0,28 -166,0 0,-28z" />
<path style="fill:#b2b2b2" d="M111,704 l166,0 0,21 -166,0 0,-21z" />
<path style="fill:#b2b2b2" d="M111,836 l-55,0 -15,-15 0,-54 15,-14 55,0 0,83z" />
<path style="fill:#b2b2b2" d="M124,857 l139,0 0,13 -139,0 0,-13z" />
<path style="fill:#b2b2b2" d="M139,635 l109,0 0,69 -109,0 0,-69z" />
<path style="fill:#ccc" d="M131,925 l125,0 0,28 -125,0 0,-28z" />
<path style="fill:#ccc" d="M131,704 l125,0 0,21 -125,0 0,-21z" />
<path style="fill:#ccc" d="M111,825 l-55,0 -15,-9 0,-44 15,-9 55,0 0,62z" />
<path style="fill:#ccc" d="M141,857 l104,0 0,13 -104,0 0,-13z" />
<path style="fill:#ccc" d="M152,635 l83,0 0,69 -83,0 0,-69z" />
<path style="fill:#e5e5e5" d="M160,925 l68,0 0,28 -68,0 0,-28z" />
<path style="fill:#e5e5e5" d="M160,704 l68,0 0,21 -68,0 0,-21z" />
<path style="fill:#e5e5e5" d="M111,812 l-55,0 -15,-6 0,-24 15,-6 55,0 0,36z" />
<path style="fill:#e5e5e5" d="M165,857 l57,0 0,13 -57,0 0,-13z" />
<path style="fill:#e5e5e5" d="M171,635 l45,0 0,69 -45,0 0,-69z" />
<path style="fill:#fff" d="M186,925 l15,0 0,28 -15,0 0,-28z" />
<path style="fill:#fff" d="M111,801 l-55,0 -15,-2 0,-10 15,-2 55,0 0,14z" />
<path style="fill:#fff" d="M186,704 l15,0 0,21 -15,0 0,-21z" />
<path style="fill:#fff" d="M186,857 l15,0 0,13 -15,0 0,-13z" />
<path style="fill:#fff" d="M188,635 l11,0 0,69 -11,0 0,-69z" />
<path style="fill:none;stroke:#000;stroke-width:2" d="M56,753 l0,83" />
<path style="fill:none;stroke:#000;stroke-width:2" d="M111,836 l-55,0 -15,-15 0,-54 15,-14 55,0 0,83" />
<path style="fill:none;stroke:#000;stroke-width:2" d="M111,704 l166,0 0,21 -166,0 0,-21" />
<path style="fill:none;stroke:#000;stroke-width:2" d="M124,857 l139,0 0,13 -139,0 0,-13" />
<path style="fill:none;stroke:#000;stroke-width:2" d="M139,635 l109,0 0,69 -109,0 0,-69" />
<path style="fill:#ccc;stroke:#000;stroke-width:2" d="M145,912 l20,0 0,13 -20,0 0,-13z" />
<path style="fill:#ccc;stroke:#000;stroke-width:2" d="M222,912 l19,0 0,13 -19,0 0,-13z" />
<path style="fill:#ccc;stroke:#000;stroke-width:2" d="M182,912 l21,0 0,13 -21,0 0,-13z" />
<path style="fill:#ccc;stroke:#000;stroke-width:2" d="M252,912 l21,0 0,13 -21,0 0,-13z" />
<path style="fill:#ccc;stroke:#000;stroke-width:2" d="M114,912 l21,0 0,13 -21,0 0,-13z" />
<path style="fill:#ccc;stroke:#000;stroke-width:2" d="M145,691 l20,0 0,13 -20,0 0,-13z" />
<path style="fill:#ccc;stroke:#000;stroke-width:2" d="M222,691 l19,0 0,13 -19,0 0,-13z" />
<path style="fill:#ccc;stroke:#000;stroke-width:2" d="M182,691 l21,0 0,13 -21,0 0,-13z" />
<path style="fill:#ccc;stroke:#000;stroke-width:2" d="M252,691 l21,0 0,13 -21,0 0,-13z" />
<path style="fill:#ccc;stroke:#000;stroke-width:2" d="M114,691 l21,0 0,13 -21,0 0,-13z" />

</svg>
