

<svg xmlns:agg="http://www.example.com" xmlns="http://www.w3.org/2000/svg" preserveAspectRatio="none" width="0.5552in" height="1.4792in" viewBox="0 0 375 999">

<path style="fill:#fff091;stroke:#000;stroke-width:2" d="M177,405 l20,0 0,139 -20,0 0,-139z" />
<path style="fill:#fff" d="M184,410 l6,0 0,127 -6,0 0,-127z" />
<path style="fill:#333;stroke:#000;stroke-width:2" d="M173,491 l26,0 0,14 -26,0 0,-14z" />
<path style="fill:#00c;stroke:#000;stroke-width:2" d="M118,695 l138,0 0,8 -138,0 0,-8z" />
<path style="fill:#00c;stroke:#000;stroke-width:2" d="M147,358 l79,0 0,7 -79,0 0,-7z" />
<path style="fill:#00c;stroke:#000;stroke-width:2" d="M167,365 l40,0 0,40 -40,0 0,-40z" />
<path style="fill:#00c;stroke:#000;stroke-width:2" d="M167,444 l40,0 0,40 -40,0 0,-40z" />
<path style="fill:#00c;stroke:#000;stroke-width:2" d="M154,484 l66,0 0,7 -66,0 0,-7z" />
<path style="fill:#00c;stroke:#000;stroke-width:2" d="M147,544 l79,0 0,19 -79,0 0,-19z" />
<path style="fill:#00c;stroke:#000;stroke-width:2" d="M133,571 l106,0 0,105 -106,0 0,-105z" />
<path style="fill:#00f;stroke:#000;stroke-width:2" d="M69,970 l0,-26 27,-13 184,0 27,13 0,26 -238,0z" />
<path style="fill:#00f;stroke:#000;stroke-width:2" d="M54,769 l14,-4 13,-7 13,-7 6,-2 7,-1 10,0 148,0 15,3 13,7 13,7 6,3 8,1 0,5 0,81 -14,3 -13,7 -13,6 -13,3 0,51 0,2 -2,0 -156,0 0,-53 -15,-3 -12,-6 -14,-7 -6,-2 -8,-1 0,-6 0,-80z" />
<path style="fill:#00f;stroke:#000;stroke-width:2" d="M107,703 l158,0 0,45 -158,0 0,-45z" />
<path style="fill:#00f;stroke:#000;stroke-width:2" d="M107,676 l158,0 0,19 -158,0 0,-19z" />
<path style="fill:#00f;stroke:#000;stroke-width:2" d="M111,663 l19,0 0,13 -19,0 0,-13z" />
<path style="fill:#00f;stroke:#000;stroke-width:2" d="M243,663 l20,0 0,13 -20,0 0,-13z" />
<path style="fill:#00f;stroke:#000;stroke-width:2" d="M177,663 l20,0 0,13 -20,0 0,-13z" />
<path style="fill:#00f;stroke:#000;stroke-width:2" d="M212,663 l21,0 0,13 -21,0 0,-13z" />
<path style="fill:#00f;stroke:#000;stroke-width:2" d="M141,663 l19,0 0,13 -19,0 0,-13z" />
<path style="fill:#00f;stroke:#000;stroke-width:2" d="M320,748 l26,0 0,126 -26,0 0,-126z" />
<path style="fill:#00f;stroke:#000;stroke-width:2" d="M28,748 l26,0 0,126 -26,0 0,-126z" />
<path style="fill:#00f;stroke:#000;stroke-width:2" d="M107,361 l1,-4 6,-9 10,-7 9,-4 4,-2 0,3 0,18 -10,3 -3,4 0,2 0,219 1,4 2,3 3,1 10,1 102,0 7,-4 1,-3 0,-221 0,-2 -8,-6 -5,-1 0,-21 8,4 10,6 7,7 3,5 0,4 0,15 0,213 -2,9 -6,7 -8,4 -5,1 -5,0 -7,0 -99,0 -9,-1 -9,-4 -6,-7 -1,-4 -1,-5 0,-14 0,-214z" />
<path style="fill:#0000e5;stroke:#000;stroke-width:2" d="M28,67 l318,0 0,14 -318,0 0,-14z" />
<path style="fill:#00f;stroke:#000;stroke-width:2" d="M107,154 l21,13 0,11 0,11 1,11 0,11 1,11 0,12 0,11 1,11 0,11 0,11 0,11 1,11 0,11 1,12 0,11 0,10 3,10 1,2 3,1 0,1 1,0 93,0 0,-1 2,-1 3,-12 7,-177 19,-13 0,-21 -158,0 0,21z" />
<path style="fill:#00f;stroke:#000;stroke-width:2" d="M320,41 l0,8 0,4 0,1 0,6 0,7 -1,0 -264,0 -1,0 0,-7 0,-19 5,-9 6,-4 2,0 15,0 223,0 10,4 5,9z" />
<path style="fill:#00c;stroke:#000;stroke-width:2" d="M128,167 l-21,-13 158,0 -19,13 -118,0z" />
<path style="fill:#00c;stroke:#000;stroke-width:2" d="M28,81 l318,0 0,13 -318,0 0,-13z" />
<path style="fill:#00c;stroke:#000;stroke-width:2" d="M54,120 l0,-7 0,-5 0,-1 0,-6 0,-7 1,0 264,0 1,0 0,7 0,19 -5,10 -6,3 -2,0 -15,0 -225,0 -8,-3 -5,-10z" />
<path style="fill:#4c4cff;stroke:#000;stroke-width:2" d="M207,292 l-40,0 -9,-4 -4,-10 4,-9 9,-4 40,0 9,4 4,9 -4,10 -9,4z" />
<ellipse style="fill:#00007f;stroke:#000;stroke-width:2" cx="207" cy="279" rx="4" ry="2" />
<circle style="fill:#00007f;stroke:#000;stroke-width:2" cx="166" cy="279" r="3" />
<path style="fill:#00007f;stroke:#000;stroke-width:2" d="M154,563 l66,0 0,8 -66,0 0,-8z" />
<ellipse style="fill:#4c4cff" cx="185" cy="804" rx="104" ry="49" />
<path style="fill:#4c4cff" d="M32,752 l18,0 0,26 -18,0 0,-26z" />
<path style="fill:#4c4cff" d="M322,752 l21,0 0,26 -21,0 0,-26z" />
<path style="fill:#4c4cff;stroke:#000;stroke-width:2" d="M35,67 l14,0 0,-5 -14,0 0,5z" />
<path style="fill:#4c4cff;stroke:#000;stroke-width:2" d="M326,67 l13,0 0,-5 -13,0 0,5z" />
<path style="fill:#4c4cff;stroke:#000;stroke-width:2" d="M180,67 l14,0 0,-5 -14,0 0,5z" />
<path style="fill:#4c4cff;stroke:#000;stroke-width:2" d="M81,67 l13,0 0,-5 -13,0 0,5z" />
<path style="fill:#4c4cff;stroke:#000;stroke-width:2" d="M128,67 l13,0 0,-5 -13,0 0,5z" />
<path style="fill:#4c4cff;stroke:#000;stroke-width:2" d="M233,67 l13,0 0,-5 -13,0 0,5z" />
<path style="fill:#4c4cff;stroke:#000;stroke-width:2" d="M280,67 l14,0 0,-5 -14,0 0,5z" />
<path style="fill:#00c;stroke:#000;stroke-width:2" d="M35,101 l14,0 0,-7 -14,0 0,7z" />
<path style="fill:#00c;stroke:#000;stroke-width:2" d="M326,101 l13,0 0,-7 -13,0 0,7z" />
<path style="fill:#00c;stroke:#000;stroke-width:2" d="M180,101 l14,0 0,-7 -14,0 0,7z" />
<path style="fill:#00c;stroke:#000;stroke-width:2" d="M81,101 l13,0 0,-7 -13,0 0,7z" />
<path style="fill:#00c;stroke:#000;stroke-width:2" d="M128,101 l13,0 0,-7 -13,0 0,7z" />
<path style="fill:#00c;stroke:#000;stroke-width:2" d="M233,101 l13,0 0,-7 -13,0 0,7z" />
<path style="fill:#00c;stroke:#000;stroke-width:2" d="M280,101 l14,0 0,-7 -14,0 0,7z" />
<path style="fill:#00c" d="M111,882 l152,0 0,41 -152,0 0,-41z" />
<path style="fill:#00c" d="M322,831 l21,0 0,39 -21,0 0,-39z" />
<path style="fill:#00c" d="M32,831 l18,0 0,39 -18,0 0,-39z" />
<path style="fill:#0000b2;stroke:#000;stroke-width:2" d="M111,927 l152,0 0,4 -152,0 0,-4z" />
<path style="fill:none;stroke:#000;stroke-width:2" d="M69,944 l238,0" />
<path style="fill:none;stroke:#000;stroke-width:2" d="M135,944 l6,-13" />
<path style="fill:none;stroke:#000;stroke-width:2" d="M241,944 l-8,-13" />
<path style="fill:none;stroke:#000;stroke-width:2" d="M188,944 l0,-13" />
<path style="fill:none;stroke:#000;stroke-width:2" d="M82,944 l16,-13" />
<path style="fill:none;stroke:#000;stroke-width:2" d="M294,944 l-21,-13" />

</svg>
