 
<svg version="1.1" id="_x30_" xmlns="http://www.w3.org/2000/svg" preserveAspectRatio="none"   xmlns:agg="http://www.example.com"  x="0px" y="0px"
	   viewBox="-7.574 -29.581 66.025 110.471"
	 enable-background="new -7.574 -29.581 66.025 110.471" xml:space="preserve">

<agg:params>
	<agg:param type="C" name="color" description="Color" cssAttributes="fill" classes="color"/>
	<agg:param type="F" name="saturation" description="Saturation" min="0" max="1" cssAttributes="opacity" classes="color"/>
</agg:params>

<style type="text/css" >
   <![CDATA[

	.stroke,.thin{
		stroke-width:0.3;
		stroke-linecap:round;
		stroke-linejoin:round;
		stroke: black;
	}

	.stroke{stroke-width:0.3}

	.thin {stroke-width:0.15}
	
	.color {
		fill:#3664BF;
		opacity:0.2;
	}

      ]]>
</style>

<linearGradient id="SVGID_1_" gradientUnits="userSpaceOnUse" x1="19.7288" y1="-13.4568" x2="19.7288" y2="49.3771">
	<stop  offset="0.0051" style="stop-color:#4C5B75"/>
	<stop  offset="0.1465" style="stop-color:#5D6B83"/>
	<stop  offset="0.4279" style="stop-color:#8A95A7"/>
	<stop  offset="0.8191" style="stop-color:#D2D9E0"/>
	<stop  offset="1" style="stop-color:#F6FAFC"/>
</linearGradient>
<path fill="url(#SVGID_1_)" d="M20.734,3.423c-2.26,0-4.09,1.83-4.09,4.09c0,8.65,0,17.32,0,25.98c0,0.1,0,0.189,0,0.29
	c0,2.26,1.83,4.09,4.09,4.09c0.67,0,1.35,0,2.02,0v-2.73c-0.67,0-1.35,0-2.02,0c-0.96,0-1.36-0.399-1.36-1.359
	c0-0.101,0-0.19,0-0.29V7.513c0-0.97,0.4-1.37,1.36-1.37c0.68,0,1.37,0,2.05,0c0.01,0,0.02,0,0.03,0v-2.72
	C22.124,3.423,21.424,3.423,20.734,3.423z"/>
<linearGradient id="SVGID_2_" gradientUnits="userSpaceOnUse" x1="39.5686" y1="-13.4568" x2="39.5686" y2="49.3771">
	<stop  offset="0.0051" style="stop-color:#4C5B75"/>
	<stop  offset="0.1465" style="stop-color:#5D6B83"/>
	<stop  offset="0.4279" style="stop-color:#8A95A7"/>
	<stop  offset="0.8191" style="stop-color:#D2D9E0"/>
	<stop  offset="1" style="stop-color:#F6FAFC"/>
</linearGradient>
<path fill="url(#SVGID_2_)" d="M42.654,33.783c0,2.26-1.83,4.09-4.09,4.09c-0.7,0-1.391,0-2.08,0v-2.73c0.689,0,1.38,0,2.08,0
	c0.96,0,1.359-0.399,1.359-1.359c0-8.76,0-17.521,0-26.271c0-0.97-0.399-1.37-1.359-1.37c-0.689,0-1.37,0-2.051,0
	c-0.01,0-0.02,0-0.029,0v-2.72c0.689,0,1.38,0,2.08,0c2.26,0,4.09,1.83,4.09,4.09C42.654,16.263,42.654,25.024,42.654,33.783z"/>
<linearGradient id="SVGID_3_" gradientUnits="userSpaceOnUse" x1="52.179" y1="60.2932" x2="52.179" y2="79.2932">
	<stop  offset="0.0051" style="stop-color:#4C5B75"/>
	<stop  offset="0.0323" style="stop-color:#616F86"/>
	<stop  offset="0.098" style="stop-color:#8E99AA"/>
	<stop  offset="0.1641" style="stop-color:#B4BCC7"/>
	<stop  offset="0.2298" style="stop-color:#D1D7DE"/>
	<stop  offset="0.2946" style="stop-color:#E5EAEF"/>
	<stop  offset="0.3584" style="stop-color:#F2F6F9"/>
	<stop  offset="0.42" style="stop-color:#F6FAFC"/>
	<stop  offset="0.4744" style="stop-color:#F2F6F8"/>
	<stop  offset="0.5308" style="stop-color:#E6E9EC"/>
	<stop  offset="0.5882" style="stop-color:#D3D5D7"/>
	<stop  offset="0.6461" style="stop-color:#B7B8BB"/>
	<stop  offset="0.704" style="stop-color:#949396"/>
	<stop  offset="0.72" style="stop-color:#89878B"/>
	<stop  offset="1" style="stop-color:#F6FAFC"/>
</linearGradient>
<rect x="50.203" y="60.063" fill="url(#SVGID_3_)"  />
<linearGradient id="SVGID_4_" gradientUnits="userSpaceOnUse" x1="7.0437" y1="60.2932" x2="7.0437" y2="79.2932">
	<stop  offset="0.0051" style="stop-color:#4C5B75"/>
	<stop  offset="0.0323" style="stop-color:#616F86"/>
	<stop  offset="0.098" style="stop-color:#8E99AA"/>
	<stop  offset="0.1641" style="stop-color:#B4BCC7"/>
	<stop  offset="0.2298" style="stop-color:#D1D7DE"/>
	<stop  offset="0.2946" style="stop-color:#E5EAEF"/>
	<stop  offset="0.3584" style="stop-color:#F2F6F9"/>
	<stop  offset="0.42" style="stop-color:#F6FAFC"/>
	<stop  offset="0.4744" style="stop-color:#F2F6F8"/>
	<stop  offset="0.5308" style="stop-color:#E6E9EC"/>
	<stop  offset="0.5882" style="stop-color:#D3D5D7"/>
	<stop  offset="0.6461" style="stop-color:#B7B8BB"/>
	<stop  offset="0.704" style="stop-color:#949396"/>
	<stop  offset="0.72" style="stop-color:#89878B"/>
	<stop  offset="1" style="stop-color:#F6FAFC"/>
</linearGradient>
<rect x="4.933" y="60.063" fill="url(#SVGID_4_)"  />
<linearGradient id="SVGID_5_" gradientUnits="userSpaceOnUse" x1="29.679" y1="60.2932" x2="29.679" y2="79.2932">
	<stop  offset="0.0051" style="stop-color:#4C5B75"/>
	<stop  offset="0.0323" style="stop-color:#616F86"/>
	<stop  offset="0.098" style="stop-color:#8E99AA"/>
	<stop  offset="0.1641" style="stop-color:#B4BCC7"/>
	<stop  offset="0.2298" style="stop-color:#D1D7DE"/>
	<stop  offset="0.2946" style="stop-color:#E5EAEF"/>
	<stop  offset="0.3584" style="stop-color:#F2F6F9"/>
	<stop  offset="0.42" style="stop-color:#F6FAFC"/>
	<stop  offset="0.4744" style="stop-color:#F2F6F8"/>
	<stop  offset="0.5308" style="stop-color:#E6E9EC"/>
	<stop  offset="0.5882" style="stop-color:#D3D5D7"/>
	<stop  offset="0.6461" style="stop-color:#B7B8BB"/>
	<stop  offset="0.704" style="stop-color:#949396"/>
	<stop  offset="0.72" style="stop-color:#89878B"/>
	<stop  offset="1" style="stop-color:#F6FAFC"/>
</linearGradient>
<path fill="url(#SVGID_5_)" d="M42.044,60.234c0.569,0.109,1.139,0.27,1.709,0.489c2.15,0.83,4.301,1.66,6.45,2.49v13.11
	c-2.149,0.83-4.3,1.66-6.45,2.489c-1.16,0.44-2.3,0.66-3.539,0.66c-7.031,0-14.051,0-21.081,0c-1.24,0-2.38-0.22-3.54-0.66
	c-2.15-0.829-4.29-1.659-6.44-2.489v-13.11c2.15-0.83,4.29-1.66,6.44-2.49c0.57-0.22,1.14-0.38,1.71-0.489
	c0.59-0.11,1.2-0.171,1.83-0.171c7.03,0,14.049,0,21.081,0C40.843,60.063,41.453,60.123,42.044,60.234z"/>
<linearGradient id="SVGID_6_" gradientUnits="userSpaceOnUse" x1="17.3035" y1="54.5129" x2="42.0442" y2="54.5129">
	<stop  offset="0.0051" style="stop-color:#4C5B75"/>
	<stop  offset="0.0323" style="stop-color:#616F86"/>
	<stop  offset="0.098" style="stop-color:#8E99AA"/>
	<stop  offset="0.1641" style="stop-color:#B4BCC7"/>
	<stop  offset="0.2298" style="stop-color:#D1D7DE"/>
	<stop  offset="0.2946" style="stop-color:#E5EAEF"/>
	<stop  offset="0.3584" style="stop-color:#F2F6F9"/>
	<stop  offset="0.42" style="stop-color:#F6FAFC"/>
	<stop  offset="0.4709" style="stop-color:#F2F6F8"/>
	<stop  offset="0.5236" style="stop-color:#E6E9EC"/>
	<stop  offset="0.5772" style="stop-color:#D3D5D7"/>
	<stop  offset="0.6314" style="stop-color:#B7B8BB"/>
	<stop  offset="0.6856" style="stop-color:#949396"/>
	<stop  offset="0.7005" style="stop-color:#89878B"/>
	<stop  offset="1" style="stop-color:#F6FAFC"/>
</linearGradient>
<path fill="url(#SVGID_6_)" d="M42.044,48.793v11.44c-0.591-0.11-1.201-0.171-1.83-0.171c-7.031,0-14.051,0-21.081,0
	c-0.63,0-1.24,0.061-1.83,0.171v-11.44H42.044z"/>
<linearGradient id="SVGID_7_" gradientUnits="userSpaceOnUse" x1="17.2542" y1="49.7151" x2="39.9404" y2="43.2099">
	<stop  offset="0.0051" style="stop-color:#4C5B75"/>
	<stop  offset="0.0323" style="stop-color:#616F86"/>
	<stop  offset="0.098" style="stop-color:#8E99AA"/>
	<stop  offset="0.1641" style="stop-color:#B4BCC7"/>
	<stop  offset="0.2298" style="stop-color:#D1D7DE"/>
	<stop  offset="0.2946" style="stop-color:#E5EAEF"/>
	<stop  offset="0.3584" style="stop-color:#F2F6F9"/>
	<stop  offset="0.42" style="stop-color:#F6FAFC"/>
	<stop  offset="0.4744" style="stop-color:#F2F6F8"/>
	<stop  offset="0.5308" style="stop-color:#E6E9EC"/>
	<stop  offset="0.5882" style="stop-color:#D3D5D7"/>
	<stop  offset="0.6461" style="stop-color:#B7B8BB"/>
	<stop  offset="0.704" style="stop-color:#949396"/>
	<stop  offset="0.72" style="stop-color:#89878B"/>
	<stop  offset="1" style="stop-color:#F6FAFC"/>
</linearGradient>
<polygon fill="url(#SVGID_7_)" points="36.484,41.953 42.044,48.793 17.303,48.793 22.754,41.953 "/>
<linearGradient id="SVGID_8_" gradientUnits="userSpaceOnUse" x1="22.7537" y1="34.2883" x2="36.4836" y2="34.2883">
	<stop  offset="0.0051" style="stop-color:#4C5B75"/>
	<stop  offset="0.0323" style="stop-color:#616F86"/>
	<stop  offset="0.098" style="stop-color:#8E99AA"/>
	<stop  offset="0.1641" style="stop-color:#B4BCC7"/>
	<stop  offset="0.2298" style="stop-color:#D1D7DE"/>
	<stop  offset="0.2946" style="stop-color:#E5EAEF"/>
	<stop  offset="0.3584" style="stop-color:#F2F6F9"/>
	<stop  offset="0.42" style="stop-color:#F6FAFC"/>
	<stop  offset="0.4744" style="stop-color:#F2F6F8"/>
	<stop  offset="0.5308" style="stop-color:#E6E9EC"/>
	<stop  offset="0.5882" style="stop-color:#D3D5D7"/>
	<stop  offset="0.6461" style="stop-color:#B7B8BB"/>
	<stop  offset="0.704" style="stop-color:#949396"/>
	<stop  offset="0.72" style="stop-color:#89878B"/>
	<stop  offset="1" style="stop-color:#F6FAFC"/>
</linearGradient>
<polygon fill="url(#SVGID_8_)" points="36.484,37.873 36.484,41.953 22.754,41.953 22.754,37.873 22.754,35.143 22.754,26.623 
	36.484,26.623 36.484,35.143 "/>
<linearGradient id="SVGID_9_" gradientUnits="userSpaceOnUse" x1="21.1736" y1="24.9285" x2="38.2336" y2="24.9285">
	<stop  offset="0.0051" style="stop-color:#4C5B75"/>
	<stop  offset="0.0323" style="stop-color:#616F86"/>
	<stop  offset="0.098" style="stop-color:#8E99AA"/>
	<stop  offset="0.1641" style="stop-color:#B4BCC7"/>
	<stop  offset="0.2298" style="stop-color:#D1D7DE"/>
	<stop  offset="0.2946" style="stop-color:#E5EAEF"/>
	<stop  offset="0.3584" style="stop-color:#F2F6F9"/>
	<stop  offset="0.42" style="stop-color:#F6FAFC"/>
	<stop  offset="0.4709" style="stop-color:#F2F6F8"/>
	<stop  offset="0.5236" style="stop-color:#E6E9EC"/>
	<stop  offset="0.5772" style="stop-color:#D3D5D7"/>
	<stop  offset="0.6314" style="stop-color:#B7B8BB"/>
	<stop  offset="0.6856" style="stop-color:#949396"/>
	<stop  offset="0.7005" style="stop-color:#89878B"/>
	<stop  offset="1" style="stop-color:#F6FAFC"/>
</linearGradient>
<polygon fill="url(#SVGID_9_)" points="38.234,23.234 38.234,26.623 36.484,26.623 22.754,26.623 21.174,26.623 21.174,23.234 
	26.253,23.234 33.093,23.234 "/>
<linearGradient id="SVGID_10_" gradientUnits="userSpaceOnUse" x1="26.2532" y1="20.6682" x2="33.093" y2="20.6682">
	<stop  offset="0.0051" style="stop-color:#4C5B75"/>
	<stop  offset="0.0323" style="stop-color:#616F86"/>
	<stop  offset="0.098" style="stop-color:#8E99AA"/>
	<stop  offset="0.1641" style="stop-color:#B4BCC7"/>
	<stop  offset="0.2298" style="stop-color:#D1D7DE"/>
	<stop  offset="0.2946" style="stop-color:#E5EAEF"/>
	<stop  offset="0.3584" style="stop-color:#F2F6F9"/>
	<stop  offset="0.42" style="stop-color:#F6FAFC"/>
	<stop  offset="0.4709" style="stop-color:#F2F6F8"/>
	<stop  offset="0.5236" style="stop-color:#E6E9EC"/>
	<stop  offset="0.5772" style="stop-color:#D3D5D7"/>
	<stop  offset="0.6314" style="stop-color:#B7B8BB"/>
	<stop  offset="0.6856" style="stop-color:#949396"/>
	<stop  offset="0.7005" style="stop-color:#89878B"/>
	<stop  offset="1" style="stop-color:#F6FAFC"/>
</linearGradient>
<rect x="26.253" y="18.103" fill="url(#SVGID_10_)"  />
<linearGradient id="SVGID_11_" gradientUnits="userSpaceOnUse" x1="24.5637" y1="15.5378" x2="34.843" y2="15.5378">
	<stop  offset="0.0051" style="stop-color:#4C5B75"/>
	<stop  offset="0.0323" style="stop-color:#616F86"/>
	<stop  offset="0.098" style="stop-color:#8E99AA"/>
	<stop  offset="0.1641" style="stop-color:#B4BCC7"/>
	<stop  offset="0.2298" style="stop-color:#D1D7DE"/>
	<stop  offset="0.2946" style="stop-color:#E5EAEF"/>
	<stop  offset="0.3584" style="stop-color:#F2F6F9"/>
	<stop  offset="0.42" style="stop-color:#F6FAFC"/>
	<stop  offset="0.4709" style="stop-color:#F2F6F8"/>
	<stop  offset="0.5236" style="stop-color:#E6E9EC"/>
	<stop  offset="0.5772" style="stop-color:#D3D5D7"/>
	<stop  offset="0.6314" style="stop-color:#B7B8BB"/>
	<stop  offset="0.6856" style="stop-color:#949396"/>
	<stop  offset="0.7005" style="stop-color:#89878B"/>
	<stop  offset="1" style="stop-color:#F6FAFC"/>
</linearGradient>
<polygon fill="url(#SVGID_11_)" points="26.253,12.973 33.093,12.973 34.843,12.973 34.843,18.103 33.093,18.103 26.253,18.103 
	24.564,18.103 24.564,12.973 "/>
<linearGradient id="SVGID_12_" gradientUnits="userSpaceOnUse" x1="26.2532" y1="9.5579" x2="33.093" y2="9.5579">
	<stop  offset="0.0051" style="stop-color:#4C5B75"/>
	<stop  offset="0.0323" style="stop-color:#616F86"/>
	<stop  offset="0.098" style="stop-color:#8E99AA"/>
	<stop  offset="0.1641" style="stop-color:#B4BCC7"/>
	<stop  offset="0.2298" style="stop-color:#D1D7DE"/>
	<stop  offset="0.2946" style="stop-color:#E5EAEF"/>
	<stop  offset="0.3584" style="stop-color:#F2F6F9"/>
	<stop  offset="0.42" style="stop-color:#F6FAFC"/>
	<stop  offset="0.4709" style="stop-color:#F2F6F8"/>
	<stop  offset="0.5236" style="stop-color:#E6E9EC"/>
	<stop  offset="0.5772" style="stop-color:#D3D5D7"/>
	<stop  offset="0.6314" style="stop-color:#B7B8BB"/>
	<stop  offset="0.6856" style="stop-color:#949396"/>
	<stop  offset="0.7005" style="stop-color:#89878B"/>
	<stop  offset="1" style="stop-color:#F6FAFC"/>
</linearGradient>
<path fill="url(#SVGID_12_)" d="M33.093,6.143v6.83h-6.84v-6.83C28.533,6.143,30.814,6.143,33.093,6.143z"/>
<linearGradient id="SVGID_13_" gradientUnits="userSpaceOnUse" x1="22.8137" y1="-0.8171" x2="36.4836" y2="-0.8171">
	<stop  offset="0.0051" style="stop-color:#4C5B75"/>
	<stop  offset="0.0323" style="stop-color:#616F86"/>
	<stop  offset="0.098" style="stop-color:#8E99AA"/>
	<stop  offset="0.1641" style="stop-color:#B4BCC7"/>
	<stop  offset="0.2298" style="stop-color:#D1D7DE"/>
	<stop  offset="0.2946" style="stop-color:#E5EAEF"/>
	<stop  offset="0.3584" style="stop-color:#F2F6F9"/>
	<stop  offset="0.42" style="stop-color:#F6FAFC"/>
	<stop  offset="0.4709" style="stop-color:#F2F6F8"/>
	<stop  offset="0.5236" style="stop-color:#E6E9EC"/>
	<stop  offset="0.5772" style="stop-color:#D3D5D7"/>
	<stop  offset="0.6314" style="stop-color:#B7B8BB"/>
	<stop  offset="0.6856" style="stop-color:#949396"/>
	<stop  offset="0.7005" style="stop-color:#89878B"/>
	<stop  offset="1" style="stop-color:#F6FAFC"/>
</linearGradient>
<path fill="url(#SVGID_13_)" d="M36.484,3.423v2.72c-1.13,0-2.26,0-3.391,0c-2.279,0-4.56,0-6.84,0c-1.149,0-2.29,0-3.439,0v-2.72
	v-4.05v-2.73v-4.42h13.67V3.423z"/>
<linearGradient id="SVGID_14_" gradientUnits="userSpaceOnUse" x1="21.1238" y1="-8.8191" x2="38.2336" y2="-8.8191">
	<stop  offset="0.0051" style="stop-color:#4C5B75"/>
	<stop  offset="0.0323" style="stop-color:#616F86"/>
	<stop  offset="0.098" style="stop-color:#8E99AA"/>
	<stop  offset="0.1641" style="stop-color:#B4BCC7"/>
	<stop  offset="0.2298" style="stop-color:#D1D7DE"/>
	<stop  offset="0.2946" style="stop-color:#E5EAEF"/>
	<stop  offset="0.3584" style="stop-color:#F2F6F9"/>
	<stop  offset="0.42" style="stop-color:#F6FAFC"/>
	<stop  offset="0.4709" style="stop-color:#F2F6F8"/>
	<stop  offset="0.5236" style="stop-color:#E6E9EC"/>
	<stop  offset="0.5772" style="stop-color:#D3D5D7"/>
	<stop  offset="0.6314" style="stop-color:#B7B8BB"/>
	<stop  offset="0.6856" style="stop-color:#949396"/>
	<stop  offset="0.7005" style="stop-color:#89878B"/>
	<stop  offset="1" style="stop-color:#F6FAFC"/>
</linearGradient>
<path fill="url(#SVGID_14_)" d="M36.484-7.777h-13.67h-1.69v-1.89c5.709-0.26,11.4-0.26,17.11,0v1.89H36.484z"/>
<linearGradient id="SVGID_15_" gradientUnits="userSpaceOnUse" x1="5.3435" y1="-13.4866" x2="54.0032" y2="-13.4866">
	<stop  offset="0.0051" style="stop-color:#4C5B75"/>
	<stop  offset="0.0323" style="stop-color:#616F86"/>
	<stop  offset="0.098" style="stop-color:#8E99AA"/>
	<stop  offset="0.1641" style="stop-color:#B4BCC7"/>
	<stop  offset="0.2298" style="stop-color:#D1D7DE"/>
	<stop  offset="0.2946" style="stop-color:#E5EAEF"/>
	<stop  offset="0.3584" style="stop-color:#F2F6F9"/>
	<stop  offset="0.42" style="stop-color:#F6FAFC"/>
	<stop  offset="0.4709" style="stop-color:#F2F6F8"/>
	<stop  offset="0.5236" style="stop-color:#E6E9EC"/>
	<stop  offset="0.5772" style="stop-color:#D3D5D7"/>
	<stop  offset="0.6314" style="stop-color:#B7B8BB"/>
	<stop  offset="0.6856" style="stop-color:#949396"/>
	<stop  offset="0.7005" style="stop-color:#89878B"/>
	<stop  offset="1" style="stop-color:#F6FAFC"/>
</linearGradient>
<path fill="url(#SVGID_15_)" d="M54.003-17.306v6.25c-5.24,0.689-10.49,1.149-15.77,1.39c-5.71-0.26-11.4-0.26-17.11,0
	c-5.29-0.24-10.53-0.7-15.78-1.39v-6.25H54.003z"/>
<linearGradient id="SVGID_16_" gradientUnits="userSpaceOnUse" x1="2.3137" y1="-18.8064" x2="57.0334" y2="-18.8064">
	<stop  offset="0.0051" style="stop-color:#4C5B75"/>
	<stop  offset="0.0323" style="stop-color:#616F86"/>
	<stop  offset="0.098" style="stop-color:#8E99AA"/>
	<stop  offset="0.1641" style="stop-color:#B4BCC7"/>
	<stop  offset="0.2298" style="stop-color:#D1D7DE"/>
	<stop  offset="0.2946" style="stop-color:#E5EAEF"/>
	<stop  offset="0.3584" style="stop-color:#F2F6F9"/>
	<stop  offset="0.42" style="stop-color:#F6FAFC"/>
	<stop  offset="0.4709" style="stop-color:#F2F6F8"/>
	<stop  offset="0.5236" style="stop-color:#E6E9EC"/>
	<stop  offset="0.5772" style="stop-color:#D3D5D7"/>
	<stop  offset="0.6314" style="stop-color:#B7B8BB"/>
	<stop  offset="0.6856" style="stop-color:#949396"/>
	<stop  offset="0.7005" style="stop-color:#89878B"/>
	<stop  offset="1" style="stop-color:#F6FAFC"/>
</linearGradient>
<polygon fill="url(#SVGID_16_)" points="5.344,-17.306 2.314,-17.306 2.314,-20.306 5.344,-20.306 54.003,-20.306 57.033,-20.306 
	57.033,-17.306 54.003,-17.306 "/>
<linearGradient id="SVGID_17_" gradientUnits="userSpaceOnUse" x1="5.3435" y1="-24.2356" x2="54.0032" y2="-24.2356">
	<stop  offset="0.0051" style="stop-color:#4C5B75"/>
	<stop  offset="0.0323" style="stop-color:#616F86"/>
	<stop  offset="0.098" style="stop-color:#8E99AA"/>
	<stop  offset="0.1641" style="stop-color:#B4BCC7"/>
	<stop  offset="0.2298" style="stop-color:#D1D7DE"/>
	<stop  offset="0.2946" style="stop-color:#E5EAEF"/>
	<stop  offset="0.3584" style="stop-color:#F2F6F9"/>
	<stop  offset="0.42" style="stop-color:#F6FAFC"/>
	<stop  offset="0.4709" style="stop-color:#F2F6F8"/>
	<stop  offset="0.5236" style="stop-color:#E6E9EC"/>
	<stop  offset="0.5772" style="stop-color:#D3D5D7"/>
	<stop  offset="0.6314" style="stop-color:#B7B8BB"/>
	<stop  offset="0.6856" style="stop-color:#949396"/>
	<stop  offset="0.7005" style="stop-color:#89878B"/>
	<stop  offset="1" style="stop-color:#F6FAFC"/>
</linearGradient>
<path fill="url(#SVGID_17_)" d="M54.003-26.567v6.261H5.344v-6.261C21.703-28.697,37.654-28.697,54.003-26.567z"/>

<path fill="#606060" d="M1.703-0.627c7.04,0,14.07,0,21.11,0v-2.73c-7.04,0-14.07,0-21.11,0c-2.26,0-4.09,1.83-4.09,4.091
	c0,3.13,0,6.26,0,9.39l-0.66,0.22l-0.87,0.44l-0.71,0.66l-0.66,0.76l-0.49,0.87l-0.27,0.93l-0.11,1.04l0.16,1.26l0.44,1.141
	l0.71,1.04l0.98,0.819l-0.49,0.38l-0.82,0.931l-0.6,1.149l-0.33,1.2l-0.05,0.65l0.11,1.04l0.27,0.93l0.49,0.87l0.66,0.77l0.71,0.601
	l0.87,0.489l0.99,0.271l1.04,0.11l1.03-0.11l0.99-0.271l0.87-0.489l0.77-0.601l0.6-0.77l0.37-0.66v7.7h13.03c0-8.66,0-17.33,0-25.98
	H3.614v5.351l-0.37-0.66l-0.6-0.76l-0.77-0.66l-0.87-0.44l-0.66-0.22c0-3.13,0-6.26,0-9.39C0.344-0.226,0.743-0.627,1.703-0.627z
	 M2.094,24.873l-0.71,1.09l-1.09,0.71l-1.31,0.28l-1.32-0.28l-1.09-0.71l-0.77-1.09l-0.27-1.311l0.27-1.31l0.77-1.09l1.09-0.771
	l1.32-0.27l1.31,0.27l1.09,0.771l0.71,1.09l0.28,1.31L2.094,24.873z M2.694,18.543l0.77-1.04l0.15-0.37v4.4l-0.15-0.37l-0.77-1.04
	l-0.98-0.82L2.694,18.543z M1.384,12.643l0.71,1.091l0.28,1.31l-0.28,1.31l-0.71,1.091l-1.09,0.71l-1.31,0.27l-1.32-0.27l-1.09-0.71
	l-0.77-1.091l-0.27-1.31l0.27-1.31l0.77-1.091l1.09-0.77l1.32-0.271l1.31,0.271L1.384,12.643z"/>

<path class="color" d="M38.234-7.777v-1.89c5.279-0.24,10.529-0.7,15.77-1.39v-6.25h3.03v-3h-3.03v-6.261
	c-16.35-2.13-32.3-2.13-48.66,0v6.261h-3.03v3h3.03v6.25c5.25,0.689,10.49,1.149,15.78,1.39v1.89h1.69v4.42c-7.04,0-14.07,0-21.11,0
	c-2.26,0-4.09,1.83-4.09,4.091c0,3.13,0,6.26,0,9.39l-0.66,0.22l-0.87,0.44l-0.71,0.66l-0.66,0.76l-0.49,0.87l-0.27,0.93l-0.11,1.04
	l0.16,1.26l0.44,1.141l0.71,1.04l0.98,0.819l-0.49,0.38l-0.82,0.931l-0.6,1.149l-0.33,1.2l-0.05,0.65l0.11,1.04l0.27,0.93l0.49,0.87
	l0.66,0.77l0.71,0.601l0.87,0.489l0.99,0.271l1.04,0.11l1.03-0.11l0.99-0.271l0.87-0.489l0.77-0.601l0.6-0.77l0.37-0.66v7.7h13.03
	c0,0.1,0,0.189,0,0.29c0,2.26,1.83,4.09,4.09,4.09c0.67,0,1.35,0,2.02,0v4.08l-5.45,6.84v11.44c-0.57,0.109-1.14,0.27-1.71,0.489
	c-2.15,0.83-4.29,1.66-6.44,2.49v-3.15h-4.22v19.41h4.22v-3.149c2.15,0.83,4.29,1.66,6.44,2.489c1.16,0.44,2.3,0.66,3.54,0.66
	c7.03,0,14.049,0,21.081,0c1.239,0,2.379-0.22,3.539-0.66c2.15-0.829,4.301-1.659,6.45-2.489v3.149h3.95v-19.41h-3.95v3.15
	c-2.149-0.83-4.3-1.66-6.45-2.49c-0.57-0.22-1.14-0.38-1.709-0.489v-11.44l-5.561-6.84v-4.08c0.689,0,1.38,0,2.08,0
	c2.26,0,4.09-1.83,4.09-4.09c0-8.76,0-17.521,0-26.271c0-2.26-1.83-4.09-4.09-4.09c-0.7,0-1.391,0-2.08,0v-11.2H38.234z
	 M-4.197,16.353l-0.27-1.31l0.27-1.31l0.77-1.091l1.09-0.77l1.32-0.271l1.31,0.271l1.09,0.77l0.71,1.091l0.28,1.31l-0.28,1.31
	l-0.71,1.091l-1.09,0.71l-1.31,0.27l-1.32-0.27l-1.09-0.71L-4.197,16.353z M2.094,24.873l-0.71,1.09l-1.09,0.71l-1.31,0.28
	l-1.32-0.28l-1.09-0.71l-0.77-1.09l-0.27-1.311l0.27-1.31l0.77-1.09l1.09-0.771l1.32-0.27l1.31,0.27l1.09,0.771l0.71,1.09l0.28,1.31
	L2.094,24.873z M3.464,21.163l-0.77-1.04l-0.98-0.82l0.98-0.76l0.77-1.04l0.15-0.37v4.4L3.464,21.163z M16.644,7.513h-0.33h-12.7
	v5.351l-0.37-0.66l-0.6-0.76l-0.77-0.66l-0.87-0.44l-0.66-0.22c0-3.13,0-6.26,0-9.39c0-0.96,0.4-1.36,1.36-1.36
	c7.04,0,14.07,0,21.11,0v4.05c-0.69,0-1.39,0-2.08,0C18.473,3.423,16.644,5.253,16.644,7.513z M20.734,35.143
	c-0.96,0-1.36-0.399-1.36-1.359c0-0.101,0-0.19,0-0.29V7.513c0-0.97,0.4-1.37,1.36-1.37c0.68,0,1.37,0,2.05,0c0.01,0,0.02,0,0.03,0
	c1.15,0,2.29,0,3.439,0v6.83h-1.689v5.13h1.689v5.131h-5.08v3.39h1.58v8.52C22.084,35.143,21.404,35.143,20.734,35.143z
	 M36.513,6.143c0.681,0,1.361,0,2.051,0c0.96,0,1.359,0.4,1.359,1.37c0,8.75,0,17.511,0,26.271c0,0.96-0.399,1.359-1.359,1.359
	c-0.7,0-1.391,0-2.08,0v-8.52h1.75v-3.39h-5.141v-5.131h1.75v-5.13h-1.75v-6.83c1.131,0,2.261,0,3.391,0
	C36.493,6.143,36.503,6.143,36.513,6.143z"/>

<g opacity="0.5" class="stroke">
	<path fill="none" d="M36.484,3.423
		c0.689,0,1.38,0,2.08,0c2.26,0,4.09,1.83,4.09,4.09c0,8.75,0,17.511,0,26.271c0,2.26-1.83,4.09-4.09,4.09c-0.7,0-1.391,0-2.08,0"/>
	<polyline fill="none" points="
		36.484,-7.777 36.484,3.423 36.484,6.143 	"/>
	<polygon fill="none" points="
		5.344,-17.306 2.314,-17.306 2.314,-20.306 5.344,-20.306 54.003,-20.306 57.033,-20.306 57.033,-17.306 54.003,-17.306 	"/>
	<polyline fill="none" points="
		38.234,-9.667 38.234,-7.777 36.484,-7.777 22.814,-7.777 21.124,-7.777 21.124,-9.667 	"/>
	<path fill="none" d="M54.003-20.306
		v-6.261c-16.35-2.13-32.3-2.13-48.66,0v6.261"/>
	<path fill="none" d="M5.344-17.306v6.25
		c5.25,0.689,10.49,1.149,15.78,1.39c5.709-0.26,11.4-0.26,17.11,0c5.279-0.24,10.529-0.7,15.77-1.39v-6.25"/>
	<polyline fill="none" points="
		17.303,48.793 22.754,41.953 36.484,41.953 42.044,48.793 	"/>
	<polyline fill="none" points="
		22.754,41.953 22.754,37.873 22.754,35.143 22.754,26.623 	"/>
	<polyline fill="none" points="
		36.484,26.623 36.484,35.143 36.484,37.873 36.484,41.953 	"/>
	<polygon fill="none" points="
		50.203,63.213 50.203,60.063 54.154,60.063 54.154,79.473 50.203,79.473 50.203,76.323 	"/>
	<polygon fill="none" points="
		9.154,76.323 9.154,79.473 4.933,79.473 4.933,60.063 9.154,60.063 9.154,63.213 	"/>
	<path fill="none" d="M9.154,63.213
		c2.15-0.83,4.29-1.66,6.44-2.49c0.57-0.22,1.14-0.38,1.71-0.489c0.59-0.11,1.2-0.171,1.83-0.171c7.03,0,14.049,0,21.081,0
		c0.629,0,1.239,0.061,1.83,0.171c0.569,0.109,1.139,0.27,1.709,0.489c2.15,0.83,4.301,1.66,6.45,2.49"/>
	<polyline fill="none" points="
		17.303,60.243 17.303,60.234 17.303,48.793 42.044,48.793 42.044,60.234 42.044,60.243 	"/>
	<path fill="none" d="M50.203,76.323
		c-2.149,0.83-4.3,1.66-6.45,2.489c-1.16,0.44-2.3,0.66-3.539,0.66c-7.031,0-14.051,0-21.081,0c-1.24,0-2.38-0.22-3.54-0.66
		c-2.15-0.829-4.29-1.659-6.44-2.489"/>
	<polygon fill="none" points="
		26.253,18.103 24.564,18.103 24.564,12.973 26.253,12.973 33.093,12.973 34.843,12.973 34.843,18.103 33.093,18.103 	"/>
	
		<line fill="none" x1="26.253" y1="12.973" x2="26.253" y2="6.143"/>
	
		<line fill="none" x1="26.253" y1="23.234" x2="26.253" y2="18.103"/>
	<polygon fill="none" points="
		22.754,26.623 21.174,26.623 21.174,23.234 26.253,23.234 33.093,23.234 38.234,23.234 38.234,26.623 36.484,26.623 	"/>
	
		<line fill="none" x1="33.093" y1="18.103" x2="33.093" y2="23.234"/>
	
		<line fill="none" x1="33.093" y1="6.143" x2="33.093" y2="12.973"/>
	<polyline fill="none" points="
		22.814,6.143 22.814,3.423 22.814,-0.627 22.814,-3.357 22.814,-7.777 	"/>
	<path fill="none" d="M22.754,37.873
		c-0.67,0-1.35,0-2.02,0c-2.26,0-4.09-1.83-4.09-4.09c0-0.101,0-0.19,0-0.29c0-8.66,0-17.33,0-25.98c0-2.26,1.83-4.09,4.09-4.09
		c0.69,0,1.39,0,2.08,0"/>
	<path fill="none" d="M22.754,35.143
		c-0.67,0-1.35,0-2.02,0c-0.96,0-1.36-0.399-1.36-1.359c0-0.101,0-0.19,0-0.29V7.513c0-0.97,0.4-1.37,1.36-1.37
		c0.68,0,1.37,0,2.05,0c0.01,0,0.02,0,0.03,0c1.15,0,2.29,0,3.439,0c2.28,0,4.561,0,6.84,0c1.131,0,2.261,0,3.391,0
		c0.01,0,0.02,0,0.029,0c0.681,0,1.361,0,2.051,0c0.96,0,1.359,0.4,1.359,1.37c0,8.75,0,17.511,0,26.271
		c0,0.96-0.399,1.359-1.359,1.359c-0.7,0-1.391,0-2.08,0"/>
	
		<line fill="none" x1="17.304" y1="52.728" x2="42.044" y2="52.728"/>
</g>

<g fill="#606060">
	<rect x="4.063" y="-17.305"  />
	<rect x="10.896" y="-17.305"  />
	<rect x="51.896" y="-17.305"  />
	<rect x="38.23" y="-17.305"  />
	<rect x="45.064" y="-17.305"  />
	<rect x="31.397" y="-17.305"  />
	<rect x="24.563" y="-17.305"  />
	<rect x="17.73" y="-17.305"  />
	<rect x="33.195" y="46.698"  />
	<rect x="22.865" y="46.698"  />
	<rect x="17.834" y="46.698"  />
	<rect x="38.36" y="46.698"  />
	<rect x="28.095" y="46.698"  />
</g>

</svg>
