<?xml version="1.0" encoding="utf-8"?>
<!-- Generator: Adobe Illustrator 16.0.0, SVG Export Plug-In . SVG Version: 6.00 Build 0)  -->
<!DOCTYPE svg PUBLIC "-//W3C//DTD SVG 1.1//EN" "http://www.w3.org/Graphics/SVG/1.1/DTD/svg11.dtd">
<svg version="1.1" id="图层_1" xmlns="http://www.w3.org/2000/svg" xmlns:xlink="http://www.w3.org/1999/xlink" x="0px" y="0px"
	 width="170.08px" height="170.08px" viewBox="0 0 170.08 170.08" enable-background="new 0 0 170.08 170.08" xml:space="preserve">
<g>
	<g>
		<path fill="#920783" d="M118.979,103.146V79.594c0-16.591-11.535-30.456-27.013-34.098c-0.093-4.361-3.643-7.863-8.018-7.863
			c-4.378,0-7.943,3.518-8.035,7.863c-15.476,3.642-27.012,17.507-27.012,34.098v23.553c-5.831,0-10.554,4.722-10.554,10.552v7.445
			h91.182v-7.445C129.53,107.868,124.811,103.146,118.979,103.146z"/>
		<path fill="#920783" d="M83.949,138.496c6.985,0,12.831-4.706,14.673-11.12H69.255C71.1,133.79,76.946,138.496,83.949,138.496z"/>
	</g>
	<path fill="#920783" d="M28.451,79.05c0-6.493,1.812-12.818,5.24-18.292c1.128-1.803,0.583-4.178-1.22-5.307
		c-1.802-1.128-4.178-0.583-5.306,1.219c-4.196,6.7-6.414,14.439-6.414,22.379c0,8.153,2.329,16.064,6.734,22.882
		c0.737,1.141,1.975,1.762,3.237,1.762c0.716,0,1.44-0.199,2.086-0.617c1.786-1.152,2.298-3.536,1.144-5.322
		C30.354,92.185,28.451,85.717,28.451,79.05z"/>
	<path fill="#920783" d="M10.648,79.05c0-9.842,2.746-19.431,7.942-27.728c1.199-1.915,0.619-4.439-1.296-5.638
		c-1.916-1.2-4.439-0.619-5.638,1.296c-6.012,9.6-9.19,20.689-9.19,32.069c0,11.684,3.337,23.024,9.651,32.795
		c0.782,1.21,2.098,1.87,3.439,1.87c0.76,0,1.53-0.213,2.216-0.655c1.898-1.226,2.442-3.758,1.216-5.656
		C13.532,98.96,10.648,89.156,10.648,79.05z"/>
	<path fill="#920783" d="M136.852,55.452c-1.804,1.129-2.348,3.504-1.221,5.307c3.428,5.472,5.241,11.797,5.241,18.291
		c0,6.667-1.902,13.133-5.502,18.705c-1.153,1.786-0.643,4.17,1.145,5.323c0.646,0.417,1.37,0.616,2.085,0.616
		c1.264,0,2.501-0.621,3.237-1.762c4.405-6.818,6.735-14.731,6.735-22.882c0-7.94-2.219-15.68-6.414-22.379
		C141.029,54.869,138.652,54.323,136.852,55.452z"/>
	<path fill="#920783" d="M157.667,46.981c-1.199-1.915-3.724-2.496-5.638-1.296c-1.915,1.199-2.496,3.723-1.296,5.638
		c5.196,8.298,7.943,17.886,7.943,27.728c0,10.106-2.887,19.91-8.342,28.354c-1.228,1.898-0.682,4.431,1.216,5.656
		c0.685,0.442,1.455,0.655,2.216,0.655c1.342,0,2.657-0.66,3.438-1.87c6.314-9.771,9.652-21.111,9.652-32.795
		C166.857,67.671,163.681,56.582,157.667,46.981z"/>
</g>
</svg>
