<?xml version="1.0" encoding="utf-8"?>
<!-- Generator: Adobe Illustrator 16.0.0, SVG Export Plug-In . SVG Version: 6.00 Build 0)  -->
<!DOCTYPE svg PUBLIC "-//W3C//DTD SVG 1.1//EN" "http://www.w3.org/Graphics/SVG/1.1/DTD/svg11.dtd">
<svg version="1.1" id="图层_1" xmlns="http://www.w3.org/2000/svg" xmlns:xlink="http://www.w3.org/1999/xlink" x="0px" y="0px"
	 width="170.08px" height="170.08px" viewBox="0 0 170.08 170.08" enable-background="new 0 0 170.08 170.08" xml:space="preserve">
<g>
	<path fill="#777777" d="M118.979,103.146V79.594c0-16.591-11.535-30.456-27.014-34.098c-0.093-4.361-3.643-7.863-8.018-7.863
		c-4.378,0-7.943,3.518-8.035,7.863c-15.476,3.642-27.012,17.507-27.012,34.098v23.554c-5.831,0-10.554,4.722-10.554,10.552v7.444
		h91.181v-7.444C129.53,107.868,124.812,103.146,118.979,103.146z"/>
	<path fill="#777777" d="M83.949,138.496c6.985,0,12.831-4.706,14.673-11.12H69.255C71.1,133.79,76.946,138.496,83.949,138.496z"/>
</g>
</svg>
