<?xml version="1.0" encoding="utf-8"?>
<!-- Generator: Adobe Illustrator 16.0.0, SVG Export Plug-In . SVG Version: 6.00 Build 0)  -->
<!DOCTYPE svg PUBLIC "-//W3C//DTD SVG 1.1//EN" "http://www.w3.org/Graphics/SVG/1.1/DTD/svg11.dtd">
<svg version="1.1" id="图层_1" xmlns="http://www.w3.org/2000/svg" xmlns:xlink="http://www.w3.org/1999/xlink" x="0px" y="0px"
	 width="170.08px" height="170.08px" viewBox="0 0 170.08 170.08" enable-background="new 0 0 170.08 170.08" xml:space="preserve">
<g>
	<path fill="#22AC38" d="M141.967,109.352V71.555c0-26.625-18.512-48.875-43.349-54.72c-0.15-6.999-5.847-12.619-12.867-12.619
		c-7.026,0-12.746,5.645-12.894,12.619C48.021,22.68,29.509,44.93,29.509,71.555v37.797c-9.357,0-16.937,7.578-16.937,16.933v11.949
		h146.326v-11.949C158.898,116.93,151.323,109.352,141.967,109.352z"/>
	<path fill="#22AC38" d="M85.751,166.08c11.211,0,20.591-7.552,23.547-17.845H62.17C65.131,158.528,74.513,166.08,85.751,166.08z"/>
</g>
</svg>
