 

<svg xmlns:agg="http://www.example.com" xmlns="http://www.w3.org/2000/svg" preserveAspectRatio="none" width="1.6083in" height="0.8356in" viewBox="0 0 999 519">

<path style="fill:#4c7f7f" d="M798,48 l34,0 0,34 -34,0 0,-34z" />
<path style="fill:#699" d="M801,48 l29,0 0,34 -29,0 0,-34z" />
<path style="fill:#7fb2b2" d="M804,48 l20,0 0,34 -20,0 0,-34z" />
<path style="fill:#9cc" d="M809,48 l9,0 0,34 -9,0 0,-34z" />
<path style="fill:none;stroke:#000;stroke-width:2" d="M798,48 l34,0 0,34 -34,0 0,-34" />
<path style="fill:#4c7f7f" d="M746,28 l138,0 0,20 -138,0 0,-20z" />
<path style="fill:#699" d="M758,28 l115,0 0,20 -115,0 0,-20z" />
<path style="fill:#7fb2b2" d="M775,28 l80,0 0,20 -80,0 0,-20z" />
<path style="fill:#9cc" d="M795,28 l40,0 0,20 -40,0 0,-20z" />
<path style="fill:none;stroke:#000;stroke-width:2" d="M746,28 l138,0 0,20 -138,0 0,-20" />
<path style="fill:#194c4c;stroke:#000;stroke-width:2" d="M326,260 l46,0 0,135 -46,0 0,-135z" />
<path style="fill:#699;stroke:#000;stroke-width:2" d="M326,260 l46,0 0,9 -46,0 0,-9z" />
<path style="fill:#699;stroke:#000;stroke-width:2" d="M326,387 l46,0 0,8 -46,0 0,-8z" />
<path style="fill:#699;stroke:#000;stroke-width:2" d="M326,324 l46,0 0,8 -46,0 0,-8z" />
<path style="fill:#366;stroke:#000;stroke-width:2" d="M191,209 l110,0 0,11 -110,0 0,-11z" />
<path style="fill:#4c7f7f" d="M743,122 l0,323 144,0 0,-323 -144,0z" />
<path style="fill:#699" d="M743,151 l0,265 144,0 0,-265 -144,0z" />
<path style="fill:#7fb2b2" d="M743,191 l0,184 144,0 0,-184 -144,0z" />
<path style="fill:#9cc" d="M743,237 l0,92 144,0 0,-92 -144,0z" />
<path style="fill:none;stroke:#000;stroke-width:2" d="M743,122 l0,323 144,0 0,-323 -144,0" />
<path style="fill:#4c7f7f" d="M53,430 l253,0 20,-14 0,-181 -20,-15 -3,0 -4,0 -246,0 -21,14 -4,15 0,3 0,5 0,144 11,24 12,5 2,0z" />
<path style="fill:#699" d="M53,413 l253,0 20,-15 0,-146 -20,-12 -3,0 -4,0 -246,0 -23,15 -2,4 0,4 0,5 0,119 15,24 5,1 5,1z" />
<path style="fill:#7fb2b2" d="M53,387 l253,0 20,-12 0,-103 -20,-6 -3,0 -4,0 -246,0 -23,11 -2,3 0,3 0,7 0,80 20,17 5,0z" />
<path style="fill:#9cc" d="M53,355 l253,0 20,-5 0,-46 -20,-9 -3,0 -4,0 -246,0 -25,7 0,2 0,3 0,40 0,2 2,2 18,4 5,0z" />
<path style="fill:none;stroke:#000;stroke-width:2" d="M53,430 l253,0 20,-14 0,-181 -20,-15 -3,0 -4,0 -246,0 -21,14 -4,15 0,3 0,5 0,144 11,24 12,5 2,0" />
<path style="fill:#699;stroke:#000;stroke-width:2" d="M186,212 l120,0 0,-67 -120,0 0,67z" />
<path style="fill:none;stroke:#fff;stroke-width:2" d="M191,206 l0,-55 107,0" />
<path style="fill:#194c4c;stroke:#000;stroke-width:2" d="M125,220 l181,0 0,210 -181,0 0,-210z" />
<path style="fill:#9cc;stroke:#000;stroke-width:2" d="M125,304 l187,0 0,8 -187,0 0,-8z" />
<path style="fill:#9cc;stroke:#000;stroke-width:2" d="M125,243 l187,0 0,12 -187,0 0,-12z" />
<path style="fill:#9cc;stroke:#000;stroke-width:2" d="M125,332 l187,0 0,12 -187,0 0,-12z" />
<path style="fill:#9cc;stroke:#000;stroke-width:2" d="M125,275 l187,0 0,8 -187,0 0,-8z" />
<path style="fill:#9cc;stroke:#000;stroke-width:2" d="M125,214 l187,0 0,9 -187,0 0,-9z" />
<path style="fill:#699;stroke:#000;stroke-width:2" d="M125,361 l187,0 0,12 -187,0 0,-12z" />
<path style="fill:#699;stroke:#000;stroke-width:2" d="M125,393 l187,0 0,8 -187,0 0,-8z" />
<path style="fill:#699;stroke:#000;stroke-width:2" d="M125,422 l187,0 0,8 -187,0 0,-8z" />
<path style="fill:#699;stroke:#000;stroke-width:2" d="M283,445 l0,-15 -20,0 -8,-57 -61,0 -8,57 -20,0 0,15 117,0z" />
<path style="fill:#9cc;stroke:#000;stroke-width:2" d="M28,445 l899,0 0,46 -899,0 0,-46z" />
<path style="fill:#4c7f7f" d="M372,407 l0,-158 29,0 0,158 -29,0z" />
<path style="fill:#699" d="M372,393 l0,-130 29,0 0,130 -29,0z" />
<path style="fill:#7fb2b2" d="M372,373 l0,-90 29,0 0,90 -29,0z" />
<path style="fill:#9cc" d="M372,350 l0,-44 29,0 0,44 -29,0z" />
<path style="fill:none;stroke:#000;stroke-width:2" d="M372,407 l0,-158 29,0 0,158 -29,0" />
<path style="fill:none;stroke:#000;stroke-width:2" d="M387,407 l0,-158" />
<path style="fill:#4c7f7f;stroke:#000;stroke-width:2" d="M401,373 l342,37 0,-170 -342,43 0,90z" />
<path style="fill:#9cc;stroke:#000;stroke-width:2" d="M401,283 l342,-43 0,15 -342,43 0,-15z" />
<path style="fill:#9cc;stroke:#000;stroke-width:2" d="M401,358 l342,40 0,15 -342,-40 0,-15z" />
<path style="fill:#9cc;stroke:#000;stroke-width:2" d="M401,381 l9,0 0,14 -9,0 0,-14z" />
<path style="fill:#9cc;stroke:#000;stroke-width:2" d="M401,255 l9,0 0,14 -9,0 0,-14z" />
<path style="fill:#194c4c;stroke:#000;stroke-width:2" d="M887,82 l0,43 -20,0 0,316 -89,0 0,-316 -35,0 0,-43 144,0z" />
<path style="fill:#7fb2b2;stroke:#000;stroke-width:2" d="M778,347 l89,0 0,17 -89,0 0,-17z" />
<path style="fill:#699;stroke:#000;stroke-width:2" d="M778,413 l89,0 0,14 -89,0 0,-14z" />
<path style="fill:#9cc;stroke:#000;stroke-width:2" d="M778,283 l89,0 0,15 -89,0 0,-15z" />
<path style="fill:#9cc;stroke:#000;stroke-width:2" d="M778,212 l89,0 0,14 -89,0 0,-14z" />
<path style="fill:#9cc;stroke:#000;stroke-width:2" d="M778,145 l89,0 0,18 -89,0 0,-18z" />
<path style="fill:#4c7f7f" d="M950,338 l0,-141 20,0 0,141 -20,0z" />
<path style="fill:#699" d="M950,324 l0,-112 20,0 0,112 -20,0z" />
<path style="fill:#7fb2b2" d="M950,306 l0,-77 20,0 0,77 -20,0z" />
<path style="fill:#9cc" d="M950,286 l0,-37 20,0 0,37 -20,0z" />
<path style="fill:none;stroke:#000;stroke-width:2" d="M950,338 l0,-141 20,0 0,141 -20,0" />
<path style="fill:#366;stroke:#000;stroke-width:2" d="M950,243 l-23,0 0,49 23,0 0,-49z" />
<path style="fill:#9cc;stroke:#000;stroke-width:2" d="M927,243 l-40,-100 0,287 40,-138 0,-49z" />
<path style="fill:#4c7f7f;stroke:#000;stroke-width:2" d="M927,260 l-40,-86 0,221 40,-120 0,-15z" />

</svg>
