 
<svg version="1.1" id="Layer_01" xmlns="http://www.w3.org/2000/svg" preserveAspectRatio="none"  xmlns:xlink="http://www.w3.org/1999/xlink" x="0px" y="0px"
	   viewBox="0 0 72 152" xmlns:agg="http://www.example.com">
	 
<agg:params>
	<agg:param type="C" name="color" description="Color" cssAttributes="fill" classes="color"/>
	<agg:param type="F" name="saturation" description="Saturation" min="0" max="1" cssAttributes="opacity" classes="color"/>
</agg:params>	 
	 
<style type="text/css" >
   <![CDATA[

	.stroke,.thin,.thick{
		stroke-linecap:butt;
		stroke-linejoin:round;
		stroke: black;
		fill:none;
		opacity:0.5;
	}

	.stroke{stroke-width:0.5;}

	.thin {stroke-width:0.25;}

	.thick {stroke-width:0.75;}
	
	.color {
		fill:#3664BF;
		opacity:0.2;
	}

      ]]>
</style>

<defs>
	<linearGradient id="cyl" gradientUnits="userSpaceOnUse">
		<stop  offset="0" style="stop-color:#4D5C75"/>
		<stop  offset="0.0311" style="stop-color:#616F85"/>
		<stop  offset="0.097" style="stop-color:#8E99A9"/>
		<stop  offset="0.1634" style="stop-color:#B4BCC7"/>
		<stop  offset="0.2292" style="stop-color:#D1D7DE"/>
		<stop  offset="0.2942" style="stop-color:#E5EAEF"/>
		<stop  offset="0.3583" style="stop-color:#F2F6F9"/>
		<stop  offset="0.42" style="stop-color:#F6FAFC"/>
		<stop  offset="0.4747" style="stop-color:#F2F6F8"/>
		<stop  offset="0.5313" style="stop-color:#E6E9EC"/>
		<stop  offset="0.5889" style="stop-color:#D3D5D7"/>
		<stop  offset="0.6471" style="stop-color:#B7B8BA"/>
		<stop  offset="0.7053" style="stop-color:#949396"/>
		<stop  offset="0.72" style="stop-color:#8A888B"/>
		<stop  offset="1" style="stop-color:#F6FAFC"/>
	</linearGradient>
	
	<linearGradient id="cyl_1" xlink:href="#cyl" gradientUnits="userSpaceOnUse" x1="68.1885" y1="120.2661" x2="68.1885" y2="151.1805"/>
	<linearGradient id="cyl_2" xlink:href="#cyl" gradientUnits="userSpaceOnUse" x1="60.5554" y1="128.0337" x2="60.5554" y2="142.7476"/>
	<linearGradient id="cyl_3" xlink:href="#cyl" gradientUnits="userSpaceOnUse" x1="4.1431" y1="135.6182" x2="55.7339" y2="135.6182"/>
	<linearGradient id="cyl_4" xlink:href="#cyl" gradientUnits="userSpaceOnUse" x1="11.0195" y1="121.584" x2="48.8569" y2="121.584"/>
	<linearGradient id="cyl_5" xlink:href="#cyl" gradientUnits="userSpaceOnUse" x1="1" y1="116.2964" x2="58.8765" y2="116.2964"/>
	<linearGradient id="cyl_6" xlink:href="#cyl" gradientUnits="userSpaceOnUse" x1="48.821" y1="93.8794" x2="58.6797" y2="93.8794"/>
	<linearGradient id="cyl_7" xlink:href="#cyl" gradientUnits="userSpaceOnUse" x1="10.8821" y1="93.8794" x2="0.9835" y2="93.8794"/>
	<linearGradient id="cyl_8" xlink:href="#cyl" gradientUnits="userSpaceOnUse" x1="11.0195" y1="93.8794" x2="48.8569" y2="93.8794"/>
	<linearGradient id="cyl_9" xlink:href="#cyl" gradientUnits="userSpaceOnUse" x1="1" y1="69.1797" x2="58.8765" y2="69.1797"/>
	<linearGradient id="cyl_10" xlink:href="#cyl" gradientUnits="userSpaceOnUse" x1="10.1411" y1="42.748" x2="49.7354" y2="42.748"/>
	<linearGradient id="cyl_11" xlink:href="#cyl" gradientUnits="userSpaceOnUse" x1="21.5469" y1="15.3184" x2="38.3296" y2="15.3184"/>
	<linearGradient id="cyl_12" xlink:href="#cyl" gradientUnits="userSpaceOnUse" x1="24.4146" y1="5.3916" x2="35.4678" y2="5.3916"/>
</defs>
	 
<g id="cyl">
	<rect x="65.377" y="120.41" fill="url(#cyl_1)"  />
	<path fill="url(#cyl_2)" d="M65.377,128.368v14.5h-9.643c0-4.833,0-9.667,0-14.5H65.377z"/>
	<path fill="url(#cyl_3)" d="M55.734,128.368c0,4.833,0,9.667,0,14.5c0,2.073-1.679,3.752-3.746,3.752
		c-14.698,0-29.396,0-44.093,0c-2.074,0-3.752-1.679-3.752-3.752c0-4.833,0-9.667,0-14.5c0-2.073,1.678-3.752,3.752-3.752
		c1.04,0,43.047,0,44.093,0C54.055,124.616,55.734,126.295,55.734,128.368z"/>
	<path fill="url(#cyl_4)" d="M48.857,118.552v6.064c-12.612,0-25.225,0-37.837,0v-6.064H48.857z"/>
	<rect x="1" y="114.041" fill="url(#cyl_5)"  />
	<polygon fill="url(#cyl_6)" points="55.979,73.718 51.82,114.041 48.857,114.041 48.857,73.718 	"/>
	<polygon fill="url(#cyl_7)" points="11.02,73.718 11.02,114.041 8.056,114.041 3.898,73.718 	"/>
	<rect x="11.02" y="73.718" fill="url(#cyl_8)"  />
	<rect x="1" y="64.642" fill="url(#cyl_9)"  />
	<rect x="10.141" y="20.854" fill="url(#cyl_10)"  />
	<rect x="21.547" y="9.783" fill="url(#cyl_11)"  />
	<rect x="24.415" y="1" fill="url(#cyl_12)"  />
</g>

<path id="boundary" class="color" d="M65.377,120.41v7.958h-9.643c0-2.073-1.679-3.752-3.746-3.752
	c-0.162,0-1.308,0-3.131,0v-6.064h10.02v-4.511H51.82l4.159-40.323h2.897v-9.076h-9.141V20.854H38.33V9.783h-2.862V1H24.415v8.783
	h-2.868v11.071H10.141v43.788H1v9.076h2.898l4.158,40.323H1v4.511h10.02v6.064c-1.82,0-2.964,0-3.125,0
	c-2.074,0-3.752,1.679-3.752,3.752c0,4.833,0,9.667,0,14.5c0,2.073,1.678,3.752,3.752,3.752c14.697,0,29.395,0,44.093,0
	c2.067,0,3.746-1.679,3.746-3.752h9.643V151H71v-30.59H65.377z"/>
	
<g class="stroke">
	<line x1="48.857" y1="118.552" x2="48.857" y2="124.616"/>
	<line x1="11.02" y1="118.552" x2="11.02" y2="124.616"/>
	<polygon points="8.056,114.041 1,114.041 1,118.552 11.02,118.552 48.857,118.552 58.876,118.552 58.876,114.041 51.82,114.041 48.857,114.041 
		11.02,114.041 	"/>
	<line x1="55.734" y1="142.869" x2="65.377" y2="142.869"/>
	<line x1="55.734" y1="128.368" x2="65.377" y2="128.368"/>
	<polygon points="65.377,142.869 65.377,151 71,151 71,120.41 65.377,120.41 65.377,128.368 	"/>
	<path d="M55.734,142.869
		c0,2.073-1.679,3.752-3.746,3.752c-14.698,0-29.396,0-44.093,0c-2.074,0-3.752-1.679-3.752-3.752c0-4.833,0-9.667,0-14.5
		c0-2.073,1.678-3.752,3.752-3.752c1.04,0,2.085,0,3.125,0c12.612,0,25.225,0,37.837,0c1.046,0,2.085,0,3.131,0
		c2.067,0,3.746,1.679,3.746,3.752C55.734,133.202,55.734,138.035,55.734,142.869z"/>
	<line x1="8.056" y1="114.041" x2="3.898" y2="73.718"/>
	<line x1="51.82" y1="114.041" x2="55.979" y2="73.718"/>
	<line x1="48.857" y1="73.718" x2="48.857" y2="114.041"/>
	<line x1="11.02" y1="73.718" x2="11.02" y2="114.041"/>
	<polyline points="10.141,64.642 10.141,20.854 21.547,20.854 21.547,9.783 24.415,9.783 24.415,1 35.468,1 35.468,9.783 38.33,9.783 38.33,20.854 
		49.735,20.854 49.735,64.642 	"/>
	<line x1="24.415" y1="9.783" x2="35.468" y2="9.783"/>
	<line x1="21.547" y1="20.854" x2="38.33" y2="20.854"/>
	<line x1="58.876" y1="69.183" x2="1" y2="69.207"/>
	<polygon points="1,69.207 
		1,73.718 3.898,73.718 11.02,73.718 48.857,73.718 55.979,73.718 58.876,73.718 58.876,69.183 58.876,64.642 49.735,64.642 
		10.141,64.642 1,64.642 	"/>
</g>

<g id="nuts" opacity="0.5">
	<polygon points="4.546,63.447 8.098,63.447 8.098,64.642 4.546,64.642 	"/>
	<polygon points="51.776,63.447 55.331,63.447 55.331,64.642 51.776,64.642 	"/>
	<polygon points="28.163,63.447 31.715,63.447 31.715,64.642 28.163,64.642 	"/>
	<polygon points="40.554,63.447 44.107,63.447 44.107,64.642 40.554,64.642 	"/>
	<polygon points="15.769,63.447 19.321,63.447 19.321,64.642 15.769,64.642 	"/>
	<polygon points="4.546,73.718 8.098,73.718 8.098,74.913 4.546,74.913 	"/>
	<polygon points="51.776,73.718 55.331,73.718 55.331,74.913 51.776,74.913 	"/>
	<polygon points="28.163,73.718 31.715,73.718 31.715,74.913 28.163,74.913 	"/>
	<polygon points="40.554,73.718 44.107,73.718 44.107,74.913 40.554,74.913 	"/>
	<polygon points="15.769,73.718 19.321,73.718 19.321,74.913 15.769,74.913 	"/>
	<polygon points="4.546,112.846 8.098,112.846 8.098,114.041 4.546,114.041 	"/>
	<polygon points="51.776,112.846 55.331,112.846 55.331,114.041 51.776,114.041 	"/>
	<polygon points="28.163,112.846 31.715,112.846 31.715,114.041 28.163,114.041 	"/>
	<polygon points="40.554,112.846 44.107,112.846 44.107,114.041 40.554,114.041 	"/>
	<polygon points="15.769,112.846 19.321,112.846 19.321,114.041 15.769,114.041 	"/>
</g>

</svg>
