 

<svg xmlns:agg="http://www.example.com" xmlns="http://www.w3.org/2000/svg" preserveAspectRatio="none" width="0.7708in" height="1.0750in" viewBox="0 0 380 530">

<path style="fill:#666;stroke:#000;stroke-width:2" d="M365,190 l0,150 -1,18 -3,17 -4,17 -6,16 -7,16 -9,14 -10,13 -11,13 -13,11 -13,10 -14,9 -16,7 -16,6 -17,4 -17,3 -18,1 -18,-1 -17,-3 -17,-4 -16,-6 -16,-7 -14,-9 -13,-10 -13,-11 -11,-13 -10,-13 -9,-14 -7,-16 -6,-16 -4,-17 -3,-17 -1,-18 0,-150 1,-18 3,-17 4,-17 6,-16 7,-16 9,-14 10,-13 11,-13 13,-11 13,-10 14,-9 16,-7 16,-6 17,-4 17,-3 18,-1 18,1 17,3 17,4 16,6 16,7 14,9 13,10 13,11 11,13 10,13 9,14 7,16 6,16 4,17 3,17 1,18z" />
<path style="fill:#b2b2b2;stroke:#000;stroke-width:2" d="M365,190 l-50,0 -3,-25 -7,-24 -11,-21 -16,-18 -18,-16 -21,-11 -24,-7 -25,-3 -25,3 -24,7 -21,11 -18,16 -16,18 -11,21 -7,24 -3,25 -50,0 1,-18 3,-17 4,-17 6,-16 7,-16 9,-14 10,-13 11,-13 13,-11 13,-10 14,-9 16,-7 16,-6 17,-4 17,-3 18,-1 18,1 17,3 17,4 16,6 16,7 14,9 13,10 13,11 11,13 10,13 9,14 7,16 6,16 4,17 3,17 1,18z" />
<path style="fill:#b2b2b2;stroke:#000;stroke-width:2" d="M15,340 l50,0 3,25 7,24 11,21 16,18 18,16 21,11 24,7 25,3 25,-3 24,-7 21,-11 18,-16 16,-18 11,-21 7,-24 3,-25 50,0 -1,18 -3,17 -4,17 -6,16 -7,16 -9,14 -10,13 -11,13 -13,11 -13,10 -14,9 -16,7 -16,6 -17,4 -17,3 -18,1 -18,-1 -17,-3 -17,-4 -16,-6 -16,-7 -14,-9 -13,-10 -13,-11 -11,-13 -10,-13 -9,-14 -7,-16 -6,-16 -4,-17 -3,-17 -1,-18z" />
<path style="fill:#e5e5e5;stroke:#000;stroke-width:2" d="M199,396 l6,-31 5,-8 6,-4 2,0 31,-7 12,-5 12,-9 11,-17 3,-10 1,-10 -1,-10 -7,-20 -15,-15 -20,-7 -10,-1 -10,1 -19,7 -13,13 -7,12 -2,6 -7,31 0,2 -4,6 -8,5 -31,6 -12,5 -11,9 -12,18 -3,9 -1,10 1,10 8,19 15,15 19,8 10,1 10,-1 19,-8 13,-12 7,-12 2,-6z" />
<path style="fill:#e5e5e5;stroke:#000;stroke-width:2" d="M198,246 l6,-30 4,-8 8,-4 30,-6 13,-6 11,-8 11,-18 3,-9 1,-10 -1,-10 -7,-19 -15,-15 -19,-7 -10,-1 -10,1 -19,7 -12,12 -7,12 -3,7 -6,29 -8,11 -5,2 -30,6 -12,6 -11,8 -11,17 -3,10 -1,10 1,10 7,19 15,15 19,7 10,1 10,-1 19,-7 12,-12 7,-12 3,-7z" />
<circle style="fill:#000" cx="190" cy="190" r="17" />
<circle style="fill:#000" cx="191" cy="338" r="17" />

</svg>
