 

<svg xmlns:agg="http://www.example.com" xmlns="http://www.w3.org/2000/svg" preserveAspectRatio="none" width="1.2372in" height="1.0750in" viewBox="0 0 999 868">

<path style="fill:#3f1f00" d="M54,72 l303,0 0,709 -303,0 0,-709z" />
<path style="fill:#aa7f54" d="M54,72 l303,0 0,709 -303,0 0,-709z" />
<path style="fill:#b08961" d="M62,72 l253,0 0,709 -253,0 0,-709z" />
<path style="fill:#b89471" d="M68,72 l206,0 0,709 -206,0 0,-709z" />
<path style="fill:#bf9f7f" d="M74,72 l161,0 0,709 -161,0 0,-709z" />
<path style="fill:#c6a98c" d="M82,72 l112,0 0,709 -112,0 0,-709z" />
<path style="fill:#cdb49b" d="M88,72 l64,0 0,709 -64,0 0,-709z" />
<path style="fill:#d4bea9" d="M93,72 l19,0 0,709 -19,0 0,-709z" />
<path style="fill:none;stroke:#000;stroke-width:2" d="M54,72 l303,0 0,709 -303,0 0,-709" />
<path style="fill:#191919;stroke:#000;stroke-width:2" d="M862,323 l50,0 0,501 -50,0 0,-501z" />
<path style="fill:#7f7f7f;stroke:#000;stroke-width:2" d="M862,323 l50,0 0,501 -50,0 0,-501z" />
<path style="fill:#191919;stroke:#000;stroke-width:2" d="M862,323 l52,-2 18,-34 -48,0 -22,36z" />
<path style="fill:#e0e0e0;stroke:#000;stroke-width:2" d="M932,287 l-18,34 0,501 18,-39 0,-496z" />
<path style="fill:#217f21" d="M679,335 l0,-44 92,0 5,6 0,34 -5,4 -92,0z" />
<path style="fill:#217f21" d="M683,188 l24,0 0,81 -24,0 0,-81z" />
<path style="fill:#217f21" d="M781,178 l0,-10 -120,0 0,10 120,0z" />
<path style="fill:#217f21" d="M781,188 l-120,0 0,-10 120,0 0,10z" />
<path style="fill:#217f21" d="M683,168 l24,0 0,-88 -24,2 0,86z" />
<path style="fill:#217f21" d="M705,80 l10,0 0,-23 -10,0 0,23z" />
<path style="fill:#217f21" d="M717,57 l-6,0 0,-17 6,0 0,17z" />
<path style="fill:#217f21" d="M683,291 l78,0 0,-16 0,-6 -78,0 0,6 0,16z" />
<path style="fill:#43a143;stroke:#000;stroke-width:2" d="M737,80 l2,0 0,-23 -2,0 0,23z" />
<path style="fill:#43a143;stroke:#000;stroke-width:2" d="M761,168 l2,0 0,-84 -2,0 0,84z" />
<path style="fill:#43a143;stroke:#000;stroke-width:2" d="M711,57 l10,0 12,0 0,-17 -12,0 -10,0 0,17z" />
<path style="fill:#43a143;stroke:#000;stroke-width:2" d="M737,80 l-16,-2 -16,2 0,-23 16,0 16,0 0,23z" />
<path style="fill:#43a143;stroke:#000;stroke-width:2" d="M683,168 l78,0 0,-88 -40,-2 -38,2 0,88z" />
<path style="fill:#43a143;stroke:#000;stroke-width:2" d="M778,178 l0,-8 -83,0 0,8 83,0z" />
<path style="fill:#43a143" d="M778,186 l-83,0 0,-8 83,0 0,8z" />
<path style="fill:#43a143" d="M683,188 l78,0 0,81 -78,0 0,-81z" />
<path style="fill:none;stroke:#000;stroke-width:2" d="M778,178 l0,8 -83,0 0,-8 83,0" />
<path style="fill:none;stroke:#000;stroke-width:2" d="M683,188 l78,0 0,81 -78,0 0,-81" />
<path style="fill:#217f21;stroke:#000;stroke-width:2" d="M761,188 l12,0 -10,81 -2,0 0,-81z" />
<path style="fill:#005e00;stroke:#000;stroke-width:2" d="M721,188 l2,0 0,81 -2,0 0,-81z" />
<path style="fill:#005e00;stroke:#000;stroke-width:2" d="M671,188 l12,0 0,81 -4,0 -8,-81z" />
<path style="fill:#005e00;stroke:#000;stroke-width:2" d="M721,168 l2,0 0,-84 -2,0 0,84z" />
<path style="fill:#005e00;stroke:#000;stroke-width:2" d="M679,168 l4,0 0,-84 -4,0 0,84z" />
<path style="fill:#005e00;stroke:#000;stroke-width:2" d="M703,80 l2,0 0,-23 -2,0 0,23z" />
<path style="fill:#005e00;stroke:#000;stroke-width:2" d="M723,78 l-2,0 0,-21 2,0 0,21z" />
<path style="fill:#43a143" d="M768,291 l-75,0 -6,6 0,32 6,6 75,0 1,-6 0,-32 -1,-6z" />
<path style="fill:#82e082" d="M763,291 l-4,0 2,6 0,32 -2,6 4,0 2,-6 0,-32 -2,-6z" />
<path style="fill:#82e082" d="M747,188 l8,0 0,81 -8,0 0,-81z" />
<path style="fill:#82e082" d="M773,178 l0,8 -5,0 0,-8 5,0z" />
<path style="fill:#82e082" d="M773,170 l-5,0 0,8 5,0 0,-8z" />
<path style="fill:#82e082" d="M747,168 l8,0 0,-88 -8,0 0,88z" />
<path style="fill:#82e082" d="M733,80 l2,0 0,-23 -2,0 0,23z" />
<path style="fill:#82e082" d="M731,57 l-2,0 0,-17 2,0 0,17z" />
<path style="fill:#217f21" d="M759,271 l0,4 -54,0 0,-4 54,0z" />
<path style="fill:#e5e5e5;stroke:#000;stroke-width:2" d="M747,27 l39,0 6,6 0,39 -6,6 -39,0 -6,-6 0,-39 6,-6z" />
<path style="fill:#e5e5e5;stroke:#000;stroke-width:2" d="M745,30 l38,0 7,5 0,39 -7,6 -38,0 -6,-6 0,-39 6,-5z" />
<ellipse style="fill:#000" cx="795" cy="192" rx="5" ry="138" />
<path style="fill:#ccc;stroke:#000;stroke-width:2" d="M347,140 l296,0 0,298 -10,8 -296,-296 10,-10z" />
<path style="fill:#e0e0e0;stroke:#000;stroke-width:2" d="M335,150 l298,0 0,296 -298,0 0,-296z" />
<path style="fill:#fff;stroke:#000;stroke-width:2" d="M355,168 l149,0 0,149 -149,0 0,-149z" />
<path style="fill:#000" d="M610,168 l-62,0 0,50 62,0 0,-50z" />
<path style="fill:#000" d="M367,182 l8,0 0,8 -8,0 0,-8z" />
<path style="fill:#000" d="M367,222 l8,0 0,11 -8,0 0,-11z" />
<path style="fill:#000" d="M367,265 l8,0 0,8 -8,0 0,-8z" />
<path style="fill:#000" d="M390,182 l10,0 0,8 -10,0 0,-8z" />
<path style="fill:#000" d="M390,222 l10,0 0,11 -10,0 0,-11z" />
<path style="fill:#000" d="M390,265 l10,0 0,8 -10,0 0,-8z" />
<path style="fill:#000" d="M412,182 l10,0 0,8 -10,0 0,-8z" />
<path style="fill:#000" d="M412,222 l10,0 0,11 -10,0 0,-11z" />
<path style="fill:#000" d="M412,265 l10,0 0,8 -10,0 0,-8z" />
<path style="fill:#000" d="M434,182 l10,0 0,8 -10,0 0,-8z" />
<path style="fill:#000" d="M434,222 l10,0 0,11 -10,0 0,-11z" />
<path style="fill:#000" d="M434,265 l10,0 0,8 -10,0 0,-8z" />
<path style="fill:#000" d="M456,182 l10,0 0,8 -10,0 0,-8z" />
<path style="fill:#000" d="M456,222 l10,0 0,11 -10,0 0,-11z" />
<path style="fill:#000" d="M456,265 l10,0 0,8 -10,0 0,-8z" />
<path style="fill:#000" d="M478,182 l10,0 0,8 -10,0 0,-8z" />
<path style="fill:#000" d="M478,222 l10,0 0,11 -10,0 0,-11z" />
<path style="fill:#000" d="M478,265 l10,0 0,8 -10,0 0,-8z" />
<path style="fill:#e0e0e0;stroke:#000;stroke-width:2" d="M345,448 l18,0 0,338 -18,0 0,-338z" />
<path style="fill:#e0e0e0;stroke:#000;stroke-width:2" d="M607,446 l18,0 0,344 -18,0 0,-344z" />
<path style="fill:none;stroke:#000;stroke-width:2" d="M393,448 l0,223 2,26 6,24 9,22 259,0" />
<path style="fill:none;stroke:#000;stroke-width:2" d="M395,448 l0,219 3,26 5,24 9,22 257,0" />
<path style="fill:none;stroke:#000;stroke-width:2" d="M400,448 l0,217 1,24 4,24 8,22 256,0" />
<path style="fill:none;stroke:#000;stroke-width:2" d="M401,448 l0,213 2,26 5,24 5,20 256,0" />
<path style="fill:none;stroke:#000;stroke-width:2" d="M403,448 l0,211 2,24 5,24 5,22 254,0" />
<path style="fill:none;stroke:#000;stroke-width:2" d="M408,448 l0,207 0,26 4,22 6,22 251,0" />
<path style="fill:none;stroke:#000;stroke-width:2" d="M410,448 l0,205 2,24 1,22 7,22 249,0" />
<path style="fill:none;stroke:#000;stroke-width:2" d="M412,448 l0,203 1,24 2,20 7,22 247,0" />
<path style="fill:none;stroke:#000;stroke-width:2" d="M415,448 l0,199 0,24 3,22 6,20 245,0" />
<path style="fill:none;stroke:#000;stroke-width:2" d="M418,448 l0,197 0,22 2,22 4,20 245,0" />
<path style="fill:none;stroke:#000;stroke-width:2" d="M420,448 l0,193 2,24 2,20 1,20 244,0" />
<path style="fill:none;stroke:#000;stroke-width:2" d="M422,448 l0,191 2,22 1,22 3,18 241,0" />
<path style="fill:none;stroke:#000;stroke-width:2" d="M425,448 l0,189 0,22 3,20 2,20 239,0" />
<path style="fill:none;stroke:#000;stroke-width:2" d="M428,448 l0,185 0,22 2,20 2,20 237,0" />
<path style="fill:#cdb49b;stroke:#000;stroke-width:2" d="M798,788 l-135,0 0,-451 135,0 0,451z" />
<path style="fill:#b89471;stroke:#000;stroke-width:2" d="M798,788 l10,-23 0,-450 -10,22 0,451z" />
<path style="fill:#b89471;stroke:#000;stroke-width:2" d="M808,315 l-133,0 -12,22 135,0 10,-22z" />
<path style="fill:none;stroke:#000;stroke-width:2" d="M689,401 l87,0" />
<path style="fill:none;stroke:#000;stroke-width:2" d="M689,418 l87,0" />
<path style="fill:none;stroke:#000;stroke-width:2" d="M689,436 l87,0" />
<path style="fill:none;stroke:#000;stroke-width:2" d="M689,454 l87,0" />
<path style="fill:none;stroke:#000;stroke-width:2" d="M689,470 l87,0" />
<path style="fill:none;stroke:#000;stroke-width:2" d="M689,488 l87,0" />
<path style="fill:none;stroke:#000;stroke-width:2" d="M689,506 l87,0" />
<path style="fill:none;stroke:#000;stroke-width:2" d="M689,522 l87,0" />
<path style="fill:none;stroke:#000;stroke-width:2" d="M689,540 l87,0" />
<path style="fill:none;stroke:#000;stroke-width:2" d="M689,558 l87,0" />
<path style="fill:none;stroke:#000;stroke-width:2" d="M689,574 l87,0" />
<path style="fill:none;stroke:#000;stroke-width:2" d="M689,593 l87,0" />
<path style="fill:none;stroke:#000;stroke-width:2" d="M689,608 l87,0" />
<path style="fill:none;stroke:#000;stroke-width:2" d="M689,627 l87,0" />
<path style="fill:none;stroke:#000;stroke-width:2" d="M689,645 l87,0" />
<path style="fill:none;stroke:#000;stroke-width:2" d="M689,661 l87,0" />
<path style="fill:none;stroke:#000;stroke-width:2" d="M689,679 l87,0" />
<path style="fill:none;stroke:#000;stroke-width:2" d="M689,697 l87,0" />
<path style="fill:none;stroke:#000;stroke-width:2" d="M689,713 l87,0" />
<path style="fill:#aa7f54;stroke:#000;stroke-width:2" d="M27,781 l8,9 928,0 8,-9 -944,0z" />
<path style="fill:#c6a98c" d="M35,790 l43,42 842,0 43,-42 -928,0z" />
<path style="fill:#aa7f54" d="M35,790 l10,10 908,0 10,-10 -928,0z" />
<path style="fill:#aa7f54;stroke:#000;stroke-width:2" d="M78,832 l8,8 826,0 8,-8 -842,0z" />
<path style="fill:none;stroke:#000;stroke-width:2" d="M35,790 l43,42 842,0 43,-42 -928,0" />
<path style="fill:#f0f0f0;stroke:#000;stroke-width:2" d="M261,673 l-8,-4 -4,-10 0,-18 8,-2 6,2 0,10 4,4 4,2 392,0 0,16 -402,0z" />
<path style="fill:#f0f0f0;stroke:#000;stroke-width:2" d="M263,144 l-2,-10 -10,-4 -21,0 -1,8 1,8 10,0 7,2 2,4 0,487 14,0 0,-495z" />

</svg>
