 

<svg xmlns:agg="http://www.example.com" xmlns="http://www.w3.org/2000/svg" preserveAspectRatio="none" width="1.6083in" height="0.8307in" viewBox="0 0 999 516">

<path style="fill:#4c7f7f" d="M744,126 l0,318 141,0 0,-318 -141,0z" />
<path style="fill:#699" d="M744,154 l0,260 141,0 0,-260 -141,0z" />
<path style="fill:#7fb2b2" d="M744,194 l0,181 141,0 0,-181 -141,0z" />
<path style="fill:#9cc" d="M744,239 l0,90 141,0 0,-90 -141,0z" />
<path style="fill:none;stroke:#000;stroke-width:2" d="M744,126 l0,318 141,0 0,-318 -141,0" />
<path style="fill:#194c4c;stroke:#000;stroke-width:2" d="M778,126 l89,0 0,318 -89,0 0,-318z" />
<path style="fill:#366;stroke:#000;stroke-width:2" d="M52,401 l245,0 0,13 -245,0 0,-13z" />
<path style="fill:#366;stroke:#000;stroke-width:2" d="M322,216 l24,0 0,157 -24,0 0,-157z" />
<path style="fill:#4c7f7f;stroke:#000;stroke-width:2" d="M45,395 l19,0 0,47 -19,0 0,-47z" />
<path style="fill:#4c7f7f;stroke:#000;stroke-width:2" d="M114,395 l17,0 0,47 -17,0 0,-47z" />
<path style="fill:#4c7f7f;stroke:#000;stroke-width:2" d="M278,395 l19,0 0,47 -19,0 0,-47z" />
<path style="fill:#4c7f7f" d="M52,399 l257,0 18,-15 0,-179 -18,-17 -4,0 -5,0 -248,0 -21,18 -3,10 0,2 0,6 0,145 12,25 10,5 2,0z" />
<path style="fill:#699" d="M52,380 l257,0 18,-15 0,-147 -18,-9 -4,0 -5,0 -248,0 -22,15 -2,4 0,5 0,5 0,118 16,22 4,2 4,0z" />
<path style="fill:#7fb2b2" d="M52,354 l257,0 18,-11 0,-102 -18,-8 -4,0 -5,0 -248,0 -22,12 -2,4 0,3 0,6 0,79 20,17 4,0z" />
<path style="fill:#9cc" d="M52,324 l257,0 18,-8 0,-45 -18,-8 -4,0 -5,0 -248,0 -24,8 0,2 0,3 0,40 0,2 20,6 4,0z" />
<path style="fill:none;stroke:#000;stroke-width:2" d="M52,399 l257,0 18,-15 0,-179 -18,-17 -4,0 -5,0 -248,0 -21,18 -3,10 0,2 0,6 0,145 12,25 10,5 2,0" />
<path style="fill:#699;stroke:#000;stroke-width:2" d="M92,388 l83,0 0,-115 -83,0 0,115z" />
<path style="fill:none;stroke:#fff;stroke-width:2" d="M98,384 l0,-104 71,0" />
<path style="fill:#9cc;stroke:#000;stroke-width:2" d="M28,441 l899,0 0,47 -899,0 0,-47z" />
<path style="fill:#9cc;stroke:#000;stroke-width:2" d="M348,182 l396,0 0,211 -396,0 0,-211z" />
<path style="fill:#b2e5e5" d="M350,188 l388,0 0,55 -388,0 0,-55z" />
<path style="fill:#4c7f7f" d="M744,28 l140,0 0,21 -140,0 0,-21z" />
<path style="fill:#699" d="M757,28 l115,0 0,21 -115,0 0,-21z" />
<path style="fill:#7fb2b2" d="M774,28 l79,0 0,21 -79,0 0,-21z" />
<path style="fill:#9cc" d="M795,28 l40,0 0,21 -40,0 0,-21z" />
<path style="fill:none;stroke:#000;stroke-width:2" d="M744,28 l140,0 0,21 -140,0 0,-21" />
<path style="fill:#4c7f7f" d="M797,47 l34,0 0,35 -34,0 0,-35z" />
<path style="fill:#699" d="M801,47 l28,0 0,35 -28,0 0,-35z" />
<path style="fill:#7fb2b2" d="M804,47 l21,0 0,35 -21,0 0,-35z" />
<path style="fill:#9cc" d="M810,47 l9,0 0,35 -9,0 0,-35z" />
<path style="fill:none;stroke:#000;stroke-width:2" d="M797,47 l34,0 0,35 -34,0 0,-35" />
<path style="fill:none;stroke:#000;stroke-width:2" d="M82,399 l0,-209" />
<path style="fill:none;stroke:#000;stroke-width:2" d="M307,399 l0,-209" />
<circle style="fill:#4c7f7f;stroke:#000;stroke-width:2" cx="192" cy="392" r="17" />
<path style="fill:#7fb2b2;stroke:#000;stroke-width:2" d="M343,390 l401,0 0,49 -401,0 0,-49z" />
<path style="fill:#366;stroke:#000;stroke-width:2" d="M478,410 l266,0 0,29 -266,0 0,-29z" />
<path style="fill:#699;stroke:#000;stroke-width:2" d="M484,212 l0,-28 -15,0 0,28 0,2 0,1 1,2 1,1 1,1 2,0 1,1 1,0 2,0 1,-1 1,0 2,-1 1,-1 0,-2 1,-1 0,-2z" />
<path style="fill:#699;stroke:#000;stroke-width:2" d="M631,212 l0,-28 -15,0 0,28 0,2 0,1 1,2 1,1 1,1 2,0 1,1 1,0 2,0 1,-1 1,0 2,-1 1,-1 0,-2 1,-1 0,-2z" />
<path style="fill:#7fb2b2;stroke:#000;stroke-width:2" d="M778,346 l89,0 0,15 -89,0 0,-15z" />
<path style="fill:#699;stroke:#000;stroke-width:2" d="M778,410 l89,0 0,14 -89,0 0,-14z" />
<path style="fill:#9cc;stroke:#000;stroke-width:2" d="M778,282 l89,0 0,15 -89,0 0,-15z" />
<path style="fill:#9cc;stroke:#000;stroke-width:2" d="M778,209 l89,0 0,15 -89,0 0,-15z" />
<path style="fill:#9cc;stroke:#000;stroke-width:2" d="M778,145 l89,0 0,15 -89,0 0,-15z" />
<path style="fill:#366;stroke:#000;stroke-width:2" d="M744,81 l141,0 0,45 -141,0 0,-45z" />
<path style="fill:none;stroke:#fff;stroke-width:2" d="M753,116 l0,-30 123,0" />
<path style="fill:#366;stroke:#000;stroke-width:2" d="M885,105 l40,0 0,202 -40,0 0,-202z" />
<path style="fill:#4c7f7f" d="M925,224 l-40,83 83,0 2,-83 -45,0z" />
<path style="fill:#699" d="M921,231 l-32,68 79,0 0,-68 -47,0z" />
<path style="fill:#7fb2b2" d="M916,241 l-21,47 73,0 0,-47 -52,0z" />
<path style="fill:#9cc" d="M912,252 l-12,25 68,0 0,-25 -56,0z" />
<path style="fill:none;stroke:#000;stroke-width:2" d="M885,307 l83,0 0,-83 -43,0" />

</svg>
