 

<svg xmlns:agg="http://www.example.com" xmlns="http://www.w3.org/2000/svg" preserveAspectRatio="none" width="0.9846in" height="1.0750in" viewBox="0 0 915 999">

<path style="fill:#43a143;stroke:#000;stroke-width:2" d="M68,645 l-26,-158 -10,-165 -4,-172 0,-122 289,0 0,268 31,-29 60,-31 65,-19 69,-8 69,8 65,19 58,31 50,43 43,50 31,60 21,65 8,69 -8,69 -21,65 -31,58 -43,50 -50,43 -58,31 -65,21 -67,17 -83,-2 -79,-12 -106,-39 -91,-52 -62,-74 -55,-84z" />
<path style="fill:#217f21" d="M879,499 l-215,376 12,-5 58,-31 50,-43 43,-50 31,-58 21,-65 8,-69 -8,-55z" />
<path style="fill:none;stroke:#000;stroke-width:2" d="M542,245 l62,7 58,17 52,29 46,38 36,46 29,52 18,58 5,62 -5,62 -18,58 -29,52 -36,46 -46,36 -52,29 -58,18 -62,5 -62,-5 -58,-18 -52,-29 -46,-36 -38,-46 -29,-52 -16,-58 -8,-62 8,-62 16,-58 29,-52 38,-46 46,-38 52,-29 58,-17 62,-7" />
<path style="fill:#217f21" d="M710,580 l93,-55 31,-62 9,29 5,62 -5,62 -18,58 -29,50 -36,48 -48,36 -50,29 -58,18 -62,5 -62,-5 -58,-18 -19,-10 266,-129 41,-118z" />
<path style="fill:none;stroke:#000;stroke-width:2" d="M542,329 l45,5 41,12 39,21 33,27 26,33 22,39 14,42 5,46 -5,45 -14,41 -22,38 -26,34 -33,26 -39,22 -41,14 -45,5 -46,-5 -42,-14 -39,-22 -33,-26 -27,-34 -21,-38 -12,-41 -5,-45 5,-46 12,-42 21,-39 27,-33 33,-27 39,-21 42,-12 46,-5" />
<circle style="fill:#f0f0f0" cx="542" cy="554" r="155" />
<path style="fill:#217f21;stroke:#000;stroke-width:2" d="M262,425 l24,-43 38,-46 46,-38 52,-29 39,-12 41,-45 -29,5 -65,19 -60,31 -31,29 0,-268 -55,0 0,397z" />
<path style="fill:#217f21;stroke:#000;stroke-width:2" d="M623,561 l72,0 0,237 -60,0 -95,-29 -94,29 -59,0 0,-237 71,0 0,41 41,41 81,0 43,-41 0,-41z" />
<path style="fill:#217f21;stroke:#000;stroke-width:2" d="M346,798 l378,0 0,156 -378,0 0,-156z" />
<circle style="fill:#217f21" cx="541" cy="553" r="140" />
<circle style="fill:#82e082;stroke:#000;stroke-width:2" cx="542" cy="554" r="79" />
<circle style="fill:#b2b2b2;stroke:#000;stroke-width:2" cx="541" cy="553" r="54" />
<path style="fill:#e5e5e5;stroke:#000;stroke-width:2" d="M542,513 l14,3 15,9 7,12 2,17 -2,14 -7,15 -15,7 -14,2 -17,-2 -12,-7 -9,-15 -2,-14 2,-17 9,-12 12,-9 17,-3z" />
<path style="fill:#43a143" d="M879,597 l-2,12 -115,-12 3,-12 114,12z" />
<path style="fill:#43a143" d="M801,774 l-8,10 -88,-77 7,-7 89,74z" />
<path style="fill:#82e082" d="M587,334 l8,2 -15,67 -7,-2 14,-67z" />
<path style="fill:#82e082" d="M461,343 l7,-2 22,65 -8,2 -21,-65z" />
<path style="fill:#82e082" d="M363,420 l4,-5 53,41 -5,5 -52,-41z" />
<path style="fill:#82e082" d="M320,537 l0,-7 67,7 0,7 -67,-7z" />
<path style="fill:#82e082" d="M346,659 l-3,-7 44,-21 0,7 -41,21z" />
<path style="fill:#82e082" d="M750,631 l-2,7 -55,-19 5,-8 52,20z" />
<path style="fill:#82e082" d="M760,506 l2,7 -67,15 0,-8 65,-14z" />
<path style="fill:#82e082" d="M700,394 l5,7 -50,48 -5,-7 50,-48z" />
<path style="fill:#82e082" d="M848,411 l5,9 -103,48 -4,-10 102,-47z" />
<path style="fill:#82e082" d="M722,267 l9,5 -62,95 -10,-4 63,-96z" />
<path style="fill:#82e082" d="M535,214 l12,0 0,122 -12,0 0,-122z" />
<path style="fill:#82e082" d="M353,272 l10,-5 64,100 -12,8 -62,-103z" />
<path style="fill:#82e082" d="M260,434 l4,-12 75,34 -5,12 -74,-34z" />
<path style="fill:#82e082" d="M238,604 l0,-12 82,-9 0,12 -82,9z" />
<path style="fill:#82e082" d="M315,760 l-7,-10 59,-52 10,7 -62,55z" />
<path style="fill:#82e082" d="M44,30 l125,0 2,436 2,143 29,84 29,67 38,53 -67,-20 -64,-76 -51,-82 -31,-213 -12,-392z" />
<path style="fill:#82e082;stroke:#000;stroke-width:2" d="M291,729 l-5,-5 -5,-7 -86,74 10,10 86,-72z" />
<path style="fill:#82e082;stroke:#000;stroke-width:2" d="M245,635 l5,12 -119,63 -8,-12 122,-63z" />
<path style="fill:#82e082;stroke:#000;stroke-width:2" d="M238,516 l-2,14 -153,36 -3,-12 158,-38z" />
<path style="fill:#82e082;stroke:#000;stroke-width:2" d="M274,406 l-7,14 -208,17 0,-15 215,-16z" />
<path style="fill:#82e082;stroke:#000;stroke-width:2" d="M61,327 l220,-7 0,14 -220,7 0,-14z" />
<path style="fill:#82e082;stroke:#000;stroke-width:2" d="M61,233 l220,0 0,15 -220,0 0,-15z" />
<path style="fill:#82e082;stroke:#000;stroke-width:2" d="M61,126 l220,0 0,14 -220,0 0,-14z" />
<path style="fill:#82e082;stroke:#000;stroke-width:2" d="M61,37 l220,0 0,15 -220,0 0,-15z" />
<path style="fill:#7f7f7f;stroke:#000;stroke-width:2" d="M829,707 l12,0 5,-9 -5,-10 -12,0 -4,10 4,9z" />
<path style="fill:#7f7f7f;stroke:#000;stroke-width:2" d="M731,822 l10,0 7,-7 -7,-10 -10,0 -5,10 5,7z" />
<path style="fill:#000" d="M300,970 l130,0 0,-16 -130,0 0,16z" />
<path style="fill:#000" d="M640,970 l132,0 0,-16 -132,0 0,16z" />
<path style="fill:#000" d="M454,817 l162,0 72,60 -72,57 -162,0 -72,-57 72,-60z" />
<circle style="fill:#000" cx="736" cy="815" r="5" />
<path style="fill:#000" d="M837,693 l2,2 2,3 -2,2 -2,2 -3,0 -3,-2 0,-2 0,-3 3,-2 3,0z" />
<path style="fill:#000" d="M520,525 l3,0 0,3 -3,-3z" />
<path style="fill:#000" d="M508,542 l3,0 0,2 -3,-2z" />
<path style="fill:#000" d="M520,580 l0,-2 3,0 0,2 -3,0z" />
<path style="fill:#000" d="M540,587 l0,-2 2,0 0,2 -2,0z" />
<path style="fill:#000" d="M561,580 l-2,0 0,-2 2,0 0,2z" />
<path style="fill:#000" d="M573,564 l0,2 -2,0 0,-2 2,0z" />
<path style="fill:#000" d="M573,542 l0,2 -2,0 0,-2 2,0z" />
<path style="fill:#000" d="M561,525 l0,3 -2,0 0,-3 2,0z" />
<path style="fill:#000" d="M502,499 l2,0 0,3 2,0 -2,2 -2,0 0,-2 0,-3z" />
<path style="fill:#000" d="M478,532 l2,-2 0,5 -2,0 0,-3z" />
<path style="fill:#000" d="M478,573 l4,-2 0,2 -2,3 -2,-3z" />
<path style="fill:#000" d="M502,607 l0,-3 2,0 0,3 -2,0z" />
<path style="fill:#000" d="M540,487 l2,0 0,3 -2,2 0,-2 -3,0 3,-3z" />
<path style="fill:#000" d="M540,621 l-3,-5 3,0 2,0 -2,5z" />
<path style="fill:#000" d="M580,607 l-2,2 -2,-2 0,-3 2,0 2,0 0,3z" />
<path style="fill:#000" d="M604,573 l0,3 -2,0 -3,0 0,-3 5,0z" />
<path style="fill:#000" d="M604,532 l0,3 -2,2 -3,-2 3,-3 2,0z" />
<path style="fill:#000" d="M580,499 l0,3 3,0 -3,2 -2,0 0,-2 2,-3z" />
<path style="fill:#005e00;stroke:#000;stroke-width:2" d="M621,549 l0,5 -2,7 88,0 0,-12 -86,0z" />
<path style="fill:#005e00;stroke:#000;stroke-width:2" d="M463,561 l0,-7 0,-5 -88,0 0,12 88,0z" />
<path style="fill:#7f7f7f" d="M396,561 l7,0 0,10 -7,0 0,-10z" />
<path style="fill:#7f7f7f" d="M387,561 l4,0 0,10 -4,0 0,-10z" />
<path style="fill:#7f7f7f" d="M387,540 l4,0 0,9 -4,0 0,-9z" />
<path style="fill:#7f7f7f" d="M396,540 l7,0 0,9 -7,0 0,-9z" />
<path style="fill:#7f7f7f" d="M688,540 l5,0 0,9 -5,0 0,-9z" />
<path style="fill:#7f7f7f" d="M676,540 l7,0 0,9 -7,0 0,-9z" />
<path style="fill:#7f7f7f" d="M676,561 l7,0 0,10 -7,0 0,-10z" />
<path style="fill:#7f7f7f" d="M688,561 l5,0 0,10 -5,0 0,-10z" />
<path style="fill:#f0f0f0;stroke:#000;stroke-width:2" d="M724,523 l7,0 5,-5 -5,-7 -7,0 -2,7 2,5z" />
<path style="fill:#f0f0f0;stroke:#000;stroke-width:2" d="M298,54 l10,0 7,-7 -7,-10 -10,0 -5,10 5,7z" />
<path style="fill:#f0f0f0;stroke:#000;stroke-width:2" d="M298,176 l12,0 5,-7 -5,-10 -12,0 -5,10 5,7z" />
<path style="fill:#f0f0f0;stroke:#000;stroke-width:2" d="M300,329 l12,0 5,-7 -5,-10 -12,0 -4,10 4,7z" />
<path style="fill:#f0f0f0;stroke:#000;stroke-width:2" d="M387,446 l7,0 5,-4 -5,-8 -7,0 -3,8 3,4z" />
<path style="fill:#f0f0f0;stroke:#000;stroke-width:2" d="M580,377 l7,0 3,-7 -3,-5 -7,0 -4,5 4,7z" />
<path style="fill:#f0f0f0;stroke:#000;stroke-width:2" d="M444,250 l12,0 5,-9 -5,-8 -12,0 -5,8 5,9z" />
<path style="fill:#f0f0f0;stroke:#000;stroke-width:2" d="M631,250 l9,0 5,-7 -5,-10 -9,0 -5,10 5,7z" />
<path style="fill:#f0f0f0;stroke:#000;stroke-width:2" d="M779,346 l12,0 5,-10 -5,-9 -12,0 -5,9 5,10z" />
<path style="fill:#f0f0f0;stroke:#000;stroke-width:2" d="M858,504 l9,0 5,-10 -5,-9 -9,0 -5,9 5,10z" />
<path style="fill:#f0f0f0;stroke:#000;stroke-width:2" d="M279,853 l9,0 5,-10 -5,-9 -9,0 -7,9 7,10z" />
<path style="fill:#f0f0f0;stroke:#000;stroke-width:2" d="M155,765 l9,0 5,-10 -5,-9 -9,0 -8,9 8,10z" />
<path style="fill:#f0f0f0;stroke:#000;stroke-width:2" d="M76,650 l9,0 5,-10 -5,-7 -9,0 -8,7 8,10z" />
<path style="fill:#f0f0f0;stroke:#000;stroke-width:2" d="M44,413 l10,0 5,-10 -5,-9 -10,0 -7,9 7,10z" />
<path style="fill:#f0f0f0;stroke:#000;stroke-width:2" d="M37,248 l10,0 7,-7 -7,-10 -10,0 -5,10 5,7z" />
<path style="fill:#f0f0f0;stroke:#000;stroke-width:2" d="M37,54 l10,0 5,-7 -5,-10 -10,0 -7,10 7,7z" />
<path style="fill:#f0f0f0;stroke:#000;stroke-width:2" d="M688,540 l-5,0 0,9 5,0 0,-9z" />
<path style="fill:#f0f0f0;stroke:#000;stroke-width:2" d="M688,561 l-5,0 0,10 5,0 0,-10z" />
<path style="fill:#f0f0f0;stroke:#000;stroke-width:2" d="M396,540 l-5,0 0,9 5,0 0,-9z" />
<path style="fill:#f0f0f0;stroke:#000;stroke-width:2" d="M396,561 l-5,0 0,10 5,0 0,-10z" />
<path style="fill:#7f7f7f" d="M729,513 l2,3 0,2 0,2 -2,0 -3,0 -2,-2 0,-2 2,0 0,-3 3,0z" />
<circle style="fill:#7f7f7f" cx="303" cy="47" r="5" />
<ellipse style="fill:#7f7f7f" cx="305" cy="167" rx="5" ry="3" />
<ellipse style="fill:#7f7f7f" cx="305" cy="320" rx="5" ry="3" />
<circle style="fill:#7f7f7f" cx="449" cy="240" r="5" />
<path style="fill:#7f7f7f" d="M635,238 l3,0 2,3 0,2 -2,2 -3,3 -2,-3 -2,-2 0,-2 2,-3 2,0z" />
<path style="fill:#7f7f7f" d="M786,331 l3,3 0,2 0,3 -3,2 -2,0 -3,-2 0,-3 0,-2 3,-3 2,0z" />
<circle style="fill:#7f7f7f" cx="862" cy="494" r="4" />
<circle style="fill:#7f7f7f" cx="283" cy="843" r="4" />
<path style="fill:#7f7f7f" d="M159,750 l2,3 3,2 -3,2 -2,3 -2,0 -2,-3 0,-2 0,-2 2,-3 2,0z" />
<circle style="fill:#7f7f7f" cx="80" cy="640" r="4" />
<circle style="fill:#7f7f7f" cx="49" cy="403" r="5" />
<ellipse style="fill:#7f7f7f" cx="42" cy="239" rx="5" ry="3" />
<circle style="fill:#7f7f7f" cx="42" cy="47" r="5" />
<path style="fill:#7f7f7f" d="M391,437 l3,2 0,3 0,2 -3,0 -2,0 -2,-2 0,-3 2,0 0,-2 2,0z" />
<path style="fill:#7f7f7f" d="M583,367 l2,0 2,3 0,2 -2,0 0,3 -2,0 -3,-3 0,-2 0,-3 3,0z" />

</svg>
