 

<svg xmlns:agg="http://www.example.com" xmlns="http://www.w3.org/2000/svg" preserveAspectRatio="none" width="0.8124in" height="1.0750in" viewBox="0 0 755 999">

<path style="fill:#666;stroke:#000;stroke-width:2" d="M458,808 l26,-66 217,0 26,66 -269,0z" />
<path style="fill:#333" d="M28,808 l26,-107 377,0 27,107 -430,0z" />
<path style="fill:#7f7f7f" d="M431,111 l0,590 -377,0 0,-590 377,0z" />
<path style="fill:#8a8a8a" d="M409,109 l0,592 -332,0 0,-592 332,0z" />
<path style="fill:#919191" d="M388,109 l0,592 -291,0 0,-592 291,0z" />
<path style="fill:#9c9c9c" d="M365,109 l0,592 -245,0 0,-592 245,0z" />
<path style="fill:#a6a6a6" d="M344,109 l0,592 -203,0 0,-592 203,0z" />
<path style="fill:#b0b0b0" d="M322,109 l0,592 -159,0 0,-592 159,0z" />
<path style="fill:#b8b8b8" d="M301,109 l0,592 -117,0 0,-592 117,0z" />
<path style="fill:#c2c2c2" d="M278,109 l0,592 -71,0 0,-592 71,0z" />
<path style="fill:#ccc" d="M258,111 l0,590 -30,0 0,-590 30,0z" />
<path style="fill:none;stroke:#000;stroke-width:2" d="M431,111 l0,590 -377,0 0,-590 377,0" />
<path style="fill:#7f7f7f" d="M458,177 l0,39 -430,0 0,-39 430,0z" />
<path style="fill:#8a8a8a" d="M433,177 l0,39 -381,0 0,-39 381,0z" />
<path style="fill:#919191" d="M409,177 l0,39 -332,0 0,-39 332,0z" />
<path style="fill:#9c9c9c" d="M384,177 l0,39 -283,0 0,-39 283,0z" />
<path style="fill:#a6a6a6" d="M358,177 l0,39 -232,0 0,-39 232,0z" />
<path style="fill:#b0b0b0" d="M333,177 l0,39 -181,0 0,-39 181,0z" />
<path style="fill:#b8b8b8" d="M309,177 l0,39 -132,0 0,-39 132,0z" />
<path style="fill:#c2c2c2" d="M284,177 l0,39 -83,0 0,-39 83,0z" />
<path style="fill:#ccc" d="M260,177 l0,39 -34,0 0,-39 34,0z" />
<path style="fill:none;stroke:#000;stroke-width:2" d="M458,177 l0,39 -430,0 0,-39 430,0" />
<path style="fill:#999;stroke:#000;stroke-width:2" d="M28,808 l26,-107 27,0 -27,107 -26,0z" />
<path style="fill:#999;stroke:#000;stroke-width:2" d="M128,808 l2,-13 2,-14 1,-13 2,-14 2,-13 1,-13 1,-14 2,-13 28,0 -1,13 -2,14 -2,13 -2,13 -1,14 -2,13 -2,14 -1,13 -28,0z" />
<path style="fill:#999;stroke:#000;stroke-width:2" d="M178,808 l2,-13 1,-14 1,-13 1,-14 1,-13 1,-13 0,-14 1,-13 26,0 0,13 -1,14 -1,13 0,13 -2,14 0,13 -2,14 -1,13 -27,0z" />
<path style="fill:#999;stroke:#000;stroke-width:2" d="M230,808 l0,-6 0,-101 26,0 0,107 -26,0z" />
<path style="fill:#999;stroke:#000;stroke-width:2" d="M280,808 l0,-13 -1,-14 -1,-13 -1,-14 -1,-13 0,-13 -2,-14 -1,-13 26,0 2,13 1,14 1,13 1,13 1,14 0,13 1,14 1,13 -27,0z" />
<path style="fill:#999;stroke:#000;stroke-width:2" d="M331,808 l-2,-13 -2,-14 -2,-13 -1,-14 -2,-13 -2,-13 -2,-14 -2,-13 28,0 2,13 1,14 2,13 2,13 2,14 2,13 1,14 2,13 -27,0z" />
<path style="fill:#999;stroke:#000;stroke-width:2" d="M431,808 l-28,-107 28,0 27,107 -27,0z" />
<path style="fill:#999;stroke:#000;stroke-width:2" d="M380,808 l-2,-13 -2,-14 -3,-13 -2,-14 -3,-13 -3,-13 -3,-14 -3,-13 29,0 3,13 2,14 3,13 2,13 3,14 2,13 3,14 3,13 -29,0z" />
<path style="fill:#999;stroke:#000;stroke-width:2" d="M79,808 l2,-13 3,-14 3,-13 2,-14 2,-13 2,-13 2,-14 2,-13 29,0 -3,13 -3,14 -2,13 -3,13 -2,14 -2,13 -3,14 -3,13 -26,0z" />
<path style="fill:#7f7f7f" d="M701,674 l0,134 -217,0 0,-134 217,0z" />
<path style="fill:#8a8a8a" d="M687,674 l0,134 -190,0 0,-134 190,0z" />
<path style="fill:#919191" d="M676,674 l0,134 -166,0 0,-134 166,0z" />
<path style="fill:#9c9c9c" d="M663,674 l0,134 -141,0 0,-134 141,0z" />
<path style="fill:#a6a6a6" d="M650,674 l0,134 -115,0 0,-134 115,0z" />
<path style="fill:#b0b0b0" d="M639,674 l0,134 -93,0 0,-134 93,0z" />
<path style="fill:#b8b8b8" d="M625,674 l0,134 -66,0 0,-134 66,0z" />
<path style="fill:#c2c2c2" d="M614,674 l0,134 -41,0 0,-134 41,0z" />
<path style="fill:#ccc" d="M601,674 l0,134 -17,0 0,-134 17,0z" />
<path style="fill:none;stroke:#000;stroke-width:2" d="M701,674 l0,134 -217,0 0,-134 217,0" />
<path style="fill:#e5e5e5" d="M81,337 l214,0 0,136 -214,0 0,-136z" />
<path style="fill:#e5e5e5" d="M81,324 l214,0 0,-27 -214,0 0,27z" />
<path style="fill:#b2b2b2" d="M81,216 l39,0 0,-53 -39,0 0,53z" />
<path style="fill:#7f7f7f" d="M148,216 l-28,0 0,-53 28,0 0,53z" />
<path style="fill:none;stroke:#000;stroke-width:2" d="M81,216 l67,0 0,-53 -67,0 0,53" />
<path style="fill:#b2b2b2" d="M337,216 l40,0 0,-53 -40,0 0,53z" />
<path style="fill:#7f7f7f" d="M403,216 l-26,0 0,-53 26,0 0,53z" />
<path style="fill:none;stroke:#000;stroke-width:2" d="M337,216 l66,0 0,-53 -66,0 0,53" />
<path style="fill:#999;stroke:#000;stroke-width:2" d="M591,808 l0,-66 15,66 -15,0z" />
<path style="fill:#7f7f7f" d="M727,808 l0,162 -699,0 0,-162 699,0z" />
<path style="fill:#8a8a8a" d="M687,808 l0,162 -620,0 0,-162 620,0z" />
<path style="fill:#919191" d="M646,808 l0,162 -537,0 0,-162 537,0z" />
<path style="fill:#9c9c9c" d="M606,808 l0,162 -458,0 0,-162 458,0z" />
<path style="fill:#a6a6a6" d="M567,808 l0,162 -377,0 0,-162 377,0z" />
<path style="fill:#b0b0b0" d="M525,808 l0,162 -295,0 0,-162 295,0z" />
<path style="fill:#b8b8b8" d="M486,808 l0,162 -217,0 0,-162 217,0z" />
<path style="fill:#c2c2c2" d="M446,808 l0,162 -135,0 0,-162 135,0z" />
<path style="fill:#ccc" d="M405,808 l0,162 -55,0 0,-162 55,0z" />
<path style="fill:none;stroke:#e5e5e5;stroke-width:2" d="M28,863 l699,0" />
<path style="fill:none;stroke:#000;stroke-width:2" d="M28,855 l699,0" />
<path style="fill:none;stroke:#000;stroke-width:2" d="M727,808 l0,162 -699,0 0,-162 699,0" />
<path style="fill:#7f7f7f" d="M162,41 l0,68 -81,0 0,-68 81,0z" />
<path style="fill:#999" d="M156,41 l0,68 -70,0 0,-68 70,0z" />
<path style="fill:#b2b2b2" d="M148,41 l0,68 -54,0 0,-68 54,0z" />
<path style="fill:#ccc" d="M139,41 l0,68 -36,0 0,-68 36,0z" />
<path style="fill:#e5e5e5" d="M133,41 l0,68 -24,0 0,-68 24,0z" />
<path style="fill:#fff" d="M126,41 l0,68 -10,0 0,-68 10,0z" />
<path style="fill:none;stroke:#000;stroke-width:2" d="M162,41 l0,68 -81,0 0,-68 81,0" />
<path style="fill:#666;stroke:#000;stroke-width:2" d="M47,28 l162,0 0,13 -162,0 0,-13z" />

</svg>
