 

<svg xmlns:agg="http://www.example.com" xmlns="http://www.w3.org/2000/svg" preserveAspectRatio="none" width="0.4573in" height="1.0750in" viewBox="0 0 425 999">

<path style="fill:#4c7f7f" d="M77,884 l21,-21 -42,-44 -21,21 42,44z" />
<path style="fill:#699" d="M79,882 l17,-17 -42,-44 -17,17 42,44z" />
<path style="fill:#7fb2b2" d="M81,878 l13,-11 -44,-42 -11,11 42,42z" />
<path style="fill:#9cc" d="M84,876 l6,-6 -41,-43 -6,6 41,43z" />
<path style="fill:none;stroke:#000;stroke-width:2" d="M77,884 l21,-21 -42,-44 -21,21 42,44" />
<path style="fill:#4c7f7f" d="M107,887 l0,-30 70,0 0,30 -70,0z" />
<path style="fill:#699" d="M107,885 l0,-24 70,0 0,24 -70,0z" />
<path style="fill:#7fb2b2" d="M107,882 l0,-17 70,0 0,17 -70,0z" />
<path style="fill:#9cc" d="M107,878 l0,-10 70,0 0,10 -70,0z" />
<path style="fill:none;stroke:#000;stroke-width:2" d="M107,887 l0,-30 70,0 0,30 -70,0" />
<path style="fill:#699;stroke:#000;stroke-width:2" d="M331,344 l21,0 0,57 -21,0 0,-57z" />
<path style="fill:#699;stroke:#000;stroke-width:2" d="M165,344 l21,0 0,57 -21,0 0,-57z" />
<path style="fill:#194c4c;stroke:#000;stroke-width:2" d="M186,45 l145,0 0,13 -145,0 0,-13z" />
<path style="fill:#4c7f7f" d="M165,81 l0,263 14,21 160,0 13,-21 0,-3 0,-5 0,-255 -14,-22 -8,-4 -4,-1 -10,0 -124,0 -24,17 -2,5 -1,5z" />
<path style="fill:#699" d="M182,81 l0,263 14,21 130,0 9,-21 0,-3 0,-5 0,-255 -14,-25 -5,-1 -4,-1 -7,0 -100,0 -21,17 -1,5 -1,5z" />
<path style="fill:#7fb2b2" d="M205,81 l0,263 11,21 89,0 6,-21 0,-3 0,-5 0,-255 -10,-25 -3,-1 -3,-1 -5,0 -70,0 -15,22 0,5z" />
<path style="fill:#9cc" d="M231,81 l0,263 8,21 39,0 6,-21 0,-3 0,-5 0,-255 -5,-25 -1,-1 -1,-1 -6,0 -32,0 -3,2 -4,20 -1,5z" />
<path style="fill:none;stroke:#000;stroke-width:2" d="M165,81 l0,263 14,21 160,0 13,-21 0,-3 0,-5 0,-255 -14,-22 -8,-4 -4,-1 -10,0 -124,0 -24,17 -2,5 -1,5" />
<path style="fill:#4c7f7f" d="M165,32 l0,13 187,0 0,-13 -10,-3 -12,-1 -143,0 -9,0 -10,2 -2,1 -1,1z" />
<path style="fill:#699" d="M182,32 l0,13 153,0 0,-13 -10,-4 -9,0 -115,0 -11,1 -8,3z" />
<path style="fill:#7fb2b2" d="M205,32 l0,13 106,0 0,-13 -1,-1 -9,-3 -3,0 -81,0 -9,2 -3,1 0,1z" />
<path style="fill:#9cc" d="M231,32 l0,13 53,0 0,-13 -1,-2 -6,-2 -38,0 -7,2 -1,2z" />
<path style="fill:none;stroke:#000;stroke-width:2" d="M165,32 l0,13 187,0 0,-13 -10,-3 -12,-1 -143,0 -9,0 -10,2 -2,1 -1,1" />
<path style="fill:#699;stroke:#000;stroke-width:2" d="M199,45 l19,0 0,13 -19,0 0,-13z" />
<path style="fill:#194c4c;stroke:#000;stroke-width:2" d="M165,186 l0,132 187,0 0,-132 -187,0z" />
<path style="fill:#9cc;stroke:#000;stroke-width:2" d="M327,186 l0,132 6,0 0,-132 -6,0z" />
<path style="fill:#9cc;stroke:#000;stroke-width:2" d="M309,186 l0,132 5,0 0,-132 -5,0z" />
<path style="fill:#9cc;stroke:#000;stroke-width:2" d="M290,186 l0,132 7,0 0,-132 -7,0z" />
<path style="fill:#9cc;stroke:#000;stroke-width:2" d="M273,186 l0,132 5,0 0,-132 -5,0z" />
<path style="fill:#9cc;stroke:#000;stroke-width:2" d="M256,186 l0,132 6,0 0,-132 -6,0z" />
<path style="fill:#9cc;stroke:#000;stroke-width:2" d="M237,186 l0,132 6,0 0,-132 -6,0z" />
<path style="fill:#9cc;stroke:#000;stroke-width:2" d="M220,186 l0,132 6,0 0,-132 -6,0z" />
<path style="fill:#9cc;stroke:#000;stroke-width:2" d="M201,186 l0,132 6,0 0,-132 -6,0z" />
<path style="fill:#9cc;stroke:#000;stroke-width:2" d="M184,186 l0,132 6,0 0,-132 -6,0z" />
<path style="fill:#9cc;stroke:#000;stroke-width:2" d="M165,186 l0,132 6,0 0,-132 -6,0z" />
<path style="fill:#9cc;stroke:#000;stroke-width:2" d="M344,186 l0,132 6,0 0,-132 -6,0z" />
<path style="fill:#699;stroke:#000;stroke-width:2" d="M341,318 l17,0 39,4 0,-89 -39,4 0,9 -17,0 0,72z" />
<path style="fill:none;stroke:#000;stroke-width:2" d="M358,250 l0,66" />
<path style="fill:none;stroke:#000;stroke-width:2" d="M388,237 l0,81" />
<path style="fill:none;stroke:#000;stroke-width:2" d="M165,344 l187,0" />
<path style="fill:#4c7f7f" d="M165,401 l187,0 0,13 -187,0 0,-13z" />
<path style="fill:#699" d="M182,401 l153,0 0,13 -153,0 0,-13z" />
<path style="fill:#7fb2b2" d="M205,401 l106,0 0,13 -106,0 0,-13z" />
<path style="fill:#9cc" d="M233,401 l51,0 0,13 -51,0 0,-13z" />
<path style="fill:none;stroke:#000;stroke-width:2" d="M165,401 l187,0 0,13 -187,0 0,-13" />
<path style="fill:#9cc;stroke:#000;stroke-width:2" d="M248,344 l21,0 0,57 -21,0 0,-57z" />
<path style="fill:#333;stroke:#000;stroke-width:2" d="M152,414 l213,0 0,25 -213,0 0,-25z" />
<path style="fill:#4c7f7f" d="M218,439 l81,0 0,382 -81,0 0,-382z" />
<path style="fill:#699" d="M226,439 l66,0 0,382 -66,0 0,-382z" />
<path style="fill:#7fb2b2" d="M237,439 l43,0 0,382 -43,0 0,-382z" />
<path style="fill:#9cc" d="M248,439 l21,0 0,382 -21,0 0,-382z" />
<path style="fill:none;stroke:#000;stroke-width:2" d="M218,439 l81,0 0,382 -81,0 0,-382" />
<path style="fill:#4c7f7f" d="M205,821 l106,0 0,14 -106,0 0,-14z" />
<path style="fill:#699" d="M216,821 l85,0 0,14 -85,0 0,-14z" />
<path style="fill:#7fb2b2" d="M229,821 l59,0 0,14 -59,0 0,-14z" />
<path style="fill:#9cc" d="M245,821 l28,0 0,14 -28,0 0,-14z" />
<path style="fill:none;stroke:#000;stroke-width:2" d="M205,821 l106,0 0,14 -106,0 0,-14" />
<path style="fill:#4c7f7f" d="M177,848 l164,0 0,52 -164,0 0,-52z" />
<path style="fill:#699" d="M190,848 l136,0 0,52 -136,0 0,-52z" />
<path style="fill:#7fb2b2" d="M211,848 l96,0 0,52 -96,0 0,-52z" />
<path style="fill:#9cc" d="M235,848 l47,0 0,52 -47,0 0,-52z" />
<path style="fill:none;stroke:#000;stroke-width:2" d="M177,848 l164,0 0,52 -164,0 0,-52" />
<path style="fill:#699;stroke:#000;stroke-width:2" d="M177,900 l164,0 0,70 -164,0 0,-70z" />
<path style="fill:#9cc;stroke:#000;stroke-width:2" d="M182,900 l14,0 0,-75 -14,0 0,75z" />
<path style="fill:#9cc;stroke:#000;stroke-width:2" d="M322,900 l13,0 0,-75 -13,0 0,75z" />
<path style="fill:#9cc;stroke:#000;stroke-width:2" d="M229,900 l14,0 0,-75 -14,0 0,75z" />
<path style="fill:#9cc;stroke:#000;stroke-width:2" d="M275,900 l13,0 0,-75 -13,0 0,75z" />
<path style="fill:#4c7f7f" d="M165,835 l187,0 0,13 -187,0 0,-13z" />
<path style="fill:#699" d="M182,835 l153,0 0,13 -153,0 0,-13z" />
<path style="fill:#7fb2b2" d="M205,835 l106,0 0,13 -106,0 0,-13z" />
<path style="fill:#9cc" d="M233,835 l51,0 0,13 -51,0 0,-13z" />
<path style="fill:none;stroke:#000;stroke-width:2" d="M165,835 l187,0 0,13 -187,0 0,-13" />
<circle style="fill:#333" cx="184" cy="922" r="5" />
<circle style="fill:#333" cx="184" cy="935" r="5" />
<circle style="fill:#333" cx="184" cy="909" r="5" />
<circle style="fill:#333" cx="184" cy="948" r="5" />
<circle style="fill:#333" cx="194" cy="929" r="4" />
<circle style="fill:#333" cx="194" cy="943" r="4" />
<circle style="fill:#333" cx="194" cy="916" r="4" />
<circle style="fill:#333" cx="194" cy="956" r="4" />
<circle style="fill:#333" cx="184" cy="961" r="5" />
<circle style="fill:#333" cx="204" cy="922" r="5" />
<circle style="fill:#333" cx="204" cy="935" r="5" />
<circle style="fill:#333" cx="204" cy="909" r="5" />
<circle style="fill:#333" cx="204" cy="948" r="5" />
<circle style="fill:#333" cx="213" cy="929" r="4" />
<circle style="fill:#333" cx="213" cy="943" r="4" />
<circle style="fill:#333" cx="213" cy="916" r="4" />
<circle style="fill:#333" cx="213" cy="956" r="4" />
<circle style="fill:#333" cx="204" cy="961" r="5" />
<circle style="fill:#333" cx="223" cy="922" r="5" />
<circle style="fill:#333" cx="223" cy="935" r="5" />
<circle style="fill:#333" cx="223" cy="909" r="5" />
<circle style="fill:#333" cx="223" cy="948" r="5" />
<circle style="fill:#333" cx="234" cy="929" r="5" />
<circle style="fill:#333" cx="234" cy="943" r="5" />
<circle style="fill:#333" cx="234" cy="916" r="5" />
<circle style="fill:#333" cx="234" cy="956" r="5" />
<circle style="fill:#333" cx="223" cy="961" r="5" />
<circle style="fill:#333" cx="243" cy="922" r="4" />
<circle style="fill:#333" cx="243" cy="935" r="4" />
<circle style="fill:#333" cx="243" cy="909" r="4" />
<circle style="fill:#333" cx="243" cy="948" r="4" />
<circle style="fill:#333" cx="253" cy="929" r="5" />
<circle style="fill:#333" cx="253" cy="943" r="5" />
<circle style="fill:#333" cx="253" cy="916" r="5" />
<circle style="fill:#333" cx="253" cy="956" r="5" />
<circle style="fill:#333" cx="243" cy="961" r="4" />
<circle style="fill:#333" cx="263" cy="922" r="5" />
<circle style="fill:#333" cx="263" cy="935" r="5" />
<circle style="fill:#333" cx="263" cy="909" r="5" />
<circle style="fill:#333" cx="263" cy="948" r="5" />
<circle style="fill:#333" cx="273" cy="929" r="4" />
<circle style="fill:#333" cx="273" cy="943" r="4" />
<circle style="fill:#333" cx="273" cy="916" r="4" />
<circle style="fill:#333" cx="273" cy="956" r="4" />
<circle style="fill:#333" cx="263" cy="961" r="5" />
<circle style="fill:#333" cx="283" cy="922" r="5" />
<circle style="fill:#333" cx="283" cy="935" r="5" />
<circle style="fill:#333" cx="283" cy="909" r="5" />
<circle style="fill:#333" cx="283" cy="948" r="5" />
<circle style="fill:#333" cx="293" cy="929" r="5" />
<circle style="fill:#333" cx="293" cy="943" r="5" />
<circle style="fill:#333" cx="293" cy="916" r="5" />
<circle style="fill:#333" cx="293" cy="956" r="5" />
<circle style="fill:#333" cx="283" cy="961" r="5" />
<circle style="fill:#333" cx="303" cy="922" r="6" />
<ellipse style="fill:#333" cx="303" cy="935" rx="6" ry="4" />
<circle style="fill:#333" cx="303" cy="909" r="6" />
<ellipse style="fill:#333" cx="303" cy="948" rx="6" ry="4" />
<circle style="fill:#333" cx="313" cy="929" r="4" />
<circle style="fill:#333" cx="313" cy="943" r="4" />
<circle style="fill:#333" cx="313" cy="916" r="4" />
<circle style="fill:#333" cx="313" cy="956" r="4" />
<ellipse style="fill:#333" cx="303" cy="961" rx="6" ry="4" />
<circle style="fill:#333" cx="322" cy="922" r="4" />
<circle style="fill:#333" cx="322" cy="935" r="4" />
<circle style="fill:#333" cx="322" cy="909" r="4" />
<circle style="fill:#333" cx="322" cy="948" r="4" />
<ellipse style="fill:#333" cx="333" cy="929" rx="6" ry="4" />
<circle style="fill:#333" cx="333" cy="943" r="6" />
<ellipse style="fill:#333" cx="333" cy="916" rx="6" ry="4" />
<circle style="fill:#333" cx="333" cy="956" r="6" />
<circle style="fill:#333" cx="322" cy="961" r="4" />
<path style="fill:#4c7f7f" d="M30,439 l30,0 0,377 -30,0 0,-377z" />
<path style="fill:#699" d="M33,439 l25,0 0,377 -25,0 0,-377z" />
<path style="fill:#7fb2b2" d="M37,439 l17,0 0,377 -17,0 0,-377z" />
<path style="fill:#9cc" d="M41,439 l9,0 0,377 -9,0 0,-377z" />
<path style="fill:none;stroke:#000;stroke-width:2" d="M30,439 l30,0 0,377 -30,0 0,-377" />
<path style="fill:#4c7f7f" d="M35,844 l34,-9 -7,-31 -34,10 7,30z" />
<path style="fill:#699" d="M37,842 l30,-7 -7,-29 -30,8 7,28z" />
<path style="fill:#7fb2b2" d="M43,842 l19,-6 -8,-28 -19,4 8,30z" />
<path style="fill:#9cc" d="M47,840 l11,-2 -8,-30 -11,4 8,28z" />
<path style="fill:none;stroke:#000;stroke-width:2" d="M35,844 l34,-9 -7,-31 -34,10 7,30" />
<path style="fill:#4c7f7f" d="M107,891 l9,-36 -28,-7 -9,36 28,7z" />
<path style="fill:#699" d="M107,887 l7,-28 -28,-8 -7,29 28,7z" />
<path style="fill:#7fb2b2" d="M109,884 l5,-21 -28,-8 -5,21 28,8z" />
<path style="fill:#9cc" d="M111,878 l2,-10 -29,-7 -3,9 30,8z" />
<path style="fill:none;stroke:#000;stroke-width:2" d="M107,891 l9,-36 -28,-7 -9,36 28,7" />

</svg>
