 

<svg xmlns:agg="http://www.example.com" xmlns="http://www.w3.org/2000/svg" preserveAspectRatio="none" width="0.8899in" height="1.0750in" viewBox="0 0 827 999">

<path style="fill:#060" d="M113,28 l22,257 21,0 0,43 279,-43 21,-257 -343,0z" />
<path style="fill:#007f00" d="M177,28 l14,257 13,0 0,43 175,-43 13,-257 -215,0z" />
<path style="fill:none;stroke:#000;stroke-width:2" d="M113,28 l22,257 21,0 0,43 279,-43 21,-257 -343,0" />
<path style="fill:none;stroke:#000;stroke-width:2" d="M156,285 l43,0" />
<path style="fill:#007f00;stroke:#000;stroke-width:2" d="M70,542 l0,428 129,0 0,-42 129,-86 171,0 129,86 0,42 128,0 0,-428 -686,0z" />
<path style="fill:#004c00;stroke:#000;stroke-width:2" d="M113,670 l0,258 86,0 129,-86 171,0 129,86 85,0 0,-258 -600,0z" />
<path style="fill:#060;stroke:#000;stroke-width:2" d="M52,603 l-24,-61 24,-62 61,-24 62,24 24,62 -24,61 -62,25 -61,-25z" />
<path style="fill:#060;stroke:#000;stroke-width:2" d="M179,260 l41,-52 66,-10 52,41 9,66 -41,51 -65,10 -52,-41 -10,-65z" />
<path style="fill:#060;stroke:#000;stroke-width:2" d="M541,198 l65,10 41,52 -9,65 -52,41 -66,-10 -41,-51 10,-66 52,-41z" />
<path style="fill:#060;stroke:#000;stroke-width:2" d="M775,480 l24,62 -24,61 -62,25 -61,-25 -24,-61 24,-62 61,-24 62,24z" />
<path style="fill:#060;stroke:#000;stroke-width:2" d="M647,824 l-41,52 -65,9 -52,-40 -10,-66 41,-52 66,-9 52,41 9,65z" />
<path style="fill:#060;stroke:#000;stroke-width:2" d="M286,885 l-66,-9 -41,-52 10,-65 52,-41 65,9 41,52 -9,66 -52,40z" />
<circle style="fill:#090;stroke:#000;stroke-width:2" cx="413" cy="542" r="343" />
<path style="fill:#007f00" d="M199,49 l429,0 0,64 -429,0 0,-64z" />
<circle style="fill:#007f00" cx="413" cy="541" r="246" />
<path style="fill:none;stroke:#fff;stroke-width:2" d="M103,542 l1,-32 5,-31 8,-29 10,-29 13,-27 16,-26 18,-24 20,-22 22,-20 24,-18 26,-15 27,-13 28,-11 30,-8 31,-4 31,-2" />
<path style="fill:#00ad00;stroke:#000;stroke-width:2" d="M414,885 l35,-2 34,-5 32,-9 32,-11 29,-15 29,-17 26,-20 25,-22 22,-24 19,-27 18,-28 14,-30 12,-31 8,-33 5,-34 2,-17 0,-18 0,-12 -3,-37 -8,-36 -10,-34 -15,-34 -18,-31 -20,-29 -24,-27 -27,-25 -29,-22 -32,-18 -11,-6 -60,-32 -11,-53 0,-33 -149,0 0,43 10,75 54,64 117,61 24,16 20,18 19,21 15,24 13,25 9,26 6,27 2,29 -5,43 -12,40 -20,37 -26,31 -32,26 -36,20 -41,13 -43,4 1,129z" />
<path style="fill:#00ad00" d="M416,758 l-38,8 -59,-1 -62,-14 -67,-36 -53,-47 25,59 36,50 37,39 52,33 75,26 54,7 0,-124z" />
<circle style="fill:#00bf00;stroke:#000;stroke-width:2" cx="413" cy="542" r="214" />
<circle style="fill:#4c4c4c;stroke:#000;stroke-width:2" cx="413" cy="542" r="107" />
<path style="fill:#4c4c4c" d="M226,526 l16,-6 15,6 6,16 -6,15 -15,6 -16,-6 -6,-15 6,-16z" />
<path style="fill:#4c4c4c" d="M271,663 l6,-15 15,-6 15,6 6,15 -6,15 -15,6 -15,-6 -6,-15z" />
<path style="fill:#4c4c4c" d="M398,728 l-6,-15 6,-15 15,-6 15,6 7,15 -7,15 -15,7 -15,-7z" />
<path style="fill:#4c4c4c" d="M535,684 l-15,-6 -7,-15 7,-15 15,-6 15,6 6,15 -6,15 -15,6z" />
<path style="fill:#4c4c4c" d="M570,526 l15,-6 15,6 6,16 -6,15 -15,6 -15,-6 -7,-15 7,-16z" />
<path style="fill:#4c4c4c" d="M513,420 l7,-15 15,-6 14,6 7,15 -7,15 -14,7 -15,-7 -7,-15z" />
<path style="fill:#4c4c4c" d="M398,385 l-6,-15 6,-15 15,-6 15,6 7,15 -7,15 -15,6 -15,-6z" />
<path style="fill:#4c4c4c" d="M292,442 l-15,-7 -6,-15 6,-15 15,-6 15,6 7,15 -7,15 -15,7z" />
<path style="fill:#009400" d="M256,49 l315,0 0,64 -315,0 0,-64z" />
<path style="fill:#00ab00" d="M313,49 l201,0 0,64 -201,0 0,-64z" />
<path style="fill:#00bf00" d="M370,49 l87,0 0,64 -87,0 0,-64z" />
<path style="fill:none;stroke:#000;stroke-width:2" d="M199,48 l427,0 0,65 -427,0 0,-65" />
<path style="fill:none;stroke:#007f00;stroke-width:2" d="M633,322 l20,23 18,24 16,26 13,28 10,29 8,29 4,30 2,16 0,15 0,16 -4,31 -6,30 -9,29 -12,28 -14,27 -17,24 -19,24 -21,21 -23,19 -25,17 -26,14 -28,12 -29,9 -30,6 -32,3 -16,0 -15,0 -30,-3 -30,-6 -29,-9 -28,-12 -27,-14 -26,-17 -23,-19 -11,-11" />

</svg>
