 

<svg xmlns:agg="http://www.example.com" xmlns="http://www.w3.org/2000/svg" preserveAspectRatio="none" width="1.6083in" height="0.8307in" viewBox="0 0 999 516">

<path style="fill:#f0f0f0" d="M891,160 l2,0 0,-44 -2,0 0,44z" />
<path style="fill:#00f;stroke:#000;stroke-width:2" d="M765,412 l-70,0 0,-2 -192,29 0,37 326,0 -64,-64z" />
<path style="fill:#00f;stroke:#000;stroke-width:2" d="M831,476 l-332,0 0,12 332,0 0,-12z" />
<path style="fill:#00f;stroke:#000;stroke-width:2" d="M682,120 l13,0 0,258 -13,0 0,-258z" />
<path style="fill:#00f;stroke:#000;stroke-width:2" d="M829,158 l-134,0 0,185 134,0 0,-185z" />
<path style="fill:#00f;stroke:#000;stroke-width:2" d="M829,135 l19,0 0,230 -19,0 0,-230z" />
<path style="fill:#00c;stroke:#000;stroke-width:2" d="M827,341 l-132,0 0,69 132,0 0,-69z" />
<path style="fill:#7f7f7f;stroke:#000;stroke-width:2" d="M527,292 l0,-85 21,0 0,85 -21,0z" />
<path style="fill:#7f7f7f;stroke:#000;stroke-width:2" d="M548,143 l124,0 0,213 -124,0 0,-213z" />
<path style="fill:#7f7f7f;stroke:#000;stroke-width:2" d="M827,94 l111,0 0,20 -111,0 0,-20z" />
<path style="fill:#7f7f7f;stroke:#000;stroke-width:2" d="M868,160 l29,0 0,-46 -29,0 0,46z" />
<path style="fill:#7f7f7f;stroke:#000;stroke-width:2" d="M865,135 l-17,0 0,230 17,0 0,-230z" />
<path style="fill:#7f7f7f;stroke:#000;stroke-width:2" d="M865,160 l37,0 0,181 -37,0 0,-181z" />
<path style="fill:#7f7f7f;stroke:#000;stroke-width:2" d="M917,135 l-15,0 0,230 15,0 0,-230z" />
<path style="fill:#7f7f7f;stroke:#000;stroke-width:2" d="M949,197 l-32,0 0,106 32,0 0,-106z" />
<path style="fill:#7f7f7f;stroke:#000;stroke-width:2" d="M949,171 l21,0 0,158 -21,0 0,-158z" />
<path style="fill:#7f7f7f;stroke:#000;stroke-width:2" d="M927,356 l4,0 0,-8 -4,0 0,2 -8,0 0,4 8,0 0,2z" />
<path style="fill:#7f7f7f;stroke:#000;stroke-width:2" d="M819,356 l-1,0 0,-8 1,0 0,2 10,0 0,4 -10,0 0,2z" />
<path style="fill:#7f7f7f;stroke:#000;stroke-width:2" d="M708,371 l6,0 0,-13 -6,0 0,2 -13,0 0,7 13,0 0,4z" />
<path style="fill:#7f7f7f;stroke:#000;stroke-width:2" d="M708,141 l6,0 0,-11 -6,0 0,1 -13,0 0,8 13,0 0,2z" />
<path style="fill:#7f7f7f;stroke:#000;stroke-width:2" d="M819,154 l-1,0 0,-7 1,0 0,1 10,0 0,4 -10,0 0,2z" />
<path style="fill:#7f7f7f;stroke:#000;stroke-width:2" d="M927,154 l4,0 0,-7 -4,0 0,1 -8,0 0,4 8,0 0,2z" />
<path style="fill:#7f7f7f;stroke:#000;stroke-width:2" d="M508,399 l14,-6 5,-11 0,-266 -5,-11 -14,-6 -346,0 -10,149 10,151 346,0z" />
<path style="fill:#4c4c4c;stroke:#000;stroke-width:2" d="M929,354 l-10,0 0,4 10,0 0,-4z" />
<path style="fill:#4c4c4c;stroke:#000;stroke-width:2" d="M819,354 l10,0 0,4 -10,0 0,-4z" />
<path style="fill:#4c4c4c;stroke:#000;stroke-width:2" d="M710,367 l-15,0 0,8 15,0 0,-8z" />
<path style="fill:#4c4c4c;stroke:#000;stroke-width:2" d="M710,139 l-15,0 0,8 15,0 0,-8z" />
<path style="fill:#4c4c4c;stroke:#000;stroke-width:2" d="M819,152 l10,0 0,4 -10,0 0,-4z" />
<path style="fill:#4c4c4c;stroke:#000;stroke-width:2" d="M929,152 l-10,0 0,4 10,0 0,-4z" />
<path style="fill:#7f7f7f;stroke:#000;stroke-width:2" d="M865,346 l37,0 0,4 -37,0 0,-4z" />
<path style="fill:#7f7f7f;stroke:#000;stroke-width:2" d="M865,148 l37,0 0,6 -37,0 0,-6z" />
<path style="fill:#e5e5e5;stroke:#000;stroke-width:2" d="M929,344 l-10,0 0,6 10,0 0,-6z" />
<path style="fill:#e5e5e5;stroke:#000;stroke-width:2" d="M819,344 l10,0 0,6 -10,0 0,-6z" />
<path style="fill:#e5e5e5;stroke:#000;stroke-width:2" d="M710,354 l-15,0 0,6 15,0 0,-6z" />
<path style="fill:#e5e5e5;stroke:#000;stroke-width:2" d="M710,126 l-15,0 0,5 15,0 0,-5z" />
<path style="fill:#e5e5e5;stroke:#000;stroke-width:2" d="M819,143 l10,0 0,5 -10,0 0,-5z" />
<path style="fill:#e5e5e5;stroke:#000;stroke-width:2" d="M929,143 l-10,0 0,5 10,0 0,-5z" />
<path style="fill:#e0e0e0" d="M682,120 l-10,0 0,258 10,0 0,-258z" />
<path style="fill:#e0e0e0" d="M948,278 l-29,0 0,-69 29,0 0,69z" />
<path style="fill:#e0e0e0" d="M949,292 l19,0 0,-104 -19,0 0,104z" />
<path style="fill:#f0f0f0" d="M548,175 l124,0 0,9 -124,0 0,-9z" />
<path style="fill:#f0f0f0" d="M682,158 l13,0 0,30 -13,0 0,-30z" />
<path style="fill:#f0f0f0" d="M829,188 l-134,0 0,13 134,0 0,-13z" />
<path style="fill:#f0f0f0" d="M829,171 l19,0 0,6 -19,0 0,-6z" />
<path style="fill:#f0f0f0" d="M865,169 l-17,0 0,15 17,0 0,-15z" />
<path style="fill:#f0f0f0" d="M865,171 l37,0 0,6 -37,0 0,-6z" />
<path style="fill:#f0f0f0" d="M914,94 l9,0 0,20 -9,0 0,-20z" />
<path style="fill:#f0f0f0" d="M917,150 l-15,0 0,10 15,0 0,-10z" />
<path style="fill:#f0f0f0" d="M949,180 l19,0 0,8 -19,0 0,-8z" />
<path style="fill:#f0f0f0" d="M948,203 l-29,0 0,6 29,0 0,-6z" />
<path style="fill:#b2b2b2;fill-rule:evenodd" d="M316,81 l0,33 10,0 0,-16 0,-17 15,-10 5,-17 -7,-19 -17,-7 -19,7 -8,19 6,17 15,10z M322,39 l-11,4 -8,13 8,9 11,6 11,-6 4,-11 -4,-11 -11,-4z " />
<path style="fill:none;stroke:#000;stroke-width:2" d="M316,81 l0,33 10,0 0,-16 0,-17 15,-10 5,-17 -7,-19 -17,-7 -19,7 -8,19 6,17 15,10" />
<path style="fill:none;stroke:#000;stroke-width:2" d="M322,39 l-11,4 -8,13 8,9 11,6 11,-6 4,-11 -4,-11 -11,-4" />
<path style="fill:#e5e5e5;stroke:#000;stroke-width:2" d="M162,90 l-2,28 348,0 8,-5 -13,-19 -8,-4 -333,0z" />
<path style="fill:#e5e5e5;stroke:#000;stroke-width:2" d="M160,120 l-2,27 356,0 2,-6 -8,-15 -15,-6 -333,0z" />
<path style="fill:#d1d1d1;stroke:#000;stroke-width:2" d="M158,152 l-2,21 358,0 2,-6 -21,-15 -337,0z" />
<path style="fill:#d1d1d1;stroke:#000;stroke-width:2" d="M156,182 l-2,21 360,0 2,-6 -23,-15 -337,0z" />
<path style="fill:#d1d1d1;stroke:#000;stroke-width:2" d="M154,212 l0,16 358,0 4,-4 -23,-12 -339,0z" />
<path style="fill:#b2b2b2;stroke:#000;stroke-width:2" d="M152,254 l0,-6 0,-5 343,0 23,11 -6,0 -360,0z" />
<path style="fill:#b2b2b2;stroke:#000;stroke-width:2" d="M154,269 l0,17 360,0 2,-2 -23,-15 -339,0z" />
<path style="fill:#b2b2b2;stroke:#000;stroke-width:2" d="M156,295 l0,21 356,0 2,-2 -21,-19 -337,0z" />
<path style="fill:#b2b2b2;stroke:#000;stroke-width:2" d="M158,326 l0,22 354,0 4,-4 -23,-18 -335,0z" />
<path style="fill:#b2b2b2;stroke:#000;stroke-width:2" d="M158,352 l2,26 352,0 4,-5 -23,-21 -335,0z" />
<path style="fill:#7f7f7f" d="M162,82 l-44,0 -32,6 -30,15 -4,6 108,0 2,-27z" />
<path style="fill:#7f7f7f" d="M37,367 l21,23 28,17 32,5 44,0 -2,-45 -123,0z" />
<path style="fill:#b2b2b2" d="M52,109 l-17,19 -2,9 127,0 0,-28 -108,0z" />
<path style="fill:#b2b2b2" d="M28,314 l0,23 7,28 2,2 123,0 -4,-53 -128,0z" />
<path style="fill:#e5e5e5" d="M33,137 l-5,21 0,11 130,0 2,-32 -127,0z" />
<path style="fill:#e5e5e5" d="M28,245 l0,-36 126,0 -2,36 -124,0z" />
<path style="fill:#f0f0f0" d="M28,209 l0,-40 130,0 -4,40 -126,0z" />
<path style="fill:#e0e0e0" d="M28,245 l0,3 0,34 126,0 -2,-34 0,-3 -124,0z" />
<path style="fill:#ccc" d="M28,314 l0,-32 126,0 2,32 -128,0z" />
<path style="fill:none;stroke:#000;stroke-width:2" d="M162,82 l-44,0 -32,6 -28,17 -21,25 -9,28 0,90 0,89 9,28 21,25 28,17 32,5 44,0 -10,-164 10,-166" />

</svg>
