 

<svg xmlns:agg="http://www.example.com" xmlns="http://www.w3.org/2000/svg" preserveAspectRatio="none" width="1.4691in" height="1.0750in" viewBox="0 0 999 731">

<path style="fill:#0000bf;stroke:#000;stroke-width:2" d="M96,472 l0,-179 2,6 18,-30 4,2 0,232 -4,2 -18,-39 -2,6z" />
<path style="fill:#f0f0f0;stroke:#000;stroke-width:2" d="M108,342 l0,-8 8,0 0,8 -8,0z" />
<path style="fill:#f0f0f0;stroke:#000;stroke-width:2" d="M108,438 l0,-10 8,0 0,10 -8,0z" />
<path style="fill:#f0f0f0;stroke:#000;stroke-width:2" d="M108,389 l0,-10 8,0 0,10 -8,0z" />
<path style="fill:#f0f0f0;stroke:#000;stroke-width:2" d="M108,287 l0,-10 8,0 0,10 -8,0z" />
<path style="fill:#f0f0f0;stroke:#000;stroke-width:2" d="M108,487 l0,-10 8,0 0,10 -8,0z" />
<path style="fill:#f0f0f0;stroke:#000;stroke-width:2" d="M98,536 l0,-10 8,0 0,10 -8,0z" />
<path style="fill:#f0f0f0;stroke:#000;stroke-width:2" d="M892,448 l0,-10 8,0 0,10 -8,0z" />
<path style="fill:#f0f0f0;stroke:#000;stroke-width:2" d="M98,587 l0,-10 8,0 0,10 -8,0z" />
<path style="fill:#f0f0f0;stroke:#000;stroke-width:2" d="M892,499 l0,-10 8,0 0,10 -8,0z" />
<path style="fill:#b2b2b2" d="M805,356 l165,0 0,51 -165,0 0,-51z" />
<path style="fill:#e0e0e0" d="M805,357 l165,0 0,22 -165,0 0,-22z" />
<path style="fill:#fff" d="M805,360 l165,0 0,3 -165,0 0,-3z" />
<path style="fill:none;stroke:#000;stroke-width:2" d="M805,356 l165,0 0,51 -165,0 0,-51" />
<path style="fill:#0000ad" d="M403,214 l157,0 0,324 -157,0 0,-324z" />
<path style="fill:#0000ad" d="M882,250 l-322,0 0,255 322,0 0,-255z" />
<path style="fill:#0000bf" d="M403,222 l157,0 0,275 -157,0 0,-275z" />
<path style="fill:#0000bf" d="M882,256 l-322,0 0,216 322,0 0,-216z" />
<path style="fill:#7f7fff" d="M403,228 l157,0 0,12 -157,0 0,-12z" />
<path style="fill:none;stroke:#000;stroke-width:2" d="M403,214 l157,0 0,324 -157,0 0,-324" />
<path style="fill:#7f7fff" d="M882,259 l-322,0 0,8 322,0 0,-8z" />
<path style="fill:none;stroke:#000;stroke-width:2" d="M882,250 l-322,0 0,255 322,0 0,-255" />
<path style="fill:#0000ad" d="M320,609 l0,-448 -21,-15 -158,0 -23,15 0,448 23,16 158,0 21,-16z" />
<path style="fill:#0000ad" d="M299,146 l-106,0 0,-79 106,0 0,79z" />
<path style="fill:#0000ad" d="M144,67 l0,-39 204,0 0,39 -204,0z" />
<path style="fill:#0000bf" d="M149,63 l0,-32 144,0 0,32 -144,0z" />
<path style="fill:#0000bf" d="M269,146 l-72,0 0,-79 72,0 0,79z" />
<path style="fill:#0000bf" d="M318,584 l0,-390 -21,-21 -153,0 -22,21 0,390 22,17 153,0 21,-17z" />
<path style="fill:#0000bf;stroke:#000;stroke-width:2" d="M318,538 l0,-324 4,10 34,-51 6,2 0,424 -6,2 -34,-70 -4,7z" />
<path style="fill:#0000bf;stroke:#000;stroke-width:2" d="M405,538 l0,-324 -6,10 -34,-51 -3,2 0,424 3,2 34,-70 6,7z" />
<path style="fill:#7f7fff" d="M318,210 l0,16 -21,-10 -153,0 -22,10 0,-16 22,-16 153,0 21,16z" />
<path style="fill:#7f7fff" d="M206,146 l-7,0 0,-79 7,0 0,79z" />
<path style="fill:#7f7fff" d="M157,63 l0,-32 12,0 0,32 -12,0z" />
<path style="fill:#f0f0f0;stroke:#000;stroke-width:2" d="M342,307 l0,-18 16,0 0,18 -16,0z" />
<path style="fill:#f0f0f0;stroke:#000;stroke-width:2" d="M379,307 l0,-18 -14,0 0,18 14,0z" />
<path style="fill:#f0f0f0;stroke:#000;stroke-width:2" d="M342,477 l0,-15 16,0 0,15 -16,0z" />
<path style="fill:#f0f0f0;stroke:#000;stroke-width:2" d="M379,477 l0,-15 -14,0 0,15 14,0z" />
<path style="fill:#f0f0f0;stroke:#000;stroke-width:2" d="M342,389 l0,-16 16,0 0,16 -16,0z" />
<path style="fill:#f0f0f0;stroke:#000;stroke-width:2" d="M379,389 l0,-16 -14,0 0,16 14,0z" />
<path style="fill:#f0f0f0;stroke:#000;stroke-width:2" d="M342,205 l0,-16 16,0 0,16 -16,0z" />
<path style="fill:#f0f0f0;stroke:#000;stroke-width:2" d="M379,205 l0,-16 -14,0 0,16 14,0z" />
<path style="fill:none;stroke:#000;stroke-width:2" d="M320,609 l0,-448 -21,-15 -158,0 -23,15 0,448 23,16 158,0 21,-16" />
<path style="fill:none;stroke:#000;stroke-width:2" d="M299,146 l-106,0 0,-79 106,0 0,79" />
<path style="fill:none;stroke:#000;stroke-width:2" d="M144,67 l0,-39 204,0 0,39 -204,0" />
<path style="fill:#f0f0f0;stroke:#000;stroke-width:2" d="M342,568 l0,-16 16,0 0,16 -16,0z" />
<path style="fill:#f0f0f0;stroke:#000;stroke-width:2" d="M379,568 l0,-16 -14,0 0,16 14,0z" />
<path style="fill:#333;stroke:#000;stroke-width:2" d="M428,401 l104,0 12,10 0,86 -12,12 -104,0 -14,-12 0,-86 14,-10z" />
<path style="fill:#0000bf;stroke:#000;stroke-width:2" d="M106,521 l14,0 0,182 -14,0 -78,0 0,-14 78,0 0,-168z" />
<path style="fill:#0000bf;stroke:#000;stroke-width:2" d="M880,428 l14,0 0,275 -14,0 -79,0 0,-14 79,0 0,-261z" />

</svg>
