 

<svg xmlns:agg="http://www.example.com" xmlns="http://www.w3.org/2000/svg" preserveAspectRatio="none" width="1.5519in" height="1.0750in" viewBox="0 0 999 692">

<path style="fill:#000" d="M793,28 l0,141 -94,0 0,-141 94,0z" />
<path style="fill:#191919" d="M788,28 l0,141 -83,0 0,-141 83,0z" />
<path style="fill:#333" d="M778,28 l0,141 -64,0 0,-141 64,0z" />
<path style="fill:#4c4c4c" d="M767,28 l0,141 -43,0 0,-141 43,0z" />
<path style="fill:#666" d="M760,28 l0,141 -29,0 0,-141 29,0z" />
<path style="fill:#7f7f7f" d="M752,28 l0,141 -11,0 0,-141 11,0z" />
<path style="fill:none;stroke:#000;stroke-width:2" d="M793,28 l0,141 -94,0 0,-141 94,0" />
<path style="fill:#000" d="M688,99 l23,23 0,47 118,0 23,71 118,0 0,70 -118,0 -23,71 -118,0 0,48 -23,22 0,-352z" />
<path style="fill:#141414" d="M688,122 l23,21 0,41 118,0 25,60 116,0 0,58 -116,0 -25,62 -118,0 0,40 -23,21 0,-303z" />
<path style="fill:#2b2b2b" d="M688,146 l23,17 0,34 118,0 25,51 116,0 0,49 -116,0 -25,49 -118,0 0,35 -23,16 0,-251z" />
<path style="fill:#404040" d="M688,169 l23,13 0,28 118,0 25,40 116,0 0,39 -116,0 -25,40 -118,0 0,28 -23,13 0,-201z" />
<path style="fill:#545454" d="M688,193 l23,10 0,22 118,0 25,29 116,0 0,28 -116,0 -25,30 -118,0 0,20 -23,10 0,-149z" />
<path style="fill:#6b6b6b" d="M688,216 l23,7 0,15 118,0 25,19 116,0 0,17 -116,0 -25,19 -118,0 0,15 -23,8 0,-100z" />
<path style="fill:#7f7f7f" d="M688,240 l23,2 0,10 118,0 23,9 118,0 0,6 -118,0 -23,7 -118,0 0,10 -23,3 0,-47z" />
<path style="fill:none;stroke:#000;stroke-width:2" d="M688,99 l23,23 0,47 118,0 23,71 118,0 0,70 -118,0 -23,71 -118,0 0,48 -23,22 0,-352" />
<path style="fill:#ccc" d="M28,99 l660,0 0,565 -660,0 0,-565z" />
<path style="fill:#d4d4d4" d="M28,114 l660,0 0,239 -660,0 0,-239z" />
<path style="fill:#dedede" d="M28,129 l660,0 0,196 -660,0 0,-196z" />
<path style="fill:#e5e5e5" d="M28,144 l660,0 0,155 -660,0 0,-155z" />
<path style="fill:#ededed" d="M28,161 l660,0 0,109 -660,0 0,-109z" />
<path style="fill:#f7f7f7" d="M28,176 l660,0 0,66 -660,0 0,-66z" />
<path style="fill:#fff" d="M28,192 l660,0 0,24 -660,0 0,-24z" />
<path style="fill:#7f7f7f" d="M127,637 l-5,-11 5,-9 14,0 5,9 -5,11 -14,0z" />
<path style="fill:#7f7f7f" d="M575,637 l-6,-11 6,-9 11,0 6,9 -6,11 -11,0z" />
<path style="fill:#9cc;stroke:#ccc;stroke-width:2" d="M492,99 l119,0 0,141 -119,0 0,-141z" />
<path style="fill:#fff" d="M504,99 l96,0 0,141 -96,0 0,-141z" />
<path style="fill:#fff;stroke:#ccc;stroke-width:2" d="M622,99 l47,0 0,64 -47,0 0,-64z" />
<path style="fill:none;stroke:#000;stroke-width:2" d="M28,99 l660,0 0,565 -660,0 0,-565" />

</svg>
