 

<svg xmlns:agg="http://www.example.com" xmlns="http://www.w3.org/2000/svg" preserveAspectRatio="none" width="0.5004in" height="1.0750in" viewBox="0 0 465 999">

<path style="fill:#7f7f7f;stroke:#000;stroke-width:2" d="M28,356 l60,0 0,113 -60,0 0,-113z" />
<path style="fill:#7f7f7f" d="M314,109 l0,-30 -1,-11 -4,-10 -6,-9 -8,-7 -9,-6 -11,-4 -11,-3 -12,-1 -11,1 -11,3 -10,4 -9,6 -8,7 -6,9 -4,10 -1,11 0,30 122,0z" />
<path style="fill:#999" d="M309,109 l0,-30 -2,-11 -3,-10 -6,-9 -7,-7 -8,-6 -10,-4 -10,-3 -11,-1 -10,1 -10,3 -10,4 -8,6 -7,7 -5,9 -3,10 -2,11 0,30 112,0z" />
<path style="fill:#b2b2b2" d="M299,109 l0,-30 -1,-11 -3,-10 -5,-9 -6,-7 -7,-6 -8,-4 -8,-3 -9,-1 -12,2 -8,3 -8,6 -6,6 -5,9 -4,9 -2,10 0,6 0,30 92,0z" />
<path style="fill:#ccc" d="M282,109 l0,-30 0,-11 -2,-10 -3,-9 -4,-7 -7,-9 -8,-4 -6,-1 -8,2 -8,6 -7,9 -3,9 -3,9 -1,10 0,6 0,30 60,0z" />
<path style="fill:#e5e5e5" d="M263,109 l0,-30 0,-11 -1,-10 -1,-13 -3,-9 -4,-7 -2,-1 -1,1 -4,10 -2,10 -2,14 0,10 0,36 20,0z" />
<path style="fill:none;stroke:#000;stroke-width:2" d="M314,109 l0,-30 -1,-11 -4,-10 -6,-9 -8,-7 -9,-6 -11,-4 -11,-3 -12,-1 -11,1 -11,3 -10,4 -9,6 -8,7 -6,9 -4,10 -1,11 0,30 122,0" />
<path style="fill:#7f7f7f" d="M395,887 l21,0 0,-60 -21,0 0,-62 21,0 0,-368 21,-2 0,-81 -42,0 0,-20 21,0 0,-42 -41,0 0,-60 -6,-33 -17,-27 -24,-22 -31,-14 -33,-7 -12,-1 -11,1 -34,7 -30,14 -25,22 -16,27 -6,33 0,60 -42,0 0,42 21,0 0,20 -42,0 0,81 21,2 0,368 21,0 0,62 -21,0 0,60 21,0 10,32 19,21 29,16 24,8 29,5 15,1 17,0 17,0 30,-4 26,-6 33,-14 22,-19 13,-23 2,-17z" />
<path style="fill:#999" d="M380,887 l19,0 0,-60 -19,0 0,-62 19,0 -2,-368 19,-2 0,-81 -36,0 0,-20 19,0 0,-42 -38,0 0,-60 -5,-33 -15,-27 -22,-22 -27,-14 -30,-7 -10,-1 -10,1 -30,7 -27,14 -22,22 -15,27 -5,33 0,60 -36,0 0,42 17,0 0,20 -36,0 0,81 19,2 0,368 17,0 0,62 -17,0 0,60 17,0 8,32 18,21 26,16 34,10 27,4 15,0 15,0 27,-4 34,-10 26,-16 18,-21 8,-32z" />
<path style="fill:#b2b2b2" d="M363,887 l17,0 0,-60 -17,0 0,-62 17,0 0,-368 15,-2 0,-81 -32,0 0,-20 17,0 0,-42 -32,0 0,-60 -5,-33 -13,-27 -19,-22 -24,-14 -26,-7 -9,-1 -9,1 -25,7 -24,14 -19,22 -12,27 -5,33 0,60 -32,0 0,42 15,0 0,20 -32,0 0,81 17,2 0,368 15,0 0,62 -15,0 0,60 15,0 7,32 22,27 26,14 31,9 12,1 13,0 13,0 34,-6 27,-13 21,-18 14,-29 2,-17z" />
<path style="fill:#ccc" d="M331,887 l12,0 0,-60 -12,0 0,-62 12,0 0,-368 11,-2 0,-81 -23,0 0,-20 12,0 0,-42 -23,0 0,-60 -4,-33 -9,-27 -13,-22 -23,-18 -13,-3 -6,-1 -6,1 -25,11 -20,24 -11,25 -5,31 -1,12 0,60 -22,0 0,42 11,0 0,20 -23,0 0,81 12,2 0,368 11,0 0,62 -11,0 0,60 11,0 5,32 16,27 25,18 24,6 9,0 10,0 31,-10 23,-20 12,-28 3,-25z" />
<path style="fill:#e5e5e5" d="M284,887 l4,0 0,-60 -4,0 0,-62 4,0 0,-368 6,-2 0,-81 -10,0 0,-20 4,0 0,-42 -10,0 0,-72 -2,-31 -6,-32 -11,-25 -4,-3 -3,-1 -2,1 -14,21 -7,30 -3,29 0,23 0,60 -10,0 0,42 4,0 0,20 -9,0 0,81 5,2 0,368 4,0 0,62 -4,0 0,60 4,0 2,32 6,27 17,23 3,1 4,0 4,0 20,-24 6,-27 2,-32z" />
<path style="fill:none;stroke:#000;stroke-width:2" d="M395,887 l21,0 0,-60 -21,0 0,-62 21,0 0,-368 21,-2 0,-81 -42,0 0,-20 21,0 0,-42 -41,0 0,-60 -6,-33 -17,-27 -24,-22 -31,-14 -33,-7 -12,-1 -11,1 -34,7 -30,14 -25,22 -16,27 -6,33 0,60 -42,0 0,42 21,0 0,20 -42,0 0,81 21,2 0,368 21,0 0,62 -21,0 0,60 21,0 10,32 19,21 29,16 24,8 29,5 15,1 17,0 17,0 30,-4 26,-6 33,-14 22,-19 13,-23 2,-17" />
<path style="fill:none;stroke:#000;stroke-width:2" d="M88,827 l328,0 0,30 -328,0 0,-30" />
<path style="fill:none;stroke:#000;stroke-width:2" d="M88,857 l328,0 0,30 -328,0 0,-30" />
<path style="fill:none;stroke:#000;stroke-width:2" d="M67,314 l370,0 0,81 -370,0 0,-81" />
<path style="fill:none;stroke:#000;stroke-width:2" d="M88,252 l328,0 0,42 -328,0 0,-42" />
<path style="fill:none;stroke:#000;stroke-width:2" d="M88,395 l328,0 0,370 -328,0 0,-370" />
<path style="fill:#666;stroke:#000;stroke-width:2" d="M47,469 l41,0 0,30 -41,0 0,-30z" />
<path style="fill:#999;stroke:#000;stroke-width:2" d="M67,499 l21,0 0,72 -21,0 0,-72z" />

</svg>
