 

<svg xmlns:agg="http://www.example.com" xmlns="http://www.w3.org/2000/svg" preserveAspectRatio="none" width="0.8630in" height="1.0750in" viewBox="0 0 802 999">

<path style="fill:#4c4c4c" d="M120,759 l560,0 0,152 -560,0 0,-152z" />
<path style="fill:#d9d9d9;stroke:#000;stroke-width:2" d="M479,146 l0,-59 -157,0 0,59 -17,13 -30,10 -28,11 -28,14 -25,16 -25,18 -22,19 -22,22 -19,23 -17,24 -16,27 -13,27 -11,28 -9,29 -7,30 -4,31 -1,15 0,16 0,19 4,37 7,37 11,35 15,33 17,32 20,30 23,27 25,26 28,23 29,20 32,17 33,14 36,11 36,7 38,4 19,1 19,-1 37,-4 37,-7 35,-11 33,-14 32,-17 30,-20 27,-23 25,-26 23,-27 21,-30 17,-32 14,-33 11,-35 7,-37 4,-37 1,-19 -1,-16 -3,-31 -5,-30 -7,-30 -11,-28 -12,-28 -14,-27 -17,-25 -18,-24 -20,-22 -22,-21 -24,-19 -25,-17 -27,-14 -27,-13 -29,-10 -15,-4 -18,-14z" />
<path style="fill:#bfbfbf" d="M185,774 l-59,157 0,39 98,0 20,-39 98,-98 117,0 99,98 19,39 99,0 0,-39 -60,-157 -431,0z" />
<path style="fill:#a6a6a6" d="M558,931 l118,0 0,39 -99,0 -19,-39z" />
<path style="fill:#a6a6a6" d="M126,931 l118,0 -20,39 -98,0 0,-39z" />
<path style="fill:none;stroke:#000;stroke-width:2" d="M185,774 l-59,157 0,39 98,0 20,-39 98,-98 117,0 99,98 19,39 99,0 0,-39 -60,-157 -431,0" />
<circle style="fill:#f2f2f2" cx="400" cy="518" r="333" />
<circle style="fill:#d9d9d9" cx="400" cy="518" r="235" />
<circle style="fill:#fff;stroke:#000;stroke-width:2" cx="400" cy="518" r="196" />
<circle style="fill:#4c4c4c" cx="400" cy="518" r="117" />
<circle style="fill:#000" cx="400" cy="519" r="78" />
<path style="fill:#ccc" d="M327,87 l147,0 0,44 -147,0 0,-44z" />
<path style="fill:#bfbfbf" d="M327,87 l147,0 0,19 -147,0 0,-19z" />
<path style="fill:#ccc" d="M263,87 l275,0 0,-59 -275,0 0,59z" />
<path style="fill:#e5e5e5" d="M299,87 l205,0 0,-59 -205,0 0,59z" />
<path style="fill:#f2f2f2" d="M333,87 l137,0 0,-59 -137,0 0,59z" />
<path style="fill:#fff" d="M367,87 l68,0 0,-59 -68,0 0,59z" />
<path style="fill:none;stroke:#000;stroke-width:2" d="M263,87 l275,0 0,-59 -275,0 0,59" />
<path style="fill:#666" d="M289,649 l-14,-5 -5,-14 5,-14 14,-6 14,6 6,13 -6,15 -14,5z" />
<path style="fill:#666" d="M512,427 l-14,-6 -6,-13 5,-14 15,-6 13,6 6,14 -6,13 -13,6z" />
<path style="fill:#666" d="M531,629 l-5,15 -14,5 -14,-5 -6,-15 6,-13 14,-6 14,6 5,13z" />
<path style="fill:#666" d="M309,407 l-5,14 -15,6 -13,-6 -6,-14 6,-14 13,-6 15,6 5,14z" />
<path style="fill:none;stroke:#7f7f7f;stroke-width:2" d="M690,686 l-18,27 -20,26 -23,23 -25,21 -27,19 -28,15 -30,13 -31,10 -32,8 -33,4 -11,0 -11,0 -11,0 -33,-3 -33,-6 -31,-9 -31,-12 -28,-15 -28,-18 -26,-20 -23,-22 -21,-25 -19,-27 -6,-9" />

</svg>
