 

<svg xmlns:agg="http://www.example.com" xmlns="http://www.w3.org/2000/svg" preserveAspectRatio="none" width="0.9566in" height="1.0750in" viewBox="0 0 889 999">

<circle style="fill:#e5b200;stroke:#000;stroke-width:2" cx="444" cy="553" r="416" />
<path style="fill:#d9a600;stroke:#000;stroke-width:2" d="M312,187 l44,-72 6,55 -50,17z" />
<circle style="fill:#f2bf00" cx="444" cy="554" r="395" />
<circle style="fill:#e5b200" cx="444" cy="554" r="285" />
<path style="fill:#fc0;stroke:#000;stroke-width:2" d="M532,137 l0,-44 -176,0 0,44 4,35 12,32 18,31 24,27 30,22 11,6 57,10 31,10 29,14 27,18 24,20 22,23 19,26 16,28 13,30 8,31 5,32 1,35 -3,27 -5,26 -8,24 -10,24 -12,22 -14,21 -25,29 -29,25 -21,14 -22,12 -24,10 -24,8 -26,5 -27,3 -13,0 0,132 20,-1 40,-4 39,-8 37,-11 35,-15 34,-19 31,-21 29,-24 27,-27 24,-29 22,-32 18,-33 15,-36 12,-36 7,-39 4,-40 1,-20 -1,-13 -3,-39 -4,-26 -6,-25 -8,-25 -9,-24 -11,-23 -12,-23 -14,-22 -14,-21 -17,-19 -26,-29 -20,-17 -20,-16 -22,-14 -11,-7 -76,-36 -24,-17 -9,-21z" />
<circle style="fill:#fc0;stroke:#000;stroke-width:2" cx="444" cy="554" r="197" />
<path style="fill:#fc0" d="M291,93 l307,0 0,-65 -307,0 0,65z" />
<path style="fill:#ffde54" d="M330,93 l230,0 0,-65 -230,0 0,65z" />
<path style="fill:#ffedab" d="M368,93 l153,0 0,-65 -153,0 0,65z" />
<path style="fill:#fff" d="M407,93 l75,0 0,-65 -75,0 0,65z" />
<path style="fill:none;stroke:#000;stroke-width:2" d="M291,93 l307,0 0,-65 -307,0 0,65" />
<circle style="fill:#4c4c4c" cx="444" cy="553" r="109" />
<circle style="fill:#000" cx="444" cy="554" r="66" />
<path style="fill:#fc0" d="M450,947 l-88,-20 -72,-33 -71,-60 -60,-116 66,61 65,32 83,17 76,-10 1,129z" />
<path style="fill:#b27f00" d="M323,675 l-5,-13 5,-13 13,-5 13,5 5,13 -5,13 -13,5 -13,-5z" />
<path style="fill:#b27f00" d="M323,459 l-5,-13 5,-13 13,-5 13,5 5,13 -5,13 -13,5 -13,-5z" />
<path style="fill:#b27f00" d="M539,459 l-5,-13 5,-13 13,-5 13,5 5,13 -5,13 -13,5 -13,-5z" />
<path style="fill:#b27f00" d="M539,675 l-5,-13 5,-13 13,-5 13,5 5,13 -5,13 -13,5 -13,-5z" />
<path style="fill:#d9a600" d="M397,886 l-18,-47 18,-47 47,-18 47,18 19,47 -19,47 -47,19 -47,-19z" />
<path style="fill:#fc0;stroke:#000;stroke-width:2" d="M397,859 l-18,-47 18,-47 47,-19 47,19 19,47 -19,47 -47,18 -47,-18z" />
<path style="fill:#fc0;stroke:#000;stroke-width:2" d="M137,970 l0,-65 241,0 0,27 132,0 0,-27 241,0 0,65 -614,0z" />
<path style="fill:#d9a600;stroke:#000;stroke-width:2" d="M642,905 l44,0 0,65 -44,0 0,-65z" />
<path style="fill:#d9a600;stroke:#000;stroke-width:2" d="M203,905 l44,0 0,65 -44,0 0,-65z" />
<path style="fill:#d9a600;stroke:#000;stroke-width:2" d="M378,932 l132,0 0,38 -132,0 0,-38z" />

</svg>
