 

<svg xmlns:agg="http://www.example.com" xmlns="http://www.w3.org/2000/svg" preserveAspectRatio="none" width="0.5553in" height="1.0750in" viewBox="0 0 516 999">

<path style="fill:#b2b2b2;stroke:#000;stroke-width:2" d="M432,496 l39,0 0,14 -39,0 0,-14z" />
<path style="fill:#b2b2b2;stroke:#000;stroke-width:2" d="M419,403 l19,0 20,93 -39,0 0,-93z" />
<path style="fill:#b2b2b2;stroke:#000;stroke-width:2" d="M487,457 l-49,-54 20,93 23,0 6,-39z" />
<path style="fill:#b2b2b2;stroke:#000;stroke-width:2" d="M268,948 l0,14 -102,0 0,-14 -16,0 -19,-384 172,0 -14,384 -21,0z" />
<path style="fill:#b2b2b2;stroke:#000;stroke-width:2" d="M295,817 l-6,116 78,0 0,-116 -72,0z" />
<path style="fill:#b2b2b2;stroke:#000;stroke-width:2" d="M144,817 l4,116 -77,0 0,-116 73,0z" />
<path style="fill:#b2b2b2;stroke:#000;stroke-width:2" d="M407,577 l-48,4 -147,6 -184,-10 0,-535 379,0 0,535z" />
<path style="fill:#7f7f7f" d="M291,906 l-2,27 78,0 0,-27 -76,0z" />
<path style="fill:#7f7f7f" d="M148,906 l0,27 -77,0 0,-27 77,0z" />
<path style="fill:#ccc;stroke:#000;stroke-width:2" d="M131,570 l17,0 16,380 -16,0 -17,-380z" />
<path style="fill:#ccc;stroke:#000;stroke-width:2" d="M305,570 l-14,0 -19,380 17,0 16,-380z" />
<path style="fill:#ccc;stroke:#000;stroke-width:2" d="M396,780 l-14,0 0,190 14,0 0,-190z" />
<path style="fill:#ccc;stroke:#000;stroke-width:2" d="M365,780 l17,0 0,190 -17,0 0,-190z" />
<path style="fill:#ccc;stroke:#000;stroke-width:2" d="M40,780 l17,0 0,190 -17,0 0,-190z" />
<path style="fill:#ccc;stroke:#000;stroke-width:2" d="M71,780 l-14,0 0,190 14,0 0,-190z" />
<path style="fill:#d4d4d4" d="M361,581 l-327,-4 0,-535 327,0 0,539z" />
<path style="fill:#e3e3e3" d="M274,587 l-230,-8 0,-537 230,0 0,545z" />
<path style="fill:#e8e8e8" d="M231,587 l-181,-8 0,-537 181,0 0,545z" />
<path style="fill:#f7f7f7" d="M144,585 l-83,-4 0,-539 83,0 0,543z" />
<path style="fill:#fff" d="M100,583 l-35,0 0,-541 35,0 0,541z" />
<path style="fill:#fff" d="M71,790 l-14,0 0,13 14,0 0,-13z" />
<path style="fill:#fff" d="M365,790 l15,0 0,13 -15,0 0,-13z" />
<path style="fill:#fff" d="M42,790 l15,0 0,13 -15,0 0,-13z" />
<path style="fill:#fff" d="M396,790 l-14,0 0,13 14,0 0,-13z" />
<path style="fill:none;stroke:#000;stroke-width:2" d="M407,575 l-23,4 -44,4 -60,2 -66,2 -66,-2 -58,-2 -42,-4 -20,-4 0,-533 379,0 0,533" />
<path style="fill:#e5e5e5;stroke:#000;stroke-width:2" d="M216,28 l135,4 56,8 -56,10 -135,5 -132,-5 -56,-10 56,-8 132,-4z" />
<path style="fill:none;stroke:#000;stroke-width:2" d="M407,110 l-56,9 -135,4 -132,-4 -56,-9" />
<path style="fill:none;stroke:#000;stroke-width:2" d="M407,303 l-56,9 -135,4 -132,-4 -56,-9" />
<path style="fill:#b2b2b2" d="M396,962 l4,0 0,2 -4,0 0,-2z" />
<path style="fill:#b2b2b2" d="M396,933 l4,0 0,4 -4,0 0,-4z" />
<path style="fill:#b2b2b2" d="M396,906 l4,0 0,2 -4,0 0,-2z" />
<path style="fill:#b2b2b2" d="M396,877 l4,0 0,2 -4,0 0,-2z" />
<path style="fill:#b2b2b2" d="M396,848 l4,0 0,2 -4,0 0,-2z" />
<path style="fill:#b2b2b2" d="M396,792 l4,0 0,2 -4,0 0,-2z" />
<path style="fill:#b2b2b2" d="M396,819 l4,0 0,4 -4,0 0,-4z" />
<path style="fill:#b2b2b2" d="M40,962 l-4,0 0,2 4,0 0,-2z" />
<path style="fill:#b2b2b2" d="M40,933 l-4,0 0,4 4,0 0,-4z" />
<path style="fill:#b2b2b2" d="M40,906 l-4,0 0,2 4,0 0,-2z" />
<path style="fill:#b2b2b2" d="M40,877 l-4,0 0,2 4,0 0,-2z" />
<path style="fill:#b2b2b2" d="M40,848 l-4,0 0,2 4,0 0,-2z" />
<path style="fill:#b2b2b2" d="M40,792 l-4,0 0,2 4,0 0,-2z" />
<path style="fill:#b2b2b2" d="M40,819 l-4,0 0,4 4,0 0,-4z" />
<path style="fill:#e0e0e0" d="M396,962 l4,0 0,-4 -4,0 0,4z" />
<path style="fill:#e0e0e0" d="M396,933 l4,0 0,-2 -4,0 0,2z" />
<path style="fill:#e0e0e0" d="M396,904 l4,0 0,-2 -4,0 0,2z" />
<path style="fill:#e0e0e0" d="M396,877 l4,0 0,-4 -4,0 0,4z" />
<path style="fill:#e0e0e0" d="M396,848 l4,0 0,-4 -4,0 0,4z" />
<path style="fill:#e0e0e0" d="M396,819 l4,0 0,-2 -4,0 0,2z" />
<path style="fill:#e0e0e0" d="M396,790 l4,0 0,-2 -4,0 0,2z" />
<path style="fill:#e0e0e0" d="M40,962 l-4,0 0,-4 4,0 0,4z" />
<path style="fill:#e0e0e0" d="M40,933 l-4,0 0,-2 4,0 0,2z" />
<path style="fill:#e0e0e0" d="M40,904 l-4,0 0,-2 4,0 0,2z" />
<path style="fill:#e0e0e0" d="M40,877 l-4,0 0,-4 4,0 0,4z" />
<path style="fill:#e0e0e0" d="M40,848 l-4,0 0,-4 4,0 0,4z" />
<path style="fill:#e0e0e0" d="M40,819 l-4,0 0,-2 4,0 0,2z" />
<path style="fill:#e0e0e0" d="M40,790 l-4,0 0,-2 4,0 0,2z" />
<path style="fill:#7f7f7f" d="M301,612 l12,2 13,0 8,2 17,2 6,4 2,0 -2,2 -8,4 -15,3 -16,2 -21,0 -25,2 -122,0 -11,-2 -20,0 0,70 -4,11 -13,6 -12,-6 -4,-5 0,-83 -11,-2 0,-2 2,0 7,-4 16,-2 21,-2 12,-2 13,2 20,2 25,2 54,0 25,-2 19,0 12,-4z" />
<path style="fill:#7f7f7f" d="M71,788 l4,0 0,4 -4,0 0,-4z" />
<path style="fill:#7f7f7f" d="M71,815 l4,0 0,6 -4,0 0,-6z" />
<path style="fill:#7f7f7f" d="M71,844 l4,0 0,6 -4,0 0,-6z" />
<path style="fill:#7f7f7f" d="M71,873 l4,0 0,6 -4,0 0,-6z" />
<path style="fill:#7f7f7f" d="M71,902 l4,0 0,4 -4,0 0,-4z" />
<path style="fill:#7f7f7f" d="M71,929 l4,0 0,6 -4,0 0,-6z" />
<path style="fill:#7f7f7f" d="M71,958 l4,0 0,6 -4,0 0,-6z" />
<path style="fill:#7f7f7f" d="M40,786 l-4,0 0,8 4,0 0,-8z" />
<path style="fill:#7f7f7f" d="M40,813 l-4,0 0,10 4,0 0,-10z" />
<path style="fill:#7f7f7f" d="M40,842 l-4,0 0,10 4,0 0,-10z" />
<path style="fill:#7f7f7f" d="M40,871 l-4,0 0,10 4,0 0,-10z" />
<path style="fill:#7f7f7f" d="M40,900 l-4,0 0,8 4,0 0,-8z" />
<path style="fill:#7f7f7f" d="M40,929 l-4,0 0,8 4,0 0,-8z" />
<path style="fill:#7f7f7f" d="M40,956 l-4,0 0,10 4,0 0,-10z" />
<path style="fill:#7f7f7f" d="M365,788 l-2,0 0,4 2,0 0,-4z" />
<path style="fill:#7f7f7f" d="M365,815 l-2,0 0,6 2,0 0,-6z" />
<path style="fill:#7f7f7f" d="M365,844 l-2,0 0,6 2,0 0,-6z" />
<path style="fill:#7f7f7f" d="M365,873 l-2,0 0,6 2,0 0,-6z" />
<path style="fill:#7f7f7f" d="M365,902 l-2,0 0,4 2,0 0,-4z" />
<path style="fill:#7f7f7f" d="M365,929 l-2,0 0,6 2,0 0,-6z" />
<path style="fill:#7f7f7f" d="M365,958 l-2,0 0,6 2,0 0,-6z" />
<path style="fill:#7f7f7f" d="M396,786 l4,0 0,8 -4,0 0,-8z" />
<path style="fill:#7f7f7f" d="M396,813 l4,0 0,10 -4,0 0,-10z" />
<path style="fill:#7f7f7f" d="M396,842 l4,0 0,10 -4,0 0,-10z" />
<path style="fill:#7f7f7f" d="M396,871 l4,0 0,10 -4,0 0,-10z" />
<path style="fill:#7f7f7f" d="M396,900 l4,0 0,8 -4,0 0,-8z" />
<path style="fill:#7f7f7f" d="M396,929 l4,0 0,8 -4,0 0,-8z" />
<path style="fill:#7f7f7f" d="M396,956 l4,0 0,10 -4,0 0,-10z" />
<path style="fill:#7f7f7f" d="M405,407 l14,0 0,68 -14,0 0,-68z" />
<path style="fill:#000;stroke:#000;stroke-width:2" d="M440,510 l21,0 0,75 -1,6 -1,12 -3,11 -4,9 -6,10 -8,8 -8,8 -9,7 -11,6 -12,6 -12,6 -14,5 -15,4 -16,4 -16,3 -9,2 -8,1 -9,2 2,-25 13,-2 13,-3 13,-3 13,-3 12,-4 11,-4 11,-5 10,-5 9,-6 9,-7 7,-7 6,-9 5,-8 4,-10 2,-10 1,-11 0,-63z" />
<path style="fill:#000;stroke:#000;stroke-width:2" d="M40,67 l52,2 0,31 -52,-2 0,-31z" />
<path style="fill:#000;stroke:#000;stroke-width:2" d="M345,69 l49,-4 0,31 -49,6 0,-33z" />
<path style="fill:#000;stroke:#000;stroke-width:2" d="M185,73 l68,0 0,31 -68,0 0,-31z" />
<path style="fill:#000;stroke:#000;stroke-width:2" d="M268,73 l62,-2 0,31 -62,2 0,-31z" />
<path style="fill:#000;stroke:#000;stroke-width:2" d="M108,71 l63,2 0,31 -63,-2 0,-31z" />

</svg>
