 

<svg xmlns:agg="http://www.example.com" xmlns="http://www.w3.org/2000/svg" preserveAspectRatio="none" width="0.7662in" height="1.0750in" viewBox="0 0 712 999">

<path style="fill:#b2b2b2;stroke:#000;stroke-width:2" d="M307,91 l-11,0 2,-24 9,-13 22,-6 21,6 8,13 2,24 -10,0 0,-24 -7,-9 -14,-4 -16,4 -6,9 0,24z" />
<path style="fill:#217f21" d="M274,89 l331,0 0,125 -331,0 0,-125z" />
<path style="fill:#005e00;stroke:#000;stroke-width:2" d="M452,171 l0,-21 -1,-2 -2,-2 -2,-1 -1,-1 -14,0 -1,1 -2,2 -3,3 -1,0 0,21 -51,0 0,37 125,0 0,-37 -47,0z" />
<path style="fill:#f0f0f0" d="M370,175 l125,0 0,37 -125,0 0,-37z" />
<path style="fill:#005e00" d="M554,89 l51,0 0,125 -51,0 0,-125z" />
<path style="fill:#217f21" d="M390,89 l101,0 0,-41 -101,0 0,41z" />
<path style="fill:#217f21" d="M399,28 l84,0 0,20 -84,0 0,-20z" />
<path style="fill:#005e00" d="M465,89 l26,0 0,-41 -26,0 0,41z" />
<path style="fill:#005e00" d="M460,28 l23,0 0,20 -23,0 0,-20z" />
<path style="fill:none;stroke:#000;stroke-width:2" d="M274,89 l331,0 0,125 -331,0 0,-125" />
<path style="fill:none;stroke:#000;stroke-width:2" d="M390,89 l101,0 0,-41 -101,0 0,41" />
<path style="fill:none;stroke:#000;stroke-width:2" d="M399,28 l84,0 0,20 -84,0 0,-20" />
<path style="fill:#217f21;stroke:#000;stroke-width:2" d="M262,212 l356,0 0,365 -356,0 0,-365z" />
<path style="fill:#005e00;stroke:#000;stroke-width:2" d="M536,308 l20,0 0,269 -20,0 0,-269z" />
<path style="fill:#005e00;stroke:#000;stroke-width:2" d="M458,308 l19,0 0,269 -19,0 0,-269z" />
<path style="fill:#005e00;stroke:#000;stroke-width:2" d="M383,212 l18,0 0,365 -18,0 0,-365z" />
<path style="fill:#005e00;stroke:#000;stroke-width:2" d="M315,308 l20,0 0,269 -20,0 0,-269z" />
<path style="fill:#005e00;stroke:#000;stroke-width:2" d="M251,308 l19,0 0,269 -19,0 0,-269z" />
<path style="fill:#005e00;stroke:#000;stroke-width:2" d="M599,212 l19,0 0,365 -19,0 0,-365z" />
<path style="fill:#217f21;stroke:#000;stroke-width:2" d="M229,591 l407,0 0,96 -407,0 0,-96z" />
<path style="fill:#005e00;stroke:#000;stroke-width:2" d="M546,591 l21,0 0,96 -21,0 0,-96z" />
<path style="fill:#005e00;stroke:#000;stroke-width:2" d="M458,591 l21,0 0,96 -21,0 0,-96z" />
<path style="fill:#005e00;stroke:#000;stroke-width:2" d="M374,591 l21,0 0,96 -21,0 0,-96z" />
<path style="fill:#005e00;stroke:#000;stroke-width:2" d="M301,591 l20,0 0,96 -20,0 0,-96z" />
<path style="fill:#005e00;stroke:#000;stroke-width:2" d="M229,591 l20,0 0,96 -20,0 0,-96z" />
<path style="fill:#005e00;stroke:#000;stroke-width:2" d="M614,591 l22,0 0,96 -22,0 0,-96z" />
<path style="fill:#217f21;stroke:#000;stroke-width:2" d="M204,591 l457,0 0,-14 -457,0 0,14z" />
<path style="fill:#217f21;stroke:#000;stroke-width:2" d="M204,702 l457,0 0,-15 -457,0 0,15z" />
<path style="fill:#005e00;stroke:#000;stroke-width:2" d="M94,858 l38,0 -10,112 -21,0 -7,-112z" />
<path style="fill:#005e00;stroke:#000;stroke-width:2" d="M602,858 l39,0 -13,112 -18,0 -8,-112z" />
<path style="fill:#005e00" d="M67,700 l600,0 6,4 7,14 1,23 3,26 0,23 -3,27 -1,20 -7,14 -6,7 -600,0 -6,-7 -5,-14 -4,-20 0,-27 0,-23 0,-26 4,-23 5,-14 6,-4z" />
<path style="fill:#217f21" d="M222,700 l72,0 2,4 5,14 3,23 3,26 0,23 -3,27 -3,20 -5,14 -2,7 -72,0 -2,-7 -4,-14 -4,-20 0,-27 0,-23 2,-26 2,-23 4,-14 2,-4z" />
<path style="fill:#217f21" d="M200,700 l-172,0 0,-31 172,0 0,31z" />
<path style="fill:#005e00" d="M200,700 l-37,0 0,-31 37,0 0,31z" />
<path style="fill:#005e00" d="M63,700 l-35,0 0,-31 35,0 0,31z" />
<path style="fill:none;stroke:#000;stroke-width:2" d="M67,700 l600,0 6,4 7,14 1,23 3,26 0,23 -3,27 -1,20 -7,14 -6,7 -600,0 -6,-7 -5,-14 -4,-20 0,-27 0,-23 0,-26 4,-23 5,-14 6,-4" />
<path style="fill:none;stroke:#000;stroke-width:2" d="M200,700 l-172,0 0,-31 172,0 0,31" />
<path style="fill:#b2b2b2;stroke:#000;stroke-width:2" d="M212,690 l17,0 0,-11 -17,0 0,11z" />
<path style="fill:#b2b2b2;stroke:#000;stroke-width:2" d="M421,690 l17,0 0,-11 -17,0 0,11z" />
<path style="fill:#b2b2b2;stroke:#000;stroke-width:2" d="M641,690 l16,0 0,-11 -16,0 0,11z" />
<path style="fill:#b2b2b2;stroke:#000;stroke-width:2" d="M614,577 l18,0 0,-11 -18,0 0,11z" />
<path style="fill:#b2b2b2;stroke:#000;stroke-width:2" d="M415,577 l19,0 0,-11 -19,0 0,11z" />
<path style="fill:#b2b2b2;stroke:#000;stroke-width:2" d="M231,577 l16,0 0,-11 -16,0 0,11z" />
<path style="fill:#b2b2b2;stroke:#000;stroke-width:2" d="M268,214 l16,0 0,-10 -16,0 0,10z" />
<path style="fill:#b2b2b2;stroke:#000;stroke-width:2" d="M598,214 l16,0 0,-10 -16,0 0,10z" />
<path style="fill:#ccc;stroke:#000;stroke-width:2" d="M440,153 l4,2 2,4 -2,6 -4,2 -6,-2 -2,-6 2,-4 6,-2z" />

</svg>
