 

<svg xmlns:agg="http://www.example.com" xmlns="http://www.w3.org/2000/svg" preserveAspectRatio="none" width="1.6083in" height="0.8774in" viewBox="0 0 999 545">

<path style="fill:#4c4c4c" d="M33,502 l712,0 0,9 -712,0 0,-9z" />
<path style="fill:#999" d="M856,517 l30,0 -2,-51 -28,0 -12,11 0,29 12,11z" />
<path style="fill:#b2b2b2" d="M856,511 l30,0 -2,-39 -28,0 -12,7 0,25 12,7z" />
<path style="fill:#ccc" d="M856,502 l30,0 -2,-21 -28,0 -12,4 0,13 12,4z" />
<path style="fill:none;stroke:#000;stroke-width:2" d="M856,517 l30,0 -2,-51 -28,0 -12,11 0,29 12,11" />
<path style="fill:#999" d="M856,167 l30,0 -2,-49 -28,0 -12,9 0,30 12,10z" />
<path style="fill:#b2b2b2" d="M856,163 l30,0 -2,-39 -28,0 -12,7 0,25 12,7z" />
<path style="fill:#ccc" d="M856,152 l30,0 -2,-19 -28,0 -12,4 0,11 12,4z" />
<path style="fill:none;stroke:#000;stroke-width:2" d="M856,167 l30,0 -2,-49 -28,0 -12,9 0,30 12,10" />
<path style="fill:#7f7f7f;stroke:#000;stroke-width:2" d="M801,472 l-26,0 0,45 84,0 -9,-290 21,0 0,-118 -70,0 0,363z" />
<path style="fill:#999;stroke:#000;stroke-width:2" d="M871,118 l-759,0 0,384 759,0 0,-384z" />
<path style="fill:#333;stroke:#000;stroke-width:2" d="M711,357 l-40,0 0,149 40,0 0,-149z" />
<path style="fill:#4c4c4c;stroke:#000;stroke-width:2" d="M43,188 l-10,0 0,69 10,0 0,-69z" />
<path style="fill:#999;stroke:#000;stroke-width:2" d="M33,502 l79,0 0,-384 -79,0 0,70 10,0 0,69 -10,0 0,245z" />
<path style="fill:#b2b2b2;stroke:#000;stroke-width:2" d="M632,506 l0,-394 79,0 0,245 -40,0 0,149 -39,0z" />
<path style="fill:#191919;stroke:#000;stroke-width:2" d="M790,127 l-70,0 0,55 70,0 0,-55z" />
<path style="fill:#191919;stroke:#000;stroke-width:2" d="M790,193 l-70,0 0,70 70,0 0,-70z" />
<path style="fill:#191919;stroke:#000;stroke-width:2" d="M790,272 l-70,0 0,70 70,0 0,-70z" />
<path style="fill:#191919;stroke:#000;stroke-width:2" d="M790,353 l-70,0 0,68 70,0 0,-68z" />
<path style="fill:#191919;stroke:#000;stroke-width:2" d="M790,432 l-70,0 0,60 70,0 0,-60z" />
<path style="fill:#4c4c4c" d="M790,109 l90,0 0,-81 -90,0 0,81z" />
<path style="fill:#666" d="M801,109 l70,0 0,-81 -70,0 0,81z" />
<path style="fill:#7f7f7f" d="M820,109 l30,0 0,-81 -30,0 0,81z" />
<path style="fill:none;stroke:#000;stroke-width:2" d="M790,109 l90,0 0,-81 -90,0 0,81" />
<path style="fill:#b2b2b2" d="M820,472 l-45,0 0,45 84,0 -9,-290 21,0 0,-115 -51,0 0,360z" />
<path style="fill:#7f7f7f;stroke:#000;stroke-width:2" d="M765,472 l-20,0 0,45 20,0 0,-45z" />
<path style="fill:#4c4c4c;stroke:#000;stroke-width:2" d="M775,477 l-10,0 0,34 10,0 0,-34z" />
<path style="fill:#ccc;stroke:#000;stroke-width:2" d="M741,472 l4,0 0,45 -4,0 0,-45z" />
<path style="fill:#b2b2b2;stroke:#000;stroke-width:2" d="M735,481 l6,0 0,25 -6,0 0,-25z" />
<path style="fill:#666" d="M760,496 l-10,0 0,15 10,0 0,-15z" />
<path style="fill:#999" d="M780,496 l76,0 0,15 -76,0 0,-15z" />
<path style="fill:#999" d="M635,332 l0,170 31,0 0,-151 39,0 0,-19 -70,0z" />
<path style="fill:#b2b2b2;stroke:#000;stroke-width:2" d="M716,393 l-50,0 0,9 50,0 0,-9z" />
<path style="fill:#b2b2b2;stroke:#000;stroke-width:2" d="M716,432 l-50,0 0,10 50,0 0,-10z" />
<path style="fill:#b2b2b2;stroke:#000;stroke-width:2" d="M716,472 l-50,0 0,9 50,0 0,-9z" />
<path style="fill:#7f7f7f" d="M626,332 l-508,0 0,164 508,0 0,-164z" />
<path style="fill:#7f7f7f" d="M109,496 l0,-164 -70,0 0,164 70,0z" />
<path style="fill:#7f7f7f;stroke:#000;stroke-width:2" d="M103,302 l-75,0 0,15 75,0 0,-15z" />
<path style="fill:#7f7f7f;stroke:#000;stroke-width:2" d="M103,278 l-75,0 0,13 75,0 0,-13z" />
<path style="fill:#7f7f7f;stroke:#000;stroke-width:2" d="M103,327 l-75,0 0,15 75,0 0,-15z" />
<path style="fill:#000;stroke:#000;stroke-width:2" d="M442,517 l0,-11 -130,0 0,-70 -10,0 0,70 -54,0 0,11 194,0z" />
<path style="fill:none;stroke:#000;stroke-width:2" d="M775,472 l60,0" />
<path style="fill:none;stroke:#000;stroke-width:2" d="M859,517 l-9,-290 21,0 0,-118" />
<path style="fill:#666;stroke:#000;stroke-width:2" d="M880,142 l-9,0 0,354 9,0 0,-354z" />
<path style="fill:#7f7f7f;stroke:#000;stroke-width:2" d="M880,257 l90,0 0,91 -90,0 0,-91z" />
<path style="fill:#666" d="M965,308 l-79,0 0,34 79,0 0,-34z" />
<path style="fill:#999" d="M856,327 l30,0 -2,-49 -28,0 -12,9 0,30 12,10z" />
<path style="fill:#b2b2b2" d="M856,323 l30,0 -2,-41 -28,0 -12,7 0,25 12,9z" />
<path style="fill:#ccc" d="M856,312 l30,0 -2,-19 -28,0 -12,4 0,11 12,4z" />
<path style="fill:none;stroke:#000;stroke-width:2" d="M856,327 l30,0 -2,-49 -28,0 -12,9 0,30 12,10" />

</svg>
