 

<svg xmlns:agg="http://www.example.com" xmlns="http://www.w3.org/2000/svg" preserveAspectRatio="none" width="1.5320in" height="1.0750in" viewBox="0 0 999 701">

<path style="fill:#333" d="M127,474 l0,31 62,0 0,62 -31,0 0,19 304,0 0,-19 -31,0 0,-62 155,0 0,81 198,0 25,-25 0,-75 -682,-12z" />
<path style="fill:#4c4c4c" d="M834,282 l136,0 0,25 -136,0 0,-25z" />
<path style="fill:#4c4c4c" d="M834,443 l136,0 0,25 -136,0 0,-25z" />
<path style="fill:#7f7f7f" d="M834,406 l136,0 0,25 -136,0 0,-25z" />
<path style="fill:#7f7f7f" d="M834,319 l136,0 0,25 -136,0 0,-25z" />
<path style="fill:#b2b2b2" d="M834,363 l136,0 0,24 -136,0 0,-24z" />
<path style="fill:#b2b2b2" d="M834,449 l136,0 0,13 -136,0 0,-13z" />
<path style="fill:#b2b2b2" d="M834,288 l136,0 0,13 -136,0 0,-13z" />
<path style="fill:#e5e5e5" d="M834,412 l136,0 0,13 -136,0 0,-13z" />
<path style="fill:#e5e5e5" d="M834,325 l136,0 0,13 -136,0 0,-13z" />
<path style="fill:#fff" d="M834,369 l136,0 0,12 -136,0 0,-12z" />
<path style="fill:#999;stroke:#000;stroke-width:2" d="M561,598 l0,-446 25,0 0,25 199,0 24,24 0,75 25,0 0,198 -25,0 0,74 -24,25 -199,0 0,25 -25,0z" />
<path style="fill:#999" d="M636,177 l0,-124 -25,0 0,-25 149,0 0,25 -25,0 0,124 -99,0z" />
<path style="fill:#adadad" d="M562,558 l0,-367 25,0 0,20 198,0 25,21 0,61 25,0 0,163 -25,0 0,61 -25,21 -198,0 0,20 -25,0z" />
<path style="fill:#adadad" d="M644,177 l0,-124 -21,0 0,-25 123,0 0,25 -21,0 0,124 -81,0z" />
<path style="fill:#c2c2c2" d="M562,518 l0,-288 25,0 0,16 198,0 25,16 0,48 25,0 0,128 -25,0 0,48 -25,16 -198,0 0,16 -25,0z" />
<path style="fill:#c2c2c2" d="M653,177 l0,-124 -16,0 0,-25 96,0 0,25 -16,0 0,124 -64,0z" />
<path style="fill:#d6d6d6" d="M562,479 l0,-209 25,0 0,12 198,0 25,11 0,35 25,0 0,93 -25,0 0,35 -25,11 -198,0 0,12 -25,0z" />
<path style="fill:#d6d6d6" d="M662,177 l0,-124 -12,0 0,-25 70,0 0,25 -12,0 0,124 -46,0z" />
<path style="fill:#ebebeb" d="M562,439 l0,-130 25,0 0,8 198,0 25,7 0,22 25,0 0,57 -25,0 0,22 -25,7 -198,0 0,7 -25,0z" />
<path style="fill:#ebebeb" d="M670,177 l0,-124 -7,0 0,-25 44,0 0,25 -8,0 0,124 -29,0z" />
<path style="fill:#fff" d="M679,177 l0,-124 -2,0 0,-25 16,0 0,25 -2,0 0,124 -12,0z" />
<path style="fill:#fff" d="M561,400 l0,-50 25,0 0,2 199,0 24,3 0,8 25,0 0,23 -25,0 0,8 -24,3 -199,0 0,3 -25,0z" />
<path style="fill:none;stroke:#000;stroke-width:2" d="M586,573 l0,-396" />
<path style="fill:none;stroke:#000;stroke-width:2" d="M809,474 l0,-198" />
<path style="fill:none;stroke:#000;stroke-width:2" d="M834,276 l0,198" />
<path style="fill:none;stroke:#000;stroke-width:2" d="M636,177 l0,-124 -25,0 0,-25 149,0 0,25 -25,0 0,124 -99,0" />
<path style="fill:none;stroke:#000;stroke-width:2" d="M636,53 l99,0" />
<path style="fill:#4c4c4c;stroke:#000;stroke-width:2" d="M487,226 l25,0 0,298 -25,0 0,-298z" />
<path style="fill:#999;stroke:#000;stroke-width:2" d="M512,226 l49,0 0,298 -49,0 0,-298z" />
<path style="fill:#191919" d="M488,435 l22,0 0,87 -22,0 0,-87z" />
<path style="fill:#666" d="M514,435 l45,0 0,87 -45,0 0,-87z" />
<path style="fill:#7f7f7f" d="M488,252 l22,0 0,40 -22,0 0,-40z" />
<path style="fill:#ccc" d="M514,252 l45,0 0,40 -45,0 0,-40z" />
<path style="fill:#7f7f7f" d="M127,246 l235,0 19,-45 70,0 18,45 -18,0 -9,-36 -54,0 -7,36 105,0 0,247 -359,0 0,-247z" />
<path style="fill:#999" d="M127,269 l360,0 0,200 -360,0 0,-200z" />
<path style="fill:#b2b2b2" d="M127,292 l360,0 0,153 -360,0 0,-153z" />
<path style="fill:#ccc" d="M127,316 l360,0 0,105 -54,0 0,117 27,0 0,35 -302,0 0,-35 27,0 0,-117 -58,0 0,-105z" />
<path style="fill:#e5e5e5" d="M127,341 l359,0 0,56 -359,0 0,-56z" />
<path style="fill:none;stroke:#000;stroke-width:2" d="M127,246 l235,0 19,-45 70,0 18,45 17,0 0,247 -53,0 0,45 27,0 0,35 -302,0 0,-35 27,0 0,-45 -58,0 0,-247" />
<path style="fill:none;stroke:#000;stroke-width:2" d="M381,246 l7,-38 54,0 10,38 -71,0" />
<path style="fill:#999" d="M28,350 l80,0 19,-105 0,248 -19,-106 -80,0 0,-37z" />
<path style="fill:#ccc" d="M28,357 l80,0 19,-69 0,161 -19,-68 -80,0 0,-24z" />
<path style="fill:#fff" d="M28,363 l80,0 19,-32 0,75 -19,-32 -80,0 0,-11z" />
<path style="fill:none;stroke:#000;stroke-width:2" d="M28,350 l80,0 19,-105 0,248 -19,-106 -80,0 0,-37" />
<path style="fill:#e5e5e5;stroke:#000;stroke-width:2" d="M660,499 l62,0 0,174 -62,0 0,-174z" />
<path style="fill:#e5e5e5;stroke:#000;stroke-width:2" d="M239,499 l62,0 0,174 -62,0 0,-174z" />
<path style="fill:none;stroke:#000;stroke-width:2" d="M239,660 l62,0" />
<path style="fill:none;stroke:#000;stroke-width:2" d="M660,660 l62,0" />
<path style="fill:#999" d="M257,518 l25,0 0,43 -25,0 0,-43z" />
<path style="fill:#e5e5e5;stroke:#000;stroke-width:2" d="M251,517 l37,0 0,-68 -6,-12 -12,-6 -13,6 -6,12 0,68z" />
<path style="fill:#fff" d="M264,474 l12,0 0,-29 -2,-5 -4,-3 -4,3 -2,5 0,29z" />

</svg>
