 

<svg xmlns:agg="http://www.example.com" xmlns="http://www.w3.org/2000/svg" preserveAspectRatio="none" width="0.8210in" height="1.0750in" viewBox="0 0 763 999">

<path style="fill:#b2b2b2;stroke:#000;stroke-width:2" d="M637,518 l-432,0 0,433 432,0 0,-433z" />
<path style="fill:#ccc;stroke:#000;stroke-width:2" d="M205,499 l-9,0 0,471 9,0 0,-471z" />
<path style="fill:#ccc;stroke:#000;stroke-width:2" d="M646,499 l-9,0 0,471 9,0 0,-471z" />
<path style="fill:#ccc;stroke:#000;stroke-width:2" d="M431,736 l0,155 -34,0 0,-155 34,0z" />
<path style="fill:#ccc;stroke:#000;stroke-width:2" d="M414,156 l11,-96 -352,0 19,96 0,322 1,33 5,32 8,31 11,29 14,28 16,27 19,24 20,23 23,21 25,18 27,16 28,14 30,10 30,8 33,5 16,1 16,1 17,-1 32,-3 31,-6 30,-10 28,-12 28,-15 25,-17 24,-20 22,-21 20,-24 17,-26 15,-27 12,-28 10,-31 6,-31 3,-32 1,-17 0,-8 -3,-33 -6,-31 -8,-31 -12,-29 -14,-28 -17,-26 -19,-25 -21,-22 -24,-20 -25,-18 -27,-15 -28,-13 -30,-10 -31,-8 -32,-4 -24,-1z" />
<path style="fill:#b2b2b2" d="M28,60 l450,0 0,-32 -450,0 0,32z" />
<path style="fill:#999;stroke:#000;stroke-width:2" d="M676,951 l-511,0 0,19 511,0 0,-19z" />
<path style="fill:#ccc" d="M84,60 l336,0 0,-32 -336,0 0,32z" />
<path style="fill:#e5e5e5" d="M145,60 l216,0 0,-32 -216,0 0,32z" />
<path style="fill:#fff" d="M224,60 l58,0 0,-32 -58,0 0,32z" />
<path style="fill:none;stroke:#000;stroke-width:2" d="M28,60 l450,0 0,-32 -450,0 0,32" />
<path style="fill:#e5e5e5" d="M137,478 l-2,-405 226,0 0,132 29,-3 38,-1 28,3 27,6 25,8 25,11 23,12 22,15 21,17 18,19 17,21 15,22 13,23 10,25 9,26 5,27 3,28 0,14 0,14 -3,28 -5,27 -9,26 -10,25 -13,23 -15,22 -17,21 -18,18 -21,17 -22,15 -23,12 -25,11 -25,8 -27,5 -28,3 -14,0 -14,0 -28,-3 -27,-5 -26,-8 -25,-11 -23,-12 -22,-15 -21,-17 -27,-28 -16,-21 -14,-23 -12,-24 -9,-26 -7,-26 -4,-27 -2,-29z" />
<path style="fill:none;stroke:#7f7f7f;stroke-width:2" d="M218,282 l-18,20 -16,22 -14,23 -12,25 -9,25 -6,27 -5,27 -1,13 0,14 0,14 3,28 6,27 8,26 10,25 13,23 15,22 17,21 29,27 21,16 23,13 24,12 26,9 27,7 27,4 14,1 14,0 14,0 26,-3 27,-5 26,-8 24,-10 24,-12 23,-15 21,-17 9,-9" />
<path style="fill:#ccc;stroke:#000;stroke-width:2" d="M431,736 l0,-518 -34,0 0,518 34,0z" />
<path style="fill:#ccc;stroke:#000;stroke-width:2" d="M674,459 l-518,0 0,36 518,0 0,-36z" />
<circle style="fill:#a6a6a6;stroke:#000;stroke-width:2" cx="413" cy="477" r="193" />
<circle style="fill:#666;stroke:#000;stroke-width:2" cx="413" cy="477" r="123" />
<path style="fill:#999" d="M448,586 l-58,-219 -17,6 58,218 17,-5z" />
<path style="fill:#999" d="M486,393 l-160,161 11,11 160,-160 -11,-12z" />
<path style="fill:#999" d="M524,501 l-221,-59 -4,17 219,59 6,-17z" />
<circle style="fill:#666;stroke:#000;stroke-width:2" cx="413" cy="477" r="29" />
<path style="fill:none;stroke:#7f7f7f;stroke-width:2" d="M674,320 l-15,9 10,15 15,-9 -10,-15" />
<path style="fill:none;stroke:#7f7f7f;stroke-width:2" d="M561,212 l-9,16 15,9 9,-17 -15,-8" />
<path style="fill:none;stroke:#7f7f7f;stroke-width:2" d="M409,175 l0,19 16,0 0,-19 -16,0" />
<path style="fill:none;stroke:#7f7f7f;stroke-width:2" d="M405,98 l0,-21 -19,0 0,21 19,0" />
<path style="fill:none;stroke:#7f7f7f;stroke-width:2" d="M574,738 l-9,-15 -15,10 9,15 15,-10" />
<path style="fill:none;stroke:#7f7f7f;stroke-width:2" d="M684,625 l-17,-9 -8,15 15,9 10,-15" />
<path style="fill:none;stroke:#7f7f7f;stroke-width:2" d="M720,471 l-17,0 0,19 17,0 0,-19" />
<path style="fill:none;stroke:#7f7f7f;stroke-width:2" d="M424,784 l0,-17 -17,0 0,17 17,0" />
<path style="fill:none;stroke:#7f7f7f;stroke-width:2" d="M271,746 l7,-15 -15,-8 -7,15 15,8" />
<path style="fill:none;stroke:#7f7f7f;stroke-width:2" d="M156,638 l15,-9 -8,-15 -16,9 9,15" />
<path style="fill:none;stroke:#7f7f7f;stroke-width:2" d="M111,488 l19,0 0,-19 -19,0 0,19" />
<path style="fill:none;stroke:#7f7f7f;stroke-width:2" d="M116,77 l-18,0 0,19 18,0 0,-19" />
<path style="fill:none;stroke:#7f7f7f;stroke-width:2" d="M126,196 l-19,0 0,18 19,0 0,-18" />
<path style="fill:none;stroke:#7f7f7f;stroke-width:2" d="M126,322 l-19,0 0,21 19,0 0,-21" />
<path style="fill:none;stroke:#fff;stroke-width:2" d="M608,672 l19,-20 16,-21 13,-24 12,-24 9,-25 7,-26 4,-27 1,-13 0,-14 0,-14 -3,-28 -5,-27 -9,-26 -10,-25 -13,-23 -15,-22 -17,-21 -18,-19 -21,-17 -22,-15 -23,-12 -25,-11 -25,-8 -27,-6 -28,-3 -14,0 -14,0 -27,3 -27,6 -26,8 -25,10 -24,13 -22,15 -21,17 -10,9" />
<path style="fill:#4c4c4c" d="M273,813 l7,-3 3,-7 -3,-6 -7,-3 -7,3 -3,6 3,7 7,3z" />
<path style="fill:#4c4c4c" d="M273,892 l7,-3 3,-7 -3,-7 -7,-3 -7,3 -3,7 3,7 7,3z" />

</svg>
