 

<svg xmlns:agg="http://www.example.com" xmlns="http://www.w3.org/2000/svg" preserveAspectRatio="none" width="1.0925in" height="1.0750in" viewBox="0 0 998 982">

<path style="fill:#9cc" d="M520,929 l87,-7 85,-23 78,-38 69,-52 56,-62 41,-71 26,-76 8,-81 -7,-79 -26,-77 -42,-71 -56,-63 -68,-51 -79,-37 -84,-24 -88,-7 -88,7 -85,24 -88,45 10,-123 20,0 0,-35 -261,0 0,35 15,0 26,457 8,79 26,78 41,70 57,63 68,51 78,38 84,22 89,8z" />
<path style="fill:#7fb2b2" d="M84,333 l-7,45 -5,44 -1,22 0,21 0,22 2,41 5,40 8,39 11,38 14,37 16,34 19,33 22,31 25,29 27,27 31,25 33,22 37,20 40,16 42,12 43,8 22,2 23,1 22,0 46,-2 45,-8 44,-11 44,-15 41,-20 40,-24 37,-27 33,-32 30,-36 26,-40 10,-21 10,-23 -16,20 -32,37 -34,33 -35,29 -37,26 -36,21 -38,18 -37,14 -38,11 -38,7 -38,2 -37,0 -37,-5 -37,-8 -35,-11 -34,-16 -30,-17 -26,-16 -23,-16 -23,-18 -21,-19 -19,-21 -18,-23 -17,-26 -15,-28 -15,-32 -13,-35 -12,-40 -11,-43 -11,-49 -5,-26 -4,-28 -5,-29 -4,-30 -4,-32z" />
<circle style="fill:#b2e5e5" cx="529" cy="490" r="352" />
<path style="fill:#7fb2b2" d="M74,529 l43,8 4,-472 -74,0 27,464z" />
<path style="fill:#b2e5e5" d="M214,65 l-3,30 -3,29 -3,28 -3,26 -2,27 -3,27 -3,29 -3,31 -16,21 -14,29 -9,26 -8,28 -6,31 -4,32 -3,33 -2,34 0,33 1,23 1,10 -4,-12 -6,-27 -4,-28 -3,-30 -2,-31 -1,-17 0,-16 0,-34 1,-35 2,-35 1,-36 2,-36 2,-35 1,-36 1,-35 1,-34 0,-34 -1,-16 93,0z" />
<circle style="fill:#d9d9d9;stroke:#000;stroke-width:2" cx="529" cy="485" r="297" />
<path style="fill:#7f7f7f" d="M663,223 l-297,514 33,18 296,-513 -32,-19z" />
<path style="fill:#7f7f7f" d="M778,325 l-513,296 18,33 514,-297 -19,-32z" />
<path style="fill:#7f7f7f" d="M827,471 l-593,0 0,37 593,0 0,-37z" />
<path style="fill:#7f7f7f" d="M265,357 l513,296 19,-32 -514,-296 -18,32z" />
<path style="fill:#7f7f7f" d="M366,242 l297,513 32,-18 -296,-514 -33,19z" />
<path style="fill:#7f7f7f" d="M512,193 l0,592 37,0 0,-592 -37,0z" />
<circle style="fill:#4c4c4c" cx="529" cy="485" r="276" />
<circle style="fill:#a6a6a6;stroke:#000;stroke-width:2" cx="529" cy="486" r="215" />
<path style="fill:#333" d="M648,322 l-32,-19 -204,354 32,18 204,-353z" />
<path style="fill:#333" d="M732,454 l-10,-35 -394,105 10,36 394,-106z" />
<path style="fill:#333" d="M697,607 l19,-32 -353,-204 -19,32 353,204z" />
<path style="fill:#333" d="M495,288 l-35,9 105,394 36,-10 -106,-393z" />
<circle style="fill:#666;stroke:#000;stroke-width:2" cx="529" cy="485" r="92" />
<path style="fill:none;stroke:#000;stroke-width:2" d="M611,443 l-161,93" />
<path style="fill:none;stroke:#000;stroke-width:2" d="M620,513 l-179,-48" />
<path style="fill:none;stroke:#000;stroke-width:2" d="M577,569 l-93,-160" />
<path style="fill:none;stroke:#000;stroke-width:2" d="M554,400 l-47,179" />
<path style="fill:#7fb2b2" d="M288,28 l-259,0 0,37 259,0 0,-37z" />
<path style="fill:#9cc" d="M251,28 l-185,0 0,37 185,0 0,-37z" />
<path style="fill:#b2e5e5" d="M195,28 l-74,0 0,37 74,0 0,-37z" />
<path style="fill:none;stroke:#000;stroke-width:2" d="M520,929 l87,-7 85,-23 78,-38 69,-52 56,-62 41,-71 26,-76 8,-81 -7,-79 -26,-77 -42,-71 -56,-63 -68,-51 -79,-37 -84,-24 -88,-7 -88,7 -85,24 -88,45 10,-122 20,0 0,-36 -261,0 0,36 15,-1 26,457 8,79 26,78 41,70 57,63 68,51 78,38 84,22 89,8" />
<path style="fill:none;stroke:#000;stroke-width:2" d="M269,63 l-226,0" />
<path style="fill:#4c4c4c;stroke:#000;stroke-width:2" d="M733,898 l-445,0 0,56 445,0 0,-56z" />

</svg>
