 

<svg xmlns:agg="http://www.example.com" xmlns="http://www.w3.org/2000/svg" preserveAspectRatio="none" width="1.6083in" height="0.7840in" viewBox="0 0 999 487">

<path style="fill:#000" d="M193,450 l306,0 0,9 -306,0 0,-9z" />
<path style="fill:#333" d="M28,135 l511,0 0,315 -511,0 0,-315z" />
<path style="fill:#3d3d3d" d="M28,152 l511,0 0,279 -511,0 0,-279z" />
<path style="fill:#454545" d="M28,169 l511,0 0,245 -511,0 0,-245z" />
<path style="fill:#4f4f4f" d="M28,186 l511,0 0,211 -511,0 0,-211z" />
<path style="fill:#595959" d="M28,203 l511,0 0,177 -511,0 0,-177z" />
<path style="fill:#636363" d="M28,220 l511,0 0,143 -511,0 0,-143z" />
<path style="fill:#6b6b6b" d="M28,239 l511,0 0,107 -511,0 0,-107z" />
<path style="fill:#757575" d="M28,256 l511,0 0,73 -511,0 0,-73z" />
<path style="fill:#7f7f7f" d="M28,273 l511,0 0,39 -511,0 0,-39z" />
<path style="fill:#7f7f7f" d="M539,154 l39,21 236,0 0,-21 19,0 0,275 -19,0 0,-19 -236,0 -39,19 0,-275z" />
<path style="fill:#333" d="M833,429 l0,-275 39,0 0,275 -39,0z" />
<path style="fill:#3d3d3d" d="M833,414 l0,-243 39,0 0,243 -39,0z" />
<path style="fill:#454545" d="M833,397 l0,-211 39,0 0,211 -39,0z" />
<path style="fill:#4f4f4f" d="M833,382 l0,-181 39,0 0,181 -39,0z" />
<path style="fill:#595959" d="M833,367 l0,-149 39,0 0,149 -39,0z" />
<path style="fill:#636363" d="M833,350 l0,-117 39,0 0,117 -39,0z" />
<path style="fill:#6b6b6b" d="M833,335 l0,-85 39,0 0,85 -39,0z" />
<path style="fill:#757575" d="M833,318 l0,-53 39,0 0,53 -39,0z" />
<path style="fill:#7f7f7f" d="M833,303 l0,-21 39,0 0,21 -39,0z" />
<path style="fill:none;stroke:#000;stroke-width:2" d="M833,429 l0,-275 39,0 0,275 -39,0" />
<path style="fill:#8a8a8a" d="M539,169 l39,17 236,0 0,-17 19,0 0,245 -19,0 0,-17 -236,0 -39,17 0,-245z" />
<path style="fill:#919191" d="M539,184 l39,15 236,0 0,-15 19,0 0,215 -19,0 0,-15 -236,0 -39,15 0,-215z" />
<path style="fill:#9c9c9c" d="M539,199 l39,13 236,0 0,-13 19,0 0,187 -19,0 0,-13 -236,0 -39,13 0,-187z" />
<path style="fill:#a6a6a6" d="M539,212 l39,12 236,0 0,-12 19,0 0,159 -19,0 0,-11 -236,0 -39,11 0,-159z" />
<path style="fill:#b0b0b0" d="M539,228 l39,9 236,0 0,-9 19,0 0,128 -19,0 0,-10 -236,0 -39,10 0,-128z" />
<path style="fill:#b8b8b8" d="M539,243 l39,7 236,0 0,-7 19,0 0,98 -19,0 0,-6 -236,0 -39,6 0,-98z" />
<path style="fill:#c2c2c2" d="M539,258 l39,3 236,0 0,-3 19,0 0,67 -19,0 0,-3 -236,0 -39,3 0,-67z" />
<path style="fill:#ccc" d="M539,273 l39,2 236,0 0,-2 19,0 0,39 -19,0 0,-4 -236,0 -39,4 0,-39z" />
<path style="fill:#333" d="M872,352 l0,-119 98,0 0,119 -98,0z" />
<path style="fill:#3d3d3d" d="M872,345 l0,-105 98,0 0,105 -98,0z" />
<path style="fill:#454545" d="M872,337 l0,-91 98,0 0,91 -98,0z" />
<path style="fill:#4f4f4f" d="M872,331 l0,-77 98,0 0,77 -98,0z" />
<path style="fill:#595959" d="M872,324 l0,-64 98,0 0,64 -98,0z" />
<path style="fill:#636363" d="M872,318 l0,-51 98,0 0,51 -98,0z" />
<path style="fill:#6b6b6b" d="M872,310 l0,-35 98,0 0,35 -98,0z" />
<path style="fill:#757575" d="M872,303 l0,-23 98,0 0,23 -98,0z" />
<path style="fill:#7f7f7f" d="M872,297 l0,-9 98,0 0,9 -98,0z" />
<path style="fill:none;stroke:#000;stroke-width:2" d="M872,352 l0,-119 98,0 0,119 -98,0" />
<path style="fill:#333;stroke:#000;stroke-width:2" d="M872,233 l0,-58 89,58 -89,0z" />
<path style="fill:#000;stroke:#000;stroke-width:2" d="M872,350 l0,60 89,-60 -89,0z" />
<path style="fill:#4c4c4c;stroke:#000;stroke-width:2" d="M872,322 l0,39 89,-39 -89,0z" />
<path style="fill:#191919;stroke:#000;stroke-width:2" d="M872,263 l0,-39 89,39 -89,0z" />
<path style="fill:none;stroke:#000;stroke-width:2" d="M961,352 l0,-119" />
<path style="fill:#e5e5e5" d="M480,135 l29,0 0,30 -29,0 0,-30z" />
<path style="fill:none;stroke:#000;stroke-width:2" d="M28,135 l511,0 0,315 -511,0 0,-315" />
<path style="fill:#333" d="M76,303 l157,0 0,156 -157,0 0,-156z" />
<path style="fill:none;stroke:#ccc;stroke-width:2" d="M76,459 l0,-156 157,0" />
<path style="fill:none;stroke:#000;stroke-width:2" d="M76,459 l157,0 0,-156" />
<path style="fill:#000" d="M293,450 l19,0 0,-49 -19,0 0,49z" />
<path style="fill:#e5e5e5" d="M342,282 l99,0 0,157 -99,0 0,-157z" />
<path style="fill:#dedede" d="M342,390 l99,0 0,49 -99,0 0,-49z" />
<path style="fill:#d6d6d6" d="M342,420 l99,0 0,19 -99,0 0,-19z" />
<path style="fill:none;stroke:#fff;stroke-width:2" d="M342,282 l99,0" />
<path style="fill:none;stroke:#000;stroke-width:2" d="M67,135 l0,315" />
<path style="fill:none;stroke:#000;stroke-width:2" d="M814,410 l0,-235" />
<path style="fill:#333" d="M107,46 l235,0 0,89 -235,0 0,-89z" />
<path style="fill:#454545" d="M107,46 l235,0 0,40 -235,0 0,-40z" />
<path style="fill:#595959" d="M107,46 l235,0 0,30 -235,0 0,-30z" />
<path style="fill:#6b6b6b" d="M107,46 l235,0 0,19 -235,0 0,-19z" />
<path style="fill:#7f7f7f" d="M107,46 l235,0 0,10 -235,0 0,-10z" />
<path style="fill:none;stroke:#000;stroke-width:2" d="M107,46 l235,0 0,89 -235,0 0,-89" />
<path style="fill:#333" d="M165,28 l19,0 0,107 -19,0 0,-107z" />
<path style="fill:#454545" d="M165,28 l19,0 0,47 -19,0 0,-47z" />
<path style="fill:#595959" d="M165,28 l19,0 0,35 -19,0 0,-35z" />
<path style="fill:#6b6b6b" d="M165,28 l19,0 0,24 -19,0 0,-24z" />
<path style="fill:#7f7f7f" d="M165,28 l19,0 0,13 -19,0 0,-13z" />
<path style="fill:none;stroke:#000;stroke-width:2" d="M165,28 l19,0 0,107 -19,0 0,-107" />
<path style="fill:none;stroke:#000;stroke-width:2" d="M578,410 l0,-235" />
<path style="fill:#ccc;stroke:#f00;stroke-width:2" d="M597,175 l79,0 0,58 -79,0 0,-58z" />
<path style="fill:none;stroke:#000;stroke-width:2" d="M539,154 l39,21 236,0 0,-21 19,0 0,275 -19,0 0,-19 -236,0 -39,19 0,-275" />

</svg>
