 

<svg xmlns:agg="http://www.example.com" xmlns="http://www.w3.org/2000/svg" preserveAspectRatio="none" width="1.5701in" height="1.0750in" viewBox="0 0 999 684">

<path style="fill:#f0f0f0;stroke:#000;stroke-width:2" d="M721,563 l-518,0 0,15 518,0 0,-15z" />
<path style="fill:#f0f0f0;stroke:#000;stroke-width:2" d="M669,206 l22,0 0,320 -22,0 0,-320z" />
<path style="fill:#f0f0f0;stroke:#000;stroke-width:2" d="M147,530 l0,-327 -76,0 -17,3 -13,8 -11,11 -2,15 0,254 2,13 11,13 13,6 17,4 76,0z" />
<path style="fill:#f0f0f0;stroke:#000;stroke-width:2" d="M669,218 l-522,0 0,295 522,0 0,-295z" />
<path style="fill:#f0f0f0;stroke:#000;stroke-width:2" d="M717,232 l-26,-26 0,320 26,-24 0,-270z" />
<path style="fill:#f0f0f0;stroke:#000;stroke-width:2" d="M791,232 l0,268 -74,0 0,-268 74,0z" />
<path style="fill:#f0f0f0;stroke:#000;stroke-width:2" d="M791,206 l34,0 0,320 -34,0 0,-320z" />
<path style="fill:#f0f0f0;stroke:#000;stroke-width:2" d="M825,500 l0,-268 71,0 14,4 11,8 6,18 2,17 0,173 -2,20 -6,15 -11,11 -14,2 -71,0z" />
<path style="fill:#f0f0f0;stroke:#000;stroke-width:2" d="M951,383 l0,-35 2,0 6,0 7,5 2,6 2,7 -2,6 -2,7 -7,4 -6,0 -2,0z" />
<path style="fill:#fff" d="M714,233 l-23,-23 0,54 23,6 0,-37z" />
<path style="fill:#fff" d="M788,233 l0,68 -69,0 0,-68 69,0z" />
<path style="fill:#fff" d="M792,210 l29,0 0,56 -29,0 0,-56z" />
<path style="fill:#fff" d="M73,229 l72,0 0,-23 -74,0 -11,1 -10,3 -9,6 -7,7 9,4 30,2z" />
<path style="fill:#fff" d="M669,223 l-522,0 0,19 522,0 0,-19z" />
<path style="fill:#fff" d="M671,210 l17,0 0,43 -17,0 0,-43z" />
<path style="fill:#000" d="M773,238 l-11,6 -13,7 -13,8 -13,9 2,5 3,2 12,-9 14,-8 12,-7 14,-7 -3,-2 -4,-4z" />
<path style="fill:#000" d="M773,255 l-11,7 -13,8 -13,9 -13,9 2,4 3,4 12,-11 14,-8 12,-7 14,-6 -3,-5 -4,-4z" />
<path style="fill:#000" d="M773,273 l-11,8 -13,9 -13,9 -13,8 2,4 3,3 12,-9 14,-9 12,-8 14,-7 -3,-4 -4,-4z" />
<path style="fill:#000" d="M730,498 l13,-4 13,-9 13,-7 13,-10 -5,-3 -2,-4 -13,9 -13,8 -13,7 -13,6 5,5 2,2z" />
<path style="fill:#000" d="M730,481 l13,-7 13,-9 13,-8 13,-9 -5,-4 -2,-2 -13,8 -13,9 -13,6 -13,7 5,4 2,5z" />
<path style="fill:#000" d="M730,463 l13,-8 13,-7 13,-11 13,-8 -5,-3 -2,-4 -13,9 -13,8 -13,9 -13,7 5,4 2,4z" />
<path style="fill:#000" d="M264,576 l-52,0 0,56 1,5 1,4 2,4 3,4 4,3 5,2 4,1 6,1 5,-1 5,-1 4,-2 4,-3 3,-4 3,-4 1,-4 1,-5 0,-56z" />
<path style="fill:#000" d="M699,576 l-49,0 0,56 0,5 2,4 2,4 3,4 3,3 4,2 5,1 4,1 3,0 4,-1 5,-1 4,-2 3,-3 3,-4 2,-4 2,-4 0,-5 0,-56z" />
<path style="fill:#000" d="M673,556 l0,3 3,0 0,-3 6,5 -15,0 6,-5z" />
<path style="fill:#000" d="M236,556 l0,3 2,0 0,-3 9,5 -18,0 7,-5z" />
<path style="fill:#7f7f7f" d="M669,496 l22,0 0,30 -22,0 0,-30z" />
<path style="fill:#7f7f7f" d="M929,398 l22,0 0,9 -22,0 0,-9z" />
<path style="fill:#7f7f7f" d="M929,463 l-11,11 -13,9 -9,4 -71,0 0,13 71,0 11,-2 11,-9 7,-11 4,-15z" />
<path style="fill:#7f7f7f" d="M791,507 l34,0 0,19 -34,0 0,-19z" />
<path style="fill:#7f7f7f" d="M713,487 l78,0 0,13 -78,0 0,-13z" />
<path style="fill:#7f7f7f" d="M28,478 l11,18 12,11 20,8 76,0 0,15 -76,0 -17,-4 -13,-6 -11,-13 -2,-13 0,-16z" />
<path style="fill:#7f7f7f" d="M669,498 l-522,0 0,15 522,0 0,-15z" />
<path style="fill:#7f7f7f" d="M543,563 l-337,0 0,-50 337,0 0,50z" />
<path style="fill:#7f7f7f" d="M875,28 l-32,4 32,4 32,-4 -32,-4z" />
<path style="fill:#f0f0f0;stroke:#000;stroke-width:2" d="M899,337 l-9,9 -15,2 -17,-2 -7,-9 -8,-305 64,0 -8,305z" />
<path style="fill:#fff" d="M892,36 l-8,0 -5,312 7,0 6,-312z" />
<path style="fill:#ccc" d="M951,383 l0,-13 4,-2 7,0 4,-4 4,-3 0,5 -2,6 -2,7 -7,4 -6,0 -2,0z" />
<path style="fill:#ccc" d="M858,346 l-5,-314 -10,0 8,305 7,9z" />
<path style="fill:#ccc" d="M929,325 l22,0 0,82 -22,0 0,-82z" />

</svg>
