 

<svg xmlns:agg="http://www.example.com" xmlns="http://www.w3.org/2000/svg" preserveAspectRatio="none" width="1.6083in" height="0.9676in" viewBox="0 0 999 601">

<ellipse style="fill:#00f;stroke:#000;stroke-width:2" cx="908" cy="287" rx="62" ry="99" />
<path style="fill:#00c;stroke:#000;stroke-width:2" d="M375,375 l0,-6 0,-5 0,-6 0,-157 -9,-26 -16,-22 -19,-21 -3,-4 -2,-2 -198,0 0,322 6,0 6,0 186,0 20,-22 16,-20 12,-27 1,-4z" />
<path style="fill:#00c;stroke:#000;stroke-width:2" d="M188,448 l-49,0 0,76 49,0 0,-76z" />
<path style="fill:#00c;stroke:#000;stroke-width:2" d="M312,448 l-49,0 0,76 49,0 0,-76z" />
<path style="fill:#00c;stroke:#000;stroke-width:2" d="M735,361 l-49,0 0,163 49,0 0,-163z" />
<path style="fill:#00c;stroke:#000;stroke-width:2" d="M933,52 l-49,0 0,472 49,0 0,-472z" />
<path style="fill:#00c;stroke:#000;stroke-width:2" d="M461,437 l-24,0 0,87 24,0 0,-87z" />
<path style="fill:#00c" d="M128,150 l-4,0 -3,0 -3,0 -39,0 -13,1 -11,2 -9,3 -7,5 -5,7 -4,9 -2,11 0,6 0,7 0,4 0,170 0,13 2,10 4,9 8,9 7,4 10,2 11,1 7,1 5,0 40,0 6,0 0,-9 0,-265z" />
<path style="fill:#00c;stroke:#000;stroke-width:2" d="M623,275 l-248,0 0,162 248,0 0,-162z" />
<path style="fill:#00f;stroke:#000;stroke-width:2" d="M784,212 l-161,0 0,149 161,0 0,-149z" />
<path style="fill:#4c4cff;stroke:#000;stroke-width:2" d="M970,573 l0,-49 -942,0 0,49 942,0z" />
<path style="fill:#4c4cff;stroke:#000;stroke-width:2" d="M970,28 l-124,0 0,24 124,0 0,-24z" />
<path style="fill:#4c4cff;stroke:#000;stroke-width:2" d="M946,150 l-76,0 0,274 76,0 0,-274z" />
<path style="fill:#00f" d="M128,182 l-4,0 -3,0 -3,0 -39,0 -13,1 -11,1 -9,3 -10,6 -6,9 -2,13 0,5 0,3 0,131 0,10 4,11 7,8 10,6 10,1 11,1 7,1 5,0 40,0 6,0 0,-7 0,-203z" />
<path style="fill:#4c4cff" d="M128,235 l-4,0 -3,0 -3,0 -46,0 -12,0 -10,1 -11,3 -9,6 -2,6 0,3 0,3 0,63 2,9 9,6 10,2 10,1 5,1 6,0 7,0 45,0 6,0 0,-3 0,-101z" />
<path style="fill:none;stroke:#000;stroke-width:2" d="M128,150 l-4,0 -3,0 -3,0 -39,0 -13,1 -11,2 -9,3 -7,5 -5,7 -4,9 -2,11 0,6 0,7 0,4 0,170 0,13 2,10 4,9 8,9 7,4 10,2 11,1 7,1 5,0 40,0 6,0 0,-9 0,-265" />
<path style="fill:#4c4cff;stroke:#000;stroke-width:2" d="M623,201 l-248,0 0,74 248,0 0,-74z" />
<path style="fill:#00f;stroke:#000;stroke-width:2" d="M128,454 l216,0 0,-17 -216,0 0,17z" />
<path style="fill:#00f;stroke:#000;stroke-width:2" d="M128,429 l235,0 0,-19 -235,0 0,19z" />
<path style="fill:#00f;stroke:#000;stroke-width:2" d="M128,294 l260,0 0,13 -260,0 0,-13z" />
<path style="fill:#00f;stroke:#000;stroke-width:2" d="M128,269 l260,0 0,11 -260,0 0,-11z" />
<path style="fill:#00f;stroke:#000;stroke-width:2" d="M128,243 l260,0 0,13 -260,0 0,-13z" />
<path style="fill:#00f;stroke:#000;stroke-width:2" d="M128,218 l254,0 0,13 -254,0 0,-13z" />
<path style="fill:#00f;stroke:#000;stroke-width:2" d="M128,194 l254,0 0,13 -254,0 0,-13z" />
<path style="fill:#00f;stroke:#000;stroke-width:2" d="M128,169 l247,0 0,13 -247,0 0,-13z" />
<path style="fill:#00f;stroke:#000;stroke-width:2" d="M128,318 l260,0 0,13 -260,0 0,-13z" />
<path style="fill:#00f;stroke:#000;stroke-width:2" d="M128,343 l254,0 0,13 -254,0 0,-13z" />
<path style="fill:#00f;stroke:#000;stroke-width:2" d="M128,367 l254,0 0,13 -254,0 0,-13z" />
<path style="fill:#00f;stroke:#000;stroke-width:2" d="M128,392 l247,0 0,13 -247,0 0,-13z" />
<path style="fill:#00f;stroke:#000;stroke-width:2" d="M128,145 l235,0 0,18 -235,0 0,-18z" />
<path style="fill:#00f;stroke:#000;stroke-width:2" d="M128,120 l216,0 0,19 -216,0 0,-19z" />
<path style="fill:#00c" d="M778,312 l-149,0 0,44 149,0 0,-44z" />
<path style="fill:#4c4cff" d="M778,226 l-149,0 0,24 149,0 0,-24z" />
<path style="fill:#00f;stroke:#000;stroke-width:2" d="M884,386 l0,-25 -74,0 0,-149 74,0 0,-24 -100,0 0,198 100,0z" />

</svg>
