 

<svg xmlns:agg="http://www.example.com" xmlns="http://www.w3.org/2000/svg" preserveAspectRatio="none" width="1.0750in" height="1.0750in" viewBox="0 0 999 999">

<path style="fill:#999;stroke:#000;stroke-width:2" d="M912,459 l-805,0 0,432 805,0 0,-432z" />
<path style="fill:#bfbfbf;stroke:#000;stroke-width:2" d="M733,86 l-274,157 157,273 273,-156 -156,-274z" />
<path style="fill:#d9d9d9;stroke:#000;stroke-width:2" d="M499,107 l0,-79 -392,0 0,235 0,236 2,40 6,39 10,38 13,36 16,34 20,32 22,30 26,28 28,26 30,22 32,20 34,16 36,13 38,10 39,6 20,1 20,1 20,-1 40,-3 38,-8 37,-12 35,-15 33,-18 32,-21 29,-24 26,-26 24,-29 21,-32 18,-33 15,-35 12,-37 8,-38 3,-40 1,-20 0,-10 -2,-30 -4,-29 -6,-29 -8,-28 -11,-27 -12,-26 -13,-25 -16,-23 -17,-22 -19,-21 -21,-20 -21,-18 -23,-17 -25,-15 -25,-14 -26,-11 -27,-9 -28,-8 -29,-6 -29,-3 -30,-1z" />
<path style="fill:#999;stroke:#000;stroke-width:2" d="M951,912 l-904,0 0,39 904,0 0,-39z" />
<path style="fill:#ccc;stroke:#000;stroke-width:2" d="M793,695 l-588,0 0,21 588,0 0,-21z" />
<path style="fill:#bfbfbf;stroke:#000;stroke-width:2" d="M853,853 l-708,0 0,38 708,0 0,-38z" />
<circle style="fill:#b2b2b2;stroke:#7f7f7f;stroke-width:2" cx="496" cy="418" r="277" />
<circle style="fill:#a6a6a6" cx="496" cy="418" r="247" />
<circle style="fill:#999" cx="496" cy="417" r="218" />
<circle style="fill:#8c8c8c" cx="496" cy="418" r="189" />
<circle style="fill:#7f7f7f" cx="496" cy="418" r="159" />
<circle style="fill:#bfbfbf;stroke:#000;stroke-width:2" cx="499" cy="419" r="138" />
<path style="fill:none;stroke:#000;stroke-width:2" d="M591,518 l-186,0" />
<path style="fill:none;stroke:#000;stroke-width:2" d="M631,388 l-264,0" />
<path style="fill:none;stroke:#000;stroke-width:2" d="M631,454 l-264,0" />
<path style="fill:none;stroke:#000;stroke-width:2" d="M591,324 l-186,0" />
<path style="fill:#999" d="M795,714 l-592,0 0,21 592,0 0,-21z" />
<path style="fill:#999" d="M497,126 l-273,0 0,21 273,0 0,-21z" />
<path style="fill:#ccc;stroke:#000;stroke-width:2" d="M497,105 l-273,0 0,21 273,0 0,-21z" />
<path style="fill:#ccc;stroke:#000;stroke-width:2" d="M518,28 l-432,0 0,21 432,0 0,-21z" />
<path style="fill:#ccc;stroke:#000;stroke-width:2" d="M970,949 l-942,0 0,21 942,0 0,-21z" />
<path style="fill:#ccc;stroke:#000;stroke-width:2" d="M970,893 l-942,0 0,17 942,0 0,-17z" />
<path style="fill:#ccc;stroke:#000;stroke-width:2" d="M893,893 l-119,-669 -39,0 98,669 60,0z" />
<path style="fill:#ccc;stroke:#000;stroke-width:2" d="M105,893 l119,-767 39,0 -98,767 -60,0z" />
<path style="fill:#4c4c4c" d="M765,282 l5,-2 4,-7 -4,-8 -5,-2 -8,2 -4,8 4,7 8,2z" />
<path style="fill:#4c4c4c" d="M774,346 l8,-2 2,-7 -2,-8 -8,-2 -7,2 -2,8 2,7 7,2z" />
<path style="fill:#4c4c4c" d="M789,425 l6,-3 4,-6 -4,-7 -6,-2 -7,2 -2,7 2,6 7,3z" />
<path style="fill:#4c4c4c" d="M799,505 l7,-4 2,-8 -2,-5 -7,-4 -8,4 -2,5 2,8 8,4z" />
<path style="fill:#4c4c4c" d="M814,578 l5,-4 4,-5 -4,-8 -5,-4 -8,4 -2,8 2,5 8,4z" />
<path style="fill:#4c4c4c" d="M829,655 l6,-1 3,-8 -3,-6 -6,-3 -8,3 -3,6 3,8 8,1z" />
<path style="fill:#4c4c4c" d="M842,735 l8,-2 3,-8 -3,-7 -8,-2 -6,2 -3,7 3,8 6,2z" />
<path style="fill:#4c4c4c" d="M735,735 l7,-4 2,-6 -2,-7 -7,-2 -8,2 -2,7 2,6 8,4z" />
<path style="fill:#4c4c4c" d="M655,735 l8,-2 4,-8 -4,-7 -8,-2 -5,2 -4,7 4,8 5,2z" />
<path style="fill:#4c4c4c" d="M578,735 l6,-4 4,-6 -4,-7 -6,-2 -7,2 -2,7 2,6 7,4z" />
<path style="fill:#4c4c4c" d="M499,735 l8,-4 1,-6 -1,-7 -8,-2 -8,2 -1,7 1,6 8,4z" />
<path style="fill:#4c4c4c" d="M420,735 l7,-4 2,-6 -2,-7 -7,-2 -6,2 -4,7 4,6 6,4z" />
<path style="fill:#4c4c4c" d="M263,735 l8,-4 2,-6 -2,-7 -8,-2 -7,2 -2,7 2,6 7,4z" />
<path style="fill:#4c4c4c" d="M343,735 l5,-4 4,-6 -4,-7 -5,-2 -8,2 -4,7 4,6 8,4z" />
<path style="fill:#4c4c4c" d="M735,887 l7,-3 2,-6 -2,-8 -7,-3 -8,3 -2,8 2,6 8,3z" />
<path style="fill:#4c4c4c" d="M499,887 l8,-3 1,-6 -1,-8 -8,-3 -8,3 -1,8 1,6 8,3z" />
<path style="fill:#4c4c4c" d="M263,887 l8,-3 2,-6 -2,-8 -8,-3 -7,3 -2,8 2,6 7,3z" />

</svg>
