 

<svg xmlns:agg="http://www.example.com" xmlns="http://www.w3.org/2000/svg" preserveAspectRatio="none" width="0.4330in" height="1.0750in" viewBox="0 0 402 998">

<path style="fill:#4c4c4c;stroke:#000;stroke-width:2" d="M282,151 l23,0 0,105 -23,0 0,-105z" />
<path style="fill:#7f7f7f" d="M175,770 l0,-63 49,0 0,45 17,0 0,45 -40,0 -26,-27z" />
<path style="fill:#7f7f7f" d="M260,811 l-19,0 0,-73 19,0 0,73z" />
<path style="fill:#999" d="M178,768 l0,-62 41,0 0,47 3,4 19,0 0,37 -38,0 -25,-26z" />
<path style="fill:#999" d="M260,805 l-19,0 0,-61 19,0 0,61z" />
<path style="fill:#b2b2b2" d="M183,767 l0,-61 31,0 0,49 4,7 23,0 0,27 -35,0 -23,-22z" />
<path style="fill:#b2b2b2" d="M260,797 l-19,0 0,-45 19,0 0,45z" />
<path style="fill:#ccc" d="M188,764 l0,-58 21,0 0,51 8,8 24,0 0,19 -33,0 -20,-20z" />
<path style="fill:#ccc" d="M260,791 l-19,0 0,-33 19,0 0,33z" />
<path style="fill:#e5e5e5" d="M193,763 l0,-56 11,0 0,51 10,12 27,0 0,10 -32,0 -16,-17z" />
<path style="fill:#e5e5e5" d="M260,784 l-19,0 0,-19 19,0 0,19z" />
<path style="fill:#7f7f7f" d="M32,608 l19,0 0,12 69,0 0,49 -69,0 0,14 -19,0 0,-75z" />
<path style="fill:#999" d="M32,614 l19,0 0,11 71,0 0,39 -71,0 0,11 -19,0 0,-61z" />
<path style="fill:#b2b2b2" d="M32,621 l19,0 0,9 71,0 0,31 -71,0 0,7 -19,0 0,-47z" />
<path style="fill:#ccc" d="M32,628 l19,0 0,5 71,0 0,21 -71,0 0,8 -19,0 0,-34z" />
<path style="fill:#e5e5e5" d="M32,635 l19,0 0,5 69,0 0,11 -69,0 0,3 -19,0 0,-19z" />
<path style="fill:none;stroke:#000;stroke-width:2" d="M32,608 l19,0 0,12 69,0 0,49 -69,0 0,14 -19,0 0,-75" />
<path style="fill:#333" d="M123,706 l-82,255 319,0 -82,-255 -27,0 77,251 -251,0 73,-251 -27,0z" />
<path style="fill:#4c4c4c" d="M155,561 l91,0 0,32 -91,0 0,-32z" />
<path style="fill:#999;stroke:#000;stroke-width:2" d="M146,346 l109,0 0,-9 -109,0 0,9z" />
<path style="fill:#999;stroke:#000;stroke-width:2" d="M155,346 l91,0 0,215 -91,0 0,-215z" />
<path style="fill:#7f7f7f" d="M146,337 l-18,-13 0,-22 -9,-19 0,-145 9,-19 0,-81 8,-10 129,0 8,10 0,81 9,19 0,145 -9,19 0,22 -18,13 -109,0z" />
<path style="fill:#666" d="M119,283 l0,-145 163,0 0,145 -163,0z" />
<path style="fill:#ccc" d="M241,119 l9,19 0,145 -9,17 0,33 -2,0 0,-33 9,-17 0,-145 -9,-19 2,0z" />
<path style="fill:#ccc" d="M230,119 l6,19 0,145 -6,17 0,33 -2,0 0,-33 6,-17 0,-145 -6,-19 2,0z" />
<path style="fill:#ccc" d="M218,119 l4,19 0,145 -4,17 0,33 -1,0 0,-33 5,-17 0,-145 -5,-19 1,0z" />
<path style="fill:#ccc" d="M172,119 l-6,19 0,145 6,17 0,33 3,0 0,-33 -6,-17 0,-145 6,-19 -3,0z" />
<path style="fill:#ccc" d="M160,119 l-9,19 0,145 9,17 0,33 4,0 0,-33 -9,-17 0,-145 9,-19 -4,0z" />
<path style="fill:#fff;stroke:#fff;stroke-width:2" d="M207,119 l1,19 0,145 -1,17 0,33 0,-33 1,-17 0,-145 -1,-19z" />
<path style="fill:#fff;stroke:#fff;stroke-width:2" d="M196,119 l-2,19 0,145 2,17 0,33 0,-33 -2,-17 0,-145 2,-19z" />
<path style="fill:#fff;stroke:#fff;stroke-width:2" d="M183,119 l-3,19 0,145 3,17 0,33 2,0 0,-33 -4,-17 0,-145 4,-19 -2,0z" />
<path style="fill:#b2b2b2" d="M265,119 l13,19 0,145 -13,19 0,32 -5,0 0,-32 13,-19 0,-145 -13,-19 5,0z" />
<path style="fill:#b2b2b2" d="M254,119 l11,19 0,145 -11,17 0,33 -4,0 0,-33 11,-17 0,-145 -11,-19 4,0z" />
<path style="fill:#b2b2b2" d="M136,119 l-13,19 0,145 13,19 0,32 5,0 0,-32 -13,-19 0,-145 13,-19 -5,0z" />
<path style="fill:#b2b2b2" d="M149,119 l-11,19 0,145 11,17 0,33 3,0 0,-33 -11,-17 0,-145 11,-19 -3,0z" />
<path style="fill:#919191" d="M144,119 l0,-82 7,-9 100,0 6,9 0,82 -113,0z" />
<path style="fill:#a6a6a6" d="M160,119 l0,-82 5,-9 71,0 5,9 0,82 -81,0z" />
<path style="fill:#b8b8b8" d="M176,119 l0,-82 4,-9 43,0 4,9 0,82 -51,0z" />
<path style="fill:#ccc" d="M192,119 l0,-81 1,-10 15,0 1,10 0,81 -17,0z" />
<path style="fill:none;stroke:#000;stroke-width:2" d="M146,337 l-18,-13 0,-22 -9,-19 0,-145 9,-19 0,-81 8,-10 129,0 8,10 0,81 9,19 0,145 -9,19 0,22 -18,13 -109,0" />
<path style="fill:#7f7f7f" d="M192,561 l0,-124 -19,0 0,-35 19,0 0,-14 -10,0 0,-14 10,0 0,-23 17,0 0,23 10,0 0,14 -10,0 0,14 19,0 0,35 -19,0 0,124 -17,0z" />
<path style="fill:#b2b2b2" d="M160,442 l81,0 0,4 -81,0 0,-4z" />
<path style="fill:#b2b2b2" d="M160,451 l81,0 0,5 -81,0 0,-5z" />
<path style="fill:#b2b2b2" d="M160,552 l81,0 0,4 -81,0 0,-4z" />
<path style="fill:#b2b2b2" d="M160,351 l81,0 0,5 -81,0 0,-5z" />
<path style="fill:#b2b2b2" d="M173,442 l0,-86 4,0 0,86 -4,0z" />
<path style="fill:#b2b2b2" d="M233,442 l0,-86 5,0 0,86 -5,0z" />
<path style="fill:#b2b2b2" d="M219,552 l0,-96 4,0 0,96 -4,0z" />
<path style="fill:#b2b2b2" d="M160,456 l4,0 0,96 -4,0 0,-96z" />
<path style="fill:#7f7f7f;stroke:#000;stroke-width:2" d="M233,561 l13,0 0,32 -13,0 0,-32z" />
<path style="fill:#7f7f7f;stroke:#000;stroke-width:2" d="M210,561 l13,0 0,32 -13,0 0,-32z" />
<path style="fill:#7f7f7f;stroke:#000;stroke-width:2" d="M178,561 l14,0 0,32 -14,0 0,-32z" />
<path style="fill:#7f7f7f;stroke:#000;stroke-width:2" d="M155,561 l14,0 0,32 -14,0 0,-32z" />
<path style="fill:#7f7f7f" d="M109,698 l0,-19 10,0 0,-68 -10,0 0,-18 183,0 0,18 -10,0 0,68 10,0 0,19 -183,0z" />
<path style="fill:#949494" d="M125,696 l0,-17 8,0 0,-68 -8,0 0,-18 151,0 0,18 -8,0 0,68 8,0 0,17 -151,0z" />
<path style="fill:#a8a8a8" d="M140,696 l0,-17 8,0 0,-68 -8,0 0,-18 121,0 0,18 -6,0 0,68 6,0 0,17 -121,0z" />
<path style="fill:#bdbdbd" d="M156,696 l0,-17 5,0 0,-68 -5,0 0,-18 89,0 0,18 -4,0 0,68 4,0 0,17 -89,0z" />
<path style="fill:#d1d1d1" d="M172,696 l0,-17 3,0 0,-68 -3,0 0,-18 58,0 0,18 -3,0 0,68 3,0 0,17 -58,0z" />
<path style="fill:#e5e5e5" d="M187,698 l0,-19 1,0 0,-68 -1,0 0,-18 27,0 0,18 -1,0 0,68 1,0 0,19 -27,0z" />
<path style="fill:none;stroke:#000;stroke-width:2" d="M109,698 l0,-19 10,0 0,-68 -10,0 0,-18 183,0 0,18 -10,0 0,68 10,0 0,19 -183,0" />
<path style="fill:#7f7f7f;stroke:#000;stroke-width:2" d="M109,698 l183,0 0,8 -183,0 0,-8z" />
<path style="fill:#7f7f7f;stroke:#000;stroke-width:2" d="M109,706 l-81,264 345,0 -81,-264 -27,0 76,259 -277,0 72,-259 -27,0z" />
<path style="fill:none;stroke:#000;stroke-width:2" d="M119,611 l163,0" />
<path style="fill:none;stroke:#000;stroke-width:2" d="M282,679 l-163,0" />
<path style="fill:none;stroke:#000;stroke-width:2" d="M51,669 l0,-48" />
<path style="fill:none;stroke:#000;stroke-width:2" d="M260,811 l-19,0 0,-73 19,0 0,73" />
<path style="fill:none;stroke:#000;stroke-width:2" d="M175,770 l0,-63 49,0 0,45 17,0 0,45 -40,0 -26,-27" />
<path style="fill:#ccc" d="M282,201 l23,0 0,5 -23,0 0,-5z" />
<path style="fill:#ccc" d="M305,151 l5,0 0,105 -5,0 0,-105z" />
<path style="fill:#4c4c4c;stroke:#000;stroke-width:2" d="M96,183 l41,0 0,59 -41,0 0,-59z" />

</svg>
