 

<svg xmlns:agg="http://www.example.com" xmlns="http://www.w3.org/2000/svg" preserveAspectRatio="none" width="0.7360in" height="1.0750in" viewBox="0 0 684 999">

<path style="fill:#699;stroke:#000;stroke-width:2" d="M28,656 l628,0 0,56 -628,0 0,-56z" />
<path style="fill:#194c4c;stroke:#000;stroke-width:2" d="M142,571 l86,0 0,-85 228,0 0,85 86,0 0,229 -86,0 0,114 -85,-44 0,-43 -58,0 0,43 -85,44 0,-114 -86,0 0,-229z" />
<path style="fill:#194c4c" d="M57,512 l85,0 0,344 -85,0 0,-344z" />
<path style="fill:#366" d="M57,538 l85,0 0,295 -85,0 0,-295z" />
<path style="fill:#4c7f7f" d="M57,569 l85,0 0,233 -85,0 0,-233z" />
<path style="fill:#699" d="M57,600 l85,0 0,170 -85,0 0,-170z" />
<path style="fill:#7fb2b2" d="M57,646 l85,0 0,77 -85,0 0,-77z" />
<path style="fill:none;stroke:#000;stroke-width:2" d="M57,512 l85,0 0,344 -85,0 0,-344" />
<path style="fill:#194c4c" d="M542,512 l85,0 0,344 -85,0 0,-344z" />
<path style="fill:#366" d="M542,538 l85,0 0,295 -85,0 0,-295z" />
<path style="fill:#4c7f7f" d="M542,569 l85,0 0,233 -85,0 0,-233z" />
<path style="fill:#699" d="M542,600 l85,0 0,170 -85,0 0,-170z" />
<path style="fill:#7fb2b2" d="M542,646 l85,0 0,77 -85,0 0,-77z" />
<path style="fill:none;stroke:#000;stroke-width:2" d="M542,512 l85,0 0,344 -85,0 0,-344" />
<path style="fill:none;stroke:#000;stroke-width:2" d="M98,512 l0,344" />
<path style="fill:none;stroke:#000;stroke-width:2" d="M585,512 l0,344" />
<path style="fill:#194c4c" d="M512,400 l0,86 -341,0 0,-86 341,0z" />
<path style="fill:#366" d="M490,400 l0,86 -296,0 0,-86 296,0z" />
<path style="fill:#4c7f7f" d="M458,400 l0,86 -233,0 0,-86 233,0z" />
<path style="fill:#699" d="M427,400 l0,86 -170,0 0,-86 170,0z" />
<path style="fill:#7fb2b2" d="M381,400 l0,86 -79,0 0,-86 79,0z" />
<path style="fill:none;stroke:#000;stroke-width:2" d="M512,400 l0,86 -341,0 0,-86 341,0" />
<path style="fill:none;stroke:#000;stroke-width:2" d="M512,442 l-341,0" />
<path style="fill:#366;stroke:#000;stroke-width:2" d="M113,970 l0,-70 458,0 0,70 -15,0 -14,-43 -400,0 -14,43 -15,0z" />
<ellipse style="fill:#699;stroke:#000;stroke-width:2" cx="341" cy="684" rx="170" ry="172" />
<path style="fill:none;stroke:#fff;stroke-width:2" d="M427,598 l8,9 7,10 6,10 5,11 4,11 3,12 2,12 0,6 1,6 -1,7 -1,12 -2,11 -4,12 -4,11 -6,10 -6,9 -8,9 -8,8 -9,8 -10,6 -10,6 -11,5 -11,3 -12,2 -12,2 -6,0 -6,0 -12,-1 -11,-3 -11,-3 -11,-5 -11,-5 -10,-7 -9,-7 -4,-5" />
<path style="fill:none;stroke:#000;stroke-width:2" d="M257,770 l-9,-8 -7,-10 -6,-10 -5,-11 -4,-11 -2,-11 -2,-12 -1,-6 0,-6 0,-6 2,-12 2,-12 4,-12 4,-11 6,-10 6,-10 8,-9 8,-8 9,-8 9,-7 11,-5 10,-5 12,-4 12,-2 12,-1 6,-1 6,1 12,1 11,2 12,4 11,5 10,5 10,7 9,7 4,4" />
<path style="fill:none;stroke:#fff;stroke-width:2" d="M334,843 l-2,-1 -1,-1 -1,-1 -1,-2 -1,-2 0,-2 0,-2 -1,-1 1,-4 1,-4 2,-3 2,-2 3,-3 3,-1 3,-2 4,0 2,0 1,0 2,1 1,1 2,1 1,1 2,1 2,1" />
<path style="fill:none;stroke:#000;stroke-width:2" d="M359,818 l0,2 1,1 1,2 0,2 1,1 0,2 0,1 1,2 -1,4 0,3 -2,3 -2,3 -2,2 -3,2 -3,1 -4,1 -2,-1 -1,0 -2,0 -2,-1 -2,-1 -1,-1 -1,-1 -1,-2" />
<path style="fill:none;stroke:#fff;stroke-width:2" d="M325,550 l0,-1 -1,-1 -1,-1 -1,-2 0,-1 -1,-2 0,-2 0,-2 0,-3 2,-4 1,-2 2,-3 3,-2 3,-2 3,-1 3,0 2,0 2,0 2,1 2,0 1,1 1,0 1,1 1,1" />
<path style="fill:none;stroke:#000;stroke-width:2" d="M350,525 l2,2 1,1 1,2 1,1 1,2 0,1 0,2 0,2 0,3 -1,4 -2,3 -2,3 -3,2 -3,2 -3,1 -4,0 -2,0 -1,0 -2,-1 -1,0 -2,-1 -1,-1 -2,-2 -2,-1" />
<path style="fill:none;stroke:#fff;stroke-width:2" d="M184,700 l-2,-1 -1,-1 -1,-1 -1,-2 -1,-2 0,-1 0,-2 0,-3 0,-3 1,-3 2,-3 2,-2 3,-2 3,-2 3,-1 4,0 2,0 1,0 2,0 1,1 2,1 2,0 1,1 2,1" />
<path style="fill:none;stroke:#000;stroke-width:2" d="M209,675 l0,1 1,2 1,2 1,1 0,2 1,1 0,2 0,1 0,4 -1,4 -2,3 -2,3 -3,2 -3,2 -3,1 -3,0 -1,0 -2,0 -2,-1 -2,-1 -1,0 -2,-1 -1,-2 -1,-1" />
<path style="fill:none;stroke:#fff;stroke-width:2" d="M475,694 l-1,-2 0,-2 -1,-1 -1,-2 0,-1 -1,-2 0,-1 0,-2 0,-4 1,-3 2,-4 2,-2 3,-2 3,-2 3,-1 3,-1 2,0 2,1 2,0 1,1 2,1 1,1 1,1 1,2" />
<path style="fill:none;stroke:#000;stroke-width:2" d="M500,669 l1,0 2,2 1,1 1,2 0,2 1,2 0,1 0,2 0,4 -1,3 -2,4 -2,2 -3,3 -3,1 -4,1 -3,1 -2,0 -1,-1 -2,0 -2,-1 -1,-1 -2,-1 -1,-1 -2,-1" />
<path style="fill:none;stroke:#fff;stroke-width:2" d="M259,827 l-1,-2 -1,-2 -1,-1 0,-2 -1,-2 0,-2 0,-2 -1,-2 1,-3 1,-3 2,-3 2,-2 2,-2 3,-2 3,-1 3,0 2,0 3,0 1,0 2,1 2,0 2,1 1,1 2,1" />
<path style="fill:none;stroke:#000;stroke-width:2" d="M286,800 l1,1 0,2 1,1 1,2 0,2 1,1 0,2 0,1 0,4 -2,3 -1,4 -3,2 -2,3 -3,1 -4,1 -4,1 -1,0 -2,-1 -2,0 -1,0 -2,-1 -1,-1 -2,-1 -1,0" />
<path style="fill:none;stroke:#fff;stroke-width:2" d="M400,569 l-1,-2 -2,-2 -1,-1 0,-2 -1,-1 -1,-2 0,-1 0,-2 0,-4 1,-3 2,-3 2,-3 3,-2 3,-2 4,-1 4,0 1,0 2,0 1,0 2,1 1,1 2,1 2,1 1,2" />
<path style="fill:none;stroke:#000;stroke-width:2" d="M425,544 l1,1 1,1 0,2 1,1 1,2 0,2 0,2 0,1 0,4 -1,4 -1,3 -2,2 -3,3 -2,1 -4,2 -3,0 -2,0 -2,0 -2,-1 -1,-1 -2,-1 -2,-1 -1,-1 -1,-1" />
<path style="fill:none;stroke:#fff;stroke-width:2" d="M200,627 l0,-1 -1,-1 -1,-2 0,-2 -1,-1 0,-2 -1,-2 0,-2 1,-3 1,-4 1,-3 3,-3 2,-2 3,-2 3,-1 3,0 2,0 2,0 2,1 2,0 1,1 2,1 1,2 0,1" />
<path style="fill:none;stroke:#000;stroke-width:2" d="M225,602 l2,2 1,1 1,2 1,1 1,2 0,1 0,2 1,1 -1,4 -1,4 -2,3 -2,3 -2,2 -4,2 -3,1 -4,0 -2,0 -1,0 -2,-1 -1,0 -2,-1 -1,-1 -2,-2 -2,-1" />
<path style="fill:none;stroke:#fff;stroke-width:2" d="M458,766 l-1,0 -1,-2 -1,-1 -1,-1 -1,-2 -1,-2 0,-2 0,-2 0,-3 2,-3 1,-3 3,-3 2,-2 3,-1 4,-1 4,-1 1,0 2,1 2,0 1,1 2,0 1,1 2,1 1,0" />
<path style="fill:none;stroke:#000;stroke-width:2" d="M483,741 l1,2 1,1 1,2 0,2 1,1 0,2 0,1 1,2 -1,4 -1,3 -1,3 -2,3 -2,2 -3,2 -3,1 -4,1 -2,-1 -2,0 -1,0 -2,-1 -2,-1 -1,-1 -2,-1 -1,-2" />
<path style="fill:none;stroke:#fff;stroke-width:2" d="M406,823 l-1,-2 -1,-2 -1,-1 -1,-2 -1,-1 -1,-2 0,-1 0,-2 0,-4 2,-3 1,-3 3,-3 2,-2 3,-2 4,-1 4,-1 1,1 2,0 2,0 1,1 2,1 1,1 2,1 1,2" />
<path style="fill:none;stroke:#000;stroke-width:2" d="M431,798 l1,0 1,2 1,1 0,1 1,2 0,2 0,2 1,2 -1,3 -1,3 -1,3 -3,2 -2,3 -3,1 -3,1 -3,1 -2,-1 -2,0 -2,0 -2,-1 -1,0 -2,-1 -1,-1 -1,0" />
<path style="fill:none;stroke:#fff;stroke-width:2" d="M252,573 l0,-2 -1,-1 -1,-2 0,-1 -1,-2 0,-2 -1,-1 0,-2 1,-3 1,-4 1,-3 3,-3 2,-2 3,-2 3,-1 3,0 2,0 2,0 2,0 2,1 2,1 1,1 2,1 2,2" />
<path style="fill:none;stroke:#000;stroke-width:2" d="M280,548 l0,1 1,1 1,1 0,2 1,1 0,2 1,2 0,2 -1,3 -1,3 -2,3 -2,3 -2,2 -4,2 -3,1 -4,0 -2,0 -1,0 -2,-1 -1,0 -2,-1 -1,-1 -2,0 -2,-1" />
<path style="fill:none;stroke:#fff;stroke-width:2" d="M205,773 l-2,-1 -1,-1 -1,-2 -1,-1 -1,-2 0,-2 -1,-2 0,-2 1,-3 1,-3 2,-3 2,-2 3,-2 3,-2 3,-1 4,0 2,0 1,0 2,0 2,1 2,0 1,1 2,1 1,1" />
<path style="fill:none;stroke:#000;stroke-width:2" d="M230,748 l1,1 1,2 1,1 1,2 1,1 0,2 1,2 0,1 -1,4 -1,3 -1,4 -3,2 -2,3 -4,1 -3,1 -4,1 -1,0 -2,-1 -2,0 -1,-1 -2,-1 -1,-1 -2,-1 -1,-1" />
<path style="fill:none;stroke:#fff;stroke-width:2" d="M454,621 l-1,-1 -1,-2 -1,-1 0,-2 -1,-2 0,-1 0,-2 0,-2 0,-4 1,-3 2,-3 2,-3 2,-2 3,-2 3,-1 4,0 1,0 2,0 2,0 2,1 1,1 2,1 1,1 1,2" />
<path style="fill:none;stroke:#000;stroke-width:2" d="M479,596 l2,1 1,2 1,1 1,2 1,2 0,1 0,2 1,1 -1,4 -1,4 -2,3 -2,2 -3,3 -3,1 -3,2 -4,0 -2,0 -1,0 -2,-1 -2,-1 -1,-1 -2,-1 -1,-1 -2,-1" />
<path style="fill:#366;stroke:#000;stroke-width:2" d="M186,400 l0,-343 127,0 0,171 129,0 26,7 21,19 11,26 0,6 0,114 -314,0z" />
<path style="fill:#194c4c" d="M213,400 l0,-314 100,0 0,171 140,0 29,3 18,21 0,5 0,114 -287,0z" />
<path style="fill:#699;stroke:#000;stroke-width:2" d="M271,28 l0,29 -58,0 0,-29 58,0z" />

</svg>
