 
<svg version="1.1" id="Default" xmlns="http://www.w3.org/2000/svg" preserveAspectRatio="none"  x="0px" y="0px"
       viewBox="0 0 114 102" xmlns:agg="http://www.example.com">

<agg:params>
	<agg:param type="C" name="color" description="Color" cssAttributes="fill" classes="color"/>
	<agg:param name="color" description="Liquid Color" type="C" cssAttributes="fill" classes="liquid"/>
	<agg:param type="F" name="saturation" description="Saturation" min="0" max="1" cssAttributes="opacity" classes="color"/>
</agg:params>

<style type="text/css" >
   <![CDATA[

	.stroke{
		stroke-width:2px;
		stroke-linecap:round;
		stroke-linejoin:round;
		stroke: black;
		opacity:0.5;
		fill:none;
	}
	
	.color {
		fill:#79A2C9;
	}
	
	.liquid {
		fill:white;
	}

      ]]>
</style>
	 
<path class="color" d="M113,1C91.883,1,72.097,1,50.98,1C29.5,1,10.423,14.733,3.592,35.103
	C-3.229,55.48,3.716,77.941,20.858,90.9c17.143,12.951,40.639,13.495,58.366,1.35C96.943,80.114,104.934,58,99.058,37.326
	c5.095,0.016,8.847,0.025,13.942,0.032C113,36.017,113,2.342,113,1z M50.724,64.636c-7.522,0-13.629-6.109-13.629-13.635
	c0-7.533,6.106-13.643,13.629-13.643c7.529,0,13.636,6.11,13.636,13.643C64.36,58.527,58.253,64.636,50.724,64.636z"/>
<g class="liquid">
	<path opacity="0.25" d="M50.724,29.283c11.991,0,21.709,9.723,21.709,21.719c0,11.988-9.719,21.711-21.709,21.711
		c-11.983,0-21.702-9.723-21.702-21.711C29.021,39.006,38.74,29.283,50.724,29.283z M68.393,51.001
		c0-9.764-7.909-17.677-17.669-17.677c-9.753,0-17.669,7.913-17.669,17.677c0,9.757,7.917,17.677,17.669,17.677
		C60.484,68.679,68.393,60.758,68.393,51.001z"/>
	<path opacity="0.5" d="M50.724,25.24c14.221,0,25.751,11.535,25.751,25.762c0,14.219-11.53,25.754-25.751,25.754
		c-14.214,0-25.743-11.535-25.743-25.754C24.981,36.775,36.51,25.24,50.724,25.24z M72.433,51.001
		c0-11.996-9.719-21.719-21.709-21.719c-11.983,0-21.702,9.723-21.702,21.719c0,11.988,9.719,21.711,21.702,21.711
		C62.714,72.713,72.433,62.99,72.433,51.001z"/>
	<path opacity="0.75" d="M50.724,21.197c16.451,0,29.791,13.346,29.791,29.804c0,16.459-13.34,29.797-29.791,29.797
		c-16.444,0-29.784-13.338-29.784-29.797C20.939,34.543,34.28,21.197,50.724,21.197z M76.475,51.001
		c0-14.227-11.53-25.762-25.751-25.762c-14.214,0-25.743,11.535-25.743,25.762c0,14.219,11.529,25.754,25.743,25.754
		C64.944,76.755,76.475,65.221,76.475,51.001z"/>
	<path opacity="1" d="M112.872,17.163c0,1.342,0,2.692,0,4.034c-15.776,0-30.341,0-46.117,0
		C81.79,29.291,88.44,47.322,82.26,63.245C76.079,79.168,59.019,87.986,42.46,83.812c-16.55-4.174-27.405-20.032-25.298-36.975
		c2.099-16.953,16.493-29.673,33.562-29.673C71.84,17.163,91.754,17.163,112.872,17.163z M80.515,51.001
		c0-16.458-13.34-29.804-29.791-29.804c-16.444,0-29.784,13.346-29.784,29.804c0,16.459,13.34,29.797,29.784,29.797
		C67.175,80.799,80.515,67.46,80.515,51.001z"/>
	<path opacity="0.75" d="M112.872,21.197c0,1.35,0,2.692,0,4.042c-11.867,0-22.514,0-34.373,0
		c12.23,13.198,13.488,33.188,3.012,47.828c-10.485,14.63-29.808,19.867-46.235,12.522C18.849,78.246,9.854,60.347,13.764,42.777
		c3.801-17.15,18.87-29.368,36.309-29.657h1.309h61.49c0,1.351,0,2.692,0,4.043c-21.117,0-41.031,0-62.148,0
		c-17.069,0-31.463,12.72-33.562,29.673C15.055,63.78,25.911,79.638,42.46,83.812c16.558,4.174,33.619-4.643,39.799-20.567
		c6.18-15.923-0.47-33.954-15.505-42.047C82.531,21.197,97.096,21.197,112.872,21.197z"/>
	<path opacity="0.5" d="M112.872,25.24c0,1.351,0,2.692,0,4.043c-9.176,0-17.131,0-26.308,0
		c9.867,16.293,7.505,37.206-5.744,50.89c-13.259,13.684-34.072,16.706-50.663,7.353C13.566,78.164,5.361,58.791,10.2,40.365
		C15.03,21.93,31.68,9.078,50.724,9.078c21.117,0,41.031,0,62.148,0c0,1.35,0,2.692,0,4.042c0,0-62.362-0.008-62.799,0
		c-17.439,0.289-32.508,12.506-36.309,29.657c-3.91,17.57,5.085,35.469,21.512,42.813c16.427,7.345,35.75,2.108,46.235-12.522
		c10.477-14.639,9.218-34.63-3.012-47.828C90.358,25.24,101.005,25.24,112.872,25.24z"/>
	<path opacity="0.25" enable-background="new    " d="M112.872,29.283c0,1.35,0,2.692,0,4.042
		c-6.987,0-12.753,0-19.74,0c7.785,18.69,2.427,40.287-13.202,53.155c-15.637,12.876-37.84,13.996-54.687,2.757
		C8.397,78.007,0.892,57.062,6.76,37.68C12.627,18.299,30.486,5.035,50.724,5.035c21.117,0,41.031,0,62.148,0
		c0,1.351,0,2.693,0,4.043c-21.117,0-41.031,0-62.148,0C31.68,9.078,15.03,21.93,10.2,40.365
		c-4.839,18.426,3.366,37.799,19.958,47.16c16.59,9.353,37.403,6.332,50.663-7.353c13.25-13.684,15.611-34.596,5.744-50.89
		C95.74,29.283,103.695,29.283,112.872,29.283z"/>
</g>
	
</svg>
