 

<svg xmlns:agg="http://www.example.com" xmlns="http://www.w3.org/2000/svg" preserveAspectRatio="none" width="1.5610in" height="1.0750in" viewBox="0 0 530 365">

<path style="fill:#7f7f7f;stroke:#000;stroke-width:2" d="M131,136 l-116,0 0,-107 268,0 16,1 16,2 16,4 15,6 14,6 13,8 12,10 12,10 10,11 10,13 8,13 6,14 6,15 4,15 2,16 1,16 -1,16 -2,16 -4,16 -6,14 -6,14 -8,14 -10,12 -10,11 -12,11 -12,9 -13,8 -14,7 -15,6 -16,4 -16,2 -16,1 -16,-1 -16,-2 -16,-4 -14,-6 -14,-7 -14,-8 -12,-9 -11,-11 -11,-11 -9,-12 -8,-14 -7,-14 -6,-14 -4,-16 -2,-16 -1,-16 2,-20 2,-14 3,-13 2,-6z" />
<path style="fill:#999" d="M283,38 l-268,0 0,89 268,0 0,-89z" />
<path style="fill:#b2b2b2" d="M283,49 l-268,0 0,67 268,0 0,-67z" />
<path style="fill:#ccc" d="M283,59 l-268,0 0,47 268,0 0,-47z" />
<path style="fill:#e5e5e5" d="M283,67 l-268,0 0,30 268,0 0,-30z" />
<path style="fill:#fff" d="M283,76 l-268,0 0,12 268,0 0,-12z" />
<circle style="fill:#b2b2b2" cx="283" cy="189" r="152" />
<path style="fill:#7f7f7f" d="M283,243 l196,0 0,-107 -196,0 -11,1 -10,3 -9,5 -8,7 -7,7 -5,9 -3,10 -1,11 1,11 3,10 5,9 7,8 8,7 9,5 10,3 11,1z" />
<path style="fill:#999" d="M257,236 l-6,-4 -6,-4 -4,-6 -4,-5 -4,-7 -2,-6 -1,-8 -1,-7 1,-7 1,-7 2,-7 4,-6 4,-6 4,-5 6,-4 6,-4 222,0 0,93 -222,0z" />
<path style="fill:#b2b2b2" d="M243,225 l-3,-4 -3,-4 -2,-4 -2,-5 -2,-4 -1,-5 -1,-5 0,-5 0,-5 1,-4 1,-5 2,-4 2,-5 2,-4 3,-4 3,-4 236,0 0,71 -236,0z" />
<path style="fill:#ccc" d="M235,214 l-2,-6 -2,-6 -1,-6 -1,-7 1,-6 1,-6 2,-6 2,-6 244,0 0,49 -244,0z" />
<path style="fill:#e5e5e5" d="M232,205 l-1,-4 -1,-4 -1,-4 0,-4 0,-4 1,-5 1,-4 1,-4 247,0 0,33 -247,0z" />
<path style="fill:#fff" d="M230,196 l0,-2 0,-1 -1,-2 0,-2 0,-2 1,-1 0,-2 0,-1 249,0 0,13 -249,0z" />
<path style="fill:none;stroke:#000;stroke-width:2" d="M479,136 l-196,0 -11,1 -10,3 -9,5 -8,7 -7,7 -5,9 -3,10 -1,11 1,11 3,10 5,9 7,8 8,7 9,5 10,3 11,1 196,0" />
<path style="fill:#7f7f7f" d="M51,15 l-36,0 0,134 36,0 0,-134z" />
<path style="fill:#999" d="M51,24 l-36,0 0,117 36,0 0,-117z" />
<path style="fill:#b2b2b2" d="M51,38 l-36,0 0,89 36,0 0,-89z" />
<path style="fill:#ccc" d="M51,52 l-36,0 0,61 36,0 0,-61z" />
<path style="fill:#e5e5e5" d="M51,63 l-36,0 0,39 36,0 0,-39z" />
<path style="fill:#fff" d="M51,74 l-36,0 0,17 36,0 0,-17z" />
<path style="fill:none;stroke:#000;stroke-width:2" d="M51,15 l-36,0 0,134 36,0 0,-134" />
<path style="fill:#7f7f7f" d="M515,123 l-35,0 0,133 35,0 0,-133z" />
<path style="fill:#999" d="M515,131 l-35,0 0,117 35,0 0,-117z" />
<path style="fill:#b2b2b2" d="M515,145 l-35,0 0,89 35,0 0,-89z" />
<path style="fill:#ccc" d="M515,159 l-35,0 0,61 35,0 0,-61z" />
<path style="fill:#e5e5e5" d="M515,170 l-35,0 0,39 35,0 0,-39z" />
<path style="fill:#fff" d="M515,181 l-35,0 0,17 35,0 0,-17z" />
<path style="fill:none;stroke:#000;stroke-width:2" d="M515,122 l-35,0 0,135 35,0 0,-135" />

</svg>
