 

<svg xmlns:agg="http://www.example.com" xmlns="http://www.w3.org/2000/svg" preserveAspectRatio="none" width="1.5587in" height="1.0750in" viewBox="0 0 999 689">

<path style="fill:#00f;stroke:#000;stroke-width:2" d="M901,296 l0,137 41,0 0,-137 -41,0z" />
<path style="fill:#00f;stroke:#000;stroke-width:2" d="M970,472 l-30,0 0,-216 30,0 0,216z" />
<path style="fill:#7f7fff" d="M970,274 l-28,0 0,-18 28,0 0,18z" />
<path style="fill:#7f7fff" d="M901,296 l0,12 41,0 0,-12 -41,0z" />
<path style="fill:#0000ad" d="M970,472 l-28,0 0,-16 28,0 0,16z" />
<path style="fill:#0000ad" d="M901,423 l0,10 41,0 0,-10 -41,0z" />
<path style="fill:none;stroke:#000;stroke-width:2" d="M970,472 l-28,0 0,-216 28,0 0,216" />
<path style="fill:none;stroke:#000;stroke-width:2" d="M901,296 l0,137 41,0 0,-137 -41,0" />
<path style="fill:#0000bf;stroke:#000;stroke-width:2" d="M690,228 l60,0 0,278 -60,0 0,-278z" />
<path style="fill:#0000ad;stroke:#000;stroke-width:2" d="M538,540 l20,0 0,105 37,0 0,16 -444,0 0,-16 18,0 0,-105 20,0 0,105 349,0 0,-105z" />
<path style="fill:#7f7fff;stroke:#000;stroke-width:2" d="M581,192 l16,0 6,6 12,169 -12,167 -6,6 -14,0 -11,3 -516,0 -22,-19 0,-314 22,-20 516,0 9,2z" />
<path style="fill:#00f;stroke:#000;stroke-width:2" d="M62,558 l-24,-15 0,-355 24,-17 85,0 14,192 -14,195 -85,0z" />
<path style="fill:#00f;stroke:#000;stroke-width:2" d="M149,190 l12,173 -12,180 444,0 6,-3 18,0 8,-6 14,-169 -14,-167 -8,-6 -18,0 -6,-2 -444,0z" />
<path style="fill:#00f;stroke:#000;stroke-width:2" d="M625,536 l0,-2 14,-169 -14,-167 8,-8 28,10 12,4 16,0 4,6 13,155 -13,155 -4,4 -14,0 -14,4 -28,15 -8,-7z" />
<path style="fill:#7f7fff;stroke:#000;stroke-width:2" d="M151,212 l-4,-33 421,0 1,0 1,0 2,1 1,1 2,1 1,1 1,1 0,1 0,19 0,2 -1,2 -1,2 -2,1 -1,0 -2,1 -1,0 -1,0 -417,0z" />
<path style="fill:#00f;stroke:#000;stroke-width:2" d="M149,520 l2,-32 418,0 8,8 0,18 -8,6 -420,0z" />
<path style="fill:#0000bf;stroke:#000;stroke-width:2" d="M38,188 l8,175 -8,180 -10,-180 10,-175z" />
<path style="fill:none;stroke:#000;stroke-width:2" d="M579,194 l14,173 -14,173" />
<path style="fill:#7f7fff;stroke:#000;stroke-width:2" d="M595,238 l4,0 2,10 -2,10 -39,0 0,-20 35,0z" />
<path style="fill:#7f7fff;stroke:#000;stroke-width:2" d="M153,246 l-2,-32 428,0 6,8 0,16 -6,8 -426,0z" />
<path style="fill:#7f7fff;stroke:#000;stroke-width:2" d="M599,466 l2,10 -2,10 -39,0 0,-20 39,0z" />
<path style="fill:#00f;stroke:#000;stroke-width:2" d="M155,276 l-2,-24 430,0 4,4 0,16 -4,4 -428,0z" />
<path style="fill:#7f7f7f;stroke:#000;stroke-width:2" d="M198,313 l320,0 0,125 -320,0 0,-125z" />
<path style="fill:#7f7fff;stroke:#000;stroke-width:2" d="M204,317 l320,0 0,127 -320,0 0,-127z" />
<path style="fill:#7f7f7f;stroke:#000;stroke-width:2" d="M258,339 l210,0 0,84 -210,0 0,-84z" />
<path style="fill:#0000ad;stroke:#000;stroke-width:2" d="M819,621 l16,0 0,24 38,0 0,16 -147,0 0,-16 93,0 0,-24z" />
<path style="fill:#b2b2b2" d="M750,542 l18,0 0,29 -18,0 0,-29z" />
<path style="fill:#00f;stroke:#000;stroke-width:2" d="M925,28 l0,26 -195,0 0,-26 195,0z" />
<path style="fill:#00f;stroke:#000;stroke-width:2" d="M873,127 l-91,0 0,-73 91,0 0,73z" />
<path style="fill:#7f7fff" d="M798,127 l-10,0 0,-73 10,0 0,73z" />
<path style="fill:#0000ad" d="M873,127 l-16,0 0,-73 16,0 0,73z" />
<path style="fill:#7f7fff" d="M746,28 l0,26 -16,0 0,-26 16,0z" />
<path style="fill:#0000ad" d="M925,28 l0,26 -14,0 0,-26 14,0z" />
<path style="fill:none;stroke:#000;stroke-width:2" d="M925,28 l0,26 -195,0 0,-26 195,0" />
<path style="fill:#00f;stroke:#000;stroke-width:2" d="M750,161 l18,0 0,410 -18,0 0,-410z" />
<path style="fill:#e0e0e0;stroke:#000;stroke-width:2" d="M885,238 l16,0 0,258 -16,0 0,-258z" />
<path style="fill:#b2b2b2" d="M885,476 l16,0 0,20 -16,0 0,-20z" />
<path style="fill:#7f7fff" d="M750,173 l18,0 0,25 -18,0 0,-25z" />
<path style="fill:#f0f0f0" d="M885,244 l16,0 0,16 -16,0 0,-16z" />
<path style="fill:#ccc;stroke:#000;stroke-width:2" d="M736,173 l14,0 0,27 -14,0 0,-6 -2,0 0,-17 2,0 0,-4z" />
<path style="fill:#ccc;stroke:#000;stroke-width:2" d="M736,530 l14,0 0,28 -14,0 0,-7 -2,0 0,-15 2,0 0,-6z" />
<path style="fill:#ccc;stroke:#000;stroke-width:2" d="M736,409 l14,0 0,29 -14,0 0,-5 -2,0 0,-18 2,0 0,-6z" />
<path style="fill:#ccc;stroke:#000;stroke-width:2" d="M736,286 l14,0 0,27 -14,0 0,-5 -2,0 0,-16 2,0 0,-6z" />
<path style="fill:none;stroke:#000;stroke-width:2" d="M750,161 l18,0 0,410 -18,0 0,-410" />
<path style="fill:none;stroke:#000;stroke-width:2" d="M885,238 l16,0 0,258 -16,0 0,-258" />
<path style="fill:#00f;stroke:#000;stroke-width:2" d="M885,573 l0,-414 -4,-24 -14,-20 -18,-10 -22,-4 -21,4 -18,10 -14,20 -6,24 0,414 6,26 14,18 18,12 21,4 22,-4 18,-12 14,-18 4,-26z" />
<path style="fill:#7f7fff" d="M782,125 l12,-12 -4,28 0,448 -6,8 -8,-8 0,-448 6,-16z" />
<path style="fill:none;stroke:#000;stroke-width:2" d="M64,169 l-6,196 6,197" />

</svg>
