 

<svg xmlns:agg="http://www.example.com" xmlns="http://www.w3.org/2000/svg" preserveAspectRatio="none" width="1.6083in" height="0.7551in" viewBox="0 0 999 469">

<path style="fill:#bfbfbf;stroke:#000;stroke-width:2" d="M646,303 l-28,0 0,128 28,0 0,-128z" />
<path style="fill:#4c4c4c" d="M921,49 l-98,0 0,9 98,0 0,-9z" />
<path style="fill:#bfbfbf" d="M931,410 l0,-352 -117,0 0,89 -79,0 0,18 -138,0 0,138 138,0 0,19 79,0 0,88 117,0z" />
<path style="fill:#ccc" d="M931,386 l0,-304 -117,0 0,76 -79,0 0,17 -138,0 0,119 138,0 0,17 79,0 0,75 117,0z" />
<path style="fill:#d9d9d9" d="M931,361 l0,-254 -117,0 0,64 -79,0 0,13 -138,0 0,100 138,0 0,13 79,0 0,64 117,0z" />
<path style="fill:#e5e5e5" d="M931,348 l0,-226 -117,0 0,57 -79,0 0,11 -138,0 0,88 138,0 0,14 79,0 0,56 117,0z" />
<path style="fill:#f2f2f2" d="M931,282 l0,-96 -117,0 0,25 -79,0 0,3 -138,0 0,40 138,0 0,6 79,0 0,22 117,0z" />
<path style="fill:#000" d="M367,322 l-309,0 0,21 309,0 0,-21z" />
<path style="fill:#666;stroke:#000;stroke-width:2" d="M382,147 l-335,0 0,175 335,0 0,-175z" />
<path style="fill:#999" d="M376,180 l-324,0 0,19 324,0 0,-19z" />
<path style="fill:#4c4c4c" d="M376,269 l-324,0 0,49 324,0 0,-49z" />
<path style="fill:#fc0" d="M597,196 l-215,0 0,67 215,0 0,-67z" />
<path style="fill:#a6a6a6" d="M970,28 l-196,0 0,21 196,0 0,-21z" />
<path style="fill:#a6a6a6" d="M126,333 l-59,0 0,19 59,0 0,-19z" />
<path style="fill:#a6a6a6" d="M382,333 l-60,0 0,19 60,0 0,-19z" />
<path style="fill:#bfbfbf;stroke:#000;stroke-width:2" d="M401,352 l-373,0 0,89 373,0 0,-89z" />
<path style="fill:#333" d="M322,147 l-196,0 0,175 196,0 0,-175z" />
<path style="fill:#ccc" d="M322,245 l-196,0 0,18 196,0 0,-18z" />
<path style="fill:#ccc" d="M322,205 l-196,0 0,19 196,0 0,-19z" />
<path style="fill:#b2b2b2" d="M322,278 l-196,0 0,19 196,0 0,-19z" />
<path style="fill:#b2b2b2" d="M322,171 l-196,0 0,19 196,0 0,-19z" />
<path style="fill:#999" d="M322,312 l-196,0 0,21 196,0 0,-21z" />
<path style="fill:#999" d="M322,137 l-196,0 0,19 196,0 0,-19z" />
<path style="fill:#a6a6a6" d="M358,435 l-325,-40 0,40 325,0z" />
<path style="fill:#d9a600" d="M386,243 l207,0 0,19 -207,0 0,-19z" />
<path style="fill:#ffeb99" d="M386,209 l207,0 0,7 -207,0 0,-7z" />
<path style="fill:#bf8c00" d="M597,263 l-215,0 0,10 215,0 0,-10z" />
<path style="fill:none;stroke:#000;stroke-width:2" d="M597,196 l-215,0 0,77 215,0 0,-77" />
<path style="fill:#4c4c4c" d="M524,211 l-68,0 0,37 68,0 0,-37z" />
<path style="fill:none;stroke:#fc0;stroke-width:2" d="M524,220 l-68,0" />
<path style="fill:none;stroke:#fc0;stroke-width:2" d="M524,229 l-68,0" />
<path style="fill:none;stroke:#fc0;stroke-width:2" d="M524,239 l-68,0" />
<path style="fill:none;stroke:#fc0;stroke-width:2" d="M508,248 l0,-37" />
<path style="fill:none;stroke:#fc0;stroke-width:2" d="M488,248 l0,-37" />
<path style="fill:none;stroke:#fc0;stroke-width:2" d="M469,248 l0,-37" />
<path style="fill:none;stroke:#000;stroke-width:2" d="M814,322 l0,-175" />
<path style="fill:none;stroke:#000;stroke-width:2" d="M735,303 l0,-138" />
<path style="fill:#ccc;stroke:#000;stroke-width:2" d="M716,199 l-110,0 0,95 110,0 0,-95z" />
<path style="fill:none;stroke:#fff;stroke-width:2" d="M716,294 l0,-95 -110,0" />
<path style="fill:none;stroke:#fff;stroke-width:2" d="M401,441 l0,-89 -373,0" />
<path style="fill:#4c4c4c;stroke:#000;stroke-width:2" d="M814,284 l-40,-11 0,-74 40,-15 0,100z" />
<path style="fill:#999;stroke:#000;stroke-width:2" d="M814,175 l0,11 -40,13 0,-9 40,-15z" />
<path style="fill:#999;stroke:#000;stroke-width:2" d="M814,282 l0,12 -40,-10 0,-11 40,9z" />
<path style="fill:#bfbfbf" d="M940,28 l-136,0 0,21 136,0 0,-21z" />
<path style="fill:#d9d9d9" d="M897,28 l-49,0 0,21 49,0 0,-21z" />
<path style="fill:none;stroke:#000;stroke-width:2" d="M970,28 l-196,0 0,21 196,0 0,-21" />
<path style="fill:none;stroke:#000;stroke-width:2" d="M931,410 l0,-352 -117,0 0,89 -79,0 0,18 -138,0 0,138 138,0 0,19 79,0 0,88 117,0" />
<path style="fill:#b2b2b2;stroke:#000;stroke-width:2" d="M931,420 l0,-38 -59,38 -58,-38 0,38 117,0z" />
<path style="fill:#d9d9d9;stroke:#000;stroke-width:2" d="M931,420 l-117,0 0,21 117,0 0,-21z" />
<path style="fill:#d9d9d9;stroke:#000;stroke-width:2" d="M887,343 l-30,0 0,77 30,0 0,-77z" />
<path style="fill:#d9d9d9;stroke:#000;stroke-width:2" d="M655,303 l0,138 -43,0 0,-10 34,-6 0,-122 9,0z" />

</svg>
