 
<svg version="1.1" id="Default" xmlns="http://www.w3.org/2000/svg" preserveAspectRatio="none"  x="0px" y="0px"
       viewBox="0 0 128 102" xmlns:agg="http://www.example.com">
	 
<agg:params>
	<agg:param type="C" name="color" description="Color" cssAttributes="fill" classes="color"/>
	<agg:param name="color" description="Liquid Color" type="C" cssAttributes="fill" classes="liquid"/>
	<agg:param type="F" name="saturation" description="Saturation" min="0" max="1" cssAttributes="opacity" classes="color"/>
</agg:params>

<style type="text/css" >
   <![CDATA[

	.stroke{
		stroke-width:2px;
		stroke-linecap:round;
		stroke-linejoin:round;
		stroke: black;
		opacity:0.5;
		fill:none;
	}
	
	.color {
		fill:#79A2C9;
	}
	
	.liquid {
		fill:white;
	}

      ]]>
</style>
	 
<path class="color" d="M20.366,68.987c9.649,24.999,37.268,37.948,62.646,29.369s39.488-35.639,31.988-61.357c4,0,8,0,11.999,0
	c0-1.33,0-2.67,0-4s0-2.67,0-4c0-1.33,0-2.67,0-4c0-1.329,0-2.669,0-4c0-1.33,0-2.67,0-4c0-1.33,0-2.669,0-4c0-1.33,0-2.67,0-4
	c0-1.33,0-2.67,0-4s0-2.67,0-4c-19.999,0-39.998,0-59.997,0C46.345,1,27.806,13.72,20.366,32.999c-7.12,0-12.247,0-19.366,0
	c0,1.33,0,2.67,0,4c0,1.33,0,2.67,0,4c0,1.33,0,2.67,0,4c0,1.33,0,2.67,0,4c0,1.33,0,2.67,0,4c0,1.33,0,2.66,0,3.99s0,2.67,0,4
	c0,1.33,0,2.669,0,4s0,2.67,0,4C8.12,68.987,13.246,68.987,20.366,68.987z"/>
	
<g class="liquid">	
	<path d="M67.003,48.998c1.11,0,2,0.89,2,2c0,1.1-0.89,2-2,2c-22.659,0-43.334,0-66.003,0c0-1.329,0-2.669,0-4
		C23.669,48.998,44.345,48.998,67.003,48.998z M67.003,16.999c-11.729,0-22.629,6.05-28.838,16c1.62,0,3.24,0,4.85,0
		C60.304,9.94,97.002,22.169,97.002,50.998c0,28.819-36.698,41.058-53.987,17.989c-1.61,0-3.229,0-4.85,0
		c11.83,18.959,38.428,21.548,53.677,5.209c15.259-16.329,10.879-42.678-8.84-53.197c14.669,0,29.329,0,43.998,0c0-1.33,0-2.67,0-4
		C107.001,16.999,87.002,16.999,67.003,16.999z"/>
	<path opacity="0.75" d="M93.002,50.998c0-23.429-28.538-34.898-44.757-17.999
		c-1.74,0-3.48,0-5.23,0C60.304,9.94,97.002,22.169,97.002,50.998c0,28.819-36.698,41.058-53.987,17.989c1.75,0,3.49,0,5.23,0
		C64.464,85.886,93.002,74.417,93.002,50.998z M1,44.998c0,1.33,0,2.67,0,4c22.669,0,43.345,0,66.003,0c1.11,0,2,0.89,2,2
		c0,1.1-0.89,2-2,2c-22.659,0-43.334,0-66.003,0c0,1.33,0,2.66,0,3.99c22.669,0,43.345,0,66.003,0c3.32,0,6-2.68,6-5.99
		c0-3.32-2.68-6-6-6C44.345,44.998,23.669,44.998,1,44.998z M83.002,20.999c19.719,10.52,24.099,36.868,8.84,53.197
		c-15.249,16.339-41.848,13.75-53.677-5.209c-1.54,0-3.08,0-4.62,0c10.87,20.199,37.018,26.249,55.637,12.859
		c18.629-13.389,21.229-40.118,5.53-56.847c10.759,0,21.528,0,32.288,0c0-1.329,0-2.669,0-4
		C112.331,20.999,97.672,20.999,83.002,20.999z M67.003,13c-13.979,0-26.838,7.68-33.458,19.999c1.54,0,3.08,0,4.62,0
		c6.209-9.949,17.109-16,28.838-16c19.999,0,39.998,0,59.997,0c0-1.33,0-2.669,0-4C107.001,13,87.002,13,67.003,13z"/>
	<path opacity="0.5" d="M48.245,32.999c16.219-16.899,44.757-5.43,44.757,17.999
		c0,23.419-28.538,34.888-44.757,17.989c2.04,0,4.08,0,6.12,0c14.569,10.25,34.638-0.18,34.638-17.989
		c0-17.819-20.068-28.238-34.638-17.999C52.324,32.999,50.285,32.999,48.245,32.999z M1,40.998c0,1.33,0,2.67,0,4
		c22.669,0,43.345,0,66.003,0c3.32,0,6,2.68,6,6c0,3.31-2.68,5.99-6,5.99c-22.659,0-43.334,0-66.003,0c0,1.33,0,2.67,0,4
		c22.669,0,43.345,0,66.003,0c5.53,0,10-4.47,10-9.99c0-5.53-4.47-10-10-10C44.345,40.998,23.669,40.998,1,40.998z M127,24.999
		c0,1.33,0,2.67,0,4c-8.079,0-16.149,0-24.218,0c12.609,20.509,5.43,47.408-15.739,58.897c-21.169,11.499-47.647,2.859-57.977-18.909
		c1.5,0,2.99,0,4.479,0c10.87,20.199,37.018,26.249,55.637,12.859c18.629-13.389,21.229-40.118,5.53-56.847
		C105.472,24.999,116.241,24.999,127,24.999z M127,9c0,1.33,0,2.67,0,4c-19.999,0-39.998,0-59.997,0
		c-13.979,0-26.838,7.68-33.458,19.999c-1.49,0-2.979,0-4.479,0C36.015,18.339,50.784,9,67.003,9C87.002,9,107.001,9,127,9z"/>
	<path opacity="0.25" d="M85.002,50.998c0-9.939-8.059-17.999-17.999-17.999
		c-4.21,0-8.419,0-12.639,0c14.569-10.239,34.638,0.18,34.638,17.999c0,17.809-20.068,28.239-34.638,17.989c4.22,0,8.429,0,12.639,0
		C76.943,68.987,85.002,60.938,85.002,50.998z M1,36.998c0,1.33,0,2.67,0,4c22.669,0,43.345,0,66.003,0c5.53,0,10,4.47,10,10
		c0,5.52-4.47,9.99-10,9.99c-22.659,0-43.334,0-66.003,0c0,1.33,0,2.669,0,4c22.669,0,43.345,0,66.003,0
		c7.73,0,13.999-6.26,13.999-13.989c0-7.74-6.269-14-13.999-14C44.345,36.998,23.669,36.998,1,36.998z M127,28.999c0,1.33,0,2.67,0,4
		c-5.889,0-11.779,0-17.669,0c9.939,23.379-0.95,50.387-24.329,60.317c-23.379,9.939-50.377-0.95-60.317-24.329c1.46,0,2.92,0,4.38,0
		c10.33,21.769,36.808,30.408,57.977,18.909c21.169-11.49,28.349-38.388,15.739-58.897C110.851,28.999,118.921,28.999,127,28.999z
		 M127,5c0,1.33,0,2.67,0,4c-19.999,0-39.998,0-59.997,0c-16.219,0-30.988,9.34-37.938,23.999c-1.46,0-2.92,0-4.38,0
		C31.895,16.019,48.564,5,67.003,5C87.002,5,107.001,5,127,5z"/>
</g>

</svg>
