 
<svg version="1.1" id="_x30_" xmlns:agg="http://www.example.com"
	 xmlns="http://www.w3.org/2000/svg" preserveAspectRatio="none"  xmlns:xlink="http://www.w3.org/1999/xlink" x="0px" y="0px"  
	 viewBox="0 0 152 132" xml:space="preserve">
	 
<agg:params>
	<agg:param type="C" name="color" description="Color" cssAttributes="fill" classes="color"/>
    <agg:param type="F" name="saturation" description="Saturation" min="0" max="1" cssAttributes="opacity" classes="color"/>
</agg:params>

<style type="text/css" >
   <![CDATA[

	.stroke,.thin,.thick{
		stroke-linecap:butt;
		stroke-linejoin:round;
		stroke: black;
		fill:none;
		opacity:0.5;
	}

	.stroke{stroke-width:1;}

	.thin {stroke-width:0.5;}

	.thick {stroke-width:1.5;}
	
	.color {
		fill:#3664BF;
		opacity:0.2;
	}

      ]]>
</style>

<defs>
	<linearGradient id="flat" gradientUnits="userSpaceOnUse">
		<stop  offset="0" style="stop-color:#757575"/>
		<stop  offset="0.0415" style="stop-color:#959595"/>
		<stop  offset="0.092" style="stop-color:#BABABA"/>
		<stop  offset="0.1426" style="stop-color:#D7D7D7"/>
		<stop  offset="0.1926" style="stop-color:#EBEBEB"/>
		<stop  offset="0.2418" style="stop-color:#F8F8F8"/>
		<stop  offset="0.2893" style="stop-color:#FCFCFC"/>
		<stop  offset="0.4194" style="stop-color:#F8F8F8"/>
		<stop  offset="0.5543" style="stop-color:#EBEBEB"/>
		<stop  offset="0.6913" style="stop-color:#D7D7D7"/>
		<stop  offset="0.8298" style="stop-color:#BABABA"/>
		<stop  offset="0.9682" style="stop-color:#959595"/>
		<stop  offset="1" style="stop-color:#8B8B8B"/>
	</linearGradient>
	
	<linearGradient id="cyl_top" xlink:href="#flat" x1="300.7056" y1="-108.3984" x2="300.7056" y2="-137.0985" gradientTransform="matrix(1 0 0 -1 -229.6201 -102.2256)"/>
	<linearGradient id="flat_1" xlink:href="#flat" x1="301.1528" y1="-153.5674" x2="341.8808" y2="-214.7856" gradientTransform="matrix(1 0 0 -1 -229.6201 -102.2256)"/>
	<linearGradient id="flat_2" xlink:href="#flat" x1="326.2593" y1="-184.7715" x2="314.8611" y2="-171.4736" gradientTransform="matrix(1 0 0 -1 -229.6201 -102.2256)"/>
	
	<linearGradient id="cyl" gradientUnits="userSpaceOnUse">
		<stop  offset="0.0051" style="stop-color:#757575"/>
		<stop  offset="0.0583" style="stop-color:#959595"/>
		<stop  offset="0.132" style="stop-color:#BABABA"/>
		<stop  offset="0.2058" style="stop-color:#D7D7D7"/>
		<stop  offset="0.2788" style="stop-color:#EBEBEB"/>
		<stop  offset="0.3507" style="stop-color:#F8F8F8"/>
		<stop  offset="0.42" style="stop-color:#FCFCFC"/>
		<stop  offset="0.4749" style="stop-color:#F8F8F8"/>
		<stop  offset="0.5318" style="stop-color:#EBEBEB"/>
		<stop  offset="0.5897" style="stop-color:#D7D7D7"/>
		<stop  offset="0.6481" style="stop-color:#BABABA"/>
		<stop  offset="0.7066" style="stop-color:#959595"/>
		<stop  offset="0.72" style="stop-color:#8B8B8B"/>
		<stop  offset="1" style="stop-color:#FCFCFC"/>
	</linearGradient>
	
	<linearGradient id="cyl_1" xlink:href="#cyl" x1="374.4712" y1="-149.7637" x2="374.4712" y2="-218.5661" gradientTransform="matrix(1 0 0 -1 -229.6201 -102.2256)"/>
	<linearGradient id="cyl_2" xlink:href="#cyl" x1="92.0005" y1="57.0825" x2="92.0005" y2="106.6733"/>
	<linearGradient id="cyl_4" xlink:href="#cyl" x1="287.1763" y1="-185.3984" x2="356.674" y2="-185.3984" gradientTransform="matrix(1 0 0 -1 -229.6201 -102.2256)"/>
	<linearGradient id="cyl_5" xlink:href="#cyl" x1="240.4575" y1="-112.6187" x2="240.4575" y2="-125.2826" gradientTransform="matrix(1 0 0 -1 -229.6201 -102.2256)"/>
	<linearGradient id="cyl_6" xlink:href="#cyl" x1="253.9849" y1="-105.8682" x2="253.9849" y2="-131.5981" gradientTransform="matrix(1 0 0 -1 -229.6201 -102.2256)"/>
	<linearGradient id="cyl_7" xlink:href="#cyl" x1="260.1421" y1="-102.9131" x2="260.1421" y2="-134.5687" gradientTransform="matrix(1 0 0 -1 -229.6201 -102.2256)"/>
	
	<linearGradient id="shadow" gradientUnits="userSpaceOnUse">
		<stop  offset="0" style="stop-color:#000000"/>
		<stop  offset="1" style="stop-color:#FFFFFF"/>
	</linearGradient>
	<linearGradient id="shadow_1" xlink:href="#shadow" x1="341.8599" y1="-214.7988" x2="300.9116" y2="-153.1658" gradientTransform="matrix(1 0 0 -1 -229.6201 -102.2256)"/>
	<linearGradient id="shadow_2" xlink:href="#shadow" x1="313.0532" y1="-164.0586" x2="329.6147" y2="-203.3945" gradientTransform="matrix(1 0 0 -1 -229.6201 -102.2256)"/>
	<linearGradient id="shadow_3" xlink:href="#shadow" x1="327.7856" y1="-186.8164" x2="315.7524" y2="-172.2499" gradientTransform="matrix(1 0 0 -1 -229.6201 -102.2256)"/>
</defs>

<g>
	<path fill="url(#cyl_top)" d="M109.19,20.633c0,4.887,0,9.8,0,14.712H74.785c0-1.643,0-3.314,0-4.961
		c0-1.342-1.089-2.433-2.43-2.433c-13.127,0-26.251,0-39.375,0V5.894c20.498,0,40.994,0,61.493,0
		C102.604,5.894,109.19,12.503,109.19,20.633z"/>
		
	<g id="cyl">
		<polygon fill="url(#cyl_1)" points="150.995,47.629 150.995,116.29 138.708,116.29 138.708,106.487 138.708,57.43 
		138.708,47.629 		"/>
		<polygon fill="url(#cyl_1)" points="45.292,106.487 45.292,116.29 32.98,116.29 32.98,47.629 45.292,47.629 45.292,57.43 		"/>
		<path fill="url(#cyl_2)" d="M138.708,57.43v49.057H126.42l-24.604-24.544L126.42,57.43H138.708z M82.157,81.943l-24.601,24.544
			H45.292V57.43h12.264L82.157,81.943z"/>
		<polygon fill="url(#cyl_4)" points="126.42,57.43 121.477,35.345 109.245,35.345 109.19,35.345 74.785,35.345 62.471,35.345 
			57.556,57.43 82.157,81.943 57.556,106.487 57.556,131 126.42,131 126.42,106.487 101.817,81.943 		"/>
		<rect x="1.007" y="10.806" fill="url(#cyl_5)"  />
		<polygon fill="url(#cyl_6)" points="28.064,4.07 28.064,29.8 20.667,29.8 20.667,23.064 20.667,10.806 20.667,4.07 		"/>
		<polygon fill="url(#cyl_7)" points="32.98,27.952 32.98,32.865 28.064,32.865 28.064,29.8 28.064,4.07 28.064,1.006 
			32.98,1.006 32.98,5.894 		"/>
	</g>
	
	<g id="flat">
		<path fill="url(#flat_1)" d="M122.521,61.61c-11.247-16.917-34.077-21.5-51.003-10.259
			C54.62,62.596,50.034,85.416,61.28,102.306c11.249,16.917,34.079,21.503,50.979,10.255
			C129.182,101.323,133.769,78.5,122.521,61.61z"/>
		<path fill="url(#flat_2)" d="M91.989,69.636c4.078,0.055,7.349,3.398,7.295,7.444c-0.05,4.081-3.396,7.345-7.47,7.295
			c-4.08-0.024-7.347-3.367-7.3-7.443C84.564,72.852,87.907,69.586,91.989,69.636z"/>
	</g>
	
	<g id="shadows" opacity="0.5">
		<path fill="url(#shadow_1)" d="M111.65,111.625
			c16.394-10.892,20.848-33.026,9.932-49.408c-10.896-16.386-33.041-20.84-49.432-9.927c-16.395,10.887-20.853,33.021-9.932,49.408
			C73.113,118.085,95.255,122.542,111.65,111.625z M122.521,61.61c11.248,16.891,6.666,39.713-10.263,50.951
			c-16.899,11.248-39.729,6.662-50.979-10.255c-11.246-16.891-6.66-39.71,10.238-50.955C88.441,40.11,111.268,44.693,122.521,61.61z
			"/>
		<path fill="url(#shadow_2)" d="M99.412,100.205c10.08-4.13,14.9-15.65,10.743-25.756
			c-4.132-10.077-15.682-14.892-25.767-10.736c-10.085,4.125-14.901,15.674-10.743,25.754
			C77.772,99.547,89.302,104.354,99.412,100.205z M111.194,74.019c4.385,10.659-0.707,22.842-11.376,27.225
			c-10.642,4.377-22.854-0.713-27.209-11.372c-4.384-10.639,0.706-22.818,11.374-27.198C94.622,58.291,106.81,63.38,111.194,74.019z
			"/>
		<path fill="url(#shadow_3)" d="M99.284,77.081c0.054-4.051-3.217-7.395-7.295-7.444
			c-4.08-0.05-7.425,3.221-7.475,7.296c-0.052,4.076,3.22,7.419,7.3,7.443C95.888,84.43,99.234,81.162,99.284,77.081z
			 M91.885,67.204c5.429,0,9.833,4.382,9.833,9.803s-4.404,9.798-9.833,9.798c-5.394,0-9.803-4.377-9.803-9.798
			S86.492,67.204,91.885,67.204z"/>
	</g>
	
	<path id="shadow" opacity="0.3" d="M101.718,77.006c0-5.421-4.404-9.803-9.833-9.803
		c-5.394,0-9.803,4.382-9.803,9.803s4.409,9.798,9.803,9.798C97.309,86.804,101.718,82.427,101.718,77.006z M84.388,63.712
		c10.085-4.155,21.635,0.659,25.767,10.736c4.157,10.105-0.658,21.626-10.738,25.756c-10.112,4.149-21.642-0.657-25.769-10.738
		C69.49,79.386,74.303,67.837,84.388,63.712z"/>
		
	<g id="lines" class="stroke">
		<path d="M122.521,61.61
			c-11.247-16.917-34.077-21.5-51.003-10.259C54.62,62.596,50.034,85.416,61.28,102.306c11.249,16.917,34.079,21.503,50.979,10.255
			C129.182,101.323,133.769,78.5,122.521,61.61z"/>
		<path d="M101.718,77.006
			c0-5.421-4.404-9.803-9.833-9.803c-5.394,0-9.803,4.382-9.803,9.803s4.409,9.798,9.803,9.798
			C97.309,86.804,101.718,82.427,101.718,77.006z M84.388,63.712c10.085-4.155,21.635,0.659,25.767,10.736
			c4.157,10.105-0.658,21.626-10.738,25.756c-10.112,4.149-21.642-0.657-25.769-10.738C69.49,79.386,74.303,67.837,84.388,63.712z"
			/>
		<path d="M150.99,47.626
			h-12.287v9.804h-3.216h-9.071l-4.934-22.085h-0.005H109.24h-0.05c0-4.912,0-9.83,0-14.718c0-7.62-5.795-13.905-13.217-14.662
			c-0.495-0.053-1-0.077-1.505-0.077c-19.43,0-38.853,0-58.275,0c-1.071,0-2.146,0-3.218,0V1l0,0H28.06v3.068h-7.398v6.736H1v12.258
			h19.662v6.736h7.398v3.063h4.913h0.005v-4.911c1.071,0,2.146,0,3.218,0c12.05,0,24.105,0,36.155,0c1.34,0,2.43,1.089,2.43,2.43
			c0,1.645,0,3.319,0,4.967H62.469L57.556,57.43H48.51h-3.22v-9.804H32.98h-0.005v68.658h0.005h12.311v-9.803h3.218h9.046v24.513
			h68.861v-24.513h9.071h3.221v9.803h12.287H151V47.626H150.99z"/>
		<line x1="138.703" y1="57.43" x2="138.703" y2="106.487"/>
		<line x1="74.78" y1="35.345" x2="109.19" y2="35.345"/>
		<line x1="45.291" y1="57.43" x2="45.291" y2="106.487"/>
		<line x1="32.98" y1="5.891" x2="32.98" y2="27.952"/>
		<line x1="20.662" y1="10.806" x2="20.662" y2="23.064"/>
		<line x1="28.06" y1="4.07" x2="28.06" y2="29.8"/>
		<line x1="122.298" y1="102.658" x2="126.416" y2="106.487"/>
		<line x1="126.42" y1="57.43" x2="122.403" y2="61.437"/>
		<line x1="61.468" y1="102.583" x2="57.556" y2="106.487"/>
		<line x1="57.554" y1="57.43" x2="61.454" y2="61.316"/>
	</g>
	
	<path class="color" d="M138.708,47.629v9.801h-3.216h-9.071l-4.938-22.085
		h-12.237h-0.055c0-4.912,0-9.828,0-14.715c0-8.13-6.586-14.739-14.717-14.739c-20.501,0-40.999,0-61.496,0V1.004h-4.915v3.064
		h-7.398v6.736H1.002v12.258h19.662v6.736h7.398v3.064h4.915v-4.913c13.125,0,26.248,0,39.373,0c1.34,0,2.432,1.092,2.432,2.43
		c0,1.647,0,3.321,0,4.967H62.469L57.556,57.43H48.51h-3.218v-9.801H32.98v68.655h12.313v-9.798h3.218h9.046V131h68.864v-24.514
		h9.071h3.216v9.798H151V47.629H138.708z"/>
	<polygon id="glow" opacity="0.4" fill="white" points="97.532,10.181 100.204,10.535 
		102.411,11.949 103.826,14.15 104.296,16.932 104.296,24.896 100.599,15.717 98.749,13.87 54.496,10.181 	"/>
</g>
</svg>
