 

<svg xmlns:agg="http://www.example.com" xmlns="http://www.w3.org/2000/svg" preserveAspectRatio="none" width="1.5610in" height="1.0750in" viewBox="0 0 530 365">

<path style="fill:#7f7f7f" d="M283,243 l197,0 0,-108 -197,0 -11,1 -10,3 -9,5 -7,7 -7,8 -5,9 -3,10 -1,11 1,11 3,10 5,9 7,8 7,7 9,5 10,3 11,1z" />
<path style="fill:#999" d="M257,236 l-6,-4 -5,-5 -5,-5 -4,-6 -3,-6 -2,-7 -2,-7 0,-7 0,-7 2,-7 2,-7 3,-6 4,-6 5,-6 5,-4 6,-4 223,0 0,94 -223,0z" />
<path style="fill:#b2b2b2" d="M243,225 l-3,-4 -3,-4 -2,-4 -2,-5 -1,-5 -1,-4 -1,-5 0,-5 0,-5 1,-5 1,-4 1,-5 2,-5 2,-4 3,-4 3,-4 237,0 0,72 -237,0z" />
<path style="fill:#ccc" d="M236,213 l-3,-6 -1,-6 -2,-6 0,-6 0,-6 2,-7 1,-6 3,-6 244,0 0,50 -244,-1z" />
<path style="fill:#e5e5e5" d="M232,205 l-1,-4 -1,-4 0,-4 0,-4 0,-5 1,-4 0,-5 1,-4 248,0 0,34 -248,0z" />
<path style="fill:#fff" d="M230,196 l0,-2 0,-2 0,-1 0,-2 0,-2 0,-2 0,-1 0,-2 250,0 0,14 -250,0z" />
<path style="fill:none;stroke:#000;stroke-width:2" d="M480,135 l-197,0 -11,1 -10,3 -9,5 -7,7 -7,8 -5,9 -3,10 -1,11 1,11 3,10 5,9 7,8 7,7 9,5 10,3 11,1 197,0" />
<path style="fill:#7f7f7f" d="M515,122 l-35,0 0,134 35,0 0,-134z" />
<path style="fill:#999" d="M515,130 l-35,0 0,118 35,0 0,-118z" />
<path style="fill:#b2b2b2" d="M515,145 l-35,0 0,89 35,0 0,-89z" />
<path style="fill:#ccc" d="M515,158 l-35,0 0,62 35,0 0,-62z" />
<path style="fill:#e5e5e5" d="M515,169 l-35,0 0,40 35,0 0,-40z" />
<path style="fill:#fff" d="M515,181 l-35,0 0,16 35,0 0,-16z" />
<path style="fill:none;stroke:#000;stroke-width:2" d="M515,122 l-35,0 0,134 35,0 0,-134" />
<path style="fill:#7f7f7f;stroke:#000;stroke-width:2" d="M131,135 l-116,0 0,-107 268,0 16,1 16,2 16,4 15,6 14,6 13,8 12,10 12,10 10,11 10,13 8,13 6,14 6,15 4,15 2,16 1,16 -1,16 -2,17 -4,15 -6,15 -6,14 -8,13 -10,13 -10,11 -12,11 -12,9 -13,8 -14,7 -15,6 -16,4 -16,2 -16,1 -16,-1 -16,-2 -16,-4 -14,-6 -14,-7 -14,-8 -12,-9 -11,-11 -11,-11 -9,-13 -8,-13 -7,-14 -6,-15 -4,-15 -2,-17 -1,-16 2,-20 3,-20 4,-13z" />
<path style="fill:#999" d="M283,37 l-268,0 0,89 268,0 0,-89z" />
<path style="fill:#b2b2b2" d="M283,48 l-268,0 0,68 268,0 0,-68z" />
<path style="fill:#ccc" d="M283,59 l-268,0 0,46 268,0 0,-46z" />
<path style="fill:#e5e5e5" d="M283,67 l-268,0 0,30 268,0 0,-30z" />
<path style="fill:#fff" d="M283,76 l-268,0 0,12 268,0 0,-12z" />
<circle style="fill:#b2b2b2" cx="283" cy="189" r="152" />
<path style="fill:#7f7f7f" d="M51,15 l-36,0 0,134 36,0 0,-134z" />
<path style="fill:#999" d="M51,23 l-36,0 0,118 36,0 0,-118z" />
<path style="fill:#b2b2b2" d="M51,37 l-36,0 0,90 36,0 0,-90z" />
<path style="fill:#ccc" d="M51,51 l-36,0 0,62 36,0 0,-62z" />
<path style="fill:#e5e5e5" d="M51,62 l-36,0 0,39 36,0 0,-39z" />
<path style="fill:#fff" d="M51,74 l-36,0 0,16 36,0 0,-16z" />
<path style="fill:none;stroke:#000;stroke-width:2" d="M51,15 l-36,0 0,134 36,0 0,-134" />

</svg>
