 

<svg xmlns:agg="http://www.example.com" xmlns="http://www.w3.org/2000/svg" preserveAspectRatio="none" width="1.1304in" height="1.0750in" viewBox="0 0 999 950">

<path style="fill:#000" d="M78,641 l79,0 0,45 -79,0 0,-45z" />
<path style="fill:#f0f0f0;stroke:#000;stroke-width:2" d="M139,538 l605,0 16,-16 -605,0 -16,16z" />
<path style="fill:#ccc;stroke:#000;stroke-width:2" d="M825,819 l-107,-46 24,98 77,-24 6,-28z" />
<path style="fill:#f60;stroke:#000;stroke-width:2" d="M641,476 l-6,14 -12,6 -292,0 -13,-6 -4,-14 0,-382 162,-10 165,10 0,382z" />
<path style="fill:#e07a14;stroke:#000;stroke-width:2" d="M302,94 l32,-2 0,384 -7,8 -19,-14 -6,-10 0,-366z" />
<path style="fill:#e07a14;stroke:#000;stroke-width:2" d="M336,92 l29,-2 0,392 -6,2 -17,-8 -6,-18 0,-366z" />
<path style="fill:#f93;stroke:#000;stroke-width:2" d="M371,90 l22,-2 0,394 -4,2 -18,-24 0,-370z" />
<path style="fill:#f93;stroke:#000;stroke-width:2" d="M403,88 l22,-2 0,396 -4,2 -18,-26 0,-370z" />
<path style="fill:#f93;stroke:#000;stroke-width:2" d="M438,86 l15,-2 0,396 -4,4 -11,-26 0,-372z" />
<path style="fill:#bf1400;stroke:#000;stroke-width:2" d="M484,84 l-8,0 -6,0 0,376 14,26 0,-6 0,-396z" />
<path style="fill:#bf1400;stroke:#000;stroke-width:2" d="M500,86 l18,0 0,396 -2,2 -16,-26 0,-372z" />
<path style="fill:#bf1400;stroke:#000;stroke-width:2" d="M528,86 l23,2 0,392 -2,2 -21,-24 0,-372z" />
<path style="fill:#bf1400;stroke:#000;stroke-width:2" d="M562,88 l25,2 0,390 -6,4 -19,-26 0,-370z" />
<path style="fill:#bf1400;stroke:#000;stroke-width:2" d="M591,90 l28,2 0,388 -6,4 -22,-26 0,-368z" />
<path style="fill:#000;stroke:#000;stroke-width:2" d="M581,28 l-218,0 -45,6 -18,14 0,46 343,0 0,-46 -18,-14 -44,-6z" />
<path style="fill:#f60;stroke:#000;stroke-width:2" d="M666,514 l-380,0 0,20 380,0 0,-20z" />
<path style="fill:#f60;stroke:#000;stroke-width:2" d="M639,514 l-327,0 15,-18 296,0 16,18z" />
<path style="fill:#f0f0f0;stroke:#000;stroke-width:2" d="M656,504 l-11,0 0,10 11,0 0,-10z" />
<path style="fill:#f0f0f0;stroke:#000;stroke-width:2" d="M294,504 l12,0 0,10 -12,0 0,-10z" />
<path style="fill:#f0f0f0;stroke:#000;stroke-width:2" d="M385,504 l12,0 0,10 -12,0 0,-10z" />
<path style="fill:#f0f0f0;stroke:#000;stroke-width:2" d="M484,504 l12,0 0,10 -12,0 0,-10z" />
<path style="fill:#f0f0f0;stroke:#000;stroke-width:2" d="M573,504 l12,0 0,10 -12,0 0,-10z" />
<path style="fill:#f0f0f0;stroke:#000;stroke-width:2" d="M74,845 l725,0 0,77 -725,0 0,-77z" />
<path style="fill:#ccc;stroke:#000;stroke-width:2" d="M825,819 l-26,26 0,77 26,-25 0,-78z" />
<path style="fill:#e5e5e5;stroke:#000;stroke-width:2" d="M82,845 l717,0 -53,-59 -619,0 -45,59z" />
<path style="fill:#b2b2b2" d="M137,538 l609,0 0,248 -635,0 0,-130 1,-35 4,-38 8,-30 7,-10 6,-5z" />
<path style="fill:#f60" d="M886,575 l-89,0 0,175 89,0 0,-175z" />
<path style="fill:#bf1400" d="M886,740 l-89,0 0,10 89,0 0,-10z" />
<path style="fill:#f93" d="M886,585 l-89,0 0,8 89,0 0,-8z" />
<path style="fill:#f60;stroke:#000;stroke-width:2" d="M863,575 l-18,2 -18,-2 0,-89 36,0 0,89z" />
<path style="fill:#f00;stroke:#000;stroke-width:2" d="M886,558 l24,0 0,209 -24,0 0,-209z" />
<path style="fill:#f60;stroke:#000;stroke-width:2" d="M970,577 l-60,0 0,50 60,0 0,-50z" />
<path style="fill:#f0f0f0" d="M805,484 l-59,0 0,321 59,0 0,-321z" />
<path style="fill:#fff" d="M805,494 l-59,0 0,12 59,0 0,-12z" />
<path style="fill:#b2b2b2" d="M118,797 l645,6 -17,-17 -619,0 -9,11z" />
<path style="fill:#ccc" d="M805,778 l-59,0 0,27 59,0 0,-27z" />
<path style="fill:#e0e0e0" d="M744,579 l-617,-23 -7,25 624,28 0,-30z" />
<path style="fill:#7f7f7f" d="M746,700 l-635,-27 0,113 635,0 0,-86z" />
<path style="fill:none;stroke:#000;stroke-width:2" d="M137,538 l609,0 0,248 -635,0 0,-130 1,-35 4,-38 8,-30 7,-10 6,-5" />
<path style="fill:none;stroke:#000;stroke-width:2" d="M183,786 l0,-130 2,-35 4,-38 8,-30 6,-10 7,-5" />
<path style="fill:none;stroke:#000;stroke-width:2" d="M242,786 l0,-130 2,-35 4,-38 8,-30 6,-10 6,-5" />
<path style="fill:none;stroke:#000;stroke-width:2" d="M300,786 l0,-130 2,-35 4,-38 8,-30 7,-10 6,-5" />
<path style="fill:none;stroke:#000;stroke-width:2" d="M359,786 l0,-130 0,-35 6,-38 8,-30 4,-10 8,-5" />
<path style="fill:none;stroke:#000;stroke-width:2" d="M415,786 l0,-130 2,-35 4,-38 8,-30 7,-10 8,-5" />
<path style="fill:none;stroke:#000;stroke-width:2" d="M474,786 l0,-130 2,-35 4,-38 8,-30 6,-10 6,-5" />
<path style="fill:none;stroke:#000;stroke-width:2" d="M532,786 l0,-130 2,-35 4,-38 9,-30 6,-10 5,-5" />
<path style="fill:none;stroke:#000;stroke-width:2" d="M591,786 l0,-130 0,-35 6,-38 8,-30 6,-10 6,-5" />
<path style="fill:none;stroke:#000;stroke-width:2" d="M649,786 l0,-130 0,-35 7,-38 8,-30 3,-10 8,-5" />
<path style="fill:none;stroke:#000;stroke-width:2" d="M805,484 l-59,0 0,321 59,0 0,-321" />
<path style="fill:#000;stroke:#000;stroke-width:2" d="M56,583 l22,0 16,6 7,16 -7,55 7,54 -7,16 -16,6 -22,0 -16,-6 -6,-16 -6,-56 6,-53 6,-16 16,-6z" />
<path style="fill:#7f7f7f;stroke:#000;stroke-width:2" d="M116,843 l53,0 0,-18 -53,0 0,18z" />
<path style="fill:#7f7f7f;stroke:#000;stroke-width:2" d="M694,843 l50,0 0,-18 -50,0 0,18z" />

</svg>
