 

<svg xmlns:agg="http://www.example.com" xmlns="http://www.w3.org/2000/svg" preserveAspectRatio="none" width="0.7360in" height="1.0750in" viewBox="0 0 684 999">

<path style="fill:#4c4c4c;stroke:#000;stroke-width:2" d="M87,715 l353,0 0,196 -353,0 0,-196z" />
<path style="fill:#666;stroke:#000;stroke-width:2" d="M401,857 l34,113 118,0 -98,-142 -54,29z" />
<path style="fill:#b2b2b2;stroke:#000;stroke-width:2" d="M573,955 l-123,0 -39,-103 -10,5 34,113 138,0 0,-15z" />
<circle style="fill:#999" cx="342" cy="577" r="314" />
<circle style="fill:#b2b2b2" cx="342" cy="577" r="299" />
<circle style="fill:#ccc" cx="342" cy="577" r="265" />
<circle style="fill:#e5e5e5" cx="342" cy="577" r="231" />
<circle style="fill:none;stroke:#000;stroke-width:2" cx="342" cy="577" r="314" />
<circle style="fill:#7f7f7f;stroke:#000;stroke-width:2" cx="342" cy="577" r="196" />
<circle style="fill:#ccc" cx="342" cy="577" r="118" />
<circle style="fill:#4c4c4c;stroke:#000;stroke-width:2" cx="341" cy="577" r="78" />
<path style="fill:#bfbfbf;stroke:#000;stroke-width:2" d="M332,589 l-5,-8 -56,31 5,9 56,-32z" />
<path style="fill:#bfbfbf;stroke:#000;stroke-width:2" d="M337,563 l10,0 0,-64 -10,0 0,64z" />
<path style="fill:#bfbfbf;stroke:#000;stroke-width:2" d="M357,581 l-5,8 56,32 5,-9 -56,-31z" />
<circle style="fill:#ccc;stroke:#000;stroke-width:2" cx="341" cy="577" r="19" />
<path style="fill:#4c4c4c;stroke:#000;stroke-width:2" d="M394,736 l-18,5 -5,-19 18,-5 5,19z" />
<path style="fill:#4c4c4c;stroke:#000;stroke-width:2" d="M467,688 l-14,14 -14,-13 14,-14 14,13z" />
<path style="fill:#4c4c4c;stroke:#000;stroke-width:2" d="M506,611 l-6,19 -18,-5 5,-19 19,5z" />
<path style="fill:#4c4c4c;stroke:#000;stroke-width:2" d="M501,525 l5,19 -19,5 -5,-19 19,-5z" />
<path style="fill:#4c4c4c;stroke:#000;stroke-width:2" d="M453,453 l14,13 -14,14 -14,-13 14,-14z" />
<path style="fill:#4c4c4c;stroke:#000;stroke-width:2" d="M376,414 l18,5 -5,19 -18,-5 5,-19z" />
<path style="fill:#4c4c4c;stroke:#000;stroke-width:2" d="M289,419 l19,-5 5,19 -19,5 -5,-19z" />
<path style="fill:#4c4c4c;stroke:#000;stroke-width:2" d="M217,467 l14,-14 14,13 -14,14 -14,-13z" />
<path style="fill:#4c4c4c;stroke:#000;stroke-width:2" d="M178,544 l6,-19 18,5 -5,19 -19,-5z" />
<path style="fill:#4c4c4c;stroke:#000;stroke-width:2" d="M183,630 l-5,-19 19,-5 5,19 -19,5z" />
<path style="fill:#4c4c4c;stroke:#000;stroke-width:2" d="M231,702 l-14,-13 14,-14 14,13 -14,14z" />
<path style="fill:#4c4c4c;stroke:#000;stroke-width:2" d="M308,741 l-19,-5 5,-19 19,5 -5,19z" />
<circle style="fill:#666;stroke:#000;stroke-width:2" cx="229" cy="862" r="108" />
<circle style="fill:#4c4c4c;stroke:#000;stroke-width:2" cx="229" cy="862" r="78" />
<circle style="fill:#ccc;stroke:#000;stroke-width:2" cx="267" cy="824" r="21" />
<circle style="fill:#ccc;stroke:#000;stroke-width:2" cx="191" cy="824" r="20" />
<circle style="fill:#ccc;stroke:#000;stroke-width:2" cx="191" cy="900" r="21" />
<circle style="fill:#ccc;stroke:#000;stroke-width:2" cx="267" cy="900" r="21" />
<path style="fill:#999;stroke:#000;stroke-width:2" d="M185,28 l314,0 0,59 -314,0 0,-59z" />
<path style="fill:#999" d="M460,87 l0,59 142,255 15,59 -315,-179 -78,-135 0,-59 236,0z" />
<path style="fill:#b2b2b2" d="M211,28 l262,0 0,59 -262,0 0,-59z" />
<path style="fill:#b2b2b2" d="M440,87 l0,59 177,314 -280,-147 -93,-167 0,-59 196,0z" />
<path style="fill:#ccc" d="M263,28 l158,0 0,59 -158,0 0,-59z" />
<path style="fill:#ccc" d="M401,87 l0,59 177,314 -176,-105 -119,-209 0,-59 118,0z" />
<path style="fill:#e5e5e5" d="M316,28 l52,0 0,59 -52,0 0,-59z" />
<path style="fill:#e5e5e5" d="M361,87 l1,59 176,314 -80,-71 -136,-243 0,-59 39,0z" />
<path style="fill:none;stroke:#000;stroke-width:2" d="M294,268 l-70,-122 0,-59 236,0 0,59 143,257" />

</svg>
