 

<svg xmlns:agg="http://www.example.com" xmlns="http://www.w3.org/2000/svg" preserveAspectRatio="none" width="1.5452in" height="1.0750in" viewBox="0 0 999 695">

<path style="fill:#7f0000" d="M224,184 l0,-114 -85,0 0,114 85,0z" />
<path style="fill:#ab0000" d="M214,185 l0,-21 0,-7 0,-8 0,-51 0,-15 0,-7 0,-7 -4,0 -12,1 -32,0 -12,-1 -4,0 0,7 0,109 12,0 4,1 4,0 28,0 12,-1 4,0z" />
<path style="fill:#d40000" d="M203,185 l0,-7 0,-109 -11,1 -21,0 -11,-1 0,23 0,14 0,51 0,14 0,14 11,1 21,0 11,-1z" />
<path style="fill:#f00" d="M192,184 l0,-114 -21,0 0,114 21,0z" />
<path style="fill:none;stroke:#000;stroke-width:2" d="M224,186 l0,-119 -85,0 0,119 85,0" />
<path style="fill:#e0e0e0;stroke:#000;stroke-width:2" d="M740,233 l28,0 0,-71 -28,0 0,71z" />
<path style="fill:#f00;stroke:#000;stroke-width:2" d="M40,266 l98,-153 0,459 -98,-70 0,-236z" />
<path style="fill:#7f0000" d="M62,245 l80,0 0,265 -80,0 0,-265z" />
<path style="fill:#9e0000;stroke:#000;stroke-width:2" d="M62,274 l5,0 5,0 5,0 60,0 5,0 0,6 0,192 0,6 -5,0 -70,0 -5,0 0,-6 0,-198z" />
<path style="fill:#de0000" d="M62,284 l5,0 5,0 5,0 60,0 5,0 0,5 0,67 0,5 -5,0 -70,0 -5,0 0,-5 0,-72z" />
<path style="fill:#f00;stroke:#000;stroke-width:2" d="M65,361 l77,0 0,17 -77,0 0,-17z" />
<path style="fill:#7f0000" d="M921,183 l-790,0 0,389 790,0 0,-389z" />
<path style="fill:#ab0000" d="M920,233 l-147,0 -25,0 -24,0 -418,0 -50,0 -98,0 -24,0 0,9 0,45 0,36 0,135 0,36 0,18 0,9 24,0 123,0 49,0 418,0 49,0 123,0 0,-54 1,-9 0,-9 0,-153 -1,-36 0,-27z" />
<path style="fill:#d40000" d="M919,283 l-147,0 -24,0 -25,0 -416,0 -49,0 -98,0 -24,0 0,12 0,35 0,94 0,35 0,12 24,0 123,0 49,0 416,0 49,0 122,0 0,-35 0,-12 0,-12 0,-82 0,-35 0,-12z" />
<path style="fill:#f00" d="M917,333 l-779,0 0,88 779,0 0,-88z" />
<path style="fill:none;stroke:#000;stroke-width:2" d="M921,183 l-790,0 0,389 790,0 0,-389" />
<path style="fill:#e0e0e0;stroke:#000;stroke-width:2" d="M884,315 l0,28 72,0 0,-28 -72,0z" />
<path style="fill:#7f7f7f;stroke:#000;stroke-width:2" d="M332,117 l-14,0 0,16 14,0 0,-16z" />
<path style="fill:#7f7f7f;stroke:#000;stroke-width:2" d="M332,623 l-15,0 0,14 15,0 0,-14z" />
<path style="fill:#7f7f7f;stroke:#000;stroke-width:2" d="M324,100 l-29,0 0,49 29,0 0,-49z" />
<path style="fill:#7f7f7f;stroke:#000;stroke-width:2" d="M324,606 l-29,0 0,47 29,0 0,-47z" />
<path style="fill:#4c4c4c;stroke:#000;stroke-width:2" d="M324,133 l-29,0 0,16 29,0 0,-16z" />
<path style="fill:#4c4c4c;stroke:#000;stroke-width:2" d="M324,639 l-29,0 0,14 29,0 0,-14z" />
<path style="fill:#e5e5e5;stroke:#000;stroke-width:2" d="M324,100 l-29,0 0,19 29,0 0,-19z" />
<path style="fill:#e5e5e5;stroke:#000;stroke-width:2" d="M324,606 l-29,0 0,19 29,0 0,-19z" />
<path style="fill:#7f7f7f;stroke:#000;stroke-width:2" d="M336,370 l-12,0 -12,0 0,14 12,0 12,0 0,-14z" />
<path style="fill:#7f7f7f;stroke:#000;stroke-width:2" d="M324,353 l-29,0 0,49 29,0 0,-49z" />
<path style="fill:#4c4c4c;stroke:#000;stroke-width:2" d="M324,386 l-29,0 0,16 29,0 0,-16z" />
<path style="fill:#e5e5e5;stroke:#000;stroke-width:2" d="M324,353 l-29,0 0,19 29,0 0,-19z" />
<path style="fill:#7f7f7f;stroke:#000;stroke-width:2" d="M674,123 l-18,0 0,14 18,0 0,-14z" />
<path style="fill:#7f7f7f;stroke:#000;stroke-width:2" d="M674,616 l-18,0 0,15 18,0 0,-15z" />
<path style="fill:#7f7f7f;stroke:#000;stroke-width:2" d="M662,107 l-32,0 0,46 32,0 0,-46z" />
<path style="fill:#7f7f7f;stroke:#000;stroke-width:2" d="M662,600 l-32,0 0,47 32,0 0,-47z" />
<path style="fill:#4c4c4c;stroke:#000;stroke-width:2" d="M662,139 l-32,0 0,14 32,0 0,-14z" />
<path style="fill:#4c4c4c;stroke:#000;stroke-width:2" d="M662,633 l-32,0 0,14 32,0 0,-14z" />
<path style="fill:#e5e5e5;stroke:#000;stroke-width:2" d="M662,107 l-32,0 0,18 32,0 0,-18z" />
<path style="fill:#e5e5e5;stroke:#000;stroke-width:2" d="M662,600 l-32,0 0,19 32,0 0,-19z" />
<path style="fill:#e0e0e0;stroke:#000;stroke-width:2" d="M719,149 l70,0 0,19 -70,0 0,-19z" />
<path style="fill:#e0e0e0;stroke:#000;stroke-width:2" d="M970,293 l0,71 -19,0 0,-71 19,0z" />
<path style="fill:#f0f0f0;stroke:#000;stroke-width:2" d="M817,458 l2,0 41,0 2,0 0,-3 21,-34 0,-2 -21,-37 -2,0 0,-2 0,2 -41,0 -2,-2 0,2 -20,37 -2,0 2,2 20,34 0,3z" />
<path style="fill:#ccc;stroke:#000;stroke-width:2" d="M650,537 l2,0 24,0 2,0 12,-23 0,-1 -12,-21 0,-2 -2,0 -24,0 -2,0 0,2 -12,21 0,1 12,21 0,2z" />
<circle style="fill:#b2b2b2;stroke:#000;stroke-width:2" cx="838" cy="419" r="25" />
<circle style="fill:#666;stroke:#000;stroke-width:2" cx="664" cy="513" r="16" />
<path style="fill:#7f0000" d="M219,667 l0,-579 74,0 0,64 294,0 0,-49 45,0 0,554 -45,0 0,-54 -294,0 0,64 -74,0z" />
<path style="fill:#ab0000" d="M219,595 l0,-14 0,-14 0,-13 0,-41 1,-41 0,-217 -1,-41 0,-55 14,0 5,0 5,0 32,0 18,0 1,31 -1,18 56,0 36,-1 139,0 36,1 28,0 0,-28 0,-9 28,-1 16,1 0,78 0,13 0,13 0,221 0,39 0,52 -33,0 -11,0 0,-30 0,-10 -55,0 -37,-1 -138,0 -37,1 -28,0 1,30 -1,12 0,6 -4,0 -33,0 -32,0 -5,0z" />
<path style="fill:#d40000" d="M219,523 l0,-10 0,-9 0,-9 1,-36 0,-164 -1,-36 0,-27 14,0 5,-1 5,0 32,0 18,1 0,32 56,0 36,-1 139,0 36,1 28,0 0,-25 28,0 16,0 0,52 0,9 0,8 0,149 0,34 0,27 -33,0 -11,0 0,-27 -55,0 -37,-1 -138,0 -37,1 -28,0 0,27 0,5 -4,0 -33,-1 -32,1 -5,0z" />
<path style="fill:#f00" d="M219,451 l0,-147 74,0 0,16 294,0 0,-12 45,0 0,140 -45,0 0,-13 -294,0 0,16 -74,0z" />
<path style="fill:none;stroke:#000;stroke-width:2" d="M219,667 l0,-579 74,0 0,64 294,0 0,-49 45,0 0,554 -45,0 0,-54 -294,0 0,64 -74,0" />
<path style="fill:none;stroke:#000;stroke-width:2" d="M293,152 l0,451" />
<path style="fill:none;stroke:#000;stroke-width:2" d="M254,88 l0,579" />
<path style="fill:none;stroke:#000;stroke-width:2" d="M587,152 l0,451" />
<path style="fill:none;stroke:#000;stroke-width:2" d="M612,103 l0,554" />
<path style="fill:#7f0000" d="M65,241 l-37,0 0,272 37,0 0,-272z" />
<path style="fill:#ab0000" d="M65,275 l-9,-1 -18,0 -10,1 0,38 1,13 0,101 -1,13 0,39 10,-1 18,0 9,1 0,-39 0,-13 0,-101 0,-13 0,-38z" />
<path style="fill:#d40000" d="M65,309 l-9,0 -18,0 -10,0 0,25 1,17 0,60 -1,17 0,17 10,0 18,0 9,0 0,-26 0,-8 0,-68 0,-17 0,-17z" />
<path style="fill:#f00" d="M65,343 l-37,0 0,69 37,0 0,-69z" />
<path style="fill:none;stroke:#000;stroke-width:2" d="M65,241 l-37,0 0,272 37,0 0,-272" />
<path style="fill:#7f0000" d="M303,68 l0,-40 -243,0 0,40 243,0z" />
<path style="fill:#ab0000" d="M273,68 l1,-10 0,-20 -1,-10 -34,0 -11,1 -91,0 -12,-1 -34,0 0,10 0,20 0,10 34,0 12,0 91,0 11,0 34,0z" />
<path style="fill:#d40000" d="M243,68 l0,-9 0,-20 0,-11 -23,0 -15,1 -53,0 -16,-1 -15,0 0,11 0,20 0,9 23,0 8,0 60,0 16,0 15,0z" />
<path style="fill:#f00" d="M212,68 l0,-40 -61,0 0,40 61,0z" />
<path style="fill:none;stroke:#000;stroke-width:2" d="M303,68 l0,-40 -243,0 0,40 243,0" />

</svg>
