 

<svg xmlns:agg="http://www.example.com" xmlns="http://www.w3.org/2000/svg" preserveAspectRatio="none" width="0.6101in" height="1.0750in" viewBox="0 0 567 999">

<path style="fill:#663" d="M258,970 l-102,-26 -102,0 -26,-76 0,-203 26,0 0,-305 -26,0 0,-153 128,0 0,24 75,0 0,-203 102,0 0,203 155,0 49,78 0,51 -25,0 0,305 25,-2 2,219 -27,51 -38,37 -216,0z" />
<path style="fill:#7f7f4c" d="M539,309 l-428,0 45,-78 332,0 51,78z" />
<path style="fill:#330" d="M35,531 l30,0 0,89 -30,0 0,-89z" />
<path style="fill:#663" d="M35,531 l30,0 0,-64 -30,0 0,64z" />
<path style="fill:none;stroke:#000;stroke-width:2" d="M35,467 l30,0 0,153 -30,0 0,-153" />
<path style="fill:#4c4c19" d="M54,360 l458,0 0,305 -458,0 0,-305z" />
<path style="fill:#330;stroke:#000;stroke-width:2" d="M54,665 l0,-305 126,0 0,305 -126,0z" />
<path style="fill:#6e6e3b" d="M184,665 l326,0 0,268 -36,37 -216,0 -74,-18 0,-287z" />
<path style="fill:#787845" d="M213,665 l267,0 0,300 -6,5 -216,0 -45,-13 0,-292z" />
<path style="fill:#7f7f4c" d="M242,665 l210,0 0,305 -194,0 -16,-5 0,-300z" />
<path style="fill:#878754" d="M271,665 l153,0 0,305 -153,0 0,-305z" />
<path style="fill:#91915e" d="M299,665 l96,0 0,305 -96,0 0,-305z" />
<path style="fill:#996" d="M327,665 l38,0 0,305 -38,0 0,-305z" />
<path style="fill:#330;stroke:#000;stroke-width:2" d="M156,944 l0,-51 37,0 0,59 -37,-8z" />
<path style="fill:#330;stroke:#000;stroke-width:2" d="M226,965 l0,-72 37,0 0,77 -37,-5z" />
<path style="fill:#330;stroke:#000;stroke-width:2" d="M295,970 l0,-77 38,0 0,77 -38,0z" />
<path style="fill:#330;stroke:#000;stroke-width:2" d="M365,970 l0,-77 38,0 0,77 -38,0z" />
<path style="fill:#330;stroke:#000;stroke-width:2" d="M435,970 l0,-77 39,0 0,77 -39,0z" />
<path style="fill:#330;stroke:#000;stroke-width:2" d="M78,944 l0,-51 40,0 0,51 -40,0z" />
<path style="fill:#6e6e3b" d="M184,360 l74,0 0,305 -74,0 0,-305z" />
<path style="fill:#787845" d="M192,360 l58,0 0,305 -58,0 0,-305z" />
<path style="fill:#7f7f4c" d="M197,360 l48,0 0,305 -48,0 0,-305z" />
<path style="fill:#878754" d="M203,360 l36,0 0,305 -36,0 0,-305z" />
<path style="fill:#91915e" d="M210,360 l21,0 0,305 -21,0 0,-305z" />
<path style="fill:#996" d="M216,360 l10,0 0,305 -10,0 0,-305z" />
<path style="fill:none;stroke:#000;stroke-width:2" d="M258,970 l-102,-26 -102,0 -26,-76 0,-203 26,0 0,-305 -26,0 0,-153 128,0 0,24 75,0 0,-203 102,0 0,203 155,0 49,78 0,51 -25,0 0,305 25,-2 2,219 -27,51 -38,37 -216,0" />
<path style="fill:none;stroke:#000;stroke-width:2" d="M539,346 l-511,0 0,14 511,0 0,-14" />
<path style="fill:none;stroke:#663;stroke-width:2" d="M54,429 l458,0" />
<path style="fill:none;stroke:#330;stroke-width:2" d="M54,442 l458,0" />
<path style="fill:none;stroke:#663;stroke-width:2" d="M54,510 l458,0" />
<path style="fill:none;stroke:#330;stroke-width:2" d="M54,524 l458,0" />
<path style="fill:none;stroke:#663;stroke-width:2" d="M54,588 l458,0" />
<path style="fill:none;stroke:#330;stroke-width:2" d="M54,601 l458,0" />
<path style="fill:none;stroke:#663;stroke-width:2" d="M54,663 l458,0" />
<path style="fill:none;stroke:#330;stroke-width:2" d="M28,676 l511,0" />
<path style="fill:none;stroke:#000;stroke-width:2" d="M28,868 l32,0 5,14 466,0 -26,43 -31,27" />
<path style="fill:none;stroke:#000;stroke-width:2" d="M340,970 l0,-292" />
<path style="fill:none;stroke:#000;stroke-width:2" d="M360,678 l0,292" />
<path style="fill:#996;stroke:#000;stroke-width:2" d="M156,231 l-45,78 32,0 32,-78 -19,0z" />
<path style="fill:#996;stroke:#000;stroke-width:2" d="M467,231 l40,78 32,0 -51,-78 -21,0z" />
<path style="fill:#996;stroke:#000;stroke-width:2" d="M416,231 l25,78 32,0 -38,-78 -19,0z" />
<path style="fill:#996;stroke:#000;stroke-width:2" d="M363,231 l12,78 32,0 -23,-78 -21,0z" />
<path style="fill:#996;stroke:#000;stroke-width:2" d="M312,231 l-3,78 31,0 -9,-78 -19,0z" />
<path style="fill:#996;stroke:#000;stroke-width:2" d="M260,231 l-18,78 33,0 3,-78 -18,0z" />
<path style="fill:#996;stroke:#000;stroke-width:2" d="M209,231 l-33,78 33,0 19,-78 -19,0z" />
<path style="fill:#996;stroke:#000;stroke-width:2" d="M231,28 l46,0 0,343 -46,0 0,-343z" />
<path style="fill:#996;stroke:#000;stroke-width:2" d="M290,28 l43,0 0,343 -43,0 0,-343z" />

</svg>
