 

<svg xmlns:agg="http://www.example.com" xmlns="http://www.w3.org/2000/svg" preserveAspectRatio="none" width="1.0750in" height="1.0750in" viewBox="0 0 999 999">

<path style="fill:#263a59;stroke:#000;stroke-width:2" d="M141,735 l397,0 0,-236 -451,0 0,216 54,20z" />
<path style="fill:#596d8c;stroke:#000;stroke-width:2" d="M109,710 l424,-34 81,-16 73,-46 47,-73 15,-81 -15,-81 -47,-74 -73,-46 -81,-15 -81,15 -75,48 -327,268 -17,27 -5,30 5,29 17,27 27,16 32,6z" />
<circle style="fill:#0d2140;stroke:#000;stroke-width:2" cx="106" cy="631" r="63" />
<path style="fill:#e5e5dd;stroke:#000;stroke-width:2" d="M146,499 l0,-452 392,0 0,59 40,2 39,6 38,10 36,13 34,17 33,20 30,22 28,26 25,27 23,31 20,32 16,34 13,36 10,38 6,39 1,20 1,20 0,10 -2,30 -4,29 -7,29 -8,28 -10,27 -12,25 -14,25 -16,24 -17,22 -19,22 -13,13 63,50 20,117 -707,0 19,-117 63,-50 0,-2 -19,-18 -18,-22 -17,-23 -15,-24 -13,-25 -12,-26 -10,-27 -7,-28 -6,-29 -3,-30 -1,-10 0,-10 0,-10z" />
<path style="fill:#ccccbd" d="M151,431 l7,-34 11,-33 13,-31 15,-30 18,-28 21,-27 22,-24 25,-23 26,-21 28,-18 29,-16 31,-14 33,-10 33,-8 34,-5 35,-3 1,-59 -382,0 0,384z" />
<path style="fill:#e5e5dd;stroke:#000;stroke-width:2" d="M617,28 l-550,0 0,19 550,0 0,-19z" />
<path style="fill:#e5e5dd;stroke:#000;stroke-width:2" d="M931,951 l-785,0 0,19 785,0 0,-19z" />
<path style="fill:#e5e5dd;stroke:#000;stroke-width:2" d="M970,440 l-864,0 0,29 864,0 0,-29z" />
<path style="fill:#b2b29b;stroke:#000;stroke-width:2" d="M970,479 l-864,0 0,-10 864,0 0,10z" />
<circle style="fill:#ccccbd;stroke:#000;stroke-width:2" cx="538" cy="459" r="333" />
<path style="fill:#333" d="M812,595 l-528,-306 -20,36 528,304 20,-34z" />
<path style="fill:#333" d="M708,713 l-305,-528 -35,21 305,528 35,-21z" />
<path style="fill:#333" d="M558,764 l0,-610 -40,0 0,610 40,0z" />
<path style="fill:#333" d="M403,733 l305,-527 -35,-21 -305,528 35,20z" />
<path style="fill:#333" d="M285,629 l527,-305 -20,-35 -528,305 21,35z" />
<path style="fill:#333" d="M843,439 l-610,0 0,41 610,0 0,-41z" />
<circle style="fill:#4c4c16" cx="538" cy="460" r="280" />
<circle style="fill:#330" cx="538" cy="460" r="206" />
<path style="fill:#000" d="M671,460 l-10,-50 -28,-45 -45,-28 -50,-10 -50,10 -45,28 -28,45 -9,50 9,50 28,45 45,28 50,9 50,-9 45,-28 28,-45 10,-50z" />
<path style="fill:#ccccbd" d="M268,784 l-24,19 23,20 24,18 25,17 27,15 27,13 29,11 29,9 30,7 29,5 31,3 10,0 10,0 31,-1 30,-3 30,-6 30,-8 28,-10 28,-11 27,-14 27,-16 25,-17 23,-19 8,-6 7,-7 -24,-19 -21,18 -22,17 -23,15 -25,14 -25,12 -26,10 -27,8 -27,6 -27,5 -28,2 -28,1 -28,-2 -28,-4 -27,-6 -27,-7 -26,-10 -26,-11 -24,-13 -24,-15 -22,-16 -22,-18 -7,-6z" />

</svg>
