 

<svg xmlns:agg="http://www.example.com" xmlns="http://www.w3.org/2000/svg" preserveAspectRatio="none" width="1.6083in" height="0.7277in" viewBox="0 0 999 452">

<path style="fill:#4c4c4c;stroke:#000;stroke-width:2" d="M795,167 l-23,-117 115,0 -22,117 -70,0z" />
<path style="fill:#7f7f7f" d="M28,318 l4,28 11,24 18,20 23,14 27,6 9,0 466,0 92,-22 0,-234 -92,-23 -466,0 -27,5 -24,11 -20,18 -14,24 -7,27 0,10 0,92z" />
<path style="fill:#999" d="M28,311 l7,30 20,24 29,17 27,5 9,1 466,0 92,-19 0,-194 -92,-21 -466,0 -27,4 -24,10 -26,21 -13,29 -2,15 0,78z" />
<path style="fill:#b2b2b2" d="M28,295 l15,26 26,13 33,6 9,1 475,0 92,-12 0,-117 -92,-11 -466,0 -27,2 -32,9 -22,14 -11,22 0,47z" />
<path style="fill:#ccc" d="M28,280 l2,3 25,8 29,3 27,1 475,0 92,-3 0,-40 -92,-4 -475,0 -35,2 -27,4 -19,7 -2,2 0,17z" />
<path style="fill:none;stroke:#000;stroke-width:2" d="M120,131 l0,281" />
<path style="fill:none;stroke:#000;stroke-width:2" d="M586,131 l0,281" />
<path style="fill:#4c4c4c;stroke:#000;stroke-width:2" d="M214,131 l349,0 0,234 -349,0 0,-234z" />
<path style="fill:#b2b2b2;stroke:#000;stroke-width:2" d="M167,284 l406,0 0,23 -406,0 0,-23z" />
<path style="fill:#b2b2b2;stroke:#000;stroke-width:2" d="M167,329 l406,0 0,25 -406,0 0,-25z" />
<path style="fill:#ccc;stroke:#000;stroke-width:2" d="M167,190 l406,0 0,24 -406,0 0,-24z" />
<path style="fill:#ccc;stroke:#000;stroke-width:2" d="M167,237 l406,0 0,23 -406,0 0,-23z" />
<path style="fill:#e5e5e5;stroke:#000;stroke-width:2" d="M167,143 l406,0 0,24 -406,0 0,-24z" />
<path style="fill:#e5e5e5;stroke:#000;stroke-width:2" d="M167,120 l406,0 0,11 -406,0 0,-11z" />
<path style="fill:#666;stroke:#000;stroke-width:2" d="M190,248 l186,0 0,176 -186,0 0,-176z" />
<path style="fill:none;stroke:#fff;stroke-width:2" d="M214,401 l0,-128 129,0" />
<path style="fill:#000;stroke:#000;stroke-width:2" d="M120,412 l466,0 0,12 -466,0 0,-12z" />
<path style="fill:#333;stroke:#000;stroke-width:2" d="M678,167 l70,0 0,209 -70,0 0,-209z" />
<path style="fill:#4c4c4c;stroke:#000;stroke-width:2" d="M376,248 l12,0 0,164 -12,0 0,-164z" />
<path style="fill:#b2b2b2" d="M748,256 l-70,0 0,32 70,0 0,-32z" />
<path style="fill:#7f7f7f" d="M748,322 l-70,0 0,32 70,0 0,-32z" />
<path style="fill:#ccc" d="M748,190 l-70,0 0,32 70,0 0,-32z" />
<path style="fill:none;stroke:#000;stroke-width:2" d="M28,318 l4,28 11,24 18,20 23,14 27,6 9,0 466,0 92,-22 0,-234 -92,-23 -466,0 -27,5 -24,11 -20,18 -14,24 -7,27 0,10 0,92" />
<path style="fill:#7f7f7f" d="M748,131 l24,0 0,281 -24,0 0,-281z" />
<path style="fill:#7f7f7f" d="M865,167 l47,23 22,0 0,164 -22,0 -47,22 0,-209z" />
<path style="fill:#bfbfbf" d="M934,143 l25,0 0,258 -25,0 0,-258z" />
<path style="fill:#999" d="M865,184 l47,19 22,0 0,136 -22,0 -47,21 0,-176z" />
<path style="fill:#b2b2b2" d="M865,220 l47,11 22,0 0,81 -22,0 -47,12 0,-104z" />
<path style="fill:#ccc" d="M865,254 l47,4 22,0 0,26 -22,0 -47,6 0,-36z" />
<path style="fill:none;stroke:#000;stroke-width:2" d="M865,167 l47,23 22,0 0,164 -22,0 -47,22 0,-209" />
<path style="fill:none;stroke:#000;stroke-width:2" d="M912,354 l0,-164" />
<path style="fill:#d9d9d9" d="M934,179 l25,0 0,186 -25,0 0,-186z" />
<path style="fill:#f2f2f2" d="M934,212 l25,0 0,117 -25,0 0,-117z" />
<path style="fill:#fff" d="M934,248 l25,0 0,47 -25,0 0,-47z" />
<path style="fill:none;stroke:#000;stroke-width:2" d="M934,143 l25,0 0,258 -25,0 0,-258" />
<path style="fill:#999" d="M748,156 l24,0 0,234 -24,0 0,-234z" />
<path style="fill:#b2b2b2" d="M748,201 l24,0 0,142 -24,0 0,-142z" />
<path style="fill:#ccc" d="M748,248 l24,0 0,47 -24,0 0,-47z" />
<path style="fill:none;stroke:#000;stroke-width:2" d="M748,131 l24,0 0,281 -24,0 0,-281" />
<path style="fill:#7f7f7f" d="M689,50 l0,-22 281,0 0,22 -281,0z" />
<path style="fill:#999" d="M712,50 l0,-22 234,0 0,22 -234,0z" />
<path style="fill:#b2b2b2" d="M759,50 l0,-22 141,0 0,22 -141,0z" />
<path style="fill:#ccc" d="M806,50 l0,-22 47,0 0,22 -47,0z" />
<path style="fill:none;stroke:#000;stroke-width:2" d="M689,50 l0,-22 281,0 0,22 -281,0" />
<path style="fill:#7f7f7f" d="M795,143 l70,0 0,281 -70,0 0,-281z" />
<path style="fill:#999" d="M795,167 l70,0 0,234 -70,0 0,-234z" />
<path style="fill:#b2b2b2" d="M795,214 l70,0 0,140 -70,0 0,-140z" />
<path style="fill:#ccc" d="M795,260 l70,0 0,47 -70,0 0,-47z" />
<path style="fill:none;stroke:#000;stroke-width:2" d="M795,143 l70,0 0,281 -70,0 0,-281" />
<path style="fill:#4c4c4c" d="M772,167 l23,0 0,209 -23,0 0,-209z" />
<path style="fill:#666" d="M772,184 l23,0 0,176 -23,0 0,-176z" />
<path style="fill:#7f7f7f" d="M772,218 l23,0 0,106 -23,0 0,-106z" />
<path style="fill:#999" d="M772,254 l23,0 0,36 -23,0 0,-36z" />
<path style="fill:none;stroke:#000;stroke-width:2" d="M772,167 l23,0 0,209 -23,0 0,-209" />
<circle style="fill:#4c7f7f;stroke:#000;stroke-width:2" cx="294" cy="330" r="34" />

</svg>
