 

<svg xmlns:agg="http://www.example.com" xmlns="http://www.w3.org/2000/svg" preserveAspectRatio="none" width="0.5456in" height="1.0750in" viewBox="0 0 507 999">

<path style="fill:#217f21" d="M443,778 l36,0 0,192 -36,0 0,-192z" />
<path style="fill:#217f21" d="M371,925 l0,-101 72,0 0,101 -72,0z" />
<path style="fill:#217f21" d="M60,807 l299,0 12,13 0,107 -12,15 -299,0 -12,-15 0,-107 12,-13z" />
<path style="fill:#217f21" d="M336,485 l-76,0 0,253 76,0 0,-253z" />
<path style="fill:#217f21" d="M28,456 l0,-28 373,0 0,28 -373,0z" />
<path style="fill:#217f21" d="M28,485 l373,0 0,-29 -373,0 0,29z" />
<path style="fill:#217f21" d="M336,428 l-76,0 0,-278 76,5 0,273z" />
<path style="fill:#217f21" d="M266,150 l-31,-2 0,-65 31,2 0,65z" />
<path style="fill:#217f21" d="M229,83 l21,0 0,-54 -21,-1 0,55z" />
<path style="fill:#217f21" d="M336,807 l-242,0 0,-50 -2,0 0,-19 244,0 0,19 0,50z" />
<path style="fill:#43a143;stroke:#000;stroke-width:2" d="M178,83 l2,0 0,-52 -2,0 0,52z" />
<path style="fill:#43a143;stroke:#000;stroke-width:2" d="M165,150 l-4,0 0,-65 4,0 0,65z" />
<path style="fill:#43a143;stroke:#000;stroke-width:2" d="M94,428 l-7,0 0,-267 7,0 0,267z" />
<path style="fill:#43a143;stroke:#000;stroke-width:2" d="M250,83 l-34,0 -36,0 0,-54 36,-1 34,1 0,54z" />
<path style="fill:#43a143;stroke:#000;stroke-width:2" d="M165,150 l49,-2 52,2 0,-67 -50,0 -51,0 0,67z" />
<path style="fill:#43a143;stroke:#000;stroke-width:2" d="M336,428 l-242,0 0,-277 120,-3 122,3 0,277z" />
<path style="fill:#43a143;stroke:#000;stroke-width:2" d="M41,454 l0,-25 259,0 0,25 -259,0z" />
<path style="fill:#43a143;stroke:#000;stroke-width:2" d="M41,458 l0,25 259,0 0,-25 -259,0z" />
<path style="fill:#43a143;stroke:#000;stroke-width:2" d="M336,485 l-242,0 0,253 242,0 0,-253z" />
<path style="fill:#43a143;stroke:#000;stroke-width:2" d="M371,896 l0,-68 72,0 0,68 -72,0z" />
<path style="fill:#43a143;stroke:#000;stroke-width:2" d="M447,786 l30,0 0,133 -30,0 0,-133z" />
<path style="fill:#217f21;stroke:#000;stroke-width:2" d="M94,485 l-40,0 33,253 7,0 0,-253z" />
<path style="fill:#005e00;stroke:#000;stroke-width:2" d="M220,485 l-10,0 0,253 10,0 0,-253z" />
<path style="fill:#005e00;stroke:#000;stroke-width:2" d="M371,485 l-35,0 0,253 10,0 25,-253z" />
<path style="fill:#005e00;stroke:#000;stroke-width:2" d="M220,428 l-10,0 0,-267 10,0 0,267z" />
<path style="fill:#005e00;stroke:#000;stroke-width:2" d="M346,428 l-10,0 0,-267 10,0 0,267z" />
<path style="fill:#005e00;stroke:#000;stroke-width:2" d="M271,150 l-4,0 0,-65 4,0 0,65z" />
<path style="fill:#005e00;stroke:#000;stroke-width:2" d="M214,148 l2,0 0,-63 -2,0 0,63z" />
<path style="fill:#005e00;stroke:#000;stroke-width:2" d="M216,83 l-2,0 0,-52 2,0 0,52z" />
<path style="fill:#005e00;stroke:#000;stroke-width:2" d="M250,83 l4,0 0,-52 -4,0 0,52z" />
<path style="fill:#43a143" d="M77,808 l229,0 15,14 0,103 -15,15 -229,0 -11,-15 0,-103 11,-14z" />
<path style="fill:#82e082" d="M447,791 l30,0 0,12 -30,0 0,-12z" />
<path style="fill:#82e082" d="M371,837 l0,-6 72,0 0,6 -72,0z" />
<path style="fill:#82e082" d="M88,808 l10,0 -6,14 0,103 6,15 -10,0 -11,-15 0,-103 11,-14z" />
<path style="fill:#82e082" d="M136,485 l-25,0 0,253 25,0 0,-253z" />
<path style="fill:#82e082" d="M52,458 l0,25 25,0 0,-25 -25,0z" />
<path style="fill:#82e082" d="M52,454 l0,-25 25,0 0,25 -25,0z" />
<path style="fill:#82e082" d="M136,428 l-25,0 0,-275 25,-3 0,278z" />
<path style="fill:#82e082" d="M182,148 l-10,2 0,-67 10,0 0,65z" />
<path style="fill:#82e082" d="M185,83 l6,0 0,-55 -6,1 0,54z" />
<path style="fill:#217f21" d="M100,740 l0,17 169,0 0,-17 -169,0z" />
<path style="fill:#000" d="M323,766 l0,8 -10,0 0,-8 -6,0 0,-9 22,0 0,9 -6,0z" />
<path style="fill:#000" d="M266,766 l0,8 -10,0 0,-8 -6,0 0,-9 21,0 0,9 -5,0z" />
<path style="fill:#000" d="M218,766 l0,8 -9,0 0,-8 -6,0 0,-9 21,0 0,9 -6,0z" />
<path style="fill:#000" d="M167,766 l0,8 -10,0 0,-8 -6,0 0,-9 21,0 0,9 -5,0z" />
<path style="fill:#000" d="M115,766 l0,8 -9,0 0,-8 -6,0 0,-9 21,0 0,9 -6,0z" />
<path style="fill:#7f7f7f" d="M142,500 l0,10 -15,0 0,-10 -8,0 0,-15 31,0 0,15 -8,0z" />
<path style="fill:#7f7f7f" d="M220,500 l0,10 -15,0 0,-10 -8,0 0,-15 30,0 0,15 -7,0z" />
<path style="fill:#7f7f7f" d="M292,500 l0,10 -15,0 0,-10 -8,0 0,-15 31,0 0,15 -8,0z" />
<path style="fill:#7f7f7f" d="M382,500 l0,10 -17,0 0,-10 -8,0 0,-15 32,0 0,15 -7,0z" />
<path style="fill:#7f7f7f" d="M382,412 l0,-9 -17,0 0,9 -8,0 0,16 32,0 0,-16 -7,0z" />
<path style="fill:#7f7f7f" d="M292,412 l0,-9 -15,0 0,9 -8,0 0,16 31,0 0,-16 -8,0z" />
<path style="fill:#7f7f7f" d="M220,412 l0,-9 -15,0 0,9 -8,0 0,16 30,0 0,-16 -7,0z" />
<path style="fill:#7f7f7f" d="M142,412 l0,-9 -15,0 0,9 -8,0 0,16 31,0 0,-16 -8,0z" />
<path style="fill:#7f7f7f" d="M64,412 l0,-9 -18,0 0,9 -7,0 0,16 30,0 0,-16 -5,0z" />
<path style="fill:#7f7f7f" d="M64,500 l0,10 -18,0 0,-10 -7,0 0,-15 30,0 0,15 -5,0z" />
<path style="fill:#f0f0f0" d="M46,498 l16,0 0,-11 -16,0 0,11z" />
<path style="fill:#f0f0f0" d="M127,498 l15,0 0,-11 -15,0 0,11z" />
<path style="fill:#f0f0f0" d="M205,498 l15,0 0,-11 -15,0 0,11z" />
<path style="fill:#f0f0f0" d="M277,498 l15,0 0,-11 -15,0 0,11z" />
<path style="fill:#f0f0f0" d="M365,498 l15,0 0,-11 -15,0 0,11z" />
<path style="fill:#f0f0f0" d="M365,414 l15,0 0,12 -15,0 0,-12z" />
<path style="fill:#f0f0f0" d="M277,414 l15,0 0,12 -15,0 0,-12z" />
<path style="fill:#f0f0f0" d="M205,414 l15,0 0,12 -15,0 0,-12z" />
<path style="fill:#f0f0f0" d="M127,414 l15,0 0,12 -15,0 0,-12z" />
<path style="fill:#f0f0f0" d="M46,414 l16,0 0,12 -16,0 0,-12z" />
<path style="fill:#f0f0f0" d="M106,766 l9,0 0,-7 -9,0 0,7z" />
<path style="fill:#f0f0f0" d="M313,766 l10,0 0,-7 -10,0 0,7z" />
<path style="fill:#f0f0f0" d="M209,766 l9,0 0,-7 -9,0 0,7z" />
<path style="fill:#f0f0f0" d="M157,766 l10,0 0,-7 -10,0 0,7z" />
<path style="fill:#f0f0f0" d="M256,766 l10,0 0,-7 -10,0 0,7z" />

</svg>
