 
<svg version="1.1" id="make2d" xmlns="http://www.w3.org/2000/svg" preserveAspectRatio="none"  xmlns:xlink="http://www.w3.org/1999/xlink" x="0px" y="0px"
	   viewBox="0 0 112 152" xmlns:agg="http://www.example.com" xml:space="preserve">

<agg:params>
	<agg:param type="C" name="color" description="Color" cssAttributes="fill" classes="color"/>
	<agg:param type="F" name="saturation" description="Saturation" min="0" max="1" cssAttributes="opacity" classes="color"/>
</agg:params>

<style type="text/css" >
   <![CDATA[

	.stroke,.thin,.thick{
		stroke-linecap:butt;
		stroke-linejoin:round;
		stroke: black;
		fill:none;
		opacity:0.5;
	}

	.stroke{stroke-width:0.5;}

	.thin {stroke-width:0.25;}

	.thick {stroke-width:1.75;}
	
	.color {
		fill:#3664BF;
		opacity:0.2;
	}

      ]]>
</style>
	 
<defs>
	<linearGradient id="legGradient" gradientUnits="userSpaceOnUse" x1="31.4478" y1="146.8096" x2="43.8726" y2="146.8096">
		<stop  offset="0" style="stop-color:#959595"/>
		<stop  offset="0.0837" style="stop-color:#9B9B9B"/>
		<stop  offset="0.1985" style="stop-color:#ADADAD"/>
		<stop  offset="0.3313" style="stop-color:#CACACA"/>
		<stop  offset="0.4766" style="stop-color:#F2F2F2"/>
		<stop  offset="0.497" style="stop-color:#F8F8F8"/>
		<stop  offset="0.5587" style="stop-color:#E9E9E9"/>
		<stop  offset="0.754" style="stop-color:#C0C0C0"/>
		<stop  offset="0.9077" style="stop-color:#A6A6A6"/>
		<stop  offset="1" style="stop-color:#9D9D9D"/>
	</linearGradient>
	
	<linearGradient id="cyl" gradientUnits="userSpaceOnUse">
		<stop  offset="0" style="stop-color:#757575"/>
		<stop  offset="0.0583" style="stop-color:#959595"/>
		<stop  offset="0.132" style="stop-color:#BABABA"/>
		<stop  offset="0.2058" style="stop-color:#D7D7D7"/>
		<stop  offset="0.2788" style="stop-color:#EBEBEB"/>
		<stop  offset="0.3507" style="stop-color:#F8F8F8"/>
		<stop  offset="0.42" style="stop-color:#FCFCFC"/>
		<stop  offset="0.4749" style="stop-color:#F8F8F8"/>
		<stop  offset="0.5318" style="stop-color:#EBEBEB"/>
		<stop  offset="0.5897" style="stop-color:#D7D7D7"/>
		<stop  offset="0.6481" style="stop-color:#BABABA"/>
		<stop  offset="0.7066" style="stop-color:#959595"/>
		<stop  offset="0.72" style="stop-color:#8B8B8B"/>
		<stop  offset="1" style="stop-color:#FCFCFC"/>
	</linearGradient>
	
	<linearGradient id="cyl_1" xlink:href="#cyl" x1="69.7261" y1="5.6973" x2="94.9985" y2="5.6973"/>
	<linearGradient id="cyl_2" xlink:href="#cyl" x1="5.2756" y1="94.1006" x2="5.2756" y2="140.6074"/>
	<linearGradient id="cyl_3" xlink:href="#cyl" x1="18.4272" y1="104.8267" x2="18.4272" y2="129.771"/>
	<linearGradient id="cyl_4" xlink:href="#cyl" x1="27.3032" y1="117.4854" x2="111" y2="117.4854"/>
	<linearGradient id="cyl_5" xlink:href="#cyl" x1="31.4441" y1="49.5225" x2="106.8535" y2="49.5225"/>
	
	<polygon id="leg" fill="url(#legGradient)" points="43.873,142.62 39.729,151 35.584,151 31.448,142.62 "/>

</defs>

<path fill="url(#cyl_1)" d="M94.999,1v9.395c-4.207-0.629-23.121-3.386-25.272-3.693V1H94.999z"/>
<rect x="1" y="93.954" fill="url(#cyl_2)"  />
<rect x="9.551" y="105.461" fill="url(#cyl_3)"  />
<path fill="url(#cyl_4)" d="M111,96.542v41.888l-4.144,4.19H31.448l-4.145-4.19V96.542l4.165-4.19c25.121,0,50.241,0,75.361,0
	L111,96.542z"/>
<path fill="url(#cyl_5)" d="M69.726,6.701c2.151,0.308,21.066,3.064,25.272,3.693c0.754,0.217,1.501,0.448,2.249,0.686
	c6.78,26.89,9.92,53.528,9.582,81.271c-25.12,0-50.24,0-75.361,0C31.136,64.608,34.277,37.97,41.05,11.08
	c9.25-2.952,18.403-4.386,28.102-4.386C69.345,6.701,69.532,6.701,69.726,6.701z"/>
	
<use xlink:href="#leg"/>
<use xlink:href="#leg" transform="translate(31.484 0)"/>		
<use xlink:href="#leg" transform="translate(62.976 0)"/>
	
<path class="color" d="M106.829,92.352c0.338-27.744-2.802-54.382-9.582-81.271
	c-0.748-0.238-1.495-0.469-2.249-0.686V1H69.726v5.701c-0.194,0-0.381,0-0.574-0.007c-9.699,0-18.852,1.434-28.102,4.386
	c-6.773,26.89-9.914,53.528-9.582,81.271l-4.165,4.19v8.919H9.551V93.954H1v46.75h8.551v-11.186h17.752v8.912l4.145,4.19l4.137,8.38
	h4.144l4.144-8.38h19.06l4.145,8.38h4.144l4.145-8.38h19.059l4.145,8.38h4.144l4.145-8.38l4.144-4.19V96.542L106.829,92.352z"/>
	
<g class="stroke">
	<polygon points="9.551,129.518 9.551,140.703 1,140.703 1,93.954 9.551,93.954 9.551,105.461 	"/>
	<line x1="9.551" y1="105.461" x2="27.303" y2="105.461"/>
	<line x1="27.303" y1="129.518" x2="9.551" y2="129.518"/>
	<polyline points="62.932,142.62 67.077,151 71.22,151 75.365,142.62 	"/>
	<polyline points="31.448,142.62 35.584,151 39.729,151 43.873,142.62 	"/>
	<polyline points="94.424,142.62 98.568,151 102.712,151 106.856,142.62 	"/>
	<polyline points="31.468,92.352 27.303,96.542 27.303,105.461 27.303,129.518 27.303,138.43 31.448,142.62 43.873,142.62 62.932,142.62 
		75.365,142.62 94.424,142.62 106.856,142.62 111,138.43 111,96.542 106.829,92.352 	"/>
	<polyline points="69.726,6.701 69.726,1 94.999,1 94.999,10.395 	"/>
	<path d="M69.726,6.701
		c-0.194,0-0.381,0-0.574-0.007c-9.699,0-18.852,1.434-28.102,4.386c-6.773,26.89-9.914,53.528-9.582,81.271
		c25.121,0,50.241,0,75.361,0c0.338-27.744-2.802-54.382-9.582-81.271c-0.748-0.238-1.495-0.469-2.249-0.686
		C90.792,9.765,71.877,7.009,69.726,6.701z"/>
	<line x1="41.049" y1="11.08" x2="97.251" y2="11.08"/>
	<line x1="27.301" y1="138.433" x2="110.998" y2="138.433"/>
	<line x1="27.301" y1="96.543" x2="110.998" y2="96.543"/>
</g>

<g id="ribs" class="thick">
	<path d="M102.059,83.977c-0.258-22.659-2.553-44.807-6.985-67.022"/>
	<path d="M88.15,83.977c-0.147-22.447-1.464-44.723-4.033-67.022"/>
	<path d="M59.314,83.977c0.077-22.369,0.757-44.692,2.088-67.022"/>
	<path d="M78.985,83.977c-0.076-22.369-0.756-44.692-2.087-67.022"/>
	<path d="M50.15,83.977c0.148-22.447,1.464-44.723,4.033-67.022"/>
	<path d="M96.021,83.977c-0.21-22.553-2.078-44.765-5.704-67.022"/>
	<line x1="69.15" y1="83.977" x2="69.15" y2="16.954"/>
	<path d="M42.28,83.977c0.21-22.553,2.078-44.765,5.703-67.022"/>
	<path d="M36.241,83.977c0.258-22.659,2.553-44.807,6.986-67.022"/>
</g>

</svg>
