 

<svg xmlns:agg="http://www.example.com" xmlns="http://www.w3.org/2000/svg" preserveAspectRatio="none" width="1.2502in" height="1.0750in" viewBox="0 0 999 859">

<path style="fill:#4c4c4c;stroke:#000;stroke-width:2" d="M291,612 l-32,0 0,219 118,0 0,-35 -86,0 0,-184z" />
<path style="fill:#4c4c4c;stroke:#000;stroke-width:2" d="M869,612 l35,0 0,219 -118,0 0,-35 83,0 0,-184z" />
<path style="fill:#4c4c4c;stroke:#000;stroke-width:2" d="M694,253 l-25,0 0,333 25,0 0,-333z" />
<path style="fill:#7f7f7f" d="M904,186 l-102,0 0,470 102,0 0,-470z" />
<path style="fill:#999" d="M904,224 l-102,0 0,394 102,0 0,-394z" />
<path style="fill:#b2b2b2" d="M904,285 l-102,0 0,270 102,0 0,-270z" />
<path style="fill:#ccc" d="M904,361 l-102,0 0,117 102,0 0,-117z" />
<path style="fill:none;stroke:#000;stroke-width:2" d="M904,186 l-102,0 0,470 102,0 0,-470" />
<path style="fill:#7f7f7f" d="M789,186 l-98,0 0,470 98,0 0,-470z" />
<path style="fill:#999" d="M789,224 l-98,0 0,394 98,0 0,-394z" />
<path style="fill:#b2b2b2" d="M789,285 l-98,0 0,270 98,0 0,-270z" />
<path style="fill:#ccc" d="M789,361 l-98,0 0,117 98,0 0,-117z" />
<path style="fill:none;stroke:#000;stroke-width:2" d="M789,186 l-98,0 0,470 98,0 0,-470" />
<path style="fill:#7f7f7f" d="M970,256 l-66,0 0,327 66,0 0,-327z" />
<path style="fill:#999" d="M970,282 l-66,0 0,276 66,0 0,-276z" />
<path style="fill:#b2b2b2" d="M970,326 l-66,0 0,187 66,0 0,-187z" />
<path style="fill:#ccc" d="M970,380 l-66,0 0,83 66,0 0,-83z" />
<path style="fill:none;stroke:#000;stroke-width:2" d="M970,256 l-66,0 0,327 66,0 0,-327" />
<path style="fill:#666;stroke:#000;stroke-width:2" d="M904,345 l66,-13 -66,-12 0,25z" />
<path style="fill:#666;stroke:#000;stroke-width:2" d="M904,491 l66,13 -66,12 0,-25z" />
<path style="fill:#7f7f7f;stroke:#000;stroke-width:2" d="M970,332 l-66,-12 0,-16 66,12 0,16z" />
<path style="fill:#7f7f7f;stroke:#000;stroke-width:2" d="M970,504 l-66,12 0,16 66,-12 0,-16z" />
<path style="fill:#7f7f7f" d="M904,59 l0,-31 -219,0 0,31 219,0z" />
<path style="fill:#999" d="M885,59 l0,-31 -181,0 0,31 181,0z" />
<path style="fill:#b2b2b2" d="M856,59 l0,-31 -124,0 0,31 124,0z" />
<path style="fill:#ccc" d="M821,59 l0,-31 -54,0 0,31 54,0z" />
<path style="fill:none;stroke:#000;stroke-width:2" d="M904,59 l0,-31 -219,0 0,31 219,0" />
<path style="fill:#333;stroke:#000;stroke-width:2" d="M805,50 l-19,0 0,606 19,0 0,-606z" />
<path style="fill:#666;stroke:#000;stroke-width:2" d="M818,228 l4,-8 4,-9 8,-8 9,-2 9,-2 9,-2 10,-1 10,-2 3,-1 4,0 0,-134 -184,0 0,9 0,8 0,117 9,1 10,2 10,2 10,2 11,2 6,1 7,8 4,9 1,4 2,4 2,0 13,0 0,-169 13,0 0,169 16,0z" />
<path style="fill:#7f7f7f;stroke:#000;stroke-width:2" d="M818,228 l-16,0 0,-169 16,0 0,169z" />
<path style="fill:#7f7f7f;stroke:#000;stroke-width:2" d="M789,228 l-15,0 0,-169 15,0 0,169z" />
<path style="fill:none;stroke:#000;stroke-width:2" d="M831,202 l0,-139" />
<path style="fill:none;stroke:#000;stroke-width:2" d="M761,202 l0,-139" />
<path style="fill:#7f7f7f;stroke:#000;stroke-width:2" d="M669,218 l-445,0 0,394 445,0 0,-394z" />
<path style="fill:#b2b2b2;stroke:#000;stroke-width:2" d="M653,304 l-413,0 0,16 413,0 0,-16z" />
<path style="fill:#b2b2b2;stroke:#000;stroke-width:2" d="M653,253 l-413,0 0,16 413,0 0,-16z" />
<path style="fill:#b2b2b2;stroke:#000;stroke-width:2" d="M653,202 l-413,0 0,16 413,0 0,-16z" />
<path style="fill:none;stroke:#fff;stroke-width:2" d="M653,320 l0,266" />
<path style="fill:none;stroke:#000;stroke-width:2" d="M240,320 l0,266" />
<path style="fill:#666;stroke:#000;stroke-width:2" d="M418,421 l0,165 67,0 0,-165 -1,-7 -2,-6 -3,-6 -4,-5 -6,-5 -6,-3 -6,-2 -7,-1 -7,1 -6,2 -5,3 -5,5 -4,5 -3,6 -1,6 -1,7z" />
<path style="fill:#666;stroke:#000;stroke-width:2" d="M574,475 l0,111 44,0 0,-111 0,-4 -2,-4 -2,-4 -2,-4 -4,-2 -3,-2 -5,-2 -4,0 -5,0 -4,2 -4,2 -3,2 -3,4 -2,4 -1,4 0,4z" />
<path style="fill:#666;stroke:#000;stroke-width:2" d="M275,475 l0,111 45,0 0,-111 -1,-4 -1,-4 -2,-4 -3,-4 -3,-2 -4,-2 -4,-2 -5,0 -4,0 -4,2 -4,2 -3,2 -3,4 -2,4 -1,4 -1,4z" />
<path style="fill:#999;stroke:#000;stroke-width:2" d="M577,570 l16,0 0,16 -16,0 0,-16z" />
<path style="fill:#ccc;stroke:#000;stroke-width:2" d="M615,570 l-22,0 0,16 22,0 0,-16z" />
<path style="fill:#999;stroke:#000;stroke-width:2" d="M278,570 l19,0 0,16 -19,0 0,-16z" />
<path style="fill:#ccc;stroke:#000;stroke-width:2" d="M316,570 l-19,0 0,16 19,0 0,-16z" />
<path style="fill:#999;stroke:#000;stroke-width:2" d="M751,180 l0,-16 19,0 0,16 -19,0z" />
<path style="fill:#ccc;stroke:#000;stroke-width:2" d="M751,142 l0,22 19,0 0,-22 -19,0z" />
<path style="fill:#999;stroke:#000;stroke-width:2" d="M751,123 l0,-16 19,0 0,16 -19,0z" />
<path style="fill:#ccc;stroke:#000;stroke-width:2" d="M751,85 l0,22 19,0 0,-22 -19,0z" />
<path style="fill:#999;stroke:#000;stroke-width:2" d="M824,180 l0,-16 16,0 0,16 -16,0z" />
<path style="fill:#ccc;stroke:#000;stroke-width:2" d="M824,142 l0,22 16,0 0,-22 -16,0z" />
<path style="fill:#999;stroke:#000;stroke-width:2" d="M824,123 l0,-16 16,0 0,16 -16,0z" />
<path style="fill:#ccc;stroke:#000;stroke-width:2" d="M824,85 l0,22 16,0 0,-22 -16,0z" />
<path style="fill:#7f7f7f" d="M224,386 l-196,0 0,67 196,0 0,-67z" />
<path style="fill:#999" d="M224,393 l-196,0 0,54 196,0 0,-54z" />
<path style="fill:#b2b2b2" d="M224,402 l-196,0 0,38 196,0 0,-38z" />
<path style="fill:#ccc" d="M224,412 l-196,0 0,16 196,0 0,-16z" />
<path style="fill:none;stroke:#000;stroke-width:2" d="M224,386 l-196,0 0,67 196,0 0,-67" />
<path style="fill:#999;stroke:#000;stroke-width:2" d="M904,612 l31,0 0,219 -117,0 0,-35 86,0 0,-184z" />
<path style="fill:#999;stroke:#000;stroke-width:2" d="M259,612 l-35,0 0,219 118,0 0,-35 -83,0 0,-184z" />

</svg>
