 

<svg xmlns:agg="http://www.example.com" xmlns="http://www.w3.org/2000/svg" preserveAspectRatio="none" width="1.4671in" height="1.0750in" viewBox="0 0 999 732">

<path style="fill:#b2b2b2;stroke:#000;stroke-width:2" d="M193,549 l-114,0 0,38 7,0 0,81 -7,0 0,36 170,0 0,-36 -125,0 0,-81 58,0 0,43 228,0 0,-54 -190,0 -22,-18 -5,-9z" />
<path style="fill:#b2b2b2;stroke:#000;stroke-width:2" d="M558,668 l361,0 0,36 -361,0 0,-36z" />
<path style="fill:#b2b2b2;stroke:#000;stroke-width:2" d="M697,587 l130,0 76,81 -309,0 103,-81z" />
<path style="fill:#e0e0e0;stroke:#000;stroke-width:2" d="M753,668 l22,0 0,-81 -22,0 0,81z" />
<path style="fill:#e0e0e0;stroke:#000;stroke-width:2" d="M410,131 l0,445 -190,0 -22,-18 -20,-47 -12,-71 -6,-88 6,-85 12,-71 18,-47 22,-18 192,0z" />
<path style="fill:#e0e0e0;stroke:#000;stroke-width:2" d="M500,565 l0,-423 103,62 0,303 -36,27 -40,22 -27,9z" />
<path style="fill:#e0e0e0;stroke:#000;stroke-width:2" d="M646,124 l176,0 21,18 11,49 4,74 3,90 -3,89 -4,74 -11,49 -21,20 -176,0 0,-463z" />
<path style="fill:#e0e0e0;stroke:#000;stroke-width:2" d="M970,198 l-36,0 0,315 36,0 0,-315z" />
<path style="fill:#e0e0e0;stroke:#000;stroke-width:2" d="M670,57 l0,67 139,0 0,-67 -139,0z" />
<path style="fill:#e0e0e0;stroke:#000;stroke-width:2" d="M592,28 l0,29 295,0 0,-29 -295,0z" />
<path style="fill:#e0e0e0;stroke:#000;stroke-width:2" d="M95,321 l25,0 0,-29 -25,0 0,29z" />
<path style="fill:#e0e0e0;stroke:#000;stroke-width:2" d="M191,540 l-13,-31 -12,-69 -6,-88 2,-31 -105,0 -3,0 -8,9 -5,10 -5,15 -2,8 -1,8 -2,10 -1,10 -1,10 -1,11 0,12 0,11 0,12 0,11 1,11 1,10 1,10 2,10 1,9 5,15 4,12 5,9 6,5 3,0 134,0 0,-9z" />
<path style="fill:#e0e0e0;stroke:#000;stroke-width:2" d="M75,292 l65,0 0,-105 -65,0 0,105z" />
<path style="fill:#e0e0e0;stroke:#000;stroke-width:2" d="M410,79 l90,0 0,551 -90,0 0,-551z" />
<path style="fill:#e0e0e0;stroke:#000;stroke-width:2" d="M603,108 l43,0 0,493 -43,0 0,-493z" />
<path style="fill:#e0e0e0;stroke:#000;stroke-width:2" d="M881,263 l9,6 6,21 7,29 0,36 0,35 -7,30 -6,20 -9,6 -23,0 3,-2 0,-89 0,-90 0,-2 20,0z" />
<path style="fill:#e0e0e0;stroke:#000;stroke-width:2" d="M894,283 l2,7 7,29 0,36 0,35 -7,30 -2,8 40,0 0,-145 -40,0z" />
<path style="fill:#f0f0f0;stroke:#000;stroke-width:2" d="M52,446 l85,0 0,81 -85,0 0,-81z" />
<path style="fill:#f0f0f0;stroke:#000;stroke-width:2" d="M395,115 l13,0 0,-13 -13,0 0,13z" />
<path style="fill:#f0f0f0;stroke:#000;stroke-width:2" d="M395,198 l13,0 0,-14 -13,0 0,14z" />
<path style="fill:#f0f0f0;stroke:#000;stroke-width:2" d="M395,281 l13,0 0,-12 -13,0 0,12z" />
<path style="fill:#f0f0f0;stroke:#000;stroke-width:2" d="M395,363 l13,0 0,-11 -13,0 0,11z" />
<path style="fill:#f0f0f0;stroke:#000;stroke-width:2" d="M395,446 l13,0 0,-13 -13,0 0,13z" />
<path style="fill:#f0f0f0;stroke:#000;stroke-width:2" d="M395,612 l13,0 0,-13 -13,0 0,13z" />
<path style="fill:#f0f0f0;stroke:#000;stroke-width:2" d="M395,529 l13,0 0,-13 -13,0 0,13z" />
<path style="fill:#000" d="M79,507 l-7,-20 7,-18 18,-7 20,7 7,18 -7,20 -20,6 -18,-6z" />
<path style="fill:#f0f0f0" d="M216,621 l22,0 11,-20 -11,-18 -22,0 -9,18 9,20z" />
<path style="fill:#f0f0f0" d="M269,621 l23,0 11,-20 -11,-18 -23,0 -8,18 8,20z" />
<path style="fill:#f2f2f2;stroke:#000;stroke-width:2" d="M646,520 l105,0 0,-18 -105,0 0,18z" />
<path style="fill:#f2f2f2;stroke:#000;stroke-width:2" d="M585,527 l18,0 0,-16 -18,0 0,16z" />
<path style="fill:#f2f2f2;stroke:#000;stroke-width:2" d="M646,346 l105,0 0,-16 -105,0 0,16z" />
<path style="fill:#f2f2f2;stroke:#000;stroke-width:2" d="M585,355 l18,0 0,-18 -18,0 0,18z" />
<path style="fill:#f2f2f2;stroke:#000;stroke-width:2" d="M646,184 l105,0 0,-18 -105,0 0,18z" />
<path style="fill:#f2f2f2;stroke:#000;stroke-width:2" d="M585,193 l18,0 0,-17 -18,0 0,17z" />
<path style="fill:#ccc;stroke:#000;stroke-width:2" d="M585,193 l18,0 0,9 -18,0 0,-9z" />
<path style="fill:#ccc;stroke:#000;stroke-width:2" d="M646,184 l105,0 0,18 -105,0 0,-18z" />
<path style="fill:#ccc;stroke:#000;stroke-width:2" d="M585,355 l18,0 0,8 -18,0 0,-8z" />
<path style="fill:#ccc;stroke:#000;stroke-width:2" d="M646,346 l105,0 0,17 -105,0 0,-17z" />
<path style="fill:#ccc;stroke:#000;stroke-width:2" d="M585,527 l18,0 0,11 -18,0 0,-11z" />
<path style="fill:#ccc;stroke:#000;stroke-width:2" d="M646,520 l105,0 0,18 -105,0 0,-18z" />
<path style="fill:#b2b2b2;stroke:#000;stroke-width:2" d="M395,115 l13,0 0,9 -13,0 0,-9z" />
<path style="fill:#b2b2b2;stroke:#000;stroke-width:2" d="M395,198 l13,0 0,6 -13,0 0,-6z" />
<path style="fill:#b2b2b2;stroke:#000;stroke-width:2" d="M395,281 l13,0 0,6 -13,0 0,-6z" />
<path style="fill:#b2b2b2;stroke:#000;stroke-width:2" d="M395,363 l13,0 0,7 -13,0 0,-7z" />
<path style="fill:#b2b2b2;stroke:#000;stroke-width:2" d="M395,446 l13,0 0,7 -13,0 0,-7z" />
<path style="fill:#b2b2b2;stroke:#000;stroke-width:2" d="M395,529 l13,0 0,9 -13,0 0,-9z" />
<path style="fill:#b2b2b2;stroke:#000;stroke-width:2" d="M395,612 l13,0 0,7 -13,0 0,-7z" />
<path style="fill:#b2b2b2;stroke:#000;stroke-width:2" d="M500,102 l13,0 0,15 -13,0 0,-15z" />
<path style="fill:#b2b2b2;stroke:#000;stroke-width:2" d="M500,184 l13,0 0,16 -13,0 0,-16z" />
<path style="fill:#b2b2b2;stroke:#000;stroke-width:2" d="M500,267 l13,0 0,16 -13,0 0,-16z" />
<path style="fill:#b2b2b2;stroke:#000;stroke-width:2" d="M500,350 l13,0 0,16 -13,0 0,-16z" />
<path style="fill:#b2b2b2;stroke:#000;stroke-width:2" d="M500,433 l13,0 0,15 -13,0 0,-15z" />
<path style="fill:#b2b2b2;stroke:#000;stroke-width:2" d="M500,516 l13,0 0,15 -13,0 0,-15z" />
<path style="fill:#b2b2b2;stroke:#000;stroke-width:2" d="M500,596 l13,0 0,16 -13,0 0,-16z" />
<path style="fill:#fff" d="M395,594 l13,0 0,5 -13,0 0,-5z" />
<path style="fill:#fff" d="M395,511 l13,0 0,5 -13,0 0,-5z" />
<path style="fill:#fff" d="M395,426 l13,0 0,7 -13,0 0,-7z" />
<path style="fill:#fff" d="M395,343 l13,0 0,9 -13,0 0,-9z" />
<path style="fill:#fff" d="M395,261 l13,0 0,8 -13,0 0,-8z" />
<path style="fill:#fff" d="M395,180 l13,0 0,4 -13,0 0,-4z" />
<path style="fill:#fff" d="M395,97 l13,0 0,5 -13,0 0,-5z" />
<path style="fill:#fff" d="M417,108 l74,0 0,36 -74,0 0,-36z" />
<path style="fill:#fff" d="M404,144 l-199,0 -14,38 213,0 0,-38z" />
<path style="fill:#fff" d="M88,290 l11,0 0,-97 -11,0 0,97z" />
<path style="fill:#fff" d="M52,343 l101,0 0,38 -110,0 9,-38z" />
<path style="fill:#fff" d="M608,131 l33,0 0,31 -33,0 0,-31z" />
<path style="fill:#fff" d="M831,131 l-181,0 0,20 190,0 -9,-20z" />
<path style="fill:#fff" d="M612,32 l0,20 49,0 0,-20 -49,0z" />
<path style="fill:#fff" d="M686,61 l0,58 22,0 0,-58 -22,0z" />
<path style="fill:#fff" d="M863,281 l29,0 4,15 -33,0 0,-15z" />
<path style="fill:#fff" d="M903,307 l31,0 0,14 -31,0 0,-14z" />
<path style="fill:#fff" d="M937,227 l29,0 0,36 -29,0 0,-36z" />
<path style="fill:#fff" d="M585,502 l18,0 0,9 -18,0 0,-9z" />
<path style="fill:#fff" d="M585,330 l18,0 0,7 -18,0 0,-7z" />
<path style="fill:#fff" d="M585,166 l18,0 0,10 -18,0 0,-10z" />
<path style="fill:none;stroke:#000;stroke-width:2" d="M455,79 l0,551" />
<path style="fill:none;stroke:#000;stroke-width:2" d="M182,587 l0,-38" />

</svg>
