 

<svg xmlns:agg="http://www.example.com" xmlns="http://www.w3.org/2000/svg" preserveAspectRatio="none" width="0.9018in" height="1.0750in" viewBox="0 0 838 999">

<path style="fill:#324c7f;stroke:#000;stroke-width:2" d="M718,959 l-126,-311 -416,0 -126,311 -22,0 0,11 69,0 23,-45 528,0 24,45 68,0 0,-11 -22,0z" />
<path style="fill:#98b2e5;stroke:#000;stroke-width:2" d="M776,465 l-2,37 -5,37 -9,35 -13,33 -15,33 -19,30 -22,28 -23,26 -26,25 -29,21 -30,18 -33,16 -34,12 -35,10 -37,5 -18,2 -20,0 -18,0 -37,-4 -36,-8 -34,-10 -33,-15 -32,-17 -29,-19 -27,-23 -25,-25 -23,-28 -20,-29 -17,-31 -14,-33 -10,-35 -8,-35 -4,-37 0,-19 0,-19 4,-37 8,-35 10,-35 14,-33 17,-31 20,-29 23,-28 25,-25 27,-22 29,-20 32,-17 33,-14 34,-11 36,-7 37,-4 31,0 30,3 30,6 22,7 -2,-64 277,0 0,415z" />
<path style="fill:#7f99cc" d="M752,463 l-2,35 -5,35 -9,33 -12,32 -14,30 -17,28 -20,27 -22,24 -25,22 -26,20 -29,17 -30,15 -32,12 -33,8 -34,5 -18,2 -18,0 -17,0 -35,-4 -33,-7 -32,-10 -31,-13 -29,-16 -28,-18 -26,-22 -23,-23 -21,-25 -19,-28 -16,-29 -13,-31 -10,-33 -8,-33 -3,-35 0,-18 0,-18 3,-34 8,-34 10,-33 13,-30 16,-30 19,-27 21,-26 23,-23 26,-21 28,-19 29,-16 31,-13 32,-10 33,-7 35,-4 30,1 30,4 33,7 28,8 12,5 0,-68 230,0 0,388z" />
<path style="fill:#98b2e5" d="M373,822 l22,0 0,-713 -22,0 0,713z" />
<path style="fill:#98b2e5" d="M73,582 l11,21 679,-506 -11,-21 -679,506z" />
<path style="fill:#98b2e5" d="M143,237 l-14,21 589,356 11,-21 -586,-356z" />
<ellipse style="fill:#7f99cc;stroke:#4c6699;stroke-width:2" cx="384" cy="396" rx="208" ry="206" />
<path style="fill:#b2ccff;stroke:#000;stroke-width:2" d="M314,567 l45,13 50,0 47,-13 41,-25 34,-33 25,-42 13,-47 0,-49 -13,-47 -25,-42 -34,-34 -41,-24 -47,-12 -50,0 -47,12 -41,24 -34,34 -25,44 -11,45 0,49 11,47 25,42 34,33 43,25z" />
<path style="fill:#324c7f" d="M322,546 l41,11 42,0 41,-11 36,-23 30,-28 23,-37 11,-42 -2,-41 -9,-42 -23,-36 -28,-30 -38,-21 -41,-11 -42,0 -41,9 -36,23 -30,30 -21,36 -11,42 0,41 9,42 23,37 30,30 36,21z" />
<path style="fill:#98b2e5;stroke:#000;stroke-width:2" d="M810,28 l-345,0 0,22 345,0 0,-22z" />

</svg>
