 

<svg xmlns:agg="http://www.example.com" xmlns="http://www.w3.org/2000/svg" preserveAspectRatio="none" width="1.5610in" height="1.0750in" viewBox="0 0 530 365">

<path style="fill:#7f7f7f" d="M247,243 l-196,0 0,-108 196,0 11,1 10,3 9,5 8,7 7,8 5,9 3,10 1,11 -1,11 -3,10 -5,9 -7,8 -8,7 -9,5 -10,3 -11,1z" />
<path style="fill:#999" d="M274,236 l6,-4 5,-5 5,-5 4,-6 3,-6 2,-7 2,-7 0,-7 -1,-7 -1,-7 -2,-7 -3,-6 -4,-6 -5,-6 -5,-4 -6,-4 -223,0 0,94 223,0z" />
<path style="fill:#b2b2b2" d="M287,225 l3,-4 3,-4 2,-4 2,-5 2,-5 1,-4 1,-5 0,-5 0,-5 -1,-5 -1,-4 -2,-5 -2,-5 -2,-4 -3,-4 -3,-4 -236,0 0,72 236,0z" />
<path style="fill:#ccc" d="M295,213 l3,-6 2,-6 1,-6 0,-6 0,-6 -1,-7 -2,-6 -3,-6 -244,0 0,50 244,-1z" />
<path style="fill:#e5e5e5" d="M298,205 l1,-4 1,-4 1,-4 0,-4 0,-5 -1,-4 -1,-5 -1,-4 -247,0 0,34 247,0z" />
<path style="fill:#fff" d="M300,196 l1,-2 0,-2 0,-1 0,-2 0,-2 0,-2 0,-1 -1,-2 -249,0 0,14 249,0z" />
<path style="fill:none;stroke:#000;stroke-width:2" d="M51,135 l196,0 11,1 10,3 9,5 8,7 7,8 5,9 3,10 1,11 -1,11 -3,10 -5,9 -7,8 -8,7 -9,5 -10,3 -11,1 -196,0" />
<path style="fill:#7f7f7f" d="M15,122 l36,0 0,134 -36,0 0,-134z" />
<path style="fill:#999" d="M15,130 l36,0 0,118 -36,0 0,-118z" />
<path style="fill:#b2b2b2" d="M15,145 l36,0 0,89 -36,0 0,-89z" />
<path style="fill:#ccc" d="M15,158 l36,0 0,62 -36,0 0,-62z" />
<path style="fill:#e5e5e5" d="M15,169 l36,0 0,40 -36,0 0,-40z" />
<path style="fill:#fff" d="M15,181 l36,0 0,16 -36,0 0,-16z" />
<path style="fill:none;stroke:#000;stroke-width:2" d="M15,122 l36,0 0,134 -36,0 0,-134" />
<path style="fill:#7f7f7f;stroke:#000;stroke-width:2" d="M399,135 l116,0 0,-107 -268,0 -16,1 -16,2 -15,4 -15,6 -14,6 -13,8 -13,10 -11,10 -10,11 -10,13 -8,13 -6,14 -6,15 -4,15 -2,16 -1,16 1,16 2,17 4,15 6,15 6,14 8,13 10,13 10,11 11,11 13,9 13,8 14,7 15,6 15,4 16,2 16,1 16,-1 16,-2 16,-4 14,-6 14,-7 14,-8 12,-9 12,-11 10,-11 9,-13 8,-13 7,-14 6,-15 4,-15 2,-17 1,-16 -1,-20 -3,-13 -3,-14 -2,-6z" />
<path style="fill:#999" d="M247,37 l268,0 0,89 -268,0 0,-89z" />
<path style="fill:#b2b2b2" d="M247,48 l268,0 0,68 -268,0 0,-68z" />
<path style="fill:#ccc" d="M247,59 l268,0 0,46 -268,0 0,-46z" />
<path style="fill:#e5e5e5" d="M247,67 l268,0 0,30 -268,0 0,-30z" />
<path style="fill:#fff" d="M247,76 l268,0 0,12 -268,0 0,-12z" />
<circle style="fill:#b2b2b2" cx="247" cy="189" r="151" />
<path style="fill:#7f7f7f" d="M480,15 l35,0 0,134 -35,0 0,-134z" />
<path style="fill:#999" d="M480,23 l35,0 0,118 -35,0 0,-118z" />
<path style="fill:#b2b2b2" d="M480,37 l35,0 0,90 -35,0 0,-90z" />
<path style="fill:#ccc" d="M480,51 l35,0 0,62 -35,0 0,-62z" />
<path style="fill:#e5e5e5" d="M480,62 l35,0 0,39 -35,0 0,-39z" />
<path style="fill:#fff" d="M480,74 l35,0 0,16 -35,0 0,-16z" />
<path style="fill:none;stroke:#000;stroke-width:2" d="M480,15 l35,0 0,134 -35,0 0,-134" />

</svg>
