 

<svg xmlns:agg="http://www.example.com" xmlns="http://www.w3.org/2000/svg" preserveAspectRatio="none" width="0.7383in" height="1.0750in" viewBox="0 0 364 530">

<path style="fill:#7f7f7f;stroke:#000;stroke-width:2" d="M135,131 l0,-116 -107,0 0,267 1,16 2,16 4,16 6,15 6,14 8,13 10,12 10,12 11,10 13,10 13,8 14,6 15,6 15,4 16,2 16,1 16,-1 16,-2 16,-4 15,-6 14,-6 13,-8 12,-10 12,-10 10,-12 10,-12 8,-13 6,-14 6,-15 4,-16 2,-16 1,-16 -1,-16 -2,-16 -4,-15 -6,-15 -6,-14 -8,-13 -10,-13 -10,-11 -12,-10 -12,-10 -13,-8 -14,-6 -15,-6 -16,-4 -16,-2 -16,-1 -20,1 -13,3 -14,3 -6,2z" />
<path style="fill:#999" d="M37,282 l0,-267 89,0 0,267 -89,0z" />
<path style="fill:#b2b2b2" d="M48,282 l0,-267 67,0 0,267 -67,0z" />
<path style="fill:#ccc" d="M58,282 l0,-267 47,0 0,267 -47,0z" />
<path style="fill:#e5e5e5" d="M67,282 l0,-267 29,0 0,267 -29,0z" />
<path style="fill:#fff" d="M75,282 l0,-267 13,0 0,267 -13,0z" />
<circle style="fill:#b2b2b2" cx="188" cy="282" r="151" />
<path style="fill:#7f7f7f" d="M242,282 l0,197 -107,0 0,-197 1,-11 3,-10 5,-9 7,-7 8,-7 9,-5 10,-3 11,-1 11,1 10,3 9,5 7,7 7,7 5,9 3,10 1,11z" />
<path style="fill:#999" d="M235,256 l-4,-6 -4,-5 -5,-5 -6,-4 -6,-3 -7,-2 -7,-2 -7,0 -7,0 -8,2 -6,2 -7,3 -5,4 -6,5 -4,5 -4,6 0,223 94,0 -1,-223z" />
<path style="fill:#b2b2b2" d="M224,243 l-4,-3 -3,-3 -5,-2 -4,-2 -5,-2 -4,-1 -5,-1 -5,0 -5,0 -5,1 -4,1 -5,1 -5,2 -4,3 -4,2 -4,3 0,237 71,0 0,-236z" />
<path style="fill:#ccc" d="M213,235 l-6,-3 -6,-2 -6,-1 -6,0 -7,0 -6,1 -6,2 -6,3 0,244 49,0 0,-244z" />
<path style="fill:#e5e5e5" d="M204,231 l-4,-1 -3,0 -4,-1 -4,0 -5,0 -4,1 -5,1 -4,1 0,247 33,0 0,-248z" />
<path style="fill:#fff" d="M195,229 l-1,0 -2,0 -1,0 -2,0 -2,0 -1,0 -2,0 -2,0 0,250 13,0 0,-250z" />
<path style="fill:none;stroke:#000;stroke-width:2" d="M135,479 l0,-197 1,-11 3,-10 5,-9 7,-7 8,-7 9,-5 10,-3 11,-1 11,1 10,3 9,5 7,7 7,7 5,9 3,10 1,11 0,197" />
<path style="fill:#7f7f7f" d="M15,50 l0,-35 134,0 0,35 -134,0z" />
<path style="fill:#999" d="M23,50 l0,-35 117,0 0,35 -117,0z" />
<path style="fill:#b2b2b2" d="M37,50 l0,-35 89,0 0,35 -89,0z" />
<path style="fill:#ccc" d="M51,50 l0,-35 61,0 0,35 -61,0z" />
<path style="fill:#e5e5e5" d="M62,50 l0,-35 39,0 0,35 -39,0z" />
<path style="fill:#fff" d="M73,50 l0,-35 17,0 0,35 -17,0z" />
<path style="fill:none;stroke:#000;stroke-width:2" d="M15,50 l0,-35 134,0 0,35 -134,0" />
<path style="fill:#7f7f7f" d="M122,515 l0,-36 134,0 0,36 -134,0z" />
<path style="fill:#999" d="M130,515 l0,-36 118,0 0,36 -118,0z" />
<path style="fill:#b2b2b2" d="M144,515 l0,-36 90,0 0,36 -90,0z" />
<path style="fill:#ccc" d="M158,515 l0,-36 62,0 0,36 -62,0z" />
<path style="fill:#e5e5e5" d="M169,515 l0,-36 39,0 0,36 -39,0z" />
<path style="fill:#fff" d="M181,515 l0,-36 16,0 0,36 -16,0z" />
<path style="fill:none;stroke:#000;stroke-width:2" d="M122,515 l0,-36 134,0 0,36 -134,0" />

</svg>
