 

<svg xmlns:agg="http://www.example.com" xmlns="http://www.w3.org/2000/svg" preserveAspectRatio="none" width="0.5327in" height="1.0750in" viewBox="0 0 495 999">

<path style="fill:#00f;fill-rule:evenodd" d="M202,837 l84,0 2,37 7,35 14,33 23,28 -89,0 -82,0 19,-30 14,-33 6,-35 2,-35z M200,872 l-6,35 -14,33 -13,20 13,-160 2,4 8,10 14,10 -2,13 -2,35z M202,824 l43,0 0,13 -43,0 0,-13z M245,796 l-4,0 0,28 -39,0 -12,-10 -8,-10 -6,-12 -2,-15 71,0 0,19z M163,777 l165,0 0,-10 -165,0 0,10z M163,718 l165,0 0,47 -165,0 0,-47z M241,644 l-39,0 -12,-9 -8,-12 -2,-4 0,64 8,-13 14,-12 39,0 0,2 0,-16z M245,615 l-4,0 0,29 -39,0 -12,-9 -8,-12 -6,-12 -2,-14 71,0 0,18z M241,714 l6,0 0,-7 5,5 2,6 -89,0 4,-17 9,-16 10,-15 14,-12 39,0 0,56z M163,597 l165,0 0,-11 -165,0 0,11z M163,539 l165,0 0,47 -165,0 0,-47z M241,465 l-39,0 -12,-8 -8,-12 -2,-5 0,62 8,-10 14,-13 39,0 0,2 0,-16z M245,436 l-4,0 0,29 -39,0 -12,-8 -8,-12 -6,-13 -2,-14 71,0 0,18z M241,535 l6,0 0,-6 5,4 2,6 -89,0 4,-16 9,-17 10,-14 14,-13 39,0 0,56z M163,418 l165,0 0,-10 -165,0 0,10z M163,399 l165,0 0,9 -165,0 0,-9z M202,399 l84,0 0,-61 -84,0 0,61z M87,311 l314,0 0,19 -314,0 0,-19z M38,178 l0,139 -10,0 0,-139 10,0z M467,178 l0,139 -10,0 0,-139 10,0z M360,210 l0,74 97,0 0,-74 -97,0z M130,284 l0,-74 -92,0 0,74 92,0z M130,67 l0,28 -22,0 -4,-4 0,-20 4,-4 22,0z M118,73 l8,8 -8,6 -8,-6 8,-8z M360,95 l0,-28 23,0 4,4 0,20 -4,4 -23,0z M373,73 l-8,8 8,6 8,-6 -8,-8z M360,311 l-230,0 0,-275 230,0 0,275z M108,28 l273,0 0,8 -273,0 0,-8z M163,340 l165,0 0,-10 -165,0 0,10z " />
<path style="fill:none;stroke:#000;stroke-width:2" d="M202,837 l84,0 2,37 7,35 14,33 23,28 -89,0 -82,0 19,-30 14,-33 6,-35 2,-35" />
<path style="fill:none;stroke:#000;stroke-width:2" d="M202,837 l-2,35 -6,35 -14,33 -13,20 13,-160 2,4 8,10 14,10 -2,13" />
<path style="fill:none;stroke:#000;stroke-width:2" d="M202,824 l43,0 0,13 -43,0 0,-13" />
<path style="fill:none;stroke:#000;stroke-width:2" d="M245,796 l-4,0 0,28 -39,0 -12,-10 -8,-10 -6,-12 -2,-15 71,0 0,19" />
<path style="fill:none;stroke:#000;stroke-width:2" d="M163,777 l165,0 0,-10 -165,0 0,10" />
<path style="fill:none;stroke:#000;stroke-width:2" d="M163,718 l165,0 0,47 -165,0 0,-47" />
<path style="fill:none;stroke:#000;stroke-width:2" d="M241,644 l-39,0 -12,-9 -8,-12 -2,-4 0,64 8,-13 14,-12 39,0 0,2 0,-16" />
<path style="fill:none;stroke:#000;stroke-width:2" d="M245,615 l-4,0 0,29 -39,0 -12,-9 -8,-12 -6,-12 -2,-14 71,0 0,18" />
<path style="fill:none;stroke:#000;stroke-width:2" d="M241,714 l6,0 0,-7 5,5 2,6 -89,0 4,-17 9,-16 10,-15 14,-12 39,0 0,56" />
<path style="fill:none;stroke:#000;stroke-width:2" d="M163,597 l165,0 0,-11 -165,0 0,11" />
<path style="fill:none;stroke:#000;stroke-width:2" d="M163,539 l165,0 0,47 -165,0 0,-47" />
<path style="fill:none;stroke:#000;stroke-width:2" d="M241,465 l-39,0 -12,-8 -8,-12 -2,-5 0,62 8,-10 14,-13 39,0 0,2 0,-16" />
<path style="fill:none;stroke:#000;stroke-width:2" d="M245,436 l-4,0 0,29 -39,0 -12,-8 -8,-12 -6,-13 -2,-14 71,0 0,18" />
<path style="fill:none;stroke:#000;stroke-width:2" d="M241,535 l6,0 0,-6 5,4 2,6 -89,0 4,-16 9,-17 10,-14 14,-13 39,0 0,56" />
<path style="fill:none;stroke:#000;stroke-width:2" d="M163,418 l165,0 0,-10 -165,0 0,10" />
<path style="fill:none;stroke:#000;stroke-width:2" d="M163,399 l165,0 0,9 -165,0 0,-9" />
<path style="fill:none;stroke:#000;stroke-width:2" d="M202,399 l84,0 0,-61 -84,0 0,61" />
<path style="fill:none;stroke:#000;stroke-width:2" d="M87,311 l314,0 0,19 -314,0 0,-19" />
<path style="fill:none;stroke:#000;stroke-width:2" d="M38,178 l0,139 -10,0 0,-139 10,0" />
<path style="fill:none;stroke:#000;stroke-width:2" d="M467,178 l0,139 -10,0 0,-139 10,0" />
<path style="fill:none;stroke:#000;stroke-width:2" d="M360,210 l0,74 97,0 0,-74 -97,0" />
<path style="fill:none;stroke:#000;stroke-width:2" d="M130,284 l0,-74 -92,0 0,74 92,0" />
<path style="fill:none;stroke:#000;stroke-width:2" d="M130,67 l0,28 -22,0 -4,-4 0,-20 4,-4 22,0" />
<path style="fill:none;stroke:#000;stroke-width:2" d="M118,73 l8,8 -8,6 -8,-6 8,-8" />
<path style="fill:none;stroke:#000;stroke-width:2" d="M360,95 l0,-28 23,0 4,4 0,20 -4,4 -23,0" />
<path style="fill:none;stroke:#000;stroke-width:2" d="M373,73 l-8,8 8,6 8,-6 -8,-8" />
<path style="fill:none;stroke:#000;stroke-width:2" d="M360,311 l-230,0 0,-275 230,0 0,275" />
<path style="fill:none;stroke:#000;stroke-width:2" d="M108,28 l273,0 0,8 -273,0 0,-8" />
<path style="fill:none;stroke:#000;stroke-width:2" d="M163,340 l165,0 0,-10 -165,0 0,10" />
<path style="fill:#7f7fff" d="M124,28 l27,0 0,6 -27,0 0,-6z" />
<path style="fill:#7f7fff" d="M360,214 l0,9 97,0 0,-9 -97,0z" />
<path style="fill:#7f7fff" d="M130,223 l0,-9 -92,0 0,9 92,0z" />
<path style="fill:#7f7fff" d="M145,309 l20,0 0,-273 -20,0 0,273z" />
<path style="fill:#7f7fff" d="M108,311 l28,0 0,16 -28,0 0,-16z" />
<path style="fill:#7f7fff" d="M171,338 l17,0 0,-6 -17,0 0,6z" />
<path style="fill:#7f7fff" d="M204,399 l6,0 0,-61 -6,0 0,61z" />
<path style="fill:#7f7fff" d="M171,399 l17,0 0,9 -17,0 0,-9z" />
<path style="fill:#7f7fff" d="M165,541 l21,0 0,43 -21,0 0,-43z" />
<path style="fill:#7f7fff" d="M204,479 l6,0 0,-12 -6,0 0,12z" />
<path style="fill:#7f7fff" d="M206,465 l-8,-4 -6,-6 -4,-6 -4,-4 -2,-7 -2,-6 -2,-6 0,-8 12,0 0,8 0,6 2,6 2,5 4,6 4,6 4,6 6,4 -6,0z" />
<path style="fill:#7f7fff" d="M188,539 l-21,0 2,-8 2,-8 5,-9 2,-6 6,-8 4,-6 8,-6 6,-9 6,2 -2,7 -4,8 -4,6 -4,8 -2,6 -2,9 0,8 -2,6z" />
<path style="fill:#7f7fff" d="M165,720 l21,0 0,43 -21,0 0,-43z" />
<path style="fill:#7f7fff" d="M204,658 l6,0 0,-12 -6,0 0,12z" />
<path style="fill:#7f7fff" d="M206,644 l-8,-4 -6,-7 -4,-6 -4,-4 -2,-6 -2,-6 -2,-6 0,-8 12,0 0,8 0,6 2,6 2,4 4,6 4,6 4,7 6,4 -6,0z" />
<path style="fill:#7f7fff" d="M188,718 l-21,0 2,-8 2,-9 5,-8 2,-6 6,-8 4,-6 8,-7 6,-8 6,2 -2,6 -4,9 -4,6 -4,8 -2,6 -2,8 0,9 -2,6z" />
<path style="fill:#7f7fff" d="M171,775 l17,0 0,-6 -17,0 0,6z" />
<path style="fill:#7f7fff" d="M206,822 l-8,-4 -6,-6 -4,-4 -4,-6 -2,-6 -2,-6 -2,-7 0,-6 12,0 0,6 0,7 2,6 2,6 4,6 4,4 4,6 6,4 -6,0z" />
<path style="fill:#7f7fff" d="M206,824 l4,0 0,11 -4,0 0,-11z" />
<path style="fill:#7f7fff" d="M163,968 l17,-26 14,-33 8,-35 2,-23 0,-14 6,0 0,22 0,43 -4,33 -8,25 -6,8 -29,0z" />
<path style="fill:#7f7fff" d="M171,597 l17,0 0,-9 -17,0 0,9z" />
<path style="fill:#7f7fff" d="M171,418 l17,0 0,-8 -17,0 0,8z" />
<path style="fill:#7f7fff" d="M465,186 l0,14 -6,0 0,-14 6,0z" />
<path style="fill:#7f7fff" d="M38,186 l0,14 -10,0 0,-14 10,0z" />
<path style="fill:#0000bf" d="M286,824 l-41,0 0,13 41,0 0,-13z" />
<path style="fill:#0000bf" d="M286,837 l2,37 7,35 14,33 12,14 -12,-154 0,2 -10,10 -13,10 0,13z" />
<path style="fill:#0000bf" d="M245,796 l2,0 0,28 39,0 13,-10 10,-10 4,-12 2,-15 -70,0 0,19z" />
<path style="fill:#0000bf" d="M268,777 l60,0 0,-10 -60,0 0,10z" />
<path style="fill:#0000bf" d="M254,718 l74,0 0,47 -74,0 0,-47z" />
<path style="fill:#0000bf" d="M247,644 l39,0 13,-9 10,-12 2,-4 0,64 -10,-13 -15,-12 -39,0 0,2 0,-16z" />
<path style="fill:#0000bf" d="M247,707 l5,5 2,6 69,0 -4,-17 -6,-16 -12,-15 -15,-12 -39,0 0,49z" />
<path style="fill:#0000bf" d="M245,615 l2,0 0,29 39,0 13,-9 10,-12 4,-12 2,-14 -70,0 0,18z" />
<path style="fill:#0000bf" d="M268,597 l60,0 0,-9 -60,0 0,9z" />
<path style="fill:#0000bf" d="M254,539 l74,0 0,47 -74,0 0,-47z" />
<path style="fill:#0000bf" d="M247,465 l39,0 13,-8 10,-12 2,-5 0,62 -10,-10 -15,-13 -39,0 0,-14z" />
<path style="fill:#0000bf" d="M247,529 l5,4 2,6 69,0 -4,-16 -6,-17 -12,-14 -15,-13 -39,0 0,50z" />
<path style="fill:#0000bf" d="M245,436 l2,0 0,29 39,0 13,-8 10,-12 4,-13 2,-14 -70,0 0,18z" />
<path style="fill:#0000bf" d="M268,418 l60,0 0,-8 -60,0 0,8z" />
<path style="fill:#0000bf" d="M268,399 l60,0 0,9 -60,0 0,-9z" />
<path style="fill:#0000bf" d="M254,399 l32,0 0,-61 -32,0 0,61z" />
<path style="fill:#0000bf" d="M268,340 l60,0 0,-10 -60,0 0,10z" />
<path style="fill:#0000bf" d="M38,268 l0,49 -10,0 0,-49 10,0z" />
<path style="fill:#0000bf" d="M467,268 l0,49 -10,0 0,-49 10,0z" />
<path style="fill:#0000bf" d="M360,258 l0,26 97,0 0,-26 -97,0z" />
<path style="fill:#0000bf" d="M130,284 l0,-26 -92,0 0,26 92,0z" />
<path style="fill:#0000bf" d="M360,311 l-84,0 0,-275 84,0 0,275z" />
<path style="fill:#0000bf" d="M282,28 l99,0 0,8 -99,0 0,-8z" />
<path style="fill:#0000bf" d="M288,311 l113,0 0,16 -113,0 0,-16z" />
<path style="fill:#000;stroke:#000;stroke-width:2" d="M219,93 l53,0 14,13 0,100 -14,13 -53,0 -15,-13 0,-100 15,-13z" />
<path style="fill:#0000ad" d="M241,962 l6,0 0,-168 -6,0 0,168z" />
<path style="fill:#0000ad" d="M241,714 l6,0 0,-99 -6,0 0,99z" />
<path style="fill:#0000ad" d="M241,535 l6,0 0,-99 -6,0 0,99z" />
<path style="fill:#0000ad" d="M360,311 l-20,0 0,-275 20,0 0,275z" />
<path style="fill:#0000ad" d="M356,28 l25,0 0,8 -25,0 0,-8z" />
<path style="fill:#0000ad" d="M375,311 l26,0 0,19 -26,0 0,-19z" />
<path style="fill:#0000ad" d="M313,777 l15,0 0,-10 -15,0 0,10z" />
<path style="fill:#0000ad" d="M313,597 l15,0 0,-11 -15,0 0,11z" />
<path style="fill:#0000ad" d="M313,418 l15,0 0,-10 -15,0 0,10z" />
<path style="fill:#0000ad" d="M313,399 l15,0 0,9 -15,0 0,-9z" />
<path style="fill:#0000ad" d="M313,340 l15,0 0,-10 -15,0 0,10z" />
<path style="fill:#0000ad" d="M38,305 l0,12 -10,0 0,-12 10,0z" />
<path style="fill:#0000ad" d="M467,305 l0,12 -10,0 0,-12 10,0z" />
<path style="fill:#0000ad" d="M360,278 l0,6 97,0 0,-6 -97,0z" />
<path style="fill:#0000ad" d="M130,284 l0,-6 -92,0 0,6 92,0z" />
<path style="fill:#7f7f7f" d="M311,783 l8,0 2,0 0,-6 -14,0 0,6 4,0z" />
<path style="fill:#7f7f7f" d="M276,783 l8,0 2,0 0,-6 -14,0 0,6 4,0z" />
<path style="fill:#7f7f7f" d="M239,783 l8,0 5,0 0,-6 -15,0 0,6 2,0z" />
<path style="fill:#7f7f7f" d="M204,783 l8,0 5,0 0,-6 -15,0 0,6 2,0z" />
<path style="fill:#7f7f7f" d="M169,783 l9,0 2,0 0,-6 -15,0 0,6 4,0z" />
<path style="fill:#7f7f7f" d="M311,603 l0,2 8,0 0,-2 2,0 0,-6 -14,0 0,6 4,0z" />
<path style="fill:#7f7f7f" d="M276,603 l0,2 8,0 0,-2 2,0 0,-6 -14,0 0,6 4,0z" />
<path style="fill:#7f7f7f" d="M239,603 l0,2 8,0 0,-2 5,0 0,-6 -15,0 0,6 2,0z" />
<path style="fill:#7f7f7f" d="M204,603 l0,2 8,0 0,-2 5,0 0,-6 -15,0 0,6 2,0z" />
<path style="fill:#7f7f7f" d="M169,603 l0,2 9,0 0,-2 2,0 0,-6 -15,0 0,6 4,0z" />
<path style="fill:#7f7f7f" d="M311,424 l0,2 8,0 0,-2 2,0 0,-6 -14,0 0,6 4,0z" />
<path style="fill:#7f7f7f" d="M276,424 l0,2 8,0 0,-2 2,0 0,-6 -14,0 0,6 4,0z" />
<path style="fill:#7f7f7f" d="M239,424 l0,2 8,0 0,-2 5,0 0,-6 -15,0 0,6 2,0z" />
<path style="fill:#7f7f7f" d="M204,424 l0,2 8,0 0,-2 5,0 0,-6 -15,0 0,6 2,0z" />
<path style="fill:#7f7f7f" d="M169,424 l0,2 9,0 0,-2 2,0 0,-6 -15,0 0,6 4,0z" />
<path style="fill:#7f7f7f" d="M311,393 l0,-2 8,0 0,2 2,0 0,6 -14,0 0,-6 4,0z" />
<path style="fill:#7f7f7f" d="M276,393 l0,-2 8,0 0,2 2,0 0,6 -14,0 0,-6 4,0z" />
<path style="fill:#7f7f7f" d="M239,393 l0,-2 8,0 0,2 5,0 0,6 -15,0 0,-6 2,0z" />
<path style="fill:#7f7f7f" d="M204,393 l0,-2 8,0 0,2 5,0 0,6 -15,0 0,-6 2,0z" />
<path style="fill:#7f7f7f" d="M169,393 l0,-2 9,0 0,2 2,0 0,6 -15,0 0,-6 4,0z" />
<path style="fill:#7f7f7f" d="M311,346 l8,0 2,0 0,-6 -14,0 0,6 4,0z" />
<path style="fill:#7f7f7f" d="M276,346 l8,0 2,0 0,-6 -14,0 0,6 4,0z" />
<path style="fill:#7f7f7f" d="M239,346 l8,0 5,0 0,-6 -15,0 0,6 2,0z" />
<path style="fill:#7f7f7f" d="M204,346 l8,0 5,0 0,-6 -15,0 0,6 2,0z" />
<path style="fill:#7f7f7f" d="M169,346 l9,0 2,0 0,-6 -15,0 0,6 4,0z" />
<path style="fill:#b2b2b2" d="M317,346 l0,-6 -6,0 0,6 6,0z" />
<path style="fill:#b2b2b2" d="M282,346 l0,-6 -6,0 0,6 6,0z" />
<path style="fill:#b2b2b2" d="M247,346 l0,-6 -8,0 0,6 8,0z" />
<path style="fill:#b2b2b2" d="M212,346 l0,-6 -8,0 0,6 8,0z" />
<path style="fill:#b2b2b2" d="M176,346 l0,-6 -7,0 0,6 7,0z" />
<path style="fill:#b2b2b2" d="M317,393 l0,4 -6,0 0,-4 6,0z" />
<path style="fill:#b2b2b2" d="M282,393 l0,4 -6,0 0,-4 6,0z" />
<path style="fill:#b2b2b2" d="M247,393 l0,4 -8,0 0,-4 8,0z" />
<path style="fill:#b2b2b2" d="M212,393 l0,4 -8,0 0,-4 8,0z" />
<path style="fill:#b2b2b2" d="M176,393 l0,4 -7,0 0,-4 7,0z" />
<path style="fill:#b2b2b2" d="M317,424 l0,-4 -6,0 0,4 6,0z" />
<path style="fill:#b2b2b2" d="M282,424 l0,-4 -6,0 0,4 6,0z" />
<path style="fill:#b2b2b2" d="M247,424 l0,-4 -8,0 0,4 8,0z" />
<path style="fill:#b2b2b2" d="M212,424 l0,-4 -8,0 0,4 8,0z" />
<path style="fill:#b2b2b2" d="M176,424 l0,-4 -7,0 0,4 7,0z" />
<path style="fill:#b2b2b2" d="M317,603 l0,-4 -6,0 0,4 6,0z" />
<path style="fill:#b2b2b2" d="M282,603 l0,-4 -6,0 0,4 6,0z" />
<path style="fill:#b2b2b2" d="M247,603 l0,-4 -8,0 0,4 8,0z" />
<path style="fill:#b2b2b2" d="M212,603 l0,-4 -8,0 0,4 8,0z" />
<path style="fill:#b2b2b2" d="M176,603 l0,-4 -7,0 0,4 7,0z" />
<path style="fill:#b2b2b2" d="M317,781 l0,-4 -6,0 0,4 6,0z" />
<path style="fill:#b2b2b2" d="M282,781 l0,-4 -6,0 0,4 6,0z" />
<path style="fill:#b2b2b2" d="M247,781 l0,-4 -8,0 0,4 8,0z" />
<path style="fill:#b2b2b2" d="M212,781 l0,-4 -8,0 0,4 8,0z" />
<path style="fill:#b2b2b2" d="M176,781 l0,-4 -7,0 0,4 7,0z" />
<path style="fill:#fff" d="M167,781 l0,-4 2,0 0,4 -2,0z" />
<path style="fill:#fff" d="M202,781 l0,-4 2,0 0,4 -2,0z" />
<path style="fill:#fff" d="M237,781 l0,-4 2,0 0,4 -2,0z" />
<path style="fill:#fff" d="M272,781 l0,-4 4,0 0,4 -4,0z" />
<path style="fill:#fff" d="M309,781 l0,-4 2,0 0,4 -2,0z" />
<path style="fill:#fff" d="M167,603 l0,-4 2,0 0,4 -2,0z" />
<path style="fill:#fff" d="M202,603 l0,-4 2,0 0,4 -2,0z" />
<path style="fill:#fff" d="M237,603 l0,-4 2,0 0,4 -2,0z" />
<path style="fill:#fff" d="M272,603 l0,-4 4,0 0,4 -4,0z" />
<path style="fill:#fff" d="M309,603 l0,-4 2,0 0,4 -2,0z" />
<path style="fill:#fff" d="M167,424 l0,-4 2,0 0,4 -2,0z" />
<path style="fill:#fff" d="M202,424 l0,-4 2,0 0,4 -2,0z" />
<path style="fill:#fff" d="M237,424 l0,-4 2,0 0,4 -2,0z" />
<path style="fill:#fff" d="M272,424 l0,-4 4,0 0,4 -4,0z" />
<path style="fill:#fff" d="M309,424 l0,-4 2,0 0,4 -2,0z" />
<path style="fill:#fff" d="M167,393 l0,4 2,0 0,-4 -2,0z" />
<path style="fill:#fff" d="M202,393 l0,4 2,0 0,-4 -2,0z" />
<path style="fill:#fff" d="M237,393 l0,4 2,0 0,-4 -2,0z" />
<path style="fill:#fff" d="M272,393 l0,4 4,0 0,-4 -4,0z" />
<path style="fill:#fff" d="M309,393 l0,4 2,0 0,-4 -2,0z" />
<path style="fill:#fff" d="M167,346 l0,-6 2,0 0,6 -2,0z" />
<path style="fill:#fff" d="M202,346 l0,-6 2,0 0,6 -2,0z" />
<path style="fill:#fff" d="M237,346 l0,-6 2,0 0,6 -2,0z" />
<path style="fill:#fff" d="M272,346 l0,-6 4,0 0,6 -4,0z" />
<path style="fill:#fff" d="M309,346 l0,-6 2,0 0,6 -2,0z" />
<path style="fill:none;stroke:#000;stroke-width:2" d="M163,718 l165,0 0,47 -165,0 0,-47" />
<path style="fill:none;stroke:#000;stroke-width:2" d="M163,539 l165,0 0,47 -165,0 0,-47" />

</svg>
