 

<svg xmlns:agg="http://www.example.com" xmlns="http://www.w3.org/2000/svg" preserveAspectRatio="none" width="1.6083in" height="0.9000in" viewBox="0 0 999 559">

<path style="fill:#999" d="M685,531 l0,-394 22,0 0,22 175,0 22,22 0,66 22,0 0,-44 44,0 0,263 -44,0 0,-44 -22,0 0,66 -22,22 -175,0 0,21 -22,0z" />
<path style="fill:#999" d="M751,159 l0,-109 -22,0 0,-22 131,0 0,22 -22,0 0,109 -87,0z" />
<path style="fill:#adadad" d="M685,496 l0,-324 22,0 0,18 176,0 22,18 0,54 22,0 0,-36 43,0 0,216 -43,0 0,-36 -22,0 0,54 -22,18 -176,0 0,18 -22,0z" />
<path style="fill:#adadad" d="M758,159 l0,-109 -18,0 0,-22 108,0 0,22 -18,0 0,109 -72,0z" />
<path style="fill:#c2c2c2" d="M685,461 l0,-254 22,0 0,14 176,0 22,14 0,42 22,0 0,-28 43,0 0,170 -43,0 0,-29 -22,0 0,43 -22,14 -176,0 0,14 -22,0z" />
<path style="fill:#c2c2c2" d="M766,159 l0,-109 -14,0 0,-22 85,0 0,22 -14,0 0,109 -57,0z" />
<path style="fill:#d6d6d6" d="M685,426 l0,-185 22,0 0,11 176,0 22,10 0,31 22,0 0,-21 43,0 0,123 -43,0 0,-20 -22,0 0,31 -22,10 -176,0 0,10 -22,0z" />
<path style="fill:#d6d6d6" d="M774,159 l0,-109 -10,0 0,-22 61,0 0,22 -10,0 0,109 -41,0z" />
<path style="fill:#ebebeb" d="M685,391 l0,-114 22,0 0,6 176,0 22,6 0,19 22,0 0,-12 43,0 0,76 -43,0 0,-13 -22,0 0,19 -22,7 -176,0 0,6 -22,0z" />
<path style="fill:#ebebeb" d="M781,159 l0,-109 -6,0 0,-22 39,0 0,22 -7,0 0,109 -26,0z" />
<path style="fill:#fff" d="M790,159 l0,-109 -3,0 0,-22 15,0 0,22 -3,0 0,109 -9,0z" />
<path style="fill:#fff" d="M685,356 l0,-44 22,0 0,2 175,0 22,3 0,7 22,0 0,-5 44,0 0,30 -44,0 0,-5 -22,0 0,7 -22,3 -175,0 0,2 -22,0z" />
<path style="fill:#4c4c4c" d="M71,444 l439,0 0,55 -439,0 0,-55z" />
<path style="fill:#4c4c4c" d="M203,461 l274,0 0,10 -274,0 0,-10z" />
<path style="fill:#333;stroke:#000;stroke-width:2" d="M225,531 l-27,-33 -6,-32 -22,0 -5,32 -28,33 88,0z" />
<path style="fill:#333;stroke:#000;stroke-width:2" d="M482,531 l-27,-33 -6,-32 -21,0 -6,32 -27,33 87,0z" />
<path style="fill:#7f7f7f" d="M203,488 l-175,-22 0,-263 175,-22 0,22 263,0 88,22 0,-22 22,0 0,88 109,0 0,87 -109,0 0,88 -22,0 0,-22 -88,22 -263,0 0,22z" />
<path style="fill:#999" d="M203,454 l-175,-17 0,-206 175,-18 0,18 263,0 88,17 0,-17 22,0 0,69 109,0 0,68 -109,0 0,69 -22,0 0,-17 -88,17 -263,0 0,17z" />
<path style="fill:#b2b2b2" d="M203,422 l-175,-13 0,-150 175,-13 0,13 263,0 88,12 0,-12 22,0 0,50 109,0 0,50 -109,0 0,50 -22,0 0,-13 -88,13 -263,0 0,13z" />
<path style="fill:#ccc" d="M203,389 l-175,-8 0,-94 175,-8 0,8 263,0 88,7 0,-7 22,0 0,31 109,0 0,31 -109,0 0,32 -22,0 0,-8 -88,8 -263,0 0,8z" />
<path style="fill:#e5e5e5" d="M203,356 l-175,-3 0,-38 175,-3 0,3 263,0 88,3 0,-3 22,0 0,13 109,0 0,12 -109,0 0,13 -22,0 0,-3 -88,3 -263,0 0,3z" />
<path style="fill:none;stroke:#000;stroke-width:2" d="M203,488 l-175,-22 0,-263 175,-22 0,22 263,0 88,22 0,-22 22,0 0,88 109,0 0,87 -109,0 0,88 -22,0 0,-22 -88,22 -263,0 0,22" />
<path style="fill:#4c4c4c" d="M203,203 l263,0 0,131 -263,0 0,-131z" />
<path style="fill:#e5e5e5" d="M203,301 l274,0 0,11 -274,0 0,-11z" />
<path style="fill:#ccc" d="M203,274 l274,0 0,11 -274,0 0,-11z" />
<path style="fill:#b2b2b2" d="M203,252 l274,0 0,11 -274,0 0,-11z" />
<path style="fill:#b2b2b2" d="M203,230 l274,0 0,11 -274,0 0,-11z" />
<path style="fill:#999" d="M203,208 l274,0 0,11 -274,0 0,-11z" />
<path style="fill:#999" d="M203,192 l274,0 0,11 -274,0 0,-11z" />
<path style="fill:#4c4c4c;stroke:#000;stroke-width:2" d="M214,466 l235,0 0,-82 -235,0 0,82z" />
<path style="fill:#666" d="M203,439 l274,0 0,10 -274,0 0,-10z" />
<path style="fill:#666" d="M203,455 l274,0 0,11 -274,0 0,-11z" />
<path style="fill:#b2b2b2;stroke:#000;stroke-width:2" d="M263,406 l137,0 0,104 -137,0 0,-104z" />
<path style="fill:#ccc;stroke:#000;stroke-width:2" d="M263,406 l11,-17 121,0 5,17 -137,0z" />
<path style="fill:none;stroke:#000;stroke-width:2" d="M203,466 l0,-263" />
<path style="fill:none;stroke:#000;stroke-width:2" d="M554,444 l0,-219" />
<path style="fill:none;stroke:#000;stroke-width:2" d="M576,378 l0,-87" />
<path style="fill:#333" d="M630,329 l-28,-5 -10,-11 10,-11 28,-6 29,6 10,11 -10,11 -29,5z" />
<path style="fill:#333" d="M630,373 l29,-5 10,-11 -10,-11 -29,-6 -28,6 -10,11 10,11 28,5z" />
<path style="fill:#e5e5e5;stroke:#000;stroke-width:2" d="M630,340 l29,6 5,5 -5,5 -29,6 -28,-6 -5,-5 5,-5 28,-6z" />
<path style="fill:#e5e5e5;stroke:#000;stroke-width:2" d="M630,307 l-28,6 -5,5 5,6 28,5 29,-5 5,-6 -5,-5 -29,-6z" />
<path style="fill:none;stroke:#000;stroke-width:2" d="M685,531 l0,-394 22,0 0,22 175,0 22,22 0,66 22,0 0,-44 44,0 0,263 -44,0 0,-44 -22,0 0,66 -22,22 -175,0 0,21 -22,0" />
<path style="fill:none;stroke:#000;stroke-width:2" d="M707,510 l0,-351" />
<path style="fill:none;stroke:#000;stroke-width:2" d="M904,422 l0,-175" />
<path style="fill:none;stroke:#000;stroke-width:2" d="M926,247 l0,175" />
<path style="fill:none;stroke:#000;stroke-width:2" d="M751,159 l0,-109 -22,0 0,-22 131,0 0,22 -22,0 0,109 -87,0" />
<path style="fill:none;stroke:#000;stroke-width:2" d="M751,50 l87,0" />

</svg>
