 

<svg xmlns:agg="http://www.example.com" xmlns="http://www.w3.org/2000/svg" preserveAspectRatio="none" width="0.8542in" height="1.0750in" viewBox="0 0 793 998">

<path style="fill:#b2b2b2;stroke:#000;stroke-width:2" d="M274,217 l40,-66 6,51 -46,15z" />
<path style="fill:#7f7f7f;stroke:#000;stroke-width:2" d="M151,950 l41,-82 409,0 41,82 -491,0z" />
<circle style="fill:#d9d9d9;stroke:#000;stroke-width:2" cx="396" cy="560" r="368" />
<path style="fill:#e5e5e5" d="M478,171 l0,-41 -164,0 0,41 4,33 11,30 17,29 23,25 27,20 11,6 53,10 29,9 27,13 25,17 23,19 20,21 18,24 15,26 11,28 9,29 4,30 1,33 -5,37 -10,35 -15,33 -19,29 -23,27 -27,24 -30,19 -32,14 -35,11 -37,4 -13,0 0,123 19,0 37,-4 37,-7 34,-11 33,-14 31,-17 30,-20 27,-23 25,-25 23,-27 20,-29 17,-32 14,-33 11,-34 7,-36 4,-37 0,-19 0,-13 -3,-36 -7,-36 -10,-35 -13,-33 -17,-32 -20,-30 -22,-29 -25,-26 -27,-23 -30,-21 -11,-6 -71,-34 -22,-16 -9,-20z" />
<circle style="fill:#ccc" cx="396" cy="560" r="245" />
<path style="fill:none;stroke:#000;stroke-width:2" d="M396,929 l38,-2 36,-5 36,-9 34,-13 32,-15 30,-19 29,-21 26,-24 24,-26 21,-29 19,-30 15,-32 12,-34 10,-35 5,-37 2,-18 0,-19 0,-13 -3,-36 -7,-36 -10,-35 -13,-33 -17,-32 -20,-30 -22,-29 -25,-26 -27,-23 -30,-21 -11,-6 -71,-34 -22,-16 -9,-20 0,-41 -164,0 0,41 4,33 11,30 17,29 23,25 27,20 11,6 53,10 29,9 27,13 25,17 23,19 20,21 18,24 15,26 11,28 9,29 4,30 1,33 -5,37 -10,35 -15,33 -19,29 -23,27 -27,24 -30,19 -32,14 -35,11 -37,4 -13,0" />
<circle style="fill:#d9d9d9" cx="396" cy="560" r="143" />
<path style="fill:#d9d9d9" d="M294,130 l205,0 0,-102 -205,0 0,102z" />
<path style="fill:#e5e5e5" d="M320,130 l154,0 0,-102 -154,0 0,102z" />
<path style="fill:#f2f2f2" d="M346,129 l102,0 0,-101 -102,0 0,101z" />
<path style="fill:#fff" d="M372,130 l50,0 0,-102 -50,0 0,102z" />
<path style="fill:none;stroke:#000;stroke-width:2" d="M294,130 l205,0 0,-102 -205,0 0,102" />
<path style="fill:#b2b2b2" d="M500,784 l-1,-223 -205,0 1,224 12,5 12,4 13,3 13,4 12,2 14,2 12,1 7,0 13,0 13,-1 14,-1 13,-2 13,-3 13,-4 13,-4 12,-4 6,-3z" />
<path style="fill:#bfbfbf" d="M498,662 l1,-101 -205,0 1,101 10,9 12,9 12,7 13,6 13,5 14,3 13,2 14,1 15,-1 13,-2 14,-3 13,-5 13,-6 12,-7 12,-9 10,-9z" />
<circle style="fill:#ccc;stroke:#000;stroke-width:2" cx="396" cy="560" r="102" />
<circle style="fill:#333" cx="396" cy="561" r="82" />
<path style="fill:#4c4c4c" d="M377,805 l-6,-16 6,-17 17,-6 16,6 7,17 -7,16 -16,7 -17,-7z" />
<path style="fill:#7f7f7f" d="M723,577 l-17,7 -16,-7 -6,-16 6,-17 16,-6 17,6 6,17 -6,16z" />
<path style="fill:#7f7f7f" d="M377,349 l-6,-16 6,-17 17,-6 16,6 7,17 -7,16 -16,6 -17,-6z" />
<path style="fill:#7f7f7f" d="M103,577 l-17,7 -16,-7 -7,-16 7,-17 16,-6 17,6 6,17 -6,16z" />
<path style="fill:#e5e5e5" d="M396,924 l-76,-15 -67,-31 -67,-56 -56,-108 62,57 61,30 77,16 66,-5 0,112z" />
<path style="fill:#b2b2b2;stroke:#000;stroke-width:2" d="M130,950 l533,0 0,20 -533,0 0,-20z" />

</svg>
