 

<svg xmlns:agg="http://www.example.com" xmlns="http://www.w3.org/2000/svg" preserveAspectRatio="none" width="0.9061in" height="1.0750in" viewBox="0 0 842 999">

<path style="fill:#333;stroke:#000;stroke-width:2" d="M459,774 l13,40 101,-28 88,-51 74,-74 50,-88 29,-101 0,-103 -29,-100 -50,-91 -74,-71 -88,-53 -101,-26 -103,0 -100,26 -89,53 -73,71 -53,91 -26,100 0,103 26,101 53,88 73,74 89,51 100,26 13,-38 -2,-39 -81,-23 -72,-41 -58,-57 -42,-72 -20,-81 0,-83 20,-79 42,-72 251,202 -193,-260 72,-41 79,-21 83,0 81,21 -122,301 194,-260 58,58 42,72 21,79 0,83 -21,80 -42,73 -58,59 -72,39 -81,23 -2,39z" />
<path style="fill:#98b2e5;stroke:#000;stroke-width:2" d="M107,541 l18,-70 37,-62 50,-51 63,-36 69,-19 470,0 0,511 -79,0 0,156 -628,0 0,-429z" />
<path style="fill:#4c4c4c;stroke:#000;stroke-width:2" d="M814,735 l0,39 -458,0 -51,-13 -44,-26 -37,-36 -27,-45 -13,-51 0,-51 13,-51 27,-44 37,-37 44,-26 51,-14 458,0 0,40 -311,0 36,37 26,44 13,51 0,51 -13,51 -26,43 -38,38 313,0z" />
<path style="fill:#191919" d="M450,742 l364,2 0,21 -423,0 -79,-23 -39,-22 -34,-34 -23,-40 -11,-45 0,-47 11,-45 24,-40 33,-34 39,-23 79,-22 423,0 0,20 -364,2 39,23 34,34 23,40 11,45 0,47 -11,45 -23,40 -34,34 -39,22z" />
<path style="fill:#e5e5e5;stroke:#000;stroke-width:2" d="M372,731 l-20,0 -21,-4 -19,-11 -15,-15 -11,-19 -6,-21 0,-20 45,-169 12,-18 15,-15 17,-12 20,-5 23,0 21,5 19,12 15,15 9,18 6,21 0,21 -45,168 -10,19 -15,15 -19,11 -21,4z" />
<path style="fill:#7f7f7f" d="M399,480 l-8,-13 4,-17 13,-8 17,4 8,15 -4,15 -15,8 -15,-4z" />
<path style="fill:#7f7f7f" d="M339,708 l-10,-15 6,-15 13,-7 15,3 9,15 -5,15 -13,8 -15,-4z" />
<path style="fill:#7f7f7f" d="M369,593 l-10,-13 6,-15 13,-8 15,4 10,13 -6,15 -13,10 -15,-6z" />
<path style="fill:#7f99cc;stroke:#000;stroke-width:2" d="M735,814 l-441,0 -59,-21 -49,-39 -51,-68 -28,-98 0,382 628,0 0,-156z" />
<path style="fill:#333" d="M301,803 l-7,-8 0,-13 7,-8 13,0 8,8 0,13 -8,8 -13,0z" />
<path style="fill:#333" d="M301,380 l-7,-7 0,-14 7,-7 13,0 8,7 0,14 -8,7 -13,0z" />
<path style="fill:#333" d="M744,597 l-9,-8 0,-13 9,-9 11,0 10,9 0,13 -10,8 -11,0z" />

</svg>
