 

<svg xmlns:agg="http://www.example.com" xmlns="http://www.w3.org/2000/svg" preserveAspectRatio="none" width="0.5251in" height="1.0750in" viewBox="0 0 488 999">

<path style="fill:#4c4c4c;stroke:#000;stroke-width:2" d="M126,970 l20,-216 196,0 20,216 -236,0z" />
<path style="fill:#7f7f7f" d="M111,802 l-11,-2 0,-18 11,-2 0,22z" />
<path style="fill:#7f7f7f" d="M111,854 l-11,-3 0,-17 11,-3 0,23z" />
<path style="fill:#7f7f7f" d="M111,906 l-11,-3 0,-17 11,-3 0,23z" />
<path style="fill:#7f7f7f" d="M111,774 l35,0 0,137 -35,0 0,-137z" />
<path style="fill:#999" d="M111,782 l35,0 0,121 -35,0 0,-121z" />
<path style="fill:#b2b2b2" d="M111,797 l35,0 0,91 -35,0 0,-91z" />
<path style="fill:#ccc" d="M111,811 l35,0 0,63 -35,0 0,-63z" />
<path style="fill:#e5e5e5" d="M111,822 l35,0 0,40 -35,0 0,-40z" />
<path style="fill:#fff" d="M111,834 l35,0 0,17 -35,0 0,-17z" />
<path style="fill:none;stroke:#000;stroke-width:2" d="M111,774 l35,0 0,137 -35,0 0,-137" />
<path style="fill:#b2b2b2" d="M111,798 l-11,-1 0,-15 11,-2 0,18z" />
<path style="fill:#b2b2b2" d="M111,850 l-11,-2 0,-14 11,-3 0,19z" />
<path style="fill:#b2b2b2" d="M111,901 l-11,-1 0,-14 11,-3 0,18z" />
<path style="fill:#e5e5e5" d="M100,786 l0,-4 11,-2 0,4 -11,2z" />
<path style="fill:#e5e5e5" d="M100,837 l0,-3 11,-3 0,4 -11,2z" />
<path style="fill:#e5e5e5" d="M100,888 l0,-2 11,-3 0,4 -11,1z" />
<path style="fill:none;stroke:#000;stroke-width:2" d="M111,906 l-11,-3 0,-17 11,-3 0,23" />
<path style="fill:none;stroke:#000;stroke-width:2" d="M111,854 l-11,-3 0,-17 11,-3 0,23" />
<path style="fill:none;stroke:#000;stroke-width:2" d="M111,802 l-11,-3 0,-17 11,-2 0,22" />
<path style="fill:#ccc" d="M126,754 l-20,-59 0,-353 0,0 275,0 0,353 -19,59 -236,0z" />
<path style="fill:#d9d9d9" d="M143,754 l-17,-59 0,-353 -1,0 237,0 0,353 -17,59 -202,0z" />
<path style="fill:#e5e5e5" d="M176,754 l-11,-59 0,-353 -1,0 158,0 0,353 -11,59 -135,0z" />
<path style="fill:#f2f2f2" d="M227,754 l-3,-59 0,-353 0,0 39,0 0,353 -2,59 -34,0z" />
<path style="fill:none;stroke:#000;stroke-width:2" d="M126,754 l-20,-59 0,-353 0,0 275,0 0,353 -19,59 -236,0" />
<path style="fill:#d9d9d9" d="M126,126 l0,-59 39,-39 157,0 40,39 0,59 -236,0z" />
<path style="fill:#e5e5e5" d="M143,126 l0,-59 33,-39 135,0 34,39 0,59 -202,0z" />
<path style="fill:#f2f2f2" d="M176,126 l0,-59 23,-39 90,0 22,39 0,59 -135,0z" />
<path style="fill:#fff" d="M227,126 l0,-59 6,-39 22,0 6,39 0,59 -34,0z" />
<path style="fill:none;stroke:#000;stroke-width:2" d="M126,126 l0,-59 39,-39 157,0 40,39 0,59 -236,0" />
<path style="fill:#bfbfbf;stroke:#000;stroke-width:2" d="M185,646 l20,0 0,-147 -20,0 0,147z" />
<path style="fill:#f2f2f2;stroke:#000;stroke-width:2" d="M185,499 l-98,0 0,137 98,10 0,-147z" />
<path style="fill:#333" d="M146,695 l78,0 0,40 -78,0 0,-40z" />
<path style="fill:#333" d="M342,695 l-79,0 0,40 79,0 0,-40z" />
<path style="fill:none;stroke:#000;stroke-width:2" d="M106,695 l275,0" />
<path style="fill:#000" d="M224,793 l39,0 0,157 -39,0 0,-157z" />
<path style="fill:#bfbfbf" d="M116,342 l255,0 0,15 -255,0 0,-15z" />
<path style="fill:#d9d9d9" d="M87,126 l314,0 0,216 -314,0 0,-216z" />
<path style="fill:#e5e5e5" d="M109,126 l270,0 0,216 -270,0 0,-216z" />
<path style="fill:#f2f2f2" d="M154,126 l180,0 0,216 -180,0 0,-216z" />
<path style="fill:#fff" d="M222,126 l44,0 0,216 -44,0 0,-216z" />
<path style="fill:none;stroke:#000;stroke-width:2" d="M87,126 l314,0 0,216 -314,0 0,-216" />
<path style="fill:#999;stroke:#000;stroke-width:2" d="M97,298 l152,0 0,34 -152,0 0,-34z" />
<path style="fill:#999;stroke:#000;stroke-width:2" d="M268,293 l133,0 0,39 -133,0 0,-39z" />
<path style="fill:#bfbfbf;stroke:#000;stroke-width:2" d="M87,165 l-39,20 -20,39 20,0 39,-20 0,-39z" />
<path style="fill:#bfbfbf;stroke:#000;stroke-width:2" d="M401,165 l39,20 20,39 -20,0 -39,-20 0,-39z" />
<path style="fill:none;stroke:#000;stroke-width:2" d="M205,622 l176,0" />
<path style="fill:none;stroke:#000;stroke-width:2" d="M205,610 l176,0" />
<path style="fill:none;stroke:#000;stroke-width:2" d="M381,597 l-176,0" />
<path style="fill:none;stroke:#000;stroke-width:2" d="M205,585 l176,0" />
<path style="fill:none;stroke:#000;stroke-width:2" d="M205,573 l176,0" />
<circle style="fill:#d9d9d9" cx="214" cy="96" r="14" />
<path style="fill:none;stroke:#7f7f7f;stroke-width:2" d="M101,617 l64,10 0,-113" />
<path style="fill:#7f7f7f;stroke:#000;stroke-width:2" d="M116,656 l72,0 0,20 -72,0 0,-20z" />
<path style="fill:#7f7f7f;stroke:#000;stroke-width:2" d="M208,656 l71,0 0,20 -71,0 0,-20z" />
<path style="fill:#7f7f7f;stroke:#000;stroke-width:2" d="M300,656 l71,0 0,20 -71,0 0,-20z" />

</svg>
