 

<svg version="1.1" id="_x30_" xmlns="http://www.w3.org/2000/svg" preserveAspectRatio="none"   xmlns:agg="http://www.example.com" x="0px" y="0px"
	   viewBox="0 0 51.307 51.307" enable-background="new 0 0 51.307 51.307" xml:space="preserve">

<agg:params>
        <agg:param name="color" description="Color" type="C" cssAttributes="fill" classes="color"/>
        <agg:param name="strokeColor" description="Stroke Color" type="C" cssAttributes="stroke" classes="color,stroked"/>
</agg:params>

<style type="text/css" >
   <![CDATA[

	.color,.stroked{
		stroke-width:1;
		stroke-linecap:round;
		stroke-linejoin:round;
		stroke: #000000;
	}
	
	.color {
		fill:   #A1BFE2;

	}
	
	.stroked {
		fill:none;
	}

      ]]>
</style>

<path class="color" d="M13.831,37.985
	c3.774,3.77,7.548,7.541,11.323,11.312c3.774-3.771,7.548-7.542,11.322-11.312c0-9.463,0-18.925,0-28.388
	c0-2.412-2.832-3.898-4.593-4.548c-2.209-0.815-4.396-1.107-6.729-1.107c-2.333,0-4.519,0.292-6.728,1.107
	c-1.762,0.65-4.594,2.136-4.594,4.548C13.831,19.059,13.831,28.522,13.831,37.985z"/>

<polyline class="stroked" points="13.831,19.821 34.743,19.821 18.383,24.388 34.743,28.903 13.831,28.903 "/>

</svg>
