 
<svg version="1.1" id="_x30_" xmlns="http://www.w3.org/2000/svg" preserveAspectRatio="none"   xmlns:agg="http://www.example.com" x="0px" y="0px"
	   viewBox="0 0 51.307 51.307" enable-background="new 0 0 51.307 51.307" xml:space="preserve">

<agg:params>
        <agg:param name="color" description="Color" type="C" cssAttributes="fill" classes="color"/>
        <agg:param name="strokeColor" description="Stroke Color" type="C" cssAttributes="stroke" classes="color,stroked"/>
</agg:params>

<style type="text/css" >
   <![CDATA[

	.color,.stroked{
		stroke-width:1;
		stroke-linecap:round;
		stroke-linejoin:round;
		stroke: #000000;
	}
	
	.color {
		fill:   #A1BFE2;

	}
	
	.stroked {
		fill:none;
	}

      ]]>
</style>

<path class="color" d="M15.052,24.592
	c-0.327,0.342-0.653,0.684-0.979,1.025c0,6.197,0,12.395,0,18.592c2.648,2.854,6.297,4.577,10.184,4.809
	c0.107-1.303,0.213-2.604,0.32-3.907c0.385,0,0.769,0,1.153,0c0.107,1.303,0.213,2.604,0.32,3.907
	c3.888-0.231,7.536-1.954,10.185-4.809c0-6.197,0-12.395,0-18.592c-0.326-0.341-0.653-0.683-0.979-1.025
	C28.521,24.592,21.786,24.592,15.052,24.592z"/>
<path class="color" d="M35.255,43.817
	c-5.544,5.662-14.659,5.662-20.203,0c0-6.75,0-13.5,0-20.25c6.734,0,13.468,0,20.203,0C35.255,30.317,35.255,37.067,35.255,43.817z"
	/>

<line class="stroked" x1="25.154" y1="15.83" x2="25.154" y2="38.07"/>

<path class="color" d="M20.726,36.952
	c1.476,0.372,2.952,0.745,4.427,1.117c-1.476,0.372-2.952,0.745-4.427,1.117C19.823,38.717,19.823,37.423,20.726,36.952z"/>
<path class="color" d="M29.581,36.952
	c-1.476,0.372-2.952,0.745-4.428,1.117c1.476,0.372,2.952,0.745,4.428,1.117C30.485,38.717,30.485,37.423,29.581,36.952z"/>
<path class="color" d="M21.185,15.271
	c2.593,0.745,5.344,0.745,7.937,0c0-3.777,0-7.555,0-11.332c-2.593-0.745-5.344-0.745-7.937,0
	C21.185,7.717,21.185,11.494,21.185,15.271z"/>

</svg>
