 
<svg version="1.1" id="_x30_" xmlns="http://www.w3.org/2000/svg" preserveAspectRatio="none"   xmlns:agg="http://www.example.com" x="0px" y="0px"
	   viewBox="0 0 51.307 51.307" enable-background="new 0 0 51.307 51.307" xml:space="preserve">

<agg:params>
        <agg:param name="color" description="Color" type="C" cssAttributes="fill" classes="color"/>
        <agg:param name="strokeColor" description="Stroke Color" type="C" cssAttributes="stroke" classes="color,stroked"/>
</agg:params>

<style type="text/css" >
   <![CDATA[

	.color,.stroked{
		stroke-width:1;
		stroke-linecap:round;
		stroke-linejoin:round;
		stroke: #000000;
	}
	
	.color {
		fill:   #A1BFE2;

	}
	
	.stroked {
		fill:none;
	}

      ]]>
</style>

<line class="stroked" x1="25.076" y1="22.319" x2="25.076" y2="46.669"/>

<path class="color" d="M18.201,44.935
	c2.292,0.578,4.583,1.156,6.875,1.734c-2.292,0.578-4.583,1.156-6.875,1.734C16.798,47.673,16.798,45.665,18.201,44.935z"/>
<path class="color" d="M31.951,44.935
	c-2.292,0.578-4.584,1.156-6.875,1.734c2.291,0.578,4.583,1.156,6.875,1.734C33.355,47.673,33.355,45.665,31.951,44.935z"/>
<path class="color" d="M18.883,21.451
	c4.027,1.157,8.298,1.157,12.325,0c0-5.865,0-11.731,0-17.596c-4.027-1.157-8.298-1.157-12.325,0
	C18.883,9.72,18.883,15.586,18.883,21.451z"/>
</svg>
