<?xml version="1.0" encoding="utf-8"?>
<!-- Generator: Adobe Illustrator 16.0.0, SVG Export Plug-In . SVG Version: 6.00 Build 0)  -->
<!DOCTYPE svg PUBLIC "-//W3C//DTD SVG 1.1//EN" "http://www.w3.org/Graphics/SVG/1.1/DTD/svg11.dtd">
<svg version="1.1" id="图层_1" xmlns="http://www.w3.org/2000/svg" preserveAspectRatio="none" xmlns:xlink="http://www.w3.org/1999/xlink" x="0px" y="0px"
	 width="280px" height="80px" viewBox="0 0 280 80" enable-background="new 0 0 280 80" xml:space="preserve">
<g>
	<path fill="#921D22" d="M278.167,71.48c0,4.111-3.271,7.445-7.306,7.445H8.307C4.271,78.926,1,75.592,1,71.48V9.444
		C1,5.333,4.271,2,8.307,2h262.555c4.035,0,7.306,3.333,7.306,7.444V71.48z"/>
	<linearGradient id="SVGID_1_" gradientUnits="userSpaceOnUse" x1="139.584" y1="77.3164" x2="139.584" y2="4.0994">
		<stop  offset="0" style="stop-color:#72151A"/>
		<stop  offset="0.0072" style="stop-color:#7F161A"/>
		<stop  offset="0.0274" style="stop-color:#9F191C"/>
		<stop  offset="0.0489" style="stop-color:#B91C1C"/>
		<stop  offset="0.0717" style="stop-color:#CE1E1C"/>
		<stop  offset="0.0965" style="stop-color:#DC201B"/>
		<stop  offset="0.1246" style="stop-color:#E5201A"/>
		<stop  offset="0.1636" style="stop-color:#E7211A"/>
		<stop  offset="0.2896" style="stop-color:#E3201A"/>
		<stop  offset="0.4563" style="stop-color:#D51F1C"/>
		<stop  offset="0.6459" style="stop-color:#BF1D1E"/>
		<stop  offset="0.8507" style="stop-color:#A01C1F"/>
		<stop  offset="1" style="stop-color:#851B20"/>
	</linearGradient>
	<path fill="url(#SVGID_1_)" d="M8.307,77.436c-3.223,0-5.845-2.67-5.845-5.955V9.444c0-3.284,2.622-5.956,5.845-5.956h262.555
		c3.223,0,5.845,2.672,5.845,5.956V71.48c0,3.285-2.622,5.955-5.845,5.955H8.307z"/>
	<defs>
		<filter id="Adobe_OpacityMaskFilter" filterUnits="userSpaceOnUse" x="2.461" y="3.488" width="274.245" height="31.168">
			<feFlood  style="flood-color:white;flood-opacity:1" result="back"/>
			<feBlend  in="SourceGraphic" in2="back" mode="normal"/>
		</filter>
	</defs>
	<mask maskUnits="userSpaceOnUse" x="2.461" y="3.488" width="274.245" height="31.168" id="SVGID_2_">
		<g filter="url(#Adobe_OpacityMaskFilter)">
			<defs>
				<filter id="Adobe_OpacityMaskFilter_1_" filterUnits="userSpaceOnUse" x="2.461" y="3.488" width="274.245" height="31.168">
					<feFlood  style="flood-color:white;flood-opacity:1" result="back"/>
					<feBlend  in="SourceGraphic" in2="back" mode="normal"/>
				</filter>
			</defs>
			<mask maskUnits="userSpaceOnUse" x="2.461" y="3.488" width="274.245" height="31.168" id="SVGID_2_">
				<g filter="url(#Adobe_OpacityMaskFilter_1_)">
				</g>
			</mask>
			<linearGradient id="SVGID_3_" gradientUnits="userSpaceOnUse" x1="139.5835" y1="3.2534" x2="139.5835" y2="34.5241">
				<stop  offset="0" style="stop-color:#FFFFFF"/>
				<stop  offset="0.0606" style="stop-color:#EBEBEB"/>
				<stop  offset="0.3282" style="stop-color:#999999"/>
				<stop  offset="0.5653" style="stop-color:#575757"/>
				<stop  offset="0.7631" style="stop-color:#282828"/>
				<stop  offset="0.9139" style="stop-color:#0B0B0B"/>
				<stop  offset="1" style="stop-color:#000000"/>
			</linearGradient>
			<path mask="url(#SVGID_2_)" fill="url(#SVGID_3_)" d="M276.706,34.657V9.444c0-3.284-2.622-5.956-5.845-5.956H8.307
				c-3.223,0-5.845,2.672-5.845,5.956v25.212H276.706z"/>
		</g>
	</mask>
	<linearGradient id="SVGID_4_" gradientUnits="userSpaceOnUse" x1="139.5835" y1="3.2534" x2="139.5835" y2="34.5241">
		<stop  offset="0" style="stop-color:#FFFFFF"/>
		<stop  offset="0.2749" style="stop-color:#F1B1B1"/>
		<stop  offset="0.5308" style="stop-color:#E56F70"/>
		<stop  offset="0.7443" style="stop-color:#DD4041"/>
		<stop  offset="0.9071" style="stop-color:#D82324"/>
		<stop  offset="1" style="stop-color:#D61819"/>
	</linearGradient>
	<path fill="url(#SVGID_4_)" d="M276.706,34.657V9.444c0-3.284-2.622-5.956-5.845-5.956H8.307c-3.223,0-5.845,2.672-5.845,5.956
		v25.212H276.706z"/>
</g>
</svg>
