<?xml version="1.0" encoding="utf-8"?>
<!-- Generator: Adobe Illustrator 16.0.0, SVG Export Plug-In . SVG Version: 6.00 Build 0)  -->
<!DOCTYPE svg PUBLIC "-//W3C//DTD SVG 1.1//EN" "http://www.w3.org/Graphics/SVG/1.1/DTD/svg11.dtd">
<svg version="1.1" id="图层_1" xmlns="http://www.w3.org/2000/svg" preserveAspectRatio="none" xmlns:xlink="http://www.w3.org/1999/xlink" x="0px" y="0px"
	 width="232.134px" height="318.898px" viewBox="0 0 232.134 318.898" enable-background="new 0 0 232.134 318.898"
	 xml:space="preserve">
<g>
	<linearGradient id="SVGID_1_" gradientUnits="userSpaceOnUse" x1="112.9414" y1="308.6836" x2="112.9414" y2="4.7334">
		<stop  offset="0" style="stop-color:#6B6967"/>
		<stop  offset="1" style="stop-color:#A19F9B"/>
	</linearGradient>
	<path fill="url(#SVGID_1_)" d="M6.565,308.684L221.742,6.327c-1.095-0.976-2.522-1.594-4.093-1.594H10.345
		c-3.41,0-6.205,2.798-6.205,6.216v292.854C4.14,305.795,5.104,307.545,6.565,308.684z"/>
	<g>
		<linearGradient id="SVGID_2_" gradientUnits="userSpaceOnUse" x1="8.3599" y1="7.0513" x2="219.9829" y2="7.0513">
			<stop  offset="0" style="stop-color:#A19F9B"/>
			<stop  offset="0.2667" style="stop-color:#F8F9F9"/>
			<stop  offset="1" style="stop-color:#A19F9B"/>
		</linearGradient>
		<path fill="url(#SVGID_2_)" d="M218.947,9.118H9.396c-0.578,0-1.036-0.928-1.036-2.066c0-1.155,0.458-2.066,1.036-2.066h209.551
			c0.573,0,1.036,0.911,1.036,2.066C219.983,8.19,219.52,9.118,218.947,9.118L218.947,9.118z"/>
	</g>
	<g>
		<g>
			<path fill="#FFFFFF" d="M12.419,318.301c-6.852,0-12.421-5.572-12.421-12.416V13.015c0-6.844,5.569-12.418,12.421-12.418h207.296
				c6.847,0,12.421,5.574,12.421,12.418v292.87c0,6.844-5.574,12.416-12.421,12.416H12.419z"/>
			<path fill="#F2F2F2" d="M12.004,316.643c-6.166,0-11.178-5.016-11.178-11.174V12.602c0-6.159,5.012-11.178,11.178-11.178h207.298
				c6.161,0,11.179,5.019,11.179,11.178v292.867c0,6.158-5.018,11.174-11.179,11.174H12.004z"/>
			<path fill="#E5E4E3" d="M11.59,314.984c-5.48,0-9.935-4.457-9.935-9.932V12.188c0-5.473,4.455-9.937,9.935-9.937h207.299
				c5.477,0,9.936,4.464,9.936,9.937v292.864c0,5.475-4.459,9.932-9.936,9.932H11.59z"/>
			<path fill="#D7D6D4" d="M11.175,313.326c-4.794,0-8.691-3.898-8.691-8.691V11.775c0-4.789,3.897-8.697,8.691-8.697h207.301
				c4.791,0,8.693,3.908,8.693,8.697v292.859c0,4.793-3.902,8.691-8.693,8.691H11.175z"/>
			<path fill="#CAC8C6" d="M10.76,311.668c-4.109,0-7.448-3.34-7.448-7.449V11.362c0-4.103,3.339-7.456,7.448-7.456h207.302
				c4.106,0,7.45,3.353,7.45,7.456v292.857c0,4.109-3.344,7.449-7.45,7.449H10.76z"/>
			<path fill="#BDBBB8" d="M10.345,310.01c-3.423,0-6.205-2.783-6.205-6.207V10.949c0-3.418,2.782-6.216,6.205-6.216h207.304
				c3.421,0,6.208,2.798,6.208,6.216v292.854c0,3.424-2.787,6.207-6.208,6.207H10.345z"/>
		</g>
		<path fill="#050000" d="M114.332,157.252L6.565,308.684c1.049,0.822,2.355,1.326,3.78,1.326h207.304
			c1.565,0,2.982-0.602,4.077-1.57L114.332,157.252z"/>
		<g>
			<linearGradient id="SVGID_3_" gradientUnits="userSpaceOnUse" x1="35.2642" y1="270.5215" x2="193.855" y2="270.5215">
				<stop  offset="0" style="stop-color:#A19F9B"/>
				<stop  offset="0.7333" style="stop-color:#FFFFFF"/>
				<stop  offset="1" style="stop-color:#A19F9B"/>
			</linearGradient>
			<path fill="url(#SVGID_3_)" d="M192.822,272.588H36.302c-0.574,0-1.038-0.918-1.038-2.066c0-1.141,0.464-2.066,1.038-2.066
				h156.52c0.569,0,1.033,0.926,1.033,2.066C193.855,271.67,193.391,272.588,192.822,272.588L192.822,272.588z"/>
		</g>
		<linearGradient id="SVGID_4_" gradientUnits="userSpaceOnUse" x1="169.0947" y1="308.4395" x2="169.0947" y2="6.3271">
			<stop  offset="0" style="stop-color:#353332"/>
			<stop  offset="1" style="stop-color:#878582"/>
		</linearGradient>
		<path fill="url(#SVGID_4_)" d="M114.332,157.252l107.395,151.188c1.298-1.139,2.131-2.791,2.131-4.637V10.949
			c0-1.839-0.83-3.49-2.115-4.622L114.332,157.252z"/>
		<linearGradient id="SVGID_5_" gradientUnits="userSpaceOnUse" x1="23.6455" y1="0.8867" x2="204.3491" y2="313.8746">
			<stop  offset="0" style="stop-color:#514F4E"/>
			<stop  offset="1" style="stop-color:#1B1717"/>
		</linearGradient>
		<path fill="url(#SVGID_5_)" d="M10.345,305.885c-1.12,0-2.067-0.943-2.067-2.082V10.949c0-1.123,0.947-2.075,2.067-2.075h207.304
			c1.119,0,2.066,0.952,2.066,2.075v292.854c0,1.139-0.947,2.082-2.066,2.082H10.345z"/>
		<linearGradient id="SVGID_6_" gradientUnits="userSpaceOnUse" x1="113.9966" y1="273.2715" x2="113.9966" y2="41.4795">
			<stop  offset="0" style="stop-color:#A19F9B"/>
			<stop  offset="0.0991" style="stop-color:#979592"/>
			<stop  offset="0.2833" style="stop-color:#7E7C78"/>
			<stop  offset="0.5325" style="stop-color:#585653"/>
			<stop  offset="0.8336" style="stop-color:#262424"/>
			<stop  offset="1" style="stop-color:#050000"/>
		</linearGradient>
		<path fill="url(#SVGID_6_)" d="M191.098,41.479c2.273,0,4.133,1.863,4.133,4.134v223.524c0,2.279-1.859,4.135-4.133,4.135H36.904
			c-2.273,0-4.142-1.855-4.142-4.135V45.613c0-2.271,1.868-4.134,4.142-4.134H191.098z"/>
		<g>
			<linearGradient id="SVGID_7_" gradientUnits="userSpaceOnUse" x1="114.001" y1="267.5918" x2="114.001" y2="88.9111">
				<stop  offset="0" style="stop-color:#008938"/>
				<stop  offset="0.1467" style="stop-color:#038537"/>
				<stop  offset="0.362" style="stop-color:#127933"/>
				<stop  offset="0.6196" style="stop-color:#19662B"/>
				<stop  offset="0.9075" style="stop-color:#184B1F"/>
				<stop  offset="1" style="stop-color:#164219"/>
			</linearGradient>
			<path fill="url(#SVGID_7_)" d="M40.008,267.592c-1.708,0-3.104-1.393-3.104-3.107V92.018c0-1.717,1.396-3.107,3.104-3.107h147.98
				c1.705,0,3.109,1.391,3.109,3.107v172.466c0,1.715-1.404,3.107-3.109,3.107H40.008z"/>
			<linearGradient id="SVGID_8_" gradientUnits="userSpaceOnUse" x1="113.9971" y1="260.3418" x2="113.9971" y2="90.1787">
				<stop  offset="0" style="stop-color:#2AAC38"/>
				<stop  offset="0.1501" style="stop-color:#27A737"/>
				<stop  offset="0.3704" style="stop-color:#249735"/>
				<stop  offset="0.6339" style="stop-color:#207D2F"/>
				<stop  offset="0.9286" style="stop-color:#195924"/>
				<stop  offset="1" style="stop-color:#165021"/>
			</linearGradient>
			<path fill="url(#SVGID_8_)" d="M46.216,260.342c-1.138,0-2.069-0.928-2.069-2.066V92.262c0-1.14,0.932-2.084,2.069-2.084h135.564
				c1.14,0,2.066,0.944,2.066,2.084v166.013c0,1.139-0.927,2.066-2.066,2.066H46.216z"/>
			<linearGradient id="SVGID_9_" gradientUnits="userSpaceOnUse" x1="114.001" y1="88.9106" x2="114.001" y2="47.1675">
				<stop  offset="0" style="stop-color:#185222"/>
				<stop  offset="0.2335" style="stop-color:#1B4720"/>
				<stop  offset="0.7018" style="stop-color:#192B18"/>
				<stop  offset="1" style="stop-color:#10130C"/>
			</linearGradient>
			<path fill="url(#SVGID_9_)" d="M40.008,88.911c-1.708,0-3.104-1.4-3.104-3.117V50.276c0-1.701,1.396-3.108,3.104-3.108h147.98
				c1.705,0,3.109,1.407,3.109,3.108v35.518c0,1.717-1.404,3.117-3.109,3.117H40.008z"/>
			<linearGradient id="SVGID_10_" gradientUnits="userSpaceOnUse" x1="113.9971" y1="83.7261" x2="113.9971" y2="54.4087">
				<stop  offset="0" style="stop-color:#07682E"/>
				<stop  offset="0.1941" style="stop-color:#145F2B"/>
				<stop  offset="0.5855" style="stop-color:#1B4524"/>
				<stop  offset="1" style="stop-color:#132212"/>
			</linearGradient>
			<path fill="url(#SVGID_10_)" d="M46.216,83.726c-1.138,0-2.069-0.927-2.069-2.066V56.483c0-1.138,0.932-2.074,2.069-2.074
				h135.564c1.14,0,2.066,0.937,2.066,2.074V81.66c0,1.14-0.927,2.066-2.066,2.066H46.216z"/>
			<linearGradient id="SVGID_11_" gradientUnits="userSpaceOnUse" x1="114.001" y1="91.6597" x2="114.001" y2="81.3188">
				<stop  offset="0" style="stop-color:#00502D"/>
				<stop  offset="0.1425" style="stop-color:#387533"/>
				<stop  offset="0.2989" style="stop-color:#649D30"/>
				<stop  offset="0.4236" style="stop-color:#7FB927"/>
				<stop  offset="0.5" style="stop-color:#8AC221"/>
				<stop  offset="0.5931" style="stop-color:#7EB826"/>
				<stop  offset="0.7449" style="stop-color:#5F9D2C"/>
				<stop  offset="0.9354" style="stop-color:#28762F"/>
				<stop  offset="1" style="stop-color:#07682E"/>
			</linearGradient>
			<path fill="url(#SVGID_11_)" d="M187.989,81.319c1.705,0,3.109,1.399,3.109,3.1v4.142c0,1.71-1.404,3.1-3.109,3.1H40.008
				c-1.708,0-3.104-1.39-3.104-3.1v-4.142c0-1.7,1.396-3.1,3.104-3.1H187.989z"/>
			<linearGradient id="SVGID_12_" gradientUnits="userSpaceOnUse" x1="40.5254" y1="99.6665" x2="40.5254" y2="78.9673">
				<stop  offset="0" style="stop-color:#00502D"/>
				<stop  offset="0.1425" style="stop-color:#387533"/>
				<stop  offset="0.2989" style="stop-color:#649D30"/>
				<stop  offset="0.4236" style="stop-color:#7FB927"/>
				<stop  offset="0.5" style="stop-color:#8AC221"/>
				<stop  offset="0.5931" style="stop-color:#7EB826"/>
				<stop  offset="0.7449" style="stop-color:#5F9D2C"/>
				<stop  offset="0.9354" style="stop-color:#28762F"/>
				<stop  offset="1" style="stop-color:#07682E"/>
			</linearGradient>
			<path fill="url(#SVGID_12_)" d="M44.147,97.6c0,1.14-0.929,2.066-2.067,2.066H38.97c-1.138,0-2.066-0.927-2.066-2.066V81.042
				c0-1.139,0.929-2.074,2.066-2.074h3.109c1.139,0,2.067,0.936,2.067,2.074V97.6z"/>
			<linearGradient id="SVGID_13_" gradientUnits="userSpaceOnUse" x1="187.5376" y1="99.6665" x2="187.5376" y2="78.9673">
				<stop  offset="0" style="stop-color:#00502D"/>
				<stop  offset="0.1425" style="stop-color:#387533"/>
				<stop  offset="0.2989" style="stop-color:#649D30"/>
				<stop  offset="0.4236" style="stop-color:#7FB927"/>
				<stop  offset="0.5" style="stop-color:#8AC221"/>
				<stop  offset="0.5931" style="stop-color:#7EB826"/>
				<stop  offset="0.7449" style="stop-color:#5F9D2C"/>
				<stop  offset="0.9354" style="stop-color:#28762F"/>
				<stop  offset="1" style="stop-color:#07682E"/>
			</linearGradient>
			<path fill="url(#SVGID_13_)" d="M191.098,97.6c0,1.14-0.932,2.066-2.075,2.066h-2.975c-1.14,0-2.071-0.927-2.071-2.066V81.042
				c0-1.139,0.932-2.074,2.071-2.074h2.975c1.144,0,2.075,0.936,2.075,2.074V97.6z"/>
			<path fill="#64AC53" d="M118.343,139.156c0,1.156-0.932,2.082-2.066,2.082h-4.552c-1.145,0-2.071-0.926-2.071-2.082v-30.864
				c0-1.139,0.927-2.075,2.071-2.075h4.552c1.135,0,2.066,0.937,2.066,2.075V139.156z"/>
			<g>
				<path fill="#9FCF83" d="M113.999,249.201c-14.264,0-25.872-11.611-25.872-25.875s11.608-25.867,25.872-25.867
					c14.265,0,25.871,11.604,25.871,25.867S128.263,249.201,113.999,249.201L113.999,249.201z M113.999,204.619
					c-10.318,0-18.72,8.398-18.72,18.707c0,10.326,8.401,18.715,18.72,18.715c10.317,0,18.716-8.389,18.716-18.715
					C132.714,213.018,124.316,204.619,113.999,204.619L113.999,204.619z"/>
			</g>
		</g>
	</g>
</g>
</svg>
