<?xml version="1.0" encoding="utf-8"?>
<!-- Generator: Adobe Illustrator 16.0.0, SVG Export Plug-In . SVG Version: 6.00 Build 0)  -->
<!DOCTYPE svg PUBLIC "-//W3C//DTD SVG 1.1//EN" "http://www.w3.org/Graphics/SVG/1.1/DTD/svg11.dtd">
<svg version="1.1" id="图层_1" xmlns="http://www.w3.org/2000/svg" preserveAspectRatio="none" xmlns:xlink="http://www.w3.org/1999/xlink" x="0px" y="0px"
	 width="280px" height="80px" viewBox="0 0 280 80" enable-background="new 0 0 280 80" xml:space="preserve">
<linearGradient id="SVGID_1_" gradientUnits="userSpaceOnUse" x1="140.4556" y1="78.5186" x2="140.4556" y2="1.5292">
	<stop  offset="0" style="stop-color:#48A5DD"/>
	<stop  offset="1" style="stop-color:#075898"/>
</linearGradient>
<path fill="url(#SVGID_1_)" d="M277.562,29.192c-3.736-15.857-15.316-27.42-29.031-27.42H32.38
	c-16.736,0-30.304,17.215-30.304,38.447c0,10.859,3.553,20.657,9.258,27.648c5.452,6.682,12.868,10.799,21.045,10.799h216.15
	c16.736,0,30.304-17.214,30.304-38.447C278.834,36.387,278.386,32.688,277.562,29.192z"/>
<linearGradient id="SVGID_2_" gradientUnits="userSpaceOnUse" x1="140.4546" y1="3.6104" x2="140.4546" y2="78.7408">
	<stop  offset="0" style="stop-color:#3590CF"/>
	<stop  offset="0.2073" style="stop-color:#2F89CA"/>
	<stop  offset="0.5688" style="stop-color:#2176BA"/>
	<stop  offset="1" style="stop-color:#0A5CA3"/>
</linearGradient>
<path fill="url(#SVGID_2_)" d="M32.38,76.61c-7.362,0-14.35-3.596-19.678-10.124C7.04,59.549,3.923,50.22,3.923,40.22
	c0-20.066,12.765-36.391,28.457-36.391h216.15c12.45,0,23.654,10.646,27.245,25.884c0.805,3.413,1.211,6.947,1.211,10.507
	c0,20.066-12.766,36.391-28.456,36.391H32.38z"/>
</svg>
