<?xml version="1.0" encoding="utf-8"?>
<!-- Generator: Adobe Illustrator 16.0.0, SVG Export Plug-In . SVG Version: 6.00 Build 0)  -->
<!DOCTYPE svg PUBLIC "-//W3C//DTD SVG 1.1//EN" "http://www.w3.org/Graphics/SVG/1.1/DTD/svg11.dtd">
<svg version="1.1" id="图层_1" xmlns="http://www.w3.org/2000/svg" preserveAspectRatio="none" xmlns:xlink="http://www.w3.org/1999/xlink" x="0px" y="0px"
	 width="232.134px" height="318.898px" viewBox="0 0 232.134 318.898" enable-background="new 0 0 232.134 318.898"
	 xml:space="preserve">
<g>
	<g>
		<path fill="#FFFFFF" d="M12.415,319.54c-6.852,0-12.416-5.573-12.416-12.416V14.254c0-6.844,5.564-12.418,12.416-12.418h207.304
			c6.843,0,12.416,5.574,12.416,12.418v292.87c0,6.843-5.572,12.416-12.416,12.416H12.415z"/>
		<path fill="#F2F2F2" d="M12.001,317.882c-6.167,0-11.175-5.016-11.175-11.175V13.841c0-6.159,5.008-11.178,11.175-11.178h207.304
			c6.158,0,11.172,5.019,11.172,11.178v292.866c0,6.159-5.015,11.175-11.172,11.175H12.001z"/>
		<path fill="#E5E4E3" d="M11.587,316.224c-5.483,0-9.933-4.457-9.933-9.933V13.427c0-5.473,4.45-9.937,9.933-9.937h207.304
			c5.473,0,9.929,4.464,9.929,9.937v292.864c0,5.476-4.456,9.933-9.929,9.933H11.587z"/>
		<path fill="#D7D6D4" d="M11.173,314.565c-4.798,0-8.692-3.899-8.692-8.691V13.014c0-4.789,3.894-8.697,8.692-8.697h207.304
			c4.787,0,8.687,3.908,8.687,8.697v292.86c0,4.792-3.899,8.691-8.687,8.691H11.173z"/>
		<path fill="#CAC8C6" d="M10.759,312.907c-4.114,0-7.45-3.341-7.45-7.449V12.601c0-4.103,3.336-7.456,7.45-7.456h207.305
			c4.101,0,7.443,3.353,7.443,7.456v292.857c0,4.108-3.342,7.449-7.443,7.449H10.759z"/>
		<path fill="#BDBBB8" d="M10.345,311.249c-3.43,0-6.209-2.783-6.209-6.208V12.188c0-3.418,2.779-6.216,6.209-6.216h207.305
			c3.416,0,6.2,2.798,6.2,6.216v292.854c0,3.425-2.784,6.208-6.2,6.208H10.345z"/>
	</g>
	<linearGradient id="SVGID_1_" gradientUnits="userSpaceOnUse" x1="169.0894" y1="309.6787" x2="169.0893" y2="7.5659">
		<stop  offset="0" style="stop-color:#353332"/>
		<stop  offset="1" style="stop-color:#878582"/>
	</linearGradient>
	<path fill="url(#SVGID_1_)" d="M114.329,158.491l107.397,151.188c1.285-1.139,2.123-2.791,2.123-4.638V12.188
		c0-1.839-0.826-3.49-2.111-4.622L114.329,158.491z"/>
	<path fill="#050000" d="M114.329,158.491L6.561,309.923c1.051,0.821,2.353,1.326,3.784,1.326h207.305
		c1.553,0,2.972-0.602,4.077-1.57L114.329,158.491z"/>
	<linearGradient id="SVGID_2_" gradientUnits="userSpaceOnUse" x1="112.937" y1="309.9229" x2="112.937" y2="5.9722">
		<stop  offset="0" style="stop-color:#6B6967"/>
		<stop  offset="1" style="stop-color:#A19F9B"/>
	</linearGradient>
	<path fill="url(#SVGID_2_)" d="M6.561,309.923L221.738,7.565c-1.091-0.976-2.523-1.594-4.088-1.594H10.345
		c-3.41,0-6.209,2.798-6.209,6.216v292.854C4.136,307.034,5.101,308.784,6.561,309.923z"/>
	<linearGradient id="SVGID_3_" gradientUnits="userSpaceOnUse" x1="23.6465" y1="2.1255" x2="204.3496" y2="315.1125">
		<stop  offset="0" style="stop-color:#514F4E"/>
		<stop  offset="1" style="stop-color:#171313"/>
	</linearGradient>
	<path fill="url(#SVGID_3_)" d="M10.345,307.124c-1.119,0-2.066-0.943-2.066-2.083V12.188c0-1.123,0.947-2.075,2.066-2.075h207.305
		c1.114,0,2.069,0.952,2.069,2.075v292.854c0,1.14-0.955,2.083-2.069,2.083H10.345z"/>
	<linearGradient id="SVGID_4_" gradientUnits="userSpaceOnUse" x1="113.9922" y1="274.5107" x2="113.9922" y2="42.7183">
		<stop  offset="0" style="stop-color:#5D5C59"/>
		<stop  offset="0.1283" style="stop-color:#5B5956"/>
		<stop  offset="0.2961" style="stop-color:#52514F"/>
		<stop  offset="0.486" style="stop-color:#444342"/>
		<stop  offset="0.6921" style="stop-color:#302F2E"/>
		<stop  offset="0.9089" style="stop-color:#161313"/>
		<stop  offset="1" style="stop-color:#050000"/>
	</linearGradient>
	<path fill="url(#SVGID_4_)" d="M191.089,42.718c2.279,0,4.138,1.863,4.138,4.134v223.524c0,2.278-1.858,4.135-4.138,4.135H36.899
		c-2.278,0-4.142-1.856-4.142-4.135V46.852c0-2.271,1.863-4.134,4.142-4.134H191.089z"/>
	<g>
		<linearGradient id="SVGID_5_" gradientUnits="userSpaceOnUse" x1="8.3506" y1="8.29" x2="219.9805" y2="8.29">
			<stop  offset="0" style="stop-color:#A19F9B"/>
			<stop  offset="0.2667" style="stop-color:#F8F9F9"/>
			<stop  offset="1" style="stop-color:#A19F9B"/>
		</linearGradient>
		<path fill="url(#SVGID_5_)" d="M218.947,10.356H9.389c-0.573,0-1.038-0.928-1.038-2.066c0-1.155,0.465-2.066,1.038-2.066h209.559
			c0.561,0,1.033,0.911,1.033,2.066C219.98,9.429,219.508,10.356,218.947,10.356L218.947,10.356z"/>
	</g>
	<g>
		
			<linearGradient id="SVGID_6_" gradientUnits="userSpaceOnUse" x1="113.9941" y1="-73.1387" x2="113.9941" y2="-251.8203" gradientTransform="matrix(1 0 0 -1 0 -24.7324)">
			<stop  offset="0" style="stop-color:#1B9B3A"/>
			<stop  offset="0.1334" style="stop-color:#1C9739"/>
			<stop  offset="0.3292" style="stop-color:#1F8A36"/>
			<stop  offset="0.5635" style="stop-color:#20752F"/>
			<stop  offset="0.8253" style="stop-color:#1D5824"/>
			<stop  offset="1" style="stop-color:#164219"/>
		</linearGradient>
		<path fill="url(#SVGID_6_)" d="M40.001,48.406c-1.702,0-3.102,1.407-3.102,3.108v172.465c0,1.717,1.399,3.108,3.102,3.108h147.984
			c1.708,0,3.104-1.392,3.104-3.108V51.515c0-1.701-1.396-3.108-3.104-3.108H40.001z"/>
		<linearGradient id="SVGID_7_" gradientUnits="userSpaceOnUse" x1="113.9951" y1="225.9482" x2="113.9951" y2="55.6479">
			<stop  offset="0" style="stop-color:#165021"/>
			<stop  offset="0.0714" style="stop-color:#1B5924"/>
			<stop  offset="0.3661" style="stop-color:#2C7E2E"/>
			<stop  offset="0.6296" style="stop-color:#3A9A33"/>
			<stop  offset="0.8499" style="stop-color:#42AB34"/>
			<stop  offset="1" style="stop-color:#45B035"/>
		</linearGradient>
		<path fill="url(#SVGID_7_)" d="M46.209,225.948c-1.14,0-2.066-0.927-2.066-2.066V57.722c0-1.138,0.927-2.074,2.066-2.074h135.563
			c1.139,0,2.075,0.937,2.075,2.074v166.16c0,1.14-0.937,2.066-2.075,2.066H46.209z"/>
		
			<linearGradient id="SVGID_8_" gradientUnits="userSpaceOnUse" x1="113.9941" y1="-251.8203" x2="113.9941" y2="-293.5635" gradientTransform="matrix(1 0 0 -1 0 -24.7324)">
			<stop  offset="0" style="stop-color:#173718"/>
			<stop  offset="0.3254" style="stop-color:#152A15"/>
			<stop  offset="0.9788" style="stop-color:#060101"/>
			<stop  offset="1" style="stop-color:#050000"/>
		</linearGradient>
		<path fill="url(#SVGID_8_)" d="M40.001,227.088c-1.702,0-3.102,1.399-3.102,3.116v35.519c0,1.716,1.399,3.108,3.102,3.108h147.984
			c1.708,0,3.104-1.393,3.104-3.108v-35.519c0-1.717-1.396-3.116-3.104-3.116H40.001z"/>
		<linearGradient id="SVGID_9_" gradientUnits="userSpaceOnUse" x1="113.9951" y1="261.5801" x2="113.9951" y2="232.2705">
			<stop  offset="0" style="stop-color:#121E10"/>
			<stop  offset="0.2659" style="stop-color:#162A16"/>
			<stop  offset="0.7993" style="stop-color:#1A461F"/>
			<stop  offset="1" style="stop-color:#185021"/>
		</linearGradient>
		<path fill="url(#SVGID_9_)" d="M46.209,261.58c-1.14,0-2.066-0.927-2.066-2.066v-25.185c0-1.13,0.927-2.059,2.066-2.059h135.563
			c1.139,0,2.075,0.929,2.075,2.059v25.185c0,1.14-0.937,2.066-2.075,2.066H46.209z"/>
		
			<linearGradient id="SVGID_10_" gradientUnits="userSpaceOnUse" x1="113.9941" y1="-249.0693" x2="113.9941" y2="-259.4121" gradientTransform="matrix(1 0 0 -1 0 -24.7324)">
			<stop  offset="0" style="stop-color:#07682E"/>
			<stop  offset="0.0646" style="stop-color:#28762F"/>
			<stop  offset="0.2551" style="stop-color:#5F9D2C"/>
			<stop  offset="0.4069" style="stop-color:#7EB826"/>
			<stop  offset="0.5" style="stop-color:#8AC221"/>
			<stop  offset="0.576" style="stop-color:#81B924"/>
			<stop  offset="0.6998" style="stop-color:#689E28"/>
			<stop  offset="0.8552" style="stop-color:#427628"/>
			<stop  offset="1" style="stop-color:#185021"/>
		</linearGradient>
		<path fill="url(#SVGID_10_)" d="M187.985,234.68c1.708,0,3.104-1.392,3.104-3.092v-4.159c0-1.7-1.396-3.092-3.104-3.092H40.001
			c-1.702,0-3.102,1.392-3.102,3.092v4.159c0,1.7,1.399,3.092,3.102,3.092H187.985z"/>
		<g>
			<linearGradient id="SVGID_11_" gradientUnits="userSpaceOnUse" x1="40.001" y1="51.7505" x2="188.1563" y2="51.7505">
				<stop  offset="0" style="stop-color:#1B9B3A"/>
				<stop  offset="0.0537" style="stop-color:#73B260"/>
				<stop  offset="0.1077" style="stop-color:#A3C98C"/>
				<stop  offset="0.158" style="stop-color:#C4DCB3"/>
				<stop  offset="0.2028" style="stop-color:#DAEACF"/>
				<stop  offset="0.2405" style="stop-color:#E7F2DF"/>
				<stop  offset="0.2667" style="stop-color:#ECF5E5"/>
				<stop  offset="0.339" style="stop-color:#E8F2DF"/>
				<stop  offset="0.4421" style="stop-color:#DBEACF"/>
				<stop  offset="0.5637" style="stop-color:#C5DDB4"/>
				<stop  offset="0.6993" style="stop-color:#A5CA8E"/>
				<stop  offset="0.8466" style="stop-color:#76B362"/>
				<stop  offset="1" style="stop-color:#1B9B3A"/>
			</linearGradient>
			<path fill="url(#SVGID_11_)" d="M187.123,53.817H41.037c-0.569,0-1.036-0.921-1.036-2.059c0-1.148,0.467-2.075,1.036-2.075
				h146.086c0.573,0,1.033,0.927,1.033,2.075C188.156,52.896,187.696,53.817,187.123,53.817L187.123,53.817z"/>
		</g>
		
			<linearGradient id="SVGID_12_" gradientUnits="userSpaceOnUse" x1="40.521" y1="-241.0625" x2="40.521" y2="-261.7637" gradientTransform="matrix(1 0 0 -1 0 -24.7324)">
			<stop  offset="0" style="stop-color:#07682E"/>
			<stop  offset="0.0646" style="stop-color:#28762F"/>
			<stop  offset="0.2551" style="stop-color:#5F9D2C"/>
			<stop  offset="0.4069" style="stop-color:#7EB826"/>
			<stop  offset="0.5" style="stop-color:#8AC221"/>
			<stop  offset="0.576" style="stop-color:#81B924"/>
			<stop  offset="0.6998" style="stop-color:#689E28"/>
			<stop  offset="0.8552" style="stop-color:#427628"/>
			<stop  offset="1" style="stop-color:#185021"/>
		</linearGradient>
		<path fill="url(#SVGID_12_)" d="M44.143,218.396c0-1.138-0.932-2.066-2.071-2.066h-3.096c-1.147,0-2.076,0.929-2.076,2.066v16.551
			c0,1.141,0.929,2.084,2.076,2.084h3.096c1.14,0,2.071-0.943,2.071-2.084V218.396z"/>
		
			<linearGradient id="SVGID_13_" gradientUnits="userSpaceOnUse" x1="187.4683" y1="-241.0625" x2="187.4683" y2="-261.7637" gradientTransform="matrix(1 0 0 -1 0 -24.7324)">
			<stop  offset="0" style="stop-color:#07682E"/>
			<stop  offset="0.0646" style="stop-color:#28762F"/>
			<stop  offset="0.2551" style="stop-color:#5F9D2C"/>
			<stop  offset="0.4069" style="stop-color:#7EB826"/>
			<stop  offset="0.5" style="stop-color:#8AC221"/>
			<stop  offset="0.576" style="stop-color:#81B924"/>
			<stop  offset="0.6998" style="stop-color:#689E28"/>
			<stop  offset="0.8552" style="stop-color:#427628"/>
			<stop  offset="1" style="stop-color:#185021"/>
		</linearGradient>
		<path fill="url(#SVGID_13_)" d="M191.089,218.396c0-1.138-0.932-2.066-2.066-2.066h-3.113c-1.138,0-2.062,0.929-2.062,2.066
			v16.551c0,1.141,0.924,2.084,2.062,2.084h3.113c1.135,0,2.066-0.943,2.066-2.084V218.396z"/>
		<path fill="#9FCF83" d="M118.344,110.743c0,1.14-0.935,2.068-2.075,2.068h-4.548c-1.14,0-2.071-0.929-2.071-2.068V67.276
			c0-1.141,0.932-2.076,2.071-2.076h4.548c1.141,0,2.075,0.936,2.075,2.076V110.743z"/>
		<g>
			<path fill="#9FCF83" d="M113.999,210.081c-14.269,0-25.877-8.763-25.877-19.546c0-10.773,11.608-19.536,25.877-19.536
				c14.256,0,25.863,8.763,25.863,19.536C139.862,201.318,128.255,210.081,113.999,210.081L113.999,210.081z M113.999,176.409
				c-10.326,0-18.725,6.34-18.725,14.126c0,7.804,8.398,14.143,18.725,14.143c10.313,0,18.715-6.339,18.715-14.143
				C132.714,182.749,124.312,176.409,113.999,176.409L113.999,176.409z"/>
		</g>
	</g>
</g>
</svg>
