<?xml version="1.0" encoding="utf-8"?>
<!-- Generator: Adobe Illustrator 16.0.0, SVG Export Plug-In . SVG Version: 6.00 Build 0)  -->
<!DOCTYPE svg PUBLIC "-//W3C//DTD SVG 1.1//EN" "http://www.w3.org/Graphics/SVG/1.1/DTD/svg11.dtd">
<svg version="1.1" id="图层_1" xmlns="http://www.w3.org/2000/svg" preserveAspectRatio="none" xmlns:xlink="http://www.w3.org/1999/xlink" x="0px" y="0px"
	 width="280px" height="80px" viewBox="0 0 280 80" enable-background="new 0 0 280 80" xml:space="preserve">
<linearGradient id="SVGID_1_" gradientUnits="userSpaceOnUse" x1="1676.375" y1="-4097.8389" x2="1676.375" y2="-4021.9993" gradientTransform="matrix(-1 0 0 -1 1816.7305 -4019.5059)">
	<stop  offset="0" style="stop-color:#256433"/>
	<stop  offset="1" style="stop-color:#4BB134"/>
</linearGradient>
<path fill="url(#SVGID_1_)" d="M2.013,40.469c0,3.704,0.413,7.382,1.228,10.932c3.639,15.857,14.99,26.933,27.606,26.933h219.017
	c15.899,0,28.834-16.984,28.834-37.864c0-10.403-3.158-20.11-8.896-27.328c-5.398-6.794-12.479-10.534-19.938-10.534H30.847
	C14.947,2.606,2.013,19.591,2.013,40.469z"/>
<path opacity="0.53" fill="#FFFFFF" d="M262.756,14.073c0,5.223-6.318,9.456-10.786,9.456H27.257c-4.468,0-8.988-4.233-8.988-9.456
	l0,0c0-5.222,4.521-9.456,8.988-9.456H251.97C256.438,4.617,262.756,8.851,262.756,14.073L262.756,14.073z"/>
</svg>
