<?xml version="1.0" encoding="utf-8"?>
<!-- Generator: Adobe Illustrator 16.0.0, SVG Export Plug-In . SVG Version: 6.00 Build 0)  -->
<!DOCTYPE svg PUBLIC "-//W3C//DTD SVG 1.1//EN" "http://www.w3.org/Graphics/SVG/1.1/DTD/svg11.dtd">
<svg version="1.1" id="图层_1" xmlns="http://www.w3.org/2000/svg" preserveAspectRatio="none" xmlns:xlink="http://www.w3.org/1999/xlink" x="0px" y="0px"
	 width="280px" height="80px" viewBox="0 0 280 80" enable-background="new 0 0 280 80" xml:space="preserve">
<linearGradient id="SVGID_1_" gradientUnits="userSpaceOnUse" x1="1676.4805" y1="-4097.8389" x2="1676.4805" y2="-4021.3918" gradientTransform="matrix(-1 0 0 -1 1816.7305 -4019.5059)">
	<stop  offset="0" style="stop-color:#620F13"/>
	<stop  offset="1" style="stop-color:#B41D23"/>
</linearGradient>
<path fill="url(#SVGID_1_)" d="M2,40.165c0,3.734,0.413,7.441,1.228,11.02c3.636,15.983,14.98,27.148,27.587,27.148h218.87
	c15.89,0,28.815-17.121,28.815-38.168c0-10.486-3.156-20.27-8.889-27.547C264.216,5.77,257.141,2,249.685,2H30.815
	C14.925,2,2,19.121,2,40.165z"/>
<g>
	<path fill="#FFFFFF" d="M30.814,71.862C20.66,71.845,11.62,62.593,8.655,49.541l0,0C7.962,46.495,7.61,43.34,7.61,40.166l0,0
		C7.633,22.82,17.882,8.506,30.814,8.47l0,0h218.871c5.871-0.002,11.484,3.045,15.775,8.495l0,0c4.8,6.102,7.428,14.35,7.426,23.201
		l0,0c-0.022,17.344-10.271,31.66-23.201,31.696l0,0v-1.077v-1.081c5.828,0,11.133-3.252,15.021-8.591l0,0
		c3.884-5.337,6.313-12.752,6.311-20.947l0,0c0-8.363-2.477-16.08-6.94-21.75l0,0c-3.99-5.055-9.087-7.789-14.391-7.789l0,0H30.814
		c-5.829,0-11.134,3.252-15.022,8.591l0,0c-3.884,5.337-6.313,12.75-6.313,20.947l0,0c0,2.99,0.332,5.962,0.985,8.829l0,0
		c2.794,12.286,11.237,20.728,20.35,20.709l0,0h218.871v1.081v1.077H30.814L30.814,71.862z"/>
</g>
</svg>
