<?xml version="1.0" encoding="utf-8"?>
<!-- Generator: Adobe Illustrator 16.0.0, SVG Export Plug-In . SVG Version: 6.00 Build 0)  -->
<!DOCTYPE svg PUBLIC "-//W3C//DTD SVG 1.1//EN" "http://www.w3.org/Graphics/SVG/1.1/DTD/svg11.dtd">
<svg version="1.1" id="图层_1" xmlns="http://www.w3.org/2000/svg" preserveAspectRatio="none" xmlns:xlink="http://www.w3.org/1999/xlink" x="0px" y="0px"
	 width="232.134px" height="318.898px" viewBox="0 0 232.134 318.898" enable-background="new 0 0 232.134 318.898"
	 xml:space="preserve">
<g>
	<g>
		<path fill="#FFFFFF" d="M12.422,318.898C5.571,318.898,0,313.325,0,306.482V13.612C0,6.769,5.571,1.194,12.422,1.194h207.299
			c6.843,0,12.412,5.574,12.412,12.418v292.87c0,6.843-5.568,12.416-12.412,12.416H12.422z"/>
		<path fill="#F2F2F2" d="M12.009,317.24c-6.166,0-11.18-5.016-11.18-11.175V13.199c0-6.159,5.014-11.178,11.18-11.178h207.298
			c6.161,0,11.17,5.019,11.17,11.178v292.866c0,6.159-5.01,11.175-11.17,11.175H12.009z"/>
		<path fill="#E5E4E3" d="M11.596,315.582c-5.481,0-9.938-4.457-9.938-9.933V12.786c0-5.473,4.457-9.937,9.938-9.937h207.296
			c5.476,0,9.931,4.464,9.931,9.937v292.864c0,5.476-4.455,9.933-9.931,9.933H11.596z"/>
		<path fill="#D7D6D4" d="M11.182,313.924c-4.796,0-8.696-3.899-8.696-8.691V12.373c0-4.789,3.9-8.697,8.696-8.697h207.295
			c4.793,0,8.689,3.908,8.689,8.697v292.86c0,4.792-3.896,8.691-8.689,8.691H11.182z"/>
		<path fill="#CAC8C6" d="M10.769,312.266c-4.111,0-7.455-3.341-7.455-7.449V11.959c0-4.103,3.343-7.456,7.455-7.456h207.293
			c4.108,0,7.448,3.353,7.448,7.456v292.857c0,4.108-3.34,7.449-7.448,7.449H10.769z"/>
		<path fill="#BDBBB8" d="M10.355,310.607c-3.426,0-6.212-2.783-6.212-6.208V11.546c0-3.418,2.787-6.216,6.212-6.216h207.292
			c3.426,0,6.207,2.798,6.207,6.216v292.854c0,3.425-2.781,6.208-6.207,6.208H10.355z"/>
	</g>
	<linearGradient id="SVGID_1_" gradientUnits="userSpaceOnUse" x1="169.0923" y1="309.0371" x2="169.0923" y2="6.9243">
		<stop  offset="0" style="stop-color:#353332"/>
		<stop  offset="1" style="stop-color:#878582"/>
	</linearGradient>
	<path fill="url(#SVGID_1_)" d="M114.33,157.85l107.397,151.188c1.295-1.139,2.127-2.791,2.127-4.638V11.546
		c0-1.839-0.828-3.49-2.115-4.622L114.33,157.85z"/>
	<path fill="#050000" d="M114.33,157.85L6.563,309.281c1.054,0.821,2.359,1.326,3.792,1.326h207.292c1.566,0,2.986-0.602,4.08-1.57
		L114.33,157.85z"/>
	<linearGradient id="SVGID_2_" gradientUnits="userSpaceOnUse" x1="112.9414" y1="309.2813" x2="112.9414" y2="5.3306">
		<stop  offset="0" style="stop-color:#6B6967"/>
		<stop  offset="1" style="stop-color:#A19F9B"/>
	</linearGradient>
	<path fill="url(#SVGID_2_)" d="M6.563,309.281L221.739,6.924c-1.089-0.976-2.514-1.594-4.092-1.594H10.355
		c-3.422,0-6.212,2.798-6.212,6.216v292.854C4.143,306.393,5.103,308.143,6.563,309.281z"/>
	<linearGradient id="SVGID_3_" gradientUnits="userSpaceOnUse" x1="23.6499" y1="1.4854" x2="204.352" y2="314.4707">
		<stop  offset="0" style="stop-color:#514F4E"/>
		<stop  offset="1" style="stop-color:#171313"/>
	</linearGradient>
	<path fill="url(#SVGID_3_)" d="M10.355,306.482c-1.124,0-2.076-0.943-2.076-2.083V11.546c0-1.123,0.952-2.075,2.076-2.075h207.292
		c1.123,0,2.075,0.952,2.075,2.075v292.854c0,1.14-0.952,2.083-2.075,2.083H10.355z"/>
	<linearGradient id="SVGID_4_" gradientUnits="userSpaceOnUse" x1="113.998" y1="273.8691" x2="113.998" y2="42.0767">
		<stop  offset="0" style="stop-color:#5D5C59"/>
		<stop  offset="0.1283" style="stop-color:#5B5956"/>
		<stop  offset="0.2961" style="stop-color:#52514F"/>
		<stop  offset="0.486" style="stop-color:#444342"/>
		<stop  offset="0.6921" style="stop-color:#302F2E"/>
		<stop  offset="0.9089" style="stop-color:#161313"/>
		<stop  offset="1" style="stop-color:#050000"/>
	</linearGradient>
	<path fill="url(#SVGID_4_)" d="M191.096,42.076c2.278,0,4.136,1.863,4.136,4.134v223.524c0,2.278-1.858,4.135-4.136,4.135H36.907
		c-2.278,0-4.143-1.856-4.143-4.135V46.21c0-2.271,1.865-4.134,4.143-4.134H191.096z"/>
	<g>
		<linearGradient id="SVGID_5_" gradientUnits="userSpaceOnUse" x1="8.3608" y1="7.6484" x2="219.9863" y2="7.6484">
			<stop  offset="0" style="stop-color:#A19F9B"/>
			<stop  offset="0.2667" style="stop-color:#F8F9F9"/>
			<stop  offset="1" style="stop-color:#A19F9B"/>
		</linearGradient>
		<path fill="url(#SVGID_5_)" d="M218.95,9.715H9.394c-0.573,0-1.033-0.928-1.033-2.066c0-1.155,0.46-2.066,1.033-2.066H218.95
			c0.573,0,1.037,0.911,1.037,2.066C219.986,8.787,219.523,9.715,218.95,9.715L218.95,9.715z"/>
	</g>
	<g>
		
			<linearGradient id="SVGID_6_" gradientUnits="userSpaceOnUse" x1="114.0015" y1="-72.4971" x2="114.0015" y2="-251.1787" gradientTransform="matrix(1 0 0 -1 0 -24.7324)">
			<stop  offset="0" style="stop-color:#0083AF"/>
			<stop  offset="0.1302" style="stop-color:#007FAB"/>
			<stop  offset="0.3214" style="stop-color:#0072A1"/>
			<stop  offset="0.5501" style="stop-color:#005D90"/>
			<stop  offset="0.8056" style="stop-color:#07437C"/>
			<stop  offset="1" style="stop-color:#102D6E"/>
		</linearGradient>
		<path fill="url(#SVGID_6_)" d="M40.007,47.765c-1.71,0-3.1,1.407-3.1,3.108v172.465c0,1.717,1.39,3.108,3.1,3.108h147.989
			c1.7,0,3.1-1.392,3.1-3.108V50.873c0-1.701-1.4-3.108-3.1-3.108H40.007z"/>
		<linearGradient id="SVGID_7_" gradientUnits="userSpaceOnUse" x1="113.9966" y1="225.3066" x2="113.9966" y2="55.0063">
			<stop  offset="0" style="stop-color:#00398F"/>
			<stop  offset="0.1572" style="stop-color:#00549F"/>
			<stop  offset="0.3732" style="stop-color:#0076B7"/>
			<stop  offset="0.5733" style="stop-color:#0091CA"/>
			<stop  offset="0.7508" style="stop-color:#05A5D8"/>
			<stop  offset="0.899" style="stop-color:#15B1DF"/>
			<stop  offset="1" style="stop-color:#19B5E2"/>
		</linearGradient>
		<path fill="url(#SVGID_7_)" d="M46.214,225.307c-1.138,0-2.066-0.927-2.066-2.066V57.08c0-1.138,0.928-2.074,2.066-2.074h135.569
			c1.135,0,2.062,0.937,2.062,2.074v166.16c0,1.14-0.927,2.066-2.062,2.066H46.214z"/>
		
			<linearGradient id="SVGID_8_" gradientUnits="userSpaceOnUse" x1="114.0015" y1="-251.1787" x2="114.0015" y2="-292.9219" gradientTransform="matrix(1 0 0 -1 0 -24.7324)">
			<stop  offset="0" style="stop-color:#001F48"/>
			<stop  offset="1" style="stop-color:#050000"/>
		</linearGradient>
		<path fill="url(#SVGID_8_)" d="M40.007,226.446c-1.71,0-3.1,1.399-3.1,3.116v35.519c0,1.716,1.39,3.108,3.1,3.108h147.989
			c1.7,0,3.1-1.393,3.1-3.108v-35.519c0-1.717-1.4-3.116-3.1-3.116H40.007z"/>
		<linearGradient id="SVGID_9_" gradientUnits="userSpaceOnUse" x1="113.9966" y1="260.9385" x2="113.9966" y2="231.6289">
			<stop  offset="0" style="stop-color:#0A1223"/>
			<stop  offset="0.1495" style="stop-color:#0D182E"/>
			<stop  offset="0.4511" style="stop-color:#132649"/>
			<stop  offset="0.8738" style="stop-color:#0F326F"/>
			<stop  offset="1" style="stop-color:#0A337A"/>
		</linearGradient>
		<path fill="url(#SVGID_9_)" d="M46.214,260.938c-1.138,0-2.066-0.927-2.066-2.066v-25.185c0-1.13,0.928-2.059,2.066-2.059h135.569
			c1.135,0,2.062,0.929,2.062,2.059v25.185c0,1.14-0.927,2.066-2.062,2.066H46.214z"/>
		
			<linearGradient id="SVGID_10_" gradientUnits="userSpaceOnUse" x1="114.0015" y1="-248.4277" x2="114.0015" y2="-258.7705" gradientTransform="matrix(1 0 0 -1 0 -24.7324)">
			<stop  offset="0" style="stop-color:#00398F"/>
			<stop  offset="0.02" style="stop-color:#004092"/>
			<stop  offset="0.1513" style="stop-color:#126AAA"/>
			<stop  offset="0.2696" style="stop-color:#2C8DBD"/>
			<stop  offset="0.3708" style="stop-color:#40A7CA"/>
			<stop  offset="0.4509" style="stop-color:#4CB6D2"/>
			<stop  offset="0.5" style="stop-color:#51BCD4"/>
			<stop  offset="0.5474" style="stop-color:#4DB6D0"/>
			<stop  offset="0.6248" style="stop-color:#42A6C6"/>
			<stop  offset="0.7226" style="stop-color:#328CB5"/>
			<stop  offset="0.8369" style="stop-color:#1E689C"/>
			<stop  offset="0.9637" style="stop-color:#0A3F81"/>
			<stop  offset="1" style="stop-color:#0A337A"/>
		</linearGradient>
		<path fill="url(#SVGID_10_)" d="M187.996,234.038c1.7,0,3.1-1.392,3.1-3.092v-4.159c0-1.7-1.4-3.092-3.1-3.092H40.007
			c-1.71,0-3.1,1.392-3.1,3.092v4.159c0,1.7,1.39,3.092,3.1,3.092H187.996z"/>
		<g>
			<linearGradient id="SVGID_11_" gradientUnits="userSpaceOnUse" x1="40.0068" y1="51.1089" x2="188.1665" y2="51.1089">
				<stop  offset="0" style="stop-color:#0083AF"/>
				<stop  offset="0.0126" style="stop-color:#2389B4"/>
				<stop  offset="0.0771" style="stop-color:#76AACB"/>
				<stop  offset="0.137" style="stop-color:#A5C8E0"/>
				<stop  offset="0.1905" style="stop-color:#C4DEEF"/>
				<stop  offset="0.2355" style="stop-color:#D5ECF9"/>
				<stop  offset="0.2667" style="stop-color:#DCF0FB"/>
				<stop  offset="0.3529" style="stop-color:#D6ECF9"/>
				<stop  offset="0.4757" style="stop-color:#C4DFEF"/>
				<stop  offset="0.6204" style="stop-color:#A7C9E0"/>
				<stop  offset="0.7818" style="stop-color:#79ACCC"/>
				<stop  offset="0.9551" style="stop-color:#2C8BB5"/>
				<stop  offset="1" style="stop-color:#0083AF"/>
			</linearGradient>
			<path fill="url(#SVGID_11_)" d="M187.128,53.176H41.044c-0.574,0-1.038-0.921-1.038-2.059c0-1.148,0.463-2.075,1.038-2.075
				h146.084c0.575,0,1.038,0.927,1.038,2.075C188.167,52.255,187.703,53.176,187.128,53.176L187.128,53.176z"/>
		</g>
		
			<linearGradient id="SVGID_12_" gradientUnits="userSpaceOnUse" x1="40.5273" y1="-240.4209" x2="40.5273" y2="-261.1221" gradientTransform="matrix(1 0 0 -1 0 -24.7324)">
			<stop  offset="0" style="stop-color:#00398F"/>
			<stop  offset="0.1425" style="stop-color:#1A52A0"/>
			<stop  offset="0.2989" style="stop-color:#326CB3"/>
			<stop  offset="0.4236" style="stop-color:#417DC0"/>
			<stop  offset="0.5" style="stop-color:#4683C5"/>
			<stop  offset="0.5719" style="stop-color:#427DBF"/>
			<stop  offset="0.6892" style="stop-color:#366CAE"/>
			<stop  offset="0.8372" style="stop-color:#225195"/>
			<stop  offset="1" style="stop-color:#0A337A"/>
		</linearGradient>
		<path fill="url(#SVGID_12_)" d="M44.148,217.755c0-1.138-0.932-2.066-2.067-2.066h-3.108c-1.14,0-2.066,0.929-2.066,2.066v16.551
			c0,1.141,0.927,2.084,2.066,2.084h3.108c1.135,0,2.067-0.943,2.067-2.084V217.755z"/>
		
			<linearGradient id="SVGID_13_" gradientUnits="userSpaceOnUse" x1="187.4707" y1="-240.4209" x2="187.4707" y2="-261.1221" gradientTransform="matrix(1 0 0 -1 0 -24.7324)">
			<stop  offset="0" style="stop-color:#00398F"/>
			<stop  offset="0.1425" style="stop-color:#1A52A0"/>
			<stop  offset="0.2989" style="stop-color:#326CB3"/>
			<stop  offset="0.4236" style="stop-color:#417DC0"/>
			<stop  offset="0.5" style="stop-color:#4683C5"/>
			<stop  offset="0.5719" style="stop-color:#427DBF"/>
			<stop  offset="0.6892" style="stop-color:#366CAE"/>
			<stop  offset="0.8372" style="stop-color:#225195"/>
			<stop  offset="1" style="stop-color:#0A337A"/>
		</linearGradient>
		<path fill="url(#SVGID_13_)" d="M191.096,217.755c0-1.138-0.932-2.066-2.072-2.066h-3.1c-1.143,0-2.079,0.929-2.079,2.066v16.551
			c0,1.141,0.937,2.084,2.079,2.084h3.1c1.14,0,2.072-0.943,2.072-2.084V217.755z"/>
		<path fill="#8FD0F1" d="M118.341,110.102c0,1.14-0.927,2.068-2.066,2.068h-4.549c-1.138,0-2.074-0.929-2.074-2.068V66.635
			c0-1.141,0.936-2.076,2.074-2.076h4.549c1.14,0,2.066,0.936,2.066,2.076V110.102z"/>
		<g>
			<path fill="#8FD0F1" d="M113.997,209.439c-14.26,0-25.867-8.763-25.867-19.546c0-10.773,11.606-19.536,25.867-19.536
				c14.265,0,25.872,8.763,25.872,19.536C139.868,200.677,128.262,209.439,113.997,209.439L113.997,209.439z M113.997,175.768
				c-10.318,0-18.715,6.34-18.715,14.126c0,7.804,8.397,14.143,18.715,14.143c10.326,0,18.719-6.339,18.719-14.143
				C132.716,182.107,124.322,175.768,113.997,175.768L113.997,175.768z"/>
		</g>
	</g>
</g>
</svg>
