<?xml version="1.0" encoding="utf-8"?>
<!-- Generator: Adobe Illustrator 16.0.0, SVG Export Plug-In . SVG Version: 6.00 Build 0)  -->
<!DOCTYPE svg PUBLIC "-//W3C//DTD SVG 1.1//EN" "http://www.w3.org/Graphics/SVG/1.1/DTD/svg11.dtd">
<svg version="1.1" id="图层_1" xmlns="http://www.w3.org/2000/svg" preserveAspectRatio="none" xmlns:xlink="http://www.w3.org/1999/xlink" x="0px" y="0px"
	 width="232.134px" height="318.898px" viewBox="0 0 232.134 318.898" enable-background="new 0 0 232.134 318.898"
	 xml:space="preserve">
<g>
	<g>
		<path fill="#FFFFFF" d="M12.417,318.898C5.571,318.898,0,313.324,0,306.481V13.628C0,6.776,5.571,1.212,12.417,1.212h207.296
			c6.847,0,12.417,5.564,12.417,12.416v292.854c0,6.843-5.57,12.417-12.417,12.417H12.417z"/>
		<path fill="#F2F2F2" d="M12.003,317.243c-6.162,0-11.176-5.018-11.176-11.177V13.213c0-6.165,5.014-11.174,11.176-11.174h207.296
			c6.163,0,11.176,5.009,11.176,11.174v292.854c0,6.159-5.013,11.177-11.176,11.177H12.003z"/>
		<path fill="#E5E4E3" d="M11.589,315.589c-5.476,0-9.934-4.462-9.934-9.938V12.798c0-5.478,4.458-9.933,9.934-9.933h207.296
			c5.479,0,9.935,4.455,9.935,9.933v292.854c0,5.476-4.456,9.938-9.935,9.938H11.589z"/>
		<path fill="#D7D6D4" d="M11.175,313.934c-4.792,0-8.692-3.904-8.692-8.697V12.383c0-4.792,3.9-8.691,8.692-8.691h207.296
			c4.794,0,8.693,3.9,8.693,8.691v292.854c0,4.793-3.898,8.697-8.693,8.697H11.175z"/>
		<path fill="#CAC8C6" d="M10.76,312.279c-4.106,0-7.45-3.349-7.45-7.458V11.968c0-4.104,3.344-7.45,7.45-7.45h207.296
			c4.11,0,7.452,3.345,7.452,7.45v292.854c0,4.109-3.342,7.458-7.452,7.458H10.76z"/>
		<path fill="#BDBBB8" d="M10.346,310.624c-3.421,0-6.208-2.792-6.208-6.218V11.553c0-3.418,2.787-6.208,6.208-6.208h207.296
			c3.426,0,6.21,2.79,6.21,6.208v292.854c0,3.426-2.784,6.218-6.21,6.218H10.346z"/>
	</g>
	<linearGradient id="SVGID_1_" gradientUnits="userSpaceOnUse" x1="169.0898" y1="309.0439" x2="169.0898" y2="6.9321">
		<stop  offset="0" style="stop-color:#353332"/>
		<stop  offset="1" style="stop-color:#878582"/>
	</linearGradient>
	<path fill="url(#SVGID_1_)" d="M114.327,157.865l107.392,151.179c1.293-1.138,2.133-2.79,2.133-4.638V11.553
		c0-1.84-0.83-3.481-2.115-4.621L114.327,157.865z"/>
	<path fill="#050000" d="M114.327,157.865L6.563,309.288c1.054,0.822,2.359,1.336,3.783,1.336h207.296
		c1.567,0,2.983-0.61,4.077-1.58L114.327,157.865z"/>
	<linearGradient id="SVGID_2_" gradientUnits="userSpaceOnUse" x1="112.9375" y1="309.2881" x2="112.9375" y2="5.3452">
		<stop  offset="0" style="stop-color:#6B6967"/>
		<stop  offset="1" style="stop-color:#A19F9B"/>
	</linearGradient>
	<path fill="url(#SVGID_2_)" d="M6.563,309.288L221.737,6.932c-1.096-0.968-2.52-1.587-4.095-1.587H10.346
		c-3.413,0-6.208,2.8-6.208,6.208v292.854C4.138,306.392,5.103,308.15,6.563,309.288z"/>
	<linearGradient id="SVGID_3_" gradientUnits="userSpaceOnUse" x1="23.6499" y1="1.4976" x2="204.3442" y2="314.4693">
		<stop  offset="0" style="stop-color:#514F4E"/>
		<stop  offset="1" style="stop-color:#171313"/>
	</linearGradient>
	<path fill="url(#SVGID_3_)" d="M10.346,306.481c-1.118,0-2.067-0.952-2.067-2.075V11.553c0-1.114,0.949-2.066,2.067-2.066h207.296
		c1.12,0,2.072,0.952,2.072,2.066v292.854c0,1.123-0.952,2.075-2.072,2.075H10.346z"/>
	<linearGradient id="SVGID_4_" gradientUnits="userSpaceOnUse" x1="113.9951" y1="273.8828" x2="113.9951" y2="42.0845">
		<stop  offset="0" style="stop-color:#5D5C59"/>
		<stop  offset="0.1283" style="stop-color:#5B5956"/>
		<stop  offset="0.2961" style="stop-color:#52514F"/>
		<stop  offset="0.486" style="stop-color:#444342"/>
		<stop  offset="0.6921" style="stop-color:#302F2E"/>
		<stop  offset="0.9089" style="stop-color:#161313"/>
		<stop  offset="1" style="stop-color:#050000"/>
	</linearGradient>
	<path fill="url(#SVGID_4_)" d="M191.091,42.084c2.275,0,4.138,1.863,4.138,4.142v223.517c0,2.278-1.863,4.141-4.138,4.141H36.902
		c-2.278,0-4.141-1.862-4.141-4.141V46.226c0-2.278,1.863-4.142,4.141-4.142H191.091z"/>
	<g>
		<linearGradient id="SVGID_5_" gradientUnits="userSpaceOnUse" x1="8.3579" y1="7.6602" x2="219.9785" y2="7.6602">
			<stop  offset="0" style="stop-color:#A19F9B"/>
			<stop  offset="0.2667" style="stop-color:#F8F9F9"/>
			<stop  offset="1" style="stop-color:#A19F9B"/>
		</linearGradient>
		<path fill="url(#SVGID_5_)" d="M218.945,9.73H9.394c-0.573,0-1.036-0.929-1.036-2.074c0-1.14,0.463-2.066,1.036-2.066h209.551
			c0.57,0,1.034,0.927,1.034,2.066C219.979,8.802,219.515,9.73,218.945,9.73L218.945,9.73z"/>
	</g>
	<g>
		
			<linearGradient id="SVGID_6_" gradientUnits="userSpaceOnUse" x1="113.9966" y1="-72.5127" x2="113.9966" y2="-251.1865" gradientTransform="matrix(1 0 0 -1 0 -24.7324)">
			<stop  offset="0.0121" style="stop-color:#D9A200"/>
			<stop  offset="0.1631" style="stop-color:#D49A00"/>
			<stop  offset="0.3846" style="stop-color:#C58503"/>
			<stop  offset="0.6496" style="stop-color:#AE640E"/>
			<stop  offset="0.946" style="stop-color:#90390E"/>
			<stop  offset="1" style="stop-color:#8A310D"/>
		</linearGradient>
		<path fill="url(#SVGID_6_)" d="M40.007,47.78c-1.71,0-3.105,1.39-3.105,3.1v172.473c0,1.709,1.395,3.102,3.105,3.102h147.977
			c1.708,0,3.108-1.393,3.108-3.102V50.88c0-1.71-1.4-3.1-3.108-3.1H40.007z"/>
		<linearGradient id="SVGID_7_" gradientUnits="userSpaceOnUse" x1="113.9951" y1="225.3145" x2="113.9951" y2="55.022">
			<stop  offset="0" style="stop-color:#A13214"/>
			<stop  offset="0.0296" style="stop-color:#A43914"/>
			<stop  offset="0.2786" style="stop-color:#BE6B09"/>
			<stop  offset="0.5088" style="stop-color:#D59300"/>
			<stop  offset="0.713" style="stop-color:#E6B100"/>
			<stop  offset="0.8837" style="stop-color:#F1C400"/>
			<stop  offset="1" style="stop-color:#F5CA00"/>
		</linearGradient>
		<path fill="url(#SVGID_7_)" d="M46.214,225.314c-1.138,0-2.069-0.928-2.069-2.067V57.088c0-1.14,0.931-2.066,2.069-2.066h135.56
			c1.14,0,2.071,0.927,2.071,2.066v166.159c0,1.14-0.932,2.067-2.071,2.067H46.214z"/>
		
			<linearGradient id="SVGID_8_" gradientUnits="userSpaceOnUse" x1="113.9966" y1="-251.1865" x2="113.9966" y2="-292.9219" gradientTransform="matrix(1 0 0 -1 0 -24.7324)">
			<stop  offset="0" style="stop-color:#87060D"/>
			<stop  offset="0.4062" style="stop-color:#4E1A12"/>
			<stop  offset="0.8032" style="stop-color:#1E100E"/>
			<stop  offset="1" style="stop-color:#090608"/>
		</linearGradient>
		<path fill="url(#SVGID_8_)" d="M40.007,226.454c-1.71,0-3.105,1.397-3.105,3.107v35.525c0,1.71,1.395,3.103,3.105,3.103h147.977
			c1.708,0,3.108-1.393,3.108-3.103v-35.525c0-1.71-1.4-3.107-3.108-3.107H40.007z"/>
		<linearGradient id="SVGID_9_" gradientUnits="userSpaceOnUse" x1="113.9951" y1="260.9463" x2="113.9951" y2="231.6289">
			<stop  offset="0" style="stop-color:#301007"/>
			<stop  offset="1" style="stop-color:#742206"/>
		</linearGradient>
		<path fill="url(#SVGID_9_)" d="M46.214,260.946c-1.138,0-2.069-0.927-2.069-2.067v-25.176c0-1.139,0.931-2.074,2.069-2.074h135.56
			c1.14,0,2.071,0.936,2.071,2.074v25.176c0,1.141-0.932,2.067-2.071,2.067H46.214z"/>
		
			<linearGradient id="SVGID_10_" gradientUnits="userSpaceOnUse" x1="113.9966" y1="-248.4277" x2="113.9966" y2="-258.7783" gradientTransform="matrix(1 0 0 -1 0 -24.7324)">
			<stop  offset="0" style="stop-color:#A12E14"/>
			<stop  offset="0.1281" style="stop-color:#B75112"/>
			<stop  offset="0.2908" style="stop-color:#D27800"/>
			<stop  offset="0.4205" style="stop-color:#E39100"/>
			<stop  offset="0.5" style="stop-color:#E99A00"/>
			<stop  offset="0.5728" style="stop-color:#E19000"/>
			<stop  offset="0.6914" style="stop-color:#C87600"/>
			<stop  offset="0.8412" style="stop-color:#A14F0B"/>
			<stop  offset="1" style="stop-color:#742206"/>
		</linearGradient>
		<path fill="url(#SVGID_10_)" d="M187.983,234.046c1.708,0,3.108-1.399,3.108-3.109v-4.134c0-1.708-1.4-3.107-3.108-3.107H40.007
			c-1.71,0-3.105,1.399-3.105,3.107v4.134c0,1.71,1.395,3.109,3.105,3.109H187.983z"/>
		<g>
			<linearGradient id="SVGID_11_" gradientUnits="userSpaceOnUse" x1="40.0068" y1="51.1196" x2="188.1587" y2="51.1196">
				<stop  offset="0" style="stop-color:#E4A900"/>
				<stop  offset="0.0214" style="stop-color:#E7B327"/>
				<stop  offset="0.0735" style="stop-color:#EEC970"/>
				<stop  offset="0.123" style="stop-color:#F4DCA5"/>
				<stop  offset="0.1684" style="stop-color:#F9ECCE"/>
				<stop  offset="0.209" style="stop-color:#FCF7EA"/>
				<stop  offset="0.2431" style="stop-color:#FEFDFA"/>
				<stop  offset="0.2667" style="stop-color:#FEFFFF"/>
				<stop  offset="0.3321" style="stop-color:#FEFDFB"/>
				<stop  offset="0.4254" style="stop-color:#FCF7EB"/>
				<stop  offset="0.5354" style="stop-color:#F9ECCF"/>
				<stop  offset="0.6582" style="stop-color:#F4DDA8"/>
				<stop  offset="0.7915" style="stop-color:#EFCB73"/>
				<stop  offset="0.9315" style="stop-color:#E8B52E"/>
				<stop  offset="1" style="stop-color:#E4A900"/>
			</linearGradient>
			<path fill="url(#SVGID_11_)" d="M187.125,53.191H41.04c-0.57,0-1.033-0.929-1.033-2.067c0-1.147,0.463-2.076,1.033-2.076h146.085
				c0.573,0,1.033,0.929,1.033,2.076C188.159,52.263,187.699,53.191,187.125,53.191L187.125,53.191z"/>
		</g>
		
			<linearGradient id="SVGID_12_" gradientUnits="userSpaceOnUse" x1="40.5234" y1="-240.4287" x2="40.5234" y2="-261.1211" gradientTransform="matrix(1 0 0 -1 0 -24.7324)">
			<stop  offset="0" style="stop-color:#A12E14"/>
			<stop  offset="0.1281" style="stop-color:#B75112"/>
			<stop  offset="0.2908" style="stop-color:#D27800"/>
			<stop  offset="0.4205" style="stop-color:#E39100"/>
			<stop  offset="0.5" style="stop-color:#E99A00"/>
			<stop  offset="0.5728" style="stop-color:#E19000"/>
			<stop  offset="0.6914" style="stop-color:#C87600"/>
			<stop  offset="0.8412" style="stop-color:#A14F0B"/>
			<stop  offset="1" style="stop-color:#742206"/>
		</linearGradient>
		<path fill="url(#SVGID_12_)" d="M44.145,217.763c0-1.14-0.932-2.066-2.067-2.066h-3.105c-1.14,0-2.071,0.927-2.071,2.066v16.559
			c0,1.14,0.932,2.067,2.071,2.067h3.105c1.135,0,2.067-0.928,2.067-2.067V217.763z"/>
		
			<linearGradient id="SVGID_13_" gradientUnits="userSpaceOnUse" x1="187.4683" y1="-240.4287" x2="187.4683" y2="-261.1211" gradientTransform="matrix(1 0 0 -1 0 -24.7324)">
			<stop  offset="0" style="stop-color:#A12E14"/>
			<stop  offset="0.1281" style="stop-color:#B75112"/>
			<stop  offset="0.2908" style="stop-color:#D27800"/>
			<stop  offset="0.4205" style="stop-color:#E39100"/>
			<stop  offset="0.5" style="stop-color:#E99A00"/>
			<stop  offset="0.5728" style="stop-color:#E19000"/>
			<stop  offset="0.6914" style="stop-color:#C87600"/>
			<stop  offset="0.8412" style="stop-color:#A14F0B"/>
			<stop  offset="1" style="stop-color:#742206"/>
		</linearGradient>
		<path fill="url(#SVGID_13_)" d="M191.091,217.763c0-1.14-0.935-2.066-2.071-2.066h-3.104c-1.14,0-2.071,0.927-2.071,2.066v16.559
			c0,1.14,0.932,2.067,2.071,2.067h3.104c1.137,0,2.071-0.928,2.071-2.067V217.763z"/>
		<path fill="#FFEC8D" d="M118.341,110.108c0,1.132-0.932,2.067-2.07,2.067h-4.553c-1.135,0-2.066-0.936-2.066-2.067V66.642
			c0-1.14,0.932-2.068,2.066-2.068h4.553c1.138,0,2.07,0.929,2.07,2.068V110.108z"/>
		<g>
			<path fill="#F6DD62" d="M113.997,209.447c-14.268,0-25.872-8.765-25.872-19.538c0-10.772,11.604-19.545,25.872-19.545
				c14.265,0,25.868,8.772,25.868,19.545C139.865,200.683,128.262,209.447,113.997,209.447L113.997,209.447z M113.997,175.775
				c-10.321,0-18.715,6.34-18.715,14.134c0,7.796,8.394,14.135,18.715,14.135c10.318,0,18.715-6.339,18.715-14.135
				C132.711,182.115,124.314,175.775,113.997,175.775L113.997,175.775z"/>
		</g>
	</g>
</g>
</svg>
