<?xml version="1.0" encoding="utf-8"?>
<!-- Generator: Adobe Illustrator 16.0.0, SVG Export Plug-In . SVG Version: 6.00 Build 0)  -->
<!DOCTYPE svg PUBLIC "-//W3C//DTD SVG 1.1//EN" "http://www.w3.org/Graphics/SVG/1.1/DTD/svg11.dtd">
<svg version="1.1" id="图层_1" xmlns="http://www.w3.org/2000/svg" preserveAspectRatio="none" xmlns:xlink="http://www.w3.org/1999/xlink" x="0px" y="0px"
	 width="300px" height="102.491px" viewBox="0 0 300 102.491" enable-background="new 0 0 300 102.491" xml:space="preserve">
<linearGradient id="SVGID_1_" gradientUnits="userSpaceOnUse" x1="38.3354" y1="121.459" x2="262.0903" y2="-18.3586">
	<stop  offset="0" style="stop-color:#BDBEBF"/>
	<stop  offset="0.0719" style="stop-color:#C1C1C3"/>
	<stop  offset="0.1438" style="stop-color:#CBCBCC"/>
	<stop  offset="0.2158" style="stop-color:#DDDCDD"/>
	<stop  offset="0.2874" style="stop-color:#F5F5F6"/>
	<stop  offset="0.3147" style="stop-color:#FFFFFF"/>
	<stop  offset="0.3878" style="stop-color:#E3E3E4"/>
	<stop  offset="0.4588" style="stop-color:#CECFD0"/>
	<stop  offset="0.5239" style="stop-color:#C1C2C4"/>
	<stop  offset="0.5776" style="stop-color:#BCBEC0"/>
	<stop  offset="0.7586" style="stop-color:#6D6E72"/>
	<stop  offset="0.8103" style="stop-color:#77787C"/>
	<stop  offset="0.8854" style="stop-color:#7F8083"/>
	<stop  offset="1" style="stop-color:#818286"/>
</linearGradient>
<path fill="url(#SVGID_1_)" stroke="#7B7C7C" stroke-width="1.52" stroke-miterlimit="10" d="M296.939,51.551
	c0,27.208-22.055,49.263-49.263,49.263H52.75c-27.208,0-49.264-22.055-49.264-49.263l0,0c0-27.208,22.056-49.263,49.264-49.263
	h194.926C274.885,2.288,296.939,24.342,296.939,51.551L296.939,51.551z"/>
<g opacity="0.8">
	<defs>
		<filter id="Adobe_OpacityMaskFilter" filterUnits="userSpaceOnUse" x="16.487" y="18.538" width="267.453" height="72.525">
			<feFlood  style="flood-color:white;flood-opacity:1" result="back"/>
			<feBlend  in="SourceGraphic" in2="back" mode="normal"/>
		</filter>
	</defs>
	<mask maskUnits="userSpaceOnUse" x="16.487" y="18.538" width="267.453" height="72.525" id="SVGID_2_">
		<g filter="url(#Adobe_OpacityMaskFilter)">
			
				<image overflow="visible" width="1132" height="319" xlink:href="64968500.jpg"  transform="matrix(0.24 0 0 0.24 14.4868 16.5381)">
			</image>
		</g>
	</mask>
	<g mask="url(#SVGID_2_)">
		<path fill="#221F20" d="M52.75,91.063c-19.996,0-36.264-16.268-36.264-36.263S32.754,18.538,52.75,18.538h194.926
			c19.995,0,36.263,16.268,36.263,36.263s-16.268,36.263-36.263,36.263H52.75z"/>
	</g>
</g>
<linearGradient id="SVGID_3_" gradientUnits="userSpaceOnUse" x1="150.2129" y1="15.2881" x2="150.2129" y2="87.814">
	<stop  offset="0" style="stop-color:#8EC04C"/>
	<stop  offset="0.2553" style="stop-color:#8CBE4C"/>
	<stop  offset="0.4373" style="stop-color:#82B549"/>
	<stop  offset="0.5965" style="stop-color:#72A745"/>
	<stop  offset="0.7426" style="stop-color:#5C9440"/>
	<stop  offset="0.8785" style="stop-color:#3D7E3B"/>
	<stop  offset="1" style="stop-color:#076736"/>
</linearGradient>
<path fill="url(#SVGID_3_)" d="M52.75,87.813c-19.996,0-36.264-16.268-36.264-36.263c0-19.996,16.268-36.263,36.264-36.263h194.926
	c19.995,0,36.263,16.267,36.263,36.263c0,19.995-16.268,36.263-36.263,36.263H52.75z"/>
<linearGradient id="SVGID_4_" gradientUnits="userSpaceOnUse" x1="150.2144" y1="85.8643" x2="150.2144" y2="17.2378">
	<stop  offset="0.6638" style="stop-color:#FFFFFF;stop-opacity:0"/>
	<stop  offset="0.9859" style="stop-color:#FFFFFF;stop-opacity:0.9832"/>
	<stop  offset="0.9914" style="stop-color:#FFFFFF"/>
</linearGradient>
<path fill="url(#SVGID_4_)" d="M52.75,85.864c-18.92,0-34.313-15.393-34.313-34.313c0-18.92,15.393-34.313,34.313-34.313h194.926
	c18.919,0,34.313,15.394,34.313,34.313c0,18.921-15.395,34.313-34.313,34.313H52.75z"/>
</svg>
