<?xml version="1.0" encoding="utf-8"?>
<!-- Generator: Adobe Illustrator 16.0.0, SVG Export Plug-In . SVG Version: 6.00 Build 0)  -->
<!DOCTYPE svg PUBLIC "-//W3C//DTD SVG 1.1//EN" "http://www.w3.org/Graphics/SVG/1.1/DTD/svg11.dtd">
<svg version="1.1" id="图层_1" xmlns="http://www.w3.org/2000/svg" preserveAspectRatio="none" xmlns:xlink="http://www.w3.org/1999/xlink" x="0px" y="0px"
	 width="232.134px" height="318.898px" viewBox="0 0 232.134 318.898" enable-background="new 0 0 232.134 318.898"
	 xml:space="preserve">
<g>
	<g>
		<linearGradient id="SVGID_1_" gradientUnits="userSpaceOnUse" x1="35.2656" y1="271.123" x2="193.853" y2="271.123">
			<stop  offset="0" style="stop-color:#A19F9B"/>
			<stop  offset="0.7333" style="stop-color:#FFFFFF"/>
			<stop  offset="1" style="stop-color:#A19F9B"/>
		</linearGradient>
		<path fill="url(#SVGID_1_)" d="M192.816,273.193H36.3c-0.574,0-1.034-0.929-1.034-2.067c0-1.147,0.46-2.074,1.034-2.074h156.516
			c0.57,0,1.037,0.927,1.037,2.074C193.853,272.265,193.386,273.193,192.816,273.193L192.816,273.193z"/>
	</g>
	<g>
		<g>
			<path fill="#FFFFFF" d="M12.421,318.898C5.574,318.898,0,313.324,0,306.481V13.628C0,6.776,5.574,1.212,12.421,1.212h207.292
				c6.848,0,12.421,5.564,12.421,12.416v292.854c0,6.843-5.573,12.417-12.421,12.417H12.421z"/>
			<path fill="#F2F2F2" d="M12.007,317.243c-6.164,0-11.179-5.018-11.179-11.177V13.213c0-6.165,5.015-11.174,11.179-11.174H219.3
				c6.163,0,11.178,5.009,11.178,11.174v292.854c0,6.159-5.016,11.177-11.178,11.177H12.007z"/>
			<path fill="#E5E4E3" d="M11.593,315.589c-5.479,0-9.936-4.462-9.936-9.938V12.798c0-5.478,4.457-9.933,9.936-9.933h207.293
				c5.478,0,9.937,4.455,9.937,9.933v292.854c0,5.476-4.459,9.938-9.937,9.938H11.593z"/>
			<path fill="#D7D6D4" d="M11.179,313.934c-4.794,0-8.693-3.904-8.693-8.697V12.383c0-4.792,3.899-8.691,8.693-8.691h207.294
				c4.792,0,8.693,3.9,8.693,8.691v292.854c0,4.793-3.901,8.697-8.693,8.697H11.179z"/>
			<path fill="#CAC8C6" d="M10.764,312.279c-4.11,0-7.451-3.349-7.451-7.458V11.968c0-4.104,3.341-7.45,7.451-7.45H218.06
				c4.107,0,7.452,3.345,7.452,7.45v292.854c0,4.109-3.345,7.458-7.452,7.458H10.764z"/>
			<path fill="#BDBBB8" d="M10.35,310.624c-3.426,0-6.208-2.792-6.208-6.218V11.553c0-3.418,2.782-6.208,6.208-6.208h207.296
				c3.422,0,6.209,2.79,6.209,6.208v292.854c0,3.426-2.787,6.218-6.209,6.218H10.35z"/>
		</g>
		<path fill="#050000" d="M114.33,157.865L6.566,309.288c1.05,0.822,2.355,1.336,3.784,1.336h207.296c1.563,0,2.983-0.61,4.077-1.58
			L114.33,157.865z"/>
		<linearGradient id="SVGID_2_" gradientUnits="userSpaceOnUse" x1="169.0928" y1="309.0439" x2="169.0928" y2="6.9321">
			<stop  offset="0" style="stop-color:#353332"/>
			<stop  offset="1" style="stop-color:#878582"/>
		</linearGradient>
		<path fill="url(#SVGID_2_)" d="M114.33,157.865l107.393,151.179c1.293-1.138,2.132-2.79,2.132-4.638V11.553
			c0-1.84-0.829-3.481-2.116-4.621L114.33,157.865z"/>
		<linearGradient id="SVGID_3_" gradientUnits="userSpaceOnUse" x1="23.6509" y1="1.499" x2="204.3447" y2="314.47">
			<stop  offset="0" style="stop-color:#514F4E"/>
			<stop  offset="1" style="stop-color:#1B1717"/>
		</linearGradient>
		<path fill="url(#SVGID_3_)" d="M10.35,306.481c-1.119,0-2.071-0.952-2.071-2.075V11.553c0-1.114,0.952-2.066,2.071-2.066h207.296
			c1.119,0,2.067,0.952,2.067,2.066v292.854c0,1.123-0.948,2.075-2.067,2.075H10.35z"/>
		<linearGradient id="SVGID_4_" gradientUnits="userSpaceOnUse" x1="113.998" y1="273.8828" x2="113.998" y2="42.0845">
			<stop  offset="0" style="stop-color:#A19F9B"/>
			<stop  offset="0.0991" style="stop-color:#979592"/>
			<stop  offset="0.2833" style="stop-color:#7E7C78"/>
			<stop  offset="0.5325" style="stop-color:#585653"/>
			<stop  offset="0.8336" style="stop-color:#262424"/>
			<stop  offset="1" style="stop-color:#050000"/>
		</linearGradient>
		<path fill="url(#SVGID_4_)" d="M191.09,42.084c2.279,0,4.142,1.863,4.142,4.142v223.517c0,2.278-1.863,4.141-4.142,4.141H36.906
			c-2.278,0-4.142-1.862-4.142-4.141V46.226c0-2.278,1.864-4.142,4.142-4.142H191.09z"/>
		<g>
			<linearGradient id="SVGID_5_" gradientUnits="userSpaceOnUse" x1="113.998" y1="268.1895" x2="113.998" y2="89.5142">
				<stop  offset="0" style="stop-color:#D38104"/>
				<stop  offset="0.1825" style="stop-color:#CD7A08"/>
				<stop  offset="0.4503" style="stop-color:#BC670F"/>
				<stop  offset="0.769" style="stop-color:#A04911"/>
				<stop  offset="1" style="stop-color:#8A310D"/>
			</linearGradient>
			<path fill="url(#SVGID_5_)" d="M40.01,268.189c-1.709,0-3.104-1.393-3.104-3.103V92.615c0-1.71,1.395-3.102,3.104-3.102h147.977
				c1.709,0,3.104,1.392,3.104,3.102v172.472c0,1.71-1.395,3.103-3.104,3.103H40.01z"/>
			<linearGradient id="SVGID_6_" gradientUnits="userSpaceOnUse" x1="113.9985" y1="260.9463" x2="113.9985" y2="90.7915">
				<stop  offset="0" style="stop-color:#F5C100"/>
				<stop  offset="0.1233" style="stop-color:#F1BB00"/>
				<stop  offset="0.3043" style="stop-color:#E5A700"/>
				<stop  offset="0.5209" style="stop-color:#D28900"/>
				<stop  offset="0.7628" style="stop-color:#BA600D"/>
				<stop  offset="1" style="stop-color:#A13214"/>
			</linearGradient>
			<path fill="url(#SVGID_6_)" d="M46.218,260.946c-1.139,0-2.07-0.927-2.07-2.067V92.859c0-1.14,0.932-2.068,2.07-2.068h135.56
				c1.14,0,2.071,0.929,2.071,2.068v166.02c0,1.141-0.932,2.067-2.071,2.067H46.218z"/>
			<linearGradient id="SVGID_7_" gradientUnits="userSpaceOnUse" x1="113.998" y1="89.5137" x2="113.998" y2="47.7803">
				<stop  offset="0" style="stop-color:#8F2710"/>
				<stop  offset="1" style="stop-color:#160B08"/>
			</linearGradient>
			<path fill="url(#SVGID_7_)" d="M40.01,89.514c-1.709,0-3.104-1.398-3.104-3.108V50.88c0-1.71,1.395-3.1,3.104-3.1h147.977
				c1.709,0,3.104,1.39,3.104,3.1v35.525c0,1.71-1.395,3.108-3.104,3.108H40.01z"/>
			<linearGradient id="SVGID_8_" gradientUnits="userSpaceOnUse" x1="113.9985" y1="84.3389" x2="113.9985" y2="55.0215">
				<stop  offset="0" style="stop-color:#A12E14"/>
				<stop  offset="1" style="stop-color:#4C1708"/>
			</linearGradient>
			<path fill="url(#SVGID_8_)" d="M46.218,84.339c-1.139,0-2.07-0.935-2.07-2.066V57.088c0-1.14,0.932-2.066,2.07-2.066h135.56
				c1.14,0,2.071,0.927,2.071,2.066v25.185c0,1.132-0.932,2.066-2.071,2.066H46.218z"/>
			<linearGradient id="SVGID_9_" gradientUnits="userSpaceOnUse" x1="113.998" y1="92.2725" x2="113.998" y2="81.9229">
				<stop  offset="0" style="stop-color:#A13214"/>
				<stop  offset="0.1256" style="stop-color:#B85410"/>
				<stop  offset="0.2894" style="stop-color:#D57B00"/>
				<stop  offset="0.4199" style="stop-color:#E89500"/>
				<stop  offset="0.5" style="stop-color:#EF9E00"/>
				<stop  offset="0.5774" style="stop-color:#E89500"/>
				<stop  offset="0.7037" style="stop-color:#D67C00"/>
				<stop  offset="0.8622" style="stop-color:#BA5410"/>
				<stop  offset="1" style="stop-color:#A12E14"/>
			</linearGradient>
			<path fill="url(#SVGID_9_)" d="M187.986,81.923c1.709,0,3.104,1.4,3.104,3.108v4.133c0,1.709-1.395,3.108-3.104,3.108H40.01
				c-1.709,0-3.104-1.399-3.104-3.108v-4.133c0-1.708,1.395-3.108,3.104-3.108H187.986z"/>
			<linearGradient id="SVGID_10_" gradientUnits="userSpaceOnUse" x1="40.5269" y1="100.2715" x2="40.5269" y2="79.5791">
				<stop  offset="0" style="stop-color:#A13214"/>
				<stop  offset="0.1256" style="stop-color:#B85410"/>
				<stop  offset="0.2894" style="stop-color:#D57B00"/>
				<stop  offset="0.4199" style="stop-color:#E89500"/>
				<stop  offset="0.5" style="stop-color:#EF9E00"/>
				<stop  offset="0.5774" style="stop-color:#E89500"/>
				<stop  offset="0.7037" style="stop-color:#D67C00"/>
				<stop  offset="0.8622" style="stop-color:#BA5410"/>
				<stop  offset="1" style="stop-color:#A12E14"/>
			</linearGradient>
			<path fill="url(#SVGID_10_)" d="M44.148,98.205c0,1.14-0.933,2.066-2.071,2.066h-3.104c-1.135,0-2.067-0.927-2.067-2.066V81.646
				c0-1.141,0.932-2.067,2.067-2.067h3.104c1.139,0,2.071,0.927,2.071,2.067V98.205z"/>
			<linearGradient id="SVGID_11_" gradientUnits="userSpaceOnUse" x1="187.5347" y1="100.2715" x2="187.5347" y2="79.5791">
				<stop  offset="0" style="stop-color:#A13214"/>
				<stop  offset="0.1256" style="stop-color:#B85410"/>
				<stop  offset="0.2894" style="stop-color:#D57B00"/>
				<stop  offset="0.4199" style="stop-color:#E89500"/>
				<stop  offset="0.5" style="stop-color:#EF9E00"/>
				<stop  offset="0.5774" style="stop-color:#E89500"/>
				<stop  offset="0.7037" style="stop-color:#D67C00"/>
				<stop  offset="0.8622" style="stop-color:#BA5410"/>
				<stop  offset="1" style="stop-color:#A12E14"/>
			</linearGradient>
			<path fill="url(#SVGID_11_)" d="M191.09,98.205c0,1.14-0.932,2.066-2.07,2.066h-2.974c-1.135,0-2.067-0.927-2.067-2.066V81.646
				c0-1.141,0.932-2.067,2.067-2.067h2.974c1.139,0,2.07,0.927,2.07,2.067V98.205z"/>
			<path fill="#E19E00" d="M118.341,139.77c0,1.14-0.932,2.074-2.067,2.074h-4.553c-1.139,0-2.071-0.935-2.071-2.074v-30.873
				c0-1.14,0.932-2.066,2.071-2.066h4.553c1.135,0,2.067,0.927,2.067,2.066V139.77z"/>
			<g>
				<path fill="#FFE76D" d="M113.997,249.807c-14.264,0-25.868-11.604-25.868-25.867c0-14.266,11.604-25.876,25.868-25.876
					c14.268,0,25.872,11.61,25.872,25.876C139.868,238.203,128.265,249.807,113.997,249.807L113.997,249.807z M113.997,205.223
					c-10.318,0-18.715,8.391-18.715,18.717c0,10.317,8.397,18.715,18.715,18.715c10.322,0,18.715-8.397,18.715-18.715
					C132.711,213.613,124.318,205.223,113.997,205.223L113.997,205.223z"/>
			</g>
		</g>
	</g>
</g>
</svg>
