<?xml version="1.0" encoding="utf-8"?>
<!-- Generator: Adobe Illustrator 16.0.0, SVG Export Plug-In . SVG Version: 6.00 Build 0)  -->
<!DOCTYPE svg PUBLIC "-//W3C//DTD SVG 1.1//EN" "http://www.w3.org/Graphics/SVG/1.1/DTD/svg11.dtd">
<svg version="1.1" id="图层_1" xmlns="http://www.w3.org/2000/svg" preserveAspectRatio="none" xmlns:xlink="http://www.w3.org/1999/xlink" x="0px" y="0px"
	 width="245.133px" height="337.879px" viewBox="0 0 245.133 337.879" enable-background="new 0 0 245.133 337.879"
	 xml:space="preserve">
<g>
	<g>
		<path fill="#FFFFFF" d="M13.113,336.879C5.882,336.879,0,330.996,0,323.765V14.508C0,7.277,5.882,1.395,13.113,1.395H232.02
			c7.23,0,13.113,5.882,13.113,13.113v309.257c0,7.231-5.883,13.114-13.113,13.114H13.113z"/>
		<path fill="#F2F2F2" d="M12.676,335.13c-6.508,0-11.802-5.294-11.802-11.802V14.071c0-6.508,5.294-11.802,11.802-11.802h218.906
			c6.508,0,11.803,5.294,11.803,11.802v309.257c0,6.508-5.295,11.802-11.803,11.802H12.676z"/>
		<path fill="#E5E4E3" d="M12.239,333.382c-5.785,0-10.491-4.706-10.491-10.491V13.634c0-5.785,4.706-10.491,10.491-10.491h218.907
			c5.785,0,10.49,4.706,10.49,10.491v309.257c0,5.785-4.705,10.491-10.49,10.491H12.239z"/>
		<path fill="#D7D6D4" d="M11.802,331.633c-5.062,0-9.18-4.118-9.18-9.179V13.196c0-5.062,4.118-9.179,9.18-9.179h218.906
			c5.063,0,9.18,4.118,9.18,9.179v309.258c0,5.061-4.117,9.179-9.18,9.179H11.802z"/>
		<path fill="#CAC8C6" d="M11.365,329.885c-4.339,0-7.868-3.53-7.868-7.868V12.759c0-4.338,3.529-7.868,7.868-7.868h218.907
			c4.34,0,7.867,3.529,7.867,7.868v309.257c0,4.338-3.527,7.868-7.867,7.868H11.365z"/>
		<path fill="#BDBBB8" d="M10.928,328.136c-3.616,0-6.557-2.941-6.557-6.556V12.322c0-3.615,2.941-6.557,6.557-6.557h218.906
			c3.617,0,6.557,2.941,6.557,6.557V321.58c0,3.614-2.939,6.556-6.557,6.556H10.928z"/>
	</g>
	<linearGradient id="SVGID_1_" gradientUnits="userSpaceOnUse" x1="178.5615" y1="326.4756" x2="178.5615" y2="7.4414">
		<stop  offset="0" style="stop-color:#353332"/>
		<stop  offset="1" style="stop-color:#878582"/>
	</linearGradient>
	<path fill="url(#SVGID_1_)" d="M120.731,166.826l113.41,159.649c1.367-1.204,2.25-2.945,2.25-4.896V12.322
		c0-1.944-0.875-3.678-2.232-4.881L120.731,166.826z"/>
	<path fill="#050000" d="M120.731,166.826L6.932,326.736c1.11,0.861,2.489,1.399,3.996,1.399h218.906c1.652,0,3.15-0.64,4.307-1.66
		L120.731,166.826z"/>
	<linearGradient id="SVGID_2_" gradientUnits="userSpaceOnUse" x1="119.2651" y1="326.7363" x2="119.2651" y2="5.7661">
		<stop  offset="0" style="stop-color:#6B6967"/>
		<stop  offset="1" style="stop-color:#A19F9B"/>
	</linearGradient>
	<path fill="url(#SVGID_2_)" d="M6.932,326.736L234.159,7.441c-1.156-1.029-2.664-1.675-4.324-1.675H10.928
		c-3.605,0-6.557,2.951-6.557,6.557V321.58C4.371,323.676,5.387,325.532,6.932,326.736z"/>
	<linearGradient id="SVGID_3_" gradientUnits="userSpaceOnUse" x1="24.9741" y1="1.7007" x2="215.789" y2="332.2019">
		<stop  offset="0" style="stop-color:#514F4E"/>
		<stop  offset="1" style="stop-color:#171313"/>
	</linearGradient>
	<path fill="url(#SVGID_3_)" d="M10.928,323.765c-1.183,0-2.186-0.999-2.186-2.185V12.322c0-1.184,1.002-2.186,2.186-2.186h218.906
		c1.182,0,2.186,1.001,2.186,2.186V321.58c0,1.186-1.004,2.185-2.186,2.185H10.928z"/>
	<linearGradient id="SVGID_4_" gradientUnits="userSpaceOnUse" x1="120.3818" y1="289.3428" x2="120.3818" y2="44.561">
		<stop  offset="0" style="stop-color:#5D5C59"/>
		<stop  offset="0.1283" style="stop-color:#5B5956"/>
		<stop  offset="0.2961" style="stop-color:#52514F"/>
		<stop  offset="0.486" style="stop-color:#444342"/>
		<stop  offset="0.6921" style="stop-color:#302F2E"/>
		<stop  offset="0.9089" style="stop-color:#161313"/>
		<stop  offset="1" style="stop-color:#050000"/>
	</linearGradient>
	<path fill="url(#SVGID_4_)" d="M201.794,44.561c2.405,0,4.371,1.967,4.371,4.371v236.04c0,2.405-1.966,4.371-4.371,4.371H38.968
		c-2.403,0-4.37-1.966-4.37-4.371V48.932c0-2.404,1.967-4.371,4.37-4.371H201.794z"/>
	<g>
		
			<linearGradient id="SVGID_5_" gradientUnits="userSpaceOnUse" x1="120.3809" y1="-75.3042" x2="120.3809" y2="-263.9922" gradientTransform="matrix(1 0 0 -1 0 -24.7324)">
			<stop  offset="0" style="stop-color:#C11119"/>
			<stop  offset="0.2297" style="stop-color:#BB1119"/>
			<stop  offset="0.5667" style="stop-color:#AC0F17"/>
			<stop  offset="0.9681" style="stop-color:#930A12"/>
			<stop  offset="1" style="stop-color:#910911"/>
		</linearGradient>
		<path fill="url(#SVGID_5_)" d="M42.247,50.572c-1.803,0-3.279,1.475-3.279,3.278v182.13c0,1.805,1.476,3.279,3.279,3.279h156.268
			c1.803,0,3.279-1.475,3.279-3.279V53.85c0-1.803-1.476-3.278-3.279-3.278H42.247z"/>
		<linearGradient id="SVGID_6_" gradientUnits="userSpaceOnUse" x1="120.3813" y1="238.0547" x2="120.3813" y2="58.2222">
			<stop  offset="0" style="stop-color:#A80F17"/>
			<stop  offset="0.1151" style="stop-color:#B30F17"/>
			<stop  offset="0.4599" style="stop-color:#CF0915"/>
			<stop  offset="0.766" style="stop-color:#E10113"/>
			<stop  offset="1" style="stop-color:#E60012"/>
		</linearGradient>
		<path fill="url(#SVGID_6_)" d="M48.804,238.055c-1.203,0-2.186-0.984-2.186-2.186V60.407c0-1.201,0.983-2.185,2.186-2.185h143.155
			c1.202,0,2.185,0.984,2.185,2.185v175.462c0,1.201-0.983,2.186-2.185,2.186H48.804z"/>
		
			<linearGradient id="SVGID_7_" gradientUnits="userSpaceOnUse" x1="120.3809" y1="-263.9922" x2="120.3809" y2="-308.0654" gradientTransform="matrix(1 0 0 -1 0 -24.7324)">
			<stop  offset="0" style="stop-color:#76040D"/>
			<stop  offset="0.3685" style="stop-color:#4A1511"/>
			<stop  offset="0.7898" style="stop-color:#1E0E0D"/>
			<stop  offset="1" style="stop-color:#090608"/>
		</linearGradient>
		<path fill="url(#SVGID_7_)" d="M42.247,239.26c-1.803,0-3.279,1.475-3.279,3.278v37.517c0,1.806,1.476,3.278,3.279,3.278h156.268
			c1.803,0,3.279-1.473,3.279-3.278v-37.517c0-1.804-1.476-3.278-3.279-3.278H42.247z"/>
		<linearGradient id="SVGID_8_" gradientUnits="userSpaceOnUse" x1="120.3813" y1="275.6836" x2="120.3813" y2="244.7227">
			<stop  offset="0" style="stop-color:#270B0F"/>
			<stop  offset="0.2203" style="stop-color:#371213"/>
			<stop  offset="0.6621" style="stop-color:#621715"/>
			<stop  offset="1" style="stop-color:#870712"/>
		</linearGradient>
		<path fill="url(#SVGID_8_)" d="M48.804,275.684c-1.203,0-2.186-0.982-2.186-2.186v-26.589c0-1.202,0.983-2.187,2.186-2.187
			h143.155c1.202,0,2.185,0.984,2.185,2.187v26.589c0,1.203-0.983,2.186-2.185,2.186H48.804z"/>
		
			<linearGradient id="SVGID_9_" gradientUnits="userSpaceOnUse" x1="120.3809" y1="-261.0781" x2="120.3809" y2="-272.0059" gradientTransform="matrix(1 0 0 -1 0 -24.7324)">
			<stop  offset="0" style="stop-color:#B81119"/>
			<stop  offset="0.0295" style="stop-color:#BC1A1D"/>
			<stop  offset="0.1881" style="stop-color:#D03F38"/>
			<stop  offset="0.325" style="stop-color:#E05652"/>
			<stop  offset="0.4335" style="stop-color:#E96563"/>
			<stop  offset="0.5" style="stop-color:#EC6A6A"/>
			<stop  offset="0.7151" style="stop-color:#BA3C39"/>
			<stop  offset="0.9056" style="stop-color:#95181C"/>
			<stop  offset="1" style="stop-color:#870712"/>
		</linearGradient>
		<path fill="url(#SVGID_9_)" d="M198.515,247.273c1.803,0,3.279-1.475,3.279-3.278v-4.372c0-1.803-1.476-3.277-3.279-3.277H42.247
			c-1.803,0-3.279,1.475-3.279,3.277v4.372c0,1.804,1.476,3.278,3.279,3.278H198.515z"/>
		<g>
			<linearGradient id="SVGID_10_" gradientUnits="userSpaceOnUse" x1="42.2471" y1="54.1035" x2="198.6992" y2="54.1035">
				<stop  offset="0" style="stop-color:#C11119"/>
				<stop  offset="0.0024" style="stop-color:#C1151A"/>
				<stop  offset="0.0586" style="stop-color:#D0583E"/>
				<stop  offset="0.1119" style="stop-color:#DE846D"/>
				<stop  offset="0.1608" style="stop-color:#EAA697"/>
				<stop  offset="0.2045" style="stop-color:#F3BFB9"/>
				<stop  offset="0.2412" style="stop-color:#F8CECD"/>
				<stop  offset="0.2667" style="stop-color:#F9D4D4"/>
				<stop  offset="0.3372" style="stop-color:#F8CFCD"/>
				<stop  offset="0.4376" style="stop-color:#F3C0B9"/>
				<stop  offset="0.5559" style="stop-color:#EAA799"/>
				<stop  offset="0.6881" style="stop-color:#DF856F"/>
				<stop  offset="0.8316" style="stop-color:#D15A41"/>
				<stop  offset="0.9825" style="stop-color:#C21D1C"/>
				<stop  offset="1" style="stop-color:#C11119"/>
			</linearGradient>
			<path fill="url(#SVGID_10_)" d="M197.606,56.289H43.34c-0.604,0-1.093-0.978-1.093-2.186c0-1.208,0.489-2.186,1.093-2.186
				h154.266c0.606,0,1.093,0.978,1.093,2.186C198.699,55.311,198.212,56.289,197.606,56.289L197.606,56.289z"/>
		</g>
		
			<linearGradient id="SVGID_11_" gradientUnits="userSpaceOnUse" x1="42.7935" y1="-252.627" x2="42.7935" y2="-274.4824" gradientTransform="matrix(1 0 0 -1 0 -24.7324)">
			<stop  offset="0" style="stop-color:#B81119"/>
			<stop  offset="0.0295" style="stop-color:#BC1A1D"/>
			<stop  offset="0.1881" style="stop-color:#D03F38"/>
			<stop  offset="0.325" style="stop-color:#E05652"/>
			<stop  offset="0.4335" style="stop-color:#E96563"/>
			<stop  offset="0.5" style="stop-color:#EC6A6A"/>
			<stop  offset="0.5665" style="stop-color:#E86463"/>
			<stop  offset="0.675" style="stop-color:#DA5550"/>
			<stop  offset="0.8119" style="stop-color:#C43C36"/>
			<stop  offset="0.9705" style="stop-color:#A7171A"/>
			<stop  offset="1" style="stop-color:#A20F16"/>
		</linearGradient>
		<path fill="url(#SVGID_11_)" d="M46.619,230.08c0-1.202-0.984-2.186-2.186-2.186h-3.279c-1.201,0-2.186,0.983-2.186,2.186v17.484
			c0,1.201,0.984,2.186,2.186,2.186h3.279c1.202,0,2.186-0.984,2.186-2.186V230.08z"/>
		
			<linearGradient id="SVGID_12_" gradientUnits="userSpaceOnUse" x1="197.9688" y1="-252.627" x2="197.9688" y2="-274.4824" gradientTransform="matrix(1 0 0 -1 0 -24.7324)">
			<stop  offset="0" style="stop-color:#B81119"/>
			<stop  offset="0.0295" style="stop-color:#BC1A1D"/>
			<stop  offset="0.1881" style="stop-color:#D03F38"/>
			<stop  offset="0.325" style="stop-color:#E05652"/>
			<stop  offset="0.4335" style="stop-color:#E96563"/>
			<stop  offset="0.5" style="stop-color:#EC6A6A"/>
			<stop  offset="0.5665" style="stop-color:#E86463"/>
			<stop  offset="0.675" style="stop-color:#DA5550"/>
			<stop  offset="0.8119" style="stop-color:#C43C36"/>
			<stop  offset="0.9705" style="stop-color:#A7171A"/>
			<stop  offset="1" style="stop-color:#A20F16"/>
		</linearGradient>
		<path fill="url(#SVGID_12_)" d="M201.794,230.08c0-1.202-0.984-2.186-2.186-2.186h-3.278c-1.202,0-2.186,0.983-2.186,2.186v17.484
			c0,1.201,0.984,2.186,2.186,2.186h3.278c1.202,0,2.186-0.984,2.186-2.186V230.08z"/>
		<path fill="#EE7F79" d="M124.971,116.392c0,1.202-0.984,2.186-2.187,2.186h-4.806c-1.202,0-2.186-0.984-2.186-2.186V70.495
			c0-1.202,0.983-2.186,2.186-2.186h4.806c1.202,0,2.187,0.984,2.187,2.186V116.392z"/>
		<g>
			<path fill="#F29C9E" d="M120.381,221.299c-15.064,0-27.32-9.258-27.32-20.636c0-11.376,12.256-20.633,27.32-20.633
				s27.32,9.257,27.32,20.633C147.701,212.041,135.445,221.299,120.381,221.299L120.381,221.299z M120.381,185.736
				c-10.898,0-19.764,6.696-19.764,14.927c0,8.232,8.866,14.929,19.764,14.929c10.898,0,19.764-6.696,19.764-14.929
				C140.145,192.433,131.279,185.736,120.381,185.736L120.381,185.736z"/>
		</g>
	</g>
</g>
</svg>
