<?xml version="1.0" encoding="utf-8"?>
<!-- Generator: Adobe Illustrator 16.0.0, SVG Export Plug-In . SVG Version: 6.00 Build 0)  -->
<!DOCTYPE svg PUBLIC "-//W3C//DTD SVG 1.1//EN" "http://www.w3.org/Graphics/SVG/1.1/DTD/svg11.dtd">
<svg version="1.1" id="图层_1" xmlns="http://www.w3.org/2000/svg" preserveAspectRatio="none" xmlns:xlink="http://www.w3.org/1999/xlink" x="0px" y="0px"
	 width="351.667px" height="90px" viewBox="0 0 351.667 90" enable-background="new 0 0 351.667 90" xml:space="preserve">
<g>
	
		<image overflow="visible" opacity="0.75" width="1517" height="414" xlink:href="C72ABEFE.png"  transform="matrix(0.24 0 0 0.24 -4 -3.2383)">
	</image>
	<g>
		<linearGradient id="SVGID_1_" gradientUnits="userSpaceOnUse" x1="113.9868" y1="-84.2061" x2="215.3363" y2="127.7747">
			<stop  offset="0" style="stop-color:#FBFBFC"/>
			<stop  offset="0.2909" style="stop-color:#F8F9F9"/>
			<stop  offset="0.4999" style="stop-color:#F0F0F0"/>
			<stop  offset="0.6833" style="stop-color:#E3E2E2"/>
			<stop  offset="0.851" style="stop-color:#CFCFCE"/>
			<stop  offset="0.995" style="stop-color:#B9B9B8"/>
		</linearGradient>
		<path fill="url(#SVGID_1_)" d="M307.354,2.762H42.646C20.198,2.762,2,20.96,2,43.408c0,22.449,18.198,40.646,40.646,40.646
			h264.707c22.448,0,40.646-18.197,40.646-40.646C348,20.96,329.802,2.762,307.354,2.762z"/>
	</g>
</g>
<linearGradient id="SVGID_2_" gradientUnits="userSpaceOnUse" x1="175.46" y1="75.9771" x2="175.9471" y2="10.2116">
	<stop  offset="0" style="stop-color:#FBFBFC"/>
	<stop  offset="0.2276" style="stop-color:#F7F8F8"/>
	<stop  offset="0.4505" style="stop-color:#EDEDED"/>
	<stop  offset="0.6716" style="stop-color:#DCDBDB"/>
	<stop  offset="0.8904" style="stop-color:#C4C4C3"/>
	<stop  offset="0.9174" style="stop-color:#C1C0C0"/>
	<stop  offset="0.995" style="stop-color:#B9B9B8"/>
</linearGradient>
<path fill="url(#SVGID_2_)" d="M306.195,12.055H45.208c-17.223,0-31.185,13.961-31.185,31.185c0,17.223,13.962,31.185,31.185,31.185
	h260.987c17.224,0,31.186-13.962,31.186-31.185C337.381,26.017,323.419,12.055,306.195,12.055z"/>
</svg>
