 

<svg xmlns:agg="http://www.example.com" xmlns="http://www.w3.org/2000/svg" preserveAspectRatio="none" width="1.6083in" height="0.5007in" viewBox="0 0 999 311">

<path style="fill:#7f7f7f" d="M807,56 l38,0 0,29 -38,0 0,-29z" />
<path style="fill:#7f7f7f;stroke:#000;stroke-width:2" d="M153,28 l38,0 0,58 -38,0 0,-58z" />
<path style="fill:none;stroke:#000;stroke-width:2" d="M807,56 l38,0 0,29 -38,0 0,-29" />
<path style="fill:#e5e5e5" d="M819,56 l15,0 0,29 -15,0 0,-29z" />
<path style="fill:#e5e5e5" d="M165,28 l14,0 0,58 -14,0 0,-58z" />
<path style="fill:#7f7f7f" d="M37,85 l924,0 0,193 -924,0 0,-193z" />
<path style="fill:#999" d="M37,100 l924,0 0,163 -924,0 0,-163z" />
<path style="fill:#b2b2b2" d="M37,114 l924,0 0,134 -924,0 0,-134z" />
<path style="fill:#ccc" d="M37,124 l924,0 0,116 -924,0 0,-116z" />
<path style="fill:#e5e5e5" d="M37,138 l924,0 0,87 -924,0 0,-87z" />
<path style="fill:#fff" d="M37,162 l924,0 0,38 -924,0 0,-38z" />
<path style="fill:none;stroke:#000;stroke-width:2" d="M37,85 l924,0 0,193 -924,0 0,-193" />
<path style="fill:#666;stroke:#000;stroke-width:2" d="M918,85 l4,39 0,116 -4,37 -34,0 0,-192 34,0z" />
<path style="fill:#666;stroke:#000;stroke-width:2" d="M80,278 l-4,-38 0,-116 4,-39 34,0 0,193 -34,0z" />
<path style="fill:#4c4c4c" d="M918,119 l4,25 0,75 -4,25 -34,0 0,-125 34,0z" />
<path style="fill:#4c4c4c" d="M80,244 l-4,-25 0,-75 4,-25 34,0 0,125 -34,0z" />
<path style="fill:none;stroke:#b2b2b2;stroke-width:2" d="M913,277 l0,-192" />
<path style="fill:none;stroke:#b2b2b2;stroke-width:2" d="M903,277 l0,-192" />
<path style="fill:none;stroke:#b2b2b2;stroke-width:2" d="M893,277 l0,-192" />
<path style="fill:none;stroke:#b2b2b2;stroke-width:2" d="M85,85 l0,193" />
<path style="fill:none;stroke:#b2b2b2;stroke-width:2" d="M95,85 l0,193" />
<path style="fill:none;stroke:#b2b2b2;stroke-width:2" d="M105,85 l0,193" />
<path style="fill:#999;stroke:#000;stroke-width:2" d="M460,177 l78,0 0,77 -78,0 0,-77z" />
<path style="fill:#e5e5e5;stroke:#7f7f7f;stroke-width:2" d="M460,172 l78,0 0,5 -78,0 0,-5z" />
<path style="fill:none;stroke:#fff;stroke-width:2" d="M470,245 l0,-59 58,0" />
<path style="fill:none;stroke:#000;stroke-width:2" d="M528,186 l0,59 -58,0" />
<path style="fill:#ccc;stroke:#000;stroke-width:2" d="M812,277 l-5,-13 5,-14 14,-6 14,6 5,14 -5,13 -14,6 -14,-6z" />
<path style="fill:#000" d="M817,273 l-4,-9 4,-10 9,-4 9,4 4,10 -4,9 -9,4 -9,-4z" />
<path style="fill:#bfbfbf;stroke:#000;stroke-width:2" d="M961,105 l9,0 0,28 -9,0 0,-28z" />
<path style="fill:#bfbfbf;stroke:#000;stroke-width:2" d="M961,230 l9,0 0,28 -9,0 0,-28z" />
<path style="fill:#bfbfbf;stroke:#000;stroke-width:2" d="M961,167 l9,0 0,29 -9,0 0,-29z" />
<path style="fill:#bfbfbf;stroke:#000;stroke-width:2" d="M28,105 l9,0 0,28 -9,0 0,-28z" />
<path style="fill:#bfbfbf;stroke:#000;stroke-width:2" d="M28,230 l9,0 0,28 -9,0 0,-28z" />
<path style="fill:#bfbfbf;stroke:#000;stroke-width:2" d="M28,167 l9,0 0,29 -9,0 0,-29z" />

</svg>
