 

<svg xmlns:agg="http://www.example.com" xmlns="http://www.w3.org/2000/svg" preserveAspectRatio="none" width="0.8210in" height="1.0750in" viewBox="0 0 763 999">

<path style="fill:#b2b2b2;stroke:#000;stroke-width:2" d="M224,308 l44,0 74,132 78,0 74,-132 44,0 0,152 -314,0 0,-152z" />
<path style="fill:#999" d="M224,455 l54,0 -29,-143 -25,0 0,143z" />
<path style="fill:#999" d="M538,455 l-54,0 30,-143 24,0 0,143z" />
<path style="fill:#7f7f7f;stroke:#000;stroke-width:2" d="M224,460 l314,0 0,39 -314,0 0,-39z" />
<path style="fill:#7f7f7f;stroke:#000;stroke-width:2" d="M504,258 l34,0 0,50 -34,0 0,-50z" />
<path style="fill:#7f7f7f;stroke:#000;stroke-width:2" d="M258,258 l-34,0 0,50 34,0 0,-50z" />
<path style="fill:#d9d9d9;stroke:#000;stroke-width:2" d="M381,970 l334,-59 20,-19 0,-393 -354,0 -353,0 0,393 19,19 334,59z" />
<path style="fill:#e5e5e5;stroke:#000;stroke-width:2" d="M263,479 l0,491 236,0 0,-491 -236,0z" />
<path style="fill:#b2b2b2" d="M48,499 l0,-20 19,0 0,-216 157,0 0,216 20,0 0,20 -196,0z" />
<path style="fill:#b2b2b2" d="M519,499 l0,-20 19,0 0,-216 157,0 0,216 20,0 0,20 -196,0z" />
<path style="fill:#d9d9d9" d="M558,499 l0,-20 12,0 0,-216 94,0 0,216 12,0 0,20 -118,0z" />
<path style="fill:#d9d9d9" d="M87,499 l0,-20 12,0 0,-216 94,0 0,216 12,0 0,20 -118,0z" />
<path style="fill:#f2f2f2" d="M598,499 l0,-20 3,0 0,-216 32,0 0,216 4,0 0,20 -39,0z" />
<path style="fill:#f2f2f2" d="M126,499 l0,-20 4,0 0,-216 31,0 0,216 4,0 0,20 -39,0z" />
<path style="fill:none;stroke:#000;stroke-width:2" d="M538,479 l157,0" />
<path style="fill:none;stroke:#000;stroke-width:2" d="M519,499 l0,-20 19,0 0,-216 157,0 0,216 20,0 0,20 -196,0" />
<path style="fill:none;stroke:#000;stroke-width:2" d="M67,479 l157,0" />
<path style="fill:none;stroke:#000;stroke-width:2" d="M48,499 l0,-20 19,0 0,-216 157,0 0,216 20,0 0,20 -196,0" />
<path style="fill:#ccc" d="M730,504 l0,388 -15,14 -34,6 0,-408 49,0z" />
<path style="fill:#ccc" d="M33,504 l0,388 15,14 34,6 0,-408 -49,0z" />
<path style="fill:#b2b2b2" d="M730,504 l0,388 -15,14 0,-402 15,0z" />
<path style="fill:#b2b2b2" d="M33,504 l0,388 15,14 0,-402 -15,0z" />
<path style="fill:#4c4c4c" d="M303,538 l157,0 0,79 -157,0 0,-79z" />
<path style="fill:#f2f2f2;stroke:#fff;stroke-width:2" d="M312,548 l138,0 0,59 -138,0 0,-59z" />
<path style="fill:#ccc;stroke:#000;stroke-width:2" d="M705,263 l-10,-235 -166,0 0,235 176,0z" />
<path style="fill:#ccc;stroke:#000;stroke-width:2" d="M57,263 l10,-235 167,0 0,235 -177,0z" />
<path style="fill:#bfbfbf" d="M695,28 l4,98 -170,0 0,-98 166,0z" />
<path style="fill:#bfbfbf" d="M67,28 l-4,98 171,0 0,-98 -167,0z" />
<path style="fill:#b2b2b2" d="M695,28 l2,49 -168,0 0,-49 166,0z" />
<path style="fill:#b2b2b2" d="M67,28 l-2,49 169,0 0,-49 -167,0z" />
<path style="fill:#999" d="M695,28 l1,16 -167,0 0,-16 166,0z" />
<path style="fill:#999" d="M67,28 l-1,16 168,0 0,-16 -167,0z" />
<path style="fill:#999;stroke:#000;stroke-width:2" d="M529,263 l-11,0 0,-83 -4,5 -5,73 -10,0 0,-201 10,-24 20,-5 0,235z" />
<path style="fill:#999;stroke:#000;stroke-width:2" d="M234,263 l10,0 0,-83 5,5 5,73 9,0 0,-201 -9,-24 -20,-5 0,235z" />
<path style="fill:#000" d="M254,258 l-5,-73 -5,-5 0,78 10,0z" />
<path style="fill:#000" d="M509,258 l5,-73 5,-5 0,78 -10,0z" />
<path style="fill:#333" d="M590,914 l-3,-8 3,-6 7,-3 7,3 3,6 -3,8 -7,3 -7,-3z" />

</svg>
