 

<svg xmlns:agg="http://www.example.com" xmlns="http://www.w3.org/2000/svg" preserveAspectRatio="none" width="1.2190in" height="1.0750in" viewBox="0 0 999 881">

<path style="fill:#b2b2b2;stroke:#000;stroke-width:2" d="M28,814 l942,0 0,39 -942,0 0,-39z" />
<path style="fill:#999" d="M184,814 l0,-157 -117,0 -39,-39 0,-393 39,-39 117,0 0,-60 -19,-19 0,-59 19,-20 630,0 19,20 0,59 -19,19 0,60 117,0 39,39 0,393 -39,39 -117,0 0,157 -630,0z" />
<path style="fill:#9e9e9e" d="M203,814 l0,-157 -111,0 -38,-39 0,-394 38,-38 111,0 0,-60 -19,-19 0,-59 19,-20 592,0 19,20 0,59 -19,19 0,60 111,0 38,38 0,394 -38,39 -111,0 0,157 -592,0z" />
<path style="fill:#a6a6a6" d="M222,814 l0,-157 -106,0 -34,-39 0,-394 34,-38 106,0 0,-60 -19,-19 0,-59 19,-20 556,0 17,20 0,59 -17,19 0,60 104,0 34,38 0,394 -34,39 -104,0 0,157 -556,0z" />
<path style="fill:#ababab" d="M239,814 l0,-157 -98,0 -32,-39 0,-394 32,-38 98,0 0,-60 -17,-19 0,-59 17,-20 520,0 17,20 0,59 -17,19 0,60 98,0 32,38 0,394 -32,39 -98,0 0,157 -520,0z" />
<path style="fill:#b2b2b2" d="M258,814 l0,-157 -93,0 -30,-39 0,-394 30,-38 93,0 0,-60 -16,-19 0,-59 16,-20 484,0 15,20 0,59 -15,19 0,60 91,0 30,38 0,394 -30,39 -91,0 0,157 -484,0z" />
<path style="fill:#b8b8b8" d="M275,814 l0,-157 -83,0 -29,-39 0,-394 29,-38 83,0 0,-60 -14,-19 0,-59 14,-20 448,0 15,20 0,59 -15,19 0,60 85,0 26,38 0,394 -26,39 -85,0 0,157 -448,0z" />
<path style="fill:#bfbfbf" d="M293,814 l0,-157 -77,0 -26,-39 0,-394 26,-38 77,0 0,-60 -13,-19 0,-59 13,-20 412,0 13,20 0,59 -13,19 0,60 77,0 26,38 0,394 -26,39 -77,0 0,157 -412,0z" />
<path style="fill:#c4c4c4" d="M310,814 l0,-157 -69,0 -25,-39 0,-394 25,-38 69,0 0,-60 -11,-19 0,-59 11,-20 378,0 11,20 0,59 -11,19 0,60 69,0 25,38 0,394 -25,39 -69,0 0,157 -378,0z" />
<path style="fill:#ccc" d="M329,814 l0,-157 -64,0 -21,-39 0,-394 21,-38 64,0 0,-60 -11,-19 0,-59 11,-20 340,0 11,20 0,59 -11,19 0,60 64,0 21,38 0,394 -21,39 -64,0 0,157 -340,0z" />
<path style="fill:#d1d1d1" d="M346,814 l0,-157 -56,0 -19,-39 0,-394 19,-38 56,0 0,-60 -9,-19 0,-59 9,-20 306,0 9,20 0,59 -9,19 0,60 56,0 19,38 0,394 -19,39 -56,0 0,157 -306,0z" />
<path style="fill:#d9d9d9" d="M365,814 l0,-157 -51,0 -17,-39 0,-394 17,-38 51,0 0,-60 -9,-19 0,-59 9,-20 268,0 9,20 0,59 -9,19 0,60 51,0 17,38 0,394 -17,39 -51,0 0,157 -268,0z" />
<path style="fill:#dedede" d="M382,814 l0,-157 -43,0 -13,-39 0,-394 13,-38 43,0 0,-60 -6,-19 0,-59 6,-20 234,0 7,20 0,59 -7,19 0,60 43,0 15,38 0,394 -15,39 -43,0 0,157 -234,0z" />
<path style="fill:#e5e5e5" d="M401,814 l0,-157 -38,0 -11,-39 0,-394 11,-38 38,0 0,-60 -6,-19 0,-59 6,-20 196,0 6,20 0,59 -6,19 0,60 38,0 11,38 0,394 -11,39 -38,0 0,157 -196,0z" />
<path style="fill:#ebebeb" d="M420,814 l0,-157 -30,0 -12,-39 0,-394 12,-38 30,0 0,-60 -6,-19 0,-59 6,-20 160,0 4,20 0,59 -4,19 0,60 30,0 10,38 0,394 -10,39 -30,0 0,157 -160,0z" />
<path style="fill:#f2f2f2" d="M437,814 l0,-157 -23,0 -8,-39 0,-394 8,-38 23,0 0,-60 -4,-19 0,-59 4,-20 124,0 4,20 0,59 -4,19 0,60 23,0 9,38 0,394 -9,39 -23,0 0,157 -124,0z" />
<path style="fill:#f7f7f7" d="M456,814 l0,-157 -17,0 -6,-39 0,-394 6,-38 17,0 0,-60 -4,-19 0,-59 4,-20 86,0 4,20 0,59 -4,19 0,60 17,0 6,38 0,394 -6,39 -17,0 0,157 -86,0z" />
<path style="fill:#fff" d="M472,814 l0,-157 -9,0 -4,-39 0,-393 4,-39 9,0 0,-60 -1,-19 0,-59 1,-20 53,0 2,20 0,59 -2,19 0,60 10,0 3,39 0,393 -3,39 -10,0 0,157 -53,0z" />
<path style="fill:#666" d="M184,697 l0,-40 -117,0 -39,-39 942,0 -39,39 -117,0 0,40 -630,0z" />
<path style="fill:#6b6b6b" d="M203,695 l0,-38 -111,0 -38,-39 890,0 -38,39 -111,0 0,38 -592,0z" />
<path style="fill:#737373" d="M222,695 l0,-38 -106,0 -34,-39 834,0 -34,39 -104,0 0,38 -556,0z" />
<path style="fill:#787878" d="M239,695 l0,-38 -98,0 -32,-39 780,0 -32,39 -98,0 0,38 -520,0z" />
<path style="fill:#7f7f7f" d="M258,695 l0,-38 -93,0 -30,-39 728,0 -30,39 -91,0 0,38 -484,0z" />
<path style="fill:#858585" d="M275,695 l0,-38 -83,0 -29,-39 671,0 -26,39 -85,0 0,38 -448,0z" />
<path style="fill:#8c8c8c" d="M293,695 l0,-38 -77,0 -26,-39 618,0 -26,39 -77,0 0,38 -412,0z" />
<path style="fill:#919191" d="M310,695 l0,-38 -69,0 -25,-39 566,0 -25,39 -69,0 0,38 -378,0z" />
<path style="fill:#999" d="M329,695 l0,-38 -64,0 -21,-39 510,0 -21,39 -64,0 0,38 -340,0z" />
<path style="fill:#9e9e9e" d="M346,695 l0,-38 -56,0 -19,-39 456,0 -19,39 -56,0 0,38 -306,0z" />
<path style="fill:#a6a6a6" d="M365,695 l0,-38 -51,0 -17,-39 404,0 -17,39 -51,0 0,38 -268,0z" />
<path style="fill:#ababab" d="M382,695 l0,-38 -43,0 -13,-39 348,0 -15,39 -43,0 0,38 -234,0z" />
<path style="fill:#b2b2b2" d="M401,695 l0,-38 -38,0 -11,-39 294,0 -11,39 -38,0 0,38 -196,0z" />
<path style="fill:#b8b8b8" d="M420,695 l0,-38 -30,0 -12,-39 242,0 -10,39 -30,0 0,38 -160,0z" />
<path style="fill:#bfbfbf" d="M437,695 l0,-38 -23,0 -8,-39 187,0 -9,39 -23,0 0,38 -124,0z" />
<path style="fill:#c4c4c4" d="M456,695 l0,-38 -17,0 -6,-39 132,0 -6,39 -17,0 0,38 -86,0z" />
<path style="fill:#ccc" d="M472,697 l0,-40 -9,0 -4,-39 79,0 -3,39 -10,0 0,40 -53,0z" />
<path style="fill:none;stroke:#000;stroke-width:2" d="M184,814 l0,-157 -117,0 -39,-39 0,-393 39,-39 117,0 0,-60 -19,-19 0,-59 19,-20 630,0 19,20 0,59 -19,19 0,60 117,0 39,39 0,393 -39,39 -117,0 0,157 -630,0" />
<path style="fill:none;stroke:#000;stroke-width:2" d="M184,657 l630,0" />
<path style="fill:none;stroke:#7f7f7f;stroke-width:2" d="M184,186 l630,0" />
<path style="fill:none;stroke:#7f7f7f;stroke-width:2" d="M184,126 l630,0" />
<path style="fill:#000" d="M135,833 l10,0 0,11 -10,0 0,-11z" />
<path style="fill:#000" d="M851,833 l12,0 0,11 -12,0 0,-11z" />

</svg>
