 

<svg xmlns:agg="http://www.example.com" xmlns="http://www.w3.org/2000/svg" preserveAspectRatio="none" width="1.0958in" height="1.0750in" viewBox="0 0 999 980">

<path style="fill:#000" d="M46,946 l159,0 0,6 -159,0 0,-6z" />
<path style="fill:#000" d="M793,946 l159,0 0,6 -159,0 0,-6z" />
<path style="fill:#191919;stroke:#000;stroke-width:2" d="M916,245 l-64,0 0,-148 7,5 7,4 6,5 6,6 5,7 5,7 5,8 4,9 4,10 4,10 2,11 3,12 2,12 2,13 1,14 1,15z" />
<path style="fill:#4c4c4c" d="M420,245 l511,0 0,510 -511,0 0,-510z" />
<path style="fill:#474747" d="M420,571 l511,-108 0,292 -511,0 0,-184z" />
<path style="fill:#424242" d="M420,593 l511,-109 0,271 -511,0 0,-162z" />
<path style="fill:#3d3d3d" d="M420,623 l511,-99 0,231 -511,0 0,-132z" />
<path style="fill:none;stroke:#000;stroke-width:2" d="M420,245 l511,0 0,510 -511,0 0,-510" />
<path style="fill:#4c4c4c" d="M28,755 l942,0 0,191 -942,0 0,-191z" />
<path style="fill:#474747" d="M28,891 l942,-81 0,136 -942,0 0,-55z" />
<path style="fill:#424242" d="M28,899 l942,-79 0,126 -942,0 0,-47z" />
<path style="fill:#3d3d3d" d="M28,910 l942,-79 0,115 -942,0 0,-36z" />
<path style="fill:none;stroke:#000;stroke-width:2" d="M28,755 l942,0 0,191 -942,0 0,-191" />
<path style="fill:#ccc" d="M28,361 l392,0 0,394 -392,0 0,-394z" />
<path style="fill:#000" d="M46,361 l355,0 0,394 -355,0 0,-394z" />
<path style="fill:none;stroke:#ccc;stroke-width:2" d="M46,401 l355,0" />
<path style="fill:none;stroke:#ccc;stroke-width:2" d="M46,440 l355,0" />
<path style="fill:none;stroke:#ccc;stroke-width:2" d="M46,480 l355,0" />
<path style="fill:none;stroke:#ccc;stroke-width:2" d="M46,520 l355,0" />
<path style="fill:none;stroke:#ccc;stroke-width:2" d="M46,560 l355,0" />
<path style="fill:none;stroke:#ccc;stroke-width:2" d="M46,597 l355,0" />
<path style="fill:none;stroke:#ccc;stroke-width:2" d="M46,637 l355,0" />
<path style="fill:none;stroke:#ccc;stroke-width:2" d="M46,676 l355,0" />
<path style="fill:none;stroke:#ccc;stroke-width:2" d="M46,716 l355,0" />
<path style="fill:none;stroke:#000;stroke-width:2" d="M28,361 l392,0 0,394 -392,0 0,-394" />
<path style="fill:#7f7f7f" d="M499,245 l0,-157 355,0 0,157 -355,0z" />
<path style="fill:#999" d="M499,205 l0,-98 355,0 0,98 -355,0z" />
<path style="fill:#b2b2b2" d="M499,165 l0,-40 355,0 0,40 -355,0z" />
<path style="fill:none;stroke:#000;stroke-width:2" d="M499,245 l0,-157 355,0 0,157 -355,0" />
<path style="fill:#b2b2b2" d="M655,28 l159,0 0,118 -159,0 0,-118z" />
<path style="fill:none;stroke:#000;stroke-width:2" d="M655,146 l0,-118 159,0 0,118" />
<path style="fill:none;stroke:#000;stroke-width:2" d="M518,88 l0,157" />
<path style="fill:#000" d="M655,48 l-294,0 0,4 294,0 0,-4z" />
<path style="fill:#000" d="M499,165 l-138,0 0,6 138,0 0,-6z" />
<path style="fill:#000" d="M361,171 l0,-123 -5,0 0,123 5,0z" />
<path style="fill:#000" d="M420,278 l-138,0 0,6 138,0 0,-6z" />
<path style="fill:#000" d="M282,278 l-217,85 2,4 217,-83 -2,-6z" />
<path style="fill:#999" d="M410,58 l0,-15 40,0 40,5 0,4 -40,6 -40,0z" />
<path style="fill:#e5e5e5" d="M410,52 l0,-4 40,0 40,2 0,2 -40,0 -40,0z" />
<path style="fill:none;stroke:#000;stroke-width:2" d="M410,58 l0,-15 40,0 40,5 0,4 -40,6 -40,0" />
<path style="fill:#ccc" d="M775,358 l116,0 0,92 -116,0 0,-92z" />
<path style="fill:#999" d="M775,358 l116,0 0,-25 -116,0 0,25z" />
<path style="fill:#333" d="M775,646 l116,0 0,-196 -116,0 0,196z" />
<path style="fill:#666" d="M518,410 l149,0 0,257 -149,0 0,-257z" />
<path style="fill:#333" d="M539,627 l19,0 0,19 -19,0 0,-19z" />
<path style="fill:#333" d="M567,627 l21,0 0,19 -21,0 0,-19z" />
<path style="fill:#333" d="M597,627 l19,0 0,19 -19,0 0,-19z" />
<path style="fill:#333" d="M627,627 l19,0 0,19 -19,0 0,-19z" />
<path style="fill:#333" d="M539,597 l19,0 0,21 -19,0 0,-21z" />
<path style="fill:#333" d="M567,597 l21,0 0,21 -21,0 0,-21z" />
<path style="fill:#333" d="M597,597 l19,0 0,21 -19,0 0,-21z" />
<path style="fill:#333" d="M627,597 l19,0 0,21 -19,0 0,-21z" />
<path style="fill:#333" d="M539,569 l19,0 0,19 -19,0 0,-19z" />
<path style="fill:#333" d="M567,569 l21,0 0,19 -21,0 0,-19z" />
<path style="fill:#333" d="M597,569 l19,0 0,19 -19,0 0,-19z" />
<path style="fill:#333" d="M627,569 l19,0 0,19 -19,0 0,-19z" />
<path style="fill:#333" d="M539,539 l19,0 0,21 -19,0 0,-21z" />
<path style="fill:#333" d="M567,539 l21,0 0,21 -21,0 0,-21z" />
<path style="fill:#333" d="M597,539 l19,0 0,21 -19,0 0,-21z" />
<path style="fill:#333" d="M627,539 l19,0 0,21 -19,0 0,-21z" />
<path style="fill:#333" d="M539,450 l107,0 0,30 -107,0 0,-30z" />
<path style="fill:none;stroke:#b2b2b2;stroke-width:2" d="M518,667 l147,0 0,-257" />
<path style="fill:none;stroke:#000;stroke-width:2" d="M665,410 l-147,0 0,257" />
<path style="fill:#ccc" d="M680,107 l119,0 0,49 -119,0 0,-49z" />

</svg>
