 

<svg xmlns:agg="http://www.example.com" xmlns="http://www.w3.org/2000/svg" preserveAspectRatio="none" width="1.1535in" height="1.0750in" viewBox="0 0 999 931">

<path style="fill:#4c7f7f" d="M776,767 l-19,0 0,-68 19,0 0,68z" />
<path style="fill:#4c7f7f" d="M776,786 l-476,0 0,-19 476,0 0,19z" />
<path style="fill:#4c7f7f" d="M299,786 l-19,0 0,-87 19,0 0,87z" />
<path style="fill:#b2e5e5" d="M293,781 l-6,0 0,-82 6,0 0,82z" />
<path style="fill:#b2e5e5" d="M770,771 l-7,0 0,-72 7,0 0,72z" />
<path style="fill:#b2e5e5" d="M771,773 l0,6 -476,0 0,-6 476,0z" />
<path style="fill:#366;stroke:#000;stroke-width:2" d="M446,358 l0,-233 106,0 0,-20 78,0 0,20 68,0 0,233 -252,0z" />
<path style="fill:#194c4c" d="M446,251 l223,0 0,59 -223,0 0,-59z" />
<path style="fill:#033;stroke:#000;stroke-width:2" d="M96,699 l758,0 0,-146 29,0 0,-156 -224,0 0,-39 -496,0 0,49 234,0 0,146 -301,0 0,146z" />
<path style="fill:#699;stroke:#000;stroke-width:2" d="M543,358 l77,0 0,78 -77,0 0,-78z" />
<path style="fill:#699;stroke:#000;stroke-width:2" d="M193,436 l97,0 0,-68 -97,0 0,68z" />
<path style="fill:#699;stroke:#000;stroke-width:2" d="M543,669 l77,0 0,214 -77,0 0,-214z" />
<path style="fill:#699;stroke:#000;stroke-width:2" d="M368,728 l97,0 0,97 -97,0 0,-97z" />
<path style="fill:#699;stroke:#000;stroke-width:2" d="M154,669 l78,0 0,214 -78,0 0,-214z" />
<path style="fill:#7fb2b2" d="M251,144 l68,0 0,-97 -68,0 0,97z" />
<path style="fill:#9cc;stroke:#000;stroke-width:2" d="M115,883 l117,0 0,20 -117,0 0,-20z" />
<path style="fill:#9cc;stroke:#000;stroke-width:2" d="M543,883 l116,0 0,20 -116,0 0,-20z" />
<path style="fill:#366;stroke:#000;stroke-width:2" d="M232,825 l311,0 0,39 -311,0 0,-39z" />
<path style="fill:#7f7f7f" d="M523,66 l136,0 0,39 -136,0 0,-39z" />
<path style="fill:#4c7f7f" d="M37,436 l817,0 0,58 39,0 5,59 -5,58 -39,0 0,58 -817,0 -9,-116 9,-117z" />
<path style="fill:#5e9191" d="M37,460 l817,0 0,46 39,0 5,46 -5,46 -39,0 0,47 -817,0 -9,-92 9,-93z" />
<path style="fill:#73a6a6" d="M37,485 l817,0 0,33 39,0 5,34 -5,34 -39,0 0,34 -817,0 -9,-67 9,-68z" />
<path style="fill:#85b8b8" d="M37,509 l817,0 0,22 39,0 5,21 -5,22 -39,0 0,22 -817,0 -9,-43 9,-44z" />
<path style="fill:#9cc" d="M37,533 l817,0 0,10 39,0 5,10 -5,9 -39,0 0,10 -817,0 -9,-19 9,-20z" />
<path style="fill:none;stroke:#000;stroke-width:2" d="M37,436 l817,0 0,58 39,0 5,59 -5,58 -39,0 0,58 -817,0 -9,-116 9,-117" />
<path style="fill:none;stroke:#000;stroke-width:2" d="M854,611 l0,-117" />
<path style="fill:#699;stroke:#000;stroke-width:2" d="M698,455 l272,0 0,-369 -272,0 0,369z" />
<path style="fill:#4c7f7f" d="M339,144 l107,0 0,234 -107,0 0,-234z" />
<path style="fill:#4c7f7f" d="M232,242 l19,-98 88,0 0,224 -107,0 0,-126z" />
<path style="fill:#4c7f7f" d="M125,261 l0,-19 107,0 0,126 -107,0 0,-19 -49,0 0,19 -39,0 0,-126 39,0 0,19 49,0z" />
<path style="fill:#5e9191" d="M339,168 l107,0 0,185 -107,0 0,-185z" />
<path style="fill:#5e9191" d="M232,244 l20,-76 87,0 0,175 -107,0 0,-99z" />
<path style="fill:#5e9191" d="M125,269 l0,-10 0,-4 0,-2 3,0 100,0 4,0 0,3 0,96 0,3 -4,0 -9,0 -81,0 -10,0 -3,0 0,-10 0,-5 -12,0 -30,0 -7,0 1,9 -1,6 -9,0 -25,0 -2,0 -3,0 0,-3 1,-9 0,-77 -1,-10 0,-3 39,0 1,10 -1,6 49,0z" />
<path style="fill:#73a6a6" d="M339,192 l107,0 0,137 -107,0 0,-137z" />
<path style="fill:#73a6a6" d="M232,247 l20,-55 87,0 0,127 -107,0 0,-72z" />
<path style="fill:#73a6a6" d="M125,277 l0,-9 0,-1 0,-1 3,0 100,0 4,0 0,4 0,68 0,5 -4,0 -9,0 -81,0 -10,0 -3,0 0,-9 0,-3 -12,0 -30,0 -7,0 1,11 -1,1 -9,0 -25,0 -2,0 -3,0 0,-5 1,-9 0,-54 -1,-9 39,0 1,10 -1,1 49,0z" />
<path style="fill:#85b8b8" d="M339,217 l107,0 0,87 -107,0 0,-87z" />
<path style="fill:#85b8b8" d="M232,251 l20,-35 87,0 0,79 -107,0 0,-44z" />
<path style="fill:#85b8b8" d="M125,286 l0,-7 0,-1 3,0 100,0 4,0 0,3 0,47 0,3 -4,0 -9,0 -81,0 -10,0 -3,0 0,-8 -12,0 -30,0 -7,0 0,8 -9,0 -25,0 -2,0 -3,0 0,-3 1,-10 0,-34 -1,-6 39,0 0,8 49,0z" />
<path style="fill:#9cc" d="M339,241 l107,0 0,39 -107,0 0,-39z" />
<path style="fill:#9cc" d="M232,254 l19,-13 88,0 0,30 -107,0 0,-17z" />
<path style="fill:#9cc" d="M125,294 l0,-4 107,0 0,29 -107,0 0,-4 -49,0 0,4 -39,0 0,-29 39,0 0,4 49,0z" />
<path style="fill:#9cc" d="M266,144 l38,0 0,-97 -38,0 0,97z" />
<path style="fill:#b2e5e5" d="M280,144 l10,0 0,-97 -10,0 0,97z" />
<path style="fill:none;stroke:#000;stroke-width:2" d="M251,144 l68,0 0,-97 -68,0 0,97" />
<path style="fill:#b2b2b2" d="M543,66 l97,0 0,39 -97,0 0,-39z" />
<path style="fill:#e5e5e5" d="M572,66 l39,0 0,39 -39,0 0,-39z" />
<path style="fill:none;stroke:#000;stroke-width:2" d="M523,66 l136,0 0,39 -136,0 0,-39" />
<path style="fill:#4c7f7f;stroke:#000;stroke-width:2" d="M572,232 l87,0 0,97 -87,0 0,-97z" />
<path style="fill:#4c7f7f;stroke:#000;stroke-width:2" d="M455,232 l88,0 0,97 -88,0 0,-97z" />
<path style="fill:#4c7f7f" d="M708,689 l0,19 -613,0 0,-19 613,0z" />
<path style="fill:#4c7f7f" d="M115,397 l20,0 0,292 -20,0 0,-292z" />
<path style="fill:#4c7f7f" d="M513,378 l0,19 -398,0 0,-19 398,0z" />
<path style="fill:#b2e5e5" d="M513,384 l0,7 -393,0 0,-7 393,0z" />
<path style="fill:#b2e5e5" d="M122,392 l6,0 0,302 -6,0 0,-302z" />
<path style="fill:#b2e5e5" d="M708,695 l0,7 -613,0 0,-7 613,0z" />
<path style="fill:#9cc" d="M708,96 l253,0 0,77 -253,0 0,-77z" />
<path style="fill:#9cc" d="M708,183 l253,0 0,263 -253,0 0,-263z" />
<path style="fill:#7fb2b2;stroke:#000;stroke-width:2" d="M796,251 l145,0 0,98 -145,0 0,-98z" />
<path style="fill:#e5e5e5" d="M805,261 l39,0 0,78 -39,0 0,-78z" />
<path style="fill:#e5e5cb" d="M854,310 l78,0 0,29 -78,0 0,-29z" />
<path style="fill:#c66" d="M728,242 l29,0 0,19 -29,0 0,-19z" />
<path style="fill:none;stroke:#000;stroke-width:2" d="M290,47 l0,-19 -68,0 0,68 29,0" />
<path style="fill:none;stroke:#000;stroke-width:2" d="M193,242 l0,-117 58,0" />
<path style="fill:none;stroke:#000;stroke-width:2" d="M280,47 l0,-19 -87,0 0,97" />
<path style="fill:none;stroke:#000;stroke-width:2" d="M339,368 l0,-224" />
<path style="fill:none;stroke:#000;stroke-width:2" d="M232,242 l19,-98 195,0 0,234 -107,0 0,-10 -107,0 0,-126" />
<path style="fill:none;stroke:#000;stroke-width:2" d="M125,261 l0,-19 107,0 0,126 -107,0 0,-19 -49,0 0,19 -39,0 0,-126 39,0 0,19 49,0" />
<path style="fill:none;stroke:#000;stroke-width:2" d="M76,349 l0,-88" />
<path style="fill:none;stroke:#000;stroke-width:2" d="M125,261 l0,88" />
<path style="fill:#699;stroke:#000;stroke-width:2" d="M689,154 l9,29 -29,20 -29,-20 -29,20 -29,-20 -30,20 -29,-20 -29,20 -29,-20 0,-39 -58,10 0,-58 194,29 88,29z" />
<path style="fill:#9cc" d="M465,135 l0,-20 -49,-10 0,39 49,-9z" />

</svg>
