 

<svg xmlns:agg="http://www.example.com" xmlns="http://www.w3.org/2000/svg" preserveAspectRatio="none" width="1.4833in" height="1.0750in" viewBox="0 0 999 724">

<path style="fill:#696;stroke:#000;stroke-width:2" d="M970,106 l-785,0 0,589 785,0 0,-589z" />
<path style="fill:#b2ccb2;stroke:#000;stroke-width:2" d="M970,106 l-157,-78 -785,0 157,78 785,0z" />
<path style="fill:#3f7f3f;stroke:#000;stroke-width:2" d="M185,695 l-157,-78 0,-589 157,78 0,589z" />
<path style="fill:none;stroke:#000;stroke-width:2" d="M892,656 l-629,0" />
<path style="fill:none;stroke:#000;stroke-width:2" d="M892,676 l-629,0" />
<path style="fill:none;stroke:#000;stroke-width:2" d="M892,636 l-629,0" />
<path style="fill:none;stroke:#000;stroke-width:2" d="M892,597 l-629,0" />
<path style="fill:none;stroke:#000;stroke-width:2" d="M892,616 l-629,0" />
<path style="fill:none;stroke:#000;stroke-width:2" d="M892,578 l-629,0" />
<path style="fill:none;stroke:#000;stroke-width:2" d="M892,557 l-629,0" />
<path style="fill:none;stroke:#000;stroke-width:2" d="M892,518 l-629,0" />
<path style="fill:none;stroke:#000;stroke-width:2" d="M892,538 l-629,0" />
<path style="fill:none;stroke:#000;stroke-width:2" d="M892,499 l-629,0" />
<path style="fill:none;stroke:#000;stroke-width:2" d="M892,479 l-629,0" />
<path style="fill:none;stroke:#000;stroke-width:2" d="M892,440 l-629,0" />
<path style="fill:none;stroke:#000;stroke-width:2" d="M892,459 l-629,0" />
<path style="fill:none;stroke:#000;stroke-width:2" d="M892,420 l-629,0" />
<path style="fill:none;stroke:#000;stroke-width:2" d="M892,400 l-629,0" />
<path style="fill:none;stroke:#000;stroke-width:2" d="M892,361 l-629,0" />
<path style="fill:none;stroke:#000;stroke-width:2" d="M892,381 l-629,0" />
<path style="fill:none;stroke:#000;stroke-width:2" d="M892,342 l-629,0" />
<path style="fill:none;stroke:#000;stroke-width:2" d="M892,322 l-629,0" />
<path style="fill:none;stroke:#000;stroke-width:2" d="M892,283 l-629,0" />
<path style="fill:none;stroke:#000;stroke-width:2" d="M892,302 l-629,0" />
<path style="fill:none;stroke:#000;stroke-width:2" d="M892,263 l-629,0" />
<path style="fill:none;stroke:#000;stroke-width:2" d="M892,243 l-629,0" />
<path style="fill:none;stroke:#000;stroke-width:2" d="M892,204 l-629,0" />
<path style="fill:none;stroke:#000;stroke-width:2" d="M892,224 l-629,0" />
<path style="fill:none;stroke:#000;stroke-width:2" d="M892,185 l-629,0" />
<path style="fill:none;stroke:#000;stroke-width:2" d="M47,597 l118,59" />
<path style="fill:none;stroke:#000;stroke-width:2" d="M47,616 l118,60" />
<path style="fill:none;stroke:#000;stroke-width:2" d="M47,577 l118,59" />
<path style="fill:none;stroke:#000;stroke-width:2" d="M47,538 l118,59" />
<path style="fill:none;stroke:#000;stroke-width:2" d="M47,557 l118,59" />
<path style="fill:none;stroke:#000;stroke-width:2" d="M47,518 l118,60" />
<path style="fill:none;stroke:#000;stroke-width:2" d="M47,498 l118,59" />
<path style="fill:none;stroke:#000;stroke-width:2" d="M47,459 l118,59" />
<path style="fill:none;stroke:#000;stroke-width:2" d="M47,479 l118,59" />
<path style="fill:none;stroke:#000;stroke-width:2" d="M47,440 l118,59" />
<path style="fill:none;stroke:#000;stroke-width:2" d="M47,420 l118,59" />
<path style="fill:none;stroke:#000;stroke-width:2" d="M47,381 l118,59" />
<path style="fill:none;stroke:#000;stroke-width:2" d="M47,400 l118,59" />
<path style="fill:none;stroke:#000;stroke-width:2" d="M47,361 l118,59" />
<path style="fill:none;stroke:#000;stroke-width:2" d="M47,341 l118,59" />
<path style="fill:none;stroke:#000;stroke-width:2" d="M47,302 l118,59" />
<path style="fill:none;stroke:#000;stroke-width:2" d="M47,322 l118,59" />
<path style="fill:none;stroke:#000;stroke-width:2" d="M47,283 l118,59" />
<path style="fill:none;stroke:#000;stroke-width:2" d="M47,262 l118,60" />
<path style="fill:none;stroke:#000;stroke-width:2" d="M47,223 l118,60" />
<path style="fill:none;stroke:#000;stroke-width:2" d="M47,243 l118,59" />
<path style="fill:none;stroke:#000;stroke-width:2" d="M47,204 l118,59" />
<path style="fill:none;stroke:#000;stroke-width:2" d="M47,184 l118,59" />
<path style="fill:none;stroke:#000;stroke-width:2" d="M47,145 l118,59" />
<path style="fill:none;stroke:#000;stroke-width:2" d="M47,165 l118,59" />
<path style="fill:none;stroke:#000;stroke-width:2" d="M47,126 l118,59" />
<path style="fill:#696" d="M437,146 l-56,0 0,530 56,0 0,-530z" />
<path style="fill:#696" d="M774,146 l-56,0 0,530 56,0 0,-530z" />
<path style="fill:#696" d="M605,146 l-55,0 0,530 55,0 0,-530z" />
<path style="fill:#3f7f3f" d="M78,107 l-11,-7 0,530 11,7 0,-530z" />
<path style="fill:#3f7f3f" d="M146,146 l-12,-7 0,530 12,7 0,-530z" />
<path style="fill:#3f7f3f" d="M112,126 l-11,-6 0,530 11,6 0,-530z" />
<path style="fill:#696;stroke:#000;stroke-width:2" d="M664,81 l67,-14 -67,-14 -169,-5 -164,5 -68,14 68,14 164,6 169,-6z" />

</svg>
