 

<svg xmlns:agg="http://www.example.com" xmlns="http://www.w3.org/2000/svg" preserveAspectRatio="none" width="0.8210in" height="1.0750in" viewBox="0 0 763 999">

<path style="fill:#ccc;stroke:#000;stroke-width:2" d="M28,28 l707,0 0,942 -707,0 0,-942z" />
<path style="fill:#999;stroke:#000;stroke-width:2" d="M687,859 l-42,0 -40,-3 -36,-3 -31,-5 -25,-6 -27,-10 -8,-8 -2,-3 2,-4 24,-15 36,-8 31,-5 36,-4 40,-2 42,-1 0,-52 -14,0 -28,1 -28,2 -39,4 -36,6 -33,8 -30,9 -24,10 -26,16 -19,21 -3,9 -1,5 1,4 12,23 21,16 31,14 28,10 32,8 35,6 38,5 27,3 27,1 15,0 14,0 48,0 0,-52 -48,0z" />
<path style="fill:#999;stroke:#000;stroke-width:2" d="M75,859 l42,0 40,-3 37,-3 31,-5 26,-6 27,-10 9,-8 1,-3 -1,-4 -25,-15 -37,-8 -31,-5 -37,-4 -40,-2 -42,-1 0,-52 15,0 28,1 28,2 39,4 37,6 33,8 30,9 25,10 26,16 19,21 3,9 0,5 0,4 -12,23 -22,16 -30,14 -28,10 -32,8 -36,6 -39,5 -27,3 -28,1 -14,0 -15,0 -47,0 0,-52 47,0z" />
<path style="fill:#999;stroke:#000;stroke-width:2" d="M687,782 l0,-52 -21,0 -21,-1 -20,-1 -20,-1 -18,-2 -18,-2 -16,-2 -15,-3 -13,-2 -12,-3 -11,-3 -9,-4 -12,-7 -3,-4 -2,-3 2,-4 8,-7 7,-4 9,-3 11,-3 12,-3 13,-3 15,-3 16,-2 18,-2 18,-2 20,-1 20,-1 21,0 21,-1 0,-52 -14,0 -15,0 -13,1 -14,1 -14,1 -13,1 -13,1 -13,2 -12,2 -12,2 -12,2 -11,2 -12,3 -10,3 -10,3 -10,3 -10,3 -8,3 -9,3 -7,4 -8,4 -13,7 -11,9 -8,8 -5,9 -3,9 -1,5 1,4 3,9 5,9 8,9 11,8 13,7 8,4 7,4 9,3 8,3 10,3 10,3 10,3 10,3 12,3 11,2 12,2 12,2 12,2 13,1 13,2 13,1 14,1 14,1 13,1 15,0 14,0z" />
<path style="fill:#999;stroke:#000;stroke-width:2" d="M75,782 l0,-52 42,-1 40,-2 37,-4 31,-5 26,-5 27,-10 9,-8 1,-3 -1,-4 -25,-14 -37,-9 -31,-5 -37,-4 -40,-2 -20,0 -22,-1 0,-52 29,0 28,2 27,2 39,5 36,6 32,9 28,9 23,11 24,16 16,22 1,4 0,5 0,4 -12,22 -22,17 -30,14 -28,9 -32,9 -36,6 -39,5 -27,2 -28,2 -14,0 -15,0z" />
<path style="fill:#b2b2b2;stroke:#000;stroke-width:2" d="M687,653 l0,-52 -21,0 -21,-1 -20,-1 -20,-1 -18,-2 -18,-1 -16,-3 -15,-2 -13,-3 -12,-2 -11,-4 -9,-3 -12,-7 -3,-5 -2,-4 2,-3 8,-8 7,-3 9,-4 11,-3 12,-3 13,-2 15,-3 16,-2 18,-2 18,-2 20,-1 20,-1 21,-1 21,0 0,-50 -14,0 -15,0 -13,1 -14,1 -14,1 -13,1 -13,1 -13,2 -12,2 -12,2 -12,2 -11,2 -12,2 -10,3 -10,3 -10,2 -10,4 -8,3 -9,3 -7,4 -8,3 -13,8 -11,7 -8,9 -5,9 -3,9 -1,4 1,5 3,9 5,9 8,8 11,9 13,7 8,4 7,4 9,3 8,3 10,3 10,3 10,3 10,3 12,3 11,2 12,2 12,2 12,2 13,2 13,1 13,1 14,1 14,1 13,1 15,0 14,0z" />
<path style="fill:#b2b2b2;stroke:#000;stroke-width:2" d="M75,653 l0,-52 42,-1 40,-2 37,-3 31,-5 26,-5 27,-11 9,-8 1,-4 -1,-3 -25,-15 -37,-8 -31,-5 -37,-4 -40,-2 -20,-1 -22,0 0,-50 29,0 28,2 27,2 39,5 36,6 32,8 28,9 23,10 24,15 16,22 1,5 0,4 0,5 -12,22 -22,16 -30,15 -28,9 -32,9 -36,6 -39,5 -27,2 -28,2 -14,0 -15,0z" />
<path style="fill:#b2b2b2;stroke:#000;stroke-width:2" d="M687,524 l0,-52 -21,0 -21,-1 -20,-1 -20,-1 -18,-2 -18,-1 -16,-2 -15,-3 -13,-3 -12,-2 -11,-4 -9,-3 -12,-7 -3,-4 -2,-5 2,-3 8,-8 7,-3 9,-4 11,-3 12,-3 13,-2 15,-3 16,-2 18,-2 18,-2 20,-1 20,-1 21,-1 21,0 0,-50 -14,0 -15,0 -13,1 -14,1 -14,1 -13,1 -13,1 -13,2 -12,2 -12,2 -12,2 -11,2 -12,3 -10,3 -10,2 -10,3 -10,3 -8,4 -9,3 -7,3 -8,4 -13,8 -11,8 -8,8 -5,8 -3,9 -1,4 1,5 3,9 5,9 8,8 11,9 13,7 8,4 7,3 9,4 8,3 10,3 10,3 10,3 10,3 12,2 11,3 12,2 12,2 12,2 13,1 13,2 13,1 14,1 14,1 13,1 15,0 14,0z" />
<path style="fill:#b2b2b2;stroke:#000;stroke-width:2" d="M75,524 l0,-52 42,-1 40,-2 37,-3 31,-5 26,-5 27,-11 9,-7 1,-5 -1,-3 -25,-15 -37,-8 -31,-5 -37,-4 -40,-2 -20,-1 -22,0 0,-50 29,0 28,2 27,2 39,5 36,6 32,8 28,10 23,10 24,16 16,21 1,4 0,4 0,5 -12,22 -22,16 -30,15 -28,9 -32,8 -36,7 -39,5 -27,2 -28,2 -14,0 -15,0z" />
<path style="fill:#e5e5e5;stroke:#000;stroke-width:2" d="M687,395 l0,-50 -21,-1 -21,0 -20,-1 -20,-1 -18,-2 -18,-2 -16,-2 -15,-3 -13,-3 -12,-3 -11,-3 -9,-3 -12,-7 -3,-4 -2,-4 2,-4 8,-8 7,-3 9,-3 11,-4 12,-3 13,-3 15,-2 16,-2 18,-2 18,-1 20,-2 20,0 21,-1 21,0 0,-52 -14,0 -15,0 -13,1 -14,1 -14,1 -13,1 -13,2 -13,1 -12,2 -12,2 -12,2 -11,2 -12,3 -10,3 -10,3 -10,2 -10,4 -8,3 -9,3 -7,4 -8,4 -13,7 -11,8 -8,9 -5,9 -3,9 -1,4 1,5 3,9 5,8 8,8 11,8 13,8 8,3 7,4 9,3 8,4 10,3 10,3 10,2 10,3 12,2 11,3 12,2 12,2 12,2 13,1 13,2 13,1 14,1 14,1 13,1 15,0 14,0z" />
<path style="fill:#e5e5e5;stroke:#000;stroke-width:2" d="M75,395 l0,-50 42,-1 40,-2 37,-4 31,-5 26,-6 27,-10 9,-7 1,-4 -1,-4 -25,-14 -37,-10 -31,-4 -37,-3 -40,-2 -20,-1 -22,0 0,-52 29,0 28,2 27,2 39,5 36,6 32,9 28,9 23,11 24,15 16,22 1,5 0,4 0,5 -17,25 -24,16 -23,10 -28,10 -32,7 -36,7 -39,5 -27,2 -28,2 -14,0 -15,0z" />
<path style="fill:#e5e5e5;stroke:#000;stroke-width:2" d="M75,87 l29,0 28,1 27,3 39,5 36,6 32,8 28,10 23,10 24,16 16,22 1,5 0,4 0,5 -12,22 -22,16 -30,15 -28,9 -32,8 -36,7 -39,5 -27,2 -28,2 -14,0 -15,0 0,-52 42,-1 40,-2 37,-4 31,-5 26,-5 27,-11 9,-7 1,-4 -1,-4 -25,-14 -37,-9 -31,-5 -37,-3 -40,-3 -42,0 -47,0 0,-52 47,0z" />
<path style="fill:#e5e5e5;stroke:#000;stroke-width:2" d="M687,87 l-29,0 -27,1 -27,3 -38,5 -35,6 -32,8 -28,10 -24,10 -24,16 -15,22 -1,5 -1,4 1,5 12,22 21,16 31,15 28,9 32,8 35,7 38,5 27,2 27,2 15,0 14,0 0,-52 -42,-1 -40,-2 -36,-4 -31,-5 -25,-5 -27,-11 -8,-7 -2,-4 2,-4 24,-14 36,-9 31,-5 36,-3 40,-3 42,0 48,0 0,-52 -48,0z" />

</svg>
