 

<svg xmlns:agg="http://www.example.com" xmlns="http://www.w3.org/2000/svg" preserveAspectRatio="none" width="0.3981in" height="1.0750in" viewBox="0 0 370 999">

<path style="fill:#9cc;stroke:#000;stroke-width:2" d="M28,28 l314,0 0,942 -314,0 0,-942z" />
<path style="fill:#fff;stroke:#000;stroke-width:2" d="M79,950 l-12,-12 0,-15 12,-11 17,0 11,11 0,15 -11,12 -17,0z" />
<path style="fill:#fff;stroke:#000;stroke-width:2" d="M275,950 l-12,-12 0,-15 12,-11 17,0 11,11 0,15 -11,12 -17,0z" />
<path style="fill:#fff;stroke:#000;stroke-width:2" d="M79,806 l-12,-11 0,-17 12,-11 17,0 11,11 0,17 -11,11 -17,0z" />
<path style="fill:#fff;stroke:#000;stroke-width:2" d="M277,806 l-14,-11 0,-17 14,-11 15,0 11,11 0,17 -11,11 -15,0z" />
<path style="fill:#fff;stroke:#000;stroke-width:2" d="M79,661 l-12,-11 0,-15 12,-12 17,0 11,12 0,15 -11,11 -17,0z" />
<path style="fill:#fff;stroke:#000;stroke-width:2" d="M277,661 l-14,-11 0,-15 14,-12 15,0 11,12 0,15 -11,11 -15,0z" />
<path style="fill:#fff;stroke:#000;stroke-width:2" d="M79,518 l-12,-11 0,-17 12,-12 17,0 11,12 0,17 -11,11 -17,0z" />
<path style="fill:#fff;stroke:#000;stroke-width:2" d="M277,518 l-14,-11 0,-17 14,-12 15,0 11,12 0,17 -11,11 -15,0z" />
<path style="fill:#fff;stroke:#000;stroke-width:2" d="M79,375 l-12,-12 0,-17 12,-11 17,0 11,11 0,17 -11,12 -17,0z" />
<path style="fill:#fff;stroke:#000;stroke-width:2" d="M277,375 l-14,-12 0,-17 14,-11 15,0 11,11 0,17 -11,12 -15,0z" />
<path style="fill:#fff;stroke:#000;stroke-width:2" d="M79,229 l-12,-11 0,-15 12,-13 17,0 11,13 0,15 -11,11 -17,0z" />
<path style="fill:#fff;stroke:#000;stroke-width:2" d="M277,229 l-14,-11 0,-15 14,-13 15,0 11,13 0,15 -11,11 -15,0z" />
<path style="fill:#fff;stroke:#000;stroke-width:2" d="M79,86 l-12,-11 0,-17 12,-12 17,0 11,12 0,17 -11,11 -17,0z" />
<path style="fill:#fff;stroke:#000;stroke-width:2" d="M275,86 l-12,-11 0,-17 12,-12 17,0 11,12 0,17 -11,11 -17,0z" />

</svg>
