 
<svg version="1.1" id="图层_1" xmlns:agg="http://www.example.com"
	 xmlns="http://www.w3.org/2000/svg" xmlns:xlink="http://www.w3.org/1999/xlink" x="0px" y="0px" width="64px" height="64px"
	 viewBox="0 0 64 64" enable-background="new 0 0 64 64" xml:space="preserve">
<g>
	<polygon fill="none" stroke="#040000" stroke-width="2" stroke-linecap="round" stroke-miterlimit="10" points="51.994,38.668 
		51.854,36.27 51.43,33.87 50.725,31.577 49.701,29.39 48.465,27.308 46.982,25.402 45.254,23.709 43.383,22.192 41.301,20.958 
		39.111,19.97 36.783,19.229 34.418,18.806 32.018,18.664 29.583,18.806 27.217,19.229 24.923,19.97 22.7,20.958 20.653,22.192 
		18.747,23.709 17.017,25.402 15.535,27.308 14.299,29.39 13.311,31.577 12.57,33.87 12.146,36.27 12.005,38.668 12.146,41.066 
		12.57,43.466 13.311,45.759 14.299,47.98 15.535,50.027 17.017,51.934 18.747,53.661 20.653,55.145 22.7,56.378 24.923,57.366 
		27.217,58.105 29.583,58.529 32.018,58.671 34.418,58.529 36.783,58.105 39.111,57.366 41.301,56.378 43.383,55.145 45.254,53.661 
		46.982,51.934 48.465,50.027 49.701,47.98 50.725,45.759 51.43,43.466 51.854,41.066 	"/>
	
		<line fill="none" stroke="#040000" stroke-width="2" stroke-linecap="round" stroke-miterlimit="10" x1="32.018" y1="5.329" x2="32.018" y2="18.664"/>
	
		<line fill="none" stroke="#040000" stroke-width="2" stroke-linecap="round" stroke-miterlimit="10" x1="18.676" y1="5.329" x2="18.676" y2="23.744"/>
	
		<line fill="none" stroke="#040000" stroke-width="2" stroke-linecap="round" stroke-miterlimit="10" x1="45.324" y1="5.329" x2="45.324" y2="23.744"/>
</g>
<g>
	<path stroke="#040000" stroke-miterlimit="10" d="M23.652,49.184c0.621,0.48,1.322,0.721,2.104,0.721
		c0.625,0,1.12-0.152,1.485-0.459c0.365-0.307,0.548-0.719,0.548-1.233c0-1.147-0.822-1.723-2.467-1.723h-0.756V45.54h0.721
		c1.457,0,2.186-0.539,2.186-1.617c0-0.996-0.557-1.493-1.67-1.493c-0.637,0-1.236,0.215-1.799,0.645V41.99
		c0.594-0.344,1.287-0.516,2.08-0.516c0.773,0,1.395,0.201,1.863,0.605c0.468,0.404,0.703,0.929,0.703,1.572
		c0,1.188-0.605,1.951-1.816,2.291v0.023c0.656,0.07,1.175,0.303,1.556,0.694c0.381,0.392,0.571,0.882,0.571,1.468
		c0,0.816-0.294,1.475-0.882,1.975s-1.37,0.75-2.347,0.75c-0.859,0-1.553-0.16-2.08-0.479V49.184z"/>
	<path stroke="#040000" stroke-miterlimit="10" d="M38.998,45.949c-0.031,0.629-0.207,1.119-0.527,1.474s-0.746,0.53-1.277,0.53
		c-0.254,0-0.494-0.049-0.723-0.145c-0.229-0.096-0.543-0.279-0.941-0.554c-0.413-0.276-0.75-0.416-1.008-0.416
		c-0.569,0-0.875,0.367-0.914,1.103h-0.901c0.026-0.629,0.201-1.118,0.521-1.469c0.32-0.35,0.748-0.523,1.283-0.523
		c0.48,0,0.977,0.184,1.488,0.551c0.355,0.242,0.605,0.396,0.753,0.46s0.313,0.097,0.501,0.097c0.211,0,0.4-0.094,0.568-0.281
		c0.168-0.187,0.26-0.463,0.275-0.825L38.998,45.949L38.998,45.949z"/>
</g>
<g>
	<path stroke="#040000" stroke-width="0.75" stroke-miterlimit="10" d="M35.521,36.538v-6.013c0-0.496,0.028-1.092,0.088-1.787
		H35.58c-0.102,0.438-0.191,0.742-0.27,0.914l-2.994,6.886h-0.65l-2.988-6.832c-0.07-0.156-0.16-0.479-0.27-0.968h-0.036
		c0.039,0.423,0.059,1.035,0.059,1.841v5.959h-1.119v-9.076H28.9l2.678,6.224c0.203,0.477,0.338,0.848,0.404,1.112h0.042
		c0.203-0.56,0.346-0.938,0.428-1.137l2.725-6.199h1.512v9.076H35.521z"/>
</g>
</svg>
