 

<svg xmlns:agg="http://www.example.com" xmlns="http://www.w3.org/2000/svg" preserveAspectRatio="none" width="0.5671in" height="1.0750in" viewBox="0 0 527 999">

<path style="fill:#7f1900;stroke:#000;stroke-width:2" d="M106,695 l-59,0 0,-490 79,0 0,-20 -98,0 0,530 78,0 0,-20z" />
<path style="fill:none;stroke:#fc0;stroke-width:2" d="M126,195 l-88,0 0,510 68,0" />
<path style="fill:#999" d="M283,28 l0,19 79,0 0,-19 -79,0z" />
<path style="fill:#ccc" d="M298,28 l0,19 49,0 0,-19 -49,0z" />
<path style="fill:#fff" d="M317,28 l0,19 10,0 0,-19 -10,0z" />
<path style="fill:none;stroke:#000;stroke-width:2" d="M283,28 l0,19 79,0 0,-19 -79,0" />
<path style="fill:#4c4c4c" d="M421,386 l0,34 59,0 0,-34 -59,0z" />
<path style="fill:#4c4c4c" d="M126,386 l0,34 59,0 0,-34 -59,0z" />
<path style="fill:#7f7f7f" d="M432,386 l0,34 37,0 0,-34 -37,0z" />
<path style="fill:#7f7f7f" d="M137,386 l0,34 37,0 0,-34 -37,0z" />
<path style="fill:#7f7f7f" d="M264,386 l0,34 58,0 0,-34 -58,0z" />
<path style="fill:#b2b2b2" d="M275,386 l0,34 36,0 0,-34 -36,0z" />
<path style="fill:#b2b2b2" d="M447,386 l0,34 7,0 0,-34 -7,0z" />
<path style="fill:#b2b2b2" d="M152,386 l0,34 7,0 0,-34 -7,0z" />
<path style="fill:#999;stroke:#000;stroke-width:2" d="M499,931 l0,-511 -393,0 0,511 1,4 23,15 34,9 29,5 33,3 37,2 40,1 39,-1 37,-2 33,-3 30,-5 33,-9 23,-15 1,-4z" />
<path style="fill:#ababab" d="M474,948 l0,-528 -342,0 0,528 49,12 58,7 64,3 64,-3 58,-7 49,-12z" />
<path style="fill:#b8b8b8" d="M449,954 l0,-534 -292,0 0,534 91,14 55,2 55,-2 91,-14z" />
<path style="fill:#c4c4c4" d="M424,959 l0,-539 -242,0 0,539 76,9 45,2 45,-2 76,-9z" />
<path style="fill:#d1d1d1" d="M398,962 l0,-542 -191,0 0,542 60,6 36,2 36,-2 59,-6z" />
<path style="fill:#dedede" d="M373,966 l0,-546 -140,0 0,546 70,4 70,-4z" />
<path style="fill:#ebebeb" d="M348,965 l0,-545 -90,0 0,545 13,2 32,3 32,-3 13,-2z" />
<path style="fill:#f7f7f7" d="M322,968 l0,-548 -39,0 0,548 1,0 5,0 6,1 8,1 7,-1 7,-1 4,0 1,0z" />
<path style="fill:#4c4c4c" d="M106,420 l393,0 0,20 -393,0 0,-20z" />
<path style="fill:#4c4c4c" d="M499,931 l0,-20 -1,4 -23,15 -33,9 -30,5 -33,3 -37,2 -39,1 -40,-1 -37,-2 -33,-3 -29,-5 -34,-9 -23,-15 -1,-4 0,20 1,4 23,15 34,9 29,5 33,3 37,2 20,1 20,0 20,0 38,-2 35,-2 31,-5 27,-5 30,-10 14,-11 1,-4z" />
<path style="fill:#e5e5e5" d="M289,386 l0,34 8,0 0,-34 -8,0z" />
<path style="fill:#ccc;stroke:#000;stroke-width:2" d="M106,381 l354,0 0,-98 14,-20 0,-137 15,0 0,-78 -324,0 0,78 -39,0 0,137 -20,20 0,98z" />
<path style="fill:#e5e5e5;stroke:#000;stroke-width:2" d="M106,283 l354,0 14,-20 -348,0 -20,20z" />
<path style="fill:#b2b2b2;stroke:#000;stroke-width:2" d="M460,381 l39,5 0,-338 -10,0 0,78 -15,0 0,137 -14,20 0,98z" />
<path style="fill:none;stroke:#000;stroke-width:2" d="M165,126 l315,0" />
<path style="fill:#e5e5e5" d="M146,155 l137,0 0,79 -137,0 0,-79z" />
<path style="fill:none;stroke:#7f7f7f;stroke-width:2" d="M146,234 l137,0 0,-79" />
<path style="fill:#000" d="M499,386 l-39,-5 -354,0 0,5 393,0z" />
<path style="fill:#999" d="M170,136 l270,0 0,10 -270,0 0,-10z" />
<path style="fill:#999" d="M170,244 l270,0 0,10 -270,0 0,-10z" />
<ellipse style="fill:#333" cx="158" cy="852" rx="37" ry="63" />
<path style="fill:#7f1900;stroke:#000;stroke-width:2" d="M106,774 l-29,0 0,-432 29,0 0,-20 -49,0 0,471 49,0 0,-19z" />
<path style="fill:none;stroke:#fc0;stroke-width:2" d="M106,332 l-39,0 0,452 39,0" />

</svg>
