 

<svg xmlns:agg="http://www.example.com" xmlns="http://www.w3.org/2000/svg" preserveAspectRatio="none" width="1.3611in" height="1.0750in" viewBox="0 0 999 789">

<path style="fill:#7f7f7f" d="M735,761 l26,-26 26,-602 -26,-105 -524,0 -26,105 26,602 26,26 472,0z" />
<path style="fill:#8c8c8c" d="M729,740 l26,-24 27,-569 -27,-100 -511,0 -26,100 25,569 26,24 460,0z" />
<path style="fill:#999" d="M725,722 l25,-25 24,-537 -24,-93 -500,0 -26,93 26,537 25,25 450,0z" />
<path style="fill:#a6a6a6" d="M720,701 l24,-21 25,-505 -25,-89 -488,0 -25,89 25,505 24,21 440,0z" />
<path style="fill:#b2b2b2" d="M714,682 l23,-21 24,-473 -23,-81 -477,0 -24,81 24,473 25,21 428,0z" />
<path style="fill:#bfbfbf" d="M708,663 l23,-19 24,-441 -22,-77 -466,0 -23,77 23,441 24,19 417,0z" />
<path style="fill:#ccc" d="M703,642 l22,-17 23,-409 -23,-71 -452,0 -23,71 23,409 22,17 408,0z" />
<path style="fill:#d9d9d9" d="M699,623 l21,-17 22,-375 -22,-66 -440,0 -22,66 20,375 23,17 398,0z" />
<path style="fill:#e5e5e5" d="M670,578 l20,-15 18,-322 -18,-57 -382,0 -18,57 18,322 20,15 342,0z" />
<path style="fill:none;stroke:#000;stroke-width:2" d="M735,761 l26,-26 26,-602 -26,-105 -524,0 -26,105 26,602 26,26 472,0" />
<path style="fill:#7f7f7f" d="M761,107 l53,0 0,130 -53,0 0,-130z" />
<path style="fill:#7f7f7f" d="M237,107 l-53,0 0,130 53,0 0,-130z" />
<path style="fill:#878787" d="M761,116 l53,0 0,112 -53,0 0,-112z" />
<path style="fill:#878787" d="M237,116 l-53,0 0,112 53,0 0,-112z" />
<path style="fill:#919191" d="M761,126 l53,0 0,92 -53,0 0,-92z" />
<path style="fill:#919191" d="M237,126 l-53,0 0,92 53,0 0,-92z" />
<path style="fill:#999" d="M761,137 l53,0 0,70 -53,0 0,-70z" />
<path style="fill:#999" d="M237,137 l-53,0 0,70 53,0 0,-70z" />
<path style="fill:#a1a1a1" d="M761,147 l53,0 0,50 -53,0 0,-50z" />
<path style="fill:#a1a1a1" d="M237,147 l-53,0 0,50 53,0 0,-50z" />
<path style="fill:#ababab" d="M761,156 l53,0 0,32 -53,0 0,-32z" />
<path style="fill:#ababab" d="M237,156 l-53,0 0,32 53,0 0,-32z" />
<path style="fill:#b2b2b2" d="M761,165 l53,0 0,12 -53,0 0,-12z" />
<path style="fill:#b2b2b2" d="M237,167 l-53,0 0,10 53,0 0,-10z" />
<path style="fill:#999;stroke:#000;stroke-width:2" d="M814,97 l156,0 0,157 -156,0 0,-157z" />
<path style="fill:#999;stroke:#000;stroke-width:2" d="M184,97 l-156,0 0,159 156,0 0,-159z" />
<path style="fill:#666;stroke:#000;stroke-width:2" d="M865,273 l-34,-19 34,-17 71,0 34,17 -34,19 -71,0z" />
<path style="fill:#666;stroke:#000;stroke-width:2" d="M133,273 l34,-17 -34,-19 -71,0 -34,19 34,17 71,0z" />
<path style="fill:#b2b2b2;stroke:#000;stroke-width:2" d="M865,237 l-34,-60 34,-63 71,0 34,63 -34,60 -71,0z" />
<path style="fill:#b2b2b2;stroke:#000;stroke-width:2" d="M133,237 l34,-60 -34,-63 -71,0 -34,63 34,60 71,0z" />
<path style="fill:#e5e5e5;stroke:#000;stroke-width:2" d="M865,114 l-34,-17 34,-17 71,0 34,17 -34,17 -71,0z" />
<path style="fill:#e5e5e5;stroke:#000;stroke-width:2" d="M133,114 l34,-17 -34,-17 -71,0 -34,17 34,17 71,0z" />
<path style="fill:none;stroke:#000;stroke-width:2" d="M761,107 l53,0 0,130 -53,0 0,-130" />
<path style="fill:none;stroke:#000;stroke-width:2" d="M237,107 l-53,0 0,130 53,0 0,-130" />
<path style="fill:none;stroke:#7f7f7f;stroke-width:2" d="M526,761 l0,-733" />
<path style="fill:none;stroke:#7f7f7f;stroke-width:2" d="M472,761 l0,-733" />
<path style="fill:none;stroke:#7f7f7f;stroke-width:2" d="M316,133 l104,0 0,-105" />

</svg>
