 

<svg xmlns:agg="http://www.example.com" xmlns="http://www.w3.org/2000/svg" preserveAspectRatio="none" width="1.6083in" height="0.3880in" viewBox="0 0 999 241">

<path style="fill:#4c4c4c;stroke:#000;stroke-width:2" d="M28,31 l28,0 0,6 -28,0 0,-6z" />
<path style="fill:#4c4c4c;stroke:#000;stroke-width:2" d="M28,203 l28,0 0,4 -28,0 0,-4z" />
<path style="fill:#b2b2b2;stroke:#000;stroke-width:2" d="M746,197 l224,0 0,-154 -224,0 0,154z" />
<path style="fill:#ccc" d="M752,192 l0,-146 105,74 -105,72z" />
<path style="fill:#d9d9d9" d="M857,120 l-105,72 213,0 -108,-72z" />
<path style="fill:#bfbfbf" d="M965,192 l0,-146 -108,74 108,72z" />
<path style="fill:#b2b2b2;stroke:#000;stroke-width:2" d="M514,197 l223,0 0,-154 -223,0 0,154z" />
<path style="fill:#ccc" d="M518,192 l0,-146 107,74 -107,72z" />
<path style="fill:#d9d9d9" d="M625,120 l-107,72 215,0 -108,-72z" />
<path style="fill:#bfbfbf" d="M733,192 l0,-146 -108,74 108,72z" />
<path style="fill:#4c4c4c;stroke:#000;stroke-width:2" d="M727,31 l28,0 0,6 -28,0 0,-6z" />
<path style="fill:#4c4c4c;stroke:#000;stroke-width:2" d="M727,203 l28,0 0,4 -28,0 0,-4z" />
<path style="fill:#b2b2b2;stroke:#000;stroke-width:2" d="M737,212 l9,0 0,-184 -9,0 0,184z" />
<path style="fill:#4c4c4c;stroke:#000;stroke-width:2" d="M495,31 l29,0 0,6 -29,0 0,-6z" />
<path style="fill:#4c4c4c;stroke:#000;stroke-width:2" d="M495,203 l29,0 0,4 -29,0 0,-4z" />
<path style="fill:#b2b2b2;stroke:#000;stroke-width:2" d="M505,212 l9,0 0,-184 -9,0 0,184z" />
<path style="fill:#b2b2b2;stroke:#000;stroke-width:2" d="M280,197 l223,0 0,-154 -223,0 0,154z" />
<path style="fill:#ccc" d="M284,192 l0,-146 108,74 -108,72z" />
<path style="fill:#d9d9d9" d="M392,120 l-108,72 215,0 -107,-72z" />
<path style="fill:#bfbfbf" d="M499,192 l0,-146 -107,74 107,72z" />
<path style="fill:#b2b2b2;stroke:#000;stroke-width:2" d="M46,197 l225,0 0,-154 -225,0 0,154z" />
<path style="fill:#ccc" d="M50,192 l0,-146 108,74 -108,72z" />
<path style="fill:#d9d9d9" d="M158,120 l-108,72 215,0 -107,-72z" />
<path style="fill:#bfbfbf" d="M265,192 l0,-146 -107,74 107,72z" />
<path style="fill:#4c4c4c;stroke:#000;stroke-width:2" d="M260,31 l30,0 0,6 -30,0 0,-6z" />
<path style="fill:#4c4c4c;stroke:#000;stroke-width:2" d="M260,203 l30,0 0,4 -30,0 0,-4z" />
<path style="fill:#b2b2b2;stroke:#000;stroke-width:2" d="M271,212 l9,0 0,-184 -9,0 0,184z" />
<path style="fill:#b2b2b2;stroke:#000;stroke-width:2" d="M37,212 l9,0 0,-184 -9,0 0,184z" />

</svg>
