 

<svg xmlns:agg="http://www.example.com" xmlns="http://www.w3.org/2000/svg" preserveAspectRatio="none" width="1.4224in" height="1.0750in" viewBox="0 0 999 755">

<path style="fill:#999" d="M577,727 l155,-5 78,-4 117,-13 39,-18 0,-622 -40,-15 -116,-12 -78,-5 -155,-5 -156,0 -155,5 -78,5 -116,12 -40,15 0,622 39,18 117,13 78,4 155,5 156,0z" />
<path style="fill:#a6a6a6" d="M810,718 l85,-10 0,-656 -85,-15 -622,0 -84,15 0,656 84,10 622,0z" />
<path style="fill:#b2b2b2" d="M732,722 l78,-4 13,-3 0,-668 -13,-5 -78,-10 -466,0 -78,5 -13,5 0,673 13,3 78,4 466,0z" />
<path style="fill:#bfbfbf" d="M577,727 l155,-5 20,-2 0,-683 -21,-5 -154,-5 -156,0 -153,5 -22,5 0,683 20,2 155,5 156,0z" />
<path style="fill:#ccc" d="M577,727 l104,-5 0,-685 -104,-10 -156,0 -103,10 0,685 103,5 156,0z" />
<path style="fill:#d9d9d9" d="M577,727 l32,-3 0,-692 -32,-5 -156,0 -32,5 0,692 32,3 156,0z" />
<path style="fill:#e5e5e5" d="M538,727 l0,-700 -78,0 0,700 78,0z" />
<path style="fill:none;stroke:#000;stroke-width:2" d="M499,727 l78,0 78,-3 77,-2 78,-4 78,-8 39,-5 39,-18 0,-622 -40,-15 -38,-5 -78,-7 -78,-5 -77,-4 -78,-1 -78,-1 -78,1 -78,1 -77,4 -78,5 -78,7 -38,5 -40,15 0,622 39,18 39,5 78,8 78,4 77,2 78,3 78,0" />
<path style="fill:#4c4c4c" d="M932,416 l39,0 0,10 -39,0 0,-10z" />
<path style="fill:#4c4c4c" d="M825,416 l88,0 0,-364 19,0 0,374 -107,0 0,-10z" />
<path style="fill:#4c4c4c" d="M27,416 l40,0 0,-364 19,0 0,374 -59,0 0,-10z" />
<path style="fill:#4c4c4c" d="M898,703 l0,-277 9,0 0,277 -9,0z" />
<path style="fill:#4c4c4c" d="M62,703 l0,-277 10,0 0,277 -10,0z" />
<path style="fill:#666" d="M718,416 l88,0 0,-374 19,0 0,384 -107,0 0,-10z" />
<path style="fill:#666" d="M86,416 l88,0 0,-374 19,0 0,384 -107,0 0,-10z" />
<path style="fill:#666" d="M791,718 l0,-292 9,0 0,292 -9,0z" />
<path style="fill:#666" d="M169,718 l0,-292 10,0 0,292 -10,0z" />
<path style="fill:#b2b2b2" d="M407,416 l83,0 0,-389 19,0 0,399 -102,0 0,-10z" />
<path style="fill:#b2b2b2" d="M475,727 l0,-301 19,0 0,301 -19,0z" />
<path style="fill:#b2b2b2" d="M825,407 l97,0 0,-355 10,0 0,364 -107,0 0,-9z" />
<path style="fill:#b2b2b2" d="M27,407 l40,0 0,-355 10,0 0,364 -50,0 0,-9z" />
<path style="fill:#b2b2b2" d="M932,407 l39,0 0,9 -39,0 0,-9z" />
<path style="fill:#b2b2b2" d="M908,703 l0,-287 9,0 0,287 -9,0z" />
<path style="fill:#b2b2b2" d="M52,703 l0,-287 10,0 0,287 -10,0z" />
<path style="fill:#ccc" d="M718,407 l97,0 0,-365 10,0 0,374 -107,0 0,-9z" />
<path style="fill:#ccc" d="M77,407 l97,0 0,-365 10,0 0,374 -107,0 0,-9z" />
<path style="fill:#ccc" d="M801,718 l0,-302 9,0 0,302 -9,0z" />
<path style="fill:#ccc" d="M159,718 l0,-302 10,0 0,302 -10,0z" />
<path style="fill:#fff" d="M397,407 l97,0 0,-380 10,0 0,389 -107,0 0,-9z" />
<path style="fill:#7f7f7f" d="M684,722 l0,-296 9,0 0,296 -9,0z" />
<path style="fill:#7f7f7f" d="M611,416 l88,0 0,-384 19,0 0,394 -107,0 0,-10z" />
<path style="fill:#7f7f7f" d="M193,416 l87,0 0,-384 20,0 0,394 -107,0 0,-10z" />
<path style="fill:#7f7f7f" d="M276,722 l0,-296 10,0 0,296 -10,0z" />
<path style="fill:#999" d="M577,727 l0,-301 9,0 0,301 -9,0z" />
<path style="fill:#999" d="M509,416 l83,0 0,-389 19,0 0,399 -102,0 0,-10z" />
<path style="fill:#999" d="M300,416 l87,0 0,-389 20,0 0,399 -107,0 0,-10z" />
<path style="fill:#999" d="M383,727 l0,-301 10,0 0,301 -10,0z" />
<path style="fill:#fff" d="M480,727 l0,-311 10,0 0,311 -10,0z" />
<path style="fill:#f2f2f2" d="M504,407 l97,0 0,-380 10,0 0,389 -107,0 0,-9z" />
<path style="fill:#f2f2f2" d="M290,407 l97,0 0,-380 10,0 0,389 -107,0 0,-9z" />
<path style="fill:#f2f2f2" d="M587,727 l0,-311 9,0 0,311 -9,0z" />
<path style="fill:#f2f2f2" d="M373,727 l0,-311 10,0 0,311 -10,0z" />
<path style="fill:#e5e5e5" d="M611,407 l97,0 0,-375 10,0 0,384 -107,0 0,-9z" />
<path style="fill:#e5e5e5" d="M183,407 l97,0 0,-375 10,0 0,384 -107,0 0,-9z" />
<path style="fill:#e5e5e5" d="M694,722 l0,-306 9,0 0,306 -9,0z" />
<path style="fill:#e5e5e5" d="M266,722 l0,-306 10,0 0,306 -10,0z" />

</svg>
