 

<svg xmlns:agg="http://www.example.com" xmlns="http://www.w3.org/2000/svg" preserveAspectRatio="none" width="0.9050in" height="1.0750in" viewBox="0 0 841 999">

<path style="fill:#d6c2ad" d="M813,951 l-177,-609 0,-78 20,-196 -23,-18 -31,-7 -32,-6 -28,-3 -30,-3 -33,-2 -35,-1 -12,0 -12,0 -35,0 -35,2 -32,2 -29,3 -27,3 -30,6 -29,8 -18,16 20,196 0,78 -177,609 0,1 31,6 36,4 35,2 41,2 30,1 32,1 35,1 36,0 38,1 19,0 19,0 20,0 60,0 39,0 38,-1 36,0 34,-1 33,-1 30,-1 28,-1 37,-3 30,-2 30,-4 17,-4 1,-1z" />
<path style="fill:#dbc9b7" d="M767,950 l-9,-38 -10,-38 -10,-38 -10,-38 -9,-38 -10,-38 -10,-38 -10,-38 -9,-38 -10,-38 -10,-38 -9,-38 -10,-38 -10,-38 -10,-38 -10,-38 1,-30 0,-29 1,-32 3,-37 3,-37 3,-36 3,-37 4,-37 -1,-4 -25,-15 -28,-7 -30,-5 -34,-4 -28,-2 -31,-2 -10,0 -11,0 -10,0 -32,0 -30,2 -28,2 -35,4 -29,5 -29,7 -23,13 -2,2 2,29 3,36 4,37 3,37 3,37 2,29 0,30 0,29 -5,34 -9,38 -10,38 -10,38 -10,38 -9,38 -10,38 -10,38 -10,38 -9,38 -10,38 -10,38 -10,38 -10,38 -9,38 -10,38 -5,19 0,1 27,7 32,3 31,3 36,2 41,1 30,1 31,1 32,0 34,1 17,0 18,0 53,0 34,0 34,-1 31,-1 31,-1 28,-1 40,-1 34,-2 29,-3 29,-3 21,-6 0,-1z" />
<path style="fill:#decfbd" d="M722,950 l-9,-38 -8,-38 -9,-38 -8,-38 -9,-38 -8,-38 -9,-38 -8,-38 -8,-38 -9,-38 -8,-38 -9,-38 -8,-38 -9,-38 -8,-38 -9,-38 0,-30 0,-29 1,-32 3,-37 3,-37 3,-36 2,-37 3,-37 -1,-4 -21,-15 -31,-9 -27,-5 -30,-3 -34,-2 -18,-1 -18,0 -19,0 -35,2 -32,2 -29,5 -35,8 -27,14 -3,4 1,29 3,36 3,37 3,37 2,37 2,29 0,30 0,29 -4,34 -8,38 -9,38 -8,38 -9,38 -8,38 -9,38 -8,38 -8,38 -9,38 -8,38 -9,38 -8,38 -9,38 -8,38 -9,38 -4,19 0,1 30,8 30,3 28,2 33,2 36,1 40,2 29,0 29,1 15,0 15,0 46,0 30,0 29,-1 41,-1 38,-2 34,-1 30,-2 32,-3 27,-5 9,-4 1,-1z" />
<path style="fill:#e3d4c7" d="M676,950 l-8,-38 -6,-38 -8,-38 -7,-38 -7,-38 -7,-38 -7,-38 -8,-38 -7,-38 -7,-38 -7,-38 -7,-38 -8,-38 -7,-38 -7,-38 -7,-38 0,-30 0,-29 1,-32 2,-37 3,-37 2,-36 2,-37 3,-37 -19,-19 -26,-9 -35,-7 -28,-2 -30,-2 -15,0 -16,0 -30,2 -27,2 -36,7 -26,9 -19,19 3,37 2,37 3,36 2,37 3,37 1,32 0,39 -4,39 -7,38 -8,38 -7,38 -7,38 -7,38 -7,38 -7,38 -8,38 -7,38 -7,38 -7,38 -7,38 -7,38 -8,38 -7,38 -4,19 1,1 25,8 33,4 35,3 29,1 33,1 36,1 25,1 13,0 12,0 40,0 37,-1 36,-1 33,-1 30,-1 34,-3 28,-3 25,-6 5,-3 1,-1z" />
<path style="fill:#e8dbd1" d="M630,950 l-6,-38 -6,-38 -5,-38 -6,-38 -6,-38 -6,-38 -6,-38 -6,-38 -6,-38 -6,-38 -6,-38 -6,-38 -6,-38 -5,-38 -6,-38 -6,-38 0,-30 0,-29 0,-32 2,-37 3,-37 1,-36 2,-37 2,-37 -21,-22 -25,-8 -31,-6 -35,-3 -13,0 -13,0 -36,3 -31,6 -24,8 -21,18 0,29 2,36 3,37 2,37 1,37 2,29 0,30 0,29 -3,34 -6,38 -6,38 -6,38 -6,38 -6,38 -6,38 -5,38 -6,38 -6,38 -6,38 -6,38 -6,38 -6,38 -6,38 -6,38 -3,19 0,1 1,1 25,8 29,4 30,2 34,2 28,1 31,1 10,0 11,0 32,0 31,-1 29,-1 35,-2 32,-2 31,-4 26,-6 3,-2 1,-1 0,-1z" />
<path style="fill:#ebe1d7" d="M584,950 l-4,-38 -5,-38 -5,-38 -4,-38 -5,-38 -4,-38 -5,-38 -4,-38 -5,-38 -5,-38 -4,-38 -5,-38 -5,-38 -4,-38 -5,-38 -5,-38 1,-30 0,-29 0,-32 2,-37 1,-37 2,-36 1,-37 2,-37 -17,-22 -27,-11 -35,-5 -9,-1 -10,0 -10,0 -28,3 -32,8 -24,16 -3,37 1,36 2,37 1,37 2,37 1,29 0,30 0,29 -2,34 -5,38 -4,38 -5,38 -5,38 -4,38 -5,38 -4,38 -5,38 -5,38 -5,38 -4,38 -5,38 -4,38 -5,38 -5,38 -2,19 1,2 27,9 32,5 40,2 31,2 16,0 17,0 33,0 30,-2 28,-2 35,-3 30,-7 6,-4 1,-2z" />
<path style="fill:#f0e8e1" d="M538,951 l-53,-609 0,-78 6,-196 -12,-23 -25,-12 -26,-5 -8,0 -7,0 -26,5 -25,12 -12,23 6,196 0,78 -53,609 0,2 27,10 34,5 33,2 11,0 12,0 35,-1 31,-2 32,-5 19,-9 1,-2z" />
<path style="fill:none;stroke:#000;stroke-width:2" d="M813,951 l-177,-609 0,-78 20,-196 -23,-18 -31,-7 -32,-6 -28,-3 -30,-3 -33,-2 -35,-1 -12,0 -12,0 -35,0 -35,2 -32,2 -29,3 -27,3 -30,6 -29,8 -18,16 20,196 0,78 -177,609 0,1 31,6 36,4 35,2 41,2 30,1 32,1 35,1 36,0 38,1 19,0 19,0 20,0 60,0 39,0 38,-1 36,0 34,-1 33,-1 30,-1 28,-1 37,-3 30,-2 30,-4 17,-4 1,-1" />
<path style="fill:none;stroke:#ccb299;stroke-width:2" d="M641,965 l-102,-623 0,-78 14,-226" />
<path style="fill:none;stroke:#ccb299;stroke-width:2" d="M420,28 l0,942" />
<path style="fill:none;stroke:#ccb299;stroke-width:2" d="M200,965 l102,-623 0,-78 -14,-226" />

</svg>
