 

<svg xmlns:agg="http://www.example.com" xmlns="http://www.w3.org/2000/svg" preserveAspectRatio="none" width="1.6083in" height="1.0062in" viewBox="0 0 999 625">

<path style="fill:#fff" d="M28,28 l942,0 0,569 -942,0 0,-569z" />
<path style="fill:#fafafa" d="M28,363 l942,-335 0,569 -942,0 0,-234z" />
<path style="fill:#f5f5f5" d="M28,397 l942,-335 0,535 -942,0 0,-200z" />
<path style="fill:#f0f0f0" d="M28,448 l942,-337 0,486 -942,0 0,-149z" />
<path style="fill:none;stroke:#000;stroke-width:2" d="M28,28 l942,0 0,569 -942,0 0,-569" />
<path style="fill:#e5e5e5" d="M716,440 l215,0 0,118 -215,0 0,-118z" />
<path style="fill:none;stroke:#fff;stroke-width:2" d="M931,439 l0,119 -215,0" />
<path style="fill:none;stroke:#999;stroke-width:2" d="M931,439 l-215,0 0,119" />
<path style="fill:#333" d="M716,67 l215,0 0,334 -215,0 0,-334z" />
<path style="fill:#ccc" d="M774,67 l19,0 0,334 -19,0 0,-334z" />
<path style="fill:#ccc" d="M851,67 l21,0 0,334 -21,0 0,-334z" />
<path style="fill:#ccc" d="M716,126 l0,-21 215,0 0,21 -215,0z" />
<path style="fill:#ccc" d="M716,184 l0,-19 215,0 0,19 -215,0z" />
<path style="fill:#ccc" d="M716,243 l0,-19 215,0 0,19 -215,0z" />
<path style="fill:#ccc" d="M716,303 l0,-21 215,0 0,21 -215,0z" />
<path style="fill:#ccc" d="M716,361 l0,-20 215,0 0,20 -215,0z" />
<path style="fill:none;stroke:#7f7f7f;stroke-width:2" d="M676,582 l0,-539" />
<path style="fill:#ccc" d="M67,558 l78,0 0,18 -78,0 0,-18z" />
<path style="fill:none;stroke:#7f7f7f;stroke-width:2" d="M637,62 l-570,0 0,9 570,0 0,11 -570,0 0,10 570,0 0,9 -570,0 0,10 570,0 0,11 -570,0 0,9 570,0 0,10 -570,0 0,11 570,0 0,9 -570,0 0,10 570,0 0,9 -570,0 0,12 570,0 0,9 -570,0 0,9 570,0 0,10 -570,0 0,11 570,0 0,10 -570,0 0,9 570,0 0,10 -570,0 0,11 570,0 0,9 -570,0 0,10 570,0 0,9 -570,0 0,12 570,0 0,9 -570,0 0,9 570,0 0,10 -570,0 0,11 570,0 0,10 -570,0 0,9 570,0 0,9 -570,0 0,12 570,0 0,9 -570,0 0,9 570,0 0,10 -570,0 0,11 570,0 0,10 -570,0 0,9 570,0 0,11 -570,0 0,10 570,0 0,9 -570,0 0,10 570,0 0,11 -570,0 0,10 570,0 0,9 -570,0 0,11 570,0 0,10 -570,0" />
<path style="fill:#e5e5e5;stroke:#7f7f7f;stroke-width:2" d="M850,523 l-16,-24 16,-24 28,0 -28,48z" />
<path style="fill:#e5e5e5;stroke:#7f7f7f;stroke-width:2" d="M769,523 l-16,-24 16,-24 28,0 -28,48z" />
<path style="fill:#b2b2b2;stroke:#000;stroke-width:2" d="M850,523 l28,-48 13,24 -13,24 -28,0z" />
<path style="fill:#b2b2b2;stroke:#000;stroke-width:2" d="M769,523 l28,-48 13,24 -13,24 -28,0z" />
<path style="fill:#fff;stroke:#b2b2b2;stroke-width:2" d="M850,523 l20,-48 8,0 4,5 -32,43z" />
<path style="fill:#fff;stroke:#b2b2b2;stroke-width:2" d="M769,523 l20,-48 8,0 4,5 -32,43z" />
<path style="fill:none;stroke:#7f7f7f;stroke-width:2" d="M37,37 l924,0 0,551 -924,0 0,-551" />

</svg>
