 

<svg xmlns:agg="http://www.example.com" xmlns="http://www.w3.org/2000/svg" preserveAspectRatio="none" width="1.1673in" height="1.0750in" viewBox="0 0 999 920">

<path style="fill:#666;stroke:#000;stroke-width:2" d="M813,430 l157,0 0,59 -157,0 0,-59z" />
<path style="fill:#ccc" d="M813,450 l157,0 0,19 -157,0 0,-19z" />
<path style="fill:#8c8c8c" d="M28,735 l0,-550 39,0 0,39 707,0 0,-39 39,0 0,550 -39,0 0,-40 -707,0 0,40 -39,0z" />
<path style="fill:#8c8c8c;stroke:#000;stroke-width:2" d="M872,185 l39,0 0,550 -39,0 0,-550z" />
<path style="fill:#999" d="M872,244 l39,0 0,432 -39,0 0,-432z" />
<path style="fill:#999" d="M28,676 l0,-432 39,0 0,30 707,0 0,-30 39,0 0,432 -39,0 0,-31 -707,0 0,31 -39,0z" />
<path style="fill:#a6a6a6" d="M872,303 l39,0 0,314 -39,0 0,-314z" />
<path style="fill:#a6a6a6" d="M28,617 l0,-314 39,0 0,22 707,0 0,-22 39,0 0,314 -39,0 0,-22 -707,0 0,22 -39,0z" />
<path style="fill:#b2b2b2" d="M872,322 l39,0 0,275 -39,0 0,-275z" />
<path style="fill:#b2b2b2" d="M28,597 l0,-275 39,0 0,20 707,0 0,-20 39,0 0,275 -39,0 0,-19 -707,0 0,19 -39,0z" />
<path style="fill:#bfbfbf" d="M872,401 l39,0 0,118 -39,0 0,-118z" />
<path style="fill:#bfbfbf" d="M28,519 l0,-118 39,0 0,8 707,0 0,-8 39,0 0,118 -39,0 0,-9 -707,0 0,9 -39,0z" />
<path style="fill:none;stroke:#000;stroke-width:2" d="M28,735 l0,-550 39,0 0,39 707,0 0,-39 39,0 0,550 -39,0 0,-40 -707,0 0,40 -39,0" />
<path style="fill:none;stroke:#7f7f7f;stroke-width:2" d="M401,695 l0,-471" />
<path style="fill:none;stroke:#7f7f7f;stroke-width:2" d="M28,382 l785,0" />
<path style="fill:#8c8c8c" d="M519,695 l-1,157 -19,0 0,40 275,0 0,-40 -20,0 0,-157 -5,-35 -15,-31 -23,-24 -29,-18 -33,-9 -12,0 -35,5 -31,15 -25,23 -18,28 -9,34 0,12z" />
<path style="fill:#8c8c8c" d="M322,224 l0,-157 20,0 0,-39 -275,0 0,39 20,0 0,157 5,35 15,31 23,25 29,18 33,8 12,1 35,-5 31,-15 25,-23 18,-29 9,-34 0,-12z" />
<path style="fill:#999" d="M544,695 l0,157 -15,0 0,40 215,0 0,-40 -15,0 0,-157 -4,-35 -12,-31 -18,-24 -23,-18 -26,-9 -9,0 -28,5 -24,15 -20,23 -14,28 -6,34 -1,12z" />
<path style="fill:#999" d="M297,224 l0,-157 15,0 0,-39 -216,0 0,39 16,0 0,157 4,35 12,31 18,25 23,18 26,8 9,1 28,-5 24,-15 20,-23 14,-29 6,-34 1,-12z" />
<path style="fill:#b2b2b2" d="M578,695 l0,157 -11,0 0,40 138,0 0,-40 -10,0 0,-157 -2,-35 -8,-31 -11,-24 -20,-22 -17,-5 -29,14 -17,29 -9,28 -4,34 0,12z" />
<path style="fill:#b2b2b2" d="M263,224 l0,-157 10,0 0,-39 -137,0 0,39 9,0 0,157 3,35 7,31 12,25 20,22 17,5 29,-14 17,-29 9,-29 4,-34 0,-12z" />
<path style="fill:#bfbfbf" d="M611,695 l0,157 -4,0 0,40 59,0 0,-40 -4,0 0,-169 -2,-34 -4,-28 -7,-29 -10,-14 -2,0 -3,0 -14,27 -6,34 -2,32 -1,24z" />
<path style="fill:#bfbfbf" d="M230,224 l0,-157 4,0 0,-39 -59,0 0,39 4,0 0,169 2,34 4,29 7,29 10,13 2,1 3,-1 14,-26 6,-35 2,-32 1,-24z" />
<path style="fill:none;stroke:#000;stroke-width:2" d="M28,421 l785,0" />
<path style="fill:none;stroke:#000;stroke-width:2" d="M774,695 l0,-471" />
<path style="fill:none;stroke:#000;stroke-width:2" d="M67,695 l0,-471" />
<path style="fill:none;stroke:#000;stroke-width:2" d="M440,695 l0,-471" />
<path style="fill:none;stroke:#000;stroke-width:2" d="M754,852 l-235,0" />
<path style="fill:none;stroke:#000;stroke-width:2" d="M87,67 l235,0" />
<path style="fill:none;stroke:#000;stroke-width:2" d="M519,695 l-1,157 -19,0 0,40 275,0 0,-40 -20,0 0,-157 -5,-35 -15,-31 -23,-24 -29,-18 -33,-9 -12,0 -35,5 -31,15 -25,23 -18,28 -9,34 0,12" />
<path style="fill:none;stroke:#000;stroke-width:2" d="M322,224 l0,-157 20,0 0,-39 -275,0 0,39 20,0 0,157 5,35 15,31 23,25 29,18 33,8 12,1 35,-5 31,-15 25,-23 18,-29 9,-34 0,-12" />
<path style="fill:#8c8c8c" d="M342,322 l39,0 0,39 -39,0 0,-39z" />
<path style="fill:#8c8c8c" d="M87,322 l39,0 0,39 -39,0 0,-39z" />
<path style="fill:#8c8c8c" d="M87,479 l39,0 0,39 -39,0 0,-39z" />
<path style="fill:#8c8c8c" d="M342,479 l39,0 0,39 -39,0 0,-39z" />
<path style="fill:#8c8c8c" d="M460,322 l39,0 0,39 -39,0 0,-39z" />
<path style="fill:#8c8c8c" d="M460,479 l39,0 0,39 -39,0 0,-39z" />
<path style="fill:#8c8c8c" d="M715,322 l39,0 0,39 -39,0 0,-39z" />
<path style="fill:#8c8c8c" d="M715,479 l39,0 0,39 -39,0 0,-39z" />

</svg>
