 

<svg xmlns:agg="http://www.example.com" xmlns="http://www.w3.org/2000/svg" preserveAspectRatio="none" width="1.6083in" height="0.5715in" viewBox="0 0 999 355">

<path style="fill:#a6a6a6;stroke:#000;stroke-width:2" d="M813,33 l42,0 0,16 -42,0 0,-16z" />
<path style="fill:#a6a6a6;stroke:#000;stroke-width:2" d="M143,33 l42,0 0,16 -42,0 0,-16z" />
<path style="fill:#d9d9d9" d="M159,33 l10,0 0,16 -10,0 0,-16z" />
<path style="fill:#d9d9d9" d="M830,33 l10,0 0,16 -10,0 0,-16z" />
<path style="fill:#7f7f7f;stroke:#000;stroke-width:2" d="M112,174 l-16,0 0,142 16,0 0,-142z" />
<path style="fill:#7f7f7f;stroke:#000;stroke-width:2" d="M902,174 l-15,0 0,142 15,0 0,-142z" />
<path style="fill:#999;stroke:#000;stroke-width:2" d="M939,153 l0,-105 9,5 6,8 5,11 4,15 2,8 2,8 1,9 1,10 1,10 0,10 0,22 0,10 -1,10 -1,10 -1,9 -2,9 -4,15 -4,13 -6,10 -6,6 -6,2 0,-105z" />
<path style="fill:#999;stroke:#000;stroke-width:2" d="M59,154 l0,104 -9,-4 -6,-8 -5,-12 -4,-14 -2,-8 -2,-8 -1,-10 -1,-9 -1,-10 0,-11 0,-21 0,-10 1,-10 1,-10 1,-9 2,-9 4,-15 4,-13 6,-10 6,-6 6,-2 0,105z" />
<path style="fill:#bfbfbf" d="M59,154 l0,67 -9,-3 -7,-8 -4,-9 -3,-10 -2,-11 -1,-13 0,-7 0,-14 1,-13 1,-12 3,-11 3,-9 4,-7 8,-7 6,-1 0,68z" />
<path style="fill:#bfbfbf" d="M939,153 l0,-68 9,3 7,9 4,8 3,10 2,12 1,13 0,6 0,14 -1,13 -1,13 -3,11 -3,9 -4,7 -8,7 -6,1 0,-68z" />
<path style="fill:#7f7f7f;stroke:#000;stroke-width:2" d="M939,28 l-42,0 0,251 42,0 0,-251z" />
<path style="fill:#7f7f7f" d="M101,49 l796,0 0,209 -796,0 0,-209z" />
<path style="fill:#7f7f7f" d="M101,28 l-42,0 0,251 42,0 0,-251z" />
<path style="fill:#a6a6a6" d="M939,53 l-42,0 0,201 42,0 0,-201z" />
<path style="fill:#a6a6a6" d="M101,70 l796,0 0,168 -796,0 0,-168z" />
<path style="fill:#a6a6a6" d="M101,53 l-42,0 0,202 42,0 0,-202z" />
<path style="fill:#bfbfbf" d="M939,66 l-42,0 0,176 42,0 0,-176z" />
<path style="fill:#bfbfbf" d="M101,80 l796,0 0,147 -796,0 0,-147z" />
<path style="fill:#bfbfbf" d="M101,66 l-42,0 0,176 42,0 0,-176z" />
<path style="fill:#e5e5e5" d="M939,116 l-42,0 0,75 42,0 0,-75z" />
<path style="fill:#e5e5e5" d="M101,122 l796,0 0,63 -796,0 0,-63z" />
<path style="fill:#e5e5e5" d="M101,116 l-42,0 0,75 42,0 0,-75z" />
<path style="fill:none;stroke:#000;stroke-width:2" d="M918,28 l0,251" />
<path style="fill:none;stroke:#000;stroke-width:2" d="M101,49 l796,0 0,209 -796,0 0,-209" />
<path style="fill:none;stroke:#000;stroke-width:2" d="M101,28 l-42,0 0,251 42,0 0,-251" />
<path style="fill:none;stroke:#000;stroke-width:2" d="M80,28 l0,251" />
<path style="fill:#b2b2b2;stroke:#000;stroke-width:2" d="M59,316 l84,0 0,10 -84,0 0,-10z" />
<path style="fill:#b2b2b2;stroke:#000;stroke-width:2" d="M855,316 l84,0 0,10 -84,0 0,-10z" />
<path style="fill:#666" d="M143,161 l-3,-9 3,-9 9,-3 8,3 4,9 -4,9 -8,3 -9,-3z" />
<path style="fill:#bfbfbf;stroke:#000;stroke-width:2" d="M882,250 l15,0 0,14 -15,0 0,-14z" />
<path style="fill:#bfbfbf;stroke:#000;stroke-width:2" d="M882,199 l15,0 0,13 -15,0 0,-13z" />
<path style="fill:#bfbfbf;stroke:#000;stroke-width:2" d="M882,147 l15,0 0,13 -15,0 0,-13z" />
<path style="fill:#bfbfbf;stroke:#000;stroke-width:2" d="M882,95 l15,0 0,13 -15,0 0,-13z" />
<path style="fill:#bfbfbf;stroke:#000;stroke-width:2" d="M882,43 l15,0 0,14 -15,0 0,-14z" />
<path style="fill:#bfbfbf;stroke:#000;stroke-width:2" d="M939,250 l16,0 0,14 -16,0 0,-14z" />
<path style="fill:#bfbfbf;stroke:#000;stroke-width:2" d="M939,199 l16,0 0,13 -16,0 0,-13z" />
<path style="fill:#bfbfbf;stroke:#000;stroke-width:2" d="M939,147 l16,0 0,13 -16,0 0,-13z" />
<path style="fill:#bfbfbf;stroke:#000;stroke-width:2" d="M939,95 l16,0 0,13 -16,0 0,-13z" />
<path style="fill:#bfbfbf;stroke:#000;stroke-width:2" d="M939,43 l16,0 0,14 -16,0 0,-14z" />
<path style="fill:#bfbfbf;stroke:#000;stroke-width:2" d="M43,250 l16,0 0,14 -16,0 0,-14z" />
<path style="fill:#bfbfbf;stroke:#000;stroke-width:2" d="M43,199 l16,0 0,13 -16,0 0,-13z" />
<path style="fill:#bfbfbf;stroke:#000;stroke-width:2" d="M43,147 l16,0 0,13 -16,0 0,-13z" />
<path style="fill:#bfbfbf;stroke:#000;stroke-width:2" d="M43,95 l16,0 0,13 -16,0 0,-13z" />
<path style="fill:#bfbfbf;stroke:#000;stroke-width:2" d="M43,43 l16,0 0,14 -16,0 0,-14z" />
<path style="fill:#bfbfbf;stroke:#000;stroke-width:2" d="M101,250 l15,0 0,14 -15,0 0,-14z" />
<path style="fill:#bfbfbf;stroke:#000;stroke-width:2" d="M101,199 l15,0 0,13 -15,0 0,-13z" />
<path style="fill:#bfbfbf;stroke:#000;stroke-width:2" d="M101,147 l15,0 0,13 -15,0 0,-13z" />
<path style="fill:#bfbfbf;stroke:#000;stroke-width:2" d="M101,95 l15,0 0,13 -15,0 0,-13z" />
<path style="fill:#bfbfbf;stroke:#000;stroke-width:2" d="M101,43 l15,0 0,14 -15,0 0,-14z" />

</svg>
