 

<svg xmlns:agg="http://www.example.com" xmlns="http://www.w3.org/2000/svg" preserveAspectRatio="none" width="0.3131in" height="1.0750in" viewBox="0 0 291 999">

<path style="fill:#4c4c4c" d="M58,912 l-10,0 0,49 10,0 0,-49z" />
<path style="fill:#4c4c4c" d="M244,912 l-9,0 0,49 9,0 0,-49z" />
<path style="fill:#b2b2b2" d="M86,146 l0,-71 9,-21 18,-17 20,-9 25,0 20,9 17,17 10,21 0,71 -119,0z" />
<path style="fill:#bdbdbd" d="M95,144 l0,-69 8,-23 15,-15 17,-9 21,0 19,9 15,15 7,23 0,69 -102,0z" />
<path style="fill:#c7c7c7" d="M103,144 l0,-69 8,-23 11,-15 15,-9 17,0 15,9 13,15 6,23 0,69 -85,0z" />
<path style="fill:#d1d1d1" d="M113,144 l0,-69 3,-23 10,-15 13,-9 13,0 13,9 10,15 5,23 0,69 -67,0z" />
<path style="fill:#dedede" d="M120,144 l0,-69 4,-23 7,-15 10,-9 9,0 12,9 5,15 6,23 0,69 -53,0z" />
<path style="fill:#e8e8e8" d="M128,144 l0,-69 3,-23 4,-15 8,-9 7,0 6,9 6,15 1,23 0,69 -35,0z" />
<path style="fill:#f2f2f2" d="M135,146 l0,-71 2,-21 4,-17 2,-9 5,0 2,9 4,17 2,21 0,71 -21,0z" />
<path style="fill:none;stroke:#000;stroke-width:2" d="M86,146 l0,-71 9,-21 18,-17 20,-9 25,0 20,9 17,17 10,21 0,71 -119,0" />
<path style="fill:none;stroke:#000;stroke-width:2" d="M86,86 l119,0" />
<path style="fill:#f2f2f2" d="M184,97 l-77,0 0,49 77,0 0,-49z" />
<path style="fill:none;stroke:#fff;stroke-width:2" d="M107,146 l0,-49 77,0" />
<path style="fill:none;stroke:#4c4c4c;stroke-width:2" d="M184,97 l0,49" />
<path style="fill:#ccc" d="M244,854 l-196,0 0,-689 196,0 0,689z" />
<path style="fill:#e5e5e5" d="M28,184 l20,0 0,786 -20,0 0,-786z" />
<path style="fill:#f2f2f2" d="M28,931 l20,0 0,39 -20,0 0,-39z" />
<path style="fill:#f2f2f2" d="M28,854 l20,0 0,37 -20,0 0,-37z" />
<path style="fill:#f2f2f2" d="M28,774 l20,0 0,40 -20,0 0,-40z" />
<path style="fill:#f2f2f2" d="M28,695 l20,0 0,40 -20,0 0,-40z" />
<path style="fill:#f2f2f2" d="M28,618 l20,0 0,37 -20,0 0,-37z" />
<path style="fill:#f2f2f2" d="M28,539 l20,0 0,39 -20,0 0,-39z" />
<path style="fill:#f2f2f2" d="M28,459 l20,0 0,40 -20,0 0,-40z" />
<path style="fill:#f2f2f2" d="M28,382 l20,0 0,38 -20,0 0,-38z" />
<path style="fill:#f2f2f2" d="M28,303 l20,0 0,40 -20,0 0,-40z" />
<path style="fill:#f2f2f2" d="M28,224 l20,0 0,39 -20,0 0,-39z" />
<path style="fill:#f2f2f2;stroke:#7f7f7f;stroke-width:2" d="M244,854 l-196,0 0,58 196,0 0,-58z" />
<path style="fill:none;stroke:#333;stroke-width:2" d="M28,184 l20,0 0,786 -20,0 0,-786" />
<path style="fill:#e5e5e5" d="M244,184 l19,0 0,786 -19,0 0,-786z" />
<path style="fill:#f2f2f2" d="M244,931 l19,0 0,39 -19,0 0,-39z" />
<path style="fill:#f2f2f2" d="M244,854 l19,0 0,37 -19,0 0,-37z" />
<path style="fill:#f2f2f2" d="M244,774 l19,0 0,40 -19,0 0,-40z" />
<path style="fill:#f2f2f2" d="M244,695 l19,0 0,40 -19,0 0,-40z" />
<path style="fill:#f2f2f2" d="M244,618 l19,0 0,37 -19,0 0,-37z" />
<path style="fill:#f2f2f2" d="M244,539 l19,0 0,39 -19,0 0,-39z" />
<path style="fill:#f2f2f2" d="M244,459 l19,0 0,40 -19,0 0,-40z" />
<path style="fill:#f2f2f2" d="M244,382 l19,0 0,38 -19,0 0,-38z" />
<path style="fill:#f2f2f2" d="M244,303 l19,0 0,40 -19,0 0,-40z" />
<path style="fill:#f2f2f2" d="M244,224 l19,0 0,39 -19,0 0,-39z" />
<path style="fill:none;stroke:#333;stroke-width:2" d="M244,184 l19,0 0,786 -19,0 0,-786" />
<path style="fill:#f2f2f2;stroke:#333;stroke-width:2" d="M107,165 l-79,0 0,19 79,0 0,-19z" />
<path style="fill:#f2f2f2;stroke:#333;stroke-width:2" d="M263,165 l-79,0 0,19 79,0 0,-19z" />
<path style="fill:#f2f2f2;stroke:#333;stroke-width:2" d="M224,146 l-157,0 0,19 157,0 0,-19z" />
<path style="fill:#666" d="M58,823 l19,0 0,19 -19,0 0,-19z" />
<path style="fill:#666" d="M97,784 l19,0 0,20 -19,0 0,-20z" />
<path style="fill:#666" d="M135,823 l21,0 0,19 -21,0 0,-19z" />
<path style="fill:#666" d="M175,784 l20,0 0,20 -20,0 0,-20z" />
<path style="fill:#666" d="M214,823 l19,0 0,19 -19,0 0,-19z" />
<path style="fill:#666" d="M58,744 l19,0 0,21 -19,0 0,-21z" />
<path style="fill:#666" d="M97,706 l19,0 0,19 -19,0 0,-19z" />
<path style="fill:#666" d="M135,744 l21,0 0,21 -21,0 0,-21z" />
<path style="fill:#666" d="M175,706 l20,0 0,19 -20,0 0,-19z" />
<path style="fill:#666" d="M214,744 l19,0 0,21 -19,0 0,-21z" />
<path style="fill:#666" d="M58,667 l19,0 0,19 -19,0 0,-19z" />
<path style="fill:#666" d="M97,627 l19,0 0,19 -19,0 0,-19z" />
<path style="fill:#666" d="M135,667 l21,0 0,19 -21,0 0,-19z" />
<path style="fill:#666" d="M175,627 l20,0 0,19 -20,0 0,-19z" />
<path style="fill:#666" d="M214,667 l19,0 0,19 -19,0 0,-19z" />
<path style="fill:#666" d="M58,588 l19,0 0,18 -19,0 0,-18z" />
<path style="fill:#666" d="M97,548 l19,0 0,21 -19,0 0,-21z" />
<path style="fill:#666" d="M135,588 l21,0 0,18 -21,0 0,-18z" />
<path style="fill:#666" d="M175,548 l20,0 0,21 -20,0 0,-21z" />
<path style="fill:#666" d="M214,588 l19,0 0,18 -19,0 0,-18z" />
<path style="fill:#666" d="M58,508 l19,0 0,21 -19,0 0,-21z" />
<path style="fill:#666" d="M97,471 l19,0 0,19 -19,0 0,-19z" />
<path style="fill:#666" d="M135,508 l21,0 0,21 -21,0 0,-21z" />
<path style="fill:#666" d="M175,471 l20,0 0,19 -20,0 0,-19z" />
<path style="fill:#666" d="M214,508 l19,0 0,21 -19,0 0,-21z" />
<path style="fill:#666" d="M58,431 l19,0 0,19 -19,0 0,-19z" />
<path style="fill:#666" d="M97,392 l19,0 0,18 -19,0 0,-18z" />
<path style="fill:#666" d="M135,431 l21,0 0,19 -21,0 0,-19z" />
<path style="fill:#666" d="M175,392 l20,0 0,18 -20,0 0,-18z" />
<path style="fill:#666" d="M214,431 l19,0 0,19 -19,0 0,-19z" />
<path style="fill:#666" d="M58,352 l19,0 0,19 -19,0 0,-19z" />
<path style="fill:#666" d="M97,312 l19,0 0,21 -19,0 0,-21z" />
<path style="fill:#666" d="M135,352 l21,0 0,19 -21,0 0,-19z" />
<path style="fill:#666" d="M175,312 l20,0 0,21 -20,0 0,-21z" />
<path style="fill:#666" d="M214,352 l19,0 0,19 -19,0 0,-19z" />
<path style="fill:#666" d="M58,273 l19,0 0,20 -19,0 0,-20z" />
<path style="fill:#666" d="M97,235 l19,0 0,19 -19,0 0,-19z" />
<path style="fill:#666" d="M135,273 l21,0 0,20 -21,0 0,-20z" />
<path style="fill:#666" d="M175,235 l20,0 0,19 -20,0 0,-19z" />
<path style="fill:#666" d="M214,273 l19,0 0,20 -19,0 0,-20z" />
<path style="fill:#666" d="M58,195 l19,0 0,19 -19,0 0,-19z" />
<path style="fill:#666" d="M135,195 l21,0 0,19 -21,0 0,-19z" />
<path style="fill:#666" d="M214,195 l19,0 0,19 -19,0 0,-19z" />

</svg>
