 

<svg xmlns:agg="http://www.example.com" xmlns="http://www.w3.org/2000/svg" preserveAspectRatio="none" width="1.6083in" height="0.9756in" viewBox="0 0 999 606">

<path style="fill:#527d7d" d="M106,107 l-78,39 0,314 78,39 786,0 78,-39 0,-314 -78,-39 -786,0z" />
<path style="fill:#709494" d="M106,146 l-78,31 0,252 78,31 786,0 78,-31 0,-252 -78,-31 -786,0z" />
<path style="fill:#84a3a3" d="M106,185 l-78,24 0,188 78,24 786,0 78,-24 0,-188 -78,-24 -786,0z" />
<path style="fill:#a3baba" d="M106,205 l-78,19 0,158 78,19 786,0 78,-19 0,-158 -78,-19 -786,0z" />
<path style="fill:#ccd9d9" d="M106,264 l-78,8 0,62 78,8 786,0 78,-8 0,-62 -78,-8 -786,0z" />
<path style="fill:none;stroke:#000;stroke-width:2" d="M106,107 l-78,39 0,314 78,39 786,0 78,-39 0,-314 -78,-39 -786,0" />
<path style="fill:#144f4f" d="M97,97 l58,0 0,20 -58,0 0,-20z" />
<path style="fill:#144f4f" d="M97,175 l58,0 0,20 -58,0 0,-20z" />
<path style="fill:#144f4f" d="M97,136 l58,0 0,20 -58,0 0,-20z" />
<path style="fill:#144f4f" d="M97,254 l58,0 0,20 -58,0 0,-20z" />
<path style="fill:#144f4f" d="M97,215 l58,0 0,19 -58,0 0,-19z" />
<path style="fill:#144f4f" d="M97,333 l58,0 0,19 -58,0 0,-19z" />
<path style="fill:#144f4f" d="M97,293 l58,0 0,20 -58,0 0,-20z" />
<path style="fill:#144f4f" d="M97,411 l58,0 0,20 -58,0 0,-20z" />
<path style="fill:#144f4f" d="M97,372 l58,0 0,20 -58,0 0,-20z" />
<path style="fill:#144f4f" d="M97,490 l58,0 0,19 -58,0 0,-19z" />
<path style="fill:#144f4f" d="M97,450 l58,0 0,20 -58,0 0,-20z" />
<path style="fill:#144f4f" d="M843,97 l58,0 0,20 -58,0 0,-20z" />
<path style="fill:#144f4f" d="M843,175 l58,0 0,20 -58,0 0,-20z" />
<path style="fill:#144f4f" d="M843,136 l58,0 0,20 -58,0 0,-20z" />
<path style="fill:#144f4f" d="M843,254 l58,0 0,20 -58,0 0,-20z" />
<path style="fill:#144f4f" d="M843,215 l58,0 0,19 -58,0 0,-19z" />
<path style="fill:#144f4f" d="M843,333 l58,0 0,19 -58,0 0,-19z" />
<path style="fill:#144f4f" d="M843,293 l58,0 0,20 -58,0 0,-20z" />
<path style="fill:#144f4f" d="M843,411 l58,0 0,20 -58,0 0,-20z" />
<path style="fill:#144f4f" d="M843,372 l58,0 0,20 -58,0 0,-20z" />
<path style="fill:#144f4f" d="M843,490 l58,0 0,19 -58,0 0,-19z" />
<path style="fill:#144f4f" d="M843,450 l58,0 0,20 -58,0 0,-20z" />
<path style="fill:#527d7d;stroke:#000;stroke-width:2" d="M852,87 l0,432 40,0 0,-432 -40,0z" />
<path style="fill:#527d7d;stroke:#000;stroke-width:2" d="M106,87 l0,432 40,0 0,-432 -40,0z" />
<path style="fill:#709494" d="M852,130 l0,346 40,0 0,-346 -40,0z" />
<path style="fill:#709494" d="M106,130 l0,346 40,0 0,-346 -40,0z" />
<path style="fill:#84a3a3" d="M852,173 l0,260 40,0 0,-260 -40,0z" />
<path style="fill:#84a3a3" d="M106,173 l0,260 40,0 0,-260 -40,0z" />
<path style="fill:#aec2c2" d="M852,195 l0,216 40,0 0,-216 -40,0z" />
<path style="fill:#aec2c2" d="M106,195 l0,216 40,0 0,-216 -40,0z" />
<path style="fill:#ccd9d9" d="M852,260 l0,86 40,0 0,-86 -40,0z" />
<path style="fill:#ccd9d9" d="M106,260 l0,86 40,0 0,-86 -40,0z" />
<path style="fill:none;stroke:#000;stroke-width:2" d="M126,87 l0,432" />
<path style="fill:none;stroke:#000;stroke-width:2" d="M872,87 l0,432" />
<path style="fill:#7f7f7f" d="M662,421 l7,0 14,-3 13,-6 12,-8 10,-10 8,-12 5,-12 3,-15 1,-7 -2,-15 -4,-13 -7,-13 -9,-11 -10,-8 -13,-8 -14,-4 -14,-1 0,62 8,5 1,10 -3,5 -6,2 0,62z" />
<path style="fill:#7f7f7f" d="M537,265 l0,-217 63,0 0,219 0,2 2,3 8,3 52,0 0,62 -52,0 -29,-5 -23,-16 -15,-23 -6,-28z" />
<path style="fill:#7f7f7f" d="M336,358 l326,0 0,63 -326,0 0,-63z" />
<path style="fill:#7f7f7f" d="M336,421 l-7,0 -14,-3 -13,-6 -12,-8 -10,-10 -8,-12 -5,-12 -3,-15 -1,-7 2,-15 4,-13 7,-13 9,-11 10,-8 13,-8 14,-4 14,-1 0,62 -8,5 -1,10 3,5 6,2 0,62z" />
<path style="fill:#7f7f7f" d="M461,265 l0,-217 -63,0 0,219 0,2 -2,3 -8,3 -52,0 0,62 52,0 29,-5 23,-16 15,-23 6,-28z" />
<path style="fill:#7f7f7f" d="M741,557 l0,-58 62,0 0,58 -62,0z" />
<path style="fill:#7f7f7f" d="M731,578 l0,-21 82,0 0,21 -82,0z" />
<path style="fill:#7f7f7f" d="M195,557 l0,-58 62,0 0,58 -62,0z" />
<path style="fill:#7f7f7f;stroke:#000;stroke-width:2" d="M185,578 l0,-21 82,0 0,21 -82,0z" />
<path style="fill:#999" d="M662,417 l7,0 13,-3 13,-5 10,-8 10,-9 7,-11 6,-13 2,-13 1,-7 -2,-15 -4,-12 -6,-12 -9,-10 -10,-8 -12,-7 -12,-4 -14,-1 0,54 10,5 4,6 0,7 -4,7 -7,4 -3,0 0,55z" />
<path style="fill:#999" d="M610,333 l-7,0 -26,-8 -20,-16 -13,-24 -3,-13 0,-224 54,0 0,217 5,10 10,4 52,0 0,54 -52,0z" />
<path style="fill:#999" d="M336,362 l326,0 0,55 -326,0 0,-55z" />
<path style="fill:#999" d="M336,417 l-7,0 -13,-3 -13,-5 -10,-8 -10,-9 -7,-11 -6,-13 -2,-13 -1,-7 2,-15 4,-12 6,-12 9,-10 10,-8 12,-7 12,-4 14,-1 0,54 -10,5 -4,6 0,7 4,7 7,4 3,0 0,55z" />
<path style="fill:#999" d="M388,333 l7,0 26,-8 20,-16 13,-24 3,-13 0,-224 -54,0 0,217 -5,10 -10,4 -52,0 0,54 52,0z" />
<path style="fill:#999" d="M744,557 l0,-58 56,0 0,58 -56,0z" />
<path style="fill:#999" d="M736,578 l0,-21 73,0 0,21 -73,0z" />
<path style="fill:#999" d="M198,557 l0,-58 56,0 0,58 -56,0z" />
<path style="fill:#999" d="M190,578 l0,-21 73,0 0,21 -73,0z" />
<path style="fill:#b2b2b2" d="M662,284 l0,43 11,4 7,9 2,12 -3,8 -10,7 -7,1 0,43 12,-1 12,-4 11,-6 9,-7 8,-10 6,-10 3,-13 2,-12 -2,-13 -3,-12 -6,-10 -8,-10 -9,-8 -11,-5 -12,-4 -12,-2z" />
<path style="fill:#b2b2b2" d="M610,327 l52,0 0,-42 -52,0 -12,-3 -6,-6 -3,-11 0,-217 -42,0 0,217 2,12 3,12 6,11 7,9 10,7 11,6 11,3 13,2z" />
<path style="fill:#b2b2b2" d="M336,369 l326,0 0,41 -326,0 0,-41z" />
<path style="fill:#b2b2b2" d="M336,284 l0,43 -11,4 -7,9 -2,12 3,8 10,7 7,1 0,43 -12,-1 -12,-4 -11,-6 -9,-7 -8,-10 -6,-10 -3,-13 -2,-12 2,-13 3,-12 6,-10 8,-10 9,-8 11,-5 12,-4 12,-2z" />
<path style="fill:#b2b2b2" d="M388,327 l-52,0 0,-42 52,0 12,-3 6,-6 3,-11 0,-217 42,0 0,217 -2,12 -3,12 -6,11 -7,9 -10,7 -11,6 -11,3 -13,2z" />
<path style="fill:#b2b2b2" d="M752,557 l0,-58 41,0 0,58 -41,0z" />
<path style="fill:#b2b2b2" d="M745,578 l0,-21 54,0 0,21 -54,0z" />
<path style="fill:#b2b2b2" d="M206,557 l0,-58 41,0 0,58 -41,0z" />
<path style="fill:#b2b2b2" d="M199,578 l0,-21 54,0 0,21 -54,0z" />
<path style="fill:#ccc" d="M662,404 l11,-1 11,-3 9,-5 8,-7 7,-9 6,-9 3,-10 1,-6 0,-12 -3,-10 -1,-6 -6,-10 -7,-8 -8,-7 -9,-5 -11,-3 -5,-2 -6,0 0,30 10,1 9,6 6,9 2,11 -2,11 -6,8 -9,6 -10,3 0,28z" />
<path style="fill:#ccc" d="M610,321 l-11,-2 -11,-3 -9,-5 -9,-7 -7,-9 -5,-9 -3,-10 -1,-6 0,-222 29,0 0,217 1,10 6,9 9,6 11,2 52,0 0,29 -52,0z" />
<path style="fill:#ccc" d="M336,376 l326,0 0,28 -326,0 0,-28z" />
<path style="fill:#ccc" d="M336,404 l-11,-1 -11,-3 -9,-5 -8,-7 -7,-9 -6,-9 -3,-10 -1,-6 0,-12 3,-10 1,-6 6,-10 7,-8 8,-7 9,-5 11,-3 5,-2 6,0 0,30 -10,1 -9,6 -6,9 -2,11 2,11 6,8 9,6 10,3 0,28z" />
<path style="fill:#ccc" d="M388,321 l11,-2 11,-3 9,-5 9,-7 7,-9 5,-9 3,-10 1,-6 0,-222 -29,0 0,217 -1,10 -6,9 -9,6 -11,2 -52,0 0,29 52,0z" />
<path style="fill:#ccc" d="M758,557 l0,-58 29,0 0,58 -29,0z" />
<path style="fill:#ccc" d="M753,578 l0,-21 38,0 0,21 -38,0z" />
<path style="fill:#ccc" d="M212,557 l0,-58 29,0 0,58 -29,0z" />
<path style="fill:#ccc" d="M207,578 l0,-21 38,0 0,21 -38,0z" />
<path style="fill:#e5e5e5" d="M662,399 l0,-18 12,-3 11,-7 7,-10 2,-13 -2,-13 -7,-10 -11,-7 -12,-3 0,-18 10,1 10,3 8,4 8,7 6,7 5,9 2,10 1,5 0,10 -2,10 -4,9 -5,9 -7,6 -8,6 -10,3 -9,2 -5,1z" />
<path style="fill:#e5e5e5" d="M610,315 l52,0 0,-18 -52,0 -13,-2 -10,-7 -7,-11 -3,-12 0,-217 -18,0 0,222 2,10 4,9 5,8 7,7 9,5 9,4 10,2 5,0z" />
<path style="fill:#e5e5e5" d="M336,380 l326,0 0,18 -326,0 0,-18z" />
<path style="fill:#e5e5e5" d="M336,399 l0,-18 -12,-3 -11,-7 -7,-10 -2,-13 2,-13 7,-10 11,-7 12,-3 0,-18 -10,1 -10,3 -8,4 -8,7 -6,7 -5,9 -2,10 -1,5 0,10 2,10 4,9 5,9 7,6 8,6 10,3 9,2 5,1z" />
<path style="fill:#e5e5e5" d="M388,315 l-52,0 0,-18 52,0 13,-2 10,-7 7,-11 3,-12 0,-217 18,0 0,222 -2,10 -4,9 -5,8 -7,7 -9,5 -9,4 -10,2 -5,0z" />
<path style="fill:#e5e5e5" d="M763,557 l0,-58 18,0 0,58 -18,0z" />
<path style="fill:#e5e5e5" d="M760,578 l0,-21 24,0 0,21 -24,0z" />
<path style="fill:#e5e5e5" d="M217,557 l0,-58 18,0 0,58 -18,0z" />
<path style="fill:#e5e5e5" d="M214,578 l0,-21 24,0 0,21 -24,0z" />
<path style="fill:#fff" d="M662,394 l0,-8 14,-3 12,-8 9,-12 2,-15 -2,-15 -9,-12 -12,-8 -14,-3 0,-7 9,0 9,3 7,4 7,6 5,6 5,8 2,9 1,9 -1,9 -2,9 -5,8 -5,6 -7,6 -7,4 -9,3 -9,1z" />
<path style="fill:#fff" d="M610,310 l-5,0 -9,-2 -8,-3 -7,-5 -9,-10 -4,-8 -3,-9 -1,-8 0,-217 8,0 0,217 3,14 8,12 12,8 15,3 52,0 0,8 -52,0z" />
<path style="fill:#fff" d="M336,386 l326,0 0,7 -326,0 0,-7z" />
<path style="fill:#fff" d="M336,394 l0,-8 -14,-3 -12,-8 -9,-12 -2,-15 2,-15 9,-12 12,-8 14,-3 0,-7 -9,0 -9,3 -7,4 -7,6 -5,6 -5,8 -2,9 -1,9 1,9 2,9 5,8 5,6 7,6 7,4 9,3 9,1z" />
<path style="fill:#fff" d="M388,310 l5,0 9,-2 8,-3 7,-5 9,-10 4,-8 3,-9 1,-8 0,-217 -8,0 0,217 -3,14 -8,12 -12,8 -15,3 -52,0 0,8 52,0z" />
<path style="fill:#fff" d="M768,557 l0,-58 8,0 0,58 -8,0z" />
<path style="fill:#fff" d="M767,578 l0,-21 10,0 0,21 -10,0z" />
<path style="fill:#fff" d="M222,557 l0,-58 8,0 0,58 -8,0z" />
<path style="fill:#fff" d="M221,578 l0,-21 10,0 0,21 -10,0z" />
<path style="fill:none;stroke:#000;stroke-width:2" d="M195,557 l0,-58 62,0 0,58 -62,0" />
<path style="fill:none;stroke:#000;stroke-width:2" d="M731,578 l0,-21 82,0 0,21 -82,0" />
<path style="fill:none;stroke:#000;stroke-width:2" d="M741,557 l0,-58 62,0 0,58 -62,0" />
<path style="fill:none;stroke:#000;stroke-width:2" d="M662,337 l-52,0 -8,0 -7,-1 -7,-2 -7,-2 -6,-3 -6,-4 -6,-4 -5,-5 -4,-5 -4,-6 -4,-6 -3,-6 -3,-7 -2,-7 -1,-7 0,-7 0,-217" />
<path style="fill:none;stroke:#000;stroke-width:2" d="M600,48 l0,217 0,2 0,2 1,1 1,2 2,1 2,1 2,1 2,0 52,0" />
<path style="fill:none;stroke:#000;stroke-width:2" d="M662,421 l7,0 14,-3 13,-6 12,-8 10,-10 8,-12 5,-12 3,-15 1,-7 -2,-15 -4,-13 -7,-13 -9,-11 -10,-8 -13,-8 -14,-4 -14,-1" />
<path style="fill:none;stroke:#000;stroke-width:2" d="M662,337 l2,0 2,1 2,1 1,1 1,2 1,2 1,2 0,2 0,2 -1,2 -1,2 -1,1 -1,2 -2,1 -2,0 -2,1" />
<path style="fill:none;stroke:#000;stroke-width:2" d="M336,337 l52,0 8,0 7,-1 7,-2 7,-2 6,-3 6,-4 6,-4 5,-5 4,-5 4,-6 4,-6 3,-6 3,-7 2,-7 1,-7 0,-7 0,-217" />
<path style="fill:none;stroke:#000;stroke-width:2" d="M398,48 l0,217 0,2 0,2 -1,1 -1,2 -2,1 -2,1 -2,1 -2,0 -52,0" />
<path style="fill:none;stroke:#000;stroke-width:2" d="M336,421 l-7,0 -14,-3 -13,-6 -12,-8 -10,-10 -8,-12 -5,-12 -3,-15 -1,-7 2,-15 4,-13 7,-13 9,-11 10,-8 13,-8 14,-4 14,-1" />
<path style="fill:none;stroke:#000;stroke-width:2" d="M336,337 l-2,0 -1,1 -3,1 -1,1 -1,2 -1,2 -1,2 0,2 0,2 1,2 1,2 1,1 1,2 3,1 1,0 2,1" />
<path style="fill:none;stroke:#000;stroke-width:2" d="M336,421 l326,0" />
<path style="fill:none;stroke:#000;stroke-width:2" d="M662,358 l-326,0" />
<path style="fill:#7f7f7f;stroke:#000;stroke-width:2" d="M527,49 l0,-21 83,0 0,21 -83,0z" />
<path style="fill:#7f7f7f;stroke:#000;stroke-width:2" d="M388,49 l0,-21 83,0 0,21 -83,0z" />
<path style="fill:#999" d="M532,49 l0,-21 73,0 0,21 -73,0z" />
<path style="fill:#999" d="M393,49 l0,-21 73,0 0,21 -73,0z" />
<path style="fill:#b2b2b2" d="M541,49 l0,-21 55,0 0,21 -55,0z" />
<path style="fill:#b2b2b2" d="M403,49 l0,-21 54,0 0,21 -54,0z" />
<path style="fill:#ccc" d="M550,49 l0,-21 37,0 0,21 -37,0z" />
<path style="fill:#ccc" d="M411,49 l0,-21 38,0 0,21 -38,0z" />
<path style="fill:#e5e5e5" d="M556,49 l0,-21 24,0 0,21 -24,0z" />
<path style="fill:#e5e5e5" d="M417,49 l0,-21 25,0 0,21 -25,0z" />
<path style="fill:#fff" d="M563,49 l0,-21 10,0 0,21 -10,0z" />
<path style="fill:#fff" d="M425,49 l0,-21 10,0 0,21 -10,0z" />

</svg>
