 

<svg xmlns:agg="http://www.example.com" xmlns="http://www.w3.org/2000/svg" preserveAspectRatio="none" width="1.0072in" height="1.0750in" viewBox="0 0 936 999">

<path style="fill:#666;stroke:#000;stroke-width:2" d="M457,233 l0,-41 144,-83 307,0 0,41 -122,0 -42,83 -287,0z" />
<path style="fill:#999;stroke:#000;stroke-width:2" d="M786,150 l-21,-21 0,-39 21,-21 0,-41 60,0 0,20 -19,0 0,21 19,0 21,21 0,39 -21,21 -60,0z" />
<path style="fill:#999;stroke:#000;stroke-width:2" d="M663,150 l-21,-21 0,-39 21,-21 0,-41 61,0 0,20 -21,0 0,21 21,0 20,21 0,39 -20,21 -61,0z" />
<path style="fill:#333" d="M437,889 l430,0 0,40 -430,0 0,-40z" />
<path style="fill:#4c4c4c" d="M437,233 l430,0 0,656 -430,0 0,-656z" />
<path style="fill:#545454" d="M439,252 l428,0 0,617 -428,0 0,-617z" />
<path style="fill:#5c5c5c" d="M439,271 l428,0 0,579 -428,0 0,-579z" />
<path style="fill:#636363" d="M439,290 l428,0 0,541 -428,0 0,-541z" />
<path style="fill:#6b6b6b" d="M439,309 l428,0 0,503 -428,0 0,-503z" />
<path style="fill:#757575" d="M439,328 l428,0 0,463 -428,0 0,-463z" />
<path style="fill:#7d7d7d" d="M439,348 l428,0 0,425 -428,0 0,-425z" />
<path style="fill:#858585" d="M439,367 l428,0 0,387 -428,0 0,-387z" />
<path style="fill:#8c8c8c" d="M439,386 l428,0 0,349 -428,0 0,-349z" />
<path style="fill:#949494" d="M439,405 l428,0 0,311 -428,0 0,-311z" />
<path style="fill:#9c9c9c" d="M439,424 l428,0 0,271 -428,0 0,-271z" />
<path style="fill:#a3a3a3" d="M439,444 l428,0 0,232 -428,0 0,-232z" />
<path style="fill:#ababab" d="M439,463 l428,0 0,194 -428,0 0,-194z" />
<path style="fill:#b5b5b5" d="M439,482 l428,0 0,157 -428,0 0,-157z" />
<path style="fill:#bdbdbd" d="M439,501 l428,0 0,119 -428,0 0,-119z" />
<path style="fill:#c4c4c4" d="M439,520 l428,0 0,79 -428,0 0,-79z" />
<path style="fill:#ccc" d="M437,541 l430,0 0,39 -430,0 0,-39z" />
<path style="fill:none;stroke:#000;stroke-width:2" d="M437,233 l430,0 0,656 -430,0 0,-656" />
<path style="fill:#7f7f7f;stroke:#000;stroke-width:2" d="M806,129 l40,0 0,800 -40,0 0,-800z" />
<path style="fill:#ccc" d="M820,129 l13,0 0,800 -13,0 0,-800z" />
<path style="fill:#666" d="M28,129 l429,0 0,227 -429,0 0,-227z" />
<path style="fill:#ccc" d="M46,356 l391,0 0,573 -391,0 0,-573z" />
<path style="fill:#c7c7c7" d="M46,763 l391,-240 0,406 -391,0 0,-166z" />
<path style="fill:#c2c2c2" d="M46,787 l391,-239 0,381 -391,0 0,-142z" />
<path style="fill:#bdbdbd" d="M46,823 l391,-241 0,347 -391,0 0,-106z" />
<path style="fill:none;stroke:#000;stroke-width:2" d="M46,356 l391,0 0,573 -391,0 0,-573" />
<path style="fill:#757575" d="M28,143 l429,0 0,199 -429,0 0,-199z" />
<path style="fill:#858585" d="M28,156 l429,0 0,173 -429,0 0,-173z" />
<path style="fill:#969696" d="M28,167 l429,0 0,149 -429,0 0,-149z" />
<path style="fill:#a6a6a6" d="M28,180 l429,0 0,125 -429,0 0,-125z" />
<path style="fill:#b5b5b5" d="M28,194 l429,0 0,98 -429,0 0,-98z" />
<path style="fill:#c4c4c4" d="M28,207 l429,0 0,72 -429,0 0,-72z" />
<path style="fill:#d6d6d6" d="M28,220 l429,0 0,45 -429,0 0,-45z" />
<path style="fill:#e5e5e5" d="M28,233 l429,0 0,19 -429,0 0,-19z" />
<path style="fill:#ccc" d="M539,273 l286,0 0,432 -286,0 0,-432z" />
<path style="fill:#c7c7c7" d="M539,578 l286,-179 0,306 -286,0 0,-127z" />
<path style="fill:#c2c2c2" d="M539,597 l286,-179 0,287 -286,0 0,-108z" />
<path style="fill:#bdbdbd" d="M539,623 l286,-179 0,261 -286,0 0,-82z" />
<path style="fill:none;stroke:#000;stroke-width:2" d="M539,273 l286,0 0,432 -286,0 0,-432" />
<path style="fill:#333" d="M703,314 l83,0 0,164 -83,0 0,-164z" />
<path style="fill:#e5e5e5" d="M684,684 l-38,-38 38,-38 38,38 -38,38z" />
<path style="fill:#b2b2b2" d="M580,561 l206,0 0,21 -206,0 0,-21z" />
<path style="fill:#666" d="M595,363 l-15,-13 15,-15 13,15 -13,13z" />
<path style="fill:#666" d="M627,363 l-13,-13 13,-15 15,15 -15,13z" />
<path style="fill:#999" d="M595,397 l-15,-15 15,-13 13,13 -13,15z" />
<path style="fill:#999" d="M627,397 l-13,-15 13,-13 15,13 -15,15z" />
<path style="fill:#999" d="M595,437 l-15,-13 15,-16 13,16 -13,13z" />
<path style="fill:#999" d="M627,437 l-13,-13 13,-16 15,16 -15,13z" />
<path style="fill:none;stroke:#666;stroke-width:2" d="M395,356 l0,-227" />
<path style="fill:#4c4c4c;stroke:#000;stroke-width:2" d="M323,129 l0,-30 -9,0 0,-9 51,0 0,9 -9,0 0,30 -33,0z" />
<path style="fill:#a6a6a6" d="M252,663 l164,0 0,245 -164,0 0,-245z" />
<path style="fill:#b2b2b2" d="M192,416 l224,0 0,125 -224,0 0,-125z" />
<path style="fill:#b2b2b2" d="M88,478 l83,0 0,430 -83,0 0,-430z" />
<path style="fill:#b2b2b2" d="M28,929 l860,0 0,41 -860,0 0,-41z" />
<path style="fill:#999" d="M28,950 l860,0 0,20 -860,0 0,-20z" />
<path style="fill:none;stroke:#000;stroke-width:2" d="M28,929 l860,0 0,41 -860,0 0,-41" />
<path style="fill:none;stroke:#b2b2b2;stroke-width:2" d="M252,806 l-41,-101 0,-164" />
<path style="fill:none;stroke:#999;stroke-width:2" d="M684,499 l122,0 0,-206" />
<path style="fill:none;stroke:#999;stroke-width:2" d="M416,377 l-347,0 0,531" />
<path style="fill:none;stroke:#fff;stroke-width:2" d="M684,499 l0,-206 122,0" />
<path style="fill:none;stroke:#fff;stroke-width:2" d="M150,701 l185,-117" />
<path style="fill:none;stroke:#fff;stroke-width:2" d="M129,735 l227,-144" />
<path style="fill:none;stroke:#fff;stroke-width:2" d="M109,787 l266,-167" />
<path style="fill:none;stroke:#fff;stroke-width:2" d="M416,377 l0,531 -347,0" />
<path style="fill:none;stroke:#000;stroke-width:2" d="M28,129 l429,0 0,227 -429,0 0,-227" />
<path style="fill:#7f7f7f;stroke:#000;stroke-width:2" d="M437,416 l102,0 0,21 -102,0 0,-21z" />
<path style="fill:#7f7f7f;stroke:#000;stroke-width:2" d="M437,478 l102,0 0,21 -102,0 0,-21z" />
<path style="fill:#7f7f7f;stroke:#000;stroke-width:2" d="M457,171 l349,0 0,21 -349,0 0,-21z" />
<path style="fill:none;stroke:#000;stroke-width:2" d="M437,541 l41,184 61,81 82,42 103,21 82,0" />
<path style="fill:#999;stroke:#000;stroke-width:2" d="M539,705 l0,224 41,0 41,-224 -82,0z" />
<path style="fill:#999;stroke:#000;stroke-width:2" d="M827,705 l0,224 -41,0 -42,-224 83,0z" />
<path style="fill:#b2b2b2;stroke:#000;stroke-width:2" d="M99,129 l-11,-22 11,-59 25,0 11,59 -11,22 -25,0z" />
<path style="fill:#b2b2b2;stroke:#000;stroke-width:2" d="M156,129 l-11,-22 11,-59 24,0 12,59 -12,22 -24,0z" />

</svg>
