 

<svg xmlns:agg="http://www.example.com" xmlns="http://www.w3.org/2000/svg" preserveAspectRatio="none" width="1.6083in" height="1.0127in" viewBox="0 0 999 629">

<path style="fill:#c93" d="M116,45 l49,0 0,35 -49,0 0,-35z" />
<path style="fill:#c93" d="M116,182 l49,0 0,36 -49,0 0,-36z" />
<path style="fill:#c93" d="M116,410 l49,0 0,34 -49,0 0,-34z" />
<path style="fill:#c93" d="M116,546 l49,0 0,36 -49,0 0,-36z" />
<path style="fill:#c93" d="M904,273 l66,0 0,83 -66,0 0,-83z" />
<path style="fill:#d1a34a" d="M904,278 l66,0 0,72 -66,0 0,-72z" />
<path style="fill:#d9b366" d="M116,552 l49,0 0,24 -49,0 0,-24z" />
<path style="fill:#d9b366" d="M118,414 l47,0 0,27 -47,0 0,-27z" />
<path style="fill:#d9b366" d="M116,188 l49,0 0,25 -49,0 0,-25z" />
<path style="fill:#d9b366" d="M116,50 l49,0 0,25 -49,0 0,-25z" />
<path style="fill:#d9b366" d="M906,284 l64,0 0,59 -64,0 0,-59z" />
<path style="fill:#debd7d" d="M904,290 l66,0 0,47 -66,0 0,-47z" />
<path style="fill:#e5cb98" d="M116,557 l49,0 0,15 -49,0 0,-15z" />
<path style="fill:#e5cb98" d="M118,420 l47,0 0,15 -47,0 0,-15z" />
<path style="fill:#e5cb98" d="M116,194 l49,0 0,13 -49,0 0,-13z" />
<path style="fill:#e5cb98" d="M116,56 l49,0 0,15 -49,0 0,-15z" />
<path style="fill:#e5cb98" d="M906,296 l64,0 0,35 -64,0 0,-35z" />
<path style="fill:#ebd7b0" d="M904,303 l66,0 0,22 -66,0 0,-22z" />
<path style="fill:#f2e5cc" d="M904,309 l66,0 0,11 -66,0 0,-11z" />
<path style="fill:#f2e5cc" d="M116,563 l49,0 0,4 -49,0 0,-4z" />
<path style="fill:#f2e5cc" d="M116,62 l49,0 0,3 -49,0 0,-3z" />
<path style="fill:#f2e5cc" d="M116,197 l49,0 0,6 -49,0 0,-6z" />
<path style="fill:#f2e5cc" d="M116,426 l49,0 0,3 -49,0 0,-3z" />
<path style="fill:#596666" d="M165,601 l0,-573 95,0 0,71 454,0 24,-24 72,0 23,24 24,166 47,0 0,96 -47,0 -24,168 -23,23 -72,0 -24,-23 -454,0 0,72 -95,0z" />
<path style="fill:#999" d="M47,28 l69,0 0,573 -69,0 0,-573z" />
<path style="fill:#637070" d="M165,567 l0,-507 97,0 0,64 452,0 24,-23 72,0 23,23 24,147 49,0 0,85 -49,0 -24,147 -23,22 -72,0 -24,-22 -452,0 0,64 -97,0z" />
<path style="fill:#6b7878" d="M165,535 l0,-443 97,0 0,56 452,0 24,-18 72,0 23,18 24,129 49,0 0,73 -49,0 -24,128 -23,19 -72,0 -24,-19 -452,0 0,57 -97,0z" />
<path style="fill:#758282" d="M165,501 l0,-375 97,0 0,47 452,0 24,-17 72,0 23,17 24,109 49,0 0,62 -49,0 -24,110 -23,17 -72,0 -24,-17 -452,0 0,47 -97,0z" />
<path style="fill:#7f8c8c" d="M165,469 l0,-311 97,0 0,39 452,0 24,-13 72,0 23,13 24,91 49,0 0,51 -49,0 -24,90 -23,13 -72,0 -24,-13 -452,0 0,40 -97,0z" />
<path style="fill:#899696" d="M165,435 l0,-243 97,0 0,30 452,0 24,-11 72,0 23,11 24,72 49,0 0,39 -49,0 -24,72 -23,11 -72,0 -24,-11 -452,0 0,30 -97,0z" />
<path style="fill:#919e9e" d="M165,403 l0,-179 97,0 0,22 452,0 24,-7 72,0 23,7 24,53 49,0 0,28 -49,0 -24,53 -23,8 -72,0 -24,-8 -452,0 0,23 -97,0z" />
<path style="fill:#9ba8a8" d="M165,371 l0,-113 97,0 0,13 452,0 24,-6 72,0 23,6 24,34 49,0 0,17 -49,0 -24,34 -23,5 -72,0 -24,-5 -452,0 0,15 -97,0z" />
<path style="fill:#a5b2b2" d="M165,337 l0,-47 95,0 0,6 454,0 24,-2 72,0 23,2 24,15 47,0 0,7 -47,0 -24,13 -23,2 -72,0 -24,-2 -454,0 0,6 -95,0z" />
<path style="fill:#a3a3a3" d="M47,60 l71,0 0,507 -71,0 0,-507z" />
<path style="fill:#ababab" d="M47,92 l71,0 0,443 -71,0 0,-443z" />
<path style="fill:#b5b5b5" d="M47,126 l71,0 0,375 -71,0 0,-375z" />
<path style="fill:#bfbfbf" d="M47,158 l71,0 0,311 -71,0 0,-311z" />
<path style="fill:#c9c9c9" d="M47,192 l71,0 0,243 -71,0 0,-243z" />
<path style="fill:#d1d1d1" d="M47,224 l71,0 0,179 -71,0 0,-179z" />
<path style="fill:#dbdbdb" d="M47,258 l71,0 0,113 -71,0 0,-113z" />
<path style="fill:#e5e5e5" d="M47,290 l69,0 0,47 -69,0 0,-47z" />
<path style="fill:none;stroke:#596666;stroke-width:2" d="M714,505 l0,-383" />
<path style="fill:#f2e5cc;stroke:#000;stroke-width:2" d="M28,171 l19,0 0,24 -19,0 0,-24z" />
<path style="fill:#f2e5cc;stroke:#000;stroke-width:2" d="M28,33 l19,0 0,25 -19,0 0,-25z" />
<path style="fill:#f2e5cc;stroke:#000;stroke-width:2" d="M28,535 l19,0 0,24 -19,0 0,-24z" />
<path style="fill:#f2e5cc;stroke:#000;stroke-width:2" d="M28,397 l19,0 0,25 -19,0 0,-25z" />
<path style="fill:#f2e5cc;stroke:#000;stroke-width:2" d="M260,171 l18,0 0,24 -18,0 0,-24z" />
<path style="fill:#f2e5cc;stroke:#000;stroke-width:2" d="M260,33 l18,0 0,25 -18,0 0,-25z" />
<path style="fill:#f2e5cc;stroke:#000;stroke-width:2" d="M260,535 l18,0 0,24 -18,0 0,-24z" />
<path style="fill:#f2e5cc;stroke:#000;stroke-width:2" d="M260,397 l18,0 0,25 -18,0 0,-25z" />
<path style="fill:#c93;stroke:#000;stroke-width:2" d="M260,559 l18,0 0,34 -18,0 0,-34z" />
<path style="fill:#c93;stroke:#000;stroke-width:2" d="M260,422 l18,0 0,36 -18,0 0,-36z" />
<path style="fill:#c93;stroke:#000;stroke-width:2" d="M260,195 l18,0 0,34 -18,0 0,-34z" />
<path style="fill:#c93;stroke:#000;stroke-width:2" d="M260,58 l18,0 0,36 -18,0 0,-36z" />
<path style="fill:#c93;stroke:#000;stroke-width:2" d="M28,559 l19,0 0,34 -19,0 0,-34z" />
<path style="fill:#c93;stroke:#000;stroke-width:2" d="M28,422 l19,0 0,36 -19,0 0,-36z" />
<path style="fill:#c93;stroke:#000;stroke-width:2" d="M28,195 l19,0 0,34 -19,0 0,-34z" />
<path style="fill:#c93;stroke:#000;stroke-width:2" d="M28,58 l19,0 0,36 -19,0 0,-36z" />
<path style="fill:#69f" d="M331,505 l0,-240 336,0 0,240 -336,0z" />
<path style="fill:#e5e5e5" d="M344,373 l0,-95 310,0 0,95 -310,0z" />
<path style="fill:#b2b2b2" d="M344,499 l0,-60 310,0 0,60 -310,0z" />
<path style="fill:#ccc" d="M344,427 l0,-5 227,0 0,5 -227,0z" />
<path style="fill:#ccc" d="M344,416 l0,-8 310,0 0,8 -310,0z" />
<path style="fill:#ccc" d="M344,403 l0,-6 310,0 0,6 -310,0z" />
<path style="fill:#ccc" d="M344,392 l0,-6 310,0 0,6 -310,0z" />
<path style="fill:none;stroke:#000;stroke-width:2" d="M260,529 l0,-430" />
<path style="fill:none;stroke:#000;stroke-width:2" d="M116,410 l49,0 0,34 -49,0 0,-34" />
<path style="fill:none;stroke:#000;stroke-width:2" d="M116,546 l49,0 0,36 -49,0 0,-36" />
<path style="fill:none;stroke:#000;stroke-width:2" d="M116,182 l49,0 0,36 -49,0 0,-36" />
<path style="fill:none;stroke:#000;stroke-width:2" d="M116,45 l49,0 0,35 -49,0 0,-35" />
<path style="fill:none;stroke:#000;stroke-width:2" d="M904,273 l66,0 0,83 -66,0 0,-83" />
<path style="fill:none;stroke:#000;stroke-width:2" d="M165,601 l0,-573 95,0 0,71 454,0 24,-24 72,0 23,24 24,166 47,0 0,96 -47,0 -24,168 -23,23 -72,0 -24,-23 -454,0 0,72 -95,0" />
<path style="fill:none;stroke:#000;stroke-width:2" d="M47,28 l69,0 0,573 -69,0 0,-573" />

</svg>
