 

<svg xmlns:agg="http://www.example.com" xmlns="http://www.w3.org/2000/svg" preserveAspectRatio="none" width="1.2190in" height="1.0750in" viewBox="0 0 999 881">

<path style="fill:#000" d="M813,141 l0,-30 -628,0 0,187 599,0 0,122 -599,0 0,197 599,0 0,127 -599,0 0,30 628,0 0,-187 -599,0 0,-137 599,0 0,-182 -599,0 0,-127 599,0z" />
<path style="fill:#0ff;stroke:#000;stroke-width:2" d="M872,852 l37,-6 33,-22 21,-33 7,-37 -7,-37 -21,-33 -33,-21 -37,-7 -746,0 -22,-4 -20,-13 -13,-20 -4,-22 4,-22 13,-20 20,-13 22,-3 746,0 37,-8 33,-21 21,-33 7,-37 -7,-37 -21,-33 -33,-21 -37,-7 -746,0 -22,-4 -20,-13 -13,-20 -4,-22 4,-22 13,-20 20,-13 22,-4 746,0 37,-7 33,-21 21,-33 7,-37 -7,-37 -21,-33 -33,-21 -37,-7 -844,0 0,39 844,0 22,4 20,12 13,20 4,23 -4,22 -13,20 -42,17 -746,0 -37,7 -33,21 -21,33 -7,37 7,37 21,33 33,21 37,8 746,0 23,3 19,13 13,20 4,22 -4,22 -13,20 -19,13 -23,4 -746,0 -37,7 -33,21 -21,33 -7,37 7,37 21,33 33,21 37,7 746,0 23,4 19,13 13,20 4,22 -4,22 -13,21 -19,12 -23,4 -844,0 0,39 844,0z" />

</svg>
