 

<svg xmlns:agg="http://www.example.com" xmlns="http://www.w3.org/2000/svg" preserveAspectRatio="none" width="1.0750in" height="1.0750in" viewBox="0 0 999 999">

<path style="fill:#f2e5cc" d="M28,28 l942,0 0,942 -942,0 0,-942z" />
<path style="fill:#ede0c7" d="M28,697 l942,-394 0,667 -942,0 0,-273z" />
<path style="fill:#e8dbc2" d="M28,737 l942,-395 0,628 -942,0 0,-233z" />
<path style="fill:#e3d6bd" d="M28,795 l942,-394 0,569 -942,0 0,-175z" />
<path style="fill:none;stroke:#000;stroke-width:2" d="M28,28 l942,0 0,942 -942,0 0,-942" />
<path style="fill:#333" d="M47,47 l904,0 0,354 -904,0 0,-354z" />
<path style="fill:#000" d="M86,86 l826,0 0,275 -826,0 0,-275z" />
<path style="fill:none;stroke:#666;stroke-width:2" d="M86,361 l826,0 0,-275" />
<path style="fill:none;stroke:#4c4c4c;stroke-width:2" d="M144,107 l0,196" />
<path style="fill:none;stroke:#4c4c4c;stroke-width:2" d="M165,144 l0,178" />
<path style="fill:none;stroke:#4c4c4c;stroke-width:2" d="M263,126 l0,137" />
<path style="fill:none;stroke:#4c4c4c;stroke-width:2" d="M371,139 l0,20" />
<path style="fill:none;stroke:#4c4c4c;stroke-width:2" d="M401,144 l0,159" />
<path style="fill:none;stroke:#4c4c4c;stroke-width:2" d="M480,126 l0,117" />
<path style="fill:none;stroke:#4c4c4c;stroke-width:2" d="M676,126 l0,156" />
<path style="fill:none;stroke:#4c4c4c;stroke-width:2" d="M774,165 l0,138" />
<path style="fill:none;stroke:#4c4c4c;stroke-width:2" d="M793,126 l0,117" />
<path style="fill:none;stroke:#4c4c4c;stroke-width:2" d="M872,165 l0,138" />
<path style="fill:none;stroke:#4c4c4c;stroke-width:2" d="M126,243 l254,0" />
<path style="fill:none;stroke:#4c4c4c;stroke-width:2" d="M380,165 l177,0" />
<path style="fill:none;stroke:#4c4c4c;stroke-width:2" d="M518,205 l177,0" />
<path style="fill:none;stroke:#4c4c4c;stroke-width:2" d="M656,322 l177,0" />
<path style="fill:none;stroke:#4c4c4c;stroke-width:2" d="M774,303 l117,0" />
<path style="fill:none;stroke:#4c4c4c;stroke-width:2" d="M735,126 l79,0" />
<path style="fill:none;stroke:#ccbfa6;stroke-width:2" d="M931,499 l0,432 -864,0" />
<path style="fill:none;stroke:#998c73;stroke-width:2" d="M67,931 l0,-432 864,0 0,-77" />
<path style="fill:#998c73" d="M47,872 l60,0 0,19 -60,0 0,-19z" />
<path style="fill:#998c73" d="M891,872 l60,0 0,19 -60,0 0,-19z" />
<path style="fill:#998c73" d="M67,426 l10,0 0,9 -10,0 0,-9z" />
<path style="fill:#998c73" d="M67,469 l10,0 0,9 -10,0 0,-9z" />
<path style="fill:#998c73" d="M916,426 l9,0 0,9 -9,0 0,-9z" />
<path style="fill:#998c73" d="M916,469 l9,0 0,9 -9,0 0,-9z" />

</svg>
