 

<svg xmlns:agg="http://www.example.com" xmlns="http://www.w3.org/2000/svg" preserveAspectRatio="none" width="1.0072in" height="1.0750in" viewBox="0 0 936 999">

<path style="fill:#ccc;stroke:#000;stroke-width:2" d="M846,906 l0,-878 -628,0 0,126 -126,0 0,628 126,0 0,124 628,0z" />
<path style="fill:none;stroke:#7f7f7f;stroke-width:2" d="M846,782 l-628,0 0,-628 628,0" />
<path style="fill:#4c4c4c;stroke:#000;stroke-width:2" d="M192,876 l0,94 -21,0 0,-94 21,0z" />
<path style="fill:#4c4c4c;stroke:#000;stroke-width:2" d="M893,876 l0,94 -21,0 0,-94 21,0z" />
<path style="fill:#b2b2b2;stroke:#000;stroke-width:2" d="M154,906 l0,32 754,0 0,-32 -754,0z" />
<path style="fill:#4c4c4c;stroke:#000;stroke-width:2" d="M122,128 l-94,0 0,-19 94,0 0,19z" />
<path style="fill:#4c4c4c;stroke:#000;stroke-width:2" d="M122,829 l-94,0 0,-21 94,0 0,21z" />
<path style="fill:#b2b2b2;stroke:#000;stroke-width:2" d="M92,92 l-32,0 0,752 32,0 0,-752z" />
<path style="fill:#bfbfbf" d="M831,169 l-295,295 295,297 0,-592z" />
<path style="fill:#ccc" d="M241,169 l295,295 -295,297 0,-592z" />
<path style="fill:#b2b2b2" d="M241,171 l295,293 297,-293 -592,0z" />
<path style="fill:#d9d9d9" d="M241,761 l295,-297 297,297 -592,0z" />

</svg>
