 

<svg xmlns:agg="http://www.example.com" xmlns="http://www.w3.org/2000/svg" preserveAspectRatio="none" width="0.9910in" height="1.0750in" viewBox="0 0 920 998">

<path style="fill:#000" d="M28,970 l670,0 194,-110 0,-15 -194,110 -670,0 0,15z" />
<path style="fill:#f2f2e5" d="M28,955 l0,-671 670,0 0,671 -670,0z" />
<path style="fill:#fcfcfa;stroke:#000;stroke-width:2" d="M96,90 l125,-62 671,0 -126,62 -670,0z" />
<path style="fill:#e5e5cc;stroke:#000;stroke-width:2" d="M756,101 l-48,178 -10,5 0,671 194,-110 0,-817 -126,63 0,5 -10,5z" />
<path style="fill:#eaeadd" d="M28,944 l0,-255 670,-342 0,597 -670,0z" />
<path style="fill:#e0e0d3" d="M28,955 l0,-182 670,-342 0,524 -670,0z" />
<path style="fill:#d8d8cb" d="M28,955 l0,-119 670,-342 0,461 -670,0z" />
<path style="fill:#900" d="M28,619 l0,-83 670,0 0,83 -670,0z" />
<path style="fill:#f00" d="M28,703 l0,-84 670,0 0,84 -670,0z" />
<path style="fill:#fc0" d="M28,787 l0,-84 670,0 0,84 -670,0z" />
<path style="fill:none;stroke:#000;stroke-width:2" d="M28,955 l0,-671 670,0 0,671 -670,0" />
<path style="fill:none;stroke:#7f7f66;stroke-width:2" d="M766,96 l0,817" />
<path style="fill:none;stroke:#7f7f66;stroke-width:2" d="M829,59 l0,822" />
<path style="fill:#ffffb2" d="M714,284 l0,42 36,-21 0,-41 -36,20z" />
<path style="fill:#f7f7f0;stroke:#000;stroke-width:2" d="M38,279 l47,-178 11,-5 0,-5 670,0 0,5 -10,5 -48,178 -10,5 -670,0 10,-5z" />
<path style="fill:none;stroke:#000;stroke-width:2" d="M85,101 l671,0" />
<path style="fill:none;stroke:#000;stroke-width:2" d="M96,96 l670,0" />
<path style="fill:none;stroke:#000;stroke-width:2" d="M38,279 l670,0" />
<path style="fill:#000" d="M247,829 l231,0 0,21 -231,0 0,-21z" />
<path style="fill:#000" d="M300,871 l126,0 0,10 -126,0 0,-10z" />
<ellipse style="fill:#000" cx="362" cy="397" rx="167" ry="45" />
<path style="fill:#000" d="M258,258 l37,-125 209,0 -36,125 -210,0z" />
<path style="fill:#f2f2f2" d="M284,237 l24,-83 168,0 -24,83 -168,0z" />
<path style="fill:#4c4c4c" d="M300,228 l19,-66 82,0 -19,66 -82,0z" />
<path style="fill:#ff7f7f" d="M401,201 l11,-37 45,0 -11,37 -45,0z" />

</svg>
