 

<svg xmlns:agg="http://www.example.com" xmlns="http://www.w3.org/2000/svg" preserveAspectRatio="none" width="0.8210in" height="1.0750in" viewBox="0 0 763 999">

<path style="fill:#7f7f7f" d="M86,47 l590,0 0,903 -590,0 0,-903z" />
<path style="fill:#7a7a7a" d="M105,47 l554,0 0,903 -554,0 0,-903z" />
<path style="fill:#787878" d="M122,47 l520,0 0,903 -520,0 0,-903z" />
<path style="fill:#737373" d="M139,47 l486,0 0,903 -486,0 0,-903z" />
<path style="fill:#6e6e6e" d="M156,47 l450,0 0,903 -450,0 0,-903z" />
<path style="fill:#6b6b6b" d="M173,47 l417,0 0,903 -417,0 0,-903z" />
<path style="fill:#666" d="M190,47 l383,0 0,903 -383,0 0,-903z" />
<path style="fill:#616161" d="M207,47 l349,0 0,903 -349,0 0,-903z" />
<path style="fill:#5e5e5e" d="M226,47 l313,0 0,903 -313,0 0,-903z" />
<path style="fill:#595959" d="M243,47 l278,0 0,903 -278,0 0,-903z" />
<path style="fill:#545454" d="M260,47 l245,0 0,903 -245,0 0,-903z" />
<path style="fill:#525252" d="M276,47 l212,0 0,903 -212,0 0,-903z" />
<path style="fill:#4c4c4c" d="M293,47 l176,0 0,903 -176,0 0,-903z" />
<path style="fill:#ccc" d="M676,950 l0,20 -590,0 0,-20 590,0z" />
<path style="fill:#ccc" d="M676,342 l0,19 -590,0 0,-19 590,0z" />
<path style="fill:#ccc" d="M676,28 l0,19 -590,0 0,-19 590,0z" />
<path style="fill:#ccc" d="M695,28 l0,942 -19,0 0,-942 19,0z" />
<path style="fill:#ccc" d="M371,47 l21,0 0,295 -21,0 0,-295z" />
<path style="fill:#ccc" d="M67,28 l19,0 0,942 -19,0 0,-942z" />
<path style="fill:#ccc" d="M382,361 l292,295 -292,294 -294,-294 294,-295z" />
<path style="fill:#ccc;stroke:#000;stroke-width:2" d="M695,67 l40,0 0,166 -40,0 0,-166z" />
<path style="fill:none;stroke:#000;stroke-width:2" d="M695,37 l-628,0" />
<path style="fill:none;stroke:#000;stroke-width:2" d="M86,361 l590,0 0,589 -590,0 0,-589" />
<path style="fill:none;stroke:#000;stroke-width:2" d="M392,47 l284,0 0,295 -284,0 0,-295" />
<path style="fill:none;stroke:#000;stroke-width:2" d="M86,47 l285,0 0,295 -285,0 0,-295" />
<path style="fill:none;stroke:#000;stroke-width:2" d="M67,28 l628,0 0,942 -628,0 0,-942" />
<path style="fill:none;stroke:#000;stroke-width:2" d="M695,961 l-628,0" />
<path style="fill:none;stroke:#000;stroke-width:2" d="M725,67 l0,166" />
<path style="fill:none;stroke:#000;stroke-width:2" d="M380,950 l0,20" />
<path style="fill:none;stroke:#000;stroke-width:2" d="M67,656 l19,0" />
<path style="fill:none;stroke:#000;stroke-width:2" d="M676,656 l19,0" />
<path style="fill:none;stroke:#000;stroke-width:2" d="M380,361 l0,-19" />
<path style="fill:none;stroke:#000;stroke-width:2" d="M382,361 l292,295 -292,294 -294,-294 294,-295" />
<path style="fill:#4c4c4c" d="M144,107 l159,0 0,235 -159,0 0,-235z" />
<path style="fill:#595959" d="M147,122 l156,0 0,219 -156,0 0,-219z" />
<path style="fill:#666" d="M147,137 l156,0 0,204 -156,0 0,-204z" />
<path style="fill:#737373" d="M147,152 l156,0 0,189 -156,0 0,-189z" />
<path style="fill:#7f7f7f" d="M147,169 l156,0 0,172 -156,0 0,-172z" />
<path style="fill:#8c8c8c" d="M147,184 l156,0 0,157 -156,0 0,-157z" />
<path style="fill:#999" d="M147,199 l156,0 0,142 -156,0 0,-142z" />
<path style="fill:#a6a6a6" d="M147,216 l156,0 0,125 -156,0 0,-125z" />
<path style="fill:#b2b2b2" d="M147,231 l156,0 0,110 -156,0 0,-110z" />
<path style="fill:#bfbfbf" d="M147,263 l156,0 0,78 -156,0 0,-78z" />
<path style="fill:none;stroke:#000;stroke-width:2" d="M144,107 l159,0 0,235 -159,0 0,-235" />
<path style="fill:#fff" d="M382,382 l274,274 -274,275 -275,-275 275,-274z" />
<path style="fill:#fafafa" d="M656,656 l-274,275 -137,-138 411,-137z" />
<path style="fill:#f5f5f5" d="M587,725 l-205,206 -103,-102 308,-104z" />
<path style="fill:#4c4c4c;stroke:#000;stroke-width:2" d="M429,107 l217,0 0,235 -217,0 0,-235z" />
<path style="fill:#4c4c4c" d="M28,578 l39,0 0,236 -39,0 0,-236z" />
<path style="fill:#4c4c4c;stroke:#000;stroke-width:2" d="M28,107 l39,0 0,196 -39,0 0,-196z" />
<path style="fill:#5c5c5c" d="M431,118 l215,0 0,211 -215,0 0,-211z" />
<path style="fill:#5c5c5c" d="M28,590 l39,0 0,211 -39,0 0,-211z" />
<path style="fill:#5c5c5c" d="M28,116 l39,0 0,176 -39,0 0,-176z" />
<path style="fill:#6b6b6b" d="M431,130 l215,0 0,186 -215,0 0,-186z" />
<path style="fill:#6b6b6b" d="M28,601 l39,0 0,187 -39,0 0,-187z" />
<path style="fill:#6b6b6b" d="M28,126 l39,0 0,156 -39,0 0,-156z" />
<path style="fill:#7d7d7d" d="M431,143 l215,0 0,162 -215,0 0,-162z" />
<path style="fill:#7d7d7d" d="M28,614 l39,0 0,162 -39,0 0,-162z" />
<path style="fill:#7d7d7d" d="M28,137 l39,0 0,134 -39,0 0,-134z" />
<path style="fill:#8c8c8c" d="M431,156 l215,0 0,136 -215,0 0,-136z" />
<path style="fill:#8c8c8c" d="M28,627 l39,0 0,136 -39,0 0,-136z" />
<path style="fill:#8c8c8c" d="M28,147 l39,0 0,115 -39,0 0,-115z" />
<path style="fill:#9c9c9c" d="M431,167 l215,0 0,113 -215,0 0,-113z" />
<path style="fill:#9c9c9c" d="M28,639 l39,0 0,113 -39,0 0,-113z" />
<path style="fill:#9c9c9c" d="M28,158 l39,0 0,92 -39,0 0,-92z" />
<path style="fill:#ababab" d="M431,180 l215,0 0,87 -215,0 0,-87z" />
<path style="fill:#ababab" d="M28,167 l39,0 0,74 -39,0 0,-74z" />
<path style="fill:#ababab" d="M28,652 l39,0 0,86 -39,0 0,-86z" />
<path style="fill:#bdbdbd" d="M431,192 l215,0 0,64 -215,0 0,-64z" />
<path style="fill:#bdbdbd" d="M28,663 l39,0 0,64 -39,0 0,-64z" />
<path style="fill:#bdbdbd" d="M28,177 l39,0 0,54 -39,0 0,-54z" />
<path style="fill:#ccc" d="M429,214 l217,0 0,19 -217,0 0,-19z" />
<path style="fill:#ccc" d="M28,196 l39,0 0,17 -39,0 0,-17z" />
<path style="fill:#ccc" d="M28,686 l39,0 0,19 -39,0 0,-19z" />
<path style="fill:none;stroke:#000;stroke-width:2" d="M28,578 l39,0 0,236 -39,0 0,-236" />

</svg>
