 

<svg xmlns:agg="http://www.example.com" xmlns="http://www.w3.org/2000/svg" preserveAspectRatio="none" width="1.6083in" height="0.9450in" viewBox="0 0 999 587">

<path style="fill:#4c4c4c" d="M141,480 l0,78 716,0 0,-78 -716,0z" />
<path style="fill:#5e5e5e" d="M195,480 l0,78 608,0 0,-78 -608,0z" />
<path style="fill:#6e6e6e" d="M249,480 l0,78 500,0 0,-78 -500,0z" />
<path style="fill:#7f7f7f" d="M303,480 l0,78 392,0 0,-78 -392,0z" />
<path style="fill:#919191" d="M357,480 l0,78 284,0 0,-78 -284,0z" />
<path style="fill:#a1a1a1" d="M411,480 l0,78 176,0 0,-78 -176,0z" />
<path style="fill:#b2b2b2" d="M465,480 l0,78 68,0 0,-78 -68,0z" />
<path style="fill:#666;stroke:#000;stroke-width:2" d="M28,480 l19,-53 30,-57 44,-48 64,-19 0,-98 15,-59 24,-59 30,-39 49,-20 392,0 54,20 25,39 24,59 15,59 0,98 63,19 45,48 30,57 19,53 -942,0z" />
<path style="fill:#7a7a7a" d="M99,480 l16,-53 26,-58 38,-47 54,-19 0,-98 12,-59 21,-59 25,-39 42,-20 333,0 46,20 21,39 20,59 13,59 0,98 54,19 38,47 25,58 16,53 -800,0z" />
<path style="fill:#919191" d="M170,480 l14,-53 21,-58 31,-47 44,-19 0,-98 10,-59 17,-59 21,-39 34,-20 274,0 38,20 17,39 17,59 11,59 0,98 44,19 31,47 21,58 13,53 -658,0z" />
<path style="fill:#a6a6a6" d="M241,480 l11,-53 16,-58 25,-47 34,-19 0,-98 8,-59 14,-59 16,-39 27,-20 215,0 29,20 13,39 14,59 8,59 0,98 35,19 24,47 17,58 10,53 -516,0z" />
<path style="fill:#bababa" d="M313,480 l7,-53 12,-58 18,-47 25,-19 0,-98 6,-59 10,-59 11,-39 19,-20 156,0 22,20 9,39 10,59 6,59 0,98 25,19 17,47 12,58 8,53 -373,0z" />
<path style="fill:#d1d1d1" d="M384,480 l4,-53 8,-58 11,-47 15,-19 0,-98 4,-59 6,-59 7,-39 12,-20 96,0 14,20 6,39 6,59 3,59 0,98 16,19 11,47 7,58 5,53 -231,0z" />
<path style="fill:#e5e5e5" d="M455,480 l2,-53 2,-57 5,-48 5,-19 0,-98 2,-59 2,-59 3,-39 4,-20 38,0 5,20 2,39 2,59 2,59 0,98 5,19 5,48 2,57 2,53 -88,0z" />
<path style="fill:none;stroke:#000;stroke-width:2" d="M185,205 l628,0" />
<path style="fill:none;stroke:#000;stroke-width:2" d="M190,303 l623,0" />
<path style="fill:none;stroke:#000;stroke-width:2" d="M28,480 l19,-53 30,-57 44,-48 64,-19 0,-98 15,-59 24,-59 30,-39 49,-20 392,0 54,20 25,39 24,59 15,59 0,98 63,19 45,48 30,57 19,53 -942,0" />
<path style="fill:none;stroke:#000;stroke-width:2" d="M141,480 l0,78 716,0 0,-78 -716,0" />

</svg>
