 

<svg xmlns:agg="http://www.example.com" xmlns="http://www.w3.org/2000/svg" preserveAspectRatio="none" width="0.5466in" height="1.0750in" viewBox="0 0 508 999">

<path style="fill:#ccc;stroke:#000;stroke-width:2" d="M405,970 l75,-37 0,-905 -75,37 0,905z" />
<path style="fill:#f2f2f2;stroke:#000;stroke-width:2" d="M28,65 l414,0 0,905 -414,0 0,-905z" />
<path style="fill:#f2f2f2;stroke:#000;stroke-width:2" d="M65,103 l340,0 0,490 -340,0 0,-490z" />
<path style="fill:#e5e5e5;stroke:#000;stroke-width:2" d="M65,593 l340,0 0,340 -340,0 0,-340z" />
<path style="fill:#666;stroke:#000;stroke-width:2" d="M84,612 l302,0 0,302 -302,0 0,-302z" />
<path style="fill:#d9d9d9" d="M94,622 l137,0 0,18 -137,0 0,-18z" />
<path style="fill:#d9d9d9" d="M94,659 l137,0 0,19 -137,0 0,-19z" />
<path style="fill:#d9d9d9" d="M94,697 l137,0 0,19 -137,0 0,-19z" />
<path style="fill:#d9d9d9" d="M94,735 l137,0 0,18 -137,0 0,-18z" />
<path style="fill:#d9d9d9" d="M94,772 l137,0 0,19 -137,0 0,-19z" />
<path style="fill:#d9d9d9" d="M94,810 l137,0 0,19 -137,0 0,-19z" />
<path style="fill:#d9d9d9" d="M94,848 l137,0 0,19 -137,0 0,-19z" />
<path style="fill:#d9d9d9" d="M94,885 l137,0 0,19 -137,0 0,-19z" />
<path style="fill:#d9d9d9" d="M239,622 l137,0 0,18 -137,0 0,-18z" />
<path style="fill:#d9d9d9" d="M239,659 l137,0 0,19 -137,0 0,-19z" />
<path style="fill:#d9d9d9" d="M239,697 l137,0 0,19 -137,0 0,-19z" />
<path style="fill:#d9d9d9" d="M239,735 l137,0 0,18 -137,0 0,-18z" />
<path style="fill:#d9d9d9" d="M239,772 l137,0 0,19 -137,0 0,-19z" />
<path style="fill:#d9d9d9" d="M239,810 l137,0 0,19 -137,0 0,-19z" />
<path style="fill:#d9d9d9" d="M239,848 l137,0 0,19 -137,0 0,-19z" />
<path style="fill:#d9d9d9" d="M239,885 l137,0 0,19 -137,0 0,-19z" />
<circle style="fill:#7f7f7f;stroke:#000;stroke-width:2" cx="235" cy="197" r="56" />
<path style="fill:#fff" d="M235,197 l-47,14 0,-14 1,-9 3,-9 4,-9 6,-7 7,-6 8,-5 8,-3 10,-1 10,1 9,3 8,5 8,6 6,7 4,9 3,9 1,9 -1,10 -1,4 -47,-14z" />
<path style="fill:#f00" d="M196,179 l79,0 0,11 -79,0 0,-11z" />
<path style="fill:#0f0" d="M222,179 l28,0 0,11 -28,0 0,-11z" />
<path style="fill:none;stroke:#000;stroke-width:2" d="M229,199 l0,0 0,-1 0,0 0,-1 1,-2 1,-2 2,-1 2,0 3,0 2,1 0,2 1,2 0,1 0,0 0,1 0,0" />
<path style="fill:#000;stroke:#000;stroke-width:2" d="M235,192 l2,-30 0,30 -2,0z" />
<path style="fill:#ff7f7f" d="M150,599 l47,0 0,9 -47,0 0,-9z" />
<path style="fill:#0f0" d="M188,301 l151,0 0,10 -151,0 0,-10z" />
<path style="fill:#333" d="M188,320 l70,0 0,6 -70,0 0,-6z" />
<path style="fill:#333" d="M188,329 l70,0 0,6 -70,0 0,-6z" />
<path style="fill:#0f0;stroke:#ccc;stroke-width:2" d="M179,311 l-48,-29 0,29 48,0z" />
<path style="fill:#fff;stroke:#ccc;stroke-width:2" d="M131,282 l48,29 0,-29 -48,0z" />
<path style="fill:#fff;stroke:#000;stroke-width:2" d="M480,28 l-75,37 -340,0 76,-37 339,0z" />
<path style="fill:#4c4c4c" d="M297,518 l-7,-2 -3,-7 3,-7 7,-3 7,3 2,7 -2,7 -7,2z" />
<path style="fill:#4c4c4c" d="M297,479 l-7,-3 -3,-7 3,-6 7,-3 7,3 2,6 -2,7 -7,3z" />
<path style="fill:#4c4c4c" d="M297,440 l-7,-3 -3,-7 3,-7 7,-3 7,3 2,7 -2,7 -7,3z" />
<path style="fill:#4c4c4c" d="M297,401 l-7,-3 -3,-7 3,-7 7,-3 7,3 2,7 -2,7 -7,3z" />
<path style="fill:#4c4c4c" d="M297,361 l-7,-2 -3,-7 3,-7 7,-3 7,3 2,7 -2,7 -7,2z" />

</svg>
