 

<svg xmlns:agg="http://www.example.com" xmlns="http://www.w3.org/2000/svg" preserveAspectRatio="none" width="1.6083in" height="0.9917in" viewBox="0 0 999 616">

<path style="fill:#b2ccb2;stroke:#000;stroke-width:2" d="M450,28 l19,0 0,9 -19,0 0,-9z" />
<path style="fill:#b2ccb2" d="M28,37 l863,0 0,551 -863,0 0,-551z" />
<path style="fill:#adc7ad" d="M28,427 l863,-230 0,391 -863,0 0,-161z" />
<path style="fill:#a8c2a8" d="M28,452 l863,-230 0,366 -863,0 0,-136z" />
<path style="fill:#a3bda3" d="M28,486 l863,-230 0,332 -863,0 0,-102z" />
<path style="fill:none;stroke:#000;stroke-width:2" d="M28,37 l863,0 0,551 -863,0 0,-551" />
<path style="fill:none;stroke:#7f997f;stroke-width:2" d="M558,47 l97,0 0,482 -97,0 0,-482" />
<path style="fill:none;stroke:#7f997f;stroke-width:2" d="M440,47 l99,0 0,482 -99,0 0,-482" />
<path style="fill:none;stroke:#7f997f;stroke-width:2" d="M224,47 l196,0 0,482 -196,0 0,-482" />
<path style="fill:none;stroke:#98b298;stroke-width:2" d="M28,47 l863,0" />
<path style="fill:#cbe5cb" d="M667,58 l215,0 0,147 -215,0 0,-147z" />
<path style="fill:#bfd9bf" d="M667,224 l215,0 0,-19 -215,0 0,19z" />
<path style="fill:#5b755b" d="M667,312 l215,0 0,-79 -215,0 0,79z" />
<path style="fill:#5b755b" d="M667,420 l215,0 0,-77 -215,0 0,77z" />
<path style="fill:#6b856b" d="M667,420 l215,0 0,-68 -215,0 0,68z" />
<path style="fill:#6b856b" d="M667,312 l215,0 0,-67 -215,0 0,67z" />
<path style="fill:#7c967c" d="M667,312 l215,0 0,-58 -215,0 0,58z" />
<path style="fill:#7c967c" d="M667,420 l215,0 0,-59 -215,0 0,59z" />
<path style="fill:#8ca68c" d="M667,420 l215,0 0,-49 -215,0 0,49z" />
<path style="fill:#8ca68c" d="M667,312 l215,0 0,-49 -215,0 0,49z" />
<path style="fill:#9bb59b" d="M667,420 l215,0 0,-40 -215,0 0,40z" />
<path style="fill:#9bb59b" d="M667,312 l215,0 0,-39 -215,0 0,39z" />
<path style="fill:#aac4aa" d="M667,312 l215,0 0,-30 -215,0 0,30z" />
<path style="fill:#aac4aa" d="M667,420 l215,0 0,-29 -215,0 0,29z" />
<path style="fill:#bcd6bc" d="M667,440 l215,0 0,-39 -215,0 0,39z" />
<path style="fill:#bcd6bc" d="M667,331 l215,0 0,-37 -215,0 0,37z" />
<path style="fill:#cbe5cb" d="M667,312 l215,0 0,-9 -215,0 0,9z" />
<path style="fill:#cbe5cb" d="M667,420 l215,0 0,-10 -215,0 0,10z" />
<path style="fill:#4c664c" d="M667,459 l215,0 0,-19 -215,0 0,19z" />
<path style="fill:#4c664c" d="M667,312 l9,-79 196,0 10,79 0,-88 -215,0 0,88z" />
<path style="fill:#4c664c" d="M667,420 l9,-77 196,0 10,77 0,-89 -215,0 0,89z" />
<path style="fill:none;stroke:#000;stroke-width:2" d="M667,58 l215,0 0,382 -215,0 0,-382" />
<path style="fill:none;stroke:#000;stroke-width:2" d="M667,224 l215,0" />
<path style="fill:none;stroke:#000;stroke-width:2" d="M667,331 l215,0" />
<path style="fill:#7f997f" d="M184,548 l79,0 0,19 -79,0 0,-19z" />
<path style="fill:#7f997f" d="M655,548 l80,0 0,19 -80,0 0,-19z" />
<path style="fill:none;stroke:#657f65;stroke-width:2" d="M214,459 l19,0 0,-19" />
<path style="fill:none;stroke:#657f65;stroke-width:2" d="M214,135 l19,0 0,-19" />
<path style="fill:none;stroke:#657f65;stroke-width:2" d="M431,459 l19,0 0,-19" />
<path style="fill:none;stroke:#657f65;stroke-width:2" d="M431,135 l19,0 0,-19" />
<path style="fill:none;stroke:#657f65;stroke-width:2" d="M548,459 l21,0 0,-19" />
<path style="fill:none;stroke:#657f65;stroke-width:2" d="M548,135 l21,0 0,-19" />
<path style="fill:none;stroke:#fff;stroke-width:2" d="M548,459 l0,-19 21,0" />
<path style="fill:none;stroke:#fff;stroke-width:2" d="M548,135 l0,-19 21,0" />
<path style="fill:none;stroke:#fff;stroke-width:2" d="M431,459 l0,-19 19,0" />
<path style="fill:none;stroke:#fff;stroke-width:2" d="M431,135 l0,-19 19,0" />
<path style="fill:none;stroke:#fff;stroke-width:2" d="M214,459 l0,-19 19,0" />
<path style="fill:none;stroke:#fff;stroke-width:2" d="M214,135 l0,-19 19,0" />
<path style="fill:#fff" d="M48,67 l147,0 0,29 -147,0 0,-29z" />
<path style="fill:#fff" d="M597,77 l21,0 0,39 -21,0 0,-39z" />
<path style="fill:#fff" d="M480,77 l19,0 0,39 -19,0 0,-39z" />
<path style="fill:#fff" d="M312,77 l21,0 0,39 -21,0 0,-39z" />
<path style="fill:none;stroke:#f60;stroke-width:2" d="M312,86 l21,0" />
<path style="fill:none;stroke:#f60;stroke-width:2" d="M480,86 l19,0" />
<path style="fill:none;stroke:#f60;stroke-width:2" d="M597,86 l21,0" />
<path style="fill:#98b298;stroke:#000;stroke-width:2" d="M891,273 l79,0 0,39 -49,79 -30,0 0,-118z" />
<path style="fill:none;stroke:#e5ffe5;stroke-width:2" d="M28,37 l863,0" />
<path style="fill:none;stroke:#e5ffe5;stroke-width:2" d="M893,273 l77,0" />
<path style="fill:none;stroke:#e5ffe5;stroke-width:2" d="M450,28 l19,0" />

</svg>
