 

<svg xmlns:agg="http://www.example.com" xmlns="http://www.w3.org/2000/svg" preserveAspectRatio="none" width="1.6083in" height="0.7792in" viewBox="0 0 999 484">

<path style="fill:#366;stroke:#000;stroke-width:2" d="M28,416 l0,19 39,21 864,0 39,-21 0,-19 -39,0 0,-353 -864,0 0,353 -39,0z" />
<path style="fill:#ccc" d="M542,82 l370,0 0,177 -370,0 0,-177z" />
<path style="fill:#ccc" d="M86,82 l368,0 0,177 -368,0 0,-177z" />
<path style="fill:#b2b2b2" d="M793,88 l113,0 0,166 -113,0 0,-166z" />
<path style="fill:#b2b2b2" d="M670,88 l114,0 0,166 -114,0 0,-166z" />
<path style="fill:#b2b2b2" d="M548,88 l113,0 0,166 -113,0 0,-166z" />
<path style="fill:#b2b2b2" d="M337,88 l113,0 0,166 -113,0 0,-166z" />
<path style="fill:#b2b2b2" d="M214,88 l114,0 0,166 -114,0 0,-166z" />
<path style="fill:#b2b2b2" d="M92,88 l113,0 0,166 -113,0 0,-166z" />
<path style="fill:#fff" d="M916,88 l9,0 0,102 -9,0 0,-102z" />
<path style="fill:#fff" d="M493,97 l12,0 0,102 -12,0 0,-102z" />
<path style="fill:#fff" d="M71,88 l11,0 0,102 -11,0 0,-102z" />
<path style="fill:none;stroke:#9cc;stroke-width:2" d="M523,82 l0,315 -48,0" />
<path style="fill:none;stroke:#9cc;stroke-width:2" d="M906,278 l0,117 -364,0" />
<path style="fill:none;stroke:#9cc;stroke-width:2" d="M454,278 l0,117 -362,0" />
<path style="fill:none;stroke:#033;stroke-width:2" d="M523,82 l-48,0 0,315" />
<path style="fill:#033" d="M542,278 l364,0 0,119 -364,0 0,-119z" />
<path style="fill:#033" d="M92,278 l362,0 0,119 -362,0 0,-119z" />
<path style="fill:none;stroke:#000;stroke-width:2" d="M542,397 l0,-119 364,0" />
<path style="fill:none;stroke:#000;stroke-width:2" d="M92,397 l0,-119 362,0" />
<path style="fill:#001919" d="M420,435 l34,0 0,5 -34,0 0,-5z" />
<path style="fill:#001919" d="M542,435 l36,0 0,5 -36,0 0,-5z" />
<path style="fill:#666" d="M331,97 l6,0 0,4 -6,0 0,-4z" />
<path style="fill:#666" d="M331,239 l6,0 0,5 -6,0 0,-5z" />
<path style="fill:#666" d="M331,171 l6,0 0,6 -6,0 0,-6z" />
<path style="fill:#666" d="M205,97 l4,0 0,4 -4,0 0,-4z" />
<path style="fill:#666" d="M205,239 l4,0 0,5 -4,0 0,-5z" />
<path style="fill:#666" d="M205,171 l4,0 0,6 -4,0 0,-6z" />
<path style="fill:#666" d="M86,97 l6,0 0,4 -6,0 0,-4z" />
<path style="fill:#666" d="M86,239 l6,0 0,5 -6,0 0,-5z" />
<path style="fill:#666" d="M86,171 l6,0 0,6 -6,0 0,-6z" />
<path style="fill:#666" d="M450,97 l4,0 0,4 -4,0 0,-4z" />
<path style="fill:#666" d="M450,239 l4,0 0,5 -4,0 0,-5z" />
<path style="fill:#666" d="M450,171 l4,0 0,6 -4,0 0,-6z" />
<path style="fill:#666" d="M789,97 l4,0 0,4 -4,0 0,-4z" />
<path style="fill:#666" d="M789,239 l4,0 0,5 -4,0 0,-5z" />
<path style="fill:#666" d="M789,171 l4,0 0,6 -4,0 0,-6z" />
<path style="fill:#666" d="M661,97 l6,0 0,4 -6,0 0,-4z" />
<path style="fill:#666" d="M661,239 l6,0 0,5 -6,0 0,-5z" />
<path style="fill:#666" d="M661,171 l6,0 0,6 -6,0 0,-6z" />
<path style="fill:#666" d="M544,97 l4,0 0,4 -4,0 0,-4z" />
<path style="fill:#666" d="M544,239 l4,0 0,5 -4,0 0,-5z" />
<path style="fill:#666" d="M544,171 l4,0 0,6 -4,0 0,-6z" />
<path style="fill:#666" d="M906,97 l6,0 0,4 -6,0 0,-4z" />
<path style="fill:#666" d="M906,239 l6,0 0,5 -6,0 0,-5z" />
<path style="fill:#666" d="M906,171 l6,0 0,6 -6,0 0,-6z" />
<path style="fill:#366" d="M342,278 l10,0 0,119 -10,0 0,-119z" />
<path style="fill:#366" d="M646,278 l10,0 0,119 -10,0 0,-119z" />
<path style="fill:#001919" d="M391,284 l38,0 0,107 -38,0 0,-107z" />
<path style="fill:#001919" d="M352,308 l39,0 0,69 -39,0 0,-69z" />
<path style="fill:#001919" d="M269,308 l73,0 0,69 -73,0 0,-69z" />
<path style="fill:#001919" d="M116,324 l153,0 0,67 -153,0 0,-67z" />
<path style="fill:#001919" d="M799,333 l73,0 0,58 -73,0 0,-58z" />
<path style="fill:#001919" d="M759,299 l40,0 0,78 -40,0 0,-78z" />
<path style="fill:#001919" d="M656,324 l103,0 0,67 -103,0 0,-67z" />
<path style="fill:#001919" d="M544,308 l68,0 0,69 -68,0 0,-69z" />
<path style="fill:#001919" d="M569,377 l62,0 0,14 -62,0 0,-14z" />
<path style="fill:#4c7f7f;stroke:#000;stroke-width:2" d="M254,446 l0,-413 490,0 0,413 -19,0 0,-394 -452,0 0,394 -19,0z" />
<path style="fill:#366;stroke:#000;stroke-width:2" d="M710,28 l40,0 0,39 -30,0 -10,-9 0,-30z" />
<path style="fill:#366;stroke:#000;stroke-width:2" d="M248,67 l0,-39 40,0 0,30 -10,9 -30,0z" />

</svg>
