 
<svg xmlns:agg="http://www.example.com"    version="1.1" id="图层_1" xmlns="http://www.w3.org/2000/svg" xmlns:xlink="http://www.w3.org/1999/xlink" x="0px" y="0px"
	 width="64px" height="64px" viewBox="0 0 64 64" enable-background="new 0 0 64 64" xml:space="preserve">
<g>
	<polygon fill-rule="evenodd" clip-rule="evenodd" fill="#040000" points="32,7.515 41.049,7.515 41.049,7.515 	"/>
	
		<rect x="32" y="7.515" fill="none" stroke="#040000" stroke-linecap="round" stroke-linejoin="round" stroke-miterlimit="10" width="9.049" height="0"/>
	<polygon fill-rule="evenodd" clip-rule="evenodd" fill="#040000" points="32,7.515 32,11.225 41.049,11.225 	"/>
	<polygon fill="none" stroke="#040000" stroke-linecap="round" stroke-linejoin="round" stroke-miterlimit="10" points="32,7.515 
		32,11.225 41.049,11.225 32,7.515 	"/>
	<polygon fill-rule="evenodd" clip-rule="evenodd" fill="#040000" points="32,7.515 41.049,7.515 41.049,11.225 	"/>
	<polygon fill="none" stroke="#040000" stroke-linecap="round" stroke-linejoin="round" stroke-miterlimit="10" points="32,7.515 
		41.049,7.515 41.049,11.225 32,7.515 	"/>
	<polygon fill-rule="evenodd" clip-rule="evenodd" fill="#040000" points="32,11.225 41.049,11.225 41.049,11.225 	"/>
	
		<rect x="32" y="11.225" fill="none" stroke="#040000" stroke-linecap="round" stroke-linejoin="round" stroke-miterlimit="10" width="9.049" height="0"/>
	<polygon fill-rule="evenodd" clip-rule="evenodd" fill="#040000" points="32,18.832 41.049,18.832 41.049,18.832 	"/>
	
		<rect x="32" y="18.832" fill="none" stroke="#040000" stroke-linecap="round" stroke-linejoin="round" stroke-miterlimit="10" width="9.049" height="0"/>
	<polygon fill-rule="evenodd" clip-rule="evenodd" fill="#040000" points="32,18.832 32,22.531 41.049,22.531 	"/>
	<polygon fill="none" stroke="#040000" stroke-linecap="round" stroke-linejoin="round" stroke-miterlimit="10" points="32,18.832 
		32,22.531 41.049,22.531 32,18.832 	"/>
	<polygon fill-rule="evenodd" clip-rule="evenodd" fill="#040000" points="32,18.832 41.049,18.832 41.049,22.531 	"/>
	<polygon fill="none" stroke="#040000" stroke-linecap="round" stroke-linejoin="round" stroke-miterlimit="10" points="32,18.832 
		41.049,18.832 41.049,22.531 32,18.832 	"/>
	<polygon fill-rule="evenodd" clip-rule="evenodd" fill="#040000" points="32,22.531 41.049,22.531 41.049,22.531 	"/>
	
		<rect x="32" y="22.531" fill="none" stroke="#040000" stroke-linecap="round" stroke-linejoin="round" stroke-miterlimit="10" width="9.049" height="0"/>
	<polygon fill-rule="evenodd" clip-rule="evenodd" fill="#040000" points="32,30.139 41.049,30.139 41.049,30.139 	"/>
	
		<rect x="32" y="30.139" fill="none" stroke="#040000" stroke-linecap="round" stroke-linejoin="round" stroke-miterlimit="10" width="9.049" height="0"/>
	<polygon fill-rule="evenodd" clip-rule="evenodd" fill="#040000" points="32,30.139 32,31.995 41.049,31.995 	"/>
	<polygon fill="none" stroke="#040000" stroke-linecap="round" stroke-linejoin="round" stroke-miterlimit="10" points="32,30.139 
		32,31.995 41.049,31.995 32,30.139 	"/>
	<polygon fill-rule="evenodd" clip-rule="evenodd" fill="#040000" points="32,30.139 41.049,30.139 41.049,31.995 	"/>
	<polygon fill="none" stroke="#040000" stroke-linecap="round" stroke-linejoin="round" stroke-miterlimit="10" points="32,30.139 
		41.049,30.139 41.049,31.995 32,30.139 	"/>
	<polygon fill-rule="evenodd" clip-rule="evenodd" fill="#040000" points="32,31.995 41.049,31.995 41.049,31.995 	"/>
	
		<rect x="32" y="31.995" fill="none" stroke="#040000" stroke-linecap="round" stroke-linejoin="round" stroke-miterlimit="10" width="9.049" height="0"/>
	<polygon fill-rule="evenodd" clip-rule="evenodd" fill="#040000" points="32,31.995 41.049,31.995 41.049,31.995 	"/>
	
		<rect x="32" y="31.995" fill="none" stroke="#040000" stroke-linecap="round" stroke-linejoin="round" stroke-miterlimit="10" width="9.049" height="0"/>
	<polygon fill-rule="evenodd" clip-rule="evenodd" fill="#040000" points="32,31.995 32,33.85 41.049,33.85 	"/>
	<polygon fill="none" stroke="#040000" stroke-linecap="round" stroke-linejoin="round" stroke-miterlimit="10" points="32,31.995 
		32,33.85 41.049,33.85 32,31.995 	"/>
	<polygon fill-rule="evenodd" clip-rule="evenodd" fill="#040000" points="32,31.995 41.049,31.995 41.049,33.85 	"/>
	<polygon fill="none" stroke="#040000" stroke-linecap="round" stroke-linejoin="round" stroke-miterlimit="10" points="32,31.995 
		41.049,31.995 41.049,33.85 32,31.995 	"/>
	<polygon fill-rule="evenodd" clip-rule="evenodd" fill="#040000" points="32,33.85 41.049,33.85 41.049,33.85 	"/>
	
		<rect x="32" y="33.85" fill="none" stroke="#040000" stroke-linecap="round" stroke-linejoin="round" stroke-miterlimit="10" width="9.049" height="0"/>
	<polygon fill-rule="evenodd" clip-rule="evenodd" fill="#040000" points="32,41.457 41.049,41.457 41.049,41.457 	"/>
	
		<rect x="32" y="41.457" fill="none" stroke="#040000" stroke-linecap="round" stroke-linejoin="round" stroke-miterlimit="10" width="9.049" height="0"/>
	<polygon fill-rule="evenodd" clip-rule="evenodd" fill="#040000" points="32,41.457 32,45.167 41.049,45.167 	"/>
	<polygon fill="none" stroke="#040000" stroke-linecap="round" stroke-linejoin="round" stroke-miterlimit="10" points="32,41.457 
		32,45.167 41.049,45.167 32,41.457 	"/>
	<polygon fill-rule="evenodd" clip-rule="evenodd" fill="#040000" points="32,41.457 41.049,41.457 41.049,45.167 	"/>
	<polygon fill="none" stroke="#040000" stroke-linecap="round" stroke-linejoin="round" stroke-miterlimit="10" points="32,41.457 
		41.049,41.457 41.049,45.167 32,41.457 	"/>
	<polygon fill-rule="evenodd" clip-rule="evenodd" fill="#040000" points="32,45.167 41.049,45.167 41.049,45.167 	"/>
	
		<rect x="32" y="45.167" fill="none" stroke="#040000" stroke-linecap="round" stroke-linejoin="round" stroke-miterlimit="10" width="9.049" height="0"/>
	<polygon fill-rule="evenodd" clip-rule="evenodd" fill="#040000" points="32,52.775 41.049,52.775 41.049,52.775 	"/>
	
		<rect x="32" y="52.775" fill="none" stroke="#040000" stroke-linecap="round" stroke-linejoin="round" stroke-miterlimit="10" width="9.049" height="0"/>
	<polygon fill-rule="evenodd" clip-rule="evenodd" fill="#040000" points="32,52.775 32,56.474 41.049,56.474 	"/>
	<polygon fill="none" stroke="#040000" stroke-linecap="round" stroke-linejoin="round" stroke-miterlimit="10" points="32,52.775 
		32,56.474 41.049,56.474 32,52.775 	"/>
	<polygon fill-rule="evenodd" clip-rule="evenodd" fill="#040000" points="32,52.775 41.049,52.775 41.049,56.474 	"/>
	<polygon fill="none" stroke="#040000" stroke-linecap="round" stroke-linejoin="round" stroke-miterlimit="10" points="32,52.775 
		41.049,52.775 41.049,56.474 32,52.775 	"/>
	<polygon fill-rule="evenodd" clip-rule="evenodd" fill="#040000" points="32,56.474 41.049,56.474 41.049,56.474 	"/>
	
		<rect x="32" y="56.474" fill="none" stroke="#040000" stroke-linecap="round" stroke-linejoin="round" stroke-miterlimit="10" width="9.049" height="0"/>
	
		<line fill="none" stroke="#040000" stroke-linecap="round" stroke-linejoin="round" stroke-miterlimit="10" x1="36.524" y1="45.167" x2="36.524" y2="52.775"/>
	
		<line fill="none" stroke="#040000" stroke-linecap="round" stroke-linejoin="round" stroke-miterlimit="10" x1="36.524" y1="33.85" x2="36.524" y2="41.457"/>
	
		<line fill="none" stroke="#040000" stroke-linecap="round" stroke-linejoin="round" stroke-miterlimit="10" x1="36.524" y1="22.531" x2="36.524" y2="30.139"/>
	
		<line fill="none" stroke="#040000" stroke-linecap="round" stroke-linejoin="round" stroke-miterlimit="10" x1="36.524" y1="11.225" x2="36.524" y2="18.832"/>
	
		<line fill="none" stroke="#040000" stroke-linecap="round" stroke-linejoin="round" stroke-miterlimit="10" x1="15.032" y1="9.37" x2="15.032" y2="54.632"/>
	
		<line fill="none" stroke="#040000" stroke-linecap="round" stroke-linejoin="round" stroke-miterlimit="10" x1="32" y1="52.775" x2="32" y2="56.474"/>
	
		<line fill="none" stroke="#040000" stroke-linecap="round" stroke-linejoin="round" stroke-miterlimit="10" x1="32" y1="52.775" x2="41.049" y2="52.775"/>
	
		<line fill="none" stroke="#040000" stroke-linecap="round" stroke-linejoin="round" stroke-miterlimit="10" x1="32" y1="56.474" x2="41.049" y2="56.474"/>
	<polyline fill="none" stroke="#040000" stroke-linecap="round" stroke-linejoin="round" stroke-miterlimit="10" points="32,49.536 
		30.682,49.714 29.451,50.219 28.397,51.03 27.596,52.084 27.08,53.314 26.904,54.632 27.08,55.947 27.596,57.178 28.397,58.229 
		29.451,59.032 30.682,59.55 32,59.725 	"/>
	
		<line fill="none" stroke="#040000" stroke-linecap="round" stroke-linejoin="round" stroke-miterlimit="10" x1="3.72" y1="54.632" x2="26.904" y2="54.632"/>
	
		<line fill="none" stroke="#040000" stroke-linecap="round" stroke-linejoin="round" stroke-miterlimit="10" x1="41.049" y1="54.632" x2="60.28" y2="54.632"/>
	
		<line fill="none" stroke="#040000" stroke-linecap="round" stroke-linejoin="round" stroke-miterlimit="10" x1="3.72" y1="31.995" x2="26.904" y2="31.995"/>
	
		<line fill="none" stroke="#040000" stroke-linecap="round" stroke-linejoin="round" stroke-miterlimit="10" x1="32" y1="30.139" x2="32" y2="33.85"/>
	
		<line fill="none" stroke="#040000" stroke-linecap="round" stroke-linejoin="round" stroke-miterlimit="10" x1="41.049" y1="31.995" x2="60.28" y2="31.995"/>
	
		<line fill="none" stroke="#040000" stroke-linecap="round" stroke-linejoin="round" stroke-miterlimit="10" x1="41.049" y1="43.312" x2="60.28" y2="43.312"/>
	
		<line fill="none" stroke="#040000" stroke-linecap="round" stroke-linejoin="round" stroke-miterlimit="10" x1="3.72" y1="43.312" x2="26.904" y2="43.312"/>
	<polyline fill="none" stroke="#040000" stroke-linecap="round" stroke-linejoin="round" stroke-miterlimit="10" points="32,26.901 
		30.682,27.076 29.451,27.582 28.397,28.394 27.596,29.447 27.08,30.677 26.904,31.995 27.08,33.312 27.596,34.541 28.397,35.595 
		29.451,36.407 30.682,36.913 32,37.089 	"/>
	<polyline fill="none" stroke="#040000" stroke-linecap="round" stroke-linejoin="round" stroke-miterlimit="10" points="32,38.219 
		30.682,38.394 29.451,38.9 28.397,39.712 27.596,40.766 27.08,41.996 26.904,43.312 27.08,44.629 27.596,45.859 28.397,46.915 
		29.451,47.725 30.682,48.23 32,48.405 	"/>
	
		<line fill="none" stroke="#040000" stroke-linecap="round" stroke-linejoin="round" stroke-miterlimit="10" x1="32" y1="30.139" x2="41.049" y2="30.139"/>
	
		<line fill="none" stroke="#040000" stroke-linecap="round" stroke-linejoin="round" stroke-miterlimit="10" x1="32" y1="33.85" x2="41.049" y2="33.85"/>
	
		<line fill="none" stroke="#040000" stroke-linecap="round" stroke-linejoin="round" stroke-miterlimit="10" x1="32" y1="45.167" x2="41.049" y2="45.167"/>
	
		<line fill="none" stroke="#040000" stroke-linecap="round" stroke-linejoin="round" stroke-miterlimit="10" x1="32" y1="41.457" x2="41.049" y2="41.457"/>
	
		<line fill="none" stroke="#040000" stroke-linecap="round" stroke-linejoin="round" stroke-miterlimit="10" x1="32" y1="41.457" x2="32" y2="45.167"/>
	
		<line fill="none" stroke="#040000" stroke-linecap="round" stroke-linejoin="round" stroke-miterlimit="10" x1="32" y1="18.832" x2="32" y2="22.531"/>
	
		<line fill="none" stroke="#040000" stroke-linecap="round" stroke-linejoin="round" stroke-miterlimit="10" x1="32" y1="18.832" x2="41.049" y2="18.832"/>
	
		<line fill="none" stroke="#040000" stroke-linecap="round" stroke-linejoin="round" stroke-miterlimit="10" x1="32" y1="22.531" x2="41.049" y2="22.531"/>
	
		<line fill="none" stroke="#040000" stroke-linecap="round" stroke-linejoin="round" stroke-miterlimit="10" x1="32" y1="11.225" x2="41.049" y2="11.225"/>
	
		<line fill="none" stroke="#040000" stroke-linecap="round" stroke-linejoin="round" stroke-miterlimit="10" x1="32" y1="7.515" x2="41.049" y2="7.515"/>
	<polyline fill="none" stroke="#040000" stroke-linecap="round" stroke-linejoin="round" stroke-miterlimit="10" points="32,15.594 
		30.682,15.758 29.451,16.274 28.397,17.087 27.596,18.141 27.08,19.37 26.904,20.688 27.08,22.005 27.596,23.234 28.397,24.288 
		29.451,25.089 30.682,25.604 32,25.781 	"/>
	<polyline fill="none" stroke="#040000" stroke-linecap="round" stroke-linejoin="round" stroke-miterlimit="10" points="32,4.275 
		30.682,4.451 29.451,4.956 28.397,5.769 27.596,6.822 27.08,8.052 26.904,9.37 27.08,10.687 27.596,11.916 28.397,12.971 
		29.451,13.782 30.682,14.287 32,14.463 	"/>
	
		<line fill="none" stroke="#040000" stroke-linecap="round" stroke-linejoin="round" stroke-miterlimit="10" x1="3.72" y1="20.688" x2="26.904" y2="20.688"/>
	
		<line fill="none" stroke="#040000" stroke-linecap="round" stroke-linejoin="round" stroke-miterlimit="10" x1="41.049" y1="20.688" x2="60.28" y2="20.688"/>
	
		<line fill="none" stroke="#040000" stroke-linecap="round" stroke-linejoin="round" stroke-miterlimit="10" x1="41.049" y1="9.37" x2="60.28" y2="9.37"/>
	
		<line fill="none" stroke="#040000" stroke-linecap="round" stroke-linejoin="round" stroke-miterlimit="10" x1="32" y1="7.515" x2="32" y2="11.225"/>
	
		<line fill="none" stroke="#040000" stroke-linecap="round" stroke-linejoin="round" stroke-miterlimit="10" x1="3.72" y1="9.37" x2="26.904" y2="9.37"/>
</g>
</svg>
