 

<svg xmlns:agg="http://www.example.com" xmlns="http://www.w3.org/2000/svg" preserveAspectRatio="none" width="0.8329in" height="1.0750in" viewBox="0 0 774 999">

<path style="fill:#ccc;stroke:#000;stroke-width:2" d="M689,895 l0,-868 -605,0 0,868 605,0z" />
<path style="fill:#d9d9d9" d="M670,878 l-567,0 284,-416 283,416z" />
<path style="fill:#bfbfbf" d="M385,462 l283,416 0,-832 -283,416z" />
<path style="fill:#b2b2b2" d="M670,46 l-567,0 284,416 283,-416z" />
<path style="fill:#4c4c4c;stroke:#000;stroke-width:2" d="M46,971 l0,-114 19,0 0,114 -19,0z" />
<path style="fill:#4c4c4c;stroke:#000;stroke-width:2" d="M706,971 l0,-114 21,0 0,114 -21,0z" />
<path style="fill:#b2b2b2;stroke:#000;stroke-width:2" d="M746,933 l0,-38 -719,0 0,38 719,0z" />

</svg>
