 

<svg xmlns:agg="http://www.example.com" xmlns="http://www.w3.org/2000/svg" preserveAspectRatio="none" width="1.0750in" height="1.0750in" viewBox="0 0 999 999">

<path style="fill:#ccc" d="M273,86 l-87,0 0,236 87,0 0,-236z" />
<path style="fill:#c7c7c7" d="M273,190 l-87,-19 0,151 87,0 0,-132z" />
<path style="fill:#c2c2c2" d="M273,203 l-87,-21 0,140 87,0 0,-119z" />
<path style="fill:#bdbdbd" d="M273,214 l-87,-19 0,127 87,0 0,-108z" />
<path style="fill:none;stroke:#000;stroke-width:2" d="M273,86 l-87,0 0,236 87,0 0,-236" />
<path style="fill:#b2b2b2" d="M970,322 l-19,0 0,-40 -20,0 0,40 -864,0 0,-40 -19,0 0,40 -20,0 0,609 20,0 0,39 19,0 0,-39 864,0 0,39 20,0 0,-39 19,0 0,-609z" />
<path style="fill:#b8b8b8" d="M970,341 l-19,0 0,-38 -20,0 0,38 -864,0 0,-38 -20,0 0,38 -19,0 0,571 19,0 0,38 20,0 0,-38 864,0 0,38 20,0 0,-38 19,0 0,-571z" />
<path style="fill:#bdbdbd" d="M970,358 l-19,0 0,-34 -20,0 0,34 -864,0 0,-34 -20,0 0,34 -19,0 0,535 19,0 0,36 20,0 0,-36 864,0 0,36 20,0 0,-36 19,0 0,-535z" />
<path style="fill:#c2c2c2" d="M970,377 l-19,0 0,-33 -20,0 0,33 -864,0 0,-33 -20,0 0,33 -19,0 0,499 19,0 0,32 20,0 0,-32 864,0 0,32 20,0 0,-32 19,0 0,-499z" />
<path style="fill:#c4c4c4" d="M970,395 l-19,0 0,-30 -20,0 0,30 -864,0 0,-30 -20,0 0,30 -19,0 0,462 19,0 0,30 20,0 0,-30 864,0 0,30 20,0 0,-30 19,0 0,-462z" />
<path style="fill:#c9c9c9" d="M970,412 l-19,0 0,-26 -20,0 0,26 -864,0 0,-26 -20,0 0,26 -19,0 0,428 19,0 0,27 20,0 0,-27 864,0 0,27 20,0 0,-27 19,0 0,-428z" />
<path style="fill:#cfcfcf" d="M970,431 l-19,0 0,-24 -20,0 0,24 -864,0 0,-24 -20,0 0,24 -19,0 0,390 19,0 0,25 20,0 0,-25 864,0 0,25 20,0 0,-25 19,0 0,-390z" />
<path style="fill:#d4d4d4" d="M970,450 l-19,0 0,-24 -20,0 0,24 -864,0 0,-24 -20,0 0,24 -19,0 0,353 19,0 0,22 20,0 0,-22 864,0 0,22 20,0 0,-22 19,0 0,-353z" />
<path style="fill:#d9d9d9" d="M970,467 l-19,0 0,-21 -20,0 0,21 -864,0 0,-21 -20,0 0,21 -19,0 0,318 19,0 0,21 20,0 0,-21 864,0 0,21 20,0 0,-21 19,0 0,-318z" />
<path style="fill:#dedede" d="M970,486 l-19,0 0,-19 -20,0 0,19 -864,0 0,-19 -20,0 0,19 -19,0 0,281 19,0 0,18 20,0 0,-18 864,0 0,18 20,0 0,-18 19,0 0,-281z" />
<path style="fill:#e3e3e3" d="M970,504 l-19,0 0,-16 -20,0 0,16 -864,0 0,-16 -20,0 0,16 -19,0 0,244 19,0 0,17 20,0 0,-17 864,0 0,17 20,0 0,-17 19,0 0,-244z" />
<path style="fill:#e8e8e8" d="M970,522 l-19,0 0,-13 -20,0 0,13 -864,0 0,-13 -20,0 0,13 -19,0 0,209 19,0 0,13 20,0 0,-13 864,0 0,13 20,0 0,-13 19,0 0,-209z" />
<path style="fill:#ebebeb" d="M970,541 l-19,0 0,-12 -20,0 0,12 -864,0 0,-12 -20,0 0,12 -19,0 0,171 19,0 0,11 20,0 0,-11 864,0 0,11 20,0 0,-11 19,0 0,-171z" />
<path style="fill:#f0f0f0" d="M970,559 l-19,0 0,-9 -20,0 0,9 -864,0 0,-9 -20,0 0,9 -19,0 0,134 19,0 0,10 20,0 0,-10 864,0 0,10 20,0 0,-10 19,0 0,-134z" />
<path style="fill:#f5f5f5" d="M970,576 l-19,0 0,-5 -20,0 0,5 -864,0 0,-5 -20,0 0,5 -19,0 0,100 19,0 0,6 20,0 0,-6 864,0 0,6 20,0 0,-6 19,0 0,-100z" />
<path style="fill:#fafafa" d="M970,595 l-19,0 0,-4 -20,0 0,4 -864,0 0,-4 -20,0 0,4 -19,0 0,62 19,0 0,4 20,0 0,-4 864,0 0,4 20,0 0,-4 19,0 0,-62z" />
<path style="fill:#fff" d="M970,614 l-19,0 0,-2 -20,0 0,2 -864,0 0,-2 -19,0 0,2 -20,0 0,26 20,0 19,0 864,0 20,0 19,0 0,-26z" />
<path style="fill:none;stroke:#000;stroke-width:2" d="M970,322 l-19,0 0,-40 -20,0 0,40 -864,0 0,-40 -19,0 0,40 -20,0 0,609 20,0 0,39 19,0 0,-39 864,0 0,39 20,0 0,-39 19,0 0,-609" />
<path style="fill:none;stroke:#7f7f7f;stroke-width:2" d="M951,931 l0,-609" />
<path style="fill:none;stroke:#7f7f7f;stroke-width:2" d="M931,931 l0,-609" />
<path style="fill:none;stroke:#7f7f7f;stroke-width:2" d="M67,931 l0,-609" />
<path style="fill:none;stroke:#7f7f7f;stroke-width:2" d="M48,931 l0,-609" />
<path style="fill:#ccc;stroke:#000;stroke-width:2" d="M893,827 l-36,0 0,-38 36,0 0,38z" />
<path style="fill:#ccc;stroke:#000;stroke-width:2" d="M107,827 l34,0 0,-38 -34,0 0,38z" />
<path style="fill:#ccc;stroke:#000;stroke-width:2" d="M107,410 l34,0 0,40 -34,0 0,-40z" />
<path style="fill:#ccc;stroke:#000;stroke-width:2" d="M893,410 l-36,0 0,40 36,0 0,-40z" />
<path style="fill:#b2b2b2;stroke:#000;stroke-width:2" d="M893,827 l-25,0 0,30 19,0 6,-30z" />
<path style="fill:#b2b2b2;stroke:#000;stroke-width:2" d="M107,827 l24,0 0,30 -19,0 -5,-30z" />
<path style="fill:#b2b2b2;stroke:#000;stroke-width:2" d="M107,410 l24,0 0,-30 -19,0 -5,30z" />
<path style="fill:#b2b2b2;stroke:#000;stroke-width:2" d="M893,410 l-25,0 0,-30 19,0 6,30z" />
<path style="fill:#ccc" d="M578,294 l-315,0 0,73 315,0 0,-73z" />
<path style="fill:#c7c7c7" d="M578,333 l-315,-30 0,64 315,0 0,-34z" />
<path style="fill:#c2c2c2" d="M578,348 l-315,-30 0,49 315,0 0,-19z" />
<path style="fill:#bdbdbd" d="M578,358 l-315,-31 0,40 315,0 0,-9z" />
<path style="fill:none;stroke:#000;stroke-width:2" d="M578,294 l-315,0 0,73 315,0 0,-73" />
<path style="fill:#ccc;stroke:#000;stroke-width:2" d="M569,218 l-21,0 0,76 21,0 0,-76z" />
<path style="fill:#ccc;stroke:#000;stroke-width:2" d="M294,218 l-21,0 0,76 21,0 0,-76z" />
<path style="fill:#ccc;stroke:#000;stroke-width:2" d="M548,254 l-254,0 0,9 254,0 0,-9z" />
<path style="fill:#ccc;stroke:#000;stroke-width:2" d="M548,229 l-254,0 0,4 254,0 0,-4z" />
<path style="fill:#69f;stroke:#000;stroke-width:2" d="M548,214 l-254,0 0,15 254,0 0,-15z" />
<path style="fill:#00197f" d="M548,199 l-254,0 0,15 254,0 0,-15z" />
<path style="fill:#194cb2" d="M554,52 l-266,0 0,147 266,0 0,-147z" />
<path style="fill:none;stroke:#000;stroke-width:2" d="M378,52 l8,-8 0,-9 -8,-7 -9,0 -8,7 0,9 8,8 9,0" />
<path style="fill:#2659bf" d="M554,62 l-266,0 0,126 266,0 0,-126z" />
<path style="fill:#36c" d="M554,73 l-266,0 0,106 266,0 0,-106z" />
<path style="fill:#4073d9" d="M554,84 l-266,0 0,83 266,0 0,-83z" />
<path style="fill:#4c7fe5" d="M554,94 l-266,0 0,62 266,0 0,-62z" />
<path style="fill:#598cf2" d="M554,105 l-266,0 0,41 266,0 0,-41z" />
<path style="fill:#69f" d="M554,116 l-266,0 0,19 266,0 0,-19z" />
<path style="fill:#194cb2;stroke:#000;stroke-width:2" d="M460,52 l-157,0 0,104 157,0 0,-104z" />
<path style="fill:none;stroke:#000;stroke-width:2" d="M554,52 l-266,0 0,147 266,0 0,-147" />
<path style="fill:none;stroke:#000;stroke-width:2" d="M460,62 l-157,0" />
<path style="fill:none;stroke:#000;stroke-width:2" d="M303,78 l157,0" />
<path style="fill:none;stroke:#000;stroke-width:2" d="M460,94 l-157,0" />
<path style="fill:none;stroke:#000;stroke-width:2" d="M303,109 l157,0" />
<path style="fill:none;stroke:#000;stroke-width:2" d="M460,124 l-157,0" />
<path style="fill:none;stroke:#000;stroke-width:2" d="M303,141 l157,0" />
<path style="fill:#69f" d="M422,107 l-79,0 0,77 79,0 0,-77z" />
<path style="fill:none;stroke:#b2ccff;stroke-width:2" d="M422,184 l0,-77 -79,0" />
<path style="fill:none;stroke:#039;stroke-width:2" d="M422,184 l-79,0 0,-77" />

</svg>
