 

<svg xmlns:agg="http://www.example.com" xmlns="http://www.w3.org/2000/svg" preserveAspectRatio="none" width="1.6083in" height="0.6794in" viewBox="0 0 999 422">

<path style="fill:#b2b2b2;stroke:#000;stroke-width:2" d="M526,364 l444,0 0,-308 -444,0 0,308z" />
<path style="fill:#ccc" d="M536,355 l0,-290 211,146 -211,144z" />
<path style="fill:#d9d9d9" d="M747,209 l-211,146 425,0 -214,-146z" />
<path style="fill:#bfbfbf" d="M961,355 l0,-290 -214,146 214,144z" />
<path style="fill:#b2b2b2;stroke:#000;stroke-width:2" d="M65,364 l442,0 0,-308 -442,0 0,308z" />
<path style="fill:#ccc" d="M75,355 l0,-290 211,146 -211,144z" />
<path style="fill:#d9d9d9" d="M286,209 l-211,146 423,0 -212,-146z" />
<path style="fill:#bfbfbf" d="M498,355 l0,-290 -212,146 212,144z" />
<path style="fill:#4c4c4c;stroke:#000;stroke-width:2" d="M489,37 l58,0 0,10 -58,0 0,-10z" />
<path style="fill:#4c4c4c;stroke:#000;stroke-width:2" d="M489,373 l58,0 0,12 -58,0 0,-12z" />
<path style="fill:#b2b2b2;stroke:#000;stroke-width:2" d="M507,394 l21,0 0,-366 -21,0 0,366z" />
<path style="fill:#4c4c4c;stroke:#000;stroke-width:2" d="M28,37 l58,0 0,10 -58,0 0,-10z" />
<path style="fill:#4c4c4c;stroke:#000;stroke-width:2" d="M28,373 l58,0 0,12 -58,0 0,-12z" />
<path style="fill:#b2b2b2;stroke:#000;stroke-width:2" d="M46,394 l21,0 0,-366 -21,0 0,366z" />

</svg>
