 

<svg xmlns:agg="http://www.example.com" xmlns="http://www.w3.org/2000/svg" preserveAspectRatio="none" width="0.9200in" height="1.0750in" viewBox="0 0 855 999">

<path style="fill:#7f7f7f;stroke:#000;stroke-width:2" d="M239,28 l34,0 0,165 -34,0 0,-165z" />
<path style="fill:#7f7f7f;stroke:#000;stroke-width:2" d="M195,28 l32,0 0,165 -32,0 0,-165z" />
<path style="fill:#7f7f7f;stroke:#000;stroke-width:2" d="M150,28 l34,0 0,165 -34,0 0,-165z" />
<path style="fill:#e5e5e5" d="M252,28 l8,0 0,165 -8,0 0,-165z" />
<path style="fill:#e5e5e5" d="M207,28 l9,0 0,165 -9,0 0,-165z" />
<path style="fill:#e5e5e5" d="M164,28 l7,0 0,165 -7,0 0,-165z" />
<path style="fill:#999;stroke:#000;stroke-width:2" d="M295,193 l-22,-120 322,0 -34,120 -266,0z" />
<path style="fill:#4c4c4c" d="M162,925 l0,-732 531,0 0,732 -531,0z" />
<path style="fill:#545454" d="M177,925 l0,-732 501,0 0,732 -501,0z" />
<path style="fill:#5c5c5c" d="M192,925 l0,-732 471,0 0,732 -471,0z" />
<path style="fill:#636363" d="M209,925 l0,-732 437,0 0,732 -437,0z" />
<path style="fill:#6b6b6b" d="M224,925 l0,-732 407,0 0,732 -407,0z" />
<path style="fill:#757575" d="M239,925 l0,-732 377,0 0,732 -377,0z" />
<path style="fill:#7d7d7d" d="M256,925 l0,-732 345,0 0,732 -345,0z" />
<path style="fill:#858585" d="M271,925 l0,-732 313,0 0,732 -313,0z" />
<path style="fill:#8c8c8c" d="M286,925 l0,-732 283,0 0,732 -283,0z" />
<path style="fill:#949494" d="M301,925 l0,-732 253,0 0,732 -253,0z" />
<path style="fill:#9c9c9c" d="M318,925 l0,-732 221,0 0,732 -221,0z" />
<path style="fill:#a3a3a3" d="M333,925 l0,-732 189,0 0,732 -189,0z" />
<path style="fill:#ababab" d="M348,925 l0,-732 159,0 0,732 -159,0z" />
<path style="fill:#b5b5b5" d="M363,925 l0,-732 128,0 0,732 -128,0z" />
<path style="fill:#bdbdbd" d="M380,925 l0,-732 95,0 0,732 -95,0z" />
<path style="fill:#c4c4c4" d="M396,925 l0,-732 63,0 0,732 -63,0z" />
<path style="fill:#ccc" d="M410,925 l0,-732 34,0 0,732 -34,0z" />
<path style="fill:#b2b2b2" d="M28,925 l799,0 0,45 -799,0 0,-45z" />
<path style="fill:#999" d="M28,948 l799,0 0,22 -799,0 0,-22z" />
<path style="fill:none;stroke:#000;stroke-width:2" d="M28,925 l799,0 0,45 -799,0 0,-45" />
<path style="fill:none;stroke:#999;stroke-width:2" d="M162,305 l531,0" />
<path style="fill:none;stroke:#999;stroke-width:2" d="M162,527 l531,0" />
<path style="fill:none;stroke:#999;stroke-width:2" d="M162,748 l531,0" />
<path style="fill:#ccc" d="M316,427 l223,0 0,311 -223,0 0,-311z" />
<path style="fill:#c7c7c7" d="M316,582 l223,-64 0,220 -223,0 0,-156z" />
<path style="fill:#c2c2c2" d="M316,604 l223,-73 0,207 -223,0 0,-134z" />
<path style="fill:#bdbdbd" d="M316,627 l223,-77 0,188 -223,0 0,-111z" />
<path style="fill:none;stroke:#000;stroke-width:2" d="M316,427 l223,0 0,311 -223,0 0,-311" />
<path style="fill:#b2b2b2" d="M339,738 l177,0 0,117 -177,0 0,-117z" />
<path style="fill:#adadad" d="M339,810 l177,-49 0,94 -177,0 0,-45z" />
<path style="fill:#a8a8a8" d="M339,835 l177,-51 0,71 -177,0 0,-20z" />
<path style="fill:#a3a3a3" d="M339,857 l177,-49 0,117 -21,0 -2,-70 -131,0 0,70 -23,0 0,-68z" />
<path style="fill:none;stroke:#000;stroke-width:2" d="M339,737 l177,0 0,188 -21,0 -2,-70 -131,0 0,70 -23,0 0,-188" />
<path style="fill:#333" d="M384,761 l89,0 0,70 -89,0 0,-70z" />
<path style="fill:#333" d="M428,448 l88,0 0,68 -88,0 0,-68z" />
<path style="fill:#666" d="M473,604 l43,0 0,44 -43,0 0,-44z" />
<path style="fill:none;stroke:#fff;stroke-width:2" d="M328,727 l0,-288 199,0" />
<path style="fill:none;stroke:#999;stroke-width:2" d="M328,727 l199,0 0,-288" />
<path style="fill:#4c4c4c;stroke:#000;stroke-width:2" d="M693,548 l79,0 0,122 -79,0 0,-122z" />
<path style="fill:#333" d="M672,693 l21,0 0,123 -21,0 0,-123z" />
<path style="fill:none;stroke:#000;stroke-width:2" d="M162,925 l0,-732 531,0 0,732 -531,0" />
<path style="fill:#ccc;stroke:#666;stroke-width:2" d="M150,171 l554,0 0,34 -554,0 0,-34z" />
<path style="fill:#b2b2b2;stroke:#666;stroke-width:2" d="M250,161 l70,0 0,55 -70,0 0,-55z" />
<path style="fill:#b2b2b2;stroke:#666;stroke-width:2" d="M388,161 l68,0 0,55 -68,0 0,-55z" />
<path style="fill:#b2b2b2;stroke:#666;stroke-width:2" d="M537,161 l68,0 0,55 -68,0 0,-55z" />
<path style="fill:none;stroke:#000;stroke-width:2" d="M461,427 l34,-56 10,-55 0,-66 -10,-57 -34,-32" />
<path style="fill:#e5e5e5;stroke:#000;stroke-width:2" d="M405,382 l45,0 0,45 -45,0 0,-45z" />
<path style="fill:#fff" d="M405,405 l23,-23 22,23 -22,22 -23,-22z" />
<path style="fill:#b2b2b2;stroke:#000;stroke-width:2" d="M195,316 l-11,-34 -22,-32 -12,-45 23,0 11,34 23,43 9,34 -21,0z" />
<path style="fill:#4c4c4c" d="M184,405 l0,-89 132,0 0,89 -132,0z" />
<path style="fill:#4c4c4c" d="M195,616 l0,-68 112,0 0,68 -112,0z" />
<path style="fill:#5c5c5c" d="M201,616 l0,-68 98,0 0,68 -98,0z" />
<path style="fill:#5c5c5c" d="M192,405 l0,-89 117,0 0,89 -117,0z" />
<path style="fill:#6b6b6b" d="M209,616 l0,-68 85,0 0,68 -85,0z" />
<path style="fill:#6b6b6b" d="M199,405 l0,-89 102,0 0,89 -102,0z" />
<path style="fill:#7d7d7d" d="M207,405 l0,-89 87,0 0,89 -87,0z" />
<path style="fill:#7d7d7d" d="M214,616 l0,-68 72,0 0,68 -72,0z" />
<path style="fill:#8c8c8c" d="M220,616 l0,-68 61,0 0,68 -61,0z" />
<path style="fill:#8c8c8c" d="M214,405 l0,-89 72,0 0,89 -72,0z" />
<path style="fill:#9c9c9c" d="M224,405 l0,-89 55,0 0,89 -55,0z" />
<path style="fill:#9c9c9c" d="M227,616 l0,-68 46,0 0,68 -46,0z" />
<path style="fill:#ababab" d="M233,616 l0,-68 34,0 0,68 -34,0z" />
<path style="fill:#ababab" d="M231,405 l0,-89 40,0 0,89 -40,0z" />
<path style="fill:#bdbdbd" d="M239,405 l0,-89 22,0 0,89 -22,0z" />
<path style="fill:#bdbdbd" d="M241,616 l0,-68 20,0 0,68 -20,0z" />
<path style="fill:#ccc" d="M247,616 l0,-68 7,0 0,68 -7,0z" />
<path style="fill:#ccc" d="M247,405 l0,-89 7,0 0,89 -7,0z" />
<path style="fill:#333" d="M195,405 l110,0 0,143 -110,0 0,-143z" />
<path style="fill:#666;stroke:#000;stroke-width:2" d="M284,405 l11,0 0,143 -11,0 0,-143z" />
<path style="fill:#666;stroke:#000;stroke-width:2" d="M261,405 l12,0 0,143 -12,0 0,-143z" />
<path style="fill:#666;stroke:#000;stroke-width:2" d="M239,405 l11,0 0,143 -11,0 0,-143z" />
<path style="fill:#666;stroke:#000;stroke-width:2" d="M218,405 l9,0 0,143 -9,0 0,-143z" />
<path style="fill:#666;stroke:#000;stroke-width:2" d="M195,405 l12,0 0,143 -12,0 0,-143z" />
<path style="fill:none;stroke:#000;stroke-width:2" d="M195,616 l0,-68 112,0 0,68 -112,0" />
<path style="fill:none;stroke:#000;stroke-width:2" d="M184,405 l0,-89 132,0 0,89 -132,0" />
<path style="fill:#333;stroke:#000;stroke-width:2" d="M150,316 l34,0 0,609 -34,0 0,-609z" />
<path style="fill:#333;stroke:#000;stroke-width:2" d="M207,616 l9,0 0,309 -9,0 0,-309z" />
<path style="fill:#333;stroke:#000;stroke-width:2" d="M229,616 l10,0 0,309 -10,0 0,-309z" />
<path style="fill:#b2b2b2;stroke:#000;stroke-width:2" d="M295,616 l10,0 0,309 -10,0 0,-309z" />
<path style="fill:#666" d="M584,548 l43,0 0,377 -43,0 0,-377z" />
<path style="fill:#999" d="M591,548 l29,0 0,377 -29,0 0,-377z" />
<path style="fill:#ccc" d="M601,548 l9,0 0,377 -9,0 0,-377z" />
<path style="fill:none;stroke:#000;stroke-width:2" d="M584,548 l43,0 0,377 -43,0 0,-377" />
<path style="fill:#7f7f7f;stroke:#000;stroke-width:2" d="M195,271 l112,0 0,45 -112,0 0,-45z" />
<path style="fill:#b23232" d="M239,559 l45,0 0,34 -45,0 0,-34z" />
<path style="fill:#00197f" d="M450,459 l45,0 0,34 -45,0 0,-34z" />
<path style="fill:#333;stroke:#000;stroke-width:2" d="M73,904 l23,0 0,21 -23,0 0,-21z" />
<path style="fill:#333;stroke:#000;stroke-width:2" d="M73,893 l709,0 0,11 -709,0 0,-11z" />
<path style="fill:#333;stroke:#000;stroke-width:2" d="M761,904 l21,0 0,21 -21,0 0,-21z" />

</svg>
