 

<svg xmlns:agg="http://www.example.com" xmlns="http://www.w3.org/2000/svg" preserveAspectRatio="none" width="1.6083in" height="0.5957in" viewBox="0 0 999 370">

<path style="fill:#43a143;stroke:#000;stroke-width:2" d="M970,35 l-37,24 0,283 37,-23 0,-284z" />
<path style="fill:#82e082;stroke:#000;stroke-width:2" d="M28,59 l181,0 0,283 -181,0 0,-283z" />
<path style="fill:#82e082;stroke:#000;stroke-width:2" d="M391,59 l-182,0 0,283 182,0 0,-283z" />
<path style="fill:#82e082" d="M572,59 l0,283 -181,0 0,-283 181,0z" />
<path style="fill:#82e082" d="M754,342 l-182,0 0,-74 182,0 0,74z" />
<path style="fill:#82e082" d="M754,59 l179,0 0,283 -179,0 0,-283z" />
<path style="fill:#82e082" d="M933,59 l37,-24 -905,0 -37,24 905,0z" />
<path style="fill:none;stroke:#000;stroke-width:2" d="M391,59 l181,0 0,283 -181,0 0,-283" />
<path style="fill:none;stroke:#000;stroke-width:2" d="M754,342 l-182,0 0,-74 182,0 0,74" />
<path style="fill:none;stroke:#000;stroke-width:2" d="M754,59 l179,0 0,283 -179,0 0,-283" />
<path style="fill:none;stroke:#000;stroke-width:2" d="M28,59 l905,0 37,-24 -905,0 -37,24" />
<path style="fill:#217f21;fill-rule:evenodd" d="M779,123 l10,0 0,30 -10,0 0,-30z M781,125 l6,0 0,22 -6,0 0,-22z M88,119 l62,0 0,61 -62,0 0,-61z M94,121 l53,0 0,53 -53,0 0,-53z M184,178 l15,0 0,51 -15,0 0,-51z M184,180 l11,0 0,41 -11,0 0,-41z M147,74 l0,18 -51,0 0,-18 51,0z M145,79 l0,5 -39,0 0,-5 39,0z M217,178 l16,0 0,51 -16,0 0,-51z M219,180 l10,0 0,41 -10,0 0,-41z M545,178 l16,0 0,51 -16,0 0,-51z M547,180 l10,0 0,41 -10,0 0,-41z M754,59 l-182,0 0,209 182,0 0,-209z " />
<ellipse style="fill:#f0f0f0;stroke:#000;stroke-width:2" cx="883" cy="37" rx="28" ry="5" />
<path style="fill:#f0f0f0" d="M890,43 l-2,0 -5,0 -10,0 -10,2 -10,-2 -9,0 -6,0 -2,0 -2,-2 0,10 2,2 2,0 6,0 7,2 12,0 12,0 8,-2 7,0 2,-2 0,-10 -2,2z" />
<path style="fill:none;stroke:#000;stroke-width:2" d="M892,41 l0,2 0,-2" />
<path style="fill:none;stroke:#000;stroke-width:2" d="M892,41 l-2,2 -2,0 -5,0 -10,0 -10,2 -10,-2 -9,0 -6,0 -2,0 -2,-2 0,10 2,2 2,0 6,0 7,2 12,0 12,0 8,-2 7,0 2,-2 0,-10" />
<path style="fill:#92f0b0" d="M744,67 l-162,0 0,7 162,0 0,-7z" />
<path style="fill:#92f0b0" d="M744,79 l-162,0 0,7 162,0 0,-7z" />
<path style="fill:#92f0b0" d="M744,90 l-162,0 0,8 162,0 0,-8z" />
<path style="fill:#92f0b0" d="M744,102 l-162,0 0,8 162,0 0,-8z" />
<path style="fill:#92f0b0" d="M744,114 l-162,0 0,7 162,0 0,-7z" />
<path style="fill:#92f0b0" d="M744,125 l-162,0 0,8 162,0 0,-8z" />
<path style="fill:#92f0b0" d="M744,137 l-162,0 0,8 162,0 0,-8z" />
<path style="fill:#92f0b0" d="M744,149 l-162,0 0,8 162,0 0,-8z" />
<path style="fill:#92f0b0" d="M744,160 l-162,0 0,8 162,0 0,-8z" />
<path style="fill:#92f0b0" d="M744,172 l-162,0 0,8 162,0 0,-8z" />
<path style="fill:#92f0b0" d="M744,184 l-162,0 0,8 162,0 0,-8z" />
<path style="fill:#92f0b0" d="M744,195 l-162,0 0,8 162,0 0,-8z" />
<path style="fill:#92f0b0" d="M744,207 l-162,0 0,6 162,0 0,-6z" />
<path style="fill:#92f0b0" d="M744,219 l-162,0 0,8 162,0 0,-8z" />
<path style="fill:#92f0b0" d="M744,231 l-162,0 0,7 162,0 0,-7z" />
<path style="fill:#92f0b0" d="M744,242 l-162,0 0,6 162,0 0,-6z" />
<path style="fill:#92f0b0" d="M744,254 l-162,0 0,6 162,0 0,-6z" />
<path style="fill:#e0e0e0" d="M855,39 l2,0 0,-6 -2,-1 0,7z" />
<path style="fill:#e0e0e0" d="M838,43 l0,10 -2,0 0,-2 0,-8 2,0z" />
<path style="fill:#e0e0e0" d="M873,45 l0,8 2,0 8,0 7,0 0,-2 2,0 0,-8 -2,0 -2,0 -5,0 -10,2z" />
<path style="fill:#e0e0e0" d="M892,33 l0,10 2,0 10,0 6,-2 2,0 0,-9 -2,1 -2,0 -6,0 -8,0 -2,0z" />
<path style="fill:#7f7f7f" d="M965,55 l-24,18 0,243 24,-15 0,-246z" />
<path style="fill:#7f7f7f" d="M771,201 l145,0 0,129 -145,0 0,-129z" />
<ellipse style="fill:#7f7f7f" cx="883" cy="31" rx="28" ry="1" />
<ellipse style="fill:#7f7f7f" cx="863" cy="42" rx="29" ry="3" />
<path style="fill:none;stroke:#000;stroke-width:2" d="M771,102 l145,0 0,70 -145,0 0,-70" />
<path style="fill:#82e082;fill-rule:evenodd" d="M70,39 l8,0 0,-7 -8,0 0,7z M69,30 l5,-2 6,2 2,3 0,6 -15,0 0,-6 2,-3z M47,55 l8,0 0,-6 -8,0 0,6z M45,47 l6,-4 8,4 2,4 0,6 -18,0 0,-6 2,-4z M949,39 l6,0 0,-7 -6,0 0,7z M945,30 l6,-2 8,2 0,3 0,6 -16,0 0,-6 2,-3z M920,55 l6,0 0,-6 -6,0 0,6z M916,47 l8,-4 5,4 2,4 0,6 -17,0 0,-6 2,-4z " />
<path style="fill:none;stroke:#000;stroke-width:2" d="M70,39 l8,0 0,-7 -8,0 0,7" />
<path style="fill:none;stroke:#000;stroke-width:2" d="M69,30 l5,-2 6,2 2,3 0,6 -15,0 0,-6 2,-3" />
<path style="fill:none;stroke:#000;stroke-width:2" d="M47,55 l8,0 0,-6 -8,0 0,6" />
<path style="fill:none;stroke:#000;stroke-width:2" d="M45,47 l6,-4 8,4 2,4 0,6 -18,0 0,-6 2,-4" />
<path style="fill:none;stroke:#000;stroke-width:2" d="M949,39 l6,0 0,-7 -6,0 0,7" />
<path style="fill:none;stroke:#000;stroke-width:2" d="M945,30 l6,-2 8,2 0,3 0,6 -16,0 0,-6 2,-3" />
<path style="fill:none;stroke:#000;stroke-width:2" d="M920,55 l6,0 0,-6 -6,0 0,6" />
<path style="fill:none;stroke:#000;stroke-width:2" d="M916,47 l8,-4 5,4 2,4 0,6 -17,0 0,-6 2,-4" />

</svg>
