 

<svg xmlns:agg="http://www.example.com" xmlns="http://www.w3.org/2000/svg" preserveAspectRatio="none" width="0.6661in" height="1.0750in" viewBox="0 0 619 999">

<path style="fill:#4c4c4c" d="M384,969 l-49,1 -51,0 -49,-1 -44,-4 -35,-4 -27,-6 -13,-7 0,-6 13,-7 12,-16 0,-103 337,0 0,103 10,16 13,7 0,6 -13,7 -25,6 -36,4 -43,4z" />
<path style="fill:#666" d="M384,955 l-49,2 -51,0 -49,-2 -44,-2 -35,-5 -27,-13 12,-16 0,-103 337,0 0,103 10,16 -25,13 -36,5 -43,2z" />
<path style="fill:#707070" d="M378,955 l-45,2 -47,0 -45,-2 -40,-3 -34,-4 -22,-12 9,-15 0,-105 311,0 0,105 10,15 -23,12 -34,4 -40,3z" />
<path style="fill:#7a7a7a" d="M373,955 l-42,2 -43,0 -42,-2 -36,-2 -31,-3 -21,-12 9,-13 0,-109 285,0 0,109 9,13 -22,12 -30,3 -36,2z" />
<path style="fill:#858585" d="M367,955 l-38,2 -39,0 -38,-2 -34,-2 -27,-3 -18,-10 7,-11 0,-113 259,0 0,113 7,11 -19,10 -28,3 -32,2z" />
<path style="fill:#919191" d="M361,955 l-34,2 -35,0 -34,-2 -31,-2 -24,-1 -17,-10 8,-11 0,-115 232,0 0,115 7,11 -17,10 -24,1 -31,2z" />
<path style="fill:#9c9c9c" d="M356,957 l-31,0 -32,0 -28,0 -28,-4 -23,-1 -15,-8 8,-9 0,-119 205,0 0,119 6,9 -15,8 -21,1 -26,4z" />
<path style="fill:#a6a6a6" d="M350,957 l-26,0 -29,0 -24,0 -25,-2 -19,-3 -13,-6 6,-8 0,-122 179,0 0,122 6,8 -13,6 -19,3 -23,2z" />
<path style="fill:#b0b0b0" d="M344,957 l-22,0 -25,0 -21,0 -20,-2 -17,-2 -12,-5 6,-6 0,-126 153,0 0,126 6,6 -12,5 -17,2 -19,2z" />
<path style="fill:#bababa" d="M339,957 l-19,0 -21,0 -17,0 -17,-2 -13,-2 -10,-3 4,-6 0,-128 127,0 0,128 3,6 -9,3 -13,2 -15,2z" />
<path style="fill:#c4c4c4" d="M333,957 l-17,0 -15,0 -13,0 -13,-2 -12,0 -7,-3 3,-4 0,-132 100,0 0,132 4,4 -7,3 -12,0 -11,2z" />
<path style="fill:#d1d1d1" d="M327,957 l-13,0 -9,0 -12,0 -9,0 -9,-2 -6,-2 4,-1 0,-136 73,0 0,136 2,1 -4,2 -9,2 -8,0z" />
<path style="fill:#dbdbdb" d="M322,957 l-10,0 -5,0 -8,0 -7,0 -4,0 -4,-2 2,-2 0,-137 47,0 0,137 2,2 -4,2 -6,0 -3,0z" />
<path style="fill:#e5e5e5" d="M314,957 l-4,0 -3,0 -2,0 -4,0 -2,0 -2,0 0,-141 23,0 0,141 2,0 -2,0 -4,0 -2,0z" />
<path style="fill:none;stroke:#000;stroke-width:2" d="M384,969 l-49,1 -51,0 -49,-1 -44,-4 -35,-4 -27,-6 -13,-7 0,-6 13,-7 12,-16 0,-103 337,0 0,103 10,16 13,7 0,6 -13,7 -25,6 -36,4 -43,4" />
<ellipse style="fill:#999;stroke:#000;stroke-width:2" cx="308" cy="815" rx="167" ry="22" />
<path style="fill:#b2b2b2" d="M463,810 l128,-764 -563,0 128,764 0,9 9,5 21,3 28,4 36,4 40,0 39,0 40,0 34,-4 30,-4 19,-3 11,-5 0,-9z" />
<path style="fill:#7f7f7f" d="M28,46 l128,764 0,9 9,5 21,3 28,4 -186,-785z" />
<path style="fill:#7f7f7f" d="M463,810 l128,-764 -188,785 30,-4 19,-3 11,-5 0,-9z" />
<path style="fill:none;stroke:#000;stroke-width:2" d="M463,810 l128,-764 -563,0 128,764 0,9 9,5 21,3 28,4 36,4 40,0 39,0 40,0 34,-4 30,-4 19,-3 11,-5 0,-9" />
<path style="fill:#ccc" d="M263,827 l-26,-164 -10,-187 23,198 6,51 7,102z" />
<path style="fill:#ccc" d="M309,829 l-10,-121 4,-136 6,146 0,38 0,73z" />
<path style="fill:#ccc" d="M348,829 l11,-166 -5,-187 -6,198 0,53 0,102z" />
<path style="fill:#ccc" d="M375,821 l11,-77 2,-88 -10,94 -2,24 -1,47z" />
<path style="fill:#999" d="M375,821 l11,-77 2,-88 4,96 -12,72 -5,-3z" />
<path style="fill:#999" d="M348,829 l11,-166 -5,-187 19,198 -14,155 -11,0z" />
<path style="fill:#999" d="M309,829 l-10,-121 4,-136 -13,146 9,111 10,0z" />
<path style="fill:#999" d="M263,827 l-26,-164 -10,-187 -2,200 25,153 13,-2z" />
<path style="fill:#191919" d="M28,46 l0,-5 563,0 0,5 -563,0z" />
<path style="fill:#666;stroke:#000;stroke-width:2" d="M28,41 l0,-13 563,0 0,13 -563,0z" />
<path style="fill:#d94000;stroke:#000;stroke-width:2" d="M522,919 l-8,-5 8,-8 -8,-37 8,-40 -8,-5 8,-8 24,0 8,8 -8,5 8,40 -8,37 8,8 -8,5 -24,0z" />
<path style="fill:#d94000;stroke:#000;stroke-width:2" d="M71,919 l-6,-5 6,-8 -6,-37 6,-40 -6,-5 6,-8 26,0 6,8 -6,5 6,40 -6,37 6,8 -6,5 -26,0z" />
<path style="fill:#e5e5e5;stroke:#000;stroke-width:2" d="M79,810 l13,0 0,6 -13,0 0,-6z" />
<path style="fill:#e5e5e5;stroke:#000;stroke-width:2" d="M527,810 l13,0 0,6 -13,0 0,-6z" />
<path style="fill:none;stroke:#000;stroke-width:2" d="M97,816 l51,0" />
<path style="fill:none;stroke:#000;stroke-width:2" d="M469,816 l53,0" />
<path style="fill:#7f7f7f;stroke:#000;stroke-width:2" d="M252,848 l115,0 0,96 -115,0 0,-96z" />
<path style="fill:#ccc" d="M258,855 l101,0 0,83 -101,0 0,-83z" />
<path style="fill:#cbe5cb" d="M284,869 l51,0 0,18 -51,0 0,-18z" />
<path style="fill:none;stroke:#000;stroke-width:2" d="M284,887 l0,-18 51,0" />
<path style="fill:none;stroke:#fff;stroke-width:2" d="M335,867 l0,20 -51,0" />
<path style="fill:#b2b2b2" d="M284,893 l51,0 0,40 -51,0 0,-40z" />
<path style="fill:#000" d="M265,912 l6,0 0,7 -6,0 0,-7z" />

</svg>
