 

<svg xmlns:agg="http://www.example.com" xmlns="http://www.w3.org/2000/svg" preserveAspectRatio="none" width="1.2754in" height="1.0750in" viewBox="0 0 999 842">

<path style="fill:#997f66" d="M931,774 l-2,4 -24,10 -26,5 -34,5 -41,4 -30,2 -34,3 -36,2 -37,1 -40,2 -41,1 -43,0 -22,0 -22,0 -44,0 -43,0 -41,-1 -40,-2 -37,-1 -36,-2 -34,-3 -30,-2 -28,-3 -36,-4 -29,-5 -25,-8 -7,-4 -2,-4 0,-255 -39,-452 0,-2 28,-11 29,-5 37,-5 29,-3 31,-3 36,-2 37,-2 40,-2 42,-1 45,-2 45,-1 24,0 24,0 24,0 48,0 47,1 45,1 43,1 41,2 39,2 36,2 34,3 30,3 27,2 35,5 31,8 15,7 0,2 -39,452 0,255z" />
<path style="fill:#a1876e" d="M892,790 l0,0 -31,5 -36,4 -35,3 -41,3 -30,2 -33,2 -34,1 -36,1 -38,1 -38,1 -21,0 -20,0 -39,0 -38,0 -35,-1 -34,-1 -31,-2 -30,-1 -27,-1 -38,-3 -33,-3 -29,-3 -31,-4 -28,-4 0,-272 -36,-466 3,-1 30,-5 37,-4 36,-3 27,-2 29,-2 32,-1 35,-2 36,-1 38,-2 41,-1 42,0 21,0 22,0 44,0 42,1 42,1 39,1 37,1 36,2 33,2 30,2 28,2 36,3 28,3 29,5 5,1 0,1 -36,465 0,272z" />
<path style="fill:#ab9178" d="M853,796 l0,0 -28,3 -32,3 -32,2 -37,3 -27,1 -29,1 -31,2 -33,1 -34,1 -35,0 -17,0 -19,0 -36,0 -35,0 -34,-1 -32,-1 -31,-1 -29,-2 -40,-2 -36,-2 -29,-2 -30,-3 -21,-3 -1,0 0,-278 -32,-472 1,0 30,-4 35,-3 35,-2 40,-3 30,-1 32,-1 33,-2 36,-1 37,-1 38,0 20,0 19,0 40,0 38,0 37,1 35,1 34,2 32,1 30,2 27,1 36,3 31,2 29,3 17,2 0,0 -32,472 0,278z" />
<path style="fill:#b2987f" d="M814,800 l-31,3 -31,2 -30,2 -35,2 -38,1 -42,2 -29,0 -31,1 -16,0 -16,0 -48,0 -31,0 -30,-1 -29,-1 -41,-1 -37,-2 -33,-1 -28,-2 -29,-2 -24,-3 -1,0 0,-282 -28,-476 0,0 27,-4 31,-2 31,-2 36,-2 40,-1 29,-1 31,-1 33,-1 33,0 17,0 18,0 52,0 34,0 33,1 32,1 30,1 28,1 39,1 34,2 29,2 29,2 21,2 0,1 -29,476 0,282z" />
<path style="fill:#baa087" d="M775,803 l0,1 -27,2 -28,1 -35,2 -31,2 -35,1 -38,1 -40,0 -13,0 -15,0 -42,0 -40,0 -39,-1 -36,-1 -32,-2 -29,-1 -32,-1 -27,-2 -13,-1 0,-286 -25,-480 0,0 30,-2 30,-2 29,-2 32,-1 37,-1 40,-1 28,-1 29,0 16,0 15,0 46,0 30,0 29,1 41,1 37,1 35,1 29,2 33,2 27,2 9,1 1,0 -26,479 0,285z" />
<path style="fill:#c4aa91" d="M715,807 l-31,2 -32,2 -32,1 -37,1 -30,0 -10,0 -11,0 -11,0 -54,0 -32,0 -29,-1 -35,-1 -31,-1 -30,-1 -27,-2 0,-289 -19,-484 0,0 29,-2 32,-1 34,-1 28,-1 32,-1 33,0 12,0 11,0 60,0 34,0 32,1 30,1 35,1 28,1 30,2 10,1 1,0 -20,483 0,289z" />
<path style="fill:#ccb299" d="M643,810 l-33,2 -31,1 -37,0 -14,0 -14,0 -44,0 -39,0 -34,-1 -31,-1 -11,-1 0,-291 -13,-488 1,0 35,-1 33,-1 42,-1 15,0 15,0 47,0 30,1 39,0 30,2 26,1 1,0 -13,487 0,291z" />
<path style="fill:#a68c73" d="M754,72 l79,388 73,-373 -152,-15z" />
<path style="fill:#a68c73" d="M244,72 l-79,388 -73,-373 152,-15z" />
<path style="fill:#a68c73" d="M749,759 l79,-171 78,161 -157,10z" />
<path style="fill:#a68c73" d="M92,749 l78,-161 79,171 -157,-10z" />
<path style="fill:#8c7259" d="M955,234 l-24,-113 -79,378 79,0 24,-265z" />
<path style="fill:#8c7259" d="M44,233 l23,-112 79,378 -77,0 -25,-266z" />
<path style="fill:#8c7259" d="M931,558 l0,177 -79,-177 79,0z" />
<path style="fill:#8c7259" d="M146,558 l-79,177 0,-177 79,0z" />
<path style="fill:#735940" d="M44,232 l23,-111 10,49 -28,120 -5,-58z" />
<path style="fill:#735940" d="M955,234 l-24,-113 -10,49 29,123 5,-59z" />
<path style="fill:#735940" d="M67,578 l69,0 10,-20 -79,0 0,20z" />
<path style="fill:#735940" d="M862,578 l69,0 0,-20 -79,0 10,20z" />
<path style="fill:#ccb299" d="M833,460 l73,-373 -19,15 -59,324 5,34z" />
<path style="fill:#ccb299" d="M165,460 l-73,-373 19,15 59,324 -5,34z" />
<path style="fill:#bfa58c" d="M578,558 l-79,177 -79,-177 158,0z" />
<path style="fill:#bfa58c" d="M538,67 l79,393 78,-393 -157,0z" />
<path style="fill:#bfa58c" d="M420,499 l79,-392 79,392 -158,0z" />
<path style="fill:#bfa58c" d="M460,67 l-79,393 -78,-393 157,0z" />
<path style="fill:#b2987f" d="M803,558 l-78,177 -79,-177 157,0z" />
<path style="fill:#b2987f" d="M352,558 l-79,177 -78,-177 157,0z" />
<path style="fill:#b2987f" d="M803,499 l-78,-392 -79,392 157,0z" />
<path style="fill:#b2987f" d="M195,499 l78,-392 79,392 -157,0z" />
<path style="fill:#b2987f" d="M533,774 l79,-177 78,172 -157,5z" />
<path style="fill:#b2987f" d="M308,769 l78,-172 79,177 -157,-5z" />
<path style="fill:#997f66" d="M430,578 l138,0 10,-20 -158,0 10,20z" />
<path style="fill:#997f66" d="M435,578 l128,0 15,-20 -158,0 15,20z" />
<path style="fill:#997f66" d="M695,67 l-157,0 5,20 138,0 14,-20z" />
<path style="fill:#997f66" d="M303,67 l157,0 -5,20 -138,0 -14,-20z" />
<path style="fill:#997f66" d="M420,499 l79,-392 79,392 -10,-5 -69,-343 -69,343 -10,5z" />
<path style="fill:#7f654c" d="M214,578 l128,0 10,-20 -157,0 19,20z" />
<path style="fill:#7f654c" d="M656,578 l128,0 19,-20 -157,0 10,20z" />
<path style="fill:#7f654c" d="M803,499 l-78,-392 -79,392 5,0 69,-343 69,338 14,5z" />
<path style="fill:#7f654c" d="M195,499 l78,-392 79,392 -5,-5 -69,-338 -69,338 -14,5z" />
<path style="fill:#7f654c" d="M906,87 l-152,-15 5,20 128,10 19,-15z" />
<path style="fill:#7f654c" d="M92,87 l152,-15 -5,20 -128,10 -19,-15z" />
<path style="fill:#e5cbb2" d="M563,578 l-64,147 -64,-147 -15,-20 79,177 79,-177 -15,20z" />
<path style="fill:#e5cbb2" d="M533,774 l157,-5 -9,-5 -143,0 -5,10z" />
<path style="fill:#e5cbb2" d="M465,774 l-157,-5 9,-5 143,0 5,10z" />
<path style="fill:#ccb299" d="M784,578 l-64,142 5,15 78,-177 -19,20z" />
<path style="fill:#ccb299" d="M278,720 l-64,-142 -19,-20 78,177 5,-15z" />
<path style="fill:#7f654c" d="M607,607 l74,157 10,5 -79,-172 -5,10z" />
<path style="fill:#7f654c" d="M317,764 l74,-157 -4,-10 -79,172 9,-5z" />
<path style="fill:#e5cbb2" d="M420,499 l158,0 -10,-5 -138,0 -10,5z" />
<path style="fill:#ccb299" d="M646,499 l157,0 -14,-5 -138,0 -5,5z" />
<path style="fill:#b2987f" d="M852,499 l79,0 0,-5 -79,0 0,5z" />
<path style="fill:#ccb299" d="M195,499 l157,0 -5,-5 -138,0 -14,5z" />
<path style="fill:#b2987f" d="M67,499 l79,0 0,-5 -79,0 0,5z" />
<path style="fill:none;stroke:#000;stroke-width:2" d="M931,774 l-2,4 -24,10 -26,5 -34,5 -41,4 -30,2 -34,3 -36,2 -37,1 -40,2 -41,1 -43,0 -22,0 -22,0 -44,0 -43,0 -41,-1 -40,-2 -37,-1 -36,-2 -34,-3 -30,-2 -28,-3 -36,-4 -29,-5 -25,-8 -7,-4 -2,-4 0,-255 -39,-452 0,-2 28,-11 29,-5 37,-5 29,-3 31,-3 36,-2 37,-2 40,-2 42,-1 45,-2 45,-1 24,0 24,0 24,0 48,0 47,1 45,1 43,1 41,2 39,2 36,2 34,3 30,3 27,2 35,5 31,8 15,7 0,2 -39,452 0,255" />
<path style="fill:#ccb299" d="M749,759 l157,-9 -14,-5 -138,5 -5,9z" />
<path style="fill:#ccb299" d="M249,759 l-157,-9 14,-5 138,5 5,9z" />
<path style="fill:#735940" d="M828,588 l78,162 -14,-5 -69,-148 5,-9z" />
<path style="fill:#735940" d="M170,588 l-78,162 14,-5 69,-143 -5,-14z" />
<path style="fill:#e5cbb2" d="M617,460 l78,-393 -14,20 -69,344 5,29z" />
<path style="fill:#e5cbb2" d="M381,460 l-78,-393 14,20 69,344 -5,29z" />

</svg>
