 

<svg xmlns:agg="http://www.example.com" xmlns="http://www.w3.org/2000/svg" preserveAspectRatio="none" width="1.6083in" height="0.6263in" viewBox="0 0 999 389">

<path style="fill:#666" d="M753,28 l98,0 0,18 -98,0 0,-18z" />
<path style="fill:#666" d="M637,28 l98,0 0,18 -98,0 0,-18z" />
<path style="fill:#666" d="M518,28 l98,0 0,18 -98,0 0,-18z" />
<path style="fill:#666" d="M401,28 l98,0 0,18 -98,0 0,-18z" />
<path style="fill:#666" d="M282,28 l98,0 0,18 -98,0 0,-18z" />
<path style="fill:#666" d="M165,28 l98,0 0,18 -98,0 0,-18z" />
<path style="fill:#666" d="M46,28 l99,0 0,18 -99,0 0,-18z" />
<path style="fill:#787878" d="M761,28 l85,0 0,18 -85,0 0,-18z" />
<path style="fill:#787878" d="M644,28 l83,0 0,18 -83,0 0,-18z" />
<path style="fill:#787878" d="M525,28 l85,0 0,18 -85,0 0,-18z" />
<path style="fill:#787878" d="M408,28 l83,0 0,18 -83,0 0,-18z" />
<path style="fill:#787878" d="M290,28 l85,0 0,18 -85,0 0,-18z" />
<path style="fill:#787878" d="M173,28 l83,0 0,18 -83,0 0,-18z" />
<path style="fill:#787878" d="M54,28 l85,0 0,18 -85,0 0,-18z" />
<path style="fill:#878787" d="M769,28 l69,0 0,18 -69,0 0,-18z" />
<path style="fill:#878787" d="M652,28 l68,0 0,18 -68,0 0,-18z" />
<path style="fill:#878787" d="M533,28 l70,0 0,18 -70,0 0,-18z" />
<path style="fill:#878787" d="M416,28 l68,0 0,18 -68,0 0,-18z" />
<path style="fill:#878787" d="M297,28 l70,0 0,18 -70,0 0,-18z" />
<path style="fill:#878787" d="M181,28 l67,0 0,18 -67,0 0,-18z" />
<path style="fill:#878787" d="M62,28 l69,0 0,18 -69,0 0,-18z" />
<path style="fill:#999" d="M776,28 l55,0 0,18 -55,0 0,-18z" />
<path style="fill:#999" d="M657,28 l57,0 0,18 -57,0 0,-18z" />
<path style="fill:#999" d="M541,28 l54,0 0,18 -54,0 0,-18z" />
<path style="fill:#999" d="M422,28 l56,0 0,18 -56,0 0,-18z" />
<path style="fill:#999" d="M305,28 l55,0 0,18 -55,0 0,-18z" />
<path style="fill:#999" d="M186,28 l57,0 0,18 -57,0 0,-18z" />
<path style="fill:#999" d="M69,28 l55,0 0,18 -55,0 0,-18z" />
<path style="fill:#ababab" d="M784,28 l39,0 0,18 -39,0 0,-18z" />
<path style="fill:#ababab" d="M665,28 l41,0 0,18 -41,0 0,-18z" />
<path style="fill:#ababab" d="M548,28 l40,0 0,18 -40,0 0,-18z" />
<path style="fill:#ababab" d="M429,28 l42,0 0,18 -42,0 0,-18z" />
<path style="fill:#ababab" d="M312,28 l40,0 0,18 -40,0 0,-18z" />
<path style="fill:#ababab" d="M193,28 l42,0 0,18 -42,0 0,-18z" />
<path style="fill:#ababab" d="M77,28 l39,0 0,18 -39,0 0,-18z" />
<path style="fill:#bababa" d="M789,28 l28,0 0,18 -28,0 0,-18z" />
<path style="fill:#bababa" d="M672,28 l27,0 0,18 -27,0 0,-18z" />
<path style="fill:#bababa" d="M554,28 l28,0 0,18 -28,0 0,-18z" />
<path style="fill:#bababa" d="M437,28 l26,0 0,18 -26,0 0,-18z" />
<path style="fill:#bababa" d="M318,28 l28,0 0,18 -28,0 0,-18z" />
<path style="fill:#bababa" d="M201,28 l26,0 0,18 -26,0 0,-18z" />
<path style="fill:#bababa" d="M82,28 l29,0 0,18 -29,0 0,-18z" />
<path style="fill:#ccc" d="M797,28 l13,0 0,18 -13,0 0,-18z" />
<path style="fill:#ccc" d="M680,28 l11,0 0,18 -11,0 0,-18z" />
<path style="fill:#ccc" d="M561,28 l13,0 0,18 -13,0 0,-18z" />
<path style="fill:#ccc" d="M444,28 l12,0 0,18 -12,0 0,-18z" />
<path style="fill:#ccc" d="M326,28 l13,0 0,18 -13,0 0,-18z" />
<path style="fill:#ccc" d="M209,28 l11,0 0,18 -11,0 0,-18z" />
<path style="fill:#ccc" d="M90,28 l13,0 0,18 -13,0 0,-18z" />
<path style="fill:#333;stroke:#000;stroke-width:2" d="M107,341 l0,-59 313,0 0,-19 236,0 0,-39 158,0 0,58 98,0 0,59 -805,0z" />
<path style="fill:#ccc;stroke:#000;stroke-width:2" d="M28,46 l942,0 0,295 -58,0 0,-117 -884,0 0,-178z" />
<path style="fill:#bfbfbf;stroke:#000;stroke-width:2" d="M28,341 l0,20 942,0 0,-20 -942,0z" />
<path style="fill:#bfbfbf;stroke:#000;stroke-width:2" d="M716,224 l0,117 19,0 0,-117 -19,0z" />
<path style="fill:#bfbfbf;stroke:#000;stroke-width:2" d="M578,224 l0,117 19,0 0,-117 -19,0z" />
<path style="fill:#bfbfbf;stroke:#000;stroke-width:2" d="M441,224 l0,117 18,0 0,-117 -18,0z" />
<path style="fill:#bfbfbf;stroke:#000;stroke-width:2" d="M303,224 l0,117 19,0 0,-117 -19,0z" />
<path style="fill:#bfbfbf;stroke:#000;stroke-width:2" d="M165,224 l0,117 19,0 0,-117 -19,0z" />
<path style="fill:#bfbfbf;stroke:#000;stroke-width:2" d="M28,224 l0,117 18,0 0,-117 -18,0z" />
<path style="fill:#666;stroke:#000;stroke-width:2" d="M695,341 l0,-78 177,0 0,78 -177,0z" />
<path style="fill:#666;stroke:#000;stroke-width:2" d="M82,341 l0,-98 117,0 0,98 -117,0z" />
<path style="fill:#b2b2b2" d="M46,71 l0,119 811,0 0,-119 -811,0z" />
<path style="fill:none;stroke:#000;stroke-width:2" d="M46,186 l119,0" />
<path style="fill:none;stroke:#000;stroke-width:2" d="M165,165 l-119,0" />
<path style="fill:none;stroke:#000;stroke-width:2" d="M46,147 l119,0" />
<path style="fill:none;stroke:#000;stroke-width:2" d="M165,126 l-119,0" />
<path style="fill:none;stroke:#000;stroke-width:2" d="M46,107 l119,0" />
<path style="fill:none;stroke:#000;stroke-width:2" d="M165,86 l-119,0" />
<path style="fill:none;stroke:#000;stroke-width:2" d="M46,175 l119,0" />
<path style="fill:none;stroke:#000;stroke-width:2" d="M165,156 l-119,0" />
<path style="fill:none;stroke:#000;stroke-width:2" d="M46,137 l119,0" />
<path style="fill:none;stroke:#000;stroke-width:2" d="M165,116 l-119,0" />
<path style="fill:none;stroke:#000;stroke-width:2" d="M46,97 l119,0" />
<path style="fill:none;stroke:#000;stroke-width:2" d="M165,77 l-119,0" />
<path style="fill:none;stroke:#000;stroke-width:2" d="M184,186 l119,0" />
<path style="fill:none;stroke:#000;stroke-width:2" d="M303,165 l-119,0" />
<path style="fill:none;stroke:#000;stroke-width:2" d="M184,147 l119,0" />
<path style="fill:none;stroke:#000;stroke-width:2" d="M303,126 l-119,0" />
<path style="fill:none;stroke:#000;stroke-width:2" d="M184,107 l119,0" />
<path style="fill:none;stroke:#000;stroke-width:2" d="M303,86 l-119,0" />
<path style="fill:none;stroke:#000;stroke-width:2" d="M184,175 l119,0" />
<path style="fill:none;stroke:#000;stroke-width:2" d="M303,156 l-119,0" />
<path style="fill:none;stroke:#000;stroke-width:2" d="M184,137 l119,0" />
<path style="fill:none;stroke:#000;stroke-width:2" d="M303,116 l-119,0" />
<path style="fill:none;stroke:#000;stroke-width:2" d="M184,97 l119,0" />
<path style="fill:none;stroke:#000;stroke-width:2" d="M303,77 l-119,0" />
<path style="fill:none;stroke:#000;stroke-width:2" d="M322,186 l119,0" />
<path style="fill:none;stroke:#000;stroke-width:2" d="M441,165 l-119,0" />
<path style="fill:none;stroke:#000;stroke-width:2" d="M322,147 l119,0" />
<path style="fill:none;stroke:#000;stroke-width:2" d="M441,126 l-119,0" />
<path style="fill:none;stroke:#000;stroke-width:2" d="M322,107 l119,0" />
<path style="fill:none;stroke:#000;stroke-width:2" d="M441,86 l-119,0" />
<path style="fill:none;stroke:#000;stroke-width:2" d="M322,175 l119,0" />
<path style="fill:none;stroke:#000;stroke-width:2" d="M441,156 l-119,0" />
<path style="fill:none;stroke:#000;stroke-width:2" d="M322,137 l119,0" />
<path style="fill:none;stroke:#000;stroke-width:2" d="M441,116 l-119,0" />
<path style="fill:none;stroke:#000;stroke-width:2" d="M322,97 l119,0" />
<path style="fill:none;stroke:#000;stroke-width:2" d="M441,77 l-119,0" />
<path style="fill:none;stroke:#000;stroke-width:2" d="M459,186 l119,0" />
<path style="fill:none;stroke:#000;stroke-width:2" d="M578,165 l-119,0" />
<path style="fill:none;stroke:#000;stroke-width:2" d="M459,147 l119,0" />
<path style="fill:none;stroke:#000;stroke-width:2" d="M578,126 l-119,0" />
<path style="fill:none;stroke:#000;stroke-width:2" d="M459,107 l119,0" />
<path style="fill:none;stroke:#000;stroke-width:2" d="M578,86 l-119,0" />
<path style="fill:none;stroke:#000;stroke-width:2" d="M459,175 l119,0" />
<path style="fill:none;stroke:#000;stroke-width:2" d="M578,156 l-119,0" />
<path style="fill:none;stroke:#000;stroke-width:2" d="M459,137 l119,0" />
<path style="fill:none;stroke:#000;stroke-width:2" d="M578,116 l-119,0" />
<path style="fill:none;stroke:#000;stroke-width:2" d="M459,97 l119,0" />
<path style="fill:none;stroke:#000;stroke-width:2" d="M578,77 l-119,0" />
<path style="fill:none;stroke:#000;stroke-width:2" d="M597,186 l119,0" />
<path style="fill:none;stroke:#000;stroke-width:2" d="M716,165 l-119,0" />
<path style="fill:none;stroke:#000;stroke-width:2" d="M597,147 l119,0" />
<path style="fill:none;stroke:#000;stroke-width:2" d="M716,126 l-119,0" />
<path style="fill:none;stroke:#000;stroke-width:2" d="M597,107 l119,0" />
<path style="fill:none;stroke:#000;stroke-width:2" d="M716,86 l-119,0" />
<path style="fill:none;stroke:#000;stroke-width:2" d="M597,175 l119,0" />
<path style="fill:none;stroke:#000;stroke-width:2" d="M716,156 l-119,0" />
<path style="fill:none;stroke:#000;stroke-width:2" d="M597,137 l119,0" />
<path style="fill:none;stroke:#000;stroke-width:2" d="M716,116 l-119,0" />
<path style="fill:none;stroke:#000;stroke-width:2" d="M597,97 l119,0" />
<path style="fill:none;stroke:#000;stroke-width:2" d="M716,77 l-119,0" />
<path style="fill:none;stroke:#000;stroke-width:2" d="M735,186 l116,0" />
<path style="fill:none;stroke:#000;stroke-width:2" d="M851,165 l-116,0" />
<path style="fill:none;stroke:#000;stroke-width:2" d="M735,147 l116,0" />
<path style="fill:none;stroke:#000;stroke-width:2" d="M851,126 l-116,0" />
<path style="fill:none;stroke:#000;stroke-width:2" d="M735,107 l116,0" />
<path style="fill:none;stroke:#000;stroke-width:2" d="M851,86 l-116,0" />
<path style="fill:none;stroke:#000;stroke-width:2" d="M735,175 l116,0" />
<path style="fill:none;stroke:#000;stroke-width:2" d="M851,156 l-116,0" />
<path style="fill:none;stroke:#000;stroke-width:2" d="M735,137 l116,0" />
<path style="fill:none;stroke:#000;stroke-width:2" d="M851,116 l-116,0" />
<path style="fill:none;stroke:#000;stroke-width:2" d="M735,97 l116,0" />
<path style="fill:none;stroke:#000;stroke-width:2" d="M851,77 l-116,0" />
<path style="fill:none;stroke:#000;stroke-width:2" d="M46,28 l99,0 0,18 -99,0 0,-18" />
<path style="fill:none;stroke:#000;stroke-width:2" d="M165,28 l98,0 0,18 -98,0 0,-18" />
<path style="fill:none;stroke:#000;stroke-width:2" d="M282,28 l98,0 0,18 -98,0 0,-18" />
<path style="fill:none;stroke:#000;stroke-width:2" d="M401,28 l98,0 0,18 -98,0 0,-18" />
<path style="fill:none;stroke:#000;stroke-width:2" d="M518,28 l98,0 0,18 -98,0 0,-18" />
<path style="fill:none;stroke:#000;stroke-width:2" d="M637,28 l98,0 0,18 -98,0 0,-18" />
<path style="fill:none;stroke:#000;stroke-width:2" d="M753,28 l98,0 0,18 -98,0 0,-18" />
<path style="fill:none;stroke:#b2b2b2;stroke-width:2" d="M912,224 l0,-178" />

</svg>
