 

<svg xmlns:agg="http://www.example.com" xmlns="http://www.w3.org/2000/svg" preserveAspectRatio="none" width="0.8210in" height="1.0750in" viewBox="0 0 763 999">

<path style="fill:#f00;stroke:#000;stroke-width:2" d="M67,970 l0,-707 196,-235 0,707 -196,235z" />
<path style="fill:#f00;stroke:#000;stroke-width:2" d="M185,970 l0,-707 196,-235 0,707 -196,235z" />
<path style="fill:#f00;stroke:#000;stroke-width:2" d="M303,970 l0,-707 196,-235 0,707 -196,235z" />
<path style="fill:#f00;stroke:#000;stroke-width:2" d="M420,970 l0,-707 197,-235 0,707 -197,235z" />
<path style="fill:#f00;stroke:#000;stroke-width:2" d="M538,970 l0,-707 197,-235 0,707 -197,235z" />
<path style="fill:#ffe5e5;stroke:#000;stroke-width:2" d="M28,263 l39,0 196,-235 -39,0 -196,235z" />
<path style="fill:#ffe5e5;stroke:#000;stroke-width:2" d="M146,263 l39,0 196,-235 -39,0 -196,235z" />
<path style="fill:#ffe5e5;stroke:#000;stroke-width:2" d="M263,263 l40,0 196,-235 -39,0 -197,235z" />
<path style="fill:#ffe5e5;stroke:#000;stroke-width:2" d="M381,263 l39,0 197,-235 -39,0 -197,235z" />
<path style="fill:#ffe5e5;stroke:#000;stroke-width:2" d="M499,263 l39,0 197,-235 -40,0 -196,235z" />
<path style="fill:#bf0000;stroke:#000;stroke-width:2" d="M28,263 l39,0 0,707 -39,0 0,-707z" />
<path style="fill:#bf0000;stroke:#000;stroke-width:2" d="M146,263 l39,0 0,707 -39,0 0,-707z" />
<path style="fill:#bf0000;stroke:#000;stroke-width:2" d="M263,263 l40,0 0,707 -40,0 0,-707z" />
<path style="fill:#bf0000;stroke:#000;stroke-width:2" d="M381,263 l39,0 0,707 -39,0 0,-707z" />
<path style="fill:#bf0000;stroke:#000;stroke-width:2" d="M499,263 l39,0 0,707 -39,0 0,-707z" />

</svg>
