 

<svg xmlns:agg="http://www.example.com" xmlns="http://www.w3.org/2000/svg" preserveAspectRatio="none" width="0.4251in" height="1.0750in" viewBox="0 0 395 999">

<path style="fill:#b2b2b2;stroke:#000;stroke-width:2" d="M216,895 l95,0 0,57 -95,0 0,-57z" />
<path style="fill:#b2b2b2;stroke:#000;stroke-width:2" d="M84,895 l94,0 0,57 -94,0 0,-57z" />
<path style="fill:#bfbfbf" d="M226,895 l75,0 0,57 -75,0 0,-57z" />
<path style="fill:#bfbfbf" d="M94,895 l75,0 0,57 -75,0 0,-57z" />
<path style="fill:#ccc" d="M235,895 l57,0 0,57 -57,0 0,-57z" />
<path style="fill:#ccc" d="M103,895 l57,0 0,57 -57,0 0,-57z" />
<path style="fill:#d9d9d9" d="M245,895 l37,0 0,57 -37,0 0,-57z" />
<path style="fill:#d9d9d9" d="M113,895 l37,0 0,57 -37,0 0,-57z" />
<path style="fill:#e5e5e5" d="M254,895 l19,0 0,57 -19,0 0,-57z" />
<path style="fill:#e5e5e5" d="M122,895 l19,0 0,57 -19,0 0,-57z" />
<path style="fill:#b2b2b2;stroke:#000;stroke-width:2" d="M28,857 l0,38 339,0 0,-38 -339,0z" />
<path style="fill:#ccc;stroke:#000;stroke-width:2" d="M28,820 l0,37 132,38 75,0 132,-38 0,-37 -339,0z" />
<path style="fill:#fff;stroke:#000;stroke-width:2" d="M78,952 l104,0 0,18 -104,0 0,-18z" />
<path style="fill:#fff;stroke:#000;stroke-width:2" d="M211,952 l103,0 0,18 -103,0 0,-18z" />
<path style="fill:#f60" d="M329,28 l-264,0 -37,37 0,755 37,37 264,0 38,-37 0,-755 -38,-37z" />
<path style="fill:#fa6100" d="M28,527 l0,293 37,37 264,0 38,-37 0,-447 -339,154z" />
<path style="fill:#f55c00" d="M28,546 l0,274 37,37 264,0 38,-37 0,-431 -339,157z" />
<path style="fill:#f05700" d="M28,584 l0,236 37,37 264,0 38,-37 0,-393 -339,157z" />
<path style="fill:#000;stroke:#999;stroke-width:2" d="M252,735 l-7,-8 0,-13 7,-8 11,0 10,8 0,13 -10,8 -11,0z" />
<path style="fill:#000;stroke:#999;stroke-width:2" d="M65,84 l-9,-9 0,-10 9,-9 10,0 9,9 0,10 -9,9 -10,0z" />
<path style="fill:#000;stroke:#999;stroke-width:2" d="M318,84 l-7,-7 0,-14 7,-7 13,0 8,7 0,14 -8,7 -13,0z" />
<path style="fill:#000;stroke:#999;stroke-width:2" d="M63,838 l-7,-9 0,-11 7,-8 14,0 7,8 0,11 -7,9 -14,0z" />
<path style="fill:#000;stroke:#999;stroke-width:2" d="M318,838 l-7,-9 0,-11 7,-8 13,0 8,8 0,11 -8,9 -13,0z" />
<path style="fill:#000;stroke:#999;stroke-width:2" d="M63,329 l-7,-7 0,-13 7,-8 14,0 7,8 0,13 -7,7 -14,0z" />
<path style="fill:#000;stroke:#999;stroke-width:2" d="M318,329 l-7,-7 0,-13 7,-8 13,0 8,8 0,13 -8,7 -13,0z" />
<path style="fill:#ccb27f;stroke:#999;stroke-width:2" d="M192,489 l-10,-9 0,-11 10,-8 11,0 8,8 0,11 -8,9 -11,0z" />
<path style="fill:#997f4c;stroke:#999;stroke-width:2" d="M192,635 l-10,-8 0,-11 10,-7 11,0 8,7 0,11 -8,8 -11,0z" />
<path style="fill:#000" d="M194,631 l-6,-6 0,-7 6,-6 7,0 6,6 0,7 -6,6 -7,0z" />
<path style="fill:#ccb27f;stroke:#999;stroke-width:2" d="M58,612 l-11,-11 0,-15 11,-12 15,0 11,12 0,15 -11,11 -15,0z" />
<path style="fill:#000" d="M178,141 l2,-38 34,0 34,10 30,16 25,25 17,30 9,36 -9,-21 -17,-23 -25,-16 -30,-14 -34,-5 -36,0z" />
<path style="fill:none;stroke:#f60;stroke-width:2" d="M216,103 l-19,123" />
<path style="fill:none;stroke:#f60;stroke-width:2" d="M254,103 l-57,123" />
<path style="fill:none;stroke:#f60;stroke-width:2" d="M292,113 l-95,113" />
<path style="fill:none;stroke:#f60;stroke-width:2" d="M311,150 l-114,76" />
<path style="fill:none;stroke:#f60;stroke-width:2" d="M329,178 l-132,48" />
<path style="fill:#4c4c4c;stroke:#000;stroke-width:2" d="M246,258 l-15,15 -20,9 -23,0 -21,-9 -17,-15 -7,-21 0,-23 7,-20 15,-18 23,-7 21,0 20,7 17,18 10,20 0,21 -10,23z" />
<path style="fill:#b2b2b2;stroke:#000;stroke-width:2" d="M184,252 l42,-39 52,-14 27,27 -106,105 -28,-26 13,-53z" />
<circle style="fill:#000" cx="198" cy="224" r="29" />
<path style="fill:#f60" d="M201,322 l-6,0 -3,-4 0,-6 3,-3 6,0 4,3 0,6 -4,4z" />
<path style="fill:#f60" d="M292,231 l-6,0 -6,-3 0,-6 6,-4 6,0 3,4 0,6 -3,3z" />
<path style="fill:#ccc;stroke:#000;stroke-width:2" d="M205,326 l9,-12 8,8 -9,9 -8,-5z" />
<path style="fill:#ccc;stroke:#000;stroke-width:2" d="M282,248 l10,-9 7,5 -11,10 -6,-6z" />
<path style="fill:#999;stroke:#000;stroke-width:2" d="M299,231 l-7,8 7,5 6,-5 -6,-8z" />
<path style="fill:#999;stroke:#000;stroke-width:2" d="M222,309 l-8,5 8,8 6,-8 -6,-5z" />
<path style="fill:#e5e5e5;stroke:#000;stroke-width:2" d="M216,326 l8,-6 19,21 -6,5 -21,-20z" />
<path style="fill:#e5e5e5;stroke:#000;stroke-width:2" d="M293,250 l6,-7 21,20 -8,6 -19,-19z" />
<path style="fill:#e5e5e5;stroke:#000;stroke-width:2" d="M288,209 l4,-10 20,0 0,19 -11,4 -13,-13z" />
<path style="fill:none;stroke:#000;stroke-width:2" d="M329,28 l-264,0 -37,37 0,755 37,37 264,0 38,-37 0,-755 -38,-37" />
<path style="fill:none;stroke:#000;stroke-width:2" d="M65,367 l42,0" />
<path style="fill:none;stroke:#000;stroke-width:2" d="M122,376 l-75,0" />
<path style="fill:none;stroke:#000;stroke-width:2" d="M333,367 l-85,0" />
<path style="fill:none;stroke:#000;stroke-width:2" d="M241,380 l102,0" />
<path style="fill:none;stroke:#000;stroke-width:2" d="M263,395 l51,0" />
<path style="fill:none;stroke:#000;stroke-width:2" d="M273,405 l38,0" />
<path style="fill:none;stroke:#000;stroke-width:2" d="M263,442 l57,0" />
<path style="fill:none;stroke:#000;stroke-width:2" d="M333,452 l-85,0" />
<path style="fill:none;stroke:#000;stroke-width:2" d="M273,461 l41,0" />
<path style="fill:none;stroke:#000;stroke-width:2" d="M273,471 l41,0" />
<path style="fill:none;stroke:#000;stroke-width:2" d="M273,518 l38,0" />
<path style="fill:none;stroke:#000;stroke-width:2" d="M314,527 l-41,0" />
<path style="fill:none;stroke:#000;stroke-width:2" d="M178,635 l-28,0" />
<path style="fill:none;stroke:#000;stroke-width:2" d="M220,635 l28,0" />
<path style="fill:none;stroke:#000;stroke-width:2" d="M276,744 l48,0" />
<path style="fill:none;stroke:#000;stroke-width:2" d="M276,733 l48,0" />
<path style="fill:none;stroke:#000;stroke-width:2" d="M276,710 l48,0" />
<path style="fill:none;stroke:#000;stroke-width:2" d="M324,701 l-48,0" />
<path style="fill:none;stroke:#000;stroke-width:2" d="M160,820 l75,0" />
<path style="fill:none;stroke:#000;stroke-width:2" d="M245,829 l-95,0" />
<path style="fill:none;stroke:#000;stroke-width:2" d="M150,838 l95,0" />
<path style="fill:#fff;stroke:#999;stroke-width:2" d="M241,885 l13,0 0,-13 -13,0 0,13z" />
<path style="fill:#fff;stroke:#999;stroke-width:2" d="M141,885 l13,0 0,-13 -13,0 0,13z" />
<path style="fill:#000" d="M192,895 l11,0 0,-34 -11,0 0,34z" />

</svg>
