 

<svg xmlns:agg="http://www.example.com" xmlns="http://www.w3.org/2000/svg" preserveAspectRatio="none" width="1.4075in" height="1.0750in" viewBox="0 0 999 763">

<path style="fill:#164c4c" d="M28,361 l0,-137 78,0 0,-39 236,0 0,39 78,0 0,-196 40,0 0,196 20,0 0,-196 39,0 0,196 59,-78 78,0 0,-79 196,0 0,-39 79,0 0,157 -20,0 0,78 59,0 0,98 -942,0z" />
<path style="fill:#597f7f" d="M48,617 l903,0 0,-256 -903,0 0,256z" />
<path style="fill:#688c8c" d="M48,597 l903,0 0,-216 -903,0 0,216z" />
<path style="fill:#7a9999" d="M48,577 l903,0 0,-177 -903,0 0,177z" />
<path style="fill:#8aa6a6" d="M48,558 l903,0 0,-138 -903,0 0,138z" />
<path style="fill:#9bb2b2" d="M48,538 l903,0 0,-99 -903,0 0,99z" />
<path style="fill:#abbfbf" d="M48,518 l903,0 0,-59 -903,0 0,59z" />
<path style="fill:#bdcccc" d="M48,499 l903,0 0,-20 -903,0 0,20z" />
<path style="fill:none;stroke:#000;stroke-width:2" d="M48,617 l903,0 0,-256 -903,0 0,256" />
<path style="fill:#386666" d="M126,342 l79,0 0,-255 -79,0 0,255z" />
<path style="fill:#597f7f" d="M205,146 l490,0 0,-40 -490,0 0,40z" />
<path style="fill:#597f7f" d="M126,303 l79,0 0,-177 -79,0 0,177z" />
<path style="fill:#033" d="M205,361 l647,0 0,-117 -647,0 0,117z" />
<path style="fill:#597f7f" d="M813,342 l157,0 0,-39 -157,0 0,39z" />
<path style="fill:#597f7f" d="M715,302 l-157,0 0,40 157,0 0,-40z" />
<path style="fill:#7a9999" d="M813,283 l157,0 0,20 -157,0 0,-20z" />
<path style="fill:#7a9999" d="M813,342 l157,0 0,19 -157,0 0,-19z" />
<path style="fill:#7a9999" d="M715,361 l-157,0 0,-19 157,0 0,19z" />
<path style="fill:#7a9999" d="M715,303 l-157,0 0,-20 157,0 0,20z" />
<path style="fill:#9bb2b2;stroke:#000;stroke-width:2" d="M950,342 l20,0 0,393 -20,0 0,-393z" />
<path style="fill:#9bb2b2;stroke:#000;stroke-width:2" d="M28,342 l20,0 0,393 -20,0 0,-393z" />
<path style="fill:#9bb2b2" d="M695,283 l0,19 20,0 0,40 -20,0 0,19 59,0 0,-19 -19,0 0,-40 19,0 0,-19 -59,0z" />
<path style="fill:#9bb2b2" d="M833,361 l0,-19 -20,0 0,-39 20,0 0,-20 -59,0 0,20 20,0 0,39 -20,0 0,19 59,0z" />
<path style="fill:#7a9999" d="M126,263 l79,0 0,-98 -79,0 0,98z" />
<path style="fill:#386666" d="M735,283 l137,0 0,-196 -137,0 0,196z" />
<path style="fill:#bdcccc" d="M852,67 l6,0 0,216 -6,0 0,-216z" />
<path style="fill:#bdcccc" d="M864,67 l5,0 0,216 -5,0 0,-216z" />
<path style="fill:#bdcccc" d="M875,67 l5,0 0,216 -5,0 0,-216z" />
<path style="fill:#bdcccc" d="M886,67 l6,0 0,216 -6,0 0,-216z" />
<path style="fill:#9bb2b2" d="M224,342 l0,-6 334,0 0,6 -334,0z" />
<path style="fill:#9bb2b2;stroke:#000;stroke-width:2" d="M67,263 l157,0 0,118 -157,0 0,-118z" />
<path style="fill:#7a9999;stroke:#000;stroke-width:2" d="M263,283 l118,0 0,98 -118,0 0,-98z" />
<path style="fill:#386666" d="M205,204 l490,0 0,40 -490,0 0,-40z" />
<path style="fill:#9bb2b2;stroke:#000;stroke-width:2" d="M499,87 l79,0 0,235 -79,0 0,-235z" />
<path style="fill:#bdcccc" d="M440,263 l0,-5 314,0 0,5 -314,0z" />
<path style="fill:#bdcccc" d="M440,230 l0,-6 314,0 0,6 -314,0z" />
<path style="fill:#ccc;stroke:#000;stroke-width:2" d="M401,244 l137,0 0,157 -137,0 0,-157z" />
<path style="fill:#bdcccc" d="M552,146 l6,0 0,269 -6,0 0,-269z" />
<path style="fill:#bdcccc" d="M249,420 l0,-5 309,0 0,5 -309,0z" />
<path style="fill:#bdcccc" d="M244,263 l6,0 0,157 -6,0 0,-157z" />
<path style="fill:#4c4c4c" d="M420,263 l99,0 0,59 -99,0 0,-59z" />
<path style="fill:#e5e5e5" d="M430,268 l35,0 0,49 -35,0 0,-49z" />
<path style="fill:#e5e5e5" d="M474,298 l15,0 0,19 -15,0 0,-19z" />
<path style="fill:#e5e5e5" d="M494,298 l15,0 0,19 -15,0 0,-19z" />
<path style="fill:#4c4c4c" d="M435,298 l25,0 0,14 -25,0 0,-14z" />
<path style="fill:#033" d="M469,348 l15,14 -14,14 -14,-15 13,-13z" />
<path style="fill:none;stroke:#dde5e5;stroke-width:2" d="M263,381 l0,-98 118,0" />
<path style="fill:none;stroke:#dde5e5;stroke-width:2" d="M67,381 l0,-118 157,0" />
<path style="fill:#333;stroke:#000;stroke-width:2" d="M288,317 l69,0 0,54 -69,0 0,-54z" />
<path style="fill:none;stroke:#fff;stroke-width:2" d="M401,401 l0,-157 137,0" />
<path style="fill:none;stroke:#fff;stroke-width:2" d="M288,371 l0,-54 69,0" />
<path style="fill:#597f7f" d="M72,283 l10,0 0,25 -10,0 0,-25z" />

</svg>
