 

<svg xmlns:agg="http://www.example.com" xmlns="http://www.w3.org/2000/svg" preserveAspectRatio="none" width="1.1686in" height="1.0750in" viewBox="0 0 999 919">

<path style="fill:#e5e5cb" d="M67,65 l0,807 864,0 0,-807 -864,0 -40,-38 944,0 0,864 -944,0 0,-864 40,38z" />
<path style="fill:none;stroke:#000;stroke-width:2" d="M27,27 l944,0 0,864 -944,0 0,-864" />
<path style="fill:none;stroke:#000;stroke-width:2" d="M67,126 l413,0 0,746 38,0 0,-746 413,0 0,-61 -864,0 0,61" />
<path style="fill:none;stroke:#000;stroke-width:2" d="M67,65 l864,0 0,807 -864,0 0,-807" />
<path style="fill:#ccccb2" d="M67,126 l413,0 0,746 38,0 0,-746 413,0 0,-61 -864,0 0,61z" />
<path style="fill:#b2b298" d="M67,105 l864,0 0,21 -864,0 0,-21z" />
<path style="fill:#ffffe5" d="M58,65 l9,0 0,807 -9,0 0,-807z" />
<path style="fill:#ffffe5" d="M931,65 l9,0 0,807 -9,0 0,-807z" />
<path style="fill:#ffffe5" d="M940,56 l0,9 -882,0 0,-9 882,0z" />
<path style="fill:#ffffe5" d="M493,65 l12,0 0,807 -12,0 0,-807z" />
<path style="fill:none;stroke:#b2b265;stroke-width:2" d="M58,872 l0,-816 882,0 0,816" />
<path style="fill:#000" d="M67,150 l426,0 0,34 -426,0 0,-34z" />
<path style="fill:#000" d="M46,150 l12,0 0,34 -12,0 0,-34z" />
<path style="fill:#000" d="M940,150 l12,0 0,34 -12,0 0,-34z" />
<path style="fill:#000" d="M505,150 l426,0 0,34 -426,0 0,-34z" />
<path style="fill:#000" d="M67,401 l426,0 0,34 -426,0 0,-34z" />
<path style="fill:#000" d="M46,401 l12,0 0,34 -12,0 0,-34z" />
<path style="fill:#000" d="M940,401 l12,0 0,34 -12,0 0,-34z" />
<path style="fill:#000" d="M505,401 l426,0 0,34 -426,0 0,-34z" />
<path style="fill:#000" d="M67,652 l426,0 0,34 -426,0 0,-34z" />
<path style="fill:#000" d="M46,652 l12,0 0,34 -12,0 0,-34z" />
<path style="fill:#000" d="M940,652 l12,0 0,34 -12,0 0,-34z" />
<path style="fill:#000" d="M505,652 l426,0 0,34 -426,0 0,-34z" />

</svg>
