 

<svg xmlns:agg="http://www.example.com" xmlns="http://www.w3.org/2000/svg" preserveAspectRatio="none" width="1.3875in" height="1.0750in" viewBox="0 0 999 774">

<path style="fill:#b2b2b2;stroke:#000;stroke-width:2" d="M103,689 l867,0 0,-605 -867,0 0,605z" />
<path style="fill:#ccc" d="M120,670 l0,-567 416,284 -416,283z" />
<path style="fill:#d9d9d9" d="M536,385 l-416,283 831,0 -415,-283z" />
<path style="fill:#bfbfbf" d="M951,670 l0,-567 -415,284 415,283z" />
<path style="fill:#4c4c4c;stroke:#000;stroke-width:2" d="M28,47 l113,0 0,18 -113,0 0,-18z" />
<path style="fill:#4c4c4c;stroke:#000;stroke-width:2" d="M28,706 l113,0 0,21 -113,0 0,-21z" />
<path style="fill:#b2b2b2;stroke:#000;stroke-width:2" d="M65,746 l38,0 0,-718 -38,0 0,718z" />

</svg>
