 

<svg xmlns:agg="http://www.example.com" xmlns="http://www.w3.org/2000/svg" preserveAspectRatio="none" width="1.6083in" height="0.7213in" viewBox="0 0 999 448">

<path style="fill:#f2e5cc" d="M28,28 l942,0 0,313 -942,0 0,-313z" />
<path style="fill:#ede0c7" d="M28,250 l942,-132 0,223 -942,0 0,-91z" />
<path style="fill:#e8dbc2" d="M28,263 l942,-132 0,210 -942,0 0,-78z" />
<path style="fill:#e3d6bd" d="M28,282 l942,-130 0,189 -942,0 0,-59z" />
<path style="fill:none;stroke:#000;stroke-width:2" d="M28,28 l942,0 0,313 -942,0 0,-313" />
<path style="fill:#bdb097" d="M46,341 l906,0 0,79 -906,0 0,-79z" />
<path style="fill:#c2b59c" d="M46,397 l906,-34 0,57 -906,0 0,-23z" />
<path style="fill:#c7baa1" d="M46,401 l906,-34 0,53 -906,0 0,-19z" />
<path style="fill:#ccbfa6" d="M46,405 l906,-32 0,47 -906,0 0,-15z" />
<path style="fill:none;stroke:#000;stroke-width:2" d="M46,341 l906,0 0,79 -906,0 0,-79" />
<path style="fill:none;stroke:#998c73;stroke-width:2" d="M46,341 l0,-313" />
<path style="fill:none;stroke:#998c73;stroke-width:2" d="M126,46 l403,0 0,276 -403,0 0,-276" />
<path style="fill:none;stroke:#998c73;stroke-width:2" d="M548,46 l404,0 0,276 -404,0 0,-276" />
<path style="fill:none;stroke:#000;stroke-width:2" d="M558,86 l39,0 0,-4 -39,0 0,-3 39,0 0,-2 -39,0 0,-4 39,0 0,-4 -39,0 0,-4 39,0" />
<path style="fill:none;stroke:#000;stroke-width:2" d="M606,86 l40,0 0,-4 -40,0 0,-3 40,0 0,-2 -40,0 0,-4 40,0 0,-4 -40,0 0,-4 40,0" />
<path style="fill:none;stroke:#000;stroke-width:2" d="M655,86 l40,0 0,-4 -40,0 0,-3 40,0 0,-2 -40,0 0,-4 40,0 0,-4 -40,0 0,-4 40,0" />
<path style="fill:none;stroke:#000;stroke-width:2" d="M704,86 l40,0 0,-4 -40,0 0,-3 40,0 0,-2 -40,0 0,-4 40,0 0,-4 -40,0 0,-4 40,0" />
<path style="fill:none;stroke:#000;stroke-width:2" d="M753,86 l40,0 0,-4 -40,0 0,-3 40,0 0,-2 -40,0 0,-4 40,0 0,-4 -40,0 0,-4 40,0" />
<path style="fill:none;stroke:#000;stroke-width:2" d="M803,86 l39,0 0,-4 -39,0 0,-3 39,0 0,-2 -39,0 0,-4 39,0 0,-4 -39,0 0,-4 39,0" />
<path style="fill:none;stroke:#000;stroke-width:2" d="M852,86 l39,0 0,-4 -39,0 0,-3 39,0 0,-2 -39,0 0,-4 39,0 0,-4 -39,0 0,-4 39,0" />
<path style="fill:none;stroke:#000;stroke-width:2" d="M901,86 l39,0 0,-4 -39,0 0,-3 39,0 0,-2 -39,0 0,-4 39,0 0,-4 -39,0 0,-4 39,0" />
<path style="fill:none;stroke:#000;stroke-width:2" d="M135,86 l40,0 0,-4 -40,0 0,-3 40,0 0,-2 -40,0 0,-4 40,0 0,-4 -40,0 0,-4 40,0" />
<path style="fill:none;stroke:#000;stroke-width:2" d="M184,86 l40,0 0,-4 -40,0 0,-3 40,0 0,-2 -40,0 0,-4 40,0 0,-4 -40,0 0,-4 40,0" />
<path style="fill:none;stroke:#000;stroke-width:2" d="M233,86 l40,0 0,-4 -40,0 0,-3 40,0 0,-2 -40,0 0,-4 40,0 0,-4 -40,0 0,-4 40,0" />
<path style="fill:none;stroke:#000;stroke-width:2" d="M282,86 l40,0 0,-4 -40,0 0,-3 40,0 0,-2 -40,0 0,-4 40,0 0,-4 -40,0 0,-4 40,0" />
<path style="fill:none;stroke:#000;stroke-width:2" d="M331,86 l40,0 0,-4 -40,0 0,-3 40,0 0,-2 -40,0 0,-4 40,0 0,-4 -40,0 0,-4 40,0" />
<path style="fill:none;stroke:#000;stroke-width:2" d="M380,86 l40,0 0,-4 -40,0 0,-3 40,0 0,-2 -40,0 0,-4 40,0 0,-4 -40,0 0,-4 40,0" />
<path style="fill:none;stroke:#000;stroke-width:2" d="M431,86 l38,0 0,-4 -38,0 0,-3 38,0 0,-2 -38,0 0,-4 38,0 0,-4 -38,0 0,-4 38,0" />
<path style="fill:none;stroke:#000;stroke-width:2" d="M480,86 l38,0 0,-4 -38,0 0,-3 38,0 0,-2 -38,0 0,-4 38,0 0,-4 -38,0 0,-4 38,0" />
<path style="fill:none;stroke:#000;stroke-width:2" d="M107,399 l117,0 0,-2 -117,0 0,-4 117,0 0,-3 -117,0 0,-2 117,0 0,-4 -117,0 0,-4 117,0 0,-4 -117,0 0,-1 117,0 0,-4 -117,0 0,-4 117,0 0,-4 -117,0 0,-2 117,0" />
<path style="fill:none;stroke:#000;stroke-width:2" d="M233,399 l196,0 0,-2 -196,0 0,-4 196,0 0,-3 -196,0 0,-2 196,0 0,-4 -196,0 0,-4 196,0 0,-4 -196,0 0,-1 196,0 0,-4 -196,0 0,-4 196,0 0,-4 -196,0 0,-2 196,0" />
<path style="fill:none;stroke:#000;stroke-width:2" d="M440,399 l118,0 0,-2 -118,0 0,-4 118,0 0,-3 -118,0 0,-2 118,0 0,-4 -118,0 0,-4 118,0 0,-4 -118,0 0,-1 118,0 0,-4 -118,0 0,-4 118,0 0,-4 -118,0 0,-2 118,0" />
<path style="fill:none;stroke:#000;stroke-width:2" d="M567,399 l198,0 0,-2 -198,0 0,-4 198,0 0,-3 -198,0 0,-2 198,0 0,-4 -198,0 0,-4 198,0 0,-4 -198,0 0,-1 198,0 0,-4 -198,0 0,-4 198,0 0,-4 -198,0 0,-2 198,0" />
<path style="fill:none;stroke:#000;stroke-width:2" d="M774,399 l117,0 0,-2 -117,0 0,-4 117,0 0,-3 -117,0 0,-2 117,0 0,-4 -117,0 0,-4 117,0 0,-4 -117,0 0,-1 117,0 0,-4 -117,0 0,-4 117,0 0,-4 -117,0 0,-2 117,0" />
<path style="fill:#000" d="M165,52 l19,0 0,10 -19,0 0,-10z" />
<path style="fill:#000" d="M469,52 l20,0 0,10 -20,0 0,-10z" />
<path style="fill:#000" d="M588,52 l18,0 0,10 -18,0 0,-10z" />
<path style="fill:#000" d="M891,52 l21,0 0,10 -21,0 0,-10z" />

</svg>
