 

<svg xmlns:agg="http://www.example.com" xmlns="http://www.w3.org/2000/svg" preserveAspectRatio="none" width="0.6521in" height="1.0750in" viewBox="0 0 606 999">

<path style="fill:#a6cca6;stroke:#000;stroke-width:2" d="M28,48 l39,-20 510,0 -39,20 -510,0z" />
<path style="fill:#000" d="M528,965 l40,-19 0,-55 -40,20 0,54z" />
<path style="fill:#000" d="M38,911 l0,54 490,0 0,-54 -490,0z" />
<path style="fill:none;stroke:#7f7f7f;stroke-width:2" d="M528,965 l0,-54" />
<path style="fill:#739973;stroke:#000;stroke-width:2" d="M28,911 l0,-863 137,0 0,-20 40,0 0,20 333,0 0,863 -510,0z" />
<path style="fill:#6b916b" d="M28,911 l0,-255 510,-235 0,490 -510,0z" />
<path style="fill:#618761" d="M28,911 l0,-176 510,-236 0,412 -510,0z" />
<path style="fill:#597f59" d="M28,911 l0,-137 510,-236 0,373 -510,0z" />
<path style="fill:none;stroke:#fff;stroke-width:2" d="M165,48 l0,-20 40,0" />
<path style="fill:none;stroke:#fff;stroke-width:2" d="M28,911 l0,-863 510,0" />
<path style="fill:#739973;stroke:#000;stroke-width:2" d="M460,911 l0,15 59,0 0,-15 -59,0z" />
<path style="fill:#739973;stroke:#000;stroke-width:2" d="M48,911 l0,15 59,0 0,-15 -59,0z" />
<path style="fill:#7f7f7f;stroke:#000;stroke-width:2" d="M475,921 l0,49 29,0 0,-49 -29,0z" />
<path style="fill:#7f7f7f;stroke:#000;stroke-width:2" d="M63,921 l0,49 29,0 0,-49 -29,0z" />
<path style="fill:#666" d="M475,955 l0,15 29,0 0,-15 -29,0z" />
<path style="fill:#666" d="M63,955 l0,15 29,0 0,-15 -29,0z" />
<path style="fill:#597f59" d="M62,273 l0,-9 137,0 0,-177 10,0 0,186 -147,0z" />
<path style="fill:none;stroke:#000;stroke-width:2" d="M62,77 l0,187 137,0 0,-187 -137,0" />
<path style="fill:none;stroke:#fff;stroke-width:2" d="M62,264 l0,-187 137,0" />
<path style="fill:#7387a6" d="M215,401 l0,34 137,0 0,-34 -137,0z" />
<path style="fill:#e5e5e5" d="M215,435 l0,64 137,0 0,-64 -137,0z" />
<path style="fill:#e5e5e5;stroke:#000;stroke-width:2" d="M401,205 l6,-14 13,-6 14,6 6,14 -6,14 -14,5 -13,-5 -6,-14z" />
<path style="fill:#e5e5e5;stroke:#000;stroke-width:2" d="M342,126 l5,-14 14,-5 14,5 6,14 -6,14 -14,6 -14,-6 -5,-14z" />
<path style="fill:#e5e5e5;stroke:#000;stroke-width:2" d="M283,205 l6,-14 14,-6 14,6 5,14 -5,14 -14,5 -14,-5 -6,-14z" />
<path style="fill:#c4ccc4" d="M342,156 l39,0 0,5 -39,0 0,-5z" />
<path style="fill:#c4ccc4" d="M401,234 l39,0 0,5 -39,0 0,-5z" />
<path style="fill:#c4ccc4" d="M283,234 l39,0 0,5 -39,0 0,-5z" />
<path style="fill:none;stroke:#f00;stroke-width:2" d="M310,212 l-18,-18" />
<path style="fill:none;stroke:#f00;stroke-width:2" d="M353,131 l21,-12" />
<path style="fill:none;stroke:#f00;stroke-width:2" d="M423,195 l-6,23" />
<path style="fill:#263a59" d="M77,109 l3,-9 9,-3 9,3 3,9 -3,9 -9,3 -9,-3 -3,-9z" />
<path style="fill:#263a59" d="M77,143 l3,-8 9,-4 9,4 3,8 -3,9 -9,4 -9,-4 -3,-9z" />
<path style="fill:#ccc" d="M141,97 l44,0 0,59 -44,0 0,-59z" />
<path style="fill:#900" d="M141,116 l44,0 0,20 -44,0 0,-20z" />
<path style="fill:#406640;stroke:#000;stroke-width:2" d="M538,911 l39,-19 0,-864 -39,20 0,863z" />
<path style="fill:#1a401a;stroke:#000;stroke-width:2" d="M548,897 l20,-10 0,-535 -20,10 0,535z" />
<path style="fill:#999" d="M92,970 l5,-24 -5,-25 -5,25 5,24z" />
<path style="fill:#999" d="M504,970 l5,-24 -5,-25 -5,25 5,24z" />

</svg>
