 

<svg xmlns:agg="http://www.example.com" xmlns="http://www.w3.org/2000/svg" preserveAspectRatio="none" width="1.6083in" height="0.7043in" viewBox="0 0 998 437">

<path style="fill:#666" d="M890,28 l0,20 80,160 -80,160 0,21 -20,0 0,-21 -602,0 -100,-100 -60,0 -40,-40 -40,0 0,-40 40,0 40,-40 60,0 100,-100 602,0 0,-20 20,0z" />
<path style="fill:#737373" d="M890,43 l0,18 80,147 -80,146 0,19 -20,0 0,-19 -602,0 -100,-91 -60,0 -40,-37 -40,0 0,-37 40,0 40,-36 60,0 100,-92 602,0 0,-18 20,0z" />
<path style="fill:#7d7d7d" d="M890,58 l0,17 80,133 -80,133 0,17 -20,0 0,-17 -602,0 -100,-83 -60,0 -40,-34 -40,0 0,-33 40,0 40,-33 60,0 100,-83 602,0 0,-17 20,0z" />
<path style="fill:#8a8a8a" d="M890,74 l0,15 80,119 -80,119 0,15 -20,0 0,-15 -602,0 -100,-74 -60,0 -40,-30 -40,0 0,-30 40,0 40,-30 60,0 100,-74 602,0 0,-15 20,0z" />
<path style="fill:#949494" d="M890,89 l0,13 80,106 -80,105 0,13 -20,0 0,-13 -602,0 -100,-66 -60,0 -40,-26 -40,0 0,-26 40,0 40,-27 60,0 100,-66 602,0 0,-13 20,0z" />
<path style="fill:#a1a1a1" d="M890,105 l0,11 80,92 -80,91 0,12 -20,0 0,-12 -602,0 -100,-57 -60,0 -40,-23 -40,0 0,-23 40,0 40,-23 60,0 100,-57 602,0 0,-11 20,0z" />
<path style="fill:#ababab" d="M890,120 l0,10 80,78 -80,78 0,9 -20,0 0,-9 -602,0 -100,-49 -60,0 -40,-19 -40,0 0,-20 40,0 40,-19 60,0 100,-49 602,0 0,-10 20,0z" />
<path style="fill:#b8b8b8" d="M890,136 l0,8 80,64 -80,64 0,8 -20,0 0,-8 -602,0 -100,-40 -60,0 -40,-16 -40,0 0,-16 40,0 40,-16 60,0 100,-40 602,0 0,-8 20,0z" />
<path style="fill:#c2c2c2" d="M890,151 l0,6 80,51 -80,50 0,6 -20,0 0,-6 -602,0 -100,-31 -60,0 -40,-13 -40,0 0,-13 40,0 40,-12 60,0 100,-32 602,0 0,-6 20,0z" />
<path style="fill:#cfcfcf" d="M890,167 l0,4 80,37 -80,36 0,5 -20,0 0,-5 -602,0 -100,-23 -60,0 -40,-8 -40,0 0,-10 40,0 40,-9 60,0 100,-23 602,0 0,-4 20,0z" />
<ellipse style="fill:#d9d9d9" cx="499" cy="207" rx="471" ry="25" />
<ellipse style="fill:#e5e5e5" cx="499" cy="208" rx="471" ry="10" />
<path style="fill:none;stroke:#000;stroke-width:2" d="M890,28 l0,20 80,160 -80,160 0,21 -20,0 0,-21 -602,0 -100,-100 -60,0 -40,-40 -40,0 0,-40 40,0 40,-40 60,0 100,-100 602,0 0,-20 20,0" />
<path style="fill:#4c4c4c;stroke:#000;stroke-width:2" d="M328,409 l0,-45 81,0 0,45 -81,0z" />
<path style="fill:#4c4c4c;stroke:#000;stroke-width:2" d="M529,409 l0,-45 80,0 0,45 -80,0z" />
<path style="fill:#4c4c4c;stroke:#000;stroke-width:2" d="M729,409 l0,-45 81,0 0,45 -81,0z" />
<path style="fill:#999;stroke:#000;stroke-width:2" d="M729,364 l30,-30 0,-141 20,0 0,141 31,30 -81,0z" />
<path style="fill:#999;stroke:#000;stroke-width:2" d="M529,364 l30,-30 0,-141 20,0 0,141 30,30 -80,0z" />
<path style="fill:#999;stroke:#000;stroke-width:2" d="M328,364 l30,-30 0,-141 20,0 0,141 31,30 -81,0z" />
<path style="fill:none;stroke:#000;stroke-width:2" d="M68,228 l0,-40" />
<path style="fill:none;stroke:#000;stroke-width:2" d="M108,268 l0,-120" />
<path style="fill:none;stroke:#000;stroke-width:2" d="M168,268 l0,-120" />
<path style="fill:none;stroke:#000;stroke-width:2" d="M268,368 l0,-320" />
<path style="fill:none;stroke:#000;stroke-width:2" d="M870,368 l0,-320" />
<path style="fill:none;stroke:#000;stroke-width:2" d="M890,368 l0,-320" />
<path style="fill:none;stroke:#000;stroke-width:2" d="M469,368 l0,-320" />
<path style="fill:none;stroke:#000;stroke-width:2" d="M669,368 l0,-320" />
<path style="fill:none;stroke:#000;stroke-width:2" d="M358,333 l20,0" />
<path style="fill:none;stroke:#000;stroke-width:2" d="M559,333 l20,0" />
<path style="fill:none;stroke:#000;stroke-width:2" d="M759,333 l20,0" />

</svg>
