 

<svg xmlns:agg="http://www.example.com" xmlns="http://www.w3.org/2000/svg" preserveAspectRatio="none" width="1.6083in" height="0.7985in" viewBox="0 0 999 496">

<path style="fill:#333" d="M37,458 l598,0 77,-36 0,5 -77,40 -598,0 0,-9z" />
<path style="fill:#ededed" d="M28,64 l615,0 0,394 -615,0 0,-394z" />
<path style="fill:#e5e5e5" d="M28,458 l613,-2 3,-258 -616,131 0,129z" />
<path style="fill:#dedede" d="M28,458 l613,-2 3,-225 -616,129 0,98z" />
<path style="fill:#d4d4d4" d="M28,458 l616,0 0,-162 -616,130 0,32z" />
<path style="fill:none;stroke:#000;stroke-width:2" d="M28,64 l615,0 0,394 -615,0 0,-394" />
<path style="fill:none;stroke:#7f7f7f;stroke-width:2" d="M28,426 l616,0" />
<path style="fill:none;stroke:#7f7f7f;stroke-width:2" d="M46,82 l181,0 0,326 -181,0 0,-326" />
<path style="fill:none;stroke:#7f7f7f;stroke-width:2" d="M245,82 l91,0 0,326 -91,0 0,-326" />
<path style="fill:none;stroke:#7f7f7f;stroke-width:2" d="M354,82 l272,0 0,326 -272,0 0,-326" />
<path style="fill:none;stroke:#7f7f7f;stroke-width:2" d="M445,82 l0,326" />
<path style="fill:none;stroke:#7f7f7f;stroke-width:2" d="M554,408 l0,-326" />
<path style="fill:none;stroke:#7f7f7f;stroke-width:2" d="M46,82 l580,0" />
<path style="fill:#fff" d="M101,136 l72,0 0,37 -72,0 0,-37z" />
<path style="fill:#ffa6a6" d="M123,100 l28,0 0,18 -28,0 0,-18z" />
<path style="fill:#a6a6ff" d="M123,100 l13,0 0,9 -13,0 0,-9z" />
<path style="fill:#333" d="M472,345 l18,0 0,18 -18,0 0,-18z" />
<path style="fill:#333" d="M508,345 l18,0 0,18 -18,0 0,-18z" />
<path style="fill:#333" d="M503,254 l18,0 0,18 -18,0 0,-18z" />
<path style="fill:#333" d="M467,254 l18,0 0,18 -18,0 0,-18z" />
<path style="fill:#333" d="M513,218 l18,0 0,18 -18,0 0,-18z" />
<path style="fill:#333" d="M477,218 l18,0 0,18 -18,0 0,-18z" />
<path style="fill:#333" d="M508,127 l18,0 0,18 -18,0 0,-18z" />
<path style="fill:#333" d="M472,127 l18,0 0,18 -18,0 0,-18z" />
<path style="fill:#cc4c4c" d="M503,263 l9,-9 9,9 -9,9 -9,-9z" />
<path style="fill:#cc4c4c" d="M513,227 l9,-9 9,9 -9,9 -9,-9z" />
<path style="fill:#cc4c4c" d="M508,136 l9,-9 9,9 -9,9 -9,-9z" />
<path style="fill:#cc4c4c" d="M472,136 l9,-9 9,9 -9,9 -9,-9z" />
<path style="fill:#cc4c4c" d="M477,227 l9,-9 9,9 -9,9 -9,-9z" />
<path style="fill:#cc4c4c" d="M467,263 l9,-9 9,9 -9,9 -9,-9z" />
<path style="fill:#cc4c4c" d="M472,354 l9,-9 9,9 -9,9 -9,-9z" />
<path style="fill:#cc4c4c" d="M508,354 l9,-9 9,9 -9,9 -9,-9z" />
<path style="fill:#ccc;stroke:#000;stroke-width:2" d="M28,64 l72,-36 617,0 -73,36 -616,0z" />
<path style="fill:#999;stroke:#000;stroke-width:2" d="M644,458 l73,-36 0,-394 -73,36 0,394z" />
<path style="fill:#4c4c4c" d="M644,422 l254,-218 72,-36 -253,213 -73,41z" />
<path style="fill:#dedede" d="M644,96 l218,72 36,36 -254,218 0,-326z" />
<path style="fill:#d4d4d4" d="M862,168 l-218,45 0,209 254,-218 -36,-36z" />
<path style="fill:#ccc" d="M889,195 l-245,55 0,172 254,-218 -9,-9z" />
<path style="fill:#c4c4c4" d="M818,272 l-174,41 0,109 174,-150z" />
<path style="fill:none;stroke:#000;stroke-width:2" d="M644,96 l218,72 36,36 -254,218 0,-326" />
<path style="fill:#ccc" d="M862,168 l72,-36 -217,-73 -73,37 218,72z" />
<path style="fill:#b2b2b2" d="M862,168 l72,-36 36,36 -72,36 -36,-36z" />
<path style="fill:none;stroke:#000;stroke-width:2" d="M862,168 l36,36 72,-36 -36,-36 -217,-73 -73,37 218,72" />
<path style="fill:#666" d="M91,281 l-9,-54 0,-9 9,-27 0,90z" />
<path style="fill:#b2b2b2" d="M82,227 l100,0 0,-9 -100,0 0,9z" />
<path style="fill:#ccc" d="M91,191 l-9,27 100,0 9,-27 -100,0z" />
<path style="fill:none;stroke:#fff;stroke-width:2" d="M182,218 l-100,0 9,-27" />
<path style="fill:#333" d="M91,227 l100,0 0,45 -100,0 0,-45z" />
<path style="fill:#999" d="M191,281 l-9,-54 0,-9 9,-27 0,90z" />
<path style="fill:none;stroke:#000;stroke-width:2" d="M91,281 l-9,-54 0,-9 9,-27 100,0 0,90 -2,-9 -98,0 0,9" />

</svg>
