 
<svg version="1.1" id="图层_1" xmlns:agg="http://www.example.com"
	 xmlns="http://www.w3.org/2000/svg" xmlns:xlink="http://www.w3.org/1999/xlink" x="0px" y="0px" width="64px" height="64px"
	 viewBox="0 0 64 64" enable-background="new 0 0 64 64" xml:space="preserve">
<line fill="none" stroke="#040000" stroke-width="2" stroke-linecap="round" stroke-miterlimit="10" x1="51.193" y1="38.414" x2="57.572" y2="38.414"/>
<line fill="none" stroke="#040000" stroke-width="2" stroke-linecap="round" stroke-miterlimit="10" x1="6.428" y1="38.414" x2="12.845" y2="38.414"/>
<polyline fill="none" stroke="#040000" stroke-width="2" stroke-linecap="round" stroke-miterlimit="10" points="57.572,19.21 
	56.611,19.364 55.689,19.825 54.997,20.555 54.537,21.438 54.383,22.437 54.537,23.397 54.997,24.319 55.689,25.01 56.611,25.471 
	57.572,25.625 "/>
<polyline fill="none" stroke="#040000" stroke-width="2" stroke-linecap="round" stroke-miterlimit="10" points="57.572,12.834 
	56.611,12.988 55.689,13.449 54.997,14.141 54.537,15.024 54.383,16.022 54.537,17.021 54.997,17.905 55.689,18.634 56.611,19.057 
	57.572,19.21 "/>
<polyline fill="none" stroke="#040000" stroke-width="2" stroke-linecap="round" stroke-miterlimit="10" points="57.572,6.42 
	56.611,6.574 55.689,7.035 54.997,7.765 54.537,8.648 54.383,9.646 54.537,10.607 54.997,11.529 55.689,12.22 56.611,12.681 
	57.572,12.834 "/>
<line fill="none" stroke="#040000" stroke-width="2" stroke-linecap="round" stroke-miterlimit="10" x1="6.428" y1="6.42" x2="6.428" y2="38.414"/>
<polygon fill="none" stroke="#040000" stroke-width="2" stroke-linecap="round" stroke-miterlimit="10" points="51.193,38.414 
	51.039,36.109 50.617,33.805 49.964,31.616 49.003,29.504 47.813,27.506 46.352,25.701 44.736,24.05 42.893,22.629 40.934,21.438 
	38.82,20.478 36.592,19.787 34.324,19.364 32.019,19.21 29.713,19.364 27.408,19.787 25.218,20.478 23.104,21.438 21.105,22.629 
	19.3,24.05 17.647,25.701 16.226,27.506 15.035,29.504 14.074,31.616 13.383,33.805 12.96,36.109 12.845,38.414 12.96,40.719 
	13.383,42.986 14.074,45.213 15.035,47.326 16.226,49.322 17.647,51.127 19.3,52.779 21.105,54.199 23.104,55.391 25.218,56.35 
	27.408,57.043 29.713,57.465 32.019,57.58 34.324,57.465 36.592,57.043 38.82,56.35 40.934,55.391 42.893,54.199 44.736,52.779 
	46.352,51.127 47.813,49.322 49.003,47.326 49.964,45.213 50.617,42.986 51.039,40.719 "/>
<line fill="none" stroke="#040000" stroke-width="2" stroke-linecap="round" stroke-miterlimit="10" x1="57.572" y1="25.625" x2="57.572" y2="38.414"/>
<g>
	<path stroke="#040000" stroke-miterlimit="10" d="M30.042,51.034h-5.203v-0.99h2.033v-6.892l-2.086,0.604v-1.055l3.229-0.938v8.279
		h2.027V51.034L30.042,51.034z"/>
	<path stroke="#040000" stroke-miterlimit="10" d="M39.915,46.282c-0.031,0.629-0.207,1.12-0.526,1.474
		c-0.32,0.354-0.746,0.53-1.277,0.53c-0.254,0-0.495-0.048-0.725-0.144c-0.229-0.097-0.541-0.281-0.939-0.555
		c-0.414-0.277-0.75-0.416-1.008-0.416c-0.57,0-0.875,0.367-0.914,1.102h-0.902c0.027-0.629,0.201-1.117,0.521-1.467
		c0.319-0.351,0.748-0.524,1.283-0.524c0.479,0,0.977,0.184,1.487,0.551c0.354,0.242,0.606,0.396,0.753,0.46
		s0.313,0.098,0.501,0.098c0.211,0,0.399-0.095,0.567-0.281c0.168-0.188,0.261-0.463,0.275-0.826L39.915,46.282L39.915,46.282z"/>
</g>
<g>
	<path stroke="#040000" stroke-width="0.75" stroke-miterlimit="10" d="M35.521,36.558v-6.013c0-0.496,0.029-1.092,0.088-1.787
		H35.58c-0.102,0.438-0.191,0.742-0.27,0.914l-2.994,6.886h-0.65l-2.988-6.832c-0.07-0.156-0.16-0.479-0.27-0.968h-0.036
		c0.039,0.423,0.059,1.035,0.059,1.841v5.959h-1.119v-9.076H28.9l2.678,6.224c0.203,0.477,0.338,0.848,0.404,1.112h0.042
		c0.203-0.56,0.346-0.938,0.428-1.137l2.724-6.199h1.512v9.076H35.521z"/>
</g>
</svg>
