 

<svg xmlns:agg="http://www.example.com" xmlns="http://www.w3.org/2000/svg" preserveAspectRatio="none" width="1.5068in" height="1.0750in" viewBox="0 0 998 712">

<path style="fill:#66380a;stroke:#000;stroke-width:2" d="M786,427 l102,0 0,-297 -82,0 0,21 62,0 0,256 -82,0 0,20z" />
<path style="fill:#66380a;stroke:#000;stroke-width:2" d="M929,612 l41,0 0,-144 -41,0 0,21 21,0 0,102 -21,0 0,21z" />
<path style="fill:none;stroke:#fc0;stroke-width:2" d="M929,479 l31,0 0,122 -31,0" />
<path style="fill:none;stroke:#fc0;stroke-width:2" d="M806,140 l72,0 0,277 -72,0" />
<path style="fill:#4c4c33" d="M171,417 l615,0 0,236 -615,0 0,-236z" />
<path style="fill:#323219" d="M345,530 l154,0 0,92 -154,0 0,-92z" />
<path style="fill:#323219" d="M417,622 l31,0 0,51 -31,0 0,-51z" />
<path style="fill:#65654c;stroke:#000;stroke-width:2" d="M335,417 l62,0 0,133 -62,0 0,-133z" />
<path style="fill:#7f7f66;stroke:#000;stroke-width:2" d="M458,427 l133,0 0,113 -133,0 0,-113z" />
<path style="fill:#98987f;stroke:#000;stroke-width:2" d="M192,417 l0,266 41,0 82,-266 327,0 82,266 41,0 0,-266 -573,0z" />
<path style="fill:#e5e5cc" d="M151,417 l0,-389 655,0 0,389 -655,0z" />
<path style="fill:#ddddc4" d="M479,417 l0,-184 327,-82 0,266 -327,0z" />
<path style="fill:#ddddc4" d="M151,417 l0,-184 328,-82 0,266 -328,0z" />
<path style="fill:#d3d3ba" d="M479,417 l0,-143 327,-82 0,225 -327,0z" />
<path style="fill:#d3d3ba" d="M151,417 l0,-143 328,-82 0,225 -328,0z" />
<path style="fill:#cbcbb2" d="M151,417 l0,-123 328,-82 0,205 -328,0z" />
<path style="fill:#cbcbb2" d="M479,417 l0,-123 327,-82 0,205 -327,0z" />
<path style="fill:none;stroke:#323219;stroke-width:2" d="M479,28 l0,389" />
<path style="fill:none;stroke:#fff;stroke-width:2" d="M499,397 l0,-349 287,0" />
<path style="fill:none;stroke:#fff;stroke-width:2" d="M171,397 l0,-349 287,0" />
<path style="fill:none;stroke:#b2b299;stroke-width:2" d="M499,397 l287,0 0,-349" />
<path style="fill:none;stroke:#b2b299;stroke-width:2" d="M171,397 l287,0 0,-349" />
<path style="fill:#4c4c4c" d="M253,69 l123,0 0,41 -123,0 0,-41z" />
<path style="fill:#4c4c4c" d="M294,294 l41,0 0,62 -41,0 0,-62z" />
<path style="fill:#900" d="M267,82 l41,0 0,14 -41,0 0,-14z" />
<path style="fill:none;stroke:#000;stroke-width:2" d="M151,417 l0,-389 655,0 0,389 -655,0" />
<path style="fill:#65654c;stroke:#000;stroke-width:2" d="M28,560 l56,0 0,-20 38,0 0,20 714,0 0,-20 37,0 0,20 56,0 0,82 -56,0 0,21 -37,0 0,-21 -714,0 0,21 -38,0 0,-21 -56,0 0,-82z" />
<path style="fill:#65654c;stroke:#000;stroke-width:2" d="M28,437 l56,0 0,-20 38,0 0,20 714,0 0,-20 37,0 0,20 56,0 0,82 -56,0 0,21 -37,0 0,-21 -714,0 0,21 -38,0 0,-21 -56,0 0,-82z" />
<path style="fill:#84846b" d="M28,568 l56,0 0,-16 38,0 0,16 714,0 0,-16 38,0 0,16 56,0 0,65 -56,0 0,17 -38,0 0,-17 -714,0 0,17 -38,0 0,-17 -56,0 0,-65z" />
<path style="fill:#84846b" d="M28,445 l56,0 0,-16 38,0 0,16 714,0 0,-16 38,0 0,16 56,0 0,65 -56,0 0,17 -38,0 0,-17 -714,0 0,17 -38,0 0,-17 -56,0 0,-65z" />
<path style="fill:#a5a58c" d="M28,577 l56,0 0,-12 38,0 0,12 714,0 0,-12 38,0 0,12 56,0 0,48 -56,0 0,12 -38,0 0,-12 -714,0 0,12 -38,0 0,-12 -56,0 0,-48z" />
<path style="fill:#a5a58c" d="M28,454 l56,0 0,-12 38,0 0,12 714,0 0,-12 38,0 0,12 56,0 0,48 -56,0 0,12 -38,0 0,-12 -714,0 0,12 -38,0 0,-12 -56,0 0,-48z" />
<path style="fill:#c4c4ab" d="M28,586 l56,0 0,-8 38,0 0,8 714,0 0,-8 38,0 0,8 56,0 0,30 -56,0 0,8 -38,0 0,-8 -714,0 0,8 -38,0 0,-8 -56,0 0,-30z" />
<path style="fill:#c4c4ab" d="M28,463 l56,0 0,-8 38,0 0,8 714,0 0,-8 38,0 0,8 56,0 0,30 -56,0 0,8 -38,0 0,-8 -714,0 0,8 -38,0 0,-8 -56,0 0,-30z" />
<path style="fill:#e5e5cc" d="M28,595 l56,0 0,-4 38,0 0,4 714,0 0,-4 37,0 0,4 56,0 0,13 -56,0 0,3 -37,0 0,-3 -714,0 0,3 -38,0 0,-3 -56,0 0,-13z" />
<path style="fill:#e5e5cc" d="M28,472 l56,0 0,-4 38,0 0,4 714,0 0,-4 37,0 0,4 56,0 0,13 -56,0 0,3 -37,0 0,-3 -714,0 0,3 -38,0 0,-3 -56,0 0,-13z" />
<path style="fill:none;stroke:#000;stroke-width:2" d="M836,437 l0,82" />
<path style="fill:none;stroke:#000;stroke-width:2" d="M873,519 l0,-82" />
<path style="fill:none;stroke:#000;stroke-width:2" d="M836,560 l0,82" />
<path style="fill:none;stroke:#000;stroke-width:2" d="M873,642 l0,-82" />
<path style="fill:none;stroke:#000;stroke-width:2" d="M84,519 l0,-82" />
<path style="fill:none;stroke:#000;stroke-width:2" d="M122,437 l0,82" />
<path style="fill:none;stroke:#000;stroke-width:2" d="M84,642 l0,-82" />
<path style="fill:none;stroke:#000;stroke-width:2" d="M122,560 l0,82" />

</svg>
