 

<svg xmlns:agg="http://www.example.com" xmlns="http://www.w3.org/2000/svg" preserveAspectRatio="none" width="0.4541in" height="1.0750in" viewBox="0 0 422 999">

<path style="fill:#ccc;stroke:#000;stroke-width:2" d="M364,472 l0,-444 -308,0 0,444 308,0z" />
<path style="fill:#d9d9d9" d="M355,462 l-289,0 145,-211 144,211z" />
<path style="fill:#bfbfbf" d="M209,251 l146,211 0,-425 -146,214z" />
<path style="fill:#b2b2b2" d="M355,37 l-289,0 145,214 144,-214z" />
<path style="fill:#ccc;stroke:#000;stroke-width:2" d="M364,933 l0,-442 -308,0 0,442 308,0z" />
<path style="fill:#d9d9d9" d="M355,923 l-289,0 145,-211 144,211z" />
<path style="fill:#bfbfbf" d="M209,712 l146,211 0,-423 -146,212z" />
<path style="fill:#b2b2b2" d="M355,500 l-289,0 145,212 144,-212z" />
<path style="fill:#4c4c4c;stroke:#000;stroke-width:2" d="M37,509 l0,-58 10,0 0,58 -10,0z" />
<path style="fill:#4c4c4c;stroke:#000;stroke-width:2" d="M373,509 l0,-58 12,0 0,58 -12,0z" />
<path style="fill:#b2b2b2;stroke:#000;stroke-width:2" d="M394,491 l0,-21 -366,0 0,21 366,0z" />
<path style="fill:#4c4c4c;stroke:#000;stroke-width:2" d="M37,970 l0,-58 10,0 0,58 -10,0z" />
<path style="fill:#4c4c4c;stroke:#000;stroke-width:2" d="M373,970 l0,-58 12,0 0,58 -12,0z" />
<path style="fill:#b2b2b2;stroke:#000;stroke-width:2" d="M394,952 l0,-21 -366,0 0,21 366,0z" />

</svg>
