 

<svg xmlns:agg="http://www.example.com" xmlns="http://www.w3.org/2000/svg" preserveAspectRatio="none" width="0.5671in" height="1.0750in" viewBox="0 0 527 999">

<path style="fill:#000;stroke:#000;stroke-width:2" d="M28,342 l20,-126 14,-56 30,-49 39,-40 49,-28 55,-15 56,0 55,15 51,28 40,40 28,49 15,56 19,126 -471,0z" />
<path style="fill:#b2b2b2" d="M338,427 l-48,14 -51,0 -51,-15 -46,-25 -35,-36 -27,-45 -13,-51 0,-51 13,-51 27,-43 35,-38 46,-24 49,-14 53,0 48,14 46,24 36,38 26,45 13,49 0,51 -13,51 -26,45 -36,36 -46,26z" />
<path style="fill:#000" d="M231,970 l-45,-11 0,-68 156,0 0,68 -47,11 -64,0z" />
<path style="fill:#1f1f1f" d="M237,970 l-38,-11 0,-68 128,0 0,68 -37,11 -53,0z" />
<path style="fill:#404040" d="M242,970 l-28,-11 0,-68 98,0 0,68 -28,11 -42,0z" />
<path style="fill:#5e5e5e" d="M250,970 l-21,-11 0,-68 70,0 0,68 -21,11 -28,0z" />
<path style="fill:#7f7f7f" d="M256,970 l-12,-11 0,-68 40,0 0,68 -11,11 -17,0z" />
<path style="fill:none;stroke:#000;stroke-width:2" d="M231,970 l-45,-11 0,-68 156,0 0,68 -47,11 -64,0" />
<path style="fill:#e54c00" d="M354,895 l-59,2 -62,0 -60,-2 -53,-6 -45,-7 -30,-10 -17,-9 0,-521 471,0 0,521 -15,9 -32,10 -44,7 -54,6z" />
<path style="fill:#eb5200" d="M344,893 l-53,4 -54,0 -55,-4 -47,-4 -39,-7 -29,-10 -15,-9 0,-521 422,0 0,521 -13,9 -28,10 -40,7 -49,4z" />
<path style="fill:#f25900" d="M335,893 l-47,4 -49,0 -47,-4 -44,-4 -34,-7 -24,-10 -13,-9 0,-521 373,0 0,521 -12,9 -26,10 -34,7 -43,4z" />
<path style="fill:#f75e00" d="M325,893 l-39,4 -44,0 -41,-4 -38,-4 -30,-7 -21,-10 -11,-9 0,-521 324,0 0,521 -11,9 -21,10 -30,7 -38,4z" />
<path style="fill:#f60" d="M316,895 l-34,2 -36,0 -36,-2 -32,-6 -24,-7 -19,-10 -9,-9 0,-521 275,0 0,521 -10,9 -16,10 -27,7 -32,6z" />
<path style="fill:none;stroke:#000;stroke-width:2" d="M354,895 l-59,2 -62,0 -60,-2 -53,-6 -45,-7 -30,-10 -17,-9 0,-521 471,0 0,521 -15,9 -32,10 -44,7 -54,6" />
<path style="fill:#f60;stroke:#000;stroke-width:2" d="M223,342 l0,-20 40,20 40,-20 0,20 -80,0z" />
<path style="fill:#4c4c4c;stroke:#000;stroke-width:2" d="M233,318 l-34,-26 -17,-38 25,-128 186,143 -118,55 -42,-6z" />
<path style="fill:#fff" d="M293,316 l-18,6 -21,0 -21,-6 -17,-9 -15,-15 -9,-17 -6,-21 0,-21 6,-18 9,-19 15,-15 17,-10 21,-6 21,0 67,-20 -5,70 5,18 0,21 -5,21 -12,17 -13,15 -19,9z" />
<path style="fill:#000;stroke:#000;stroke-width:2" d="M280,303 l-32,0 -28,-17 -15,-26 0,-33 15,-28 28,-15 32,0 27,15 16,28 0,33 -16,26 -27,17z" />
<path style="fill:#7f7f7f;stroke:#000;stroke-width:2" d="M239,139 l9,6 -7,7 -8,-5 6,-8z" />
<path style="fill:#7f7f7f;stroke:#000;stroke-width:2" d="M378,246 l10,6 -8,8 -8,-6 6,-8z" />
<path style="fill:#e5e5e5;stroke:#000;stroke-width:2" d="M363,235 l15,11 -6,8 -15,-11 6,-8z" />
<path style="fill:#e5e5e5;stroke:#000;stroke-width:2" d="M223,126 l16,13 -6,8 -15,-14 5,-7z" />
<path style="fill:#e5e5e5;stroke:#000;stroke-width:2" d="M250,109 l7,6 -16,24 -10,-8 19,-22z" />
<path style="fill:#e5e5e5;stroke:#000;stroke-width:2" d="M390,216 l7,8 -17,22 -9,-5 19,-25z" />
<path style="fill:#e5e5e5;stroke:#000;stroke-width:2" d="M327,320 l0,-15 11,-12 18,0 11,12 0,15 -11,11 -18,0 -11,-11z" />
<path style="fill:#e5e5e5;stroke:#000;stroke-width:2" d="M173,331 l-13,-11 0,-15 13,-12 15,0 11,12 0,15 -11,11 -15,0z" />
<path style="fill:none;stroke:#000;stroke-width:2" d="M180,331 l0,-38" />
<path style="fill:none;stroke:#000;stroke-width:2" d="M333,326 l28,-29" />
<path style="fill:#000" d="M137,778 l-11,-10 0,-13 11,-11 13,0 10,11 0,13 -10,10 -13,0z" />
<path style="fill:none;stroke:#000;stroke-width:2" d="M135,729 l-53,0" />
<path style="fill:none;stroke:#000;stroke-width:2" d="M82,720 l53,0" />
<path style="fill:none;stroke:#000;stroke-width:2" d="M135,797 l-53,0" />
<path style="fill:none;stroke:#000;stroke-width:2" d="M82,787 l53,0" />
<path style="fill:none;stroke:#000;stroke-width:2" d="M382,420 l58,0" />
<path style="fill:none;stroke:#000;stroke-width:2" d="M450,429 l-83,0" />
<path style="fill:none;stroke:#000;stroke-width:2" d="M382,444 l58,0" />
<path style="fill:none;stroke:#000;stroke-width:2" d="M431,460 l-40,0" />
<path style="fill:none;stroke:#000;stroke-width:2" d="M382,533 l68,0" />
<path style="fill:none;stroke:#000;stroke-width:2" d="M450,542 l-74,0" />
<path style="fill:none;stroke:#000;stroke-width:2" d="M395,554 l36,0" />
<path style="fill:none;stroke:#000;stroke-width:2" d="M382,616 l77,0" />
<path style="fill:none;stroke:#000;stroke-width:2" d="M395,627 l45,0" />
<path style="fill:none;stroke:#000;stroke-width:2" d="M382,640 l77,0" />
<path style="fill:none;stroke:#000;stroke-width:2" d="M450,686 l-59,0" />
<path style="fill:#000" d="M28,735 l79,-98 0,-15 -79,-19 0,132z" />

</svg>
