 

<svg xmlns:agg="http://www.example.com" xmlns="http://www.w3.org/2000/svg" preserveAspectRatio="none" width="0.7317in" height="1.0750in" viewBox="0 0 680 999">

<path style="fill:#000" d="M141,936 l34,0 0,35 -34,0 0,-35z" />
<path style="fill:#000" d="M584,936 l34,0 0,35 -34,0 0,-35z" />
<path style="fill:#000" d="M356,936 l34,0 0,35 -34,0 0,-35z" />
<path style="fill:#f2e5cc" d="M107,27 l545,0 0,909 -545,0 0,-909z" />
<path style="fill:#ede0c7" d="M107,672 l545,-379 0,643 -545,0 0,-264z" />
<path style="fill:#e8dbc2" d="M107,710 l545,-379 0,605 -545,0 0,-226z" />
<path style="fill:#e3d6bd" d="M107,767 l545,-379 0,548 -545,0 0,-169z" />
<path style="fill:none;stroke:#000;stroke-width:2" d="M107,27 l545,0 0,909 -545,0 0,-909" />
<path style="fill:#f2e5cc;stroke:#000;stroke-width:2" d="M107,73 l-23,0 -45,68 0,296 68,0 0,-364z" />
<path style="fill:none;stroke:#b2a58c;stroke-width:2" d="M129,73 l274,0 0,341 -274,0 0,-341" />
<path style="fill:#333" d="M197,437 l138,0 0,45 -138,0 0,-45z" />
<path style="fill:none;stroke:#fff2d9;stroke-width:2" d="M584,914 l0,-251" />
<path style="fill:none;stroke:#b2a58c;stroke-width:2" d="M561,914 l0,-251" />
<path style="fill:#ebdec5" d="M539,550 l68,0 0,68 -68,0 0,-68z" />
<path style="fill:none;stroke:#b2a58c;stroke-width:2" d="M567,595 l-6,-6 0,-9 6,-7 9,0 8,7 0,9 -8,6 -9,0" />
<path style="fill:#b2a58c" d="M263,793 l-7,-13 7,-15 17,0 8,15 -8,13 -17,0z" />
<path style="fill:#b2a58c" d="M205,703 l-8,-14 8,-14 17,0 7,14 -7,14 -17,0z" />
<path style="fill:#4c3f26" d="M263,126 l-9,-15 9,-16 17,0 8,16 -8,15 -17,0z" />
<path style="fill:none;stroke:#000;stroke-width:2" d="M27,437 l12,-14" />
<path style="fill:none;stroke:#000;stroke-width:2" d="M27,165 l12,-13" />
<path style="fill:none;stroke:#000;stroke-width:2" d="M27,220 l12,-13" />
<path style="fill:none;stroke:#000;stroke-width:2" d="M27,275 l12,-16" />
<path style="fill:none;stroke:#000;stroke-width:2" d="M27,327 l12,-13" />
<path style="fill:none;stroke:#000;stroke-width:2" d="M27,382 l12,-13" />

</svg>
