 
<svg version="1.1" id="图层_1" xmlns:agg="http://www.example.com"
	 xmlns="http://www.w3.org/2000/svg" xmlns:xlink="http://www.w3.org/1999/xlink" x="0px" y="0px" width="64px" height="64px"
	 viewBox="0 0 64 64" enable-background="new 0 0 64 64" xml:space="preserve">
<g>
	<polyline fill="none" stroke="#040000" stroke-width="2" stroke-linecap="round" stroke-miterlimit="10" points="44.074,32 
		43.773,30.166 42.951,28.482 41.604,27.135 39.918,26.274 38.047,25.975 36.174,26.274 34.49,27.135 33.143,28.482 32.318,30.166 
		32.019,32 	"/>
	<polyline fill="none" stroke="#040000" stroke-width="2" stroke-linecap="round" stroke-miterlimit="10" points="56.166,32 
		55.865,30.166 55.006,28.482 53.695,27.135 52.012,26.274 50.139,25.975 48.266,26.274 46.582,27.135 45.234,28.482 44.373,30.166 
		44.074,32 	"/>
	<polyline fill="none" stroke="#040000" stroke-width="2" stroke-linecap="round" stroke-miterlimit="10" points="32.019,32 
		31.719,30.166 30.858,28.482 29.511,27.135 27.826,26.274 25.954,25.975 24.082,26.274 22.398,27.135 21.087,28.482 20.226,30.166 
		19.926,32 	"/>
	<polyline fill="none" stroke="#040000" stroke-width="2" stroke-linecap="round" stroke-miterlimit="10" points="19.926,32 
		19.627,30.166 18.766,28.482 17.419,27.135 15.733,26.274 13.899,25.975 12.027,26.274 10.343,27.135 8.996,28.482 8.134,30.166 
		7.834,32 	"/>
	
		<line fill="none" stroke="#040000" stroke-width="2" stroke-linecap="round" stroke-miterlimit="10" x1="7.834" y1="32" x2="7.834" y2="44.087"/>
	
		<line fill="none" stroke="#040000" stroke-width="2" stroke-linecap="round" stroke-miterlimit="10" x1="56.166" y1="32" x2="56.166" y2="44.087"/>
	
		<line fill="none" stroke="#040000" stroke-width="2" stroke-linecap="round" stroke-miterlimit="10" x1="1.807" y1="19.913" x2="62.193" y2="19.913"/>
</g>
</svg>
