 

<svg xmlns:agg="http://www.example.com" xmlns="http://www.w3.org/2000/svg" preserveAspectRatio="none" width="1.0384in" height="1.0750in" viewBox="0 0 965 999">

<circle style="fill:none;stroke:#000;stroke-width:2" cx="804" cy="48" r="19" />
<circle style="fill:none;stroke:#000;stroke-width:2" cx="614" cy="48" r="19" />
<path style="fill:#333;stroke:#000;stroke-width:2" d="M539,723 l37,0 0,191 -37,0 0,-191z" />
<path style="fill:#333;stroke:#000;stroke-width:2" d="M842,723 l38,0 0,191 -38,0 0,-191z" />
<path style="fill:#666;stroke:#000;stroke-width:2" d="M482,723 l38,0 0,191 -38,0 0,-191z" />
<path style="fill:#666;stroke:#000;stroke-width:2" d="M898,723 l38,0 0,191 -38,0 0,-191z" />
<path style="fill:#7f7f7f" d="M771,761 l-123,0 -105,-10 -61,-18 0,-645 61,-17 105,-9 123,0 105,9 60,17 0,645 -60,18 -105,10z" />
<path style="fill:#858585" d="M767,761 l-113,0 -98,-10 -59,-14 0,-651 59,-17 98,-9 113,0 98,9 56,17 0,651 -56,14 -98,10z" />
<path style="fill:#8a8a8a" d="M763,761 l-106,0 -92,-8 -53,-16 0,-653 53,-15 92,-9 106,0 90,9 55,15 0,653 -55,16 -90,8z" />
<path style="fill:#8f8f8f" d="M759,761 l-98,0 -85,-8 -49,-13 0,-658 49,-13 85,-9 98,0 85,9 49,13 0,658 -49,13 -85,8z" />
<path style="fill:#969696" d="M755,761 l-90,0 -77,-8 -45,-11 0,-662 45,-13 77,-7 90,0 78,7 45,13 0,662 -45,11 -78,8z" />
<path style="fill:#9c9c9c" d="M751,761 l-82,0 -72,-8 -40,-11 0,-663 40,-12 72,-7 82,0 70,7 42,12 0,663 -42,11 -70,8z" />
<path style="fill:#a1a1a1" d="M746,761 l-74,0 -64,-6 -37,-9 0,-669 37,-11 64,-6 74,0 64,6 38,11 0,669 -38,9 -64,6z" />
<path style="fill:#a6a6a6" d="M742,761 l-66,0 -56,-6 -32,-7 0,-673 32,-9 56,-6 66,0 57,6 34,9 0,673 -34,7 -57,6z" />
<path style="fill:#ababab" d="M738,761 l-58,0 -49,-4 -29,-7 0,-677 29,-7 49,-6 58,0 51,6 28,7 0,677 -28,7 -51,4z" />
<path style="fill:#b0b0b0" d="M735,761 l-51,0 -44,-4 -24,-6 0,-680 24,-5 44,-6 51,0 43,6 25,5 0,680 -25,6 -43,4z" />
<path style="fill:#b5b5b5" d="M731,761 l-43,0 -36,-2 -21,-6 0,-684 21,-5 36,-4 43,0 36,4 20,5 0,684 -20,6 -36,2z" />
<path style="fill:#bdbdbd" d="M727,761 l-34,0 -30,-2 -17,-4 0,-688 17,-3 30,-4 34,0 28,4 17,3 0,688 -17,4 -28,2z" />
<path style="fill:#c2c2c2" d="M723,761 l-26,0 -23,-2 -13,-2 0,-691 13,-4 23,-2 26,0 23,2 13,4 0,691 -13,2 -23,2z" />
<path style="fill:#c7c7c7" d="M720,761 l-19,0 -15,0 -10,-2 0,-695 10,-2 15,-2 19,0 15,2 9,2 0,695 -9,2 -15,0z" />
<path style="fill:#ccc" d="M714,761 l-10,0 -9,0 -4,0 0,-699 4,0 9,0 10,0 9,0 6,0 0,699 -6,0 -9,0z" />
<path style="fill:none;stroke:#000;stroke-width:2" d="M771,761 l-123,0 -105,-10 -61,-18 0,-645 61,-17 105,-9 123,0 105,9 60,17 0,645 -60,18 -105,10" />
<path style="fill:#ccc" d="M28,403 l422,0 0,511 -422,0 0,-511z" />
<path style="fill:#c7c7c7" d="M28,733 l422,-213 0,394 -422,0 0,-181z" />
<path style="fill:#c2c2c2" d="M28,774 l422,-213 0,353 -422,0 0,-140z" />
<path style="fill:#bdbdbd" d="M28,817 l422,-213 0,310 -422,0 0,-97z" />
<path style="fill:none;stroke:#000;stroke-width:2" d="M28,403 l422,0 0,511 -422,0 0,-511" />
<path style="fill:#b2b2b2;stroke:#000;stroke-width:2" d="M28,914 l908,0 0,13 -908,0 0,-13z" />
<path style="fill:#b2b2b2;stroke:#000;stroke-width:2" d="M28,955 l908,0 0,15 -908,0 0,-15z" />
<path style="fill:#7f7f7f;stroke:#000;stroke-width:2" d="M46,927 l872,0 0,28 -872,0 0,-28z" />
<path style="fill:#a6a6a6" d="M294,667 l75,0 0,228 -75,0 0,-228z" />
<path style="fill:#a6a6a6" d="M103,742 l76,0 0,153 -76,0 0,-153z" />
<path style="fill:none;stroke:#fff;stroke-width:2" d="M312,535 l0,-125 113,0" />
<path style="fill:none;stroke:#4c4c4c;stroke-width:2" d="M312,535 l113,0 0,-125" />
<path style="fill:#ff7f7f" d="M141,516 l113,0 0,75 -113,0 0,-75z" />
<path style="fill:#4c4c4c" d="M179,420 l37,0 0,77 -37,0 0,-77z" />
<path style="fill:#4c4c4c" d="M331,554 l57,0 0,75 -57,0 0,-75z" />
<circle style="fill:#000" cx="644" cy="525" r="28" />
<circle style="fill:#e5e5e5" cx="643" cy="525" r="21" />
<path style="fill:none;stroke:#fff;stroke-width:2" d="M141,591 l0,-75 113,0" />
<path style="fill:none;stroke:#000;stroke-width:2" d="M256,516 l0,75 -113,0" />
<path style="fill:#c93" d="M682,260 l0,18 -125,0 0,-18 125,0z" />
<path style="fill:#c93" d="M557,420 l0,21 -360,0 0,-21 360,0z" />
<path style="fill:#c93" d="M539,193 l18,0 0,227 -18,0 0,-227z" />
<path style="fill:#fc0" d="M554,425 l0,10 -357,0 0,-10 357,0z" />
<path style="fill:#fc0" d="M544,193 l8,0 0,232 -8,0 0,-232z" />
<path style="fill:#fc0" d="M682,265 l0,8 -128,0 0,-8 128,0z" />
<path style="fill:#c93" d="M188,394 l19,0 0,84 -19,0 0,-84z" />
<path style="fill:#c93" d="M604,373 l0,21 -416,0 0,-21 416,0z" />
<path style="fill:#c93" d="M880,885 l0,19 -292,0 0,-19 292,0z" />
<path style="fill:#c93" d="M586,394 l18,0 0,491 -18,0 0,-491z" />
<path style="fill:#fc0" d="M195,388 l6,0 0,90 -6,0 0,-90z" />
<path style="fill:#fc0" d="M601,378 l0,10 -408,0 0,-10 408,0z" />
<path style="fill:#fc0" d="M591,388 l8,0 0,501 -8,0 0,-501z" />
<path style="fill:#fc0" d="M880,891 l0,7 -289,0 0,-7 289,0z" />
<path style="fill:#999;stroke:#000;stroke-width:2" d="M28,350 l13,0 0,53 -13,0 0,-53z" />

</svg>
