 

<svg xmlns:agg="http://www.example.com" xmlns="http://www.w3.org/2000/svg" preserveAspectRatio="none" width="1.3391in" height="1.0750in" viewBox="0 0 999 802">

<path style="fill:#4c4c4c" d="M144,716 l0,-177 -116,0 0,-80 18,-58 61,-58 0,-276 37,-39 708,0 39,39 0,276 61,58 18,58 0,80 -118,0 0,177 -708,0z" />
<path style="fill:#575757" d="M167,714 l0,-175 -111,0 0,-80 19,-58 54,-58 0,-276 38,-39 664,0 38,39 0,276 54,58 19,58 0,80 -111,0 0,175 -664,0z" />
<path style="fill:#5e5e5e" d="M188,714 l0,-175 -104,0 0,-80 17,-58 53,-58 0,-276 34,-39 622,0 36,39 0,276 51,58 17,58 0,80 -104,0 0,175 -622,0z" />
<path style="fill:#696969" d="M209,714 l0,-175 -96,0 0,-80 15,-58 49,-58 0,-276 32,-39 580,0 32,39 0,276 49,58 15,58 0,80 -96,0 0,175 -580,0z" />
<path style="fill:#737373" d="M229,714 l0,-175 -88,0 0,-80 15,-58 43,-58 0,-276 30,-39 540,0 30,39 0,276 43,58 15,58 0,80 -88,0 0,175 -540,0z" />
<path style="fill:#7d7d7d" d="M252,714 l0,-175 -83,0 0,-80 13,-58 42,-58 0,-276 28,-39 496,0 26,39 0,276 42,58 13,58 0,80 -81,0 0,175 -496,0z" />
<path style="fill:#858585" d="M273,714 l0,-175 -76,0 0,-80 12,-58 37,-58 0,-276 27,-39 452,0 27,39 0,276 37,58 14,58 0,80 -78,0 0,175 -452,0z" />
<path style="fill:#8f8f8f" d="M293,714 l0,-175 -67,0 0,-80 11,-58 34,-58 0,-276 22,-39 412,0 22,39 0,276 36,58 11,58 0,80 -69,0 0,175 -412,0z" />
<path style="fill:#999" d="M314,714 l0,-175 -62,0 0,-80 11,-58 30,-58 0,-276 21,-39 370,0 21,39 0,276 30,58 11,58 0,80 -62,0 0,175 -370,0z" />
<path style="fill:#a3a3a3" d="M335,714 l0,-175 -55,0 0,-80 10,-58 28,-58 0,-276 17,-39 328,0 17,39 0,276 28,58 10,58 0,80 -55,0 0,175 -328,0z" />
<path style="fill:#ababab" d="M358,714 l0,-175 -50,0 0,-80 10,-58 23,-58 0,-276 17,-39 284,0 15,39 0,276 25,58 8,58 0,80 -48,0 0,175 -284,0z" />
<path style="fill:#b5b5b5" d="M378,714 l0,-175 -41,0 0,-80 7,-58 21,-58 0,-276 13,-39 242,0 15,39 0,276 19,58 7,58 0,80 -41,0 0,175 -242,0z" />
<path style="fill:#bfbfbf" d="M399,714 l0,-175 -34,0 0,-80 6,-58 17,-58 0,-276 11,-39 200,0 11,39 0,276 17,58 6,58 0,80 -34,0 0,175 -200,0z" />
<path style="fill:#c9c9c9" d="M420,714 l0,-175 -27,0 0,-80 6,-58 11,-58 0,-276 10,-39 158,0 10,39 0,276 13,58 4,58 0,80 -27,0 0,175 -158,0z" />
<path style="fill:#d1d1d1" d="M441,714 l0,-175 -19,0 0,-80 4,-58 9,-58 0,-276 6,-39 116,0 6,39 0,276 9,58 4,58 0,80 -19,0 0,175 -116,0z" />
<path style="fill:#dbdbdb" d="M463,714 l0,-175 -13,0 0,-80 2,-58 5,-58 0,-276 6,-39 74,0 4,39 0,276 5,58 2,58 0,80 -11,0 0,175 -74,0z" />
<path style="fill:#e5e5e5" d="M484,716 l0,-177 -6,0 0,-80 0,-58 4,-58 0,-276 2,-39 30,0 2,39 0,276 4,58 0,58 0,80 -6,0 0,177 -30,0z" />
<path style="fill:none;stroke:#000;stroke-width:2" d="M144,716 l0,-177 -116,0 0,-80 18,-58 61,-58 0,-276 37,-39 708,0 39,39 0,276 61,58 18,58 0,80 -118,0 0,177 -708,0" />
<path style="fill:#ccc" d="M107,710 l784,0 0,64 -784,0 0,-64z" />
<path style="fill:#bfbfbf" d="M735,774 l39,-64 78,0 -38,64 -79,0z" />
<path style="fill:#bfbfbf" d="M539,774 l39,-64 77,0 -39,64 -77,0z" />
<path style="fill:#bfbfbf" d="M343,774 l37,-64 79,0 -39,64 -77,0z" />
<path style="fill:#bfbfbf" d="M144,774 l40,-64 79,0 -39,64 -80,0z" />
<path style="fill:#b2b2b2" d="M759,774 l40,-64 24,0 -39,64 -25,0z" />
<path style="fill:#b2b2b2" d="M563,774 l40,-64 24,0 -39,64 -25,0z" />
<path style="fill:#b2b2b2" d="M367,774 l38,-64 24,0 -37,64 -25,0z" />
<path style="fill:#b2b2b2" d="M169,774 l40,-64 24,0 -39,64 -25,0z" />
<path style="fill:none;stroke:#000;stroke-width:2" d="M107,710 l784,0 0,64 -784,0 0,-64" />
<path style="fill:none;stroke:#000;stroke-width:2" d="M144,539 l708,0" />
<path style="fill:none;stroke:#000;stroke-width:2" d="M891,343 l-784,0" />
<path style="fill:none;stroke:#000;stroke-width:2" d="M28,459 l942,0" />
<path style="fill:none;stroke:#000;stroke-width:2" d="M95,150 l806,0" />

</svg>
