 

<svg xmlns:agg="http://www.example.com" xmlns="http://www.w3.org/2000/svg" preserveAspectRatio="none" width="1.3374in" height="1.0750in" viewBox="0 0 999 803">

<path style="fill:#4c4c33" d="M36,518 l924,0 0,196 -924,0 0,-196z" />
<path style="fill:#5b5b42" d="M38,535 l922,0 0,163 -922,0 0,-163z" />
<path style="fill:#6b6b52" d="M38,552 l922,0 0,129 -922,0 0,-129z" />
<path style="fill:#7a7a61" d="M38,571 l922,0 0,93 -922,0 0,-93z" />
<path style="fill:#898970" d="M38,587 l922,0 0,58 -922,0 0,-58z" />
<path style="fill:#98987f" d="M36,604 l924,0 0,25 -924,0 0,-25z" />
<path style="fill:none;stroke:#000;stroke-width:2" d="M36,518 l924,0 0,196 -924,0 0,-196" />
<path style="fill:#7f7f66" d="M28,400 l942,0 0,198 -942,0 0,-198z" />
<path style="fill:#8e8e75" d="M28,419 l942,0 0,160 -942,0 0,-160z" />
<path style="fill:#9e9e85" d="M28,436 l942,0 0,126 -942,0 0,-126z" />
<path style="fill:#adad94" d="M28,452 l570,0 0,-42 58,0 0,42 108,0 0,-42 59,0 0,42 147,0 0,94 -942,0 0,-94z" />
<path style="fill:#bcbca3" d="M28,469 l942,0 0,60 -942,0 0,-60z" />
<path style="fill:#cbcbb2" d="M28,487 l942,0 0,23 -942,0 0,-23z" />
<path style="fill:none;stroke:#000;stroke-width:2" d="M28,400 l942,0 0,198 -942,0 0,-198" />
<path style="fill:#323219" d="M47,392 l873,0 0,8 -873,0 0,-8z" />
<path style="fill:#98987f;stroke:#000;stroke-width:2" d="M779,121 l162,0 0,148 -162,0 0,-148z" />
<path style="fill:#98987f;stroke:#000;stroke-width:2" d="M361,259 l137,0 0,104 -137,0 0,-104z" />
<path style="fill:#65654c;stroke:#000;stroke-width:2" d="M400,107 l6,-30 17,-27 27,-16 29,-6 398,0 29,6 27,16 16,27 7,30 -25,97 -44,0 0,-58 4,-60 -433,0 2,314 -60,0 0,-293z" />
<path style="fill:#7f7f66" d="M415,115 l6,-27 15,-27 24,-15 30,-6 372,0 27,6 25,15 17,27 6,27 -25,92 -21,-3 21,-108 -21,-29 -433,0 -18,29 0,296 -25,0 0,-277z" />
<path style="fill:#cbcbb2" d="M499,146 l422,0 0,265 -422,0 0,-265z" />
<path style="fill:#cbcbb2" d="M38,68 l324,0 0,324 -324,0 0,-324z" />
<path style="fill:#c4c4ab" d="M499,411 l0,-117 422,-109 0,226 -422,0z" />
<path style="fill:#c4c4ab" d="M38,392 l0,-148 324,-78 0,226 -324,0z" />
<path style="fill:#babaa1" d="M499,411 l0,-78 422,-108 0,186 -422,0z" />
<path style="fill:#babaa1" d="M38,392 l0,-109 324,-78 0,187 -324,0z" />
<path style="fill:#b2b299" d="M38,392 l0,-89 324,-78 0,167 -324,0z" />
<path style="fill:#b2b299" d="M499,411 l0,-59 422,-107 0,166 -422,0z" />
<path style="fill:#cbcbb2;stroke:#000;stroke-width:2" d="M931,392 l18,0 0,383 -18,0 0,-383z" />
<path style="fill:#cbcbb2;stroke:#000;stroke-width:2" d="M47,392 l20,0 0,383 -20,0 0,-383z" />
<path style="fill:none;stroke:#000;stroke-width:2" d="M598,479 l0,-68 58,0 0,68" />
<path style="fill:none;stroke:#000;stroke-width:2" d="M764,479 l0,-68 59,0 0,68" />
<path style="fill:#999" d="M121,436 l69,0 0,24 -69,0 0,-24z" />
<path style="fill:#7f7f7f" d="M666,431 l88,0 0,15 -88,0 0,-15z" />
<path style="fill:none;stroke:#7f7f66;stroke-width:2" d="M198,77 l0,319" />
<path style="fill:none;stroke:#fff;stroke-width:2" d="M47,382 l0,-305 304,0" />
<path style="fill:none;stroke:#fff;stroke-width:2" d="M508,401 l0,-246 403,0" />
<path style="fill:none;stroke:#000;stroke-width:2" d="M499,146 l422,0 0,265 -422,0 0,-265" />
<path style="fill:none;stroke:#000;stroke-width:2" d="M38,68 l324,0 0,324 -324,0 0,-324" />
<path style="fill:#4c4c4c" d="M652,194 l117,0 0,158 -117,0 0,-158z" />
<path style="fill:#fc0" d="M837,161 l75,0 0,58 -75,0 0,-58z" />
<path style="fill:#fc0" d="M519,309 l54,0 0,8 -54,0 0,-8z" />
<path style="fill:#333" d="M519,363 l250,0 0,37 -250,0 0,-37z" />
<path style="fill:#e5e5e5" d="M660,204 l98,0 0,138 -98,0 0,-138z" />
<path style="fill:#e5e5e5" d="M519,317 l54,0 0,35 -54,0 0,-35z" />
<path style="fill:#e5e5e5" d="M666,446 l88,0 0,44 -88,0 0,-44z" />
<path style="fill:#e5e5e5" d="M263,436 l54,0 0,24 -54,0 0,-24z" />
<path style="fill:#e5e5e5" d="M400,421 l58,0 0,50 -58,0 0,-50z" />
<path style="fill:none;stroke:#f00;stroke-width:2" d="M660,302 l98,0" />
<path style="fill:#596d8c" d="M400,446 l29,-25 29,25 -29,23 -29,-23z" />

</svg>
