 

<svg xmlns:agg="http://www.example.com" xmlns="http://www.w3.org/2000/svg" preserveAspectRatio="none" width="1.6083in" height="0.7696in" viewBox="0 0 999 478">

<path style="fill:#4c4c4c;stroke:#000;stroke-width:2" d="M769,249 l0,-81 82,0 0,81 -82,0z" />
<path style="fill:#4c4c4c;stroke:#000;stroke-width:2" d="M147,248 l0,-80 82,0 0,80 -82,0z" />
<path style="fill:#b8b8b8" d="M98,389 l-27,-5 -23,-16 -15,-23 -5,-26 5,-27 15,-23 23,-15 27,-5 802,0 27,5 23,15 15,23 5,27 -5,26 -15,23 -23,16 -27,5 -802,0z" />
<path style="fill:#b8b8b8" d="M98,168 l-27,-5 -23,-16 -15,-22 -5,-27 5,-27 15,-23 23,-15 27,-5 802,0 27,5 23,15 15,23 5,27 -5,27 -15,22 -23,16 -27,5 -802,0z" />
<path style="fill:#7f7f7f" d="M98,389 l0,-140 802,0 0,140 -802,0z" />
<path style="fill:#7f7f7f" d="M98,168 l0,-140 802,0 0,140 -802,0z" />
<path style="fill:#a1a1a1" d="M98,373 l0,-109 802,0 0,109 -802,0z" />
<path style="fill:#a1a1a1" d="M98,153 l0,-110 802,0 0,110 -802,0z" />
<path style="fill:#b8b8b8" d="M98,358 l0,-79 802,0 0,79 -802,0z" />
<path style="fill:#b8b8b8" d="M98,137 l0,-78 802,0 0,78 -802,0z" />
<path style="fill:#cfcfcf" d="M98,343 l0,-48 802,0 0,48 -802,0z" />
<path style="fill:#cfcfcf" d="M98,122 l0,-48 802,0 0,48 -802,0z" />
<path style="fill:#fff" d="M98,327 l0,-17 802,0 0,17 -802,0z" />
<path style="fill:#fff" d="M98,107 l0,-18 802,0 0,18 -802,0z" />
<path style="fill:none;stroke:#000;stroke-width:2" d="M98,249 l0,140" />
<path style="fill:none;stroke:#000;stroke-width:2" d="M900,249 l0,140" />
<path style="fill:none;stroke:#000;stroke-width:2" d="M98,28 l0,140" />
<path style="fill:none;stroke:#000;stroke-width:2" d="M900,28 l0,140" />
<path style="fill:#7f7f7f;stroke:#000;stroke-width:2" d="M118,449 l20,-60 722,0 20,60 -762,0z" />
<path style="fill:none;stroke:#000;stroke-width:2" d="M98,389 l-27,-5 -23,-16 -15,-23 -5,-26 5,-27 15,-23 23,-15 27,-5 802,0 27,5 23,15 15,23 5,27 -5,26 -15,23 -23,16 -27,5 -802,0" />
<path style="fill:none;stroke:#000;stroke-width:2" d="M98,168 l-27,-5 -23,-16 -15,-22 -5,-27 5,-27 15,-23 23,-15 27,-5 802,0 27,5 23,15 15,23 5,27 -5,27 -15,22 -23,16 -27,5 -802,0" />
<path style="fill:#7f7f7f" d="M790,268 l-452,0 0,-120 452,0 0,120z" />
<path style="fill:#8f8f8f" d="M766,268 l-404,0 0,-120 404,0 0,120z" />
<path style="fill:#9c9c9c" d="M743,268 l-357,0 0,-120 357,0 0,120z" />
<path style="fill:#ababab" d="M720,268 l-311,0 0,-120 311,0 0,120z" />
<path style="fill:#b8b8b8" d="M696,268 l-264,0 0,-120 264,0 0,120z" />
<path style="fill:#c7c7c7" d="M673,268 l-217,0 0,-120 217,0 0,120z" />
<path style="fill:#d4d4d4" d="M650,268 l-171,0 0,-120 171,0 0,120z" />
<path style="fill:#e3e3e3" d="M626,268 l-124,0 0,-120 124,0 0,120z" />
<path style="fill:#f0f0f0" d="M603,268 l-77,0 0,-120 77,0 0,120z" />
<path style="fill:#fff" d="M579,268 l-30,0 0,-120 30,0 0,120z" />
<path style="fill:none;stroke:#000;stroke-width:2" d="M789,268 l-451,0 0,-120 451,0 0,120" />

</svg>
