 

<svg xmlns:agg="http://www.example.com" xmlns="http://www.w3.org/2000/svg" preserveAspectRatio="none" width="1.0750in" height="1.0750in" viewBox="0 0 998 998">

<path style="fill:#cff" d="M650,756 l-100,18 -102,0 -100,-18 -91,-36 -73,-51 -51,-64 -26,-70 0,-72 26,-70 51,-64 73,-51 91,-36 100,-18 102,0 100,18 91,36 73,51 51,64 26,70 0,72 -26,70 -51,64 -73,51 -91,36z" />
<path style="fill:#bff2f2" d="M650,756 l-100,18 -102,0 -100,-18 -91,-36 242,-261 -151,-217 100,-18 102,0 100,18 -151,217 242,261 -91,36z" />
<path style="fill:#e5ffff" d="M650,756 l-100,18 -102,0 -100,-18 151,-297 -51,-235 102,0 -51,235 151,297z" />
<path style="fill:none;stroke:#000;stroke-width:2" d="M650,756 l-100,18 -102,0 -100,-18 -91,-36 -73,-51 -51,-64 -26,-70 0,-72 26,-70 51,-64 73,-51 91,-36 100,-18 102,0 100,18 91,36 73,51 51,64 26,70 0,72 -26,70 -51,64 -73,51 -91,36" />
<path style="fill:#9cc;stroke:#000;stroke-width:2" d="M891,535 l-26,70 -51,64 -73,51 -91,36 -100,18 -102,0 -100,-18 -91,-36 -73,-51 -51,-64 -26,-70 0,-23 26,66 51,59 73,47 91,34 100,17 102,0 100,-17 91,-34 73,-47 51,-59 26,-66 0,23z" />
<path style="fill:#cbe5e5" d="M435,27 l-119,33 -107,62 -87,87 -62,107 -33,121 0,124 33,119 62,108 88,88 108,62 119,33 124,0 119,-33 108,-62 88,-88 62,-108 33,-119 0,-124 -33,-121 -62,-106 -87,-88 -109,-62 -119,-33 -126,0 15,19 100,0 100,31 91,60 73,85 51,102 26,115 0,118 -26,115 -51,104 -73,85 -91,59 -100,32 -102,0 -100,-32 -91,-59 -73,-85 -51,-104 -26,-115 0,-118 26,-115 51,-102 73,-85 89,-59 104,-32 -15,-19z" />
<path style="fill:none;stroke:#000;stroke-width:2" d="M680,938 l-119,33 -124,0 -119,-33 -108,-62 -88,-88 -62,-108 -33,-119 0,-124 33,-121 62,-106 88,-88 108,-62 119,-33 124,0 119,33 109,62 87,88 62,108 33,119 0,124 -33,119 -62,108 -88,88 -108,62" />
<path style="fill:none;stroke:#000;stroke-width:2" d="M650,920 l-100,32 -102,0 -100,-32 -91,-59 -73,-85 -51,-102 -26,-115 0,-120 26,-115 51,-102 73,-85 91,-59 100,-32 102,0 100,31 91,60 73,85 51,102 26,115 0,118 -26,115 -51,104 -73,85 -91,59" />
<path style="fill:#e5ffff" d="M665,938 l87,-62 77,-88 55,-108 28,-119 0,-124 -28,-121 -55,-106 -77,-88 -87,-62 111,62 83,88 61,106 30,121 0,124 -30,119 -59,108 -85,88 -111,62z" />
<path style="fill:#e5ffff" d="M333,938 l-87,-62 -77,-88 -55,-108 -28,-119 0,-124 28,-121 55,-107 77,-87 85,-62 -109,62 -85,87 -59,107 -32,121 0,124 32,119 59,108 85,88 111,62z" />
<path style="fill:#9cc" d="M107,441 l784,0 0,37 -784,0 0,-37z" />
<path style="fill:#cff" d="M107,426 l784,0 0,15 -784,0 0,-15z" />
<path style="fill:none;stroke:#000;stroke-width:2" d="M107,426 l784,0 0,52 -784,0 0,-52" />
<path style="fill:none;stroke:#000;stroke-width:2" d="M111,441 l771,0" />

</svg>
