 

<svg xmlns:agg="http://www.example.com" xmlns="http://www.w3.org/2000/svg" preserveAspectRatio="none" width="1.6083in" height="0.8493in" viewBox="0 0 998 527">

<path style="fill:#ccc;stroke:#000;stroke-width:2" d="M224,28 l746,0 0,471 -746,0 0,-471z" />
<path style="fill:#ccc;stroke:#000;stroke-width:2" d="M224,380 l-59,0 -137,-196 137,-137 59,0 0,333z" />
<path style="fill:#c7c7c7" d="M224,361 l746,-196 0,334 -746,0 0,-138z" />
<path style="fill:#c7c7c7" d="M224,380 l-59,0 -105,-149 164,-60 0,209z" />
<path style="fill:#c2c2c2" d="M224,382 l746,-198 0,315 -746,0 0,-117z" />
<path style="fill:#c2c2c2" d="M224,380 l-59,0 -94,-134 153,-58 0,192z" />
<path style="fill:#bdbdbd" d="M224,410 l746,-196 0,285 -746,0 0,-89z" />
<path style="fill:#bdbdbd" d="M224,380 l-59,0 -79,-113 138,-53 0,166z" />
<path style="fill:none;stroke:#7f7f7f;stroke-width:2" d="M244,47 l707,0 0,431 -707,0 0,-431" />
<path style="fill:none;stroke:#7f7f7f;stroke-width:2" d="M754,47 l0,431" />
<path style="fill:none;stroke:#7f7f7f;stroke-width:2" d="M459,47 l0,431" />
<path style="fill:none;stroke:#7f7f7f;stroke-width:2" d="M499,47 l0,431" />
<path style="fill:#999;stroke:#000;stroke-width:2" d="M224,322 l-19,0 0,-117 19,0 0,117z" />

</svg>
