 

<svg xmlns:agg="http://www.example.com" xmlns="http://www.w3.org/2000/svg" preserveAspectRatio="none" width="1.2444in" height="1.0750in" viewBox="0 0 999 863">

<path style="fill:#999;stroke:#000;stroke-width:2" d="M735,473 l51,43 -68,66 -51,-42 68,-67z" />
<path style="fill:#b2b2b2;stroke:#000;stroke-width:2" d="M297,297 l506,-68 -34,236 -404,369 -68,-537z" />
<path style="fill:none;stroke:#000;stroke-width:2" d="M465,565 l304,-236 0,-32 -304,234 0,-32 304,-236" />
<path style="fill:#ccc;stroke:#000;stroke-width:2" d="M691,540 l57,15 -15,57 -57,-15 15,-57z" />
<path style="fill:#039" d="M401,818 l-68,16 -72,0 -67,-16 -63,-36 -49,-51 -35,-61 -19,-69 0,-70 19,-70 35,-60 49,-51 63,-36 67,-17 72,0 68,17 62,36 49,51 36,60 19,70 0,70 -19,69 -36,61 -51,51 -60,36z" />
<path style="fill:#039;stroke:#000;stroke-width:2" d="M846,418 l-51,13 -53,0 -53,-13 -45,-27 -37,-37 -27,-47 -13,-51 0,-53 13,-53 27,-45 37,-38 45,-26 53,-13 53,0 51,13 47,26 38,38 26,45 13,53 0,53 -13,51 -26,47 -40,37 -45,27z" />
<path style="fill:#0d40a6" d="M395,801 l-64,17 -67,0 -65,-17 -56,-34 -47,-48 -34,-56 -17,-64 0,-68 17,-64 34,-57 47,-47 56,-34 65,-17 67,0 64,17 57,34 47,47 34,57 17,64 0,68 -17,64 -34,56 -47,48 -57,34z" />
<path style="fill:#0d40a6" d="M842,405 l-49,13 -49,0 -49,-13 -43,-25 -34,-36 -26,-43 -12,-47 0,-51 12,-47 26,-44 34,-35 43,-25 49,-13 49,0 49,13 44,25 34,35 26,44 11,47 0,51 -11,47 -26,43 -34,36 -44,25z" />
<circle style="fill:#194cb2" cx="769" cy="229" r="177" />
<path style="fill:#194cb2" d="M388,786 l-60,15 -61,0 -60,-15 -53,-33 -45,-43 -30,-54 -17,-59 0,-62 17,-61 30,-52 43,-46 55,-30 60,-17 61,0 60,17 55,30 43,46 30,52 17,61 0,62 -17,59 -30,54 -45,43 -53,33z" />
<circle style="fill:#2659bf" cx="769" cy="229" r="164" />
<circle style="fill:#2659bf" cx="297" cy="565" r="218" />
<circle style="fill:#36c" cx="769" cy="229" r="151" />
<path style="fill:#36c" d="M375,753 l-51,15 -53,0 -53,-15 -45,-26 -38,-38 -26,-45 -13,-51 0,-54 13,-51 26,-46 38,-37 45,-27 53,-15 53,0 51,15 47,27 37,37 27,46 13,51 0,54 -13,51 -27,45 -39,38 -45,26z" />
<path style="fill:none;stroke:#000;stroke-width:2" d="M361,723 l-41,11 -45,0 -42,-11 -39,-22 -32,-32 -21,-38 -11,-43 0,-44 11,-43 21,-38 32,-32 39,-22 42,-12 45,0 41,12 40,22 30,32 23,38 11,43 0,44 -11,43 -23,38 -32,32 -38,22" />
<path style="fill:none;stroke:#000;stroke-width:2" d="M401,818 l-68,16 -72,0 -67,-16 -63,-36 -49,-51 -35,-61 -19,-69 0,-70 19,-70 35,-60 49,-51 63,-36 67,-17 72,0 68,17 62,36 49,51 36,60 19,70 0,70 -19,69 -36,61 -51,51 -60,36" />
<path style="fill:#ccc" d="M646,456 l47,47 -71,71 -48,-47 72,-71z" />
<path style="fill:#191919" d="M499,297 l68,0 0,100 -68,0 0,-100z" />
<path style="fill:none;stroke:#000;stroke-width:2" d="M574,527 l48,47 71,-71" />
<path style="fill:none;stroke:#7f7f7f;stroke-width:2" d="M499,397 l68,0 0,-100" />
<path style="fill:none;stroke:#fff;stroke-width:2" d="M574,527 l72,-71 47,47" />
<path style="fill:none;stroke:#fff;stroke-width:2" d="M499,397 l0,-100 68,0" />
<circle style="fill:#ccc;stroke:#000;stroke-width:2" cx="768" cy="229" r="126" />
<path style="fill:#000" d="M780,171 l-11,-11 -12,11 12,11 11,-11z" />
<path style="fill:#fff" d="M718,220 l102,0 0,17 -102,0 0,-17z" />
<path style="fill:#7f99cc" d="M718,195 l102,0 0,17 -102,0 0,-17z" />
<path style="fill:none;stroke:#000;stroke-width:2" d="M650,574 l-2,16 -3,14 -3,13 -5,11 -4,9 -6,7 -5,5 -6,2 -6,-1 -6,-5 -6,-8 -6,-13 -5,-16 -5,-21 -4,-25 -4,-31" />
<path style="fill:none;stroke:#98b2e5;stroke-width:2" d="M627,337 l-22,-40 -13,-45 0,-45 13,-46 22,-41 32,-32 42,-23 43,-13 47,0 46,13" />
<path style="fill:none;stroke:#98b2e5;stroke-width:2" d="M109,710 l-30,-53 -17,-60 0,-62 17,-61 30,-52 43,-44 55,-32 58,-15 63,0 60,15" />

</svg>
