 

<svg xmlns:agg="http://www.example.com" xmlns="http://www.w3.org/2000/svg" preserveAspectRatio="none" width="1.2330in" height="1.0750in" viewBox="0 0 999 871">

<path style="fill:#a6a6a6;stroke:#000;stroke-width:2" d="M747,843 l39,-20 -39,0 0,20z" />
<path style="fill:#a6a6a6;stroke:#000;stroke-width:2" d="M126,843 l39,-20 -39,0 0,20z" />
<path style="fill:#4c4c4c;stroke:#000;stroke-width:2" d="M28,107 l785,0 0,719 -785,0 0,-719z" />
<path style="fill:#000" d="M60,139 l720,0 0,622 -720,0 0,-622z" />
<path style="fill:#7f3f0c" d="M93,172 l655,0 0,556 -655,0 0,-556z" />
<path style="fill:none;stroke:#000;stroke-width:2" d="M93,204 l655,0" />
<path style="fill:none;stroke:#000;stroke-width:2" d="M93,270 l655,0" />
<path style="fill:none;stroke:#000;stroke-width:2" d="M93,335 l655,0" />
<path style="fill:none;stroke:#000;stroke-width:2" d="M93,401 l655,0" />
<path style="fill:none;stroke:#000;stroke-width:2" d="M93,466 l655,0" />
<path style="fill:none;stroke:#000;stroke-width:2" d="M93,532 l655,0" />
<path style="fill:none;stroke:#000;stroke-width:2" d="M93,597 l655,0" />
<path style="fill:none;stroke:#000;stroke-width:2" d="M93,663 l655,0" />
<path style="fill:none;stroke:#000;stroke-width:2" d="M748,237 l-655,0" />
<path style="fill:none;stroke:#000;stroke-width:2" d="M748,303 l-655,0" />
<path style="fill:none;stroke:#000;stroke-width:2" d="M748,368 l-655,0" />
<path style="fill:none;stroke:#000;stroke-width:2" d="M748,434 l-655,0" />
<path style="fill:none;stroke:#000;stroke-width:2" d="M748,499 l-655,0" />
<path style="fill:none;stroke:#000;stroke-width:2" d="M748,565 l-655,0" />
<path style="fill:none;stroke:#000;stroke-width:2" d="M748,630 l-655,0" />
<path style="fill:none;stroke:#000;stroke-width:2" d="M748,696 l-655,0" />
<path style="fill:#c63" d="M93,728 l16,-16 622,0 0,-524 17,-16 0,556 -655,0z" />
<path style="fill:#630" d="M748,171 l-17,17 -622,0 0,524 -16,16 0,-557 655,0z" />
<path style="fill:#999" d="M93,744 l655,0 0,17 -655,0 0,-17z" />
<path style="fill:#000" d="M93,826 l33,0 0,17 -33,0 0,-17z" />
<path style="fill:#000" d="M715,826 l33,0 0,17 -33,0 0,-17z" />
<path style="fill:#000;stroke:#000;stroke-width:2" d="M813,106 l157,-78 0,716 -157,79 0,-717z" />
<path style="fill:#7f7f7f;stroke:#000;stroke-width:2" d="M813,106 l157,-78 -785,0 -157,78 785,0z" />

</svg>
