 
<svg version="1.1" id="图层_1" xmlns:agg="http://www.example.com"
	 xmlns="http://www.w3.org/2000/svg" xmlns:xlink="http://www.w3.org/1999/xlink" x="0px" y="0px" width="64px" height="64px"
	 viewBox="0 0 64 64" enable-background="new 0 0 64 64" xml:space="preserve">
<g>
	<polyline fill="none" stroke="#040000" stroke-width="1.5" stroke-linecap="round" stroke-miterlimit="10" points="20.158,16.198 
		20.651,16.115 21.063,15.91 21.433,15.54 21.639,15.129 21.721,14.636 21.639,14.143 21.433,13.69 21.063,13.361 20.651,13.115 
		20.158,13.033 	"/>
	<polyline fill="none" stroke="#040000" stroke-width="1.5" stroke-linecap="round" stroke-miterlimit="10" points="20.158,19.362 
		20.651,19.28 21.063,19.075 21.433,18.705 21.639,18.294 21.721,17.801 21.639,17.308 21.433,16.855 21.063,16.526 20.651,16.279 
		20.158,16.198 	"/>
	<polyline fill="none" stroke="#040000" stroke-width="1.5" stroke-linecap="round" stroke-miterlimit="10" points="20.158,25.691 
		20.651,25.609 21.063,25.362 21.433,25.034 21.639,24.582 21.721,24.088 21.639,23.595 21.433,23.185 21.063,22.815 20.651,22.609 
		20.158,22.527 	"/>
	<polyline fill="none" stroke="#040000" stroke-width="1.5" stroke-linecap="round" stroke-miterlimit="10" points="20.158,22.527 
		20.651,22.444 21.063,22.239 21.433,21.869 21.639,21.417 21.721,20.965 21.639,20.472 21.433,20.02 21.063,19.65 20.651,19.444 
		20.158,19.362 	"/>
	
		<line fill="none" stroke="#040000" stroke-width="1.5" stroke-linecap="round" stroke-miterlimit="10" x1="16.992" y1="31.98" x2="45.404" y2="31.98"/>
	
		<line fill="none" stroke="#040000" stroke-width="1.5" stroke-linecap="round" stroke-miterlimit="10" x1="20.158" y1="28.856" x2="45.404" y2="28.856"/>
	
		<line fill="none" stroke="#040000" stroke-width="1.5" stroke-linecap="round" stroke-miterlimit="10" x1="20.158" y1="35.145" x2="29.615" y2="35.145"/>
	
		<line fill="none" stroke="#040000" stroke-width="1.5" stroke-linecap="round" stroke-miterlimit="10" x1="32.781" y1="28.856" x2="32.781" y2="25.691"/>
	
		<line fill="none" stroke="#040000" stroke-width="1.5" stroke-linecap="round" stroke-miterlimit="10" x1="45.404" y1="28.856" x2="45.404" y2="25.691"/>
	
		<line fill="none" stroke="#040000" stroke-width="1.5" stroke-linecap="round" stroke-miterlimit="10" x1="20.158" y1="28.856" x2="20.158" y2="25.691"/>
	
		<line fill="none" stroke="#040000" stroke-width="1.5" stroke-linecap="round" stroke-miterlimit="10" x1="32.781" y1="35.145" x2="32.781" y2="38.309"/>
	
		<line fill="none" stroke="#040000" stroke-width="1.5" stroke-linecap="round" stroke-miterlimit="10" x1="45.404" y1="31.98" x2="45.404" y2="38.309"/>
	
		<line fill="none" stroke="#040000" stroke-width="1.5" stroke-linecap="round" stroke-miterlimit="10" x1="20.158" y1="35.145" x2="20.158" y2="38.309"/>
	
		<line fill="none" stroke="#040000" stroke-width="1.5" stroke-linecap="round" stroke-miterlimit="10" x1="29.615" y1="35.145" x2="29.615" y2="54.091"/>
	<polyline fill="none" stroke="#040000" stroke-width="1.5" stroke-linecap="round" stroke-miterlimit="10" points="20.158,13.033 
		20.651,12.951 21.063,12.746 21.433,12.417 21.639,11.964 21.721,11.471 21.639,10.978 21.433,10.526 21.063,10.197 20.651,9.95 
		20.158,9.909 	"/>
	
		<line fill="none" stroke="#040000" stroke-width="1.5" stroke-linecap="round" stroke-miterlimit="10" x1="20.158" y1="9.909" x2="20.158" y2="3.58"/>
	<polyline fill="none" stroke="#040000" stroke-width="1.5" stroke-linecap="round" stroke-miterlimit="10" points="32.781,16.198 
		33.275,16.115 33.729,15.91 34.057,15.54 34.303,15.129 34.344,14.636 34.303,14.143 34.057,13.69 33.729,13.361 33.275,13.115 
		32.781,13.033 	"/>
	<polyline fill="none" stroke="#040000" stroke-width="1.5" stroke-linecap="round" stroke-miterlimit="10" points="32.781,19.362 
		33.275,19.28 33.729,19.075 34.057,18.705 34.303,18.294 34.344,17.801 34.303,17.308 34.057,16.855 33.729,16.526 33.275,16.279 
		32.781,16.198 	"/>
	<polyline fill="none" stroke="#040000" stroke-width="1.5" stroke-linecap="round" stroke-miterlimit="10" points="32.781,25.691 
		33.275,25.609 33.729,25.362 34.057,25.034 34.303,24.582 34.344,24.088 34.303,23.595 34.057,23.185 33.729,22.815 33.275,22.609 
		32.781,22.527 	"/>
	<polyline fill="none" stroke="#040000" stroke-width="1.5" stroke-linecap="round" stroke-miterlimit="10" points="32.781,22.527 
		33.275,22.444 33.729,22.239 34.057,21.869 34.303,21.417 34.344,20.965 34.303,20.472 34.057,20.02 33.729,19.65 33.275,19.444 
		32.781,19.362 	"/>
	<polyline fill="none" stroke="#040000" stroke-width="1.5" stroke-linecap="round" stroke-miterlimit="10" points="32.781,13.033 
		33.275,12.951 33.729,12.746 34.057,12.417 34.303,11.964 34.344,11.471 34.303,10.978 34.057,10.526 33.729,10.197 33.275,9.95 
		32.781,9.909 	"/>
	
		<line fill="none" stroke="#040000" stroke-width="1.5" stroke-linecap="round" stroke-miterlimit="10" x1="32.781" y1="9.909" x2="32.781" y2="3.58"/>
	<polyline fill="none" stroke="#040000" stroke-width="1.5" stroke-linecap="round" stroke-miterlimit="10" points="45.404,16.198 
		45.898,16.115 46.35,15.91 46.68,15.54 46.926,15.129 47.008,14.636 46.926,14.143 46.68,13.69 46.35,13.361 45.898,13.115 
		45.404,13.033 	"/>
	<polyline fill="none" stroke="#040000" stroke-width="1.5" stroke-linecap="round" stroke-miterlimit="10" points="45.404,19.362 
		45.898,19.28 46.35,19.075 46.68,18.705 46.926,18.294 47.008,17.801 46.926,17.308 46.68,16.855 46.35,16.526 45.898,16.279 
		45.404,16.198 	"/>
	<polyline fill="none" stroke="#040000" stroke-width="1.5" stroke-linecap="round" stroke-miterlimit="10" points="45.404,25.691 
		45.898,25.609 46.35,25.362 46.68,25.034 46.926,24.582 47.008,24.088 46.926,23.595 46.68,23.185 46.35,22.815 45.898,22.609 
		45.404,22.527 	"/>
	<polyline fill="none" stroke="#040000" stroke-width="1.5" stroke-linecap="round" stroke-miterlimit="10" points="45.404,22.527 
		45.898,22.444 46.35,22.239 46.68,21.869 46.926,21.417 47.008,20.965 46.926,20.472 46.68,20.02 46.35,19.65 45.898,19.444 
		45.404,19.362 	"/>
	<polyline fill="none" stroke="#040000" stroke-width="1.5" stroke-linecap="round" stroke-miterlimit="10" points="45.404,13.033 
		45.898,12.951 46.35,12.746 46.68,12.417 46.926,11.964 47.008,11.471 46.926,10.978 46.68,10.526 46.35,10.197 45.898,9.95 
		45.404,9.909 	"/>
	
		<line fill="none" stroke="#040000" stroke-width="1.5" stroke-linecap="round" stroke-miterlimit="10" x1="45.404" y1="9.909" x2="45.404" y2="3.58"/>
	<polyline fill="none" stroke="#040000" stroke-width="1.5" stroke-linecap="round" stroke-miterlimit="10" points="20.158,44.639 
		20.651,44.557 21.063,44.352 21.433,43.979 21.639,43.527 21.721,43.036 21.639,42.583 21.433,42.13 21.063,41.762 20.651,41.557 
		20.158,41.473 	"/>
	<polyline fill="none" stroke="#040000" stroke-width="1.5" stroke-linecap="round" stroke-miterlimit="10" points="20.158,47.803 
		20.651,47.721 21.063,47.475 21.433,47.145 21.639,46.693 21.721,46.199 21.639,45.707 21.433,45.295 21.063,44.927 20.651,44.721 
		20.158,44.639 	"/>
	<polyline fill="none" stroke="#040000" stroke-width="1.5" stroke-linecap="round" stroke-miterlimit="10" points="20.158,54.091 
		20.651,54.05 21.063,53.803 21.433,53.475 21.639,53.021 21.721,52.527 21.639,52.035 21.433,51.584 21.063,51.255 20.651,51.049 
		20.158,50.967 	"/>
	<polyline fill="none" stroke="#040000" stroke-width="1.5" stroke-linecap="round" stroke-miterlimit="10" points="20.158,50.967 
		20.651,50.886 21.063,50.639 21.433,50.311 21.639,49.857 21.721,49.364 21.639,48.872 21.433,48.46 21.063,48.09 20.651,47.885 
		20.158,47.803 	"/>
	
		<line fill="none" stroke="#040000" stroke-width="1.5" stroke-linecap="round" stroke-miterlimit="10" x1="32.781" y1="60.42" x2="32.781" y2="54.091"/>
	
		<line fill="none" stroke="#040000" stroke-width="1.5" stroke-linecap="round" stroke-miterlimit="10" x1="45.404" y1="60.42" x2="45.404" y2="54.091"/>
	
		<line fill="none" stroke="#040000" stroke-width="1.5" stroke-linecap="round" stroke-miterlimit="10" x1="20.158" y1="60.42" x2="20.158" y2="54.091"/>
	<polyline fill="none" stroke="#040000" stroke-width="1.5" stroke-linecap="round" stroke-miterlimit="10" points="20.158,41.473 
		20.651,41.391 21.063,41.186 21.433,40.814 21.639,40.404 21.721,39.912 21.639,39.418 21.433,38.967 21.063,38.639 20.651,38.391 
		20.158,38.309 	"/>
	<polyline fill="none" stroke="#040000" stroke-width="1.5" stroke-linecap="round" stroke-miterlimit="10" points="32.781,44.639 
		33.275,44.557 33.729,44.352 34.057,43.979 34.303,43.527 34.344,43.036 34.303,42.583 34.057,42.13 33.729,41.762 33.275,41.557 
		32.781,41.473 	"/>
	<polyline fill="none" stroke="#040000" stroke-width="1.5" stroke-linecap="round" stroke-miterlimit="10" points="32.781,47.803 
		33.275,47.721 33.729,47.475 34.057,47.145 34.303,46.693 34.344,46.199 34.303,45.707 34.057,45.295 33.729,44.927 33.275,44.721 
		32.781,44.639 	"/>
	<polyline fill="none" stroke="#040000" stroke-width="1.5" stroke-linecap="round" stroke-miterlimit="10" points="32.781,54.091 
		33.275,54.05 33.729,53.803 34.057,53.475 34.303,53.021 34.344,52.527 34.303,52.035 34.057,51.584 33.729,51.255 33.275,51.049 
		32.781,50.967 	"/>
	<polyline fill="none" stroke="#040000" stroke-width="1.5" stroke-linecap="round" stroke-miterlimit="10" points="32.781,50.967 
		33.275,50.886 33.729,50.639 34.057,50.311 34.303,49.857 34.344,49.364 34.303,48.872 34.057,48.46 33.729,48.09 33.275,47.885 
		32.781,47.803 	"/>
	<polyline fill="none" stroke="#040000" stroke-width="1.5" stroke-linecap="round" stroke-miterlimit="10" points="32.781,41.473 
		33.275,41.391 33.729,41.186 34.057,40.814 34.303,40.404 34.344,39.912 34.303,39.418 34.057,38.967 33.729,38.639 33.275,38.391 
		32.781,38.309 	"/>
	<polyline fill="none" stroke="#040000" stroke-width="1.5" stroke-linecap="round" stroke-miterlimit="10" points="45.404,44.639 
		45.898,44.557 46.35,44.352 46.68,43.979 46.926,43.527 47.008,43.036 46.926,42.583 46.68,42.13 46.35,41.762 45.898,41.557 
		45.404,41.473 	"/>
	<polyline fill="none" stroke="#040000" stroke-width="1.5" stroke-linecap="round" stroke-miterlimit="10" points="45.404,47.803 
		45.898,47.721 46.35,47.475 46.68,47.145 46.926,46.693 47.008,46.199 46.926,45.707 46.68,45.295 46.35,44.927 45.898,44.721 
		45.404,44.639 	"/>
	<polyline fill="none" stroke="#040000" stroke-width="1.5" stroke-linecap="round" stroke-miterlimit="10" points="45.404,54.091 
		45.898,54.05 46.35,53.803 46.68,53.475 46.926,53.021 47.008,52.527 46.926,52.035 46.68,51.584 46.35,51.255 45.898,51.049 
		45.404,50.967 	"/>
	<polyline fill="none" stroke="#040000" stroke-width="1.5" stroke-linecap="round" stroke-miterlimit="10" points="45.404,50.967 
		45.898,50.886 46.35,50.639 46.68,50.311 46.926,49.857 47.008,49.364 46.926,48.872 46.68,48.46 46.35,48.09 45.898,47.885 
		45.404,47.803 	"/>
	<polyline fill="none" stroke="#040000" stroke-width="1.5" stroke-linecap="round" stroke-miterlimit="10" points="45.404,41.473 
		45.898,41.391 46.35,41.186 46.68,40.814 46.926,40.404 47.008,39.912 46.926,39.418 46.68,38.967 46.35,38.639 45.898,38.391 
		45.404,38.309 	"/>
	
		<line fill="none" stroke="#040000" stroke-width="1.5" stroke-linecap="round" stroke-miterlimit="10" x1="20.158" y1="54.091" x2="16.992" y2="54.091"/>
	
		<line fill="none" stroke="#040000" stroke-width="1.5" stroke-linecap="round" stroke-miterlimit="10" x1="16.992" y1="54.091" x2="16.992" y2="31.98"/>
	
		<line fill="none" stroke="#040000" stroke-width="1.5" stroke-linecap="round" stroke-miterlimit="10" x1="42.238" y1="35.145" x2="42.238" y2="54.091"/>
	
		<line fill="none" stroke="#040000" stroke-width="1.5" stroke-linecap="round" stroke-miterlimit="10" x1="42.238" y1="54.091" x2="45.404" y2="54.091"/>
	
		<line fill="none" stroke="#040000" stroke-width="1.5" stroke-linecap="round" stroke-miterlimit="10" x1="29.615" y1="54.091" x2="32.781" y2="54.091"/>
	
		<line fill="none" stroke="#040000" stroke-width="1.5" stroke-linecap="round" stroke-miterlimit="10" x1="32.781" y1="35.145" x2="42.238" y2="35.145"/>
</g>
</svg>
