 

<svg xmlns:agg="http://www.example.com" xmlns="http://www.w3.org/2000/svg" preserveAspectRatio="none" width="1.6083in" height="0.4427in" viewBox="0 0 999 275">

<path style="fill:#7f7f7f" d="M852,228 l0,-23 -54,0 8,-27 -9,-27 -12,-13 18,-22 2,-28 -9,-16 58,0 0,-23 -818,0 -6,6 -2,4 2,6 6,7 712,0 27,12 2,28 -22,14 -719,0 -6,6 -2,6 2,7 6,4 712,0 27,13 2,29 -19,14 -722,0 -8,6 0,11 8,6 816,0z" />
<path style="fill:#7f7f7f" d="M917,234 l16,0 0,-35 -16,0 0,35z" />
<path style="fill:#7f7f7f" d="M917,228 l-11,0 0,-25 11,0 0,25z" />
<path style="fill:#7f7f7f" d="M917,78 l16,0 0,-36 -16,0 0,36z" />
<path style="fill:#7f7f7f" d="M917,72 l-11,0 0,-23 11,0 0,23z" />
<path style="fill:#b2b2b2;stroke:#000;stroke-width:2" d="M852,51 l0,16 -58,0 -3,-2 -3,-2 -2,-2 -3,-3 -4,-2 -3,-2 -4,-2 -3,-1 83,0z" />
<path style="fill:#b2b2b2;stroke:#000;stroke-width:2" d="M854,224 l0,-17 -816,0 -4,4 -2,5 2,4 4,4 816,0z" />
<path style="fill:#b2b2b2;stroke:#000;stroke-width:2" d="M764,128 l17,7 2,1 5,-3 13,-24 1,-5 0,-5 0,-5 -12,-24 -26,-16 -11,-3 -5,0 -710,0 -4,6 -2,2 2,4 4,4 710,0 27,10 10,27 -16,22 -5,2z" />
<path style="fill:#b2b2b2;stroke:#000;stroke-width:2" d="M766,205 l28,0 8,-23 -6,-26 -22,-20 -26,-6 -710,0 -4,4 -2,4 6,7 710,0 27,9 10,24 -15,24 -4,3z" />
<path style="fill:#b2b2b2;stroke:#000;stroke-width:2" d="M898,224 l-21,0 0,23 21,0 0,-23z" />
<path style="fill:#b2b2b2;stroke:#000;stroke-width:2" d="M852,224 l23,0 0,23 -23,0 0,-23z" />
<path style="fill:#b2b2b2;stroke:#000;stroke-width:2" d="M852,184 l23,0 0,17 -23,0 0,-17z" />
<path style="fill:#b2b2b2;stroke:#000;stroke-width:2" d="M898,184 l-21,0 0,17 21,0 0,-17z" />
<path style="fill:#b2b2b2;stroke:#000;stroke-width:2" d="M898,236 l8,0 0,-39 -8,0 0,39z" />
<path style="fill:#b2b2b2;stroke:#000;stroke-width:2" d="M959,199 l-11,0 0,8 11,0 0,-8z" />
<path style="fill:#b2b2b2;stroke:#000;stroke-width:2" d="M933,199 l13,0 0,8 -13,0 0,-8z" />
<path style="fill:#b2b2b2;stroke:#000;stroke-width:2" d="M933,222 l13,0 0,12 -13,0 0,-12z" />
<path style="fill:#b2b2b2;stroke:#000;stroke-width:2" d="M959,222 l-11,0 0,12 11,0 0,-12z" />
<path style="fill:#b2b2b2;stroke:#000;stroke-width:2" d="M898,67 l-21,0 0,23 21,0 0,-23z" />
<path style="fill:#b2b2b2;stroke:#000;stroke-width:2" d="M852,67 l23,0 0,23 -23,0 0,-23z" />
<path style="fill:#b2b2b2;stroke:#000;stroke-width:2" d="M852,28 l23,0 0,16 -23,0 0,-16z" />
<path style="fill:#b2b2b2;stroke:#000;stroke-width:2" d="M898,28 l-21,0 0,16 21,0 0,-16z" />
<path style="fill:#b2b2b2;stroke:#000;stroke-width:2" d="M898,80 l8,0 0,-40 -8,0 0,40z" />
<path style="fill:#b2b2b2;stroke:#000;stroke-width:2" d="M959,42 l-11,0 0,9 11,0 0,-9z" />
<path style="fill:#b2b2b2;stroke:#000;stroke-width:2" d="M933,42 l13,0 0,9 -13,0 0,-9z" />
<path style="fill:#b2b2b2;stroke:#000;stroke-width:2" d="M933,65 l13,0 0,13 -13,0 0,-13z" />
<path style="fill:#b2b2b2;stroke:#000;stroke-width:2" d="M959,65 l-11,0 0,13 11,0 0,-13z" />
<path style="fill:#f0f0f0" d="M853,58 l0,5 -64,0 -2,-2 -2,-1 -1,-1 -2,-1 71,0z" />
<path style="fill:#f0f0f0" d="M771,130 l4,2 2,1 4,-3 15,-25 0,-5 0,-5 -14,-25 -25,-11 -5,-1 -5,0 -707,0 -3,2 3,3 707,0 27,8 15,21 -7,29 -11,9z" />
<path style="fill:#f0f0f0" d="M776,205 l9,0 11,-24 0,-3 0,-5 -14,-25 -25,-12 -5,0 -5,-1 -707,0 -3,3 3,2 707,0 27,9 15,21 -5,26 -5,6 -3,3z" />
<path style="fill:#f0f0f0" d="M853,219 l0,-5 -813,0 -3,2 3,3 813,0z" />
<path style="fill:#f0f0f0;stroke:#000;stroke-width:2" d="M959,223 l11,0 0,-15 -11,0 0,15z" />
<path style="fill:#f0f0f0;stroke:#000;stroke-width:2" d="M959,221 l-12,0 0,-13 12,0 0,13z" />
<path style="fill:#f0f0f0;stroke:#000;stroke-width:2" d="M934,221 l12,0 0,-13 -12,0 0,13z" />
<path style="fill:#f0f0f0;stroke:#000;stroke-width:2" d="M918,224 l15,0 0,-25 -15,0 0,25z" />
<path style="fill:#f0f0f0;stroke:#000;stroke-width:2" d="M899,224 l-22,0 0,-22 22,0 0,22z" />
<path style="fill:#f0f0f0;stroke:#000;stroke-width:2" d="M853,224 l23,0 0,-22 -23,0 0,22z" />
<path style="fill:#f0f0f0;stroke:#000;stroke-width:2" d="M959,67 l11,0 0,-15 -11,0 0,15z" />
<path style="fill:#f0f0f0;stroke:#000;stroke-width:2" d="M959,65 l-12,0 0,-13 12,0 0,13z" />
<path style="fill:#f0f0f0;stroke:#000;stroke-width:2" d="M934,65 l12,0 0,-13 -12,0 0,13z" />
<path style="fill:#f0f0f0;stroke:#000;stroke-width:2" d="M918,67 l15,0 0,-24 -15,0 0,24z" />
<path style="fill:#f0f0f0;stroke:#000;stroke-width:2" d="M899,68 l-22,0 0,-23 22,0 0,23z" />
<path style="fill:#f0f0f0;stroke:#000;stroke-width:2" d="M853,68 l23,0 0,-23 -23,0 0,23z" />

</svg>
