 

<svg xmlns:agg="http://www.example.com" xmlns="http://www.w3.org/2000/svg" preserveAspectRatio="none" width="1.6083in" height="0.9756in" viewBox="0 0 999 606">

<path style="fill:#b2b2b2;stroke:#000;stroke-width:2" d="M28,578 l0,-550 942,0 -79,20 -784,0 0,509 -79,21z" />
<path style="fill:#e5e5e5;stroke:#000;stroke-width:2" d="M970,28 l0,550 -942,0 79,-19 784,0 0,-511 79,-20z" />
<path style="fill:#d8e5e5" d="M912,557 l19,-499 39,-10 -18,509 -40,0z" />
<path style="fill:#999" d="M970,28 l0,550 -18,0 0,-547 18,-3z" />
<path style="fill:#fff" d="M912,557 l0,-509 19,0 -19,509z" />
<path style="fill:#bfcccc" d="M107,557 l0,-499 -21,0 -40,499 61,0z" />
<path style="fill:#fff" d="M46,525 l40,-445 -40,189 0,256z" />
<path style="fill:#333" d="M952,311 l18,0 0,50 -18,0 0,-50z" />
<path style="fill:#333" d="M28,311 l18,0 0,50 -18,0 0,-50z" />
<path style="fill:none;stroke:#000;stroke-width:2" d="M46,48 l0,519" />
<path style="fill:none;stroke:#000;stroke-width:2" d="M952,578 l0,-520" />
<path style="fill:#d8e5e5" d="M912,480 l0,19 -826,0 0,-19 39,-315 748,0 39,315z" />
<path style="fill:#d1dede" d="M912,480 l0,19 -826,0 0,-19 13,-106 781,-147 32,253z" />
<path style="fill:#c9d6d6" d="M912,480 l0,19 -826,0 0,-19 8,-60 791,-149 27,209z" />
<path style="fill:#a5b2b2" d="M912,480 l0,19 -826,0 0,-19 826,0z" />
<path style="fill:none;stroke:#000;stroke-width:2" d="M912,480 l0,19 -826,0 0,-19 39,-315 748,0 39,315" />
<path style="fill:none;stroke:#fff;stroke-width:2" d="M125,284 l748,0" />
<path style="fill:none;stroke:#fff;stroke-width:2" d="M107,459 l784,0" />
<path style="fill:none;stroke:#366;stroke-width:2" d="M125,186 l748,0" />
<path style="fill:none;stroke:#366;stroke-width:2" d="M125,303 l748,0" />

</svg>
