 
<svg version="1.1" id="图层_1" xmlns:agg="http://www.example.com"
	 xmlns="http://www.w3.org/2000/svg" xmlns:xlink="http://www.w3.org/1999/xlink" x="0px" y="0px" width="64px" height="64px"
	 viewBox="0 0 64 64" enable-background="new 0 0 64 64" xml:space="preserve">
<g>
	<polygon fill="none" stroke="#040000" stroke-width="2" stroke-linecap="round" stroke-miterlimit="10" points="32.031,32.001 
		31.845,29.936 31.406,27.997 30.592,26.119 29.528,24.367 28.214,22.803 26.648,21.489 24.959,20.426 23.081,19.676 21.077,19.175 
		19.076,19.049 17.009,19.175 15.069,19.676 13.191,20.426 11.438,21.489 9.875,22.803 8.561,24.367 7.495,26.119 6.745,27.997 
		6.244,29.936 6.118,32.001 6.244,34.003 6.745,36.005 7.495,37.882 8.561,39.57 9.875,41.134 11.438,42.449 13.191,43.512 
		15.069,44.326 17.009,44.762 19.076,44.951 21.077,44.762 23.081,44.326 24.959,43.512 26.648,42.449 28.214,41.134 29.528,39.57 
		30.592,37.882 31.406,36.005 31.845,34.003 	"/>
	
		<line fill="none" stroke="#040000" stroke-width="2" stroke-linecap="round" stroke-miterlimit="10" x1="55.38" y1="23.555" x2="45.68" y2="40.385"/>
	
		<line fill="none" stroke="#040000" stroke-width="2" stroke-linecap="round" stroke-miterlimit="10" x1="44.988" y1="23.555" x2="35.227" y2="40.385"/>
	
		<line fill="none" stroke="#040000" stroke-width="2" stroke-linecap="round" stroke-miterlimit="10" x1="32.031" y1="32.001" x2="57.882" y2="32.001"/>
	
		<line fill="none" stroke="#040000" stroke-width="2" stroke-linecap="round" stroke-miterlimit="10" x1="19.076" y1="32.001" x2="19.076" y2="57.9"/>
	
		<line fill="none" stroke="#040000" stroke-width="2" stroke-linecap="round" stroke-miterlimit="10" x1="19.076" y1="32.001" x2="19.076" y2="6.099"/>
</g>
</svg>
