 

<svg xmlns:agg="http://www.example.com" xmlns="http://www.w3.org/2000/svg" preserveAspectRatio="none" width="0.8167in" height="1.0750in" viewBox="0 0 759 999">

<path style="fill:#7f7f00" d="M561,303 l0,-50 64,0 0,50 -64,0z" />
<path style="fill:#7f7f00" d="M253,61 l252,0 0,-29 -252,0 0,29z" />
<path style="fill:#7f7f00" d="M171,164 l414,0 7,-12 -428,0 7,12z" />
<path style="fill:#7f7f00" d="M190,61 l381,0 28,44 0,47 -442,0 0,-47 33,-44z" />
<path style="fill:#7f7f00" d="M42,77 l21,0 0,101 -21,0 0,-101z" />
<path style="fill:#7f7f00" d="M681,28 l-23,0 0,101 23,0 0,-101z" />
<path style="fill:#7f7f00" d="M658,204 l-33,0 0,148 33,0 0,-148z" />
<path style="fill:#7f7f00" d="M119,827 l520,0 0,-148 -520,0 0,148z" />
<path style="fill:#7f7f00" d="M557,846 l2,0 0,-19 -2,0 -358,0 0,35 26,35 303,0 29,-32 0,-19z" />
<path style="fill:#7f7f00" d="M202,862 l0,42 -153,0 0,34 185,0 0,-41 -9,0 -23,-35z" />
<path style="fill:#7f7f00" d="M524,897 l4,0 29,-32 0,-19 0,58 150,0 0,34 -183,0 0,-41z" />
<path style="fill:#7f7f00" d="M84,512 l33,0 0,148 -33,0 0,-148z" />
<path style="fill:#7f7f00" d="M197,561 l0,50 -80,0 0,-50 80,0z" />
<path style="fill:#7f7f00" d="M159,112 l0,33 -96,0 0,-33 96,0z" />
<path style="fill:#7f7f00" d="M592,96 l-19,-33 85,0 0,33 -66,0z" />
<path style="fill:#7f7f00" d="M28,869 l21,0 0,101 -21,0 0,-101z" />
<path style="fill:#7f7f00" d="M731,869 l-24,0 0,101 24,0 0,-101z" />
<path style="fill:#bfbf00" d="M561,300 l0,-44 64,0 0,44 -64,0z" />
<path style="fill:#bfbf00" d="M655,209 l-28,0 0,117 28,0 0,-117z" />
<path style="fill:#bfbf00" d="M679,30 l-19,0 0,82 19,0 0,-82z" />
<path style="fill:#bfbf00" d="M592,94 l-17,-31 83,0 0,31 -66,0z" />
<path style="fill:#bfbf00" d="M260,58 l120,0 0,-26 -120,0 0,26z" />
<path style="fill:#bfbf00" d="M206,61 l263,0 10,44 0,45 -301,0 0,-45 28,-44z" />
<path style="fill:#bfbf00" d="M159,112 l0,31 -96,0 0,-31 96,0z" />
<path style="fill:#bfbf00" d="M42,79 l21,0 0,83 -21,0 0,-83z" />
<path style="fill:#bfbf00" d="M86,517 l29,0 0,117 -29,0 0,-117z" />
<path style="fill:#bfbf00" d="M197,566 l0,42 -80,0 0,-42 80,0z" />
<path style="fill:#bfbf00" d="M133,820 l424,0 0,-137 -424,0 0,137z" />
<path style="fill:#bfbf00" d="M213,825 l256,0 -11,70 -219,0 -26,-38 0,-32z" />
<path style="fill:#bfbf00" d="M263,916 l232,0 0,-19 -232,0 0,19z" />
<path style="fill:#bfbf00" d="M728,872 l-19,0 0,82 19,0 0,-82z" />
<path style="fill:#bfbf00" d="M526,897 l2,0 26,-30 0,37 153,0 0,31 -181,0 0,-38z" />
<path style="fill:#bfbf00" d="M202,865 l23,32 7,0 0,38 -181,0 0,-31 151,0 0,-39z" />
<path style="fill:#bfbf00" d="M30,872 l19,0 0,82 -19,0 0,-82z" />
<path style="fill:#7f7f7f" d="M197,164 l364,0 0,515 -364,0 0,-515z" />
<path style="fill:#b2b2b2" d="M213,164 l280,0 0,515 -280,0 0,-515z" />
<path style="fill:none;stroke:#000;stroke-width:2" d="M357,366 l82,0 0,64 -82,0 0,-64" />
<path style="fill:#f0f0f0" d="M230,164 l85,0 0,515 -85,0 0,-515z" />
<path style="fill:#f0f0f0" d="M359,368 l82,0 0,64 -82,0 0,-64z" />
<path style="fill:#7f7f00" d="M202,846 l30,0 0,-19 -30,0 0,19z" />
<path style="fill:#7f7f00" d="M136,846 l30,0 0,-19 -30,0 0,19z" />
<path style="fill:#7f7f00" d="M267,846 l31,0 0,-19 -31,0 0,19z" />
<path style="fill:#7f7f00" d="M331,846 l31,0 0,-19 -31,0 0,19z" />
<path style="fill:#7f7f00" d="M397,846 l30,0 0,-19 -30,0 0,19z" />
<path style="fill:#7f7f00" d="M594,846 l31,0 0,-19 -31,0 0,19z" />
<path style="fill:#7f7f00" d="M594,679 l31,0 0,-19 -31,0 0,19z" />
<path style="fill:#7f7f00" d="M528,679 l31,0 0,-19 -31,0 0,19z" />
<path style="fill:#7f7f00" d="M463,679 l30,0 0,-19 -30,0 0,19z" />
<path style="fill:#7f7f00" d="M397,679 l30,0 0,-19 -30,0 0,19z" />
<path style="fill:#7f7f00" d="M331,679 l31,0 0,-19 -31,0 0,19z" />
<path style="fill:#7f7f00" d="M267,679 l31,0 0,-19 -31,0 0,19z" />
<path style="fill:#7f7f00" d="M202,679 l30,0 0,-19 -30,0 0,19z" />
<path style="fill:#7f7f00" d="M136,679 l30,0 0,-19 -30,0 0,19z" />
<path style="fill:#bfbf00" d="M143,846 l11,0 0,-17 -11,0 0,17z" />
<path style="fill:#bfbf00" d="M209,846 l11,0 0,-17 -11,0 0,17z" />
<path style="fill:#bfbf00" d="M274,846 l12,0 0,-17 -12,0 0,17z" />
<path style="fill:#bfbf00" d="M340,846 l10,0 0,-17 -10,0 0,17z" />
<path style="fill:#bfbf00" d="M406,846 l10,0 0,-17 -10,0 0,17z" />
<path style="fill:#bfbf00" d="M469,846 l12,0 0,-17 -12,0 0,17z" />
<path style="fill:#bfbf00" d="M535,846 l12,0 0,-17 -12,0 0,17z" />
<path style="fill:#bfbf00" d="M601,846 l12,0 0,-17 -12,0 0,17z" />
<path style="fill:#bfbf00" d="M601,677 l12,0 0,-17 -12,0 0,17z" />
<path style="fill:#bfbf00" d="M535,677 l12,0 0,-17 -12,0 0,17z" />
<path style="fill:#bfbf00" d="M469,677 l12,0 0,-17 -12,0 0,17z" />
<path style="fill:#bfbf00" d="M406,677 l10,0 0,-17 -10,0 0,17z" />
<path style="fill:#bfbf00" d="M340,677 l10,0 0,-17 -10,0 0,17z" />
<path style="fill:#bfbf00" d="M274,677 l12,0 0,-17 -12,0 0,17z" />
<path style="fill:#bfbf00" d="M209,677 l11,0 0,-17 -11,0 0,17z" />
<path style="fill:#bfbf00" d="M143,677 l11,0 0,-17 -11,0 0,17z" />
<path style="fill:#ffff7f" d="M554,867 l-5,7 0,38 158,0 0,-5 -153,0 0,-40z" />
<path style="fill:#ffff7f" d="M209,874 l-5,-7 0,40 -153,0 0,5 158,0 0,-38z" />
<path style="fill:#ffff7f" d="M728,874 l-19,0 0,9 19,0 0,-9z" />
<path style="fill:#ffff7f" d="M30,874 l19,0 0,9 -19,0 0,-9z" />
<path style="fill:#ffff7f" d="M164,820 l61,0 0,-137 -61,0 0,137z" />
<path style="fill:#ffff7f" d="M86,519 l29,0 0,12 -29,0 0,-12z" />
<path style="fill:#ffff7f" d="M197,568 l0,5 -80,0 0,-5 80,0z" />
<path style="fill:#ffff7f" d="M655,211 l-28,0 0,12 28,0 0,-12z" />
<path style="fill:#ffff7f" d="M561,265 l0,-7 64,0 0,7 -64,0z" />
<path style="fill:#ffff7f" d="M270,58 l21,0 0,-26 -21,0 0,26z" />
<path style="fill:#ffff7f" d="M218,61 l85,0 -7,89 -106,0 0,-45 28,-44z" />
<path style="fill:#ffff7f" d="M679,32 l-19,0 0,10 19,0 0,-10z" />
<path style="fill:#ffff7f" d="M578,70 l-3,-5 83,0 0,5 -80,0z" />
<path style="fill:#ffff7f" d="M42,82 l21,0 0,9 -21,0 0,-9z" />
<path style="fill:#ffff7f" d="M159,115 l0,4 -96,0 0,-4 96,0z" />

</svg>
