 

<svg xmlns:agg="http://www.example.com" xmlns="http://www.w3.org/2000/svg" preserveAspectRatio="none" width="0.4347in" height="1.0750in" viewBox="0 0 404 999">

<path style="fill:#999;stroke:#000;stroke-width:2" d="M342,931 l0,-884 -314,0 0,884 19,19 27,9 36,7 28,2 31,2 16,0 31,-1 30,-2 26,-3 34,-8 24,-10 12,-15z" />
<path style="fill:#a6a6a6" d="M49,47 l272,0 0,902 -39,11 -46,7 -51,3 -51,-3 -46,-7 -39,-11 0,-902z" />
<path style="fill:#b5b5b5" d="M70,47 l230,0 0,909 -33,7 -39,5 -43,2 -43,-2 -39,-5 -33,-7 0,-909z" />
<path style="fill:#c2c2c2" d="M91,47 l188,0 0,914 -27,5 -32,2 -35,2 -35,-2 -32,-2 -26,-5 -1,-914z" />
<path style="fill:#cfcfcf" d="M112,47 l146,0 0,918 -21,2 -52,3 -52,-3 -21,-2 0,-918z" />
<path style="fill:#dbdbdb" d="M133,47 l104,0 0,920 -32,2 -20,1 -19,-1 -33,-2 0,-920z" />
<path style="fill:#ebebeb" d="M154,47 l62,0 0,921 -31,2 -31,-2 0,-921z" />
<path style="fill:#f7f7f7" d="M175,47 l20,0 0,921 -1,0 -2,1 -3,0 -4,1 -4,-1 -3,0 -2,-1 -1,0 0,-921z" />
<path style="fill:#4c4c4c;stroke:#000;stroke-width:2" d="M28,67 l0,-20 314,0 0,20 -11,7 -34,7 -53,4 -59,2 -59,-2 -53,-4 -34,-7 -11,-7z" />
<ellipse style="fill:#666;stroke:#000;stroke-width:2" cx="185" cy="47" rx="157" ry="19" />
<path style="fill:none;stroke:#000;stroke-width:2" d="M342,911 l-11,15 -34,14 -53,8 -59,3 -59,-3 -53,-8 -34,-14 -11,-15" />
<path style="fill:none;stroke:#000;stroke-width:2" d="M121,283 l128,0 0,-39 -128,0 0,39" />
<path style="fill:#fff;stroke:#000;stroke-width:2" d="M126,278 l118,0 0,-29 -118,0 0,29z" />
<path style="fill:#060" d="M185,268 l49,0 0,-10 -49,0 0,10z" />
<path style="fill:#f00" d="M136,268 l34,0 0,-10 -34,0 0,10z" />
<path style="fill:#000" d="M170,902 l30,0 0,29 -30,0 0,-29z" />
<path style="fill:#000" d="M303,195 l5,-21 14,-9 14,9 6,21 -6,21 -14,8 -14,-8 -5,-21z" />
<path style="fill:#7f1900;stroke:#000;stroke-width:2" d="M322,185 l-5,10 5,9 49,0 0,-19 -49,0z" />
<path style="fill:#7f1900;stroke:#000;stroke-width:2" d="M175,784 l20,0 0,127 -20,0 0,-127z" />
<path style="fill:none;stroke:#fc0;stroke-width:2" d="M322,195 l44,0" />
<path style="fill:none;stroke:#fc0;stroke-width:2" d="M185,906 l0,-117" />
<circle style="fill:#b2b2b2;stroke:#000;stroke-width:2" cx="185" cy="754" r="34" />
<circle style="fill:#e5e5e5" cx="192" cy="762" r="22" />
<path style="fill:#000" d="M376,195 l-5,-10 -5,10 5,9 5,-9z" />

</svg>
