 

<svg xmlns:agg="http://www.example.com" xmlns="http://www.w3.org/2000/svg" preserveAspectRatio="none" width="1.6083in" height="0.7945in" viewBox="0 0 998 493">

<path style="fill:#ccc" d="M28,173 l941,0 0,79 -941,0 0,-79z" />
<path style="fill:#d4d4d4" d="M29,178 l941,0 0,69 -941,0 0,-69z" />
<path style="fill:#dedede" d="M29,184 l941,0 0,57 -941,0 0,-57z" />
<path style="fill:#e5e5e5" d="M29,190 l941,0 0,45 -941,0 0,-45z" />
<path style="fill:#ededed" d="M29,196 l941,0 0,33 -941,0 0,-33z" />
<path style="fill:#f7f7f7" d="M29,201 l941,0 0,23 -941,0 0,-23z" />
<path style="fill:#fff" d="M28,207 l941,0 0,11 -941,0 0,-11z" />
<path style="fill:none;stroke:#000;stroke-width:2" d="M28,173 l941,0 0,79 -941,0 0,-79" />
<path style="fill:#596666" d="M740,397 l-577,0 -32,-51 -11,-85 0,-98 11,-84 32,-51 577,0 0,24 115,115 23,0 0,93 -23,0 -115,113 0,24z" />
<path style="fill:#637070" d="M740,377 l-577,0 -32,-44 -11,-77 0,-87 11,-77 32,-45 577,0 0,20 115,104 23,0 0,83 -23,0 -115,102 0,21z" />
<path style="fill:#6b7878" d="M740,358 l-577,0 -32,-40 -11,-68 0,-77 11,-68 32,-38 577,0 0,17 115,93 23,0 0,71 -23,0 -115,91 0,19z" />
<path style="fill:#758282" d="M740,337 l-577,0 -32,-32 -11,-58 0,-69 11,-58 32,-34 577,0 0,15 115,80 23,0 0,64 -23,0 -115,77 0,15z" />
<path style="fill:#7f8c8c" d="M740,318 l-577,0 -32,-28 -11,-49 0,-57 11,-49 32,-30 577,0 0,15 115,66 23,0 0,53 -23,0 -115,66 0,13z" />
<path style="fill:#899696" d="M740,299 l-577,0 -32,-24 -11,-40 0,-47 11,-40 32,-22 577,0 0,11 115,53 23,0 0,43 -23,0 -115,55 0,11z" />
<path style="fill:#919e9e" d="M740,280 l-577,0 -32,-19 -11,-32 0,-35 11,-31 32,-18 577,0 0,9 115,42 23,0 0,33 -23,0 -115,42 0,9z" />
<path style="fill:#9ba8a8" d="M740,260 l-577,0 -32,-13 -11,-21 0,-27 11,-22 32,-14 577,0 0,6 115,30 23,0 0,25 -23,0 -115,30 0,6z" />
<path style="fill:#a5b2b2" d="M740,241 l-577,0 -32,-8 -11,-13 0,-15 11,-13 32,-8 577,0 0,4 115,17 23,0 0,15 -23,0 -115,17 0,4z" />
<path style="fill:none;stroke:#000;stroke-width:2" d="M740,397 l-577,0 -32,-51 -11,-85 0,-98 11,-84 32,-51 577,0 0,24 115,115 23,0 0,93 -23,0 -115,113 0,24" />
<path style="fill:none;stroke:#bfcccc;stroke-width:2" d="M165,397 l0,-369" />
<path style="fill:none;stroke:#bfcccc;stroke-width:2" d="M740,373 l0,-323" />
<path style="fill:none;stroke:#bfcccc;stroke-width:2" d="M855,258 l0,-91" />
<path style="fill:#6b7878" d="M210,350 l25,0 0,115 -25,0 0,-115z" />
<path style="fill:#e5e5b2" d="M210,442 l25,0 0,23 -25,0 0,-23z" />
<path style="fill:none;stroke:#000;stroke-width:2" d="M213,350 l0,115 22,0 0,-115" />
<path style="fill:none;stroke:#000;stroke-width:2" d="M476,120 l0,185" />
<path style="fill:none;stroke:#000;stroke-width:2" d="M488,120 l0,185" />
<path style="fill:none;stroke:#000;stroke-width:2" d="M499,154 l0,115" />
<path style="fill:none;stroke:#000;stroke-width:2" d="M533,120 l0,185" />
<path style="fill:none;stroke:#000;stroke-width:2" d="M544,196 l0,56" />
<path style="fill:none;stroke:#000;stroke-width:2" d="M275,109 l0,184" />
<path style="fill:none;stroke:#000;stroke-width:2" d="M288,109 l0,184" />

</svg>
