 

<svg xmlns:agg="http://www.example.com" xmlns="http://www.w3.org/2000/svg" preserveAspectRatio="none" width="1.4131in" height="1.0750in" viewBox="0 0 999 760">

<path style="fill:#999;stroke:#000;stroke-width:2" d="M727,409 l0,106 243,0 0,-106 -243,0z" />
<path style="fill:#999;stroke:#000;stroke-width:2" d="M685,218 l127,0 42,43 0,148 85,0 0,-185 -90,-91 -37,0 -127,0 0,85z" />
<path style="fill:#b2b2b2" d="M727,423 l0,78 243,0 0,-78 -243,0z" />
<path style="fill:#b2b2b2" d="M685,208 l132,0 48,47 0,154 63,0 0,-180 -85,-85 -158,0 0,64z" />
<path style="fill:#ccc" d="M727,432 l0,60 243,0 0,-60 -243,0z" />
<path style="fill:#ccc" d="M685,200 l134,0 54,52 0,157 48,0 0,-178 -81,-79 -155,0 0,48z" />
<path style="fill:#e5e5e5" d="M727,443 l0,38 243,0 0,-38 -243,0z" />
<path style="fill:#e5e5e5" d="M685,190 l137,0 61,58 0,161 29,0 0,-174 -77,-74 -150,0 0,29z" />
<path style="fill:#fff" d="M685,181 l142,0 65,63 -1,165 11,0 0,-169 -70,-70 -147,0 0,11z" />
<path style="fill:#fff" d="M727,455 l0,14 243,0 0,-14 -243,0z" />
<path style="fill:#0d2140;stroke:#000;stroke-width:2" d="M139,621 l424,0 0,32 -424,0 0,-32z" />
<path style="fill:#b2b2b2;stroke:#000;stroke-width:2" d="M134,70 l275,0 0,191 -275,0 0,-191z" />
<path style="fill:#c2c2c2" d="M134,84 l275,0 0,162 -275,0 0,-162z" />
<path style="fill:#d1d1d1" d="M134,91 l275,0 0,148 -275,0 0,-148z" />
<path style="fill:#e0e0e0" d="M134,107 l275,0 0,116 -275,0 0,-116z" />
<path style="fill:#f0f0f0" d="M134,129 l275,0 0,72 -275,0 0,-72z" />
<path style="fill:#fff" d="M134,149 l275,0 0,32 -275,0 0,-32z" />
<path style="fill:#405473" d="M28,621 l0,-318 106,0 21,-85 42,0 0,85 149,0 0,-85 42,0 21,85 106,0 0,-275 170,0 0,275 42,0 0,318 -699,0z" />
<path style="fill:#4f6382" d="M28,319 l699,0 0,285 -699,0 0,-285z" />
<path style="fill:#5e7291" d="M28,335 l699,0 0,253 -699,0 0,-253z" />
<path style="fill:#6e82a1" d="M28,361 l699,0 0,201 -699,0 0,-201z" />
<path style="fill:#7d91b0" d="M28,393 l699,0 0,137 -699,0 0,-137z" />
<path style="fill:#8ca0bf" d="M28,430 l0,64 699,0 0,-64 -42,0 0,-402 -170,0 0,402 -487,0z" />
<path style="fill:#999" d="M409,211 l106,0 0,81 -106,0 0,-81z" />
<path style="fill:#999" d="M28,211 l106,0 0,81 -106,0 0,-81z" />
<path style="fill:#ccc" d="M409,119 l106,0 0,92 -106,0 0,-92z" />
<path style="fill:#ccc" d="M28,119 l106,0 0,92 -106,0 0,-92z" />
<path style="fill:#e5e5e5" d="M28,38 l106,0 0,81 -106,0 0,-81z" />
<path style="fill:#e5e5e5" d="M409,38 l106,0 0,81 -106,0 0,-81z" />
<path style="fill:none;stroke:#000;stroke-width:2" d="M515,38 l-106,0 0,254 106,0 0,-254" />
<path style="fill:none;stroke:#000;stroke-width:2" d="M134,38 l-106,0 0,254 106,0 0,-254" />
<path style="fill:#a6bad9" d="M515,28 l170,0 0,127 -170,0 0,-127z" />
<path style="fill:none;stroke:#000;stroke-width:2" d="M28,621 l0,-318 106,0 21,-85 42,0 0,85 149,0 0,-85 42,0 21,85 106,0 0,-275 170,0 0,275 42,0 0,318 -699,0" />
<path style="fill:none;stroke:#000;stroke-width:2" d="M812,218 l37,-85" />
<path style="fill:none;stroke:#000;stroke-width:2" d="M854,261 l85,-37" />
<path style="fill:none;stroke:#000;stroke-width:2" d="M727,409 l0,106 243,0 0,-106 -243,0" />
<path style="fill:#405473" d="M409,314 l5,0 0,296 -5,0 0,-296z" />
<path style="fill:#405473" d="M197,314 l6,0 0,296 -6,0 0,-296z" />
<path style="fill:none;stroke:#405473;stroke-width:2" d="M139,308 l0,302" />
<path style="fill:none;stroke:#405473;stroke-width:2" d="M346,308 l0,302" />
<path style="fill:#596d8c" d="M49,578 l63,0 0,-164 -63,0 0,164z" />
<path style="fill:#263a59" d="M49,414 l63,0 0,-143 -63,0 0,143z" />
<path style="fill:#7387a6" d="M57,578 l47,0 0,-164 -47,0 0,164z" />
<path style="fill:#405473" d="M57,414 l47,0 0,-143 -47,0 0,143z" />
<path style="fill:#8ca0bf" d="M63,578 l36,0 0,-164 -36,0 0,164z" />
<path style="fill:#596d8c" d="M63,414 l36,0 0,-143 -36,0 0,143z" />
<path style="fill:#a6bad9" d="M70,578 l22,0 0,-164 -22,0 0,164z" />
<path style="fill:#7387a6" d="M70,414 l22,0 0,-143 -22,0 0,143z" />
<path style="fill:#bfd3f2" d="M77,578 l8,0 0,-164 -8,0 0,164z" />
<path style="fill:#8ca0bf" d="M77,414 l8,0 0,-143 -8,0 0,143z" />
<path style="fill:none;stroke:#000;stroke-width:2" d="M49,578 l63,0 0,-164 -63,0 0,164" />
<path style="fill:none;stroke:#000;stroke-width:2" d="M49,414 l63,0 0,-143 -63,0 0,143" />
<path style="fill:#263a59;stroke:#000;stroke-width:2" d="M610,679 l-572,0 0,32 572,0 0,-32z" />
<path style="fill:#7387a6;stroke:#000;stroke-width:2" d="M28,669 l593,0 0,10 -593,0 0,-10z" />
<path style="fill:#7387a6;stroke:#000;stroke-width:2" d="M28,711 l593,0 0,11 -593,0 0,-11z" />
<path style="fill:#666" d="M610,510 l5,0 0,58 -5,0 0,-58z" />
<path style="fill:#405473;stroke:#000;stroke-width:2" d="M563,531 l31,0 0,138 -31,0 0,-138z" />
<path style="fill:#405473;stroke:#000;stroke-width:2" d="M351,531 l32,0 0,138 -32,0 0,-138z" />
<path style="fill:#405473;stroke:#000;stroke-width:2" d="M107,531 l32,0 0,138 -32,0 0,-138z" />
<path style="fill:#333" d="M250,563 l148,0 0,5 -148,0 0,-5z" />
<path style="fill:#b2b2b2;stroke:#000;stroke-width:2" d="M91,568 l657,0 0,16 -657,0 0,-16z" />
<path style="fill:#e5e5e5;stroke:#000;stroke-width:2" d="M250,446 l148,0 0,117 -148,0 0,-117z" />
<path style="fill:#fff" d="M335,457 l53,0 0,58 -53,0 0,-58z" />
<path style="fill:#ccc" d="M261,457 l37,0 0,95 -37,0 0,-95z" />
<path style="fill:#f00" d="M361,526 l6,0 0,5 -6,0 0,-5z" />
<path style="fill:#fc0" d="M372,526 l16,0 0,5 -16,0 0,-5z" />
<path style="fill:#ccc;stroke:#000;stroke-width:2" d="M589,441 l53,0 0,69 -53,0 0,-69z" />
<path style="fill:#a6bad9" d="M615,446 l22,0 0,21 -22,0 0,-21z" />
<path style="fill:#b2b2b2" d="M626,472 l11,0 0,32 -11,0 0,-32z" />
<path style="fill:#7387a6;stroke:#000;stroke-width:2" d="M28,637 l116,0 0,95 -116,0 0,-95z" />
<path style="fill:#960;stroke:#000;stroke-width:2" d="M139,637 l16,-69 -11,-32 -32,-10 -37,10 -37,53 0,48 101,0z" />
<circle style="fill:#333;stroke:#000;stroke-width:2" cx="112" cy="573" r="37" />
<circle style="fill:#999" cx="112" cy="573" r="26" />
<circle style="fill:#000" cx="112" cy="572" r="5" />

</svg>
