 

<svg xmlns:agg="http://www.example.com" xmlns="http://www.w3.org/2000/svg" preserveAspectRatio="none" width="0.6155in" height="1.0750in" viewBox="0 0 572 999">

<path style="fill:#4c4c4c" d="M494,906 l10,40 20,0 0,-40 -30,0z" />
<path style="fill:#4c4c4c" d="M92,906 l0,40 19,0 10,-40 -29,0z" />
<path style="fill:#000" d="M28,931 l0,10 471,0 39,-25 0,-10 -39,25 -471,0z" />
<path style="fill:#f7f7f0" d="M28,185 l10,-138 471,0 -10,138 -471,0z" />
<path style="fill:#f2f2e5" d="M28,931 l0,-746 471,0 0,746 -471,0z" />
<path style="fill:#e5e5d8;stroke:#000;stroke-width:2" d="M450,931 l10,39 20,0 0,-39 -30,0z" />
<path style="fill:#e5e5d8;stroke:#000;stroke-width:2" d="M48,931 l0,39 19,0 10,-39 -29,0z" />
<path style="fill:#fcfcfa;stroke:#000;stroke-width:2" d="M38,47 l39,-19 466,0 -34,19 -471,0z" />
<path style="fill:#e5e5cc;stroke:#000;stroke-width:2" d="M509,47 l-10,138 0,746 44,-25 0,-878 -34,19z" />
<path style="fill:#eaeadd" d="M28,931 l0,-417 471,-241 0,658 -471,0z" />
<path style="fill:#e0e0d3" d="M28,931 l0,-314 471,-241 0,555 -471,0z" />
<path style="fill:#d8d8cb" d="M28,931 l0,-255 471,-241 0,496 -471,0z" />
<path style="fill:#900" d="M28,627 l0,-49 471,0 0,49 -471,0z" />
<path style="fill:#f00" d="M28,676 l0,-49 471,0 0,49 -471,0z" />
<path style="fill:#fc0" d="M28,725 l0,-49 471,0 0,49 -471,0z" />
<path style="fill:none;stroke:#7f7f66;stroke-width:2" d="M401,892 l39,-20" />
<path style="fill:none;stroke:#7f7f66;stroke-width:2" d="M362,774 l39,-20" />
<path style="fill:none;stroke:#7f7f66;stroke-width:2" d="M362,793 l78,-39" />
<path style="fill:none;stroke:#7f7f66;stroke-width:2" d="M362,813 l78,-39" />
<path style="fill:none;stroke:#7f7f66;stroke-width:2" d="M362,833 l78,-40" />
<path style="fill:none;stroke:#7f7f66;stroke-width:2" d="M362,852 l78,-39" />
<path style="fill:none;stroke:#7f7f66;stroke-width:2" d="M362,872 l78,-39" />
<path style="fill:none;stroke:#7f7f66;stroke-width:2" d="M362,892 l78,-40" />
<path style="fill:none;stroke:#7f7f66;stroke-width:2" d="M126,892 l39,-20" />
<path style="fill:none;stroke:#7f7f66;stroke-width:2" d="M87,774 l39,-20" />
<path style="fill:none;stroke:#7f7f66;stroke-width:2" d="M87,793 l78,-39" />
<path style="fill:none;stroke:#7f7f66;stroke-width:2" d="M87,813 l78,-39" />
<path style="fill:none;stroke:#7f7f66;stroke-width:2" d="M87,833 l78,-40" />
<path style="fill:none;stroke:#7f7f66;stroke-width:2" d="M87,852 l78,-39" />
<path style="fill:none;stroke:#7f7f66;stroke-width:2" d="M87,872 l78,-39" />
<path style="fill:none;stroke:#7f7f66;stroke-width:2" d="M87,892 l78,-40" />
<path style="fill:none;stroke:#000;stroke-width:2" d="M28,322 l471,0" />
<path style="fill:none;stroke:#000;stroke-width:2" d="M28,185 l471,0" />
<path style="fill:none;stroke:#000;stroke-width:2" d="M28,931 l0,-746 10,-138 471,0 -10,138 0,746 -471,0" />
<path style="fill:#000" d="M87,165 l4,-98 354,0 -5,98 -353,0z" />
<path style="fill:#000" d="M204,371 l0,-19 118,0 0,19 -118,0z" />
<ellipse style="fill:#000" cx="263" cy="401" rx="39" ry="10" />
<path style="fill:#f2f2f2" d="M97,155 l5,-78 166,0 -5,78 -166,0z" />
<path style="fill:#000" d="M141,101 l0,-14 68,0 0,14 -68,0z" />

</svg>
