 

<svg xmlns:agg="http://www.example.com" xmlns="http://www.w3.org/2000/svg" preserveAspectRatio="none" width="0.5036in" height="1.0750in" viewBox="0 0 468 999">

<path style="fill:#ccccc4;stroke:#000;stroke-width:2" d="M347,847 l10,0 0,-93 -10,0 0,93z" />
<path style="fill:#ccccc4;stroke:#000;stroke-width:2" d="M28,224 l275,0 0,511 -275,0 0,-511z" />
<path style="fill:#ccccc4;stroke:#000;stroke-width:2" d="M48,735 l19,0 0,235 -19,0 0,-235z" />
<path style="fill:#ccccc4;stroke:#000;stroke-width:2" d="M264,735 l19,0 0,235 -19,0 0,-235z" />
<path style="fill:#ccccc4;stroke:#000;stroke-width:2" d="M67,754 l0,-19 196,0 0,19 -196,0z" />
<path style="fill:#ccccc4;stroke:#000;stroke-width:2" d="M263,931 l0,19 -196,0 0,-19 196,0z" />
<path style="fill:#ccccc4;stroke:#000;stroke-width:2" d="M28,224 l0,-20 275,0 0,20 -275,0z" />
<path style="fill:#ccccc4;stroke:#000;stroke-width:2" d="M67,793 l79,0 0,99 -79,0 0,-99z" />
<path style="fill:#ccccc4;stroke:#000;stroke-width:2" d="M342,67 l78,0 0,530 -78,0 0,-530z" />
<path style="fill:#ccccc4;stroke:#000;stroke-width:2" d="M322,597 l118,0 0,118 -118,0 0,-118z" />
<path style="fill:#ccccc4;stroke:#000;stroke-width:2" d="M303,617 l19,0 0,78 -19,0 0,-78z" />
<path style="fill:#ccccc4;stroke:#000;stroke-width:2" d="M303,459 l39,0 0,20 -39,0 0,-20z" />
<path style="fill:#ccccc4;stroke:#000;stroke-width:2" d="M303,244 l39,0 0,19 -39,0 0,-19z" />
<path style="fill:#ccccc4;stroke:#000;stroke-width:2" d="M224,146 l20,0 0,58 -20,0 0,-58z" />
<path style="fill:#ccccc4;stroke:#000;stroke-width:2" d="M214,136 l40,0 0,10 -40,0 0,-10z" />
<path style="fill:#ccccc4;stroke:#000;stroke-width:2" d="M283,950 l137,0 0,20 -137,0 0,-20z" />
<path style="fill:#ccccc4;stroke:#000;stroke-width:2" d="M303,931 l98,0 0,19 -98,0 0,-19z" />
<path style="fill:#ccccc4;stroke:#000;stroke-width:2" d="M322,828 l59,0 0,14 -59,0 0,-14z" />
<path style="fill:#ccccc4;stroke:#000;stroke-width:2" d="M322,774 l59,0 0,14 -59,0 0,-14z" />
<path style="fill:#ccccc4;stroke:#000;stroke-width:2" d="M332,793 l39,0 0,30 -39,0 0,-30z" />
<path style="fill:#ccccc4;stroke:#000;stroke-width:2" d="M283,803 l49,0 0,10 -49,0 0,-10z" />
<path style="fill:#ccccc4;stroke:#000;stroke-width:2" d="M209,754 l0,30 20,19 34,0 0,10 -39,0 -24,-24 0,-35 9,0z" />
<path style="fill:#99998a;stroke:#000;stroke-width:2" d="M342,67 l78,0 0,-39 -78,0 0,39z" />
<circle style="fill:#ccccc4;stroke:#000;stroke-width:2" cx="352" cy="891" r="49" />
<path style="fill:none;stroke:#000;stroke-width:2" d="M106,808 l25,0 0,30 -25,0 0,-30" />

</svg>
