 

<svg xmlns:agg="http://www.example.com" xmlns="http://www.w3.org/2000/svg" preserveAspectRatio="none" width="1.3458in" height="1.0750in" viewBox="0 0 999 798">

<path style="fill:#666;stroke:#000;stroke-width:2" d="M887,459 l11,0 0,270 -11,0 0,-270z" />
<path style="fill:#333;stroke:#000;stroke-width:2" d="M719,188 l121,-102 70,0 0,34 -36,0 -34,68 -121,0z" />
<path style="fill:#666;stroke:#000;stroke-width:2" d="M863,126 l-15,-15 0,-34 15,-17 0,-32 51,0 0,15 -17,0 0,17 17,0 15,17 0,34 -15,15 -51,0z" />
<path style="fill:#333" d="M50,697 l818,0 0,32 -818,0 0,-32z" />
<path style="fill:#4c4c4c" d="M41,188 l827,0 0,509 -827,0 0,-509z" />
<path style="fill:#545454" d="M41,203 l827,0 0,478 -827,0 0,-478z" />
<path style="fill:#5c5c5c" d="M41,218 l827,0 0,448 -827,0 0,-448z" />
<path style="fill:#636363" d="M41,234 l827,0 0,417 -827,0 0,-417z" />
<path style="fill:#6b6b6b" d="M41,249 l827,0 0,387 -827,0 0,-387z" />
<path style="fill:#757575" d="M41,262 l827,0 0,359 -827,0 0,-359z" />
<path style="fill:#7d7d7d" d="M41,277 l827,0 0,329 -827,0 0,-329z" />
<path style="fill:#858585" d="M41,292 l827,0 0,301 -827,0 0,-301z" />
<path style="fill:#8c8c8c" d="M41,307 l827,0 0,270 -827,0 0,-270z" />
<path style="fill:#949494" d="M41,322 l827,0 0,240 -827,0 0,-240z" />
<path style="fill:#9c9c9c" d="M41,337 l827,0 0,210 -827,0 0,-210z" />
<path style="fill:#a3a3a3" d="M41,353 l827,0 0,179 -827,0 0,-179z" />
<path style="fill:#ababab" d="M41,368 l827,0 0,149 -827,0 0,-149z" />
<path style="fill:#b5b5b5" d="M41,381 l827,0 0,121 -827,0 0,-121z" />
<path style="fill:#bdbdbd" d="M41,396 l827,0 0,91 -827,0 0,-91z" />
<path style="fill:#c4c4c4" d="M41,411 l827,0 0,62 -827,0 0,-62z" />
<path style="fill:#ccc" d="M41,426 l827,0 0,33 -827,0 0,-33z" />
<path style="fill:none;stroke:#000;stroke-width:2" d="M41,188 l827,0 0,509 -827,0 0,-509" />
<path style="fill:#b2b2b2" d="M28,729 l942,0 0,41 -942,0 0,-41z" />
<path style="fill:#999" d="M28,749 l942,0 0,21 -942,0 0,-21z" />
<path style="fill:none;stroke:#000;stroke-width:2" d="M28,729 l942,0 0,41 -942,0 0,-41" />
<path style="fill:#7f7f7f" d="M866,459 l18,20 14,-20 0,-352 -32,0 0,352z" />
<path style="fill:#ccc" d="M876,470 l8,9 7,-9 0,-363 -15,0 0,363z" />
<path style="fill:none;stroke:#000;stroke-width:2" d="M866,459 l18,20 14,-20 0,-352 -32,0 0,352" />
<path style="fill:#7f7f7f" d="M69,604 l0,-249 51,0 0,249 -51,0z" />
<path style="fill:#999" d="M73,604 l0,-249 45,0 0,249 -45,0z" />
<path style="fill:#b2b2b2" d="M79,604 l0,-249 34,0 0,249 -34,0z" />
<path style="fill:#ccc" d="M84,604 l0,-249 23,0 0,249 -23,0z" />
<path style="fill:#e5e5e5" d="M88,604 l0,-249 15,0 0,249 -15,0z" />
<path style="fill:#fff" d="M92,604 l0,-249 6,0 0,249 -6,0z" />
<path style="fill:none;stroke:#000;stroke-width:2" d="M69,604 l0,-249 51,0 0,249 -51,0" />
<path style="fill:#666" d="M846,292 l-352,0 0,353 352,0 0,-353z" />
<path style="fill:#ccc" d="M640,271 l208,0 0,312 -208,0 0,-312z" />
<path style="fill:#c7c7c7" d="M640,493 l208,-131 0,221 -208,0 0,-90z" />
<path style="fill:#c2c2c2" d="M640,506 l208,-131 0,208 -208,0 0,-77z" />
<path style="fill:#bdbdbd" d="M640,525 l208,-131 0,189 -208,0 0,-58z" />
<path style="fill:none;stroke:#000;stroke-width:2" d="M640,271 l208,0 0,312 -208,0 0,-312" />
<path style="fill:#333" d="M759,302 l58,0 0,119 -58,0 0,-119z" />
<path style="fill:#e5e5e5" d="M744,568 l-27,-29 27,-26 28,26 -28,29z" />
<path style="fill:#b2b2b2" d="M670,479 l147,0 0,15 -147,0 0,-15z" />
<path style="fill:#666" d="M679,336 l-9,-10 9,-9 12,9 -12,10z" />
<path style="fill:#666" d="M704,336 l-9,-10 9,-9 9,9 -9,10z" />
<path style="fill:#999" d="M679,360 l-9,-9 9,-12 12,12 -12,9z" />
<path style="fill:#999" d="M704,360 l-9,-9 9,-12 9,12 -9,9z" />
<path style="fill:#999" d="M679,390 l-9,-11 9,-9 12,9 -12,11z" />
<path style="fill:#999" d="M704,390 l-9,-11 9,-9 9,9 -9,11z" />
<path style="fill:none;stroke:#999;stroke-width:2" d="M744,434 l88,0 0,-147" />
<path style="fill:none;stroke:#fff;stroke-width:2" d="M744,434 l0,-147 88,0" />
<path style="fill:#4c4c4c" d="M494,179 l125,0 0,425 -125,0 0,-425z" />
<path style="fill:#5c5c5c" d="M494,209 l125,0 0,387 -125,0 0,-387z" />
<path style="fill:#6b6b6b" d="M494,239 l125,0 0,348 -125,0 0,-348z" />
<path style="fill:#7d7d7d" d="M494,270 l125,0 0,309 -125,0 0,-309z" />
<path style="fill:#8c8c8c" d="M494,302 l125,0 0,270 -125,0 0,-270z" />
<path style="fill:#9c9c9c" d="M494,332 l125,0 0,232 -125,0 0,-232z" />
<path style="fill:#ababab" d="M494,362 l125,0 0,193 -125,0 0,-193z" />
<path style="fill:#bdbdbd" d="M494,392 l125,0 0,155 -125,0 0,-155z" />
<path style="fill:#ccc" d="M494,423 l125,0 0,116 -125,0 0,-116z" />
<path style="fill:none;stroke:#000;stroke-width:2" d="M494,179 l125,0 0,425 -125,0 0,-425" />
<path style="fill:#7f7f7f" d="M48,262 l446,0 0,41 -446,0 0,-41z" />
<path style="fill:#999" d="M48,264 l446,0 0,38 -446,0 0,-38z" />
<path style="fill:#b2b2b2" d="M48,270 l446,0 0,26 -446,0 0,-26z" />
<path style="fill:#ccc" d="M48,273 l446,0 0,19 -446,0 0,-19z" />
<path style="fill:#e5e5e5" d="M48,277 l446,0 0,11 -446,0 0,-11z" />
<path style="fill:#fff" d="M48,281 l446,0 0,4 -446,0 0,-4z" />
<path style="fill:none;stroke:#000;stroke-width:2" d="M48,262 l446,0 0,41 -446,0 0,-41" />
<path style="fill:#b2b2b2;stroke:#000;stroke-width:2" d="M28,241 l20,0 0,83 -20,0 0,-83z" />
<path style="fill:#ccc" d="M369,209 l497,0 0,6 -497,0 0,-6z" />
<path style="fill:#b2b2b2;stroke:#000;stroke-width:2" d="M203,168 l12,0 0,94 -12,0 0,-94z" />
<path style="fill:#b2b2b2;stroke:#000;stroke-width:2" d="M256,168 l10,0 0,94 -10,0 0,-94z" />
<path style="fill:#b2b2b2;stroke:#000;stroke-width:2" d="M307,168 l12,0 0,94 -12,0 0,-94z" />
<path style="fill:#b2b2b2;stroke:#000;stroke-width:2" d="M360,168 l9,0 0,94 -9,0 0,-94z" />
<path style="fill:#4c4c4c;stroke:#000;stroke-width:2" d="M711,583 l63,0 -12,114 -39,0 -12,-114z" />
<path style="fill:none;stroke:#000;stroke-width:2" d="M898,220 l10,-41 0,-42 -10,-30" />
<path style="fill:none;stroke:#000;stroke-width:2" d="M866,209 l-9,-30 -9,-42 18,-30" />

</svg>
