 

<svg xmlns:agg="http://www.example.com" xmlns="http://www.w3.org/2000/svg" preserveAspectRatio="none" width="0.8641in" height="1.0750in" viewBox="0 0 803 999">

<path style="fill:#e5e5e5;stroke:#000;stroke-width:2" d="M28,970 l0,-942 746,0 0,942 -39,0 0,-58 -668,0 0,58 -39,0z" />
<path style="fill:#e5e5e5;stroke:#000;stroke-width:2" d="M46,46 l710,0 0,826 -710,0 0,-826z" />
<path style="fill:#ccc;stroke:#000;stroke-width:2" d="M95,37 l21,0 0,854 -21,0 0,-854z" />
<path style="fill:#ccc;stroke:#000;stroke-width:2" d="M120,499 l77,0 0,30 -77,0 0,-30z" />
<path style="fill:#b2b2b2;stroke:#000;stroke-width:2" d="M77,489 l90,0 0,20 -19,0 0,-10 -28,0 0,30 47,0 0,10 -90,0 0,-50z" />
<path style="fill:#333;stroke:#000;stroke-width:2" d="M197,495 l76,0 0,38 -76,0 0,-38z" />
<path style="fill:none;stroke:#000;stroke-width:2" d="M184,912 l0,19 79,0 0,-19" />
<path style="fill:none;stroke:#000;stroke-width:2" d="M539,912 l0,19 79,0 0,-19" />
<path style="fill:#ccc;stroke:#000;stroke-width:2" d="M774,725 l-39,0 0,78 39,0 0,-78z" />
<path style="fill:#e5e5e5;stroke:#000;stroke-width:2" d="M744,716 l21,0 0,98 -21,0 0,-98z" />
<path style="fill:#ccc;stroke:#000;stroke-width:2" d="M774,116 l-39,0 0,77 39,0 0,-77z" />
<path style="fill:#e5e5e5;stroke:#000;stroke-width:2" d="M744,107 l21,0 0,98 -21,0 0,-98z" />
<path style="fill:#ccc;stroke:#000;stroke-width:2" d="M774,420 l-39,0 0,79 39,0 0,-79z" />
<path style="fill:#e5e5e5;stroke:#000;stroke-width:2" d="M744,410 l21,0 0,99 -21,0 0,-99z" />
<path style="fill:#999;stroke:#000;stroke-width:2" d="M342,361 l118,-118 -118,0 0,118z" />
<path style="fill:#ccc;stroke:#000;stroke-width:2" d="M342,361 l118,0 0,-118 -118,118z" />
<circle style="fill:#fff;stroke:#000;stroke-width:2" cx="401" cy="303" r="49" />
<path style="fill:none;stroke:#f00;stroke-width:2" d="M401,303 l-21,-40" />
<path style="fill:#666;stroke:#000;stroke-width:2" d="M401,293 l7,3 3,7 -5,8 -5,1 -8,-4 -2,-5 3,-7 7,-3z" />
<path style="fill:none;stroke:#7f7f7f;stroke-width:2" d="M363,312 l-2,-5 1,-12 6,-14 11,-11 14,-6 8,-1 16,3 12,9 9,12 3,16 -2,9" />

</svg>
