 

<svg xmlns:agg="http://www.example.com" xmlns="http://www.w3.org/2000/svg" preserveAspectRatio="none" width="0.2593in" height="1.0750in" viewBox="0 0 241 999">

<path style="fill:#4c4c4c;stroke:#000;stroke-width:2" d="M32,970 l0,-28 5,0 0,28 -5,0z" />
<path style="fill:#4c4c4c;stroke:#000;stroke-width:2" d="M203,970 l0,-28 4,0 0,28 -4,0z" />
<path style="fill:#ccc;stroke:#000;stroke-width:2" d="M197,252 l0,-224 -154,0 0,224 154,0z" />
<path style="fill:#d9d9d9" d="M192,246 l-145,0 73,-105 72,105z" />
<path style="fill:#bfbfbf" d="M120,141 l72,105 0,-213 -72,108z" />
<path style="fill:#b2b2b2" d="M192,33 l-145,0 73,108 72,-108z" />
<path style="fill:#ccc;stroke:#000;stroke-width:2" d="M197,484 l0,-222 -154,0 0,222 154,0z" />
<path style="fill:#d9d9d9" d="M192,480 l-145,0 73,-107 72,107z" />
<path style="fill:#bfbfbf" d="M120,373 l72,107 0,-215 -72,108z" />
<path style="fill:#b2b2b2" d="M192,265 l-145,0 73,108 72,-108z" />
<path style="fill:#4c4c4c;stroke:#000;stroke-width:2" d="M32,271 l0,-28 5,0 0,28 -5,0z" />
<path style="fill:#4c4c4c;stroke:#000;stroke-width:2" d="M203,271 l0,-28 4,0 0,28 -4,0z" />
<path style="fill:#b2b2b2;stroke:#000;stroke-width:2" d="M212,262 l0,-10 -184,0 0,10 184,0z" />
<path style="fill:#4c4c4c;stroke:#000;stroke-width:2" d="M32,503 l0,-29 5,0 0,29 -5,0z" />
<path style="fill:#4c4c4c;stroke:#000;stroke-width:2" d="M203,503 l0,-29 4,0 0,29 -4,0z" />
<path style="fill:#b2b2b2;stroke:#000;stroke-width:2" d="M212,493 l0,-9 -184,0 0,9 184,0z" />
<path style="fill:#ccc;stroke:#000;stroke-width:2" d="M197,718 l0,-223 -154,0 0,223 154,0z" />
<path style="fill:#d9d9d9" d="M192,714 l-145,0 73,-108 72,108z" />
<path style="fill:#bfbfbf" d="M120,606 l72,108 0,-215 -72,107z" />
<path style="fill:#b2b2b2" d="M192,499 l-145,0 73,107 72,-107z" />
<path style="fill:#ccc;stroke:#000;stroke-width:2" d="M197,951 l0,-224 -154,0 0,224 154,0z" />
<path style="fill:#d9d9d9" d="M192,948 l-145,0 73,-108 72,108z" />
<path style="fill:#bfbfbf" d="M120,840 l72,108 0,-215 -72,107z" />
<path style="fill:#b2b2b2" d="M192,733 l-145,0 73,107 72,-107z" />
<path style="fill:#4c4c4c;stroke:#000;stroke-width:2" d="M32,738 l0,-30 5,0 0,30 -5,0z" />
<path style="fill:#4c4c4c;stroke:#000;stroke-width:2" d="M203,738 l0,-30 4,0 0,30 -4,0z" />
<path style="fill:#b2b2b2;stroke:#000;stroke-width:2" d="M212,727 l0,-9 -184,0 0,9 184,0z" />
<path style="fill:#b2b2b2;stroke:#000;stroke-width:2" d="M212,961 l0,-10 -184,0 0,10 184,0z" />

</svg>
