 

<svg xmlns:agg="http://www.example.com" xmlns="http://www.w3.org/2000/svg" preserveAspectRatio="none" width="1.6083in" height="0.6585in" viewBox="0 0 999 409">

<path style="fill:#fc0" d="M92,62 l63,0 0,5 -63,0 0,-5z" />
<path style="fill:#fc0" d="M92,28 l63,0 0,5 -63,0 0,-5z" />
<path style="fill:#fc0" d="M92,106 l-5,0 0,-78 5,0 0,78z" />
<path style="fill:#fc0" d="M371,62 l103,0 0,5 -103,0 0,-5z" />
<path style="fill:#fc0" d="M371,28 l103,0 0,5 -103,0 0,-5z" />
<path style="fill:#fc0" d="M371,106 l-5,0 0,-78 5,0 0,78z" />
<path style="fill:#fc0" d="M519,62 l108,0 0,5 -108,0 0,-5z" />
<path style="fill:#fc0" d="M519,28 l108,0 0,5 -108,0 0,-5z" />
<path style="fill:#fc0" d="M632,28 l0,78 -5,0 0,-78 5,0z" />
<path style="fill:#fc0" d="M843,62 l63,0 0,5 -63,0 0,-5z" />
<path style="fill:#fc0" d="M843,28 l63,0 0,5 -63,0 0,-5z" />
<path style="fill:#fc0" d="M911,28 l0,78 -5,0 0,-78 5,0z" />
<path style="fill:#fc0" d="M92,96 l63,0 0,10 -63,0 0,-10z" />
<path style="fill:#fc0" d="M371,96 l103,0 0,10 -103,0 0,-10z" />
<path style="fill:#fc0" d="M519,96 l108,0 0,10 -108,0 0,-10z" />
<path style="fill:#fc0" d="M843,97 l63,0 0,9 -63,0 0,-9z" />
<path style="fill:#c90" d="M794,52 l14,0 0,25 -14,0 0,-25z" />
<path style="fill:#960" d="M794,87 l14,0 0,-10 -14,0 0,10z" />
<path style="fill:#4c4c33" d="M106,317 l0,59 19,0 19,-59 -38,0z" />
<path style="fill:#4c4c33" d="M855,317 l18,59 19,0 0,-59 -37,0z" />
<path style="fill:#4c4c33" d="M218,317 l0,59 19,0 0,-59 -19,0z" />
<path style="fill:#4c4c33" d="M761,317 l0,59 19,0 0,-59 -19,0z" />
<path style="fill:#4c4c33" d="M349,317 l0,59 19,0 0,-59 -19,0z" />
<path style="fill:#4c4c33" d="M630,317 l0,59 18,0 1,-59 -19,0z" />
<path style="fill:#4c4c33" d="M518,317 l0,59 18,0 0,-59 -18,0z" />
<path style="fill:#4c4c33" d="M462,317 l0,59 18,0 0,-59 -18,0z" />
<path style="fill:#4c4c33" d="M87,342 l0,-20 824,0 0,20 -824,0z" />
<path style="fill:#000;stroke:#b2b299;stroke-width:2" d="M911,273 l0,-39 39,0 8,1 7,5 4,6 1,7 -1,8 -4,6 -7,5 -8,1 -39,0z" />
<path style="fill:#000;stroke:#b2b299;stroke-width:2" d="M87,234 l0,39 -39,0 -8,-1 -7,-5 -4,-6 -1,-8 1,-7 4,-7 7,-4 8,-1 39,0z" />
<path style="fill:#e5e5cc" d="M911,322 l0,-216 -117,0 0,-78 -157,0 0,78 -275,0 0,-78 -157,0 0,78 -118,0 0,216 824,0z" />
<path style="fill:#b2b299;stroke:#000;stroke-width:2" d="M87,322 l0,59 19,0 20,-59 -39,0z" />
<path style="fill:#b2b299;stroke:#000;stroke-width:2" d="M872,322 l20,59 19,0 0,-59 -39,0z" />
<path style="fill:#b2b299;stroke:#000;stroke-width:2" d="M205,322 l0,59 19,0 0,-59 -19,0z" />
<path style="fill:#b2b299;stroke:#000;stroke-width:2" d="M774,322 l0,59 19,0 1,-59 -20,0z" />
<path style="fill:#b2b299;stroke:#000;stroke-width:2" d="M342,322 l0,59 19,0 1,-59 -20,0z" />
<path style="fill:#b2b299;stroke:#000;stroke-width:2" d="M636,322 l0,59 20,0 0,-59 -20,0z" />
<path style="fill:#b2b299;stroke:#000;stroke-width:2" d="M518,322 l0,59 20,0 0,-59 -20,0z" />
<path style="fill:#b2b299;stroke:#000;stroke-width:2" d="M460,322 l0,59 19,0 1,-59 -20,0z" />
<path style="fill:none;stroke:#cbcbb2;stroke-width:2" d="M87,146 l824,0" />
<path style="fill:none;stroke:#cbcbb2;stroke-width:2" d="M794,106 l-157,0" />
<path style="fill:none;stroke:#cbcbb2;stroke-width:2" d="M362,106 l-157,0" />
<path style="fill:#cbcbb2;stroke:#000;stroke-width:2" d="M911,244 l0,98 40,0 0,-98 -40,0z" />
<path style="fill:#cbcbb2;stroke:#000;stroke-width:2" d="M48,244 l0,98 39,0 0,-98 -39,0z" />
<path style="fill:#ddddc4" d="M910,321 l1,-136 -569,137 568,-1z" />
<path style="fill:#d3d3ba" d="M910,321 l1,-119 -491,120 490,-1z" />
<path style="fill:#cbcbb2" d="M911,322 l0,-86 -353,86 353,0z" />
<path style="fill:none;stroke:#000;stroke-width:2" d="M911,322 l0,-216 -117,0 0,-78 -157,0 0,78 -275,0 0,-78 -157,0 0,78 -118,0 0,216 824,0" />
<path style="fill:#ddddc4" d="M559,302 l116,0 1,-91 -118,29 1,62z" />
<path style="fill:#ddddc4" d="M421,302 l116,0 1,-91 -118,29 1,62z" />
<path style="fill:#ddddc4" d="M284,302 l116,0 1,-91 -118,29 1,62z" />
<path style="fill:#ddddc4" d="M146,302 l116,0 1,-91 -117,29 0,62z" />
<path style="fill:#d3d3ba" d="M559,302 l116,0 1,-79 -118,28 1,51z" />
<path style="fill:#d3d3ba" d="M421,302 l116,0 1,-79 -118,28 1,51z" />
<path style="fill:#d3d3ba" d="M284,302 l116,0 1,-79 -118,28 1,51z" />
<path style="fill:#d3d3ba" d="M146,302 l116,0 1,-79 -117,28 0,51z" />
<path style="fill:#cbcbb2" d="M558,303 l118,0 0,-58 -118,29 0,29z" />
<path style="fill:#cbcbb2" d="M420,303 l118,0 0,-58 -118,29 0,29z" />
<path style="fill:#cbcbb2" d="M283,303 l118,0 0,-58 -118,29 0,29z" />
<path style="fill:#cbcbb2" d="M146,303 l117,0 0,-58 -117,29 0,29z" />
<path style="fill:none;stroke:#7f7f66;stroke-width:2" d="M676,165 l0,138 -118,0" />
<path style="fill:none;stroke:#7f7f66;stroke-width:2" d="M538,165 l0,138 -118,0" />
<path style="fill:none;stroke:#7f7f66;stroke-width:2" d="M401,165 l0,138 -118,0" />
<path style="fill:none;stroke:#7f7f66;stroke-width:2" d="M263,165 l0,138 -117,0" />
<path style="fill:none;stroke:#fff;stroke-width:2" d="M558,303 l0,-138 118,0" />
<path style="fill:none;stroke:#fff;stroke-width:2" d="M420,303 l0,-138 118,0" />
<path style="fill:none;stroke:#fff;stroke-width:2" d="M283,303 l0,-138 118,0" />
<path style="fill:none;stroke:#fff;stroke-width:2" d="M146,303 l0,-138 117,0" />
<path style="fill:#b2b299" d="M892,92 l0,122 -5,0 0,-122 5,0z" />
<path style="fill:#cbcbb2;stroke:#7f7f66;stroke-width:2" d="M901,214 l0,30 -24,0 0,-30 24,0z" />
<path style="fill:#7f4c4c" d="M882,226 l2,-5 5,-2 5,2 2,5 -2,6 -5,2 -5,-2 -2,-6z" />
<path style="fill:#fc0" d="M803,28 l0,353 -5,0 0,-353 5,0z" />
<path style="fill:#fc0" d="M843,28 l0,353 -5,0 0,-353 5,0z" />
<path style="fill:#fc0" d="M803,116 l35,0 0,5 -35,0 0,-5z" />
<path style="fill:#fc0" d="M803,155 l35,0 0,5 -35,0 0,-5z" />
<path style="fill:#fc0" d="M803,195 l35,0 0,5 -35,0 0,-5z" />
<path style="fill:#fc0" d="M803,234 l35,0 0,5 -35,0 0,-5z" />
<path style="fill:#fc0" d="M803,273 l35,0 0,5 -35,0 0,-5z" />
<path style="fill:#fc0" d="M803,312 l35,0 0,5 -35,0 0,-5z" />
<path style="fill:#fc0" d="M803,352 l35,0 0,5 -35,0 0,-5z" />
<path style="fill:#fc0" d="M480,28 l0,353 -6,0 0,-353 6,0z" />
<path style="fill:#fc0" d="M519,28 l0,353 -5,0 0,-353 5,0z" />
<path style="fill:#fc0" d="M480,116 l34,0 0,5 -34,0 0,-5z" />
<path style="fill:#fc0" d="M480,155 l34,0 0,5 -34,0 0,-5z" />
<path style="fill:#fc0" d="M480,195 l34,0 0,5 -34,0 0,-5z" />
<path style="fill:#fc0" d="M480,234 l34,0 0,5 -34,0 0,-5z" />
<path style="fill:#fc0" d="M480,273 l34,0 0,5 -34,0 0,-5z" />
<path style="fill:#fc0" d="M480,312 l34,0 0,5 -34,0 0,-5z" />
<path style="fill:#fc0" d="M480,352 l34,0 0,5 -34,0 0,-5z" />
<path style="fill:#fc0" d="M160,28 l0,353 -5,0 0,-353 5,0z" />
<path style="fill:#fc0" d="M200,28 l0,353 -5,0 0,-353 5,0z" />
<path style="fill:#fc0" d="M160,116 l35,0 0,5 -35,0 0,-5z" />
<path style="fill:#fc0" d="M160,155 l35,0 0,5 -35,0 0,-5z" />
<path style="fill:#fc0" d="M160,195 l35,0 0,5 -35,0 0,-5z" />
<path style="fill:#fc0" d="M160,234 l35,0 0,5 -35,0 0,-5z" />
<path style="fill:#fc0" d="M160,273 l35,0 0,5 -35,0 0,-5z" />
<path style="fill:#fc0" d="M160,312 l35,0 0,5 -35,0 0,-5z" />
<path style="fill:#fc0" d="M160,352 l35,0 0,5 -35,0 0,-5z" />
<path style="fill:#b2b299" d="M656,239 l0,-10 25,0 0,10 -25,0z" />
<path style="fill:#b2b299" d="M519,239 l0,-10 24,0 0,10 -24,0z" />
<path style="fill:#b2b299" d="M381,239 l0,-10 25,0 0,10 -25,0z" />
<path style="fill:#b2b299" d="M244,239 l0,-10 24,0 0,10 -24,0z" />

</svg>
