 

<svg xmlns:agg="http://www.example.com" xmlns="http://www.w3.org/2000/svg" preserveAspectRatio="none" width="0.9900in" height="1.0750in" viewBox="0 0 920 999">

<path style="fill:#657f65;stroke:#000;stroke-width:2" d="M28,970 l0,-942 628,0 0,942 -628,0z" />
<path style="fill:#476647;stroke:#000;stroke-width:2" d="M656,950 l0,-608 236,0 0,608 -236,0z" />
<path style="fill:none;stroke:#b2bfb2;stroke-width:2" d="M48,558 l0,-511 589,0" />
<path style="fill:none;stroke:#b2bfb2;stroke-width:2" d="M48,950 l0,-353 589,0" />
<path style="fill:none;stroke:#1a401a;stroke-width:2" d="M637,597 l0,353 -589,0" />
<path style="fill:none;stroke:#1a401a;stroke-width:2" d="M637,47 l0,510 -589,0" />
<path style="fill:#e5e5e5;stroke:#000;stroke-width:2" d="M676,361 l0,20 39,0 0,-20 -39,0z" />
<circle style="fill:#b2b2b2;stroke:#000;stroke-width:2" cx="342" cy="420" r="118" />
<path style="fill:#577357" d="M362,322 l19,0 0,59 -19,0 0,-59z" />
<path style="fill:#577357" d="M332,322 l20,0 0,59 -20,0 0,-59z" />
<path style="fill:#577357" d="M303,322 l19,0 0,59 -19,0 0,-59z" />
<path style="fill:#577357" d="M247,453 l-10,-17 51,-30 10,17 -51,30z" />
<path style="fill:#577357" d="M262,478 l-10,-17 51,-29 10,16 -51,30z" />
<path style="fill:#577357" d="M276,504 l-9,-17 51,-30 9,17 -51,30z" />
<path style="fill:#577357" d="M447,436 l-10,17 -51,-30 10,-17 51,30z" />
<path style="fill:#758c75" d="M303,695 l0,-275 314,0 0,275 -314,0z" />
<path style="fill:#859985" d="M499,676 l0,-98 39,0 0,98 -39,0z" />
<path style="fill:#859985" d="M322,676 l0,-98 40,0 0,98 -40,0z" />
<path style="fill:#859985" d="M381,676 l0,-98 40,0 0,98 -40,0z" />
<path style="fill:#859985" d="M440,676 l0,-98 40,0 0,98 -40,0z" />
<path style="fill:#859985" d="M558,676 l0,-98 39,0 0,98 -39,0z" />
<path style="fill:none;stroke:#000;stroke-width:2" d="M185,67 l0,196 -118,0" />
<path style="fill:none;stroke:#b2bfb2;stroke-width:2" d="M67,263 l0,-196 118,0" />
<path style="fill:none;stroke:#000;stroke-width:2" d="M352,87 l0,156 -157,0" />
<path style="fill:none;stroke:#b2bfb2;stroke-width:2" d="M195,244 l0,-157 157,0" />
<circle style="fill:#a6a6a6;stroke:#000;stroke-width:2" cx="273" cy="165" r="59" />
<circle style="fill:#333" cx="273" cy="165" r="49" />
<path style="fill:#8c8c8c" d="M371,185 l0,-118 89,0 0,118 -89,0z" />
<path style="fill:#8c8c8c;stroke:#000;stroke-width:2" d="M480,224 l0,-157 137,0 0,157 -137,0z" />
<path style="fill:#666;stroke:#000;stroke-width:2" d="M480,224 l0,79 137,0 0,-79 -137,0z" />
<path style="fill:#f2f2f2" d="M77,293 l78,0 0,19 -78,0 0,-19z" />
<path style="fill:none;stroke:#fff;stroke-width:2" d="M371,185 l0,-118 89,0" />
<path style="fill:#476647;stroke:#000;stroke-width:2" d="M205,263 l58,0 0,59 -58,0 0,-59z" />
<path style="fill:#b2b2b2;stroke:#000;stroke-width:2" d="M411,185 l1,15 3,14 6,15 7,15 3,7 5,7 4,8 5,7 5,8 5,7 4,7 6,8 5,7 4,7 6,8 4,7 5,7 4,8 5,7 4,7 3,8 6,15 5,14 2,15 0,7 3,0 15,0 2,0 0,-7 -3,-15 -4,-15 -3,-7 -3,-8 -4,-8 -3,-7 -5,-8 -4,-8 -5,-7 -5,-8 -5,-8 -5,-7 -5,-8 -5,-8 -5,-7 -5,-8 -5,-7 -4,-7 -5,-8 -4,-7 -8,-14 -6,-15 -4,-13 -2,-14 -1,-6 -2,0 -15,0 -2,0z" />
<path style="fill:none;stroke:#b2bfb2;stroke-width:2" d="M303,695 l0,-274 313,0" />
<path style="fill:none;stroke:#000;stroke-width:2" d="M460,67 l0,118 -88,0" />
<path style="fill:#b2b2b2;stroke:#000;stroke-width:2" d="M666,499 l14,35 11,33 10,32 8,30 6,28 5,26 4,47 -1,39 -6,33 -9,25 -20,23 -32,3 -26,-18 -16,-23 -15,-31 -12,-38 -9,-48 0,0 -19,0 -2,0 1,0 4,49 10,41 16,35 19,27 22,20 24,11 12,3 11,1 12,-2 31,-17 17,-22 11,-32 4,-20 2,-22 0,-24 -3,-27 -4,-30 -7,-32 -9,-35 -12,-37 -14,-40 -18,-43 -3,0 -17,0z" />
<path style="fill:none;stroke:#1a401a;stroke-width:2" d="M617,420 l0,275 -314,0" />
<path style="fill:#8c8c8c;stroke:#000;stroke-width:2" d="M656,499 l0,-118 98,0 0,118 -98,0z" />
<path style="fill:none;stroke:#000;stroke-width:2" d="M774,342 l0,39 118,0" />
<path style="fill:none;stroke:#000;stroke-width:2" d="M833,381 l0,-39" />
<path style="fill:#bfbfbf" d="M798,366 l-2,-6 2,-6 7,-2 6,2 2,6 -2,6 -6,3 -7,-3z" />
<path style="fill:#bfbfbf" d="M857,366 l-2,-6 2,-6 7,-2 6,2 2,6 -2,6 -6,3 -7,-3z" />
<path style="fill:#bfbfbf" d="M229,297 l-2,-6 2,-6 6,-2 6,2 3,6 -3,6 -6,3 -6,-3z" />

</svg>
