 

<svg xmlns:agg="http://www.example.com" xmlns="http://www.w3.org/2000/svg" preserveAspectRatio="none" width="0.6930in" height="1.0750in" viewBox="0 0 644 999">

<path style="fill:#000" d="M28,28 l588,0 0,942 -588,0 0,-942z" />
<path style="fill:#080808" d="M45,28 l554,0 0,942 -554,0 0,-942z" />
<path style="fill:#0f0f0f" d="M62,28 l520,0 0,942 -520,0 0,-942z" />
<path style="fill:#171717" d="M79,28 l486,0 0,942 -486,0 0,-942z" />
<path style="fill:#1f1f1f" d="M96,28 l452,0 0,942 -452,0 0,-942z" />
<path style="fill:#292929" d="M113,28 l418,0 0,942 -418,0 0,-942z" />
<path style="fill:#303030" d="M130,28 l384,0 0,942 -384,0 0,-942z" />
<path style="fill:#383838" d="M148,28 l347,0 0,942 -347,0 0,-942z" />
<path style="fill:#404040" d="M166,28 l313,0 0,942 -313,0 0,-942z" />
<path style="fill:#474747" d="M182,28 l279,0 0,942 -279,0 0,-942z" />
<path style="fill:#4f4f4f" d="M199,28 l245,0 0,942 -245,0 0,-942z" />
<path style="fill:#575757" d="M216,28 l211,0 0,942 -211,0 0,-942z" />
<path style="fill:#5e5e5e" d="M233,28 l178,0 0,942 -178,0 0,-942z" />
<path style="fill:#696969" d="M250,28 l144,0 0,942 -144,0 0,-942z" />
<path style="fill:#707070" d="M267,28 l109,0 0,942 -109,0 0,-942z" />
<path style="fill:#787878" d="M286,28 l74,0 0,942 -74,0 0,-942z" />
<path style="fill:#7f7f7f" d="M303,28 l38,0 0,942 -38,0 0,-942z" />
<path style="fill:#999" d="M28,67 l588,0 0,864 -588,0 0,-864z" />
<path style="fill:#9e9e9e" d="M45,67 l554,0 0,864 -554,0 0,-864z" />
<path style="fill:#a3a3a3" d="M62,67 l520,0 0,864 -520,0 0,-864z" />
<path style="fill:#a8a8a8" d="M79,67 l486,0 0,864 -486,0 0,-864z" />
<path style="fill:#ababab" d="M96,67 l452,0 0,864 -452,0 0,-864z" />
<path style="fill:#b0b0b0" d="M113,67 l418,0 0,864 -418,0 0,-864z" />
<path style="fill:#b5b5b5" d="M130,67 l384,0 0,864 -384,0 0,-864z" />
<path style="fill:#bababa" d="M148,67 l347,0 0,864 -347,0 0,-864z" />
<path style="fill:#bfbfbf" d="M166,67 l313,0 0,864 -313,0 0,-864z" />
<path style="fill:#c4c4c4" d="M182,67 l279,0 0,864 -279,0 0,-864z" />
<path style="fill:#c9c9c9" d="M199,67 l245,0 0,864 -245,0 0,-864z" />
<path style="fill:#cfcfcf" d="M216,67 l211,0 0,864 -211,0 0,-864z" />
<path style="fill:#d1d1d1" d="M233,67 l178,0 0,864 -178,0 0,-864z" />
<path style="fill:#d6d6d6" d="M250,67 l144,0 0,864 -144,0 0,-864z" />
<path style="fill:#dbdbdb" d="M267,67 l109,0 0,864 -109,0 0,-864z" />
<path style="fill:#e0e0e0" d="M286,67 l74,0 0,864 -74,0 0,-864z" />
<path style="fill:#e5e5e5" d="M303,67 l38,0 0,864 -38,0 0,-864z" />
<path style="fill:#f2f2f2" d="M316,67 l6,668 4,-668 -10,0z" />
<path style="fill:#8c8c8c" d="M316,67 l0,-39 10,0 0,39 -10,0z" />
<path style="fill:none;stroke:#000;stroke-width:2" d="M28,28 l588,0 0,942 -588,0 0,-942" />
<path style="fill:#fff" d="M277,263 l0,-79 88,0 0,79 -88,0z" />
<path style="fill:none;stroke:#000;stroke-width:2" d="M277,263 l88,0" />

</svg>
