 

<svg xmlns:agg="http://www.example.com" xmlns="http://www.w3.org/2000/svg" preserveAspectRatio="none" width="1.6083in" height="0.5538in" viewBox="0 0 999 344">

<path style="fill:#999" d="M37,124 l924,0 0,154 -924,0 0,-154z" />
<path style="fill:#bfbfbf" d="M37,149 l924,0 0,103 -924,0 0,-103z" />
<path style="fill:#e5e5e5" d="M37,175 l924,0 0,51 -924,0 0,-51z" />
<path style="fill:none;stroke:#000;stroke-width:2" d="M37,124 l924,0 0,154 -924,0 0,-154" />
<path style="fill:#999;stroke:#000;stroke-width:2" d="M537,124 l11,-28 28,-8 27,8 11,28 -11,0 -8,-19 -19,-5 -19,5 -9,19 -11,0z" />
<path style="fill:#999;stroke:#000;stroke-width:2" d="M384,124 l11,-28 27,-8 28,8 11,28 -11,0 -9,-19 -19,-5 -19,5 -8,19 -11,0z" />
<path style="fill:#b2b2b2;stroke:#000;stroke-width:2" d="M601,201 l13,0 0,101 -13,0 0,-101z" />
<path style="fill:#b2b2b2;stroke:#000;stroke-width:2" d="M384,201 l13,0 0,101 -13,0 0,-101z" />
<path style="fill:#7f7f7f;stroke:#000;stroke-width:2" d="M354,316 l0,-14 43,0 0,14 -43,0z" />
<path style="fill:#7f7f7f;stroke:#000;stroke-width:2" d="M601,316 l0,-14 43,0 0,14 -43,0z" />
<path style="fill:#7f7f7f;stroke:#000;stroke-width:2" d="M461,103 l76,0 0,30 -76,0 0,-30z" />
<path style="fill:#ccc;stroke:#000;stroke-width:2" d="M28,105 l38,0 0,21 -38,0 0,-21z" />
<path style="fill:#ccc;stroke:#000;stroke-width:2" d="M28,147 l38,0 0,22 -38,0 0,-22z" />
<path style="fill:#ccc;stroke:#000;stroke-width:2" d="M28,190 l38,0 0,21 -38,0 0,-21z" />
<path style="fill:#ccc;stroke:#000;stroke-width:2" d="M28,233 l38,0 0,21 -38,0 0,-21z" />
<path style="fill:#ccc;stroke:#000;stroke-width:2" d="M28,275 l38,0 0,22 -38,0 0,-22z" />
<path style="fill:#ccc;stroke:#000;stroke-width:2" d="M105,105 l77,0 0,21 -77,0 0,-21z" />
<path style="fill:#ccc;stroke:#000;stroke-width:2" d="M105,147 l77,0 0,22 -77,0 0,-22z" />
<path style="fill:#ccc;stroke:#000;stroke-width:2" d="M105,190 l77,0 0,21 -77,0 0,-21z" />
<path style="fill:#ccc;stroke:#000;stroke-width:2" d="M105,233 l77,0 0,21 -77,0 0,-21z" />
<path style="fill:#ccc;stroke:#000;stroke-width:2" d="M105,275 l77,0 0,22 -77,0 0,-22z" />
<path style="fill:#999" d="M114,85 l19,0 0,231 -19,0 0,-231z" />
<path style="fill:#bfbfbf" d="M114,124 l19,0 0,154 -19,0 0,-154z" />
<path style="fill:#e5e5e5" d="M114,162 l19,0 0,77 -19,0 0,-77z" />
<path style="fill:none;stroke:#000;stroke-width:2" d="M114,85 l19,0 0,231 -19,0 0,-231" />
<path style="fill:#999" d="M37,85 l19,0 0,231 -19,0 0,-231z" />
<path style="fill:#bfbfbf" d="M37,124 l19,0 0,154 -19,0 0,-154z" />
<path style="fill:#e5e5e5" d="M37,162 l19,0 0,77 -19,0 0,-77z" />
<path style="fill:none;stroke:#000;stroke-width:2" d="M37,85 l19,0 0,231 -19,0 0,-231" />
<path style="fill:#999" d="M153,85 l19,0 0,231 -19,0 0,-231z" />
<path style="fill:#bfbfbf" d="M153,124 l19,0 0,154 -19,0 0,-154z" />
<path style="fill:#e5e5e5" d="M153,162 l19,0 0,77 -19,0 0,-77z" />
<path style="fill:none;stroke:#000;stroke-width:2" d="M153,85 l19,0 0,231 -19,0 0,-231" />
<path style="fill:#ccc;stroke:#000;stroke-width:2" d="M970,297 l-38,0 0,-21 38,0 0,21z" />
<path style="fill:#ccc;stroke:#000;stroke-width:2" d="M970,254 l-38,0 0,-21 38,0 0,21z" />
<path style="fill:#ccc;stroke:#000;stroke-width:2" d="M970,212 l-38,0 0,-22 38,0 0,22z" />
<path style="fill:#ccc;stroke:#000;stroke-width:2" d="M970,169 l-38,0 0,-21 38,0 0,21z" />
<path style="fill:#ccc;stroke:#000;stroke-width:2" d="M970,126 l-38,0 0,-21 38,0 0,21z" />
<path style="fill:#ccc;stroke:#000;stroke-width:2" d="M893,297 l-77,0 0,-21 77,0 0,21z" />
<path style="fill:#ccc;stroke:#000;stroke-width:2" d="M893,254 l-77,0 0,-21 77,0 0,21z" />
<path style="fill:#ccc;stroke:#000;stroke-width:2" d="M893,212 l-77,0 0,-22 77,0 0,22z" />
<path style="fill:#ccc;stroke:#000;stroke-width:2" d="M893,169 l-77,0 0,-21 77,0 0,21z" />
<path style="fill:#ccc;stroke:#000;stroke-width:2" d="M893,126 l-77,0 0,-21 77,0 0,21z" />
<path style="fill:#999" d="M884,316 l-19,0 0,-231 19,0 0,231z" />
<path style="fill:#bfbfbf" d="M884,278 l-19,0 0,-154 19,0 0,154z" />
<path style="fill:#e5e5e5" d="M884,239 l-19,0 0,-77 19,0 0,77z" />
<path style="fill:none;stroke:#000;stroke-width:2" d="M884,316 l-19,0 0,-231 19,0 0,231" />
<path style="fill:#999" d="M961,316 l-19,0 0,-231 19,0 0,231z" />
<path style="fill:#bfbfbf" d="M961,278 l-19,0 0,-154 19,0 0,154z" />
<path style="fill:#e5e5e5" d="M961,239 l-19,0 0,-77 19,0 0,77z" />
<path style="fill:none;stroke:#000;stroke-width:2" d="M961,316 l-19,0 0,-231 19,0 0,231" />
<path style="fill:#999" d="M845,316 l-19,0 0,-231 19,0 0,231z" />
<path style="fill:#bfbfbf" d="M845,278 l-19,0 0,-154 19,0 0,154z" />
<path style="fill:#e5e5e5" d="M845,239 l-19,0 0,-77 19,0 0,77z" />
<path style="fill:none;stroke:#000;stroke-width:2" d="M845,316 l-19,0 0,-231 19,0 0,231" />
<path style="fill:#999;stroke:#000;stroke-width:2" d="M739,133 l0,-77 -86,0 0,77 43,24 43,-24z" />
<path style="fill:#bfbfbf" d="M725,133 l0,-77 -58,0 0,77 29,24 29,-24z" />
<path style="fill:#e5e5e5" d="M711,133 l0,-77 -29,0 0,77 14,24 15,-24z" />
<path style="fill:#999" d="M624,56 l0,-28 144,0 0,28 -144,0z" />
<path style="fill:#bfbfbf" d="M648,56 l0,-28 96,0 0,28 -96,0z" />
<path style="fill:#e5e5e5" d="M672,56 l0,-28 48,0 0,28 -48,0z" />
<path style="fill:none;stroke:#000;stroke-width:2" d="M624,56 l0,-28 144,0 0,28 -144,0" />
<path style="fill:#999;stroke:#000;stroke-width:2" d="M335,133 l0,-77 -86,0 0,77 43,24 43,-24z" />
<path style="fill:#bfbfbf" d="M321,133 l0,-77 -58,0 0,77 29,24 29,-24z" />
<path style="fill:#e5e5e5" d="M307,133 l0,-77 -29,0 0,77 14,24 15,-24z" />
<path style="fill:#999" d="M220,56 l0,-28 144,0 0,28 -144,0z" />
<path style="fill:#bfbfbf" d="M244,56 l0,-28 96,0 0,28 -96,0z" />
<path style="fill:#e5e5e5" d="M268,56 l0,-28 48,0 0,28 -48,0z" />
<path style="fill:none;stroke:#000;stroke-width:2" d="M220,56 l0,-28 144,0 0,28 -144,0" />
<path style="fill:#999;stroke:#000;stroke-width:2" d="M930,124 l0,-29 -33,0 0,29 16,9 17,-9z" />
<path style="fill:#bfbfbf" d="M924,124 l0,-29 -22,0 0,29 11,9 11,-9z" />
<path style="fill:#e5e5e5" d="M919,124 l0,-29 -11,0 0,29 5,9 6,-9z" />
<path style="fill:#999" d="M888,95 l0,-10 49,0 0,10 -49,0z" />
<path style="fill:#bfbfbf" d="M896,95 l0,-10 33,0 0,10 -33,0z" />
<path style="fill:#e5e5e5" d="M904,95 l0,-10 17,0 0,10 -17,0z" />
<path style="fill:none;stroke:#000;stroke-width:2" d="M888,95 l0,-10 49,0 0,10 -49,0" />
<path style="fill:#999;stroke:#000;stroke-width:2" d="M896,277 l0,30 32,0 0,-30 -16,-9 -16,9z" />
<path style="fill:#bfbfbf" d="M901,277 l0,30 22,0 0,-30 -11,-9 -11,9z" />
<path style="fill:#e5e5e5" d="M906,277 l0,30 12,0 0,-30 -6,-9 -6,9z" />
<path style="fill:#999" d="M937,307 l0,9 -49,0 0,-9 49,0z" />
<path style="fill:#bfbfbf" d="M929,307 l0,9 -33,0 0,-9 33,0z" />
<path style="fill:#e5e5e5" d="M921,307 l0,9 -16,0 0,-9 16,0z" />
<path style="fill:none;stroke:#000;stroke-width:2" d="M937,307 l0,9 -49,0 0,-9 49,0" />

</svg>
