 

<svg xmlns:agg="http://www.example.com" xmlns="http://www.w3.org/2000/svg" preserveAspectRatio="none" width="1.6083in" height="1.0191in" viewBox="0 0 999 633">

<path style="fill:#999;stroke:#000;stroke-width:2" d="M69,605 l-41,-42 0,-494 41,-41 860,0 41,41 0,494 -41,42 -860,0z" />
<path style="fill:#191919" d="M48,69 l902,0 0,494 -902,0 0,-494z" />
<path style="fill:#930" d="M120,120 l32,0 0,-8 -24,-22 -34,0 -25,22 0,389 30,0 0,-381 12,-6 9,6z" />
<path style="fill:#930" d="M171,501 l32,0 0,7 -24,25 -34,0 -25,-25 0,-388 32,0 0,381 10,6 9,-6z" />
<path style="fill:#930" d="M224,120 l30,0 0,-8 -23,-22 -36,0 -22,22 0,389 30,0 0,-381 9,-6 12,6z" />
<path style="fill:#930" d="M275,501 l32,0 0,7 -25,25 -34,0 -24,-25 0,-388 30,0 0,381 11,6 10,-6z" />
<path style="fill:#930" d="M326,120 l31,0 0,-8 -24,-22 -34,0 -24,22 0,389 32,0 0,-381 9,-6 10,6z" />
<path style="fill:#930" d="M378,501 l31,0 0,7 -25,25 -34,0 -24,-25 0,-388 31,0 0,381 10,6 11,-6z" />
<path style="fill:#930" d="M429,120 l32,0 0,-8 -24,-22 -34,0 -25,22 0,389 31,0 0,-381 11,-6 9,6z" />
<path style="fill:#930" d="M480,501 l32,0 0,7 -24,25 -34,0 -25,-25 0,-388 32,0 0,381 10,6 9,-6z" />
<path style="fill:#930" d="M533,120 l30,0 0,-8 -25,-22 -33,0 -25,22 0,389 32,0 0,-381 10,-6 11,6z" />
<path style="fill:#930" d="M584,501 l30,0 0,7 -23,25 -34,0 -24,-25 0,-388 30,0 0,381 11,6 10,-6z" />
<path style="fill:#930" d="M635,120 l32,0 0,-8 -25,-22 -34,0 -24,22 0,389 32,0 0,-381 9,-6 10,6z" />
<path style="fill:#930" d="M688,501 l30,0 0,7 -25,25 -34,0 -24,-25 0,-388 32,0 0,381 9,6 12,-6z" />
<path style="fill:#930" d="M738,120 l31,0 0,-8 -23,-22 -34,0 -24,22 0,389 30,0 0,-381 11,-6 9,6z" />
<path style="fill:#930" d="M789,501 l33,0 0,7 -25,25 -34,0 -25,-25 0,-388 31,0 0,381 11,6 9,-6z" />
<path style="fill:#930" d="M842,120 l30,0 0,-8 -24,-22 -34,0 -23,22 0,389 31,0 0,-381 9,-6 11,6z" />
<path style="fill:#930" d="M893,501 l32,0 0,7 -24,25 -34,0 -25,-25 0,-388 30,0 0,381 12,6 9,-6z" />
<path style="fill:#930" d="M944,114 l0,-24 -27,0 -24,22 0,389 32,0 0,-381 9,-6 10,0z" />
<path style="fill:#930" d="M48,507 l0,26 29,0 22,-25 0,-7 -30,0 -11,6 -10,0z" />

</svg>
