 

<svg xmlns:agg="http://www.example.com" xmlns="http://www.w3.org/2000/svg" preserveAspectRatio="none" width="1.6083in" height="0.5474in" viewBox="0 0 999 340">

<path style="fill:#7f7f7f;stroke:#000;stroke-width:2" d="M107,76 l77,0 0,178 -77,0 0,-178z" />
<path style="fill:#7f7f7f" d="M676,312 l19,-9 0,-49 19,0 0,49 21,9 -59,0z" />
<path style="fill:#7f7f7f" d="M28,312 l20,-9 0,-34 294,0 0,34 19,9 -333,0z" />
<path style="fill:#ccc" d="M184,43 l630,0 0,196 -630,0 0,-196z" />
<path style="fill:#e5e5e5" d="M814,52 l156,0 -79,168 -77,0 0,-168z" />
<path style="fill:#e5e5e5;stroke:#000;stroke-width:2" d="M184,239 l630,0 0,15 -630,0 0,-15z" />
<path style="fill:#e5e5e5;stroke:#000;stroke-width:2" d="M48,254 l294,0 0,15 -294,0 0,-15z" />
<path style="fill:#c7c7c7" d="M184,209 l630,-117 0,147 -630,0 0,-30z" />
<path style="fill:#c2c2c2" d="M184,220 l630,-119 0,138 -630,0 0,-19z" />
<path style="fill:#bdbdbd" d="M184,229 l630,-117 0,127 -630,0 0,-10z" />
<path style="fill:#e0e0e0" d="M814,131 l130,-24 -53,113 -77,0 0,-89z" />
<path style="fill:#dbdbdb" d="M940,118 l-49,102 -77,0 0,-79 126,-23z" />
<path style="fill:#d6d6d6" d="M933,131 l-42,89 -77,0 0,-70 119,-19z" />
<path style="fill:#b2b2b2" d="M28,312 l20,-9 294,0 19,9 -333,0z" />
<path style="fill:#b2b2b2" d="M676,312 l19,-9 19,0 21,9 -59,0z" />
<path style="fill:#b2b2b2" d="M205,122 l107,0 0,9 -107,0 0,-9z" />
<path style="fill:#000" d="M214,101 l10,0 0,10 -10,0 0,-10z" />
<path style="fill:#ccc" d="M73,248 l3,6 99,0 9,-9 0,-99 -9,10 0,89 -99,0 -3,3z" />
<path style="fill:#ccc" d="M92,118 l3,4 82,0 7,-8 0,-71 -7,7 0,64 -82,0 -3,4z" />
<path style="fill:#f2f2f2" d="M175,156 l9,-10 -108,0 -9,10 0,89 6,3 3,-3 0,-89 99,0z" />
<path style="fill:#f2f2f2" d="M177,50 l7,-7 -89,0 -9,7 0,64 6,4 3,-4 0,-64 82,0z" />
<path style="fill:#e5e5e5" d="M95,50 l82,0 0,64 -82,0 0,-64z" />
<path style="fill:#e5e5e5" d="M76,156 l99,0 0,89 -99,0 0,-89z" />
<path style="fill:#b2b2b2" d="M812,131 l0,-79 11,0 0,79 -11,0z" />
<path style="fill:#adadad" d="M812,131 l0,10 11,0 0,-10 -11,0z" />
<path style="fill:#a8a8a8" d="M812,141 l0,9 11,0 0,-9 -11,0z" />
<path style="fill:#a3a3a3" d="M812,220 l0,-70 11,0 0,70 -11,0z" />
<path style="fill:#000" d="M342,254 l472,0 0,4 -472,0 0,-4z" />
<path style="fill:#4c4c4c" d="M48,269 l294,0 0,4 -294,0 0,-4z" />
<path style="fill:none;stroke:#000;stroke-width:2" d="M676,312 l19,-9 0,-49 19,0 0,49 21,9 -59,0" />
<path style="fill:none;stroke:#000;stroke-width:2" d="M28,312 l20,-9 0,-34 294,0 0,34 19,9 -333,0" />
<path style="fill:none;stroke:#000;stroke-width:2" d="M814,52 l156,0 -79,168 -77,0 0,-168" />
<path style="fill:none;stroke:#000;stroke-width:2" d="M184,43 l630,0 0,196 -630,0 0,-196" />
<path style="fill:none;stroke:#000;stroke-width:2" d="M184,114 l0,-71 -89,0 -9,7 0,64 9,8 82,0 7,-8" />
<path style="fill:none;stroke:#000;stroke-width:2" d="M184,245 l0,-99 -108,0 -9,10 0,89 9,9 99,0 9,-9" />
<path style="fill:#ccc;stroke:#000;stroke-width:2" d="M101,28 l74,0 0,15 -74,0 0,-15z" />
<path style="fill:#ccc;stroke:#000;stroke-width:2" d="M199,28 l6,0 0,15 -6,0 0,-15z" />
<path style="fill:#ccc;stroke:#000;stroke-width:2" d="M803,28 l5,0 0,15 -5,0 0,-15z" />

</svg>
