 

<svg xmlns:agg="http://www.example.com" xmlns="http://www.w3.org/2000/svg" preserveAspectRatio="none" width="1.3258in" height="1.0750in" viewBox="0 0 999 810">

<path style="fill:#333" d="M161,578 l47,0 0,15 -47,0 0,-15z" />
<path style="fill:#ccc" d="M90,531 l64,0 0,204 -64,0 0,-204z" />
<path style="fill:#ccc" d="M154,593 l62,0 0,174 -62,0 0,-174z" />
<path style="fill:#c7c7c7" d="M154,716 l62,-72 0,123 -62,0 0,-51z" />
<path style="fill:#c7c7c7" d="M90,676 l64,-85 0,144 -64,0 0,-59z" />
<path style="fill:#c2c2c2" d="M154,723 l62,-71 0,115 -62,0 0,-44z" />
<path style="fill:#c2c2c2" d="M90,684 l64,-85 0,136 -64,0 0,-51z" />
<path style="fill:#bdbdbd" d="M154,735 l62,-72 0,104 -62,0 0,-32z" />
<path style="fill:#bdbdbd" d="M90,697 l64,-85 0,123 -64,0 0,-38z" />
<path style="fill:#657f7f" d="M279,92 l31,0 0,627 -31,0 0,-627z" />
<path style="fill:#657f7f" d="M876,92 l32,0 0,627 -32,0 0,-627z" />
<path style="fill:none;stroke:#000;stroke-width:2" d="M310,92 l0,627" />
<path style="fill:none;stroke:#000;stroke-width:2" d="M876,92 l0,627" />
<path style="fill:#d8e5e5" d="M923,271 l0,8 -660,1 0,-9 32,-132 596,0 32,132z" />
<path style="fill:#d8e5e5" d="M923,459 l0,8 -660,2 0,-10 32,-132 596,0 32,132z" />
<path style="fill:#d8e5e5" d="M923,648 l0,8 -660,1 0,-9 32,-132 596,0 32,132z" />
<path style="fill:#d1dede" d="M923,648 l0,8 -660,1 0,-9 12,-45 624,-62 24,107z" />
<path style="fill:#d1dede" d="M923,459 l0,8 -660,2 0,-10 12,-45 624,-62 24,107z" />
<path style="fill:#d1dede" d="M923,271 l0,8 -660,1 0,-9 12,-46 624,-62 24,108z" />
<path style="fill:#c9d6d6" d="M923,271 l0,8 -660,1 0,-9 6,-25 634,-64 20,89z" />
<path style="fill:#c9d6d6" d="M923,459 l0,8 -660,2 0,-10 6,-24 634,-64 20,88z" />
<path style="fill:#c9d6d6" d="M923,648 l0,8 -660,1 0,-9 6,-24 634,-65 20,89z" />
<path style="fill:#a5b2b2" d="M923,648 l0,8 -660,1 0,-9 660,0z" />
<path style="fill:#a5b2b2" d="M923,459 l0,8 -660,2 0,-10 660,0z" />
<path style="fill:#a5b2b2" d="M923,271 l0,8 -660,1 0,-9 660,0z" />
<path style="fill:none;stroke:#366;stroke-width:2" d="M295,195 l596,0" />
<path style="fill:none;stroke:#366;stroke-width:2" d="M295,146 l596,0" />
<path style="fill:none;stroke:#366;stroke-width:2" d="M295,384 l596,0" />
<path style="fill:none;stroke:#366;stroke-width:2" d="M295,335 l596,0" />
<path style="fill:none;stroke:#366;stroke-width:2" d="M295,573 l596,0" />
<path style="fill:none;stroke:#366;stroke-width:2" d="M295,523 l596,0" />
<path style="fill:none;stroke:#fff;stroke-width:2" d="M279,640 l629,0" />
<path style="fill:none;stroke:#fff;stroke-width:2" d="M295,565 l596,0" />
<path style="fill:none;stroke:#fff;stroke-width:2" d="M279,452 l629,0" />
<path style="fill:none;stroke:#fff;stroke-width:2" d="M295,377 l596,0" />
<path style="fill:none;stroke:#fff;stroke-width:2" d="M279,263 l629,0" />
<path style="fill:none;stroke:#fff;stroke-width:2" d="M295,188 l596,0" />
<path style="fill:none;stroke:#000;stroke-width:2" d="M923,648 l0,8 -660,1 0,-9 32,-132 596,0 32,132" />
<path style="fill:none;stroke:#000;stroke-width:2" d="M923,459 l0,8 -660,2 0,-10 32,-132 596,0 32,132" />
<path style="fill:none;stroke:#000;stroke-width:2" d="M923,271 l0,8 -660,1 0,-9 32,-132 596,0 32,132" />
<path style="fill:#b2cccc" d="M546,92 l89,0 79,20 72,42 58,58 42,72 22,79 0,83 -22,81 -42,72 -58,58 -72,40 -79,22 -83,0 -80,-22 -71,-41 -59,-57 -41,-72 -22,-81 0,-83 22,-79 41,-72 59,-58 71,-42 74,-20 0,-64 -330,0 0,754 754,0 0,-754 -424,0 0,64z" />
<path style="fill:#aac4c4" d="M886,284 l22,79 0,83 -22,81 -42,72 -58,58 -72,40 -79,22 -83,0 -80,-22 -71,-41 -59,-57 -41,-72 -22,-81 -63,23 0,313 754,0 0,-534 -84,36z" />
<path style="fill:#a3bdbd" d="M895,316 l13,47 0,83 -22,81 -42,72 -58,58 -72,40 -79,22 -83,0 -80,-22 -71,-41 -59,-57 -41,-72 -13,-47 -72,19 0,283 754,0 0,-502 -75,36z" />
<path style="fill:none;stroke:#cff;stroke-width:2" d="M844,212 l42,72 22,79 0,83 -22,80 -42,73 -58,58 -72,40 -79,22 -83,0 -80,-22 -71,-41 -59,-57" />
<path style="fill:none;stroke:#000;stroke-width:2" d="M216,28 l754,0 0,754 -754,0 0,-754" />
<path style="fill:none;stroke:#033;stroke-width:2" d="M342,599 l-41,-72 -22,-81 0,-83 22,-79 41,-72 59,-58 71,-42 80,-20 83,0 79,20 72,42 58,58" />
<path style="fill:none;stroke:#000;stroke-width:2" d="M154,593 l62,0 0,174 -62,0 0,-174" />
<path style="fill:none;stroke:#000;stroke-width:2" d="M90,531 l64,0 0,204 -64,0 0,-204" />
<path style="fill:#ccc;stroke:#000;stroke-width:2" d="M154,531 l62,0 0,47 -62,0 0,-47z" />
<path style="fill:#7f7f7f" d="M28,704 l62,0 0,15 -62,0 0,-15z" />
<path style="fill:#b2b2b2" d="M28,707 l62,0 0,9 -62,0 0,-9z" />
<path style="fill:#e5e5e5" d="M28,710 l62,0 0,2 -62,0 0,-2z" />
<path style="fill:none;stroke:#000;stroke-width:2" d="M28,704 l62,0 0,15 -62,0 0,-15" />
<path style="fill:#333;stroke:#000;stroke-width:2" d="M154,531 l0,-79 7,-15 55,7 0,-15 -51,-7 -11,0 -13,15 -4,22 0,72 17,0z" />

</svg>
