 

<svg xmlns:agg="http://www.example.com" xmlns="http://www.w3.org/2000/svg" preserveAspectRatio="none" width="1.0341in" height="1.0750in" viewBox="0 0 961 999">

<path style="fill:#ccc;stroke:#000;stroke-width:2" d="M28,970 l0,-905 829,0 0,905 -829,0z" />
<path style="fill:#b2b2b2" d="M933,933 l0,-905 -76,37 0,905 76,-37z" />
<path style="fill:#e5e5e5;stroke:#000;stroke-width:2" d="M103,28 l830,0 -76,37 -829,0 75,-37z" />
<path style="fill:#999" d="M122,339 l641,0 0,19 -641,0 0,-19z" />
<path style="fill:#999" d="M122,631 l641,0 0,19 -641,0 0,-19z" />
<path style="fill:#999" d="M122,919 l641,0 0,19 -641,0 0,-19z" />
<path style="fill:#999" d="M160,942 l565,0 0,19 -565,0 0,-19z" />
<path style="fill:#ccc" d="M160,942 l0,-698 565,0 0,698 -565,0z" />
<path style="fill:#c4c4c4" d="M160,942 l0,-264 565,-189 0,453 -565,0z" />
<path style="fill:#bababa" d="M160,942 l0,-188 565,-189 0,377 -565,0z" />
<path style="fill:#b2b2b2" d="M160,942 l0,-151 565,-189 0,340 -565,0z" />
<path style="fill:none;stroke:#000;stroke-width:2" d="M160,942 l0,-698 565,0 0,698 -565,0" />
<path style="fill:none;stroke:#000;stroke-width:2" d="M442,244 l0,698" />
<path style="fill:#999" d="M160,631 l123,-5 0,-19 -123,5 0,19z" />
<path style="fill:#999" d="M725,339 l-122,-5 0,-19 122,5 0,19z" />
<path style="fill:#999" d="M160,339 l123,-5 0,-19 -123,5 0,19z" />
<path style="fill:#999" d="M725,631 l-122,-5 0,-19 122,5 0,19z" />
<path style="fill:#7f7f7f" d="M725,919 l-122,-5 0,-19 122,5 0,19z" />
<path style="fill:#7f7f7f" d="M160,919 l123,-5 0,-19 -123,5 0,19z" />
<path style="fill:#ccc;stroke:#000;stroke-width:2" d="M763,918 l-38,0 0,-18 -122,-5 0,-28 122,-5 0,-19 38,0 0,75z" />
<path style="fill:#ccc;stroke:#000;stroke-width:2" d="M763,631 l-38,0 0,-19 -122,-5 0,-28 122,-5 0,-19 38,0 0,76z" />
<path style="fill:#ccc;stroke:#000;stroke-width:2" d="M763,339 l-38,0 0,-19 -122,-5 0,-28 122,-5 0,-19 38,0 0,76z" />
<path style="fill:#ccc;stroke:#000;stroke-width:2" d="M122,339 l38,0 0,-19 123,-5 0,-28 -123,-5 0,-19 -38,0 0,76z" />
<path style="fill:#ccc;stroke:#000;stroke-width:2" d="M122,631 l38,0 0,-19 123,-5 0,-28 -123,-5 0,-19 -38,0 0,76z" />
<path style="fill:#ccc;stroke:#000;stroke-width:2" d="M122,918 l38,0 0,-18 123,-5 0,-28 -123,-5 0,-19 -38,0 0,75z" />
<path style="fill:none;stroke:#7f7f7f;stroke-width:2" d="M622,598 l0,-10 122,-4 0,-19" />
<path style="fill:none;stroke:#7f7f7f;stroke-width:2" d="M622,885 l0,-9 122,-5 0,-19" />
<path style="fill:none;stroke:#7f7f7f;stroke-width:2" d="M264,885 l0,-9 -123,-5 0,-19" />
<path style="fill:none;stroke:#7f7f7f;stroke-width:2" d="M264,598 l0,-10 -123,-4 0,-19" />
<path style="fill:none;stroke:#7f7f7f;stroke-width:2" d="M622,306 l0,-10 122,-4 0,-19" />
<path style="fill:none;stroke:#7f7f7f;stroke-width:2" d="M264,306 l0,-10 -123,-4 0,-19" />
<path style="fill:#666" d="M457,650 l0,-94 18,0 0,94 -18,0z" />
<path style="fill:#666" d="M410,650 l0,-94 18,0 0,94 -18,0z" />
<path style="fill:none;stroke:#bfccd9;stroke-width:2" d="M457,650 l0,-94 18,0" />
<path style="fill:none;stroke:#bfccd9;stroke-width:2" d="M410,650 l0,-94 18,0" />
<path style="fill:none;stroke:#7f7f7f;stroke-width:2" d="M160,235 l0,-170" />
<path style="fill:none;stroke:#7f7f7f;stroke-width:2" d="M442,235 l0,-170" />
<path style="fill:none;stroke:#7f7f7f;stroke-width:2" d="M725,235 l0,-170" />
<path style="fill:#a6a6a6" d="M933,933 l0,-491 -76,170 0,358 76,-37z" />
<path style="fill:none;stroke:#000;stroke-width:2" d="M933,933 l0,-905 -76,37 0,905 76,-37" />
<path style="fill:none;stroke:#fff;stroke-width:2" d="M603,895 l0,-28 122,-5 0,-19 38,0" />
<path style="fill:none;stroke:#fff;stroke-width:2" d="M603,607 l0,-28 122,-4 0,-19 38,0" />
<path style="fill:none;stroke:#fff;stroke-width:2" d="M603,315 l0,-28 122,-5 0,-19 38,0" />
<path style="fill:none;stroke:#fff;stroke-width:2" d="M122,339 l0,-76 38,0" />
<path style="fill:none;stroke:#fff;stroke-width:2" d="M122,631 l0,-75 38,0" />
<path style="fill:none;stroke:#fff;stroke-width:2" d="M122,919 l0,-76 38,0" />

</svg>
