 
<svg version="1.1" id="图层_1" xmlns:agg="http://www.example.com"
	 xmlns="http://www.w3.org/2000/svg" xmlns:xlink="http://www.w3.org/1999/xlink" x="0px" y="0px" width="64px" height="64px"
	 viewBox="0 0 64 64" enable-background="new 0 0 64 64" xml:space="preserve">
<g>
	<polygon fill="none" stroke="#040000" stroke-width="1.5" stroke-linecap="round" stroke-miterlimit="10" points="41.332,39.215 
		41.186,37.73 40.852,36.322 40.293,34.986 39.553,33.725 38.588,32.611 37.475,31.647 36.213,30.906 34.877,30.313 33.43,29.979 
		31.981,29.867 30.534,29.979 29.086,30.313 27.751,30.906 26.489,31.647 25.376,32.611 24.448,33.725 23.668,34.986 23.112,36.322 
		22.778,37.73 22.667,39.215 22.778,40.66 23.112,42.107 23.668,43.443 24.448,44.703 25.376,45.816 26.489,46.744 27.751,47.523 
		29.086,48.08 30.534,48.414 31.981,48.525 33.43,48.414 34.877,48.08 36.213,47.523 37.475,46.744 38.588,45.816 39.553,44.703 
		40.293,43.443 40.852,42.107 41.186,40.66 	"/>
	<polygon fill="none" stroke="#040000" stroke-width="1.5" stroke-linecap="round" stroke-miterlimit="10" points="41.332,24.785 
		41.186,23.339 40.852,21.893 40.293,20.557 39.553,19.296 38.588,18.183 37.475,17.219 36.213,16.477 34.877,15.92 33.43,15.549 
		31.981,15.438 30.534,15.549 29.086,15.92 27.751,16.477 26.489,17.219 25.376,18.183 24.448,19.296 23.668,20.557 23.112,21.893 
		22.778,23.339 22.667,24.785 22.778,26.232 23.112,27.679 23.668,29.014 24.448,30.275 25.376,31.388 26.489,32.353 27.751,33.094 
		29.086,33.65 30.534,33.984 31.981,34.133 33.43,33.984 34.877,33.65 36.213,33.094 37.475,32.353 38.588,31.388 39.553,30.275 
		40.293,29.014 40.852,27.679 41.186,26.232 	"/>
	
		<line fill="none" stroke="#040000" stroke-width="1.5" stroke-linecap="round" stroke-miterlimit="10" x1="31.981" y1="48.525" x2="31.981" y2="60.988"/>
	
		<line fill="none" stroke="#040000" stroke-width="1.5" stroke-linecap="round" stroke-miterlimit="10" x1="27.937" y1="60.506" x2="36.025" y2="55.832"/>
	
		<line fill="none" stroke="#040000" stroke-width="1.5" stroke-linecap="round" stroke-miterlimit="10" x1="27.937" y1="56.129" x2="36.025" y2="51.455"/>
	
		<line fill="none" stroke="#040000" stroke-width="1.5" stroke-linecap="round" stroke-miterlimit="10" x1="27.937" y1="12.36" x2="36.025" y2="7.686"/>
	
		<line fill="none" stroke="#040000" stroke-width="1.5" stroke-linecap="round" stroke-miterlimit="10" x1="31.981" y1="15.438" x2="31.981" y2="3.012"/>
	
		<line fill="none" stroke="#040000" stroke-width="1.5" stroke-linecap="round" stroke-miterlimit="10" x1="27.937" y1="7.983" x2="36.025" y2="3.309"/>
</g>
</svg>
