 

<svg xmlns:agg="http://www.example.com" xmlns="http://www.w3.org/2000/svg" preserveAspectRatio="none" width="1.3308in" height="1.0750in" viewBox="0 0 999 807">

<path style="fill:#bf0000;stroke:#000;stroke-width:2" d="M28,72 l849,0 0,707 -849,0 0,-707z" />
<path style="fill:#f00" d="M28,673 l849,0 0,88 -849,0 0,-88z" />
<path style="fill:#f00" d="M28,302 l849,0 0,353 -849,0 0,-353z" />
<path style="fill:#f00" d="M28,90 l849,0 0,194 -849,0 0,-194z" />
<path style="fill:none;stroke:#000;stroke-width:2" d="M63,682 l0,70" />
<path style="fill:none;stroke:#000;stroke-width:2" d="M81,682 l0,70" />
<path style="fill:none;stroke:#000;stroke-width:2" d="M99,682 l0,70" />
<path style="fill:none;stroke:#000;stroke-width:2" d="M117,682 l0,70" />
<path style="fill:none;stroke:#000;stroke-width:2" d="M153,682 l0,70" />
<path style="fill:none;stroke:#000;stroke-width:2" d="M172,682 l0,70" />
<path style="fill:none;stroke:#000;stroke-width:2" d="M190,682 l0,70" />
<path style="fill:none;stroke:#000;stroke-width:2" d="M208,682 l0,70" />
<path style="fill:none;stroke:#000;stroke-width:2" d="M244,682 l0,70" />
<path style="fill:none;stroke:#000;stroke-width:2" d="M262,682 l0,70" />
<path style="fill:none;stroke:#000;stroke-width:2" d="M280,682 l0,70" />
<path style="fill:none;stroke:#000;stroke-width:2" d="M298,682 l0,70" />
<path style="fill:none;stroke:#000;stroke-width:2" d="M334,682 l0,70" />
<path style="fill:none;stroke:#000;stroke-width:2" d="M352,682 l0,70" />
<path style="fill:none;stroke:#000;stroke-width:2" d="M370,682 l0,70" />
<path style="fill:none;stroke:#000;stroke-width:2" d="M388,682 l0,70" />
<path style="fill:none;stroke:#000;stroke-width:2" d="M425,682 l0,70" />
<path style="fill:none;stroke:#000;stroke-width:2" d="M443,682 l0,70" />
<path style="fill:none;stroke:#000;stroke-width:2" d="M461,682 l0,70" />
<path style="fill:none;stroke:#000;stroke-width:2" d="M479,682 l0,70" />
<path style="fill:none;stroke:#000;stroke-width:2" d="M515,682 l0,70" />
<path style="fill:none;stroke:#000;stroke-width:2" d="M533,682 l0,70" />
<path style="fill:none;stroke:#000;stroke-width:2" d="M551,682 l0,70" />
<path style="fill:none;stroke:#000;stroke-width:2" d="M569,682 l0,70" />
<path style="fill:none;stroke:#000;stroke-width:2" d="M605,682 l0,70" />
<path style="fill:none;stroke:#000;stroke-width:2" d="M624,682 l0,70" />
<path style="fill:none;stroke:#000;stroke-width:2" d="M642,682 l0,70" />
<path style="fill:none;stroke:#000;stroke-width:2" d="M660,682 l0,70" />
<path style="fill:none;stroke:#000;stroke-width:2" d="M696,682 l0,70" />
<path style="fill:none;stroke:#000;stroke-width:2" d="M714,682 l0,70" />
<path style="fill:none;stroke:#000;stroke-width:2" d="M732,682 l0,70" />
<path style="fill:none;stroke:#000;stroke-width:2" d="M750,682 l0,70" />
<path style="fill:none;stroke:#000;stroke-width:2" d="M786,682 l0,70" />
<path style="fill:none;stroke:#000;stroke-width:2" d="M804,682 l0,70" />
<path style="fill:none;stroke:#000;stroke-width:2" d="M823,682 l0,70" />
<path style="fill:none;stroke:#000;stroke-width:2" d="M840,682 l0,70" />
<path style="fill:none;stroke:#ffabab;stroke-width:2" d="M593,125 l0,124 -282,0" />
<path style="fill:none;stroke:#900;stroke-width:2" d="M311,249 l0,-124 282,0" />
<path style="fill:#333" d="M337,151 l230,0 0,71 -230,0 0,-71z" />
<path style="fill:#e5e5e5" d="M550,189 l-6,2 -5,-10 -9,-5 -10,-1 -10,4 -7,8 -1,4 -6,-2 4,-9 6,-6 8,-4 10,-2 8,2 8,4 6,6 4,9z" />
<path style="fill:#900;stroke:#000;stroke-width:2" d="M877,72 l93,-44 0,707 -93,44 0,-707z" />
<path style="fill:#ff7f7f;stroke:#000;stroke-width:2" d="M877,72 l93,-44 -849,0 -93,44 849,0z" />
<path style="fill:none;stroke:#600;stroke-width:2" d="M901,62 l0,707" />
<path style="fill:none;stroke:#bf0000;stroke-width:2" d="M897,57 l-835,0" />

</svg>
