 

<svg xmlns:agg="http://www.example.com" xmlns="http://www.w3.org/2000/svg" preserveAspectRatio="none" width="0.5047in" height="1.0750in" viewBox="0 0 469 999">

<path style="fill:#7f7f7f" d="M28,931 l30,-843 26,-26 49,-23 66,-11 70,0 66,11 49,21 26,28 30,843 -412,0z" />
<path style="fill:#333;stroke:#000;stroke-width:2" d="M107,931 l254,0 0,39 -254,0 0,-39z" />
<path style="fill:#8c8c8c" d="M54,931 l25,-843 24,-28 43,-21 57,-11 62,0 57,11 45,21 23,28 26,843 -362,0z" />
<path style="fill:#999" d="M79,931 l20,-843 21,-28 38,-21 50,-11 53,0 49,11 38,21 21,28 22,843 -312,0z" />
<path style="fill:#a6a6a6" d="M103,931 l19,-843 17,-28 32,-21 41,-11 46,0 41,11 32,21 17,28 19,843 -264,0z" />
<path style="fill:#b2b2b2" d="M127,931 l15,-843 14,-28 26,-21 34,-11 36,0 36,11 24,21 15,28 15,843 -215,0z" />
<path style="fill:#bfbfbf" d="M152,931 l11,-843 11,-28 19,-21 27,-11 28,0 26,11 21,21 11,28 12,843 -166,0z" />
<path style="fill:#ccc" d="M176,931 l8,-843 8,-28 15,-21 19,-11 18,0 19,11 13,21 10,28 7,843 -117,0z" />
<path style="fill:#d9d9d9" d="M201,931 l4,-843 6,-28 7,-21 11,-11 11,0 12,11 7,21 6,28 4,843 -68,0z" />
<path style="fill:#e5e5e5" d="M226,931 l0,-843 1,-26 2,-23 4,-11 4,0 2,11 1,21 2,28 2,843 -18,0z" />
<path style="fill:none;stroke:#000;stroke-width:2" d="M28,931 l30,-843 26,-26 49,-23 66,-11 70,0 66,11 49,21 26,28 30,843 -412,0" />
<path style="fill:#b2b2b2" d="M226,116 l37,31 21,0 0,-21 -40,-29 -18,19z" />
<path style="fill:#b2b2b2" d="M226,853 l37,29 21,0 0,-19 -40,-30 -18,20z" />
<path style="fill:#000" d="M226,97 l18,0 0,19 -18,0 0,-19z" />
<path style="fill:#000" d="M226,833 l18,0 0,20 -18,0 0,-20z" />
<path style="fill:#333" d="M126,184 l216,0 0,551 -216,0 0,-551z" />
<path style="fill:none;stroke:#fff;stroke-width:2" d="M342,184 l0,551 -216,0" />
<path style="fill:none;stroke:#000;stroke-width:2" d="M342,184 l-216,0 0,551" />
<path style="fill:#7f7f7f" d="M303,195 l21,0 0,530 -21,0 0,-530z" />
<path style="fill:#7f7f7f" d="M263,195 l21,0 0,530 -21,0 0,-530z" />
<path style="fill:#7f7f7f" d="M226,195 l18,0 0,530 -18,0 0,-530z" />
<path style="fill:#7f7f7f" d="M186,195 l19,0 0,530 -19,0 0,-530z" />
<path style="fill:#7f7f7f" d="M146,195 l19,0 0,530 -19,0 0,-530z" />
<path style="fill:#7f7f7f;stroke:#000;stroke-width:2" d="M333,558 l0,20 -196,0 0,-20 196,0z" />
<path style="fill:#7f7f7f;stroke:#000;stroke-width:2" d="M333,361 l0,19 -196,0 0,-19 196,0z" />

</svg>
