 

<svg xmlns:agg="http://www.example.com" xmlns="http://www.w3.org/2000/svg" preserveAspectRatio="none" width="0.4401in" height="1.0750in" viewBox="0 0 409 999">

<path style="fill:#ccccc4;stroke:#000;stroke-width:2" d="M48,950 l314,0 0,20 -314,0 0,-20z" />
<path style="fill:#ccccc4;stroke:#000;stroke-width:2" d="M146,420 l117,0 0,-294 -117,0 0,294z" />
<path style="fill:#ccccc4;stroke:#000;stroke-width:2" d="M106,420 l0,158 -78,39 0,333 353,0 0,-333 -78,-39 0,-158 -197,0z" />
<path style="fill:#99998a;stroke:#000;stroke-width:2" d="M146,28 l117,0 0,98 -117,0 0,-98z" />
<path style="fill:none;stroke:#000;stroke-width:2" d="M146,460 l0,137 -79,39 0,275 275,0 0,-275 -79,-39 0,-137 -117,0" />
<path style="fill:none;stroke:#000;stroke-width:2" d="M106,911 l0,-240 40,-25 117,0 40,25 0,240" />
<path style="fill:none;stroke:#000;stroke-width:2" d="M150,563 l-4,-10 4,-10 11,-5 10,5 4,10 -4,10 -10,4 -11,-4" />
<path style="fill:none;stroke:#000;stroke-width:2" d="M180,563 l-5,-10 5,-10 10,-5 10,5 5,10 -5,10 -10,4 -10,-4" />
<path style="fill:none;stroke:#000;stroke-width:2" d="M209,563 l-4,-10 4,-11 10,-4 11,4 4,11 -4,10 -11,4 -10,-4" />
<path style="fill:none;stroke:#000;stroke-width:2" d="M238,563 l-4,-10 4,-11 11,-4 10,4 4,11 -4,10 -10,4 -11,-4" />
<path style="fill:none;stroke:#000;stroke-width:2" d="M81,696 l-4,-10 4,-11 11,-4 10,4 4,11 -4,10 -10,4 -11,-4" />
<path style="fill:none;stroke:#000;stroke-width:2" d="M307,696 l-4,-10 4,-11 11,-4 10,4 4,11 -4,10 -10,4 -11,-4" />
<path style="fill:none;stroke:#000;stroke-width:2" d="M81,888 l-4,-11 4,-10 11,-5 10,5 4,10 -4,11 -10,4 -11,-4" />
<path style="fill:none;stroke:#000;stroke-width:2" d="M307,888 l-4,-11 4,-10 11,-5 10,5 4,10 -4,11 -10,4 -11,-4" />
<path style="fill:none;stroke:#000;stroke-width:2" d="M161,798 l88,0 0,89 -88,0 0,-89" />

</svg>
