 

<svg xmlns:agg="http://www.example.com" xmlns="http://www.w3.org/2000/svg" preserveAspectRatio="none" width="1.6053in" height="1.0750in" viewBox="0 0 999 669">

<path style="fill:none;stroke:#859985;stroke-width:2" d="M116,56 l373,0" />
<path style="fill:none;stroke:#859985;stroke-width:2" d="M101,71 l403,0" />
<path style="fill:none;stroke:#859985;stroke-width:2" d="M82,86 l442,0" />
<path style="fill:#859985;stroke:#000;stroke-width:2" d="M175,42 l20,0 0,49 -20,0 0,-49z" />
<path style="fill:#859985;stroke:#000;stroke-width:2" d="M293,42 l20,0 0,49 -20,0 0,-49z" />
<path style="fill:#859985;stroke:#000;stroke-width:2" d="M411,42 l20,0 0,49 -20,0 0,-49z" />
<path style="fill:#333" d="M28,111 l942,0 0,491 -942,0 0,-491z" />
<path style="fill:none;stroke:#476647;stroke-width:2" d="M28,170 l942,0" />
<path style="fill:none;stroke:#476647;stroke-width:2" d="M28,249 l942,0" />
<path style="fill:none;stroke:#476647;stroke-width:2" d="M28,327 l942,0" />
<path style="fill:none;stroke:#476647;stroke-width:2" d="M28,405 l942,0" />
<path style="fill:none;stroke:#476647;stroke-width:2" d="M28,484 l942,0" />
<path style="fill:none;stroke:#476647;stroke-width:2" d="M28,562 l942,0" />
<path style="fill:none;stroke:#859985;stroke-width:2" d="M62,170 l874,0" />
<path style="fill:none;stroke:#859985;stroke-width:2" d="M62,249 l874,0" />
<path style="fill:none;stroke:#859985;stroke-width:2" d="M62,327 l874,0" />
<path style="fill:none;stroke:#859985;stroke-width:2" d="M62,405 l874,0" />
<path style="fill:none;stroke:#859985;stroke-width:2" d="M62,484 l874,0" />
<path style="fill:none;stroke:#859985;stroke-width:2" d="M62,562 l874,0" />
<path style="fill:none;stroke:#a3b2a3;stroke-width:2" d="M111,170 l776,0" />
<path style="fill:none;stroke:#a3b2a3;stroke-width:2" d="M111,249 l776,0" />
<path style="fill:none;stroke:#a3b2a3;stroke-width:2" d="M111,327 l776,0" />
<path style="fill:none;stroke:#a3b2a3;stroke-width:2" d="M111,405 l776,0" />
<path style="fill:none;stroke:#a3b2a3;stroke-width:2" d="M111,484 l776,0" />
<path style="fill:none;stroke:#a3b2a3;stroke-width:2" d="M111,562 l776,0" />
<path style="fill:#000" d="M72,622 l854,0 0,19 -854,0 0,-19z" />
<path style="fill:#a3b2a3" d="M676,111 l19,0 0,491 -19,0 0,-491z" />
<path style="fill:#a3b2a3" d="M558,111 l20,0 0,491 -20,0 0,-491z" />
<path style="fill:#a3b2a3" d="M440,111 l20,0 0,491 -20,0 0,-491z" />
<path style="fill:#a3b2a3" d="M322,111 l20,0 0,491 -20,0 0,-491z" />
<path style="fill:#859985" d="M813,111 l20,0 0,491 -20,0 0,-491z" />
<path style="fill:#859985" d="M205,111 l19,0 0,491 -19,0 0,-491z" />
<path style="fill:#476647" d="M931,111 l20,0 0,491 -20,0 0,-491z" />
<path style="fill:#476647" d="M87,111 l19,0 0,491 -19,0 0,-491z" />
<path style="fill:#476647" d="M28,602 l942,0 -15,19 -912,0 -15,-19z" />
<path style="fill:#476647" d="M43,91 l912,0 15,20 -942,0 15,-20z" />
<path style="fill:#859985;stroke:#000;stroke-width:2" d="M87,91 l54,-49 324,0 73,49 20,0 -89,-63 -333,0 -69,63 20,0z" />
<path style="fill:#859985" d="M62,602 l874,0 -14,19 -846,0 -14,-19z" />
<path style="fill:#859985" d="M76,91 l846,0 14,20 -874,0 14,-20z" />
<path style="fill:#a3b2a3" d="M111,602 l776,0 -13,19 -750,0 -13,-19z" />
<path style="fill:#a3b2a3" d="M124,91 l750,0 13,20 -776,0 13,-20z" />
<path style="fill:none;stroke:#000;stroke-width:2" d="M28,602 l942,0 -15,19 -912,0 -15,-19" />
<path style="fill:none;stroke:#000;stroke-width:2" d="M43,91 l912,0 15,20 -942,0 15,-20" />
<path style="fill:#dde5dd;stroke:#000;stroke-width:2" d="M420,307 l158,0 0,59 -158,0 0,-59z" />

</svg>
