 

<svg xmlns:agg="http://www.example.com" xmlns="http://www.w3.org/2000/svg" preserveAspectRatio="none" width="0.5542in" height="1.0750in" viewBox="0 0 515 999">

<path style="fill:none;stroke:#000;stroke-width:2" d="M175,224 l82,-32 82,32" />
<path style="fill:#ccccc4;stroke:#000;stroke-width:2" d="M241,126 l33,0 0,-66 -33,0 0,66z" />
<path style="fill:#ccccc4;stroke:#000;stroke-width:2" d="M224,126 l66,0 0,49 -66,0 0,-49z" />
<path style="fill:#ccccc4;stroke:#000;stroke-width:2" d="M175,224 l49,-49 66,0 49,49 -164,0z" />
<path style="fill:#ccccc4" d="M339,224 l0,17 -164,0 0,-17 164,0z" />
<path style="fill:#ccccc4" d="M28,388 l459,0 0,-16 -459,0 0,16z" />
<path style="fill:#ccccc4" d="M159,519 l0,-24 -107,-107 -24,0 131,131z" />
<path style="fill:#ccccc4" d="M487,388 l-132,131 0,-24 107,-107 25,0z" />
<path style="fill:#ccccc4" d="M159,765 l196,0 0,17 -196,0 0,-17z" />
<path style="fill:#ccccc4" d="M159,388 l196,0 0,377 -196,0 0,-377z" />
<path style="fill:#ccccc4" d="M192,355 l131,0 0,17 -131,0 0,-17z" />
<path style="fill:#ccccc4" d="M339,257 l16,0 0,82 -16,0 0,-82z" />
<path style="fill:#ccccc4" d="M175,355 l164,0 0,-114 -164,0 0,114z" />
<path style="fill:#ccccc4" d="M159,257 l16,0 0,82 -16,0 0,-82z" />
<path style="fill:#ccccc4" d="M224,782 l33,24 33,-24 -16,0 -17,8 -16,-8 -17,0z" />
<path style="fill:#ccccc4" d="M372,888 l33,0 0,33 -33,0 0,-33z" />
<path style="fill:#ccccc4" d="M372,962 l41,0 0,8 -41,0 0,-8z" />
<path style="fill:#ccccc4" d="M380,938 l25,0 0,24 -25,0 0,-24z" />
<path style="fill:#ccccc4" d="M388,921 l8,0 0,17 -8,0 0,-17z" />
<path style="fill:none;stroke:#000;stroke-width:2" d="M175,224 l164,0 0,17 -164,0 0,-17" />
<path style="fill:none;stroke:#000;stroke-width:2" d="M28,388 l459,0 0,-16 -459,0 0,16" />
<path style="fill:none;stroke:#000;stroke-width:2" d="M28,388 l131,131 0,-24 -107,-107 -24,0" />
<path style="fill:none;stroke:#000;stroke-width:2" d="M487,388 l-132,131 0,-24 107,-107 25,0" />
<path style="fill:none;stroke:#000;stroke-width:2" d="M159,765 l196,0 0,17 -196,0 0,-17" />
<path style="fill:none;stroke:#000;stroke-width:2" d="M159,388 l196,0 0,377 -196,0 0,-377" />
<path style="fill:none;stroke:#000;stroke-width:2" d="M192,355 l131,0 0,17 -131,0 0,-17" />
<path style="fill:none;stroke:#000;stroke-width:2" d="M339,257 l16,0 0,82 -16,0 0,-82" />
<path style="fill:none;stroke:#000;stroke-width:2" d="M175,355 l164,0 0,-114 -164,0 0,114" />
<path style="fill:none;stroke:#000;stroke-width:2" d="M159,257 l16,0 0,82 -16,0 0,-82" />
<path style="fill:none;stroke:#000;stroke-width:2" d="M224,782 l33,24 33,-24 -16,0 -17,8 -16,-8 -17,0" />
<path style="fill:none;stroke:#000;stroke-width:2" d="M372,888 l33,0 0,33 -33,0 0,-33" />
<path style="fill:none;stroke:#000;stroke-width:2" d="M372,962 l41,0 0,8 -41,0 0,-8" />
<path style="fill:none;stroke:#000;stroke-width:2" d="M380,938 l25,0 0,24 -25,0 0,-24" />
<path style="fill:none;stroke:#000;stroke-width:2" d="M388,921 l8,0 0,17 -8,0 0,-17" />
<path style="fill:#99998a;stroke:#000;stroke-width:2" d="M241,60 l33,0 0,-32 -33,0 0,32z" />
<path style="fill:none;stroke:#000;stroke-width:2" d="M175,224 l0,-41 164,0 0,41" />
<path style="fill:none;stroke:#000;stroke-width:2" d="M257,224 l0,-41" />
<path style="fill:none;stroke:#000;stroke-width:2" d="M175,200 l164,0" />
<path style="fill:none;stroke:#000;stroke-width:2" d="M28,372 l0,-41 459,0 0,41" />
<path style="fill:none;stroke:#000;stroke-width:2" d="M388,372 l0,-41" />
<path style="fill:none;stroke:#000;stroke-width:2" d="M290,372 l0,-41" />
<path style="fill:none;stroke:#000;stroke-width:2" d="M192,372 l0,-41" />
<path style="fill:none;stroke:#000;stroke-width:2" d="M93,372 l0,-41" />
<path style="fill:none;stroke:#000;stroke-width:2" d="M28,347 l459,0" />
<path style="fill:none;stroke:#000;stroke-width:2" d="M44,388 l0,582" />
<path style="fill:none;stroke:#000;stroke-width:2" d="M77,388 l0,582" />
<path style="fill:none;stroke:#000;stroke-width:2" d="M44,421 l33,0" />
<path style="fill:none;stroke:#000;stroke-width:2" d="M44,454 l33,0" />
<path style="fill:none;stroke:#000;stroke-width:2" d="M44,487 l33,0" />
<path style="fill:none;stroke:#000;stroke-width:2" d="M44,519 l33,0" />
<path style="fill:none;stroke:#000;stroke-width:2" d="M44,552 l33,0" />
<path style="fill:none;stroke:#000;stroke-width:2" d="M44,585 l33,0" />
<path style="fill:none;stroke:#000;stroke-width:2" d="M44,618 l33,0" />
<path style="fill:none;stroke:#000;stroke-width:2" d="M44,651 l33,0" />
<path style="fill:none;stroke:#000;stroke-width:2" d="M44,683 l33,0" />
<path style="fill:none;stroke:#000;stroke-width:2" d="M44,716 l33,0" />
<path style="fill:none;stroke:#000;stroke-width:2" d="M44,749 l33,0" />
<path style="fill:none;stroke:#000;stroke-width:2" d="M44,782 l33,0" />
<path style="fill:none;stroke:#000;stroke-width:2" d="M44,815 l33,0" />
<path style="fill:none;stroke:#000;stroke-width:2" d="M44,847 l33,0" />
<path style="fill:none;stroke:#000;stroke-width:2" d="M44,880 l33,0" />
<path style="fill:none;stroke:#000;stroke-width:2" d="M44,913 l33,0" />
<path style="fill:none;stroke:#000;stroke-width:2" d="M44,946 l33,0" />
<path style="fill:#ccccc4;stroke:#000;stroke-width:2" d="M347,774 l17,0 0,57 -17,0 0,-57z" />
<path style="fill:#ccccc4;stroke:#000;stroke-width:2" d="M151,774 l16,0 0,57 -16,0 0,-57z" />
<path style="fill:#fff;stroke:#000;stroke-width:2" d="M339,831 l33,0 0,139 -33,0 0,-139z" />
<path style="fill:#fff;stroke:#000;stroke-width:2" d="M142,831 l33,0 0,139 -33,0 0,-139z" />

</svg>
