 

<svg xmlns:agg="http://www.example.com" xmlns="http://www.w3.org/2000/svg" preserveAspectRatio="none" width="1.6083in" height="0.9917in" viewBox="0 0 999 616">

<path style="fill:#7f7f7f;stroke:#000;stroke-width:2" d="M303,410 l98,0 0,-157 -98,0 0,157z" />
<path style="fill:#bfbfbf;stroke:#000;stroke-width:2" d="M205,96 l255,0 0,177 -255,0 0,-177z" />
<path style="fill:none;stroke:#000;stroke-width:2" d="M283,195 l137,0" />
<path style="fill:none;stroke:#000;stroke-width:2" d="M283,175 l137,0" />
<path style="fill:#033" d="M224,312 l79,0 0,-78 608,0 0,78 -216,0 0,118 216,0 0,79 -687,0 0,-197z" />
<path style="fill:#b2b2b2;stroke:#000;stroke-width:2" d="M48,528 l863,0 0,39 -863,0 0,-39z" />
<path style="fill:#366" d="M695,312 l216,0 0,118 -216,0 0,-118z" />
<path style="fill:#ccc;stroke:#000;stroke-width:2" d="M911,548 l59,0 0,-39 -59,0 0,39z" />
<path style="fill:#b8b8b8" d="M774,178 l-176,0 0,-65 176,0 0,65z" />
<path style="fill:#b2b2b2;stroke:#000;stroke-width:2" d="M705,509 l10,-216 29,0 10,216 -49,0z" />
<path style="fill:#bfbfbf;stroke:#000;stroke-width:2" d="M892,87 l49,0 0,176 -49,0 0,-176z" />
<path style="fill:#999;stroke:#000;stroke-width:2" d="M813,38 l-520,0 0,-10 520,0 0,10z" />
<path style="fill:#d9d9d9" d="M813,34 l-520,0 0,-3 520,0 0,3z" />
<path style="fill:#999;stroke:#000;stroke-width:2" d="M303,38 l0,333 -10,0 0,-333 10,0z" />
<path style="fill:#d9d9d9" d="M300,38 l0,333 -4,0 0,-333 4,0z" />
<path style="fill:#7f7f7f;stroke:#000;stroke-width:2" d="M637,391 l-138,0 0,-118 138,0 0,118z" />
<path style="fill:#a6a6a6" d="M224,260 l0,249 -158,0 0,-249 45,-23 0,-22 68,0 0,22 45,23z" />
<path style="fill:#b5b5b5" d="M207,260 l0,248 -124,0 0,-248 36,-23 0,-23 53,0 0,23 35,23z" />
<path style="fill:#c4c4c4" d="M190,260 l0,248 -90,0 0,-248 26,-23 0,-23 39,0 0,23 25,23z" />
<path style="fill:#d6d6d6" d="M174,260 l0,248 -57,0 0,-248 16,-23 0,-23 25,0 0,23 16,23z" />
<path style="fill:#e5e5e5" d="M156,260 l0,249 -22,0 0,-249 6,-23 0,-22 10,0 0,22 6,23z" />
<path style="fill:none;stroke:#999;stroke-width:2" d="M66,283 l158,0" />
<path style="fill:none;stroke:#fff;stroke-width:2" d="M77,260 l136,0" />
<path style="fill:#b23232" d="M145,366 l-34,-9 0,-25 34,-9 34,9 0,25 -34,9z" />
<path style="fill:none;stroke:#999;stroke-width:2" d="M111,237 l68,0" />
<path style="fill:none;stroke:#000;stroke-width:2" d="M224,260 l0,249 -158,0 0,-249 45,-23 0,-22 68,0 0,22 45,23" />
<path style="fill:#ccc;stroke:#000;stroke-width:2" d="M381,352 l275,0 0,78 -275,0 0,-78z" />
<path style="fill:#4c7f7f;stroke:#000;stroke-width:2" d="M578,386 l0,15 29,14 30,-14 0,-15 -59,0z" />
<path style="fill:#4c7f7f;stroke:#000;stroke-width:2" d="M519,386 l0,15 29,14 30,-14 0,-15 -59,0z" />
<path style="fill:#4c7f7f;stroke:#000;stroke-width:2" d="M460,386 l0,15 29,14 30,-14 0,-15 -59,0z" />
<path style="fill:#4c7f7f;stroke:#000;stroke-width:2" d="M401,386 l0,15 30,14 29,-14 0,-15 -59,0z" />
<path style="fill:#b2e5e5;stroke:#000;stroke-width:2" d="M607,401 l-29,-15 29,-15 30,15 -30,15z" />
<path style="fill:#b2e5e5;stroke:#000;stroke-width:2" d="M548,401 l-29,-15 29,-15 30,15 -30,15z" />
<path style="fill:#b2e5e5;stroke:#000;stroke-width:2" d="M489,401 l-29,-15 29,-15 30,15 -30,15z" />
<path style="fill:#b2e5e5;stroke:#000;stroke-width:2" d="M431,401 l-30,-15 30,-15 29,15 -29,15z" />
<path style="fill:#999;stroke:#000;stroke-width:2" d="M342,489 l-98,0 0,-59 98,0 0,59z" />
<path style="fill:#999;stroke:#000;stroke-width:2" d="M381,508 l-39,0 0,-98 39,0 0,98z" />
<path style="fill:#999;stroke:#000;stroke-width:2" d="M381,430 l275,0 0,39 -275,0 0,-39z" />
<path style="fill:#d9d9d9" d="M342,469 l-98,0 0,-19 98,0 0,19z" />
<path style="fill:#d9d9d9" d="M381,475 l-39,0 0,-32 39,0 0,32z" />
<path style="fill:#999;stroke:#000;stroke-width:2" d="M244,430 l0,-275 19,0 0,275 -19,0z" />
<path style="fill:#999;stroke:#000;stroke-width:2" d="M774,195 l-177,0 0,-99 177,0 0,99z" />
<path style="fill:#999;stroke:#000;stroke-width:2" d="M597,166 l-186,0 0,-40 186,0 0,40z" />
<path style="fill:#999;stroke:#000;stroke-width:2" d="M411,185 l-10,0 0,-79 10,0 0,79z" />
<path style="fill:#999;stroke:#000;stroke-width:2" d="M401,155 l-275,0 0,-19 275,0 0,19z" />
<path style="fill:#999;stroke:#000;stroke-width:2" d="M136,214 l0,-59 19,0 0,59 -19,0z" />
<path style="fill:#d9d9d9" d="M251,430 l0,-275 6,0 0,275 -6,0z" />
<path style="fill:#d9d9d9" d="M774,162 l-177,0 0,-33 177,0 0,33z" />
<path style="fill:#d9d9d9" d="M597,152 l-186,0 0,-13 186,0 0,13z" />
<path style="fill:#d9d9d9" d="M411,159 l-10,0 0,-27 10,0 0,27z" />
<path style="fill:#d9d9d9" d="M401,149 l-275,0 0,-7 275,0 0,7z" />
<path style="fill:#d9d9d9" d="M142,214 l0,-59 7,0 0,59 -7,0z" />
<path style="fill:#999;stroke:#000;stroke-width:2" d="M578,352 l0,-99 19,0 0,99 -19,0z" />
<path style="fill:#999;stroke:#000;stroke-width:2" d="M519,352 l0,-99 19,0 0,99 -19,0z" />
<path style="fill:#999;stroke:#000;stroke-width:2" d="M460,352 l0,-40 20,0 0,40 -20,0z" />
<path style="fill:#999;stroke:#000;stroke-width:2" d="M401,352 l0,-40 19,0 0,40 -19,0z" />
<path style="fill:#d9d9d9" d="M584,352 l0,-99 7,0 0,99 -7,0z" />
<path style="fill:#d9d9d9" d="M525,352 l0,-99 7,0 0,99 -7,0z" />
<path style="fill:#d9d9d9" d="M467,352 l0,-40 6,0 0,40 -6,0z" />
<path style="fill:#d9d9d9" d="M408,352 l0,-40 6,0 0,40 -6,0z" />
<path style="fill:#999;stroke:#000;stroke-width:2" d="M656,312 l-393,0 0,-19 393,0 0,19z" />
<path style="fill:#d9d9d9" d="M656,306 l-393,0 0,-7 393,0 0,7z" />
<path style="fill:#999;stroke:#000;stroke-width:2" d="M656,254 l-373,0 0,-40 373,0 0,40z" />
<path style="fill:#d9d9d9" d="M656,240 l-373,0 0,-13 373,0 0,13z" />
<path style="fill:#e5e5e5;stroke:#000;stroke-width:2" d="M491,223 l-11,-28 11,-28 28,-12 28,12 11,28 -11,28 -28,11 -28,-11z" />
<path style="fill:none;stroke:#7f7f7f;stroke-width:2" d="M505,208 l-6,-13 6,-14 14,-6 14,6" />
<path style="fill:#e5e5e5;stroke:#000;stroke-width:2" d="M28,567 l903,0 0,20 -903,0 0,-20z" />
<path style="fill:#e5e5e5;stroke:#000;stroke-width:2" d="M28,509 l903,0 0,19 -903,0 0,-19z" />
<path style="fill:#e5e5e5;stroke:#000;stroke-width:2" d="M892,263 l78,0 0,30 -78,0 0,-30z" />
<path style="fill:#e5e5e5;stroke:#000;stroke-width:2" d="M951,293 l19,0 0,216 -19,0 0,-216z" />
<path style="fill:#e5e5e5;stroke:#000;stroke-width:2" d="M901,293 l20,0 0,216 -20,0 0,-216z" />
<path style="fill:#e5e5e5;stroke:#000;stroke-width:2" d="M774,57 l118,0 0,334 -118,0 0,-334z" />
<path style="fill:none;stroke:#fff;stroke-width:2" d="M794,371 l0,-294 78,0" />
<path style="fill:#999;stroke:#000;stroke-width:2" d="M813,38 l0,19 -10,0 0,-19 10,0z" />
<path style="fill:#d9d9d9" d="M810,38 l0,19 -3,0 0,-19 3,0z" />

</svg>
