 

<svg xmlns:agg="http://www.example.com" xmlns="http://www.w3.org/2000/svg" preserveAspectRatio="none" width="0.8878in" height="1.0750in" viewBox="0 0 825 999">

<path style="fill:#e5e5e5;stroke:#000;stroke-width:2" d="M797,39 l-745,0 0,931 745,0 0,-931z" />
<path style="fill:#b2b2b2" d="M774,62 l-699,0 0,886 699,0 0,-886z" />
<path style="fill:none;stroke:#999;stroke-width:2" d="M99,62 l0,886 23,0 0,-886 23,0 0,886 24,0 0,-886 23,0 0,886 22,0 0,-886 25,0 0,886 22,0 0,-886 23,0 0,886 25,0 0,-886 22,0 0,886 23,0 0,-886 24,0 0,886 23,0 0,-886 23,0 0,886 24,0 0,-886 23,0 0,886 22,0 0,-886 25,0 0,886 22,0 0,-886 25,0 0,886 23,0 0,-886 22,0 0,886 23,0 0,-886 24,0 0,886 23,0 0,-886 25,0 0,886 22,0 0,-886 23,0 0,886" />
<path style="fill:none;stroke:#000;stroke-width:2" d="M772,923 l-87,25 -86,0 173,-47 0,-23 -260,70 -88,0 348,-95 0,-22 -435,117 -87,0 522,-140 0,-24 -603,164 -94,0 697,-187 0,-23 -697,187 0,-24 697,-187 0,-23 -697,187 0,-23 697,-188 0,-23 -697,187 0,-23 697,-186 0,-23 -697,187 0,-25 697,-187 0,-22 -697,186 0,-22 699,-189 0,-22 -697,186 0,-22 697,-187 0,-24 -697,188 0,-24 697,-187 0,-23 -697,187 0,-25 697,-186 0,-23 -697,187 0,-23 697,-186 0,-25 -697,187 0,-23 697,-187 0,-22 -697,186 0,-24 697,-187 0,-22 -697,186 0,-22 697,-189 0,-23 -697,187 0,-22 697,-187 0,-23 -697,187 0,-25 697,-186 0,-23 -697,187 0,-23 697,-188 -83,0 -614,164 0,-23 522,-141 -81,0 -441,118 0,-24 347,-94 -81,0 -266,71 0,-24 179,-47 -87,0 -92,24 0,-22" />
<path style="fill:none;stroke:#000;stroke-width:2" d="M77,923 l85,25 88,0 -173,-47 0,-23 260,70 87,0 -347,-95 0,-22 433,117 89,0 -522,-140 0,-24 603,164 92,0 -695,-187 0,-23 695,187 0,-24 -695,-187 0,-23 695,187 0,-23 -695,-188 0,-23 695,187 0,-23 -695,-186 0,-23 695,187 0,-25 -695,-187 0,-22 695,186 0,-22 -697,-189 0,-22 697,186 0,-22 -697,-187 0,-24 697,188 0,-24 -697,-187 0,-23 697,187 0,-25 -697,-186 0,-23 697,187 0,-23 -697,-186 0,-25 697,187 0,-23 -697,-187 0,-22 697,186 0,-24 -697,-187 0,-22 697,186 0,-22 -697,-189 0,-23 697,187 0,-22 -697,-187 0,-23 697,187 0,-25 -697,-186 0,-23 697,187 0,-23 -697,-188 81,0 616,164 0,-23 -522,-141 81,0 441,118 0,-24 -348,-94 81,0 267,71 0,-24 -180,-47 88,0 92,24 0,-22" />
<path style="fill:none;stroke:#000;stroke-width:2" d="M774,62 l-699,0 0,886 699,0 0,-886" />
<path style="fill:none;stroke:#fff;stroke-width:2" d="M75,62 l0,886 697,0" />
<path style="fill:#f2f2f2;stroke:#000;stroke-width:2" d="M797,39 l-23,-11 -746,0 24,11 745,0z" />
<path style="fill:#ccc;stroke:#000;stroke-width:2" d="M52,970 l-24,-11 0,-931 24,11 0,931z" />

</svg>
