 

<svg xmlns:agg="http://www.example.com" xmlns="http://www.w3.org/2000/svg" preserveAspectRatio="none" width="0.7360in" height="1.0750in" viewBox="0 0 684 999">

<path style="fill:#f2e5cc" d="M28,28 l628,0 0,942 -628,0 0,-942z" />
<path style="fill:#ede0c7" d="M28,697 l628,-394 0,667 -628,0 0,-273z" />
<path style="fill:#e8dbc2" d="M28,737 l628,-395 0,628 -628,0 0,-233z" />
<path style="fill:#e3d6bd" d="M28,795 l628,-394 0,569 -628,0 0,-175z" />
<path style="fill:none;stroke:#000;stroke-width:2" d="M28,28 l628,0 0,942 -628,0 0,-942" />
<path style="fill:#333" d="M37,578 l541,0 0,372 -541,0 0,-372z" />
<path style="fill:none;stroke:#4c4c4c;stroke-width:2" d="M107,891 l294,0" />
<path style="fill:none;stroke:#4c4c4c;stroke-width:2" d="M165,872 l315,0" />
<path style="fill:none;stroke:#4c4c4c;stroke-width:2" d="M303,753 l196,0" />
<path style="fill:none;stroke:#4c4c4c;stroke-width:2" d="M382,695 l0,79" />
<path style="fill:none;stroke:#4c4c4c;stroke-width:2" d="M263,656 l0,195" />
<path style="fill:none;stroke:#4c4c4c;stroke-width:2" d="M245,616 l0,177" />
<path style="fill:none;stroke:#4c4c4c;stroke-width:2" d="M86,676 l0,157" />
<path style="fill:none;stroke:#4c4c4c;stroke-width:2" d="M520,616 l0,198" />
<path style="fill:none;stroke:#4c4c4c;stroke-width:2" d="M322,637 l-215,0" />
<path style="fill:none;stroke:#ccbfa6;stroke-width:2" d="M37,567 l483,0 0,-147" />
<path style="fill:none;stroke:#ccbfa6;stroke-width:2" d="M37,410 l483,0 0,-373" />
<path style="fill:none;stroke:#fffaf0;stroke-width:2" d="M37,410 l0,-373 483,0" />
<path style="fill:none;stroke:#fffaf0;stroke-width:2" d="M37,567 l0,-147 483,0" />
<path style="fill:none;stroke:#000;stroke-width:2" d="M58,529 l34,0" />
<path style="fill:none;stroke:#000;stroke-width:2" d="M109,529 l34,0" />
<path style="fill:none;stroke:#000;stroke-width:2" d="M160,529 l33,0" />
<path style="fill:none;stroke:#000;stroke-width:2" d="M211,529 l34,0" />
<path style="fill:none;stroke:#000;stroke-width:2" d="M261,529 l34,0" />
<path style="fill:none;stroke:#000;stroke-width:2" d="M312,529 l34,0" />
<path style="fill:none;stroke:#000;stroke-width:2" d="M363,529 l34,0" />
<path style="fill:none;stroke:#000;stroke-width:2" d="M414,529 l34,0" />
<path style="fill:none;stroke:#000;stroke-width:2" d="M465,529 l34,0" />
<path style="fill:none;stroke:#000;stroke-width:2" d="M58,512 l34,0" />
<path style="fill:none;stroke:#000;stroke-width:2" d="M109,512 l34,0" />
<path style="fill:none;stroke:#000;stroke-width:2" d="M160,512 l33,0" />
<path style="fill:none;stroke:#000;stroke-width:2" d="M211,512 l34,0" />
<path style="fill:none;stroke:#000;stroke-width:2" d="M261,512 l34,0" />
<path style="fill:none;stroke:#000;stroke-width:2" d="M312,512 l34,0" />
<path style="fill:none;stroke:#000;stroke-width:2" d="M363,512 l34,0" />
<path style="fill:none;stroke:#000;stroke-width:2" d="M414,512 l34,0" />
<path style="fill:none;stroke:#000;stroke-width:2" d="M465,512 l34,0" />
<path style="fill:none;stroke:#000;stroke-width:2" d="M58,493 l34,0" />
<path style="fill:none;stroke:#000;stroke-width:2" d="M109,493 l34,0" />
<path style="fill:none;stroke:#000;stroke-width:2" d="M160,493 l33,0" />
<path style="fill:none;stroke:#000;stroke-width:2" d="M211,493 l34,0" />
<path style="fill:none;stroke:#000;stroke-width:2" d="M261,493 l34,0" />
<path style="fill:none;stroke:#000;stroke-width:2" d="M312,493 l34,0" />
<path style="fill:none;stroke:#000;stroke-width:2" d="M363,493 l34,0" />
<path style="fill:none;stroke:#000;stroke-width:2" d="M414,493 l34,0" />
<path style="fill:none;stroke:#000;stroke-width:2" d="M465,493 l34,0" />
<path style="fill:none;stroke:#000;stroke-width:2" d="M58,477 l34,0" />
<path style="fill:none;stroke:#000;stroke-width:2" d="M109,477 l34,0" />
<path style="fill:none;stroke:#000;stroke-width:2" d="M160,477 l33,0" />
<path style="fill:none;stroke:#000;stroke-width:2" d="M211,477 l34,0" />
<path style="fill:none;stroke:#000;stroke-width:2" d="M261,477 l34,0" />
<path style="fill:none;stroke:#000;stroke-width:2" d="M312,477 l34,0" />
<path style="fill:none;stroke:#000;stroke-width:2" d="M363,477 l34,0" />
<path style="fill:none;stroke:#000;stroke-width:2" d="M414,477 l34,0" />
<path style="fill:none;stroke:#000;stroke-width:2" d="M465,477 l34,0" />
<path style="fill:none;stroke:#000;stroke-width:2" d="M58,457 l34,0" />
<path style="fill:none;stroke:#000;stroke-width:2" d="M109,457 l34,0" />
<path style="fill:none;stroke:#000;stroke-width:2" d="M160,457 l33,0" />
<path style="fill:none;stroke:#000;stroke-width:2" d="M211,457 l34,0" />
<path style="fill:none;stroke:#000;stroke-width:2" d="M261,457 l34,0" />
<path style="fill:none;stroke:#000;stroke-width:2" d="M312,457 l34,0" />
<path style="fill:none;stroke:#000;stroke-width:2" d="M363,457 l34,0" />
<path style="fill:none;stroke:#000;stroke-width:2" d="M414,457 l34,0" />
<path style="fill:none;stroke:#000;stroke-width:2" d="M465,457 l34,0" />
<path style="fill:none;stroke:#000;stroke-width:2" d="M58,439 l34,0" />
<path style="fill:none;stroke:#000;stroke-width:2" d="M109,439 l34,0" />
<path style="fill:none;stroke:#000;stroke-width:2" d="M160,439 l33,0" />
<path style="fill:none;stroke:#000;stroke-width:2" d="M211,439 l34,0" />
<path style="fill:none;stroke:#000;stroke-width:2" d="M261,439 l34,0" />
<path style="fill:none;stroke:#000;stroke-width:2" d="M312,439 l34,0" />
<path style="fill:none;stroke:#000;stroke-width:2" d="M363,439 l34,0" />
<path style="fill:none;stroke:#000;stroke-width:2" d="M414,439 l34,0" />
<path style="fill:none;stroke:#000;stroke-width:2" d="M465,439 l34,0" />
<path style="fill:none;stroke:#000;stroke-width:2" d="M58,548 l34,0" />
<path style="fill:none;stroke:#000;stroke-width:2" d="M109,548 l34,0" />
<path style="fill:none;stroke:#000;stroke-width:2" d="M160,548 l33,0" />
<path style="fill:none;stroke:#000;stroke-width:2" d="M211,548 l34,0" />
<path style="fill:none;stroke:#000;stroke-width:2" d="M261,548 l34,0" />
<path style="fill:none;stroke:#000;stroke-width:2" d="M312,548 l34,0" />
<path style="fill:none;stroke:#000;stroke-width:2" d="M363,548 l34,0" />
<path style="fill:none;stroke:#000;stroke-width:2" d="M414,548 l34,0" />
<path style="fill:none;stroke:#000;stroke-width:2" d="M465,548 l34,0" />
<path style="fill:none;stroke:#000;stroke-width:2" d="M58,521 l34,0" />
<path style="fill:none;stroke:#000;stroke-width:2" d="M109,521 l34,0" />
<path style="fill:none;stroke:#000;stroke-width:2" d="M160,521 l33,0" />
<path style="fill:none;stroke:#000;stroke-width:2" d="M211,521 l34,0" />
<path style="fill:none;stroke:#000;stroke-width:2" d="M261,521 l34,0" />
<path style="fill:none;stroke:#000;stroke-width:2" d="M312,521 l34,0" />
<path style="fill:none;stroke:#000;stroke-width:2" d="M363,521 l34,0" />
<path style="fill:none;stroke:#000;stroke-width:2" d="M414,521 l34,0" />
<path style="fill:none;stroke:#000;stroke-width:2" d="M465,521 l34,0" />
<path style="fill:none;stroke:#000;stroke-width:2" d="M58,503 l34,0" />
<path style="fill:none;stroke:#000;stroke-width:2" d="M109,503 l34,0" />
<path style="fill:none;stroke:#000;stroke-width:2" d="M160,503 l33,0" />
<path style="fill:none;stroke:#000;stroke-width:2" d="M211,503 l34,0" />
<path style="fill:none;stroke:#000;stroke-width:2" d="M261,503 l34,0" />
<path style="fill:none;stroke:#000;stroke-width:2" d="M312,503 l34,0" />
<path style="fill:none;stroke:#000;stroke-width:2" d="M363,503 l34,0" />
<path style="fill:none;stroke:#000;stroke-width:2" d="M414,503 l34,0" />
<path style="fill:none;stroke:#000;stroke-width:2" d="M465,503 l34,0" />
<path style="fill:none;stroke:#000;stroke-width:2" d="M58,486 l34,0" />
<path style="fill:none;stroke:#000;stroke-width:2" d="M109,486 l34,0" />
<path style="fill:none;stroke:#000;stroke-width:2" d="M160,486 l33,0" />
<path style="fill:none;stroke:#000;stroke-width:2" d="M211,486 l34,0" />
<path style="fill:none;stroke:#000;stroke-width:2" d="M261,486 l34,0" />
<path style="fill:none;stroke:#000;stroke-width:2" d="M312,486 l34,0" />
<path style="fill:none;stroke:#000;stroke-width:2" d="M363,486 l34,0" />
<path style="fill:none;stroke:#000;stroke-width:2" d="M414,486 l34,0" />
<path style="fill:none;stroke:#000;stroke-width:2" d="M465,486 l34,0" />
<path style="fill:none;stroke:#000;stroke-width:2" d="M58,467 l34,0" />
<path style="fill:none;stroke:#000;stroke-width:2" d="M109,467 l34,0" />
<path style="fill:none;stroke:#000;stroke-width:2" d="M160,467 l33,0" />
<path style="fill:none;stroke:#000;stroke-width:2" d="M211,467 l34,0" />
<path style="fill:none;stroke:#000;stroke-width:2" d="M261,467 l34,0" />
<path style="fill:none;stroke:#000;stroke-width:2" d="M312,467 l34,0" />
<path style="fill:none;stroke:#000;stroke-width:2" d="M363,467 l34,0" />
<path style="fill:none;stroke:#000;stroke-width:2" d="M414,467 l34,0" />
<path style="fill:none;stroke:#000;stroke-width:2" d="M465,467 l34,0" />
<path style="fill:none;stroke:#000;stroke-width:2" d="M58,450 l34,0" />
<path style="fill:none;stroke:#000;stroke-width:2" d="M109,450 l34,0" />
<path style="fill:none;stroke:#000;stroke-width:2" d="M160,450 l33,0" />
<path style="fill:none;stroke:#000;stroke-width:2" d="M211,450 l34,0" />
<path style="fill:none;stroke:#000;stroke-width:2" d="M261,450 l34,0" />
<path style="fill:none;stroke:#000;stroke-width:2" d="M312,450 l34,0" />
<path style="fill:none;stroke:#000;stroke-width:2" d="M363,450 l34,0" />
<path style="fill:none;stroke:#000;stroke-width:2" d="M414,450 l34,0" />
<path style="fill:none;stroke:#000;stroke-width:2" d="M465,450 l34,0" />
<path style="fill:none;stroke:#000;stroke-width:2" d="M58,431 l34,0" />
<path style="fill:none;stroke:#000;stroke-width:2" d="M109,431 l34,0" />
<path style="fill:none;stroke:#000;stroke-width:2" d="M160,431 l33,0" />
<path style="fill:none;stroke:#000;stroke-width:2" d="M211,431 l34,0" />
<path style="fill:none;stroke:#000;stroke-width:2" d="M261,431 l34,0" />
<path style="fill:none;stroke:#000;stroke-width:2" d="M312,431 l34,0" />
<path style="fill:none;stroke:#000;stroke-width:2" d="M363,431 l34,0" />
<path style="fill:none;stroke:#000;stroke-width:2" d="M414,431 l34,0" />
<path style="fill:none;stroke:#000;stroke-width:2" d="M465,431 l34,0" />
<path style="fill:none;stroke:#000;stroke-width:2" d="M58,541 l34,0" />
<path style="fill:none;stroke:#000;stroke-width:2" d="M109,541 l34,0" />
<path style="fill:none;stroke:#000;stroke-width:2" d="M160,541 l33,0" />
<path style="fill:none;stroke:#000;stroke-width:2" d="M211,541 l34,0" />
<path style="fill:none;stroke:#000;stroke-width:2" d="M261,541 l34,0" />
<path style="fill:none;stroke:#000;stroke-width:2" d="M312,541 l34,0" />
<path style="fill:none;stroke:#000;stroke-width:2" d="M363,541 l34,0" />
<path style="fill:none;stroke:#000;stroke-width:2" d="M414,541 l34,0" />
<path style="fill:none;stroke:#000;stroke-width:2" d="M465,541 l34,0" />
<path style="fill:#000" d="M459,107 l46,0 0,24 -46,0 0,-24z" />
<path style="fill:#000" d="M456,322 l53,0 0,20 -53,0 0,-20z" />
<path style="fill:#999" d="M431,395 l68,0 0,6 -68,0 0,-6z" />
<path style="fill:#e5d8bf" d="M539,263 l88,0 0,40 -88,0 0,-40z" />
<path style="fill:#bfb299" d="M539,307 l88,0 0,-4 -88,0 0,4z" />
<path style="fill:none;stroke:#ccbfa6;stroke-width:2" d="M539,263 l0,40 88,0 0,-40" />
<path style="fill:#e5e5e5" d="M539,97 l64,0 0,87 -64,0 0,-87z" />
<path style="fill:#ccc" d="M539,111 l64,0 0,58 -64,0 0,-58z" />
<path style="fill:none;stroke:#fff;stroke-width:2" d="M539,169 l0,-58 64,0" />
<path style="fill:none;stroke:#000;stroke-width:2" d="M603,111 l0,58 -64,0" />
<path style="fill:none;stroke:#7f7f7f;stroke-width:2" d="M539,184 l64,0" />
<path style="fill:none;stroke:#998c73;stroke-width:2" d="M37,961 l609,0" />

</svg>
