 

<svg xmlns:agg="http://www.example.com" xmlns="http://www.w3.org/2000/svg" preserveAspectRatio="none" width="1.0750in" height="1.0750in" viewBox="0 0 999 999">

<path style="fill:#9cc;stroke:#000;stroke-width:2" d="M429,652 l-83,-83 -213,211 21,21 -126,128 41,41 128,-126 21,21 211,-213z" />
<path style="fill:#9cc;stroke:#000;stroke-width:2" d="M944,254 l24,-24 -200,-202 -26,26 26,24 -452,453 -26,-26 -25,26 202,200 24,-25 -24,-26 451,-450 26,24z" />
<path style="fill:#9cc;stroke:#000;stroke-width:2" d="M818,78 l37,-37 100,100 -37,37 -12,-13 25,-24 -76,-76 -24,27 -13,-14z" />
<path style="fill:#9cc;stroke:#000;stroke-width:2" d="M295,261 l-30,0 0,238 30,0 0,-28 106,0 72,-38 62,-53 45,-90 -285,0 0,-29z" />
<path style="fill:#9cc;stroke:#000;stroke-width:2" d="M940,499 l30,0 0,-238 -30,0 0,29 -105,0 -72,38 -62,52 -46,91 285,0 0,28z" />
<path style="fill:#9cc;stroke:#000;stroke-width:2" d="M386,578 l26,4 23,-21 -2,-21 28,-15 -32,-32 -17,27 -20,0 -21,20 5,27 10,11z" />
<path style="fill:none;stroke:#000;stroke-width:2" d="M386,578 l26,4 23,-21 -2,-21 28,-15 -32,-32 -17,27 -20,0 -21,20 5,27 10,11" />
<path style="fill:none;stroke:#000;stroke-width:2" d="M384,575 l21,0 20,-22 4,-16 25,-19 -19,-19 -19,24 -17,4 -21,21 -2,21 8,6" />
<path style="fill:none;stroke:#000;stroke-width:2" d="M382,573 l15,-6 21,-21 7,-13 23,-21 -7,-7 -21,22 -13,8 -21,20 -6,16 2,2" />
<path style="fill:#9cc;stroke:#000;stroke-width:2" d="M476,667 l27,5 20,-20 0,-21 27,-17 -30,-32 -17,26 -21,0 -21,23 4,26 11,10z" />
<path style="fill:none;stroke:#000;stroke-width:2" d="M476,667 l27,5 20,-20 0,-21 27,-17 -30,-32 -17,26 -21,0 -21,23 4,26 11,10" />
<path style="fill:none;stroke:#000;stroke-width:2" d="M475,665 l20,0 21,-23 4,-17 24,-17 -19,-20 -18,24 -17,4 -21,21 -2,20 8,8" />
<path style="fill:none;stroke:#000;stroke-width:2" d="M473,663 l15,-6 20,-22 8,-13 22,-19 -7,-8 -21,21 -13,9 -21,21 -5,15 2,2" />

</svg>
