 

<svg xmlns:agg="http://www.example.com" xmlns="http://www.w3.org/2000/svg" preserveAspectRatio="none" width="1.6083in" height="0.9080in" viewBox="0 0 999 564">

<path style="fill:#7f7fff;stroke:#000;stroke-width:2" d="M875,300 l54,0 0,-100 -54,0 0,100z" />
<path style="fill:#7f7fff;stroke:#000;stroke-width:2" d="M913,336 l0,4 4,78 -4,77 0,5 -807,0 1,-5 3,-77 -3,-78 -1,-4 807,0z" />
<path style="fill:#7f7fff;stroke:#000;stroke-width:2" d="M91,340 l2,78 -2,77 0,-155z" />
<path style="fill:#7f7fff;stroke:#000;stroke-width:2" d="M511,285 l359,0 0,-237 -359,0 0,237z" />
<path style="fill:#7f7fff;stroke:#000;stroke-width:2" d="M106,285 l359,0 0,-237 -359,0 0,237z" />
<path style="fill:#7f7fff;stroke:#000;stroke-width:2" d="M932,454 l1,-36 0,-5 32,0 1,1 0,20 0,19 -1,1 -33,0z" />
<path style="fill:#ccf" d="M887,222 l30,0 0,-12 -30,0 0,12z" />
<path style="fill:#ccf" d="M106,48 l-4,-9 0,0 359,0 4,9 -359,0z" />
<path style="fill:#ccf" d="M511,48 l-4,-9 1,0 358,0 4,9 -359,0z" />
<path style="fill:#ccf" d="M110,368 l1,25 805,0 -1,-25 -805,0z" />
<path style="fill:#ccf" d="M875,200 l-2,-3 1,0 53,0 2,3 -54,0z" />
<path style="fill:#ccf" d="M933,421 l0,6 33,0 0,-6 -33,0z" />
<path style="fill:#bfbfff;stroke:#000;stroke-width:2" d="M867,192 l53,0 7,5 -53,0 -7,-5z" />
<path style="fill:#0000ad;stroke:#000;stroke-width:2" d="M875,300 l-8,-6 0,-102 6,5 2,3 0,100z" />
<path style="fill:#00f" d="M923,528 l7,-33 3,-77 -3,-78 -7,-32 -17,0 7,32 4,78 -4,77 -7,33 17,0z" />
<path style="fill:#00f" d="M100,528 l7,-33 3,-77 -3,-78 -7,-32 -17,0 7,32 3,78 -3,77 -7,33 17,0z" />
<path style="fill:#00f" d="M106,500 l1,-5 1,-31 807,0 -2,31 -1,5 -806,0z" />
<ellipse style="fill:#00f" cx="88" cy="148" rx="18" ry="31" />
<path style="fill:#00f" d="M932,445 l0,9 33,0 0,-1 1,-8 -34,0z" />
<path style="fill:#00f" d="M968,461 l2,-8 0,-19 0,-20 -2,-8 -4,0 2,8 0,20 0,19 -2,8 4,0z" />
<path style="fill:#0000ad;stroke:#000;stroke-width:2" d="M83,309 l7,31 3,78 -3,77 -7,32 1,0 -1,1 -7,-33 -3,-77 3,-78 7,-32 0,1z" />
<path style="fill:#0000ad;stroke:#000;stroke-width:2" d="M88,117 l7,2 6,7 4,10 1,6 0,-94 -4,-9 -16,-11 0,90 2,-1z" />
<path style="fill:#0000ad;stroke:#000;stroke-width:2" d="M106,154 l-1,7 -4,10 -6,7 -7,2 -2,-1 0,92 20,14 0,-131z" />
<path style="fill:#0000ad;stroke:#000;stroke-width:2" d="M511,285 l-20,-14 1,-243 15,11 4,9 0,237z" />
<path style="fill:#0000ad;stroke:#000;stroke-width:2" d="M88,180 l-7,-2 -5,-7 -4,-10 -2,-13 2,-12 4,-10 5,-7 7,-2 -8,0 -7,2 -6,7 -4,10 -1,12 1,13 4,10 6,7 7,2 8,0z" />
<path style="fill:#0000ad;stroke:#000;stroke-width:2" d="M900,500 l13,0 -7,27 1,0 -1,1 -6,-28z" />
<path style="fill:#0000ad;stroke:#000;stroke-width:2" d="M913,336 l-13,0 6,-28 0,1 7,27z" />
<path style="fill:#0000ad;stroke:#000;stroke-width:2" d="M962,454 l3,0 -1,7 0,0 0,0 -2,-7z" />
<path style="fill:#0000ad;stroke:#000;stroke-width:2" d="M965,413 l-3,0 2,-7 0,0 1,7z" />
<path style="fill:#bfbfff" d="M492,28 l359,0 15,11 -359,0 -15,-11z" />
<path style="fill:#bfbfff" d="M87,28 l359,0 15,11 -359,0 -15,-11z" />
<path style="fill:none;stroke:#000;stroke-width:2" d="M157,284 l0,-236 -4,-9 -16,-11" />
<path style="fill:none;stroke:#000;stroke-width:2" d="M187,72 l11,0 6,5 0,23 -6,6 -11,0 -5,-6 0,-23 5,-5" />
<path style="fill:none;stroke:#000;stroke-width:2" d="M389,72 l10,0 6,5 0,23 -6,6 -10,0 -6,-6 0,-23 6,-5" />
<path style="fill:none;stroke:#000;stroke-width:2" d="M431,284 l0,-236 -4,-9 -16,-11" />
<path style="fill:none;stroke:#000;stroke-width:2" d="M562,284 l0,-236 -4,-9 -15,-11" />
<path style="fill:none;stroke:#000;stroke-width:2" d="M592,72 l11,0 6,5 0,23 -6,6 -11,0 -5,-6 0,-23 5,-5" />
<path style="fill:none;stroke:#000;stroke-width:2" d="M794,72 l11,0 5,5 0,23 -5,6 -11,0 -6,-6 0,-23 6,-5" />
<path style="fill:none;stroke:#000;stroke-width:2" d="M836,284 l0,-236 -4,-9 -16,-11" />
<path style="fill:#0000bf" d="M910,371 l-42,0 0,11 42,0 0,-11z" />
<path style="fill:#0000bf" d="M898,371 l-18,0 0,-29 18,0 0,29z" />
<path style="fill:#0000bf" d="M898,342 l-19,0 0,-3 -1,-3 -1,-2 -2,-2 -3,-2 -2,-1 -3,-1 -4,-1 1,-17 7,1 6,2 6,3 5,3 4,5 3,6 2,5 1,7z" />
<path style="fill:#0000bf" d="M62,310 l801,0 0,18 -801,0 0,-18z" />
<path style="fill:#0000bf" d="M28,342 l18,0 1,-3 1,-3 1,-2 2,-2 3,-2 2,-1 3,-1 4,-1 -1,-17 -7,1 -6,2 -6,3 -5,3 -4,5 -4,6 -2,5 0,7z" />
<path style="fill:#0000bf" d="M46,372 l-18,0 0,-30 18,0 0,30z" />
<path style="fill:#0000bf" d="M28,371 l18,0 1,3 1,3 1,2 2,3 3,1 2,2 3,1 4,0 -1,17 -7,-1 -6,-2 -6,-2 -5,-4 -4,-5 -4,-5 -2,-6 0,-7z" />
<path style="fill:#0000bf" d="M84,386 l0,17 -22,0 0,-17 22,0z" />
<path style="fill:#00f" d="M896,371 l-23,0 0,11 23,0 0,-11z" />
<path style="fill:#00f" d="M892,371 l-10,0 0,-29 10,0 0,29z" />
<path style="fill:#00f" d="M62,313 l801,0 0,9 -801,0 0,-9z" />
<path style="fill:#00f" d="M40,372 l-10,0 0,-30 10,0 0,30z" />
<path style="fill:#00f" d="M84,388 l0,9 -22,0 0,-9 22,0z" />
<path style="fill:#bfbfff" d="M879,371 l-4,0 0,11 4,0 0,-11z" />
<path style="fill:#bfbfff" d="M884,371 l-1,0 0,-29 1,0 0,29z" />
<path style="fill:#bfbfff" d="M884,342 l-1,0 0,-6 -1,-5 -1,-4 -2,-4 -2,-4 -4,-2 -4,-2 -6,-1 1,0 6,0 4,2 4,2 2,4 2,4 1,5 1,5 0,6z" />
<path style="fill:#bfbfff" d="M84,388 l0,2 -22,0 0,-2 22,0z" />
<path style="fill:#bfbfff" d="M31,372 l1,0 1,5 2,4 3,3 3,2 5,1 5,1 5,1 6,0 0,1 -6,0 -6,0 -5,-1 -5,-2 -3,-2 -3,-4 -2,-4 -1,-5z" />
<path style="fill:#bfbfff" d="M62,313 l800,0 0,2 -800,0 0,-2z" />
<path style="fill:#bfbfff" d="M31,342 l1,0 1,-6 2,-5 3,-4 3,-4 5,-4 5,-2 5,-2 6,0 0,-1 -6,0 -6,2 -5,2 -5,4 -3,4 -3,4 -2,6 -1,6z" />
<path style="fill:#bfbfff" d="M33,372 l-2,0 0,-30 2,0 0,30z" />
<path style="fill:#00f;stroke:#000;stroke-width:2" d="M511,285 l-22,-15 -24,0 0,15 -359,0 -20,-14 0,12 18,15 97,0 0,204 -47,-1 14,34 45,0 0,-237 576,0 0,202 -17,0 17,35 46,0 0,-17 -33,-17 0,-203 68,0 0,-13 -359,0z" />

</svg>
