 

<svg xmlns:agg="http://www.example.com" xmlns="http://www.w3.org/2000/svg" preserveAspectRatio="none" width="0.7619in" height="1.0750in" viewBox="0 0 708 999">

<path style="fill:#f2f2e5" d="M58,965 l-10,-407 489,0 0,407 -479,0z" />
<path style="fill:#eaeadd" d="M58,965 l-5,-163 484,-207 0,364 -479,6z" />
<path style="fill:#e0e0d3" d="M58,965 l0,-112 479,-206 0,318 -479,0z" />
<path style="fill:#d8d8cb" d="M58,965 l0,-71 479,-209 0,280 -479,0z" />
<path style="fill:#900" d="M51,649 l-1,-51 487,0 0,52 -486,-1z" />
<path style="fill:#f00" d="M52,700 l-2,-51 487,1 0,50 -485,0z" />
<path style="fill:#fc0" d="M53,751 l0,-51 484,0 0,51 -484,0z" />
<path style="fill:#f7f7f0;stroke:#000;stroke-width:2" d="M48,537 l10,-367 469,0 10,367 -489,0z" />
<path style="fill:#e5e5cc;stroke:#000;stroke-width:2" d="M537,965 l0,-438 -10,-357 123,-61 10,367 0,428 -123,61z" />
<path style="fill:#e5e5cc;stroke:#000;stroke-width:2" d="M568,68 l0,-40 -82,40 0,41 82,-41z" />
<path style="fill:#f7f7f0;stroke:#000;stroke-width:2" d="M28,537 l0,21 530,0 0,-21 -530,0z" />
<path style="fill:#e5e5cc;stroke:#000;stroke-width:2" d="M680,476 l0,21 -122,61 0,-21 122,-61z" />
<path style="fill:#f7f7f0;stroke:#000;stroke-width:2" d="M28,537 l20,-10 499,0 113,-51 20,0 -122,61 -530,0z" />
<path style="fill:#3f3f4c" d="M109,904 l0,-122 367,0 0,121 -367,1z" />
<path style="fill:none;stroke:#000;stroke-width:2" d="M150,899 l0,-112" />
<path style="fill:none;stroke:#000;stroke-width:2" d="M191,899 l0,-112" />
<path style="fill:none;stroke:#000;stroke-width:2" d="M232,899 l0,-112" />
<path style="fill:none;stroke:#000;stroke-width:2" d="M272,899 l0,-112" />
<path style="fill:none;stroke:#000;stroke-width:2" d="M313,899 l0,-112" />
<path style="fill:none;stroke:#000;stroke-width:2" d="M354,899 l0,-112" />
<path style="fill:none;stroke:#000;stroke-width:2" d="M395,899 l0,-112" />
<path style="fill:none;stroke:#000;stroke-width:2" d="M436,899 l0,-112" />
<path style="fill:#600" d="M537,649 l0,-51 123,-61 0,51 -123,61z" />
<path style="fill:#c00" d="M537,700 l0,-51 123,-61 0,51 -123,61z" />
<path style="fill:#c90" d="M537,752 l0,-52 123,-61 0,51 -123,62z" />
<path style="fill:#262633" d="M558,904 l0,-122 92,-47 0,121 -92,48z" />
<path style="fill:none;stroke:#000;stroke-width:2" d="M58,965 l-10,-407 489,0 0,407 -479,0" />
<path style="fill:#f2f2e5" d="M160,354 l245,0 0,122 -245,0 0,-122z" />
<path style="fill:#f7f7f0" d="M181,374 l203,0 0,82 -203,0 0,-82z" />
<path style="fill:none;stroke:#98987f;stroke-width:2" d="M160,476 l245,0 0,-122" />
<path style="fill:none;stroke:#98987f;stroke-width:2" d="M384,374 l-203,0 0,81" />
<ellipse style="fill:#000" cx="282" cy="414" rx="66" ry="24" />
<path style="fill:#4c4c4c" d="M415,252 l6,-15 14,-6 15,6 6,15 -6,14 -15,6 -14,-6 -6,-14z" />
<path style="fill:#4c4c4c" d="M130,252 l6,-15 14,-6 15,6 5,15 -5,14 -15,6 -14,-6 -6,-14z" />
<path style="fill:#ccc" d="M425,252 l3,-8 8,-2 7,2 3,8 -3,7 -7,3 -8,-3 -3,-7z" />
<path style="fill:#ccc" d="M140,252 l3,-8 7,-2 7,2 3,8 -3,7 -7,3 -7,-3 -3,-7z" />
<path style="fill:#ccccbf;stroke:#000;stroke-width:2" d="M537,909 l0,61 -40,0 0,-10 10,0 0,-51 30,0z" />
<path style="fill:#ccccbf;stroke:#000;stroke-width:2" d="M89,909 l0,61 -41,0 0,-10 10,0 0,-51 31,0z" />
<path style="fill:none;stroke:#000;stroke-width:2" d="M58,960 l31,0" />
<path style="fill:none;stroke:#000;stroke-width:2" d="M507,960 l30,0" />
<path style="fill:#f2f2e5;stroke:#000;stroke-width:2" d="M150,109 l0,-41 336,0 0,41 -336,0z" />
<path style="fill:#f2f2e5;stroke:#000;stroke-width:2" d="M650,109 l-82,-41 -82,41 41,61 123,-61z" />
<path style="fill:#fcfcfa;stroke:#000;stroke-width:2" d="M232,28 l-82,40 336,0 82,-40 -336,0z" />
<path style="fill:#fcfcfa;stroke:#000;stroke-width:2" d="M58,170 l92,-61 336,0 41,61 -469,0z" />

</svg>
