 
<svg version="1.1" id="图层_1" xmlns:agg="http://www.example.com"
	 xmlns="http://www.w3.org/2000/svg" xmlns:xlink="http://www.w3.org/1999/xlink" x="0px" y="0px" width="64px" height="64px"
	 viewBox="0 0 64 64" enable-background="new 0 0 64 64" xml:space="preserve">
<g>
	<polygon fill="none" stroke="#040000" stroke-width="2" stroke-linecap="round" stroke-miterlimit="10" points="44.866,23.413 
		44.786,21.888 44.505,20.364 44.023,18.878 43.381,17.434 42.578,16.11 41.615,14.906 40.531,13.783 39.326,12.86 37.962,12.017 
		36.557,11.415 35.07,10.934 33.546,10.653 32.02,10.573 30.454,10.653 28.929,10.934 27.443,11.415 26.038,12.017 24.715,12.86 
		23.47,13.783 22.385,14.906 21.422,16.11 20.619,17.434 19.978,18.878 19.535,20.364 19.254,21.888 19.134,23.413 19.254,24.978 
		19.535,26.502 19.978,27.988 20.619,29.392 21.422,30.715 22.385,31.959 23.47,33.043 24.715,34.006 26.038,34.809 27.443,35.451 
		28.929,35.932 30.454,36.213 32.02,36.293 33.546,36.213 35.07,35.932 36.557,35.451 37.962,34.809 39.326,34.006 40.531,33.043 
		41.615,31.959 42.578,30.715 43.381,29.392 44.023,27.988 44.505,26.502 44.786,24.978 	"/>
	<polygon fill="none" stroke="#040000" stroke-width="2" stroke-linecap="round" stroke-miterlimit="10" points="44.866,40.586 
		44.786,39.021 44.505,37.498 44.023,36.012 43.381,34.607 42.578,33.283 41.615,32.04 40.531,30.957 39.326,29.994 37.962,29.19 
		36.557,28.548 35.07,28.067 33.546,27.787 32.02,27.707 30.454,27.787 28.929,28.067 27.443,28.548 26.038,29.19 24.715,29.994 
		23.47,30.957 22.385,32.04 21.422,33.283 20.619,34.607 19.978,36.012 19.535,37.498 19.254,39.021 19.134,40.586 19.254,42.111 
		19.535,43.637 19.978,45.121 20.619,46.564 21.422,47.889 22.385,49.094 23.47,50.217 24.715,51.141 26.038,51.982 27.443,52.584 
		28.929,53.066 30.454,53.348 32.02,53.428 33.546,53.348 35.07,53.066 36.557,52.584 37.962,51.982 39.326,51.141 40.531,50.217 
		41.615,49.094 42.578,47.889 43.381,46.564 44.023,45.121 44.505,43.637 44.786,42.111 	"/>
	
		<line fill="none" stroke="#040000" stroke-width="2" stroke-linecap="round" stroke-miterlimit="10" x1="32.02" y1="53.428" x2="32.02" y2="62.014"/>
	
		<line fill="none" stroke="#040000" stroke-width="2" stroke-linecap="round" stroke-miterlimit="10" x1="32.02" y1="1.986" x2="32.02" y2="10.573"/>
</g>
</svg>
