 

<svg xmlns:agg="http://www.example.com" xmlns="http://www.w3.org/2000/svg" preserveAspectRatio="none" width="0.7360in" height="1.0750in" viewBox="0 0 684 999">

<path style="fill:#ffd9b2;stroke:#000;stroke-width:2" d="M578,106 l-11,-23 -24,-18 -27,-11 -24,-8 -28,-7 -31,-5 -32,-4 -35,-2 -12,0 -12,0 -36,1 -34,2 -32,5 -30,5 -26,7 -31,11 -23,13 -21,22 -2,8 -1,4 0,864 472,0 0,-864z" />
<path style="fill:#f00" d="M538,813 l0,118 -392,0 0,-39 -118,0 0,-79 510,0z" />
<path style="fill:#ff0" d="M538,132 l-15,-25 -30,-16 -26,-9 -32,-7 -35,-5 -38,-3 -20,0 -40,1 -36,4 -34,6 -29,8 -24,10 -25,17 -8,19 0,14 392,0 0,-14z" />
<path style="fill:#ff7f00" d="M656,656 l-118,0 0,78 118,0 0,-78z" />
<path style="fill:#ff6100" d="M146,735 l392,0 0,78 -392,0 0,-78z" />
<path style="fill:#ff7f00" d="M146,656 l392,0 0,79 -392,0 0,-79z" />
<path style="fill:#ff9100" d="M146,583 l74,0 12,0 12,0 209,0 37,0 49,0 0,15 0,4 0,5 0,35 0,15 0,5 -13,0 -61,0 -37,-1 -196,0 -37,1 -37,0 -12,0 0,-5 0,-30 0,-29 0,-15z" />
<path style="fill:#ffa300" d="M146,510 l74,0 12,0 12,0 209,0 37,0 49,0 0,15 0,4 0,5 0,35 0,15 0,5 -13,0 -61,0 -37,0 -196,0 -37,0 -37,0 -12,0 0,-5 0,-30 0,-29 0,-15z" />
<path style="fill:#ffb500" d="M146,437 l74,0 12,0 12,0 209,0 37,0 49,0 0,15 0,5 0,5 0,34 0,15 0,5 -13,0 -61,0 -37,0 -196,0 -37,0 -37,0 -12,0 0,-5 0,-30 0,-29 0,-15z" />
<path style="fill:#ffc900" d="M146,364 l74,0 12,0 12,0 209,0 37,0 49,0 0,15 0,4 0,5 0,35 0,15 0,5 -13,0 -61,0 -37,-1 -196,0 -37,1 -37,0 -12,0 0,-5 0,-30 0,-29 0,-15z" />
<path style="fill:#ffdb00" d="M146,291 l74,0 12,0 12,0 209,0 37,0 49,0 0,15 0,5 0,5 0,34 0,15 0,5 -13,0 -61,0 -37,0 -196,0 -37,0 -37,0 -12,0 0,-5 0,-30 0,-29 0,-15z" />
<path style="fill:#ffed00" d="M146,218 l74,0 12,0 12,0 209,0 37,0 49,0 0,15 0,5 0,5 0,34 0,15 0,5 -13,0 -61,0 -37,0 -196,0 -37,0 -37,0 -12,0 0,-5 0,-30 0,-29 0,-15z" />
<path style="fill:#ff0" d="M146,146 l392,0 0,78 -392,0 0,-78z" />
<path style="fill:none;stroke:#000;stroke-width:2" d="M28,892 l118,0 0,39 392,0 0,-196 118,0" />
<path style="fill:none;stroke:#000;stroke-width:2" d="M656,656 l-118,0 0,-524 -15,-25 -30,-16 -26,-9 -32,-7 -35,-5 -38,-3 -20,0 -40,1 -36,4 -34,6 -29,8 -24,10 -25,17 -8,19 0,681 -118,0" />
<path style="fill:none;stroke:#000;stroke-width:2" d="M146,774 l30,0 0,-609 60,0 0,609 30,0 0,-609 61,0 0,609 30,0 0,-609 61,0 0,609 29,0 0,-609 61,0 0,609 30,0" />

</svg>
