 

<svg xmlns:agg="http://www.example.com" xmlns="http://www.w3.org/2000/svg" preserveAspectRatio="none" width="1.6083in" height="0.6247in" viewBox="0 0 999 388">

<path style="fill:#4c4c4c;stroke:#000;stroke-width:2" d="M365,163 l9,-103 570,0 -9,103 -570,0z" />
<path style="fill:#ccc;stroke:#000;stroke-width:2" d="M365,84 l579,0 0,21 -579,0 0,-21z" />
<path style="fill:#000" d="M116,199 l-54,0 -21,-13 -13,-21 0,-26 13,-21 21,-13 54,0 0,94z" />
<path style="fill:#ccc" d="M116,28 l249,0 0,248 -249,0 0,-248z" />
<path style="fill:#c7c7c7" d="M116,205 l249,-104 0,175 -249,0 0,-71z" />
<path style="fill:#c2c2c2" d="M116,214 l249,-103 0,165 -249,0 0,-62z" />
<path style="fill:#bdbdbd" d="M116,231 l249,-105 0,150 -249,0 0,-45z" />
<path style="fill:none;stroke:#000;stroke-width:2" d="M116,28 l249,0 0,248 -249,0 0,-248" />
<path style="fill:none;stroke:#000;stroke-width:2" d="M137,69 l28,0" />
<path style="fill:none;stroke:#000;stroke-width:2" d="M195,69 l30,0" />
<path style="fill:none;stroke:#000;stroke-width:2" d="M256,69 l28,0" />
<path style="fill:none;stroke:#000;stroke-width:2" d="M314,69 l30,0" />
<path style="fill:none;stroke:#000;stroke-width:2" d="M137,90 l28,0" />
<path style="fill:none;stroke:#000;stroke-width:2" d="M195,90 l30,0" />
<path style="fill:none;stroke:#000;stroke-width:2" d="M256,90 l28,0" />
<path style="fill:none;stroke:#000;stroke-width:2" d="M314,90 l30,0" />
<path style="fill:none;stroke:#000;stroke-width:2" d="M137,214 l28,0" />
<path style="fill:none;stroke:#000;stroke-width:2" d="M195,214 l30,0" />
<path style="fill:none;stroke:#000;stroke-width:2" d="M256,214 l28,0" />
<path style="fill:none;stroke:#000;stroke-width:2" d="M314,214 l30,0" />
<path style="fill:none;stroke:#000;stroke-width:2" d="M137,235 l28,0" />
<path style="fill:none;stroke:#000;stroke-width:2" d="M195,235 l30,0" />
<path style="fill:none;stroke:#000;stroke-width:2" d="M256,235 l28,0" />
<path style="fill:none;stroke:#000;stroke-width:2" d="M314,235 l30,0" />
<ellipse style="fill:#7f7f7f" cx="241" cy="131" rx="62" ry="20" />
<circle style="fill:#4c4c4c" cx="74" cy="152" r="41" />
<path style="fill:#ccc" d="M107,179 l-8,7 -15,-2 -17,-9 -15,-15 -9,-19 -2,-13 7,-8 15,0 17,9 17,18 10,16 0,16z" />
<path style="fill:#000" d="M52,137 l4,-4 7,8 -3,4 -8,-8z" />
<path style="fill:#000" d="M67,152 l4,-4 7,8 -3,4 -8,-8z" />
<path style="fill:#000" d="M82,167 l4,-4 8,8 -4,4 -8,-8z" />
<path style="fill:#000" d="M60,129 l3,-3 8,7 -4,4 -7,-8z" />
<path style="fill:#000" d="M75,145 l3,-4 8,7 -4,4 -7,-7z" />
<path style="fill:#000" d="M90,160 l4,-4 7,7 -4,4 -7,-7z" />
<circle style="fill:none;stroke:#000;stroke-width:2" cx="74" cy="152" r="41" />
<path style="fill:#7f7f7f" d="M401,173 l-27,-113 570,0 26,113 -569,0z" />
<path style="fill:#8c8c8c" d="M388,116 l-14,-56 570,0 13,56 -569,0z" />
<path style="fill:#999" d="M382,88 l-8,-28 570,0 8,28 -570,0z" />
<path style="fill:none;stroke:#000;stroke-width:2" d="M401,173 l-27,-113 570,0 26,113 -569,0" />
<path style="fill:#666;stroke:#000;stroke-width:2" d="M137,276 l21,0 0,84 -21,0 0,-84z" />
<path style="fill:none;stroke:#ccc;stroke-width:2" d="M147,276 l0,84" />

</svg>
