 

<svg xmlns:agg="http://www.example.com" xmlns="http://www.w3.org/2000/svg" preserveAspectRatio="none" width="0.7231in" height="1.0750in" viewBox="0 0 672 999">

<path style="fill:#ccc;stroke:#000;stroke-width:2" d="M82,729 l21,0 0,241 -21,0 0,-241z" />
<path style="fill:#ccc;stroke:#000;stroke-width:2" d="M484,729 l19,0 0,241 -19,0 0,-241z" />
<path style="fill:#9c9;stroke:#000;stroke-width:2" d="M604,67 l-120,0 0,21 -381,60 -21,21 0,515 -24,26 -30,10 0,54 15,0 0,-43 19,-6 20,-20 0,45 61,139 20,0 61,-139 58,139 21,0 60,-139 61,139 20,0 59,-139 0,-100 -19,-21 0,-181 40,21 0,121 39,60 41,-60 0,-523z" />
<path style="fill:#030;stroke:#000;stroke-width:2" d="M92,710 l381,-60 0,-362 120,0 0,-210 -100,0 0,19 -386,61 -15,15 0,537z" />
<circle style="fill:#fff" cx="599" cy="73" r="45" />
<path style="fill:#98b2e5" d="M608,118 l-18,0 -17,-7 -12,-12 -7,-17 0,-18 90,0 0,18 -8,17 -11,12 -17,7z" />
<circle style="fill:none;stroke:#000;stroke-width:2" cx="599" cy="73" r="45" />
<path style="fill:#699" d="M103,169 l10,0 0,551 -10,0 0,-551z" />
<path style="fill:#699" d="M122,165 l11,0 0,555 -11,0 0,-555z" />
<path style="fill:#699" d="M143,162 l9,0 0,558 -9,0 0,-558z" />
<path style="fill:#699" d="M163,160 l10,0 0,560 -10,0 0,-560z" />
<path style="fill:#699" d="M182,156 l12,0 0,564 -12,0 0,-564z" />
<path style="fill:#699" d="M203,154 l9,0 0,566 -9,0 0,-566z" />
<path style="fill:#699" d="M224,326 l9,0 0,394 -9,0 0,-394z" />
<path style="fill:#699" d="M243,358 l11,0 0,362 -11,0 0,-362z" />
<path style="fill:#699" d="M264,363 l9,0 0,357 -9,0 0,-357z" />
<path style="fill:#699" d="M284,369 l9,0 0,351 -9,0 0,-351z" />
<path style="fill:#699" d="M303,373 l10,0 0,347 -10,0 0,-347z" />
<path style="fill:#699" d="M324,378 l9,0 0,342 -9,0 0,-342z" />
<path style="fill:#699" d="M342,382 l12,0 0,338 -12,0 0,-338z" />
<path style="fill:#699" d="M363,388 l10,0 0,332 -10,0 0,-332z" />
<path style="fill:#699" d="M384,391 l10,0 0,329 -10,0 0,-329z" />
<path style="fill:#699" d="M403,395 l11,0 0,325 -11,0 0,-325z" />
<path style="fill:#699" d="M424,401 l9,0 0,319 -9,0 0,-319z" />
<path style="fill:#699" d="M444,405 l10,0 0,315 -10,0 0,-315z" />
<path style="fill:#699" d="M463,408 l10,0 0,312 -10,0 0,-312z" />
<path style="fill:#366;stroke:#000;stroke-width:2" d="M501,109 l83,36 0,64 -81,9 -260,100 0,30 230,51 0,-11 -219,-47 0,-15 252,-98 87,-12 0,-77 -90,-42 -2,12z" />
<path style="fill:#000" d="M52,729 l30,0 0,72 -30,0 0,-72z" />
<path style="fill:#960" d="M243,107 l11,0 0,198 -11,0 0,-198z" />
<path style="fill:#960" d="M264,145 l9,0 0,152 -9,0 0,-152z" />
<path style="fill:#960" d="M284,141 l9,0 0,149 -9,0 0,-149z" />
<path style="fill:#960" d="M303,97 l10,0 0,185 -10,0 0,-185z" />
<path style="fill:#960" d="M342,131 l12,0 0,134 -12,0 0,-134z" />
<path style="fill:#960" d="M363,130 l10,0 0,128 -10,0 0,-128z" />
<path style="fill:#960" d="M384,86 l10,0 0,164 -10,0 0,-164z" />
<path style="fill:#960" d="M403,82 l11,0 0,161 -11,0 0,-161z" />
<path style="fill:#960" d="M424,120 l9,0 0,115 -9,0 0,-115z" />
<path style="fill:#98b2e5;stroke:#000;stroke-width:2" d="M493,109 l10,0 0,-12 -10,0 0,12z" />
<path style="fill:#333" d="M473,388 l131,0 0,6 -131,0 0,-6z" />
<path style="fill:#333" d="M473,344 l131,0 0,4 -131,0 0,-4z" />
<path style="fill:#e5e5e5;stroke:#000;stroke-width:2" d="M243,109 l11,0 0,-12 -11,0 0,12z" />
<path style="fill:#e5e5e5;stroke:#000;stroke-width:2" d="M303,97 l10,0 0,-9 -10,0 0,9z" />
<path style="fill:#e5e5e5;stroke:#000;stroke-width:2" d="M382,88 l12,0 0,-10 -12,0 0,10z" />
<path style="fill:#e5e5e5;stroke:#000;stroke-width:2" d="M403,82 l11,0 0,-9 -11,0 0,9z" />
<path style="fill:#7f0000" d="M97,710 l372,0 0,-172 -21,46 -19,-79 -5,9 -25,-30 -21,40 -24,-15 -15,45 -12,-49 -18,15 -21,39 -19,-45 -11,24 -10,-29 -9,26 -11,45 -10,-60 -9,24 -21,-55 -9,76 -12,34 -15,-79 -19,34 -15,-16 -21,57 0,115z" />
<path style="fill:#8c0000" d="M97,708 l372,0 0,-158 -21,0 -19,-32 -5,4 -27,-25 -19,34 -24,-11 -15,39 -10,-41 -20,11 -21,-9 -19,4 -9,26 -12,-28 -11,22 -9,10 -10,-25 -9,26 -19,-52 -11,51 -12,5 -15,-24 -19,30 -15,-15 -21,54 0,104z" />
<path style="fill:#900" d="M97,708 l372,0 0,-149 -21,32 -19,-62 -7,-2 -25,-17 -19,28 -24,-7 -15,34 -10,-36 -19,9 -20,36 -21,-41 -9,28 -12,-28 -11,22 -9,42 -10,-59 -9,29 -19,-51 -11,68 -14,30 -15,-64 -19,24 -13,-13 -21,53 0,94z" />
<path style="fill:#a60000" d="M97,708 l372,0 0,-139 -21,26 -19,-53 -7,-7 -25,-11 -21,20 -22,-2 -15,29 -10,-29 -16,8 -21,34 -23,-42 -9,31 -12,-27 -11,19 -9,42 -10,-57 -9,26 -17,-47 -13,66 -16,27 -15,-57 -17,21 -13,-13 -21,52 0,83z" />
<path style="fill:#b21900" d="M97,708 l372,0 0,-128 -21,19 -19,-44 -9,-13 -23,-4 -21,14 -22,3 -15,21 -10,-21 -16,4 -21,32 -21,-39 -11,32 -12,-25 -11,17 -11,40 -8,-57 -9,28 -17,-45 -13,62 -17,25 -16,-47 -15,13 -13,-9 -21,49 0,73z" />
<path style="fill:#bf3f00" d="M97,708 l372,0 0,-118 -21,11 -19,-32 -11,-19 -42,9 -22,8 -15,15 -10,-13 -15,0 -21,30 -22,-38 -10,32 -13,-22 -13,15 -9,37 -8,-54 -9,30 -15,-44 -15,59 -19,22 -15,-39 -14,10 -13,-10 -21,47 0,64z" />
<path style="fill:#c60" d="M97,708 l372,0 0,-109 -21,5 -19,-22 -11,-27 -23,10 -19,0 -22,13 -15,9 -25,-9 -21,29 -22,-36 -10,33 -13,-20 -13,13 -9,36 -8,-55 -9,32 -15,-39 -15,52 -19,21 -15,-32 -15,6 -12,-10 -21,46 0,54z" />
<path style="fill:#d98c00" d="M97,708 l372,0 0,-100 -21,0 -19,-13 -13,-32 -21,15 -20,-5 -21,17 -25,5 -13,-5 -21,26 -24,-36 -10,36 -13,-19 -13,11 -9,34 -8,-52 -9,32 -14,-38 -16,51 -21,17 -15,-25 -13,0 -12,-7 -21,45 0,43z" />
<path style="fill:#e5b200" d="M97,708 l372,0 0,-88 -40,-12 -13,-37 -21,20 -20,-11 -21,21 -15,-2 -10,9 -13,-9 -19,24 -24,-33 -12,37 -13,-19 -13,10 -11,34 -6,-53 -9,34 -14,-36 -16,47 -23,15 -15,-17 -23,-11 -21,43 0,34z" />
<path style="fill:#f2d800" d="M97,708 l372,0 0,-79 -21,-13 -19,6 -15,-46 -20,31 -19,-20 -21,25 -15,-9 -10,19 -11,-14 -21,23 -24,-32 -9,40 -16,-17 -15,7 -9,32 -6,-53 -9,36 -12,-34 -18,44 -25,13 -15,-8 -9,-11 -12,-6 -21,42 0,24z" />
<path style="fill:#ff0" d="M97,710 l372,0 0,-70 -21,-20 -19,15 -15,-51 -20,36 -21,-25 -19,30 -15,-15 -12,25 -9,-15 -21,20 -24,-30 -9,40 -16,-15 -15,5 -9,31 -6,-51 -9,36 -12,-31 -18,40 -27,9 -15,0 -10,-15 -9,-3 -21,39 0,15z" />
<path style="fill:#7f0000" d="M97,714 l0,-15 372,-59 0,74 -372,0z" />
<path style="fill:#007f00;stroke:#000;stroke-width:2" d="M82,710 l411,-70 10,10 0,79 -421,0 0,-19z" />

</svg>
