 

<svg xmlns:agg="http://www.example.com" xmlns="http://www.w3.org/2000/svg" preserveAspectRatio="none" width="1.1598in" height="1.0750in" viewBox="0 0 998 925">

<path style="fill:#7f7f7f;stroke:#000;stroke-width:2" d="M69,752 l75,0 0,107 -75,0 0,-107z" />
<path style="fill:#7f7f7f;stroke:#000;stroke-width:2" d="M523,752 l74,0 0,107 -74,0 0,-107z" />
<path style="fill:#ccc" d="M533,763 l55,0 0,85 -55,0 0,-85z" />
<path style="fill:#ccc" d="M80,763 l53,0 0,85 -53,0 0,-85z" />
<path style="fill:#9c9;stroke:#000;stroke-width:2" d="M544,795 l327,0 0,-298 15,0 0,315 -342,0 0,-17z" />
<path style="fill:#696;stroke:#000;stroke-width:2" d="M427,156 l383,0 87,254 0,87 -87,255 -383,0 0,-596z" />
<path style="fill:#bfb299;stroke:#000;stroke-width:2" d="M427,625 l342,0 64,-128 0,-85 -64,-128 -342,0 0,341z" />
<path style="fill:#363;stroke:#000;stroke-width:2" d="M427,625 l342,0 64,-128 0,-85 -64,-128 -342,0 0,128 21,0 43,-87 257,0 62,87 0,85 -62,85 -257,0 -43,-85 -21,0 0,128z" />
<path style="fill:none;stroke:#000;stroke-width:2" d="M491,582 l0,-257" />
<path style="fill:none;stroke:#000;stroke-width:2" d="M448,497 l0,-85" />
<path style="fill:none;stroke:#000;stroke-width:2" d="M748,582 l0,-257" />
<path style="fill:#7f7f7f;stroke:#000;stroke-width:2" d="M427,220 l0,-64 21,0 0,-129 108,0 0,21 20,0 0,44 -20,0 0,64 64,0 0,64 -193,0z" />
<path style="fill:#998c73;stroke:#000;stroke-width:2" d="M833,497 l21,-22 43,0 0,-42 -43,0 -21,-21 0,85z" />
<path style="fill:#bfb299;stroke:#000;stroke-width:2" d="M43,156 l384,0 0,596 -384,0 0,-596z" />
<path style="fill:#f2e5cc;stroke:#000;stroke-width:2" d="M129,197 l298,0 0,513 -298,0 0,-513z" />
<path style="fill:#bfb299;stroke:#000;stroke-width:2" d="M129,197 l42,0 0,108 -42,0 0,-108z" />
<path style="fill:#bfb299;stroke:#000;stroke-width:2" d="M43,197 l86,0 0,513 -86,0 0,-513z" />
<path style="fill:#bfb299;stroke:#000;stroke-width:2" d="M129,603 l42,0 0,107 -42,0 0,-107z" />
<path style="fill:none;stroke:#000;stroke-width:2" d="M43,165 l384,0" />
<path style="fill:none;stroke:#000;stroke-width:2" d="M43,176 l384,0" />
<path style="fill:none;stroke:#000;stroke-width:2" d="M43,731 l384,0" />
<path style="fill:none;stroke:#000;stroke-width:2" d="M43,741 l384,0" />
<path style="fill:#ccc;stroke:#000;stroke-width:2" d="M43,92 l54,0 0,32 -54,0 0,-32z" />
<path style="fill:#ccc;stroke:#000;stroke-width:2" d="M75,124 l22,0 0,32 -22,0 0,-32z" />
<path style="fill:#ccc;stroke:#000;stroke-width:2" d="M43,124 l11,0 0,32 -11,0 0,-32z" />
<path style="fill:#039;stroke:#000;stroke-width:2" d="M427,774 l0,65 -213,0 0,-65 53,0 0,-86 21,0 0,86 64,0 0,-86 22,0 0,86 21,0 0,-86 21,0 0,86 11,0z" />
<path style="fill:#039" d="M182,220 l11,-12 10,12 -10,9 -11,-9z" />
<path style="fill:#039" d="M182,252 l11,-11 10,11 -10,9 -11,-9z" />
<path style="fill:#039" d="M203,235 l11,-10 10,10 -10,11 -11,-11z" />
<path style="fill:#039" d="M182,284 l11,-11 10,11 -10,9 -11,-9z" />
<path style="fill:#039" d="M203,267 l11,-10 10,10 -10,11 -11,-11z" />
<path style="fill:#039" d="M224,220 l11,-12 11,12 -11,9 -11,-9z" />
<path style="fill:#039" d="M224,252 l11,-11 11,11 -11,9 -11,-9z" />
<path style="fill:#039" d="M246,235 l10,-10 11,10 -11,11 -10,-11z" />
<path style="fill:#039" d="M224,284 l11,-11 11,11 -11,9 -11,-9z" />
<path style="fill:#039" d="M246,267 l10,-10 11,10 -11,11 -10,-11z" />
<path style="fill:#039" d="M267,220 l11,-12 10,12 -10,9 -11,-9z" />
<path style="fill:#039" d="M267,252 l11,-11 10,11 -10,9 -11,-9z" />
<path style="fill:#039" d="M288,235 l11,-10 11,10 -11,11 -11,-11z" />
<path style="fill:#039" d="M267,284 l11,-11 10,11 -10,9 -11,-9z" />
<path style="fill:#039" d="M288,267 l11,-10 11,10 -11,11 -11,-11z" />
<path style="fill:#039" d="M310,220 l10,-12 11,12 -11,9 -10,-9z" />
<path style="fill:#039" d="M310,252 l10,-11 11,11 -11,9 -10,-9z" />
<path style="fill:#039" d="M331,235 l11,-10 10,10 -10,11 -11,-11z" />
<path style="fill:#039" d="M310,284 l10,-11 11,11 -11,9 -10,-9z" />
<path style="fill:#039" d="M331,267 l11,-10 10,10 -10,11 -11,-11z" />
<path style="fill:#039" d="M352,220 l11,-12 11,12 -11,9 -11,-9z" />
<path style="fill:#039" d="M352,252 l11,-11 11,11 -11,9 -11,-9z" />
<path style="fill:#039" d="M374,235 l10,-10 11,10 -11,11 -10,-11z" />
<path style="fill:#039" d="M352,284 l11,-11 11,11 -11,9 -11,-9z" />
<path style="fill:#039" d="M374,267 l10,-10 11,10 -11,11 -10,-11z" />
<path style="fill:#039" d="M395,220 l12,-12 9,12 -9,9 -12,-9z" />
<path style="fill:#039" d="M395,252 l12,-11 9,11 -9,9 -12,-9z" />
<path style="fill:#039" d="M395,284 l12,-11 9,11 -9,9 -12,-9z" />
<path style="fill:#039" d="M182,625 l11,-11 10,11 -10,10 -11,-10z" />
<path style="fill:#039" d="M182,657 l11,-11 10,11 -10,10 -11,-10z" />
<path style="fill:#039" d="M203,640 l11,-11 10,11 -10,12 -11,-12z" />
<path style="fill:#039" d="M182,689 l11,-11 10,11 -10,10 -11,-10z" />
<path style="fill:#039" d="M203,673 l11,-12 10,12 -10,11 -11,-11z" />
<path style="fill:#039" d="M224,625 l11,-11 11,11 -11,10 -11,-10z" />
<path style="fill:#039" d="M224,657 l11,-11 11,11 -11,10 -11,-10z" />
<path style="fill:#039" d="M246,640 l10,-11 11,11 -11,12 -10,-12z" />
<path style="fill:#039" d="M224,689 l11,-11 11,11 -11,10 -11,-10z" />
<path style="fill:#039" d="M246,673 l10,-12 11,12 -11,11 -10,-11z" />
<path style="fill:#039" d="M267,625 l11,-11 10,11 -10,10 -11,-10z" />
<path style="fill:#039" d="M267,657 l11,-11 10,11 -10,10 -11,-10z" />
<path style="fill:#039" d="M288,640 l11,-11 11,11 -11,12 -11,-12z" />
<path style="fill:#039" d="M267,689 l11,-11 10,11 -10,10 -11,-10z" />
<path style="fill:#039" d="M288,673 l11,-12 11,12 -11,11 -11,-11z" />
<path style="fill:#039" d="M310,625 l10,-11 11,11 -11,10 -10,-10z" />
<path style="fill:#039" d="M310,657 l10,-11 11,11 -11,10 -10,-10z" />
<path style="fill:#039" d="M331,640 l11,-11 10,11 -10,12 -11,-12z" />
<path style="fill:#039" d="M310,689 l10,-11 11,11 -11,10 -10,-10z" />
<path style="fill:#039" d="M331,673 l11,-12 10,12 -10,11 -11,-11z" />
<path style="fill:#039" d="M352,625 l11,-11 11,11 -11,10 -11,-10z" />
<path style="fill:#039" d="M352,657 l11,-11 11,11 -11,10 -11,-10z" />
<path style="fill:#039" d="M374,640 l10,-11 11,11 -11,12 -10,-12z" />
<path style="fill:#039" d="M352,689 l11,-11 11,11 -11,10 -11,-10z" />
<path style="fill:#039" d="M374,673 l10,-12 11,12 -11,11 -10,-11z" />
<path style="fill:#039" d="M395,625 l12,-11 9,11 -9,10 -12,-10z" />
<path style="fill:#039" d="M395,657 l12,-11 9,11 -9,10 -12,-10z" />
<path style="fill:#039" d="M395,689 l12,-11 9,11 -9,10 -12,-10z" />
<path style="fill:#039" d="M193,305 l21,0 0,298 -21,0 0,-298z" />
<path style="fill:#039" d="M225,305 l21,0 0,298 -21,0 0,-298z" />
<path style="fill:#039" d="M257,305 l21,0 0,298 -21,0 0,-298z" />
<path style="fill:#039" d="M288,305 l22,0 0,298 -22,0 0,-298z" />
<path style="fill:#039" d="M320,305 l22,0 0,298 -22,0 0,-298z" />
<path style="fill:#039" d="M352,305 l22,0 0,298 -22,0 0,-298z" />
<path style="fill:#039" d="M384,305 l23,0 0,298 -23,0 0,-298z" />
<path style="fill:#9c9;stroke:#000;stroke-width:2" d="M469,688 l75,0 0,145 -75,0 0,-145z" />
<path style="fill:#ccc;stroke:#000;stroke-width:2" d="M27,859 l944,0 0,38 -944,0 0,-38z" />
<path style="fill:none;stroke:#000;stroke-width:2" d="M27,886 l944,0" />

</svg>
