 

<svg xmlns:agg="http://www.example.com" xmlns="http://www.w3.org/2000/svg" preserveAspectRatio="none" width="1.6083in" height="0.5184in" viewBox="0 0 999 322">

<path style="fill:#030;stroke:#000;stroke-width:2" d="M122,61 l-9,25 111,0 0,-25 -102,0z" />
<path style="fill:#030" d="M33,273 l855,0 0,15 -855,0 0,-15z" />
<path style="fill:#696" d="M33,288 l855,0 0,5 -855,0 0,-5z" />
<path style="fill:none;stroke:#000;stroke-width:2" d="M33,273 l855,0 0,20 -855,0 0,-20" />
<path style="fill:#9c9" d="M224,37 l667,0 0,236 -667,0 0,-236z" />
<path style="fill:#96c996" d="M716,205 l175,-142 0,210 -175,0 0,-68z" />
<path style="fill:#96c996" d="M637,205 l79,-98 0,166 -79,0 0,-68z" />
<path style="fill:#96c996" d="M460,205 l177,-142 0,210 -177,0 0,-68z" />
<path style="fill:#96c996" d="M342,205 l118,-98 0,166 -118,0 0,-68z" />
<path style="fill:#96c996" d="M224,205 l118,-98 0,166 -118,0 0,-68z" />
<path style="fill:#94c794" d="M224,214 l118,-98 0,157 -118,0 0,-59z" />
<path style="fill:#94c794" d="M342,214 l118,-98 0,157 -118,0 0,-59z" />
<path style="fill:#94c794" d="M460,214 l177,-139 0,198 -177,0 0,-59z" />
<path style="fill:#94c794" d="M637,214 l79,-98 0,157 -79,0 0,-59z" />
<path style="fill:#94c794" d="M716,214 l175,-139 0,198 -175,0 0,-59z" />
<path style="fill:#91c491" d="M716,229 l175,-139 0,183 -175,0 0,-44z" />
<path style="fill:#91c491" d="M637,229 l79,-98 0,142 -79,0 0,-44z" />
<path style="fill:#91c491" d="M460,229 l177,-139 0,183 -177,0 0,-44z" />
<path style="fill:#91c491" d="M342,229 l118,-98 0,142 -118,0 0,-44z" />
<path style="fill:#91c491" d="M224,229 l118,-98 0,142 -118,0 0,-44z" />
<path style="fill:none;stroke:#cfc;stroke-width:2" d="M344,273 l0,-236" />
<path style="fill:none;stroke:#cfc;stroke-width:2" d="M718,273 l0,-236" />
<path style="fill:none;stroke:#cfc;stroke-width:2" d="M640,273 l0,-236" />
<path style="fill:none;stroke:#cfc;stroke-width:2" d="M463,273 l0,-236" />
<path style="fill:none;stroke:#363;stroke-width:2" d="M716,273 l0,-236" />
<path style="fill:none;stroke:#363;stroke-width:2" d="M637,273 l0,-236" />
<path style="fill:none;stroke:#363;stroke-width:2" d="M461,273 l0,-236" />
<path style="fill:none;stroke:#363;stroke-width:2" d="M342,273 l0,-236" />
<path style="fill:none;stroke:#000;stroke-width:2" d="M224,37 l667,0 0,236 -667,0 0,-236" />
<path style="fill:#9c9;stroke:#000;stroke-width:2" d="M28,86 l196,0 0,187 -196,0 0,-187z" />
<path style="fill:none;stroke:#000;stroke-width:2" d="M61,97 l-18,0 0,4 18,0 0,4 -18,0 0,4 18,0 0,4 -18,0 0,3 18,0 0,4 -18,0 0,4 18,0 0,3 -18,0 0,4 18,0 0,4 -18,0 0,4 18,0 0,4 -18,0 0,3 18,0 0,4 -18,0 0,4 18,0 0,4 -18,0 0,4 18,0 0,3 -18,0 0,4 18,0 0,4 -18,0 0,3 18,0 0,4 -18,0 0,4 18,0 0,4 -18,0 0,4 18,0 0,3 -18,0 0,4 18,0 0,4 -18,0 0,4 18,0 0,4 -18,0 0,3 18,0 0,4 -18,0 0,4 18,0 0,4 -18,0 0,3 18,0 0,4 -18,0 0,4 18,0 0,4 -18,0 0,3 18,0 0,4 -18,0 0,4 18,0 0,4 -18,0 0,4 18,0 0,3 -18,0" />
<path style="fill:none;stroke:#000;stroke-width:2" d="M92,97 l-19,0 0,4 19,0 0,4 -19,0 0,4 19,0 0,4 -19,0 0,3 19,0 0,4 -19,0 0,4 19,0 0,3 -19,0 0,4 19,0 0,4 -19,0 0,4 19,0 0,4 -19,0 0,3 19,0 0,4 -19,0 0,4 19,0 0,4 -19,0 0,4 19,0 0,3 -19,0 0,4 19,0 0,4 -19,0 0,3 19,0 0,4 -19,0 0,4 19,0 0,4 -19,0 0,4 19,0 0,3 -19,0 0,4 19,0 0,4 -19,0 0,4 19,0 0,4 -19,0 0,3 19,0 0,4 -19,0 0,4 19,0 0,4 -19,0 0,3 19,0 0,4 -19,0 0,4 19,0 0,4 -19,0 0,3 19,0 0,4 -19,0 0,4 19,0 0,4 -19,0 0,4 19,0 0,3 -19,0" />
<path style="fill:none;stroke:#000;stroke-width:2" d="M122,97 l-21,0 0,4 21,0 0,4 -21,0 0,4 21,0 0,4 -21,0 0,3 21,0 0,4 -21,0 0,4 21,0 0,3 -21,0 0,4 21,0 0,4 -21,0 0,4 21,0 0,4 -21,0 0,3 21,0 0,4 -21,0 0,4 21,0 0,4 -21,0 0,4 21,0 0,3 -21,0 0,4 21,0 0,4 -21,0 0,3 21,0 0,4 -21,0 0,4 21,0 0,4 -21,0 0,4 21,0 0,3 -21,0 0,4 21,0 0,4 -21,0 0,4 21,0 0,4 -21,0 0,3 21,0 0,4 -21,0 0,4 21,0 0,4 -21,0 0,3 21,0 0,4 -21,0 0,4 21,0 0,4 -21,0 0,3 21,0 0,4 -21,0 0,4 21,0 0,4 -21,0 0,4 21,0 0,3 -21,0" />
<path style="fill:none;stroke:#000;stroke-width:2" d="M150,97 l-19,0 0,4 19,0 0,4 -19,0 0,4 19,0 0,4 -19,0 0,3 19,0 0,4 -19,0 0,4 19,0 0,3 -19,0 0,4 19,0 0,4 -19,0 0,4 19,0 0,4 -19,0 0,3 19,0 0,4 -19,0 0,4 19,0 0,4 -19,0 0,4 19,0 0,3 -19,0 0,4 19,0 0,4 -19,0 0,3 19,0 0,4 -19,0 0,4 19,0 0,4 -19,0 0,4 19,0 0,3 -19,0 0,4 19,0 0,4 -19,0 0,4 19,0 0,4 -19,0 0,3 19,0 0,4 -19,0 0,4 19,0 0,4 -19,0 0,3 19,0 0,4 -19,0 0,4 19,0 0,4 -19,0 0,3 19,0 0,4 -19,0 0,4 19,0 0,4 -19,0 0,4 19,0 0,3 -19,0" />
<path style="fill:none;stroke:#000;stroke-width:2" d="M180,97 l-21,0 0,4 21,0 0,4 -21,0 0,4 21,0 0,4 -21,0 0,3 21,0 0,4 -21,0 0,4 21,0 0,3 -21,0 0,4 21,0 0,4 -21,0 0,4 21,0 0,4 -21,0 0,3 21,0 0,4 -21,0 0,4 21,0 0,4 -21,0 0,4 21,0 0,3 -21,0 0,4 21,0 0,4 -21,0 0,3 21,0 0,4 -21,0 0,4 21,0 0,4 -21,0 0,4 21,0 0,3 -21,0 0,4 21,0 0,4 -21,0 0,4 21,0 0,4 -21,0 0,3 21,0 0,4 -21,0 0,4 21,0 0,4 -21,0 0,3 21,0 0,4 -21,0 0,4 21,0 0,4 -21,0 0,3 21,0 0,4 -21,0 0,4 21,0 0,4 -21,0 0,4 21,0 0,3 -21,0" />
<path style="fill:none;stroke:#000;stroke-width:2" d="M208,97 l-18,0 0,4 18,0 0,4 -18,0 0,4 18,0 0,4 -18,0 0,3 18,0 0,4 -18,0 0,4 18,0 0,3 -18,0 0,4 18,0 0,4 -18,0 0,4 18,0 0,4 -18,0 0,3 18,0 0,4 -18,0 0,4 18,0 0,4 -18,0 0,4 18,0 0,3 -18,0 0,4 18,0 0,4 -18,0 0,3 18,0 0,4 -18,0 0,4 18,0 0,4 -18,0 0,4 18,0 0,3 -18,0 0,4 18,0 0,4 -18,0 0,4 18,0 0,4 -18,0 0,3 18,0 0,4 -18,0 0,4 18,0 0,4 -18,0 0,3 18,0 0,4 -18,0 0,4 18,0 0,4 -18,0 0,3 18,0 0,4 -18,0 0,4 18,0 0,4 -18,0 0,4 18,0 0,3 -18,0" />
<path style="fill:#9c9;stroke:#000;stroke-width:2" d="M970,135 l-54,-77 -25,0 0,77 79,0z" />
<path style="fill:#9c9;stroke:#000;stroke-width:2" d="M921,233 l-20,-28 -10,0 0,28 30,0z" />
<path style="fill:#9c9;stroke:#000;stroke-width:2" d="M627,37 l0,-9 -9,9 9,0z" />
<path style="fill:none;stroke:#cfc;stroke-width:2" d="M352,77 l0,-34 104,0" />
<path style="fill:none;stroke:#cfc;stroke-width:2" d="M352,131 l0,-49 104,0" />
<path style="fill:none;stroke:#cfc;stroke-width:2" d="M352,229 l0,-94 104,0" />
<path style="fill:none;stroke:#cfc;stroke-width:2" d="M352,269 l0,-36 104,0" />
<path style="fill:none;stroke:#363;stroke-width:2" d="M352,269 l104,0 0,-36" />
<path style="fill:none;stroke:#363;stroke-width:2" d="M352,229 l104,0 0,-94" />
<path style="fill:none;stroke:#363;stroke-width:2" d="M352,131 l104,0 0,-49" />
<path style="fill:none;stroke:#363;stroke-width:2" d="M352,77 l104,0 0,-34" />
<path style="fill:#e5ffe5" d="M382,86 l0,15 43,0 0,-15 -43,0z" />
<path style="fill:#030" d="M391,107 l0,9 25,0 0,-9 -25,0z" />
<path style="fill:#030" d="M440,239 l0,5 10,0 0,-5 -10,0z" />
<path style="fill:#030" d="M622,156 l0,3 9,0 0,-3 -9,0z" />

</svg>
