 
<svg version="1.1" id="图层_1" xmlns:agg="http://www.example.com"
	 xmlns="http://www.w3.org/2000/svg" xmlns:xlink="http://www.w3.org/1999/xlink" x="0px" y="0px" width="64px" height="64px"
	 viewBox="0 0 64 64" enable-background="new 0 0 64 64" xml:space="preserve">
<line fill="none" stroke="#040000" stroke-width="1.5" stroke-linecap="round" stroke-miterlimit="10" x1="31.983" y1="3.599" x2="31.983" y2="14.262"/>
<polygon fill="none" stroke="#040000" stroke-width="1.5" stroke-linecap="round" stroke-miterlimit="10" points="42.65,39.109 
	42.551,37.813 42.352,36.552 41.953,35.32 41.422,34.159 40.758,33.063 39.959,32.034 39.063,31.137 38.031,30.34 36.936,29.675 
	35.771,29.144 34.543,28.745 33.279,28.513 31.983,28.446 30.72,28.513 29.457,28.745 28.228,29.144 27.064,29.675 25.969,30.34 
	24.938,31.137 24.04,32.034 23.243,33.063 22.578,34.159 22.047,35.32 21.648,36.552 21.415,37.813 21.349,39.109 21.415,40.371 
	21.648,41.634 22.047,42.863 22.578,44.059 23.243,45.154 24.04,46.15 24.938,47.081 25.969,47.846 27.064,48.543 28.228,49.041 
	29.457,49.439 30.72,49.672 31.983,49.738 33.279,49.672 34.543,49.439 35.771,49.041 36.936,48.543 38.031,47.846 39.063,47.081 
	39.959,46.15 40.758,45.154 41.422,44.059 41.953,42.863 42.352,41.634 42.551,40.371 "/>
<polygon fill="none" stroke="#040000" stroke-width="1.5" stroke-linecap="round" stroke-miterlimit="10" points="42.65,24.892 
	42.551,23.629 42.352,22.368 41.953,21.138 41.422,19.942 40.758,18.846 39.959,17.849 39.063,16.919 38.031,16.156 36.936,15.458 
	35.771,14.959 34.543,14.561 33.279,14.328 31.983,14.262 30.72,14.328 29.457,14.561 28.228,14.959 27.064,15.458 25.969,16.156 
	24.938,16.919 24.04,17.849 23.243,18.846 22.578,19.942 22.047,21.138 21.648,22.368 21.415,23.629 21.349,24.892 21.415,26.187 
	21.648,27.45 22.047,28.679 22.578,29.841 23.243,30.937 24.04,31.967 24.938,32.864 25.969,33.661 27.064,34.325 28.228,34.855 
	29.457,35.257 30.72,35.488 31.983,35.555 33.279,35.488 34.543,35.257 35.771,34.855 36.936,34.325 38.031,33.661 39.063,32.864 
	39.959,31.967 40.758,30.937 41.422,29.841 41.953,28.679 42.352,27.45 42.551,26.187 "/>
<line fill="none" stroke="#040000" stroke-width="1.5" stroke-linecap="round" stroke-miterlimit="10" x1="28.46" y1="11.707" x2="35.539" y2="8.153"/>
<line fill="none" stroke="#040000" stroke-width="1.5" stroke-linecap="round" stroke-miterlimit="10" x1="28.46" y1="7.914" x2="35.539" y2="4.393"/>
<line fill="none" stroke="#040000" stroke-width="1.5" stroke-linecap="round" stroke-miterlimit="10" x1="21.349" y1="32" x2="42.65" y2="32"/>
<line fill="none" stroke="#040000" stroke-width="1.5" stroke-linecap="round" stroke-miterlimit="10" x1="31.983" y1="49.738" x2="31.983" y2="60.4"/>
<line fill="none" stroke="#040000" stroke-width="1.5" stroke-linecap="round" stroke-miterlimit="10" x1="28.46" y1="58.848" x2="35.539" y2="55.293"/>
<line fill="none" stroke="#040000" stroke-width="1.5" stroke-linecap="round" stroke-miterlimit="10" x1="28.46" y1="55.055" x2="35.539" y2="51.533"/>
</svg>
