 

<svg xmlns:agg="http://www.example.com" xmlns="http://www.w3.org/2000/svg" preserveAspectRatio="none" width="1.3226in" height="1.0750in" viewBox="0 0 999 812">

<path style="fill:#336;stroke:#000;stroke-width:2" d="M578,28 l274,0 0,19 -274,0 0,-19z" />
<path style="fill:#336;stroke:#000;stroke-width:2" d="M145,28 l275,0 0,19 -275,0 0,-19z" />
<path style="fill:#47477a" d="M597,28 l238,0 0,19 -238,0 0,-19z" />
<path style="fill:#47477a" d="M165,28 l236,0 0,19 -236,0 0,-19z" />
<path style="fill:#5e5e91" d="M616,28 l198,0 0,19 -198,0 0,-19z" />
<path style="fill:#5e5e91" d="M184,28 l198,0 0,19 -198,0 0,-19z" />
<path style="fill:#7373a6" d="M635,28 l160,0 0,19 -160,0 0,-19z" />
<path style="fill:#7373a6" d="M203,28 l160,0 0,19 -160,0 0,-19z" />
<path style="fill:#8787ba" d="M654,28 l122,0 0,19 -122,0 0,-19z" />
<path style="fill:#8787ba" d="M222,28 l123,0 0,19 -123,0 0,-19z" />
<path style="fill:#9e9ed1" d="M673,28 l84,0 0,19 -84,0 0,-19z" />
<path style="fill:#9e9ed1" d="M241,28 l85,0 0,19 -85,0 0,-19z" />
<path style="fill:#b2b2e5" d="M691,28 l48,0 0,19 -48,0 0,-19z" />
<path style="fill:#b2b2e5" d="M260,28 l47,0 0,19 -47,0 0,-19z" />
<path style="fill:#336;stroke:#000;stroke-width:2" d="M58,273 l-11,-177 904,0 -11,177 -882,0z" />
<path style="fill:none;stroke:#999;stroke-width:2" d="M107,273 l-11,-177" />
<path style="fill:none;stroke:#999;stroke-width:2" d="M891,273 l10,-177" />
<path style="fill:none;stroke:#999;stroke-width:2" d="M499,273 l0,-177" />
<path style="fill:none;stroke:#999;stroke-width:2" d="M245,273 l-12,-177" />
<path style="fill:none;stroke:#999;stroke-width:2" d="M754,273 l11,-177" />
<path style="fill:none;stroke:#999;stroke-width:2" d="M627,273 l0,-177" />
<path style="fill:none;stroke:#999;stroke-width:2" d="M371,273 l0,-177" />
<path style="fill:#b2b2e5" d="M28,273 l942,0 0,511 -942,0 0,-511z" />
<path style="fill:#adade0" d="M28,635 l942,-213 0,362 -942,0 0,-149z" />
<path style="fill:#a8a8db" d="M28,658 l942,-214 0,340 -942,0 0,-126z" />
<path style="fill:#a3a3d6" d="M28,690 l942,-215 0,309 -942,0 0,-94z" />
<path style="fill:none;stroke:#000;stroke-width:2" d="M28,273 l942,0 0,511 -942,0 0,-511" />
<path style="fill:#336" d="M441,637 l58,0 0,9 -58,0 0,-9z" />
<path style="fill:#336" d="M441,450 l58,0 0,9 -58,0 0,-9z" />
<path style="fill:#b2b2e5;stroke:#000;stroke-width:2" d="M28,273 l0,-226 942,0 0,226 -19,0 0,-177 -904,0 0,177 -19,0z" />
<path style="fill:none;stroke:#4c4c7f;stroke-width:2" d="M28,292 l942,0" />
<path style="fill:none;stroke:#4c4c7f;stroke-width:2" d="M28,744 l942,0" />
<path style="fill:none;stroke:#4c4c7f;stroke-width:2" d="M399,292 l0,452" />
<path style="fill:none;stroke:#4c4c7f;stroke-width:2" d="M420,292 l0,452" />
<path style="fill:none;stroke:#4c4c7f;stroke-width:2" d="M264,292 l0,452" />
<path style="fill:none;stroke:#4c4c7f;stroke-width:2" d="M441,744 l0,-392 294,0 0,392" />
<path style="fill:none;stroke:#4c4c7f;stroke-width:2" d="M165,548 l80,0 0,157 -80,0 0,-157" />
<path style="fill:none;stroke:#4c4c7f;stroke-width:2" d="M28,56 l942,0" />

</svg>
