 

<svg xmlns:agg="http://www.example.com" xmlns="http://www.w3.org/2000/svg" preserveAspectRatio="none" width="1.1164in" height="1.0750in" viewBox="0 0 998 961">

<path style="fill:#b2b2b2" d="M688,178 l0,-132 19,-18 113,0 0,113 -19,19 0,18 -113,0z" />
<path style="fill:#b2b2b2" d="M537,178 l0,-132 19,-18 113,0 0,113 -19,19 0,18 -113,0z" />
<path style="fill:#b2b2b2" d="M499,178 l0,-132 -19,-18 -113,0 0,113 19,19 0,18 113,0z" />
<path style="fill:#b2b2b2" d="M348,178 l0,-132 -19,-18 -113,0 0,113 19,19 0,18 113,0z" />
<path style="fill:#7f7f7f" d="M216,141 l19,19 94,0 0,-19 -113,0z" />
<path style="fill:#7f7f7f" d="M367,141 l19,19 94,0 0,-19 -113,0z" />
<path style="fill:#7f7f7f" d="M820,141 l-19,19 -94,0 0,-19 113,0z" />
<path style="fill:#7f7f7f" d="M669,141 l-19,19 -94,0 0,-19 113,0z" />
<path style="fill:#4c4c4c" d="M820,28 l-113,0 0,113 113,0 0,-113z" />
<path style="fill:#4c4c4c" d="M669,28 l-113,0 0,113 113,0 0,-113z" />
<path style="fill:#4c4c4c" d="M367,28 l113,0 0,113 -113,0 0,-113z" />
<path style="fill:#4c4c4c" d="M216,28 l113,0 0,113 -113,0 0,-113z" />
<path style="fill:none;stroke:#b2b2b2;stroke-width:2" d="M216,122 l113,0" />
<path style="fill:none;stroke:#b2b2b2;stroke-width:2" d="M329,97 l-113,0" />
<path style="fill:none;stroke:#b2b2b2;stroke-width:2" d="M329,71 l-113,0" />
<path style="fill:none;stroke:#b2b2b2;stroke-width:2" d="M329,46 l-113,0" />
<path style="fill:none;stroke:#b2b2b2;stroke-width:2" d="M367,122 l113,0" />
<path style="fill:none;stroke:#b2b2b2;stroke-width:2" d="M480,97 l-113,0" />
<path style="fill:none;stroke:#b2b2b2;stroke-width:2" d="M480,71 l-113,0" />
<path style="fill:none;stroke:#b2b2b2;stroke-width:2" d="M480,46 l-113,0" />
<path style="fill:none;stroke:#b2b2b2;stroke-width:2" d="M820,122 l-113,0" />
<path style="fill:none;stroke:#b2b2b2;stroke-width:2" d="M707,97 l113,0" />
<path style="fill:none;stroke:#b2b2b2;stroke-width:2" d="M707,71 l113,0" />
<path style="fill:none;stroke:#b2b2b2;stroke-width:2" d="M707,46 l113,0" />
<path style="fill:none;stroke:#b2b2b2;stroke-width:2" d="M669,122 l-113,0" />
<path style="fill:none;stroke:#b2b2b2;stroke-width:2" d="M556,97 l113,0" />
<path style="fill:none;stroke:#b2b2b2;stroke-width:2" d="M556,71 l113,0" />
<path style="fill:none;stroke:#b2b2b2;stroke-width:2" d="M556,46 l113,0" />
<path style="fill:#ccc" d="M65,216 l905,0 0,717 -905,0 0,-717z" />
<path style="fill:#c7c7c7" d="M65,725 l905,-300 0,508 -905,0 0,-208z" />
<path style="fill:#c2c2c2" d="M65,755 l905,-299 0,477 -905,0 0,-178z" />
<path style="fill:#bdbdbd" d="M65,799 l905,-300 0,434 -905,0 0,-134z" />
<path style="fill:none;stroke:#000;stroke-width:2" d="M65,216 l905,0 0,717 -905,0 0,-717" />
<path style="fill:none;stroke:#7f7f7f;stroke-width:2" d="M65,914 l905,0" />
<path style="fill:none;stroke:#7f7f7f;stroke-width:2" d="M669,216 l0,491" />
<path style="fill:none;stroke:#7f7f7f;stroke-width:2" d="M367,216 l0,491" />
<path style="fill:none;stroke:#7f7f7f;stroke-width:2" d="M65,707 l905,0" />
<path style="fill:none;stroke:#7f7f7f;stroke-width:2" d="M65,725 l905,0" />
<path style="fill:#b2b2b2;stroke:#000;stroke-width:2" d="M28,744 l37,0 0,132 -37,0 0,-132z" />
<path style="fill:#999;stroke:#000;stroke-width:2" d="M688,744 l264,0 0,151 -264,0 0,-151z" />
<path style="fill:#999;stroke:#000;stroke-width:2" d="M386,744 l264,0 0,151 -264,0 0,-151z" />
<path style="fill:#999;stroke:#000;stroke-width:2" d="M84,744 l264,0 0,151 -264,0 0,-151z" />
<path style="fill:none;stroke:#000;stroke-width:2" d="M688,744 l150,151" />
<path style="fill:none;stroke:#000;stroke-width:2" d="M688,820 l75,75" />
<path style="fill:none;stroke:#000;stroke-width:2" d="M763,744 l151,151" />
<path style="fill:none;stroke:#000;stroke-width:2" d="M838,744 l114,113" />
<path style="fill:none;stroke:#000;stroke-width:2" d="M914,744 l38,38" />
<path style="fill:none;stroke:#000;stroke-width:2" d="M707,744 l150,151" />
<path style="fill:none;stroke:#000;stroke-width:2" d="M688,801 l94,94" />
<path style="fill:none;stroke:#000;stroke-width:2" d="M688,876 l19,19" />
<path style="fill:none;stroke:#000;stroke-width:2" d="M782,744 l151,151" />
<path style="fill:none;stroke:#000;stroke-width:2" d="M857,744 l95,94" />
<path style="fill:none;stroke:#000;stroke-width:2" d="M933,744 l19,19" />
<path style="fill:none;stroke:#000;stroke-width:2" d="M725,744 l151,151" />
<path style="fill:none;stroke:#000;stroke-width:2" d="M688,782 l113,113" />
<path style="fill:none;stroke:#000;stroke-width:2" d="M688,857 l37,38" />
<path style="fill:none;stroke:#000;stroke-width:2" d="M801,744 l151,151" />
<path style="fill:none;stroke:#000;stroke-width:2" d="M876,744 l76,76" />
<path style="fill:none;stroke:#000;stroke-width:2" d="M744,744 l151,151" />
<path style="fill:none;stroke:#000;stroke-width:2" d="M688,763 l132,132" />
<path style="fill:none;stroke:#000;stroke-width:2" d="M688,838 l56,57" />
<path style="fill:none;stroke:#000;stroke-width:2" d="M820,744 l132,132" />
<path style="fill:none;stroke:#000;stroke-width:2" d="M895,744 l57,57" />
<path style="fill:none;stroke:#000;stroke-width:2" d="M952,744 l-151,151" />
<path style="fill:none;stroke:#000;stroke-width:2" d="M952,820 l-76,75" />
<path style="fill:none;stroke:#000;stroke-width:2" d="M876,744 l-151,151" />
<path style="fill:none;stroke:#000;stroke-width:2" d="M801,744 l-113,113" />
<path style="fill:none;stroke:#000;stroke-width:2" d="M725,744 l-37,38" />
<path style="fill:none;stroke:#000;stroke-width:2" d="M933,744 l-151,151" />
<path style="fill:none;stroke:#000;stroke-width:2" d="M952,801 l-95,94" />
<path style="fill:none;stroke:#000;stroke-width:2" d="M952,876 l-19,19" />
<path style="fill:none;stroke:#000;stroke-width:2" d="M857,744 l-150,151" />
<path style="fill:none;stroke:#000;stroke-width:2" d="M782,744 l-94,94" />
<path style="fill:none;stroke:#000;stroke-width:2" d="M707,744 l-19,19" />
<path style="fill:none;stroke:#000;stroke-width:2" d="M914,744 l-151,151" />
<path style="fill:none;stroke:#000;stroke-width:2" d="M952,782 l-114,113" />
<path style="fill:none;stroke:#000;stroke-width:2" d="M952,857 l-38,38" />
<path style="fill:none;stroke:#000;stroke-width:2" d="M838,744 l-150,151" />
<path style="fill:none;stroke:#000;stroke-width:2" d="M763,744 l-75,76" />
<path style="fill:none;stroke:#000;stroke-width:2" d="M895,744 l-151,151" />
<path style="fill:none;stroke:#000;stroke-width:2" d="M952,763 l-132,132" />
<path style="fill:none;stroke:#000;stroke-width:2" d="M952,838 l-57,57" />
<path style="fill:none;stroke:#000;stroke-width:2" d="M820,744 l-132,132" />
<path style="fill:none;stroke:#000;stroke-width:2" d="M744,744 l-56,57" />
<path style="fill:none;stroke:#000;stroke-width:2" d="M386,744 l151,151" />
<path style="fill:none;stroke:#000;stroke-width:2" d="M386,820 l75,75" />
<path style="fill:none;stroke:#000;stroke-width:2" d="M461,744 l151,151" />
<path style="fill:none;stroke:#000;stroke-width:2" d="M537,744 l113,113" />
<path style="fill:none;stroke:#000;stroke-width:2" d="M612,744 l38,38" />
<path style="fill:none;stroke:#000;stroke-width:2" d="M405,744 l151,151" />
<path style="fill:none;stroke:#000;stroke-width:2" d="M386,801 l94,94" />
<path style="fill:none;stroke:#000;stroke-width:2" d="M386,876 l19,19" />
<path style="fill:none;stroke:#000;stroke-width:2" d="M480,744 l151,151" />
<path style="fill:none;stroke:#000;stroke-width:2" d="M556,744 l94,94" />
<path style="fill:none;stroke:#000;stroke-width:2" d="M631,744 l19,19" />
<path style="fill:none;stroke:#000;stroke-width:2" d="M424,744 l150,151" />
<path style="fill:none;stroke:#000;stroke-width:2" d="M386,782 l113,113" />
<path style="fill:none;stroke:#000;stroke-width:2" d="M386,857 l38,38" />
<path style="fill:none;stroke:#000;stroke-width:2" d="M499,744 l151,151" />
<path style="fill:none;stroke:#000;stroke-width:2" d="M574,744 l76,76" />
<path style="fill:none;stroke:#000;stroke-width:2" d="M442,744 l151,151" />
<path style="fill:none;stroke:#000;stroke-width:2" d="M386,763 l132,132" />
<path style="fill:none;stroke:#000;stroke-width:2" d="M386,838 l56,57" />
<path style="fill:none;stroke:#000;stroke-width:2" d="M518,744 l132,132" />
<path style="fill:none;stroke:#000;stroke-width:2" d="M593,744 l57,57" />
<path style="fill:none;stroke:#000;stroke-width:2" d="M650,744 l-151,151" />
<path style="fill:none;stroke:#000;stroke-width:2" d="M650,820 l-76,75" />
<path style="fill:none;stroke:#000;stroke-width:2" d="M574,744 l-150,151" />
<path style="fill:none;stroke:#000;stroke-width:2" d="M499,744 l-113,113" />
<path style="fill:none;stroke:#000;stroke-width:2" d="M424,744 l-38,38" />
<path style="fill:none;stroke:#000;stroke-width:2" d="M631,744 l-151,151" />
<path style="fill:none;stroke:#000;stroke-width:2" d="M650,801 l-94,94" />
<path style="fill:none;stroke:#000;stroke-width:2" d="M650,876 l-19,19" />
<path style="fill:none;stroke:#000;stroke-width:2" d="M556,744 l-151,151" />
<path style="fill:none;stroke:#000;stroke-width:2" d="M480,744 l-94,94" />
<path style="fill:none;stroke:#000;stroke-width:2" d="M405,744 l-19,19" />
<path style="fill:none;stroke:#000;stroke-width:2" d="M612,744 l-151,151" />
<path style="fill:none;stroke:#000;stroke-width:2" d="M650,782 l-113,113" />
<path style="fill:none;stroke:#000;stroke-width:2" d="M650,857 l-38,38" />
<path style="fill:none;stroke:#000;stroke-width:2" d="M537,744 l-151,151" />
<path style="fill:none;stroke:#000;stroke-width:2" d="M461,744 l-75,76" />
<path style="fill:none;stroke:#000;stroke-width:2" d="M593,744 l-151,151" />
<path style="fill:none;stroke:#000;stroke-width:2" d="M650,763 l-132,132" />
<path style="fill:none;stroke:#000;stroke-width:2" d="M650,838 l-57,57" />
<path style="fill:none;stroke:#000;stroke-width:2" d="M518,744 l-132,132" />
<path style="fill:none;stroke:#000;stroke-width:2" d="M442,744 l-56,57" />
<path style="fill:none;stroke:#000;stroke-width:2" d="M84,744 l151,151" />
<path style="fill:none;stroke:#000;stroke-width:2" d="M84,820 l76,75" />
<path style="fill:none;stroke:#000;stroke-width:2" d="M160,744 l151,151" />
<path style="fill:none;stroke:#000;stroke-width:2" d="M235,744 l113,113" />
<path style="fill:none;stroke:#000;stroke-width:2" d="M311,744 l37,38" />
<path style="fill:none;stroke:#000;stroke-width:2" d="M103,744 l151,151" />
<path style="fill:none;stroke:#000;stroke-width:2" d="M84,801 l94,94" />
<path style="fill:none;stroke:#000;stroke-width:2" d="M84,876 l19,19" />
<path style="fill:none;stroke:#000;stroke-width:2" d="M178,744 l151,151" />
<path style="fill:none;stroke:#000;stroke-width:2" d="M254,744 l94,94" />
<path style="fill:none;stroke:#000;stroke-width:2" d="M329,744 l19,19" />
<path style="fill:none;stroke:#000;stroke-width:2" d="M122,744 l151,151" />
<path style="fill:none;stroke:#000;stroke-width:2" d="M84,782 l113,113" />
<path style="fill:none;stroke:#000;stroke-width:2" d="M84,857 l38,38" />
<path style="fill:none;stroke:#000;stroke-width:2" d="M197,744 l151,151" />
<path style="fill:none;stroke:#000;stroke-width:2" d="M273,744 l75,76" />
<path style="fill:none;stroke:#000;stroke-width:2" d="M141,744 l150,151" />
<path style="fill:none;stroke:#000;stroke-width:2" d="M84,763 l132,132" />
<path style="fill:none;stroke:#000;stroke-width:2" d="M84,838 l57,57" />
<path style="fill:none;stroke:#000;stroke-width:2" d="M216,744 l132,132" />
<path style="fill:none;stroke:#000;stroke-width:2" d="M291,744 l57,57" />
<path style="fill:none;stroke:#000;stroke-width:2" d="M348,744 l-151,151" />
<path style="fill:none;stroke:#000;stroke-width:2" d="M348,820 l-75,75" />
<path style="fill:none;stroke:#000;stroke-width:2" d="M273,744 l-151,151" />
<path style="fill:none;stroke:#000;stroke-width:2" d="M197,744 l-113,113" />
<path style="fill:none;stroke:#000;stroke-width:2" d="M122,744 l-38,38" />
<path style="fill:none;stroke:#000;stroke-width:2" d="M329,744 l-151,151" />
<path style="fill:none;stroke:#000;stroke-width:2" d="M348,801 l-94,94" />
<path style="fill:none;stroke:#000;stroke-width:2" d="M348,876 l-19,19" />
<path style="fill:none;stroke:#000;stroke-width:2" d="M254,744 l-151,151" />
<path style="fill:none;stroke:#000;stroke-width:2" d="M178,744 l-94,94" />
<path style="fill:none;stroke:#000;stroke-width:2" d="M103,744 l-19,19" />
<path style="fill:none;stroke:#000;stroke-width:2" d="M311,744 l-151,151" />
<path style="fill:none;stroke:#000;stroke-width:2" d="M348,782 l-113,113" />
<path style="fill:none;stroke:#000;stroke-width:2" d="M348,857 l-37,38" />
<path style="fill:none;stroke:#000;stroke-width:2" d="M235,744 l-151,151" />
<path style="fill:none;stroke:#000;stroke-width:2" d="M160,744 l-76,76" />
<path style="fill:none;stroke:#000;stroke-width:2" d="M291,744 l-150,151" />
<path style="fill:none;stroke:#000;stroke-width:2" d="M348,763 l-132,132" />
<path style="fill:none;stroke:#000;stroke-width:2" d="M348,838 l-57,57" />
<path style="fill:none;stroke:#000;stroke-width:2" d="M216,744 l-132,132" />
<path style="fill:none;stroke:#000;stroke-width:2" d="M141,744 l-57,57" />
<path style="fill:#b2b2b2;stroke:#000;stroke-width:2" d="M103,178 l830,0 0,38 -830,0 0,-38z" />
<path style="fill:none;stroke:#000;stroke-width:2" d="M688,178 l0,-132 19,-18 113,0 0,113 -19,19 0,18 -113,0" />
<path style="fill:none;stroke:#000;stroke-width:2" d="M537,178 l0,-132 19,-18 113,0 0,113 -19,19 0,18 -113,0" />
<path style="fill:none;stroke:#000;stroke-width:2" d="M348,178 l0,-132 -19,-18 -113,0 0,113 19,19 0,18 113,0" />
<path style="fill:none;stroke:#000;stroke-width:2" d="M499,178 l0,-132 -19,-18 -113,0 0,113 19,19 0,18 113,0" />

</svg>
