 

<svg xmlns:agg="http://www.example.com" xmlns="http://www.w3.org/2000/svg" preserveAspectRatio="none" width="1.2067in" height="1.0750in" viewBox="0 0 999 890">

<path style="fill:#7f7f7f" d="M794,489 l29,0 0,78 -29,0 0,-78z" />
<path style="fill:#b2b2b2" d="M794,503 l29,0 0,50 -29,0 0,-50z" />
<path style="fill:#e5e5e5" d="M794,523 l29,0 0,10 -29,0 0,-10z" />
<path style="fill:#596d8c" d="M892,322 l19,0 0,-19 44,0 0,-30 -44,0 0,-19 -19,0 0,68z" />
<path style="fill:#596d8c" d="M902,195 l0,49 19,0 0,29 30,0 0,-29 19,0 0,-49 -68,0z" />
<path style="fill:#596d8c" d="M902,28 l0,49 19,0 0,29 30,0 0,-29 19,0 0,-49 -68,0z" />
<path style="fill:#596d8c" d="M892,155 l19,0 0,-19 44,0 0,-30 -44,0 0,-19 -19,0 0,68z" />
<path style="fill:#a6bad9" d="M916,28 l0,49 12,0 0,29 16,0 0,-29 12,0 0,-49 -40,0z" />
<path style="fill:#a6bad9" d="M892,141 l19,0 0,-11 44,0 0,-17 -44,0 0,-12 -19,0 0,40z" />
<path style="fill:#a6bad9" d="M916,195 l0,49 12,0 0,29 16,0 0,-29 12,0 0,-49 -40,0z" />
<path style="fill:#a6bad9" d="M892,308 l19,0 0,-12 44,0 0,-17 -44,0 0,-11 -19,0 0,40z" />
<path style="fill:#7f7f7f" d="M951,371 l0,15 -452,0 0,-15 452,0z" />
<path style="fill:#7f7f7f" d="M921,386 l20,0 0,427 -20,0 0,-427z" />
<path style="fill:#7f7f7f" d="M847,386 l20,0 0,427 -20,0 0,-427z" />
<path style="fill:#7f7f7f" d="M700,386 l20,0 0,427 -20,0 0,-427z" />
<path style="fill:#7f7f7f" d="M499,828 l0,-15 452,0 0,15 -452,0z" />
<path style="fill:#000" d="M774,754 l0,5 127,0 0,-5 -127,0z" />
<path style="fill:#4c4c4c" d="M764,744 l10,10 127,0 10,-10 0,-68 -10,-10 -127,0 -10,10 0,29 -10,0 0,10 10,0 0,29z" />
<path style="fill:#7f7f7f" d="M764,733 l10,6 127,0 10,-6 0,-46 -10,-6 -127,0 -10,6 0,20 -10,0 0,6 10,0 0,20z" />
<path style="fill:#b2b2b2" d="M764,721 l10,4 127,0 10,-4 0,-23 -10,-3 -127,0 -10,3 0,10 -10,0 0,3 10,0 0,10z" />
<path style="fill:#000" d="M794,666 l0,44 68,0 0,-44 -68,0z" />
<path style="fill:#7387a6;stroke:#000;stroke-width:2" d="M764,759 l0,25 147,0 0,-25 -147,0z" />
<path style="fill:#7387a6;stroke:#000;stroke-width:2" d="M656,784 l0,-118 98,0 0,118 -98,0z" />
<path style="fill:#7387a6;stroke:#000;stroke-width:2" d="M519,823 l0,-39 392,0 0,39 -392,0z" />
<path style="fill:#7f7f7f" d="M499,588 l0,-119 294,0 0,119 -294,0z" />
<path style="fill:#8f8f8f" d="M499,581 l0,-106 295,0 0,106 -295,0z" />
<path style="fill:#ababab" d="M499,569 l0,-81 295,0 0,81 -295,0z" />
<path style="fill:#c7c7c7" d="M499,557 l0,-57 295,0 0,57 -295,0z" />
<path style="fill:#e3e3e3" d="M499,545 l0,-33 295,0 0,33 -295,0z" />
<path style="fill:#fff" d="M499,533 l0,-9 294,0 0,9 -294,0z" />
<path style="fill:none;stroke:#000;stroke-width:2" d="M499,588 l0,-119 294,0 0,119 -294,0" />
<path style="fill:#000" d="M534,602 l0,-15 19,0 0,15 -19,0z" />
<path style="fill:#000" d="M651,602 l0,-24 20,0 0,24 -20,0z" />
<path style="fill:#000" d="M519,622 l0,-20 255,0 0,20 -255,0z" />
<path style="fill:#000" d="M588,666 l0,-44 19,0 0,44 -19,0z" />
<path style="fill:#405473;stroke:#000;stroke-width:2" d="M499,656 l0,-29 407,0 0,29 -407,0z" />
<path style="fill:#7f7f7f" d="M106,332 l0,-255 786,0 0,255 -786,0z" />
<path style="fill:#8f8f8f" d="M107,318 l0,-228 785,0 0,228 -785,0z" />
<path style="fill:#9c9c9c" d="M107,305 l0,-202 785,0 0,202 -785,0z" />
<path style="fill:#ababab" d="M107,292 l0,-176 785,0 0,176 -785,0z" />
<path style="fill:#b8b8b8" d="M107,279 l0,-150 785,0 0,150 -785,0z" />
<path style="fill:#c7c7c7" d="M107,266 l0,-124 785,0 0,124 -785,0z" />
<path style="fill:#d4d4d4" d="M107,253 l0,-98 785,0 0,98 -785,0z" />
<path style="fill:#e3e3e3" d="M107,240 l0,-72 785,0 0,72 -785,0z" />
<path style="fill:#f0f0f0" d="M107,227 l0,-46 785,0 0,46 -785,0z" />
<path style="fill:#fff" d="M106,214 l0,-19 786,0 0,19 -786,0z" />
<path style="fill:none;stroke:#000;stroke-width:2" d="M106,332 l0,-255 786,0 0,255 -786,0" />
<path style="fill:#596d8c" d="M165,342 l40,0 0,29 29,0 0,-29 177,0 0,29 29,0 0,-29 59,0 0,-20 -59,0 0,-29 -29,0 0,29 -177,0 0,-29 -29,0 0,29 -40,0 0,20z" />
<path style="fill:#7387a6" d="M165,339 l40,0 0,22 29,0 0,-22 177,0 0,22 29,0 0,-22 59,0 0,-14 -59,0 0,-23 -29,0 0,23 -177,0 0,-23 -29,0 0,23 -40,0 0,14z" />
<ellipse style="fill:#a6bad9" cx="332" cy="332" rx="167" ry="15" />
<path style="fill:none;stroke:#000;stroke-width:2" d="M165,342 l40,0 0,29 29,0 0,-29 177,0 0,29 29,0 0,-29 59,0 0,-20 -59,0 0,-29 -29,0 0,29 -177,0 0,-29 -29,0 0,29 -40,0 0,20" />
<path style="fill:#f7f7f7" d="M28,862 l0,-510 20,-25 29,0 24,25 379,0 0,-20 490,0 0,491 -19,0 0,-452 -59,0 0,452 -20,0 0,-452 -137,0 0,452 -20,0 0,-452 -216,0 0,452 471,0 0,39 -942,0z" />
<path style="fill:none;stroke:#000;stroke-width:2" d="M28,352 l20,-25 29,0 24,25 379,0 0,-20 490,0 0,530 -942,0 0,-510" />
<path style="fill:none;stroke:#000;stroke-width:2" d="M499,823 l0,-452 216,0 0,452 -216,0" />
<path style="fill:none;stroke:#000;stroke-width:2" d="M735,823 l0,-452 137,0 0,452 -137,0" />
<path style="fill:none;stroke:#000;stroke-width:2" d="M892,823 l0,-452 59,0 0,452 -59,0" />
<path style="fill:none;stroke:#000;stroke-width:2" d="M480,862 l0,-510" />
<path style="fill:#f2f2f2" d="M57,401 l187,0 0,412 -187,0 0,-412z" />
<path style="fill:none;stroke:#000;stroke-width:2" d="M48,823 l412,0 0,-432 -412,0 0,432" />
<path style="fill:#f2f2f2" d="M263,401 l187,0 0,412 -187,0 0,-412z" />
<path style="fill:#ebebeb" d="M264,813 l185,0 1,-191 -187,38 1,153z" />
<path style="fill:#ebebeb" d="M59,813 l184,0 1,-147 -187,39 2,108z" />
<path style="fill:#e0e0e0" d="M264,813 l185,0 1,-177 -187,39 1,138z" />
<path style="fill:#e0e0e0" d="M59,813 l184,0 1,-131 -187,39 2,92z" />
<path style="fill:#d9d9d9" d="M263,813 l187,0 0,-142 -187,39 0,103z" />
<path style="fill:#d9d9d9" d="M57,813 l187,0 0,-100 -187,39 0,61z" />
<path style="fill:#d9d9d9" d="M57,813 l10,10 393,0 0,-413 -10,-9 0,412 -196,0 0,-403 -10,-9 0,412 -187,0z" />
<path style="fill:none;stroke:#7f7f7f;stroke-width:2" d="M263,813 l187,0 0,-412 -187,0 0,412" />
<path style="fill:none;stroke:#7f7f7f;stroke-width:2" d="M57,813 l187,0 0,-412 -187,0 0,412" />
<path style="fill:#4c4c4c" d="M224,597 l0,30 -10,0 0,-30 -5,-5 0,-10 20,0 0,10 -5,5z" />
<path style="fill:#4c4c4c" d="M293,597 l0,30 -10,0 0,-30 -5,-5 0,-10 20,0 0,10 -5,5z" />
<path style="fill:#4c4c4c" d="M351,538 l0,-20 20,0 0,20 -20,0z" />
<path style="fill:#4c4c4c" d="M332,450 l0,-19 10,0 0,19 -10,0z" />
<path style="fill:#4c4c4c" d="M312,450 l0,-19 10,0 0,19 -10,0z" />
<path style="fill:#4c4c4c" d="M312,480 l0,-20 10,0 0,20 -10,0z" />
<path style="fill:#4c4c4c" d="M332,480 l0,-20 10,0 0,20 -10,0z" />
<path style="fill:#4c4c4c" d="M352,480 l0,-20 10,0 0,20 -10,0z" />
<path style="fill:#4c4c4c" d="M371,480 l0,-20 10,0 0,20 -10,0z" />
<path style="fill:#4c4c4c" d="M391,480 l0,-20 10,0 0,20 -10,0z" />
<path style="fill:#4c4c4c" d="M411,480 l0,-20 9,0 0,20 -9,0z" />
<path style="fill:#4c4c4c" d="M391,509 l0,-20 10,0 0,20 -10,0z" />
<path style="fill:#4c4c4c" d="M411,509 l0,-20 9,0 0,20 -9,0z" />
<path style="fill:#4c4c4c" d="M391,538 l0,-20 10,0 0,20 -10,0z" />
<path style="fill:#4c4c4c" d="M411,538 l0,-20 9,0 0,20 -9,0z" />
<path style="fill:#4c4c4c" d="M543,347 l35,0 0,10 -35,0 0,-10z" />
<path style="fill:none;stroke:#000;stroke-width:2" d="M52,342 l3,-7 7,-3 7,3 3,7 -3,7 -7,3 -7,-3 -3,-7" />
<path style="fill:none;stroke:#7f7f7f;stroke-width:2" d="M67,410 l59,0" />
<path style="fill:none;stroke:#7f7f7f;stroke-width:2" d="M67,420 l59,0" />
<path style="fill:none;stroke:#7f7f7f;stroke-width:2" d="M67,430 l59,0" />
<path style="fill:none;stroke:#7f7f7f;stroke-width:2" d="M67,440 l59,0" />
<path style="fill:none;stroke:#7f7f7f;stroke-width:2" d="M67,450 l59,0" />
<path style="fill:none;stroke:#7f7f7f;stroke-width:2" d="M67,460 l59,0" />
<path style="fill:none;stroke:#7f7f7f;stroke-width:2" d="M67,469 l59,0" />
<path style="fill:none;stroke:#7f7f7f;stroke-width:2" d="M67,415 l59,0" />
<path style="fill:none;stroke:#7f7f7f;stroke-width:2" d="M67,425 l59,0" />
<path style="fill:none;stroke:#7f7f7f;stroke-width:2" d="M67,435 l59,0" />
<path style="fill:none;stroke:#7f7f7f;stroke-width:2" d="M67,444 l59,0" />
<path style="fill:none;stroke:#7f7f7f;stroke-width:2" d="M67,454 l59,0" />
<path style="fill:none;stroke:#7f7f7f;stroke-width:2" d="M67,464 l59,0" />
<path style="fill:none;stroke:#7f7f7f;stroke-width:2" d="M67,474 l59,0" />
<path style="fill:none;stroke:#7f7f7f;stroke-width:2" d="M381,740 l59,0" />
<path style="fill:none;stroke:#7f7f7f;stroke-width:2" d="M381,750 l59,0" />
<path style="fill:none;stroke:#7f7f7f;stroke-width:2" d="M381,759 l59,0" />
<path style="fill:none;stroke:#7f7f7f;stroke-width:2" d="M381,769 l59,0" />
<path style="fill:none;stroke:#7f7f7f;stroke-width:2" d="M381,779 l59,0" />
<path style="fill:none;stroke:#7f7f7f;stroke-width:2" d="M381,789 l59,0" />
<path style="fill:none;stroke:#7f7f7f;stroke-width:2" d="M381,799 l59,0" />
<path style="fill:none;stroke:#7f7f7f;stroke-width:2" d="M381,744 l59,0" />
<path style="fill:none;stroke:#7f7f7f;stroke-width:2" d="M381,754 l59,0" />
<path style="fill:none;stroke:#7f7f7f;stroke-width:2" d="M381,764 l59,0" />
<path style="fill:none;stroke:#7f7f7f;stroke-width:2" d="M381,774 l59,0" />
<path style="fill:none;stroke:#7f7f7f;stroke-width:2" d="M381,783 l59,0" />
<path style="fill:none;stroke:#7f7f7f;stroke-width:2" d="M381,793 l59,0" />
<path style="fill:none;stroke:#7f7f7f;stroke-width:2" d="M381,803 l59,0" />
<path style="fill:#e5a565" d="M627,784 l-59,0 0,-40 -10,0 0,20 -20,0 0,-118 20,0 0,20 79,0 0,-20 19,0 0,118 -19,0 0,-20 -10,0 0,40z" />
<path style="fill:#ffbf7f" d="M558,731 l0,13 -20,0 0,-78 20,0 0,13 79,0 0,-13 19,0 0,78 -19,0 0,-13 -79,0z" />
<path style="fill:#ffd9b2" d="M558,718 l0,7 -20,0 0,-40 20,0 0,7 79,0 0,-7 19,0 0,40 -19,0 0,-7 -79,0z" />
<path style="fill:none;stroke:#000;stroke-width:2" d="M627,784 l-59,0 0,-40 -10,0 0,20 -20,0 0,-118 20,0 0,20 79,0 0,-20 19,0 0,118 -19,0 0,-20 -10,0 0,40" />
<path style="fill:none;stroke:#000;stroke-width:2" d="M637,744 l0,-78" />
<path style="fill:none;stroke:#000;stroke-width:2" d="M558,666 l0,78" />
<path style="fill:#000" d="M195,548 l-30,0 0,-20 30,0 0,20z" />
<path style="fill:#900" d="M312,479 l0,-10 10,0 0,10 -10,0z" />
<path style="fill:#090" d="M312,450 l0,-10 10,0 0,10 -10,0z" />
<path style="fill:#000" d="M519,764 l0,-118 19,0 0,118 -19,0z" />
<path style="fill:#e5e5e5" d="M823,587 l0,-118 29,0 0,-19 10,0 0,157 -10,0 0,-20 -29,0z" />
<path style="fill:#f2f2f2" d="M823,565 l0,-74 29,0 0,-12 10,0 0,99 -10,0 0,-13 -29,0z" />
<path style="fill:#fff" d="M823,539 l0,-22 29,0 0,-4 10,0 0,30 -10,0 0,-4 -29,0z" />
<path style="fill:none;stroke:#000;stroke-width:2" d="M823,587 l0,-118 29,0 0,-19 10,0 0,157 -10,0 0,-20 -29,0" />
<path style="fill:none;stroke:#000;stroke-width:2" d="M892,322 l19,0 0,-19 44,0 0,-30 -44,0 0,-19 -19,0 0,68" />
<path style="fill:none;stroke:#000;stroke-width:2" d="M902,195 l0,49 19,0 0,29 30,0 0,-29 19,0 0,-49 -68,0" />
<path style="fill:none;stroke:#000;stroke-width:2" d="M892,155 l19,0 0,-19 44,0 0,-30 -44,0 0,-19 -19,0 0,68" />
<path style="fill:none;stroke:#000;stroke-width:2" d="M902,28 l0,49 19,0 0,29 30,0 0,-29 19,0 0,-49 -68,0" />
<path style="fill:#e5e5e5;stroke:#000;stroke-width:2" d="M126,352 l25,0 0,-305 -25,0 0,305z" />
<path style="fill:#000" d="M131,57 l15,0 0,285 -15,0 0,-285z" />
<path style="fill:none;stroke:#f00;stroke-width:2" d="M136,337 l0,-275" />
<path style="fill:#ccc;stroke:#000;stroke-width:2" d="M214,204 l15,-35 34,-14 35,14 14,35 -14,35 -35,14 -34,-14 -15,-35z" />
<path style="fill:#999;stroke:#000;stroke-width:2" d="M524,84 l7,-19 20,-8 19,8 8,19 -8,19 -19,8 -20,-8 -7,-19z" />
<path style="fill:#999;stroke:#000;stroke-width:2" d="M597,84 l8,-19 19,-8 19,8 8,19 -8,19 -19,8 -19,-8 -8,-19z" />
<path style="fill:#999;stroke:#000;stroke-width:2" d="M671,84 l8,-19 19,-8 19,8 8,19 -8,19 -19,8 -19,-8 -8,-19z" />
<path style="fill:#999;stroke:#000;stroke-width:2" d="M744,84 l8,-19 19,-8 20,8 7,19 -7,19 -20,8 -19,-8 -8,-19z" />

</svg>
