 

<svg xmlns:agg="http://www.example.com" xmlns="http://www.w3.org/2000/svg" preserveAspectRatio="none" width="1.5701in" height="1.0750in" viewBox="0 0 999 684">

<path style="fill:#fff" d="M28,28 l942,0 0,628 -942,0 0,-628z" />
<path style="fill:#c00;fill-rule:evenodd" d="M28,28 l942,0 0,78 -59,-78 -353,0 -59,78 -59,-78 -353,0 -59,78 0,-78z M28,185 l118,-157 235,0 118,157 118,-157 235,0 118,157 0,78 -176,-235 -118,0 -177,235 -177,-235 -117,0 -177,235 0,-78z M28,342 l235,-314 236,314 236,-314 235,314 0,78 -235,-314 -236,314 -236,-314 -235,314 0,-78z M28,499 l235,-314 236,314 236,-314 235,314 0,79 -235,-315 -236,315 -236,-315 -235,315 0,-79z M28,656 l235,-314 236,314 236,-314 235,314 -59,0 -176,-236 -177,236 -118,0 -177,-236 -176,236 -59,0z M146,656 l117,-157 118,157 236,0 118,-157 117,157 -58,0 -59,-78 -59,78 -354,0 -59,-78 -58,78 -59,0z " />
<path style="fill:none;stroke:#000;stroke-width:2" d="M28,28 l942,0 0,628 -942,0 0,-628" />

</svg>
