 

<svg xmlns:agg="http://www.example.com" xmlns="http://www.w3.org/2000/svg" preserveAspectRatio="none" width="1.0405in" height="1.0750in" viewBox="0 0 966 998">

<path style="fill:#4c4c4c;stroke:#000;stroke-width:2" d="M144,657 l627,0 0,19 -627,0 0,-19z" />
<path style="fill:#b2b2b2" d="M531,41 l5,3 0,243 -5,3 -11,6 -16,4 -18,2 -23,2 -22,0 -21,-2 -19,-2 -15,-4 -11,-6 -6,-3 0,-243 6,-3 11,-6 15,-4 19,-1 21,-2 22,0 23,2 18,1 16,4 11,6z" />
<path style="fill:#b2b2b2;stroke:#000;stroke-width:2" d="M854,645 l-15,12 -761,0 -15,-12 -13,-20 -11,-30 -8,-36 -3,-39 0,-42 3,-39 8,-36 11,-30 13,-20 15,-12 761,0 15,12 13,20 11,30 8,36 4,39 0,42 -4,39 -8,36 -11,30 -13,20z" />
<path style="fill:#b8b8b8" d="M525,41 l6,3 0,243 -6,3 -11,6 -13,4 -19,2 -19,2 -20,0 -19,-2 -19,-2 -15,-4 -9,-6 -6,-3 0,-243 6,-3 9,-6 15,-4 19,-1 19,-2 20,0 19,2 19,1 13,4 11,6z" />
<path style="fill:#b8b8b8" d="M854,634 l-15,9 -761,0 -15,-9 -13,-19 -11,-28 -8,-32 -3,-37 0,-38 3,-37 8,-34 11,-26 13,-19 15,-11 761,0 15,11 13,19 11,26 8,34 4,37 0,38 -4,37 -8,32 -11,28 -13,19z" />
<path style="fill:#bababa" d="M520,41 l3,3 0,243 -3,3 -10,6 -13,4 -17,2 -19,2 -18,0 -18,-2 -16,-2 -14,-4 -9,-6 -5,-3 0,-243 5,-3 9,-6 14,-4 16,-1 18,-2 18,0 19,2 17,1 13,4 10,6z" />
<path style="fill:#bababa" d="M854,623 l-15,9 -761,0 -15,-9 -13,-17 -11,-24 -8,-32 -3,-34 0,-36 3,-34 8,-30 11,-24 13,-19 15,-9 761,0 15,9 13,19 11,24 8,30 4,34 0,36 -4,34 -8,32 -11,24 -13,17z" />
<path style="fill:#bfbfbf" d="M514,41 l4,3 0,243 -4,3 -10,6 -11,4 -15,2 -17,2 -17,0 -17,-2 -14,-2 -14,-4 -7,-6 -4,-3 0,-243 4,-3 7,-6 14,-4 14,-1 17,-2 17,0 17,2 15,1 11,4 10,6z" />
<path style="fill:#bfbfbf" d="M854,613 l-15,8 -761,0 -15,-8 -13,-16 -11,-23 -8,-28 -3,-30 0,-34 3,-30 8,-28 11,-23 13,-16 15,-8 761,0 15,8 13,16 11,23 8,28 4,30 0,34 -4,30 -8,28 -11,23 -13,16z" />
<path style="fill:#c4c4c4" d="M508,41 l4,3 0,243 -4,3 -7,6 -11,4 -14,2 -16,2 -16,0 -15,-2 -13,-2 -11,-4 -8,-6 -3,-3 0,-243 3,-3 8,-6 11,-4 13,-1 15,-2 16,0 16,2 14,1 11,4 7,6z" />
<path style="fill:#c4c4c4" d="M854,602 l-15,8 -761,0 -15,-8 -13,-15 -11,-20 -8,-25 -3,-28 0,-30 3,-28 8,-25 11,-20 13,-15 15,-8 761,0 15,8 13,15 11,20 8,25 4,28 0,30 -4,28 -8,25 -11,20 -13,15z" />
<path style="fill:#c7c7c7" d="M503,41 l3,3 0,243 -3,3 -8,6 -9,4 -13,2 -13,2 -14,0 -15,-2 -11,-2 -9,-4 -8,-6 -4,-3 0,-243 4,-3 8,-6 9,-4 11,-1 15,-2 14,0 13,2 13,1 9,4 8,6z" />
<path style="fill:#c7c7c7" d="M854,591 l-15,8 -761,0 -15,-8 -13,-13 -11,-19 -8,-23 -3,-24 0,-26 3,-26 8,-23 11,-19 13,-13 15,-6 761,0 15,6 13,13 11,19 8,23 4,26 0,26 -4,24 -8,23 -11,19 -13,13z" />
<path style="fill:#ccc" d="M497,41 l2,3 0,243 -2,3 -7,6 -8,4 -11,2 -11,2 -14,0 -11,-2 -11,-2 -10,-4 -5,-6 -4,-3 0,-243 4,-3 5,-6 10,-4 11,-1 11,-2 14,0 11,2 11,1 8,4 7,6z" />
<path style="fill:#ccc" d="M854,582 l-15,5 -761,0 -15,-5 -13,-13 -11,-16 -8,-20 -3,-23 0,-22 3,-23 8,-20 11,-18 13,-11 15,-5 761,0 15,5 13,11 11,18 8,20 4,23 0,22 -4,23 -8,20 -11,16 -13,13z" />
<path style="fill:#d1d1d1" d="M491,41 l2,3 0,243 -2,3 -5,6 -8,4 -9,2 -11,2 -10,0 -11,-2 -10,-2 -7,-4 -6,-6 -1,-3 0,-243 1,-3 6,-6 7,-4 10,-1 11,-2 10,0 11,2 9,1 8,4 5,6z" />
<path style="fill:#d1d1d1" d="M854,571 l-15,5 -761,0 -15,-5 -13,-10 -11,-15 -8,-17 -3,-21 0,-20 3,-19 8,-17 11,-15 13,-10 15,-5 761,0 15,5 13,10 11,15 8,17 4,19 0,20 -4,21 -8,17 -11,15 -13,10z" />
<path style="fill:#d4d4d4" d="M486,41 l2,3 0,243 -2,3 -6,6 -6,4 -7,2 -9,2 -10,0 -9,-2 -8,-2 -6,-4 -5,-6 -2,-3 0,-243 2,-3 5,-6 6,-4 8,-1 9,-2 10,0 9,2 7,1 6,4 6,6z" />
<path style="fill:#d4d4d4" d="M854,559 l-15,6 -761,0 -15,-6 -13,-7 -11,-14 -8,-15 -3,-17 0,-16 3,-17 8,-15 11,-12 13,-9 15,-4 761,0 15,4 13,9 11,12 8,15 4,17 0,16 -4,17 -8,15 -11,14 -13,7z" />
<path style="fill:#d9d9d9" d="M478,41 l4,3 0,243 -4,3 -2,6 -5,4 -8,2 -7,2 -8,0 -7,-2 -6,-2 -6,-4 -4,-6 -1,-3 0,-243 1,-3 4,-6 6,-4 6,-1 7,-2 8,0 7,2 8,1 5,4 2,6z" />
<path style="fill:#d9d9d9" d="M854,550 l-15,3 -761,0 -15,-3 -13,-8 -11,-11 -8,-11 -3,-14 0,-14 3,-14 8,-13 11,-9 13,-8 15,-3 761,0 15,3 13,8 11,9 8,13 4,14 0,14 -4,14 -8,11 -11,11 -13,8z" />
<path style="fill:#dedede" d="M474,41 l0,3 0,243 0,3 -3,6 -4,4 -6,2 -5,2 -6,0 -6,-2 -5,-2 -4,-4 -4,-6 -2,-3 0,-243 2,-3 4,-6 4,-4 5,-1 6,-2 6,0 5,2 6,1 4,4 3,6z" />
<path style="fill:#dedede" d="M854,538 l-15,2 -761,0 -15,-2 -13,-5 -11,-8 -8,-9 -3,-11 0,-12 3,-11 8,-9 11,-8 13,-5 15,-4 761,0 15,4 13,5 11,8 8,9 4,11 0,12 -4,11 -8,9 -11,8 -13,5z" />
<path style="fill:#e0e0e0" d="M469,41 l0,3 0,243 0,3 -4,6 -2,4 -3,2 -6,2 -4,0 -4,-2 -3,-2 -4,-4 -2,-6 0,-3 0,-243 0,-3 2,-6 4,-4 3,-1 4,-2 4,0 6,2 3,1 2,4 4,6z" />
<path style="fill:#e0e0e0" d="M854,527 l-15,2 -761,0 -15,-2 -13,-4 -11,-5 -8,-8 -3,-7 0,-8 3,-9 8,-6 11,-5 13,-6 15,-2 761,0 15,2 13,6 11,5 8,6 4,9 0,8 -4,7 -8,8 -11,5 -13,4z" />
<ellipse style="fill:#e5e5e5" cx="453" cy="166" rx="10" ry="138" />
<ellipse style="fill:#e5e5e5" cx="459" cy="499" rx="431" ry="19" />
<path style="fill:none;stroke:#000;stroke-width:2" d="M531,41 l5,3 0,243 -5,3 -11,6 -16,4 -18,2 -23,2 -22,0 -21,-2 -19,-2 -15,-4 -11,-6 -6,-3 0,-243 6,-3 11,-6 15,-4 19,-1 21,-2 22,0 23,2 18,1 16,4 11,6" />
<path style="fill:#000" d="M606,852 l0,79 -6,0 0,-79 6,0z" />
<path style="fill:#000" d="M488,852 l0,79 -6,0 0,-79 6,0z" />
<path style="fill:#000" d="M369,852 l0,79 -4,0 0,-79 4,0z" />
<path style="fill:#000" d="M253,852 l0,79 -6,0 0,-79 6,0z" />
<path style="fill:#000" d="M595,694 l79,0 0,94 -79,0 0,-94z" />
<path style="fill:#000" d="M606,788 l58,0 0,25 -58,0 0,-25z" />
<path style="fill:#000" d="M615,813 l40,0 0,118 -40,0 0,-118z" />
<path style="fill:#000" d="M600,931 l68,0 0,9 -68,0 0,-9z" />
<path style="fill:#000" d="M478,694 l79,0 0,94 -79,0 0,-94z" />
<path style="fill:#000" d="M488,788 l58,0 0,25 -58,0 0,-25z" />
<path style="fill:#000" d="M497,813 l39,0 0,118 -39,0 0,-118z" />
<path style="fill:#000" d="M482,931 l69,0 0,9 -69,0 0,-9z" />
<path style="fill:#000" d="M360,694 l79,0 0,94 -79,0 0,-94z" />
<path style="fill:#000" d="M369,788 l60,0 0,25 -60,0 0,-25z" />
<path style="fill:#000" d="M381,813 l39,0 0,118 -39,0 0,-118z" />
<path style="fill:#000" d="M365,931 l68,0 0,9 -68,0 0,-9z" />
<path style="fill:#000" d="M242,694 l78,0 0,94 -78,0 0,-94z" />
<path style="fill:#000" d="M253,788 l58,0 0,25 -58,0 0,-25z" />
<path style="fill:#000" d="M262,813 l40,0 0,118 -40,0 0,-118z" />
<path style="fill:#000" d="M247,931 l70,0 0,9 -70,0 0,-9z" />
<path style="fill:#000" d="M266,283 l0,411 -9,0 0,-411 9,0z" />
<path style="fill:#000" d="M567,283 l0,423 -10,0 0,-423 10,0z" />
<path style="fill:#000" d="M908,569 l30,0 0,9 -30,0 0,-9z" />
<path style="fill:#000" d="M938,578 l0,180 -9,0 0,-180 9,0z" />
<path style="fill:#000" d="M871,749 l58,0 0,9 -58,0 0,-9z" />
<path style="fill:#999;stroke:#000;stroke-width:2" d="M880,569 l28,0 0,9 -28,0 0,-9z" />
<path style="fill:#999;stroke:#000;stroke-width:2" d="M884,493 l21,0 0,12 -21,0 0,-12z" />
<path style="fill:#999;stroke:#000;stroke-width:2" d="M144,940 l627,0 0,30 -627,0 0,-30z" />
<path style="fill:#b2b2b2;stroke:#000;stroke-width:2" d="M104,617 l0,342 40,0 0,-186 627,0 0,186 40,0 0,-342 -40,0 0,137 -627,0 0,-137 -40,0z" />
<path style="fill:#ccc;stroke:#000;stroke-width:2" d="M144,734 l627,0 0,20 -627,0 0,-20z" />
<path style="fill:#ccc;stroke:#000;stroke-width:2" d="M752,734 l119,0 0,158 -119,0 0,-158z" />
<path style="fill:#ccc;stroke:#000;stroke-width:2" d="M46,734 l119,0 0,158 -119,0 0,-158z" />
<path style="fill:#c7c7c7" d="M752,847 l119,-66 0,111 -119,0 0,-45z" />
<path style="fill:#c7c7c7" d="M46,847 l119,-66 0,111 -119,0 0,-45z" />
<path style="fill:#c2c2c2" d="M752,852 l119,-65 0,105 -119,0 0,-40z" />
<path style="fill:#c2c2c2" d="M46,852 l119,-65 0,105 -119,0 0,-40z" />
<path style="fill:#bdbdbd" d="M752,861 l119,-65 0,96 -119,0 0,-31z" />
<path style="fill:#bdbdbd" d="M46,861 l119,-65 0,96 -119,0 0,-31z" />
<path style="fill:#333" d="M86,813 l39,0 0,58 -39,0 0,-58z" />
<path style="fill:#333" d="M771,813 l79,0 0,39 -79,0 0,-39z" />
<path style="fill:#f60" d="M771,754 l79,0 0,19 -79,0 0,-19z" />
<path style="fill:#f60" d="M65,754 l79,0 0,19 -79,0 0,-19z" />
<path style="fill:#000" d="M86,959 l79,0 0,11 -79,0 0,-11z" />
<path style="fill:#000" d="M752,959 l79,0 0,11 -79,0 0,-11z" />
<path style="fill:#000" d="M183,843 l569,0 0,9 -569,0 0,-9z" />
<path style="fill:#000" d="M193,852 l0,88 -10,0 0,-88 10,0z" />
<path style="fill:none;stroke:#999;stroke-width:2" d="M411,520 l-8,-10 8,-11 11,0 7,11 -7,10 -11,0" />
<path style="fill:none;stroke:#999;stroke-width:2" d="M469,520 l-6,-10 6,-11 13,0 6,11 -6,10 -13,0" />
<path style="fill:none;stroke:#999;stroke-width:2" d="M411,255 l-8,-9 8,-12 11,0 7,12 -7,9 -11,0" />
<path style="fill:none;stroke:#999;stroke-width:2" d="M469,255 l-6,-9 6,-12 13,0 6,12 -6,9 -13,0" />
<path style="fill:#a6a6a6" d="M418,304 l0,43 30,6 10,0 30,-6 0,-43 -70,0z" />
<path style="fill:#b2b2b2" d="M429,304 l0,43 21,6 8,0 20,-6 0,-43 -49,0z" />
<path style="fill:#bfbfbf" d="M444,304 l0,43 8,6 2,0 9,-6 0,-43 -19,0z" />
<path style="fill:none;stroke:#000;stroke-width:2" d="M418,304 l0,43 30,6 10,0 30,-6 0,-43 -70,0" />
<path style="fill:#ccc;stroke:#000;stroke-width:2" d="M531,185 l15,0 0,171 -15,0 0,-171z" />
<path style="fill:#ccc;stroke:#000;stroke-width:2" d="M360,185 l15,0 0,171 -15,0 0,-171z" />
<path style="fill:#ccc" d="M521,356 l34,0 0,30 -34,0 0,-30z" />
<path style="fill:#ccc" d="M351,356 l33,0 0,30 -33,0 0,-30z" />
<path style="fill:none;stroke:#000;stroke-width:2" d="M351,386 l0,-30 33,0 0,30" />
<path style="fill:none;stroke:#000;stroke-width:2" d="M521,386 l0,-30 36,0 0,30" />
<path style="fill:#ccc;stroke:#000;stroke-width:2" d="M439,645 l39,0 0,36 -39,0 0,-36z" />
<path style="fill:none;stroke:#999;stroke-width:2" d="M557,353 l-45,112 -9,122 -40,64 -84,-30 -92,-128 -21,-156" />
<path style="fill:none;stroke:#7f7f7f;stroke-width:2" d="M443,651 l-102,-9 -75,-21" />
<path style="fill:#4c4c4c;stroke:#000;stroke-width:2" d="M565,529 l16,-13 0,-19 -16,-11 -21,0 0,-36 -17,0 0,66 15,13 23,0z" />
<path style="fill:#4c4c4c;stroke:#000;stroke-width:2" d="M245,377 l-11,-13 0,-19 11,-11 17,0 0,-36 15,0 0,66 -13,13 -19,0z" />
<path style="fill:#4c4c4c;stroke:#000;stroke-width:2" d="M245,645 l-11,-11 0,-19 11,-13 17,0 0,-33 15,0 0,65 -13,11 -19,0z" />
<path style="fill:none;stroke:#000;stroke-width:2" d="M409,146 l-64,0" />
<path style="fill:none;stroke:#000;stroke-width:2" d="M409,116 l-64,0" />
<path style="fill:none;stroke:#000;stroke-width:2" d="M409,88 l-64,0" />
<path style="fill:none;stroke:#000;stroke-width:2" d="M905,493 l0,-140 -21,0 0,-31 -113,0 0,19" />
<path style="fill:#b2b2b2" d="M467,170 l-28,0 -25,-15 -15,-24 0,-29 15,-26 25,-13 28,0 26,13 13,26 0,29 -13,24 -26,15z" />
<circle style="fill:#bfbfbf" cx="448" cy="111" r="39" />
<circle style="fill:#ccc" cx="446" cy="109" r="26" />
<path style="fill:none;stroke:#000;stroke-width:2" d="M467,170 l-28,0 -25,-15 -15,-24 0,-29 15,-26 25,-13 28,0 26,13 13,26 0,29 -13,24 -26,15" />

</svg>
