 

<svg xmlns:agg="http://www.example.com" xmlns="http://www.w3.org/2000/svg" preserveAspectRatio="none" width="1.1686in" height="1.0750in" viewBox="0 0 999 919">

<path style="fill:#e5e5cb" d="M67,65 l0,806 864,0 0,-806 -864,0 -40,-38 944,0 0,864 -944,0 0,-864 40,38z" />
<path style="fill:none;stroke:#000;stroke-width:2" d="M27,27 l944,0 0,864 -944,0 0,-864" />
<path style="fill:none;stroke:#000;stroke-width:2" d="M67,125 l413,0 0,746 38,0 0,-746 413,0 0,-60 -864,0 0,60" />
<path style="fill:none;stroke:#000;stroke-width:2" d="M67,65 l864,0 0,808 -864,0 0,-808" />
<path style="fill:#ccccb2" d="M67,125 l413,0 0,746 38,0 0,-746 413,0 0,-60 -864,0 0,60z" />
<path style="fill:#b2b298" d="M67,105 l864,0 0,20 -864,0 0,-20z" />
<path style="fill:#ffffe5" d="M58,65 l9,0 0,806 -9,0 0,-806z" />
<path style="fill:#ffffe5" d="M931,65 l9,0 0,806 -9,0 0,-806z" />
<path style="fill:#ffffe5" d="M940,56 l0,9 -882,0 0,-9 882,0z" />
<path style="fill:#ffffe5" d="M493,65 l12,0 0,806 -12,0 0,-806z" />
<path style="fill:none;stroke:#b2b265;stroke-width:2" d="M58,871 l0,-815 882,0 0,815" />
<path style="fill:#e5e5cb" d="M523,125 l402,0 15,216 -432,0 15,-216z" />
<path style="fill:#e5e5cb" d="M71,125 l404,0 15,216 -432,0 13,-216z" />
<path style="fill:#e5e5cb" d="M523,374 l402,0 15,217 -432,0 15,-217z" />
<path style="fill:#e5e5cb" d="M71,374 l404,0 15,217 -432,0 13,-217z" />
<path style="fill:#e5e5cb;stroke:#000;stroke-width:2" d="M523,625 l402,0 15,217 -432,0 15,-217z" />
<path style="fill:#e5e5cb;stroke:#000;stroke-width:2" d="M71,625 l404,0 15,217 -432,0 13,-217z" />
<path style="fill:#d9d9bf" d="M523,125 l402,0 2,42 -411,100 7,-142z" />
<path style="fill:#d9d9bf" d="M71,125 l404,0 1,42 -411,100 6,-142z" />
<path style="fill:#d9d9bf" d="M523,374 l402,0 2,44 -411,100 7,-144z" />
<path style="fill:#d9d9bf" d="M71,374 l404,0 1,44 -411,100 6,-144z" />
<path style="fill:#d9d9bf" d="M523,625 l402,0 2,44 -411,98 7,-142z" />
<path style="fill:#d9d9bf" d="M71,625 l404,0 1,44 -411,98 6,-142z" />
<path style="fill:#f2f2d8" d="M929,191 l11,150 -432,0 8,-49 413,-101z" />
<path style="fill:#f2f2d8" d="M476,193 l14,148 -432,0 7,-49 411,-99z" />
<path style="fill:#f2f2d8" d="M929,443 l11,148 -432,0 8,-49 413,-99z" />
<path style="fill:#f2f2d8" d="M476,443 l14,148 -432,0 7,-49 411,-99z" />
<path style="fill:#f2f2d8" d="M929,693 l11,149 -432,0 8,-49 413,-100z" />
<path style="fill:#f2f2d8" d="M476,693 l14,149 -432,0 7,-49 411,-100z" />
<path style="fill:#99997f" d="M523,125 l402,0 2,27 -405,0 1,-27z" />
<path style="fill:#99997f" d="M71,125 l404,0 1,27 -405,0 0,-27z" />
<path style="fill:#99997f" d="M523,374 l402,0 2,29 -405,0 1,-29z" />
<path style="fill:#99997f" d="M71,374 l404,0 1,29 -405,0 0,-29z" />
<path style="fill:#99997f" d="M523,625 l402,0 2,29 -405,0 1,-29z" />
<path style="fill:#99997f" d="M71,625 l404,0 1,29 -405,0 0,-29z" />
<path style="fill:#000" d="M67,150 l426,0 0,34 -426,0 0,-34z" />
<path style="fill:#000" d="M46,150 l12,0 0,34 -12,0 0,-34z" />
<path style="fill:#000" d="M940,150 l12,0 0,34 -12,0 0,-34z" />
<path style="fill:#000" d="M505,150 l426,0 0,34 -426,0 0,-34z" />
<path style="fill:#000" d="M67,401 l426,0 0,34 -426,0 0,-34z" />
<path style="fill:#000" d="M46,401 l12,0 0,34 -12,0 0,-34z" />
<path style="fill:#000" d="M940,401 l12,0 0,34 -12,0 0,-34z" />
<path style="fill:#000" d="M505,401 l426,0 0,34 -426,0 0,-34z" />
<path style="fill:#000" d="M67,650 l426,0 0,36 -426,0 0,-36z" />
<path style="fill:#000" d="M46,650 l12,0 0,36 -12,0 0,-36z" />
<path style="fill:#000" d="M940,650 l12,0 0,36 -12,0 0,-36z" />
<path style="fill:#000" d="M505,650 l426,0 0,36 -426,0 0,-36z" />
<path style="fill:none;stroke:#000;stroke-width:2" d="M523,374 l402,0 15,217 -432,0 15,-217" />
<path style="fill:none;stroke:#000;stroke-width:2" d="M71,374 l404,0 15,217 -432,0 13,-217" />
<path style="fill:none;stroke:#000;stroke-width:2" d="M523,125 l402,0 15,216 -432,0 15,-216" />
<path style="fill:none;stroke:#000;stroke-width:2" d="M71,125 l404,0 15,216 -432,0 13,-216" />

</svg>
