 

<svg xmlns:agg="http://www.example.com" xmlns="http://www.w3.org/2000/svg" preserveAspectRatio="none" width="1.5326in" height="1.0750in" viewBox="0 0 998 700">

<path style="fill:#4c4c4c" d="M271,28 l5,0 0,40 -5,0 0,-40z" />
<path style="fill:#4c4c4c" d="M433,43 l10,0 0,25 -10,0 0,-25z" />
<path style="fill:#4c4c4c" d="M707,58 l5,0 0,41 -5,0 0,-41z" />
<path style="fill:#4c4c4c" d="M590,68 l11,0 0,26 -11,0 0,-26z" />
<path style="fill:#666;stroke:#000;stroke-width:2" d="M535,94 l232,0 0,76 -232,0 0,-76z" />
<path style="fill:#666;stroke:#000;stroke-width:2" d="M220,68 l315,0 0,86 -315,0 0,-86z" />
<path style="fill:#858585" d="M535,98 l233,0 0,59 -233,0 0,-59z" />
<path style="fill:#858585" d="M221,73 l314,0 0,67 -314,0 0,-67z" />
<path style="fill:#a6a6a6" d="M535,103 l233,0 0,42 -233,0 0,-42z" />
<path style="fill:#a6a6a6" d="M221,78 l314,0 0,48 -314,0 0,-48z" />
<path style="fill:#c4c4c4" d="M535,107 l233,0 0,25 -233,0 0,-25z" />
<path style="fill:#c4c4c4" d="M221,83 l314,0 0,29 -314,0 0,-29z" />
<path style="fill:#fff" d="M535,112 l232,0 0,8 -232,0 0,-8z" />
<path style="fill:#fff" d="M220,89 l315,0 0,10 -315,0 0,-10z" />
<path style="fill:#4c4c4c;stroke:#000;stroke-width:2" d="M732,129 l15,0 0,66 -15,0 0,-66z" />
<path style="fill:#4c4c4c;stroke:#000;stroke-width:2" d="M555,129 l15,0 0,66 -15,0 0,-66z" />
<path style="fill:#4c4c4c;stroke:#000;stroke-width:2" d="M499,109 l15,0 0,86 -15,0 0,-86z" />
<path style="fill:#4c4c4c;stroke:#000;stroke-width:2" d="M241,109 l15,0 0,86 -15,0 0,-86z" />
<path style="fill:#999" d="M241,109 l15,0 0,35 -15,0 0,-35z" />
<path style="fill:#999" d="M499,109 l15,0 0,35 -15,0 0,-35z" />
<path style="fill:#999" d="M732,129 l15,0 0,36 -15,0 0,-36z" />
<path style="fill:#999" d="M555,129 l15,0 0,36 -15,0 0,-36z" />
<path style="fill:#e5e5e5;stroke:#7f7f7f;stroke-width:2" d="M28,296 l10,0 0,41 -10,0 0,-41z" />
<path style="fill:#b2b2b2" d="M89,286 l10,0 0,223 -10,0 0,-223z" />
<path style="fill:#e5e5e5;stroke:#000;stroke-width:2" d="M38,276 l51,0 0,243 -51,0 0,-243z" />
<path style="fill:none;stroke:#000;stroke-width:2" d="M48,519 l0,-243" />
<path style="fill:#ccc;stroke:#000;stroke-width:2" d="M99,408 l0,-51 -20,0 0,20 4,5 6,26 10,0z" />
<path style="fill:#4c4c4c" d="M139,236 l791,0 0,425 -791,0 0,-425z" />
<path style="fill:#e5e5e5;stroke:#000;stroke-width:2" d="M545,195 l425,0 0,446 -425,0 0,-446z" />
<path style="fill:#e5e5e5;stroke:#000;stroke-width:2" d="M99,195 l425,0 0,446 -425,0 0,-446z" />
<path style="fill:#dbdbdb" d="M550,494 l415,-96 0,238 -415,0 0,-142z" />
<path style="fill:#dbdbdb" d="M104,494 l415,-96 0,238 -415,0 0,-142z" />
<path style="fill:#d1d1d1" d="M550,535 l415,-97 0,198 -415,0 0,-101z" />
<path style="fill:#d1d1d1" d="M104,535 l415,-97 0,198 -415,0 0,-101z" />
<path style="fill:#c7c7c7" d="M104,555 l415,-97 0,178 -415,0 0,-81z" />
<path style="fill:#c7c7c7" d="M550,555 l415,-97 0,178 -415,0 0,-81z" />
<path style="fill:#ccc;stroke:#000;stroke-width:2" d="M99,641 l40,0 0,30 -40,0 0,-30z" />
<path style="fill:#ccc;stroke:#000;stroke-width:2" d="M484,641 l40,0 0,30 -40,0 0,-30z" />
<path style="fill:#ccc;stroke:#000;stroke-width:2" d="M545,641 l40,0 0,30 -40,0 0,-30z" />
<path style="fill:#ccc;stroke:#000;stroke-width:2" d="M930,641 l40,0 0,30 -40,0 0,-30z" />
<path style="fill:#666;stroke:#000;stroke-width:2" d="M79,519 l10,0 0,41 -10,0 0,-41z" />
<path style="fill:none;stroke:#b2b2b2;stroke-width:2" d="M950,398 l-385,0" />
<path style="fill:none;stroke:#b2b2b2;stroke-width:2" d="M504,398 l-385,0" />
<path style="fill:none;stroke:#b2b2b2;stroke-width:2" d="M241,620 l0,-222" />
<path style="fill:none;stroke:#b2b2b2;stroke-width:2" d="M382,620 l0,-222" />
<path style="fill:none;stroke:#b2b2b2;stroke-width:2" d="M687,620 l0,-222" />
<path style="fill:none;stroke:#b2b2b2;stroke-width:2" d="M828,620 l0,-222" />
<path style="fill:none;stroke:#b2b2b2;stroke-width:2" d="M311,398 l0,-183" />
<path style="fill:none;stroke:#b2b2b2;stroke-width:2" d="M757,398 l0,-183" />
<path style="fill:#4c4c4c;stroke:#000;stroke-width:2" d="M808,418 l101,0 0,142 -101,0 0,-142z" />
<path style="fill:none;stroke:#7f7f7f;stroke-width:2" d="M899,555 l-81,-30" />
<path style="fill:none;stroke:#7f7f7f;stroke-width:2" d="M818,555 l81,-30" />
<path style="fill:none;stroke:#7f7f7f;stroke-width:2" d="M899,496 l-81,-29" />
<path style="fill:none;stroke:#7f7f7f;stroke-width:2" d="M818,496 l81,-29" />
<path style="fill:none;stroke:#7f7f7f;stroke-width:2" d="M899,525 l-81,-29" />
<path style="fill:none;stroke:#7f7f7f;stroke-width:2" d="M818,525 l81,-29" />
<path style="fill:none;stroke:#7f7f7f;stroke-width:2" d="M899,467 l-81,-29" />
<path style="fill:none;stroke:#7f7f7f;stroke-width:2" d="M818,467 l81,-29" />
<path style="fill:none;stroke:#7f7f7f;stroke-width:2" d="M899,540 l-81,-29" />
<path style="fill:none;stroke:#7f7f7f;stroke-width:2" d="M818,540 l81,-29" />
<path style="fill:none;stroke:#7f7f7f;stroke-width:2" d="M899,481 l-81,-29" />
<path style="fill:none;stroke:#7f7f7f;stroke-width:2" d="M818,481 l81,-29" />
<path style="fill:none;stroke:#7f7f7f;stroke-width:2" d="M899,511 l-81,-30" />
<path style="fill:none;stroke:#7f7f7f;stroke-width:2" d="M818,511 l81,-30" />
<path style="fill:none;stroke:#7f7f7f;stroke-width:2" d="M899,452 l-81,-29" />
<path style="fill:none;stroke:#7f7f7f;stroke-width:2" d="M818,452 l81,-29" />

</svg>
