 

<svg xmlns:agg="http://www.example.com" xmlns="http://www.w3.org/2000/svg" preserveAspectRatio="none" width="1.5701in" height="1.0750in" viewBox="0 0 999 684">

<path style="fill:#b2b2b2;stroke:#000;stroke-width:2" d="M28,28 l942,0 0,628 -942,0 0,-628z" />
<path style="fill:#666;stroke:#000;stroke-width:2" d="M67,617 l39,-39 0,-472 354,0 39,-39 -432,0 0,550z" />
<path style="fill:#ccc;stroke:#000;stroke-width:2" d="M499,67 l-40,39 0,472 -353,0 -39,39 432,0 0,-550z" />
<path style="fill:#666;stroke:#000;stroke-width:2" d="M578,617 l39,-39 0,-472 275,0 39,-39 -353,0 0,550z" />
<path style="fill:#ccc;stroke:#000;stroke-width:2" d="M931,67 l-40,39 0,472 -275,0 -39,39 354,0 0,-550z" />
<path style="fill:#fc0;stroke:#000;stroke-width:2" d="M106,106 l354,0 0,452 -354,0 0,-452z" />
<path style="fill:#fc0;stroke:#000;stroke-width:2" d="M617,106 l275,0 0,452 -275,0 0,-452z" />
<path style="fill:none;stroke:#000;stroke-width:2" d="M617,146 l275,0" />
<path style="fill:none;stroke:#000;stroke-width:2" d="M617,187 l275,0" />
<path style="fill:none;stroke:#000;stroke-width:2" d="M617,228 l275,0" />
<path style="fill:none;stroke:#000;stroke-width:2" d="M617,270 l275,0" />
<path style="fill:none;stroke:#000;stroke-width:2" d="M617,311 l275,0" />
<path style="fill:none;stroke:#000;stroke-width:2" d="M617,352 l275,0" />
<path style="fill:none;stroke:#000;stroke-width:2" d="M617,394 l275,0" />
<path style="fill:none;stroke:#000;stroke-width:2" d="M617,435 l275,0" />
<path style="fill:none;stroke:#000;stroke-width:2" d="M617,476 l275,0" />
<path style="fill:none;stroke:#000;stroke-width:2" d="M617,518 l275,0" />
<path style="fill:none;stroke:#000;stroke-width:2" d="M106,146 l354,0" />
<path style="fill:none;stroke:#000;stroke-width:2" d="M106,187 l354,0" />
<path style="fill:none;stroke:#000;stroke-width:2" d="M106,228 l354,0" />
<path style="fill:none;stroke:#000;stroke-width:2" d="M106,270 l354,0" />
<path style="fill:none;stroke:#000;stroke-width:2" d="M106,311 l354,0" />
<path style="fill:none;stroke:#000;stroke-width:2" d="M106,352 l354,0" />
<path style="fill:none;stroke:#000;stroke-width:2" d="M106,394 l354,0" />
<path style="fill:none;stroke:#000;stroke-width:2" d="M106,435 l354,0" />
<path style="fill:none;stroke:#000;stroke-width:2" d="M106,476 l354,0" />
<path style="fill:none;stroke:#000;stroke-width:2" d="M106,518 l354,0" />
<path style="fill:none;stroke:#000;stroke-width:2" d="M636,558 l0,-452" />
<path style="fill:none;stroke:#000;stroke-width:2" d="M655,106 l0,452" />
<path style="fill:none;stroke:#000;stroke-width:2" d="M675,558 l0,-452" />
<path style="fill:none;stroke:#000;stroke-width:2" d="M695,106 l0,452" />
<path style="fill:none;stroke:#000;stroke-width:2" d="M715,558 l0,-452" />
<path style="fill:none;stroke:#000;stroke-width:2" d="M734,106 l0,452" />
<path style="fill:none;stroke:#000;stroke-width:2" d="M754,558 l0,-452" />
<path style="fill:none;stroke:#000;stroke-width:2" d="M773,106 l0,452" />
<path style="fill:none;stroke:#000;stroke-width:2" d="M832,558 l0,-452" />
<path style="fill:none;stroke:#000;stroke-width:2" d="M852,106 l0,452" />
<path style="fill:none;stroke:#000;stroke-width:2" d="M872,558 l0,-452" />
<path style="fill:none;stroke:#000;stroke-width:2" d="M126,558 l0,-452" />
<path style="fill:none;stroke:#000;stroke-width:2" d="M146,106 l0,452" />
<path style="fill:none;stroke:#000;stroke-width:2" d="M165,558 l0,-452" />
<path style="fill:none;stroke:#000;stroke-width:2" d="M185,106 l0,452" />
<path style="fill:none;stroke:#000;stroke-width:2" d="M205,558 l0,-452" />
<path style="fill:none;stroke:#000;stroke-width:2" d="M224,106 l0,452" />
<path style="fill:none;stroke:#000;stroke-width:2" d="M244,558 l0,-452" />
<path style="fill:none;stroke:#000;stroke-width:2" d="M263,106 l0,452" />
<path style="fill:none;stroke:#000;stroke-width:2" d="M283,558 l0,-452" />
<path style="fill:none;stroke:#000;stroke-width:2" d="M303,106 l0,452" />
<path style="fill:none;stroke:#000;stroke-width:2" d="M362,558 l0,-452" />
<path style="fill:none;stroke:#000;stroke-width:2" d="M381,106 l0,452" />
<path style="fill:none;stroke:#000;stroke-width:2" d="M401,558 l0,-452" />
<path style="fill:none;stroke:#000;stroke-width:2" d="M420,106 l0,452" />
<path style="fill:none;stroke:#000;stroke-width:2" d="M440,558 l0,-452" />
<path style="fill:#999;stroke:#000;stroke-width:2" d="M813,106 l-19,0 0,472 19,0 0,-472z" />
<path style="fill:#999;stroke:#000;stroke-width:2" d="M342,106 l-20,0 0,472 20,0 0,-472z" />
<path style="fill:#4c4c4c" d="M945,106 l10,0 0,10 -10,0 0,-10z" />
<path style="fill:#4c4c4c" d="M945,224 l10,0 0,10 -10,0 0,-10z" />
<path style="fill:#4c4c4c" d="M945,342 l10,0 0,10 -10,0 0,-10z" />
<path style="fill:#4c4c4c" d="M945,460 l10,0 0,9 -10,0 0,-9z" />
<path style="fill:#4c4c4c" d="M945,578 l10,0 0,9 -10,0 0,-9z" />
<path style="fill:#4c4c4c" d="M43,106 l9,0 0,10 -9,0 0,-10z" />
<path style="fill:#4c4c4c" d="M43,224 l9,0 0,10 -9,0 0,-10z" />
<path style="fill:#4c4c4c" d="M43,342 l9,0 0,10 -9,0 0,-10z" />
<path style="fill:#4c4c4c" d="M43,460 l9,0 0,9 -9,0 0,-9z" />
<path style="fill:#4c4c4c" d="M43,578 l9,0 0,9 -9,0 0,-9z" />
<path style="fill:#4c4c4c" d="M82,43 l10,0 0,9 -10,0 0,-9z" />
<path style="fill:#4c4c4c" d="M200,43 l9,0 0,9 -9,0 0,-9z" />
<path style="fill:#4c4c4c" d="M317,43 l10,0 0,9 -10,0 0,-9z" />
<path style="fill:#4c4c4c" d="M435,43 l10,0 0,9 -10,0 0,-9z" />
<path style="fill:#4c4c4c" d="M553,43 l10,0 0,9 -10,0 0,-9z" />
<path style="fill:#4c4c4c" d="M671,43 l10,0 0,9 -10,0 0,-9z" />
<path style="fill:#4c4c4c" d="M789,43 l9,0 0,9 -9,0 0,-9z" />
<path style="fill:#4c4c4c" d="M906,43 l10,0 0,9 -10,0 0,-9z" />
<path style="fill:#4c4c4c" d="M82,632 l10,0 0,9 -10,0 0,-9z" />
<path style="fill:#4c4c4c" d="M200,632 l9,0 0,9 -9,0 0,-9z" />
<path style="fill:#4c4c4c" d="M317,632 l10,0 0,9 -10,0 0,-9z" />
<path style="fill:#4c4c4c" d="M435,632 l10,0 0,9 -10,0 0,-9z" />
<path style="fill:#4c4c4c" d="M553,632 l10,0 0,9 -10,0 0,-9z" />
<path style="fill:#4c4c4c" d="M671,632 l10,0 0,9 -10,0 0,-9z" />
<path style="fill:#4c4c4c" d="M789,632 l9,0 0,9 -9,0 0,-9z" />
<path style="fill:#4c4c4c" d="M906,632 l10,0 0,9 -10,0 0,-9z" />
<path style="fill:#4c4c4c" d="M514,106 l10,0 0,10 -10,0 0,-10z" />
<path style="fill:#4c4c4c" d="M514,224 l10,0 0,10 -10,0 0,-10z" />
<path style="fill:#4c4c4c" d="M514,342 l10,0 0,10 -10,0 0,-10z" />
<path style="fill:#4c4c4c" d="M514,460 l10,0 0,9 -10,0 0,-9z" />
<path style="fill:#4c4c4c" d="M514,578 l10,0 0,9 -10,0 0,-9z" />
<path style="fill:#4c4c4c" d="M553,106 l10,0 0,10 -10,0 0,-10z" />
<path style="fill:#4c4c4c" d="M553,224 l10,0 0,10 -10,0 0,-10z" />
<path style="fill:#4c4c4c" d="M553,342 l10,0 0,10 -10,0 0,-10z" />
<path style="fill:#4c4c4c" d="M553,460 l10,0 0,9 -10,0 0,-9z" />
<path style="fill:#4c4c4c" d="M553,578 l10,0 0,9 -10,0 0,-9z" />

</svg>
