 

<svg xmlns:agg="http://www.example.com" xmlns="http://www.w3.org/2000/svg" preserveAspectRatio="none" width="1.4172in" height="1.0750in" viewBox="0 0 998 757">

<path style="fill:#333" d="M867,572 l0,132 -15,0 0,-132 15,0z" />
<path style="fill:#333" d="M160,288 l678,0 0,9 -678,0 0,-9z" />
<path style="fill:#8c8c8c" d="M145,297 l707,0 0,432 -707,0 0,-432z" />
<path style="fill:#878787" d="M145,605 l707,-181 0,305 -707,0 0,-124z" />
<path style="fill:#828282" d="M145,622 l707,-179 0,286 -707,0 0,-107z" />
<path style="fill:#7d7d7d" d="M145,648 l707,-179 0,260 -707,0 0,-81z" />
<path style="fill:none;stroke:#000;stroke-width:2" d="M145,297 l707,0 0,432 -707,0 0,-432" />
<path style="fill:none;stroke:#333;stroke-width:2" d="M695,316 l138,0 0,394 -138,0 0,-394" />
<path style="fill:none;stroke:#333;stroke-width:2" d="M441,316 l215,0 0,394 -215,0 0,-394" />
<path style="fill:none;stroke:#333;stroke-width:2" d="M224,316 l177,0 0,394 -177,0 0,-394" />
<circle style="fill:#333" cx="548" cy="620" r="19" />
<path style="fill:#7f7f7f;stroke:#000;stroke-width:2" d="M47,307 l98,0 0,422 -98,0 0,-422z" />
<path style="fill:#8c8c8c" d="M28,503 l117,0 0,226 -117,0 0,-226z" />
<path style="fill:#4c4c4c" d="M28,503 l117,0 -4,11 -104,0 0,34 104,0 0,15 -104,0 0,40 104,0 0,19 -104,0 0,97 -9,10 0,-226z" />
<path style="fill:#b2b2b2" d="M37,542 l104,0 0,10 -104,0 0,-10z" />
<path style="fill:#b2b2b2" d="M37,591 l104,0 0,21 -104,0 0,-21z" />
<path style="fill:#858585" d="M37,650 l104,0 0,36 -104,0 0,-36z" />
<path style="fill:#7d7d7d" d="M37,686 l104,0 0,33 -104,0 0,-33z" />
<path style="fill:none;stroke:#000;stroke-width:2" d="M28,503 l117,0 0,226 -117,0 0,-226" />
<path style="fill:#999" d="M264,28 l250,0 0,260 -250,0 0,-260z" />
<path style="fill:#949494" d="M264,213 l250,-110 0,185 -250,0 0,-75z" />
<path style="fill:#8f8f8f" d="M264,224 l250,-110 0,174 -250,0 0,-64z" />
<path style="fill:#8a8a8a" d="M264,239 l250,-108 0,157 -250,0 0,-49z" />
<path style="fill:none;stroke:#000;stroke-width:2" d="M264,28 l250,0 0,260 -250,0 0,-260" />
<path style="fill:#666;stroke:#000;stroke-width:2" d="M194,288 l70,-58 0,-10 -80,68 10,0z" />
<path style="fill:#666;stroke:#000;stroke-width:2" d="M582,288 l-68,-58 0,-10 77,68 -9,0z" />
<path style="fill:#7f7f7f;stroke:#000;stroke-width:2" d="M716,209 l92,0 0,79 -92,0 0,-79z" />
<path style="fill:#e5e5e5;stroke:#000;stroke-width:2" d="M774,254 l-9,-11 0,-13 9,-10 13,0 12,10 0,13 -12,11 -13,0z" />
<path style="fill:#e5e5e5;stroke:#000;stroke-width:2" d="M735,254 l-10,-11 0,-13 10,-10 15,0 9,10 0,13 -9,11 -15,0z" />
<path style="fill:#4c4c4c;stroke:#000;stroke-width:2" d="M852,439 l24,-19 0,15 21,0 0,-113 -21,0 0,15 -24,-15 0,117z" />
<path style="fill:#999;stroke:#000;stroke-width:2" d="M891,426 l60,-21 0,-19 -60,0 0,40z" />
<path style="fill:#7f7f7f" d="M897,337 l73,0 0,49 -73,0 0,-49z" />
<path style="fill:#919191" d="M897,341 l73,0 0,39 -73,0 0,-39z" />
<path style="fill:#a6a6a6" d="M897,346 l73,0 0,29 -73,0 0,-29z" />
<path style="fill:#b8b8b8" d="M897,350 l73,0 0,21 -73,0 0,-21z" />
<path style="fill:#ccc" d="M897,356 l73,0 0,9 -73,0 0,-9z" />
<path style="fill:none;stroke:#000;stroke-width:2" d="M897,337 l73,0 0,49 -73,0 0,-49" />
<path style="fill:#ccc" d="M352,135 l89,0 0,59 -89,0 0,-59z" />
<path style="fill:#ccc" d="M288,322 l49,0 0,15 -49,0 0,-15z" />
<path style="fill:#ccc" d="M523,322 l49,0 0,15 -49,0 0,-15z" />
<path style="fill:#ccc" d="M740,322 l49,0 0,15 -49,0 0,-15z" />
<path style="fill:#ccc" d="M729,263 l24,0 0,10 -24,0 0,-10z" />
<path style="fill:#ccc" d="M768,263 l25,0 0,10 -25,0 0,-10z" />
<path style="fill:#000" d="M392,175 l9,0 0,9 -9,0 0,-9z" />
<path style="fill:#000" d="M420,145 l9,0 0,11 -9,0 0,-11z" />
<path style="fill:#000" d="M392,145 l9,0 0,11 -9,0 0,-11z" />
<path style="fill:#000" d="M361,145 l10,0 0,11 -10,0 0,-11z" />

</svg>
