 

<svg xmlns:agg="http://www.example.com" xmlns="http://www.w3.org/2000/svg" preserveAspectRatio="none" width="0.7368in" height="1.0750in" viewBox="0 0 684 998">

<path style="fill:#9cc" d="M28,28 l628,0 0,942 -628,0 0,-942z" />
<path style="fill:#94c7c7" d="M28,580 l628,-394 0,784 -628,0 0,-390z" />
<path style="fill:#8fc2c2" d="M28,604 l628,-394 0,760 -628,0 0,-366z" />
<path style="fill:#8abdbd" d="M28,663 l628,-394 0,701 -628,0 0,-307z" />
<path style="fill:none;stroke:#699;stroke-width:2" d="M65,478 l572,0 0,-432" />
<path style="fill:none;stroke:#699;stroke-width:2" d="M65,606 l572,0" />
<path style="fill:#263333" d="M86,616 l511,0 0,349 -511,0 0,-349z" />
<path style="fill:#699" d="M56,28 l9,0 0,942 -9,0 0,-942z" />
<path style="fill:none;stroke:#000;stroke-width:2" d="M65,970 l0,-942" />
<path style="fill:none;stroke:#000;stroke-width:2" d="M28,28 l628,0 0,942 -628,0 0,-942" />
<path style="fill:#366" d="M105,578 l471,0 0,15 -471,0 0,-15z" />
<path style="fill:none;stroke:#cff;stroke-width:2" d="M105,578 l0,-79 471,0" />
<path style="fill:none;stroke:#033;stroke-width:2" d="M105,578 l471,0 0,-79" />
<path style="fill:#000" d="M312,67 l59,0 0,19 -59,0 0,-19z" />
<path style="fill:#e5e5e5" d="M533,592 l9,0 0,14 -9,0 0,-14z" />
<path style="fill:#b2b2b2" d="M533,582 l9,0 0,10 -9,0 0,-10z" />
<path style="fill:none;stroke:#000;stroke-width:2" d="M126,656 l313,0" />
<path style="fill:none;stroke:#000;stroke-width:2" d="M537,676 l-236,0" />
<path style="fill:none;stroke:#000;stroke-width:2" d="M126,793 l137,0" />
<path style="fill:none;stroke:#000;stroke-width:2" d="M184,814 l157,0" />
<path style="fill:none;stroke:#000;stroke-width:2" d="M401,872 l157,0" />
<path style="fill:none;stroke:#000;stroke-width:2" d="M380,931 l-156,0" />
<path style="fill:none;stroke:#000;stroke-width:2" d="M518,912 l0,-198" />
<path style="fill:none;stroke:#000;stroke-width:2" d="M263,852 l0,-157" />
<path style="fill:none;stroke:#000;stroke-width:2" d="M165,695 l0,-58" />

</svg>
