 

<svg xmlns:agg="http://www.example.com" xmlns="http://www.w3.org/2000/svg" preserveAspectRatio="none" width="1.4833in" height="1.0750in" viewBox="0 0 999 724">

<path style="fill:#330" d="M499,204 l393,0 0,177 -393,0 0,-177z" />
<path style="fill:#7f7f59;stroke:#000;stroke-width:2" d="M519,106 l-177,0 0,216 118,0 0,-98 59,0 0,-118z" />
<path style="fill:#b2b29b" d="M519,126 l-157,0 0,177 78,0 0,-99 79,0 0,-78z" />
<path style="fill:#ccccbd" d="M519,146 l-138,0 0,137 39,0 0,-98 99,0 0,-39z" />
<path style="fill:none;stroke:#000;stroke-width:2" d="M342,106 l118,118" />
<path style="fill:#4c4c16;stroke:#000;stroke-width:2" d="M67,283 l530,0 0,98 -530,0 0,-98z" />
<path style="fill:#666638" d="M67,303 l530,0 0,78 -530,0 0,-78z" />
<path style="fill:#7f7f59" d="M67,327 l530,0 0,54 -530,0 0,-54z" />
<path style="fill:#99997a" d="M67,352 l530,0 0,29 -530,0 0,-29z" />
<path style="fill:#666638;stroke:#000;stroke-width:2" d="M48,381 l215,0 0,-59 275,0 0,59 413,0 0,275 -903,0 0,-275z" />
<path style="fill:#7a7a51" d="M48,404 l235,0 0,-77 236,0 0,77 432,0 0,228 -903,0 0,-228z" />
<path style="fill:#8f8f6e" d="M48,428 l903,0 0,181 -903,0 0,-181z" />
<path style="fill:#a3a387" d="M48,451 l903,0 0,134 -903,0 0,-134z" />
<path style="fill:#b8b8a4" d="M48,475 l903,0 0,87 -903,0 0,-87z" />
<path style="fill:#ccccbd" d="M48,499 l903,0 0,39 -903,0 0,-39z" />
<path style="fill:#99997a;stroke:#000;stroke-width:2" d="M28,479 l20,0 0,216 -20,0 0,-216z" />
<path style="fill:#ccccbd;stroke:#000;stroke-width:2" d="M28,361 l20,0 0,118 -20,0 0,-118z" />
<path style="fill:#99997a;stroke:#000;stroke-width:2" d="M950,479 l20,0 0,216 -20,0 0,-216z" />
<path style="fill:#ccccbd;stroke:#000;stroke-width:2" d="M950,361 l20,0 0,118 -20,0 0,-118z" />
<path style="fill:#b2b29b;stroke:#000;stroke-width:2" d="M303,185 l196,0 0,255 -196,0 0,-255z" />
<path style="fill:#b2b29b;stroke:#000;stroke-width:2" d="M342,460 l118,0 0,137 -118,0 0,-137z" />
<path style="fill:#7f7f59" d="M519,244 l0,-157 137,-40 0,-19 79,0 39,19 0,236 -39,20 -79,0 0,-20 -137,-39z" />
<path style="fill:#b2b29b;stroke:#000;stroke-width:2" d="M794,224 l0,-196 137,0 0,196 -137,0z" />
<path style="fill:#99997a" d="M519,232 l0,-134 137,-34 0,-16 79,0 39,16 0,202 -39,17 -79,0 0,-17 -137,-34z" />
<path style="fill:#b2b29b" d="M519,221 l0,-112 137,-28 0,-14 79,0 39,14 0,168 -39,14 -79,0 0,-14 -137,-28z" />
<path style="fill:#ccccbd" d="M519,199 l0,-68 137,-17 0,-8 79,0 39,8 0,102 -39,8 -79,0 0,-8 -137,-17z" />
<path style="fill:#e5e5dd" d="M519,176 l0,-22 137,-6 0,-3 79,0 39,3 0,34 -39,3 -79,0 0,-3 -137,-6z" />
<path style="fill:none;stroke:#000;stroke-width:2" d="M519,244 l0,-157 137,-40 0,-19 79,0 39,19 0,236 -39,20 -79,0 0,-20 -137,-39" />
<path style="fill:none;stroke:#000;stroke-width:2" d="M656,283 l0,-236" />
<path style="fill:none;stroke:#000;stroke-width:2" d="M735,303 l0,-275" />
<path style="fill:none;stroke:#000;stroke-width:2" d="M676,303 l0,-275" />
<path style="fill:none;stroke:#000;stroke-width:2" d="M715,28 l0,275" />
<path style="fill:#7f7f59" d="M754,303 l118,0 0,78 -118,0 0,-78z" />
<path style="fill:#99997a" d="M754,308 l118,0 0,68 -118,0 0,-68z" />
<path style="fill:#b2b29b" d="M754,314 l118,0 0,56 -118,0 0,-56z" />
<path style="fill:#ccccbd" d="M754,325 l118,0 0,34 -118,0 0,-34z" />
<path style="fill:#e5e5dd" d="M754,336 l118,0 0,12 -118,0 0,-12z" />
<path style="fill:none;stroke:#000;stroke-width:2" d="M754,303 l118,0 0,78 -118,0 0,-78" />
<path style="fill:#666638;stroke:#000;stroke-width:2" d="M754,322 l-117,0 0,-78 -10,0 0,88 127,0 0,-10z" />
<path style="fill:#99997a;stroke:#000;stroke-width:2" d="M661,342 l93,0 0,24 -93,0 0,-24z" />
<path style="fill:#99997a;stroke:#000;stroke-width:2" d="M656,381 l0,-78 -19,0 0,9 9,0 0,69 10,0z" />
<path style="fill:#99997a;stroke:#000;stroke-width:2" d="M627,303 l-59,0 0,9 59,0 0,-9z" />
<path style="fill:#4c4c4c" d="M366,249 l69,0 0,93 -69,0 0,-93z" />
<path style="fill:#e5e5e5" d="M372,254 l58,0 0,83 -58,0 0,-83z" />
<path style="fill:#4c4c4c" d="M332,401 l138,0 0,29 -138,0 0,-29z" />
<path style="fill:#900" d="M342,411 l59,0 0,9 -59,0 0,-9z" />
<path style="fill:#b2b29b;stroke:#000;stroke-width:2" d="M48,263 l19,0 0,118 -19,0 0,-118z" />
<path style="fill:none;stroke:#fff;stroke-width:2" d="M489,195 l-177,0 0,235" />
<path style="fill:none;stroke:#fff;stroke-width:2" d="M450,469 l-98,0 0,118" />
<path style="fill:#000" d="M431,558 l9,0 0,9 -9,0 0,-9z" />
<path style="fill:#000" d="M362,489 l9,0 0,10 -9,0 0,-10z" />
<path style="fill:#000" d="M431,489 l9,0 0,10 -9,0 0,-10z" />
<path style="fill:#4c4c16" d="M342,597 l118,0 0,5 -118,0 0,-5z" />
<path style="fill:#4c4c16" d="M302,440 l197,0 0,10 -197,0 0,-10z" />
<path style="fill:none;stroke:#fff;stroke-width:2" d="M803,214 l0,-176 118,0" />

</svg>
