 

<svg xmlns:agg="http://www.example.com" xmlns="http://www.w3.org/2000/svg" preserveAspectRatio="none" width="1.1686in" height="1.0750in" viewBox="0 0 999 919">

<path style="fill:#ccccb2" d="M67,126 l413,0 0,745 38,0 0,-745 413,0 0,-61 -864,0 0,61z" />
<path style="fill:#e5e5cb" d="M518,126 l413,0 0,750 -413,0 0,-750z" />
<path style="fill:#e5e5cb" d="M67,126 l413,0 0,750 -413,0 0,-750z" />
<path style="fill:#d9d9bf" d="M518,126 l413,0 0,62 -413,94 0,-156z" />
<path style="fill:#d9d9bf" d="M518,375 l413,0 0,64 -413,92 0,-156z" />
<path style="fill:#d9d9bf" d="M518,625 l413,0 0,65 -413,92 0,-157z" />
<path style="fill:#d9d9bf" d="M67,126 l413,0 0,62 -413,94 0,-156z" />
<path style="fill:#d9d9bf" d="M67,375 l413,0 0,64 -413,92 0,-156z" />
<path style="fill:#d9d9bf" d="M67,625 l413,0 0,65 -413,92 0,-157z" />
<path style="fill:#f2f2d8" d="M931,710 l0,166 -413,0 0,-68 413,-98z" />
<path style="fill:#f2f2d8" d="M931,459 l0,166 -413,0 0,-67 413,-99z" />
<path style="fill:#f2f2d8" d="M931,209 l0,166 -413,0 0,-68 413,-98z" />
<path style="fill:#f2f2d8" d="M480,710 l0,166 -413,0 0,-68 413,-98z" />
<path style="fill:#f2f2d8" d="M480,459 l0,166 -413,0 0,-67 413,-99z" />
<path style="fill:#f2f2d8" d="M480,209 l0,166 -413,0 0,-68 413,-98z" />
<path style="fill:none;stroke:#000;stroke-width:2" d="M518,625 l413,0 0,251 -413,0 0,-251" />
<path style="fill:none;stroke:#000;stroke-width:2" d="M518,126 l413,0 0,249 -413,0 0,-249" />
<path style="fill:none;stroke:#000;stroke-width:2" d="M518,375 l413,0 0,250 -413,0 0,-250" />
<path style="fill:none;stroke:#000;stroke-width:2" d="M67,625 l413,0 0,251 -413,0 0,-251" />
<path style="fill:none;stroke:#000;stroke-width:2" d="M67,126 l413,0 0,249 -413,0 0,-249" />
<path style="fill:none;stroke:#000;stroke-width:2" d="M67,375 l413,0 0,250 -413,0 0,-250" />
<path style="fill:#e5e5cb" d="M67,65 l0,806 864,0 0,-806 -864,0 -40,-38 944,0 0,864 -944,0 0,-864 40,38z" />
<path style="fill:none;stroke:#000;stroke-width:2" d="M27,27 l944,0 0,864 -944,0 0,-864" />
<path style="fill:none;stroke:#000;stroke-width:2" d="M67,126 l413,0 0,745 38,0 0,-745 413,0 0,-61 -864,0 0,61" />
<path style="fill:none;stroke:#000;stroke-width:2" d="M67,65 l864,0 0,807 -864,0 0,-807" />
<path style="fill:#b2b298" d="M67,105 l864,0 0,21 -864,0 0,-21z" />
<path style="fill:#ffffe5" d="M58,65 l9,0 0,806 -9,0 0,-806z" />
<path style="fill:#ffffe5" d="M931,65 l9,0 0,806 -9,0 0,-806z" />
<path style="fill:#ffffe5" d="M940,56 l0,9 -882,0 0,-9 882,0z" />
<path style="fill:#ffffe5" d="M493,65 l12,0 0,806 -12,0 0,-806z" />
<path style="fill:none;stroke:#b2b265;stroke-width:2" d="M58,871 l0,-815 882,0 0,815" />
<path style="fill:#000" d="M67,150 l426,0 0,34 -426,0 0,-34z" />
<path style="fill:#000" d="M46,150 l12,0 0,34 -12,0 0,-34z" />
<path style="fill:#000" d="M940,150 l12,0 0,34 -12,0 0,-34z" />
<path style="fill:#000" d="M505,150 l426,0 0,34 -426,0 0,-34z" />
<path style="fill:#000" d="M67,399 l426,0 0,36 -426,0 0,-36z" />
<path style="fill:#000" d="M46,399 l12,0 0,36 -12,0 0,-36z" />
<path style="fill:#000" d="M940,399 l12,0 0,36 -12,0 0,-36z" />
<path style="fill:#000" d="M505,399 l426,0 0,36 -426,0 0,-36z" />
<path style="fill:#000" d="M67,650 l426,0 0,34 -426,0 0,-34z" />
<path style="fill:#000" d="M46,650 l12,0 0,34 -12,0 0,-34z" />
<path style="fill:#000" d="M940,650 l12,0 0,34 -12,0 0,-34z" />
<path style="fill:#000" d="M505,650 l426,0 0,34 -426,0 0,-34z" />

</svg>
