 

<svg xmlns:agg="http://www.example.com" xmlns="http://www.w3.org/2000/svg" preserveAspectRatio="none" width="1.6083in" height="0.7229in" viewBox="0 0 999 449">

<path style="fill:#ff0;stroke:#000;stroke-width:2" d="M106,381 l-27,-9 -28,-26 -18,-41 -5,-46 0,-70 5,-46 18,-41 28,-26 30,-9 780,0 30,9 28,26 17,41 6,46 0,70 -6,46 -17,41 -28,26 -27,9 -786,0z" />
<path style="fill:#ff0;stroke:#000;stroke-width:2" d="M185,420 l0,-392 39,0 0,392 -39,0z" />
<path style="fill:#ff0;stroke:#000;stroke-width:2" d="M106,420 l0,-392 40,0 0,392 -40,0z" />
<path style="fill:#f00" d="M28,362 l196,0 668,-40 0,-39 -472,-20 472,-19 0,-39 -472,-20 472,-20 0,-39 -668,-39 -196,0 0,39 196,0 511,20 -472,19 0,40 472,19 -472,20 0,39 472,20 -511,19 -196,0 0,40z" />

</svg>
