 

<svg xmlns:agg="http://www.example.com" xmlns="http://www.w3.org/2000/svg" preserveAspectRatio="none" width="1.6083in" height="0.5957in" viewBox="0 0 999 370">

<path style="fill:#7f7f7f" d="M48,342 l0,-314 39,0 0,49 824,0 0,-49 40,0 0,314 -40,0 0,-49 -824,0 0,49 -39,0z" />
<path style="fill:#949494" d="M48,318 l0,-267 39,0 0,42 825,0 0,-42 39,0 0,267 -39,0 0,-42 -825,0 0,42 -39,0z" />
<path style="fill:#a8a8a8" d="M48,302 l0,-235 39,0 0,36 825,0 0,-36 39,0 0,235 -39,0 0,-36 -825,0 0,36 -39,0z" />
<path style="fill:#bdbdbd" d="M48,287 l0,-205 39,0 0,32 825,0 0,-32 39,0 0,205 -39,0 0,-32 -825,0 0,32 -39,0z" />
<path style="fill:#d1d1d1" d="M48,258 l0,-147 39,0 0,23 825,0 0,-23 39,0 0,147 -39,0 0,-23 -825,0 0,23 -39,0z" />
<path style="fill:#e5e5e5" d="M48,214 l0,-59 39,0 0,9 824,0 0,-9 40,0 0,59 -40,0 0,-9 -824,0 0,9 -39,0z" />
<path style="fill:none;stroke:#000;stroke-width:2" d="M87,293 l0,-216" />
<path style="fill:none;stroke:#000;stroke-width:2" d="M911,293 l0,-216" />
<path style="fill:#999;stroke:#000;stroke-width:2" d="M950,308 l0,-64 20,0 0,64 -20,0z" />
<path style="fill:#999;stroke:#000;stroke-width:2" d="M950,126 l0,-64 20,0 0,64 -20,0z" />
<path style="fill:#999;stroke:#000;stroke-width:2" d="M28,308 l0,-64 20,0 0,64 -20,0z" />
<path style="fill:#999;stroke:#000;stroke-width:2" d="M28,126 l0,-64 20,0 0,64 -20,0z" />
<path style="fill:#ccc" d="M28,288 l0,-25 20,0 0,25 -20,0z" />
<path style="fill:#ccc" d="M28,106 l0,-25 20,0 0,25 -20,0z" />
<path style="fill:#ccc" d="M950,288 l0,-25 20,0 0,25 -20,0z" />
<path style="fill:#ccc" d="M950,106 l0,-25 20,0 0,25 -20,0z" />
<path style="fill:none;stroke:#000;stroke-width:2" d="M48,342 l0,-314 39,0 0,49 824,0 0,-49 40,0 0,314 -40,0 0,-49 -824,0 0,49 -39,0" />

</svg>
