 

<svg xmlns:agg="http://www.example.com" xmlns="http://www.w3.org/2000/svg" preserveAspectRatio="none" width="1.6083in" height="0.9418in" viewBox="0 0 999 585">

<path style="fill:#f2e5cc" d="M46,27 l906,0 0,491 -30,0 -206,-392 0,392 -670,0 0,-491z" />
<path style="fill:#ede0c7" d="M952,129 l0,389 -30,0 -144,-275 174,-114z" />
<path style="fill:#ede0c7" d="M46,376 l334,-205 0,347 -334,0 0,-142z" />
<path style="fill:#ede0c7" d="M380,376 l334,-205 0,347 -334,0 0,-142z" />
<path style="fill:#e8dbc2" d="M952,150 l0,368 -30,0 -136,-260 166,-108z" />
<path style="fill:#e8dbc2" d="M380,397 l334,-205 0,326 -334,0 0,-121z" />
<path style="fill:#e8dbc2" d="M46,397 l334,-205 0,326 -334,0 0,-121z" />
<path style="fill:#e3d6bd" d="M380,427 l334,-205 0,296 -334,0 0,-91z" />
<path style="fill:#e3d6bd" d="M46,426 l334,-204 0,296 -334,0 0,-92z" />
<path style="fill:#e3d6bd" d="M952,178 l0,340 -30,0 -125,-241 155,-99z" />
<path style="fill:none;stroke:#fff;stroke-width:2" d="M695,341 l0,158 -275,0" />
<path style="fill:none;stroke:#fff;stroke-width:2" d="M695,46 l0,276 -275,0" />
<path style="fill:none;stroke:#fff;stroke-width:2" d="M361,46 l0,453 -294,0" />
<path style="fill:none;stroke:#fff;stroke-width:2" d="M829,256 l41,-40 42,40" />
<path style="fill:none;stroke:#fff;stroke-width:2" d="M135,46 l0,453" />
<path style="fill:none;stroke:#fff;stroke-width:2" d="M126,114 l0,85 -50,0" />
<path style="fill:none;stroke:#000;stroke-width:2" d="M429,401 l40,0 0,-4 -40,0 0,-3 40,0 0,-5 -40,0 0,-1 40,0 0,-4 -40,0 0,-4 40,0 0,-4 -40,0 0,-1 40,0 0,-4 -40,0 0,-4 40,0 0,-2 -40,0 0,-4 40,0" />
<path style="fill:none;stroke:#000;stroke-width:2" d="M476,401 l40,0 0,-4 -40,0 0,-3 40,0 0,-5 -40,0 0,-1 40,0 0,-4 -40,0 0,-4 40,0 0,-4 -40,0 0,-1 40,0 0,-4 -40,0 0,-4 40,0 0,-2 -40,0 0,-4 40,0" />
<path style="fill:none;stroke:#000;stroke-width:2" d="M525,401 l38,0 0,-4 -38,0 0,-3 38,0 0,-5 -38,0 0,-1 38,0 0,-4 -38,0 0,-4 38,0 0,-4 -38,0 0,-1 38,0 0,-4 -38,0 0,-4 38,0 0,-2 -38,0 0,-4 38,0" />
<path style="fill:none;stroke:#000;stroke-width:2" d="M601,401 l38,0 0,-4 -38,0 0,-3 38,0 0,-5 -38,0 0,-1 38,0 0,-4 -38,0 0,-4 38,0 0,-4 -38,0 0,-1 38,0 0,-4 -38,0 0,-4 38,0 0,-2 -38,0 0,-4 38,0" />
<path style="fill:none;stroke:#000;stroke-width:2" d="M648,401 l38,0 0,-4 -38,0 0,-3 38,0 0,-5 -38,0 0,-1 38,0 0,-4 -38,0 0,-4 38,0 0,-4 -38,0 0,-1 38,0 0,-4 -38,0 0,-4 38,0 0,-2 -38,0 0,-4 38,0" />
<path style="fill:none;stroke:#000;stroke-width:2" d="M46,27 l906,0 0,491 -30,0 -206,-392 0,392 -670,0 0,-491" />
<path style="fill:none;stroke:#000;stroke-width:2" d="M716,126 l0,-99" />
<path style="fill:#ccc" d="M27,518 l944,0 0,39 -944,0 0,-39z" />
<path style="fill:#000" d="M46,535 l12,0 0,5 -12,0 0,-5z" />
<path style="fill:#000" d="M76,535 l10,0 0,5 -10,0 0,-5z" />
<path style="fill:#000" d="M371,527 l79,0 0,21 -79,0 0,-21z" />
<path style="fill:#000" d="M689,527 l80,0 0,21 -80,0 0,-21z" />
<path style="fill:#000" d="M912,535 l10,0 0,5 -10,0 0,-5z" />
<path style="fill:#000" d="M940,535 l12,0 0,5 -12,0 0,-5z" />
<path style="fill:#e5e5e5" d="M426,282 l73,0 0,34 -73,0 0,-34z" />
<path style="fill:#ffb27f" d="M426,273 l73,0 0,9 -73,0 0,-9z" />
<path style="fill:none;stroke:#7f7f7f;stroke-width:2" d="M426,316 l73,0 0,-43" />
<path style="fill:none;stroke:#bfb299;stroke-width:2" d="M126,114 l-50,0 0,85" />
<path style="fill:none;stroke:#bfb299;stroke-width:2" d="M695,341 l-275,0 0,158" />
<path style="fill:none;stroke:#bfb299;stroke-width:2" d="M361,46 l-294,0 0,453" />
<path style="fill:none;stroke:#bfb299;stroke-width:2" d="M380,518 l0,-491" />
<path style="fill:none;stroke:#bfb299;stroke-width:2" d="M695,46 l-275,0 0,276" />
<path style="fill:none;stroke:#bfb299;stroke-width:2" d="M829,256 l41,41 42,-41" />
<path style="fill:none;stroke:#bfb299;stroke-width:2" d="M144,46 l0,453" />
<path style="fill:#998c73" d="M401,273 l19,0 0,9 -19,0 0,-9z" />
<path style="fill:#998c73" d="M401,444 l19,0 0,10 -19,0 0,-10z" />
<path style="fill:#998c73" d="M131,459 l19,0 0,10 -19,0 0,-10z" />
<path style="fill:#998c73" d="M131,273 l19,0 0,9 -19,0 0,-9z" />
<path style="fill:#998c73" d="M131,76 l19,0 0,10 -19,0 0,-10z" />
<path style="fill:#998c73" d="M401,92 l19,0 0,9 -19,0 0,-9z" />
<path style="fill:#998c73" d="M401,371 l19,0 0,9 -19,0 0,-9z" />
<path style="fill:#d9ccb3;stroke:#000;stroke-width:2" d="M37,41 l9,0 0,215 -9,0 0,-215z" />
<path style="fill:#d9ccb3;stroke:#000;stroke-width:2" d="M37,265 l9,0 0,213 -9,0 0,-213z" />
<path style="fill:none;stroke:#665940;stroke-width:2" d="M46,37 l906,0" />
<path style="fill:none;stroke:#665940;stroke-width:2" d="M371,518 l0,-481" />
<path style="fill:#7f7f7f" d="M27,552 l944,0 0,5 -944,0 0,-5z" />
<path style="fill:#7f7f7f" d="M27,518 l944,0 0,6 -944,0 0,-6z" />
<path style="fill:none;stroke:#000;stroke-width:2" d="M27,518 l944,0 0,39 -944,0 0,-39" />

</svg>
