 

<svg xmlns:agg="http://www.example.com" xmlns="http://www.w3.org/2000/svg" preserveAspectRatio="none" width="0.8512in" height="1.0750in" viewBox="0 0 791 999">

<path style="fill:#000" d="M28,952 l735,0 0,5 -735,0 0,-5z" />
<path style="fill:#ccc" d="M28,88 l735,0 0,864 -735,0 0,-864z" />
<path style="fill:#c7c7c7" d="M28,567 l735,-368 0,754 -735,0 0,-386z" />
<path style="fill:#c2c2c2" d="M28,678 l735,-368 0,643 -735,0 0,-275z" />
<path style="fill:#bdbdbd" d="M28,789 l735,-369 0,533 -735,0 0,-164z" />
<path style="fill:none;stroke:#000;stroke-width:2" d="M28,88 l735,0 0,864 -735,0 0,-864" />
<path style="fill:#b2b2b2" d="M82,363 l93,0 0,92 -93,0 0,-92z" />
<path style="fill:none;stroke:#fff;stroke-width:2" d="M82,455 l0,-92 93,0" />
<path style="fill:none;stroke:#000;stroke-width:2" d="M82,455 l93,0 0,-92" />
<path style="fill:#333" d="M211,124 l92,0 0,128 -92,0 0,-128z" />
<circle style="fill:#333" cx="275" cy="537" r="27" />
<path style="fill:#333" d="M82,731 l38,0 0,55 -38,0 0,-55z" />
<path style="fill:none;stroke:#000;stroke-width:2" d="M469,216 l111,0 0,-9 -111,0 0,-10 111,0 0,-9 -111,0 0,-9 111,0 0,-8 -111,0 0,-9 111,0 0,-10 -111,0 0,-9 111,0 0,-10 -111,0 0,-9 111,0" />
<path style="fill:none;stroke:#000;stroke-width:2" d="M284,603 l-147,0 0,9 147,0 0,9 -147,0 0,10 147,0 0,7 -147,0 0,10 147,0 0,9 -147,0 0,10 147,0 0,9 -147,0 0,10 147,0 0,9 -147,0 0,10 147,0 0,7 -147,0 0,10 147,0 0,9 -147,0 0,9 147,0 0,10 -147,0 0,9 147,0 0,10 -147,0 0,9 147,0 0,8 -147,0 0,9 147,0 0,9 -147,0 0,10 147,0 0,9 -147,0 0,10 147,0 0,9 -147,0 0,10 147,0 0,7 -147,0 0,10 147,0 0,9 -147,0 0,10 147,0 0,9 -147,0" />
<path style="fill:none;stroke:#000;stroke-width:2" d="M507,897 l146,0 0,-9 -146,0 0,-10 146,0 0,-9 -146,0 0,-10 146,0 0,-7 -146,0 0,-10 146,0 0,-9 -146,0 0,-10 146,0 0,-9 -146,0 0,-10 146,0 0,-9 -146,0 0,-9 146,0 0,-8 -146,0 0,-9 146,0 0,-10 -146,0 0,-9 146,0 0,-10 -146,0 0,-9 146,0 0,-9 -146,0 0,-10 146,0 0,-7 -146,0 0,-10 146,0 0,-9 -146,0 0,-10 146,0 0,-9 -146,0 0,-10 146,0 0,-9 -146,0 0,-10 146,0 0,-7 -146,0 0,-10 146,0 0,-9 -146,0 0,-9 146,0 0,-10 -146,0 0,-9 146,0 0,-10 -146,0 0,-9 146,0 0,-7 -146,0 0,-10 146,0 0,-9 -146,0 0,-10 146,0 0,-9 -146,0 0,-10 146,0 0,-9 -146,0 0,-10 146,0 0,-9 -146,0 0,-8 146,0" />
<path style="fill:none;stroke:#7f7f7f;stroke-width:2" d="M28,105 l735,0" />
<path style="fill:#e5e5e5" d="M229,455 l93,0 0,36 -93,0 0,-36z" />
<path style="fill:#333;stroke:#000;stroke-width:2" d="M101,952 l74,0 0,18 -74,0 0,-18z" />
<path style="fill:#333;stroke:#000;stroke-width:2" d="M616,952 l73,0 0,18 -73,0 0,-18z" />
<path style="fill:#333" d="M192,63 l11,0 0,25 -11,0 0,-25z" />
<path style="fill:#c93;stroke:#000;stroke-width:2" d="M203,63 l0,-11 11,0 0,-13 -11,0 0,-11 -11,0 0,11 -13,0 0,13 13,0 0,11 11,0z" />
<path style="fill:#fc0" d="M182,48 l0,-5 12,0 0,5 -12,0z" />
<path style="fill:#fc0" d="M194,31 l5,0 0,31 -5,0 0,-31z" />
<path style="fill:#fc0" d="M199,48 l0,-5 13,0 0,5 -13,0z" />

</svg>
