 

<svg xmlns:agg="http://www.example.com" xmlns="http://www.w3.org/2000/svg" preserveAspectRatio="none" width="1.6083in" height="0.5329in" viewBox="0 0 999 331">

<path style="fill:#666" d="M970,96 l-19,0 0,-24 19,0 0,24z" />
<path style="fill:#666" d="M970,283 l-19,0 0,-25 19,0 0,25z" />
<path style="fill:#666" d="M970,190 l-19,0 0,-25 19,0 0,25z" />
<path style="fill:#666" d="M48,96 l-20,0 0,-24 20,0 0,24z" />
<path style="fill:#666" d="M48,283 l-20,0 0,-25 20,0 0,25z" />
<path style="fill:#666" d="M48,190 l-20,0 0,-25 20,0 0,25z" />
<path style="fill:#b2b2b2" d="M970,72 l-19,0 0,-25 19,0 0,25z" />
<path style="fill:#b2b2b2" d="M970,165 l-19,0 0,-24 19,0 0,24z" />
<path style="fill:#b2b2b2" d="M970,258 l-19,0 0,-24 19,0 0,24z" />
<path style="fill:#b2b2b2" d="M48,72 l-20,0 0,-25 20,0 0,25z" />
<path style="fill:#b2b2b2" d="M48,165 l-20,0 0,-24 20,0 0,24z" />
<path style="fill:#b2b2b2" d="M48,258 l-20,0 0,-24 20,0 0,24z" />
<path style="fill:#666" d="M48,303 l0,-275 39,0 0,46 824,0 0,-46 40,0 0,275 -40,0 0,-46 -824,0 0,46 -39,0z" />
<path style="fill:#757575" d="M48,287 l0,-244 39,0 0,41 825,0 0,-41 39,0 0,244 -39,0 0,-41 -825,0 0,41 -39,0z" />
<path style="fill:#858585" d="M48,271 l0,-212 39,0 0,35 825,0 0,-35 39,0 0,212 -39,0 0,-35 -825,0 0,35 -39,0z" />
<path style="fill:#969696" d="M48,255 l0,-180 39,0 0,30 825,0 0,-30 39,0 0,180 -39,0 0,-30 -825,0 0,30 -39,0z" />
<path style="fill:#a6a6a6" d="M48,239 l0,-148 39,0 0,24 825,0 0,-24 39,0 0,148 -39,0 0,-24 -825,0 0,24 -39,0z" />
<path style="fill:#b5b5b5" d="M48,223 l0,-117 39,0 0,20 825,0 0,-20 39,0 0,117 -39,0 0,-19 -825,0 0,19 -39,0z" />
<path style="fill:#c4c4c4" d="M48,208 l0,-86 39,0 0,14 825,0 0,-14 39,0 0,86 -39,0 0,-15 -825,0 0,15 -39,0z" />
<path style="fill:#d6d6d6" d="M48,192 l0,-54 39,0 0,9 825,0 0,-9 39,0 0,54 -39,0 0,-9 -825,0 0,9 -39,0z" />
<path style="fill:#e5e5e5" d="M48,177 l0,-23 39,0 0,4 824,0 0,-4 40,0 0,23 -40,0 0,-4 -824,0 0,4 -39,0z" />
<path style="fill:none;stroke:#000;stroke-width:2" d="M48,303 l0,-275 39,0 0,46 824,0 0,-46 40,0 0,275 -40,0 0,-46 -824,0 0,46 -39,0" />
<path style="fill:none;stroke:#000;stroke-width:2" d="M87,257 l0,-183" />
<path style="fill:none;stroke:#000;stroke-width:2" d="M911,257 l0,-183" />

</svg>
