 

<svg xmlns:agg="http://www.example.com" xmlns="http://www.w3.org/2000/svg" preserveAspectRatio="none" width="1.1003in" height="1.0750in" viewBox="0 0 999 976">

<path style="fill:#e5e5e5" d="M256,893 l179,0 0,55 82,0 0,-55 179,-2 221,-712 -881,0 220,714z" />
<path style="fill:#dedede" d="M256,893 l440,0 176,-569 -747,137 131,432z" />
<path style="fill:#d4d4d4" d="M256,893 l440,0 154,-504 -709,129 115,375z" />
<path style="fill:#ccc" d="M256,893 l440,0 104,-338 -606,136 62,202z" />
<path style="fill:none;stroke:#000;stroke-width:2" d="M256,893 l179,0 0,55 82,0 0,-55 179,0 221,-714 -881,0 220,714" />
<path style="fill:none;stroke:#000;stroke-width:2" d="M435,893 l82,0" />
<path style="fill:none;stroke:#000;stroke-width:2" d="M906,248 l23,19 -59,5 45,39 -59,6 45,38 -59,5 45,39 -59,6 45,38 -59,5 45,39 -59,5 45,39 -59,5 45,39 -59,5 46,38 -60,6 45,38 -59,6 45,38 -59,6 45,38 -59,6 46,39 -31,2" />
<path style="fill:none;stroke:#000;stroke-width:2" d="M50,248 l-22,19 59,5 -45,39 59,6 -45,38 59,5 -45,39 59,6 -45,38 59,5 -45,39 59,5 -45,39 59,5 -45,39 59,5 -46,38 60,6 -46,38 60,6 -46,38 60,6 -46,38 60,6 -46,39 30,2" />
<path style="fill:none;stroke:#000;stroke-width:2" d="M696,137 l274,0" />
<path style="fill:none;stroke:#000;stroke-width:2" d="M819,179 l0,-42" />
<path style="fill:#e5e5e5;stroke:#000;stroke-width:2" d="M265,180 l-6,-21 -3,-22 2,-21 7,-21 10,-19 14,-16 16,-14 19,-10 21,-6 21,-2 220,0 21,2 21,6 19,10 17,14 13,16 10,20 7,20 2,21 -2,22 -7,21 -422,0z" />
<path style="fill:#fff;stroke:#000;stroke-width:2" d="M160,137 l69,0 0,42 -69,0 0,-42z" />
<path style="fill:#fff;stroke:#000;stroke-width:2" d="M37,137 l68,0 0,42 -68,0 0,-42z" />
<path style="fill:#fff;stroke:#000;stroke-width:2" d="M723,137 l69,0 0,42 -69,0 0,-42z" />
<ellipse style="fill:none;stroke:#000;stroke-width:2" cx="380" cy="75" rx="96" ry="20" />
<ellipse style="fill:none;stroke:#000;stroke-width:2" cx="572" cy="75" rx="96" ry="20" />
<path style="fill:#e5e5e5;stroke:#000;stroke-width:2" d="M463,55 l27,0 0,41 -27,0 0,-41z" />

</svg>
