 

<svg xmlns:agg="http://www.example.com" xmlns="http://www.w3.org/2000/svg" preserveAspectRatio="none" width="1.6083in" height="0.8887in" viewBox="0 0 999 552">

<path style="fill:#263a59" d="M244,445 l510,0 0,19 -510,0 0,-19z" />
<path style="fill:#666" d="M48,92 l785,0 0,353 -785,0 0,-353z" />
<path style="fill:#7387a6;stroke:#000;stroke-width:2" d="M28,464 l942,0 0,60 -942,0 0,-60z" />
<path style="fill:#405473" d="M28,72 l20,0 0,392 -20,0 0,-392z" />
<path style="fill:#596d8c;stroke:#000;stroke-width:2" d="M28,474 l942,0 0,39 -942,0 0,-39z" />
<path style="fill:#263a59" d="M28,474 l942,0 0,10 -942,0 0,-10z" />
<path style="fill:#737373" d="M48,105 l785,0 0,326 -785,0 0,-326z" />
<path style="fill:#7d7d7d" d="M48,120 l785,0 0,296 -785,0 0,-296z" />
<path style="fill:#8a8a8a" d="M48,134 l785,0 0,268 -785,0 0,-268z" />
<path style="fill:#949494" d="M48,148 l785,0 0,239 -785,0 0,-239z" />
<path style="fill:#a1a1a1" d="M48,163 l785,0 0,210 -785,0 0,-210z" />
<path style="fill:#ababab" d="M48,177 l785,0 0,182 -785,0 0,-182z" />
<path style="fill:#b8b8b8" d="M48,191 l785,0 0,154 -785,0 0,-154z" />
<path style="fill:#c2c2c2" d="M48,205 l785,0 0,125 -785,0 0,-125z" />
<path style="fill:#cfcfcf" d="M48,219 l785,0 0,97 -785,0 0,-97z" />
<path style="fill:#d9d9d9" d="M48,234 l785,0 0,68 -785,0 0,-68z" />
<path style="fill:#e5e5e5" d="M48,248 l785,0 0,40 -785,0 0,-40z" />
<path style="fill:#4c607f" d="M28,87 l20,0 0,361 -20,0 0,-361z" />
<path style="fill:#576b8a" d="M28,103 l20,0 0,329 -20,0 0,-329z" />
<path style="fill:#637796" d="M28,119 l20,0 0,297 -20,0 0,-297z" />
<path style="fill:#6e82a1" d="M28,135 l20,0 0,266 -20,0 0,-266z" />
<path style="fill:#7a8ead" d="M28,151 l20,0 0,234 -20,0 0,-234z" />
<path style="fill:#8599b8" d="M28,167 l20,0 0,202 -20,0 0,-202z" />
<path style="fill:#91a5c4" d="M28,183 l20,0 0,170 -20,0 0,-170z" />
<path style="fill:#9cb0cf" d="M28,198 l20,0 0,139 -20,0 0,-139z" />
<path style="fill:#a8bcdb" d="M28,214 l20,0 0,107 -20,0 0,-107z" />
<path style="fill:#b2c6e5" d="M28,230 l20,0 0,75 -20,0 0,-75z" />
<path style="fill:#bfd3f2" d="M28,246 l20,0 0,44 -20,0 0,-44z" />
<path style="fill:none;stroke:#000;stroke-width:2" d="M28,72 l20,0 0,392 -20,0 0,-392" />
<path style="fill:none;stroke:#000;stroke-width:2" d="M48,92 l785,0 0,353 -785,0 0,-353" />
<path style="fill:#900" d="M568,180 l49,0 0,9 -49,0 0,-9z" />
<path style="fill:#cc4c4c" d="M578,180 l28,0 0,9 -28,0 0,-9z" />
<path style="fill:#ebb8b8" d="M589,180 l7,0 0,9 -7,0 0,-9z" />
<path style="fill:#7f7f7f;stroke:#000;stroke-width:2" d="M769,347 l34,0 0,117 -34,0 0,-117z" />
<path style="fill:#ccc" d="M779,347 l14,0 0,117 -14,0 0,-117z" />
<path style="fill:#596d8c;stroke:#000;stroke-width:2" d="M892,347 l39,0 0,117 -39,0 0,-117z" />
<path style="fill:#596d8c;stroke:#000;stroke-width:2" d="M735,406 l157,0 0,19 -157,0 0,-19z" />
<path style="fill:#596d8c;stroke:#000;stroke-width:2" d="M695,347 l40,0 0,117 -40,0 0,-117z" />
<path style="fill:#596d8c;stroke:#000;stroke-width:2" d="M322,425 l354,0 0,39 -354,0 0,-39z" />
<path style="fill:#4c4c4c" d="M126,327 l10,-10 0,-186 275,0 9,-20 -294,0 0,216z" />
<path style="fill:#b2b2b2" d="M421,111 l-10,20 0,186 -275,0 -10,10 295,0 0,-216z" />
<path style="fill:none;stroke:#000;stroke-width:2" d="M126,111 l294,0 0,216 -294,0 0,-216" />
<path style="fill:#661919" d="M136,131 l108,0 0,186 -108,0 0,-186z" />
<path style="fill:#701414" d="M244,131 l29,0 0,186 -29,0 0,-186z" />
<path style="fill:#780a0a" d="M273,131 l25,0 0,186 -25,0 0,-186z" />
<path style="fill:#820505" d="M298,131 l27,0 0,186 -27,0 0,-186z" />
<path style="fill:#8c0000" d="M316,131 l20,0 0,186 -20,0 0,-186z" />
<path style="fill:#940000" d="M327,131 l20,0 0,186 -20,0 0,-186z" />
<path style="fill:#9e0000" d="M338,131 l19,0 0,186 -19,0 0,-186z" />
<path style="fill:#a60000" d="M349,131 l19,0 0,186 -19,0 0,-186z" />
<path style="fill:#b00000" d="M359,131 l20,0 0,186 -20,0 0,-186z" />
<path style="fill:#ba0000" d="M370,131 l20,0 0,186 -20,0 0,-186z" />
<path style="fill:#c20000" d="M381,131 l19,0 0,186 -19,0 0,-186z" />
<path style="fill:#c00" d="M391,131 l20,0 0,186 -20,0 0,-186z" />
<path style="fill:none;stroke:#000;stroke-width:2" d="M38,72 l0,-20" />
<path style="fill:#7f7f7f" d="M185,165 l-19,0 0,-34 19,0 0,34z" />
<path style="fill:#7f7f7f" d="M210,155 l-20,0 0,-24 20,0 0,24z" />
<path style="fill:#7f7f7f" d="M234,151 l-19,0 0,-20 19,0 0,20z" />
<path style="fill:#7f7f7f" d="M259,151 l-19,0 0,-20 19,0 0,20z" />
<path style="fill:#7f7f7f" d="M283,151 l-19,0 0,-20 19,0 0,20z" />
<path style="fill:#7f7f7f" d="M308,151 l-19,0 0,-20 19,0 0,20z" />
<path style="fill:#7f7f7f" d="M333,151 l-20,0 0,-20 20,0 0,20z" />
<path style="fill:#7f7f7f" d="M357,155 l-19,0 0,-24 19,0 0,24z" />
<path style="fill:#7f7f7f" d="M382,165 l-20,0 0,-34 20,0 0,34z" />
<path style="fill:#7f7f7f" d="M386,131 l20,0 0,186 -20,0 0,-186z" />
<path style="fill:#7f7f7f" d="M362,283 l19,0 0,34 -19,0 0,-34z" />
<path style="fill:#7f7f7f" d="M337,293 l20,0 0,24 -20,0 0,-24z" />
<path style="fill:#7f7f7f" d="M312,298 l20,0 0,19 -20,0 0,-19z" />
<path style="fill:#7f7f7f" d="M288,298 l19,0 0,19 -19,0 0,-19z" />
<path style="fill:#7f7f7f" d="M263,298 l20,0 0,19 -20,0 0,-19z" />
<path style="fill:#7f7f7f" d="M239,298 l19,0 0,19 -19,0 0,-19z" />
<path style="fill:#7f7f7f" d="M214,298 l20,0 0,19 -20,0 0,-19z" />
<path style="fill:#7f7f7f" d="M190,293 l19,0 0,24 -19,0 0,-24z" />
<path style="fill:#7f7f7f" d="M165,283 l20,0 0,34 -20,0 0,-34z" />
<path style="fill:#7f7f7f" d="M141,131 l19,0 0,186 -19,0 0,-186z" />
<path style="fill:#ccc" d="M392,131 l8,0 0,186 -8,0 0,-186z" />
<path style="fill:#ccc" d="M147,131 l7,0 0,186 -7,0 0,-186z" />
<path style="fill:#ccc" d="M171,283 l8,0 0,34 -8,0 0,-34z" />
<path style="fill:#ccc" d="M196,293 l7,0 0,24 -7,0 0,-24z" />
<path style="fill:#ccc" d="M220,298 l8,0 0,19 -8,0 0,-19z" />
<path style="fill:#ccc" d="M245,298 l7,0 0,19 -7,0 0,-19z" />
<path style="fill:#ccc" d="M269,298 l8,0 0,19 -8,0 0,-19z" />
<path style="fill:#ccc" d="M294,298 l7,0 0,19 -7,0 0,-19z" />
<path style="fill:#ccc" d="M318,298 l8,0 0,19 -8,0 0,-19z" />
<path style="fill:#ccc" d="M343,293 l8,0 0,24 -8,0 0,-24z" />
<path style="fill:#ccc" d="M368,283 l7,0 0,34 -7,0 0,-34z" />
<path style="fill:#ccc" d="M376,165 l-8,0 0,-34 8,0 0,34z" />
<path style="fill:#ccc" d="M351,155 l-8,0 0,-24 8,0 0,24z" />
<path style="fill:#ccc" d="M327,151 l-8,0 0,-20 8,0 0,20z" />
<path style="fill:#ccc" d="M302,151 l-8,0 0,-20 8,0 0,20z" />
<path style="fill:#ccc" d="M278,151 l-8,0 0,-20 8,0 0,20z" />
<path style="fill:#ccc" d="M253,151 l-8,0 0,-20 8,0 0,20z" />
<path style="fill:#ccc" d="M229,151 l-8,0 0,-20 8,0 0,20z" />
<path style="fill:#ccc" d="M204,155 l-8,0 0,-24 8,0 0,24z" />
<path style="fill:#ccc" d="M179,165 l-7,0 0,-34 7,0 0,34z" />
<path style="fill:#000" d="M362,283 l3,-3 6,-2 7,2 3,3 -3,4 -7,1 -6,-1 -3,-4z" />
<path style="fill:#000" d="M337,293 l3,-4 7,-1 7,1 3,4 -3,3 -7,2 -7,-2 -3,-3z" />
<path style="fill:#000" d="M313,298 l3,-4 6,-1 7,1 3,4 -3,3 -7,2 -6,-2 -3,-3z" />
<path style="fill:#000" d="M288,298 l3,-4 7,-1 7,1 3,4 -3,3 -7,2 -7,-2 -3,-3z" />
<path style="fill:#000" d="M264,298 l3,-4 6,-1 7,1 3,4 -3,3 -7,2 -6,-2 -3,-3z" />
<path style="fill:#000" d="M239,298 l3,-4 7,-1 7,1 2,4 -2,3 -7,2 -7,-2 -3,-3z" />
<path style="fill:#000" d="M214,298 l3,-4 7,-1 7,1 3,4 -3,3 -7,2 -7,-2 -3,-3z" />
<path style="fill:#000" d="M190,293 l3,-4 7,-1 7,1 2,4 -2,3 -7,2 -7,-2 -3,-3z" />
<path style="fill:#000" d="M165,283 l3,-4 7,-1 7,1 3,4 -3,3 -7,2 -7,-2 -3,-3z" />
<path style="fill:#000" d="M210,155 l-3,4 -7,1 -7,-1 -3,-4 3,-3 7,-2 7,2 3,3z" />
<path style="fill:#000" d="M234,150 l-3,4 -7,1 -6,-1 -3,-4 3,-3 6,-2 7,2 3,3z" />
<path style="fill:#000" d="M259,151 l-3,3 -7,2 -7,-2 -3,-3 3,-4 7,-1 7,1 3,4z" />
<path style="fill:#000" d="M283,151 l-3,3 -7,2 -6,-2 -3,-3 3,-4 6,-1 7,1 3,4z" />
<path style="fill:#000" d="M308,151 l-3,3 -7,2 -7,-2 -2,-3 2,-4 7,-1 7,1 3,4z" />
<path style="fill:#000" d="M333,151 l-3,3 -7,2 -7,-2 -3,-3 3,-4 7,-1 7,1 3,4z" />
<path style="fill:#000" d="M357,156 l-3,3 -7,2 -7,-2 -2,-3 2,-4 7,-1 7,1 3,4z" />
<path style="fill:#000" d="M382,165 l-3,4 -7,1 -7,-1 -3,-4 3,-3 7,-2 7,2 3,3z" />
<path style="fill:#000" d="M185,165 l-3,4 -7,1 -6,-1 -3,-4 3,-3 6,-2 7,2 3,3z" />
<path style="fill:none;stroke:#000;stroke-width:2" d="M136,131 l275,0 0,186 -275,0 0,-186" />
<path style="fill:#7f7f7f" d="M646,150 l35,0 0,157 -35,0 0,-157z" />
<path style="fill:#7f7f7f" d="M583,195 l19,0 0,44 -19,0 0,-44z" />
<path style="fill:#7f7f7f" d="M646,239 l0,19 -132,0 0,-19 132,0z" />
<path style="fill:#7f7f7f" d="M489,268 l30,0 0,30 -30,0 0,-30z" />
<path style="fill:#7f7f7f" d="M494,209 l20,0 0,59 -20,0 0,-59z" />
<path style="fill:#7f7f7f" d="M499,150 l10,0 0,59 -10,0 0,-59z" />
<path style="fill:#ccc" d="M657,150 l13,0 0,157 -13,0 0,-157z" />
<path style="fill:#ccc" d="M589,195 l7,0 0,44 -7,0 0,-44z" />
<path style="fill:#ccc" d="M646,245 l0,7 -132,0 0,-7 132,0z" />
<path style="fill:#ccc" d="M502,150 l4,0 0,59 -4,0 0,-59z" />
<path style="fill:#ccc" d="M500,209 l8,0 0,59 -8,0 0,-59z" />
<path style="fill:#ccc" d="M498,268 l12,0 0,30 -12,0 0,-30z" />
<path style="fill:#596d8c;stroke:#000;stroke-width:2" d="M695,347 l236,0 0,-295 -236,0 0,295z" />
<path style="fill:#7387a6" d="M705,337 l216,0 0,-275 -216,0 0,275z" />
<path style="fill:none;stroke:#bfd3f2;stroke-width:2" d="M705,337 l0,-275 216,0" />
<path style="fill:none;stroke:#263a59;stroke-width:2" d="M921,62 l0,275 -216,0" />
<path style="fill:#e5e5e5" d="M813,239 l79,0 0,68 -79,0 0,-68z" />
<path style="fill:none;stroke:#000;stroke-width:2" d="M823,268 l59,0" />
<path style="fill:none;stroke:#000;stroke-width:2" d="M823,249 l59,0" />
<path style="fill:#333" d="M744,130 l13,0 0,12 -13,0 0,-12z" />
<path style="fill:#333" d="M768,130 l12,0 0,12 -12,0 0,-12z" />
<path style="fill:#333" d="M792,130 l12,0 0,12 -12,0 0,-12z" />
<path style="fill:#333" d="M768,154 l12,0 0,12 -12,0 0,-12z" />
<path style="fill:#333" d="M792,154 l12,0 0,12 -12,0 0,-12z" />
<path style="fill:#333" d="M815,154 l13,0 0,12 -13,0 0,-12z" />
<path style="fill:#333" d="M816,130 l12,0 0,12 -12,0 0,-12z" />
<path style="fill:#333" d="M768,178 l12,0 0,12 -12,0 0,-12z" />
<path style="fill:#333" d="M804,178 l12,0 0,12 -12,0 0,-12z" />
<path style="fill:#333" d="M769,96 l4,-10 10,-5 11,5 4,10 -4,11 -11,4 -10,-4 -4,-11z" />
<path style="fill:#405473;stroke:#000;stroke-width:2" d="M695,28 l236,0 0,24 -236,0 0,-24z" />
<path style="fill:none;stroke:#000;stroke-width:2" d="M646,150 l35,0 0,157 -35,0 0,-157" />
<path style="fill:none;stroke:#000;stroke-width:2" d="M583,195 l19,0 0,44 -19,0 0,-44" />
<path style="fill:none;stroke:#000;stroke-width:2" d="M646,239 l0,19 -132,0 0,-19 132,0" />
<path style="fill:none;stroke:#000;stroke-width:2" d="M499,150 l10,0 0,59 -10,0 0,-59" />
<path style="fill:none;stroke:#000;stroke-width:2" d="M494,209 l20,0 0,59 -20,0 0,-59" />
<path style="fill:none;stroke:#000;stroke-width:2" d="M489,268 l30,0 0,30 -30,0 0,-30" />
<path style="fill:none;stroke:#000;stroke-width:2" d="M342,464 l0,-78 196,-118 59,0 59,39 0,157 -314,0" />
<path style="fill:#8ca0bf" d="M342,464 l0,-78 196,-118 59,0 59,39 0,157 -314,0z" />
<path style="fill:#8599b8" d="M342,435 l314,-88 0,117 -314,0 0,-29z" />
<path style="fill:#7a8ead" d="M342,455 l314,-89 0,98 -314,0 0,-9z" />
<path style="fill:#7387a6" d="M342,465 l314,-89 0,88 -314,0 0,1z" />
<path style="fill:none;stroke:#000;stroke-width:2" d="M352,464 l0,-73 186,-113 59,0 49,34 0,152" />

</svg>
