 

<svg xmlns:agg="http://www.example.com" xmlns="http://www.w3.org/2000/svg" preserveAspectRatio="none" width="1.6083in" height="0.7397in" viewBox="0 0 998 459">

<path style="fill:#859999" d="M79,418 l-25,0 0,13 -26,0 0,-64 26,0 0,13 25,0 0,38z" />
<path style="fill:#859999;stroke:#000;stroke-width:2" d="M79,94 l-25,0 0,13 -26,0 0,-62 26,0 0,11 25,0 0,38z" />
<path style="fill:#859999" d="M919,380 l25,0 0,-13 26,0 0,64 -26,0 0,-13 -25,0 0,-38z" />
<path style="fill:#859999" d="M919,56 l25,0 0,-11 26,0 0,62 -26,0 0,-13 -25,0 0,-38z" />
<path style="fill:#d1d9d9" d="M919,388 l25,0 0,-8 26,0 0,38 -26,0 0,-8 -25,0 0,-22z" />
<path style="fill:#d1d9d9" d="M919,64 l25,0 0,-8 26,0 0,38 -26,0 0,-8 -25,0 0,-22z" />
<path style="fill:#d1d9d9" d="M79,410 l-25,0 0,8 -26,0 0,-38 26,0 0,8 25,0 0,22z" />
<path style="fill:#d1d9d9" d="M79,86 l-25,0 0,8 -26,0 0,-38 26,0 0,8 25,0 0,22z" />
<path style="fill:none;stroke:#000;stroke-width:2" d="M54,56 l0,38" />
<path style="fill:none;stroke:#000;stroke-width:2" d="M79,418 l-25,0 0,13 -26,0 0,-64 26,0 0,13 25,0 0,38" />
<path style="fill:none;stroke:#000;stroke-width:2" d="M54,380 l0,38" />
<path style="fill:none;stroke:#000;stroke-width:2" d="M919,380 l25,0 0,-13 26,0 0,64 -26,0 0,-13 -25,0 0,-38" />
<path style="fill:none;stroke:#000;stroke-width:2" d="M944,418 l0,-38" />
<path style="fill:none;stroke:#000;stroke-width:2" d="M919,56 l25,0 0,-11 26,0 0,62 -26,0 0,-13 -25,0 0,-38" />
<path style="fill:none;stroke:#000;stroke-width:2" d="M944,94 l0,-38" />
<path style="fill:#98b2b2;stroke:#000;stroke-width:2" d="M79,45 l840,0 0,386 -840,0 0,-386z" />
<path style="fill:#ccc;stroke:#000;stroke-width:2" d="M113,28 l772,0 0,403 -772,0 0,-403z" />
<path style="fill:#004c4c" d="M146,62 l336,0 0,335 -336,0 0,-335z" />
<path style="fill:#004c4c" d="M516,62 l336,0 0,335 -336,0 0,-335z" />
<path style="fill:none;stroke:#ccc;stroke-width:2" d="M853,363 l-707,0" />
<path style="fill:none;stroke:#ccc;stroke-width:2" d="M146,295 l707,0" />
<path style="fill:none;stroke:#ccc;stroke-width:2" d="M853,228 l-707,0" />
<path style="fill:none;stroke:#ccc;stroke-width:2" d="M146,162 l707,0" />
<path style="fill:none;stroke:#ccc;stroke-width:2" d="M146,94 l707,0" />
<path style="fill:none;stroke:#000;stroke-width:2" d="M146,28 l0,403" />
<path style="fill:none;stroke:#000;stroke-width:2" d="M853,28 l0,403" />
<path style="fill:none;stroke:#000;stroke-width:2" d="M146,397 l707,0" />
<path style="fill:none;stroke:#000;stroke-width:2" d="M146,62 l707,0" />
<path style="fill:none;stroke:#004c4c;stroke-width:2" d="M163,62 l0,335" />
<path style="fill:none;stroke:#004c4c;stroke-width:2" d="M229,62 l0,335" />
<path style="fill:none;stroke:#004c4c;stroke-width:2" d="M297,62 l0,335" />
<path style="fill:none;stroke:#004c4c;stroke-width:2" d="M365,62 l0,335" />
<path style="fill:none;stroke:#004c4c;stroke-width:2" d="M433,62 l0,335" />
<path style="fill:none;stroke:#004c4c;stroke-width:2" d="M567,62 l0,335" />
<path style="fill:none;stroke:#004c4c;stroke-width:2" d="M633,62 l0,335" />
<path style="fill:none;stroke:#004c4c;stroke-width:2" d="M701,62 l0,335" />
<path style="fill:none;stroke:#004c4c;stroke-width:2" d="M769,62 l0,335" />
<path style="fill:none;stroke:#004c4c;stroke-width:2" d="M836,62 l0,335" />
<path style="fill:none;stroke:#ccc;stroke-width:2" d="M146,380 l707,0" />
<path style="fill:none;stroke:#ccc;stroke-width:2" d="M146,346 l707,0" />
<path style="fill:none;stroke:#ccc;stroke-width:2" d="M146,329 l707,0" />
<path style="fill:none;stroke:#ccc;stroke-width:2" d="M853,312 l-707,0" />
<path style="fill:none;stroke:#ccc;stroke-width:2" d="M853,278 l-707,0" />
<path style="fill:none;stroke:#ccc;stroke-width:2" d="M146,261 l707,0" />
<path style="fill:none;stroke:#ccc;stroke-width:2" d="M146,244 l707,0" />
<path style="fill:none;stroke:#ccc;stroke-width:2" d="M146,212 l707,0" />
<path style="fill:none;stroke:#ccc;stroke-width:2" d="M853,195 l-707,0" />
<path style="fill:none;stroke:#ccc;stroke-width:2" d="M146,179 l707,0" />
<path style="fill:none;stroke:#ccc;stroke-width:2" d="M853,145 l-707,0" />
<path style="fill:none;stroke:#ccc;stroke-width:2" d="M146,128 l707,0" />
<path style="fill:none;stroke:#ccc;stroke-width:2" d="M853,111 l-707,0" />
<path style="fill:none;stroke:#ccc;stroke-width:2" d="M146,79 l707,0" />

</svg>
