 

<svg xmlns:agg="http://www.example.com" xmlns="http://www.w3.org/2000/svg" preserveAspectRatio="none" width="1.6083in" height="1.0384in" viewBox="0 0 999 645">

<path style="fill:#7f0000;stroke:#000;stroke-width:2" d="M892,577 l0,20 -785,0 0,-20 785,0z" />
<path style="fill:#ff7f7f;stroke:#000;stroke-width:2" d="M892,47 l0,20 -785,0 0,-20 785,0z" />
<path style="fill:none;stroke:#fff;stroke-width:2" d="M116,57 l766,0" />
<path style="fill:#991919" d="M970,126 l-942,0 0,392 942,0 0,-392z" />
<path style="fill:#b23232" d="M970,165 l-942,0 0,314 942,0 0,-314z" />
<path style="fill:#cc4c4c" d="M970,204 l-942,0 0,236 942,0 0,-236z" />
<path style="fill:#e56565" d="M970,224 l-942,0 0,196 942,0 0,-196z" />
<path style="fill:#ff7f7f" d="M970,283 l-942,0 0,78 942,0 0,-78z" />
<path style="fill:none;stroke:#000;stroke-width:2" d="M970,126 l-942,0 0,392 942,0 0,-392" />
<path style="fill:#666" d="M774,126 l-550,0 0,392 550,0 0,-392z" />
<path style="fill:#8c8c8c" d="M774,165 l-550,0 0,314 550,0 0,-314z" />
<path style="fill:#a6a6a6" d="M774,204 l-550,0 0,236 550,0 0,-236z" />
<path style="fill:#bfbfbf" d="M774,224 l-550,0 0,196 550,0 0,-196z" />
<path style="fill:#d9d9d9" d="M774,283 l-550,0 0,78 550,0 0,-78z" />
<path style="fill:none;stroke:#000;stroke-width:2" d="M774,126 l-550,0 0,392 550,0 0,-392" />
<path style="fill:#7f7f7f" d="M754,87 l-39,0 0,471 39,0 0,-471z" />
<path style="fill:#7f7f7f" d="M696,87 l-40,0 0,471 40,0 0,-471z" />
<path style="fill:#7f7f7f" d="M637,87 l-39,0 0,471 39,0 0,-471z" />
<path style="fill:#7f7f7f" d="M578,87 l-40,0 0,471 40,0 0,-471z" />
<path style="fill:#7f7f7f" d="M519,87 l-39,0 0,471 39,0 0,-471z" />
<path style="fill:#7f7f7f" d="M460,87 l-39,0 0,471 39,0 0,-471z" />
<path style="fill:#7f7f7f" d="M401,87 l-40,0 0,471 40,0 0,-471z" />
<path style="fill:#7f7f7f" d="M342,87 l-39,0 0,471 39,0 0,-471z" />
<path style="fill:#7f7f7f;stroke:#000;stroke-width:2" d="M283,87 l-39,0 0,471 39,0 0,-471z" />
<path style="fill:#999" d="M754,134 l-39,0 0,377 39,0 0,-377z" />
<path style="fill:#999" d="M696,134 l-40,0 0,377 40,0 0,-377z" />
<path style="fill:#999" d="M637,134 l-39,0 0,377 39,0 0,-377z" />
<path style="fill:#999" d="M578,134 l-40,0 0,377 40,0 0,-377z" />
<path style="fill:#999" d="M519,134 l-39,0 0,377 39,0 0,-377z" />
<path style="fill:#999" d="M460,134 l-39,0 0,377 39,0 0,-377z" />
<path style="fill:#999" d="M401,134 l-40,0 0,377 40,0 0,-377z" />
<path style="fill:#999" d="M342,134 l-39,0 0,377 39,0 0,-377z" />
<path style="fill:#999" d="M283,134 l-39,0 0,377 39,0 0,-377z" />
<path style="fill:#bfbfbf" d="M754,181 l-39,0 0,283 39,0 0,-283z" />
<path style="fill:#bfbfbf" d="M696,181 l-40,0 0,283 40,0 0,-283z" />
<path style="fill:#bfbfbf" d="M637,181 l-39,0 0,283 39,0 0,-283z" />
<path style="fill:#bfbfbf" d="M578,181 l-40,0 0,283 40,0 0,-283z" />
<path style="fill:#bfbfbf" d="M519,181 l-39,0 0,283 39,0 0,-283z" />
<path style="fill:#bfbfbf" d="M460,181 l-39,0 0,283 39,0 0,-283z" />
<path style="fill:#bfbfbf" d="M401,181 l-40,0 0,283 40,0 0,-283z" />
<path style="fill:#bfbfbf" d="M342,181 l-39,0 0,283 39,0 0,-283z" />
<path style="fill:#bfbfbf" d="M283,181 l-39,0 0,283 39,0 0,-283z" />
<path style="fill:#e5e5e5" d="M754,205 l-39,0 0,235 39,0 0,-235z" />
<path style="fill:#e5e5e5" d="M696,205 l-40,0 0,235 40,0 0,-235z" />
<path style="fill:#e5e5e5" d="M637,205 l-39,0 0,235 39,0 0,-235z" />
<path style="fill:#e5e5e5" d="M578,205 l-40,0 0,235 40,0 0,-235z" />
<path style="fill:#e5e5e5" d="M519,205 l-39,0 0,235 39,0 0,-235z" />
<path style="fill:#e5e5e5" d="M460,205 l-39,0 0,235 39,0 0,-235z" />
<path style="fill:#e5e5e5" d="M401,205 l-40,0 0,235 40,0 0,-235z" />
<path style="fill:#e5e5e5" d="M342,205 l-39,0 0,235 39,0 0,-235z" />
<path style="fill:#e5e5e5" d="M283,205 l-39,0 0,235 39,0 0,-235z" />
<path style="fill:#fff" d="M754,275 l-39,0 0,94 39,0 0,-94z" />
<path style="fill:#fff" d="M696,275 l-40,0 0,94 40,0 0,-94z" />
<path style="fill:#fff" d="M637,275 l-39,0 0,94 39,0 0,-94z" />
<path style="fill:#fff" d="M578,275 l-40,0 0,94 40,0 0,-94z" />
<path style="fill:#fff" d="M519,275 l-39,0 0,94 39,0 0,-94z" />
<path style="fill:#fff" d="M460,275 l-39,0 0,94 39,0 0,-94z" />
<path style="fill:#fff" d="M401,275 l-40,0 0,94 40,0 0,-94z" />
<path style="fill:#fff" d="M342,275 l-39,0 0,94 39,0 0,-94z" />
<path style="fill:#fff" d="M283,275 l-39,0 0,94 39,0 0,-94z" />
<path style="fill:none;stroke:#000;stroke-width:2" d="M401,87 l-40,0 0,471 40,0 0,-471" />
<path style="fill:none;stroke:#000;stroke-width:2" d="M342,87 l-39,0 0,471 39,0 0,-471" />
<path style="fill:none;stroke:#000;stroke-width:2" d="M460,87 l-39,0 0,471 39,0 0,-471" />
<path style="fill:none;stroke:#000;stroke-width:2" d="M578,87 l-40,0 0,471 40,0 0,-471" />
<path style="fill:none;stroke:#000;stroke-width:2" d="M519,87 l-39,0 0,471 39,0 0,-471" />
<path style="fill:none;stroke:#000;stroke-width:2" d="M637,87 l-39,0 0,471 39,0 0,-471" />
<path style="fill:none;stroke:#000;stroke-width:2" d="M754,87 l-39,0 0,471 39,0 0,-471" />
<path style="fill:none;stroke:#000;stroke-width:2" d="M696,87 l-40,0 0,471 40,0 0,-471" />
<path style="fill:#991919;stroke:#000;stroke-width:2" d="M852,28 l-39,0 0,588 39,0 0,-588z" />
<path style="fill:#991919;stroke:#000;stroke-width:2" d="M185,28 l-39,0 0,588 39,0 0,-588z" />
<path style="fill:#b23232" d="M852,87 l-39,0 0,471 39,0 0,-471z" />
<path style="fill:#b23232" d="M185,87 l-39,0 0,471 39,0 0,-471z" />
<path style="fill:#cc4c4c" d="M852,146 l-39,0 0,353 39,0 0,-353z" />
<path style="fill:#cc4c4c" d="M185,146 l-39,0 0,353 39,0 0,-353z" />
<path style="fill:#e56565" d="M852,175 l-39,0 0,294 39,0 0,-294z" />
<path style="fill:#e56565" d="M185,175 l-39,0 0,294 39,0 0,-294z" />
<path style="fill:#ff7f7f" d="M852,263 l-39,0 0,118 39,0 0,-118z" />
<path style="fill:#ff7f7f" d="M185,263 l-39,0 0,118 39,0 0,-118z" />

</svg>
