 

<svg xmlns:agg="http://www.example.com" xmlns="http://www.w3.org/2000/svg" preserveAspectRatio="none" width="0.6284in" height="1.0750in" viewBox="0 0 584 999">

<path style="fill:#fff;stroke:#000;stroke-width:2" d="M28,65 l37,-18 491,0 -38,18 -490,0z" />
<path style="fill:#bfbfbf;stroke:#000;stroke-width:2" d="M512,970 l38,-19 0,-377 -38,19 0,377z" />
<path style="fill:#e5e5e5;stroke:#000;stroke-width:2" d="M33,47 l481,0 0,923 -481,0 0,-923z" />
<path style="fill:#f2f2f2;stroke:#000;stroke-width:2" d="M28,65 l490,0 0,528 -490,0 0,-528z" />
<path style="fill:#737373;stroke:#000;stroke-width:2" d="M65,593 l368,0 0,368 -368,0 0,-368z" />
<path style="fill:none;stroke:#000;stroke-width:2" d="M65,676 l368,0" />
<path style="fill:none;stroke:#000;stroke-width:2" d="M65,757 l368,0" />
<path style="fill:none;stroke:#000;stroke-width:2" d="M65,838 l368,0" />
<path style="fill:none;stroke:#000;stroke-width:2" d="M65,919 l368,0" />
<path style="fill:none;stroke:#000;stroke-width:2" d="M65,635 l368,0" />
<path style="fill:none;stroke:#000;stroke-width:2" d="M65,716 l368,0" />
<path style="fill:none;stroke:#000;stroke-width:2" d="M65,797 l368,0" />
<path style="fill:none;stroke:#000;stroke-width:2" d="M65,880 l368,0" />
<path style="fill:none;stroke:#000;stroke-width:2" d="M65,614 l368,0" />
<path style="fill:none;stroke:#000;stroke-width:2" d="M65,695 l368,0" />
<path style="fill:none;stroke:#000;stroke-width:2" d="M65,776 l368,0" />
<path style="fill:none;stroke:#000;stroke-width:2" d="M65,859 l368,0" />
<path style="fill:none;stroke:#000;stroke-width:2" d="M65,940 l368,0" />
<path style="fill:none;stroke:#000;stroke-width:2" d="M65,655 l368,0" />
<path style="fill:none;stroke:#000;stroke-width:2" d="M65,736 l368,0" />
<path style="fill:none;stroke:#000;stroke-width:2" d="M65,818 l368,0" />
<path style="fill:none;stroke:#000;stroke-width:2" d="M65,899 l368,0" />
<path style="fill:#fff;stroke:#7f7f7f;stroke-width:2" d="M179,216 l188,0 0,57 -188,0 0,-57z" />
<path style="fill:#ff7f7f" d="M216,292 l113,0 0,37 -113,0 0,-37z" />
<path style="fill:#ff7f7f" d="M216,348 l113,0 0,38 -113,0 0,-38z" />
<path style="fill:#ff7f7f" d="M235,405 l76,0 0,37 -76,0 0,-37z" />
<path style="fill:#0f0" d="M192,222 l0,28 160,0 0,-5 -136,0 -15,-23 -9,0z" />
<path style="fill:#ccc;stroke:#000;stroke-width:2" d="M518,593 l38,-19 0,-527 -38,18 0,528z" />
<path style="fill:#ccc;stroke:#000;stroke-width:2" d="M512,65 l38,-18 0,-19 -38,19 0,18z" />
<path style="fill:#fff;stroke:#000;stroke-width:2" d="M33,47 l38,-19 481,0 -38,19 -481,0z" />
<path style="fill:#d9d9d9" d="M467,518 l-7,-2 -2,-7 2,-7 7,-3 7,3 3,7 -3,7 -7,2z" />
<path style="fill:#d9d9d9" d="M467,322 l-7,-3 -2,-7 2,-7 7,-2 7,2 3,7 -3,7 -7,3z" />
<path style="fill:#d9d9d9" d="M467,126 l-7,-3 -2,-7 2,-7 7,-3 7,3 3,7 -3,7 -7,3z" />

</svg>
