 

<svg xmlns:agg="http://www.example.com" xmlns="http://www.w3.org/2000/svg" preserveAspectRatio="none" width="0.9792in" height="1.0750in" viewBox="0 0 910 999">

<path style="fill:none;stroke:#000;stroke-width:2" d="M206,464 l-80,79 -80,-79" />
<path style="fill:none;stroke:#000;stroke-width:2" d="M562,739 l-107,89 -107,-89 -107,89 -106,-89" />
<path style="fill:none;stroke:#000;stroke-width:2" d="M562,828 l-107,-88 -107,88 -107,-88 -106,88" />
<path style="fill:none;stroke:#000;stroke-width:2" d="M544,695 l71,53" />
<path style="fill:none;stroke:#000;stroke-width:2" d="M615,695 l-71,53" />
<path style="fill:none;stroke:#000;stroke-width:2" d="M206,446 l0,-18" />
<path style="fill:none;stroke:#000;stroke-width:2" d="M46,446 l0,-18" />
<path style="fill:none;stroke:#000;stroke-width:2" d="M152,446 l0,-18" />
<path style="fill:none;stroke:#000;stroke-width:2" d="M99,446 l0,-18" />
<path style="fill:none;stroke:#000;stroke-width:2" d="M439,91 l0,354" />
<path style="fill:none;stroke:#000;stroke-width:2" d="M412,191 l42,-58" />
<path style="fill:none;stroke:#000;stroke-width:2" d="M462,191 l-42,-58" />
<path style="fill:none;stroke:#000;stroke-width:2" d="M402,247 l62,-50" />
<path style="fill:none;stroke:#000;stroke-width:2" d="M472,247 l-63,-50" />
<path style="fill:none;stroke:#000;stroke-width:2" d="M473,247 l-82,54" />
<path style="fill:none;stroke:#000;stroke-width:2" d="M400,247 l81,54" />
<path style="fill:none;stroke:#000;stroke-width:2" d="M484,314 l-105,63" />
<path style="fill:none;stroke:#000;stroke-width:2" d="M389,314 l106,63" />
<path style="fill:none;stroke:#000;stroke-width:2" d="M498,384 l-132,62" />
<path style="fill:none;stroke:#000;stroke-width:2" d="M377,384 l131,62" />
<path style="fill:none;stroke:#000;stroke-width:2" d="M881,499 l0,80" />
<path style="fill:#e6e6e6;stroke:#000;stroke-width:2" d="M143,446 l0,-125 -9,0 -33,44 6,6 27,-36 0,111 9,0z" />
<path style="fill:#000;stroke:#000;stroke-width:2" d="M439,154 l-5,0 0,6 5,0 0,-6z" />
<path style="fill:#000;stroke:#000;stroke-width:2" d="M442,268 l-11,0 0,7 11,0 0,-7z" />
<path style="fill:#000;stroke:#000;stroke-width:2" d="M442,339 l-11,0 0,6 11,0 0,-6z" />
<path style="fill:#000;stroke:#000;stroke-width:2" d="M442,410 l-11,0 0,7 11,0 0,-7z" />
<path style="fill:#000;stroke:#000;stroke-width:2" d="M442,217 l-11,0 0,6 11,0 0,-6z" />
<path style="fill:#9e9e9e;stroke:#000;stroke-width:2" d="M464,188 l-54,0 0,9 54,0 0,-9z" />
<path style="fill:#9e9e9e;stroke:#000;stroke-width:2" d="M491,375 l-108,0 0,8 108,0 0,-8z" />
<path style="fill:#6b6b6b;stroke:#000;stroke-width:2" d="M135,739 l-36,0 0,231 36,0 0,-231z" />
<path style="fill:#6b6b6b;stroke:#000;stroke-width:2" d="M598,739 l-36,0 0,231 36,0 0,-231z" />
<path style="fill:#b6b6b6;stroke:#000;stroke-width:2" d="M508,526 l0,-54 -142,0 0,54 142,0z" />
<path style="fill:#b6b6b6;stroke:#000;stroke-width:2" d="M526,739 l0,-213 -214,0 0,71 -107,0 0,-36 -159,1 53,53 0,124 427,0z" />
<path style="fill:#000;stroke:#000;stroke-width:2" d="M419,668 l0,-17 -338,0 0,17 338,0z" />
<path style="fill:#e6e6e6;stroke:#000;stroke-width:2" d="M508,473 l0,-36 -142,0 0,36 142,0z" />
<path style="fill:#353535;stroke:#000;stroke-width:2" d="M543,739 l0,-36 -17,0 0,36 17,0z" />
<path style="fill:#353535;stroke:#000;stroke-width:2" d="M633,739 l0,-36 -18,0 0,36 18,0z" />
<path style="fill:#000;stroke:#000;stroke-width:2" d="M491,579 l-18,0 0,125 18,0 0,-125z" />
<path style="fill:#000;stroke:#000;stroke-width:2" d="M312,651 l0,-54 -107,0 0,54 107,0z" />
<path style="fill:#000;stroke:#000;stroke-width:2" d="M419,739 l0,-26 -338,0 0,26 338,0z" />
<path style="fill:#868686;stroke:#000;stroke-width:2" d="M650,757 l0,-18 -142,0 0,18 142,0z" />
<path style="fill:#868686;stroke:#000;stroke-width:2" d="M650,703 l0,-17 -142,0 0,17 142,0z" />
<path style="fill:#868686;stroke:#000;stroke-width:2" d="M419,713 l0,-45 -338,0 0,45 338,0z" />
<path style="fill:#868686;stroke:#000;stroke-width:2" d="M331,615 l0,-18 -143,0 0,18 143,0z" />
<path style="fill:#868686;stroke:#000;stroke-width:2" d="M544,543 l0,-17 -249,0 0,17 249,0z" />
<path style="fill:#000;stroke:#000;stroke-width:2" d="M562,828 l-160,0 0,-89 -19,0 0,89 -35,0 0,-89 -17,0 0,89 -72,0 0,-89 -18,0 0,89 -53,0 0,-89 -18,0 0,89 -35,0 0,27 427,0 0,-27z" />
<path style="fill:#000;stroke:#000;stroke-width:2" d="M597,757 l0,62 -35,-26 0,-36 35,0z" />
<path style="fill:#000;stroke:#000;stroke-width:2" d="M134,739 l0,63 -35,-27 0,-36 35,0z" />
<path style="fill:#868686;stroke:#000;stroke-width:2" d="M223,562 l0,-19 -195,0 0,19 195,0z" />
<path style="fill:#868686;stroke:#000;stroke-width:2" d="M223,464 l0,-19 -195,0 0,19 195,0z" />
<path style="fill:#505050;stroke:#000;stroke-width:2" d="M215,543 l0,-79 -18,0 0,79 18,0z" />
<path style="fill:#505050;stroke:#000;stroke-width:2" d="M134,543 l0,-79 -17,0 0,79 17,0z" />
<path style="fill:#505050;stroke:#000;stroke-width:2" d="M54,543 l0,-79 -18,0 0,79 18,0z" />
<path style="fill:#000;stroke:#000;stroke-width:2" d="M206,562 l0,17 -142,0 -18,-17 160,0z" />
<path style="fill:none;stroke:#000;stroke-width:2" d="M285,597 l-17,-204 -9,0 -18,204 36,-89 -22,-62 16,0 -21,62 35,89" />
<path style="fill:none;stroke:#000;stroke-width:2" d="M277,508 l-27,0" />
<path style="fill:none;stroke:#000;stroke-width:2" d="M255,446 l13,-53" />
<path style="fill:none;stroke:#000;stroke-width:2" d="M272,446 l-13,-53" />
<path style="fill:#000;stroke:#000;stroke-width:2" d="M268,393 l0,-18 -9,0 0,18 9,0z" />
<path style="fill:#cecece;stroke:#000;stroke-width:2" d="M223,517 l-195,0 0,9 195,0 0,-9z" />
<path style="fill:#cecece;stroke:#000;stroke-width:2" d="M223,419 l-195,0 0,9 195,0 0,-9z" />
<path style="fill:#b6b6b6;stroke:#000;stroke-width:2" d="M508,437 l-53,-356 -36,0 -53,356 17,0 45,-338 18,0 45,338 17,0z" />
<path style="fill:#e6e6e6;stroke:#000;stroke-width:2" d="M464,81 l-54,0 0,18 54,0 0,-18z" />
<path style="fill:#e6e6e6;stroke:#000;stroke-width:2" d="M442,28 l-9,0 0,53 9,0 0,-53z" />
<path style="fill:#e6e6e6;stroke:#000;stroke-width:2" d="M508,304 l-142,0 0,17 142,0 0,-17z" />
<path style="fill:#e6e6e6;stroke:#000;stroke-width:2" d="M481,126 l-88,0 0,17 88,0 0,-17z" />
<path style="fill:#cecece;stroke:#000;stroke-width:2" d="M650,659 l-142,0 0,-62 27,-27 89,0 18,19 142,-117 -196,98 -9,0 223,-115 71,36 -71,-27 -152,142 0,53z" />
<circle style="fill:#000;stroke:#000;stroke-width:2" cx="801" cy="454" r="8" />
<circle style="fill:#000;stroke:#000;stroke-width:2" cx="872" cy="499" r="8" />
<circle style="fill:#000;stroke:#000;stroke-width:2" cx="668" cy="517" r="9" />
<path style="fill:#000;stroke:#000;stroke-width:2" d="M642,615 l-27,-36 -18,0 0,36 45,0z" />
<path style="fill:#000;stroke:#000;stroke-width:2" d="M589,615 l-1,-36 -17,0 0,36 18,0z" />
<path style="fill:#000;stroke:#000;stroke-width:2" d="M642,659 l-125,0 0,18 125,0 0,-18z" />
<path style="fill:#b6b6b6;stroke:#000;stroke-width:2" d="M642,677 l-125,0 0,9 125,0 0,-9z" />

</svg>
