 

<svg xmlns:agg="http://www.example.com" xmlns="http://www.w3.org/2000/svg" preserveAspectRatio="none" width="1.6083in" height="0.8871in" viewBox="0 0 999 551">

<path style="fill:#7f7f7f;stroke:#000;stroke-width:2" d="M970,53 l-847,0 0,470 847,0 0,-470z" />
<path style="fill:none;stroke:#000;stroke-width:2" d="M970,53 l-847,0 0,470 847,0 0,-470" />
<path style="fill:#999;stroke:#000;stroke-width:2" d="M163,53 l-35,0 0,470 35,0 0,-470z" />
<path style="fill:#999;stroke:#000;stroke-width:2" d="M211,53 l-35,0 0,470 35,0 0,-470z" />
<path style="fill:#999;stroke:#000;stroke-width:2" d="M256,53 l-35,0 0,470 35,0 0,-470z" />
<path style="fill:#999;stroke:#000;stroke-width:2" d="M304,53 l-35,0 0,470 35,0 0,-470z" />
<path style="fill:#999;stroke:#000;stroke-width:2" d="M352,53 l-35,0 0,470 35,0 0,-470z" />
<path style="fill:#999;stroke:#000;stroke-width:2" d="M400,53 l-35,0 0,470 35,0 0,-470z" />
<path style="fill:#999;stroke:#000;stroke-width:2" d="M445,53 l-35,0 0,470 35,0 0,-470z" />
<path style="fill:#999;stroke:#000;stroke-width:2" d="M493,53 l-35,0 0,470 35,0 0,-470z" />
<path style="fill:#999;stroke:#000;stroke-width:2" d="M540,53 l-35,0 0,470 35,0 0,-470z" />
<path style="fill:#999;stroke:#000;stroke-width:2" d="M588,53 l-35,0 0,470 35,0 0,-470z" />
<path style="fill:#999;stroke:#000;stroke-width:2" d="M633,53 l-35,0 0,470 35,0 0,-470z" />
<path style="fill:#999;stroke:#000;stroke-width:2" d="M681,53 l-35,0 0,470 35,0 0,-470z" />
<path style="fill:#999;stroke:#000;stroke-width:2" d="M729,53 l-35,0 0,470 35,0 0,-470z" />
<path style="fill:#999;stroke:#000;stroke-width:2" d="M777,53 l-35,0 0,470 35,0 0,-470z" />
<path style="fill:#999;stroke:#000;stroke-width:2" d="M822,53 l-35,0 0,470 35,0 0,-470z" />
<path style="fill:#999;stroke:#000;stroke-width:2" d="M870,53 l-35,0 0,470 35,0 0,-470z" />
<path style="fill:#999;stroke:#000;stroke-width:2" d="M917,53 l-35,0 0,470 35,0 0,-470z" />
<path style="fill:#999;stroke:#000;stroke-width:2" d="M965,53 l-35,0 0,470 35,0 0,-470z" />
<path style="fill:#666;stroke:#000;stroke-width:2" d="M123,523 l-95,-65 0,-423 95,18 0,470z" />
<path style="fill:#333;stroke:#000;stroke-width:2" d="M970,40 l-93,-12 -849,0 95,12 847,0z" />
<path style="fill:#333;stroke:#000;stroke-width:2" d="M694,53 l-13,0 0,470 13,0 0,-470z" />
<path style="fill:#333;stroke:#000;stroke-width:2" d="M410,53 l-10,0 0,470 10,0 0,-470z" />
<path style="fill:#333;stroke:#000;stroke-width:2" d="M664,264 l-93,0 0,259 93,0 0,-259z" />
<path style="fill:#ccc;stroke:#000;stroke-width:2" d="M121,53 l-93,-18 0,-7 93,12 0,13z" />
<path style="fill:#ccc;stroke:#000;stroke-width:2" d="M970,53 l-849,0 0,-13 849,0 0,13z" />
<path style="fill:#7f7f7f;stroke:#000;stroke-width:2" d="M656,269 l-83,0 0,251 83,0 0,-251z" />
<path style="fill:#7f7f7f;stroke:#000;stroke-width:2" d="M45,40 l0,428 -15,-10 0,-420 15,2z" />
<path style="fill:#7f7f7f;stroke:#000;stroke-width:2" d="M63,43 l0,435 -15,-8 0,-430 15,3z" />
<path style="fill:#7f7f7f;stroke:#000;stroke-width:2" d="M81,45 l0,445 -16,-7 0,-440 16,2z" />
<path style="fill:#7f7f7f;stroke:#000;stroke-width:2" d="M98,48 l0,455 -15,-10 0,-448 15,3z" />
<path style="fill:#7f7f7f;stroke:#000;stroke-width:2" d="M116,53 l0,460 -15,-8 0,-457 15,5z" />
<path style="fill:#333;stroke:#000;stroke-width:2" d="M583,392 l-5,5 5,5 5,-5 -5,-5z" />

</svg>
