 

<svg xmlns:agg="http://www.example.com" xmlns="http://www.w3.org/2000/svg" preserveAspectRatio="none" width="1.2401in" height="1.0750in" viewBox="0 0 999 866">

<path style="fill:#ccb299;stroke:#000;stroke-width:2" d="M970,838 l0,-393 -785,0 0,393 785,0z" />
<path style="fill:#997f66;stroke:#000;stroke-width:2" d="M28,759 l0,-393 157,79 0,393 -157,-79z" />
<path style="fill:#ffe5cc;stroke:#000;stroke-width:2" d="M970,445 l-98,-49 -432,0 -59,-30 -353,0 157,79 785,0z" />
<path style="fill:#b89e85;stroke:#000;stroke-width:2" d="M970,749 l0,-78 -785,0 0,78 785,0z" />
<path style="fill:#b89e85;stroke:#000;stroke-width:2" d="M970,592 l0,-78 -785,0 0,78 785,0z" />
<path style="fill:#997f66;stroke:#000;stroke-width:2" d="M381,592 l0,-78 -137,0 0,78 137,0z" />
<path style="fill:#997f66;stroke:#000;stroke-width:2" d="M558,592 l0,-78 -138,0 0,78 138,0z" />
<path style="fill:#997f66;stroke:#000;stroke-width:2" d="M734,592 l0,-78 -137,0 0,78 137,0z" />
<path style="fill:#997f66;stroke:#000;stroke-width:2" d="M911,592 l0,-78 -137,0 0,78 137,0z" />
<path style="fill:#997f66;stroke:#000;stroke-width:2" d="M911,749 l0,-78 -137,0 0,78 137,0z" />
<path style="fill:#997f66;stroke:#000;stroke-width:2" d="M734,749 l0,-78 -137,0 0,78 137,0z" />
<path style="fill:#997f66;stroke:#000;stroke-width:2" d="M558,749 l0,-78 -138,0 0,78 138,0z" />
<path style="fill:#997f66;stroke:#000;stroke-width:2" d="M381,749 l0,-78 -137,0 0,78 137,0z" />
<path style="fill:#856b52;stroke:#000;stroke-width:2" d="M28,509 l0,-78 157,83 0,78 -157,-83z" />
<path style="fill:#856b52;stroke:#000;stroke-width:2" d="M28,666 l0,-78 157,83 0,78 -157,-83z" />
<path style="fill:#664c33;stroke:#000;stroke-width:2" d="M146,729 l0,-79 27,15 0,78 -27,-14z" />
<path style="fill:#664c33;stroke:#000;stroke-width:2" d="M110,710 l0,-79 28,15 0,79 -28,-15z" />
<path style="fill:#664c33;stroke:#000;stroke-width:2" d="M75,691 l0,-78 28,14 0,79 -28,-15z" />
<path style="fill:#664c33;stroke:#000;stroke-width:2" d="M40,672 l0,-78 27,15 0,78 -27,-15z" />
<path style="fill:#664c33;stroke:#000;stroke-width:2" d="M40,515 l0,-78 27,15 0,78 -27,-15z" />
<path style="fill:#664c33;stroke:#000;stroke-width:2" d="M75,534 l0,-78 28,14 0,79 -28,-15z" />
<path style="fill:#664c33;stroke:#000;stroke-width:2" d="M110,553 l0,-79 28,15 0,78 -28,-14z" />
<path style="fill:#664c33;stroke:#000;stroke-width:2" d="M146,572 l0,-79 27,14 0,79 -27,-14z" />
<path style="fill:#664c33;stroke:#000;stroke-width:2" d="M754,32 l-10,-4 40,0 9,4 -39,0z" />
<path style="fill:#664c33;stroke:#000;stroke-width:2" d="M573,32 l-10,-4 39,0 10,4 -39,0z" />
<path style="fill:#ccb299;stroke:#000;stroke-width:2" d="M617,425 l-5,-393 -39,0 -5,393 49,0z" />
<path style="fill:#ccb299;stroke:#000;stroke-width:2" d="M798,425 l-5,-393 -39,0 -5,393 49,0z" />
<path style="fill:#997f66;stroke:#000;stroke-width:2" d="M568,425 l5,-393 -10,-4 -10,387 15,10z" />
<path style="fill:#997f66;stroke:#000;stroke-width:2" d="M749,425 l5,-393 -10,-4 -9,387 14,10z" />
<path style="fill:#7f4c4c" d="M572,92 l0,-15 40,0 0,15 -40,0z" />
<path style="fill:#7f4c4c" d="M572,126 l0,-15 40,0 0,15 -40,0z" />
<path style="fill:#7f4c4c" d="M754,92 l0,-15 39,0 0,15 -39,0z" />
<path style="fill:#7f4c4c" d="M753,126 l0,-15 40,0 0,15 -40,0z" />
<path style="fill:#4c1919" d="M562,87 l0,-14 11,4 0,15 -11,-5z" />
<path style="fill:#4c1919" d="M561,122 l0,-15 11,4 0,15 -11,-4z" />
<path style="fill:#4c1919" d="M743,87 l0,-14 11,4 0,15 -11,-5z" />
<path style="fill:#4c1919" d="M742,122 l0,-15 11,4 0,15 -11,-4z" />

</svg>
