 

<svg xmlns:agg="http://www.example.com" xmlns="http://www.w3.org/2000/svg" preserveAspectRatio="none" width="1.1548in" height="1.0750in" viewBox="0 0 999 930">

<path style="fill:none;stroke:#000;stroke-width:2" d="M581,134 l-204,0" />
<path style="fill:none;stroke:#000;stroke-width:2" d="M696,316 l-14,-14 274,-274 14,14 -274,274" />
<path style="fill:none;stroke:#000;stroke-width:2" d="M696,316 l55,-83" />
<path style="fill:none;stroke:#000;stroke-width:2" d="M682,302 l83,-55" />
<path style="fill:none;stroke:#000;stroke-width:2" d="M765,247 l54,-82" />
<path style="fill:none;stroke:#000;stroke-width:2" d="M751,233 l82,-54" />
<path style="fill:none;stroke:#000;stroke-width:2" d="M833,179 l55,-83" />
<path style="fill:none;stroke:#000;stroke-width:2" d="M819,165 l83,-55" />
<path style="fill:none;stroke:#000;stroke-width:2" d="M902,110 l54,-82" />
<path style="fill:none;stroke:#000;stroke-width:2" d="M888,96 l82,-54" />
<path style="fill:none;stroke:#000;stroke-width:2" d="M902,110 l-14,-14" />
<path style="fill:none;stroke:#000;stroke-width:2" d="M819,165 l14,14" />
<path style="fill:none;stroke:#000;stroke-width:2" d="M765,247 l-14,-14" />
<path style="fill:none;stroke:#000;stroke-width:2" d="M715,269 l14,14" />
<path style="fill:none;stroke:#000;stroke-width:2" d="M784,200 l14,14" />
<path style="fill:none;stroke:#000;stroke-width:2" d="M855,132 l11,12" />
<path style="fill:none;stroke:#000;stroke-width:2" d="M923,63 l12,12" />
<path style="fill:#505050;stroke:#000;stroke-width:2" d="M106,571 l661,0 0,-78 19,0 0,-38 175,0 0,-59 -156,0 0,-19 59,0 0,-37 -78,0 0,-60 -40,-18 0,-59 -97,0 0,-38 19,0 0,-40 -19,0 0,-60 -38,0 0,60 -19,19 -78,0 0,-19 -78,0 0,19 -59,0 0,-38 -330,0 0,156 -19,0 0,37 19,0 0,60 -19,0 0,37 19,0 0,59 -19,0 0,38 19,0 0,59 59,0 0,19z" />
<ellipse style="fill:#505050;stroke:#000;stroke-width:2" cx="630" cy="57" rx="59" ry="29" />
<path style="fill:#000;stroke:#000;stroke-width:2" d="M143,902 l-37,0 0,-331 37,0 0,331z" />
<path style="fill:#000;stroke:#000;stroke-width:2" d="M262,902 l-41,0 0,-331 41,0 0,331z" />
<path style="fill:#000;stroke:#000;stroke-width:2" d="M377,902 l-37,0 0,-331 37,0 0,331z" />
<path style="fill:#000;stroke:#000;stroke-width:2" d="M493,902 l-38,0 0,-331 38,0 0,331z" />
<path style="fill:#000;stroke:#000;stroke-width:2" d="M611,902 l-40,0 0,-331 40,0 0,331z" />
<path style="fill:#000;stroke:#000;stroke-width:2" d="M727,902 l-38,0 0,-331 38,0 0,331z" />
<path style="fill:#000;stroke:#000;stroke-width:2" d="M124,552 l0,-37 603,0 0,37 -603,0z" />
<path style="fill:#000;stroke:#000;stroke-width:2" d="M592,455 l0,-19 369,0 0,19 -369,0z" />
<path style="fill:#6b6b6b;stroke:#000;stroke-width:2" d="M592,436 l175,0 0,-77 -175,0 0,77z" />
<path style="fill:#6b6b6b;stroke:#000;stroke-width:2" d="M28,396 l389,0 0,-37 -389,0 0,37z" />
<path style="fill:#000;stroke:#000;stroke-width:2" d="M47,436 l0,-40 370,0 0,40 -370,0z" />
<path style="fill:#6b6b6b;stroke:#000;stroke-width:2" d="M28,299 l389,0 0,-37 -389,0 0,37z" />
<path style="fill:#000;stroke:#000;stroke-width:2" d="M47,340 l0,-41 370,0 0,41 -370,0z" />
<path style="fill:#000;stroke:#000;stroke-width:2" d="M124,746 l0,-19 584,0 0,19 -584,0z" />
<path style="fill:none;stroke:#000;stroke-width:2" d="M689,883 l-78,-116" />
<path style="fill:none;stroke:#000;stroke-width:2" d="M689,767 l-78,116" />
<path style="fill:none;stroke:#000;stroke-width:2" d="M689,708 l-78,-116" />
<path style="fill:none;stroke:#000;stroke-width:2" d="M689,592 l-78,116" />
<path style="fill:none;stroke:#000;stroke-width:2" d="M571,883 l-78,-116" />
<path style="fill:none;stroke:#000;stroke-width:2" d="M571,767 l-78,116" />
<path style="fill:none;stroke:#000;stroke-width:2" d="M571,708 l-78,-116" />
<path style="fill:none;stroke:#000;stroke-width:2" d="M571,592 l-78,116" />
<path style="fill:none;stroke:#000;stroke-width:2" d="M455,883 l-78,-116" />
<path style="fill:none;stroke:#000;stroke-width:2" d="M455,767 l-78,116" />
<path style="fill:none;stroke:#000;stroke-width:2" d="M455,708 l-78,-116" />
<path style="fill:none;stroke:#000;stroke-width:2" d="M455,592 l-78,116" />
<path style="fill:none;stroke:#000;stroke-width:2" d="M340,883 l-78,-116" />
<path style="fill:none;stroke:#000;stroke-width:2" d="M340,767 l-78,116" />
<path style="fill:none;stroke:#000;stroke-width:2" d="M340,708 l-78,-116" />
<path style="fill:none;stroke:#000;stroke-width:2" d="M340,592 l-78,116" />
<path style="fill:none;stroke:#000;stroke-width:2" d="M221,883 l-78,-116" />
<path style="fill:none;stroke:#000;stroke-width:2" d="M221,767 l-78,116" />
<path style="fill:none;stroke:#000;stroke-width:2" d="M221,708 l-78,-116" />
<path style="fill:none;stroke:#000;stroke-width:2" d="M221,592 l-78,116" />
<path style="fill:#e6e6e6;stroke:#000;stroke-width:2" d="M562,203 l-8,4 -2,5 5,8 5,1 7,-4 2,-5 -4,-8 -5,-1z" />
<path style="fill:#e6e6e6;stroke:#000;stroke-width:2" d="M465,203 l-8,4 -2,5 5,8 5,1 7,-4 2,-5 -4,-8 -5,-1z" />
<path style="fill:#e6e6e6;stroke:#000;stroke-width:2" d="M562,280 l-8,5 -2,5 5,8 5,1 7,-4 2,-5 -4,-8 -5,-2z" />
<path style="fill:#e6e6e6;stroke:#000;stroke-width:2" d="M680,280 l-9,5 -1,5 2,6 8,3 7,-4 2,-5 -4,-8 -5,-2z" />
<path style="fill:#e6e6e6;stroke:#000;stroke-width:2" d="M77,221 l-8,3 -4,7 2,6 10,3 8,-3 2,-6 -5,-8 -5,-2z" />
<path style="fill:#e6e6e6;stroke:#000;stroke-width:2" d="M231,221 l-8,5 -2,5 5,8 5,1 8,-3 1,-4 -2,-9 -7,-3z" />
<path style="fill:#e6e6e6;stroke:#000;stroke-width:2" d="M680,396 l-8,3 -2,7 2,8 2,2 6,1 7,-4 2,-7 -4,-8 -5,-2z" />
<path style="fill:#000;stroke:#000;stroke-width:2" d="M221,65 l-18,0 0,41 18,0 0,-41z" />
<path style="fill:none;stroke:#000;stroke-width:2" d="M746,193 l-97,0" />
<path style="fill:none;stroke:#000;stroke-width:2" d="M524,115 l-97,0" />
<path style="fill:none;stroke:#000;stroke-width:2" d="M387,96 l-166,0" />
<path style="fill:none;stroke:#000;stroke-width:2" d="M77,96 l-40,0" />
<path style="fill:none;stroke:#000;stroke-width:2" d="M28,252 l389,0" />
<path style="fill:none;stroke:#000;stroke-width:2" d="M28,349 l389,0" />
<path style="fill:none;stroke:#000;stroke-width:2" d="M767,427 l203,0" />
<path style="fill:none;stroke:#000;stroke-width:2" d="M873,330 l-87,0" />

</svg>
