 

<svg xmlns:agg="http://www.example.com" xmlns="http://www.w3.org/2000/svg" preserveAspectRatio="none" width="1.1673in" height="1.0750in" viewBox="0 0 999 920">

<path style="fill:#868686;stroke:#000;stroke-width:2" d="M970,839 l-118,0 0,20 118,0 0,-20z" />
<path style="fill:#868686;stroke:#000;stroke-width:2" d="M146,263 l-118,0 0,20 118,0 0,-20z" />
<path style="fill:#868686;stroke:#000;stroke-width:2" d="M895,787 l-118,0 0,20 118,0 0,-20z" />
<path style="fill:#868686;stroke:#000;stroke-width:2" d="M820,734 l-117,0 0,20 117,0 0,-20z" />
<path style="fill:#868686;stroke:#000;stroke-width:2" d="M745,682 l-118,0 0,20 118,0 0,-20z" />
<path style="fill:#868686;stroke:#000;stroke-width:2" d="M670,629 l-118,0 0,20 118,0 0,-20z" />
<path style="fill:#868686;stroke:#000;stroke-width:2" d="M595,577 l-118,0 0,20 118,0 0,-20z" />
<path style="fill:#868686;stroke:#000;stroke-width:2" d="M520,525 l-118,0 0,20 118,0 0,-20z" />
<path style="fill:#868686;stroke:#000;stroke-width:2" d="M446,472 l-118,0 0,20 118,0 0,-20z" />
<path style="fill:#868686;stroke:#000;stroke-width:2" d="M371,420 l-118,0 0,20 118,0 0,-20z" />
<path style="fill:#868686;stroke:#000;stroke-width:2" d="M295,367 l-117,0 0,20 117,0 0,-20z" />
<path style="fill:#868686;stroke:#000;stroke-width:2" d="M220,315 l-117,0 0,20 117,0 0,-20z" />
<path style="fill:#b6b6b6;stroke:#000;stroke-width:2" d="M524,568 l-477,0 0,49 477,0 0,-49z" />
<path style="fill:#929292" d="M524,583 l-477,0 0,19 477,0 0,-19z" />
<path style="fill:#868686;stroke:#000;stroke-width:2" d="M954,771 l-436,-294 12,-16 435,293 -11,17z" />
<path style="fill:#868686;stroke:#000;stroke-width:2" d="M483,457 l-436,-294 11,-16 436,293 -11,17z" />
<path style="fill:#f2f2f2" d="M486,451 l-435,-294 4,-5 436,293 -5,6z" />
<path style="fill:#f2f2f2" d="M958,765 l-436,-294 4,-5 436,293 -4,6z" />
<path style="fill:#868686;stroke:#000;stroke-width:2" d="M479,578 l0,-236 -417,-280 0,830 -19,0 0,-864 456,304 0,246 -20,0z" />
<path style="fill:#868686;stroke:#000;stroke-width:2" d="M950,892 l0,-236 -417,-280 0,516 -19,0 0,-550 456,304 0,246 -20,0z" />
<path style="fill:#f2f2f2" d="M957,892 l0,-239 -431,-290 0,524 -6,0 0,-535 444,298 0,242 -7,0z" />
<path style="fill:#f2f2f2" d="M486,578 l0,-239 -431,-290 0,838 -6,0 0,-849 444,298 0,242 -7,0z" />
<path style="fill:#c2c2c2;stroke:#000;stroke-width:2" d="M28,263 l893,629 29,0 0,-40 -922,-641 0,52z" />
<path style="fill:#9e9e9e" d="M38,234 l898,628 -10,15 -888,-623 0,-20z" />

</svg>
