<?xml version="1.0" encoding="utf-8"?>
<!-- Generator: Adobe Illustrator 16.0.0, SVG Export Plug-In . SVG Version: 6.00 Build 0)  -->
<!DOCTYPE svg PUBLIC "-//W3C//DTD SVG 1.1//EN" "http://www.w3.org/Graphics/SVG/1.1/DTD/svg11.dtd">
<svg version="1.1" id="图层_1" xmlns="http://www.w3.org/2000/svg" preserveAspectRatio="none" xmlns:xlink="http://www.w3.org/1999/xlink" x="0px" y="0px"
	 width="100px" height="100px" viewBox="0 0 100 100" enable-background="new 0 0 100 100" xml:space="preserve">
<g>
	<g>
		<polygon fill="#418538" points="71.601,98.28 2,98.28 2,93.803 28.159,82.005 97.759,73.945 97.759,78.423 		"/>
		<polygon fill="#A5BE3C" points="71.601,93.803 2,93.803 28.159,73.945 97.759,73.945 		"/>
		<rect x="2" y="93.803" fill="#71B73C" width="69.601" height="4.478"/>
	</g>
</g>
<g>
	<rect x="16.944" y="18.451" fill="#83ADCE" width="46.937" height="73.057"/>
	<rect x="16.944" y="78.451" fill="#A6B3BA" width="46.937" height="13.057"/>
	<rect x="19.994" y="78.451" fill="#D7D8DA" width="40.218" height="13.057"/>
	<g>
		<g>
			<circle fill="#C1E4E8" cx="21.476" cy="30.599" r="2.063"/>
			<circle fill="#C1E4E8" cx="21.476" cy="35.963" r="2.063"/>
			<circle fill="#C1E4E8" cx="21.476" cy="41.328" r="2.063"/>
			<circle fill="#C1E4E8" cx="21.476" cy="46.692" r="2.063"/>
			<circle fill="#C1E4E8" cx="21.476" cy="52.057" r="2.063"/>
			<circle fill="#C1E4E8" cx="21.476" cy="57.419" r="2.063"/>
			<path fill="#C1E4E8" d="M23.539,62.783c0,1.142-0.924,2.062-2.064,2.062c-1.14,0-2.063-0.92-2.063-2.062
				c0-1.14,0.923-2.063,2.063-2.063C22.615,60.721,23.539,61.644,23.539,62.783z"/>
			<circle fill="#C1E4E8" cx="21.476" cy="68.149" r="2.063"/>
			<circle fill="#C1E4E8" cx="21.476" cy="25.235" r="2.063"/>
			<circle fill="#C1E4E8" cx="21.476" cy="73.512" r="2.063"/>
		</g>
		<g>
			<circle fill="#C1E4E8" cx="26.886" cy="30.599" r="2.063"/>
			<circle fill="#C1E4E8" cx="26.886" cy="35.963" r="2.063"/>
			<circle fill="#C1E4E8" cx="26.886" cy="41.328" r="2.063"/>
			<circle fill="#C1E4E8" cx="26.886" cy="46.692" r="2.063"/>
			<circle fill="#C1E4E8" cx="26.886" cy="52.057" r="2.063"/>
			<circle fill="#C1E4E8" cx="26.886" cy="57.419" r="2.063"/>
			<path fill="#C1E4E8" d="M28.949,62.783c0,1.142-0.923,2.062-2.062,2.062c-1.14,0-2.064-0.92-2.064-2.062
				c0-1.14,0.924-2.063,2.064-2.063C28.026,60.721,28.949,61.644,28.949,62.783z"/>
			<circle fill="#C1E4E8" cx="26.886" cy="68.149" r="2.063"/>
			<circle fill="#C1E4E8" cx="26.886" cy="25.235" r="2.063"/>
			<circle fill="#C1E4E8" cx="26.886" cy="73.512" r="2.063"/>
		</g>
		<g>
			<circle fill="#C1E4E8" cx="32.296" cy="30.599" r="2.063"/>
			<circle fill="#C1E4E8" cx="32.296" cy="35.963" r="2.063"/>
			<circle fill="#C1E4E8" cx="32.296" cy="41.328" r="2.063"/>
			<circle fill="#C1E4E8" cx="32.296" cy="46.692" r="2.063"/>
			<circle fill="#C1E4E8" cx="32.296" cy="52.057" r="2.063"/>
			<circle fill="#C1E4E8" cx="32.296" cy="57.419" r="2.063"/>
			<path fill="#C1E4E8" d="M34.36,62.783c0,1.142-0.924,2.062-2.063,2.062c-1.14,0-2.064-0.92-2.064-2.062
				c0-1.14,0.924-2.063,2.064-2.063C33.436,60.721,34.36,61.644,34.36,62.783z"/>
			<circle fill="#C1E4E8" cx="32.296" cy="68.149" r="2.063"/>
			<circle fill="#C1E4E8" cx="32.296" cy="25.235" r="2.063"/>
			<circle fill="#C1E4E8" cx="32.296" cy="73.512" r="2.063"/>
		</g>
		<g>
			<circle fill="#C1E4E8" cx="37.708" cy="30.599" r="2.063"/>
			<circle fill="#C1E4E8" cx="37.708" cy="35.963" r="2.063"/>
			<circle fill="#C1E4E8" cx="37.708" cy="41.328" r="2.063"/>
			<circle fill="#C1E4E8" cx="37.708" cy="46.692" r="2.063"/>
			<circle fill="#C1E4E8" cx="37.708" cy="52.057" r="2.063"/>
			<circle fill="#C1E4E8" cx="37.708" cy="57.419" r="2.063"/>
			<path fill="#C1E4E8" d="M39.771,62.783c0,1.142-0.923,2.062-2.063,2.062c-1.14,0-2.063-0.92-2.063-2.062
				c0-1.14,0.923-2.063,2.063-2.063C38.848,60.721,39.771,61.644,39.771,62.783z"/>
			<circle fill="#C1E4E8" cx="37.708" cy="68.149" r="2.063"/>
			<circle fill="#C1E4E8" cx="37.708" cy="25.235" r="2.063"/>
			<circle fill="#C1E4E8" cx="37.708" cy="73.512" r="2.063"/>
		</g>
		<g>
			<circle fill="#C1E4E8" cx="43.118" cy="30.599" r="2.063"/>
			<circle fill="#C1E4E8" cx="43.118" cy="35.963" r="2.063"/>
			<circle fill="#C1E4E8" cx="43.118" cy="41.328" r="2.063"/>
			<circle fill="#C1E4E8" cx="43.118" cy="46.692" r="2.063"/>
			<circle fill="#C1E4E8" cx="43.118" cy="52.057" r="2.063"/>
			<circle fill="#C1E4E8" cx="43.118" cy="57.419" r="2.063"/>
			<path fill="#C1E4E8" d="M45.181,62.783c0,1.142-0.925,2.062-2.063,2.062c-1.139,0-2.063-0.92-2.063-2.062
				c0-1.14,0.924-2.063,2.063-2.063C44.256,60.721,45.181,61.644,45.181,62.783z"/>
			<circle fill="#C1E4E8" cx="43.118" cy="68.149" r="2.063"/>
			<circle fill="#C1E4E8" cx="43.118" cy="25.235" r="2.063"/>
			<circle fill="#C1E4E8" cx="43.118" cy="73.512" r="2.063"/>
		</g>
		<g>
			<circle fill="#C1E4E8" cx="48.528" cy="30.599" r="2.063"/>
			<circle fill="#C1E4E8" cx="48.528" cy="35.963" r="2.063"/>
			<circle fill="#C1E4E8" cx="48.528" cy="41.328" r="2.063"/>
			<circle fill="#C1E4E8" cx="48.528" cy="46.692" r="2.063"/>
			<circle fill="#C1E4E8" cx="48.528" cy="52.057" r="2.063"/>
			<circle fill="#C1E4E8" cx="48.528" cy="57.419" r="2.063"/>
			<path fill="#C1E4E8" d="M50.591,62.783c0,1.142-0.922,2.062-2.063,2.062c-1.138,0-2.063-0.92-2.063-2.062
				c0-1.14,0.925-2.063,2.063-2.063C49.668,60.721,50.591,61.644,50.591,62.783z"/>
			<circle fill="#C1E4E8" cx="48.528" cy="68.149" r="2.063"/>
			<circle fill="#C1E4E8" cx="48.528" cy="25.235" r="2.063"/>
			<circle fill="#C1E4E8" cx="48.528" cy="73.512" r="2.063"/>
		</g>
		<g>
			<circle fill="#C1E4E8" cx="53.94" cy="30.599" r="2.063"/>
			<circle fill="#C1E4E8" cx="53.94" cy="35.963" r="2.063"/>
			<circle fill="#C1E4E8" cx="53.94" cy="41.328" r="2.063"/>
			<circle fill="#C1E4E8" cx="53.94" cy="46.692" r="2.063"/>
			<circle fill="#C1E4E8" cx="53.94" cy="52.057" r="2.063"/>
			<circle fill="#C1E4E8" cx="53.94" cy="57.419" r="2.063"/>
			<path fill="#C1E4E8" d="M56.003,62.783c0,1.142-0.925,2.062-2.064,2.062c-1.139,0-2.062-0.92-2.062-2.062
				c0-1.14,0.923-2.063,2.062-2.063C55.078,60.721,56.003,61.644,56.003,62.783z"/>
			<circle fill="#C1E4E8" cx="53.94" cy="68.149" r="2.063"/>
			<circle fill="#C1E4E8" cx="53.94" cy="25.235" r="2.063"/>
			<circle fill="#C1E4E8" cx="53.94" cy="73.512" r="2.063"/>
		</g>
		<g>
			<circle fill="#C1E4E8" cx="59.351" cy="30.599" r="2.063"/>
			<circle fill="#C1E4E8" cx="59.351" cy="35.963" r="2.063"/>
			<circle fill="#C1E4E8" cx="59.351" cy="41.328" r="2.063"/>
			<circle fill="#C1E4E8" cx="59.351" cy="46.692" r="2.063"/>
			<circle fill="#C1E4E8" cx="59.351" cy="52.057" r="2.063"/>
			<circle fill="#C1E4E8" cx="59.351" cy="57.419" r="2.063"/>
			<path fill="#C1E4E8" d="M61.414,62.783c0,1.142-0.923,2.062-2.063,2.062c-1.142,0-2.063-0.92-2.063-2.062
				c0-1.14,0.922-2.063,2.063-2.063C60.491,60.721,61.414,61.644,61.414,62.783z"/>
			<circle fill="#C1E4E8" cx="59.351" cy="68.149" r="2.063"/>
			<circle fill="#C1E4E8" cx="59.351" cy="25.235" r="2.063"/>
			<circle fill="#C1E4E8" cx="59.351" cy="73.512" r="2.063"/>
		</g>
	</g>
	<polygon fill="#557187" points="63.881,91.508 80.965,78.539 80.965,5.483 63.881,18.451 	"/>
	<polygon fill="#3C5365" points="63.881,91.508 80.965,78.539 80.965,65.484 63.881,78.451 	"/>
	<polygon fill="#ABC9DD" points="16.944,18.451 34.029,5.482 80.965,5.483 63.881,18.451 	"/>
	<g>
		<rect x="32.527" y="80.032" fill="#1F1F1F" width="15.625" height="11.476"/>
		<path fill="#C1E4E8" d="M32.947,80.597c0,1.021,0,9.889,0,10.911c0.772,0,14.013,0,14.784,0c0-1.022,0-9.89,0-10.911
			C46.96,80.597,33.719,80.597,32.947,80.597z"/>
		<rect x="40.19" y="80.597" fill="#383838" width="0.298" height="10.911"/>
	</g>
	<rect x="16.944" y="78.451" fill="#768088" width="46.937" height="0.622"/>
	<path fill="#C4D3EA" d="M68.966,4.232c0,0-4.992-2.836-14.482-2.836C44.991,1.396,40,4.232,40,4.232l-11.007,8.356h28.966
		l11.007-4.636V4.232z"/>
	<path fill="#ABC9DD" d="M42.663,12.392l2.735,0.196h12.561l7.047-2.969l3.96-3.063V4.232c0,0-4.992-2.836-14.482-2.836
		L43.477,9.751L42.663,12.392z"/>
	<polygon fill="#557187" points="57.959,16.307 68.966,7.952 68.966,4.232 57.959,12.588 	"/>
	<path fill="#83ADCE" d="M57.959,16.307v-3.718c0,0-4.989-2.837-14.482-2.837c-9.492,0-14.483,2.837-14.483,2.837v3.718H57.959z"/>
</g>
</svg>
