 

<svg xmlns:agg="http://www.example.com" xmlns="http://www.w3.org/2000/svg" preserveAspectRatio="none" width="1.5701in" height="1.0750in" viewBox="0 0 999 684">

<path style="fill:#999" d="M970,656 l-2,0 0,-490 2,0 0,490z" />
<path style="fill:#e5e5e5" d="M968,656 l-5,0 0,-490 5,0 0,490z" />
<path style="fill:#ccc" d="M963,656 l-3,0 0,-490 3,0 0,490z" />
<path style="fill:#b2b2b2" d="M960,656 l-2,0 0,-490 2,0 0,490z" />
<path style="fill:#999" d="M958,656 l-3,0 0,-490 3,0 0,490z" />
<path style="fill:#4c4c4c" d="M955,656 l-5,0 0,-490 5,0 0,490z" />
<path style="fill:#fff" d="M968,656 l-3,0 0,-490 3,0 0,490z" />
<path style="fill:none;stroke:#000;stroke-width:2" d="M970,166 l-20,0 0,490 20,0 0,-490" />
<path style="fill:#999" d="M970,146 l0,2 -942,0 0,-2 942,0z" />
<path style="fill:#e5e5e5" d="M970,148 l0,5 -942,0 0,-5 942,0z" />
<path style="fill:#ccc" d="M970,153 l0,3 -942,0 0,-3 942,0z" />
<path style="fill:#b2b2b2" d="M970,156 l0,2 -942,0 0,-2 942,0z" />
<path style="fill:#999" d="M970,158 l0,3 -942,0 0,-3 942,0z" />
<path style="fill:#4c4c4c" d="M970,161 l0,5 -942,0 0,-5 942,0z" />
<path style="fill:#fff" d="M970,148 l0,3 -942,0 0,-3 942,0z" />
<path style="fill:none;stroke:#000;stroke-width:2" d="M28,146 l0,20 942,0 0,-20 -942,0" />
<path style="fill:#e5e5e5" d="M970,146 l-2,0 0,-118 2,0 0,118z" />
<path style="fill:#ccc" d="M968,146 l-3,0 0,-118 3,0 0,118z" />
<path style="fill:#b2b2b2" d="M965,146 l-2,0 0,-118 2,0 0,118z" />
<path style="fill:#4c4c4c" d="M963,146 l-3,0 0,-118 3,0 0,118z" />
<path style="fill:none;stroke:#000;stroke-width:2" d="M970,28 l-10,0 0,118 10,0 0,-118" />
<path style="fill:none;stroke:#000;stroke-width:2" d="M930,656 l-510,-510 -392,392" />
<path style="fill:none;stroke:#000;stroke-width:2" d="M970,656 l-510,-510 -432,432" />
<path style="fill:none;stroke:#000;stroke-width:2" d="M970,616 l-470,-470 -472,470" />
<path style="fill:none;stroke:#000;stroke-width:2" d="M970,578 l-432,-432 -510,510" />
<path style="fill:none;stroke:#000;stroke-width:2" d="M970,538 l-392,-392 -510,510" />
<path style="fill:none;stroke:#000;stroke-width:2" d="M970,498 l-354,-352 -510,510" />
<path style="fill:none;stroke:#000;stroke-width:2" d="M970,460 l-314,-314 -510,510" />
<path style="fill:none;stroke:#000;stroke-width:2" d="M970,420 l-274,-274 -510,510" />
<path style="fill:none;stroke:#000;stroke-width:2" d="M970,382 l-236,-236 -510,510" />
<path style="fill:none;stroke:#000;stroke-width:2" d="M970,342 l-196,-196 -510,510" />
<path style="fill:none;stroke:#000;stroke-width:2" d="M970,302 l-156,-156 -512,510" />
<path style="fill:none;stroke:#000;stroke-width:2" d="M970,264 l-118,-118 -510,510" />
<path style="fill:none;stroke:#000;stroke-width:2" d="M970,224 l-78,-78 -510,510" />
<path style="fill:none;stroke:#000;stroke-width:2" d="M970,184 l-40,-38 -510,510" />
<path style="fill:none;stroke:#000;stroke-width:2" d="M970,146 l-510,510" />
<path style="fill:none;stroke:#000;stroke-width:2" d="M970,184 l-470,472" />
<path style="fill:none;stroke:#000;stroke-width:2" d="M970,224 l-432,432" />
<path style="fill:none;stroke:#000;stroke-width:2" d="M970,264 l-392,392" />
<path style="fill:none;stroke:#000;stroke-width:2" d="M970,302 l-354,354" />
<path style="fill:none;stroke:#000;stroke-width:2" d="M970,342 l-314,314" />
<path style="fill:none;stroke:#000;stroke-width:2" d="M970,382 l-274,274" />
<path style="fill:none;stroke:#000;stroke-width:2" d="M970,420 l-236,236" />
<path style="fill:none;stroke:#000;stroke-width:2" d="M970,460 l-196,196" />
<path style="fill:none;stroke:#000;stroke-width:2" d="M970,498 l-156,158" />
<path style="fill:none;stroke:#000;stroke-width:2" d="M970,538 l-118,118" />
<path style="fill:none;stroke:#000;stroke-width:2" d="M970,578 l-78,78" />
<path style="fill:none;stroke:#000;stroke-width:2" d="M970,616 l-40,40" />
<path style="fill:none;stroke:#000;stroke-width:2" d="M892,656 l-510,-510" />
<path style="fill:none;stroke:#000;stroke-width:2" d="M852,656 l-510,-510" />
<path style="fill:none;stroke:#000;stroke-width:2" d="M814,656 l-512,-510" />
<path style="fill:none;stroke:#000;stroke-width:2" d="M774,656 l-510,-510" />
<path style="fill:none;stroke:#000;stroke-width:2" d="M734,656 l-510,-510" />
<path style="fill:none;stroke:#000;stroke-width:2" d="M696,656 l-510,-510" />
<path style="fill:none;stroke:#000;stroke-width:2" d="M656,656 l-510,-510" />
<path style="fill:none;stroke:#000;stroke-width:2" d="M616,656 l-510,-510" />
<path style="fill:none;stroke:#000;stroke-width:2" d="M578,656 l-510,-510" />
<path style="fill:none;stroke:#000;stroke-width:2" d="M538,656 l-510,-510" />
<path style="fill:none;stroke:#000;stroke-width:2" d="M500,656 l-472,-472" />
<path style="fill:none;stroke:#000;stroke-width:2" d="M460,656 l-432,-432" />
<path style="fill:none;stroke:#000;stroke-width:2" d="M420,656 l-392,-392" />
<path style="fill:none;stroke:#000;stroke-width:2" d="M382,656 l-354,-354" />
<path style="fill:none;stroke:#000;stroke-width:2" d="M342,656 l-314,-314" />
<path style="fill:none;stroke:#000;stroke-width:2" d="M302,656 l-274,-274" />
<path style="fill:none;stroke:#000;stroke-width:2" d="M264,656 l-236,-236" />
<path style="fill:none;stroke:#000;stroke-width:2" d="M224,656 l-196,-196" />
<path style="fill:none;stroke:#000;stroke-width:2" d="M186,656 l-158,-158" />
<path style="fill:none;stroke:#000;stroke-width:2" d="M146,656 l-118,-118" />
<path style="fill:none;stroke:#000;stroke-width:2" d="M106,656 l-78,-78" />
<path style="fill:none;stroke:#000;stroke-width:2" d="M68,656 l-40,-40" />
<path style="fill:none;stroke:#000;stroke-width:2" d="M28,498 l354,-352" />
<path style="fill:none;stroke:#000;stroke-width:2" d="M342,146 l-314,314" />
<path style="fill:none;stroke:#000;stroke-width:2" d="M28,420 l274,-274" />
<path style="fill:none;stroke:#000;stroke-width:2" d="M264,146 l-236,236" />
<path style="fill:none;stroke:#000;stroke-width:2" d="M28,342 l196,-196" />
<path style="fill:none;stroke:#000;stroke-width:2" d="M186,146 l-158,156" />
<path style="fill:none;stroke:#000;stroke-width:2" d="M28,264 l118,-118" />
<path style="fill:none;stroke:#000;stroke-width:2" d="M106,146 l-78,78" />
<path style="fill:none;stroke:#000;stroke-width:2" d="M28,184 l40,-38" />
<path style="fill:none;stroke:#000;stroke-width:2" d="M930,146 l0,-10" />
<path style="fill:none;stroke:#000;stroke-width:2" d="M892,146 l0,-10" />
<path style="fill:none;stroke:#000;stroke-width:2" d="M852,146 l0,-10" />
<path style="fill:none;stroke:#000;stroke-width:2" d="M814,146 l0,-10" />
<path style="fill:none;stroke:#000;stroke-width:2" d="M774,146 l0,-10" />
<path style="fill:none;stroke:#000;stroke-width:2" d="M737,146 l0,-10" />
<path style="fill:none;stroke:#000;stroke-width:2" d="M696,146 l0,-10" />
<path style="fill:none;stroke:#000;stroke-width:2" d="M656,146 l0,-10" />
<path style="fill:none;stroke:#000;stroke-width:2" d="M618,146 l0,-10" />
<path style="fill:none;stroke:#000;stroke-width:2" d="M578,146 l0,-10" />
<path style="fill:none;stroke:#000;stroke-width:2" d="M538,146 l0,-10" />
<path style="fill:none;stroke:#000;stroke-width:2" d="M500,146 l0,-10" />
<path style="fill:none;stroke:#000;stroke-width:2" d="M460,146 l0,-10" />
<path style="fill:none;stroke:#000;stroke-width:2" d="M422,146 l0,-10" />
<path style="fill:none;stroke:#000;stroke-width:2" d="M382,146 l0,-10" />
<path style="fill:none;stroke:#000;stroke-width:2" d="M342,146 l0,-10" />
<path style="fill:none;stroke:#000;stroke-width:2" d="M304,146 l0,-10" />
<path style="fill:none;stroke:#000;stroke-width:2" d="M264,146 l0,-10" />
<path style="fill:none;stroke:#000;stroke-width:2" d="M224,146 l0,-10" />
<path style="fill:none;stroke:#000;stroke-width:2" d="M186,146 l0,-10" />
<path style="fill:none;stroke:#000;stroke-width:2" d="M146,146 l0,-10" />
<path style="fill:none;stroke:#000;stroke-width:2" d="M108,146 l0,-10" />
<path style="fill:none;stroke:#000;stroke-width:2" d="M68,146 l0,-10" />
<path style="fill:none;stroke:#000;stroke-width:2" d="M28,146 l0,-10" />
<path style="fill:none;stroke:#000;stroke-width:2" d="M960,45 l-28,5 -31,1 -9,-3 -30,-1 -28,0 -29,6 -32,3 -31,0 -31,-2 -30,-2 -32,-1 -34,1 -27,3 -10,1 -10,2 -7,0 -30,-2 -31,0 -46,0 -31,0 -33,0 -34,0 -35,0 -29,-1 -98,0 -31,1 -31,-2 -9,-1 -95,-8" />
<path style="fill:none;stroke:#000;stroke-width:2" d="M960,83 l-28,5 -31,0 -9,-2 -30,-1 -28,0 -29,6 -32,4 -31,0 -31,-2 -30,-2 -32,-2 -34,1 -27,3 -10,1 -10,2 -7,-1 -32,-2 -32,-1 -31,-1 -33,0 -35,0 -29,0 -33,1 -32,1 -35,1 -33,1 -32,-1 -28,-2 -31,0 -22,-1 -95,-8" />
<path style="fill:none;stroke:#000;stroke-width:2" d="M28,116 l28,5 30,-3 30,-1 28,1 28,6 33,3 31,0 31,-1 30,-3 31,-1 34,0 28,3 10,2 10,1 7,0 30,-1 31,-1 30,0 32,1 32,0 34,1 35,0 30,0 31,-1 32,-1 31,1 28,1 32,-1 30,-1 105,-10" />
<path style="fill:none;stroke:#000;stroke-width:2" d="M885,53 l-3,-10" />
<path style="fill:none;stroke:#000;stroke-width:2" d="M882,53 l3,-10" />
<path style="fill:none;stroke:#000;stroke-width:2" d="M885,45 l-2,0 0,1 -1,0 0,2 1,0 0,0 2,0 0,-2 0,0 0,-1" />
<path style="fill:none;stroke:#000;stroke-width:2" d="M812,58 l-3,-10" />
<path style="fill:none;stroke:#000;stroke-width:2" d="M809,58 l3,-10" />
<path style="fill:none;stroke:#000;stroke-width:2" d="M809,50 l0,1 0,0 0,2 2,0 1,0 0,0 0,-2 0,0 -1,-1 -2,0" />
<path style="fill:none;stroke:#000;stroke-width:2" d="M729,60 l-5,-10" />
<path style="fill:none;stroke:#000;stroke-width:2" d="M724,60 l5,-10" />
<path style="fill:none;stroke:#000;stroke-width:2" d="M727,53 l0,0 0,1 0,1 1,0 1,0 0,0 0,-1 0,-1 -1,0 -1,0" />
<path style="fill:none;stroke:#000;stroke-width:2" d="M654,58 l-3,-10" />
<path style="fill:none;stroke:#000;stroke-width:2" d="M651,58 l3,-10" />
<path style="fill:none;stroke:#000;stroke-width:2" d="M654,50 l-2,0 -1,1 0,0 0,2 0,0 1,0 2,0 0,-2 0,0 0,-1" />
<path style="fill:none;stroke:#000;stroke-width:2" d="M576,63 l-3,-10" />
<path style="fill:none;stroke:#000;stroke-width:2" d="M573,63 l3,-10" />
<path style="fill:none;stroke:#000;stroke-width:2" d="M576,55 l-2,0 0,1 -1,0 0,2 1,0 0,0 2,0 0,-2 0,0 0,-1" />
<path style="fill:none;stroke:#000;stroke-width:2" d="M498,60 l-3,-10" />
<path style="fill:none;stroke:#000;stroke-width:2" d="M495,60 l3,-10" />
<circle style="fill:none;stroke:#000;stroke-width:2" cx="496" cy="55" r="1" />
<path style="fill:none;stroke:#000;stroke-width:2" d="M420,60 l-5,-10" />
<path style="fill:none;stroke:#000;stroke-width:2" d="M415,60 l5,-10" />
<circle style="fill:none;stroke:#000;stroke-width:2" cx="417" cy="54" r="2" />
<path style="fill:none;stroke:#000;stroke-width:2" d="M339,60 l-2,-10" />
<path style="fill:none;stroke:#000;stroke-width:2" d="M337,60 l2,-10" />
<path style="fill:none;stroke:#000;stroke-width:2" d="M337,53 l0,0 0,1 0,1 1,0 1,0 0,0 0,-1 0,-1 -1,0 -1,0" />
<path style="fill:none;stroke:#000;stroke-width:2" d="M261,58 l-2,-8" />
<path style="fill:none;stroke:#000;stroke-width:2" d="M259,58 l2,-8" />
<path style="fill:none;stroke:#000;stroke-width:2" d="M261,53 l-1,0 -1,0 0,0 0,1 0,1 1,0 1,0 0,0 0,-1 0,-1" />
<path style="fill:none;stroke:#000;stroke-width:2" d="M184,63 l-3,-10" />
<path style="fill:none;stroke:#000;stroke-width:2" d="M181,63 l3,-10" />
<path style="fill:none;stroke:#000;stroke-width:2" d="M181,55 l0,1 0,0 0,2 2,0 0,0 1,0 0,-2 -1,0 0,-1 -2,0" />
<path style="fill:none;stroke:#000;stroke-width:2" d="M101,58 l-5,-10" />
<path style="fill:none;stroke:#000;stroke-width:2" d="M96,58 l5,-10" />
<path style="fill:none;stroke:#000;stroke-width:2" d="M98,50 l0,1 0,0 0,2 2,0 0,0 1,0 0,-2 -1,0 0,-1 -2,0" />
<path style="fill:none;stroke:#000;stroke-width:2" d="M98,88 l0,0 0,1 0,2 2,0 0,0 1,0 0,-2 -1,-1 0,0 -2,0" />
<path style="fill:none;stroke:#000;stroke-width:2" d="M96,96 l5,-10" />
<path style="fill:none;stroke:#000;stroke-width:2" d="M101,96 l-5,-10" />
<circle style="fill:none;stroke:#000;stroke-width:2" cx="181" cy="93" r="2" />
<path style="fill:none;stroke:#000;stroke-width:2" d="M179,98 l5,-10" />
<path style="fill:none;stroke:#000;stroke-width:2" d="M184,98 l-5,-10" />
<path style="fill:none;stroke:#000;stroke-width:2" d="M261,93 l-1,0 -1,0 0,1 0,2 0,0 1,0 1,0 0,-2 0,-1 0,0" />
<path style="fill:none;stroke:#000;stroke-width:2" d="M259,101 l2,-10" />
<path style="fill:none;stroke:#000;stroke-width:2" d="M261,101 l-2,-10" />
<circle style="fill:none;stroke:#000;stroke-width:2" cx="339" cy="92" r="2" />
<path style="fill:none;stroke:#000;stroke-width:2" d="M337,96 l5,-10" />
<path style="fill:none;stroke:#000;stroke-width:2" d="M342,96 l-5,-10" />
<path style="fill:none;stroke:#000;stroke-width:2" d="M417,91 l-1,0 -1,0 0,0 0,1 0,1 1,0 1,0 0,0 0,-1 0,-1" />
<path style="fill:none;stroke:#000;stroke-width:2" d="M415,96 l2,-10" />
<path style="fill:none;stroke:#000;stroke-width:2" d="M417,96 l-2,-10" />
<path style="fill:none;stroke:#000;stroke-width:2" d="M498,91 l-2,0 0,0 -1,0 0,1 1,1 0,0 2,0 0,0 0,-1 0,-1" />
<path style="fill:none;stroke:#000;stroke-width:2" d="M495,96 l3,-10" />
<path style="fill:none;stroke:#000;stroke-width:2" d="M498,96 l-3,-10" />
<path style="fill:none;stroke:#000;stroke-width:2" d="M576,93 l-2,0 0,0 -1,1 0,2 1,0 0,0 2,0 0,-2 0,-1 0,0" />
<path style="fill:none;stroke:#000;stroke-width:2" d="M573,101 l3,-10" />
<path style="fill:none;stroke:#000;stroke-width:2" d="M576,101 l-3,-10" />
<path style="fill:none;stroke:#000;stroke-width:2" d="M654,88 l-2,0 -1,0 0,0 0,2 0,0 1,1 2,0 0,-1 0,0 0,-2" />
<path style="fill:none;stroke:#000;stroke-width:2" d="M651,93 l3,-10" />
<path style="fill:none;stroke:#000;stroke-width:2" d="M654,93 l-3,-10" />
<path style="fill:none;stroke:#000;stroke-width:2" d="M727,91 l0,0 0,1 0,1 1,0 1,0 0,0 0,-1 0,-1 -1,0 -1,0" />
<path style="fill:none;stroke:#000;stroke-width:2" d="M724,98 l5,-10" />
<path style="fill:none;stroke:#000;stroke-width:2" d="M729,98 l-5,-10" />
<path style="fill:none;stroke:#000;stroke-width:2" d="M809,88 l0,0 0,1 0,2 2,0 1,0 0,0 0,-2 0,-1 -1,0 -2,0" />
<path style="fill:none;stroke:#000;stroke-width:2" d="M809,96 l3,-10" />
<path style="fill:none;stroke:#000;stroke-width:2" d="M812,96 l-3,-10" />
<path style="fill:none;stroke:#000;stroke-width:2" d="M885,83 l-2,0 0,0 -1,1 0,2 1,0 0,0 2,0 0,-2 0,-1 0,0" />
<path style="fill:none;stroke:#000;stroke-width:2" d="M882,91 l3,-10" />
<path style="fill:none;stroke:#000;stroke-width:2" d="M885,91 l-3,-10" />
<path style="fill:none;stroke:#000;stroke-width:2" d="M93,123 l3,-10" />
<path style="fill:none;stroke:#000;stroke-width:2" d="M96,123 l-3,-10" />
<circle style="fill:none;stroke:#000;stroke-width:2" cx="94" cy="118" r="1" />
<path style="fill:none;stroke:#000;stroke-width:2" d="M166,128 l5,-10" />
<path style="fill:none;stroke:#000;stroke-width:2" d="M171,128 l-5,-10" />
<circle style="fill:none;stroke:#000;stroke-width:2" cx="167" cy="123" r="1" />
<path style="fill:none;stroke:#000;stroke-width:2" d="M249,131 l5,-10" />
<path style="fill:none;stroke:#000;stroke-width:2" d="M254,131 l-5,-10" />
<circle style="fill:none;stroke:#000;stroke-width:2" cx="251" cy="125" r="2" />
<path style="fill:none;stroke:#000;stroke-width:2" d="M324,128 l3,-10" />
<path style="fill:none;stroke:#000;stroke-width:2" d="M327,128 l-3,-10" />
<circle style="fill:none;stroke:#000;stroke-width:2" cx="325" cy="123" r="1" />
<path style="fill:none;stroke:#000;stroke-width:2" d="M402,133 l3,-10" />
<path style="fill:none;stroke:#000;stroke-width:2" d="M405,133 l-3,-10" />
<circle style="fill:none;stroke:#000;stroke-width:2" cx="403" cy="128" r="1" />
<path style="fill:none;stroke:#000;stroke-width:2" d="M480,131 l5,-10" />
<path style="fill:none;stroke:#000;stroke-width:2" d="M485,131 l-5,-10" />
<path style="fill:none;stroke:#000;stroke-width:2" d="M483,126 l0,1 0,1 0,0 -2,0 0,0 -1,-1 0,-1 1,0 0,0 2,0" />
<path style="fill:none;stroke:#000;stroke-width:2" d="M558,131 l5,-10" />
<path style="fill:none;stroke:#000;stroke-width:2" d="M563,131 l-5,-10" />
<circle style="fill:none;stroke:#000;stroke-width:2" cx="560" cy="125" r="2" />
<path style="fill:none;stroke:#000;stroke-width:2" d="M639,131 l2,-10" />
<path style="fill:none;stroke:#000;stroke-width:2" d="M641,131 l-2,-10" />
<circle style="fill:none;stroke:#000;stroke-width:2" cx="640" cy="125" r="1" />
<path style="fill:none;stroke:#000;stroke-width:2" d="M716,131 l3,-10" />
<path style="fill:none;stroke:#000;stroke-width:2" d="M719,131 l-3,-10" />
<circle style="fill:none;stroke:#000;stroke-width:2" cx="717" cy="125" r="1" />
<path style="fill:none;stroke:#000;stroke-width:2" d="M794,133 l5,-10" />
<path style="fill:none;stroke:#000;stroke-width:2" d="M799,133 l-5,-10" />
<circle style="fill:none;stroke:#000;stroke-width:2" cx="795" cy="128" r="1" />
<path style="fill:none;stroke:#000;stroke-width:2" d="M877,128 l5,-10" />
<path style="fill:none;stroke:#000;stroke-width:2" d="M882,128 l-5,-10" />
<circle style="fill:none;stroke:#000;stroke-width:2" cx="879" cy="123" r="2" />

</svg>
