 

<svg xmlns:agg="http://www.example.com" xmlns="http://www.w3.org/2000/svg" preserveAspectRatio="none" width="1.6083in" height="0.3429in" viewBox="0 0 999 213">

<path style="fill:#fff2bf;stroke:#000;stroke-width:2" d="M970,67 l-864,0 0,118 864,0 0,-118z" />
<path style="fill:#e5e5e5" d="M970,67 l-39,-34 -864,0 39,34 864,0z" />
<path style="fill:#ffe066;stroke:#000;stroke-width:2" d="M106,67 l0,118 -78,-59 0,-98 39,5 39,34z" />
<path style="fill:#a6a6a6" d="M931,32 l-39,-4 -864,0 39,4 864,0z" />
<path style="fill:none;stroke:#000;stroke-width:2" d="M970,67 l-39,-34 -39,-5 -864,0 39,5 39,34 864,0" />
<path style="fill:none;stroke:#fff;stroke-width:2" d="M808,72 l0,108" />
<path style="fill:none;stroke:#fff;stroke-width:2" d="M651,72 l0,108" />
<path style="fill:none;stroke:#fff;stroke-width:2" d="M494,72 l0,108" />
<path style="fill:none;stroke:#fff;stroke-width:2" d="M337,72 l0,108" />
<path style="fill:none;stroke:#fff;stroke-width:2" d="M180,72 l0,108" />
<path style="fill:#e5e5e5;stroke:#000;stroke-width:2" d="M960,102 l-5,-5 -132,0 6,5 131,0z" />
<path style="fill:#ffe066" d="M730,151 l-54,0 0,14 54,0 0,-14z" />
<path style="fill:#ffe066" d="M887,151 l-54,0 0,14 54,0 0,-14z" />
<path style="fill:#ffe066" d="M955,151 l-54,0 0,14 54,0 0,-14z" />
<path style="fill:#4c4c4c" d="M730,165 l0,-54 -54,0 0,5 49,0 0,44 5,5z" />
<path style="fill:#4c4c4c" d="M887,165 l0,-54 -54,0 0,5 49,0 0,44 5,5z" />
<path style="fill:#4c4c4c" d="M955,165 l0,-54 -54,0 0,5 49,0 0,44 5,5z" />
<path style="fill:#7f7f7f" d="M725,116 l-49,0 0,35 49,0 0,-35z" />
<path style="fill:#7f7f7f" d="M882,116 l-49,0 0,35 49,0 0,-35z" />
<path style="fill:#7f7f7f" d="M950,116 l-49,0 0,35 49,0 0,-35z" />
<path style="fill:#e5e5e5;stroke:#000;stroke-width:2" d="M420,111 l-54,0 0,69 54,0 0,-69z" />
<path style="fill:#e5e5e5;stroke:#000;stroke-width:2" d="M303,126 l-45,0 0,54 45,0 0,-54z" />
<path style="fill:#4c4c4c" d="M303,185 l0,-59 -45,0 0,5 40,0 0,49 5,5z" />
<path style="fill:#4c4c4c" d="M420,185 l0,-74 -54,0 0,5 49,0 0,64 5,5z" />
<path style="fill:#999;stroke:#000;stroke-width:2" d="M165,138 l-19,0 0,45 19,0 0,-45z" />
<path style="fill:none;stroke:#fff;stroke-width:2" d="M146,138 l0,44 19,0" />
<path style="fill:#fff" d="M813,33 l-29,0 0,5 29,0 0,-5z" />
<path style="fill:#fff" d="M695,33 l-29,0 0,5 29,0 0,-5z" />
<path style="fill:#fff" d="M578,33 l-30,0 0,5 30,0 0,-5z" />
<path style="fill:#fff" d="M460,33 l-30,0 0,5 30,0 0,-5z" />
<path style="fill:#fff" d="M342,33 l-30,0 0,5 30,0 0,-5z" />
<path style="fill:#fff" d="M224,33 l-29,0 0,5 29,0 0,-5z" />
<path style="fill:none;stroke:#000;stroke-width:2" d="M396,175 l-10,0" />
<path style="fill:none;stroke:#000;stroke-width:2" d="M283,175 l-10,0" />
<path style="fill:none;stroke:#7f7f7f;stroke-width:2" d="M67,38 l0,113" />
<path style="fill:none;stroke:#7f7f7f;stroke-width:2" d="M185,72 l0,108" />
<path style="fill:none;stroke:#7f7f7f;stroke-width:2" d="M342,72 l0,108" />
<path style="fill:none;stroke:#7f7f7f;stroke-width:2" d="M499,72 l0,108" />
<path style="fill:none;stroke:#7f7f7f;stroke-width:2" d="M656,72 l0,108" />
<path style="fill:none;stroke:#7f7f7f;stroke-width:2" d="M813,72 l0,108" />

</svg>
