 

<svg xmlns:agg="http://www.example.com" xmlns="http://www.w3.org/2000/svg" preserveAspectRatio="none" width="1.1511in" height="1.0750in" viewBox="0 0 998 932">

<path style="fill:#505050;stroke:#000;stroke-width:2" d="M297,300 l537,538 -66,0 -538,-538 67,0z" />
<path style="fill:#cecece;stroke:#000;stroke-width:2" d="M834,838 l0,-35 -537,-537 0,34 537,538z" />
<path style="fill:#cecece;stroke:#000;stroke-width:2" d="M28,300 l137,66 268,0 -136,-66 -269,0z" />
<path style="fill:#868686;stroke:#000;stroke-width:2" d="M433,366 l537,538 -66,0 -499,-507 -240,0 -137,-66 0,-31 137,66 268,0z" />
<path style="fill:#cecece;stroke:#000;stroke-width:2" d="M970,904 l0,-36 -537,-537 0,35 537,538z" />
<path style="fill:#9e9e9e;stroke:#000;stroke-width:2" d="M433,231 l0,-17 522,523 0,15 -522,-521z" />
<path style="fill:#9e9e9e;stroke:#000;stroke-width:2" d="M433,112 l0,-15 522,522 0,16 -522,-523z" />
<path style="fill:#9e9e9e;stroke:#000;stroke-width:2" d="M608,541 l-16,-15 0,-269 16,15 0,269z" />
<path style="fill:#9e9e9e;stroke:#000;stroke-width:2" d="M795,728 l-19,-20 0,-268 19,19 0,269z" />
<path style="fill:#9e9e9e;stroke:#000;stroke-width:2" d="M970,904 l-15,-16 0,-269 15,16 0,269z" />
<path style="fill:#9e9e9e;stroke:#000;stroke-width:2" d="M165,366 l0,-269 -137,-69 0,268 8,4 0,-248 120,58 0,100 -120,-58 0,16 120,59 0,135 9,4z" />
<path style="fill:#9e9e9e;stroke:#000;stroke-width:2" d="M433,366 l0,-269 -268,0 0,269 15,0 0,-254 237,0 0,102 -237,0 0,17 237,0 0,135 16,0z" />
<path style="fill:#6b6b6b" d="M195,397 l-30,0 0,507 30,0 0,-507z" />
<path style="fill:#e6e6e6" d="M184,397 l-13,0 0,507 13,0 0,-507z" />
<path style="fill:none;stroke:#000;stroke-width:2" d="M195,397 l-30,0 0,507 30,0 0,-507" />

</svg>
