<?xml version="1.0" encoding="utf-8"?>
<!-- Generator: Adobe Illustrator 16.0.0, SVG Export Plug-In . SVG Version: 6.00 Build 0)  -->
<!DOCTYPE svg PUBLIC "-//W3C//DTD SVG 1.1//EN" "http://www.w3.org/Graphics/SVG/1.1/DTD/svg11.dtd">
<svg version="1.1" id="图层_1" xmlns="http://www.w3.org/2000/svg" preserveAspectRatio="none" xmlns:xlink="http://www.w3.org/1999/xlink" x="0px" y="0px"
	 width="100px" height="100px" viewBox="0 0 100 100" enable-background="new 0 0 100 100" xml:space="preserve">
<g>
	<g>
		<g>
			<polygon fill="#418538" points="72.47,97.606 0,97.606 0,92.943 27.236,80.66 99.705,72.268 99.705,76.93 			"/>
			<polygon fill="#A5BE3C" points="72.47,92.943 0,92.943 27.236,72.268 99.705,72.268 			"/>
			<rect y="92.943" fill="#71B73C" width="72.47" height="4.663"/>
		</g>
	</g>
</g>
<g>
	<polygon fill="#EFE332" points="59.82,70.382 59.82,61.447 50.886,61.447 50.886,52.514 41.952,52.514 41.952,43.581 
		33.017,43.581 33.017,34.645 24.083,34.645 15.148,34.645 15.148,43.581 15.148,52.514 15.148,61.447 15.148,70.382 15.148,79.315 
		15.148,88.251 24.083,88.251 33.017,88.251 41.952,88.251 50.886,88.251 59.82,88.251 68.755,88.251 68.755,79.315 68.755,70.382 	
		"/>
	<rect x="20.958" y="12.821" fill="#EFE332" width="53.606" height="71.02"/>
	<rect x="20.958" y="12.821" fill="#BF8624" width="53.606" height="3.458"/>
	<polygon fill="#BC9036" points="50.886,61.447 56.695,57.038 56.695,48.104 50.886,52.514 	"/>
	<polygon fill="#BC9036" points="59.82,70.382 65.629,65.973 65.629,57.038 59.82,61.447 	"/>
	<polygon fill="#BC9036" points="68.755,88.251 74.563,83.841 74.563,65.974 68.755,70.382 	"/>
	<polygon fill="#BC9036" points="68.755,88.251 74.563,83.841 74.563,65.974 68.755,70.382 	"/>
	<polygon fill="#BC9036" points="74.563,12.821 74.563,83.841 86.182,75.02 86.182,4 	"/>
	<polygon fill="#EEEB8F" points="74.563,12.821 20.958,12.821 32.576,4 86.182,4 	"/>
	<polygon fill="#BC9036" points="41.952,52.514 47.761,48.104 47.761,39.17 41.952,43.581 	"/>
	<polygon fill="#EEEB8F" points="33.017,43.581 38.826,39.169 47.761,39.17 41.952,43.581 	"/>
	<polygon fill="#EEEB8F" points="15.148,34.645 20.958,30.235 38.826,30.236 33.017,34.645 	"/>
	<polygon fill="#EEEB8F" points="41.952,52.514 47.761,48.104 56.695,48.104 50.886,52.514 	"/>
	<polygon fill="#EEEB8F" points="50.886,61.447 56.695,57.038 65.629,57.038 59.82,61.447 	"/>
	<polygon fill="#EEEB8F" points="59.82,70.382 65.629,65.973 74.563,65.974 68.755,70.382 	"/>
	<polygon fill="#BC9036" points="33.017,43.581 38.826,39.169 38.826,30.236 33.017,34.645 	"/>
	<g>
		<g>
			<rect x="24.698" y="21.809" fill="#F0A434" width="5.518" height="5.519"/>
			<rect x="33.129" y="21.809" fill="#F0A434" width="5.519" height="5.519"/>
			<rect x="41.563" y="21.809" fill="#F0A434" width="5.517" height="5.519"/>
			<rect x="49.994" y="21.809" fill="#F0A434" width="5.519" height="5.519"/>
			<rect x="58.427" y="21.809" fill="#F0A434" width="5.518" height="5.519"/>
			<rect x="66.859" y="21.809" fill="#F0A434" width="5.518" height="5.519"/>
		</g>
		<g>
			<rect x="41.563" y="31.188" fill="#F0A434" width="5.517" height="5.518"/>
			<rect x="49.994" y="31.188" fill="#F0A434" width="5.519" height="5.518"/>
			<rect x="58.427" y="31.188" fill="#F0A434" width="5.518" height="5.518"/>
			<rect x="66.859" y="31.188" fill="#F0A434" width="5.518" height="5.518"/>
		</g>
		<g>
			<rect x="49.994" y="40.566" fill="#F0A434" width="5.519" height="5.519"/>
			<rect x="58.427" y="40.566" fill="#F0A434" width="5.518" height="5.519"/>
			<rect x="66.859" y="40.566" fill="#F0A434" width="5.518" height="5.519"/>
		</g>
		<g>
			<rect x="58.427" y="49.945" fill="#F0A434" width="5.518" height="5.517"/>
			<rect x="66.859" y="49.945" fill="#F0A434" width="5.518" height="5.517"/>
		</g>
		<g>
			<rect x="66.859" y="59.323" fill="#F0A434" width="5.518" height="5.519"/>
		</g>
	</g>
	<g>
		<g>
			<rect x="17.605" y="36.737" fill="#F0A434" width="5.52" height="5.518"/>
			<rect x="26.038" y="36.737" fill="#F0A434" width="5.519" height="5.518"/>
		</g>
		<g>
			<rect x="17.605" y="46.116" fill="#F0A434" width="5.52" height="5.517"/>
			<rect x="26.038" y="46.116" fill="#F0A434" width="5.519" height="5.517"/>
			<rect x="34.471" y="46.116" fill="#F0A434" width="5.519" height="5.517"/>
		</g>
		<g>
			<rect x="17.605" y="55.493" fill="#F0A434" width="5.52" height="5.52"/>
			<rect x="26.038" y="55.493" fill="#F0A434" width="5.519" height="5.52"/>
			<rect x="34.471" y="55.493" fill="#F0A434" width="5.519" height="5.52"/>
			<rect x="42.903" y="55.493" fill="#F0A434" width="5.518" height="5.52"/>
		</g>
		<g>
			<rect x="17.605" y="64.872" fill="#F0A434" width="5.52" height="5.519"/>
			<rect x="26.038" y="64.872" fill="#F0A434" width="5.519" height="5.519"/>
			<rect x="34.471" y="64.872" fill="#F0A434" width="5.519" height="5.519"/>
			<rect x="42.903" y="64.872" fill="#F0A434" width="5.518" height="5.519"/>
			<rect x="51.335" y="64.872" fill="#F0A434" width="5.519" height="5.519"/>
		</g>
		<g>
			<rect x="17.605" y="74.251" fill="#F0A434" width="5.52" height="5.519"/>
			<rect x="26.038" y="74.251" fill="#F0A434" width="5.519" height="5.519"/>
			<rect x="34.471" y="74.251" fill="#F0A434" width="5.519" height="5.519"/>
			<rect x="42.903" y="74.251" fill="#F0A434" width="5.518" height="5.519"/>
			<rect x="51.335" y="74.251" fill="#F0A434" width="5.519" height="5.519"/>
			<rect x="59.768" y="74.251" fill="#F0A434" width="5.518" height="5.519"/>
		</g>
	</g>
	<polygon fill="#855F25" points="86.182,4 86.182,7.46 74.563,16.279 74.563,12.821 	"/>
	<polygon fill="#D3932B" points="86.182,4 32.576,4 20.958,12.821 74.563,12.821 	"/>
	<rect x="15.148" y="82.54" fill="#912722" width="53.607" height="5.711"/>
	<polygon fill="#55100F" points="86.182,69.311 68.755,82.54 68.755,88.251 86.182,75.02 	"/>
</g>
</svg>
