 

<svg xmlns:agg="http://www.example.com" xmlns="http://www.w3.org/2000/svg" preserveAspectRatio="none" width="0.7533in" height="1.0750in" viewBox="0 0 700 999">

<path style="fill:#b2b2b2" d="M158,357 l11,-329 31,0 12,329 -54,0z" />
<path style="fill:#ccc" d="M166,357 l8,-329 22,0 8,329 -38,0z" />
<path style="fill:#fff" d="M177,357 l3,-329 9,0 3,329 -15,0z" />
<path style="fill:none;stroke:#000;stroke-width:2" d="M158,357 l11,-329 31,0 12,329 -54,0" />
<path style="fill:#e5b27f;stroke:#000;stroke-width:2" d="M58,786 l-30,-15 30,0 0,15z" />
<path style="fill:#e5b27f;stroke:#000;stroke-width:2" d="M549,694 l-429,0 -62,-15 368,0 123,15z" />
<path style="fill:#e5b27f;stroke:#000;stroke-width:2" d="M671,786 l-490,0 -61,-23 429,0 122,23z" />
<path style="fill:#c96;stroke:#000;stroke-width:2" d="M181,786 l0,184 490,0 0,-184 -490,0z" />
<path style="fill:#c96;stroke:#000;stroke-width:2" d="M120,694 l0,69 429,0 0,-69 -429,0z" />
<path style="fill:#4c4c4c" d="M530,449 l0,-23 -311,0 0,23 311,0z" />
<path style="fill:#4c4c4c" d="M671,894 l0,-31 -490,0 0,31 490,0z" />
<path style="fill:#963;stroke:#000;stroke-width:2" d="M181,970 l-153,-76 0,-123 30,15 0,-107 62,15 0,69 61,23 0,184z" />
<path style="fill:#963;stroke:#000;stroke-width:2" d="M211,342 l0,84 -91,8 0,-69 91,-23z" />
<path style="fill:#963;stroke:#000;stroke-width:2" d="M211,449 l0,322 -30,-8 0,-69 -62,-15 1,-226 91,-4z" />
<path style="fill:#000" d="M28,813 l0,-23 153,73 0,31 -153,-81z" />
<path style="fill:#000" d="M124,453 l0,-19 95,-8 0,23 -95,4z" />
<path style="fill:#c96;stroke:#000;stroke-width:2" d="M211,342 l0,84 322,0 0,-84 -322,0z" />
<path style="fill:#c96;stroke:#000;stroke-width:2" d="M211,449 l0,322 322,0 0,-322 -322,0z" />

</svg>
