<?xml version="1.0" encoding="utf-8"?>
<!-- Generator: Adobe Illustrator 16.0.0, SVG Export Plug-In . SVG Version: 6.00 Build 0)  -->
<!DOCTYPE svg PUBLIC "-//W3C//DTD SVG 1.1//EN" "http://www.w3.org/Graphics/SVG/1.1/DTD/svg11.dtd">
<svg version="1.1" id="图层_1" xmlns="http://www.w3.org/2000/svg" preserveAspectRatio="none" xmlns:xlink="http://www.w3.org/1999/xlink" x="0px" y="0px"
	 width="100px" height="100px" viewBox="0 0 100 100" enable-background="new 0 0 100 100" xml:space="preserve">
<g>
	<polygon fill="#221109" points="80.205,29.605 73.078,28.208 72.764,27.978 73.749,27.032 	"/>
	<g>
		<g>
			<polygon fill="#D8C5AB" points="39.289,21.238 36.378,17.937 36.378,8.829 39.289,9.967 			"/>
		</g>
		<polygon fill="#D1C1A7" points="42.009,19.254 39.289,21.186 39.289,9.967 42.009,8.88 		"/>
		<polygon fill="#C9B79E" points="42.009,8.88 39.289,9.967 36.378,8.829 39.159,7.921 		"/>
		<polygon fill="#220908" points="40.88,8.945 39.193,9.455 37.403,8.836 39.022,8.315 		"/>
	</g>
	<polygon fill="#CAC5B1" points="75.056,27.56 75.056,45.863 40.353,57.808 40.353,33.103 56.316,20.637 	"/>
	<g>
		<polygon fill="#AF5D39" points="61.291,93.951 98.475,74.865 98.475,53.673 61.291,67.519 		"/>
	</g>
	<g>
		<polygon fill="#C36941" points="41.043,60.04 41.043,46.539 61.291,67.728 61.291,67.728 		"/>
	</g>
	<g>
		<g>
			<polygon fill="#C9B79E" points="66.967,69.814 66.967,82.706 73.749,79.488 73.749,66.962 			"/>
		</g>
		<g>
			<polygon fill="#81B8A3" points="72.764,78.484 68.001,80.715 68.001,70.88 72.764,68.844 			"/>
			<path fill="#FFFFFF" d="M73.047,78.773l-5.34,2.51V70.575l5.34-2.271V78.773z M68.295,80.149l4.186-1.952v-8.811l-4.186,1.796
				V80.149z"/>
		</g>
		<g>
			<line fill="#81B8A3" x1="68.001" y1="75.797" x2="72.764" y2="73.665"/>
			<polygon fill="#FFFFFF" points="72.764,73.875 68.001,76.013 68.001,75.582 72.764,73.455 			"/>
		</g>
	</g>
	<g>
		<g>
			<polygon fill="#C9B79E" points="75.056,66.41 75.056,78.868 81.397,75.86 81.397,63.741 			"/>
		</g>
		<g>
			<polygon fill="#81B8A3" points="80.476,74.876 76.022,76.96 76.022,67.452 80.476,65.551 			"/>
			<path fill="#FFFFFF" d="M80.739,75.156l-4.993,2.347V67.155l4.993-2.123V75.156z M76.298,76.416l3.912-1.824v-8.521l-3.912,1.678
				V76.416z"/>
		</g>
		<g>
			<line fill="#81B8A3" x1="76.022" y1="72.205" x2="80.476" y2="70.214"/>
			<polygon fill="#FFFFFF" points="80.476,70.417 76.022,72.414 76.022,71.999 80.476,70.01 			"/>
		</g>
	</g>
	<g>
		<polygon fill="#C36941" points="61.291,94.072 41.043,83.682 41.043,59.291 61.291,67.513 		"/>
	</g>
	<g>
		<g>
			<polygon fill="#A15735" points="59.061,70.487 42.956,63.692 42.956,84.663 59.061,92.928 			"/>
		</g>
		<g>
			<polygon fill="#FFFFFF" points="58.109,80.185 43.771,73.543 43.771,75.954 58.109,82.746 			"/>
		</g>
		<g>
			<polygon fill="#FFFFFF" points="58.109,83.084 43.771,76.272 43.771,78.684 58.109,85.646 			"/>
		</g>
		<g>
			<polygon fill="#FFFFFF" points="58.109,85.975 43.771,78.992 43.771,81.402 58.109,88.534 			"/>
		</g>
		<g>
			<polygon fill="#FFFFFF" points="58.109,88.872 43.771,81.721 43.771,84.132 58.109,91.432 			"/>
		</g>
		<g>
			<polygon fill="#FFFFFF" points="58.109,71.469 43.771,65.337 43.771,67.748 58.109,74.03 			"/>
		</g>
		<g>
			<polygon fill="#FFFFFF" points="58.109,74.357 43.771,68.058 43.771,70.468 58.109,76.918 			"/>
		</g>
		<g>
			<polygon fill="#FFFFFF" points="58.109,77.252 43.771,70.781 43.771,73.195 58.109,79.813 			"/>
		</g>
	</g>
	<polygon fill="#B8B7B8" points="61.291,73.893 98.475,57.399 98.475,54.159 61.291,69.261 41.043,50.705 41.043,53.051 	"/>
	<g>
		<polygon fill="#E5DFC9" points="41.043,83.682 5.109,65.237 5.109,23.294 41.043,33.36 		"/>
	</g>
	<g>
		<polygon fill="#C36941" points="39.138,81.56 24.942,74.347 24.942,29.136 39.138,33.318 		"/>
	</g>
	<g>
		<g>
			<polygon fill="#C9B79E" points="27.962,34.41 27.962,48.601 35.026,51.293 35.026,36.635 			"/>
		</g>
		<g>
			<polygon fill="#81B8A3" points="33.946,49.176 28.985,47.325 28.985,36.398 33.946,37.999 			"/>
			<path fill="#FFFFFF" d="M34.253,49.779l-5.562-2.088V35.828l5.562,1.782V49.779z M29.279,46.958l4.36,1.618V38.386l-4.36-1.417
				V46.958z"/>
		</g>
		<g>
			<line fill="#81B8A3" x1="28.985" y1="41.862" x2="33.946" y2="43.588"/>
			<polygon fill="#FFFFFF" points="33.946,43.832 28.985,42.099 28.985,41.624 33.946,43.344 			"/>
		</g>
		<g>
			<polygon fill="#FFFFFF" points="31.587,48.296 31.287,48.184 31.287,37.141 31.587,37.238 			"/>
		</g>
	</g>
	<g>
		<g>
			<polygon fill="#C9B79E" points="15.82,30.586 15.82,43.972 22.098,46.364 22.098,32.563 			"/>
		</g>
		<g>
			<polygon fill="#81B8A3" points="21.138,44.395 16.731,42.749 16.731,32.443 21.138,33.866 			"/>
			<path fill="#FFFFFF" d="M21.412,44.956l-4.942-1.855v-11.19l4.942,1.583V44.956z M16.992,42.396l3.874,1.437v-9.597l-3.874-1.259
				V42.396z"/>
		</g>
		<g>
			<line fill="#81B8A3" x1="16.731" y1="37.596" x2="21.138" y2="39.13"/>
			<polygon fill="#FFFFFF" points="21.138,39.36 16.731,37.821 16.731,37.371 21.138,38.9 			"/>
		</g>
		<g>
			<polygon fill="#FFFFFF" points="19.044,43.611 18.778,43.513 18.778,33.104 19.044,33.19 			"/>
		</g>
	</g>
	<g>
		<g>
			<polygon fill="#C9B79E" points="15.82,51.822 15.82,65.209 22.098,68.258 22.098,54.457 			"/>
		</g>
		<g>
			<polygon fill="#81B8A3" points="21.138,66.188 16.731,64.08 16.731,53.775 21.138,55.66 			"/>
			<path fill="#FFFFFF" d="M21.412,66.779l-4.942-2.375V53.215l4.942,2.102V66.779z M16.992,63.754l3.874,1.845v-9.597l-3.874-1.665
				V63.754z"/>
		</g>
		<g>
			<line fill="#81B8A3" x1="16.731" y1="58.928" x2="21.138" y2="60.923"/>
			<polygon fill="#FFFFFF" points="21.138,61.153 16.731,59.152 16.731,58.702 21.138,60.695 			"/>
		</g>
		<g>
			<polygon fill="#FFFFFF" points="19.044,65.186 18.778,65.059 18.778,54.65 19.044,54.765 			"/>
		</g>
	</g>
	<g>
		<g>
			<polygon fill="#C9B79E" points="7.541,27.978 7.541,40.816 13.306,43.016 13.306,29.793 			"/>
		</g>
		<g>
			<polygon fill="#81B8A3" points="12.427,41.142 8.377,39.63 8.377,29.747 12.427,31.054 			"/>
			<path fill="#FFFFFF" d="M12.677,41.675l-4.54-1.705V29.24l4.54,1.455V41.675z M8.618,39.288l3.559,1.321v-9.196l-3.559-1.156
				V39.288z"/>
		</g>
		<g>
			<line fill="#81B8A3" x1="8.377" y1="34.688" x2="12.427" y2="36.098"/>
			<polygon fill="#FFFFFF" points="12.427,36.318 8.377,34.904 8.377,34.473 12.427,35.877 			"/>
		</g>
		<g>
			<polygon fill="#FFFFFF" points="10.504,40.424 10.259,40.332 10.259,30.354 10.504,30.434 			"/>
		</g>
	</g>
	<g>
		<g>
			<polygon fill="#C9B79E" points="7.541,48.345 7.541,61.185 13.306,63.987 13.306,50.766 			"/>
		</g>
		<g>
			<polygon fill="#81B8A3" points="12.427,62.021 8.377,60.085 8.377,50.202 12.427,51.934 			"/>
			<path fill="#FFFFFF" d="M12.677,62.582l-4.54-2.181V49.67l4.54,1.929V62.582z M8.618,59.77l3.559,1.692v-9.196l-3.559-1.528
				V59.77z"/>
		</g>
		<g>
			<line fill="#81B8A3" x1="8.377" y1="55.144" x2="12.427" y2="56.979"/>
			<polygon fill="#FFFFFF" points="12.427,57.196 8.377,55.359 8.377,54.928 12.427,56.758 			"/>
		</g>
		<g>
			<polygon fill="#FFFFFF" points="10.504,61.101 10.259,60.985 10.259,51.007 10.504,51.111 			"/>
		</g>
	</g>
	<g>
		<g>
			<polygon fill="#C9B79E" points="27.341,56.659 27.341,75.564 36.31,80.123 36.31,60.424 			"/>
		</g>
		<g>
			<g>
				<g>
					<polygon fill="#FFFFFF" points="29.973,59.308 29.973,76.819 35.507,79.631 35.507,61.671 					"/>
				</g>
			</g>
			<g>
				<g>
					<polygon fill="#FFFFFF" points="29.973,59.308 29.973,76.819 28.084,75.86 28.084,58.501 					"/>
				</g>
			</g>
			<g>
				<g>
					<g>
						<path fill="#81B8A3" d="M34.762,70.898c-1.376-0.646-2.735-1.285-4.076-1.916c0-2.285,0-4.57,0-6.853
							c1.005-1.715,3.043-0.841,4.076,1.787C34.762,66.244,34.762,68.572,34.762,70.898z"/>
					</g>
				</g>
				<g>
					<g>
						<path fill="#FFFFFF" d="M35.072,71.533l-4.685-2.211v-7.483l0.06-0.103c0.534-0.911,1.356-1.218,2.258-0.83
							c0.91,0.391,1.751,1.419,2.305,2.826l0.063,0.158V71.533z M30.985,68.641l3.467,1.623v-6.313
							c-0.433-1.028-1.065-1.78-1.748-2.075c-0.678-0.294-1.298-0.092-1.72,0.551V68.641z"/>
					</g>
				</g>
			</g>
			<g>
				<g>
					<g>
						<polygon fill="#81B8A3" points="34.762,78.263 30.686,76.212 30.686,70.33 34.762,72.271 						"/>
					</g>
				</g>
				<g>
					<g>
						<path fill="#FFFFFF" d="M35.072,78.91l-4.685-2.369v-6.834l4.685,2.223V78.91z M30.985,75.881l3.467,1.737v-5.006l-3.467-1.66
							V75.881z"/>
					</g>
				</g>
			</g>
			<g>
				<g>
					<polygon fill="#81B8A3" points="30.016,68.774 28.591,68.104 28.591,59.483 30.016,60.098 					"/>
				</g>
				<g>
					<path fill="#FFFFFF" d="M30.312,69.393l-2.013-0.951v-9.56l2.013,0.863V69.393z M28.884,67.765l0.835,0.392v-7.708
						l-0.835-0.361V67.765z"/>
				</g>
			</g>
			<g>
				<g>
					<polygon fill="#81B8A3" points="30.016,75.875 28.591,75.156 28.591,69.332 30.016,70.01 					"/>
				</g>
				<g>
					<path fill="#FFFFFF" d="M30.312,76.503l-2.013-1.019v-6.768l2.013,0.957V76.503z M28.884,74.829l0.835,0.418v-4.9l-0.835-0.398
						V74.829z"/>
				</g>
			</g>
		</g>
		<g>
			<path fill="#909395" d="M30.703,69.717c0,0.344-0.155,0.547-0.344,0.457c-0.189-0.09-0.343-0.441-0.343-0.781
				c0-0.342,0.154-0.546,0.343-0.459C30.548,69.024,30.703,69.375,30.703,69.717z"/>
		</g>
	</g>
	<g>
		<polygon fill="#C36941" points="24.942,75.415 5.109,65.237 5.109,64.2 24.942,74.273 		"/>
	</g>
	<g>
		<polygon fill="#B1AC9C" points="39.138,82.701 24.942,75.415 24.942,74.347 39.138,81.56 		"/>
	</g>
	<g>
		<polygon fill="#B8B7B8" points="40.982,42.318 5.109,31.054 5.109,23.294 41.043,33.36 41.043,34.326 58.94,21.152 62.096,22.325 
			75.056,27.56 75.056,32.123 59.752,27.56 		"/>
	</g>
	<g>
		<polygon fill="#B8B7B8" points="39.138,68.471 15.82,57.805 15.82,49.611 39.138,58.438 		"/>
	</g>
	<g>
		<g>
			<polygon fill="#5D311F" points="35.072,60.558 9.85,50.371 9.85,49.001 35.072,58.953 			"/>
		</g>
		<polygon fill="#28150E" points="39.194,59.05 35.026,60.558 35.026,58.953 39.194,57.444 		"/>
		<polygon fill="#3B1F14" points="35.072,58.953 9.85,49.001 14.535,47.838 39.194,57.444 		"/>
	</g>
	<polygon fill="#28150E" points="100,54.675 61.713,71.305 38.951,47.323 76.38,35.49 	"/>
	<g>
		<polygon fill="#532C1A" points="80.205,29.605 58.547,21.555 58.94,21.152 80.393,29.124 		"/>
	</g>
	<g>
		<polygon fill="#532C1A" points="37.877,38.476 37.877,37.913 58.94,21.152 59.318,21.514 		"/>
	</g>
	<g>
		<polygon fill="#28150E" points="37.822,37.979 0.514,25.077 21.326,9.967 58.933,21.152 		"/>
	</g>
	<polygon fill="#5D311F" points="61.713,72.633 38.951,48.485 38.951,47.323 61.713,71.305 	"/>
	<polygon fill="#5D311F" points="100,55.859 61.713,72.633 61.713,71.305 100,54.675 	"/>
	<polygon fill="#512B1A" points="37.877,38.476 0.514,25.573 0.514,25.077 37.877,37.979 	"/>
</g>
</svg>
