<?xml version="1.0" encoding="utf-8"?>
<!-- Generator: Adobe Illustrator 16.0.0, SVG Export Plug-In . SVG Version: 6.00 Build 0)  -->
<!DOCTYPE svg PUBLIC "-//W3C//DTD SVG 1.1//EN" "http://www.w3.org/Graphics/SVG/1.1/DTD/svg11.dtd">
<svg version="1.1" id="图层_1" xmlns="http://www.w3.org/2000/svg" preserveAspectRatio="none" xmlns:xlink="http://www.w3.org/1999/xlink" x="0px" y="0px"
	 width="100px" height="100px" viewBox="0 0 100 100" enable-background="new 0 0 100 100" xml:space="preserve">
<g>
	<g>
		<polygon fill="#418538" points="69.719,100.837 4.961,100.837 4.961,96.67 29.298,85.694 94.056,78.195 94.056,82.362 		"/>
		<polygon fill="#A5BE3C" points="69.719,96.67 4.961,96.67 29.298,78.195 94.056,78.195 		"/>
		<rect x="4.961" y="96.67" fill="#71B73C" width="64.757" height="4.167"/>
	</g>
</g>
<g>
	<g>
		<g>
			<polygon fill="#9A1E23" points="66.733,69.327 19.3,69.327 19.3,25.878 43.074,14.746 66.733,25.878 			"/>
			<polygon fill="#909295" points="43.074,14.746 66.78,25.846 71.086,25.844 43.074,12.727 14.988,25.878 19.306,25.875 			"/>
			<linearGradient id="SVGID_1_" gradientUnits="userSpaceOnUse" x1="17.144" y1="69.3271" x2="17.144" y2="25.8784">
				<stop  offset="0.044" style="stop-color:#B1B9BE"/>
				<stop  offset="0.4176" style="stop-color:#CBD3D8"/>
			</linearGradient>
			<rect x="14.988" y="25.878" fill="url(#SVGID_1_)" width="4.312" height="43.449"/>
			<linearGradient id="SVGID_2_" gradientUnits="userSpaceOnUse" x1="68.8887" y1="69.3271" x2="68.8887" y2="25.8784">
				<stop  offset="0.044" style="stop-color:#B1B9BE"/>
				<stop  offset="0.4176" style="stop-color:#CBD3D8"/>
			</linearGradient>
			<rect x="66.733" y="25.878" fill="url(#SVGID_2_)" width="4.31" height="43.449"/>
			<g>
				<rect x="66.733" y="30.702" fill="#8C9397" width="4.31" height="0.588"/>
				<rect x="66.733" y="33.314" fill="#8C9397" width="4.31" height="0.59"/>
				<rect x="66.733" y="35.928" fill="#8C9397" width="4.31" height="0.591"/>
				<rect x="66.733" y="38.543" fill="#8C9397" width="4.31" height="0.59"/>
				<rect x="66.733" y="41.157" fill="#8C9397" width="4.31" height="0.589"/>
				<rect x="66.733" y="43.771" fill="#8C9397" width="4.31" height="0.589"/>
				<rect x="66.733" y="46.385" fill="#8C9397" width="4.31" height="0.591"/>
				<rect x="66.733" y="49" fill="#8C9397" width="4.31" height="0.59"/>
				<rect x="66.733" y="51.615" fill="#8C9397" width="4.31" height="0.59"/>
				<rect x="66.733" y="54.23" fill="#8C9397" width="4.31" height="0.588"/>
				<rect x="66.733" y="56.842" fill="#8C9397" width="4.31" height="0.592"/>
				<rect x="66.733" y="59.455" fill="#8C9397" width="4.31" height="0.592"/>
				<rect x="66.733" y="62.07" fill="#8C9397" width="4.31" height="0.589"/>
				<rect x="66.733" y="64.687" fill="#8C9397" width="4.31" height="0.588"/>
				<rect x="66.733" y="28.087" fill="#8C9397" width="4.31" height="0.587"/>
				<rect x="66.733" y="67.3" fill="#8C9397" width="4.31" height="0.588"/>
			</g>
			<g>
				<rect x="14.988" y="30.702" fill="#8C9397" width="4.312" height="0.588"/>
				<rect x="14.988" y="33.314" fill="#8C9397" width="4.312" height="0.59"/>
				<rect x="14.988" y="35.928" fill="#8C9397" width="4.312" height="0.591"/>
				<rect x="14.988" y="38.543" fill="#8C9397" width="4.312" height="0.59"/>
				<rect x="14.988" y="41.157" fill="#8C9397" width="4.312" height="0.589"/>
				<rect x="14.988" y="43.771" fill="#8C9397" width="4.312" height="0.589"/>
				<rect x="14.988" y="46.385" fill="#8C9397" width="4.312" height="0.591"/>
				<rect x="14.988" y="49" fill="#8C9397" width="4.312" height="0.59"/>
				<rect x="14.988" y="51.615" fill="#8C9397" width="4.312" height="0.59"/>
				<rect x="14.988" y="54.23" fill="#8C9397" width="4.312" height="0.588"/>
				<rect x="14.988" y="56.842" fill="#8C9397" width="4.312" height="0.592"/>
				<rect x="14.988" y="59.455" fill="#8C9397" width="4.312" height="0.592"/>
				<rect x="14.988" y="62.07" fill="#8C9397" width="4.312" height="0.589"/>
				<rect x="14.988" y="64.687" fill="#8C9397" width="4.312" height="0.588"/>
				<rect x="14.988" y="28.087" fill="#8C9397" width="4.312" height="0.587"/>
				<rect x="14.988" y="67.3" fill="#8C9397" width="4.312" height="0.588"/>
			</g>
		</g>
		<rect x="14.988" y="72.384" fill="#C2C3C4" width="56.055" height="19.815"/>
		<g>
			<rect x="31.986" y="74.882" fill="#61242C" width="22.061" height="1.651"/>
			<rect x="32.424" y="76.64" fill="#4B060A" width="21.183" height="15.559"/>
			<path fill="#681816" d="M32.993,77.408c0,1.384,0,13.404,0,14.79c1.047,0,19,0,20.044,0c0-1.386,0-13.406,0-14.79
				C51.992,77.408,34.04,77.408,32.993,77.408z"/>
			<rect x="42.814" y="77.408" fill="#9C9DA0" width="0.401" height="14.79"/>
			<g>
				<rect x="41.501" y="83.417" fill="#FFFFFF" width="0.322" height="2.004"/>
				<rect x="44.21" y="83.417" fill="#FFFFFF" width="0.318" height="2.004"/>
			</g>
		</g>
		<g>
			<g>
				<path fill="#4B060A" d="M48.716,31.36c-2.499,0-4.525,2.024-4.525,4.524v7.974h9.052v-7.974
					C53.243,33.385,51.216,31.36,48.716,31.36z"/>
				<path fill="#FADC9B" d="M45.272,39.235h3.061v-3.059h-3.061V39.235z M49.1,36.177v3.059h3.059v-3.059H49.1z M45.272,43.062
					h3.061v-3.059h-3.061V43.062z M49.1,43.062h3.059v-3.059H49.1V43.062z"/>
				<path fill="#FADC9B" d="M45.167,35.413h3.167v-3.028C46.667,32.46,45.318,33.765,45.167,35.413z"/>
				<path fill="#FADC9B" d="M49.1,32.384v3.028h3.168C52.116,33.765,50.764,32.46,49.1,32.384z"/>
			</g>
			<g>
				<path fill="#4B060A" d="M37.315,31.36c-2.501,0-4.527,2.024-4.527,4.524v7.974h9.053v-7.974
					C41.841,33.385,39.813,31.36,37.315,31.36z"/>
				<path fill="#FADC9B" d="M33.871,39.235h3.06v-3.059h-3.06V39.235z M37.695,36.177v3.059h3.062v-3.059H37.695z M33.871,43.062
					h3.06v-3.059h-3.06V43.062z M37.695,43.062h3.062v-3.059h-3.062V43.062z"/>
				<path fill="#FADC9B" d="M33.764,35.413h3.167v-3.028C35.266,32.46,33.916,33.765,33.764,35.413z"/>
				<path fill="#FADC9B" d="M37.695,32.384v3.028h3.17C40.712,33.765,39.362,32.46,37.695,32.384z"/>
			</g>
			<g>
				<path fill="#4B060A" d="M25.912,31.36c-2.499,0-4.527,2.024-4.527,4.524v7.974h9.054v-7.974
					C30.438,33.385,28.411,31.36,25.912,31.36z"/>
				<path fill="#FADC9B" d="M22.468,39.235h3.061v-3.059h-3.061V39.235z M26.295,36.177v3.059h3.058v-3.059H26.295z M22.468,43.062
					h3.061v-3.059h-3.061V43.062z M26.295,43.062h3.058v-3.059h-3.058V43.062z"/>
				<path fill="#FADC9B" d="M22.362,35.413h3.166v-3.028C23.866,32.46,22.512,33.765,22.362,35.413z"/>
				<path fill="#FADC9B" d="M26.295,32.384v3.028h3.167C29.311,33.765,27.958,32.46,26.295,32.384z"/>
			</g>
			<g>
				<path fill="#4B060A" d="M60.119,31.36c-2.501,0-4.528,2.024-4.528,4.524v7.974h9.054v-7.974
					C64.645,33.385,62.62,31.36,60.119,31.36z"/>
				<path fill="#FADC9B" d="M56.676,39.235h3.059v-3.059h-3.059V39.235z M60.502,36.177v3.059h3.061v-3.059H60.502z M56.676,43.062
					h3.059v-3.059h-3.059V43.062z M60.502,43.062h3.061v-3.059h-3.061V43.062z"/>
				<path fill="#FADC9B" d="M56.569,35.413h3.165v-3.028C58.068,32.46,56.722,33.765,56.569,35.413z"/>
				<path fill="#FADC9B" d="M60.502,32.384v3.028h3.167C63.517,33.765,62.166,32.46,60.502,32.384z"/>
			</g>
		</g>
		<g>
			<g>
				<path fill="#4B060A" d="M48.716,50.202c-2.499,0-4.525,2.024-4.525,4.523v7.977h9.052v-7.977
					C53.243,52.227,51.216,50.202,48.716,50.202z"/>
				<path fill="#FADC9B" d="M45.272,58.076h3.061v-3.058h-3.061V58.076z M49.1,55.019v3.058h3.059v-3.058H49.1z M45.272,61.904
					h3.061v-3.059h-3.061V61.904z M49.1,61.904h3.059v-3.059H49.1V61.904z"/>
				<path fill="#FADC9B" d="M45.167,54.254h3.167v-3.028C46.667,51.304,45.318,52.607,45.167,54.254z"/>
				<path fill="#FADC9B" d="M49.1,51.226v3.028h3.168C52.116,52.607,50.764,51.304,49.1,51.226z"/>
			</g>
			<g>
				<path fill="#4B060A" d="M37.315,50.202c-2.501,0-4.527,2.024-4.527,4.523v7.977h9.053v-7.977
					C41.841,52.227,39.813,50.202,37.315,50.202z"/>
				<path fill="#FADC9B" d="M33.871,58.076h3.06v-3.058h-3.06V58.076z M37.695,55.019v3.058h3.062v-3.058H37.695z M33.871,61.904
					h3.06v-3.059h-3.06V61.904z M37.695,61.904h3.062v-3.059h-3.062V61.904z"/>
				<path fill="#FADC9B" d="M33.764,54.254h3.167v-3.028C35.266,51.304,33.916,52.607,33.764,54.254z"/>
				<path fill="#FADC9B" d="M37.695,51.226v3.028h3.17C40.712,52.607,39.362,51.304,37.695,51.226z"/>
			</g>
			<g>
				<path fill="#4B060A" d="M25.912,50.202c-2.499,0-4.527,2.024-4.527,4.523v7.977h9.054v-7.977
					C30.438,52.227,28.411,50.202,25.912,50.202z"/>
				<path fill="#FADC9B" d="M22.468,58.076h3.061v-3.058h-3.061V58.076z M26.295,55.019v3.058h3.058v-3.058H26.295z M22.468,61.904
					h3.061v-3.059h-3.061V61.904z M26.295,61.904h3.058v-3.059h-3.058V61.904z"/>
				<path fill="#FADC9B" d="M22.362,54.254h3.166v-3.028C23.866,51.304,22.512,52.607,22.362,54.254z"/>
				<path fill="#FADC9B" d="M26.295,51.226v3.028h3.167C29.311,52.607,27.958,51.304,26.295,51.226z"/>
			</g>
			<g>
				<path fill="#4B060A" d="M60.119,50.202c-2.501,0-4.528,2.024-4.528,4.523v7.977h9.054v-7.977
					C64.645,52.227,62.62,50.202,60.119,50.202z"/>
				<path fill="#FADC9B" d="M56.676,58.076h3.059v-3.058h-3.059V58.076z M60.502,55.019v3.058h3.061v-3.058H60.502z M56.676,61.904
					h3.059v-3.059h-3.059V61.904z M60.502,61.904h3.061v-3.059h-3.061V61.904z"/>
				<path fill="#FADC9B" d="M56.569,54.254h3.165v-3.028C58.068,51.304,56.722,52.607,56.569,54.254z"/>
				<path fill="#FADC9B" d="M60.502,51.226v3.028h3.167C63.517,52.607,62.166,51.304,60.502,51.226z"/>
			</g>
		</g>
		<rect x="14.988" y="69.327" fill="#909295" width="56.055" height="3.056"/>
		<polygon fill="#555456" points="71.043,72.383 84.204,62.392 84.204,59.335 71.043,69.327 		"/>
	</g>
	<linearGradient id="SVGID_3_" gradientUnits="userSpaceOnUse" x1="77.623" y1="69.3271" x2="77.623" y2="15.8872">
		<stop  offset="0" style="stop-color:#848B91"/>
		<stop  offset="0.5275" style="stop-color:#8C9397"/>
	</linearGradient>
	<polygon fill="url(#SVGID_3_)" points="71.043,69.327 84.204,59.335 84.204,15.887 71.043,25.878 	"/>
	<linearGradient id="SVGID_4_" gradientUnits="userSpaceOnUse" x1="77.623" y1="69.3271" x2="77.623" y2="15.8872">
		<stop  offset="0" style="stop-color:#848B91"/>
		<stop  offset="0.5275" style="stop-color:#8C9397"/>
	</linearGradient>
	<polygon fill="url(#SVGID_4_)" points="71.043,69.327 84.204,59.335 84.204,15.887 71.043,25.878 	"/>
	<linearGradient id="SVGID_5_" gradientUnits="userSpaceOnUse" x1="77.623" y1="92.2002" x2="77.623" y2="62.3916">
		<stop  offset="0" style="stop-color:#848B91"/>
		<stop  offset="0.5275" style="stop-color:#8C9397"/>
	</linearGradient>
	<polygon fill="url(#SVGID_5_)" points="71.043,92.2 84.204,82.208 84.204,62.392 71.043,72.383 	"/>
	<g>
		<polygon fill="#1D2F85" points="41.804,11.185 10.779,25.711 10.779,28.218 41.804,13.692 72.824,28.218 72.824,25.711 		"/>
		<polygon fill="#131E3D" points="72.824,28.218 87.861,16.803 87.861,14.296 72.824,25.711 		"/>
		<polygon fill="#1568AF" points="41.804,11.185 56.837,-0.231 87.861,14.296 72.824,25.711 		"/>
		<polygon fill="#259AD0" points="10.779,25.711 41.804,11.185 56.837,-0.231 25.815,14.296 		"/>
	</g>
	<rect x="14.988" y="72.383" fill="#ABACAF" width="4.312" height="19.815"/>
	<rect x="66.731" y="72.383" fill="#ABACAF" width="4.312" height="19.815"/>
	<g>
		<polygon fill="#B41D23" points="15.943,73.248 16.152,76.956 19.792,75.067 		"/>
		<polygon fill="#6BAE42" points="20.02,75.327 21.147,78.865 24.201,76.129 		"/>
		<polygon fill="#24A2DC" points="24.403,76.162 26.296,79.356 28.657,76.004 		"/>
		<polygon fill="#B41D23" points="28.952,76.172 31.189,79.138 33.163,75.544 		"/>
		<polygon fill="#6BAE42" points="33.405,75.434 35.829,78.247 37.567,74.533 		"/>
		<polygon fill="#24A2DC" points="37.868,74.415 40.667,76.855 41.859,72.932 		"/>
		<path fill="#FFFFFF" d="M14.81,72.589h0.003l0.352-0.416c0.005-0.002,1.03,0.879,3.007,1.772l0,0
			c1.976,0.895,4.882,1.791,8.596,1.791l0,0c7.433,0.004,16.178-3.598,16.194-3.607l0,0l0.207,0.505
			c-0.015,0.005-8.807,3.646-16.401,3.649l0,0C19.16,76.281,14.84,72.614,14.81,72.589L14.81,72.589z"/>
	</g>
	<g>
		<polygon fill="#B41D23" points="70.234,73.248 70.025,76.956 66.385,75.067 		"/>
		<polygon fill="#6BAE42" points="66.157,75.327 65.03,78.865 61.977,76.129 		"/>
		<polygon fill="#24A2DC" points="61.775,76.162 59.882,79.356 57.521,76.004 		"/>
		<polygon fill="#B41D23" points="57.226,76.172 54.988,79.138 53.014,75.544 		"/>
		<polygon fill="#6BAE42" points="52.773,75.434 50.349,78.247 48.61,74.533 		"/>
		<polygon fill="#24A2DC" points="48.311,74.415 45.509,76.855 44.318,72.932 		"/>
		<path fill="#FFFFFF" d="M71.368,72.589h-0.002l-0.354-0.416c-0.005-0.002-1.029,0.879-3.007,1.772l0,0
			c-1.976,0.895-4.882,1.791-8.596,1.791l0,0c-7.433,0.004-16.179-3.598-16.194-3.607l0,0l-0.208,0.505
			c0.015,0.005,8.807,3.646,16.402,3.649l0,0C67.019,76.281,71.337,72.614,71.368,72.589L71.368,72.589z"/>
	</g>
	<g>
		<polygon fill="#B41D23" points="83.571,63.418 83.473,67.23 81.765,66.601 		"/>
		<polygon fill="#6BAE42" points="81.657,66.941 81.128,70.899 79.694,69.211 		"/>
		<polygon fill="#24A2DC" points="79.6,69.315 78.711,73.188 77.602,70.646 		"/>
		<polygon fill="#B41D23" points="77.462,70.918 76.413,74.676 75.486,71.76 		"/>
		<polygon fill="#6BAE42" points="75.374,71.733 74.234,75.402 73.419,72.29 		"/>
		<polygon fill="#24A2DC" points="73.278,72.275 71.963,75.699 71.403,72.191 		"/>
		<path fill="#E6E7E8" d="M84.104,62.356L84.104,62.356l-0.168-0.296c-0.001-0.002-0.483,1.247-1.411,2.842l0,0
			c-0.929,1.594-2.292,3.513-4.036,4.813l0,0c-3.49,2.605-7.597,2.063-7.604,2.061l0,0l-0.098,0.577
			c0.007,0,4.137,0.563,7.701-2.088l0,0C82.062,67.602,84.09,62.39,84.104,62.356L84.104,62.356z"/>
	</g>
</g>
</svg>
