 

<svg xmlns:agg="http://www.example.com" xmlns="http://www.w3.org/2000/svg" preserveAspectRatio="none" width="0.5111in" height="1.0750in" viewBox="0 0 475 999">

<path style="fill:#505050;stroke:#000;stroke-width:2" d="M28,900 l0,-209 279,0 140,70 0,209 -13,-8 0,-188 -114,-57 0,188 -13,-5 -17,0 0,-192 -245,0 0,192 -17,0z" />
<path style="fill:#505050;stroke:#000;stroke-width:2" d="M28,691 l0,-209 279,0 140,69 0,210 -13,-9 0,-188 -114,-56 0,187 -13,-4 -17,0 0,-192 -245,0 0,192 -17,0z" />
<path style="fill:#505050;stroke:#000;stroke-width:2" d="M28,482 l0,-210 279,0 140,70 0,209 -13,-8 0,-188 -114,-57 0,188 -13,-4 -17,0 0,-193 -245,0 0,193 -17,0z" />
<path style="fill:#505050;stroke:#000;stroke-width:2" d="M28,272 l0,-209 279,0 140,69 0,210 -13,-9 0,-187 -114,-57 0,188 -13,-5 -17,0 0,-192 -245,0 0,192 -17,0z" />
<path style="fill:none;stroke:#000;stroke-width:2" d="M434,962 l-114,-245" />
<path style="fill:none;stroke:#000;stroke-width:2" d="M320,905 l114,-131" />
<path style="fill:none;stroke:#000;stroke-width:2" d="M289,900 l-244,-192" />
<path style="fill:none;stroke:#000;stroke-width:2" d="M45,900 l244,-192" />
<path style="fill:none;stroke:#000;stroke-width:2" d="M434,752 l-114,-244" />
<path style="fill:none;stroke:#000;stroke-width:2" d="M320,695 l114,-131" />
<path style="fill:none;stroke:#000;stroke-width:2" d="M289,691 l-244,-192" />
<path style="fill:none;stroke:#000;stroke-width:2" d="M45,691 l244,-192" />
<path style="fill:none;stroke:#000;stroke-width:2" d="M434,543 l-114,-245" />
<path style="fill:none;stroke:#000;stroke-width:2" d="M320,486 l114,-131" />
<path style="fill:none;stroke:#000;stroke-width:2" d="M289,482 l-244,-193" />
<path style="fill:none;stroke:#000;stroke-width:2" d="M45,482 l244,-193" />
<path style="fill:none;stroke:#000;stroke-width:2" d="M434,333 l-114,-244" />
<path style="fill:none;stroke:#000;stroke-width:2" d="M320,277 l114,-131" />
<path style="fill:none;stroke:#000;stroke-width:2" d="M289,272 l-244,-192" />
<path style="fill:none;stroke:#000;stroke-width:2" d="M45,272 l244,-192" />
<path style="fill:#cecece;stroke:#000;stroke-width:2" d="M447,761 l-140,-70 -279,0 139,70 280,0z" />
<path style="fill:#cecece;stroke:#000;stroke-width:2" d="M447,551 l-140,-69 -279,0 139,69 280,0z" />
<path style="fill:#cecece;stroke:#000;stroke-width:2" d="M447,342 l-140,-70 -279,0 139,70 280,0z" />
<path style="fill:#cecece;stroke:#000;stroke-width:2" d="M447,132 l-140,-69 -279,0 139,69 280,0z" />
<path style="fill:none;stroke:#7f7f7f;stroke-width:2" d="M429,342 l-244,-192" />
<path style="fill:none;stroke:#7f7f7f;stroke-width:2" d="M185,342 l244,-192" />
<path style="fill:none;stroke:#7f7f7f;stroke-width:2" d="M154,333 l-113,-249" />
<path style="fill:none;stroke:#7f7f7f;stroke-width:2" d="M41,281 l113,-135" />
<path style="fill:none;stroke:#7f7f7f;stroke-width:2" d="M429,551 l-244,-192" />
<path style="fill:none;stroke:#7f7f7f;stroke-width:2" d="M185,551 l244,-192" />
<path style="fill:none;stroke:#7f7f7f;stroke-width:2" d="M154,543 l-113,-249" />
<path style="fill:none;stroke:#7f7f7f;stroke-width:2" d="M41,490 l113,-135" />
<path style="fill:none;stroke:#7f7f7f;stroke-width:2" d="M429,761 l-244,-192" />
<path style="fill:none;stroke:#7f7f7f;stroke-width:2" d="M185,761 l244,-192" />
<path style="fill:none;stroke:#7f7f7f;stroke-width:2" d="M154,752 l-113,-249" />
<path style="fill:none;stroke:#7f7f7f;stroke-width:2" d="M41,700 l113,-136" />
<path style="fill:none;stroke:#7f7f7f;stroke-width:2" d="M429,970 l-244,-192" />
<path style="fill:none;stroke:#7f7f7f;stroke-width:2" d="M185,970 l244,-192" />
<path style="fill:none;stroke:#7f7f7f;stroke-width:2" d="M154,962 l-113,-249" />
<path style="fill:none;stroke:#7f7f7f;stroke-width:2" d="M41,909 l113,-135" />
<path style="fill:none;stroke:#fc0;stroke-width:2" d="M377,132 l0,-34" />
<path style="fill:none;stroke:#fc0;stroke-width:2" d="M237,132 l0,-34" />
<path style="fill:none;stroke:#fc0;stroke-width:2" d="M447,115 l-140,-70 -279,0 139,70 280,0" />
<path style="fill:none;stroke:#fc0;stroke-width:2" d="M447,98 l-140,-70 -279,0 139,70 280,0" />
<path style="fill:none;stroke:#fc0;stroke-width:2" d="M412,115 l0,-35" />
<path style="fill:none;stroke:#fc0;stroke-width:2" d="M342,80 l0,-35" />
<path style="fill:none;stroke:#fc0;stroke-width:2" d="M237,63 l0,-35" />
<path style="fill:none;stroke:#fc0;stroke-width:2" d="M98,63 l0,-35" />
<path style="fill:none;stroke:#fc0;stroke-width:2" d="M63,80 l0,-35" />
<path style="fill:none;stroke:#fc0;stroke-width:2" d="M132,115 l0,-35" />
<path style="fill:none;stroke:#fc0;stroke-width:2" d="M377,342 l0,-35" />
<path style="fill:none;stroke:#fc0;stroke-width:2" d="M237,342 l0,-35" />
<path style="fill:none;stroke:#fc0;stroke-width:2" d="M447,324 l-140,-70 -279,0 139,70 280,0" />
<path style="fill:none;stroke:#fc0;stroke-width:2" d="M447,307 l-140,-70 -279,0 139,70 280,0" />
<path style="fill:none;stroke:#fc0;stroke-width:2" d="M412,324 l0,-35" />
<path style="fill:none;stroke:#fc0;stroke-width:2" d="M342,289 l0,-35" />
<path style="fill:none;stroke:#fc0;stroke-width:2" d="M237,272 l0,-35" />
<path style="fill:none;stroke:#fc0;stroke-width:2" d="M98,272 l0,-35" />
<path style="fill:none;stroke:#fc0;stroke-width:2" d="M63,289 l0,-35" />
<path style="fill:none;stroke:#fc0;stroke-width:2" d="M132,324 l0,-35" />
<path style="fill:none;stroke:#fc0;stroke-width:2" d="M377,551 l0,-35" />
<path style="fill:none;stroke:#fc0;stroke-width:2" d="M237,551 l0,-35" />
<path style="fill:none;stroke:#fc0;stroke-width:2" d="M447,534 l-140,-70 -279,0 139,70 280,0" />
<path style="fill:none;stroke:#fc0;stroke-width:2" d="M447,516 l-140,-69 -279,0 139,69 280,0" />
<path style="fill:none;stroke:#fc0;stroke-width:2" d="M412,534 l0,-35" />
<path style="fill:none;stroke:#fc0;stroke-width:2" d="M342,499 l0,-35" />
<path style="fill:none;stroke:#fc0;stroke-width:2" d="M237,482 l0,-35" />
<path style="fill:none;stroke:#fc0;stroke-width:2" d="M98,482 l0,-35" />
<path style="fill:none;stroke:#fc0;stroke-width:2" d="M63,499 l0,-35" />
<path style="fill:none;stroke:#fc0;stroke-width:2" d="M132,534 l0,-35" />
<path style="fill:none;stroke:#fc0;stroke-width:2" d="M377,761 l0,-35" />
<path style="fill:none;stroke:#fc0;stroke-width:2" d="M237,761 l0,-35" />
<path style="fill:none;stroke:#fc0;stroke-width:2" d="M447,743 l-140,-70 -279,0 139,70 280,0" />
<path style="fill:none;stroke:#fc0;stroke-width:2" d="M447,726 l-140,-70 -279,0 139,70 280,0" />
<path style="fill:none;stroke:#fc0;stroke-width:2" d="M412,743 l0,-35" />
<path style="fill:none;stroke:#fc0;stroke-width:2" d="M342,708 l0,-35" />
<path style="fill:none;stroke:#fc0;stroke-width:2" d="M237,691 l0,-35" />
<path style="fill:none;stroke:#fc0;stroke-width:2" d="M98,691 l0,-35" />
<path style="fill:none;stroke:#fc0;stroke-width:2" d="M63,708 l0,-35" />
<path style="fill:none;stroke:#fc0;stroke-width:2" d="M132,743 l0,-35" />
<path style="fill:#868686;stroke:#000;stroke-width:2" d="M447,970 l0,-209 -280,0 -139,-70 0,209 13,9 0,-196 113,61 0,188 13,8 18,0 0,-192 244,0 0,192 18,0z" />
<path style="fill:#868686;stroke:#000;stroke-width:2" d="M447,761 l0,-210 -280,0 -139,-69 0,209 13,9 0,-197 113,61 0,188 13,9 18,0 0,-192 244,0 0,192 18,0z" />
<path style="fill:#868686;stroke:#000;stroke-width:2" d="M447,551 l0,-209 -280,0 -139,-70 0,210 13,8 0,-196 113,61 0,188 13,8 18,0 0,-192 244,0 0,192 18,0z" />
<path style="fill:#868686;stroke:#000;stroke-width:2" d="M447,342 l0,-210 -280,0 -139,-69 0,209 13,9 0,-197 113,62 0,187 13,9 18,0 0,-192 244,0 0,192 18,0z" />

</svg>
