 

<svg xmlns:agg="http://www.example.com" xmlns="http://www.w3.org/2000/svg" preserveAspectRatio="none" width="0.6941in" height="1.0750in" viewBox="0 0 645 999">

<path style="fill:#999;stroke:#000;stroke-width:2" d="M165,970 l79,-667 -98,-108 -118,29 98,-78 59,-118 137,0 -98,39 -39,79 137,117 138,-117 -40,-79 -98,-39 138,0 59,118 98,78 -118,-29 -98,108 78,667 -157,-235 -157,235z" />
<path style="fill:none;stroke:#000;stroke-width:2" d="M195,735 l255,0" />
<path style="fill:none;stroke:#000;stroke-width:2" d="M170,931 l20,0 -15,-30 39,0 -34,-49 64,0 -54,-78 108,0 -54,-39 -54,39" />
<path style="fill:none;stroke:#000;stroke-width:2" d="M474,931 l-19,0 14,-30 -39,0 34,-49 -63,0 54,-78 -108,0 54,-39 54,39" />
<path style="fill:none;stroke:#000;stroke-width:2" d="M244,303 l157,0" />
<path style="fill:none;stroke:#000;stroke-width:2" d="M224,469 l196,0" />
<path style="fill:none;stroke:#000;stroke-width:2" d="M244,735 l-45,-30 226,-172 -191,-118 172,-78 -84,-34" />
<path style="fill:none;stroke:#000;stroke-width:2" d="M401,735 l44,-30 -226,-172 191,-118 -171,-78 83,-34" />
<path style="fill:none;stroke:#000;stroke-width:2" d="M199,676 l64,-20 -54,-44 226,0 -54,44 64,20" />
<path style="fill:none;stroke:#000;stroke-width:2" d="M263,656 l-59,-10" />
<path style="fill:none;stroke:#000;stroke-width:2" d="M381,656 l59,-10" />
<path style="fill:none;stroke:#000;stroke-width:2" d="M263,612 l0,-44 -49,0 49,44" />
<path style="fill:none;stroke:#000;stroke-width:2" d="M381,612 l0,-44 49,0 -49,44" />
<path style="fill:none;stroke:#000;stroke-width:2" d="M366,43 l15,-15 0,19 20,-19 0,29 39,-29 -20,39 49,-15 -39,35 54,0 -39,29 59,0 -45,30 40,49 -54,-35 29,59 -59,-34 35,64 -74,-30 44,64 -98,-20 -98,20 44,-64 -73,30 34,-64 -59,34 29,-59 -53,35 39,-49 -44,-30 58,0 -39,-29 54,0 -39,-35 49,15 -20,-39 40,29 0,-29 19,19 0,-19 15,15" />
<path style="fill:none;stroke:#000;stroke-width:2" d="M499,195 l19,-49 15,58 25,-24 9,34 20,-10" />
<path style="fill:none;stroke:#000;stroke-width:2" d="M145,195 l-19,-49 -15,58 -24,-24 -10,34 -20,-10" />

</svg>
