 

<svg xmlns:agg="http://www.example.com" xmlns="http://www.w3.org/2000/svg" preserveAspectRatio="none" width="1.6083in" height="0.9756in" viewBox="0 0 999 606">

<path style="fill:#999;stroke:#000;stroke-width:2" d="M735,342 l-157,-79 0,-157 157,79 0,157z" />
<path style="fill:#e5e5e5;stroke:#000;stroke-width:2" d="M970,185 l-157,-79 -235,0 157,79 235,0z" />
<path style="fill:#e5e5e5;stroke:#000;stroke-width:2" d="M735,263 l-79,-39 -236,0 79,39 236,0z" />
<path style="fill:#e5e5e5;stroke:#000;stroke-width:2" d="M735,342 l-157,-79 -550,0 157,79 550,0z" />
<path style="fill:#ccc;stroke:#000;stroke-width:2" d="M970,578 l0,-393 -235,0 0,78 -236,0 0,79 -314,0 0,236 785,0z" />
<path style="fill:none;stroke:#000;stroke-width:2" d="M852,512 l0,66" />
<path style="fill:#999;stroke:#000;stroke-width:2" d="M185,578 l-157,-79 0,-236 157,79 0,236z" />
<path style="fill:#999;stroke:#000;stroke-width:2" d="M499,342 l-79,-39 0,-79 79,39 0,79z" />
<path style="fill:#999;stroke:#000;stroke-width:2" d="M499,420 l0,-39 -295,0 0,39 295,0z" />
<path style="fill:#999;stroke:#000;stroke-width:2" d="M892,578 l0,-66 -79,0 0,66 79,0z" />
<path style="fill:#999;stroke:#000;stroke-width:2" d="M931,420 l0,-43 -58,0 0,43 58,0z" />
<path style="fill:#999;stroke:#000;stroke-width:2" d="M858,420 l0,-43 -57,0 0,43 57,0z" />
<path style="fill:#999;stroke:#000;stroke-width:2" d="M786,420 l0,-43 -57,0 0,43 57,0z" />
<path style="fill:#999;stroke:#000;stroke-width:2" d="M714,420 l0,-43 -58,0 0,43 58,0z" />
<path style="fill:#999;stroke:#000;stroke-width:2" d="M931,346 l0,-43 -58,0 0,43 58,0z" />
<path style="fill:#999;stroke:#000;stroke-width:2" d="M858,346 l0,-43 -57,0 0,43 57,0z" />
<path style="fill:#999;stroke:#000;stroke-width:2" d="M786,346 l0,-43 -57,0 0,43 57,0z" />
<path style="fill:#999;stroke:#000;stroke-width:2" d="M714,346 l0,-43 -58,0 0,43 58,0z" />
<path style="fill:#666;stroke:#000;stroke-width:2" d="M165,420 l0,-39 -118,-62 0,40 118,61z" />
<path style="fill:#7f7f7f;stroke:#000;stroke-width:2" d="M231,303 l-8,-275 -35,0 -8,275 51,0z" />
<path style="fill:#7f7f7f;stroke:#000;stroke-width:2" d="M342,303 l-9,-275 -34,0 -9,275 52,0z" />
<path style="fill:#b2b2b2" d="M223,303 l-6,-275 -23,0 -6,275 35,0z" />
<path style="fill:#b2b2b2" d="M333,303 l-6,-275 -22,0 -6,275 34,0z" />
<path style="fill:#e5e5e5" d="M210,303 l-2,-275 -6,0 -1,275 9,0z" />
<path style="fill:#e5e5e5" d="M321,303 l-2,-275 -6,0 -1,275 9,0z" />

</svg>
