 

<svg xmlns:agg="http://www.example.com" xmlns="http://www.w3.org/2000/svg" preserveAspectRatio="none" width="0.3231in" height="1.0750in" viewBox="0 0 300 998">

<path style="fill:#963;stroke:#000;stroke-width:2" d="M241,970 l-23,-942 -128,0 -23,942 174,0z" />
<path style="fill:#c63" d="M229,970 l-15,-942 -97,0 -16,942 128,0z" />
<path style="fill:#f63" d="M206,970 l-8,-942 -46,0 -8,942 62,0z" />
<path style="fill:none;stroke:#000;stroke-width:2" d="M241,970 l-23,-942 -128,0 -23,942 174,0" />
<ellipse style="fill:#c63;stroke:#000;stroke-width:2" cx="154" cy="31" rx="64" ry="3" />
<ellipse style="fill:#000;stroke:#000;stroke-width:2" cx="153" cy="30" rx="48" ry="2" />
<path style="fill:none;stroke:#630;stroke-width:2" d="M218,70 l-128,0" />
<path style="fill:none;stroke:#630;stroke-width:2" d="M218,113 l-128,0" />
<path style="fill:none;stroke:#630;stroke-width:2" d="M218,156 l-128,0" />
<path style="fill:none;stroke:#630;stroke-width:2" d="M218,198 l-128,0" />
<path style="fill:none;stroke:#630;stroke-width:2" d="M218,241 l-128,0" />
<path style="fill:none;stroke:#630;stroke-width:2" d="M218,284 l-128,0" />
<path style="fill:none;stroke:#630;stroke-width:2" d="M218,326 l-128,0" />
<path style="fill:none;stroke:#630;stroke-width:2" d="M218,369 l-128,0" />
<path style="fill:none;stroke:#630;stroke-width:2" d="M218,412 l-128,0" />
<path style="fill:none;stroke:#630;stroke-width:2" d="M218,454 l-128,0" />
<path style="fill:none;stroke:#630;stroke-width:2" d="M218,497 l-128,0" />
<path style="fill:none;stroke:#630;stroke-width:2" d="M218,544 l-128,0" />
<path style="fill:none;stroke:#630;stroke-width:2" d="M218,586 l-128,0" />
<path style="fill:none;stroke:#630;stroke-width:2" d="M218,629 l-128,0" />
<path style="fill:none;stroke:#630;stroke-width:2" d="M218,672 l-128,0" />
<path style="fill:none;stroke:#630;stroke-width:2" d="M218,714 l-128,0" />
<path style="fill:none;stroke:#630;stroke-width:2" d="M218,757 l-128,0" />
<path style="fill:none;stroke:#630;stroke-width:2" d="M218,800 l-128,0" />
<path style="fill:none;stroke:#630;stroke-width:2" d="M218,842 l-128,0" />
<path style="fill:none;stroke:#630;stroke-width:2" d="M218,885 l-128,0" />
<path style="fill:none;stroke:#630;stroke-width:2" d="M218,928 l-128,0" />
<path style="fill:#000;stroke:#000;stroke-width:2" d="M35,470 l0,-23 -3,0 0,23 3,0z" />
<path style="fill:#000;stroke:#000;stroke-width:2" d="M94,470 l0,-23 -59,0 0,4 55,0 0,7 -55,0 55,0 0,12 4,0z" />
<path style="fill:#000;stroke:#000;stroke-width:2" d="M152,470 l0,-23 -58,0 0,4 54,0 0,7 -54,0 54,0 0,12 4,0z" />
<path style="fill:#000;stroke:#000;stroke-width:2" d="M210,470 l0,-23 -58,0 0,4 54,0 0,7 -54,0 54,0 0,12 4,0z" />
<path style="fill:#000;stroke:#000;stroke-width:2" d="M268,470 l0,-23 -58,0 0,4 54,0 0,7 -54,0 54,0 0,12 4,0z" />
<path style="fill:#000;stroke:#000;stroke-width:2" d="M268,474 l-236,0 0,4 236,0 0,-4z" />
<path style="fill:#7f7f7f;stroke:#000;stroke-width:2" d="M35,470 l-3,0 0,-23 3,0 0,23z" />
<path style="fill:#7f7f7f;stroke:#000;stroke-width:2" d="M272,470 l-244,0 0,4 244,0 0,-4z" />

</svg>
