 

<svg xmlns:agg="http://www.example.com" xmlns="http://www.w3.org/2000/svg" preserveAspectRatio="none" width="1.0545in" height="1.0750in" viewBox="0 0 979 998">

<path style="fill:#e5e5e5;stroke:#000;stroke-width:2" d="M952,971 l0,-354 -550,0 -2,-157 -313,0 0,511 865,0z" />
<path style="fill:#b2b2b2;stroke:#000;stroke-width:2" d="M87,459 l-60,-38 0,510 60,40 0,-512z" />
<path style="fill:#f7f7f7;stroke:#000;stroke-width:2" d="M401,617 l0,-40 472,0 79,40 -551,0z" />
<path style="fill:#bfd3f2;stroke:#000;stroke-width:2" d="M952,715 l0,-78 -865,0 0,78 865,0z" />
<path style="fill:#8ca0bf;stroke:#000;stroke-width:2" d="M27,676 l0,-78 60,39 0,78 -60,-39z" />
<path style="fill:none;stroke:#fff;stroke-width:2" d="M950,716 l-862,0" />
<path style="fill:none;stroke:#e5e5e5;stroke-width:2" d="M85,714 l-56,-37" />
<path style="fill:#f7f7f7;stroke:#000;stroke-width:2" d="M87,459 l-60,-38 295,0 79,38 -314,0z" />
<path style="fill:none;stroke:#000;stroke-width:2" d="M401,617 l-314,0 -60,-40" />
<path style="fill:#323219;stroke:#000;stroke-width:2" d="M97,431 l10,-404 38,0 11,404 -59,0z" />
<path style="fill:#323219;stroke:#000;stroke-width:2" d="M520,598 l0,-40 58,0 0,40 -58,0z" />
<path style="fill:#65654c" d="M106,431 l7,-404 26,0 6,404 -39,0z" />
<path style="fill:#65654c" d="M529,598 l0,-40 39,0 0,40 -39,0z" />
<path style="fill:#98987f" d="M116,431 l3,-404 13,0 3,404 -19,0z" />
<path style="fill:#98987f" d="M539,598 l0,-40 19,0 0,40 -19,0z" />

</svg>
