 

<svg xmlns:agg="http://www.example.com" xmlns="http://www.w3.org/2000/svg" preserveAspectRatio="none" width="1.6083in" height="0.4701in" viewBox="0 0 999 292">

<path style="fill:#ccc;stroke:#000;stroke-width:2" d="M970,263 l0,-157 -824,0 0,157 824,0z" />
<path style="fill:#e5e5e5;stroke:#000;stroke-width:2" d="M146,106 l-59,-78 785,0 98,78 -824,0z" />
<path style="fill:#999;stroke:#000;stroke-width:2" d="M381,263 l0,-98 -118,0 0,98 118,0z" />
<path style="fill:#999;stroke:#000;stroke-width:2" d="M617,263 l0,-98 -118,0 0,98 118,0z" />
<path style="fill:#999;stroke:#000;stroke-width:2" d="M852,263 l0,-98 -117,0 0,98 117,0z" />
<path style="fill:#000" d="M361,263 l0,-98 -98,0 0,98 98,0z" />
<path style="fill:#000" d="M597,263 l0,-98 -98,0 0,98 98,0z" />
<path style="fill:#000" d="M833,263 l0,-98 -98,0 0,98 98,0z" />
<path style="fill:#999;stroke:#000;stroke-width:2" d="M146,263 l0,-157 -59,-78 -59,19 0,157 118,59z" />

</svg>
