 

<svg xmlns:agg="http://www.example.com" xmlns="http://www.w3.org/2000/svg" preserveAspectRatio="none" width="1.0750in" height="1.0750in" viewBox="0 0 999 999">

<path style="fill:#e4e4e4;stroke:#000;stroke-width:2" d="M970,558 l-78,0 0,412 78,0 0,-412z" />
<path style="fill:#e4e4e4;stroke:#000;stroke-width:2" d="M381,204 l4,-33 11,-26 18,-20 29,-15 26,-4 35,7 22,12 17,20 11,26 4,33 0,766 -177,0 0,-766z" />
<path style="fill:#e4e4e4;stroke:#000;stroke-width:2" d="M47,617 l0,353 40,0 78,-353 -118,0z" />
<path style="fill:#000" d="M479,106 l0,-78 -157,0 0,942 20,0 0,-658 118,0 0,-9 -118,0 0,-108 118,0 0,-10 -118,0 0,-138 118,0 0,59 19,0z" />
<circle style="fill:#e4e4e4;stroke:#000;stroke-width:2" cx="224" cy="616" r="196" />
<path style="fill:#e4e4e4;stroke:#000;stroke-width:2" d="M499,342 l9,-35 15,-21 21,-19 27,-16 31,-13 35,-9 38,-4 20,-1 40,3 37,7 33,10 29,15 24,17 18,20 15,34 1,12 0,628 -393,0 0,-628z" />
<path style="fill:#b1b1b1;stroke:#000;stroke-width:2" d="M55,519 l338,0 12,23 9,24 5,25 1,13 0,7 0,6 -4,39 -11,37 -18,33 -24,29 -29,25 -34,18 -36,11 -20,3 -20,1 -20,-1 -38,-8 -35,-15 -32,-21 -26,-26 -21,-32 -15,-35 -8,-38 -1,-20 0,-6 4,-32 6,-25 11,-24 3,-6 3,-5z" />
<path style="fill:#e4e4e4;stroke:#000;stroke-width:2" d="M852,970 l0,-196 -78,0 0,-157 -550,0 0,157 -78,0 0,196 706,0z" />
<path style="fill:#505050" d="M715,715 l-21,0 0,59 21,0 0,-59z" />
<path style="fill:#505050" d="M633,715 l-21,0 0,59 21,0 0,-59z" />
<path style="fill:#505050" d="M550,715 l-21,0 0,59 21,0 0,-59z" />
<path style="fill:#505050" d="M468,715 l-21,0 0,59 21,0 0,-59z" />
<path style="fill:#505050" d="M386,715 l-21,0 0,59 21,0 0,-59z" />
<path style="fill:#505050" d="M304,715 l-21,0 0,59 21,0 0,-59z" />
<path style="fill:#505050" d="M715,813 l-21,0 0,59 21,0 0,-59z" />
<path style="fill:#505050" d="M633,813 l-21,0 0,59 21,0 0,-59z" />
<path style="fill:#505050" d="M550,813 l-21,0 0,59 21,0 0,-59z" />
<path style="fill:#505050" d="M468,813 l-21,0 0,59 21,0 0,-59z" />
<path style="fill:#505050" d="M386,813 l-21,0 0,59 21,0 0,-59z" />
<path style="fill:#505050" d="M304,813 l-21,0 0,59 21,0 0,-59z" />

</svg>
