 

<svg xmlns:agg="http://www.example.com" xmlns="http://www.w3.org/2000/svg" preserveAspectRatio="none" width="0.7038in" height="1.0750in" viewBox="0 0 654 999">

<path style="fill:none;stroke:#000;stroke-width:2" d="M626,895 l-300,75 -298,-75 298,-747 300,747" />
<path style="fill:none;stroke:#000;stroke-width:2" d="M626,895 l-300,-73 -298,73" />
<path style="fill:none;stroke:#000;stroke-width:2" d="M326,148 l0,822" />
<path style="fill:none;stroke:#000;stroke-width:2" d="M588,803 l-262,56 -261,-56" />
<path style="fill:none;stroke:#000;stroke-width:2" d="M550,709 l-224,46 -223,-46" />
<path style="fill:none;stroke:#000;stroke-width:2" d="M512,616 l-186,38 -187,-38" />
<path style="fill:none;stroke:#000;stroke-width:2" d="M476,522 l-150,28 -149,-28" />
<path style="fill:none;stroke:#000;stroke-width:2" d="M439,429 l-113,23 -112,-23" />
<path style="fill:none;stroke:#000;stroke-width:2" d="M401,335 l-75,15 -74,-15" />
<path style="fill:none;stroke:#000;stroke-width:2" d="M363,243 l-37,9 -36,-9" />
<path style="fill:none;stroke:#000;stroke-width:2" d="M326,103 l0,-28" />
<path style="fill:none;stroke:#000;stroke-width:2" d="M313,148 l-10,-4 10,-5 -10,-4 10,-6 -10,-3 10,-6 -10,-4 10,-3 -10,-6 10,-6 28,0 9,6 -9,6 9,3 -9,4 9,6 -9,3 9,6 -9,4 9,5 -9,4 -28,0" />
<path style="fill:none;stroke:#000;stroke-width:2" d="M341,113 l-28,0" />
<path style="fill:none;stroke:#000;stroke-width:2" d="M341,120 l-28,0" />
<path style="fill:none;stroke:#000;stroke-width:2" d="M341,129 l-28,0" />
<path style="fill:none;stroke:#000;stroke-width:2" d="M341,139 l-28,0" />
<path style="fill:none;stroke:#000;stroke-width:2" d="M386,107 l28,-4 -13,17 57,-4" />
<path style="fill:none;stroke:#000;stroke-width:2" d="M265,107 l-28,-4 15,17 -56,-4" />
<path style="fill:none;stroke:#000;stroke-width:2" d="M307,56 l37,-10 -37,-9 37,-9" />

</svg>
