 

<svg xmlns:agg="http://www.example.com" xmlns="http://www.w3.org/2000/svg" preserveAspectRatio="none" width="0.2023in" height="1.0750in" viewBox="0 0 188 999">

<path style="fill:#7f7f7f" d="M160,970 l-10,-266 -113,0 -9,266 132,0z" />
<path style="fill:#b2b2b2" d="M131,970 l-5,-266 -64,0 -6,266 75,0z" />
<path style="fill:#e5e5e5" d="M109,970 l-2,-266 -25,0 -1,266 28,0z" />
<path style="fill:none;stroke:#000;stroke-width:2" d="M160,970 l-10,-266 -113,0 -9,266 132,0" />
<path style="fill:#7f7f7f" d="M141,478 l-10,-209 -75,0 -9,209 94,0z" />
<path style="fill:#b2b2b2" d="M120,478 l-4,-209 -43,0 -6,209 53,0z" />
<path style="fill:#e5e5e5" d="M105,478 l-4,-209 -15,0 -2,209 21,0z" />
<path style="fill:none;stroke:#000;stroke-width:2" d="M141,478 l-10,-209 -75,0 -9,209 94,0" />
<path style="fill:#7f0000" d="M150,704 l-9,-226 -94,0 -10,226 113,0z" />
<path style="fill:#bf0000" d="M128,704 l-6,-226 -57,0 -3,226 66,0z" />
<path style="fill:#f00" d="M109,704 l-4,-226 -23,0 -1,226 28,0z" />
<path style="fill:none;stroke:#000;stroke-width:2" d="M150,704 l-9,-226 -94,0 -10,226 113,0" />
<path style="fill:#7f0000" d="M131,269 l-9,-207 -57,0 -9,207 75,0z" />
<path style="fill:#bf0000" d="M116,269 l-5,-207 -34,0 -6,207 45,0z" />
<path style="fill:#f00" d="M103,269 l-2,-207 -15,0 -2,207 19,0z" />
<path style="fill:none;stroke:#000;stroke-width:2" d="M131,269 l-9,-207 -57,0 -9,207 75,0" />
<path style="fill:#7f7f7f" d="M122,62 l-57,0 0,-21 57,0 0,21z" />
<path style="fill:#b2b2b2" d="M113,62 l-38,0 0,-21 38,0 0,21z" />
<path style="fill:#e5e5e5" d="M99,62 l-9,0 0,-21 9,0 0,21z" />
<path style="fill:none;stroke:#000;stroke-width:2" d="M122,62 l-57,0 0,-21 57,0 0,21" />
<path style="fill:#7f7f7f" d="M113,43 l-38,0 0,-15 38,0 0,15z" />
<path style="fill:#b2b2b2" d="M107,43 l-25,0 0,-15 25,0 0,15z" />
<path style="fill:#e5e5e5" d="M98,43 l-6,0 0,-15 6,0 0,15z" />
<path style="fill:none;stroke:#000;stroke-width:2" d="M113,43 l-38,0 0,-15 38,0 0,15" />

</svg>
