 

<svg xmlns:agg="http://www.example.com" xmlns="http://www.w3.org/2000/svg" preserveAspectRatio="none" width="0.5671in" height="1.0750in" viewBox="0 0 527 999">

<path style="fill:#000" d="M116,208 l75,-82 11,0 -86,94 0,-12z" />
<path style="fill:#000" d="M411,208 l-75,-82 -11,0 86,94 0,-12z" />
<path style="fill:#000" d="M408,707 l-72,-71 -11,0 83,84 0,-13z" />
<path style="fill:#000" d="M119,707 l72,-71 11,0 -83,84 0,-13z" />
<path style="fill:#000" d="M116,447 l75,-71 11,0 -86,84 0,-13z" />
<path style="fill:#000" d="M411,447 l-75,-71 -11,0 86,84 0,-13z" />
<path style="fill:#7d7d7d" d="M405,331 l0,-58 -285,0 0,58 8,0 0,-53 132,0 0,19 -132,0 0,6 132,0 0,28 7,0 0,-28 130,0 0,-6 -130,0 0,-19 130,0 0,53 8,0z" />
<path style="fill:#505050;fill-rule:evenodd" d="M441,940 l0,-844 -355,0 0,844 30,0 0,-814 294,0 0,814 31,0z M410,863 l-294,0 0,32 294,0 0,-32z M410,627 l-294,0 0,32 294,0 0,-32z " />
<path style="fill:none;stroke:#000;stroke-width:2" d="M441,940 l0,-844 -355,0 0,844 30,0 0,-814 294,0 0,814 31,0" />
<path style="fill:none;stroke:#000;stroke-width:2" d="M410,863 l-294,0 0,32 294,0 0,-32" />
<path style="fill:none;stroke:#000;stroke-width:2" d="M410,627 l-294,0 0,32 294,0 0,-32" />
<path style="fill:#868686;stroke:#000;stroke-width:2" d="M410,891 l0,-28 49,24 0,44 -49,-40z" />
<path style="fill:#868686;stroke:#000;stroke-width:2" d="M116,891 l0,-28 -49,24 0,44 49,-40z" />
<path style="fill:#868686;stroke:#000;stroke-width:2" d="M410,655 l0,-28 49,13 0,40 -49,-25z" />
<path style="fill:#868686;stroke:#000;stroke-width:2" d="M116,655 l0,-28 -49,13 0,40 49,-25z" />
<path style="fill:#868686;stroke:#000;stroke-width:2" d="M116,126 l-30,0 -58,-59 39,0 49,59z" />
<path style="fill:#868686;stroke:#000;stroke-width:2" d="M410,126 l31,0 58,-59 -40,0 -49,59z" />
<path style="fill:#b6b6b6;stroke:#000;stroke-width:2" d="M410,126 l0,-30 49,-68 0,39 -49,59z" />
<path style="fill:#b6b6b6;stroke:#000;stroke-width:2" d="M116,126 l0,-30 -49,-68 0,39 49,59z" />
<path style="fill:#b6b6b6;stroke:#000;stroke-width:2" d="M410,627 l31,0 58,13 -40,0 -49,-13z" />
<path style="fill:#b6b6b6;stroke:#000;stroke-width:2" d="M116,627 l-30,0 -58,13 39,0 49,-13z" />
<path style="fill:#b6b6b6;stroke:#000;stroke-width:2" d="M410,863 l31,0 58,24 -40,0 -49,-24z" />
<path style="fill:#b6b6b6;stroke:#000;stroke-width:2" d="M116,863 l-30,0 -58,24 39,0 49,-24z" />
<path style="fill:none;stroke:#000;stroke-width:2" d="M392,343 l0,627" />
<path style="fill:none;stroke:#000;stroke-width:2" d="M331,343 l0,627" />
<path style="fill:none;stroke:#000;stroke-width:2" d="M392,380 l-61,0" />
<path style="fill:none;stroke:#000;stroke-width:2" d="M392,420 l-61,0" />
<path style="fill:none;stroke:#000;stroke-width:2" d="M392,459 l-61,0" />
<path style="fill:none;stroke:#000;stroke-width:2" d="M392,499 l-61,0" />
<path style="fill:none;stroke:#000;stroke-width:2" d="M392,539 l-61,0" />
<path style="fill:none;stroke:#000;stroke-width:2" d="M392,578 l-61,0" />
<path style="fill:none;stroke:#000;stroke-width:2" d="M392,616 l-61,0" />
<path style="fill:none;stroke:#000;stroke-width:2" d="M392,655 l-61,0" />
<path style="fill:none;stroke:#000;stroke-width:2" d="M392,695 l-61,0" />
<path style="fill:none;stroke:#000;stroke-width:2" d="M392,735 l-61,0" />
<path style="fill:none;stroke:#000;stroke-width:2" d="M392,774 l-61,0" />
<path style="fill:none;stroke:#000;stroke-width:2" d="M392,814 l-61,0" />
<path style="fill:none;stroke:#000;stroke-width:2" d="M392,851 l-61,0" />
<path style="fill:none;stroke:#000;stroke-width:2" d="M392,891 l-61,0" />
<path style="fill:none;stroke:#000;stroke-width:2" d="M392,931 l-61,0" />
<path style="fill:#b6b6b6;fill-rule:evenodd" d="M499,970 l0,-942 -471,0 0,942 39,0 0,-903 392,0 0,903 40,0z M459,887 l-392,0 0,44 392,0 0,-44z M459,640 l-392,0 0,46 392,0 0,-46z " />
<path style="fill:none;stroke:#000;stroke-width:2" d="M499,970 l0,-942 -471,0 0,942 39,0 0,-903 392,0 0,903 40,0" />
<path style="fill:none;stroke:#000;stroke-width:2" d="M459,887 l-392,0 0,44 392,0 0,-44" />
<path style="fill:none;stroke:#000;stroke-width:2" d="M459,640 l-392,0 0,46 392,0 0,-46" />
<path style="fill:#6b6b6b;fill-rule:evenodd" d="M490,965 l0,-928 -453,0 0,928 21,0 0,-907 411,0 0,907 21,0z M459,897 l-392,0 0,24 392,0 0,-24z M459,652 l-392,0 0,24 392,0 0,-24z " />
<path style="fill:#6b6b6b" d="M459,361 l-392,0 0,15 392,0 0,-15z" />
<path style="fill:#cecece;stroke:#000;stroke-width:2" d="M459,343 l-392,0 0,18 392,0 0,-18z" />
<path style="fill:#000" d="M67,165 l98,-98 15,0 -113,113 0,-15z" />
<path style="fill:#000" d="M459,165 l-98,-98 -15,0 113,113 0,-15z" />
<path style="fill:#000" d="M459,784 l-98,-98 -15,0 113,113 0,-15z" />
<path style="fill:#000" d="M67,784 l98,-98 15,0 -113,113 0,-15z" />
<path style="fill:#000" d="M67,474 l98,-98 15,0 -113,114 0,-16z" />
<path style="fill:#000" d="M459,474 l-98,-98 -15,0 113,114 0,-16z" />
<path style="fill:#dbdbdb;stroke:#000;stroke-width:2" d="M303,735 l19,-40 -117,0 19,40 79,0z" />
<path style="fill:#9e9e9e;stroke:#000;stroke-width:2" d="M322,695 l-19,-79 -79,0 -19,79 117,0z" />
<path style="fill:none;stroke:#7f7f7f;stroke-width:2" d="M303,735 l-9,-40" />
<path style="fill:none;stroke:#7f7f7f;stroke-width:2" d="M224,735 l9,-40" />
<path style="fill:#f2f2f2;stroke:#000;stroke-width:2" d="M459,343 l-49,-12 -294,0 -49,12 392,0z" />
<path style="fill:#9e9e9e" d="M450,343 l0,-80 -373,0 0,80 9,0 0,-70 172,0 0,30 -172,0 0,9 172,0 0,31 11,0 0,-31 172,0 0,-9 -172,0 0,-30 172,0 0,70 9,0z" />

</svg>
