 

<svg xmlns:agg="http://www.example.com" xmlns="http://www.w3.org/2000/svg" preserveAspectRatio="none" width="1.6083in" height="0.6327in" viewBox="0 0 999 393">

<path style="fill:#e5e5e5;stroke:#000;stroke-width:2" d="M970,95 l-808,0 0,269 808,0 0,-269z" />
<path style="fill:#b2b2b2;stroke:#000;stroke-width:2" d="M162,95 l-134,-67 0,269 134,67 0,-269z" />
<path style="fill:#ccc;stroke:#000;stroke-width:2" d="M162,95 l-134,-67 808,0 134,67 -808,0z" />
<path style="fill:#d9d9d9;stroke:#000;stroke-width:2" d="M286,140 l-112,0 0,224 112,0 0,-224z" />
<path style="fill:#cbe5e5" d="M69,93 l-37,-18 0,112 37,18 0,-112z" />
<path style="fill:#cbe5e5" d="M114,116 l-37,-19 0,112 37,19 0,-112z" />
<path style="fill:#cbe5e5" d="M159,138 l-38,-18 0,112 38,18 0,-112z" />
<path style="fill:#cbe5e5" d="M275,151 l-90,0 0,90 90,0 0,-90z" />
<path style="fill:#cbe5e5" d="M420,140 l-112,0 0,112 112,0 0,-112z" />
<path style="fill:#cbe5e5" d="M555,140 l-112,0 0,112 112,0 0,-112z" />
<path style="fill:#cbe5e5" d="M690,140 l-112,0 0,112 112,0 0,-112z" />
<path style="fill:#cbe5e5" d="M824,140 l-112,0 0,112 112,0 0,-112z" />
<path style="fill:#cbe5e5" d="M959,140 l-112,0 0,112 112,0 0,-112z" />
<path style="fill:#b3d9d9" d="M223,207 l21,22 -27,-22 -18,-23 24,23z" />
<path style="fill:#b3d9d9" d="M274,152 l0,28 -88,-25 0,-3 88,0z" />
<path style="fill:#b3d9d9" d="M356,209 l26,29 -33,-28 -23,-30 30,29z" />
<path style="fill:#b3d9d9" d="M419,141 l0,35 -110,-31 0,-4 110,0z" />
<path style="fill:#b3d9d9" d="M491,209 l26,29 -34,-28 -22,-30 30,29z" />
<path style="fill:#b3d9d9" d="M554,141 l0,35 -110,-31 0,-4 110,0z" />
<path style="fill:#b3d9d9" d="M625,209 l26,29 -33,-28 -23,-30 30,29z" />
<path style="fill:#b3d9d9" d="M689,141 l0,35 -110,-31 0,-4 110,0z" />
<path style="fill:#b3d9d9" d="M760,209 l26,29 -33,-28 -23,-30 30,29z" />
<path style="fill:#b3d9d9" d="M823,141 l0,35 -110,-31 0,-4 110,0z" />
<path style="fill:#b3d9d9" d="M895,209 l26,29 -34,-28 -22,-30 30,29z" />
<path style="fill:#b3d9d9" d="M958,141 l0,35 -110,-31 0,-4 110,0z" />
<path style="fill:#b3d9d9" d="M47,152 l9,32 -11,-32 -8,-34 10,34z" />
<path style="fill:#b3d9d9" d="M68,94 l0,34 -36,-49 0,-3 36,18z" />
<path style="fill:#b3d9d9" d="M92,174 l9,33 -11,-33 -8,-34 10,34z" />
<path style="fill:#b3d9d9" d="M113,117 l0,34 -36,-49 0,-4 36,19z" />
<path style="fill:#b3d9d9" d="M137,197 l9,32 -11,-32 -8,-34 10,34z" />
<path style="fill:#b3d9d9" d="M158,139 l0,34 -36,-49 0,-3 36,18z" />
<path style="fill:#fff" d="M212,158 l23,19 15,24 -22,-25 -16,-18z" />
<path style="fill:#fff" d="M259,231 l-32,-26 -21,-33 32,35 21,24z" />
<path style="fill:#fff" d="M212,231 l-11,-9 -8,-12 12,12 7,9z" />
<path style="fill:#fff" d="M342,148 l29,25 19,29 -28,-31 -20,-23z" />
<path style="fill:#fff" d="M402,240 l-41,-33 -27,-41 40,43 28,31z" />
<path style="fill:#fff" d="M343,240 l-15,-12 -9,-14 14,15 10,11z" />
<path style="fill:#fff" d="M476,148 l30,25 19,29 -29,-31 -20,-23z" />
<path style="fill:#fff" d="M536,240 l-41,-33 -26,-41 40,43 27,31z" />
<path style="fill:#fff" d="M477,240 l-14,-12 -10,-14 14,15 10,11z" />
<path style="fill:#fff" d="M611,148 l29,25 19,29 -28,-31 -20,-23z" />
<path style="fill:#fff" d="M671,240 l-41,-33 -26,-41 39,43 28,31z" />
<path style="fill:#fff" d="M612,240 l-14,-12 -10,-14 14,15 10,11z" />
<path style="fill:#fff" d="M746,148 l29,25 19,29 -28,-31 -20,-23z" />
<path style="fill:#fff" d="M805,240 l-40,-33 -27,-41 40,43 27,31z" />
<path style="fill:#fff" d="M747,240 l-15,-12 -9,-14 14,15 10,11z" />
<path style="fill:#fff" d="M880,148 l30,25 19,29 -29,-31 -20,-23z" />
<path style="fill:#fff" d="M940,240 l-41,-33 -26,-41 40,43 27,31z" />
<path style="fill:#fff" d="M881,240 l-14,-12 -10,-14 14,15 10,11z" />
<path style="fill:#fff" d="M43,88 l10,30 6,32 -10,-36 -6,-26z" />
<path style="fill:#fff" d="M63,190 l-14,-40 -9,-45 13,50 10,35z" />
<path style="fill:#fff" d="M43,180 l-5,-14 -3,-16 5,18 3,12z" />
<path style="fill:#fff" d="M88,111 l9,29 7,33 -10,-36 -6,-26z" />
<path style="fill:#fff" d="M107,213 l-13,-41 -9,-45 13,50 9,36z" />
<path style="fill:#fff" d="M88,203 l-5,-14 -3,-16 5,17 3,13z" />
<path style="fill:#fff" d="M133,133 l9,29 7,33 -10,-36 -6,-26z" />
<path style="fill:#fff" d="M152,235 l-13,-40 -9,-45 13,50 9,35z" />
<path style="fill:#fff" d="M133,225 l-5,-14 -3,-16 5,18 3,12z" />
<path style="fill:none;stroke:#fff;stroke-width:2" d="M257,177 l-19,-15" />
<path style="fill:none;stroke:#fff;stroke-width:2" d="M265,190 l-16,-13" />
<path style="fill:none;stroke:#fff;stroke-width:2" d="M398,172 l-23,-18" />
<path style="fill:none;stroke:#fff;stroke-width:2" d="M409,189 l-21,-17" />
<path style="fill:none;stroke:#fff;stroke-width:2" d="M532,172 l-22,-18" />
<path style="fill:none;stroke:#fff;stroke-width:2" d="M543,189 l-20,-17" />
<path style="fill:none;stroke:#fff;stroke-width:2" d="M667,172 l-23,-18" />
<path style="fill:none;stroke:#fff;stroke-width:2" d="M678,189 l-21,-17" />
<path style="fill:none;stroke:#fff;stroke-width:2" d="M802,172 l-23,-18" />
<path style="fill:none;stroke:#fff;stroke-width:2" d="M812,189 l-20,-17" />
<path style="fill:none;stroke:#fff;stroke-width:2" d="M936,172 l-22,-18" />
<path style="fill:none;stroke:#fff;stroke-width:2" d="M947,189 l-20,-17" />
<path style="fill:none;stroke:#fff;stroke-width:2" d="M151,167 l-7,-22" />
<path style="fill:none;stroke:#fff;stroke-width:2" d="M155,185 l-7,-20" />
<path style="fill:none;stroke:#fff;stroke-width:2" d="M106,144 l-7,-22" />
<path style="fill:none;stroke:#fff;stroke-width:2" d="M110,162 l-7,-20" />
<path style="fill:none;stroke:#fff;stroke-width:2" d="M61,122 l-7,-22" />
<path style="fill:none;stroke:#fff;stroke-width:2" d="M65,140 l-7,-20" />
<circle style="fill:#333" cx="274" cy="257" r="5" />
<circle style="fill:#fff" cx="277" cy="256" r="2" />
<path style="fill:none;stroke:#000;stroke-width:2" d="M69,205 l0,-112 -37,-18" />
<path style="fill:none;stroke:#000;stroke-width:2" d="M114,228 l0,-112 -37,-19" />
<path style="fill:none;stroke:#000;stroke-width:2" d="M159,250 l0,-112 -38,-18" />
<path style="fill:none;stroke:#000;stroke-width:2" d="M275,241 l0,-90 -90,0" />
<path style="fill:none;stroke:#000;stroke-width:2" d="M420,252 l0,-112 -112,0" />
<path style="fill:none;stroke:#000;stroke-width:2" d="M555,252 l0,-112 -112,0" />
<path style="fill:none;stroke:#000;stroke-width:2" d="M690,252 l0,-112 -112,0" />
<path style="fill:none;stroke:#000;stroke-width:2" d="M824,252 l0,-112 -112,0" />
<path style="fill:none;stroke:#000;stroke-width:2" d="M959,252 l0,-112 -112,0" />
<path style="fill:none;stroke:#000;stroke-width:2" d="M117,73 l0,269" />
<path style="fill:none;stroke:#000;stroke-width:2" d="M73,50 l0,269" />
<path style="fill:none;stroke:#000;stroke-width:2" d="M836,95 l0,269" />
<path style="fill:none;stroke:#000;stroke-width:2" d="M701,95 l0,269" />
<path style="fill:none;stroke:#000;stroke-width:2" d="M566,95 l0,269" />
<path style="fill:none;stroke:#000;stroke-width:2" d="M432,95 l0,269" />
<path style="fill:none;stroke:#000;stroke-width:2" d="M297,95 l0,269" />
<path style="fill:none;stroke:#fff;stroke-width:2" d="M32,75 l0,112 37,18" />
<path style="fill:none;stroke:#fff;stroke-width:2" d="M77,97 l0,112 37,19" />
<path style="fill:none;stroke:#fff;stroke-width:2" d="M121,120 l0,112 38,18" />
<path style="fill:none;stroke:#fff;stroke-width:2" d="M185,151 l0,90 90,0" />
<path style="fill:none;stroke:#fff;stroke-width:2" d="M308,140 l0,112 112,0" />
<path style="fill:none;stroke:#fff;stroke-width:2" d="M443,140 l0,112 112,0" />
<path style="fill:none;stroke:#fff;stroke-width:2" d="M578,140 l0,112 112,0" />
<path style="fill:none;stroke:#fff;stroke-width:2" d="M712,140 l0,112 112,0" />
<path style="fill:none;stroke:#fff;stroke-width:2" d="M847,140 l0,112 112,0" />

</svg>
