 

<svg xmlns:agg="http://www.example.com" xmlns="http://www.w3.org/2000/svg" preserveAspectRatio="none" width="1.3033in" height="1.0750in" viewBox="0 0 999 824">

<path style="fill:#e6e6e6;stroke:#000;stroke-width:2" d="M497,103 l-13,0 0,274 13,0 0,-274z" />
<path style="fill:#9e9e9e;stroke:#000;stroke-width:2" d="M218,338 l-32,55 14,8 32,-55 -14,-8z" />
<path style="fill:#9e9e9e;stroke:#000;stroke-width:2" d="M145,305 l-24,42 13,7 24,-41 -13,-8z" />
<path style="fill:none;stroke:#000;stroke-width:2" d="M266,439 l-34,-93" />
<path style="fill:none;stroke:#000;stroke-width:2" d="M218,338 l-83,16" />
<path style="fill:none;stroke:#000;stroke-width:2" d="M121,347 l-25,-61" />
<path style="fill:none;stroke:#000;stroke-width:2" d="M79,313 l66,-8" />
<path style="fill:none;stroke:#000;stroke-width:2" d="M159,313 l27,80" />
<path style="fill:none;stroke:#000;stroke-width:2" d="M200,401 l98,-17" />
<path style="fill:#868686;stroke:#000;stroke-width:2" d="M305,370 l-261,-114 -16,27 3,5 0,151 7,0 0,-151 220,165 8,-14 -220,-163 252,108 7,-14z" />
<path style="fill:#595959;stroke:#000;stroke-width:2" d="M730,412 l-187,0 0,-101 187,0 0,101z" />
<path style="fill:none;stroke:#fc0;stroke-width:2" d="M619,380 l0,32" />
<path style="fill:none;stroke:#fc0;stroke-width:2" d="M683,380 l0,32" />
<path style="fill:none;stroke:#fc0;stroke-width:2" d="M747,380 l0,32" />
<path style="fill:none;stroke:#fc0;stroke-width:2" d="M811,380 l0,32" />
<path style="fill:none;stroke:#fc0;stroke-width:2" d="M842,380 l-247,0" />
<path style="fill:none;stroke:#fc0;stroke-width:2" d="M595,396 l247,0" />
<path style="fill:#9e9e9e;stroke:#000;stroke-width:2" d="M698,220 l-64,0 0,16 64,0 0,-16z" />
<path style="fill:#9e9e9e;stroke:#000;stroke-width:2" d="M690,140 l-47,0 0,15 47,0 0,-15z" />
<path style="fill:none;stroke:#000;stroke-width:2" d="M634,311 l64,-75" />
<path style="fill:none;stroke:#000;stroke-width:2" d="M698,220 l-55,-64" />
<path style="fill:none;stroke:#000;stroke-width:2" d="M643,140 l39,-52" />
<path style="fill:none;stroke:#000;stroke-width:2" d="M650,88 l40,52" />
<path style="fill:none;stroke:#000;stroke-width:2" d="M690,156 l-56,64" />
<path style="fill:none;stroke:#000;stroke-width:2" d="M634,236 l64,75" />
<path style="fill:#000" d="M283,523 l-28,0 0,272 28,0 0,-272z" />
<path style="fill:#000" d="M498,523 l-27,0 0,272 27,0 0,-272z" />
<path style="fill:#000" d="M702,523 l-27,0 0,272 27,0 0,-272z" />
<path style="fill:#000" d="M918,523 l-28,0 0,272 28,0 0,-272z" />
<path style="fill:none;stroke:#000;stroke-width:2" d="M470,523 l-187,144" />
<path style="fill:none;stroke:#000;stroke-width:2" d="M283,523 l187,144" />
<path style="fill:none;stroke:#000;stroke-width:2" d="M675,523 l-177,144" />
<path style="fill:none;stroke:#000;stroke-width:2" d="M498,523 l177,144" />
<path style="fill:none;stroke:#000;stroke-width:2" d="M890,523 l-188,144" />
<path style="fill:none;stroke:#000;stroke-width:2" d="M702,523 l188,144" />
<path style="fill:#353535" d="M970,523 l-767,0 0,49 767,0 0,-49z" />
<path style="fill:#9e9e9e;stroke:#000;stroke-width:2" d="M451,683 l-108,-79 -108,79 0,-16 96,-72 -96,-72 0,-16 108,77 108,-77 0,16 -96,72 96,72 0,16z" />
<path style="fill:#9e9e9e;stroke:#000;stroke-width:2" d="M694,683 l-107,-79 -108,79 0,-16 96,-72 -96,-72 0,-16 108,77 107,-77 0,16 -96,72 96,72 0,16z" />
<path style="fill:#9e9e9e;stroke:#000;stroke-width:2" d="M938,683 l-108,-79 -108,79 0,-16 96,-72 -96,-72 0,-16 108,77 108,-77 0,16 -96,72 96,72 0,16z" />
<path style="fill:#b6b6b6;stroke:#000;stroke-width:2" d="M970,507 l-767,0 0,16 767,0 0,-16z" />
<path style="fill:#747474" d="M235,795 l-32,0 0,-112 32,0 0,112z" />
<path style="fill:#747474" d="M483,795 l-32,0 0,-112 32,0 0,112z" />
<path style="fill:#747474" d="M722,795 l-32,0 0,-112 32,0 0,112z" />
<path style="fill:#747474" d="M970,795 l-32,0 0,-112 32,0 0,112z" />
<path style="fill:#b6b6b6" d="M235,523 l-32,0 0,160 32,0 0,-160z" />
<path style="fill:#b6b6b6" d="M483,523 l-32,0 0,160 32,0 0,-160z" />
<path style="fill:#b6b6b6" d="M722,523 l-32,0 0,160 32,0 0,-160z" />
<path style="fill:#b6b6b6" d="M970,523 l-32,0 0,160 32,0 0,-160z" />
<path style="fill:#9e9e9e" d="M227,795 l-16,0 0,-112 16,0 0,112z" />
<path style="fill:#9e9e9e" d="M475,795 l-17,0 0,-112 17,0 0,112z" />
<path style="fill:#9e9e9e" d="M715,795 l-17,0 0,-112 17,0 0,112z" />
<path style="fill:#9e9e9e" d="M962,795 l-16,0 0,-112 16,0 0,112z" />
<path style="fill:#fff" d="M227,523 l-16,0 0,160 16,0 0,-160z" />
<path style="fill:#fff" d="M475,523 l-17,0 0,160 17,0 0,-160z" />
<path style="fill:#fff" d="M715,523 l-17,0 0,160 17,0 0,-160z" />
<path style="fill:#fff" d="M962,523 l-16,0 0,160 16,0 0,-160z" />
<path style="fill:none;stroke:#000;stroke-width:2" d="M235,523 l-32,0 0,272 32,0 0,-272" />
<path style="fill:none;stroke:#000;stroke-width:2" d="M483,523 l-32,0 0,272 32,0 0,-272" />
<path style="fill:none;stroke:#000;stroke-width:2" d="M722,523 l-32,0 0,272 32,0 0,-272" />
<path style="fill:none;stroke:#000;stroke-width:2" d="M970,523 l-32,0 0,272 32,0 0,-272" />
<path style="fill:#6b6b6b;stroke:#000;stroke-width:2" d="M842,412 l-247,0 0,95 247,0 0,-95z" />
<path style="fill:#6b6b6b;stroke:#000;stroke-width:2" d="M595,392 l-213,0 0,115 213,0 0,-115z" />
<path style="fill:#868686;stroke:#000;stroke-width:2" d="M715,311 l-33,-283 -32,0 -32,283 16,0 32,-271 32,271 17,0z" />
<path style="fill:#b6b6b6;stroke:#000;stroke-width:2" d="M611,376 l-244,0 0,16 244,0 0,-16z" />
<path style="fill:none;stroke:#fc0;stroke-width:2" d="M611,343 l-244,0" />
<path style="fill:none;stroke:#fc0;stroke-width:2" d="M611,359 l-244,0" />
<path style="fill:none;stroke:#fc0;stroke-width:2" d="M587,343 l0,33" />
<path style="fill:none;stroke:#fc0;stroke-width:2" d="M523,343 l0,33" />
<path style="fill:none;stroke:#fc0;stroke-width:2" d="M459,343 l0,33" />
<path style="fill:none;stroke:#fc0;stroke-width:2" d="M395,343 l0,33" />
<path style="fill:#505050;stroke:#000;stroke-width:2" d="M340,466 l-110,0 0,41 110,0 0,-41z" />
<path style="fill:#7d7d7d;stroke:#000;stroke-width:2" d="M230,466 l28,-75 0,41 27,0 0,-41 -34,0 7,-14 96,0 6,82 -20,7 -110,0z" />
<path style="fill:#505050;stroke:#000;stroke-width:2" d="M340,377 l-62,0 0,-20 62,0 0,20z" />
<path style="fill:none;stroke:#fc0;stroke-width:2" d="M970,475 l-767,0" />
<path style="fill:none;stroke:#fc0;stroke-width:2" d="M970,491 l-767,0" />
<path style="fill:none;stroke:#fc0;stroke-width:2" d="M938,475 l0,32" />
<path style="fill:none;stroke:#fc0;stroke-width:2" d="M875,475 l0,32" />
<path style="fill:none;stroke:#fc0;stroke-width:2" d="M811,475 l0,32" />
<path style="fill:none;stroke:#fc0;stroke-width:2" d="M747,475 l0,32" />
<path style="fill:none;stroke:#fc0;stroke-width:2" d="M683,475 l0,32" />
<path style="fill:none;stroke:#fc0;stroke-width:2" d="M619,475 l0,32" />
<path style="fill:none;stroke:#fc0;stroke-width:2" d="M555,475 l0,32" />
<path style="fill:none;stroke:#fc0;stroke-width:2" d="M491,475 l0,32" />
<path style="fill:none;stroke:#fc0;stroke-width:2" d="M427,475 l0,32" />
<path style="fill:none;stroke:#fc0;stroke-width:2" d="M363,475 l0,32" />
<path style="fill:none;stroke:#fc0;stroke-width:2" d="M299,475 l0,32" />
<path style="fill:none;stroke:#fc0;stroke-width:2" d="M235,475 l0,32" />

</svg>
