<?xml version="1.0" encoding="utf-8"?>
<!-- Generator: Adobe Illustrator 16.0.0, SVG Export Plug-In . SVG Version: 6.00 Build 0)  -->
<!DOCTYPE svg PUBLIC "-//W3C//DTD SVG 1.1//EN" "http://www.w3.org/Graphics/SVG/1.1/DTD/svg11.dtd">
<svg version="1.1" id="图层_1" xmlns="http://www.w3.org/2000/svg" preserveAspectRatio="none" xmlns:xlink="http://www.w3.org/1999/xlink" x="0px" y="0px"
	 width="100px" height="100px" viewBox="0 0 100 100" enable-background="new 0 0 100 100" xml:space="preserve">
<g>
	<g>
		<g>
			<polygon fill="#418538" points="72.86,99.841 0,99.841 0,95.168 27.383,82.859 100.245,74.45 100.245,79.123 			"/>
			<polygon fill="#A5BE3C" points="72.86,95.168 0,95.168 27.383,74.45 100.245,74.45 			"/>
			<rect y="95.168" fill="#71B73C" width="72.86" height="4.673"/>
		</g>
	</g>
</g>
<g>
	<g>
		<rect x="18.887" y="13.481" fill="#83ADCE" width="46.553" height="78.26"/>
		<linearGradient id="SVGID_1_" gradientUnits="userSpaceOnUse" x1="42.1641" y1="91.7412" x2="42.1641" y2="68.7236">
			<stop  offset="0" style="stop-color:#B7B9BA"/>
			<stop  offset="0.0127" style="stop-color:#B9BABC"/>
			<stop  offset="0.2134" style="stop-color:#CBCCCE"/>
			<stop  offset="0.4093" style="stop-color:#D6D7D9"/>
			<stop  offset="0.5934" style="stop-color:#DADBDD"/>
		</linearGradient>
		<rect x="18.887" y="68.724" fill="url(#SVGID_1_)" width="46.553" height="23.018"/>
		<rect x="18.887" y="90.377" fill="#575757" width="46.553" height="1.364"/>
		<rect x="18.887" y="68.724" fill="#575757" width="46.553" height="1.277"/>
		<g>
			<g>
				<rect x="22.329" y="23.263" fill="#BFE3F4" width="5.36" height="5.344"/>
				<rect x="29.191" y="23.263" fill="#BFE3F4" width="5.36" height="5.344"/>
				<rect x="36.053" y="23.263" fill="#BFE3F4" width="5.36" height="5.344"/>
				<rect x="42.915" y="23.263" fill="#BFE3F4" width="5.36" height="5.344"/>
				<rect x="49.776" y="23.263" fill="#BFE3F4" width="5.361" height="5.344"/>
				<rect x="56.639" y="23.263" fill="#BFE3F4" width="5.357" height="5.344"/>
			</g>
			<g>
				<rect x="22.329" y="29.933" fill="#BFE3F4" width="5.36" height="5.343"/>
				<rect x="29.191" y="29.933" fill="#BFE3F4" width="5.36" height="5.343"/>
				<rect x="36.053" y="29.933" fill="#BFE3F4" width="5.36" height="5.343"/>
				<rect x="42.915" y="29.933" fill="#BFE3F4" width="5.36" height="5.343"/>
				<rect x="49.776" y="29.933" fill="#BFE3F4" width="5.361" height="5.343"/>
				<rect x="56.639" y="29.933" fill="#BFE3F4" width="5.357" height="5.343"/>
			</g>
			<g>
				<rect x="22.329" y="36.602" fill="#BFE3F4" width="5.36" height="5.342"/>
				<rect x="29.191" y="36.602" fill="#BFE3F4" width="5.36" height="5.342"/>
				<rect x="36.053" y="36.602" fill="#BFE3F4" width="5.36" height="5.342"/>
				<rect x="42.915" y="36.602" fill="#BFE3F4" width="5.36" height="5.342"/>
				<rect x="49.776" y="36.602" fill="#BFE3F4" width="5.361" height="5.342"/>
				<rect x="56.639" y="36.602" fill="#BFE3F4" width="5.357" height="5.342"/>
			</g>
			<g>
				<rect x="22.329" y="43.271" fill="#BFE3F4" width="5.36" height="5.343"/>
				<rect x="29.191" y="43.271" fill="#BFE3F4" width="5.36" height="5.343"/>
				<rect x="36.053" y="43.271" fill="#BFE3F4" width="5.36" height="5.343"/>
				<rect x="42.915" y="43.271" fill="#BFE3F4" width="5.36" height="5.343"/>
				<rect x="49.776" y="43.271" fill="#BFE3F4" width="5.361" height="5.343"/>
				<rect x="56.639" y="43.271" fill="#BFE3F4" width="5.357" height="5.343"/>
			</g>
			<g>
				<rect x="22.329" y="49.94" fill="#BFE3F4" width="5.36" height="5.342"/>
				<rect x="29.191" y="49.94" fill="#BFE3F4" width="5.36" height="5.342"/>
				<rect x="36.053" y="49.94" fill="#BFE3F4" width="5.36" height="5.342"/>
				<rect x="42.915" y="49.94" fill="#BFE3F4" width="5.36" height="5.342"/>
				<rect x="49.776" y="49.94" fill="#BFE3F4" width="5.361" height="5.342"/>
				<rect x="56.639" y="49.94" fill="#BFE3F4" width="5.357" height="5.342"/>
			</g>
			<g>
				<rect x="22.329" y="56.608" fill="#BFE3F4" width="5.36" height="5.344"/>
				<rect x="29.191" y="56.608" fill="#BFE3F4" width="5.36" height="5.344"/>
				<rect x="36.053" y="56.608" fill="#BFE3F4" width="5.36" height="5.344"/>
				<rect x="42.915" y="56.608" fill="#BFE3F4" width="5.36" height="5.344"/>
				<rect x="49.776" y="56.608" fill="#BFE3F4" width="5.361" height="5.344"/>
				<rect x="56.639" y="56.608" fill="#BFE3F4" width="5.357" height="5.344"/>
			</g>
			<g>
				<rect x="22.329" y="16.595" fill="#BFE3F4" width="5.36" height="5.342"/>
				<rect x="29.191" y="16.595" fill="#BFE3F4" width="5.36" height="5.342"/>
				<rect x="36.053" y="16.595" fill="#BFE3F4" width="5.36" height="5.342"/>
				<rect x="42.915" y="16.595" fill="#BFE3F4" width="5.36" height="5.342"/>
				<rect x="49.776" y="16.595" fill="#BFE3F4" width="5.361" height="5.342"/>
				<rect x="56.639" y="16.595" fill="#BFE3F4" width="5.357" height="5.342"/>
			</g>
		</g>
		<polygon fill="#557187" points="65.44,91.741 83.256,78.26 83.256,0.001 65.44,13.481 		"/>
		<polygon fill="#ABC9DD" points="18.887,13.481 36.705,0 83.256,0.001 65.44,13.481 		"/>
	</g>
	<g>
		<rect x="20.485" y="14.988" fill="#374E61" width="14.315" height="1.621"/>
		<rect x="20.485" y="66.545" fill="#374E61" width="14.315" height="1.621"/>
		<rect x="20.485" y="16.609" fill="#E3E3E3" width="14.315" height="49.936"/>
		<g>
			<path fill="#D73534" d="M24.922,24.681l0.908-0.079c0.043,0.363,0.142,0.66,0.299,0.892c0.157,0.233,0.402,0.421,0.733,0.565
				c0.329,0.143,0.702,0.214,1.115,0.214c0.367,0,0.691-0.055,0.973-0.163c0.281-0.109,0.491-0.258,0.627-0.447
				c0.138-0.19,0.207-0.397,0.207-0.621c0-0.228-0.066-0.426-0.199-0.596c-0.131-0.17-0.35-0.313-0.653-0.427
				c-0.196-0.077-0.628-0.195-1.296-0.354c-0.668-0.16-1.135-0.311-1.403-0.453c-0.347-0.182-0.606-0.406-0.776-0.675
				c-0.171-0.268-0.256-0.57-0.256-0.902c0-0.365,0.104-0.708,0.312-1.026c0.208-0.318,0.513-0.559,0.912-0.723
				c0.401-0.166,0.846-0.248,1.335-0.248c0.54,0,1.013,0.085,1.426,0.26c0.411,0.172,0.729,0.427,0.949,0.763
				c0.222,0.336,0.341,0.717,0.357,1.143l-0.922,0.069c-0.051-0.458-0.218-0.805-0.505-1.039c-0.285-0.233-0.708-0.351-1.267-0.351
				c-0.583,0-1.005,0.107-1.272,0.319c-0.267,0.212-0.399,0.469-0.399,0.769c0,0.26,0.095,0.474,0.283,0.643
				c0.186,0.169,0.669,0.34,1.451,0.517c0.783,0.176,1.319,0.331,1.61,0.461c0.424,0.194,0.735,0.441,0.938,0.74
				c0.203,0.298,0.304,0.642,0.304,1.031c0,0.386-0.112,0.748-0.333,1.09c-0.221,0.341-0.541,0.606-0.956,0.796
				c-0.414,0.188-0.881,0.284-1.401,0.284c-0.658,0-1.209-0.097-1.653-0.288c-0.446-0.19-0.795-0.478-1.046-0.862
				C25.068,25.6,24.934,25.165,24.922,24.681z"/>
			<path fill="#D73534" d="M24.413,39.16l2.793-7.247h1.038l2.976,7.247h-1.097l-0.849-2.194h-3.041l-0.798,2.194H24.413z
				 M26.512,36.184h2.465l-0.76-2.006c-0.23-0.61-0.402-1.111-0.515-1.504c-0.093,0.465-0.223,0.926-0.392,1.384L26.512,36.184z"/>
			<path fill="#D73534" d="M25.543,51.309v-7.246h0.964v6.393h3.58v0.854H25.543z"/>
			<path fill="#D73534" d="M25.103,63.461v-7.248h5.259v0.855h-4.296v2.22h4.022v0.852h-4.022v2.466h4.464v0.855H25.103z"/>
		</g>
	</g>
	<g>
		<rect x="49.216" y="14.988" fill="#374E61" width="14.315" height="1.621"/>
		<rect x="49.216" y="66.545" fill="#374E61" width="14.315" height="1.621"/>
		<rect x="49.216" y="16.609" fill="#E3E3E3" width="14.315" height="49.936"/>
		<g>
			<path fill="#D73534" d="M53.653,24.681l0.909-0.079c0.042,0.363,0.143,0.66,0.299,0.892c0.157,0.233,0.401,0.421,0.731,0.565
				c0.331,0.143,0.703,0.214,1.116,0.214c0.367,0,0.692-0.055,0.973-0.163c0.281-0.109,0.489-0.258,0.628-0.447
				c0.138-0.19,0.206-0.397,0.206-0.621c0-0.228-0.066-0.426-0.198-0.596c-0.133-0.17-0.352-0.313-0.655-0.427
				c-0.194-0.077-0.628-0.195-1.295-0.354c-0.669-0.16-1.136-0.311-1.403-0.453c-0.347-0.182-0.607-0.406-0.776-0.675
				c-0.171-0.268-0.256-0.57-0.256-0.902c0-0.365,0.105-0.708,0.313-1.026c0.207-0.318,0.512-0.559,0.911-0.723
				c0.401-0.166,0.846-0.248,1.335-0.248c0.539,0,1.014,0.085,1.427,0.26c0.41,0.172,0.728,0.427,0.949,0.763
				c0.221,0.336,0.34,0.717,0.356,1.143l-0.923,0.069c-0.05-0.458-0.217-0.805-0.503-1.039c-0.285-0.233-0.708-0.351-1.268-0.351
				c-0.582,0-1.006,0.107-1.272,0.319c-0.266,0.212-0.399,0.469-0.399,0.769c0,0.26,0.096,0.474,0.283,0.643
				c0.186,0.169,0.67,0.34,1.451,0.517c0.781,0.176,1.319,0.331,1.609,0.461c0.423,0.194,0.736,0.441,0.938,0.74
				c0.202,0.298,0.304,0.642,0.304,1.031c0,0.386-0.111,0.748-0.333,1.09c-0.221,0.341-0.54,0.606-0.956,0.796
				c-0.414,0.188-0.881,0.284-1.399,0.284c-0.659,0-1.21-0.097-1.656-0.288c-0.442-0.19-0.792-0.478-1.045-0.862
				C53.8,25.6,53.667,25.165,53.653,24.681z"/>
			<path fill="#D73534" d="M53.146,39.16l2.792-7.247h1.037l2.977,7.247h-1.096l-0.85-2.194h-3.04l-0.798,2.194H53.146z
				 M55.245,36.184h2.463l-0.758-2.006c-0.231-0.61-0.403-1.111-0.517-1.504c-0.092,0.465-0.222,0.926-0.391,1.384L55.245,36.184z"
				/>
			<path fill="#D73534" d="M54.275,51.309v-7.246h0.963v6.393h3.582v0.854H54.275z"/>
			<path fill="#D73534" d="M53.835,63.461v-7.248h5.258v0.855h-4.295v2.22h4.022v0.852h-4.022v2.466h4.464v0.855H53.835z"/>
		</g>
	</g>
	<g>
		<polygon fill="#656565" points="54.806,70.001 51.022,72.604 51.022,72.097 54.806,69.494 		"/>
		<g>
			<g>
				<linearGradient id="SVGID_2_" gradientUnits="userSpaceOnUse" x1="50.8423" y1="74.9805" x2="50.8423" y2="70.9219">
					<stop  offset="0.1923" style="stop-color:#1F1F1F"/>
					<stop  offset="0.2495" style="stop-color:#2E2E2F"/>
					<stop  offset="0.4054" style="stop-color:#535455"/>
					<stop  offset="0.5605" style="stop-color:#6F7173"/>
					<stop  offset="0.7128" style="stop-color:#848588"/>
					<stop  offset="0.8609" style="stop-color:#909295"/>
					<stop  offset="1" style="stop-color:#949699"/>
				</linearGradient>
				<path fill="url(#SVGID_2_)" d="M52.209,73.497c0,1.422-0.582,1.483-1.336,1.483c-0.755,0-1.398-0.062-1.398-1.483
					c0-1.424,0.611-2.575,1.367-2.575C51.597,70.922,52.209,72.073,52.209,73.497z"/>
				<ellipse fill="#FFFFFF" cx="50.842" cy="74.542" rx="0.957" ry="0.196"/>
			</g>
			<path fill="#898989" d="M50.004,73.815c-0.125-0.037-0.39-0.434-0.214-1.243c0.173-0.81,0.779-1.664,0.884-1.15
				C50.78,71.936,50.579,74.012,50.004,73.815z"/>
			<path fill="#FFFFFF" d="M50.071,72.96c-0.073-0.029-0.215-0.29-0.074-0.794c0.142-0.503,0.549-1.014,0.589-0.686
				C50.627,71.81,50.413,73.109,50.071,72.96z"/>
		</g>
	</g>
	<g>
		<polygon fill="#656565" points="46.399,70.001 42.616,72.604 42.616,72.097 46.399,69.494 		"/>
		<g>
			<g>
				<linearGradient id="SVGID_3_" gradientUnits="userSpaceOnUse" x1="42.4341" y1="74.9805" x2="42.4341" y2="70.9219">
					<stop  offset="0.1923" style="stop-color:#1F1F1F"/>
					<stop  offset="0.2495" style="stop-color:#2E2E2F"/>
					<stop  offset="0.4054" style="stop-color:#535455"/>
					<stop  offset="0.5605" style="stop-color:#6F7173"/>
					<stop  offset="0.7128" style="stop-color:#848588"/>
					<stop  offset="0.8609" style="stop-color:#909295"/>
					<stop  offset="1" style="stop-color:#949699"/>
				</linearGradient>
				<path fill="url(#SVGID_3_)" d="M43.802,73.497c0,1.422-0.581,1.483-1.336,1.483s-1.399-0.062-1.399-1.483
					c0-1.424,0.612-2.575,1.369-2.575C43.191,70.922,43.802,72.073,43.802,73.497z"/>
				<ellipse fill="#FFFFFF" cx="42.435" cy="74.542" rx="0.957" ry="0.196"/>
			</g>
			<path fill="#898989" d="M41.599,73.815c-0.125-0.037-0.389-0.434-0.215-1.243c0.174-0.81,0.78-1.664,0.885-1.15
				C42.373,71.936,42.173,74.012,41.599,73.815z"/>
			<path fill="#FFFFFF" d="M41.665,72.96c-0.073-0.029-0.216-0.29-0.075-0.794c0.143-0.503,0.551-1.014,0.59-0.686
				C42.221,71.81,42.005,73.109,41.665,72.96z"/>
		</g>
	</g>
	<g>
		<polygon fill="#656565" points="37.993,70.001 34.209,72.604 34.209,72.097 37.993,69.494 		"/>
		<g>
			<g>
				<linearGradient id="SVGID_4_" gradientUnits="userSpaceOnUse" x1="34.0283" y1="74.9805" x2="34.0283" y2="70.9219">
					<stop  offset="0.1923" style="stop-color:#1F1F1F"/>
					<stop  offset="0.2495" style="stop-color:#2E2E2F"/>
					<stop  offset="0.4054" style="stop-color:#535455"/>
					<stop  offset="0.5605" style="stop-color:#6F7173"/>
					<stop  offset="0.7128" style="stop-color:#848588"/>
					<stop  offset="0.8609" style="stop-color:#909295"/>
					<stop  offset="1" style="stop-color:#949699"/>
				</linearGradient>
				<path fill="url(#SVGID_4_)" d="M35.396,73.497c0,1.422-0.582,1.483-1.337,1.483c-0.754,0-1.398-0.062-1.398-1.483
					c0-1.424,0.612-2.575,1.368-2.575S35.396,72.073,35.396,73.497z"/>
				<ellipse fill="#FFFFFF" cx="34.029" cy="74.542" rx="0.958" ry="0.196"/>
			</g>
			<path fill="#898989" d="M33.192,73.815c-0.124-0.037-0.389-0.434-0.214-1.243c0.172-0.81,0.778-1.664,0.885-1.15
				C33.967,71.936,33.766,74.012,33.192,73.815z"/>
			<path fill="#FFFFFF" d="M33.259,72.96c-0.073-0.029-0.217-0.29-0.075-0.794c0.143-0.503,0.55-1.014,0.59-0.686
				C33.815,71.81,33.599,73.109,33.259,72.96z"/>
		</g>
	</g>
	<g>
		<polygon fill="#656565" points="29.587,70.001 25.804,72.604 25.804,72.097 29.587,69.494 		"/>
		<g>
			<g>
				<linearGradient id="SVGID_5_" gradientUnits="userSpaceOnUse" x1="25.6226" y1="74.9805" x2="25.6226" y2="70.9219">
					<stop  offset="0.1923" style="stop-color:#1F1F1F"/>
					<stop  offset="0.2495" style="stop-color:#2E2E2F"/>
					<stop  offset="0.4054" style="stop-color:#535455"/>
					<stop  offset="0.5605" style="stop-color:#6F7173"/>
					<stop  offset="0.7128" style="stop-color:#848588"/>
					<stop  offset="0.8609" style="stop-color:#909295"/>
					<stop  offset="1" style="stop-color:#949699"/>
				</linearGradient>
				<path fill="url(#SVGID_5_)" d="M26.99,73.497c0,1.422-0.581,1.483-1.337,1.483c-0.755,0-1.398-0.062-1.398-1.483
					c0-1.424,0.612-2.575,1.367-2.575S26.99,72.073,26.99,73.497z"/>
				<ellipse fill="#FFFFFF" cx="25.622" cy="74.542" rx="0.958" ry="0.196"/>
			</g>
			<path fill="#898989" d="M24.786,73.815c-0.125-0.037-0.39-0.434-0.215-1.243c0.174-0.81,0.78-1.664,0.885-1.15
				C25.56,71.936,25.36,74.012,24.786,73.815z"/>
			<path fill="#FFFFFF" d="M24.853,72.96c-0.073-0.029-0.216-0.29-0.074-0.794c0.142-0.503,0.549-1.014,0.589-0.686
				C25.408,71.81,25.194,73.109,24.853,72.96z"/>
		</g>
	</g>
	<g>
		<polygon fill="#656565" points="21.181,70.001 17.396,72.604 17.396,72.097 21.181,69.494 		"/>
		<g>
			<g>
				<linearGradient id="SVGID_6_" gradientUnits="userSpaceOnUse" x1="17.2153" y1="74.9805" x2="17.2153" y2="70.9219">
					<stop  offset="0.1923" style="stop-color:#1F1F1F"/>
					<stop  offset="0.2495" style="stop-color:#2E2E2F"/>
					<stop  offset="0.4054" style="stop-color:#535455"/>
					<stop  offset="0.5605" style="stop-color:#6F7173"/>
					<stop  offset="0.7128" style="stop-color:#848588"/>
					<stop  offset="0.8609" style="stop-color:#909295"/>
					<stop  offset="1" style="stop-color:#949699"/>
				</linearGradient>
				<path fill="url(#SVGID_6_)" d="M18.583,73.497c0,1.422-0.582,1.483-1.336,1.483c-0.757,0-1.399-0.062-1.399-1.483
					c0-1.424,0.612-2.575,1.369-2.575C17.971,70.922,18.583,72.073,18.583,73.497z"/>
				<ellipse fill="#FFFFFF" cx="17.216" cy="74.542" rx="0.957" ry="0.196"/>
			</g>
			<path fill="#898989" d="M16.379,73.815c-0.125-0.037-0.388-0.434-0.214-1.243c0.173-0.81,0.779-1.664,0.883-1.15
				C17.154,71.936,16.953,74.012,16.379,73.815z"/>
			<path fill="#FFFFFF" d="M16.446,72.96c-0.074-0.029-0.217-0.29-0.075-0.794c0.143-0.503,0.549-1.014,0.59-0.686
				C17.002,71.81,16.787,73.109,16.446,72.96z"/>
		</g>
	</g>
	<g>
		<polygon fill="#656565" points="63.213,70.001 59.429,72.604 59.429,72.097 63.213,69.494 		"/>
		<g>
			<g>
				<linearGradient id="SVGID_7_" gradientUnits="userSpaceOnUse" x1="59.248" y1="74.9805" x2="59.248" y2="70.9219">
					<stop  offset="0.1923" style="stop-color:#1F1F1F"/>
					<stop  offset="0.2495" style="stop-color:#2E2E2F"/>
					<stop  offset="0.4054" style="stop-color:#535455"/>
					<stop  offset="0.5605" style="stop-color:#6F7173"/>
					<stop  offset="0.7128" style="stop-color:#848588"/>
					<stop  offset="0.8609" style="stop-color:#909295"/>
					<stop  offset="1" style="stop-color:#949699"/>
				</linearGradient>
				<path fill="url(#SVGID_7_)" d="M60.616,73.497c0,1.422-0.583,1.483-1.337,1.483c-0.756,0-1.399-0.062-1.399-1.483
					c0-1.424,0.613-2.575,1.367-2.575C60.004,70.922,60.616,72.073,60.616,73.497z"/>
				<ellipse fill="#FFFFFF" cx="59.248" cy="74.542" rx="0.958" ry="0.196"/>
			</g>
			<path fill="#898989" d="M58.41,73.815c-0.123-0.037-0.389-0.434-0.214-1.243c0.173-0.81,0.778-1.664,0.886-1.15
				C59.186,71.936,58.986,74.012,58.41,73.815z"/>
			<path fill="#FFFFFF" d="M58.479,72.96c-0.074-0.029-0.217-0.29-0.076-0.794c0.143-0.503,0.55-1.014,0.59-0.686
				C59.034,71.81,58.819,73.109,58.479,72.96z"/>
		</g>
	</g>
	<g>
		<rect x="31.912" y="75.883" fill="#374E61" width="20.271" height="1.512"/>
		<rect x="32.314" y="77.491" fill="#1F1F1F" width="19.464" height="14.25"/>
		<linearGradient id="SVGID_8_" gradientUnits="userSpaceOnUse" x1="34.0552" y1="92.96" x2="50.0398" y2="76.9753">
			<stop  offset="0" style="stop-color:#A7D7DE"/>
			<stop  offset="0.2253" style="stop-color:#FFFFFF"/>
			<stop  offset="0.5769" style="stop-color:#BCE1E5"/>
			<stop  offset="0.6648" style="stop-color:#BCE1E5"/>
			<stop  offset="0.7198" style="stop-color:#BFE3E6"/>
			<stop  offset="0.8077" style="stop-color:#DBEEEF"/>
			<stop  offset="0.8846" style="stop-color:#BCE1E5"/>
			<stop  offset="0.9341" style="stop-color:#E9F5F5"/>
			<stop  offset="1" style="stop-color:#BEE2E6"/>
		</linearGradient>
		<path fill="url(#SVGID_8_)" d="M32.836,78.192c0,1.27,0,12.279,0,13.549c0.962,0,17.459,0,18.42,0c0-1.27,0-12.279,0-13.549
			C50.295,78.192,33.799,78.192,32.836,78.192z"/>
		<rect x="41.861" y="78.192" fill="#383838" width="0.37" height="13.549"/>
	</g>
</g>
</svg>
