 

<svg xmlns:agg="http://www.example.com" xmlns="http://www.w3.org/2000/svg" preserveAspectRatio="none" width="1.6083in" height="0.7148in" viewBox="0 0 999 444">

<circle style="fill:#7f7f59;stroke:#000;stroke-width:2" cx="866" cy="356" r="48" />
<circle style="fill:#99997a" cx="863" cy="354" r="42" />
<circle style="fill:#b2b29b" cx="859" cy="349" r="35" />
<path style="fill:#597f7f;stroke:#000;stroke-width:2" d="M776,416 l0,-319 14,0 0,-7 14,0 0,326 -28,0z" />
<path style="fill:#596d8c;stroke:#000;stroke-width:2" d="M565,416 l0,-139 135,0 0,-138 28,0 0,41 21,0 0,236 -184,0z" />
<path style="fill:#7f7f59;stroke:#000;stroke-width:2" d="M485,416 l0,-139 10,-14 0,-14 25,0 0,0 0,7 -17,0 0,7 10,14 0,56 28,0 0,83 -56,0z" />
<path style="fill:#b27f00;stroke:#000;stroke-width:2" d="M430,340 l0,-215 10,0 0,-14 -17,0 0,305 -7,0 0,-312 31,0 0,21 11,0 0,215 -28,0z" />
<path style="fill:#4c4c16;stroke:#000;stroke-width:2" d="M347,353 l0,-104 13,-41 0,-42 28,0 0,42 14,41 0,104 -55,0z" />
<path style="fill:#4c4c16;stroke:#000;stroke-width:2" d="M520,333 l14,0 0,-278 -14,0 0,278z" />
<path style="fill:#4c4c16;stroke:#000;stroke-width:2" d="M554,416 l0,-361 14,0 0,7 7,0 0,-34 7,0 0,41 -14,0 0,347 -14,0z" />
<path style="fill:#7a9999;stroke:#000;stroke-width:2" d="M153,416 l0,-139 13,0 0,139 -13,0z" />
<path style="fill:#7f7f59;stroke:#000;stroke-width:2" d="M225,416 l0,-167 18,0 0,167 -18,0z" />
<path style="fill:#bdcccc;stroke:#000;stroke-width:2" d="M167,416 l0,-167 6,-3 14,0 7,3 0,167 -27,0z" />
<path style="fill:#b2b29b;stroke:#000;stroke-width:2" d="M236,416 l0,-208 6,-4 14,0 7,4 0,208 -27,0z" />
<path style="fill:#263a59;stroke:#000;stroke-width:2" d="M277,416 l14,0 0,-333 -14,0 0,333z" />
<path style="fill:#960;stroke:#000;stroke-width:2" d="M458,166 l13,0 0,174 -13,0 0,-174z" />
<path style="fill:#333;stroke:#000;stroke-width:2" d="M541,374 l24,0 0,28 -24,0 0,-28z" />
<path style="fill:#263a59" d="M631,28 l14,0 0,249 -14,0 0,-249z" />
<path style="fill:#386666;stroke:#000;stroke-width:2" d="M28,416 l0,-42 69,-3 0,-7 42,-4 41,0 42,4 0,7 55,3 0,42 -249,0z" />
<path style="fill:none;stroke:#000;stroke-width:2" d="M97,371 l0,45" />
<path style="fill:none;stroke:#000;stroke-width:2" d="M222,371 l0,45" />
<path style="fill:#405473;stroke:#000;stroke-width:2" d="M291,416 l0,-56 28,-7 83,0 28,7 0,-20 55,0 0,76 -194,0z" />
<path style="fill:none;stroke:#000;stroke-width:2" d="M700,277 l49,14" />
<path style="fill:#263a59;stroke:#000;stroke-width:2" d="M735,180 l0,-55 -18,0 0,14 -7,0 0,-21 32,0 0,62 -7,0z" />
<path style="fill:#4c4c16;stroke:#000;stroke-width:2" d="M887,388 l7,0 0,28 -7,0 0,-28z" />
<path style="fill:#4c4c16;stroke:#000;stroke-width:2" d="M835,388 l7,0 0,28 -7,0 0,-28z" />
<circle style="fill:#b2b29b;stroke:#000;stroke-width:2" cx="928" cy="363" r="41" />
<circle style="fill:#b2b29b;stroke:#000;stroke-width:2" cx="790" cy="349" r="55" />
<circle style="fill:#ccccbd" cx="926" cy="361" r="36" />
<circle style="fill:#ccccbd" cx="786" cy="346" r="48" />
<circle style="fill:#e5e5dd" cx="922" cy="357" r="30" />
<circle style="fill:#e5e5dd" cx="782" cy="341" r="40" />
<path style="fill:#7f7f59;stroke:#000;stroke-width:2" d="M949,388 l7,0 0,28 -7,0 0,-28z" />
<path style="fill:#7f7f59;stroke:#000;stroke-width:2" d="M901,388 l7,0 0,28 -7,0 0,-28z" />
<path style="fill:#7f7f59;stroke:#000;stroke-width:2" d="M818,385 l7,0 0,31 -7,0 0,-31z" />
<path style="fill:#7f7f59;stroke:#000;stroke-width:2" d="M755,385 l7,0 0,31 -7,0 0,-31z" />
<path style="fill:#263a59" d="M666,166 l13,0 0,111 -13,0 0,-111z" />
<path style="fill:#d9a600" d="M575,294 l122,0 0,4 -122,0 0,-4z" />
<path style="fill:#d9a600" d="M575,312 l49,0 0,3 -49,0 0,-3z" />
<path style="fill:#d9a600" d="M606,350 l91,0 0,3 -91,0 0,-3z" />
<path style="fill:none;stroke:#fff;stroke-width:2" d="M437,346 l41,0" />
<path style="fill:none;stroke:#fff;stroke-width:2" d="M478,353 l-41,0" />
<path style="fill:none;stroke:#fff;stroke-width:2" d="M308,405 l156,0" />
<path style="fill:none;stroke:#fff;stroke-width:2" d="M308,399 l156,0" />
<path style="fill:none;stroke:#fc0;stroke-width:2" d="M208,405 l-56,0" />
<path style="fill:#fff;stroke:#fff;stroke-width:2" d="M672,166 l1,0 0,111 -1,0 0,-111z" />
<path style="fill:#fff;stroke:#fff;stroke-width:2" d="M637,28 l2,0 0,249 -2,0 0,-249z" />
<path style="fill:none;stroke:#fff;stroke-width:2" d="M284,87 l0,325" />

</svg>
