 

<svg xmlns:agg="http://www.example.com" xmlns="http://www.w3.org/2000/svg" preserveAspectRatio="none" width="1.1486in" height="1.0750in" viewBox="0 0 999 935">

<path style="fill:#999;stroke:#000;stroke-width:2" d="M341,460 l-109,-183 -28,15 105,168 32,0z" />
<path style="fill:#999;stroke:#000;stroke-width:2" d="M376,524 l295,-204 292,-292 -348,235 -264,232 25,29z" />
<path style="fill:#666;stroke:#000;stroke-width:2" d="M330,446 l-95,-154 -17,7 91,147 21,0z" />
<path style="fill:#666;stroke:#000;stroke-width:2" d="M629,277 l-10,7 31,32 11,-10 -32,-29z" />
<path style="fill:#666;stroke:#000;stroke-width:2" d="M643,260 l0,17 215,-165 -21,7 -194,141z" />
<path style="fill:#666;stroke:#000;stroke-width:2" d="M657,292 l28,0 173,-166 0,-7 -201,173z" />
<path style="fill:#666;stroke:#000;stroke-width:2" d="M397,474 l225,-175 -21,-7 -232,196 28,-14z" />
<path style="fill:#666;stroke:#000;stroke-width:2" d="M390,503 l246,-169 -7,-21 -225,168 -14,22z" />
<path style="fill:#4c4c4c;stroke:#000;stroke-width:2" d="M70,907 l299,-183 -4,-18 -334,201 39,0z" />
<path style="fill:#4c4c4c;stroke:#000;stroke-width:2" d="M379,907 l-298,-183 3,-18 334,201 -39,0z" />
<path style="fill:#333;stroke:#000;stroke-width:2" d="M362,460 l-334,0 0,95 334,0 0,-95z" />
<path style="fill:#999;stroke:#000;stroke-width:2" d="M362,590 l-18,0 0,81 18,0 0,-81z" />
<path style="fill:#999;stroke:#000;stroke-width:2" d="M362,559 l-274,0 0,31 274,0 0,-31z" />
<path style="fill:#999;stroke:#000;stroke-width:2" d="M105,590 l-17,0 0,81 17,0 0,-81z" />
<path style="fill:#999;stroke:#000;stroke-width:2" d="M362,671 l-274,0 0,28 274,0 0,-28z" />
<path style="fill:#666;stroke:#000;stroke-width:2" d="M418,907 l-53,-201 -281,0 -53,201 39,0 39,-169 232,0 38,169 39,0z" />
<path style="fill:#4c4c4c;stroke:#000;stroke-width:2" d="M292,590 l-25,0 0,22 25,0 0,-22z" />
<path style="fill:#4c4c4c;stroke:#000;stroke-width:2" d="M242,590 l-24,0 0,22 24,0 0,-22z" />
<path style="fill:#4c4c4c;stroke:#000;stroke-width:2" d="M341,612 l-173,0 0,59 173,0 0,-59z" />
<path style="fill:#000;stroke:#000;stroke-width:2" d="M362,524 l0,28 9,-2 7,-3 8,-8 3,-10 1,-5 -1,-9 -5,-10 -8,-6 -8,-3 -6,-1 0,29z" />
<path style="fill:none;stroke:#000;stroke-width:2" d="M232,277 l731,-249 -759,264" />
<path style="fill:none;stroke:#000;stroke-width:2" d="M963,28 l0,70" />
<path style="fill:none;stroke:#000;stroke-width:2" d="M970,161 l0,-56" />
<path style="fill:none;stroke:#000;stroke-width:2" d="M956,105 l0,56" />
<path style="fill:none;stroke:#000;stroke-width:2" d="M963,168 l0,2 0,1 0,2 0,1 0,2 0,2 0,2 0,2 0,3 -1,1 -1,1 -1,1 -2,-1 -1,-1 -1,-1 0,-3 0,-1 0,-1 0,-1 0,-1 0,-1 0,-1 0,0 0,-1" />
<path style="fill:#666" d="M330,474 l-169,0 0,21 169,0 0,-21z" />
<path style="fill:#4c4c4c;stroke:#000;stroke-width:2" d="M204,292 l-162,168 21,0 134,-140 -85,140 21,0 85,-147 -14,-21z" />
<path style="fill:#000;stroke:#000;stroke-width:2" d="M963,98 l-7,6 0,1 6,7 1,0 7,-6 0,-1 -5,-7 -2,0z" />
<path style="fill:#000;stroke:#000;stroke-width:2" d="M963,154 l-7,6 0,1 6,7 1,0 7,-5 0,-2 -5,-7 -2,0z" />

</svg>
