 

<svg xmlns:agg="http://www.example.com" xmlns="http://www.w3.org/2000/svg" preserveAspectRatio="none" width="1.5408in" height="1.0750in" viewBox="0 0 999 697">

<path style="fill:#633;stroke:#000;stroke-width:2" d="M115,143 l-76,-47 13,0 63,39 14,0 60,-39 14,0 -74,47 -14,0z" />
<path style="fill:#633;stroke:#000;stroke-width:2" d="M115,228 l-76,-50 13,0 63,39 14,0 60,-39 14,0 -74,50 -14,0z" />
<path style="fill:#633;stroke:#000;stroke-width:2" d="M110,47 l25,0 0,622 -25,0 0,-622z" />
<path style="fill:#963;stroke:#000;stroke-width:2" d="M28,165 l183,0 0,13 -183,0 0,-13z" />
<path style="fill:#963;stroke:#000;stroke-width:2" d="M28,80 l183,0 0,16 -183,0 0,-16z" />
<path style="fill:none;stroke:#000;stroke-width:2" d="M39,165 l0,-22" />
<path style="fill:none;stroke:#000;stroke-width:2" d="M33,159 l8,0" />
<path style="fill:none;stroke:#000;stroke-width:2" d="M41,154 l-8,0" />
<path style="fill:none;stroke:#000;stroke-width:2" d="M33,148 l8,0" />
<path style="fill:none;stroke:#000;stroke-width:2" d="M52,165 l0,-22" />
<path style="fill:none;stroke:#000;stroke-width:2" d="M47,159 l11,0" />
<path style="fill:none;stroke:#000;stroke-width:2" d="M58,154 l-11,0" />
<path style="fill:none;stroke:#000;stroke-width:2" d="M47,148 l11,0" />
<path style="fill:none;stroke:#000;stroke-width:2" d="M192,165 l0,-22" />
<path style="fill:none;stroke:#000;stroke-width:2" d="M189,159 l9,0" />
<path style="fill:none;stroke:#000;stroke-width:2" d="M198,154 l-9,0" />
<path style="fill:none;stroke:#000;stroke-width:2" d="M189,148 l9,0" />
<path style="fill:none;stroke:#000;stroke-width:2" d="M209,165 l0,-22" />
<path style="fill:none;stroke:#000;stroke-width:2" d="M203,159 l8,0" />
<path style="fill:none;stroke:#000;stroke-width:2" d="M211,154 l-8,0" />
<path style="fill:none;stroke:#000;stroke-width:2" d="M203,148 l8,0" />
<path style="fill:none;stroke:#000;stroke-width:2" d="M61,173 l117,0" />
<path style="fill:none;stroke:#000;stroke-width:2" d="M203,80 l48,15 48,13 47,11 48,9 48,7 47,5 48,3 48,1 48,-1 47,-3 48,-5 49,-7 48,-9 48,-11 49,-13 24,-7 24,-8" />
<path style="fill:none;stroke:#000;stroke-width:2" d="M189,80 l48,15 48,13 48,11 47,9 48,7 47,5 48,3 48,1 48,-1 48,-3 48,-5 48,-7 48,-9 48,-11 49,-13 24,-7 25,-8" />
<path style="fill:none;stroke:#000;stroke-width:2" d="M52,80 l48,15 48,13 48,11 47,9 48,7 48,5 47,3 48,1 48,-1 48,-3 48,-5 48,-7 48,-9 48,-11 49,-13 24,-7 25,-8" />
<path style="fill:none;stroke:#000;stroke-width:2" d="M39,80 l47,15 48,13 48,11 47,9 48,7 48,5 47,3 48,1 48,-1 48,-3 48,-5 48,-7 48,-9 49,-11 48,-13 25,-7 24,-8" />
<path style="fill:none;stroke:#000;stroke-width:2" d="M39,82 l0,-21" />
<path style="fill:none;stroke:#000;stroke-width:2" d="M44,77 l-11,0" />
<path style="fill:none;stroke:#000;stroke-width:2" d="M33,72 l11,0" />
<path style="fill:none;stroke:#000;stroke-width:2" d="M44,66 l-11,0" />
<path style="fill:none;stroke:#000;stroke-width:2" d="M52,82 l0,-21" />
<path style="fill:none;stroke:#000;stroke-width:2" d="M55,77 l-5,0" />
<path style="fill:none;stroke:#000;stroke-width:2" d="M50,72 l5,0" />
<path style="fill:none;stroke:#000;stroke-width:2" d="M55,66 l-5,0" />
<path style="fill:none;stroke:#000;stroke-width:2" d="M187,82 l0,-21" />
<path style="fill:none;stroke:#000;stroke-width:2" d="M192,77 l-8,0" />
<path style="fill:none;stroke:#000;stroke-width:2" d="M184,72 l8,0" />
<path style="fill:none;stroke:#000;stroke-width:2" d="M192,66 l-8,0" />
<path style="fill:none;stroke:#000;stroke-width:2" d="M203,82 l0,-21" />
<path style="fill:none;stroke:#000;stroke-width:2" d="M209,77 l-11,0" />
<path style="fill:none;stroke:#000;stroke-width:2" d="M198,72 l11,0" />
<path style="fill:none;stroke:#000;stroke-width:2" d="M209,66 l-11,0" />
<path style="fill:none;stroke:#000;stroke-width:2" d="M115,47 l0,-19" />
<path style="fill:none;stroke:#000;stroke-width:2" d="M121,41 l-11,0" />
<path style="fill:none;stroke:#000;stroke-width:2" d="M110,39 l11,0" />
<path style="fill:none;stroke:#000;stroke-width:2" d="M121,33 l-11,0" />
<path style="fill:none;stroke:#000;stroke-width:2" d="M132,47 l0,-19" />
<path style="fill:none;stroke:#000;stroke-width:2" d="M135,41 l-9,0" />
<path style="fill:none;stroke:#000;stroke-width:2" d="M126,39 l9,0" />
<path style="fill:none;stroke:#000;stroke-width:2" d="M135,33 l-9,0" />
<path style="fill:none;stroke:#000;stroke-width:2" d="M126,631 l0,-414" />
<path style="fill:none;stroke:#000;stroke-width:2" d="M61,91 l117,0" />
<path style="fill:none;stroke:#000;stroke-width:2" d="M203,165 l48,14 48,13 47,10 48,9 48,7 47,5 48,2 48,1 48,-1 47,-2 48,-5 49,-7 48,-9 48,-10 49,-13 48,-14" />
<path style="fill:none;stroke:#000;stroke-width:2" d="M189,165 l48,14 48,13 48,10 47,9 48,7 47,5 48,2 48,1 48,-1 48,-2 48,-5 48,-7 48,-9 48,-10 49,-13 49,-14" />
<path style="fill:none;stroke:#000;stroke-width:2" d="M52,165 l48,14 48,13 48,10 47,9 48,7 48,5 47,2 48,1 48,-1 48,-2 48,-5 48,-7 48,-9 48,-10 49,-13 49,-14" />
<path style="fill:none;stroke:#000;stroke-width:2" d="M39,165 l47,14 48,13 48,10 47,9 48,7 48,5 47,2 48,1 48,-1 48,-2 48,-5 48,-7 48,-9 49,-10 48,-13 49,-14" />

</svg>
