 

<svg xmlns:agg="http://www.example.com" xmlns="http://www.w3.org/2000/svg" preserveAspectRatio="none" width="1.5415in" height="1.0750in" viewBox="0 0 998 696">

<path style="fill:#633;stroke:#000;stroke-width:2" d="M115,143 l-77,-49 13,0 64,39 15,0 59,-39 13,0 -72,49 -15,0z" />
<path style="fill:#633;stroke:#000;stroke-width:2" d="M110,46 l25,0 0,622 -25,0 0,-622z" />
<path style="fill:#963;stroke:#000;stroke-width:2" d="M28,82 l184,0 0,12 -184,0 0,-12z" />
<path style="fill:none;stroke:#000;stroke-width:2" d="M202,82 l48,14 48,12 48,11 47,9 48,6 48,5 47,3 48,1 48,-1 48,-3 48,-5 48,-6 48,-9 49,-11 48,-12 25,-7 24,-7" />
<path style="fill:none;stroke:#000;stroke-width:2" d="M189,82 l48,14 47,12 48,11 47,9 48,6 48,5 47,3 48,1 48,-1 48,-3 48,-5 48,-6 48,-9 48,-11 49,-12 48,-14" />
<path style="fill:none;stroke:#000;stroke-width:2" d="M51,82 l48,14 48,12 48,11 48,9 47,6 48,5 48,3 48,1 48,-1 48,-3 48,-5 48,-6 48,-9 48,-11 49,-12 48,-14" />
<path style="fill:none;stroke:#000;stroke-width:2" d="M38,82 l48,14 48,12 48,11 47,9 48,6 48,5 47,3 48,1 48,-1 47,-3 48,-5 48,-6 48,-9 48,-11 48,-12 49,-14" />
<path style="fill:none;stroke:#000;stroke-width:2" d="M38,82 l0,-21" />
<path style="fill:none;stroke:#000;stroke-width:2" d="M43,76 l-10,0" />
<path style="fill:none;stroke:#000;stroke-width:2" d="M33,71 l10,0" />
<path style="fill:none;stroke:#000;stroke-width:2" d="M43,66 l-10,0" />
<path style="fill:none;stroke:#000;stroke-width:2" d="M51,82 l0,-21" />
<path style="fill:none;stroke:#000;stroke-width:2" d="M56,76 l-8,0" />
<path style="fill:none;stroke:#000;stroke-width:2" d="M48,71 l8,0" />
<path style="fill:none;stroke:#000;stroke-width:2" d="M56,66 l-8,0" />
<path style="fill:none;stroke:#000;stroke-width:2" d="M187,82 l0,-21" />
<path style="fill:none;stroke:#000;stroke-width:2" d="M192,76 l-8,0" />
<path style="fill:none;stroke:#000;stroke-width:2" d="M184,71 l8,0" />
<path style="fill:none;stroke:#000;stroke-width:2" d="M192,66 l-8,0" />
<path style="fill:none;stroke:#000;stroke-width:2" d="M202,82 l0,-21" />
<path style="fill:none;stroke:#000;stroke-width:2" d="M207,76 l-10,0" />
<path style="fill:none;stroke:#000;stroke-width:2" d="M197,71 l10,0" />
<path style="fill:none;stroke:#000;stroke-width:2" d="M207,66 l-10,0" />
<path style="fill:none;stroke:#000;stroke-width:2" d="M115,48 l0,-20" />
<path style="fill:none;stroke:#000;stroke-width:2" d="M120,43 l-10,0" />
<path style="fill:none;stroke:#000;stroke-width:2" d="M110,38 l10,0" />
<path style="fill:none;stroke:#000;stroke-width:2" d="M120,33 l-10,0" />
<path style="fill:none;stroke:#000;stroke-width:2" d="M130,48 l0,-20" />
<path style="fill:none;stroke:#000;stroke-width:2" d="M135,43 l-10,0" />
<path style="fill:none;stroke:#000;stroke-width:2" d="M125,38 l10,0" />
<path style="fill:none;stroke:#000;stroke-width:2" d="M135,33 l-10,0" />
<path style="fill:none;stroke:#000;stroke-width:2" d="M125,630 l0,-413" />
<path style="fill:none;stroke:#000;stroke-width:2" d="M61,92 l118,0" />

</svg>
