 

<svg xmlns:agg="http://www.example.com" xmlns="http://www.w3.org/2000/svg" preserveAspectRatio="none" width="1.4075in" height="1.0750in" viewBox="0 0 999 763">

<path style="fill:#505050;stroke:#000;stroke-width:2" d="M28,578 l0,-472 628,0 314,157 0,472 -29,-20 0,-422 -255,-128 0,423 -30,-10 -39,0 0,-433 -550,0 0,433 -39,0z" />
<path style="fill:none;stroke:#000;stroke-width:2" d="M941,715 l-255,-550" />
<path style="fill:none;stroke:#000;stroke-width:2" d="M686,588 l255,-295" />
<path style="fill:none;stroke:#000;stroke-width:2" d="M616,578 l-549,-433" />
<path style="fill:none;stroke:#000;stroke-width:2" d="M67,578 l549,-433" />
<path style="fill:#cecece;stroke:#000;stroke-width:2" d="M970,263 l-314,-157 -628,0 314,157 628,0z" />
<path style="fill:none;stroke:#7f7f7f;stroke-width:2" d="M931,735 l-550,-433" />
<path style="fill:none;stroke:#7f7f7f;stroke-width:2" d="M381,735 l550,-433" />
<path style="fill:none;stroke:#7f7f7f;stroke-width:2" d="M312,715 l-255,-560" />
<path style="fill:none;stroke:#7f7f7f;stroke-width:2" d="M57,597 l255,-304" />
<path style="fill:#868686;stroke:#000;stroke-width:2" d="M970,735 l0,-472 -628,0 -314,-157 0,472 29,19 0,-442 255,138 0,422 30,20 39,0 0,-433 550,0 0,433 39,0z" />
<path style="fill:none;stroke:#fc0;stroke-width:2" d="M813,263 l0,-78" />
<path style="fill:none;stroke:#fc0;stroke-width:2" d="M499,263 l0,-78" />
<path style="fill:none;stroke:#fc0;stroke-width:2" d="M970,224 l-314,-157 -628,0 314,157 628,0" />
<path style="fill:none;stroke:#fc0;stroke-width:2" d="M970,185 l-314,-157 -628,0 314,157 628,0" />
<path style="fill:none;stroke:#fc0;stroke-width:2" d="M892,224 l0,-79" />
<path style="fill:none;stroke:#fc0;stroke-width:2" d="M735,145 l0,-78" />
<path style="fill:none;stroke:#fc0;stroke-width:2" d="M499,106 l0,-78" />
<path style="fill:none;stroke:#fc0;stroke-width:2" d="M185,106 l0,-78" />
<path style="fill:none;stroke:#fc0;stroke-width:2" d="M106,145 l0,-78" />
<path style="fill:none;stroke:#fc0;stroke-width:2" d="M263,224 l0,-79" />

</svg>
