 

<svg xmlns:agg="http://www.example.com" xmlns="http://www.w3.org/2000/svg" preserveAspectRatio="none" width="1.6005in" height="1.0750in" viewBox="0 0 999 671">

<path style="fill:#505050" d="M579,413 l-4,0 0,210 4,0 0,-210z" />
<path style="fill:#505050" d="M755,496 l-4,0 0,127 4,0 0,-127z" />
<path style="fill:#505050" d="M941,584 l-5,0 0,39 5,0 0,-39z" />
<path style="fill:#505050" d="M599,486 l0,-5 -19,0 0,5 19,0z" />
<path style="fill:#505050" d="M775,562 l0,-5 -20,0 0,5 20,0z" />
<path style="fill:#505050" d="M599,562 l0,-5 -19,0 0,5 19,0z" />
<path style="fill:#000" d="M599,403 l-5,0 0,210 5,0 0,-210z" />
<path style="fill:#000" d="M775,486 l-5,0 0,127 5,0 0,-127z" />
<path style="fill:#000" d="M960,574 l-4,0 0,39 4,0 0,-39z" />
<path style="fill:#6b6b6b;stroke:#000;stroke-width:2" d="M438,32 l-20,557 39,5 39,-5 -19,-557 -20,-4 -19,4z" />
<path style="fill:#929292" d="M450,32 l-7,557 14,5 15,-5 -7,-557 -8,-4 -7,4z" />
<path style="fill:#353535;stroke:#000;stroke-width:2" d="M491,286 l-68,0 0,5 68,0 0,-5z" />
<path style="fill:#353535;stroke:#000;stroke-width:2" d="M491,237 l-68,0 0,5 68,0 0,-5z" />
<path style="fill:#353535;stroke:#000;stroke-width:2" d="M487,184 l-59,0 0,5 59,0 0,-5z" />
<path style="fill:#353535;stroke:#000;stroke-width:2" d="M482,42 l-49,0 0,5 49,0 0,-5z" />
<path style="fill:#000" d="M506,491 l-4,0 0,108 4,0 0,-108z" />
<path style="fill:#000" d="M545,491 l-4,0 0,108 4,0 0,-108z" />
<path style="fill:#000" d="M467,535 l0,5 74,0 0,-5 -74,0z" />
<path style="fill:#505050;stroke:#000;stroke-width:2" d="M293,624 l0,-91 -137,0 0,91 91,-9 46,9z" />
<path style="fill:#868686;stroke:#000;stroke-width:2" d="M467,606 l0,-330 -64,-9 0,101 -64,0 0,-37 -46,0 0,110 -46,0 0,92 46,0 0,91 174,-18z" />
<path style="fill:#b6b6b6;stroke:#000;stroke-width:2" d="M247,441 l-219,0 0,174 128,9 0,-91 91,0 0,-92z" />
<path style="fill:#ababab;stroke:#000;stroke-width:2" d="M227,441 l66,0 0,-110 -119,0 0,110 53,0z" />
<path style="fill:#ababab;stroke:#000;stroke-width:2" d="M339,368 l37,0 0,-110 -165,0 0,73 128,0 0,37z" />
<path style="fill:#505050" d="M366,313 l-146,0 0,9 146,0 0,-9z" />
<path style="fill:#505050" d="M458,315 l-73,-3 0,9 73,3 0,-9z" />
<path style="fill:#929292;stroke:#000;stroke-width:2" d="M376,368 l27,0 0,-110 -27,0 0,110z" />
<path style="fill:#505050" d="M330,350 l-28,0 0,9 28,0 0,-9z" />
<path style="fill:#505050" d="M284,350 l-101,0 0,9 101,0 0,-9z" />
<path style="fill:none;stroke:#000;stroke-width:2" d="M247,533 l0,82" />
<path style="fill:#505050" d="M147,570 l-110,-4 0,9 109,4 1,-9z" />
<path style="fill:#e6e6e6;stroke:#000;stroke-width:2" d="M220,441 l-8,-4 -8,4 16,0z" />
<path style="fill:#e6e6e6;stroke:#000;stroke-width:2" d="M189,441 l-8,-4 -8,4 16,0z" />
<path style="fill:#e6e6e6;stroke:#000;stroke-width:2" d="M158,441 l-8,-4 -8,4 16,0z" />
<path style="fill:#e6e6e6;stroke:#000;stroke-width:2" d="M127,441 l-8,-4 -8,4 16,0z" />
<path style="fill:#e6e6e6;stroke:#000;stroke-width:2" d="M96,441 l-8,-4 -8,4 16,0z" />
<path style="fill:#6b6b6b" d="M205,295 l-4,0 0,36 4,0 0,-36z" />
<path style="fill:#6b6b6b" d="M227,304 l-5,0 0,27 5,0 0,-27z" />
<path style="fill:#6b6b6b" d="M269,318 l-4,0 0,13 4,0 0,-13z" />
<path style="fill:#6b6b6b" d="M286,295 l-5,0 0,36 5,0 0,-36z" />
<path style="fill:#6b6b6b" d="M302,304 l-4,0 0,27 4,0 0,-27z" />
<path style="fill:#868686" d="M366,254 l-4,0 0,4 4,0 0,-4z" />
<path style="fill:#868686" d="M334,254 l-4,0 0,4 4,0 0,-4z" />
<path style="fill:#868686" d="M350,254 l-4,0 0,4 4,0 0,-4z" />
<path style="fill:#868686" d="M302,254 l-4,0 0,4 4,0 0,-4z" />
<path style="fill:#868686" d="M318,254 l-4,0 0,4 4,0 0,-4z" />
<path style="fill:#868686" d="M270,254 l-4,0 0,4 4,0 0,-4z" />
<path style="fill:#868686" d="M286,254 l-4,0 0,4 4,0 0,-4z" />
<path style="fill:#868686" d="M254,254 l-4,0 0,4 4,0 0,-4z" />
<path style="fill:#797979" d="M296,622 l0,-91 -46,0 0,-16 215,-80 0,169 -169,18z" />
<path style="fill:#6b6b6b" d="M296,622 l2,-73 167,-62 0,117 -169,18z" />
<path style="fill:#505050" d="M384,569 l-82,5 1,9 82,-5 -1,-9z" />
<path style="fill:#505050" d="M457,565 l-63,4 0,9 64,-4 -1,-9z" />
<path style="fill:#353535" d="M403,368 l-5,0 0,256 5,0 0,-256z" />
<path style="fill:#353535" d="M398,435 l-96,0 0,4 96,0 0,-4z" />
<path style="fill:#353535" d="M398,494 l-57,0 0,5 57,0 0,-5z" />
<path style="fill:#000" d="M371,368 l-5,0 0,252 5,0 0,-252z" />
<path style="fill:none;stroke:#7f7f7f;stroke-width:2" d="M76,533 l63,87" />
<path style="fill:none;stroke:#7f7f7f;stroke-width:2" d="M90,533 l64,89" />
<path style="fill:none;stroke:#7f7f7f;stroke-width:2" d="M105,533 l64,91" />
<path style="fill:none;stroke:#7f7f7f;stroke-width:2" d="M120,533 l63,94" />
<path style="fill:none;stroke:#7f7f7f;stroke-width:2" d="M184,533 l-65,84" />
<path style="fill:none;stroke:#7f7f7f;stroke-width:2" d="M169,533 l-64,82" />
<path style="fill:none;stroke:#7f7f7f;stroke-width:2" d="M155,533 l-65,80" />
<path style="fill:none;stroke:#7f7f7f;stroke-width:2" d="M140,533 l-64,78" />
<path style="fill:none;stroke:#7f7f7f;stroke-width:2" d="M387,533 l-64,87" />
<path style="fill:none;stroke:#7f7f7f;stroke-width:2" d="M372,533 l-63,89" />
<path style="fill:none;stroke:#7f7f7f;stroke-width:2" d="M358,533 l-64,91" />
<path style="fill:none;stroke:#7f7f7f;stroke-width:2" d="M343,533 l-63,94" />
<path style="fill:none;stroke:#7f7f7f;stroke-width:2" d="M279,533 l64,84" />
<path style="fill:none;stroke:#7f7f7f;stroke-width:2" d="M294,533 l64,82" />
<path style="fill:none;stroke:#7f7f7f;stroke-width:2" d="M308,533 l65,80" />
<path style="fill:none;stroke:#7f7f7f;stroke-width:2" d="M323,533 l64,78" />
<path style="fill:none;stroke:#000;stroke-width:2" d="M128,634 l0,-119" />
<path style="fill:none;stroke:#000;stroke-width:2" d="M69,627 l0,-112 130,0 0,128 -130,-16" />
<path style="fill:none;stroke:#000;stroke-width:2" d="M394,627 l0,-112 -131,0 0,128 131,-16" />
<path style="fill:none;stroke:#000;stroke-width:2" d="M334,634 l0,-119" />
<path style="fill:#c2c2c2;stroke:#000;stroke-width:2" d="M467,447 l54,0 0,44 -54,0 0,-44z" />
<path style="fill:#868686;stroke:#000;stroke-width:2" d="M545,447 l-24,0 0,44 24,0 0,-44z" />
<path style="fill:#505050" d="M486,491 l-4,0 0,113 4,0 0,-113z" />
<path style="fill:#505050" d="M526,491 l-5,0 0,113 5,0 0,-113z" />
<path style="fill:#505050" d="M467,545 l0,5 54,0 0,-5 -54,0z" />
<path style="fill:#797979" d="M400,291 l-19,0 0,28 19,0 0,-28z" />
<path style="fill:#505050;stroke:#000;stroke-width:2" d="M379,321 l25,0 0,-10 566,268 0,10 -14,5 -577,-273z" />
<path style="fill:#cecece;stroke:#000;stroke-width:2" d="M379,321 l577,273 0,-10 -577,-273 0,10z" />

</svg>
