 

<svg xmlns:agg="http://www.example.com" xmlns="http://www.w3.org/2000/svg" preserveAspectRatio="none" width="1.5701in" height="1.0750in" viewBox="0 0 999 684">

<path style="fill:#000;stroke:#000;stroke-width:2" d="M35,249 l5,-5 18,15 -5,5 -18,-15z" />
<path style="fill:#000;stroke:#000;stroke-width:2" d="M55,259 l5,5 15,-15 -5,-5 -15,15z" />
<path style="fill:#000;stroke:#000;stroke-width:2" d="M138,249 l5,-5 15,15 -5,5 -15,-15z" />
<path style="fill:#000;stroke:#000;stroke-width:2" d="M158,259 l5,5 16,-15 -5,-5 -16,15z" />
<path style="fill:#000;stroke:#000;stroke-width:2" d="M28,148 l7,0 0,23 -7,0 0,-23z" />
<path style="fill:#000;stroke:#000;stroke-width:2" d="M181,148 l8,0 0,23 -8,0 0,-23z" />
<path style="fill:#000;stroke:#000;stroke-width:2" d="M35,75 l5,-7 18,17 -5,6 -18,-16z" />
<path style="fill:#000;stroke:#000;stroke-width:2" d="M55,85 l5,6 15,-16 -5,-7 -15,17z" />
<path style="fill:#000;stroke:#000;stroke-width:2" d="M138,75 l5,-7 15,17 -5,6 -15,-16z" />
<path style="fill:#000;stroke:#000;stroke-width:2" d="M158,85 l5,6 16,-16 -5,-7 -16,17z" />
<path style="fill:none;stroke:#000;stroke-width:2" d="M186,174 l49,9 50,9 49,7 50,6 49,4 50,3 49,2 49,1 49,-1 49,-2 49,-3 49,-4 48,-6 49,-7 48,-9 48,-9" />
<path style="fill:none;stroke:#000;stroke-width:2" d="M156,266 l49,10 50,8 49,7 50,5 49,4 50,4 49,1 49,1 49,-1 50,-1 49,-4 49,-4 49,-5 48,-7 49,-8 49,-10" />
<path style="fill:none;stroke:#000;stroke-width:2" d="M156,93 l49,9 50,8 49,7 50,6 49,4 50,3 49,2 49,1 49,-1 50,-2 49,-3 49,-4 49,-6 48,-7 49,-8 49,-9" />
<path style="fill:none;stroke:#000;stroke-width:2" d="M85,174 l50,9 49,9 50,7 49,6 50,4 49,3 49,2 49,1 50,-1 48,-2 49,-3 49,-4 49,-6 48,-7 49,-9 48,-9" />
<path style="fill:none;stroke:#000;stroke-width:2" d="M55,266 l50,10 50,8 50,7 50,5 49,4 50,4 49,1 50,1 49,-1 49,-1 49,-4 48,-4 49,-5 49,-7 48,-8 48,-10" />
<path style="fill:none;stroke:#000;stroke-width:2" d="M55,93 l50,9 50,8 50,7 50,6 49,4 50,3 49,2 50,1 49,-1 49,-2 49,-3 48,-4 49,-6 49,-7 48,-8 48,-9" />
<path style="fill:none;stroke:#000;stroke-width:2" d="M35,241 l23,23 20,-23" />
<path style="fill:none;stroke:#000;stroke-width:2" d="M138,241 l20,23 23,-23" />
<path style="fill:none;stroke:#000;stroke-width:2" d="M30,146 l0,2" />
<path style="fill:none;stroke:#000;stroke-width:2" d="M186,146 l0,2" />
<path style="fill:none;stroke:#000;stroke-width:2" d="M138,65 l20,23 23,-23" />
<path style="fill:none;stroke:#000;stroke-width:2" d="M35,65 l23,23 20,-23" />
<path style="fill:none;stroke:#000;stroke-width:2" d="M78,65 l60,0 0,176 -60,0 0,-176" />
<path style="fill:none;stroke:#000;stroke-width:2" d="M35,241 l45,5 56,0 45,-5" />
<path style="fill:none;stroke:#000;stroke-width:2" d="M181,241 l-146,0 45,-27 56,0 45,27" />
<path style="fill:none;stroke:#000;stroke-width:2" d="M30,146 l48,2 60,0 48,-2" />
<path style="fill:none;stroke:#000;stroke-width:2" d="M186,146 l-156,0 48,-30 60,0 48,30" />
<path style="fill:none;stroke:#000;stroke-width:2" d="M138,241 l-60,-47 60,-48 -60,-50 60,-48 0,17" />
<path style="fill:none;stroke:#000;stroke-width:2" d="M78,241 l60,-47 -60,-48 60,-50 -60,-48 0,17" />
<path style="fill:none;stroke:#000;stroke-width:2" d="M186,28 l-156,0 78,37 78,-37" />
<path style="fill:none;stroke:#000;stroke-width:2" d="M181,65 l-146,0 73,-37 73,37" />
<path style="fill:none;stroke:#000;stroke-width:2" d="M35,65 l43,-37 30,37 43,-37 30,37" />
<path style="fill:none;stroke:#000;stroke-width:2" d="M78,194 l60,0" />
<path style="fill:none;stroke:#000;stroke-width:2" d="M78,96 l60,0" />
<path style="fill:none;stroke:#000;stroke-width:2" d="M78,48 l60,0" />
<path style="fill:none;stroke:#000;stroke-width:2" d="M33,656 l45,-415 60,0 48,415 -138,-138 105,-108 -83,-83 68,-71 -60,0 68,71 -83,83 105,108 -135,138" />
<path style="fill:none;stroke:#000;stroke-width:2" d="M70,327 l76,0" />
<path style="fill:none;stroke:#000;stroke-width:2" d="M63,410 l90,0" />
<path style="fill:none;stroke:#000;stroke-width:2" d="M48,518 l120,0" />

</svg>
