 

<svg xmlns:agg="http://www.example.com" xmlns="http://www.w3.org/2000/svg" preserveAspectRatio="none" width="0.1453in" height="1.0750in" viewBox="0 0 135 999">

<path style="fill:#4c4c4c" d="M107,970 l-15,-942 -49,0 -15,942 79,0z" />
<path style="fill:#999" d="M103,970 l-15,-942 -41,0 -12,942 68,0z" />
<path style="fill:#b2b2b2" d="M92,970 l-8,-942 -26,0 -11,942 45,0z" />
<path style="fill:#e5e5e5" d="M84,970 l-4,-942 -11,0 -4,942 19,0z" />
<path style="fill:none;stroke:#000;stroke-width:2" d="M107,970 l-15,-942 -49,0 -15,942 79,0" />
<path style="fill:none;stroke:#000;stroke-width:2" d="M92,28 l-49,0 0,7 49,0 0,-7" />
<path style="fill:none;stroke:#000;stroke-width:2" d="M92,35 l-49,0 0,12 49,0 0,-12" />
<path style="fill:none;stroke:#000;stroke-width:2" d="M92,47 l-49,0 0,11 49,0 0,-11" />
<path style="fill:none;stroke:#000;stroke-width:2" d="M92,58 l-49,0 0,11 49,0 0,-11" />

</svg>
