<?xml version="1.0" encoding="utf-8"?>
<!-- Generator: Adobe Illustrator 16.0.0, SVG Export Plug-In . SVG Version: 6.00 Build 0)  -->
<!DOCTYPE svg PUBLIC "-//W3C//DTD SVG 1.1//EN" "http://www.w3.org/Graphics/SVG/1.1/DTD/svg11.dtd">
<svg version="1.1" id="图层_1" xmlns="http://www.w3.org/2000/svg" preserveAspectRatio="none" xmlns:xlink="http://www.w3.org/1999/xlink" x="0px" y="0px"
	 width="100px" height="100px" viewBox="0 0 100 100" enable-background="new 0 0 100 100" xml:space="preserve">
<g>
	<polygon fill="#DAC8C0" points="77.569,17.377 32.423,32 32.25,28.733 77.569,15.031 	"/>
	<g>
		<polygon fill="#EAD7CE" points="50.193,93.169 3.685,68.946 3.769,23.007 50.193,41.211 		"/>
	</g>
	<g>
		<polygon fill="#A83C24" points="32.449,83.928 18.44,76.631 18.44,26.197 32.45,29.542 		"/>
	</g>
	<g>
		<g>
			<path fill="#81B8A3" d="M14.461,41.12c0,2.782-1.372,4.489-3.041,3.822c-1.645-0.657-2.961-3.379-2.961-6.089
				c0-2.709,1.316-4.437,2.961-3.852C13.09,35.597,14.461,38.339,14.461,41.12z"/>
			<path fill="#9C6747" d="M11.421,45.498c-1.824-0.733-3.288-3.765-3.288-6.767c0-3.005,1.463-4.929,3.288-4.285
				c1.855,0.656,3.384,3.712,3.384,6.806C14.805,44.343,13.276,46.242,11.421,45.498z M11.421,35.559
				c-1.459-0.524-2.633,1.012-2.633,3.418c0,2.407,1.174,4.83,2.633,5.409c1.479,0.587,2.696-0.933,2.696-3.396
				C14.117,38.527,12.9,36.088,11.421,35.559z"/>
		</g>
		<g>
			<polygon fill="#9C6747" points="14.461,41.684 8.46,39.402 8.46,38.305 14.461,40.559 			"/>
		</g>
	</g>
	<g>
		<polygon fill="#81B8A3" points="25.761,57.538 18.799,54.563 18.799,37.279 25.761,39.75 		"/>
		<path fill="#AE734D" d="M26.141,58.291l-7.699-3.308V36.581l7.699,2.711V58.291z M19.156,54.143l6.229,2.645V40.205l-6.229-2.223
			V54.143z"/>
	</g>
	<g>
		<polygon fill="#AE734D" points="25.787,45.635 18.824,42.999 18.824,42.233 25.787,44.849 		"/>
	</g>
	<g>
		<polygon fill="#AE734D" points="25.787,52.018 18.824,49.198 18.824,48.434 25.787,51.231 		"/>
	</g>
	<g>
		<polygon fill="#81B8A3" points="49.783,60.767 32.822,53.963 32.822,35.662 49.783,41.234 		"/>
		<path fill="#AE734D" d="M50.241,61.6l-17.818-7.191V34.923l17.818,5.812V61.6z M33.224,53.516l16.103,6.423V41.731l-16.103-5.33
			V53.516z"/>
	</g>
	<g>
		<polygon fill="#AE734D" points="49.601,48.228 32.903,42.304 32.903,41.492 49.601,47.363 		"/>
	</g>
	<g>
		<polygon fill="#AE734D" points="49.601,54.623 32.903,48.302 32.903,47.493 49.601,53.761 		"/>
	</g>
	<g>
		<polygon fill="#81B8A3" points="25.761,79.812 18.799,76.203 18.799,57.775 25.761,60.845 		"/>
		<path fill="#AE734D" d="M26.141,80.599l-7.699-4.007V57.045l7.699,3.374V80.599z M19.156,75.815l6.229,3.21V61.268l-6.229-2.76
			V75.815z"/>
	</g>
	<g>
		<polygon fill="#AE734D" points="25.787,67.392 18.824,64.137 18.824,63.371 25.787,66.604 		"/>
	</g>
	<g>
		<polygon fill="#AE734D" points="25.787,73.752 18.824,70.316 18.824,69.552 25.787,72.966 		"/>
	</g>
	<g>
		<polygon fill="#81B8A3" points="14.964,74.227 8.768,71.014 8.768,55.043 14.964,57.821 		"/>
		<path fill="#9C6747" d="M15.31,74.97l-6.868-3.575V54.349l6.868,3.063V74.97z M9.097,70.634l5.523,2.849V58.229l-5.523-2.488
			V70.634z"/>
	</g>
	<g>
		<polygon fill="#81B8A3" points="47.43,81.852 34.3,75.499 34.3,66.488 47.43,72.374 		"/>
		<path fill="#9C6747" d="M47.88,82.712l-13.984-6.799V65.697l13.984,6.235V82.712z M34.705,75.084l12.278,5.91v-8.179
			l-12.278-5.532V75.084z"/>
	</g>
	<g>
		<polygon fill="#9C6747" points="11.251,72.105 10.583,71.761 10.583,56.29 11.251,56.59 		"/>
	</g>
	<g>
		<polygon fill="#AE734D" points="41.455,56.936 40.601,56.594 40.601,38.218 41.455,38.498 		"/>
	</g>
	<polygon fill="#702F1B" points="50.193,58.616 48.16,60.374 29.634,53.001 31.88,51.772 	"/>
	<g>
		<polygon fill="#9C6747" points="41.126,78.801 40.273,78.391 40.273,69.167 41.126,69.549 		"/>
	</g>
	<g>
		<polygon fill="#B8B7B8" points="18.44,38.887 3.769,33.574 3.769,24.698 18.44,29.317 		"/>
	</g>
	<g>
		<polygon fill="#B8B7B8" points="32.449,32.919 18.44,28.462 18.44,26.166 32.45,29.542 		"/>
	</g>
	<g>
		<polygon fill="#B8B7B8" points="29.607,66.081 5.878,55.561 5.878,51.15 29.634,60.991 		"/>
	</g>
	<g>
		<polygon fill="#B8B7B8" points="48.03,84.214 33.869,77.253 33.869,75.93 48.03,82.818 		"/>
	</g>
	<g>
		<polygon fill="#DAC8C0" points="50.241,93.045 96.75,68.822 96.75,25.832 50.241,41.087 		"/>
	</g>
	<g>
		<g>
			<path fill="#81B8A3" d="M87.714,40.016c0,2.782,1.37,4.488,3.039,3.822c1.645-0.657,2.961-3.38,2.961-6.089
				c0-2.709-1.316-4.438-2.961-3.851C89.084,34.492,87.714,37.235,87.714,40.016z"/>
			<path fill="#9C6747" d="M87.368,40.146c0-3.091,1.531-6.148,3.385-6.804c1.824-0.646,3.287,1.28,3.287,4.284
				c0,3.003-1.463,6.035-3.287,6.768C88.899,45.138,87.368,43.238,87.368,40.146z M88.057,39.887c0,2.463,1.217,3.983,2.696,3.396
				c1.46-0.58,2.634-3.003,2.634-5.41c0-2.406-1.174-3.942-2.634-3.417C89.273,34.985,88.057,37.424,88.057,39.887z"/>
		</g>
		<g>
			<polygon fill="#9C6747" points="87.714,40.58 93.714,38.299 93.714,37.2 87.714,39.453 			"/>
		</g>
	</g>
	<g>
		<polygon fill="#81B8A3" points="76.001,56.487 82.964,53.513 82.964,36.228 76.001,38.699 		"/>
		<path fill="#AE734D" d="M75.621,38.241l7.697-2.712v18.402l-7.697,3.31V38.241z M82.605,36.93l-6.227,2.225v16.581l6.227-2.646
			V36.93z"/>
	</g>
	<g>
		<polygon fill="#AE734D" points="75.976,44.583 82.939,41.947 82.939,41.183 75.976,43.797 		"/>
	</g>
	<g>
		<polygon fill="#AE734D" points="75.976,50.967 82.939,48.147 82.939,47.382 75.976,50.179 		"/>
	</g>
	<g>
		<polygon fill="#81B8A3" points="76.001,78.76 82.964,75.151 82.964,56.724 76.001,59.792 		"/>
		<path fill="#AE734D" d="M75.621,59.369l7.697-3.375V75.54l-7.697,4.008V59.369z M82.605,57.457l-6.227,2.76v17.758l6.227-3.211
			V57.457z"/>
	</g>
	<g>
		<polygon fill="#AE734D" points="75.976,66.341 82.939,63.085 82.939,62.319 75.976,65.553 		"/>
	</g>
	<g>
		<polygon fill="#AE734D" points="75.976,72.701 82.939,69.264 82.939,68.501 75.976,71.914 		"/>
	</g>
	<polygon fill="#672B18" points="15.624,28.462 0.173,23.545 48.237,8.155 59.342,11.845 	"/>
	<g>
		<polygon fill="#81B8A3" points="54.22,81.866 67.35,75.514 67.35,66.503 54.22,72.39 		"/>
		<path fill="#9C6747" d="M53.77,71.947l13.986-6.236v10.217l-13.986,6.8V71.947z M66.944,67.298l-12.276,5.531v8.18l12.276-5.912
			V67.298z"/>
	</g>
	<g>
		<g>
			<polygon fill="#81B8A3" points="87.606,72.937 93.803,69.727 93.803,53.755 87.606,56.532 			"/>
			<path fill="#9C6747" d="M87.261,56.123l6.869-3.063v17.046l-6.869,3.577V56.123z M93.474,54.453l-5.521,2.487v15.255l5.521-2.85
				V54.453z"/>
		</g>
		<g>
			<polygon fill="#9C6747" points="91.321,70.816 91.988,70.472 91.988,55.001 91.321,55.301 			"/>
		</g>
	</g>
	<g>
		<g>
			<polygon fill="#81B8A3" points="49.495,60.502 65.75,54.122 65.75,35.819 49.495,40.969 			"/>
			<path fill="#AE734D" d="M49.038,40.469l17.113-5.388v19.486l-17.113,6.767V40.469z M65.349,36.56L49.95,41.466v18.206
				l15.398-5.998V36.56z"/>
		</g>
		<g>
			<polygon fill="#AE734D" points="49.678,47.962 65.671,42.462 65.671,41.651 49.678,47.097 			"/>
		</g>
		<g>
			<polygon fill="#AE734D" points="49.678,54.358 65.671,48.46 65.671,47.651 49.678,53.495 			"/>
		</g>
		<g>
			<polygon fill="#AE734D" points="57.823,56.669 58.678,56.328 58.678,37.952 57.823,38.232 			"/>
		</g>
	</g>
	<polygon fill="#702F1B" points="46.016,58.616 48.038,60.767 66.574,53.001 64.044,51.976 	"/>
	<g>
		<g>
			<g>
				<polygon fill="#E4E5E6" points="47.547,60.949 48.16,61.195 48.16,50.955 47.547,50.732 				"/>
			</g>
			<g>
				<polygon fill="#E4E5E6" points="48.129,51.772 29.714,45.028 29.714,44.219 48.129,50.904 				"/>
			</g>
			<g>
				<polygon fill="#E4E5E6" points="48.129,56.737 29.714,49.656 29.714,48.848 48.129,55.87 				"/>
			</g>
			<g>
				<polygon fill="#E4E5E6" points="30.242,54.188 29.708,53.973 29.708,44.254 30.242,44.448 				"/>
			</g>
			<g>
				<polygon fill="#E4E5E6" points="33.918,55.319 33.478,55.144 33.478,46.079 33.918,46.239 				"/>
			</g>
			<g>
				<polygon fill="#E4E5E6" points="37.26,56.658 36.808,56.477 36.808,47.294 37.26,47.459 				"/>
			</g>
			<g>
				<polygon fill="#E4E5E6" points="40.83,58.256 40.364,58.07 40.364,48.592 40.83,48.761 				"/>
			</g>
			<g>
				<polygon fill="#E4E5E6" points="44.401,59.517 43.925,59.327 43.925,49.891 44.401,50.064 				"/>
			</g>
		</g>
		<g>
			<g>
				<polygon fill="#E4E5E6" points="48.772,60.938 48.16,61.184 48.16,50.944 48.772,50.722 				"/>
			</g>
			<g>
				<polygon fill="#E4E5E6" points="48.16,51.772 66.574,45.028 66.574,44.221 48.16,50.904 				"/>
			</g>
			<g>
				<polygon fill="#E4E5E6" points="48.16,56.737 66.574,49.656 66.574,48.848 48.16,55.87 				"/>
			</g>
			<g>
				<polygon fill="#E4E5E6" points="66.047,54.188 66.58,53.974 66.58,44.255 66.047,44.448 				"/>
			</g>
			<g>
				<polygon fill="#E4E5E6" points="62.369,55.319 62.809,55.144 62.809,46.079 62.369,46.239 				"/>
			</g>
			<g>
				<polygon fill="#E4E5E6" points="59.028,56.658 59.479,56.477 59.479,47.294 59.028,47.459 				"/>
			</g>
			<g>
				<polygon fill="#E4E5E6" points="55.459,58.256 55.924,58.07 55.924,48.592 55.459,48.761 				"/>
			</g>
			<g>
				<polygon fill="#E4E5E6" points="51.674,59.438 52.149,59.247 52.149,49.811 51.674,49.985 				"/>
			</g>
			<g>
				<polygon fill="#803820" points="48.129,63.185 66.653,55.617 66.653,53.001 48.129,60.374 				"/>
			</g>
		</g>
	</g>
	<polygon fill="#B8B7B8" points="96.75,26.197 50.175,41.107 32.449,35.3 32.449,39.058 50.157,45.124 50.157,45.136 50.175,45.13 
		50.193,45.136 50.193,45.125 96.75,30.177 	"/>
	<g>
		<polygon fill="#B8B7B8" points="53.621,84.229 67.782,77.267 67.782,75.945 53.621,82.833 		"/>
	</g>
	<g>
		<polygon fill="#8A908C" points="15.624,30.796 0.173,25.727 0.173,23.545 15.624,28.462 		"/>
	</g>
	<g>
		<polygon fill="#803820" points="25.388,62.697 2.715,52.749 2.715,50.396 25.388,60.107 		"/>
	</g>
	<polygon fill="#767A78" points="18.44,29.317 15.624,30.71 15.624,28.462 18.44,27.069 	"/>
	<polygon fill="#767A78" points="80.55,14.185 30.248,30.71 30.248,28.183 80.55,11.98 	"/>
	<polygon fill="#552412" points="29.634,61.013 25.388,62.721 25.388,60.107 29.634,58.444 	"/>
	<g>
		<polygon fill="#8A908C" points="51.956,42.743 29.607,35.381 29.607,32.912 51.956,40.091 		"/>
	</g>
	<polygon fill="#672B18" points="25.388,60.107 2.715,50.396 6.589,49.078 29.634,58.444 	"/>
	<polygon fill="#7F8480" points="51.956,40.091 51.956,42.743 100,26.938 100,24.758 	"/>
	<g>
		<polygon fill="#803820" points="48.16,63.185 29.634,55.617 29.634,53.001 48.16,60.374 		"/>
	</g>
	<g>
		<polygon fill="#8A908C" points="30.248,28.183 15.153,23.979 15.153,26.052 30.248,30.71 		"/>
	</g>
	<polygon fill="#7B351E" points="30.248,28.183 15.153,23.972 66.443,8.076 80.547,11.963 	"/>
	<polygon fill="#672B18" points="51.956,40.091 29.607,32.912 77.569,17.377 100,24.758 	"/>
</g>
</svg>
