 

<svg xmlns:agg="http://www.example.com" xmlns="http://www.w3.org/2000/svg" preserveAspectRatio="none" width="0.5639in" height="1.0750in" viewBox="0 0 524 999">

<path style="fill:#ababab;stroke:#000;stroke-width:2" d="M161,867 l93,-824 -21,0 -97,813 15,11 10,0z" />
<path style="fill:none;stroke:#fff;stroke-width:2" d="M151,867 l98,-824" />
<path style="fill:#ababab;stroke:#000;stroke-width:2" d="M495,944 l-241,-901 -21,0 226,886 26,15 10,0z" />
<path style="fill:none;stroke:#fff;stroke-width:2" d="M485,944 l-236,-901" />
<path style="fill:#ababab;stroke:#000;stroke-width:2" d="M459,856 l0,11 -128,15 0,-20 108,-11 20,5z" />
<path style="fill:none;stroke:#fff;stroke-width:2" d="M459,856 l-128,16" />
<path style="fill:#ababab;stroke:#000;stroke-width:2" d="M434,753 l0,10 -129,16 0,-21 108,-11 21,6z" />
<path style="fill:none;stroke:#fff;stroke-width:2" d="M434,753 l-129,15" />
<path style="fill:#ababab;stroke:#000;stroke-width:2" d="M408,654 l0,11 -129,15 0,-20 109,-11 20,5z" />
<path style="fill:none;stroke:#fff;stroke-width:2" d="M408,654 l-129,16" />
<path style="fill:#ababab;stroke:#000;stroke-width:2" d="M377,551 l0,10 -113,5 0,-15 99,-3 14,3z" />
<path style="fill:none;stroke:#fff;stroke-width:2" d="M377,551 l-113,5" />
<path style="fill:#ababab;stroke:#000;stroke-width:2" d="M357,463 l0,10 -108,0 0,-10 108,0z" />
<path style="fill:none;stroke:#fff;stroke-width:2" d="M357,463 l-108,0" />
<path style="fill:#ababab;stroke:#000;stroke-width:2" d="M336,380 l0,10 -108,0 0,-10 108,0z" />
<path style="fill:none;stroke:#fff;stroke-width:2" d="M336,380 l-108,0" />
<path style="fill:#ababab;stroke:#000;stroke-width:2" d="M146,835 l1,0 2,-1 0,-2 1,-2 -1,-1 0,-2 -2,-1 -1,-1 -93,10 0,11 93,-11z" />
<path style="fill:none;stroke:#fff;stroke-width:2" d="M146,830 l-93,11" />
<path style="fill:#ababab;stroke:#000;stroke-width:2" d="M166,670 l2,0 1,-2 1,-1 0,-2 0,-2 -1,-2 -1,-1 -2,0 -92,10 0,10 92,-10z" />
<path style="fill:none;stroke:#fff;stroke-width:2" d="M166,665 l-92,10" />
<path style="fill:#ababab;stroke:#000;stroke-width:2" d="M187,499 l1,0 2,-2 0,-1 1,-2 -1,-2 0,-2 -2,-1 -1,0 -93,5 0,10 93,-5z" />
<path style="fill:none;stroke:#fff;stroke-width:2" d="M187,494 l-93,5" />
<path style="fill:#ababab;stroke:#000;stroke-width:2" d="M208,349 l1,-1 1,-1 1,-1 0,-2 0,-2 -1,-2 -1,-1 -1,0 -93,0 0,10 93,0z" />
<path style="fill:none;stroke:#fff;stroke-width:2" d="M208,344 l-93,0" />
<path style="fill:#ababab;stroke:#000;stroke-width:2" d="M223,225 l1,-1 2,-1 0,-2 1,-2 -1,-1 0,-2 -2,-1 -1,-1 -87,-5 0,10 87,6z" />
<path style="fill:none;stroke:#fff;stroke-width:2" d="M223,219 l-87,-5" />
<path style="fill:#ababab;stroke:#000;stroke-width:2" d="M233,121 l2,0 1,-2 0,-1 1,-2 -1,-2 0,-2 -1,-1 -2,0 -77,-11 0,11 77,10z" />
<path style="fill:none;stroke:#fff;stroke-width:2" d="M233,116 l-77,-11" />
<path style="fill:#ababab;stroke:#000;stroke-width:2" d="M310,302 l-10,4 -87,-4 0,-15 97,5 0,10z" />
<path style="fill:none;stroke:#000;stroke-width:2" d="M310,302 l-97,-5" />
<path style="fill:#ababab;stroke:#000;stroke-width:2" d="M290,214 l-11,4 -87,-4 0,-15 98,5 0,10z" />
<path style="fill:none;stroke:#000;stroke-width:2" d="M290,214 l-98,-5" />
<path style="fill:#ababab;stroke:#000;stroke-width:2" d="M269,131 l-10,5 -77,-10 0,-21 87,16 0,10z" />
<path style="fill:none;stroke:#000;stroke-width:2" d="M269,131 l-92,-15" />
<path style="fill:#ababab;stroke:#000;stroke-width:2" d="M249,54 l-11,5 -77,-10 0,-21 88,15 0,11z" />
<path style="fill:none;stroke:#000;stroke-width:2" d="M249,54 l-86,-15" />
<path style="fill:#ababab;stroke:#000;stroke-width:2" d="M53,887 l124,-859 -21,0 -128,849 15,10 10,0z" />
<path style="fill:none;stroke:#fff;stroke-width:2" d="M43,887 l129,-859" />
<path style="fill:#ababab;stroke:#000;stroke-width:2" d="M177,28 l-21,0 175,932 21,10 15,0 -190,-942z" />
<path style="fill:none;stroke:#fff;stroke-width:2" d="M352,970 l-180,-942" />

</svg>
