 

<svg xmlns:agg="http://www.example.com" xmlns="http://www.w3.org/2000/svg" preserveAspectRatio="none" width="0.3519in" height="1.0750in" viewBox="0 0 327 999">

<path style="fill:#633;stroke:#000;stroke-width:2" d="M156,197 l-113,-67 19,0 94,56 23,0 86,-56 19,0 -105,67 -23,0z" />
<path style="fill:#633;stroke:#000;stroke-width:2" d="M156,322 l-113,-72 19,0 94,57 23,0 86,-57 19,0 -105,72 -23,0z" />
<path style="fill:#633;stroke:#000;stroke-width:2" d="M148,58 l38,0 0,912 -38,0 0,-912z" />
<path style="fill:#963;stroke:#000;stroke-width:2" d="M28,228 l271,0 0,22 -271,0 0,-22z" />
<path style="fill:#963;stroke:#000;stroke-width:2" d="M28,107 l271,0 0,23 -271,0 0,-23z" />
<path style="fill:none;stroke:#000;stroke-width:2" d="M43,231 l0,-34" />
<path style="fill:none;stroke:#000;stroke-width:2" d="M35,220 l12,0" />
<path style="fill:none;stroke:#000;stroke-width:2" d="M47,212 l-12,0" />
<path style="fill:none;stroke:#000;stroke-width:2" d="M35,205 l12,0" />
<path style="fill:none;stroke:#000;stroke-width:2" d="M65,231 l0,-34" />
<path style="fill:none;stroke:#000;stroke-width:2" d="M54,220 l19,0" />
<path style="fill:none;stroke:#000;stroke-width:2" d="M73,212 l-19,0" />
<path style="fill:none;stroke:#000;stroke-width:2" d="M54,205 l19,0" />
<path style="fill:none;stroke:#000;stroke-width:2" d="M269,231 l0,-34" />
<path style="fill:none;stroke:#000;stroke-width:2" d="M265,220 l12,0" />
<path style="fill:none;stroke:#000;stroke-width:2" d="M277,212 l-12,0" />
<path style="fill:none;stroke:#000;stroke-width:2" d="M265,205 l12,0" />
<path style="fill:none;stroke:#000;stroke-width:2" d="M292,231 l0,-34" />
<path style="fill:none;stroke:#000;stroke-width:2" d="M284,220 l15,0" />
<path style="fill:none;stroke:#000;stroke-width:2" d="M299,212 l-15,0" />
<path style="fill:none;stroke:#000;stroke-width:2" d="M284,205 l15,0" />
<path style="fill:none;stroke:#000;stroke-width:2" d="M77,243 l173,0" />
<path style="fill:none;stroke:#000;stroke-width:2" d="M77,122 l173,0" />
<path style="fill:none;stroke:#000;stroke-width:2" d="M171,914 l0,-607" />
<path style="fill:none;stroke:#000;stroke-width:2" d="M186,35 l-15,0" />
<path style="fill:none;stroke:#000;stroke-width:2" d="M171,43 l15,0" />
<path style="fill:none;stroke:#000;stroke-width:2" d="M186,50 l-15,0" />
<path style="fill:none;stroke:#000;stroke-width:2" d="M179,58 l0,-30" />
<path style="fill:none;stroke:#000;stroke-width:2" d="M163,35 l-15,0" />
<path style="fill:none;stroke:#000;stroke-width:2" d="M148,43 l15,0" />
<path style="fill:none;stroke:#000;stroke-width:2" d="M163,50 l-15,0" />
<path style="fill:none;stroke:#000;stroke-width:2" d="M156,58 l0,-30" />
<path style="fill:none;stroke:#000;stroke-width:2" d="M292,84 l-15,0" />
<path style="fill:none;stroke:#000;stroke-width:2" d="M277,92 l15,0" />
<path style="fill:none;stroke:#000;stroke-width:2" d="M292,99 l-15,0" />
<path style="fill:none;stroke:#000;stroke-width:2" d="M284,107 l0,-30" />
<path style="fill:none;stroke:#000;stroke-width:2" d="M269,84 l-11,0" />
<path style="fill:none;stroke:#000;stroke-width:2" d="M258,92 l11,0" />
<path style="fill:none;stroke:#000;stroke-width:2" d="M269,99 l-11,0" />
<path style="fill:none;stroke:#000;stroke-width:2" d="M261,107 l0,-30" />
<path style="fill:none;stroke:#000;stroke-width:2" d="M69,84 l-11,0" />
<path style="fill:none;stroke:#000;stroke-width:2" d="M58,92 l11,0" />
<path style="fill:none;stroke:#000;stroke-width:2" d="M69,99 l-11,0" />
<path style="fill:none;stroke:#000;stroke-width:2" d="M62,107 l0,-30" />
<path style="fill:none;stroke:#000;stroke-width:2" d="M50,84 l-15,0" />
<path style="fill:none;stroke:#000;stroke-width:2" d="M35,92 l15,0" />
<path style="fill:none;stroke:#000;stroke-width:2" d="M50,99 l-15,0" />
<path style="fill:none;stroke:#000;stroke-width:2" d="M43,107 l0,-30" />

</svg>
