 

<svg xmlns:agg="http://www.example.com" xmlns="http://www.w3.org/2000/svg" preserveAspectRatio="none" width="1.6083in" height="0.8484in" viewBox="0 0 999 527">

<path style="fill:#999;stroke:#000;stroke-width:2" d="M695,499 l-157,-79 0,-392 157,78 0,393z" />
<path style="fill:#ccc;stroke:#000;stroke-width:2" d="M420,499 l-274,0 0,-236 274,0 0,236z" />
<path style="fill:#ccc;stroke:#000;stroke-width:2" d="M617,460 l-197,0 0,-157 197,0 0,157z" />
<path style="fill:#ccc;stroke:#000;stroke-width:2" d="M970,499 l-275,0 0,-393 275,0 0,393z" />
<path style="fill:#999;stroke:#000;stroke-width:2" d="M146,499 l-118,-59 0,-236 118,59 0,236z" />
<path style="fill:#e5e5e5;stroke:#000;stroke-width:2" d="M970,106 l-157,-78 -275,0 157,78 275,0z" />
<path style="fill:#e5e5e5;stroke:#000;stroke-width:2" d="M617,303 l-79,-40 -118,0 0,40 197,0z" />
<path style="fill:#e5e5e5;stroke:#000;stroke-width:2" d="M420,263 l-117,-59 -275,0 118,59 274,0z" />
<path style="fill:#999;stroke:#000;stroke-width:2" d="M401,479 l0,-37 -50,0 0,37 50,0z" />
<path style="fill:#999;stroke:#000;stroke-width:2" d="M339,479 l0,-37 -50,0 0,37 50,0z" />
<path style="fill:#999;stroke:#000;stroke-width:2" d="M277,479 l0,-37 -50,0 0,37 50,0z" />
<path style="fill:#999;stroke:#000;stroke-width:2" d="M215,479 l0,-37 -50,0 0,37 50,0z" />
<path style="fill:#999;stroke:#000;stroke-width:2" d="M401,340 l0,-37 -50,0 0,37 50,0z" />
<path style="fill:#999;stroke:#000;stroke-width:2" d="M339,340 l0,-37 -50,0 0,37 50,0z" />
<path style="fill:#999;stroke:#000;stroke-width:2" d="M277,340 l0,-37 -50,0 0,37 50,0z" />
<path style="fill:#999;stroke:#000;stroke-width:2" d="M215,340 l0,-37 -50,0 0,37 50,0z" />
<path style="fill:#999;stroke:#000;stroke-width:2" d="M530,460 l0,-59 -70,0 0,59 70,0z" />
<path style="fill:#999;stroke:#000;stroke-width:2" d="M950,185 l0,-39 -235,0 0,39 235,0z" />
<path style="fill:#999;stroke:#000;stroke-width:2" d="M950,263 l0,-39 -235,0 0,39 235,0z" />
<path style="fill:#666;stroke:#000;stroke-width:2" d="M126,479 l0,-37 -17,-9 0,38 17,8z" />
<path style="fill:#666;stroke:#000;stroke-width:2" d="M105,469 l0,-38 -17,-8 0,37 17,9z" />
<path style="fill:#666;stroke:#000;stroke-width:2" d="M85,458 l0,-37 -17,-9 0,38 17,8z" />
<path style="fill:#666;stroke:#000;stroke-width:2" d="M64,447 l0,-37 -17,-8 0,37 17,8z" />
<path style="fill:#666;stroke:#000;stroke-width:2" d="M126,340 l0,-37 -17,-9 0,38 17,8z" />
<path style="fill:#666;stroke:#000;stroke-width:2" d="M105,329 l0,-37 -17,-9 0,38 17,8z" />
<path style="fill:#666;stroke:#000;stroke-width:2" d="M85,319 l0,-37 -17,-9 0,38 17,8z" />
<path style="fill:#666;stroke:#000;stroke-width:2" d="M64,308 l0,-37 -17,-9 0,38 17,8z" />
<path style="fill:#666;stroke:#000;stroke-width:2" d="M676,185 l0,-39 -118,-57 0,39 118,57z" />
<path style="fill:#666;stroke:#000;stroke-width:2" d="M676,263 l0,-39 -118,-56 0,39 118,56z" />
<path style="fill:none;stroke:#000;stroke-width:2" d="M495,401 l0,59" />

</svg>
