 

<svg xmlns:agg="http://www.example.com" xmlns="http://www.w3.org/2000/svg" preserveAspectRatio="none" width="0.9706in" height="1.0750in" viewBox="0 0 902 999">

<path style="fill:#fff;stroke:#ccc;stroke-width:2" d="M807,962 l14,-24 7,-25 5,-30 -8,-26 -2,-1 12,-26 8,-27 -1,-29 -13,-23 -6,-4 14,-25 14,-26 9,-26 -3,-29 -19,-11 6,-28 7,-25 9,-28 8,-31 4,-31 0,-30 -7,-26 -7,-12 8,-25 7,-33 1,-10 0,-10 0,-9 -4,-31 -10,-25 -15,-24 -18,-19 -8,-13 10,-24 -13,-27 -20,-22 -26,-20 -27,-19 -24,-15 -21,-13 -17,-25 -24,-16 -30,-9 -25,-2 -9,0 -9,0 -36,2 -27,2 -35,3 -30,2 -1,-3 -2,-2 -33,-1 -32,5 -38,8 -27,5 -27,7 -27,6 -26,5 -34,6 -33,2 -9,-2 -3,-2 -1,-3 -28,2 -23,10 -21,19 -23,18 -14,2 -15,24 -1,31 7,25 9,28 -3,30 -9,10 -11,29 -2,13 -1,11 0,10 9,24 26,19 25,9 27,5 32,7 24,14 -8,31 22,18 30,3 37,-1 29,-1 28,-1 31,0 26,10 23,12 31,-4 31,-2 32,1 31,9 27,21 16,24 10,28 23,18 22,16 19,19 5,26 9,27 14,26 12,24 11,23 -4,29 -3,27 4,30 8,28 3,7 -7,25 0,30 8,25 13,23 2,3 26,6 21,2 3,0 3,0 29,-2 19,-6z" />
<path style="fill:#ccc" d="M787,934 l16,-21 12,-26 4,-28 -20,-18 -6,5 -1,0 0,0 11,-27 9,-28 6,-29 1,-19 -22,13 -1,-1 4,-27 9,-31 6,-29 2,-30 -6,-28 8,-28 11,-26 10,-26 7,-26 -17,-15 -16,24 -9,8 -1,0 -1,-1 5,-30 11,-32 9,-27 8,-26 8,-28 2,-16 8,-18 0,-4 -1,-5 -8,-26 -14,-22 -16,-22 -18,-24 -15,-23 -12,-22 -2,-6 4,-26 -17,-22 -24,-18 -24,-14 -24,-12 -25,-12 -11,-5 -2,-28 -9,-2 -6,0 -6,0 -32,2 -27,4 -29,4 -28,3 -36,1 -28,-8 -27,9 -26,13 -30,7 -31,3 -40,1 -33,-1 -28,-6 -22,13 -22,22 -17,22 -15,21 -9,10 -22,12 -9,25 -2,28 0,5 0,5 1,28 1,17 30,13 28,6 36,0 33,-4 32,-4 30,-1 30,7 28,19 14,15 0,3 2,2 26,6 29,2 35,3 27,4 27,6 25,10 26,20 14,22 -2,2 11,29 17,24 20,27 16,20 20,27 15,22 8,21 12,24 -16,21 -11,29 4,27 11,28 12,23 -8,24 -4,31 2,28 14,15 -6,28 -1,31 7,26 25,12 20,2 4,0 5,0 27,-6z" />
<path style="fill:#b2b2b2" d="M780,884 l2,-32 9,-26 -7,-28 -7,-28 -6,-28 -4,-29 7,-22 21,4 0,-34 -8,-31 7,-29 8,-28 3,-14 0,-3 0,-3 -18,-13 -10,-24 -10,-26 -7,-26 0,-29 7,-26 9,-21 -6,-28 -10,-24 -7,-26 19,-21 15,-10 4,-12 -26,-11 -27,-8 -20,-20 0,-30 -12,-24 -22,-16 -15,-24 -2,-15 -23,-21 -26,-10 -31,-7 -16,-2 -8,-1 -8,0 -29,4 -24,12 -14,26 -1,7 7,3 -25,-9 -27,-8 -33,-7 -36,-5 -38,0 -37,6 -33,14 -26,25 -13,24 -30,-2 -27,6 -21,15 -3,5 0,4 0,3 17,20 30,13 30,10 27,7 30,4 32,2 34,-1 34,-1 33,0 32,1 30,5 25,9 21,14 6,6 20,24 20,18 23,19 20,22 16,22 7,28 -5,17 0,3 20,20 24,20 21,16 25,22 19,22 3,27 -16,10 -6,29 2,35 4,31 6,31 7,28 10,25 3,4 -30,9 -14,24 6,17 3,1 3,-1 7,28 -2,29 3,22 1,0 11,-8 22,15 5,3 2,1 2,-1 12,-18z" />

</svg>
