<?xml version="1.0" encoding="utf-8"?>
<!-- Generator: Adobe Illustrator 16.0.0, SVG Export Plug-In . SVG Version: 6.00 Build 0)  -->
<!DOCTYPE svg PUBLIC "-//W3C//DTD SVG 1.1//EN" "http://www.w3.org/Graphics/SVG/1.1/DTD/svg11.dtd">
<svg version="1.1" id="图层_1" xmlns="http://www.w3.org/2000/svg" preserveAspectRatio="none" xmlns:xlink="http://www.w3.org/1999/xlink" x="0px" y="0px"
	 width="100px" height="100px" viewBox="0 0 100 100" enable-background="new 0 0 100 100" xml:space="preserve">
<g>
	<polygon fill="#BC9A34" points="50.137,79.65 39.329,85.044 39.259,65.104 49.552,60.941 	"/>
	<g>
		<polygon fill="#937A27" points="57.41,85.07 47.812,80.812 47.812,62.398 57.41,66.603 		"/>
	</g>
	<g>
		<polygon fill="#608376" points="46.675,73.425 43.244,75.102 43.244,68.479 46.675,66.885 		"/>
		<path fill="#681116" d="M47.011,73.76l-4.112,2.017v-7.645l4.112-1.902V73.76z M43.588,74.427l2.75-1.34v-5.546l-2.75,1.282
			V74.427z"/>
	</g>
	<polygon fill="#B8B7B8" points="39.259,73.078 50.137,67.89 50.137,60.267 39.259,65.144 	"/>
	<g>
		<polygon fill="#951E23" points="28.524,57.54 0.229,44.864 16.197,28.5 28.891,31.901 		"/>
	</g>
	<g>
		<polygon fill="#992C23" points="51.238,89.908 48.471,88.471 48.471,68.447 51.238,69.688 		"/>
	</g>
	<polygon fill="#862920" points="53.779,88.489 51.238,89.908 51.238,69.728 53.779,68.589 	"/>
	<g>
		<polygon fill="#E8BE46" points="39.329,65.607 52.975,71.645 50.063,61.762 27.376,25.75 9.583,43.486 4.729,46.598 4.729,67.023 
			39.329,85.044 		"/>
	</g>
	<g>
		<g>
			<polygon fill="#52090E" points="27.14,62.887 7.878,54.059 7.878,67.838 27.14,77.801 			"/>
		</g>
		<g>
			<polygon fill="#6A1216" points="25.991,63.141 8.841,55.227 8.841,58.013 25.991,66.131 			"/>
		</g>
		<g>
			<polygon fill="#6A1216" points="25.991,66.523 8.841,58.379 8.841,61.169 25.991,69.515 			"/>
		</g>
		<g>
			<polygon fill="#6A1216" points="25.991,69.897 8.841,61.525 8.841,64.313 25.991,72.891 			"/>
		</g>
		<g>
			<polygon fill="#6A1216" points="25.991,73.283 8.841,64.679 8.841,67.469 25.991,76.274 			"/>
		</g>
	</g>
	<g>
		<g>
			<polygon fill="#81B8A3" points="36.304,75.019 31.513,72.678 31.513,66.368 36.304,68.594 			"/>
			<path fill="#831A1F" d="M36.629,75.669L31.2,73.006v-7.262l5.429,2.51V75.669z M31.826,72.348l4.154,2.022v-5.437l-4.154-1.937
				V72.348z"/>
		</g>
		<g>
			<polygon fill="#909395" points="30.964,73.113 36.933,76.047 36.933,76.954 30.964,73.999 			"/>
		</g>
	</g>
	<g>
		<g>
			<polygon fill="#81B8A3" points="25.987,48.933 21.141,46.971 21.141,37.671 25.987,39.453 			"/>
			<path fill="#831A1F" d="M26.286,49.527l-5.434-2.212V37.103l5.434,1.987V49.527z M21.429,46.624l4.259,1.717v-8.527l-4.259-1.573
				V46.624z"/>
		</g>
		<g>
			<polygon fill="#831A1F" points="26.389,58.206 20.755,55.719 20.755,47.106 26.389,49.395 			"/>
		</g>
		<g>
			<g>
				<polygon fill="#6A1216" points="21.137,55.889 20.638,55.668 20.638,46.68 21.137,46.881 				"/>
			</g>
			<g>
				<polygon fill="#6A1216" points="21.889,56.221 21.387,55.999 21.387,46.984 21.889,47.187 				"/>
			</g>
			<g>
				<polygon fill="#6A1216" points="22.646,56.554 22.141,56.332 22.141,47.289 22.646,47.493 				"/>
			</g>
			<g>
				<polygon fill="#6A1216" points="23.386,56.881 22.877,56.657 22.877,47.587 23.386,47.793 				"/>
			</g>
			<g>
				<polygon fill="#6A1216" points="24.152,57.22 23.641,56.993 23.641,47.896 24.152,48.103 				"/>
			</g>
			<g>
				<polygon fill="#6A1216" points="24.922,57.56 24.409,57.332 24.409,48.207 24.922,48.415 				"/>
			</g>
			<g>
				<polygon fill="#6A1216" points="25.73,57.916 25.213,57.688 25.213,48.532 25.73,48.742 				"/>
			</g>
			<g>
				<polygon fill="#6A1216" points="26.511,58.26 25.991,58.03 25.991,48.847 26.511,49.059 				"/>
			</g>
		</g>
	</g>
	<g>
		<g>
			<polygon fill="#81B8A3" points="35.387,52.742 30.177,50.632 30.177,40.993 35.387,42.908 			"/>
			<path fill="#831A1F" d="M35.71,53.363l-5.842-2.377V40.4l5.842,2.136V53.363z M30.487,50.276l4.579,1.848v-8.845l-4.579-1.691
				V50.276z"/>
		</g>
		<g>
			<polygon fill="#831A1F" points="35.819,62.367 29.763,59.694 29.763,50.766 35.819,53.227 			"/>
		</g>
		<g>
			<g>
				<polygon fill="#6A1216" points="30.173,59.874 29.637,59.64 29.637,50.323 30.173,50.54 				"/>
			</g>
			<g>
				<polygon fill="#6A1216" points="30.982,60.23 30.442,59.994 30.442,50.649 30.982,50.867 				"/>
			</g>
			<g>
				<polygon fill="#6A1216" points="31.794,60.59 31.252,60.351 31.252,50.977 31.794,51.196 				"/>
			</g>
			<g>
				<polygon fill="#6A1216" points="32.591,60.941 32.044,60.702 32.044,51.297 32.591,51.519 				"/>
			</g>
			<g>
				<polygon fill="#6A1216" points="33.414,61.305 32.864,61.063 32.864,51.63 33.414,51.853 				"/>
			</g>
			<g>
				<polygon fill="#6A1216" points="34.245,61.671 33.69,61.427 33.69,51.965 34.245,52.188 				"/>
			</g>
			<g>
				<polygon fill="#6A1216" points="35.112,62.054 34.556,61.81 34.556,52.314 35.112,52.539 				"/>
			</g>
			<g>
				<polygon fill="#6A1216" points="35.952,62.425 35.391,62.179 35.391,52.652 35.952,52.88 				"/>
			</g>
		</g>
	</g>
	<g>
		<polygon fill="#7F7F83" points="2.934,67.493 2.078,67.048 2.078,45.656 2.934,46.022 		"/>
	</g>
	<g>
		<polygon fill="#B9BBBE" points="27.14,78.564 7.878,68.543 7.878,67.838 27.14,77.801 		"/>
	</g>
	<g>
		<g>
			<polygon fill="#7F7F83" points="4.729,47.988 0.229,46.077 0.229,44.864 4.729,46.598 			"/>
		</g>
	</g>
	<g>
		<polygon fill="#B8B7B8" points="35.952,63.784 29.637,60.965 29.637,59.64 35.952,62.425 		"/>
	</g>
	<g>
		<polygon fill="#B8B7B8" points="36.91,77.624 30.964,74.666 30.964,73.999 36.91,76.942 		"/>
	</g>
	<g>
		<polygon fill="#B8B7B8" points="26.511,59.568 20.638,56.948 20.638,55.668 26.511,58.26 		"/>
	</g>
	<g>
		<polygon fill="#B8B7B8" points="52.975,71.645 48.563,69.694 24.915,32.498 7.54,49.66 4.729,48.749 4.729,46.598 6.438,46.763 
			26.835,26.744 34.542,39.215 41.09,49.813 48.933,62.506 		"/>
	</g>
	<polygon fill="#D6B03F" points="93.238,67.856 57.409,85.07 57.409,59.534 93.238,44.266 	"/>
	<g>
		<polygon fill="#81B8A3" points="78.416,67.378 73.271,69.888 73.271,60.113 78.416,57.8 		"/>
		<path fill="#831A1F" d="M78.722,67.706l-5.769,2.823V59.769l5.769-2.584V67.706z M73.588,69.247l4.521-2.197v-8.636l-4.521,2.042
			V69.247z"/>
	</g>
	<g>
		<polygon fill="#81B8A3" points="87.915,62.748 83.149,65.071 83.149,55.671 87.915,53.527 		"/>
		<path fill="#831A1F" d="M88.197,63.068l-5.343,2.615V55.335l5.343-2.394V63.068z M83.444,64.461l4.188-2.033v-8.314l-4.188,1.892
			V64.461z"/>
	</g>
	<polygon fill="#74151A" points="67.223,12.897 25.031,25.05 54.001,72.092 100,52.18 	"/>
	<polygon fill="#52090E" points="25.775,28.003 6.327,47.289 4.729,47.988 25.038,27.396 	"/>
	<g>
		<g>
			<polygon fill="#831A1F" points="53.19,73.116 25.038,27.396 4.729,47.988 4.729,46.598 25.031,25.05 54.085,71.984 			"/>
		</g>
	</g>
	<polygon fill="#4E070C" points="99.399,52.784 53.19,73.116 54.085,71.984 100,52.18 	"/>
	<polygon fill="#B8B7B8" points="93.188,57.967 57.41,73.999 57.404,70.735 93.188,55.083 	"/>
	<g>
		<g>
			<polygon fill="#E8BE46" points="61.409,38.634 57.404,32.269 57.404,21.311 61.409,22.9 			"/>
		</g>
		<polygon fill="#D6B03F" points="65.151,37.035 61.409,38.56 61.409,22.9 65.151,21.382 		"/>
		<polygon fill="#E8BE46" points="65.151,21.382 61.409,22.9 57.404,21.311 61.229,20.045 		"/>
		<polygon fill="#220908" points="63.597,21.472 61.277,22.185 58.813,21.32 61.042,20.594 		"/>
	</g>
</g>
</svg>
