 

<svg xmlns:agg="http://www.example.com" xmlns="http://www.w3.org/2000/svg" preserveAspectRatio="none" width="0.9287in" height="1.0750in" viewBox="0 0 863 999">

<path style="fill:#000" d="M132,803 l111,0 0,125 -4,6 -11,4 -19,3 -21,1 -21,-1 -19,-3 -12,-4 -4,-6 0,-125z" />
<path style="fill:#000" d="M389,803 l112,0 0,125 -4,6 -12,4 -19,3 -21,1 -21,-1 -19,-3 -12,-4 -4,-6 0,-125z" />
<path style="fill:#000" d="M835,828 l-258,0 0,-11 258,0 0,11z" />
<path style="fill:#000" d="M612,817 l-445,0 0,-14 445,0 0,14z" />
<path style="fill:#000;stroke:#000;stroke-width:2" d="M828,775 l0,-62 -4,0 0,7 4,0 0,55z" />
<path style="fill:#000;stroke:#000;stroke-width:2" d="M605,748 l0,-63 4,0 0,7 -4,0 0,56z" />
<path style="fill:#000;stroke:#000;stroke-width:2" d="M584,647 l0,-63 4,0 0,7 -4,0 0,56z" />
<path style="fill:#000;stroke:#000;stroke-width:2" d="M438,616 l0,-63 4,0 0,7 -4,0 0,56z" />
<path style="fill:#000;stroke:#000;stroke-width:2" d="M174,616 l0,-63 -4,0 0,7 4,0 0,56z" />
<path style="fill:#000;stroke:#000;stroke-width:2" d="M150,682 l0,-63 -4,0 0,7 4,0 0,56z" />
<path style="fill:#000;stroke:#000;stroke-width:2" d="M62,748 l0,-63 4,0 0,7 -4,0 0,56z" />
<path style="fill:none;stroke:#f00;stroke-width:2" d="M364,550 l-43,-522 -28,0 -43,522 106,-75 -91,-65 85,-52 -85,0 85,52 -93,65 107,75" />
<path style="fill:none;stroke:#f00;stroke-width:2" d="M321,28 l-28,18 28,24 -28,23 35,28 -42,37 50,37 -57,0 49,-37 -42,-37 35,-28 -28,-23 28,-24 -28,-18" />
<path style="fill:none;stroke:#fff;stroke-width:2" d="M336,270 l-57,-37" />
<path style="fill:none;stroke:#fff;stroke-width:2" d="M350,358 l-78,-51 64,-37" />
<path style="fill:none;stroke:#fff;stroke-width:2" d="M279,233 l57,-38" />
<path style="fill:none;stroke:#fff;stroke-width:2" d="M279,195 l57,38 -57,37 64,37 -78,51" />
<path style="fill:#c9c9c9;stroke:#000;stroke-width:2" d="M396,549 l-180,0 0,66 180,0 0,-66z" />
<path style="fill:#6b6b6b;stroke:#000;stroke-width:2" d="M584,647 l-139,0 0,101 139,0 0,-101z" />
<path style="fill:#505050;stroke:#000;stroke-width:2" d="M668,817 l111,0 0,125 -4,6 -12,4 -19,3 -21,1 -21,-1 -18,-3 -12,-4 -4,-6 0,-125z" />
<path style="fill:#c5c5c5;stroke:#000;stroke-width:2" d="M445,615 l-278,0 0,67 278,0 0,-67z" />
<path style="fill:#acacac;stroke:#000;stroke-width:2" d="M469,682 l-326,0 0,66 326,0 0,-66z" />
<path style="fill:#505050" d="M501,706 l-70,0 0,7 70,0 0,-7z" />
<path style="fill:#cecece;stroke:#000;stroke-width:2" d="M612,748 l-556,0 0,55 556,0 0,-55z" />
<path style="fill:#353535" d="M334,789 l111,0 0,167 -4,6 -12,4 -19,3 -21,1 -20,-1 -19,-3 -12,-4 -4,-6 0,-167z" />
<path style="fill:#868686" d="M338,789 l103,0 0,173 -12,4 -19,3 -21,1 -20,-1 -19,-3 -12,-4 0,-173z" />
<path style="fill:#b6b6b6" d="M350,789 l79,0 0,177 -19,3 -21,1 -20,-1 -19,-3 0,-177z" />
<path style="fill:#cecece" d="M369,789 l41,0 0,180 -21,1 -20,-1 0,-180z" />
<path style="fill:none;stroke:#000;stroke-width:2" d="M334,789 l111,0 0,167 -4,6 -12,4 -19,3 -21,1 -20,-1 -19,-3 -12,-4 -4,-6 0,-167" />
<path style="fill:#505050" d="M56,803 l111,0 0,153 -4,6 -12,4 -19,3 -21,1 -21,-1 -19,-3 -11,-4 -4,-6 0,-153z" />
<path style="fill:#9e9e9e" d="M71,803 l80,0 0,163 -19,3 -21,1 -21,-1 -19,-3 0,-163z" />
<path style="fill:none;stroke:#000;stroke-width:2" d="M56,803 l111,0 0,153 -4,6 -12,4 -19,3 -21,1 -21,-1 -19,-3 -11,-4 -4,-6 0,-153" />
<path style="fill:#e6e6e6;stroke:#000;stroke-width:2" d="M445,789 l-111,0 4,6 12,4 19,3 20,1 21,-1 19,-3 12,-4 4,-6z" />
<path style="fill:none;stroke:#fc0;stroke-width:2" d="M334,769 l4,2 12,2 19,2 20,0 21,0 19,-2 12,-2 4,-2" />
<path style="fill:none;stroke:#fc0;stroke-width:2" d="M445,769 l0,20" />
<path style="fill:none;stroke:#fc0;stroke-width:2" d="M410,803 l0,-28" />
<path style="fill:none;stroke:#fc0;stroke-width:2" d="M369,803 l0,-28" />
<path style="fill:none;stroke:#fc0;stroke-width:2" d="M334,789 l0,-20" />
<path style="fill:none;stroke:#fc0;stroke-width:2" d="M334,779 l4,6 12,4 19,3 20,1 21,-1 19,-3 12,-4 4,-6" />
<path style="fill:#b6b6b6;stroke:#000;stroke-width:2" d="M835,775 l-223,0 0,42 223,0 0,-42z" />
<path style="fill:#e6e6e6;stroke:#000;stroke-width:2" d="M821,734 l-195,0 0,-14 195,0 0,14z" />
<path style="fill:none;stroke:#f00;stroke-width:2" d="M821,720 l-195,0" />
<path style="fill:#9e9e9e;stroke:#000;stroke-width:2" d="M793,775 l-139,0 0,-41 139,0 0,41z" />
<path style="fill:#868686;stroke:#000;stroke-width:2" d="M542,727 l-153,0 0,21 153,0 0,-21z" />
<path style="fill:#9e9e9e;stroke:#000;stroke-width:2" d="M522,713 l-112,0 0,14 112,0 0,-14z" />
<path style="fill:none;stroke:#fc0;stroke-width:2" d="M612,720 l-556,0" />
<path style="fill:none;stroke:#fc0;stroke-width:2" d="M612,734 l-556,0" />
<path style="fill:none;stroke:#fc0;stroke-width:2" d="M612,720 l0,28" />
<path style="fill:none;stroke:#fc0;stroke-width:2" d="M389,720 l0,28" />
<path style="fill:none;stroke:#fc0;stroke-width:2" d="M167,720 l0,28" />
<path style="fill:none;stroke:#fc0;stroke-width:2" d="M556,720 l0,28" />
<path style="fill:none;stroke:#fc0;stroke-width:2" d="M334,720 l0,28" />
<path style="fill:none;stroke:#fc0;stroke-width:2" d="M111,720 l0,28" />
<path style="fill:none;stroke:#fc0;stroke-width:2" d="M501,720 l0,28" />
<path style="fill:none;stroke:#fc0;stroke-width:2" d="M278,720 l0,28" />
<path style="fill:none;stroke:#fc0;stroke-width:2" d="M56,720 l0,28" />
<path style="fill:none;stroke:#fc0;stroke-width:2" d="M445,720 l0,28" />
<path style="fill:none;stroke:#fc0;stroke-width:2" d="M223,720 l0,28" />
<path style="fill:none;stroke:#fc0;stroke-width:2" d="M835,748 l-223,0" />
<path style="fill:none;stroke:#fc0;stroke-width:2" d="M835,761 l-223,0" />
<path style="fill:none;stroke:#fc0;stroke-width:2" d="M723,748 l0,27" />
<path style="fill:none;stroke:#fc0;stroke-width:2" d="M667,748 l0,27" />
<path style="fill:none;stroke:#fc0;stroke-width:2" d="M834,748 l0,27" />
<path style="fill:none;stroke:#fc0;stroke-width:2" d="M612,748 l0,27" />
<path style="fill:none;stroke:#fc0;stroke-width:2" d="M779,748 l0,27" />
<path style="fill:none;stroke:#fc0;stroke-width:2" d="M421,682 l0,-28" />
<path style="fill:none;stroke:#fc0;stroke-width:2" d="M365,682 l0,-28" />
<path style="fill:none;stroke:#fc0;stroke-width:2" d="M310,682 l0,-28" />
<path style="fill:none;stroke:#fc0;stroke-width:2" d="M254,682 l0,-28" />
<path style="fill:none;stroke:#fc0;stroke-width:2" d="M198,682 l0,-28" />
<path style="fill:none;stroke:#fc0;stroke-width:2" d="M143,682 l0,-28 278,0" />
<path style="fill:none;stroke:#fc0;stroke-width:2" d="M143,668 l278,0" />
<path style="fill:#595959;stroke:#000;stroke-width:2" d="M542,706 l0,-42 -41,-42 -84,0 0,84 125,0z" />
<path style="fill:#e6e6e6" d="M536,664 l-35,-35 -14,0 14,35 35,0z" />
<path style="fill:none;stroke:#fff;stroke-width:2" d="M209,650 l-28,28" />
<path style="fill:none;stroke:#fff;stroke-width:2" d="M275,643 l-39,39 -27,-32" />
<path style="fill:none;stroke:#fff;stroke-width:2" d="M181,678 l-28,-28" />
<path style="fill:none;stroke:#fff;stroke-width:2" d="M153,678 l28,-28 28,28 27,-31 39,38" />
<path style="fill:#474747" d="M459,647 l-31,0 0,45 31,0 0,-45z" />
<path style="fill:none;stroke:#fc0;stroke-width:2" d="M445,615 l0,-27" />
<path style="fill:none;stroke:#fc0;stroke-width:2" d="M389,615 l0,-27" />
<path style="fill:none;stroke:#fc0;stroke-width:2" d="M334,615 l0,-27" />
<path style="fill:none;stroke:#fc0;stroke-width:2" d="M278,615 l0,-27" />
<path style="fill:none;stroke:#fc0;stroke-width:2" d="M223,615 l0,-27" />
<path style="fill:none;stroke:#fc0;stroke-width:2" d="M167,615 l0,-27 278,0" />
<path style="fill:none;stroke:#fc0;stroke-width:2" d="M167,601 l278,0" />
<path style="fill:#505050" d="M389,567 l-166,0 0,14 166,0 0,-14z" />
<path style="fill:#505050" d="M250,633 l-69,0 0,14 69,0 0,-14z" />
<path style="fill:none;stroke:#f00;stroke-width:2" d="M417,636 l-389,21 0,14 389,21 -55,-52 -49,45 -38,-42 0,42 38,-42 49,45 55,-52" />
<path style="fill:none;stroke:#f00;stroke-width:2" d="M28,657 l14,14 17,-14 18,14 20,-17 28,21 28,-25 0,28 -28,-24 -28,21 -20,-18 -18,14 -17,-14 -14,14" />
<path style="fill:#000" d="M393,490 l-7,0 0,59 7,0 0,-59z" />
<path style="fill:none;stroke:#000;stroke-width:2" d="M389,490 l0,-62" />

</svg>
