<?xml version="1.0" encoding="utf-8"?>
<!-- Generator: Adobe Illustrator 16.0.0, SVG Export Plug-In . SVG Version: 6.00 Build 0)  -->
<!DOCTYPE svg PUBLIC "-//W3C//DTD SVG 1.1//EN" "http://www.w3.org/Graphics/SVG/1.1/DTD/svg11.dtd">
<svg version="1.1" id="图层_1" xmlns="http://www.w3.org/2000/svg" preserveAspectRatio="none" xmlns:xlink="http://www.w3.org/1999/xlink" x="0px" y="0px"
	 width="100px" height="100px" viewBox="0 0 100 100" enable-background="new 0 0 100 100" xml:space="preserve">
<g>
	<g>
		<polygon fill="#418538" points="72.618,89.708 -0.242,89.708 -0.242,85.019 27.14,72.67 100,64.232 100,68.921 		"/>
		<polygon fill="#A5BE3C" points="72.618,85.019 -0.242,85.019 27.14,64.232 100,64.232 		"/>
		<rect x="-0.242" y="85.019" fill="#71B73C" width="72.86" height="4.689"/>
	</g>
</g>
<g>
	<polygon fill="#EEEB8F" points="17.057,37.709 25.623,31.206 50.843,31.207 42.278,37.709 	"/>
	<rect x="36.521" y="19.46" fill="#EFE332" width="25.222" height="58.687"/>
	<g>
		<g>
			<rect x="39.035" y="31.697" fill="#F0A434" width="3.674" height="3.313"/>
			<rect x="39.035" y="36.362" fill="#F0A434" width="3.674" height="3.313"/>
			<rect x="39.035" y="22.368" fill="#F0A434" width="3.674" height="3.314"/>
			<rect x="39.035" y="27.033" fill="#F0A434" width="3.674" height="3.314"/>
			<rect x="39.035" y="41.026" fill="#F0A434" width="3.674" height="3.314"/>
			<rect x="39.035" y="45.69" fill="#F0A434" width="3.674" height="3.314"/>
			<rect x="39.035" y="50.354" fill="#F0A434" width="3.674" height="3.314"/>
			<rect x="39.035" y="55.019" fill="#F0A434" width="3.674" height="3.314"/>
			<rect x="39.035" y="59.684" fill="#F0A434" width="3.674" height="3.314"/>
			<rect x="39.035" y="64.348" fill="#F0A434" width="3.674" height="3.314"/>
		</g>
		<g>
			<rect x="44.542" y="31.697" fill="#F0A434" width="3.674" height="3.313"/>
			<rect x="44.542" y="36.362" fill="#F0A434" width="3.674" height="3.313"/>
			<rect x="44.542" y="22.368" fill="#F0A434" width="3.674" height="3.314"/>
			<rect x="44.542" y="27.033" fill="#F0A434" width="3.674" height="3.314"/>
			<rect x="44.542" y="41.026" fill="#F0A434" width="3.674" height="3.314"/>
			<rect x="44.542" y="45.69" fill="#F0A434" width="3.674" height="3.314"/>
			<rect x="44.542" y="50.354" fill="#F0A434" width="3.674" height="3.314"/>
			<rect x="44.542" y="55.019" fill="#F0A434" width="3.674" height="3.314"/>
			<rect x="44.542" y="59.684" fill="#F0A434" width="3.674" height="3.314"/>
			<rect x="44.542" y="64.348" fill="#F0A434" width="3.674" height="3.314"/>
		</g>
		<g>
			<rect x="50.049" y="31.697" fill="#F0A434" width="3.674" height="3.313"/>
			<rect x="50.049" y="36.362" fill="#F0A434" width="3.674" height="3.313"/>
			<rect x="50.049" y="22.368" fill="#F0A434" width="3.674" height="3.314"/>
			<rect x="50.049" y="27.033" fill="#F0A434" width="3.674" height="3.314"/>
			<rect x="50.049" y="41.026" fill="#F0A434" width="3.674" height="3.314"/>
			<rect x="50.049" y="45.69" fill="#F0A434" width="3.674" height="3.314"/>
			<rect x="50.049" y="50.354" fill="#F0A434" width="3.674" height="3.314"/>
			<rect x="50.049" y="55.019" fill="#F0A434" width="3.674" height="3.314"/>
			<rect x="50.049" y="59.684" fill="#F0A434" width="3.674" height="3.314"/>
			<rect x="50.049" y="64.348" fill="#F0A434" width="3.674" height="3.314"/>
		</g>
		<g>
			<rect x="55.556" y="31.697" fill="#F0A434" width="3.675" height="3.313"/>
			<rect x="55.556" y="36.362" fill="#F0A434" width="3.675" height="3.313"/>
			<rect x="55.556" y="22.368" fill="#F0A434" width="3.675" height="3.314"/>
			<rect x="55.556" y="27.033" fill="#F0A434" width="3.675" height="3.314"/>
			<rect x="55.556" y="41.026" fill="#F0A434" width="3.675" height="3.314"/>
			<rect x="55.556" y="45.69" fill="#F0A434" width="3.675" height="3.314"/>
			<rect x="55.556" y="50.354" fill="#F0A434" width="3.675" height="3.314"/>
			<rect x="55.556" y="55.019" fill="#F0A434" width="3.675" height="3.314"/>
			<rect x="55.556" y="59.684" fill="#F0A434" width="3.675" height="3.314"/>
			<rect x="55.556" y="64.348" fill="#F0A434" width="3.675" height="3.314"/>
		</g>
	</g>
	<rect x="17.057" y="37.709" fill="#EFE332" width="19.464" height="40.556"/>
	<g>
		<g>
			<rect x="19.445" y="50.559" fill="#F0A434" width="3.674" height="3.315"/>
			<rect x="19.445" y="55.225" fill="#F0A434" width="3.674" height="3.313"/>
			<rect x="19.445" y="41.231" fill="#F0A434" width="3.674" height="3.313"/>
			<rect x="19.445" y="45.896" fill="#F0A434" width="3.674" height="3.314"/>
			<rect x="19.445" y="59.888" fill="#F0A434" width="3.674" height="3.315"/>
			<rect x="19.445" y="64.554" fill="#F0A434" width="3.674" height="3.313"/>
		</g>
		<g>
			<rect x="24.952" y="50.559" fill="#F0A434" width="3.675" height="3.315"/>
			<rect x="24.952" y="55.225" fill="#F0A434" width="3.675" height="3.313"/>
			<rect x="24.952" y="41.231" fill="#F0A434" width="3.675" height="3.313"/>
			<rect x="24.952" y="45.896" fill="#F0A434" width="3.675" height="3.314"/>
			<rect x="24.952" y="59.888" fill="#F0A434" width="3.675" height="3.315"/>
			<rect x="24.952" y="64.554" fill="#F0A434" width="3.675" height="3.313"/>
		</g>
		<g>
			<rect x="30.46" y="50.559" fill="#F0A434" width="3.674" height="3.315"/>
			<rect x="30.46" y="55.225" fill="#F0A434" width="3.674" height="3.313"/>
			<rect x="30.46" y="41.231" fill="#F0A434" width="3.674" height="3.313"/>
			<rect x="30.46" y="45.896" fill="#F0A434" width="3.674" height="3.314"/>
			<rect x="30.46" y="59.888" fill="#F0A434" width="3.674" height="3.315"/>
			<rect x="30.46" y="64.554" fill="#F0A434" width="3.674" height="3.313"/>
		</g>
	</g>
	<polygon fill="#BC9036" points="61.743,78.147 70.309,71.646 70.309,12.959 61.743,19.46 	"/>
	<g>
		<polygon fill="#BC9036" points="76.455,28.437 76.455,78.147 83.119,73.09 83.119,23.379 		"/>
		<rect x="61.743" y="28.437" fill="#EFE332" width="14.712" height="49.711"/>
		<rect x="17.057" y="69.622" fill="#912722" width="59.398" height="8.643"/>
		<polygon fill="#55100F" points="76.455,69.622 76.455,78.147 83.119,73.09 83.119,64.563 		"/>
		<g>
			<g>
				<rect x="64.508" y="31.737" fill="#F0A434" width="3.675" height="3.313"/>
				<rect x="64.508" y="36.401" fill="#F0A434" width="3.675" height="3.315"/>
				<rect x="64.508" y="41.067" fill="#F0A434" width="3.675" height="3.314"/>
				<rect x="64.508" y="45.73" fill="#F0A434" width="3.675" height="3.315"/>
				<rect x="64.508" y="50.395" fill="#F0A434" width="3.675" height="3.314"/>
				<rect x="64.508" y="55.06" fill="#F0A434" width="3.675" height="3.313"/>
				<rect x="64.508" y="59.725" fill="#F0A434" width="3.675" height="3.314"/>
			</g>
			<g>
				<rect x="70.016" y="31.737" fill="#F0A434" width="3.675" height="3.313"/>
				<rect x="70.016" y="36.401" fill="#F0A434" width="3.675" height="3.315"/>
				<rect x="70.016" y="41.067" fill="#F0A434" width="3.675" height="3.314"/>
				<rect x="70.016" y="45.73" fill="#F0A434" width="3.675" height="3.315"/>
				<rect x="70.016" y="50.395" fill="#F0A434" width="3.675" height="3.314"/>
				<rect x="70.016" y="55.06" fill="#F0A434" width="3.675" height="3.313"/>
				<rect x="70.016" y="59.725" fill="#F0A434" width="3.675" height="3.314"/>
			</g>
		</g>
		<polygon fill="#EEEB8F" points="61.743,28.437 68.407,23.378 83.119,23.379 76.455,28.437 		"/>
	</g>
	<g>
		<rect x="44.61" y="56.938" fill="#EFE332" width="14.273" height="24.646"/>
		<g>
			<g>
				<rect x="47.156" y="68.511" fill="#F0A434" width="3.674" height="3.314"/>
				<rect x="47.156" y="59.182" fill="#F0A434" width="3.674" height="3.314"/>
				<rect x="47.156" y="63.847" fill="#F0A434" width="3.674" height="3.314"/>
			</g>
			<g>
				<rect x="52.662" y="68.511" fill="#F0A434" width="3.675" height="3.314"/>
				<rect x="52.662" y="59.182" fill="#F0A434" width="3.675" height="3.314"/>
				<rect x="52.662" y="63.847" fill="#F0A434" width="3.675" height="3.314"/>
			</g>
		</g>
		<polygon fill="#BC9036" points="58.883,56.938 58.883,81.584 63.41,78.147 63.41,53.502 		"/>
		<polygon fill="#EEEB8F" points="58.883,56.938 44.61,56.938 49.136,53.502 63.41,53.502 		"/>
	</g>
	<polygon fill="#EEEB8F" points="36.521,19.46 45.087,12.959 70.309,12.959 61.743,19.46 	"/>
	<rect x="49.055" y="74.109" fill="#F0A434" width="5.201" height="7.475"/>
</g>
</svg>
