 

<svg xmlns:agg="http://www.example.com" xmlns="http://www.w3.org/2000/svg" preserveAspectRatio="none" width="1.3129in" height="1.0750in" viewBox="0 0 999 818">

<path style="fill:#e6e6e6;stroke:#000;stroke-width:2" d="M129,82 l-101,0 0,18 101,0 0,-18z" />
<path style="fill:#e6e6e6;stroke:#000;stroke-width:2" d="M129,100 l405,405 0,-19 -405,-404 0,18z" />
<path style="fill:#e6e6e6;stroke:#000;stroke-width:2" d="M635,486 l-101,0 0,19 101,0 0,-19z" />
<path style="fill:#e6e6e6;stroke:#000;stroke-width:2" d="M635,505 l285,285 16,0 -301,-304 0,19z" />
<path style="fill:#e6e6e6;stroke:#000;stroke-width:2" d="M635,774 l0,-269 -101,0 0,269 6,0 0,-262 86,0 0,262 9,0z" />
<path style="fill:#e6e6e6;stroke:#000;stroke-width:2" d="M129,205 l0,-105 -101,0 0,105 9,0 0,-98 82,0 0,68 0,-46 0,76 10,0z" />
<path style="fill:#b6b6b6;stroke:#000;stroke-width:2" d="M626,565 l-86,0 0,10 86,0 0,-10z" />
<path style="fill:#b6b6b6;stroke:#000;stroke-width:2" d="M626,692 l-86,0 0,9 86,0 0,-9z" />
<path style="fill:#b6b6b6;stroke:#000;stroke-width:2" d="M626,629 l-86,0 0,9 86,0 0,-9z" />
<path style="fill:#b6b6b6;stroke:#000;stroke-width:2" d="M119,164 l-82,0 0,6 82,0 0,-6z" />
<path style="fill:#868686;stroke:#000;stroke-width:2" d="M626,565 l-35,-25 35,-28 -10,0 -32,22 -34,-22 -10,0 35,28 -35,25 10,0 34,-15 32,15 10,0z" />
<path style="fill:#868686;stroke:#000;stroke-width:2" d="M626,629 l-35,-26 35,-28 -10,0 -32,22 -34,-22 -10,0 35,28 -35,26 10,0 34,-16 32,16 10,0z" />
<path style="fill:#868686;stroke:#000;stroke-width:2" d="M626,692 l-35,-25 35,-29 -10,0 -32,22 -34,-22 -10,0 35,29 -35,25 10,0 34,-16 32,16 10,0z" />
<path style="fill:#868686;stroke:#000;stroke-width:2" d="M626,755 l-35,-25 35,-29 -10,0 -32,23 -34,-23 -10,0 35,29 -35,25 10,0 34,-16 32,16 10,0z" />
<path style="fill:#868686;stroke:#000;stroke-width:2" d="M119,164 l-31,-26 31,-31 -6,0 -35,22 -34,-22 -7,0 32,31 -32,26 7,0 34,-19 35,19 6,0z" />
<path style="fill:none;stroke:#000;stroke-width:2" d="M129,56 l-101,0" />
<path style="fill:none;stroke:#000;stroke-width:2" d="M534,486 l0,-50 -51,0 0,-51 -50,0 0,-50 -51,0 0,-51 -51,0 0,-51 -50,0 0,-50 -51,0 0,-51 -50,0 0,-50 -51,0 0,-48" />
<path style="fill:none;stroke:#000;stroke-width:2" d="M635,461 l-101,0" />
<path style="fill:none;stroke:#000;stroke-width:2" d="M635,436 l0,50 51,0 0,51 47,0 0,51 51,0 0,50 50,0 0,51 51,0 0,50 51,0 0,51" />
<path style="fill:#9e9e9e;stroke:#000;stroke-width:2" d="M970,774 l0,-6 -335,-335 -101,0 -405,-405 -101,0 0,6 101,0 405,402 101,0 335,338z" />

</svg>
