 

<svg xmlns:agg="http://www.example.com" xmlns="http://www.w3.org/2000/svg" preserveAspectRatio="none" width="0.4702in" height="1.0750in" viewBox="0 0 437 999">

<path style="fill:#333;stroke:#000;stroke-width:2" d="M269,962 l16,-24 9,-25 4,-27 -4,-27 -6,-5 13,-25 7,-27 -1,-28 -12,-23 -7,-4 15,-25 11,-23 9,-24 3,-28 -19,-21 -3,-1 8,-25 14,-24 13,-27 5,-29 -7,-26 -6,-11 8,-25 11,-33 8,-26 7,-27 5,-26 -4,-27 -1,-4 20,-24 13,-27 8,-28 2,-20 0,-5 0,-5 -5,-28 -4,-5 -8,-28 -6,-31 -5,-28 -8,-26 -25,-9 -24,0 -1,-6 -2,-4 -3,-2 -30,3 -23,-4 -2,-4 0,-6 -8,0 -25,8 -22,15 -29,11 -8,0 -23,-17 -29,-5 -30,6 -25,13 -4,3 -25,13 -6,23 0,5 0,5 2,28 4,31 4,27 1,30 7,28 12,26 11,25 5,27 0,28 4,29 8,26 11,27 11,24 8,19 -8,27 5,28 7,26 7,28 -1,28 -6,25 3,32 10,31 10,24 -2,28 -3,27 2,28 7,27 4,12 -6,29 2,30 8,26 15,23 27,6 20,2 4,0 3,0 28,-2 17,-6z" />
<path style="fill:#666" d="M254,931 l17,-22 13,-30 -2,-28 -17,-12 -6,6 -1,0 0,-1 9,-26 8,-29 5,-30 1,-19 -21,12 -1,-1 -1,-1 6,-26 8,-24 7,-28 3,-30 -3,-29 4,-31 10,-25 11,-27 8,-28 -16,-19 -17,24 -9,7 -1,0 -1,-2 7,-32 8,-26 10,-29 10,-28 9,-25 7,-28 0,-2 17,-26 10,-25 7,-26 4,-28 -4,-26 13,-26 0,-5 -1,-4 -27,-16 -34,-2 -8,-28 -20,-21 -19,-8 -6,-1 -5,0 -26,9 -24,16 -15,2 -24,-16 -28,2 -24,14 -21,20 -1,10 0,4 0,5 3,28 3,27 4,29 24,14 14,17 0,1 -24,12 -11,25 14,26 6,8 -1,28 0,28 6,29 7,25 11,32 -3,29 7,25 6,26 2,12 13,23 -16,21 -11,24 3,33 10,28 12,24 -6,25 -2,31 2,28 9,16 5,-1 -6,32 0,30 8,25 28,12 14,2 5,0 5,0 26,-7 4,-2z" />
<path style="fill:#999" d="M242,881 l5,-30 7,-26 -7,-29 -6,-29 -5,-29 -5,-30 21,-17 8,1 0,-35 -10,-32 7,-29 7,-27 0,-29 -14,-3 -25,-22 -18,-24 2,-28 18,-19 25,-19 20,-16 20,-25 -6,-29 -9,-25 7,-24 23,-15 12,-7 5,-10 1,-4 0,-4 -22,-17 -11,-30 0,-22 -1,-1 -2,0 -23,14 -27,-8 0,-6 -12,-15 -25,15 -13,4 -28,-25 -25,-18 -5,-2 -4,-1 -3,1 -9,24 -6,9 -5,1 -4,7 0,3 0,3 10,26 16,23 22,23 22,16 26,14 14,15 -26,15 -28,8 -23,12 1,31 5,6 11,25 13,25 5,27 -7,29 -4,7 9,24 14,22 12,24 4,29 -20,23 -8,3 -1,1 2,32 8,26 11,27 12,25 12,19 -29,9 -14,26 3,18 3,1 2,-1 10,24 -1,30 3,25 1,0 10,-10 22,17 5,3 2,1 2,-1 11,-20z" />

</svg>
