 

<svg xmlns:agg="http://www.example.com" xmlns="http://www.w3.org/2000/svg" preserveAspectRatio="none" width="0.5596in" height="1.0750in" viewBox="0 0 520 999">

<path style="fill:#333;stroke:#000;stroke-width:2" d="M167,516 l-2,0 -8,6 -1,3 3,6 6,2 5,0 5,-2 4,-6 -6,-8 -3,-1 -3,0z" />
<path style="fill:#e5e5e5;stroke:#000;stroke-width:2" d="M131,589 l-26,-37 26,-36 19,36 -19,37z" />
<path style="fill:#999;stroke:#000;stroke-width:2" d="M131,589 l-64,0 -26,-37 64,0 26,37z" />
<path style="fill:#ccc;stroke:#000;stroke-width:2" d="M105,552 l26,-36 -67,0 -27,36 68,0z" />
<ellipse style="fill:#ccc;stroke:#000;stroke-width:2" cx="152" cy="551" rx="38" ry="31" />
<ellipse style="fill:#e5e5e5;stroke:#000;stroke-width:2" cx="164" cy="551" rx="25" ry="31" />
<ellipse style="fill:#999;stroke:#000;stroke-width:2" cx="80" cy="959" rx="35" ry="10" />
<path style="fill:#ccc" d="M454,67 l0,-35 -426,0 0,35 426,0z" />
<path style="fill:#d9d9d9" d="M454,65 l0,-30 -426,0 0,30 426,0z" />
<path style="fill:#e5e5e5" d="M454,62 l0,-23 -426,0 0,23 426,0z" />
<path style="fill:#f2f2f2" d="M454,56 l0,-13 -426,0 0,13 426,0z" />
<path style="fill:#fff" d="M454,52 l0,-3 -426,0 0,3 426,0z" />
<path style="fill:none;stroke:#000;stroke-width:2" d="M454,67 l0,-35 -426,0 0,35 426,0" />
<path style="fill:#ccc" d="M99,28 l-35,0 0,933 35,0 0,-933z" />
<path style="fill:#d9d9d9" d="M96,28 l-31,0 0,933 31,0 0,-933z" />
<path style="fill:#e5e5e5" d="M92,28 l-23,0 0,933 23,0 0,-933z" />
<path style="fill:#f2f2f2" d="M88,28 l-13,0 0,933 13,0 0,-933z" />
<path style="fill:#fff" d="M82,28 l-3,0 0,933 3,0 0,-933z" />
<path style="fill:none;stroke:#000;stroke-width:2" d="M99,28 l-35,0 0,933 35,0 0,-933" />
<path style="fill:#b2b2b2;stroke:#000;stroke-width:2" d="M101,32 l-2,0 0,35 2,0 0,-35z" />
<path style="fill:#b2b2b2;stroke:#000;stroke-width:2" d="M64,32 l-2,0 0,35 2,0 0,-35z" />
<path style="fill:#b2b2b2;stroke:#000;stroke-width:2" d="M99,81 l0,-2 -35,0 0,2 35,0z" />
<path style="fill:#b2b2b2;stroke:#000;stroke-width:2" d="M41,32 l-2,0 0,35 2,0 0,-35z" />
<path style="fill:none;stroke:#7f7f7f;stroke-width:2" d="M96,73 l-31,0" />
<path style="fill:#b2b2b2;stroke:#000;stroke-width:2" d="M99,233 l0,-2 -35,0 0,2 35,0z" />
<path style="fill:#b2b2b2;stroke:#000;stroke-width:2" d="M99,429 l0,-2 -35,0 0,2 35,0z" />
<path style="fill:none;stroke:#7f7f7f;stroke-width:2" d="M205,65 l0,-30" />
<circle style="fill:#b2b2b2;stroke:#000;stroke-width:2" cx="205" cy="76" r="9" />
<circle style="fill:#333;stroke:#000;stroke-width:2" cx="205" cy="75" r="6" />
<path style="fill:none;stroke:#7f7f7f;stroke-width:2" d="M410,65 l0,-30" />
<path style="fill:#4c4c4c;stroke:#000;stroke-width:2" d="M491,114 l-2,-8 -6,-8 -9,-4 -12,-1 -13,-3 -5,-2 -5,-8 -2,-10 0,-3 -2,0 -11,0 -2,11 -3,7 -3,3 -9,4 -13,2 -12,2 -9,7 -4,9 0,2 8,0 107,0 7,0z" />
<ellipse style="fill:#b2b2b2;stroke:#000;stroke-width:2" cx="430" cy="96" rx="54" ry="2" />
<path style="fill:#b2b2b2;stroke:#000;stroke-width:2" d="M207,86 l-2,0 0,172 -36,62 72,0 -32,-57 -2,0 30,55 -62,0 30,-55 2,-5 0,-172z" />
<path style="fill:#b2b2b2;stroke:#000;stroke-width:2" d="M99,584 l0,-2 -35,0 0,2 35,0z" />
<path style="fill:#b2b2b2;stroke:#000;stroke-width:2" d="M99,818 l0,-2 -35,0 0,2 35,0z" />
<path style="fill:#b2b2b2;stroke:#000;stroke-width:2" d="M99,524 l0,-2 -35,0 0,2 35,0z" />
<path style="fill:#666;stroke:#000;stroke-width:2" d="M64,531 l-36,0 0,36 36,0 0,-36z" />
<path style="fill:#fff;stroke:#000;stroke-width:2" d="M58,535 l-26,0 0,13 26,0 0,-13z" />
<path style="fill:none;stroke:#f00;stroke-width:2" d="M56,546 l-11,0" />
<path style="fill:none;stroke:#7f7f7f;stroke-width:2" d="M56,546 l-1,-2 -1,-1 -1,-2 -1,-1 -2,-1 -1,0 -2,0 -2,0 -3,0 -3,1 -3,3 -1,3" />
<circle style="fill:#000;stroke:#000;stroke-width:2" cx="134" cy="527" r="8" />
<circle style="fill:#000;stroke:#fff;stroke-width:2" cx="132" cy="525" r="6" />
<ellipse style="fill:#ccc;stroke:#000;stroke-width:2" cx="164" cy="551" rx="14" ry="18" />

</svg>
