 

<svg xmlns:agg="http://www.example.com" xmlns="http://www.w3.org/2000/svg" preserveAspectRatio="none" width="0.6521in" height="1.0750in" viewBox="0 0 606 999">

<path style="fill:#ccc;stroke:#000;stroke-width:2" d="M578,970 l0,-628 -315,0 0,628 315,0z" />
<path style="fill:#999;stroke:#000;stroke-width:2" d="M469,970 l0,-98 -98,0 0,98 98,0z" />
<path style="fill:#999;stroke:#000;stroke-width:2" d="M558,460 l0,-59 -275,0 0,59 275,0z" />
<path style="fill:#999;stroke:#000;stroke-width:2" d="M509,656 l0,-59 -79,0 0,59 79,0z" />
<path style="fill:#999;stroke:#000;stroke-width:2" d="M558,538 l0,-59 -275,0 0,59 275,0z" />
<path style="fill:#999;stroke:#000;stroke-width:2" d="M411,656 l0,-59 -79,0 0,59 79,0z" />
<path style="fill:#999;stroke:#000;stroke-width:2" d="M509,735 l0,-59 -79,0 0,59 79,0z" />
<path style="fill:#999;stroke:#000;stroke-width:2" d="M411,735 l0,-59 -79,0 0,59 79,0z" />
<path style="fill:#999;stroke:#000;stroke-width:2" d="M509,813 l0,-59 -79,0 0,59 79,0z" />
<path style="fill:#999;stroke:#000;stroke-width:2" d="M411,813 l0,-59 -79,0 0,59 79,0z" />
<path style="fill:none;stroke:#000;stroke-width:2" d="M420,970 l0,-98" />
<path style="fill:#e5e5e5;stroke:#000;stroke-width:2" d="M578,342 l-236,-79 -314,0 235,79 315,0z" />
<path style="fill:#999;stroke:#000;stroke-width:2" d="M263,970 l0,-628 -235,-80 0,590 235,118z" />
<path style="fill:#666;stroke:#000;stroke-width:2" d="M249,911 l0,-59 -206,-98 0,59 206,98z" />
<path style="fill:#666;stroke:#000;stroke-width:2" d="M249,455 l0,-59 -206,-84 0,59 206,84z" />
<path style="fill:#666;stroke:#000;stroke-width:2" d="M249,533 l0,-59 -206,-83 0,59 206,83z" />
<path style="fill:#7f7f7f;stroke:#000;stroke-width:2" d="M279,288 l-8,-260 -32,0 -9,260 49,0z" />
<path style="fill:#7f7f7f;stroke:#000;stroke-width:2" d="M381,322 l-9,-294 -37,0 -9,294 55,0z" />
<path style="fill:#b2b2b2" d="M271,288 l-5,-260 -22,0 -5,260 32,0z" />
<path style="fill:#b2b2b2" d="M372,322 l-6,-294 -25,0 -6,294 37,0z" />
<path style="fill:#e5e5e5" d="M259,288 l-1,-260 -6,0 -1,260 8,0z" />
<path style="fill:#e5e5e5" d="M358,322 l-1,-294 -7,0 -1,294 9,0z" />

</svg>
