 

<svg xmlns:agg="http://www.example.com" xmlns="http://www.w3.org/2000/svg" preserveAspectRatio="none" width="0.6198in" height="1.0750in" viewBox="0 0 576 999">

<path style="fill:#999" d="M499,126 l17,0 0,34 -17,0 0,-34z" />
<path style="fill:#999" d="M499,37 l17,0 0,36 -17,0 0,-36z" />
<path style="fill:#999" d="M60,126 l17,0 0,34 -17,0 0,-34z" />
<path style="fill:#999" d="M60,37 l17,0 0,36 -17,0 0,-36z" />
<path style="fill:#e5e5e5" d="M63,37 l10,0 0,36 -10,0 0,-36z" />
<path style="fill:#e5e5e5" d="M63,126 l10,0 0,34 -10,0 0,-34z" />
<path style="fill:#e5e5e5" d="M503,37 l9,0 0,36 -9,0 0,-36z" />
<path style="fill:#e5e5e5" d="M503,126 l9,0 0,34 -9,0 0,-34z" />
<path style="fill:#633" d="M248,28 l79,0 0,942 -79,0 0,-942z" />
<path style="fill:#734033" d="M258,28 l62,0 0,942 -62,0 0,-942z" />
<path style="fill:#7f4c32" d="M265,28 l46,0 0,942 -46,0 0,-942z" />
<path style="fill:#8c5933" d="M275,28 l26,0 0,942 -26,0 0,-942z" />
<path style="fill:#963" d="M282,28 l12,0 0,942 -12,0 0,-942z" />
<path style="fill:none;stroke:#000;stroke-width:2" d="M248,28 l79,0 0,942 -79,0 0,-942" />
<path style="fill:#633" d="M548,73 l0,28 -520,0 0,-28 520,0z" />
<path style="fill:#633;stroke:#000;stroke-width:2" d="M548,160 l0,30 -520,0 0,-30 520,0z" />
<path style="fill:#734033" d="M548,163 l0,23 -520,0 0,-23 520,0z" />
<path style="fill:#734033" d="M548,75 l0,22 -520,0 0,-22 520,0z" />
<path style="fill:#7f4c32" d="M548,78 l0,17 -520,0 0,-17 520,0z" />
<path style="fill:#7f4c32" d="M548,167 l0,17 -520,0 0,-17 520,0z" />
<path style="fill:#8c5933" d="M548,171 l0,9 -520,0 0,-9 520,0z" />
<path style="fill:#8c5933" d="M548,82 l0,10 -520,0 0,-10 520,0z" />
<path style="fill:#963" d="M548,84 l0,4 -520,0 0,-4 520,0z" />
<path style="fill:#963" d="M548,173 l0,3 -520,0 0,-3 520,0z" />
<path style="fill:none;stroke:#000;stroke-width:2" d="M548,73 l0,28 -520,0 0,-28 520,0" />
<path style="fill:none;stroke:#000;stroke-width:2" d="M499,126 l17,0 0,34 -17,0 0,-34" />
<path style="fill:none;stroke:#000;stroke-width:2" d="M499,37 l17,0 0,36 -17,0 0,-36" />
<path style="fill:none;stroke:#000;stroke-width:2" d="M60,126 l17,0 0,34 -17,0 0,-34" />
<path style="fill:none;stroke:#000;stroke-width:2" d="M60,37 l17,0 0,36 -17,0 0,-36" />

</svg>
