<?xml version="1.0" encoding="utf-8"?>
<!-- Generator: Adobe Illustrator 16.0.0, SVG Export Plug-In . SVG Version: 6.00 Build 0)  -->
<!DOCTYPE svg PUBLIC "-//W3C//DTD SVG 1.1//EN" "http://www.w3.org/Graphics/SVG/1.1/DTD/svg11.dtd">
<svg version="1.1" id="图层_1" xmlns="http://www.w3.org/2000/svg" preserveAspectRatio="none" xmlns:xlink="http://www.w3.org/1999/xlink" x="0px" y="0px"
	 width="100px" height="48.956px" viewBox="0 0 100 48.956" enable-background="new 0 0 100 48.956" xml:space="preserve">
<g>
	<rect x="31.254" fill="#B9B9B8" width="6.651" height="26.739"/>
	<polygon fill="#909091" points="84.067,48.956 84.067,24.611 64.113,13.436 43.759,24.611 23.671,13.436 3.185,24.478 
		3.185,48.956 	"/>
	<polygon fill="#6C6D6C" points="84.067,25.94 84.067,22.482 63.847,11.175 43.625,22.349 23.272,11.175 3.185,22.216 3.185,25.94 
		23.538,14.5 43.625,25.94 63.979,14.5 	"/>
	<g>
		<polygon fill="#92A6D5" points="1.588,21.95 1.588,24.611 23.309,12.468 23.272,9.578 		"/>
		<polygon fill="#6C7CAF" points="23.272,9.578 23.309,12.468 43.625,23.68 43.625,20.886 		"/>
		<polygon fill="#6C7CAF" points="63.847,9.578 63.847,12.504 85.929,24.611 85.929,21.95 		"/>
		<polygon fill="#92A6D5" points="43.625,20.886 43.625,23.68 63.847,12.504 63.847,9.578 		"/>
	</g>
	<g>
		<rect x="11.112" y="27.417" fill="#454545" width="5.996" height="6.045"/>
		<rect x="20.489" y="27.417" fill="#454545" width="5.996" height="6.045"/>
		<rect x="29.747" y="27.417" fill="#454545" width="5.996" height="6.045"/>
	</g>
	<g>
		<rect x="51.493" y="27.562" fill="#454545" width="5.996" height="6.043"/>
		<rect x="60.871" y="27.562" fill="#454545" width="5.996" height="6.043"/>
		<rect x="70.129" y="27.562" fill="#454545" width="5.995" height="6.043"/>
	</g>
	<rect x="28.286" y="37.225" fill="#454545" width="30.485" height="11.73"/>
	<rect x="27.126" y="37.703" fill="#BCBCBC" width="2.319" height="11.253"/>
	<rect x="57.952" y="37.703" fill="#BCBCBC" width="2.318" height="11.253"/>
	<g>
		<rect x="25.763" y="35.928" fill="#91A5D4" width="17.902" height="2.593"/>
		<rect x="43.665" y="35.928" fill="#6B7DB0" width="17.902" height="2.593"/>
	</g>
	<g>
		<rect y="39.35" fill="#CACACA" width="3.185" height="9.605"/>
		<rect x="3.185" y="39.35" fill="#A7A7A6" width="3.292" height="9.605"/>
	</g>
	<polygon fill="#6C6D6C" points="6.476,39.35 16.042,48.956 6.476,48.956 	"/>
	<g>
		<rect x="96.494" y="41.786" fill="#485177" width="1.426" height="6.536"/>
		<rect x="91.444" y="39.35" fill="#485177" width="1.604" height="7.13"/>
		<rect x="85.739" y="37.092" fill="#485177" width="1.486" height="5.822"/>
	</g>
	<polygon fill="#92A6D5" points="84.067,36.32 87.463,36.32 100,42.321 100,44.163 87.166,38.042 84.067,38.036 	"/>
	<g>
		<rect x="84.067" y="42.083" fill="#C0A388" width="7.021" height="3.437"/>
		<rect x="84.067" y="45.519" fill="#927C67" width="7.021" height="3.437"/>
	</g>
	<polygon fill="#BABAB9" points="100,48.956 91.088,48.956 91.088,44.756 	"/>
	<polygon fill="#6C6D6C" points="61.566,35.928 74.608,48.956 60.271,48.956 60.271,38.521 61.566,38.521 	"/>
</g>
</svg>
