 

<svg xmlns:agg="http://www.example.com" xmlns="http://www.w3.org/2000/svg" preserveAspectRatio="none" width="0.6962in" height="1.0750in" viewBox="0 0 647 999">

<path style="fill:#ccc;stroke:#000;stroke-width:2" d="M618,107 l0,863 -473,0 0,-863 473,0z" />
<path style="fill:#a6bad9" d="M302,145 l-117,0 0,80 117,0 0,-80z" />
<path style="fill:#a6bad9" d="M441,145 l-118,0 0,80 118,0 0,-80z" />
<path style="fill:#a6bad9" d="M578,145 l-119,0 0,80 119,0 0,-80z" />
<path style="fill:#a6bad9" d="M302,244 l-117,0 0,79 117,0 0,-79z" />
<path style="fill:#a6bad9" d="M441,244 l-118,0 0,79 118,0 0,-79z" />
<path style="fill:#a6bad9" d="M578,244 l-119,0 0,79 119,0 0,-79z" />
<path style="fill:#a6bad9" d="M302,342 l-117,0 0,79 117,0 0,-79z" />
<path style="fill:#a6bad9" d="M441,342 l-118,0 0,79 118,0 0,-79z" />
<path style="fill:#a6bad9" d="M578,342 l-119,0 0,79 119,0 0,-79z" />
<path style="fill:#a6bad9" d="M302,440 l-117,0 0,80 117,0 0,-80z" />
<path style="fill:#a6bad9" d="M441,440 l-118,0 0,80 118,0 0,-80z" />
<path style="fill:#a6bad9" d="M578,440 l-119,0 0,80 119,0 0,-80z" />
<path style="fill:#a6bad9" d="M302,539 l-117,0 0,77 117,0 0,-77z" />
<path style="fill:#a6bad9" d="M441,539 l-118,0 0,77 118,0 0,-77z" />
<path style="fill:#a6bad9" d="M578,539 l-119,0 0,77 119,0 0,-77z" />
<path style="fill:#a6bad9" d="M302,637 l-117,0 0,78 117,0 0,-78z" />
<path style="fill:#a6bad9" d="M441,637 l-118,0 0,78 118,0 0,-78z" />
<path style="fill:#a6bad9" d="M578,637 l-119,0 0,78 119,0 0,-78z" />
<path style="fill:#a6bad9" d="M302,736 l-117,0 0,77 117,0 0,-77z" />
<path style="fill:#a6bad9" d="M441,736 l-118,0 0,77 118,0 0,-77z" />
<path style="fill:#a6bad9" d="M578,736 l-119,0 0,77 119,0 0,-77z" />
<path style="fill:#a6bad9" d="M302,834 l-117,0 0,77 117,0 0,-77z" />
<path style="fill:#a6bad9" d="M441,834 l-118,0 0,77 118,0 0,-77z" />
<path style="fill:#a6bad9" d="M578,834 l-119,0 0,77 119,0 0,-77z" />
<path style="fill:#7387a6" d="M302,834 l0,28 -117,-19 0,-9 117,0z" />
<path style="fill:#7387a6" d="M441,834 l0,28 -118,-19 0,-9 118,0z" />
<path style="fill:#7387a6" d="M578,834 l0,28 -119,-19 0,-9 119,0z" />
<path style="fill:#7387a6" d="M302,736 l0,28 -117,-19 0,-9 117,0z" />
<path style="fill:#7387a6" d="M441,736 l0,28 -118,-19 0,-9 118,0z" />
<path style="fill:#7387a6" d="M578,736 l0,28 -119,-19 0,-9 119,0z" />
<path style="fill:#7387a6" d="M302,637 l0,29 -117,-19 0,-10 117,0z" />
<path style="fill:#7387a6" d="M441,637 l0,29 -118,-19 0,-10 118,0z" />
<path style="fill:#7387a6" d="M578,637 l0,29 -119,-19 0,-10 119,0z" />
<path style="fill:#7387a6" d="M302,539 l0,28 -117,-19 0,-9 117,0z" />
<path style="fill:#7387a6" d="M441,539 l0,28 -118,-19 0,-9 118,0z" />
<path style="fill:#7387a6" d="M578,539 l0,28 -119,-19 0,-9 119,0z" />
<path style="fill:#7387a6" d="M302,440 l0,31 -117,-21 0,-10 117,0z" />
<path style="fill:#7387a6" d="M441,440 l0,31 -118,-21 0,-10 118,0z" />
<path style="fill:#7387a6" d="M578,440 l0,31 -119,-21 0,-10 119,0z" />
<path style="fill:#7387a6" d="M302,342 l0,30 -117,-21 0,-9 117,0z" />
<path style="fill:#7387a6" d="M441,342 l0,30 -118,-21 0,-9 118,0z" />
<path style="fill:#7387a6" d="M578,342 l0,30 -119,-21 0,-9 119,0z" />
<path style="fill:#7387a6" d="M302,145 l0,30 -117,-20 0,-10 117,0z" />
<path style="fill:#7387a6" d="M441,145 l0,30 -118,-20 0,-10 118,0z" />
<path style="fill:#7387a6" d="M578,145 l0,30 -119,-20 0,-10 119,0z" />
<path style="fill:#7387a6" d="M302,244 l0,30 -117,-21 0,-9 117,0z" />
<path style="fill:#7387a6" d="M441,244 l0,30 -118,-21 0,-9 118,0z" />
<path style="fill:#7387a6" d="M578,244 l0,30 -119,-21 0,-9 119,0z" />
<path style="fill:none;stroke:#000;stroke-width:2" d="M302,225 l0,-80 -117,0" />
<path style="fill:none;stroke:#000;stroke-width:2" d="M441,225 l0,-80 -118,0" />
<path style="fill:none;stroke:#000;stroke-width:2" d="M578,225 l0,-80 -119,0" />
<path style="fill:none;stroke:#000;stroke-width:2" d="M302,323 l0,-79 -117,0" />
<path style="fill:none;stroke:#000;stroke-width:2" d="M441,323 l0,-79 -118,0" />
<path style="fill:none;stroke:#000;stroke-width:2" d="M578,323 l0,-79 -119,0" />
<path style="fill:none;stroke:#000;stroke-width:2" d="M302,421 l0,-79 -117,0" />
<path style="fill:none;stroke:#000;stroke-width:2" d="M441,421 l0,-79 -118,0" />
<path style="fill:none;stroke:#000;stroke-width:2" d="M578,421 l0,-79 -119,0" />
<path style="fill:none;stroke:#000;stroke-width:2" d="M302,520 l0,-80 -117,0" />
<path style="fill:none;stroke:#000;stroke-width:2" d="M441,520 l0,-80 -118,0" />
<path style="fill:none;stroke:#000;stroke-width:2" d="M578,520 l0,-80 -119,0" />
<path style="fill:none;stroke:#000;stroke-width:2" d="M302,616 l0,-77 -117,0" />
<path style="fill:none;stroke:#000;stroke-width:2" d="M441,616 l0,-77 -118,0" />
<path style="fill:none;stroke:#000;stroke-width:2" d="M578,616 l0,-77 -119,0" />
<path style="fill:none;stroke:#000;stroke-width:2" d="M302,715 l0,-78 -117,0" />
<path style="fill:none;stroke:#000;stroke-width:2" d="M441,715 l0,-78 -118,0" />
<path style="fill:none;stroke:#000;stroke-width:2" d="M578,715 l0,-78 -119,0" />
<path style="fill:none;stroke:#000;stroke-width:2" d="M302,813 l0,-77 -117,0" />
<path style="fill:none;stroke:#000;stroke-width:2" d="M441,813 l0,-77 -118,0" />
<path style="fill:none;stroke:#000;stroke-width:2" d="M578,813 l0,-77 -119,0" />
<path style="fill:none;stroke:#000;stroke-width:2" d="M302,911 l0,-77 -117,0" />
<path style="fill:none;stroke:#000;stroke-width:2" d="M441,911 l0,-77 -118,0" />
<path style="fill:none;stroke:#000;stroke-width:2" d="M578,911 l0,-77 -119,0" />
<path style="fill:none;stroke:#fff;stroke-width:2" d="M302,911 l-117,0 0,-77" />
<path style="fill:none;stroke:#fff;stroke-width:2" d="M441,911 l-118,0 0,-77" />
<path style="fill:none;stroke:#fff;stroke-width:2" d="M578,911 l-119,0 0,-77" />
<path style="fill:none;stroke:#fff;stroke-width:2" d="M302,813 l-117,0 0,-77" />
<path style="fill:none;stroke:#fff;stroke-width:2" d="M441,813 l-118,0 0,-77" />
<path style="fill:none;stroke:#fff;stroke-width:2" d="M578,813 l-119,0 0,-77" />
<path style="fill:none;stroke:#fff;stroke-width:2" d="M302,715 l-117,0 0,-78" />
<path style="fill:none;stroke:#fff;stroke-width:2" d="M441,715 l-118,0 0,-78" />
<path style="fill:none;stroke:#fff;stroke-width:2" d="M578,715 l-119,0 0,-78" />
<path style="fill:none;stroke:#fff;stroke-width:2" d="M302,616 l-117,0 0,-77" />
<path style="fill:none;stroke:#fff;stroke-width:2" d="M441,616 l-118,0 0,-77" />
<path style="fill:none;stroke:#fff;stroke-width:2" d="M578,616 l-119,0 0,-77" />
<path style="fill:none;stroke:#fff;stroke-width:2" d="M302,520 l-117,0 0,-80" />
<path style="fill:none;stroke:#fff;stroke-width:2" d="M441,520 l-118,0 0,-80" />
<path style="fill:none;stroke:#fff;stroke-width:2" d="M578,520 l-119,0 0,-80" />
<path style="fill:none;stroke:#fff;stroke-width:2" d="M302,421 l-117,0 0,-79" />
<path style="fill:none;stroke:#fff;stroke-width:2" d="M441,421 l-118,0 0,-79" />
<path style="fill:none;stroke:#fff;stroke-width:2" d="M578,421 l-119,0 0,-79" />
<path style="fill:none;stroke:#fff;stroke-width:2" d="M302,225 l-117,0 0,-80" />
<path style="fill:none;stroke:#fff;stroke-width:2" d="M441,225 l-118,0 0,-80" />
<path style="fill:none;stroke:#fff;stroke-width:2" d="M578,225 l-119,0 0,-80" />
<path style="fill:none;stroke:#fff;stroke-width:2" d="M302,323 l-117,0 0,-79" />
<path style="fill:none;stroke:#fff;stroke-width:2" d="M441,323 l-118,0 0,-79" />
<path style="fill:none;stroke:#fff;stroke-width:2" d="M578,323 l-119,0 0,-79" />
<path style="fill:#e5e5e5;stroke:#000;stroke-width:2" d="M618,107 l-159,-79 -431,0 117,79 473,0z" />
<path style="fill:#999;stroke:#000;stroke-width:2" d="M145,107 l0,863 -117,-77 0,-865 117,79z" />
<path style="fill:#7387a6" d="M68,94 l-30,-21 0,80 30,19 0,-78z" />
<path style="fill:#7387a6" d="M102,117 l-31,-21 0,79 31,19 0,-77z" />
<path style="fill:#7387a6" d="M136,139 l-29,-19 0,78 29,19 0,-78z" />
<path style="fill:#7387a6" d="M68,192 l-30,-20 0,79 30,19 0,-78z" />
<path style="fill:#7387a6" d="M102,215 l-31,-21 0,80 31,19 0,-78z" />
<path style="fill:#7387a6" d="M136,238 l-29,-21 0,79 29,20 0,-78z" />
<path style="fill:#7387a6" d="M68,291 l-30,-21 0,79 30,19 0,-77z" />
<path style="fill:#7387a6" d="M102,314 l-31,-21 0,79 31,19 0,-77z" />
<path style="fill:#7387a6" d="M136,336 l-29,-20 0,79 29,19 0,-78z" />
<path style="fill:#7387a6" d="M68,387 l-30,-19 0,80 30,19 0,-80z" />
<path style="fill:#7387a6" d="M102,410 l-31,-19 0,80 31,19 0,-80z" />
<path style="fill:#7387a6" d="M136,435 l-29,-21 0,79 29,19 0,-77z" />
<path style="fill:#7387a6" d="M68,486 l-30,-19 0,78 30,20 0,-79z" />
<path style="fill:#7387a6" d="M102,508 l-31,-18 0,77 31,21 0,-80z" />
<path style="fill:#7387a6" d="M136,531 l-29,-19 0,80 29,19 0,-80z" />
<path style="fill:#7387a6" d="M68,584 l-30,-19 0,78 30,21 0,-80z" />
<path style="fill:#7387a6" d="M102,607 l-31,-19 0,78 31,20 0,-79z" />
<path style="fill:#7387a6" d="M136,630 l-29,-19 0,79 29,19 0,-79z" />
<path style="fill:#7387a6" d="M68,682 l-30,-18 0,77 30,21 0,-80z" />
<path style="fill:#7387a6" d="M102,705 l-31,-19 0,78 31,21 0,-80z" />
<path style="fill:#7387a6" d="M136,728 l-29,-19 0,80 29,18 0,-79z" />
<path style="fill:#7387a6" d="M68,781 l-30,-19 0,78 30,21 0,-80z" />
<path style="fill:#7387a6" d="M102,804 l-31,-19 0,77 31,21 0,-79z" />
<path style="fill:#7387a6" d="M136,826 l-29,-19 0,78 29,21 0,-80z" />
<path style="fill:#596d8c" d="M68,781 l0,30 -30,-40 0,-9 30,19z" />
<path style="fill:#596d8c" d="M102,804 l0,30 -31,-40 0,-9 31,19z" />
<path style="fill:#596d8c" d="M136,826 l0,31 -29,-40 0,-10 29,19z" />
<path style="fill:#596d8c" d="M68,682 l0,31 -30,-40 0,-9 30,18z" />
<path style="fill:#596d8c" d="M102,705 l0,31 -31,-40 0,-10 31,19z" />
<path style="fill:#596d8c" d="M136,728 l0,30 -29,-39 0,-10 29,19z" />
<path style="fill:#596d8c" d="M68,584 l0,30 -30,-39 0,-10 30,19z" />
<path style="fill:#596d8c" d="M102,607 l0,30 -31,-40 0,-9 31,19z" />
<path style="fill:#596d8c" d="M136,630 l0,30 -29,-40 0,-9 29,19z" />
<path style="fill:#596d8c" d="M68,486 l0,30 -30,-40 0,-9 30,19z" />
<path style="fill:#596d8c" d="M102,508 l0,31 -31,-40 0,-9 31,18z" />
<path style="fill:#596d8c" d="M136,531 l0,31 -29,-40 0,-10 29,19z" />
<path style="fill:#596d8c" d="M68,387 l0,31 -30,-40 0,-10 30,19z" />
<path style="fill:#596d8c" d="M102,410 l0,30 -31,-39 0,-10 31,19z" />
<path style="fill:#596d8c" d="M136,435 l0,28 -29,-40 0,-9 29,21z" />
<path style="fill:#596d8c" d="M68,291 l0,28 -30,-40 0,-9 30,21z" />
<path style="fill:#596d8c" d="M102,314 l0,28 -31,-40 0,-9 31,21z" />
<path style="fill:#596d8c" d="M136,336 l0,29 -29,-40 0,-9 29,20z" />
<path style="fill:#596d8c" d="M68,94 l0,28 -30,-37 0,-12 30,21z" />
<path style="fill:#596d8c" d="M102,117 l0,28 -31,-38 0,-11 31,21z" />
<path style="fill:#596d8c" d="M136,139 l0,29 -29,-38 0,-10 29,19z" />
<path style="fill:#596d8c" d="M68,192 l0,29 -30,-40 0,-9 30,20z" />
<path style="fill:#596d8c" d="M102,215 l0,29 -31,-40 0,-10 31,21z" />
<path style="fill:#596d8c" d="M136,238 l0,28 -29,-39 0,-10 29,21z" />
<path style="fill:none;stroke:#000;stroke-width:2" d="M68,172 l0,-78 -30,-21" />
<path style="fill:none;stroke:#000;stroke-width:2" d="M102,194 l0,-77 -31,-21" />
<path style="fill:none;stroke:#000;stroke-width:2" d="M136,217 l0,-78 -29,-19" />
<path style="fill:none;stroke:#000;stroke-width:2" d="M68,270 l0,-78 -30,-20" />
<path style="fill:none;stroke:#000;stroke-width:2" d="M102,293 l0,-78 -31,-21" />
<path style="fill:none;stroke:#000;stroke-width:2" d="M136,316 l0,-78 -29,-21" />
<path style="fill:none;stroke:#000;stroke-width:2" d="M68,368 l0,-77 -30,-21" />
<path style="fill:none;stroke:#000;stroke-width:2" d="M102,391 l0,-77 -31,-21" />
<path style="fill:none;stroke:#000;stroke-width:2" d="M136,414 l0,-78 -29,-20" />
<path style="fill:none;stroke:#000;stroke-width:2" d="M68,467 l0,-80 -30,-19" />
<path style="fill:none;stroke:#000;stroke-width:2" d="M102,490 l0,-80 -31,-19" />
<path style="fill:none;stroke:#000;stroke-width:2" d="M136,512 l0,-77 -29,-21" />
<path style="fill:none;stroke:#000;stroke-width:2" d="M68,565 l0,-79 -30,-19" />
<path style="fill:none;stroke:#000;stroke-width:2" d="M102,588 l0,-80 -31,-18" />
<path style="fill:none;stroke:#000;stroke-width:2" d="M136,611 l0,-80 -29,-19" />
<path style="fill:none;stroke:#000;stroke-width:2" d="M68,664 l0,-80 -30,-19" />
<path style="fill:none;stroke:#000;stroke-width:2" d="M102,686 l0,-79 -31,-19" />
<path style="fill:none;stroke:#000;stroke-width:2" d="M136,709 l0,-79 -29,-19" />
<path style="fill:none;stroke:#000;stroke-width:2" d="M68,762 l0,-80 -30,-18" />
<path style="fill:none;stroke:#000;stroke-width:2" d="M102,785 l0,-80 -31,-19" />
<path style="fill:none;stroke:#000;stroke-width:2" d="M136,807 l0,-79 -29,-19" />
<path style="fill:none;stroke:#000;stroke-width:2" d="M68,861 l0,-80 -30,-19" />
<path style="fill:none;stroke:#000;stroke-width:2" d="M102,883 l0,-79 -31,-19" />
<path style="fill:none;stroke:#000;stroke-width:2" d="M136,906 l0,-80 -29,-19" />

</svg>
