 

<svg xmlns:agg="http://www.example.com" xmlns="http://www.w3.org/2000/svg" preserveAspectRatio="none" width="0.2443in" height="1.0750in" viewBox="0 0 227 999">

<path style="fill:#963;stroke:#000;stroke-width:2" d="M199,970 l-23,-942 -126,0 -22,942 171,0z" />
<path style="fill:#c63" d="M187,970 l-15,-942 -95,0 -19,942 129,0z" />
<path style="fill:#f63" d="M168,970 l-7,-942 -50,0 -7,942 64,0z" />
<path style="fill:none;stroke:#000;stroke-width:2" d="M199,970 l-23,-942 -126,0 -22,942 171,0" />
<ellipse style="fill:#c63;stroke:#000;stroke-width:2" cx="113" cy="31" rx="63" ry="3" />
<ellipse style="fill:#000;stroke:#000;stroke-width:2" cx="113" cy="29" rx="47" ry="1" />
<path style="fill:none;stroke:#630;stroke-width:2" d="M176,69 l-126,0" />
<path style="fill:none;stroke:#630;stroke-width:2" d="M176,111 l-126,0" />
<path style="fill:none;stroke:#630;stroke-width:2" d="M176,157 l-126,0" />
<path style="fill:none;stroke:#630;stroke-width:2" d="M176,199 l-126,0" />
<path style="fill:none;stroke:#630;stroke-width:2" d="M176,241 l-126,0" />
<path style="fill:none;stroke:#630;stroke-width:2" d="M176,286 l-126,0" />
<path style="fill:none;stroke:#630;stroke-width:2" d="M176,328 l-126,0" />
<path style="fill:none;stroke:#630;stroke-width:2" d="M176,370 l-126,0" />
<path style="fill:none;stroke:#630;stroke-width:2" d="M176,412 l-126,0" />
<path style="fill:none;stroke:#630;stroke-width:2" d="M176,457 l-126,0" />
<path style="fill:none;stroke:#630;stroke-width:2" d="M176,499 l-126,0" />
<path style="fill:none;stroke:#630;stroke-width:2" d="M176,541 l-126,0" />
<path style="fill:none;stroke:#630;stroke-width:2" d="M176,583 l-126,0" />
<path style="fill:none;stroke:#630;stroke-width:2" d="M176,628 l-126,0" />
<path style="fill:none;stroke:#630;stroke-width:2" d="M176,670 l-126,0" />
<path style="fill:none;stroke:#630;stroke-width:2" d="M176,712 l-126,0" />
<path style="fill:none;stroke:#630;stroke-width:2" d="M176,757 l-126,0" />
<path style="fill:none;stroke:#630;stroke-width:2" d="M176,799 l-126,0" />
<path style="fill:none;stroke:#630;stroke-width:2" d="M176,841 l-126,0" />
<path style="fill:none;stroke:#630;stroke-width:2" d="M176,883 l-126,0" />
<path style="fill:none;stroke:#630;stroke-width:2" d="M176,929 l-126,0" />

</svg>
