 

<svg xmlns:agg="http://www.example.com" xmlns="http://www.w3.org/2000/svg" preserveAspectRatio="none" width="1.6083in" height="0.8493in" viewBox="0 0 998 527">

<path style="fill:#cc3;stroke:#000;stroke-width:2" d="M970,107 l-863,0 0,392 863,0 0,-392z" />
<path style="fill:#666;stroke:#000;stroke-width:2" d="M970,107 l-79,-79 -863,0 79,79 863,0z" />
<path style="fill:#993;stroke:#000;stroke-width:2" d="M107,499 l-79,-79 0,-392 79,79 0,392z" />
<path style="fill:#e5e5e5;stroke:#000;stroke-width:2" d="M912,322 l-492,0 0,119 492,0 0,-119z" />
<path style="fill:#4c4c4c;stroke:#000;stroke-width:2" d="M912,322 l-6,0 0,113 -486,0 0,6 492,0 0,-119z" />
<path style="fill:#ccc" d="M902,431 l0,-39 -128,39 128,0z" />
<path style="fill:#fff" d="M902,380 l-152,51 -15,0 167,-60 0,9z" />
<path style="fill:#ccc" d="M425,327 l0,40 129,-40 -129,0z" />
<path style="fill:none;stroke:#7f7f7f;stroke-width:2" d="M582,322 l0,113" />
<path style="fill:none;stroke:#7f7f7f;stroke-width:2" d="M744,322 l0,113" />
<path style="fill:#e5e5e5;stroke:#000;stroke-width:2" d="M352,322 l-177,0 0,177 177,0 0,-177z" />
<path style="fill:#4c4c4c;stroke:#000;stroke-width:2" d="M352,322 l-6,0 0,171 -171,0 0,6 177,0 0,-177z" />
<path style="fill:#ccc" d="M343,490 l0,-40 -129,40 129,0z" />
<path style="fill:#fff" d="M343,444 l-138,46 -15,0 153,-55 0,9z" />
<path style="fill:#ccc" d="M180,327 l0,40 127,-40 -127,0z" />
<path style="fill:none;stroke:#7f7f7f;stroke-width:2" d="M263,322 l0,171" />
<path style="fill:none;stroke:#7f7f7f;stroke-width:2" d="M346,410 l-171,0" />

</svg>
