<?xml version="1.0" encoding="utf-8"?>
<!-- Generator: Adobe Illustrator 16.0.0, SVG Export Plug-In . SVG Version: 6.00 Build 0)  -->
<!DOCTYPE svg PUBLIC "-//W3C//DTD SVG 1.1//EN" "http://www.w3.org/Graphics/SVG/1.1/DTD/svg11.dtd">
<svg version="1.1" id="图层_1" xmlns="http://www.w3.org/2000/svg" preserveAspectRatio="none" xmlns:xlink="http://www.w3.org/1999/xlink" x="0px" y="0px"
	 width="100px" height="100px" viewBox="0 0 100 100" enable-background="new 0 0 100 100" xml:space="preserve">
<g>
	<g>
		<polygon fill="#418538" points="69.625,98.743 6,98.743 6,94.649 29.911,83.865 93.536,76.497 93.536,80.591 		"/>
		<polygon fill="#A5BE3C" points="69.625,94.649 6,94.649 29.911,76.497 93.536,76.497 		"/>
		<rect x="6" y="94.649" fill="#71B73C" width="63.625" height="4.094"/>
	</g>
</g>
<g>
	<rect x="19.154" y="14.266" fill="#83ADCE" width="45.656" height="77.006"/>
	<rect x="19.154" y="83.797" fill="#ABABAB" width="45.656" height="7.475"/>
	<rect x="19.154" y="90.114" fill="#575757" width="45.656" height="1.157"/>
	<rect x="19.154" y="83.797" fill="#575757" width="45.656" height="0.923"/>
	<g>
		<g>
			<rect x="22.53" y="23.891" fill="#688CA5" width="5.256" height="5.257"/>
			<rect x="29.259" y="23.891" fill="#688CA5" width="5.256" height="5.257"/>
			<rect x="35.988" y="23.891" fill="#688CA5" width="5.257" height="5.257"/>
			<rect x="42.719" y="23.891" fill="#688CA5" width="5.256" height="5.257"/>
			<rect x="49.447" y="23.891" fill="#688CA5" width="5.257" height="5.257"/>
			<rect x="56.177" y="23.891" fill="#688CA5" width="5.257" height="5.257"/>
		</g>
		<g>
			<rect x="22.53" y="30.454" fill="#688CA5" width="5.256" height="5.256"/>
			<rect x="29.259" y="30.454" fill="#688CA5" width="5.256" height="5.256"/>
			<rect x="35.988" y="30.454" fill="#688CA5" width="5.257" height="5.256"/>
			<rect x="42.719" y="30.454" fill="#688CA5" width="5.256" height="5.256"/>
			<rect x="49.447" y="30.454" fill="#688CA5" width="5.257" height="5.256"/>
			<rect x="56.177" y="30.454" fill="#688CA5" width="5.257" height="5.256"/>
		</g>
		<g>
			<rect x="22.53" y="37.016" fill="#688CA5" width="5.256" height="5.257"/>
			<rect x="29.259" y="37.016" fill="#688CA5" width="5.256" height="5.257"/>
			<rect x="35.988" y="37.016" fill="#688CA5" width="5.257" height="5.257"/>
			<rect x="42.719" y="37.016" fill="#688CA5" width="5.256" height="5.257"/>
			<rect x="49.447" y="37.016" fill="#688CA5" width="5.257" height="5.257"/>
			<rect x="56.177" y="37.016" fill="#688CA5" width="5.257" height="5.257"/>
		</g>
		<g>
			<rect x="22.53" y="43.578" fill="#688CA5" width="5.256" height="5.256"/>
			<rect x="29.259" y="43.578" fill="#688CA5" width="5.256" height="5.256"/>
			<rect x="35.988" y="43.578" fill="#688CA5" width="5.257" height="5.256"/>
			<rect x="42.719" y="43.578" fill="#688CA5" width="5.256" height="5.256"/>
			<rect x="49.447" y="43.578" fill="#688CA5" width="5.257" height="5.256"/>
			<rect x="56.177" y="43.578" fill="#688CA5" width="5.257" height="5.256"/>
		</g>
		<g>
			<rect x="22.53" y="50.139" fill="#688CA5" width="5.256" height="5.257"/>
			<rect x="29.259" y="50.139" fill="#688CA5" width="5.256" height="5.257"/>
			<rect x="35.988" y="50.139" fill="#688CA5" width="5.257" height="5.257"/>
			<rect x="42.719" y="50.139" fill="#688CA5" width="5.256" height="5.257"/>
			<rect x="49.447" y="50.139" fill="#688CA5" width="5.257" height="5.257"/>
			<rect x="56.177" y="50.139" fill="#688CA5" width="5.257" height="5.257"/>
		</g>
		<g>
			<rect x="22.53" y="56.701" fill="#688CA5" width="5.256" height="5.258"/>
			<rect x="29.259" y="56.701" fill="#688CA5" width="5.256" height="5.258"/>
			<rect x="35.988" y="56.701" fill="#688CA5" width="5.257" height="5.258"/>
			<rect x="42.719" y="56.701" fill="#688CA5" width="5.256" height="5.258"/>
			<rect x="49.447" y="56.701" fill="#688CA5" width="5.257" height="5.258"/>
			<rect x="56.177" y="56.701" fill="#688CA5" width="5.257" height="5.258"/>
		</g>
		<g>
			<rect x="22.53" y="63.264" fill="#688CA5" width="5.256" height="5.257"/>
			<rect x="29.259" y="63.264" fill="#688CA5" width="5.256" height="5.257"/>
			<rect x="35.988" y="63.264" fill="#688CA5" width="5.257" height="5.257"/>
			<rect x="42.719" y="63.264" fill="#688CA5" width="5.256" height="5.257"/>
			<rect x="49.447" y="63.264" fill="#688CA5" width="5.257" height="5.257"/>
			<rect x="56.177" y="63.264" fill="#688CA5" width="5.257" height="5.257"/>
		</g>
		<g>
			<rect x="22.53" y="69.826" fill="#688CA5" width="5.256" height="5.257"/>
			<rect x="29.259" y="69.826" fill="#688CA5" width="5.256" height="5.257"/>
			<rect x="35.988" y="69.826" fill="#688CA5" width="5.257" height="5.257"/>
			<rect x="42.719" y="69.826" fill="#688CA5" width="5.256" height="5.257"/>
			<rect x="49.447" y="69.826" fill="#688CA5" width="5.257" height="5.257"/>
			<rect x="56.177" y="69.826" fill="#688CA5" width="5.257" height="5.257"/>
		</g>
		<g>
			<rect x="22.53" y="76.389" fill="#688CA5" width="5.256" height="5.257"/>
			<rect x="29.259" y="76.389" fill="#688CA5" width="5.256" height="5.257"/>
			<rect x="35.988" y="76.389" fill="#688CA5" width="5.257" height="5.257"/>
			<rect x="42.719" y="76.389" fill="#688CA5" width="5.256" height="5.257"/>
			<rect x="49.447" y="76.389" fill="#688CA5" width="5.257" height="5.257"/>
			<rect x="56.177" y="76.389" fill="#688CA5" width="5.257" height="5.257"/>
		</g>
		<g>
			<rect x="22.53" y="17.329" fill="#688CA5" width="5.256" height="5.257"/>
			<rect x="29.259" y="17.329" fill="#688CA5" width="5.256" height="5.257"/>
			<rect x="35.988" y="17.329" fill="#688CA5" width="5.257" height="5.257"/>
			<rect x="42.719" y="17.329" fill="#688CA5" width="5.256" height="5.257"/>
			<rect x="49.447" y="17.329" fill="#688CA5" width="5.257" height="5.257"/>
			<rect x="56.177" y="17.329" fill="#688CA5" width="5.257" height="5.257"/>
		</g>
	</g>
	<polygon fill="#557187" points="64.81,91.271 82.282,78.007 82.282,1.001 64.81,14.266 	"/>
	<polygon fill="#1F1F1F" points="64.81,83.797 64.81,91.271 82.282,78.007 82.282,70.533 	"/>
	<polygon fill="#ABC9DD" points="19.154,14.266 36.628,1 82.282,1.001 64.81,14.266 	"/>
	<g>
		<linearGradient id="SVGID_1_" gradientUnits="userSpaceOnUse" x1="63.293" y1="52.5576" x2="73.7363" y2="52.5576">
			<stop  offset="0" style="stop-color:#799CB8"/>
			<stop  offset="0.1154" style="stop-color:#85A9C7"/>
			<stop  offset="0.3132" style="stop-color:#8CB2D1"/>
			<stop  offset="0.5937" style="stop-color:#83A8C5"/>
			<stop  offset="0.7802" style="stop-color:#7B9EBB"/>
			<stop  offset="1" style="stop-color:#64839A"/>
		</linearGradient>
		<path fill="url(#SVGID_1_)" d="M73.722,89.004l0.011-0.003v-76.07l-10.271,2.704V90.93c-0.186,0.269-0.26,0.562,0,0.814
			c0.551,0.534,1.815,0.43,2.499,0.434c2.379,0.013,5.01-0.471,6.906-1.953C73.17,89.989,73.842,89.461,73.722,89.004z"/>
		<path fill="#688CA5" d="M65.764,92.18c0.068-0.001,0.137-0.003,0.196-0.002c1.878,0.01,3.907-0.299,5.614-1.154v-6.45h-5.811
			V92.18z"/>
		<g>
			<path fill="#D0D2D3" d="M72.866,14.115c-1.896,1.482-4.527,1.966-6.906,1.953c-0.684-0.004-1.948,0.101-2.499-0.434
				c-0.543-0.526,0.36-1.232,0.73-1.52c1.882-1.468,4.462-1.89,6.815-1.879c0.703,0.002,1.958-0.111,2.544,0.397
				C74.126,13.132,73.229,13.833,72.866,14.115z"/>
		</g>
		<g>
			<path fill="#ABC9DD" d="M72.866,14.115c-1.896,1.482-4.527,1.966-6.906,1.953c-0.684-0.004-1.948,0.101-2.499-0.434
				c-0.543-0.526,0.36-1.232,0.73-1.52c1.882-1.468,4.462-1.89,6.815-1.879c0.703,0.002,1.958-0.111,2.544,0.397
				C74.126,13.132,73.229,13.833,72.866,14.115z"/>
		</g>
	</g>
	<rect x="66.442" y="26.664" fill="#688CA5" width="4.206" height="3.365"/>
	<rect x="66.442" y="33.226" fill="#688CA5" width="4.206" height="3.364"/>
	<rect x="66.442" y="39.788" fill="#688CA5" width="4.206" height="3.366"/>
	<rect x="66.442" y="46.35" fill="#688CA5" width="4.206" height="3.365"/>
	<rect x="66.442" y="52.913" fill="#688CA5" width="4.206" height="3.364"/>
	<rect x="66.442" y="59.474" fill="#688CA5" width="4.206" height="3.365"/>
	<rect x="66.442" y="66.036" fill="#688CA5" width="4.206" height="3.365"/>
	<rect x="66.442" y="72.599" fill="#688CA5" width="4.206" height="3.365"/>
	<rect x="66.442" y="79.16" fill="#688CA5" width="4.206" height="3.365"/>
	<rect x="66.442" y="20.102" fill="#688CA5" width="4.206" height="3.364"/>
	<linearGradient id="SVGID_2_" gradientUnits="userSpaceOnUse" x1="65.3857" y1="91.3506" x2="71.4434" y2="85.293">
		<stop  offset="0" style="stop-color:#A7D7DE"/>
		<stop  offset="0.2253" style="stop-color:#FFFFFF"/>
		<stop  offset="0.5769" style="stop-color:#BCE1E5"/>
		<stop  offset="0.6648" style="stop-color:#BCE1E5"/>
		<stop  offset="0.7198" style="stop-color:#BFE3E6"/>
		<stop  offset="0.8077" style="stop-color:#DBEEEF"/>
		<stop  offset="0.8846" style="stop-color:#BCE1E5"/>
		<stop  offset="0.9341" style="stop-color:#E9F5F5"/>
		<stop  offset="1" style="stop-color:#BEE2E6"/>
	</linearGradient>
	<path fill="url(#SVGID_2_)" d="M66.21,92.175c1.624-0.014,3.347-0.268,4.864-0.912v-6.339H66.21V92.175z"/>
</g>
</svg>
