<?xml version="1.0" encoding="utf-8"?>
<!-- Generator: Adobe Illustrator 16.0.0, SVG Export Plug-In . SVG Version: 6.00 Build 0)  -->
<!DOCTYPE svg PUBLIC "-//W3C//DTD SVG 1.1//EN" "http://www.w3.org/Graphics/SVG/1.1/DTD/svg11.dtd">
<svg version="1.1" id="图层_1" xmlns="http://www.w3.org/2000/svg" preserveAspectRatio="none" xmlns:xlink="http://www.w3.org/1999/xlink" x="0px" y="0px"
	 width="100px" height="100px" viewBox="0 0 100 100" enable-background="new 0 0 100 100" xml:space="preserve">
<g>
	<g>
		<g>
			<polygon fill="#E8BE46" points="40.296,20.815 36.907,16.914 36.907,6.151 40.296,7.495 			"/>
		</g>
		<polygon fill="#D6B03F" points="43.465,18.47 40.296,20.753 40.296,7.495 43.465,6.211 		"/>
		<polygon fill="#E8BE46" points="43.465,6.211 40.296,7.495 36.907,6.151 40.145,5.078 		"/>
		<polygon fill="#220908" points="42.149,6.287 40.186,6.889 38.1,6.159 39.986,5.543 		"/>
	</g>
	<polygon fill="#400908" points="83.983,30.097 80.437,29.53 80.437,28.964 83.981,29.911 	"/>
	<g>
		<polygon fill="#E8BE46" points="80.959,50.824 47.838,65.367 47.476,40.499 80.959,28.559 		"/>
		<g>
			<g>
				<g>
					<polygon fill="#81B8A3" points="73.951,46.151 65.298,49.72 65.298,38.016 73.951,34.787 					"/>
					<path fill="#831A1F" d="M74.267,46.515l-9.305,3.853V37.633l9.305-3.458V46.515z M65.637,49.071l7.996-3.283V35.4l-7.996,3
						V49.071z"/>
				</g>
				<g>
					<polygon fill="#909395" points="64.253,51.174 75.028,46.695 75.028,47.919 64.253,52.445 					"/>
				</g>
				<g>
					<polygon fill="#831A1F" points="70.016,47.773 69.361,48.044 69.361,36.501 70.016,36.256 					"/>
				</g>
			</g>
			<g>
				<polygon fill="#B8B7B8" points="75.028,48.899 64.253,53.462 64.253,52.445 75.028,47.919 				"/>
			</g>
		</g>
		<g>
			<g>
				<polygon fill="#81B8A3" points="58.893,59.02 52.351,61.858 52.351,42.851 58.893,40.408 				"/>
				<path fill="#831A1F" d="M59.244,59.385l-7.26,3.165V44.44v-0.875v-1.111l7.26-2.696V59.385z M52.717,61.169l5.823-2.519V41.06
					l-5.823,2.184V61.169z"/>
			</g>
		</g>
		<polygon fill="#E8BE46" points="80.959,28.559 47.838,40.499 66.366,22.465 80.959,28.559 		"/>
	</g>
	<polygon fill="#D3BC76" points="80.959,50.824 47.687,64.857 65.981,73.53 98.756,58.847 	"/>
	<g>
		<g>
			<polygon fill="#5A2513" points="98.411,55.372 80.404,47.749 80.414,49.516 98.42,57.246 			"/>
		</g>
		<g>
			<polygon fill="#5A2513" points="98.395,52.377 80.391,44.922 80.4,46.688 98.404,54.25 			"/>
		</g>
		<g>
			<polygon fill="#5A2513" points="98.774,48.833 80.377,42.095 80.404,43.556 98.42,50.644 			"/>
		</g>
		<g>
			<polygon fill="#5A2513" points="81.432,51.135 80.44,50.707 80.397,42.103 81.389,42.503 			"/>
		</g>
		<g>
			<polygon fill="#5A2513" points="89.537,54.647 88.455,54.18 88.412,45.347 89.494,45.785 			"/>
		</g>
		<g>
			<polygon fill="#5A2513" points="98.754,58.641 97.606,58.145 97.561,49.05 98.708,49.515 			"/>
		</g>
	</g>
	<g>
		<g>
			<polygon fill="#762B1C" points="65.654,68.105 47.687,60.393 47.687,62.161 65.654,69.979 			"/>
		</g>
		<g>
			<polygon fill="#762B1C" points="65.654,65.11 47.687,57.565 47.687,59.333 65.654,66.982 			"/>
		</g>
		<g>
			<polygon fill="#762B1C" points="65.654,62.115 47.687,54.739 47.687,56.506 65.654,63.988 			"/>
		</g>
		<g>
			<polygon fill="#762B1C" points="48.697,63.785 47.708,63.352 47.708,54.747 48.697,55.153 			"/>
		</g>
		<g>
			<polygon fill="#762B1C" points="56.784,67.337 55.704,66.863 55.704,58.031 56.784,58.474 			"/>
		</g>
		<g>
			<polygon fill="#762B1C" points="65.981,71.376 64.837,70.873 64.837,61.78 65.981,62.249 			"/>
		</g>
	</g>
	<g>
		<polygon fill="#E8BE46" points="47.821,86.457 5.194,64.478 5.194,24.341 47.821,39.708 		"/>
	</g>
	<g>
		<polygon fill="#E8BE46" points="66.216,97.045 5.194,65.821 5.194,46.427 65.981,73.53 		"/>
	</g>
	<g>
		<polygon fill="#CAA63B" points="47.821,88.022 13.715,70.259 13.715,65.765 47.821,82.955 		"/>
	</g>
	<g>
		<polygon fill="#B29131" points="47.821,88.022 65.654,97.338 65.981,92.109 47.821,82.955 		"/>
	</g>
	<g>
		<polygon fill="#B49231" points="13.715,70.259 6.952,66.736 6.952,46.323 13.715,49.315 		"/>
	</g>
	<g>
		<polygon fill="#831A1F" points="63.534,96.208 50.001,89.156 50.001,69.378 63.534,75.545 		"/>
	</g>
	<g>
		<polygon fill="#A78A30" points="6.952,66.736 13.715,70.259 13.715,65.765 6.952,62.356 		"/>
	</g>
	<g>
		<polygon fill="#CAA63B" points="6.952,66.736 5.194,65.821 5.194,61.472 6.952,62.356 		"/>
	</g>
	<g>
		<polygon fill="#D9DCE3" points="56.07,79.911 50.835,77.394 50.835,71.103 56.07,73.512 		"/>
	</g>
	<g>
		<g>
			<polygon fill="#81B8A3" points="28.219,46.054 20.53,42.917 20.53,32.194 28.219,35.031 			"/>
			<path fill="#831A1F" d="M28.519,46.657l-8.27-3.389V31.624l8.27,3.038V46.657z M20.814,42.565l7.106,2.888V35.4l-7.106-2.635
				V42.565z"/>
		</g>
		<g>
			<polygon fill="#909395" points="19.659,43.438 29.24,47.378 29.24,48.672 19.659,44.688 			"/>
		</g>
		<g>
			<polygon fill="#831A1F" points="24.612,44.583 24.031,44.346 24.031,33.486 24.612,33.701 			"/>
		</g>
	</g>
	<g>
		<polygon fill="#D9DCE3" points="62.496,83 57.041,80.378 57.041,73.958 62.496,76.468 		"/>
	</g>
	<g>
		<polygon fill="#B49231" points="13.715,46.968 6.952,44.034 6.952,25.767 13.715,28.226 		"/>
	</g>
	<g>
		<g>
			<polygon fill="#81B8A3" points="43.193,52.166 34.679,48.691 34.679,37.415 43.193,40.557 			"/>
			<path fill="#831A1F" d="M43.525,52.807l-9.16-3.754V36.81l9.16,3.364V52.807z M34.991,48.327l7.871,3.2V40.939l-7.871-2.918
				V48.327z"/>
		</g>
		<g>
			<polygon fill="#909395" points="33.714,49.277 44.326,53.645 44.326,54.905 33.714,50.494 			"/>
		</g>
		<g>
			<polygon fill="#831A1F" points="39.196,50.534 38.552,50.272 38.552,38.844 39.196,39.082 			"/>
		</g>
	</g>
	<g>
		<g>
			<polygon fill="#81B8A3" points="12.212,39.821 8.742,38.401 8.742,28.142 12.212,29.425 			"/>
			<path fill="#831A1F" d="M12.478,40.384l-3.995-1.642V27.6l3.995,1.471V40.384z M9.002,38.062l2.944,1.2v-9.482l-2.944-1.095
				V38.062z"/>
		</g>
	</g>
	<polygon fill="#B8B7B8" points="66.185,22.465 47.658,40.499 47.658,40.565 5.194,25.127 5.194,28.8 49.817,45.668 65.073,27.6 
		80.959,34.174 80.959,28.964 	"/>
	<g>
		<g>
			<polygon fill="#6A1216" points="7.403,43.576 6.952,43.381 6.952,34.605 7.403,34.785 			"/>
		</g>
		<g>
			<polygon fill="#6A1216" points="8.084,43.87 7.63,43.674 7.63,34.875 8.084,35.055 			"/>
		</g>
		<g>
			<polygon fill="#6A1216" points="8.769,44.165 8.313,43.968 8.313,35.146 8.769,35.328 			"/>
		</g>
		<g>
			<polygon fill="#6A1216" points="9.438,44.454 8.979,44.255 8.979,35.411 9.438,35.594 			"/>
		</g>
		<g>
			<polygon fill="#6A1216" points="10.129,44.752 9.668,44.552 9.668,35.685 10.129,35.869 			"/>
		</g>
		<g>
			<polygon fill="#6A1216" points="10.825,45.051 10.36,44.851 10.36,35.96 10.825,36.145 			"/>
		</g>
		<g>
			<polygon fill="#6A1216" points="11.553,45.366 11.086,45.164 11.086,36.249 11.553,36.435 			"/>
		</g>
		<g>
			<polygon fill="#6A1216" points="12.255,45.668 11.787,45.466 11.787,36.526 12.255,36.714 			"/>
		</g>
		<g>
			<polygon fill="#6A1216" points="12.979,45.98 12.508,45.777 12.508,36.814 12.979,37 			"/>
		</g>
		<g>
			<polygon fill="#6A1216" points="13.715,46.297 13.242,46.094 13.242,37.106 13.715,37.293 			"/>
		</g>
	</g>
	<g>
		<polygon fill="#6A1216" points="13.478,39.674 7.177,37.11 7.177,36.366 13.478,38.91 		"/>
	</g>
	<g>
		<polygon fill="#6A1216" points="13.478,45.229 7.177,42.536 7.177,42.004 13.478,44.686 		"/>
	</g>
	<g>
		<g>
			<polygon fill="#81B8A3" points="28.219,68.146 20.53,64.403 20.53,53.682 28.219,57.121 			"/>
			<path fill="#831A1F" d="M28.519,68.771l-8.27-4.038V53.089l8.27,3.686V68.771z M20.814,64.075l7.106,3.445V57.468l-7.106-3.192
				V64.075z"/>
		</g>
		<g>
			<polygon fill="#909395" points="19.659,64.857 29.24,69.548 29.24,70.841 19.659,66.105 			"/>
		</g>
		<g>
			<polygon fill="#831A1F" points="24.612,66.39 24.031,66.106 24.031,55.247 24.612,55.508 			"/>
		</g>
	</g>
	<g>
		<g>
			<polygon fill="#81B8A3" points="12.212,62.915 8.742,61.192 8.742,50.932 12.212,52.518 			"/>
			<path fill="#831A1F" d="M12.478,63.499l-3.995-1.988V50.369l3.995,1.819V63.499z M9.002,60.875l2.944,1.456v-9.482l-2.944-1.351
				V60.875z"/>
		</g>
	</g>
	<g>
		<g>
			<polygon fill="#81B8A3" points="43.193,84.071 34.679,79.681 34.679,62.396 43.193,66.276 			"/>
			<path fill="#831A1F" d="M43.525,84.748l-9.16-4.738V61.764l9.16,4.158V84.748z M34.991,79.352l7.871,4.045V66.63l-7.871-3.6
				V79.352z"/>
		</g>
		<g>
			<polygon fill="#831A1F" points="39.196,82.01 38.552,81.678 38.552,64.16 39.196,64.455 			"/>
		</g>
		<g>
			<polygon fill="#831A1F" points="43.193,84.071 34.679,79.681 34.679,71.287 43.193,75.431 			"/>
			<path fill="#831A1F" d="M43.525,84.748l-9.16-4.738v-9.365l9.16,4.44V84.748z M34.991,79.352l7.871,4.045v-7.624l-7.871-3.843
				V79.352z"/>
		</g>
	</g>
	<g>
		<polygon fill="#A4A6AA" points="50.694,42.577 1.491,24.688 1.491,23.912 50.694,41.648 		"/>
	</g>
	<g>
		<polygon fill="#A4A6AA" points="47.016,87.604 46.04,87.095 46.04,39.52 47.016,39.875 		"/>
	</g>
	<g>
		<polygon fill="#909395" points="44.326,86.202 33.324,80.473 33.324,78.857 44.326,84.524 		"/>
	</g>
	<g>
		<polygon fill="#B8B7B8" points="65.981,75.767 33.714,60.522 33.714,59.277 65.981,73.679 		"/>
	</g>
	<g>
		<polygon fill="#B8B7B8" points="13.715,56.336 6.952,53.165 6.952,46.358 13.715,49.352 		"/>
	</g>
	<g>
		<polygon fill="#702A23" points="65.975,73.748 33.714,59.257 33.714,57.186 66.019,71.376 		"/>
	</g>
	<g>
		<polygon fill="#B8B7B8" points="29.24,71.8 19.659,67.031 19.659,66.105 29.24,70.841 		"/>
	</g>
	<g>
		<polygon fill="#B8B7B8" points="29.24,49.59 19.659,45.575 19.659,44.649 29.24,48.633 		"/>
	</g>
	<g>
		<polygon fill="#B8B7B8" points="44.326,55.914 33.714,51.467 33.714,50.494 44.326,54.905 		"/>
	</g>
	<g>
		<g>
			<g>
				<polygon fill="#762B1C" points="65.975,68.233 83.622,60.656 83.622,62.408 65.975,70.089 				"/>
			</g>
			<g>
				<polygon fill="#762B1C" points="65.975,65.265 83.622,57.854 83.622,59.606 65.975,67.121 				"/>
			</g>
			<g>
				<polygon fill="#762B1C" points="65.975,62.297 83.622,55.053 83.622,56.805 65.975,64.152 				"/>
			</g>
			<g>
				<polygon fill="#762B1C" points="82.632,64.017 83.602,63.592 83.602,55.061 82.632,55.46 				"/>
			</g>
			<g>
				<polygon fill="#762B1C" points="74.685,67.507 75.746,67.041 75.746,58.286 74.685,58.722 				"/>
			</g>
			<g>
				<polygon fill="#762B1C" points="65.654,71.449 66.777,70.979 66.777,61.968 65.654,62.43 				"/>
			</g>
		</g>
		<g>
			<g>
				<polygon fill="#762B1C" points="82.92,60.959 98.774,54.152 98.774,55.814 82.92,62.714 				"/>
			</g>
			<g>
				<polygon fill="#762B1C" points="82.92,58.15 98.774,51.492 98.774,53.155 82.92,59.906 				"/>
			</g>
			<g>
				<polygon fill="#762B1C" points="82.92,55.342 98.774,48.833 98.774,50.495 82.92,57.097 				"/>
			</g>
			<g>
				<polygon fill="#762B1C" points="97.881,57.32 98.756,56.936 98.708,49.515 97.881,49.198 				"/>
			</g>
			<g>
				<polygon fill="#762B1C" points="90.734,60.46 91.687,60.041 91.687,51.742 90.734,52.135 				"/>
			</g>
			<g>
				<polygon fill="#762B1C" points="82.632,64.017 83.638,63.575 83.638,55.046 82.632,55.46 				"/>
			</g>
		</g>
		<g>
			<polygon fill="#E8BE46" points="65.654,97.338 98.756,80.097 98.756,58.847 65.654,73.606 			"/>
		</g>
		<g>
			<polygon fill="#B29131" points="98.756,80.097 65.654,97.338 65.654,92.015 98.756,75.33 			"/>
		</g>
		<g>
			<g>
				<polygon fill="#81B8A3" points="92.673,74.265 85.862,77.6 85.862,68.356 92.673,65.234 				"/>
				<path fill="#831A1F" d="M92.925,74.534l-7.328,3.598V68.077l7.328-3.351V74.534z M86.126,77.068l6.295-3.074v-8.252
					l-6.295,2.896V77.068z"/>
			</g>
			<g>
				<polygon fill="#831A1F" points="89.566,75.786 89.049,76.038 89.049,66.896 89.566,66.66 				"/>
			</g>
		</g>
		<g>
			<g>
				<polygon fill="#81B8A3" points="79.229,80.85 71.763,84.506 71.763,74.822 79.229,71.4 				"/>
				<path fill="#831A1F" d="M79.502,81.126l-8.03,3.942V74.534l8.03-3.671V81.126z M72.052,83.942l6.9-3.37v-8.635l-6.9,3.175
					V83.942z"/>
			</g>
			<g>
				<polygon fill="#831A1F" points="75.823,82.518 75.258,82.794 75.258,73.221 75.823,72.961 				"/>
			</g>
		</g>
		<g>
			<polygon fill="#B8B7B8" points="65.654,75.669 98.756,60.333 98.756,58.979 65.654,73.533 			"/>
		</g>
		<g>
			<polygon fill="#702A23" points="65.654,73.606 98.756,58.959 98.756,56.915 65.654,71.449 			"/>
		</g>
	</g>
	<g>
		<polygon fill="#831A1F" points="50.694,41.648 1.491,23.912 22.766,6.956 66.366,22.465 		"/>
	</g>
	<g>
		<polygon fill="#610F13" points="50.694,42.613 50.694,41.686 66.293,22.441 83.972,29.536 83.983,30.097 66.432,23.159 		"/>
	</g>
</g>
</svg>
