 

<svg xmlns:agg="http://www.example.com" xmlns="http://www.w3.org/2000/svg" preserveAspectRatio="none" width="1.4999in" height="1.0750in" viewBox="0 0 999 716">

<path style="fill:#ccc;stroke:#000;stroke-width:2" d="M970,122 l-754,0 0,565 754,0 0,-565z" />
<path style="fill:#999;stroke:#000;stroke-width:2" d="M216,687 l-188,-94 0,-565 188,94 0,565z" />
<path style="fill:#e5e5e5;stroke:#000;stroke-width:2" d="M970,122 l-188,-94 -754,0 188,94 754,0z" />
<path style="fill:none;stroke:#fff;stroke-width:2" d="M970,122 l-754,0 -188,-94" />
<path style="fill:none;stroke:#fff;stroke-width:2" d="M216,122 l0,565" />
<path style="fill:#7f7f7f" d="M342,264 l196,0 0,196 -196,0 0,-196z" />
<path style="fill:#7f7f7f" d="M656,263 l196,0 0,197 -196,0 0,-197z" />
<path style="fill:#cbe5e5" d="M526,264 l-184,0 0,183 184,0 0,-183z" />
<path style="fill:#cbe5e5" d="M840,264 l-184,0 0,183 184,0 0,-183z" />
<path style="fill:#b3d9d9" d="M526,263 l0,57 -184,-50 0,-7 184,0z" />
<path style="fill:#b3d9d9" d="M840,263 l0,57 -184,-50 0,-7 184,0z" />
<path style="fill:#4c4c4c" d="M68,184 l117,59 0,157 -117,-59 0,-157z" />
<path style="fill:#7f9999" d="M185,244 l-110,-56 0,147 110,55 0,-146z" />
<path style="fill:#668c8c" d="M186,243 l0,46 -111,-96 0,-5 111,55z" />
<path style="fill:none;stroke:#000;stroke-width:2" d="M68,184 l117,59 0,157 -117,-59 0,-157" />
<path style="fill:none;stroke:#000;stroke-width:2" d="M342,264 l196,0 0,196 -196,0 0,-196" />
<path style="fill:none;stroke:#000;stroke-width:2" d="M656,263 l196,0 0,197 -196,0 0,-197" />

</svg>
