 

<svg xmlns:agg="http://www.example.com" xmlns="http://www.w3.org/2000/svg" preserveAspectRatio="none" width="1.5724in" height="1.0750in" viewBox="0 0 999 683">

<path style="fill:#093" d="M970,654 l-20,0 0,-491 20,0 0,491z" />
<path style="fill:#033" d="M953,654 l-3,0 0,-491 3,0 0,491z" />
<path style="fill:#693" d="M963,654 l-5,0 0,-491 5,0 0,491z" />
<path style="fill:#9f9" d="M965,654 l-5,0 0,-491 5,0 0,491z" />
<path style="fill:none;stroke:#000;stroke-width:2" d="M970,163 l-20,0 0,491 20,0 0,-491" />
<path style="fill:#093" d="M970,146 l0,15 -942,0 0,-15 942,0z" />
<path style="fill:#063" d="M970,161 l0,2 -942,0 0,-2 942,0z" />
<path style="fill:#693" d="M970,153 l0,5 -942,0 0,-5 942,0z" />
<path style="fill:#9f9" d="M970,148 l0,5 -942,0 0,-5 942,0z" />
<path style="fill:none;stroke:#000;stroke-width:2" d="M28,146 l0,17 942,0 0,-17 -942,0" />
<path style="fill:none;stroke:#000;stroke-width:2" d="M930,654 l-509,-508 -391,391" />
<path style="fill:none;stroke:#000;stroke-width:2" d="M970,654 l-509,-508 -431,431" />
<path style="fill:none;stroke:#000;stroke-width:2" d="M970,614 l-471,-468 -469,468" />
<path style="fill:none;stroke:#000;stroke-width:2" d="M970,577 l-431,-431 -509,508" />
<path style="fill:none;stroke:#000;stroke-width:2" d="M970,537 l-391,-391 -511,508" />
<path style="fill:none;stroke:#000;stroke-width:2" d="M970,496 l-353,-350 -509,508" />
<path style="fill:none;stroke:#000;stroke-width:2" d="M970,459 l-313,-313 -509,508" />
<path style="fill:none;stroke:#000;stroke-width:2" d="M970,419 l-273,-273 -511,508" />
<path style="fill:none;stroke:#000;stroke-width:2" d="M970,379 l-235,-233 -509,508" />
<path style="fill:none;stroke:#000;stroke-width:2" d="M970,341 l-195,-195 -509,508" />
<path style="fill:none;stroke:#000;stroke-width:2" d="M970,301 l-158,-155 -509,508" />
<path style="fill:none;stroke:#000;stroke-width:2" d="M970,261 l-118,-115 -508,508" />
<path style="fill:none;stroke:#000;stroke-width:2" d="M970,223 l-77,-77 -512,508" />
<path style="fill:none;stroke:#000;stroke-width:2" d="M970,183 l-40,-37 -509,508" />
<path style="fill:none;stroke:#000;stroke-width:2" d="M970,146 l-509,508" />
<path style="fill:none;stroke:#000;stroke-width:2" d="M970,183 l-471,471" />
<path style="fill:none;stroke:#000;stroke-width:2" d="M970,223 l-431,431" />
<path style="fill:none;stroke:#000;stroke-width:2" d="M970,261 l-391,393" />
<path style="fill:none;stroke:#000;stroke-width:2" d="M970,301 l-353,353" />
<path style="fill:none;stroke:#000;stroke-width:2" d="M970,341 l-313,313" />
<path style="fill:none;stroke:#000;stroke-width:2" d="M970,379 l-273,275" />
<path style="fill:none;stroke:#000;stroke-width:2" d="M970,419 l-235,235" />
<path style="fill:none;stroke:#000;stroke-width:2" d="M970,459 l-195,195" />
<path style="fill:none;stroke:#000;stroke-width:2" d="M970,496 l-158,158" />
<path style="fill:none;stroke:#000;stroke-width:2" d="M970,537 l-118,117" />
<path style="fill:none;stroke:#000;stroke-width:2" d="M970,577 l-77,77" />
<path style="fill:none;stroke:#000;stroke-width:2" d="M970,614 l-40,40" />
<path style="fill:none;stroke:#000;stroke-width:2" d="M893,654 l-512,-508" />
<path style="fill:none;stroke:#000;stroke-width:2" d="M852,654 l-508,-508" />
<path style="fill:none;stroke:#000;stroke-width:2" d="M812,654 l-509,-508" />
<path style="fill:none;stroke:#000;stroke-width:2" d="M775,654 l-509,-508" />
<path style="fill:none;stroke:#000;stroke-width:2" d="M735,654 l-509,-508" />
<path style="fill:none;stroke:#000;stroke-width:2" d="M697,654 l-511,-508" />
<path style="fill:none;stroke:#000;stroke-width:2" d="M657,654 l-509,-508" />
<path style="fill:none;stroke:#000;stroke-width:2" d="M617,654 l-509,-508" />
<path style="fill:none;stroke:#000;stroke-width:2" d="M579,654 l-511,-508" />
<path style="fill:none;stroke:#000;stroke-width:2" d="M539,654 l-509,-508" />
<path style="fill:none;stroke:#000;stroke-width:2" d="M499,654 l-469,-471" />
<path style="fill:none;stroke:#000;stroke-width:2" d="M461,654 l-431,-431" />
<path style="fill:none;stroke:#000;stroke-width:2" d="M421,654 l-391,-393" />
<path style="fill:none;stroke:#000;stroke-width:2" d="M381,654 l-351,-353" />
<path style="fill:none;stroke:#000;stroke-width:2" d="M344,654 l-314,-313" />
<path style="fill:none;stroke:#000;stroke-width:2" d="M303,654 l-273,-275" />
<path style="fill:none;stroke:#000;stroke-width:2" d="M266,654 l-236,-235" />
<path style="fill:none;stroke:#000;stroke-width:2" d="M226,654 l-196,-195" />
<path style="fill:none;stroke:#000;stroke-width:2" d="M186,654 l-156,-158" />
<path style="fill:none;stroke:#000;stroke-width:2" d="M148,654 l-118,-117" />
<path style="fill:none;stroke:#000;stroke-width:2" d="M108,654 l-78,-77" />
<path style="fill:none;stroke:#000;stroke-width:2" d="M68,654 l-38,-40" />
<path style="fill:none;stroke:#000;stroke-width:2" d="M30,496 l351,-350" />
<path style="fill:none;stroke:#000;stroke-width:2" d="M344,146 l-314,313" />
<path style="fill:none;stroke:#000;stroke-width:2" d="M30,419 l273,-273" />
<path style="fill:none;stroke:#000;stroke-width:2" d="M266,146 l-236,233" />
<path style="fill:none;stroke:#000;stroke-width:2" d="M30,341 l196,-195" />
<path style="fill:none;stroke:#000;stroke-width:2" d="M186,146 l-156,155" />
<path style="fill:none;stroke:#000;stroke-width:2" d="M30,261 l118,-115" />
<path style="fill:none;stroke:#000;stroke-width:2" d="M108,146 l-78,77" />
<path style="fill:none;stroke:#000;stroke-width:2" d="M30,183 l38,-37" />
<path style="fill:none;stroke:#000;stroke-width:2" d="M930,146 l0,-10" />
<path style="fill:none;stroke:#000;stroke-width:2" d="M893,146 l0,-10" />
<path style="fill:none;stroke:#000;stroke-width:2" d="M852,146 l0,-10" />
<path style="fill:none;stroke:#000;stroke-width:2" d="M812,146 l0,-10" />
<path style="fill:none;stroke:#000;stroke-width:2" d="M775,146 l0,-10" />
<path style="fill:none;stroke:#000;stroke-width:2" d="M735,146 l0,-10" />
<path style="fill:none;stroke:#000;stroke-width:2" d="M697,146 l0,-10" />
<path style="fill:none;stroke:#000;stroke-width:2" d="M657,146 l0,-10" />
<path style="fill:none;stroke:#000;stroke-width:2" d="M619,146 l0,-10" />
<path style="fill:none;stroke:#000;stroke-width:2" d="M579,146 l0,-10" />
<path style="fill:none;stroke:#000;stroke-width:2" d="M539,146 l0,-10" />
<path style="fill:none;stroke:#000;stroke-width:2" d="M502,146 l0,-10" />
<path style="fill:none;stroke:#000;stroke-width:2" d="M461,146 l0,-10" />
<path style="fill:none;stroke:#000;stroke-width:2" d="M421,146 l0,-10" />
<path style="fill:none;stroke:#000;stroke-width:2" d="M384,146 l0,-10" />
<path style="fill:none;stroke:#000;stroke-width:2" d="M344,146 l0,-10" />
<path style="fill:none;stroke:#000;stroke-width:2" d="M303,146 l0,-10" />
<path style="fill:none;stroke:#000;stroke-width:2" d="M266,146 l0,-10" />
<path style="fill:none;stroke:#000;stroke-width:2" d="M226,146 l0,-10" />
<path style="fill:none;stroke:#000;stroke-width:2" d="M188,146 l0,-10" />
<path style="fill:none;stroke:#000;stroke-width:2" d="M148,146 l0,-10" />
<path style="fill:none;stroke:#000;stroke-width:2" d="M108,146 l0,-10" />
<path style="fill:none;stroke:#000;stroke-width:2" d="M70,146 l0,-10" />
<path style="fill:none;stroke:#000;stroke-width:2" d="M30,146 l0,-10" />
<path style="fill:none;stroke:#000;stroke-width:2" d="M960,43 l-28,5 -31,0 -8,-3 -61,0 -26,6 -33,3 -31,1 -30,-2 -30,-3 -32,-1 -34,1 -27,2 -10,2 -10,1 -7,0 -30,0 -30,-1 -31,0 -31,0 -33,1 -33,0 -35,0 -31,0 -30,0 -32,-1 -31,0 -28,1 -31,0 -30,-2 -96,-10" />
<path style="fill:none;stroke:#000;stroke-width:2" d="M960,80 l-28,5 -31,1 -8,-3 -61,0 -26,6 -33,3 -31,1 -30,-2 -30,-2 -32,-1 -34,0 -27,2 -34,2 -31,0 -31,-1 -31,0 -29,-1 -68,0 -29,1 -31,1 -34,1 -33,1 -6,0 -6,0 -30,-1 -31,-1 -31,-1 -8,-1 -96,-10" />
<path style="fill:none;stroke:#000;stroke-width:2" d="M30,116 l28,5 30,-3 30,-1 28,1 29,6 32,3 31,0 30,-1 31,-3 31,-1 34,0 28,3 9,1 10,2 8,0 30,-2 30,0 46,0 31,0 33,0 34,0 35,0 28,0 116,0 32,-1 21,-2 105,-7" />
<path style="fill:none;stroke:#000;stroke-width:2" d="M885,50 l-3,-10" />
<path style="fill:none;stroke:#000;stroke-width:2" d="M882,50 l3,-10" />
<path style="fill:none;stroke:#000;stroke-width:2" d="M885,45 l-1,0 -1,0 -1,0 0,2 1,0 1,1 1,0 0,-1 0,0 0,-2" />
<path style="fill:none;stroke:#000;stroke-width:2" d="M812,55 l-5,-10" />
<path style="fill:none;stroke:#000;stroke-width:2" d="M807,55 l5,-10" />
<path style="fill:none;stroke:#000;stroke-width:2" d="M810,50 l0,2 0,0 0,1 1,0 1,-1 0,0 0,-2 0,0 -1,0 -1,0" />
<path style="fill:none;stroke:#000;stroke-width:2" d="M730,58 l-5,-10" />
<path style="fill:none;stroke:#000;stroke-width:2" d="M725,58 l5,-10" />
<circle style="fill:none;stroke:#000;stroke-width:2" cx="727" cy="54" r="2" />
<path style="fill:none;stroke:#000;stroke-width:2" d="M654,55 l-2,-10" />
<path style="fill:none;stroke:#000;stroke-width:2" d="M652,55 l2,-10" />
<path style="fill:none;stroke:#000;stroke-width:2" d="M654,50 l-1,0 -1,0 0,0 0,2 0,0 1,1 1,0 0,-1 0,0 0,-2" />
<path style="fill:none;stroke:#000;stroke-width:2" d="M577,60 l-3,-10" />
<path style="fill:none;stroke:#000;stroke-width:2" d="M574,60 l3,-10" />
<path style="fill:none;stroke:#000;stroke-width:2" d="M574,55 l0,2 0,1 0,0 2,0 0,0 1,-1 0,-2 -1,0 0,0 -2,0" />
<path style="fill:none;stroke:#000;stroke-width:2" d="M499,60 l-5,-10" />
<path style="fill:none;stroke:#000;stroke-width:2" d="M494,60 l5,-10" />
<path style="fill:none;stroke:#000;stroke-width:2" d="M496,53 l0,0 0,1 0,1 2,0 1,0 0,0 0,-1 0,-1 -1,0 -2,0" />
<path style="fill:none;stroke:#000;stroke-width:2" d="M421,58 l-5,-10" />
<path style="fill:none;stroke:#000;stroke-width:2" d="M416,58 l5,-10" />
<circle style="fill:none;stroke:#000;stroke-width:2" cx="418" cy="54" r="2" />
<path style="fill:none;stroke:#000;stroke-width:2" d="M341,58 l-5,-10" />
<path style="fill:none;stroke:#000;stroke-width:2" d="M336,58 l5,-10" />
<path style="fill:none;stroke:#000;stroke-width:2" d="M339,53 l0,1 0,1 0,0 1,0 1,0 0,-1 0,-1 0,0 -1,0 -1,0" />
<path style="fill:none;stroke:#000;stroke-width:2" d="M263,58 l-2,-10" />
<path style="fill:none;stroke:#000;stroke-width:2" d="M261,58 l2,-10" />
<path style="fill:none;stroke:#000;stroke-width:2" d="M261,53 l0,1 0,1 0,0 1,0 1,0 0,-1 0,-1 0,0 -1,0 -1,0" />
<path style="fill:none;stroke:#000;stroke-width:2" d="M186,60 l-5,-10" />
<path style="fill:none;stroke:#000;stroke-width:2" d="M181,60 l5,-10" />
<circle style="fill:none;stroke:#000;stroke-width:2" cx="183" cy="56" r="2" />
<path style="fill:none;stroke:#000;stroke-width:2" d="M103,55 l-5,-10" />
<path style="fill:none;stroke:#000;stroke-width:2" d="M98,55 l5,-10" />
<circle style="fill:none;stroke:#000;stroke-width:2" cx="100" cy="51" r="2" />
<circle style="fill:none;stroke:#000;stroke-width:2" cx="100" cy="89" r="2" />
<path style="fill:none;stroke:#000;stroke-width:2" d="M98,93 l5,-8" />
<path style="fill:none;stroke:#000;stroke-width:2" d="M103,93 l-5,-8" />
<path style="fill:none;stroke:#000;stroke-width:2" d="M183,90 l-1,0 -1,1 0,0 0,2 0,0 1,0 1,0 0,-2 0,0 0,-1" />
<path style="fill:none;stroke:#000;stroke-width:2" d="M181,98 l2,-10" />
<path style="fill:none;stroke:#000;stroke-width:2" d="M183,98 l-2,-10" />
<path style="fill:none;stroke:#000;stroke-width:2" d="M261,93 l0,1 0,1 0,0 1,0 1,0 0,-1 0,-1 0,0 -1,0 -1,0" />
<path style="fill:none;stroke:#000;stroke-width:2" d="M261,98 l2,-10" />
<path style="fill:none;stroke:#000;stroke-width:2" d="M263,98 l-2,-10" />
<circle style="fill:none;stroke:#000;stroke-width:2" cx="340" cy="90" r="1" />
<path style="fill:none;stroke:#000;stroke-width:2" d="M339,95 l2,-10" />
<path style="fill:none;stroke:#000;stroke-width:2" d="M341,95 l-2,-10" />
<circle style="fill:none;stroke:#000;stroke-width:2" cx="417" cy="90" r="1" />
<path style="fill:none;stroke:#000;stroke-width:2" d="M416,95 l3,-10" />
<path style="fill:none;stroke:#000;stroke-width:2" d="M419,95 l-3,-10" />
<circle style="fill:none;stroke:#000;stroke-width:2" cx="497" cy="90" r="1" />
<path style="fill:none;stroke:#000;stroke-width:2" d="M496,95 l3,-10" />
<path style="fill:none;stroke:#000;stroke-width:2" d="M499,95 l-3,-10" />
<path style="fill:none;stroke:#000;stroke-width:2" d="M574,93 l0,1 0,1 0,0 2,0 0,0 1,-1 0,-1 -1,0 0,0 -2,0" />
<path style="fill:none;stroke:#000;stroke-width:2" d="M574,98 l3,-10" />
<path style="fill:none;stroke:#000;stroke-width:2" d="M577,98 l-3,-10" />
<circle style="fill:none;stroke:#000;stroke-width:2" cx="653" cy="87" r="1" />
<path style="fill:none;stroke:#000;stroke-width:2" d="M652,93 l2,-10" />
<path style="fill:none;stroke:#000;stroke-width:2" d="M654,93 l-2,-10" />
<circle style="fill:none;stroke:#000;stroke-width:2" cx="727" cy="91" r="2" />
<path style="fill:none;stroke:#000;stroke-width:2" d="M725,95 l5,-7" />
<path style="fill:none;stroke:#000;stroke-width:2" d="M730,95 l-5,-7" />
<path style="fill:none;stroke:#000;stroke-width:2" d="M810,88 l0,1 0,1 0,0 1,0 1,0 0,-1 0,-1 0,0 -1,0 -1,0" />
<path style="fill:none;stroke:#000;stroke-width:2" d="M807,93 l5,-8" />
<path style="fill:none;stroke:#000;stroke-width:2" d="M812,93 l-5,-8" />
<path style="fill:none;stroke:#000;stroke-width:2" d="M885,83 l-1,0 -1,0 -1,0 0,1 1,1 1,0 1,0 0,0 0,-1 0,-1" />
<path style="fill:none;stroke:#000;stroke-width:2" d="M882,88 l3,-8" />
<path style="fill:none;stroke:#000;stroke-width:2" d="M885,88 l-3,-8" />
<path style="fill:none;stroke:#000;stroke-width:2" d="M95,123 l3,-10" />
<path style="fill:none;stroke:#000;stroke-width:2" d="M98,123 l-3,-10" />
<circle style="fill:none;stroke:#000;stroke-width:2" cx="96" cy="118" r="1" />
<path style="fill:none;stroke:#000;stroke-width:2" d="M168,128 l3,-10" />
<path style="fill:none;stroke:#000;stroke-width:2" d="M171,128 l-3,-10" />
<circle style="fill:none;stroke:#000;stroke-width:2" cx="169" cy="123" r="1" />
<path style="fill:none;stroke:#000;stroke-width:2" d="M251,131 l2,-10" />
<path style="fill:none;stroke:#000;stroke-width:2" d="M253,131 l-2,-10" />
<circle style="fill:none;stroke:#000;stroke-width:2" cx="252" cy="125" r="1" />
<path style="fill:none;stroke:#000;stroke-width:2" d="M323,128 l6,-10" />
<path style="fill:none;stroke:#000;stroke-width:2" d="M329,128 l-6,-10" />
<circle style="fill:none;stroke:#000;stroke-width:2" cx="326" cy="123" r="3" />
<path style="fill:none;stroke:#000;stroke-width:2" d="M404,133 l2,-10" />
<path style="fill:none;stroke:#000;stroke-width:2" d="M406,133 l-2,-10" />
<path style="fill:none;stroke:#000;stroke-width:2" d="M404,126 l1,0 1,0 0,1 0,1 0,0 -1,0 -1,0 0,-1 0,-1 0,0" />
<path style="fill:none;stroke:#000;stroke-width:2" d="M481,131 l3,-10" />
<path style="fill:none;stroke:#000;stroke-width:2" d="M484,131 l-3,-10" />
<circle style="fill:none;stroke:#000;stroke-width:2" cx="482" cy="125" r="1" />
<path style="fill:none;stroke:#000;stroke-width:2" d="M559,131 l5,-10" />
<path style="fill:none;stroke:#000;stroke-width:2" d="M564,131 l-5,-10" />
<circle style="fill:none;stroke:#000;stroke-width:2" cx="561" cy="124" r="2" />
<path style="fill:none;stroke:#000;stroke-width:2" d="M639,131 l3,-10" />
<path style="fill:none;stroke:#000;stroke-width:2" d="M642,131 l-3,-10" />
<circle style="fill:none;stroke:#000;stroke-width:2" cx="640" cy="125" r="1" />
<path style="fill:none;stroke:#000;stroke-width:2" d="M717,131 l3,-10" />
<path style="fill:none;stroke:#000;stroke-width:2" d="M720,131 l-3,-10" />
<path style="fill:none;stroke:#000;stroke-width:2" d="M717,123 l2,0 0,0 1,1 0,2 -1,0 0,0 -2,0 0,-2 0,-1 0,0" />
<path style="fill:none;stroke:#000;stroke-width:2" d="M795,133 l2,-10" />
<path style="fill:none;stroke:#000;stroke-width:2" d="M797,133 l-2,-10" />
<path style="fill:none;stroke:#000;stroke-width:2" d="M797,126 l0,0 0,1 0,1 -1,0 -1,0 0,0 0,-1 0,-1 1,0 1,0" />
<path style="fill:none;stroke:#000;stroke-width:2" d="M877,128 l5,-10" />
<path style="fill:none;stroke:#000;stroke-width:2" d="M882,128 l-5,-10" />
<circle style="fill:none;stroke:#000;stroke-width:2" cx="879" cy="123" r="2" />
<path style="fill:#093" d="M970,146 l-10,0 0,-118 10,0 0,118z" />
<path style="fill:#693" d="M965,146 l-2,0 0,-118 2,0 0,118z" />
<path style="fill:#9f9" d="M968,146 l-3,0 0,-118 3,0 0,118z" />
<path style="fill:none;stroke:#000;stroke-width:2" d="M970,28 l-10,0 0,118 10,0 0,-118" />

</svg>
