 

<svg xmlns:agg="http://www.example.com" xmlns="http://www.w3.org/2000/svg" preserveAspectRatio="none" width="0.3293in" height="1.0750in" viewBox="0 0 306 999">

<path style="fill:#999;stroke:#000;stroke-width:2" d="M28,195 l250,0 0,10 -250,0 0,-10z" />
<path style="fill:#999;stroke:#000;stroke-width:2" d="M28,92 l250,0 0,9 -250,0 0,-9z" />
<path style="fill:#b0b0b0" d="M28,195 l248,0 0,7 -248,0 0,-7z" />
<path style="fill:#b0b0b0" d="M28,94 l248,0 0,7 -248,0 0,-7z" />
<path style="fill:#c4c4c4" d="M28,197 l248,0 0,5 -248,0 0,-5z" />
<path style="fill:#c4c4c4" d="M28,94 l248,0 0,5 -248,0 0,-5z" />
<path style="fill:#dbdbdb" d="M28,197 l246,0 0,4 -246,0 0,-4z" />
<path style="fill:#dbdbdb" d="M28,95 l246,0 0,4 -246,0 0,-4z" />
<path style="fill:#f2f2f2" d="M28,199 l244,0 0,2 -244,0 0,-2z" />
<path style="fill:#f2f2f2" d="M28,95 l244,0 0,2 -244,0 0,-2z" />
<path style="fill:#999" d="M144,28 l11,0 4,942 -18,0 3,-942z" />
<path style="fill:#b0b0b0" d="M146,28 l8,0 3,942 -15,0 4,-942z" />
<path style="fill:#c4c4c4" d="M146,28 l8,0 1,942 -11,0 2,-942z" />
<path style="fill:#dbdbdb" d="M148,28 l4,0 2,942 -8,0 2,-942z" />
<path style="fill:#f2f2f2" d="M148,28 l4,0 0,942 -4,0 0,-942z" />
<path style="fill:none;stroke:#000;stroke-width:2" d="M144,28 l11,0 4,942 -18,0 3,-942" />
<path style="fill:none;stroke:#000;stroke-width:2" d="M37,92 l-9,-6 9,0 -9,-4 9,0 -9,-6 9,0 -9,-3 9,0" />
<path style="fill:none;stroke:#000;stroke-width:2" d="M278,92 l-10,-6 10,0 -10,-4 10,0 -10,-6 10,0 -10,-3 10,0" />
<path style="fill:none;stroke:#000;stroke-width:2" d="M37,195 l-9,-6 9,0 -9,-3 9,0 -9,-6 9,0 -9,-6 9,0" />
<path style="fill:none;stroke:#000;stroke-width:2" d="M278,195 l-10,-6 10,0 -10,-3 10,0 -10,-6 10,0 -10,-6 10,0" />
<path style="fill:none;stroke:#000;stroke-width:2" d="M116,195 l-9,-6 9,0 -9,-3 9,0 -9,-6 9,0 -9,-6 9,0" />
<path style="fill:none;stroke:#000;stroke-width:2" d="M193,195 l-9,-6 9,0 -9,-3 9,0 -9,-6 9,0 -9,-6 9,0" />

</svg>
