 

<svg xmlns:agg="http://www.example.com" xmlns="http://www.w3.org/2000/svg" preserveAspectRatio="none" width="1.0914in" height="1.0750in" viewBox="0 0 999 984">

<path style="fill:#e5e5e5" d="M254,193 l35,-8 28,-9 27,-17 15,-24 0,-5 30,9 28,4 35,-2 28,-5 30,-8 27,11 27,8 26,5 31,2 30,-1 24,-5 28,8 27,-5 11,-7 29,0 31,5 21,-2 1,-3 28,-1 37,-1 27,-1 37,-1 9,0 9,0 0,-6 -18,-22 -31,-11 -27,-4 -30,2 -21,-17 -24,-11 -27,6 -26,-8 -27,-8 -27,-9 -31,-3 -29,4 -26,12 -11,8 -16,-21 -22,-12 -31,-7 -35,1 -31,6 -25,14 -13,18 -23,-23 -23,-12 -27,-8 -8,-1 -7,0 -9,0 -35,2 -30,7 -25,12 -13,14 -26,-15 -28,3 -33,10 -27,8 -3,-1 -24,13 -18,24 -6,28 2,2 -3,29 -7,33 -7,32 -3,22 0,6 2,0 47,0 3,-29 4,-30 1,-20 12,-26 19,-19 27,5 14,21 5,10 -8,30 -2,31 0,23 0,5 2,0 30,-1 19,0 5,-31 7,-26 8,-7z" />
<path style="fill:#b2b2b2" d="M967,141 l-24,-21 -30,-12 -32,-5 -20,2 -23,-11 -26,-9 -29,-2 -26,-13 -29,-6 -31,-2 -31,1 -30,4 -17,6 -28,-11 -27,-6 -30,-2 -31,1 -31,4 -31,5 -6,1 -23,-9 -29,-7 -33,-4 -7,0 -7,0 -7,0 -29,2 -28,5 -27,9 -12,6 -26,-11 -26,10 -31,11 -27,1 -25,13 -2,6 -17,22 2,17 -11,26 -8,31 -5,29 -3,22 -1,11 53,0 3,-30 5,-28 15,-21 25,-14 26,-5 8,25 -3,27 -4,27 0,16 0,6 47,-1 6,-32 7,-27 7,-14 28,-4 32,-3 26,-10 7,-7 7,-26 27,13 26,3 29,0 30,-4 28,-7 24,-10 27,14 27,10 26,6 29,4 29,-4 8,-18 29,1 29,-2 32,-1 32,1 29,5 4,1 27,-2 30,-1 29,-1 29,0 28,-1 6,0 5,0z" />
<path style="fill:#999" d="M241,247 l-65,0 -17,565 100,0 -18,-565z" />
<path style="fill:#999" d="M111,247 l-65,0 -17,565 99,0 -17,-565z" />
<path style="fill:#bfbfbf" d="M226,247 l-34,0 -9,565 52,0 -9,-565z" />
<path style="fill:#bfbfbf" d="M92,247 l-28,0 -7,565 42,0 -7,-565z" />
<path style="fill:none;stroke:#000;stroke-width:2" d="M241,247 l-65,0 -17,565 100,0 -18,-565" />
<path style="fill:none;stroke:#000;stroke-width:2" d="M111,247 l-65,0 -17,565 99,0 -17,-565" />
<path style="fill:#e5e5e5;stroke:#000;stroke-width:2" d="M799,652 l-89,-76 0,80 -682,0 0,300 861,0 0,-300 0,-4 -90,-76 0,76z" />
<path style="fill:#7f7f7f;stroke:#000;stroke-width:2" d="M762,878 l-41,0 0,40 41,0 0,-40z" />
<path style="fill:#7f7f7f;stroke:#000;stroke-width:2" d="M843,878 l-40,0 0,40 40,0 0,-40z" />
<path style="fill:#7f7f7f;stroke:#000;stroke-width:2" d="M762,796 l-41,0 0,41 41,0 0,-41z" />
<path style="fill:#7f7f7f;stroke:#000;stroke-width:2" d="M843,796 l-40,0 0,41 40,0 0,-41z" />
<path style="fill:#7f7f7f;stroke:#000;stroke-width:2" d="M843,715 l-40,0 0,41 40,0 0,-41z" />
<path style="fill:#7f7f7f;stroke:#000;stroke-width:2" d="M681,715 l-41,0 0,41 41,0 0,-41z" />
<path style="fill:#7f7f7f;stroke:#000;stroke-width:2" d="M89,715 l-41,0 0,41 41,0 0,-41z" />
<path style="fill:#7f7f7f;stroke:#000;stroke-width:2" d="M170,715 l-40,0 0,41 40,0 0,-41z" />
<path style="fill:#7f7f7f;stroke:#000;stroke-width:2" d="M252,715 l-41,0 0,41 41,0 0,-41z" />
<path style="fill:#7f7f7f;stroke:#000;stroke-width:2" d="M252,796 l-41,0 0,41 41,0 0,-41z" />
<path style="fill:#7f7f7f;stroke:#000;stroke-width:2" d="M170,878 l-40,0 0,40 40,0 0,-40z" />
<path style="fill:#7f7f7f;stroke:#000;stroke-width:2" d="M89,878 l-41,0 0,40 41,0 0,-40z" />
<path style="fill:#7f7f7f;stroke:#000;stroke-width:2" d="M567,715 l-30,0 0,31 30,0 0,-31z" />
<path style="fill:#7f7f7f;stroke:#000;stroke-width:2" d="M567,785 l-30,0 0,-31 30,0 0,31z" />
<path style="fill:#7f7f7f;stroke:#000;stroke-width:2" d="M567,795 l-30,0 0,30 30,0 0,-30z" />
<path style="fill:#7f7f7f;stroke:#000;stroke-width:2" d="M567,866 l-30,0 0,-30 30,0 0,30z" />
<path style="fill:#7f7f7f;stroke:#000;stroke-width:2" d="M567,879 l-30,0 0,31 30,0 0,-31z" />
<path style="fill:#7f7f7f;stroke:#000;stroke-width:2" d="M495,715 l32,0 0,31 -32,0 0,-31z" />
<path style="fill:#7f7f7f;stroke:#000;stroke-width:2" d="M495,785 l32,0 0,-31 -32,0 0,31z" />
<path style="fill:#7f7f7f;stroke:#000;stroke-width:2" d="M495,795 l32,0 0,30 -32,0 0,-30z" />
<path style="fill:#7f7f7f;stroke:#000;stroke-width:2" d="M495,866 l32,0 0,-30 -32,0 0,30z" />
<path style="fill:#7f7f7f;stroke:#000;stroke-width:2" d="M495,879 l32,0 0,31 -32,0 0,-31z" />
<path style="fill:#7f7f7f;stroke:#000;stroke-width:2" d="M486,715 l-31,0 0,31 31,0 0,-31z" />
<path style="fill:#7f7f7f;stroke:#000;stroke-width:2" d="M486,785 l-31,0 0,-31 31,0 0,31z" />
<path style="fill:#7f7f7f;stroke:#000;stroke-width:2" d="M486,795 l-31,0 0,30 31,0 0,-30z" />
<path style="fill:#7f7f7f;stroke:#000;stroke-width:2" d="M486,866 l-31,0 0,-30 31,0 0,30z" />
<path style="fill:#7f7f7f;stroke:#000;stroke-width:2" d="M486,879 l-31,0 0,31 31,0 0,-31z" />
<path style="fill:#7f7f7f;stroke:#000;stroke-width:2" d="M414,715 l31,0 0,31 -31,0 0,-31z" />
<path style="fill:#7f7f7f;stroke:#000;stroke-width:2" d="M414,785 l31,0 0,-31 -31,0 0,31z" />
<path style="fill:#7f7f7f;stroke:#000;stroke-width:2" d="M414,795 l31,0 0,30 -31,0 0,-30z" />
<path style="fill:#7f7f7f;stroke:#000;stroke-width:2" d="M414,866 l31,0 0,-30 -31,0 0,30z" />
<path style="fill:#7f7f7f;stroke:#000;stroke-width:2" d="M414,879 l31,0 0,31 -31,0 0,-31z" />
<path style="fill:#7f7f7f;stroke:#000;stroke-width:2" d="M404,715 l-31,0 0,31 31,0 0,-31z" />
<path style="fill:#7f7f7f;stroke:#000;stroke-width:2" d="M404,785 l-31,0 0,-31 31,0 0,31z" />
<path style="fill:#7f7f7f;stroke:#000;stroke-width:2" d="M404,795 l-31,0 0,30 31,0 0,-30z" />
<path style="fill:#7f7f7f;stroke:#000;stroke-width:2" d="M404,866 l-31,0 0,-30 31,0 0,30z" />
<path style="fill:#7f7f7f;stroke:#000;stroke-width:2" d="M404,879 l-31,0 0,31 31,0 0,-31z" />
<path style="fill:#7f7f7f;stroke:#000;stroke-width:2" d="M332,715 l32,0 0,31 -32,0 0,-31z" />
<path style="fill:#7f7f7f;stroke:#000;stroke-width:2" d="M332,785 l32,0 0,-31 -32,0 0,31z" />
<path style="fill:#7f7f7f;stroke:#000;stroke-width:2" d="M332,795 l32,0 0,30 -32,0 0,-30z" />
<path style="fill:#7f7f7f;stroke:#000;stroke-width:2" d="M332,866 l32,0 0,-30 -32,0 0,30z" />
<path style="fill:#7f7f7f;stroke:#000;stroke-width:2" d="M332,879 l32,0 0,31 -32,0 0,-31z" />
<path style="fill:#ff0;stroke:#000;stroke-width:2" d="M89,796 l-41,0 0,41 41,0 0,-41z" />
<path style="fill:#ff0;stroke:#000;stroke-width:2" d="M170,796 l-40,0 0,41 40,0 0,-41z" />
<path style="fill:#ff0;stroke:#000;stroke-width:2" d="M252,878 l-41,0 0,40 41,0 0,-40z" />
<path style="fill:#ff0;stroke:#000;stroke-width:2" d="M681,796 l-41,0 0,41 41,0 0,-41z" />
<path style="fill:#ff0;stroke:#000;stroke-width:2" d="M762,715 l-41,0 0,41 41,0 0,-41z" />
<path style="fill:#7f7f7f;stroke:#000;stroke-width:2" d="M681,878 l-41,0 0,40 41,0 0,-40z" />

</svg>
