 

<svg xmlns:agg="http://www.example.com" xmlns="http://www.w3.org/2000/svg" preserveAspectRatio="none" width="0.9566in" height="1.0750in" viewBox="0 0 889 999">

<path style="fill:#ccc;stroke:#000;stroke-width:2" d="M861,970 l0,-526 -351,0 0,-263 -351,0 0,789 702,0z" />
<path style="fill:#999;stroke:#000;stroke-width:2" d="M159,970 l-131,-66 0,-789 131,66 0,789z" />
<path style="fill:#e5e5e5;stroke:#000;stroke-width:2" d="M510,181 l-132,-66 -350,0 131,66 351,0z" />
<path style="fill:#e5e5e5;stroke:#000;stroke-width:2" d="M861,444 l-132,-66 -219,0 0,66 351,0z" />
<path style="fill:#999;stroke:#000;stroke-width:2" d="M444,334 l0,-65 -87,0 0,65 87,0z" />
<path style="fill:#999;stroke:#000;stroke-width:2" d="M312,335 l0,-66 -87,0 0,66 87,0z" />
<path style="fill:#999;stroke:#000;stroke-width:2" d="M444,422 l0,-66 -87,0 0,66 87,0z" />
<path style="fill:#999;stroke:#000;stroke-width:2" d="M312,422 l0,-66 -87,0 0,66 87,0z" />
<path style="fill:#999;stroke:#000;stroke-width:2" d="M444,510 l0,-66 -87,0 0,66 87,0z" />
<path style="fill:#999;stroke:#000;stroke-width:2" d="M312,510 l0,-66 -87,0 0,66 87,0z" />
<path style="fill:#666;stroke:#000;stroke-width:2" d="M49,836 l35,18 0,-612 -35,-19 0,613z" />
<path style="fill:#666;stroke:#000;stroke-width:2" d="M102,865 l35,18 0,-613 -35,-18 0,613z" />
<path style="fill:#7f7f7f" d="M672,422 l-13,-394 -50,0 -11,394 74,0z" />
<path style="fill:#b2b2b2" d="M659,422 l-8,-394 -33,0 -9,394 50,0z" />
<path style="fill:#e5e5e5" d="M641,422 l-2,-394 -9,0 -2,394 13,0z" />
<path style="fill:none;stroke:#000;stroke-width:2" d="M672,422 l-13,-394 -50,0 -11,394 74,0" />

</svg>
