 

<svg xmlns:agg="http://www.example.com" xmlns="http://www.w3.org/2000/svg" preserveAspectRatio="none" width="1.6083in" height="0.8742in" viewBox="0 0 999 543">

<path style="fill:#4c4c4c;stroke:#000;stroke-width:2" d="M606,514 l364,-96 -578,-177 -364,96 578,177z" />
<path style="fill:#ccc;stroke:#000;stroke-width:2" d="M970,417 l-74,22 0,-182 -209,63 0,87 0,87 -81,21 0,-68 0,-68 23,-89 55,-57 60,-32 38,-14 72,-17 59,2 42,32 15,65 0,74 0,74z" />
<path style="fill:#7f7f7f;stroke:#000;stroke-width:2" d="M896,396 l0,-139 -209,63 0,21 209,55z" />
<path style="fill:none;stroke:#000;stroke-width:2" d="M622,320 l0,191 0,-191" />
<path style="fill:none;stroke:#000;stroke-width:2" d="M956,209 l0,212 0,-212" />
<path style="fill:none;stroke:#000;stroke-width:2" d="M939,192 l0,234 0,-234" />
<path style="fill:none;stroke:#000;stroke-width:2" d="M922,179 l0,252 0,-252" />
<path style="fill:none;stroke:#000;stroke-width:2" d="M906,172 l0,263 0,-263" />
<path style="fill:none;stroke:#000;stroke-width:2" d="M889,171 l0,86 0,-86" />
<path style="fill:none;stroke:#000;stroke-width:2" d="M872,171 l0,93 0,-93" />
<path style="fill:none;stroke:#000;stroke-width:2" d="M856,170 l0,99 0,-99" />
<path style="fill:none;stroke:#000;stroke-width:2" d="M840,173 l0,101 0,-101" />
<path style="fill:none;stroke:#000;stroke-width:2" d="M823,177 l0,102 0,-102" />
<path style="fill:none;stroke:#000;stroke-width:2" d="M807,181 l0,103 0,-103" />
<path style="fill:none;stroke:#000;stroke-width:2" d="M791,185 l0,104 0,-104" />
<path style="fill:none;stroke:#000;stroke-width:2" d="M775,189 l0,105 0,-105" />
<path style="fill:none;stroke:#000;stroke-width:2" d="M760,195 l0,103 0,-103" />
<path style="fill:none;stroke:#000;stroke-width:2" d="M744,200 l0,103 0,-103" />
<path style="fill:none;stroke:#000;stroke-width:2" d="M728,208 l0,100 0,-100" />
<path style="fill:none;stroke:#000;stroke-width:2" d="M712,217 l0,96 0,-96" />
<path style="fill:none;stroke:#000;stroke-width:2" d="M697,225 l0,92 0,-92" />
<path style="fill:none;stroke:#000;stroke-width:2" d="M682,234 l0,260 0,-260" />
<path style="fill:none;stroke:#000;stroke-width:2" d="M667,251 l0,247 0,-247" />
<path style="fill:none;stroke:#000;stroke-width:2" d="M652,267 l0,235 0,-235" />
<path style="fill:none;stroke:#000;stroke-width:2" d="M637,283 l0,223 0,-223" />
<path style="fill:#f0f0f0;stroke:#000;stroke-width:2" d="M606,515 l0,-68 0,-68 23,-89 55,-57 60,-32 38,-14 72,-17 46,2 -343,-76 -298,-66 -45,-2 -53,17 -30,12 -46,30 -40,53 -17,76 0,62 0,59 271,83 307,95z" />
<path style="fill:#e0e0e0" d="M602,511 l2,-132 0,-2 -574,-165 -2,4 0,62 0,59 269,83 305,91z" />
<path style="fill:none;stroke:#4c4c4c;stroke-width:2" d="M632,509" />
<path style="fill:none;stroke:#4c4c4c;stroke-width:2" d="M647,505" />
<path style="fill:none;stroke:#4c4c4c;stroke-width:2" d="M663,500 l0,1 0,-1" />
<path style="fill:none;stroke:#4c4c4c;stroke-width:2" d="M679,496 l0,0 0,0" />
<path style="fill:none;stroke:#4c4c4c;stroke-width:2" d="M695,227 l0,0 0,0" />
<path style="fill:none;stroke:#4c4c4c;stroke-width:2" d="M710,313" />
<path style="fill:none;stroke:#4c4c4c;stroke-width:2" d="M775,293" />
<path style="fill:none;stroke:#4c4c4c;stroke-width:2" d="M775,189 l0,0 0,0" />
<path style="fill:none;stroke:#4c4c4c;stroke-width:2" d="M792,184" />
<path style="fill:none;stroke:#4c4c4c;stroke-width:2" d="M808,180 l0,0 0,0" />
<path style="fill:none;stroke:#4c4c4c;stroke-width:2" d="M825,278" />
<path style="fill:none;stroke:#4c4c4c;stroke-width:2" d="M825,176" />
<path style="fill:none;stroke:#4c4c4c;stroke-width:2" d="M842,172 l0,0 0,0" />
<path style="fill:none;stroke:#4c4c4c;stroke-width:2" d="M859,170 l0,0 0,0" />
<path style="fill:none;stroke:#4c4c4c;stroke-width:2" d="M893,438" />
<path style="fill:none;stroke:#4c4c4c;stroke-width:2" d="M910,434" />
<path style="fill:none;stroke:#4c4c4c;stroke-width:2" d="M928,429" />
<path style="fill:none;stroke:#4c4c4c;stroke-width:2" d="M945,425" />
<path style="fill:none;stroke:#4c4c4c;stroke-width:2" d="M28,217 l0,119 0,-119" />
<path style="fill:none;stroke:#4c4c4c;stroke-width:2" d="M44,340 l0,-118 17,-79 41,-51 76,-43 54,-17 36,1 -36,-1 -54,17 -76,43 -41,51 -17,79 0,118" />
<path style="fill:none;stroke:#4c4c4c;stroke-width:2" d="M250,36 l-55,17 -76,43 -42,51 -17,79 0,119 0,-119 17,-79 42,-51 76,-43 55,-17 37,1" />
<path style="fill:none;stroke:#4c4c4c;stroke-width:2" d="M267,40 l-55,17 -77,43 -41,52 -18,79 0,119 0,-119 18,-79 41,-52 77,-43 55,-17 38,1" />
<path style="fill:none;stroke:#4c4c4c;stroke-width:2" d="M285,44 l-56,17 -77,43 -42,52 -18,79 0,120 0,-120 18,-79 42,-52 77,-43 56,-17 38,1" />
<path style="fill:none;stroke:#4c4c4c;stroke-width:2" d="M303,48 l-56,17 -78,43 -42,52 -18,80 0,120 0,-120 18,-80 42,-52 78,-43 56,-17 39,1" />
<path style="fill:none;stroke:#4c4c4c;stroke-width:2" d="M125,365 l0,-121 18,-80 43,-52 79,-43 56,-17 37,1" />
<path style="fill:none;stroke:#4c4c4c;stroke-width:2" d="M142,370 l0,-121 18,-80 44,-53 78,-43 57,-17 37,1" />
<path style="fill:none;stroke:#4c4c4c;stroke-width:2" d="M159,376 l0,-122 18,-81 44,-53 79,-43 58,-17 37,1" />
<path style="fill:none;stroke:#4c4c4c;stroke-width:2" d="M176,381 l0,-122 18,-81 44,-53 80,-44 59,-17 37,2" />
<path style="fill:none;stroke:#4c4c4c;stroke-width:2" d="M193,386 l0,-123 19,-81 44,-53 81,-44 59,-17 38,2" />
<path style="fill:none;stroke:#4c4c4c;stroke-width:2" d="M210,391 l0,-123 19,-81 45,-54 81,-44 59,-16 39,1" />
<path style="fill:none;stroke:#4c4c4c;stroke-width:2" d="M227,397 l0,-124 19,-82 45,-53 83,-44 59,-17 39,1" />
<path style="fill:none;stroke:#4c4c4c;stroke-width:2" d="M245,402 l0,-124 19,-82 45,-54 84,-44 60,-17 39,2" />
<path style="fill:none;stroke:#4c4c4c;stroke-width:2" d="M262,408 l0,-125 20,-83 45,-53 85,-45 60,-17 40,2" />
<path style="fill:none;stroke:#4c4c4c;stroke-width:2" d="M280,413 l0,-125 20,-83 46,-54 85,-44 61,-17 40,2" />
<path style="fill:none;stroke:#4c4c4c;stroke-width:2" d="M298,419 l0,-126 20,-83 46,-55 86,-44 62,-17 40,2" />
<path style="fill:none;stroke:#4c4c4c;stroke-width:2" d="M316,425 l0,-127 20,-83 47,-55 86,-45 63,-17 41,3" />
<path style="fill:none;stroke:#4c4c4c;stroke-width:2" d="M335,430 l0,-127 20,-84 47,-54 87,-45 63,-17 41,2" />
<path style="fill:none;stroke:#4c4c4c;stroke-width:2" d="M353,436 l0,-128 20,-84 48,-54 88,-46 63,-16 46,2" />
<path style="fill:none;stroke:#4c4c4c;stroke-width:2" d="M697,317 l0,28 0,-28" />
<path style="fill:none;stroke:#4c4c4c;stroke-width:2" d="M371,442 l0,-128 21,-85 48,-55 89,-45 64,-17 46,2" />
<path style="fill:none;stroke:#4c4c4c;stroke-width:2" d="M719,311 l0,40 0,-40" />
<path style="fill:none;stroke:#4c4c4c;stroke-width:2" d="M390,447 l0,-128 21,-85 48,-55 90,-45 65,-17 46,2" />
<path style="fill:none;stroke:#4c4c4c;stroke-width:2" d="M741,304 l0,53 0,-53" />
<path style="fill:none;stroke:#4c4c4c;stroke-width:2" d="M409,453 l0,-129 21,-85 49,-55 90,-46 65,-17 47,3" />
<path style="fill:none;stroke:#4c4c4c;stroke-width:2" d="M763,297 l0,66 0,-66" />
<path style="fill:none;stroke:#4c4c4c;stroke-width:2" d="M428,459 l0,-130 21,-85 50,-56 90,-45 66,-17 48,2" />
<path style="fill:none;stroke:#4c4c4c;stroke-width:2" d="M785,290 l0,79 0,-79" />
<path style="fill:none;stroke:#4c4c4c;stroke-width:2" d="M447,466 l0,-131 22,-86 49,-56 92,-45 67,-17 48,2" />
<path style="fill:none;stroke:#4c4c4c;stroke-width:2" d="M808,283 l0,92 0,-92" />
<path style="fill:none;stroke:#4c4c4c;stroke-width:2" d="M467,471 l0,-131 21,-86 50,-56 93,-46 67,-17 49,3" />
<path style="fill:none;stroke:#4c4c4c;stroke-width:2" d="M831,276 l0,105 0,-105" />
<path style="fill:none;stroke:#4c4c4c;stroke-width:2" d="M486,478 l0,-132 22,-87 51,-56 93,-46 68,-17 49,3" />
<path style="fill:none;stroke:#4c4c4c;stroke-width:2" d="M854,269 l0,118 0,-118" />
<path style="fill:none;stroke:#4c4c4c;stroke-width:2" d="M506,484 l0,-133 22,-87 51,-56 95,-46 68,-17 49,3" />
<path style="fill:none;stroke:#4c4c4c;stroke-width:2" d="M877,262 l0,131 0,-131" />
<path style="fill:none;stroke:#4c4c4c;stroke-width:2" d="M526,490 l0,-133 22,-87 52,-57 95,-46 69,-17 50,3" />
<path style="fill:none;stroke:#4c4c4c;stroke-width:2" d="M546,496 l0,-133 23,-88 52,-57 95,-46 70,-17 51,3" />
<path style="fill:none;stroke:#4c4c4c;stroke-width:2" d="M567,502 l0,-134 22,-88 53,-57 96,-46 71,-17 51,3" />
<path style="fill:none;stroke:#4c4c4c;stroke-width:2" d="M587,509 l0,-135 23,-88 53,-58 98,-46 71,-17 51,3" />

</svg>
