<?xml version="1.0" encoding="utf-8"?>
<!-- Generator: Adobe Illustrator 16.0.0, SVG Export Plug-In . SVG Version: 6.00 Build 0)  -->
<!DOCTYPE svg PUBLIC "-//W3C//DTD SVG 1.1//EN" "http://www.w3.org/Graphics/SVG/1.1/DTD/svg11.dtd">
<svg version="1.1" id="图层_1" xmlns="http://www.w3.org/2000/svg" preserveAspectRatio="none" xmlns:xlink="http://www.w3.org/1999/xlink" x="0px" y="0px"
	 width="100px" height="100px" viewBox="0 0 100 100" enable-background="new 0 0 100 100" xml:space="preserve">
<g>
	<g>
		<polygon fill="#418538" points="69.497,97.906 6.961,97.906 6.961,93.882 30.464,83.282 93,76.041 93,80.064 		"/>
		<polygon fill="#A5BE3C" points="69.497,93.882 6.961,93.882 30.464,76.041 93,76.041 		"/>
		<rect x="6.961" y="93.882" fill="#71B73C" width="62.536" height="4.024"/>
	</g>
</g>
<g>
	<polygon fill="#4A4A4C" points="18.699,90.715 34.886,78.425 82.538,78.427 66.353,90.715 	"/>
	<polygon fill="#B9B9B9" points="32.619,90.715 36.682,87.631 51.15,87.631 47.088,90.715 	"/>
	<g>
		<g>
			<rect x="33.107" y="62.252" fill="#D0D2D3" width="3.625" height="19.006"/>
		</g>
		<polygon fill="#808184" points="36.732,81.258 39.332,79.286 39.332,60.277 36.732,62.252 		"/>
	</g>
	<polygon fill="#767779" points="80.267,62.556 77.028,65.014 77.028,65.014 68.966,71.135 68.966,87.631 77.028,81.512 
		77.028,81.512 80.267,79.053 	"/>
	<rect x="24.21" y="71.134" fill="#AEAEAE" width="44.755" height="16.498"/>
	<g>
		<g>
			<rect x="60.954" y="71.1" fill="#D0D2D3" width="3.623" height="19.009"/>
		</g>
		<polygon fill="#808184" points="64.577,90.108 67.179,88.136 67.179,69.125 64.577,71.1 		"/>
	</g>
	<g>
		<g>
			<rect x="21.322" y="71.1" fill="#D0D2D3" width="3.626" height="19.009"/>
		</g>
		<polygon fill="#808184" points="24.948,90.108 27.547,88.136 27.547,69.125 24.948,71.1 		"/>
	</g>
	<g>
		<linearGradient id="SVGID_1_" gradientUnits="userSpaceOnUse" x1="16.8555" y1="69.2891" x2="68.1965" y2="17.948">
			<stop  offset="0.011" style="stop-color:#BCE1E5"/>
			<stop  offset="0.1813" style="stop-color:#FFFFFF"/>
			<stop  offset="0.3407" style="stop-color:#A7D7DE"/>
			<stop  offset="0.489" style="stop-color:#FFFFFF"/>
			<stop  offset="0.5769" style="stop-color:#BCE1E5"/>
			<stop  offset="0.6099" style="stop-color:#E9F5F5"/>
			<stop  offset="0.6648" style="stop-color:#BCE1E5"/>
			<stop  offset="0.7198" style="stop-color:#BFE3E6"/>
			<stop  offset="0.7967" style="stop-color:#DBEEEF"/>
			<stop  offset="0.8846" style="stop-color:#BCE1E5"/>
			<stop  offset="0.9341" style="stop-color:#E9F5F5"/>
			<stop  offset="1" style="stop-color:#BEE2E6"/>
		</linearGradient>
		<rect x="18.699" y="16.104" fill="url(#SVGID_1_)" width="47.653" height="55.029"/>
		<g>
			<rect x="18.699" y="23.987" fill="#818181" width="47.653" height="0.933"/>
			<rect x="18.699" y="23.763" fill="#B9B9B9" width="47.653" height="0.933"/>
		</g>
		<g>
			<rect x="18.699" y="19.864" fill="#818181" width="47.653" height="0.933"/>
			<rect x="18.699" y="19.641" fill="#B9B9B9" width="47.653" height="0.933"/>
		</g>
		<g>
			<rect x="18.699" y="28.11" fill="#818181" width="47.653" height="0.932"/>
			<rect x="18.699" y="27.885" fill="#B9B9B9" width="47.653" height="0.934"/>
		</g>
		<g>
			<rect x="18.699" y="32.232" fill="#818181" width="47.653" height="0.934"/>
			<rect x="18.699" y="32.007" fill="#B9B9B9" width="47.653" height="0.934"/>
		</g>
		<g>
			<rect x="18.699" y="36.354" fill="#818181" width="47.653" height="0.933"/>
			<rect x="18.699" y="36.129" fill="#B9B9B9" width="47.653" height="0.933"/>
		</g>
		<g>
			<rect x="18.699" y="40.476" fill="#818181" width="47.653" height="0.933"/>
			<rect x="18.699" y="40.251" fill="#B9B9B9" width="47.653" height="0.934"/>
		</g>
		<g>
			<rect x="18.699" y="44.599" fill="#818181" width="47.653" height="0.933"/>
			<rect x="18.699" y="44.374" fill="#B9B9B9" width="47.653" height="0.933"/>
		</g>
		<g>
			<rect x="18.699" y="48.721" fill="#818181" width="47.653" height="0.933"/>
			<rect x="18.699" y="48.496" fill="#B9B9B9" width="47.653" height="0.933"/>
		</g>
		<g>
			<rect x="18.699" y="52.843" fill="#818181" width="47.653" height="0.934"/>
			<rect x="18.699" y="52.618" fill="#B9B9B9" width="47.653" height="0.933"/>
		</g>
		<g>
			<rect x="18.699" y="56.965" fill="#818181" width="47.653" height="0.934"/>
			<rect x="18.699" y="56.741" fill="#B9B9B9" width="47.653" height="0.934"/>
		</g>
		<g>
			<rect x="18.699" y="61.087" fill="#818181" width="47.653" height="0.935"/>
			<rect x="18.699" y="60.863" fill="#B9B9B9" width="47.653" height="0.935"/>
		</g>
		<g>
			<rect x="18.699" y="65.211" fill="#818181" width="47.653" height="0.933"/>
			<rect x="18.699" y="64.985" fill="#B9B9B9" width="47.653" height="0.935"/>
		</g>
		<g>
			<rect x="18.699" y="16.104" fill="#818181" width="2.753" height="55.029"/>
			<rect x="18.699" y="16.104" fill="#8F8F8F" width="2.088" height="55.029"/>
		</g>
		<g>
			<rect x="29.925" y="16.104" fill="#818181" width="2.752" height="55.029"/>
			<rect x="29.925" y="16.104" fill="#8F8F8F" width="2.087" height="55.029"/>
		</g>
		<g>
			<rect x="41.15" y="16.104" fill="#818181" width="2.752" height="55.029"/>
			<rect x="41.15" y="16.104" fill="#8F8F8F" width="2.087" height="55.029"/>
		</g>
		<g>
			<rect x="52.374" y="16.104" fill="#818181" width="2.753" height="55.029"/>
			<rect x="52.374" y="16.104" fill="#8F8F8F" width="2.09" height="55.029"/>
		</g>
		<g>
			<rect x="63.599" y="16.104" fill="#818181" width="2.754" height="55.029"/>
			<rect x="63.599" y="16.104" fill="#8F8F8F" width="2.089" height="55.029"/>
		</g>
	</g>
	<polygon fill="#767779" points="66.353,71.133 82.538,58.843 82.538,3.818 66.353,16.104 	"/>
	<polygon fill="#CCCECF" points="18.699,13.93 34.886,1.641 82.538,1.644 66.353,13.93 	"/>
	<rect x="18.699" y="13.93" fill="#808184" width="47.653" height="2.174"/>
	<rect x="18.699" y="13.93" fill="#A2A4A7" width="47.653" height="1.742"/>
	<polygon fill="#4A4A4C" points="82.538,3.818 66.353,16.104 66.353,13.93 82.538,1.644 	"/>
	<rect x="18.699" y="71.133" fill="#808184" width="47.653" height="2.175"/>
	<rect x="18.699" y="71.133" fill="#A2A4A7" width="47.653" height="1.74"/>
	<polygon fill="#4A4A4C" points="82.538,61.019 66.353,73.308 66.353,71.133 82.538,58.846 	"/>
	<g>
		<rect x="36.383" y="75.802" fill="#07355C" width="15.068" height="1.128"/>
		<rect x="36.682" y="77.002" fill="#1F1F1F" width="14.469" height="10.629"/>
		<linearGradient id="SVGID_2_" gradientUnits="userSpaceOnUse" x1="37.9673" y1="88.5283" x2="49.866" y2="76.6296">
			<stop  offset="0" style="stop-color:#A7D7DE"/>
			<stop  offset="0.2253" style="stop-color:#FFFFFF"/>
			<stop  offset="0.5769" style="stop-color:#BCE1E5"/>
			<stop  offset="0.6648" style="stop-color:#BCE1E5"/>
			<stop  offset="0.7198" style="stop-color:#BFE3E6"/>
			<stop  offset="0.8077" style="stop-color:#DBEEEF"/>
			<stop  offset="0.8846" style="stop-color:#BCE1E5"/>
			<stop  offset="0.9341" style="stop-color:#E9F5F5"/>
			<stop  offset="1" style="stop-color:#BEE2E6"/>
		</linearGradient>
		<path fill="url(#SVGID_2_)" d="M37.07,77.525c0,0.947,0,9.159,0,10.105c0.715,0,12.977,0,13.692,0c0-0.946,0-9.158,0-10.105
			C50.047,77.525,37.786,77.525,37.07,77.525z"/>
		<rect x="43.779" y="77.525" fill="#383838" width="0.275" height="10.105"/>
	</g>
	<g>
		<polygon fill="#BBBDBF" points="36.609,5.215 41.049,1.845 50.208,6.134 45.77,9.505 		"/>
		<polygon fill="#E3E3E3" points="27.45,9.505 36.609,5.215 41.049,1.845 31.889,6.134 		"/>
		<polygon fill="#A2A4A7" points="45.77,9.505 27.45,9.505 36.609,5.215 		"/>
	</g>
	<g>
		<polygon fill="#BBBDBF" points="59.314,5.215 63.754,1.845 72.915,6.134 68.475,9.505 		"/>
		<polygon fill="#E3E3E3" points="50.155,9.505 59.314,5.215 63.754,1.845 54.595,6.134 		"/>
		<polygon fill="#A2A4A7" points="68.475,9.505 50.155,9.505 59.314,5.215 		"/>
	</g>
</g>
</svg>
