 

<svg xmlns:agg="http://www.example.com" xmlns="http://www.w3.org/2000/svg" preserveAspectRatio="none" width="1.5255in" height="1.0750in" viewBox="0 0 999 704">

<path style="fill:#9e9e9e;stroke:#000;stroke-width:2" d="M970,676 l0,-471 -157,-79 0,471 20,10 0,-216 117,59 0,-19 -117,-60 0,-211 117,59 0,442 20,15z" />
<path style="fill:#6b6b6b;stroke:#000;stroke-width:2" d="M813,126 l-785,0 0,471 19,0 0,-215 746,0 0,-20 -746,0 0,-216 746,0 0,451 20,0 0,-471z" />
<path style="fill:#e6e6e6;stroke:#000;stroke-width:2" d="M970,440 l-157,-78 -785,0 157,78 785,0z" />
<path style="fill:#e6e6e6;stroke:#000;stroke-width:2" d="M970,205 l-157,-79 -785,0 157,79 785,0z" />
<path style="fill:#9e9e9e" d="M33,313 l-5,0 0,49 5,0 0,-49z" />
<path style="fill:#9e9e9e" d="M892,352 l-5,0 0,49 5,0 0,-49z" />
<path style="fill:#9e9e9e" d="M813,313 l-5,0 0,49 5,0 0,-49z" />
<path style="fill:#9e9e9e" d="M617,313 l-5,0 0,49 5,0 0,-49z" />
<path style="fill:#9e9e9e" d="M420,313 l-5,0 0,49 5,0 0,-49z" />
<path style="fill:#9e9e9e" d="M224,313 l-5,0 0,49 5,0 0,-49z" />
<path style="fill:#9e9e9e" d="M33,77 l-5,0 0,49 5,0 0,-49z" />
<path style="fill:#9e9e9e" d="M892,116 l-5,0 0,49 5,0 0,-49z" />
<path style="fill:#9e9e9e" d="M813,77 l-5,0 0,49 5,0 0,-49z" />
<path style="fill:#9e9e9e" d="M617,77 l-5,0 0,49 5,0 0,-49z" />
<path style="fill:#9e9e9e" d="M420,77 l-5,0 0,49 5,0 0,-49z" />
<path style="fill:#9e9e9e" d="M224,77 l-5,0 0,49 5,0 0,-49z" />
<path style="fill:#9e9e9e" d="M28,317 l785,0 157,79 0,-5 -157,-79 -785,0 0,5z" />
<path style="fill:#9e9e9e" d="M28,342 l785,0 157,78 0,-5 -157,-78 -785,0 0,5z" />
<path style="fill:#9e9e9e" d="M28,81 l785,0 157,79 0,-5 -157,-78 -785,0 0,4z" />
<path style="fill:#9e9e9e" d="M28,106 l785,0 157,79 0,-5 -157,-79 -785,0 0,5z" />
<path style="fill:#9e9e9e;stroke:#000;stroke-width:2" d="M146,637 l-40,-20 0,-197 40,20 0,197z" />
<path style="fill:#9e9e9e;stroke:#000;stroke-width:2" d="M146,165 l-40,-19 0,-118 40,20 0,117z" />
<path style="fill:#9e9e9e;stroke:#000;stroke-width:2" d="M146,401 l-40,-20 0,-191 40,20 0,191z" />
<path style="fill:#b6b6b6;stroke:#000;stroke-width:2" d="M146,165 l0,-117 98,0 0,117 -98,0z" />
<path style="fill:#b6b6b6;stroke:#000;stroke-width:2" d="M146,401 l0,-191 98,0 0,191 -98,0z" />
<path style="fill:#b6b6b6;stroke:#000;stroke-width:2" d="M146,637 l0,-197 98,0 0,197 -98,0z" />
<path style="fill:#868686;stroke:#000;stroke-width:2" d="M224,165 l0,-59 -29,0 0,59 29,0z" />
<path style="fill:#868686;stroke:#000;stroke-width:2" d="M224,401 l0,-59 -29,0 0,59 29,0z" />
<path style="fill:#868686;stroke:#000;stroke-width:2" d="M224,637 l0,-59 -29,0 0,59 29,0z" />
<path style="fill:#9e9e9e;stroke:#000;stroke-width:2" d="M195,637 l0,-59 -30,0 0,59 30,0z" />
<path style="fill:#9e9e9e;stroke:#000;stroke-width:2" d="M195,165 l0,-59 -30,0 0,59 30,0z" />
<path style="fill:#9e9e9e;stroke:#000;stroke-width:2" d="M195,401 l0,-59 -30,0 0,59 30,0z" />
<path style="fill:#e6e6e6;stroke:#000;stroke-width:2" d="M244,48 l-98,0 -40,-20 98,0 40,20z" />
<path style="fill:#9e9e9e;stroke:#000;stroke-width:2" d="M185,676 l0,-471 -157,-79 0,471 19,10 0,-216 118,59 0,-19 -118,-60 0,-211 118,59 0,447 20,10z" />
<path style="fill:#9e9e9e" d="M111,352 l-5,0 0,49 5,0 0,-49z" />
<path style="fill:#9e9e9e" d="M970,391 l-5,0 0,49 5,0 0,-49z" />
<path style="fill:#9e9e9e" d="M774,391 l-5,0 0,49 5,0 0,-49z" />
<path style="fill:#9e9e9e" d="M578,391 l-5,0 0,49 5,0 0,-49z" />
<path style="fill:#9e9e9e" d="M381,391 l-5,0 0,49 5,0 0,-49z" />
<path style="fill:#9e9e9e" d="M190,391 l-5,0 0,49 5,0 0,-49z" />
<path style="fill:#9e9e9e" d="M111,116 l-5,0 0,49 5,0 0,-49z" />
<path style="fill:#9e9e9e" d="M970,156 l-5,0 0,49 5,0 0,-49z" />
<path style="fill:#9e9e9e" d="M774,156 l-5,0 0,49 5,0 0,-49z" />
<path style="fill:#9e9e9e" d="M578,156 l-5,0 0,49 5,0 0,-49z" />
<path style="fill:#9e9e9e" d="M381,156 l-5,0 0,49 5,0 0,-49z" />
<path style="fill:#9e9e9e" d="M190,156 l-5,0 0,49 5,0 0,-49z" />
<path style="fill:#b6b6b6;stroke:#000;stroke-width:2" d="M970,205 l-785,0 0,471 19,0 0,-216 746,0 0,-20 -746,0 0,-216 746,0 0,452 20,0 0,-471z" />
<path style="fill:#9e9e9e" d="M970,156 l-785,0 -157,-79 0,5 157,78 785,0 0,-4z" />
<path style="fill:#9e9e9e" d="M970,180 l-785,0 -157,-78 0,4 157,79 785,0 0,-5z" />
<path style="fill:#9e9e9e" d="M970,391 l-785,0 -157,-78 0,4 157,79 785,0 0,-5z" />
<path style="fill:#9e9e9e" d="M970,416 l-785,0 -157,-79 0,5 157,78 785,0 0,-4z" />
<path style="fill:none;stroke:#000;stroke-width:2" d="M779,376 l0,-152" />
<path style="fill:none;stroke:#000;stroke-width:2" d="M764,367 l0,-143" />
<path style="fill:none;stroke:#000;stroke-width:2" d="M779,367 l-15,-10" />
<path style="fill:none;stroke:#000;stroke-width:2" d="M779,234 l-15,-10" />
<path style="fill:none;stroke:#000;stroke-width:2" d="M779,249 l-15,-10" />
<path style="fill:none;stroke:#000;stroke-width:2" d="M779,263 l-15,-9" />
<path style="fill:none;stroke:#000;stroke-width:2" d="M779,278 l-15,-10" />
<path style="fill:none;stroke:#000;stroke-width:2" d="M779,293 l-15,-10" />
<path style="fill:none;stroke:#000;stroke-width:2" d="M779,308 l-15,-10" />
<path style="fill:none;stroke:#000;stroke-width:2" d="M779,322 l-15,-10" />
<path style="fill:none;stroke:#000;stroke-width:2" d="M779,337 l-15,-10" />
<path style="fill:none;stroke:#000;stroke-width:2" d="M779,352 l-15,-10" />
<path style="fill:none;stroke:#000;stroke-width:2" d="M779,612 l0,-152" />
<path style="fill:none;stroke:#000;stroke-width:2" d="M764,602 l0,-142" />
<path style="fill:none;stroke:#000;stroke-width:2" d="M779,602 l-15,-10" />
<path style="fill:none;stroke:#000;stroke-width:2" d="M779,469 l-15,-9" />
<path style="fill:none;stroke:#000;stroke-width:2" d="M779,484 l-15,-10" />
<path style="fill:none;stroke:#000;stroke-width:2" d="M779,499 l-15,-10" />
<path style="fill:none;stroke:#000;stroke-width:2" d="M779,514 l-15,-10" />
<path style="fill:none;stroke:#000;stroke-width:2" d="M779,529 l-15,-10" />
<path style="fill:none;stroke:#000;stroke-width:2" d="M779,543 l-15,-10" />
<path style="fill:none;stroke:#000;stroke-width:2" d="M779,558 l-15,-10" />
<path style="fill:none;stroke:#000;stroke-width:2" d="M779,573 l-15,-10" />
<path style="fill:none;stroke:#000;stroke-width:2" d="M779,587 l-15,-10" />
<path style="fill:#6b6b6b;stroke:#000;stroke-width:2" d="M759,131 l-44,0 24,15 44,0 -24,-15z" />
<path style="fill:#6b6b6b;stroke:#000;stroke-width:2" d="M808,367 l-44,0 25,14 44,0 -25,-14z" />

</svg>
