 

<svg xmlns:agg="http://www.example.com" xmlns="http://www.w3.org/2000/svg" preserveAspectRatio="none" width="1.0750in" height="1.0750in" viewBox="0 0 999 999">

<path style="fill:#ccc;stroke:#000;stroke-width:2" d="M970,970 l0,-550 -785,0 0,550 785,0z" />
<path style="fill:#999;stroke:#000;stroke-width:2" d="M872,755 l0,-59 -78,0 0,59 78,0z" />
<path style="fill:#999;stroke:#000;stroke-width:2" d="M774,755 l0,-59 -79,0 0,59 79,0z" />
<path style="fill:#999;stroke:#000;stroke-width:2" d="M911,970 l0,-98 -98,0 0,98 98,0z" />
<path style="fill:#999;stroke:#000;stroke-width:2" d="M381,931 l0,-59 -79,0 0,59 79,0z" />
<path style="fill:#999;stroke:#000;stroke-width:2" d="M283,931 l0,-59 -79,0 0,59 79,0z" />
<path style="fill:#999;stroke:#000;stroke-width:2" d="M577,931 l0,-59 -78,0 0,59 78,0z" />
<path style="fill:#999;stroke:#000;stroke-width:2" d="M479,931 l0,-59 -78,0 0,59 78,0z" />
<path style="fill:#999;stroke:#000;stroke-width:2" d="M774,931 l0,-59 -79,0 0,59 79,0z" />
<path style="fill:#999;stroke:#000;stroke-width:2" d="M676,931 l0,-59 -79,0 0,59 79,0z" />
<path style="fill:#999;stroke:#000;stroke-width:2" d="M950,538 l0,-79 -746,0 0,79 746,0z" />
<path style="fill:none;stroke:#000;stroke-width:2" d="M862,970 l0,-98" />
<path style="fill:none;stroke:#000;stroke-width:2" d="M813,460 l0,78" />
<path style="fill:none;stroke:#000;stroke-width:2" d="M656,538 l0,-78" />
<path style="fill:none;stroke:#000;stroke-width:2" d="M499,538 l0,-78" />
<path style="fill:none;stroke:#000;stroke-width:2" d="M342,538 l0,-78" />
<path style="fill:#e5e5e5;stroke:#000;stroke-width:2" d="M970,420 l-152,-78 -790,0 157,78 785,0z" />
<path style="fill:#999;stroke:#000;stroke-width:2" d="M28,892 l0,-550 157,78 0,550 -157,-78z" />
<path style="fill:none;stroke:#000;stroke-width:2" d="M153,444 l0,79" />
<path style="fill:none;stroke:#000;stroke-width:2" d="M122,507 l0,-78" />
<path style="fill:none;stroke:#000;stroke-width:2" d="M91,492 l0,-79" />
<path style="fill:none;stroke:#000;stroke-width:2" d="M59,476 l0,-78" />
<path style="fill:#666;stroke:#000;stroke-width:2" d="M185,931 l0,-59 -45,-24 0,59 45,24z" />
<path style="fill:#666;stroke:#000;stroke-width:2" d="M73,872 l0,-59 -45,-24 0,59 45,24z" />
<path style="fill:#666;stroke:#000;stroke-width:2" d="M129,901 l0,-59 -45,-24 0,59 45,24z" />
<path style="fill:#666;stroke:#000;stroke-width:2" d="M181,536 l0,-78 -149,-74 0,79 149,73z" />
<path style="fill:#7f7f7f;stroke:#000;stroke-width:2" d="M361,381 l-11,-353 -44,0 -11,353 66,0z" />
<path style="fill:#7f7f7f;stroke:#000;stroke-width:2" d="M722,381 l-11,-353 -44,0 -11,353 66,0z" />
<path style="fill:#b2b2b2" d="M350,381 l-7,-353 -30,0 -7,353 44,0z" />
<path style="fill:#b2b2b2" d="M711,381 l-7,-353 -29,0 -8,353 44,0z" />
<path style="fill:#e5e5e5" d="M334,381 l-2,-353 -8,0 -2,353 12,0z" />
<path style="fill:#e5e5e5" d="M695,381 l-2,-353 -8,0 -2,353 12,0z" />

</svg>
