 

<svg xmlns:agg="http://www.example.com" xmlns="http://www.w3.org/2000/svg" preserveAspectRatio="none" width="0.1657in" height="1.0750in" viewBox="0 0 154 999">

<path style="fill:#661900" d="M28,957 l0,-903 98,0 0,903 -1,3 -3,2 -4,3 -6,1 -8,2 -8,1 -9,1 -10,0 -10,0 -9,-1 -8,-1 -7,-2 -7,-1 -4,-3 -3,-2 -1,-3z" />
<path style="fill:#752800" d="M33,963 l0,-29 0,-385 -1,-41 1,-41 0,-384 0,-24 0,-5 5,0 78,0 5,0 0,909 -27,6 -8,1 -9,0 -9,0 -30,-5 -5,-2z" />
<path style="fill:#914411" d="M43,966 l0,-912 69,0 0,912 -2,1 -3,0 -3,1 -4,1 -5,0 -5,1 -6,0 -7,0 -7,0 -6,0 -5,-1 -5,0 -5,-1 -3,-1 -2,-1 -1,0z" />
<path style="fill:#ad602d" d="M52,968 l0,-914 50,0 0,914 -1,1 -2,0 -2,0 -3,1 -4,0 -3,0 -5,0 -5,0 -5,0 -5,0 -4,0 -3,-1 -3,0 -3,0 -1,-1 -1,0z" />
<path style="fill:#c97c49" d="M61,969 l0,-915 32,0 0,916 -2,0 -1,0 -2,0 -2,0 -1,0 -3,0 -2,0 -3,0 -3,0 -3,0 -3,0 -2,0 -2,0 -1,0 -1,-1 -1,0z" />
<path style="fill:#e59865" d="M71,970 l0,-916 12,0 0,916 -1,0 -1,0 -2,0 -2,0 -2,0 -2,0 -1,0 -1,0z" />
<path style="fill:#664f40" d="M126,41 l0,16 -98,0 0,-16 1,-3 3,-2 4,-3 6,-1 7,-2 9,-1 9,-1 10,0 10,0 9,1 8,1 8,2 6,1 4,3 3,2 1,3z" />
<path style="fill:#755e4f" d="M121,35 l0,22 -88,0 0,-22 2,-1 3,-1 4,-1 5,-1 6,-2 7,-1 8,0 9,0 9,0 7,0 7,1 6,1 5,2 4,1 4,1 2,1z" />
<path style="fill:#917a6b" d="M112,32 l0,25 -69,0 0,-25 1,-1 3,-1 3,0 4,-1 5,0 5,-1 6,0 7,0 7,0 6,0 6,1 5,0 4,1 4,1 2,0 1,1z" />
<path style="fill:#ad9687" d="M102,30 l0,27 -50,0 0,-27 1,-1 2,0 2,0 3,0 4,-1 3,0 5,0 5,0 5,0 5,0 4,0 3,1 4,0 2,0 1,0 1,1z" />
<path style="fill:#c9b2a3" d="M93,28 l0,29 -32,0 0,-29 1,0 1,0 2,0 2,0 2,0 2,0 3,0 3,0 3,0 3,0 3,0 2,0 2,0 1,0 1,0 1,0z" />
<path style="fill:#e5cebf" d="M83,28 l0,29 -12,0 0,-29 1,0 1,0 2,0 2,0 2,0 2,0 1,0 1,0z" />
<path style="fill:none;stroke:#000;stroke-width:2" d="M28,957 l0,-916 1,-3 29,-9 19,-1 27,2 21,8 1,3 0,916 -1,3 -29,9 -19,1 -28,-2 -20,-8 -1,-3" />

</svg>
