 

<svg xmlns:agg="http://www.example.com" xmlns="http://www.w3.org/2000/svg" preserveAspectRatio="none" width="1.6083in" height="0.6279in" viewBox="0 0 999 390">

<path style="fill:#ccc;stroke:#000;stroke-width:2" d="M970,362 l0,-275 -412,0 0,78 -412,0 0,197 824,0z" />
<path style="fill:#e5e5e5;stroke:#000;stroke-width:2" d="M558,165 l-118,-59 -412,0 118,59 412,0z" />
<path style="fill:#e5e5e5;stroke:#000;stroke-width:2" d="M970,87 l-118,-59 -412,0 118,59 412,0z" />
<path style="fill:#999;stroke:#000;stroke-width:2" d="M420,362 l0,-99 -117,0 0,99 117,0z" />
<path style="fill:#999;stroke:#000;stroke-width:2" d="M950,165 l0,-59 -78,0 0,59 78,0z" />
<path style="fill:#999;stroke:#000;stroke-width:2" d="M852,165 l0,-59 -78,0 0,59 78,0z" />
<path style="fill:#999;stroke:#000;stroke-width:2" d="M754,165 l0,-59 -78,0 0,59 78,0z" />
<path style="fill:#999;stroke:#000;stroke-width:2" d="M656,165 l0,-59 -79,0 0,59 79,0z" />
<path style="fill:#999;stroke:#000;stroke-width:2" d="M146,362 l-118,-59 0,-197 118,59 0,197z" />
<path style="fill:#999;stroke:#000;stroke-width:2" d="M558,165 l-118,-59 0,-78 118,59 0,78z" />

</svg>
