 

<svg xmlns:agg="http://www.example.com" xmlns="http://www.w3.org/2000/svg" preserveAspectRatio="none" width="1.6083in" height="0.9273in" viewBox="0 0 999 576">

<path style="fill:#093" d="M970,548 l-15,0 0,-493 15,0 0,493z" />
<path style="fill:#063" d="M955,548 l-2,0 0,-493 2,0 0,493z" />
<path style="fill:#033" d="M953,548 l-3,0 0,-493 3,0 0,493z" />
<path style="fill:#693" d="M960,548 l-2,0 0,-493 2,0 0,493z" />
<path style="fill:#9f9" d="M968,548 l-8,0 0,-493 8,0 0,493z" />
<path style="fill:none;stroke:#000;stroke-width:2" d="M970,55 l-20,0 0,493 20,0 0,-493" />
<path style="fill:#093" d="M970,38 l0,17 -940,0 0,-17 940,0z" />
<path style="fill:#033" d="M970,55 l0,3 -940,0 0,-3 940,0z" />
<path style="fill:#693" d="M970,48 l0,2 -940,0 0,-2 940,0z" />
<path style="fill:#9f9" d="M970,43 l0,5 -940,0 0,-5 940,0z" />
<path style="fill:none;stroke:#000;stroke-width:2" d="M30,38 l0,20 940,0 0,-20 -940,0" />
<path style="fill:none;stroke:#000;stroke-width:2" d="M30,38 l0,-10" />
<path style="fill:none;stroke:#000;stroke-width:2" d="M68,38 l0,-10" />
<path style="fill:none;stroke:#000;stroke-width:2" d="M108,38 l0,-10" />
<path style="fill:none;stroke:#000;stroke-width:2" d="M148,38 l0,-10" />
<path style="fill:none;stroke:#000;stroke-width:2" d="M186,38 l0,-10" />
<path style="fill:none;stroke:#000;stroke-width:2" d="M226,38 l0,-10" />
<path style="fill:none;stroke:#000;stroke-width:2" d="M264,38 l0,-10" />
<path style="fill:none;stroke:#000;stroke-width:2" d="M304,38 l0,-10" />
<path style="fill:none;stroke:#000;stroke-width:2" d="M344,38 l0,-10" />
<path style="fill:none;stroke:#000;stroke-width:2" d="M382,38 l0,-10" />
<path style="fill:none;stroke:#000;stroke-width:2" d="M422,38 l0,-10" />
<path style="fill:none;stroke:#000;stroke-width:2" d="M460,38 l0,-10" />
<path style="fill:none;stroke:#000;stroke-width:2" d="M500,38 l0,-10" />
<path style="fill:none;stroke:#000;stroke-width:2" d="M540,38 l0,-10" />
<path style="fill:none;stroke:#000;stroke-width:2" d="M578,38 l0,-10" />
<path style="fill:none;stroke:#000;stroke-width:2" d="M618,38 l0,-10" />
<path style="fill:none;stroke:#000;stroke-width:2" d="M656,38 l0,-10" />
<path style="fill:none;stroke:#000;stroke-width:2" d="M696,38 l0,-10" />
<path style="fill:none;stroke:#000;stroke-width:2" d="M737,38 l0,-10" />
<path style="fill:none;stroke:#000;stroke-width:2" d="M774,38 l0,-10" />
<path style="fill:none;stroke:#000;stroke-width:2" d="M814,38 l0,-10" />
<path style="fill:none;stroke:#000;stroke-width:2" d="M852,38 l0,-10" />
<path style="fill:none;stroke:#000;stroke-width:2" d="M892,38 l0,-10" />
<path style="fill:none;stroke:#000;stroke-width:2" d="M930,38 l0,-10" />
<path style="fill:none;stroke:#000;stroke-width:2" d="M28,78 l40,-40" />
<path style="fill:none;stroke:#000;stroke-width:2" d="M108,38 l-80,78" />
<path style="fill:none;stroke:#000;stroke-width:2" d="M28,156 l118,-118" />
<path style="fill:none;stroke:#000;stroke-width:2" d="M186,38 l-158,158" />
<path style="fill:none;stroke:#000;stroke-width:2" d="M28,234 l196,-196" />
<path style="fill:none;stroke:#000;stroke-width:2" d="M264,38 l-236,236" />
<path style="fill:none;stroke:#000;stroke-width:2" d="M28,312 l276,-274" />
<path style="fill:none;stroke:#000;stroke-width:2" d="M342,38 l-314,314" />
<path style="fill:none;stroke:#000;stroke-width:2" d="M28,392 l354,-354" />
<path style="fill:none;stroke:#000;stroke-width:2" d="M68,548 l-40,-40" />
<path style="fill:none;stroke:#000;stroke-width:2" d="M108,548 l-80,-78" />
<path style="fill:none;stroke:#000;stroke-width:2" d="M146,548 l-118,-118" />
<path style="fill:none;stroke:#000;stroke-width:2" d="M186,548 l-158,-156" />
<path style="fill:none;stroke:#000;stroke-width:2" d="M224,548 l-196,-196" />
<path style="fill:none;stroke:#000;stroke-width:2" d="M264,548 l-236,-236" />
<path style="fill:none;stroke:#000;stroke-width:2" d="M304,548 l-276,-274" />
<path style="fill:none;stroke:#000;stroke-width:2" d="M342,548 l-314,-314" />
<path style="fill:none;stroke:#000;stroke-width:2" d="M382,548 l-354,-352" />
<path style="fill:none;stroke:#000;stroke-width:2" d="M420,548 l-392,-392" />
<path style="fill:none;stroke:#000;stroke-width:2" d="M460,548 l-432,-432" />
<path style="fill:none;stroke:#000;stroke-width:2" d="M500,548 l-472,-470" />
<path style="fill:none;stroke:#000;stroke-width:2" d="M538,548 l-510,-510" />
<path style="fill:none;stroke:#000;stroke-width:2" d="M578,548 l-510,-510" />
<path style="fill:none;stroke:#000;stroke-width:2" d="M618,548 l-510,-510" />
<path style="fill:none;stroke:#000;stroke-width:2" d="M656,548 l-510,-510" />
<path style="fill:none;stroke:#000;stroke-width:2" d="M696,548 l-510,-510" />
<path style="fill:none;stroke:#000;stroke-width:2" d="M734,548 l-510,-510" />
<path style="fill:none;stroke:#000;stroke-width:2" d="M774,548 l-510,-510" />
<path style="fill:none;stroke:#000;stroke-width:2" d="M814,548 l-510,-510" />
<path style="fill:none;stroke:#000;stroke-width:2" d="M852,548 l-510,-510" />
<path style="fill:none;stroke:#000;stroke-width:2" d="M892,548 l-510,-510" />
<path style="fill:none;stroke:#000;stroke-width:2" d="M970,508 l-40,40" />
<path style="fill:none;stroke:#000;stroke-width:2" d="M970,470 l-78,78" />
<path style="fill:none;stroke:#000;stroke-width:2" d="M970,430 l-118,118" />
<path style="fill:none;stroke:#000;stroke-width:2" d="M970,392 l-156,156" />
<path style="fill:none;stroke:#000;stroke-width:2" d="M970,352 l-196,196" />
<path style="fill:none;stroke:#000;stroke-width:2" d="M970,312 l-236,236" />
<path style="fill:none;stroke:#000;stroke-width:2" d="M970,274 l-274,274" />
<path style="fill:none;stroke:#000;stroke-width:2" d="M970,234 l-314,314" />
<path style="fill:none;stroke:#000;stroke-width:2" d="M970,196 l-352,352" />
<path style="fill:none;stroke:#000;stroke-width:2" d="M970,156 l-392,392" />
<path style="fill:none;stroke:#000;stroke-width:2" d="M970,116 l-432,432" />
<path style="fill:none;stroke:#000;stroke-width:2" d="M970,78 l-470,470" />
<path style="fill:none;stroke:#000;stroke-width:2" d="M970,38 l-510,510" />
<path style="fill:none;stroke:#000;stroke-width:2" d="M970,78 l-40,-40 -510,510" />
<path style="fill:none;stroke:#000;stroke-width:2" d="M970,116 l-78,-78 -510,510" />
<path style="fill:none;stroke:#000;stroke-width:2" d="M970,156 l-118,-118 -510,510" />
<path style="fill:none;stroke:#000;stroke-width:2" d="M970,196 l-156,-158 -510,510" />
<path style="fill:none;stroke:#000;stroke-width:2" d="M970,234 l-196,-196 -510,510" />
<path style="fill:none;stroke:#000;stroke-width:2" d="M970,274 l-236,-236 -510,510" />
<path style="fill:none;stroke:#000;stroke-width:2" d="M970,312 l-274,-274 -510,510" />
<path style="fill:none;stroke:#000;stroke-width:2" d="M970,352 l-314,-314 -510,510" />
<path style="fill:none;stroke:#000;stroke-width:2" d="M970,392 l-352,-354 -510,510" />
<path style="fill:none;stroke:#000;stroke-width:2" d="M970,430 l-392,-392 -510,510" />
<path style="fill:none;stroke:#000;stroke-width:2" d="M970,470 l-432,-432 -510,510" />
<path style="fill:none;stroke:#000;stroke-width:2" d="M970,508 l-470,-470 -472,470" />
<path style="fill:none;stroke:#000;stroke-width:2" d="M970,548 l-510,-510 -432,432" />
<path style="fill:none;stroke:#000;stroke-width:2" d="M930,548 l-510,-510 -392,392" />

</svg>
