 

<svg xmlns:agg="http://www.example.com" xmlns="http://www.w3.org/2000/svg" preserveAspectRatio="none" width="1.5255in" height="1.0750in" viewBox="0 0 999 704">

<path style="fill:#e5e5e5;stroke:#000;stroke-width:2" d="M617,87 l-118,-59 -196,0 117,59 197,0z" />
<path style="fill:#e5e5e5;stroke:#000;stroke-width:2" d="M970,205 l-118,-59 -824,0 118,59 824,0z" />
<path style="fill:#999;stroke:#000;stroke-width:2" d="M420,205 l-117,-59 0,-118 117,59 0,118z" />
<path style="fill:#ccc;stroke:#000;stroke-width:2" d="M970,676 l0,-471 -353,0 0,-118 -197,0 0,118 -274,0 0,471 824,0z" />
<path style="fill:#999;stroke:#000;stroke-width:2" d="M146,676 l-118,-59 0,-471 118,59 0,471z" />
<path style="fill:#999;stroke:#000;stroke-width:2" d="M892,519 l0,-59 -79,0 0,59 79,0z" />
<path style="fill:#999;stroke:#000;stroke-width:2" d="M793,519 l0,-59 -78,0 0,59 78,0z" />
<path style="fill:#999;stroke:#000;stroke-width:2" d="M695,519 l0,-59 -78,0 0,59 78,0z" />
<path style="fill:#999;stroke:#000;stroke-width:2" d="M597,519 l0,-59 -79,0 0,59 79,0z" />
<path style="fill:#999;stroke:#000;stroke-width:2" d="M499,519 l0,-59 -79,0 0,59 79,0z" />
<path style="fill:#999;stroke:#000;stroke-width:2" d="M401,519 l0,-59 -79,0 0,59 79,0z" />
<path style="fill:#999;stroke:#000;stroke-width:2" d="M303,519 l0,-59 -79,0 0,59 79,0z" />
<path style="fill:#999;stroke:#000;stroke-width:2" d="M892,421 l0,-59 -79,0 0,59 79,0z" />
<path style="fill:#999;stroke:#000;stroke-width:2" d="M793,421 l0,-59 -78,0 0,59 78,0z" />
<path style="fill:#999;stroke:#000;stroke-width:2" d="M695,421 l0,-59 -78,0 0,59 78,0z" />
<path style="fill:#999;stroke:#000;stroke-width:2" d="M597,421 l0,-59 -79,0 0,59 79,0z" />
<path style="fill:#999;stroke:#000;stroke-width:2" d="M499,421 l0,-59 -79,0 0,59 79,0z" />
<path style="fill:#999;stroke:#000;stroke-width:2" d="M401,421 l0,-59 -79,0 0,59 79,0z" />
<path style="fill:#999;stroke:#000;stroke-width:2" d="M303,421 l0,-59 -79,0 0,59 79,0z" />

</svg>
