 

<svg xmlns:agg="http://www.example.com" xmlns="http://www.w3.org/2000/svg" preserveAspectRatio="none" width="0.8888in" height="1.0750in" viewBox="0 0 826 999">

<path style="fill:#cecece;stroke:#000;stroke-width:2" d="M693,112 l0,851 0,8 3,0 15,0 3,0 0,-8 0,-861 -14,-26 -11,-5 -6,-1 -6,0 -87,0 -26,15 -5,11 -1,6 0,4 0,32 21,0 1,-31 2,-9 28,-7 62,0 21,16 0,5z" />
<path style="fill:#868686;stroke:#000;stroke-width:2" d="M371,346 l-57,0 0,21 57,0 0,-21z" />
<path style="fill:#6b6b6b;stroke:#000;stroke-width:2" d="M173,227 l-21,0 0,744 21,0 0,-744z" />
<path style="fill:#6b6b6b;stroke:#000;stroke-width:2" d="M735,227 l-10,0 0,36 10,0 0,-36z" />
<path style="fill:#6b6b6b;stroke:#000;stroke-width:2" d="M777,804 l-750,0 0,167 750,0 0,-167z" />
<path style="fill:#afafaf;stroke:#000;stroke-width:2" d="M693,220 l-48,0 0,13 48,0 0,-13z" />
<path style="fill:#afafaf;stroke:#000;stroke-width:2" d="M693,319 l-48,0 0,13 48,0 0,-13z" />
<path style="fill:#afafaf;stroke:#000;stroke-width:2" d="M693,233 l-3,0 -21,35 -19,-35 -4,0 0,8 20,34 -21,36 0,8 4,0 20,-36 20,36 4,0 0,-8 -18,-36 18,-34 0,-8z" />
<path style="fill:#afafaf;stroke:#000;stroke-width:2" d="M693,418 l-48,0 0,12 48,0 0,-12z" />
<path style="fill:#afafaf;stroke:#000;stroke-width:2" d="M693,332 l-3,0 -21,35 -19,-35 -4,0 0,7 20,35 -21,36 0,8 4,0 20,-37 20,37 4,0 0,-8 -18,-36 18,-34 0,-8z" />
<path style="fill:#afafaf;stroke:#000;stroke-width:2" d="M693,517 l-48,0 0,12 48,0 0,-12z" />
<path style="fill:#afafaf;stroke:#000;stroke-width:2" d="M693,430 l-3,0 -21,35 -19,-35 -4,0 0,8 20,34 -21,37 0,8 4,0 20,-37 20,37 4,0 0,-8 -18,-37 18,-34 0,-8z" />
<path style="fill:#afafaf;stroke:#000;stroke-width:2" d="M693,615 l-48,0 0,13 48,0 0,-13z" />
<path style="fill:#afafaf;stroke:#000;stroke-width:2" d="M693,529 l-3,0 -21,35 -19,-35 -4,0 0,8 20,34 -21,37 0,7 4,0 20,-36 20,36 4,0 0,-7 -18,-37 18,-34 0,-8z" />
<path style="fill:#afafaf;stroke:#000;stroke-width:2" d="M693,714 l-48,0 0,12 48,0 0,-12z" />
<path style="fill:#afafaf;stroke:#000;stroke-width:2" d="M693,628 l-3,0 -21,34 -19,-34 -4,0 0,7 20,34 -21,37 0,7 4,0 20,-36 20,36 4,0 0,-7 -18,-37 18,-33 0,-8z" />
<path style="fill:#afafaf;stroke:#000;stroke-width:2" d="M693,812 l-48,0 0,13 48,0 0,-13z" />
<path style="fill:#afafaf;stroke:#000;stroke-width:2" d="M693,726 l-3,0 -21,35 -19,-35 -4,0 0,8 20,34 -21,36 0,8 4,0 20,-36 20,36 4,0 0,-8 -18,-36 18,-34 0,-8z" />
<path style="fill:#afafaf;stroke:#000;stroke-width:2" d="M693,911 l-48,0 0,13 48,0 0,-13z" />
<path style="fill:#afafaf;stroke:#000;stroke-width:2" d="M693,825 l-3,0 -21,35 -19,-35 -4,0 0,8 20,34 -21,36 0,8 4,0 20,-36 20,36 4,0 0,-7 -18,-37 18,-34 0,-8z" />
<path style="fill:#9e9e9e;stroke:#000;stroke-width:2" d="M480,154 l0,817 172,0 0,-817 -20,-23 -25,-9 -32,-4 -9,-1 -33,3 -28,8 -21,15 -4,11z" />
<path style="fill:#9e9e9e;stroke:#000;stroke-width:2" d="M683,299 l0,672 94,0 0,-672 -1,-9 -3,-8 -4,-8 -6,-7 -7,-5 -8,-4 -9,-3 -9,-1 -10,1 -9,3 -8,4 -7,5 -5,7 -5,8 -2,8 -1,9z" />
<path style="fill:#9e9e9e;stroke:#000;stroke-width:2" d="M27,216 l0,755 110,0 0,-755 -7,-25 -17,-19 -25,-9 -6,0 -26,6 -19,18 -9,24 -1,5z" />
<path style="fill:#868686;stroke:#000;stroke-width:2" d="M241,388 l0,583 172,0 0,-583 -1,-3 -25,-13 -27,-5 -25,-1 -34,1 -29,4 -24,8 -7,6 0,3z" />
<path style="fill:#b6b6b6" d="M704,303 l0,668 52,0 0,-668 -1,-9 -1,-9 -3,-7 -3,-7 -4,-6 -4,-4 -5,-2 -5,-1 -6,1 -4,2 -5,4 -4,6 -3,7 -2,7 -2,9 0,9z" />
<path style="fill:#cecece" d="M506,159 l0,812 120,0 0,-812 -14,-23 -23,-11 -23,-3 -29,5 -24,14 -7,18z" />
<path style="fill:#9e9e9e" d="M272,389 l0,582 110,0 0,-582 -20,-17 -29,-5 -27,1 -25,8 -9,13z" />
<path style="fill:#9e9e9e;stroke:#000;stroke-width:2" d="M163,487 l0,484 146,0 0,-484 -17,-20 -28,-9 -21,-3 -29,1 -30,8 -20,16 -1,7z" />
<path style="fill:#b6b6b6" d="M189,492 l0,479 94,0 0,-479 -1,-6 -3,-6 -4,-6 -6,-4 -7,-4 -8,-3 -9,-2 -9,0 -10,0 -9,2 -8,3 -7,4 -5,4 -5,6 -2,6 -1,6z" />
<path style="fill:#cecece" d="M48,222 l0,749 68,0 0,-749 0,-11 -2,-9 -4,-9 -4,-8 -5,-7 -6,-5 -6,-3 -7,-1 -7,1 -6,3 -6,5 -5,7 -4,8 -3,9 -2,9 -1,11z" />
<path style="fill:#868686;stroke:#000;stroke-width:2" d="M798,971 l0,-63 -63,-62 -88,0 -63,62 0,63 214,0z" />
<path style="fill:#b6b6b6;stroke:#000;stroke-width:2" d="M371,346 l-21,0 0,625 21,0 0,-625z" />
<path style="fill:#353535;stroke:#000;stroke-width:2" d="M683,689 l-374,0 0,11 374,0 0,-11z" />
<path style="fill:#b6b6b6;stroke:#000;stroke-width:2" d="M683,632 l-374,0 0,11 374,0 0,-11z" />
<path style="fill:#6b6b6b;stroke:#000;stroke-width:2" d="M667,643 l-10,0 0,46 10,0 0,-46z" />
<path style="fill:#6b6b6b;stroke:#000;stroke-width:2" d="M626,643 l-11,0 0,46 11,0 0,-46z" />
<path style="fill:#6b6b6b;stroke:#000;stroke-width:2" d="M584,643 l-10,0 0,46 10,0 0,-46z" />
<path style="fill:#6b6b6b;stroke:#000;stroke-width:2" d="M543,643 l-11,0 0,46 11,0 0,-46z" />
<path style="fill:#6b6b6b;stroke:#000;stroke-width:2" d="M501,643 l-11,0 0,46 11,0 0,-46z" />
<path style="fill:#6b6b6b;stroke:#000;stroke-width:2" d="M459,643 l-10,0 0,46 10,0 0,-46z" />
<path style="fill:#6b6b6b;stroke:#000;stroke-width:2" d="M418,643 l-11,0 0,46 11,0 0,-46z" />
<path style="fill:#6b6b6b;stroke:#000;stroke-width:2" d="M376,643 l-11,0 0,46 11,0 0,-46z" />
<path style="fill:#6b6b6b;stroke:#000;stroke-width:2" d="M334,643 l-10,0 0,46 10,0 0,-46z" />
<path style="fill:#cecece;stroke:#000;stroke-width:2" d="M190,462 l0,503 0,6 -2,0 -12,0 -2,0 0,-6 0,-511 15,-23 4,-1 5,-1 8,0 4,0 -3,0 29,8 7,12 1,5 0,2 0,1 0,-2 0,3 -17,0 -1,-7 -1,-3 -2,-1 -19,-1 9,0 -23,12 0,4z" />
<path style="fill:#e6e6e6;stroke:#7f7f7f;stroke-width:2" d="M345,326 l-1,-28 2,-18 1,-1 0,-2 -7,-25 -21,-22 -3,-4 -2,-4 6,-31 -14,-21 -11,-31 -15,-12 -2,-2 0,-2 6,-28 0,-12 -2,-4 -22,-15 -20,-1 -22,-18 -23,-14 -10,-3 -2,-1 -3,0 -25,7 -26,6 -13,-3 -5,-3 1,3 10,16 -1,1 -5,1 -1,4 18,24 25,15 25,10 20,6 -1,2 -6,5 -1,5 2,7 23,21 17,24 10,2 14,21 17,15 4,8 0,2 3,34 14,25 5,4 16,22 17,19 6,8 2,2 1,-1 -1,-13z" />
<path style="fill:#9e9e9e" d="M340,321 l1,-4 0,-3 0,-4 -7,-27 -8,-25 -14,-27 -11,-12 -1,-3 2,-24 -3,-5 -19,-8 -10,-24 -18,-9 0,-3 5,-28 0,-4 -2,-4 -22,-12 -25,-12 -18,-23 -2,-3 -2,0 -28,0 -28,-8 -4,-2 -4,-2 2,3 22,20 4,4 1,3 -3,1 -1,2 1,2 27,9 23,13 22,11 3,1 -9,4 -2,4 1,5 18,17 18,24 8,2 10,23 7,16 15,22 5,26 14,15 10,27 14,22 4,5 3,3 1,-2 0,-6z" />

</svg>
