 

<svg xmlns:agg="http://www.example.com" xmlns="http://www.w3.org/2000/svg" preserveAspectRatio="none" width="0.7543in" height="1.0750in" viewBox="0 0 701 999">

<path style="fill:#9cc;stroke:#000;stroke-width:2" d="M350,177 l-124,0 -198,-149 111,149 -111,62 0,37 124,0 123,347 -25,347 25,0 75,-92 75,92 25,0 -25,-347 123,-347 124,0 0,-37 -111,-62 111,-149 -198,149 -124,0z" />
<path style="fill:#bfbfbf;fill-rule:evenodd" d="M307,803 l86,0 -45,43 -41,-43z M275,933 l7,-130 55,56 -62,74z M424,933 l-6,-130 -55,56 61,74z M310,640 l80,0 -42,46 -38,-46z M282,759 l6,-119 49,57 -55,62z M418,759 l-6,-119 -49,57 55,62z M418,784 l-136,0 68,-74 68,74z M226,275 l248,0 0,143 -124,138 -124,-138 0,-143z M393,616 l-86,0 43,-43 43,43z M288,605 l-13,-32 51,0 -38,32z M269,556 l-43,-114 100,114 -57,0z M412,605 l13,-32 -50,0 37,32z M431,556 l43,-114 -99,114 56,0z M207,375 l0,-99 -38,0 38,99z M493,375 l0,-99 36,0 -36,99z M226,201 l248,0 0,49 -248,0 0,-49z M139,250 l-12,-36 -75,36 87,0z M561,250 l13,-36 74,36 -87,0z M195,177 l-75,-57 43,57 32,0z M505,177 l75,-57 -43,57 -32,0z " />
<path style="fill:none;stroke:#000;stroke-width:2" d="M307,803 l86,0 -45,43 -41,-43" />
<path style="fill:none;stroke:#000;stroke-width:2" d="M275,933 l7,-130 55,56 -62,74" />
<path style="fill:none;stroke:#000;stroke-width:2" d="M424,933 l-6,-130 -55,56 61,74" />
<path style="fill:none;stroke:#000;stroke-width:2" d="M310,640 l80,0 -42,46 -38,-46" />
<path style="fill:none;stroke:#000;stroke-width:2" d="M282,759 l6,-119 49,57 -55,62" />
<path style="fill:none;stroke:#000;stroke-width:2" d="M418,759 l-6,-119 -49,57 55,62" />
<path style="fill:none;stroke:#000;stroke-width:2" d="M418,784 l-136,0 68,-74 68,74" />
<path style="fill:none;stroke:#000;stroke-width:2" d="M226,275 l248,0 0,143 -124,138 -124,-138 0,-143" />
<path style="fill:none;stroke:#000;stroke-width:2" d="M393,616 l-86,0 43,-43 43,43" />
<path style="fill:none;stroke:#000;stroke-width:2" d="M288,605 l-13,-32 51,0 -38,32" />
<path style="fill:none;stroke:#000;stroke-width:2" d="M269,556 l-43,-114 100,114 -57,0" />
<path style="fill:none;stroke:#000;stroke-width:2" d="M412,605 l13,-32 -50,0 37,32" />
<path style="fill:none;stroke:#000;stroke-width:2" d="M431,556 l43,-114 -99,114 56,0" />
<path style="fill:none;stroke:#000;stroke-width:2" d="M207,375 l0,-99 -38,0 38,99" />
<path style="fill:none;stroke:#000;stroke-width:2" d="M493,375 l0,-99 36,0 -36,99" />
<path style="fill:none;stroke:#000;stroke-width:2" d="M226,201 l248,0 0,49 -248,0 0,-49" />
<path style="fill:none;stroke:#000;stroke-width:2" d="M139,250 l-12,-36 -75,36 87,0" />
<path style="fill:none;stroke:#000;stroke-width:2" d="M561,250 l13,-36 74,36 -87,0" />
<path style="fill:none;stroke:#000;stroke-width:2" d="M195,177 l-75,-57 43,57 32,0" />
<path style="fill:none;stroke:#000;stroke-width:2" d="M505,177 l75,-57 -43,57 -32,0" />

</svg>
