 

<svg xmlns:agg="http://www.example.com" xmlns="http://www.w3.org/2000/svg" preserveAspectRatio="none" width="0.4347in" height="1.0750in" viewBox="0 0 404 999">

<path style="fill:#ccc;stroke:#000;stroke-width:2" d="M376,970 l0,-899 -256,0 0,899 256,0z" />
<path style="fill:#e5e5e5;stroke:#000;stroke-width:2" d="M376,71 l-84,-43 -264,0 92,43 256,0z" />
<path style="fill:#999;stroke:#000;stroke-width:2" d="M33,927 l0,-899 87,43 0,899 -87,-43z" />
<path style="fill:#999;stroke:#000;stroke-width:2" d="M292,178 l0,-65 -87,0 0,65 87,0z" />
<path style="fill:#999;stroke:#000;stroke-width:2" d="M292,263 l0,-64 -87,0 0,64 87,0z" />
<path style="fill:#999;stroke:#000;stroke-width:2" d="M292,350 l0,-66 -87,0 0,66 87,0z" />
<path style="fill:#999;stroke:#000;stroke-width:2" d="M292,435 l0,-64 -87,0 0,64 87,0z" />
<path style="fill:#999;stroke:#000;stroke-width:2" d="M292,520 l0,-64 -87,0 0,64 87,0z" />
<path style="fill:#999;stroke:#000;stroke-width:2" d="M292,691 l0,-64 -87,0 0,64 87,0z" />
<path style="fill:#999;stroke:#000;stroke-width:2" d="M292,778 l0,-66 -87,0 0,66 87,0z" />
<path style="fill:#999;stroke:#000;stroke-width:2" d="M312,970 l0,-107 -128,0 0,107 128,0z" />
<path style="fill:none;stroke:#000;stroke-width:2" d="M248,863 l0,107" />

</svg>
