<?xml version="1.0" encoding="utf-8"?>
<!-- Generator: Adobe Illustrator 16.0.0, SVG Export Plug-In . SVG Version: 6.00 Build 0)  -->
<!DOCTYPE svg PUBLIC "-//W3C//DTD SVG 1.1//EN" "http://www.w3.org/Graphics/SVG/1.1/DTD/svg11.dtd">
<svg version="1.1" id="图层_1" xmlns="http://www.w3.org/2000/svg" preserveAspectRatio="none" xmlns:xlink="http://www.w3.org/1999/xlink" x="0px" y="0px"
	 width="100px" height="100px" viewBox="0 0 100 100" enable-background="new 0 0 100 100" xml:space="preserve">
<g>
	<g>
		<polygon fill="#418538" points="71.859,81.748 1.454,81.748 1.454,76.813 27.914,63.813 98.319,54.933 98.319,59.868 		"/>
		<polygon fill="#A5BE3C" points="71.859,76.813 1.454,76.813 27.914,54.933 98.319,54.933 		"/>
		<rect x="1.454" y="76.813" fill="#71B73C" width="70.405" height="4.936"/>
		<g>
			<defs>
				<polygon id="SVGID_1_" points="71.859,76.813 1.454,76.813 27.914,54.933 98.319,54.933 				"/>
			</defs>
			<clipPath id="SVGID_2_">
				<use xlink:href="#SVGID_1_"  overflow="visible"/>
			</clipPath>
		</g>
	</g>
</g>
<g>
	<polygon fill="#846226" points="60.598,54.439 60.598,75.152 82.679,56.894 82.679,36.182 	"/>
	<polygon fill="#7E5440" points="60.598,54.439 17.188,54.466 39.268,36.207 82.679,36.182 	"/>
	<g>
		<rect x="17.188" y="55.307" fill="#A58323" width="43.409" height="19.846"/>
		<rect x="17.188" y="73.251" fill="#936F40" width="43.409" height="1.901"/>
		<rect x="51.475" y="73.251" fill="#DCDCDD" width="7.716" height="0.95"/>
		<rect x="50.808" y="74.201" fill="#C5C7C9" width="9.049" height="0.951"/>
		<rect x="52.212" y="62.232" fill="#FFFFFF" width="6.281" height="11.019"/>
		<path fill="#8E1D22" d="M52.937,63.021c0,1.361,0,8.869,0,10.229c0.985,0,3.849,0,4.836,0c0-1.36,0-8.868,0-10.229
			C56.785,63.021,53.922,63.021,52.937,63.021z"/>
		<rect x="53.41" y="67.09" fill="#C5C7C9" width="0.399" height="2.028"/>
		<polygon fill="#503417" points="60.598,75.152 69.479,67.807 69.479,65.906 60.598,73.251 		"/>
		<polygon fill="#503417" points="68.496,68.619 77.378,61.274 77.378,59.375 68.496,66.719 		"/>
		<polygon fill="#503417" points="73.8,64.235 82.679,56.894 82.679,54.993 73.8,62.336 		"/>
		<polygon fill="#432E23" points="60.598,54.466 60.598,56.638 82.679,38.379 82.679,36.207 		"/>
		<g>
			<rect x="43.936" y="60.211" fill="#583D1B" width="4.518" height="8.357"/>
			<rect x="44.313" y="60.626" fill="#7BC7E9" width="3.761" height="7.526"/>
			<path fill="#B0DBF2" d="M47.603,61.56c0.161,0,0.319,0.01,0.471,0.026v-0.96h-3.761v6.247
				C44.869,65.764,46.133,61.56,47.603,61.56z"/>
			<rect x="44.313" y="60.626" fill="#6398B1" width="3.761" height="0.191"/>
			<rect x="44.313" y="67.996" fill="#BADEF2" width="3.761" height="0.156"/>
			<rect x="44.313" y="64.556" fill="#6398B1" width="3.761" height="0.303"/>
			<rect x="44.075" y="64.105" fill="#583D1B" width="4.236" height="0.568"/>
		</g>
		<g>
			<rect x="36.352" y="60.211" fill="#583D1B" width="4.521" height="8.357"/>
			<rect x="36.732" y="60.626" fill="#7BC7E9" width="3.762" height="7.526"/>
			<path fill="#B0DBF2" d="M40.025,61.56c0.161,0,0.315,0.01,0.469,0.026v-0.96h-3.762v6.247
				C37.287,65.764,38.552,61.56,40.025,61.56z"/>
			<rect x="36.732" y="60.626" fill="#6398B1" width="3.762" height="0.191"/>
			<rect x="36.732" y="67.996" fill="#BADEF2" width="3.762" height="0.156"/>
			<rect x="36.732" y="64.556" fill="#6398B1" width="3.762" height="0.303"/>
			<rect x="36.494" y="64.105" fill="#583D1B" width="4.237" height="0.568"/>
		</g>
		<g>
			<rect x="28.77" y="60.211" fill="#583D1B" width="4.525" height="8.357"/>
			<rect x="29.151" y="60.626" fill="#7BC7E9" width="3.763" height="7.526"/>
			<path fill="#B0DBF2" d="M32.446,61.56c0.157,0,0.314,0.01,0.469,0.026v-0.96h-3.763v6.247
				C29.708,65.764,30.971,61.56,32.446,61.56z"/>
			<rect x="29.151" y="60.626" fill="#6398B1" width="3.763" height="0.191"/>
			<rect x="29.151" y="67.996" fill="#BADEF2" width="3.763" height="0.156"/>
			<rect x="29.151" y="64.556" fill="#6398B1" width="3.763" height="0.303"/>
			<rect x="28.914" y="64.105" fill="#583D1B" width="4.238" height="0.568"/>
		</g>
		<g>
			<rect x="21.191" y="60.211" fill="#583D1B" width="4.521" height="8.357"/>
			<rect x="21.572" y="60.626" fill="#7BC7E9" width="3.759" height="7.526"/>
			<path fill="#B0DBF2" d="M24.864,61.56c0.157,0,0.315,0.01,0.467,0.026v-0.96h-3.759v6.247
				C22.126,65.764,23.39,61.56,24.864,61.56z"/>
			<rect x="21.572" y="60.626" fill="#6398B1" width="3.759" height="0.191"/>
			<rect x="21.572" y="67.996" fill="#BADEF2" width="3.759" height="0.156"/>
			<rect x="21.572" y="64.556" fill="#6398B1" width="3.759" height="0.303"/>
			<rect x="21.332" y="64.105" fill="#583D1B" width="4.237" height="0.568"/>
		</g>
		<rect x="17.188" y="54.466" fill="#583D1B" width="43.409" height="2.172"/>
	</g>
	<g>
		<g>
			<polygon fill="#A08326" points="43.169,48.726 55.936,38.169 55.936,22.037 43.169,32.593 			"/>
			<g>
				<rect x="43.169" y="33.697" fill="#A58323" width="19.872" height="15.028"/>
				<rect x="43.169" y="46.305" fill="#936F40" width="19.872" height="2.421"/>
				<rect x="43.169" y="32.593" fill="#583D1B" width="19.872" height="1.104"/>
			</g>
			<polygon fill="#846226" points="63.041,48.726 75.806,38.169 75.806,22.037 63.041,32.593 			"/>
			<polygon fill="#503417" points="63.041,48.726 75.806,38.169 75.806,35.749 63.041,46.305 			"/>
			<polygon fill="#432E23" points="63.041,33.697 75.806,23.141 75.806,22.037 63.041,32.593 			"/>
			<polygon fill="#7E5440" points="75.806,22.037 63.041,32.593 43.169,32.593 55.936,22.037 			"/>
			<g>
				<rect x="48.169" y="23.652" fill="#A58323" width="3.739" height="6.481"/>
				<rect x="48.169" y="23.652" fill="#58595B" width="3.739" height="0.819"/>
				<polygon fill="#846226" points="51.908,30.133 53.854,28.525 53.854,22.044 51.908,23.652 				"/>
				<polygon fill="#221F20" points="51.908,24.471 53.854,22.863 53.854,22.044 51.908,23.652 				"/>
				<polygon fill="#737477" points="51.908,23.652 53.854,22.044 50.114,22.044 48.169,23.652 				"/>
				<polygon fill="#221F20" points="51.798,23.297 49.137,23.297 50.223,22.399 52.885,22.399 51.798,23.297 				"/>
			</g>
		</g>
		<g>
			<rect x="54.343" y="35.925" fill="#583D1B" width="4.519" height="8.358"/>
			<rect x="54.72" y="36.34" fill="#7BC7E9" width="3.761" height="7.528"/>
			<path fill="#B0DBF2" d="M58.01,37.275c0.16,0,0.318,0.009,0.471,0.025v-0.96H54.72v6.249
				C55.275,41.479,56.538,37.275,58.01,37.275z"/>
			<rect x="54.72" y="36.34" fill="#6398B1" width="3.761" height="0.192"/>
			<rect x="54.72" y="43.71" fill="#BADEF2" width="3.761" height="0.158"/>
			<rect x="54.72" y="40.27" fill="#6398B1" width="3.761" height="0.304"/>
			<rect x="54.482" y="39.82" fill="#583D1B" width="4.235" height="0.569"/>
		</g>
		<g>
			<rect x="46.759" y="35.925" fill="#583D1B" width="4.521" height="8.358"/>
			<rect x="47.139" y="36.34" fill="#7BC7E9" width="3.763" height="7.528"/>
			<path fill="#B0DBF2" d="M50.432,37.275c0.16,0,0.315,0.009,0.47,0.025v-0.96h-3.763v6.249
				C47.693,41.479,48.959,37.275,50.432,37.275z"/>
			<rect x="47.139" y="36.34" fill="#6398B1" width="3.763" height="0.192"/>
			<rect x="47.139" y="43.71" fill="#BADEF2" width="3.763" height="0.158"/>
			<rect x="47.139" y="40.27" fill="#6398B1" width="3.763" height="0.304"/>
			<rect x="46.9" y="39.82" fill="#583D1B" width="4.236" height="0.569"/>
		</g>
	</g>
	<g>
		<linearGradient id="SVGID_3_" gradientUnits="userSpaceOnUse" x1="37.6157" y1="53.9053" x2="37.6157" y2="49.1543">
			<stop  offset="0" style="stop-color:#8F7564"/>
			<stop  offset="0.2747" style="stop-color:#BEAB8A"/>
			<stop  offset="0.7912" style="stop-color:#CEC69F"/>
		</linearGradient>
		<polygon fill="url(#SVGID_3_)" points="37.974,53.905 37.257,53.905 37.257,49.862 37.615,49.154 37.974,49.862 		"/>
		<linearGradient id="SVGID_4_" gradientUnits="userSpaceOnUse" x1="36.269" y1="53.9053" x2="36.269" y2="49.1543">
			<stop  offset="0" style="stop-color:#8F7564"/>
			<stop  offset="0.2747" style="stop-color:#BEAB8A"/>
			<stop  offset="0.7912" style="stop-color:#CEC69F"/>
		</linearGradient>
		<polygon fill="url(#SVGID_4_)" points="36.628,53.905 35.911,53.905 35.911,49.862 36.27,49.154 36.628,49.862 		"/>
		<linearGradient id="SVGID_5_" gradientUnits="userSpaceOnUse" x1="34.9243" y1="53.9053" x2="34.9243" y2="49.1543">
			<stop  offset="0" style="stop-color:#8F7564"/>
			<stop  offset="0.2747" style="stop-color:#BEAB8A"/>
			<stop  offset="0.7912" style="stop-color:#CEC69F"/>
		</linearGradient>
		<polygon fill="url(#SVGID_5_)" points="35.282,53.905 34.566,53.905 34.566,49.862 34.924,49.154 35.282,49.862 		"/>
		<linearGradient id="SVGID_6_" gradientUnits="userSpaceOnUse" x1="33.5786" y1="53.9053" x2="33.5786" y2="49.1543">
			<stop  offset="0" style="stop-color:#8F7564"/>
			<stop  offset="0.2747" style="stop-color:#BEAB8A"/>
			<stop  offset="0.7912" style="stop-color:#CEC69F"/>
		</linearGradient>
		<polygon fill="url(#SVGID_6_)" points="33.937,53.905 33.221,53.905 33.221,49.862 33.579,49.154 33.937,49.862 		"/>
		<linearGradient id="SVGID_7_" gradientUnits="userSpaceOnUse" x1="32.2339" y1="53.9053" x2="32.2339" y2="49.1543">
			<stop  offset="0" style="stop-color:#8F7564"/>
			<stop  offset="0.2747" style="stop-color:#BEAB8A"/>
			<stop  offset="0.7912" style="stop-color:#CEC69F"/>
		</linearGradient>
		<polygon fill="url(#SVGID_7_)" points="32.591,53.905 31.876,53.905 31.876,49.862 32.234,49.154 32.591,49.862 		"/>
		<linearGradient id="SVGID_8_" gradientUnits="userSpaceOnUse" x1="30.8892" y1="53.9053" x2="30.8892" y2="49.1543">
			<stop  offset="0" style="stop-color:#8F7564"/>
			<stop  offset="0.2747" style="stop-color:#BEAB8A"/>
			<stop  offset="0.7912" style="stop-color:#CEC69F"/>
		</linearGradient>
		<polygon fill="url(#SVGID_8_)" points="31.247,53.905 30.531,53.905 30.531,49.862 30.888,49.154 31.247,49.862 		"/>
		<linearGradient id="SVGID_9_" gradientUnits="userSpaceOnUse" x1="29.5435" y1="53.9053" x2="29.5435" y2="49.1543">
			<stop  offset="0" style="stop-color:#8F7564"/>
			<stop  offset="0.2747" style="stop-color:#BEAB8A"/>
			<stop  offset="0.7912" style="stop-color:#CEC69F"/>
		</linearGradient>
		<polygon fill="url(#SVGID_9_)" points="29.901,53.905 29.185,53.905 29.185,49.862 29.542,49.154 29.901,49.862 		"/>
		<linearGradient id="SVGID_10_" gradientUnits="userSpaceOnUse" x1="38.9604" y1="53.9053" x2="38.9604" y2="49.1543">
			<stop  offset="0" style="stop-color:#8F7564"/>
			<stop  offset="0.2747" style="stop-color:#BEAB8A"/>
			<stop  offset="0.7912" style="stop-color:#CEC69F"/>
		</linearGradient>
		<polygon fill="url(#SVGID_10_)" points="39.318,53.905 38.603,53.905 38.603,49.862 38.96,49.154 39.318,49.862 		"/>
		<linearGradient id="SVGID_11_" gradientUnits="userSpaceOnUse" x1="26.7769" y1="53.9053" x2="26.7769" y2="49.1543">
			<stop  offset="0" style="stop-color:#8F7564"/>
			<stop  offset="0.2747" style="stop-color:#BEAB8A"/>
			<stop  offset="0.7912" style="stop-color:#CEC69F"/>
		</linearGradient>
		<polygon fill="url(#SVGID_11_)" points="27.135,53.905 26.418,53.905 26.418,49.862 26.776,49.154 27.135,49.862 		"/>
		<linearGradient id="SVGID_12_" gradientUnits="userSpaceOnUse" x1="25.4302" y1="53.9053" x2="25.4302" y2="49.1543">
			<stop  offset="0" style="stop-color:#8F7564"/>
			<stop  offset="0.2747" style="stop-color:#BEAB8A"/>
			<stop  offset="0.7912" style="stop-color:#CEC69F"/>
		</linearGradient>
		<polygon fill="url(#SVGID_12_)" points="25.788,53.905 25.073,53.905 25.073,49.862 25.431,49.154 25.788,49.862 		"/>
		<linearGradient id="SVGID_13_" gradientUnits="userSpaceOnUse" x1="24.0854" y1="53.9053" x2="24.0854" y2="49.1543">
			<stop  offset="0" style="stop-color:#8F7564"/>
			<stop  offset="0.2747" style="stop-color:#BEAB8A"/>
			<stop  offset="0.7912" style="stop-color:#CEC69F"/>
		</linearGradient>
		<polygon fill="url(#SVGID_13_)" points="24.444,53.905 23.728,53.905 23.728,49.862 24.086,49.154 24.444,49.862 		"/>
		<linearGradient id="SVGID_14_" gradientUnits="userSpaceOnUse" x1="22.7407" y1="53.9053" x2="22.7407" y2="49.1543">
			<stop  offset="0" style="stop-color:#8F7564"/>
			<stop  offset="0.2747" style="stop-color:#BEAB8A"/>
			<stop  offset="0.7912" style="stop-color:#CEC69F"/>
		</linearGradient>
		<polygon fill="url(#SVGID_14_)" points="23.098,53.905 22.383,53.905 22.383,49.862 22.742,49.154 23.098,49.862 		"/>
		<linearGradient id="SVGID_15_" gradientUnits="userSpaceOnUse" x1="21.395" y1="53.9053" x2="21.395" y2="49.1543">
			<stop  offset="0" style="stop-color:#8F7564"/>
			<stop  offset="0.2747" style="stop-color:#BEAB8A"/>
			<stop  offset="0.7912" style="stop-color:#CEC69F"/>
		</linearGradient>
		<polygon fill="url(#SVGID_15_)" points="21.753,53.905 21.037,53.905 21.037,49.862 21.395,49.154 21.753,49.862 		"/>
		<linearGradient id="SVGID_16_" gradientUnits="userSpaceOnUse" x1="20.0503" y1="53.9053" x2="20.0503" y2="49.1543">
			<stop  offset="0" style="stop-color:#8F7564"/>
			<stop  offset="0.2747" style="stop-color:#BEAB8A"/>
			<stop  offset="0.7912" style="stop-color:#CEC69F"/>
		</linearGradient>
		<polygon fill="url(#SVGID_16_)" points="20.409,53.905 19.692,53.905 19.692,49.862 20.05,49.154 20.409,49.862 		"/>
		<linearGradient id="SVGID_17_" gradientUnits="userSpaceOnUse" x1="18.7046" y1="53.9053" x2="18.7046" y2="49.1543">
			<stop  offset="0" style="stop-color:#8F7564"/>
			<stop  offset="0.2747" style="stop-color:#BEAB8A"/>
			<stop  offset="0.7912" style="stop-color:#CEC69F"/>
		</linearGradient>
		<polygon fill="url(#SVGID_17_)" points="19.063,53.905 18.347,53.905 18.347,49.862 18.704,49.154 19.063,49.862 		"/>
		<linearGradient id="SVGID_18_" gradientUnits="userSpaceOnUse" x1="28.1216" y1="53.9053" x2="28.1216" y2="49.1543">
			<stop  offset="0" style="stop-color:#8F7564"/>
			<stop  offset="0.2747" style="stop-color:#BEAB8A"/>
			<stop  offset="0.7912" style="stop-color:#CEC69F"/>
		</linearGradient>
		<polygon fill="url(#SVGID_18_)" points="28.479,53.905 27.764,53.905 27.764,49.862 28.122,49.154 28.479,49.862 		"/>
		<linearGradient id="SVGID_19_" gradientUnits="userSpaceOnUse" x1="28.8706" y1="53.3359" x2="28.8706" y2="52.8418">
			<stop  offset="0" style="stop-color:#8F7564"/>
			<stop  offset="0.2747" style="stop-color:#BEAB8A"/>
			<stop  offset="0.7912" style="stop-color:#CEC69F"/>
		</linearGradient>
		<polygon fill="url(#SVGID_19_)" points="28.871,52.842 18.033,52.842 18.033,53.336 28.871,53.336 39.709,53.336 39.709,52.842 		
			"/>
		<linearGradient id="SVGID_20_" gradientUnits="userSpaceOnUse" x1="28.8706" y1="51.2813" x2="28.8706" y2="50.7856">
			<stop  offset="0" style="stop-color:#8F7564"/>
			<stop  offset="0.2747" style="stop-color:#BEAB8A"/>
			<stop  offset="0.7912" style="stop-color:#CEC69F"/>
		</linearGradient>
		<polygon fill="url(#SVGID_20_)" points="28.871,50.785 18.033,50.785 18.033,51.281 28.871,51.281 39.709,51.281 39.709,50.785 		
			"/>
	</g>
	<g>
		<linearGradient id="SVGID_21_" gradientUnits="userSpaceOnUse" x1="59.293" y1="53.9053" x2="59.293" y2="49.1543">
			<stop  offset="0" style="stop-color:#8F7564"/>
			<stop  offset="0.2747" style="stop-color:#BEAB8A"/>
			<stop  offset="0.7912" style="stop-color:#CEC69F"/>
		</linearGradient>
		<polygon fill="url(#SVGID_21_)" points="59.651,53.905 58.934,53.905 58.934,49.862 59.292,49.154 59.651,49.862 		"/>
		<linearGradient id="SVGID_22_" gradientUnits="userSpaceOnUse" x1="57.9473" y1="53.9053" x2="57.9473" y2="49.1543">
			<stop  offset="0" style="stop-color:#8F7564"/>
			<stop  offset="0.2747" style="stop-color:#BEAB8A"/>
			<stop  offset="0.7912" style="stop-color:#CEC69F"/>
		</linearGradient>
		<polygon fill="url(#SVGID_22_)" points="58.306,53.905 57.588,53.905 57.588,49.862 57.947,49.154 58.306,49.862 		"/>
		<linearGradient id="SVGID_23_" gradientUnits="userSpaceOnUse" x1="56.6016" y1="53.9053" x2="56.6016" y2="49.1543">
			<stop  offset="0" style="stop-color:#8F7564"/>
			<stop  offset="0.2747" style="stop-color:#BEAB8A"/>
			<stop  offset="0.7912" style="stop-color:#CEC69F"/>
		</linearGradient>
		<polygon fill="url(#SVGID_23_)" points="56.96,53.905 56.244,53.905 56.244,49.862 56.602,49.154 56.96,49.862 		"/>
		<linearGradient id="SVGID_24_" gradientUnits="userSpaceOnUse" x1="55.2568" y1="53.9053" x2="55.2568" y2="49.1543">
			<stop  offset="0" style="stop-color:#8F7564"/>
			<stop  offset="0.2747" style="stop-color:#BEAB8A"/>
			<stop  offset="0.7912" style="stop-color:#CEC69F"/>
		</linearGradient>
		<polygon fill="url(#SVGID_24_)" points="55.615,53.905 54.898,53.905 54.898,49.862 55.256,49.154 55.615,49.862 		"/>
		<linearGradient id="SVGID_25_" gradientUnits="userSpaceOnUse" x1="53.9111" y1="53.9053" x2="53.9111" y2="49.1543">
			<stop  offset="0" style="stop-color:#8F7564"/>
			<stop  offset="0.2747" style="stop-color:#BEAB8A"/>
			<stop  offset="0.7912" style="stop-color:#CEC69F"/>
		</linearGradient>
		<polygon fill="url(#SVGID_25_)" points="54.269,53.905 53.554,53.905 53.554,49.862 53.911,49.154 54.269,49.862 		"/>
		<linearGradient id="SVGID_26_" gradientUnits="userSpaceOnUse" x1="52.5664" y1="53.9053" x2="52.5664" y2="49.1543">
			<stop  offset="0" style="stop-color:#8F7564"/>
			<stop  offset="0.2747" style="stop-color:#BEAB8A"/>
			<stop  offset="0.7912" style="stop-color:#CEC69F"/>
		</linearGradient>
		<polygon fill="url(#SVGID_26_)" points="52.925,53.905 52.207,53.905 52.207,49.862 52.565,49.154 52.925,49.862 		"/>
		<linearGradient id="SVGID_27_" gradientUnits="userSpaceOnUse" x1="51.2207" y1="53.9053" x2="51.2207" y2="49.1543">
			<stop  offset="0" style="stop-color:#8F7564"/>
			<stop  offset="0.2747" style="stop-color:#BEAB8A"/>
			<stop  offset="0.7912" style="stop-color:#CEC69F"/>
		</linearGradient>
		<polygon fill="url(#SVGID_27_)" points="51.579,53.905 50.863,53.905 50.863,49.862 51.221,49.154 51.579,49.862 		"/>
		<linearGradient id="SVGID_28_" gradientUnits="userSpaceOnUse" x1="60.6377" y1="53.9053" x2="60.6377" y2="49.1543">
			<stop  offset="0" style="stop-color:#8F7564"/>
			<stop  offset="0.2747" style="stop-color:#BEAB8A"/>
			<stop  offset="0.7912" style="stop-color:#CEC69F"/>
		</linearGradient>
		<polygon fill="url(#SVGID_28_)" points="60.995,53.905 60.28,53.905 60.28,49.862 60.637,49.154 60.995,49.862 		"/>
		<linearGradient id="SVGID_29_" gradientUnits="userSpaceOnUse" x1="48.4536" y1="53.9053" x2="48.4536" y2="49.1543">
			<stop  offset="0" style="stop-color:#8F7564"/>
			<stop  offset="0.2747" style="stop-color:#BEAB8A"/>
			<stop  offset="0.7912" style="stop-color:#CEC69F"/>
		</linearGradient>
		<polygon fill="url(#SVGID_29_)" points="48.813,53.905 48.095,53.905 48.095,49.862 48.455,49.154 48.813,49.862 		"/>
		<linearGradient id="SVGID_30_" gradientUnits="userSpaceOnUse" x1="47.1079" y1="53.9053" x2="47.1079" y2="49.1543">
			<stop  offset="0" style="stop-color:#8F7564"/>
			<stop  offset="0.2747" style="stop-color:#BEAB8A"/>
			<stop  offset="0.7912" style="stop-color:#CEC69F"/>
		</linearGradient>
		<polygon fill="url(#SVGID_30_)" points="47.466,53.905 46.75,53.905 46.75,49.862 47.108,49.154 47.466,49.862 		"/>
		<linearGradient id="SVGID_31_" gradientUnits="userSpaceOnUse" x1="45.7632" y1="53.9053" x2="45.7632" y2="49.1543">
			<stop  offset="0" style="stop-color:#8F7564"/>
			<stop  offset="0.2747" style="stop-color:#BEAB8A"/>
			<stop  offset="0.7912" style="stop-color:#CEC69F"/>
		</linearGradient>
		<polygon fill="url(#SVGID_31_)" points="46.121,53.905 45.405,53.905 45.405,49.862 45.763,49.154 46.121,49.862 		"/>
		<linearGradient id="SVGID_32_" gradientUnits="userSpaceOnUse" x1="44.4175" y1="53.9053" x2="44.4175" y2="49.1543">
			<stop  offset="0" style="stop-color:#8F7564"/>
			<stop  offset="0.2747" style="stop-color:#BEAB8A"/>
			<stop  offset="0.7912" style="stop-color:#CEC69F"/>
		</linearGradient>
		<polygon fill="url(#SVGID_32_)" points="44.776,53.905 44.06,53.905 44.06,49.862 44.418,49.154 44.776,49.862 		"/>
		<linearGradient id="SVGID_33_" gradientUnits="userSpaceOnUse" x1="43.0728" y1="53.9053" x2="43.0728" y2="49.1543">
			<stop  offset="0" style="stop-color:#8F7564"/>
			<stop  offset="0.2747" style="stop-color:#BEAB8A"/>
			<stop  offset="0.7912" style="stop-color:#CEC69F"/>
		</linearGradient>
		<polygon fill="url(#SVGID_33_)" points="43.431,53.905 42.715,53.905 42.715,49.862 43.072,49.154 43.431,49.862 		"/>
		<linearGradient id="SVGID_34_" gradientUnits="userSpaceOnUse" x1="41.728" y1="53.9053" x2="41.728" y2="49.1543">
			<stop  offset="0" style="stop-color:#8F7564"/>
			<stop  offset="0.2747" style="stop-color:#BEAB8A"/>
			<stop  offset="0.7912" style="stop-color:#CEC69F"/>
		</linearGradient>
		<polygon fill="url(#SVGID_34_)" points="42.087,53.905 41.369,53.905 41.369,49.862 41.728,49.154 42.087,49.862 		"/>
		<linearGradient id="SVGID_35_" gradientUnits="userSpaceOnUse" x1="40.3823" y1="53.9053" x2="40.3823" y2="49.1543">
			<stop  offset="0" style="stop-color:#8F7564"/>
			<stop  offset="0.2747" style="stop-color:#BEAB8A"/>
			<stop  offset="0.7912" style="stop-color:#CEC69F"/>
		</linearGradient>
		<polygon fill="url(#SVGID_35_)" points="40.739,53.905 40.025,53.905 40.025,49.862 40.381,49.154 40.739,49.862 		"/>
		<linearGradient id="SVGID_36_" gradientUnits="userSpaceOnUse" x1="49.7993" y1="53.9053" x2="49.7993" y2="49.1543">
			<stop  offset="0" style="stop-color:#8F7564"/>
			<stop  offset="0.2747" style="stop-color:#BEAB8A"/>
			<stop  offset="0.7912" style="stop-color:#CEC69F"/>
		</linearGradient>
		<polygon fill="url(#SVGID_36_)" points="50.157,53.905 49.441,53.905 49.441,49.862 49.798,49.154 50.157,49.862 		"/>
		<linearGradient id="SVGID_37_" gradientUnits="userSpaceOnUse" x1="50.5483" y1="53.3359" x2="50.5483" y2="52.8418">
			<stop  offset="0" style="stop-color:#8F7564"/>
			<stop  offset="0.2747" style="stop-color:#BEAB8A"/>
			<stop  offset="0.7912" style="stop-color:#CEC69F"/>
		</linearGradient>
		<polygon fill="url(#SVGID_37_)" points="50.547,52.842 39.709,52.842 39.709,53.336 50.547,53.336 61.387,53.336 61.387,52.842 		
			"/>
		<linearGradient id="SVGID_38_" gradientUnits="userSpaceOnUse" x1="50.5483" y1="51.2813" x2="50.5483" y2="50.7856">
			<stop  offset="0" style="stop-color:#8F7564"/>
			<stop  offset="0.2747" style="stop-color:#BEAB8A"/>
			<stop  offset="0.7912" style="stop-color:#CEC69F"/>
		</linearGradient>
		<polygon fill="url(#SVGID_38_)" points="50.547,50.785 39.709,50.785 39.709,51.281 50.547,51.281 61.387,51.281 61.387,50.785 		
			"/>
	</g>
</g>
</svg>
