 

<svg xmlns:agg="http://www.example.com" xmlns="http://www.w3.org/2000/svg" preserveAspectRatio="none" width="1.4112in" height="1.0750in" viewBox="0 0 999 761">

<path style="fill:#ccc;stroke:#000;stroke-width:2" d="M340,620 l272,112 358,-119 -290,-31 -340,38z" />
<path style="fill:none;stroke:#000;stroke-width:2" d="M141,221 l18,23 21,22 22,21 23,21 25,20 25,20 27,19 27,18 27,17 27,16 27,16 26,14 26,13 24,12 24,10 22,9" />
<path style="fill:none;stroke:#000;stroke-width:2" d="M545,489 l-23,-15 -27,-17 -29,-19 -21,-14 -21,-15 -22,-16 -22,-17 -21,-18 -21,-19 -20,-19 -19,-21 -17,-21 -16,-22 -13,-23 -6,-12" />
<path style="fill:none;stroke:#000;stroke-width:2" d="M353,221 l6,13 6,13 5,12 6,12 6,12 6,11 6,11 6,10 6,11 7,9 6,10 6,10 6,9 7,8 6,9 7,8 6,8 7,8 6,7 7,7 7,7 6,7 7,6 7,6 7,6 7,6 7,6 6,5 7,5 7,5 7,4 7,5" />
<path style="fill:#333;stroke:#000;stroke-width:2" d="M559,487 l6,0 0,20 -6,0 0,-20z" />
<path style="fill:#333;stroke:#000;stroke-width:2" d="M546,490 l6,0 0,20 -6,0 0,-20z" />
<path style="fill:#333;stroke:#000;stroke-width:2" d="M532,492 l7,0 0,20 -7,0 0,-20z" />
<path style="fill:none;stroke:#000;stroke-width:2" d="M187,587 l60,86 59,-86" />
<path style="fill:none;stroke:#000;stroke-width:2" d="M200,494 l47,86 46,-86" />
<path style="fill:none;stroke:#000;stroke-width:2" d="M213,414 l34,73 33,-73" />
<path style="fill:none;stroke:#000;stroke-width:2" d="M220,361 l27,46 26,-46" />
<path style="fill:none;stroke:#000;stroke-width:2" d="M227,314 l20,40 19,-40" />
<path style="fill:none;stroke:#000;stroke-width:2" d="M233,321 l27,0" />
<path style="fill:none;stroke:#000;stroke-width:2" d="M227,367 l39,0" />
<path style="fill:none;stroke:#000;stroke-width:2" d="M220,421 l53,0" />
<path style="fill:none;stroke:#000;stroke-width:2" d="M207,500 l79,0" />
<path style="fill:none;stroke:#000;stroke-width:2" d="M194,593 l106,0" />
<path style="fill:none;stroke:#000;stroke-width:2" d="M167,155 l27,13 26,-13 27,13 26,-13 27,13 26,-13" />
<path style="fill:none;stroke:#000;stroke-width:2" d="M213,175 l34,40 33,-40" />
<path style="fill:none;stroke:#000;stroke-width:2" d="M213,275 l14,0" />
<path style="fill:none;stroke:#000;stroke-width:2" d="M220,288 l13,0" />
<path style="fill:none;stroke:#000;stroke-width:2" d="M266,275 l14,0" />
<path style="fill:none;stroke:#000;stroke-width:2" d="M260,288 l13,0" />
<path style="fill:none;stroke:#000;stroke-width:2" d="M194,182 l13,0" />
<path style="fill:none;stroke:#000;stroke-width:2" d="M194,195 l13,0" />
<path style="fill:none;stroke:#000;stroke-width:2" d="M286,182 l14,0" />
<path style="fill:none;stroke:#000;stroke-width:2" d="M286,195 l14,0" />
<path style="fill:#666;stroke:#000;stroke-width:2" d="M280,235 l-34,66 7,0 33,-66 -6,0z" />
<path style="fill:#666;stroke:#000;stroke-width:2" d="M213,235 l34,66 -7,0 -33,-66 6,0z" />
<path style="fill:#b2b2b2;stroke:#000;stroke-width:2" d="M220,354 l53,0 0,7 -53,0 0,-7z" />
<path style="fill:#b2b2b2;stroke:#000;stroke-width:2" d="M213,407 l67,0 0,7 -67,0 0,-7z" />
<path style="fill:#b2b2b2;stroke:#000;stroke-width:2" d="M200,487 l93,0 0,7 -93,0 0,-7z" />
<path style="fill:#b2b2b2;stroke:#000;stroke-width:2" d="M187,580 l119,0 0,7 -119,0 0,-7z" />
<path style="fill:#b2b2b2;stroke:#000;stroke-width:2" d="M473,633 l0,-112 106,-21 0,160 -106,-27z" />
<path style="fill:#7f7f7f;stroke:#000;stroke-width:2" d="M579,500 l272,40 0,93 -272,27 0,-160z" />
<path style="fill:#000;stroke:#000;stroke-width:2" d="M638,660 l-19,-7 0,-146 19,-20 0,173z" />
<path style="fill:#000;stroke:#000;stroke-width:2" d="M725,646 l-18,-6 0,-121 18,-19 0,146z" />
<path style="fill:#000;stroke:#000;stroke-width:2" d="M804,640 l-17,-6 0,-103 17,-17 0,126z" />
<path style="fill:#b2b2b2;stroke:#000;stroke-width:2" d="M844,636 l-5,-380 -1,-2 -16,-6 -16,6 -1,2 -5,380 1,2 21,8 22,-8 0,-2z" />
<path style="fill:#b2b2b2;stroke:#000;stroke-width:2" d="M766,648 l-6,-418 0,-2 -19,-7 -16,6 -1,3 -6,418 23,12 25,-10 0,-2z" />
<path style="fill:#b2b2b2;stroke:#000;stroke-width:2" d="M688,660 l-7,-458 0,-2 -20,-8 -20,8 0,2 -6,458 26,13 25,-8 2,-5z" />
<path style="fill:#e5e5e5" d="M833,636 l-3,-380 -2,-6 -2,-1 -4,-1 -3,1 -2,1 -2,6 -3,380 10,10 11,-10z" />
<path style="fill:#e5e5e5" d="M752,648 l-3,-418 0,-3 -4,-5 -3,-1 -3,1 -3,5 -1,3 -2,418 9,12 4,-1 6,-11z" />
<path style="fill:#e5e5e5" d="M672,660 l-2,-458 -1,-4 -4,-5 -3,-1 -8,10 -3,458 7,12 4,1 4,-1 6,-12z" />
<path style="fill:#4c4c4c;stroke:#000;stroke-width:2" d="M681,220 l0,-18 0,-2 -9,-7 -11,-1 -11,1 -7,5 -2,2 0,2 0,18 1,2 0,1 10,-2 9,-1 9,1 9,2 1,0 1,-1 0,-2z" />
<path style="fill:#4c4c4c;stroke:#000;stroke-width:2" d="M761,244 l-1,-14 0,-2 -8,-5 -10,-2 -10,2 -8,5 -1,2 1,14 0,2 1,1 1,0 11,-2 9,0 10,2 2,0 2,0 0,-1 1,-2z" />
<path style="fill:#4c4c4c;stroke:#000;stroke-width:2" d="M839,268 l0,-12 0,-2 -8,-5 -9,-1 -9,1 -8,5 0,2 0,12 0,2 1,1 8,-2 12,0 9,2 3,0 1,-1 0,-2z" />
<path style="fill:#b2b2b2;stroke:#000;stroke-width:2" d="M141,168 l212,0 -106,7 -106,-7z" />
<path style="fill:#999;stroke:#000;stroke-width:2" d="M280,248 l0,-80 6,0 0,80 -6,0z" />
<path style="fill:#999;stroke:#000;stroke-width:2" d="M213,248 l0,-80 -6,0 0,80 6,0z" />
<path style="fill:#b2b2b2;stroke:#000;stroke-width:2" d="M141,168 l26,-26 159,0 27,26 -34,-13 -145,0 -33,13z" />
<path style="fill:#b2b2b2;stroke:#000;stroke-width:2" d="M326,673 l-53,-372 -53,0 -53,372 13,0 53,-358 27,0 53,358 13,0z" />
<path style="fill:#b2b2b2;stroke:#000;stroke-width:2" d="M273,301 l33,-133 -6,0 -34,133 7,0z" />
<path style="fill:#b2b2b2;stroke:#000;stroke-width:2" d="M220,301 l-33,-133 7,0 33,133 -7,0z" />
<path style="fill:#333;stroke:#000;stroke-width:2" d="M141,168 l6,0 0,53 -6,0 0,-53z" />
<path style="fill:#333;stroke:#000;stroke-width:2" d="M347,168 l6,0 0,53 -6,0 0,-53z" />
<path style="fill:#333;stroke:#000;stroke-width:2" d="M233,195 l14,13 13,-13 6,7 -19,19 -20,-19 6,-7z" />
<path style="fill:none;stroke:#000;stroke-width:2" d="M353,221 l-14,-6 -15,-7 -13,-7 -13,-7 -12,-8 -12,-9 -12,-9 -10,-9 -11,-10 -9,-10 -10,-11 -9,-12 -9,-13 -8,-13 -8,-13 -8,-15" />
<path style="fill:none;stroke:#000;stroke-width:2" d="M247,221 l-12,-5 -12,-5 -12,-6 -11,-6 -10,-6 -11,-7 -10,-8 -10,-7 -9,-8 -9,-8 -9,-9 -9,-9 -9,-10 -9,-10 -9,-11 -8,-11" />
<path style="fill:none;stroke:#000;stroke-width:2" d="M141,221 l-9,-1 -8,-1 -8,-2 -8,-1 -8,-2 -7,-2 -7,-3 -7,-3 -7,-3 -6,-4 -7,-4 -6,-5 -7,-6 -6,-7 -6,-7 -6,-8" />
<path style="fill:#e5e5e5;stroke:#7f7f7f;stroke-width:2" d="M646,181 l-21,-20 -12,-7 -14,-7 -6,-13 -28,1 -33,1 -25,-12 -26,-8 -22,-14 -6,-16 -28,-1 -25,-10 -3,-1 -3,-4 -1,-4 2,-2 25,-8 28,-2 33,0 20,-8 2,-16 1,-1 5,1 12,-2 5,0 6,0 30,5 27,5 28,-4 27,9 26,6 26,-6 29,-3 27,8 21,17 15,24 13,13 10,0 4,2 15,21 0,30 3,27 1,3 0,4 0,4 -6,27 -3,12 -1,2 -2,1 -2,0 -2,0 -9,-1 -8,-26 -11,-23 1,-8 -13,-27 -8,-5 -2,1 -2,4 -3,1 -9,2 -2,2 -3,14 3,28 1,8 -27,0 -2,-2 -7,-30 -17,-22 -7,-18 -3,-1 -4,-1 -21,15 8,28 0,4 -2,3 -25,0z" />
<path style="fill:#b2b2b2" d="M646,176 l-21,-19 -12,-7 -16,-17 -29,-4 -35,-1 -23,-9 -25,-9 -20,-18 -4,-7 -29,-3 -18,-7 -2,-3 -1,-3 1,-3 12,-4 10,-1 9,0 28,3 26,7 26,7 8,1 2,-1 2,-2 1,-13 2,-1 1,0 2,1 28,-1 28,6 29,-3 28,9 26,4 27,-5 29,1 25,13 25,14 16,8 7,-1 17,26 -3,28 4,16 1,3 0,4 -8,30 0,3 -1,1 -1,0 -2,0 -9,0 -9,-29 -3,-8 1,-11 -16,-24 -12,-6 -2,4 -20,5 -2,5 -1,7 3,30 -18,4 -2,-1 -6,-32 -1,-6 -21,-16 -8,-13 -3,-1 -5,0 -23,14 -2,2 6,27 -2,2 -15,4z" />

</svg>
