 

<svg xmlns:agg="http://www.example.com" xmlns="http://www.w3.org/2000/svg" preserveAspectRatio="none" width="0.3874in" height="1.0750in" viewBox="0 0 360 999">

<path style="fill:#666" d="M161,970 l9,-914 19,0 10,914 -38,0z" />
<path style="fill:#b2b2b2" d="M166,970 l7,-914 14,0 7,914 -28,0z" />
<path style="fill:#e5e5e5" d="M176,970 l2,-914 4,0 3,914 -9,0z" />
<path style="fill:none;stroke:#000;stroke-width:2" d="M161,970 l9,-914 19,0 10,914 -38,0" />
<path style="fill:#999;stroke:#000;stroke-width:2" d="M28,199 l304,0 0,10 -304,0 0,-10z" />
<path style="fill:#999;stroke:#000;stroke-width:2" d="M28,123 l304,0 0,9 -304,0 0,-9z" />
<path style="fill:none;stroke:#000;stroke-width:2" d="M28,175 l9,0" />
<path style="fill:none;stroke:#000;stroke-width:2" d="M37,180 l-9,0" />
<path style="fill:none;stroke:#000;stroke-width:2" d="M28,185 l9,0" />
<path style="fill:none;stroke:#000;stroke-width:2" d="M37,190 l-9,0" />
<path style="fill:none;stroke:#000;stroke-width:2" d="M28,187 l9,0" />
<path style="fill:none;stroke:#000;stroke-width:2" d="M37,182 l-9,0" />
<path style="fill:none;stroke:#000;stroke-width:2" d="M28,178 l9,0" />
<path style="fill:none;stroke:#000;stroke-width:2" d="M32,170 l0,29" />
<path style="fill:none;stroke:#000;stroke-width:2" d="M323,175 l9,0" />
<path style="fill:none;stroke:#000;stroke-width:2" d="M332,180 l-9,0" />
<path style="fill:none;stroke:#000;stroke-width:2" d="M323,185 l9,0" />
<path style="fill:none;stroke:#000;stroke-width:2" d="M332,190 l-9,0" />
<path style="fill:none;stroke:#000;stroke-width:2" d="M323,187 l9,0" />
<path style="fill:none;stroke:#000;stroke-width:2" d="M332,182 l-9,0" />
<path style="fill:none;stroke:#000;stroke-width:2" d="M323,178 l9,0" />
<path style="fill:none;stroke:#000;stroke-width:2" d="M328,170 l0,29" />
<path style="fill:none;stroke:#000;stroke-width:2" d="M123,175 l9,0" />
<path style="fill:none;stroke:#000;stroke-width:2" d="M132,180 l-9,0" />
<path style="fill:none;stroke:#000;stroke-width:2" d="M123,185 l9,0" />
<path style="fill:none;stroke:#000;stroke-width:2" d="M132,190 l-9,0" />
<path style="fill:none;stroke:#000;stroke-width:2" d="M123,187 l9,0" />
<path style="fill:none;stroke:#000;stroke-width:2" d="M132,182 l-9,0" />
<path style="fill:none;stroke:#000;stroke-width:2" d="M123,178 l9,0" />
<path style="fill:none;stroke:#000;stroke-width:2" d="M128,170 l0,29" />
<path style="fill:none;stroke:#000;stroke-width:2" d="M227,175 l10,0" />
<path style="fill:none;stroke:#000;stroke-width:2" d="M237,180 l-10,0" />
<path style="fill:none;stroke:#000;stroke-width:2" d="M227,185 l10,0" />
<path style="fill:none;stroke:#000;stroke-width:2" d="M237,190 l-10,0" />
<path style="fill:none;stroke:#000;stroke-width:2" d="M227,187 l10,0" />
<path style="fill:none;stroke:#000;stroke-width:2" d="M237,182 l-10,0" />
<path style="fill:none;stroke:#000;stroke-width:2" d="M227,178 l10,0" />
<path style="fill:none;stroke:#000;stroke-width:2" d="M232,170 l0,29" />
<path style="fill:none;stroke:#000;stroke-width:2" d="M323,99 l9,0" />
<path style="fill:none;stroke:#000;stroke-width:2" d="M332,104 l-9,0" />
<path style="fill:none;stroke:#000;stroke-width:2" d="M323,109 l9,0" />
<path style="fill:none;stroke:#000;stroke-width:2" d="M332,113 l-9,0" />
<path style="fill:none;stroke:#000;stroke-width:2" d="M323,111 l9,0" />
<path style="fill:none;stroke:#000;stroke-width:2" d="M332,106 l-9,0" />
<path style="fill:none;stroke:#000;stroke-width:2" d="M323,102 l9,0" />
<path style="fill:none;stroke:#000;stroke-width:2" d="M328,94 l0,29" />
<path style="fill:none;stroke:#000;stroke-width:2" d="M175,32 l9,0" />
<path style="fill:none;stroke:#000;stroke-width:2" d="M184,37 l-9,0" />
<path style="fill:none;stroke:#000;stroke-width:2" d="M175,42 l9,0" />
<path style="fill:none;stroke:#000;stroke-width:2" d="M184,47 l-9,0" />
<path style="fill:none;stroke:#000;stroke-width:2" d="M175,44 l9,0" />
<path style="fill:none;stroke:#000;stroke-width:2" d="M184,39 l-9,0" />
<path style="fill:none;stroke:#000;stroke-width:2" d="M175,35 l9,0" />
<path style="fill:none;stroke:#000;stroke-width:2" d="M180,28 l0,28" />
<path style="fill:none;stroke:#000;stroke-width:2" d="M28,99 l9,0" />
<path style="fill:none;stroke:#000;stroke-width:2" d="M37,104 l-9,0" />
<path style="fill:none;stroke:#000;stroke-width:2" d="M28,109 l9,0" />
<path style="fill:none;stroke:#000;stroke-width:2" d="M37,113 l-9,0" />
<path style="fill:none;stroke:#000;stroke-width:2" d="M28,111 l9,0" />
<path style="fill:none;stroke:#000;stroke-width:2" d="M37,106 l-9,0" />
<path style="fill:none;stroke:#000;stroke-width:2" d="M28,102 l9,0" />
<path style="fill:none;stroke:#000;stroke-width:2" d="M32,94 l0,29" />
<path style="fill:none;stroke:#fff;stroke-width:2" d="M32,204 l295,0" />
<path style="fill:none;stroke:#fff;stroke-width:2" d="M32,127 l295,0" />

</svg>
