 

<svg xmlns:agg="http://www.example.com" xmlns="http://www.w3.org/2000/svg" preserveAspectRatio="none" width="0.8350in" height="1.0750in" viewBox="0 0 776 999">

<path style="fill:#e5e5e5;stroke:#000;stroke-width:2" d="M748,970 l0,-872 -580,0 0,872 580,0z" />
<path style="fill:#b2b2b2;stroke:#000;stroke-width:2" d="M168,98 l-140,-70 0,862 140,80 0,-872z" />
<path style="fill:#f7f7f7;stroke:#000;stroke-width:2" d="M168,98 l-140,-70 571,0 149,70 -580,0z" />
<path style="fill:#4c4c4c" d="M708,208 l-69,0 0,111 69,0 0,-111z" />
<path style="fill:#4c4c4c" d="M599,208 l-70,0 0,111 70,0 0,-111z" />
<path style="fill:#4c4c4c" d="M489,208 l-70,0 0,111 70,0 0,-111z" />
<path style="fill:#4c4c4c" d="M390,208 l-72,0 0,111 72,0 0,-111z" />
<path style="fill:#4c4c4c" d="M278,208 l-70,0 0,111 70,0 0,-111z" />
<path style="fill:#4c4c4c" d="M708,389 l-69,0 0,110 69,0 0,-110z" />
<path style="fill:#4c4c4c" d="M599,389 l-70,0 0,110 70,0 0,-110z" />
<path style="fill:#4c4c4c" d="M489,389 l-70,0 0,110 70,0 0,-110z" />
<path style="fill:#4c4c4c" d="M390,389 l-72,0 0,110 72,0 0,-110z" />
<path style="fill:#4c4c4c" d="M278,389 l-70,0 0,110 70,0 0,-110z" />
<path style="fill:#4c4c4c" d="M708,569 l-69,0 0,109 69,0 0,-109z" />
<path style="fill:#4c4c4c" d="M599,569 l-70,0 0,109 70,0 0,-109z" />
<path style="fill:#4c4c4c" d="M489,569 l-70,0 0,109 70,0 0,-109z" />
<path style="fill:#4c4c4c" d="M390,569 l-72,0 0,109 72,0 0,-109z" />
<path style="fill:#4c4c4c" d="M278,569 l-70,0 0,109 70,0 0,-109z" />
<path style="fill:#4c4c4c" d="M708,749 l-69,0 0,111 69,0 0,-111z" />
<path style="fill:#4c4c4c" d="M599,749 l-70,0 0,111 70,0 0,-111z" />
<path style="fill:#4c4c4c" d="M489,749 l-70,0 0,111 70,0 0,-111z" />
<path style="fill:#4c4c4c" d="M390,749 l-72,0 0,111 72,0 0,-111z" />
<path style="fill:#4c4c4c" d="M278,749 l-70,0 0,111 70,0 0,-111z" />
<path style="fill:#000" d="M44,145 l16,10 0,108 -16,-8 0,-110z" />
<path style="fill:#000" d="M68,158 l13,9 0,110 -13,-10 0,-109z" />
<path style="fill:#000" d="M89,172 l15,8 0,108 -15,-8 0,-108z" />
<path style="fill:#000" d="M111,185 l15,8 0,109 -15,-8 0,-109z" />
<path style="fill:#000" d="M135,198 l15,9 0,109 -15,-9 0,-109z" />
<path style="fill:#000" d="M44,327 l16,8 0,109 -16,-8 0,-109z" />
<path style="fill:#000" d="M68,338 l13,11 0,108 -13,-10 0,-109z" />
<path style="fill:#000" d="M89,352 l15,8 0,111 -15,-10 0,-109z" />
<path style="fill:#000" d="M111,365 l15,9 0,108 -15,-8 0,-109z" />
<path style="fill:#000" d="M135,379 l15,8 0,109 -15,-9 0,-108z" />
<path style="fill:#000" d="M44,507 l16,9 0,109 -16,-9 0,-109z" />
<path style="fill:#000" d="M68,519 l13,10 0,109 -13,-9 0,-110z" />
<path style="fill:#000" d="M89,533 l15,8 0,110 -15,-10 0,-108z" />
<path style="fill:#000" d="M111,545 l15,9 0,109 -15,-8 0,-110z" />
<path style="fill:#000" d="M135,559 l15,8 0,109 -15,-8 0,-109z" />
<path style="fill:#000" d="M44,688 l16,10 0,109 -16,-10 0,-109z" />
<path style="fill:#000" d="M68,701 l13,9 0,108 -13,-8 0,-109z" />
<path style="fill:#000" d="M89,715 l15,8 0,109 -15,-9 0,-108z" />
<path style="fill:#000" d="M111,728 l15,8 0,109 -15,-8 0,-109z" />
<path style="fill:#000" d="M135,741 l15,8 0,109 -15,-8 0,-109z" />

</svg>
