 

<svg xmlns:agg="http://www.example.com" xmlns="http://www.w3.org/2000/svg" preserveAspectRatio="none" width="0.4089in" height="1.0750in" viewBox="0 0 380 999">

<path style="fill:none;stroke:#000;stroke-width:2" d="M158,418 l0,-358 64,49 -64,49 64,64 -64,66 64,64 -64,66 -27,98 -39,194 -64,260 96,-64 -81,0" />
<path style="fill:none;stroke:#000;stroke-width:2" d="M222,418 l0,-358 -64,49 64,49 -64,64 64,66 -64,64 66,66 22,98 42,194 64,260 -98,-64 81,0" />
<path style="fill:none;stroke:#000;stroke-width:2" d="M190,970 l-130,-130 130,-130 -74,-98 74,-96 -42,-49 42,-49 39,49 -39,49 73,96 -73,98 130,130 -130,130" />
<path style="fill:none;stroke:#000;stroke-width:2" d="M92,418 l66,-66 64,0 66,66 -196,0" />
<path style="fill:none;stroke:#000;stroke-width:2" d="M92,222 l66,-64 64,0 66,64 -196,0" />
<path style="fill:none;stroke:#000;stroke-width:2" d="M92,109 l66,-49 64,0 66,49 -196,0" />
<path style="fill:none;stroke:#000;stroke-width:2" d="M124,28 l34,32 64,0 32,-32 -130,0" />
<path style="fill:none;stroke:#000;stroke-width:2" d="M107,158 l-15,0 15,-8 -15,0 15,-9 -15,0 15,-8 -15,0 15,-7 -15,0 15,-8 -15,0 15,-9" />
<path style="fill:none;stroke:#000;stroke-width:2" d="M288,158 l-17,0 17,-8 -17,0 17,-9 -17,0 17,-8 -17,0 17,-7 -17,0 17,-8 -17,0 17,-9" />
<path style="fill:none;stroke:#000;stroke-width:2" d="M107,271 l-15,0 15,-8 -15,0 15,-7 -15,0 15,-8 -15,0 15,-9 -15,0 15,-8 -15,0 15,-7" />
<path style="fill:none;stroke:#000;stroke-width:2" d="M288,271 l-17,0 17,-8 -17,0 17,-7 -17,0 17,-8 -17,0 17,-9 -17,0 17,-8 -17,0 17,-7" />
<path style="fill:none;stroke:#000;stroke-width:2" d="M107,467 l-15,0 15,-8 -15,0 15,-9 -15,0 15,-8 -15,0 15,-7 -15,0 15,-8 -15,0 15,-9" />
<path style="fill:none;stroke:#000;stroke-width:2" d="M288,467 l-17,0 17,-8 -17,0 17,-9 -17,0 17,-8 -17,0 17,-7 -17,0 17,-8 -17,0 17,-9" />
<path style="fill:none;stroke:#000;stroke-width:2" d="M75,776 l49,0 -32,-66 49,-64 -32,0" />
<path style="fill:none;stroke:#000;stroke-width:2" d="M303,776 l-49,0 34,-66 -49,-64 32,0" />
<path style="fill:none;stroke:#000;stroke-width:2" d="M92,710 l196,0" />
<path style="fill:none;stroke:#000;stroke-width:2" d="M133,516 l113,0" />
<path style="fill:none;stroke:#000;stroke-width:2" d="M124,565 l24,0 -15,-49 32,-34 -24,0" />
<path style="fill:none;stroke:#000;stroke-width:2" d="M254,565 l-25,0 17,-49 -32,-34 25,0" />

</svg>
