 

<svg xmlns:agg="http://www.example.com" xmlns="http://www.w3.org/2000/svg" preserveAspectRatio="none" width="1.6083in" height="0.6713in" viewBox="0 0 999 417">

<path style="fill:#e5d8cb;stroke:#000;stroke-width:2" d="M970,389 l0,-201 -20,0 0,-60 -60,60 0,-60 -60,60 0,-60 -60,60 0,-60 -60,60 0,-60 -60,60 -362,0 0,81 -260,0 0,120 942,0z" />
<path style="fill:#ffffd9;stroke:#000;stroke-width:2" d="M930,228 l-86,0 0,41 86,0 0,-41z" />
<path style="fill:#ffffd9;stroke:#000;stroke-width:2" d="M844,228 l-86,0 0,41 86,0 0,-41z" />
<path style="fill:#ffffd9;stroke:#000;stroke-width:2" d="M758,228 l-86,0 0,41 86,0 0,-41z" />
<path style="fill:#ffffd9;stroke:#000;stroke-width:2" d="M673,228 l-86,0 0,41 86,0 0,-41z" />
<path style="fill:#ffffd9;stroke:#000;stroke-width:2" d="M587,228 l-86,0 0,41 86,0 0,-41z" />
<path style="fill:#ffffd9;stroke:#000;stroke-width:2" d="M501,228 l-86,0 0,41 86,0 0,-41z" />
<path style="fill:#ffffd9;stroke:#000;stroke-width:2" d="M415,228 l-86,0 0,41 86,0 0,-41z" />
<path style="fill:#ffffd9;stroke:#000;stroke-width:2" d="M930,309 l-86,0 0,40 86,0 0,-40z" />
<path style="fill:#ffffd9;stroke:#000;stroke-width:2" d="M844,309 l-86,0 0,40 86,0 0,-40z" />
<path style="fill:#ffffd9;stroke:#000;stroke-width:2" d="M758,309 l-86,0 0,40 86,0 0,-40z" />
<path style="fill:#ffffd9;stroke:#000;stroke-width:2" d="M673,309 l-86,0 0,40 86,0 0,-40z" />
<path style="fill:#ffffd9;stroke:#000;stroke-width:2" d="M587,309 l-86,0 0,40 86,0 0,-40z" />
<path style="fill:#ffffd9;stroke:#000;stroke-width:2" d="M501,309 l-86,0 0,40 86,0 0,-40z" />
<path style="fill:#ffffd9;stroke:#000;stroke-width:2" d="M415,309 l-86,0 0,40 86,0 0,-40z" />
<path style="fill:#ffffd9;stroke:#000;stroke-width:2" d="M329,309 l-86,0 0,40 86,0 0,-40z" />
<path style="fill:#ffffd9;stroke:#000;stroke-width:2" d="M243,309 l-86,0 0,40 86,0 0,-40z" />
<path style="fill:#ffffd9;stroke:#000;stroke-width:2" d="M157,309 l-86,0 0,40 86,0 0,-40z" />
<path style="fill:#b28c65" d="M524,28 l15,160 -60,0 15,-160 30,0z" />
<path style="fill:#c4a589" d="M520,28 l1,9 1,15 1,11 0,12 1,13 1,8 1,10 0,12 1,13 2,17 1,19 2,21 -9,0 -36,0 0,-9 1,-15 1,-12 1,-11 0,-14 1,-8 1,-10 1,-11 1,-14 1,-16 1,-18 2,-22 4,0 12,0 6,0z" />
<path style="fill:#d4c0a9" d="M517,28 l0,9 1,15 0,11 1,12 0,13 1,8 0,10 0,12 1,13 1,17 1,19 1,21 -10,0 -20,0 1,-9 0,-15 1,-12 0,-11 1,-14 0,-8 1,-10 0,-11 1,-14 1,-16 1,-18 1,-22 2,0 13,0z" />
<path style="fill:#e5d8cb" d="M513,28 l3,160 -14,0 3,-160 8,0z" />
<path style="fill:none;stroke:#000;stroke-width:2" d="M524,28 l15,160 -60,0 15,-160 30,0" />
<path style="fill:#b28c65" d="M424,28 l15,160 -60,0 15,-160 30,0z" />
<path style="fill:#c4a589" d="M420,28 l1,9 1,15 1,11 1,12 0,13 1,8 1,10 1,12 1,13 1,17 1,19 2,21 -9,0 -36,0 1,-9 0,-15 1,-12 1,-11 1,-14 0,-8 1,-10 1,-11 1,-14 1,-16 2,-18 1,-22 4,0 13,0 5,0z" />
<path style="fill:#d4c0a9" d="M417,28 l0,9 1,15 0,11 1,12 0,13 1,8 0,10 1,12 0,13 1,17 1,19 1,21 -10,0 -20,0 1,-9 0,-15 1,-12 0,-11 1,-14 0,-8 1,-10 0,-11 1,-14 1,-16 1,-18 1,-22 2,0 13,0z" />
<path style="fill:#e5d8cb" d="M413,28 l4,160 -15,0 4,-160 7,0z" />
<path style="fill:none;stroke:#000;stroke-width:2" d="M424,28 l15,160 -60,0 15,-160 30,0" />

</svg>
