 

<svg xmlns:agg="http://www.example.com" xmlns="http://www.w3.org/2000/svg" preserveAspectRatio="none" width="1.4854in" height="1.0750in" viewBox="0 0 999 723">

<path style="fill:#e5e5e5;stroke:#000;stroke-width:2" d="M970,248 l-472,0 0,446 472,0 0,-446z" />
<path style="fill:#b2b2b2;stroke:#000;stroke-width:2" d="M30,30 l468,218 0,446 -468,-217 0,-447z" />
<path style="fill:none;stroke:#000;stroke-width:2" d="M35,32 l0,448 0,-448" />
<path style="fill:none;stroke:#7f7f7f;stroke-width:2" d="M488,242 l0,448 0,-448" />
<path style="fill:none;stroke:#7f7f7f;stroke-width:2" d="M465,232 l0,448 0,-448" />
<path style="fill:none;stroke:#7f7f7f;stroke-width:2" d="M261,137 l0,448 0,-448" />
<path style="fill:none;stroke:#7f7f7f;stroke-width:2" d="M58,43 l0,448 0,-448" />
<path style="fill:none;stroke:#7f7f7f;stroke-width:2" d="M80,52 l0,450 0,-450" />
<path style="fill:none;stroke:#7f7f7f;stroke-width:2" d="M103,63 l0,449 0,-449" />
<path style="fill:none;stroke:#7f7f7f;stroke-width:2" d="M125,73 l0,449 0,-449" />
<path style="fill:none;stroke:#7f7f7f;stroke-width:2" d="M148,84 l0,449 0,-449" />
<path style="fill:none;stroke:#7f7f7f;stroke-width:2" d="M171,94 l0,449 0,-449" />
<path style="fill:none;stroke:#7f7f7f;stroke-width:2" d="M193,105 l0,449 0,-449" />
<path style="fill:none;stroke:#7f7f7f;stroke-width:2" d="M216,115 l0,449 0,-449" />
<path style="fill:none;stroke:#7f7f7f;stroke-width:2" d="M239,126 l0,449 0,-449" />
<path style="fill:none;stroke:#7f7f7f;stroke-width:2" d="M284,144 l0,451 0,-451" />
<path style="fill:none;stroke:#7f7f7f;stroke-width:2" d="M307,154 l0,452 0,-452" />
<path style="fill:none;stroke:#7f7f7f;stroke-width:2" d="M329,165 l0,451 0,-451" />
<path style="fill:none;stroke:#7f7f7f;stroke-width:2" d="M352,175 l0,452 0,-452" />
<path style="fill:none;stroke:#7f7f7f;stroke-width:2" d="M442,217 l0,452 0,-452" />
<path style="fill:none;stroke:#7f7f7f;stroke-width:2" d="M420,206 l0,453 0,-453" />
<path style="fill:none;stroke:#7f7f7f;stroke-width:2" d="M397,196 l0,452 0,-452" />
<path style="fill:none;stroke:#7f7f7f;stroke-width:2" d="M375,185 l0,453 0,-453" />
<path style="fill:none;stroke:#999;stroke-width:2" d="M964,247 l0,448 0,-448" />
<path style="fill:none;stroke:#999;stroke-width:2" d="M934,249 l0,446 0,-446" />
<path style="fill:none;stroke:#999;stroke-width:2" d="M903,249 l0,446 0,-446" />
<path style="fill:none;stroke:#999;stroke-width:2" d="M873,249 l0,446 0,-446" />
<path style="fill:none;stroke:#999;stroke-width:2" d="M841,249 l0,446 0,-446" />
<path style="fill:none;stroke:#999;stroke-width:2" d="M811,249 l0,446 0,-446" />
<path style="fill:none;stroke:#999;stroke-width:2" d="M780,249 l0,446 0,-446" />
<path style="fill:none;stroke:#999;stroke-width:2" d="M749,249 l0,446 0,-446" />
<path style="fill:none;stroke:#999;stroke-width:2" d="M719,249 l0,446 0,-446" />
<path style="fill:none;stroke:#999;stroke-width:2" d="M688,249 l0,446 0,-446" />
<path style="fill:none;stroke:#999;stroke-width:2" d="M657,249 l0,446 0,-446" />
<path style="fill:none;stroke:#999;stroke-width:2" d="M627,249 l0,446 0,-446" />
<path style="fill:none;stroke:#999;stroke-width:2" d="M595,249 l0,446 0,-446" />
<path style="fill:none;stroke:#999;stroke-width:2" d="M565,249 l0,446 0,-446" />
<path style="fill:none;stroke:#999;stroke-width:2" d="M534,249 l0,446 0,-446" />
<path style="fill:none;stroke:#000;stroke-width:2" d="M503,247 l0,448 0,-448" />
<path style="fill:#f2f2f2;stroke:#000;stroke-width:2" d="M719,314 l-202,0 0,362 202,0 0,-362z" />
<circle style="fill:#4c4c4c" cx="552" cy="522" r="9" />
<path style="fill:#f2f2f2;stroke:#000;stroke-width:2" d="M970,247 l-473,0 -469,-219 432,0 510,219z" />
<path style="fill:#7f7f7f;stroke:#000;stroke-width:2" d="M77,115 l172,75 0,171 -172,-74 0,-172z" />
<path style="fill:#7f7f7f;stroke:#000;stroke-width:2" d="M278,203 l172,75 0,172 -172,-75 0,-172z" />
<path style="fill:#7f7f7f;stroke:#000;stroke-width:2" d="M538,343 l157,0 0,156 -157,0 0,-156z" />
<path style="fill:#7f7f7f;stroke:#000;stroke-width:2" d="M742,309 l209,0 0,253 -209,0 0,-253z" />
<path style="fill:#cbe5e5" d="M249,190 l-161,-70 0,160 161,70 0,-160z" />
<path style="fill:#cbe5e5" d="M450,278 l-161,-70 0,161 161,70 0,-161z" />
<path style="fill:#cbe5e5" d="M686,342 l-148,0 0,147 148,0 0,-147z" />
<path style="fill:#cbe5e5" d="M941,308 l-197,0 0,240 197,0 0,-240z" />
<path style="fill:#b3d9d9" d="M249,190 l0,49 -161,-114 0,-5 161,70z" />
<path style="fill:#b3d9d9" d="M450,278 l0,50 -161,-114 0,-6 161,70z" />
<path style="fill:#b3d9d9" d="M684,344 l0,45 -144,-40 0,-5 144,0z" />
<path style="fill:#b3d9d9" d="M939,310 l0,60 -192,-54 0,-6 192,0z" />

</svg>
