 

<svg xmlns:agg="http://www.example.com" xmlns="http://www.w3.org/2000/svg" preserveAspectRatio="none" width="1.6083in" height="0.7558in" viewBox="0 0 998 469">

<path style="fill:#afafaf;stroke:#000;stroke-width:2" d="M970,440 l-253,-163 -689,0 207,163 735,0z" />
<path style="fill:#e6e6e6;stroke:#000;stroke-width:2" d="M753,314 l0,-164 -109,0 0,164 109,0z" />
<path style="fill:#b6b6b6;stroke:#000;stroke-width:2" d="M644,150 l-27,-14 0,164 27,14 0,-164z" />
<path style="fill:#f7f7f7;stroke:#000;stroke-width:2" d="M644,150 l-27,-14 109,0 27,14 -109,0z" />
<path style="fill:#505050" d="M746,170 l-13,0 0,21 13,0 0,-21z" />
<path style="fill:#505050" d="M726,170 l-14,0 0,21 14,0 0,-21z" />
<path style="fill:#505050" d="M705,170 l-13,0 0,21 13,0 0,-21z" />
<path style="fill:#505050" d="M685,170 l-13,0 0,21 13,0 0,-21z" />
<path style="fill:#505050" d="M665,170 l-14,0 0,21 14,0 0,-21z" />
<path style="fill:#505050" d="M746,204 l-13,0 0,21 13,0 0,-21z" />
<path style="fill:#505050" d="M726,204 l-14,0 0,21 14,0 0,-21z" />
<path style="fill:#505050" d="M705,204 l-13,0 0,21 13,0 0,-21z" />
<path style="fill:#505050" d="M685,204 l-13,0 0,21 13,0 0,-21z" />
<path style="fill:#505050" d="M665,204 l-14,0 0,21 14,0 0,-21z" />
<path style="fill:#505050" d="M746,238 l-13,0 0,21 13,0 0,-21z" />
<path style="fill:#505050" d="M726,238 l-14,0 0,21 14,0 0,-21z" />
<path style="fill:#505050" d="M705,238 l-13,0 0,21 13,0 0,-21z" />
<path style="fill:#505050" d="M685,238 l-13,0 0,21 13,0 0,-21z" />
<path style="fill:#505050" d="M665,238 l-14,0 0,21 14,0 0,-21z" />
<path style="fill:#505050" d="M746,273 l-13,0 0,20 13,0 0,-20z" />
<path style="fill:#505050" d="M726,273 l-14,0 0,20 14,0 0,-20z" />
<path style="fill:#505050" d="M705,273 l-13,0 0,20 13,0 0,-20z" />
<path style="fill:#505050" d="M685,273 l-13,0 0,20 13,0 0,-20z" />
<path style="fill:#505050" d="M665,273 l-14,0 0,20 14,0 0,-20z" />
<path style="fill:#e6e6e6;stroke:#000;stroke-width:2" d="M678,354 l0,-122 -190,0 0,-55 -109,0 0,177 299,0z" />
<path style="fill:#b6b6b6;stroke:#000;stroke-width:2" d="M379,177 l-20,-13 0,177 20,13 0,-177z" />
<path style="fill:#f7f7f7;stroke:#000;stroke-width:2" d="M488,232 l0,-14 163,0 27,14 -190,0z" />
<path style="fill:#d8d8d8;stroke:#000;stroke-width:2" d="M678,266 l0,-27 -299,0 0,27 299,0z" />
<path style="fill:#a8a8a8;stroke:#000;stroke-width:2" d="M359,252 l0,-27 20,14 0,27 -20,-14z" />
<path style="fill:none;stroke:#fff;stroke-width:2" d="M678,266 l-299,0" />
<path style="fill:none;stroke:#e5e5e5;stroke-width:2" d="M379,265 l-20,-12" />
<path style="fill:#f7f7f7;stroke:#000;stroke-width:2" d="M379,177 l-20,-13 102,0 27,13 -109,0z" />
<path style="fill:none;stroke:#000;stroke-width:2" d="M488,232 l-109,0 -20,-14" />
<path style="fill:#000" d="M665,269 l-21,0 0,10 21,0 0,-10z" />
<path style="fill:#000" d="M624,223 l-22,0 0,4 22,0 0,-4z" />
<path style="fill:#505050" d="M614,225 l-41,-51 0,-7 47,58 -6,0z" />
<path style="fill:#505050" d="M607,225 l-41,-51 0,-7 47,58 -6,0z" />
<path style="fill:#505050" d="M726,364 l-68,-85 0,-6 68,85 0,6z" />
<path style="fill:#505050" d="M719,364 l-68,-85 0,-6 68,85 0,6z" />
<path style="fill:#e6e6e6;stroke:#000;stroke-width:2" d="M699,381 l0,-81 -136,0 0,81 136,0z" />
<path style="fill:#b6b6b6;stroke:#000;stroke-width:2" d="M563,300 l-27,-14 0,82 27,13 0,-81z" />
<path style="fill:#f7f7f7;stroke:#000;stroke-width:2" d="M563,300 l-27,-14 136,0 27,14 -136,0z" />
<path style="fill:#cecece" d="M695,354 l-129,0 0,14 129,0 0,-14z" />
<path style="fill:#cecece" d="M695,313 l-129,0 0,14 129,0 0,-14z" />
<path style="fill:#e6e6e6;stroke:#000;stroke-width:2" d="M304,323 l0,-55 -190,0 0,55 190,0z" />
<path style="fill:#f7f7f7;stroke:#000;stroke-width:2" d="M114,268 l-14,-10 177,0 28,10 -191,0z" />
<path style="fill:#b6b6b6;stroke:#000;stroke-width:2" d="M114,268 l-14,-10 0,55 14,10 0,-55z" />
<path style="fill:#cecece" d="M301,302 l-184,0 0,11 184,0 0,-11z" />
<path style="fill:#cecece" d="M301,278 l-184,0 0,11 184,0 0,-11z" />
<path style="fill:#868686" d="M729,371 l0,10 -3,0 0,-10 3,0z" />
<path style="fill:#868686" d="M719,371 l0,10 -3,0 0,-10 3,0z" />
<path style="fill:#dedede;stroke:#000;stroke-width:2" d="M729,371 l-13,0 -85,15 0,-10 85,-15 13,0 0,10z" />
<path style="fill:none;stroke:#000;stroke-width:2" d="M716,361 l0,10" />
<path style="fill:#eee;stroke:#000;stroke-width:2" d="M729,361 l-13,0 -85,16 -7,-4 85,-16 14,0 6,4z" />
<path style="fill:#7d7d7d;stroke:#000;stroke-width:2" d="M631,376 l0,10 -7,-4 0,-10 7,4z" />
<path style="fill:#6b6b6b" d="M368,350 l-27,-14 -46,-9 -32,-9 -54,5 -50,9 -23,0 -18,9 9,13 32,5 45,0 37,-5 41,5 -19,18 46,4 50,-4 27,-14 -18,-13z" />
<path style="fill:#b6b6b6" d="M341,341 l-23,-9 -23,-5 -32,-9 -45,5 -73,13 -9,-4 -9,9 -4,9 18,-9 32,4 68,-9 63,9 -4,9 32,9 9,-18 18,5 -18,-9z" />
<path style="fill:#2c2c2c" d="M205,345 l18,5 13,4 -36,5 -45,0 50,-14z" />
<path style="fill:#2c2c2c" d="M304,345 l-4,9 -37,23 19,-18 -5,-9 27,-5z" />
<path style="fill:#2c2c2c" d="M363,350 l23,13 -27,14 0,-18 -18,-5 22,-4z" />
<path style="fill:#2c2c2c" d="M812,427 l-27,-32 -36,-14 -77,-4 -105,4 -99,-4 -73,4 -27,18 -14,28 100,4 54,9 186,-9 64,5 54,-9z" />
<path style="fill:#6b6b6b" d="M753,413 l41,0 -13,-18 -37,-14 -95,-4 -64,9 -127,-9 -77,13 -9,19 77,-10 91,5 54,18 105,-13 36,18 18,-14z" />
<path style="fill:#b6b6b6" d="M726,399 l68,14 -13,-18 -37,-14 -91,0 -54,5 -127,-5 -91,9 9,5 55,-5 91,5 72,9 77,-9 32,18 9,-14z" />
<path style="fill:#6b6b6b" d="M808,341 l13,0 -13,-18 -18,-14 -18,5 -18,-5 -23,0 -18,9 -5,9 27,23 23,27 41,13 22,19 9,13 73,9 9,-13 -14,-28 -90,-49z" />
<path style="fill:#2c2c2c" d="M785,323 l18,4 14,14 -23,0 -36,-18 27,0z" />
<path style="fill:#2c2c2c" d="M749,327 l18,14 -9,31 -9,-22 -23,-14 23,-9z" />
<path style="fill:#2c2c2c" d="M830,377 l-9,13 9,32 -9,-13 -22,-19 31,-13z" />
<path style="fill:#b6b6b6" d="M857,368 l-81,-41 5,-9 9,-4 -19,-1 -18,-4 -23,4 -13,5 0,4 27,0 18,9 23,37 18,9 41,0 4,18 28,9 13,-9 -32,-27z" />
<path style="fill:#2c2c2c;stroke:#000;stroke-width:2" d="M383,167 l3,-139 13,0 4,139 -20,0z" />
<path style="fill:#2c2c2c;stroke:#000;stroke-width:2" d="M529,225 l0,-14 20,0 0,14 -20,0z" />
<path style="fill:#2c2c2c;stroke:#000;stroke-width:2" d="M707,143 l2,-61 5,0 2,61 -9,0z" />
<path style="fill:#626262" d="M386,167 l2,-139 9,0 2,139 -13,0z" />
<path style="fill:#626262" d="M532,225 l0,-14 14,0 0,14 -14,0z" />
<path style="fill:#626262" d="M708,143 l1,-61 4,0 1,61 -6,0z" />
<path style="fill:#969696" d="M389,167 l1,-139 5,0 1,139 -7,0z" />
<path style="fill:#969696" d="M536,225 l0,-14 6,0 0,14 -6,0z" />
<path style="fill:#969696" d="M710,143 l0,-61 2,0 1,61 -3,0z" />

</svg>
