 

<svg xmlns:agg="http://www.example.com" xmlns="http://www.w3.org/2000/svg" preserveAspectRatio="none" width="1.0212in" height="1.0750in" viewBox="0 0 949 999">

<path style="fill:#e5e5e5;stroke:#000;stroke-width:2" d="M821,127 l-595,0 0,794 595,0 0,-794z" />
<path style="fill:#999;stroke:#000;stroke-width:2" d="M772,921 l-397,-397 -149,0 0,397 546,0z" />
<path style="fill:#b2b2b2;stroke:#000;stroke-width:2" d="M226,127 l-198,-99 0,793 198,100 0,-794z" />
<path style="fill:#ccc;stroke:#000;stroke-width:2" d="M226,127 l-198,-99 595,0 198,99 -595,0z" />
<path style="fill:#d9d9d9;stroke:#000;stroke-width:2" d="M408,193 l-165,0 0,331 165,0 0,-331z" />
<path style="fill:#cbe5e5" d="M88,124 l-55,-27 0,165 55,27 0,-165z" />
<path style="fill:#cbe5e5" d="M154,157 l-54,-27 0,165 54,28 0,-166z" />
<path style="fill:#cbe5e5" d="M221,190 l-56,-27 0,165 56,28 0,-166z" />
<path style="fill:#cbe5e5" d="M392,209 l-133,0 0,133 133,0 0,-133z" />
<path style="fill:#cbe5e5" d="M606,193 l-165,0 0,165 165,0 0,-165z" />
<path style="fill:#cbe5e5" d="M805,193 l-165,0 0,165 165,0 0,-165z" />
<path style="fill:#b3d9d9" d="M315,291 l31,34 -39,-33 -27,-35 35,34z" />
<path style="fill:#b3d9d9" d="M390,211 l0,41 -129,-37 0,-4 129,0z" />
<path style="fill:#b3d9d9" d="M512,295 l38,42 -49,-40 -34,-44 45,42z" />
<path style="fill:#b3d9d9" d="M605,195 l0,51 -162,-46 0,-5 162,0z" />
<path style="fill:#b3d9d9" d="M710,295 l38,42 -49,-40 -33,-44 44,42z" />
<path style="fill:#b3d9d9" d="M803,195 l0,51 -162,-46 0,-5 162,0z" />
<path style="fill:#b3d9d9" d="M57,210 l12,49 -16,-49 -11,-49 15,49z" />
<path style="fill:#b3d9d9" d="M88,125 l0,51 -54,-72 0,-6 54,27z" />
<path style="fill:#b3d9d9" d="M123,244 l13,48 -17,-49 -11,-49 15,50z" />
<path style="fill:#b3d9d9" d="M154,159 l0,50 -54,-72 0,-5 54,27z" />
<path style="fill:#b3d9d9" d="M189,277 l13,48 -17,-48 -11,-50 15,50z" />
<path style="fill:#b3d9d9" d="M220,192 l0,50 -54,-72 0,-5 54,27z" />
<path style="fill:#fff" d="M299,219 l35,29 22,35 -34,-37 -23,-27z" />
<path style="fill:#fff" d="M369,328 l-48,-40 -31,-48 47,51 32,37z" />
<path style="fill:#fff" d="M300,328 l-17,-14 -11,-17 16,18 12,13z" />
<path style="fill:#fff" d="M490,205 l44,36 28,43 -42,-45 -30,-34z" />
<path style="fill:#fff" d="M579,341 l-61,-49 -38,-60 58,63 41,46z" />
<path style="fill:#fff" d="M492,341 l-21,-18 -14,-21 20,23 15,16z" />
<path style="fill:#fff" d="M689,205 l43,36 28,43 -42,-45 -29,-34z" />
<path style="fill:#fff" d="M777,341 l-60,-49 -39,-60 59,63 40,46z" />
<path style="fill:#fff" d="M691,341 l-22,-18 -14,-21 21,23 15,16z" />
<path style="fill:#fff" d="M50,117 l14,43 9,48 -14,-53 -9,-38z" />
<path style="fill:#fff" d="M79,267 l-20,-59 -13,-66 19,73 14,52z" />
<path style="fill:#fff" d="M50,253 l-7,-21 -5,-24 7,26 5,19z" />
<path style="fill:#fff" d="M116,150 l14,43 10,48 -14,-53 -10,-38z" />
<path style="fill:#fff" d="M145,300 l-20,-59 -13,-66 20,73 13,52z" />
<path style="fill:#fff" d="M116,286 l-7,-21 -4,-23 6,25 5,19z" />
<path style="fill:#fff" d="M182,183 l14,43 10,48 -14,-52 -10,-39z" />
<path style="fill:#fff" d="M211,333 l-20,-59 -12,-66 19,73 13,52z" />
<path style="fill:#fff" d="M182,319 l-7,-21 -4,-23 7,25 4,19z" />
<path style="fill:none;stroke:#fff;stroke-width:2" d="M365,248 l-27,-22" />
<path style="fill:none;stroke:#fff;stroke-width:2" d="M378,267 l-24,-19" />
<path style="fill:none;stroke:#fff;stroke-width:2" d="M573,241 l-33,-27" />
<path style="fill:none;stroke:#fff;stroke-width:2" d="M589,265 l-30,-24" />
<path style="fill:none;stroke:#fff;stroke-width:2" d="M771,241 l-33,-27" />
<path style="fill:none;stroke:#fff;stroke-width:2" d="M787,265 l-30,-24" />
<path style="fill:none;stroke:#fff;stroke-width:2" d="M209,232 l-11,-32" />
<path style="fill:none;stroke:#fff;stroke-width:2" d="M215,259 l-10,-29" />
<path style="fill:none;stroke:#fff;stroke-width:2" d="M143,200 l-11,-33" />
<path style="fill:none;stroke:#fff;stroke-width:2" d="M149,226 l-11,-29" />
<path style="fill:none;stroke:#fff;stroke-width:2" d="M77,166 l-11,-32" />
<path style="fill:none;stroke:#fff;stroke-width:2" d="M82,193 l-9,-29" />
<path style="fill:#7f7f7f;stroke:#000;stroke-width:2" d="M408,590 l-165,0 0,331 165,0 0,-331z" />
<path style="fill:#cbe5e5" d="M88,521 l-55,-27 0,165 55,27 0,-165z" />
<path style="fill:#cbe5e5" d="M154,554 l-54,-27 0,165 54,27 0,-165z" />
<path style="fill:#cbe5e5" d="M221,587 l-56,-27 0,165 56,27 0,-165z" />
<path style="fill:#cbe5e5" d="M392,606 l-133,0 0,133 133,0 0,-133z" />
<path style="fill:#cbe5e5" d="M606,590 l-165,0 0,165 165,0 0,-165z" />
<path style="fill:#cbe5e5" d="M805,590 l-165,0 0,165 165,0 0,-165z" />
<path style="fill:#b3d9d9" d="M315,688 l31,34 -39,-33 -27,-35 35,34z" />
<path style="fill:#b3d9d9" d="M390,608 l0,40 -129,-36 0,-4 129,0z" />
<path style="fill:#b3d9d9" d="M512,692 l38,42 -49,-40 -34,-44 45,42z" />
<path style="fill:#b3d9d9" d="M605,592 l0,50 -162,-45 0,-5 162,0z" />
<path style="fill:#b3d9d9" d="M710,692 l38,42 -49,-40 -33,-44 44,42z" />
<path style="fill:#b3d9d9" d="M803,592 l0,50 -162,-45 0,-5 162,0z" />
<path style="fill:#b3d9d9" d="M57,607 l12,49 -16,-49 -11,-49 15,49z" />
<path style="fill:#b3d9d9" d="M88,522 l0,51 -54,-72 0,-6 54,27z" />
<path style="fill:#b3d9d9" d="M123,640 l13,49 -17,-49 -11,-50 15,50z" />
<path style="fill:#b3d9d9" d="M154,556 l0,50 -54,-72 0,-5 54,27z" />
<path style="fill:#b3d9d9" d="M189,673 l13,49 -17,-49 -11,-49 15,49z" />
<path style="fill:#b3d9d9" d="M220,589 l0,50 -54,-72 0,-5 54,27z" />
<path style="fill:#fff" d="M299,616 l35,29 22,35 -34,-37 -23,-27z" />
<path style="fill:#fff" d="M369,725 l-48,-40 -31,-48 47,51 32,37z" />
<path style="fill:#fff" d="M300,725 l-17,-14 -11,-17 16,18 12,13z" />
<path style="fill:#fff" d="M490,602 l44,36 28,43 -42,-45 -30,-34z" />
<path style="fill:#fff" d="M579,738 l-61,-49 -38,-60 58,63 41,46z" />
<path style="fill:#fff" d="M492,738 l-21,-18 -14,-21 20,22 15,17z" />
<path style="fill:#fff" d="M689,602 l43,36 28,43 -42,-45 -29,-34z" />
<path style="fill:#fff" d="M777,738 l-60,-49 -39,-60 59,63 40,46z" />
<path style="fill:#fff" d="M691,738 l-22,-18 -14,-21 21,22 15,17z" />
<path style="fill:#fff" d="M50,513 l14,44 9,48 -14,-53 -9,-39z" />
<path style="fill:#fff" d="M79,664 l-20,-59 -13,-67 19,74 14,52z" />
<path style="fill:#fff" d="M50,650 l-7,-21 -5,-24 7,26 5,19z" />
<path style="fill:#fff" d="M116,547 l14,43 10,48 -14,-53 -10,-38z" />
<path style="fill:#fff" d="M145,697 l-20,-59 -13,-67 20,74 13,52z" />
<path style="fill:#fff" d="M116,683 l-7,-21 -4,-23 6,25 5,19z" />
<path style="fill:#fff" d="M182,580 l14,43 10,48 -14,-52 -10,-39z" />
<path style="fill:#fff" d="M211,730 l-20,-59 -12,-66 19,73 13,52z" />
<path style="fill:#fff" d="M182,716 l-7,-21 -4,-24 7,26 4,19z" />
<path style="fill:none;stroke:#fff;stroke-width:2" d="M365,644 l-27,-21" />
<path style="fill:none;stroke:#fff;stroke-width:2" d="M378,664 l-24,-20" />
<path style="fill:none;stroke:#fff;stroke-width:2" d="M573,638 l-33,-27" />
<path style="fill:none;stroke:#fff;stroke-width:2" d="M589,662 l-30,-24" />
<path style="fill:none;stroke:#fff;stroke-width:2" d="M771,638 l-33,-27" />
<path style="fill:none;stroke:#fff;stroke-width:2" d="M787,662 l-30,-24" />
<path style="fill:none;stroke:#fff;stroke-width:2" d="M209,629 l-11,-32" />
<path style="fill:none;stroke:#fff;stroke-width:2" d="M215,656 l-10,-29" />
<path style="fill:none;stroke:#fff;stroke-width:2" d="M143,596 l-11,-33" />
<path style="fill:none;stroke:#fff;stroke-width:2" d="M149,623 l-11,-29" />
<path style="fill:none;stroke:#fff;stroke-width:2" d="M77,563 l-11,-32" />
<path style="fill:none;stroke:#fff;stroke-width:2" d="M82,590 l-9,-29" />
<circle style="fill:#333" cx="391" cy="763" r="8" />
<circle style="fill:#333" cx="391" cy="366" r="8" />
<path style="fill:none;stroke:#000;stroke-width:2" d="M94,61 l0,793" />
<path style="fill:none;stroke:#000;stroke-width:2" d="M160,94 l0,794" />
<path style="fill:none;stroke:#000;stroke-width:2" d="M821,524 l-595,0 -198,-99" />
<path style="fill:none;stroke:#000;stroke-width:2" d="M425,127 l0,794" />
<path style="fill:none;stroke:#000;stroke-width:2" d="M623,127 l0,794" />
<path style="fill:none;stroke:#000;stroke-width:2" d="M392,738 l0,-132 -133,0" />
<path style="fill:none;stroke:#000;stroke-width:2" d="M606,754 l0,-165 -165,0" />
<path style="fill:none;stroke:#000;stroke-width:2" d="M805,754 l0,-165 -165,0" />
<path style="fill:none;stroke:#000;stroke-width:2" d="M221,752 l0,-165 -56,-28" />
<path style="fill:none;stroke:#000;stroke-width:2" d="M154,719 l0,-165 -54,-28" />
<path style="fill:none;stroke:#000;stroke-width:2" d="M88,685 l0,-165 -55,-27" />
<path style="fill:none;stroke:#000;stroke-width:2" d="M392,342 l0,-133 -133,0" />
<path style="fill:none;stroke:#000;stroke-width:2" d="M606,358 l0,-165 -165,0" />
<path style="fill:none;stroke:#000;stroke-width:2" d="M805,358 l0,-165 -165,0" />
<path style="fill:none;stroke:#000;stroke-width:2" d="M221,356 l0,-166 -56,-27" />
<path style="fill:none;stroke:#000;stroke-width:2" d="M154,323 l0,-166 -54,-27" />
<path style="fill:none;stroke:#000;stroke-width:2" d="M88,289 l0,-165 -55,-27" />
<circle style="fill:#fff" cx="395" cy="364" r="3" />
<circle style="fill:#fff" cx="395" cy="761" r="3" />
<path style="fill:none;stroke:#fff;stroke-width:2" d="M33,97 l0,165 55,27" />
<path style="fill:none;stroke:#fff;stroke-width:2" d="M100,130 l0,165 54,28" />
<path style="fill:none;stroke:#fff;stroke-width:2" d="M165,163 l0,165 56,28" />
<path style="fill:none;stroke:#fff;stroke-width:2" d="M259,209 l0,133 133,0" />
<path style="fill:none;stroke:#fff;stroke-width:2" d="M441,193 l0,165 165,0" />
<path style="fill:none;stroke:#fff;stroke-width:2" d="M640,193 l0,165 165,0" />
<path style="fill:none;stroke:#fff;stroke-width:2" d="M33,494 l0,165 55,27" />
<path style="fill:none;stroke:#fff;stroke-width:2" d="M100,527 l0,165 54,27" />
<path style="fill:none;stroke:#fff;stroke-width:2" d="M165,560 l0,165 56,27" />
<path style="fill:none;stroke:#fff;stroke-width:2" d="M259,606 l0,133 133,0" />
<path style="fill:none;stroke:#fff;stroke-width:2" d="M441,590 l0,165 165,0" />
<path style="fill:none;stroke:#fff;stroke-width:2" d="M640,590 l0,165 165,0" />
<path style="fill:#4c4c4c;stroke:#000;stroke-width:2" d="M425,524 l396,397 -49,0 -397,-397 50,0z" />
<path style="fill:#ccc;stroke:#000;stroke-width:2" d="M821,921 l0,-25 -396,-397 0,25 396,397z" />
<path style="fill:#ccc;stroke:#000;stroke-width:2" d="M226,524 l99,49 199,0 -99,-49 -199,0z" />
<path style="fill:#7f7f7f;stroke:#000;stroke-width:2" d="M524,573 l397,397 -50,0 -366,-372 -180,0 -99,-50 0,-24 99,49 199,0z" />
<path style="fill:#ccc;stroke:#000;stroke-width:2" d="M921,970 l0,-25 -397,-397 0,25 397,397z" />
<path style="fill:#fc0;stroke:#000;stroke-width:2" d="M524,474 l0,-12 384,384 0,13 -384,-385z" />
<path style="fill:#fc0;stroke:#000;stroke-width:2" d="M524,387 l0,-12 384,385 0,12 -384,-385z" />
<path style="fill:#fc0;stroke:#000;stroke-width:2" d="M654,704 l-12,-13 0,-198 12,12 0,199z" />
<path style="fill:#fc0;stroke:#000;stroke-width:2" d="M791,840 l-13,-12 0,-199 13,13 0,198z" />
<path style="fill:#fc0;stroke:#000;stroke-width:2" d="M921,970 l-13,-12 0,-198 13,12 0,198z" />
<path style="fill:#fc0;stroke:#000;stroke-width:2" d="M325,573 l0,-198 -99,-50 0,198 6,3 0,-186 87,44 0,75 -87,-44 0,12 87,44 0,99 6,3z" />
<path style="fill:#fc0;stroke:#000;stroke-width:2" d="M524,573 l0,-198 -199,0 0,198 13,0 0,-186 174,0 0,75 -174,0 0,12 174,0 0,99 12,0z" />
<path style="fill:#666" d="M348,598 l-23,0 0,372 23,0 0,-372z" />
<path style="fill:#e5e5e5" d="M342,598 l-11,0 0,372 11,0 0,-372z" />
<path style="fill:none;stroke:#000;stroke-width:2" d="M348,598 l-23,0 0,372 23,0 0,-372" />

</svg>
