<?xml version="1.0" encoding="utf-8"?>
<!-- Generator: Adobe Illustrator 16.0.0, SVG Export Plug-In . SVG Version: 6.00 Build 0)  -->
<!DOCTYPE svg PUBLIC "-//W3C//DTD SVG 1.1//EN" "http://www.w3.org/Graphics/SVG/1.1/DTD/svg11.dtd">
<svg version="1.1" id="图层_1" xmlns="http://www.w3.org/2000/svg" preserveAspectRatio="none" xmlns:xlink="http://www.w3.org/1999/xlink" x="0px" y="0px"
	 width="158.248px" height="157.458px" viewBox="0 0 158.248 157.458" enable-background="new 0 0 158.248 157.458"
	 xml:space="preserve">
<g>
	<rect x="13.318" y="67.271" fill="#BABABA" width="24.94" height="24.846"/>
	<rect x="41.442" y="47.822" fill="#BABABA" width="20.043" height="32.197"/>
	<rect x="4.964" y="146.446" fill="#B9B9B8" width="139.237" height="11.388"/>
	<polygon fill="#DCE5D4" points="4.964,146.446 4.964,97.101 74.457,65.858 144.242,96.809 144.242,146.446 	"/>
	<polygon fill="#A6C091" points="4.964,100.021 74.603,69.362 144.201,100.021 144.242,90.385 74.603,60.018 4.964,89.801 	"/>
	<polygon fill="#744D4E" points="0,96.225 74.603,63.23 148.914,96.225 148.914,88.925 74.603,55.855 0,88.925 	"/>
	<rect x="25.389" y="106.152" fill="#5C5C5C" width="16.054" height="15.948"/>
	<rect x="107.796" y="106.152" fill="#5C5C5C" width="16.055" height="15.948"/>
	<rect x="60.35" y="109.971" fill="#5C5C5C" width="28.953" height="36.475"/>
	<g>
		<rect x="60.015" y="90.197" fill="#595958" width="29.488" height="8.295"/>
		<rect x="61.986" y="92.23" fill="#FFFFFF" width="11.991" height="4.456"/>
		<rect x="75.702" y="92.117" fill="#FFFFFF" width="11.991" height="4.456"/>
	</g>
	<polygon fill="#FFFFFF" points="53.562,157.834 60.35,146.446 89.303,146.446 95.562,157.834 	"/>
	<polygon fill="#8D8D8C" points="89.303,146.446 100.395,157.834 95.562,157.834 	"/>
	<g>
		<rect x="118.396" y="131.757" fill="#A7A7A6" width="8.646" height="26.077"/>
		<rect x="127.042" y="131.757" fill="#909091" width="8.646" height="26.077"/>
	</g>
	<g>
		<rect x="140.955" y="131.757" fill="#A7A7A6" width="8.646" height="26.077"/>
		<rect x="149.601" y="131.757" fill="#909091" width="8.646" height="26.077"/>
	</g>
	<rect x="39.632" y="38.669" fill="#A6C095" width="24.025" height="12.127"/>
	<polygon fill="#8A8B89" points="41.442,50.796 46.496,55.855 61.486,55.855 61.486,50.796 	"/>
	<g>
		<rect x="19.496" fill="#A1A1A1" width="5.893" height="67.271"/>
		<rect x="25.389" fill="#8C8C8B" width="6.234" height="67.271"/>
	</g>
</g>
</svg>
