 

<svg xmlns:agg="http://www.example.com" xmlns="http://www.w3.org/2000/svg" preserveAspectRatio="none" width="1.6083in" height="0.8565in" viewBox="0 0 999 532">

<path style="fill:#b2b2b2;stroke:#000;stroke-width:2" d="M950,396 l0,98 -903,0 0,-98 903,0z" />
<path style="fill:#b2b2b2;stroke:#000;stroke-width:2" d="M813,376 l-10,-348 -19,0 -10,348 39,0z" />
<path style="fill:#b2b2b2;stroke:#000;stroke-width:2" d="M759,376 l-10,-348 -19,0 -10,348 39,0z" />
<path style="fill:#e5e5e5;stroke:#000;stroke-width:2" d="M970,376 l0,20 -942,0 0,-20 942,0z" />
<path style="fill:#e5e5e5;stroke:#000;stroke-width:2" d="M793,504 l0,-236 20,0 0,-19 -628,0 0,19 19,0 0,236 589,0z" />
<path style="fill:#b2b2b2;stroke:#000;stroke-width:2" d="M401,219 l0,30 -49,0 0,-30 49,0z" />
<path style="fill:#b2b2b2;stroke:#000;stroke-width:2" d="M533,209 l0,40 -68,0 0,-40 68,0z" />
<path style="fill:#b2b2b2;stroke:#000;stroke-width:2" d="M370,288 l-65,0 0,78 65,0 0,-78z" />
<path style="fill:#b2b2b2;stroke:#000;stroke-width:2" d="M451,288 l-65,0 0,78 65,0 0,-78z" />
<path style="fill:#b2b2b2;stroke:#000;stroke-width:2" d="M531,288 l-64,0 0,78 64,0 0,-78z" />
<path style="fill:#b2b2b2;stroke:#000;stroke-width:2" d="M612,288 l-65,0 0,78 65,0 0,-78z" />
<path style="fill:#b2b2b2;stroke:#000;stroke-width:2" d="M693,288 l-65,0 0,78 65,0 0,-78z" />
<path style="fill:#b2b2b2;stroke:#000;stroke-width:2" d="M774,288 l-65,0 0,78 65,0 0,-78z" />
<path style="fill:#b2b2b2;stroke:#000;stroke-width:2" d="M370,406 l-65,0 0,78 65,0 0,-78z" />
<path style="fill:#b2b2b2;stroke:#000;stroke-width:2" d="M451,406 l-65,0 0,78 65,0 0,-78z" />
<path style="fill:#b2b2b2;stroke:#000;stroke-width:2" d="M612,406 l-65,0 0,78 65,0 0,-78z" />
<path style="fill:#b2b2b2;stroke:#000;stroke-width:2" d="M693,406 l-65,0 0,78 65,0 0,-78z" />
<path style="fill:#b2b2b2;stroke:#000;stroke-width:2" d="M774,406 l-65,0 0,78 65,0 0,-78z" />
<path style="fill:#b2b2b2;stroke:#000;stroke-width:2" d="M289,288 l-65,0 0,78 65,0 0,-78z" />
<path style="fill:#b2b2b2;stroke:#000;stroke-width:2" d="M289,406 l-65,0 0,78 65,0 0,-78z" />
<path style="fill:#b2b2b2;stroke:#000;stroke-width:2" d="M533,396 l0,108 -68,0 0,-108 68,0z" />
<path style="fill:#b2b2b2;stroke:#000;stroke-width:2" d="M204,347 l-49,0 0,29 49,0 0,-29z" />
<path style="fill:#b2b2b2;stroke:#000;stroke-width:2" d="M872,288 l-44,0 0,88 44,0 0,-88z" />
<path style="fill:#b2b2b2;stroke:#000;stroke-width:2" d="M867,273 l-34,0 0,15 34,0 0,-15z" />
<path style="fill:none;stroke:#000;stroke-width:2" d="M793,386 l-589,0" />
<path style="fill:none;stroke:#000;stroke-width:2" d="M793,268 l-589,0" />
<path style="fill:none;stroke:#000;stroke-width:2" d="M774,327 l-65,0" />
<path style="fill:none;stroke:#000;stroke-width:2" d="M693,327 l-65,0" />
<path style="fill:none;stroke:#000;stroke-width:2" d="M612,327 l-65,0" />
<path style="fill:none;stroke:#000;stroke-width:2" d="M531,327 l-64,0" />
<path style="fill:none;stroke:#000;stroke-width:2" d="M451,327 l-65,0" />
<path style="fill:none;stroke:#000;stroke-width:2" d="M370,327 l-65,0" />
<path style="fill:none;stroke:#000;stroke-width:2" d="M337,288 l0,78" />
<path style="fill:none;stroke:#000;stroke-width:2" d="M418,288 l0,78" />
<path style="fill:none;stroke:#000;stroke-width:2" d="M499,288 l0,78" />
<path style="fill:none;stroke:#000;stroke-width:2" d="M580,288 l0,78" />
<path style="fill:none;stroke:#000;stroke-width:2" d="M660,288 l0,78" />
<path style="fill:none;stroke:#000;stroke-width:2" d="M742,288 l0,78" />
<path style="fill:none;stroke:#000;stroke-width:2" d="M774,445 l-65,0" />
<path style="fill:none;stroke:#000;stroke-width:2" d="M693,445 l-65,0" />
<path style="fill:none;stroke:#000;stroke-width:2" d="M612,445 l-65,0" />
<path style="fill:none;stroke:#000;stroke-width:2" d="M451,445 l-65,0" />
<path style="fill:none;stroke:#000;stroke-width:2" d="M370,445 l-65,0" />
<path style="fill:none;stroke:#000;stroke-width:2" d="M337,406 l0,78" />
<path style="fill:none;stroke:#000;stroke-width:2" d="M418,406 l0,78" />
<path style="fill:none;stroke:#000;stroke-width:2" d="M580,406 l0,78" />
<path style="fill:none;stroke:#000;stroke-width:2" d="M660,406 l0,78" />
<path style="fill:none;stroke:#000;stroke-width:2" d="M742,406 l0,78" />
<path style="fill:none;stroke:#000;stroke-width:2" d="M256,484 l0,-78" />
<path style="fill:none;stroke:#000;stroke-width:2" d="M256,366 l0,-78" />
<path style="fill:none;stroke:#000;stroke-width:2" d="M289,327 l-65,0" />
<path style="fill:none;stroke:#000;stroke-width:2" d="M289,445 l-65,0" />
<path style="fill:none;stroke:#000;stroke-width:2" d="M529,401 l0,98 -60,0 0,-98 60,0" />
<path style="fill:#000" d="M524,450 l0,10 -11,0 0,-10 11,0z" />
<path style="fill:#e5e5e5;stroke:#000;stroke-width:2" d="M931,416 l-30,0 0,58 30,0 0,-58z" />
<path style="fill:#e5e5e5;stroke:#000;stroke-width:2" d="M887,416 l-30,0 0,58 30,0 0,-58z" />
<path style="fill:#e5e5e5;stroke:#000;stroke-width:2" d="M843,416 l-30,0 0,58 30,0 0,-58z" />
<path style="fill:#e5e5e5;stroke:#000;stroke-width:2" d="M185,416 l-30,0 0,58 30,0 0,-58z" />
<path style="fill:#e5e5e5;stroke:#000;stroke-width:2" d="M141,416 l-30,0 0,58 30,0 0,-58z" />
<path style="fill:#e5e5e5;stroke:#000;stroke-width:2" d="M97,416 l-30,0 0,58 30,0 0,-58z" />

</svg>
