 

<svg xmlns:agg="http://www.example.com" xmlns="http://www.w3.org/2000/svg" preserveAspectRatio="none" width="1.6083in" height="0.8484in" viewBox="0 0 999 527">

<path style="fill:#f2f2e5;stroke:#000;stroke-width:2" d="M970,499 l-786,0 0,-392 786,0 0,392z" />
<path style="fill:#d9d9b3;stroke:#000;stroke-width:2" d="M28,420 l156,79 0,-392 -156,-79 0,392z" />
<path style="fill:#e5e5cb" d="M79,309 l-46,-23 0,-138 46,23 0,138z" />
<path style="fill:#e5e5cb" d="M128,333 l-44,-22 0,-136 44,21 0,137z" />
<path style="fill:#e5e5cb" d="M179,358 l-44,-21 0,-138 44,21 0,138z" />
<path style="fill:#8ca0bf" d="M79,305 l-38,-19 0,-134 38,19 0,134z" />
<path style="fill:#8ca0bf" d="M128,329 l-38,-18 0,-134 40,19 -2,133z" />
<path style="fill:#8ca0bf" d="M179,356 l-38,-19 0,-136 38,19 0,136z" />
<path style="fill:#000" d="M970,490 l-786,0 0,9 786,0 0,-9z" />
<path style="fill:#000" d="M184,490 l-156,-80 0,10 156,79 0,-9z" />
<path style="fill:#727d8c;stroke:#000;stroke-width:2" d="M793,499 l-117,0 0,-275 117,0 0,275z" />
<path style="fill:#333" d="M774,392 l-21,0 0,-21 21,0 0,21z" />
<path style="fill:#8c97a6" d="M774,343 l-79,0 0,-100 79,0 0,100z" />
<path style="fill:#e5e5cb" d="M343,361 l-138,0 0,-137 138,0 0,137z" />
<path style="fill:#e5e5cb" d="M499,361 l-138,0 0,-137 138,0 0,137z" />
<path style="fill:#e5e5cb" d="M655,361 l-135,0 0,-137 135,0 0,137z" />
<path style="fill:#e5e5cb" d="M951,361 l-137,0 0,-137 137,0 0,137z" />
<path style="fill:#a6bad9" d="M331,352 l-126,0 0,-128 126,0 0,128z" />
<path style="fill:#a6bad9" d="M490,352 l-129,0 0,-128 129,0 0,128z" />
<path style="fill:#a6bad9" d="M646,352 l-126,0 0,-128 126,0 0,128z" />
<path style="fill:#a6bad9" d="M769,337 l-74,0 0,-94 74,0 0,94z" />
<path style="fill:#a6bad9" d="M940,352 l-126,0 0,-128 126,0 0,128z" />
<path style="fill:#fafaf5;stroke:#000;stroke-width:2" d="M813,28 l157,78 -785,0 -157,-78 785,0z" />
<path style="fill:none;stroke:#000;stroke-width:2" d="M342,361 l-138,0 0,-137 138,0 0,137" />
<path style="fill:none;stroke:#000;stroke-width:2" d="M499,361 l-138,0 0,-137 138,0 0,137" />
<path style="fill:none;stroke:#000;stroke-width:2" d="M656,361 l-137,0 0,-137 137,0 0,137" />
<path style="fill:none;stroke:#000;stroke-width:2" d="M950,361 l-137,0 0,-137 137,0 0,137" />
<path style="fill:none;stroke:#000;stroke-width:2" d="M78,309 l-44,-22 0,-138 44,22 0,138" />
<path style="fill:none;stroke:#000;stroke-width:2" d="M128,333 l-44,-22 0,-137 44,22 0,137" />
<path style="fill:none;stroke:#000;stroke-width:2" d="M179,358 l-44,-21 0,-138 44,22 0,137" />

</svg>
