 

<svg xmlns:agg="http://www.example.com" xmlns="http://www.w3.org/2000/svg" preserveAspectRatio="none" width="1.6083in" height="0.8517in" viewBox="0 0 999 529">

<path style="fill:#919999;stroke:#000;stroke-width:2" d="M185,108 l-157,-80 0,392 157,81 0,-393z" />
<path style="fill:#4c4c4c" d="M63,105 l24,12 0,177 -24,-12 0,-177z" />
<path style="fill:#4c4c4c" d="M94,120 l24,13 0,177 -24,-13 0,-177z" />
<path style="fill:#4c4c4c" d="M126,136 l23,13 0,177 -23,-13 0,-177z" />
<path style="fill:#98b2b2" d="M87,117 l-22,-11 0,166 22,12 0,-167z" />
<path style="fill:#98b2b2" d="M118,133 l-22,-11 0,167 22,11 0,-167z" />
<path style="fill:#98b2b2" d="M149,149 l-22,-12 0,168 22,11 0,-167z" />
<path style="fill:#80a6a6" d="M87,116 l0,35 -22,-42 0,-4 22,11z" />
<path style="fill:#80a6a6" d="M118,132 l0,35 -22,-42 0,-4 22,11z" />
<path style="fill:#80a6a6" d="M149,148 l0,35 -22,-42 0,-4 22,11z" />
<path style="fill:#c4cccc;stroke:#000;stroke-width:2" d="M970,109 l-786,0 0,392 786,0 0,-392z" />
<path style="fill:#eaf2f2;stroke:#000;stroke-width:2" d="M970,109 l-156,-80 -786,0 156,80 786,0z" />
<path style="fill:#7f7f7f" d="M361,167 l118,0 0,176 -118,0 0,-176z" />
<path style="fill:#7f7f7f" d="M518,167 l118,0 0,176 -118,0 0,-176z" />
<path style="fill:#7f7f7f" d="M676,167 l117,0 0,176 -117,0 0,-176z" />
<path style="fill:#cbe5e5" d="M472,167 l-111,0 0,167 111,0 0,-167z" />
<path style="fill:#cbe5e5" d="M629,167 l-111,0 0,167 111,0 0,-167z" />
<path style="fill:#cbe5e5" d="M786,167 l-110,0 0,167 110,0 0,-167z" />
<path style="fill:#b3d9d9" d="M472,167 l0,34 -111,-31 0,-3 111,0z" />
<path style="fill:#b3d9d9" d="M629,167 l0,34 -111,-31 0,-3 111,0z" />
<path style="fill:#b3d9d9" d="M786,167 l0,34 -110,-31 0,-3 110,0z" />
<path style="fill:none;stroke:#000;stroke-width:2" d="M122,76 l-31,-16 0,393 31,16 0,-393" />
<path style="fill:none;stroke:#000;stroke-width:2" d="M655,109 l-156,0 0,392 156,0 0,-392" />
<path style="fill:none;stroke:#000;stroke-width:2" d="M970,118 l-786,0" />
<path style="fill:none;stroke:#000;stroke-width:2" d="M184,118 l-156,-79" />
<path style="fill:none;stroke:#000;stroke-width:2" d="M361,167 l118,0 0,176 -118,0 0,-176" />
<path style="fill:none;stroke:#000;stroke-width:2" d="M518,167 l118,0 0,176 -118,0 0,-176" />
<path style="fill:none;stroke:#000;stroke-width:2" d="M676,167 l117,0 0,176 -117,0 0,-176" />
<path style="fill:none;stroke:#000;stroke-width:2" d="M63,105 l24,12 0,177 -24,-12 0,-177" />
<path style="fill:none;stroke:#000;stroke-width:2" d="M94,120 l24,13 0,177 -24,-13 0,-177" />
<path style="fill:none;stroke:#000;stroke-width:2" d="M126,136 l23,13 0,177 -23,-13 0,-177" />

</svg>
