
<svg xmlns:agg="http://www.example.com" xmlns="http://www.w3.org/2000/svg" preserveAspectRatio="none" width="1.4984in" height="1.0750in" viewBox="0 0 998 716">

<path style="fill:#999;stroke:#000;stroke-width:2" d="M667,520 l-17,-303 -33,0 -17,303 67,0z" />
<path style="fill:#999;stroke:#000;stroke-width:2" d="M751,520 l-17,-303 -33,0 -17,303 67,0z" />
<path style="fill:#999;stroke:#000;stroke-width:2" d="M836,520 l-17,-303 -34,0 -17,303 68,0z" />
<path style="fill:#b2b2b2" d="M659,520 l-13,-299 -25,0 -13,299 51,0z" />
<path style="fill:#b2b2b2" d="M743,520 l-13,-299 -25,0 -13,299 51,0z" />
<path style="fill:#b2b2b2" d="M827,520 l-12,-299 -26,0 -12,299 50,0z" />
<path style="fill:#ccc" d="M642,520 l-4,-299 -9,0 -4,299 17,0z" />
<path style="fill:#ccc" d="M726,520 l-4,-299 -8,0 -5,299 17,0z" />
<path style="fill:#ccc" d="M811,520 l-5,-299 -8,0 -4,299 17,0z" />
<path style="fill:#666;stroke:#000;stroke-width:2" d="M739,217 l0,-9 -42,0 0,9 42,0z" />
<path style="fill:#666;stroke:#000;stroke-width:2" d="M655,217 l0,-9 -42,0 0,9 42,0z" />
<path style="fill:#666;stroke:#000;stroke-width:2" d="M823,217 l0,-9 -42,0 0,9 42,0z" />
<path style="fill:#666;stroke:#000;stroke-width:2" d="M903,671 l-875,0 0,-219 875,0 0,219z" />
<path style="fill:#999;stroke:#000;stroke-width:2" d="M970,520 l-606,0 0,168 606,0 0,-168z" />
<path style="fill:#333;stroke:#000;stroke-width:2" d="M533,621 l-34,0 0,67 34,0 0,-67z" />
<path style="fill:#b2b2b2;stroke:#000;stroke-width:2" d="M364,629 l-315,0 0,-21 315,0 0,21z" />
<path style="fill:#000;stroke:#000;stroke-width:2" d="M364,595 l-315,0 0,13 315,0 0,-13z" />
<path style="fill:#000;stroke:#000;stroke-width:2" d="M958,536 l-581,0 0,13 581,0 0,-13z" />
<path style="fill:#ccc;stroke:#000;stroke-width:2" d="M958,549 l-65,0 0,21 65,0 0,-21z" />
<path style="fill:#ccc;stroke:#000;stroke-width:2" d="M893,549 l-64,0 0,21 64,0 0,-21z" />
<path style="fill:#ccc;stroke:#000;stroke-width:2" d="M829,549 l-65,0 0,21 65,0 0,-21z" />
<path style="fill:#ccc;stroke:#000;stroke-width:2" d="M764,549 l-64,0 0,21 64,0 0,-21z" />
<path style="fill:#ccc;stroke:#000;stroke-width:2" d="M700,549 l-65,0 0,21 65,0 0,-21z" />
<path style="fill:#ccc;stroke:#000;stroke-width:2" d="M635,549 l-65,0 0,21 65,0 0,-21z" />
<path style="fill:#ccc;stroke:#000;stroke-width:2" d="M570,549 l-64,0 0,21 64,0 0,-21z" />
<path style="fill:#ccc;stroke:#000;stroke-width:2" d="M506,549 l-65,0 0,21 65,0 0,-21z" />
<path style="fill:#ccc;stroke:#000;stroke-width:2" d="M441,549 l-64,0 0,21 64,0 0,-21z" />
<path style="fill:#e5e5e5;stroke:#7f7f7f;stroke-width:2" d="M621,195 l-12,-28 -9,-22 -29,-7 -28,-8 -15,-6 -28,2 -30,0 -26,-6 -26,-7 -19,-17 -5,-10 -30,-2 -19,-8 -3,-4 0,-2 1,-3 31,-7 29,-1 28,-2 4,-5 2,-14 1,-1 2,0 2,1 28,-3 27,3 28,2 32,-2 29,1 25,7 24,8 26,-7 23,-15 27,-3 7,-1 6,0 6,0 27,13 18,26 14,15 2,0 7,-1 4,2 14,25 -3,29 4,17 1,3 0,4 -8,32 0,2 -1,1 -2,1 -2,0 -1,0 -8,-1 -9,-25 -8,-18 2,-7 -12,-23 -7,-4 -2,0 -24,23 -9,22 3,32 -25,-2 -6,-26 -20,-23 -9,-17 -3,-1 -3,-1 -18,13 1,30 -5,26 -21,0z" />
<path style="fill:#b2b2b2" d="M625,191 l-11,-28 -10,-22 -5,2 -24,-17 -4,-6 -30,-1 -28,1 -29,-4 -32,-8 -14,-7 -3,-11 -3,-4 -28,-1 -18,-6 -2,-3 0,-3 1,-2 1,-1 32,-4 30,5 20,2 1,-1 3,-5 29,-14 26,-5 26,8 29,1 28,-3 30,6 27,6 5,-1 11,1 15,-21 4,-1 6,1 16,6 26,3 23,19 15,14 7,0 3,1 13,21 -2,27 3,12 0,3 0,3 -6,26 -1,2 0,1 -1,1 -10,-1 -8,-25 -1,-16 -15,-23 -21,-17 -5,2 -1,2 0,1 5,8 1,6 -21,23 -4,7 -2,6 3,27 -16,3 -1,-1 -6,-27 -1,-6 -17,-24 -4,-9 -25,1 -4,1 -9,13 0,32 -4,21 -11,3 -2,0z" />

</svg>
