 

<svg xmlns:agg="http://www.example.com" xmlns="http://www.w3.org/2000/svg" preserveAspectRatio="none" width="1.1510in" height="1.0750in" viewBox="0 0 999 933">

<path style="fill:#ccc;stroke:#000;stroke-width:2" d="M970,154 l0,751 -755,0 0,-751 755,0z" />
<path style="fill:#a6bad9" d="M467,216 l-188,0 0,126 188,0 0,-126z" />
<path style="fill:#a6bad9" d="M687,216 l-189,0 0,126 189,0 0,-126z" />
<path style="fill:#a6bad9" d="M906,216 l-188,0 0,126 188,0 0,-126z" />
<path style="fill:#a6bad9" d="M467,373 l-188,0 0,125 188,0 0,-125z" />
<path style="fill:#a6bad9" d="M687,373 l-189,0 0,125 189,0 0,-125z" />
<path style="fill:#a6bad9" d="M906,373 l-188,0 0,125 188,0 0,-125z" />
<path style="fill:#a6bad9" d="M467,530 l-188,0 0,125 188,0 0,-125z" />
<path style="fill:#a6bad9" d="M687,530 l-189,0 0,125 189,0 0,-125z" />
<path style="fill:#a6bad9" d="M906,530 l-188,0 0,125 188,0 0,-125z" />
<path style="fill:#a6bad9" d="M467,686 l-188,0 0,125 188,0 0,-125z" />
<path style="fill:#a6bad9" d="M687,686 l-189,0 0,125 189,0 0,-125z" />
<path style="fill:#a6bad9" d="M906,686 l-188,0 0,125 188,0 0,-125z" />
<path style="fill:#7387a6" d="M467,686 l0,47 -188,-31 0,-16 188,0z" />
<path style="fill:#7387a6" d="M687,686 l0,47 -189,-31 0,-16 189,0z" />
<path style="fill:#7387a6" d="M906,686 l0,47 -188,-31 0,-16 188,0z" />
<path style="fill:#7387a6" d="M467,530 l0,47 -188,-32 0,-15 188,0z" />
<path style="fill:#7387a6" d="M687,530 l0,47 -189,-32 0,-15 189,0z" />
<path style="fill:#7387a6" d="M906,530 l0,47 -188,-32 0,-15 188,0z" />
<path style="fill:#7387a6" d="M467,216 l0,47 -188,-32 0,-15 188,0z" />
<path style="fill:#7387a6" d="M687,216 l0,47 -189,-32 0,-15 189,0z" />
<path style="fill:#7387a6" d="M906,216 l0,47 -188,-32 0,-15 188,0z" />
<path style="fill:#7387a6" d="M467,373 l0,47 -188,-32 0,-15 188,0z" />
<path style="fill:#7387a6" d="M687,373 l0,47 -189,-32 0,-15 189,0z" />
<path style="fill:#7387a6" d="M906,373 l0,47 -188,-32 0,-15 188,0z" />
<path style="fill:none;stroke:#000;stroke-width:2" d="M467,342 l0,-126 -188,0" />
<path style="fill:none;stroke:#000;stroke-width:2" d="M687,342 l0,-126 -189,0" />
<path style="fill:none;stroke:#000;stroke-width:2" d="M906,342 l0,-126 -188,0" />
<path style="fill:none;stroke:#000;stroke-width:2" d="M467,498 l0,-125 -188,0" />
<path style="fill:none;stroke:#000;stroke-width:2" d="M687,498 l0,-125 -189,0" />
<path style="fill:none;stroke:#000;stroke-width:2" d="M906,498 l0,-125 -188,0" />
<path style="fill:none;stroke:#000;stroke-width:2" d="M467,655 l0,-125 -188,0" />
<path style="fill:none;stroke:#000;stroke-width:2" d="M687,655 l0,-125 -189,0" />
<path style="fill:none;stroke:#000;stroke-width:2" d="M906,655 l0,-125 -188,0" />
<path style="fill:none;stroke:#000;stroke-width:2" d="M467,811 l0,-125 -188,0" />
<path style="fill:none;stroke:#000;stroke-width:2" d="M687,811 l0,-125 -189,0" />
<path style="fill:none;stroke:#000;stroke-width:2" d="M906,811 l0,-125 -188,0" />
<path style="fill:none;stroke:#fff;stroke-width:2" d="M467,811 l-188,0 0,-125" />
<path style="fill:none;stroke:#fff;stroke-width:2" d="M687,811 l-189,0 0,-125" />
<path style="fill:none;stroke:#fff;stroke-width:2" d="M906,811 l-188,0 0,-125" />
<path style="fill:none;stroke:#fff;stroke-width:2" d="M467,655 l-188,0 0,-125" />
<path style="fill:none;stroke:#fff;stroke-width:2" d="M687,655 l-189,0 0,-125" />
<path style="fill:none;stroke:#fff;stroke-width:2" d="M906,655 l-188,0 0,-125" />
<path style="fill:none;stroke:#fff;stroke-width:2" d="M467,342 l-188,0 0,-126" />
<path style="fill:none;stroke:#fff;stroke-width:2" d="M687,342 l-189,0 0,-126" />
<path style="fill:none;stroke:#fff;stroke-width:2" d="M906,342 l-188,0 0,-126" />
<path style="fill:none;stroke:#fff;stroke-width:2" d="M467,498 l-188,0 0,-125" />
<path style="fill:none;stroke:#fff;stroke-width:2" d="M687,498 l-189,0 0,-125" />
<path style="fill:none;stroke:#fff;stroke-width:2" d="M906,498 l-188,0 0,-125" />
<path style="fill:#e5e5e5;stroke:#000;stroke-width:2" d="M970,154 l-253,-126 -689,0 187,126 755,0z" />
<path style="fill:#999;stroke:#000;stroke-width:2" d="M215,154 l0,751 -187,-124 0,-753 187,126z" />
<path style="fill:#7387a6" d="M91,132 l-47,-31 0,126 47,31 0,-126z" />
<path style="fill:#7387a6" d="M145,169 l-47,-32 0,126 47,31 0,-125z" />
<path style="fill:#7387a6" d="M201,206 l-48,-32 0,125 48,32 0,-125z" />
<path style="fill:#7387a6" d="M91,289 l-47,-31 0,125 47,32 0,-126z" />
<path style="fill:#7387a6" d="M145,325 l-47,-31 0,126 47,31 0,-126z" />
<path style="fill:#7387a6" d="M201,362 l-48,-32 0,126 48,31 0,-125z" />
<path style="fill:#7387a6" d="M91,446 l-47,-31 0,125 47,32 0,-126z" />
<path style="fill:#7387a6" d="M145,482 l-47,-31 0,126 47,31 0,-126z" />
<path style="fill:#7387a6" d="M201,519 l-48,-31 0,125 48,31 0,-125z" />
<path style="fill:#7387a6" d="M91,603 l-47,-32 0,126 47,31 0,-125z" />
<path style="fill:#7387a6" d="M145,639 l-47,-31 0,125 47,32 0,-126z" />
<path style="fill:#7387a6" d="M201,676 l-48,-32 0,126 48,31 0,-125z" />
<path style="fill:#596d8c" d="M91,603 l0,47 -47,-63 0,-16 47,32z" />
<path style="fill:#596d8c" d="M145,639 l0,48 -47,-64 0,-15 47,31z" />
<path style="fill:#596d8c" d="M201,676 l0,47 -48,-63 0,-16 48,32z" />
<path style="fill:#596d8c" d="M91,446 l0,47 -47,-63 0,-15 47,31z" />
<path style="fill:#596d8c" d="M145,482 l0,48 -47,-63 0,-16 47,31z" />
<path style="fill:#596d8c" d="M201,519 l0,47 -48,-62 0,-16 48,31z" />
<path style="fill:#596d8c" d="M91,132 l0,48 -47,-63 0,-16 47,31z" />
<path style="fill:#596d8c" d="M145,169 l0,47 -47,-63 0,-16 47,32z" />
<path style="fill:#596d8c" d="M201,206 l0,47 -48,-63 0,-16 48,32z" />
<path style="fill:#596d8c" d="M91,289 l0,47 -47,-63 0,-15 47,31z" />
<path style="fill:#596d8c" d="M145,325 l0,48 -47,-63 0,-16 47,31z" />
<path style="fill:#596d8c" d="M201,362 l0,47 -48,-63 0,-16 48,32z" />
<path style="fill:none;stroke:#000;stroke-width:2" d="M91,258 l0,-126 -47,-31" />
<path style="fill:none;stroke:#000;stroke-width:2" d="M145,294 l0,-125 -47,-32" />
<path style="fill:none;stroke:#000;stroke-width:2" d="M201,331 l0,-125 -48,-32" />
<path style="fill:none;stroke:#000;stroke-width:2" d="M91,415 l0,-126 -47,-31" />
<path style="fill:none;stroke:#000;stroke-width:2" d="M145,451 l0,-126 -47,-31" />
<path style="fill:none;stroke:#000;stroke-width:2" d="M201,487 l0,-125 -48,-32" />
<path style="fill:none;stroke:#000;stroke-width:2" d="M91,572 l0,-126 -47,-31" />
<path style="fill:none;stroke:#000;stroke-width:2" d="M145,608 l0,-126 -47,-31" />
<path style="fill:none;stroke:#000;stroke-width:2" d="M201,644 l0,-125 -48,-31" />
<path style="fill:none;stroke:#000;stroke-width:2" d="M91,728 l0,-125 -47,-32" />
<path style="fill:none;stroke:#000;stroke-width:2" d="M145,765 l0,-126 -47,-31" />
<path style="fill:none;stroke:#000;stroke-width:2" d="M201,801 l0,-125 -48,-32" />

</svg>
