 

<svg xmlns:agg="http://www.example.com" xmlns="http://www.w3.org/2000/svg" preserveAspectRatio="none" width="0.3196in" height="1.0750in" viewBox="0 0 297 999">

<path style="fill:#000;stroke:#000;stroke-width:2" d="M39,359 l8,-7 26,23 -8,7 -26,-23z" />
<path style="fill:#000;stroke:#000;stroke-width:2" d="M69,375 l8,7 22,-23 -7,-7 -23,23z" />
<path style="fill:#000;stroke:#000;stroke-width:2" d="M194,359 l7,-7 23,23 -8,7 -22,-23z" />
<path style="fill:#000;stroke:#000;stroke-width:2" d="M224,375 l7,7 23,-23 -8,-7 -22,23z" />
<path style="fill:#000;stroke:#000;stroke-width:2" d="M28,209 l11,0 0,34 -11,0 0,-34z" />
<path style="fill:#000;stroke:#000;stroke-width:2" d="M258,209 l11,0 0,34 -11,0 0,-34z" />
<path style="fill:#000;stroke:#000;stroke-width:2" d="M39,99 l8,-11 26,26 -8,8 -26,-23z" />
<path style="fill:#000;stroke:#000;stroke-width:2" d="M69,114 l8,8 22,-23 -7,-11 -23,26z" />
<path style="fill:#000;stroke:#000;stroke-width:2" d="M194,99 l7,-11 23,26 -8,8 -22,-23z" />
<path style="fill:#000;stroke:#000;stroke-width:2" d="M224,114 l7,8 23,-23 -8,-11 -22,26z" />
<path style="fill:none;stroke:#000;stroke-width:2" d="M39,348 l34,34 30,-34" />
<path style="fill:none;stroke:#000;stroke-width:2" d="M194,348 l30,34 34,-34" />
<path style="fill:none;stroke:#000;stroke-width:2" d="M31,205 l0,4" />
<path style="fill:none;stroke:#000;stroke-width:2" d="M265,205 l0,4" />
<path style="fill:none;stroke:#000;stroke-width:2" d="M194,84 l30,34 34,-34" />
<path style="fill:none;stroke:#000;stroke-width:2" d="M39,84 l34,34 30,-34" />
<path style="fill:none;stroke:#000;stroke-width:2" d="M103,84 l91,0 0,264 -91,0 0,-264" />
<path style="fill:none;stroke:#000;stroke-width:2" d="M39,348 l68,8 83,0 68,-8" />
<path style="fill:none;stroke:#000;stroke-width:2" d="M258,348 l-219,0 68,-41 83,0 68,41" />
<path style="fill:none;stroke:#000;stroke-width:2" d="M31,205 l72,4 91,0 71,-4" />
<path style="fill:none;stroke:#000;stroke-width:2" d="M265,205 l-234,0 72,-45 91,0 71,45" />
<path style="fill:none;stroke:#000;stroke-width:2" d="M194,348 l-91,-71 91,-72 -91,-75 91,-72 0,26" />
<path style="fill:none;stroke:#000;stroke-width:2" d="M103,348 l91,-71 -91,-72 91,-75 -91,-72 0,26" />
<path style="fill:none;stroke:#000;stroke-width:2" d="M265,28 l-234,0 117,56 117,-56" />
<path style="fill:none;stroke:#000;stroke-width:2" d="M258,84 l-219,0 109,-56 110,56" />
<path style="fill:none;stroke:#000;stroke-width:2" d="M39,84 l64,-56 45,56 64,-56 46,56" />
<path style="fill:none;stroke:#000;stroke-width:2" d="M103,277 l91,0" />
<path style="fill:none;stroke:#000;stroke-width:2" d="M103,130 l91,0" />
<path style="fill:none;stroke:#000;stroke-width:2" d="M103,58 l91,0" />
<path style="fill:none;stroke:#000;stroke-width:2" d="M35,970 l68,-622 91,0 67,622 -203,-207 158,-162 -124,-125 102,-105 -91,0 102,105 -125,125 159,162 -204,207" />
<path style="fill:none;stroke:#000;stroke-width:2" d="M92,476 l113,0" />
<path style="fill:none;stroke:#000;stroke-width:2" d="M80,601 l136,0" />
<path style="fill:none;stroke:#000;stroke-width:2" d="M58,763 l181,0" />

</svg>
