 

<svg xmlns:agg="http://www.example.com" xmlns="http://www.w3.org/2000/svg" preserveAspectRatio="none" width="1.6083in" height="0.6713in" viewBox="0 0 999 417">

<path style="fill:#f2f2f2;stroke:#000;stroke-width:2" d="M186,233 l784,0 0,156 -784,0 0,-156z" />
<path style="fill:#cecece;stroke:#000;stroke-width:2" d="M28,193 l786,0 156,40 -784,0 -158,-40z" />
<path style="fill:#c2c2c2;stroke:#000;stroke-width:2" d="M254,351 l60,0 0,-60 -60,0 0,60z" />
<path style="fill:#c2c2c2;stroke:#000;stroke-width:2" d="M352,351 l60,0 0,-60 -60,0 0,60z" />
<path style="fill:#c2c2c2;stroke:#000;stroke-width:2" d="M451,351 l59,0 0,-60 -59,0 0,60z" />
<path style="fill:#c2c2c2;stroke:#000;stroke-width:2" d="M549,351 l58,0 0,-60 -58,0 0,60z" />
<path style="fill:#c2c2c2;stroke:#000;stroke-width:2" d="M647,389 l59,0 0,-98 -59,0 0,98z" />
<path style="fill:#c2c2c2;stroke:#000;stroke-width:2" d="M745,351 l58,0 0,-60 -58,0 0,60z" />
<path style="fill:#c2c2c2;stroke:#000;stroke-width:2" d="M843,351 l58,0 0,-60 -58,0 0,60z" />
<path style="fill:#fff;stroke:#000;stroke-width:2" d="M745,349 l49,0 0,-48 -49,0 0,48z" />
<path style="fill:#fff;stroke:#000;stroke-width:2" d="M843,349 l49,0 0,-48 -49,0 0,48z" />
<path style="fill:#fff;stroke:#000;stroke-width:2" d="M352,349 l49,0 0,-48 -49,0 0,48z" />
<path style="fill:#fff;stroke:#000;stroke-width:2" d="M254,349 l49,0 0,-48 -49,0 0,48z" />
<path style="fill:#fff;stroke:#000;stroke-width:2" d="M549,349 l49,0 0,-48 -49,0 0,48z" />
<path style="fill:#fff;stroke:#000;stroke-width:2" d="M451,349 l49,0 0,-48 -49,0 0,48z" />
<path style="fill:#e6e6e6;stroke:#000;stroke-width:2" d="M647,389 l49,0 0,-86 -49,0 0,86z" />
<path style="fill:#e6e6e6;stroke:#000;stroke-width:2" d="M186,233 l-158,-40 0,156 158,40 0,-156z" />
<path style="fill:#c2c2c2;stroke:#000;stroke-width:2" d="M265,208 l-8,-175 -1,-2 -2,-2 -7,-1 -10,1 -2,0 -3,2 -1,2 -6,175 8,5 11,1 12,-1 8,-4 1,-1z" />
<path style="fill:#c2c2c2;stroke:#000;stroke-width:2" d="M382,208 l-6,-175 -1,-2 -3,-2 -7,-1 -10,1 -2,0 -3,2 -1,2 -7,175 0,1 9,4 12,1 11,-1 7,-4 1,-1z" />
<path style="fill:#c2c2c2;stroke:#000;stroke-width:2" d="M500,208 l-8,-175 -1,-2 -2,-2 -7,-1 -9,1 -2,0 -2,2 -1,2 -8,175 1,1 8,4 10,1 12,-1 9,-4 0,-1z" />
<path style="fill:#c2c2c2;stroke:#000;stroke-width:2" d="M618,208 l-7,-175 -1,-2 -3,-2 -7,-1 -10,1 -2,0 -3,2 -1,2 -5,175 8,5 11,1 11,-1 9,-4 0,-1z" />
<path style="fill:#c2c2c2;stroke:#000;stroke-width:2" d="M735,208 l-5,-175 -1,-2 -3,-2 -7,-1 -10,1 -2,0 -3,2 -1,2 -7,175 0,1 9,4 11,1 10,-1 9,-4 0,-1z" />
<path style="fill:#dadada" d="M257,208 l-3,-175 -1,-2 -2,-2 -5,-1 -7,1 -2,2 0,2 -6,175 8,5 5,1 10,-2 3,-4z" />
<path style="fill:#dadada" d="M376,208 l-4,-175 -8,-5 -8,1 -2,2 -1,2 -4,175 8,5 6,1 9,-2 4,-4z" />
<path style="fill:#dadada" d="M492,208 l-3,-175 -1,-2 -2,-2 -5,-1 -7,1 -2,2 0,2 -4,175 7,5 4,1 10,-2 3,-4z" />
<path style="fill:#dadada" d="M611,208 l-4,-175 -1,-2 -1,-2 -5,-1 -9,1 -3,4 -4,175 8,5 6,1 9,-2 4,-4z" />
<path style="fill:#dadada" d="M730,208 l-6,-175 -1,-2 -2,-2 -5,-1 -7,1 -1,2 -1,2 -4,175 8,5 5,1 10,-2 4,-4z" />
<ellipse style="fill:#f2f2f2" cx="245" cy="121" rx="3" ry="93" />
<ellipse style="fill:#f2f2f2" cx="362" cy="121" rx="3" ry="93" />
<ellipse style="fill:#f2f2f2" cx="480" cy="121" rx="3" ry="93" />
<ellipse style="fill:#f2f2f2" cx="597" cy="121" rx="3" ry="93" />
<ellipse style="fill:#f2f2f2" cx="715" cy="121" rx="2" ry="93" />

</svg>
