 

<svg xmlns:agg="http://www.example.com" xmlns="http://www.w3.org/2000/svg" preserveAspectRatio="none" width="1.5708in" height="1.0750in" viewBox="0 0 998 683">

<path style="fill:#ccc;stroke:#000;stroke-width:2" d="M968,28 l-940,0 0,627 940,0 0,-627z" />
<path style="fill:#7f7f7f;stroke:#000;stroke-width:2" d="M968,576 l-940,0 0,79 940,0 0,-79z" />
<path style="fill:#e5e5e5;stroke:#000;stroke-width:2" d="M968,28 l-940,0 0,78 940,0 0,-78z" />
<path style="fill:#000" d="M45,182 l3,-2 900,0 0,4 -900,0 2,-2 -5,0 0,-2 3,0z" />
<path style="fill:#000" d="M48,498 l-3,-3 0,-313 5,0 0,313 -2,-2 0,5 -3,0 0,-3z" />
<path style="fill:#000" d="M950,495 l-2,3 -900,0 0,-5 900,0 -2,2 4,0 0,3 -2,0z" />
<path style="fill:#000" d="M948,180 l2,2 0,313 -4,0 0,-313 2,2 0,-4 2,0 0,2z" />
<path style="fill:none;stroke:#000;stroke-width:2" d="M792,204 l-725,0 0,274 725,0 0,-274" />
<path style="fill:#999" d="M478,224 l2,-1 79,235 -4,1 -79,-235 2,0z" />
<path style="fill:#999" d="M459,224 l2,-1 78,235 -4,1 -78,-235 2,0z" />
<circle style="fill:#7f7f7f;stroke:#7f7f7f;stroke-width:2" cx="431" cy="241" r="17" />
<path style="fill:#000;stroke:#000;stroke-width:2" d="M772,243 l-10,0 0,20 10,0 0,-20z" />
<path style="fill:#000;stroke:#000;stroke-width:2" d="M752,243 l-9,0 0,20 9,0 0,-20z" />
<path style="fill:#000;stroke:#000;stroke-width:2" d="M733,243 l-10,0 0,20 10,0 0,-20z" />
<path style="fill:#000;stroke:#000;stroke-width:2" d="M713,243 l-9,0 0,20 9,0 0,-20z" />
<path style="fill:#000;stroke:#000;stroke-width:2" d="M694,243 l-10,0 0,20 10,0 0,-20z" />
<path style="fill:#000;stroke:#000;stroke-width:2" d="M674,243 l-10,0 0,20 10,0 0,-20z" />
<path style="fill:#000;stroke:#000;stroke-width:2" d="M655,243 l-10,0 0,20 10,0 0,-20z" />
<path style="fill:#000;stroke:#000;stroke-width:2" d="M635,243 l-10,0 0,20 10,0 0,-20z" />
<path style="fill:#000;stroke:#000;stroke-width:2" d="M615,243 l-9,0 0,20 9,0 0,-20z" />
<path style="fill:#000;stroke:#000;stroke-width:2" d="M596,243 l-10,0 0,20 10,0 0,-20z" />
<path style="fill:#000;stroke:#000;stroke-width:2" d="M772,420 l-10,0 0,19 10,0 0,-19z" />
<path style="fill:#000;stroke:#000;stroke-width:2" d="M752,420 l-9,0 0,19 9,0 0,-19z" />
<path style="fill:#000;stroke:#000;stroke-width:2" d="M733,420 l-10,0 0,19 10,0 0,-19z" />
<path style="fill:#000;stroke:#000;stroke-width:2" d="M713,420 l-10,0 0,19 10,0 0,-19z" />
<path style="fill:#000;stroke:#000;stroke-width:2" d="M694,420 l-10,0 0,19 10,0 0,-19z" />
<path style="fill:#000;stroke:#000;stroke-width:2" d="M674,420 l-10,0 0,19 10,0 0,-19z" />
<path style="fill:#7f7f7f;stroke:#000;stroke-width:2" d="M772,376 l0,-10 -20,0 0,10 20,0z" />
<path style="fill:#7f7f7f;stroke:#000;stroke-width:2" d="M772,356 l0,-10 -20,0 0,10 20,0z" />
<path style="fill:#7f7f7f;stroke:#000;stroke-width:2" d="M772,336 l0,-9 -20,0 0,9 20,0z" />
<path style="fill:#7f7f7f;stroke:#000;stroke-width:2" d="M772,317 l0,-10 -20,0 0,10 20,0z" />
<path style="fill:#ccc" d="M968,224 l-167,0 0,230 167,0 0,-230z" />
<path style="fill:#000" d="M799,224 l2,-2 167,0 0,4 -167,0 3,-2 -5,0 0,-2 2,0z" />
<path style="fill:#000" d="M801,456 l-2,-2 0,-230 5,0 0,230 -3,-2 0,4 -2,0 0,-2z" />
<path style="fill:#000" d="M970,454 l-2,2 -167,0 0,-4 167,0 -2,2 4,0 0,2 -2,0z" />
<path style="fill:#000" d="M968,222 l2,2 0,230 -4,0 0,-230 2,2 0,-4 2,0 0,2z" />
<circle style="fill:#b2b2b2;stroke:#000;stroke-width:2" cx="816" cy="341" r="5" />
<path style="fill:none;stroke:#000;stroke-width:2" d="M341,238 l-274,0" />

</svg>
