 

<svg xmlns:agg="http://www.example.com" xmlns="http://www.w3.org/2000/svg" preserveAspectRatio="none" width="0.3852in" height="1.0750in" viewBox="0 0 358 999">

<path style="fill:#00f;stroke:#000;stroke-width:2" d="M103,245 l0,-202 13,-15 149,0 0,117 -39,0 0,100 -123,0z" />
<path style="fill:#0000bf" d="M226,145 l-15,-55 54,0 0,55 -39,0z" />
<path style="fill:#0000bf" d="M184,111 l-81,0 0,134 81,0 0,-134z" />
<path style="fill:#999" d="M137,299 l17,671 19,0 19,-671 -55,0z" />
<path style="fill:#b2b2b2" d="M145,299 l13,671 11,0 13,-671 -37,0z" />
<path style="fill:#ccc" d="M158,299 l4,671 3,0 4,-671 -11,0z" />
<path style="fill:none;stroke:#000;stroke-width:2" d="M137,299 l17,671 19,0 19,-671 -55,0" />
<path style="fill:#999" d="M43,260 l243,0 0,39 -243,0 0,-39z" />
<path style="fill:#b2b2b2" d="M73,260 l183,0 0,39 -183,0 0,-39z" />
<path style="fill:#ccc" d="M113,260 l101,0 0,39 -101,0 0,-39z" />
<path style="fill:none;stroke:#000;stroke-width:2" d="M43,260 l243,0 0,39 -243,0 0,-39" />
<path style="fill:#b2b2b2" d="M122,246 l83,0 0,14 -83,0 0,-14z" />
<path style="fill:#ccc" d="M130,246 l67,0 0,14 -67,0 0,-14z" />
<path style="fill:#e5e5e5" d="M150,246 l27,0 0,14 -27,0 0,-14z" />
<path style="fill:none;stroke:#000;stroke-width:2" d="M122,246 l83,0 0,14 -83,0 0,-14" />
<path style="fill:#999;stroke:#000;stroke-width:2" d="M114,184 l13,-1 12,-5 10,-7 9,-9 8,-11 6,-12 4,-14 0,-7 1,-7 -1,-8 -2,-15 -5,-13 -7,-12 -8,-10 -10,-9 -11,-5 -12,-3 -7,-1 -24,0 -12,2 -12,4 -10,7 -9,10 -7,10 -6,13 -3,15 -1,7 0,8 0,7 2,14 5,13 6,12 9,10 9,8 11,6 12,3 6,0 24,0z" />
<ellipse style="fill:#b2b2b2;stroke:#000;stroke-width:2" cx="90" cy="109" rx="62" ry="74" />
<path style="fill:#999" d="M32,90 l107,62 11,-22 -107,-63 -11,23z" />
<path style="fill:#b2b2b2;stroke:#000;stroke-width:2" d="M309,145 l-47,0 -3,-1 -4,-10 -2,-15 -1,-10 0,-11 0,-23 0,-11 1,-10 2,-16 4,-9 3,-1 47,0 4,1 7,9 3,7 3,9 2,10 1,11 0,11 0,12 -1,11 -2,10 -3,8 -6,13 -4,4 -4,1z" />
<ellipse style="fill:#e5e5e5;stroke:#000;stroke-width:2" cx="309" cy="86" rx="19" ry="58" />
<ellipse style="fill:#4c4c4c;stroke:#000;stroke-width:2" cx="309" cy="86" rx="8" ry="26" />
<path style="fill:#333;stroke:#000;stroke-width:2" d="M90,260 l6,0 0,-55 -6,0 0,55z" />
<path style="fill:#333;stroke:#000;stroke-width:2" d="M231,260 l8,0 0,-55 -8,0 0,55z" />

</svg>
