 

<svg xmlns:agg="http://www.example.com" xmlns="http://www.w3.org/2000/svg" preserveAspectRatio="none" width="1.6083in" height="0.9756in" viewBox="0 0 999 606">

<path style="fill:#7f7f7f;stroke:#000;stroke-width:2" d="M970,28 l-942,0 0,550 942,0 0,-550z" />
<path style="fill:#fff;stroke:#000;stroke-width:2" d="M960,568 l-922,-530 -10,-10 942,0 0,550 -10,-10z" />
<path style="fill:#000;stroke:#000;stroke-width:2" d="M960,38 l-923,0 0,530 923,0 0,-530z" />
<path style="fill:#e5e5e5;stroke:#000;stroke-width:2" d="M852,126 l-706,0 0,294 706,0 0,-294z" />
<path style="fill:#0f0;stroke:#000;stroke-width:2" d="M813,185 l-648,0 0,196 648,0 0,-196z" />
<path style="fill:none;stroke:#fff;stroke-width:2" d="M931,440 l-79,0 0,79 79,0 0,-79" />
<path style="fill:none;stroke:#fff;stroke-width:2" d="M774,440 l-79,0 0,79 79,0 0,-79" />
<path style="fill:#000;stroke:#fff;stroke-width:2" d="M617,440 l-79,0 0,79 79,0 0,-79z" />
<path style="fill:none;stroke:#fff;stroke-width:2" d="M460,440 l-79,0 0,79 79,0 0,-79" />
<path style="fill:none;stroke:#fff;stroke-width:2" d="M303,440 l-79,0 0,79 79,0 0,-79" />
<path style="fill:none;stroke:#fff;stroke-width:2" d="M146,440 l-79,0 0,79 79,0 0,-79" />
<path style="fill:none;stroke:#fff;stroke-width:2" d="M136,283 l-79,0 0,79 79,0 0,-79" />
<path style="fill:none;stroke:#fff;stroke-width:2" d="M136,126 l-79,0 0,78 79,0 0,-78" />
<path style="fill:#fff;stroke:#fff;stroke-width:2" d="M607,509 l-29,-59 -30,59 59,0z" />
<path style="fill:#fff;stroke:#fff;stroke-width:2" d="M391,450 l29,59 30,-59 -59,0z" />
<path style="fill:#fff;stroke:#fff;stroke-width:2" d="M234,509 l59,-30 -59,-29 0,59z" />
<path style="fill:#fff;stroke:#fff;stroke-width:2" d="M77,509 l59,-30 -59,-29 0,59z" />
<path style="fill:#093;stroke:#000;stroke-width:2" d="M813,185 l-648,0 0,49 648,0 0,-49z" />
<path style="fill:#063;stroke:#000;stroke-width:2" d="M813,185 l-648,0 0,19 648,0 0,-19z" />

</svg>
