 

<svg xmlns:agg="http://www.example.com" xmlns="http://www.w3.org/2000/svg" preserveAspectRatio="none" width="1.3788in" height="1.0750in" viewBox="0 0 531 414">

<path style="fill:#000;stroke:#000;stroke-width:2" d="M15,24 l495,0 0,327 -495,0 0,-327z" />
<path style="fill:#000;stroke:#7f7f7f;stroke-width:2" d="M516,351 l-501,0 0,-333 215,0 0,169 286,93 0,71z" />
<path style="fill:#000;stroke:#7f7f7f;stroke-width:2" d="M337,351 l0,4 0,4 0,4 0,4 0,5 0,4 0,4 0,4 3,3 6,2 10,1 11,1 10,-1 10,-1 6,-2 3,-3 0,-33 -59,0z" />
<path style="fill:#191919;stroke:#7f7f7f;stroke-width:2" d="M87,399 l0,-48 24,0 0,-333 -24,0 0,-3 119,0 0,3 -24,0 0,333 24,0 0,48 -119,0z" />
<path style="fill:#093;stroke:#000;stroke-width:2" d="M236,59 l202,0 0,36 -202,0 0,-36z" />
<path style="fill:#063" d="M452,62 l-14,-14 -202,0 0,28 202,0 -14,-14 28,0 0,-14 -14,0z" />
<path style="fill:#063" d="M438,95 l14,0 0,-33 -28,0 0,33 14,0z" />
<path style="fill:#ff0;stroke:#000;stroke-width:2" d="M111,286 l71,0 0,47 -71,0 0,-47z" />
<circle style="fill:#000;stroke:#7f7f7f;stroke-width:2" cx="411" cy="217" r="15" />
<circle style="fill:#000;stroke:#7f7f7f;stroke-width:2" cx="411" cy="151" r="15" />
<circle style="fill:#000;stroke:#7f7f7f;stroke-width:2" cx="301" cy="184" r="12" />
<circle style="fill:#000;stroke:#7f7f7f;stroke-width:2" cx="277" cy="160" r="11" />
<circle style="fill:#000;stroke:#7f7f7f;stroke-width:2" cx="301" cy="137" r="12" />
<circle style="fill:#000;stroke:#7f7f7f;stroke-width:2" cx="325" cy="160" r="12" />
<path style="fill:#191919" d="M57,330 l-41,0 -1,-41 42,0 8,2 7,4 4,6 2,8 -2,8 -4,7 -7,4 -8,2z" />
<path style="fill:#191919" d="M57,98 l-41,0 -1,-42 42,0 8,2 7,4 4,7 2,8 -2,8 -4,7 -7,4 -8,2z" />
<path style="fill:#191919" d="M468,56 l41,0 1,42 -42,0 -8,-2 -7,-4 -4,-7 -2,-8 2,-8 4,-7 7,-4 8,-2z" />
<path style="fill:#191919" d="M474,289 l41,0 1,41 -42,0 -8,-2 -7,-4 -4,-7 -2,-8 2,-8 4,-6 7,-4 8,-2z" />
<circle style="fill:#4c4c4c;stroke:#000;stroke-width:2" cx="57" cy="309" r="18" />
<circle style="fill:#4c4c4c;stroke:#000;stroke-width:2" cx="57" cy="77" r="18" />
<circle style="fill:#4c4c4c;stroke:#000;stroke-width:2" cx="473" cy="77" r="17" />
<circle style="fill:#4c4c4c;stroke:#000;stroke-width:2" cx="473" cy="309" r="17" />
<circle style="fill:#fff;stroke:#000;stroke-width:2" cx="57" cy="309" r="12" />
<circle style="fill:#fff;stroke:#000;stroke-width:2" cx="57" cy="77" r="12" />
<circle style="fill:#fff;stroke:#000;stroke-width:2" cx="474" cy="77" r="12" />
<circle style="fill:#fff;stroke:#000;stroke-width:2" cx="474" cy="309" r="12" />
<path style="fill:#fff;stroke:#000;stroke-width:2" d="M408,223 l9,0 0,-18 -6,0 0,12 -3,0 0,-6 -8,9 8,9 0,-6z" />
<path style="fill:#fff;stroke:#000;stroke-width:2" d="M417,157 l0,-11 6,0 0,2 -4,0 0,6 4,0 0,3 -6,0z" />
<ellipse style="fill:#fff;stroke:#000;stroke-width:2" cx="411" cy="151" rx="3" ry="5" />
<ellipse style="fill:#fff;stroke:#000;stroke-width:2" cx="403" cy="151" rx="3" ry="5" />
<path style="fill:#fff;stroke:#000;stroke-width:2" d="M322,152 l9,9 -9,8 0,-17z" />
<path style="fill:#fff;stroke:#000;stroke-width:2" d="M292,140 l9,-9 9,9 -18,0z" />
<path style="fill:#fff;stroke:#000;stroke-width:2" d="M280,169 l-9,-8 9,-9 0,17z" />
<path style="fill:#fff;stroke:#000;stroke-width:2" d="M310,181 l-9,9 -9,-9 18,0z" />

</svg>
