 

<svg xmlns:agg="http://www.example.com" xmlns="http://www.w3.org/2000/svg" preserveAspectRatio="none" width="1.6083in" height="0.7502in" viewBox="0 0 999 466">

<path style="fill:#7f7f7f;stroke:#000;stroke-width:2" d="M519,106 l-79,0 0,234 79,0 0,-234z" />
<path style="fill:#7f7f7f;stroke:#000;stroke-width:2" d="M440,106 l-78,0 0,234 78,0 0,-234z" />
<path style="fill:#7f7f7f;stroke:#000;stroke-width:2" d="M968,106 l-371,0 0,234 371,0 0,-234z" />
<path style="fill:#7f7f7f;stroke:#000;stroke-width:2" d="M597,106 l-78,0 0,234 78,0 0,-234z" />
<path style="fill:#7f7f7f;stroke:#000;stroke-width:2" d="M362,106 l-332,0 0,234 332,0 0,-234z" />
<path style="fill:#7f7f7f;stroke:#000;stroke-width:2" d="M968,28 l-938,0 0,78 938,0 0,-78z" />
<path style="fill:#7f7f7f;stroke:#000;stroke-width:2" d="M968,340 l-938,0 0,78 938,0 0,-78z" />
<path style="fill:#000;stroke:#000;stroke-width:2" d="M948,418 l-898,0 0,20 898,0 0,-20z" />
<path style="fill:#ccc;stroke:#000;stroke-width:2" d="M511,125 l-19,0 0,20 19,0 0,-20z" />
<path style="fill:#ccc;stroke:#000;stroke-width:2" d="M511,184 l-19,0 0,19 19,0 0,-19z" />
<path style="fill:#ccc;stroke:#000;stroke-width:2" d="M511,243 l-19,0 0,19 19,0 0,-19z" />
<path style="fill:#ccc;stroke:#000;stroke-width:2" d="M511,301 l-19,0 0,20 19,0 0,-20z" />
<path style="fill:#ccc;stroke:#000;stroke-width:2" d="M511,155 l-19,0 0,19 19,0 0,-19z" />
<path style="fill:#ccc;stroke:#000;stroke-width:2" d="M511,213 l-19,0 0,20 19,0 0,-20z" />
<path style="fill:#ccc;stroke:#000;stroke-width:2" d="M511,272 l-19,0 0,19 19,0 0,-19z" />
<path style="fill:#ccc;stroke:#000;stroke-width:2" d="M433,125 l-19,0 0,20 19,0 0,-20z" />
<path style="fill:#ccc;stroke:#000;stroke-width:2" d="M433,184 l-19,0 0,19 19,0 0,-19z" />
<path style="fill:#ccc;stroke:#000;stroke-width:2" d="M433,243 l-19,0 0,19 19,0 0,-19z" />
<path style="fill:#ccc;stroke:#000;stroke-width:2" d="M433,301 l-19,0 0,20 19,0 0,-20z" />
<path style="fill:#ccc;stroke:#000;stroke-width:2" d="M433,155 l-19,0 0,19 19,0 0,-19z" />
<path style="fill:#ccc;stroke:#000;stroke-width:2" d="M433,213 l-19,0 0,20 19,0 0,-20z" />
<path style="fill:#ccc;stroke:#000;stroke-width:2" d="M433,272 l-19,0 0,19 19,0 0,-19z" />
<path style="fill:#ccc;stroke:#000;stroke-width:2" d="M589,125 l-19,0 0,20 19,0 0,-20z" />
<path style="fill:#ccc;stroke:#000;stroke-width:2" d="M589,155 l-19,0 0,19 19,0 0,-19z" />
<path style="fill:#000;stroke:#000;stroke-width:2" d="M580,145 l-5,5 5,5 2,-1 2,-2 0,-2 0,-2 -2,-3 -2,0z" />
<path style="fill:#000;stroke:#000;stroke-width:2" d="M580,115 l-5,5 5,5 2,0 2,-3 0,-2 0,-2 -2,-2 -2,-1z" />
<path style="fill:#000;stroke:#000;stroke-width:2" d="M580,174 l-5,5 5,5 2,0 2,-3 0,-2 0,-2 -2,-2 -2,-1z" />
<path style="fill:#000;stroke:#000;stroke-width:2" d="M502,145 l-6,5 6,5 1,-1 3,-2 0,-2 0,-2 -3,-3 -1,0z" />
<path style="fill:#000;stroke:#000;stroke-width:2" d="M502,115 l-6,5 6,5 1,0 3,-3 0,-2 0,-2 -3,-2 -1,-1z" />
<path style="fill:#000;stroke:#000;stroke-width:2" d="M502,174 l-6,5 6,5 1,0 3,-3 0,-2 0,-2 -3,-2 -1,-1z" />
<path style="fill:#000;stroke:#000;stroke-width:2" d="M502,233 l-6,5 6,4 1,0 3,-3 0,-1 0,-2 -3,-3 -1,0z" />
<path style="fill:#000;stroke:#000;stroke-width:2" d="M502,203 l-6,5 6,5 1,0 3,-3 0,-2 0,-2 -3,-2 -1,-1z" />
<path style="fill:#000;stroke:#000;stroke-width:2" d="M502,262 l-6,5 6,5 1,-1 3,-2 0,-2 0,-2 -3,-3 -1,0z" />
<path style="fill:#000;stroke:#000;stroke-width:2" d="M502,321 l-6,5 6,4 1,0 3,-3 0,-1 0,-2 -3,-3 -1,0z" />
<path style="fill:#000;stroke:#000;stroke-width:2" d="M502,291 l-6,5 6,5 1,0 3,-3 0,-2 0,-2 -3,-2 -1,-1z" />
<path style="fill:#000;stroke:#000;stroke-width:2" d="M423,145 l-5,5 5,5 2,-1 3,-2 0,-2 0,-2 -3,-3 -2,0z" />
<path style="fill:#000;stroke:#000;stroke-width:2" d="M423,115 l-5,5 5,5 2,0 3,-3 0,-2 0,-2 -3,-2 -2,-1z" />
<path style="fill:#000;stroke:#000;stroke-width:2" d="M423,174 l-5,5 5,5 2,0 3,-3 0,-2 0,-2 -3,-2 -2,-1z" />
<path style="fill:#000;stroke:#000;stroke-width:2" d="M423,233 l-5,5 5,4 2,0 3,-3 0,-1 0,-2 -3,-3 -2,0z" />
<path style="fill:#000;stroke:#000;stroke-width:2" d="M423,203 l-5,5 5,5 2,0 3,-3 0,-2 0,-2 -3,-2 -2,-1z" />
<path style="fill:#000;stroke:#000;stroke-width:2" d="M423,262 l-5,5 5,5 2,-1 3,-2 0,-2 0,-2 -3,-3 -2,0z" />
<path style="fill:#000;stroke:#000;stroke-width:2" d="M423,291 l-5,5 5,5 2,0 3,-3 0,-2 0,-2 -3,-2 -2,-1z" />
<path style="fill:#000;stroke:#000;stroke-width:2" d="M423,321 l-5,5 5,4 2,0 3,-3 0,-1 0,-2 -3,-3 -2,0z" />
<path style="fill:none;stroke:#000;stroke-width:2" d="M968,125 l-10,0 0,-39" />
<path style="fill:none;stroke:#000;stroke-width:2" d="M30,125 l10,0 0,-39" />
<path style="fill:none;stroke:#000;stroke-width:2" d="M30,321 l10,0 0,39" />
<path style="fill:none;stroke:#000;stroke-width:2" d="M968,321 l-10,0 0,39" />
<path style="fill:none;stroke:#fff;stroke-width:2" d="M970,106 l-9,0" />
<path style="fill:none;stroke:#fff;stroke-width:2" d="M970,340 l-9,0" />
<path style="fill:none;stroke:#fff;stroke-width:2" d="M37,106 l-9,0" />
<path style="fill:none;stroke:#fff;stroke-width:2" d="M37,340 l-9,0" />

</svg>
