 

<svg xmlns:agg="http://www.example.com" xmlns="http://www.w3.org/2000/svg" preserveAspectRatio="none" width="0.5671in" height="1.0750in" viewBox="0 0 527 999">

<path style="fill:#4c7f7f;stroke:#000;stroke-width:2" d="M28,851 l471,0 0,119 -471,0 0,-119z" />
<path style="fill:#e5e5e5;stroke:#000;stroke-width:2" d="M28,145 l471,0 0,706 -471,0 0,-706z" />
<path style="fill:#f2f2f2;stroke:#000;stroke-width:2" d="M28,28 l471,0 0,117 -471,0 0,-117z" />
<path style="fill:#7fb2b2;stroke:#000;stroke-width:2" d="M28,33 l152,0 0,112 -152,0 0,-112z" />
<path style="fill:#7fb2b2;stroke:#000;stroke-width:2" d="M343,851 l156,0 0,114 -156,0 0,-114z" />
<path style="fill:#7fb2b2;stroke:#000;stroke-width:2" d="M28,851 l156,0 0,114 -156,0 0,-114z" />
<path style="fill:#999" d="M43,47 l19,0 0,84 -19,0 0,-84z" />
<path style="fill:#999" d="M77,47 l19,0 0,83 -19,0 0,-83z" />
<path style="fill:#999" d="M111,47 l20,0 0,83 -20,0 0,-83z" />
<path style="fill:#999" d="M147,47 l18,0 0,83 -18,0 0,-83z" />
<path style="fill:#9cc;stroke:#000;stroke-width:2" d="M180,135 l319,0 0,10 -319,0 0,-10z" />
<path style="fill:#7f7f7f" d="M126,539 l39,-40 0,-236 196,0 40,-39 -275,0 0,315z" />
<path style="fill:#fff" d="M401,224 l-40,39 0,236 -196,0 -39,40 275,0 0,-315z" />
<path style="fill:none;stroke:#000;stroke-width:2" d="M126,224 l275,0 0,315 -275,0 0,-315" />
<path style="fill:#bfbfbf;stroke:#000;stroke-width:2" d="M165,263 l196,0 0,236 -196,0 0,-236z" />
<path style="fill:#000" d="M107,646 l-21,0 12,55 9,-55z" />
<path style="fill:#000" d="M86,627 l21,0 -9,-54 -12,54z" />
<path style="fill:#4c4c4c" d="M96,243 l-6,-2 -4,-8 4,-5 6,-4 7,4 4,5 -4,8 -7,2z" />
<path style="fill:#4c4c4c" d="M96,303 l-6,-4 -4,-5 4,-8 6,-4 7,4 4,8 -4,5 -7,4z" />
<path style="fill:#4c4c4c" d="M431,243 l-7,-2 -2,-8 2,-5 7,-4 6,4 4,5 -4,8 -6,2z" />
<path style="fill:#4c4c4c" d="M431,303 l-7,-4 -2,-5 2,-8 7,-4 6,4 4,8 -4,5 -6,4z" />
<path style="fill:#4c4c4c" d="M147,695 l-16,-6 -5,-13 5,-15 16,-6 13,6 5,15 -5,13 -13,6z" />
<path style="fill:#4c4c4c" d="M145,618 l-14,-6 -5,-15 5,-13 14,-6 15,6 5,13 -5,15 -15,6z" />
<path style="fill:#4c4c4c" d="M284,618 l-15,-6 -6,-15 6,-13 15,-6 13,6 6,13 -6,15 -13,6z" />
<path style="fill:#4c4c4c" d="M284,695 l-15,-6 -6,-13 6,-15 15,-6 13,6 6,15 -6,13 -13,6z" />
<path style="fill:#e5e5e5;stroke:#000;stroke-width:2" d="M147,927 l-12,-6 -4,-9 4,-12 12,-3 9,3 4,12 -4,9 -9,6z" />
<path style="fill:#e5e5e5;stroke:#000;stroke-width:2" d="M107,927 l-11,-6 -4,-9 4,-12 11,-3 9,3 4,12 -4,9 -9,6z" />
<path style="fill:#e5e5e5;stroke:#000;stroke-width:2" d="M67,927 l-11,-6 -4,-9 4,-12 11,-3 10,3 5,12 -5,9 -10,6z" />
<path style="fill:#e5e5e5;stroke:#000;stroke-width:2" d="M459,927 l-9,-6 -4,-9 4,-12 9,-3 12,3 3,12 -3,9 -12,6z" />
<path style="fill:#e5e5e5;stroke:#000;stroke-width:2" d="M422,927 l-12,-6 -3,-9 3,-12 12,-3 9,3 4,12 -4,9 -9,6z" />
<path style="fill:#e5e5e5;stroke:#000;stroke-width:2" d="M382,927 l-11,-6 -4,-9 4,-12 11,-3 10,3 3,12 -3,9 -10,6z" />

</svg>
