 

<svg xmlns:agg="http://www.example.com" xmlns="http://www.w3.org/2000/svg" preserveAspectRatio="none" width="0.9319in" height="1.0750in" viewBox="0 0 866 999">

<path style="fill:#000" d="M28,729 l810,0 0,87 -810,0 0,-87z" />
<path style="fill:#4c4c4c;stroke:#000;stroke-width:2" d="M94,706 l678,0 0,132 -678,0 0,-132z" />
<path style="fill:#7f7f7f" d="M278,970 l0,-88 307,0 0,88 -307,0z" />
<path style="fill:#999" d="M307,970 l0,-88 252,0 0,88 -252,0z" />
<path style="fill:#b2b2b2" d="M333,970 l0,-88 198,0 0,88 -198,0z" />
<path style="fill:#ccc" d="M361,970 l0,-88 143,0 0,88 -143,0z" />
<path style="fill:#e5e5e5" d="M388,970 l0,-88 88,0 0,88 -88,0z" />
<path style="fill:#fff" d="M416,970 l0,-88 34,0 0,88 -34,0z" />
<path style="fill:none;stroke:#000;stroke-width:2" d="M278,970 l0,-88 307,0 0,88 -307,0" />
<path style="fill:#7f7f7f" d="M378,884 l0,-802 110,0 0,802 -110,0z" />
<path style="fill:#999" d="M388,882 l0,-800 90,0 0,800 -90,0z" />
<path style="fill:#b2b2b2" d="M397,882 l0,-800 70,0 0,800 -70,0z" />
<path style="fill:#ccc" d="M407,882 l0,-800 51,0 0,800 -51,0z" />
<path style="fill:#e5e5e5" d="M416,882 l0,-800 32,0 0,800 -32,0z" />
<path style="fill:#fff" d="M427,884 l0,-802 12,0 0,802 -12,0z" />
<path style="fill:none;stroke:#000;stroke-width:2" d="M378,884 l0,-802 110,0 0,802 -110,0" />
<path style="fill:#7f7f7f" d="M203,697 l175,0 21,75 -21,78 -175,0 0,-153z" />
<path style="fill:#999" d="M203,710 l179,0 19,62 -19,62 -179,0 0,-124z" />
<path style="fill:#b2b2b2" d="M203,723 l183,0 15,49 -15,49 -183,0 0,-98z" />
<path style="fill:#ccc" d="M203,737 l186,0 12,35 -12,36 -186,0 0,-71z" />
<path style="fill:#e5e5e5" d="M203,750 l190,0 8,22 -8,23 -190,0 0,-45z" />
<path style="fill:#fff" d="M203,765 l194,0 2,7 -2,10 -194,0 0,-17z" />
<path style="fill:none;stroke:#000;stroke-width:2" d="M378,850 l-175,0 0,-153 175,0" />
<path style="fill:#7f7f7f" d="M663,850 l-175,0 -21,-78 21,-77 175,0 0,155z" />
<path style="fill:#999" d="M663,836 l-179,0 -19,-64 19,-62 179,0 0,126z" />
<path style="fill:#b2b2b2" d="M663,821 l-183,0 -15,-49 15,-49 183,0 0,98z" />
<path style="fill:#ccc" d="M663,808 l-187,0 -11,-36 11,-35 187,0 0,71z" />
<path style="fill:#e5e5e5" d="M663,795 l-191,0 -7,-23 7,-20 191,0 0,43z" />
<path style="fill:#fff" d="M663,782 l-194,0 -2,-10 2,-7 194,0 0,17z" />
<path style="fill:none;stroke:#000;stroke-width:2" d="M488,695 l175,0 0,155 -175,0" />
<path style="fill:#b2b2b2;stroke:#000;stroke-width:2" d="M539,699 l-70,19 -72,0 -70,-19 -62,-36 -51,-51 -36,-62 -19,-70 0,-72 19,-69 36,-62 51,-51 62,-36 70,-19 72,0 70,19 62,36 51,51 35,62 19,69 0,72 -19,70 -35,62 -51,51 -62,36z" />
<path style="fill:#f2f2f2;stroke:#7f7f7f;stroke-width:2" d="M521,657 l-58,17 -60,0 -59,-17 -52,-30 -44,-41 -30,-53 -15,-58 0,-61 15,-58 30,-53 44,-43 52,-31 59,-15 60,0 58,15 53,31 42,43 30,53 17,58 0,61 -17,58 -30,53 -42,41 -53,30z" />
<path style="fill:none;stroke:#000;stroke-width:2" d="M518,529 l62,62" />
<path style="fill:none;stroke:#000;stroke-width:2" d="M553,444 l87,0" />
<path style="fill:none;stroke:#000;stroke-width:2" d="M518,360 l62,-63" />
<path style="fill:none;stroke:#000;stroke-width:2" d="M433,324 l0,-89" />
<path style="fill:none;stroke:#000;stroke-width:2" d="M348,360 l-62,-63" />
<path style="fill:none;stroke:#000;stroke-width:2" d="M312,444 l-88,0" />
<path style="fill:none;stroke:#000;stroke-width:2" d="M348,529 l-62,62" />
<path style="fill:none;stroke:#999;stroke-width:2" d="M567,540 l34,27" />
<path style="fill:none;stroke:#999;stroke-width:2" d="M580,520 l38,19" />
<path style="fill:none;stroke:#999;stroke-width:2" d="M589,495 l42,14" />
<path style="fill:none;stroke:#999;stroke-width:2" d="M595,469 l43,8" />
<path style="fill:none;stroke:#999;stroke-width:2" d="M595,418 l43,-8" />
<path style="fill:none;stroke:#999;stroke-width:2" d="M589,394 l42,-14" />
<path style="fill:none;stroke:#999;stroke-width:2" d="M580,369 l38,-19" />
<path style="fill:none;stroke:#999;stroke-width:2" d="M567,348 l34,-26" />
<path style="fill:none;stroke:#999;stroke-width:2" d="M529,311 l26,-36" />
<path style="fill:none;stroke:#999;stroke-width:2" d="M506,297 l21,-39" />
<path style="fill:none;stroke:#999;stroke-width:2" d="M484,288 l13,-44" />
<path style="fill:none;stroke:#999;stroke-width:2" d="M458,282 l7,-45" />
<path style="fill:none;stroke:#999;stroke-width:2" d="M407,282 l-8,-43" />
<path style="fill:none;stroke:#999;stroke-width:2" d="M382,288 l-15,-42" />
<path style="fill:none;stroke:#999;stroke-width:2" d="M357,297 l-20,-39" />
<path style="fill:none;stroke:#999;stroke-width:2" d="M337,311 l-29,-36" />
<path style="fill:none;stroke:#999;stroke-width:2" d="M299,348 l-36,-26" />
<path style="fill:none;stroke:#999;stroke-width:2" d="M286,369 l-40,-19" />
<path style="fill:none;stroke:#999;stroke-width:2" d="M276,394 l-43,-14" />
<path style="fill:none;stroke:#999;stroke-width:2" d="M271,418 l-45,-6" />
<path style="fill:none;stroke:#999;stroke-width:2" d="M271,469 l-43,9" />
<path style="fill:none;stroke:#999;stroke-width:2" d="M276,495 l-41,14" />
<path style="fill:none;stroke:#999;stroke-width:2" d="M286,520 l-40,19" />
<path style="fill:none;stroke:#999;stroke-width:2" d="M299,540 l-36,27" />
<path style="fill:#ccc" d="M203,28 l460,0 0,54 -460,0 0,-54z" />
<path style="fill:none;stroke:#fff;stroke-width:2" d="M535,689 l-68,17 -68,0 -68,-17 -60,-35 -49,-48 -34,-60 -19,-68 2,-70 17,-65 34,-61 49,-49 60,-34 66,-17 70,0 68,17 60,34 47,49 36,61 17,67 0,68 -17,68 -36,60 -49,48 -58,35" />
<path style="fill:#e5e5e5" d="M312,82 l-75,0 0,-54 75,0 0,54z" />
<path style="fill:#d4d4d4" d="M307,82 l-70,0 0,-54 70,0 0,54z" />
<path style="fill:#c4c4c4" d="M301,82 l-64,0 0,-54 64,0 0,54z" />
<path style="fill:#b2b2b2" d="M293,82 l-56,0 0,-54 56,0 0,54z" />
<path style="fill:#a1a1a1" d="M288,82 l-51,0 0,-54 51,0 0,54z" />
<path style="fill:#919191" d="M274,82 l-37,0 0,-54 37,0 0,54z" />
<path style="fill:#7f7f7f" d="M258,82 l-21,0 0,-54 21,0 0,54z" />
<path style="fill:#e5e5e5" d="M422,82 l-76,0 0,-54 76,0 0,54z" />
<path style="fill:#d4d4d4" d="M416,82 l-70,0 0,-54 70,0 0,54z" />
<path style="fill:#c4c4c4" d="M410,82 l-64,0 0,-54 64,0 0,54z" />
<path style="fill:#b2b2b2" d="M403,82 l-57,0 0,-54 57,0 0,54z" />
<path style="fill:#a1a1a1" d="M397,82 l-51,0 0,-54 51,0 0,54z" />
<path style="fill:#919191" d="M384,82 l-38,0 0,-54 38,0 0,54z" />
<path style="fill:#7f7f7f" d="M367,82 l-21,0 0,-54 21,0 0,54z" />
<path style="fill:#e5e5e5" d="M533,82 l-77,0 0,-54 77,0 0,54z" />
<path style="fill:#d4d4d4" d="M525,82 l-69,0 0,-54 69,0 0,54z" />
<path style="fill:#c4c4c4" d="M520,82 l-64,0 0,-54 64,0 0,54z" />
<path style="fill:#b2b2b2" d="M512,82 l-56,0 0,-54 56,0 0,54z" />
<path style="fill:#a1a1a1" d="M506,82 l-50,0 0,-54 50,0 0,54z" />
<path style="fill:#919191" d="M493,82 l-37,0 0,-54 37,0 0,54z" />
<path style="fill:#7f7f7f" d="M476,82 l-20,0 0,-54 20,0 0,54z" />
<path style="fill:#e5e5e5" d="M642,82 l-77,0 0,-54 77,0 0,54z" />
<path style="fill:#d4d4d4" d="M635,82 l-70,0 0,-54 70,0 0,54z" />
<path style="fill:#c4c4c4" d="M629,82 l-64,0 0,-54 64,0 0,54z" />
<path style="fill:#b2b2b2" d="M622,82 l-57,0 0,-54 57,0 0,54z" />
<path style="fill:#a1a1a1" d="M616,82 l-51,0 0,-54 51,0 0,54z" />
<path style="fill:#919191" d="M603,82 l-38,0 0,-54 38,0 0,54z" />
<path style="fill:#7f7f7f" d="M585,82 l-20,0 0,-54 20,0 0,54z" />
<path style="fill:none;stroke:#000;stroke-width:2" d="M203,28 l460,0 0,54 -460,0 0,-54" />
<path style="fill:none;stroke:#000;stroke-width:2" d="M237,28 l0,54" />
<path style="fill:none;stroke:#000;stroke-width:2" d="M346,28 l0,54" />
<path style="fill:none;stroke:#000;stroke-width:2" d="M456,28 l0,54" />
<path style="fill:none;stroke:#000;stroke-width:2" d="M565,28 l0,54" />
<path style="fill:none;stroke:#000;stroke-width:2" d="M314,28 l0,54" />
<path style="fill:none;stroke:#000;stroke-width:2" d="M424,28 l0,54" />
<path style="fill:none;stroke:#000;stroke-width:2" d="M533,28 l0,54" />
<path style="fill:none;stroke:#000;stroke-width:2" d="M642,28 l0,54" />
<circle style="fill:#f00" cx="433" cy="444" r="23" />

</svg>
