 

<svg xmlns:agg="http://www.example.com" xmlns="http://www.w3.org/2000/svg" preserveAspectRatio="none" width="1.6083in" height="0.9579in" viewBox="0 0 999 595">

<path style="fill:#dbb770" d="M970,95 l-808,0 0,471 808,0 0,-471z" />
<path style="fill:#ebd7ae" d="M364,95 l-101,0 0,471 101,0 0,-471z" />
<path style="fill:#ebd7ae" d="M449,95 l-51,0 0,471 51,0 0,-471z" />
<path style="fill:#ebd7ae" d="M533,95 l-51,0 0,471 51,0 0,-471z" />
<path style="fill:#ebd7ae" d="M617,95 l-51,0 0,471 51,0 0,-471z" />
<path style="fill:#ebd7ae" d="M701,95 l-51,0 0,471 51,0 0,-471z" />
<path style="fill:#ebd7ae" d="M785,95 l-51,0 0,471 51,0 0,-471z" />
<path style="fill:#ebd7ae" d="M869,95 l-50,0 0,471 50,0 0,-471z" />
<path style="fill:#f5ebd6" d="M970,95 l-101,0 0,118 101,0 0,-118z" />
<path style="fill:#007f00" d="M953,448 l-25,0 0,85 25,0 0,-85z" />
<path style="fill:#007f00" d="M911,448 l-25,0 0,85 25,0 0,-85z" />
<path style="fill:#007f00" d="M953,352 l-25,0 0,84 25,0 0,-84z" />
<path style="fill:#007f00" d="M911,352 l-25,0 0,84 25,0 0,-84z" />
<path style="fill:#900" d="M948,166 l5,-12 -5,-12 -12,-5 -12,5 -4,12 4,12 12,4 12,-4z" />
<path style="fill:#900" d="M911,175 l-16,0 0,17 16,0 0,-17z" />
<path style="fill:#900" d="M911,145 l-16,0 0,17 16,0 0,-17z" />
<path style="fill:#900" d="M911,116 l-16,0 0,17 16,0 0,-17z" />
<path style="fill:#900" d="M848,533 l-8,0 0,8 8,0 0,-8z" />
<path style="fill:#900" d="M806,533 l-8,0 0,8 8,0 0,-8z" />
<path style="fill:#900" d="M764,533 l-8,0 0,8 8,0 0,-8z" />
<path style="fill:#900" d="M722,533 l-8,0 0,8 8,0 0,-8z" />
<path style="fill:#900" d="M680,533 l-8,0 0,8 8,0 0,-8z" />
<path style="fill:#900" d="M637,533 l-8,0 0,8 8,0 0,-8z" />
<path style="fill:#900" d="M596,533 l-8,0 0,8 8,0 0,-8z" />
<path style="fill:#900" d="M553,533 l-8,0 0,8 8,0 0,-8z" />
<path style="fill:#900" d="M511,533 l-8,0 0,8 8,0 0,-8z" />
<path style="fill:#900" d="M469,533 l-8,0 0,8 8,0 0,-8z" />
<path style="fill:#900" d="M427,533 l-8,0 0,8 8,0 0,-8z" />
<path style="fill:#900" d="M385,533 l-8,0 0,8 8,0 0,-8z" />
<path style="fill:#900" d="M848,499 l-8,0 0,8 8,0 0,-8z" />
<path style="fill:#900" d="M806,499 l-8,0 0,8 8,0 0,-8z" />
<path style="fill:#900" d="M764,499 l-8,0 0,8 8,0 0,-8z" />
<path style="fill:#900" d="M722,499 l-8,0 0,8 8,0 0,-8z" />
<path style="fill:#900" d="M680,499 l-8,0 0,8 8,0 0,-8z" />
<path style="fill:#900" d="M637,499 l-8,0 0,8 8,0 0,-8z" />
<path style="fill:#900" d="M596,499 l-8,0 0,8 8,0 0,-8z" />
<path style="fill:#900" d="M553,499 l-8,0 0,8 8,0 0,-8z" />
<path style="fill:#900" d="M511,499 l-8,0 0,8 8,0 0,-8z" />
<path style="fill:#900" d="M469,499 l-8,0 0,8 8,0 0,-8z" />
<path style="fill:#900" d="M427,499 l-8,0 0,8 8,0 0,-8z" />
<path style="fill:#900" d="M385,499 l-8,0 0,8 8,0 0,-8z" />
<path style="fill:#900" d="M848,466 l-8,0 0,8 8,0 0,-8z" />
<path style="fill:#900" d="M806,466 l-8,0 0,8 8,0 0,-8z" />
<path style="fill:#900" d="M764,466 l-8,0 0,8 8,0 0,-8z" />
<path style="fill:#900" d="M722,466 l-8,0 0,8 8,0 0,-8z" />
<path style="fill:#900" d="M680,466 l-8,0 0,8 8,0 0,-8z" />
<path style="fill:#900" d="M637,466 l-8,0 0,8 8,0 0,-8z" />
<path style="fill:#900" d="M596,466 l-8,0 0,8 8,0 0,-8z" />
<path style="fill:#900" d="M553,466 l-8,0 0,8 8,0 0,-8z" />
<path style="fill:#900" d="M511,466 l-8,0 0,8 8,0 0,-8z" />
<path style="fill:#900" d="M469,466 l-8,0 0,8 8,0 0,-8z" />
<path style="fill:#900" d="M427,466 l-8,0 0,8 8,0 0,-8z" />
<path style="fill:#900" d="M385,466 l-8,0 0,8 8,0 0,-8z" />
<path style="fill:#900" d="M848,432 l-8,0 0,8 8,0 0,-8z" />
<path style="fill:#900" d="M806,432 l-8,0 0,8 8,0 0,-8z" />
<path style="fill:#900" d="M764,432 l-8,0 0,8 8,0 0,-8z" />
<path style="fill:#900" d="M722,432 l-8,0 0,8 8,0 0,-8z" />
<path style="fill:#900" d="M680,432 l-8,0 0,8 8,0 0,-8z" />
<path style="fill:#900" d="M637,432 l-8,0 0,8 8,0 0,-8z" />
<path style="fill:#900" d="M596,432 l-8,0 0,8 8,0 0,-8z" />
<path style="fill:#900" d="M553,432 l-8,0 0,8 8,0 0,-8z" />
<path style="fill:#900" d="M511,432 l-8,0 0,8 8,0 0,-8z" />
<path style="fill:#900" d="M469,432 l-8,0 0,8 8,0 0,-8z" />
<path style="fill:#900" d="M427,432 l-8,0 0,8 8,0 0,-8z" />
<path style="fill:#900" d="M385,432 l-8,0 0,8 8,0 0,-8z" />
<path style="fill:#900" d="M848,398 l-8,0 0,8 8,0 0,-8z" />
<path style="fill:#900" d="M806,398 l-8,0 0,8 8,0 0,-8z" />
<path style="fill:#900" d="M764,398 l-8,0 0,8 8,0 0,-8z" />
<path style="fill:#900" d="M722,398 l-8,0 0,8 8,0 0,-8z" />
<path style="fill:#900" d="M680,398 l-8,0 0,8 8,0 0,-8z" />
<path style="fill:#900" d="M637,398 l-8,0 0,8 8,0 0,-8z" />
<path style="fill:#900" d="M596,398 l-8,0 0,8 8,0 0,-8z" />
<path style="fill:#900" d="M553,398 l-8,0 0,8 8,0 0,-8z" />
<path style="fill:#900" d="M511,398 l-8,0 0,8 8,0 0,-8z" />
<path style="fill:#900" d="M469,398 l-8,0 0,8 8,0 0,-8z" />
<path style="fill:#900" d="M427,398 l-8,0 0,8 8,0 0,-8z" />
<path style="fill:#900" d="M385,398 l-8,0 0,8 8,0 0,-8z" />
<path style="fill:#900" d="M848,365 l-8,0 0,8 8,0 0,-8z" />
<path style="fill:#900" d="M806,365 l-8,0 0,8 8,0 0,-8z" />
<path style="fill:#900" d="M764,365 l-8,0 0,8 8,0 0,-8z" />
<path style="fill:#900" d="M722,365 l-8,0 0,8 8,0 0,-8z" />
<path style="fill:#900" d="M680,365 l-8,0 0,8 8,0 0,-8z" />
<path style="fill:#900" d="M637,365 l-8,0 0,8 8,0 0,-8z" />
<path style="fill:#900" d="M596,365 l-8,0 0,8 8,0 0,-8z" />
<path style="fill:#900" d="M553,365 l-8,0 0,8 8,0 0,-8z" />
<path style="fill:#900" d="M511,365 l-8,0 0,8 8,0 0,-8z" />
<path style="fill:#900" d="M469,365 l-8,0 0,8 8,0 0,-8z" />
<path style="fill:#900" d="M427,365 l-8,0 0,8 8,0 0,-8z" />
<path style="fill:#900" d="M385,365 l-8,0 0,8 8,0 0,-8z" />
<path style="fill:#900" d="M848,331 l-8,0 0,8 8,0 0,-8z" />
<path style="fill:#900" d="M806,331 l-8,0 0,8 8,0 0,-8z" />
<path style="fill:#900" d="M764,331 l-8,0 0,8 8,0 0,-8z" />
<path style="fill:#900" d="M722,331 l-8,0 0,8 8,0 0,-8z" />
<path style="fill:#900" d="M680,331 l-8,0 0,8 8,0 0,-8z" />
<path style="fill:#900" d="M637,331 l-8,0 0,8 8,0 0,-8z" />
<path style="fill:#900" d="M596,331 l-8,0 0,8 8,0 0,-8z" />
<path style="fill:#900" d="M553,331 l-8,0 0,8 8,0 0,-8z" />
<path style="fill:#900" d="M511,331 l-8,0 0,8 8,0 0,-8z" />
<path style="fill:#900" d="M469,331 l-8,0 0,8 8,0 0,-8z" />
<path style="fill:#900" d="M427,331 l-8,0 0,8 8,0 0,-8z" />
<path style="fill:#900" d="M385,331 l-8,0 0,8 8,0 0,-8z" />
<path style="fill:#900" d="M848,297 l-8,0 0,8 8,0 0,-8z" />
<path style="fill:#900" d="M806,297 l-8,0 0,8 8,0 0,-8z" />
<path style="fill:#900" d="M764,297 l-8,0 0,8 8,0 0,-8z" />
<path style="fill:#900" d="M722,297 l-8,0 0,8 8,0 0,-8z" />
<path style="fill:#900" d="M680,297 l-8,0 0,8 8,0 0,-8z" />
<path style="fill:#900" d="M637,297 l-8,0 0,8 8,0 0,-8z" />
<path style="fill:#900" d="M596,297 l-8,0 0,8 8,0 0,-8z" />
<path style="fill:#900" d="M553,297 l-8,0 0,8 8,0 0,-8z" />
<path style="fill:#900" d="M511,297 l-8,0 0,8 8,0 0,-8z" />
<path style="fill:#900" d="M469,297 l-8,0 0,8 8,0 0,-8z" />
<path style="fill:#900" d="M427,297 l-8,0 0,8 8,0 0,-8z" />
<path style="fill:#900" d="M385,297 l-8,0 0,8 8,0 0,-8z" />
<path style="fill:#900" d="M848,264 l-8,0 0,8 8,0 0,-8z" />
<path style="fill:#900" d="M806,264 l-8,0 0,8 8,0 0,-8z" />
<path style="fill:#900" d="M764,264 l-8,0 0,8 8,0 0,-8z" />
<path style="fill:#900" d="M722,264 l-8,0 0,8 8,0 0,-8z" />
<path style="fill:#900" d="M680,264 l-8,0 0,8 8,0 0,-8z" />
<path style="fill:#900" d="M637,264 l-8,0 0,8 8,0 0,-8z" />
<path style="fill:#900" d="M596,264 l-8,0 0,8 8,0 0,-8z" />
<path style="fill:#900" d="M553,264 l-8,0 0,8 8,0 0,-8z" />
<path style="fill:#900" d="M511,264 l-8,0 0,8 8,0 0,-8z" />
<path style="fill:#900" d="M469,264 l-8,0 0,8 8,0 0,-8z" />
<path style="fill:#900" d="M427,264 l-8,0 0,8 8,0 0,-8z" />
<path style="fill:#900" d="M385,264 l-8,0 0,8 8,0 0,-8z" />
<path style="fill:#900" d="M848,230 l-8,0 0,8 8,0 0,-8z" />
<path style="fill:#900" d="M806,230 l-8,0 0,8 8,0 0,-8z" />
<path style="fill:#900" d="M764,230 l-8,0 0,8 8,0 0,-8z" />
<path style="fill:#900" d="M722,230 l-8,0 0,8 8,0 0,-8z" />
<path style="fill:#900" d="M680,230 l-8,0 0,8 8,0 0,-8z" />
<path style="fill:#900" d="M637,230 l-8,0 0,8 8,0 0,-8z" />
<path style="fill:#900" d="M596,230 l-8,0 0,8 8,0 0,-8z" />
<path style="fill:#900" d="M553,230 l-8,0 0,8 8,0 0,-8z" />
<path style="fill:#900" d="M511,230 l-8,0 0,8 8,0 0,-8z" />
<path style="fill:#900" d="M469,230 l-8,0 0,8 8,0 0,-8z" />
<path style="fill:#900" d="M427,230 l-8,0 0,8 8,0 0,-8z" />
<path style="fill:#900" d="M385,230 l-8,0 0,8 8,0 0,-8z" />
<path style="fill:#f2e5cc;stroke:#000;stroke-width:2" d="M970,95 l-134,-67 -808,0 134,67 808,0z" />
<path style="fill:#d1a347;stroke:#000;stroke-width:2" d="M162,566 l-134,-67 0,-471 134,67 0,471z" />
<path style="fill:none;stroke:#000;stroke-width:2" d="M970,95 l-808,0 0,471 808,0 0,-471" />

</svg>
