 

<svg xmlns:agg="http://www.example.com" xmlns="http://www.w3.org/2000/svg" preserveAspectRatio="none" width="1.5239in" height="1.0750in" viewBox="0 0 998 704">

<path style="fill:#7f7f7f;stroke:#000;stroke-width:2" d="M125,93 l-59,0 0,-65 59,0 0,65z" />
<path style="fill:#7f7f7f;stroke:#000;stroke-width:2" d="M911,93 l-59,0 0,-65 59,0 0,65z" />
<path style="fill:#e0e0e0;stroke:#000;stroke-width:2" d="M970,115 l-904,0 0,561 904,0 0,-561z" />
<path style="fill:#b2b2b2;stroke:#000;stroke-width:2" d="M28,79 l38,36 0,561 -38,-39 0,-558z" />
<path style="fill:#b2b2b2;stroke:#000;stroke-width:2" d="M970,115 l-904,0 -38,-36 903,0 39,36z" />
<path style="fill:#fff;stroke:#000;stroke-width:2" d="M883,38 l-11,4 -6,10 6,12 11,4 10,-4 6,-12 -6,-10 -10,-4z" />
<path style="fill:#fff;stroke:#000;stroke-width:2" d="M97,38 l-10,4 -6,10 6,12 10,4 12,-4 4,-12 -4,-10 -12,-4z" />
<path style="fill:#f0f0f0;stroke:#000;stroke-width:2" d="M919,614 l-14,15 -2,18 14,15 19,2 14,-15 2,-18 -14,-14 -19,-3z" />
<path style="fill:#f0f0f0;stroke:#000;stroke-width:2" d="M817,614 l-14,15 0,18 12,15 20,2 15,-15 0,-18 -13,-14 -20,-3z" />
<path style="fill:#f0f0f0;stroke:#000;stroke-width:2" d="M717,614 l-16,15 0,18 12,15 20,2 15,-15 1,-18 -14,-14 -18,-3z" />
<path style="fill:#f0f0f0;stroke:#000;stroke-width:2" d="M614,614 l-14,15 -2,18 15,15 18,2 14,-15 2,-18 -12,-14 -21,-3z" />
<path style="fill:#f0f0f0;stroke:#000;stroke-width:2" d="M512,614 l-14,15 0,18 12,15 21,2 14,-15 0,-18 -12,-14 -21,-3z" />
<path style="fill:#f0f0f0;stroke:#000;stroke-width:2" d="M412,614 l-16,15 0,18 12,15 20,2 15,-15 2,-18 -14,-14 -19,-3z" />
<path style="fill:#f0f0f0;stroke:#000;stroke-width:2" d="M310,614 l-15,15 -2,18 15,15 18,2 17,-15 0,-18 -13,-14 -20,-3z" />
<path style="fill:#f0f0f0;stroke:#000;stroke-width:2" d="M207,614 l-14,15 0,18 12,15 21,2 14,-15 0,-18 -12,-14 -21,-3z" />
<path style="fill:#f0f0f0;stroke:#000;stroke-width:2" d="M107,614 l-16,15 0,18 14,15 19,2 14,-15 2,-18 -15,-14 -18,-3z" />
<path style="fill:#ccc;stroke:#000;stroke-width:2" d="M111,617 l-8,4 16,41 6,-4 -14,-41z" />
<path style="fill:#ccc;stroke:#000;stroke-width:2" d="M213,617 l-8,4 15,41 8,-4 -15,-41z" />
<path style="fill:#ccc;stroke:#000;stroke-width:2" d="M314,617 l-6,4 14,41 8,-4 -16,-41z" />
<path style="fill:#ccc;stroke:#000;stroke-width:2" d="M416,617 l-8,4 16,41 7,-4 -15,-41z" />
<path style="fill:#ccc;stroke:#000;stroke-width:2" d="M518,617 l-8,4 15,41 8,-4 -15,-41z" />
<path style="fill:#ccc;stroke:#000;stroke-width:2" d="M619,617 l-6,4 14,41 8,-4 -16,-41z" />
<path style="fill:#ccc;stroke:#000;stroke-width:2" d="M721,617 l-8,4 14,41 8,-4 -14,-41z" />
<path style="fill:#ccc;stroke:#000;stroke-width:2" d="M823,617 l-8,4 14,41 8,-4 -14,-41z" />
<path style="fill:#ccc;stroke:#000;stroke-width:2" d="M923,617 l-6,4 14,41 7,-4 -15,-41z" />
<path style="fill:#000;stroke:#000;stroke-width:2" d="M528,255 l-47,10 -36,24 -27,39 -10,47 10,47 35,48 170,-170 -47,-35 -48,-10z" />
<circle style="fill:#7f7f7f;stroke:#000;stroke-width:2" cx="539" cy="385" r="121" />
<path style="fill:#fff;stroke:#000;stroke-width:2" d="M541,283 l-13,6 -3,11 3,12 13,4 10,-4 6,-12 -6,-11 -10,-6z" />
<path style="fill:none;stroke:#000;stroke-width:2" d="M535,183 l0,57" />
<path style="fill:none;stroke:#000;stroke-width:2" d="M594,191 l-14,58" />
<path style="fill:none;stroke:#000;stroke-width:2" d="M649,218 l-33,49" />
<path style="fill:none;stroke:#000;stroke-width:2" d="M694,259 l-45,38" />
<path style="fill:none;stroke:#000;stroke-width:2" d="M725,312 l-55,23" />
<path style="fill:none;stroke:#000;stroke-width:2" d="M739,373 l-59,4" />
<path style="fill:none;stroke:#000;stroke-width:2" d="M735,432 l-59,-12" />
<path style="fill:none;stroke:#000;stroke-width:2" d="M713,490 l-51,-29" />
<path style="fill:none;stroke:#000;stroke-width:2" d="M357,492 l51,-31" />
<path style="fill:none;stroke:#000;stroke-width:2" d="M332,435 l58,-13" />
<path style="fill:none;stroke:#000;stroke-width:2" d="M328,373 l59,4" />
<path style="fill:none;stroke:#000;stroke-width:2" d="M343,314 l55,21" />
<path style="fill:none;stroke:#000;stroke-width:2" d="M373,261 l45,36" />
<path style="fill:none;stroke:#000;stroke-width:2" d="M416,218 l35,49" />
<path style="fill:none;stroke:#000;stroke-width:2" d="M471,191 l19,55" />

</svg>
