 

<svg xmlns:agg="http://www.example.com" xmlns="http://www.w3.org/2000/svg" preserveAspectRatio="none" width="1.5564in" height="1.0750in" viewBox="0 0 999 690">

<path style="fill:#333;stroke:#000;stroke-width:2" d="M120,662 l0,-568 -92,-66 0,570 92,64z" />
<path style="fill:#666;stroke:#000;stroke-width:2" d="M946,92 l-94,-64 -824,0 92,66 826,-2z" />
<path style="fill:#333;stroke:#000;stroke-width:2" d="M946,92 l-830,0 0,570 830,0 0,-570z" />
<path style="fill:#4c4c4c;stroke:#000;stroke-width:2" d="M968,532 l-829,0 -23,53 830,0 22,-53z" />
<path style="fill:#999;stroke:#000;stroke-width:2" d="M946,169 l-830,0 23,52 829,0 -22,-52z" />
<path style="fill:#666;stroke:#000;stroke-width:2" d="M970,221 l-829,0 0,311 829,0 0,-311z" />
<path style="fill:#ccc;stroke:#000;stroke-width:2" d="M763,272 l-15,0 -14,0 -15,0 -371,0 -23,17 -1,5 -1,5 0,3 0,153 16,24 4,1 5,1 15,0 400,0 24,-17 2,-4 1,-5 0,-4 0,-152 -17,-25 -10,-2z" />
<path style="fill:#666;stroke:#000;stroke-width:2" d="M297,248 l-156,0 0,258 156,0 0,-258z" />
<path style="fill:#666;stroke:#000;stroke-width:2" d="M970,248 l-156,0 0,258 156,0 0,-258z" />
<path style="fill:#191919;stroke:#000;stroke-width:2" d="M970,280 l-122,0 0,194 122,0 0,-194z" />
<path style="fill:#999;stroke:#000;stroke-width:2" d="M906,299 l-20,0 0,156 20,0 0,-156z" />
<path style="fill:#999;stroke:#000;stroke-width:2" d="M867,299 l-8,0 0,156 8,0 0,-156z" />
<path style="fill:#e5e5e5" d="M107,543 l0,-340 -40,-32 0,340 40,32z" />
<path style="fill:#000;stroke:#000;stroke-width:2" d="M842,56 l42,26 7,0 -41,-26 -8,0z" />
<path style="fill:#000;stroke:#000;stroke-width:2" d="M810,56 l42,26 7,0 -41,-26 -8,0z" />
<path style="fill:#000;stroke:#000;stroke-width:2" d="M780,56 l42,26 4,0 -38,-26 -8,0z" />
<path style="fill:#000;stroke:#000;stroke-width:2" d="M748,56 l42,26 5,0 -41,-26 -6,0z" />
<path style="fill:#000;stroke:#000;stroke-width:2" d="M652,56 l42,26 7,0 -41,-26 -8,0z" />
<path style="fill:#000;stroke:#000;stroke-width:2" d="M620,56 l42,26 5,0 -41,-26 -6,0z" />
<path style="fill:#000;stroke:#000;stroke-width:2" d="M586,56 l42,26 7,0 -41,-26 -8,0z" />
<path style="fill:#000;stroke:#000;stroke-width:2" d="M556,56 l40,26 7,0 -39,-26 -8,0z" />
<path style="fill:#000;stroke:#000;stroke-width:2" d="M524,56 l42,26 7,0 -41,-26 -8,0z" />
<path style="fill:#000;stroke:#000;stroke-width:2" d="M492,56 l42,26 5,0 -41,-26 -6,0z" />
<path style="fill:#000;stroke:#000;stroke-width:2" d="M459,56 l41,26 7,0 -41,-26 -7,0z" />
<path style="fill:#000;stroke:#000;stroke-width:2" d="M428,56 l42,26 5,0 -41,-26 -6,0z" />
<path style="fill:#000;stroke:#000;stroke-width:2" d="M396,56 l42,26 7,0 -41,-26 -8,0z" />
<path style="fill:#000;stroke:#000;stroke-width:2" d="M365,56 l41,26 6,0 -42,-26 -5,0z" />
<path style="fill:#000;stroke:#000;stroke-width:2" d="M331,56 l41,26 7,0 -41,-26 -7,0z" />
<path style="fill:#000;stroke:#000;stroke-width:2" d="M301,56 l41,26 6,0 -40,-26 -7,0z" />
<path style="fill:#000;stroke:#000;stroke-width:2" d="M221,56 l40,26 7,0 -41,-26 -6,0z" />
<path style="fill:#000;stroke:#000;stroke-width:2" d="M189,56 l42,26 4,0 -38,-26 -8,0z" />
<path style="fill:#000;stroke:#000;stroke-width:2" d="M158,56 l39,26 6,0 -40,-26 -5,0z" />
<path style="fill:#000;stroke:#000;stroke-width:2" d="M124,56 l41,26 7,0 -41,-26 -7,0z" />
<path style="fill:#000;stroke:#000;stroke-width:2" d="M809,33 l30,19 3,0 -28,-19 -5,0z" />
<path style="fill:#000;stroke:#000;stroke-width:2" d="M777,33 l30,19 3,0 -28,-19 -5,0z" />
<path style="fill:#000;stroke:#000;stroke-width:2" d="M746,33 l29,19 5,0 -30,-19 -4,0z" />
<path style="fill:#000;stroke:#000;stroke-width:2" d="M713,33 l32,19 3,0 -32,-19 -3,0z" />
<path style="fill:#000;stroke:#000;stroke-width:2" d="M619,33 l28,19 5,0 -30,-19 -3,0z" />
<path style="fill:#000;stroke:#000;stroke-width:2" d="M585,33 l32,19 3,0 -30,-19 -5,0z" />
<path style="fill:#000;stroke:#000;stroke-width:2" d="M553,33 l30,19 3,0 -28,-19 -5,0z" />
<path style="fill:#000;stroke:#000;stroke-width:2" d="M523,33 l28,19 5,0 -30,-19 -3,0z" />
<path style="fill:#000;stroke:#000;stroke-width:2" d="M491,33 l28,19 5,0 -28,-19 -5,0z" />
<path style="fill:#000;stroke:#000;stroke-width:2" d="M457,33 l32,19 3,0 -30,-19 -5,0z" />
<path style="fill:#000;stroke:#000;stroke-width:2" d="M425,33 l30,19 4,0 -29,-19 -5,0z" />
<path style="fill:#000;stroke:#000;stroke-width:2" d="M395,33 l28,19 5,0 -30,-19 -3,0z" />
<path style="fill:#000;stroke:#000;stroke-width:2" d="M363,33 l28,19 5,0 -28,-19 -5,0z" />
<path style="fill:#000;stroke:#000;stroke-width:2" d="M329,33 l32,19 4,0 -31,-19 -5,0z" />
<path style="fill:#000;stroke:#000;stroke-width:2" d="M297,33 l30,19 4,0 -29,-19 -5,0z" />
<path style="fill:#000;stroke:#000;stroke-width:2" d="M267,33 l28,19 6,0 -31,-19 -3,0z" />
<path style="fill:#000;stroke:#000;stroke-width:2" d="M188,33 l28,19 5,0 -30,-19 -3,0z" />
<path style="fill:#000;stroke:#000;stroke-width:2" d="M154,33 l30,19 5,0 -30,-19 -5,0z" />
<path style="fill:#000;stroke:#000;stroke-width:2" d="M122,33 l32,19 4,0 -31,-19 -5,0z" />
<path style="fill:#000;stroke:#000;stroke-width:2" d="M90,33 l30,19 4,0 -29,-19 -5,0z" />
<path style="fill:#000;stroke:#000;stroke-width:2" d="M107,622 l-68,-43 0,-60 68,47 0,56z" />

</svg>
