 

<svg xmlns:agg="http://www.example.com" xmlns="http://www.w3.org/2000/svg" preserveAspectRatio="none" width="0.5251in" height="1.0750in" viewBox="0 0 488 999">

<path style="fill:#f9c;stroke:#000;stroke-width:2" d="M459,76 l-392,0 0,894 392,0 0,-894z" />
<path style="fill:#e5e5e5;stroke:#000;stroke-width:2" d="M441,76 l-355,0 0,894 355,0 0,-894z" />
<path style="fill:#e57fb2;stroke:#000;stroke-width:2" d="M401,28 l-7,25 25,-8 -7,-16 -1,-1 48,0 0,48 -392,0 0,-48 49,0 -5,4 7,26 15,-22 -3,-4 -5,-4 276,0z" />
<path style="fill:#4c4c4c;stroke:#000;stroke-width:2" d="M67,76 l-39,0 0,894 39,0 0,-894z" />
<path style="fill:#4c4c4c;stroke:#000;stroke-width:2" d="M362,265 l-39,0 0,510 39,0 0,-510z" />
<circle style="fill:#ccc;stroke:#000;stroke-width:2" cx="234" cy="111" r="9" />
<circle style="fill:#000;stroke:#000;stroke-width:2" cx="234" cy="111" r="5" />
<circle style="fill:#ccc;stroke:#000;stroke-width:2" cx="234" cy="199" r="9" />
<circle style="fill:#000;stroke:#000;stroke-width:2" cx="234" cy="199" r="5" />
<path style="fill:#000;stroke:#000;stroke-width:2" d="M218,186 l30,-5 0,-51 -30,-5 0,61z" />
<path style="fill:#fff;stroke:#000;stroke-width:2" d="M239,130 l-10,0 0,51 10,0 0,-51z" />
<circle style="fill:#ccc;stroke:#000;stroke-width:2" cx="179" cy="111" r="10" />
<circle style="fill:#000;stroke:#000;stroke-width:2" cx="179" cy="111" r="5" />
<circle style="fill:#ccc;stroke:#000;stroke-width:2" cx="179" cy="199" r="10" />
<circle style="fill:#000;stroke:#000;stroke-width:2" cx="179" cy="199" r="5" />
<path style="fill:#000;stroke:#000;stroke-width:2" d="M165,186 l30,-5 0,-51 -30,-5 0,61z" />
<path style="fill:#fff;stroke:#000;stroke-width:2" d="M183,130 l-9,0 0,51 9,0 0,-51z" />
<path style="fill:#fff" d="M346,327 l-9,0 0,383 9,0 0,-383z" />
<circle style="fill:#ccc;stroke:#000;stroke-width:2" cx="356" cy="917" r="10" />
<circle style="fill:#000;stroke:#000;stroke-width:2" cx="357" cy="917" r="4" />
<circle style="fill:#ccc;stroke:#000;stroke-width:2" cx="356" cy="828" r="10" />
<circle style="fill:#000;stroke:#000;stroke-width:2" cx="357" cy="828" r="4" />
<path style="fill:#000;stroke:#000;stroke-width:2" d="M371,842 l-30,5 0,49 30,7 0,-61z" />
<path style="fill:#fff;stroke:#000;stroke-width:2" d="M353,896 l9,0 0,-49 -9,0 0,49z" />
<path style="fill:#f9c" d="M301,278 l-62,0 0,5 62,0 0,-5z" />
<path style="fill:#f9c" d="M301,309 l-62,0 0,7 62,0 0,-7z" />
<path style="fill:#f9c" d="M301,341 l-62,0 0,5 62,0 0,-5z" />
<path style="fill:#f9c" d="M301,373 l-62,0 0,5 62,0 0,-5z" />
<path style="fill:#f9c" d="M301,404 l-62,0 0,5 62,0 0,-5z" />
<path style="fill:#f9c" d="M301,436 l-116,0 0,5 116,0 0,-5z" />
<path style="fill:#f9c" d="M301,467 l-116,0 0,4 116,0 0,-4z" />
<path style="fill:#f9c" d="M301,499 l-116,0 0,5 116,0 0,-5z" />
<path style="fill:#f9c" d="M301,529 l-116,0 0,5 116,0 0,-5z" />
<path style="fill:#f9c" d="M301,562 l-116,0 0,4 116,0 0,-4z" />
<path style="fill:#f9c" d="M301,592 l-162,0 0,7 162,0 0,-7z" />
<path style="fill:#f9c" d="M301,625 l-162,0 0,4 162,0 0,-4z" />
<path style="fill:#f9c" d="M301,655 l-58,0 0,6 58,0 0,-6z" />
<path style="fill:#f9c" d="M301,687 l-23,0 0,5 23,0 0,-5z" />
<path style="fill:#f9c" d="M301,720 l-127,0 0,4 127,0 0,-4z" />
<path style="fill:#f9c" d="M415,107 l-65,0 0,4 65,0 0,-4z" />
<path style="fill:#f9c" d="M415,137 l-65,0 0,7 65,0 0,-7z" />
<path style="fill:#f9c" d="M415,170 l-65,0 0,4 65,0 0,-4z" />
<path style="fill:#f9c" d="M415,200 l-65,0 0,6 65,0 0,-6z" />
<path style="fill:#333" d="M341,107 l-18,0 0,4 18,0 0,-4z" />
<path style="fill:#333" d="M341,137 l-18,0 0,7 18,0 0,-7z" />
<path style="fill:#333" d="M341,170 l-18,0 0,4 18,0 0,-4z" />
<path style="fill:#333" d="M341,200 l-18,0 0,6 18,0 0,-6z" />
<path style="fill:#f9c" d="M248,225 l-30,0 0,5 30,0 0,-5z" />
<path style="fill:#f9c" d="M195,225 l-30,0 0,5 30,0 0,-5z" />
<path style="fill:#f9c" d="M323,842 l-31,0 0,5 31,0 0,-5z" />
<path style="fill:#f9c" d="M323,864 l-31,0 0,4 31,0 0,-4z" />

</svg>
