 

<svg xmlns:agg="http://www.example.com" xmlns="http://www.w3.org/2000/svg" preserveAspectRatio="none" width="0.3835in" height="1.0750in" viewBox="0 0 188 527">

<path style="fill:#7f7f7f;stroke:#000;stroke-width:2" d="M80,275 l9,0 0,-122 -9,0 0,122z" />
<path style="fill:#999;stroke:#000;stroke-width:2" d="M61,86 l3,68 41,0 3,-68 -47,0z" />
<path style="fill:none;stroke:#000;stroke-width:2" d="M63,113 l44,-2" />
<path style="fill:none;stroke:#000;stroke-width:2" d="M63,115 l44,-1" />
<path style="fill:none;stroke:#000;stroke-width:2" d="M63,118 l44,-1" />
<path style="fill:none;stroke:#000;stroke-width:2" d="M63,121 l44,-1" />
<path style="fill:none;stroke:#000;stroke-width:2" d="M63,124 l44,-1" />
<path style="fill:none;stroke:#000;stroke-width:2" d="M63,127 l44,-1" />
<path style="fill:none;stroke:#000;stroke-width:2" d="M63,130 l44,-1" />
<path style="fill:none;stroke:#000;stroke-width:2" d="M63,133 l44,-1" />
<path style="fill:none;stroke:#000;stroke-width:2" d="M63,136 l44,-1" />
<path style="fill:none;stroke:#000;stroke-width:2" d="M63,139 l44,-2" />
<path style="fill:none;stroke:#000;stroke-width:2" d="M63,142 l44,-2" />
<path style="fill:none;stroke:#000;stroke-width:2" d="M63,145 l44,-2" />
<path style="fill:none;stroke:#000;stroke-width:2" d="M63,148 l44,-2" />
<path style="fill:none;stroke:#000;stroke-width:2" d="M63,151 l44,-2" />
<path style="fill:none;stroke:#000;stroke-width:2" d="M63,154 l44,-2" />
<path style="fill:#b2b2b2;stroke:#000;stroke-width:2" d="M102,92 l12,0 0,-4 -12,0 0,4z" />
<path style="fill:#b2b2b2;stroke:#000;stroke-width:2" d="M118,91 l12,0 0,-5 -12,0 0,5z" />
<path style="fill:#7f7f7f;stroke:#000;stroke-width:2" d="M26,16 l0,9 0,61 5,1 13,1 81,0 13,-1 5,-1 0,-70 -5,-1 -13,-1 -81,0 -13,1 -5,1z" />
<path style="fill:#b2b2b2;stroke:#000;stroke-width:2" d="M26,19 l0,8 0,57 5,1 107,0 5,-1 0,-65 -5,-1 -13,-1 -81,0 -13,1 -5,1z" />
<path style="fill:#e5e5e5" d="M35,19 l3,0 0,66 -3,0 0,-66z" />
<path style="fill:#e5e5e5" d="M41,19 l9,0 0,66 -9,0 0,-66z" />
<path style="fill:#e5e5e5" d="M111,19 l16,0 0,66 -16,0 0,-66z" />
<path style="fill:#999" d="M28,60 l110,0 0,4 -110,0 0,-4z" />
<path style="fill:#e5e5e5;stroke:#000;stroke-width:2" d="M14,42 l141,0 0,18 -141,0 0,-18z" />
<path style="fill:#000;stroke:#000;stroke-width:2" d="M14,50 l141,0 0,2 -141,0 0,-2z" />
<path style="fill:#ccc;stroke:#000;stroke-width:2" d="M140,42 l12,0 0,-4 -12,0 0,4z" />
<path style="fill:#ccc;stroke:#000;stroke-width:2" d="M77,42 l12,0 0,-4 -12,0 0,4z" />
<path style="fill:#ccc;stroke:#000;stroke-width:2" d="M101,42 l12,0 0,-4 -12,0 0,4z" />
<path style="fill:#ccc;stroke:#000;stroke-width:2" d="M54,42 l12,0 0,-4 -12,0 0,4z" />
<path style="fill:#ccc;stroke:#000;stroke-width:2" d="M137,60 l0,6 0,5 0,6 0,6 2,2 5,1 6,0 5,0 0,-7 0,-6 0,-6 0,-7 -4,0 -5,0 -4,0 -5,0z" />
<path style="fill:#b2b2b2;stroke:#000;stroke-width:2" d="M95,165 l1,35 -23,0 2,-35 1,-4 2,-3 3,-2 4,-1 4,1 3,2 2,3 1,4z" />
<path style="fill:#b2b2b2;stroke:#000;stroke-width:2" d="M79,269 l-3,-4 0,-37 3,-4 12,0 3,4 0,37 -3,4 -12,0z" />
<path style="fill:#b2b2b2;stroke:#000;stroke-width:2" d="M79,273 l1,15 1,16 1,16 2,15 2,16 3,16 4,15 4,15 5,16 7,15 7,15 8,14 10,15 11,14 12,14 14,13 3,-20 0,-23 -2,-17 -1,-3 -11,-9 -13,-12 -13,-16 -12,-20 -6,-12 -5,-12 -5,-14 -5,-14 -4,-15 -3,-17 -2,-17 -1,-19 -12,0z" />
<path style="fill:#e5e5e5" d="M86,158 l0,40 5,0 -3,-40 -2,0z" />
<path style="fill:#e5e5e5" d="M86,227 l3,0 0,39 -3,0 0,-39z" />
<path style="fill:none;stroke:#000;stroke-width:2" d="M82,224 l7,-7" />
<path style="fill:none;stroke:#000;stroke-width:2" d="M80,221 l9,-9" />
<path style="fill:none;stroke:#000;stroke-width:2" d="M80,217 l9,-9" />
<path style="fill:none;stroke:#000;stroke-width:2" d="M80,208 l8,-8" />
<path style="fill:none;stroke:#000;stroke-width:2" d="M80,212 l9,-9" />

</svg>
