 

<svg xmlns:agg="http://www.example.com" xmlns="http://www.w3.org/2000/svg" preserveAspectRatio="none" width="1.2372in" height="1.0750in" viewBox="0 0 999 868">

<path style="fill:#c1c1c1;stroke:#000;stroke-width:2" d="M970,68 l0,-4 0,-3 0,-3 -9,-25 -29,-5 -9,0 -6,0 -6,0 -830,0 -30,1 -22,16 -1,15 0,3 0,4 0,591 2,28 23,13 3,1 3,0 3,0 862,0 28,-3 17,-21 1,-32 0,-576z" />
<path style="fill:#828282;stroke:#000;stroke-width:2" d="M735,700 l-472,0 0,44 472,0 0,-44z" />
<path style="fill:#006;stroke:#000;stroke-width:2" d="M899,156 l0,-5 0,-4 0,-4 -4,-28 -25,-10 -12,-1 -5,0 -5,0 -702,0 -28,3 -18,19 -1,22 0,395 -1,16 0,3 0,2 22,18 31,1 692,0 19,0 4,0 4,0 25,-8 4,-29 0,-390z" />
<path style="fill:#c1c1c1;stroke:#000;stroke-width:2" d="M970,840 l-942,0 0,-33 235,-63 472,0 235,63 0,33z" />
<path style="fill:#828282;stroke:#000;stroke-width:2" d="M109,623 l0,48 226,0 0,-48 -226,0z" />
<path style="fill:none;stroke:#000;stroke-width:2" d="M970,807 l-942,0" />

</svg>
