 

<svg xmlns:agg="http://www.example.com" xmlns="http://www.w3.org/2000/svg" preserveAspectRatio="none" width="1.0588in" height="1.0750in" viewBox="0 0 983 998">

<path style="fill:#7f7f7f;stroke:#000;stroke-width:2" d="M812,180 l7,-1 13,3 7,4 7,5 6,7 5,8 4,8 3,10 2,9 0,9 -1,8 -2,8 -8,11 -13,5 -13,-3 -7,-3 -6,-6 -6,-7 -5,-7 -5,-9 -3,-10 -1,-9 0,-9 1,-9 5,-13 5,-6 5,-3z" />
<ellipse style="fill:#7f7f7f;stroke:#000;stroke-width:2" cx="847" cy="280" rx="8" ry="49" />
<ellipse style="fill:#7f7f7f;stroke:#000;stroke-width:2" cx="848" cy="346" rx="33" ry="49" />
<ellipse style="fill:#7f7f7f;stroke:#000;stroke-width:2" cx="847" cy="403" rx="8" ry="49" />
<ellipse style="fill:#7f7f7f;stroke:#000;stroke-width:2" cx="848" cy="469" rx="33" ry="49" />
<ellipse style="fill:#7f7f7f;stroke:#000;stroke-width:2" cx="847" cy="527" rx="8" ry="49" />
<ellipse style="fill:#7f7f7f;stroke:#000;stroke-width:2" cx="848" cy="592" rx="33" ry="49" />
<ellipse style="fill:#7f7f7f;stroke:#000;stroke-width:2" cx="847" cy="650" rx="8" ry="49" />
<ellipse style="fill:#7f7f7f;stroke:#000;stroke-width:2" cx="848" cy="716" rx="33" ry="49" />
<ellipse style="fill:#7f7f7f;stroke:#000;stroke-width:2" cx="847" cy="773" rx="8" ry="49" />
<path style="fill:#7f7f7f;stroke:#000;stroke-width:2" d="M860,797 l10,9 3,6 3,8 0,9 0,9 -3,9 -3,9 -5,9 -6,7 -6,7 -7,5 -14,5 -13,-2 -10,-9 -4,-14 -1,-7 1,-9 1,-10 4,-9 5,-9 5,-8 7,-6 6,-5 7,-4 7,-1 13,1z" />
<path style="fill:#7f7f7f;stroke:#000;stroke-width:2" d="M634,736 l7,0 13,4 6,5 6,7 5,7 4,8 2,10 2,10 0,9 -1,9 -2,8 -4,7 -9,10 -13,3 -13,-5 -6,-4 -6,-7 -4,-7 -5,-9 -2,-10 -2,-10 0,-9 1,-9 2,-8 8,-12 5,-5 6,-2z" />
<path style="fill:#7f7f7f;stroke:#000;stroke-width:2" d="M644,800 l2,1 5,7 5,12 2,8 3,9 3,10 2,10 1,9 1,8 1,7 -1,11 0,3 -2,2 -1,-1 -5,-7 -5,-12 -3,-8 -2,-9 -3,-10 -2,-10 -1,-9 -1,-8 -1,-14 1,-7 1,-2z" />
<path style="fill:#7f7f7f;stroke:#000;stroke-width:2" d="M645,861 l10,-8 15,-3 8,1 9,2 9,4 8,4 8,7 6,7 6,7 3,8 2,8 1,6 -4,14 -10,8 -15,2 -8,0 -9,-3 -9,-4 -8,-5 -8,-6 -6,-7 -6,-8 -3,-7 -3,-15 4,-12z" />
<path style="fill:#7f7f7f;stroke:#000;stroke-width:2" d="M692,893 l2,0 8,1 12,6 7,4 8,5 8,6 8,6 8,6 6,5 10,10 4,6 0,2 -2,1 -7,-2 -12,-6 -8,-4 -8,-5 -8,-5 -8,-6 -7,-6 -7,-5 -10,-10 -3,-3 -1,-4 0,-2z" />
<ellipse style="fill:#7f7f7f;stroke:#000;stroke-width:2" cx="774" cy="938" rx="49" ry="33" />
<path style="fill:#7f7f7f;stroke:#000;stroke-width:2" d="M826,858 l1,1 -2,14 -1,7 -3,9 -3,8 -4,10 -4,8 -4,9 -5,7 -7,11 -5,6 -2,1 -1,-2 -1,-3 2,-11 2,-8 2,-7 4,-9 3,-9 4,-9 5,-9 4,-7 4,-7 6,-8 3,-2 2,0z" />
<path style="fill:#e5e5e5;stroke:#000;stroke-width:2" d="M454,528 l-29,-1 -32,-6 -8,-4 -5,-6 0,-353 107,-49 24,27 24,27 24,26 24,27 24,27 24,27 24,26 25,27 24,26 23,27 25,27 24,26 24,27 24,26 24,27 12,13 12,14 -9,0 -32,-4 -31,-3 -31,-1 -315,0z" />
<path style="fill:#ccc;stroke:#000;stroke-width:2" d="M790,733 l0,-206 -30,-2 -31,-2 -33,-2 -32,-1 -11,0 -11,0 -11,0 -31,0 -31,0 -30,1 -29,2 -29,2 -10,1 -9,1 0,206 28,3 29,1 30,2 31,1 10,0 10,0 10,0 32,0 33,-1 32,-1 32,-1 31,-2 10,-1 10,-1z" />
<path style="fill:#e5e5e5" d="M528,527 l197,0 0,207 -197,0 0,-207z" />
<path style="fill:#4c4c4c;stroke:#000;stroke-width:2" d="M380,220 l-33,0 0,230 33,0 0,-230z" />
<path style="fill:#4c4c4c;stroke:#000;stroke-width:2" d="M273,314 l-139,0 0,49 139,0 0,-49z" />
<path style="fill:none;stroke:#000;stroke-width:2" d="M372,437 l0,-206" />
<path style="fill:#7f7f7f" d="M864,535 l6,-5 -394,-419 -11,11 394,418 5,-5z" />
<path style="fill:#e5e5e5;stroke:#000;stroke-width:2" d="M134,371 l-49,0 0,-66 49,0 0,66z" />
<path style="fill:#e5e5e5;stroke:#000;stroke-width:2" d="M232,379 l-82,0 0,-90 82,0 0,90z" />
<path style="fill:#e5e5e5;stroke:#000;stroke-width:2" d="M347,470 l-74,0 0,-270 74,0 0,270z" />
<path style="fill:#e5e5e5;stroke:#000;stroke-width:2" d="M955,483 l-25,27 -21,18 -11,8 -9,8 -4,0 -9,-4 -4,-2 -25,-27 -25,-27 -25,-27 -26,-27 -25,-27 -25,-27 -26,-27 -25,-27 -25,-27 -25,-27 -26,-27 -25,-27 -25,-27 -25,-27 -25,-27 -25,-27 -6,-11 -1,-3 0,-4 19,-18 19,-20 23,-21 6,-2 10,7 30,18 29,17 22,15 24,16 27,20 32,26 19,15 42,-29 100,109 -15,20 -15,20 26,37 21,31 17,27 13,24 17,31 15,30 6,11 6,11z" />
<path style="fill:#7f7f7f;stroke:#000;stroke-width:2" d="M85,353 l-58,0 0,-31 58,0 0,31z" />
<path style="fill:#ccc" d="M539,39 l177,127 112,120 116,184 -405,-431z" />
<path style="fill:#b2b2b2;stroke:#000;stroke-width:2" d="M232,371 l-8,-34 1,-6 7,-34 0,74z" />
<path style="fill:#b2b2b2;stroke:#000;stroke-width:2" d="M150,371 l8,-34 0,-6 -8,-34 0,74z" />
<path style="fill:#b2b2b2;stroke:#000;stroke-width:2" d="M85,365 l4,-24 0,-5 -4,-24 0,53z" />
<path style="fill:#b2b2b2;stroke:#000;stroke-width:2" d="M134,365 l-5,-24 1,-5 4,-24 0,53z" />
<path style="fill:none;stroke:#000;stroke-width:2" d="M158,338 l66,0" />
<path style="fill:none;stroke:#000;stroke-width:2" d="M90,342 l39,0" />
<path style="fill:#b2b2b2;stroke:#000;stroke-width:2" d="M273,355 l74,0 0,114 -74,0 0,-114z" />

</svg>
