 

<svg xmlns:agg="http://www.example.com" xmlns="http://www.w3.org/2000/svg" preserveAspectRatio="none" width="1.1686in" height="1.0750in" viewBox="0 0 999 919">

<path style="fill:#4c4c4c;stroke:#000;stroke-width:2" d="M971,27 l-944,0 0,709 944,0 0,-709z" />
<path style="fill:#4c4c4c;stroke:#000;stroke-width:2" d="M27,183 l156,0 0,553 -156,0 0,-553z" />
<path style="fill:#4c4c4c;stroke:#000;stroke-width:2" d="M971,891 l-944,0 0,-155 944,0 0,155z" />
<path style="fill:#4c4c4c;stroke:#000;stroke-width:2" d="M812,183 l159,0 0,553 -159,0 0,-553z" />
<path style="fill:#191919;stroke:#000;stroke-width:2" d="M961,758 l-924,0 0,51 924,0 0,-51z" />
<path style="fill:#ccc;stroke:#000;stroke-width:2" d="M755,675 l26,-12 11,-19 1,-7 0,-10 0,-260 -12,-29 -19,-11 -7,-1 -17,0 -495,0 -26,12 -11,21 -1,8 0,10 0,260 12,26 19,11 7,1 16,0 496,0z" />
<path style="fill:#333;stroke:#000;stroke-width:2" d="M736,488 l-216,0 -9,-1 -10,-7 -4,-11 4,-10 10,-8 9,-1 216,0 10,3 7,9 2,7 -2,8 -7,8 -10,3z" />
<path style="fill:#333;stroke:#000;stroke-width:2" d="M736,434 l-280,0 -22,-15 0,-4 22,-19 280,0 19,19 -19,19z" />
<ellipse style="fill:#333;stroke:#000;stroke-width:2" cx="278" cy="415" rx="35" ry="19" />
<ellipse style="fill:#333;stroke:#000;stroke-width:2" cx="278" cy="370" rx="35" ry="19" />
<ellipse style="fill:#333;stroke:#000;stroke-width:2" cx="278" cy="494" rx="35" ry="19" />
<circle style="fill:#ccc" cx="689" cy="426" r="4" />
<circle style="fill:#ccc" cx="651" cy="426" r="4" />
<circle style="fill:#ccc" cx="613" cy="426" r="4" />
<circle style="fill:#ccc" cx="572" cy="426" r="5" />
<circle style="fill:#ccc" cx="534" cy="426" r="5" />
<circle style="fill:#ccc" cx="492" cy="426" r="4" />
<circle style="fill:#ccc" cx="454" cy="426" r="4" />
<circle style="fill:#ccc" cx="689" cy="480" r="4" />
<circle style="fill:#ccc" cx="651" cy="480" r="4" />
<circle style="fill:#ccc" cx="613" cy="480" r="4" />
<circle style="fill:#ccc" cx="572" cy="480" r="5" />
<circle style="fill:#ccc" cx="534" cy="480" r="5" />
<ellipse style="fill:#ccc" cx="292" cy="494" rx="11" ry="9" />
<circle style="fill:#ccc" cx="294" cy="370" r="10" />
<ellipse style="fill:#ccc" cx="292" cy="414" rx="11" ry="9" />
<path style="fill:#0000bf;stroke:#000;stroke-width:2" d="M964,126 l-930,0 0,57 930,0 0,-57z" />
<path style="fill:#bf0000;stroke:#000;stroke-width:2" d="M971,316 l-128,0 0,369 128,0 0,-369z" />
<path style="fill:#ccc;stroke:#000;stroke-width:2" d="M843,326 l118,0 0,349 -118,0 0,-349z" />
<path style="fill:#7f7f7f;stroke:#000;stroke-width:2" d="M856,666 l61,0 0,-57 -61,0 0,57z" />
<path style="fill:#7f7f7f;stroke:#000;stroke-width:2" d="M856,599 l61,0 0,-57 -61,0 0,57z" />
<path style="fill:#7f7f7f;stroke:#000;stroke-width:2" d="M856,532 l61,0 0,-57 -61,0 0,57z" />
<path style="fill:#7f7f7f;stroke:#000;stroke-width:2" d="M856,465 l61,0 0,-57 -61,0 0,57z" />
<path style="fill:#7f7f7f;stroke:#000;stroke-width:2" d="M856,399 l61,0 0,-57 -61,0 0,57z" />
<path style="fill:#333;stroke:#000;stroke-width:2" d="M936,624 l-9,4 -4,9 4,9 9,4 9,-3 6,-7 1,-3 -5,-9 -8,-3 -3,-1z" />
<path style="fill:#333;stroke:#000;stroke-width:2" d="M936,555 l-9,4 -4,8 0,4 4,8 9,4 9,-2 6,-8 1,-2 -3,-10 -7,-5 -6,-1z" />
<path style="fill:#333;stroke:#000;stroke-width:2" d="M936,488 l-9,4 -4,8 0,4 4,8 9,4 9,-2 6,-8 1,-2 -3,-9 -7,-6 -6,-1z" />
<path style="fill:#333;stroke:#000;stroke-width:2" d="M936,421 l-9,4 -4,9 0,3 4,9 9,4 9,-3 6,-7 1,-3 -3,-9 -7,-6 -6,-1z" />
<path style="fill:#333;stroke:#000;stroke-width:2" d="M936,355 l-9,4 -4,8 0,3 4,9 9,4 9,-2 6,-8 1,-3 -3,-9 -7,-5 -6,-1z" />
<path style="fill:#333;stroke:#000;stroke-width:2" d="M901,27 l-58,0 0,80 58,0 0,-80z" />
<path style="fill:#333;stroke:#000;stroke-width:2" d="M834,27 l-60,0 0,80 60,0 0,-80z" />
<path style="fill:#333;stroke:#000;stroke-width:2" d="M764,27 l-60,0 0,80 60,0 0,-80z" />
<path style="fill:#333;stroke:#000;stroke-width:2" d="M694,27 l-57,0 0,80 57,0 0,-80z" />
<path style="fill:#333;stroke:#000;stroke-width:2" d="M628,27 l-61,0 0,80 61,0 0,-80z" />
<path style="fill:#333;stroke:#000;stroke-width:2" d="M558,27 l-61,0 0,80 61,0 0,-80z" />
<path style="fill:#333;stroke:#000;stroke-width:2" d="M488,27 l-57,0 0,80 57,0 0,-80z" />
<path style="fill:#333;stroke:#000;stroke-width:2" d="M421,27 l-60,0 0,80 60,0 0,-80z" />
<path style="fill:#333;stroke:#000;stroke-width:2" d="M351,27 l-60,0 0,80 60,0 0,-80z" />
<path style="fill:#333;stroke:#000;stroke-width:2" d="M281,27 l-57,0 0,80 57,0 0,-80z" />
<path style="fill:#333;stroke:#000;stroke-width:2" d="M215,27 l-60,0 0,80 60,0 0,-80z" />
<path style="fill:#333;stroke:#000;stroke-width:2" d="M145,27 l-57,0 0,80 57,0 0,-80z" />
<ellipse style="fill:#191919" cx="872" cy="76" rx="25" ry="23" />
<circle style="fill:#191919" cx="804" cy="76" r="24" />
<ellipse style="fill:#191919" cx="735" cy="76" rx="25" ry="23" />
<ellipse style="fill:#191919" cx="665" cy="76" rx="25" ry="23" />
<circle style="fill:#191919" cx="597" cy="76" r="23" />
<ellipse style="fill:#191919" cx="529" cy="76" rx="25" ry="23" />
<ellipse style="fill:#191919" cx="459" cy="76" rx="25" ry="23" />
<circle style="fill:#191919" cx="391" cy="76" r="24" />
<ellipse style="fill:#191919" cx="322" cy="76" rx="25" ry="23" />
<ellipse style="fill:#191919" cx="252" cy="76" rx="25" ry="23" />
<circle style="fill:#191919" cx="184" cy="76" r="23" />
<ellipse style="fill:#191919" cx="116" cy="76" rx="25" ry="23" />
<path style="fill:#bf0000;stroke:#000;stroke-width:2" d="M56,748 l-29,0 0,10 29,0 0,-10z" />

</svg>
