 

<svg xmlns:agg="http://www.example.com" xmlns="http://www.w3.org/2000/svg" preserveAspectRatio="none" width="0.3659in" height="1.0750in" viewBox="0 0 340 999">

<path style="fill:#fff;stroke:#000;stroke-width:2" d="M55,27 l0,458 29,228 172,0 29,-229 0,-457 -230,0z" />
<path style="fill:#7f7f7f;stroke:#000;stroke-width:2" d="M228,686 l28,-201 0,-430 -57,0 0,430 -1,201 30,0z" />
<path style="fill:#fff;stroke:#000;stroke-width:2" d="M27,313 l286,0 0,172 -286,0 0,-172z" />
<path style="fill:#fff;stroke:#000;stroke-width:2" d="M27,84 l286,0 0,172 -286,0 0,-172z" />
<path style="fill:#ff0;stroke:#000;stroke-width:2" d="M84,714 l-29,29 29,27 0,144 -28,29 28,28 172,0 29,-28 -29,-29 0,-144 29,-28 -29,-28 -172,0z" />
<path style="fill:none;stroke:#000;stroke-width:2" d="M113,771 l115,0" />
<path style="fill:none;stroke:#000;stroke-width:2" d="M113,915 l115,0" />

</svg>
