 

<svg xmlns:agg="http://www.example.com" xmlns="http://www.w3.org/2000/svg" preserveAspectRatio="none" width="1.1946in" height="1.0750in" viewBox="0 0 999 899">

<path style="fill:#fff;fill-rule:evenodd;stroke:#000;stroke-width:2" d="M911,812 l59,0 0,59 -942,0 0,-59 117,0 0,-29 766,0 0,29z M145,812 l751,0 -751,0z " />
<path style="fill:none;stroke:#000;stroke-width:2" d="M778,487 l-129,0" />
<path style="fill:none;stroke:#000;stroke-width:2" d="M586,775 l192,-288 -64,-96" />
<path style="fill:none;stroke:#000;stroke-width:2" d="M852,783 l-203,-296" />
<path style="fill:none;stroke:#000;stroke-width:2" d="M714,775 l64,-96 -376,0 55,96" />
<path style="fill:none;stroke:#000;stroke-width:2" d="M322,783 l200,-264" />
<path style="fill:#000" d="M647,783 l-119,0 0,-295 119,0 0,295z" />
<path style="fill:#fff;fill-rule:evenodd;stroke:#000;stroke-width:2" d="M920,51 l8,17 6,18 3,20 1,21 -2,22 -4,23 -7,23 -10,25 -12,24 -14,25 -17,26 -19,25 -21,26 -23,25 -25,24 -27,25 -28,23 -29,23 -31,22 -32,21 -33,19 -34,19 -34,17 -34,16 -34,14 -35,13 -34,11 -34,9 -33,8 -32,5 -32,4 -30,2 -29,-1 -28,-1 -25,-4 -24,-6 -22,-7 -20,-10 -18,-11 -16,-13 -13,-15 -11,-15 6,7 9,6 10,5 13,3 16,2 18,0 20,-2 21,-3 24,-5 25,-6 27,-8 28,-9 30,-10 30,-12 32,-13 33,-14 32,-16 33,-16 34,-18 34,-17 33,-20 33,-19 33,-20 32,-21 30,-20 30,-21 28,-21 28,-20 25,-21 24,-21 22,-20 20,-19 18,-19 16,-18 14,-17 11,-16 9,-16 6,-14 4,-12 2,-12 -1,-11 -4,-8z M920,51 l-6,-9 -9,-6 -10,-4 -13,-3 -16,-1 -18,0 -20,1 -21,3 -24,5 -25,6 -27,8 -28,9 -30,10 -30,12 -32,14 -33,14 -32,15 -33,16 -34,17 -34,19 -33,18 -33,20 -33,20 -31,20 -31,21 -30,21 -28,20 -28,22 -25,20 -24,21 -22,20 -20,19 -18,19 -16,18 -14,17 -11,16 -9,16 -6,14 -4,13 -1,12 0,10 4,9 6,7 9,6 10,5 13,3 16,2 18,0 20,-2 21,-3 24,-5 25,-6 27,-8 28,-9 30,-10 30,-12 32,-13 33,-14 32,-16 33,-16 34,-18 34,-17 33,-20 33,-19 33,-20 32,-21 30,-20 30,-21 28,-21 28,-20 25,-21 24,-21 22,-20 20,-19 18,-19 16,-18 14,-17 11,-16 9,-16 6,-14 4,-12 2,-12 -1,-11 -4,-8z " />
<path style="fill:none;stroke:#000;stroke-width:2" d="M322,46 l597,-4" />
<path style="fill:none;stroke:#000;stroke-width:2" d="M322,46 l217,363" />
<path style="fill:none;stroke:#000;stroke-width:2" d="M322,46 l-291,508" />
<path style="fill:#000" d="M638,320 l-3,-3 -7,-2 -8,0 -10,1 -12,2 -14,5 -15,6 -16,6 -17,8 -17,9 -16,10 -16,9 -16,11 -13,10 -13,11 -10,9 -9,10 -6,8 -3,7 -2,7 1,4 4,4 5,2 9,0 11,-1 11,-2 15,-5 14,-6 17,-6 16,-9 17,-8 16,-10 16,-10 15,-10 14,-10 13,-11 10,-10 9,-9 6,-8 4,-7 1,-7 -1,-5z" />

</svg>
