 

<svg xmlns:agg="http://www.example.com" xmlns="http://www.w3.org/2000/svg" preserveAspectRatio="none" width="1.0859in" height="1.0750in" viewBox="0 0 999 989">

<path style="fill:#7f7f7f;stroke:#000;stroke-width:2" d="M28,28 l933,0 0,933 -933,0 0,-933z" />
<path style="fill:#fff;stroke:#000;stroke-width:2" d="M105,300 l778,0 0,583 -778,0 0,-583z" />
<path style="fill:#69f;stroke:#00f;stroke-width:2" d="M970,377 l-68,0 0,204 68,0 0,-204z" />
<path style="fill:#9ff;stroke:#fff;stroke-width:2" d="M110,314 l768,0 0,20 -768,0 0,-20z" />
<path style="fill:#0ff;stroke:#0ff;stroke-width:2" d="M110,300 l768,0 0,14 -768,0 0,-14z" />
<path style="fill:none;stroke:#f00;stroke-width:2" d="M611,888 l-234,-161 234,-155 -233,-156 228,-155" />
<path style="fill:#333;stroke:#000;stroke-width:2" d="M105,105 l778,0 0,195 -778,0 0,-195z" />
<path style="fill:none;stroke:#00f;stroke-width:2" d="M752,810 l-181,-90 -11,-11 0,-23 12,-11 180,-91 11,-11 0,-23 -11,-11 -180,-90 -12,-11 0,-23 12,-11 180,-90 11,-11" />
<path style="fill:#e5e5e5;stroke:#000;stroke-width:2" d="M105,810 l778,0 0,73 -778,0 0,-73z" />
<path style="fill:#00f;stroke:#000;stroke-width:2" d="M164,820 l8,4 1,5 -4,8 -5,2 -8,-4 -2,-6 4,-7 6,-2z" />
<path style="fill:#f00;stroke:#000;stroke-width:2" d="M164,839 l8,4 1,6 -4,8 -5,1 -8,-4 -2,-5 4,-8 6,-2z" />
<path style="fill:#0f0;stroke:#000;stroke-width:2" d="M164,858 l8,5 1,5 -4,8 -5,2 -8,-5 -2,-5 4,-8 6,-2z" />
<path style="fill:none;stroke:#0f0;stroke-width:2" d="M159,805 l0,-78 160,0 -5,-150 -150,0 0,-156 155,5 0,-117" />
<path style="fill:none;stroke:#0ff;stroke-width:2" d="M805,164 l39,0 0,77 -39,0 0,-77" />

</svg>
