 

<svg xmlns:agg="http://www.example.com" xmlns="http://www.w3.org/2000/svg" preserveAspectRatio="none" width="0.8845in" height="1.0750in" viewBox="0 0 822 999">

<path style="fill:#e5e5e5;stroke:#000;stroke-width:2" d="M28,57 l29,-29 648,0 29,29 1,147 59,0 0,89 -59,0 0,73 59,0 0,88 -59,1 0,88 59,0 0,88 -59,0 0,74 59,0 0,89 -59,0 -1,147 -29,29 -648,0 -29,-30 0,-883z" />
<path style="fill:#e5e5e5" d="M42,72 l30,-30 618,0 30,30 0,854 -30,30 -618,0 -30,-30 0,-854z" />
<path style="fill:#000" d="M72,36 l-5,2 -29,29 9,10 30,-30 -5,2 0,-13 -3,0 -2,2z" />
<path style="fill:#000" d="M695,38 l-5,-2 -618,0 0,13 618,0 -4,-2 9,-9 -2,-2 -3,0z" />
<path style="fill:#000" d="M727,72 l-2,-5 -30,-29 -9,9 29,30 -2,-5 14,0 0,-3 -2,-2z" />
<path style="fill:#000" d="M725,931 l2,-5 0,-854 -14,0 0,854 2,-5 10,10 2,-2 0,-3z" />
<path style="fill:#000" d="M690,962 l5,-2 30,-29 -10,-10 -29,30 4,-2 0,13 3,0 2,-2z" />
<path style="fill:#000" d="M67,960 l5,2 618,0 0,-13 -618,0 5,2 -10,9 2,2 3,0z" />
<path style="fill:#000" d="M36,926 l2,5 29,29 10,-9 -30,-30 2,5 -13,0 0,3 2,2z" />
<path style="fill:#000" d="M38,67 l-2,5 0,854 13,0 0,-854 -2,5 -9,-10 -2,2 0,3z" />
<path style="fill:#7f7f7f;stroke:#000;stroke-width:2" d="M749,507 l45,0 0,29 -45,0 0,-29z" />
<path style="fill:#7f7f7f;stroke:#000;stroke-width:2" d="M764,536 l15,0 0,7 -15,0 0,-7z" />
<path style="fill:#7f7f7f;stroke:#000;stroke-width:2" d="M749,668 l45,0 0,29 -45,0 0,-29z" />
<path style="fill:#7f7f7f;stroke:#000;stroke-width:2" d="M764,697 l15,0 0,8 -15,0 0,-8z" />
<path style="fill:#7f7f7f;stroke:#000;stroke-width:2" d="M794,668 l-45,0 0,-29 45,0 0,29z" />
<path style="fill:#7f7f7f;stroke:#000;stroke-width:2" d="M778,639 l-14,0 0,-7 14,0 0,7z" />
<path style="fill:#7f7f7f;stroke:#000;stroke-width:2" d="M794,491 l-45,0 0,-29 45,0 0,29z" />
<path style="fill:#7f7f7f;stroke:#000;stroke-width:2" d="M778,462 l-14,0 0,-7 14,0 0,7z" />
<path style="fill:#7f7f7f;stroke:#000;stroke-width:2" d="M749,330 l45,0 0,29 -45,0 0,-29z" />
<path style="fill:#7f7f7f;stroke:#000;stroke-width:2" d="M764,359 l15,0 0,8 -15,0 0,-8z" />
<path style="fill:#7f7f7f;stroke:#000;stroke-width:2" d="M794,329 l-45,0 0,-29 45,0 0,29z" />
<path style="fill:#7f7f7f;stroke:#000;stroke-width:2" d="M778,300 l-14,0 0,-7 14,0 0,7z" />
<path style="fill:#7f7f7f;stroke:#000;stroke-width:2" d="M749,168 l45,0 0,29 -45,0 0,-29z" />
<path style="fill:#7f7f7f;stroke:#000;stroke-width:2" d="M764,197 l15,0 0,7 -15,0 0,-7z" />
<path style="fill:#7f7f7f;stroke:#000;stroke-width:2" d="M794,830 l-45,0 0,-29 45,0 0,29z" />
<path style="fill:#7f7f7f;stroke:#000;stroke-width:2" d="M778,801 l-14,0 0,-7 14,0 0,7z" />
<path style="fill:#000" d="M204,175 l354,0 0,545 -354,0 0,-545z" />
<path style="fill:#000;stroke:#fff;stroke-width:2" d="M249,676 l265,0 0,-266 -265,0 0,266z" />
<path style="fill:#7f7f7f" d="M263,514 l74,0 0,59 -74,0 0,-59z" />
<path style="fill:#7f7f7f" d="M425,514 l74,0 0,59 -74,0 0,-59z" />
<path style="fill:#7f7f7f" d="M345,514 l73,0 0,59 -73,0 0,-59z" />
<path style="fill:#e5e5e5" d="M323,440 l117,0 0,59 -117,0 0,-59z" />
<path style="fill:#7f7f7f" d="M323,587 l117,0 0,59 -117,0 0,-59z" />
<path style="fill:#fff" d="M308,690 l147,0 0,15 -147,0 0,-15z" />
<circle style="fill:#7f7f7f;stroke:#000;stroke-width:2" cx="175" cy="86" r="14" />
<path style="fill:none;stroke:#000;stroke-width:2" d="M175,101 l0,-29" />
<circle style="fill:#7f7f7f;stroke:#000;stroke-width:2" cx="587" cy="86" r="14" />
<path style="fill:none;stroke:#000;stroke-width:2" d="M580,99 l15,-25" />
<circle style="fill:#7f7f7f;stroke:#000;stroke-width:2" cx="175" cy="909" r="14" />
<path style="fill:none;stroke:#000;stroke-width:2" d="M190,909 l-29,0" />
<circle style="fill:#7f7f7f;stroke:#000;stroke-width:2" cx="587" cy="909" r="14" />
<path style="fill:none;stroke:#000;stroke-width:2" d="M600,917 l-26,-15" />

</svg>
