 

<svg xmlns:agg="http://www.example.com" xmlns="http://www.w3.org/2000/svg" preserveAspectRatio="none" width="0.9050in" height="1.0750in" viewBox="0 0 841 999">

<path style="fill:#000;stroke:#000;stroke-width:2" d="M28,28 l785,0 0,942 -785,0 0,-942z" />
<path style="fill:#e5e5e5;stroke:#000;stroke-width:2" d="M28,28 l785,0 -10,10 -765,922 -10,10 0,-942z" />
<path style="fill:#7f7f7f;stroke:#000;stroke-width:2" d="M37,38 l767,0 0,922 -767,0 0,-922z" />
<path style="fill:#000;stroke:#000;stroke-width:2" d="M126,38 l285,0 0,540 -285,0 0,-540z" />
<circle style="fill:#fff;stroke:#000;stroke-width:2" cx="420" cy="577" r="304" />
<circle style="fill:#000;stroke:#000;stroke-width:2" cx="420" cy="577" r="24" />
<path style="fill:none;stroke:#7f7f7f;stroke-width:2" d="M141,126 l162,0 0,59 -162,0 0,-59" />
<path style="fill:none;stroke:#0ff;stroke-width:2" d="M273,141 l15,0 0,34 -15,0 0,-34" />
<circle style="fill:#000;stroke:#000;stroke-width:2" cx="717" cy="325" r="26" />
<path style="fill:#000;stroke:#000;stroke-width:2" d="M558,558 l10,0 0,-246 -20,-9 10,255z" />
<circle style="fill:none;stroke:#ccc;stroke-width:2" cx="420" cy="577" r="78" />
<path style="fill:#f00" d="M514,580 l1,4 49,-19 -2,-4 -49,19 0,5 0,-5 -6,3 6,2z" />
<path style="fill:#f00" d="M617,609 l0,-4 -103,-25 -1,5 103,24 0,-4 1,4 9,-2 -9,-2z" />
<path style="fill:#f00" d="M534,624 l0,5 83,-20 -1,-4 -83,19 0,4 0,-4 -8,2 8,2z" />
<path style="fill:#f00" d="M617,653 l0,-4 -83,-25 -1,4 83,25 0,-4 1,4 10,-1 -10,-3z" />
<path style="fill:#f00" d="M545,661 l-1,2 73,-10 -1,-4 -73,10 -2,2 2,-2 -2,0 0,2z" />
<path style="fill:#f00" d="M542,707 l3,-2 0,-44 -4,0 0,44 4,-1 -3,3 3,3 0,-5z" />
<path style="fill:#f00" d="M487,651 l-4,2 59,54 3,-3 -59,-55 -4,2 4,-2 -4,-3 0,5z" />
<path style="fill:#f00" d="M492,765 l4,-1 -9,-113 -5,0 10,113 4,-1 -4,2 5,9 -1,-10z" />
<path style="fill:#f00" d="M433,642 l-5,0 64,123 4,-2 -64,-123 -4,1 4,-1 -3,-6 -1,7z" />
<path style="fill:#f00" d="M399,862 l4,0 30,-220 -5,-1 -29,221 4,0 -4,0 2,16 2,-16z" />
<path style="fill:#f00" d="M383,702 l-4,-1 20,161 4,0 -20,-162 -3,-2 3,2 0,-4 -3,2z" />
<path style="fill:#f00" d="M311,753 l3,3 69,-54 -3,-4 -69,55 4,2 -4,-2 -4,9 7,-6z" />
<path style="fill:#f00" d="M367,643 l-3,-3 -53,113 4,2 53,-113 -2,-3 2,3 3,-4 -5,1z" />
<path style="fill:#f00" d="M281,669 l3,4 83,-30 -1,-4 -84,30 3,3 -4,-3 -5,6 8,-2z" />
<path style="fill:#f00" d="M318,634 l-2,-4 -35,39 4,3 34,-39 -2,-4 2,4 4,-4 -6,0z" />
<path style="fill:#f00" d="M203,644 l2,4 113,-14 -1,-5 -113,15 2,4 -3,-4 -9,5 11,-1z" />
<path style="fill:#f00" d="M292,599 l0,-4 -89,49 3,4 88,-49 0,-4 0,4 5,-3 -5,-1z" />
<path style="fill:#f00" d="M238,580 l0,5 54,14 2,-4 -54,-15 0,4 -2,-4 -6,3 6,2z" />
<path style="fill:#f00" d="M286,564 l1,-3 -49,19 2,4 49,-19 1,-4 -1,4 3,-1 -2,-3z" />
<path style="fill:#f00" d="M244,516 l-2,4 44,44 4,-3 -45,-44 -1,4 0,-5 -7,-1 5,5z" />
<path style="fill:#f00" d="M325,535 l3,-4 -84,-15 0,5 83,15 2,-4 -2,4 5,0 -3,-4z" />
<path style="fill:#f00" d="M299,487 l-3,3 29,45 4,-3 -29,-44 -3,3 2,-4 -6,-2 3,5z" />
<path style="fill:#f00" d="M350,504 l2,-2 -53,-15 -2,4 54,15 3,-3 -3,3 4,1 -1,-4z" />
<path style="fill:#f00" d="M337,450 l-2,0 15,54 4,-1 -15,-54 -2,1z" />
<circle style="fill:none;stroke:#ccc;stroke-width:2" cx="421" cy="577" r="157" />
<circle style="fill:none;stroke:#ccc;stroke-width:2" cx="420" cy="577" r="235" />

</svg>
