 

<svg xmlns:agg="http://www.example.com" xmlns="http://www.w3.org/2000/svg" preserveAspectRatio="none" width="0.7379in" height="1.0750in" viewBox="0 0 685 998">

<path style="fill:#7f7f7f" d="M490,970 l0,-196 -294,0 0,196 294,0z" />
<path style="fill:#7f7f7f" d="M490,695 l0,-373 167,0 0,-294 -629,0 0,294 168,0 0,373 294,0z" />
<path style="fill:#969696" d="M460,970 l0,-196 -235,0 0,196 235,0z" />
<path style="fill:#969696" d="M460,695 l0,-403 197,0 0,-235 -629,0 0,235 197,0 0,403 235,0z" />
<path style="fill:#ababab" d="M431,970 l0,-196 -177,0 0,196 177,0z" />
<path style="fill:#ababab" d="M431,695 l0,-432 226,0 0,-177 -629,0 0,177 226,0 0,432 177,0z" />
<path style="fill:#e5e5e5;stroke:#000;stroke-width:2" d="M116,691 l80,0 0,-94 -80,0 0,94z" />
<path style="fill:#7f7f7f" d="M116,603 l-62,0 0,86 62,0 0,-86z" />
<path style="fill:#ababab" d="M116,618 l-4,0 -4,0 -3,0 -47,0 -4,0 0,3 0,50 0,3 4,0 54,0 4,0 0,-3 0,-53z" />
<path style="fill:#d9d9d9" d="M116,633 l-62,0 0,26 62,0 0,-26z" />
<path style="fill:none;stroke:#000;stroke-width:2" d="M116,603 l-62,0 0,86 62,0 0,-86" />
<path style="fill:#c2c2c2" d="M401,695 l0,-461 256,0 0,-118 -629,0 0,118 255,0 0,461 118,0z" />
<path style="fill:#c2c2c2" d="M401,970 l0,-196 -118,0 0,196 118,0z" />
<path style="fill:#d9d9d9" d="M373,695 l0,-490 284,0 0,-61 -629,0 0,61 284,0 0,490 61,0z" />
<path style="fill:#d9d9d9" d="M373,970 l0,-196 -61,0 0,196 61,0z" />
<path style="fill:none;stroke:#000;stroke-width:2" d="M490,695 l0,-373 167,0 0,-294 -629,0 0,294 168,0 0,373 294,0" />
<path style="fill:none;stroke:#000;stroke-width:2" d="M490,970 l0,-196 -294,0 0,196 294,0" />
<path style="fill:none;stroke:#000;stroke-width:2" d="M490,478 l-294,0" />
<path style="fill:#bfbfbf;stroke:#000;stroke-width:2" d="M358,499 l-29,0 0,98 29,0 0,-98z" />
<path style="fill:#a6a6a6;stroke:#000;stroke-width:2" d="M299,499 l-28,0 0,98 28,0 0,-98z" />
<path style="fill:#a6a6a6;stroke:#000;stroke-width:2" d="M414,499 l-28,0 0,98 28,0 0,-98z" />
<path style="fill:#8c8c8c;stroke:#000;stroke-width:2" d="M242,499 l-28,0 0,98 28,0 0,-98z" />
<path style="fill:#8c8c8c;stroke:#000;stroke-width:2" d="M471,499 l-29,0 0,98 29,0 0,-98z" />
<path style="fill:#4c4c4c;stroke:#000;stroke-width:2" d="M501,606 l-385,0 0,80 385,0 0,-80z" />
<ellipse style="fill:#e5e5e5;stroke:#000;stroke-width:2" cx="54" cy="646" rx="6" ry="43" />
<path style="fill:#000;stroke:#000;stroke-width:2" d="M177,597 l0,-28 -21,0 0,-25 -25,0 0,53 46,0z" />
<path style="fill:#a6a6a6;stroke:#000;stroke-width:2" d="M427,131 l-168,0 0,87 168,0 0,-87z" />
<path style="fill:#7f7f7f;stroke:#000;stroke-width:2" d="M456,342 l-227,0 0,119 227,0 0,-119z" />
<path style="fill:#8c8c8c;stroke:#000;stroke-width:2" d="M480,695 l-275,0 0,79 275,0 0,-79z" />
<path style="fill:none;stroke:#000;stroke-width:2" d="M480,763 l-275,0" />
<path style="fill:none;stroke:#000;stroke-width:2" d="M205,750 l275,0" />
<path style="fill:none;stroke:#000;stroke-width:2" d="M480,719 l-275,0" />
<path style="fill:none;stroke:#000;stroke-width:2" d="M480,735 l-275,0" />
<path style="fill:none;stroke:#000;stroke-width:2" d="M480,704 l-275,0" />
<path style="fill:#bfbfbf;stroke:#000;stroke-width:2" d="M358,814 l-29,0 0,156 29,0 0,-156z" />
<path style="fill:#8c8c8c;stroke:#000;stroke-width:2" d="M242,814 l-28,0 0,156 28,0 0,-156z" />
<path style="fill:#8c8c8c;stroke:#000;stroke-width:2" d="M471,814 l-29,0 0,156 29,0 0,-156z" />

</svg>
