 

<svg xmlns:agg="http://www.example.com" xmlns="http://www.w3.org/2000/svg" preserveAspectRatio="none" width="1.0750in" height="1.0750in" viewBox="0 0 998 998">

<path style="fill:#333;stroke:#000;stroke-width:2" d="M970,676 l-7,-27 -20,-21 -26,-10 -5,0 -26,0 -800,0 -26,7 -21,20 -11,26 0,5 0,8 0,228 7,29 20,20 26,9 5,0 26,0 800,0 26,-7 21,-20 11,-26 0,-5 0,-8 0,-228z" />
<path style="fill:#000;stroke:#000;stroke-width:2" d="M248,618 l0,-134 -15,-15 0,-353 8,-15 0,-58 -8,-15 -28,0 -8,15 0,58 8,15 0,353 -15,15 0,134 58,0z" />
<path style="fill:#000;stroke:#000;stroke-width:2" d="M948,691 l-11,-28 -19,-17 -20,-7 -5,0 -24,0 -762,0 -26,7 -20,17 -10,23 -1,5 0,7 0,199 8,26 23,19 21,5 5,1 24,0 762,0 29,-9 21,-23 4,-14 1,-5 0,-7 0,-199z" />
<path style="fill:#fff" d="M948,720 l-898,0 0,53 898,0 0,-53z" />
<circle style="fill:#f00;stroke:#000;stroke-width:2" cx="205" cy="676" r="15" />
<circle style="fill:none;stroke:#7f7f7f;stroke-width:2" cx="203" cy="675" r="21" />

</svg>
