 

<svg xmlns:agg="http://www.example.com" xmlns="http://www.w3.org/2000/svg" preserveAspectRatio="none" width="0.3981in" height="1.0750in" viewBox="0 0 370 999">

<path style="fill:#c1c1c1;stroke:#000;stroke-width:2" d="M342,159 l-314,0 0,811 314,0 0,-811z" />
<path style="fill:#c1c1c1;stroke:#000;stroke-width:2" d="M316,185 l-262,0 0,785 262,0 0,-785z" />
<path style="fill:#828282;stroke:#000;stroke-width:2" d="M316,224 l-262,0 0,92 262,0 0,-92z" />
<path style="fill:#828282;stroke:#000;stroke-width:2" d="M316,316 l-262,0 0,91 262,0 0,-91z" />
<path style="fill:#000;stroke:#000;stroke-width:2" d="M290,263 l-210,0 0,13 210,0 0,-13z" />
<path style="fill:#000;stroke:#000;stroke-width:2" d="M290,342 l-210,0 0,39 210,0 0,-39z" />
<path style="fill:#fff;stroke:#000;stroke-width:2" d="M290,28 l-210,0 -52,131 314,0 -52,-131z" />
<path style="fill:#c1c1c1;stroke:#000;stroke-width:2" d="M119,342 l-65,0 0,39 65,0 0,-39z" />
<path style="fill:#c1c1c1;stroke:#000;stroke-width:2" d="M93,342 l-13,0 0,39 13,0 0,-39z" />
<path style="fill:#c1c1c1;stroke:#000;stroke-width:2" d="M93,237 l53,0 0,13 -53,0 0,-13z" />
<circle style="fill:#c1c1c1;stroke:#000;stroke-width:2" cx="93" cy="250" r="13" />

</svg>
