 

<svg xmlns:agg="http://www.example.com" xmlns="http://www.w3.org/2000/svg" preserveAspectRatio="none" width="1.1673in" height="1.0750in" viewBox="0 0 999 920">

<path style="fill:#e5e5e5" d="M911,28 l-883,0 0,864 883,0 0,-864z" />
<path style="fill:#999" d="M204,67 l-176,0 0,177 176,0 0,-177z" />
<path style="fill:#999" d="M440,67 l-177,0 0,177 177,0 0,-177z" />
<path style="fill:#999" d="M675,67 l-176,0 0,177 176,0 0,-177z" />
<path style="fill:#999" d="M911,67 l-176,0 0,177 176,0 0,-177z" />
<path style="fill:#8ca0bf" d="M911,283 l-176,0 0,609 176,0 0,-609z" />
<path style="fill:#999" d="M643,774 l-72,0 0,118 72,0 0,-118z" />
<path style="fill:#999" d="M499,774 l-72,0 0,118 72,0 0,-118z" />
<path style="fill:#999" d="M355,774 l-72,0 0,118 72,0 0,-118z" />
<path style="fill:#999" d="M210,774 l-72,0 0,118 72,0 0,-118z" />
<path style="fill:#999" d="M210,263 l-72,0 0,177 72,0 0,-177z" />
<path style="fill:#999" d="M355,263 l-72,0 0,177 72,0 0,-177z" />
<path style="fill:#999" d="M499,263 l-72,0 0,177 72,0 0,-177z" />
<path style="fill:#999" d="M643,263 l-72,0 0,177 72,0 0,-177z" />
<path style="fill:#b2b2b2" d="M715,774 l-72,0 0,118 72,0 0,-118z" />
<path style="fill:#b2b2b2" d="M571,774 l-72,0 0,118 72,0 0,-118z" />
<path style="fill:#b2b2b2" d="M427,774 l-73,0 0,118 73,0 0,-118z" />
<path style="fill:#b2b2b2" d="M283,774 l-73,0 0,118 73,0 0,-118z" />
<path style="fill:#b2b2b2" d="M139,774 l-72,0 0,118 72,0 0,-118z" />
<path style="fill:#b2b2b2" d="M139,263 l-72,0 0,177 72,0 0,-177z" />
<path style="fill:#b2b2b2" d="M283,263 l-73,0 0,177 73,0 0,-177z" />
<path style="fill:#b2b2b2" d="M427,263 l-73,0 0,177 73,0 0,-177z" />
<path style="fill:#b2b2b2" d="M715,263 l-72,0 0,177 72,0 0,-177z" />
<path style="fill:#b2b2b2" d="M571,263 l-72,0 0,177 72,0 0,-177z" />
<path style="fill:#ccc" d="M911,106 l59,0 0,786 -59,0 0,-786z" />
<path style="fill:none;stroke:#000;stroke-width:2" d="M911,106 l0,-78 -883,0 0,864 942,0 0,-786 -59,0" />
<path style="fill:#666" d="M103,440 l-36,0 0,334 36,0 0,-334z" />
<path style="fill:#666" d="M175,440 l-37,0 0,334 37,0 0,-334z" />
<path style="fill:#666" d="M247,440 l-37,0 0,334 37,0 0,-334z" />
<path style="fill:#666" d="M319,440 l-36,0 0,334 36,0 0,-334z" />
<path style="fill:#666" d="M391,440 l-37,0 0,334 37,0 0,-334z" />
<path style="fill:#666" d="M463,440 l-36,0 0,334 36,0 0,-334z" />
<path style="fill:#666" d="M535,440 l-36,0 0,334 36,0 0,-334z" />
<path style="fill:#666" d="M607,440 l-36,0 0,334 36,0 0,-334z" />
<path style="fill:#666" d="M679,440 l-36,0 0,334 36,0 0,-334z" />
<path style="fill:#bfd3f2" d="M892,695 l-138,0 0,138 138,0 0,-138z" />
<path style="fill:#bfd3f2" d="M892,420 l-138,0 0,138 138,0 0,-138z" />
<path style="fill:#596d8c" d="M892,303 l-138,0 0,117 138,0 0,-117z" />
<path style="fill:#900" d="M852,303 l-59,0 0,117 59,0 0,-117z" />
<path style="fill:#900" d="M852,489 l-8,-21 -21,-9 -21,9 -9,21 9,21 21,8 21,-8 8,-21z" />

</svg>
