 

<svg xmlns:agg="http://www.example.com" xmlns="http://www.w3.org/2000/svg" preserveAspectRatio="none" width="1.6083in" height="0.8678in" viewBox="0 0 999 539">

<path style="fill:#e5e5e5;stroke:#000;stroke-width:2" d="M740,28 l-483,0 0,482 483,0 0,-482z" />
<circle style="fill:#7f7f7f;stroke:#000;stroke-width:2" cx="499" cy="269" r="150" />
<circle style="fill:#333;stroke:#000;stroke-width:2" cx="499" cy="268" r="105" />
<circle style="fill:#666;stroke:#000;stroke-width:2" cx="499" cy="269" r="90" />
<circle style="fill:#7f7f7f;stroke:#000;stroke-width:2" cx="499" cy="269" r="30" />
<circle style="fill:#b2b2b2;stroke:#000;stroke-width:2" cx="499" cy="268" r="11" />
<circle style="fill:#e5e5e5" cx="710" cy="269" r="15" />
<path style="fill:#000" d="M688,269 l1,-5 1,-4 2,-3 3,-3 3,-3 4,-2 4,-1 4,-1 0,13 -2,1 -1,0 -2,1 -1,1 -2,1 0,2 0,1 -1,2z" />
<path style="fill:#000" d="M710,290 l-4,0 -4,-1 -4,-2 -3,-3 -3,-3 -2,-4 -1,-4 -1,-4 13,0 1,2 0,1 1,2 1,1 1,1 1,1 2,0 2,0z" />
<path style="fill:#000" d="M731,269 l0,4 -1,4 -2,4 -3,3 -3,3 -5,2 -3,1 -4,0 0,-13 2,0 2,0 1,-1 1,-1 1,-1 1,-2 0,-1 1,-2z" />
<path style="fill:#000" d="M710,247 l4,1 4,1 4,2 3,3 2,3 3,3 1,4 0,5 -12,0 -1,-2 0,-1 -1,-2 -1,-1 -1,-1 -2,-1 -1,0 -2,-1z" />
<path style="fill:#000" d="M695,269 l0,-7 30,0 0,13 -30,0 0,-6z" />
<circle style="fill:#e5e5e5" cx="287" cy="269" r="15" />
<path style="fill:#000" d="M266,269 l1,-5 1,-4 2,-3 2,-3 4,-3 4,-2 3,-1 5,-1 0,13 -2,1 -2,0 -2,1 -1,1 -1,1 0,2 -1,1 0,2z" />
<path style="fill:#000" d="M288,290 l-4,0 -4,-1 -4,-2 -4,-3 -2,-3 -2,-4 -1,-4 -1,-4 13,0 0,2 1,1 1,2 0,1 1,1 2,1 2,0 2,0z" />
<path style="fill:#000" d="M309,269 l0,4 -2,4 -1,4 -3,3 -3,2 -4,3 -4,1 -4,0 0,-13 2,0 1,0 1,-1 2,-1 1,-1 1,-2 0,-1 0,-2z" />
<path style="fill:#000" d="M288,247 l4,1 4,1 4,3 3,2 2,3 2,3 2,4 0,5 -13,0 0,-2 0,-1 -1,-2 -1,-1 -2,-1 -1,-1 -1,0 -2,-1z" />
<path style="fill:#000" d="M273,269 l0,-7 30,0 0,13 -30,0 0,-6z" />
<circle style="fill:#e5e5e5" cx="604" cy="479" r="15" />
<path style="fill:#000" d="M604,458 l5,1 4,1 3,2 4,2 3,4 1,4 2,3 0,4 -13,0 0,-1 0,-2 -1,-2 -1,0 -1,-1 -2,-1 -2,-1 -2,0z" />
<path style="fill:#000" d="M583,479 l0,-4 2,-3 2,-4 2,-4 4,-2 3,-2 4,-1 4,-1 0,13 -1,0 -2,1 -1,0 -2,2 0,0 -1,2 -1,2 0,1z" />
<path style="fill:#000" d="M604,501 l-4,-1 -4,-1 -3,-2 -4,-2 -2,-4 -2,-3 -2,-4 0,-5 13,0 0,2 1,2 1,2 0,1 2,1 1,1 1,0 2,0z" />
<path style="fill:#000" d="M626,479 l0,5 -2,4 -1,3 -3,4 -4,3 -4,1 -4,1 -4,1 0,-13 3,0 1,0 2,-1 1,-1 1,-1 1,-2 0,-2 0,-2z" />
<path style="fill:#000" d="M604,465 l7,0 0,30 -13,0 0,-30 6,0z" />
<circle style="fill:#e5e5e5" cx="393" cy="479" r="15" />
<path style="fill:#000" d="M393,458 l5,1 3,1 4,2 4,2 2,4 2,4 2,3 0,4 -13,0 0,-1 -1,-2 -1,-2 0,0 -1,-1 -2,-1 -2,-1 -2,0z" />
<path style="fill:#000" d="M372,479 l0,-4 2,-3 1,-4 3,-4 4,-2 3,-2 4,-1 4,-1 0,13 -1,0 -2,1 -2,1 -1,1 -1,0 -1,2 0,2 0,1z" />
<path style="fill:#000" d="M393,501 l-3,-1 -4,-1 -4,-1 -4,-3 -3,-4 -1,-3 -2,-4 0,-5 13,0 0,2 0,2 1,2 1,1 1,1 2,1 1,0 2,0z" />
<path style="fill:#000" d="M415,479 l0,5 -2,4 -2,3 -2,4 -4,3 -4,1 -4,1 -4,1 0,-13 2,0 2,0 2,-1 1,-1 0,-1 1,-2 1,-2 0,-2z" />
<path style="fill:#000" d="M393,465 l7,0 0,30 -13,0 0,-30 6,0z" />
<circle style="fill:#e5e5e5" cx="604" cy="57" r="15" />
<path style="fill:#000" d="M604,36 l5,0 4,2 3,1 4,3 3,4 1,3 2,4 0,4 -13,0 0,-1 0,-2 -1,-2 -1,-1 -1,-1 -2,-1 -2,0 -2,0z" />
<path style="fill:#000" d="M583,57 l0,-4 2,-4 2,-3 2,-4 4,-2 3,-2 4,-2 4,0 0,13 -1,0 -2,0 -1,1 -2,1 0,1 -1,2 -1,2 0,1z" />
<path style="fill:#000" d="M604,79 l-4,0 -4,-2 -3,-2 -4,-2 -2,-4 -2,-4 -2,-3 0,-5 13,0 0,2 1,2 1,2 0,1 2,1 1,0 2,1 1,0z" />
<path style="fill:#000" d="M626,57 l0,5 -2,3 -1,4 -3,4 -4,2 -3,2 -4,2 -5,0 0,-13 2,0 2,-1 2,-1 1,0 1,-1 1,-2 0,-2 0,-2z" />
<path style="fill:#000" d="M604,42 l7,0 0,31 -13,0 0,-31 6,0z" />
<circle style="fill:#e5e5e5" cx="393" cy="57" r="15" />
<path style="fill:#000" d="M393,36 l5,0 3,2 4,1 4,3 2,4 2,3 2,4 0,4 -13,0 0,-1 -1,-2 -1,-2 0,-1 -1,-1 -2,-1 -2,0 -2,0z" />
<path style="fill:#000" d="M372,57 l0,-4 2,-4 1,-3 3,-4 4,-3 3,-1 4,-2 4,0 0,13 -1,0 -2,0 -2,1 -1,1 -1,1 -1,2 0,2 0,1z" />
<path style="fill:#000" d="M393,79 l-4,0 -4,-2 -3,-2 -4,-2 -3,-4 -1,-4 -2,-3 0,-5 13,0 0,2 0,2 1,2 1,1 1,0 2,1 2,1 1,0z" />
<path style="fill:#000" d="M415,57 l0,5 -2,3 -2,4 -2,4 -4,2 -4,2 -3,2 -5,0 0,-13 2,0 2,-1 2,-1 1,0 0,-1 1,-2 1,-2 0,-2z" />
<path style="fill:#000" d="M393,42 l7,0 0,31 -13,0 0,-31 6,0z" />
<path style="fill:#b2b2b2;stroke:#000;stroke-width:2" d="M257,77 l-229,0 0,128 229,0 0,-128z" />
<path style="fill:#e5e5e5;stroke:#000;stroke-width:2" d="M254,73 l-15,0 0,135 15,0 0,-135z" />
<path style="fill:#e5e5e5;stroke:#000;stroke-width:2" d="M235,73 l-15,0 0,135 15,0 0,-135z" />
<path style="fill:#e5e5e5;stroke:#000;stroke-width:2" d="M216,73 l-15,0 0,135 15,0 0,-135z" />
<path style="fill:#e5e5e5;stroke:#000;stroke-width:2" d="M137,73 l-15,0 0,135 15,0 0,-135z" />
<path style="fill:#e5e5e5;stroke:#000;stroke-width:2" d="M118,73 l-15,0 0,135 15,0 0,-135z" />
<path style="fill:#e5e5e5;stroke:#000;stroke-width:2" d="M99,73 l-15,0 0,135 15,0 0,-135z" />
<path style="fill:#e5e5e5;stroke:#000;stroke-width:2" d="M80,73 l-15,0 0,135 15,0 0,-135z" />
<path style="fill:#e5e5e5;stroke:#000;stroke-width:2" d="M61,73 l-15,0 0,135 15,0 0,-135z" />
<path style="fill:#e5e5e5;stroke:#000;stroke-width:2" d="M43,73 l-15,0 0,135 15,0 0,-135z" />
<path style="fill:#b2b2b2;stroke:#000;stroke-width:2" d="M970,77 l-230,0 0,128 230,0 0,-128z" />
<path style="fill:#e5e5e5;stroke:#000;stroke-width:2" d="M970,73 l-15,0 0,135 15,0 0,-135z" />
<path style="fill:#e5e5e5;stroke:#000;stroke-width:2" d="M952,73 l-15,0 0,135 15,0 0,-135z" />
<path style="fill:#e5e5e5;stroke:#000;stroke-width:2" d="M933,73 l-15,0 0,135 15,0 0,-135z" />
<path style="fill:#e5e5e5;stroke:#000;stroke-width:2" d="M797,73 l-15,0 0,135 15,0 0,-135z" />
<path style="fill:#e5e5e5;stroke:#000;stroke-width:2" d="M778,73 l-14,0 0,135 14,0 0,-135z" />
<path style="fill:#e5e5e5;stroke:#000;stroke-width:2" d="M760,73 l-15,0 0,135 15,0 0,-135z" />

</svg>
