 

<svg xmlns:agg="http://www.example.com" xmlns="http://www.w3.org/2000/svg" preserveAspectRatio="none" width="0.7371in" height="1.0750in" viewBox="0 0 685 999">

<path style="fill:#006" d="M656,892 l0,-550 -98,0 0,118 -432,0 0,-118 -98,0 0,550 98,0 0,-118 432,0 0,118 98,0z" />
<path style="fill:#00007f" d="M656,832 l0,-431 -98,0 0,92 -432,0 0,-92 -98,0 0,431 98,0 0,-92 432,0 0,92 98,0z" />
<path style="fill:#009" d="M656,813 l0,-393 -98,0 0,85 -432,0 0,-85 -98,0 0,393 98,0 0,-84 432,0 0,84 98,0z" />
<path style="fill:#0000b2" d="M656,744 l0,-255 -98,0 0,55 -432,0 0,-55 -98,0 0,255 98,0 0,-55 432,0 0,55 98,0z" />
<path style="fill:#00c" d="M656,676 l0,-118 -98,0 0,25 -432,0 0,-25 -98,0 0,118 98,0 0,-25 432,0 0,25 98,0z" />
<path style="fill:none;stroke:#000;stroke-width:2" d="M656,892 l0,-550 -98,0 0,118 -432,0 0,-118 -98,0 0,550 98,0 0,-118 432,0 0,118 98,0" />
<path style="fill:none;stroke:#000;stroke-width:2" d="M558,774 l0,-314" />
<path style="fill:none;stroke:#000;stroke-width:2" d="M126,774 l0,-314" />
<path style="fill:#7f7f7f" d="M499,303 l-314,0 0,628 314,0 0,-628z" />
<path style="fill:#969696" d="M499,366 l-314,0 0,501 314,0 0,-501z" />
<path style="fill:#ababab" d="M499,430 l-314,0 0,373 314,0 0,-373z" />
<path style="fill:#c2c2c2" d="M499,494 l-314,0 0,245 314,0 0,-245z" />
<path style="fill:#d9d9d9" d="M499,558 l-314,0 0,118 314,0 0,-118z" />
<path style="fill:none;stroke:#000;stroke-width:2" d="M499,303 l-314,0 0,628 314,0 0,-628" />
<path style="fill:#bfbfbf;stroke:#000;stroke-width:2" d="M440,774 l-196,0 0,196 196,0 0,-196z" />
<path style="fill:#bfbfbf;stroke:#000;stroke-width:2" d="M244,460 l196,0 0,-197 -196,0 0,197z" />
<path style="fill:#ccc;stroke:#000;stroke-width:2" d="M558,597 l-432,0 0,20 432,0 0,-20z" />
<path style="fill:#b2b2b2;stroke:#000;stroke-width:2" d="M558,616 l-432,0 0,20 432,0 0,-20z" />
<path style="fill:#666" d="M421,793 l-157,0 0,20 157,0 0,-20z" />
<path style="fill:#666" d="M421,828 l-157,0 0,20 157,0 0,-20z" />
<path style="fill:#666" d="M421,857 l-157,0 0,20 157,0 0,-20z" />
<path style="fill:#666" d="M421,887 l-157,0 0,14 157,0 0,-14z" />
<path style="fill:#666" d="M263,440 l157,0 0,-20 -157,0 0,20z" />
<path style="fill:#666" d="M263,406 l157,0 0,-20 -157,0 0,20z" />
<path style="fill:#666" d="M263,376 l157,0 0,-20 -157,0 0,20z" />
<path style="fill:#666" d="M263,347 l157,0 0,-15 -157,0 0,15z" />
<path style="fill:#d9d9d9" d="M519,224 l-20,-20 -314,-157 -20,-19 0,196 354,0z" />
<path style="fill:#f2f2f2" d="M165,28 l20,19 314,157 20,20 0,-196 -354,0z" />
<path style="fill:#fff;stroke:#7f7f7f;stroke-width:2" d="M499,48 l-314,0 0,156 314,0 0,-156z" />
<path style="fill:none;stroke:#000;stroke-width:2" d="M519,28 l-354,0 0,196 354,0 0,-196" />
<path style="fill:#e5e5e5;stroke:#000;stroke-width:2" d="M322,67 l-98,0 0,98 98,0 0,-98z" />
<path style="fill:#000" d="M386,47 l-4,0 0,157 4,0 0,-157z" />
<path style="fill:#900" d="M480,170 l-40,0 0,15 40,0 0,-15z" />
<path style="fill:#900" d="M401,293 l-49,0 0,15 49,0 0,-15z" />
<path style="fill:#f2f2f2;stroke:#000;stroke-width:2" d="M421,283 l-157,0 0,34 157,0 0,-34z" />
<path style="fill:#090;stroke:#000;stroke-width:2" d="M303,82 l-59,0 0,29 59,0 0,-29z" />
<path style="fill:none;stroke:#000;stroke-width:2" d="M322,175 l-98,0" />
<path style="fill:none;stroke:#000;stroke-width:2" d="M224,185 l98,0" />
<path style="fill:none;stroke:#000;stroke-width:2" d="M322,195 l-98,0" />
<path style="fill:#999;stroke:#000;stroke-width:2" d="M303,263 l0,-39 118,0 -39,39 -79,0z" />
<path style="fill:none;stroke:#000;stroke-width:2" d="M382,263 l0,-39" />

</svg>
