 

<svg xmlns:agg="http://www.example.com" xmlns="http://www.w3.org/2000/svg" preserveAspectRatio="none" width="0.9911in" height="1.0750in" viewBox="0 0 921 999">

<path style="fill:#f0f0f0;stroke:#000;stroke-width:2" d="M138,823 l645,0 0,116 -645,0 0,-116z" />
<path style="fill:#b2b2b2" d="M138,898 l645,0 0,36 -645,0 0,-36z" />
<path style="fill:#f0f0f0;stroke:#000;stroke-width:2" d="M211,823 l499,0 0,-145 -499,0 0,145z" />
<path style="fill:#7f7f7f" d="M723,823 l-13,0 0,-145 13,-17 0,162z" />
<path style="fill:#7f7f7f;stroke:#000;stroke-width:2" d="M226,661 l499,0 -15,17 -499,0 15,-17z" />
<path style="fill:#7f7f7f;stroke:#000;stroke-width:2" d="M313,578 l295,0 0,98 -295,0 0,-98z" />
<path style="fill:#f0f0f0;stroke:#000;stroke-width:2" d="M339,578 l243,0 0,98 -243,0 0,-98z" />
<path style="fill:#7f7f7f" d="M138,791 l-111,0 0,180 111,0 0,-180z" />
<path style="fill:#7f7f7f" d="M892,791 l-109,0 0,180 109,0 0,-180z" />
<path style="fill:#949494" d="M138,798 l-109,0 0,149 109,0 0,-149z" />
<path style="fill:#949494" d="M894,798 l-111,0 0,149 111,0 0,-149z" />
<path style="fill:#ababab" d="M138,804 l-109,0 0,122 109,0 0,-122z" />
<path style="fill:#ababab" d="M894,804 l-111,0 0,122 111,0 0,-122z" />
<path style="fill:#bfbfbf" d="M138,811 l-109,0 0,94 109,0 0,-94z" />
<path style="fill:#bfbfbf" d="M894,811 l-111,0 0,94 111,0 0,-94z" />
<path style="fill:#d4d4d4" d="M138,817 l-109,0 0,66 109,0 0,-66z" />
<path style="fill:#d4d4d4" d="M894,817 l-111,0 0,66 111,0 0,-66z" />
<path style="fill:#ebebeb" d="M138,823 l-109,0 0,37 109,0 0,-37z" />
<path style="fill:#ebebeb" d="M894,823 l-111,0 0,37 111,0 0,-37z" />
<path style="fill:#fff" d="M138,830 l-111,0 0,8 111,0 0,-8z" />
<path style="fill:#fff" d="M892,830 l-109,0 0,8 109,0 0,-8z" />
<path style="fill:none;stroke:#000;stroke-width:2" d="M183,853 l561,0" />
<path style="fill:none;stroke:#000;stroke-width:2" d="M213,881 l476,0" />
<path style="fill:none;stroke:#000;stroke-width:2" d="M168,911 l557,0" />
<path style="fill:none;stroke:#000;stroke-width:2" d="M138,791 l-111,0 0,180 111,0 0,-180" />
<path style="fill:none;stroke:#000;stroke-width:2" d="M892,791 l-109,0 0,180 109,0 0,-180" />
<path style="fill:#0000bf" d="M205,409 l518,0 0,169 -518,0 0,-169z" />
<path style="fill:#0000c9" d="M228,409 l433,0 0,169 -433,0 0,-169z" />
<path style="fill:#0000d4" d="M251,409 l348,0 0,169 -348,0 0,-169z" />
<path style="fill:#1f1fde" d="M275,409 l265,0 0,169 -265,0 0,-169z" />
<path style="fill:#4040eb" d="M298,409 l180,0 0,169 -180,0 0,-169z" />
<path style="fill:#6161f5" d="M322,409 l94,0 0,169 -94,0 0,-169z" />
<path style="fill:#7f7fff" d="M345,409 l9,0 0,169 -9,0 0,-169z" />
<path style="fill:none;stroke:#000;stroke-width:2" d="M205,409 l518,0 0,169 -518,0 0,-169" />
<path style="fill:#0000ad;stroke:#000;stroke-width:2" d="M354,409 l220,0 0,-40 -220,0 0,40z" />
<path style="fill:#0000ad;stroke:#000;stroke-width:2" d="M155,149 l570,0 0,220 -570,0 0,-220z" />
<path style="fill:#0000ad;stroke:#000;stroke-width:2" d="M762,121 l-37,28 0,220 37,-28 0,-220z" />
<path style="fill:#7f7fff;stroke:#000;stroke-width:2" d="M155,149 l570,0 0,-94 -570,0 0,94z" />
<path style="fill:#7f7fff;stroke:#000;stroke-width:2" d="M762,121 l-37,28 0,-94 37,-28 0,94z" />
<path style="fill:#0000bf;stroke:#000;stroke-width:2" d="M192,27 l570,0 -37,28 -570,0 37,-28z" />
<path style="fill:#e0e0e0;stroke:#000;stroke-width:2" d="M236,209 l376,0 0,94 -376,0 0,-94z" />
<path style="fill:none;stroke:#000;stroke-width:2" d="M262,230 l188,0" />
<path style="fill:none;stroke:#000;stroke-width:2" d="M348,251 l138,0" />
<path style="fill:none;stroke:#000;stroke-width:2" d="M275,275 l196,0" />
<path style="fill:none;stroke:#000;stroke-width:2" d="M525,239 l68,0" />
<path style="fill:none;stroke:#000;stroke-width:2" d="M525,275 l57,0" />

</svg>
