 

<svg xmlns:agg="http://www.example.com" xmlns="http://www.w3.org/2000/svg" preserveAspectRatio="none" width="0.7898in" height="1.0750in" viewBox="0 0 734 999">

<path style="fill:#666638;stroke:#000;stroke-width:2" d="M141,970 l-76,-37 0,-38 76,38 0,37z" />
<path style="fill:#ccccbd;stroke:#000;stroke-width:2" d="M706,65 l-603,0 0,868 603,0 0,-868z" />
<path style="fill:#c4c4b2" d="M703,929 l-596,0 0,-487 596,126 0,361z" />
<path style="fill:#babaa6" d="M703,929 l-596,0 0,-392 596,125 0,267z" />
<path style="fill:#b2b29b" d="M703,929 l-596,0 0,-317 596,126 0,191z" />
<path style="fill:#7f7f59;stroke:#000;stroke-width:2" d="M669,933 l-528,0 0,37 528,0 0,-37z" />
<path style="fill:#d4d4c7;stroke:#000;stroke-width:2" d="M367,254 l-226,0 0,94 226,0 0,-94z" />
<path style="fill:#d4d4c7;stroke:#000;stroke-width:2" d="M367,367 l-226,0 0,151 226,0 0,-151z" />
<path style="fill:#d4d4c7;stroke:#000;stroke-width:2" d="M687,329 l-131,0 0,283 131,0 0,-283z" />
<path style="fill:#e5e5dd;stroke:#000;stroke-width:2" d="M706,65 l-75,-37 -603,0 75,37 603,0z" />
<path style="fill:#b2b29b;stroke:#000;stroke-width:2" d="M103,933 l-75,-38 0,-867 75,37 0,868z" />
<path style="fill:none;stroke:#000;stroke-width:2" d="M612,487 l-31,0 0,31 31,0 0,-31" />
<path style="fill:none;stroke:#000;stroke-width:2" d="M612,441 l-31,0 0,30 31,0 0,-30" />
<path style="fill:none;stroke:#000;stroke-width:2" d="M612,394 l-31,0 0,31 31,0 0,-31" />
<path style="fill:none;stroke:#000;stroke-width:2" d="M612,348 l-31,0 0,31 31,0 0,-31" />
<path style="fill:none;stroke:#000;stroke-width:2" d="M669,348 l-38,0 0,245 38,0 0,-245" />
<path style="fill:none;stroke:#000;stroke-width:2" d="M367,707 l-226,0" />
<path style="fill:none;stroke:#000;stroke-width:2" d="M141,732 l226,0" />
<path style="fill:none;stroke:#000;stroke-width:2" d="M367,757 l-226,0" />
<path style="fill:none;stroke:#000;stroke-width:2" d="M141,782 l226,0" />
<path style="fill:none;stroke:#000;stroke-width:2" d="M367,807 l-226,0" />
<path style="fill:none;stroke:#000;stroke-width:2" d="M141,832 l226,0" />
<path style="fill:none;stroke:#000;stroke-width:2" d="M367,857 l-226,0" />
<path style="fill:none;stroke:#000;stroke-width:2" d="M405,933 l0,-717" />
<path style="fill:none;stroke:#000;stroke-width:2" d="M706,122 l-603,0" />
<path style="fill:none;stroke:#000;stroke-width:2" d="M706,154 l-603,0" />
<path style="fill:none;stroke:#000;stroke-width:2" d="M706,185 l-603,0" />
<path style="fill:none;stroke:#000;stroke-width:2" d="M706,216 l-603,0" />
<path style="fill:none;stroke:#000;stroke-width:2" d="M348,330 l-189,0" />
<path style="fill:none;stroke:#000;stroke-width:2" d="M159,318 l189,0" />
<path style="fill:none;stroke:#000;stroke-width:2" d="M348,307 l-189,0" />
<path style="fill:none;stroke:#000;stroke-width:2" d="M159,295 l189,0" />
<path style="fill:none;stroke:#000;stroke-width:2" d="M348,284 l-189,0" />
<path style="fill:none;stroke:#000;stroke-width:2" d="M159,273 l189,0" />

</svg>
