 

<svg xmlns:agg="http://www.example.com" xmlns="http://www.w3.org/2000/svg" preserveAspectRatio="none" width="1.6083in" height="0.7760in" viewBox="0 0 999 482">

<path style="fill:#bfbfbf;stroke:#000;stroke-width:2" d="M488,453 l-416,0 -3,-3 -6,-49 -2,-3 -7,0 -3,-4 0,-34 2,-5 -22,0 -2,-2 -1,-2 0,-2 0,-2 0,-3 7,-99 2,-2 4,-1 -5,-7 17,-100 10,-11 3,0 89,-75 1,-1 12,0 8,-7 2,-1 30,0 3,-3 277,0 233,0 4,3 74,0 2,1 8,7 33,0 1,1 89,75 3,0 10,11 17,100 -4,7 4,2 1,1 7,99 0,1 -1,8 -3,2 -21,0 2,5 0,34 -3,4 -6,0 -3,3 -6,49 -3,3 -438,0z" />
<path style="fill:none;stroke:#fff;stroke-width:2" d="M932,124 l-866,0" />
<path style="fill:none;stroke:#fff;stroke-width:2" d="M946,135 l-4,-2 -886,0 -3,2" />
<path style="fill:#fff;stroke:#fff;stroke-width:2" d="M875,119 l0,-6 -2,-2 -769,0 -1,2 0,6 772,0z" />
<path style="fill:none;stroke:#000;stroke-width:2" d="M873,111 l-72,-70" />
<path style="fill:none;stroke:#fff;stroke-width:2" d="M104,111 l70,-69" />
<path style="fill:#fff;stroke:#fff;stroke-width:2" d="M821,91 l-21,-22 -37,0 3,4 31,0 18,18 6,0z" />
<path style="fill:#fff;stroke:#fff;stroke-width:2" d="M797,57 l-9,-9 -36,0 3,2 31,0 5,7 6,0z" />
<path style="fill:none;stroke:#000;stroke-width:2" d="M821,91 l-39,0" />
<path style="fill:none;stroke:#000;stroke-width:2" d="M798,57 l-39,0" />
<path style="fill:#000;stroke:#000;stroke-width:2" d="M792,81 l6,7 -6,0 0,-7z" />
<path style="fill:#000;stroke:#000;stroke-width:2" d="M781,49 l5,8 -5,0 0,-8z" />
<path style="fill:#adadad;stroke:#000;stroke-width:2" d="M792,88 l0,-21 -6,0 0,21 6,0z" />
<path style="fill:#adadad;stroke:#000;stroke-width:2" d="M781,57 l0,-28 -14,0 0,28 14,0z" />
<path style="fill:none;stroke:#fff;stroke-width:2" d="M785,86 l0,-20" />
<path style="fill:#fff;stroke:#fff;stroke-width:2" d="M767,57 l-1,-3 0,-26 12,0 3,1 -14,0 0,28z" />
<path style="fill:#fff;stroke:#fff;stroke-width:2" d="M723,83 l3,4 -528,0 3,-4 522,0z" />
<path style="fill:#000;stroke:#000;stroke-width:2" d="M779,106 l-635,0 25,-26 36,0 -19,19 549,0 -15,-19 37,0 22,26z" />
<path style="fill:none;stroke:#000;stroke-width:2" d="M169,79 l42,-42" />
<path style="fill:none;stroke:#000;stroke-width:2" d="M725,40 l32,40" />
<path style="fill:#000;stroke:#fff;stroke-width:2" d="M695,92 l0,-8 -24,-39 22,40 2,7z" />
<path style="fill:#000;stroke:#fff;stroke-width:2" d="M286,92 l1,-8 23,-39 -21,40 -3,7z" />
<path style="fill:#000;stroke:#fff;stroke-width:2" d="M223,92 l1,-8 35,-39 -33,40 -3,7z" />
<path style="fill:#000;stroke:#fff;stroke-width:2" d="M637,92 l0,-8 -18,-39 16,40 2,7z" />
<path style="fill:#000;stroke:#fff;stroke-width:2" d="M344,92 l1,-8 18,-39 -16,40 -3,7z" />
<path style="fill:#000;stroke:#fff;stroke-width:2" d="M585,92 l-1,-8 -13,-39 12,40 2,7z" />
<path style="fill:#000;stroke:#fff;stroke-width:2" d="M397,92 l1,-8 13,-39 -12,40 -2,7z" />
<path style="fill:#000;stroke:#fff;stroke-width:2" d="M524,92 l0,-8 -5,-39 5,40 0,7z" />
<path style="fill:#000;stroke:#fff;stroke-width:2" d="M458,92 l0,-8 5,-39 -4,40 -1,7z" />
<path style="fill:none;stroke:#adadad;stroke-width:2" d="M725,85 l32,0 15,19" />
<path style="fill:none;stroke:#adadad;stroke-width:2" d="M200,85 l-29,0 -19,19" />
<path style="fill:none;stroke:#000;stroke-width:2" d="M899,153 l-342,0 0,24 342,0 0,-24" />
<path style="fill:#070787;stroke:#000;stroke-width:2" d="M882,159 l-109,0 0,11 109,0 0,-11z" />
<path style="fill:#fff;stroke:#000;stroke-width:2" d="M759,159 l-66,0 0,11 66,0 0,-11z" />
<path style="fill:#0ff;stroke:#000;stroke-width:2" d="M680,159 l-104,0 0,11 104,0 0,-11z" />
<path style="fill:#000;stroke:#000;stroke-width:2" d="M958,243 l-917,0 -4,-6 4,1 459,0 458,0 3,-1 -3,6z" />
<ellipse style="fill:#000;stroke:#000;stroke-width:2" cx="499" cy="354" rx="471" ry="4" />
<path style="fill:none;stroke:#fff;stroke-width:2" d="M960,233 l-914,0" />
<path style="fill:none;stroke:#fff;stroke-width:2" d="M969,346 l-932,0" />
<path style="fill:none;stroke:#000;stroke-width:2" d="M916,367 l-849,0" />
<path style="fill:none;stroke:#000;stroke-width:2" d="M891,380 l-779,0 0,8 2,-6 777,0 0,-2" />
<path style="fill:none;stroke:#000;stroke-width:2" d="M891,396 l-779,0 0,7 1,-6 778,0 0,-1" />
<path style="fill:none;stroke:#000;stroke-width:2" d="M891,413 l-779,0 0,7 1,-6 778,0 0,-1" />
<path style="fill:none;stroke:#000;stroke-width:2" d="M891,428 l-779,0 0,8 1,-7 778,0" />
<path style="fill:none;stroke:#000;stroke-width:2" d="M844,265 l-279,0 0,54 279,0 0,-54" />
<path style="fill:none;stroke:#000;stroke-width:2" d="M844,276 l-279,0" />
<path style="fill:none;stroke:#000;stroke-width:2" d="M844,287 l-279,0" />
<path style="fill:none;stroke:#000;stroke-width:2" d="M844,298 l-279,0" />
<path style="fill:none;stroke:#000;stroke-width:2" d="M844,309 l-279,0" />
<path style="fill:none;stroke:#000;stroke-width:2" d="M779,265 l0,54" />
<path style="fill:none;stroke:#000;stroke-width:2" d="M776,265 l0,54" />
<path style="fill:none;stroke:#000;stroke-width:2" d="M735,265 l0,54" />
<path style="fill:none;stroke:#000;stroke-width:2" d="M693,265 l0,54" />
<path style="fill:none;stroke:#000;stroke-width:2" d="M651,265 l0,54" />
<path style="fill:none;stroke:#000;stroke-width:2" d="M609,265 l0,54" />
<path style="fill:#000;stroke:#000;stroke-width:2" d="M859,269 l-9,0 0,5 9,0 0,-5z" />
<path style="fill:#000;stroke:#000;stroke-width:2" d="M760,255 l-10,0 0,4 10,0 0,-4z" />
<path style="fill:#000;stroke:#000;stroke-width:2" d="M717,255 l-9,0 0,4 9,0 0,-4z" />
<path style="fill:#000;stroke:#000;stroke-width:2" d="M676,255 l-10,0 0,4 10,0 0,-4z" />
<path style="fill:#000;stroke:#000;stroke-width:2" d="M634,255 l-9,0 0,4 9,0 0,-4z" />
<path style="fill:#000;stroke:#000;stroke-width:2" d="M593,255 l-10,0 0,4 10,0 0,-4z" />
<path style="fill:#000;stroke:#000;stroke-width:2" d="M859,290 l-9,0 0,5 9,0 0,-5z" />
<path style="fill:#000;stroke:#000;stroke-width:2" d="M859,312 l-9,0 0,5 9,0 0,-5z" />
<path style="fill:none;stroke:#000;stroke-width:2" d="M854,310 l0,-10" />
<path style="fill:none;stroke:#000;stroke-width:2" d="M854,287 l0,-11" />
<path style="fill:none;stroke:#000;stroke-width:2" d="M854,281 l-4,0" />
<path style="fill:none;stroke:#000;stroke-width:2" d="M854,305 l-4,0" />
<path style="fill:none;stroke:#000;stroke-width:2" d="M746,258 l-23,0" />
<path style="fill:none;stroke:#000;stroke-width:2" d="M769,270 l-20,0" />
<path style="fill:none;stroke:#000;stroke-width:2" d="M722,270 l-18,0" />
<path style="fill:none;stroke:#000;stroke-width:2" d="M682,270 l-18,0" />
<path style="fill:none;stroke:#000;stroke-width:2" d="M637,270 l-17,0" />
<path style="fill:none;stroke:#000;stroke-width:2" d="M601,270 l-26,0" />
<path style="fill:#070787;stroke:#000;stroke-width:2" d="M533,276 l-31,0 -5,4 0,30 1,1 2,2 34,0 2,0 2,-3 0,-1 0,-30 0,-1 -3,-2 -2,0z" />
<path style="fill:#0ff;stroke:#000;stroke-width:2" d="M220,276 l-31,0 -4,3 -1,2 0,27 1,2 2,3 35,0 1,0 3,-4 0,-28 -1,-3 -2,-2 -2,0 -1,0z" />
<path style="fill:#0f0;stroke:#000;stroke-width:2" d="M285,276 l-41,0 -3,0 -4,4 0,1 0,27 0,2 4,3 1,0 46,0 5,-4 0,-28 -1,-2 -1,-1 -2,-2 -4,0z" />
<path style="fill:#070787;stroke:#000;stroke-width:2" d="M465,276 l-31,0 -2,0 -3,3 0,2 0,27 3,5 34,0 2,0 3,-4 0,-28 -1,-3 -3,-2 -1,0 -1,0z" />
<path style="fill:#0ff;stroke:#000;stroke-width:2" d="M158,276 l-31,0 -2,0 -3,4 0,28 1,3 2,2 34,0 2,0 2,-3 0,-2 0,-27 0,-3 -3,-2 -1,0 -1,0z" />
<path style="fill:#070787;stroke:#000;stroke-width:2" d="M403,276 l-31,0 -2,0 -3,4 0,28 1,3 1,1 2,1 33,0 2,0 1,-2 1,-3 0,-27 -3,-5 -2,0 0,0z" />
<path style="fill:#074407;stroke:#000;stroke-width:2" d="M96,270 l-31,0 -1,1 -3,1 -1,3 0,34 1,2 3,2 33,0 3,-2 1,-2 0,-33 0,-1 -1,-2 -4,-3 0,0z" />
<path style="fill:#000;stroke:#000;stroke-width:2" d="M409,261 l-42,0 0,4 42,0 0,-4z" />
<path style="fill:none;stroke:#000;stroke-width:2" d="M345,257 l0,67" />
<path style="fill:#ff8700;stroke:#000;stroke-width:2" d="M335,272 l-12,0 0,7 12,0 0,-7z" />
<path style="fill:#ff0016;stroke:#000;stroke-width:2" d="M335,306 l-12,0 0,8 12,0 0,-8z" />
<path style="fill:none;stroke:#000;stroke-width:2" d="M321,310 l-21,0" />
<path style="fill:none;stroke:#000;stroke-width:2" d="M321,276 l-21,0" />
<path style="fill:none;stroke:#000;stroke-width:2" d="M266,268 l0,-15 -121,0 0,4" />
<path style="fill:none;stroke:#000;stroke-width:2" d="M205,253 l0,5" />
<path style="fill:#000;stroke:#000;stroke-width:2" d="M226,260 l-104,0 0,6 104,0 0,-6z" />
<path style="fill:#000;stroke:#000;stroke-width:2" d="M293,321 l-56,0 0,7 56,0 0,-7z" />
<path style="fill:#000;stroke:#000;stroke-width:2" d="M226,321 l-105,0 0,7 105,0 0,-7z" />
<path style="fill:#000;stroke:#000;stroke-width:2" d="M226,334 l-41,0 0,7 41,0 0,-7z" />
<path style="fill:#000;stroke:#000;stroke-width:2" d="M163,334 l-42,0 0,7 42,0 0,-7z" />
<path style="fill:none;stroke:#000;stroke-width:2" d="M489,249 l458,0 3,0 3,2 1,2 0,2 4,77 0,3 -6,4 -906,0 -4,-1 -3,-5 0,-1 4,-77 1,-4 4,-2 2,0 439,0" />
<path style="fill:none;stroke:#fff;stroke-width:2" d="M56,137 l-16,93" />
<path style="fill:none;stroke:#fff;stroke-width:2" d="M58,131 l6,-6" />
<path style="fill:none;stroke:#fff;stroke-width:2" d="M69,123 l87,-74" />
<path style="fill:none;stroke:#fff;stroke-width:2" d="M106,110 l71,-69" />
<path style="fill:none;stroke:#fff;stroke-width:2" d="M40,244 l-2,2 -7,96" />

</svg>
