 

<svg xmlns:agg="http://www.example.com" xmlns="http://www.w3.org/2000/svg" preserveAspectRatio="none" width="0.7210in" height="1.0750in" viewBox="0 0 670 999">

<path style="fill:#e5e5e5;stroke:#000;stroke-width:2" d="M68,970 l535,0 4,0 18,-21 8,-25 6,-31 2,-24 1,-13 0,-13 -2,-37 -4,-33 -8,-27 -13,-23 -8,-5 -4,-1 -537,0 -3,1 -18,21 -8,25 -6,31 -2,23 -1,13 0,12 1,38 6,34 8,26 13,23 8,6 4,0z" />
<path style="fill:none;stroke:#000;stroke-width:2" d="M603,718 l-8,3 -7,7 -6,12 -3,7 -3,8 -2,9 -2,10 -2,10 -2,12 -1,11 -1,12 -1,13 0,25 1,13 1,12 1,11 2,11 2,11 2,9 2,9 3,9 6,13 7,9 7,6 4,0" />
<path style="fill:#fff" d="M558,801 l-521,0 -1,0 0,40 0,1 1,0 521,0 1,0 0,-1 0,-40 -1,0z" />
<path style="fill:#000" d="M579,962 l-9,-21 -517,0 12,21 514,0z" />
<path style="fill:#7f7f7f" d="M580,725 l-14,25 -513,0 13,-25 514,0z" />
<path style="fill:#7f7f7f;stroke:#000;stroke-width:2" d="M281,716 l1,4 3,4 4,3 6,2 7,3 8,1 9,1 9,0 10,0 9,-1 8,-1 7,-3 6,-2 5,-3 2,-4 1,-4 0,-98 -95,0 0,98z" />
<path style="fill:#000" d="M290,720 l0,-102 16,0 0,109 -16,-7z" />
<path style="fill:#333;stroke:#000;stroke-width:2" d="M591,618 l34,-33 1,-557 -556,0 -35,35 0,555 556,0z" />
<path style="fill:#7f7f7f;stroke:#000;stroke-width:2" d="M591,61 l-556,0 0,556 556,0 0,-556z" />
<path style="fill:#fff;stroke:#000;stroke-width:2" d="M542,136 l-456,0 0,91 456,0 0,-91z" />
<path style="fill:#f00;stroke:#000;stroke-width:2" d="M471,294 l-87,0 0,87 87,0 0,-87z" />
<path style="fill:#f00;stroke:#000;stroke-width:2" d="M248,294 l-87,0 0,87 87,0 0,-87z" />
<path style="fill:#f00;stroke:#000;stroke-width:2" d="M471,441 l-87,0 0,87 87,0 0,-87z" />
<path style="fill:#f00;stroke:#000;stroke-width:2" d="M248,441 l-87,0 0,87 87,0 0,-87z" />

</svg>
