 

<svg xmlns:agg="http://www.example.com" xmlns="http://www.w3.org/2000/svg" preserveAspectRatio="none" width="1.0750in" height="1.0750in" viewBox="0 0 998 998">

<path style="fill:#0000bf;stroke:#000;stroke-width:2" d="M844,28 l-715,0 -38,8 -33,22 -22,33 -8,38 0,715 8,39 22,32 33,23 38,8 715,0 39,-8 32,-23 23,-32 8,-39 0,-715 -8,-38 -23,-33 -32,-22 -39,-8z" />
<path style="fill:#7f7fff;stroke:#000;stroke-width:2" d="M869,52 l-715,0 -39,8 -32,23 -23,32 -8,39 0,715 8,38 23,33 32,22 39,8 715,0 38,-8 33,-22 22,-33 8,-38 0,-715 -8,-39 -22,-32 -33,-23 -38,-8z" />
<path style="fill:#0000bf;stroke:#000;stroke-width:2" d="M830,144 l-637,0 -35,14 -14,35 0,364 14,32 35,15 637,0 34,-15 15,-32 0,-364 -15,-35 -34,-14z" />
<path style="fill:#e8ff69;stroke:#000;stroke-width:2" d="M816,160 l-609,0 -33,12 -12,33 0,340 12,32 33,12 609,0 32,-12 15,-32 0,-340 -15,-33 -32,-12z" />
<path style="fill:#0000bf;stroke:#000;stroke-width:2" d="M879,628 l-735,0 0,285 735,0 0,-285z" />
<path style="fill:#e5e5e5;stroke:#000;stroke-width:2" d="M864,645 l-219,0 0,252 219,0 0,-252z" />
<path style="fill:#e5e5e5;stroke:#000;stroke-width:2" d="M406,645 l220,0 0,252 -220,0 0,-252z" />
<path style="fill:#e5e5e5;stroke:#000;stroke-width:2" d="M384,645 l-220,0 0,252 220,0 0,-252z" />
<path style="fill:#7f7f7f;fill-rule:evenodd" d="M752,675 l-83,82 165,0 -82,-82z M752,685 l-63,63 124,0 -61,-63z " />
<path style="fill:none;stroke:#000;stroke-width:2" d="M752,675 l-83,82 165,0 -82,-82" />
<path style="fill:none;stroke:#000;stroke-width:2" d="M752,685 l-63,63 124,0 -61,-63" />
<path style="fill:#7f7f7f;fill-rule:evenodd" d="M512,872 l-83,-83 165,2 -82,81z M512,863 l-63,-66 126,0 -63,66z " />
<path style="fill:none;stroke:#000;stroke-width:2" d="M512,872 l-83,-83 165,2 -82,81" />
<path style="fill:none;stroke:#000;stroke-width:2" d="M512,863 l-63,-66 126,0 -63,66" />
<path style="fill:#7f7f7f;stroke:#000;stroke-width:2" d="M199,683 l-8,6 167,167 6,-6 -165,-167z" />
<path style="fill:#7f7f7f;stroke:#000;stroke-width:2" d="M824,816 l-143,0 0,14 143,0 0,-14z" />
<path style="fill:#7f7f7f;stroke:#000;stroke-width:2" d="M594,698 l-143,0 0,14 143,0 0,-14z" />

</svg>
