 

<svg xmlns:agg="http://www.example.com" xmlns="http://www.w3.org/2000/svg" preserveAspectRatio="none" width="0.2507in" height="1.0750in" viewBox="0 0 233 999">

<path style="fill:#999" d="M93,405 l48,0 0,147 -48,0 0,-147z" />
<path style="fill:#b2b2b2" d="M99,405 l36,0 0,147 -36,0 0,-147z" />
<path style="fill:#ccc" d="M109,405 l17,0 0,147 -17,0 0,-147z" />
<path style="fill:none;stroke:#000;stroke-width:2" d="M93,405 l48,0 0,147 -48,0 0,-147" />
<path style="fill:#000;stroke:#000;stroke-width:2" d="M88,401 l58,0 0,4 -58,0 0,-4z" />
<path style="fill:#4c4c4c;stroke:#000;stroke-width:2" d="M27,27 l178,0 0,374 -178,0 0,-374z" />
<path style="fill:#191919;stroke:#000;stroke-width:2" d="M160,37 l35,0 0,177 -35,0 0,-177z" />
<path style="fill:#191919;stroke:#000;stroke-width:2" d="M39,37 l36,0 0,177 -36,0 0,-177z" />
<path style="fill:#191919;stroke:#000;stroke-width:2" d="M78,37 l36,0 0,177 -36,0 0,-177z" />
<path style="fill:#191919;stroke:#000;stroke-width:2" d="M120,37 l34,0 0,177 -34,0 0,-177z" />
<path style="fill:#333;stroke:#000;stroke-width:2" d="M39,218 l156,0 0,21 -156,0 0,-21z" />
<path style="fill:#9cc;stroke:#000;stroke-width:2" d="M82,278 l70,0 0,29 -70,0 0,-29z" />
<path style="fill:none;stroke:#9cc;stroke-width:2" d="M82,312 l70,0" />
<path style="fill:#333;stroke:#000;stroke-width:2" d="M88,426 l58,0 0,97 -58,0 0,-97z" />
<circle style="fill:#333;stroke:#000;stroke-width:2" cx="116" cy="484" r="34" />
<circle style="fill:#666;stroke:#000;stroke-width:2" cx="117" cy="485" r="29" />
<circle style="fill:#b2b2b2;stroke:#000;stroke-width:2" cx="116" cy="484" r="9" />
<path style="fill:#999" d="M88,554 l58,0 0,52 -58,0 0,-52z" />
<path style="fill:#b2b2b2" d="M95,554 l44,0 0,52 -44,0 0,-52z" />
<path style="fill:#ccc" d="M107,554 l20,0 0,52 -20,0 0,-52z" />
<path style="fill:none;stroke:#000;stroke-width:2" d="M88,554 l58,0 0,52 -58,0 0,-52" />
<path style="fill:#999" d="M97,604 l40,0 0,367 -40,0 0,-367z" />
<path style="fill:#b2b2b2" d="M103,604 l28,0 0,367 -28,0 0,-367z" />
<path style="fill:#ccc" d="M110,604 l14,0 0,367 -14,0 0,-367z" />
<path style="fill:none;stroke:#000;stroke-width:2" d="M97,604 l40,0 0,367 -40,0 0,-367" />
<path style="fill:#b2b2b2;stroke:#000;stroke-width:2" d="M82,529 l30,0 0,19 -30,0 0,-19z" />
<path style="fill:#7f7f7f;stroke:#000;stroke-width:2" d="M112,529 l29,0 0,19 -29,0 0,-19z" />
<path style="fill:#666;stroke:#000;stroke-width:2" d="M141,529 l11,0 0,19 -11,0 0,-19z" />
<path style="fill:#e5e5e5;stroke:#000;stroke-width:2" d="M73,205 l3,0 0,9 -3,0 0,-9z" />
<path style="fill:#e5e5e5;stroke:#000;stroke-width:2" d="M112,205 l4,0 0,9 -4,0 0,-9z" />
<path style="fill:#e5e5e5;stroke:#000;stroke-width:2" d="M156,205 l5,0 0,9 -5,0 0,-9z" />
<path style="fill:#e5e5e5;stroke:#000;stroke-width:2" d="M39,205 l4,0 0,9 -4,0 0,-9z" />
<path style="fill:#e5e5e5;stroke:#000;stroke-width:2" d="M73,37 l3,0 0,9 -3,0 0,-9z" />
<path style="fill:#e5e5e5;stroke:#000;stroke-width:2" d="M112,37 l4,0 0,9 -4,0 0,-9z" />
<path style="fill:#e5e5e5;stroke:#000;stroke-width:2" d="M156,37 l5,0 0,9 -5,0 0,-9z" />
<path style="fill:#e5e5e5;stroke:#000;stroke-width:2" d="M39,37 l4,0 0,9 -4,0 0,-9z" />

</svg>
