 

<svg xmlns:agg="http://www.example.com" xmlns="http://www.w3.org/2000/svg" preserveAspectRatio="none" width="0.6941in" height="1.0750in" viewBox="0 0 645 999">

<path style="fill:#7f7f7f;stroke:#000;stroke-width:2" d="M610,344 l-575,0 0,23 575,0 0,-23z" />
<path style="fill:#7f7f7f;stroke:#000;stroke-width:2" d="M610,690 l-575,0 0,22 575,0 0,-22z" />
<path style="fill:#fff;stroke:#000;stroke-width:2" d="M617,87 l-589,0 0,883 589,0 0,-883z" />
<path style="fill:#fff;stroke:#000;stroke-width:2" d="M617,381 l-589,0 0,295 589,0 0,-295z" />
<path style="fill:#fff;stroke:#000;stroke-width:2" d="M602,278 l-560,0 0,501 560,0 0,-501z" />
<path style="fill:none;stroke:#000;stroke-width:2" d="M602,661 l-147,0 0,-265 147,0" />
<path style="fill:#b2b2b2;stroke:#000;stroke-width:2" d="M580,322 l-66,0 0,22 66,0 0,-22z" />
<path style="fill:#b2b2b2;stroke:#000;stroke-width:2" d="M499,322 l-66,0 0,22 66,0 0,-22z" />
<path style="fill:#b2b2b2;stroke:#000;stroke-width:2" d="M417,322 l-65,0 0,22 65,0 0,-22z" />
<path style="fill:#b2b2b2;stroke:#000;stroke-width:2" d="M336,322 l-66,0 0,22 66,0 0,-22z" />
<path style="fill:#b2b2b2;stroke:#000;stroke-width:2" d="M255,322 l-66,0 0,22 66,0 0,-22z" />
<path style="fill:#b2b2b2;stroke:#000;stroke-width:2" d="M174,322 l-66,0 0,22 66,0 0,-22z" />
<path style="fill:#b2b2b2;stroke:#000;stroke-width:2" d="M536,293 l-66,0 0,22 66,0 0,-22z" />
<path style="fill:#b2b2b2;stroke:#000;stroke-width:2" d="M455,293 l-66,0 0,22 66,0 0,-22z" />
<path style="fill:#b2b2b2;stroke:#000;stroke-width:2" d="M374,293 l-66,0 0,22 66,0 0,-22z" />
<path style="fill:#b2b2b2;stroke:#000;stroke-width:2" d="M293,293 l-66,0 0,22 66,0 0,-22z" />
<path style="fill:#b2b2b2;stroke:#000;stroke-width:2" d="M212,293 l-66,0 0,22 66,0 0,-22z" />
<path style="fill:#b2b2b2;stroke:#000;stroke-width:2" d="M131,293 l-66,0 0,22 66,0 0,-22z" />
<path style="fill:#b2b2b2;stroke:#000;stroke-width:2" d="M580,742 l-66,0 0,22 66,0 0,-22z" />
<path style="fill:#b2b2b2;stroke:#000;stroke-width:2" d="M499,742 l-66,0 0,22 66,0 0,-22z" />
<path style="fill:#b2b2b2;stroke:#000;stroke-width:2" d="M417,742 l-65,0 0,22 65,0 0,-22z" />
<path style="fill:#b2b2b2;stroke:#000;stroke-width:2" d="M336,742 l-66,0 0,22 66,0 0,-22z" />
<path style="fill:#b2b2b2;stroke:#000;stroke-width:2" d="M255,742 l-66,0 0,22 66,0 0,-22z" />
<path style="fill:#b2b2b2;stroke:#000;stroke-width:2" d="M174,742 l-66,0 0,22 66,0 0,-22z" />
<path style="fill:#b2b2b2;stroke:#000;stroke-width:2" d="M536,712 l-66,0 0,23 66,0 0,-23z" />
<path style="fill:#b2b2b2;stroke:#000;stroke-width:2" d="M455,712 l-66,0 0,23 66,0 0,-23z" />
<path style="fill:#b2b2b2;stroke:#000;stroke-width:2" d="M374,712 l-66,0 0,23 66,0 0,-23z" />
<path style="fill:#b2b2b2;stroke:#000;stroke-width:2" d="M293,712 l-66,0 0,23 66,0 0,-23z" />
<path style="fill:#b2b2b2;stroke:#000;stroke-width:2" d="M212,712 l-66,0 0,23 66,0 0,-23z" />
<path style="fill:#b2b2b2;stroke:#000;stroke-width:2" d="M131,712 l-66,0 0,23 66,0 0,-23z" />
<circle style="fill:#b2b2b2;stroke:#000;stroke-width:2" cx="75" cy="370" r="11" />
<circle style="fill:#b2b2b2;stroke:#000;stroke-width:2" cx="105" cy="370" r="11" />
<circle style="fill:#b2b2b2;stroke:#000;stroke-width:2" cx="134" cy="370" r="11" />
<circle style="fill:#b2b2b2;stroke:#000;stroke-width:2" cx="164" cy="370" r="11" />
<circle style="fill:#b2b2b2;stroke:#000;stroke-width:2" cx="193" cy="370" r="11" />
<circle style="fill:#b2b2b2;stroke:#000;stroke-width:2" cx="223" cy="370" r="11" />
<circle style="fill:#b2b2b2;stroke:#000;stroke-width:2" cx="252" cy="370" r="11" />
<circle style="fill:#b2b2b2;stroke:#000;stroke-width:2" cx="281" cy="370" r="11" />
<ellipse style="fill:#b2b2b2;stroke:#000;stroke-width:2" cx="396" cy="528" rx="29" ry="14" />
<ellipse style="fill:#b2b2b2;stroke:#000;stroke-width:2" cx="396" cy="477" rx="29" ry="15" />
<ellipse style="fill:#b2b2b2;stroke:#000;stroke-width:2" cx="396" cy="580" rx="29" ry="15" />
<circle style="fill:#b2b2b2;stroke:#000;stroke-width:2" cx="134" cy="687" r="11" />
<circle style="fill:#b2b2b2;stroke:#000;stroke-width:2" cx="164" cy="687" r="11" />
<circle style="fill:#b2b2b2;stroke:#000;stroke-width:2" cx="193" cy="687" r="11" />
<circle style="fill:#b2b2b2;stroke:#000;stroke-width:2" cx="223" cy="687" r="11" />
<circle style="fill:#b2b2b2;stroke:#000;stroke-width:2" cx="252" cy="687" r="11" />
<circle style="fill:#b2b2b2;stroke:#000;stroke-width:2" cx="281" cy="687" r="11" />
<path style="fill:#b2b2b2;stroke:#000;stroke-width:2" d="M581,190 l-472,0 0,73 472,0 0,-73z" />
<path style="fill:#b2b2b2;stroke:#000;stroke-width:2" d="M536,101 l-472,0 0,74 472,0 0,-74z" />
<path style="fill:#fff;stroke:#000;stroke-width:2" d="M550,190 l-14,0 0,-96 14,0 0,96z" />
<path style="fill:#fff;stroke:#000;stroke-width:2" d="M469,190 l-14,0 0,-96 14,0 0,96z" />
<path style="fill:#fff;stroke:#000;stroke-width:2" d="M388,190 l-14,0 0,-96 14,0 0,96z" />
<path style="fill:#fff;stroke:#000;stroke-width:2" d="M307,190 l-14,0 0,-96 14,0 0,96z" />
<path style="fill:#fff;stroke:#000;stroke-width:2" d="M226,190 l-14,0 0,-96 14,0 0,96z" />
<path style="fill:#fff;stroke:#000;stroke-width:2" d="M145,190 l-14,0 0,-96 14,0 0,96z" />
<path style="fill:#fff;stroke:#000;stroke-width:2" d="M65,190 l-15,0 0,-96 15,0 0,96z" />
<path style="fill:#fff;stroke:#000;stroke-width:2" d="M109,278 l-15,0 0,-96 15,0 0,96z" />
<path style="fill:#fff;stroke:#000;stroke-width:2" d="M189,278 l-14,0 0,-96 14,0 0,96z" />
<path style="fill:#fff;stroke:#000;stroke-width:2" d="M270,278 l-14,0 0,-96 14,0 0,96z" />
<path style="fill:#fff;stroke:#000;stroke-width:2" d="M352,278 l-15,0 0,-96 15,0 0,96z" />
<path style="fill:#fff;stroke:#000;stroke-width:2" d="M433,278 l-15,0 0,-96 15,0 0,96z" />
<path style="fill:#fff;stroke:#000;stroke-width:2" d="M595,278 l-15,0 0,-96 15,0 0,96z" />
<path style="fill:#fff;stroke:#000;stroke-width:2" d="M514,278 l-15,0 0,-96 15,0 0,96z" />
<path style="fill:#b2b2b2;stroke:#000;stroke-width:2" d="M581,875 l-472,0 0,73 472,0 0,-73z" />
<path style="fill:#b2b2b2;stroke:#000;stroke-width:2" d="M536,786 l-471,0 0,73 471,0 0,-73z" />
<path style="fill:#fff;stroke:#000;stroke-width:2" d="M550,875 l-14,0 0,-96 14,0 0,96z" />
<path style="fill:#fff;stroke:#000;stroke-width:2" d="M469,875 l-14,0 0,-96 14,0 0,96z" />
<path style="fill:#fff;stroke:#000;stroke-width:2" d="M388,875 l-14,0 0,-96 14,0 0,96z" />
<path style="fill:#fff;stroke:#000;stroke-width:2" d="M307,875 l-14,0 0,-96 14,0 0,96z" />
<path style="fill:#fff;stroke:#000;stroke-width:2" d="M226,875 l-14,0 0,-96 14,0 0,96z" />
<path style="fill:#fff;stroke:#000;stroke-width:2" d="M145,875 l-14,0 0,-96 14,0 0,96z" />
<path style="fill:#fff;stroke:#000;stroke-width:2" d="M65,875 l-15,0 0,-96 15,0 0,96z" />
<path style="fill:#fff;stroke:#000;stroke-width:2" d="M109,963 l-15,0 0,-96 15,0 0,96z" />
<path style="fill:#fff;stroke:#000;stroke-width:2" d="M514,963 l-15,0 0,-96 15,0 0,96z" />
<path style="fill:#fff;stroke:#000;stroke-width:2" d="M433,963 l-15,0 0,-96 15,0 0,96z" />
<path style="fill:#fff;stroke:#000;stroke-width:2" d="M352,963 l-15,0 0,-96 15,0 0,96z" />
<path style="fill:#fff;stroke:#000;stroke-width:2" d="M270,963 l-14,0 0,-96 14,0 0,96z" />
<path style="fill:#fff;stroke:#000;stroke-width:2" d="M189,963 l-14,0 0,-96 14,0 0,96z" />
<path style="fill:#fff;stroke:#000;stroke-width:2" d="M595,963 l-15,0 0,-96 15,0 0,96z" />
<path style="fill:#000" d="M42,779 l0,-7 560,0 0,14 -560,0 0,-7z" />
<path style="fill:#7f7f7f" d="M587,72 l0,14 29,0 0,-58 -29,0 0,14 3,1 3,1 2,1 2,2 2,2 2,3 0,3 1,2 -1,3 0,3 -2,2 -2,3 -2,2 -2,1 -3,1 -3,0z" />
<path style="fill:#7f7f7f" d="M587,42 l0,-14 -29,0 0,59 29,0 0,-15 -3,0 -3,-1 -2,-2 -2,-2 -2,-2 -2,-2 0,-3 0,-3 0,-3 0,-3 2,-2 2,-2 2,-2 2,-2 3,0 3,-1z" />

</svg>
