 

<svg xmlns:agg="http://www.example.com" xmlns="http://www.w3.org/2000/svg" preserveAspectRatio="none" width="1.0406in" height="1.0750in" viewBox="0 0 967 999">

<path style="fill:#630;stroke:#000;stroke-width:2" d="M483,328 l-32,0 -33,-140 -63,0 0,-85 128,0 128,0 0,85 -64,0 -32,140 -32,0z" />
<path style="fill:#630;stroke:#000;stroke-width:2" d="M483,149 l110,0 0,-7 -110,0 -109,0 0,7 109,0z" />
<path style="fill:#963;stroke:#000;stroke-width:2" d="M425,881 l-257,1 -141,-206 257,-309 25,0 78,77 0,26 -168,206 39,64 167,0 282,0 39,-64 -167,-206 0,-26 77,-77 26,0 257,309 -141,206 -373,-1z" />
<path style="fill:none;stroke:#000;stroke-width:2" d="M810,676 l-64,0" />
<path style="fill:none;stroke:#000;stroke-width:2" d="M156,676 l64,0" />
<path style="fill:none;stroke:#000;stroke-width:2" d="M258,740 l-38,52" />
<path style="fill:none;stroke:#000;stroke-width:2" d="M707,740 l26,52" />
<path style="fill:none;stroke:#000;stroke-width:2" d="M580,470 l102,-103" />
<path style="fill:none;stroke:#000;stroke-width:2" d="M387,470 l-103,-103" />
<path style="fill:#963;stroke:#000;stroke-width:2" d="M547,297 l91,90 -39,38 -116,-116 19,-121 13,-39 78,0 -20,45 -26,103z" />
<circle style="fill:#963;stroke:#000;stroke-width:2" cx="588" cy="145" r="15" />
<path style="fill:#963;stroke:#000;stroke-width:2" d="M419,297 l-90,90 39,38 115,-116 -18,-121 -14,-39 -77,0 20,45 25,103z" />
<circle style="fill:#963;stroke:#000;stroke-width:2" cx="377" cy="145" r="16" />
<path style="fill:#963;stroke:#000;stroke-width:2" d="M611,103 l-12,0 0,85 12,0 0,-85z" />
<path style="fill:#963;stroke:#000;stroke-width:2" d="M367,103 l-12,0 0,85 12,0 0,-85z" />
<path style="fill:#630;stroke:#000;stroke-width:2" d="M631,129 l-20,0 0,33 20,0 0,-33z" />
<path style="fill:#630;stroke:#000;stroke-width:2" d="M355,129 l-20,0 0,33 20,0 0,-33z" />
<path style="fill:#630;stroke:#000;stroke-width:2" d="M631,162 l39,6 -1,-45 -38,6 0,33z" />
<path style="fill:#630;stroke:#000;stroke-width:2" d="M335,129 l-38,-6 0,45 38,-6 0,-33z" />
<path style="fill:#963;stroke:#000;stroke-width:2" d="M670,265 l25,0 0,-238 -25,0 0,238z" />
<path style="fill:#963;stroke:#000;stroke-width:2" d="M271,265 l26,0 0,-238 -26,0 0,238z" />
<path style="fill:#30c;stroke:#000;stroke-width:2" d="M586,746 l-19,-19 -168,0 -18,19 0,206 18,19 168,0 19,-19 0,-206z" />
<circle style="fill:#ccc;stroke:#000;stroke-width:2" cx="566" cy="746" r="6" />
<path style="fill:none;stroke:#000;stroke-width:2" d="M567,753 l0,-13" />
<path style="fill:none;stroke:#000;stroke-width:2" d="M560,746 l13,0" />
<circle style="fill:#ccc;stroke:#000;stroke-width:2" cx="399" cy="746" r="5" />
<path style="fill:none;stroke:#000;stroke-width:2" d="M399,753 l0,-13" />
<path style="fill:none;stroke:#000;stroke-width:2" d="M394,746 l12,0" />
<circle style="fill:#ccc;stroke:#000;stroke-width:2" cx="566" cy="951" r="6" />
<path style="fill:none;stroke:#000;stroke-width:2" d="M567,958 l0,-13" />
<path style="fill:none;stroke:#000;stroke-width:2" d="M560,952 l13,0" />
<circle style="fill:#ccc;stroke:#000;stroke-width:2" cx="399" cy="951" r="5" />
<path style="fill:none;stroke:#000;stroke-width:2" d="M399,958 l0,-13" />
<path style="fill:none;stroke:#000;stroke-width:2" d="M394,952 l12,0" />
<circle style="fill:#30c;stroke:#000;stroke-width:2" cx="482" cy="849" r="83" />
<circle style="fill:#006;stroke:#7f7f7f;stroke-width:2" cx="482" cy="849" r="51" />
<circle style="fill:#30c;stroke:#7f7f7f;stroke-width:2" cx="482" cy="849" r="44" />
<path style="fill:none;stroke:#000;stroke-width:2" d="M599,117 l-84,0 0,-14" />
<path style="fill:none;stroke:#000;stroke-width:2" d="M451,103 l0,14 -84,-1" />
<path style="fill:none;stroke:#000;stroke-width:2" d="M502,129 l0,-12 -25,0 0,-7 -20,13 20,12 0,-6 25,0" />

</svg>
