 

<svg xmlns:agg="http://www.example.com" xmlns="http://www.w3.org/2000/svg" preserveAspectRatio="none" width="1.6083in" height="1.0529in" viewBox="0 0 999 654">

<path style="fill:#000" d="M952,608 l0,18 -834,0 -72,-36 0,-14 72,32 834,0z" />
<path style="fill:#7387a6;stroke:#000;stroke-width:2" d="M970,608 l0,-544 -870,0 0,544 870,0z" />
<path style="fill:#a6bad9;stroke:#000;stroke-width:2" d="M245,572 l0,-472 -72,0 0,472 72,0z" />
<path style="fill:#a6bad9;stroke:#000;stroke-width:2" d="M354,572 l0,-472 -73,0 0,472 73,0z" />
<path style="fill:#a6bad9;stroke:#000;stroke-width:2" d="M463,572 l0,-472 -73,0 0,472 73,0z" />
<path style="fill:#a6bad9;stroke:#000;stroke-width:2" d="M572,572 l0,-472 -73,0 0,472 73,0z" />
<path style="fill:#a6bad9;stroke:#000;stroke-width:2" d="M680,572 l0,-472 -72,0 0,472 72,0z" />
<path style="fill:#a6bad9;stroke:#000;stroke-width:2" d="M789,572 l0,-472 -72,0 0,472 72,0z" />
<path style="fill:#a6bad9;stroke:#000;stroke-width:2" d="M898,572 l0,-472 -72,0 0,472 72,0z" />
<path style="fill:#000" d="M880,336 l0,-55 -36,0 0,55 36,0z" />
<path style="fill:#000" d="M880,462 l0,-54 -36,0 0,54 36,0z" />
<path style="fill:#000" d="M880,390 l0,-36 -37,0 0,36 37,0z" />
<path style="fill:#000" d="M880,517 l0,-36 -36,0 0,36 36,0z" />
<path style="fill:#000" d="M772,336 l0,-54 -37,0 0,54 37,0z" />
<path style="fill:#000" d="M772,463 l0,-55 -37,0 0,55 37,0z" />
<path style="fill:#000" d="M771,391 l0,-37 -36,0 0,37 36,0z" />
<path style="fill:#000" d="M772,517 l0,-36 -37,0 0,36 37,0z" />
<path style="fill:#000" d="M663,336 l0,-54 -37,0 0,54 37,0z" />
<path style="fill:#000" d="M663,463 l0,-55 -37,0 0,55 37,0z" />
<path style="fill:#000" d="M662,391 l0,-37 -36,0 0,37 36,0z" />
<path style="fill:#000" d="M663,517 l0,-36 -37,0 0,36 37,0z" />
<path style="fill:#000" d="M762,572 l0,-37 -18,0 0,37 18,0z" />
<path style="fill:#000" d="M871,572 l0,-37 -18,0 0,37 18,0z" />
<path style="fill:#000" d="M871,136 l0,-36 -18,0 0,36 18,0z" />
<path style="fill:#000" d="M762,136 l0,-36 -18,0 0,36 18,0z" />
<path style="fill:#000" d="M653,136 l0,-36 -18,0 0,36 18,0z" />
<path style="fill:#000" d="M653,572 l0,-37 -18,0 0,37 18,0z" />
<path style="fill:#000" d="M218,327 l-18,0 0,18 18,0 0,-18z" />
<path style="fill:#000" d="M218,291 l-18,0 0,18 18,0 0,-18z" />
<path style="fill:#000" d="M218,363 l-18,0 0,18 18,0 0,-18z" />
<path style="fill:#000" d="M218,254 l-18,0 0,19 18,0 0,-19z" />
<path style="fill:#000" d="M218,399 l-18,0 0,18 18,0 0,-18z" />
<path style="fill:#000" d="M218,218 l-18,0 0,18 18,0 0,-18z" />
<path style="fill:#000" d="M218,435 l-18,0 0,19 18,0 0,-19z" />
<path style="fill:#000" d="M327,327 l-18,0 0,18 18,0 0,-18z" />
<path style="fill:#000" d="M327,291 l-18,0 0,18 18,0 0,-18z" />
<path style="fill:#000" d="M327,363 l-18,0 0,18 18,0 0,-18z" />
<path style="fill:#000" d="M327,254 l-18,0 0,19 18,0 0,-19z" />
<path style="fill:#000" d="M327,399 l-18,0 0,18 18,0 0,-18z" />
<path style="fill:#000" d="M327,218 l-18,0 0,18 18,0 0,-18z" />
<path style="fill:#000" d="M327,435 l-18,0 0,19 18,0 0,-19z" />
<path style="fill:#596d8c;stroke:#000;stroke-width:2" d="M100,64 l-72,-36 0,544 72,36 0,-544z" />
<path style="fill:#bfd3f2;stroke:#000;stroke-width:2" d="M100,64 l-72,-36 870,0 72,36 -870,0z" />

</svg>
