 

<svg xmlns:agg="http://www.example.com" xmlns="http://www.w3.org/2000/svg" preserveAspectRatio="none" width="0.2819in" height="1.0750in" viewBox="0 0 262 999">

<path style="fill:#7f7f7f;stroke:#000;stroke-width:2" d="M28,514 l206,0 0,456 -206,0 0,-456z" />
<path style="fill:#e5e5e5;stroke:#000;stroke-width:2" d="M28,190 l206,0 0,324 -206,0 0,-324z" />
<path style="fill:#e5e5e5;stroke:#000;stroke-width:2" d="M28,646 l206,0 0,30 -206,0 0,-30z" />
<path style="fill:#000;stroke:#000;stroke-width:2" d="M28,190 l0,-44 29,-15 -7,-8 0,-95 162,0 0,95 -8,8 30,15 0,44 -206,0z" />
<path style="fill:#000;stroke:#000;stroke-width:2" d="M28,455 l206,0 0,7 -206,0 0,-7z" />
<path style="fill:#000;stroke:#000;stroke-width:2" d="M28,425 l206,0 0,15 -206,0 0,-15z" />
<path style="fill:none;stroke:#7f7f7f;stroke-width:2" d="M50,116 l162,-15" />
<path style="fill:none;stroke:#7f7f7f;stroke-width:2" d="M50,101 l162,-14" />
<path style="fill:none;stroke:#7f7f7f;stroke-width:2" d="M50,87 l162,-15" />
<path style="fill:none;stroke:#7f7f7f;stroke-width:2" d="M50,72 l162,-15" />
<path style="fill:none;stroke:#7f7f7f;stroke-width:2" d="M50,57 l162,-15" />
<path style="fill:none;stroke:#000;stroke-width:2" d="M42,425 l0,-235" />
<path style="fill:none;stroke:#000;stroke-width:2" d="M65,425 l0,-235" />
<path style="fill:none;stroke:#000;stroke-width:2" d="M86,425 l0,-235" />
<path style="fill:none;stroke:#000;stroke-width:2" d="M108,425 l0,-235" />
<path style="fill:none;stroke:#000;stroke-width:2" d="M130,425 l0,-235" />
<path style="fill:none;stroke:#000;stroke-width:2" d="M152,425 l0,-235" />
<path style="fill:none;stroke:#000;stroke-width:2" d="M174,425 l0,-235" />
<path style="fill:none;stroke:#000;stroke-width:2" d="M196,425 l0,-235" />
<path style="fill:none;stroke:#000;stroke-width:2" d="M218,425 l0,-235" />
<ellipse style="fill:#fff;stroke:#000;stroke-width:2" cx="130" cy="815" rx="88" ry="66" />
<path style="fill:none;stroke:#000;stroke-width:2" d="M204,131 l-147,0" />
<path style="fill:none;stroke:#000;stroke-width:2" d="M28,146 l206,0" />

</svg>
