 

<svg xmlns:agg="http://www.example.com" xmlns="http://www.w3.org/2000/svg" preserveAspectRatio="none" width="0.4401in" height="1.0750in" viewBox="0 0 409 999">

<path style="fill:#9ff;stroke:#000;stroke-width:2" d="M116,263 l-88,-36 0,-162 88,-37 258,0 7,22 0,199 -258,0 -7,14z" />
<path style="fill:#000;stroke:#000;stroke-width:2" d="M249,970 l0,-294 14,-15 0,-44 59,0 0,44 15,15 0,294 -88,0z" />
<path style="fill:#9ff;stroke:#000;stroke-width:2" d="M234,249 l118,0 0,118 -118,0 0,-118z" />
<path style="fill:#7f7f7f;stroke:#000;stroke-width:2" d="M286,367 l14,0 0,250 -14,0 0,-250z" />
<path style="fill:none;stroke:#000;stroke-width:2" d="M263,617 l59,0 0,59 -59,0 0,-59" />
<path style="fill:#e5e5e5;stroke:#000;stroke-width:2" d="M249,676 l73,0 0,265 -73,0 0,-265z" />
<path style="fill:#7f7f7f" d="M263,690 l15,0 0,236 -15,0 0,-236z" />
<path style="fill:#fff" d="M278,690 l8,0 0,236 -8,0 0,-236z" />
<path style="fill:none;stroke:#fff;stroke-width:2" d="M271,661 l44,0" />
<path style="fill:#0ff;stroke:#000;stroke-width:2" d="M234,367 l-15,-15 1,-89 -103,0 -89,-36 0,-162 7,22 0,125 88,37 111,0 0,118z" />
<path style="fill:#0ff;stroke:#000;stroke-width:2" d="M35,87 l88,-37 258,0 -7,-22 -258,0 -88,37 7,22z" />
<path style="fill:none;stroke:#000;stroke-width:2" d="M116,28 l7,22 0,198" />
<path style="fill:none;stroke:#000;stroke-width:2" d="M35,212 l-7,15" />
<path style="fill:none;stroke:#000;stroke-width:2" d="M123,249 l-7,14" />
<path style="fill:none;stroke:#000;stroke-width:2" d="M219,263 l15,-14" />
<path style="fill:#fc0;stroke:#7f7f7f;stroke-width:2" d="M300,57 l59,0 0,184 -59,0 0,-184z" />
<path style="fill:#fc0;stroke:#000;stroke-width:2" d="M28,227 l7,-15 0,-125 -7,-22 0,162z" />
<ellipse style="fill:#0ff;stroke:#000;stroke-width:2" cx="31" cy="145" rx="3" ry="44" />
<path style="fill:#000;stroke:#000;stroke-width:2" d="M32,123 l3,10 0,8 0,13 -2,10 -1,4 -4,-10 0,-8 0,-13 2,-10 2,-4z" />
<circle style="fill:#ff0;stroke:#000;stroke-width:2" cx="186" cy="216" r="11" />
<circle style="fill:#e5e5e5" cx="186" cy="171" r="11" />
<circle style="fill:#e5e5e5" cx="186" cy="127" r="11" />
<circle style="fill:#e5e5e5" cx="186" cy="83" r="11" />
<path style="fill:none;stroke:#000;stroke-width:2" d="M42,72 l67,-30" />
<path style="fill:none;stroke:#000;stroke-width:2" d="M35,219 l66,30" />
<path style="fill:#7f7f7f;stroke:#000;stroke-width:2" d="M42,138 l74,0 0,15 -74,0 0,-15z" />
<circle style="fill:#ccc" cx="223" cy="149" r="11" />
<circle style="fill:#ccc" cx="267" cy="149" r="11" />
<path style="fill:#fff;stroke:#000;stroke-width:2" d="M249,779 l59,0 0,73 -59,0 0,-73z" />

</svg>
