 

<svg xmlns:agg="http://www.example.com" xmlns="http://www.w3.org/2000/svg" preserveAspectRatio="none" width="1.6083in" height="0.9121in" viewBox="0 0 998 566">

<path style="fill:#e5e5e5;stroke:#000;stroke-width:2" d="M951,400 l0,-78 -59,9 0,59 59,10z" />
<path style="fill:#e5e5e5;stroke:#000;stroke-width:2" d="M892,184 l0,40 -20,9 0,305 -747,0 0,-305 -19,-10 0,-39 786,0z" />
<path style="fill:#e5e5e5;stroke:#000;stroke-width:2" d="M892,184 l-9,-157 -768,0 -9,157 786,0z" />
<path style="fill:#e5e5e5;stroke:#000;stroke-width:2" d="M47,400 l0,-78 59,9 0,59 -59,10z" />
<path style="fill:#b2b2b2" d="M47,395 l0,-24 59,1 0,14 -59,9z" />
<path style="fill:#b2b2b2" d="M951,395 l0,-24 -59,1 0,14 59,9z" />
<path style="fill:#000" d="M106,184 l0,-10 786,0 0,20 -786,0 0,-10z" />
<path style="fill:#f00" d="M322,56 l-167,0 0,20 167,0 0,-20z" />
<path style="fill:#b2b2b2;stroke:#000;stroke-width:2" d="M833,125 l-157,0 0,40 157,0 0,-40z" />
<path style="fill:#b2b2b2;stroke:#000;stroke-width:2" d="M872,459 l-747,0 0,79 747,0 0,-79z" />
<path style="fill:#fff" d="M951,326 l0,25 -59,0 0,-15 59,-10z" />
<path style="fill:#fff" d="M47,326 l0,25 59,0 0,-15 -59,-10z" />
<path style="fill:#e5e5e5;stroke:#000;stroke-width:2" d="M971,243 l-20,0 0,236 20,0 0,-236z" />
<path style="fill:#e5e5e5;stroke:#000;stroke-width:2" d="M872,449 l20,0 0,-177 -20,0 0,177z" />
<path style="fill:#e5e5e5;stroke:#000;stroke-width:2" d="M126,449 l-20,0 0,-177 20,0 0,177z" />
<path style="fill:#e5e5e5;stroke:#000;stroke-width:2" d="M27,243 l20,0 0,236 -20,0 0,-236z" />
<path style="fill:#fff" d="M966,258 l-10,0 0,78 10,0 0,-78z" />
<path style="fill:#fff" d="M887,282 l-9,0 0,69 9,0 0,-69z" />
<path style="fill:#fff" d="M111,282 l10,0 0,69 -10,0 0,-69z" />
<path style="fill:#fff" d="M32,258 l10,0 0,78 -10,0 0,-78z" />
<path style="fill:#b2b2b2" d="M966,465 l-10,0 0,-94 10,0 0,94z" />
<path style="fill:#b2b2b2" d="M887,440 l-9,0 0,-69 9,0 0,69z" />
<path style="fill:#b2b2b2" d="M111,440 l10,0 0,-69 -10,0 0,69z" />
<path style="fill:#b2b2b2" d="M32,465 l10,0 0,-94 -10,0 0,94z" />

</svg>
