 

<svg xmlns:agg="http://www.example.com" xmlns="http://www.w3.org/2000/svg" preserveAspectRatio="none" width="0.6172in" height="1.0750in" viewBox="0 0 573 998">

<circle style="fill:#f00;stroke:#000;stroke-width:2" cx="94" cy="453" r="66" />
<path style="fill:#e5e5e5;stroke:#000;stroke-width:2" d="M77,370 l9,-301 451,0 8,301 -468,0z" />
<path style="fill:#f00;stroke:#000;stroke-width:2" d="M77,370 l9,167 451,0 8,-167 -468,0z" />
<path style="fill:#7f7f7f" d="M86,361 l8,-284 34,0 0,284 -42,0z" />
<path style="fill:#7f7f7f" d="M378,361 l0,-284 17,0 8,284 -25,0z" />
<path style="fill:#fff" d="M378,77 l0,284 -17,0 -8,-284 25,0z" />
<path style="fill:#fff;stroke:#000;stroke-width:2" d="M537,520 l-126,0 9,-134 125,0 -8,134z" />
<path style="fill:#fff;stroke:#000;stroke-width:2" d="M144,411 l201,0 0,84 -201,0 0,-84z" />
<path style="fill:#000" d="M103,386 l-4,0 8,143 8,-1 -9,-142 -3,0z" />
<path style="fill:#7f7f7f;stroke:#000;stroke-width:2" d="M261,28 l16,0 0,41 -66,0 0,-41 17,0 1,10 3,8 9,7 10,-2 7,-9 3,-9 0,-5z" />
<path style="fill:#7f7f7f;stroke:#000;stroke-width:2" d="M395,28 l16,0 0,41 -66,0 0,-41 16,0 2,10 3,8 9,7 10,-2 7,-9 2,-9 1,-5z" />
<path style="fill:#f00;stroke:#000;stroke-width:2" d="M328,537 l17,100 133,-1 17,-99 -167,0z" />
<path style="fill:#7f7f7f;stroke:#000;stroke-width:2" d="M361,637 l100,0 0,50 -100,0 0,-50z" />
<path style="fill:#b2b2b2;stroke:#000;stroke-width:2" d="M370,687 l83,0 0,283 -83,0 0,-283z" />
<path style="fill:#000" d="M386,703 l-4,0 0,242 8,0 0,-242 -4,0z" />
<path style="fill:#000" d="M361,545 l-3,0 8,75 7,-1 -8,-75 -4,1z" />

</svg>
