 

<svg xmlns:agg="http://www.example.com" xmlns="http://www.w3.org/2000/svg" preserveAspectRatio="none" width="0.4832in" height="1.0750in" viewBox="0 0 449 999">

<path style="fill:#000;stroke:#000;stroke-width:2" d="M420,28 l-392,0 0,942 392,0 0,-942z" />
<path style="fill:none;stroke:#0ff;stroke-width:2" d="M401,126 l-354,0" />
<path style="fill:none;stroke:#7f7f7f;stroke-width:2" d="M411,38 l-138,0 0,922 138,0 0,-922" />
<path style="fill:none;stroke:#7f7f7f;stroke-width:2" d="M273,38 l-98,0 0,922 98,0 0,-922" />
<path style="fill:none;stroke:#7f7f7f;stroke-width:2" d="M175,38 l-137,0 0,922 137,0 0,-922" />
<path style="fill:#0f0;stroke:#000;stroke-width:2" d="M390,367 l-95,0 0,157 95,0 0,-157z" />
<path style="fill:#7f7f7f;stroke:#000;stroke-width:2" d="M386,372 l-87,0 0,147 87,0 0,-147z" />
<path style="fill:#0f0;stroke:#000;stroke-width:2" d="M366,367 l-47,0 0,157 47,0 0,-157z" />
<path style="fill:none;stroke:#000;stroke-width:2" d="M357,376 l0,139" />
<path style="fill:none;stroke:#000;stroke-width:2" d="M328,376 l0,139" />
<path style="fill:#0f0;stroke:#000;stroke-width:2" d="M390,190 l-95,0 0,157 95,0 0,-157z" />
<path style="fill:#7f7f7f;stroke:#000;stroke-width:2" d="M386,196 l-87,0 0,147 87,0 0,-147z" />
<path style="fill:#0f0;stroke:#000;stroke-width:2" d="M366,190 l-47,0 0,157 47,0 0,-157z" />
<path style="fill:none;stroke:#000;stroke-width:2" d="M357,200 l0,138" />
<path style="fill:none;stroke:#000;stroke-width:2" d="M328,200 l0,138" />
<path style="fill:#0f0;stroke:#000;stroke-width:2" d="M387,563 l-94,0 0,125 94,0 0,-125z" />
<path style="fill:#7f7f7f;stroke:#000;stroke-width:2" d="M383,567 l-86,0 0,118 86,0 0,-118z" />
<path style="fill:#0f0;stroke:#000;stroke-width:2" d="M364,563 l-47,0 0,125 47,0 0,-125z" />
<path style="fill:none;stroke:#000;stroke-width:2" d="M355,571 l0,111" />
<path style="fill:none;stroke:#000;stroke-width:2" d="M326,571 l0,111" />
<path style="fill:#0f0;stroke:#000;stroke-width:2" d="M387,705 l-94,0 0,126 94,0 0,-126z" />
<path style="fill:#7f7f7f;stroke:#000;stroke-width:2" d="M383,710 l-86,0 0,117 86,0 0,-117z" />
<path style="fill:#0f0;stroke:#000;stroke-width:2" d="M364,705 l-47,0 0,126 47,0 0,-126z" />
<path style="fill:none;stroke:#000;stroke-width:2" d="M355,713 l0,111" />
<path style="fill:none;stroke:#000;stroke-width:2" d="M326,713 l0,111" />
<circle style="fill:#000;stroke:#7f7f7f;stroke-width:2" cx="376" cy="82" r="15" />
<path style="fill:none;stroke:#fff;stroke-width:2" d="M387,92 l0,-1 1,-1 1,-1 1,-2 0,-1 1,-1 0,-2 0,-1 0,-3 -1,-3 -2,-2 -1,-3 -3,-1 -2,-2 -3,-1 -3,0 -1,0 -2,0 -1,1 -1,0 -2,1 -1,1 -1,0 -1,1" />
<circle style="fill:#000;stroke:#7f7f7f;stroke-width:2" cx="239" cy="82" r="15" />
<path style="fill:none;stroke:#fff;stroke-width:2" d="M249,92 l1,-1 1,-1 1,-1 0,-2 1,-1 0,-1 1,-2 0,-1 -1,-3 -1,-3 -1,-2 -2,-3 -2,-1 -2,-2 -3,-1 -3,0 -2,0 -1,0 -2,1 -1,0 -1,1 -1,1 -2,0 0,1" />
<circle style="fill:#000;stroke:#7f7f7f;stroke-width:2" cx="140" cy="82" r="14" />
<path style="fill:none;stroke:#fff;stroke-width:2" d="M151,92 l1,-1 1,-1 0,-1 1,-2 1,-1 0,-1 0,-2 0,-1 0,-3 -1,-3 -1,-2 -2,-3 -2,-1 -3,-2 -3,-1 -2,0 -2,0 -1,0 -2,1 -1,0 -1,1 -2,1 -1,0 -1,1" />
<circle style="fill:#633;stroke:#7f7f7f;stroke-width:2" cx="374" cy="163" r="7" />
<circle style="fill:#633;stroke:#7f7f7f;stroke-width:2" cx="236" cy="163" r="7" />
<circle style="fill:#f00;stroke:#ff0;stroke-width:2" cx="138" cy="163" r="7" />
<path style="fill:#191919" d="M244,190 l-40,0 0,108 40,0 0,-108z" />
<path style="fill:#7f7f7f;stroke:#000;stroke-width:2" d="M224,200 l-7,3 -3,7 3,6 7,3 6,-3 3,-6 -3,-7 -6,-3z" />
<path style="fill:#7f7f7f;stroke:#000;stroke-width:2" d="M224,234 l-6,3 -3,7 3,7 6,2 7,-2 3,-7 -3,-7 -7,-3z" />
<path style="fill:#7f7f7f;stroke:#000;stroke-width:2" d="M224,268 l-8,5 -2,5 5,9 5,2 9,-5 1,-6 -4,-8 -6,-2z" />
<path style="fill:#191919" d="M244,700 l-40,0 0,108 40,0 0,-108z" />
<path style="fill:#7f7f7f;stroke:#000;stroke-width:2" d="M224,711 l-7,3 -3,6 3,7 7,3 6,-3 3,-7 -3,-6 -6,-3z" />
<path style="fill:#7f7f7f;stroke:#000;stroke-width:2" d="M224,745 l-6,3 -3,7 3,6 6,3 7,-3 3,-6 -3,-7 -7,-3z" />
<path style="fill:#7f7f7f;stroke:#000;stroke-width:2" d="M224,779 l-8,5 -2,5 5,8 5,2 9,-5 1,-5 -4,-8 -6,-2z" />
<path style="fill:#191919" d="M244,445 l-40,0 0,108 40,0 0,-108z" />
<path style="fill:#7f7f7f;stroke:#000;stroke-width:2" d="M224,455 l-7,3 -3,7 5,8 5,1 8,-4 2,-5 -5,-8 -5,-2z" />
<path style="fill:#7f7f7f;stroke:#000;stroke-width:2" d="M224,490 l-6,3 -3,6 3,7 6,3 7,-3 3,-7 -3,-6 -7,-3z" />
<path style="fill:#7f7f7f;stroke:#000;stroke-width:2" d="M224,524 l-7,2 -3,7 3,7 7,2 6,-2 3,-7 -3,-7 -6,-2z" />
<path style="fill:#7f7f7f;stroke:#000;stroke-width:2" d="M214,666 l0,-79 20,10 0,59 -20,10z" />
<circle style="fill:#7f7f7f;stroke:#000;stroke-width:2" cx="224" cy="582" r="10" />
<circle style="fill:#7f7f7f;stroke:#000;stroke-width:2" cx="224" cy="671" r="10" />
<path style="fill:#633;stroke:#000;stroke-width:2" d="M244,322 l-40,0 0,39 40,0 0,-39z" />
<path style="fill:#7f7f7f" d="M244,322 l-10,0 0,39 10,0 0,-39z" />
<path style="fill:#191919;stroke:#7f7f7f;stroke-width:2" d="M146,224 l-79,0 0,64 79,0 0,-64z" />
<path style="fill:#000;stroke:#000;stroke-width:2" d="M136,234 l-25,0 0,5 25,0 0,-5z" />
<path style="fill:#000;stroke:#000;stroke-width:2" d="M136,254 l-25,0 0,5 25,0 0,-5z" />
<path style="fill:#000;stroke:#000;stroke-width:2" d="M136,273 l-25,0 0,5 25,0 0,-5z" />
<path style="fill:#000;stroke:#000;stroke-width:2" d="M102,234 l-8,0 0,5 8,0 0,-5z" />
<path style="fill:#000;stroke:#000;stroke-width:2" d="M102,254 l-8,0 0,5 8,0 0,-5z" />
<path style="fill:#000;stroke:#000;stroke-width:2" d="M102,273 l-8,0 0,5 8,0 0,-5z" />
<ellipse style="fill:#000;stroke:#000;stroke-width:2" cx="81" cy="236" rx="4" ry="2" />
<ellipse style="fill:#000;stroke:#000;stroke-width:2" cx="81" cy="275" rx="4" ry="2" />
<ellipse style="fill:#000;stroke:#000;stroke-width:2" cx="81" cy="256" rx="4" ry="2" />
<path style="fill:none;stroke:#7f7f7f;stroke-width:2" d="M126,791 l0,-222 -39,-21 0,270 39,-27" />
<circle style="fill:#000;stroke:#7f7f7f;stroke-width:2" cx="376" cy="926" r="15" />
<path style="fill:none;stroke:#fff;stroke-width:2" d="M387,936 l0,-1 1,-1 1,-1 1,-1 0,-2 1,-1 0,-1 0,-2 0,-3 -1,-3 -2,-2 -1,-2 -3,-2 -2,-2 -3,-1 -3,0 -1,0 -2,0 -1,1 -1,0 -2,1 -1,1 -1,1 -1,1" />
<circle style="fill:#000;stroke:#7f7f7f;stroke-width:2" cx="239" cy="926" r="15" />
<path style="fill:none;stroke:#fff;stroke-width:2" d="M249,936 l1,-1 1,-1 1,-1 0,-1 1,-2 0,-1 1,-1 0,-2 -1,-3 -1,-3 -1,-2 -2,-2 -2,-2 -2,-2 -3,-1 -3,0 -2,0 -1,0 -2,1 -1,0 -1,1 -1,1 -2,1 0,1" />
<circle style="fill:#000;stroke:#7f7f7f;stroke-width:2" cx="140" cy="926" r="14" />
<path style="fill:none;stroke:#fff;stroke-width:2" d="M151,936 l1,-1 1,-1 0,-1 1,-1 1,-2 0,-1 0,-1 0,-2 0,-3 -1,-3 -1,-2 -2,-2 -2,-2 -3,-2 -3,-1 -2,0 -2,0 -1,0 -2,1 -1,0 -1,1 -2,1 -1,1 -1,1" />
<path style="fill:none;stroke:#fff;stroke-width:2" d="M411,38 l-373,0" />

</svg>
