 

<svg xmlns:agg="http://www.example.com" xmlns="http://www.w3.org/2000/svg" preserveAspectRatio="none" width="1.6083in" height="1.0078in" viewBox="0 0 999 626">

<path style="fill:#b2b2b2" d="M970,126 l-942,0 0,471 942,0 0,-471z" />
<path style="fill:#ccc" d="M695,126 l-648,0 0,-20 99,0 19,-78 79,0 19,78 216,0 20,-78 79,0 19,78 98,0 0,20z" />
<path style="fill:#999" d="M970,264 l-275,0 0,224 275,0 0,-224z" />
<path style="fill:#999" d="M695,489 l-667,0 0,108 667,0 0,-108z" />
<path style="fill:#999" d="M695,126 l-108,0 0,137 108,0 0,-137z" />
<path style="fill:#999" d="M480,126 l-109,0 0,137 109,0 0,-137z" />
<path style="fill:#999" d="M263,126 l-108,0 0,137 108,0 0,-137z" />
<path style="fill:#999" d="M47,126 l-19,0 0,137 19,0 0,-137z" />
<path style="fill:none;stroke:#000;stroke-width:2" d="M28,597 l0,-471 19,0 0,-20 99,0 19,-78 79,0 19,78 216,0 20,-78 79,0 19,78 98,0 0,20 275,0 0,471 -942,0" />
<path style="fill:#e5e5e5;stroke:#000;stroke-width:2" d="M587,264 l-540,0 0,333 540,0 0,-333z" />
<path style="fill:none;stroke:#000;stroke-width:2" d="M587,283 l-540,0" />
<path style="fill:none;stroke:#000;stroke-width:2" d="M587,322 l-540,0" />
<path style="fill:none;stroke:#000;stroke-width:2" d="M587,362 l-540,0" />
<path style="fill:none;stroke:#000;stroke-width:2" d="M587,401 l-540,0" />
<path style="fill:none;stroke:#000;stroke-width:2" d="M587,440 l-540,0" />
<path style="fill:none;stroke:#000;stroke-width:2" d="M587,480 l-540,0" />
<path style="fill:none;stroke:#000;stroke-width:2" d="M587,519 l-540,0" />
<path style="fill:none;stroke:#000;stroke-width:2" d="M587,558 l-540,0" />
<path style="fill:none;stroke:#000;stroke-width:2" d="M587,303 l-540,0" />
<path style="fill:none;stroke:#000;stroke-width:2" d="M587,342 l-540,0" />
<path style="fill:none;stroke:#000;stroke-width:2" d="M587,381 l-540,0" />
<path style="fill:none;stroke:#000;stroke-width:2" d="M587,420 l-540,0" />
<path style="fill:none;stroke:#000;stroke-width:2" d="M587,460 l-540,0" />
<path style="fill:none;stroke:#000;stroke-width:2" d="M587,499 l-540,0" />
<path style="fill:none;stroke:#000;stroke-width:2" d="M587,538 l-540,0" />
<path style="fill:none;stroke:#000;stroke-width:2" d="M587,578 l-540,0" />
<path style="fill:none;stroke:#000;stroke-width:2" d="M479,263 l0,334" />
<path style="fill:none;stroke:#000;stroke-width:2" d="M371,263 l0,334" />
<path style="fill:none;stroke:#000;stroke-width:2" d="M263,263 l0,334" />
<path style="fill:none;stroke:#000;stroke-width:2" d="M155,263 l0,334" />
<path style="fill:#a6bad9" d="M146,165 l0,-19 -89,0 0,19 89,0z" />
<path style="fill:#a6bad9" d="M254,165 l0,-19 -89,0 0,19 89,0z" />
<path style="fill:#a6bad9" d="M362,165 l0,-19 -89,0 0,19 89,0z" />
<path style="fill:#a6bad9" d="M469,165 l0,-19 -88,0 0,19 88,0z" />
<path style="fill:#a6bad9" d="M578,165 l0,-19 -89,0 0,19 89,0z" />
<path style="fill:#a6bad9" d="M686,165 l0,-19 -89,0 0,19 89,0z" />
<path style="fill:#a6bad9" d="M146,185 l-30,0 0,59 30,0 0,-59z" />
<path style="fill:#a6bad9" d="M239,185 l-59,0 0,59 59,0 0,-59z" />
<path style="fill:#a6bad9" d="M303,185 l-30,0 0,59 30,0 0,-59z" />
<path style="fill:#a6bad9" d="M563,185 l-59,0 0,59 59,0 0,-59z" />
<path style="fill:#900" d="M725,165 l0,20 29,0 0,-20 -29,0z" />
<path style="fill:#900" d="M676,195 l-20,0 0,49 20,0 0,-49z" />
<path style="fill:#900" d="M459,195 l-19,0 0,49 19,0 0,-49z" />

</svg>
