 

<svg xmlns:agg="http://www.example.com" xmlns="http://www.w3.org/2000/svg" preserveAspectRatio="none" width="0.7124in" height="1.0750in" viewBox="0 0 662 999">

<path style="fill:#7f7f7f;stroke:#000;stroke-width:2" d="M44,634 l0,151 236,16 101,0 236,-16 0,-151 -573,0z" />
<path style="fill:#000;stroke:#000;stroke-width:2" d="M28,95 l606,0 0,539 -606,0 0,-539z" />
<path style="fill:#ff0;stroke:#000;stroke-width:2" d="M28,28 l606,0 0,67 -606,0 0,-67z" />
<path style="fill:none;stroke:#000;stroke-width:2" d="M280,650 l101,0 0,135 -101,0 0,-135" />
<path style="fill:#000;stroke:#000;stroke-width:2" d="M230,684 l34,0 0,101 -34,0 0,-101z" />
<path style="fill:#000;stroke:#000;stroke-width:2" d="M398,684 l34,0 0,101 -34,0 0,-101z" />
<circle style="fill:#000;stroke:#000;stroke-width:2" cx="128" cy="701" r="50" />
<circle style="fill:#000;stroke:#000;stroke-width:2" cx="532" cy="701" r="50" />
<path style="fill:#ff0;stroke:#000;stroke-width:2" d="M78,128 l84,0 0,34 -84,0 0,-34z" />
<path style="fill:none;stroke:#ff0;stroke-width:2" d="M78,196 l354,0" />
<path style="fill:none;stroke:#ff0;stroke-width:2" d="M78,230 l219,0" />
<path style="fill:#ff0;stroke:#000;stroke-width:2" d="M179,128 l202,0 0,34 -202,0 0,-34z" />
<path style="fill:none;stroke:#000;stroke-width:2" d="M230,785 l-169,-17" />
<path style="fill:none;stroke:#000;stroke-width:2" d="M432,785 l168,-17" />
<circle style="fill:#000;stroke:#000;stroke-width:2" cx="333" cy="715" r="30" />
<circle style="fill:none;stroke:#000;stroke-width:2" cx="333" cy="716" r="36" />
<path style="fill:#7f7f7f;stroke:#000;stroke-width:2" d="M280,802 l101,0 0,168 -101,0 0,-168z" />
<path style="fill:none;stroke:#000;stroke-width:2" d="M263,869 l135,-17" />
<path style="fill:none;stroke:#000;stroke-width:2" d="M263,886 l135,-17" />
<path style="fill:none;stroke:#000;stroke-width:2" d="M263,903 l135,-17" />
<path style="fill:none;stroke:#000;stroke-width:2" d="M263,920 l135,-17" />
<path style="fill:none;stroke:#000;stroke-width:2" d="M263,937 l135,-17" />
<path style="fill:none;stroke:#000;stroke-width:2" d="M263,954 l135,-17" />
<path style="fill:none;stroke:#ff0;stroke-width:2" d="M78,583 l286,0" />

</svg>
