 

<svg xmlns:agg="http://www.example.com" xmlns="http://www.w3.org/2000/svg" preserveAspectRatio="none" width="0.7360in" height="1.0750in" viewBox="0 0 684 999">

<path style="fill:#0ff;stroke:#000;stroke-width:2" d="M499,342 l0,-275 -1,-7 -2,-7 -4,-7 -5,-6 -6,-5 -7,-4 -7,-2 -7,-1 -314,0 -8,1 -7,2 -6,4 -6,5 -5,6 -4,7 -3,7 -1,7 0,275 393,0z" />
<path style="fill:#0ff;stroke:#000;stroke-width:2" d="M460,342 l-40,127 -235,0 -39,-127 314,0z" />
<path style="fill:#0ff;stroke:#000;stroke-width:2" d="M381,578 l-10,-20 -9,-79 9,0 0,-10 -137,0 0,10 10,0 -10,79 -10,20 157,0z" />
<path style="fill:#0ff;stroke:#000;stroke-width:2" d="M392,578 l-178,0 0,39 178,0 0,-39z" />
<path style="fill:#0ff;stroke:#000;stroke-width:2" d="M87,970 l0,-392 -59,0 0,392 59,0z" />
<path style="fill:#0ff;stroke:#000;stroke-width:2" d="M597,872 l-9,-27 -17,-25 -27,-8 -6,1 -118,20 -39,10 -196,0 -20,-10 -31,3 -27,14 -16,21 -3,6 -1,5 0,-246 12,23 22,13 25,4 0,-60 314,0 0,60 78,19 27,-8 22,-20 10,-23 0,-8 0,236z" />
<path style="fill:#0ff;stroke:#000;stroke-width:2" d="M656,970 l0,-392 -59,0 0,392 59,0z" />
<path style="fill:#0ff;stroke:#000;stroke-width:2" d="M204,607 l-39,0 0,10 39,0 0,-10z" />
<path style="fill:#0ff;stroke:#000;stroke-width:2" d="M440,607 l-39,0 0,10 39,0 0,-10z" />
<path style="fill:none;stroke:#000;stroke-width:2" d="M322,607 l-39,0 0,10 39,0 0,-10" />
<path style="fill:none;stroke:#000;stroke-width:2" d="M460,617 l-314,0" />
<path style="fill:none;stroke:#000;stroke-width:2" d="M460,676 l-79,19 -196,0 -39,-19" />
<path style="fill:none;stroke:#000;stroke-width:2" d="M420,833 l0,-147" />
<path style="fill:none;stroke:#000;stroke-width:2" d="M381,843 l0,-148" />
<path style="fill:none;stroke:#000;stroke-width:2" d="M185,843 l0,-148" />
<path style="fill:none;stroke:#000;stroke-width:2" d="M165,833 l0,-147" />
<path style="fill:none;stroke:#000;stroke-width:2" d="M361,479 l-117,0" />
<path style="fill:none;stroke:#000;stroke-width:2" d="M332,578 l20,-99" />
<path style="fill:none;stroke:#000;stroke-width:2" d="M342,479 l-30,99" />
<path style="fill:none;stroke:#000;stroke-width:2" d="M254,479 l19,99" />
<path style="fill:none;stroke:#000;stroke-width:2" d="M293,578 l-30,-99" />
<path style="fill:none;stroke:#000;stroke-width:2" d="M371,469 l10,-88 10,-10 39,0 20,-29" />
<path style="fill:none;stroke:#000;stroke-width:2" d="M234,469 l-10,-88 -10,-10 -39,0 -20,-29" />
<path style="fill:none;stroke:#000;stroke-width:2" d="M401,469 l0,-98" />
<path style="fill:none;stroke:#000;stroke-width:2" d="M204,469 l0,-98" />
<path style="fill:none;stroke:#000;stroke-width:2" d="M430,371 l0,10 -19,0" />
<path style="fill:none;stroke:#000;stroke-width:2" d="M411,381 l0,-10" />
<path style="fill:none;stroke:#000;stroke-width:2" d="M175,371 l0,10 20,0 0,-10" />
<path style="fill:none;stroke:#000;stroke-width:2" d="M479,342 l0,-265 0,-7 -2,-6 -2,-5 -3,-5 -4,-3 -5,-2 -6,-1 -7,-1 -295,0 -7,1 -6,1 -5,2 -4,3 -3,5 -2,5 -2,6 0,7 0,265" />
<path style="fill:none;stroke:#000;stroke-width:2" d="M430,116 l-255,0 0,157 255,0 0,-157" />
<path style="fill:none;stroke:#000;stroke-width:2" d="M411,136 l-216,0 0,118 216,0 0,-118" />
<ellipse style="fill:none;stroke:#000;stroke-width:2" cx="302" cy="87" rx="117" ry="10" />
<ellipse style="fill:none;stroke:#000;stroke-width:2" cx="302" cy="302" rx="117" ry="9" />
<path style="fill:none;stroke:#000;stroke-width:2" d="M440,312 l7,-3 3,-7 -3,-6 -7,-3 -7,3 -3,6 3,7 7,3" />
<path style="fill:none;stroke:#000;stroke-width:2" d="M165,312 l7,-3 3,-7 -3,-6 -7,-3 -7,3 -3,6 3,7 7,3" />
<path style="fill:none;stroke:#000;stroke-width:2" d="M440,97 l7,-4 3,-6 -3,-7 -7,-3 -7,3 -3,7 3,6 7,4" />
<path style="fill:none;stroke:#000;stroke-width:2" d="M165,97 l7,-4 3,-6 -3,-7 -7,-3 -7,3 -3,7 3,6 7,4" />

</svg>
