 

<svg xmlns:agg="http://www.example.com" xmlns="http://www.w3.org/2000/svg" preserveAspectRatio="none" width="0.7360in" height="1.0750in" viewBox="0 0 684 999">

<path style="fill:#fff;stroke:#000;stroke-width:2" d="M438,328 l-192,0 0,82 192,0 0,-82z" />
<path style="fill:#fff;stroke:#000;stroke-width:2" d="M629,136 l-151,0 0,55 151,0 0,-55z" />
<path style="fill:#fff;stroke:#000;stroke-width:2" d="M629,232 l-151,0 0,55 151,0 0,-55z" />
<circle style="fill:#fff;stroke:#000;stroke-width:2" cx="342" cy="205" r="178" />
<circle style="fill:#7f7f7f;stroke:#000;stroke-width:2" cx="342" cy="205" r="164" />
<circle style="fill:#000;stroke:#7f7f7f;stroke-width:2" cx="342" cy="205" r="150" />
<circle style="fill:#000;stroke:#7f7f7f;stroke-width:2" cx="342" cy="205" r="96" />
<path style="fill:#0f0;stroke:#7f7f7f;stroke-width:2" d="M424,178 l-164,0 0,54 164,0 0,-54z" />
<path style="fill:none;stroke:#000;stroke-width:2" d="M274,217 l0,-10" />
<path style="fill:none;stroke:#000;stroke-width:2" d="M274,203 l0,-10" />
<path style="fill:none;stroke:#000;stroke-width:2" d="M275,192 l11,0" />
<path style="fill:none;stroke:#000;stroke-width:2" d="M287,193 l0,10" />
<path style="fill:none;stroke:#000;stroke-width:2" d="M287,206 l0,11" />
<path style="fill:none;stroke:#000;stroke-width:2" d="M286,218 l-11,0" />
<path style="fill:#fff;stroke:#000;stroke-width:2" d="M602,219 l-69,0 0,82 69,0 0,-82z" />
<path style="fill:#fff;stroke:#000;stroke-width:2" d="M602,123 l-69,0 0,82 69,0 0,-82z" />
<path style="fill:#000;stroke:#000;stroke-width:2" d="M602,178 l-69,0 0,27 69,0 0,-27z" />
<path style="fill:#000;stroke:#000;stroke-width:2" d="M602,273 l-69,0 0,28 69,0 0,-28z" />
<path style="fill:#7f7f7f;stroke:#000;stroke-width:2" d="M602,164 l-69,0 0,27 69,0 0,-27z" />
<path style="fill:#7f7f7f;stroke:#000;stroke-width:2" d="M602,259 l-69,0 0,28 69,0 0,-28z" />
<path style="fill:#fff;stroke:#000;stroke-width:2" d="M424,410 l54,150 -273,0 55,-150 164,0z" />
<path style="fill:#ff0;stroke:#000;stroke-width:2" d="M561,560 l-438,0 0,14 438,0 0,-14z" />
<path style="fill:#ff0;stroke:#000;stroke-width:2" d="M588,574 l-492,0 0,397 492,0 0,-397z" />
<path style="fill:#ff0;stroke:#000;stroke-width:2" d="M656,574 l-54,0 0,397 54,0 0,-397z" />
<path style="fill:#ff0;stroke:#000;stroke-width:2" d="M82,574 l-55,0 0,397 55,0 0,-397z" />
<path style="fill:#000;stroke:#000;stroke-width:2" d="M602,574 l-14,0 0,397 14,0 0,-397z" />
<path style="fill:#000;stroke:#000;stroke-width:2" d="M96,574 l-14,0 0,397 14,0 0,-397z" />
<path style="fill:#7f7f7f;stroke:#000;stroke-width:2" d="M629,766 l-8,2 -5,9 -1,2 5,10 9,4 6,-1 7,-7 1,-6 -1,-5 -7,-7 -6,-1z" />
<path style="fill:#7f7f7f;stroke:#000;stroke-width:2" d="M55,766 l-8,2 -6,9 0,2 4,10 10,4 5,-1 8,-7 1,-6 -1,-5 -8,-7 -5,-1z" />
<path style="fill:none;stroke:#000;stroke-width:2" d="M629,793 l0,-28" />
<path style="fill:none;stroke:#000;stroke-width:2" d="M69,779 l-28,0" />
<path style="fill:#000;stroke:#000;stroke-width:2" d="M438,830 l-132,0 48,48 -48,0 -60,-60 0,-23 60,-61 48,0 -48,48 132,0 0,48z" />

</svg>
