 

<svg xmlns:agg="http://www.example.com" xmlns="http://www.w3.org/2000/svg" preserveAspectRatio="none" width="0.5886in" height="1.0750in" viewBox="0 0 547 999">

<path style="fill:#000;stroke:#000;stroke-width:2" d="M519,28 l-491,0 0,942 491,0 0,-942z" />
<path style="fill:#e5e5e5;stroke:#000;stroke-width:2" d="M519,28 l-491,0 10,10 471,922 10,10 0,-942z" />
<path style="fill:#7f7f7f;stroke:#000;stroke-width:2" d="M509,38 l-471,0 0,922 471,0 0,-922z" />
<path style="fill:#000;stroke:#000;stroke-width:2" d="M489,67 l-432,0 0,727 432,0 0,-727z" />
<path style="fill:#000" d="M28,52 l0,-2 491,0 0,4 -491,0 0,-2z" />
<path style="fill:#0ff;stroke:#0ff;stroke-width:2" d="M435,450 l-24,0 0,314 24,0 0,-314z" />
<path style="fill:#0ff;stroke:#0ff;stroke-width:2" d="M352,450 l-25,0 0,314 25,0 0,-314z" />
<path style="fill:#0ff;stroke:#0ff;stroke-width:2" d="M313,450 l-25,0 0,314 25,0 0,-314z" />
<path style="fill:none;stroke:#0ff;stroke-width:2" d="M396,764 l-29,0" />
<path style="fill:none;stroke:#0ff;stroke-width:2" d="M396,685 l-29,0" />
<path style="fill:none;stroke:#0ff;stroke-width:2" d="M396,607 l-29,0" />
<path style="fill:none;stroke:#0ff;stroke-width:2" d="M396,528 l-29,0" />
<path style="fill:none;stroke:#0ff;stroke-width:2" d="M396,450 l-29,0" />
<path style="fill:none;stroke:#0ff;stroke-width:2" d="M396,371 l-29,0" />
<path style="fill:none;stroke:#0ff;stroke-width:2" d="M170,219 l-24,0 0,49 24,0 0,-49" />
<path style="fill:none;stroke:#0ff;stroke-width:2" d="M204,219 l-24,0 0,49 24,0 0,-49" />
<path style="fill:none;stroke:#0ff;stroke-width:2" d="M239,219 l-25,0 0,49 25,0 0,-49" />
<path style="fill:#7f7f7f;stroke:#000;stroke-width:2" d="M489,801 l-81,0 0,72 81,0 0,-72z" />
<path style="fill:#7f7f7f;stroke:#000;stroke-width:2" d="M489,879 l-81,0 0,72 81,0 0,-72z" />
<path style="fill:#7f7f7f;stroke:#000;stroke-width:2" d="M402,801 l-81,0 0,72 81,0 0,-72z" />
<path style="fill:#7f7f7f;stroke:#000;stroke-width:2" d="M402,879 l-81,0 0,72 81,0 0,-72z" />
<path style="fill:#7f7f7f;stroke:#000;stroke-width:2" d="M314,801 l-81,0 0,72 81,0 0,-72z" />
<path style="fill:#7f7f7f;stroke:#000;stroke-width:2" d="M314,879 l-81,0 0,72 81,0 0,-72z" />
<path style="fill:#7f7f7f;stroke:#000;stroke-width:2" d="M226,801 l-81,0 0,72 81,0 0,-72z" />
<path style="fill:#7f7f7f;stroke:#000;stroke-width:2" d="M226,879 l-81,0 0,72 81,0 0,-72z" />
<path style="fill:#7f7f7f;stroke:#000;stroke-width:2" d="M138,801 l-81,0 0,72 81,0 0,-72z" />
<path style="fill:#7f7f7f;stroke:#000;stroke-width:2" d="M138,879 l-81,0 0,72 81,0 0,-72z" />
<path style="fill:#fff;stroke:#000;stroke-width:2" d="M381,936 l-22,-39 -22,39 44,0z" />
<path style="fill:#fff;stroke:#000;stroke-width:2" d="M161,897 l21,39 23,-39 -44,0z" />
<path style="fill:none;stroke:#ccc;stroke-width:2" d="M484,838 l-68,0" />
<path style="fill:none;stroke:#ccc;stroke-width:2" d="M396,838 l-68,0" />
<path style="fill:none;stroke:#ccc;stroke-width:2" d="M308,838 l-68,0" />
<path style="fill:none;stroke:#ccc;stroke-width:2" d="M221,838 l-69,0" />
<path style="fill:none;stroke:#ccc;stroke-width:2" d="M133,838 l-69,0" />
<path style="fill:none;stroke:#ccc;stroke-width:2" d="M484,916 l-68,0" />
<path style="fill:none;stroke:#ccc;stroke-width:2" d="M133,916 l-69,0" />
<path style="fill:none;stroke:#7f7f7f;stroke-width:2" d="M455,131 l-324,0 0,152 324,0 0,-152" />
<path style="fill:none;stroke:#0ff;stroke-width:2" d="M273,219 l-24,0 0,49 24,0 0,-49" />
<path style="fill:none;stroke:#0ff;stroke-width:2" d="M170,146 l-25,0 0,49 25,0 0,-49" />
<path style="fill:none;stroke:#0ff;stroke-width:2" d="M204,146 l-24,0 0,49 24,0 0,-49" />
<path style="fill:none;stroke:#0ff;stroke-width:2" d="M239,146 l-25,0 0,49 25,0 0,-49" />
<path style="fill:none;stroke:#0ff;stroke-width:2" d="M273,146 l-24,0 0,49 24,0 0,-49" />

</svg>
