 

<svg xmlns:agg="http://www.example.com" xmlns="http://www.w3.org/2000/svg" preserveAspectRatio="none" width="0.7059in" height="1.0750in" viewBox="0 0 656 999">

<path style="fill:#7f7f7f;stroke:#000;stroke-width:2" d="M306,38 l129,0 0,279 -129,0 0,-279z" />
<ellipse style="fill:#e5e5e5;stroke:#000;stroke-width:2" cx="370" cy="166" rx="215" ry="128" />
<path style="fill:#b2b2b2;stroke:#000;stroke-width:2" d="M564,113 l-23,-24 -31,-20 -24,-11 -27,-8 -28,-7 -30,-3 -31,-2 -31,2 -30,4 -28,6 -26,9 -25,10 -31,20 -23,24 388,0z" />
<path style="fill:#7f7f7f;stroke:#000;stroke-width:2" d="M360,70 l21,0 0,-42 -21,0 0,42z" />
<path style="fill:#000" d="M563,113 l0,-4 -385,0 0,9 385,0 0,-5z" />
<circle style="fill:#7f7f7f;stroke:#000;stroke-width:2" cx="424" cy="177" r="85" />
<path style="fill:#4c4c4c;stroke:#000;stroke-width:2" d="M371,110 l121,121 -15,15 -121,-121 15,-15z" />
<circle style="fill:#999;stroke:#000;stroke-width:2" cx="424" cy="177" r="54" />
<path style="fill:#e5e5e5;stroke:#000;stroke-width:2" d="M383,148 l81,0 0,60 -81,0 0,-60z" />
<path style="fill:#0cf;stroke:#000;stroke-width:2" d="M392,167 l64,0 0,22 -64,0 0,-22z" />
<path style="fill:#e5e5e5;stroke:#000;stroke-width:2" d="M188,113 l75,0 -9,10 -6,12 -4,13 -2,14 1,12 1,12 3,12 5,10 5,7 6,6 -75,0 0,-108z" />
<path style="fill:#e5e5e5;stroke:#000;stroke-width:2" d="M188,221 l-96,32 -31,-1 0,-171 31,0 96,32 0,108z" />
<path style="fill:#b2b2b2;stroke:#000;stroke-width:2" d="M60,253 l-32,-11 0,-150 32,-11 0,172z" />
<path style="fill:#666;stroke:#000;stroke-width:2" d="M28,97 l10,0 0,11 -10,0 0,-11z" />
<path style="fill:#666;stroke:#000;stroke-width:2" d="M28,119 l10,0 0,10 -10,0 0,-10z" />
<path style="fill:#666;stroke:#000;stroke-width:2" d="M28,140 l10,0 0,11 -10,0 0,-11z" />
<path style="fill:#666;stroke:#000;stroke-width:2" d="M28,162 l10,0 0,10 -10,0 0,-10z" />
<path style="fill:#666;stroke:#000;stroke-width:2" d="M28,183 l10,0 0,11 -10,0 0,-11z" />
<path style="fill:#666;stroke:#000;stroke-width:2" d="M28,205 l10,0 0,10 -10,0 0,-10z" />
<path style="fill:#666;stroke:#000;stroke-width:2" d="M28,226 l10,0 0,10 -10,0 0,-10z" />
<path style="fill:#7f7f7f;stroke:#000;stroke-width:2" d="M231,382 l278,0 0,331 -278,0 0,-331z" />
<path style="fill:#7f7f7f;stroke:#000;stroke-width:2" d="M295,384 l0,-13 5,0 6,-54 128,0 6,54 6,0 0,13 -151,0z" />
<path style="fill:#7f7f7f;stroke:#000;stroke-width:2" d="M178,381 l21,0 0,333 -21,0 0,-333z" />
<path style="fill:#7f7f7f" d="M70,381 l0,72 108,0 0,-72 -108,0z" />
<path style="fill:none;stroke:#000;stroke-width:2" d="M178,381 l-108,0 0,72 108,0 0,-72" />
<path style="fill:#e5e5e5;stroke:#000;stroke-width:2" d="M81,381 l0,-139 32,-64 22,0 32,64 0,139 -86,0z" />
<path style="fill:#e5e5e5;stroke:#000;stroke-width:2" d="M295,960 l11,-22 0,-225 129,0 0,225 11,22 -151,0z" />
<path style="fill:#b2b2b2;stroke:#000;stroke-width:2" d="M60,960 l568,0 0,10 -568,0 0,-10z" />
<path style="fill:#4c4c4c;stroke:#000;stroke-width:2" d="M329,317 l0,54 -28,-1 5,-53 23,0z" />
<path style="fill:#4c4c4c;stroke:#000;stroke-width:2" d="M347,317 l46,0 0,54 -46,0 0,-54z" />
<path style="fill:#4c4c4c;stroke:#000;stroke-width:2" d="M411,317 l0,54 29,-1 -6,-53 -23,0z" />
<path style="fill:#000;stroke:#000;stroke-width:2" d="M418,582 l-97,0 -5,-10 -4,-12 -3,-11 -1,-12 2,-14 3,-14 6,-12 7,-10 9,-9 11,-6 11,-4 13,-1 12,1 12,4 10,6 10,9 7,10 6,12 3,14 2,14 -1,12 -3,11 -4,12 -6,10z" />
<circle style="fill:none;stroke:#333;stroke-width:2" cx="379" cy="606" r="15" />
<circle style="fill:none;stroke:#333;stroke-width:2" cx="379" cy="606" r="7" />
<circle style="fill:none;stroke:#333;stroke-width:2" cx="335" cy="606" r="22" />
<path style="fill:none;stroke:#b2b2b2;stroke-width:2" d="M384,601 l1,1 1,2 0,1 0,1 0,3 -2,2 -2,2 -3,1 -2,0 -1,-1 -1,-1 -1,-1" />
<path style="fill:none;stroke:#b2b2b2;stroke-width:2" d="M368,617 l-1,-1 -1,-1 -1,-1 0,-2 -1,-1 0,-2 0,-1 0,-2 0,-3 1,-3 1,-2 2,-2 2,-2 3,-1 3,-1 3,0 1,0 2,0 1,0 1,1 2,0 1,1 1,1 1,1" />
<path style="fill:none;stroke:#b2b2b2;stroke-width:2" d="M319,622 l-2,-2 -1,-1 -1,-2 -1,-2 0,-2 -1,-2 0,-3 0,-2 0,-4 1,-4 2,-4 3,-3 3,-3 4,-2 4,-1 4,-1 3,0 2,1 2,0 2,1 2,1 2,1 1,1 2,2" />
<path style="fill:#000;stroke:#000;stroke-width:2" d="M221,403 l10,0 0,64 -10,0 0,-64z" />
<path style="fill:#000;stroke:#000;stroke-width:2" d="M70,253 l11,0 0,53 -11,0 0,-53z" />
<path style="fill:#666" d="M472,676 l32,0 0,32 -32,0 0,-32z" />
<path style="fill:#666" d="M199,681 l32,0 0,32 -32,0 0,-32z" />
<path style="fill:#666" d="M236,676 l33,0 0,32 -33,0 0,-32z" />
<path style="fill:#666" d="M236,387 l33,0 0,32 -33,0 0,-32z" />
<path style="fill:#666" d="M472,387 l32,0 0,32 -32,0 0,-32z" />

</svg>
