 

<svg xmlns:agg="http://www.example.com" xmlns="http://www.w3.org/2000/svg" preserveAspectRatio="none" width="1.3839in" height="1.0750in" viewBox="0 0 999 776">

<path style="fill:#333;stroke:#000;stroke-width:2" d="M337,277 l-4,-27 -6,-32 -7,-31 -7,-30 -8,-30 -7,-30 -6,-30 -10,-26 -14,-12 -6,-1 -5,1 -20,19 -11,31 -5,32 -6,33 -6,33 -6,33 -5,33 -4,33 -3,33 -1,34 -11,24 -28,19 -35,17 -30,13 -27,16 -16,19 -1,4 1,4 24,18 29,7 31,6 31,7 30,6 31,7 30,6 30,6 31,7 30,6 30,6 30,7 10,2 0,-4 0,-26 -27,-6 -28,-6 -27,-5 -28,-6 -27,-5 -28,-6 -27,-5 -28,-5 -28,-6 -27,-5 -26,-5 -20,-7 -1,-2 0,-2 23,-15 29,-12 30,-13 23,-15 20,-19 7,-26 1,-35 3,-33 4,-32 4,-32 4,-31 5,-31 4,-32 5,-31 7,-25 3,-3 1,0 8,27 6,31 7,28 7,28 7,27 7,28 3,27 1,17 30,0z" />
<path style="fill:#333;stroke:#000;stroke-width:2" d="M661,277 l3,-27 6,-32 7,-31 8,-30 7,-30 8,-30 6,-30 10,-26 14,-12 5,-1 5,1 20,19 10,31 6,32 6,33 6,33 6,33 6,33 4,33 3,33 1,34 11,24 28,19 35,17 30,13 27,16 16,19 1,4 -1,4 -24,18 -29,7 -31,6 -31,7 -30,6 -31,7 -30,6 -30,6 -31,7 -30,6 -30,6 -30,7 -10,2 0,-4 0,-26 27,-6 28,-6 27,-5 28,-6 27,-5 28,-6 27,-5 28,-5 28,-6 27,-5 26,-5 20,-7 0,-2 0,-2 -22,-15 -29,-12 -30,-13 -23,-15 -20,-19 -7,-26 -1,-35 -3,-33 -4,-32 -4,-32 -4,-31 -5,-31 -4,-32 -5,-31 -7,-25 -1,-2 -2,-1 -1,0 -8,27 -6,31 -7,28 -8,28 -8,27 -6,28 -4,27 -1,17 -28,0z" />
<path style="fill:#ccc;stroke:#000;stroke-width:2" d="M550,469 l-102,0 0,73 102,0 0,-73z" />
<path style="fill:#666;stroke:#000;stroke-width:2" d="M529,365 l-60,0 0,170 60,0 0,-170z" />
<path style="fill:#999" d="M514,365 l-30,0 0,170 30,0 0,-170z" />
<path style="fill:#900;stroke:#000;stroke-width:2" d="M623,99 l-248,0 0,66 248,0 0,-66z" />
<path style="fill:#ccc;stroke:#000;stroke-width:2" d="M616,99 l-234,0 0,66 234,0 0,-66z" />
<path style="fill:#b2b2b2;stroke:#000;stroke-width:2" d="M603,92 l-208,0 0,273 208,0 0,-273z" />
<path style="fill:#666;stroke:#000;stroke-width:2" d="M588,439 l-38,0 0,132 38,0 0,-132z" />
<path style="fill:#666;stroke:#000;stroke-width:2" d="M448,439 l-38,0 0,132 38,0 0,-132z" />
<path style="fill:#b2b2b2;stroke:#000;stroke-width:2" d="M337,512 l-30,0 0,-235 30,0 0,235z" />
<path style="fill:#b2b2b2;stroke:#000;stroke-width:2" d="M691,512 l-30,0 0,-235 30,0 0,235z" />
<path style="fill:#e5e5e5" d="M329,505 l-15,0 0,-221 15,0 0,221z" />
<path style="fill:#e5e5e5" d="M682,505 l-13,0 0,-221 13,0 0,221z" />
<path style="fill:#7f7f7f" d="M970,748 l0,-236 -45,0 0,236 45,0z" />
<path style="fill:#7f7f7f" d="M925,712 l0,-162 -13,0 0,162 13,0z" />
<path style="fill:#7f7f7f" d="M912,689 l0,-118 -134,0 0,118 134,0z" />
<path style="fill:#7f7f7f" d="M28,748 l0,-236 43,0 0,236 -43,0z" />
<path style="fill:#7f7f7f" d="M71,712 l0,-162 15,0 0,162 -15,0z" />
<path style="fill:#7f7f7f" d="M86,689 l0,-118 134,0 0,118 -134,0z" />
<path style="fill:#7f7f7f" d="M441,718 l-236,0 0,-206 236,0 0,206z" />
<path style="fill:#7f7f7f" d="M557,718 l236,0 0,-206 -236,0 0,206z" />
<path style="fill:#7f7f7f" d="M565,689 l0,-118 -132,0 0,118 132,0z" />
<path style="fill:#999" d="M425,718 l-205,0 0,-206 205,0 0,206z" />
<path style="fill:#999" d="M86,682 l0,-104 134,0 0,104 -134,0z" />
<path style="fill:#999" d="M71,701 l0,-142 15,0 0,142 -15,0z" />
<path style="fill:#999" d="M28,733 l0,-206 43,0 0,206 -43,0z" />
<path style="fill:#999" d="M565,682 l0,-104 -132,0 0,104 132,0z" />
<path style="fill:#999" d="M573,718 l205,0 0,-206 -205,0 0,206z" />
<path style="fill:#999" d="M912,682 l0,-104 -134,0 0,104 134,0z" />
<path style="fill:#999" d="M925,701 l0,-142 -13,0 0,142 13,0z" />
<path style="fill:#999" d="M970,733 l0,-206 -45,0 0,206 45,0z" />
<path style="fill:#b2b2b2" d="M403,718 l-162,0 0,-206 162,0 0,206z" />
<path style="fill:#b2b2b2" d="M86,671 l0,-82 134,0 0,82 -134,0z" />
<path style="fill:#b2b2b2" d="M71,686 l0,-112 15,0 0,112 -15,0z" />
<path style="fill:#b2b2b2" d="M28,712 l0,-162 43,0 0,162 -43,0z" />
<path style="fill:#b2b2b2" d="M565,671 l0,-82 -132,0 0,82 132,0z" />
<path style="fill:#b2b2b2" d="M595,718 l162,0 0,-206 -162,0 0,206z" />
<path style="fill:#b2b2b2" d="M912,671 l0,-82 -134,0 0,82 134,0z" />
<path style="fill:#b2b2b2" d="M925,686 l0,-112 -13,0 0,112 13,0z" />
<path style="fill:#b2b2b2" d="M970,712 l0,-162 -45,0 0,162 45,0z" />
<path style="fill:#ccc" d="M375,718 l-104,0 0,-206 104,0 0,206z" />
<path style="fill:#ccc" d="M86,655 l0,-50 134,0 0,50 -134,0z" />
<path style="fill:#ccc" d="M71,665 l0,-70 15,0 0,70 -15,0z" />
<path style="fill:#ccc" d="M28,682 l0,-104 43,0 0,104 -43,0z" />
<path style="fill:#ccc" d="M565,655 l0,-50 -132,0 0,50 132,0z" />
<path style="fill:#ccc" d="M623,718 l104,0 0,-206 -104,0 0,206z" />
<path style="fill:#ccc" d="M912,655 l0,-50 -134,0 0,50 134,0z" />
<path style="fill:#ccc" d="M925,665 l0,-70 -13,0 0,70 13,0z" />
<path style="fill:#ccc" d="M970,682 l0,-104 -45,0 0,104 45,0z" />
<path style="fill:#e5e5e5" d="M344,718 l-43,0 0,-206 43,0 0,206z" />
<path style="fill:#e5e5e5" d="M71,646 l0,-30 15,0 0,30 -15,0z" />
<path style="fill:#e5e5e5" d="M86,640 l0,-20 134,0 0,20 -134,0z" />
<path style="fill:#e5e5e5" d="M28,652 l0,-44 43,0 0,44 -43,0z" />
<path style="fill:#e5e5e5" d="M565,640 l0,-20 -132,0 0,20 132,0z" />
<path style="fill:#e5e5e5" d="M654,718 l43,0 0,-206 -43,0 0,206z" />
<path style="fill:#e5e5e5" d="M925,646 l0,-30 -13,0 0,30 13,0z" />
<path style="fill:#e5e5e5" d="M912,640 l0,-20 -134,0 0,20 134,0z" />
<path style="fill:#e5e5e5" d="M970,652 l0,-44 -45,0 0,44 45,0z" />
<path style="fill:#fff" d="M329,718 l-15,0 0,-206 15,0 0,206z" />
<path style="fill:#fff" d="M71,635 l0,-10 15,0 0,10 -15,0z" />
<path style="fill:#fff" d="M86,635 l0,-8 134,0 0,8 -134,0z" />
<path style="fill:#fff" d="M28,637 l0,-14 43,0 0,14 -43,0z" />
<path style="fill:#fff" d="M565,633 l0,-6 -132,0 0,6 132,0z" />
<path style="fill:#fff" d="M669,718 l15,0 0,-206 -15,0 0,206z" />
<path style="fill:#fff" d="M925,635 l0,-10 -13,0 0,10 13,0z" />
<path style="fill:#fff" d="M912,635 l0,-8 -134,0 0,8 134,0z" />
<path style="fill:#fff" d="M970,637 l0,-14 -45,0 0,14 45,0z" />
<path style="fill:none;stroke:#000;stroke-width:2" d="M793,571 l0,-59 -236,0 0,59" />
<path style="fill:none;stroke:#000;stroke-width:2" d="M557,689 l0,29 236,0 0,-29" />
<path style="fill:none;stroke:#000;stroke-width:2" d="M970,748 l0,-236 -45,0 0,236 45,0" />
<path style="fill:none;stroke:#000;stroke-width:2" d="M925,712 l0,-162 -13,0 0,162 13,0" />
<path style="fill:none;stroke:#000;stroke-width:2" d="M912,689 l0,-118 -134,0 0,118 134,0" />
<path style="fill:none;stroke:#000;stroke-width:2" d="M793,542 l-236,0" />
<path style="fill:none;stroke:#000;stroke-width:2" d="M205,571 l0,-59 236,0 0,59" />
<path style="fill:none;stroke:#000;stroke-width:2" d="M441,689 l0,29 -236,0 0,-29" />
<path style="fill:none;stroke:#000;stroke-width:2" d="M28,748 l0,-236 43,0 0,236 -43,0" />
<path style="fill:none;stroke:#000;stroke-width:2" d="M71,712 l0,-162 15,0 0,162 -15,0" />
<path style="fill:none;stroke:#000;stroke-width:2" d="M86,689 l0,-118 134,0 0,118 -134,0" />
<path style="fill:none;stroke:#000;stroke-width:2" d="M205,542 l236,0" />
<path style="fill:none;stroke:#000;stroke-width:2" d="M565,689 l0,-118 -132,0 0,118 132,0" />
<path style="fill:#ccc;stroke:#000;stroke-width:2" d="M778,512 l-28,0 0,-15 28,0 0,15z" />
<path style="fill:#ccc;stroke:#000;stroke-width:2" d="M603,512 l-30,0 0,-15 30,0 0,15z" />
<path style="fill:#ccc;stroke:#000;stroke-width:2" d="M661,512 l-30,0 0,-15 30,0 0,15z" />
<path style="fill:#ccc;stroke:#000;stroke-width:2" d="M720,512 l-31,0 0,-15 31,0 0,15z" />
<path style="fill:#ccc;stroke:#000;stroke-width:2" d="M425,512 l-30,0 0,-15 30,0 0,15z" />
<path style="fill:#ccc;stroke:#000;stroke-width:2" d="M248,512 l-30,0 0,-15 30,0 0,15z" />
<path style="fill:#ccc;stroke:#000;stroke-width:2" d="M307,512 l-29,0 0,-15 29,0 0,15z" />
<path style="fill:#ccc;stroke:#000;stroke-width:2" d="M367,512 l-30,0 0,-15 30,0 0,15z" />
<path style="fill:#999;stroke:#000;stroke-width:2" d="M550,542 l-102,0 0,29 102,0 0,-29z" />
<path style="fill:#999;stroke:#000;stroke-width:2" d="M550,439 l-102,0 0,30 102,0 0,-30z" />
<circle style="fill:#e5e5e5;stroke:#000;stroke-width:2" cx="498" cy="217" r="118" />
<circle style="fill:#ccc;stroke:#000;stroke-width:2" cx="499" cy="218" r="89" />
<circle style="fill:#e5e5e5;stroke:#000;stroke-width:2" cx="499" cy="217" r="43" />
<path style="fill:#333;stroke:#000;stroke-width:2" d="M499,343 l-5,2 -3,5 3,5 5,3 5,-3 3,-5 -3,-5 -5,-2z" />

</svg>
