 

<svg xmlns:agg="http://www.example.com" xmlns="http://www.w3.org/2000/svg" preserveAspectRatio="none" width="0.9050in" height="1.0750in" viewBox="0 0 841 999">

<path style="fill:#b2b2b2;stroke:#000;stroke-width:2" d="M813,960 l-785,0 0,-155 39,0 0,-19 -39,0 0,-584 39,0 0,-19 -39,0 0,-155 785,0 0,156 -39,0 0,19 39,0 0,583 -39,0 0,19 39,0 0,155z" />
<path style="fill:#ccc;stroke:#000;stroke-width:2" d="M754,28 l-667,0 0,932 667,0 0,-932z" />
<path style="fill:#e5e5e5;stroke:#000;stroke-width:2" d="M735,28 l-629,0 0,942 472,0 0,-49 98,0 0,49 59,0 0,-942z" />
<path style="fill:#bfbfbf" d="M722,54 l3,-6 -3,-8 -7,-2 -7,2 -3,8 3,6 7,3 7,-3z" />
<path style="fill:#bfbfbf" d="M511,54 l3,-6 -3,-8 -7,-2 -7,2 -3,8 3,6 7,3 7,-3z" />
<path style="fill:#bfbfbf" d="M374,54 l2,-6 -2,-8 -8,-2 -6,2 -3,8 3,6 6,3 8,-3z" />
<path style="fill:#bfbfbf" d="M300,54 l3,-6 -3,-8 -7,-2 -7,2 -3,8 3,6 7,3 7,-3z" />
<path style="fill:#bfbfbf" d="M163,54 l2,-6 -2,-8 -8,-2 -7,2 -2,8 2,6 7,3 8,-3z" />
<path style="fill:#bfbfbf" d="M722,958 l3,-7 -3,-7 -7,-3 -7,3 -3,7 3,7 7,2 7,-2z" />
<path style="fill:#bfbfbf" d="M511,958 l3,-7 -3,-7 -7,-3 -7,3 -3,7 3,7 7,2 7,-2z" />
<path style="fill:#bfbfbf" d="M374,958 l2,-7 -2,-7 -8,-3 -6,3 -3,7 3,7 6,2 8,-2z" />
<path style="fill:#bfbfbf" d="M300,958 l3,-7 -3,-7 -7,-3 -7,3 -3,7 3,7 7,2 7,-2z" />
<path style="fill:#bfbfbf" d="M163,958 l2,-7 -2,-7 -8,-3 -7,3 -2,7 2,7 7,2 8,-2z" />
<path style="fill:#ccc" d="M327,28 l-10,0 0,942 10,0 0,-942z" />
<path style="fill:#ccc" d="M396,28 l-10,0 0,942 10,0 0,-942z" />
<path style="fill:#ccc" d="M538,28 l-9,0 0,942 9,0 0,-942z" />
<path style="fill:#ccc" d="M190,28 l-10,0 0,942 10,0 0,-942z" />
<path style="fill:none;stroke:#000;stroke-width:2" d="M176,28 l0,942" />
<path style="fill:none;stroke:#000;stroke-width:2" d="M316,28 l0,942" />
<path style="fill:none;stroke:#000;stroke-width:2" d="M386,28 l0,942" />
<path style="fill:none;stroke:#000;stroke-width:2" d="M525,28 l0,942" />
<path style="fill:#333;stroke:#000;stroke-width:2" d="M695,303 l-117,0 0,392 117,0 0,-392z" />
<path style="fill:#666" d="M705,283 l-10,0 0,432 10,0 0,-432z" />
<path style="fill:#666" d="M578,283 l-10,0 0,432 10,0 0,-432z" />
<path style="fill:#666" d="M642,283 l-11,0 0,432 11,0 0,-432z" />
<path style="fill:#666" d="M663,283 l-11,0 0,432 11,0 0,-432z" />
<path style="fill:#666" d="M684,283 l-11,0 0,432 11,0 0,-432z" />
<path style="fill:#666" d="M621,283 l-11,0 0,432 11,0 0,-432z" />
<path style="fill:#666" d="M599,283 l-10,0 0,432 10,0 0,-432z" />
<path style="fill:#333" d="M695,813 l10,-24 -10,-25 -25,-10 -24,10 -10,25 10,24 24,10 25,-10z" />
<path style="fill:#fc0;stroke:#000;stroke-width:2" d="M695,843 l-88,0 0,58 88,0 0,-58z" />
<path style="fill:#19e5cb" d="M715,77 l-108,0 0,20 108,0 0,-20z" />
<path style="fill:#4c4c4c" d="M371,332 l-39,0 0,560 39,0 0,-560z" />
<path style="fill:#fc0" d="M371,342 l-39,0 0,10 39,0 0,-10z" />
<path style="fill:#fc0" d="M371,401 l-39,0 0,10 39,0 0,-10z" />
<path style="fill:#fc0" d="M371,371 l-39,0 0,10 39,0 0,-10z" />
<path style="fill:#fc0" d="M371,430 l-39,0 0,10 39,0 0,-10z" />
<path style="fill:#fc0" d="M371,460 l-39,0 0,9 39,0 0,-9z" />
<path style="fill:#fc0" d="M371,489 l-39,0 0,10 39,0 0,-10z" />
<path style="fill:#fc0" d="M371,519 l-39,0 0,10 39,0 0,-10z" />
<path style="fill:#fc0" d="M371,548 l-39,0 0,10 39,0 0,-10z" />
<path style="fill:#fc0" d="M371,607 l-39,0 0,10 39,0 0,-10z" />
<path style="fill:#fc0" d="M371,578 l-39,0 0,9 39,0 0,-9z" />
<path style="fill:#fc0" d="M371,636 l-39,0 0,10 39,0 0,-10z" />
<path style="fill:#fc0" d="M371,666 l-39,0 0,10 39,0 0,-10z" />
<path style="fill:#fc0" d="M371,695 l-39,0 0,10 39,0 0,-10z" />
<path style="fill:#fc0" d="M371,725 l-39,0 0,10 39,0 0,-10z" />
<path style="fill:#fc0" d="M371,754 l-39,0 0,10 39,0 0,-10z" />
<path style="fill:#fc0" d="M371,813 l-39,0 0,10 39,0 0,-10z" />
<path style="fill:#fc0" d="M371,784 l-39,0 0,9 39,0 0,-9z" />
<path style="fill:#fc0" d="M371,842 l-39,0 0,10 39,0 0,-10z" />
<path style="fill:#fc0" d="M371,872 l-39,0 0,10 39,0 0,-10z" />
<path style="fill:#333" d="M362,332 l-20,0 0,560 20,0 0,-560z" />
<path style="fill:#333" d="M499,637 l0,-59 -30,-10 0,78 30,-9z" />
<path style="fill:#333" d="M499,754 l0,-58 -30,-10 0,78 30,-10z" />
<path style="fill:#333" d="M499,872 l0,-59 -30,-10 0,79 30,-10z" />
<path style="fill:#333" d="M440,872 l0,-59 -29,-10 0,79 29,-10z" />
<path style="fill:#333" d="M293,558 l0,-59 -30,-10 0,79 30,-10z" />
<path style="fill:#333" d="M155,852 l0,-58 -29,-10 0,78 29,-10z" />
<path style="fill:#333" d="M155,715 l0,-59 -29,-10 0,79 29,-10z" />
<path style="fill:#ccc;stroke:#000;stroke-width:2" d="M294,877 l0,-128 -44,-14 0,157 44,-15z" />
<path style="fill:#333" d="M294,857 l0,-88 -44,-15 0,118 44,-15z" />
<path style="fill:none;stroke:#fff;stroke-width:2" d="M489,479 l0,-176 -59,0" />
<path style="fill:none;stroke:#7f7f7f;stroke-width:2" d="M430,303 l0,176 59,0" />
<path style="fill:#900" d="M352,204 l-10,0 0,10 10,0 0,-10z" />
<path style="fill:#900" d="M352,165 l-10,0 0,10 10,0 0,-10z" />
<path style="fill:#900" d="M352,244 l-10,0 0,10 10,0 0,-10z" />
<path style="fill:#900" d="M352,126 l-10,0 0,10 10,0 0,-10z" />
<path style="fill:#900" d="M371,204 l-10,0 0,10 10,0 0,-10z" />
<path style="fill:#900" d="M371,165 l-10,0 0,10 10,0 0,-10z" />
<path style="fill:#900" d="M371,244 l-10,0 0,10 10,0 0,-10z" />
<path style="fill:#900" d="M371,126 l-10,0 0,10 10,0 0,-10z" />
<path style="fill:#900" d="M293,175 l-10,0 0,10 10,0 0,-10z" />
<path style="fill:#900" d="M293,126 l-10,0 0,10 10,0 0,-10z" />
<path style="fill:#900" d="M146,224 l-10,0 0,10 10,0 0,-10z" />
<path style="fill:#900" d="M146,175 l-10,0 0,10 10,0 0,-10z" />
<path style="fill:#900" d="M146,126 l-10,0 0,10 10,0 0,-10z" />
<path style="fill:#900" d="M499,126 l-10,0 0,10 10,0 0,-10z" />
<path style="fill:#900" d="M499,175 l-10,0 0,10 10,0 0,-10z" />
<path style="fill:#900" d="M499,224 l-10,0 0,10 10,0 0,-10z" />
<path style="fill:none;stroke:#fff;stroke-width:2" d="M126,371 l0,79 29,0" />
<path style="fill:none;stroke:#7f7f7f;stroke-width:2" d="M155,450 l0,-79 -29,0" />
<path style="fill:none;stroke:#000;stroke-width:2" d="M676,970 l0,-49 -98,0 0,49 98,0" />

</svg>
