 

<svg xmlns:agg="http://www.example.com" xmlns="http://www.w3.org/2000/svg" preserveAspectRatio="none" width="1.4262in" height="1.0750in" viewBox="0 0 999 753">

<path style="fill:#b2b2b2;stroke:#000;stroke-width:2" d="M919,391 l-20,6 -800,0 -20,-6 -19,-11 -15,-15 -11,-19 -6,-20 0,-21 6,-21 11,-19 15,-15 19,-11 20,-6 800,0 20,6 19,11 15,15 11,19 6,21 0,21 -6,20 -11,19 -15,15 -19,11z" />
<path style="fill:#b2b2b2;stroke:#000;stroke-width:2" d="M765,480 l-40,-452 -83,0 42,452 81,0z" />
<path style="fill:#333" d="M69,131 l860,0 0,370 -860,0 0,-370z" />
<path style="fill:#ccc" d="M90,152 l818,0 0,328 -818,0 0,-328z" />
<path style="fill:#7f7f7f" d="M90,171 l818,0 0,83 -818,0 0,-83z" />
<path style="fill:#9c9" d="M386,182 l441,0 0,62 -441,0 0,-62z" />
<path style="fill:#bf0000" d="M109,182 l154,0 0,30 -154,0 0,-30z" />
<path style="fill:#696" d="M386,182 l441,0 -420,10 -21,52 0,-62z" />
<path style="fill:none;stroke:#363;stroke-width:2" d="M386,244 l0,-62 441,0" />
<path style="fill:none;stroke:#cfc;stroke-width:2" d="M827,182 l0,61 -441,0" />
<path style="fill:#e59865" d="M508,275 l53,0 0,20 -53,0 0,-20z" />
<path style="fill:#e59865" d="M448,275 l51,0 0,20 -51,0 0,-20z" />
<path style="fill:#e59865" d="M386,275 l51,0 0,20 -51,0 0,-20z" />
<path style="fill:#e59865" d="M386,326 l51,0 0,20 -51,0 0,-20z" />
<path style="fill:#e59865" d="M448,326 l51,0 0,20 -51,0 0,-20z" />
<path style="fill:#e59865" d="M508,326 l53,0 0,20 -53,0 0,-20z" />
<path style="fill:#e59865" d="M508,377 l53,0 0,20 -53,0 0,-20z" />
<path style="fill:#e59865" d="M448,377 l51,0 0,20 -51,0 0,-20z" />
<path style="fill:#e59865" d="M386,377 l51,0 0,20 -51,0 0,-20z" />
<path style="fill:#e59865" d="M386,427 l51,0 0,21 -51,0 0,-21z" />
<path style="fill:none;stroke:#fff;stroke-width:2" d="M571,316 l0,-41 50,0" />
<path style="fill:none;stroke:#fff;stroke-width:2" d="M571,367 l0,-41 50,0" />
<path style="fill:none;stroke:#fff;stroke-width:2" d="M571,418 l0,-41 50,0" />
<path style="fill:none;stroke:#fff;stroke-width:2" d="M571,469 l0,-42 50,0" />
<path style="fill:none;stroke:#fff;stroke-width:2" d="M508,469 l0,-42 51,0" />
<path style="fill:none;stroke:#fff;stroke-width:2" d="M448,469 l0,-42 51,0" />
<path style="fill:none;stroke:#fff;stroke-width:2" d="M386,469 l0,-42 51,0" />
<path style="fill:none;stroke:#fff;stroke-width:2" d="M386,418 l0,-41 51,0" />
<path style="fill:none;stroke:#fff;stroke-width:2" d="M448,418 l0,-41 51,0" />
<path style="fill:none;stroke:#fff;stroke-width:2" d="M508,418 l0,-41 53,0" />
<path style="fill:none;stroke:#fff;stroke-width:2" d="M508,367 l0,-41 53,0" />
<path style="fill:none;stroke:#fff;stroke-width:2" d="M508,316 l0,-41 53,0" />
<path style="fill:none;stroke:#fff;stroke-width:2" d="M448,316 l0,-41 51,0" />
<path style="fill:none;stroke:#fff;stroke-width:2" d="M386,316 l0,-41 51,0" />
<path style="fill:none;stroke:#fff;stroke-width:2" d="M386,367 l0,-41 51,0" />
<path style="fill:none;stroke:#fff;stroke-width:2" d="M448,367 l0,-41 51,0" />
<path style="fill:none;stroke:#999;stroke-width:2" d="M571,316 l50,0 0,-41" />
<path style="fill:none;stroke:#999;stroke-width:2" d="M508,316 l53,0 0,-41" />
<path style="fill:none;stroke:#999;stroke-width:2" d="M448,316 l51,0 0,-41" />
<path style="fill:none;stroke:#999;stroke-width:2" d="M386,316 l51,0 0,-41" />
<path style="fill:none;stroke:#999;stroke-width:2" d="M386,367 l51,0 0,-41" />
<path style="fill:none;stroke:#999;stroke-width:2" d="M386,418 l51,0 0,-41" />
<path style="fill:none;stroke:#999;stroke-width:2" d="M386,469 l51,0 0,-42" />
<path style="fill:none;stroke:#999;stroke-width:2" d="M448,367 l51,0 0,-41" />
<path style="fill:none;stroke:#999;stroke-width:2" d="M448,418 l51,0 0,-41" />
<path style="fill:none;stroke:#999;stroke-width:2" d="M508,367 l53,0 0,-41" />
<path style="fill:none;stroke:#999;stroke-width:2" d="M508,418 l53,0 0,-41" />
<path style="fill:none;stroke:#999;stroke-width:2" d="M571,367 l50,0 0,-41" />
<path style="fill:none;stroke:#999;stroke-width:2" d="M571,418 l50,0 0,-41" />
<path style="fill:none;stroke:#999;stroke-width:2" d="M448,469 l51,0 0,-42" />
<path style="fill:none;stroke:#999;stroke-width:2" d="M508,469 l51,0 0,-42" />
<path style="fill:none;stroke:#999;stroke-width:2" d="M571,469 l50,0 0,-42" />
<path style="fill:#4c4c4c" d="M452,433 l21,0 0,15 -21,0 0,-15z" />
<path style="fill:#4c4c4c" d="M535,433 l21,0 0,15 -21,0 0,-15z" />
<path style="fill:#4c4c4c" d="M582,294 l15,-14 13,14 -13,15 -15,-15z" />
<path style="fill:#4c4c4c" d="M604,331 l0,21 -16,0 0,-21 16,0z" />
<path style="fill:#4c4c4c" d="M604,391 l0,21 -16,0 0,-21 16,0z" />
<path style="fill:#4c4c4c" d="M582,448 l15,-13 13,13 -13,15 -15,-15z" />
<path style="fill:#999" d="M725,367 l0,113 123,0 0,-113 -123,0z" />
<path style="fill:#999" d="M99,454 l0,15 230,0 0,-15 -230,0z" />
<circle style="fill:#000" cx="786" cy="366" r="61" />
<circle style="fill:#4c4c4c" cx="786" cy="366" r="53" />
<path style="fill:#000;stroke:#000;stroke-width:2" d="M416,131 l0,-7 42,0 0,-13 369,0 0,13 41,0 0,7 -452,0z" />
<path style="fill:#ccc" d="M725,111 l0,-83 -145,0 0,83 145,0z" />
<path style="fill:#d9d9d9" d="M725,69 l0,-21 -145,0 0,21 145,0z" />
<path style="fill:#e5e5e5" d="M725,48 l0,-20 -145,0 0,20 145,0z" />
<path style="fill:none;stroke:#000;stroke-width:2" d="M725,111 l0,-83 -145,0 0,83 145,0" />
<path style="fill:#ccc;stroke:#000;stroke-width:2" d="M69,295 l-21,0 0,389 21,20 860,0 21,-20 0,-389 -21,0 0,389 -860,0 0,-389z" />
<path style="fill:#333" d="M90,684 l818,0 0,41 -818,0 0,-41z" />
<path style="fill:#666" d="M90,684 l818,0 0,-21 -818,0 0,21z" />
<path style="fill:none;stroke:#000;stroke-width:2" d="M90,663 l818,0 0,62 -818,0 0,-62" />
<path style="fill:#7f7f7f;stroke:#000;stroke-width:2" d="M69,499 l860,0 -61,41 -738,0 -61,-41z" />

</svg>
