 

<svg xmlns:agg="http://www.example.com" xmlns="http://www.w3.org/2000/svg" preserveAspectRatio="none" width="0.6456in" height="1.0750in" viewBox="0 0 600 999">

<path style="fill:#7f7f7f" d="M261,426 l75,0 0,33 -75,0 0,-33z" />
<path style="fill:#999" d="M269,425 l11,0 4,0 30,0 11,0 3,0 1,9 0,16 -1,9 -11,0 -11,-1 -22,0 -11,1 -4,0 0,-34z" />
<path style="fill:#b2b2b2" d="M277,425 l11,0 22,0 10,0 1,9 0,16 -1,9 -10,-1 -22,0 -11,1 1,-13 0,-12 -1,-9z" />
<path style="fill:#ccc" d="M285,425 l7,0 14,0 6,0 1,9 0,16 -1,9 -10,-1 -10,0 -7,1 0,-13 0,-12 0,-9z" />
<path style="fill:#e5e5e5" d="M293,426 l12,0 0,33 -12,0 0,-33z" />
<path style="fill:none;stroke:#000;stroke-width:2" d="M261,426 l75,0 0,33 -75,0 0,-33" />
<path style="fill:#b2b2b2;stroke:#000;stroke-width:2" d="M257,432 l85,0 0,-152 -85,0 0,152z" />
<path style="fill:#7f7f7f" d="M426,942 l-1,3 -28,15 -27,5 -33,3 -12,1 -13,0 -12,0 -38,-1 -33,-2 -27,-5 -27,-11 -3,-3 -1,-3 1,-11 3,-34 7,-33 9,-32 11,-31 12,-31 11,-31 12,-31 10,-31 9,-31 6,-31 2,-31 2,-28 4,-31 10,-25 3,-3 3,-1 27,0 14,23 4,29 4,36 3,31 5,31 7,30 11,31 11,31 12,31 12,31 11,31 9,32 6,33 3,33 1,11z" />
<path style="fill:#b2b2b2" d="M286,472 l2,0 1,0 1,0 21,0 3,9 1,2 0,1 0,2 -2,9 -1,1 -1,2 -1,0 -24,0 -4,-9 0,-1 0,-2 2,-10 2,-4z" />
<path style="fill:#bfbfbf" d="M286,472 l2,0 1,0 1,0 17,0 4,9 0,2 0,1 0,2 -2,9 -1,1 -1,2 -1,0 -20,0 -2,-9 0,-1 0,-2 2,-10 0,-4z" />
<path style="fill:#ccc" d="M288,472 l2,0 2,0 2,0 12,0 1,9 0,2 0,1 0,2 -1,9 0,1 0,2 -2,0 -16,0 -2,-5 0,-1 0,-2 0,-1 0,-9 2,-8z" />
<path style="fill:#d6d6d6" d="M288,472 l2,0 11,0 2,9 0,3 -1,9 -1,5 -13,0 -2,-9 0,-1 1,-10 1,-6z" />
<path style="fill:#e3e3e3" d="M290,472 l0,0 8,0 0,26 -8,0 -2,-5 0,-3 0,-10 2,-8z" />
<path style="fill:#f0f0f0" d="M290,472 l0,0 4,0 0,26 -4,0 0,-26z" />
<path style="fill:none;stroke:#000;stroke-width:2" d="M286,472 l2,0 1,0 1,0 21,0 3,9 1,2 0,1 0,2 -2,9 -1,1 -1,2 -1,0 -24,0 -4,-9 0,-1 0,-2 2,-10 2,-4" />
<path style="fill:#7f7f7f;stroke:#000;stroke-width:2" d="M301,432 l41,0 0,-152 -41,0 0,152z" />
<path style="fill:#f0f0f0" d="M306,432 l-10,0 0,-152 10,0 0,152z" />
<path style="fill:#ccc;stroke:#000;stroke-width:2" d="M212,325 l173,0 0,-66 -173,0 0,66z" />
<path style="fill:#e5e5e5;stroke:#000;stroke-width:2" d="M208,257 l183,0 0,49 146,0 -14,-278 -447,0 -13,278 145,0 0,-49z" />
<path style="fill:#fff;stroke:#000;stroke-width:2" d="M379,307 l0,8 192,0 0,-9 -180,0 0,-49 -183,0 0,49 -180,0 0,9 192,0 0,-9 0,-39 159,0 0,40z" />
<circle style="fill:#999;stroke:#000;stroke-width:2" cx="252" cy="294" r="20" />
<circle style="fill:#999;stroke:#000;stroke-width:2" cx="346" cy="294" r="21" />
<path style="fill:none;stroke:#000;stroke-width:2" d="M426,942 l-1,3 -28,15 -27,5 -33,3 -12,1 -13,0 -12,0 -38,-1 -33,-2 -27,-5 -27,-11 -3,-3 -1,-3 1,-11 3,-34 7,-33 9,-32 11,-31 12,-31 11,-31 12,-31 10,-31 9,-31 6,-31 2,-31 2,-28 4,-31 10,-25 3,-3 3,-1 27,0 14,23 4,29 4,36 3,31 5,31 7,30 11,31 11,31 12,31 12,31 11,31 9,32 6,33 3,33 1,11" />
<path style="fill:#999" d="M403,942 l-23,18 -31,6 -28,3 -11,0 -10,0 -32,-1 -27,-3 -28,-6 -18,-12 -1,-3 0,-11 3,-34 6,-33 7,-32 9,-31 10,-32 10,-30 9,-31 9,-31 7,-31 4,-31 2,-31 2,-28 3,-31 8,-25 6,-4 2,0 3,-1 3,0 14,1 11,23 4,29 2,36 3,30 4,31 7,31 8,31 9,31 10,30 10,31 9,32 7,32 6,32 2,34 0,11z" />
<path style="fill:#b2b2b2" d="M381,942 l-24,19 -26,6 -15,2 -8,1 -9,0 -31,-2 -27,-6 -22,-12 -2,-3 0,-3 0,-11 2,-34 4,-33 6,-32 7,-32 8,-31 8,-31 7,-31 7,-30 5,-31 4,-32 1,-30 2,-28 2,-31 7,-25 4,-4 2,0 2,-1 2,0 11,1 2,1 8,28 2,31 2,28 2,30 3,31 5,31 7,31 7,31 8,30 8,32 7,31 6,32 4,33 2,22 0,11 0,11z" />
<path style="fill:#ccc" d="M359,942 l-22,21 -26,6 -6,1 -6,0 -28,-3 -24,-10 -7,-10 -1,-2 0,-12 2,-34 3,-32 4,-33 5,-31 6,-32 5,-30 6,-32 5,-31 4,-31 2,-31 2,-31 1,-27 1,-31 6,-27 2,-2 2,0 1,0 2,0 8,0 7,29 2,31 1,27 1,31 2,31 4,31 5,31 5,31 6,31 5,31 5,31 5,32 3,33 1,22 1,11 0,11z" />
<path style="fill:#e5e5e5" d="M336,943 l-16,23 -14,4 -7,0 -8,0 -23,-11 -6,-9 -1,-5 0,-11 1,-34 2,-33 3,-32 3,-32 3,-31 4,-31 3,-31 4,-31 2,-31 2,-32 0,-30 1,-36 2,-29 3,-21 1,-2 8,0 4,29 1,31 1,38 1,31 2,31 3,31 3,30 3,31 4,31 3,31 3,32 3,32 1,33 1,11 0,12 0,11z" />
<path style="fill:#7f7f7f" d="M252,616 l94,0 0,25 -94,0 0,-25z" />
<path style="fill:#999" d="M263,616 l13,0 5,0 37,0 9,0 9,0 1,6 0,12 -1,6 -14,0 -9,0 -32,0 -9,0 -9,0 0,-9 0,-12 0,-3z" />
<path style="fill:#b2b2b2" d="M273,616 l10,0 3,0 27,0 10,0 3,0 1,6 0,12 -1,6 -10,0 -10,0 -20,0 -10,0 -3,0 0,-9 0,-12 0,-3z" />
<path style="fill:#ccc" d="M282,616 l9,0 17,0 8,0 1,6 0,12 -1,6 -12,0 -13,0 -9,0 1,-9 -1,-12 0,-3z" />
<path style="fill:#e5e5e5" d="M292,616 l14,0 0,25 -14,0 0,-25z" />
<path style="fill:none;stroke:#000;stroke-width:2" d="M252,616 l94,0 0,25 -94,0 0,-25" />
<path style="fill:#7f7f7f" d="M135,455 l327,0 0,19 -327,0 0,-19z" />
<path style="fill:#999" d="M170,455 l49,0 8,-1 9,0 137,0 16,1 40,0 1,2 0,2 0,2 0,10 -1,3 -7,0 -41,0 -16,-1 -138,0 -16,1 -33,0 -8,0 1,-3 0,-10 -1,-6z" />
<path style="fill:#b2b2b2" d="M205,455 l36,0 12,-1 95,0 11,1 35,0 1,6 -1,10 0,3 -35,0 -11,-1 -95,0 -12,1 -36,0 1,-10 -1,-9z" />
<path style="fill:#ccc" d="M240,455 l23,0 7,-1 61,0 14,1 15,0 1,6 -1,10 0,3 -22,0 -15,-1 -53,0 -15,1 -15,0 1,-10 -1,-9z" />
<path style="fill:#e5e5e5" d="M274,455 l51,0 0,19 -51,0 0,-19z" />
<path style="fill:none;stroke:#000;stroke-width:2" d="M135,455 l327,0 0,19 -327,0 0,-19" />
<path style="fill:#000;stroke:#000;stroke-width:2" d="M91,42 l78,0 0,10 -78,0 0,-10z" />
<path style="fill:#000;stroke:#000;stroke-width:2" d="M204,42 l78,0 0,10 -78,0 0,-10z" />
<path style="fill:#000;stroke:#000;stroke-width:2" d="M316,42 l79,0 0,10 -79,0 0,-10z" />
<path style="fill:#000;stroke:#000;stroke-width:2" d="M429,42 l79,0 0,10 -79,0 0,-10z" />

</svg>
