 

<svg xmlns:agg="http://www.example.com" xmlns="http://www.w3.org/2000/svg" preserveAspectRatio="none" width="1.2754in" height="1.0750in" viewBox="0 0 999 842">

<path style="fill:#c93;stroke:#000;stroke-width:2" d="M952,814 l18,-21 0,-38 -18,0 0,-20 18,0 0,-570 -18,0 0,-19 18,0 0,-98 -18,-20 -906,0 -18,20 0,98 18,0 0,19 -18,0 0,570 18,0 0,20 -18,0 0,38 18,21 906,0z" />
<path style="fill:#666" d="M804,67 l-707,0 0,707 707,0 0,-707z" />
<path style="fill:#999" d="M795,774 l0,-648 -79,0 0,648 79,0z" />
<path style="fill:#999" d="M891,814 l0,-688 -87,0 0,688 87,0z" />
<path style="fill:#b2b2b2" d="M872,343 l-49,0 0,235 49,0 0,-235z" />
<path style="fill:#666" d="M872,529 l-49,0 0,19 49,0 0,-19z" />
<path style="fill:#666" d="M735,514 l0,89 18,0 0,-89 -18,0z" />
<path style="fill:#666" d="M735,633 l0,86 18,0 0,-86 -18,0z" />
<path style="fill:#999" d="M86,28 l-9,0 0,786 9,0 0,-786z" />
<path style="fill:#999" d="M921,28 l-9,0 0,786 9,0 0,-786z" />
<path style="fill:#b2b2b2" d="M175,774 l0,-688 -78,0 0,679 19,0 0,9 59,0z" />
<path style="fill:#b2b2b2" d="M263,774 l0,-688 -77,0 0,679 19,0 0,9 58,0z" />
<path style="fill:#b2b2b2" d="M352,774 l0,-688 -79,0 0,679 20,0 0,9 59,0z" />
<path style="fill:#b2b2b2" d="M440,774 l0,-688 -79,0 0,679 21,0 0,9 58,0z" />
<path style="fill:#b2b2b2" d="M529,774 l0,-688 -79,0 0,679 21,0 -2,9 60,0z" />
<path style="fill:#b2b2b2" d="M618,774 l0,-686 -80,0 0,677 21,0 -1,9 60,0z" />
<path style="fill:#b2b2b2" d="M707,774 l0,-688 -80,0 0,679 19,0 0,9 61,0z" />
<path style="fill:#b2b2b2" d="M184,116 l0,-88 -19,0 0,20 -58,0 0,68 77,0z" />
<path style="fill:#b2b2b2" d="M361,116 l0,-88 -18,0 0,20 -61,0 0,68 79,0z" />
<path style="fill:#b2b2b2" d="M538,116 l0,-88 -20,0 0,20 -58,0 0,68 78,0z" />
<path style="fill:#b2b2b2" d="M716,116 l0,-88 -21,0 0,20 -58,0 0,68 79,0z" />
<path style="fill:#b2b2b2;stroke:#4c4c4c;stroke-width:2" d="M891,116 l0,-88 -19,0 0,20 -58,0 0,68 77,0z" />
<path style="fill:#7f7f7f" d="M891,97 l-77,0 0,10 77,0 0,-10z" />
<path style="fill:#7f7f7f" d="M716,97 l-79,0 0,10 79,0 0,-10z" />
<path style="fill:#7f7f7f" d="M538,97 l-78,0 0,10 78,0 0,-10z" />
<path style="fill:#7f7f7f" d="M361,97 l-79,0 0,10 79,0 0,-10z" />
<path style="fill:#7f7f7f" d="M184,97 l-77,0 0,10 77,0 0,-10z" />
<path style="fill:none;stroke:#4c4c4c;stroke-width:2" d="M716,116 l0,-88 -21,0 0,20 -58,0 0,68 79,0" />
<path style="fill:none;stroke:#4c4c4c;stroke-width:2" d="M538,116 l0,-88 -20,0 0,20 -58,0 0,68 78,0" />
<path style="fill:none;stroke:#4c4c4c;stroke-width:2" d="M361,116 l0,-88 -18,0 0,20 -61,0 0,68 79,0" />
<path style="fill:none;stroke:#4c4c4c;stroke-width:2" d="M184,116 l0,-88 -19,0 0,20 -58,0 0,68 77,0" />
<path style="fill:#ccc" d="M165,450 l-58,0 0,30 58,0 0,-30z" />
<path style="fill:#ccc" d="M254,450 l-59,0 0,30 59,0 0,-30z" />
<path style="fill:#ccc" d="M343,450 l-59,0 0,30 59,0 0,-30z" />
<path style="fill:#ccc" d="M431,450 l-58,0 0,30 58,0 0,-30z" />
<path style="fill:#ccc" d="M520,450 l-60,0 0,30 60,0 0,-30z" />
<path style="fill:#ccc" d="M608,450 l-60,0 0,30 60,0 0,-30z" />
<path style="fill:#ccc" d="M695,450 l-58,0 0,30 58,0 0,-30z" />
<path style="fill:#7f7f7f" d="M705,422 l-609,0 0,9 609,0 0,-9z" />
<path style="fill:#c2c2c2" d="M165,480 l-58,0 0,28 58,0 0,-28z" />
<path style="fill:#c2c2c2" d="M254,480 l-59,0 0,28 59,0 0,-28z" />
<path style="fill:#c2c2c2" d="M343,480 l-61,0 0,28 61,0 0,-28z" />
<path style="fill:#c2c2c2" d="M431,480 l-60,0 0,28 60,0 0,-28z" />
<path style="fill:#c2c2c2" d="M520,480 l-60,0 0,28 60,0 0,-28z" />
<path style="fill:#c2c2c2" d="M606,480 l-58,0 0,28 58,0 0,-28z" />
<path style="fill:#c2c2c2" d="M695,480 l-58,0 0,28 58,0 0,-28z" />
<path style="fill:#b5b5b5" d="M165,508 l-58,0 0,30 58,0 0,-30z" />
<path style="fill:#b5b5b5" d="M254,508 l-59,0 0,30 59,0 0,-30z" />
<path style="fill:#b5b5b5" d="M343,508 l-61,0 0,30 61,0 0,-30z" />
<path style="fill:#b5b5b5" d="M431,508 l-60,0 0,30 60,0 0,-30z" />
<path style="fill:#b5b5b5" d="M520,508 l-60,0 0,30 60,0 0,-30z" />
<path style="fill:#b5b5b5" d="M606,508 l-58,0 0,30 58,0 0,-30z" />
<path style="fill:#b5b5b5" d="M695,508 l-58,0 0,30 58,0 0,-30z" />
<path style="fill:#ababab" d="M695,538 l-58,0 0,31 58,0 0,-31z" />
<path style="fill:#ababab" d="M606,538 l-58,0 0,31 58,0 0,-31z" />
<path style="fill:#ababab" d="M520,538 l-60,0 0,31 60,0 0,-31z" />
<path style="fill:#ababab" d="M431,538 l-60,0 0,31 60,0 0,-31z" />
<path style="fill:#ababab" d="M343,538 l-61,0 0,31 61,0 0,-31z" />
<path style="fill:#ababab" d="M254,538 l-59,0 0,31 59,0 0,-31z" />
<path style="fill:#ababab" d="M165,538 l-58,0 0,31 58,0 0,-31z" />
<path style="fill:#9e9e9e" d="M695,569 l-58,0 0,28 58,0 0,-28z" />
<path style="fill:#9e9e9e" d="M606,569 l-58,0 0,28 58,0 0,-28z" />
<path style="fill:#9e9e9e" d="M520,569 l-60,0 0,28 60,0 0,-28z" />
<path style="fill:#9e9e9e" d="M431,569 l-60,0 0,28 60,0 0,-28z" />
<path style="fill:#9e9e9e" d="M343,569 l-61,0 0,28 61,0 0,-28z" />
<path style="fill:#9e9e9e" d="M254,569 l-59,0 0,28 59,0 0,-28z" />
<path style="fill:#9e9e9e" d="M165,569 l-58,0 0,28 58,0 0,-28z" />
<path style="fill:#949494" d="M695,597 l-58,0 0,30 58,0 0,-30z" />
<path style="fill:#949494" d="M606,597 l-58,0 0,30 58,0 0,-30z" />
<path style="fill:#949494" d="M520,597 l-60,0 0,30 60,0 0,-30z" />
<path style="fill:#949494" d="M431,597 l-60,0 0,30 60,0 0,-30z" />
<path style="fill:#949494" d="M343,597 l-61,0 0,30 61,0 0,-30z" />
<path style="fill:#949494" d="M254,597 l-59,0 0,30 59,0 0,-30z" />
<path style="fill:#949494" d="M165,597 l-58,0 0,30 58,0 0,-30z" />
<path style="fill:#878787" d="M695,627 l-58,0 0,30 58,0 0,-30z" />
<path style="fill:#878787" d="M606,627 l-58,0 0,30 58,0 0,-30z" />
<path style="fill:#878787" d="M520,627 l-60,0 0,30 60,0 0,-30z" />
<path style="fill:#878787" d="M431,627 l-60,0 0,30 60,0 0,-30z" />
<path style="fill:#878787" d="M343,627 l-61,0 0,30 61,0 0,-30z" />
<path style="fill:#878787" d="M254,627 l-59,0 0,30 59,0 0,-30z" />
<path style="fill:#878787" d="M165,627 l-58,0 0,30 58,0 0,-30z" />
<path style="fill:#7d7d7d" d="M695,657 l-58,0 0,29 58,0 0,-29z" />
<path style="fill:#7d7d7d" d="M606,657 l-58,0 0,29 58,0 0,-29z" />
<path style="fill:#7d7d7d" d="M520,657 l-60,0 0,29 60,0 0,-29z" />
<path style="fill:#7d7d7d" d="M431,657 l-60,0 0,29 60,0 0,-29z" />
<path style="fill:#7d7d7d" d="M343,657 l-61,0 0,29 61,0 0,-29z" />
<path style="fill:#7d7d7d" d="M254,657 l-59,0 0,29 59,0 0,-29z" />
<path style="fill:#7d7d7d" d="M165,657 l-58,0 0,29 58,0 0,-29z" />
<path style="fill:#707070" d="M695,686 l-58,0 0,30 58,0 0,-30z" />
<path style="fill:#707070" d="M606,686 l-58,0 0,30 58,0 0,-30z" />
<path style="fill:#707070" d="M520,686 l-60,0 0,30 60,0 0,-30z" />
<path style="fill:#707070" d="M431,686 l-60,0 0,30 60,0 0,-30z" />
<path style="fill:#707070" d="M343,686 l-61,0 0,30 61,0 0,-30z" />
<path style="fill:#707070" d="M254,686 l-59,0 0,30 59,0 0,-30z" />
<path style="fill:#707070" d="M165,686 l-58,0 0,30 58,0 0,-30z" />
<path style="fill:#666" d="M695,716 l-58,0 0,28 58,0 0,-28z" />
<path style="fill:#666" d="M608,716 l-60,0 0,28 60,0 0,-28z" />
<path style="fill:#666" d="M520,716 l-60,0 0,28 60,0 0,-28z" />
<path style="fill:#666" d="M431,716 l-58,0 0,28 58,0 0,-28z" />
<path style="fill:#666" d="M343,716 l-59,0 0,28 59,0 0,-28z" />
<path style="fill:#666" d="M254,716 l-59,0 0,28 59,0 0,-28z" />
<path style="fill:#666" d="M165,716 l-58,0 0,28 58,0 0,-28z" />
<path style="fill:none;stroke:#4c4c4c;stroke-width:2" d="M165,450 l-58,0 0,294 58,0 0,-294" />
<path style="fill:none;stroke:#4c4c4c;stroke-width:2" d="M146,480 l0,264" />
<path style="fill:none;stroke:#4c4c4c;stroke-width:2" d="M254,450 l-59,0 0,294 59,0 0,-294" />
<path style="fill:none;stroke:#4c4c4c;stroke-width:2" d="M235,480 l0,264" />
<path style="fill:none;stroke:#4c4c4c;stroke-width:2" d="M343,450 l-59,0 0,294 59,0 0,-294" />
<path style="fill:none;stroke:#4c4c4c;stroke-width:2" d="M322,480 l0,264" />
<path style="fill:none;stroke:#4c4c4c;stroke-width:2" d="M431,450 l-58,0 0,294 58,0 0,-294" />
<path style="fill:none;stroke:#4c4c4c;stroke-width:2" d="M410,480 l0,264" />
<path style="fill:none;stroke:#4c4c4c;stroke-width:2" d="M520,450 l-60,0 0,294 60,0 0,-294" />
<path style="fill:none;stroke:#4c4c4c;stroke-width:2" d="M499,480 l0,264" />
<path style="fill:none;stroke:#4c4c4c;stroke-width:2" d="M608,450 l-60,0 0,294 60,0 0,-294" />
<path style="fill:none;stroke:#4c4c4c;stroke-width:2" d="M588,480 l0,264" />
<path style="fill:none;stroke:#4c4c4c;stroke-width:2" d="M695,450 l-58,0 0,294 58,0 0,-294" />
<path style="fill:none;stroke:#4c4c4c;stroke-width:2" d="M676,480 l0,264" />
<path style="fill:#999" d="M673,333 l7,-9 0,-12 -7,-9 -14,0 -7,9 0,12 7,9 14,0z" />
<path style="fill:#999" d="M584,333 l9,-9 0,-12 -9,-9 -12,0 -9,9 0,12 9,9 12,0z" />
<path style="fill:#999" d="M495,333 l10,-9 0,-12 -10,-9 -11,0 -10,9 0,12 10,9 11,0z" />
<path style="fill:#999" d="M407,333 l9,-9 0,-12 -9,-9 -12,0 -9,9 0,12 9,9 12,0z" />
<path style="fill:#999" d="M318,333 l9,-9 0,-12 -9,-9 -11,0 -10,9 0,12 10,9 11,0z" />
<path style="fill:#999" d="M229,333 l10,-9 0,-12 -10,-9 -11,0 -9,9 0,12 9,9 11,0z" />
<path style="fill:#999" d="M143,333 l7,-9 0,-12 -7,-9 -14,0 -7,9 0,12 7,9 14,0z" />
<path style="fill:none;stroke:#4c4c4c;stroke-width:2" d="M352,126 l-79,0" />
<path style="fill:none;stroke:#4c4c4c;stroke-width:2" d="M343,126 l-61,0 0,60 61,0 0,-60" />
<path style="fill:none;stroke:#4c4c4c;stroke-width:2" d="M263,126 l-79,0" />
<path style="fill:none;stroke:#4c4c4c;stroke-width:2" d="M254,126 l-59,0 0,60 59,0 0,-60" />
<path style="fill:none;stroke:#4c4c4c;stroke-width:2" d="M529,126 l-79,0" />
<path style="fill:none;stroke:#4c4c4c;stroke-width:2" d="M518,126 l-58,0 0,60 58,0 0,-60" />
<path style="fill:none;stroke:#4c4c4c;stroke-width:2" d="M440,126 l-79,0" />
<path style="fill:none;stroke:#4c4c4c;stroke-width:2" d="M431,126 l-60,0 0,60 60,0 0,-60" />
<path style="fill:none;stroke:#4c4c4c;stroke-width:2" d="M705,126 l-78,0" />
<path style="fill:none;stroke:#4c4c4c;stroke-width:2" d="M695,126 l-58,0 0,60 58,0 0,-60" />
<path style="fill:none;stroke:#4c4c4c;stroke-width:2" d="M618,126 l-80,0" />
<path style="fill:none;stroke:#4c4c4c;stroke-width:2" d="M606,126 l-58,0 0,60 58,0 0,-60" />
<path style="fill:none;stroke:#4c4c4c;stroke-width:2" d="M175,126 l-78,0" />
<path style="fill:none;stroke:#4c4c4c;stroke-width:2" d="M165,126 l-58,0 0,60 58,0 0,-60" />
<path style="fill:#7f7f7f" d="M652,195 l-15,0 0,29 15,0 0,-29z" />
<path style="fill:#7f7f7f" d="M563,195 l-15,0 0,29 15,0 0,-29z" />
<path style="fill:#7f7f7f" d="M474,195 l-14,0 0,29 14,0 0,-29z" />
<path style="fill:#7f7f7f" d="M386,195 l-15,0 0,29 15,0 0,-29z" />
<path style="fill:#7f7f7f" d="M297,195 l-15,0 0,29 15,0 0,-29z" />
<path style="fill:#7f7f7f" d="M209,195 l-14,0 0,29 14,0 0,-29z" />
<path style="fill:#7f7f7f" d="M122,195 l-15,0 0,29 15,0 0,-29z" />
<path style="fill:none;stroke:#4c4c4c;stroke-width:2" d="M759,499 l-30,0 0,236 30,0 0,-236" />
<path style="fill:none;stroke:#4c4c4c;stroke-width:2" d="M759,618 l-30,0" />
<path style="fill:#999" d="M804,43 l-79,0 0,64 79,0 0,-64z" />
<path style="fill:#999;stroke:#4c4c4c;stroke-width:2" d="M789,62 l-54,0 0,64 54,0 0,-64z" />
<path style="fill:#7f0000" d="M872,163 l6,-9 -6,-8 -9,0 -6,8 6,9 9,0z" />
<path style="fill:#7f0000" d="M872,201 l6,-7 -6,-8 -9,0 -6,8 6,7 9,0z" />
<path style="fill:#7f0000" d="M872,241 l6,-8 -6,-9 -9,0 -6,9 6,8 9,0z" />
<path style="fill:#007f00" d="M833,163 l5,-9 -5,-8 -10,0 -5,8 5,9 10,0z" />
<path style="fill:#007f00" d="M833,201 l5,-7 -5,-8 -10,0 -5,8 5,7 10,0z" />
<path style="fill:#007f00" d="M833,241 l5,-8 -5,-9 -10,0 -5,9 5,8 10,0z" />
<path style="fill:#999" d="M853,397 l10,-9 0,-12 -10,-9 -11,0 -9,9 0,12 9,9 11,0z" />
<path style="fill:#7f7f7f" d="M761,312 l8,-7 0,-14 -8,-7 -13,0 -8,7 0,14 8,7 13,0z" />
<path style="fill:#7f7f7f" d="M765,450 l13,-15 0,-19 -13,-15 -21,0 -15,15 0,19 15,15 21,0z" />
<path style="fill:none;stroke:#4c4c4c;stroke-width:2" d="M744,171 l-19,0 0,92 19,0 0,-92" />
<path style="fill:#666" d="M853,288 l10,-8 0,-13 -10,-8 -11,0 -9,8 0,13 9,8 11,0z" />

</svg>
