 

<svg xmlns:agg="http://www.example.com" xmlns="http://www.w3.org/2000/svg" preserveAspectRatio="none" width="1.0520in" height="1.0750in" viewBox="0 0 961 982">

<path style="fill:#c0c0c0;stroke:#000;stroke-width:2" d="M842,36 l0,278 -25,18 -562,0 -17,-12 -5,-15 0,-255 -25,-14 -70,0 -9,-9 -47,0 -54,55 -1,848 15,22 7,3 74,0 0,-518 4,-14 21,-12 6,-1 666,0 9,2 9,19 0,524 76,0 16,-13 4,-9 0,-867 -3,-11 -26,-19 -63,0z" />
<path style="fill:#fff;stroke:#000;stroke-width:2" d="M123,955 l0,-518 1,-5 1,-4 2,-5 6,-6 4,-3 5,-2 6,-1 6,-1 666,0 4,1 5,1 4,4 3,5 1,5 1,5 0,524 -715,0z" />
<path style="fill:#f0f0f0;stroke:#000;stroke-width:2" d="M718,36 l0,280 -1,2 -3,5 -7,7 -5,2 -447,0 -10,-5 -7,-7 -3,-9 -2,-6 0,-269 485,0z" />
<path style="fill:#c0c0c0;stroke:#000;stroke-width:2" d="M842,36 l0,278 -16,12 -9,6 -115,0 5,-2 7,-7 3,-5 1,-2 0,-280 124,0z" />
<path style="fill:#c0c0c0;stroke:#000;stroke-width:2" d="M425,310 l0,-241 -120,0 0,241 120,0z" />
<path style="fill:#000;stroke:#000;stroke-width:2" d="M899,883 l0,-27 -39,0 0,27 39,0z" />

</svg>
