 

<svg xmlns:agg="http://www.example.com" xmlns="http://www.w3.org/2000/svg" preserveAspectRatio="none" width="1.3983in" height="1.0750in" viewBox="0 0 999 768">

<path style="fill:#333;stroke:#000;stroke-width:2" d="M666,308 l27,28 24,25 23,24 21,21 20,20 28,27 26,24 25,23 24,22 25,22 25,23 27,26 9,9 0,4 0,51 0,4 -10,-10 -21,-18 -21,-19 -19,-18 -20,-18 -19,-17 -20,-18 -19,-18 -20,-18 -21,-18 -21,-20 -22,-20 -22,-20 -24,-22 -25,-23 -26,-24 -13,-13 5,-5 19,-20 10,-10 5,-4z" />
<path style="fill:#e5e5e5;stroke:#000;stroke-width:2" d="M970,543 l-29,0 0,197 29,0 0,-197z" />
<path style="fill:#e5e5e5;stroke:#000;stroke-width:2" d="M941,602 l-884,0 0,79 884,0 0,-79z" />
<path style="fill:#e5e5e5;stroke:#000;stroke-width:2" d="M57,543 l-29,0 0,197 29,0 0,-197z" />
<path style="fill:#b2b2b2" d="M965,686 l-19,0 0,49 19,0 0,-49z" />
<path style="fill:#b2b2b2" d="M936,651 l-874,0 0,25 874,0 0,-25z" />
<path style="fill:#b2b2b2" d="M52,686 l-19,0 0,49 19,0 0,-49z" />
<path style="fill:#7f7f7f;stroke:#000;stroke-width:2" d="M401,592 l10,0 0,108 -10,0 0,-108z" />
<path style="fill:#7f7f7f;stroke:#000;stroke-width:2" d="M430,588 l-49,0 0,4 49,0 0,-4z" />
<path style="fill:#7f7f7f;stroke:#000;stroke-width:2" d="M420,588 l-29,0 0,-15 29,0 0,15z" />
<path style="fill:#7f7f7f;stroke:#000;stroke-width:2" d="M401,543 l10,0 0,30 -10,0 0,-30z" />
<path style="fill:#7f7f7f;stroke:#000;stroke-width:2" d="M597,592 l-10,0 0,108 10,0 0,-108z" />
<path style="fill:#7f7f7f;stroke:#000;stroke-width:2" d="M617,588 l-49,0 0,4 49,0 0,-4z" />
<path style="fill:#7f7f7f;stroke:#000;stroke-width:2" d="M607,588 l-29,0 0,-15 29,0 0,15z" />
<path style="fill:#7f7f7f;stroke:#000;stroke-width:2" d="M587,543 l10,0 0,30 -10,0 0,-30z" />
<path style="fill:#ccc;stroke:#000;stroke-width:2" d="M787,573 l-38,10 20,76 38,-10 -20,-76z" />
<ellipse style="fill:#b2b2b2;stroke:#000;stroke-width:2" cx="683" cy="641" rx="38" ry="30" />
<path style="fill:#ccc;stroke:#000;stroke-width:2" d="M191,649 l38,11 20,-76 -38,-11 -20,76z" />
<ellipse style="fill:#b2b2b2;stroke:#000;stroke-width:2" cx="314" cy="642" rx="38" ry="30" />
<path style="fill:#7f7f7f;stroke:#000;stroke-width:2" d="M308,124 l-7,24 -7,25 -2,7 -30,-6 -33,3 -35,11 -32,19 -28,23 -18,22 -12,24 -8,29 -6,32 -3,34 0,35 2,33 5,29 14,30 18,30 21,23 22,16 24,12 16,5 -7,25 -6,25 -1,4 -1,3 -9,-4 -32,-17 -22,-16 -21,-18 -21,-20 -18,-23 -14,-24 -10,-25 -4,-26 -4,-29 -1,-19 0,-11 0,-10 0,-31 3,-31 4,-30 6,-28 7,-26 13,-29 18,-23 18,-20 26,-22 26,-18 28,-12 29,-9 30,-3 8,-1 7,1 31,3 8,2 8,2z" />
<path style="fill:#7f7f7f;stroke:#000;stroke-width:2" d="M690,124 l7,24 7,25 1,7 31,-6 33,3 34,11 33,19 28,23 18,22 11,24 9,29 6,32 3,34 0,35 -2,33 -5,29 -14,30 -19,30 -20,23 -23,16 -23,12 -17,5 7,25 7,25 0,4 1,3 10,-4 31,-17 22,-16 22,-18 20,-20 18,-23 14,-24 10,-25 5,-26 3,-29 2,-19 0,-11 0,-10 -1,-31 -2,-31 -4,-30 -6,-28 -8,-26 -13,-29 -18,-23 -18,-20 -25,-22 -27,-18 -28,-12 -29,-9 -29,-3 -8,-1 -8,1 -30,3 -8,2 -8,2z" />
<path style="fill:#e5e5e5;stroke:#000;stroke-width:2" d="M578,72 l-158,0 0,-44 158,0 0,44z" />
<path style="fill:#7f7f7f;stroke:#000;stroke-width:2" d="M548,484 l-30,0 0,99 30,0 0,-99z" />
<path style="fill:#ccc;stroke:#000;stroke-width:2" d="M469,484 l-19,0 0,99 19,0 0,-99z" />
<path style="fill:#7f7f7f;stroke:#000;stroke-width:2" d="M538,484 l-78,0 0,-39 78,0 0,39z" />
<path style="fill:#b2b2b2;stroke:#000;stroke-width:2" d="M548,445 l-98,0 0,-118 98,0 0,118z" />
<path style="fill:#b2b2b2;stroke:#000;stroke-width:2" d="M519,484 l-50,0 0,99 50,0 0,-99z" />
<path style="fill:#b2b2b2;stroke:#000;stroke-width:2" d="M553,583 l-108,0 0,9 108,0 0,-9z" />
<path style="fill:#b2b2b2;stroke:#000;stroke-width:2" d="M656,592 l-314,0 0,10 314,0 0,-10z" />
<path style="fill:#b2b2b2;stroke:#000;stroke-width:2" d="M752,592 l-20,6 16,57 19,-6 -15,-57z" />
<path style="fill:#b2b2b2;stroke:#000;stroke-width:2" d="M747,650 l-57,15 -7,1 -6,1 -6,-1 -5,-2 -6,-2 -3,-3 -3,-4 -2,-5 -1,-5 1,-5 2,-5 2,-4 4,-5 5,-3 6,-3 6,-3 57,-15 13,48z" />
<path style="fill:#b2b2b2;stroke:#000;stroke-width:2" d="M231,650 l19,5 15,-57 -19,-5 -15,57z" />
<path style="fill:#b2b2b2;stroke:#000;stroke-width:2" d="M264,603 l57,15 6,2 6,3 5,4 4,4 2,5 2,4 1,5 -1,5 -2,5 -3,4 -4,3 -4,3 -6,1 -6,1 -6,0 -7,-1 -57,-16 13,-47z" />
<path style="fill:#ccc;stroke:#000;stroke-width:2" d="M286,187 l38,10 21,-76 -38,-10 -21,76z" />
<path style="fill:#ccc;stroke:#000;stroke-width:2" d="M677,300 l-28,-27 -55,55 28,29 55,-57z" />
<path style="fill:#ccc;stroke:#000;stroke-width:2" d="M691,111 l-38,10 20,76 38,-10 -20,-76z" />
<path style="fill:#b2b2b2;stroke:#000;stroke-width:2" d="M327,188 l19,5 15,-57 -19,-5 -15,57z" />
<path style="fill:#b2b2b2;stroke:#000;stroke-width:2" d="M643,280 l-14,-14 -42,42 14,14 42,-42z" />
<path style="fill:#b2b2b2;stroke:#000;stroke-width:2" d="M655,131 l-19,5 16,57 19,-5 -16,-57z" />
<circle style="fill:#b2b2b2;stroke:#000;stroke-width:2" cx="499" cy="190" r="157" />
<circle style="fill:#ccc;stroke:#000;stroke-width:2" cx="499" cy="189" r="118" />
<path style="fill:#e5e5e5;stroke:#000;stroke-width:2" d="M489,77 l-10,0 0,226 10,0 0,-226z" />
<path style="fill:#e5e5e5;stroke:#000;stroke-width:2" d="M518,77 l-9,0 0,226 9,0 0,-226z" />
<circle style="fill:#333;stroke:#000;stroke-width:2" cx="499" cy="189" r="79" />
<path style="fill:#7f7f7f" d="M553,170 l-108,0 0,35 108,0 0,-35z" />
<path style="fill:#000" d="M441,170 l4,-4 108,0 0,8 -108,0 4,-4 -8,0 0,-4 4,0z" />
<path style="fill:#000" d="M445,209 l-4,-4 0,-35 8,0 0,35 -4,-5 0,9 -4,0 0,-4z" />
<path style="fill:#000" d="M557,205 l-4,4 -108,0 0,-9 108,0 -4,5 8,0 0,4 -4,0z" />
<path style="fill:#000" d="M553,166 l4,4 0,35 -8,0 0,-35 4,4 0,-8 4,0 0,4z" />

</svg>
