 

<svg xmlns:agg="http://www.example.com" xmlns="http://www.w3.org/2000/svg" preserveAspectRatio="none" width="0.6844in" height="1.0750in" viewBox="0 0 636 999">

<path style="fill:#d9d9d9;stroke:#000;stroke-width:2" d="M28,100 l580,0 0,870 -580,0 0,-870z" />
<path style="fill:#fff;stroke:#999;stroke-width:2" d="M64,136 l508,0 0,617 -508,0 0,-617z" />
<path style="fill:#ccc" d="M318,499 l77,-77 7,8 6,9 5,9 5,10 4,9 2,11 2,10 0,6 0,5 0,11 -2,11 -2,10 -4,10 -5,10 -5,9 -6,8 -7,8 -8,7 -8,6 -9,6 -10,4 -10,4 -10,2 -11,2 -11,1 -11,-1 -10,-1 -11,-3 -10,-4 -10,-4 -9,-6 -8,-6 -8,-7 77,-77z" />
<path style="fill:#000" d="M477,586 l-5,8 -47,-27 5,-8 47,27z" />
<path style="fill:#000" d="M499,495 l0,9 -54,0 0,-9 54,0z" />
<path style="fill:#000" d="M473,405 l4,7 -47,28 -4,-8 47,-27z" />
<path style="fill:#000" d="M405,340 l7,4 -27,47 -7,-4 27,-47z" />
<path style="fill:#000" d="M314,318 l8,0 0,54 -8,0 0,-54z" />
<path style="fill:#000" d="M223,344 l8,-4 27,47 -7,4 -28,-47z" />
<path style="fill:#000" d="M159,412 l4,-8 47,27 -4,8 -47,-27z" />
<path style="fill:#000" d="M136,503 l0,-9 55,0 0,9 -55,0z" />
<path style="fill:#000" d="M163,593 l-5,-7 47,-28 5,8 -47,27z" />
<path style="fill:none;stroke:#000;stroke-width:2" d="M440,532 l35,9" />
<path style="fill:none;stroke:#000;stroke-width:2" d="M440,466 l35,-9" />
<path style="fill:none;stroke:#000;stroke-width:2" d="M407,409 l26,-25" />
<path style="fill:none;stroke:#000;stroke-width:2" d="M350,377 l10,-36" />
<path style="fill:none;stroke:#000;stroke-width:2" d="M285,377 l-9,-36" />
<path style="fill:none;stroke:#000;stroke-width:2" d="M228,409 l-25,-25" />
<path style="fill:none;stroke:#000;stroke-width:2" d="M195,466 l-35,-9" />
<path style="fill:none;stroke:#000;stroke-width:2" d="M195,532 l-35,9" />
<path style="fill:none;stroke:#7f7f7f;stroke-width:2" d="M434,548 l18,6" />
<path style="fill:none;stroke:#7f7f7f;stroke-width:2" d="M443,516 l18,2" />
<path style="fill:none;stroke:#7f7f7f;stroke-width:2" d="M443,483 l18,-3" />
<path style="fill:none;stroke:#7f7f7f;stroke-width:2" d="M435,451 l16,-8" />
<path style="fill:none;stroke:#7f7f7f;stroke-width:2" d="M418,422 l15,-11" />
<path style="fill:none;stroke:#7f7f7f;stroke-width:2" d="M395,399 l11,-15" />
<path style="fill:none;stroke:#7f7f7f;stroke-width:2" d="M366,382 l7,-17" />
<path style="fill:none;stroke:#7f7f7f;stroke-width:2" d="M335,374 l2,-19" />
<path style="fill:none;stroke:#7f7f7f;stroke-width:2" d="M301,374 l-2,-19" />
<path style="fill:none;stroke:#7f7f7f;stroke-width:2" d="M270,382 l-8,-17" />
<path style="fill:none;stroke:#7f7f7f;stroke-width:2" d="M241,399 l-12,-15" />
<path style="fill:none;stroke:#7f7f7f;stroke-width:2" d="M217,422 l-14,-11" />
<path style="fill:none;stroke:#7f7f7f;stroke-width:2" d="M201,451 l-17,-8" />
<path style="fill:none;stroke:#7f7f7f;stroke-width:2" d="M192,482 l-18,-2" />
<path style="fill:none;stroke:#7f7f7f;stroke-width:2" d="M192,516 l-18,2" />
<path style="fill:none;stroke:#7f7f7f;stroke-width:2" d="M201,547 l-17,7" />
<path style="fill:#d9d9d9" d="M318,499 l-77,77 -7,-8 -7,-9 -5,-9 -5,-10 -3,-9 -3,-11 -1,-10 -1,-6 0,-5 1,-11 1,-11 3,-10 3,-10 5,-10 5,-9 7,-8 7,-8 8,-7 8,-6 9,-6 9,-4 11,-4 10,-2 11,-2 11,-1 10,1 11,1 10,3 10,4 10,4 9,6 9,6 8,7 -77,77z" />
<circle style="fill:#e5e5e5;stroke:#7f7f7f;stroke-width:2" cx="317" cy="499" r="81" />
<circle style="fill:none;stroke:#000;stroke-width:2" cx="317" cy="499" r="108" />
<path style="fill:#366;stroke:#000;stroke-width:2" d="M173,662 l72,0 0,36 -72,0 0,-36z" />
<path style="fill:#600;stroke:#000;stroke-width:2" d="M386,662 l77,0 0,36 -77,0 0,-36z" />
<path style="fill:#bfbfbf" d="M318,825 l254,-72 0,217 -254,0 0,-145z" />
<path style="fill:#e5e5e5;stroke:#b2b2b2;stroke-width:2" d="M64,753 l254,72 254,-72 -508,0z" />
<path style="fill:#7f7f7f" d="M281,28 l73,0 0,36 -73,0 0,-36z" />
<path style="fill:#7f7f7f;stroke:#000;stroke-width:2" d="M245,64 l145,0 0,36 -145,0 0,-36z" />
<path style="fill:#bfbfbf" d="M296,28 l44,0 0,36 -44,0 0,-36z" />
<path style="fill:#bfbfbf" d="M272,64 l91,0 0,36 -91,0 0,-36z" />
<path style="fill:#e5e5e5" d="M311,28 l13,0 0,36 -13,0 0,-36z" />
<path style="fill:#e5e5e5" d="M304,64 l27,0 0,36 -27,0 0,-36z" />
<path style="fill:none;stroke:#000;stroke-width:2" d="M281,28 l73,0 0,36 -73,0 0,-36" />
<path style="fill:#f00" d="M315,517 l7,-17 -132,-48 125,65z" />

</svg>
