 

<svg xmlns:agg="http://www.example.com" xmlns="http://www.w3.org/2000/svg" preserveAspectRatio="none" width="0.6510in" height="1.0750in" viewBox="0 0 605 999">

<path style="fill:#b2b2b2;stroke:#000;stroke-width:2" d="M28,605 l0,365 92,0 0,-365 -92,0z" />
<path style="fill:#b2b2b2;stroke:#000;stroke-width:2" d="M486,697 l-366,0 0,183 366,0 0,-183z" />
<path style="fill:#b2b2b2;stroke:#000;stroke-width:2" d="M486,605 l0,365 90,0 0,-365 -90,0z" />
<path style="fill:#ccc" d="M28,644 l0,287 92,0 0,-287 -92,0z" />
<path style="fill:#ccc" d="M486,725 l-366,0 0,125 366,0 0,-125z" />
<path style="fill:#ccc" d="M486,644 l0,287 90,0 0,-287 -90,0z" />
<path style="fill:#e5e5e5" d="M28,706 l0,162 92,0 0,-162 -92,0z" />
<path style="fill:#e5e5e5" d="M486,759 l-366,0 0,57 366,0 0,-57z" />
<path style="fill:#e5e5e5" d="M486,706 l0,162 90,0 0,-162 -90,0z" />
<path style="fill:#fff" d="M28,767 l0,41 92,0 0,-41 -92,0z" />
<path style="fill:#fff" d="M486,782 l-366,0 0,11 366,0 0,-11z" />
<path style="fill:#fff" d="M486,767 l0,41 90,0 0,-41 -90,0z" />
<path style="fill:#e50000;stroke:#000;stroke-width:2" d="M416,177 l70,-12 0,-126 -70,-11 0,149z" />
<path style="fill:#e50000;stroke:#000;stroke-width:2" d="M188,28 l-68,11 0,126 68,12 0,-149z" />
<path style="fill:#e5e5e5" d="M188,79 l-66,0 0,-17 66,-6 0,23z" />
<path style="fill:#e5e5e5" d="M416,79 l66,0 0,-17 -66,-6 0,23z" />
<path style="fill:#f00;stroke:#000;stroke-width:2" d="M416,28 l-228,0 0,394 228,0 0,-394z" />
<circle style="fill:#f00;stroke:#000;stroke-width:2" cx="302" cy="210" r="182" />
<circle style="fill:#4c4c4c;stroke:#000;stroke-width:2" cx="302" cy="210" r="125" />
<path style="fill:#4c4c4c;stroke:#000;stroke-width:2" d="M267,703 l1,2 2,2 3,2 4,1 5,2 6,1 6,1 7,0 8,0 6,-1 6,-1 6,-2 4,-1 3,-2 2,-2 1,-2 0,-281 -70,0 0,281z" />
<path style="fill:#e50000;stroke:#000;stroke-width:2" d="M278,392 l-15,-3 -15,-3 -14,-5 -14,-6 -13,-8 -12,-8 -12,-9 -10,-10 -11,-11 -9,-12 -8,-12 -7,-13 -6,-14 -5,-15 -4,-14 -3,-16 30,0 3,12 3,12 4,12 5,11 6,11 6,10 8,10 8,9 9,8 9,7 11,7 10,6 11,5 11,5 12,3 12,2 0,29z" />
<path style="fill:#e50000;stroke:#000;stroke-width:2" d="M120,188 l3,-15 4,-15 5,-14 6,-14 7,-14 8,-12 9,-12 11,-11 10,-10 12,-9 12,-8 13,-7 14,-6 14,-5 15,-4 15,-2 2,28 -12,2 -12,4 -12,4 -11,5 -11,6 -10,7 -10,7 -9,9 -8,9 -7,10 -7,9 -6,11 -5,11 -4,12 -3,12 -3,12 -30,0z" />
<path style="fill:#e50000;stroke:#000;stroke-width:2" d="M326,30 l15,2 15,4 14,5 14,6 13,7 12,8 12,9 11,10 10,11 9,12 8,12 7,14 6,14 5,14 4,15 3,15 -30,0 -2,-12 -4,-12 -4,-12 -5,-11 -6,-11 -6,-9 -8,-10 -8,-9 -9,-9 -9,-7 -10,-7 -11,-6 -11,-5 -11,-4 -12,-4 -12,-2 0,-28z" />
<path style="fill:#e50000;stroke:#000;stroke-width:2" d="M484,233 l-2,16 -4,14 -5,15 -6,14 -7,13 -8,12 -10,12 -10,11 -11,10 -11,9 -13,8 -13,8 -14,6 -14,5 -15,3 -15,3 0,-29 12,-2 12,-3 11,-5 11,-5 11,-6 10,-7 9,-7 9,-8 8,-9 8,-10 6,-10 6,-11 5,-11 4,-12 4,-12 2,-12 30,0z" />
<path style="fill:#333;stroke:#000;stroke-width:2" d="M386,173 l-166,0 0,75 166,0 0,-75z" />
<path style="fill:#b2b2b2;stroke:#000;stroke-width:2" d="M376,182 l-148,0 0,57 148,0 0,-57z" />
<circle style="fill:#b2b2b2;stroke:#000;stroke-width:2" cx="303" cy="376" r="9" />
<circle style="fill:#b2b2b2;stroke:#000;stroke-width:2" cx="136" cy="209" r="8" />
<circle style="fill:#b2b2b2;stroke:#000;stroke-width:2" cx="303" cy="41" r="8" />
<circle style="fill:#b2b2b2;stroke:#000;stroke-width:2" cx="470" cy="209" r="9" />
<path style="fill:#999;stroke:#000;stroke-width:2" d="M354,444 l-104,0 0,115 104,0 0,-115z" />
<path style="fill:#999;stroke:#000;stroke-width:2" d="M354,605 l-104,0 0,33 104,0 0,-33z" />
<path style="fill:#ccc;stroke:#000;stroke-width:2" d="M320,444 l-53,0 0,115 53,0 0,-115z" />
<path style="fill:#ccc;stroke:#000;stroke-width:2" d="M320,605 l-53,0 0,33 53,0 0,-33z" />
<path style="fill:#666;stroke:#000;stroke-width:2" d="M348,444 l-92,0 0,-5 92,0 0,5z" />
<path style="fill:#b2b2b2" d="M354,576 l-104,0 0,17 104,0 0,-17z" />
<path style="fill:#b2b2b2" d="M354,650 l-104,0 0,17 104,0 0,-17z" />
<path style="fill:#ccc" d="M343,576 l-81,0 0,17 81,0 0,-17z" />
<path style="fill:#ccc" d="M343,650 l-81,0 0,17 81,0 0,-17z" />
<path style="fill:#e5e5e5" d="M326,576 l-48,0 0,17 48,0 0,-17z" />
<path style="fill:#e5e5e5" d="M326,650 l-48,0 0,17 48,0 0,-17z" />
<path style="fill:#fff" d="M309,650 l-12,0 0,17 12,0 0,-17z" />
<path style="fill:#fff" d="M309,576 l-12,0 0,17 12,0 0,-17z" />
<path style="fill:#b2b2b2;stroke:#000;stroke-width:2" d="M393,861 l6,-79 -194,0 6,79 182,0z" />
<path style="fill:none;stroke:#000;stroke-width:2" d="M354,650 l-104,0 0,17 104,0 0,-17" />
<path style="fill:none;stroke:#000;stroke-width:2" d="M354,576 l-104,0 0,17 104,0 0,-17" />

</svg>
