 

<svg xmlns:agg="http://www.example.com" xmlns="http://www.w3.org/2000/svg" preserveAspectRatio="none" width="1.6083in" height="0.3912in" viewBox="0 0 999 243">

<path style="fill:#4c4c4c;stroke:#000;stroke-width:2" d="M970,205 l0,-118 -824,0 0,118 824,0z" />
<path style="fill:#7f7f7f;stroke:#000;stroke-width:2" d="M970,87 l-118,-59 -824,0 118,59 824,0z" />
<path style="fill:#000;stroke:#000;stroke-width:2" d="M146,205 l-118,-59 0,-118 118,59 0,118z" />
<path style="fill:#e5e5e5" d="M229,214 l0,-78 -20,-20 -19,20 0,78 39,0z" />
<path style="fill:#e5e5e5" d="M308,214 l0,-78 -20,-20 -20,20 0,78 40,0z" />
<path style="fill:#e5e5e5" d="M386,214 l0,-78 -20,-20 -19,20 0,78 39,0z" />
<path style="fill:#e5e5e5" d="M465,214 l0,-78 -20,-20 -20,20 0,78 40,0z" />
<path style="fill:#e5e5e5" d="M543,214 l0,-78 -19,-20 -20,20 0,78 39,0z" />
<path style="fill:#e5e5e5" d="M622,214 l0,-78 -20,-20 -19,20 0,78 39,0z" />
<path style="fill:#e5e5e5" d="M700,214 l0,-78 -19,-20 -20,20 0,78 39,0z" />
<path style="fill:#e5e5e5;stroke:#000;stroke-width:2" d="M779,214 l0,-78 -20,-20 -19,20 0,78 39,0z" />
<path style="fill:#e5e5e5" d="M857,214 l0,-78 -19,-20 -20,20 0,78 39,0z" />
<path style="fill:#e5e5e5" d="M936,214 l0,-78 -20,-20 -19,20 0,78 39,0z" />
<path style="fill:#fff" d="M190,136 l39,19 0,20 -39,-20 0,-19z" />
<path style="fill:#fff" d="M268,136 l40,19 0,20 -40,-20 0,-19z" />
<path style="fill:#fff" d="M347,136 l39,19 0,20 -39,-20 0,-19z" />
<path style="fill:#fff" d="M425,136 l40,19 0,20 -40,-20 0,-19z" />
<path style="fill:#fff" d="M504,136 l39,19 0,20 -39,-20 0,-19z" />
<path style="fill:#fff" d="M583,136 l39,19 0,20 -39,-20 0,-19z" />
<path style="fill:#fff" d="M661,136 l39,19 0,20 -39,-20 0,-19z" />
<path style="fill:#fff" d="M740,136 l39,19 0,20 -39,-20 0,-19z" />
<path style="fill:#fff" d="M818,136 l39,19 0,20 -39,-20 0,-19z" />
<path style="fill:#fff" d="M897,136 l39,19 0,20 -39,-20 0,-19z" />
<path style="fill:#999" d="M897,161 l39,19 0,5 -39,-20 0,-4z" />
<path style="fill:#999" d="M818,161 l39,19 0,5 -39,-20 0,-4z" />
<path style="fill:#999" d="M740,161 l39,19 0,5 -39,-20 0,-4z" />
<path style="fill:#999" d="M661,161 l39,19 0,5 -39,-20 0,-4z" />
<path style="fill:#999" d="M583,161 l39,19 0,5 -39,-20 0,-4z" />
<path style="fill:#999" d="M504,161 l39,19 0,5 -39,-20 0,-4z" />
<path style="fill:#999" d="M425,161 l40,19 0,5 -40,-20 0,-4z" />
<path style="fill:#999" d="M347,161 l39,19 0,5 -39,-20 0,-4z" />
<path style="fill:#999" d="M268,161 l40,19 0,5 -40,-20 0,-4z" />
<path style="fill:#999" d="M190,161 l39,19 0,5 -39,-20 0,-4z" />
<path style="fill:none;stroke:#000;stroke-width:2" d="M700,214 l0,-78 -19,-20 -20,20 0,78 39,0" />
<path style="fill:none;stroke:#000;stroke-width:2" d="M622,214 l0,-78 -20,-20 -19,20 0,78 39,0" />
<path style="fill:none;stroke:#000;stroke-width:2" d="M543,214 l0,-78 -19,-20 -20,20 0,78 39,0" />
<path style="fill:none;stroke:#000;stroke-width:2" d="M465,214 l0,-78 -20,-20 -20,20 0,78 40,0" />
<path style="fill:none;stroke:#000;stroke-width:2" d="M386,214 l0,-78 -20,-20 -19,20 0,78 39,0" />
<path style="fill:none;stroke:#000;stroke-width:2" d="M308,214 l0,-78 -20,-20 -20,20 0,78 40,0" />
<path style="fill:none;stroke:#000;stroke-width:2" d="M229,214 l0,-78 -20,-20 -19,20 0,78 39,0" />
<path style="fill:none;stroke:#000;stroke-width:2" d="M857,214 l0,-78 -19,-20 -20,20 0,78 39,0" />
<path style="fill:none;stroke:#000;stroke-width:2" d="M936,214 l0,-78 -20,-20 -19,20 0,78 39,0" />

</svg>
