 

<svg xmlns:agg="http://www.example.com" xmlns="http://www.w3.org/2000/svg" preserveAspectRatio="none" width="1.6083in" height="0.7663in" viewBox="0 0 999 476">

<path style="fill:#7f7f7f" d="M968,135 l-215,0 0,196 215,0 0,-196z" />
<path style="fill:#000" d="M751,135 l2,-2 215,0 0,4 -215,0 3,-2 -5,0 0,-2 2,0z" />
<path style="fill:#000" d="M753,333 l-2,-2 0,-196 5,0 0,196 -3,-2 0,4 -2,0 0,-2z" />
<path style="fill:#000" d="M970,331 l-2,2 -215,0 0,-4 215,0 -2,2 4,0 0,2 -2,0z" />
<path style="fill:#000" d="M968,133 l2,2 0,196 -4,0 0,-196 2,2 0,-4 2,0 0,2z" />
<path style="fill:#e5e5e5;stroke:#000;stroke-width:2" d="M753,135 l-102,0 0,196 102,0 0,-196z" />
<path style="fill:#e5e5e5;stroke:#000;stroke-width:2" d="M651,135 l-108,0 0,196 108,0 0,-196z" />
<path style="fill:#e5e5e5;stroke:#000;stroke-width:2" d="M545,135 l-105,0 0,196 105,0 0,-196z" />
<path style="fill:#e5e5e5;stroke:#000;stroke-width:2" d="M442,135 l-103,0 0,196 103,0 0,-196z" />
<path style="fill:#e5e5e5;stroke:#000;stroke-width:2" d="M339,135 l-103,0 0,196 103,0 0,-196z" />
<path style="fill:#e5e5e5;stroke:#000;stroke-width:2" d="M236,135 l-103,0 0,196 103,0 0,-196z" />
<path style="fill:#e5e5e5;stroke:#000;stroke-width:2" d="M132,135 l-102,0 0,196 102,0 0,-196z" />
<path style="fill:#7f7f7f" d="M968,38 l-215,0 0,97 215,0 0,-97z" />
<path style="fill:#000" d="M751,38 l2,-3 215,0 0,5 -215,0 3,-2 -5,0 0,-3 2,0z" />
<path style="fill:#000" d="M753,137 l-2,-2 0,-97 5,0 0,97 -3,-2 0,4 -2,0 0,-2z" />
<path style="fill:#000" d="M970,135 l-2,2 -215,0 0,-4 215,0 -2,2 4,0 0,2 -2,0z" />
<path style="fill:#000" d="M968,35 l2,3 0,97 -4,0 0,-97 2,2 0,-5 2,0 0,3z" />
<path style="fill:#7f7f7f" d="M753,38 l-102,0 0,97 102,0 0,-97z" />
<path style="fill:#000" d="M648,38 l3,-3 102,0 0,5 -102,0 2,-2 -5,0 0,-3 3,0z" />
<path style="fill:#000" d="M651,137 l-3,-2 0,-97 5,0 0,97 -2,-2 0,4 -3,0 0,-2z" />
<path style="fill:#000" d="M755,135 l-2,2 -102,0 0,-4 102,0 -2,2 4,0 0,2 -2,0z" />
<path style="fill:#000" d="M753,35 l2,3 0,97 -4,0 0,-97 2,2 0,-5 2,0 0,3z" />
<path style="fill:#7f7f7f" d="M651,38 l-108,0 0,97 108,0 0,-97z" />
<path style="fill:#000" d="M541,38 l2,-3 108,0 0,5 -108,0 2,-2 -4,0 0,-3 2,0z" />
<path style="fill:#000" d="M543,137 l-2,-2 0,-97 4,0 0,97 -2,-2 0,4 -2,0 0,-2z" />
<path style="fill:#000" d="M653,135 l-2,2 -108,0 0,-4 108,0 -3,2 5,0 0,2 -2,0z" />
<path style="fill:#000" d="M651,35 l2,3 0,97 -5,0 0,-97 3,2 0,-5 2,0 0,3z" />
<path style="fill:#7f7f7f" d="M545,38 l-105,0 0,97 105,0 0,-97z" />
<path style="fill:#000" d="M438,38 l2,-3 105,0 0,5 -105,0 3,-2 -5,0 0,-3 2,0z" />
<path style="fill:#000" d="M440,137 l-2,-2 0,-97 5,0 0,97 -3,-2 0,4 -2,0 0,-2z" />
<path style="fill:#000" d="M547,135 l-2,2 -105,0 0,-4 105,0 -2,2 4,0 0,2 -2,0z" />
<path style="fill:#000" d="M545,35 l2,3 0,97 -4,0 0,-97 2,2 0,-5 2,0 0,3z" />
<path style="fill:#7f7f7f" d="M442,38 l-103,0 0,97 103,0 0,-97z" />
<path style="fill:#000" d="M337,38 l2,-3 103,0 0,5 -103,0 3,-2 -5,0 0,-3 2,0z" />
<path style="fill:#000" d="M339,137 l-2,-2 0,-97 5,0 0,97 -3,-2 0,4 -2,0 0,-2z" />
<path style="fill:#000" d="M444,135 l-2,2 -103,0 0,-4 103,0 -2,2 4,0 0,2 -2,0z" />
<path style="fill:#000" d="M442,35 l2,3 0,97 -4,0 0,-97 2,2 0,-5 2,0 0,3z" />
<path style="fill:#7f7f7f" d="M339,38 l-103,0 0,97 103,0 0,-97z" />
<path style="fill:#000" d="M234,38 l2,-3 103,0 0,5 -103,0 2,-2 -4,0 0,-3 2,0z" />
<path style="fill:#000" d="M236,137 l-2,-2 0,-97 4,0 0,97 -2,-2 0,4 -2,0 0,-2z" />
<path style="fill:#000" d="M341,135 l-2,2 -103,0 0,-4 103,0 -2,2 4,0 0,2 -2,0z" />
<path style="fill:#000" d="M339,35 l2,3 0,97 -4,0 0,-97 2,2 0,-5 2,0 0,3z" />
<path style="fill:#7f7f7f" d="M236,38 l-103,0 0,97 103,0 0,-97z" />
<path style="fill:#000" d="M131,38 l2,-3 103,0 0,5 -103,0 2,-2 -4,0 0,-3 2,0z" />
<path style="fill:#000" d="M133,137 l-2,-2 0,-97 4,0 0,97 -2,-2 0,4 -2,0 0,-2z" />
<path style="fill:#000" d="M238,135 l-2,2 -103,0 0,-4 103,0 -3,2 5,0 0,2 -2,0z" />
<path style="fill:#000" d="M236,35 l2,3 0,97 -5,0 0,-97 3,2 0,-5 2,0 0,3z" />
<path style="fill:#7f7f7f" d="M132,38 l-102,0 0,97 102,0 0,-97z" />
<path style="fill:#000" d="M28,38 l2,-3 102,0 0,5 -102,0 2,-2 -4,0 0,-3 2,0z" />
<path style="fill:#000" d="M30,137 l-2,-2 0,-97 4,0 0,97 -2,-2 0,4 -2,0 0,-2z" />
<path style="fill:#000" d="M135,135 l-3,2 -102,0 0,-4 102,0 -2,2 5,0 0,2 -3,0z" />
<path style="fill:#000" d="M132,35 l3,3 0,97 -5,0 0,-97 2,2 0,-5 3,0 0,3z" />
<path style="fill:#7f7f7f" d="M968,331 l-215,0 0,97 215,0 0,-97z" />
<path style="fill:#000" d="M751,331 l2,-2 215,0 0,4 -215,0 3,-2 -5,0 0,-2 2,0z" />
<path style="fill:#000" d="M753,431 l-2,-3 0,-97 5,0 0,97 -3,-2 0,5 -2,0 0,-3z" />
<path style="fill:#000" d="M970,428 l-2,3 -215,0 0,-5 215,0 -2,2 4,0 0,3 -2,0z" />
<path style="fill:#000" d="M968,329 l2,2 0,97 -4,0 0,-97 2,2 0,-4 2,0 0,2z" />
<path style="fill:#e5e5e5;stroke:#000;stroke-width:2" d="M753,331 l-102,0 0,97 102,0 0,-97z" />
<path style="fill:#e5e5e5;stroke:#000;stroke-width:2" d="M651,331 l-108,0 0,97 108,0 0,-97z" />
<path style="fill:#e5e5e5;stroke:#000;stroke-width:2" d="M545,331 l-105,0 0,97 105,0 0,-97z" />
<path style="fill:#e5e5e5;stroke:#000;stroke-width:2" d="M442,331 l-103,0 0,97 103,0 0,-97z" />
<path style="fill:#e5e5e5;stroke:#000;stroke-width:2" d="M339,331 l-103,0 0,97 103,0 0,-97z" />
<path style="fill:#e5e5e5;stroke:#000;stroke-width:2" d="M236,331 l-103,0 0,97 103,0 0,-97z" />
<path style="fill:#e5e5e5;stroke:#000;stroke-width:2" d="M132,331 l-102,0 0,97 102,0 0,-97z" />
<path style="fill:#e5e5e5;stroke:#000;stroke-width:2" d="M748,42 l-93,0 0,20 93,0 0,-20z" />
<path style="fill:#e5e5e5;stroke:#000;stroke-width:2" d="M645,42 l-93,0 0,20 93,0 0,-20z" />
<path style="fill:#e5e5e5;stroke:#000;stroke-width:2" d="M539,42 l-93,0 0,20 93,0 0,-20z" />
<path style="fill:#e5e5e5;stroke:#000;stroke-width:2" d="M436,42 l-93,0 0,20 93,0 0,-20z" />
<path style="fill:#e5e5e5;stroke:#000;stroke-width:2" d="M332,42 l-93,0 0,20 93,0 0,-20z" />
<path style="fill:#e5e5e5;stroke:#000;stroke-width:2" d="M229,42 l-93,0 0,20 93,0 0,-20z" />
<path style="fill:#e5e5e5;stroke:#000;stroke-width:2" d="M126,42 l-93,0 0,20 93,0 0,-20z" />
<path style="fill:#ccc;stroke:#000;stroke-width:2" d="M968,38 l-938,0 0,-10 938,0 0,10z" />
<path style="fill:#000;stroke:#000;stroke-width:2" d="M949,428 l-900,0 0,20 900,0 0,-20z" />
<path style="fill:#f00;stroke:#000;stroke-width:2" d="M738,72 l-29,0 0,9 29,0 0,-9z" />
<path style="fill:#0f0;stroke:#000;stroke-width:2" d="M738,86 l-29,0 0,10 29,0 0,-10z" />
<path style="fill:#0f0;stroke:#000;stroke-width:2" d="M738,101 l-29,0 0,10 29,0 0,-10z" />
<path style="fill:#f00;stroke:#000;stroke-width:2" d="M738,116 l-29,0 0,9 29,0 0,-9z" />
<path style="fill:#0f0;stroke:#000;stroke-width:2" d="M694,72 l-29,0 0,9 29,0 0,-9z" />
<path style="fill:#f00;stroke:#000;stroke-width:2" d="M694,86 l-29,0 0,10 29,0 0,-10z" />
<path style="fill:#0f0;stroke:#000;stroke-width:2" d="M694,101 l-29,0 0,10 29,0 0,-10z" />
<path style="fill:#0f0;stroke:#000;stroke-width:2" d="M694,116 l-29,0 0,9 29,0 0,-9z" />
<path style="fill:#0f0;stroke:#000;stroke-width:2" d="M636,72 l-29,0 0,9 29,0 0,-9z" />
<path style="fill:#0f0;stroke:#000;stroke-width:2" d="M636,86 l-29,0 0,10 29,0 0,-10z" />
<path style="fill:#0f0;stroke:#000;stroke-width:2" d="M636,101 l-29,0 0,10 29,0 0,-10z" />
<path style="fill:#f00;stroke:#000;stroke-width:2" d="M636,116 l-29,0 0,9 29,0 0,-9z" />
<path style="fill:#f00;stroke:#000;stroke-width:2" d="M592,72 l-30,0 0,9 30,0 0,-9z" />
<path style="fill:#f00;stroke:#000;stroke-width:2" d="M592,86 l-30,0 0,10 30,0 0,-10z" />
<path style="fill:#0f0;stroke:#000;stroke-width:2" d="M592,101 l-30,0 0,10 30,0 0,-10z" />
<path style="fill:#f00;stroke:#000;stroke-width:2" d="M592,116 l-30,0 0,9 30,0 0,-9z" />
<path style="fill:#f00;stroke:#000;stroke-width:2" d="M531,72 l-29,0 0,9 29,0 0,-9z" />
<path style="fill:#f00;stroke:#000;stroke-width:2" d="M531,86 l-29,0 0,10 29,0 0,-10z" />
<path style="fill:#0f0;stroke:#000;stroke-width:2" d="M531,101 l-29,0 0,10 29,0 0,-10z" />
<path style="fill:#f00;stroke:#000;stroke-width:2" d="M531,116 l-29,0 0,9 29,0 0,-9z" />
<path style="fill:#0f0;stroke:#000;stroke-width:2" d="M487,72 l-30,0 0,9 30,0 0,-9z" />
<path style="fill:#f00;stroke:#000;stroke-width:2" d="M487,86 l-30,0 0,10 30,0 0,-10z" />
<path style="fill:#0f0;stroke:#000;stroke-width:2" d="M487,101 l-30,0 0,10 30,0 0,-10z" />
<path style="fill:#0f0;stroke:#000;stroke-width:2" d="M487,116 l-30,0 0,9 30,0 0,-9z" />
<path style="fill:#f00;stroke:#000;stroke-width:2" d="M426,72 l-30,0 0,9 30,0 0,-9z" />
<path style="fill:#0f0;stroke:#000;stroke-width:2" d="M426,86 l-30,0 0,10 30,0 0,-10z" />
<path style="fill:#0f0;stroke:#000;stroke-width:2" d="M426,101 l-30,0 0,10 30,0 0,-10z" />
<path style="fill:#f00;stroke:#000;stroke-width:2" d="M426,116 l-30,0 0,9 30,0 0,-9z" />
<path style="fill:#0f0;stroke:#000;stroke-width:2" d="M382,72 l-30,0 0,9 30,0 0,-9z" />
<path style="fill:#f00;stroke:#000;stroke-width:2" d="M382,86 l-30,0 0,10 30,0 0,-10z" />
<path style="fill:#0f0;stroke:#000;stroke-width:2" d="M382,101 l-30,0 0,10 30,0 0,-10z" />
<path style="fill:#f00;stroke:#000;stroke-width:2" d="M382,116 l-30,0 0,9 30,0 0,-9z" />
<path style="fill:#f00;stroke:#000;stroke-width:2" d="M323,72 l-29,0 0,9 29,0 0,-9z" />
<path style="fill:#f00;stroke:#000;stroke-width:2" d="M323,86 l-29,0 0,10 29,0 0,-10z" />
<path style="fill:#0f0;stroke:#000;stroke-width:2" d="M323,101 l-29,0 0,10 29,0 0,-10z" />
<path style="fill:#f00;stroke:#000;stroke-width:2" d="M323,116 l-29,0 0,9 29,0 0,-9z" />
<path style="fill:#0f0;stroke:#000;stroke-width:2" d="M279,72 l-29,0 0,9 29,0 0,-9z" />
<path style="fill:#f00;stroke:#000;stroke-width:2" d="M279,86 l-29,0 0,10 29,0 0,-10z" />
<path style="fill:#0f0;stroke:#000;stroke-width:2" d="M279,101 l-29,0 0,10 29,0 0,-10z" />
<path style="fill:#f00;stroke:#000;stroke-width:2" d="M279,116 l-29,0 0,9 29,0 0,-9z" />
<path style="fill:#0f0;stroke:#000;stroke-width:2" d="M220,72 l-29,0 0,9 29,0 0,-9z" />
<path style="fill:#f00;stroke:#000;stroke-width:2" d="M220,86 l-29,0 0,10 29,0 0,-10z" />
<path style="fill:#0f0;stroke:#000;stroke-width:2" d="M220,101 l-29,0 0,10 29,0 0,-10z" />
<path style="fill:#0f0;stroke:#000;stroke-width:2" d="M220,116 l-29,0 0,9 29,0 0,-9z" />
<path style="fill:#0f0;stroke:#000;stroke-width:2" d="M176,72 l-29,0 0,9 29,0 0,-9z" />
<path style="fill:#0f0;stroke:#000;stroke-width:2" d="M176,86 l-29,0 0,10 29,0 0,-10z" />
<path style="fill:#f00;stroke:#000;stroke-width:2" d="M176,101 l-29,0 0,10 29,0 0,-10z" />
<path style="fill:#f00;stroke:#000;stroke-width:2" d="M176,116 l-29,0 0,9 29,0 0,-9z" />
<path style="fill:#f00;stroke:#000;stroke-width:2" d="M118,72 l-29,0 0,9 29,0 0,-9z" />
<path style="fill:#f00;stroke:#000;stroke-width:2" d="M118,86 l-29,0 0,10 29,0 0,-10z" />
<path style="fill:#0f0;stroke:#000;stroke-width:2" d="M118,101 l-29,0 0,10 29,0 0,-10z" />
<path style="fill:#0f0;stroke:#000;stroke-width:2" d="M118,116 l-29,0 0,9 29,0 0,-9z" />
<path style="fill:#0f0;stroke:#000;stroke-width:2" d="M74,72 l-29,0 0,9 29,0 0,-9z" />
<path style="fill:#f00;stroke:#000;stroke-width:2" d="M74,86 l-29,0 0,10 29,0 0,-10z" />
<path style="fill:#0f0;stroke:#000;stroke-width:2" d="M74,101 l-29,0 0,10 29,0 0,-10z" />
<path style="fill:#f00;stroke:#000;stroke-width:2" d="M74,116 l-29,0 0,9 29,0 0,-9z" />

</svg>
