 

<svg xmlns:agg="http://www.example.com" xmlns="http://www.w3.org/2000/svg" preserveAspectRatio="none" width="0.5628in" height="1.0750in" viewBox="0 0 523 999">

<path style="fill:#ccc;stroke:#000;stroke-width:2" d="M495,627 l-467,0 0,336 467,0 0,-336z" />
<path style="fill:#ccc;stroke:#000;stroke-width:2" d="M495,28 l-467,0 0,584 467,0 0,-584z" />
<path style="fill:#000;stroke:#000;stroke-width:2" d="M465,612 l-408,0 0,15 408,0 0,-15z" />
<circle style="fill:#b2b2b2;stroke:#000;stroke-width:2" cx="465" cy="57" r="14" />
<circle style="fill:#b2b2b2;stroke:#000;stroke-width:2" cx="57" cy="57" r="14" />
<circle style="fill:#b2b2b2" cx="465" cy="656" r="14" />
<circle style="fill:#b2b2b2" cx="57" cy="656" r="14" />
<circle style="fill:#b2b2b2" cx="57" cy="583" r="14" />
<circle style="fill:#b2b2b2" cx="465" cy="583" r="14" />
<circle style="fill:#b2b2b2" cx="57" cy="933" r="14" />
<circle style="fill:#b2b2b2" cx="465" cy="933" r="14" />
<path style="fill:#b2b2b2" d="M283,963 l-44,0 0,7 44,0 0,-7z" />
<path style="fill:none;stroke:#000;stroke-width:2" d="M480,53 l-28,8" />
<path style="fill:none;stroke:#000;stroke-width:2" d="M57,72 l0,-29" />
<path style="fill:none;stroke:#000;stroke-width:2" d="M437,115 l14,-29" />
<circle style="fill:none;stroke:#000;stroke-width:2" cx="465" cy="656" r="14" />
<circle style="fill:none;stroke:#000;stroke-width:2" cx="57" cy="656" r="14" />
<circle style="fill:none;stroke:#000;stroke-width:2" cx="57" cy="583" r="14" />
<circle style="fill:none;stroke:#000;stroke-width:2" cx="465" cy="583" r="14" />
<path style="fill:none;stroke:#000;stroke-width:2" d="M47,594 l21,-21" />
<path style="fill:none;stroke:#000;stroke-width:2" d="M481,583 l-30,0" />
<path style="fill:none;stroke:#000;stroke-width:2" d="M470,670 l-8,-29" />
<path style="fill:none;stroke:#000;stroke-width:2" d="M44,648 l25,15" />
<path style="fill:none;stroke:#000;stroke-width:2" d="M86,539 l-15,15" />
<circle style="fill:none;stroke:#000;stroke-width:2" cx="57" cy="933" r="14" />
<circle style="fill:none;stroke:#000;stroke-width:2" cx="465" cy="933" r="14" />
<path style="fill:none;stroke:#000;stroke-width:2" d="M43,934 l29,0" />
<path style="fill:none;stroke:#000;stroke-width:2" d="M470,920 l-8,28" />
<path style="fill:none;stroke:#000;stroke-width:2" d="M283,963 l-44,0 0,7 44,0 0,-7" />
<path style="fill:#e5e5e5;stroke:#000;stroke-width:2" d="M495,685 l-44,-14 -14,-44 -351,0 -15,44 -43,14 0,220 43,14 15,44 351,0 14,-44 44,-14 0,-220z" />
<path style="fill:#e5e5e5;stroke:#000;stroke-width:2" d="M495,86 l-44,-14 -14,-44 -351,0 -15,44 -43,14 0,468 43,15 15,43 351,0 14,-43 44,-15 0,-468z" />
<path style="fill:#fff;stroke:#000;stroke-width:2" d="M451,86 l-380,0 0,468 380,0 0,-468z" />
<path style="fill:#e5e5e5;stroke:#000;stroke-width:2" d="M437,115 l-351,0 0,424 351,0 0,-424z" />
<path style="fill:#ccc;fill-rule:evenodd" d="M451,554 l-14,-15 -351,0 0,-424 -15,-29 0,468 380,0z M378,306 l-234,0 0,73 234,0 0,-73z M422,466 l-322,0 0,58 322,0 0,-58z " />
<path style="fill:none;stroke:#000;stroke-width:2" d="M451,554 l-14,-15 -351,0 0,-424 -15,-29 0,468 380,0" />
<path style="fill:none;stroke:#000;stroke-width:2" d="M378,306 l-234,0 0,73 234,0 0,-73" />
<path style="fill:none;stroke:#000;stroke-width:2" d="M422,466 l-322,0 0,58 322,0 0,-58" />
<path style="fill:#333;stroke:#000;stroke-width:2" d="M364,174 l-205,0 0,102 205,0 0,-102z" />
<path style="fill:#000;stroke:#000;stroke-width:2" d="M364,174 l-8,0 0,102 8,0 0,-102z" />
<path style="fill:#000;stroke:#000;stroke-width:2" d="M356,174 l-197,0 0,7 197,0 0,-7z" />
<circle style="fill:#b2b2b2;stroke:#000;stroke-width:2" cx="356" cy="342" r="7" />
<circle style="fill:#b2b2b2" cx="165" cy="342" r="7" />
<path style="fill:none;stroke:#000;stroke-width:2" d="M356,349 l0,-14" />
<path style="fill:none;stroke:#000;stroke-width:2" d="M173,342 l-14,0" />
<circle style="fill:none;stroke:#000;stroke-width:2" cx="165" cy="342" r="7" />
<path style="fill:none;stroke:#000;stroke-width:2" d="M495,86 l-467,0 0,468 467,0 0,-468" />

</svg>
