 

<svg xmlns:agg="http://www.example.com" xmlns="http://www.w3.org/2000/svg" preserveAspectRatio="none" width="0.3702in" height="1.0750in" viewBox="0 0 344 999">

<path style="fill:#b2b2b2;stroke:#000;stroke-width:2" d="M150,476 l25,0 0,494 -25,0 0,-494z" />
<path style="fill:#ccc" d="M154,476 l17,0 0,494 -17,0 0,-494z" />
<path style="fill:#e5e5e5" d="M158,476 l9,0 0,494 -9,0 0,-494z" />
<path style="fill:#fff" d="M162,476 l1,0 0,494 -1,0 0,-494z" />
<path style="fill:#b2b2b2;stroke:#000;stroke-width:2" d="M197,476 l25,0 0,494 -25,0 0,-494z" />
<path style="fill:#ccc" d="M201,476 l17,0 0,494 -17,0 0,-494z" />
<path style="fill:#e5e5e5" d="M205,476 l9,0 0,494 -9,0 0,-494z" />
<path style="fill:#fff" d="M209,476 l2,0 0,494 -2,0 0,-494z" />
<path style="fill:#00f;stroke:#000;stroke-width:2" d="M56,64 l260,0 0,199 -260,0 0,-199z" />
<path style="fill:#b2b2b2;stroke:#000;stroke-width:2" d="M56,64 l260,0 0,-36 -260,0 0,36z" />
<path style="fill:#999;stroke:#000;stroke-width:2" d="M81,28 l35,0 0,22 -35,0 0,-22z" />
<path style="fill:#999;stroke:#000;stroke-width:2" d="M150,28 l36,0 0,22 -36,0 0,-22z" />
<path style="fill:#999;stroke:#000;stroke-width:2" d="M222,28 l34,0 0,22 -34,0 0,-22z" />
<path style="fill:#999;stroke:#000;stroke-width:2" d="M292,28 l24,0 0,22 -24,0 0,-22z" />
<path style="fill:none;stroke:#000;stroke-width:2" d="M163,163 l153,0" />
<path style="fill:#0000bf;stroke:#000;stroke-width:2" d="M139,265 l94,0 0,46 -94,0 0,-46z" />
<path style="fill:#999;stroke:#000;stroke-width:2" d="M150,380 l72,0 0,94 -72,0 0,-94z" />
<path style="fill:#ccc" d="M160,380 l52,0 0,94 -52,0 0,-94z" />
<path style="fill:#e5e5e5" d="M177,380 l19,0 0,94 -19,0 0,-94z" />
<path style="fill:#b2b2b2" d="M139,311 l94,0 0,35 -94,0 0,-35z" />
<path style="fill:#ccc" d="M147,311 l79,0 0,35 -79,0 0,-35z" />
<path style="fill:#e5e5e5" d="M171,311 l30,0 0,35 -30,0 0,-35z" />
<path style="fill:none;stroke:#000;stroke-width:2" d="M139,311 l94,0 0,35 -94,0 0,-35" />
<path style="fill:#999" d="M81,346 l211,0 0,36 -211,0 0,-36z" />
<path style="fill:#b2b2b2" d="M107,346 l158,0 0,36 -158,0 0,-36z" />
<path style="fill:#ccc" d="M143,346 l86,0 0,36 -86,0 0,-36z" />
<path style="fill:none;stroke:#000;stroke-width:2" d="M81,346 l211,0 0,36 -211,0 0,-36" />
<path style="fill:#00f;stroke:#000;stroke-width:2" d="M81,133 l82,0 0,155 -82,0 0,-155z" />
<path style="fill:#00f;stroke:#000;stroke-width:2" d="M33,145 l48,-12 0,155 -48,-13 0,-130z" />
<path style="fill:#ccc;stroke:#000;stroke-width:2" d="M92,145 l58,0 0,132 -58,0 0,-132z" />
<path style="fill:#00f;stroke:#000;stroke-width:2" d="M175,286 l-47,0 -25,-34 25,-36 47,0 22,36 -22,34z" />
<path style="fill:#b2b2b2;stroke:#000;stroke-width:2" d="M171,280 l-40,0 -18,-28 18,-30 40,0 19,30 -19,28z" />
<circle style="fill:#4c4c4c;stroke:#000;stroke-width:2" cx="151" cy="251" r="23" />
<circle style="fill:#000;stroke:#000;stroke-width:2" cx="151" cy="251" r="18" />
<circle style="fill:#000;stroke:#000;stroke-width:2" cx="215" cy="292" r="6" />
<path style="fill:#7f7f7f;stroke:#000;stroke-width:2" d="M54,267 l-13,0 -3,-1 -5,-9 -1,-7 -2,-9 -1,-10 -1,-11 0,-11 0,-12 1,-11 1,-9 3,-15 5,-9 3,-1 13,0 3,1 3,3 5,12 2,9 1,9 1,11 0,12 0,11 -1,11 -1,10 -2,9 -5,13 -3,3 -3,1z" />
<ellipse style="fill:#b2b2b2;stroke:#000;stroke-width:2" cx="42" cy="209" rx="14" ry="57" />
<path style="fill:#0000bf;stroke:#000;stroke-width:2" d="M233,286 l59,0 0,-23 -59,0 0,23z" />

</svg>
