 

<svg xmlns:agg="http://www.example.com" xmlns="http://www.w3.org/2000/svg" preserveAspectRatio="none" width="0.5671in" height="1.0750in" viewBox="0 0 527 999">

<path style="fill:#e5e5e5;stroke:#000;stroke-width:2" d="M499,28 l-471,0 0,942 471,0 0,-942z" />
<path style="fill:#000;stroke:#000;stroke-width:2" d="M469,57 l-412,0 0,884 412,0 0,-884z" />
<path style="fill:#7f7f7f" d="M455,771 l-118,0 0,81 118,0 0,-81z" />
<path style="fill:#7f7f7f" d="M322,771 l-250,0 0,81 250,0 0,-81z" />
<path style="fill:#7f7f7f" d="M455,676 l-118,0 0,81 118,0 0,-81z" />
<path style="fill:#7f7f7f" d="M190,676 l-118,0 0,81 118,0 0,-81z" />
<path style="fill:#7f7f7f" d="M322,676 l-118,0 0,81 118,0 0,-81z" />
<path style="fill:#7f7f7f" d="M455,580 l-118,0 0,81 118,0 0,-81z" />
<path style="fill:#7f7f7f" d="M190,580 l-118,0 0,81 118,0 0,-81z" />
<path style="fill:#7f7f7f" d="M322,580 l-118,0 0,81 118,0 0,-81z" />
<ellipse style="fill:#7f7f7f;stroke:#000;stroke-width:2" cx="396" cy="621" rx="44" ry="18" />
<path style="fill:#333" d="M425,639 l-57,0 -3,-1 -3,0 -2,-2 -2,-1 -2,-3 -2,-2 -1,-2 -1,-3 88,0 -1,3 -1,2 -2,3 -2,2 -2,2 -2,1 -3,0 -2,1z" />
<path style="fill:#7f7f7f;stroke:#000;stroke-width:2" d="M292,639 l-57,0 -8,-4 -6,-7 -2,-7 3,-10 7,-6 6,-2 56,0 9,3 3,2 5,9 0,4 -3,9 -7,7 -6,2z" />
<path style="fill:#333" d="M292,639 l-57,0 -2,-1 -3,0 -2,-2 -2,-1 -2,-3 -2,-2 -1,-2 -1,-3 88,0 -1,3 -2,2 -1,3 -2,2 -2,2 -3,1 -2,0 -3,1z" />
<path style="fill:#7f7f7f;stroke:#000;stroke-width:2" d="M159,639 l-56,0 -9,-4 -6,-7 -1,-7 3,-10 7,-6 6,-2 56,0 9,3 3,2 4,9 1,4 -3,9 -8,7 -6,2z" />
<path style="fill:#333" d="M160,639 l-57,0 -3,-1 -2,0 -3,-2 -2,-1 -2,-3 -1,-2 -2,-2 -1,-3 88,0 -1,3 -1,2 -2,3 -1,2 -3,2 -2,1 -2,0 -3,1z" />
<ellipse style="fill:#7f7f7f;stroke:#000;stroke-width:2" cx="396" cy="716" rx="44" ry="18" />
<path style="fill:#333" d="M425,735 l-57,0 -3,-1 -3,-1 -2,-1 -2,-2 -2,-2 -2,-2 -1,-3 -1,-3 88,0 -1,3 -1,3 -2,2 -2,2 -2,2 -2,1 -3,1 -2,1z" />
<path style="fill:#7f7f7f;stroke:#000;stroke-width:2" d="M292,735 l-57,0 -8,-4 -6,-8 -2,-6 3,-10 7,-7 6,-2 56,0 9,4 3,2 5,9 0,4 -3,9 -7,7 -6,2z" />
<path style="fill:#333" d="M292,735 l-57,0 -2,-1 -3,-1 -2,-1 -2,-2 -2,-2 -2,-2 -1,-3 -1,-3 88,0 -1,3 -2,3 -1,2 -2,2 -2,2 -3,1 -2,1 -3,1z" />
<ellipse style="fill:#7f7f7f;stroke:#000;stroke-width:2" cx="131" cy="716" rx="44" ry="18" />
<path style="fill:#333" d="M160,735 l-57,0 -3,-1 -2,-1 -3,-1 -2,-2 -2,-2 -1,-2 -2,-3 -1,-3 88,0 -1,3 -1,3 -2,2 -1,2 -3,2 -2,1 -2,1 -3,1z" />
<ellipse style="fill:#7f7f7f;stroke:#000;stroke-width:2" cx="396" cy="812" rx="44" ry="18" />
<path style="fill:#333" d="M425,830 l-57,0 -3,0 -3,-1 -2,-2 -2,-1 -2,-2 -2,-3 -1,-2 -1,-3 88,0 -1,3 -1,3 -2,2 -2,2 -2,2 -2,1 -3,1 -2,0z" />
<path style="fill:#7f7f7f;stroke:#000;stroke-width:2" d="M159,830 l-56,0 -9,-3 -6,-8 -1,-7 3,-10 7,-6 6,-2 56,0 9,3 3,2 4,10 1,3 -3,10 -8,6 -6,2z" />
<path style="fill:#333" d="M160,830 l-57,0 -3,0 -2,-1 -3,-2 -2,-1 -2,-2 -1,-3 -2,-2 -1,-3 88,0 -1,3 -1,3 -2,2 -1,2 -3,2 -2,1 -2,1 -3,0z" />
<path style="fill:none;stroke:#7f7f7f;stroke-width:2" d="M352,544 l-280,0 0,-134 280,0 0,134" />
<path style="fill:none;stroke:#7f7f7f;stroke-width:2" d="M352,396 l-280,0 0,-133 280,0 0,133" />
<path style="fill:none;stroke:#fff;stroke-width:2" d="M116,101 l0,-29 -29,0" />
<path style="fill:none;stroke:#fff;stroke-width:2" d="M116,87 l-29,0" />
<circle style="fill:#000;stroke:#fff;stroke-width:2" cx="130" cy="79" r="7" />
<path style="fill:none;stroke:#0f0;stroke-width:2" d="M440,483 l-15,0 0,-8 15,0 0,-7 -15,0" />
<path style="fill:none;stroke:#0f0;stroke-width:2" d="M418,468 l-8,15 -7,-15" />
<circle style="fill:#ff0" cx="385" cy="472" r="4" />
<path style="fill:none;stroke:#f00;stroke-width:2" d="M418,322 l-8,15 -7,-15" />
<circle style="fill:#f00" cx="385" cy="326" r="4" />
<path style="fill:none;stroke:#f00;stroke-width:2" d="M440,337 l0,-15 -15,0 0,8 15,0" />
<path style="fill:none;stroke:#7f7f7f;stroke-width:2" d="M447,116 l-73,0 0,133 73,0 0,-133" />
<path style="fill:none;stroke:#7f7f7f;stroke-width:2" d="M374,116 l-74,0 0,133 74,0 0,-133" />
<path style="fill:none;stroke:#7f7f7f;stroke-width:2" d="M300,116 l-74,0 0,133 74,0 0,-133" />
<path style="fill:none;stroke:#7f7f7f;stroke-width:2" d="M226,116 l-73,0 0,133 73,0 0,-133" />
<path style="fill:none;stroke:#7f7f7f;stroke-width:2" d="M153,116 l-74,0 0,133 74,0 0,-133" />
<circle style="fill:#ff0" cx="411" cy="164" r="4" />
<path style="fill:none;stroke:#7f7f7f;stroke-width:2" d="M403,138 l15,0 -1,15 -14,0" />
<path style="fill:none;stroke:#7f7f7f;stroke-width:2" d="M337,138 l15,0 -1,15 -14,0" />
<path style="fill:none;stroke:#7f7f7f;stroke-width:2" d="M330,138 l-15,0 0,7 15,0 0,8 -15,0" />
<path style="fill:none;stroke:#7f7f7f;stroke-width:2" d="M271,153 l0,-15" />
<path style="fill:none;stroke:#7f7f7f;stroke-width:2" d="M271,146 l-15,0" />
<path style="fill:none;stroke:#7f7f7f;stroke-width:2" d="M256,153 l0,-15" />
<path style="fill:none;stroke:#7f7f7f;stroke-width:2" d="M197,138 l0,15 -15,0" />
<path style="fill:none;stroke:#7f7f7f;stroke-width:2" d="M131,153 l0,-15" />
<path style="fill:none;stroke:#7f7f7f;stroke-width:2" d="M131,146 l-15,0" />
<path style="fill:none;stroke:#7f7f7f;stroke-width:2" d="M116,153 l0,-15" />
<path style="fill:none;stroke:#7f7f7f;stroke-width:2" d="M109,146 l-8,0 0,-8 8,0 0,15 -15,0 0,-7 7,0" />
<path style="fill:#fff;stroke:#000;stroke-width:2" d="M455,897 l-74,0 0,14 74,0 0,-14z" />

</svg>
