 

<svg xmlns:agg="http://www.example.com" xmlns="http://www.w3.org/2000/svg" preserveAspectRatio="none" width="1.3291in" height="1.0750in" viewBox="0 0 999 808">

<path style="fill:#ccccbf;stroke:#000;stroke-width:2" d="M971,780 l0,-40 -80,-117 -784,0 -80,117 0,40 944,0z" />
<path style="fill:#666640" d="M872,643 l-746,0 -59,97 864,0 -59,-97z" />
<path style="fill:#e5e5d8" d="M171,682 l-30,0 13,-23 -45,0 -17,33 73,0 6,-10z" />
<path style="fill:#e5e5d8" d="M227,682 l-43,0 -6,10 44,0 5,-10z" />
<path style="fill:#e5e5d8" d="M286,682 l-44,0 -5,10 43,0 6,-10z" />
<path style="fill:#e5e5d8" d="M345,682 l-44,0 -6,10 44,0 6,-10z" />
<path style="fill:#e5e5d8" d="M401,682 l-43,0 -6,10 43,0 6,-10z" />
<path style="fill:#e5e5d8" d="M459,682 l-43,0 -6,10 44,0 5,-10z" />
<path style="fill:#e5e5d8" d="M210,659 l-43,0 -6,12 44,0 5,-12z" />
<path style="fill:#e5e5d8" d="M269,659 l-44,0 -5,12 43,0 6,-12z" />
<path style="fill:#e5e5d8" d="M327,659 l-43,0 -8,12 46,0 5,-12z" />
<path style="fill:#e5e5d8" d="M384,659 l-44,0 -5,12 43,0 6,-12z" />
<path style="fill:#e5e5d8" d="M442,659 l-43,0 -6,12 44,0 5,-12z" />
<path style="fill:#e5e5d8" d="M501,659 l-43,0 -6,12 43,0 6,-12z" />
<path style="fill:#e5e5d8" d="M193,637 l-71,0 -6,11 72,0 5,-11z" />
<path style="fill:#e5e5d8" d="M252,637 l-43,0 -6,11 43,0 6,-11z" />
<path style="fill:#e5e5d8" d="M308,637 l-43,0 -6,11 44,0 5,-11z" />
<path style="fill:#e5e5d8" d="M367,637 l-44,0 -5,11 43,0 6,-11z" />
<path style="fill:#e5e5d8" d="M426,637 l-44,0 -5,11 43,0 6,-11z" />
<path style="fill:#e5e5d8" d="M484,637 l-45,0 -6,11 43,0 8,-11z" />
<path style="fill:#e5e5d8" d="M259,703 l-43,0 -6,11 44,0 5,-11z" />
<path style="fill:#e5e5d8" d="M318,703 l-44,0 -5,11 43,0 6,-11z" />
<path style="fill:#e5e5d8" d="M377,703 l-44,0 -8,11 46,0 6,-11z" />
<path style="fill:#e5e5d8" d="M433,703 l-43,0 -6,11 43,0 6,-11z" />
<path style="fill:#e5e5d8" d="M491,703 l-43,0 -6,11 44,0 5,-11z" />
<path style="fill:#e5e5d8" d="M201,703 l-115,0 -6,11 115,0 6,-11z" />
<path style="fill:#e5e5d8" d="M306,725 l-73,0 -6,10 74,0 5,-10z" />
<path style="fill:#e5e5d8" d="M220,725 l-59,0 -5,10 56,0 8,-10z" />
<path style="fill:#e5e5d8" d="M146,725 l-71,0 -6,10 72,0 5,-10z" />
<path style="fill:#e5e5d8" d="M653,725 l-333,0 -6,10 334,0 5,-10z" />
<path style="fill:#e5e5d8" d="M495,682 l-43,0 6,10 43,0 -6,-10z" />
<path style="fill:#e5e5d8" d="M554,682 l-44,0 6,10 43,0 -5,-10z" />
<path style="fill:#e5e5d8" d="M612,682 l-45,0 7,10 44,0 -6,-10z" />
<path style="fill:#e5e5d8" d="M669,682 l-44,0 6,10 44,0 -6,-10z" />
<path style="fill:#e5e5d8" d="M727,682 l-43,0 6,10 43,0 -6,-10z" />
<path style="fill:#e5e5d8" d="M786,682 l-44,0 6,10 43,0 -5,-10z" />
<path style="fill:#e5e5d8" d="M901,682 l-102,0 7,10 100,0 -5,-10z" />
<path style="fill:#e5e5d8" d="M512,659 l-43,0 6,12 43,0 -6,-12z" />
<path style="fill:#e5e5d8" d="M571,659 l-44,0 6,12 43,0 -5,-12z" />
<path style="fill:#e5e5d8" d="M627,659 l-43,0 7,12 44,0 -8,-12z" />
<path style="fill:#e5e5d8" d="M686,659 l-43,0 5,12 44,0 -6,-12z" />
<path style="fill:#e5e5d8" d="M744,659 l-43,0 6,12 43,0 -6,-12z" />
<path style="fill:#e5e5d8" d="M803,659 l-46,0 8,12 43,0 -5,-12z" />
<path style="fill:#e5e5d8" d="M889,659 l-73,0 5,12 74,0 -6,-12z" />
<path style="fill:#e5e5d8" d="M471,637 l-44,0 6,11 43,0 -5,-11z" />
<path style="fill:#e5e5d8" d="M529,637 l-43,0 5,11 44,0 -6,-11z" />
<path style="fill:#e5e5d8" d="M588,637 l-44,0 6,11 43,0 -5,-11z" />
<path style="fill:#e5e5d8" d="M644,637 l-43,0 5,11 46,0 -8,-11z" />
<path style="fill:#e5e5d8" d="M703,637 l-44,0 6,11 43,0 -5,-11z" />
<path style="fill:#e5e5d8" d="M761,637 l-43,0 6,11 43,0 -6,-11z" />
<path style="fill:#e5e5d8" d="M818,637 l-44,0 8,11 43,0 -7,-11z" />
<path style="fill:#e5e5d8" d="M876,637 l-43,0 5,11 44,0 -6,-11z" />
<path style="fill:#e5e5d8" d="M493,703 l-43,0 6,11 43,0 -6,-11z" />
<path style="fill:#e5e5d8" d="M552,703 l-44,0 6,11 43,0 -5,-11z" />
<path style="fill:#e5e5d8" d="M608,703 l-43,0 7,11 44,0 -8,-11z" />
<path style="fill:#e5e5d8" d="M667,703 l-44,0 6,11 44,0 -6,-11z" />
<path style="fill:#e5e5d8" d="M725,703 l-43,0 6,11 43,0 -6,-11z" />
<path style="fill:#e5e5d8" d="M784,703 l-45,0 7,11 43,0 -5,-11z" />
<path style="fill:#e5e5d8" d="M914,703 l-117,0 6,11 116,0 -5,-11z" />
<path style="fill:#e5e5d8" d="M925,725 l-71,0 5,10 72,0 -6,-10z" />
<path style="fill:#e5e5d8" d="M838,725 l-58,0 6,10 58,0 -6,-10z" />
<path style="fill:#e5e5d8" d="M767,725 l-74,0 6,10 74,0 -6,-10z" />
<path style="fill:#e5e5d8" d="M678,725 l-332,0 6,10 334,0 -8,-10z" />
<path style="fill:#ccccbf" d="M352,623 l294,0 -26,-81 56,-2 89,-7 49,-8 0,-477 -49,-9 -87,-8 -117,-4 -124,0 -115,4 -89,8 -49,9 0,477 49,8 87,7 58,2 -26,81z" />
<path style="fill:#006" d="M450,488 l98,0 90,-4 69,-4 37,-7 0,-372 -37,-7 -69,-6 -90,-4 -98,0 -90,4 -69,6 -37,7 0,372 37,7 69,4 90,4z" />
<path style="fill:#474719" d="M633,582 l-13,-40 -242,0 -13,40 268,0z" />
<path style="fill:none;stroke:#000;stroke-width:2" d="M352,623 l294,0 -26,-81 56,-2 89,-7 49,-8 0,-477 -49,-9 -87,-8 -117,-4 -124,0 -115,4 -89,8 -49,9 0,477 49,8 87,7 58,2 -26,81" />
<path style="fill:#00004c" d="M450,488 l98,0 90,-4 69,-4 37,-7 -254,-36 -138,-55 -59,-94 -39,-187 0,372 37,7 69,4 90,4z" />
<path style="fill:#000059" d="M548,131 l104,40 40,68 52,234 0,-372 -37,-7 -69,-6 -90,-4 -98,0 -90,4 -69,6 -37,7 294,30z" />
<path style="fill:#fff;fill-rule:evenodd" d="M493,339 l-83,-76 -67,-107 92,107 58,76z M484,278 l-51,-45 -41,-66 56,66 36,45z " />

</svg>
