 

<svg xmlns:agg="http://www.example.com" xmlns="http://www.w3.org/2000/svg" preserveAspectRatio="none" width="1.0793in" height="1.0750in" viewBox="0 0 999 995">

<path style="fill:#fff" d="M891,540 l-724,0 0,-18 724,0 0,18z" />
<path style="fill:#fff;stroke:#000;stroke-width:2" d="M970,564 l-942,0 19,-31 904,0 19,31z" />
<path style="fill:#fff;stroke:#000;stroke-width:2" d="M947,533 l-896,0 97,-131 701,0 98,131z" />
<path style="fill:#c1c1c1;stroke:#000;stroke-width:2" d="M739,51 l0,-2 0,-2 0,-2 -21,-17 -3,0 -2,0 -415,0 -23,12 -1,7 0,2 0,2 0,350 14,21 1,1 2,0 425,0 22,-14 1,-19 0,-339z" />
<path style="fill:#828282;stroke:#000;stroke-width:2" d="M623,423 l-233,0 0,25 233,0 0,-25z" />
<path style="fill:#006;stroke:#000;stroke-width:2" d="M704,103 l0,-3 0,-2 0,-3 -13,-22 -7,0 -3,0 -2,0 -347,0 -22,11 -1,15 0,234 0,7 0,2 0,1 1,8 2,1 23,2 344,0 5,0 2,0 2,0 16,-22 0,-229z" />
<path style="fill:#c1c1c1;stroke:#000;stroke-width:2" d="M739,505 l-465,0 0,-19 116,-38 233,0 116,38 0,19z" />
<path style="fill:#828282;stroke:#000;stroke-width:2" d="M314,377 l0,29 111,0 0,-29 -111,0z" />
<path style="fill:none;stroke:#000;stroke-width:2" d="M739,486 l-465,0" />
<path style="fill:#c1c1c1;stroke:#000;stroke-width:2" d="M28,759 l0,-195 942,0 0,195 -942,0z" />
<path style="fill:#fff" d="M382,657 l-88,0 0,-43 88,0 0,43z" />
<path style="fill:#828282;stroke:#000;stroke-width:2" d="M389,660 l-328,0 0,89 328,0 0,-89z" />
<path style="fill:#000;stroke:#000;stroke-width:2" d="M355,685 l-261,0 0,38 261,0 0,-38z" />
<path style="fill:#c1c1c1;stroke:#000;stroke-width:2" d="M143,685 l-82,0 0,38 82,0 0,-38z" />
<path style="fill:#c1c1c1;stroke:#000;stroke-width:2" d="M110,685 l-16,0 0,38 16,0 0,-38z" />
<path style="fill:#828282;stroke:#000;stroke-width:2" d="M387,569 l-324,0 0,89 324,0 0,-89z" />
<path style="fill:#000;stroke:#000;stroke-width:2" d="M354,607 l-258,0 0,13 258,0 0,-13z" />
<path style="fill:#c1c1c1;stroke:#000;stroke-width:2" d="M112,582 l64,0 0,12 -64,0 0,-12z" />
<ellipse style="fill:#c1c1c1;stroke:#000;stroke-width:2" cx="112" cy="594" rx="16" ry="12" />
<path style="fill:#fff;stroke:#000;stroke-width:2" d="M840,774 l26,166 -764,0 61,-166 677,0z" />
<path style="fill:#c1c1c1;stroke:#000;stroke-width:2" d="M391,785 l3,26 -29,0 3,-26 23,0z" />
<path style="fill:#fff;stroke:#000;stroke-width:2" d="M390,778 l1,7 -23,0 2,-7 20,0z" />
<path style="fill:#c1c1c1;stroke:#000;stroke-width:2" d="M362,785 l3,26 -29,0 2,-26 24,0z" />
<path style="fill:#fff;stroke:#000;stroke-width:2" d="M360,778 l2,7 -24,0 2,-7 20,0z" />
<path style="fill:#c1c1c1;stroke:#000;stroke-width:2" d="M333,785 l3,26 -29,0 3,-26 23,0z" />
<path style="fill:#fff;stroke:#000;stroke-width:2" d="M331,778 l2,7 -23,0 1,-7 20,0z" />
<path style="fill:#c1c1c1;stroke:#000;stroke-width:2" d="M462,785 l3,26 -29,0 3,-26 23,0z" />
<path style="fill:#fff;stroke:#000;stroke-width:2" d="M460,778 l2,7 -23,0 1,-7 20,0z" />
<path style="fill:#c1c1c1;stroke:#000;stroke-width:2" d="M432,785 l3,26 -29,0 3,-26 23,0z" />
<path style="fill:#fff;stroke:#000;stroke-width:2" d="M431,778 l1,7 -23,0 1,-7 21,0z" />
<path style="fill:#c1c1c1;stroke:#000;stroke-width:2" d="M491,785 l2,26 -28,0 2,-26 24,0z" />
<path style="fill:#fff;stroke:#000;stroke-width:2" d="M489,778 l2,7 -24,0 2,-7 20,0z" />
<path style="fill:#c1c1c1;stroke:#000;stroke-width:2" d="M520,785 l3,26 -30,0 3,-26 24,0z" />
<path style="fill:#fff;stroke:#000;stroke-width:2" d="M518,778 l2,7 -24,0 2,-7 20,0z" />
<path style="fill:#c1c1c1;stroke:#000;stroke-width:2" d="M646,785 l3,26 -29,0 3,-26 23,0z" />
<path style="fill:#fff;stroke:#000;stroke-width:2" d="M645,778 l1,7 -23,0 2,-7 20,0z" />
<path style="fill:#c1c1c1;stroke:#000;stroke-width:2" d="M560,785 l2,26 -29,0 4,-26 23,0z" />
<path style="fill:#fff;stroke:#000;stroke-width:2" d="M558,778 l2,7 -23,0 1,-7 20,0z" />
<path style="fill:#c1c1c1;stroke:#000;stroke-width:2" d="M617,785 l3,26 -29,0 3,-26 23,0z" />
<path style="fill:#fff;stroke:#000;stroke-width:2" d="M616,778 l1,7 -23,0 2,-7 20,0z" />
<path style="fill:#c1c1c1;stroke:#000;stroke-width:2" d="M588,785 l3,26 -29,0 3,-26 23,0z" />
<path style="fill:#fff;stroke:#000;stroke-width:2" d="M587,778 l1,7 -23,0 2,-7 20,0z" />
<path style="fill:#c1c1c1;stroke:#000;stroke-width:2" d="M684,785 l3,26 -29,0 3,-26 23,0z" />
<path style="fill:#fff;stroke:#000;stroke-width:2" d="M682,778 l2,7 -23,0 1,-7 20,0z" />
<path style="fill:#c1c1c1;stroke:#000;stroke-width:2" d="M742,785 l3,26 -29,0 2,-26 24,0z" />
<path style="fill:#fff;stroke:#000;stroke-width:2" d="M740,778 l2,7 -24,0 2,-7 20,0z" />
<path style="fill:#c1c1c1;stroke:#000;stroke-width:2" d="M771,785 l3,26 -29,0 2,-26 24,0z" />
<path style="fill:#fff;stroke:#000;stroke-width:2" d="M769,778 l2,7 -24,0 2,-7 20,0z" />
<path style="fill:#c1c1c1;stroke:#000;stroke-width:2" d="M713,785 l3,26 -29,0 3,-26 23,0z" />
<path style="fill:#fff;stroke:#000;stroke-width:2" d="M711,778 l2,7 -23,0 1,-7 20,0z" />
<path style="fill:#c1c1c1;stroke:#000;stroke-width:2" d="M823,785 l3,26 -29,0 3,-26 23,0z" />
<path style="fill:#c1c1c1;stroke:#000;stroke-width:2" d="M646,812 l3,26 -29,0 3,-26 23,0z" />
<path style="fill:#fff;stroke:#000;stroke-width:2" d="M645,805 l1,7 -23,0 2,-7 20,0z" />
<path style="fill:#c1c1c1;stroke:#000;stroke-width:2" d="M444,812 l2,26 -29,0 3,-26 24,0z" />
<path style="fill:#fff;stroke:#000;stroke-width:2" d="M442,805 l2,7 -24,0 2,-7 20,0z" />
<path style="fill:#c1c1c1;stroke:#000;stroke-width:2" d="M675,812 l3,26 -29,0 3,-26 23,0z" />
<path style="fill:#fff;stroke:#000;stroke-width:2" d="M674,805 l1,7 -23,0 2,-7 20,0z" />
<path style="fill:#c1c1c1;stroke:#000;stroke-width:2" d="M617,812 l3,26 -29,0 3,-26 23,0z" />
<path style="fill:#fff;stroke:#000;stroke-width:2" d="M616,805 l1,7 -23,0 2,-7 20,0z" />
<path style="fill:#c1c1c1;stroke:#000;stroke-width:2" d="M530,812 l3,26 -29,0 3,-26 23,0z" />
<path style="fill:#fff;stroke:#000;stroke-width:2" d="M529,805 l1,7 -23,0 2,-7 20,0z" />
<path style="fill:#c1c1c1;stroke:#000;stroke-width:2" d="M820,812 l3,26 -29,0 3,-26 23,0z" />
<path style="fill:#fff;stroke:#000;stroke-width:2" d="M819,805 l1,7 -23,0 1,-7 21,0z" />
<path style="fill:#c1c1c1;stroke:#000;stroke-width:2" d="M588,812 l3,26 -29,0 3,-26 23,0z" />
<path style="fill:#fff;stroke:#000;stroke-width:2" d="M587,805 l1,7 -23,0 2,-7 20,0z" />
<path style="fill:#c1c1c1;stroke:#000;stroke-width:2" d="M560,812 l2,26 -29,0 4,-26 23,0z" />
<path style="fill:#fff;stroke:#000;stroke-width:2" d="M558,805 l2,7 -23,0 1,-7 20,0z" />
<path style="fill:#c1c1c1;stroke:#000;stroke-width:2" d="M733,812 l3,26 -29,0 3,-26 23,0z" />
<path style="fill:#fff;stroke:#000;stroke-width:2" d="M732,805 l1,7 -23,0 1,-7 21,0z" />
<path style="fill:#c1c1c1;stroke:#000;stroke-width:2" d="M762,812 l3,26 -29,0 3,-26 23,0z" />
<path style="fill:#fff;stroke:#000;stroke-width:2" d="M760,805 l2,7 -23,0 1,-7 20,0z" />
<path style="fill:#c1c1c1;stroke:#000;stroke-width:2" d="M473,812 l2,26 -29,0 3,-26 24,0z" />
<path style="fill:#fff;stroke:#000;stroke-width:2" d="M471,805 l2,7 -24,0 2,-7 20,0z" />
<path style="fill:#c1c1c1;stroke:#000;stroke-width:2" d="M704,812 l3,26 -29,0 3,-26 23,0z" />
<path style="fill:#fff;stroke:#000;stroke-width:2" d="M703,805 l1,7 -23,0 1,-7 21,0z" />
<path style="fill:#c1c1c1;stroke:#000;stroke-width:2" d="M791,812 l3,26 -29,0 3,-26 23,0z" />
<path style="fill:#fff;stroke:#000;stroke-width:2" d="M790,805 l1,7 -23,0 1,-7 21,0z" />
<path style="fill:#c1c1c1;stroke:#000;stroke-width:2" d="M502,812 l2,26 -29,0 3,-26 24,0z" />
<path style="fill:#fff;stroke:#000;stroke-width:2" d="M500,805 l2,7 -24,0 2,-7 20,0z" />
<path style="fill:#c1c1c1;stroke:#000;stroke-width:2" d="M635,824 l3,26 -29,0 3,-26 23,0z" />
<path style="fill:#fff;stroke:#000;stroke-width:2" d="M633,817 l2,7 -23,0 1,-7 20,0z" />
<path style="fill:#c1c1c1;stroke:#000;stroke-width:2" d="M432,824 l3,26 -29,0 3,-26 23,0z" />
<path style="fill:#fff;stroke:#000;stroke-width:2" d="M431,817 l1,7 -23,0 1,-7 21,0z" />
<path style="fill:#c1c1c1;stroke:#000;stroke-width:2" d="M664,824 l3,26 -29,0 2,-26 24,0z" />
<path style="fill:#fff;stroke:#000;stroke-width:2" d="M662,817 l2,7 -24,0 2,-7 20,0z" />
<path style="fill:#c1c1c1;stroke:#000;stroke-width:2" d="M606,824 l3,26 -29,0 2,-26 24,0z" />
<path style="fill:#fff;stroke:#000;stroke-width:2" d="M604,817 l2,7 -24,0 2,-7 20,0z" />
<path style="fill:#c1c1c1;stroke:#000;stroke-width:2" d="M519,824 l3,26 -29,0 3,-26 23,0z" />
<path style="fill:#fff;stroke:#000;stroke-width:2" d="M517,817 l2,7 -23,0 1,-7 20,0z" />
<path style="fill:#c1c1c1;stroke:#000;stroke-width:2" d="M808,824 l3,26 -29,0 3,-26 23,0z" />
<path style="fill:#fff;stroke:#000;stroke-width:2" d="M807,817 l1,7 -23,0 2,-7 20,0z" />
<path style="fill:#c1c1c1;stroke:#000;stroke-width:2" d="M577,824 l3,26 -29,0 2,-26 24,0z" />
<path style="fill:#fff;stroke:#000;stroke-width:2" d="M575,817 l2,7 -24,0 2,-7 20,0z" />
<path style="fill:#c1c1c1;stroke:#000;stroke-width:2" d="M548,824 l3,26 -29,0 3,-26 23,0z" />
<path style="fill:#fff;stroke:#000;stroke-width:2" d="M546,817 l2,7 -23,0 1,-7 20,0z" />
<path style="fill:#c1c1c1;stroke:#000;stroke-width:2" d="M722,824 l3,26 -30,0 4,-26 23,0z" />
<path style="fill:#fff;stroke:#000;stroke-width:2" d="M720,817 l2,7 -23,0 1,-7 20,0z" />
<path style="fill:#c1c1c1;stroke:#000;stroke-width:2" d="M751,824 l2,26 -28,0 3,-26 23,0z" />
<path style="fill:#fff;stroke:#000;stroke-width:2" d="M749,817 l2,7 -23,0 1,-7 20,0z" />
<path style="fill:#c1c1c1;stroke:#000;stroke-width:2" d="M461,824 l3,26 -29,0 3,-26 23,0z" />
<path style="fill:#fff;stroke:#000;stroke-width:2" d="M459,817 l2,7 -23,0 1,-7 20,0z" />
<path style="fill:#c1c1c1;stroke:#000;stroke-width:2" d="M693,824 l2,26 -28,0 3,-26 23,0z" />
<path style="fill:#fff;stroke:#000;stroke-width:2" d="M691,817 l2,7 -23,0 1,-7 20,0z" />
<path style="fill:#c1c1c1;stroke:#000;stroke-width:2" d="M779,824 l3,26 -29,0 3,-26 23,0z" />
<path style="fill:#fff;stroke:#000;stroke-width:2" d="M778,817 l1,7 -23,0 2,-7 20,0z" />
<path style="fill:#c1c1c1;stroke:#000;stroke-width:2" d="M490,824 l3,26 -29,0 3,-26 23,0z" />
<path style="fill:#fff;stroke:#000;stroke-width:2" d="M488,817 l2,7 -23,0 1,-7 20,0z" />
<path style="fill:#c1c1c1;stroke:#000;stroke-width:2" d="M646,840 l3,26 -29,0 3,-26 23,0z" />
<path style="fill:#fff;stroke:#000;stroke-width:2" d="M645,833 l1,7 -23,0 2,-7 20,0z" />
<path style="fill:#c1c1c1;stroke:#000;stroke-width:2" d="M444,840 l2,26 -29,0 3,-26 24,0z" />
<path style="fill:#fff;stroke:#000;stroke-width:2" d="M442,833 l2,7 -24,0 2,-7 20,0z" />
<path style="fill:#c1c1c1;stroke:#000;stroke-width:2" d="M675,840 l3,26 -29,0 3,-26 23,0z" />
<path style="fill:#fff;stroke:#000;stroke-width:2" d="M674,833 l1,7 -23,0 2,-7 20,0z" />
<path style="fill:#c1c1c1;stroke:#000;stroke-width:2" d="M617,840 l3,26 -29,0 3,-26 23,0z" />
<path style="fill:#fff;stroke:#000;stroke-width:2" d="M616,833 l1,7 -23,0 2,-7 20,0z" />
<path style="fill:#c1c1c1;stroke:#000;stroke-width:2" d="M530,840 l3,26 -29,0 3,-26 23,0z" />
<path style="fill:#fff;stroke:#000;stroke-width:2" d="M529,833 l1,7 -23,0 2,-7 20,0z" />
<path style="fill:#c1c1c1;stroke:#000;stroke-width:2" d="M820,840 l3,26 -29,0 3,-26 23,0z" />
<path style="fill:#fff;stroke:#000;stroke-width:2" d="M819,833 l1,7 -23,0 1,-7 21,0z" />
<path style="fill:#c1c1c1;stroke:#000;stroke-width:2" d="M588,840 l3,26 -29,0 3,-26 23,0z" />
<path style="fill:#fff;stroke:#000;stroke-width:2" d="M587,833 l1,7 -23,0 2,-7 20,0z" />
<path style="fill:#c1c1c1;stroke:#000;stroke-width:2" d="M560,840 l2,26 -29,0 4,-26 23,0z" />
<path style="fill:#fff;stroke:#000;stroke-width:2" d="M558,833 l2,7 -23,0 1,-7 20,0z" />
<path style="fill:#c1c1c1;stroke:#000;stroke-width:2" d="M733,840 l3,26 -29,0 3,-26 23,0z" />
<path style="fill:#fff;stroke:#000;stroke-width:2" d="M732,833 l1,7 -23,0 1,-7 21,0z" />
<path style="fill:#c1c1c1;stroke:#000;stroke-width:2" d="M762,840 l3,26 -29,0 3,-26 23,0z" />
<path style="fill:#fff;stroke:#000;stroke-width:2" d="M760,833 l2,7 -23,0 1,-7 20,0z" />
<path style="fill:#c1c1c1;stroke:#000;stroke-width:2" d="M473,840 l2,26 -29,0 3,-26 24,0z" />
<path style="fill:#fff;stroke:#000;stroke-width:2" d="M471,833 l2,7 -24,0 2,-7 20,0z" />
<path style="fill:#c1c1c1;stroke:#000;stroke-width:2" d="M704,840 l3,26 -29,0 3,-26 23,0z" />
<path style="fill:#fff;stroke:#000;stroke-width:2" d="M703,833 l1,7 -23,0 1,-7 21,0z" />
<path style="fill:#c1c1c1;stroke:#000;stroke-width:2" d="M791,840 l3,26 -29,0 3,-26 23,0z" />
<path style="fill:#fff;stroke:#000;stroke-width:2" d="M790,833 l1,7 -23,0 1,-7 21,0z" />
<path style="fill:#c1c1c1;stroke:#000;stroke-width:2" d="M502,840 l2,26 -29,0 3,-26 24,0z" />
<path style="fill:#fff;stroke:#000;stroke-width:2" d="M500,833 l2,7 -24,0 2,-7 20,0z" />
<path style="fill:#c1c1c1;stroke:#000;stroke-width:2" d="M635,858 l3,27 -29,0 3,-27 23,0z" />
<path style="fill:#fff;stroke:#000;stroke-width:2" d="M633,851 l2,7 -23,0 1,-7 20,0z" />
<path style="fill:#c1c1c1;stroke:#000;stroke-width:2" d="M432,858 l3,27 -29,0 3,-27 23,0z" />
<path style="fill:#fff;stroke:#000;stroke-width:2" d="M431,851 l1,7 -23,0 1,-7 21,0z" />
<path style="fill:#c1c1c1;stroke:#000;stroke-width:2" d="M664,858 l3,27 -29,0 2,-27 24,0z" />
<path style="fill:#fff;stroke:#000;stroke-width:2" d="M662,851 l2,7 -24,0 2,-7 20,0z" />
<path style="fill:#c1c1c1;stroke:#000;stroke-width:2" d="M606,858 l3,27 -29,0 2,-27 24,0z" />
<path style="fill:#fff;stroke:#000;stroke-width:2" d="M604,851 l2,7 -24,0 2,-7 20,0z" />
<path style="fill:#c1c1c1;stroke:#000;stroke-width:2" d="M519,858 l3,27 -29,0 3,-27 23,0z" />
<path style="fill:#fff;stroke:#000;stroke-width:2" d="M517,851 l2,7 -23,0 1,-7 20,0z" />
<path style="fill:#c1c1c1;stroke:#000;stroke-width:2" d="M808,858 l3,27 -29,0 3,-27 23,0z" />
<path style="fill:#fff;stroke:#000;stroke-width:2" d="M807,851 l1,7 -23,0 2,-7 20,0z" />
<path style="fill:#c1c1c1;stroke:#000;stroke-width:2" d="M577,858 l3,27 -29,0 2,-27 24,0z" />
<path style="fill:#fff;stroke:#000;stroke-width:2" d="M575,851 l2,7 -24,0 2,-7 20,0z" />
<path style="fill:#c1c1c1;stroke:#000;stroke-width:2" d="M548,858 l3,27 -29,0 3,-27 23,0z" />
<path style="fill:#fff;stroke:#000;stroke-width:2" d="M546,851 l2,7 -23,0 1,-7 20,0z" />
<path style="fill:#c1c1c1;stroke:#000;stroke-width:2" d="M722,858 l3,27 -30,0 4,-27 23,0z" />
<path style="fill:#fff;stroke:#000;stroke-width:2" d="M720,851 l2,7 -23,0 1,-7 20,0z" />
<path style="fill:#c1c1c1;stroke:#000;stroke-width:2" d="M751,858 l2,27 -28,0 3,-27 23,0z" />
<path style="fill:#fff;stroke:#000;stroke-width:2" d="M749,851 l2,7 -23,0 1,-7 20,0z" />
<path style="fill:#c1c1c1;stroke:#000;stroke-width:2" d="M461,858 l3,27 -29,0 3,-27 23,0z" />
<path style="fill:#fff;stroke:#000;stroke-width:2" d="M459,851 l2,7 -23,0 1,-7 20,0z" />
<path style="fill:#c1c1c1;stroke:#000;stroke-width:2" d="M693,858 l2,27 -28,0 3,-27 23,0z" />
<path style="fill:#fff;stroke:#000;stroke-width:2" d="M691,851 l2,7 -23,0 1,-7 20,0z" />
<path style="fill:#c1c1c1;stroke:#000;stroke-width:2" d="M779,858 l3,27 -29,0 3,-27 23,0z" />
<path style="fill:#fff;stroke:#000;stroke-width:2" d="M778,851 l1,7 -23,0 2,-7 20,0z" />
<path style="fill:#c1c1c1;stroke:#000;stroke-width:2" d="M490,858 l3,27 -29,0 3,-27 23,0z" />
<path style="fill:#fff;stroke:#000;stroke-width:2" d="M488,851 l2,7 -23,0 1,-7 20,0z" />
<path style="fill:#c1c1c1;stroke:#000;stroke-width:2" d="M435,883 l3,26 -29,0 3,-26 23,0z" />
<path style="fill:#fff;stroke:#000;stroke-width:2" d="M433,876 l2,7 -23,0 1,-7 20,0z" />
<path style="fill:#c1c1c1;stroke:#000;stroke-width:2" d="M388,812 l3,26 -29,0 3,-26 23,0z" />
<path style="fill:#fff;stroke:#000;stroke-width:2" d="M387,805 l1,7 -23,0 1,-7 21,0z" />
<path style="fill:#c1c1c1;stroke:#000;stroke-width:2" d="M356,812 l3,26 -29,0 3,-26 23,0z" />
<path style="fill:#fff;stroke:#000;stroke-width:2" d="M355,805 l1,7 -23,0 2,-7 20,0z" />
<path style="fill:#c1c1c1;stroke:#000;stroke-width:2" d="M382,824 l4,26 -29,0 3,-26 22,0z" />
<path style="fill:#fff;stroke:#000;stroke-width:2" d="M381,817 l1,7 -22,0 1,-7 20,0z" />
<path style="fill:#c1c1c1;stroke:#000;stroke-width:2" d="M327,812 l3,26 -29,0 3,-26 23,0z" />
<path style="fill:#fff;stroke:#000;stroke-width:2" d="M326,805 l1,7 -23,0 2,-7 20,0z" />
<path style="fill:#c1c1c1;stroke:#000;stroke-width:2" d="M352,824 l3,26 -29,0 3,-26 23,0z" />
<path style="fill:#fff;stroke:#000;stroke-width:2" d="M351,817 l1,7 -23,0 1,-7 21,0z" />
<path style="fill:#c1c1c1;stroke:#000;stroke-width:2" d="M323,824 l3,26 -29,0 3,-26 23,0z" />
<path style="fill:#fff;stroke:#000;stroke-width:2" d="M322,817 l1,7 -23,0 2,-7 20,0z" />
<path style="fill:#c1c1c1;stroke:#000;stroke-width:2" d="M374,882 l3,26 -29,0 3,-26 23,0z" />
<path style="fill:#fff;stroke:#000;stroke-width:2" d="M373,875 l1,7 -23,0 1,-7 21,0z" />
<path style="fill:#c1c1c1;stroke:#000;stroke-width:2" d="M348,858 l3,27 -29,0 3,-27 23,0z" />
<path style="fill:#fff;stroke:#000;stroke-width:2" d="M346,851 l2,7 -23,0 1,-7 20,0z" />
<path style="fill:#c1c1c1;stroke:#000;stroke-width:2" d="M345,882 l3,26 -30,0 3,-26 24,0z" />
<path style="fill:#fff;stroke:#000;stroke-width:2" d="M343,875 l2,7 -24,0 2,-7 20,0z" />
<path style="fill:#c1c1c1;stroke:#000;stroke-width:2" d="M314,882 l3,26 -29,0 3,-26 23,0z" />
<path style="fill:#fff;stroke:#000;stroke-width:2" d="M313,875 l1,7 -23,0 2,-7 20,0z" />
<path style="fill:#c1c1c1;stroke:#000;stroke-width:2" d="M192,812 l3,26 -29,0 3,-26 23,0z" />
<path style="fill:#fff;stroke:#000;stroke-width:2" d="M191,805 l1,7 -23,0 1,-7 21,0z" />
<path style="fill:#c1c1c1;stroke:#000;stroke-width:2" d="M221,812 l3,26 -29,0 3,-26 23,0z" />
<path style="fill:#fff;stroke:#000;stroke-width:2" d="M219,805 l2,7 -23,0 1,-7 20,0z" />
<path style="fill:#c1c1c1;stroke:#000;stroke-width:2" d="M252,812 l2,26 -29,0 3,-26 24,0z" />
<path style="fill:#fff;stroke:#000;stroke-width:2" d="M250,805 l2,7 -24,0 2,-7 20,0z" />
<path style="fill:#c1c1c1;stroke:#000;stroke-width:2" d="M281,812 l3,26 -29,0 3,-26 23,0z" />
<path style="fill:#fff;stroke:#000;stroke-width:2" d="M280,805 l1,7 -23,0 1,-7 21,0z" />
<path style="fill:#c1c1c1;stroke:#000;stroke-width:2" d="M278,824 l3,26 -29,0 3,-26 23,0z" />
<path style="fill:#fff;stroke:#000;stroke-width:2" d="M276,817 l2,7 -23,0 1,-7 20,0z" />
<path style="fill:#c1c1c1;stroke:#000;stroke-width:2" d="M248,824 l2,26 -28,0 2,-26 24,0z" />
<path style="fill:#fff;stroke:#000;stroke-width:2" d="M246,817 l2,7 -24,0 2,-7 20,0z" />
<path style="fill:#c1c1c1;stroke:#000;stroke-width:2" d="M218,824 l3,26 -29,0 3,-26 23,0z" />
<path style="fill:#fff;stroke:#000;stroke-width:2" d="M216,817 l2,7 -23,0 1,-7 20,0z" />
<path style="fill:#c1c1c1;stroke:#000;stroke-width:2" d="M188,824 l3,26 -29,0 3,-26 23,0z" />
<path style="fill:#fff;stroke:#000;stroke-width:2" d="M186,817 l2,7 -23,0 1,-7 20,0z" />
<path style="fill:#c1c1c1;stroke:#000;stroke-width:2" d="M184,840 l3,26 -29,0 3,-26 23,0z" />
<path style="fill:#fff;stroke:#000;stroke-width:2" d="M183,833 l1,7 -23,0 1,-7 21,0z" />
<path style="fill:#c1c1c1;stroke:#000;stroke-width:2" d="M181,858 l3,27 -29,0 2,-27 24,0z" />
<path style="fill:#fff;stroke:#000;stroke-width:2" d="M179,851 l2,7 -24,0 2,-7 20,0z" />
<path style="fill:#c1c1c1;stroke:#000;stroke-width:2" d="M176,882 l3,26 -29,0 3,-26 23,0z" />
<path style="fill:#fff;stroke:#000;stroke-width:2" d="M174,875 l2,7 -23,0 1,-7 20,0z" />
<path style="fill:#c1c1c1;stroke:#000;stroke-width:2" d="M276,840 l3,26 -30,0 3,-26 24,0z" />
<path style="fill:#fff;stroke:#000;stroke-width:2" d="M274,833 l2,7 -24,0 2,-7 20,0z" />
<path style="fill:#c1c1c1;stroke:#000;stroke-width:2" d="M272,858 l3,27 -29,0 3,-27 23,0z" />
<path style="fill:#fff;stroke:#000;stroke-width:2" d="M271,851 l1,7 -23,0 1,-7 21,0z" />
<path style="fill:#c1c1c1;stroke:#000;stroke-width:2" d="M245,840 l3,26 -29,0 3,-26 23,0z" />
<path style="fill:#fff;stroke:#000;stroke-width:2" d="M244,833 l1,7 -23,0 1,-7 21,0z" />
<path style="fill:#c1c1c1;stroke:#000;stroke-width:2" d="M242,858 l3,27 -29,0 3,-27 23,0z" />
<path style="fill:#fff;stroke:#000;stroke-width:2" d="M240,851 l2,7 -23,0 1,-7 20,0z" />
<path style="fill:#c1c1c1;stroke:#000;stroke-width:2" d="M214,840 l3,26 -29,0 3,-26 23,0z" />
<path style="fill:#fff;stroke:#000;stroke-width:2" d="M213,833 l1,7 -23,0 1,-7 21,0z" />
<path style="fill:#c1c1c1;stroke:#000;stroke-width:2" d="M211,858 l3,27 -29,0 3,-27 23,0z" />
<path style="fill:#fff;stroke:#000;stroke-width:2" d="M210,851 l1,7 -23,0 2,-7 20,0z" />
<path style="fill:#c1c1c1;stroke:#000;stroke-width:2" d="M207,882 l3,26 -29,0 3,-26 23,0z" />
<path style="fill:#fff;stroke:#000;stroke-width:2" d="M206,875 l1,7 -23,0 1,-7 21,0z" />
<path style="fill:#c1c1c1;stroke:#000;stroke-width:2" d="M823,883 l3,26 -29,0 3,-26 23,0z" />
<path style="fill:#fff;stroke:#000;stroke-width:2" d="M821,876 l2,7 -23,0 1,-7 20,0z" />
<path style="fill:#c1c1c1;stroke:#000;stroke-width:2" d="M762,883 l3,26 -29,0 3,-26 23,0z" />
<path style="fill:#fff;stroke:#000;stroke-width:2" d="M760,876 l2,7 -23,0 1,-7 20,0z" />
<path style="fill:#c1c1c1;stroke:#000;stroke-width:2" d="M464,883 l3,26 -29,0 3,-26 23,0z" />
<path style="fill:#fff;stroke:#000;stroke-width:2" d="M463,876 l1,7 -23,0 1,-7 21,0z" />
<path style="fill:#c1c1c1;stroke:#000;stroke-width:2" d="M794,883 l3,26 -29,0 3,-26 23,0z" />
<path style="fill:#fff;stroke:#000;stroke-width:2" d="M792,876 l2,7 -23,0 1,-7 20,0z" />
<path style="fill:#c1c1c1;stroke:#000;stroke-width:2" d="M493,883 l3,26 -29,0 3,-26 23,0z" />
<path style="fill:#fff;stroke:#000;stroke-width:2" d="M491,876 l2,7 -23,0 1,-7 20,0z" />
<path style="fill:#fff;stroke:#000;stroke-width:2" d="M821,779 l2,7 -23,0 1,-7 20,0z" />
<path style="fill:#c1c1c1;stroke:#000;stroke-width:2" d="M733,884 l3,25 -240,0 3,-26 234,1z" />
<path style="fill:#fff;stroke:#000;stroke-width:2" d="M732,875 l1,9 -234,-1 9,-8 224,0z" />
<path style="fill:#c1c1c1;stroke:#000;stroke-width:2" d="M238,882 l3,26 -29,0 3,-26 23,0z" />
<path style="fill:#fff;stroke:#000;stroke-width:2" d="M237,875 l1,7 -23,0 2,-7 20,0z" />
<path style="fill:#c1c1c1;stroke:#000;stroke-width:2" d="M268,882 l3,26 -29,0 3,-26 23,0z" />
<path style="fill:#fff;stroke:#000;stroke-width:2" d="M267,875 l1,7 -23,0 2,-7 20,0z" />
<path style="fill:#e8e8e8" d="M102,942 l764,0 0,-2 -764,0 0,2z" />
<path style="fill:#e0e0e0" d="M102,942 l0,3 764,0 0,-3 -764,0z" />
<path style="fill:#d6d6d6" d="M102,945 l0,3 764,0 0,-3 -764,0z" />
<path style="fill:#cecece" d="M102,948 l0,3 764,0 0,-3 -764,0z" />
<path style="fill:#c4c4c4" d="M102,951 l0,2 764,0 0,-2 -764,0z" />
<path style="fill:#bcbcbc" d="M102,953 l0,3 764,0 0,-3 -764,0z" />
<path style="fill:#b5b5b5" d="M102,956 l0,3 764,0 0,-3 -764,0z" />
<path style="fill:#adadad" d="M102,959 l0,3 764,0 0,-3 -764,0z" />
<path style="fill:#a3a3a3" d="M102,962 l0,3 764,0 0,-3 -764,0z" />
<path style="fill:#9b9b9b" d="M102,965 l0,2 764,0 0,-2 -764,0z" />
<path style="fill:none;stroke:#000;stroke-width:2" d="M866,940 l0,27 -764,0 0,-27 764,0" />

</svg>
