 

<svg xmlns:agg="http://www.example.com" xmlns="http://www.w3.org/2000/svg" preserveAspectRatio="none" width="0.3648in" height="1.0750in" viewBox="0 0 339 999">

<path style="fill:#00f;stroke:#000;stroke-width:2" d="M50,64 l261,0 0,235 -261,0 0,-235z" />
<path style="fill:#00f;stroke:#000;stroke-width:2" d="M50,163 l161,0 0,136 -161,0 0,-136z" />
<path style="fill:#00f;stroke:#000;stroke-width:2" d="M98,158 l-48,0 -22,-36 24,-36 46,0 24,36 -24,36z" />
<path style="fill:#b2b2b2;stroke:#000;stroke-width:2" d="M94,152 l-38,0 -21,-30 21,-30 38,0 20,30 -20,30z" />
<path style="fill:#b2b2b2;stroke:#000;stroke-width:2" d="M50,64 l261,0 0,-36 -261,0 0,36z" />
<circle style="fill:#4c4c4c;stroke:#000;stroke-width:2" cx="74" cy="121" r="24" />
<circle style="fill:#000;stroke:#000;stroke-width:2" cx="75" cy="122" r="17" />
<path style="fill:#999;stroke:#000;stroke-width:2" d="M75,28 l36,0 0,22 -36,0 0,-22z" />
<path style="fill:#999;stroke:#000;stroke-width:2" d="M145,28 l35,0 0,22 -35,0 0,-22z" />
<path style="fill:#999;stroke:#000;stroke-width:2" d="M216,28 l36,0 0,22 -36,0 0,-22z" />
<path style="fill:#999;stroke:#000;stroke-width:2" d="M286,28 l25,0 0,22 -25,0 0,-22z" />
<path style="fill:none;stroke:#000;stroke-width:2" d="M50,163 l261,0" />
<path style="fill:#4c4c4c;stroke:#000;stroke-width:2" d="M111,158 l34,0 0,34 -34,0 0,-34z" />
<path style="fill:#666;stroke:#000;stroke-width:2" d="M128,163 l8,4 3,6 -2,9 -7,4 -5,0 -8,-6 -1,-5 4,-8 8,-4z" />
<path style="fill:#0000bf;stroke:#000;stroke-width:2" d="M116,299 l130,0 0,12 -130,0 0,-12z" />
<path style="fill:#b2b2b2;stroke:#000;stroke-width:2" d="M163,429 l36,0 0,541 -36,0 0,-541z" />
<path style="fill:#ccc" d="M169,429 l25,0 0,541 -25,0 0,-541z" />
<path style="fill:#e5e5e5" d="M173,429 l15,0 0,541 -15,0 0,-541z" />
<path style="fill:#fff" d="M179,429 l5,0 0,541 -5,0 0,-541z" />
<path style="fill:#999;stroke:#000;stroke-width:2" d="M158,333 l47,0 0,94 -47,0 0,-94z" />
<path style="fill:#ccc" d="M163,333 l36,0 0,94 -36,0 0,-94z" />
<path style="fill:#e5e5e5" d="M175,333 l11,0 0,94 -11,0 0,-94z" />
<path style="fill:#b2b2b2" d="M147,358 l69,0 0,35 -69,0 0,-35z" />
<path style="fill:#ccc" d="M152,358 l59,0 0,35 -59,0 0,-35z" />
<path style="fill:#e5e5e5" d="M169,358 l25,0 0,35 -25,0 0,-35z" />
<path style="fill:none;stroke:#000;stroke-width:2" d="M147,358 l69,0 0,35 -69,0 0,-35" />
<path style="fill:#999" d="M111,311 l141,0 0,22 -141,0 0,-22z" />
<path style="fill:#b2b2b2" d="M128,311 l105,0 0,22 -105,0 0,-22z" />
<path style="fill:#ccc" d="M152,311 l59,0 0,22 -59,0 0,-22z" />
<path style="fill:none;stroke:#000;stroke-width:2" d="M111,311 l141,0 0,22 -141,0 0,-22" />

</svg>
