 

<svg xmlns:agg="http://www.example.com" xmlns="http://www.w3.org/2000/svg" preserveAspectRatio="none" width="0.5983in" height="1.0750in" viewBox="0 0 556 999">

<path style="fill:#9ff;stroke:#000;stroke-width:2" d="M72,28 l-15,74 0,43 -14,29 -1,339 8,0 0,147 7,15 442,0 7,-15 0,-147 7,0 0,-339 -14,-29 0,-44 -30,-73 -397,0z" />
<path style="fill:#e5e5e5;stroke:#000;stroke-width:2" d="M130,793 l295,0 0,177 -295,0 0,-177z" />
<path style="fill:#e5e5e5;stroke:#000;stroke-width:2" d="M131,793 l-59,-118 412,0 -59,118 -294,0z" />
<path style="fill:none;stroke:#7f7f7f;stroke-width:2" d="M71,101 l413,0" />
<path style="fill:none;stroke:#7f7f7f;stroke-width:2" d="M72,146 l412,0" />
<path style="fill:none;stroke:#7f7f7f;stroke-width:2" d="M65,168 l427,0" />
<path style="fill:#0ff" d="M94,190 l0,162 15,14 44,0 15,-14 0,-162 -74,0z" />
<path style="fill:none;stroke:#7f7f7f;stroke-width:2" d="M109,366 l-15,-15 1,-161 73,0" />
<path style="fill:#0ff" d="M389,190 l0,162 14,14 44,0 15,-14 0,-162 -73,0z" />
<path style="fill:none;stroke:#7f7f7f;stroke-width:2" d="M403,366 l-14,-15 0,-161 73,0" />
<path style="fill:#0ff" d="M242,190 l0,162 14,14 44,0 15,-14 0,-162 -73,0z" />
<path style="fill:none;stroke:#7f7f7f;stroke-width:2" d="M256,366 l-14,-15 0,-161 73,0" />
<path style="fill:#fff;stroke:#000;stroke-width:2" d="M190,933 l176,0 0,37 -176,0 0,-37z" />
<path style="fill:#0ff" d="M153,660 l0,-133 15,-14 44,0 15,15 0,132 -74,0z" />
<path style="fill:#0ff" d="M447,660 l0,-133 15,-14 44,0 0,148 -59,-1z" />
<path style="fill:#0ff" d="M300,660 l0,-133 15,-14 44,0 15,15 0,132 -74,0z" />
<path style="fill:#0ff" d="M50,661 l-1,-147 15,-1 15,15 0,132 -29,1z" />
<path style="fill:none;stroke:#7f7f7f;stroke-width:2" d="M153,661 l0,-133 15,-15 43,0 16,15" />
<path style="fill:none;stroke:#7f7f7f;stroke-width:2" d="M300,661 l0,-133 15,-15 43,0 15,15" />
<path style="fill:none;stroke:#7f7f7f;stroke-width:2" d="M447,661 l0,-133 15,-15 44,0" />
<path style="fill:none;stroke:#7f7f7f;stroke-width:2" d="M50,513 l14,0" />
<path style="fill:none;stroke:#000;stroke-width:2" d="M50,661 l0,-148" />
<path style="fill:#9ff;stroke:#7f7f7f;stroke-width:2" d="M528,381 l-220,0 -8,-8 -44,0 -7,8 -221,0 0,117 500,0 0,-117z" />
<circle style="fill:#e5e5e5;stroke:#000;stroke-width:2" cx="109" cy="440" r="29" />
<circle style="fill:#e5e5e5;stroke:#000;stroke-width:2" cx="448" cy="440" r="29" />
<circle style="fill:#ff0;stroke:#000;stroke-width:2" cx="278" cy="469" r="22" />
<circle style="fill:#000;stroke:#000;stroke-width:2" cx="448" cy="440" r="22" />
<circle style="fill:#000;stroke:#000;stroke-width:2" cx="109" cy="440" r="22" />
<circle style="fill:#b2b2b2;stroke:#000;stroke-width:2" cx="279" cy="410" r="29" />
<path style="fill:#000;stroke:#000;stroke-width:2" d="M270,484 l-7,-15 7,-15 15,0 8,15 -8,15 -15,0z" />
<path style="fill:#0ff" d="M42,499 l471,0 0,14 -471,0 0,-14z" />
<path style="fill:none;stroke:#000;stroke-width:2" d="M28,499 l500,0" />
<path style="fill:none;stroke:#000;stroke-width:2" d="M79,690 l398,0" />

</svg>
