 

<svg xmlns:agg="http://www.example.com" xmlns="http://www.w3.org/2000/svg" preserveAspectRatio="none" width="1.6053in" height="1.0750in" viewBox="0 0 999 669">

<path style="fill:#8ca0bf;stroke:#000;stroke-width:2" d="M770,57 l0,71 -590,0 0,-71 590,0z" />
<path style="fill:#8ca0bf;stroke:#000;stroke-width:2" d="M946,75 l0,565 -141,0 -35,-17 -554,0 0,17 -94,0 0,-565 94,0 0,70 589,0 0,-70 141,0z" />
<path style="fill:#bfd3f2;stroke:#000;stroke-width:2" d="M122,75 l94,0 -35,-18 589,0 35,18 141,0 -94,-47 -824,0 94,47z" />
<path style="fill:#596d8c;stroke:#000;stroke-width:2" d="M145,440 l0,-283 -23,-12 0,-70 -94,-47 0,565 94,47 0,-212 23,12z" />
<path style="fill:#596d8c;stroke:#000;stroke-width:2" d="M805,640 l0,-565 -35,-18 0,566 35,17z" />
<path style="fill:#8ca0bf;stroke:#000;stroke-width:2" d="M970,440 l-825,0 0,-283 825,0 0,283z" />
<path style="fill:#405473;stroke:#000;stroke-width:2" d="M770,623 l0,-183 -554,0 0,183 554,0z" />
<path style="fill:#bfd3f2;stroke:#000;stroke-width:2" d="M122,145 l94,0 0,-17 554,0 35,17 142,0 23,12 -825,0 -23,-12z" />
<path style="fill:#8ca0bf" d="M805,440 l-58,0 0,-283 58,0 0,283z" />
<path style="fill:#8ca0bf" d="M747,440 l-58,0 0,-283 58,0 0,283z" />
<path style="fill:#8ca0bf" d="M689,440 l-58,0 0,-283 58,0 0,283z" />
<path style="fill:#8ca0bf" d="M631,440 l-58,0 0,-283 58,0 0,283z" />
<path style="fill:#8ca0bf" d="M573,440 l-58,0 0,-283 58,0 0,283z" />
<path style="fill:#8ca0bf" d="M515,440 l-58,0 0,-283 58,0 0,283z" />
<path style="fill:#8ca0bf" d="M457,440 l-58,0 0,-283 58,0 0,283z" />
<path style="fill:#8ca0bf" d="M399,440 l-58,0 0,-283 58,0 0,283z" />
<path style="fill:#8ca0bf" d="M341,440 l-78,0 0,-283 78,0 0,283z" />
<path style="fill:#994c4c" d="M151,223 l0,-60 813,0 0,60 -813,0z" />
<path style="fill:none;stroke:#bfd3f2;stroke-width:2" d="M952,422 l0,-188 -105,0" />
<path style="fill:none;stroke:#bfd3f2;stroke-width:2" d="M841,228 l0,200 117,0" />
<path style="fill:none;stroke:#bfd3f2;stroke-width:2" d="M275,228 l0,200 518,0" />
<path style="fill:none;stroke:#bfd3f2;stroke-width:2" d="M788,422 l0,-188 -507,0" />
<path style="fill:none;stroke:#263a59;stroke-width:2" d="M958,428 l0,-200 -117,0" />
<path style="fill:none;stroke:#263a59;stroke-width:2" d="M847,234 l0,188 105,0" />
<path style="fill:none;stroke:#263a59;stroke-width:2" d="M793,428 l0,-200 -518,0" />
<path style="fill:none;stroke:#263a59;stroke-width:2" d="M281,234 l0,188 507,0" />
<path style="fill:none;stroke:#000;stroke-width:2" d="M699,440 l0,183" />
<path style="fill:none;stroke:#000;stroke-width:2" d="M629,440 l0,183" />
<path style="fill:none;stroke:#000;stroke-width:2" d="M559,440 l0,183" />
<path style="fill:none;stroke:#000;stroke-width:2" d="M488,440 l0,183" />
<path style="fill:none;stroke:#000;stroke-width:2" d="M416,440 l0,183" />
<path style="fill:none;stroke:#000;stroke-width:2" d="M346,440 l0,183" />
<path style="fill:none;stroke:#000;stroke-width:2" d="M276,440 l0,183" />
<path style="fill:#263a59" d="M811,487 l-6,0 0,106 6,0 0,-106z" />
<path style="fill:#b2b2b2" d="M70,328 l0,-137 -25,-12 0,137 25,12z" />
<path style="fill:#4c4c4c" d="M70,317 l0,-126 -19,-10 0,126 19,10z" />
<path style="fill:none;stroke:#000;stroke-width:2" d="M70,328 l0,-137 -25,-12 0,137 25,12" />
<path style="fill:#000" d="M263,440 l-23,0 0,-283 -24,-12 0,-11 47,23 0,283z" />
<path style="fill:#000" d="M829,440 l-24,0 0,-283 -59,-29 24,0 59,29 0,283z" />
<path style="fill:#e5e5cc" d="M776,252 l-17,0 0,23 17,0 0,-23z" />
<path style="fill:#e5e5cc" d="M743,252 l-17,0 0,23 17,0 0,-23z" />
<path style="fill:#e5e5cc" d="M709,252 l-17,0 0,23 17,0 0,-23z" />
<path style="fill:#e5e5cc" d="M676,252 l-16,0 0,23 16,0 0,-23z" />
<path style="fill:#e5e5cc" d="M643,252 l-17,0 0,23 17,0 0,-23z" />
<path style="fill:#e5e5cc" d="M609,252 l-16,0 0,23 16,0 0,-23z" />
<path style="fill:#e5e5cc" d="M576,252 l-17,0 0,23 17,0 0,-23z" />
<path style="fill:#e5e5cc" d="M543,252 l-17,0 0,23 17,0 0,-23z" />
<path style="fill:#e5e5cc" d="M509,252 l-16,0 0,23 16,0 0,-23z" />
<path style="fill:#e5e5cc" d="M476,252 l-16,0 0,23 16,0 0,-23z" />
<path style="fill:#e5e5cc" d="M443,252 l-17,0 0,23 17,0 0,-23z" />
<path style="fill:#e5e5cc" d="M410,252 l-17,0 0,23 17,0 0,-23z" />
<path style="fill:#e5e5cc" d="M376,252 l-16,0 0,23 16,0 0,-23z" />
<path style="fill:#e5e5cc" d="M343,252 l-17,0 0,23 17,0 0,-23z" />
<path style="fill:#e5e5cc" d="M309,252 l-16,0 0,23 16,0 0,-23z" />
<path style="fill:#596d8c;stroke:#000;stroke-width:2" d="M364,157 l-60,-29 0,-18 60,30 0,17z" />
<path style="fill:#596d8c;stroke:#000;stroke-width:2" d="M429,157 l-60,-29 0,-18 60,30 0,17z" />
<path style="fill:#596d8c;stroke:#000;stroke-width:2" d="M493,157 l-59,-29 0,-18 59,30 0,17z" />
<path style="fill:#596d8c;stroke:#000;stroke-width:2" d="M558,157 l-59,-29 0,-18 59,30 0,17z" />
<path style="fill:#596d8c;stroke:#000;stroke-width:2" d="M623,157 l-59,-29 0,-18 59,30 0,17z" />
<path style="fill:#596d8c;stroke:#000;stroke-width:2" d="M688,157 l-59,-29 0,-18 59,30 0,17z" />
<path style="fill:#bfd3f2;stroke:#000;stroke-width:2" d="M399,140 l-59,-30 -36,0 59,30 36,0z" />
<path style="fill:#bfd3f2;stroke:#000;stroke-width:2" d="M464,140 l-60,-30 -35,0 59,30 36,0z" />
<path style="fill:#bfd3f2;stroke:#000;stroke-width:2" d="M528,140 l-59,-30 -35,0 59,30 35,0z" />
<path style="fill:#bfd3f2;stroke:#000;stroke-width:2" d="M593,140 l-59,-30 -35,0 59,30 35,0z" />
<path style="fill:#bfd3f2;stroke:#000;stroke-width:2" d="M658,140 l-59,-30 -35,0 59,30 35,0z" />
<path style="fill:#bfd3f2;stroke:#000;stroke-width:2" d="M723,140 l-59,-30 -35,0 58,30 36,0z" />
<path style="fill:#8ca0bf;stroke:#000;stroke-width:2" d="M399,157 l0,-17 -35,0 0,17 35,0z" />
<path style="fill:#8ca0bf;stroke:#000;stroke-width:2" d="M464,157 l0,-17 -35,0 0,17 35,0z" />
<path style="fill:#8ca0bf;stroke:#000;stroke-width:2" d="M528,157 l0,-17 -35,0 0,17 35,0z" />
<path style="fill:#8ca0bf;stroke:#000;stroke-width:2" d="M593,157 l0,-17 -35,0 0,17 35,0z" />
<path style="fill:#8ca0bf;stroke:#000;stroke-width:2" d="M658,157 l0,-17 -35,0 0,17 35,0z" />
<path style="fill:#8ca0bf;stroke:#000;stroke-width:2" d="M723,157 l0,-17 -35,0 0,17 35,0z" />

</svg>
