 

<svg xmlns:agg="http://www.example.com" xmlns="http://www.w3.org/2000/svg" preserveAspectRatio="none" width="0.8501in" height="1.0750in" viewBox="0 0 790 999">

<path style="fill:#4c4c4c;stroke:#000;stroke-width:2" d="M568,900 l-349,0 0,70 349,0 0,-70z" />
<path style="fill:#666" d="M621,360 l-453,0 0,384 453,0 0,-384z" />
<path style="fill:#7f7f7f" d="M621,392 l-453,0 0,319 453,0 0,-319z" />
<path style="fill:#999" d="M621,455 l-453,0 0,194 453,0 0,-194z" />
<path style="fill:#b2b2b2" d="M621,530 l-453,0 0,43 453,0 0,-43z" />
<path style="fill:none;stroke:#000;stroke-width:2" d="M621,360 l-453,0 0,384 453,0 0,-384" />
<path style="fill:#7f7f7f" d="M568,236 l-349,0 0,629 349,0 0,-629z" />
<path style="fill:#999" d="M568,289 l-349,0 0,526 349,0 0,-526z" />
<path style="fill:#b2b2b2" d="M568,395 l-349,0 0,314 349,0 0,-314z" />
<path style="fill:#ccc" d="M568,518 l-349,0 0,68 349,0 0,-68z" />
<path style="fill:none;stroke:#000;stroke-width:2" d="M568,236 l-349,0 0,629 349,0 0,-629" />
<path style="fill:#404040" d="M762,254 l-141,0 0,596 141,0 0,-596z" />
<path style="fill:#5e5e5e" d="M762,304 l-141,0 0,495 141,0 0,-495z" />
<path style="fill:#7f7f7f" d="M762,402 l-141,0 0,299 141,0 0,-299z" />
<path style="fill:#999" d="M762,518 l-141,0 0,68 141,0 0,-68z" />
<path style="fill:none;stroke:#000;stroke-width:2" d="M762,254 l-141,0 0,596 141,0 0,-596" />
<path style="fill:#404040" d="M168,254 l-140,0 0,596 140,0 0,-596z" />
<path style="fill:#5e5e5e" d="M168,304 l-140,0 0,495 140,0 0,-495z" />
<path style="fill:#7f7f7f" d="M168,402 l-140,0 0,299 140,0 0,-299z" />
<path style="fill:#999" d="M168,518 l-140,0 0,68 140,0 0,-68z" />
<path style="fill:none;stroke:#000;stroke-width:2" d="M168,254 l-140,0 0,596 140,0 0,-596" />
<path style="fill:#999;stroke:#000;stroke-width:2" d="M518,168 l-246,0 0,174 246,0 0,-174z" />
<path style="fill:#333;stroke:#000;stroke-width:2" d="M500,307 l-211,0 0,17 211,0 0,-17z" />
<path style="fill:#333;stroke:#000;stroke-width:2" d="M500,272 l-211,0 0,17 211,0 0,-17z" />
<path style="fill:#333;stroke:#000;stroke-width:2" d="M500,236 l-211,0 0,18 211,0 0,-18z" />
<path style="fill:#666;stroke:#000;stroke-width:2" d="M272,935 l246,0 0,-173 -246,0 0,173z" />
<path style="fill:#000;stroke:#000;stroke-width:2" d="M289,797 l211,0 0,-18 -211,0 0,18z" />
<path style="fill:#000;stroke:#000;stroke-width:2" d="M289,830 l211,0 0,-15 -211,0 0,15z" />
<path style="fill:#000;stroke:#000;stroke-width:2" d="M289,865 l211,0 0,-18 -211,0 0,18z" />
<path style="fill:#666;stroke:#000;stroke-width:2" d="M586,533 l-385,0 0,35 385,0 0,-35z" />
<path style="fill:#7f7f7f;stroke:#000;stroke-width:2" d="M483,63 l-176,0 0,105 176,0 0,-105z" />
<path style="fill:#e5e5e5;stroke:#000;stroke-width:2" d="M483,63 l-18,-35 -141,0 -17,35 176,0z" />
<path style="fill:#e5e5e5;stroke:#000;stroke-width:2" d="M465,183 l-141,0 0,36 141,0 0,-36z" />

</svg>
