 

<svg xmlns:agg="http://www.example.com" xmlns="http://www.w3.org/2000/svg" preserveAspectRatio="none" width="1.5497in" height="1.0750in" viewBox="0 0 999 693">

<path style="fill:#e5e5ff;stroke:#000;stroke-width:2" d="M28,571 l24,22 752,0 25,-22 0,-519 -25,-24 -752,0 -24,24 0,519z" />
<path style="fill:#66f;stroke:#000;stroke-width:2" d="M98,476 l24,23 496,0 0,47 258,0 0,-22 -236,0 0,-25 95,0 24,-23 0,-213 -660,0 -1,213z" />
<path style="fill:#ff0;stroke:#000;stroke-width:2" d="M98,263 l661,0 0,-117 -24,-24 -95,0 0,-23 236,0 0,-24 -258,0 0,47 -496,0 -24,24 0,117z" />
<path style="fill:#fff;stroke:#000;stroke-width:2" d="M853,571 l117,0 0,94 -117,0 0,-94z" />
<path style="fill:#fff;stroke:#000;stroke-width:2" d="M876,571 l72,0 0,-543 -72,0 0,543z" />
<path style="fill:#f00" d="M900,546 l0,-258 23,0 0,258 -23,0z" />
<path style="fill:none;stroke:#000;stroke-width:2" d="M900,546 l23,0" />
<path style="fill:none;stroke:#000;stroke-width:2" d="M900,524 l23,0" />
<path style="fill:none;stroke:#000;stroke-width:2" d="M900,499 l23,0" />
<path style="fill:none;stroke:#000;stroke-width:2" d="M900,476 l23,0" />
<path style="fill:none;stroke:#000;stroke-width:2" d="M900,454 l23,0" />
<path style="fill:none;stroke:#000;stroke-width:2" d="M900,429 l23,0" />
<path style="fill:none;stroke:#000;stroke-width:2" d="M900,407 l23,0" />
<path style="fill:none;stroke:#000;stroke-width:2" d="M900,382 l23,0" />
<path style="fill:none;stroke:#000;stroke-width:2" d="M900,359 l23,0" />
<path style="fill:none;stroke:#000;stroke-width:2" d="M900,335 l23,0" />
<path style="fill:none;stroke:#000;stroke-width:2" d="M900,312 l23,0" />
<path style="fill:none;stroke:#000;stroke-width:2" d="M900,288 l23,0" />
<path style="fill:none;stroke:#000;stroke-width:2" d="M900,265 l23,0" />
<path style="fill:none;stroke:#000;stroke-width:2" d="M900,241 l23,0" />
<path style="fill:none;stroke:#000;stroke-width:2" d="M900,218 l23,0" />
<path style="fill:none;stroke:#000;stroke-width:2" d="M900,194 l23,0" />
<path style="fill:none;stroke:#000;stroke-width:2" d="M900,171 l23,0" />
<path style="fill:none;stroke:#000;stroke-width:2" d="M900,146 l23,0" />
<path style="fill:none;stroke:#000;stroke-width:2" d="M900,124 l23,0" />
<path style="fill:none;stroke:#000;stroke-width:2" d="M900,99 l23,0" />
<path style="fill:none;stroke:#000;stroke-width:2" d="M900,77 l23,0" />
<path style="fill:none;stroke:#000;stroke-width:2" d="M900,52 l23,0" />

</svg>
