 

<svg xmlns:agg="http://www.example.com" xmlns="http://www.w3.org/2000/svg" preserveAspectRatio="none" width="1.6083in" height="1.0513in" viewBox="0 0 999 653">

<path style="fill:#000;stroke:#000;stroke-width:2" d="M74,121 l896,0 0,411 -896,0 0,-411z" />
<path style="fill:#ccc;stroke:#000;stroke-width:2" d="M74,65 l896,0 0,56 -896,0 0,-56z" />
<path style="fill:#ccc;stroke:#000;stroke-width:2" d="M74,532 l896,0 0,55 -896,0 0,-55z" />
<path style="fill:#ccc;stroke:#000;stroke-width:2" d="M149,28 l747,0 0,37 -747,0 0,-37z" />
<path style="fill:#ccc;stroke:#000;stroke-width:2" d="M149,588 l747,0 0,37 -747,0 0,-37z" />
<path style="fill:#7f7f7f" d="M79,70 l107,0 0,47 -107,0 0,-47z" />
<path style="fill:#7f7f7f" d="M153,32 l108,0 0,28 -108,0 0,-28z" />
<path style="fill:#7f7f7f" d="M79,536 l107,0 0,47 -107,0 0,-47z" />
<path style="fill:#7f7f7f" d="M153,593 l108,0 0,27 -108,0 0,-27z" />
<path style="fill:#7f7f7f" d="M840,583 l-108,0 0,-47 108,0 0,47z" />
<path style="fill:#7f7f7f" d="M798,620 l-108,0 0,-27 108,0 0,27z" />
<path style="fill:#7f7f7f" d="M840,117 l-108,0 0,-47 108,0 0,47z" />
<path style="fill:#7f7f7f" d="M798,60 l-108,0 0,-28 108,0 0,28z" />
<path style="fill:#fff" d="M760,583 l-107,0 0,-47 107,0 0,47z" />
<path style="fill:#fff" d="M718,620 l-107,0 0,-27 107,0 0,27z" />
<path style="fill:#fff" d="M760,117 l-107,0 0,-47 107,0 0,47z" />
<path style="fill:#fff" d="M718,60 l-107,0 0,-28 107,0 0,28z" />
<path style="fill:#fff" d="M634,289 l0,-140 299,0 0,135 -299,5z" />
<path style="fill:none;stroke:#000;stroke-width:2" d="M648,214 l276,0 0,61 -276,4 0,-65" />
<path style="fill:none;stroke:#000;stroke-width:2" d="M648,247 l276,0" />
<path style="fill:none;stroke:#000;stroke-width:2" d="M788,275 l0,-61" />
<circle style="fill:#7f7f7f" cx="522" cy="214" r="37" />
<circle style="fill:#191919" cx="522" cy="214" r="18" />
<path style="fill:#000" d="M545,215 l0,-5 -2,-4 -2,-4 -3,-4 -3,-2 -4,-3 -4,-1 -5,0 0,8 3,0 3,1 2,1 2,2 2,3 1,2 1,3 1,3z" />
<path style="fill:#000" d="M522,237 l5,0 4,-1 4,-3 3,-2 3,-4 2,-3 2,-5 0,-4 -8,0 -1,2 -1,3 -1,3 -2,2 -2,1 -2,2 -3,1 -3,0z" />
<path style="fill:#000" d="M500,215 l0,4 1,5 2,3 3,4 3,2 4,3 5,1 4,0 0,-8 -2,0 -3,-1 -3,-2 -2,-1 -1,-2 -2,-3 -1,-3 0,-2z" />
<path style="fill:#000" d="M522,192 l-4,0 -5,1 -4,3 -3,2 -3,4 -2,4 -1,4 0,5 8,0 0,-3 1,-3 2,-2 1,-3 2,-2 3,-1 3,-1 2,0z" />
<ellipse style="fill:#e5e5e5;stroke:#000;stroke-width:2" cx="102" cy="364" rx="28" ry="56" />
<path style="fill:#e5e5e5;stroke:#000;stroke-width:2" d="M102,401 l-56,0 -10,-6 -5,-10 -3,-14 0,-7 1,-15 4,-12 6,-8 7,-3 56,0 10,7 6,10 2,13 1,8 -2,14 -4,12 -6,8 -7,3z" />
<path style="fill:none;stroke:#000;stroke-width:2" d="M46,326 l4,1 4,2 3,4 3,4 2,6 1,6 2,7 0,8 0,7 -2,7 -1,6 -2,6 -3,4 -3,4 -4,2 -4,1" />
<ellipse style="fill:#000;stroke:#000;stroke-width:2" cx="46" cy="364" rx="14" ry="28" />
<path style="fill:#7f7f7f" d="M93,401 l-38,0 3,0 2,-1 2,-2 2,-2 2,-2 2,-3 1,-4 1,-4 37,-1 -1,5 -1,3 -2,3 -2,3 -1,2 -3,2 -2,1 -2,0z" />
<path style="fill:#7f7f7f" d="M93,326 l-38,0 3,1 2,1 2,1 2,2 2,3 2,3 1,4 1,4 37,0 -1,-4 -1,-4 -2,-3 -2,-3 -1,-2 -3,-1 -2,-1 -2,-1z" />

</svg>
