 

<svg xmlns:agg="http://www.example.com" xmlns="http://www.w3.org/2000/svg" preserveAspectRatio="none" width="1.6083in" height="0.8484in" viewBox="0 0 999 527">

<path style="fill:#063" d="M970,28 l-942,0 0,471 942,0 0,-471z" />
<path style="fill:#b2b2b2" d="M107,67 l-40,0 0,117 40,0 0,-117z" />
<path style="fill:#b2b2b2" d="M165,67 l-39,0 0,117 39,0 0,-117z" />
<path style="fill:#b2b2b2" d="M224,67 l-40,0 0,117 40,0 0,-117z" />
<path style="fill:#b2b2b2" d="M282,67 l-38,0 0,117 38,0 0,-117z" />
<path style="fill:#fff" d="M107,165 l-40,-58 0,-21 40,59 0,20z" />
<path style="fill:#fff" d="M165,165 l-39,-58 0,-21 39,59 0,20z" />
<path style="fill:#fff" d="M224,165 l-40,-58 0,-21 40,59 0,20z" />
<path style="fill:#fff" d="M282,165 l-38,-58 0,-21 38,59 0,20z" />
<path style="fill:none;stroke:#000;stroke-width:2" d="M282,184 l-38,0 0,-117" />
<path style="fill:none;stroke:#000;stroke-width:2" d="M224,184 l-40,0 0,-117" />
<path style="fill:none;stroke:#000;stroke-width:2" d="M165,184 l-39,0 0,-117" />
<path style="fill:none;stroke:#000;stroke-width:2" d="M107,184 l-40,0 0,-117" />
<path style="fill:#000" d="M224,342 l-77,0 0,117 77,0 0,-117z" />
<path style="fill:#000" d="M539,303 l-80,0 0,117 80,0 0,-117z" />
<path style="fill:#000" d="M618,145 l-79,0 0,118 79,0 0,-118z" />
<path style="fill:#000" d="M814,126 l58,0 0,-80 80,0 0,119 -138,0 0,-39z" />
<path style="fill:#000" d="M912,263 l-79,0 0,117 79,0 0,-117z" />
<path style="fill:none;stroke:#000;stroke-width:2" d="M970,499 l-942,0 0,-471" />
<path style="fill:none;stroke:#9fc;stroke-width:2" d="M28,28 l942,0 0,471" />
<path style="fill:#fc0" d="M67,243 l-21,0 0,20 21,0 0,-20z" />
<path style="fill:#fc0" d="M67,282 l-21,0 0,21 21,0 0,-21z" />
<path style="fill:#fc0" d="M107,282 l-21,0 0,21 21,0 0,-21z" />
<path style="fill:#fc0" d="M107,243 l-21,0 0,20 21,0 0,-20z" />
<path style="fill:#fc0" d="M361,282 l-19,0 0,21 19,0 0,-21z" />
<path style="fill:#fc0" d="M361,243 l-19,0 0,20 19,0 0,-20z" />
<path style="fill:#fc0" d="M401,243 l-19,0 0,20 19,0 0,-20z" />
<path style="fill:#fc0" d="M401,282 l-19,0 0,21 19,0 0,-21z" />
<path style="fill:#fc0" d="M656,420 l-19,0 0,21 19,0 0,-21z" />
<path style="fill:#fc0" d="M695,380 l-19,0 0,21 19,0 0,-21z" />
<path style="fill:#fc0" d="M656,342 l-19,0 0,19 19,0 0,-19z" />
<path style="fill:#fc0" d="M656,459 l-19,0 0,19 19,0 0,-19z" />
<path style="fill:#fc0" d="M695,459 l-19,0 0,19 19,0 0,-19z" />
<path style="fill:#fc0" d="M695,420 l-19,0 0,21 19,0 0,-21z" />
<path style="fill:#fc0" d="M656,380 l-19,0 0,21 19,0 0,-21z" />
<path style="fill:#fc0" d="M695,342 l-19,0 0,19 19,0 0,-19z" />
<path style="fill:#fc0" d="M578,80 l-256,0 0,17 256,0 0,-17z" />
<path style="fill:#fc0" d="M578,46 l-256,0 0,17 256,0 0,-17z" />
<path style="fill:#fc0" d="M499,114 l-177,0 0,17 177,0 0,-17z" />
<path style="fill:#fc0" d="M499,148 l-177,0 0,17 177,0 0,-17z" />
<path style="fill:none;stroke:#9fc;stroke-width:2" d="M695,478 l257,0 0,-313" />
<path style="fill:none;stroke:#9fc;stroke-width:2" d="M107,263 l156,0 0,-79" />
<path style="fill:none;stroke:#9fc;stroke-width:2" d="M342,243 l0,-38" />
<path style="fill:none;stroke:#9fc;stroke-width:2" d="M539,205 l-236,0 0,-138 19,0" />
<path style="fill:none;stroke:#9fc;stroke-width:2" d="M578,67 l157,0 0,196 -117,0" />
<path style="fill:none;stroke:#b2b2b2;stroke-width:2" d="M695,361 l138,0" />
<path style="fill:none;stroke:#b2b2b2;stroke-width:2" d="M695,401 l236,0 0,-236" />
<path style="fill:none;stroke:#b2b2b2;stroke-width:2" d="M401,303 l0,156 138,0 0,-39" />
<path style="fill:none;stroke:#b2b2b2;stroke-width:2" d="M46,303 l0,19 138,0 0,-79 21,0 0,-59" />
<path style="fill:#b2b2b2" d="M814,205 l-21,0 0,58 21,0 0,-58z" />
<path style="fill:#b2b2b2" d="M814,342 l0,-20 -60,0 0,20 60,0z" />
<path style="fill:#b2b2b2" d="M774,205 l-20,0 0,58 20,0 0,-58z" />
<path style="fill:#b2b2b2" d="M814,303 l0,-21 -60,0 0,21 60,0z" />
<path style="fill:none;stroke:#033;stroke-width:2" d="M107,303 l40,0 0,-119" />
<path style="fill:none;stroke:#033;stroke-width:2" d="M342,282 l-137,0 0,60" />
<path style="fill:none;stroke:#033;stroke-width:2" d="M401,263 l79,0 0,-39 59,0" />
<path style="fill:none;stroke:#033;stroke-width:2" d="M361,303 l0,138 157,0 0,-21" />
<path style="fill:none;stroke:#033;stroke-width:2" d="M695,441 l196,0 0,-61" />
<path style="fill:none;stroke:#033;stroke-width:2" d="M499,126 l315,0" />
<path style="fill:none;stroke:#033;stroke-width:2" d="M578,107 l138,0 0,77 196,0 0,-19" />
<path style="fill:none;stroke:#7f7f7f;stroke-width:2" d="M539,361 l-80,0" />
<path style="fill:none;stroke:#7f7f7f;stroke-width:2" d="M618,205 l-79,0" />
<path style="fill:#ccc" d="M618,303 l-40,0 0,39 40,0 0,-39z" />
<path style="fill:#ccc" d="M618,361 l-40,0 0,40 40,0 0,-40z" />
<path style="fill:none;stroke:#b2b2b2;stroke-width:2" d="M342,439 l-39,0" />
<path style="fill:none;stroke:#b2b2b2;stroke-width:2" d="M282,439 l-38,0" />
<path style="fill:none;stroke:#b2b2b2;stroke-width:2" d="M342,420 l-39,0" />
<path style="fill:none;stroke:#b2b2b2;stroke-width:2" d="M282,420 l-38,0" />
<path style="fill:none;stroke:#b2b2b2;stroke-width:2" d="M342,401 l-39,0" />
<path style="fill:none;stroke:#b2b2b2;stroke-width:2" d="M282,401 l-38,0" />
<path style="fill:none;stroke:#b2b2b2;stroke-width:2" d="M342,380 l-39,0" />
<path style="fill:none;stroke:#b2b2b2;stroke-width:2" d="M282,380 l-38,0" />
<path style="fill:none;stroke:#b2b2b2;stroke-width:2" d="M342,361 l-39,0" />
<path style="fill:none;stroke:#b2b2b2;stroke-width:2" d="M282,361 l-38,0" />
<path style="fill:none;stroke:#b2b2b2;stroke-width:2" d="M342,342 l-39,0" />
<path style="fill:none;stroke:#b2b2b2;stroke-width:2" d="M282,342 l-38,0" />
<path style="fill:none;stroke:#b2b2b2;stroke-width:2" d="M342,322 l-39,0" />
<path style="fill:none;stroke:#b2b2b2;stroke-width:2" d="M282,322 l-38,0" />
<path style="fill:none;stroke:#b2b2b2;stroke-width:2" d="M342,303 l-39,0" />
<path style="fill:none;stroke:#b2b2b2;stroke-width:2" d="M282,303 l-38,0" />

</svg>
