 

<svg xmlns:agg="http://www.example.com" xmlns="http://www.w3.org/2000/svg" preserveAspectRatio="none" width="1.6083in" height="0.8654in" viewBox="0 0 998 537">

<path style="fill:#666;stroke:#000;stroke-width:2" d="M823,37 l10,0 0,451 -10,0 0,-451z" />
<path style="fill:#666" d="M146,37 l-3,0 -4,0 -4,0 -32,1 -29,4 -26,8 -19,20 -1,3 0,4 0,12 0,380 13,23 27,11 28,4 30,1 4,0 4,0 601,0 0,-20 29,-1 30,-3 19,-12 1,-3 0,-12 0,-380 -25,-19 -32,-2 -22,0 0,-19 -589,0z" />
<path style="fill:#7f7f7f" d="M146,67 l-3,0 -4,0 -4,0 -32,1 -29,3 -26,7 -20,20 0,3 0,11 0,332 16,22 28,8 29,3 25,1 4,0 4,0 601,0 0,-17 29,0 30,-3 19,-11 1,-3 0,-10 0,-333 -25,-15 -32,-2 -22,0 0,-17 -589,0z" />
<path style="fill:#999" d="M146,150 l-3,0 -4,0 -4,0 -32,1 -29,2 -30,5 -16,11 0,2 0,6 0,198 23,14 31,5 29,1 10,0 5,0 4,0 605,0 0,-9 29,0 30,-2 19,-7 1,-2 0,-7 0,-197 -1,-2 -24,-8 -32,-1 -22,0 0,-10 -589,0z" />
<path style="fill:#b2b2b2" d="M146,228 l-3,0 -4,0 -4,0 -32,0 -29,1 -30,1 -16,4 0,1 0,5 0,70 0,1 27,4 32,1 24,0 5,0 5,0 614,0 0,-2 29,0 30,0 19,-3 1,-1 0,-4 0,-71 -1,-1 -30,-2 -34,-1 -14,0 0,-3 -589,0z" />
<path style="fill:none;stroke:#000;stroke-width:2" d="M146,37 l-3,0 -4,0 -4,0 -32,1 -29,4 -26,8 -19,20 -1,3 0,4 0,12 0,380 13,23 27,11 28,4 30,1 4,0 4,0 601,0 0,-20 29,-1 30,-3 19,-12 1,-3 0,-12 0,-380 -25,-19 -32,-2 -22,0 0,-19 -589,0" />
<path style="fill:none;stroke:#000;stroke-width:2" d="M146,508 l0,-471" />
<path style="fill:none;stroke:#000;stroke-width:2" d="M735,56 l0,432" />
<path style="fill:#7f7f7f" d="M814,252 l156,0 0,40 -156,0 0,-40z" />
<path style="fill:#b2b2b2" d="M814,260 l156,0 0,26 -156,0 0,-26z" />
<path style="fill:#fff" d="M814,267 l156,0 0,11 -156,0 0,-11z" />
<path style="fill:none;stroke:#000;stroke-width:2" d="M814,252 l156,0 0,40 -156,0 0,-40" />
<path style="fill:#4c4c4c;stroke:#000;stroke-width:2" d="M146,96 l589,0 0,18 -589,0 0,-18z" />
<path style="fill:#4c4c4c;stroke:#000;stroke-width:2" d="M146,135 l589,0 0,19 -589,0 0,-19z" />
<path style="fill:#4c4c4c;stroke:#000;stroke-width:2" d="M146,175 l589,0 0,19 -589,0 0,-19z" />
<path style="fill:#4c4c4c;stroke:#000;stroke-width:2" d="M146,214 l589,0 0,19 -589,0 0,-19z" />
<path style="fill:#4c4c4c;stroke:#000;stroke-width:2" d="M146,252 l589,0 0,21 -589,0 0,-21z" />
<path style="fill:#4c4c4c;stroke:#000;stroke-width:2" d="M146,292 l589,0 0,20 -589,0 0,-20z" />
<path style="fill:#4c4c4c;stroke:#000;stroke-width:2" d="M146,331 l589,0 0,19 -589,0 0,-19z" />
<path style="fill:#4c4c4c;stroke:#000;stroke-width:2" d="M146,371 l589,0 0,19 -589,0 0,-19z" />
<path style="fill:#4c4c4c;stroke:#000;stroke-width:2" d="M146,410 l589,0 0,19 -589,0 0,-19z" />
<path style="fill:#999;stroke:#000;stroke-width:2" d="M420,233 l296,0 0,275 -296,0 0,-275z" />
<path style="fill:#b2b2b2;stroke:#000;stroke-width:2" d="M450,263 l236,0 0,215 -236,0 0,-215z" />
<path style="fill:none;stroke:#fff;stroke-width:2" d="M450,478 l0,-215 236,0" />
<path style="fill:#b2b2b2;stroke:#000;stroke-width:2" d="M184,96 l60,0 0,-59 -60,0 0,59z" />
<circle style="fill:#333;stroke:#000;stroke-width:2" cx="214" cy="66" r="19" />
<path style="fill:#999;stroke:#000;stroke-width:2" d="M263,28 l453,0 0,49 -453,0 0,-49z" />
<path style="fill:#4c4c4c;stroke:#000;stroke-width:2" d="M146,401 l-30,-11 0,-38 30,-21 0,70z" />

</svg>
