 

<svg xmlns:agg="http://www.example.com" xmlns="http://www.w3.org/2000/svg" preserveAspectRatio="none" width="1.6083in" height="0.6697in" viewBox="0 0 999 416">

<path style="fill:#4c7f7f" d="M970,192 l-196,0 0,37 196,0 0,-37z" />
<path style="fill:#699" d="M970,194 l-196,0 0,34 196,0 0,-34z" />
<path style="fill:#7fb2b2" d="M970,201 l-196,0 0,19 196,0 0,-19z" />
<path style="fill:#9cc" d="M970,209 l-196,0 0,3 196,0 0,-3z" />
<path style="fill:none;stroke:#000;stroke-width:2" d="M970,192 l-196,0 0,37 196,0 0,-37" />
<ellipse style="fill:#4c7f7f;stroke:#000;stroke-width:2" cx="666" cy="211" rx="150" ry="164" />
<ellipse style="fill:#699" cx="666" cy="211" rx="150" ry="132" />
<ellipse style="fill:#7fb2b2" cx="666" cy="211" rx="150" ry="76" />
<ellipse style="fill:#9cc" cx="666" cy="211" rx="150" ry="21" />
<path style="fill:#194c4c;stroke:#000;stroke-width:2" d="M228,43 l439,0 0,305 -439,0 0,-305z" />
<path style="fill:#9cc;stroke:#000;stroke-width:2" d="M69,28 l159,0 0,358 -159,0 0,-358z" />
<path style="fill:#7fb2b2;stroke:#000;stroke-width:2" d="M69,386 l-41,-40 0,-280 41,-38 0,358z" />
<path style="fill:#4c7f7f;stroke:#000;stroke-width:2" d="M228,343 l439,0 0,45 -439,0 0,-45z" />
<path style="fill:#7fb2b2;stroke:#000;stroke-width:2" d="M228,305 l458,0 0,11 -458,0 0,-11z" />
<path style="fill:#7fb2b2;stroke:#000;stroke-width:2" d="M228,275 l458,0 0,11 -458,0 0,-11z" />
<path style="fill:#7fb2b2;stroke:#000;stroke-width:2" d="M228,245 l458,0 0,11 -458,0 0,-11z" />
<path style="fill:#9cc;stroke:#000;stroke-width:2" d="M228,216 l458,0 0,10 -458,0 0,-10z" />
<path style="fill:#9cc;stroke:#000;stroke-width:2" d="M228,186 l458,0 0,9 -458,0 0,-9z" />
<path style="fill:#9cc;stroke:#000;stroke-width:2" d="M228,156 l458,0 0,11 -458,0 0,-11z" />
<path style="fill:#9cc;stroke:#000;stroke-width:2" d="M228,126 l458,0 0,11 -458,0 0,-11z" />
<path style="fill:#9cc;stroke:#000;stroke-width:2" d="M228,96 l458,0 0,11 -458,0 0,-11z" />
<path style="fill:#9cc;stroke:#000;stroke-width:2" d="M228,66 l458,0 0,11 -458,0 0,-11z" />
<path style="fill:#9cc;stroke:#000;stroke-width:2" d="M228,37 l458,0 0,10 -458,0 0,-10z" />
<path style="fill:#7fb2b2;stroke:#000;stroke-width:2" d="M228,335 l458,0 0,11 -458,0 0,-11z" />

</svg>
