 

<svg xmlns:agg="http://www.example.com" xmlns="http://www.w3.org/2000/svg" preserveAspectRatio="none" width="1.6083in" height="0.8484in" viewBox="0 0 999 527">

<path style="fill:#000;stroke:#000;stroke-width:2" d="M106,489 l589,0 0,10 -589,0 0,-10z" />
<path style="fill:#fff;stroke:#000;stroke-width:2" d="M813,263 l157,0 0,40 -157,0 0,-40z" />
<path style="fill:#000;stroke:#000;stroke-width:2" d="M106,67 l589,0 0,177 -589,0 0,-177z" />
<path style="fill:#7f7f7f;stroke:#000;stroke-width:2" d="M28,57 l78,0 0,40 -78,0 0,-40z" />
<path style="fill:#7f7f7f;stroke:#000;stroke-width:2" d="M106,244 l590,0 0,245 -590,0 0,-245z" />
<path style="fill:#e5e5e5;stroke:#000;stroke-width:2" d="M803,106 l10,0 0,354 -10,0 0,-354z" />
<path style="fill:#e5e5e5;stroke:#000;stroke-width:2" d="M420,263 l158,0 0,157 -158,0 0,-157z" />
<path style="fill:#000;stroke:#000;stroke-width:2" d="M116,254 l206,0 0,215 -206,0 0,-215z" />
<path style="fill:none;stroke:#7f7f7f;stroke-width:2" d="M106,224 l589,0" />
<path style="fill:none;stroke:#7f7f7f;stroke-width:2" d="M106,204 l589,0" />
<path style="fill:none;stroke:#7f7f7f;stroke-width:2" d="M106,185 l589,0" />
<path style="fill:none;stroke:#7f7f7f;stroke-width:2" d="M106,165 l589,0" />
<path style="fill:none;stroke:#7f7f7f;stroke-width:2" d="M106,146 l589,0" />
<path style="fill:none;stroke:#7f7f7f;stroke-width:2" d="M106,131 l589,0" />
<path style="fill:none;stroke:#7f7f7f;stroke-width:2" d="M106,116 l589,0" />
<path style="fill:none;stroke:#7f7f7f;stroke-width:2" d="M106,101 l589,0" />
<path style="fill:none;stroke:#7f7f7f;stroke-width:2" d="M106,92 l589,0" />
<path style="fill:none;stroke:#7f7f7f;stroke-width:2" d="M106,82 l589,0" />
<path style="fill:none;stroke:#7f7f7f;stroke-width:2" d="M106,72 l589,0" />
<path style="fill:#b2b2b2" d="M818,288 l147,0 0,10 -147,0 0,-10z" />
<path style="fill:#e5e5e5" d="M818,268 l147,0 0,5 -147,0 0,-5z" />
<path style="fill:#666;stroke:#000;stroke-width:2" d="M106,67 l10,0 0,-39 -10,0 0,39z" />
<path style="fill:#666;stroke:#000;stroke-width:2" d="M695,77 l89,0 0,412 -89,0 0,-412z" />
<path style="fill:#666;stroke:#000;stroke-width:2" d="M784,87 l19,0 0,393 -19,0 0,-393z" />
<path style="fill:#666;stroke:#000;stroke-width:2" d="M480,450 l215,0 0,49 -215,0 0,-49z" />
<path style="fill:#666;stroke:#000;stroke-width:2" d="M116,263 l206,0 0,197 -206,0 0,-197z" />
<path style="fill:#666;stroke:#000;stroke-width:2" d="M106,97 l-78,0 0,382 78,10 0,-392z" />
<path style="fill:#666;stroke:#000;stroke-width:2" d="M695,126 l10,0 0,-98 -10,0 0,98z" />

</svg>
