 

<svg xmlns:agg="http://www.example.com" xmlns="http://www.w3.org/2000/svg" preserveAspectRatio="none" width="1.1814in" height="1.0750in" viewBox="0 0 999 909">

<path style="fill:#999" d="M881,134 l-249,-71 -355,0 -249,71 0,569 249,72 355,0 249,-72 0,-569z" />
<path style="fill:#b2b2b2" d="M881,191 l-249,-57 -355,0 -249,57 0,456 249,56 355,0 249,-56 0,-456z" />
<path style="fill:#ccc" d="M881,277 l-249,-36 -355,0 -249,36 0,284 249,36 355,0 249,-36 0,-284z" />
<path style="fill:#e5e5e5" d="M881,355 l-249,-16 -355,0 -249,16 0,128 249,16 355,0 249,-16 0,-128z" />
<path style="fill:#999;stroke:#000;stroke-width:2" d="M54,703 l0,80 143,0 0,-17 -125,0 0,-63 -18,0z" />
<path style="fill:none;stroke:#000;stroke-width:2" d="M881,134 l-249,-71 -355,0 -249,71 0,569 249,72 355,0 249,-72 0,-569" />
<path style="fill:#999;stroke:#000;stroke-width:2" d="M152,81 l-36,0 0,676 36,0 0,-676z" />
<path style="fill:#999;stroke:#000;stroke-width:2" d="M277,28 l-36,0 0,827 36,0 0,-827z" />
<path style="fill:#999;stroke:#000;stroke-width:2" d="M375,28 l-36,0 0,178 36,0 0,-178z" />
<path style="fill:#999;stroke:#000;stroke-width:2" d="M472,28 l-35,0 0,178 35,0 0,-178z" />
<path style="fill:#999;stroke:#000;stroke-width:2" d="M570,28 l-35,0 0,178 35,0 0,-178z" />
<path style="fill:#999;stroke:#000;stroke-width:2" d="M668,28 l-36,0 0,827 36,0 0,-827z" />
<path style="fill:#999;stroke:#000;stroke-width:2" d="M792,81 l-35,0 0,676 35,0 0,-676z" />
<path style="fill:#7f7f7f;stroke:#000;stroke-width:2" d="M721,881 l0,-26 -89,0 0,26 89,0z" />
<path style="fill:#b2b2b2;stroke:#000;stroke-width:2" d="M712,739 l-44,0 0,116 44,0 0,-116z" />
<path style="fill:#7f7f7f;stroke:#000;stroke-width:2" d="M188,881 l0,-26 89,0 0,26 -89,0z" />
<path style="fill:#b2b2b2;stroke:#000;stroke-width:2" d="M197,739 l44,0 0,116 -44,0 0,-116z" />
<path style="fill:none;stroke:#000;stroke-width:2" d="M650,739 l0,-711" />
<path style="fill:none;stroke:#000;stroke-width:2" d="M259,28 l0,711" />
<path style="fill:#b2b2b2;stroke:#000;stroke-width:2" d="M632,206 l-355,0 0,586 355,0 0,-586z" />
<path style="fill:none;stroke:#fff;stroke-width:2" d="M597,241 l-285,0" />
<circle style="fill:#bfbfbf;stroke:#000;stroke-width:2" cx="454" cy="490" r="213" />
<circle style="fill:#4c4c4c;stroke:#000;stroke-width:2" cx="454" cy="490" r="124" />
<path style="fill:#000;stroke:#000;stroke-width:2" d="M353,333 l9,15 16,-8 -9,-16 -16,9z" />
<path style="fill:#000;stroke:#000;stroke-width:2" d="M494,307 l-5,18 18,4 4,-17 -17,-5z" />
<path style="fill:#000;stroke:#000;stroke-width:2" d="M612,389 l-16,9 9,15 16,-9 -9,-15z" />
<path style="fill:#000;stroke:#000;stroke-width:2" d="M637,530 l-17,-5 -5,17 18,5 4,-17z" />
<path style="fill:#000;stroke:#000;stroke-width:2" d="M272,450 l17,5 5,-17 -18,-5 -4,17z" />
<path style="fill:#000;stroke:#000;stroke-width:2" d="M297,591 l16,-9 -9,-15 -16,9 9,15z" />
<path style="fill:#000;stroke:#000;stroke-width:2" d="M415,673 l4,-18 -17,-4 -4,17 17,5z" />
<path style="fill:#000;stroke:#000;stroke-width:2" d="M556,647 l-9,-16 -16,10 9,15 16,-9z" />
<path style="fill:none;stroke:#7f7f7f;stroke-width:2" d="M597,757 l-285,0" />
<path style="fill:#bfbfbf" d="M99,188 l-54,0 0,44 54,0 0,-44z" />
<path style="fill:#bfbfbf" d="M99,330 l-54,0 0,45 54,0 0,-45z" />
<path style="fill:#bfbfbf" d="M99,472 l-54,0 0,45 54,0 0,-45z" />
<path style="fill:#bfbfbf" d="M99,614 l-54,0 0,45 54,0 0,-45z" />
<path style="fill:#bfbfbf" d="M863,614 l-53,0 0,45 53,0 0,-45z" />
<path style="fill:#bfbfbf" d="M863,472 l-53,0 0,45 53,0 0,-45z" />
<path style="fill:#bfbfbf" d="M863,330 l-53,0 0,45 53,0 0,-45z" />
<path style="fill:#bfbfbf" d="M863,188 l-53,0 0,44 53,0 0,-44z" />
<path style="fill:none;stroke:#000;stroke-width:2" d="M810,188 l53,0 0,44" />
<path style="fill:none;stroke:#000;stroke-width:2" d="M810,330 l53,0 0,44" />
<path style="fill:none;stroke:#000;stroke-width:2" d="M810,472 l53,0 0,44" />
<path style="fill:none;stroke:#000;stroke-width:2" d="M810,614 l53,0 0,45" />
<path style="fill:none;stroke:#000;stroke-width:2" d="M45,188 l54,0 0,44" />
<path style="fill:none;stroke:#000;stroke-width:2" d="M45,330 l54,0 0,44" />
<path style="fill:none;stroke:#000;stroke-width:2" d="M45,472 l54,0 0,44" />
<path style="fill:none;stroke:#000;stroke-width:2" d="M45,614 l54,0 0,45" />
<path style="fill:#999;stroke:#000;stroke-width:2" d="M231,705 l0,-25 -22,-12 -21,12 0,25 21,13 22,-13z" />
<path style="fill:#999;stroke:#000;stroke-width:2" d="M720,705 l0,-25 -22,-12 -21,12 0,25 21,13 22,-13z" />
<path style="fill:#8c8c8c;stroke:#000;stroke-width:2" d="M917,695 l-196,0 0,186 196,0 0,-186z" />
<path style="fill:#b2b2b2;stroke:#000;stroke-width:2" d="M917,739 l18,0 0,-551 -54,0 0,-36 89,0 0,623 -53,0 0,-36z" />
<path style="fill:none;stroke:#fff;stroke-width:2" d="M890,855 l0,-134 -142,0" />

</svg>
