 

<svg xmlns:agg="http://www.example.com" xmlns="http://www.w3.org/2000/svg" preserveAspectRatio="none" width="1.1827in" height="1.0750in" viewBox="0 0 999 908">

<path style="fill:#666" d="M970,89 l0,34 -179,0 0,-34 179,0z" />
<path style="fill:#666" d="M970,807 l0,34 -179,0 0,-34 179,0z" />
<path style="fill:#333" d="M886,678 l0,202 -701,0 0,-202 701,0z" />
<path style="fill:#7f7f7f" d="M970,95 l0,740 -179,0 0,-740 179,0z" />
<path style="fill:#7f7f7f" d="M791,252 l-584,0 0,-23 -179,0 0,472 179,0 0,-23 584,0 0,-426z" />
<path style="fill:#8a8a8a" d="M970,129 l0,672 -179,0 0,-672 179,0z" />
<path style="fill:#8a8a8a" d="M791,272 l-584,0 0,-21 -179,0 0,427 179,0 0,-20 584,0 0,-386z" />
<path style="fill:#a1a1a1" d="M970,198 l0,534 -179,0 0,-534 179,0z" />
<path style="fill:#a1a1a1" d="M791,312 l-584,0 0,-16 -179,0 0,337 179,0 0,-16 584,0 0,-305z" />
<path style="fill:#b8b8b8" d="M970,266 l0,398 -179,0 0,-398 179,0z" />
<path style="fill:#b8b8b8" d="M791,353 l-584,0 0,-12 -179,0 0,247 179,0 0,-12 584,0 0,-223z" />
<path style="fill:#cfcfcf" d="M970,335 l0,260 -179,0 0,-260 179,0z" />
<path style="fill:#cfcfcf" d="M791,393 l-584,0 0,-7 -179,0 0,157 179,0 0,-7 584,0 0,-143z" />
<path style="fill:#e5e5e5" d="M970,403 l0,124 -179,0 0,-124 179,0z" />
<path style="fill:#e5e5e5" d="M791,434 l-584,0 0,-3 -179,0 0,68 179,0 0,-4 584,0 0,-61z" />
<path style="fill:#7f7f7f" d="M746,723 l0,157 -561,0 0,-157 561,0z" />
<path style="fill:#8a8a8a" d="M746,730 l0,143 -561,0 0,-143 561,0z" />
<path style="fill:#a1a1a1" d="M746,745 l0,113 -561,0 0,-113 561,0z" />
<path style="fill:#b8b8b8" d="M746,759 l0,85 -561,0 0,-85 561,0z" />
<path style="fill:#cfcfcf" d="M746,774 l0,55 -561,0 0,-55 561,0z" />
<path style="fill:#666" d="M185,746 l0,112 -45,0 0,-112 45,0z" />
<path style="fill:#999" d="M185,762 l0,79 -45,0 0,-79 45,0z" />
<path style="fill:#ccc" d="M185,783 l0,37 -45,0 0,-37 45,0z" />
<path style="fill:#fff" d="M185,797 l0,9 -45,0 0,-9 45,0z" />
<path style="fill:none;stroke:#000;stroke-width:2" d="M185,746 l0,112 -45,0 0,-112 45,0" />
<path style="fill:#cfcfcf" d="M746,813 l0,67 -292,0 0,-67 292,0z" />
<path style="fill:#e5e5e5" d="M746,789 l0,26 -561,0 0,-26 561,0z" />
<path style="fill:none;stroke:#000;stroke-width:2" d="M746,723 l0,157 -561,0 0,-157 561,0" />
<path style="fill:#b2b2b2;stroke:#000;stroke-width:2" d="M757,858 l0,22 -314,0 0,-22 314,0z" />
<path style="fill:none;stroke:#666;stroke-width:2" d="M701,544 l0,-213" />
<path style="fill:#b2b2b2" d="M970,448 l0,34 -179,0 0,-34 179,0z" />
<path style="fill:#b2b2b2" d="M970,359 l0,33 -179,0 0,-33 179,0z" />
<path style="fill:#b2b2b2" d="M970,538 l0,34 -179,0 0,-34 179,0z" />
<path style="fill:#7f7f7f" d="M970,179 l0,34 -179,0 0,-34 179,0z" />
<path style="fill:#7f7f7f" d="M970,718 l0,33 -179,0 0,-33 179,0z" />
<path style="fill:#7f7f7f" d="M970,269 l0,34 -179,0 0,-34 179,0z" />
<path style="fill:#7f7f7f" d="M970,628 l0,34 -179,0 0,-34 179,0z" />
<path style="fill:#7f7f7f;stroke:#000;stroke-width:2" d="M791,145 l-17,0 0,-117 17,0 0,117z" />
<path style="fill:#7f7f7f;stroke:#000;stroke-width:2" d="M774,140 l-17,0 0,-34 17,0 0,34z" />
<path style="fill:none;stroke:#000;stroke-width:2" d="M701,678 l0,-134" />
<path style="fill:none;stroke:#000;stroke-width:2" d="M207,678 l0,-426" />
<path style="fill:none;stroke:#000;stroke-width:2" d="M791,252 l-584,0 0,-23 -179,0 0,472 179,0 0,-23 584,0 0,-426" />
<path style="fill:none;stroke:#000;stroke-width:2" d="M970,95 l0,740 -179,0 0,-740 179,0" />
<path style="fill:#7f7f7f" d="M898,72 l0,786 -34,0 0,-786 34,0z" />
<path style="fill:#8f8f8f" d="M897,119 l0,691 -34,0 0,-691 34,0z" />
<path style="fill:#9c9c9c" d="M897,166 l0,597 -34,0 0,-597 34,0z" />
<path style="fill:#ababab" d="M897,214 l0,502 -34,0 0,-502 34,0z" />
<path style="fill:#bababa" d="M897,261 l0,407 -34,0 0,-407 34,0z" />
<path style="fill:#c9c9c9" d="M897,309 l0,312 -34,0 0,-312 34,0z" />
<path style="fill:#d6d6d6" d="M897,356 l0,218 -34,0 0,-218 34,0z" />
<path style="fill:#e5e5e5" d="M898,403 l0,124 -34,0 0,-124 34,0z" />
<path style="fill:none;stroke:#000;stroke-width:2" d="M898,72 l0,786 -34,0 0,-786 34,0" />

</svg>
