 

<svg xmlns:agg="http://www.example.com" xmlns="http://www.w3.org/2000/svg" preserveAspectRatio="none" width="1.6083in" height="0.7518in" viewBox="0 0 999 467">

<path style="fill:#7f7f7f" d="M94,216 l-66,0 0,46 66,0 0,-46z" />
<path style="fill:#8c8c8c" d="M94,218 l-66,0 0,41 66,0 0,-41z" />
<path style="fill:#999" d="M94,220 l-66,0 0,38 66,0 0,-38z" />
<path style="fill:#a6a6a6" d="M94,222 l-66,0 0,32 66,0 0,-32z" />
<path style="fill:#b2b2b2" d="M94,224 l-66,0 0,28 66,0 0,-28z" />
<path style="fill:#bfbfbf" d="M94,226 l-66,0 0,24 66,0 0,-24z" />
<path style="fill:#ccc" d="M94,227 l-66,0 0,21 66,0 0,-21z" />
<path style="fill:#d9d9d9" d="M94,229 l-66,0 0,17 66,0 0,-17z" />
<path style="fill:#e5e5e5" d="M94,231 l-66,0 0,13 66,0 0,-13z" />
<path style="fill:#f2f2f2" d="M94,233 l-66,0 0,10 66,0 0,-10z" />
<path style="fill:#fff" d="M94,235 l-66,0 0,6 66,0 0,-6z" />
<path style="fill:none;stroke:#000;stroke-width:2" d="M94,216 l-66,0 0,46 66,0 0,-46" />
<path style="fill:#7f7f7f" d="M439,116 l-91,0 0,-11 -66,0 0,11 -88,0 0,-11 -66,0 0,11 -17,0 -8,8 -13,39 -6,29 -2,30 0,32 2,32 6,26 13,40 8,9 17,0 0,10 66,0 0,-10 88,0 0,10 66,0 0,-10 91,0 0,44 494,0 11,-12 9,-20 8,-32 5,-38 4,-44 0,-43 -4,-41 -5,-38 -8,-32 -9,-21 -11,-11 -494,0 0,43z" />
<path style="fill:#8a8a8a" d="M439,128 l-91,0 0,-10 -66,0 0,10 -88,0 0,-10 -66,0 0,10 -17,0 -15,22 -12,45 -2,29 0,28 2,28 12,46 15,22 17,0 0,10 66,0 0,-10 88,0 0,10 66,0 0,-10 91,0 0,40 494,0 11,-10 9,-20 8,-29 5,-34 4,-37 0,-40 -4,-38 -5,-33 -8,-29 -20,-30 -494,0 0,40z" />
<path style="fill:#969696" d="M439,141 l-91,0 0,-10 -66,0 0,10 -88,0 0,-10 -66,0 0,10 -17,0 -8,6 -13,32 -8,47 2,51 12,39 7,13 8,6 17,0 0,9 66,0 0,-9 88,0 0,9 66,0 0,-9 91,0 0,36 494,0 11,-10 9,-17 8,-24 5,-30 4,-34 0,-36 -4,-34 -5,-30 -8,-25 -9,-17 -11,-9 -494,0 0,36z" />
<path style="fill:#a1a1a1" d="M439,152 l-91,0 0,-8 -66,0 0,8 -88,0 0,-8 -66,0 0,8 -17,0 -8,6 -13,28 -8,41 2,44 12,36 7,11 8,6 17,0 0,7 66,0 0,-7 88,0 0,7 66,0 0,-7 91,0 0,30 494,0 11,-8 17,-36 5,-28 4,-28 0,-30 -4,-30 -5,-27 -17,-38 -11,-7 -494,0 0,30z" />
<path style="fill:#adadad" d="M439,165 l-91,0 0,-7 -66,0 0,7 -88,0 0,-7 -66,0 0,7 -17,0 -8,4 -13,25 -8,35 2,38 12,30 7,10 8,3 17,0 0,8 66,0 0,-8 88,0 0,8 66,0 0,-8 91,0 0,27 494,0 11,-6 17,-32 9,-47 0,-26 -4,-27 -13,-41 -9,-14 -11,-5 -494,0 0,26z" />
<path style="fill:#b8b8b8" d="M439,177 l-91,0 0,-6 -66,0 0,6 -88,0 0,-6 -66,0 0,6 -17,0 -8,3 -19,34 -2,15 2,33 12,26 15,11 17,0 0,6 66,0 0,-6 88,0 0,6 66,0 0,-6 91,0 0,23 494,0 11,-6 17,-26 9,-42 -4,-41 -13,-36 -9,-11 -11,-6 -494,0 0,23z" />
<path style="fill:#c4c4c4" d="M439,190 l-91,0 0,-6 -66,0 0,6 -88,0 0,-6 -66,0 0,6 -17,0 -15,9 -14,32 2,27 19,26 25,2 0,6 66,0 0,-6 88,0 0,6 66,0 0,-6 91,0 0,19 494,0 11,-4 17,-23 9,-32 -4,-34 -13,-28 -20,-13 -494,0 0,19z" />
<path style="fill:#cfcfcf" d="M439,201 l-91,0 0,-4 -66,0 0,4 -88,0 0,-4 -66,0 0,4 -17,0 -15,8 -12,15 -2,9 2,19 19,21 25,2 0,3 66,0 0,-3 88,0 0,3 66,0 0,-3 91,0 0,13 494,0 28,-19 9,-25 -4,-26 -22,-26 -11,-4 -494,0 0,13z" />
<path style="fill:#dbdbdb" d="M439,214 l-91,0 0,-3 -66,0 0,3 -88,0 0,-3 -66,0 0,3 -32,4 -12,11 -2,6 2,11 19,16 25,0 0,3 66,0 0,-3 88,0 0,3 66,0 0,-3 91,0 0,9 494,0 28,-12 9,-16 0,-10 -17,-22 -20,-6 -494,0 0,9z" />
<ellipse style="fill:#e5e5e5" cx="526" cy="239" rx="444" ry="17" />
<path style="fill:none;stroke:#000;stroke-width:2" d="M439,361 l0,-245" />
<path style="fill:none;stroke:#7f7f7f;stroke-width:2" d="M348,361 l0,-245" />
<path style="fill:none;stroke:#7f7f7f;stroke-width:2" d="M282,361 l0,-245" />
<path style="fill:none;stroke:#7f7f7f;stroke-width:2" d="M195,361 l0,-245" />
<path style="fill:none;stroke:#7f7f7f;stroke-width:2" d="M128,361 l0,-245" />
<path style="fill:#4c4c4c" d="M416,116 l-34,0 0,245 34,0 0,-245z" />
<path style="fill:none;stroke:#000;stroke-width:2" d="M439,116 l-91,0 0,-11 -66,0 0,11 -88,0 0,-11 -66,0 0,11 -17,0 -8,8 -13,39 -6,29 -2,30 0,32 2,32 6,26 13,40 8,9 17,0 0,10 66,0 0,-10 88,0 0,10 66,0 0,-10 91,0 0,44 494,0 11,-12 9,-20 8,-32 5,-38 4,-44 0,-43 -4,-41 -5,-38 -8,-32 -9,-21 -11,-11 -494,0 0,43" />
<path style="fill:#666" d="M427,99 l-34,0 0,289 34,0 0,-289z" />
<path style="fill:#6e6e6e" d="M427,105 l-34,0 0,262 34,0 0,-262z" />
<path style="fill:#787878" d="M427,111 l-34,0 0,235 34,0 0,-235z" />
<path style="fill:#7f7f7f" d="M427,116 l-34,0 0,211 34,0 0,-211z" />
<path style="fill:#878787" d="M427,120 l-34,0 0,187 34,0 0,-187z" />
<path style="fill:#919191" d="M427,126 l-34,0 0,160 34,0 0,-160z" />
<path style="fill:#999" d="M427,131 l-34,0 0,134 34,0 0,-134z" />
<path style="fill:#a1a1a1" d="M427,137 l-34,0 0,107 34,0 0,-107z" />
<path style="fill:#ababab" d="M427,141 l-34,0 0,85 34,0 0,-85z" />
<path style="fill:#b2b2b2" d="M427,147 l-34,0 0,58 34,0 0,-58z" />
<path style="fill:none;stroke:#000;stroke-width:2" d="M427,99 l-34,0 0,289 34,0 0,-289" />
<path style="fill:#000" d="M359,227 l0,-11 6,-5 0,-14 -6,-5 0,-12 6,-5 0,-12 -6,-5 0,-11 6,-6 0,-12 -6,-7 0,-11 6,-6 23,0 0,32 5,7 0,55 -5,2 0,32 -23,0 -6,-6z" />
<path style="fill:#e5e5e5;stroke:#000;stroke-width:2" d="M359,147 l23,0 0,-6 -17,0 -6,6z" />
<path style="fill:#e5e5e5;stroke:#000;stroke-width:2" d="M359,111 l23,0 0,-6 -17,0 -6,6z" />
<path style="fill:#e5e5e5;stroke:#000;stroke-width:2" d="M359,180 l23,0 0,-5 -17,0 -6,5z" />
<path style="fill:#e5e5e5;stroke:#000;stroke-width:2" d="M359,216 l23,0 0,-5 -17,0 -6,5z" />
<path style="fill:#999" d="M899,405 l-460,0 0,34 460,0 0,-34z" />
<path style="fill:#666" d="M819,405 l-103,0 0,34 103,0 0,-34z" />
<path style="fill:#666" d="M621,405 l-105,0 0,34 105,0 0,-34z" />
<path style="fill:none;stroke:#000;stroke-width:2" d="M899,405 l-460,0 0,34 460,0 0,-34" />
<path style="fill:#ccc" d="M342,256 l-54,0 0,49 54,0 0,-49z" />
<path style="fill:#333" d="M342,271 l-54,0 0,17 54,0 0,-17z" />
<path style="fill:none;stroke:#000;stroke-width:2" d="M342,256 l-54,0 0,49 54,0 0,-49" />
<path style="fill:#ccc" d="M188,256 l-55,0 0,49 55,0 0,-49z" />
<path style="fill:#333" d="M188,271 l-55,0 0,17 55,0 0,-17z" />
<path style="fill:none;stroke:#000;stroke-width:2" d="M188,256 l-55,0 0,49 55,0 0,-49" />
<path style="fill:#ccc;stroke:#000;stroke-width:2" d="M327,256 l-22,0 0,-12 22,0 0,12z" />
<path style="fill:#ccc;stroke:#000;stroke-width:2" d="M171,256 l-21,0 0,-12 21,0 0,12z" />
<path style="fill:#ccc;stroke:#000;stroke-width:2" d="M616,28 l-17,0 0,45 17,0 0,-45z" />

</svg>
