 

<svg xmlns:agg="http://www.example.com" xmlns="http://www.w3.org/2000/svg" preserveAspectRatio="none" width="1.6083in" height="0.8822in" viewBox="0 0 999 548">

<path style="fill:#727f7f" d="M756,435 l129,0 0,-86 85,0 0,-214 -85,0 0,-86 -129,0 0,86 -514,0 0,-86 -129,0 0,86 -85,0 0,214 85,0 0,86 129,0 0,-86 514,0 0,86z" />
<path style="fill:#879494" d="M756,402 l128,0 0,-71 86,0 0,-179 -86,0 0,-71 -128,0 0,71 -514,0 0,-71 -129,0 0,71 -85,0 0,179 85,0 0,71 129,0 0,-71 514,0 0,71z" />
<path style="fill:#9ea8a8" d="M756,370 l128,0 0,-57 86,0 0,-143 -86,0 0,-57 -128,0 0,57 -514,0 0,-57 -129,0 0,57 -85,0 0,143 85,0 0,57 129,0 0,-57 514,0 0,57z" />
<path style="fill:#b3bdbd" d="M756,338 l128,0 0,-43 86,0 0,-107 -86,0 0,-43 -128,0 0,43 -514,0 0,-43 -129,0 0,43 -85,0 0,107 85,0 0,43 129,0 0,-43 514,0 0,43z" />
<path style="fill:#c9d1d1" d="M756,305 l128,0 0,-28 86,0 0,-71 -86,0 0,-29 -128,0 0,29 -514,0 0,-29 -129,0 0,29 -85,0 0,71 85,0 0,28 129,0 0,-28 514,0 0,28z" />
<path style="fill:#dde5e5" d="M756,273 l129,0 0,-14 85,0 0,-35 -85,0 0,-14 -129,0 0,14 -514,0 0,-14 -129,0 0,14 -85,0 0,35 85,0 0,14 129,0 0,-14 514,0 0,14z" />
<path style="fill:none;stroke:#000;stroke-width:2" d="M756,435 l129,0 0,-86 85,0 0,-214 -85,0 0,-86 -129,0 0,86 -514,0 0,-86 -129,0 0,86 -85,0 0,214 85,0 0,86 129,0 0,-86 514,0 0,86" />
<path style="fill:none;stroke:#000;stroke-width:2" d="M885,349 l0,-214" />
<path style="fill:none;stroke:#000;stroke-width:2" d="M113,349 l0,-214" />
<path style="fill:#7a9999;stroke:#000;stroke-width:2" d="M756,91 l-514,0 0,301 514,0 0,-301z" />
<path style="fill:#bdcccc;stroke:#000;stroke-width:2" d="M756,113 l-514,0 0,257 514,0 0,-257z" />
<path style="fill:#033" d="M713,392 l-85,64 -258,0 -85,-64 428,0z" />
<path style="fill:#9bb2b2;stroke:#000;stroke-width:2" d="M285,92 l85,-64 258,0 85,64 -428,0z" />
<path style="fill:none;stroke:#fff;stroke-width:2" d="M649,92 l-43,-43 -214,0" />
<path style="fill:#597f7f;stroke:#000;stroke-width:2" d="M392,520 l0,-21 -22,0 0,-107 -42,0 0,107 -22,0 0,21 86,0z" />
<path style="fill:#597f7f;stroke:#000;stroke-width:2" d="M692,520 l0,-21 -22,0 0,-107 -42,0 0,107 -22,0 0,21 86,0z" />
<path style="fill:#597f7f" d="M756,113 l-514,0 0,22 514,0 0,-22z" />
<path style="fill:#324c4c" d="M713,113 l-43,0 0,257 43,0 0,-257z" />
<path style="fill:#324c4c" d="M649,113 l-43,0 0,257 43,0 0,-257z" />
<path style="fill:#324c4c" d="M585,113 l-43,0 0,257 43,0 0,-257z" />
<path style="fill:#324c4c" d="M520,113 l-43,0 0,257 43,0 0,-257z" />
<path style="fill:#324c4c" d="M456,113 l-43,0 0,257 43,0 0,-257z" />
<path style="fill:#324c4c" d="M392,113 l-43,0 0,257 43,0 0,-257z" />
<path style="fill:#324c4c" d="M328,113 l-43,0 0,257 43,0 0,-257z" />

</svg>
