 

<svg xmlns:agg="http://www.example.com" xmlns="http://www.w3.org/2000/svg" preserveAspectRatio="none" width="1.6083in" height="0.8967in" viewBox="0 0 999 557">

<path style="fill:#7f7f7f" d="M763,58 l6,19 1,47 2,72 2,84 -2,87 -2,72 -1,47 -6,17 -151,0 0,4 72,0 0,22 -157,0 0,-22 10,0 0,-4 -132,0 0,4 9,0 0,22 -154,0 0,-22 69,0 0,-4 -86,0 -2,26 -198,0 2,-58 4,-87 0,-211 -4,-85 -2,-58 0,-2 198,0 9,124 2,126 -2,78 505,0 -2,-76 2,-84 2,-72 2,-47 4,-19z" />
<ellipse style="fill:#7f7f7f" cx="38" cy="279" rx="10" ry="244" />
<path style="fill:#7f7f7f" d="M970,243 l-171,0 0,73 171,0 0,-73z" />
<path style="fill:#b2b2b2" d="M769,356 l-528,0 0,-304 435,0 87,0 4,113 2,191z" />
<path style="fill:#7f7f7f" d="M241,77 l522,0 0,-25 -87,0 -435,0 0,25z" />
<path style="fill:#e0e0e0;fill-rule:evenodd" d="M684,278 l-439,0 0,23 439,0 0,-23z M488,107 l0,-21 196,0 0,-22 -439,0 0,22 162,0 0,21 -162,0 0,23 439,0 0,-23 -196,0z M435,88 l26,0 6,6 0,13 -40,0 0,-13 8,-6z M693,278 l62,0 0,23 -62,0 0,-23z M684,235 l-439,0 0,23 439,0 0,-23z M693,235 l62,0 0,23 -62,0 0,-23z M684,192 l-439,0 0,24 439,0 0,-24z M693,192 l62,0 0,24 -62,0 0,-24z M684,148 l-439,0 0,23 439,0 0,-23z M693,148 l62,0 0,23 -62,0 0,-23z M693,64 l62,0 0,22 -62,0 0,-22z M693,107 l62,0 0,23 -62,0 0,-23z M43,39 l4,49 0,42 198,0 -6,-91 -196,0z M968,246 l-169,0 0,16 169,0 0,-16z " />
<path style="fill:#ccc" d="M684,320 l-439,0 0,23 439,0 0,-23z" />
<path style="fill:#ccc" d="M693,320 l62,0 0,23 -62,0 0,-23z" />
<path style="fill:#ccc" d="M684,363 l-439,0 0,23 439,0 0,-23z" />
<path style="fill:#ccc" d="M693,363 l62,0 0,23 -62,0 0,-23z" />
<path style="fill:#333" d="M784,203 l-12,0 0,153 12,0 0,-153z" />
<path style="fill:#333" d="M784,228 l0,101 9,0 4,-5 2,-8 0,-73 -2,-12 -4,-3 -9,0z" />
<path style="fill:#b2b2b2" d="M968,301 l-169,0 0,-39 169,0 0,39z" />
<path style="fill:#b2b2b2" d="M684,450 l-439,0 0,23 439,0 0,-23z" />
<path style="fill:#b2b2b2" d="M693,450 l62,0 0,23 -62,0 0,-23z" />
<path style="fill:#b2b2b2" d="M47,130 l2,43 0,107 0,104 -2,75 196,0 5,-173 -5,-156 -196,0z" />
<path style="fill:#ccc" d="M693,405 l62,0 0,22 -62,0 0,-22z" />
<path style="fill:#ccc" d="M684,405 l-439,0 0,22 439,0 0,-22z" />
<path style="fill:#000;stroke:#000;stroke-width:2" d="M574,145 l-248,0 0,230 248,0 0,-230z" />
<path style="fill:#ccc;stroke:#000;stroke-width:2" d="M580,150 l-249,0 0,228 249,0 0,-228z" />
<path style="fill:#ccc;stroke:#000;stroke-width:2" d="M563,192 l-198,0 6,160 181,0 11,-160z" />
<path style="fill:#7f7f7f" d="M356,182 l9,10 6,160 -4,0 -11,-170z" />
<path style="fill:#e5e5e5;stroke:#000;stroke-width:2" d="M563,192 l-198,0 -9,-12 198,0 9,12z" />
<path style="fill:#e5e5e5;stroke:#000;stroke-width:2" d="M567,373 l-10,0 -5,-8 5,-7 10,0 6,7 -6,8z" />
<path style="fill:#e5e5e5;stroke:#000;stroke-width:2" d="M567,173 l-10,0 -5,-8 5,-7 10,0 6,7 -6,8z" />
<path style="fill:#e5e5e5;stroke:#000;stroke-width:2" d="M356,173 l-12,0 -3,-8 3,-7 12,0 5,7 -5,8z" />
<path style="fill:#e5e5e5;stroke:#000;stroke-width:2" d="M356,373 l-12,0 -3,-8 3,-7 12,0 5,7 -5,8z" />

</svg>
