 

<svg xmlns:agg="http://www.example.com" xmlns="http://www.w3.org/2000/svg" preserveAspectRatio="none" width="0.9082in" height="1.0750in" viewBox="0 0 844 999">

<path style="fill:#7f7f7f;stroke:#000;stroke-width:2" d="M28,263 l530,0 0,472 -530,0 0,-472z" />
<path style="fill:#7f7f7f;stroke:#000;stroke-width:2" d="M668,477 l148,0 0,44 -148,0 0,-44z" />
<path style="fill:#b2b2b2;stroke:#000;stroke-width:2" d="M558,28 l88,0 0,942 -88,0 0,-942z" />
<path style="fill:#000;stroke:#000;stroke-width:2" d="M131,221 l147,0 0,-111 -147,0 0,111z" />
<path style="fill:#000;stroke:#000;stroke-width:2" d="M116,221 l177,0 0,22 -177,0 0,-22z" />
<path style="fill:#b2b2b2;stroke:#000;stroke-width:2" d="M271,221 l15,0 0,-8 -15,0 0,8z" />
<path style="fill:#b2b2b2;stroke:#000;stroke-width:2" d="M123,221 l15,0 0,-8 -15,0 0,8z" />
<path style="fill:none;stroke:#7f7f7f;stroke-width:2" d="M116,221 l177,0" />
<path style="fill:none;stroke:#7f7f7f;stroke-width:2" d="M131,110 l147,0" />
<path style="fill:#666;stroke:#000;stroke-width:2" d="M87,720 l471,0 0,37 -471,0 0,-37z" />
<path style="fill:#666;stroke:#000;stroke-width:2" d="M87,241 l471,0 0,37 -471,0 0,-37z" />
<path style="fill:#ccc;stroke:#000;stroke-width:2" d="M646,308 l23,0 0,383 -23,0 0,-383z" />

</svg>
