 

<svg xmlns:agg="http://www.example.com" xmlns="http://www.w3.org/2000/svg" preserveAspectRatio="none" width="1.5173in" height="1.0750in" viewBox="0 0 861 610">

<path style="fill:#000" d="M790,149 l47,0 0,250 -47,0 0,-250z" />
<path style="fill:#000" d="M213,586 l0,-62 436,0 0,62 -436,0z" />
<path style="fill:#7f7f7f" d="M712,524 l-563,0 -125,-31 0,-438 125,-31 563,0 0,47 78,47 0,312 -78,47 0,47z" />
<path style="fill:#999" d="M713,472 l-563,0 -125,-24 0,-349 125,-25 563,0 0,37 78,38 0,248 -78,38 0,37z" />
<path style="fill:#b2b2b2" d="M713,422 l-563,0 -125,-19 0,-260 125,-18 563,0 0,28 78,28 0,185 -78,28 0,28z" />
<path style="fill:#ccc" d="M713,371 l-563,0 -125,-12 0,-171 125,-13 563,0 0,19 78,18 0,122 -78,18 0,19z" />
<path style="fill:#e5e5e5" d="M712,321 l-563,0 -125,-6 0,-82 125,-6 563,0 0,9 78,9 0,58 -78,9 0,9z" />
<path style="fill:none;stroke:#000;stroke-width:2" d="M712,524 l-563,0 -125,-31 0,-438 125,-31 563,0 0,47 78,47 0,312 -78,47 0,47" />
<path style="fill:#b2b2b2;stroke:#000;stroke-width:2" d="M243,586 l0,-250 219,0 0,250 -219,0z" />
<path style="fill:none;stroke:#fff;stroke-width:2" d="M274,555 l0,-187 156,0" />
<path style="fill:#000" d="M258,555 l16,0 0,16 -16,0 0,-16z" />
<path style="fill:#000" d="M430,555 l16,0 0,16 -16,0 0,-16z" />
<path style="fill:#000" d="M430,352 l16,0 0,16 -16,0 0,-16z" />
<path style="fill:#000" d="M258,352 l16,0 0,16 -16,0 0,-16z" />
<path style="fill:none;stroke:#000;stroke-width:2" d="M712,477 l0,-406" />
<path style="fill:#4c4c4c" d="M212,24 l468,0 0,266 -468,0 0,-266z" />
<path style="fill:#ccc" d="M212,211 l484,0 0,16 -484,0 0,-16z" />
<path style="fill:#ccc" d="M212,258 l484,0 0,16 -484,0 0,-16z" />
<path style="fill:#b2b2b2" d="M212,118 l484,0 0,16 -484,0 0,-16z" />
<path style="fill:#b2b2b2" d="M212,165 l484,0 0,16 -484,0 0,-16z" />
<path style="fill:#999" d="M212,86 l484,0 0,16 -484,0 0,-16z" />
<path style="fill:#999" d="M212,55 l484,0 0,16 -484,0 0,-16z" />
<path style="fill:#999" d="M212,24 l484,0 0,16 -484,0 0,-16z" />

</svg>
