 

<svg xmlns:agg="http://www.example.com" xmlns="http://www.w3.org/2000/svg" preserveAspectRatio="none" width="1.6083in" height="0.7913in" viewBox="0 0 998 491">

<path style="fill:#333;stroke:#000;stroke-width:2" d="M382,439 l471,0 0,24 -471,0 0,-24z" />
<path style="fill:#eb5200;stroke:#000;stroke-width:2" d="M382,39 l471,0 0,400 -471,0 0,-400z" />
<path style="fill:#f60;stroke:#000;stroke-width:2" d="M499,86 l330,0 0,377 -330,0 0,-377z" />
<path style="fill:#ccc;stroke:#000;stroke-width:2" d="M499,28 l330,0 0,11 -330,0 0,-11z" />
<path style="fill:#f60;stroke:#000;stroke-width:2" d="M39,86 l343,0 0,377 -343,0 0,-72 -11,-11 0,-70 11,-13 0,-47 -11,-11 0,-70 11,-13 0,-70z" />
<path style="fill:#e04700" d="M178,399 l2,47 -122,0 0,-136 28,-2 2,9 3,7 4,8 4,7 4,8 5,6 6,7 5,6 7,5 6,6 7,5 7,4 8,4 8,4 8,3 8,2z" />
<path style="fill:#e04700" d="M178,156 l2,-47 -122,0 0,135 28,2 2,-8 3,-8 4,-7 4,-8 4,-7 5,-6 6,-7 5,-6 7,-6 6,-5 7,-5 7,-4 8,-4 8,-4 8,-3 8,-2z" />
<path style="fill:#e04700" d="M243,399 l-2,47 122,0 0,-136 -28,-2 -2,9 -3,7 -4,8 -4,7 -4,8 -5,6 -6,7 -5,6 -7,5 -6,6 -7,5 -7,4 -8,4 -8,4 -8,3 -8,2z" />
<path style="fill:#e04700" d="M243,156 l-2,-47 122,0 0,135 -28,2 -2,-8 -3,-8 -4,-7 -4,-8 -4,-7 -5,-6 -6,-7 -5,-6 -7,-6 -6,-5 -7,-5 -7,-4 -8,-4 -8,-4 -8,-3 -8,-2z" />
<circle style="fill:#4c4c4c;stroke:#000;stroke-width:2" cx="210" cy="274" r="94" />
<circle style="fill:#b2b2b2;stroke:#000;stroke-width:2" cx="210" cy="274" r="47" />
<circle style="fill:#ccc;stroke:#000;stroke-width:2" cx="210" cy="273" r="30" />
<circle style="fill:#333;stroke:#000;stroke-width:2" cx="210" cy="274" r="18" />
<path style="fill:none;stroke:#000;stroke-width:2" d="M58,310 l0,136 122,0" />
<path style="fill:none;stroke:#000;stroke-width:2" d="M241,446 l122,0 0,-136" />
<path style="fill:none;stroke:#000;stroke-width:2" d="M58,244 l0,-135 122,0" />
<path style="fill:none;stroke:#000;stroke-width:2" d="M241,109 l122,0 0,135" />
<path style="fill:#000;stroke:#000;stroke-width:2" d="M210,144 l6,6 -4,8 -2,0 -5,-8 5,-6z" />
<path style="fill:#000;stroke:#000;stroke-width:2" d="M210,405 l5,1 1,4 0,3 -1,2 -5,1 -4,-1 -1,-2 0,-3 1,-4 4,-1z" />
<path style="fill:#000;stroke:#000;stroke-width:2" d="M75,280 l5,-5 8,4 0,1 -8,6 -5,-6z" />
<path style="fill:#000;stroke:#000;stroke-width:2" d="M335,280 l1,-4 5,-1 2,0 2,1 1,4 -1,5 -2,1 -2,0 -5,-1 -1,-5z" />
<path style="fill:none;stroke:#fff;stroke-width:2" d="M527,433 l0,-317 272,0" />
<path style="fill:#e04700" d="M853,45 l117,0 0,388 -117,0 0,-388z" />
<path style="fill:#eb5200" d="M853,88 l117,0 0,303 -117,0 0,-303z" />
<path style="fill:#f55c00" d="M853,143 l117,0 0,194 -117,0 0,-194z" />
<path style="fill:#f60" d="M853,203 l117,0 0,73 -117,0 0,-73z" />
<path style="fill:none;stroke:#000;stroke-width:2" d="M853,45 l117,0 0,388 -117,0 0,-388" />
<path style="fill:#f60;stroke:#000;stroke-width:2" d="M499,69 l330,0 0,11 -330,0 0,-11z" />
<path style="fill:#f60;stroke:#000;stroke-width:2" d="M499,50 l330,0 0,11 -330,0 0,-11z" />
<path style="fill:#eb5200;stroke:#000;stroke-width:2" d="M58,80 l17,0 0,6 -17,0 0,-6z" />
<path style="fill:#eb5200;stroke:#000;stroke-width:2" d="M346,80 l17,0 0,6 -17,0 0,-6z" />
<path style="fill:#eb5200;stroke:#000;stroke-width:2" d="M814,92 l8,4 1,5 -5,7 -4,1 -7,-5 -1,-3 4,-8 4,-1z" />
<path style="fill:#eb5200;stroke:#000;stroke-width:2" d="M514,92 l7,5 1,4 -6,8 -2,0 -8,-4 -1,-4 4,-8 5,-1z" />
<path style="fill:#eb5200;stroke:#000;stroke-width:2" d="M514,441 l7,6 1,1 -4,8 -4,1 -8,-3 -1,-6 5,-7 4,0z" />
<path style="fill:#eb5200;stroke:#000;stroke-width:2" d="M814,441 l8,3 1,4 -4,8 -5,1 -7,-5 -1,-4 5,-7 3,0z" />

</svg>
