 

<svg xmlns:agg="http://www.example.com" xmlns="http://www.w3.org/2000/svg" preserveAspectRatio="none" width="1.5233in" height="1.0750in" viewBox="0 0 999 705">

<path style="fill:#4c4c4c" d="M489,447 l-377,0 0,83 377,0 0,-83z" />
<path style="fill:#666" d="M489,447 l-377,0 0,-210 377,0 0,210z" />
<path style="fill:#7f7f7f" d="M489,133 l-377,0 0,104 377,0 0,-104z" />
<path style="fill:none;stroke:#000;stroke-width:2" d="M489,133 l-377,0 0,397 377,0 0,-397" />
<path style="fill:#191919" d="M489,509 l20,0 0,-335 -20,0 0,335z" />
<path style="fill:#7f7f7f" d="M929,509 l41,0 0,-335 -41,0 0,335z" />
<path style="fill:#999" d="M929,489 l41,0 0,-296 -41,0 0,296z" />
<path style="fill:#b2b2b2" d="M929,453 l41,0 0,-224 -41,0 0,224z" />
<path style="fill:#ccc" d="M929,417 l41,0 0,-152 -41,0 0,152z" />
<path style="fill:#e5e5e5" d="M929,391 l41,0 0,-98 -41,0 0,98z" />
<path style="fill:#fff" d="M929,362 l41,0 0,-41 -41,0 0,41z" />
<path style="fill:none;stroke:#000;stroke-width:2" d="M929,509 l41,0 0,-335 -41,0 0,335" />
<path style="fill:#191919" d="M489,509 l440,0 0,-335 -440,0 0,335z" />
<path style="fill:#666" d="M908,174 l-399,0 0,503 399,0 0,-503z" />
<path style="fill:#616161" d="M908,532 l-399,-211 0,356 399,0 0,-145z" />
<path style="fill:#5c5c5c" d="M908,553 l-399,-211 0,335 399,0 0,-124z" />
<path style="fill:#575757" d="M908,583 l-399,-209 0,303 399,0 0,-94z" />
<path style="fill:none;stroke:#000;stroke-width:2" d="M908,174 l-399,0 0,503 399,0 0,-503" />
<path style="fill:#7f7f7f" d="M112,28 l-84,0 0,608 84,0 0,-608z" />
<path style="fill:#8c8c8c" d="M112,54 l-84,0 0,553 84,0 0,-553z" />
<path style="fill:#999" d="M112,80 l-84,0 0,501 84,0 0,-501z" />
<path style="fill:#a6a6a6" d="M112,108 l-84,0 0,445 84,0 0,-445z" />
<path style="fill:#b2b2b2" d="M112,135 l-84,0 0,391 84,0 0,-391z" />
<path style="fill:#bfbfbf" d="M112,161 l-84,0 0,339 84,0 0,-339z" />
<path style="fill:#ccc" d="M112,189 l-84,0 0,283 84,0 0,-283z" />
<path style="fill:#d9d9d9" d="M112,216 l-84,0 0,229 84,0 0,-229z" />
<path style="fill:#e5e5e5" d="M112,242 l-84,0 0,175 84,0 0,-175z" />
<path style="fill:#f2f2f2" d="M112,270 l-84,0 0,121 84,0 0,-121z" />
<path style="fill:#fff" d="M112,297 l-84,0 0,67 84,0 0,-67z" />
<path style="fill:#7f7f7f" d="M112,154 l-84,0 0,41 84,0 0,-41z" />
<path style="fill:#b2b2b2" d="M112,154 l-84,0 0,-42 84,0 0,42z" />
<path style="fill:none;stroke:#7f7f7f;stroke-width:2" d="M112,112 l-84,0 0,83 84,0 0,-83" />
<path style="fill:#7f7f7f" d="M112,468 l-84,0 0,41 84,0 0,-41z" />
<path style="fill:#b2b2b2" d="M112,468 l-84,0 0,-43 84,0 0,43z" />
<path style="fill:none;stroke:#7f7f7f;stroke-width:2" d="M112,425 l-84,0 0,84 84,0 0,-84" />
<path style="fill:none;stroke:#000;stroke-width:2" d="M112,28 l-84,0 0,608 84,0 0,-608" />
<circle style="fill:none;stroke:#7f7f7f;stroke-width:2" cx="709" cy="248" r="32" />
<path style="fill:#3d3d3d" d="M730,553 l-80,0 -20,124 79,0 21,-124z" />
<path style="fill:#ccc" d="M803,636 l21,-21 0,-211 -21,-21 -209,0 -23,21 0,211 23,21 209,0z" />
<path style="fill:#c7c7c7" d="M803,636 l21,-21 0,-85 -253,-105 0,190 23,21 209,0z" />
<path style="fill:#c2c2c2" d="M803,636 l21,-21 0,-44 -253,-103 0,147 23,21 209,0z" />
<path style="fill:none;stroke:#000;stroke-width:2" d="M803,636 l21,-21 0,-211 -21,-21 -209,0 -23,21 0,211 23,21 209,0" />
<path style="fill:#a8a8a8" d="M739,511 l-79,0 -21,125 77,0 23,-125z" />
<path style="fill:#4c4c4c;stroke:#000;stroke-width:2" d="M773,585 l21,-27 9,-32 0,-34 -9,-32 -21,-26 -27,-19 -31,-11 -33,0 -32,11 -28,19 -19,26 -9,32 0,34 9,32 19,27 28,18 31,12 34,0 31,-12 27,-18z" />
<path style="fill:#333" d="M660,515 l-15,85 5,3 31,12 34,0 7,-2 15,-100 -77,2z" />
<path style="fill:#999" d="M745,556 l13,-16 5,-19 0,-21 -5,-21 -13,-17 -17,-11 -19,-7 -21,0 -21,7 -17,11 -11,17 -5,21 0,21 5,19 11,16 17,12 21,7 21,0 19,-7 17,-12z" />
<path style="fill:#7f7f7f" d="M737,509 l-79,0 -8,47 17,12 21,7 21,0 19,-7 9,-59z" />
<circle style="fill:#bfbfcc;stroke:#000;stroke-width:2" cx="697" cy="509" r="39" />
<path style="fill:#000" d="M711,509 l-13,-13 -14,13 14,14 13,-14z" />
<path style="fill:#333;stroke:#000;stroke-width:2" d="M509,551 l-41,0 0,41 41,0 0,-41z" />

</svg>
