 

<svg xmlns:agg="http://www.example.com" xmlns="http://www.w3.org/2000/svg" preserveAspectRatio="none" width="1.6083in" height="0.8638in" viewBox="0 0 998 536">

<path style="fill:#033;stroke:#000;stroke-width:2" d="M744,109 l-122,0 0,223 122,0 0,-223z" />
<path style="fill:#194c4c;stroke:#000;stroke-width:2" d="M429,96 l9,-6 5,-8 3,-11 0,-3 1,-3 0,-3 -1,-10 -3,-9 -4,-8 -8,-6 -5,-1 -2,0 -2,0 -8,4 -6,8 -4,8 -1,10 0,4 0,3 1,11 4,9 4,7 8,5 2,1 2,0 0,-10 -5,-1 -5,-10 -2,-10 0,-10 2,-9 5,-9 5,-2 7,4 5,11 1,10 -1,12 -5,10 -4,4 2,8z" />
<path style="fill:#194c4c" d="M683,62 l-141,0 0,9 1,9 0,9 2,8 1,9 2,8 2,8 6,16 3,8 7,14 8,14 9,12 10,11 11,10 11,9 13,7 13,6 13,5 14,2 7,1 8,0 7,0 14,-2 13,-3 13,-5 13,-7 12,-8 11,-10 10,-10 9,-12 9,-13 8,-14 3,-7 3,-8 5,-16 2,-8 2,-8 2,-9 1,-8 1,-9 1,-9 0,-9 -139,0z" />
<path style="fill:#366" d="M683,62 l-124,0 0,9 1,9 0,9 3,17 1,8 2,8 5,16 6,15 6,14 8,13 8,12 10,10 10,10 10,8 11,7 12,5 12,3 12,2 7,0 6,0 12,-2 12,-3 11,-5 11,-7 11,-8 9,-10 9,-10 9,-12 7,-13 7,-14 5,-15 5,-16 2,-8 2,-8 2,-17 1,-9 0,-9 1,-9 -122,0z" />
<path style="fill:#4c7f7f" d="M683,62 l-97,0 0,9 0,9 1,9 2,17 2,16 4,16 5,15 5,14 6,13 7,12 7,10 7,10 9,8 9,7 9,5 9,3 10,2 5,0 5,0 9,-2 9,-3 9,-5 8,-7 9,-8 7,-10 7,-10 7,-12 6,-13 5,-14 4,-15 4,-16 3,-16 2,-17 0,-9 1,-9 0,-9 -95,0z" />
<path style="fill:#699" d="M683,62 l-54,0 0,9 1,9 1,17 1,17 2,16 2,16 3,14 3,14 3,12 4,11 4,10 5,9 4,7 8,9 7,4 3,1 3,0 2,0 8,-3 8,-7 6,-11 5,-9 4,-10 3,-11 4,-12 2,-14 3,-14 2,-16 2,-16 1,-17 1,-17 0,-9 0,-9 -51,0z" />
<path style="fill:#7fb2b2" d="M683,62 l-19,0 0,9 0,9 0,17 1,17 0,16 1,16 1,14 1,14 2,12 1,11 1,10 2,9 3,11 3,8 2,2 1,0 1,0 4,-8 2,-9 2,-13 2,-10 1,-11 1,-12 1,-14 1,-14 1,-16 0,-16 0,-17 1,-8 0,-9 0,-9 0,-9 -17,0z" />
<path style="fill:none;stroke:#000;stroke-width:2" d="M683,62 l-141,0 0,9 1,9 0,9 2,8 1,9 2,8 2,8 6,16 3,8 7,14 8,14 9,12 10,11 11,10 11,9 13,7 13,6 13,5 14,2 7,1 8,0 7,0 14,-2 13,-3 13,-5 13,-7 12,-8 11,-10 10,-10 9,-12 9,-13 8,-14 3,-7 3,-8 5,-16 2,-8 2,-8 2,-9 1,-8 1,-9 1,-9 0,-9 -139,0" />
<path style="fill:#194c4c" d="M727,456 l78,0 0,-19 61,0 0,-8 70,0 34,-9 0,-105 -34,-8 -70,0 0,-9 -61,0 0,-17 -78,0 0,175z" />
<path style="fill:#366" d="M727,437 l78,0 0,-13 61,0 0,-8 70,0 34,-6 0,-83 -34,-8 -70,0 0,-8 -61,0 0,-13 -78,0 0,139z" />
<path style="fill:#4c7f7f" d="M727,420 l78,0 0,-10 61,0 0,-5 70,0 34,-6 0,-63 -34,-6 -70,0 0,-3 -61,0 0,-12 -78,0 0,105z" />
<path style="fill:#699" d="M727,403 l78,0 0,-8 61,0 0,-4 70,0 34,-1 0,-42 -34,-4 -70,0 0,-4 -61,0 0,-8 -78,0 0,71z" />
<path style="fill:#7fb2b2" d="M727,386 l78,0 0,-4 61,0 0,-2 70,0 34,-2 0,-21 -34,-2 -70,0 0,-2 -61,0 0,-2 -78,0 0,35z" />
<path style="fill:none;stroke:#000;stroke-width:2" d="M727,456 l78,0 0,-19 61,0 0,-8 70,0 34,-9 0,-105 -34,-8 -70,0 0,-9 -61,0 0,-17 -78,0 0,175" />
<path style="fill:none;stroke:#000;stroke-width:2" d="M866,429 l0,-122" />
<path style="fill:none;stroke:#000;stroke-width:2" d="M805,437 l0,-139" />
<path style="fill:none;stroke:#000;stroke-width:2" d="M936,429 l0,-122" />
<path style="fill:#194c4c" d="M727,456 l0,-209 -141,-141 -419,0 0,384 523,0 37,-34z" />
<path style="fill:#366" d="M727,433 l0,-181 -141,-120 -419,0 0,332 523,0 37,-31z" />
<path style="fill:#4c7f7f" d="M727,405 l0,-143 -141,-95 -419,0 0,262 523,0 37,-24z" />
<path style="fill:#699" d="M727,376 l0,-105 -141,-68 -419,0 0,190 523,0 37,-17z" />
<path style="fill:#7fb2b2" d="M727,334 l0,-47 -141,-33 -419,0 0,88 523,0 37,-8z" />
<path style="fill:none;stroke:#000;stroke-width:2" d="M727,456 l0,-209 -141,-141 -419,0 0,384 523,0 37,-34" />
<path style="fill:#194c4c" d="M220,88 l-53,0 0,420 53,0 0,-420z" />
<path style="fill:#366" d="M220,117 l-53,0 0,362 53,0 0,-362z" />
<path style="fill:#4c7f7f" d="M220,155 l-53,0 0,286 53,0 0,-286z" />
<path style="fill:#699" d="M220,193 l-53,0 0,210 53,0 0,-210z" />
<path style="fill:#7fb2b2" d="M220,250 l-53,0 0,96 53,0 0,-96z" />
<path style="fill:none;stroke:#000;stroke-width:2" d="M220,88 l-53,0 0,420 53,0 0,-420" />
<path style="fill:#033;stroke:#000;stroke-width:2" d="M542,123 l-244,0 0,350 244,0 0,-350z" />
<path style="fill:#194c4c" d="M542,167 l-244,0 0,262 244,0 0,-262z" />
<path style="fill:#194c4c" d="M586,88 l-52,0 0,420 52,0 0,-420z" />
<path style="fill:#366" d="M586,117 l-52,0 0,362 52,0 0,-362z" />
<path style="fill:#4c7f7f" d="M586,155 l-52,0 0,286 52,0 0,-286z" />
<path style="fill:#699" d="M586,193 l-52,0 0,210 52,0 0,-210z" />
<path style="fill:#7fb2b2" d="M586,250 l-52,0 0,96 52,0 0,-96z" />
<path style="fill:none;stroke:#000;stroke-width:2" d="M586,88 l-52,0 0,420 52,0 0,-420" />
<path style="fill:#194c4c" d="M307,88 l-26,0 0,420 26,0 0,-420z" />
<path style="fill:#366" d="M307,117 l-26,0 0,362 26,0 0,-362z" />
<path style="fill:#4c7f7f" d="M307,155 l-26,0 0,286 26,0 0,-286z" />
<path style="fill:#699" d="M307,193 l-26,0 0,210 26,0 0,-210z" />
<path style="fill:#7fb2b2" d="M307,250 l-26,0 0,96 26,0 0,-96z" />
<path style="fill:none;stroke:#000;stroke-width:2" d="M307,88 l-26,0 0,420 26,0 0,-420" />
<path style="fill:#699;stroke:#000;stroke-width:2" d="M534,281 l-227,0 0,34 227,0 0,-34z" />
<path style="fill:#194c4c" d="M437,88 l-25,0 0,420 25,0 0,-420z" />
<path style="fill:#366" d="M437,117 l-25,0 0,362 25,0 0,-362z" />
<path style="fill:#4c7f7f" d="M437,155 l-25,0 0,286 25,0 0,-286z" />
<path style="fill:#699" d="M437,193 l-25,0 0,210 25,0 0,-210z" />
<path style="fill:#7fb2b2" d="M437,250 l-25,0 0,96 25,0 0,-96z" />
<path style="fill:none;stroke:#000;stroke-width:2" d="M437,88 l-25,0 0,420 25,0 0,-420" />
<path style="fill:#194c4c" d="M167,88 l-35,0 0,201 35,0 0,-201z" />
<path style="fill:#366" d="M167,102 l-35,0 0,173 35,0 0,-173z" />
<path style="fill:#4c7f7f" d="M167,121 l-35,0 0,137 35,0 0,-137z" />
<path style="fill:#699" d="M167,138 l-35,0 0,101 35,0 0,-101z" />
<path style="fill:#7fb2b2" d="M167,167 l-35,0 0,45 35,0 0,-45z" />
<path style="fill:none;stroke:#000;stroke-width:2" d="M167,88 l-35,0 0,201 35,0 0,-201" />
<path style="fill:#194c4c" d="M132,132 l-34,0 0,113 34,0 0,-113z" />
<path style="fill:#366" d="M132,140 l-34,0 0,97 34,0 0,-97z" />
<path style="fill:#4c7f7f" d="M132,150 l-34,0 0,78 34,0 0,-78z" />
<path style="fill:#699" d="M132,161 l-34,0 0,57 34,0 0,-57z" />
<path style="fill:#7fb2b2" d="M132,176 l-34,0 0,25 34,0 0,-25z" />
<path style="fill:none;stroke:#000;stroke-width:2" d="M132,132 l-34,0 0,113 34,0 0,-113" />
<path style="fill:#194c4c" d="M62,132 l-34,0 0,113 34,0 0,-113z" />
<path style="fill:#366" d="M62,140 l-34,0 0,97 34,0 0,-97z" />
<path style="fill:#4c7f7f" d="M62,150 l-34,0 0,78 34,0 0,-78z" />
<path style="fill:#699" d="M62,161 l-34,0 0,57 34,0 0,-57z" />
<path style="fill:#7fb2b2" d="M62,176 l-34,0 0,25 34,0 0,-25z" />
<path style="fill:none;stroke:#000;stroke-width:2" d="M62,132 l-34,0 0,113 34,0 0,-113" />
<path style="fill:#666" d="M98,150 l-36,0 0,78 36,0 0,-78z" />
<path style="fill:#7f7f7f" d="M98,155 l-36,0 0,67 36,0 0,-67z" />
<path style="fill:#999" d="M98,163 l-36,0 0,53 36,0 0,-53z" />
<path style="fill:#b2b2b2" d="M98,169 l-36,0 0,39 36,0 0,-39z" />
<path style="fill:#e5e5e5" d="M98,180 l-36,0 0,17 36,0 0,-17z" />
<path style="fill:none;stroke:#000;stroke-width:2" d="M98,150 l-36,0 0,78 36,0 0,-78" />
<path style="fill:#194c4c" d="M528,37 l0,25 307,0 0,-25 -307,0z" />
<path style="fill:#366" d="M549,37 l0,25 265,0 0,-25 -265,0z" />
<path style="fill:#4c7f7f" d="M578,37 l0,25 208,0 0,-25 -208,0z" />
<path style="fill:#699" d="M607,37 l0,25 152,0 0,-25 -152,0z" />
<path style="fill:#7fb2b2" d="M647,37 l0,25 70,0 0,-25 -70,0z" />
<path style="fill:none;stroke:#000;stroke-width:2" d="M528,37 l0,25 307,0 0,-25 -307,0" />

</svg>
