 

<svg xmlns:agg="http://www.example.com" xmlns="http://www.w3.org/2000/svg" preserveAspectRatio="none" width="1.6083in" height="0.6842in" viewBox="0 0 999 425">

<path style="fill:#999;stroke:#000;stroke-width:2" d="M867,198 l103,0 0,28 -103,0 0,-28z" />
<path style="fill:#ccc" d="M867,204 l103,0 0,15 -103,0 0,-15z" />
<path style="fill:#7f7f7f" d="M872,185 l0,54 -39,39 -39,0 0,-132 39,0 39,39z" />
<path style="fill:#a6a6a6" d="M873,193 l0,4 0,5 0,5 0,14 0,10 -10,6 -10,7 -10,7 -5,4 -5,3 -4,0 -10,0 -15,0 -5,0 -5,0 0,-6 0,-11 0,-12 0,-41 0,-11 0,-12 5,0 5,0 5,0 15,0 9,0 10,7 10,7 10,6 10,8z" />
<path style="fill:#ccc" d="M872,201 l0,22 -39,16 -39,0 0,-54 39,0 39,16z" />
<path style="fill:none;stroke:#000;stroke-width:2" d="M872,185 l0,54 -39,39 -39,0 0,-132 39,0 39,39" />
<path style="fill:#7f7f7f" d="M67,52 l118,0 0,319 -118,0 0,-319z" />
<path style="fill:#999" d="M67,86 l23,0 7,0 7,0 52,0 14,0 15,0 0,47 0,8 0,8 0,133 0,16 0,31 0,8 -7,0 -15,0 -15,0 -51,0 -15,0 -7,0 -8,0 0,-8 0,-39 1,-16 0,-133 -1,-16 0,-39z" />
<path style="fill:#b2b2b2" d="M67,121 l23,0 7,-1 7,0 52,0 14,1 15,0 0,34 0,11 0,11 0,80 0,11 0,23 0,11 -7,0 -15,0 -15,0 -51,0 -15,0 -7,0 -8,0 0,-11 0,-23 1,-11 0,-91 -1,-11 0,-34z" />
<path style="fill:#ccc" d="M67,155 l118,0 0,113 -118,0 0,-113z" />
<path style="fill:none;stroke:#000;stroke-width:2" d="M67,52 l118,0 0,319 -118,0 0,-319" />
<path style="fill:#7f7f7f" d="M186,36 l617,0 5,1 7,15 0,319 -7,15 -5,1 -617,0 -4,-1 -8,-15 0,-319 8,-15 4,-1z" />
<path style="fill:#999" d="M187,75 l116,0 19,0 19,0 328,0 38,0 97,0 12,28 0,31 0,7 0,8 0,132 0,31 -1,28 -9,7 -2,0 -19,0 -97,0 -39,0 -327,0 -39,0 -96,0 -12,-9 0,-3 0,-8 0,-38 0,-32 0,-116 0,-30 1,-28 11,-8z" />
<path style="fill:#b2b2b2" d="M187,115 l116,0 19,0 20,0 327,0 39,0 96,0 9,3 2,2 1,37 0,10 0,11 0,77 0,33 -1,15 -9,4 -2,1 -19,0 -97,0 -38,-1 -328,0 -39,1 -96,0 -7,-2 -4,-3 -1,-2 0,-2 0,-11 0,-33 0,-88 0,-32 1,-15 11,-5z" />
<path style="fill:#ccc" d="M187,155 l617,0 12,5 0,103 -10,5 -622,0 -10,-5 0,-103 13,-5z" />
<path style="fill:none;stroke:#000;stroke-width:2" d="M186,36 l617,0 5,1 7,15 0,319 -7,15 -5,1 -617,0 -4,-1 -8,-15 0,-319 8,-15 4,-1" />
<path style="fill:#000;stroke:#000;stroke-width:2" d="M466,397 l308,0 0,-18 -308,0 0,18z" />
<path style="fill:#b2b2b2;stroke:#000;stroke-width:2" d="M119,87 l722,0 0,12 -722,0 0,-12z" />
<path style="fill:#b2b2b2;stroke:#000;stroke-width:2" d="M119,357 l722,0 0,12 -722,0 0,-12z" />
<path style="fill:#f0f0f0;stroke:#000;stroke-width:2" d="M788,77 l39,0 0,32 -39,0 0,-32z" />
<path style="fill:#b2b2b2;stroke:#000;stroke-width:2" d="M788,347 l39,0 0,32 -39,0 0,-32z" />
<path style="fill:#f0f0f0;stroke:#000;stroke-width:2" d="M135,77 l39,0 0,32 -39,0 0,-32z" />
<path style="fill:#b2b2b2;stroke:#000;stroke-width:2" d="M135,347 l39,0 0,32 -39,0 0,-32z" />
<path style="fill:#7f7f7f" d="M42,28 l31,0 0,34 0,37 -1,30 0,117 0,34 0,116 -30,0 -14,-14 0,-340 14,-14z" />
<path style="fill:#e0e0e0;stroke:#000;stroke-width:2" d="M85,153 l324,0 14,14 0,156 -14,14 -324,0 -14,-14 0,-156 14,-14z" />
<path style="fill:#f0f0f0;stroke:#000;stroke-width:2" d="M95,161 l8,3 4,9 -1,4 -6,5 -5,1 -8,-3 -3,-3 -1,-4 4,-9 8,-3z" />
<path style="fill:none;stroke:#000;stroke-width:2" d="M85,165 l20,14" />
<path style="fill:#f0f0f0;stroke:#000;stroke-width:2" d="M95,305 l8,3 3,3 1,5 -4,8 -8,3 -8,-3 -4,-8 1,-5 7,-5 4,-1z" />
<path style="fill:none;stroke:#000;stroke-width:2" d="M85,310 l20,13" />
<circle style="fill:#f0f0f0;stroke:#000;stroke-width:2" cx="402" cy="172" r="11" />
<path style="fill:none;stroke:#000;stroke-width:2" d="M393,165 l18,14" />
<circle style="fill:#f0f0f0;stroke:#000;stroke-width:2" cx="402" cy="316" r="11" />
<path style="fill:none;stroke:#000;stroke-width:2" d="M393,310 l18,13" />
<path style="fill:#999" d="M43,70 l4,0 3,0 4,0 16,0 3,0 0,1 0,34 0,31 0,102 -1,38 0,76 0,1 -3,0 -29,0 -12,-9 0,-2 0,-8 0,-41 0,-32 0,-123 0,-32 1,-29 3,-4 11,-3z" />
<path style="fill:#b2b2b2" d="M43,113 l4,0 3,-1 4,0 12,0 4,1 3,0 0,2 0,6 0,37 0,17 0,105 -1,13 0,16 0,2 -3,0 -11,0 -12,0 -9,-1 -8,-4 -1,-1 0,-2 0,-12 0,-23 0,-11 0,-91 0,-12 0,-34 6,-6 9,-1z" />
<path style="fill:#ccc" d="M42,155 l31,0 0,11 0,15 -1,10 0,60 0,13 0,4 -33,0 -9,-1 -2,-2 0,-1 0,-104 0,-1 9,-3 5,-1z" />
<path style="fill:none;stroke:#000;stroke-width:2" d="M42,28 l30,0 0,368 -30,0 -14,-14 0,-340 14,-14" />

</svg>
