 

<svg xmlns:agg="http://www.example.com" xmlns="http://www.w3.org/2000/svg" preserveAspectRatio="none" width="1.6083in" height="0.8992in" viewBox="0 0 998 558">

<path style="fill:#000;stroke:#000;stroke-width:2" d="M65,519 l237,0 0,11 -237,0 0,-11z" />
<path style="fill:#e5e5e5;stroke:#000;stroke-width:2" d="M842,519 l-30,0 0,-391 30,0 0,391z" />
<path style="fill:none;stroke:#000;stroke-width:2" d="M28,126 l784,0 0,393 -784,0 0,-393" />
<path style="fill:#ccc;stroke:#000;stroke-width:2" d="M842,475 l-30,0 0,-304 30,0 0,304z" />
<path style="fill:#e5e5e5;stroke:#000;stroke-width:2" d="M842,441 l-30,0 0,-236 30,0 0,236z" />
<path style="fill:#999;stroke:#000;stroke-width:2" d="M857,472 l-15,0 0,-297 15,0 0,297z" />
<path style="fill:#ccc" d="M970,338 l-113,0 0,-29 113,0 0,29z" />
<path style="fill:#999" d="M970,338 l-113,0 0,-10 113,0 0,10z" />
<path style="fill:#fff" d="M970,319 l-113,0 0,-6 113,0 0,6z" />
<path style="fill:none;stroke:#000;stroke-width:2" d="M970,338 l-113,0 0,-29 113,0 0,29" />
<path style="fill:#d9d9d9" d="M32,515 l776,0 0,-30 -776,0 0,30z" />
<path style="fill:#e5e5e5" d="M32,432 l776,0 0,53 -776,0 0,-53z" />
<path style="fill:#f2f2f2" d="M32,432 l776,0 0,-110 -776,0 0,110z" />
<path style="fill:#f2f2f2" d="M32,166 l776,0 0,-34 -776,0 0,34z" />
<path style="fill:#fff;stroke:#000;stroke-width:2" d="M513,122 l182,0 0,113 -182,0 0,-113z" />
<path style="fill:#000;stroke:#000;stroke-width:2" d="M513,239 l182,0 0,-4 -182,0 0,4z" />
<path style="fill:#f60;stroke:#000;stroke-width:2" d="M621,122 l55,0 0,108 -55,0 0,-108z" />
<path style="fill:#f60;stroke:#000;stroke-width:2" d="M523,122 l54,0 0,98 -54,0 0,-98z" />
<path style="fill:#e5e5e5;stroke:#000;stroke-width:2" d="M581,122 l34,0 0,89 -34,0 0,-89z" />
<path style="fill:#f2f2f2;stroke:#000;stroke-width:2" d="M169,205 l250,0 0,-157 -250,0 0,157z" />
<path style="fill:#ccc;stroke:#000;stroke-width:2" d="M111,126 l43,0 0,393 -43,0 0,-393z" />
<path style="fill:#4c4c4c;stroke:#000;stroke-width:2" d="M115,126 l15,0 0,109 -15,0 0,-109z" />
<path style="fill:#4c4c4c;stroke:#000;stroke-width:2" d="M135,126 l16,0 0,109 -16,0 0,-109z" />
<path style="fill:#333;stroke:#000;stroke-width:2" d="M115,249 l15,0 0,153 -15,0 0,-153z" />
<path style="fill:#333;stroke:#000;stroke-width:2" d="M135,249 l16,0 0,153 -16,0 0,-153z" />
<path style="fill:#191919;stroke:#000;stroke-width:2" d="M115,417 l15,0 0,102 -15,0 0,-102z" />
<path style="fill:#191919;stroke:#000;stroke-width:2" d="M135,417 l16,0 0,102 -16,0 0,-102z" />
<path style="fill:#f2f2f2;stroke:#000;stroke-width:2" d="M547,519 l2,-12 1,-12 1,-12 1,-13 1,-12 1,-12 1,-13 2,-12 3,-9 3,-1 2,0 1,0 189,0 7,7 1,9 2,13 1,12 1,12 2,13 1,12 2,12 1,12 1,6 9,11 -245,0 6,-7 3,-4z" />
<path style="fill:#d9d9d9" d="M562,441 l0,11 0,10 1,16 1,14 2,10 3,11 6,6 2,0 5,0 162,0 1,0 8,-9 3,-13 1,-12 1,-15 0,-8 1,-10 0,-11 0,-24 -197,0 0,3 0,21z" />
<path style="fill:#fff;stroke:#000;stroke-width:2" d="M169,353 l59,0 0,-59 -59,0 0,59z" />
<path style="fill:#b2b2b2;stroke:#000;stroke-width:2" d="M200,298 l7,5 2,6 -5,8 -4,2 -8,-4 -4,-6 4,-8 8,-3z" />
<path style="fill:#fff;stroke:#000;stroke-width:2" d="M164,39 l260,0 0,9 -260,0 0,-9z" />
<path style="fill:#fff;stroke:#000;stroke-width:2" d="M185,28 l221,0 0,11 -221,0 0,-11z" />
<ellipse style="fill:#ccc;stroke:#000;stroke-width:2" cx="264" cy="124" rx="21" ry="23" />
<path style="fill:#7f7f7f;stroke:#000;stroke-width:2" d="M249,107 l34,0 0,34 -34,0 0,-34z" />

</svg>
