 

<svg xmlns:agg="http://www.example.com" xmlns="http://www.w3.org/2000/svg" preserveAspectRatio="none" width="1.6083in" height="1.0706in" viewBox="0 0 999 665">

<path style="fill:#7f7f7f;stroke:#000;stroke-width:2" d="M682,614 l20,-8 8,-17 0,-422 -8,-18 -20,-8 -551,0 -15,235 15,238 551,0z" />
<path style="fill:#7f7f7f;stroke:#000;stroke-width:2" d="M710,445 l0,-134 33,0 0,134 -33,0z" />
<path style="fill:#7f7f7f;stroke:#000;stroke-width:2" d="M970,414 l0,-73 -224,0 0,73 224,0z" />
<path style="fill:#b2b2b2" d="M970,404 l0,-43 -224,0 0,43 224,0z" />
<path style="fill:#f0f0f0" d="M970,351 l0,10 -224,0 0,-10 224,0z" />
<path style="fill:#b2b2b2;fill-rule:evenodd" d="M376,111 l0,53 16,0 0,-25 0,-28 22,-15 10,-25 -10,-31 -30,-12 -30,12 -13,31 10,25 25,15z M384,45 l-18,5 -10,21 10,17 18,5 18,-5 7,-17 -7,-21 -18,-5z " />
<path style="fill:none;stroke:#000;stroke-width:2" d="M376,111 l0,53 16,0 0,-25 0,-28 22,-15 10,-25 -10,-31 -30,-12 -30,12 -13,31 10,25 25,15" />
<path style="fill:none;stroke:#000;stroke-width:2" d="M384,45 l-18,5 -10,21 10,17 18,5 18,-5 7,-17 -7,-21 -18,-5" />
<path style="fill:#e5e5e5;stroke:#000;stroke-width:2" d="M131,126 l-2,43 553,0 13,-7 -23,-31 -12,-5 -529,0z" />
<path style="fill:#e5e5e5;stroke:#000;stroke-width:2" d="M129,174 l-3,41 564,0 5,-10 -13,-21 -25,-10 -528,0z" />
<path style="fill:#d1d1d1;stroke:#000;stroke-width:2" d="M126,225 l-2,30 566,0 5,-5 -35,-25 -534,0z" />
<path style="fill:#d1d1d1;stroke:#000;stroke-width:2" d="M124,273 l-3,30 569,0 5,-5 -38,-25 -533,0z" />
<path style="fill:#d1d1d1;stroke:#000;stroke-width:2" d="M119,318 l0,26 568,0 8,-6 -38,-20 -538,0z" />
<path style="fill:#b2b2b2;stroke:#000;stroke-width:2" d="M116,387 l0,-11 0,-10 544,0 37,21 -10,0 -571,0z" />
<path style="fill:#b2b2b2;stroke:#000;stroke-width:2" d="M119,412 l2,25 569,0 5,-5 -38,-20 -538,0z" />
<path style="fill:#b2b2b2;stroke:#000;stroke-width:2" d="M121,452 l3,33 563,0 3,-5 -33,-28 -536,0z" />
<path style="fill:#b2b2b2;stroke:#000;stroke-width:2" d="M124,500 l2,36 561,0 8,-8 -38,-28 -533,0z" />
<path style="fill:#b2b2b2;stroke:#000;stroke-width:2" d="M126,541 l3,40 558,0 8,-7 -38,-33 -531,0z" />
<path style="fill:#7f7f7f" d="M131,114 l-33,0 -25,10 -23,25 -5,7 86,0 0,-42z" />
<path style="fill:#7f7f7f" d="M35,566 l15,35 23,26 25,10 33,0 0,-71 -96,0z" />
<path style="fill:#b2b2b2" d="M45,156 l-12,31 0,13 96,0 2,-44 -86,0z" />
<path style="fill:#b2b2b2" d="M28,480 l0,35 5,49 2,2 96,0 -2,-86 -101,0z" />
<path style="fill:#e5e5e5" d="M33,200 l-5,32 0,21 101,0 0,-53 -96,0z" />
<path style="fill:#e5e5e5" d="M28,369 l0,-56 98,0 -2,56 -96,0z" />
<path style="fill:#f0f0f0" d="M28,313 l0,-60 101,0 -3,60 -98,0z" />
<path style="fill:#e0e0e0" d="M28,369 l0,7 0,53 98,0 -2,-53 0,-7 -96,0z" />
<path style="fill:#ccc" d="M28,480 l0,-51 98,0 3,51 -101,0z" />
<path style="fill:none;stroke:#000;stroke-width:2" d="M134,114 l-36,0 -25,10 -23,25 -15,38 -7,48 0,141 0,142 7,46 15,37 23,26 25,10 36,0 -10,-261 10,-262" />
<path style="fill:#000;stroke:#000;stroke-width:2" d="M293,346 l33,0 33,0 33,0 32,0 18,53 5,53 -5,53 -18,53 -32,0 -33,0 -33,0 -33,0 -8,-53 -5,-53 5,-53 8,-53z" />
<path style="fill:#f0f0f0;stroke:#000;stroke-width:2" d="M306,354 l32,0 33,0 33,0 33,0 18,53 7,53 -7,53 -18,53 -33,0 -33,0 -33,0 -32,0 -8,-53 -2,-53 2,-53 8,-53z" />

</svg>
