 

<svg xmlns:agg="http://www.example.com" xmlns="http://www.w3.org/2000/svg" preserveAspectRatio="none" width="1.6083in" height="0.8484in" viewBox="0 0 999 527">

<path style="fill:#4c4c4c" d="M279,429 l392,0 0,15 -392,0 0,-15z" />
<path style="fill:#333;stroke:#000;stroke-width:2" d="M311,498 l-40,-31 -8,-31 -31,0 -8,31 -39,31 126,0z" />
<path style="fill:#333;stroke:#000;stroke-width:2" d="M679,498 l-39,-31 -8,-31 -31,0 -8,31 -39,31 125,0z" />
<path style="fill:#7f7f7f" d="M279,467 l-251,-31 0,-377 251,-31 0,31 377,0 125,31 0,-31 32,0 0,126 157,0 0,126 -157,0 0,125 -32,0 0,-31 -125,31 -377,0 0,31z" />
<path style="fill:#999" d="M279,420 l-251,-25 0,-296 251,-25 0,25 377,0 126,25 0,-25 32,0 0,99 156,0 0,98 -156,0 0,99 -32,0 0,-25 -126,25 -377,0 0,25z" />
<path style="fill:#b2b2b2" d="M279,373 l-251,-18 0,-216 251,-18 0,18 377,0 126,18 0,-18 32,0 0,72 156,0 0,72 -156,0 0,72 -32,0 0,-18 -126,18 -377,0 0,18z" />
<path style="fill:#ccc" d="M279,326 l-251,-11 0,-136 251,-11 0,11 377,0 126,11 0,-11 32,0 0,46 156,0 0,44 -156,0 0,46 -32,0 0,-12 -126,12 -377,0 0,11z" />
<path style="fill:#e5e5e5" d="M279,279 l-251,-5 0,-54 251,-4 0,4 377,0 125,5 0,-5 32,0 0,18 157,0 0,18 -157,0 0,18 -32,0 0,-4 -125,4 -377,0 0,5z" />
<path style="fill:none;stroke:#000;stroke-width:2" d="M279,467 l-251,-31 0,-377 251,-31 0,31 377,0 125,31 0,-31 32,0 0,126 157,0 0,126 -157,0 0,125 -32,0 0,-31 -125,31 -377,0 0,31" />
<path style="fill:#4c4c4c" d="M279,59 l377,0 0,189 -377,0 0,-189z" />
<path style="fill:#e5e5e5" d="M279,201 l392,0 0,15 -392,0 0,-15z" />
<path style="fill:#ccc" d="M279,161 l392,0 0,16 -392,0 0,-16z" />
<path style="fill:#b2b2b2" d="M279,130 l392,0 0,16 -392,0 0,-16z" />
<path style="fill:#b2b2b2" d="M279,98 l392,0 0,16 -392,0 0,-16z" />
<path style="fill:#999" d="M279,67 l392,0 0,16 -392,0 0,-16z" />
<path style="fill:#999" d="M279,44 l392,0 0,15 -392,0 0,-15z" />
<path style="fill:#4c4c4c;stroke:#000;stroke-width:2" d="M294,436 l338,0 0,-117 -338,0 0,117z" />
<path style="fill:#666" d="M279,397 l392,0 0,16 -392,0 0,-16z" />
<path style="fill:#666" d="M279,421 l392,0 0,15 -392,0 0,-15z" />
<path style="fill:#b2b2b2;stroke:#000;stroke-width:2" d="M365,350 l196,0 0,133 -196,0 0,-133z" />
<path style="fill:#ccc;stroke:#000;stroke-width:2" d="M365,350 l16,-24 173,0 8,24 -197,0z" />
<path style="fill:none;stroke:#000;stroke-width:2" d="M279,436 l0,-377" />
<path style="fill:none;stroke:#000;stroke-width:2" d="M781,405 l0,-315" />
<path style="fill:none;stroke:#000;stroke-width:2" d="M813,311 l0,-126" />

</svg>
