 

<svg xmlns:agg="http://www.example.com" xmlns="http://www.w3.org/2000/svg" preserveAspectRatio="none" width="1.6083in" height="0.9080in" viewBox="0 0 999 564">

<path style="fill:#666" d="M74,359 l-9,0 0,-224 9,0 0,224z" />
<path style="fill:#b2b2b2;stroke:#000;stroke-width:2" d="M858,336 l-4,-14 -159,0 -5,14 168,0z" />
<path style="fill:#999" d="M672,322 l-75,-15 0,-176 75,-15 261,0 37,15 0,183 -37,8 -261,0z" />
<path style="fill:#bfbfbf" d="M672,299 l-75,-11 0,-139 75,-11 261,0 37,11 0,145 -37,5 -261,0z" />
<path style="fill:#e5e5e5" d="M672,270 l-75,-7 0,-88 75,-7 261,0 37,7 0,91 -37,4 -261,0z" />
<path style="fill:#f2f2f2" d="M672,230 l-75,-2 0,-18 75,-2 261,0 37,2 0,19 -37,1 -261,0z" />
<path style="fill:none;stroke:#000;stroke-width:2" d="M672,322 l-75,-15 0,-176 75,-15 261,0 37,15 0,183 -37,8 -261,0" />
<path style="fill:#333;stroke:#000;stroke-width:2" d="M868,160 l-187,0 0,162 187,0 0,-162z" />
<path style="fill:#e5e5e5" d="M872,233 l-196,0 0,8 196,0 0,-8z" />
<path style="fill:#e5e5e5" d="M872,256 l-196,0 0,7 196,0 0,-7z" />
<path style="fill:#e5e5e5" d="M872,168 l-196,0 0,7 196,0 0,-7z" />
<path style="fill:#e5e5e5" d="M872,190 l-196,0 0,7 196,0 0,-7z" />
<path style="fill:#bfbfbf" d="M872,274 l-196,0 0,7 196,0 0,-7z" />
<path style="fill:#bfbfbf" d="M872,288 l-196,0 0,8 196,0 0,-8z" />
<path style="fill:#999" d="M872,303 l-196,0 0,7 196,0 0,-7z" />
<path style="fill:#f2f2f2" d="M872,212 l-196,0 0,7 196,0 0,-7z" />
<path style="fill:none;stroke:#000;stroke-width:2" d="M933,322 l0,-206" />
<path style="fill:none;stroke:#000;stroke-width:2" d="M877,116 l0,206" />
<path style="fill:none;stroke:#000;stroke-width:2" d="M672,116 l0,206" />
<path style="fill:#d9d9d9;stroke:#000;stroke-width:2" d="M877,350 l0,-14 -56,0 0,-33 -93,0 0,33 -56,0 0,14 205,0z" />
<path style="fill:#b2b2b2;stroke:#000;stroke-width:2" d="M961,471 l-840,0 0,56 840,0 0,-56z" />
<path style="fill:#e5e5e5;stroke:#000;stroke-width:2" d="M952,462 l-19,-108 -317,0 0,-32 -225,0 0,-29 -205,0 0,169 766,0z" />
<path style="fill:#999;stroke:#000;stroke-width:2" d="M186,88 l-112,0 0,355 112,0 0,-355z" />
<path style="fill:#a6a6a6" d="M168,37 l-75,0 0,359 75,0 0,-359z" />
<circle style="fill:#333" cx="830" cy="410" r="28" />
<path style="fill:#b2b2b2;stroke:#000;stroke-width:2" d="M597,256 l-19,0 0,-75 19,0 0,75z" />
<circle style="fill:#333" cx="569" cy="373" r="28" />
<circle style="fill:#333" cx="279" cy="345" r="28" />
<path style="fill:#fff" d="M373,359 l-47,0 0,19 47,0 0,-19z" />
<path style="fill:#fff" d="M373,312 l-47,0 0,38 47,0 0,-38z" />
<path style="fill:#900" d="M363,364 l-27,0 0,9 27,0 0,-9z" />
<path style="fill:#ccc;stroke:#000;stroke-width:2" d="M578,312 l0,-158 -93,0 0,32 -56,0 0,-23 -243,0 0,65 28,56 177,0 0,28 187,0z" />
<path style="fill:#bfbfbf" d="M168,37 l-75,0 0,317 75,0 0,-317z" />
<path style="fill:#d9d9d9" d="M168,37 l-75,0 0,252 75,0 0,-252z" />
<path style="fill:#f2f2f2" d="M168,37 l-75,0 0,163 75,0 0,-163z" />
<path style="fill:none;stroke:#000;stroke-width:2" d="M167,424 l0,-387 -74,0 0,387" />
<path style="fill:#b2b2b2;stroke:#000;stroke-width:2" d="M751,126 l5,-19 -122,0 5,19 112,0z" />
<path style="fill:#e5e5e5;stroke:#000;stroke-width:2" d="M756,102 l-10,-28 -102,0 -10,28 122,0z" />
<path style="fill:#f2f2f2;stroke:#000;stroke-width:2" d="M765,102 l-140,0 0,5 140,0 0,-5z" />
<path style="fill:none;stroke:#fff;stroke-width:2" d="M560,293 l0,-37 -47,0" />
<path style="fill:none;stroke:#000;stroke-width:2" d="M513,256 l0,37 46,0" />
<path style="fill:none;stroke:#fff;stroke-width:2" d="M252,266 l0,-19 -37,0" />
<path style="fill:none;stroke:#000;stroke-width:2" d="M214,247 l0,19 37,0" />
<path style="fill:none;stroke:#999;stroke-width:2" d="M373,350 l0,-38 -47,0" />
<path style="fill:none;stroke:#999;stroke-width:2" d="M373,378 l0,-19 -47,0" />
<path style="fill:#f2f2f2;stroke:#000;stroke-width:2" d="M396,294 l0,-10 -210,0 0,10 210,0z" />
<path style="fill:#f2f2f2;stroke:#000;stroke-width:2" d="M620,322 l0,-10 -229,0 0,10 229,0z" />
<path style="fill:#f2f2f2;stroke:#000;stroke-width:2" d="M938,354 l0,-9 -322,0 0,9 322,0z" />
<path style="fill:#f2f2f2;stroke:#000;stroke-width:2" d="M970,527 l-858,0 0,9 858,0 0,-9z" />
<path style="fill:#f2f2f2;stroke:#000;stroke-width:2" d="M970,462 l-858,0 0,9 858,0 0,-9z" />
<path style="fill:#d9d9d9;stroke:#000;stroke-width:2" d="M177,28 l-94,0 0,9 94,0 0,-9z" />
<path style="fill:#d9d9d9;stroke:#000;stroke-width:2" d="M177,144 l-94,0 0,9 94,0 0,-9z" />
<path style="fill:#d9d9d9;stroke:#000;stroke-width:2" d="M177,256 l-94,0 0,10 94,0 0,-10z" />
<path style="fill:#d9d9d9;stroke:#000;stroke-width:2" d="M177,364 l-94,0 0,9 94,0 0,-9z" />
<path style="fill:#7f7f7f" d="M65,462 l-28,0 0,-430 28,0 0,430z" />
<path style="fill:#969696" d="M65,419 l-28,0 0,-345 28,0 0,345z" />
<path style="fill:#ababab" d="M65,377 l-28,0 0,-261 28,0 0,261z" />
<path style="fill:#c2c2c2" d="M65,335 l-28,0 0,-177 28,0 0,177z" />
<path style="fill:#d9d9d9" d="M65,293 l-28,0 0,-93 28,0 0,93z" />
<path style="fill:none;stroke:#000;stroke-width:2" d="M65,462 l-28,0 0,-430 28,0 0,430" />
<path style="fill:#ccc;stroke:#000;stroke-width:2" d="M37,51 l-9,0 0,27 9,0 0,-27z" />
<path style="fill:#ccc;stroke:#000;stroke-width:2" d="M37,124 l-9,0 0,27 9,0 0,-27z" />
<path style="fill:#ccc;stroke:#000;stroke-width:2" d="M37,197 l-9,0 0,27 9,0 0,-27z" />
<path style="fill:#ccc;stroke:#000;stroke-width:2" d="M37,270 l-9,0 0,27 9,0 0,-27z" />
<path style="fill:#ccc;stroke:#000;stroke-width:2" d="M37,342 l-9,0 0,28 9,0 0,-28z" />
<path style="fill:#ccc;stroke:#000;stroke-width:2" d="M37,415 l-9,0 0,28 9,0 0,-28z" />

</svg>
