 

<svg xmlns:agg="http://www.example.com" xmlns="http://www.w3.org/2000/svg" preserveAspectRatio="none" width="1.6083in" height="0.9766in" viewBox="0 0 998 606">

<path style="fill:#369" d="M891,27 l-864,0 0,551 864,0 0,-551z" />
<path style="fill:#2e6194" d="M891,418 l-864,-230 0,390 864,0 0,-160z" />
<path style="fill:#295c8f" d="M891,442 l-864,-230 0,366 864,0 0,-136z" />
<path style="fill:#24578a" d="M891,476 l-864,-230 0,332 864,0 0,-102z" />
<path style="fill:none;stroke:#000;stroke-width:2" d="M891,27 l-864,0 0,551 864,0 0,-551" />
<path style="fill:#666" d="M818,412 l22,-41 12,-46 0,-45 -12,-45 -22,-40 -34,-34 -40,-22 -45,-12 -47,0 -44,12 -41,22 251,251z" />
<path style="fill:#ccc" d="M608,467 l44,13 47,0 45,-13 40,-23 -249,-249 -25,40 -11,45 0,45 11,46 25,41 32,32 41,23z" />
<path style="fill:#999" d="M784,444 l34,-32 -251,-251 -32,34 249,249z" />
<path style="fill:none;stroke:#000;stroke-width:2" d="M608,467 l44,13 47,0 45,-13 40,-23 34,-32 22,-41 12,-46 0,-45 -12,-45 -22,-40 -34,-34 -40,-22 -45,-12 -47,0 -44,12 -41,22 -32,34 -25,40 -11,45 0,45 11,46 25,41 32,32 41,23" />
<path style="fill:#002659;stroke:#000;stroke-width:2" d="M616,450 l39,9 42,0 40,-9 35,-21 29,-30 20,-36 12,-40 0,-41 -12,-40 -20,-35 -29,-28 -35,-21 -40,-12 -42,0 -39,12 -38,21 -28,28 -21,35 -11,40 0,41 11,40 21,36 30,30 36,21z" />
<path style="fill:#00194c" d="M812,382 l9,-19 -292,0 12,19 271,0z" />
<path style="fill:#66f" d="M833,309 l0,-10 -166,0 0,10 166,0z" />
<path style="fill:#000" d="M663,320 l15,3 62,101 8,-4 -55,-104 4,-15 100,-62 -4,-8 -105,55 -15,-4 -63,-100 -7,4 56,104 -4,17 -99,62 3,5 104,-54z" />
<path style="fill:none;stroke:#b2b2b2;stroke-width:2" d="M748,420 l-55,-104 4,-15 100,-62 -4,-8 -105,55 -15,-4 -63,-100 -7,4 56,104 -4,17 -99,62" />
<path style="fill:#fff" d="M801,237 l-4,-10 -4,2 4,10 4,-2z" />
<path style="fill:#fff" d="M559,376 l-5,-9 -4,4 6,7 3,-2z" />
<path style="fill:#fff" d="M742,429 l10,-5 -4,-4 -8,6 2,3z" />
<path style="fill:#fff" d="M603,186 l7,-4 -2,-5 -7,5 2,4z" />
<path style="fill:none;stroke:#036;stroke-width:2" d="M459,27 l0,545" />
<path style="fill:#002659" d="M322,67 l-255,0 0,472 255,0 0,-472z" />
<path style="fill:#334c66" d="M107,86 l215,0 0,-19 -255,0 40,19z" />
<path style="fill:#003" d="M823,558 l-15,0 0,11 15,0 0,-11z" />
<path style="fill:#003" d="M705,558 l-16,0 0,11 16,0 0,-11z" />
<path style="fill:#003" d="M586,558 l-15,0 0,11 15,0 0,-11z" />
<path style="fill:#003" d="M467,558 l-15,0 0,11 15,0 0,-11z" />
<path style="fill:#003" d="M348,558 l-15,0 0,11 15,0 0,-11z" />
<path style="fill:#003" d="M231,558 l-17,0 0,11 17,0 0,-11z" />
<path style="fill:#003" d="M112,558 l-15,0 0,11 15,0 0,-11z" />
<path style="fill:#003" d="M823,39 l-15,0 0,9 15,0 0,-9z" />
<path style="fill:#003" d="M705,39 l-16,0 0,9 16,0 0,-9z" />
<path style="fill:#003" d="M586,39 l-15,0 0,9 15,0 0,-9z" />
<path style="fill:#003" d="M467,39 l-15,0 0,9 15,0 0,-9z" />
<path style="fill:#003" d="M348,39 l-15,0 0,9 15,0 0,-9z" />
<path style="fill:#003" d="M231,39 l-17,0 0,9 17,0 0,-9z" />
<path style="fill:#003" d="M112,39 l-15,0 0,9 15,0 0,-9z" />
<path style="fill:none;stroke:#9cf;stroke-width:2" d="M823,39 l-15,0" />
<path style="fill:none;stroke:#9cf;stroke-width:2" d="M705,39 l-16,0" />
<path style="fill:none;stroke:#9cf;stroke-width:2" d="M586,39 l-15,0" />
<path style="fill:none;stroke:#9cf;stroke-width:2" d="M467,39 l-15,0" />
<path style="fill:none;stroke:#9cf;stroke-width:2" d="M348,39 l-15,0" />
<path style="fill:none;stroke:#9cf;stroke-width:2" d="M229,39 l-13,0" />
<path style="fill:none;stroke:#9cf;stroke-width:2" d="M110,39 l-13,0" />
<path style="fill:none;stroke:#9cf;stroke-width:2" d="M823,558 l-15,0" />
<path style="fill:none;stroke:#9cf;stroke-width:2" d="M705,558 l-16,0" />
<path style="fill:none;stroke:#9cf;stroke-width:2" d="M586,558 l-15,0" />
<path style="fill:none;stroke:#9cf;stroke-width:2" d="M467,558 l-15,0" />
<path style="fill:none;stroke:#9cf;stroke-width:2" d="M348,558 l-15,0" />
<path style="fill:none;stroke:#9cf;stroke-width:2" d="M229,558 l-13,0" />
<path style="fill:none;stroke:#9cf;stroke-width:2" d="M110,558 l-13,0" />
<path style="fill:#194c7f" d="M882,186 l9,0 0,236 -9,0 0,-236z" />
<path style="fill:#369;stroke:#000;stroke-width:2" d="M971,186 l-80,0 0,236 80,0 0,-236z" />
<path style="fill:none;stroke:#000;stroke-width:2" d="M956,343 l0,-80" />
<path style="fill:none;stroke:#000;stroke-width:2" d="M946,263 l0,80" />
<path style="fill:none;stroke:#000;stroke-width:2" d="M936,343 l0,-80" />
<path style="fill:none;stroke:#000;stroke-width:2" d="M927,263 l0,80" />
<path style="fill:none;stroke:#000;stroke-width:2" d="M916,343 l0,-80" />
<path style="fill:none;stroke:#000;stroke-width:2" d="M906,263 l0,80" />
<path style="fill:#66f;stroke:#000;stroke-width:2" d="M891,410 l-18,-9 0,-92 -19,0 0,-12 28,0 0,95 9,5 0,13z" />
<path style="fill:#4c657f" d="M107,539 l0,-453 -40,-19 0,472 40,0z" />
<path style="fill:none;stroke:#000;stroke-width:2" d="M322,67 l-255,0 0,472 255,0 0,-472" />
<path style="fill:none;stroke:#000;stroke-width:2" d="M925,224 l6,-6 0,-8 -6,-5 -7,0 -6,5 0,8 6,6 7,0" />

</svg>
