 

<svg xmlns:agg="http://www.example.com" xmlns="http://www.w3.org/2000/svg" preserveAspectRatio="none" width="1.1673in" height="1.0750in" viewBox="0 0 999 920">

<path style="fill:#a6a6a6;stroke:#000;stroke-width:2" d="M970,106 l-785,0 0,786 785,0 0,-786z" />
<path style="fill:none;stroke:#000;stroke-width:2" d="M931,852 l0,-706 -707,0" />
<path style="fill:none;stroke:#fff;stroke-width:2" d="M224,146 l0,706 707,0" />
<path style="fill:none;stroke:#000;stroke-width:2" d="M244,165 l0,668 667,0" />
<path style="fill:none;stroke:#fff;stroke-width:2" d="M911,833 l0,-668 -667,0" />
<path style="fill:#7f7f7f;stroke:#000;stroke-width:2" d="M185,106 l-157,-78 0,785 157,79 0,-786z" />
<path style="fill:#ccc;stroke:#000;stroke-width:2" d="M185,106 l-157,-78 785,0 157,78 -785,0z" />
<circle style="fill:#8c8c8c;stroke:#000;stroke-width:2" cx="577" cy="499" r="235" />
<circle style="fill:#4c4c4c" cx="577" cy="499" r="137" />
<path style="fill:#b2b2b2;stroke:#000;stroke-width:2" d="M619,540 l17,-41 -17,-42 -42,-17 -42,17 -17,42 17,41 42,18 42,-18z" />
<path style="fill:#7f7f7f" d="M605,527 l12,-28 -12,-28 -28,-12 -28,12 -11,28 11,28 28,11 28,-11z" />
<path style="fill:none;stroke:#fff;stroke-width:2" d="M779,700 l18,-20 17,-23 14,-24 12,-25 10,-26 7,-27 4,-28 1,-14 0,-14 0,-15 -3,-28 -6,-28 -8,-27 -11,-25 -13,-24 -15,-23 -18,-21 -19,-19 -22,-18 -22,-15 -24,-13 -26,-11 -26,-9 -28,-5 -29,-3 -14,-1 -14,1 -28,3 -28,5 -26,8 -26,11 -25,13 -23,16 -21,17 -11,10" />
<path style="fill:none;stroke:#7f7f7f;stroke-width:2" d="M376,298 l-18,20 -17,23 -14,24 -12,25 -10,26 -6,27 -5,28 -1,14 0,14 0,15 3,28 6,28 8,27 11,25 13,24 15,23 18,21 19,19 22,18 22,15 24,13 26,11 27,9 27,5 29,3 15,1 13,-1 28,-3 28,-5 26,-8 26,-11 25,-13 23,-16 22,-17 10,-10" />
<path style="fill:none;stroke:#000;stroke-width:2" d="M970,892 l-39,-40" />
<path style="fill:none;stroke:#000;stroke-width:2" d="M224,852 l-39,40" />
<path style="fill:none;stroke:#000;stroke-width:2" d="M224,146 l-39,-40" />
<path style="fill:none;stroke:#000;stroke-width:2" d="M931,146 l39,-40" />
<path style="fill:#e5e5e5" d="M827,512 l12,4 11,-4 5,-12 -5,-11 -11,-5 -12,5 -4,11 4,12z" />
<path style="fill:#e5e5e5" d="M763,331 l12,-4 4,-12 -4,-11 -12,-5 -11,5 -5,11 5,11 11,5z" />
<path style="fill:#e5e5e5" d="M590,249 l5,-11 -5,-12 -12,-4 -11,4 -4,12 4,11 11,5 12,-5z" />
<path style="fill:#e5e5e5" d="M409,313 l-4,-11 -11,-5 -12,5 -4,11 4,12 12,4 11,-4 4,-12z" />
<path style="fill:#e5e5e5" d="M328,486 l-12,-4 -11,4 -5,12 5,11 11,5 12,-5 4,-11 -4,-12z" />
<path style="fill:#e5e5e5" d="M392,667 l-11,4 -5,12 5,11 11,5 11,-5 5,-11 -5,-11 -11,-5z" />
<path style="fill:#e5e5e5" d="M565,749 l-5,11 5,12 11,4 12,-4 4,-12 -4,-11 -12,-5 -11,5z" />
<path style="fill:#e5e5e5" d="M745,685 l5,11 11,5 12,-5 5,-11 -5,-12 -12,-4 -11,4 -5,12z" />

</svg>
