 

<svg xmlns:agg="http://www.example.com" xmlns="http://www.w3.org/2000/svg" preserveAspectRatio="none" width="1.6083in" height="0.8613in" viewBox="0 0 999 535">

<path style="fill:#7f7f7f;stroke:#000;stroke-width:2" d="M193,491 l-99,0 -42,-9 -24,-21 0,-404 25,-22 41,-7 99,0 0,463z" />
<path style="fill:#000;stroke:#000;stroke-width:2" d="M193,36 l8,0 0,455 -8,0 0,-455z" />
<path style="fill:#7f7f7f;stroke:#000;stroke-width:2" d="M193,491 l-99,-1 -42,-8 -24,-22 0,-404 25,-21 41,-7 99,0 0,463z" />
<path style="fill:#7f7f7f;stroke:#000;stroke-width:2" d="M656,474 l99,0 42,-8 24,-20 0,-375 -25,-20 -41,-7 -99,0 0,430z" />
<path style="fill:#7f7f7f;stroke:#000;stroke-width:2" d="M201,28 l455,0 0,463 -455,0 0,-463z" />
<path style="fill:#000;stroke:#000;stroke-width:2" d="M648,482 l-207,0 0,-256 207,0 0,256z" />
<path style="fill:#7f7f7f;stroke:#000;stroke-width:2" d="M449,466 l9,-174 173,0 9,174 -191,0z" />
<path style="fill:#fff;stroke:#000;stroke-width:2" d="M458,292 l9,-50 155,0 9,50 -173,0z" />
<path style="fill:#f00;stroke:#000;stroke-width:2" d="M532,251 l-8,16 41,0 -8,-16 -25,0z" />
<circle style="fill:#7f7f7f;stroke:#000;stroke-width:2" cx="454" cy="238" r="4" />
<path style="fill:none;stroke:#000;stroke-width:2" d="M458,242 l-9,-8" />
<circle style="fill:#7f7f7f;stroke:#000;stroke-width:2" cx="635" cy="238" r="4" />
<path style="fill:none;stroke:#000;stroke-width:2" d="M639,242 l-8,-8" />
<circle style="fill:#7f7f7f;stroke:#000;stroke-width:2" cx="454" cy="470" r="4" />
<path style="fill:none;stroke:#000;stroke-width:2" d="M458,474 l-9,-8" />
<circle style="fill:#7f7f7f;stroke:#000;stroke-width:2" cx="635" cy="470" r="4" />
<path style="fill:none;stroke:#000;stroke-width:2" d="M639,474 l-8,-8" />
<path style="fill:#000;stroke:#000;stroke-width:2" d="M210,151 l438,0 0,17 -438,0 0,-17z" />
<path style="fill:#000;stroke:#000;stroke-width:2" d="M210,176 l438,0 0,17 -438,0 0,-17z" />
<path style="fill:#000;stroke:#000;stroke-width:2" d="M210,201 l438,0 0,17 -438,0 0,-17z" />
<path style="fill:#000;stroke:#000;stroke-width:2" d="M210,226 l222,0 0,16 -222,0 0,-16z" />
<path style="fill:#000;stroke:#000;stroke-width:2" d="M210,251 l223,0 0,16 -223,0 0,-16z" />
<path style="fill:#000;stroke:#000;stroke-width:2" d="M210,276 l223,0 0,16 -223,0 0,-16z" />
<path style="fill:#000;stroke:#000;stroke-width:2" d="M210,300 l223,0 0,17 -223,0 0,-17z" />
<path style="fill:#000;stroke:#000;stroke-width:2" d="M210,325 l223,0 0,17 -223,0 0,-17z" />
<path style="fill:#000;stroke:#000;stroke-width:2" d="M210,350 l223,0 0,17 -223,0 0,-17z" />
<path style="fill:#000;stroke:#000;stroke-width:2" d="M210,383 l223,0 0,8 -223,0 0,-8z" />
<path style="fill:#000;stroke:#000;stroke-width:2" d="M210,408 l223,0 0,8 -223,0 0,-8z" />
<path style="fill:#000;stroke:#000;stroke-width:2" d="M210,433 l223,0 0,8 -223,0 0,-8z" />
<path style="fill:#000;stroke:#000;stroke-width:2" d="M210,458 l223,0 0,0 -223,0 0,0z" />
<path style="fill:#000;stroke:#000;stroke-width:2" d="M209,135 l439,0 0,-8 -439,0 0,8z" />
<path style="fill:#000;stroke:#000;stroke-width:2" d="M209,110 l439,0 0,-8 -439,0 0,8z" />
<path style="fill:#000;stroke:#000;stroke-width:2" d="M209,85 l439,0 0,-8 -439,0 0,8z" />
<path style="fill:#f00;stroke:#7f7f7f;stroke-width:2" d="M367,152 l41,0 0,24 -41,0 0,-24z" />
<path style="fill:#f00;stroke:#7f7f7f;stroke-width:2" d="M425,152 l41,0 0,24 -41,0 0,-24z" />
<path style="fill:#000;stroke:#000;stroke-width:2" d="M656,151 l165,0 0,17 -165,0 0,-17z" />
<path style="fill:#000;stroke:#000;stroke-width:2" d="M656,176 l165,0 0,17 -165,0 0,-17z" />
<path style="fill:#000;stroke:#000;stroke-width:2" d="M656,201 l165,0 0,17 -165,0 0,-17z" />
<path style="fill:#000;stroke:#000;stroke-width:2" d="M656,226 l165,0 0,16 -165,0 0,-16z" />
<path style="fill:#000;stroke:#000;stroke-width:2" d="M656,251 l165,0 0,16 -165,0 0,-16z" />
<path style="fill:#000;stroke:#000;stroke-width:2" d="M656,276 l165,0 0,16 -165,0 0,-16z" />
<path style="fill:#000;stroke:#000;stroke-width:2" d="M656,300 l165,0 0,17 -165,0 0,-17z" />
<path style="fill:#000;stroke:#000;stroke-width:2" d="M656,325 l165,0 0,17 -165,0 0,-17z" />
<path style="fill:#000;stroke:#000;stroke-width:2" d="M656,350 l165,0 0,17 -165,0 0,-17z" />
<path style="fill:#000;stroke:#000;stroke-width:2" d="M656,383 l165,0 0,8 -165,0 0,-8z" />
<path style="fill:#000;stroke:#000;stroke-width:2" d="M656,408 l165,0 0,8 -165,0 0,-8z" />
<path style="fill:#000;stroke:#000;stroke-width:2" d="M656,135 l165,0 0,-8 -165,0 0,8z" />
<path style="fill:#000;stroke:#000;stroke-width:2" d="M656,110 l165,0 0,-8 -165,0 0,8z" />
<path style="fill:#000;stroke:#000;stroke-width:2" d="M160,491 l529,0 0,16 -529,0 0,-16z" />
<path style="fill:#fff;stroke:#000;stroke-width:2" d="M821,284 l149,0 0,-50 -149,0 0,50z" />
<path style="fill:#7f7f7f;stroke:#7f7f7f;stroke-width:2" d="M830,267 l132,0 0,9 -132,0 0,-9z" />

</svg>
