 

<svg xmlns:agg="http://www.example.com" xmlns="http://www.w3.org/2000/svg" preserveAspectRatio="none" width="1.3081in" height="1.0750in" viewBox="0 0 999 821">

<path style="fill:#43a143;fill-rule:evenodd" d="M311,750 l417,0 0,43 -417,0 0,-43z M777,176 l-33,-23 0,382 33,-23 0,-336z M712,106 l32,0 0,476 -32,0 0,-476z M715,88 l-216,0 0,662 216,0 0,-662z M447,28 l52,0 0,722 -52,0 0,-722z M311,28 l0,633 136,0 0,-633 -136,0z M263,28 l48,0 0,633 -48,0 0,-633z M263,342 l-188,0 0,-211 188,0 0,211z M113,174 l117,0 6,2 7,2 2,5 3,4 0,72 -3,4 -2,5 -7,2 -6,0 -117,0 -7,0 -6,-2 -5,-5 -2,-4 0,-72 2,-4 5,-5 6,-2 7,-2z M28,50 l47,0 0,588 -47,0 0,-588z " />
<path style="fill:none;stroke:#000;stroke-width:2" d="M311,750 l417,0 0,43 -417,0 0,-43" />
<path style="fill:none;stroke:#000;stroke-width:2" d="M777,176 l-33,-23 0,382 33,-23 0,-336" />
<path style="fill:none;stroke:#000;stroke-width:2" d="M712,106 l32,0 0,476 -32,0 0,-476" />
<path style="fill:none;stroke:#000;stroke-width:2" d="M715,88 l-216,0 0,662 216,0 0,-662" />
<path style="fill:none;stroke:#000;stroke-width:2" d="M447,28 l52,0 0,722 -52,0 0,-722" />
<path style="fill:none;stroke:#000;stroke-width:2" d="M447,28 l-136,0 0,633 136,0 0,-633" />
<path style="fill:none;stroke:#000;stroke-width:2" d="M263,28 l48,0 0,633 -48,0 0,-633" />
<path style="fill:none;stroke:#000;stroke-width:2" d="M263,342 l-188,0 0,-211 188,0 0,211" />
<path style="fill:none;stroke:#000;stroke-width:2" d="M113,174 l117,0 6,2 7,2 2,5 3,4 0,72 -3,4 -2,5 -7,2 -6,0 -117,0 -7,0 -6,-2 -5,-5 -2,-4 0,-72 2,-4 5,-5 6,-2 7,-2" />
<path style="fill:none;stroke:#000;stroke-width:2" d="M28,50 l47,0 0,588 -47,0 0,-588" />
<path style="fill:#005e00;fill-rule:evenodd" d="M30,535 l45,0 0,103 -45,0 0,-103z M75,353 l188,0 0,204 -188,0 0,-204z M113,407 l117,0 6,2 7,2 2,5 3,4 0,72 -3,5 -2,4 -7,2 -6,3 -117,0 -7,-3 -6,-2 -5,-4 -2,-5 0,-72 2,-4 5,-5 6,-2 7,-2z M268,589 l40,0 0,72 -40,0 0,-72z M441,589 l-124,0 0,72 124,0 0,-72z M712,530 l29,0 0,52 -29,0 0,-52z " />
<path style="fill:#82e082" d="M715,113 l22,0 0,34 -22,0 0,-34z" />
<path style="fill:#82e082" d="M708,104 l-204,0 0,52 204,0 0,-52z" />
<path style="fill:#82e082" d="M450,46 l47,0 0,58 -47,0 0,-58z" />
<path style="fill:#82e082" d="M443,39 l-128,0 0,72 128,0 0,-72z" />
<path style="fill:#82e082" d="M268,39 l40,0 0,72 -40,0 0,-72z" />
<path style="fill:#82e082" d="M263,326 l-188,0 0,36 188,0 0,-36z" />
<path style="fill:#82e082" d="M30,63 l45,0 0,75 -45,0 0,-75z" />
<path style="fill:#7f7f7f;stroke:#000;stroke-width:2" d="M744,138 l15,0 0,6 -15,0 0,-6z" />
<path style="fill:#7f7f7f;stroke:#000;stroke-width:2" d="M744,313 l15,0 0,6 -15,0 0,-6z" />
<path style="fill:#7f7f7f;stroke:#000;stroke-width:2" d="M744,497 l15,0 0,9 -15,0 0,-9z" />
<path style="fill:#7f7f7f;stroke:#000;stroke-width:2" d="M501,72 l25,0 0,14 -25,0 0,-14z" />
<path style="fill:#7f7f7f;stroke:#000;stroke-width:2" d="M501,335 l25,0 0,14 -25,0 0,-14z" />
<path style="fill:#7f7f7f;stroke:#000;stroke-width:2" d="M501,589 l25,0 0,13 -25,0 0,-13z" />
<path style="fill:#7f7f7f;stroke:#000;stroke-width:2" d="M239,72 l24,0 0,14 -24,0 0,-14z" />
<path style="fill:#7f7f7f;stroke:#000;stroke-width:2" d="M239,335 l24,0 0,14 -24,0 0,-14z" />
<path style="fill:#7f7f7f;stroke:#000;stroke-width:2" d="M239,589 l24,0 0,13 -24,0 0,-13z" />
<path style="fill:#7f7f7f;stroke:#000;stroke-width:2" d="M777,272 l193,0 0,130 -193,0 0,-130z" />
<path style="fill:#f0f0f0" d="M777,279 l191,0 0,101 -191,0 0,-101z" />
<path style="fill:#f0f0f0" d="M744,117 l15,0 0,5 -15,0 0,-5z" />
<path style="fill:#f0f0f0" d="M744,292 l15,0 0,7 -15,0 0,-7z" />
<path style="fill:#f0f0f0" d="M744,476 l15,0 0,7 -15,0 0,-7z" />
<path style="fill:#f0f0f0" d="M501,553 l25,0 0,11 -25,0 0,-11z" />
<path style="fill:#f0f0f0" d="M239,553 l24,0 0,11 -24,0 0,-11z" />
<path style="fill:#f0f0f0" d="M501,299 l25,0 0,12 -25,0 0,-12z" />
<path style="fill:#f0f0f0" d="M239,299 l24,0 0,12 -24,0 0,-12z" />
<path style="fill:#f0f0f0" d="M501,37 l25,0 0,11 -25,0 0,-11z" />
<path style="fill:#f0f0f0" d="M239,37 l24,0 0,11 -24,0 0,-11z" />
<path style="fill:#fff" d="M777,286 l191,0 0,18 -191,0 0,-18z" />
<path style="fill:#b2b2b2;stroke:#000;stroke-width:2" d="M744,138 l15,0 0,-16 -15,0 0,16z" />
<path style="fill:#b2b2b2;stroke:#000;stroke-width:2" d="M744,313 l15,0 0,-14 -15,0 0,14z" />
<path style="fill:#b2b2b2;stroke:#000;stroke-width:2" d="M744,497 l15,0 0,-14 -15,0 0,14z" />
<path style="fill:#b2b2b2;stroke:#000;stroke-width:2" d="M501,589 l25,0 0,-25 -25,0 0,25z" />
<path style="fill:#b2b2b2;stroke:#000;stroke-width:2" d="M239,589 l24,0 0,-25 -24,0 0,25z" />
<path style="fill:#b2b2b2;stroke:#000;stroke-width:2" d="M501,335 l25,0 0,-24 -25,0 0,24z" />
<path style="fill:#b2b2b2;stroke:#000;stroke-width:2" d="M239,335 l24,0 0,-24 -24,0 0,24z" />
<path style="fill:#b2b2b2;stroke:#000;stroke-width:2" d="M501,72 l25,0 0,-24 -25,0 0,24z" />
<path style="fill:#b2b2b2;stroke:#000;stroke-width:2" d="M239,72 l24,0 0,-24 -24,0 0,24z" />

</svg>
