 

<svg xmlns:agg="http://www.example.com" xmlns="http://www.w3.org/2000/svg" preserveAspectRatio="none" width="1.4024in" height="1.0750in" viewBox="0 0 998 765">

<path style="fill:#ccc" d="M970,28 l-942,0 0,709 942,0 0,-709z" />
<path style="fill:#c7c7c7" d="M970,531 l-942,-296 0,502 942,0 0,-206z" />
<path style="fill:#c2c2c2" d="M970,559 l-942,-294 0,472 942,0 0,-178z" />
<path style="fill:#bdbdbd" d="M970,604 l-942,-295 0,428 942,0 0,-133z" />
<path style="fill:#ccc" d="M951,48 l-904,0 0,628 904,0 0,-628z" />
<path style="fill:#c7c7c7" d="M499,493 l-452,-262 0,445 452,0 0,-183z" />
<path style="fill:#c7c7c7" d="M951,495 l-452,-264 0,445 452,0 0,-181z" />
<path style="fill:#c2c2c2" d="M499,522 l-452,-264 0,418 452,0 0,-154z" />
<path style="fill:#c2c2c2" d="M951,522 l-452,-264 0,418 452,0 0,-154z" />
<path style="fill:#bdbdbd" d="M499,559 l-452,-262 0,379 452,0 0,-117z" />
<path style="fill:#bdbdbd" d="M951,559 l-452,-262 0,379 452,0 0,-117z" />
<path style="fill:none;stroke:#000;stroke-width:2" d="M970,28 l-942,0 0,709 942,0 0,-709" />
<path style="fill:none;stroke:#7f7f7f;stroke-width:2" d="M499,48 l-452,0 0,628 452,0 0,-628" />
<path style="fill:#999" d="M342,688 l-158,0 0,37 158,0 0,-37z" />
<path style="fill:#4c4c4c" d="M942,671 l4,-6 -4,-6 -8,0 -3,6 3,6 8,0z" />
<path style="fill:#4c4c4c" d="M942,243 l4,-6 -4,-8 -8,0 -3,8 3,6 8,0z" />
<path style="fill:none;stroke:#7f7f7f;stroke-width:2" d="M951,48 l-452,0 0,628 452,0 0,-628" />
<path style="fill:#e5e5e5" d="M441,64 l-55,0 0,92 55,0 0,-92z" />
<path style="fill:#000" d="M478,64 l-13,0 0,43 13,0 0,-43z" />
<path style="fill:#000" d="M77,64 l-15,0 0,43 15,0 0,-43z" />
<path style="fill:#333;stroke:#000;stroke-width:2" d="M951,48 l-452,0 0,178 452,0 0,-178z" />
<path style="fill:#e5e5e5" d="M808,165 l-55,0 0,25 55,0 0,-25z" />
<path style="fill:#b2b2b2" d="M684,186 l11,-11 0,-17 -11,-11 -15,0 -13,11 0,17 13,11 15,0z" />
<path style="fill:#b2b2b2" d="M620,186 l11,-11 0,-17 -11,-11 -16,0 -11,11 0,17 11,11 16,0z" />
<path style="fill:#666" d="M887,165 l-54,0 0,25 54,0 0,-25z" />
<path style="fill:none;stroke:#000;stroke-width:2" d="M863,97 l0,50 19,0" />
<path style="fill:none;stroke:#000;stroke-width:2" d="M829,97 l0,50 19,0" />
<path style="fill:none;stroke:#000;stroke-width:2" d="M793,97 l0,50 21,0" />
<path style="fill:none;stroke:#000;stroke-width:2" d="M759,97 l0,50 21,0" />
<path style="fill:none;stroke:#7f7f7f;stroke-width:2" d="M780,147 l0,-50 -21,0" />
<path style="fill:none;stroke:#7f7f7f;stroke-width:2" d="M814,147 l0,-50 -21,0" />
<path style="fill:none;stroke:#7f7f7f;stroke-width:2" d="M848,147 l0,-50 -19,0" />
<path style="fill:none;stroke:#7f7f7f;stroke-width:2" d="M882,147 l0,-50 -19,0" />
<path style="fill:#7f7f7f" d="M705,229 l-206,395 0,-104 153,-291 53,0z" />
<path style="fill:#666" d="M652,229 l-153,291 0,-104 98,-187 55,0z" />
<path style="fill:#4c4c4c" d="M597,229 l-98,187 0,-104 43,-83 55,0z" />
<path style="fill:none;stroke:#fff;stroke-width:2" d="M493,52 l-441,0" />

</svg>
