 

<svg xmlns:agg="http://www.example.com" xmlns="http://www.w3.org/2000/svg" preserveAspectRatio="none" width="1.6083in" height="0.8903in" viewBox="0 0 999 553">

<path style="fill:#217f21;stroke:#000;stroke-width:2" d="M579,36 l0,364 -416,2 0,-366 416,0z" />
<path style="fill:#43a143;stroke:#000;stroke-width:2" d="M493,499 l334,0 0,26 -334,0 0,-26z" />
<path style="fill:#43a143;stroke:#000;stroke-width:2" d="M662,28 l30,0 0,471 -30,0 0,-471z" />
<path style="fill:#43a143;stroke:#000;stroke-width:2" d="M819,62 l-127,0 0,437 127,0 0,-437z" />
<path style="fill:#43a143;stroke:#000;stroke-width:2" d="M817,74 l18,0 0,280 -18,0 0,-280z" />
<path style="fill:#43a143;stroke:#000;stroke-width:2" d="M856,114 l-21,-12 0,226 21,-14 0,-200z" />
<path style="fill:#43a143;stroke:#000;stroke-width:2" d="M38,38 l123,0 0,324 -129,0 -2,-34 -2,-37 0,-38 0,-32 0,-50 2,-53 4,-48 4,-32z" />
<path style="fill:#43a143;stroke:#000;stroke-width:2" d="M579,128 l0,-92 -416,0 0,92 416,0z" />
<path style="fill:#43a143" d="M579,28 l0,372 83,0 0,-372 -83,0z" />
<path style="fill:none;stroke:#000;stroke-width:2" d="M662,28 l-83,0 0,372 83,0 0,-372" />
<path style="fill:none;stroke:#000;stroke-width:2" d="M579,62 l-416,0 416,0" />
<path style="fill:none;stroke:#000;stroke-width:2" d="M579,68 l-416,0 416,0" />
<path style="fill:none;stroke:#000;stroke-width:2" d="M579,106 l-416,0 416,0" />
<path style="fill:none;stroke:#000;stroke-width:2" d="M579,110 l-416,0 416,0" />
<path style="fill:none;stroke:#000;stroke-width:2" d="M579,151 l-416,0 416,0" />
<path style="fill:none;stroke:#000;stroke-width:2" d="M579,153 l-416,0 416,0" />
<path style="fill:none;stroke:#000;stroke-width:2" d="M579,324 l-416,0 416,0" />
<path style="fill:none;stroke:#000;stroke-width:2" d="M579,328 l-416,0 416,0" />
<path style="fill:none;stroke:#000;stroke-width:2" d="M579,366 l-416,0 416,0" />
<path style="fill:none;stroke:#000;stroke-width:2" d="M579,372 l-416,0 416,0" />
<path style="fill:none;stroke:#000;stroke-width:2" d="M579,283 l-416,0 416,0" />
<path style="fill:none;stroke:#000;stroke-width:2" d="M579,282 l-416,0 416,0" />
<path style="fill:none;stroke:#000;stroke-width:2" d="M579,239 l-416,0 416,0" />
<path style="fill:none;stroke:#000;stroke-width:2" d="M579,239 l-416,0 416,0" />
<path style="fill:none;stroke:#000;stroke-width:2" d="M579,197 l-416,0 416,0" />
<path style="fill:none;stroke:#000;stroke-width:2" d="M579,195 l-416,0 416,0" />
<path style="fill:none;stroke:#fff;stroke-width:2" d="M579,116 l-416,0 416,0" />
<path style="fill:none;stroke:#fff;stroke-width:2" d="M579,157 l-416,0 416,0" />
<path style="fill:none;stroke:#fff;stroke-width:2" d="M579,197 l-416,0 416,0" />
<path style="fill:none;stroke:#fff;stroke-width:2" d="M579,76 l-416,0" />
<path style="fill:none;stroke:#fff;stroke-width:2" d="M579,237 l-416,0 416,0" />
<path style="fill:none;stroke:#fff;stroke-width:2" d="M579,277 l-416,0 416,0" />
<path style="fill:none;stroke:#fff;stroke-width:2" d="M579,318 l-416,0 416,0" />
<path style="fill:none;stroke:#fff;stroke-width:2" d="M579,358 l-416,0" />
<path style="fill:#43a143;stroke:#000;stroke-width:2" d="M231,215 l119,0 12,6 6,14 0,155 -6,14 -12,6 -119,0 -14,-6 -4,-14 0,-155 4,-14 14,-6z" />
<path style="fill:#82e082" d="M38,44 l123,0 0,38 -129,0 2,-22 4,-16z" />
<path style="fill:#82e082" d="M819,78 l16,0 0,20 -16,0 0,-20z" />
<path style="fill:#82e082" d="M815,72 l-123,0 0,30 123,0 0,-30z" />
<path style="fill:#82e082" d="M658,34 l-74,0 0,42 74,0 0,-42z" />
<path style="fill:#82e082" d="M664,38 l26,0 0,34 -26,0 0,-34z" />
<path style="fill:#005e00;stroke:#000;stroke-width:2" d="M656,358 l-74,0 0,42 74,0 0,-42z" />
<path style="fill:#005e00;stroke:#000;stroke-width:2" d="M161,38 l-121,0 0,-8 121,0 0,8z" />
<path style="fill:#005e00;stroke:#000;stroke-width:2" d="M32,362 l129,0 0,48 -121,0 -6,-28 -2,-20z" />
<path style="fill:#005e00;stroke:#000;stroke-width:2" d="M819,324 l16,0 0,30 -16,0 0,-30z" />
<path style="fill:#7f7f7f;stroke:#000;stroke-width:2" d="M692,54 l16,0 0,8 -16,0 0,-8z" />
<path style="fill:#7f7f7f;stroke:#000;stroke-width:2" d="M837,92 l8,0 0,4 -8,0 0,-4z" />
<path style="fill:#7f7f7f;stroke:#000;stroke-width:2" d="M837,304 l8,0 0,4 -8,0 0,-4z" />
<path style="fill:#7f7f7f;stroke:#000;stroke-width:2" d="M692,358 l16,0 0,8 -16,0 0,-8z" />
<path style="fill:#7f7f7f;stroke:#000;stroke-width:2" d="M837,195 l8,0 0,6 -8,0 0,-6z" />
<path style="fill:#7f7f7f;stroke:#000;stroke-width:2" d="M692,209 l16,0 0,8 -16,0 0,-8z" />
<path style="fill:#b2b2b2;stroke:#000;stroke-width:2" d="M857,171 l113,0 0,78 -113,0 0,-78z" />
<path style="fill:#b2b2b2;stroke:#000;stroke-width:2" d="M692,54 l16,0 0,-14 -16,0 0,14z" />
<path style="fill:#b2b2b2;stroke:#000;stroke-width:2" d="M837,92 l8,0 0,-8 -8,0 0,8z" />
<path style="fill:#b2b2b2;stroke:#000;stroke-width:2" d="M837,304 l8,0 0,-8 -8,0 0,8z" />
<path style="fill:#b2b2b2;stroke:#000;stroke-width:2" d="M692,358 l16,0 0,-14 -16,0 0,14z" />
<path style="fill:#b2b2b2;stroke:#000;stroke-width:2" d="M837,195 l8,0 0,-8 -8,0 0,8z" />
<path style="fill:#b2b2b2;stroke:#000;stroke-width:2" d="M692,209 l16,0 0,-14 -16,0 0,14z" />
<path style="fill:#f0f0f0" d="M856,175 l112,0 0,60 -112,0 0,-60z" />
<path style="fill:#f0f0f0" d="M837,80 l8,0 0,4 -8,0 0,-4z" />
<path style="fill:#f0f0f0" d="M837,183 l8,0 0,4 -8,0 0,-4z" />
<path style="fill:#f0f0f0" d="M692,187 l16,0 0,8 -16,0 0,-8z" />
<path style="fill:#f0f0f0" d="M837,291 l8,0 0,5 -8,0 0,-5z" />
<path style="fill:#f0f0f0" d="M692,338 l16,0 0,6 -16,0 0,-6z" />
<path style="fill:#f0f0f0" d="M692,34 l16,0 0,6 -16,0 0,-6z" />
<path style="fill:#fff" d="M856,179 l112,0 0,12 -112,0 0,-12z" />

</svg>
