 

<svg xmlns:agg="http://www.example.com" xmlns="http://www.w3.org/2000/svg" preserveAspectRatio="none" width="1.0750in" height="1.0750in" viewBox="0 0 999 999">

<path style="fill:#7f7f7f" d="M145,882 l-4,-9 -108,0 -6,9 118,0z" />
<path style="fill:#7f7f7f" d="M971,882 l-6,-9 -108,0 -4,9 118,0z" />
<path style="fill:#333" d="M27,965 l6,6 108,0 4,-6 0,-83 -118,0 0,83z" />
<path style="fill:#333" d="M853,965 l4,6 108,0 6,-6 0,-83 -118,0 0,83z" />
<path style="fill:#000;stroke:#000;stroke-width:2" d="M214,107 l0,-40 10,-30 9,-10 10,0 11,10 9,30 0,40 -9,-46 -11,-24 -4,-4 -6,4 -9,24 -6,46 -4,0z" />
<path style="fill:#000" d="M378,942 l80,8 82,0 80,-8 71,-17 59,-24 41,-30 21,-35 0,-695 -21,-33 -41,-30 -59,-24 -71,-17 -80,-10 -82,0 -80,10 -71,17 -59,24 -41,30 -23,33 0,695 23,35 41,30 59,24 71,17z" />
<path style="fill:#050505" d="M388,942 l73,8 76,0 72,-8 64,-17 54,-24 38,-30 19,-35 0,-695 -19,-34 -38,-29 -53,-24 -65,-17 -72,-10 -76,0 -73,10 -64,17 -53,24 -38,29 -21,34 0,695 21,35 38,30 53,24 64,17z" />
<path style="fill:#0a0a0a" d="M399,942 l66,8 68,0 64,-8 59,-17 47,-24 34,-30 18,-35 0,-695 -18,-34 -34,-29 -47,-24 -59,-17 -64,-10 -68,0 -66,10 -59,17 -47,24 -34,29 -16,34 0,695 16,35 34,30 49,24 57,17z" />
<path style="fill:#0f0f0f" d="M410,942 l59,8 60,0 57,-8 53,-17 41,-24 30,-30 15,-35 0,-695 -15,-34 -30,-29 -41,-24 -53,-17 -57,-10 -60,0 -59,10 -51,17 -43,24 -28,29 -17,34 0,695 15,35 30,30 43,24 51,17z" />
<path style="fill:#141414" d="M421,942 l52,8 52,0 49,-8 46,-17 38,-24 26,-30 13,-35 0,-695 -13,-34 -26,-29 -38,-24 -46,-17 -49,-10 -52,0 -52,10 -44,17 -37,24 -26,29 -13,34 0,695 13,35 26,30 37,24 44,17z" />
<path style="fill:#191919" d="M433,942 l43,8 46,0 41,-8 40,-17 32,-24 23,-30 11,-35 0,-695 -11,-34 -23,-29 -32,-24 -40,-17 -41,-10 -46,0 -43,10 -38,17 -32,24 -23,29 -11,34 0,695 11,35 23,30 32,24 38,17z" />
<path style="fill:#1f1f1f" d="M444,942 l36,8 38,0 34,-8 32,-19 26,-22 19,-30 10,-35 0,-695 -10,-34 -19,-29 -26,-24 -32,-17 -34,-10 -38,0 -36,10 -32,17 -26,24 -19,29 -10,34 0,695 10,35 19,30 26,24 32,17z" />
<ellipse style="fill:#333" cx="499" cy="488" rx="24" ry="461" />
<path style="fill:#ccc" d="M448,757 l34,8 36,0 0,-728 -36,0 -34,7 -30,14 -24,18 -17,25 -10,24 0,551 7,27 20,22 24,19 30,13z" />
<path style="fill:#242424" d="M456,942 l28,8 30,0 28,-8 25,-19 21,-22 15,-30 7,-35 0,-695 -7,-34 -15,-29 -21,-24 -25,-17 -28,-10 -30,0 -28,10 -27,17 -19,24 -15,29 -7,34 0,695 7,35 15,30 21,24 25,17z" />
<path style="fill:#292929" d="M467,942 l21,8 20,0 23,-8 19,-19 15,-22 12,-30 3,-35 0,-695 -3,-34 -12,-29 -15,-24 -19,-17 -23,-10 -20,0 -21,10 -19,17 -15,24 -12,29 -5,34 0,695 5,35 12,30 15,24 19,17z" />
<path style="fill:#2e2e2e" d="M478,942 l13,8 14,0 15,-8 11,-19 9,-22 8,-30 4,-35 0,-695 -4,-34 -8,-29 -9,-24 -11,-17 -15,-10 -14,0 -13,10 -13,17 -9,24 -8,29 -4,34 0,695 4,35 8,30 9,24 13,17z" />
<path style="fill:#ccc" d="M676,642 l-235,0 0,157 235,0 0,-157z" />
<path style="fill:#ffb27f" d="M676,642 l-235,0 0,-24 235,0 0,24z" />
<path style="fill:none;stroke:#fff;stroke-width:2" d="M676,799 l0,-181 -235,0" />
<path style="fill:none;stroke:#000;stroke-width:2" d="M441,618 l0,181 235,0" />
<path style="fill:#000" d="M616,635 l-117,0 0,-11 117,0 0,11z" />
<path style="fill:#b2b2b2" d="M656,658 l-197,0 0,96 197,0 0,-96z" />
<path style="fill:#ccc" d="M665,452 l-215,0 0,71 215,0 0,-71z" />
<path style="fill:#fff" d="M656,463 l-197,0 0,51 197,0 0,-51z" />
<path style="fill:#7f4c00" d="M606,250 l70,0 0,-100 -70,0 -17,7 -15,16 -7,17 0,20 7,17 15,16 17,7z" />
<path style="fill:#915e00" d="M606,239 l68,0 0,-79 -68,0 -17,7 -15,10 -7,15 0,15 7,15 15,11 17,6z" />
<path style="fill:#a6730d" d="M606,229 l68,0 0,-58 -68,0 -17,4 -15,7 -7,12 0,11 7,11 15,8 17,5z" />
<path style="fill:#b8851f" d="M606,220 l68,0 0,-40 -68,0 -17,4 -15,4 -7,7 0,8 7,7 15,6 17,4z" />
<path style="fill:#c93" d="M606,209 l70,0 0,-19 -70,0 -17,2 -15,3 -7,2 0,4 7,4 15,4 17,0z" />
<path style="fill:none;stroke:#000;stroke-width:2" d="M606,250 l70,0 0,-100 -70,0 -17,7 -15,16 -7,17 0,20 7,17 15,16 17,7" />
<circle style="fill:#4c4c4c;stroke:#000;stroke-width:2" cx="665" cy="200" r="49" />
<circle style="fill:#000" cx="665" cy="199" r="9" />
<path style="fill:#000" d="M852,891 l-707,0 0,61 707,0 0,-61z" />
<path style="fill:#ccc" d="M838,891 l-678,0 0,61 678,0 0,-61z" />
<path style="fill:#c7c7c7" d="M838,927 l-678,-36 0,61 678,0 0,-25z" />
<path style="fill:#c2c2c2" d="M838,931 l-678,-36 0,57 678,0 0,-21z" />
<path style="fill:#bdbdbd" d="M838,935 l-678,-34 0,51 678,0 0,-17z" />
<path style="fill:#000" d="M925,420 l-111,0 0,236 111,0 0,-236z" />
<path style="fill:#080808" d="M925,437 l-113,0 0,204 113,0 0,-204z" />
<path style="fill:#121212" d="M925,454 l-113,0 0,170 113,0 0,-170z" />
<path style="fill:#191919" d="M925,469 l-113,0 0,137 113,0 0,-137z" />
<path style="fill:#212121" d="M925,486 l-113,0 0,103 113,0 0,-103z" />
<path style="fill:#2b2b2b" d="M925,503 l-113,0 0,71 113,0 0,-71z" />
<path style="fill:#333" d="M925,520 l-111,0 0,37 111,0 0,-37z" />
<path style="fill:#b27f19" d="M867,799 l-53,0 0,19 53,0 0,-19z" />
<path style="fill:#fc6" d="M867,804 l-53,0 0,8 53,0 0,-8z" />
<path style="fill:none;stroke:#000;stroke-width:2" d="M676,769 l-235,0" />
<path style="fill:none;stroke:#000;stroke-width:2" d="M27,965 l6,6 108,0 4,-6 0,-83 -4,-9 -108,0 -6,9 0,83" />
<path style="fill:none;stroke:#000;stroke-width:2" d="M836,893 l-676,0 0,59 676,0 0,-59" />
<path style="fill:none;stroke:#000;stroke-width:2" d="M853,965 l4,6 108,0 6,-6 0,-83 -6,-9 -108,0 -4,9 0,83" />
<path style="fill:none;stroke:#000;stroke-width:2" d="M867,799 l-53,0 0,19 53,0 0,-19" />
<path style="fill:none;stroke:#000;stroke-width:2" d="M925,420 l-111,0 0,236 111,0 0,-236" />

</svg>
