 

<svg xmlns:agg="http://www.example.com" xmlns="http://www.w3.org/2000/svg" preserveAspectRatio="none" width="0.9243in" height="1.0750in" viewBox="0 0 859 999">

<path style="fill:#b2b2b2" d="M222,222 l0,-194 -194,0 0,748 194,0 0,-196 586,0 0,-358 -586,0z" />
<path style="fill:#c2c2c2" d="M223,252 l0,-164 -195,0 0,626 195,0 0,-163 585,0 0,-299 -585,0z" />
<path style="fill:#d1d1d1" d="M223,281 l0,-132 -195,0 0,504 195,0 0,-131 585,0 0,-241 -585,0z" />
<path style="fill:#e3e3e3" d="M223,310 l0,-100 -195,0 0,382 195,0 0,-100 585,0 0,-182 -585,0z" />
<path style="fill:#f2f2f2" d="M222,339 l0,-68 -194,0 0,260 194,0 0,-68 586,0 0,-124 -586,0z" />
<path style="fill:none;stroke:#000;stroke-width:2" d="M222,222 l0,-194 -194,0 0,748 194,0 0,-196 586,0 0,-358 -586,0" />
<path style="fill:none;stroke:#000;stroke-width:2" d="M222,222 l0,358" />
<path style="fill:#a6a6a6;stroke:#000;stroke-width:2" d="M158,45 l64,0 0,714 -64,0 0,-714z" />
<path style="fill:none;stroke:#000;stroke-width:2" d="M141,710 l98,0" />
<path style="fill:none;stroke:#000;stroke-width:2" d="M141,94 l98,0" />
<path style="fill:none;stroke:#000;stroke-width:2" d="M141,680 l98,0" />
<path style="fill:none;stroke:#000;stroke-width:2" d="M141,124 l98,0" />
<path style="fill:none;stroke:#000;stroke-width:2" d="M141,644 l98,0" />
<path style="fill:none;stroke:#000;stroke-width:2" d="M141,158 l98,0" />
<path style="fill:none;stroke:#000;stroke-width:2" d="M141,597 l98,0" />
<path style="fill:none;stroke:#000;stroke-width:2" d="M141,207 l98,0" />
<path style="fill:none;stroke:#000;stroke-width:2" d="M141,548 l98,0" />
<path style="fill:none;stroke:#000;stroke-width:2" d="M141,256 l98,0" />
<path style="fill:none;stroke:#000;stroke-width:2" d="M141,499 l98,0" />
<path style="fill:none;stroke:#000;stroke-width:2" d="M141,305 l98,0" />
<path style="fill:none;stroke:#000;stroke-width:2" d="M141,450 l98,0" />
<path style="fill:none;stroke:#000;stroke-width:2" d="M141,352 l98,0" />
<path style="fill:none;stroke:#000;stroke-width:2" d="M141,401 l98,0" />
<path style="fill:none;stroke:#000;stroke-width:2" d="M141,742 l98,0" />
<path style="fill:none;stroke:#000;stroke-width:2" d="M141,62 l98,0" />
<path style="fill:none;stroke:#000;stroke-width:2" d="M141,759 l98,0" />
<path style="fill:none;stroke:#000;stroke-width:2" d="M141,45 l98,0" />
<path style="fill:none;stroke:#000;stroke-width:2" d="M239,45 l0,714" />
<path style="fill:#d9d9d9;stroke:#000;stroke-width:2" d="M535,175 l0,-17 -11,-11 -17,0 -10,11 0,17 10,9 -6,13 -17,-17 0,-28 17,-19 28,0 19,19 0,28 -15,17 -9,-13 11,-9z" />
<path style="fill:#d9d9d9;stroke:#000;stroke-width:2" d="M499,182 l34,0 0,42 -34,0 0,-42z" />
<path style="fill:#7f7f7f;stroke:#000;stroke-width:2" d="M320,678 l32,-115 324,0 34,115 -390,0z" />
<path style="fill:#b2b2b2;stroke:#000;stroke-width:2" d="M288,710 l0,-32 454,0 0,32 -454,0z" />
<path style="fill:#000" d="M320,224 l-1,0 0,356 2,0 0,-356 -1,0z" />
<path style="fill:#000" d="M710,224 l-1,0 0,356 2,0 0,-356 -1,0z" />
<path style="fill:#999;stroke:#000;stroke-width:2" d="M222,710 l586,0 0,260 -586,0 0,-260z" />
<path style="fill:#8c8c8c;stroke:#000;stroke-width:2" d="M271,710 l488,0 0,228 -488,0 0,-228z" />
<path style="fill:#d9d9d9;stroke:#000;stroke-width:2" d="M305,435 l422,0 0,15 -422,0 0,-15z" />
<path style="fill:#d9d9d9;stroke:#000;stroke-width:2" d="M305,386 l422,0 0,15 -422,0 0,-15z" />
<path style="fill:#d9d9d9;stroke:#000;stroke-width:2" d="M305,337 l422,0 0,15 -422,0 0,-15z" />
<path style="fill:#bfbfbf;stroke:#000;stroke-width:2" d="M305,484 l422,0 0,15 -422,0 0,-15z" />
<path style="fill:#bfbfbf;stroke:#000;stroke-width:2" d="M305,516 l422,0 0,15 -422,0 0,-15z" />
<path style="fill:#bfbfbf;stroke:#000;stroke-width:2" d="M305,256 l422,0 0,15 -422,0 0,-15z" />
<path style="fill:#bfbfbf;stroke:#000;stroke-width:2" d="M305,288 l422,0 0,15 -422,0 0,-15z" />
<path style="fill:#a6a6a6;stroke:#000;stroke-width:2" d="M305,540 l422,0 0,16 -422,0 0,-16z" />
<path style="fill:#a6a6a6;stroke:#000;stroke-width:2" d="M305,231 l422,0 0,15 -422,0 0,-15z" />
<path style="fill:#a6a6a6;stroke:#000;stroke-width:2" d="M305,207 l422,0 0,15 -422,0 0,-15z" />
<path style="fill:#999;stroke:#000;stroke-width:2" d="M808,801 l23,0 0,81 -23,0 0,-81z" />
<path style="fill:#737373;stroke:#000;stroke-width:2" d="M808,882 l23,0 0,39 -23,0 0,-39z" />
<path style="fill:#d9d9d9;stroke:#000;stroke-width:2" d="M808,759 l23,0 0,42 -23,0 0,-42z" />
<path style="fill:#b2b2b2;stroke:#000;stroke-width:2" d="M401,678 l32,-130 164,0 32,130 -228,0z" />

</svg>
