 

<svg xmlns:agg="http://www.example.com" xmlns="http://www.w3.org/2000/svg" preserveAspectRatio="none" width="1.6083in" height="0.8066in" viewBox="0 0 999 501">

<path style="fill:#4c7f7f" d="M970,222 l-247,0 0,49 247,0 0,-49z" />
<path style="fill:#699" d="M970,226 l-247,0 0,41 247,0 0,-41z" />
<path style="fill:#7fb2b2" d="M970,235 l-247,0 0,23 247,0 0,-23z" />
<path style="fill:#9cc" d="M970,243 l-247,0 0,5 247,0 0,-5z" />
<path style="fill:none;stroke:#000;stroke-width:2" d="M970,222 l-247,0 0,49 247,0 0,-49" />
<path style="fill:#4c7f7f" d="M787,197 l-32,0 0,97 32,0 0,-97z" />
<path style="fill:#699" d="M787,207 l-32,0 0,79 32,0 0,-79z" />
<path style="fill:#7fb2b2" d="M787,224 l-32,0 0,45 32,0 0,-45z" />
<path style="fill:#9cc" d="M787,239 l-32,0 0,13 32,0 0,-13z" />
<path style="fill:none;stroke:#000;stroke-width:2" d="M787,197 l-32,0 0,97 32,0 0,-97" />
<path style="fill:#4c7f7f" d="M75,463 l473,0 34,-30 0,-371 -34,-32 -7,0 -8,0 -458,0 -24,12 -16,22 -7,22 0,6 0,11 0,298 6,29 16,22 21,11 4,0z" />
<path style="fill:#699" d="M75,424 l473,2 34,-33 0,-301 -34,-23 -7,0 -8,0 -458,0 -24,10 -18,23 -5,13 0,5 0,10 0,243 9,28 21,19 17,4z" />
<path style="fill:#7fb2b2" d="M75,371 l473,0 34,-23 0,-209 -34,-15 -7,0 -8,0 -458,0 -28,8 -19,23 0,3 0,6 0,171 12,23 22,11 9,2 4,0z" />
<path style="fill:#9cc" d="M75,309 l473,0 34,-15 0,-95 -34,-15 -7,0 -8,0 -458,0 -28,5 -19,12 0,2 0,6 0,83 0,1 22,12 21,3 4,1z" />
<path style="fill:none;stroke:#000;stroke-width:2" d="M75,463 l473,0 34,-30 0,-371 -34,-32 -7,0 -8,0 -458,0 -24,12 -16,22 -7,22 0,6 0,11 0,298 6,29 16,22 21,11 4,0" />
<ellipse style="fill:#4c7f7f;stroke:#000;stroke-width:2" cx="587" cy="247" rx="188" ry="206" />
<ellipse style="fill:#699" cx="587" cy="246" rx="188" ry="166" />
<ellipse style="fill:#7fb2b2" cx="587" cy="246" rx="188" ry="96" />
<ellipse style="fill:#9cc" cx="587" cy="247" rx="188" ry="27" />
<path style="fill:#194c4c;stroke:#000;stroke-width:2" d="M163,35 l425,0 0,385 -425,0 0,-385z" />
<path style="fill:#366;stroke:#000;stroke-width:2" d="M163,412 l425,0 0,55 -425,0 0,-55z" />
<path style="fill:#7fb2b2;stroke:#000;stroke-width:2" d="M163,365 l449,0 0,13 -449,0 0,-13z" />
<path style="fill:#7fb2b2;stroke:#000;stroke-width:2" d="M163,328 l449,0 0,13 -449,0 0,-13z" />
<path style="fill:#7fb2b2;stroke:#000;stroke-width:2" d="M163,290 l449,0 0,13 -449,0 0,-13z" />
<path style="fill:#9cc;stroke:#000;stroke-width:2" d="M163,252 l449,0 0,13 -449,0 0,-13z" />
<path style="fill:#9cc;stroke:#000;stroke-width:2" d="M163,214 l449,0 0,14 -449,0 0,-14z" />
<path style="fill:#9cc;stroke:#000;stroke-width:2" d="M163,177 l449,0 0,13 -449,0 0,-13z" />
<path style="fill:#9cc;stroke:#000;stroke-width:2" d="M163,139 l449,0 0,13 -449,0 0,-13z" />
<path style="fill:#9cc;stroke:#000;stroke-width:2" d="M163,101 l449,0 0,14 -449,0 0,-14z" />
<path style="fill:#9cc;stroke:#000;stroke-width:2" d="M163,64 l449,0 0,13 -449,0 0,-13z" />
<path style="fill:#9cc;stroke:#000;stroke-width:2" d="M163,28 l449,0 0,13 -449,0 0,-13z" />
<path style="fill:#7fb2b2;stroke:#000;stroke-width:2" d="M163,403 l449,0 0,13 -449,0 0,-13z" />
<path style="fill:#699;stroke:#000;stroke-width:2" d="M226,473 l222,0 0,-310 -222,0 0,310z" />
<path style="fill:none;stroke:#fff;stroke-width:2" d="M250,454 l0,-266 174,0" />

</svg>
