

<svg xmlns:agg="http://www.example.com" xmlns="http://www.w3.org/2000/svg" preserveAspectRatio="none" width="2.0104in" height="0.5880in" viewBox="0 0 530 155">

<path style="fill:#7f7f7f" d="M15,140 l0,-125 500,0 0,125 -500,0z" />
<path style="fill:#999" d="M46,140 l0,-125 439,0 0,125 -439,0z" />
<path style="fill:#b2b2b2" d="M100,140 l0,-125 332,0 0,125 -332,0z" />
<path style="fill:#ccc" d="M151,140 l0,-125 229,0 0,125 -229,0z" />
<path style="fill:#e5e5e5" d="M191,140 l0,-125 147,0 0,125 -147,0z" />
<path style="fill:#fff" d="M235,140 l0,-125 61,0 0,125 -61,0z" />
<path style="fill:none;stroke:#000;stroke-width:2" d="M15,140 l0,-125 500,0 0,125 -500,0" />

</svg>
