 

<svg xmlns:agg="http://www.example.com" xmlns="http://www.w3.org/2000/svg" preserveAspectRatio="none" width="0.2090in" height="1.0750in" viewBox="0 0 194 998">

<path style="fill:#7f7f7f" d="M41,497 l0,-234 117,0 0,234 -117,0z" />
<path style="fill:none;stroke:#000;stroke-width:2" d="M41,263 l0,234" />
<path style="fill:none;stroke:#000;stroke-width:2" d="M158,263 l0,234" />
<path style="fill:#ccc;stroke:#000;stroke-width:2" d="M28,489 l0,10 137,0 0,-10 -137,0z" />
<path style="fill:#ccc;stroke:#000;stroke-width:2" d="M28,469 l0,9 137,0 0,-9 -137,0z" />
<path style="fill:#ccc;stroke:#000;stroke-width:2" d="M28,450 l0,9 137,0 0,-9 -137,0z" />
<path style="fill:#ccc;stroke:#000;stroke-width:2" d="M28,431 l0,10 137,0 0,-10 -137,0z" />
<path style="fill:#ccc;stroke:#000;stroke-width:2" d="M28,410 l0,10 137,0 0,-10 -137,0z" />
<path style="fill:#ccc;stroke:#000;stroke-width:2" d="M28,392 l0,9 137,0 0,-9 -137,0z" />
<path style="fill:#ccc;stroke:#000;stroke-width:2" d="M28,371 l0,11 137,0 0,-11 -137,0z" />
<path style="fill:#ccc;stroke:#000;stroke-width:2" d="M28,352 l0,9 137,0 0,-9 -137,0z" />
<path style="fill:#ccc;stroke:#000;stroke-width:2" d="M28,333 l0,10 137,0 0,-10 -137,0z" />
<path style="fill:#ccc;stroke:#000;stroke-width:2" d="M28,313 l0,11 137,0 0,-11 -137,0z" />
<path style="fill:#ccc;stroke:#000;stroke-width:2" d="M28,293 l0,10 137,0 0,-10 -137,0z" />
<path style="fill:#ccc;stroke:#000;stroke-width:2" d="M28,275 l0,9 137,0 0,-9 -137,0z" />
<path style="fill:#7f7f7f" d="M41,262 l0,-234 117,0 0,234 -117,0z" />
<path style="fill:none;stroke:#000;stroke-width:2" d="M41,28 l0,234" />
<path style="fill:none;stroke:#000;stroke-width:2" d="M158,28 l0,234" />
<path style="fill:#ccc;stroke:#000;stroke-width:2" d="M28,254 l0,9 137,0 0,-9 -137,0z" />
<path style="fill:#ccc;stroke:#000;stroke-width:2" d="M28,235 l0,9 137,0 0,-9 -137,0z" />
<path style="fill:#ccc;stroke:#000;stroke-width:2" d="M28,214 l0,10 137,0 0,-10 -137,0z" />
<path style="fill:#ccc;stroke:#000;stroke-width:2" d="M28,196 l0,9 137,0 0,-9 -137,0z" />
<path style="fill:#ccc;stroke:#000;stroke-width:2" d="M28,175 l0,11 137,0 0,-11 -137,0z" />
<path style="fill:#ccc;stroke:#000;stroke-width:2" d="M28,156 l0,9 137,0 0,-9 -137,0z" />
<path style="fill:#ccc;stroke:#000;stroke-width:2" d="M28,137 l0,9 137,0 0,-9 -137,0z" />
<path style="fill:#ccc;stroke:#000;stroke-width:2" d="M28,116 l0,12 137,0 0,-12 -137,0z" />
<path style="fill:#ccc;stroke:#000;stroke-width:2" d="M28,97 l0,10 137,0 0,-10 -137,0z" />
<path style="fill:#ccc;stroke:#000;stroke-width:2" d="M28,79 l0,9 137,0 0,-9 -137,0z" />
<path style="fill:#ccc;stroke:#000;stroke-width:2" d="M28,58 l0,9 137,0 0,-9 -137,0z" />
<path style="fill:#ccc;stroke:#000;stroke-width:2" d="M28,39 l0,9 137,0 0,-9 -137,0z" />
<path style="fill:#7f7f7f" d="M41,968 l0,-233 117,0 0,233 -117,0z" />
<path style="fill:none;stroke:#000;stroke-width:2" d="M41,735 l0,233" />
<path style="fill:none;stroke:#000;stroke-width:2" d="M158,735 l0,233" />
<path style="fill:#ccc;stroke:#000;stroke-width:2" d="M28,961 l0,9 137,0 0,-9 -137,0z" />
<path style="fill:#ccc;stroke:#000;stroke-width:2" d="M28,940 l0,12 137,0 0,-12 -137,0z" />
<path style="fill:#ccc;stroke:#000;stroke-width:2" d="M28,921 l0,10 137,0 0,-10 -137,0z" />
<path style="fill:#ccc;stroke:#000;stroke-width:2" d="M28,902 l0,10 137,0 0,-10 -137,0z" />
<path style="fill:#ccc;stroke:#000;stroke-width:2" d="M28,882 l0,11 137,0 0,-11 -137,0z" />
<path style="fill:#ccc;stroke:#000;stroke-width:2" d="M28,863 l0,9 137,0 0,-9 -137,0z" />
<path style="fill:#ccc;stroke:#000;stroke-width:2" d="M28,844 l0,9 137,0 0,-9 -137,0z" />
<path style="fill:#ccc;stroke:#000;stroke-width:2" d="M28,823 l0,10 137,0 0,-10 -137,0z" />
<path style="fill:#ccc;stroke:#000;stroke-width:2" d="M28,804 l0,10 137,0 0,-10 -137,0z" />
<path style="fill:#ccc;stroke:#000;stroke-width:2" d="M28,784 l0,11 137,0 0,-11 -137,0z" />
<path style="fill:#ccc;stroke:#000;stroke-width:2" d="M28,765 l0,9 137,0 0,-9 -137,0z" />
<path style="fill:#ccc;stroke:#000;stroke-width:2" d="M28,746 l0,10 137,0 0,-10 -137,0z" />
<path style="fill:#7f7f7f" d="M41,735 l0,-236 117,0 0,236 -117,0z" />
<path style="fill:none;stroke:#000;stroke-width:2" d="M41,499 l0,236" />
<path style="fill:none;stroke:#000;stroke-width:2" d="M158,499 l0,236" />
<path style="fill:#ccc;stroke:#000;stroke-width:2" d="M28,725 l0,10 137,0 0,-10 -137,0z" />
<path style="fill:#ccc;stroke:#000;stroke-width:2" d="M28,706 l0,10 137,0 0,-10 -137,0z" />
<path style="fill:#ccc;stroke:#000;stroke-width:2" d="M28,685 l0,12 137,0 0,-12 -137,0z" />
<path style="fill:#ccc;stroke:#000;stroke-width:2" d="M28,667 l0,9 137,0 0,-9 -137,0z" />
<path style="fill:#ccc;stroke:#000;stroke-width:2" d="M28,648 l0,9 137,0 0,-9 -137,0z" />
<path style="fill:#ccc;stroke:#000;stroke-width:2" d="M28,627 l0,10 137,0 0,-10 -137,0z" />
<path style="fill:#ccc;stroke:#000;stroke-width:2" d="M28,608 l0,10 137,0 0,-10 -137,0z" />
<path style="fill:#ccc;stroke:#000;stroke-width:2" d="M28,590 l0,9 137,0 0,-9 -137,0z" />
<path style="fill:#ccc;stroke:#000;stroke-width:2" d="M28,569 l0,9 137,0 0,-9 -137,0z" />
<path style="fill:#ccc;stroke:#000;stroke-width:2" d="M28,550 l0,9 137,0 0,-9 -137,0z" />
<path style="fill:#ccc;stroke:#000;stroke-width:2" d="M28,529 l0,11 137,0 0,-11 -137,0z" />
<path style="fill:#ccc;stroke:#000;stroke-width:2" d="M28,510 l0,10 137,0 0,-10 -137,0z" />

</svg>
