 

<svg xmlns:agg="http://www.example.com" xmlns="http://www.w3.org/2000/svg" preserveAspectRatio="none" width="1.6083in" height="0.5152in" viewBox="0 0 999 320">

<path style="fill:#7f7f7f" d="M58,28 l-30,0 0,264 30,0 0,-264z" />
<path style="fill:#7f7f7f" d="M859,233 l81,0 0,-147 -81,0 -28,-30 -664,0 -28,30 -81,0 0,147 81,0 28,29 664,0 28,-29z" />
<path style="fill:#7f7f7f" d="M970,28 l-30,0 0,264 30,0 0,-264z" />
<path style="fill:#999" d="M58,43 l-30,0 0,232 30,0 0,-232z" />
<path style="fill:#999" d="M859,228 l81,0 0,-138 -81,0 -28,-26 -664,0 -28,26 -81,0 0,138 81,0 28,28 664,0 28,-28z" />
<path style="fill:#999" d="M970,43 l-30,0 0,232 30,0 0,-232z" />
<path style="fill:#b2b2b2" d="M58,65 l-30,0 0,189 30,0 0,-189z" />
<path style="fill:#b2b2b2" d="M859,216 l81,0 0,-115 -81,0 -28,-22 -664,0 -28,22 -81,0 0,115 81,0 28,25 664,0 28,-25z" />
<path style="fill:#b2b2b2" d="M970,65 l-30,0 0,189 30,0 0,-189z" />
<path style="fill:#ccc" d="M58,94 l-30,0 0,132 30,0 0,-132z" />
<path style="fill:#ccc" d="M859,201 l81,0 0,-85 -81,0 -28,-15 -664,0 -28,15 -81,0 0,85 81,0 28,17 664,0 28,-17z" />
<path style="fill:#ccc" d="M970,94 l-30,0 0,132 30,0 0,-132z" />
<path style="fill:#e5e5e5" d="M58,120 l-30,0 0,77 30,0 0,-77z" />
<path style="fill:#e5e5e5" d="M859,186 l81,0 0,-53 -81,0 -28,-11 -664,0 -28,11 -81,0 0,53 81,0 28,10 664,0 28,-10z" />
<path style="fill:#e5e5e5" d="M970,120 l-30,0 0,77 30,0 0,-77z" />
<path style="fill:#fff" d="M859,169 l81,0 0,-21 -81,0 -28,-3 -664,0 -28,3 -81,0 0,21 81,0 28,6 664,0 28,-6z" />
<path style="fill:#fff" d="M970,148 l-30,0 0,23 30,0 0,-23z" />
<path style="fill:#fff" d="M58,148 l-30,0 0,23 30,0 0,-23z" />
<path style="fill:#666;stroke:#000;stroke-width:2" d="M73,49 l-15,0 0,22 15,0 0,-22z" />
<path style="fill:#666;stroke:#000;stroke-width:2" d="M73,262 l-15,0 0,22 15,0 0,-22z" />
<path style="fill:#666;stroke:#000;stroke-width:2" d="M940,262 l-13,0 0,22 13,0 0,-22z" />
<path style="fill:#666;stroke:#000;stroke-width:2" d="M940,49 l-13,0 0,22 13,0 0,-22z" />
<path style="fill:#b2b2b2;stroke:#000;stroke-width:2" d="M73,34 l-15,0 0,15 15,0 0,-15z" />
<path style="fill:#b2b2b2;stroke:#000;stroke-width:2" d="M73,248 l-15,0 0,14 15,0 0,-14z" />
<path style="fill:#b2b2b2;stroke:#000;stroke-width:2" d="M940,248 l-13,0 0,14 13,0 0,-14z" />
<path style="fill:#b2b2b2;stroke:#000;stroke-width:2" d="M940,34 l-13,0 0,15 13,0 0,-15z" />
<path style="fill:none;stroke:#000;stroke-width:2" d="M58,28 l-30,0 0,264 30,0 0,-264" />
<path style="fill:none;stroke:#000;stroke-width:2" d="M859,233 l81,0 0,-147 -81,0 -28,-30 -664,0 -28,30 -81,0 0,147 81,0 28,29 664,0 28,-29" />
<path style="fill:none;stroke:#000;stroke-width:2" d="M970,28 l-30,0 0,264 30,0 0,-264" />
<path style="fill:none;stroke:#7f7f7f;stroke-width:2" d="M141,86 l0,147" />
<path style="fill:none;stroke:#7f7f7f;stroke-width:2" d="M167,262 l0,-206" />
<path style="fill:none;stroke:#7f7f7f;stroke-width:2" d="M831,262 l0,-206" />
<path style="fill:none;stroke:#7f7f7f;stroke-width:2" d="M857,233 l0,-147" />

</svg>
