 
<svg version="1.1" id="_x30_" xmlns:agg="http://www.example.com"
	 xmlns="http://www.w3.org/2000/svg" preserveAspectRatio="none"  xmlns:xlink="http://www.w3.org/1999/xlink" x="0px" y="0px" 
	  viewBox="1.425 1.432 69.489 80.267" xml:space="preserve">

<agg:params>
	<agg:param name="color" description="Color" type="C" cssAttributes="fill" classes="color"/>
	<agg:param type="F" name="saturation" description="Saturation" min="0" max="1" cssAttributes="opacity" classes="color"/>
</agg:params>

<style type="text/css" >
   <![CDATA[

	.stroke{
		stroke-width:0.3;
		stroke-linecap:round;
		stroke-linejoin:round;
		stroke: black;
		fill:none;
		opacity:0.5;
	}
	
	.color {
		fill:#3664BF;
		opacity:0.2;
	}

      ]]>
</style>

<radialGradient id="curved" cx="16.6856" cy="81.7236" r="53.8441" gradientUnits="userSpaceOnUse">
	<stop  offset="0" style="stop-color:#4D5C75"/>
	<stop  offset="0.4918" style="stop-color:#4D5C75"/>
	<stop  offset="0.5077" style="stop-color:#616F85"/>
	<stop  offset="0.5481" style="stop-color:#8E99A9"/>
	<stop  offset="0.5888" style="stop-color:#B4BCC7"/>
	<stop  offset="0.629" style="stop-color:#D1D7DE"/>
	<stop  offset="0.6689" style="stop-color:#E5EAEF"/>
	<stop  offset="0.7081" style="stop-color:#F2F6F9"/>
	<stop  offset="0.7459" style="stop-color:#F6FAFC"/>
	<stop  offset="0.7837" style="stop-color:#F2F6F9"/>
	<stop  offset="0.8229" style="stop-color:#E5EAEF"/>
	<stop  offset="0.8628" style="stop-color:#D1D7DE"/>
	<stop  offset="0.903" style="stop-color:#B4BCC7"/>
	<stop  offset="0.9437" style="stop-color:#8E99A9"/>
	<stop  offset="0.9841" style="stop-color:#616F85"/>
	<stop  offset="1" style="stop-color:#4D5C75"/>
</radialGradient>
<path fill="url(#curved)" d="M63.283,54.807v-0.005h0.004c-9.611-16.647-27.375-26.905-46.602-26.905H1.425v27.338h15.26
	c9.456,0,18.192,5.043,22.922,13.23l-0.004,0.004l7.634,13.219L70.914,68.02L63.283,54.807z"/>
	
<linearGradient id="linear" gradientUnits="userSpaceOnUse" x1="9.0498" y1="27.8746" x2="9.0498" y2="55.2349">
	<stop  offset="0" style="stop-color:#4D5C75"/>
	<stop  offset="0.0313" style="stop-color:#616F85"/>
	<stop  offset="0.1108" style="stop-color:#8E99A9"/>
	<stop  offset="0.1908" style="stop-color:#B4BCC7"/>
	<stop  offset="0.27" style="stop-color:#D1D7DE"/>
	<stop  offset="0.3485" style="stop-color:#E5EAEF"/>
	<stop  offset="0.4256" style="stop-color:#F2F6F9"/>
	<stop  offset="0.5" style="stop-color:#F6FAFC"/>
	<stop  offset="0.5744" style="stop-color:#F2F6F9"/>
	<stop  offset="0.6515" style="stop-color:#E5EAEF"/>
	<stop  offset="0.73" style="stop-color:#D1D7DE"/>
	<stop  offset="0.8092" style="stop-color:#B4BCC7"/>
	<stop  offset="0.8892" style="stop-color:#8E99A9"/>
	<stop  offset="0.9687" style="stop-color:#616F85"/>
	<stop  offset="1" style="stop-color:#4D5C75"/>
</linearGradient>

<rect id="segment" x="1.415" y="27.875" fill="url(#linear)"  />
<g transform="translate(86.712,39.632)">
		<use xlink:href="#segment" transform="rotate(60)"/>
</g>

<path class="color" d="M63.283,54.807v-0.005h0.004
	c-9.611-16.647-27.375-26.905-46.602-26.905H1.425v27.338h15.26c9.456,0,18.192,5.043,22.922,13.23l-0.004,0.004l7.634,13.219
	L70.914,68.02L63.283,54.807z"/>
<path class="stroke" d="M70.914,68.02
	l-7.631-13.213v-0.005h0.004c-9.611-16.647-27.375-26.905-46.602-26.905H1.425"/>
<path class="stroke" d="M1.425,55.235h15.26
	c9.456,0,18.192,5.043,22.922,13.23l-0.004,0.004l7.634,13.219"/>
</svg>
