

<svg xmlns:agg="http://www.example.com" xmlns="http://www.w3.org/2000/svg" preserveAspectRatio="none" width="1.3217in" height="1.4792in" viewBox="0 0 361 404">

<path style="fill:#7f7f7f" d="M350,129 l0,-118 -236,0 0,118 236,0z" />
<path style="fill:#999" d="M336,129 l0,-118 -208,0 0,118 208,0z" />
<path style="fill:#b2b2b2" d="M310,129 l0,-118 -157,0 0,118 157,0z" />
<path style="fill:#ccc" d="M286,129 l0,-118 -109,0 0,118 109,0z" />
<path style="fill:#e5e5e5" d="M267,129 l0,-118 -70,0 0,118 70,0z" />
<path style="fill:#fff" d="M247,129 l0,-118 -29,0 0,118 29,0z" />
<path style="fill:none;stroke:#000;stroke-width:2" d="M114,129 l0,-118" />
<path style="fill:none;stroke:#000;stroke-width:2" d="M350,11 l0,118" />
<path style="fill:#7f7f7f" d="M114,129 l118,205 13,-8 13,-9 12,-10 11,-11 10,-11 10,-12 9,-13 8,-13 7,-13 7,-14 5,-15 5,-14 3,-15 3,-16 1,-15 1,-16 -236,0z" />
<path style="fill:#999" d="M114,129 l111,192 12,-8 12,-8 11,-9 11,-10 9,-11 10,-11 8,-12 8,-12 6,-13 7,-13 5,-13 4,-14 3,-14 3,-15 1,-14 1,-15 -222,0z" />
<path style="fill:#b2b2b2" d="M114,129 l98,171 11,-7 10,-8 10,-8 10,-9 9,-9 8,-10 7,-10 7,-11 6,-12 5,-11 5,-12 4,-13 3,-12 2,-13 2,-13 0,-13 -197,0z" />
<path style="fill:#ccc" d="M114,129 l86,150 19,-13 17,-15 15,-17 12,-19 10,-20 7,-21 4,-22 2,-23 -172,0z" />
<path style="fill:#e5e5e5" d="M114,129 l76,133 17,-11 15,-14 13,-15 11,-16 9,-18 7,-19 4,-20 1,-20 -153,0z" />
<path style="fill:#fff" d="M114,129 l67,115 14,-10 13,-11 11,-13 10,-15 8,-15 5,-16 4,-18 1,-17 -133,0z" />
<path style="fill:#e5e5e5" d="M114,129 l52,90 11,-8 10,-8 9,-11 7,-11 6,-12 4,-13 3,-13 1,-14 -103,0z" />
<path style="fill:#ccc" d="M114,129 l42,73 9,-6 8,-8 7,-8 6,-9 5,-10 4,-10 2,-11 1,-11 -84,0z" />
<path style="fill:#b2b2b2" d="M114,129 l32,56 7,-5 6,-6 6,-6 5,-7 3,-7 3,-8 1,-8 1,-9 -64,0z" />
<path style="fill:#999" d="M114,129 l20,34 4,-3 4,-3 3,-4 3,-4 2,-5 2,-5 1,-5 0,-5 -39,0z" />
<path style="fill:none;stroke:#000;stroke-width:2" d="M232,334 l13,-8 13,-9 12,-10 11,-11 10,-11 10,-12 9,-13 8,-13 7,-13 7,-14 5,-15 5,-14 3,-15 3,-16 1,-15 1,-16" />
<path style="fill:#7f7f7f" d="M114,129 l7,13 3,-3 3,-3 1,-3 1,-4 -15,0z" />
<path style="fill:#7f7f7f" d="M130,393 l102,-59 -118,-205 -103,59 119,205z" />
<path style="fill:#999" d="M123,380 l102,-59 -104,-180 -102,59 104,180z" />
<path style="fill:#b2b2b2" d="M110,358 l102,-59 -79,-136 -102,59 79,136z" />
<path style="fill:#ccc" d="M98,337 l102,-59 -54,-94 -103,59 55,94z" />
<path style="fill:#e5e5e5" d="M88,321 l103,-59 -35,-61 -103,59 35,61z" />
<path style="fill:#fff" d="M78,303 l102,-59 -14,-25 -103,59 15,25z" />
<path style="fill:none;stroke:#000;stroke-width:2" d="M11,188 l103,-59" />
<path style="fill:none;stroke:#000;stroke-width:2" d="M232,334 l-102,59" />

</svg>
