

<svg xmlns:agg="http://www.example.com" xmlns="http://www.w3.org/2000/svg" preserveAspectRatio="none" width="0.5498in" height="1.4792in" viewBox="0 0 197 530">

<path style="fill:#7f7f7f;stroke:#000;stroke-width:2" d="M140,119 l42,-10 0,-63 -42,-10 0,83z" />
<path style="fill:#7f7f7f;stroke:#000;stroke-width:2" d="M140,307 l42,-10 0,-63 -42,-10 0,83z" />
<path style="fill:#7f7f7f;stroke:#000;stroke-width:2" d="M140,494 l42,-10 0,-62 -42,-11 0,83z" />
<path style="fill:#7f7f7f" d="M140,15 l-125,0 0,500 125,0 0,-500z" />
<path style="fill:#999" d="M140,46 l-125,0 0,439 125,0 0,-439z" />
<path style="fill:#b2b2b2" d="M140,100 l-125,0 0,332 125,0 0,-332z" />
<path style="fill:#ccc" d="M140,151 l-125,0 0,229 125,0 0,-229z" />
<path style="fill:#e5e5e5" d="M140,191 l-125,0 0,147 125,0 0,-147z" />
<path style="fill:#fff" d="M140,235 l-125,0 0,61 125,0 0,-61z" />
<path style="fill:none;stroke:#000;stroke-width:2" d="M140,15 l-125,0 0,500 125,0 0,-500" />
<path style="fill:#b2b2b2;stroke:#000;stroke-width:2" d="M140,104 l42,-6 0,-52 -42,-10 0,68z" />
<path style="fill:#b2b2b2;stroke:#000;stroke-width:2" d="M140,291 l42,-5 0,-52 -42,-10 0,67z" />
<path style="fill:#b2b2b2;stroke:#000;stroke-width:2" d="M140,479 l42,-5 0,-52 -42,-11 0,68z" />
<path style="fill:#e5e5e5;stroke:#000;stroke-width:2" d="M182,57 l0,-11 -42,-10 0,16 42,5z" />
<path style="fill:#e5e5e5;stroke:#000;stroke-width:2" d="M182,244 l0,-10 -42,-10 0,15 42,5z" />
<path style="fill:#e5e5e5;stroke:#000;stroke-width:2" d="M182,432 l0,-10 -42,-11 0,16 42,5z" />

</svg>
