

<svg xmlns:agg="http://www.example.com" xmlns="http://www.w3.org/2000/svg" preserveAspectRatio="none" width="2.0104in" height="0.9438in" viewBox="0 0 999 469">

<path style="fill:#7f7f7f" d="M28,322 l0,-177 471,0 432,-59 0,294 -432,-58 -471,0z" />
<path style="fill:#999" d="M28,311 l0,-153 471,0 432,-53 0,256 -432,-50 -471,0z" />
<path style="fill:#b2b2b2" d="M28,294 l0,-119 471,0 432,-40 0,196 -432,-37 -471,0z" />
<path style="fill:#ccc" d="M28,275 l0,-83 471,0 432,-27 0,138 -432,-28 -471,0z" />
<path style="fill:#e5e5e5" d="M28,260 l0,-53 471,0 432,-17 0,89 -432,-19 -471,0z" />
<path style="fill:#fff" d="M28,243 l0,-19 471,0 432,-6 0,30 -432,-5 -471,0z" />
<path style="fill:none;stroke:#000;stroke-width:2" d="M28,322 l0,-177 471,0 432,-59 0,294 -432,-58 -471,0" />
<path style="fill:#ccc;stroke:#000;stroke-width:2" d="M58,341 l13,0 0,11 -13,0 0,-11z" />
<path style="fill:#ccc;stroke:#000;stroke-width:2" d="M58,101 l13,0 0,12 -13,0 0,-12z" />
<path style="fill:#ccc;stroke:#000;stroke-width:2" d="M58,213 l13,0 0,11 -13,0 0,-11z" />
<path style="fill:#ccc;stroke:#000;stroke-width:2" d="M912,397 l15,0 0,10 -15,0 0,-10z" />
<path style="fill:#ccc;stroke:#000;stroke-width:2" d="M912,279 l15,0 0,11 -15,0 0,-11z" />
<path style="fill:#ccc;stroke:#000;stroke-width:2" d="M912,158 l15,0 0,11 -15,0 0,-11z" />
<path style="fill:#ccc;stroke:#000;stroke-width:2" d="M912,43 l15,0 0,11 -15,0 0,-11z" />
<path style="fill:#999;stroke:#000;stroke-width:2" d="M912,54 l15,0 0,19 -15,0 0,-19z" />
<path style="fill:#999;stroke:#000;stroke-width:2" d="M912,169 l15,0 0,17 -15,0 0,-17z" />
<path style="fill:#999;stroke:#000;stroke-width:2" d="M912,290 l15,0 0,19 -15,0 0,-19z" />
<path style="fill:#999;stroke:#000;stroke-width:2" d="M912,407 l15,0 0,19 -15,0 0,-19z" />
<path style="fill:#999;stroke:#000;stroke-width:2" d="M58,224 l13,0 0,19 -13,0 0,-19z" />
<path style="fill:#999;stroke:#000;stroke-width:2" d="M58,113 l13,0 0,18 -13,0 0,-18z" />
<path style="fill:#999;stroke:#000;stroke-width:2" d="M58,352 l13,0 0,19 -13,0 0,-19z" />
<path style="fill:#7f7f7f" d="M28,88 l30,0 0,294 -30,0 0,-294z" />
<path style="fill:#999" d="M28,107 l30,0 0,256 -30,0 0,-256z" />
<path style="fill:#b2b2b2" d="M28,139 l30,0 0,194 -30,0 0,-194z" />
<path style="fill:#ccc" d="M28,167 l30,0 0,134 -30,0 0,-134z" />
<path style="fill:#e5e5e5" d="M28,192 l30,0 0,85 -30,0 0,-85z" />
<path style="fill:#fff" d="M28,218 l30,0 0,34 -30,0 0,-34z" />
<path style="fill:none;stroke:#000;stroke-width:2" d="M28,86 l28,0 0,296 -28,0 0,-296" />
<path style="fill:#7f7f7f" d="M478,88 l40,0 0,294 -40,0 0,-294z" />
<path style="fill:#999" d="M478,107 l40,0 0,256 -40,0 0,-256z" />
<path style="fill:#b2b2b2" d="M478,139 l40,0 0,194 -40,0 0,-194z" />
<path style="fill:#ccc" d="M478,167 l40,0 0,134 -40,0 0,-134z" />
<path style="fill:#e5e5e5" d="M478,192 l40,0 0,85 -40,0 0,-85z" />
<path style="fill:#fff" d="M478,218 l40,0 0,34 -40,0 0,-34z" />
<path style="fill:none;stroke:#000;stroke-width:2" d="M478,86 l40,0 0,296 -40,0 0,-296" />
<path style="fill:#7f7f7f" d="M925,30 l45,0 0,411 -45,0 0,-411z" />
<path style="fill:#999" d="M925,56 l45,0 0,360 -45,0 0,-360z" />
<path style="fill:#b2b2b2" d="M925,99 l45,0 0,274 -45,0 0,-274z" />
<path style="fill:#ccc" d="M925,141 l45,0 0,189 -45,0 0,-189z" />
<path style="fill:#e5e5e5" d="M925,175 l45,0 0,121 -45,0 0,-121z" />
<path style="fill:#fff" d="M925,211 l45,0 0,49 -45,0 0,-49z" />
<path style="fill:none;stroke:#000;stroke-width:2" d="M925,28 l45,0 0,413 -45,0 0,-413" />

</svg>
