

<svg xmlns:agg="http://www.example.com" xmlns="http://www.w3.org/2000/svg" preserveAspectRatio="none" width="1.2943in" height="1.4792in" viewBox="0 0 350 400">

<path style="fill:#7f7f7f" d="M253,11 l0,121 -242,0 0,-121 242,0z" />
<path style="fill:#999" d="M238,11 l0,121 -212,0 0,-121 212,0z" />
<path style="fill:#b2b2b2" d="M212,11 l0,121 -161,0 0,-121 161,0z" />
<path style="fill:#ccc" d="M188,11 l0,121 -111,0 0,-121 111,0z" />
<path style="fill:#e5e5e5" d="M168,11 l0,121 -71,0 0,-121 71,0z" />
<path style="fill:#fff" d="M147,11 l0,121 -29,0 0,-121 29,0z" />
<path style="fill:none;stroke:#000;stroke-width:2" d="M11,11 l0,121" />
<path style="fill:none;stroke:#000;stroke-width:2" d="M253,132 l0,-121" />
<path style="fill:#7f7f7f" d="M254,132 l-172,171 -8,-8 -8,-9 -7,-10 -7,-9 -6,-10 -6,-11 -5,-10 -5,-11 -4,-11 -4,-11 -3,-12 -3,-11 -2,-12 -2,-12 -1,-12 0,-12 243,0z" />
<path style="fill:#999" d="M254,132 l-161,161 -8,-8 -7,-9 -7,-8 -6,-9 -6,-10 -5,-10 -5,-10 -5,-10 -4,-10 -3,-11 -3,-11 -3,-10 -2,-11 -1,-12 -1,-11 0,-11 227,0z" />
<path style="fill:#b2b2b2" d="M254,132 l-143,143 -13,-15 -12,-16 -10,-17 -8,-18 -7,-18 -5,-20 -3,-19 -1,-20 202,0z" />
<path style="fill:#ccc" d="M254,132 l-125,125 -12,-13 -10,-14 -9,-14 -7,-16 -6,-17 -5,-17 -2,-17 -1,-17 177,0z" />
<path style="fill:#e5e5e5" d="M254,132 l-111,111 -10,-11 -9,-13 -8,-13 -7,-14 -5,-15 -4,-14 -2,-16 -1,-15 157,0z" />
<path style="fill:#fff" d="M254,132 l-97,97 -9,-10 -8,-11 -7,-12 -5,-12 -5,-12 -3,-13 -2,-14 -1,-13 137,0z" />
<path style="fill:#e5e5e5" d="M254,132 l-75,75 -7,-8 -6,-8 -6,-9 -4,-9 -3,-10 -3,-10 -1,-11 -1,-10 106,0z" />
<path style="fill:#ccc" d="M254,132 l-61,61 -6,-6 -5,-7 -4,-7 -3,-8 -3,-8 -2,-8 -2,-8 0,-9 86,0z" />
<path style="fill:#b2b2b2" d="M254,132 l-47,46 -4,-5 -4,-5 -3,-5 -3,-6 -2,-6 -2,-6 -1,-7 0,-6 66,0z" />
<path style="fill:#999" d="M254,132 l-29,29 -5,-6 -4,-7 -2,-8 -1,-8 41,0z" />
<path style="fill:#7f7f7f" d="M254,132 l-11,11 -2,-2 -2,-3 -1,-3 0,-3 16,0z" />
<path style="fill:none;stroke:#000;stroke-width:2" d="M82,303 l-8,-8 -8,-9 -7,-10 -7,-9 -6,-10 -6,-11 -5,-10 -5,-11 -4,-11 -4,-11 -3,-12 -3,-11 -2,-12 -2,-12 -1,-12 0,-12" />
<path style="fill:#7f7f7f" d="M254,132 l85,86 -171,171 -85,-86 171,-171z" />
<path style="fill:#999" d="M243,143 l86,85 -150,150 -86,-85 150,-150z" />
<path style="fill:#b2b2b2" d="M225,161 l85,86 -113,113 -86,-85 114,-114z" />
<path style="fill:#ccc" d="M207,178 l86,86 -79,79 -85,-86 78,-79z" />
<path style="fill:#e5e5e5" d="M193,192 l86,86 -50,50 -86,-85 50,-51z" />
<path style="fill:#fff" d="M179,207 l85,86 -21,21 -85,-86 21,-21z" />
<path style="fill:none;stroke:#000;stroke-width:2" d="M83,303 l85,86" />
<path style="fill:none;stroke:#000;stroke-width:2" d="M339,218 l-85,-86" />

</svg>
