


<svg xmlns:agg="http://www.example.com" xmlns="http://www.w3.org/2000/svg" preserveAspectRatio="none" width="2.0104in" height="1.0773in" viewBox="0 0 530 284">

<circle style="fill:#7f7f7f;stroke:#000;stroke-width:2" cx="390" cy="140" r="125" />
<circle style="fill:#999" cx="390" cy="140" r="113" />
<circle style="fill:#b2b2b2" cx="390" cy="140" r="93" />
<circle style="fill:#ccc" cx="390" cy="140" r="74" />
<circle style="fill:#e5e5e5" cx="390" cy="140" r="58" />
<path style="fill:#7f7f7f" d="M15,15 l376,0 0,191 -376,0 0,-191z" />
<path style="fill:#999" d="M15,28 l376,0 0,167 -376,0 0,-167z" />
<path style="fill:#b2b2b2" d="M15,48 l376,0 0,127 -376,0 0,-127z" />
<path style="fill:#ccc" d="M15,67 l376,0 0,88 -376,0 0,-88z" />
<path style="fill:#e5e5e5" d="M15,83 l376,0 0,56 -376,0 0,-56z" />
<path style="fill:#fff" d="M15,100 l376,0 0,23 -376,0 0,-23z" />
<path style="fill:none;stroke:#000;stroke-width:2" d="M15,206 l376,0" />
<path style="fill:none;stroke:#000;stroke-width:2" d="M391,15 l-376,0" />
<path style="fill:#fff" d="M388,131 l0,-53 11,1 10,3 9,5 8,6 6,8 5,9 3,10 1,11 -1,11 -3,9 -5,9 -6,8 -8,6 -9,5 -10,3 -11,1 0,-52z" />
<path style="fill:#e5e5e5" d="M388,119 l0,-41 8,1 8,2 7,4 6,5 5,6 4,7 2,8 1,8 -1,8 -2,8 -4,7 -5,6 -6,5 -7,4 -8,2 -8,1 0,-41z" />
<path style="fill:#ccc" d="M388,111 l0,-33 7,1 6,2 6,3 5,4 4,5 3,5 1,6 1,7 -1,7 -1,6 -3,5 -4,5 -5,4 -6,3 -6,2 -7,1 0,-33z" />
<path style="fill:#b2b2b2" d="M388,103 l0,-25 10,2 8,5 6,8 2,10 -2,10 -6,8 -8,6 -10,2 0,-26z" />
<path style="fill:#999" d="M387,94 l0,-16 6,1 5,4 4,5 1,6 -1,6 -4,4 -5,4 -6,1 0,-15z" />
<path style="fill:#7f7f7f" d="M386,84 l0,-6 3,1 2,1 1,2 1,2 -1,3 -1,2 -2,1 -3,1 0,-7z" />
<path style="fill:#7f7f7f" d="M202,78 l189,0 0,191 -189,0 0,-191z" />
<path style="fill:#999" d="M202,91 l189,0 0,167 -189,0 0,-167z" />
<path style="fill:#b2b2b2" d="M202,111 l189,0 0,127 -189,0 0,-127z" />
<path style="fill:#ccc" d="M202,130 l189,0 0,88 -189,0 0,-88z" />
<path style="fill:#e5e5e5" d="M202,146 l189,0 0,56 -189,0 0,-56z" />
<path style="fill:#fff" d="M202,163 l189,0 0,23 -189,0 0,-23z" />
<path style="fill:none;stroke:#000;stroke-width:2" d="M202,269 l189,0" />
<path style="fill:none;stroke:#000;stroke-width:2" d="M391,78 l-189,0" />

</svg>
