

<svg xmlns:agg="http://www.example.com" xmlns="http://www.w3.org/2000/svg" preserveAspectRatio="none" width="1.6881in" height="1.4792in" viewBox="0 0 412 361">

<path style="fill:#7f7f7f" d="M11,261 l125,0 0,-250 -125,0 0,250z" />
<path style="fill:#999" d="M11,245 l125,0 0,-219 -125,0 0,219z" />
<path style="fill:#b2b2b2" d="M11,218 l125,0 0,-166 -125,0 0,166z" />
<path style="fill:#ccc" d="M11,193 l125,0 0,-115 -125,0 0,115z" />
<path style="fill:#e5e5e5" d="M11,173 l125,0 0,-74 -125,0 0,74z" />
<path style="fill:#fff" d="M11,151 l125,0 0,-31 -125,0 0,31z" />
<path style="fill:none;stroke:#000;stroke-width:2" d="M11,11 l125,0" />
<path style="fill:none;stroke:#000;stroke-width:2" d="M136,261 l-125,0" />
<path style="fill:#7f7f7f" d="M136,261 l177,-177 -9,-8 -9,-8 -10,-8 -10,-7 -10,-6 -11,-6 -11,-6 -11,-5 -12,-4 -12,-4 -11,-3 -12,-3 -12,-2 -13,-2 -12,-1 -12,0 0,250z" />
<path style="fill:#999" d="M136,261 l166,-166 -8,-8 -9,-7 -9,-7 -9,-7 -10,-6 -10,-6 -11,-5 -10,-5 -11,-4 -11,-4 -11,-3 -11,-2 -12,-2 -11,-2 -12,-1 -11,0 0,235z" />
<path style="fill:#b2b2b2" d="M136,261 l147,-147 -15,-14 -16,-12 -18,-11 -18,-9 -19,-7 -20,-5 -20,-3 -21,-1 0,209z" />
<path style="fill:#ccc" d="M136,261 l129,-129 -13,-12 -15,-11 -15,-9 -16,-7 -17,-6 -17,-5 -18,-2 -18,-1 0,182z" />
<path style="fill:#e5e5e5" d="M136,261 l114,-114 -12,-11 -12,-9 -14,-8 -14,-7 -15,-6 -16,-4 -15,-2 -16,-1 0,162z" />
<path style="fill:#fff" d="M136,261 l100,-100 -10,-9 -11,-8 -12,-7 -13,-6 -13,-5 -13,-3 -14,-2 -14,-1 0,141z" />
<path style="fill:#e5e5e5" d="M136,261 l77,-77 -8,-7 -8,-6 -10,-6 -9,-5 -10,-3 -11,-3 -10,-1 -11,-1 0,109z" />
<path style="fill:#ccc" d="M136,261 l63,-63 -7,-6 -7,-5 -7,-4 -8,-4 -8,-3 -9,-2 -8,-2 -9,0 0,89z" />
<path style="fill:#b2b2b2" d="M136,261 l48,-48 -5,-4 -5,-4 -6,-4 -6,-3 -6,-2 -7,-2 -6,-1 -7,0 0,68z" />
<path style="fill:#999" d="M136,261 l29,-29 -6,-5 -7,-5 -8,-2 -8,-1 0,42z" />
<path style="fill:#7f7f7f" d="M136,261 l11,-11 -2,-2 -3,-2 -3,-1 -3,0 0,16z" />
<path style="fill:none;stroke:#000;stroke-width:2" d="M313,84 l-9,-8 -9,-8 -10,-8 -10,-7 -10,-6 -11,-6 -11,-6 -11,-5 -12,-4 -12,-4 -11,-3 -12,-3 -12,-2 -13,-2 -12,-1 -12,0" />
<path style="fill:#7f7f7f" d="M136,261 l88,89 177,-177 -88,-89 -177,177z" />
<path style="fill:#999" d="M147,250 l88,89 155,-155 -88,-89 -155,155z" />
<path style="fill:#b2b2b2" d="M166,231 l88,89 118,-118 -89,-88 -117,117z" />
<path style="fill:#ccc" d="M184,213 l88,89 81,-81 -88,-89 -81,81z" />
<path style="fill:#e5e5e5" d="M198,199 l89,88 52,-52 -89,-88 -52,52z" />
<path style="fill:#fff" d="M214,184 l88,88 22,-22 -89,-88 -21,22z" />
<path style="fill:none;stroke:#000;stroke-width:2" d="M313,84 l88,89" />
<path style="fill:none;stroke:#000;stroke-width:2" d="M224,350 l-88,-89" />

</svg>
