


<svg xmlns:agg="http://www.example.com" xmlns="http://www.w3.org/2000/svg" preserveAspectRatio="none" width="1.4764in" height="1.4792in" viewBox="0 0 530 531">

<path style="fill:#7f7f7f" d="M15,15 l500,0 0,501 -500,0 0,-501z" />
<path style="fill:#999" d="M15,46 l500,0 0,439 -500,0 0,-439z" />
<path style="fill:#b2b2b2" d="M15,99 l500,0 0,334 -500,0 0,-334z" />
<path style="fill:#ccc" d="M15,150 l500,0 0,231 -500,0 0,-231z" />
<path style="fill:#e5e5e5" d="M15,191 l500,0 0,147 -500,0 0,-147z" />
<path style="fill:#fff" d="M15,235 l500,0 0,61 -500,0 0,-61z" />
<path style="fill:none;stroke:#000;stroke-width:2" d="M15,516 l500,0" />
<path style="fill:none;stroke:#000;stroke-width:2" d="M515,15 l-500,0" />
<path style="fill:none;stroke:#000;stroke-width:2" d="M307,515 l-73,-125 31,-99 68,-52 99,-5 47,-68 -36,-57" />
<path style="fill:none;stroke:#000;stroke-width:2" d="M333,239 l31,-52 -151,-42 52,-36 -15,-16" />
<path style="fill:none;stroke:#000;stroke-width:2" d="M370,515 l20,-73 -83,-10 -73,-42" />
<path style="fill:none;stroke:#000;stroke-width:2" d="M255,327 l-31,-57 -99,-47 -63,52" />
<path style="fill:none;stroke:#000;stroke-width:2" d="M125,223 l-31,-47 15,-57" />
<path style="fill:#000;stroke:#000;stroke-width:2" d="M255,327 l10,-36 -41,-21 31,57z" />
<path style="fill:#000;stroke:#000;stroke-width:2" d="M260,432 l5,-21 -31,-21 26,42z" />

</svg>
