<svg xmlns:agg="http://www.example.com" xmlns="http://www.w3.org/2000/svg" preserveAspectRatio="none" width="1.4792in" height="1.4792in" viewBox="0 0 530 530">
<path style="fill:#7f7f7f" d="M15,140 l500,0 0,250 -500,0 0,-250z" />
<path style="fill:#999" d="M15,156 l500,0 0,219 -500,0 0,-219z" />
<path style="fill:#b2b2b2" d="M15,182 l500,0 0,167 -500,0 0,-167z" />
<path style="fill:#ccc" d="M15,208 l500,0 0,115 -500,0 0,-115z" />
<path style="fill:#e5e5e5" d="M15,228 l500,0 0,74 -500,0 0,-74z" />
<path style="fill:#fff" d="M15,250 l500,0 0,30 -500,0 0,-30z" />
<path style="fill:none;stroke:#000;stroke-width:2" d="M15,390 l500,0" />
<path style="fill:none;stroke:#000;stroke-width:2" d="M515,140 l-500,0" />
<path style="fill:#7f7f7f" d="M140,124 l0,-109 250,0 0,109 -3,25 -7,24 -11,21 -16,18 -18,16 -21,11 -24,7 -25,3 -25,-3 -24,-7 -21,-11 -18,-16 -16,-18 -11,-21 -7,-24 -3,-25z" />
<path style="fill:#999" d="M156,186 l9,14 11,12 12,11 14,9 15,7 15,6 16,3 17,1 17,-1 16,-3 16,-6 15,-7 13,-9 13,-11 11,-12 9,-14 0,-171 -219,0 0,171z" />
<path style="fill:#b2b2b2" d="M182,217 l9,7 9,7 10,5 11,5 10,3 11,3 11,1 12,1 12,-1 11,-1 11,-3 11,-3 10,-4 10,-6 9,-6 9,-7 1,-203 -167,0 0,202z" />
<path style="fill:#ccc" d="M208,235 l7,3 6,3 7,3 8,2 7,1 7,1 8,1 7,0 7,0 8,-1 7,-1 8,-1 7,-2 7,-3 7,-3 7,-3 0,-220 -115,0 0,220z" />
<path style="fill:#e5e5e5" d="M229,244 l4,1 5,1 4,1 5,1 4,0 5,1 4,0 5,0 5,0 6,-1 5,0 5,-1 6,-1 5,-1 5,-1 5,-1 0,-228 -78,0 0,229z" />
<path style="fill:#fff" d="M250,248 l3,1 4,0 4,0 4,0 4,0 4,0 5,0 3,-1 0,-233 -31,0 0,233z" />
<path style="fill:none;stroke:#000;stroke-width:2" d="M390,15 l0,109 -3,25 -7,24 -11,21 -16,18 -18,16 -21,11 -24,7 -25,3 -25,-3 -24,-7 -21,-11 -18,-16 -16,-18 -11,-21 -7,-24 -3,-25 0,-109" />
<path style="fill:#7f7f7f" d="M140,406 l0,109 250,0 0,-109 -3,-25 -7,-24 -11,-21 -16,-18 -18,-16 -21,-11 -24,-7 -25,-3 -25,3 -24,7 -21,11 -18,16 -16,18 -11,21 -7,24 -3,25z" />
<path style="fill:#999" d="M156,344 l9,-14 11,-12 12,-11 14,-9 15,-7 15,-6 16,-3 17,-1 17,1 16,4 16,5 15,7 13,10 13,11 11,12 9,14 0,170 -219,0 0,-171z" />
<path style="fill:#b2b2b2" d="M182,313 l9,-7 9,-7 10,-5 11,-5 10,-3 11,-3 11,-1 12,-1 12,1 11,1 11,3 11,3 10,5 10,5 9,7 9,7 1,202 -167,0 0,-202z" />
<path style="fill:#ccc" d="M208,295 l7,-3 6,-3 7,-2 8,-2 7,-2 7,-1 8,-1 7,0 7,0 8,1 7,1 8,2 7,2 7,2 7,3 7,3 0,220 -115,0 0,-220z" />
<path style="fill:#e5e5e5" d="M229,287 l4,-1 5,-2 4,-1 5,-1 4,0 5,-1 4,0 5,0 5,0 6,1 5,0 5,1 6,1 5,1 5,1 5,1 0,228 -78,0 0,-228z" />
<path style="fill:#fff" d="M250,282 l3,-1 4,0 4,0 4,0 4,0 4,0 5,0 3,1 0,233 -31,0 0,-233z" />
<path style="fill:none;stroke:#000;stroke-width:2" d="M390,515 l0,-109 -3,-25 -7,-24 -11,-21 -16,-18 -18,-16 -21,-11 -24,-7 -25,-3 -25,3 -24,7 -21,11 -18,16 -16,18 -11,21 -7,24 -3,25 0,109" />

</svg>
