 

<svg xmlns:agg="http://www.example.com" xmlns="http://www.w3.org/2000/svg" preserveAspectRatio="none" width="1.1376in" height="1.0750in" viewBox="0 0 999 944">

<path style="fill:#7f7f7f" d="M90,500 l22,21 22,21 23,20 23,19 24,19 25,18 24,18 26,17 26,17 26,15 27,15 27,15 27,14 28,13 28,12 28,12 29,11 28,10 29,10 29,9 30,8 29,8 30,6 30,6 30,6 30,4 30,4 30,3 30,2 30,2 30,0 30,0 -2,-611 -31,1 -31,-1 -31,-3 -31,-4 -30,-6 -30,-8 -30,-9 -29,-10 -28,-12 -28,-14 -28,-14 -26,-17 -25,-17 -25,-19 -24,-21 -11,-10 -11,-11 -429,431z" />
<path style="fill:none;stroke:#000;stroke-width:2" d="M968,244 l-15,1 -32,-1 -30,-1 -31,-4 -31,-5 -30,-7 -30,-8 -30,-10 -28,-11 -28,-13 -28,-14 -27,-15 -26,-17 -25,-19 -24,-19 -23,-21 -11,-11" />
<path style="fill:none;stroke:#000;stroke-width:2" d="M90,500 l22,21 22,21 23,20 23,19 24,19 25,18 24,18 26,17 26,17 26,15 27,15 27,15 27,14 28,13 28,12 28,12 29,11 28,10 29,10 29,9 30,8 29,8 30,6 30,6 30,6 30,4 30,4 30,3 30,2 30,2 30,0 30,0" />
<path style="fill:#ccc;stroke:#000;stroke-width:2" d="M28,526 l36,34 496,-496 -34,-36 -498,498z" />
<path style="fill:#ccc;stroke:#000;stroke-width:2" d="M607,99 l-38,-30 -444,548 40,32 442,-550z" />
<path style="fill:#ccc;stroke:#000;stroke-width:2" d="M656,133 l-42,-28 -383,590 43,28 382,-590z" />
<path style="fill:#ccc;stroke:#000;stroke-width:2" d="M709,160 l-45,-23 -318,628 43,22 320,-627z" />
<path style="fill:#ccc;stroke:#000;stroke-width:2" d="M763,182 l-47,-19 -252,659 47,18 252,-658z" />
<path style="fill:#ccc;stroke:#000;stroke-width:2" d="M820,197 l-47,-11 -183,679 49,13 181,-681z" />
<path style="fill:#ccc;stroke:#000;stroke-width:2" d="M878,208 l-49,-7 -111,694 51,9 109,-696z" />
<path style="fill:#ccc;stroke:#000;stroke-width:2" d="M938,212 l-51,-4 -37,704 50,4 38,-704z" />

</svg>
