 

<svg xmlns:agg="http://www.example.com" xmlns="http://www.w3.org/2000/svg" preserveAspectRatio="none" width="1.0363in" height="1.0750in" viewBox="0 0 963 999">

<path style="fill:#7f7f7f" d="M91,944 l1,-32 1,-32 2,-32 3,-31 4,-33 5,-31 5,-32 6,-31 7,-32 8,-31 9,-31 9,-31 11,-30 10,-30 12,-31 12,-29 13,-30 14,-28 14,-29 15,-28 16,-28 17,-28 16,-27 18,-27 18,-26 19,-25 20,-25 20,-25 20,-23 22,-24 22,-22 22,-23 453,453 -24,23 -22,23 -21,25 -19,26 -19,27 -17,28 -15,29 -14,29 -13,30 -11,31 -9,31 -8,32 -6,32 -4,33 -3,32 -1,17 0,16 -638,0z" />
<path style="fill:none;stroke:#000;stroke-width:2" d="M935,480 l-24,23 -22,23 -21,25 -19,26 -19,27 -17,28 -15,29 -14,29 -13,30 -11,31 -9,31 -8,32 -6,32 -4,33 -3,32 -1,17 0,16" />
<path style="fill:none;stroke:#000;stroke-width:2" d="M91,944 l1,-32 1,-32 2,-32 3,-31 4,-33 5,-31 5,-32 6,-31 7,-32 8,-31 9,-31 9,-31 11,-30 10,-30 12,-31 12,-29 13,-30 14,-28 14,-29 15,-28 16,-28 17,-28 16,-27 18,-27 18,-26 19,-25 20,-25 20,-25 20,-23 22,-24 22,-22 22,-23" />
<path style="fill:#ccc;stroke:#000;stroke-width:2" d="M27,971 l0,-53 738,0 0,53 -738,0z" />
<path style="fill:#ccc;stroke:#000;stroke-width:2" d="M772,856 l-5,51 -734,-78 5,-51 734,78z" />
<path style="fill:#ccc;stroke:#000;stroke-width:2" d="M786,793 l-12,53 -722,-154 11,-51 723,152z" />
<path style="fill:#ccc;stroke:#000;stroke-width:2" d="M803,735 l-15,51 -704,-229 17,-51 702,229z" />
<path style="fill:#ccc;stroke:#000;stroke-width:2" d="M827,678 l-21,49 -675,-301 23,-48 673,300z" />
<path style="fill:#ccc;stroke:#000;stroke-width:2" d="M859,623 l-26,48 -641,-370 26,-45 641,367z" />
<path style="fill:#ccc;stroke:#000;stroke-width:2" d="M893,575 l-30,41 -598,-434 32,-43 596,436z" />
<path style="fill:#ccc;stroke:#000;stroke-width:2" d="M935,527 l-36,40 -549,-494 36,-40 549,494z" />

</svg>
