

<svg xmlns:agg="http://www.example.com" xmlns="http://www.w3.org/2000/svg" preserveAspectRatio="none" width="1.7508in" height="1.4792in" viewBox="0 0 999 844">

<path style="fill:#7f7f7f" d="M759,816 l-731,-423 211,-365 731,422 -211,366z" />
<path style="fill:#999" d="M772,793 l-731,-422 185,-321 731,423 -185,320z" />
<path style="fill:#b2b2b2" d="M795,753 l-731,-422 141,-243 729,422 -139,243z" />
<path style="fill:#ccc" d="M816,718 l-732,-423 98,-169 732,422 -98,170z" />
<path style="fill:#e5e5e5" d="M833,687 l-730,-422 60,-107 732,422 -62,107z" />
<path style="fill:#fff" d="M851,655 l-731,-422 27,-45 731,422 -27,45z" />
<path style="fill:none;stroke:#000;stroke-width:2" d="M970,450 l-731,-422" />
<path style="fill:none;stroke:#000;stroke-width:2" d="M28,393 l731,423" />

</svg>
