

<svg xmlns:agg="http://www.example.com" xmlns="http://www.w3.org/2000/svg" preserveAspectRatio="none" width="1.2943in" height="1.4792in" viewBox="0 0 350 400">

<path style="fill:#7f7f7f" d="M253,389 l0,-121 -242,0 0,121 242,0z" />
<path style="fill:#999" d="M238,389 l0,-121 -212,0 0,121 212,0z" />
<path style="fill:#b2b2b2" d="M212,389 l0,-121 -161,0 0,121 161,0z" />
<path style="fill:#ccc" d="M188,389 l0,-121 -112,0 0,121 112,0z" />
<path style="fill:#e5e5e5" d="M168,389 l0,-121 -71,0 0,121 71,0z" />
<path style="fill:#fff" d="M147,389 l0,-121 -30,0 0,121 30,0z" />
<path style="fill:none;stroke:#000;stroke-width:2" d="M11,389 l0,-121" />
<path style="fill:none;stroke:#000;stroke-width:2" d="M253,268 l0,121" />
<path style="fill:#7f7f7f" d="M254,268 l-172,-171 -8,8 -8,9 -7,10 -7,9 -6,10 -6,11 -5,10 -5,11 -4,11 -4,12 -3,11 -3,12 -2,12 -2,11 -1,12 0,12 243,0z" />
<path style="fill:#999" d="M254,268 l-161,-161 -8,8 -7,9 -7,8 -6,10 -6,9 -6,10 -5,10 -4,10 -4,11 -4,10 -3,11 -2,11 -2,11 -2,11 -1,11 0,11 228,0z" />
<path style="fill:#b2b2b2" d="M254,268 l-143,-143 -13,15 -12,16 -10,17 -9,18 -7,18 -5,20 -3,19 -1,20 203,0z" />
<path style="fill:#ccc" d="M254,268 l-126,-125 -11,13 -10,14 -9,15 -7,16 -6,16 -5,17 -2,17 -1,17 177,0z" />
<path style="fill:#e5e5e5" d="M254,268 l-111,-111 -10,11 -9,13 -8,13 -7,14 -5,15 -4,14 -2,16 -1,15 157,0z" />
<path style="fill:#fff" d="M254,268 l-97,-96 -9,10 -8,10 -7,12 -5,12 -5,12 -3,13 -2,14 -1,13 137,0z" />
<path style="fill:#e5e5e5" d="M254,268 l-75,-75 -7,8 -6,8 -6,9 -4,9 -3,10 -3,10 -1,11 -1,10 106,0z" />
<path style="fill:#ccc" d="M254,268 l-61,-60 -6,6 -5,7 -4,7 -3,7 -3,8 -2,8 -2,9 0,8 86,0z" />
<path style="fill:#b2b2b2" d="M254,268 l-47,-46 -4,5 -4,5 -3,5 -3,6 -2,6 -2,6 -1,7 0,6 66,0z" />
<path style="fill:#999" d="M254,268 l-29,-28 -5,6 -4,7 -2,7 -1,8 41,0z" />
<path style="fill:#7f7f7f" d="M254,268 l-11,-11 -2,2 -2,3 -1,3 0,3 16,0z" />
<path style="fill:none;stroke:#000;stroke-width:2" d="M82,97 l-8,8 -8,9 -7,10 -7,9 -6,10 -6,11 -5,10 -5,11 -4,11 -4,12 -3,11 -3,12 -2,12 -2,11 -1,12 0,12" />
<path style="fill:#7f7f7f" d="M254,268 l85,-86 -171,-171 -86,86 172,171z" />
<path style="fill:#999" d="M243,258 l86,-86 -150,-150 -86,85 150,151z" />
<path style="fill:#b2b2b2" d="M225,239 l85,-85 -114,-114 -85,85 114,114z" />
<path style="fill:#ccc" d="M207,222 l86,-86 -79,-79 -85,86 78,79z" />
<path style="fill:#e5e5e5" d="M193,208 l86,-86 -50,-50 -86,86 50,50z" />
<path style="fill:#fff" d="M178,193 l86,-86 -21,-21 -85,86 20,21z" />
<path style="fill:none;stroke:#000;stroke-width:2" d="M82,97 l86,-86" />
<path style="fill:none;stroke:#000;stroke-width:2" d="M339,182 l-85,86" />

</svg>
