


<svg xmlns:agg="http://www.example.com" xmlns="http://www.w3.org/2000/svg" preserveAspectRatio="none" width="0.7814in" height="1.4792in" viewBox="0 0 280 530">

<path style="fill:#7f7f7f" d="M15,16 l167,0 0,499 -167,0 0,-499z" />
<path style="fill:#999" d="M15,47 l167,0 0,437 -167,0 0,-437z" />
<path style="fill:#b2b2b2" d="M15,100 l167,0 0,332 -167,0 0,-332z" />
<path style="fill:#ccc" d="M15,151 l167,0 0,229 -167,0 0,-229z" />
<path style="fill:#e5e5e5" d="M15,192 l167,0 0,146 -167,0 0,-146z" />
<path style="fill:#fff" d="M15,235 l167,0 0,61 -167,0 0,-61z" />
<path style="fill:none;stroke:#000;stroke-width:2" d="M15,515 l167,0" />
<path style="fill:none;stroke:#000;stroke-width:2" d="M182,16 l-167,0" />
<ellipse style="fill:#b2b2b2;stroke:#000;stroke-width:2" cx="182" cy="265" rx="83" ry="250" />
<ellipse style="fill:#666;stroke:#000;stroke-width:2" cx="182" cy="265" rx="52" ry="219" />

</svg>
