 

<svg xmlns:agg="http://www.example.com" xmlns="http://www.w3.org/2000/svg" preserveAspectRatio="none" width="1.3965in" height="1.0750in" viewBox="0 0 999 769">

<path style="fill:#ccc;stroke:#000;stroke-width:2" d="M271,136 l-179,177 365,365 72,-73 75,73 366,-365 -74,-74 -110,-103 0,-108 -515,2 0,106z" />
<path style="fill:none;stroke:#7f7f7f;stroke-width:2" d="M786,136 l-257,469 -254,-469" />
<path style="fill:#4c4c4c;stroke:#000;stroke-width:2" d="M436,729 l55,-55 12,11 -55,55 -12,-11z" />
<path style="fill:#4c4c4c;stroke:#000;stroke-width:2" d="M28,322 l55,-55 13,12 -57,55 -11,-12z" />
<path style="fill:#b2b2b2;stroke:#000;stroke-width:2" d="M476,733 l17,-19 -437,-437 -19,17 439,439z" />
<path style="fill:none;stroke:#7f7f7f;stroke-width:2" d="M273,138 l520,0" />

</svg>
