 

<svg xmlns:agg="http://www.example.com" xmlns="http://www.w3.org/2000/svg" preserveAspectRatio="none" width="1.6083in" height="0.5297in" viewBox="0 0 999 329">

<path style="fill:#7f7f7f" d="M29,52 l472,0 0,234 -472,0 0,-234z" />
<path style="fill:none;stroke:#000;stroke-width:2" d="M501,52 l-472,0" />
<path style="fill:none;stroke:#000;stroke-width:2" d="M501,286 l-472,0" />
<path style="fill:#ccc;stroke:#000;stroke-width:2" d="M46,28 l-18,0 0,273 18,0 0,-273z" />
<path style="fill:#ccc;stroke:#000;stroke-width:2" d="M86,28 l-19,0 0,273 19,0 0,-273z" />
<path style="fill:#ccc;stroke:#000;stroke-width:2" d="M125,28 l-18,0 0,273 18,0 0,-273z" />
<path style="fill:#ccc;stroke:#000;stroke-width:2" d="M165,28 l-20,0 0,273 20,0 0,-273z" />
<path style="fill:#ccc;stroke:#000;stroke-width:2" d="M203,28 l-19,0 0,273 19,0 0,-273z" />
<path style="fill:#ccc;stroke:#000;stroke-width:2" d="M242,28 l-18,0 0,273 18,0 0,-273z" />
<path style="fill:#ccc;stroke:#000;stroke-width:2" d="M282,28 l-19,0 0,273 19,0 0,-273z" />
<path style="fill:#ccc;stroke:#000;stroke-width:2" d="M322,28 l-21,0 0,273 21,0 0,-273z" />
<path style="fill:#ccc;stroke:#000;stroke-width:2" d="M361,28 l-20,0 0,273 20,0 0,-273z" />
<path style="fill:#ccc;stroke:#000;stroke-width:2" d="M399,28 l-19,0 0,273 19,0 0,-273z" />
<path style="fill:#ccc;stroke:#000;stroke-width:2" d="M439,28 l-19,0 0,273 19,0 0,-273z" />
<path style="fill:#ccc;stroke:#000;stroke-width:2" d="M478,28 l-21,0 0,273 21,0 0,-273z" />
<path style="fill:#7f7f7f" d="M501,52 l469,0 0,234 -469,0 0,-234z" />
<path style="fill:none;stroke:#000;stroke-width:2" d="M970,52 l-469,0" />
<path style="fill:none;stroke:#000;stroke-width:2" d="M970,286 l-469,0" />
<path style="fill:#ccc;stroke:#000;stroke-width:2" d="M518,28 l-21,0 0,273 21,0 0,-273z" />
<path style="fill:#ccc;stroke:#000;stroke-width:2" d="M558,28 l-21,0 0,273 21,0 0,-273z" />
<path style="fill:#ccc;stroke:#000;stroke-width:2" d="M595,28 l-19,0 0,273 19,0 0,-273z" />
<path style="fill:#ccc;stroke:#000;stroke-width:2" d="M635,28 l-19,0 0,273 19,0 0,-273z" />
<path style="fill:#ccc;stroke:#000;stroke-width:2" d="M675,28 l-21,0 0,273 21,0 0,-273z" />
<path style="fill:#ccc;stroke:#000;stroke-width:2" d="M714,28 l-21,0 0,273 21,0 0,-273z" />
<path style="fill:#ccc;stroke:#000;stroke-width:2" d="M752,28 l-19,0 0,273 19,0 0,-273z" />
<path style="fill:#ccc;stroke:#000;stroke-width:2" d="M791,28 l-19,0 0,273 19,0 0,-273z" />
<path style="fill:#ccc;stroke:#000;stroke-width:2" d="M831,28 l-19,0 0,273 19,0 0,-273z" />
<path style="fill:#ccc;stroke:#000;stroke-width:2" d="M870,28 l-20,0 0,273 20,0 0,-273z" />
<path style="fill:#ccc;stroke:#000;stroke-width:2" d="M908,28 l-19,0 0,273 19,0 0,-273z" />
<path style="fill:#ccc;stroke:#000;stroke-width:2" d="M948,28 l-19,0 0,273 19,0 0,-273z" />

</svg>
