 

<svg xmlns:agg="http://www.example.com" xmlns="http://www.w3.org/2000/svg" preserveAspectRatio="none" width="0.3544in" height="1.0750in" viewBox="0 0 329 998">

<path style="fill:#7f7f7f" d="M52,969 l0,-472 234,0 0,472 -234,0z" />
<path style="fill:none;stroke:#000;stroke-width:2" d="M52,497 l0,472" />
<path style="fill:none;stroke:#000;stroke-width:2" d="M286,497 l0,472" />
<path style="fill:#ccc;stroke:#000;stroke-width:2" d="M28,951 l0,19 273,0 0,-19 -273,0z" />
<path style="fill:#ccc;stroke:#000;stroke-width:2" d="M28,912 l0,19 273,0 0,-19 -273,0z" />
<path style="fill:#ccc;stroke:#000;stroke-width:2" d="M28,872 l0,19 273,0 0,-19 -273,0z" />
<path style="fill:#ccc;stroke:#000;stroke-width:2" d="M28,833 l0,21 273,0 0,-21 -273,0z" />
<path style="fill:#ccc;stroke:#000;stroke-width:2" d="M28,795 l0,19 273,0 0,-19 -273,0z" />
<path style="fill:#ccc;stroke:#000;stroke-width:2" d="M28,755 l0,19 273,0 0,-19 -273,0z" />
<path style="fill:#ccc;stroke:#000;stroke-width:2" d="M28,716 l0,19 273,0 0,-19 -273,0z" />
<path style="fill:#ccc;stroke:#000;stroke-width:2" d="M28,676 l0,21 273,0 0,-21 -273,0z" />
<path style="fill:#ccc;stroke:#000;stroke-width:2" d="M28,637 l0,21 273,0 0,-21 -273,0z" />
<path style="fill:#ccc;stroke:#000;stroke-width:2" d="M28,599 l0,19 273,0 0,-19 -273,0z" />
<path style="fill:#ccc;stroke:#000;stroke-width:2" d="M28,559 l0,19 273,0 0,-19 -273,0z" />
<path style="fill:#ccc;stroke:#000;stroke-width:2" d="M28,520 l0,20 273,0 0,-20 -273,0z" />
<path style="fill:#7f7f7f" d="M52,497 l0,-469 234,0 0,469 -234,0z" />
<path style="fill:none;stroke:#000;stroke-width:2" d="M52,28 l0,469" />
<path style="fill:none;stroke:#000;stroke-width:2" d="M286,28 l0,469" />
<path style="fill:#ccc;stroke:#000;stroke-width:2" d="M28,480 l0,21 273,0 0,-21 -273,0z" />
<path style="fill:#ccc;stroke:#000;stroke-width:2" d="M28,440 l0,21 273,0 0,-21 -273,0z" />
<path style="fill:#ccc;stroke:#000;stroke-width:2" d="M28,403 l0,19 273,0 0,-19 -273,0z" />
<path style="fill:#ccc;stroke:#000;stroke-width:2" d="M28,363 l0,19 273,0 0,-19 -273,0z" />
<path style="fill:#ccc;stroke:#000;stroke-width:2" d="M28,324 l0,20 273,0 0,-20 -273,0z" />
<path style="fill:#ccc;stroke:#000;stroke-width:2" d="M28,284 l0,21 273,0 0,-21 -273,0z" />
<path style="fill:#ccc;stroke:#000;stroke-width:2" d="M28,246 l0,19 273,0 0,-19 -273,0z" />
<path style="fill:#ccc;stroke:#000;stroke-width:2" d="M28,207 l0,18 273,0 0,-18 -273,0z" />
<path style="fill:#ccc;stroke:#000;stroke-width:2" d="M28,167 l0,19 273,0 0,-19 -273,0z" />
<path style="fill:#ccc;stroke:#000;stroke-width:2" d="M28,128 l0,20 273,0 0,-20 -273,0z" />
<path style="fill:#ccc;stroke:#000;stroke-width:2" d="M28,90 l0,19 273,0 0,-19 -273,0z" />
<path style="fill:#ccc;stroke:#000;stroke-width:2" d="M28,50 l0,19 273,0 0,-19 -273,0z" />

</svg>
