 

<svg xmlns:agg="http://www.example.com" xmlns="http://www.w3.org/2000/svg" preserveAspectRatio="none" width="0.6489in" height="1.0750in" viewBox="0 0 603 999">

<path style="fill:#7f7f7f" d="M75,964 l0,-936 469,0 0,936 -469,0z" />
<path style="fill:none;stroke:#000;stroke-width:2" d="M75,28 l0,936" />
<path style="fill:none;stroke:#000;stroke-width:2" d="M544,28 l0,936" />
<path style="fill:#ccc;stroke:#000;stroke-width:2" d="M28,931 l0,39 546,0 0,-39 -546,0z" />
<path style="fill:#ccc;stroke:#000;stroke-width:2" d="M28,854 l0,37 546,0 0,-37 -546,0z" />
<path style="fill:#ccc;stroke:#000;stroke-width:2" d="M28,774 l0,40 546,0 0,-40 -546,0z" />
<path style="fill:#ccc;stroke:#000;stroke-width:2" d="M28,697 l0,39 546,0 0,-39 -546,0z" />
<path style="fill:#ccc;stroke:#000;stroke-width:2" d="M28,618 l0,40 546,0 0,-40 -546,0z" />
<path style="fill:#ccc;stroke:#000;stroke-width:2" d="M28,540 l0,40 546,0 0,-40 -546,0z" />
<path style="fill:#ccc;stroke:#000;stroke-width:2" d="M28,463 l0,38 546,0 0,-38 -546,0z" />
<path style="fill:#ccc;stroke:#000;stroke-width:2" d="M28,384 l0,40 546,0 0,-40 -546,0z" />
<path style="fill:#ccc;stroke:#000;stroke-width:2" d="M28,307 l0,37 546,0 0,-37 -546,0z" />
<path style="fill:#ccc;stroke:#000;stroke-width:2" d="M28,228 l0,39 546,0 0,-39 -546,0z" />
<path style="fill:#ccc;stroke:#000;stroke-width:2" d="M28,150 l0,40 546,0 0,-40 -546,0z" />
<path style="fill:#ccc;stroke:#000;stroke-width:2" d="M28,71 l0,40 546,0 0,-40 -546,0z" />

</svg>
