 

<svg xmlns:agg="http://www.example.com" xmlns="http://www.w3.org/2000/svg" preserveAspectRatio="none" width="1.3081in" height="1.0750in" viewBox="0 0 999 821">

<path style="fill:#ccc;stroke:#000;stroke-width:2" d="M791,633 l179,-176 -365,-365 -74,73 -73,-73 -364,364 73,73 110,104 0,107 512,0 2,-107z" />
<path style="fill:none;stroke:#7f7f7f;stroke-width:2" d="M277,633 l254,-468 257,468" />
<path style="fill:none;stroke:#7f7f7f;stroke-width:2" d="M788,631 l-519,0" />
<path style="fill:#4c4c4c;stroke:#000;stroke-width:2" d="M490,94 l-55,-55 11,-11 55,54 -11,12z" />
<path style="fill:#4c4c4c;stroke:#000;stroke-width:2" d="M82,501 l-54,-55 11,-11 57,55 -14,11z" />
<path style="fill:#b2b2b2;stroke:#000;stroke-width:2" d="M493,54 l-19,-17 -437,437 19,19 437,-439z" />
<path style="fill:#4c4c4c;stroke:#000;stroke-width:2" d="M250,716 l0,77 -17,0 0,-77 17,0z" />
<path style="fill:#4c4c4c;stroke:#000;stroke-width:2" d="M825,716 l0,77 -15,0 0,-77 15,0z" />
<path style="fill:#b2b2b2;stroke:#000;stroke-width:2" d="M220,740 l0,27 618,0 0,-27 -618,0z" />

</svg>
