 
<svg version="1.1" id="_x30_" xmlns:agg="http://www.example.com"
	 xmlns="http://www.w3.org/2000/svg" preserveAspectRatio="none"   x="0px" y="0px" 
	  viewBox="1.416 -21.182 58.891 86.35" xml:space="preserve">
	 
<agg:params>
	<agg:param type="C" name="color" classes="color" cssAttributes="fill" description="Color"/>
	<agg:param type="F" name="saturation" description="Saturation" min="0" max="1" cssAttributes="opacity" classes="color"/>
</agg:params>

<style type="text/css" >
   <![CDATA[

	.stroke{
		stroke-width:0.3;
		stroke-linecap:round;
		stroke-linejoin:round;
		stroke: black;
		fill:none;
		opacity:0.5;
	}
	
	.color {
		fill:#3664BF;
		opacity:0.2;
	}

      ]]>
</style>

<linearGradient id="SVGID_1_" gradientUnits="userSpaceOnUse" x1="30.8813" y1="80.7336" x2="30.8813" y2="53.5754" gradientTransform="matrix(1 0 0 -1 -0.02 88.9976)">
	<stop  offset="0" style="stop-color:#4D5C75"/>
	<stop  offset="0.0313" style="stop-color:#616F85"/>
	<stop  offset="0.1108" style="stop-color:#8E99A9"/>
	<stop  offset="0.1908" style="stop-color:#B4BCC7"/>
	<stop  offset="0.27" style="stop-color:#D1D7DE"/>
	<stop  offset="0.3485" style="stop-color:#E5EAEF"/>
	<stop  offset="0.4256" style="stop-color:#F2F6F9"/>
	<stop  offset="0.5" style="stop-color:#F6FAFC"/>
	<stop  offset="0.5744" style="stop-color:#F2F6F9"/>
	<stop  offset="0.6515" style="stop-color:#E5EAEF"/>
	<stop  offset="0.73" style="stop-color:#D1D7DE"/>
	<stop  offset="0.8092" style="stop-color:#B4BCC7"/>
	<stop  offset="0.8892" style="stop-color:#8E99A9"/>
	<stop  offset="0.9687" style="stop-color:#616F85"/>
	<stop  offset="1" style="stop-color:#4D5C75"/>
</linearGradient>
<path fill="url(#SVGID_1_)" d="M60.307,8.318v27.352H1.416V8.318H11.52l5.612,13.544l0.021,0.052l0.016,0.042
	c0.006,0.014,0.011,0.024,0.017,0.035L50.199,8.318h0.004H60.307z"/>
<linearGradient id="SVGID_2_" gradientUnits="userSpaceOnUse" x1="24.4502" y1="93.6809" x2="43.6058" y2="73.9448" gradientTransform="matrix(1 0 0 -1 -0.02 88.9976)">
	<stop  offset="0" style="stop-color:#4D5C75"/>
	<stop  offset="0.0313" style="stop-color:#616F85"/>
	<stop  offset="0.1108" style="stop-color:#8E99A9"/>
	<stop  offset="0.1908" style="stop-color:#B4BCC7"/>
	<stop  offset="0.27" style="stop-color:#D1D7DE"/>
	<stop  offset="0.3485" style="stop-color:#E5EAEF"/>
	<stop  offset="0.4256" style="stop-color:#F2F6F9"/>
	<stop  offset="0.5" style="stop-color:#F6FAFC"/>
	<stop  offset="0.5744" style="stop-color:#F2F6F9"/>
	<stop  offset="0.6515" style="stop-color:#E5EAEF"/>
	<stop  offset="0.73" style="stop-color:#D1D7DE"/>
	<stop  offset="0.8092" style="stop-color:#B4BCC7"/>
	<stop  offset="0.8892" style="stop-color:#8E99A9"/>
	<stop  offset="0.9687" style="stop-color:#616F85"/>
	<stop  offset="1" style="stop-color:#4D5C75"/>
</linearGradient>
<polygon fill="url(#SVGID_2_)" points="60.307,-1.84 50.203,8.318 50.199,8.318 17.167,21.956 17.152,21.914 17.132,21.863 
	11.519,8.318 40.965,-21.182 "/>
<path class="color" d="M60.307-1.84L40.965-21.182l-29.446,29.5H1.416v27.352h58.893V8.318H50.203L60.307-1.84z"/>
<g class="stroke">
	<line x1="60.307" y1="8.318" x2="50.203" y2="8.318"/>
	<line x1="1.416" y1="35.669" x2="60.307" y2="35.669"/>
	<polyline points="40.965,-21.182 11.519,8.318 1.416,8.318 	"/>
	<line x1="50.203" y1="8.318" x2="60.307" y2="-1.84"/>
	<path d="M50.203,8.318h-0.004L17.183,21.99c-0.007-0.011-5.664-13.673-5.664-13.673"/>
</g>
</svg>
