 
<svg version="1.1" id="Layer_01" xmlns:agg="http://www.example.com"
	 xmlns="http://www.w3.org/2000/svg" preserveAspectRatio="none"  xmlns:xlink="http://www.w3.org/1999/xlink" x="0px" y="0px"  
	 viewBox="0 0 40 40" xml:space="preserve">
	 
<agg:params>
	<agg:param  type="C" name="color" classes="color" cssAttributes="fill" description="Color"></agg:param>
	<agg:param  type="F" name="saturation" min="0" max="1" classes="color" cssAttributes="opacity" description="Saturation"></agg:param>
</agg:params>

<style type="text/css" >
   <![CDATA[

	.stroke{
		stroke-width:0.3;
		stroke-linecap:round;
		stroke-linejoin:round;
		stroke: black;
		fill:none;
		opacity:0.5;
	}
	
	.color {
		fill:#3664BF;
		opacity:0.2;
	}

      ]]>
</style>

<linearGradient id="hor" gradientUnits="userSpaceOnUse" x1="0" y1="10" x2="0" y2="30">
	<stop  offset="0" style="stop-color:#4D5C75"/>
	<stop  offset="0.0313" style="stop-color:#616F85"/>
	<stop  offset="0.1108" style="stop-color:#8E99A9"/>
	<stop  offset="0.1908" style="stop-color:#B4BCC7"/>
	<stop  offset="0.27" style="stop-color:#D1D7DE"/>
	<stop  offset="0.3485" style="stop-color:#E5EAEF"/>
	<stop  offset="0.4256" style="stop-color:#F2F6F9"/>
	<stop  offset="0.5" style="stop-color:#F6FAFC"/>
	<stop  offset="0.5744" style="stop-color:#F2F6F9"/>
	<stop  offset="0.6515" style="stop-color:#E5EAEF"/>
	<stop  offset="0.73" style="stop-color:#D1D7DE"/>
	<stop  offset="0.8092" style="stop-color:#B4BCC7"/>
	<stop  offset="0.8892" style="stop-color:#8E99A9"/>
	<stop  offset="0.9687" style="stop-color:#616F85"/>
	<stop  offset="1" style="stop-color:#4D5C75"/>
</linearGradient>

<path fill="url(#hor)" d="M39.021,14.192c-0.433-1.149-0.945-2.189-1.916-3.117c-0.596-0.572-1.39-1.071-2.369-1.072
	c-0.002,0-0.002,0-0.002,0h-0.002H0C0,16.668,0,23.335,0,30h34.731l0,0c0.978,0,1.773-0.499,2.37-1.07
	c0.97-0.928,1.483-1.968,1.916-3.114c0.724-1.917,0.981-3.815,0.981-5.813C40,18.005,39.743,16.106,39.021,14.192z"/>
<path opacity="0.5" fill="#FFFFFF" d="M38.397,15.372c0.571,1.525,0.778,3.039,0.778,4.628
	c0,1.592-0.209,3.105-0.778,4.633c-0.347,0.921-0.757,1.755-1.535,2.498c-0.478,0.45-1.104,0.843-1.879,0.843
	c-0.752-0.001-1.361-0.371-1.832-0.807c-0.813-0.752-1.226-1.6-1.576-2.539c-0.572-1.524-0.778-3.037-0.778-4.628
	c0-1.592,0.206-3.105,0.778-4.632c0.354-0.941,0.77-1.789,1.58-2.541c0.473-0.435,1.082-0.802,1.834-0.8
	c0.774,0.002,1.403,0.396,1.877,0.848C37.643,13.616,38.053,14.45,38.397,15.372z"/>
<path opacity="0.3"  d="M39.021,14.192C39.743,16.106,40,18.005,40,20.001
	c0,1.998-0.259,3.896-0.98,5.813c-0.434,1.147-0.946,2.188-1.916,3.115c-0.598,0.571-1.394,1.07-2.37,1.07l0,0
	c-0.943,0-1.707-0.457-2.301-1.001c-0.956-0.879-1.574-2.079-1.99-3.185c-0.722-1.915-0.98-3.816-0.98-5.813s0.26-3.896,0.98-5.812
	c0.416-1.106,1.034-2.308,1.992-3.188c0.592-0.543,1.356-1,2.297-1h0.002c0.002,0,0.002,0,0.002,0
	c0.979,0.001,1.774,0.501,2.371,1.071C38.075,12.002,38.588,13.042,39.021,14.192z M39.176,20c0-1.59-0.207-3.103-0.778-4.628
	c-0.345-0.922-0.755-1.756-1.531-2.498c-0.474-0.452-1.103-0.845-1.877-0.847c-0.752-0.002-1.361,0.365-1.834,0.8
	c-0.812,0.752-1.228,1.6-1.58,2.541c-0.572,1.527-0.778,3.041-0.778,4.632c0,1.59,0.206,3.104,0.778,4.628
	c0.352,0.939,0.765,1.787,1.576,2.539c0.471,0.436,1.08,0.806,1.832,0.807c0.773,0,1.401-0.393,1.879-0.843
	c0.778-0.743,1.188-1.577,1.535-2.498C38.967,23.107,39.176,21.592,39.176,20z"/>
<path class="color" d="M39.021,14.192c-0.433-1.149-0.945-2.189-1.916-3.117
	c-0.596-0.572-1.39-1.071-2.369-1.072c-0.002,0-0.002,0-0.002,0h-0.002H0C0,16.668,0,23.335,0,30h34.731l0,0
	c0.978,0,1.773-0.499,2.37-1.07c0.97-0.928,1.483-1.968,1.916-3.114c0.724-1.917,0.981-3.815,0.981-5.813
	C40,18.005,39.743,16.106,39.021,14.192z"/>
</svg>
