


<svg xmlns:agg="http://www.example.com" xmlns="http://www.w3.org/2000/svg" preserveAspectRatio="none" width="1.4792in" height="1.4792in" viewBox="0 0 530 530">

<path style="fill:#7f7f7f" d="M266,15 l249,0 0,500 -249,-250 0,-250z" />
<path style="fill:#7f7f7f" d="M15,265 l0,250 500,0 -250,-250 -250,0z" />
<path style="fill:#999" d="M499,15 l-218,0 0,266 218,218 0,-484z" />
<path style="fill:#999" d="M15,499 l0,-218 266,0 219,218 -485,0z" />
<path style="fill:#b2b2b2" d="M473,15 l-166,0 0,292 166,166 0,-458z" />
<path style="fill:#b2b2b2" d="M15,473 l0,-166 292,0 167,166 -459,0z" />
<path style="fill:#ccc" d="M447,15 l-114,0 0,318 114,114 0,-432z" />
<path style="fill:#ccc" d="M15,447 l0,-114 318,0 115,114 -433,0z" />
<path style="fill:#e5e5e5" d="M427,15 l-73,0 0,338 73,73 0,-411z" />
<path style="fill:#e5e5e5" d="M15,426 l0,-73 339,0 73,73 -412,0z" />
<path style="fill:#fff" d="M406,15 l-31,0 0,359 31,32 0,-391z" />
<path style="fill:#fff" d="M15,406 l0,-32 360,0 31,32 -391,0z" />
<path style="fill:none;stroke:#000;stroke-width:2" d="M15,515 l500,0" />
<path style="fill:none;stroke:#000;stroke-width:2" d="M265,265 l-250,0" />
<path style="fill:none;stroke:#000;stroke-width:2" d="M515,15 l0,500" />
<path style="fill:none;stroke:#000;stroke-width:2" d="M266,265 l0,-250" />

</svg>
