

<svg xmlns:agg="http://www.example.com" xmlns="http://www.w3.org/2000/svg" preserveAspectRatio="none" width="1.2943in" height="1.4792in" viewBox="0 0 350 400">

<path style="fill:#7f7f7f" d="M97,11 l0,121 242,0 0,-121 -242,0z" />
<path style="fill:#999" d="M112,11 l0,121 213,0 0,-121 -213,0z" />
<path style="fill:#b2b2b2" d="M138,11 l0,121 161,0 0,-121 -161,0z" />
<path style="fill:#ccc" d="M163,11 l0,121 111,0 0,-121 -111,0z" />
<path style="fill:#e5e5e5" d="M183,11 l0,121 71,0 0,-121 -71,0z" />
<path style="fill:#fff" d="M204,11 l0,121 29,0 0,-121 -29,0z" />
<path style="fill:none;stroke:#000;stroke-width:2" d="M339,11 l0,121" />
<path style="fill:none;stroke:#000;stroke-width:2" d="M97,132 l0,-121" />
<path style="fill:#7f7f7f" d="M97,132 l171,172 8,-9 8,-9 7,-9 7,-10 6,-10 6,-10 6,-11 4,-11 5,-11 3,-11 4,-12 2,-11 2,-12 2,-12 1,-12 0,-12 -242,0z" />
<path style="fill:#999" d="M97,132 l161,161 7,-8 8,-9 6,-8 7,-9 5,-10 6,-10 5,-10 4,-10 4,-10 4,-11 3,-11 2,-10 2,-11 2,-12 1,-11 0,-11 -227,0z" />
<path style="fill:#b2b2b2" d="M97,132 l143,143 13,-15 12,-16 10,-17 8,-18 7,-18 5,-20 3,-19 1,-20 -202,0z" />
<path style="fill:#ccc" d="M97,132 l125,125 11,-13 11,-14 9,-14 7,-16 6,-17 4,-17 3,-17 1,-17 -177,0z" />
<path style="fill:#e5e5e5" d="M97,132 l111,111 10,-11 9,-13 8,-13 7,-14 5,-15 4,-14 2,-16 1,-15 -157,0z" />
<path style="fill:#fff" d="M97,132 l96,97 9,-10 8,-11 7,-12 5,-12 5,-12 3,-13 2,-14 1,-13 -136,0z" />
<path style="fill:#e5e5e5" d="M97,132 l75,75 7,-8 6,-8 5,-9 5,-9 3,-10 3,-10 1,-11 1,-10 -106,0z" />
<path style="fill:#ccc" d="M97,132 l61,61 5,-6 5,-7 5,-7 3,-8 3,-8 2,-8 2,-8 0,-9 -86,0z" />
<path style="fill:#b2b2b2" d="M97,132 l46,47 4,-5 4,-5 4,-6 3,-6 2,-6 2,-6 1,-7 0,-6 -66,0z" />
<path style="fill:#999" d="M97,132 l29,29 5,-6 3,-7 2,-8 1,-8 -40,0z" />
<path style="fill:#7f7f7f" d="M97,132 l11,11 2,-2 1,-3 1,-3 0,-3 -15,0z" />
<path style="fill:none;stroke:#000;stroke-width:2" d="M268,304 l8,-9 8,-9 7,-9 7,-10 6,-10 6,-10 6,-11 4,-11 5,-11 3,-11 4,-12 2,-11 2,-12 2,-12 1,-12 0,-12" />
<path style="fill:#7f7f7f" d="M97,132 l-86,86 171,171 86,-86 -171,-171z" />
<path style="fill:#999" d="M108,143 l-86,85 150,151 86,-86 -150,-150z" />
<path style="fill:#b2b2b2" d="M126,161 l-86,86 114,114 86,-86 -114,-114z" />
<path style="fill:#ccc" d="M143,179 l-85,85 78,79 86,-86 -79,-78z" />
<path style="fill:#e5e5e5" d="M157,192 l-85,86 50,50 85,-85 -50,-51z" />
<path style="fill:#fff" d="M172,207 l-86,86 21,21 86,-86 -21,-21z" />
<path style="fill:none;stroke:#000;stroke-width:2" d="M268,303 l-86,86" />
<path style="fill:none;stroke:#000;stroke-width:2" d="M11,218 l86,-86" />

</svg>
