

<svg xmlns:agg="http://www.example.com" xmlns="http://www.w3.org/2000/svg" preserveAspectRatio="none" width="1.6886in" height="1.4792in" viewBox="0 0 379 332">

<path style="fill:#7f7f7f" d="M135,10 l-125,0 0,250 125,0 0,-250z" />
<path style="fill:#999" d="M135,25 l-125,0 0,220 125,0 0,-220z" />
<path style="fill:#b2b2b2" d="M135,52 l-125,0 0,167 125,0 0,-167z" />
<path style="fill:#ccc" d="M135,78 l-125,0 0,115 125,0 0,-115z" />
<path style="fill:#e5e5e5" d="M135,98 l-125,0 0,73 125,0 0,-73z" />
<path style="fill:#fff" d="M135,120 l-125,0 0,30 125,0 0,-30z" />
<path style="fill:none;stroke:#000;stroke-width:2" d="M135,260 l-125,0" />
<path style="fill:none;stroke:#000;stroke-width:2" d="M10,10 l125,0" />
<path style="fill:#7f7f7f" d="M135,260 l125,-217 -14,-8 -15,-6 -15,-6 -16,-5 -16,-3 -17,-3 -16,-1 -16,-1 0,250z" />
<path style="fill:#999" d="M135,260 l117,-204 -13,-7 -14,-6 -14,-6 -15,-4 -15,-3 -16,-3 -15,-1 -15,-1 0,235z" />
<path style="fill:#b2b2b2" d="M135,260 l104,-181 -12,-6 -12,-6 -13,-5 -13,-4 -13,-3 -14,-2 -13,-2 -14,0 0,209z" />
<path style="fill:#ccc" d="M135,260 l91,-158 -10,-6 -11,-5 -11,-4 -12,-4 -11,-2 -12,-2 -12,-2 -12,0 0,183z" />
<path style="fill:#e5e5e5" d="M135,260 l81,-140 -9,-5 -10,-4 -10,-4 -10,-3 -10,-3 -11,-2 -10,-1 -11,0 0,162z" />
<path style="fill:#fff" d="M135,260 l71,-122 -8,-4 -9,-4 -8,-3 -9,-3 -10,-2 -9,-2 -9,-1 -9,0 0,141z" />
<path style="fill:#e5e5e5" d="M135,260 l55,-95 -6,-4 -7,-3 -6,-2 -7,-2 -7,-2 -8,-1 -7,-1 -7,0 0,110z" />
<path style="fill:#ccc" d="M135,260 l44,-77 -5,-3 -5,-2 -6,-2 -5,-2 -6,-1 -6,-1 -5,-1 -6,0 0,89z" />
<path style="fill:#b2b2b2" d="M135,260 l34,-59 -4,-2 -4,-2 -4,-1 -4,-2 -5,-1 -4,0 -5,-1 -4,0 0,68z" />
<path style="fill:#999" d="M135,260 l21,-36 -5,-3 -5,-2 -6,-1 -5,0 0,42z" />
<path style="fill:#7f7f7f" d="M135,260 l8,-14 -2,-1 -2,0 -2,-1 -2,0 0,16z" />
<path style="fill:#7f7f7f" d="M369,105 l-109,-62 -125,217 108,62 126,-217z" />
<path style="fill:#999" d="M361,119 l-108,-63 -110,191 108,62 110,-190z" />
<path style="fill:#b2b2b2" d="M348,142 l-109,-63 -83,145 108,62 84,-144z" />
<path style="fill:#ccc" d="M335,164 l-109,-62 -57,99 108,63 58,-100z" />
<path style="fill:#e5e5e5" d="M325,182 l-109,-63 -37,64 109,63 37,-64z" />
<path style="fill:#fff" d="M314,201 l-109,-63 -15,27 108,62 16,-26z" />
<path style="fill:none;stroke:#000;stroke-width:2" d="M243,322 l-108,-62" />
<path style="fill:none;stroke:#000;stroke-width:2" d="M260,43 l109,62" />
<path style="fill:none;stroke:#000;stroke-width:2" d="M260,43 l-14,-8 -15,-6 -15,-6 -16,-5 -16,-3 -17,-3 -16,-1 -16,-1" />

</svg>
