 

<svg xmlns:agg="http://www.example.com" xmlns="http://www.w3.org/2000/svg" preserveAspectRatio="none" width="1.0837in" height="1.0750in" viewBox="0 0 999 991">

<path style="fill:#7f7f7f" d="M62,637 l607,-608 302,304 -606,606 -303,-302z" />
<path style="fill:none;stroke:#000;stroke-width:2" d="M669,29 l-607,608" />
<path style="fill:none;stroke:#000;stroke-width:2" d="M971,333 l-606,606" />
<path style="fill:#ccc;stroke:#000;stroke-width:2" d="M54,584 l-27,24 355,355 24,-24 -352,-355z" />
<path style="fill:#ccc;stroke:#000;stroke-width:2" d="M103,533 l-25,27 355,352 24,-24 -354,-355z" />
<path style="fill:#ccc;stroke:#000;stroke-width:2" d="M154,482 l-25,27 353,352 26,-24 -354,-355z" />
<path style="fill:#ccc;stroke:#000;stroke-width:2" d="M205,433 l-25,25 353,354 27,-26 -355,-353z" />
<path style="fill:#ccc;stroke:#000;stroke-width:2" d="M256,382 l-27,25 355,354 24,-26 -352,-353z" />
<path style="fill:#ccc;stroke:#000;stroke-width:2" d="M307,331 l-27,25 355,354 24,-24 -352,-355z" />
<path style="fill:#ccc;stroke:#000;stroke-width:2" d="M355,280 l-24,27 355,352 24,-24 -355,-355z" />
<path style="fill:#ccc;stroke:#000;stroke-width:2" d="M406,229 l-24,27 353,352 26,-24 -355,-355z" />
<path style="fill:#ccc;stroke:#000;stroke-width:2" d="M457,180 l-24,25 353,355 26,-27 -355,-353z" />
<path style="fill:#ccc;stroke:#000;stroke-width:2" d="M508,129 l-26,25 355,355 24,-27 -353,-353z" />
<path style="fill:#ccc;stroke:#000;stroke-width:2" d="M560,78 l-27,25 355,355 24,-25 -352,-355z" />
<path style="fill:#ccc;stroke:#000;stroke-width:2" d="M608,27 l-24,27 355,353 24,-25 -355,-355z" />

</svg>
