 

<svg xmlns:agg="http://www.example.com" xmlns="http://www.w3.org/2000/svg" preserveAspectRatio="none" width="1.6083in" height="0.8162in" viewBox="0 0 999 507">

<path style="fill:#7f7f7f" d="M39,348 l0,-192 417,0 322,-64 149,0 0,320 -149,2 -322,-66 -417,0z" />
<path style="fill:#999" d="M39,337 l0,-168 417,0 322,-54 149,-2 0,279 -149,0 -322,-55 -417,0z" />
<path style="fill:#b2b2b2" d="M39,316 l0,-128 417,0 322,-41 149,-2 0,215 -149,0 -322,-44 -417,0z" />
<path style="fill:#ccc" d="M39,297 l0,-90 417,0 322,-30 149,0 0,150 -149,0 -322,-30 -417,0z" />
<path style="fill:#e5e5e5" d="M39,282 l0,-58 417,0 322,-19 149,-2 0,98 -149,0 -322,-19 -417,0z" />
<path style="fill:#fff" d="M39,262 l0,-19 417,0 322,-6 149,-2 0,34 -149,0 -322,-7 -417,0z" />
<path style="fill:none;stroke:#000;stroke-width:2" d="M39,348 l0,-192 417,0 322,-64 149,0 0,322 -143,0 -328,-66 -417,0" />
<path style="fill:#7f7f7f" d="M921,30 l49,0 0,448 -49,0 0,-448z" />
<path style="fill:#999" d="M921,58 l49,0 0,394 -49,0 0,-394z" />
<path style="fill:#b2b2b2" d="M921,105 l49,0 0,300 -49,0 0,-300z" />
<path style="fill:#ccc" d="M921,150 l49,0 0,208 -49,0 0,-208z" />
<path style="fill:#e5e5e5" d="M921,188 l49,0 0,132 -49,0 0,-132z" />
<path style="fill:#fff" d="M921,228 l49,0 0,52 -49,0 0,-52z" />
<path style="fill:none;stroke:#000;stroke-width:2" d="M921,28 l49,0 0,450 -49,0 0,-450" />
<path style="fill:#7f7f7f" d="M755,30 l49,0 0,448 -49,0 0,-448z" />
<path style="fill:#999" d="M755,60 l49,0 0,392 -49,0 0,-392z" />
<path style="fill:#b2b2b2" d="M755,107 l49,0 0,296 -49,0 0,-296z" />
<path style="fill:#ccc" d="M755,150 l49,0 0,206 -49,0 0,-206z" />
<path style="fill:#e5e5e5" d="M755,188 l49,0 0,132 -49,0 0,-132z" />
<path style="fill:#fff" d="M755,228 l49,0 0,54 -49,0 0,-54z" />
<path style="fill:none;stroke:#000;stroke-width:2" d="M755,28 l49,0 0,450 -49,0 0,-450" />
<path style="fill:#7f7f7f" d="M75,124 l32,0 0,256 -32,0 0,-256z" />
<path style="fill:#999" d="M75,143 l32,0 0,222 -32,0 0,-222z" />
<path style="fill:#b2b2b2" d="M75,169 l32,0 0,170 -32,0 0,-170z" />
<path style="fill:#ccc" d="M75,194 l32,0 0,118 -32,0 0,-118z" />
<path style="fill:#e5e5e5" d="M75,216 l32,0 0,74 -32,0 0,-74z" />
<path style="fill:#fff" d="M75,239 l32,0 0,30 -32,0 0,-30z" />
<path style="fill:none;stroke:#000;stroke-width:2" d="M75,124 l34,0 0,256 -34,0 0,-256" />
<path style="fill:#7f7f7f" d="M28,30 l49,0 0,448 -49,0 0,-448z" />
<path style="fill:#999" d="M28,60 l49,0 0,392 -49,0 0,-392z" />
<path style="fill:#b2b2b2" d="M28,107 l49,0 0,296 -49,0 0,-296z" />
<path style="fill:#ccc" d="M28,150 l49,0 0,206 -49,0 0,-206z" />
<path style="fill:#e5e5e5" d="M28,188 l49,0 0,132 -49,0 0,-132z" />
<path style="fill:#fff" d="M28,228 l49,0 0,54 -49,0 0,-54z" />
<path style="fill:none;stroke:#000;stroke-width:2" d="M28,28 l47,0 0,450 -47,0 0,-450" />
<path style="fill:none;stroke:#7f7f7f;stroke-width:2" d="M456,156 l0,192" />

</svg>
