 

<svg xmlns:agg="http://www.example.com" xmlns="http://www.w3.org/2000/svg" preserveAspectRatio="none" width="1.0298in" height="1.0750in" viewBox="0 0 957 999">

<path style="fill:#7f7f7f;stroke:#000;stroke-width:2" d="M812,908 l-36,0 0,-40 36,0 0,40z" />
<path style="fill:#7f7f7f;stroke:#000;stroke-width:2" d="M714,601 l-615,0 0,-40 615,0 0,40z" />
<path style="fill:#7f7f7f;stroke:#000;stroke-width:2" d="M714,663 l-615,0 0,-42 615,0 0,42z" />
<path style="fill:#7f7f7f;stroke:#000;stroke-width:2" d="M714,725 l-615,0 0,-41 615,0 0,41z" />
<path style="fill:#7f7f7f;stroke:#000;stroke-width:2" d="M714,786 l-615,0 0,-40 615,0 0,40z" />
<path style="fill:#7f7f7f;stroke:#000;stroke-width:2" d="M714,848 l-615,0 0,-42 615,0 0,42z" />
<path style="fill:#7f7f7f;stroke:#000;stroke-width:2" d="M714,908 l-615,0 0,-40 615,0 0,40z" />
<path style="fill:#7f7f7f;stroke:#000;stroke-width:2" d="M714,541 l-615,0 0,-42 615,0 0,42z" />
<path style="fill:#7f7f7f" d="M704,478 l0,492 82,0 0,-492 -82,0z" />
<path style="fill:#999" d="M710,478 l0,492 72,0 0,-492 -72,0z" />
<path style="fill:#b2b2b2" d="M718,478 l0,492 54,0 0,-492 -54,0z" />
<path style="fill:#ccc" d="M727,478 l0,492 36,0 0,-492 -36,0z" />
<path style="fill:#e5e5e5" d="M733,478 l0,492 24,0 0,-492 -24,0z" />
<path style="fill:#fff" d="M740,478 l0,492 10,0 0,-492 -10,0z" />
<path style="fill:none;stroke:#000;stroke-width:2" d="M704,478 l0,492 82,0 0,-492 -82,0" />
<path style="fill:#7f7f7f" d="M28,478 l0,492 81,0 0,-492 -81,0z" />
<path style="fill:#999" d="M33,478 l0,492 72,0 0,-492 -72,0z" />
<path style="fill:#b2b2b2" d="M41,478 l0,492 55,0 0,-492 -55,0z" />
<path style="fill:#ccc" d="M50,478 l0,492 38,0 0,-492 -38,0z" />
<path style="fill:#e5e5e5" d="M56,478 l0,492 25,0 0,-492 -25,0z" />
<path style="fill:#fff" d="M64,478 l0,492 9,0 0,-492 -9,0z" />
<path style="fill:none;stroke:#000;stroke-width:2" d="M28,478 l0,492 81,0 0,-492 -81,0" />
<path style="fill:#7f7f7f" d="M725,478 l0,-328 40,0 0,328 -40,0z" />
<path style="fill:#999" d="M727,478 l0,-328 36,0 0,328 -36,0z" />
<path style="fill:#b2b2b2" d="M731,478 l0,-328 28,0 0,328 -28,0z" />
<path style="fill:#ccc" d="M736,478 l0,-328 17,0 0,328 -17,0z" />
<path style="fill:#e5e5e5" d="M738,478 l0,-328 13,0 0,328 -13,0z" />
<path style="fill:#fff" d="M742,478 l0,-328 6,0 0,328 -6,0z" />
<path style="fill:none;stroke:#000;stroke-width:2" d="M725,478 l0,-328 40,0 0,328 -40,0" />
<path style="fill:#7f7f7f" d="M714,28 l0,122 62,0 0,-122 -62,0z" />
<path style="fill:#999" d="M718,28 l0,122 54,0 0,-122 -54,0z" />
<path style="fill:#b2b2b2" d="M725,28 l0,122 40,0 0,-122 -40,0z" />
<path style="fill:#ccc" d="M731,28 l0,122 28,0 0,-122 -28,0z" />
<path style="fill:#e5e5e5" d="M736,28 l0,122 17,0 0,-122 -17,0z" />
<path style="fill:#fff" d="M742,28 l0,122 8,0 0,-122 -8,0z" />
<path style="fill:none;stroke:#000;stroke-width:2" d="M714,28 l0,122 62,0 0,-122 -62,0" />
<path style="fill:#7f7f7f" d="M878,806 l0,-656 41,0 0,656 -41,0z" />
<path style="fill:#999" d="M882,806 l0,-656 34,0 0,656 -34,0z" />
<path style="fill:#b2b2b2" d="M885,806 l0,-656 27,0 0,656 -27,0z" />
<path style="fill:#ccc" d="M889,806 l0,-656 19,0 0,656 -19,0z" />
<path style="fill:#e5e5e5" d="M893,806 l0,-656 11,0 0,656 -11,0z" />
<path style="fill:#fff" d="M897,806 l0,-656 4,0 0,656 -4,0z" />
<path style="fill:none;stroke:#000;stroke-width:2" d="M878,806 l0,-656 41,0 0,656 -41,0" />
<path style="fill:#7f7f7f" d="M868,28 l0,122 61,0 0,-122 -61,0z" />
<path style="fill:#999" d="M872,28 l0,122 53,0 0,-122 -53,0z" />
<path style="fill:#b2b2b2" d="M878,28 l0,122 41,0 0,-122 -41,0z" />
<path style="fill:#ccc" d="M884,28 l0,122 28,0 0,-122 -28,0z" />
<path style="fill:#e5e5e5" d="M889,28 l0,122 19,0 0,-122 -19,0z" />
<path style="fill:#fff" d="M895,28 l0,122 7,0 0,-122 -7,0z" />
<path style="fill:none;stroke:#000;stroke-width:2" d="M868,28 l0,122 61,0 0,-122 -61,0" />
<path style="fill:#999" d="M714,537 l-615,0 0,-34 615,0 0,34z" />
<path style="fill:#b2b2b2" d="M725,533 l-635,0 0,-27 635,0 0,27z" />
<path style="fill:#ccc" d="M729,529 l-645,0 0,-19 645,0 0,19z" />
<path style="fill:#e5e5e5" d="M740,525 l-665,0 0,-11 665,0 0,11z" />
<path style="fill:#fff" d="M746,522 l-677,0 0,-4 677,0 0,4z" />
<path style="fill:#999" d="M714,599 l-615,0 0,-36 615,0 0,36z" />
<path style="fill:#b2b2b2" d="M725,595 l-635,0 0,-28 635,0 0,28z" />
<path style="fill:#ccc" d="M729,590 l-645,0 0,-18 645,0 0,18z" />
<path style="fill:#e5e5e5" d="M740,588 l-665,0 0,-14 665,0 0,14z" />
<path style="fill:#fff" d="M746,584 l-677,0 0,-6 677,0 0,6z" />
<path style="fill:#999" d="M714,661 l-615,0 0,-36 615,0 0,36z" />
<path style="fill:#b2b2b2" d="M725,656 l-635,0 0,-27 635,0 0,27z" />
<path style="fill:#ccc" d="M729,652 l-645,0 0,-19 645,0 0,19z" />
<path style="fill:#e5e5e5" d="M740,648 l-665,0 0,-12 665,0 0,12z" />
<path style="fill:#fff" d="M746,646 l-677,0 0,-6 677,0 0,6z" />
<path style="fill:#999" d="M714,722 l-615,0 0,-36 615,0 0,36z" />
<path style="fill:#b2b2b2" d="M725,718 l-635,0 0,-27 635,0 0,27z" />
<path style="fill:#ccc" d="M729,714 l-645,0 0,-19 645,0 0,19z" />
<path style="fill:#e5e5e5" d="M740,710 l-665,0 0,-11 665,0 0,11z" />
<path style="fill:#fff" d="M746,706 l-677,0 0,-5 677,0 0,5z" />
<path style="fill:#999" d="M714,784 l-615,0 0,-36 615,0 0,36z" />
<path style="fill:#b2b2b2" d="M725,780 l-635,0 0,-29 635,0 0,29z" />
<path style="fill:#ccc" d="M729,774 l-645,0 0,-17 645,0 0,17z" />
<path style="fill:#e5e5e5" d="M740,772 l-665,0 0,-13 665,0 0,13z" />
<path style="fill:#fff" d="M746,769 l-677,0 0,-6 677,0 0,6z" />
<path style="fill:#999" d="M714,844 l-615,0 0,-36 615,0 0,36z" />
<path style="fill:#b2b2b2" d="M725,840 l-635,0 0,-26 635,0 0,26z" />
<path style="fill:#ccc" d="M729,837 l-645,0 0,-20 645,0 0,20z" />
<path style="fill:#e5e5e5" d="M740,833 l-665,0 0,-12 665,0 0,12z" />
<path style="fill:#fff" d="M746,829 l-677,0 0,-4 677,0 0,4z" />
<path style="fill:#999" d="M714,906 l-615,0 0,-36 615,0 0,36z" />
<path style="fill:#b2b2b2" d="M725,902 l-635,0 0,-28 635,0 0,28z" />
<path style="fill:#ccc" d="M729,899 l-645,0 0,-19 645,0 0,19z" />
<path style="fill:#e5e5e5" d="M740,895 l-665,0 0,-11 665,0 0,11z" />
<path style="fill:#fff" d="M746,891 l-677,0 0,-6 677,0 0,6z" />
<ellipse style="fill:#7f7f7f;stroke:#000;stroke-width:2" cx="879" cy="266" rx="5" ry="12" />
<path style="fill:#b2b2b2;stroke:#000;stroke-width:2" d="M878,263 l-21,0 0,6 21,0 0,-6z" />
<path style="fill:#999" d="M812,906 l-36,0 0,-36 36,0 0,36z" />
<path style="fill:#b2b2b2" d="M812,902 l-47,0 0,-28 47,0 0,28z" />
<path style="fill:#ccc" d="M812,899 l-51,0 0,-19 51,0 0,19z" />
<path style="fill:#e5e5e5" d="M812,895 l-62,0 0,-11 62,0 0,11z" />
<path style="fill:#fff" d="M812,891 l-66,0 0,-6 66,0 0,6z" />
<path style="fill:#7f7f7f" d="M799,868 l79,-79 41,17 -107,102 -13,-40z" />
<path style="fill:#999" d="M801,870 l79,-79 36,13 -106,102 -9,-36z" />
<path style="fill:#b2b2b2" d="M801,874 l84,-81 27,8 -104,101 -7,-28z" />
<path style="fill:#ccc" d="M802,880 l87,-85 19,4 -102,98 -4,-17z" />
<path style="fill:#e5e5e5" d="M804,884 l89,-89 11,2 -98,98 -2,-11z" />
<path style="fill:#fff" d="M804,885 l93,-90 4,2 -97,94 0,-6z" />
<path style="fill:none;stroke:#000;stroke-width:2" d="M919,806 l-107,102" />
<path style="fill:none;stroke:#000;stroke-width:2" d="M799,868 l79,-79" />
<path style="fill:#000" d="M704,546 l-595,0 0,-5 595,0 0,5z" />
<path style="fill:#000" d="M704,607 l-595,0 0,-6 595,0 0,6z" />
<path style="fill:#000" d="M704,669 l-595,0 0,-6 595,0 0,6z" />
<path style="fill:#000" d="M704,729 l-595,0 0,-4 595,0 0,4z" />
<path style="fill:#000" d="M704,791 l-595,0 0,-5 595,0 0,5z" />
<path style="fill:#000" d="M704,853 l-595,0 0,-5 595,0 0,5z" />
<path style="fill:#000" d="M704,914 l-595,0 0,-4 595,0 0,4z" />

</svg>
