<svg xmlns:agg="http://www.example.com" xmlns="http://www.w3.org/2000/svg" preserveAspectRatio="none" width="1.4792in" height="1.4792in" viewBox="0 0 530 530">

<path style="fill:#7f7f7f" d="M515,140 l-250,0 0,-125 -250,0 0,500 250,0 0,-125 250,0 0,-250z" />
<path style="fill:#999" d="M515,156 l-265,0 0,-141 -219,0 0,500 219,0 0,-141 265,0 0,-218z" />
<path style="fill:#b2b2b2" d="M515,182 l-291,0 0,-167 -167,0 0,500 167,0 0,-167 291,0 0,-166z" />
<path style="fill:#ccc" d="M515,208 l-317,0 0,-193 -115,0 0,500 115,0 0,-193 317,0 0,-114z" />
<path style="fill:#e5e5e5" d="M515,229 l-338,0 0,-214 -73,0 0,500 73,0 0,-208 338,0 0,-78z" />
<path style="fill:#fff" d="M515,249 l-359,0 0,-234 -31,0 0,500 31,0 0,-234 359,0 0,-32z" />
<path style="fill:none;stroke:#000;stroke-width:2" d="M515,140 l-250,0 0,-125" />
<path style="fill:none;stroke:#000;stroke-width:2" d="M515,390 l-250,0 0,125" />
<path style="fill:none;stroke:#000;stroke-width:2" d="M15,515 l0,-500" />

</svg>
