 

<svg xmlns:agg="http://www.example.com" xmlns="http://www.w3.org/2000/svg" preserveAspectRatio="none" width="1.0524in" height="1.0750in" viewBox="0 0 978 999">

<path style="fill:#7f7f7f;stroke:#000;stroke-width:2" d="M949,70 l0,439 -44,3 -44,6 -41,11 -41,15 -38,18 -36,22 -34,26 -31,28 -28,31 -26,34 -22,36 -18,38 -15,41 -11,42 -6,43 -2,22 -1,22 -440,0 2,-44 3,-45 6,-44 7,-43 10,-43 12,-41 14,-41 16,-40 17,-39 20,-37 21,-37 23,-36 24,-34 26,-33 28,-32 29,-31 30,-29 33,-28 33,-25 34,-25 36,-23 37,-21 37,-20 39,-17 40,-16 41,-14 41,-12 43,-10 43,-7 44,-6 44,-3 45,-1z" />
<path style="fill:#ccc;stroke:#000;stroke-width:2" d="M28,934 l0,36 512,0 0,-36 -512,0z" />
<path style="fill:#ccc;stroke:#000;stroke-width:2" d="M891,542 l36,-4 -54,-510 -37,4 55,510z" />
<path style="fill:#ccc;stroke:#000;stroke-width:2" d="M847,551 l36,-7 -106,-503 -36,8 106,502z" />
<path style="fill:#ccc;stroke:#000;stroke-width:2" d="M807,563 l34,-12 -157,-487 -36,11 159,488z" />
<path style="fill:#ccc;stroke:#000;stroke-width:2" d="M767,580 l34,-14 -208,-470 -34,15 208,469z" />
<path style="fill:#ccc;stroke:#000;stroke-width:2" d="M729,601 l33,-17 -256,-444 -33,17 256,444z" />
<path style="fill:#ccc;stroke:#000;stroke-width:2" d="M695,627 l31,-23 -302,-415 -30,23 301,415z" />
<path style="fill:#ccc;stroke:#000;stroke-width:2" d="M663,654 l27,-23 -344,-381 -26,22 343,382z" />
<path style="fill:#ccc;stroke:#000;stroke-width:2" d="M635,686 l23,-27 -382,-343 -23,26 382,344z" />
<path style="fill:#ccc;stroke:#000;stroke-width:2" d="M608,720 l21,-28 -414,-302 -22,28 415,302z" />
<path style="fill:#ccc;stroke:#000;stroke-width:2" d="M585,758 l19,-32 -443,-256 -19,32 443,256z" />
<path style="fill:#ccc;stroke:#000;stroke-width:2" d="M568,796 l16,-32 -469,-209 -15,32 468,209z" />
<path style="fill:#ccc;stroke:#000;stroke-width:2" d="M555,837 l11,-36 -487,-157 -11,34 487,159z" />
<path style="fill:#ccc;stroke:#000;stroke-width:2" d="M546,879 l7,-36 -502,-106 -8,36 503,106z" />
<path style="fill:#ccc;stroke:#000;stroke-width:2" d="M540,921 l4,-36 -510,-53 -4,36 510,53z" />

</svg>
