


<svg xmlns:agg="http://www.example.com" xmlns="http://www.w3.org/2000/svg" preserveAspectRatio="none" width="1.9599in" height="1.4792in" viewBox="0 0 530 400">

<circle style="fill:#7f7f7f;stroke:#000;stroke-width:2" cx="392" cy="261" r="123" />
<circle style="fill:#999" cx="392" cy="261" r="112" />
<circle style="fill:#b2b2b2" cx="392" cy="261" r="92" />
<circle style="fill:#ccc" cx="392" cy="261" r="73" />
<circle style="fill:#e5e5e5" cx="391" cy="261" r="57" />
<path style="fill:#7f7f7f" d="M15,138 l378,0 0,189 -378,0 0,-189z" />
<path style="fill:#999" d="M15,151 l378,0 0,164 -378,0 0,-164z" />
<path style="fill:#b2b2b2" d="M15,171 l378,0 0,125 -378,0 0,-125z" />
<path style="fill:#ccc" d="M15,189 l378,0 0,87 -378,0 0,-87z" />
<path style="fill:#e5e5e5" d="M15,205 l378,0 0,55 -378,0 0,-55z" />
<path style="fill:#fff" d="M15,222 l378,0 0,22 -378,0 0,-22z" />
<path style="fill:none;stroke:#000;stroke-width:2" d="M15,327 l378,0" />
<path style="fill:none;stroke:#000;stroke-width:2" d="M393,138 l-378,0" />
<path style="fill:#7f7f7f" d="M238,385 l154,0 0,-185 -154,0 -12,-2 -14,-12 -3,-5 -2,-12 0,-154 -185,0 0,154 2,22 3,21 5,21 7,20 9,19 11,17 13,17 14,15 15,14 17,13 17,11 19,9 20,7 21,5 21,3 22,2z" />
<path style="fill:#999" d="M34,169 l1,20 3,20 5,21 7,18 9,18 10,17 12,15 13,15 14,13 15,12 18,10 17,9 19,7 20,5 20,3 21,1 154,0 0,-162 -154,0 -17,-3 -13,-10 -9,-13 -4,-16 0,-154 -161,0 0,154z" />
<path style="fill:#b2b2b2" d="M53,169 l0,-154 123,0 0,154 5,23 5,11 17,17 23,9 12,1 154,0 0,124 -154,0 -19,-1 -18,-3 -18,-4 -17,-7 -16,-8 -15,-9 -14,-10 -14,-12 -12,-14 -10,-14 -10,-15 -7,-17 -7,-16 -4,-18 -3,-18 -1,-19z" />
<path style="fill:#ccc" d="M72,169 l1,17 3,16 4,16 6,15 6,15 9,13 9,14 11,11 11,11 14,9 13,9 15,6 15,6 16,4 16,3 171,0 0,-85 -154,0 -16,-1 -16,-5 -14,-8 -12,-9 -9,-12 -8,-14 -5,-15 -1,-16 0,-154 -85,0 0,154z" />
<path style="fill:#e5e5e5" d="M88,169 l0,-154 54,0 0,154 2,19 5,18 9,17 12,14 14,12 17,9 18,5 19,2 154,0 0,54 -154,0 -15,-1 -15,-2 -14,-4 -14,-5 -14,-7 -11,-7 -12,-8 -11,-10 -10,-11 -8,-12 -7,-12 -7,-13 -5,-14 -4,-14 -2,-15 -1,-15z" />
<path style="fill:#fff" d="M103,169 l1,14 2,13 3,13 4,12 6,12 7,11 8,11 18,18 11,7 11,7 12,6 12,4 13,3 13,3 168,0 0,-23 -154,0 -23,-2 -20,-6 -20,-11 -16,-13 -13,-17 -11,-19 -6,-21 -3,-22 0,-154 -23,0 0,154z" />
<path style="fill:none;stroke:#000;stroke-width:2" d="M22,15 l0,154 2,22 3,21 5,21 7,20 9,19 11,17 13,17 14,15 15,14 17,13 17,11 19,9 20,7 21,5 21,3 22,2 154,0" />
<path style="fill:none;stroke:#000;stroke-width:2" d="M392,200 l-154,0 -6,-1 -6,-1 -5,-3 -5,-4 -4,-5 -3,-5 -1,-6 -1,-6 0,-154" />
<path style="fill:#fff" d="M390,252 l0,-52 11,1 9,3 9,5 8,6 6,8 5,9 3,9 1,11 -1,11 -3,9 -5,9 -6,8 -8,6 -9,5 -9,3 -11,1 0,-52z" />
<path style="fill:#e5e5e5" d="M390,240 l0,-40 8,1 8,2 6,4 6,5 5,6 4,6 2,8 1,8 -1,8 -2,8 -4,6 -5,6 -6,5 -6,4 -8,2 -8,1 0,-40z" />
<path style="fill:#ccc" d="M390,233 l0,-33 7,1 6,2 5,3 5,4 4,5 3,5 2,6 1,7 -1,7 -2,6 -3,5 -4,5 -5,4 -5,3 -6,1 -7,1 0,-32z" />
<path style="fill:#b2b2b2" d="M390,225 l0,-25 10,2 8,5 5,8 2,10 -2,10 -5,8 -8,5 -10,2 0,-25z" />
<path style="fill:#999" d="M389,215 l0,-15 6,1 5,3 3,5 1,6 -1,6 -3,5 -5,4 -6,1 0,-16z" />
<path style="fill:#7f7f7f" d="M388,206 l0,-6 3,1 2,1 1,2 0,2 0,3 -1,1 -2,2 -3,0 0,-6z" />

</svg>
