 

<svg xmlns:agg="http://www.example.com" xmlns="http://www.w3.org/2000/svg" preserveAspectRatio="none" width="1.1152in" height="1.0750in" viewBox="0 0 999 963">

<path style="fill:#7f7f7f" d="M54,92 l32,0 32,1 32,2 32,3 32,4 31,5 32,5 31,7 31,6 31,9 31,8 31,10 31,10 30,10 30,12 30,12 29,13 29,14 28,14 29,15 27,16 28,16 27,18 27,17 25,19 26,18 25,20 25,20 24,20 23,22 23,22 22,22 -454,451 -23,-24 -23,-21 -25,-21 -26,-20 -27,-18 -28,-16 -28,-15 -30,-15 -30,-12 -31,-11 -30,-9 -32,-8 -32,-6 -32,-4 -32,-3 -16,-1 -17,0 0,-637z" />
<path style="fill:none;stroke:#000;stroke-width:2" d="M516,933 l-23,-24 -23,-21 -25,-21 -26,-20 -27,-18 -28,-16 -28,-15 -30,-15 -30,-12 -31,-11 -30,-9 -32,-8 -32,-6 -32,-4 -32,-3 -16,-1 -17,0" />
<path style="fill:none;stroke:#000;stroke-width:2" d="M54,92 l32,0 32,1 32,2 32,3 32,4 31,5 32,5 31,7 31,6 31,9 31,8 31,10 31,10 30,10 30,12 30,12 29,13 29,14 28,14 29,15 27,16 28,16 27,18 27,17 25,19 26,18 25,20 25,20 24,20 23,22 23,22 22,22" />
<path style="fill:#ccc;stroke:#000;stroke-width:2" d="M28,28 l52,0 0,737 -52,0 0,-737z" />
<path style="fill:#ccc;stroke:#000;stroke-width:2" d="M143,772 l-53,-5 77,-734 53,6 -77,733z" />
<path style="fill:#ccc;stroke:#000;stroke-width:2" d="M203,785 l-51,-11 153,-722 51,9 -153,724z" />
<path style="fill:#ccc;stroke:#000;stroke-width:2" d="M261,802 l-48,-15 228,-703 49,17 -229,701z" />
<path style="fill:#ccc;stroke:#000;stroke-width:2" d="M318,827 l-47,-21 299,-675 50,21 -302,675z" />
<path style="fill:#ccc;stroke:#000;stroke-width:2" d="M373,857 l-46,-26 370,-639 45,26 -369,639z" />
<path style="fill:#ccc;stroke:#000;stroke-width:2" d="M424,893 l-44,-30 434,-598 43,30 -433,598z" />
<path style="fill:#ccc;stroke:#000;stroke-width:2" d="M469,935 l-38,-36 494,-549 38,36 -494,549z" />

</svg>
