 
<svg version="1.1" id="_x30_" xmlns:agg="http://www.example.com"
	 xmlns="http://www.w3.org/2000/svg" preserveAspectRatio="none"   x="0px" y="0px" 
	  viewBox="0 0 43.984 43.986" enable-background="new 0 0 43.984 43.986" xml:space="preserve">
	 
<agg:params>
	<agg:param name="color" description="Color" type="C" cssAttributes="fill" classes="color"/>
	<agg:param type="F" name="saturation" description="Saturation" min="0" max="1" cssAttributes="opacity" classes="color"/>
</agg:params>

<style type="text/css" >
   <![CDATA[

	.stroke{
		stroke-width:0.3;
		stroke-linecap:round;
		stroke-linejoin:round;
		stroke: black;
		fill:none;
	}
	
	.color {
		fill:#3664BF;
		opacity:0.2;
	}

      ]]>
</style>

<linearGradient id="horizontal" gradientUnits="userSpaceOnUse" x1="0" y1="8.2637" x2="0" y2="35.4219">
	<stop  offset="0" style="stop-color:#4D5C75"/>
	<stop  offset="0.0313" style="stop-color:#616F85"/>
	<stop  offset="0.1108" style="stop-color:#8E99A9"/>
	<stop  offset="0.1908" style="stop-color:#B4BCC7"/>
	<stop  offset="0.27" style="stop-color:#D1D7DE"/>
	<stop  offset="0.3485" style="stop-color:#E5EAEF"/>
	<stop  offset="0.4256" style="stop-color:#F2F6F9"/>
	<stop  offset="0.5" style="stop-color:#F6FAFC"/>
	<stop  offset="0.5744" style="stop-color:#F2F6F9"/>
	<stop  offset="0.6515" style="stop-color:#E5EAEF"/>
	<stop  offset="0.73" style="stop-color:#D1D7DE"/>
	<stop  offset="0.8092" style="stop-color:#B4BCC7"/>
	<stop  offset="0.8892" style="stop-color:#8E99A9"/>
	<stop  offset="0.9687" style="stop-color:#616F85"/>
	<stop  offset="1" style="stop-color:#4D5C75"/>
</linearGradient>

<linearGradient id="vertical" gradientUnits="userSpaceOnUse" x1="8.2617" y1="-2.3259" x2="35.4189" y2="-2.3259">
	<stop  offset="0" style="stop-color:#4D5C75"/>
	<stop  offset="0.0313" style="stop-color:#616F85"/>
	<stop  offset="0.1108" style="stop-color:#8E99A9"/>
	<stop  offset="0.1908" style="stop-color:#B4BCC7"/>
	<stop  offset="0.27" style="stop-color:#D1D7DE"/>
	<stop  offset="0.3485" style="stop-color:#E5EAEF"/>
	<stop  offset="0.4256" style="stop-color:#F2F6F9"/>
	<stop  offset="0.5" style="stop-color:#F6FAFC"/>
	<stop  offset="0.5744" style="stop-color:#F2F6F9"/>
	<stop  offset="0.6515" style="stop-color:#E5EAEF"/>
	<stop  offset="0.73" style="stop-color:#D1D7DE"/>
	<stop  offset="0.8092" style="stop-color:#B4BCC7"/>
	<stop  offset="0.8892" style="stop-color:#8E99A9"/>
	<stop  offset="0.9687" style="stop-color:#616F85"/>
	<stop  offset="1" style="stop-color:#4D5C75"/>
</linearGradient>

<polygon fill="url(#horizontal)" points="1.416,35.669 1.416,8.318 8.317,8.318 21.992,21.993 8.317,35.669 "/>
<polygon fill="url(#horizontal)" points="42.568,35.669 42.568,8.318 35.667,8.318 21.992,21.993 35.667,35.669 "/>

<polygon fill="url(#vertical)" points="35.667,1.417 8.317,1.417 8.317,8.318 21.992,21.993 35.667,8.318 "/>
<polygon fill="url(#vertical)" points="35.667,42.569 8.317,42.569 8.317,35.669 21.992,21.993 35.667,35.669 "/>

<polygon class="color" points="35.667,8.318 35.667,1.417 8.317,1.417 8.317,8.318 1.416,8.318 1.416,35.669 8.317,35.669 8.317,42.569 35.667,42.569 35.667,35.669 42.568,35.669 42.568,8.318 "/>
<g opacity="0.5" class="stroke">
	<polyline points="35.667,35.669 42.568,35.669 42.568,8.318 35.667,8.318"/>
	<polyline points="8.317,8.318 1.416,8.318 1.416,35.669 8.317,35.669"/>
	<polyline points="35.667,8.318 35.667,1.417 8.317,1.417 8.317,8.318"/>
	<polyline points="8.317,35.669 8.317,42.569 35.667,42.569 35.667,35.669"/>
	<line x1="8.317" y1="8.318" x2="35.667" y2="35.669"/>
	<line x1="35.667" y1="8.318" x2="8.317" y2="35.669"/>
</g>

</svg>
