 

<svg xmlns:agg="http://www.example.com" xmlns="http://www.w3.org/2000/svg" preserveAspectRatio="none" width="1.0158in" height="1.0750in" viewBox="0 0 944 999">

<path style="fill:#7f7f7f" d="M500,90 l21,21 21,23 20,23 20,23 18,24 19,25 17,25 17,25 17,26 15,26 15,27 15,27 14,27 13,28 12,28 12,28 11,29 10,28 10,30 9,29 8,29 8,30 6,29 7,30 5,30 5,30 3,30 3,30 2,30 2,30 0,30 0,30 -611,0 1,-31 -1,-31 -3,-31 -4,-30 -6,-31 -8,-30 -9,-30 -10,-29 -12,-29 -13,-28 -15,-28 -17,-26 -17,-26 -19,-25 -20,-24 -11,-11 -11,-11 431,-429z" />
<path style="fill:none;stroke:#000;stroke-width:2" d="M244,970 l1,-15 -1,-31 -2,-31 -3,-31 -5,-31 -7,-30 -8,-30 -10,-30 -11,-29 -12,-28 -15,-28 -15,-27 -17,-26 -18,-25 -20,-25 -21,-23 -11,-11" />
<path style="fill:none;stroke:#000;stroke-width:2" d="M500,90 l21,21 21,23 20,23 20,23 18,24 19,25 17,25 17,25 17,26 15,26 15,27 15,27 14,27 13,28 12,28 12,28 11,29 10,28 10,30 9,29 8,29 8,30 6,29 7,30 5,30 5,30 3,30 3,30 2,30 2,30 0,30 0,30" />
<path style="fill:#ccc;stroke:#000;stroke-width:2" d="M526,28 l36,35 -499,499 -35,-36 498,-498z" />
<path style="fill:#ccc;stroke:#000;stroke-width:2" d="M101,609 l-32,-40 548,-443 31,39 -547,444z" />
<path style="fill:#ccc;stroke:#000;stroke-width:2" d="M133,658 l-26,-43 590,-384 27,43 -591,384z" />
<path style="fill:#ccc;stroke:#000;stroke-width:2" d="M161,710 l-22,-45 626,-319 23,45 -627,319z" />
<path style="fill:#ccc;stroke:#000;stroke-width:2" d="M182,765 l-17,-47 657,-252 19,45 -659,254z" />
<path style="fill:#ccc;stroke:#000;stroke-width:2" d="M199,822 l-13,-49 681,-183 13,49 -681,183z" />
<path style="fill:#ccc;stroke:#000;stroke-width:2" d="M208,880 l-7,-51 696,-109 7,49 -696,111z" />
<path style="fill:#ccc;stroke:#000;stroke-width:2" d="M212,938 l-2,-51 704,-35 2,49 -704,37z" />

</svg>
