

<svg xmlns:agg="http://www.example.com" xmlns="http://www.w3.org/2000/svg" preserveAspectRatio="none" width="1.0131in" height="1.4792in" viewBox="0 0 363 530">

<path style="fill:#7f7f7f;stroke:#000;stroke-width:2" d="M307,119 l41,-10 0,-63 -41,-10 0,83z" />
<path style="fill:#7f7f7f;stroke:#000;stroke-width:2" d="M307,307 l41,-10 0,-63 -41,-10 0,83z" />
<path style="fill:#7f7f7f;stroke:#000;stroke-width:2" d="M307,494 l41,-10 0,-62 -41,-11 0,83z" />
<path style="fill:#7f7f7f;stroke:#000;stroke-width:2" d="M56,119 l-41,-10 0,-63 41,-10 0,83z" />
<path style="fill:#7f7f7f;stroke:#000;stroke-width:2" d="M56,307 l-41,-10 0,-63 41,-10 0,83z" />
<path style="fill:#7f7f7f;stroke:#000;stroke-width:2" d="M56,494 l-41,-10 0,-62 41,-11 0,83z" />
<path style="fill:#b2b2b2;stroke:#000;stroke-width:2" d="M307,104 l41,-6 0,-52 -41,-10 0,68z" />
<path style="fill:#b2b2b2;stroke:#000;stroke-width:2" d="M307,291 l41,-5 0,-52 -41,-10 0,67z" />
<path style="fill:#b2b2b2;stroke:#000;stroke-width:2" d="M307,479 l41,-5 0,-52 -41,-11 0,68z" />
<path style="fill:#b2b2b2;stroke:#000;stroke-width:2" d="M56,104 l-41,-6 0,-52 41,-10 0,68z" />
<path style="fill:#b2b2b2;stroke:#000;stroke-width:2" d="M56,291 l-41,-5 0,-52 41,-10 0,67z" />
<path style="fill:#b2b2b2;stroke:#000;stroke-width:2" d="M56,479 l-41,-5 0,-52 41,-11 0,68z" />
<path style="fill:#7f7f7f" d="M56,15 l126,0 0,500 -126,0 0,-500z" />
<path style="fill:#999" d="M56,46 l126,0 0,439 -126,0 0,-439z" />
<path style="fill:#b2b2b2" d="M56,100 l126,0 0,332 -126,0 0,-332z" />
<path style="fill:#ccc" d="M56,151 l126,0 0,229 -126,0 0,-229z" />
<path style="fill:#e5e5e5" d="M56,191 l126,0 0,147 -126,0 0,-147z" />
<path style="fill:#fff" d="M56,235 l126,0 0,61 -126,0 0,-61z" />
<path style="fill:none;stroke:#000;stroke-width:2" d="M56,15 l126,0 0,500 -126,0 0,-500" />
<path style="fill:#e5e5e5;stroke:#000;stroke-width:2" d="M15,57 l0,-11 41,-10 0,16 -41,5z" />
<path style="fill:#e5e5e5;stroke:#000;stroke-width:2" d="M15,244 l0,-10 41,-10 0,15 -41,5z" />
<path style="fill:#e5e5e5;stroke:#000;stroke-width:2" d="M15,432 l0,-10 41,-11 0,16 -41,5z" />
<path style="fill:#e5e5e5;stroke:#000;stroke-width:2" d="M348,57 l0,-11 -41,-10 0,16 41,5z" />
<path style="fill:#e5e5e5;stroke:#000;stroke-width:2" d="M348,244 l0,-10 -41,-10 0,15 41,5z" />
<path style="fill:#e5e5e5;stroke:#000;stroke-width:2" d="M348,432 l0,-10 -41,-11 0,16 41,5z" />
<path style="fill:#7f7f7f" d="M307,15 l-125,0 0,500 125,0 0,-500z" />
<path style="fill:#999" d="M307,46 l-125,0 0,439 125,0 0,-439z" />
<path style="fill:#b2b2b2" d="M307,100 l-125,0 0,332 125,0 0,-332z" />
<path style="fill:#ccc" d="M307,151 l-125,0 0,229 125,0 0,-229z" />
<path style="fill:#e5e5e5" d="M307,191 l-125,0 0,147 125,0 0,-147z" />
<path style="fill:#fff" d="M307,235 l-125,0 0,61 125,0 0,-61z" />
<path style="fill:none;stroke:#000;stroke-width:2" d="M307,15 l-125,0 0,500 125,0 0,-500" />

</svg>
