 

<svg xmlns:agg="http://www.example.com" xmlns="http://www.w3.org/2000/svg" preserveAspectRatio="none" width="0.3519in" height="1.0750in" viewBox="0 0 327 999">

<path style="fill:#7f7f7f" d="M218,940 l0,-79 21,-121 60,0 0,-30 -41,0 0,-471 41,0 0,-30 -72,0 0,-130 12,0 0,-42 -12,0 0,-9 -109,0 0,9 -9,0 0,42 9,0 0,130 -70,0 0,30 40,0 0,471 -40,0 0,30 61,0 19,121 0,79 -31,0 0,30 151,0 0,-30 -30,0z" />
<path style="fill:#8f8f8f" d="M213,940 l0,-81 18,-119 53,0 0,-30 -36,0 0,-471 36,0 0,-30 -62,0 0,-130 9,0 0,-42 -9,0 0,-9 -98,0 0,9 -10,0 0,42 10,0 0,130 -62,0 0,30 35,0 0,471 -35,0 0,30 52,0 19,119 0,81 -26,0 0,30 132,0 0,-30 -26,0z" />
<path style="fill:#9e9e9e" d="M207,940 l0,-81 17,-119 45,0 0,-30 -30,0 0,-471 30,0 0,-30 -53,0 0,-130 8,0 0,-42 -8,0 0,-9 -87,0 0,9 -7,0 0,42 7,0 0,130 -52,0 0,30 30,0 0,471 -30,0 0,30 45,0 17,119 0,81 -25,0 0,30 117,0 0,-30 -24,0z" />
<path style="fill:#b0b0b0" d="M203,940 l0,-81 13,-119 38,0 0,-30 -25,0 0,-471 25,0 0,-30 -45,0 0,-130 7,0 0,-42 -7,0 0,-9 -72,0 0,9 -8,0 0,42 8,0 0,130 -47,0 0,30 26,0 0,471 -26,0 0,30 39,0 14,119 0,81 -19,0 0,30 98,0 0,-30 -19,0z" />
<path style="fill:#bfbfbf" d="M197,940 l0,-81 12,-119 32,0 0,-30 -23,0 0,-471 23,0 0,-30 -38,0 0,-130 6,0 0,-42 -6,0 0,-9 -60,0 0,9 -6,0 0,42 6,0 0,130 -38,0 0,30 23,0 0,471 -23,0 0,30 32,0 11,119 0,81 -17,0 0,30 83,0 0,-30 -17,0z" />
<path style="fill:#cfcfcf" d="M192,940 l0,-81 9,-119 25,0 0,-30 -17,0 0,-471 17,0 0,-30 -30,0 0,-130 5,0 0,-42 -5,0 0,-9 -48,0 0,9 -3,0 0,42 3,0 0,130 -28,0 0,30 17,0 0,471 -17,0 0,30 25,0 9,119 0,81 -13,0 0,30 64,0 0,-30 -13,0z" />
<path style="fill:#dedede" d="M186,940 l0,-81 7,-119 20,0 0,-30 -14,0 0,-471 14,0 0,-30 -23,0 0,-130 3,0 0,-42 -3,0 0,-9 -34,0 0,9 -4,0 0,42 4,0 0,130 -23,0 0,30 13,0 0,471 -13,0 0,30 19,0 6,119 0,81 -10,0 0,30 49,0 0,-30 -11,0z" />
<path style="fill:#f0f0f0" d="M182,940 l0,-81 4,-119 11,0 0,-30 -7,0 0,-471 7,0 0,-30 -13,0 0,-130 2,0 0,-42 -2,0 0,-9 -22,0 0,9 -2,0 0,42 2,0 0,130 -14,0 0,30 8,0 0,471 -8,0 0,30 12,0 3,119 0,81 -5,0 0,30 30,0 0,-30 -6,0z" />
<ellipse style="fill:#fff" cx="173" cy="499" rx="10" ry="471" />
<path style="fill:none;stroke:#000;stroke-width:2" d="M218,940 l0,-79 21,-121 60,0 0,-30 -41,0 0,-471 41,0 0,-30 -72,0 0,-130 12,0 0,-42 -12,0 0,-9 -109,0 0,9 -9,0 0,42 9,0 0,130 -70,0 0,30 40,0 0,471 -40,0 0,30 61,0 19,121 0,79 -31,0 0,30 151,0 0,-30 -30,0" />
<path style="fill:#7f7f7f" d="M48,359 l61,0 0,-90 -61,0 0,90z" />
<path style="fill:#999" d="M48,354 l65,0 0,-79 -65,0 0,79z" />
<path style="fill:#b2b2b2" d="M48,344 l68,0 0,-60 -68,0 0,60z" />
<path style="fill:#ccc" d="M48,335 l72,0 0,-42 -72,0 0,42z" />
<path style="fill:#e5e5e5" d="M48,327 l78,0 0,-26 -78,0 0,26z" />
<path style="fill:#fff" d="M48,320 l85,0 0,-11 -85,0 0,11z" />
<path style="fill:none;stroke:#000;stroke-width:2" d="M109,269 l-61,0" />
<path style="fill:none;stroke:#000;stroke-width:2" d="M48,359 l61,0" />
<path style="fill:#7f7f7f" d="M28,369 l20,0 0,-110 -20,0 0,110z" />
<path style="fill:#999" d="M28,361 l20,0 0,-96 -20,0 0,96z" />
<path style="fill:#b2b2b2" d="M28,350 l20,0 0,-74 -20,0 0,74z" />
<path style="fill:#ccc" d="M28,339 l20,0 0,-51 -20,0 0,51z" />
<path style="fill:#e5e5e5" d="M28,329 l20,0 0,-32 -20,0 0,32z" />
<path style="fill:#fff" d="M28,320 l20,0 0,-13 -20,0 0,13z" />
<path style="fill:none;stroke:#000;stroke-width:2" d="M28,369 l20,0 0,-110 -20,0 0,110" />
<path style="fill:none;stroke:#000;stroke-width:2" d="M227,37 l-109,0" />
<path style="fill:none;stroke:#000;stroke-width:2" d="M227,79 l-109,0" />
<path style="fill:none;stroke:#000;stroke-width:2" d="M227,209 l-109,0" />
<path style="fill:none;stroke:#000;stroke-width:2" d="M258,239 l-170,0" />
<path style="fill:none;stroke:#000;stroke-width:2" d="M258,710 l-170,0" />
<path style="fill:none;stroke:#000;stroke-width:2" d="M239,740 l-130,0" />
<path style="fill:none;stroke:#000;stroke-width:2" d="M218,940 l-90,0" />

</svg>
