


<svg xmlns:agg="http://www.example.com" xmlns="http://www.w3.org/2000/svg" preserveAspectRatio="none" width="2.0104in" height="1.0606in" viewBox="0 0 999 527">

<path style="fill:#7f7f7f" d="M30,499 l0,-315 940,0 0,315 -940,0z" />
<path style="fill:#999" d="M88,499 l0,-315 824,0 0,315 -824,0z" />
<path style="fill:#b2b2b2" d="M188,499 l0,-315 626,0 0,315 -626,0z" />
<path style="fill:#ccc" d="M284,499 l0,-315 432,0 0,315 -432,0z" />
<path style="fill:#e5e5e5" d="M361,499 l0,-315 275,0 0,315 -275,0z" />
<path style="fill:#fff" d="M442,499 l0,-315 115,0 0,315 -115,0z" />
<path style="fill:none;stroke:#000;stroke-width:2" d="M970,499 l0,-315" />
<path style="fill:none;stroke:#000;stroke-width:2" d="M30,184 l0,315" />
<ellipse style="fill:#b2b2b2;stroke:#000;stroke-width:2" cx="499" cy="184" rx="471" ry="156" />
<ellipse style="fill:#666;stroke:#000;stroke-width:2" cx="499" cy="184" rx="413" ry="98" />

</svg>
