 

<svg xmlns:agg="http://www.example.com" xmlns="http://www.w3.org/2000/svg" preserveAspectRatio="none" width="1.6083in" height="0.9708in" viewBox="0 0 999 603">

<path style="fill:#7f7f7f" d="M33,75 l937,0 0,469 -937,0 0,-469z" />
<path style="fill:none;stroke:#000;stroke-width:2" d="M970,75 l-937,0" />
<path style="fill:none;stroke:#000;stroke-width:2" d="M970,544 l-937,0" />
<path style="fill:#ccc;stroke:#000;stroke-width:2" d="M67,28 l-39,0 0,546 39,0 0,-546z" />
<path style="fill:#ccc;stroke:#000;stroke-width:2" d="M144,28 l-37,0 0,546 37,0 0,-546z" />
<path style="fill:#ccc;stroke:#000;stroke-width:2" d="M224,28 l-40,0 0,546 40,0 0,-546z" />
<path style="fill:#ccc;stroke:#000;stroke-width:2" d="M301,28 l-40,0 0,546 40,0 0,-546z" />
<path style="fill:#ccc;stroke:#000;stroke-width:2" d="M380,28 l-39,0 0,546 39,0 0,-546z" />
<path style="fill:#ccc;stroke:#000;stroke-width:2" d="M458,28 l-40,0 0,546 40,0 0,-546z" />
<path style="fill:#ccc;stroke:#000;stroke-width:2" d="M535,28 l-38,0 0,546 38,0 0,-546z" />
<path style="fill:#ccc;stroke:#000;stroke-width:2" d="M614,28 l-40,0 0,546 40,0 0,-546z" />
<path style="fill:#ccc;stroke:#000;stroke-width:2" d="M691,28 l-37,0 0,546 37,0 0,-546z" />
<path style="fill:#ccc;stroke:#000;stroke-width:2" d="M771,28 l-40,0 0,546 40,0 0,-546z" />
<path style="fill:#ccc;stroke:#000;stroke-width:2" d="M848,28 l-40,0 0,546 40,0 0,-546z" />
<path style="fill:#ccc;stroke:#000;stroke-width:2" d="M927,28 l-40,0 0,546 40,0 0,-546z" />

</svg>
