<svg xmlns:agg="http://www.example.com" xmlns="http://www.w3.org/2000/svg" preserveAspectRatio="none" width="1.4792in" height="1.4792in" viewBox="0 0 530 530">

<path style="fill:#7f7f7f" d="M265,515 l-249,0 0,-500 249,250 0,250z" />
<path style="fill:#7f7f7f" d="M515,265 l0,-250 -500,0 250,250 250,0z" />
<path style="fill:#999" d="M31,515 l218,0 0,-266 -218,-218 0,484z" />
<path style="fill:#999" d="M515,31 l0,218 -265,0 -219,-218 484,0z" />
<path style="fill:#b2b2b2" d="M57,515 l166,0 0,-292 -166,-166 0,458z" />
<path style="fill:#b2b2b2" d="M515,57 l0,166 -291,0 -167,-166 458,0z" />
<path style="fill:#ccc" d="M83,515 l114,0 0,-318 -114,-114 0,432z" />
<path style="fill:#ccc" d="M515,83 l0,114 -317,0 -115,-114 432,0z" />
<path style="fill:#e5e5e5" d="M104,515 l73,0 0,-339 -73,-73 0,412z" />
<path style="fill:#e5e5e5" d="M515,103 l0,73 -338,0 -73,-73 411,0z" />
<path style="fill:#fff" d="M125,515 l31,0 0,-359 -31,-32 0,391z" />
<path style="fill:#fff" d="M515,124 l0,32 -359,0 -31,-32 390,0z" />
<path style="fill:none;stroke:#000;stroke-width:2" d="M515,15 l-500,0" />
<path style="fill:none;stroke:#000;stroke-width:2" d="M265,265 l250,0" />
<path style="fill:none;stroke:#000;stroke-width:2" d="M15,515 l0,-500" />
<path style="fill:none;stroke:#000;stroke-width:2" d="M265,265 l0,250" />

</svg>
