 
<svg version="1.1" id="Default" xmlns:agg="http://www.example.com"
	 xmlns="http://www.w3.org/2000/svg" preserveAspectRatio="none"   x="0px" y="0px" 
	  viewBox="26.898 -26.899 56.628 110.426" enable-background="new 26.898 -26.899 56.628 110.426"
	 xml:space="preserve">
<agg:params>
	<agg:param name="color" description="Color" type="C" cssAttributes="fill" classes="color"/>
	<agg:param type="F" name="saturation" description="Saturation" min="0" max="1" cssAttributes="opacity" classes="color"/>
</agg:params>

<style type="text/css" >
   <![CDATA[

	.stroke{
		stroke-width:0.3;
		stroke-linecap:round;
		stroke-linejoin:round;
		stroke: black;
		fill:none;
	}
	
	.color {
		fill:#3664BF;
		opacity:0.2;
	}

      ]]>
</style>
<radialGradient id="segment_1_" cx="-1064.4531" cy="1280.6675" r="53.7961" gradientTransform="matrix(4.489659e-011 -1 -1 -4.489659e-011 1362.7764 -1036.1387)" gradientUnits="userSpaceOnUse">
	<stop  offset="0" style="stop-color:#4D5C75"/>
	<stop  offset="0.4918" style="stop-color:#4D5C75"/>
	<stop  offset="0.5077" style="stop-color:#616F85"/>
	<stop  offset="0.5481" style="stop-color:#8E99A9"/>
	<stop  offset="0.5888" style="stop-color:#B4BCC7"/>
	<stop  offset="0.629" style="stop-color:#D1D7DE"/>
	<stop  offset="0.6689" style="stop-color:#E5EAEF"/>
	<stop  offset="0.7081" style="stop-color:#F2F6F9"/>
	<stop  offset="0.7459" style="stop-color:#F6FAFC"/>
	<stop  offset="0.7837" style="stop-color:#F2F6F9"/>
	<stop  offset="0.8229" style="stop-color:#E5EAEF"/>
	<stop  offset="0.8628" style="stop-color:#D1D7DE"/>
	<stop  offset="0.903" style="stop-color:#B4BCC7"/>
	<stop  offset="0.9437" style="stop-color:#8E99A9"/>
	<stop  offset="0.9841" style="stop-color:#616F85"/>
	<stop  offset="1" style="stop-color:#4D5C75"/>
</radialGradient>
<path id="segment" fill="url(#segment_1_)" d="M82.111-25.483c-29.711,0-53.797,24.086-53.797,53.796
	c0,29.711,24.086,53.798,53.797,53.798c0-9.112,0-18.226,0-27.338c-14.612,0-26.458-11.847-26.458-26.459
	c0-14.614,11.846-26.459,26.458-26.459C82.111-7.258,82.111-16.371,82.111-25.483z"/>
<path class="color" d="M82.111-25.483c-29.711,0-53.797,24.086-53.797,53.796
	c0,29.711,24.086,53.798,53.797,53.798c0-9.112,0-18.226,0-27.338c-14.612,0-26.458-11.847-26.458-26.459
	c0-14.614,11.846-26.459,26.458-26.459C82.111-7.258,82.111-16.371,82.111-25.483z"/>
<path class="stroke" d="M82.111-25.483
	c-29.711,0-53.797,24.086-53.797,53.796c0,29.711,24.086,53.798,53.797,53.798"/>
<path class="stroke" d="M82.111,54.774
	c-14.612,0-26.458-11.847-26.458-26.459c0-14.614,11.846-26.459,26.458-26.459"/>
</svg>
