 

<svg xmlns:agg="http://www.example.com" xmlns="http://www.w3.org/2000/svg" preserveAspectRatio="none" width="1.0707in" height="1.0750in" viewBox="0 0 995 999">

<path style="fill:#7f7f7f;stroke:#000;stroke-width:2" d="M46,71 l0,438 45,3 44,6 42,11 40,15 38,18 36,22 34,26 31,28 28,31 26,34 22,36 18,38 15,40 11,42 6,44 2,22 1,23 438,0 -1,-45 -3,-44 -6,-44 -8,-43 -10,-43 -11,-41 -14,-41 -16,-40 -17,-38 -20,-38 -21,-37 -23,-35 -24,-35 -26,-33 -28,-32 -29,-30 -30,-30 -32,-27 -33,-26 -35,-25 -35,-22 -37,-22 -38,-19 -39,-18 -40,-16 -40,-13 -42,-12 -42,-10 -43,-8 -44,-5 -45,-4 -45,-1z" />
<path style="fill:#ccc;stroke:#000;stroke-width:2" d="M967,933 l0,37 -511,0 0,-37 511,0z" />
<path style="fill:#ccc;stroke:#000;stroke-width:2" d="M28,28 l35,0 0,510 -35,0 0,-510z" />
<path style="fill:#ccc;stroke:#000;stroke-width:2" d="M107,543 l-36,-3 53,-509 36,4 -53,508z" />
<path style="fill:#ccc;stroke:#000;stroke-width:2" d="M148,551 l-35,-8 105,-499 36,8 -106,499z" />
<path style="fill:#ccc;stroke:#000;stroke-width:2" d="M190,564 l-36,-11 159,-486 34,12 -157,485z" />
<path style="fill:#ccc;stroke:#000;stroke-width:2" d="M230,581 l-34,-15 208,-467 33,15 -207,467z" />
<path style="fill:#ccc;stroke:#000;stroke-width:2" d="M266,602 l-30,-19 255,-442 30,19 -255,442z" />
<path style="fill:#ccc;stroke:#000;stroke-width:2" d="M302,627 l-31,-21 301,-414 30,21 -300,414z" />
<path style="fill:#ccc;stroke:#000;stroke-width:2" d="M334,655 l-29,-24 342,-380 28,24 -341,380z" />
<path style="fill:#ccc;stroke:#000;stroke-width:2" d="M362,687 l-25,-28 380,-342 25,28 -380,342z" />
<path style="fill:#ccc;stroke:#000;stroke-width:2" d="M389,721 l-23,-30 414,-301 20,31 -411,300z" />
<path style="fill:#ccc;stroke:#000;stroke-width:2" d="M409,757 l-19,-32 444,-255 17,32 -442,255z" />
<path style="fill:#ccc;stroke:#000;stroke-width:2" d="M428,797 l-15,-35 467,-207 15,34 -467,208z" />
<path style="fill:#ccc;stroke:#000;stroke-width:2" d="M441,836 l-11,-34 485,-158 12,35 -486,157z" />
<path style="fill:#ccc;stroke:#000;stroke-width:2" d="M451,878 l-8,-36 499,-106 8,36 -499,106z" />
<path style="fill:#ccc;stroke:#000;stroke-width:2" d="M455,921 l-4,-36 508,-55 4,39 -508,52z" />

</svg>
