

<svg xmlns:agg="http://www.example.com" xmlns="http://www.w3.org/2000/svg" preserveAspectRatio="none" width="1.2497in" height="1.4792in" viewBox="0 0 844 999">

<path style="fill:#7f7f7f" d="M28,759 l422,-731 366,211 -423,731 -365,-211z" />
<path style="fill:#999" d="M50,772 l423,-731 320,185 -422,731 -321,-185z" />
<path style="fill:#b2b2b2" d="M90,795 l422,-731 243,141 -422,729 -243,-139z" />
<path style="fill:#ccc" d="M126,816 l422,-732 170,98 -423,732 -169,-98z" />
<path style="fill:#e5e5e5" d="M156,833 l422,-730 108,60 -423,732 -107,-62z" />
<path style="fill:#fff" d="M188,851 l422,-731 45,27 -422,731 -45,-27z" />
<path style="fill:none;stroke:#000;stroke-width:2" d="M393,970 l423,-731" />
<path style="fill:none;stroke:#000;stroke-width:2" d="M450,28 l-422,731" />

</svg>
