

<svg xmlns:agg="http://www.example.com" xmlns="http://www.w3.org/2000/svg" preserveAspectRatio="none" width="1.6554in" height="1.4792in" viewBox="0 0 404 361">

<path style="fill:#7f7f7f" d="M275,11 l118,0 0,237 -118,0 0,-237z" />
<path style="fill:#999" d="M275,25 l118,0 0,208 -118,0 0,-208z" />
<path style="fill:#b2b2b2" d="M275,51 l118,0 0,157 -118,0 0,-157z" />
<path style="fill:#ccc" d="M275,75 l118,0 0,109 -118,0 0,-109z" />
<path style="fill:#e5e5e5" d="M275,94 l118,0 0,70 -118,0 0,-70z" />
<path style="fill:#fff" d="M275,115 l118,0 0,29 -118,0 0,-29z" />
<path style="fill:none;stroke:#000;stroke-width:2" d="M275,248 l118,0" />
<path style="fill:none;stroke:#000;stroke-width:2" d="M393,11 l-118,0" />
<path style="fill:#7f7f7f" d="M275,247 l-205,-118 8,-13 9,-13 10,-12 11,-11 11,-10 12,-10 12,-9 13,-8 14,-7 14,-7 14,-5 15,-5 15,-3 16,-3 15,-1 16,-1 0,236z" />
<path style="fill:#999" d="M275,247 l-192,-111 8,-12 8,-12 9,-11 10,-10 11,-10 11,-9 12,-9 12,-7 13,-7 13,-6 13,-5 14,-4 14,-4 15,-2 14,-2 15,0 0,221z" />
<path style="fill:#b2b2b2" d="M275,247 l-171,-98 7,-11 8,-10 8,-10 9,-10 9,-9 10,-8 10,-7 11,-7 12,-6 11,-5 12,-5 13,-4 12,-3 13,-2 13,-2 13,0 0,197z" />
<path style="fill:#ccc" d="M275,247 l-150,-86 13,-19 15,-17 17,-15 19,-12 20,-10 21,-7 22,-4 23,-2 0,172z" />
<path style="fill:#e5e5e5" d="M275,247 l-133,-76 11,-17 14,-15 15,-13 16,-11 18,-9 19,-7 20,-4 20,-1 0,153z" />
<path style="fill:#fff" d="M275,247 l-115,-66 10,-15 11,-13 13,-11 15,-10 15,-8 16,-5 18,-4 17,-1 0,133z" />
<path style="fill:#e5e5e5" d="M275,247 l-90,-52 8,-11 8,-10 11,-9 11,-7 12,-6 13,-4 13,-3 14,-1 0,103z" />
<path style="fill:#ccc" d="M275,247 l-73,-42 6,-9 8,-8 8,-7 9,-6 10,-5 10,-4 11,-2 11,-1 0,84z" />
<path style="fill:#b2b2b2" d="M275,247 l-56,-32 5,-7 6,-6 6,-5 7,-5 7,-4 8,-3 8,-1 9,-1 0,64z" />
<path style="fill:#999" d="M275,247 l-34,-20 3,-4 3,-4 4,-3 4,-3 5,-2 5,-2 5,-1 5,0 0,39z" />
<path style="fill:none;stroke:#000;stroke-width:2" d="M70,129 l8,-13 9,-13 10,-12 11,-11 11,-10 12,-10 12,-9 13,-8 14,-7 14,-7 14,-5 15,-5 15,-3 16,-3 15,-1 16,-1" />
<path style="fill:#7f7f7f" d="M275,247 l-13,-7 3,-3 3,-3 3,-1 4,-1 0,15z" />
<path style="fill:#7f7f7f" d="M11,231 l59,-102 205,118 -59,103 -205,-119z" />
<path style="fill:#999" d="M24,239 l59,-103 180,104 -59,102 -180,-103z" />
<path style="fill:#b2b2b2" d="M46,251 l59,-102 136,79 -59,102 -136,-79z" />
<path style="fill:#ccc" d="M67,263 l59,-102 94,54 -59,103 -94,-55z" />
<path style="fill:#e5e5e5" d="M83,273 l59,-102 61,34 -59,103 -61,-35z" />
<path style="fill:#fff" d="M101,283 l59,-102 25,14 -59,103 -25,-15z" />
<path style="fill:none;stroke:#000;stroke-width:2" d="M216,350 l59,-103" />
<path style="fill:none;stroke:#000;stroke-width:2" d="M70,129 l-59,102" />

</svg>
