

<svg xmlns:agg="http://www.example.com" xmlns="http://www.w3.org/2000/svg" preserveAspectRatio="none" width="1.4792in" height="1.4792in" viewBox="0 0 530 530">

<path style="fill:#7f7f7f" d="M120,15 l395,395 -105,105 -395,-395 105,-105z" />
<path style="fill:#999" d="M114,21 l395,396 -92,92 -395,-395 92,-93z" />
<path style="fill:#b2b2b2" d="M102,33 l396,395 -70,70 -395,-396 69,-69z" />
<path style="fill:#ccc" d="M92,43 l395,396 -48,48 -395,-395 48,-49z" />
<path style="fill:#e5e5e5" d="M83,52 l395,395 -30,31 -396,-395 31,-31z" />
<path style="fill:#fff" d="M74,61 l395,395 -13,13 -395,-395 13,-13z" />
<path style="fill:none;stroke:#000;stroke-width:2" d="M15,120 l395,395" />
<path style="fill:none;stroke:#000;stroke-width:2" d="M515,410 l-395,-395" />

</svg>
