 
<svg version="1.1" id="Default" xmlns:agg="http://www.example.com"
	 xmlns="http://www.w3.org/2000/svg" preserveAspectRatio="none"   x="0px" y="0px" 
	  viewBox="1.415 0 107.594 55.212" xml:space="preserve">
	 
<agg:params>
	<agg:param name="color" description="Color" type="C" cssAttributes="fill" classes="color"/>
	<agg:param type="F" name="saturation" description="Saturation" min="0" max="1" cssAttributes="opacity" classes="color"/>
</agg:params>

<style type="text/css" >
   <![CDATA[

	.stroke{
		stroke-width:0.3;
		stroke-linecap:round;
		stroke-linejoin:round;
		stroke: black;
		fill:none;
		opacity:0.5;
	}
	
	.color {
		fill:#3664BF;
		opacity:0.2;
	}

      ]]>
</style>
	 
<radialGradient id="curved" cx="55.212" cy="55.212" r="53.843" gradientUnits="userSpaceOnUse">
	<stop  offset="0" style="stop-color:#4D5C75"/>
	<stop  offset="0.4918" style="stop-color:#4D5C75"/>
	<stop  offset="0.5077" style="stop-color:#616F85"/>
	<stop  offset="0.5481" style="stop-color:#8E99A9"/>
	<stop  offset="0.5888" style="stop-color:#B4BCC7"/>
	<stop  offset="0.629" style="stop-color:#D1D7DE"/>
	<stop  offset="0.6689" style="stop-color:#E5EAEF"/>
	<stop  offset="0.7081" style="stop-color:#F2F6F9"/>
	<stop  offset="0.7459" style="stop-color:#F6FAFC"/>
	<stop  offset="0.7837" style="stop-color:#F2F6F9"/>
	<stop  offset="0.8229" style="stop-color:#E5EAEF"/>
	<stop  offset="0.8628" style="stop-color:#D1D7DE"/>
	<stop  offset="0.903" style="stop-color:#B4BCC7"/>
	<stop  offset="0.9437" style="stop-color:#8E99A9"/>
	<stop  offset="0.9841" style="stop-color:#616F85"/>
	<stop  offset="1" style="stop-color:#4D5C75"/>
</radialGradient>

<path id="segment" fill="url(#curved)" d="M109.01,55.213
	c0-29.712-24.086-53.798-53.797-53.798S1.415,25.501,1.415,55.213c9.112,0,18.225,0,27.338,0c0-14.613,11.846-26.459,26.459-26.459
	S81.671,40.6,81.671,55.213C90.784,55.213,99.897,55.213,109.01,55.213z"/>
<path class="color" d="M109.01,55.213
	c0-29.712-24.086-53.798-53.797-53.798S1.415,25.501,1.415,55.213c9.112,0,18.225,0,27.338,0c0-14.613,11.846-26.459,26.459-26.459
	S81.671,40.6,81.671,55.213C90.784,55.213,99.897,55.213,109.01,55.213z"/>
<path class="stroke" d="M109.01,55.213
	c0-29.712-24.086-53.798-53.797-53.798S1.415,25.501,1.415,55.213"/>
<path class="stroke" d="M28.753,55.213
	c0-14.613,11.846-26.459,26.459-26.459S81.671,40.6,81.671,55.213"/>
</svg>
