 

<svg xmlns:agg="http://www.example.com" xmlns="http://www.w3.org/2000/svg" preserveAspectRatio="none" width="0.8716in" height="1.0750in" viewBox="0 0 810 999">

<path style="fill:#ccc;stroke:#000;stroke-width:2" d="M199,778 l191,192 392,-394 -79,-77 79,-79 -392,-392 -80,79 -111,117 -115,0 0,552 115,2z" />
<path style="fill:none;stroke:#7f7f7f;stroke-width:2" d="M201,224 l502,275 -502,275" />
<path style="fill:none;stroke:#7f7f7f;stroke-width:2" d="M201,774 l0,-558" />
<path style="fill:#4c4c4c;stroke:#000;stroke-width:2" d="M111,195 l-83,0 0,-17 83,0 0,17z" />
<path style="fill:#4c4c4c;stroke:#000;stroke-width:2" d="M111,816 l-83,0 0,-19 83,0 0,19z" />
<path style="fill:#b2b2b2;stroke:#000;stroke-width:2" d="M84,163 l-28,0 0,666 28,0 0,-666z" />

</svg>
