 
<svg version="1.1" id="Layer_01" xmlns:agg="http://www.example.com"
	 xmlns="http://www.w3.org/2000/svg" preserveAspectRatio="none"  xmlns:xlink="http://www.w3.org/1999/xlink" x="0px" y="0px"  
	 viewBox="0 0 40 40" enable-background="new 0 0 40 40" xml:space="preserve">
	 
<agg:params>
	<agg:param  type="C" name="color" classes="color" cssAttributes="fill" description="Color"></agg:param>
	<agg:param  type="F" name="saturation" min="0" max="1" classes="color" cssAttributes="opacity" description="Saturation"></agg:param>
</agg:params>

<style type="text/css" >
   <![CDATA[

	.stroke{
		stroke-width:0.3;
		stroke-linecap:round;
		stroke-linejoin:round;
		stroke: black;
		fill:none;
		opacity:0.5;
	}
	
	.color {
		fill:#3664BF;
		opacity:0.2;
	}

      ]]>
</style>

<linearGradient id="hor" gradientUnits="userSpaceOnUse" x1="0" y1="10" x2="0" y2="30">
	<stop  offset="0" style="stop-color:#4D5C75"/>
	<stop  offset="0.0313" style="stop-color:#616F85"/>
	<stop  offset="0.1108" style="stop-color:#8E99A9"/>
	<stop  offset="0.1908" style="stop-color:#B4BCC7"/>
	<stop  offset="0.27" style="stop-color:#D1D7DE"/>
	<stop  offset="0.3485" style="stop-color:#E5EAEF"/>
	<stop  offset="0.4256" style="stop-color:#F2F6F9"/>
	<stop  offset="0.5" style="stop-color:#F6FAFC"/>
	<stop  offset="0.5744" style="stop-color:#F2F6F9"/>
	<stop  offset="0.6515" style="stop-color:#E5EAEF"/>
	<stop  offset="0.73" style="stop-color:#D1D7DE"/>
	<stop  offset="0.8092" style="stop-color:#B4BCC7"/>
	<stop  offset="0.8892" style="stop-color:#8E99A9"/>
	<stop  offset="0.9687" style="stop-color:#616F85"/>
	<stop  offset="1" style="stop-color:#4D5C75"/>
</linearGradient>
	
<path fill="url(#hor)" d="M35.318,18.783c1.054-0.831,2.077-1.679,2.995-2.627c-0.721-0.888-1.451-1.768-2.113-2.688
	c0.041-0.125,0.075-0.246,0.1-0.374c0.025-0.125,0.043-0.253,0.047-0.381c0.012-0.232-0.013-0.463-0.08-0.685
	c-0.066-0.221-0.172-0.431-0.314-0.624s-0.318-0.367-0.516-0.517c-0.256-0.143-0.512-0.281-0.781-0.406
	c-0.201-0.096-0.41-0.186-0.629-0.26c-0.181-0.064-0.369-0.118-0.563-0.157c-0.164-0.032-0.332-0.053-0.499-0.061
	c-0.067-0.003-0.138-0.003-0.206,0V10c-4.252,0-28.505,0-32.757,0v20c3.854,0,27.708,0,31.562,0v-0.004
	C31.574,30,31.584,30,31.596,30c0.055,0,0.105-0.004,0.156-0.011c0.059-0.008,0.113-0.021,0.168-0.036
	c0.125-0.036,0.242-0.089,0.359-0.146c0.094-0.05,0.186-0.1,0.277-0.154c0.055-0.029,0.109-0.061,0.159-0.093
	c0.257-0.149,0.513-0.299,0.772-0.449c0.205-0.118,0.415-0.235,0.629-0.353c0.482-0.264,0.971-0.513,1.465-0.759l2.497-4.541
	c0.667-0.563,1.305-1.145,1.921-1.747C38.335,20.686,37.046,19.727,35.318,18.783z"/>
<path opacity="0.5" fill="#FFFFFF" d="M33.652,12.078c0.269,0.068,0.521,0.182,0.743,0.328
	c0.205,0.139,0.381,0.31,0.52,0.502c0.139,0.2,0.236,0.421,0.285,0.649c0.521,0.873,1.112,1.711,1.695,2.552
	c-0.607,0.913-1.367,1.707-2.177,2.484c-0.114,0.11-0.231,0.221-0.349,0.332c0.23,0.132,0.458,0.267,0.688,0.402
	c0.228,0.136,0.454,0.268,0.682,0.403c0.209,0.128,0.419,0.256,0.629,0.385c0.209,0.128,0.42,0.257,0.625,0.385
	c0.717,0.453,1.006,0.913,1.699,1.394c-0.668,0.577-0.939,1.13-1.662,1.664c-0.633,0.784-1.291,1.558-1.967,2.32
	c-0.08,0.153-0.172,0.304-0.277,0.446c-0.105,0.146-0.227,0.282-0.361,0.41c-0.26,0.252-0.57,0.47-0.906,0.652
	c-0.369,0.196-0.775,0.349-1.195,0.452c-0.21,0.054-0.424,0.093-0.643,0.121C31.479,27.986,31.278,28,31.076,28
	c-0.164,0-0.332-0.011-0.496-0.033c-0.143-0.022-0.281-0.05-0.415-0.093c-0.117-0.036-0.227-0.085-0.327-0.146
	c-0.084-0.057-0.159-0.121-0.215-0.196c-0.055-0.075-0.088-0.156-0.104-0.243c-0.018-0.092-0.01-0.188,0.016-0.281
	c0.025-0.107,0.072-0.214,0.131-0.314c0.066-0.114,0.146-0.224,0.23-0.328c-0.738-0.709-1.443-1.444-2.127-2.192
	c0.268-0.149,0.537-0.299,0.805-0.441c0.345-0.186,0.689-0.364,1.037-0.539c-0.121-0.114-0.244-0.228-0.361-0.345
	c-0.117-0.114-0.234-0.232-0.352-0.353c-0.24-0.246-0.475-0.496-0.701-0.752c-0.486-0.552-0.943-1.126-1.377-1.711
	c0.029-0.203,0.06-0.406,0.098-0.609c0.037-0.203,0.074-0.406,0.121-0.606c0.08-0.364,0.176-0.727,0.289-1.083
	c0.206-0.652,0.475-1.291,0.826-1.896c0.953-0.492,1.906-0.991,2.824-1.533c0.244-0.139,0.483-0.285,0.719-0.431
	c-0.038-0.128-0.068-0.257-0.084-0.389c-0.013-0.107-0.021-0.217-0.013-0.324c0.004-0.107,0.021-0.217,0.054-0.321
	c0.029-0.089,0.067-0.171,0.113-0.253c0.051-0.079,0.109-0.15,0.181-0.218c0.071-0.064,0.155-0.125,0.243-0.174
	c0.094-0.05,0.198-0.093,0.303-0.121c0.113-0.036,0.23-0.057,0.354-0.068C33.115,11.986,33.391,12.01,33.652,12.078z"/>
<path opacity="0.3" d="M38.078,23.459c0.668-0.563,1.305-1.144,1.922-1.747
	c-1.666-1.026-2.954-1.985-4.683-2.93c1.054-0.831,2.077-1.679,2.995-2.627c-0.721-0.887-1.451-1.768-2.113-2.688
	c0.041-0.125,0.075-0.246,0.1-0.374c0.025-0.125,0.043-0.253,0.047-0.381c0.012-0.232-0.013-0.463-0.08-0.685
	c-0.066-0.221-0.172-0.431-0.314-0.624c-0.143-0.192-0.318-0.367-0.516-0.517c-0.256-0.143-0.512-0.282-0.781-0.406
	c-0.201-0.096-0.41-0.186-0.629-0.26c-0.181-0.064-0.369-0.118-0.563-0.157c-0.164-0.032-0.332-0.054-0.499-0.061
	c-0.067-0.004-0.138-0.004-0.206,0c-0.117,0-0.23,0.007-0.344,0.018c-0.193,0.025-0.386,0.061-0.574,0.107
	c-0.23,0.057-0.462,0.128-0.684,0.207c-0.277,0.096-0.551,0.204-0.823,0.317c-0.089,0.082-0.163,0.171-0.231,0.268
	c-0.07,0.107-0.129,0.221-0.172,0.338c-0.037,0.114-0.063,0.228-0.074,0.346c-0.014,0.139-0.014,0.278,0.004,0.414
	c0.016,0.15,0.046,0.296,0.088,0.442c0.047,0.157,0.101,0.31,0.168,0.46c0.154,0.363,0.355,0.709,0.578,1.048
	c-1.291,0.649-2.617,1.244-3.957,1.825c-0.566,1.44-0.779,2.88-0.863,4.38c0.721,1.119,1.51,2.188,2.434,3.205
	c-0.676,0.289-1.344,0.588-2.006,0.895c0.73,0.748,1.473,1.486,2.211,2.228c-0.121,0.079-0.248,0.165-0.365,0.25
	c-0.109,0.075-0.213,0.154-0.318,0.231c-0.186,0.146-0.369,0.296-0.537,0.456c-0.143,0.132-0.273,0.275-0.391,0.42
	c-0.096,0.121-0.18,0.25-0.243,0.385c0.306,0.107,0.608,0.218,0.911,0.332c0.264,0.096,0.523,0.196,0.789,0.295
	c0.26,0.097,0.516,0.197,0.775,0.3c0.336,0.131,0.668,0.263,1.004,0.399c0.074,0.028,0.154,0.061,0.23,0.089
	c0.139,0.054,0.276,0.107,0.415,0.157c0.089,0.032,0.177,0.061,0.265,0.086c0.066,0.021,0.135,0.039,0.205,0.057
	c0.101,0.021,0.205,0.039,0.311,0.039C31.574,30,31.584,30,31.596,30c0.055,0,0.105-0.004,0.156-0.011
	c0.059-0.008,0.113-0.021,0.168-0.036c0.125-0.036,0.242-0.089,0.359-0.146c0.094-0.05,0.186-0.1,0.277-0.154
	c0.055-0.029,0.109-0.061,0.159-0.093c0.257-0.149,0.513-0.299,0.772-0.449c0.205-0.118,0.415-0.235,0.629-0.353
	c0.482-0.264,0.971-0.513,1.465-0.759 M37.03,23.56c-0.634,0.784-1.292,1.557-1.969,2.32c-0.078,0.153-0.171,0.303-0.275,0.445
	c-0.105,0.146-0.227,0.281-0.361,0.41c-0.26,0.253-0.57,0.47-0.906,0.652c-0.369,0.196-0.776,0.349-1.195,0.453
	c-0.211,0.053-0.424,0.092-0.643,0.121C31.479,27.986,31.278,28,31.076,28c-0.164,0-0.332-0.011-0.496-0.032
	c-0.143-0.021-0.281-0.05-0.416-0.093c-0.117-0.036-0.227-0.085-0.326-0.146c-0.084-0.057-0.16-0.121-0.215-0.196
	s-0.088-0.157-0.105-0.242c-0.016-0.093-0.008-0.189,0.018-0.282c0.025-0.106,0.072-0.213,0.131-0.313
	c0.066-0.114,0.146-0.225,0.23-0.328c-0.738-0.709-1.443-1.444-2.128-2.192c0.269-0.149,0.538-0.299,0.806-0.442
	c0.344-0.185,0.688-0.363,1.037-0.538c-0.122-0.114-0.244-0.228-0.361-0.346c-0.117-0.114-0.234-0.231-0.353-0.353
	c-0.239-0.246-0.474-0.496-0.7-0.752c-0.487-0.552-0.945-1.126-1.377-1.711c0.029-0.203,0.059-0.406,0.098-0.609
	c0.037-0.203,0.074-0.406,0.121-0.606c0.08-0.364,0.176-0.727,0.289-1.083c0.205-0.652,0.475-1.291,0.826-1.896
	c0.953-0.492,1.906-0.991,2.824-1.533c0.244-0.139,0.482-0.285,0.718-0.431c-0.038-0.128-0.067-0.257-0.084-0.389
	c-0.013-0.107-0.021-0.217-0.013-0.324c0.004-0.107,0.021-0.218,0.055-0.321c0.029-0.089,0.066-0.171,0.113-0.253
	c0.051-0.078,0.109-0.149,0.18-0.217c0.072-0.064,0.156-0.125,0.244-0.175c0.094-0.05,0.197-0.092,0.303-0.121
	c0.113-0.036,0.23-0.057,0.353-0.067c0.269-0.021,0.546,0.003,0.806,0.071c0.269,0.068,0.521,0.182,0.742,0.328
	c0.206,0.139,0.383,0.31,0.521,0.502c0.139,0.2,0.235,0.421,0.285,0.649c0.521,0.873,1.112,1.711,1.696,2.552
	c-0.608,0.913-1.368,1.707-2.178,2.484c-0.114,0.11-0.23,0.221-0.349,0.332c0.231,0.132,0.458,0.267,0.688,0.402
	c0.227,0.136,0.453,0.268,0.68,0.403c0.21,0.128,0.42,0.256,0.629,0.385c0.211,0.128,0.42,0.257,0.625,0.385
	c0.719,0.453,1.008,0.913,1.699,1.394C38.024,22.472,37.751,23.024,37.03,23.56z"/>
	
<path class="color" d="M35.318,18.783c1.054-0.831,2.077-1.679,2.995-2.627
	c-0.721-0.888-1.451-1.768-2.113-2.688c0.041-0.125,0.075-0.246,0.1-0.374c0.025-0.125,0.043-0.253,0.047-0.381
	c0.012-0.232-0.013-0.463-0.08-0.685c-0.066-0.221-0.172-0.431-0.314-0.624s-0.318-0.367-0.516-0.517
	c-0.256-0.143-0.512-0.281-0.781-0.406c-0.201-0.096-0.41-0.186-0.629-0.26c-0.181-0.064-0.369-0.118-0.563-0.157
	c-0.164-0.032-0.332-0.053-0.499-0.061c-0.067-0.003-0.138-0.003-0.206,0V10c-4.252,0-28.505,0-32.757,0v20
	c3.854,0,27.708,0,31.562,0v-0.004C31.574,30,31.584,30,31.596,30c0.055,0,0.105-0.004,0.156-0.011
	c0.059-0.008,0.113-0.021,0.168-0.036c0.125-0.036,0.242-0.089,0.359-0.146c0.094-0.05,0.186-0.1,0.277-0.154
	c0.055-0.029,0.109-0.061,0.159-0.093c0.257-0.149,0.513-0.299,0.772-0.449c0.205-0.118,0.415-0.235,0.629-0.353
	c0.482-0.264,0.971-0.513,1.465-0.759l2.497-4.541c0.667-0.563,1.305-1.145,1.921-1.747C38.335,20.686,37.046,19.727,35.318,18.783
	z"/>
	
<g class="stroke">
	<path d="M0,30c3.854,0,27.708,0,31.562,0v-0.004C31.574,30,31.582,30,31.596,30c0.055,0,0.104-0.004,0.154-0.011
		c0.059-0.008,0.113-0.021,0.168-0.036c0.127-0.036,0.244-0.089,0.361-0.146c0.092-0.05,0.184-0.1,0.277-0.154
		c0.054-0.029,0.108-0.061,0.158-0.093c0.256-0.149,0.513-0.299,0.772-0.449c0.206-0.118,0.415-0.235,0.63-0.353
		c0.482-0.264,0.969-0.513,1.464-0.759l2.497-4.541c0.667-0.563,1.305-1.145,1.922-1.747c-1.666-1.027-2.955-1.985-4.683-2.93
		c1.053-0.831,2.077-1.679,2.995-2.627c-0.721-0.888-1.451-1.768-2.113-2.688c0.041-0.125,0.074-0.246,0.1-0.374
		c0.025-0.125,0.043-0.253,0.046-0.381c0.013-0.232-0.013-0.463-0.079-0.685c-0.066-0.221-0.172-0.431-0.314-0.624
		s-0.319-0.367-0.517-0.517c-0.255-0.143-0.512-0.281-0.78-0.406c-0.201-0.096-0.41-0.186-0.629-0.26
		c-0.182-0.064-0.37-0.118-0.563-0.157c-0.164-0.032-0.332-0.053-0.5-0.061c-0.066-0.003-0.138-0.003-0.205,0V10
		c-4.252,0-28.505,0-32.757,0"/>
	<path d="M33.652,12.078c0.269,0.068,0.521,0.182,0.743,0.328c0.205,0.139,0.381,0.31,0.52,0.502c0.139,0.2,0.236,0.421,0.285,0.649
		c0.521,0.873,1.112,1.711,1.695,2.552c-0.607,0.913-1.367,1.707-2.177,2.484c-0.114,0.11-0.231,0.221-0.349,0.332
		c0.23,0.132,0.458,0.267,0.688,0.402c0.228,0.136,0.454,0.268,0.682,0.403c0.209,0.128,0.419,0.256,0.629,0.385
		c0.209,0.128,0.42,0.257,0.625,0.385c0.717,0.453,1.006,0.913,1.699,1.394c-0.668,0.577-0.939,1.13-1.662,1.664
		c-0.633,0.784-1.291,1.558-1.967,2.32c-0.08,0.153-0.172,0.304-0.277,0.446c-0.105,0.146-0.227,0.282-0.361,0.41
		c-0.26,0.252-0.57,0.47-0.906,0.652c-0.369,0.196-0.775,0.349-1.195,0.452c-0.21,0.054-0.424,0.093-0.643,0.121
		C31.479,27.986,31.278,28,31.076,28c-0.164,0-0.332-0.011-0.496-0.033c-0.143-0.022-0.281-0.05-0.415-0.093
		c-0.117-0.036-0.227-0.085-0.327-0.146c-0.084-0.057-0.159-0.121-0.215-0.196c-0.055-0.075-0.088-0.156-0.104-0.243
		c-0.018-0.092-0.01-0.188,0.016-0.281c0.025-0.107,0.072-0.214,0.131-0.314c0.066-0.114,0.146-0.224,0.23-0.328
		c-0.738-0.709-1.443-1.444-2.127-2.192c0.268-0.149,0.537-0.299,0.805-0.441c0.345-0.186,0.689-0.364,1.037-0.539
		c-0.121-0.114-0.244-0.228-0.361-0.345c-0.117-0.114-0.234-0.232-0.352-0.353c-0.24-0.246-0.475-0.496-0.701-0.752
		c-0.486-0.552-0.943-1.126-1.377-1.711c0.029-0.203,0.06-0.406,0.098-0.609c0.037-0.203,0.074-0.406,0.121-0.606
		c0.08-0.364,0.176-0.727,0.289-1.083c0.206-0.652,0.475-1.291,0.826-1.896c0.953-0.492,1.906-0.991,2.824-1.533
		c0.244-0.139,0.483-0.285,0.719-0.431c-0.038-0.128-0.068-0.257-0.084-0.389c-0.013-0.107-0.021-0.217-0.013-0.324
		c0.004-0.107,0.021-0.217,0.054-0.321c0.029-0.089,0.067-0.171,0.113-0.253c0.051-0.079,0.109-0.15,0.181-0.218
		c0.071-0.064,0.155-0.125,0.243-0.174c0.094-0.05,0.198-0.093,0.303-0.121c0.113-0.036,0.23-0.057,0.354-0.068
		C33.115,11.986,33.391,12.01,33.652,12.078z"/>
	<path d="M38.078,23.459c0.668-0.563,1.305-1.144,1.922-1.747c-1.666-1.026-2.954-1.985-4.683-2.93c1.054-0.831,2.077-1.679,2.995-2.627
		c-0.721-0.887-1.451-1.768-2.113-2.688c0.041-0.125,0.075-0.246,0.1-0.374c0.025-0.125,0.043-0.253,0.047-0.381
		c0.012-0.232-0.013-0.463-0.08-0.685c-0.066-0.221-0.172-0.431-0.314-0.624c-0.143-0.192-0.318-0.367-0.516-0.517
		c-0.256-0.143-0.512-0.282-0.781-0.406c-0.201-0.096-0.41-0.186-0.629-0.26c-0.181-0.064-0.369-0.118-0.563-0.157
		c-0.164-0.032-0.332-0.054-0.499-0.061c-0.067-0.004-0.138-0.004-0.206,0c-0.117,0-0.23,0.007-0.344,0.018
		c-0.193,0.025-0.386,0.061-0.574,0.107c-0.23,0.057-0.462,0.128-0.684,0.207c-0.277,0.096-0.551,0.204-0.823,0.317
		c-0.089,0.082-0.163,0.171-0.231,0.268c-0.07,0.107-0.129,0.221-0.172,0.338c-0.037,0.114-0.063,0.228-0.074,0.346
		c-0.014,0.139-0.014,0.278,0.004,0.414c0.016,0.15,0.046,0.296,0.088,0.442c0.047,0.157,0.101,0.31,0.168,0.46
		c0.154,0.363,0.355,0.709,0.578,1.048c-1.291,0.649-2.617,1.244-3.957,1.825c-0.566,1.44-0.779,2.88-0.863,4.38
		c0.721,1.119,1.51,2.188,2.434,3.205c-0.676,0.289-1.344,0.588-2.006,0.895c0.73,0.748,1.473,1.486,2.211,2.228
		c-0.121,0.079-0.248,0.165-0.365,0.25c-0.109,0.075-0.213,0.154-0.318,0.231c-0.186,0.146-0.369,0.296-0.537,0.456
		c-0.143,0.132-0.273,0.275-0.391,0.42c-0.096,0.121-0.18,0.25-0.243,0.385c0.306,0.107,0.608,0.218,0.911,0.332
		c0.264,0.096,0.523,0.196,0.789,0.295c0.26,0.097,0.516,0.197,0.775,0.3c0.336,0.131,0.668,0.263,1.004,0.399
		c0.074,0.028,0.154,0.061,0.23,0.089c0.139,0.054,0.276,0.107,0.415,0.157c0.089,0.032,0.177,0.061,0.265,0.086
		c0.066,0.021,0.135,0.039,0.205,0.057c0.101,0.021,0.205,0.039,0.311,0.039C31.574,30,31.584,30,31.596,30
		c0.055,0,0.105-0.004,0.156-0.011c0.059-0.008,0.113-0.021,0.168-0.036c0.125-0.036,0.242-0.089,0.359-0.146
		c0.094-0.05,0.186-0.1,0.277-0.154c0.055-0.029,0.109-0.061,0.159-0.093c0.257-0.149,0.513-0.299,0.772-0.449
		c0.205-0.118,0.415-0.235,0.629-0.353c0.482-0.264,0.971-0.513,1.465-0.759 M37.03,23.56c-0.634,0.784-1.292,1.557-1.969,2.32
		c-0.078,0.153-0.171,0.303-0.275,0.445c-0.105,0.146-0.227,0.281-0.361,0.41c-0.26,0.253-0.57,0.47-0.906,0.652
		c-0.369,0.196-0.776,0.349-1.195,0.453c-0.211,0.053-0.424,0.092-0.643,0.121C31.479,27.986,31.278,28,31.076,28
		c-0.164,0-0.332-0.011-0.496-0.032c-0.143-0.021-0.281-0.05-0.416-0.093c-0.117-0.036-0.227-0.085-0.326-0.146
		c-0.084-0.057-0.16-0.121-0.215-0.196s-0.088-0.157-0.105-0.242c-0.016-0.093-0.008-0.189,0.018-0.282
		c0.025-0.106,0.072-0.213,0.131-0.313c0.066-0.114,0.146-0.225,0.23-0.328c-0.738-0.709-1.443-1.444-2.128-2.192
		c0.269-0.149,0.538-0.299,0.806-0.442c0.344-0.185,0.688-0.363,1.037-0.538c-0.122-0.114-0.244-0.228-0.361-0.346
		c-0.117-0.114-0.234-0.231-0.353-0.353c-0.239-0.246-0.474-0.496-0.7-0.752c-0.487-0.552-0.945-1.126-1.377-1.711
		c0.029-0.203,0.059-0.406,0.098-0.609c0.037-0.203,0.074-0.406,0.121-0.606c0.08-0.364,0.176-0.727,0.289-1.083
		c0.205-0.652,0.475-1.291,0.826-1.896c0.953-0.492,1.906-0.991,2.824-1.533c0.244-0.139,0.482-0.285,0.718-0.431
		c-0.038-0.128-0.067-0.257-0.084-0.389c-0.013-0.107-0.021-0.217-0.013-0.324c0.004-0.107,0.021-0.218,0.055-0.321
		c0.029-0.089,0.066-0.171,0.113-0.253c0.051-0.078,0.109-0.149,0.18-0.217c0.072-0.064,0.156-0.125,0.244-0.175
		c0.094-0.05,0.197-0.092,0.303-0.121c0.113-0.036,0.23-0.057,0.353-0.067c0.269-0.021,0.546,0.003,0.806,0.071
		c0.269,0.068,0.521,0.182,0.742,0.328c0.206,0.139,0.383,0.31,0.521,0.502c0.139,0.2,0.235,0.421,0.285,0.649
		c0.521,0.873,1.112,1.711,1.696,2.552c-0.608,0.913-1.368,1.707-2.178,2.484c-0.114,0.11-0.23,0.221-0.349,0.332
		c0.231,0.132,0.458,0.267,0.688,0.402c0.227,0.136,0.453,0.268,0.68,0.403c0.21,0.128,0.42,0.256,0.629,0.385
		c0.211,0.128,0.42,0.257,0.625,0.385c0.719,0.453,1.008,0.913,1.699,1.394C38.024,22.472,37.751,23.024,37.03,23.56z"/>
</g>

</svg>
