


<svg xmlns:agg="http://www.example.com" xmlns="http://www.w3.org/2000/svg" preserveAspectRatio="none" width="1.4792in" height="1.4792in" viewBox="0 0 530 530">

<path style="fill:#7f7f7f" d="M15,265 l0,-250 500,0 -250,250 -250,0z" />
<path style="fill:#7f7f7f" d="M265,515 l250,0 0,-500 -250,250 0,250z" />
<path style="fill:#999" d="M15,31 l0,218 266,0 219,-218 -485,0z" />
<path style="fill:#999" d="M500,515 l-219,0 0,-266 219,-218 0,484z" />
<path style="fill:#b2b2b2" d="M15,57 l0,166 292,0 167,-166 -459,0z" />
<path style="fill:#b2b2b2" d="M474,515 l-167,0 0,-292 167,-166 0,458z" />
<path style="fill:#ccc" d="M15,83 l0,114 318,0 115,-114 -433,0z" />
<path style="fill:#ccc" d="M448,515 l-115,0 0,-318 115,-114 0,432z" />
<path style="fill:#e5e5e5" d="M15,104 l0,72 339,0 73,-72 -412,0z" />
<path style="fill:#e5e5e5" d="M427,515 l-73,0 0,-339 73,-73 0,412z" />
<path style="fill:#fff" d="M15,124 l0,32 360,0 31,-32 -391,0z" />
<path style="fill:#fff" d="M406,515 l-31,0 0,-359 31,-32 0,391z" />
<path style="fill:none;stroke:#000;stroke-width:2" d="M515,515 l0,-500" />
<path style="fill:none;stroke:#000;stroke-width:2" d="M265,265 l0,250" />
<path style="fill:none;stroke:#000;stroke-width:2" d="M15,15 l500,0" />
<path style="fill:none;stroke:#000;stroke-width:2" d="M265,265 l-250,0" />

</svg>
