

<svg xmlns:agg="http://www.example.com" xmlns="http://www.w3.org/2000/svg" preserveAspectRatio="none" width="1.6841in" height="1.4792in" viewBox="0 0 378 332">

<path style="fill:#7f7f7f" d="M243,10 l125,0 0,250 -125,0 0,-250z" />
<path style="fill:#999" d="M243,25 l125,0 0,220 -125,0 0,-220z" />
<path style="fill:#b2b2b2" d="M243,52 l125,0 0,167 -125,0 0,-167z" />
<path style="fill:#ccc" d="M243,78 l125,0 0,115 -125,0 0,-115z" />
<path style="fill:#e5e5e5" d="M243,98 l125,0 0,73 -125,0 0,-73z" />
<path style="fill:#fff" d="M243,120 l125,0 0,30 -125,0 0,-30z" />
<path style="fill:none;stroke:#000;stroke-width:2" d="M243,260 l125,0" />
<path style="fill:none;stroke:#000;stroke-width:2" d="M368,10 l-125,0" />
<path style="fill:#7f7f7f" d="M243,260 l-125,-217 14,-8 15,-6 15,-6 16,-5 16,-3 17,-3 16,-1 16,-1 0,250z" />
<path style="fill:#999" d="M243,260 l-117,-204 13,-7 14,-6 15,-6 15,-4 15,-3 15,-3 15,-1 15,-1 0,235z" />
<path style="fill:#b2b2b2" d="M243,260 l-104,-181 12,-6 12,-6 13,-5 13,-4 13,-3 14,-2 13,-2 14,0 0,209z" />
<path style="fill:#ccc" d="M243,260 l-91,-158 10,-6 11,-5 11,-4 12,-4 12,-2 12,-2 11,-2 12,0 0,183z" />
<path style="fill:#e5e5e5" d="M243,260 l-81,-140 9,-5 10,-4 10,-4 10,-3 10,-3 11,-2 10,-1 11,0 0,162z" />
<path style="fill:#fff" d="M243,260 l-70,-122 8,-4 8,-4 9,-3 9,-3 9,-2 9,-2 9,-1 9,0 0,141z" />
<path style="fill:#e5e5e5" d="M243,260 l-55,-95 6,-4 7,-3 7,-2 7,-2 7,-2 7,-1 7,-1 7,0 0,110z" />
<path style="fill:#ccc" d="M243,260 l-44,-77 5,-3 5,-2 6,-2 5,-2 6,-1 6,-1 5,-1 6,0 0,89z" />
<path style="fill:#b2b2b2" d="M243,260 l-34,-59 4,-2 4,-2 4,-1 4,-2 5,-1 4,0 5,-1 4,0 0,68z" />
<path style="fill:#999" d="M243,260 l-21,-36 5,-3 5,-2 6,-1 5,0 0,42z" />
<path style="fill:#7f7f7f" d="M243,260 l-8,-14 2,-1 2,0 2,-1 2,0 0,16z" />
<path style="fill:#7f7f7f" d="M10,105 l108,-62 125,217 -108,62 -125,-217z" />
<path style="fill:#999" d="M17,119 l109,-63 110,191 -109,62 -110,-190z" />
<path style="fill:#b2b2b2" d="M31,142 l108,-63 83,145 -108,62 -83,-144z" />
<path style="fill:#ccc" d="M44,164 l108,-62 57,99 -108,63 -57,-100z" />
<path style="fill:#e5e5e5" d="M54,182 l108,-63 37,64 -108,63 -37,-64z" />
<path style="fill:#fff" d="M65,201 l108,-63 15,27 -108,62 -15,-26z" />
<path style="fill:none;stroke:#000;stroke-width:2" d="M135,322 l108,-62" />
<path style="fill:none;stroke:#000;stroke-width:2" d="M118,43 l-108,62" />
<path style="fill:none;stroke:#000;stroke-width:2" d="M118,43 l14,-8 15,-6 15,-6 16,-5 16,-3 17,-3 16,-1 16,-1" />

</svg>
