


<svg xmlns:agg="http://www.example.com" xmlns="http://www.w3.org/2000/svg" preserveAspectRatio="none" width="1.6751in" height="1.4792in" viewBox="0 0 530 468">

<circle style="fill:#7f7f7f;stroke:#000;stroke-width:2" cx="390" cy="140" r="125" />
<circle style="fill:#999" cx="390" cy="140" r="113" />
<circle style="fill:#b2b2b2" cx="390" cy="140" r="93" />
<circle style="fill:#ccc" cx="390" cy="140" r="74" />
<circle style="fill:#e5e5e5" cx="390" cy="140" r="58" />
<path style="fill:#7f7f7f" d="M15,15 l376,0 0,191 -376,0 0,-191z" />
<path style="fill:#999" d="M15,28 l376,0 0,167 -376,0 0,-167z" />
<path style="fill:#b2b2b2" d="M15,48 l376,0 0,127 -376,0 0,-127z" />
<path style="fill:#ccc" d="M15,67 l376,0 0,87 -376,0 0,-87z" />
<path style="fill:#e5e5e5" d="M15,83 l376,0 0,56 -376,0 0,-56z" />
<path style="fill:#fff" d="M15,100 l376,0 0,23 -376,0 0,-23z" />
<path style="fill:none;stroke:#000;stroke-width:2" d="M15,206 l376,0" />
<path style="fill:none;stroke:#000;stroke-width:2" d="M391,15 l-376,0" />
<path style="fill:#7f7f7f" d="M15,297 l0,156 187,0 0,-156 6,-18 14,-12 12,-2 156,0 0,-187 -156,0 -22,1 -22,3 -21,5 -20,8 -19,9 -18,11 -18,13 -15,14 -14,15 -13,17 -11,18 -9,19 -7,20 -6,21 -3,22 -1,23z" />
<path style="fill:#999" d="M234,89 l-21,1 -20,4 -21,5 -18,7 -18,8 -18,11 -15,12 -15,13 -14,14 -12,16 -10,18 -9,18 -7,19 -5,20 -3,21 -1,21 0,156 164,0 0,-156 3,-18 10,-13 13,-9 17,-4 156,0 0,-164 -156,0z" />
<path style="fill:#b2b2b2" d="M234,109 l156,0 0,125 -156,0 -24,5 -20,13 -13,20 -5,25 0,156 -125,0 0,-176 3,-18 5,-18 6,-17 8,-17 10,-15 10,-15 12,-13 14,-12 14,-11 16,-10 16,-7 17,-7 18,-4 18,-3 20,-1z" />
<path style="fill:#ccc" d="M234,128 l-17,1 -17,3 -16,4 -15,6 -15,7 -14,8 -13,10 -12,10 -11,12 -10,14 -8,13 -7,15 -6,15 -3,17 -3,16 -1,18 0,156 86,0 0,-156 2,-17 5,-16 8,-14 9,-12 12,-10 14,-7 15,-5 17,-2 156,0 0,-86 -156,0z" />
<path style="fill:#e5e5e5" d="M234,144 l156,0 0,55 -156,0 -20,2 -18,5 -17,10 -14,11 -12,15 -9,16 -5,19 -3,20 0,156 -54,0 0,-172 3,-15 4,-14 5,-15 6,-13 8,-12 8,-12 11,-12 10,-9 12,-9 12,-7 14,-7 14,-5 14,-4 15,-2 16,-1z" />
<path style="fill:#fff" d="M234,159 l-14,1 -14,2 -13,3 -12,5 -12,6 -12,7 -10,8 -10,9 -9,9 -7,11 -7,11 -6,12 -5,13 -3,13 -2,13 -1,15 0,156 24,0 0,-156 2,-24 7,-21 10,-19 14,-17 17,-13 19,-11 22,-7 22,-2 156,0 0,-24 -156,0z" />
<path style="fill:none;stroke:#000;stroke-width:2" d="M390,78 l-156,0 -22,1 -22,3 -21,5 -20,8 -19,9 -18,11 -18,13 -15,14 -14,15 -13,17 -11,18 -9,19 -7,20 -6,21 -3,22 -1,23 0,156" />
<path style="fill:none;stroke:#000;stroke-width:2" d="M202,453 l0,-156 1,-6 2,-6 3,-6 4,-5 5,-4 5,-3 6,-1 6,-1 156,0" />
<path style="fill:#fff" d="M388,130 l0,-52 11,1 10,3 9,5 7,6 7,8 5,9 3,9 1,11 -1,11 -3,10 -5,9 -7,7 -7,7 -9,5 -10,3 -11,1 0,-53z" />
<path style="fill:#e5e5e5" d="M388,118 l0,-40 8,1 8,2 7,4 6,5 5,6 4,6 2,8 1,8 -1,8 -2,8 -4,7 -5,6 -6,5 -7,4 -8,2 -8,1 0,-41z" />
<path style="fill:#ccc" d="M388,111 l0,-33 7,1 6,1 5,3 5,4 4,5 3,6 2,6 1,7 -1,7 -2,6 -3,5 -4,5 -5,4 -5,3 -6,2 -7,1 0,-33z" />
<path style="fill:#b2b2b2" d="M388,103 l0,-25 10,2 8,5 6,8 2,10 -2,10 -6,8 -8,6 -10,2 0,-26z" />
<path style="fill:#999" d="M387,93 l0,-15 6,1 5,3 4,5 1,6 -1,6 -4,5 -5,4 -6,1 0,-16z" />
<path style="fill:#7f7f7f" d="M386,84 l0,-6 3,0 2,1 1,2 0,3 0,2 -1,2 -2,1 -3,1 0,-6z" />

</svg>
