 

<svg xmlns:agg="http://www.example.com" xmlns="http://www.w3.org/2000/svg" preserveAspectRatio="none" width="1.6083in" height="0.3107in" viewBox="0 0 999 193">

<path style="fill:#7f7f7f" d="M30,41 l233,0 0,117 -233,0 0,-117z" />
<path style="fill:none;stroke:#000;stroke-width:2" d="M263,41 l-233,0" />
<path style="fill:none;stroke:#000;stroke-width:2" d="M263,158 l-233,0" />
<path style="fill:#ccc;stroke:#000;stroke-width:2" d="M37,28 l-9,0 0,137 9,0 0,-137z" />
<path style="fill:#ccc;stroke:#000;stroke-width:2" d="M58,28 l-12,0 0,137 12,0 0,-137z" />
<path style="fill:#ccc;stroke:#000;stroke-width:2" d="M77,28 l-10,0 0,137 10,0 0,-137z" />
<path style="fill:#ccc;stroke:#000;stroke-width:2" d="M95,28 l-9,0 0,137 9,0 0,-137z" />
<path style="fill:#ccc;stroke:#000;stroke-width:2" d="M116,28 l-11,0 0,137 11,0 0,-137z" />
<path style="fill:#ccc;stroke:#000;stroke-width:2" d="M135,28 l-9,0 0,137 9,0 0,-137z" />
<path style="fill:#ccc;stroke:#000;stroke-width:2" d="M154,28 l-9,0 0,137 9,0 0,-137z" />
<path style="fill:#ccc;stroke:#000;stroke-width:2" d="M175,28 l-10,0 0,137 10,0 0,-137z" />
<path style="fill:#ccc;stroke:#000;stroke-width:2" d="M194,28 l-10,0 0,137 10,0 0,-137z" />
<path style="fill:#ccc;stroke:#000;stroke-width:2" d="M214,28 l-11,0 0,137 11,0 0,-137z" />
<path style="fill:#ccc;stroke:#000;stroke-width:2" d="M233,28 l-9,0 0,137 9,0 0,-137z" />
<path style="fill:#ccc;stroke:#000;stroke-width:2" d="M252,28 l-9,0 0,137 9,0 0,-137z" />
<path style="fill:#7f7f7f" d="M265,41 l234,0 0,117 -234,0 0,-117z" />
<path style="fill:none;stroke:#000;stroke-width:2" d="M499,41 l-234,0" />
<path style="fill:none;stroke:#000;stroke-width:2" d="M499,158 l-234,0" />
<path style="fill:#ccc;stroke:#000;stroke-width:2" d="M273,28 l-10,0 0,137 10,0 0,-137z" />
<path style="fill:#ccc;stroke:#000;stroke-width:2" d="M291,28 l-9,0 0,137 9,0 0,-137z" />
<path style="fill:#ccc;stroke:#000;stroke-width:2" d="M312,28 l-9,0 0,137 9,0 0,-137z" />
<path style="fill:#ccc;stroke:#000;stroke-width:2" d="M331,28 l-9,0 0,137 9,0 0,-137z" />
<path style="fill:#ccc;stroke:#000;stroke-width:2" d="M352,28 l-11,0 0,137 11,0 0,-137z" />
<path style="fill:#ccc;stroke:#000;stroke-width:2" d="M371,28 l-10,0 0,137 10,0 0,-137z" />
<path style="fill:#ccc;stroke:#000;stroke-width:2" d="M390,28 l-10,0 0,137 10,0 0,-137z" />
<path style="fill:#ccc;stroke:#000;stroke-width:2" d="M410,28 l-11,0 0,137 11,0 0,-137z" />
<path style="fill:#ccc;stroke:#000;stroke-width:2" d="M429,28 l-9,0 0,137 9,0 0,-137z" />
<path style="fill:#ccc;stroke:#000;stroke-width:2" d="M448,28 l-9,0 0,137 9,0 0,-137z" />
<path style="fill:#ccc;stroke:#000;stroke-width:2" d="M469,28 l-10,0 0,137 10,0 0,-137z" />
<path style="fill:#ccc;stroke:#000;stroke-width:2" d="M488,28 l-10,0 0,137 10,0 0,-137z" />
<path style="fill:#7f7f7f" d="M501,41 l234,0 0,117 -234,0 0,-117z" />
<path style="fill:none;stroke:#000;stroke-width:2" d="M735,41 l-234,0" />
<path style="fill:none;stroke:#000;stroke-width:2" d="M735,158 l-234,0" />
<path style="fill:#ccc;stroke:#000;stroke-width:2" d="M508,28 l-9,0 0,137 9,0 0,-137z" />
<path style="fill:#ccc;stroke:#000;stroke-width:2" d="M529,28 l-11,0 0,137 11,0 0,-137z" />
<path style="fill:#ccc;stroke:#000;stroke-width:2" d="M548,28 l-9,0 0,137 9,0 0,-137z" />
<path style="fill:#ccc;stroke:#000;stroke-width:2" d="M567,28 l-10,0 0,137 10,0 0,-137z" />
<path style="fill:#ccc;stroke:#000;stroke-width:2" d="M588,28 l-12,0 0,137 12,0 0,-137z" />
<path style="fill:#ccc;stroke:#000;stroke-width:2" d="M607,28 l-10,0 0,137 10,0 0,-137z" />
<path style="fill:#ccc;stroke:#000;stroke-width:2" d="M625,28 l-9,0 0,137 9,0 0,-137z" />
<path style="fill:#ccc;stroke:#000;stroke-width:2" d="M646,28 l-9,0 0,137 9,0 0,-137z" />
<path style="fill:#ccc;stroke:#000;stroke-width:2" d="M665,28 l-9,0 0,137 9,0 0,-137z" />
<path style="fill:#ccc;stroke:#000;stroke-width:2" d="M686,28 l-12,0 0,137 12,0 0,-137z" />
<path style="fill:#ccc;stroke:#000;stroke-width:2" d="M704,28 l-9,0 0,137 9,0 0,-137z" />
<path style="fill:#ccc;stroke:#000;stroke-width:2" d="M723,28 l-9,0 0,137 9,0 0,-137z" />
<path style="fill:#7f7f7f" d="M737,41 l233,0 0,117 -233,0 0,-117z" />
<path style="fill:none;stroke:#000;stroke-width:2" d="M970,41 l-233,0" />
<path style="fill:none;stroke:#000;stroke-width:2" d="M970,158 l-233,0" />
<path style="fill:#ccc;stroke:#000;stroke-width:2" d="M744,28 l-9,0 0,137 9,0 0,-137z" />
<path style="fill:#ccc;stroke:#000;stroke-width:2" d="M763,28 l-10,0 0,137 10,0 0,-137z" />
<path style="fill:#ccc;stroke:#000;stroke-width:2" d="M784,28 l-10,0 0,137 10,0 0,-137z" />
<path style="fill:#ccc;stroke:#000;stroke-width:2" d="M803,28 l-10,0 0,137 10,0 0,-137z" />
<path style="fill:#ccc;stroke:#000;stroke-width:2" d="M823,28 l-11,0 0,137 11,0 0,-137z" />
<path style="fill:#ccc;stroke:#000;stroke-width:2" d="M842,28 l-9,0 0,137 9,0 0,-137z" />
<path style="fill:#ccc;stroke:#000;stroke-width:2" d="M861,28 l-9,0 0,137 9,0 0,-137z" />
<path style="fill:#ccc;stroke:#000;stroke-width:2" d="M882,28 l-12,0 0,137 12,0 0,-137z" />
<path style="fill:#ccc;stroke:#000;stroke-width:2" d="M901,28 l-10,0 0,137 10,0 0,-137z" />
<path style="fill:#ccc;stroke:#000;stroke-width:2" d="M919,28 l-9,0 0,137 9,0 0,-137z" />
<path style="fill:#ccc;stroke:#000;stroke-width:2" d="M940,28 l-9,0 0,137 9,0 0,-137z" />
<path style="fill:#ccc;stroke:#000;stroke-width:2" d="M959,28 l-9,0 0,137 9,0 0,-137z" />

</svg>
