 

<svg xmlns:agg="http://www.example.com" xmlns="http://www.w3.org/2000/svg" preserveAspectRatio="none" width="0.7802in" height="1.0750in" viewBox="0 0 725 999">

<path style="fill:#ccc;stroke:#000;stroke-width:2" d="M595,254 l-164,-168 -343,343 68,68 -68,70 341,341 70,-68 96,-102 102,0 -2,-482 -100,-2z" />
<path style="fill:none;stroke:#7f7f7f;stroke-width:2" d="M595,736 l-439,-239 439,-239" />
<path style="fill:#4c4c4c;stroke:#000;stroke-width:2" d="M39,409 l53,52 -11,12 -51,-53 9,-11z" />
<path style="fill:#4c4c4c;stroke:#000;stroke-width:2" d="M422,28 l51,51 -10,11 -53,-51 12,-11z" />
<path style="fill:#b2b2b2;stroke:#000;stroke-width:2" d="M37,446 l17,17 411,-411 -17,-17 -411,411z" />
<path style="fill:none;stroke:#7f7f7f;stroke-width:2" d="M593,258 l0,486" />
<path style="fill:#4c4c4c;stroke:#000;stroke-width:2" d="M90,537 l-51,52 -11,-11 51,-53 11,12z" />
<path style="fill:#4c4c4c;stroke:#000;stroke-width:2" d="M473,919 l-53,51 -11,-11 52,-51 12,11z" />
<path style="fill:#b2b2b2;stroke:#000;stroke-width:2" d="M54,533 l-19,19 411,409 17,-17 -409,-411z" />

</svg>
