

<svg xmlns:agg="http://www.example.com" xmlns="http://www.w3.org/2000/svg" preserveAspectRatio="none" width="2.0104in" height="0.7473in" viewBox="0 0 530 197">

<path style="fill:#7f7f7f;stroke:#000;stroke-width:2" d="M119,140 l-10,42 -62,0 -11,-42 83,0z" />
<path style="fill:#7f7f7f;stroke:#000;stroke-width:2" d="M307,140 l-10,42 -63,0 -10,-42 83,0z" />
<path style="fill:#7f7f7f;stroke:#000;stroke-width:2" d="M495,140 l-11,42 -62,0 -11,-42 84,0z" />
<path style="fill:#7f7f7f" d="M15,140 l0,-125 500,0 0,125 -500,0z" />
<path style="fill:#999" d="M46,140 l0,-125 439,0 0,125 -439,0z" />
<path style="fill:#b2b2b2" d="M100,140 l0,-125 332,0 0,125 -332,0z" />
<path style="fill:#ccc" d="M151,140 l0,-125 229,0 0,125 -229,0z" />
<path style="fill:#e5e5e5" d="M192,140 l0,-125 146,0 0,125 -146,0z" />
<path style="fill:#fff" d="M235,140 l0,-125 61,0 0,125 -61,0z" />
<path style="fill:none;stroke:#000;stroke-width:2" d="M15,140 l0,-125 500,0 0,125 -500,0" />
<path style="fill:#b2b2b2;stroke:#000;stroke-width:2" d="M104,140 l-5,42 -52,0 -11,-42 68,0z" />
<path style="fill:#b2b2b2;stroke:#000;stroke-width:2" d="M291,140 l-5,42 -52,0 -10,-42 67,0z" />
<path style="fill:#b2b2b2;stroke:#000;stroke-width:2" d="M479,140 l-5,42 -52,0 -11,-42 68,0z" />
<path style="fill:#e5e5e5;stroke:#000;stroke-width:2" d="M57,182 l-10,0 -11,-42 16,0 5,42z" />
<path style="fill:#e5e5e5;stroke:#000;stroke-width:2" d="M244,182 l-10,0 -10,-42 15,0 5,42z" />
<path style="fill:#e5e5e5;stroke:#000;stroke-width:2" d="M432,182 l-10,0 -11,-42 16,0 5,42z" />

</svg>
