<svg xmlns:agg="http://www.example.com" xmlns="http://www.w3.org/2000/svg" preserveAspectRatio="none" width="1.4792in" height="1.4792in" viewBox="0 0 530 530">

<path style="fill:#7f7f7f" d="M15,140 l125,0 0,-125 250,0 0,125 125,0 0,250 -125,0 0,125 -250,0 0,-125 -125,0 0,-250z" />
<path style="fill:#999" d="M15,156 l141,0 0,-141 219,0 0,141 140,0 0,218 -140,0 0,141 -219,0 0,-141 -141,0 0,-218z" />
<path style="fill:#b2b2b2" d="M15,182 l167,0 0,-167 167,0 0,167 166,0 0,166 -166,0 0,167 -167,0 0,-167 -167,0 0,-166z" />
<path style="fill:#ccc" d="M15,208 l193,0 0,-193 115,0 0,193 192,0 0,114 -192,0 0,193 -115,0 0,-193 -193,0 0,-114z" />
<path style="fill:#e5e5e5" d="M15,229 l214,0 0,-214 73,0 0,214 213,0 0,73 -213,0 0,213 -73,0 0,-213 -214,0 0,-73z" />
<path style="fill:#fff" d="M15,249 l235,0 0,-234 31,0 0,234 234,0 0,32 -234,0 0,234 -31,0 0,-234 -235,0 0,-32z" />
<path style="fill:none;stroke:#000;stroke-width:2" d="M15,140 l125,0 0,-125" />
<path style="fill:none;stroke:#000;stroke-width:2" d="M390,15 l0,125 125,0" />
<path style="fill:none;stroke:#000;stroke-width:2" d="M515,390 l-125,0 0,125" />
<path style="fill:none;stroke:#000;stroke-width:2" d="M140,515 l0,-125 -125,0" />

</svg>
