

<svg xmlns:agg="http://www.example.com" xmlns="http://www.w3.org/2000/svg" preserveAspectRatio="none" width="1.6947in" height="1.4792in" viewBox="0 0 401 350">

<path style="fill:#7f7f7f" d="M11,97 l122,0 0,242 -122,0 0,-242z" />
<path style="fill:#999" d="M11,112 l122,0 0,213 -122,0 0,-213z" />
<path style="fill:#b2b2b2" d="M11,138 l122,0 0,161 -122,0 0,-161z" />
<path style="fill:#ccc" d="M11,163 l122,0 0,111 -122,0 0,-111z" />
<path style="fill:#e5e5e5" d="M11,182 l122,0 0,71 -122,0 0,-71z" />
<path style="fill:#fff" d="M11,203 l122,0 0,30 -122,0 0,-30z" />
<path style="fill:none;stroke:#000;stroke-width:2" d="M11,339 l122,0" />
<path style="fill:none;stroke:#000;stroke-width:2" d="M133,97 l-122,0" />
<path style="fill:#7f7f7f" d="M133,97 l171,171 -8,8 -9,8 -10,7 -9,7 -10,6 -11,6 -10,6 -11,4 -11,5 -12,3 -11,4 -12,2 -12,2 -11,2 -12,1 -12,0 0,-242z" />
<path style="fill:#999" d="M133,97 l161,160 -8,8 -9,7 -8,7 -10,6 -9,6 -10,6 -10,5 -10,4 -11,4 -10,4 -11,3 -11,2 -11,2 -11,2 -11,1 -11,0 0,-227z" />
<path style="fill:#b2b2b2" d="M133,97 l143,143 -15,13 -15,12 -18,10 -17,8 -19,7 -19,5 -20,3 -20,1 0,-202z" />
<path style="fill:#ccc" d="M133,97 l125,125 -13,11 -14,11 -15,9 -16,7 -16,6 -17,4 -17,3 -17,1 0,-177z" />
<path style="fill:#e5e5e5" d="M133,97 l111,110 -11,10 -13,9 -13,8 -14,7 -15,5 -14,4 -16,2 -15,1 0,-156z" />
<path style="fill:#fff" d="M133,97 l96,96 -10,9 -10,8 -12,7 -12,5 -12,5 -13,3 -14,2 -13,1 0,-136z" />
<path style="fill:#e5e5e5" d="M133,97 l75,75 -8,7 -8,6 -9,5 -9,5 -10,3 -10,3 -11,1 -10,1 0,-106z" />
<path style="fill:#ccc" d="M133,97 l61,60 -6,6 -7,5 -8,4 -7,3 -8,3 -8,2 -9,2 -8,0 0,-85z" />
<path style="fill:#b2b2b2" d="M133,97 l46,46 -5,4 -5,4 -5,3 -6,3 -6,2 -6,2 -7,1 -6,0 0,-65z" />
<path style="fill:#999" d="M133,97 l28,28 -6,5 -7,4 -7,2 -8,1 0,-40z" />
<path style="fill:#7f7f7f" d="M133,97 l11,10 -2,2 -3,2 -3,1 -3,0 0,-15z" />
<path style="fill:none;stroke:#000;stroke-width:2" d="M304,268 l-8,8 -9,8 -10,7 -9,7 -10,6 -11,6 -10,6 -11,4 -11,5 -12,3 -11,4 -12,2 -12,2 -11,2 -12,1 -12,0" />
<path style="fill:#7f7f7f" d="M133,96 l86,-85 171,171 -86,86 -171,-172z" />
<path style="fill:#999" d="M143,107 l86,-86 151,151 -86,85 -151,-150z" />
<path style="fill:#b2b2b2" d="M162,125 l86,-85 114,114 -86,85 -114,-114z" />
<path style="fill:#ccc" d="M179,143 l86,-86 79,79 -86,86 -79,-79z" />
<path style="fill:#e5e5e5" d="M193,157 l86,-86 50,50 -85,86 -51,-50z" />
<path style="fill:#fff" d="M208,172 l86,-86 21,21 -86,86 -21,-21z" />
<path style="fill:none;stroke:#000;stroke-width:2" d="M304,268 l86,-86" />
<path style="fill:none;stroke:#000;stroke-width:2" d="M219,11 l-86,85" />

</svg>
