


<svg xmlns:agg="http://www.example.com" xmlns="http://www.w3.org/2000/svg" preserveAspectRatio="none" width="1.2437in" height="1.4792in" viewBox="0 0 840 999">

<circle style="fill:#ccc;stroke:#000;stroke-width:2" cx="419" cy="419" r="392" />
<path style="fill:none;stroke:#fff;stroke-width:2" d="M374,762 l-8,-11 -6,-11 -4,-13 -2,-13 2,-13 3,-12 7,-11 8,-10 9,-8 12,-6 12,-4 13,-1 12,1 12,4 11,6 10,9" />
<path style="fill:none;stroke:#7f7f7f;stroke-width:2" d="M465,669 l8,10 7,11 4,11 1,13 -1,13 -4,12 -6,11 -9,10 -9,8 -11,6 -12,4 -13,1 -13,-1 -13,-4 -11,-5 -9,-7" />
<path style="fill:none;stroke:#fff;stroke-width:2" d="M372,171 l-7,-10 -6,-12 -3,-12 -2,-12 1,-13 4,-13 6,-12 8,-10 9,-8 12,-6 12,-4 14,-1 13,1 12,4 11,6 9,9" />
<path style="fill:none;stroke:#7f7f7f;stroke-width:2" d="M465,78 l8,10 7,12 4,12 1,13 -1,13 -4,12 -6,12 -9,9 -9,8 -11,7 -12,3 -13,2 -13,-2 -13,-3 -12,-7 -10,-8" />
<path style="fill:none;stroke:#fff;stroke-width:2" d="M78,468 l-8,-11 -6,-12 -3,-12 -1,-13 1,-13 4,-12 6,-12 8,-9 9,-8 11,-7 13,-3 13,-2 13,2 12,4 11,6 10,8" />
<path style="fill:none;stroke:#7f7f7f;stroke-width:2" d="M171,374 l8,11 7,11 3,12 2,12 -2,14 -3,12 -7,12 -8,10 -9,8 -12,6 -12,4 -13,2 -13,-2 -12,-4 -12,-6 -10,-8" />
<path style="fill:none;stroke:#fff;stroke-width:2" d="M669,468 l-8,-11 -6,-11 -3,-12 -1,-12 1,-14 4,-12 6,-11 7,-10 10,-7 10,-6 12,-4 13,-1 13,1 13,4 12,5 10,7" />
<path style="fill:none;stroke:#7f7f7f;stroke-width:2" d="M762,374 l7,11 5,11 4,13 1,13 -1,13 -3,12 -7,10 -7,10 -10,8 -11,5 -12,4 -14,1 -12,-1 -12,-4 -11,-5 -10,-7" />
<path style="fill:none;stroke:#fff;stroke-width:2" d="M161,679 l-9,-9 -6,-11 -4,-12 -1,-14 1,-13 4,-12 6,-11 9,-9 9,-9 12,-6 13,-3 14,-2 11,2 12,3 12,6 10,7" />
<path style="fill:none;stroke:#7f7f7f;stroke-width:2" d="M254,586 l8,10 6,12 4,12 2,13 -2,14 -3,11 -6,12 -9,9 -9,9 -11,6 -12,3 -13,2 -14,-2 -12,-3 -12,-7 -10,-8" />
<path style="fill:none;stroke:#fff;stroke-width:2" d="M161,254 l-9,-11 -6,-11 -4,-13 -1,-13 1,-13 4,-12 6,-11 9,-10 9,-8 12,-6 13,-4 14,-1 11,1 12,4 12,6 10,9" />
<path style="fill:none;stroke:#7f7f7f;stroke-width:2" d="M254,161 l8,10 6,11 4,11 2,13 -2,14 -3,12 -6,12 -9,10 -9,8 -11,6 -12,4 -13,2 -14,-2 -12,-4 -12,-6 -10,-8" />
<path style="fill:none;stroke:#fff;stroke-width:2" d="M586,679 l-7,-9 -6,-11 -3,-12 -2,-14 2,-13 3,-12 6,-11 9,-9 9,-9 11,-6 12,-3 13,-2 13,2 12,4 11,6 10,8" />
<path style="fill:none;stroke:#7f7f7f;stroke-width:2" d="M679,588 l8,10 7,11 3,12 2,12 -2,14 -3,11 -6,12 -9,9 -9,9 -12,6 -11,3 -14,2 -13,-2 -12,-3 -12,-7 -10,-8" />
<path style="fill:none;stroke:#fff;stroke-width:2" d="M586,256 l-7,-10 -6,-12 -3,-12 -2,-13 1,-14 4,-12 6,-11 8,-9 9,-9 11,-6 13,-3 13,-2 13,2 12,4 11,6 10,8" />
<path style="fill:none;stroke:#7f7f7f;stroke-width:2" d="M679,163 l8,9 7,11 3,12 2,14 -2,13 -3,12 -6,11 -9,9 -9,9 -12,6 -11,3 -14,2 -13,-2 -12,-3 -12,-6 -10,-7" />
<circle style="fill:#7f7f7f;stroke:#000;stroke-width:2" cx="418" cy="422" r="194" />
<circle style="fill:#999" cx="420" cy="421" r="171" />
<circle style="fill:#b2b2b2" cx="420" cy="421" r="128" />
<ellipse style="fill:#ccc" cx="419" cy="421" rx="85" ry="87" />
<circle style="fill:#e5e5e5" cx="420" cy="421" r="55" />
<circle style="fill:#fff" cx="420" cy="421" r="23" />
<path style="fill:#7f7f7f" d="M224,971 l0,-551 389,0 0,551 -389,0z" />
<path style="fill:#999" d="M251,971 l0,-551 337,0 0,551 -337,0z" />
<path style="fill:#b2b2b2" d="M292,971 l0,-551 256,0 0,551 -256,0z" />
<path style="fill:#ccc" d="M329,971 l0,-551 179,0 0,551 -179,0z" />
<path style="fill:#e5e5e5" d="M362,971 l0,-551 113,0 0,551 -113,0z" />
<path style="fill:#fff" d="M397,971 l0,-551 46,0 0,551 -46,0z" />
<path style="fill:none;stroke:#000;stroke-width:2" d="M613,971 l0,-551" />
<path style="fill:none;stroke:#000;stroke-width:2" d="M224,420 l0,551" />

</svg>
