

<svg xmlns:agg="http://www.example.com" xmlns="http://www.w3.org/2000/svg" preserveAspectRatio="none" width="1.4792in" height="1.4792in" viewBox="0 0 530 530">

<path style="fill:#7f7f7f" d="M15,410 l395,-395 105,105 -395,395 -105,-105z" />
<path style="fill:#999" d="M22,417 l395,-395 92,92 -395,395 -92,-92z" />
<path style="fill:#b2b2b2" d="M33,428 l395,-395 70,70 -395,395 -70,-70z" />
<path style="fill:#ccc" d="M44,439 l395,-396 48,49 -395,395 -48,-48z" />
<path style="fill:#e5e5e5" d="M52,447 l395,-395 31,31 -395,395 -31,-31z" />
<path style="fill:#fff" d="M61,456 l395,-395 13,13 -395,395 -13,-13z" />
<path style="fill:none;stroke:#000;stroke-width:2" d="M120,515 l395,-395" />
<path style="fill:none;stroke:#000;stroke-width:2" d="M410,15 l-395,395" />

</svg>
