

<svg xmlns:agg="http://www.example.com" xmlns="http://www.w3.org/2000/svg" preserveAspectRatio="none" width="1.3217in" height="1.4792in" viewBox="0 0 361 404">

<path style="fill:#7f7f7f" d="M11,129 l0,-118 237,0 0,118 -237,0z" />
<path style="fill:#999" d="M26,129 l0,-118 208,0 0,118 -208,0z" />
<path style="fill:#b2b2b2" d="M51,129 l0,-118 158,0 0,118 -158,0z" />
<path style="fill:#ccc" d="M75,129 l0,-118 109,0 0,118 -109,0z" />
<path style="fill:#e5e5e5" d="M95,129 l0,-118 69,0 0,118 -69,0z" />
<path style="fill:#fff" d="M115,129 l0,-118 29,0 0,118 -29,0z" />
<path style="fill:none;stroke:#000;stroke-width:2" d="M248,129 l0,-118" />
<path style="fill:none;stroke:#000;stroke-width:2" d="M11,11 l0,118" />
<path style="fill:#7f7f7f" d="M248,129 l-119,205 -13,-8 -13,-9 -12,-10 -11,-11 -10,-11 -10,-12 -9,-13 -8,-13 -7,-13 -7,-14 -5,-15 -5,-14 -3,-15 -3,-16 -1,-15 -1,-16 237,0z" />
<path style="fill:#999" d="M248,129 l-111,192 -12,-8 -12,-8 -11,-9 -11,-10 -10,-11 -9,-11 -8,-12 -8,-12 -7,-13 -6,-13 -5,-13 -4,-14 -4,-14 -2,-15 -2,-14 0,-15 222,0z" />
<path style="fill:#b2b2b2" d="M248,129 l-99,171 -11,-7 -10,-8 -10,-8 -10,-9 -8,-9 -8,-10 -8,-10 -6,-11 -7,-12 -5,-11 -4,-12 -4,-13 -3,-12 -2,-13 -2,-13 0,-13 197,0z" />
<path style="fill:#ccc" d="M248,129 l-87,150 -19,-13 -16,-15 -15,-17 -12,-19 -10,-20 -8,-21 -4,-22 -2,-23 173,0z" />
<path style="fill:#e5e5e5" d="M248,129 l-77,133 -16,-11 -15,-14 -13,-15 -11,-16 -9,-18 -7,-19 -4,-20 -1,-20 153,0z" />
<path style="fill:#fff" d="M248,129 l-67,115 -14,-10 -13,-11 -11,-13 -10,-15 -8,-15 -5,-16 -4,-18 -1,-17 133,0z" />
<path style="fill:#e5e5e5" d="M248,129 l-52,90 -11,-8 -11,-8 -9,-11 -7,-11 -6,-12 -4,-13 -3,-13 -1,-14 104,0z" />
<path style="fill:#ccc" d="M248,129 l-42,73 -9,-6 -9,-8 -7,-8 -6,-9 -5,-10 -3,-10 -2,-11 -1,-11 84,0z" />
<path style="fill:#b2b2b2" d="M248,129 l-32,56 -7,-5 -6,-6 -6,-6 -4,-7 -4,-7 -3,-8 -1,-8 -1,-9 64,0z" />
<path style="fill:#999" d="M248,129 l-20,34 -4,-3 -4,-3 -4,-4 -2,-4 -3,-5 -2,-5 -1,-5 0,-5 40,0z" />
<path style="fill:none;stroke:#000;stroke-width:2" d="M129,334 l-13,-8 -13,-9 -12,-10 -11,-11 -10,-11 -10,-12 -9,-13 -8,-13 -7,-13 -7,-14 -5,-15 -5,-14 -3,-15 -3,-16 -1,-15 -1,-16" />
<path style="fill:#7f7f7f" d="M248,129 l-8,13 -3,-3 -2,-3 -1,-3 -1,-4 15,0z" />
<path style="fill:#7f7f7f" d="M232,393 l-103,-59 119,-205 102,59 -118,205z" />
<path style="fill:#999" d="M239,380 l-102,-59 104,-180 102,59 -104,180z" />
<path style="fill:#b2b2b2" d="M252,358 l-103,-59 79,-136 102,59 -78,136z" />
<path style="fill:#ccc" d="M264,337 l-103,-59 55,-94 102,59 -54,94z" />
<path style="fill:#e5e5e5" d="M273,321 l-102,-59 35,-61 102,59 -35,61z" />
<path style="fill:#fff" d="M284,303 l-103,-59 15,-25 102,59 -14,25z" />
<path style="fill:none;stroke:#000;stroke-width:2" d="M350,188 l-102,-59" />
<path style="fill:none;stroke:#000;stroke-width:2" d="M129,334 l103,59" />

</svg>
