

<svg xmlns:agg="http://www.example.com" xmlns="http://www.w3.org/2000/svg" preserveAspectRatio="none" width="1.6835in" height="1.4792in" viewBox="0 0 379 333">

<path style="fill:#7f7f7f" d="M135,323 l-125,0 0,-251 125,0 0,251z" />
<path style="fill:#999" d="M135,307 l-125,0 0,-219 125,0 0,219z" />
<path style="fill:#b2b2b2" d="M135,281 l-125,0 0,-167 125,0 0,167z" />
<path style="fill:#ccc" d="M135,255 l-125,0 0,-115 125,0 0,115z" />
<path style="fill:#e5e5e5" d="M135,235 l-125,0 0,-74 125,0 0,74z" />
<path style="fill:#fff" d="M135,213 l-125,0 0,-31 125,0 0,31z" />
<path style="fill:none;stroke:#000;stroke-width:2" d="M135,72 l-125,0" />
<path style="fill:none;stroke:#000;stroke-width:2" d="M10,323 l125,0" />
<path style="fill:#7f7f7f" d="M135,73 l125,217 -14,7 -15,7 -15,6 -16,4 -16,4 -17,3 -16,1 -16,1 0,-250z" />
<path style="fill:#999" d="M135,73 l117,203 -13,7 -14,6 -15,6 -15,4 -15,3 -15,3 -15,1 -15,1 0,-234z" />
<path style="fill:#b2b2b2" d="M135,73 l104,180 -12,6 -12,6 -13,5 -13,4 -13,3 -14,2 -13,2 -14,0 0,-208z" />
<path style="fill:#ccc" d="M135,73 l91,158 -10,6 -11,4 -11,5 -12,3 -12,3 -11,1 -12,2 -12,0 0,-182z" />
<path style="fill:#e5e5e5" d="M135,73 l81,140 -9,5 -10,4 -10,4 -10,3 -10,2 -11,2 -10,1 -11,0 0,-161z" />
<path style="fill:#fff" d="M135,73 l70,122 -8,4 -8,4 -9,3 -8,2 -10,2 -9,2 -9,1 -9,0 0,-140z" />
<path style="fill:#e5e5e5" d="M135,73 l55,95 -6,3 -7,3 -7,2 -7,2 -7,2 -7,1 -7,1 -7,0 0,-109z" />
<path style="fill:#ccc" d="M135,73 l44,76 -5,3 -5,2 -6,2 -5,2 -6,1 -6,1 -5,1 -6,0 0,-88z" />
<path style="fill:#b2b2b2" d="M135,73 l34,58 -4,2 -4,2 -4,1 -4,2 -5,1 -4,0 -5,1 -4,0 0,-67z" />
<path style="fill:#999" d="M135,73 l21,36 -5,2 -5,2 -6,1 -5,0 0,-41z" />
<path style="fill:#7f7f7f" d="M135,73 l8,13 -2,1 -2,1 -2,0 -2,0 0,-15z" />
<path style="fill:#7f7f7f" d="M369,227 l-109,63 -125,-217 108,-63 126,217z" />
<path style="fill:#999" d="M361,214 l-108,62 -110,-190 108,-63 110,191z" />
<path style="fill:#b2b2b2" d="M347,190 l-108,63 -83,-144 108,-63 83,144z" />
<path style="fill:#ccc" d="M335,168 l-109,63 -57,-100 108,-62 58,99z" />
<path style="fill:#e5e5e5" d="M324,151 l-108,62 -37,-64 109,-62 36,64z" />
<path style="fill:#fff" d="M314,132 l-109,62 -15,-26 108,-63 16,27z" />
<path style="fill:none;stroke:#000;stroke-width:2" d="M243,10 l-108,63" />
<path style="fill:none;stroke:#000;stroke-width:2" d="M260,290 l109,-63" />
<path style="fill:none;stroke:#000;stroke-width:2" d="M260,290 l-14,7 -15,7 -15,6 -16,4 -16,4 -17,3 -16,1 -16,1" />

</svg>
