 

<svg xmlns:agg="http://www.example.com" xmlns="http://www.w3.org/2000/svg" preserveAspectRatio="none" width="1.0793in" height="1.0750in" viewBox="0 0 999 995">

<path style="fill:#7f7f7f" d="M46,766 l371,-368 185,185 -371,369 -185,-186z" />
<path style="fill:none;stroke:#000;stroke-width:2" d="M417,398 l-371,368" />
<path style="fill:none;stroke:#000;stroke-width:2" d="M602,583 l-371,369" />
<path style="fill:#ccc;stroke:#000;stroke-width:2" d="M43,736 l-16,15 216,216 15,-15 -215,-216z" />
<path style="fill:#ccc;stroke:#000;stroke-width:2" d="M73,704 l-15,15 215,216 15,-16 -215,-215z" />
<path style="fill:#ccc;stroke:#000;stroke-width:2" d="M103,674 l-15,15 215,215 15,-15 -215,-215z" />
<path style="fill:#ccc;stroke:#000;stroke-width:2" d="M135,644 l-17,15 215,215 17,-15 -215,-215z" />
<path style="fill:#ccc;stroke:#000;stroke-width:2" d="M165,611 l-15,18 216,215 15,-17 -216,-216z" />
<path style="fill:#ccc;stroke:#000;stroke-width:2" d="M196,581 l-15,15 215,216 15,-16 -215,-215z" />
<path style="fill:#ccc;stroke:#000;stroke-width:2" d="M226,551 l-15,15 215,215 15,-15 -215,-215z" />
<path style="fill:#ccc;stroke:#000;stroke-width:2" d="M258,521 l-15,15 215,215 15,-15 -215,-215z" />
<path style="fill:#ccc;stroke:#000;stroke-width:2" d="M288,489 l-15,15 216,215 15,-15 -216,-215z" />
<path style="fill:#ccc;stroke:#000;stroke-width:2" d="M318,458 l-15,15 216,216 15,-15 -216,-216z" />
<path style="fill:#ccc;stroke:#000;stroke-width:2" d="M350,428 l-17,15 216,216 17,-15 -216,-216z" />
<path style="fill:#ccc;stroke:#000;stroke-width:2" d="M381,396 l-15,17 215,216 15,-18 -215,-215z" />
<path style="fill:#7f7f7f" d="M417,398 l368,-371 186,186 -369,370 -185,-185z" />
<path style="fill:none;stroke:#000;stroke-width:2" d="M785,27 l-368,371" />
<path style="fill:none;stroke:#000;stroke-width:2" d="M971,213 l-369,370" />
<path style="fill:#ccc;stroke:#000;stroke-width:2" d="M411,366 l-15,15 215,215 16,-15 -216,-215z" />
<path style="fill:#ccc;stroke:#000;stroke-width:2" d="M443,335 l-17,15 216,216 17,-15 -216,-216z" />
<path style="fill:#ccc;stroke:#000;stroke-width:2" d="M473,303 l-15,17 216,216 15,-17 -216,-216z" />
<path style="fill:#ccc;stroke:#000;stroke-width:2" d="M504,273 l-15,15 215,216 15,-15 -215,-216z" />
<path style="fill:#ccc;stroke:#000;stroke-width:2" d="M534,243 l-15,15 215,215 16,-15 -216,-215z" />
<path style="fill:#ccc;stroke:#000;stroke-width:2" d="M566,213 l-15,15 215,215 15,-15 -215,-215z" />
<path style="fill:#ccc;stroke:#000;stroke-width:2" d="M596,181 l-15,15 215,215 16,-15 -216,-215z" />
<path style="fill:#ccc;stroke:#000;stroke-width:2" d="M627,150 l-16,15 216,216 15,-15 -215,-216z" />
<path style="fill:#ccc;stroke:#000;stroke-width:2" d="M659,120 l-17,15 215,215 17,-15 -215,-215z" />
<path style="fill:#ccc;stroke:#000;stroke-width:2" d="M689,88 l-15,17 215,215 15,-17 -215,-215z" />
<path style="fill:#ccc;stroke:#000;stroke-width:2" d="M719,58 l-15,15 215,215 16,-15 -216,-215z" />
<path style="fill:#ccc;stroke:#000;stroke-width:2" d="M750,27 l-16,16 216,215 15,-15 -215,-216z" />

</svg>
