 

<svg xmlns:agg="http://www.example.com" xmlns="http://www.w3.org/2000/svg" preserveAspectRatio="none" width="1.1152in" height="1.0750in" viewBox="0 0 999 963">

<path style="fill:#7f7f7f" d="M54,871 l32,-1 32,-1 32,-2 32,-3 32,-4 31,-5 32,-5 31,-7 32,-6 31,-9 31,-8 30,-9 31,-11 30,-10 30,-12 29,-12 30,-13 29,-14 28,-14 29,-15 27,-16 28,-16 27,-18 27,-17 26,-19 25,-18 25,-20 25,-20 24,-20 23,-22 23,-22 22,-22 -454,-450 -22,23 -24,22 -25,20 -26,20 -27,18 -28,17 -28,15 -30,14 -30,12 -30,11 -31,9 -32,8 -32,6 -32,5 -33,2 -16,1 -16,0 0,638z" />
<path style="fill:none;stroke:#000;stroke-width:2" d="M516,30 l-22,23 -24,22 -25,20 -26,20 -27,18 -28,17 -28,15 -30,14 -30,12 -30,11 -31,9 -32,8 -32,6 -32,5 -33,2 -16,1 -16,0" />
<path style="fill:none;stroke:#000;stroke-width:2" d="M54,871 l32,-1 32,-1 32,-2 32,-3 32,-4 31,-5 32,-5 31,-7 32,-6 31,-9 31,-8 30,-9 31,-11 30,-10 30,-12 29,-12 30,-13 29,-14 28,-14 29,-15 27,-16 28,-16 27,-18 27,-17 26,-19 25,-18 25,-20 25,-20 24,-20 23,-22 23,-22 22,-22" />
<path style="fill:#ccc;stroke:#000;stroke-width:2" d="M28,935 l52,0 0,-738 -52,0 0,738z" />
<path style="fill:#ccc;stroke:#000;stroke-width:2" d="M142,190 l-52,5 77,734 53,-6 -78,-733z" />
<path style="fill:#ccc;stroke:#000;stroke-width:2" d="M203,176 l-51,12 153,722 53,-9 -155,-725z" />
<path style="fill:#ccc;stroke:#000;stroke-width:2" d="M263,159 l-51,16 228,703 51,-17 -228,-702z" />
<path style="fill:#ccc;stroke:#000;stroke-width:2" d="M320,135 l-49,21 300,675 49,-21 -300,-675z" />
<path style="fill:#ccc;stroke:#000;stroke-width:2" d="M373,105 l-46,26 370,639 45,-26 -369,-639z" />
<path style="fill:#ccc;stroke:#000;stroke-width:2" d="M423,69 l-43,30 434,598 43,-30 -434,-598z" />
<path style="fill:#ccc;stroke:#000;stroke-width:2" d="M471,28 l-40,35 494,549 38,-35 -492,-549z" />

</svg>
