

<svg xmlns:agg="http://www.example.com" xmlns="http://www.w3.org/2000/svg" preserveAspectRatio="none" width="1.0290in" height="1.4792in" viewBox="0 0 695 999">

<path style="fill:#7f7f7f" d="M28,887 l496,-859 143,83 -496,859 -143,-83z" />
<path style="fill:#999" d="M35,893 l498,-860 124,72 -495,860 -127,-72z" />
<path style="fill:#b2b2b2" d="M50,902 l498,-861 94,57 -495,859 -97,-55z" />
<path style="fill:#ccc" d="M65,910 l498,-860 64,38 -496,860 -66,-38z" />
<path style="fill:#e5e5e5" d="M77,917 l497,-861 42,25 -496,859 -43,-23z" />
<path style="fill:#fff" d="M90,923 l496,-859 19,11 -498,859 -17,-11z" />
<path style="fill:none;stroke:#000;stroke-width:2" d="M171,970 l496,-859" />
<path style="fill:none;stroke:#000;stroke-width:2" d="M524,28 l-496,859" />

</svg>
