 

<svg xmlns:agg="http://www.example.com" xmlns="http://www.w3.org/2000/svg" preserveAspectRatio="none" width="1.0750in" height="1.0750in" viewBox="0 0 999 999">

<path style="fill:#7f7f7f;stroke:#000;stroke-width:2" d="M68,28 l452,0 2,46 7,45 11,43 15,41 19,40 22,36 26,35 30,32 32,30 35,26 37,22 39,19 42,15 42,11 45,7 23,2 23,0 0,452 -46,-1 -46,-4 -45,-6 -44,-8 -44,-10 -43,-12 -42,-14 -41,-17 -40,-18 -38,-20 -38,-22 -37,-23 -35,-25 -34,-27 -33,-29 -31,-29 -30,-32 -28,-32 -27,-35 -25,-35 -24,-37 -22,-38 -20,-39 -18,-39 -16,-41 -14,-42 -12,-43 -10,-43 -8,-45 -6,-45 -4,-45 -1,-46z" />
<path style="fill:#ccc;stroke:#000;stroke-width:2" d="M554,90 l-5,-39 -521,56 4,37 522,-54z" />
<path style="fill:#ccc;stroke:#000;stroke-width:2" d="M562,133 l-8,-37 -515,108 8,37 515,-108z" />
<path style="fill:#ccc;stroke:#000;stroke-width:2" d="M576,173 l-12,-34 -501,163 11,35 502,-164z" />
<path style="fill:#ccc;stroke:#000;stroke-width:2" d="M593,214 l-15,-35 -480,216 15,33 480,-214z" />
<path style="fill:#ccc;stroke:#000;stroke-width:2" d="M615,253 l-20,-33 -455,263 18,32 457,-262z" />
<path style="fill:#ccc;stroke:#000;stroke-width:2" d="M640,288 l-24,-29 -423,309 21,29 426,-309z" />
<path style="fill:#ccc;stroke:#000;stroke-width:2" d="M669,321 l-25,-27 -391,352 25,27 391,-352z" />
<path style="fill:#ccc;stroke:#000;stroke-width:2" d="M700,352 l-27,-25 -352,391 27,25 352,-391z" />
<path style="fill:#ccc;stroke:#000;stroke-width:2" d="M737,378 l-31,-22 -309,426 31,21 309,-425z" />
<path style="fill:#ccc;stroke:#000;stroke-width:2" d="M774,401 l-33,-19 -263,454 34,20 262,-455z" />
<path style="fill:#ccc;stroke:#000;stroke-width:2" d="M815,418 l-35,-15 -214,480 35,16 214,-481z" />
<path style="fill:#ccc;stroke:#000;stroke-width:2" d="M856,432 l-35,-12 -164,502 35,11 164,-501z" />
<path style="fill:#ccc;stroke:#000;stroke-width:2" d="M899,441 l-37,-7 -109,515 37,8 109,-516z" />
<path style="fill:#ccc;stroke:#000;stroke-width:2" d="M943,447 l-39,-3 -54,522 37,4 56,-523z" />

</svg>
