 
<svg version="1.1" id="_x30_" xmlns:agg="http://www.example.com"
	 xmlns="http://www.w3.org/2000/svg" preserveAspectRatio="none"   x="0px" y="0px" 
	  viewBox="0 -23.666 62.84 89.903" enable-background="new 0 -23.666 62.84 89.903" xml:space="preserve">
	 
<agg:params>
	<agg:param name="color" description="Color" type="C" cssAttributes="fill" classes="color"/>
	<agg:param type="F" name="saturation" description="Saturation" min="0" max="1" cssAttributes="opacity" classes="color"/>
</agg:params>

<style type="text/css" >
   <![CDATA[

	.stroke{
		stroke-width:0.3;
		stroke-linecap:round;
		stroke-linejoin:round;
		stroke: black;
		fill:none;
	}
	
	.color {
		fill:#3664BF;
		opacity:0.2;
	}

      ]]>
</style>

<linearGradient id="horizontal" gradientUnits="userSpaceOnUse" x1="0" y1="8.2637" x2="0" y2="35.4219">
	<stop  offset="0" style="stop-color:#4D5C75"/>
	<stop  offset="0.0313" style="stop-color:#616F85"/>
	<stop  offset="0.1108" style="stop-color:#8E99A9"/>
	<stop  offset="0.1908" style="stop-color:#B4BCC7"/>
	<stop  offset="0.27" style="stop-color:#D1D7DE"/>
	<stop  offset="0.3485" style="stop-color:#E5EAEF"/>
	<stop  offset="0.4256" style="stop-color:#F2F6F9"/>
	<stop  offset="0.5" style="stop-color:#F6FAFC"/>
	<stop  offset="0.5744" style="stop-color:#F2F6F9"/>
	<stop  offset="0.6515" style="stop-color:#E5EAEF"/>
	<stop  offset="0.73" style="stop-color:#D1D7DE"/>
	<stop  offset="0.8092" style="stop-color:#B4BCC7"/>
	<stop  offset="0.8892" style="stop-color:#8E99A9"/>
	<stop  offset="0.9687" style="stop-color:#616F85"/>
	<stop  offset="1" style="stop-color:#4D5C75"/>
</linearGradient>

<path fill="url(#horizontal)" d="M60.306,8.318v27.351H1.416V8.318h10.104l5.612,13.544l0.021,0.051l0.016,0.042 c0.006,0.014,0.011,0.025,0.017,0.035L50.199,8.318h0.004H60.306z"/>
	
<linearGradient id="diagonal" gradientUnits="userSpaceOnUse" x1="25.0139" y1="-5.2336" x2="44.1615" y2="14.4943">
	<stop  offset="0" style="stop-color:#4D5C75"/>
	<stop  offset="0.0313" style="stop-color:#616F85"/>
	<stop  offset="0.1108" style="stop-color:#8E99A9"/>
	<stop  offset="0.1908" style="stop-color:#B4BCC7"/>
	<stop  offset="0.27" style="stop-color:#D1D7DE"/>
	<stop  offset="0.3485" style="stop-color:#E5EAEF"/>
	<stop  offset="0.4256" style="stop-color:#F2F6F9"/>
	<stop  offset="0.5" style="stop-color:#F6FAFC"/>
	<stop  offset="0.5744" style="stop-color:#F2F6F9"/>
	<stop  offset="0.6515" style="stop-color:#E5EAEF"/>
	<stop  offset="0.73" style="stop-color:#D1D7DE"/>
	<stop  offset="0.8092" style="stop-color:#B4BCC7"/>
	<stop  offset="0.8892" style="stop-color:#8E99A9"/>
	<stop  offset="0.9687" style="stop-color:#616F85"/>
	<stop  offset="1" style="stop-color:#4D5C75"/>
</linearGradient>

<polygon fill="url(#diagonal)" points="61.424,-2.908 50.203,8.318 50.199,8.318 17.167,21.956 17.152,21.914 17.132,21.863 11.519,8.318 42.082,-22.25"/>

<path class="color" d="M61.424-2.908L42.082-22.25L11.519,8.318H1.416v27.351h58.892 V8.318H50.203L61.424-2.908z"/>

<g class="stroke">
	<polyline points="50.203,8.318 61.424,-2.908 42.082,-22.25 11.519,8.318 1.416,8.318 1.416,35.669 60.306,35.669 60.306,8.318 50.203,8.318"/>
	<path d="M50.203,8.318h-0.004L17.183,21.99c-0.007-0.01-5.664-13.672-5.664-13.672"/>
</g>

</svg>
