 

<svg xmlns:agg="http://www.example.com" xmlns="http://www.w3.org/2000/svg" preserveAspectRatio="none" width="0.7317in" height="1.0750in" viewBox="0 0 680 999">

<path style="fill:#7f7f7f;stroke:#000;stroke-width:2" d="M570,52 l38,0 0,129 -38,0 0,-129z" />
<path style="fill:#7f7f7f;stroke:#000;stroke-width:2" d="M72,52 l39,0 0,129 -39,0 0,-129z" />
<path style="fill:#999" d="M570,60 l38,0 0,113 -38,0 0,-113z" />
<path style="fill:#999" d="M72,60 l39,0 0,113 -39,0 0,-113z" />
<path style="fill:#b2b2b2" d="M570,73 l38,0 0,86 -38,0 0,-86z" />
<path style="fill:#b2b2b2" d="M72,73 l39,0 0,86 -39,0 0,-86z" />
<path style="fill:#ccc" d="M570,87 l38,0 0,59 -38,0 0,-59z" />
<path style="fill:#ccc" d="M72,87 l39,0 0,59 -39,0 0,-59z" />
<path style="fill:#e5e5e5" d="M570,97 l38,0 0,38 -38,0 0,-38z" />
<path style="fill:#e5e5e5" d="M72,97 l39,0 0,38 -39,0 0,-38z" />
<path style="fill:#fff" d="M570,109 l38,0 0,15 -38,0 0,-15z" />
<path style="fill:#fff" d="M72,109 l39,0 0,15 -39,0 0,-15z" />
<path style="fill:#7f7f7f;stroke:#000;stroke-width:2" d="M607,64 l-15,-3 0,-22 15,-4 0,29z" />
<path style="fill:#7f7f7f;stroke:#000;stroke-width:2" d="M607,131 l-15,-3 0,-23 15,-3 0,29z" />
<path style="fill:#7f7f7f;stroke:#000;stroke-width:2" d="M607,197 l-15,-3 0,-22 15,-4 0,29z" />
<path style="fill:#7f7f7f;stroke:#000;stroke-width:2" d="M72,64 l15,-3 0,-22 -15,-4 0,29z" />
<path style="fill:#7f7f7f;stroke:#000;stroke-width:2" d="M72,131 l15,-3 0,-23 -15,-3 0,29z" />
<path style="fill:#7f7f7f;stroke:#000;stroke-width:2" d="M72,197 l15,-3 0,-22 -15,-4 0,29z" />
<path style="fill:#b2b2b2;stroke:#000;stroke-width:2" d="M607,59 l-15,-2 0,-18 15,-4 0,24z" />
<path style="fill:#b2b2b2;stroke:#000;stroke-width:2" d="M607,125 l-15,-1 0,-19 15,-3 0,23z" />
<path style="fill:#b2b2b2;stroke:#000;stroke-width:2" d="M607,192 l-15,-2 0,-18 15,-4 0,24z" />
<path style="fill:#b2b2b2;stroke:#000;stroke-width:2" d="M72,59 l15,-2 0,-18 -15,-4 0,24z" />
<path style="fill:#b2b2b2;stroke:#000;stroke-width:2" d="M72,125 l15,-1 0,-19 -15,-3 0,23z" />
<path style="fill:#b2b2b2;stroke:#000;stroke-width:2" d="M72,192 l15,-2 0,-18 -15,-4 0,24z" />
<path style="fill:#e5e5e5;stroke:#000;stroke-width:2" d="M592,43 l0,-4 15,-4 0,6 -15,2z" />
<path style="fill:#e5e5e5;stroke:#000;stroke-width:2" d="M592,109 l0,-4 15,-3 0,5 -15,2z" />
<path style="fill:#e5e5e5;stroke:#000;stroke-width:2" d="M592,175 l0,-3 15,-4 0,5 -15,2z" />
<path style="fill:#e5e5e5;stroke:#000;stroke-width:2" d="M87,43 l0,-4 -15,-4 0,6 15,2z" />
<path style="fill:#e5e5e5;stroke:#000;stroke-width:2" d="M87,109 l0,-4 -15,-3 0,5 15,2z" />
<path style="fill:#e5e5e5;stroke:#000;stroke-width:2" d="M87,175 l0,-3 -15,-4 0,5 15,2z" />
<path style="fill:#7f7f7f" d="M607,28 l45,0 0,177 -45,0 0,-177z" />
<path style="fill:#7f7f7f" d="M72,28 l-44,0 0,177 44,0 0,-177z" />
<path style="fill:#999" d="M607,39 l45,0 0,155 -45,0 0,-155z" />
<path style="fill:#999" d="M72,39 l-44,0 0,155 44,0 0,-155z" />
<path style="fill:#b2b2b2" d="M607,58 l45,0 0,117 -45,0 0,-117z" />
<path style="fill:#b2b2b2" d="M72,58 l-44,0 0,117 44,0 0,-117z" />
<path style="fill:#ccc" d="M607,76 l45,0 0,81 -45,0 0,-81z" />
<path style="fill:#ccc" d="M72,76 l-44,0 0,81 44,0 0,-81z" />
<path style="fill:#e5e5e5" d="M607,90 l45,0 0,52 -45,0 0,-52z" />
<path style="fill:#e5e5e5" d="M72,90 l-44,0 0,52 44,0 0,-52z" />
<path style="fill:#fff" d="M607,105 l45,0 0,22 -45,0 0,-22z" />
<path style="fill:#fff" d="M72,105 l-44,0 0,22 44,0 0,-22z" />
<path style="fill:#7f7f7f" d="M543,767 l-126,0 -6,29 -17,25 -24,16 -30,7 -30,-7 -24,-16 -17,-25 -5,-21 -1,-8 -126,0 2,31 7,29 11,28 14,25 18,23 22,20 24,18 26,13 28,10 30,5 11,1 10,0 10,0 31,-4 29,-8 27,-12 25,-16 22,-20 19,-22 16,-25 12,-27 8,-29 4,-30 0,-10z" />
<path style="fill:#7f7f7f" d="M417,204 l1,-15 2,-15 4,-15 5,-14 6,-13 8,-13 9,-12 10,-10 10,-11 12,-8 13,-8 13,-6 14,-5 15,-4 15,-3 16,0 0,127 -10,2 -8,5 -6,9 -2,9 -127,0z" />
<path style="fill:#7f7f7f" d="M264,204 l-1,-15 -2,-15 -4,-15 -5,-14 -7,-13 -8,-13 -8,-12 -10,-10 -11,-11 -12,-8 -12,-8 -14,-6 -14,-5 -14,-4 -15,-3 -16,0 0,127 10,2 8,5 6,9 1,9 128,0z" />
<path style="fill:#999" d="M533,767 l-20,0 -6,-1 -7,0 -46,0 -26,1 -7,34 -13,21 -26,22 -24,8 -36,0 -24,-8 -26,-22 -13,-21 -6,-25 -1,-9 -32,-1 -46,0 -20,1 -6,0 1,19 8,38 14,34 21,31 26,26 30,21 35,15 37,7 20,1 20,-1 37,-7 35,-15 31,-21 26,-26 20,-31 15,-34 8,-38 1,-19z" />
<path style="fill:#999" d="M428,204 l1,-14 2,-14 3,-14 5,-13 6,-12 7,-12 8,-11 10,-10 10,-9 11,-8 11,-7 13,-6 13,-5 14,-4 14,-2 14,0 0,6 0,99 -14,3 -12,8 -8,11 -2,7 -1,7 -6,0 -92,0 -7,0z" />
<path style="fill:#999" d="M252,204 l0,-14 -2,-14 -4,-14 -5,-13 -6,-12 -7,-12 -8,-11 -9,-10 -10,-9 -11,-8 -12,-7 -12,-6 -13,-5 -14,-4 -14,-2 -14,0 0,6 0,99 14,3 12,8 8,11 2,7 0,7 7,0 92,0 6,0z" />
<path style="fill:#b2b2b2" d="M241,204 l0,-13 -3,-13 -3,-12 -4,-12 -6,-11 -6,-11 -8,-10 -8,-9 -10,-9 -10,-8 -10,-6 -12,-6 -12,-4 -12,-3 -13,-2 -13,-1 0,5 0,78 9,1 9,3 8,4 8,6 5,7 5,8 3,9 1,9 5,0 72,0 5,0z" />
<path style="fill:#b2b2b2" d="M439,204 l1,-13 2,-13 3,-12 5,-12 5,-11 7,-11 7,-10 9,-9 9,-9 10,-8 11,-6 12,-6 11,-4 13,-3 13,-2 13,-1 0,5 0,78 -9,1 -10,3 -8,4 -7,6 -6,7 -4,8 -3,9 -1,9 -5,0 -73,0 -5,0z" />
<path style="fill:#b2b2b2" d="M522,767 l-16,0 -5,-1 -5,0 -36,0 -21,1 -5,29 -12,26 -19,21 -24,15 -29,7 -30,-2 -27,-10 -23,-17 -17,-22 -10,-27 -2,-20 -30,-1 -31,0 -16,1 -5,0 1,18 7,36 13,32 20,29 25,25 29,19 32,14 36,7 18,1 18,-1 36,-7 32,-14 30,-19 24,-25 20,-29 13,-32 8,-36 1,-18z" />
<path style="fill:#ccc" d="M511,767 l-12,0 -3,-1 -4,0 -30,1 -12,0 -5,32 -14,29 -21,23 -27,17 -32,8 -33,-2 -30,-11 -25,-19 -19,-25 -11,-30 -3,-22 -30,-1 -26,1 -4,0 1,17 6,33 13,31 19,27 23,23 27,18 31,14 33,6 17,1 18,-1 33,-6 30,-14 27,-18 24,-23 18,-27 13,-31 7,-33 1,-17z" />
<path style="fill:#ccc" d="M450,204 l1,-12 2,-12 3,-11 4,-11 5,-10 6,-10 7,-9 8,-9 8,-7 9,-8 10,-5 11,-6 11,-4 11,-3 12,-1 12,-1 0,4 0,57 -12,1 -11,3 -10,6 -9,7 -7,9 -5,10 -4,11 -1,6 0,5 -4,0 -53,0 -4,0z" />
<path style="fill:#ccc" d="M230,204 l-1,-12 -1,-12 -3,-11 -4,-11 -6,-10 -5,-10 -7,-9 -8,-9 -9,-7 -9,-8 -10,-5 -10,-6 -11,-4 -11,-3 -12,-1 -12,-1 0,4 0,57 12,1 11,3 9,6 9,7 7,9 6,10 3,11 1,6 0,5 4,0 53,0 4,0z" />
<path style="fill:#e5e5e5" d="M219,204 l-1,-11 -1,-10 -3,-10 -4,-10 -4,-10 -6,-9 -6,-8 -7,-8 -8,-7 -8,-6 -9,-6 -10,-4 -9,-4 -11,-3 -10,-1 -11,-1 0,39 14,1 13,4 12,7 10,8 9,10 6,12 4,13 2,14 38,0z" />
<path style="fill:#e5e5e5" d="M462,204 l0,-11 2,-10 3,-10 3,-10 5,-10 5,-9 7,-8 7,-8 7,-7 9,-6 9,-6 9,-4 10,-4 10,-3 11,-1 11,-1 0,39 -14,1 -13,4 -12,7 -11,8 -8,10 -7,12 -4,13 -1,14 -38,0z" />
<path style="fill:#e5e5e5" d="M500,767 l-5,0 -5,-1 -4,0 -25,1 -5,35 -16,32 -23,26 -30,18 -35,9 -36,-2 -34,-12 -27,-21 -21,-28 -12,-33 -3,-24 -28,-1 -5,1 -5,0 1,16 6,31 12,29 17,25 22,21 25,18 29,12 31,6 16,1 16,-1 32,-6 28,-12 26,-18 21,-21 18,-25 12,-29 6,-31 1,-16z" />
<path style="fill:#fff" d="M489,767 l-17,0 -6,39 -10,23 -23,31 -30,23 -24,10 -25,5 -41,-2 -24,-8 -23,-12 -28,-25 -14,-22 -10,-23 -5,-26 -1,-13 -16,0 3,30 8,28 14,25 18,22 22,18 25,14 28,8 15,3 15,1 15,-1 29,-6 27,-12 23,-15 21,-21 16,-24 11,-26 6,-29 1,-15z" />
<path style="fill:#fff" d="M473,204 l0,-9 2,-10 2,-9 3,-9 5,-8 5,-8 5,-8 6,-7 7,-6 8,-6 8,-5 8,-4 9,-3 9,-3 10,-1 10,-1 0,16 -16,2 -16,5 -14,7 -12,10 -9,12 -8,14 -5,15 -1,16 -16,0z" />
<path style="fill:#fff" d="M208,204 l-1,-9 -1,-10 -3,-9 -3,-9 -4,-8 -5,-8 -6,-8 -6,-7 -7,-6 -7,-6 -8,-5 -9,-4 -9,-3 -9,-3 -9,-1 -10,-1 0,16 16,2 15,5 14,7 12,10 10,12 7,14 5,15 2,16 16,0z" />
<path style="fill:none;stroke:#000;stroke-width:2" d="M543,766 l-2,31 -7,30 -11,28 -15,25 -18,23 -21,20 -24,17 -26,14 -28,10 -30,5 -11,1 -10,0 -10,0 -31,-4 -29,-8 -27,-13 -25,-15 -22,-20 -19,-22 -16,-25 -12,-27 -8,-29 -4,-30 -1,-11" />
<path style="fill:none;stroke:#000;stroke-width:2" d="M417,766 l-2,16 -4,14 -7,13 -10,12 -11,9 -13,7 -15,5 -15,1 -15,-1 -15,-5 -13,-7 -11,-9 -10,-12 -7,-13 -4,-14 -2,-16" />
<path style="fill:none;stroke:#000;stroke-width:2" d="M417,204 l1,-15 2,-15 4,-15 5,-14 6,-13 8,-13 9,-12 10,-10 10,-11 12,-8 13,-8 13,-6 14,-5 15,-4 15,-3 16,0" />
<path style="fill:none;stroke:#000;stroke-width:2" d="M544,204 l1,-5 1,-4 3,-5 3,-4 4,-3 4,-2 5,-1 5,-1" />
<path style="fill:none;stroke:#000;stroke-width:2" d="M264,204 l-1,-15 -2,-15 -4,-15 -5,-14 -7,-13 -8,-13 -8,-12 -10,-10 -11,-11 -12,-8 -12,-8 -14,-6 -14,-5 -14,-4 -15,-3 -16,0" />
<path style="fill:none;stroke:#000;stroke-width:2" d="M136,204 l0,-5 -1,-4 -3,-5 -3,-4 -4,-3 -4,-2 -5,-1 -5,-1" />
<path style="fill:#7f7f7f;stroke:#000;stroke-width:2" d="M407,769 l0,-569 149,0 0,569 -149,0z" />
<path style="fill:#7f7f7f;stroke:#000;stroke-width:2" d="M125,769 l0,-569 148,0 0,569 -148,0z" />
<path style="fill:#999" d="M417,769 l0,-569 130,0 0,569 -130,0z" />
<path style="fill:#999" d="M134,769 l0,-569 130,0 0,569 -130,0z" />
<path style="fill:#b2b2b2" d="M433,769 l0,-569 98,0 0,569 -98,0z" />
<path style="fill:#b2b2b2" d="M150,769 l0,-569 99,0 0,569 -99,0z" />
<path style="fill:#ccc" d="M448,769 l0,-569 68,0 0,569 -68,0z" />
<path style="fill:#ccc" d="M165,769 l0,-569 68,0 0,569 -68,0z" />
<path style="fill:#e5e5e5" d="M460,769 l0,-569 43,0 0,569 -43,0z" />
<path style="fill:#e5e5e5" d="M177,769 l0,-569 44,0 0,569 -44,0z" />
<path style="fill:#fff" d="M473,769 l0,-569 18,0 0,569 -18,0z" />
<path style="fill:#fff" d="M190,769 l0,-569 18,0 0,569 -18,0z" />
<path style="fill:#666;stroke:#000;stroke-width:2" d="M407,281 l149,0 0,407 -149,0 0,-407z" />
<path style="fill:#666;stroke:#000;stroke-width:2" d="M125,281 l148,0 0,407 -148,0 0,-407z" />
<path style="fill:#333" d="M135,291 l4,0 0,387 -4,0 0,-387z" />
<path style="fill:#333" d="M412,291 l5,0 0,387 -5,0 0,-387z" />
<path style="fill:#333" d="M154,291 l4,0 0,387 -4,0 0,-387z" />
<path style="fill:#333" d="M432,291 l4,0 0,387 -4,0 0,-387z" />
<path style="fill:#333" d="M173,291 l4,0 0,387 -4,0 0,-387z" />
<path style="fill:#333" d="M451,291 l4,0 0,387 -4,0 0,-387z" />
<path style="fill:#333" d="M192,291 l5,0 0,387 -5,0 0,-387z" />
<path style="fill:#333" d="M470,291 l4,0 0,387 -4,0 0,-387z" />
<path style="fill:#333" d="M216,291 l5,0 0,387 -5,0 0,-387z" />
<path style="fill:#333" d="M494,291 l4,0 0,387 -4,0 0,-387z" />
<path style="fill:#333" d="M240,291 l5,0 0,387 -5,0 0,-387z" />
<path style="fill:#333" d="M518,291 l4,0 0,387 -4,0 0,-387z" />
<path style="fill:#333" d="M264,291 l4,0 0,387 -4,0 0,-387z" />
<path style="fill:#333" d="M542,291 l4,0 0,387 -4,0 0,-387z" />
<path style="fill:none;stroke:#000;stroke-width:2" d="M607,28 l45,0 0,177 -45,0 0,-177" />
<path style="fill:none;stroke:#000;stroke-width:2" d="M72,28 l-44,0 0,177 44,0 0,-177" />

</svg>
