

<svg xmlns:agg="http://www.example.com" xmlns="http://www.w3.org/2000/svg" preserveAspectRatio="none" width="2.0104in" height="1.3986in" viewBox="0 0 999 695">

<path style="fill:#7f7f7f" d="M887,667 l-859,-496 83,-143 859,496 -83,143z" />
<path style="fill:#999" d="M893,659 l-860,-497 72,-125 860,496 -72,126z" />
<path style="fill:#b2b2b2" d="M902,644 l-861,-497 57,-95 859,496 -55,96z" />
<path style="fill:#ccc" d="M910,629 l-860,-498 38,-64 860,496 -38,66z" />
<path style="fill:#e5e5e5" d="M917,618 l-861,-498 25,-41 859,495 -23,44z" />
<path style="fill:#fff" d="M923,605 l-859,-496 11,-19 859,498 -11,17z" />
<path style="fill:none;stroke:#000;stroke-width:2" d="M970,524 l-859,-496" />
<path style="fill:none;stroke:#000;stroke-width:2" d="M28,171 l859,496" />

</svg>
