

<svg xmlns:agg="http://www.example.com" xmlns="http://www.w3.org/2000/svg" preserveAspectRatio="none" width="1.2996in" height="1.4792in" viewBox="0 0 333 379">

<path style="fill:#7f7f7f" d="M10,244 l0,125 251,0 0,-125 -251,0z" />
<path style="fill:#999" d="M26,244 l0,125 219,0 0,-125 -219,0z" />
<path style="fill:#b2b2b2" d="M52,244 l0,125 167,0 0,-125 -167,0z" />
<path style="fill:#ccc" d="M78,244 l0,125 115,0 0,-125 -115,0z" />
<path style="fill:#e5e5e5" d="M98,244 l0,125 74,0 0,-125 -74,0z" />
<path style="fill:#fff" d="M120,244 l0,125 31,0 0,-125 -31,0z" />
<path style="fill:none;stroke:#000;stroke-width:2" d="M261,244 l0,125" />
<path style="fill:none;stroke:#000;stroke-width:2" d="M10,369 l0,-125" />
<path style="fill:#7f7f7f" d="M260,244 l-217,-125 -7,14 -7,15 -6,15 -4,16 -4,16 -3,17 -1,16 -1,16 250,0z" />
<path style="fill:#999" d="M260,244 l-203,-117 -7,13 -6,14 -6,14 -4,15 -3,15 -3,15 -1,16 -1,15 234,0z" />
<path style="fill:#b2b2b2" d="M260,244 l-180,-104 -6,12 -6,12 -5,13 -4,13 -3,13 -2,14 -2,13 0,14 208,0z" />
<path style="fill:#ccc" d="M260,244 l-158,-91 -6,10 -4,11 -5,11 -3,12 -3,11 -1,12 -2,12 0,12 182,0z" />
<path style="fill:#e5e5e5" d="M260,244 l-140,-81 -5,9 -4,10 -4,10 -3,10 -2,10 -2,11 -1,10 0,11 161,0z" />
<path style="fill:#fff" d="M260,244 l-122,-71 -4,8 -4,9 -3,8 -2,9 -2,10 -2,9 -1,9 0,9 140,0z" />
<path style="fill:#e5e5e5" d="M260,244 l-95,-55 -3,6 -3,7 -2,6 -2,7 -2,7 -1,8 -1,7 0,7 109,0z" />
<path style="fill:#ccc" d="M260,244 l-76,-45 -3,5 -2,6 -2,5 -2,6 -1,6 -1,6 -1,5 0,6 88,0z" />
<path style="fill:#b2b2b2" d="M260,244 l-58,-34 -2,4 -2,4 -1,4 -2,4 -1,5 0,4 -1,5 0,4 67,0z" />
<path style="fill:#999" d="M260,244 l-36,-21 -2,5 -2,5 -1,6 0,5 41,0z" />
<path style="fill:#7f7f7f" d="M260,244 l-13,-8 -1,2 -1,2 0,2 0,2 15,0z" />
<path style="fill:#7f7f7f" d="M106,10 l-63,109 217,125 63,-109 -217,-125z" />
<path style="fill:#999" d="M119,18 l-62,108 190,110 63,-108 -191,-110z" />
<path style="fill:#b2b2b2" d="M143,31 l-63,109 144,83 63,-108 -144,-84z" />
<path style="fill:#ccc" d="M165,44 l-63,108 100,58 62,-108 -99,-58z" />
<path style="fill:#e5e5e5" d="M182,54 l-62,109 64,36 62,-108 -64,-37z" />
<path style="fill:#fff" d="M201,65 l-62,108 26,16 63,-108 -27,-16z" />
<path style="fill:none;stroke:#000;stroke-width:2" d="M323,135 l-63,109" />
<path style="fill:none;stroke:#000;stroke-width:2" d="M43,119 l63,-109" />
<path style="fill:none;stroke:#000;stroke-width:2" d="M43,119 l-7,14 -7,15 -6,15 -4,16 -4,16 -3,17 -1,16 -1,16" />

</svg>
