

<svg xmlns:agg="http://www.example.com" xmlns="http://www.w3.org/2000/svg" preserveAspectRatio="none" width="1.6554in" height="1.4792in" viewBox="0 0 404 361">

<path style="fill:#7f7f7f" d="M275,350 l118,0 0,-237 -118,0 0,237z" />
<path style="fill:#999" d="M275,335 l118,0 0,-207 -118,0 0,207z" />
<path style="fill:#b2b2b2" d="M275,310 l118,0 0,-157 -118,0 0,157z" />
<path style="fill:#ccc" d="M275,286 l118,0 0,-109 -118,0 0,109z" />
<path style="fill:#e5e5e5" d="M275,267 l118,0 0,-70 -118,0 0,70z" />
<path style="fill:#fff" d="M275,246 l118,0 0,-29 -118,0 0,29z" />
<path style="fill:none;stroke:#000;stroke-width:2" d="M275,113 l118,0" />
<path style="fill:none;stroke:#000;stroke-width:2" d="M393,350 l-118,0" />
<path style="fill:#7f7f7f" d="M275,114 l-205,118 8,13 9,13 10,12 11,11 11,10 12,10 12,9 13,8 14,7 14,7 14,5 15,5 15,3 16,3 15,1 16,1 0,-236z" />
<path style="fill:#999" d="M275,114 l-192,110 8,12 8,12 9,11 10,11 11,10 11,9 12,8 12,8 13,7 13,6 13,5 14,4 14,4 15,2 14,2 15,0 0,-221z" />
<path style="fill:#b2b2b2" d="M275,114 l-171,98 7,11 8,10 8,10 9,10 9,9 10,8 10,7 11,7 12,6 11,5 12,5 13,4 12,3 13,2 13,2 13,0 0,-197z" />
<path style="fill:#ccc" d="M275,114 l-150,86 13,19 15,16 17,15 18,12 20,10 22,8 22,4 23,2 0,-172z" />
<path style="fill:#e5e5e5" d="M275,114 l-133,76 11,17 13,15 15,13 17,11 18,8 19,7 20,4 20,1 0,-152z" />
<path style="fill:#fff" d="M275,114 l-116,66 10,15 12,13 13,11 14,10 16,8 16,5 17,4 18,1 0,-133z" />
<path style="fill:#e5e5e5" d="M275,114 l-90,51 8,11 8,11 11,9 11,7 12,6 13,4 13,3 14,1 0,-103z" />
<path style="fill:#ccc" d="M275,114 l-73,42 6,9 8,8 8,7 9,6 10,5 10,3 11,2 11,1 0,-83z" />
<path style="fill:#b2b2b2" d="M275,114 l-56,32 5,7 6,6 6,5 7,5 7,4 8,3 8,1 9,1 0,-64z" />
<path style="fill:#999" d="M275,114 l-34,19 3,4 3,4 4,4 4,2 5,3 5,2 5,1 5,0 0,-39z" />
<path style="fill:none;stroke:#000;stroke-width:2" d="M70,232 l8,13 9,13 10,12 11,11 11,10 12,10 12,9 13,8 14,7 14,7 14,5 15,5 15,3 16,3 15,1 16,1" />
<path style="fill:#7f7f7f" d="M275,114 l-13,7 2,3 3,3 4,1 4,1 0,-15z" />
<path style="fill:#7f7f7f" d="M11,130 l59,102 205,-118 -59,-103 -205,119z" />
<path style="fill:#999" d="M24,122 l59,103 180,-104 -59,-103 -180,104z" />
<path style="fill:#b2b2b2" d="M46,110 l59,102 136,-79 -59,-102 -136,79z" />
<path style="fill:#ccc" d="M66,97 l60,103 94,-55 -59,-102 -95,54z" />
<path style="fill:#e5e5e5" d="M83,88 l59,102 60,-35 -59,-102 -60,35z" />
<path style="fill:#fff" d="M101,78 l59,102 25,-15 -59,-102 -25,15z" />
<path style="fill:none;stroke:#000;stroke-width:2" d="M216,11 l59,103" />
<path style="fill:none;stroke:#000;stroke-width:2" d="M70,232 l-59,-102" />

</svg>
