


<svg xmlns:agg="http://www.example.com" xmlns="http://www.w3.org/2000/svg" preserveAspectRatio="none" width="2.0104in" height="1.4590in" viewBox="0 0 999 725">

<path style="fill:#7f7f7f" d="M28,697 l0,-550 942,0 0,550 -942,0z" />
<path style="fill:#999" d="M86,697 l0,-550 826,0 0,550 -826,0z" />
<path style="fill:#b2b2b2" d="M188,697 l0,-550 626,0 0,550 -626,0z" />
<path style="fill:#ccc" d="M284,697 l0,-550 432,0 0,550 -432,0z" />
<path style="fill:#e5e5e5" d="M360,697 l0,-550 277,0 0,550 -277,0z" />
<path style="fill:#fff" d="M440,697 l0,-550 115,0 0,550 -115,0z" />
<path style="fill:none;stroke:#000;stroke-width:2" d="M970,697 l0,-550" />
<path style="fill:none;stroke:#000;stroke-width:2" d="M28,147 l0,550" />
<path style="fill:#ccc;stroke:#000;stroke-width:2" d="M970,147 l-40,156 -18,-40 -40,198 -98,-118 -119,118 -58,197 -117,-178 -40,-177 -97,119 -61,-58 -98,116 -58,-177 0,-58 -59,58 -39,-156 79,0 58,-79 79,60 78,-100 79,79 117,-59 60,138 59,-138 58,80 98,-100 58,60 61,-20 58,79z" />
<path style="fill:#666;stroke:#000;stroke-width:2" d="M930,147 l-18,116 -21,-37 -40,196 -98,-119 -116,98 -59,198 -79,-119 -59,-235 -118,137 -59,-58 -79,98 -40,-119 0,-98 -77,58 -20,-97 60,20 58,-98 59,78 79,-98 77,79 119,-59 79,157 59,-138 39,59 98,-98 40,60 77,-40 39,59z" />

</svg>
