

<svg xmlns:agg="http://www.example.com" xmlns="http://www.w3.org/2000/svg" preserveAspectRatio="none" width="1.7529in" height="1.4792in" viewBox="0 0 999 843">

<path style="fill:#7f7f7f" d="M28,451 l731,-423 211,366 -731,421 -211,-364z" />
<path style="fill:#999" d="M40,473 l731,-422 187,320 -731,423 -187,-321z" />
<path style="fill:#b2b2b2" d="M63,512 l731,-423 141,244 -731,422 -141,-243z" />
<path style="fill:#ccc" d="M84,549 l733,-423 97,170 -733,421 -97,-168z" />
<path style="fill:#e5e5e5" d="M102,579 l731,-423 63,108 -733,423 -61,-108z" />
<path style="fill:#fff" d="M119,611 l733,-423 25,46 -731,421 -27,-44z" />
<path style="fill:none;stroke:#000;stroke-width:2" d="M239,815 l731,-421" />
<path style="fill:none;stroke:#000;stroke-width:2" d="M759,28 l-731,423" />

</svg>
