 
<svg version="1.1" id="_x30_" xmlns:agg="http://www.example.com"
	 xmlns="http://www.w3.org/2000/svg" preserveAspectRatio="none"  xmlns:xlink="http://www.w3.org/1999/xlink" x="0px" y="0px" 
	  viewBox="1.415 1.415 55.385 49.697" xml:space="preserve">

<agg:params>
	<agg:param name="color" description="Color" type="C" cssAttributes="fill" classes="color"/>
	<agg:param type="F" name="saturation" description="Saturation" min="0" max="1" cssAttributes="opacity" classes="color"/>
</agg:params>

<style type="text/css" >
   <![CDATA[

	.stroke{
		stroke-width:0.3;
		stroke-linecap:round;
		stroke-linejoin:round;
		stroke: black;
		fill:none;
		opacity:0.5;
	}
	
	.color {
		fill:#3664BF;
		opacity:0.2;
	}

      ]]>
</style>

<radialGradient id="curved" cx="16.6861" cy="66.4196" r="53.843" gradientUnits="userSpaceOnUse">
	<stop  offset="0" style="stop-color:#4D5C75"/>
	<stop  offset="0.4918" style="stop-color:#4D5C75"/>
	<stop  offset="0.5077" style="stop-color:#616F85"/>
	<stop  offset="0.5481" style="stop-color:#8E99A9"/>
	<stop  offset="0.5888" style="stop-color:#B4BCC7"/>
	<stop  offset="0.629" style="stop-color:#D1D7DE"/>
	<stop  offset="0.6689" style="stop-color:#E5EAEF"/>
	<stop  offset="0.7081" style="stop-color:#F2F6F9"/>
	<stop  offset="0.7459" style="stop-color:#F6FAFC"/>
	<stop  offset="0.7837" style="stop-color:#F2F6F9"/>
	<stop  offset="0.8229" style="stop-color:#E5EAEF"/>
	<stop  offset="0.8628" style="stop-color:#D1D7DE"/>
	<stop  offset="0.903" style="stop-color:#B4BCC7"/>
	<stop  offset="0.9437" style="stop-color:#8E99A9"/>
	<stop  offset="0.9841" style="stop-color:#616F85"/>
	<stop  offset="1" style="stop-color:#4D5C75"/>
</radialGradient>
<path fill="url(#curved)" d="M29.91,43.479c-4.024-2.324-8.589-3.547-13.235-3.547c-5.087,0-10.174,0-15.26,0
	c0-9.113,0-18.228,0-27.337c5.086,0,10.173,0,15.26,0c9.447,0,18.729,2.486,26.909,7.212c4.404,2.542,8.813,5.086,13.216,7.629
	c-4.557,7.893-9.112,15.783-13.668,23.676C38.725,48.567,34.318,46.024,29.91,43.479z"/>
<linearGradient id="linear" gradientUnits="userSpaceOnUse" x1="9.0503" y1="12.5726" x2="9.0503" y2="39.9329">
	<stop  offset="0" style="stop-color:#4D5C75"/>
	<stop  offset="0.0313" style="stop-color:#616F85"/>
	<stop  offset="0.1108" style="stop-color:#8E99A9"/>
	<stop  offset="0.1908" style="stop-color:#B4BCC7"/>
	<stop  offset="0.27" style="stop-color:#D1D7DE"/>
	<stop  offset="0.3485" style="stop-color:#E5EAEF"/>
	<stop  offset="0.4256" style="stop-color:#F2F6F9"/>
	<stop  offset="0.5" style="stop-color:#F6FAFC"/>
	<stop  offset="0.5744" style="stop-color:#F2F6F9"/>
	<stop  offset="0.6515" style="stop-color:#E5EAEF"/>
	<stop  offset="0.73" style="stop-color:#D1D7DE"/>
	<stop  offset="0.8092" style="stop-color:#B4BCC7"/>
	<stop  offset="0.8892" style="stop-color:#8E99A9"/>
	<stop  offset="0.9687" style="stop-color:#616F85"/>
	<stop  offset="1" style="stop-color:#4D5C75"/>
</linearGradient>
<rect id="segment" x="1.415" y="12.573" fill="url(#linear)"  />
<g transform="translate(48.636,8.205)">
	<use xlink:href="#segment" transform="rotate(30)"/>
</g>
<path class="color" d="M29.91,43.479c-4.024-2.324-8.589-3.547-13.235-3.547
	c-5.087,0-10.174,0-15.26,0c0-9.113,0-18.228,0-27.337c5.086,0,10.173,0,15.26,0c9.447,0,18.729,2.486,26.909,7.212
	c4.404,2.542,8.813,5.086,13.216,7.629c-4.557,7.893-9.112,15.783-13.668,23.676C38.725,48.567,34.318,46.024,29.91,43.479z"/>
<path class="stroke" d="M43.132,51.112
	c-4.407-2.545-8.813-5.088-13.222-7.633c-4.024-2.324-8.589-3.547-13.235-3.547c-5.087,0-10.174,0-15.26,0"/>
<path class="stroke" d="M1.415,12.594
	c5.086,0,10.173,0,15.26,0c9.447,0,18.729,2.486,26.909,7.212c4.404,2.542,8.813,5.086,13.216,7.629"/>
</svg>
