 

<svg xmlns:agg="http://www.example.com" xmlns="http://www.w3.org/2000/svg" preserveAspectRatio="none" width="1.0363in" height="1.0750in" viewBox="0 0 963 999">

<path style="fill:#7f7f7f" d="M92,54 l0,32 2,32 2,32 3,32 4,32 4,32 6,31 6,32 7,31 8,31 9,31 9,31 10,30 11,30 11,30 12,30 14,29 13,29 15,29 15,28 16,28 16,28 17,27 17,26 19,26 19,26 19,25 20,24 21,24 21,23 22,23 22,22 450,-452 -23,-23 -22,-24 -21,-24 -19,-26 -18,-27 -17,-28 -16,-29 -13,-29 -13,-30 -11,-31 -8,-31 -8,-32 -6,-32 -4,-32 -3,-33 -1,-17 0,-16 -637,0z" />
<path style="fill:none;stroke:#000;stroke-width:2" d="M932,518 l-23,-23 -22,-24 -21,-24 -19,-26 -18,-27 -17,-28 -16,-29 -13,-29 -13,-30 -11,-31 -8,-31 -8,-32 -6,-32 -4,-32 -3,-33 -1,-17 0,-16" />
<path style="fill:none;stroke:#000;stroke-width:2" d="M92,54 l0,32 2,32 2,32 3,32 4,32 4,32 6,31 6,32 7,31 8,31 9,31 9,31 10,30 11,30 11,30 12,30 14,29 13,29 15,29 15,28 16,28 16,28 17,27 17,26 19,26 19,26 19,25 20,24 21,24 21,23 22,23 22,22" />
<path style="fill:#ccc;stroke:#000;stroke-width:2" d="M28,28 l0,53 737,0 0,-53 -737,0z" />
<path style="fill:#ccc;stroke:#000;stroke-width:2" d="M772,143 l-5,-51 -734,77 6,51 733,-77z" />
<path style="fill:#ccc;stroke:#000;stroke-width:2" d="M784,205 l-10,-53 -722,155 11,50 721,-152z" />
<path style="fill:#ccc;stroke:#000;stroke-width:2" d="M803,263 l-18,-50 -701,228 17,50 702,-228z" />
<path style="fill:#ccc;stroke:#000;stroke-width:2" d="M827,320 l-21,-49 -674,301 22,48 673,-300z" />
<path style="fill:#ccc;stroke:#000;stroke-width:2" d="M857,375 l-26,-47 -639,369 26,45 639,-367z" />
<path style="fill:#ccc;stroke:#000;stroke-width:2" d="M893,423 l-30,-41 -598,434 30,43 598,-436z" />
<path style="fill:#ccc;stroke:#000;stroke-width:2" d="M935,471 l-36,-40 -549,494 36,40 549,-494z" />

</svg>
