

<svg xmlns:agg="http://www.example.com" xmlns="http://www.w3.org/2000/svg" preserveAspectRatio="none" width="2.0104in" height="1.3769in" viewBox="0 0 530 363">

<path style="fill:#7f7f7f;stroke:#000;stroke-width:2" d="M120,56 l-11,-41 -62,0 -11,41 84,0z" />
<path style="fill:#7f7f7f;stroke:#000;stroke-width:2" d="M307,56 l-10,-41 -63,0 -10,41 83,0z" />
<path style="fill:#7f7f7f;stroke:#000;stroke-width:2" d="M495,56 l-11,-41 -62,0 -11,41 84,0z" />
<path style="fill:#7f7f7f;stroke:#000;stroke-width:2" d="M120,306 l-11,42 -62,0 -11,-42 84,0z" />
<path style="fill:#7f7f7f;stroke:#000;stroke-width:2" d="M307,306 l-10,42 -63,0 -10,-42 83,0z" />
<path style="fill:#7f7f7f;stroke:#000;stroke-width:2" d="M495,306 l-11,42 -62,0 -11,-42 84,0z" />
<path style="fill:#b2b2b2;stroke:#000;stroke-width:2" d="M104,56 l-5,-41 -52,0 -11,41 68,0z" />
<path style="fill:#b2b2b2;stroke:#000;stroke-width:2" d="M291,56 l-5,-41 -52,0 -10,41 67,0z" />
<path style="fill:#b2b2b2;stroke:#000;stroke-width:2" d="M479,56 l-5,-41 -52,0 -11,41 68,0z" />
<path style="fill:#b2b2b2;stroke:#000;stroke-width:2" d="M104,306 l-5,42 -52,0 -11,-42 68,0z" />
<path style="fill:#b2b2b2;stroke:#000;stroke-width:2" d="M291,306 l-5,42 -52,0 -10,-42 67,0z" />
<path style="fill:#b2b2b2;stroke:#000;stroke-width:2" d="M479,306 l-5,42 -52,0 -11,-42 68,0z" />
<path style="fill:#7f7f7f" d="M16,306 l0,-125 499,0 0,125 -499,0z" />
<path style="fill:#999" d="M46,306 l0,-125 439,0 0,125 -439,0z" />
<path style="fill:#b2b2b2" d="M100,306 l0,-125 332,0 0,125 -332,0z" />
<path style="fill:#ccc" d="M151,306 l0,-125 230,0 0,125 -230,0z" />
<path style="fill:#e5e5e5" d="M192,306 l0,-125 146,0 0,125 -146,0z" />
<path style="fill:#fff" d="M235,306 l0,-125 61,0 0,125 -61,0z" />
<path style="fill:none;stroke:#000;stroke-width:2" d="M15,306 l0,-125 500,0 0,125 -500,0" />
<path style="fill:#e5e5e5;stroke:#000;stroke-width:2" d="M57,348 l-10,0 -11,-42 16,0 5,42z" />
<path style="fill:#e5e5e5;stroke:#000;stroke-width:2" d="M245,348 l-11,0 -10,-42 15,0 6,42z" />
<path style="fill:#e5e5e5;stroke:#000;stroke-width:2" d="M432,348 l-10,0 -11,-42 16,0 5,42z" />
<path style="fill:#e5e5e5;stroke:#000;stroke-width:2" d="M57,15 l-10,0 -11,41 16,0 5,-41z" />
<path style="fill:#e5e5e5;stroke:#000;stroke-width:2" d="M245,15 l-11,0 -10,41 15,0 6,-41z" />
<path style="fill:#e5e5e5;stroke:#000;stroke-width:2" d="M432,15 l-10,0 -11,41 16,0 5,-41z" />
<path style="fill:#7f7f7f" d="M16,56 l0,125 499,0 0,-125 -499,0z" />
<path style="fill:#999" d="M46,56 l0,125 439,0 0,-125 -439,0z" />
<path style="fill:#b2b2b2" d="M100,56 l0,125 332,0 0,-125 -332,0z" />
<path style="fill:#ccc" d="M151,56 l0,125 230,0 0,-125 -230,0z" />
<path style="fill:#e5e5e5" d="M192,56 l0,125 146,0 0,-125 -146,0z" />
<path style="fill:#fff" d="M235,56 l0,125 61,0 0,-125 -61,0z" />
<path style="fill:none;stroke:#000;stroke-width:2" d="M15,56 l0,125 500,0 0,-125 -500,0" />

</svg>
