

<svg xmlns:agg="http://www.example.com" xmlns="http://www.w3.org/2000/svg" preserveAspectRatio="none" width="1.2482in" height="1.4792in" viewBox="0 0 843 999">

<path style="fill:#7f7f7f" d="M451,970 l-423,-731 366,-211 421,731 -364,211z" />
<path style="fill:#999" d="M473,958 l-422,-731 320,-187 423,731 -321,187z" />
<path style="fill:#b2b2b2" d="M512,935 l-422,-731 243,-141 422,731 -243,141z" />
<path style="fill:#ccc" d="M549,914 l-423,-733 170,-97 421,733 -168,97z" />
<path style="fill:#e5e5e5" d="M579,896 l-423,-731 108,-63 423,733 -108,61z" />
<path style="fill:#fff" d="M611,879 l-423,-733 46,-25 421,731 -44,27z" />
<path style="fill:none;stroke:#000;stroke-width:2" d="M815,759 l-421,-731" />
<path style="fill:none;stroke:#000;stroke-width:2" d="M28,239 l423,731" />

</svg>
