

<svg xmlns:agg="http://www.example.com" xmlns="http://www.w3.org/2000/svg" preserveAspectRatio="none" width="1.6899in" height="1.4792in" viewBox="0 0 401 351">

<path style="fill:#7f7f7f" d="M390,254 l-122,0 0,-243 122,0 0,243z" />
<path style="fill:#999" d="M390,239 l-122,0 0,-213 122,0 0,213z" />
<path style="fill:#b2b2b2" d="M390,213 l-122,0 0,-162 122,0 0,162z" />
<path style="fill:#ccc" d="M390,188 l-122,0 0,-111 122,0 0,111z" />
<path style="fill:#e5e5e5" d="M390,168 l-122,0 0,-71 122,0 0,71z" />
<path style="fill:#fff" d="M390,147 l-122,0 0,-29 122,0 0,29z" />
<path style="fill:none;stroke:#000;stroke-width:2" d="M390,11 l-122,0" />
<path style="fill:none;stroke:#000;stroke-width:2" d="M268,254 l122,0" />
<path style="fill:#7f7f7f" d="M268,254 l-171,-172 8,-8 9,-8 10,-7 9,-7 10,-6 11,-6 10,-5 11,-5 11,-4 12,-4 11,-3 12,-3 12,-2 11,-2 12,-1 12,0 0,243z" />
<path style="fill:#999" d="M268,254 l-161,-161 8,-8 9,-7 8,-7 10,-6 9,-6 10,-6 10,-5 10,-4 11,-4 10,-4 11,-3 11,-2 11,-2 11,-2 11,-1 11,0 0,228z" />
<path style="fill:#b2b2b2" d="M268,254 l-143,-143 15,-13 16,-12 17,-10 18,-8 18,-7 20,-5 19,-3 20,-1 0,202z" />
<path style="fill:#ccc" d="M268,254 l-125,-125 13,-12 14,-10 15,-9 16,-7 16,-6 17,-5 17,-2 17,-1 0,177z" />
<path style="fill:#e5e5e5" d="M268,254 l-111,-111 11,-10 13,-9 13,-8 14,-7 15,-5 14,-4 16,-2 15,-1 0,157z" />
<path style="fill:#fff" d="M268,254 l-96,-97 10,-9 11,-8 11,-7 12,-5 13,-5 13,-3 13,-2 13,-1 0,137z" />
<path style="fill:#e5e5e5" d="M268,254 l-75,-75 8,-7 8,-6 9,-6 10,-4 10,-3 10,-3 10,-1 10,-1 0,106z" />
<path style="fill:#ccc" d="M268,254 l-60,-61 6,-6 7,-5 7,-4 7,-4 8,-2 8,-2 9,-2 8,0 0,86z" />
<path style="fill:#b2b2b2" d="M268,254 l-46,-46 5,-5 5,-4 5,-3 6,-3 6,-2 6,-2 7,-1 6,0 0,66z" />
<path style="fill:#999" d="M268,254 l-28,-29 6,-5 7,-3 7,-2 8,-1 0,40z" />
<path style="fill:#7f7f7f" d="M268,254 l-10,-11 2,-2 2,-1 3,-1 3,0 0,15z" />
<path style="fill:none;stroke:#000;stroke-width:2" d="M97,82 l8,-8 9,-8 10,-7 9,-7 10,-6 11,-6 10,-5 11,-5 11,-4 12,-4 11,-3 12,-3 12,-2 11,-2 12,-1 12,0" />
<path style="fill:#7f7f7f" d="M268,254 l-86,86 -171,-172 86,-85 171,171z" />
<path style="fill:#999" d="M258,243 l-86,86 -150,-150 85,-86 151,150z" />
<path style="fill:#b2b2b2" d="M239,225 l-85,86 -114,-114 85,-86 114,114z" />
<path style="fill:#ccc" d="M222,208 l-86,85 -79,-78 86,-86 79,79z" />
<path style="fill:#e5e5e5" d="M208,194 l-86,85 -50,-50 86,-86 50,51z" />
<path style="fill:#fff" d="M193,179 l-86,86 -21,-21 86,-86 21,21z" />
<path style="fill:none;stroke:#000;stroke-width:2" d="M97,83 l-86,85" />
<path style="fill:none;stroke:#000;stroke-width:2" d="M182,340 l86,-86" />

</svg>
