 

<svg xmlns:agg="http://www.example.com" xmlns="http://www.w3.org/2000/svg" preserveAspectRatio="none" width="1.5701in" height="1.0750in" viewBox="0 0 999 684">

<path style="fill:#b2b2b2" d="M892,184 l-786,0 0,315 786,0 0,-315z" />
<path style="fill:#ccc" d="M892,209 l-786,0 0,265 786,0 0,-265z" />
<path style="fill:#e5e5e5" d="M892,249 l-786,0 0,185 786,0 0,-185z" />
<path style="fill:#fff" d="M892,294 l-786,0 0,98 786,0 0,-98z" />
<path style="fill:none;stroke:#000;stroke-width:2" d="M892,184 l-786,0 0,315 786,0 0,-315" />
<path style="fill:#b2b2b2" d="M892,28 l78,0 0,627 -78,0 0,-627z" />
<path style="fill:#ccc" d="M892,77 l78,0 0,529 -78,0 0,-529z" />
<path style="fill:#e5e5e5" d="M892,155 l78,0 0,373 -78,0 0,-373z" />
<path style="fill:#fff" d="M892,244 l78,0 0,197 -78,0 0,-197z" />
<path style="fill:none;stroke:#000;stroke-width:2" d="M892,28 l78,0 0,627 -78,0 0,-627" />
<path style="fill:#b2b2b2" d="M28,28 l78,0 0,627 -78,0 0,-627z" />
<path style="fill:#ccc" d="M28,77 l78,0 0,529 -78,0 0,-529z" />
<path style="fill:#e5e5e5" d="M28,155 l78,0 0,373 -78,0 0,-373z" />
<path style="fill:#fff" d="M28,244 l78,0 0,197 -78,0 0,-197z" />
<path style="fill:none;stroke:#000;stroke-width:2" d="M28,28 l78,0 0,627 -78,0 0,-627" />
<path style="fill:#7f7f7f;stroke:#000;stroke-width:2" d="M343,396 l-3,-27 -1,-30 -1,-6 0,-5 0,-5 1,-28 2,-30 4,-29 7,-26 2,-6 290,0 7,26 5,28 3,30 0,15 1,8 0,7 -1,31 -2,29 -1,14 -1,4 -312,0z" />
<path style="fill:#b2b2b2" d="M892,146 l-40,0 0,393 40,0 0,-393z" />
<path style="fill:#ccc" d="M892,175 l-40,0 0,333 40,0 0,-333z" />
<path style="fill:#e5e5e5" d="M892,224 l-40,0 0,235 40,0 0,-235z" />
<path style="fill:#fff" d="M892,280 l-40,0 0,123 40,0 0,-123z" />
<path style="fill:none;stroke:#000;stroke-width:2" d="M892,146 l-40,0 0,393 40,0 0,-393" />
<path style="fill:#b2b2b2" d="M146,146 l-40,0 0,393 40,0 0,-393z" />
<path style="fill:#ccc" d="M146,175 l-40,0 0,333 40,0 0,-333z" />
<path style="fill:#e5e5e5" d="M146,224 l-40,0 0,235 40,0 0,-235z" />
<path style="fill:#fff" d="M146,280 l-40,0 0,123 40,0 0,-123z" />
<path style="fill:none;stroke:#000;stroke-width:2" d="M146,146 l-40,0 0,393 40,0 0,-393" />
<path style="fill:#b2b2b2;stroke:#000;stroke-width:2" d="M617,184 l-40,0 0,-13 40,0 0,13z" />
<path style="fill:#4c4c4c;stroke:#000;stroke-width:2" d="M356,396 l-1,-27 -1,-30 0,-6 0,-5 0,-5 0,-33 3,-30 6,-29 2,-5 2,-6 264,0 8,28 4,30 1,19 0,7 0,7 0,28 -1,30 -1,23 0,4 -286,0z" />
<circle style="fill:#999;stroke:#000;stroke-width:2" cx="597" cy="308" r="20" />
<path style="fill:#ccc" d="M597,298 l-6,2 -2,2 -1,3 2,10 1,1 6,2 6,-3 3,-8 -4,-7 -5,-2z" />
<path style="fill:#7f7f7f" d="M427,229 l-47,47 0,62 47,49 159,-65 0,-31 -159,-62z" />
<path style="fill:#999" d="M427,244 l-47,38 0,52 47,35 159,-49 0,-24 -159,-52z" />
<path style="fill:#b2b2b2" d="M427,276 l-47,20 0,24 47,18 159,-24 0,-12 -159,-26z" />
<path style="fill:none;stroke:#000;stroke-width:2" d="M427,229 l-47,47 0,62 47,49 159,-65 0,-31 -159,-62" />
<path style="fill:none;stroke:#7f7f7f;stroke-width:2" d="M427,229 l0,158" />
<path style="fill:#999" d="M606,294 l-18,0 0,-74 18,0 0,74z" />
<path style="fill:#ccc" d="M602,294 l-9,0 0,-74 9,0 0,74z" />
<path style="fill:none;stroke:#000;stroke-width:2" d="M606,294 l-18,0 0,-74 18,0 0,74" />
<path style="fill:#b2b2b2;stroke:#000;stroke-width:2" d="M696,184 l-41,0 0,-13 41,0 0,13z" />

</svg>
