

<svg xmlns:agg="http://www.example.com" xmlns="http://www.w3.org/2000/svg" preserveAspectRatio="none" width="2.0104in" height="0.9438in" viewBox="0 0 999 469">

<path style="fill:#fff;stroke:#000;stroke-width:2" d="M56,147 l443,0 428,-59 0,294 -428,-58 -443,0 0,-177z" />
<path style="fill:#e5e5e5" d="M62,320 l0,-45 437,0 424,22 0,81 -424,-58 -437,0z" />
<path style="fill:#e5e5e5;stroke:#000;stroke-width:2" d="M28,88 l28,0 0,294 -28,0 0,-294z" />
<path style="fill:#e5e5e5;stroke:#000;stroke-width:2" d="M925,28 l45,0 0,413 -45,0 0,-413z" />
<path style="fill:#666;stroke:#000;stroke-width:2" d="M476,88 l46,0 0,294 -46,0 0,-294z" />
<path style="fill:#ccc" d="M929,316 l37,0 0,121 -37,0 0,-121z" />
<path style="fill:#ccc" d="M32,297 l22,0 0,81 -22,0 0,-81z" />
<path style="fill:#fff" d="M929,32 l37,0 0,84 -37,0 0,-84z" />
<path style="fill:#fff" d="M32,92 l22,0 0,55 -22,0 0,-55z" />
<path style="fill:#4c4c4c" d="M480,297 l38,0 0,81 -38,0 0,-81z" />
<path style="fill:#999" d="M480,92 l38,0 0,70 -38,0 0,-70z" />
<path style="fill:#ccc;stroke:#000;stroke-width:2" d="M58,341 l13,0 0,11 -13,0 0,-11z" />
<path style="fill:#ccc;stroke:#000;stroke-width:2" d="M58,101 l13,0 0,12 -13,0 0,-12z" />
<path style="fill:#ccc;stroke:#000;stroke-width:2" d="M58,212 l13,0 0,12 -13,0 0,-12z" />
<path style="fill:#ccc;stroke:#000;stroke-width:2" d="M912,397 l15,0 0,10 -15,0 0,-10z" />
<path style="fill:#ccc;stroke:#000;stroke-width:2" d="M912,278 l15,0 0,12 -15,0 0,-12z" />
<path style="fill:#ccc;stroke:#000;stroke-width:2" d="M912,158 l15,0 0,11 -15,0 0,-11z" />
<path style="fill:#ccc;stroke:#000;stroke-width:2" d="M912,43 l15,0 0,11 -15,0 0,-11z" />
<path style="fill:#999;stroke:#000;stroke-width:2" d="M912,54 l15,0 0,19 -15,0 0,-19z" />
<path style="fill:#999;stroke:#000;stroke-width:2" d="M912,169 l15,0 0,17 -15,0 0,-17z" />
<path style="fill:#999;stroke:#000;stroke-width:2" d="M912,290 l15,0 0,19 -15,0 0,-19z" />
<path style="fill:#999;stroke:#000;stroke-width:2" d="M912,407 l15,0 0,18 -15,0 0,-18z" />
<path style="fill:#999;stroke:#000;stroke-width:2" d="M58,224 l13,0 0,19 -13,0 0,-19z" />
<path style="fill:#999;stroke:#000;stroke-width:2" d="M58,113 l13,0 0,18 -13,0 0,-18z" />
<path style="fill:#999;stroke:#000;stroke-width:2" d="M58,352 l13,0 0,19 -13,0 0,-19z" />

</svg>
