 

<svg xmlns:agg="http://www.example.com" xmlns="http://www.w3.org/2000/svg" preserveAspectRatio="none" width="1.0685in" height="1.0750in" viewBox="0 0 993 999">

<path style="fill:#7f7f7f" d="M226,48 l369,368 -185,185 -367,-368 183,-185z" />
<path style="fill:none;stroke:#000;stroke-width:2" d="M595,416 l-369,-368" />
<path style="fill:none;stroke:#000;stroke-width:2" d="M410,601 l-367,-368" />
<path style="fill:#ccc;stroke:#000;stroke-width:2" d="M258,43 l-15,-15 -215,215 15,15 215,-215z" />
<path style="fill:#ccc;stroke:#000;stroke-width:2" d="M290,75 l-17,-17 -215,215 17,17 215,-215z" />
<path style="fill:#ccc;stroke:#000;stroke-width:2" d="M320,105 l-15,-15 -215,215 15,15 215,-215z" />
<path style="fill:#ccc;stroke:#000;stroke-width:2" d="M350,135 l-15,-15 -215,215 15,15 215,-215z" />
<path style="fill:#ccc;stroke:#000;stroke-width:2" d="M380,165 l-15,-15 -215,215 15,15 215,-215z" />
<path style="fill:#ccc;stroke:#000;stroke-width:2" d="M412,197 l-15,-15 -215,215 15,15 215,-215z" />
<path style="fill:#ccc;stroke:#000;stroke-width:2" d="M443,228 l-16,-15 -214,214 15,16 215,-215z" />
<path style="fill:#ccc;stroke:#000;stroke-width:2" d="M473,258 l-16,-15 -214,214 15,16 215,-215z" />
<path style="fill:#ccc;stroke:#000;stroke-width:2" d="M504,290 l-16,-17 -215,215 17,16 214,-214z" />
<path style="fill:#ccc;stroke:#000;stroke-width:2" d="M535,320 l-15,-15 -215,215 15,15 215,-215z" />
<path style="fill:#ccc;stroke:#000;stroke-width:2" d="M565,350 l-15,-15 -215,215 15,15 215,-215z" />
<path style="fill:#ccc;stroke:#000;stroke-width:2" d="M595,380 l-15,-15 -215,215 15,15 215,-215z" />
<path style="fill:#7f7f7f" d="M595,418 l368,367 -183,185 -370,-369 185,-183z" />
<path style="fill:none;stroke:#000;stroke-width:2" d="M963,785 l-368,-367" />
<path style="fill:none;stroke:#000;stroke-width:2" d="M780,970 l-370,-369" />
<path style="fill:#ccc;stroke:#000;stroke-width:2" d="M627,412 l-15,-15 -215,215 15,15 215,-215z" />
<path style="fill:#ccc;stroke:#000;stroke-width:2" d="M657,443 l-15,-16 -215,215 16,15 214,-214z" />
<path style="fill:#ccc;stroke:#000;stroke-width:2" d="M687,473 l-14,-16 -216,216 16,14 214,-214z" />
<path style="fill:#ccc;stroke:#000;stroke-width:2" d="M720,504 l-15,-14 -215,215 14,15 216,-216z" />
<path style="fill:#ccc;stroke:#000;stroke-width:2" d="M750,535 l-16,-15 -214,215 15,15 215,-215z" />
<path style="fill:#ccc;stroke:#000;stroke-width:2" d="M780,565 l-15,-15 -215,215 15,15 215,-215z" />
<path style="fill:#ccc;stroke:#000;stroke-width:2" d="M812,597 l-17,-17 -215,215 17,17 215,-215z" />
<path style="fill:#ccc;stroke:#000;stroke-width:2" d="M842,627 l-15,-15 -215,215 15,15 215,-215z" />
<path style="fill:#ccc;stroke:#000;stroke-width:2" d="M872,657 l-15,-15 -215,215 15,15 215,-215z" />
<path style="fill:#ccc;stroke:#000;stroke-width:2" d="M903,687 l-16,-14 -214,214 14,16 216,-216z" />
<path style="fill:#ccc;stroke:#000;stroke-width:2" d="M935,720 l-16,-15 -214,214 15,16 215,-215z" />
<path style="fill:#ccc;stroke:#000;stroke-width:2" d="M965,750 l-15,-15 -216,215 16,15 215,-215z" />

</svg>
